<svg xmlns="http://www.w3.org/2000/svg" xml:space="preserve" viewBox="0 0 95.37 95.37"><linearGradient id="a" x1="29.284" x2="69.76" y1="11.112" y2="81.219" gradientUnits="userSpaceOnUse"><stop offset="0" style="stop-color:#c23014"/><stop offset="1" style="stop-color:#171717"/></linearGradient><path fill="url(#a)" d="M27.89 82.09c-.78 0-1.51-.31-2.06-.87-.57-.58-.88-1.35-.87-2.18l.1-8.75 1.03-17.18-2.93-3.17-5.37-4.6c-5.5-3.74-7.68-10.97-5.19-17.24.92-2.3 2.1-4.48 3.52-6.46 1.77-2.48 3.9-4.67 6.32-6.51 1.51-1.14 3.38-1.77 5.27-1.77.91 0 1.81.14 2.67.42.91.29 4.87 1.38 6.38 1.79 2.39-2.06 5.23-3.63 8.25-4.55.87-.27 1.77-.4 2.68-.4.92 0 1.82.14 2.69.4 3.05.94 5.82 2.47 8.23 4.55 1.51-.41 5.48-1.5 6.4-1.79.86-.27 1.75-.41 2.65-.41 1.92 0 3.74.61 5.27 1.77 2.43 1.85 4.56 4.04 6.32 6.51 1.42 1.98 2.6 4.15 3.52 6.45 2.5 6.26.31 13.5-5.2 17.24l-5.35 4.59-2.94 3.19 1.03 17.12.09 8.81c.01.82-.29 1.59-.86 2.17-.55.56-1.29.87-2.06.87z"/><path d="M47.69 11.87c.78 0 1.57.12 2.32.35 3.12.96 5.9 2.59 8.21 4.68q.06.015.12.03s5.87-1.59 7.04-1.97c.74-.23 1.51-.35 2.27-.35 1.59 0 3.18.51 4.51 1.51 1.95 1.48 4.12 3.52 6.06 6.24 1.49 2.08 2.57 4.18 3.37 6.19 2.3 5.77.3 12.36-4.79 15.78l-.01.01c-1.51 1.3-3.94 3.38-5.45 4.68l-3.32 3.6c-.01.03-.02.06-.03.08l1.06 17.6.09 8.75c.02.98-.74 1.78-1.68 1.78H27.89c-.94 0-1.69-.8-1.68-1.78l.1-8.75 1.05-17.59c-.01-.03-.03-.07-.04-.1l-3.3-3.58c-1.83-1.57-3.65-3.13-5.48-4.7-5.09-3.42-7.09-10.01-4.79-15.78.8-2.01 1.89-4.11 3.37-6.19 1.95-2.72 4.11-4.76 6.06-6.24 1.33-1.01 2.92-1.52 4.51-1.52.77 0 1.54.12 2.29.36 1.16.38 7.03 1.97 7.03 1.97.04-.01.07-.02.11-.03 2.31-2.1 5.11-3.73 8.24-4.7.76-.21 1.54-.33 2.33-.33m0-2.5c-1.04 0-2.06.15-3.05.46-2.97.91-5.77 2.41-8.18 4.37-1.98-.54-4.96-1.36-5.69-1.6-.99-.32-2.02-.48-3.06-.48-2.16 0-4.3.72-6.02 2.02-2.52 1.92-4.74 4.2-6.59 6.78-1.48 2.06-2.71 4.32-3.66 6.72-2.7 6.78-.35 14.62 5.59 18.69l3.93 3.37 1.33 1.14 2.52 2.73-.99 16.59q0 .06 0 .12l-.1 8.75c-.01 1.16.42 2.25 1.23 3.07.79.8 1.84 1.24 2.95 1.24h39.58c1.12 0 2.17-.44 2.96-1.25.81-.82 1.24-1.92 1.22-3.08l-.09-8.73q0-.06 0-.12l-.99-16.59 2.53-2.74 4.38-3.76.85-.73c5.95-4.09 8.3-11.92 5.6-18.7-.95-2.39-2.18-4.65-3.66-6.72-1.83-2.57-4.05-4.85-6.58-6.78-1.72-1.31-3.86-2.02-6.02-2.02-1.03 0-2.05.16-3.03.47-.75.24-3.74 1.06-5.73 1.61-2.42-1.97-5.16-3.44-8.16-4.36-1-.31-2.03-.47-3.07-.47"/><path d="m76.82 44.34-.01.01c-1.51 1.3-3.94 3.38-5.45 4.68l-3.32 3.6c-.01.03-.02.05-.03.08l1.05 17.6.1 8.75c.01.98-.74 1.78-1.68 1.78h-3.81c.94 0 1.7-.8 1.68-1.78l-.09-8.75-1.06-17.6c.01-.03.02-.05.03-.08l3.32-3.6c1.51-1.3 3.95-3.38 5.46-4.68l.01-.01c5.09-3.42 7.09-10 4.79-15.78-.8-2-1.89-4.11-3.38-6.19-1.94-2.72-4.11-4.76-6.06-6.24-.79-.6-1.67-1.02-2.6-1.26 2.18-.57 4.55-.15 6.41 1.26 1.95 1.48 4.11 3.52 6.06 6.24 1.48 2.08 2.57 4.19 3.37 6.19 2.3 5.78.3 12.36-4.79 15.78" opacity=".15"/><path fill="#fff" d="M30.45 80.84h-2.56c-.93 0-1.69-.8-1.68-1.78l.1-8.75 1.05-17.59c-.01-.03-.02-.07-.03-.1l-3.3-3.58c-1.83-1.57-3.65-3.13-5.48-4.7-3.67-2.47-5.73-6.58-5.73-10.86 0-1.64.3-3.31.94-4.92.8-2 1.89-4.11 3.37-6.19 1.95-2.72 4.12-4.76 6.07-6.24 1.68-1.27 3.79-1.75 5.79-1.39-1.16.19-2.27.66-3.24 1.39-1.95 1.48-4.11 3.52-6.06 6.24-1.49 2.08-2.58 4.19-3.38 6.19-.64 1.61-.94 3.28-.94 4.92 0 4.28 2.06 8.39 5.73 10.86 1.84 1.57 3.65 3.13 5.48 4.7l3.3 3.58c.01.03.03.07.04.1l-1.06 17.59-.1 8.75c-.01.98.75 1.78 1.69 1.78" opacity=".25"/><path d="M58.1 15.64c.35 2.9.6 6.15.64 9.68.04 3.59-.15 6.89-.44 9.83l-.43 1.18c-1.41 3.82-2.13 7.86-2.13 11.94v2.32l2.1.34 3.1-8.66 4.16-7.64V31.4l-1.89-4.36-.7-6.75-2.34-3.73c-.69-.31-1.38-.61-2.07-.92" opacity=".15"/><g opacity=".4"><path d="m38.26 35.75-1.8-.23c-1.04-.13-1.81-.87-1.81-1.74 0-.4.39-.72.87-.72h1.34c1.33 0 2.4.89 2.4 1.98 0 .44-.48.78-1 .71"/><path d="M38.39 36.26c-.07 0-.13 0-.2-.01l-1.8-.23c-1.3-.17-2.25-1.11-2.25-2.24 0-.67.61-1.22 1.37-1.22h1.34c1.6 0 2.9 1.11 2.9 2.48 0 .33-.14.64-.41.87-.25.22-.59.35-.95.35m-2.87-2.7c-.23 0-.37.13-.37.22 0 .61.59 1.14 1.37 1.24l1.8.23c.16.02.3-.04.37-.1.03-.03.07-.07.07-.12 0-.82-.85-1.48-1.9-1.48h-1.34z"/></g><g opacity=".4"><path d="m56.88 35.75 1.8-.23c1.04-.13 1.81-.87 1.81-1.74 0-.4-.39-.72-.87-.72h-1.34c-1.33 0-2.4.89-2.4 1.98-.01.44.47.78 1 .71"/><path d="M56.74 36.26c-.36 0-.7-.12-.96-.35s-.41-.54-.41-.87c0-1.37 1.3-2.48 2.9-2.48h1.34c.76 0 1.37.55 1.37 1.22 0 1.13-.94 2.07-2.25 2.24l-1.8.23c-.06 0-.12.01-.19.01m1.53-2.7c-1.05 0-1.9.66-1.9 1.48 0 .05.04.09.07.12.07.06.21.12.37.1l1.8-.23c.78-.1 1.37-.64 1.37-1.24 0-.09-.14-.22-.37-.22h-1.34z"/></g><path fill="none" stroke="#000" stroke-linecap="round" stroke-linejoin="round" stroke-miterlimit="11.339" stroke-width="2.5" d="M58.38 15.39c2.28 1.94 4.12 4.03 4.4 6.92l.42 4.34 1.42 3.67c.76 1.98.59 4.2-.48 6.04l-3.46 5.94c-.22.38-.29.83-.2 1.26M36.86 15.52c-2.5 2.03-3.99 3.92-4.27 6.81l-.42 4.33-1.42 3.67c-.76 1.98-.59 4.2.48 6.04l3.46 5.94c.22.38.29.83.2 1.26m-8.29 9.65c.65.37 1.94.98 3.66 1.02 2.53.06 4.33-1.16 4.91-1.59m33.32.57c-.65.37-1.94.98-3.66 1.02-2.53.06-4.33-1.16-4.91-1.59"/><linearGradient id="b" x1="36.487" x2="57.859" y1="61.501" y2="98.518" gradientUnits="userSpaceOnUse"><stop offset="0" style="stop-color:#c23014"/><stop offset="1" style="stop-color:#171717"/></linearGradient><path fill="url(#b)" d="M20.01 87.72c-2.59 0-4.69-2.11-4.69-4.69v-2.41c0-6.58 5.35-11.94 11.94-11.94h40.81c6.58 0 11.94 5.35 11.94 11.94v2.41c0 2.59-2.11 4.69-4.69 4.69z"/><path d="M68.07 69.93c5.9 0 10.69 4.78 10.69 10.69v2.41c0 1.9-1.54 3.44-3.44 3.44h-55.3c-1.9 0-3.44-1.54-3.44-3.44v-2.41c0-5.9 4.78-10.69 10.69-10.69zm0-2.5H27.25c-7.27 0-13.19 5.92-13.19 13.19v2.41c0 3.28 2.67 5.94 5.94 5.94h55.3c3.28 0 5.94-2.67 5.94-5.94v-2.41c.01-7.28-5.9-13.19-13.17-13.19"/><linearGradient id="c" x1="36.487" x2="57.859" y1="61.501" y2="98.518" gradientUnits="userSpaceOnUse"><stop offset="0" style="stop-color:#c23014"/><stop offset="1" style="stop-color:#171717"/></linearGradient><path fill="url(#c)" d="M20.01 87.72c-2.59 0-4.69-2.11-4.69-4.69v-2.41c0-6.58 5.35-11.94 11.94-11.94h40.81c6.58 0 11.94 5.35 11.94 11.94v2.41c0 2.59-2.11 4.69-4.69 4.69z"/><path d="M68.07 69.93c5.9 0 10.69 4.78 10.69 10.69v2.41c0 1.9-1.54 3.44-3.44 3.44h-55.3c-1.9 0-3.44-1.54-3.44-3.44v-2.41c0-5.9 4.78-10.69 10.69-10.69zm0-2.5H27.25c-7.27 0-13.19 5.92-13.19 13.19v2.41c0 3.28 2.67 5.94 5.94 5.94h55.3c3.28 0 5.94-2.67 5.94-5.94v-2.41c.01-7.28-5.9-13.19-13.17-13.19"/><path d="M78.76 80.61v2.41c0 1.9-1.54 3.44-3.45 3.44h-10c1.91 0 3.45-1.54 3.45-3.44v-2.41c0-5.9-4.79-10.69-10.69-10.69h10c5.9 0 10.69 4.79 10.69 10.69" opacity=".15"/><path fill="#fff" d="m56.41 69.93-25.62 1.69c-5.91.64-11.69 4.85-11.69 10.75v2.41c0 .6.16 1.17.43 1.66-1.69-.22-2.99-1.66-2.99-3.41v-2.41c0-5.9 4.79-10.69 10.69-10.69z" opacity=".25"/><linearGradient id="d" x1="8.707" x2="78.279" y1="58.831" y2="73.292" gradientUnits="userSpaceOnUse"><stop offset="0" style="stop-color:#c23014"/><stop offset="1" style="stop-color:#171717"/></linearGradient><path fill="url(#d)" stroke="#000" stroke-linejoin="round" stroke-miterlimit="11.339" stroke-width="2.5" d="M53.86 51.85 51.5 75.86c-.13 1.29.89 2.41 2.18 2.41 1.21 0 2.19-.98 2.19-2.19 0-1.15.93-2.09 2.09-2.09h2.71c.56 0 1.01.45 1.01 1.01v.71c0 4.62-3.75 8.37-8.37 8.37h-1.05c-4.31 0-7.91-3.27-8.33-7.56l-2.42-24.74"/><linearGradient id="e" x1="33.743" x2="42.78" y1="51.625" y2="67.278" gradientUnits="userSpaceOnUse"><stop offset="0" style="stop-color:#c23014"/><stop offset="1" style="stop-color:#171717"/></linearGradient><path fill="url(#e)" d="M37.15 70.26c-.77 0-1.46-.52-1.68-1.25l-.25-.84c-1.19-3.96-1.34-8.18-.45-12.21l.95-4.26c.33-1.48 1.62-2.51 3.14-2.51.78 0 1.53.29 2.12.81.93.82 1.3 2.12.95 3.31l-2.13 7.25c-.59 1.99-.88 4.06-.88 6.13v1.82c0 .72-.45 1.38-1.13 1.64-.21.07-.43.11-.64.11"/><path d="M38.85 50.43c.45 0 .91.16 1.29.49.57.5.79 1.29.58 2.02l-2.13 7.25c-.62 2.11-.94 4.29-.94 6.49v1.82c0 .21-.13.4-.33.48q-.09.03-.18.03c-.22 0-.42-.14-.49-.36l-.25-.84c-1.13-3.76-1.27-7.75-.42-11.58l.95-4.26c.22-.97 1.06-1.54 1.92-1.54m0-2.5c-2.11 0-3.9 1.44-4.36 3.49l-.95 4.26c-.94 4.24-.78 8.68.47 12.84l.25.84c.38 1.28 1.54 2.14 2.88 2.14.37 0 .73-.07 1.08-.2 1.15-.44 1.93-1.57 1.93-2.81v-1.82c0-1.96.28-3.9.83-5.78l2.13-7.25c.49-1.65-.03-3.45-1.32-4.6-.8-.71-1.85-1.11-2.94-1.11"/><linearGradient id="f" x1="52.695" x2="62.579" y1="50.891" y2="68.01" gradientUnits="userSpaceOnUse"><stop offset="0" style="stop-color:#c23014"/><stop offset="1" style="stop-color:#171717"/></linearGradient><path fill="url(#f)" d="M58.22 70.26q-.33 0-.63-.12c-.67-.26-1.13-.92-1.13-1.64v-1.82c0-2.08-.3-4.14-.88-6.13l-2.13-7.25c-.35-1.19.02-2.49.95-3.31.59-.52 1.34-.81 2.12-.81 1.52 0 2.81 1.03 3.14 2.51l.95 4.26c.9 4.03.74 8.25-.45 12.21l-.26.84c-.22.74-.91 1.26-1.68 1.26"/><path d="M56.51 50.43c.87 0 1.71.58 1.92 1.54l.95 4.26c.85 3.83.71 7.82-.42 11.58l-.25.84c-.07.22-.27.36-.49.36q-.09 0-.18-.03c-.2-.08-.33-.26-.33-.48v-1.82c0-2.2-.31-4.38-.94-6.49l-2.13-7.25c-.21-.73.01-1.51.58-2.02.38-.34.84-.49 1.29-.49m0-2.5c-1.09 0-2.13.4-2.95 1.12-1.29 1.14-1.8 2.94-1.32 4.59l2.13 7.25c.55 1.88.83 3.82.83 5.78v1.82c0 1.24.78 2.36 1.93 2.81.35.13.71.2 1.08.2 1.34 0 2.5-.86 2.88-2.15l.25-.84c1.25-4.16 1.41-8.6.47-12.84l-.95-4.26c-.44-2.05-2.24-3.48-4.35-3.48"/><path d="m58.96 67.81-.26.83c-.08.29-.39.44-.67.33-.19-.07-.32-.26-.32-.47v-1.92c.82-3.39.85-6.94.09-10.36l-.95-4.26c-.14-.66-.58-1.13-1.12-1.37.25-.12.52-.17.79-.17.86 0 1.7.58 1.91 1.54l.95 4.26c.85 3.84.7 7.83-.42 11.59" opacity=".15"/><path fill="#fff" d="M48.97 11.98c-.35.05-.7.14-1.04.24-3.13.96-5.93 2.59-8.24 4.69-.04.01-.07.02-.11.03 0 0-.81-.22-1.88-.51 2.2-1.87 4.79-3.33 7.67-4.21 1.17-.36 2.4-.45 3.6-.24" opacity=".25"/></svg>