<svg xmlns="http://www.w3.org/2000/svg" xml:space="preserve" id="Layer_1" x="0" y="0" viewBox="0 0 95.37 95.37"><style>.st3,.st7{opacity:.31;enable-background:new}.st7{opacity:.25;fill:#fff}</style><linearGradient id="SVGID_1_" x1="39.941" x2="59.852" y1="7.7" y2="42.188" gradientUnits="userSpaceOnUse"><stop offset="0" style="stop-color:#c23014"/><stop offset="1" style="stop-color:#171717"/></linearGradient><path d="M47.69 47.31c-6.46 0-15.46-14.36-16.37-30.5-.12-2.09.78-4.07 2.41-5.3 4.24-3.2 9.07-4.89 13.96-4.89 4.9 0 9.74 1.7 13.99 4.92 1.58 1.2 2.48 3.13 2.42 5.17-.64 19.05-8.46 29.94-13.86 30.49-.88.07-1.73.11-2.55.11" style="fill:url(#SVGID_1_)"/><path d="M47.69 7.87c4.8 0 9.31 1.69 13.24 4.66 1.28.97 1.97 2.53 1.92 4.13-.62 18.47-8.03 28.81-12.74 29.29-.79.07-1.6.12-2.42.12-5.57 0-14.24-13.73-15.13-29.32-.09-1.64.61-3.24 1.92-4.23 3.93-2.97 8.43-4.65 13.21-4.65m0-2.5c-5.16 0-10.25 1.78-14.71 5.15-1.96 1.48-3.05 3.86-2.91 6.37.89 15.69 9.78 31.68 17.62 31.68.86 0 1.75-.04 2.65-.13 6.74-.68 14.38-12.98 15.01-31.69.08-2.44-1.01-4.76-2.91-6.21-4.47-3.38-9.57-5.17-14.75-5.17"/><path d="M51.71 8.27c-1.84 0-4.25.21-6.93 1.04-5.52 1.7-9.05 5.04-10.74 6.88-.72-.38-1.4-.81-2.06-1.27 1.13-1.3 3.03-3.14 5.83-4.63 1.03-.55 3.79-1.9 7.63-2.3 2.6-.26 4.77-.01 6.27.28" class="st7"/><path d="M46.89 30.12c-.02-.02-.05-.04-.06-.06m9.48 42.33c-.15.33-.28.59-.38.81" style="fill:none;stroke:#000;stroke-width:2.5;stroke-linecap:round;stroke-linejoin:round;stroke-miterlimit:11.3386"/><linearGradient id="SVGID_00000112607743157225678400000010735559276688991651_" x1="37.77" x2="55.425" y1="8.891" y2="39.469" gradientUnits="userSpaceOnUse"><stop offset="0" style="stop-color:#c23014"/><stop offset="1" style="stop-color:#171717"/></linearGradient><path d="M47.68 34.78c-.29 0-.59 0-.88-.01-3.63-.05-7.26-.41-10.77-1.09-5.85-1.12-11.27-3.07-16.13-5.78-.49-.28-.85-.73-1-1.28s-.08-1.12.2-1.61c2.42-4.23 5.71-7.97 9.52-10.82.36-.27.79-.41 1.25-.41.41 0 .81.12 1.15.34 4.59 2.96 10.51 4.6 16.66 4.6.88 0 1.8-.03 2.75-.1 5.18-.41 9.99-1.96 13.92-4.49.34-.22.74-.34 1.15-.34.45 0 .88.14 1.25.41 3.81 2.84 7.1 6.58 9.53 10.82.28.49.35 1.06.2 1.61s-.51 1-1 1.28c-8.06 4.49-17.67 6.87-27.8 6.87" style="fill:url(#SVGID_00000112607743157225678400000010735559276688991651_)"/><path d="M65.49 15.03c.18 0 .35.05.5.16 3.68 2.75 6.82 6.3 9.19 10.44.23.41.09.94-.33 1.18-7.54 4.22-16.95 6.72-27.18 6.72-.28 0-.56 0-.83-.01-.01 0-.01 0-.01 0-3.65-.05-7.18-.42-10.57-1.06-5.8-1.11-11.13-3.06-15.75-5.65-.41-.23-.56-.76-.33-1.18 2.36-4.13 5.5-7.68 9.18-10.44.15-.11.32-.17.5-.17.16 0 .33.05.47.14 4.62 2.98 10.69 4.79 17.34 4.79.96 0 1.91-.04 2.84-.11 5.54-.44 10.55-2.14 14.5-4.69.15-.07.32-.12.48-.12m0-2.5c-.65 0-1.28.19-1.83.54-3.75 2.42-8.37 3.91-13.34 4.3-.89.07-1.79.1-2.64.1-5.92 0-11.59-1.56-15.98-4.39-.55-.35-1.18-.54-1.83-.54-.73 0-1.42.23-2 .66-3.95 2.95-7.35 6.82-9.85 11.2-.45.78-.56 1.69-.32 2.57.24.87.81 1.59 1.59 2.03 4.97 2.78 10.53 4.77 16.5 5.92 3.59.69 7.29 1.06 11.01 1.11.25.01.56.01.88.01 10.35 0 20.17-2.43 28.4-7.04.79-.44 1.35-1.16 1.59-2.03s.13-1.78-.32-2.57c-2.55-4.45-5.87-8.22-9.87-11.2-.58-.44-1.27-.67-1.99-.67"/><path d="M30.34 15.17c.17.1.33.21.5.31-3.7 3.36-6.85 7.38-9.26 11.9-.36-.18-.72-.38-1.07-.57-.42-.23-.56-.76-.32-1.17 2.36-4.13 5.5-7.69 9.18-10.44.28-.22.67-.22.97-.03" class="st7"/><linearGradient id="SVGID_00000028296280513516046200000016722767791449389485_" x1="49.119" x2="60.166" y1="17.6" y2="36.734" gradientUnits="userSpaceOnUse"><stop offset="0" style="stop-color:#c23014"/><stop offset="1" style="stop-color:#171717"/></linearGradient><path d="M47.67 34.78c-.29 0-.59 0-.88-.01-3.59-.04-7.22-.41-10.76-1.09-.33-.06-.62-.26-.81-.54s-.25-.62-.18-.95c.1-.49.24-1.01.4-1.55.47-1.52 1.13-2.93 1.95-4.2.11-.17.24-.36.37-.56 3.95-5.56 10.11-6.94 12.58-7.27 5.48-.43 10.46-2.1 14.46-4.81.21-.14.46-.22.7-.22.26 0 .52.08.74.24l.24.18c.15.11.29.21.43.32 2.73 2.07 5.15 4.55 7.19 7.36.97 1.32 1.84 2.71 2.6 4.1.32.59.11 1.33-.47 1.67-8.2 4.8-18.08 7.33-28.56 7.33" style="fill:url(#SVGID_00000028296280513516046200000016722767791449389485_)"/><path d="M65.51 14.84c.22.16.43.31.64.47 2.62 1.99 4.97 4.38 6.95 7.11.92 1.26 1.76 2.58 2.51 3.96-7.66 4.47-17.36 7.15-27.93 7.15-.27 0-.56 0-.83-.01-.01 0-.01 0-.01 0-3.64-.05-7.19-.42-10.57-1.07.09-.43.22-.92.37-1.44.36-1.17.92-2.52 1.81-3.88.11-.18.24-.36.36-.54 3.93-5.53 10.27-6.53 11.71-6.72 5.76-.46 10.96-2.29 14.99-5.03m0-2.5c-.49 0-.98.14-1.4.43-3.82 2.6-8.59 4.19-13.79 4.59-.05 0-.09.01-.14.01-2.63.35-9.19 1.82-13.41 7.75-.01.01-.02.03-.03.04-.14.21-.28.42-.41.62-.86 1.33-1.57 2.84-2.07 4.47-.18.58-.32 1.14-.43 1.67-.14.66-.01 1.34.36 1.9s.95.94 1.61 1.07c3.61.69 7.31 1.06 10.99 1.11.29.01.6.01.89.01 10.7 0 20.79-2.59 29.19-7.49 1.17-.68 1.58-2.16.94-3.35-.78-1.44-1.69-2.87-2.69-4.25-2.11-2.91-4.62-5.47-7.46-7.63-.13-.1-.29-.22-.45-.33l-.21-.15c-.45-.3-.97-.47-1.49-.47"/><path d="M74.41 24.66c-7.66 4.47-17.36 7.14-27.92 7.14-.28 0-.57 0-.84-.01-.01 0-.01 0-.01 0-3.09-.03-6.1-.31-9-.78.36-1.17.92-2.52 1.81-3.88.94.14 1.9.25 2.87.34 0 0 0 0 .01 0 .26.05.54.07.83.09 9.82.81 19.09-.76 26.78-4.08.92-.4 1.32-1.46.86-2.36-1.03-2.08-2.26-4.02-3.66-5.81 2.62 1.99 4.97 4.38 6.95 7.11.47.72.91 1.47 1.32 2.24" class="st3"/><linearGradient id="SVGID_00000146494717898687809000000011350773578358822788_" x1="33.071" x2="65.302" y1="13.574" y2="69.4" gradientUnits="userSpaceOnUse"><stop offset="0" style="stop-color:#c23014"/><stop offset="1" style="stop-color:#171717"/></linearGradient><path d="M47.69 74.99c-17.34 0-31.87-15.73-32.39-35.08-.17-6.18 1.09-12.32 3.64-17.76.33-.71 1.06-1.18 1.86-1.18.36 0 .72.1 1.04.28 4.55 2.62 9.6 4.5 15.03 5.58 3.27.65 6.65 1.01 10.04 1.05.27.01.51.01.76.01.01 0 .03 0 .04 0 9.39 0 18.34-2.3 25.87-6.64.32-.18.67-.28 1.04-.28.79 0 1.52.46 1.86 1.18 2.54 5.43 3.79 11.57 3.62 17.75-.43 15.77-9.82 29.3-23.38 33.66-2.92.96-5.96 1.43-9.03 1.43" style="fill:url(#SVGID_00000146494717898687809000000011350773578358822788_)"/><path d="M20.78 22.24c.14 0 .28.04.41.11 4.56 2.63 9.77 4.6 15.41 5.72 3.29.66 6.72 1.03 10.27 1.08 0 0 0 0 .01 0 .26.01.54.01.81.01 9.91 0 19.08-2.53 26.5-6.81.13-.08.27-.11.41-.11.3 0 .59.16.72.46 2.4 5.14 3.67 11.01 3.51 17.19-.42 15.6-9.93 28.45-22.52 32.5-2.74.89-5.63 1.36-8.63 1.36-16.69 0-30.63-14.91-31.14-33.86-.17-6.18 1.11-12.05 3.52-17.19.14-.3.42-.46.72-.46m0-2.5c-1.28 0-2.45.74-2.99 1.9-2.63 5.61-3.92 11.95-3.75 18.32.26 9.74 3.87 18.86 10.17 25.67 6.33 6.85 14.67 10.63 23.47 10.63 3.21 0 6.37-.5 9.4-1.48 14.06-4.52 23.8-18.52 24.25-34.81.17-6.38-1.12-12.72-3.74-18.32-.54-1.15-1.71-1.9-2.99-1.9-.58 0-1.16.15-1.66.45-7.34 4.23-16.07 6.47-25.25 6.47q-.045 0-.09 0c-.21 0-.42 0-.63-.01q-.045 0-.09 0c-3.29-.05-6.59-.39-9.79-1.03-5.29-1.05-10.22-2.88-14.65-5.44-.5-.3-1.08-.45-1.66-.45"/><path d="M78.83 39.89c-.42 15.6-9.93 28.45-22.52 32.5-2.74.89-5.63 1.36-8.62 1.36-13.53 0-25.26-9.8-29.48-23.62 4.83 9.52 13.66 16.2 24.08 17.15 2.99.27 5.91.06 8.71-.58 12.91-2.89 23.53-14.83 25.35-30.34.51-4.36.29-8.64-.58-12.68 2.11 4.9 3.22 10.42 3.06 16.21" class="st3"/><linearGradient id="SVGID_00000029765618635284765660000006988159859380282551_" x1="21.79" x2="53.663" y1="20.087" y2="75.291" gradientUnits="userSpaceOnUse"><stop offset="0" style="stop-color:#c23014"/><stop offset="1" style="stop-color:#171717"/></linearGradient><path d="M47.69 74.99c-17.34 0-31.87-15.73-32.39-35.08-.17-6.18 1.09-12.32 3.64-17.76.33-.71 1.06-1.18 1.86-1.18.36 0 .72.1 1.04.28 4.55 2.62 9.6 4.5 15.03 5.58.19.04.39.08.61.11 10.42 1.76 18.79 9.03 21.84 18.97l.09.29c3.45 11.59.37 21.48-1.78 26.35-.24.54-.7.96-1.28 1.13-2.81.88-5.72 1.31-8.66 1.31" style="fill:url(#SVGID_00000029765618635284765660000006988159859380282551_)"/><path d="M20.78 22.24c.14 0 .28.04.41.11 4.56 2.63 9.77 4.6 15.41 5.72.2.04.42.08.64.12 9.74 1.65 17.92 8.55 20.85 18.1.03.09.06.18.08.28 3.49 11.73-.03 21.65-1.72 25.49-.1.22-.28.37-.5.44-2.63.81-5.4 1.24-8.27 1.24-16.69 0-30.63-14.91-31.14-33.86-.17-6.18 1.11-12.05 3.52-17.19.14-.29.42-.45.72-.45m0-2.5c-1.28 0-2.45.74-2.99 1.9-2.63 5.61-3.92 11.95-3.75 18.32.26 9.74 3.87 18.86 10.17 25.67 6.33 6.85 14.67 10.63 23.47 10.63 3.07 0 6.1-.46 9.01-1.36.92-.28 1.67-.95 2.05-1.82 2.21-5.02 5.4-15.24 1.83-27.21l-.09-.3c-3.19-10.4-11.94-18-22.83-19.83-.2-.03-.39-.07-.57-.1-5.29-1.05-10.22-2.88-14.65-5.44-.49-.31-1.07-.46-1.65-.46"/><path d="M56.68 71.53c-.07.18-.15.36-.22.52-.09.22-.28.38-.5.45-2.64.81-5.41 1.24-8.28 1.24-16.69 0-30.63-14.91-31.15-33.86-.13-4.78.61-9.36 2.06-13.57-1.04 4.45-1.3 9.2-.67 14.05C20.43 59.84 36.36 73.75 53.57 72c1.06-.08 2.1-.25 3.11-.47" class="st7"/><linearGradient id="SVGID_00000114779872462217515080000015226845518071698076_" x1="37.153" x2="58.179" y1="61.907" y2="98.326" gradientUnits="userSpaceOnUse"><stop offset="0" style="stop-color:#c23014"/><stop offset="1" style="stop-color:#171717"/></linearGradient><path d="M20.98 87.71c-.2 0-.38-.01-.56-.04-.03 0-.06-.01-.09-.01-.09-.01-.23-.03-.38-.07-.4-.08-.78-.22-1.12-.42-.13-.06-.25-.13-.38-.22-.1-.06-.21-.15-.32-.25l.73-1.02-.81.95-.12-.1c-.22-.2-.43-.42-.62-.67-.11-.12-.17-.2-.22-.29-.13-.2-.23-.39-.32-.59-.06-.13-.13-.3-.2-.48-.02-.06-.04-.12-.05-.18q-.06-.24-.09-.48c-.02-.12-.04-.26-.05-.42-.01-.14-.02-.25-.02-.36V80.6c0-.18 0-.36.01-.54l.04-.51c0-.02 0-.12.03-.25.7-5.91 5.7-10.35 11.66-10.35h40.2c6.19.06 11.3 4.93 11.66 11.1l.01.53v2.49c0 2.55-2.08 4.63-4.64 4.63H20.98z" style="fill:url(#SVGID_00000114779872462217515080000015226845518071698076_)"/><path d="M68.3 70.21c5.55.05 10.08 4.41 10.4 9.92 0 .15.01.3.01.46v2.49c0 1.87-1.52 3.38-3.39 3.38H20.98c-.14 0-.27-.01-.4-.03-.03 0-.06 0-.09-.01-.08-.01-.16-.02-.24-.05-.3-.05-.58-.15-.84-.31q-.135-.06-.27-.15c-.1-.07-.19-.15-.28-.23-.04-.03-.08-.06-.11-.09-.17-.15-.32-.31-.45-.49-.01-.01-.02-.03-.03-.04-.04-.06-.09-.1-.13-.16-.08-.13-.16-.26-.22-.4-.06-.13-.12-.27-.17-.41 0-.01 0-.03-.01-.05-.03-.12-.06-.24-.07-.37-.02-.1-.04-.21-.04-.31-.01-.1-.02-.19-.02-.28v-2.46c0-.15 0-.3.01-.45.01-.18.03-.36.04-.53 0-.04 0-.08.01-.11.59-5.25 5.03-9.32 10.43-9.32zm0-2.5H28.09c-6.59 0-12.12 4.91-12.9 11.44-.03.16-.03.29-.04.39l-.01.14q-.015.18-.03.36c-.01.17-.01.38-.01.59v2.46c0 .14.01.29.02.44q.015.285.06.51c.03.23.07.41.11.55.02.12.06.23.1.34.07.2.16.4.24.59.13.29.27.52.37.68.01.02.03.04.04.06.11.17.22.3.28.36.01.02.03.03.04.05.24.3.48.56.74.79q.09.075.18.15c.13.11.29.25.5.39.14.09.3.18.46.26.44.25.92.43 1.42.53.16.04.31.07.41.08.11.02.2.03.28.04.21.03.41.04.63.04h54.34c3.25 0 5.89-2.64 5.89-5.88v-2.49c0-.11 0-.22-.01-.32v-.14c0-.05 0-.1 0-.14-.4-6.82-6.05-12.21-12.87-12.27q-.03 0-.03 0"/><path d="M78.71 80.59v2.49c0 1.87-1.52 3.38-3.39 3.38h-10c1.87 0 3.39-1.51 3.39-3.38v-2.49c0-.16-.01-.31-.01-.46-.32-5.51-4.85-9.87-10.4-9.92h9.99c.01 0 .01 0 .01 0 5.55.05 10.08 4.41 10.4 9.92 0 .15.01.3.01.46" style="opacity:.15"/><path d="m53.22 70.21-21.37 1.41c-5.91.64-11.69 4.85-11.69 10.75v2.41c0 .6.16 1.16.42 1.65.01 0 .01.01.01.01-.03 0-.07-.01-.1-.02-.08-.01-.16-.02-.24-.05-.3-.06-.58-.17-.84-.31-.9-.48-1.56-1.35-1.75-2.39-.02-.1-.04-.21-.04-.31-.01-.1-.02-.19-.02-.28v-2.46c0-.15 0-.3.01-.45.01-.18.03-.36.04-.53 0-.04 0-.08.01-.11.59-5.25 5.03-9.32 10.43-9.32z" class="st7"/></svg>