<svg xmlns="http://www.w3.org/2000/svg" xml:space="preserve" viewBox="0 0 95.37 95.37"><linearGradient id="a" x1="24.512" x2="70.313" y1="53.105" y2="53.105" gradientUnits="userSpaceOnUse"><stop offset="0" style="stop-color:#fbf6dc"/><stop offset="1" style="stop-color:#aa9445"/></linearGradient><path fill="url(#a)" d="M25.67 76.22c-.33 0-.64-.14-.86-.39s-.32-.57-.29-.9l2.67-24.21 2.2-19.7c.07-.59.56-1.03 1.15-1.03h33.74c.59 0 1.09.44 1.15 1.03l2.2 19.7 2.68 24.21c.04.33-.07.65-.29.9s-.53.39-.86.39z"/><path fill="#323232" d="m64.28 31.15.98 8.77 1.22 10.93 1.57 14.18 1.11 10.03H25.67l1.11-10.03 1.57-14.18 1.22-10.93.98-8.77zm0-2.32H30.54c-1.18 0-2.17.89-2.3 2.06l-.98 8.77-1.22 10.93-1.57 14.18-1.11 10.03c-.07.65.14 1.31.58 1.8s1.07.77 1.73.77h43.48c.66 0 1.29-.28 1.73-.77s.65-1.15.58-1.8l-1.11-10.03-1.57-14.17-1.22-10.93-.98-8.77c-.13-1.18-1.12-2.07-2.3-2.07"/><linearGradient id="b" x1="24.512" x2="70.313" y1="53.105" y2="53.105" gradientUnits="userSpaceOnUse"><stop offset="0" style="stop-color:#fbf6dc"/><stop offset="1" style="stop-color:#aa9445"/></linearGradient><path fill="url(#b)" d="M25.67 76.22c-.33 0-.64-.14-.86-.39s-.32-.57-.29-.9l2.67-24.21 2.2-19.7c.07-.59.56-1.03 1.15-1.03h33.74c.59 0 1.09.44 1.15 1.03l2.2 19.7 2.68 24.21c.04.33-.07.65-.29.9s-.53.39-.86.39z"/><path fill="#323232" d="m64.28 31.15.98 8.77 1.22 10.93 1.57 14.18 1.11 10.03H25.67l1.11-10.03 1.57-14.18 1.22-10.93.98-8.77zm0-2.32H30.54c-1.18 0-2.17.89-2.3 2.06l-.98 8.77-1.22 10.93-1.57 14.18-1.11 10.03c-.07.65.14 1.31.58 1.8s1.07.77 1.73.77h43.48c.66 0 1.29-.28 1.73-.77s.65-1.15.58-1.8l-1.11-10.03-1.57-14.17-1.22-10.93-.98-8.77c-.13-1.18-1.12-2.07-2.3-2.07"/><path fill="#fff" d="m31.58 31.15-.79 8.77-.97 10.93-1.27 14.18-.88 10.03h-2l1.11-10.03 1.56-14.18 1.22-10.93.99-8.77z"/><path d="M69.15 75.06h-9.22l-.44-10.03-.63-14.18-.49-10.93-.39-8.77h6.29l.99 8.77 1.22 10.93 1.56 14.18z" opacity=".15"/><path fill="none" stroke="#323232" stroke-linecap="round" stroke-linejoin="round" stroke-miterlimit="11.339" stroke-width="2.317" d="M26.53 63.27c1.86-1.64 5.55-4.8 7.36-6.41 1.15.98 6.07 5.03 13.48 5.04.43 0 .88-.02 1.33-.05 6.51-.42 10.74-3.76 12.17-4.99l7.78 6.86"/><path fill="none" stroke="#323232" stroke-linecap="round" stroke-linejoin="round" stroke-miterlimit="11.339" stroke-width="2.294" d="M28.62 36.6h37.32M47.4 61.91v-12.5m-13.41-.36V36.6m26.84 0v12.45m-33.15.18h39.28"/><linearGradient id="c" x1="15.153" x2="79.844" y1="22.486" y2="22.486" gradientUnits="userSpaceOnUse"><stop offset="0" style="stop-color:#fbf6dc"/><stop offset="1" style="stop-color:#aa9445"/></linearGradient><path fill="url(#c)" d="M18.48 29.65c-1.87 0-3.33-1.23-3.33-2.8v-8.72c0-1.58 1.46-2.81 3.33-2.81h58.04c1.86 0 3.32 1.23 3.32 2.81v8.72c0 1.54-1.49 2.8-3.32 2.8z"/><path fill="#323232" d="M76.52 16.57c1.14 0 2.07.7 2.07 1.56v8.72c0 .85-.93 1.55-2.07 1.55H18.48c-1.15 0-2.08-.7-2.08-1.55v-8.72c0-.86.93-1.56 2.08-1.56zm0-2.5H18.48c-2.57 0-4.58 1.78-4.58 4.06v8.72c0 2.27 2.01 4.05 4.58 4.05h58.04c2.52 0 4.57-1.82 4.57-4.05v-8.72c0-2.28-2-4.06-4.57-4.06"/><path fill="#fff" d="M21.49 28.4h-3c-1.15 0-2.08-.7-2.08-1.55v-8.72c0-.86.93-1.56 2.08-1.56h3c-1.15 0-2.08.7-2.08 1.56v8.72c0 .85.93 1.55 2.08 1.55"/><path d="M78.59 18.13v8.72c0 .85-.93 1.55-2.07 1.55h-5.28c1.14 0 2.07-.7 2.07-1.55v-8.72c0-.72-.65-1.33-1.53-1.5q-.255-.06-.54-.06h5.28c1.14 0 2.07.7 2.07 1.56" opacity=".15"/><linearGradient id="d" x1="15.528" x2="80.217" y1="78.064" y2="78.064" gradientUnits="userSpaceOnUse"><stop offset="0" style="stop-color:#fbf6dc"/><stop offset="1" style="stop-color:#aa9445"/></linearGradient><path fill="url(#d)" d="M20.22 87.58c-2.59 0-4.69-2.11-4.69-4.69v-2.41c0-6.58 5.36-11.94 11.94-11.94h40.81c6.58 0 11.94 5.35 11.94 11.94v2.41c0 2.59-2.11 4.69-4.69 4.69z"/><path fill="#323232" d="M68.28 69.79c5.9 0 10.69 4.78 10.69 10.69v2.41c0 1.9-1.54 3.44-3.44 3.44h-55.3c-1.9 0-3.44-1.54-3.44-3.44v-2.41c0-5.9 4.78-10.69 10.69-10.69zm0-2.5H27.47c-7.27 0-13.19 5.92-13.19 13.19v2.41c0 3.28 2.67 5.94 5.94 5.94h55.3c3.28 0 5.94-2.67 5.94-5.94v-2.41c.01-7.27-5.91-13.19-13.18-13.19"/><path fill="#fff" d="m56.64 69.79-25.62 1.69c-5.91.64-11.69 4.85-11.69 10.75v2.41c0 .6.16 1.17.43 1.66-1.69-.22-2.99-1.66-2.99-3.41v-2.41c0-5.9 4.79-10.69 10.69-10.69z"/><path d="M78.97 80.48v2.41c0 1.9-1.54 3.44-3.44 3.44h-10c1.9 0 3.44-1.54 3.44-3.44v-2.41c0-5.9-4.78-10.69-10.69-10.69h10c5.91 0 10.69 4.79 10.69 10.69m-7.11-63.91c-.03.02-.05.04-.08.06-3.59 2.61-13.11 4.47-24.29 4.47-11.25 0-20.83-1.89-24.36-4.53z" opacity=".15"/></svg>