<?xml version="1.0" encoding="UTF-8" standalone="no"?>
<svg
   xmlns:dc="http://purl.org/dc/elements/1.1/"
   xmlns:cc="http://creativecommons.org/ns#"
   xmlns:rdf="http://www.w3.org/1999/02/22-rdf-syntax-ns#"
   xmlns:svg="http://www.w3.org/2000/svg"
   xmlns="http://www.w3.org/2000/svg"
   xmlns:sodipodi="http://sodipodi.sourceforge.net/DTD/sodipodi-0.dtd"
   xmlns:inkscape="http://www.inkscape.org/namespaces/inkscape"
   height="100%"
   width="100%"
   version="1.0"
   viewBox="0 0 64 64"
   id="svg2"
   inkscape:version="0.91 r13725"
   sodipodi:docname="blackbishop.vers1.svg">
  <metadata
     id="metadata40">
    <rdf:RDF>
      <cc:Work
         rdf:about="">
        <dc:format>image/svg+xml</dc:format>
        <dc:type
           rdf:resource="http://purl.org/dc/dcmitype/StillImage" />
      </cc:Work>
    </rdf:RDF>
  </metadata>
  <sodipodi:namedview
     pagecolor="#ffffff"
     bordercolor="#666666"
     borderopacity="1"
     objecttolerance="10"
     gridtolerance="10"
     guidetolerance="10"
     inkscape:pageopacity="0"
     inkscape:pageshadow="2"
     inkscape:window-width="749"
     inkscape:window-height="480"
     id="namedview38"
     showgrid="false"
     inkscape:zoom="3.6875"
     inkscape:cx="32"
     inkscape:cy="32"
     inkscape:window-x="135"
     inkscape:window-y="61"
     inkscape:window-maximized="0"
     inkscape:current-layer="svg2" />
  <defs
     id="defs4" />
  <g
     transform="translate(0,-16)"
     id="g6">
    <path
       stroke-linejoin="miter"
       d="m25.487 24.483c1.2367-2.1063 4.7206-1.6612 5.4991.60980.86725 1.566-.68557 2.8181-1.4023 4.0429.86334.74804 1.7253 1.498 2.5921 2.2466.86280-.86353 1.7255-1.7289 2.5791-2.6047-1.2344-2.0411-1.0582-5.2311 1.7944-5.629 3.3937-.62093 4.4112 3.6427 2.7746 5.9255 3.042 3.825 5.8144 8.0724 6.7563 12.947 1.0639 5.5837-.35292 11.343-2.7639 16.393.07956 2.5038-.1187 5.0045-.51697 7.4768 4.2681-1.6795 9.5183-2.4813 13.577.13848 2.6417 1.7789 2.5061 5.2613 2.1981 8.0579-6.165-3.306-13.412-2.869-20.092-1.766-3.321-3.589-9.672-3.523-13.012.013-6.688-1.181-13.888-1.456-20.112 1.697-.1954-2.831-.3481-6.362 2.3973-8.091 4.0697-2.497 9.2537-1.736 13.477-.017-.434-2.506-.621-5.046-.535-7.587-2.468-4.365-4.631-9.441-3.474-14.547 1.355-5.53 4.967-10.116 8.48-14.457-.428-1.551-1.319-3.365-.216-4.849z"
       stroke="#000"
       stroke-linecap="butt"
       stroke-miterlimit="10"
       stroke-width=".089633"
       fill="#fff"
       id="path8" />
    <path
       fill-rule="nonzero"
       fill="#000"
       d="m25.487 24.483c1.2367-2.1063 4.7206-1.6612 5.4991.60980.86725 1.566-.68557 2.8181-1.4023 4.0429.86334.74804 1.7253 1.498 2.5921 2.2466.86280-.86353 1.7255-1.7289 2.5791-2.6047-1.2344-2.0411-1.0582-5.2311 1.7944-5.629 3.3937-.62093 4.4112 3.6427 2.7746 5.9255 3.042 3.825 5.8144 8.0724 6.7563 12.947 1.0639 5.5837-.35292 11.343-2.7639 16.393.07956 2.5038-.1187 5.0045-.51697 7.4768 4.2681-1.6795 9.5183-2.4813 13.577.13848 2.6417 1.7789 2.5061 5.2613 2.1981 8.0579-6.165-3.306-13.412-2.869-20.092-1.766-3.321-3.589-9.672-3.523-13.012.013-6.688-1.181-13.888-1.456-20.112 1.697-.1954-2.831-.3481-6.362 2.3973-8.091 4.0698-2.4979 9.2538-1.7365 13.477-.01729-.43376-2.5059-.62114-5.0459-.53493-7.587-2.468-4.3654-4.6309-9.4411-3.4734-14.547 1.3544-5.5309 4.966-10.116 8.4799-14.457-.42876-1.551-1.3192-3.3658-.21612-4.8491z"
       id="path10" />
    <g
       fill="#fff"
       id="g12">
      <path
         stroke-linejoin="miter"
         d="m32.234 33.193c2.9282-1.5981 5.4117 1.4174 6.7809 3.6532 2.7934 4.5069 5.2038 10.428 2.9606 15.615-2.747-1.974-2.722-5.748-3.854-8.663-.922-4.074-4.532-6.754-5.888-10.605z"
         stroke="#fff"
         stroke-linecap="butt"
         stroke-miterlimit="10"
         stroke-width=".089633"
         id="path14" />
      <path
         fill-rule="nonzero"
         d="m32.234 33.193c2.9282-1.5981 5.4117 1.4174 6.7809 3.6532 2.7934 4.5069 5.2038 10.428 2.9606 15.615-2.747-1.974-2.722-5.748-3.854-8.663-.922-4.074-4.532-6.754-5.888-10.605z"
         id="path16" />
      <path
         stroke-linejoin="miter"
         d="m22.226 56.17c.16947-2.6819 3.2536-2.9726 5.2984-3.3901 3.9761-.46606 8.1554-.60147 12.002.67789.92437.43111 3.3546 1.544 1.6487 2.7324-6.3006-.94867-12.645-.91333-18.949-.02028z"
         stroke="#fff"
         stroke-linecap="butt"
         stroke-miterlimit="10"
         stroke-width=".089633"
         id="path18" />
      <path
         fill-rule="nonzero"
         d="m22.226 56.17c.16947-2.6819 3.2536-2.9726 5.2984-3.3901 3.9761-.46606 8.1554-.60147 12.002.67789.92437.43111 3.3546 1.544 1.6487 2.7324-6.3006-.94867-12.645-.91333-18.949-.02028z"
         id="path20" />
      <path
         stroke-linejoin="miter"
         d="m29.159 57.599c2.0173-.47683 4.1414-.60691 6.0246.44535-1.874.93270-4.6318 1.6278-6.0246-.44535z"
         stroke="#fff"
         stroke-linecap="butt"
         stroke-miterlimit="10"
         stroke-width=".089633"
         id="path22" />
      <path
         fill-rule="nonzero"
         d="m29.159 57.599c2.0173-.47683 4.1414-.60691 6.0246.44535-1.874.93270-4.6318 1.6278-6.0246-.44535z"
         id="path24" />
      <path
         stroke-linejoin="miter"
         d="m23.329 58.991z"
         stroke="#fff"
         stroke-linecap="butt"
         stroke-miterlimit="10"
         stroke-width=".089633"
         id="path26" />
      <path
         fill-rule="nonzero"
         d="m23.329 58.991z"
         id="path28" />
      <path
         stroke-linejoin="miter"
         d="m39.419 59.047z"
         stroke="#fff"
         stroke-linecap="butt"
         stroke-miterlimit="10"
         stroke-width=".089633"
         id="path30" />
      <path
         fill-rule="nonzero"
         d="m39.419 59.047z"
         id="path32" />
      <path
         stroke-linejoin="miter"
         d="m23.062 65.119c-.27242-3.0548 3.1646-3.4455 5.3954-4.0282 4.0798-.60768 8.9055-.65532 12.218 2.1614.0053.51920.01591 1.5576.0212 2.0768-5.8077-1.4857-11.775-.96572-17.634-.21006z"
         stroke="#fff"
         stroke-linecap="butt"
         stroke-miterlimit="10"
         stroke-width=".089633"
         id="path34" />
      <path
         fill-rule="nonzero"
         d="m23.062 65.119c-.27242-3.0548 3.1646-3.4455 5.3954-4.0282 4.0798-.60768 8.9055-.65532 12.218 2.1614.0053.51920.01591 1.5576.0212 2.0768-5.8077-1.4857-11.775-.96572-17.634-.21006z"
         id="path36" />
    </g>
  </g>
  <path
     style="fill:#333333;fill-opacity:1;stroke:#000000;stroke-width:0.98780197;stroke-miterlimit:4;stroke-dasharray:none;stroke-opacity:1"
     d="m 5.4839219,55.552542 c 0.00978,-3.45009 1.3430733,-5.42349 4.3760757,-6.476992 2.2087684,-0.767206 6.4942944,-0.657126 9.2316584,0.237128 l 2.088266,0.682205 -0.146062,-3.695745 -0.146063,-3.695748 -1.316593,-2.711865 c -1.775224,-3.656534 -2.433134,-6.152866 -2.428593,-9.214888 0.0063,-4.242733 1.710187,-8.089192 6.285119,-14.188351 1.309037,-1.745168 2.326627,-3.356083 2.261312,-3.579811 -0.694928,-2.380399 -0.732108,-2.9387782 -0.261689,-3.9301122 1.175299,-2.4767595 4.502449,-2.2066241 5.507741,0.4471803 0.27449,0.7246079 0.0523,1.3848559 -1.063457,3.1601539 -0.373531,0.59433 -0.331239,0.680628 0.826668,1.686823 0.671187,0.583246 1.347473,1.064089 1.502858,1.06854 0.155388,0.0045 0.811534,-0.530932 1.458105,-1.18974 1.119319,-1.140503 1.16096,-1.239784 0.870023,-2.074365 -0.449006,-1.288014 -0.367084,-3.0098459 0.175045,-3.6791136 1.131317,-1.3966346 2.871973,-1.5733783 4.160125,-0.4224135 0.685814,0.6127738 0.878302,1.0285468 0.983618,2.1245821 0.08744,0.910048 -0.0048,1.625359 -0.277728,2.153386 -0.402318,0.778384 -0.383821,0.824388 1.19014,2.960163 1.865622,2.531542 4.076005,6.68448 4.69098,8.81356 1.438861,4.981417 0.915658,10.904577 -1.455395,16.476472 -0.661809,1.555227 -0.824263,2.322842 -0.828648,3.915444 -0.003,1.089529 -0.119431,2.769619 -0.258736,3.733526 -0.139306,0.963911 -0.227236,1.778612 -0.195398,1.810449 0.03184,0.03184 0.774728,-0.184114 1.650863,-0.479897 6.580909,-2.2217 12.800022,-0.575734 13.967021,3.696548 0.354937,1.299387 0.397817,4.474576 0.06043,4.474576 -0.131395,0 -1.031308,-0.298261 -1.999807,-0.662804 -3.421361,-1.287796 -5.827455,-1.598842 -10.909437,-1.410305 -2.538012,0.09416 -5.102704,0.266937 -5.699314,0.383954 -0.979835,0.192182 -1.223376,0.116065 -2.518124,-0.787021 -0.78836,-0.549879 -2.052775,-1.148372 -2.809814,-1.329982 -2.767076,-0.663811 -6.886955,0.196848 -8.3385,1.741947 -0.553801,0.589494 -0.623599,0.595832 -2.941936,0.267137 -5.543504,-0.785963 -11.836229,-0.331037 -15.7385831,1.137806 -0.9633337,0.362598 -1.7980036,0.659268 -1.8548218,0.659268 -0.056818,0 -0.1006259,-0.945762 -0.09735,-2.101695 z M 40.732203,48.317988 c 0,-1.428082 -0.560149,-1.979686 -2.93776,-2.892941 -3.181556,-1.222059 -9.817487,-0.909793 -13.001841,0.611824 -1.187075,0.567235 -1.958704,1.626831 -1.958704,2.689684 0,0.555772 0.08424,0.579601 1.421774,0.402172 5.091596,-0.675425 12.226899,-0.630031 15.120599,0.09619 0.522034,0.131013 1.040678,0.250699 1.152543,0.265966 0.111864,0.01527 0.203389,-0.512537 0.203389,-1.172897 z M 34.15187,42.650555 c 1.221215,-0.443154 1.202744,-0.797383 -0.06373,-1.222322 -1.093687,-0.366961 -4.569504,-0.312312 -4.958835,0.07797 -0.106539,0.106799 0.148691,0.488882 0.567177,0.849074 0.603415,0.51936 1.052406,0.650628 2.169492,0.634265 0.774732,-0.01134 1.803389,-0.163889 2.2859,-0.338983 z m -2.368819,-2.75903 c 3.057627,0 6.535593,0.06102 7.728813,0.135594 2.11184,0.131989 2.171873,0.118785 2.259081,-0.496941 0.197286,-1.392917 -2.032865,-2.508507 -6.09546,-3.049139 -3.876836,-0.515911 -9.818437,0.09837 -12.034171,1.244173 -0.745623,0.385576 -1.620975,1.627477 -1.620975,2.299748 0,0.206834 0.632913,0.231308 2.101695,0.08126 1.155932,-0.118083 4.60339,-0.214699 7.661017,-0.214699 z m 10.803707,-4.630923 c 0.250405,-0.733898 0.324494,-1.947391 0.238815,-3.911449 -0.138058,-3.164788 -0.825337,-5.488451 -2.566715,-8.677967 -2.295918,-4.205213 -4.153589,-5.969025 -6.279208,-5.961949 -1.792483,0.006 -2.059245,0.240103 -1.572529,1.380202 0.216187,0.506402 1.426834,2.466675 2.690327,4.356164 2.07053,3.096366 2.383686,3.738733 3.172911,6.508474 0.481606,1.690173 1.074517,3.655259 1.317581,4.366859 0.494116,1.446592 1.853104,3.259878 2.326907,3.104775 0.169885,-0.05561 0.472245,-0.57991 0.671911,-1.165109 z"
     id="path4168"
     inkscape:connector-curvature="0" />
</svg>
