<?xml version="1.0" encoding="UTF-8" standalone="no"?>
<svg
   xmlns:dc="http://purl.org/dc/elements/1.1/"
   xmlns:cc="http://creativecommons.org/ns#"
   xmlns:rdf="http://www.w3.org/1999/02/22-rdf-syntax-ns#"
   xmlns:svg="http://www.w3.org/2000/svg"
   xmlns="http://www.w3.org/2000/svg"
   xmlns:sodipodi="http://sodipodi.sourceforge.net/DTD/sodipodi-0.dtd"
   xmlns:inkscape="http://www.inkscape.org/namespaces/inkscape"
   width="60"
   height="60"
   version="1.1"
   id="svg4905"
   sodipodi:docname="0KA.svg"
   inkscape:version="1.0.1 (3bc2e813f5, 2020-09-07)">
  <metadata
     id="metadata4911">
    <rdf:RDF>
      <cc:Work
         rdf:about="">
        <dc:format>image/svg+xml</dc:format>
        <dc:type
           rdf:resource="http://purl.org/dc/dcmitype/StillImage" />
        <dc:title></dc:title>
      </cc:Work>
    </rdf:RDF>
  </metadata>
  <defs
     id="defs4909">
    <inkscape:path-effect
       oposite_fuse="false"
       fuse_paths="true"
       discard_orig_path="false"
       mode="free"
       is_visible="true"
       id="path-effect10989-6"
       center_point="644.9483,170.66491"
       end_point="644.85991,225.02374"
       start_point="645.03669,116.30607"
       effect="mirror_symmetry"
       lpeversion="0"
       split_items="false" />
    <inkscape:path-effect
       oposite_fuse="false"
       fuse_paths="true"
       discard_orig_path="false"
       mode="free"
       is_visible="true"
       id="path-effect4724"
       center_point="284.18608,129.13713"
       end_point="284.18608,137.98161"
       start_point="284.18608,120.29265"
       effect="mirror_symmetry"
       lpeversion="0"
       split_items="false" />
    <inkscape:path-effect
       oposite_fuse="false"
       fuse_paths="true"
       discard_orig_path="false"
       mode="free"
       is_visible="true"
       id="path-effect4547-0-8"
       center_point="275.14301,224.09666"
       end_point="275.14301,350.07326"
       start_point="275.14301,98.12006"
       effect="mirror_symmetry"
       lpeversion="0"
       split_items="false" />
    <inkscape:path-effect
       oposite_fuse="false"
       fuse_paths="false"
       discard_orig_path="false"
       mode="free"
       is_visible="true"
       id="path-effect4557-0-4"
       center_point="273.50283,404.61159"
       end_point="273.50283,477.30227"
       start_point="273.50283,331.92091"
       effect="mirror_symmetry"
       lpeversion="0"
       split_items="false" />
    <inkscape:path-effect
       oposite_fuse="false"
       fuse_paths="true"
       discard_orig_path="false"
       mode="free"
       is_visible="true"
       id="path-effect4547-0"
       center_point="275.14301,224.09666"
       end_point="275.14301,350.07326"
       start_point="275.14301,98.12006"
       effect="mirror_symmetry"
       lpeversion="0"
       split_items="false" />
    <inkscape:path-effect
       oposite_fuse="false"
       fuse_paths="false"
       discard_orig_path="false"
       mode="free"
       is_visible="true"
       id="path-effect4551-7"
       center_point="274.67636,329.54996"
       end_point="274.67636,418.88419"
       start_point="274.67636,240.21573"
       effect="mirror_symmetry"
       lpeversion="0"
       split_items="false" />
    <inkscape:path-effect
       oposite_fuse="false"
       fuse_paths="false"
       discard_orig_path="false"
       mode="free"
       is_visible="true"
       id="path-effect4557-0"
       center_point="273.50283,404.61159"
       end_point="273.50283,477.30227"
       start_point="273.50283,331.92091"
       effect="mirror_symmetry"
       lpeversion="0"
       split_items="false" />
    <inkscape:path-effect
       oposite_fuse="false"
       fuse_paths="true"
       discard_orig_path="false"
       mode="free"
       is_visible="true"
       id="path-effect10989-6-6"
       center_point="644.9483,170.66491"
       end_point="644.85991,225.02374"
       start_point="645.03669,116.30607"
       effect="mirror_symmetry"
       lpeversion="0"
       split_items="false" />
    <inkscape:path-effect
       oposite_fuse="false"
       fuse_paths="true"
       discard_orig_path="false"
       mode="free"
       is_visible="true"
       id="path-effect4724-7"
       center_point="284.18608,129.13713"
       end_point="284.18608,137.98161"
       start_point="284.18608,120.29265"
       effect="mirror_symmetry"
       lpeversion="0"
       split_items="false" />
    <inkscape:path-effect
       oposite_fuse="false"
       fuse_paths="true"
       discard_orig_path="false"
       mode="free"
       is_visible="true"
       id="path-effect4547-0-8-5"
       center_point="275.14301,224.09666"
       end_point="275.14301,350.07326"
       start_point="275.14301,98.12006"
       effect="mirror_symmetry"
       lpeversion="0"
       split_items="false" />
    <inkscape:path-effect
       oposite_fuse="false"
       fuse_paths="false"
       discard_orig_path="false"
       mode="free"
       is_visible="true"
       id="path-effect4557-0-4-3"
       center_point="273.50283,404.61159"
       end_point="273.50283,477.30227"
       start_point="273.50283,331.92091"
       effect="mirror_symmetry"
       lpeversion="0"
       split_items="false" />
    <inkscape:path-effect
       oposite_fuse="false"
       fuse_paths="true"
       discard_orig_path="false"
       mode="free"
       is_visible="true"
       id="path-effect4547-0-5"
       center_point="275.14301,224.09666"
       end_point="275.14301,350.07326"
       start_point="275.14301,98.12006"
       effect="mirror_symmetry"
       lpeversion="0"
       split_items="false" />
    <inkscape:path-effect
       oposite_fuse="false"
       fuse_paths="false"
       discard_orig_path="false"
       mode="free"
       is_visible="true"
       id="path-effect4551-7-6"
       center_point="274.67636,329.54996"
       end_point="274.67636,418.88419"
       start_point="274.67636,240.21573"
       effect="mirror_symmetry"
       lpeversion="0"
       split_items="false" />
    <inkscape:path-effect
       oposite_fuse="false"
       fuse_paths="false"
       discard_orig_path="false"
       mode="free"
       is_visible="true"
       id="path-effect4557-0-2"
       center_point="273.50283,404.61159"
       end_point="273.50283,477.30227"
       start_point="273.50283,331.92091"
       effect="mirror_symmetry"
       lpeversion="0"
       split_items="false" />
    <inkscape:path-effect
       oposite_fuse="false"
       fuse_paths="true"
       discard_orig_path="false"
       mode="free"
       is_visible="true"
       id="path-effect10989-6-1"
       center_point="644.9483,170.66491"
       end_point="644.85991,225.02374"
       start_point="645.03669,116.30607"
       effect="mirror_symmetry"
       lpeversion="0"
       split_items="false" />
    <inkscape:path-effect
       oposite_fuse="false"
       fuse_paths="true"
       discard_orig_path="false"
       mode="free"
       is_visible="true"
       id="path-effect4724-2"
       center_point="284.18608,129.13713"
       end_point="284.18608,137.98161"
       start_point="284.18608,120.29265"
       effect="mirror_symmetry"
       lpeversion="0"
       split_items="false" />
    <inkscape:path-effect
       oposite_fuse="false"
       fuse_paths="true"
       discard_orig_path="false"
       mode="free"
       is_visible="true"
       id="path-effect4547-0-8-7"
       center_point="275.14301,224.09666"
       end_point="275.14301,350.07326"
       start_point="275.14301,98.12006"
       effect="mirror_symmetry"
       lpeversion="0"
       split_items="false" />
    <inkscape:path-effect
       oposite_fuse="false"
       fuse_paths="false"
       discard_orig_path="false"
       mode="free"
       is_visible="true"
       id="path-effect4557-0-4-0"
       center_point="273.50283,404.61159"
       end_point="273.50283,477.30227"
       start_point="273.50283,331.92091"
       effect="mirror_symmetry"
       lpeversion="0"
       split_items="false" />
    <inkscape:path-effect
       oposite_fuse="false"
       fuse_paths="true"
       discard_orig_path="false"
       mode="free"
       is_visible="true"
       id="path-effect4547-0-9"
       center_point="275.14301,224.09666"
       end_point="275.14301,350.07326"
       start_point="275.14301,98.12006"
       effect="mirror_symmetry"
       lpeversion="0"
       split_items="false" />
    <inkscape:path-effect
       oposite_fuse="false"
       fuse_paths="false"
       discard_orig_path="false"
       mode="free"
       is_visible="true"
       id="path-effect4551-7-3"
       center_point="274.67636,329.54996"
       end_point="274.67636,418.88419"
       start_point="274.67636,240.21573"
       effect="mirror_symmetry"
       lpeversion="0"
       split_items="false" />
    <inkscape:path-effect
       oposite_fuse="false"
       fuse_paths="false"
       discard_orig_path="false"
       mode="free"
       is_visible="true"
       id="path-effect4557-0-6"
       center_point="273.50283,404.61159"
       end_point="273.50283,477.30227"
       start_point="273.50283,331.92091"
       effect="mirror_symmetry"
       lpeversion="0"
       split_items="false" />
    <inkscape:path-effect
       oposite_fuse="false"
       fuse_paths="true"
       discard_orig_path="false"
       mode="free"
       is_visible="true"
       id="path-effect10989-6-2"
       center_point="644.9483,170.66491"
       end_point="644.85991,225.02374"
       start_point="645.03669,116.30607"
       effect="mirror_symmetry"
       lpeversion="0"
       split_items="false" />
    <inkscape:path-effect
       oposite_fuse="false"
       fuse_paths="true"
       discard_orig_path="false"
       mode="free"
       is_visible="true"
       id="path-effect4724-6"
       center_point="284.18608,129.13713"
       end_point="284.18608,137.98161"
       start_point="284.18608,120.29265"
       effect="mirror_symmetry"
       lpeversion="0"
       split_items="false" />
    <inkscape:path-effect
       oposite_fuse="false"
       fuse_paths="true"
       discard_orig_path="false"
       mode="free"
       is_visible="true"
       id="path-effect4547-0-8-1"
       center_point="275.14301,224.09666"
       end_point="275.14301,350.07326"
       start_point="275.14301,98.12006"
       effect="mirror_symmetry"
       lpeversion="0"
       split_items="false" />
    <inkscape:path-effect
       oposite_fuse="false"
       fuse_paths="false"
       discard_orig_path="false"
       mode="free"
       is_visible="true"
       id="path-effect4557-0-4-8"
       center_point="273.50283,404.61159"
       end_point="273.50283,477.30227"
       start_point="273.50283,331.92091"
       effect="mirror_symmetry"
       lpeversion="0"
       split_items="false" />
    <inkscape:path-effect
       oposite_fuse="false"
       fuse_paths="true"
       discard_orig_path="false"
       mode="free"
       is_visible="true"
       id="path-effect4547-0-7"
       center_point="275.14301,224.09666"
       end_point="275.14301,350.07326"
       start_point="275.14301,98.12006"
       effect="mirror_symmetry"
       lpeversion="0"
       split_items="false" />
    <inkscape:path-effect
       oposite_fuse="false"
       fuse_paths="false"
       discard_orig_path="false"
       mode="free"
       is_visible="true"
       id="path-effect4551-7-9"
       center_point="274.67636,329.54996"
       end_point="274.67636,418.88419"
       start_point="274.67636,240.21573"
       effect="mirror_symmetry"
       lpeversion="0"
       split_items="false" />
    <inkscape:path-effect
       oposite_fuse="false"
       fuse_paths="false"
       discard_orig_path="false"
       mode="free"
       is_visible="true"
       id="path-effect4557-0-20"
       center_point="273.50283,404.61159"
       end_point="273.50283,477.30227"
       start_point="273.50283,331.92091"
       effect="mirror_symmetry"
       lpeversion="0"
       split_items="false" />
    <inkscape:path-effect
       oposite_fuse="false"
       fuse_paths="true"
       discard_orig_path="false"
       mode="free"
       is_visible="true"
       id="path-effect10989-6-3"
       center_point="644.9483,170.66491"
       end_point="644.85991,225.02374"
       start_point="645.03669,116.30607"
       effect="mirror_symmetry"
       lpeversion="0"
       split_items="false" />
    <inkscape:path-effect
       oposite_fuse="false"
       fuse_paths="true"
       discard_orig_path="false"
       mode="free"
       is_visible="true"
       id="path-effect4724-75"
       center_point="284.18608,129.13713"
       end_point="284.18608,137.98161"
       start_point="284.18608,120.29265"
       effect="mirror_symmetry"
       lpeversion="0"
       split_items="false" />
    <inkscape:path-effect
       oposite_fuse="false"
       fuse_paths="true"
       discard_orig_path="false"
       mode="free"
       is_visible="true"
       id="path-effect4547-0-8-9"
       center_point="275.14301,224.09666"
       end_point="275.14301,350.07326"
       start_point="275.14301,98.12006"
       effect="mirror_symmetry"
       lpeversion="0"
       split_items="false" />
    <inkscape:path-effect
       oposite_fuse="false"
       fuse_paths="false"
       discard_orig_path="false"
       mode="free"
       is_visible="true"
       id="path-effect4557-0-4-2"
       center_point="273.50283,404.61159"
       end_point="273.50283,477.30227"
       start_point="273.50283,331.92091"
       effect="mirror_symmetry"
       lpeversion="0"
       split_items="false" />
    <inkscape:path-effect
       oposite_fuse="false"
       fuse_paths="true"
       discard_orig_path="false"
       mode="free"
       is_visible="true"
       id="path-effect4547-0-2"
       center_point="275.14301,224.09666"
       end_point="275.14301,350.07326"
       start_point="275.14301,98.12006"
       effect="mirror_symmetry"
       lpeversion="0"
       split_items="false" />
    <inkscape:path-effect
       oposite_fuse="false"
       fuse_paths="false"
       discard_orig_path="false"
       mode="free"
       is_visible="true"
       id="path-effect4551-7-8"
       center_point="274.67636,329.54996"
       end_point="274.67636,418.88419"
       start_point="274.67636,240.21573"
       effect="mirror_symmetry"
       lpeversion="0"
       split_items="false" />
    <inkscape:path-effect
       oposite_fuse="false"
       fuse_paths="false"
       discard_orig_path="false"
       mode="free"
       is_visible="true"
       id="path-effect4557-0-9"
       center_point="273.50283,404.61159"
       end_point="273.50283,477.30227"
       start_point="273.50283,331.92091"
       effect="mirror_symmetry"
       lpeversion="0"
       split_items="false" />
  </defs>
  <sodipodi:namedview
     pagecolor="#ffffff"
     bordercolor="#666666"
     borderopacity="1"
     objecttolerance="10"
     gridtolerance="10"
     guidetolerance="10"
     inkscape:pageopacity="0"
     inkscape:pageshadow="2"
     inkscape:window-width="1366"
     inkscape:window-height="711"
     id="namedview4907"
     showgrid="false"
     inkscape:zoom="2.56"
     inkscape:cx="43.514924"
     inkscape:cy="29.422532"
     inkscape:window-x="0"
     inkscape:window-y="0"
     inkscape:window-maximized="1"
     inkscape:current-layer="svg4905"
     inkscape:document-rotation="0" />
  <!--
Created by Hari Seldon and modified by orangain, licensed under Creative Commons Attribution-Share Alike 3.0 Unported.
See: https://creativecommons.org/licenses/by-sa/3.0/deed.en

Original file is available at: https://commons.wikimedia.org/wiki/File:Shogi_osho(svg).svg
-->
  <filter
     id="drop-shadow">
    <feGaussianBlur
       in="SourceAlpha"
       result="blur"
       stdDeviation="2"
       id="feGaussianBlur4880" />
    <feOffset
       result="offsetBlur"
       dx="2"
       dy="2"
       id="feOffset4882" />
    <feBlend
       in="SourceGraphic"
       in2="offsetBlur"
       mode="normal"
       id="feBlend4884" />
  </filter>
  <g
     style="display:inline"
     transform="matrix(1.3015765,0,0,1.3015765,69.895122,-344.97829)"
     id="layer1"
     inkscape:label="Layer 1">
    <rect
       ry="2.1199546"
       y="270.70197"
       x="-48.044888"
       height="34.787006"
       width="34.787006"
       id="rect5497-7"
       style="opacity:1;fill:#d7b5d6;fill-opacity:1;stroke:#000000;stroke-width:0.554749;stroke-linecap:square;stroke-linejoin:miter;stroke-miterlimit:4;stroke-dasharray:none;stroke-opacity:1;paint-order:fill markers stroke" />
    <path
       transform="rotate(-43.147535,-16.240471,257.24518)"
       inkscape:transform-center-y="0.22740032"
       inkscape:transform-center-x="0.17839615"
       d="m -29.108426,270.30177 0,-2.71701 2.352999,1.35851 z"
       inkscape:randomized="0"
       inkscape:rounded="0"
       inkscape:flatsided="true"
       sodipodi:arg2="3.1415927"
       sodipodi:arg1="2.0943951"
       sodipodi:r2="0.78433317"
       sodipodi:r1="1.5686662"
       sodipodi:cy="268.94327"
       sodipodi:cx="-28.324093"
       sodipodi:sides="3"
       id="path10754-6"
       style="display:inline;opacity:1;fill:#e95c35;fill-opacity:1;stroke:#000000;stroke-width:0.25;stroke-linecap:square;stroke-linejoin:miter;stroke-miterlimit:4;stroke-dasharray:none;stroke-opacity:1;paint-order:fill markers stroke"
       sodipodi:type="star" />
    <g
       transform="matrix(0.78674347,0,0,0.78674347,32.599138,66.939052)"
       id="g11547">
      <path
         style="fill:#000000;stroke-width:0.352778"
         d="m -94.896099,289.4836 c -0.832835,-2.74859 -1.581643,-5.86315 -1.664014,-6.92125 -0.467012,-5.99924 4.023942,-12.41806 9.893478,-14.14054 7.15559,-2.09988 15.648661,0.46744 20.120448,6.08209 2.889226,3.62763 3.109811,8.68772 0.680167,15.60262 l -1.188679,3.38305 -1.845166,-0.31004 c -1.221219,-0.20521 -1.926269,-0.49853 -2.085001,-0.86749 -0.179337,-0.41686 -0.280337,-0.31153 -0.400409,0.41755 -0.19722,1.19774 -1.560314,1.61598 -4.791295,1.47017 -2.10144,-0.0949 -2.185115,-0.13072 -2.221905,-0.95248 -0.128739,-2.87575 -0.112166,-2.83031 -1.089881,-2.98827 -0.523142,-0.0842 -2.377098,-0.10864 -4.12,-0.0536 l -3.168914,0.10008 0.02709,1.27786 c 0.0149,0.70281 0.05363,1.62118 0.08607,2.0408 0.05432,0.70267 -0.19501,0.76884 -3.15584,0.83752 -1.768141,0.041 -3.292906,0.0622 -3.388356,0.047 -0.0954,-0.0152 -0.854944,-2.27645 -1.68779,-5.02505 z m 6.999492,1.84208 c 0.188116,-1.89539 0.240411,-1.98878 1.158991,-2.06995 2.213783,-0.19565 8.285389,-0.13053 8.80068,0.0944 0.382707,0.16704 0.545927,0.79617 0.520421,2.00592 l -0.03716,1.76255 1.657803,0.0199 c 3.33991,0.0401 3.125836,0.31765 3.760825,-4.87578 0.480579,-3.93053 0.635801,-4.57323 1.087192,-4.50142 0.753394,0.11985 0.989944,1.72234 0.69791,4.72798 -0.271477,2.79408 0.07535,3.61094 1.638749,3.85965 0.5682,0.0904 0.86954,-0.1254 1.122462,-0.80378 2.909844,-7.80472 2.958863,-13.06686 0.15323,-16.44895 -4.716874,-5.68602 -14.351731,-8.01527 -20.692941,-5.00258 -2.493104,1.18447 -4.712951,3.36971 -6.035189,5.94111 -1.960575,3.8128 -1.917938,6.53884 0.205994,13.17068 l 1.347994,4.20902 2.208014,-0.0519 2.20802,-0.0519 z m 4.058543,-9.04758 c -0.534212,-0.34694 -1.2957,-1.11772 -1.692197,-1.71284 -0.632674,-0.94961 -0.671074,-1.39528 -0.31376,-3.6414 0.435869,-2.73994 1.052415,-3.6787 3.133991,-4.77185 2.097335,-1.10142 6.211459,-0.0959 7.525233,1.83922 0.827018,1.21816 0.257296,1.9713 -0.62848,0.83082 -0.844153,-1.08689 -2.192374,-1.82945 -3.763758,-2.07298 -1.699947,-0.26334 -2.930766,0.16919 -4.126097,1.45036 -1.205636,1.29221 -1.780878,4.15358 -1.111364,5.52815 0.984525,2.02129 4.340136,3.04014 7.703987,2.33911 2.31126,-0.48166 2.135829,-0.49043 2.041585,0.102 -0.04197,0.26384 -0.903023,0.68947 -1.913452,0.94586 -2.119116,0.53771 -5.346033,0.14401 -6.855688,-0.83645 z m 11.554976,-4.06154 c -0.320041,-0.92338 0.121111,-1.70146 1.043501,-1.84046 1.367284,-0.20606 2.055279,1.59204 0.923372,2.41324 -0.726824,0.52732 -1.681992,0.24916 -1.966873,-0.57278 z"
         id="path11355"
         inkscape:connector-curvature="0" />
    </g>
    <path
       transform="matrix(-0.72959515,-0.68387931,-0.68387931,0.72959515,118.7706,58.453823)"
       inkscape:transform-center-y="0.22739943"
       inkscape:transform-center-x="-0.17839695"
       d="m -29.108426,270.30177 0,-2.71701 2.352999,1.35851 z"
       inkscape:randomized="0"
       inkscape:rounded="0"
       inkscape:flatsided="true"
       sodipodi:arg2="3.1415927"
       sodipodi:arg1="2.0943951"
       sodipodi:r2="0.78433317"
       sodipodi:r1="1.5686662"
       sodipodi:cy="268.94327"
       sodipodi:cx="-28.324093"
       sodipodi:sides="3"
       id="path10754-6-0"
       style="display:inline;opacity:1;fill:#e95c35;fill-opacity:1;stroke:#000000;stroke-width:0.25;stroke-linecap:square;stroke-linejoin:miter;stroke-miterlimit:4;stroke-dasharray:none;stroke-opacity:1;paint-order:fill markers stroke"
       sodipodi:type="star" />
    <path
       transform="rotate(136.85247,-43.022022,282.2147)"
       inkscape:transform-center-y="-0.22740736"
       inkscape:transform-center-x="-0.17839359"
       d="m -29.108426,270.30177 0,-2.71701 2.352999,1.35851 z"
       inkscape:randomized="0"
       inkscape:rounded="0"
       inkscape:flatsided="true"
       sodipodi:arg2="3.1415927"
       sodipodi:arg1="2.0943951"
       sodipodi:r2="0.78433317"
       sodipodi:r1="1.5686662"
       sodipodi:cy="268.94327"
       sodipodi:cx="-28.324093"
       sodipodi:sides="3"
       id="path10754-6-0-6"
       style="display:inline;opacity:1;fill:#e95c35;fill-opacity:1;stroke:#000000;stroke-width:0.25;stroke-linecap:square;stroke-linejoin:miter;stroke-miterlimit:4;stroke-dasharray:none;stroke-opacity:1;paint-order:fill markers stroke"
       sodipodi:type="star" />
    <path
       transform="matrix(0.72959515,0.68387931,0.68387931,-0.72959515,-180.21624,517.53904)"
       inkscape:transform-center-y="-0.22739811"
       inkscape:transform-center-x="0.17839801"
       d="m -29.108426,270.30177 0,-2.71701 2.352999,1.35851 z"
       inkscape:randomized="0"
       inkscape:rounded="0"
       inkscape:flatsided="true"
       sodipodi:arg2="3.1415927"
       sodipodi:arg1="2.0943951"
       sodipodi:r2="0.78433317"
       sodipodi:r1="1.5686662"
       sodipodi:cy="268.94327"
       sodipodi:cx="-28.324093"
       sodipodi:sides="3"
       id="path10754-6-3"
       style="display:inline;opacity:1;fill:#e95c35;fill-opacity:1;stroke:#000000;stroke-width:0.25;stroke-linecap:square;stroke-linejoin:miter;stroke-miterlimit:4;stroke-dasharray:none;stroke-opacity:1;paint-order:fill markers stroke"
       sodipodi:type="star" />
    <path
       transform="matrix(0.26458333,0,0,0.26458333,-51.389145,267.35772)"
       inkscape:connector-curvature="0"
       id="path12210"
       d="m 74.139644,41.577099 c -7.87925,0.0344 -15.910281,1.840605 -22.559814,6.199482 -6.309211,4.167165 -11.500302,10.062477 -14.697207,16.9265 -2.213273,4.568929 -3.674258,9.602623 -3.477825,14.717746 -0.07625,5.230598 1.176924,10.349521 2.482485,15.376736 1.790146,6.470337 3.99909,12.815717 5.997555,19.223117 0.164345,0.47836 0.222918,1.27816 0.931692,1.0867 4.214874,-0.0791 8.437214,-0.13905 12.645897,-0.34626 0.379412,-0.52598 0.19193,-1.32307 0.356599,-1.94493 0.373122,-2.83963 0.437493,-5.74822 1.090315,-8.53244 0.175564,-0.89763 1.04368,-1.34847 1.888439,-1.39378 4.151815,-0.47235 8.389359,-0.34111 12.584414,-0.42264 4.561604,0.033 9.14162,-0.0526 13.675284,0.47728 1.274717,0.10982 1.760504,1.62543 1.86344,2.7231 0.174097,2.83818 -0.02633,5.73095 0.127167,8.55924 1.157999,0.20468 2.467207,0.0243 3.681637,0.0845 2.660029,-0.0672 5.346743,0.15349 7.988739,-0.22064 1.564689,-0.27059 2.585689,-1.67616 2.947099,-3.13749 0.94131,-3.49225 1.14155,-7.13177 1.6611,-10.70037 0.57517,-4.113742 0.90181,-8.276925 1.89945,-12.311257 0.19403,-0.568009 0.45502,-1.535725 1.2066,-1.489997 1.3768,0.342131 1.69685,1.93116 1.98035,3.10543 0.51257,3.057311 0.2501,6.192576 0.10488,9.273317 -0.17813,3.215647 -0.79431,6.554127 0.13903,9.711677 0.46431,1.72784 2.05791,2.86873 3.74837,3.22011 1.26528,0.37979 2.95038,0.4484 3.7454,-0.82543 1.06382,-1.83482 1.58733,-3.93086 2.33274,-5.90606 2.97462,-8.920196 5.37535,-18.255223 4.94735,-27.732617 -0.26758,-6.116481 -2.20529,-12.28491 -6.21025,-16.998922 C 110.48227,52.280052 101.01466,46.886586 91.034372,43.980465 85.555277,42.383517 79.852082,41.511598 74.139644,41.577099 Z m 3.95084,9.000124 c 4.704084,0.128216 9.515821,1.45646 13.302645,4.33754 1.629986,1.331346 3.221186,3.08382 3.490155,5.251757 0.119765,0.634319 -0.532616,1.383296 -1.155657,0.88561 -1.587129,-1.11051 -2.576883,-2.876888 -4.173842,-3.991079 -3.464629,-2.712391 -7.965229,-4.04112 -12.345211,-3.83563 -5.020062,0.273894 -9.368527,3.986053 -11.243999,8.524559 -1.447065,3.507684 -2.18364,7.46856 -1.36663,11.221506 0.825487,3.156378 3.58606,5.377708 6.380729,6.795161 4.668377,2.271569 10.057335,2.587368 15.140881,1.957959 2.582029,-0.345524 5.111886,-1.067583 7.686496,-1.366872 0.457329,0.0249 0.440173,0.409267 0.328497,0.724073 -0.0909,0.92294 -1.169542,1.300315 -1.849152,1.731022 -2.933947,1.441111 -6.220674,2.085822 -9.506865,1.993296 -2.265629,0.06433 -4.539422,0.04373 -6.766801,-0.428497 -3.633383,-0.624177 -7.402018,-1.761493 -10.016357,-4.511249 -1.666534,-1.717506 -3.356136,-3.580704 -4.079167,-5.911375 -0.56297,-2.800071 0.125487,-5.662817 0.516667,-8.462987 0.628315,-3.647725 1.444049,-7.593098 4.247771,-10.215463 2.092951,-1.902154 4.583972,-3.449702 7.304545,-4.260639 1.342727,-0.32288 2.722961,-0.437975 4.105295,-0.438692 z m 28.106706,13.924125 c 2.09728,-0.198003 3.79837,1.910793 3.63936,3.912861 0.005,2.012253 -1.92467,3.776325 -3.91755,3.668215 -2.0441,0.09828 -3.62553,-1.911925 -3.49163,-3.86699 -0.23314,-1.524587 0.85037,-3.002766 2.28789,-3.497801 0.46352,-0.214569 0.98179,-0.216482 1.48193,-0.216285 z"
       style="opacity:1;fill:#ececec;fill-opacity:1;stroke:none;stroke-width:0.119309;stroke-linecap:square;stroke-linejoin:miter;stroke-miterlimit:4;stroke-dasharray:none;stroke-opacity:1;paint-order:fill markers stroke" />
  </g>
</svg>
