<?xml version="1.0" encoding="UTF-8" standalone="no"?>
<svg
   xmlns:dc="http://purl.org/dc/elements/1.1/"
   xmlns:cc="http://creativecommons.org/ns#"
   xmlns:rdf="http://www.w3.org/1999/02/22-rdf-syntax-ns#"
   xmlns:svg="http://www.w3.org/2000/svg"
   xmlns="http://www.w3.org/2000/svg"
   xmlns:sodipodi="http://sodipodi.sourceforge.net/DTD/sodipodi-0.dtd"
   xmlns:inkscape="http://www.inkscape.org/namespaces/inkscape"
   width="60"
   height="60"
   version="1.1"
   id="svg4905"
   sodipodi:docname="1KI.svg"
   inkscape:version="1.0.1 (3bc2e813f5, 2020-09-07)">
  <metadata
     id="metadata4911">
    <rdf:RDF>
      <cc:Work
         rdf:about="">
        <dc:format>image/svg+xml</dc:format>
        <dc:type
           rdf:resource="http://purl.org/dc/dcmitype/StillImage" />
        <dc:title></dc:title>
      </cc:Work>
    </rdf:RDF>
  </metadata>
  <defs
     id="defs4909">
    <inkscape:path-effect
       oposite_fuse="false"
       fuse_paths="true"
       discard_orig_path="false"
       mode="free"
       is_visible="true"
       id="path-effect10989-6"
       center_point="644.9483,170.66491"
       end_point="644.85991,225.02374"
       start_point="645.03669,116.30607"
       effect="mirror_symmetry"
       lpeversion="0"
       split_items="false" />
    <inkscape:path-effect
       oposite_fuse="false"
       fuse_paths="true"
       discard_orig_path="false"
       mode="free"
       is_visible="true"
       id="path-effect4724"
       center_point="284.18608,129.13713"
       end_point="284.18608,137.98161"
       start_point="284.18608,120.29265"
       effect="mirror_symmetry"
       lpeversion="0"
       split_items="false" />
    <inkscape:path-effect
       oposite_fuse="false"
       fuse_paths="true"
       discard_orig_path="false"
       mode="free"
       is_visible="true"
       id="path-effect4547-0-8"
       center_point="275.14301,224.09666"
       end_point="275.14301,350.07326"
       start_point="275.14301,98.12006"
       effect="mirror_symmetry"
       lpeversion="0"
       split_items="false" />
    <inkscape:path-effect
       oposite_fuse="false"
       fuse_paths="false"
       discard_orig_path="false"
       mode="free"
       is_visible="true"
       id="path-effect4557-0-4"
       center_point="273.50283,404.61159"
       end_point="273.50283,477.30227"
       start_point="273.50283,331.92091"
       effect="mirror_symmetry"
       lpeversion="0"
       split_items="false" />
    <inkscape:path-effect
       oposite_fuse="false"
       fuse_paths="true"
       discard_orig_path="false"
       mode="free"
       is_visible="true"
       id="path-effect4547-0"
       center_point="275.14301,224.09666"
       end_point="275.14301,350.07326"
       start_point="275.14301,98.12006"
       effect="mirror_symmetry"
       lpeversion="0"
       split_items="false" />
    <inkscape:path-effect
       oposite_fuse="false"
       fuse_paths="false"
       discard_orig_path="false"
       mode="free"
       is_visible="true"
       id="path-effect4551-7"
       center_point="274.67636,329.54996"
       end_point="274.67636,418.88419"
       start_point="274.67636,240.21573"
       effect="mirror_symmetry"
       lpeversion="0"
       split_items="false" />
    <inkscape:path-effect
       oposite_fuse="false"
       fuse_paths="false"
       discard_orig_path="false"
       mode="free"
       is_visible="true"
       id="path-effect4557-0"
       center_point="273.50283,404.61159"
       end_point="273.50283,477.30227"
       start_point="273.50283,331.92091"
       effect="mirror_symmetry"
       lpeversion="0"
       split_items="false" />
    <inkscape:path-effect
       oposite_fuse="false"
       fuse_paths="true"
       discard_orig_path="false"
       mode="free"
       is_visible="true"
       id="path-effect10989-6-6"
       center_point="644.9483,170.66491"
       end_point="644.85991,225.02374"
       start_point="645.03669,116.30607"
       effect="mirror_symmetry"
       lpeversion="0"
       split_items="false" />
    <inkscape:path-effect
       oposite_fuse="false"
       fuse_paths="true"
       discard_orig_path="false"
       mode="free"
       is_visible="true"
       id="path-effect4724-7"
       center_point="284.18608,129.13713"
       end_point="284.18608,137.98161"
       start_point="284.18608,120.29265"
       effect="mirror_symmetry"
       lpeversion="0"
       split_items="false" />
    <inkscape:path-effect
       oposite_fuse="false"
       fuse_paths="true"
       discard_orig_path="false"
       mode="free"
       is_visible="true"
       id="path-effect4547-0-8-5"
       center_point="275.14301,224.09666"
       end_point="275.14301,350.07326"
       start_point="275.14301,98.12006"
       effect="mirror_symmetry"
       lpeversion="0"
       split_items="false" />
    <inkscape:path-effect
       oposite_fuse="false"
       fuse_paths="false"
       discard_orig_path="false"
       mode="free"
       is_visible="true"
       id="path-effect4557-0-4-3"
       center_point="273.50283,404.61159"
       end_point="273.50283,477.30227"
       start_point="273.50283,331.92091"
       effect="mirror_symmetry"
       lpeversion="0"
       split_items="false" />
    <inkscape:path-effect
       oposite_fuse="false"
       fuse_paths="true"
       discard_orig_path="false"
       mode="free"
       is_visible="true"
       id="path-effect4547-0-5"
       center_point="275.14301,224.09666"
       end_point="275.14301,350.07326"
       start_point="275.14301,98.12006"
       effect="mirror_symmetry"
       lpeversion="0"
       split_items="false" />
    <inkscape:path-effect
       oposite_fuse="false"
       fuse_paths="false"
       discard_orig_path="false"
       mode="free"
       is_visible="true"
       id="path-effect4551-7-6"
       center_point="274.67636,329.54996"
       end_point="274.67636,418.88419"
       start_point="274.67636,240.21573"
       effect="mirror_symmetry"
       lpeversion="0"
       split_items="false" />
    <inkscape:path-effect
       oposite_fuse="false"
       fuse_paths="false"
       discard_orig_path="false"
       mode="free"
       is_visible="true"
       id="path-effect4557-0-2"
       center_point="273.50283,404.61159"
       end_point="273.50283,477.30227"
       start_point="273.50283,331.92091"
       effect="mirror_symmetry"
       lpeversion="0"
       split_items="false" />
    <inkscape:path-effect
       oposite_fuse="false"
       fuse_paths="true"
       discard_orig_path="false"
       mode="free"
       is_visible="true"
       id="path-effect10989-6-1"
       center_point="644.9483,170.66491"
       end_point="644.85991,225.02374"
       start_point="645.03669,116.30607"
       effect="mirror_symmetry"
       lpeversion="0"
       split_items="false" />
    <inkscape:path-effect
       oposite_fuse="false"
       fuse_paths="true"
       discard_orig_path="false"
       mode="free"
       is_visible="true"
       id="path-effect4724-2"
       center_point="284.18608,129.13713"
       end_point="284.18608,137.98161"
       start_point="284.18608,120.29265"
       effect="mirror_symmetry"
       lpeversion="0"
       split_items="false" />
    <inkscape:path-effect
       oposite_fuse="false"
       fuse_paths="true"
       discard_orig_path="false"
       mode="free"
       is_visible="true"
       id="path-effect4547-0-8-7"
       center_point="275.14301,224.09666"
       end_point="275.14301,350.07326"
       start_point="275.14301,98.12006"
       effect="mirror_symmetry"
       lpeversion="0"
       split_items="false" />
    <inkscape:path-effect
       oposite_fuse="false"
       fuse_paths="false"
       discard_orig_path="false"
       mode="free"
       is_visible="true"
       id="path-effect4557-0-4-0"
       center_point="273.50283,404.61159"
       end_point="273.50283,477.30227"
       start_point="273.50283,331.92091"
       effect="mirror_symmetry"
       lpeversion="0"
       split_items="false" />
    <inkscape:path-effect
       oposite_fuse="false"
       fuse_paths="true"
       discard_orig_path="false"
       mode="free"
       is_visible="true"
       id="path-effect4547-0-9"
       center_point="275.14301,224.09666"
       end_point="275.14301,350.07326"
       start_point="275.14301,98.12006"
       effect="mirror_symmetry"
       lpeversion="0"
       split_items="false" />
    <inkscape:path-effect
       oposite_fuse="false"
       fuse_paths="false"
       discard_orig_path="false"
       mode="free"
       is_visible="true"
       id="path-effect4551-7-3"
       center_point="274.67636,329.54996"
       end_point="274.67636,418.88419"
       start_point="274.67636,240.21573"
       effect="mirror_symmetry"
       lpeversion="0"
       split_items="false" />
    <inkscape:path-effect
       oposite_fuse="false"
       fuse_paths="false"
       discard_orig_path="false"
       mode="free"
       is_visible="true"
       id="path-effect4557-0-6"
       center_point="273.50283,404.61159"
       end_point="273.50283,477.30227"
       start_point="273.50283,331.92091"
       effect="mirror_symmetry"
       lpeversion="0"
       split_items="false" />
    <inkscape:path-effect
       oposite_fuse="false"
       fuse_paths="true"
       discard_orig_path="false"
       mode="free"
       is_visible="true"
       id="path-effect10989-6-2"
       center_point="644.9483,170.66491"
       end_point="644.85991,225.02374"
       start_point="645.03669,116.30607"
       effect="mirror_symmetry"
       lpeversion="0"
       split_items="false" />
    <inkscape:path-effect
       oposite_fuse="false"
       fuse_paths="true"
       discard_orig_path="false"
       mode="free"
       is_visible="true"
       id="path-effect4724-6"
       center_point="284.18608,129.13713"
       end_point="284.18608,137.98161"
       start_point="284.18608,120.29265"
       effect="mirror_symmetry"
       lpeversion="0"
       split_items="false" />
    <inkscape:path-effect
       oposite_fuse="false"
       fuse_paths="true"
       discard_orig_path="false"
       mode="free"
       is_visible="true"
       id="path-effect4547-0-8-1"
       center_point="275.14301,224.09666"
       end_point="275.14301,350.07326"
       start_point="275.14301,98.12006"
       effect="mirror_symmetry"
       lpeversion="0"
       split_items="false" />
    <inkscape:path-effect
       oposite_fuse="false"
       fuse_paths="false"
       discard_orig_path="false"
       mode="free"
       is_visible="true"
       id="path-effect4557-0-4-8"
       center_point="273.50283,404.61159"
       end_point="273.50283,477.30227"
       start_point="273.50283,331.92091"
       effect="mirror_symmetry"
       lpeversion="0"
       split_items="false" />
    <inkscape:path-effect
       oposite_fuse="false"
       fuse_paths="true"
       discard_orig_path="false"
       mode="free"
       is_visible="true"
       id="path-effect4547-0-7"
       center_point="275.14301,224.09666"
       end_point="275.14301,350.07326"
       start_point="275.14301,98.12006"
       effect="mirror_symmetry"
       lpeversion="0"
       split_items="false" />
    <inkscape:path-effect
       oposite_fuse="false"
       fuse_paths="false"
       discard_orig_path="false"
       mode="free"
       is_visible="true"
       id="path-effect4551-7-9"
       center_point="274.67636,329.54996"
       end_point="274.67636,418.88419"
       start_point="274.67636,240.21573"
       effect="mirror_symmetry"
       lpeversion="0"
       split_items="false" />
    <inkscape:path-effect
       oposite_fuse="false"
       fuse_paths="false"
       discard_orig_path="false"
       mode="free"
       is_visible="true"
       id="path-effect4557-0-20"
       center_point="273.50283,404.61159"
       end_point="273.50283,477.30227"
       start_point="273.50283,331.92091"
       effect="mirror_symmetry"
       lpeversion="0"
       split_items="false" />
  </defs>
  <sodipodi:namedview
     pagecolor="#ffffff"
     bordercolor="#666666"
     borderopacity="1"
     objecttolerance="10"
     gridtolerance="10"
     guidetolerance="10"
     inkscape:pageopacity="0"
     inkscape:pageshadow="2"
     inkscape:window-width="1366"
     inkscape:window-height="711"
     id="namedview4907"
     showgrid="false"
     inkscape:zoom="2.56"
     inkscape:cx="43.514924"
     inkscape:cy="29.422532"
     inkscape:window-x="0"
     inkscape:window-y="0"
     inkscape:window-maximized="1"
     inkscape:current-layer="svg4905"
     inkscape:document-rotation="0" />
  <!--
Created by Hari Seldon and modified by orangain, licensed under Creative Commons Attribution-Share Alike 3.0 Unported.
See: https://creativecommons.org/licenses/by-sa/3.0/deed.en

Original file is available at: https://commons.wikimedia.org/wiki/File:Shogi_osho(svg).svg
-->
  <filter
     id="drop-shadow">
    <feGaussianBlur
       in="SourceAlpha"
       result="blur"
       stdDeviation="2"
       id="feGaussianBlur4880" />
    <feOffset
       result="offsetBlur"
       dx="2"
       dy="2"
       id="feOffset4882" />
    <feBlend
       in="SourceGraphic"
       in2="offsetBlur"
       mode="normal"
       id="feBlend4884" />
  </filter>
  <g
     transform="matrix(-1.3015765,0,0,-1.3015765,-9.8951219,404.97831)"
     id="layer1-2"
     inkscape:label="Layer 1">
    <g
       transform="translate(-2.9327392e-7,1.183197e-5)"
       id="g13426">
      <rect
         style="opacity:1;fill:#f8c376;fill-opacity:1;stroke:#000000;stroke-width:0.554749;stroke-linecap:square;stroke-linejoin:miter;stroke-miterlimit:4;stroke-dasharray:none;stroke-opacity:1;paint-order:fill markers stroke"
         id="rect5497"
         width="34.787006"
         height="34.787006"
         x="-48.044888"
         y="270.70197"
         ry="2.1199546" />
      <circle
         style="opacity:1;fill:#e95c35;fill-opacity:1;stroke:#000000;stroke-width:0.340634;stroke-linecap:square;stroke-linejoin:miter;stroke-miterlimit:4;stroke-dasharray:none;stroke-opacity:1;paint-order:fill markers stroke"
         id="path5973"
         cx="-45.230762"
         cy="273.83298"
         r="1.2745767" />
      <circle
         style="opacity:1;fill:#e95c35;fill-opacity:1;stroke:#000000;stroke-width:0.340634;stroke-linecap:square;stroke-linejoin:miter;stroke-miterlimit:4;stroke-dasharray:none;stroke-opacity:1;paint-order:fill markers stroke"
         id="path5973-1"
         cx="-30.870708"
         cy="273.73923"
         r="1.2745767" />
      <circle
         style="opacity:1;fill:#e95c35;fill-opacity:1;stroke:#000000;stroke-width:0.340634;stroke-linecap:square;stroke-linejoin:miter;stroke-miterlimit:4;stroke-dasharray:none;stroke-opacity:1;paint-order:fill markers stroke"
         id="path5973-1-8"
         cx="-16.774204"
         cy="273.77951"
         r="1.2745767" />
      <circle
         style="opacity:1;fill:#e95c35;fill-opacity:1;stroke:#000000;stroke-width:0.340634;stroke-linecap:square;stroke-linejoin:miter;stroke-miterlimit:4;stroke-dasharray:none;stroke-opacity:1;paint-order:fill markers stroke"
         id="path5973-1-7"
         cx="-45.185184"
         cy="288.05371"
         r="1.2745767" />
      <circle
         style="opacity:1;fill:#e95c35;fill-opacity:1;stroke:#000000;stroke-width:0.340634;stroke-linecap:square;stroke-linejoin:miter;stroke-miterlimit:4;stroke-dasharray:none;stroke-opacity:1;paint-order:fill markers stroke"
         id="path5973-1-9"
         cx="-16.831141"
         cy="287.99677"
         r="1.2745767" />
      <circle
         style="opacity:1;fill:#e95c35;fill-opacity:1;stroke:#000000;stroke-width:0.340634;stroke-linecap:square;stroke-linejoin:miter;stroke-miterlimit:4;stroke-dasharray:none;stroke-opacity:1;paint-order:fill markers stroke"
         id="path5973-1-0"
         cx="-30.934549"
         cy="302.49182"
         r="1.2745767" />
      <g
         id="g13408"
         transform="matrix(0.79329084,0,0,0.79329084,53.102625,51.391387)">
        <g
           transform="translate(4.6113094,-17.292411)"
           id="g12579">
          <path
             inkscape:connector-curvature="0"
             id="path12478"
             d="m -101.85703,324.78261 c -1.35364,-0.14842 -1.78987,-0.38105 -2.43168,-1.29674 l -0.78211,-1.11587 -0.596,1.31193 c -1.52444,3.35556 -3.87948,4.56947 -7.51045,3.87127 -2.38623,-0.45884 -2.84186,-0.78614 -4.1714,-2.99643 -0.55768,-0.92703 -0.63724,-0.95064 -0.97236,-0.28778 -0.99505,1.96829 -2.33356,1.68395 -4.12208,-0.87578 -2.18208,-3.12372 -2.35913,-6.31379 -0.62803,-11.33899 1.0207,-2.963 1.52753,-3.59018 4.89645,-6.05903 4.99492,-4.16569 15.14181,-3.42566 18.911176,1.759 1.723393,2.56286 2.47849,7.66597 1.804345,12.19424 -0.569279,3.82392 -1.752247,5.12425 -4.397861,4.83418 z m 3.36055,-5.00329 c 1.003983,-6.27009 -1.129613,-13.47702 -3.89132,-13.14421 -1.18267,0.14252 -1.90853,1.51467 -2.33344,4.41104 -0.41714,2.84347 0.12158,8.49858 1.03664,10.8818 0.58467,1.52276 0.70049,1.64392 1.78773,1.8703 2.029557,0.42258 2.843184,-0.53905 3.40039,-4.01893 z m -8.5253,4.41699 c 1.28589,-2.18584 1.57921,-4.05991 1.26117,-8.05786 -0.3574,-4.49278 0.38237,-8.6601 1.70145,-9.58463 1.31527,-0.92187 0.57223,-1.41611 -3.09977,-2.06183 -4.12265,-0.72497 -6.49572,-0.39336 -9.2167,1.28794 l -2.02913,1.2538 0.81458,1.1622 c 0.85499,1.21985 0.87097,1.69771 0.2773,8.29358 -0.31073,3.45229 0.18531,7.1179 1.14933,8.49331 1.41741,2.02227 5.3797,2.63464 7.48862,1.15737 0.47675,-0.33397 1.22067,-1.20871 1.65315,-1.94388 z m -3.32226,-1.70165 c -0.49484,-0.17977 -1.01612,-0.49293 -1.15838,-0.6959 -0.14227,-0.20298 -0.52721,-0.18084 -0.85544,0.0492 -0.79652,0.55828 -2.15031,0.70047 -2.17759,0.22871 -0.0131,-0.22552 0.35066,-0.47175 0.90372,-0.61179 1.19736,-0.30319 1.13135,-0.23033 1.29942,-1.43438 0.18233,-1.30608 0.74566,-1.25072 0.99637,0.0979 0.16312,0.87748 0.34871,1.07442 1.31807,1.3987 1.04855,0.35078 1.33579,0.76013 0.79791,1.13712 -0.1234,0.0865 -0.62923,0.0102 -1.12408,-0.16959 z m -8.55232,-1.77199 c 0.52372,-3.32683 0.95848,-7.64581 0.98264,-9.76147 0.0276,-2.417 -1.26016,-3.29891 -2.58409,-1.76967 -0.68399,0.79006 -2.08485,4.38229 -2.50574,6.42548 -0.77999,3.7864 1.40469,9.69234 3.13634,8.47863 0.27194,-0.1906 0.70882,-1.70844 0.97085,-3.37297 z"
             style="fill:#000000;stroke-width:0.352778"
             sodipodi:nodetypes="cccccccccccccsccccscscscccscccccccccccccccssccc" />
          <g
             id="g12503"
             style="fill:#000000">
            <circle
               r="1.2520461"
               cy="314.11075"
               cx="-108.06194"
               id="path12484"
               style="opacity:1;fill:#000000;fill-opacity:1;stroke:none;stroke-width:0.25;stroke-linecap:square;stroke-linejoin:miter;stroke-miterlimit:4;stroke-dasharray:none;stroke-opacity:1;paint-order:fill markers stroke" />
            <circle
               r="1.2520461"
               cy="314.55014"
               cx="-115.12538"
               id="path12484-0"
               style="opacity:1;fill:#000000;fill-opacity:1;stroke:none;stroke-width:0.25;stroke-linecap:square;stroke-linejoin:miter;stroke-miterlimit:4;stroke-dasharray:none;stroke-opacity:1;paint-order:fill markers stroke" />
          </g>
        </g>
        <path
           transform="matrix(0.26458333,0,0,0.26458333,-51.389145,267.35772)"
           inkscape:connector-curvature="0"
           id="path12589"
           d="m -239.12208,89.859328 c -2.41434,0.09722 -4.16519,2.157384 -5.48111,3.976094 -3.0017,5.042784 -4.92965,10.641348 -6.79169,16.182218 -1.28737,4.17234 -2.66179,8.43596 -2.46532,12.8599 -0.14934,4.82821 0.55859,9.64294 1.93005,14.26803 1.33141,4.27099 2.95327,8.83829 6.51869,11.77409 1.46703,1.37047 4.28529,0.99647 4.90383,-1.06549 2.40362,-6.21816 3.0438,-12.92579 4.02982,-19.4699 1.21704,-9.72705 2.36749,-19.49271 2.5444,-29.303206 -0.01,-2.961419 -0.44907,-6.365844 -2.78388,-8.449374 -0.66808,-0.610206 -1.50756,-0.859544 -2.40479,-0.772362 z"
           style="opacity:1;fill:#987019;fill-opacity:1;stroke:none;stroke-width:0.167033;stroke-linecap:square;stroke-linejoin:miter;stroke-miterlimit:4;stroke-dasharray:none;stroke-opacity:1;paint-order:fill markers stroke" />
        <path
           transform="matrix(0.26458333,0,0,0.26458333,-51.389145,267.35772)"
           inkscape:connector-curvature="0"
           id="path12591"
           d="m -207.11073,73.645221 c -7.36855,-0.04539 -14.57466,2.270965 -20.80054,6.150185 -2.57865,1.594926 -5.60118,2.944483 -7.69503,5.030941 2.18294,3.602587 5.63114,7.074224 5.24651,11.622209 0.20697,15.432454 -3.48895,31.051514 -0.36858,46.400594 0.99474,4.54517 2.12086,9.65289 6.27764,12.40199 6.85197,5.15814 16.8959,6.22959 24.45043,2.00117 6.46058,-4.57976 10.08605,-12.26324 11.76186,-19.8204 0.86794,-7.39177 -0.005,-14.87268 0.1612,-22.29793 0.0292,-9.72007 -0.54418,-19.996129 3.85219,-28.953496 1.06806,-2.427693 3.64292,-3.784185 4.7709,-6.110535 -0.55766,-2.303862 -3.56632,-2.540581 -5.45466,-3.245412 -7.26295,-1.756257 -14.70277,-3.188785 -22.20192,-3.179316 z m 9.69234,33.147699 c 2.47804,-0.31598 5.27793,1.36207 5.16933,4.11006 0.68807,3.37943 -3.09021,6.07261 -6.20582,4.78471 -3.68923,-1.16258 -3.84553,-6.8806 -0.43159,-8.47492 0.44436,-0.25886 0.9409,-0.46916 1.46808,-0.41985 z m -26.0794,1.56337 c 3.57262,-0.12023 6.20651,4.54584 3.76134,7.39976 -1.85436,2.88114 -6.42108,2.33055 -7.87002,-0.63184 -1.61064,-2.94473 0.63811,-6.83406 4.10868,-6.76792 z m 12.43306,21.82087 c 1.68505,0.7243 1.45802,3.2587 2.13928,4.71635 0.67916,3.41737 4.41052,4.20661 7.05104,5.52842 1.35909,0.49154 2.39521,2.44198 0.67949,3.23929 -2.0975,0.51508 -4.31576,-0.81621 -6.25449,-1.57299 -1.57791,-0.52554 -2.61712,-2.76413 -4.52613,-1.81615 -2.72248,1.09707 -5.78243,2.85412 -8.73733,1.92521 -1.46381,-1.30986 1.00604,-2.50458 2.0937,-2.79045 2.08258,-0.65088 5.29501,-1.00612 5.46834,-3.81036 0.50641,-1.5749 0.10372,-4.78176 2.0861,-5.41932 z"
           style="opacity:1;fill:#fff1a6;fill-opacity:1;stroke:none;stroke-width:0.334066;stroke-linecap:square;stroke-linejoin:miter;stroke-miterlimit:4;stroke-dasharray:none;stroke-opacity:1;paint-order:fill markers stroke" />
        <path
           transform="matrix(0.26458333,0,0,0.26458333,-51.389145,267.35772)"
           inkscape:connector-curvature="0"
           id="path12595"
           d="m -174.95006,83.120836 c -5.13976,0.757549 -6.87494,6.664853 -8.02246,10.992187 -2.84015,13.444237 -1.42414,27.455197 1.22738,40.812007 1.34178,4.20154 1.86386,9.72602 5.97575,12.23487 3.96151,1.43995 9.79099,1.50103 11.79492,-3.00586 3.62667,-7.87839 3.78369,-16.85284 4.07715,-25.38086 -0.0534,-10.51225 -2.1619,-21.320733 -7.44922,-30.495118 -1.70259,-2.464053 -4.46626,-5.019723 -7.60352,-5.157226 z"
           style="opacity:1;fill:#c9890e;fill-opacity:1;stroke:#000000;stroke-width:0.472441;stroke-linecap:square;stroke-linejoin:miter;stroke-miterlimit:4;stroke-dasharray:none;stroke-opacity:1;paint-order:fill markers stroke" />
      </g>
    </g>
  </g>
</svg>
