<svg xmlns="http://www.w3.org/2000/svg" width="60" height="60"><g transform="matrix(-1.30158 0 0 -1.30158 -9.895 404.978)"><rect ry="2.12" y="270.702" x="-48.045" height="34.787" width="34.787" fill="#c9e7f1" stroke="#000" stroke-width=".555" stroke-linecap="square" paint-order="fill markers stroke"/><circle r="1.275" cy="273.833" cx="-45.231" fill="#0b58ad" stroke="#000" stroke-width=".341" stroke-linecap="square" paint-order="fill markers stroke"/><circle r="1.275" cy="273.739" cx="-30.871" fill="#0f57ab" stroke="#000" stroke-width=".341" stroke-linecap="square" paint-order="fill markers stroke"/><circle r="1.275" cy="273.78" cx="-16.774" fill="#0d5aac" stroke="#000" stroke-width=".341" stroke-linecap="square" paint-order="fill markers stroke"/><circle r="1.275" cy="288.054" cx="-45.185" fill="#0d5aac" stroke="#000" stroke-width=".341" stroke-linecap="square" paint-order="fill markers stroke"/><circle r="1.275" cy="287.997" cx="-16.831" fill="#0d5aac" stroke="#000" stroke-width=".341" stroke-linecap="square" paint-order="fill markers stroke"/><circle r="1.275" cy="302.492" cx="-30.935" fill="#0d5aac" stroke="#000" stroke-width=".341" stroke-linecap="square" paint-order="fill markers stroke"/><path d="M-42.082 297.523c-.05-.05-.09-1.408-.09-3.017v-2.927l.289-.064c.158-.035.584.045.83.026.356-.027.458-.142.49-.37.04-.274-.094-.367-.895-.367h-.842v-5.782l1.186.037 1.187.036.035 2.546c.026 1.93-.014 2.782-.168 3.524-.4 1.994.2 3.572.169 4.878l-.036 1.496-1.032.037c-.568.02-1.073-.005-1.123-.054zm1.578-1.668c0-.91-.05-1.188-.277-1.555-.288-.466-.219-1.378-.026-1.924.092-.26-.093-.289-.452-.289h-.4v4.875H-40.504zm0-7.937v-2.374h-1.283v4.747h1.283zm-1.588-3.8c-.11-.547-.087-2.605.036-3.352.055-.335.088-.61.074-.61-.014 0-.227.304-.474.674-.922 1.383-2.012 2.276-2.78 2.277-.423 0-.432-.01-.361-.444.04-.244.247-.807.46-1.251.443-.917 1.944-2.965 2.387-3.255.36-.237.923-.123 1.028.207.06.188.163.22.517.163.269-.043.519-.008.638.091.16.133.238.124.428-.047a.929.929 0 01.536-.21c.719 0 2.26 2.316 2.591 3.892.172.816.027 1.662-.294 1.724-.295.056-1.567-1.52-2.202-2.727l-.541-1.03-.09.876c-.05.481-.209 1.268-.355 1.75-.432 1.423-1.412 2.202-1.598 1.271zm.927-1.122c.5-1.165.685-3.508.306-3.887-.213-.213-.388.246-.604 1.58-.214 1.319-.26 2.931-.083 2.931.061 0 .233-.28.38-.624zm3.663-.434c-.191-1.133-1.856-3.857-2.22-3.632-.359.222 1.698 4.049 2.176 4.049.063 0 .082-.188.044-.417zm-6.087-1.21c.884-1.005 1.726-2.735 1.33-2.735-.427 0-2.607 3.115-2.607 3.725 0 .213.686-.319 1.277-.99z"/><path d="M-41.683 292.06c-.038.074-.007.166-.018.247v4.648c.022.085.131.037.193.05.335-.003.672.005 1.006-.004.07-.026.027-.121.038-.178-.007-.569.004-1.137-.018-1.705a1.785 1.785 0 00-.253-.825c-.153-.26-.196-.561-.187-.858-.006-.25.014-.5.074-.744.026-.15.09-.291.107-.442-.008-.14-.169-.192-.288-.194a8.752 8.752 0 00-.632-.003l-.022.009zM-41.816 285.514c-.038.074-.007.165-.017.247v4.526c.021.085.13.037.193.05.379-.003.759.004 1.136-.004.07-.026.028-.121.04-.178v-4.604c-.022-.085-.13-.037-.193-.05-.379.003-.76-.004-1.137.004l-.022.009zM-40.96 279.021c-.124.012-.177.15-.222.246-.16.41-.22.848-.3 1.277-.135.816-.218 1.641-.216 2.468.01.195 0 .4.071.585.022.063.107.088.15.032.149-.178.247-.393.343-.602.277-.664.403-1.38.479-2.093.042-.402.049-.808.023-1.212-.029-.212-.05-.441-.178-.62-.036-.046-.09-.082-.15-.08zM-39.674 278.878c-.09-.006-.14.089-.13.169.019.304.151.586.263.865.34.782.748 1.537 1.21 2.255.186.276.372.56.624.781.06.052.177.113.232.024.048-.12.028-.256.018-.383-.06-.385-.218-.747-.375-1.101a11.69 11.69 0 00-1.22-2.07 2.716 2.716 0 00-.479-.494.282.282 0 00-.143-.046zM-42.262 278.576c-.144.018-.244.14-.347.23-.437.432-.799.932-1.154 1.43-.362.528-.721 1.063-.994 1.644-.062.151-.148.303-.152.47.005.082.107.099.166.062.275-.13.496-.345.717-.548a7.313 7.313 0 001.206-1.497c.256-.421.503-.855.652-1.326.032-.13.082-.279.018-.406a.13.13 0 00-.112-.06z" fill="#63b330" stroke="#000" stroke-width=".0205623" stroke-linecap="square" paint-order="fill markers stroke"/><g><path d="M-36.19 298.12c-.32-.703-.392-.723-2.142-.582-1.685.135-1.872.092-2.656-.608l-.843-.754.306-2.692c.637-5.608 3.54-9.234 8.435-10.538.782-.208 2.609-.38 4.06-.382 3.316-.003 5.487.668 7.294 2.259 1.858 1.635 2.425 2.92 2.572 5.82.142 2.796-.373 4.616-1.516 5.365-.378.248-.791.722-.917 1.054-.106.277-.312.647-.594.781-.366.175-.933.102-1.363.089-.274-.009-.402-.254-.568-.457-.55-.674-1.14-.69-5.614-.15-1.822.22-3.391.404-3.487.409-.096.004-.24.257-.32.56-.058.336-.296.523-.622.572-.51.03-.909.099-1.463-.061-.32-.088-.387-.303-.561-.686zm2.029-.35c.2-.63.889-.825 4.149-1.168 6.193-.653 5.95-.653 6.12-.003.203.776 1.364.809 1.606.047.095-.3.529-.798.963-1.108 2.779-1.979 1.888-8.437-1.475-10.696-1.89-1.269-3.222-1.588-6.524-1.563-3.245.024-5.232.598-7.393 2.136-2.005 1.427-3.706 4.59-4.058 7.543-.155 1.302-.134 1.35.857 1.97l1.015.635.901-.873c.496-.48 1.036-.79 1.201-.688.165.101.3.748.3 1.436 0 1.976 1.861 3.833 2.338 2.332zm3.166-5.38c1.112-1.366 6.77-3.17 8.768-2.797.76.142 2.014 1.244 2.013 1.77 0 .092-1.335.193-2.967.222-2.713.048-6.285.552-7.66 1.08-.5.192-.514.166-.154-.276zm-8.082-1.12c-.265-.69.11-1.293.75-1.202.827.118.827 1.43 0 1.547-.335.048-.656-.1-.75-.345zm3.682-1.818c0-.157.466-.56 1.035-.897.947-.56.981-.62.398-.702-.35-.05-1.026.045-1.5.21-1.313.459-1.673-.135-.404-.665.825-.526 3.602-.364 3.784.42 0 .312-2.472 1.907-2.968 1.915-.19.003-.345-.124-.345-.28zm4.038-.582c1.151-1.271 5.416-2.72 8.007-2.72 1.227 0 1.525.107 2.012.727.889 1.13.74 1.354-.821 1.246-1.653-.114-6.317.394-8.276.902-1.347.35-1.374.345-.922-.155zm-8.178 7.82c0-.323-1.077-1.432-1.39-1.432-.382 0-.329.34.164 1.043.414.591 1.226.85 1.226.39zm2.317-.212c.225-.588.212-1.496-.022-1.496-.347 0-1.467 1.195-1.467 1.566 0 .518 1.286.457 1.489-.07z"/><path d="M-28.913 283.279c-1.975.006-4.024.106-5.828.996-1.6.703-3.028 1.818-3.989 3.288a12.522 12.522 0 00-2.121 6.145c-.056.493.327.86.723 1.079.396.24.771.558 1.2.727.68-.409 1.12-1.176 1.879-1.467.2-.096.408.042.403.266.196.804.052 1.668.414 2.437.164.605.544 1.514 1.023 1.49.468-.024.802.218.998-.336.122-.405.461-.696.872-.78 1.582-.384 3.217-.468 4.83-.665 1.374-.119 2.747-.339 4.128-.312.222-.02.392.122.44.339.107.436.52.806.99.708.48-.052.649-.547.875-.895.658-.765 1.604-1.34 1.956-2.338.578-1.367.517-2.917.249-4.35-.428-2.115-1.66-4.143-3.591-5.194-1.63-1.016-3.58-1.156-5.451-1.138zm5.542 2.908c.558.045 1.23-.089 1.67.344.35.34.731.726.863 1.207.064.28-.218.399-.452.373a33.523 33.523 0 00-4.673.193c-1.78.178-3.544.48-5.284.892-.102.003-.312.078-.364-.001.815-1.047 2.123-1.535 3.32-2 1.578-.548 3.236-1.012 4.92-1.008zm-10.906.939c.689.026 1.461.031 2.032.47.236.166.051.44-.133.556-.776.6-1.614 1.175-2.527 1.525-.203.118-.629-.098-.419-.338.467-.558 1.174-.823 1.711-1.29.049-.206-.287-.182-.42-.22-.831-.069-1.6.41-2.427.344-.277-.002-.171-.341 0-.425.622-.488 1.407-.636 2.183-.622zm11.403 2.44c.643-.053 1.258.21 1.738.625.346.313.78.635.88 1.112-.101.2-.421.093-.607.15-2.302.152-4.619.157-6.903.518-1.164.156-2.349.43-3.44.784.375-.747 1.2-1.108 1.905-1.474 1.876-.87 3.89-1.484 5.949-1.693.157-.012.318-.02.478-.022zm-15.572.533c.565-.073.913.675.624 1.121-.168.424-.784.474-1.104.214-.39-.38-.27-1.266.342-1.324.046-.007.092-.01.138-.011zM-41.014 295.253c-.268.069-.12.425-.036.588.273.49.687 1.058 1.296 1.094.278-.052.252-.393.082-.55-.342-.456-.74-.952-1.299-1.132a.29.29 0 00-.043 0z" fill="#f5c109" stroke="#000" stroke-width=".09858492" stroke-linecap="square" paint-order="fill markers stroke"/></g></g></svg>