<svg xmlns="http://www.w3.org/2000/svg" width="150" height="150" viewBox="0 0 4233 4233" shape-rendering="geometricPrecision" image-rendering="optimizeQuality" fill-rule="evenodd" clip-rule="evenodd"><g fill="#fff"><path d="m1656 1982l892 3 420 1658-1688-23z"/><path d="m1010 3590h2217v204h-2217z"/><path d="m1179 3737h1885v153h-1885z"/><path d="m1006 3857h2217v204h-2217z"/></g><g fill="#e3e3e3"><path d="m1612 2101h965l383 1489h266v204h-161v60l157 3v204h-316c0 0-26-149-71-267-45-117-85-80-135-448-49-368-253-1117-253-1117l-836-129z"/><path d="m1181 3792h1885v62h-1885z"/></g><g fill="#fff"><path d="m1300 1881h1638v220h-1638z"/><path d="m1564 1918l-403-764 497 259-40-683 478 556 32 632z"/><path d="m2628 1919l403-765-498 260 40-684-478 557-19 632z"/><circle cx="1161" cy="1154" r="100"/><circle cx="1618" cy="730" r="100"/><circle cx="2573" cy="730" r="100"/></g><g fill="#e3e3e3"><circle cx="3031" cy="1154" r="100"/><path d="m2633 650l-97 173-240 1058h351l337-639-42-42-409 213 43-584c0 0 182-32 57-180z"/><path d="m2472 1881v220h466v-220z"/></g></svg>