<svg xmlns="http://www.w3.org/2000/svg" viewBox="0 0 400 400"><path stroke="#000" stroke-width="10" d="M151.04 368.14c-.57-.95.21-4.12 1.74-7.07 2.72-5.21 2.69-5.42-1.34-8.17-16.84-11.5-32.18-42.96-34.39-70.45l-1.12-14.05-4.05 2.98c-2.23 1.63-4.72 2.55-5.54 2.03-.82-.52-1.44-6.88-1.38-14.13.09-10.53 1.09-15.55 4.96-24.93 5.49-13.3 12.28-24.7 18.42-30.88 2.29-2.3 8.99-10.36 14.89-17.89 5.9-7.53 12.29-14.95 14.2-16.5 4.37-3.5 7.86-13.84 6.76-20a513.8 513.8 0 0 0-3.88-17.7c-6.5-27.83 2.7-56.57 25.32-78.98 4.8-4.76 5.62-6.3 3.77-7.05-1.3-.52-3-.96-3.76-.97-3.38-.04-4.83-5.82-2.24-8.98 5.99-7.33 31.32-3.89 31.32 4.25 0 .6-1.92 2.26-4.27 3.69l-4.27 2.6 5.06 4.02c2.78 2.2 5.28 5.29 5.56 6.84.28 1.55-1.98 7.66-5.02 13.56-4.9 9.5-9.23 21.73-7.2 20.3.41-.29 4.96-5.76 10.1-12.17 5.15-6.4 9.63-11.48 9.96-11.27 3.71 2.35 10.36 10.19 13.87 16.36 9.65 16.99 9.4 41.36-.62 59.78-5.5 10.12-4.74 13.18 7.3 29.21 9.98 13.3 13.56 18.78 23.35 35.67 4.16 7.18 3.46 5.66 10.67 23.17 4.72 11.47 5.61 15.8 5.83 28.11.22 12.83-.12 14.7-2.93 15.83-4.12 1.64-5.57.18-8.48-8.5-1.22-3.64-2.88-6.62-3.69-6.62-.8 0-1.94 1.9-2.52 4.23-12.45 49.65-24.8 85.05-29.64 85.05-2.37 0-2.02-1.94 1.9-10.64 9.37-20.7 20.46-58.04 24.15-81.26 3.1-19.54.4-45.15-6.21-58.67-4.4-9.02-17.37-28-20.75-30.37-1.41-1-3.73-5.32-5.15-9.6-2.56-7.74-2.54-7.9 3-18.54 5.14-9.9 5.59-11.98 5.68-26.56.08-11.93-.69-17.63-3.12-23.17-3.9-8.93-9.96-18.08-11.96-18.08-2.75 0-6.36 4.43-16.96 20.83-5.84 9.03-11.62 16.43-12.84 16.44-1.23.01-2.24-.8-2.24-1.8 0-2.61 8.28-23.87 14.6-37.5 2.97-6.4 4.95-12.78 4.4-14.18-.56-1.4-3.69-4.5-6.95-6.88-5.8-4.25-6.01-4.3-9.28-2.23-9.4 5.94-20.46 19.84-26.68 33.51-8.95 19.69-9.98 35.15-3.77 56.8 4.37 15.2 2.6 28-4.5 32.79-4.4 2.96-17.89 20.38-23.77 30.69-4.94 8.67-10.58 26.37-13.62 42.75-2.76 14.91-2.37 44.9.74 56.08 5.93 21.3 18.82 42.45 30.78 50.48 5.52 3.7 5.92 4.38 4.01 6.97-3.4 4.62-5.14 9.09-3.53 9.09 2.6 0 14.34-8.07 14.34-9.85 0-1.26 1.07-1.5 4.02-.92 7.72 1.54 23.75 1.94 33.32.83l9.64-1.11 6.58 4.24c7.9 5.1 15.8 8.52 17.4 7.51.63-.4-.2-3.44-1.85-6.75-3.29-6.6-3.79-9.77-1.54-9.77 2.31 0 9.55 15.15 8.26 17.29-.64 1.05-2.98 1.92-5.19 1.92-4.55 0-19.57-6.82-21.3-9.68-.94-1.55-2.6-1.74-9.6-1.07-9.8.93-26.15.95-30.71.03-2.18-.44-5.82 1.12-11.84 5.05-8.81 5.74-14.3 7.08-16.2 3.96z"/><path stroke="#000" stroke-width="1.5" d="M282.02 259.38c-1.23-12.03-10.05-40.97-12.48-40.97-.22 0-.12 7.25.22 16.1.51 13.38 1.35 17.48 4.95 24.21 2.38 4.45 4.33 8.9 4.33 9.89 0 .98.93 1.79 2.06 1.79 1.48 0 1.74-3.05.92-11.02zm-164.9-9.25c.68-5.1 2.82-15.17 4.77-22.37 1.94-7.2 3.2-13.31 2.78-13.57-1.24-.79-10.23 18.8-12.83 27.95a74.5 74.5 0 0 0-2.4 16.96l.01 8.47 3.23-4.08c1.8-2.28 3.76-8.15 4.45-13.36zm90.9-208.76c5.26-2.05-3.4-7.17-12.1-7.17-8.67 0-12.89 4.33-7.55 7.76 2.07 1.32 15.79.9 19.65-.6zM182.56 143.32c0-2.3 3.5-3.39 5.95-1.84 1.56.99 1.41 1.56-.6 2.37-3.77 1.5-5.35 1.35-5.35-.53zm13.1-.14c-1.62-2.68 2.2-4.57 5.6-2.78 2.12 1.11 2.3 1.83.76 3-2.68 2.04-5.03 1.96-6.35-.22z"/><path fill="none" stroke="#000" stroke-width="1.07" d="M237.58 349.37c-.32.24-.05.6-.15.86-.02.05-.13.06-.15.1-.04.1 0 .44 0 .58v1.15"/><path fill="gray" d="M280.2 269.57c-2.06-4.04-7.64-16.64-8.34-18.8-.49-1.5-1.06-8.99-1.28-16.63-.37-12.94-.31-13.73.9-11.45 5.36 10.08 12.61 43.77 10.04 46.67-.75.84-1 .88-1.33.21zm-170.65-7.17c-.02-7.5.9-14.86 2.6-20.7 2.05-7.1 9.46-23.91 11.72-26.61l.57-.69v.93c.03 1.11-1.11 6.31-2.72 12.47a254.65 254.65 0 0 0-5.03 23.9c-.57 3.31-1.95 7.78-3.06 9.91-.44.84-1.53 2.45-2.43 3.57l-1.64 2.04zM187.9 41.08c-3.59-3.24.4-6.43 8.04-6.43 4.4 0 7.68.8 10.65 2.6 5.18 3.11 1.18 5.04-10.48 5.04-6.12 0-7.02-.14-8.21-1.21zm47.28 324.37c-2.34-.94-7.41-3.65-11.27-6.03l-7-4.32-7.1.85c-8.9 1.07-23.58 1.08-31.46.03-7.94-1.07-7.88-1.07-8.94.86-.94 1.7-11.77 9.23-13.28 9.23-1.16 0-.08-3.12 2.42-7.01 1.17-1.83 2.13-3.68 2.13-4.11 0-.43-2.17-2.46-4.83-4.5-9.04-6.99-15.2-14.8-21.8-27.62-7.7-14.98-10.15-23.73-11.3-40.45-1.82-26.06 2.35-52.45 11.75-74.41 4.31-10.07 17.04-28.02 25.67-36.18 6.7-6.34 7.84-9.16 7.76-19.16-.04-6.33-.6-10.14-2.44-16.9-3.19-11.67-3.98-27.5-1.85-36.8 4.56-19.85 17.6-40.79 31.2-50.1l4.44-3.04 3.2 2.17c1.75 1.2 4.51 3.4 6.12 4.9 4.5 4.18 4.38 4.94-4.39 25.1-7.18 16.5-11.88 29.76-11.04 31.14.24.4 1.13.74 1.97.74 2.01 0 5.77-4.6 14.7-18 8-12.02 12.15-17.46 14.06-18.46 1.08-.57 1.53-.47 2.61.58 2.23 2.16 5.36 7.01 8.57 13.3 4.15 8.13 5.22 15.05 4.65 30.08C239.25 130 239 131 233.5 142c-4.12 8.26-4.43 10.55-2.21 16.88 1.37 3.94 3.42 7.23 8.64 13.9 8.16 10.43 15.9 22.69 18.58 29.46 4.31 10.84 7.05 30.8 6.06 44.16-1.67 22.57-12.47 62.31-24.73 91.05-4.59 10.76-4.83 14.21-1.52 21.93 2.61 6.1 3 7.78 1.83 7.78-.38 0-2.61-.77-4.96-1.7zm-46.51-221.87c1.69-1.03 1.69-1.04-.12-2.18-2.26-1.43-5.23-.98-5.98.91-1.2 3.04 2.07 3.72 6.1 1.27zm13.05.32c2.5-1.59 2.38-2.24-.7-3.69-1.78-.85-2.55-.93-4.03-.42-2.21.75-2.48 3.36-.48 4.63 1.84 1.17 2.67 1.08 5.21-.52z"/></svg>