<svg xmlns="http://www.w3.org/2000/svg" width="400" height="400" viewBox="0 0 400 400"><g stroke="#000" stroke-width="2.7"><path d="M100.913 363.046c0-1.409 2.358-3.134 5.742-4.203l5.742-1.814-4.427-6.665c-7.9-11.893-10.441-24.684-10.468-52.678-.015-14.687.87-31.043 1.965-36.347l1.991-9.643h-5.544c-3.049 0-6.855.556-8.457 1.236-2.337.992-3.768.785-7.24-1.048-3.557-1.879-4.148-3.459-3.324-8.902.857-5.657 3.005-8.339 14.805-18.485 7.746-6.66 19.777-15.057 27.416-19.135 10.034-5.356 15.456-9.463 20.619-15.62 3.853-4.596 8.591-9.679 10.53-11.297 3.804-3.174 3.87-3.141-8.633-4.322-13.005-1.229-8.942-9.994 6.065-13.083l7.61-1.566-6.758-7.545c-17.344-19.363-33.04-56.981-28.313-67.855 1.324-3.046 3.132-3.937 11.184-5.515 5.283-1.035 14.246-1.897 19.918-1.917 15.976-.054 20.628-.874 20.628-3.634 0-1.324 1.574-3.72 3.497-5.325 4.275-3.567 1.24-3.855-9.855-.936-10.764 2.832-17.769 2.58-20.674-.745-4.094-4.686-5.213-9.416-3.643-15.403 1.8-6.865 4.415-7.601 18.976-5.341 5.713.886 10.758 1.451 11.212 1.255.454-.195-.769-1.686-2.716-3.311-1.948-1.625-4.185-4.691-4.971-6.814-1.312-3.538-.89-3.967 5.09-5.167 8.172-1.641 55.637-2.564 60.36-1.173 3.017.888 2.99 1.671-.229 6.734-2.003 3.152-4.492 6.586-5.531 7.632-1.6 1.613-1.216 1.78 2.52 1.095 14.884-2.728 24.326-3.7 26.563-2.734 3.933 1.697 4.962 17.138 1.334 20.012-2.777 2.2-4.434 2.45-15.023 2.257-6.547-.118-11.903.01-11.903.287 0 .276 2.102 2.28 4.67 4.453 2.57 2.173 4.056 4.38 3.303 4.906-.817.57 3.79.955 11.447.955 7.048 0 16.405.647 20.793 1.439l7.979 1.438-1.215 13.645c-2.083 23.388-7.187 38.465-19.686 58.15-2.534 3.99-3.468 7.054-2.206 7.236 1.204.173 4.819 1.208 8.033 2.299 8.223 2.79 7.817 7.076-1.03 10.894-5.884 2.539-6.87 3.705-6.837 8.083.022 2.814 1.537 8.166 3.367 11.893 3.081 6.276 4.499 7.308 19.213 13.993 22.688 10.307 30.565 17.79 31.737 30.153 1.226 12.932-3.232 16.129-18.601 13.337-3.811-.692-4.166-.466-2.841 1.81 4.373 7.52 9.052 33.005 9.207 50.144.173 19.215-2.401 29.285-11.234 43.936-2.792 4.632-2.662 5.278 1.681 8.318 4.238 2.965 4.356 3.447 1.184 4.816-3.116 1.345-4.304 1.354-10.218.081-4.765-1.026-8.293-1.172-12.249-.508-12.883 2.163-70.961 5.022-104.11 5.124-27.162.083-36.242.463-43.254 1.808-12.01 2.304-15.19 2.16-15.19-.688z"/><path d="M267.166 98.86c1.315-14.532 1.032-18.037-1.528-18.954-1.858-.664-15.01-1.26-32.18-1.456-15.97-.183-29.826-.674-30.788-1.09-3.152-1.366 3.072-2.918 13.788-3.44 5.782-.28 10.513-.69 10.513-.908 0-1.269-7.63-7.956-10.805-9.47-6.606-3.15-.618-3.817 15.196-1.693 8.043 1.08 15.24 1.698 15.995 1.372 2.273-.98 2.867-15.666.69-17.056-1.61-1.027-5.145-.738-17.262 1.409-8.381 1.485-15.897 2.416-16.702 2.07-.805-.348.728-2.985 3.406-5.86 2.678-2.876 5.552-6.742 6.386-8.593l1.516-3.364-23.849.551c-13.116.303-25.646.862-27.843 1.242-5.076.878-3.6 3.956 5.419 11.293 3.629 2.952 6.598 5.734 6.598 6.181 0 1.377-5.485.919-20.491-1.712-7.923-1.39-15.059-2.244-15.857-1.9-2.048.884-1.826 13.271.296 16.546l1.765 2.724 13.853-3.018c8.124-1.77 15.618-2.776 18.12-2.433 4.116.564 4.096.763-.583 5.62-4.6 4.778-4.653 5.185-1.03 7.91 4.617 3.471 4.884 3.42-22.202 4.21-11.219.327-23.08 1.147-26.357 1.822-5.25 1.082-6.041 1.905-6.647 6.912-1.986 16.41 19.75 59.517 35.11 69.634 4.683 3.084 2.92 5.272-4.246 5.272-7.783 0-17.57 3.615-17.57 6.49 0 2.022 1.406 2.485 9.167 3.02 11.466.792 11.566 1.659 1.453 12.485-10.953 11.724-25.602 31.374-32.35 43.393-11.356 20.23-13.61 31.29-13.578 66.65.03 34.394 1.976 43.668 12.105 57.713l4.421 6.13-6.653 1.484c-3.659.817-6.653 1.685-6.653 1.93 0 .634 11.907-1.403 15.298-2.617 1.836-.658 11.663-.772 27.765-.321 25.567.715 62.567-.763 101.862-4.068 12.752-1.073 18.976-1.201 22.196-.458 7.18 1.658 8.237 1.204 2.903-1.246l-4.964-2.28 5.553-10.605c8.992-17.174 11.27-27.977 9.72-46.088-2.393-27.942-6.87-41.353-26.765-80.181-8.39-16.373-13.674-29.096-14.081-33.9-.616-7.263-.307-7.828 5.565-10.178 8.788-3.516 8.493-7.695-.659-9.33-8.625-1.543-8.728-3.127-1.015-15.637 6.659-10.8 11.597-18.922 12.559-26.646 2.808-7.354 2.553-9.754 3.44-19.56z"/><path d="M96.97 248.157c3.427 1.48 3.828 1.314 5.14-2.127 5.137-13.455 17.354-34.293 22.936-39.12.766-.663-1.84.353-5.791 2.257-10.162 4.896-34.19 26.216-35.87 31.826-.762 2.546-.662 5.873.223 7.394l1.608 2.766 4.02-2.3c3.706-2.12 4.308-2.174 7.735-.696zM300.278 236.294c.055-10.817-10.867-21.796-29.231-29.383l-6.657-2.75 7.587 15.113c7.956 15.846 14.822 25.004 18.748 25.004 1.282 0 3.12.34 4.084.756 3.386 1.462 5.435-1.812 5.47-8.74z"/></g><g fill="#414141" stroke="#000"><path d="M118.809 352.641c-6.38-8.908-9.372-15.745-11.031-25.212-1.319-7.522-2.012-31.342-1.368-46.955.88-21.328 2.434-29.402 8.039-41.79 6.367-14.074 20.743-34.52 36.863-52.428 7.69-8.545 9.1-11.05 7.444-13.23-1.014-1.334-2.598-1.74-9.32-2.387-3.424-.33-6.69-.772-7.26-.983-.984-.364-.962-.434.447-1.437 2.424-1.726 7.665-3.23 13.038-3.742 7.21-.688 8.337-.99 9.494-2.549 1.414-1.905.712-3.216-3.494-6.521-12.393-9.74-28.843-39.108-32.775-58.516-1.127-5.561-.793-11.814.695-13.02 2.167-1.754 11.061-2.59 37.426-3.521 16.003-.565 17.973-.873 18.479-2.888.287-1.143 0-1.623-2.017-3.38-1.294-1.127-2.35-2.24-2.348-2.472.002-.232 1.46-2.017 3.238-3.966 3.654-4.003 4.095-5 2.877-6.504-1.81-2.234-8.922-1.774-24.718 1.6-5.104 1.09-9.58 1.982-9.946 1.982-1.763 0-3.543-7.975-2.913-13.051l.337-2.714 3.17.296c1.743.163 8.19 1.11 14.325 2.103 13.123 2.126 17.744 2.413 18.977 1.18 1.526-1.527.457-3.049-6.086-8.66-6.77-5.805-8.444-7.708-7.366-8.374.349-.216 3.28-.545 6.515-.73 5.489-.316 35.68-1.27 41.083-1.3l2.428-.013-1.07 1.902c-.587 1.045-2.328 3.371-3.87 5.168-4.447 5.187-5.714 7.1-5.714 8.627 0 1.12.285 1.5 1.318 1.759 1.892.474 7.238-.077 17.339-1.788 4.853-.823 10.332-1.65 12.175-1.839 3.058-.313 3.4-.252 3.908.696.704 1.315.721 9.317.026 11.821-.647 2.328-.13 2.306-14.344.628-13.178-1.556-18.331-1.636-19.97-.309-1.028.833-1.1 1.109-.58 2.249.326.714 1.473 1.749 2.55 2.298 1.077.55 3.615 2.317 5.64 3.929l3.681 2.929-2.72.344c-1.496.189-5.556.58-9.023.869-7.29.607-11.399 1.654-11.83 3.012-.456 1.437.169 2.461 1.861 3.051.924.322 11.227.75 25.55 1.06 30.395.66 36.791 1.054 37.762 2.325 1.436 1.88-.44 26.18-2.566 33.224-.667 2.21-1.613 5.379-2.103 7.043-1.325 4.5-3.738 9.307-9.146 18.218-5.924 9.762-7.76 13.507-7.76 15.832-.001 3.32 1.372 4.338 7.809 5.788 1.937.437 4.055 1.143 4.706 1.57 1.155.756 1.16.8.258 1.821-.508.576-2.768 1.904-5.022 2.953-5.495 2.557-6.24 3.568-6.24 8.48 0 7.286 3.17 15.46 15.801 40.746 17.278 34.588 21.323 45.88 24.069 67.197 2.487 19.308 1.656 30.71-3.118 42.784-1.374 3.474-8.472 17.964-10.855 22.158-.82 1.444-.843 1.708-.18 2.135.513.33-.944.49-4.538.499-2.912.007-7.79.228-10.841.492-37.124 3.213-59.985 4.198-98.65 4.252l-35.115.05z" stroke-width="1.361"/><path d="M85.034 247.95c-.602-1.109-.604-1.124-.59-3.431.01-1.687.092-2.525.304-3.078.695-1.812 2.874-4.428 7.688-9.229a170.719 170.719 0 0 1 17.788-15.431c4.005-3.015 9.274-6.424 9.53-6.168.052.052-.22.522-.604 1.045-2.346 3.19-6.146 9.289-9.31 14.944-2.155 3.854-6.66 12.998-7.904 16.045-2.132 5.22-1.974 4.907-2.453 4.854-.239-.027-1.317-.404-2.396-.838-3.502-1.408-4.537-1.29-8.613.98-1.403.782-2.615 1.422-2.694 1.422-.078 0-.414-.502-.746-1.115zM294.76 243.526c-.51-.185-1.826-.455-2.927-.599-1.805-.236-2.095-.327-2.96-.922-3.234-2.228-8.081-9.155-13.473-19.258-2.361-4.423-7.824-15.427-7.714-15.537.131-.131 4.01 1.49 7.22 3.02 10.755 5.122 18.42 11.498 21.845 18.17 1.391 2.71 1.893 4.54 2.007 7.321.194 4.71-.889 8.205-2.527 8.158-.3-.009-.962-.167-1.471-.353z" stroke-width=".481"/></g><path d="M261.597 123.348c-1.95 2.651-17.71 5.867-28.897 5.896-9.935.026-19.275-3.493-21.649-8.156-1.338-2.63-.544-3.486 5.353-5.76 12.025-4.636 39.536-5.777 44.292-1.836.95.788 2.343 2.275 3.03 4.93-.562 1.409-1.261 3.747-2.129 4.926zM188.676 141.42c-2.052-1.433 4.817-7.023 10.14-8.252 4.664-1.077 5.977-.829 12.94 2.45 7.353 3.463 8.645 5.526 3.871 6.183-1.182.163-4.529-1.289-7.438-3.226-4.323-2.878-5.894-3.305-8.595-2.338-1.818.65-3.305 1.742-3.305 2.425 0 1.596-6.108 3.809-7.613 2.758zM164.632 129.549c-6.644-.548-14.162-5.735-14.174-9.78-.004-1.687 2.347-4.58 5.225-6.429 4.483-2.88 6.717-3.403 15.599-3.654 9.33-.264 11.441.115 21.124 3.793 5.917 2.248 10.759 4.682 10.759 5.41 0 3.2-24.012 11.783-31.423 11.231-.996-.074-4.195-.33-7.11-.571zM152.136 103.949c-3.354-1.448 2.291-3.577 18.272-6.894 11.247-2.335 17.995-3.237 19.463-2.604 2.509 1.083-13.54 6.275-26.767 8.66-9.036 1.63-9.119 1.636-10.968.838zM243.027 101.552c-12.03-2.587-20.935-6.565-17.763-7.933 1.575-.68 4.336-.323 8.544 1.106 3.419 1.16 10.428 3.071 15.576 4.246 15.971 3.644 9.953 6.088-6.357 2.58z" stroke="#000" stroke-width="2"/><g fill="#fff" stroke="#000" stroke-width="2"><path d="M171.445 121.455c-.428-2.665.381-5.78 1.8-6.924 2.289-1.846 1.957-2.079-2.97-2.079-6.343 0-12.95 3.654-12.95 7.163 0 2.986 6.094 6.684 11.017 6.684 3.225.001 3.75-.818 3.103-4.844zM195.017 119.99c1.925-1.342 1.25-2.072-3.312-3.576l-5.73-1.888-1.222 4.29c-.673 2.36-2.736 5.12-4.584 6.134-2.179 1.195-.583.943 4.534-.714 4.343-1.407 8.985-3.317 10.314-4.245z"/></g><g fill="#fff" stroke="#000" stroke-width="2"><path d="M251.842 124.175c5.004-1.131 7.743-5.586 4.716-7.672-1.259-.868-5.904-1.713-10.323-1.877-7.883-.293-8.061-.217-9.4 4.001-.752 2.365-2.086 5.108-2.965 6.097-1.419 1.595-.723 1.716 6.195 1.075 4.286-.398 9.586-1.128 11.777-1.624zM226.189 118.027c2.085-2.772 2.021-2.8-2.998-1.34-4.884 1.421-5.543 3.266-2.373 6.645 1.085 1.157 1.595 1.048 2.316-.495.508-1.088 1.883-3.253 3.055-4.81z"/></g></svg>