<?xml version="1.0" encoding="UTF-8" standalone="no"?>
<!-- Created with Inkscape (http://www.inkscape.org/) -->

<svg
   xmlns:dc="http://purl.org/dc/elements/1.1/"
   xmlns:cc="http://creativecommons.org/ns#"
   xmlns:rdf="http://www.w3.org/1999/02/22-rdf-syntax-ns#"
   xmlns:svg="http://www.w3.org/2000/svg"
   xmlns="http://www.w3.org/2000/svg"
   xmlns:sodipodi="http://sodipodi.sourceforge.net/DTD/sodipodi-0.dtd"
   xmlns:inkscape="http://www.inkscape.org/namespaces/inkscape"
   version="1.1"
   id="svg2"
   width="400"
   height="400"
   viewBox="0 0 400 400"
   sodipodi:docname="Pawn-Black.svg"
   inkscape:version="0.92.3 (2405546, 2018-03-11)">
  <metadata
     id="metadata8">
    <rdf:RDF>
      <cc:Work
         rdf:about="">
        <dc:format>image/svg+xml</dc:format>
        <dc:type
           rdf:resource="http://purl.org/dc/dcmitype/StillImage" />
        <dc:title></dc:title>
      </cc:Work>
    </rdf:RDF>
  </metadata>
  <defs
     id="defs6" />
  <sodipodi:namedview
     pagecolor="#ffffff"
     bordercolor="#666666"
     borderopacity="1"
     objecttolerance="10"
     gridtolerance="10"
     guidetolerance="10"
     inkscape:pageopacity="0"
     inkscape:pageshadow="2"
     inkscape:window-width="1375"
     inkscape:window-height="877"
     id="namedview4"
     showgrid="false"
     inkscape:zoom="1.3174516"
     inkscape:cx="129.49931"
     inkscape:cy="168.47451"
     inkscape:window-x="195"
     inkscape:window-y="411"
     inkscape:window-maximized="0"
     inkscape:current-layer="svg2" />
  <g
     id="g833"
     style="fill:#000000;fill-opacity:1;stroke:#000000;stroke-width:9.69999981;stroke-miterlimit:4;stroke-dasharray:none;stroke-opacity:1"
     transform="matrix(0.83058763,0,0,0.86339576,32.30748,41.651781)">
    <path
       id="path825"
       d="m 153.71006,357.85213 c -4.70076,-0.86038 -15.16981,-3.28058 -23.26456,-5.37819 -13.73613,-3.55952 -14.86925,-4.21331 -16.98996,-9.80314 -6.34222,-16.71701 0.0173,-62.73613 11.02507,-79.78044 13.73297,-21.26394 18.81812,-35.64807 20.1193,-56.91057 l 0.56332,-9.20508 -12.34543,-0.7877 c -13.01203,-0.83021 -15.54184,-1.59497 -11.92978,-3.60627 2.52724,-1.40726 11.92978,-13.52009 11.92978,-15.36855 0,-0.6762 -1.92304,-1.98959 -4.27341,-2.91865 -5.2751,-2.08514 -15.81731,-16.01356 -18.53402,-24.48724 -9.07015,-28.29069 0.22383,-53.911402 25.16533,-69.373168 16.69178,-10.347588 29.6112,-13.526031 51.77205,-12.736961 16.53372,0.588716 20.59146,1.372754 31.33838,6.055244 23.15949,10.090723 36.66682,27.150015 40.52065,51.176145 1.821,11.3529 1.58243,13.26014 -3.37699,26.99631 -2.93504,8.12923 -7.10538,16.80654 -9.26741,19.28296 -4.43281,5.07735 -5.00013,4.34242 10.09654,13.07934 10.71622,6.20181 9.72119,9.00172 -4.15701,11.69739 -11.86343,2.30434 -11.97543,2.38085 -12.14204,8.29673 -0.38647,13.72121 6.02582,32.06778 15.99068,45.75182 15.68492,21.53899 20.40496,37.79119 18.30493,63.02814 -0.73782,8.86642 -2.48922,30.8272 -3.42814,30.8272 -0.97999,0 -0.80654,-22.54196 -0.10428,-33.10204 1.07106,-16.10573 0.69402,-19.99321 -3.0288,-31.22977 -2.54756,-7.68925 -7.99944,-17.97906 -13.59992,-25.66831 -11.59215,-15.91556 -16.81525,-30.51469 -16.81525,-47.00046 v -12.41556 l 9.75406,-1.04082 c 5.36473,-0.57245 10.15107,-1.39854 10.63632,-1.83572 1.71417,-1.54444 -1.74402,-4.53481 -9.21599,-7.96925 -9.72832,-4.47157 -10.49995,-6.67615 -4.92665,-14.0756 2.51167,-3.33466 6.52191,-11.54164 8.91163,-18.23771 8.16623,-22.88213 1.84063,-46.65927 -16.90672,-63.550187 -14.46995,-13.037086 -27.36681,-17.545032 -50.4833,-17.645818 -20.79404,-0.09074 -29.4224,2.057931 -44.36347,11.047204 -13.53692,8.144479 -23.27397,19.394161 -27.95377,32.296341 -2.93817,8.10055 -3.09667,11.02328 -1.2251,22.59255 3.11997,19.28635 11.42228,32.722 23.80641,38.526 l 5.34367,2.50437 -6.91578,6.89692 c -3.80368,3.79332 -6.38608,7.37418 -5.73866,7.95748 0.64741,0.58331 5.20095,1.47739 10.11895,1.98686 8.93481,0.92556 8.94228,0.93184 9.51601,8.01725 1.42928,17.65148 -7.5412,45.19323 -19.64033,60.30095 -2.54943,3.18338 -5.52206,8.57373 -6.60584,11.97856 -4.24446,13.33445 -7.86363,40.9369 -7.07617,53.96805 0.73767,12.20731 1.32393,13.91583 5.90415,17.20632 6.28592,4.51588 32.78667,10.93078 50.47728,12.21875 28.86576,2.10161 79.03782,-4.86568 94.74113,-13.15646 5.85032,-3.08877 6.27037,-3.11248 5.69789,-0.32155 -0.80241,3.912 -25.63264,11.49354 -45.86375,14.00378 -17.5847,2.18187 -59.44198,2.13074 -71.561,-0.0874 z"
       style="fill:#000000;fill-opacity:1;stroke:#000000;stroke-width:9.69999981;stroke-miterlimit:4;stroke-dasharray:none;stroke-opacity:1"
       inkscape:connector-curvature="0"
       sodipodi:nodetypes="ccssscccscsssscscsccscsscsscsccccscscsccccccscsscccscc" />
  </g>
  <path
     style="fill:#808080;fill-opacity:1;fill-rule:nonzero;stroke:none;stroke-width:0;stroke-miterlimit:4;stroke-dasharray:none;stroke-dashoffset:0;stroke-opacity:1"
     d="m 173.59995,349.97386 c -11.85767,-0.95755 -30.95032,-5.36863 -38.03249,-8.78684 -3.88557,-1.87537 -5.30959,-3.01946 -6.31947,-5.07718 -4.12647,-8.40804 -0.2899,-49.13282 5.80714,-61.64239 0.93167,-1.91154 3.13699,-5.56085 4.9007,-8.10958 6.83458,-9.87659 12.29804,-24.09985 14.48888,-37.7196 1.02762,-6.38834 0.80048,-16.67307 -0.39864,-18.05043 -0.77628,-0.89166 -2.57549,-1.32645 -8.97704,-2.1694 -1.22594,-0.16144 -3.17877,-0.50161 -4.33962,-0.75595 l -2.11064,-0.46242 0.72069,-1.44871 c 0.39637,-0.79678 2.81311,-3.67914 5.37051,-6.40524 l 4.64982,-4.95653 -4.55826,-2.47792 c -5.34977,-2.90818 -9.05298,-6.37417 -12.17102,-11.39133 -6.89666,-11.09727 -10.20945,-29.82468 -6.98971,-39.51339 4.62011,-13.90267 14.28108,-24.55814 29.57479,-32.61925 7.8931,-4.16036 13.43173,-5.51447 24.84839,-6.07508 7.09307,-0.34829 17.20686,0.28481 22.38677,1.40139 9.76403,2.10472 16.67243,5.83844 24.96721,13.49376 14.70683,13.5731 20.35046,32.17226 15.48223,51.02325 -1.33777,5.18013 -5.3149,14.28187 -8.41292,19.25314 -4.46915,7.17141 -4.08868,8.33648 4.15428,12.72123 4.94809,2.63207 7.84597,4.82048 7.84597,5.92505 0,0.36909 -0.93411,0.81217 -2.34042,1.11015 -2.18458,0.46288 -13.16424,1.88682 -14.54881,1.88682 -0.87953,0 -0.39759,17.7754 0.61565,22.70682 1.96752,9.57601 5.25183,17.03357 12.3545,28.05297 5.94429,9.22223 10.04902,17.32692 12.14096,23.97205 2.58506,8.21151 2.6992,9.76561 2.17583,29.62666 -0.25724,9.76172 -0.37707,18.93566 -0.26628,20.38652 l 0.20142,2.63793 -3.04889,1.59527 c -15.00485,7.851 -55.56489,13.85532 -80.17153,11.86823 z"
     id="path835"
     inkscape:connector-curvature="0" />
  <g
     id="g830"
     transform="matrix(0.83058763,0,0,0.86339576,27.323954,41.651781)"
     style="stroke:#000000;stroke-width:2.79999995;stroke-miterlimit:4;stroke-dasharray:none;stroke-opacity:1">
    <path
       id="path823"
       d="m 192.68007,176.99864 c -2.49755,-2.25024 -0.24302,-3.34064 8.98722,-4.3467 5.48423,-0.59777 12.3217,-1.5653 15.19438,-2.15012 6.41274,-1.30547 7.18715,2.18319 0.94965,4.27811 -5.32085,1.78705 -23.79965,3.41844 -25.13125,2.21871 z"
       style="fill:#000000;stroke:#000000;stroke-width:2.79999995;stroke-miterlimit:4;stroke-dasharray:none;stroke-opacity:1"
       inkscape:connector-curvature="0" />
    <path
       id="path821"
       d="m 190.71885,152.64725 c -1.58638,-4.50329 1.85116,-8.37506 4.95385,-5.57961 2.52147,2.27179 1.61414,7.68815 -1.44142,8.60471 -1.21712,0.36508 -2.79772,-0.9962 -3.51243,-3.0251 z"
       style="fill:#000000;stroke:#000000;stroke-width:2.79999995;stroke-miterlimit:4;stroke-dasharray:none;stroke-opacity:1"
       inkscape:connector-curvature="0" />
    <path
       id="path817"
       d="m 216.70743,147.33356 c 0.34947,-2.2138 2.17491,-4.25058 4.10708,-4.58252 2.69267,-0.4626 3.33595,0.30228 2.84894,3.38749 -0.34947,2.21382 -2.17491,4.25057 -4.10708,4.58251 -2.69267,0.46261 -3.33596,-0.30228 -2.84894,-3.38748 z"
       style="fill:#000000;stroke:#000000;stroke-width:2.79999995;stroke-miterlimit:4;stroke-dasharray:none;stroke-opacity:1"
       inkscape:connector-curvature="0" />
  </g>
</svg>
