<svg xmlns="http://www.w3.org/2000/svg" viewBox="0 0 400 400"><path stroke="#000" stroke-width="15.47" d="M153.71 357.85c-4.7-.86-15.17-3.28-23.27-5.38-13.73-3.56-14.86-4.2-16.99-9.8-6.34-16.72.02-62.74 11.03-79.78 13.73-21.26 18.82-35.65 20.12-56.91l.56-9.2-12.34-.8c-13.01-.82-15.54-1.59-11.93-3.6 2.52-1.4 11.93-13.52 11.93-15.37 0-.67-1.93-1.99-4.28-2.92-5.27-2.08-15.81-16.01-18.53-24.48-9.07-28.3.22-53.92 25.17-69.38 16.69-10.34 29.6-13.52 51.77-12.73 16.53.58 20.59 1.37 31.34 6.05 23.16 10.1 36.66 27.15 40.52 51.18 1.82 11.35 1.58 13.26-3.38 27-2.94 8.12-7.1 16.8-9.27 19.28-4.43 5.07-5 4.34 10.1 13.08 10.71 6.2 9.72 9-4.16 11.7-11.86 2.3-11.97 2.37-12.14 8.29-.39 13.72 6.03 32.07 15.99 45.75 15.68 21.54 20.4 37.8 18.3 63.03-.73 8.87-2.48 30.83-3.42 30.83-.98 0-.8-22.55-.1-33.1 1.06-16.11.69-20-3.04-31.23-2.54-7.7-8-17.98-13.6-25.67-11.59-15.92-16.81-30.52-16.81-47v-12.42l9.75-1.04c5.37-.57 10.15-1.4 10.64-1.84 1.71-1.54-1.75-4.53-9.22-7.97-9.73-4.47-10.5-6.67-4.92-14.07 2.5-3.34 6.52-11.54 8.9-18.24 8.17-22.88 1.85-46.66-16.9-63.55-14.47-13.04-27.37-17.54-50.48-17.64-20.8-.1-29.42 2.05-44.37 11.04-13.53 8.15-23.27 19.4-27.95 32.3-2.94 8.1-3.1 11.02-1.22 22.6 3.12 19.28 11.42 32.71 23.8 38.52l5.35 2.5-6.92 6.9c-3.8 3.8-6.39 7.37-5.74 7.96.65.58 5.2 1.47 10.12 1.98 8.94.93 8.94.93 9.52 8.02 1.43 17.65-7.54 45.2-19.64 60.3-2.55 3.18-5.53 8.57-6.6 11.98-4.25 13.33-7.87 40.94-7.09 53.97.74 12.2 1.33 13.91 5.9 17.2 6.3 4.52 32.8 10.93 50.49 12.22 28.86 2.1 79.03-4.86 94.74-13.15 5.85-3.1 6.27-3.12 5.7-.32-.8 3.9-25.64 11.49-45.87 14-17.58 2.18-59.44 2.13-71.56-.09z" transform="matrix(.83059 0 0 .8634 32.3 41.65)"/><path fill="gray" d="M173.6 349.97c-11.86-.95-30.95-5.37-38.03-8.78-3.89-1.88-5.31-3.02-6.32-5.08-4.13-8.4-.3-49.13 5.8-61.64a78.2 78.2 0 0 1 4.9-8.11c6.84-9.88 12.3-24.1 14.5-37.72 1.02-6.39.8-16.68-.4-18.05-.78-.9-2.58-1.33-8.98-2.17a63 63 0 0 1-4.34-.76l-2.11-.46.72-1.45c.4-.8 2.81-3.68 5.37-6.4l4.65-4.96-4.56-2.48a30.8 30.8 0 0 1-12.17-11.39c-6.9-11.1-10.2-29.82-6.99-39.51 4.62-13.9 14.28-24.56 29.58-32.62 7.89-4.16 13.43-5.52 24.84-6.08 7.1-.35 17.21.29 22.4 1.4 9.76 2.1 16.66 5.84 24.96 13.5 14.7 13.57 20.35 32.17 15.48 51.02-1.34 5.18-5.32 14.28-8.41 19.25-4.47 7.18-4.1 8.34 4.15 12.72 4.95 2.64 7.85 4.82 7.85 5.93 0 .37-.94.81-2.34 1.11a201.1 201.1 0 0 1-14.55 1.89c-.88 0-.4 17.77.61 22.7 1.97 9.58 5.26 17.04 12.36 28.06 5.94 9.22 10.05 17.32 12.14 23.97 2.58 8.21 2.7 9.76 2.17 29.63-.25 9.76-.37 18.93-.26 20.38l.2 2.64-3.05 1.6c-15 7.85-55.56 13.85-80.17 11.86z"/><path stroke="#000" stroke-width="2.8" d="M192.68 177c-2.5-2.25-.24-3.34 8.99-4.35 5.48-.6 12.32-1.56 15.2-2.15 6.4-1.3 7.18 2.18.94 4.28-5.32 1.79-23.8 3.42-25.13 2.22zm-1.96-24.35c-1.59-4.5 1.85-8.38 4.95-5.58 2.52 2.27 1.62 7.69-1.44 8.6-1.22.37-2.8-1-3.51-3.02zm25.99-5.32c.35-2.21 2.17-4.25 4.1-4.58 2.7-.46 3.34.3 2.85 3.39-.35 2.21-2.17 4.25-4.1 4.58-2.7.46-3.34-.3-2.85-3.39z" transform="matrix(.83059 0 0 .8634 27.32 41.65)"/></svg>