<?xml version="1.0" encoding="UTF-8" standalone="no"?>
<!-- Created with Inkscape (http://www.inkscape.org/) -->

<svg
   xmlns:dc="http://purl.org/dc/elements/1.1/"
   xmlns:cc="http://creativecommons.org/ns#"
   xmlns:rdf="http://www.w3.org/1999/02/22-rdf-syntax-ns#"
   xmlns:svg="http://www.w3.org/2000/svg"
   xmlns="http://www.w3.org/2000/svg"
   xmlns:sodipodi="http://sodipodi.sourceforge.net/DTD/sodipodi-0.dtd"
   xmlns:inkscape="http://www.inkscape.org/namespaces/inkscape"
   version="1.1"
   id="svg2"
   width="400"
   height="400"
   viewBox="0 0 400 400"
   sodipodi:docname="Bishop.svg"
   inkscape:version="0.92.3 (2405546, 2018-03-11)">
  <metadata
     id="metadata8">
    <rdf:RDF>
      <cc:Work
         rdf:about="">
        <dc:format>image/svg+xml</dc:format>
        <dc:type
           rdf:resource="http://purl.org/dc/dcmitype/StillImage" />
        <dc:title />
      </cc:Work>
    </rdf:RDF>
  </metadata>
  <defs
     id="defs6" />
  <sodipodi:namedview
     pagecolor="#ffffff"
     bordercolor="#666666"
     borderopacity="1"
     objecttolerance="10"
     gridtolerance="10"
     guidetolerance="10"
     inkscape:pageopacity="0"
     inkscape:pageshadow="2"
     inkscape:window-width="1494"
     inkscape:window-height="882"
     id="namedview4"
     showgrid="false"
     inkscape:zoom="1.0993789"
     inkscape:cx="143.12425"
     inkscape:cy="230.03036"
     inkscape:window-x="31"
     inkscape:window-y="203"
     inkscape:window-maximized="0"
     inkscape:current-layer="svg2"
     inkscape:pagecheckerboard="false" />
  <path
     style="fill:#ffffff;fill-opacity:1;stroke:#ffffff;stroke-width:0.68546057;stroke-opacity:1"
     d="m 187.90902,41.075501 c -3.58754,-3.239935 0.39535,-6.420768 8.03979,-6.420768 4.40668,0 7.68501,0.796763 10.65654,2.589956 5.1721,3.121145 1.17852,5.042459 -10.48109,5.042459 -6.12598,0 -7.01953,-0.131787 -8.21524,-1.211647 z"
     id="path830"
     inkscape:connector-curvature="0" />
  <path
     style="fill:#ffffff;fill-opacity:1;stroke:#ffffff;stroke-width:0;stroke-miterlimit:4;stroke-dasharray:none;stroke-opacity:1"
     d="m 280.19115,269.57443 c -2.04682,-4.04914 -7.62632,-16.64897 -8.32882,-18.80846 -0.48771,-1.49922 -1.06596,-8.98171 -1.28497,-16.62776 -0.37054,-12.93597 -0.30763,-13.73144 0.9055,-11.44863 5.35833,10.08317 12.60677,43.77472 10.0401,46.66748 -0.75021,0.84551 -0.99416,0.88534 -1.33181,0.21737 z"
     id="path824"
     inkscape:connector-curvature="0" />
  <path
     style="fill:#ffffff;fill-opacity:1;stroke:#ffffff;stroke-width:0.24234693;stroke-opacity:1"
     d="m 109.54879,262.39928 c -0.0222,-7.49589 0.90095,-14.85637 2.59699,-20.70594 2.05536,-7.08888 9.46367,-23.90764 11.71934,-26.60591 l 0.57039,-0.6823 0.0135,0.9235 c 0.0162,1.1147 -1.12068,6.31674 -2.72592,12.47246 -2.06845,7.93206 -3.28508,13.70774 -5.03458,23.9007 -0.56833,3.31124 -1.94664,7.77918 -3.05787,9.91247 -0.43776,0.84039 -1.53203,2.44501 -2.43173,3.56583 l -1.63581,2.03788 z"
     id="path828"
     inkscape:connector-curvature="0" />
  <path
     style="fill:#ffffff;fill-opacity:1;fill-rule:nonzero;stroke:#ffffff;stroke-width:0;stroke-miterlimit:4;stroke-dasharray:none;stroke-dashoffset:0;stroke-opacity:1"
     d="m 235.19482,365.45306 c -2.3444,-0.93899 -7.41593,-3.6526 -11.27011,-6.03022 l -7.00759,-4.32295 -7.09266,0.85108 c -8.9099,1.06913 -23.58018,1.08026 -31.4646,0.0239 -7.94077,-1.06395 -7.87485,-1.07034 -8.94097,0.86422 -0.93358,1.69404 -11.77139,9.23092 -13.2738,9.23092 -1.16215,0 -0.0889,-3.1204 2.4127,-7.01475 1.17361,-1.82703 2.13386,-3.67443 2.13386,-4.10534 0,-0.43091 -2.17281,-2.45975 -4.82846,-4.50852 -9.04761,-6.97992 -15.21099,-14.7846 -21.80491,-27.6114 -7.69863,-14.97577 -10.1444,-23.72496 -11.30601,-40.44458 -1.81083,-26.06439 2.35939,-52.45398 11.75952,-74.41542 4.31153,-10.073 17.04118,-28.01612 25.66622,-36.17789 6.69705,-6.33735 7.84027,-9.15718 7.7667,-19.15714 -0.0466,-6.33282 -0.59772,-10.14531 -2.44312,-16.90036 -3.19035,-11.67815 -3.98563,-27.49926 -1.84981,-36.799159 4.55967,-19.853889 17.59802,-40.793421 31.20421,-50.113825 l 4.43057,-3.034993 3.19788,2.177933 c 1.75884,1.197862 4.51603,3.401296 6.12708,4.896517 4.50768,4.183589 4.37567,4.938367 -4.38812,25.0893 -7.18313,16.516449 -11.88211,29.770247 -11.04435,31.151247 0.24599,0.4055 1.13338,0.73727 1.97199,0.73727 2.01277,0 5.76604,-4.59579 14.69257,-17.990698 8.01485,-12.026863 12.15757,-17.466834 14.06356,-18.467439 1.08627,-0.570271 1.5289,-0.472606 2.61301,0.576553 2.2334,2.161371 5.36022,7.014313 8.56887,13.299251 4.15201,8.132706 5.22197,15.056703 4.6486,30.082363 -0.48367,12.67467 -0.73641,13.6749 -6.23258,24.66515 -4.12771,8.25386 -4.42914,10.54755 -2.21799,16.87668 1.37476,3.93504 3.42091,7.226 8.64357,13.90192 8.16099,10.43184 15.89051,22.6844 18.58301,29.45705 4.31048,10.84249 7.04944,30.811 6.05786,44.16491 -1.67584,22.5688 -12.47001,62.30775 -24.72999,91.04383 -4.59163,10.76231 -4.83153,14.21567 -1.52375,21.93393 2.61204,6.0948 3.00863,7.77799 1.83267,7.77799 -0.38122,0 -2.61124,-0.76829 -4.95563,-1.70728 z M 188.67779,143.58258 c 1.69105,-1.02807 1.69046,-1.03924 -0.11417,-2.1808 -2.2615,-1.43053 -5.23658,-0.97825 -5.98578,0.90996 -1.20421,3.03502 2.07454,3.7181 6.09995,1.27084 z m 13.05449,0.31407 c 2.50447,-1.58422 2.38196,-2.23326 -0.69593,-3.68686 -1.79179,-0.84623 -2.5534,-0.92596 -4.03944,-0.42288 -2.21204,0.74885 -2.48132,3.3636 -0.47699,4.63146 1.84529,1.16727 2.67333,1.08439 5.21236,-0.52172 z"
     id="path822"
     inkscape:connector-curvature="0" />
  <path
     style="fill:#000000;stroke:#000000;stroke-width:2.58771896;stroke-miterlimit:4;stroke-dasharray:none;stroke-opacity:1"
     d="m 151.03759,368.13592 c -0.57172,-0.94244 0.21414,-4.12099 1.74636,-7.06343 2.71544,-5.21468 2.68139,-5.42131 -1.34757,-8.17526 -16.83262,-11.50583 -32.1812,-42.95288 -34.38421,-70.44839 l -1.12562,-14.04876 -4.04942,2.97595 c -2.22717,1.63676 -4.72079,2.5518 -5.54137,2.03344 -0.82057,-0.51839 -1.44033,-6.87547 -1.37723,-14.12686 0.0916,-10.53162 1.0899,-15.54849 4.96152,-24.93452 5.48644,-13.30089 12.28255,-24.69458 18.41568,-30.87388 2.29223,-2.30949 8.99341,-10.36186 14.89152,-17.89417 5.89811,-7.53229 12.29052,-14.95496 14.20533,-16.49479 4.36837,-3.51292 7.85755,-13.84908 6.75628,-20.0144 -0.46035,-2.57721 -2.20389,-10.53436 -3.87453,-17.68254 -6.50726,-27.8427 2.70157,-56.579105 25.31262,-78.9887 4.79823,-4.755498 5.62751,-6.303285 3.77516,-7.046116 -1.3056,-0.523568 -2.99669,-0.959728 -3.75799,-0.969246 -3.38425,-0.04231 -4.82996,-5.828033 -2.24607,-8.988744 5.98982,-7.326993 31.32286,-3.883298 31.32286,4.257931 0,0.597204 -1.92158,2.255717 -4.27016,3.685588 l -4.27019,2.599764 5.05567,4.017204 c 2.78061,2.209462 5.28457,5.288622 5.56439,6.842574 0.27979,1.553954 -1.9812,7.656751 -5.02448,13.561771 -4.8934,9.494926 -9.2285,21.728114 -7.19384,20.300228 0.40963,-0.287455 4.95552,-5.765053 10.102,-12.17244 5.1465,-6.407386 9.62602,-11.479793 9.95447,-11.272016 3.71643,2.350875 10.36232,10.191778 13.87095,16.365155 9.65427,16.986477 9.40083,41.354797 -0.62174,59.782047 -5.50434,10.1201 -4.742,13.17252 7.29504,29.20996 9.987,13.3061 13.56733,18.77286 23.35802,35.66507 4.16085,7.17883 3.46202,5.66071 10.66484,23.16802 4.72158,11.47635 5.61853,15.79998 5.83303,28.11715 0.2234,12.82852 -0.12341,14.70565 -2.92398,15.82206 -4.12072,1.64271 -5.57475,0.18791 -8.48636,-8.49089 -1.22323,-3.64626 -2.8818,-6.62955 -3.68563,-6.62955 -0.80384,0 -1.93992,1.90712 -2.5246,4.23805 -12.45274,49.64402 -24.78947,85.0436 -29.63767,85.0436 -2.37195,0 -2.0243,-1.93901 1.90669,-10.63414 9.36317,-20.71095 20.45446,-58.04099 24.14404,-81.26178 3.10504,-19.54194 0.39293,-45.15106 -6.21332,-58.66924 -4.40695,-9.01782 -17.37287,-28.00061 -20.74658,-30.37407 -1.4157,-0.99597 -3.7352,-5.31878 -5.15445,-9.60625 -2.55882,-7.72995 -2.53362,-7.88558 2.99972,-18.53181 5.14162,-9.89253 5.5883,-11.98001 5.68302,-26.55847 0.0774,-11.92904 -0.68913,-17.629549 -3.11578,-23.168026 -3.91291,-8.930661 -9.96707,-18.082362 -11.96209,-18.082362 -2.75732,0 -6.36573,4.430442 -16.96606,20.831139 -5.83432,9.026759 -11.61281,16.423849 -12.84112,16.437999 -1.22829,0.0142 -2.23327,-0.79509 -2.23327,-1.79833 0,-2.61571 8.27452,-23.867111 14.60079,-37.499097 2.96961,-6.399 4.94496,-12.779618 4.38966,-14.179151 -0.5553,-1.399532 -3.68022,-4.498849 -6.94428,-6.887372 -5.79897,-4.243501 -6.01106,-4.294417 -9.27855,-2.227522 -9.39437,5.942515 -20.45729,19.841104 -26.6741,33.51124 -8.9537,19.688292 -9.98056,35.154122 -3.77085,56.794572 4.36406,15.20854 2.60368,28.00182 -4.51262,32.79451 -4.39001,2.9566 -17.8784,20.3818 -23.75768,30.69177 -4.94471,8.67108 -10.58498,26.37202 -13.6212,42.7476 -2.76556,14.91582 -2.3711,44.89627 0.73783,56.07681 5.92635,21.31275 18.81943,42.45494 30.78386,50.47961 5.52071,3.7028 5.91373,4.38721 4.00655,6.97715 -3.39692,4.613 -5.13618,9.08745 -3.53236,9.08745 2.59712,0 14.3469,-8.06782 14.3469,-9.8511 0,-1.2612 1.06196,-1.50257 4.01989,-0.91366 7.71309,1.53567 23.74439,1.93339 33.31543,0.82653 l 9.64272,-1.11516 6.5729,4.24175 c 7.91109,5.10533 15.81091,8.51856 17.39573,7.51607 0.63636,-0.40252 -0.19273,-3.44038 -1.84239,-6.75075 -3.2886,-6.59935 -3.78854,-9.77576 -1.53859,-9.77576 2.31319,0 9.55129,15.15531 8.25703,17.28879 -0.64184,1.05805 -2.97532,1.92373 -5.18549,1.92373 -4.55242,0 -19.56818,-6.82078 -21.29982,-9.67527 -0.94271,-1.55397 -2.60411,-1.73988 -9.60572,-1.07495 -9.79601,0.93035 -26.15001,0.9471 -30.71075,0.0315 -2.17295,-0.43625 -5.81546,1.11555 -11.84053,5.04435 -8.80596,5.74214 -14.30234,7.08615 -16.19824,3.9609 z M 282.02408,259.37751 c -1.23164,-12.02954 -10.0514,-40.96785 -12.48611,-40.96785 -0.2201,0 -0.12128,7.24707 0.21938,16.10462 0.51443,13.37213 1.35442,17.47906 4.95069,24.20546 2.38214,4.45549 4.33117,8.90543 4.33117,9.88879 0,0.98337 0.92543,1.78792 2.0565,1.78792 1.48745,0 1.74433,-3.04903 0.92837,-11.01894 z m -164.89914,-9.24682 c 0.67317,-5.10594 2.81608,-15.17459 4.76202,-22.37477 1.94594,-7.20015 3.19679,-13.30709 2.77966,-13.57096 -1.23951,-0.78406 -10.22556,18.8057 -12.82457,27.9578 -1.32387,4.66186 -2.40304,12.29037 -2.39817,16.95221 l 0.009,8.47612 3.22414,-4.07843 c 1.80811,-2.28722 3.76167,-8.1557 4.44807,-13.36197 z M 208.02109,41.364831 c 5.25493,-2.046059 -3.39171,-7.169218 -12.09989,-7.169218 -8.66889,0 -12.89062,4.338017 -7.55293,7.760996 2.06752,1.325874 15.78882,0.912706 19.65282,-0.591778 z M 182.56176,143.32156 c 0,-2.30479 3.50149,-3.38952 5.94725,-1.84243 1.55913,0.98626 1.4121,1.56493 -0.60233,2.37055 -3.77005,1.50771 -5.34492,1.3521 -5.34492,-0.52812 z m 13.10634,-0.14268 c -1.62584,-2.68008 2.18469,-4.57027 5.59948,-2.77759 2.1161,1.11092 2.29479,1.82629 0.75025,3.00351 -2.67543,2.03918 -5.02638,1.95554 -6.34973,-0.22592 z"
     id="path838"
     inkscape:connector-curvature="0" />
  <path
     style="fill:none;stroke:#000000;stroke-width:1.06572425px;stroke-linecap:butt;stroke-linejoin:miter;stroke-opacity:1"
     d="m 237.58335,349.36644 c -0.31948,0.2441 -0.0486,0.60473 -0.15236,0.86738 -0.0174,0.044 -0.13493,0.0523 -0.15235,0.0964 -0.0401,0.10144 0,0.43991 0,0.57826 0,0.38549 0,0.77098 0,1.15648"
     id="path818"
     inkscape:connector-curvature="0" />
</svg>
