<svg xmlns="http://www.w3.org/2000/svg" width="400" height="400"><path d="M151.038 368.136c-.572-.943.214-4.121 1.746-7.064 2.715-5.214 2.681-5.42-1.348-8.175-16.832-11.506-32.18-42.953-34.384-70.448l-1.125-14.049-4.05 2.976c-2.227 1.637-4.72 2.552-5.541 2.033-.82-.518-1.44-6.875-1.377-14.126.091-10.532 1.09-15.549 4.961-24.935 5.486-13.3 12.283-24.694 18.416-30.874 2.292-2.31 8.993-10.362 14.891-17.894 5.898-7.532 12.29-14.955 14.206-16.495 4.368-3.513 7.857-13.849 6.756-20.014-.46-2.577-2.204-10.535-3.875-17.683-6.507-27.842 2.702-56.579 25.313-78.988 4.798-4.756 5.627-6.304 3.775-7.047-1.305-.523-2.997-.96-3.758-.969-3.384-.042-4.83-5.828-2.246-8.988 5.99-7.327 31.323-3.884 31.323 4.257 0 .598-1.922 2.256-4.27 3.686l-4.27 2.6 5.055 4.017c2.78 2.21 5.285 5.289 5.565 6.843.28 1.554-1.982 7.656-5.025 13.561-4.893 9.495-9.228 21.728-7.194 20.3.41-.287 4.956-5.764 10.102-12.172 5.147-6.407 9.626-11.48 9.955-11.272 3.716 2.351 10.362 10.192 13.87 16.365 9.655 16.987 9.402 41.355-.621 59.782-5.504 10.12-4.742 13.173 7.295 29.21 9.987 13.306 13.567 18.773 23.358 35.665 4.16 7.18 3.462 5.661 10.665 23.168 4.721 11.477 5.618 15.8 5.833 28.118.223 12.828-.123 14.705-2.924 15.822-4.12 1.642-5.575.187-8.486-8.491-1.224-3.647-2.882-6.63-3.686-6.63-.804 0-1.94 1.907-2.525 4.238-12.452 49.644-24.79 85.044-29.637 85.044-2.372 0-2.025-1.94 1.906-10.634 9.364-20.711 20.455-58.041 24.144-81.262 3.105-19.542.393-45.151-6.213-58.67-4.407-9.017-17.373-28-20.746-30.373-1.416-.996-3.736-5.32-5.155-9.607-2.559-7.73-2.534-7.885 3-18.532 5.141-9.892 5.588-11.98 5.683-26.558.077-11.929-.69-17.63-3.116-23.168-3.913-8.93-9.967-18.082-11.962-18.082-2.757 0-6.366 4.43-16.966 20.83-5.834 9.028-11.613 16.425-12.841 16.439-1.229.014-2.234-.795-2.234-1.799 0-2.615 8.275-23.867 14.601-37.499 2.97-6.399 4.945-12.78 4.39-14.179-.555-1.4-3.68-4.499-6.944-6.887-5.8-4.244-6.011-4.295-9.279-2.228-9.394 5.943-20.457 19.841-26.674 33.512-8.954 19.688-9.98 35.154-3.77 56.794 4.363 15.209 2.603 28.002-4.513 32.795-4.39 2.956-17.879 20.381-23.758 30.691-4.945 8.671-10.585 26.372-13.621 42.748-2.766 14.916-2.371 44.896.737 56.077 5.927 21.313 18.82 42.455 30.784 50.48 5.521 3.702 5.914 4.387 4.007 6.977-3.397 4.613-5.136 9.087-3.532 9.087 2.597 0 14.346-8.068 14.346-9.851 0-1.261 1.062-1.503 4.02-.914 7.713 1.536 23.745 1.934 33.316.827l9.642-1.115 6.573 4.241c7.911 5.106 15.811 8.519 17.396 7.516.636-.402-.193-3.44-1.842-6.75-3.289-6.6-3.789-9.776-1.539-9.776 2.313 0 9.551 15.155 8.257 17.289-.642 1.058-2.975 1.923-5.185 1.923-4.553 0-19.569-6.82-21.3-9.675-.943-1.554-2.604-1.74-9.606-1.075-9.796.93-26.15.947-30.71.032-2.174-.437-5.816 1.115-11.841 5.044-8.806 5.742-14.303 7.086-16.198 3.961z" stroke="#000" stroke-width="10"/><path d="M282.024 259.378c-1.232-12.03-10.051-40.968-12.486-40.968-.22 0-.121 7.247.22 16.104.514 13.372 1.354 17.48 4.95 24.206 2.382 4.455 4.331 8.905 4.331 9.889 0 .983.926 1.787 2.057 1.787 1.487 0 1.744-3.049.928-11.018zM117.125 250.13c.673-5.105 2.816-15.174 4.762-22.374 1.946-7.2 3.197-13.307 2.78-13.571-1.24-.784-10.226 18.806-12.825 27.958-1.324 4.662-2.403 12.29-2.398 16.952l.009 8.476 3.224-4.078c1.808-2.288 3.762-8.156 4.448-13.362zM208.021 41.365c5.255-2.046-3.392-7.17-12.1-7.17-8.669 0-12.89 4.339-7.553 7.762 2.068 1.325 15.79.912 19.653-.592z" stroke="#000" stroke-width="1.5"/><g stroke="#000" stroke-width="1.5"><path d="M182.562 143.322c0-2.305 3.501-3.39 5.947-1.843 1.56.986 1.412 1.565-.602 2.37-3.77 1.508-5.345 1.353-5.345-.527zM195.668 143.179c-1.626-2.68 2.185-4.57 5.6-2.778 2.116 1.111 2.294 1.827.75 3.004-2.676 2.039-5.027 1.955-6.35-.226z"/></g><path d="M237.583 349.366c-.32.245-.048.605-.152.868-.017.044-.135.052-.152.096-.04.102 0 .44 0 .578v1.157" fill="none" stroke="#000" stroke-width="1.066"/><path d="M280.191 269.574c-2.047-4.049-7.626-16.649-8.329-18.808-.487-1.5-1.066-8.982-1.285-16.628-.37-12.936-.307-13.731.906-11.448 5.358 10.083 12.607 43.774 10.04 46.667-.75.846-.994.885-1.332.217z" fill="#fff"/><path d="M109.549 262.4c-.022-7.497.9-14.857 2.597-20.707 2.055-7.089 9.463-23.907 11.72-26.606l.57-.682.013.924c.016 1.114-1.12 6.316-2.726 12.472-2.068 7.932-3.285 13.708-5.034 23.9-.569 3.312-1.947 7.78-3.058 9.913-.438.84-1.532 2.445-2.432 3.566l-1.636 2.038z" fill="#fff" stroke="#fff" stroke-width=".242"/><path d="M187.909 41.076c-3.588-3.24.395-6.421 8.04-6.421 4.406 0 7.685.796 10.656 2.59 5.172 3.12 1.179 5.042-10.48 5.042-6.127 0-7.02-.132-8.216-1.211z" fill="#fff" stroke="#fff" stroke-width=".685"/><path d="M235.195 365.453c-2.345-.939-7.416-3.653-11.27-6.03l-7.008-4.323-7.093.851c-8.91 1.07-23.58 1.08-31.464.024-7.94-1.064-7.875-1.07-8.941.864-.934 1.694-11.771 9.231-13.274 9.231-1.162 0-.089-3.12 2.413-7.015 1.173-1.827 2.134-3.674 2.134-4.105 0-.431-2.173-2.46-4.829-4.509-9.047-6.98-15.21-14.784-21.805-27.611-7.698-14.976-10.144-23.725-11.306-40.445-1.81-26.064 2.36-52.454 11.76-74.415 4.311-10.073 17.041-28.016 25.666-36.178 6.697-6.337 7.84-9.157 7.767-19.157-.047-6.333-.598-10.145-2.443-16.9-3.19-11.679-3.986-27.5-1.85-36.8 4.56-19.853 17.598-40.793 31.204-50.113l4.43-3.035 3.198 2.178c1.76 1.197 4.516 3.4 6.128 4.896 4.507 4.184 4.375 4.938-4.389 25.09-7.183 16.516-11.882 29.77-11.044 31.15.246.406 1.133.738 1.972.738 2.013 0 5.766-4.596 14.693-17.99C217.858 79.82 222 74.38 223.907 73.38c1.086-.57 1.53-.473 2.613.576 2.234 2.162 5.36 7.015 8.57 13.3 4.151 8.132 5.221 15.056 4.648 30.082-.484 12.675-.737 13.675-6.233 24.665-4.128 8.254-4.43 10.548-2.218 16.877 1.375 3.935 3.421 7.226 8.644 13.902 8.16 10.432 15.89 22.684 18.583 29.457 4.31 10.842 7.05 30.81 6.058 44.165-1.676 22.568-12.47 62.307-24.73 91.043-4.592 10.763-4.832 14.216-1.524 21.934 2.612 6.095 3.008 7.778 1.832 7.778-.38 0-2.61-.768-4.955-1.707zm-46.517-221.87c1.69-1.028 1.69-1.04-.114-2.181-2.262-1.43-5.237-.978-5.986.91-1.204 3.035 2.074 3.718 6.1 1.27zm13.054.314c2.505-1.585 2.382-2.234-.696-3.687-1.791-.846-2.553-.926-4.04-.423-2.211.749-2.48 3.364-.476 4.631 1.845 1.168 2.673 1.085 5.212-.521z" fill="#fff"/></svg>