<svg xmlns="http://www.w3.org/2000/svg" width="400" height="400"><g stroke="#000" stroke-width="12.054"><path d="M109.432 345.505c-4.812-.45-6.54-.7-7.863-1.134-.81-.266-1.637-.484-1.838-.484-.992 0-4.111-1.028-5.562-1.833-.194-.108-.453-.196-.576-.196-.216 0-3.684-1.58-4.58-2.086-.6-.338-3.317-2.94-3.317-3.174 0-.104-.548-.666-1.217-1.248-1.151-1.001-2.232-2.7-2.232-3.51 0-.167-.084-.357-.187-.42-.103-.064-.246-.381-.317-.705-.071-.325-.263-.641-.427-.704-.19-.073-.294-.39-.29-.879.004-.42-.04-1.678-.098-2.794-.136-2.67.49-13.643.828-14.505.491-1.255.645-4.994.943-22.926.015-.948-.086-2.903-.226-4.344-.398-4.097-.2-10.206.469-14.523.693-4.467.847-5.652 1.232-9.489.172-1.704.458-3.758.636-4.564.472-2.129.66-3.123.88-4.654.107-.749.6-2.712 1.095-4.362a183.88 183.88 0 001.22-4.218 418.71 418.71 0 012.15-7.71 788.38 788.38 0 001.708-6.086l1.57-5.678c.34-1.227.876-2.78 1.19-3.453.315-.673.766-1.815 1.003-2.538.237-.723.516-1.497.62-1.72.104-.224.565-1.365 1.024-2.536a93.276 93.276 0 011.11-2.74c.354-.78 1.152-3.103 1.947-5.668.344-1.11.845-2.496 1.112-3.08.732-1.6 1.704-4.185 1.705-4.535.001-.17.14-.574.309-.898.316-.606 1.014-3.328 1.175-4.584.286-2.226.87-4.655 1.85-7.71 1.16-3.61 1.705-5.505 1.84-6.39.175-1.136.876-3.48 1.365-4.565l.911-2.007c.275-.602.625-1.45.778-1.884.154-.434.419-.99.59-1.233.17-.244.311-.629.312-.855 0-.226.128-.655.283-.952.155-.297.477-1.062.716-1.7.239-.638.568-1.351.731-1.584.164-.234.297-.613.297-.844 0-.416.216-.883 1.31-2.838.313-.558.708-1.288.879-1.623.17-.335.47-.84.665-1.122.196-.282.575-.92.843-1.42.268-.499.593-1.09.722-1.313.13-.223.697-1.364 1.263-2.536.565-1.171 1.432-2.678 1.926-3.347.494-.67 1.15-1.72 1.46-2.333.67-1.338 3.09-4.89 4.004-5.884.36-.39 1.163-1.399 1.785-2.24.623-.843 1.277-1.653 1.455-1.8.178-.149.324-.374.324-.502s.343-.661.761-1.185c.731-.915 1.756-2.31 2.18-2.971.987-1.532 2.225-2.935 5.513-6.252 2.101-2.118 4.231-4.131 4.733-4.473 1.63-1.109 2.693-2.569 2.91-4 .082-.54.03-.904-.156-1.115-.356-.403-.928-2.654-.928-3.652 0-.424-.136-1.157-.303-1.63-.193-.546-.376-2.31-.503-4.843-.22-4.398-.264-4.842-.846-8.65-.857-5.608-1.01-6.506-1.178-6.898-.095-.224-.284-1.09-.42-1.928a31.18 31.18 0 00-.644-2.91c-.543-1.908-.492-7.192.084-8.75.551-1.488 1.104-1.903 2.537-1.905 1.748 0 2.804.3 4.096 1.178 1.915 1.3 2.56 2.192 3.675 5.084.237.613.591 1.298.788 1.521.197.223.48.726.63 1.116.15.39.617 1.223 1.037 1.85.42.627.823 1.376.896 1.665.072.29.26.632.416.762.157.13.285.444.285.698 0 .254.331.95.736 1.547.405.597 1.183 1.968 1.729 3.045.545 1.078 1.407 2.465 1.916 3.083a8.849 8.849 0 011.395 2.469c.258.74.517 1.269.574 1.176.057-.092.11-1.218.12-2.5.008-1.283.16-3.337.339-4.564.178-1.227.408-2.825.511-3.55.103-.726.278-2.734.39-4.464.346-5.35.992-9.928 1.718-12.172.614-1.9 1.324-5.02 1.324-5.818 0-.987.612-2.569 1.187-3.067 1.242-1.077 1.5-1.26 1.778-1.26.162 0 .355.16.43.355.075.195.339.558.586.805.248.248.516.656.595.906.08.25.348.616.597.811.25.196.567.633.708.972.14.338.335.615.433.615.098 0 .178.167.178.37 0 .4 1.416 3.102 2.28 4.353.557.806.817 1.673 1.272 4.243.152.86.374 1.743.493 1.965.118.222.216.556.216.742 0 .187.467 1.448 1.037 2.803.571 1.356 1.153 2.875 1.292 3.377.262.938.638 2.028 1.434 4.16.25.669.565 1.627.7 2.13.134.502.367 1.278.516 1.724.15.446.382 1.405.517 2.13.135.725.405 1.548.6 1.828.195.28.42 1.03.499 1.668.109.872.238 1.187.522 1.277.308.098.335.188.15.486-.179.284-.155.471.106.844.185.264.336.71.337.992 0 .282.138.775.304 1.094.167.32.303.678.303.796s.152.381.337.586c.185.204.391.711.459 1.127.173 1.067.742 1.32 2.607 1.16.832-.071 1.893-.031 2.434.092 2.6.593 5.455 1.317 5.727 1.452.168.083.898.247 1.623.364l2.638.422c1.39.222 5.246.193 9.609-.073 2.09-.127 2.832-.257 3.728-.654 1.047-.463 1.422-.502 5.843-.619 4.764-.125 6.287-.013 9.02.663 1.788.443 4.437.867 6.177.99.887.063 2.12.242 2.739.398a60.7 60.7 0 002.14.493c.558.114 1.79.474 2.74.8.948.324 2.363.699 3.144.831.78.133 2.652.463 4.159.735 1.506.271 3.515.594 4.463.717 2.331.303 4.887.804 5.352 1.05.21.111.848.272 1.42.357 1.089.162 3.667.636 6.167 1.133.812.161 1.857.293 2.321.293.89 0 2.124.197 5.13.818 1.003.207 2.601.48 3.55.604l3.956.522c3.237.427 4.281.614 5.984 1.07.837.225 1.75.469 2.03.542 1.166.307 3.187.963 3.765 1.221.342.153 1.027.34 1.522.416.495.076 1.053.297 1.24.49.186.194.688.417 1.115.496.427.079 1.416.45 2.197.826.78.376 1.865.828 2.409 1.004.544.177 1.18.456 1.414.62.234.164.597.298.806.298.208 0 .426.177.482.394.06.231.35.448.701.525.82.18 2.1 1.049 2.416 1.64.162.302.566.57 1.063.703.75.202 1.631.97 3.84 3.345.303.327.789.823 1.078 1.102.29.279.589.573.665.654.076.081.64.581 1.254 1.111 2.41 2.083 4.637 4.427 4.779 5.031.126.542 1.005 1.898 1.775 2.74.355.387.528.866.767 2.122.106.554.367 1.376.581 1.826 1 2.102 1.197 3.036 1.035 4.915-.084.983-.303 2.14-.487 2.573-.184.432-.335 1.043-.335 1.357 0 .315-.09.629-.202.698-.112.068-.203.442-.203.83 0 .388-.136.912-.302 1.166-.166.253-.48.98-.7 1.618-.219.636-.531 1.408-.694 1.713-.493.925-.941 2.021-.945 2.311-.002.15-.288.593-.635.984-.348.39-.886 1.27-1.195 1.954-.31.684-.66 1.304-.78 1.378-.119.074-.357.427-.53.785-.327.68-.427.801-3.553 4.327-1.94 2.189-8.024 8.394-8.877 9.054-.252.195-.526.355-.608.355-.083 0-.41.224-.727.497-.318.273-1.161.843-1.875 1.267-.714.425-1.35.93-1.413 1.123-.108.327-1.688 1.17-2.197 1.17-.125.001-.539.267-.92.593-.38.325-.927.71-1.216.857-.29.147-.813.478-1.165.736-.351.258-1.25.644-1.997.857-.747.214-1.51.56-1.694.771-.439.5-1.05.815-2.301 1.187-.562.167-1.49.556-2.064.865-.574.31-1.682.773-2.463 1.03-.781.256-1.968.715-2.638 1.02-1.845.838-2.9 1.214-3.414 1.214-.255 0-.641.134-.858.298a1.833 1.833 0 01-.9.311c-.744.02-2.863.66-3.45 1.043-.279.182-1.01.49-1.623.684-.613.195-1.558.668-2.1 1.052-.54.383-1.91 1.006-3.042 1.384-3.538 1.18-4.298 1.46-5.162 1.901-.46.235-1.15.428-1.531.428s-.802.13-.935.29c-.133.161-.53.355-.88.432-.352.078-.78.21-.95.293-.542.265-1.746.608-2.136.608-.206 0-.528.138-.714.307-.187.169-.853.44-1.48.604-.627.163-1.531.475-2.01.693-.478.217-1.919.639-3.202.937-1.283.298-2.653.635-3.043.75-1.129.33-3.096.549-6.695.744-4.757.259-6.634.84-7.634 2.366-.295.451-.291.576.053 1.559.206.587.626 1.424.935 1.859.308.435.56.866.56.957 0 .092.235.681.522 1.31.477 1.043.723 1.976 1.036 3.94.062.391.184.802.27.914.34.437 1.418 4.02 1.418 4.71 0 .714.528 3.187 1.55 7.253.28 1.113.56 2.665.623 3.45.062.784.191 1.577.286 1.762.095.185.225.773.289 1.307.064.534.174 1.064.245 1.179.07.114.196.895.278 1.736.176 1.81.867 4.66 1.772 7.31.832 2.438.925 2.779 1.055 3.854.163 1.349.948 6.603 1.197 8.014.174.983.868 5.23 1.26 7.71.107.669.274 2.951.373 5.071.099 2.12.283 4.357.41 4.97.223 1.084.308 2.077.783 9.13.243 3.618.277 3.9.629 5.275.128.502.271 1.352.317 1.89.046.537.233 1.29.416 1.675.182.384.326 1.081.32 1.549-.01.62.094.924.381 1.125.247.173.394.513.394.91 0 .998.738 2.274 1.992 3.442.634.59 1.335 1.461 1.558 1.934.223.473.456.861.517.863.062 0 .072.34.024.753-.095.817-.431 1.278-.932 1.278-.184 0-.319.172-.319.407 0 .285-.24.503-.796.726-.437.175-.845.447-.905.603-.06.16-.248.232-.422.166-.172-.066-.7.06-1.174.28-.474.22-1.227.511-1.673.648-.447.136-1.1.377-1.451.535-.352.157-.719.286-.815.286-.097 0-.5.221-.898.49-.397.27-1.354.704-2.126.964-.773.26-1.478.588-1.567.727a.635.635 0 01-.483.254c-.358 0-2.627 1.065-3.717 1.745-.39.244-1.462.688-2.382.988-.92.3-1.723.629-1.787.732-.063.103-.34.187-.615.187-.274 0-1.022.288-1.661.641-2.182 1.204-2.989 1.578-3.699 1.714-.39.076-1.01.398-1.376.717-.367.319-.753.58-.858.58-.105 0-.861.313-1.68.696-.818.383-1.756.758-2.083.833-1.15.264-3.038.986-3.787 1.45-1.31.811-4.238 2.113-6.345 2.821-2.724.915-4.002 1.367-5.615 1.984-1.283.491-3.358 1.032-5.847 1.523l-2.029.402c-.502.1-1.643.373-2.536.608-.893.234-3.46.699-5.704 1.031-2.244.333-4.938.801-5.985 1.04-1.047.24-2.269.505-2.715.59-1.175.225-2.52.562-5.275 1.324-1.339.37-2.89.772-3.449.892-.558.12-1.836.448-2.84.73-2.741.767-4.019 1.038-6.695 1.421-1.339.191-2.708.43-3.043.528-1.021.302-6.636 1.155-7.62 1.157-.826 0-3.255.338-6.176.855-.558.1-1.927.241-3.043.316-1.116.075-3.411.34-5.101.591-2.778.412-3.147.516-3.855 1.078-1.138.905-3.538 1.447-7.477 1.687-4.146.253-13.74.36-15.723.174z" stroke-width="9.99975732"/><path d="M117.66 339.815c.775-.13 2.824-.268 4.553-.306 1.73-.039 4.012-.165 5.072-.282 1.06-.117 3.662-.292 5.782-.389 2.12-.097 4.585-.278 5.478-.401 2.889-.4 4.86-.647 5.275-.66.491-.018 4.197-.534 5.883-.821 2.301-.392 3.454-.552 5.58-.774 1.171-.123 2.45-.305 2.84-.405.39-.1 1.805-.337 3.144-.526 1.34-.188 3.667-.662 5.174-1.052 1.506-.39 3.5-.883 4.43-1.095.93-.212 2.006-.516 2.39-.676.693-.29 1.744-.553 4.845-1.213.893-.19 2.262-.514 3.043-.721.781-.207 1.74-.437 2.13-.51.39-.074 1.76-.433 3.043-.798 3.123-.888 4.744-1.248 7.405-1.642 2.058-.305 3.745-.756 5.275-1.411 1.104-.472 4.302-1.52 4.64-1.52.183 0 .766-.216 1.295-.482a4646 4646 0 012.383-1.194c.781-.39 2.379-1.048 3.55-1.46 2.501-.878 3.455-1.35 4.578-2.265.502-.409 1.536-.905 2.638-1.266 2.596-.851 3.53-1.241 4.45-1.858 1.189-.797 1.962-1.118 4.636-1.923 1.322-.397 2.848-.948 3.391-1.223.543-.276 1.15-.502 1.35-.504.198 0 .726-.226 1.172-.497.447-.272 1.36-.776 2.03-1.122 1.87-.966 2.476-1.322 3.72-2.185.768-.534 1.854-1.012 3.278-1.443 1.172-.354 2.65-.883 3.285-1.176l1.154-.531-.494-.648c-.528-.692-.985-2.564-.782-3.204.125-.393-.52-2.986-.743-2.986-.067 0-.134-.305-.148-.678a4.349 4.349 0 00-.273-1.268c-.475-1.132-.809-3.043-.988-5.662-.1-1.45-.238-3.094-.308-3.652-.07-.558-.041-1.39.065-1.85.226-.985-.197-4.534-1.074-9.004-.541-2.757-.684-4.313-.784-8.52-.09-3.82-.14-4.278-.62-5.604-.286-.795-.521-1.78-.521-2.19 0-.41-.13-1.403-.29-2.207a34.689 34.689 0 01-.427-2.934c-.075-.81-.218-1.522-.318-1.584-.1-.062-.182-.361-.182-.665 0-.304-.144-1.052-.319-1.662-.3-1.046-.512-2.001-.809-3.645-.07-.39-.354-1.289-.63-1.996-.542-1.39-.818-2.717-1.252-6.018-.477-3.63-.871-5.853-1.126-6.353-.258-.505-.732-2.026-1.656-5.312-.707-2.514-3.389-9.438-3.968-10.246-1.271-1.773-1.47-6.584-.369-8.926.476-1.013 3.465-4.16 3.95-4.16.13 0 .482-.227.783-.506.301-.28.738-.508.971-.508.233 0 .53-.146.662-.325.184-.252.569-.32 1.696-.298.802.015 1.572.025 1.712.023 1.607-.023 8.541-.81 8.721-.99.13-.13.577-.236.995-.236.417 0 .815-.09.884-.202.069-.112.315-.203.546-.203.231 0 .705-.172 1.053-.381.348-.21 1.272-.49 2.053-.622.78-.132 1.694-.336 2.028-.453.335-.117 1.02-.33 1.522-.472.502-.143 1.187-.398 1.522-.568 1.237-.626 2.667-1.18 3.753-1.454 1.28-.323 3.21-.984 3.774-1.292.212-.116.796-.387 1.298-.603 1.178-.507 2.253-1.005 2.637-1.223.858-.487 1.248-.642 1.618-.642.223 0 1.16-.311 2.082-.692.922-.381 2.361-.834 3.198-1.006.868-.18 2.202-.666 3.107-1.135 1.235-.64 1.786-.813 2.495-.786.763.029 1.094-.096 2.066-.78.636-.448 1.5-.938 1.918-1.089.418-.15.76-.34.76-.422 0-.082.206-.211.457-.288.251-.076.593-.25.76-.387.168-.136.853-.459 1.522-.717.67-.259 1.304-.547 1.41-.641a.79.79 0 01.453-.172c.143 0 .779-.342 1.413-.76 1.51-.997 2.896-1.823 3.497-2.083a6.891 6.891 0 001.02-.592c.295-.21.968-.62 1.495-.908.993-.545 1.895-1.05 3.798-2.127.614-.347 1.64-.881 2.282-1.187.642-.306 1.167-.623 1.167-.706 0-.317 1.769-2.153 6.974-7.239 2.87-2.803 3.27-3.28 3.894-4.63.383-.828.696-1.558.696-1.622 0-.064.32-.506.71-.983.39-.476.71-.968.71-1.092 0-.124.137-.278.304-.343.168-.064.305-.328.305-.587 0-.26.13-.602.289-.76.53-.531 1.13-1.662 1.13-2.134 0-.257.135-.726.3-1.044.398-.771.914-3.03 1.092-4.779.119-1.173.078-1.557-.235-2.206-.208-.432-.428-1.092-.489-1.467-.06-.375-.236-.786-.389-.913-.153-.127-.278-.348-.278-.492 0-.257-1.026-2.706-1.42-3.39-.112-.193-.203-.495-.203-.67 0-.5-3.747-4.231-5.32-5.296-.872-.59-1.972-1.616-2.841-2.648-.78-.926-1.522-1.686-1.65-1.69-.127 0-.495-.273-.817-.601-.321-.328-.887-.696-1.257-.818-1.096-.362-3.197-1.423-3.655-1.845-.484-.448-3.928-1.472-8.095-2.408a559.79 559.79 0 01-8.623-2.004c-1.394-.332-2.992-.655-3.55-.718a61.635 61.635 0 01-2.333-.324c-.725-.115-1.958-.296-2.739-.4a479.75 479.75 0 01-4.26-.608c-1.562-.229-3.48-.5-4.26-.602-4.468-.586-7.252-1.064-8.408-1.444-.747-.246-1.548-.382-1.869-.317-.333.066-.67.006-.828-.153-.53-.53-1.166-.736-2.323-.75-2.04-.026-3.234-.284-4.102-.885-.592-.41-.979-.54-1.382-.463-.308.06-.712.026-.896-.072-.185-.1-.825-.191-1.422-.205-1.165-.027-2.319-.322-2.812-.719-.167-.135-.67-.31-1.115-.39-.447-.08-1.085-.285-1.419-.454-.333-.17-1.043-.292-1.578-.273-.534.018-1.164-.07-1.4-.195-.534-.286-5.434-1.36-7.472-1.637a53.518 53.518 0 00-3.246-.313c-2.434-.148-28.182-.03-28.791.133-.277.074-.828.067-1.224-.015s-1.633-.328-2.75-.546c-1.115-.218-2.53-.556-3.144-.75-.804-.254-1.937-.366-4.057-.401-2.627-.043-3.002-.007-3.5.344-.48.336-.576.349-.677.085-.065-.168-.372-.362-.684-.43-.909-.2-1.368-.883-1.709-2.538-.172-.837-.737-2.526-1.257-3.753-.52-1.228-1.062-2.643-1.205-3.145a18.45 18.45 0 00-.51-1.521c-.136-.335-.368-1.111-.516-1.725a50.066 50.066 0 00-.605-2.232 32.152 32.152 0 01-.589-2.354c-.138-.68-.325-1.357-.415-1.503-.09-.145-.28-.775-.423-1.399-.493-2.152-.664-2.718-1.257-4.155-.328-.794-.76-1.99-.961-2.66-.202-.67-.656-1.856-1.01-2.637a28.076 28.076 0 01-1.1-2.942c-.25-.837-.576-1.887-.723-2.333a11.319 11.319 0 01-.388-1.796c-.141-1.163-.652-2.746-1.024-3.174-.145-.168-.4-.57-.565-.893l-.3-.589-.435 1.432c-.24.787-.435 1.667-.435 1.955 0 .288-.087.913-.194 1.388-.304 1.355-.826 6.203-.825 7.662.002 1.274-.369 4.577-.818 7.303-.12.726-.304 2.962-.41 4.971-.107 2.008-.248 4.095-.315 4.638-.076.63-.027 1.16.138 1.468.21.392.207.811-.013 2.23-.2 1.287-.213 1.842-.049 2.106.186.298.078.5-.651 1.216-.608.597-.911 1.086-.995 1.606-.172 1.08-1.313 2.14-2.273 2.113-.81-.023-1.116-.206-.736-.44.19-.118.159-.242-.127-.5-.208-.19-.537-.913-.73-1.608l-.685-2.482c-.184-.67-.542-1.65-.796-2.18-.254-.53-.462-1.014-.462-1.077 0-.106-.15-.448-1.328-3.032a69.579 69.579 0 01-1.074-2.555c-.336-.847-.883-1.942-1.214-2.434a13.03 13.03 0 01-.956-1.706l-.573-1.32c-.12-.278-.467-.88-.771-1.337-.304-.457-.616-1.097-.693-1.42-.158-.659-.664-1.658-1.05-2.071-.139-.15-.253-.413-.253-.586 0-.172-.251-.61-.558-.97-1.118-1.317-1.261-1.531-1.398-2.082-.076-.309-.306-.68-.511-.826-.206-.146-.373-.397-.373-.558 0-.161-.123-.293-.273-.293-.15 0-.657-.456-1.128-1.014-.47-.558-.974-1.015-1.119-1.015-.386 0-.38 2.288.01 3.652.837 2.923 1.155 4.263 1.302 5.478.087.725.396 2.825.687 4.666.765 4.842.912 6.173 1.127 10.245.107 2.009.288 3.971.404 4.362.116.39.296 1.44.4 2.333.103.893.338 1.923.523 2.29s.28.812.212.99a.667.667 0 00.106.598c.126.153.277.867.335 1.587.093 1.164.05 1.378-.379 1.916-.265.332-.711.944-.99 1.358-.675 1.004-2.647 3.13-2.902 3.13-.439 0-1.748 1.736-1.875 2.487-.095.566-.322.908-.871 1.313-.884.652-1.833 1.608-3.076 3.099-1.29 1.548-1.582 1.824-1.927 1.824-.168 0-.304.097-.304.216s-.503.726-1.116 1.35c-.614.624-1.116 1.198-1.116 1.276 0 .078-.228.388-.507.69-.28.3-.508.58-.508.62 0 .039-.48.573-1.069 1.185-.588.612-1.279 1.533-1.536 2.047-.256.514-.574.934-.705.934-.323 0-2.216 2.21-3.365 3.93a49.454 49.454 0 00-2.837 4.895c-.222.446-.729 1.126-1.126 1.51-.398.385-.723.783-.723.884 0 .327-2.718 5.69-3.398 6.705-.362.541-.66 1.072-.66 1.18 0 .108-.227.496-.506.861-.28.366-.508.73-.508.811 0 .08-.22.62-.488 1.198l-1.117 2.412a32.826 32.826 0 00-1.172 3.043c-.3.926-.693 1.912-.876 2.19-.182.28-.499.965-.703 1.522a40.85 40.85 0 01-1.064 2.504c-.66 1.419-1.477 4.147-1.477 4.925 0 .201-.554 2.126-1.23 4.279-.677 2.153-1.41 4.69-1.628 5.638l-.596 2.59c-.109.476-.198 1.147-.198 1.49 0 1.024-1.914 7.137-2.947 9.41-.787 1.734-1.11 2.576-1.11 2.887 0 .165-.122.587-.27.939a32.37 32.37 0 00-.585 1.552c-1.15 3.305-2.168 6-2.802 7.405-.302.67-.795 1.948-1.096 2.84-.301.893-.667 1.897-.814 2.232-.88 2.01-2.143 5.717-2.143 6.287 0 .191-.22 1.092-.49 2.001-1.18 3.977-1.95 6.745-1.948 6.998.002.15-.124.562-.28.913-.155.352-.534 1.598-.84 2.77-.307 1.171-.762 2.86-1.012 3.753-.25.893-.704 2.536-1.008 3.652-.304 1.116-.725 2.53-.935 3.144-.211.614-.484 1.755-.606 2.536l-.379 2.435a33.614 33.614 0 01-.485 2.352c-.181.736-.467 2.699-.636 4.362-.399 3.926-.924 7.898-1.636 12.381-.359 2.257-.383 7.98-.047 11.235.26 2.525.26 3.437-.014 16.534-.11 5.219-.277 9.132-.418 9.738-.13.558-.326 1.928-.436 3.044a96.762 96.762 0 01-.376 3.246c-.202 1.41-.118 7.297.131 9.23.094.726.28 1.518.415 1.76.135.243.343.895.462 1.45.274 1.279.326 1.325 5.01 4.437 3.377 2.243 3.94 2.569 4.829 2.795.465.118.982.327 1.148.465.166.139.884.312 1.594.387.79.082 1.44.272 1.67.487.209.194.714.4 1.123.456 2.295.318 4.466.721 4.966.923.314.127 1.684.237 3.043.245 1.36.007 2.634.078 2.832.156.636.252 3.881.263 5.333.018z" stroke-width="9.99975732"/></g><path d="M109.603 339.31c-2.452-.127-7.43-1.008-9.43-1.669-.768-.254-2.281-.74-3.363-1.08-1.096-.345-3.718-1.79-5.925-3.267-3.673-2.458-4.005-2.774-4.613-4.395-1.003-2.671-1.179-9.673-.382-15.191.536-3.707.64-7.077.69-22.35.048-14.334.17-18.695.605-21.478.3-1.92.72-5.064.934-6.984.861-7.716 2.342-14.072 7.121-30.558a243.514 243.514 0 001.581-5.762c.397-1.537 1.6-5.073 2.675-7.858a588.361 588.361 0 003.536-9.429c.87-2.4 2.179-5.937 2.909-7.857 1.505-3.961 2.494-7.345 3.113-10.652.234-1.248 1.102-4.627 1.93-7.508.827-2.881 1.621-5.789 1.764-6.46.143-.673.877-2.637 1.632-4.366.755-1.729 1.778-4.243 2.274-5.588 1.067-2.894 2.477-5.813 4.92-10.184.983-1.76 2.03-3.78 2.327-4.489.296-.71.944-1.784 1.439-2.388.495-.604 1.714-2.467 2.709-4.139.995-1.672 2.544-3.872 3.443-4.89a288.063 288.063 0 004.39-5.166c1.516-1.824 4.18-4.744 5.92-6.489 1.74-1.744 3.262-3.483 3.383-3.864.12-.382 1.358-1.869 2.748-3.306 1.391-1.436 2.756-3.044 3.034-3.573.532-1.013.502-1.292-.824-7.737-.276-1.345-.676-4.628-.889-7.296-.468-5.881-1.58-13.768-2.445-17.325-1.271-5.236-1.208-5.969.37-4.257 3.364 3.651 11.03 18.96 13.455 26.87.98 3.194 1.003 3.23 2.106 3.23.79 0 1.328-.269 1.84-.92.399-.506.724-1.08.724-1.277 0-.196.365-.842.811-1.437.7-.932.807-1.466.78-3.874-.04-3.592.36-9.837 1.04-16.24l.871-8.206c.183-1.729.51-4.134.727-5.345.347-1.949.445-2.128.844-1.559.248.355.857 2.252 1.354 4.216.496 1.964 1.277 4.473 1.734 5.574 1.65 3.975 2.997 8.037 4.399 13.263.785 2.928 1.92 6.7 2.521 8.382a934.48 934.48 0 012 5.653c.725 2.082 1.12 2.714 1.989 3.195.695.385 1.259.489 1.571.291.917-.58 5.493-.32 9.464.539 3.947.853 4.042.857 17.751.65 9.427-.142 14.936-.08 17.432.196 4.175.462 10.506 1.783 14.336 2.992 1.44.455 3.435.925 4.432 1.044.998.118 2.333.428 2.969.688.635.26 2.084.584 3.22.721 1.135.137 2.313.384 2.618.55.86.466 7.375 1.595 17.144 2.971 7.964 1.122 20.035 3.603 25.319 5.204 3.301 1 7.485 3.482 10.104 5.995a161.879 161.879 0 004.898 4.482c1.99 1.728 2.597 2.525 3.583 4.714 2.534 5.627 2.664 6.064 2.402 8.04-.462 3.488-1.465 5.947-4.415 10.834a407.223 407.223 0 00-1.729 2.888c-.313.532-2.827 3.245-5.588 6.029-4.428 4.466-5.41 5.273-8.35 6.858a202.555 202.555 0 00-6.741 3.843c-1.875 1.126-4.55 2.585-5.946 3.24a134.69 134.69 0 00-4.807 2.4c-1.248.663-2.898 1.369-3.667 1.57-2.722.71-10.514 3.497-13.135 4.698-1.462.67-3.97 1.643-5.573 2.162-1.604.519-3.35 1.168-3.88 1.443-.532.274-2.424.902-4.206 1.394a446.585 446.585 0 00-4.985 1.407c-2.064.604-8.97 1.503-11.7 1.523-2.418.018-4.812 1.313-7.07 3.825-2.88 3.203-3.099 7.1-.7 12.469 2.874 6.43 5.389 14.741 6.221 20.557.33 2.305.817 4.81 1.082 5.566.797 2.27 2.3 9.143 2.754 12.594.127.96.528 3.12.893 4.798.384 1.772.662 4.416.662 6.305 0 1.84.379 5.518.872 8.472.48 2.871.872 6.422.873 7.89.003 4.255.657 9.503 1.587 12.71.472 1.63.859 3.52.859 4.2 0 .678.235 1.689.523 2.244.614 1.189.643 1.164-2.674 2.292-1.374.467-3.063 1.19-3.753 1.608-4.678 2.826-11.3 5.881-12.747 5.881-.278 0-1.566.553-2.861 1.228-1.295.675-3.425 1.613-4.731 2.085-1.307.471-2.976 1.253-3.708 1.738-.733.485-2.74 1.449-4.46 2.143-1.72.693-3.692 1.549-4.383 1.901-2.282 1.165-9.688 3.499-13.26 4.18-1.931.367-4.642.985-6.024 1.372-1.382.387-4.792 1.248-7.577 1.913-2.785.664-7.5 1.832-10.476 2.594-2.978.762-7.614 1.717-10.303 2.123-17.803 2.68-18.997 2.808-36.32 3.869-5.337.326-7.923.348-12.571.107z" fill="#fff"/><g stroke="#000" stroke-width=".231"><path d="M232.754 173.154c-.583-.191-1.172-.459-1.308-.595-.137-.137-.453-.249-.703-.249-.25 0-.511-.091-.58-.203-.07-.111-.283-.203-.476-.203-.192 0-.826-.482-1.408-1.071l-1.058-1.072v-1.368c0-1.306.025-1.377.558-1.579.307-.116.786-.427 1.065-.692 1.026-.974 2.234-1.022 3.276-.13.202.173 1.1.464 1.995.648 2.423.498 6.642.08 7.308-.722.143-.171.586-.303 1.022-.303.585 0 .858-.12 1.141-.506.255-.346.676-.561 1.34-.684.624-.116 1.142-.368 1.46-.712.272-.293.571-.532.665-.532.094 0 .563-.366 1.041-.812.48-.446.984-.811 1.123-.811.138 0 .466-.229.728-.508.262-.279.683-.507.934-.507.32 0 .477-.137.523-.456.053-.375.211-.468.878-.517.704-.052.907.037 1.513.662.7.722.7.724.753 2.872.03 1.229.152 2.27.284 2.428.179.216.124.367-.248.679l-1.47 1.234c-.846.712-3.68 2.228-4.166 2.228-.087 0-.56.21-1.05.467-.491.258-1.212.592-1.603.744-.39.151-.847.386-1.014.52-.445.359-5.748 1.748-7.405 1.94-2.194.255-3.956.19-5.118-.19zM180.56 164.092c-.503-.163-1.195-.245-1.539-.182-.482.088-.836-.028-1.552-.511-1.193-.805-4.01-3.674-4.01-4.083 0-.363-.387-.802-.706-.802-.12 0-.66.585-1.2 1.3-.802 1.062-1.103 1.313-1.652 1.377-.37.043-.808.029-.975-.031-1.537-.556-1.884-4.36-.528-5.803l.41-.436-.566-.603c-.633-.675-2.317-1.333-2.983-1.166-.274.069-.616-.046-.917-.307-.264-.23-.588-.417-.719-.417-.311 0-.98-.769-1.278-1.468-.196-.46-.162-.754.196-1.724.795-2.154 1.811-2.65 4.04-1.975 1.04.314 1.405.57 2.555 1.789l1.34 1.422.484-.594a9.97 9.97 0 00.73-1.023c.136-.235.542-.829.902-1.319 2.021-2.747 2.7-3.604 3.744-4.724a39.491 39.491 0 002.158-2.568c1.266-1.675 2.912-3.166 3.684-3.335a3.147 3.147 0 001.06-.495c.256-.2.694-.434.973-.52a4.482 4.482 0 001.014-.506c1.122-.776 4.307-1.197 5.782-.763 1.37.402 4.362 2.46 4.362 3 0 .08.257.253.57.383.314.13 1.193.848 1.953 1.597.76.748 1.665 1.497 2.011 1.665.346.167.962.806 1.37 1.42.407.613 1.109 1.41 1.56 1.77.869.695 1.428 1.944 1.478 3.302.03.83-.52 2.954-.928 3.577-.155.238-.285.603-.287.812-.01.83-.28 1.697-.529 1.697-.144 0-.59.456-.99 1.014-.401.558-.82 1.015-.933 1.015-.111 0-.203.124-.203.275 0 .152-.51.614-1.132 1.027-1.194.793-1.971 1.433-3.006 2.476-.843.85-3.476 2.153-4.484 2.221-.848.057-2.803.668-4.362 1.362-.86.383-3.361.901-5.173 1.073-.447.042-1.223-.057-1.725-.22z" stroke-width=".19163298"/><path d="M183.907 159.123c.762-.401 1.453-.609 2.024-.609 1.065 0 1.47-.376 1.081-1.006-.146-.236-.47-.48-.72-.544-.547-.14-1.627-1.327-1.987-2.188-.144-.343-.498-.845-.786-1.115-.35-.328-.525-.706-.525-1.13 0-.352-.13-1.044-.29-1.538-.434-1.346-.79-5.369-.519-5.874.325-.608.011-.956-.387-.43-.179.238-.645.603-1.036.81-.39.209-.802.56-.915.781-.113.222-.89 1.156-1.725 2.078-.835.92-1.58 1.836-1.655 2.034-.074.198-.648 1.248-1.275 2.334-1.219 2.11-1.207 1.98-.263 3.034.196.218.356.516.356.662 0 .147.1.267.224.267.123 0 .495.228.827.507.331.279.74.507.906.507.33 0 .883.473.883.756 0 .304 2.55 1.027 4.392 1.245.128.015.753-.246 1.39-.581zM194.037 155.238c.282-.129.565-.398.629-.599.063-.2.453-.57.866-.823.413-.252.781-.532.82-.624.038-.091.436-.63.884-1.197.52-.659.853-1.316.921-1.82.094-.703.02-.882-.688-1.651-.436-.475-.916-1.183-1.067-1.574-.616-1.602-.73-1.805-1.065-1.893-.193-.05-.43-.398-.526-.773-.112-.436-.371-.776-.721-.946-.3-.145-.547-.396-.547-.558 0-.201-.228-.293-.728-.293-.422 0-.947-.17-1.245-.406-.284-.223-.686-.405-.894-.405-.311 0-.377.153-.372.862.004.474.138 1.036.299 1.249.304.402.78 1.859 1.231 3.772.525 2.226.719 2.93.863 3.137.172.247.133 2.19-.074 3.71-.143 1.047-.137 1.065.378 1.065.288 0 .754-.105 1.036-.233zM244.604 151.469c-.243-.137-.808-.344-1.254-.46a10.943 10.943 0 01-1.623-.598 54.629 54.629 0 00-1.556-.708c-.902-.39-3.776-3.41-4.618-4.855a129.63 129.63 0 00-.916-1.55c-.41-.671-1.33-2.76-1.33-3.015 0-.111-.426-.55-.947-.977a29.908 29.908 0 01-1.724-1.544c-.74-.733-.778-.832-.778-2.065 0-.908-.095-1.391-.319-1.615-.175-.175-.222-.319-.105-.319.118 0 .267-.25.333-.557.217-1.014.757-2.377 1.137-2.868.242-.312.374-.82.374-1.433 0-.782.104-1.048.586-1.51.336-.322.74-1.054.946-1.712.494-1.583.998-2.302 2.982-4.258 2.18-2.152 4.651-3.486 6.452-3.486.68 0 1.287.119 1.523.298.217.164.594.3.839.304.244.007.5.098.57.21.068.111.388.202.71.202.321 0 .634.082.696.18.061.1.351.242.645.315.569.143 1.093.569 1.093.888 0 .107.307.34.682.518.375.178.797.462.938.632.14.17.366.308.502.308.261 0 2.372 2.197 3.559 3.704.39.496 1.326 1.44 2.079 2.098.753.658 1.37 1.338 1.37 1.511 0 .173.093.408.207.523.115.114.3 1.023.413 2.018.19 1.68.375 2.51.826 3.697.272.717.22 4.178-.068 4.465-.29.29-.748 1.937-.76 2.736-.006.312-.188.758-.405.991-.218.234-.536.72-.707 1.08-.17.36-.455.775-.632.921-.177.147-.464.548-.639.89-.174.343-.899 1.203-1.61 1.912-.71.708-1.292 1.367-1.292 1.465 0 .247-1.109.797-1.605.797-.225 0-.501.172-.614.382-.112.21-.366.456-.565.546-.592.269-4.894.22-5.395-.061z" stroke-width=".19163298"/><path d="M248.523 144.33c0-.214.25-.57.555-.793l.556-.405-.656-.373c-.36-.205-.656-.515-.657-.688-.001-.442-.472-1.406-.687-1.408-.099 0-.327.162-.507.362-.18.2-.631.507-1.001.681-.554.262-.797.276-1.372.078-.933-.32-1.912-1.284-1.912-1.882 0-.265-.384-1.228-.854-2.141-.884-1.717-.86-1.594-1.204-6.026-.014-.168.023-1.262.08-2.432.103-2.103.098-2.133-.43-2.587-.293-.252-.639-.459-.768-.459-.562 0-1.84.913-2.364 1.69a78.44 78.44 0 01-1.066 1.535c-.272.38-.494.892-.494 1.139s-.274.794-.609 1.215c-.575.723-.823 1.725-.428 1.725.1 0 .24.237.314.528.175.7 1.457 2.404 2.624 3.49.516.48.939 1.048.939 1.261 0 .506 2.358 2.873 3.145 3.157.437.158.626.372.672.76.05.417.176.542.546.542.265 0 .535.085.6.19.379.613 2.165 1.18 3.811 1.21 1.022.017 1.167-.029 1.167-.369zM253.52 140.51c.264-.308.48-.677.48-.82 0-.145.186-.462.413-.705.501-.539.446-.996-.154-1.26-.247-.109-.505-.45-.572-.76-.068-.309-.234-.63-.369-.715-.358-.224-1.752-2.405-1.752-2.74 0-.158-.063-.35-.14-.428-.078-.077-.17-.344-.207-.592-.143-.976-.484-1.682-.904-1.874-.396-.18-.58-.424-.962-1.28-.176-.396-.53-.203-.494.268.043.55.894 3.768 1.112 4.207.096.194.175.475.175.625 0 .15.228.834.507 1.52.28.687.507 1.558.507 1.938 0 .379.136.802.302.94.167.137.254.329.195.424-.06.096.125.377.41.624.338.294.476.577.4.817-.184.578.498.455 1.053-.19z" stroke-width=".19163298"/></g><path d="M180.135 159.047c-1.199-.309-1.616-.504-2.034-.952-.29-.31-.627-.563-.75-.563-.653 0-2.485-1.77-2.924-2.826-.032-.076.475-1.102 1.127-2.28 1.318-2.38 4.217-5.982 5.632-6.996l.807-.578.026 1.931c.014 1.062.156 2.52.316 3.241.16.72.35 1.722.425 2.226.09.618.306 1.13.66 1.572.29.36.661.915.826 1.233.43.832 1.423 1.879 2.014 2.124.556.23.817.665.556.926-.091.091-.546.206-1.01.256-.465.05-1.347.316-1.96.592-1.325.594-1.728.604-3.71.094zM192.852 153.143c.084-2.135.076-2.192-.72-5.187-.444-1.665-1-3.49-1.238-4.054-.372-.884-.581-2.085-.363-2.085.039 0 .49.196 1.005.435.513.24 1.1.436 1.302.437.476.003 1.602 1.065 1.835 1.731.099.285.359.634.577.777.22.144.57.722.783 1.291.212.567.734 1.456 1.161 1.977.556.678.776 1.102.776 1.5 0 .722-1.54 3.046-2.352 3.548-.327.202-.816.641-1.086.976-.343.426-.682.64-1.128.711l-.637.102zM245.175 144.186c-.4-.125-.95-.385-1.222-.577-.273-.192-.665-.401-.87-.465-.206-.064-.468-.343-.583-.62-.115-.276-.432-.595-.706-.708-.61-.253-2.905-2.506-3.065-3.009-.064-.2-.74-1.073-1.504-1.938s-1.59-1.972-1.836-2.46c-.246-.487-.518-.932-.605-.988-.196-.125.083-.896.573-1.585.198-.278.435-.777.527-1.108.282-1.025 1.826-3.149 2.716-3.738.95-.629 1.047-.64 1.626-.196l.437.336.02 3.371c.027 4.261.191 5.304 1.172 7.437.428.933.825 1.9.881 2.15.12.526.844 1.299 1.572 1.676.816.422 1.631.33 2.5-.282.425-.3.845-.501.933-.447.087.054.244.413.347.798.129.476.358.802.723 1.023.52.317.525.33.167.521-.201.108-.415.39-.474.628-.103.41-.17.43-1.356.42-.686-.006-1.574-.114-1.973-.24zM252.624 140.556c0-.237-.166-.58-.37-.763-.437-.395-.609-.798-1.03-2.428a86.531 86.531 0 00-1.008-3.405c-.38-1.2-.812-2.713-.958-3.362-.273-1.206-.158-1.573.213-.68.113.275.434.668.713.874.325.241.573.639.693 1.116.337 1.334 1.04 2.818 1.837 3.882.43.574.783 1.134.783 1.245 0 .11.246.441.546.735.324.317.5.628.43.763-.573 1.12-1.156 1.994-1.471 2.203-.353.234-.378.223-.378-.18z" fill="#fff"/></svg>