<svg height="200" width="200" xmlns="http://www.w3.org/2000/svg"><linearGradient id="a" gradientUnits="userSpaceOnUse" x1="837.869" x2="969.866" y1="58.55" y2="188.836"><stop offset="0"/><stop offset="1" stop-color="#505070"/></linearGradient><linearGradient id="b" gradientUnits="userSpaceOnUse" x1="827.927" x2="974.56" y1="104.443" y2="104.443"><stop offset="0" stop-color="gray"/><stop offset="1" stop-color="gray"/></linearGradient><path d="M0 0h200v200H0z" fill="none"/><path d="M886.003 20.23c-.386 26.595.972 16.552-15.81 4.274 2.59 17.349.831 17.92-3.652 25.345-2.454 4.063-4.617 16.856-6.152 19.676-9.304 17.087-30.67 39.394-30.634 46.666.047 9.205 10.995 17.445 21.01 7.71-9.37 13.717 18.918-.061 30.773-8.521 15.691 9.66 37.614-.91 38.021-16.432 7.141 35.108-59.54 41.205-63.102 86.743 49.697 11.345 77.377-25.617 107.668 2.965C979.61 143.76 981.04 68.71 909.053 40.572c-9.784-3.824-13.895-13.662-23.05-20.343zm-.3 49.525c-1.628 2.308-5.05 6.076-8.051 5.524-2.776-.51-3.892-1.45-4.02-4.738-.108-2.767 9.698-2.678 12.07-.786z" fill-rule="evenodd" stroke-width="3.657" stroke-linecap="round" stroke-linejoin="round" fill="url(#a)" stroke="url(#b)" transform="translate(-800)"/></svg>