<svg xmlns="http://www.w3.org/2000/svg" xmlns:xlink="http://www.w3.org/1999/xlink" id="pawn" width="700pt" height="700pt" version="1.0" viewBox="0 0 933.333 933.333"><style id="style-base">.base{fill-opacity:1;fill-rule:evenodd;stroke-miterlimit:4;stroke-dasharray:none;stroke-linecap:round;stroke-linejoin:round;stroke-opacity:1}.stroke-medium{stroke-width:20}.stroke-color{stroke:#000}</style><defs id="defs36222"><linearGradient id="fillGradient"><stop id="stop0" offset="0" style="stop-color:white;stop-opacity:1"/><stop id="stop1" offset="1" style="stop-color:#bfd3d7;stop-opacity:1"/></linearGradient><linearGradient xlink:href="#fillGradient" id="body-gradient" x1="316.104" x2="671.391" y1="819.382" y2="929.903" gradientTransform="matrix(.90256 0 0 .90256 49.53 -107.353)" gradientUnits="userSpaceOnUse"/><linearGradient xlink:href="#fillGradient" id="main-gradient" x1="289.323" x2="632.554" y1="510.829" y2="666.313" gradientTransform="matrix(.77344 0 0 .77344 108.282 -19.306)" gradientUnits="userSpaceOnUse"/></defs><path id="boundary" d="M460.195 305.537c-77.6 0-140.507 64.062-140.507 143.086.179 39.335 16.253 76.86 44.44 103.754-7.673-88.861 209.21-79.895 188.567 3.633 30.426-27.098 47.918-66.225 48.008-107.387 0-79.024-62.907-143.086-140.508-143.086zm47.383 247.432-101.539.66c-25.392 205.944-140.792 212.006-127.57 303.533l355.502.223c11.141-100.852-107.312-99.908-126.393-304.416z" class="base stroke-color" style="fill:none;stroke-width:35"/><path id="main" d="M460.195 305.538c-77.6 0-140.507 64.061-140.507 143.085.179 39.335 16.252 76.86 44.44 103.754-7.674-88.861 209.21-79.895 188.566 3.633 30.426-27.097 47.919-66.225 48.01-107.387 0-79.024-62.909-143.086-140.51-143.085z" class="base stroke-color stroke-medium" style="fill:url(#main-gradient)"/><path id="body" d="M278.47 857.163c-13.222-91.527 102.178-97.591 127.57-303.535l101.537-.658c19.081 204.508 137.535 203.564 126.394 304.415z" class="base stroke-color stroke-medium" style="fill:url(#body-gradient)"/></svg>