<?xml version="1.0" encoding="UTF-8"?>
<svg width="50mm" height="50mm" clip-rule="evenodd" fill-rule="evenodd" image-rendering="optimizeQuality" shape-rendering="geometricPrecision" text-rendering="geometricPrecision" version="1.1" viewBox="0 0 50 50" xmlns="http://www.w3.org/2000/svg" xmlns:cc="http://creativecommons.org/ns#" xmlns:dc="http://purl.org/dc/elements/1.1/" xmlns:rdf="http://www.w3.org/1999/02/22-rdf-syntax-ns#">
 <metadata>
  <rdf:RDF>
   <cc:Work rdf:about="">
    <dc:format>image/svg+xml</dc:format>
    <dc:type rdf:resource="http://purl.org/dc/dcmitype/StillImage"/>
    <dc:title/>
   </cc:Work>
  </rdf:RDF>
 </metadata>
 <g transform="translate(-3731.7 2076.5)">
  <g transform="matrix(.34526 0 0 .33135 2819.8 -2096)">
   <path class="st31" d="m2713.9 179.5c-0.6 2.7-1.5 4.6-2.4 5.6-11.5 14.3-25.8 0.6-40.3 5-1.5 0.4-2.7 1.1-3.6 1.9l-6.8-11.3c18.2-17 34.4 1.3 43.4-9.2-2.5-0.3-5-0.8-7.6-1.5-2.3-0.6-4.6-1.3-6.8-2.2l7.3-18.3c-3.7-2.1-6.2-3.8-7.7-5.1-1.4-1.3-2.6-2.8-3.4-4.5-1.2-2.2-2-4.3-2.4-6.3-0.3-1.8-0.5-3.6-0.5-5.5 0-2.8 0.7-6 2-9.4 3.5-7.6 10.2-11.4 15.9-16.2 3-2.6 5.8-5.4 8.3-8.5-3.5-1.8-5.2-4.7-5.2-8.6 0-2.7 0.9-4.9 2.8-6.8 1.8-1.9 4.1-2.8 6.8-2.8 2.6 0 4.9 0.9 6.7 2.8 1.9 1.9 2.8 4.2 2.8 6.8 0 3.9-1.7 6.7-5.2 8.6 2.5 3 5.3 5.9 8.3 8.5 5.7 5.1 13.3 9.2 15.9 16.2 1.3 3.4 2 6.6 2 9.4 0 1.6-0.1 3.4-0.5 5.5-0.3 2-1.1 4.2-2.3 6.3-0.9 1.7-2.1 3.2-3.6 4.5-1.4 1.3-3.9 3-7.6 5.1l7.3 18.3c-2.1 0.8-4.4 1.5-7 2.2s-5.1 1.2-7.5 1.5c11.5 14.5 30.3-5.5 43.4 9.2l-6.9 11.3c-16.6-9.5-27.4 9.5-43.9-7.1-0.3-0.9-1.1-2.7-1.7-5.4z" fill="#3c3c3c" stroke="#141414" stroke-width="3.5478"/>
   <path class="st32" d="m2731.1 166-2.7587-7.3c-4.4139-1-9.1957-1.6-14.437-1.6-5.2415 0-10.023 0.5-14.345 1.6l-2.7587 7.2c5.3335-1.5 11.035-2.2 17.012-2.2 6.0691 0 11.77 0.8 17.288 2.3z" fill="#e6e6e6" stroke-width=".78225"/>
   <path class="st32" d="m2713.5 111.8c-2.4 0-3.5 1.1-3.5 3.3v7.9h-8.2c-2.2 0-3.3 1-3.3 3h1.5v-0.5 0.5h-1.5c0 2 1.1 3 3.3 3h8.2v7.9c0 2.2 1.2 3.3 3.5 3.3s3.5-1.1 3.5-3.3v-7.9h8.5c2.1 0 3.2-1 3.2-3h-0.7v-0.5 0.5h0.7c0-2-1.1-3-3.2-3h-8.5v-7.9c0-2.2-1.2-3.3-3.5-3.3z" fill="#e6e6e6" stroke-width=".78225"/>
  </g>
  <path d="m3756.8-2070.9c-0.8289 0-1.5481 0.2374-2.1344 0.7323 0.073 0.062 0.1453 0.1255 0.2141 0.1953 5.1194 0.7505 4.0878 3.4098 1.4594 5.103-1.1975 1.0207-0.3014 2.0812 0.5776 2.8164 1.9682 1.6899 4.5918 3.0481 5.489 5.3676 0.449 1.1265 0.6911 2.1873 0.6911 3.1151 0 0.5301-0.035 1.1263-0.1733 1.8221-0.1032 0.6627-0.3797 1.3919-0.7937 2.0877-0.3109 0.5633-0.7247 1.0602-1.2428 1.4909-0.4834 0.4308-1.3467 0.994-2.6241 1.6898l2.5207 6.0637c-0.725 0.2651-1.519 0.4973-2.4167 0.7292-0.8978 0.232-1.7611 0.3977-2.5895 0.4971 5.4856 6.9839 12.56 0.5303 18.482 4.2042 1.0049-1.7684-0.7186 1.1291 0.7355-1.1558-1.4134-1.5221-3.0189-1.9214-4.6797-1.8976-2.8345 0.1081-5.5922 0.8547-7.9531 0.462h0.01c-0.8507-0.2581-1.6466-0.7484-2.3596-1.6118 0.8284-0.099 1.6915-0.2651 2.5895-0.4971 0.8977-0.2319 1.6917-0.464 2.4167-0.7292l-2.5202-6.0637c1.2774-0.6958 2.1408-1.259 2.6242-1.6898 0.518-0.4307 0.9316-0.9275 1.2422-1.4908 0.4143-0.6958 0.6908-1.4251 0.7943-2.0878 0.1378-0.6958 0.1733-1.292 0.1733-1.8221 0-0.9278-0.2421-1.9885-0.6911-3.115-0.8975-2.3195-3.5219-3.6778-5.4901-5.3677-1.0356-0.8615-2.0016-1.8221-2.8649-2.8163 1.2086-0.6295 1.7951-1.5573 1.7951-2.8495 0-0.8615-0.3106-1.624-0.9667-2.2536-0.6215-0.6296-1.4153-0.9276-2.313-0.9276z" opacity=".4"/>
 </g>
</svg>
