<?xml version="1.0" encoding="UTF-8" standalone="no"?>
<svg
   xmlns:dc="http://purl.org/dc/elements/1.1/"
   xmlns:cc="http://creativecommons.org/ns#"
   xmlns:rdf="http://www.w3.org/1999/02/22-rdf-syntax-ns#"
   xmlns:svg="http://www.w3.org/2000/svg"
   xmlns="http://www.w3.org/2000/svg"
   xmlns:sodipodi="http://sodipodi.sourceforge.net/DTD/sodipodi-0.dtd"
   xmlns:inkscape="http://www.inkscape.org/namespaces/inkscape"
   clip-rule="evenodd"
   fill-rule="evenodd"
   height="50mm"
   image-rendering="optimizeQuality"
   shape-rendering="geometricPrecision"
   text-rendering="geometricPrecision"
   viewBox="0 0 50 50"
   width="50mm"
   version="1.1"
   id="svg11"
   sodipodi:docname="bK.svg"
   inkscape:version="0.92.4 (5da689c313, 2019-01-14)">
  <metadata
     id="metadata17">
    <rdf:RDF>
      <cc:Work
         rdf:about="">
        <dc:format>image/svg+xml</dc:format>
        <dc:type
           rdf:resource="http://purl.org/dc/dcmitype/StillImage" />
      </cc:Work>
    </rdf:RDF>
  </metadata>
  <defs
     id="defs15">
    <clipPath
       clipPathUnits="userSpaceOnUse"
       id="clipPath1574-7">
      <path
         style="opacity:0.03999999;fill:#ffffff;fill-opacity:1;stroke:#000000;stroke-width:0.26458332px;stroke-linecap:butt;stroke-linejoin:miter;stroke-opacity:1"
         d="m 475.65439,117.99476 c 2.93706,4.38098 -0.95739,18.47021 2.18424,24.53438 9.61747,17.12089 2.16427,16.29369 -11.46119,17.62547 -0.39508,2.82461 25.04315,3.08876 27.47631,0.36807 2.5199,-3.67231 2.99583,-8.26777 3.83686,-12.53181 0.91154,-4.97557 2.16035,-10.04246 1.35739,-15.12943 -0.17171,-9.84028 -21.59262,-20.19748 -23.39361,-14.86668 z"
         id="path1576-1"
         inkscape:connector-curvature="0"
         sodipodi:nodetypes="ccccccc" />
    </clipPath>
    <clipPath
       clipPathUnits="userSpaceOnUse"
       id="clipPath1570-4">
      <path
         style="opacity:0.03999999;fill:#ffffff;fill-opacity:1;stroke:#000000;stroke-width:0.26458332px;stroke-linecap:butt;stroke-linejoin:miter;stroke-opacity:1"
         d="m 475.65439,117.99476 c 2.93706,4.38098 -0.95739,18.47021 2.18424,24.53438 9.61747,17.12089 2.16427,16.29369 -11.46119,17.62547 -0.39508,2.82461 25.04315,3.08876 27.47631,0.36807 2.5199,-3.67231 2.99583,-8.26777 3.83686,-12.53181 0.91154,-4.97557 2.16035,-10.04246 1.35739,-15.12943 -0.17171,-9.84028 -21.59262,-20.19748 -23.39361,-14.86668 z"
         id="path1572-3"
         inkscape:connector-curvature="0"
         sodipodi:nodetypes="ccccccc" />
    </clipPath>
    <clipPath
       clipPathUnits="userSpaceOnUse"
       id="clipPath1574-7-3">
      <path
         style="opacity:0.03999999;fill:#ffffff;fill-opacity:1;stroke:#000000;stroke-width:0.26458332px;stroke-linecap:butt;stroke-linejoin:miter;stroke-opacity:1"
         d="m 475.65439,117.99476 c 2.93706,4.38098 -0.95739,18.47021 2.18424,24.53438 9.61747,17.12089 2.16427,16.29369 -11.46119,17.62547 -0.39508,2.82461 25.04315,3.08876 27.47631,0.36807 2.5199,-3.67231 2.99583,-8.26777 3.83686,-12.53181 0.91154,-4.97557 2.16035,-10.04246 1.35739,-15.12943 -0.17171,-9.84028 -21.59262,-20.19748 -23.39361,-14.86668 z"
         id="path1576-1-6"
         inkscape:connector-curvature="0"
         sodipodi:nodetypes="ccccccc" />
    </clipPath>
    <clipPath
       clipPathUnits="userSpaceOnUse"
       id="clipPath1574-7-6">
      <path
         style="opacity:0.03999999;fill:#ffffff;fill-opacity:1;stroke:#000000;stroke-width:0.26458332px;stroke-linecap:butt;stroke-linejoin:miter;stroke-opacity:1"
         d="m 475.65439,117.99476 c 2.93706,4.38098 -0.95739,18.47021 2.18424,24.53438 9.61747,17.12089 2.16427,16.29369 -11.46119,17.62547 -0.39508,2.82461 25.04315,3.08876 27.47631,0.36807 2.5199,-3.67231 2.99583,-8.26777 3.83686,-12.53181 0.91154,-4.97557 2.16035,-10.04246 1.35739,-15.12943 -0.17171,-9.84028 -21.59262,-20.19748 -23.39361,-14.86668 z"
         id="path1576-1-7"
         inkscape:connector-curvature="0"
         sodipodi:nodetypes="ccccccc" />
    </clipPath>
    <clipPath
       clipPathUnits="userSpaceOnUse"
       id="clipPath1574-7-8">
      <path
         style="opacity:0.03999999;fill:#ffffff;fill-opacity:1;stroke:#000000;stroke-width:0.26458332px;stroke-linecap:butt;stroke-linejoin:miter;stroke-opacity:1"
         d="m 475.65439,117.99476 c 2.93706,4.38098 -0.95739,18.47021 2.18424,24.53438 9.61747,17.12089 2.16427,16.29369 -11.46119,17.62547 -0.39508,2.82461 25.04315,3.08876 27.47631,0.36807 2.5199,-3.67231 2.99583,-8.26777 3.83686,-12.53181 0.91154,-4.97557 2.16035,-10.04246 1.35739,-15.12943 -0.17171,-9.84028 -21.59262,-20.19748 -23.39361,-14.86668 z"
         id="path1576-1-0"
         inkscape:connector-curvature="0"
         sodipodi:nodetypes="ccccccc" />
    </clipPath>
    <clipPath
       clipPathUnits="userSpaceOnUse"
       id="clipPath1574-7-1">
      <path
         style="opacity:0.03999999;fill:#ffffff;fill-opacity:1;stroke:#000000;stroke-width:0.26458332px;stroke-linecap:butt;stroke-linejoin:miter;stroke-opacity:1"
         d="m 475.65439,117.99476 c 2.93706,4.38098 -0.95739,18.47021 2.18424,24.53438 9.61747,17.12089 2.16427,16.29369 -11.46119,17.62547 -0.39508,2.82461 25.04315,3.08876 27.47631,0.36807 2.5199,-3.67231 2.99583,-8.26777 3.83686,-12.53181 0.91154,-4.97557 2.16035,-10.04246 1.35739,-15.12943 -0.17171,-9.84028 -21.59262,-20.19748 -23.39361,-14.86668 z"
         id="path1576-1-66"
         inkscape:connector-curvature="0"
         sodipodi:nodetypes="ccccccc" />
    </clipPath>
    <clipPath
       clipPathUnits="userSpaceOnUse"
       id="clipPath1457-0">
      <path
         style="fill:#000000;fill-opacity:1;stroke:#000000;stroke-width:0.26458332px;stroke-linecap:butt;stroke-linejoin:miter;stroke-opacity:1"
         d="m 64.261638,20.237303 c -1.195822,10.204877 3.678197,15.640425 5.741894,23.888903 0.806641,2.724753 3.407064,6.956657 1.941632,9.615008 -2.590813,5.033997 -10.32242,6.695734 -15.874048,6.173319 7.716687,3.748387 23.078795,2.316065 28.778489,-1.701329 3.17137,-2.54445 4.843642,-6.660835 4.674155,-10.687023 0.661821,-6.536404 -0.163904,-13.149406 -1.879496,-19.467328 -1.29072,-2.442828 -3.025826,-4.656698 -4.980557,-6.594446 -2.88109,-2.107842 -6.524543,-2.71882 -9.9603,-3.290209 -2.520064,-0.20618 -5.308079,-0.341994 -7.424605,1.296637 -0.369065,0.211295 -0.721006,0.459108 -1.017164,0.766425 z"
         id="path1459-3"
         inkscape:connector-curvature="0"
         sodipodi:nodetypes="cccccccccccc" />
    </clipPath>
    <clipPath
       id="clipPath1457-0-5"
       clipPathUnits="userSpaceOnUse">
      <path
         sodipodi:nodetypes="cccccccccccc"
         inkscape:connector-curvature="0"
         id="path1459-3-7"
         d="m 64.261638,20.237303 c -1.195822,10.204877 3.678197,15.640425 5.741894,23.888903 0.806641,2.724753 3.407064,6.956657 1.941632,9.615008 -2.590813,5.033997 -10.32242,6.695734 -15.874048,6.173319 7.716687,3.748387 23.078795,2.316065 28.778489,-1.701329 3.17137,-2.54445 4.843642,-6.660835 4.674155,-10.687023 0.661821,-6.536404 -0.163904,-13.149406 -1.879496,-19.467328 -1.29072,-2.442828 -3.025826,-4.656698 -4.980557,-6.594446 -2.88109,-2.107842 -6.524543,-2.71882 -9.9603,-3.290209 -2.520064,-0.20618 -5.308079,-0.341994 -7.424605,1.296637 -0.369065,0.211295 -0.721006,0.459108 -1.017164,0.766425 z"
         style="fill:#000000;fill-opacity:1;stroke:#000000;stroke-width:0.26458332px;stroke-linecap:butt;stroke-linejoin:miter;stroke-opacity:1" />
    </clipPath>
    <clipPath
       id="clipPath1457-0-4"
       clipPathUnits="userSpaceOnUse">
      <path
         sodipodi:nodetypes="cccccccccccc"
         inkscape:connector-curvature="0"
         id="path1459-3-5"
         d="m 64.261638,20.237303 c -1.195822,10.204877 3.678197,15.640425 5.741894,23.888903 0.806641,2.724753 3.407064,6.956657 1.941632,9.615008 -2.590813,5.033997 -10.32242,6.695734 -15.874048,6.173319 7.716687,3.748387 23.078795,2.316065 28.778489,-1.701329 3.17137,-2.54445 4.843642,-6.660835 4.674155,-10.687023 0.661821,-6.536404 -0.163904,-13.149406 -1.879496,-19.467328 -1.29072,-2.442828 -3.025826,-4.656698 -4.980557,-6.594446 -2.88109,-2.107842 -6.524543,-2.71882 -9.9603,-3.290209 -2.520064,-0.20618 -5.308079,-0.341994 -7.424605,1.296637 -0.369065,0.211295 -0.721006,0.459108 -1.017164,0.766425 z"
         style="fill:#000000;fill-opacity:1;stroke:#000000;stroke-width:0.26458332px;stroke-linecap:butt;stroke-linejoin:miter;stroke-opacity:1" />
    </clipPath>
    <clipPath
       id="clipPath1457-0-53"
       clipPathUnits="userSpaceOnUse">
      <path
         sodipodi:nodetypes="cccccccccccc"
         inkscape:connector-curvature="0"
         id="path1459-3-6"
         d="m 64.261638,20.237303 c -1.195822,10.204877 3.678197,15.640425 5.741894,23.888903 0.806641,2.724753 3.407064,6.956657 1.941632,9.615008 -2.590813,5.033997 -10.32242,6.695734 -15.874048,6.173319 7.716687,3.748387 23.078795,2.316065 28.778489,-1.701329 3.17137,-2.54445 4.843642,-6.660835 4.674155,-10.687023 0.661821,-6.536404 -0.163904,-13.149406 -1.879496,-19.467328 -1.29072,-2.442828 -3.025826,-4.656698 -4.980557,-6.594446 -2.88109,-2.107842 -6.524543,-2.71882 -9.9603,-3.290209 -2.520064,-0.20618 -5.308079,-0.341994 -7.424605,1.296637 -0.369065,0.211295 -0.721006,0.459108 -1.017164,0.766425 z"
         style="fill:#000000;fill-opacity:1;stroke:#000000;stroke-width:0.26458332px;stroke-linecap:butt;stroke-linejoin:miter;stroke-opacity:1" />
    </clipPath>
  </defs>
  <sodipodi:namedview
     pagecolor="#ffffff"
     bordercolor="#666666"
     borderopacity="1"
     objecttolerance="10"
     gridtolerance="10"
     guidetolerance="10"
     inkscape:pageopacity="0"
     inkscape:pageshadow="2"
     inkscape:window-width="1116"
     inkscape:window-height="723"
     id="namedview13"
     showgrid="false"
     inkscape:zoom="1.0946309"
     inkscape:cx="124.12784"
     inkscape:cy="238.01787"
     inkscape:window-x="64"
     inkscape:window-y="64"
     inkscape:window-maximized="0"
     inkscape:current-layer="svg11" />
  <linearGradient
     id="a"
     gradientUnits="userSpaceOnUse"
     x1="21.13"
     x2="77.764"
     y1="37.224"
     y2="37.469">
    <stop
       offset="0"
       stop-color="#fff"
       id="stop2" />
    <stop
       offset="1"
       stop-color="#fff"
       stop-opacity="0"
       id="stop4" />
  </linearGradient>
  <g
     id="g1768"
     transform="translate(-328.08255,805.87474)">
    <path
       inkscape:connector-curvature="0"
       id="path826"
       d="m 353.08798,-802.88158 c -1.0906,0 -1.63659,0.50917 -1.63659,1.5472 v 3.74033 h -3.79977 c -1.0263,0 -1.54151,0.48109 -1.54151,1.44281 v 0.0444 c 0,0.97592 0.51521,1.45831 1.54151,1.45831 h 3.80132 v 2.46652 c -1.70867,0.23167 -3.03033,0.90196 -3.13624,2.91868 5e-4,0.34307 0.0442,0.6849 0.12919,1.01803 -0.1983,-0.12419 -0.43944,-0.25614 -0.70693,-0.38913 l -1.52394,-0.57102 c -0.5168,-0.18189 -1.01652,-0.37259 -1.50792,-0.56327 -1.4895,-0.4557 -2.79997,-0.71227 -3.91087,-0.77877 -2.9718,-0.11539 -5.34018,0.75316 -7.08898,2.59158 -1.7316,1.84624 -2.51591,3.7012 -2.34301,5.55624 0.1119,1.92839 0.68958,3.56948 1.71618,4.9258 0.3312,0.43721 0.70621,0.84194 1.11931,1.20923 5.32646,4.01295 5.45407,5.27711 3.59456,13.42089 6.5459,5.30098 23.58926,5.27094 30.61466,0.091 -1.31788,-8.74737 -2.82156,-8.24526 1.83761,-12.07996 0.5765,-0.46522 1.13959,-0.94586 1.68879,-1.44074 0.4222,-0.38138 0.8017,-0.78618 1.1374,-1.22525 1.0245,-1.3573 1.61013,-2.99695 1.73943,-4.92631 0.121,-1.85407 -0.67133,-3.70898 -2.36833,-5.55522 -1.7316,-1.85504 -4.09185,-2.72457 -7.06365,-2.59157 -1.1628,0.0665 -2.46308,0.33171 -3.91088,0.80305 -1.2666,0.43027 -2.28198,0.81159 -3.05718,1.1343 -0.21569,0.0997 -0.44867,0.2235 -0.68057,0.36432 0.0677,-0.42245 0.10283,-0.76136 0.10283,-1.01855 -0.0264,-1.83545 -1.27528,-2.56187 -3.12642,-2.85357 l 0.0134,-2.46186 3.89331,-0.046 c 0.9969,0 1.49551,-0.48084 1.49551,-1.45676 v -0.0444 c 0,-0.9635 -0.49861,-1.44281 -1.49551,-1.44281 h -3.92483 v -3.74034 c 0,-1.03802 -0.54447,-1.54719 -1.60197,-1.54719 z"
       style="clip-rule:evenodd;fill:#323232;fill-opacity:1;fill-rule:evenodd;stroke:#0a0a0a;stroke-width:0.60000002;stroke-miterlimit:4;stroke-dasharray:none;stroke-opacity:1;paint-order:normal;image-rendering:optimizeQuality;shape-rendering:geometricPrecision;text-rendering:geometricPrecision"
       sodipodi:nodetypes="cscsssscccccccccccccccccccccccccccssscscc" />
    <path
       inkscape:connector-curvature="0"
       id="path1193"
       d="m 352.18473,-775.22193 c 0,-0.64541 -0.0173,-1.54017 -0.0509,-2.67452 -0.0346,-1.14216 -0.16379,-2.09462 -0.37948,-2.85541 -0.68877,-2.16113 -1.73158,-3.9086 -3.13556,-5.23266 -0.72336,-0.67963 -1.8262,-1.31721 -3.3248,-1.89709 -1.71429,-0.6454 -3.34209,-0.96811 -4.87529,-0.96811 -2.65332,0 -4.62602,0.91041 -5.9008,2.74101 -0.72336,0.96811 -1.08554,2.18557 -1.08554,3.63382 0,1.59003 0.40491,2.88964 1.20661,3.90859 0.42221,0.57891 1.23103,1.29961 2.42849,2.16113 1.18931,0.85271 2.20568,1.64675 3.02365,2.37625 1.46503,-0.30705 3.11827,-0.57206 4.96176,-0.80382 1.84349,-0.22393 4.22111,-0.35595 7.13183,-0.38919 z"
       style="clip-rule:evenodd;fill:#e6e6e6;fill-opacity:1;fill-rule:evenodd;stroke:none;stroke-width:0.99999994;stroke-miterlimit:4;stroke-dasharray:none;stroke-opacity:1;image-rendering:optimizeQuality;shape-rendering:geometricPrecision;text-rendering:geometricPrecision" />
    <path
       inkscape:connector-curvature="0"
       id="path1191"
       d="m 366.2083,-763.77016 -0.74981,-5.64016 c -3.28105,-1.41677 -7.40754,-2.13478 -12.36931,-2.13478 -4.90987,0 -9.01805,0.71801 -12.31741,2.1367 l -0.80068,5.68636 c 3.19457,-1.84026 7.57134,-2.77003 13.14455,-2.77003 2.6696,0 5.15913,0.2618 7.44213,0.76614 2.29114,0.50435 4.17736,1.15692 5.65053,1.95577 z"
       style="clip-rule:evenodd;fill:#e6e6e6;fill-opacity:1;fill-rule:evenodd;stroke:none;stroke-width:0.99999994;stroke-miterlimit:4;stroke-dasharray:none;stroke-opacity:1;image-rendering:optimizeQuality;shape-rendering:geometricPrecision;text-rendering:geometricPrecision" />
    <path
       inkscape:connector-curvature="0"
       id="path1187"
       d="m 353.99363,-775.19651 c 2.89445,0.0489 5.27207,0.18971 7.1237,0.41364 1.84349,0.22394 3.51505,0.49677 4.99533,0.80285 0.92277,-0.87716 1.94727,-1.70543 3.07554,-2.50045 1.12828,-0.79502 1.92081,-1.47367 2.37762,-2.03693 0.80169,-1.05123 1.20661,-2.35963 1.20661,-3.93207 0,-1.4326 -0.36219,-2.64126 -1.08554,-3.61034 -1.29208,-1.82865 -3.27393,-2.74003 -5.92624,-2.74003 -1.55049,0 -3.16202,0.3227 -4.84985,0.9681 -1.53319,0.57989 -2.63501,1.20964 -3.33395,1.88731 -1.42942,1.33384 -2.47224,3.08034 -3.12641,5.24146 -0.25028,0.74515 -0.38762,1.6888 -0.41408,2.83977 -0.0265,1.15097 -0.0427,2.03693 -0.0427,2.66669 z"
       style="clip-rule:evenodd;fill:#e6e6e6;fill-opacity:1;fill-rule:evenodd;stroke:none;stroke-width:0.99999994;stroke-miterlimit:4;stroke-dasharray:none;stroke-opacity:1;image-rendering:optimizeQuality;shape-rendering:geometricPrecision;text-rendering:geometricPrecision" />
    <path
       inkscape:connector-curvature="0"
       id="path998"
       d="m 355.83717,-777.08382 c 0,-0.47232 0.061,-1.13435 0.1628,-2.00467 0.1129,-0.86053 0.2849,-1.54016 0.5178,-2.02812 0.6288,-1.30841 1.5159,-2.51708 2.6788,-3.6348 0.3357,-0.3227 1.0601,-0.76177 2.1711,-1.3084 a 7.7880424,7.4856958 0 0 1 3.5059,-0.7784 c 0.9461,0 1.877,0.15744 2.8161,0.47232 0.9309,0.31488 1.6369,0.79502 2.1019,1.44922 0.4222,0.54664 0.6379,1.43162 0.6379,2.66571 0,0.96811 -0.4141,1.87069 -1.2412,2.71558 a 41.051275,39.457587 0 0 1 -1.7397,1.61449 c -0.6206,0.53783 -1.2229,1.17541 -1.7906,1.90394 -0.9747,-0.32271 -2.3349,-0.57891 -4.0757,-0.75297 -1.7397,-0.18189 -3.6523,-0.28163 -5.7451,-0.31488 z"
       style="clip-rule:evenodd;fill:#323232;fill-opacity:1;fill-rule:evenodd;stroke:none;stroke-width:0.99999994;stroke-linecap:round;stroke-linejoin:round;stroke-miterlimit:4;stroke-dasharray:none;stroke-opacity:1;paint-order:fill markers stroke;image-rendering:optimizeQuality;shape-rendering:geometricPrecision;text-rendering:geometricPrecision" />
    <path
       inkscape:connector-curvature="0"
       id="path1197"
       d="m 350.26397,-777.0848 c -2.1019,0.0332 -4.0227,0.13299 -5.7716,0.31488 -1.7397,0.17406 -3.0827,0.43026 -4.0482,0.75297 a 19.302747,18.553378 0 0 0 -1.7488,-1.813 33.580655,32.27699 0 0 1 -1.757,-1.70543 c -0.8445,-0.82826 -1.2575,-1.73085 -1.2575,-2.71558 0,-1.21746 0.2065,-2.10245 0.6287,-2.66571 0.4477,-0.65518 1.1547,-1.13434 2.0938,-1.44922 a 8.633485,8.2983168 0 0 1 2.8507,-0.47232 c 1.2147,0 2.3684,0.25718 3.4794,0.7784 1.0947,0.54761 1.8181,0.9857 2.1711,1.3084 1.1456,1.11772 2.0419,2.32737 2.6788,3.6348 0.2157,0.48894 0.3795,1.16759 0.4914,2.02812 0.1119,0.87032 0.1729,1.53235 0.1892,2.00467 z"
       style="clip-rule:evenodd;fill:#323232;fill-opacity:1;fill-rule:evenodd;stroke:none;stroke-width:0.99999994;stroke-linecap:round;stroke-linejoin:round;stroke-miterlimit:4;stroke-dasharray:none;stroke-opacity:1;paint-order:fill markers stroke;image-rendering:optimizeQuality;shape-rendering:geometricPrecision;text-rendering:geometricPrecision" />
    <path
       sodipodi:nodetypes="ccssssccccccccccccccccccccccccccccccccccssscc"
       transform="translate(289.50687,-823.56588)"
       clip-path="url(#clipPath1457-0-53)"
       inkscape:connector-curvature="0"
       id="path826-5-2-8"
       d="m 62.624528,21.784495 v 3.74034 h -3.799766 c -1.0263,0 -1.540992,0.481084 -1.540992,1.442807 v 0.04444 c 0,0.975921 0.514692,1.458309 1.540992,1.458309 h 3.801835 v 2.466001 c -1.70892,0.231601 -3.030834,0.902277 -3.13676,2.919201 5e-4,0.343072 0.04419,0.6849 0.129191,1.018027 -0.1983,-0.124193 -0.439433,-0.256133 -0.706935,-0.389126 l -1.523936,-0.571539 c -0.516801,-0.181888 -1.016519,-0.372587 -1.507919,-0.563274 -1.489501,-0.455692 -2.799972,-0.711748 -3.910872,-0.778248 -2.9718,-0.115391 -5.340173,0.753152 -7.088974,2.591572 -1.7316,1.846244 -2.515909,3.701209 -2.343009,5.55625 0.1119,1.928387 0.690091,3.569475 1.71669,4.925798 0.3312,0.437211 0.705697,0.841936 1.118796,1.209228 0.563499,0.500541 1.140976,0.986634 1.731677,1.457277 0.5168,0.454716 0.981826,0.769462 1.369425,0.960147 h 5.19e-4 c 2.741599,1.270389 0.756642,7.546774 -0.03566,11.003462 6.545799,5.300985 23.468685,5.717945 30.493983,0.53795 -1.340127,-4.646987 -2.833021,-8.344571 0.317055,-10.99571 0,-0.01564 0.0088,-0.03247 0.02584,-0.04909 0.022,-0.0224 0.03816,-0.04745 0.05116,-0.07493 0.0702,-0.107566 0.293979,-0.265115 0.680577,-0.447 0.387702,-0.181888 0.861917,-0.504454 1.412317,-0.960149 0.576501,-0.465219 1.139587,-0.945862 1.688788,-1.440738 0.422198,-0.381373 0.801698,-0.786178 1.137396,-1.225249 1.024501,-1.357299 0.930069,-2.549948 1.05937,-4.479314 0.121,-1.854067 -0.671848,-3.70949 -2.368849,-5.555731 -1.7316,-1.855047 -3.411888,-2.736922 -6.383688,-2.60393 -1.162802,0.0665 -2.390401,0.113829 -3.838201,0.585169 -1.2666,0.430268 -2.354034,0.595351 -3.129234,0.918052 -0.215702,0.09975 -1.129258,0.670504 -1.361157,0.811318 0.0677,-0.422444 0.102836,-0.761357 0.102836,-1.01854 -0.02637,-1.835621 -0.928516,-2.992224 -2.779933,-3.283869 l -0.07008,-2.5955 4.311429,0.07094 c 0.996899,0 0.79794,-1.341749 0.79794,-1.341749 v 0 c 0,0 0.198959,-1.602256 -0.79794,-1.602256 H 65.86361 c -1.063189,-3.308139 -1.915432,-5.335952 -3.239082,-3.740346 z"
       style="clip-rule:evenodd;opacity:0.02000002;fill:#ffffff;fill-opacity:1;fill-rule:evenodd;stroke:none;stroke-width:1.10000002;stroke-miterlimit:4;stroke-dasharray:none;stroke-opacity:1;image-rendering:optimizeQuality;shape-rendering:geometricPrecision;text-rendering:geometricPrecision" />
  </g>
</svg>
