<svg xmlns="http://www.w3.org/2000/svg" fill-rule="evenodd" clip-rule="evenodd" image-rendering="optimizeQuality" shape-rendering="geometricPrecision" text-rendering="geometricPrecision" viewBox="0 0 50 50"><g stroke-width="1.006"><g stroke-linejoin="round"><path fill="#404040" stroke="#141414" stroke-width="1.207" d="M-305.98-21.216v3.605h-3.682v4.764h3.484l-.603 3.828c-6.864-3.03-12.594-1.413-14.997 3.511-2.16 6.171 1.667 8.794 5.749 12.497v7.879c3.457 2.043 9.627 2.247 12.482 2.282h.05c2.854-.034 9.024-.239 12.482-2.282V6.946c4.063-3.68 7.852-6.308 5.7-12.453-2.404-4.925-8.133-6.541-14.997-3.511l-.606-3.828h3.487v-4.765h-3.682v-3.605z" transform="matrix(1.0028 0 0 .98551 329.39 26.504)"/><path fill="none" stroke="#e6e6e6" stroke-width="2.012" d="m-305.85 2.486-8.38.794s-6.982-3.647-3.86-8.042c3.122-4.397 12.909-1.247 12.24 7.248zm4.61 0 8.38.794s6.982-3.647 3.86-8.042c-3.122-4.397-12.909-1.247-12.24 7.248z" transform="matrix(1.0028 0 0 .98551 329.39 26.504)"/></g><path fill="#e6e6e6" d="M35.42 36.789c-2.609-.994-6.089-1.496-10.425-1.496-4.373 0-7.889.511-10.554 1.527v2.973c2.68-.965 6.406-1.448 10.554-1.448 4.126 0 7.83.473 10.424 1.417z"/><path d="M34.848 16.106a14.09 14.09 0 0 0-2.776.287c2.626.621 4.688 2.237 5.902 4.682 2.158 6.057-1.642 8.648-5.716 12.274v7.286c-.543 1.127-12.484 1.835-15.6 1.998 1.017.053 7.636.765 8.34.773h.05c2.862-.034 9.05-.236 12.517-2.25V33.35c4.074-3.626 7.874-6.216 5.716-12.274-1.582-3.184-4.6-4.965-8.433-4.97zM24.99 5.595v4.492h2.625V12.8l.01 1.042.566 3.511-.565-3.51h3.496V9.147h-3.347l-.345-3.553z" opacity=".15"/></g></svg>