<?xml version="1.0" encoding="UTF-8"?>
<svg width="50mm" height="50mm" clip-rule="evenodd" fill-rule="evenodd" image-rendering="optimizeQuality" shape-rendering="geometricPrecision" text-rendering="geometricPrecision" version="1.1" viewBox="0 0 50 50" xmlns="http://www.w3.org/2000/svg" xmlns:cc="http://creativecommons.org/ns#" xmlns:dc="http://purl.org/dc/elements/1.1/" xmlns:rdf="http://www.w3.org/1999/02/22-rdf-syntax-ns#">
 <metadata>
  <rdf:RDF>
   <cc:Work rdf:about="">
    <dc:format>image/svg+xml</dc:format>
    <dc:type rdf:resource="http://purl.org/dc/dcmitype/StillImage"/>
    <dc:title/>
   </cc:Work>
  </rdf:RDF>
 </metadata>
 <g transform="matrix(.9729 0 0 .97289 225.56 -72.835)" stroke-width="1.0279">
  <path d="m-211.4 82.628c-0.85688 0.39763 0.91037 2.4838 0.41563 3.3902-0.1003 0.12143-0.20237 0.23098-0.30487 0.3359-1.0258 0.01655-4.5986-0.8202-4.5228-0.03294 0.54362 0.94713 2.3664 1.7884 1.8416 3.1748-3.5972 5.2469-8.1354 9.9563-10.62 16.679-0.1423 2.1439 2.1694 3.4443 5.5124 4.5689 2.5962-0.38663 3.8778-2.8441 6.4384-4.4256 2.0271-1.2652 4.6524-1.1717 7.1776-2.3666-1.0752 7.2979-10.037 8.4291-10.809 15.572h28.456c0.75965-18.46-1.7922-30.199-19.308-34.033-0.82805-1.4328-2.4329-2.9524-4.2785-2.8628z" clip-rule="evenodd" fill="#404040" fill-rule="evenodd" image-rendering="optimizeQuality" shape-rendering="geometricPrecision" stroke="#000" stroke-width="1.1306"/>
  <g fill="#e6e6e6">
   <path class="st32" d="m-217.67 106.1c0.41921-0.42253 0.69869 0.42253 0.41921 1.1266-0.97807 0.56332-2.0598 1.737-2.7946 2.2532-0.56555 0.3974-1.232 0.67678 2.3754-3.3799z" stroke-width="1.2334"/>
   <path class="st32" d="m-221.39 103.22c0.55886-0.42243 0.83834 0.28166 0.55886 0.98585-0.27938 0.42244-1.2576 0.98576-1.9562 1.1265-0.6987 0.28165-0.97818 0 1.3973-2.1124z" stroke-width="1.2334"/>
   <path class="st32" d="m-206.78 102.03c1.7305-0.88172 4.038-2.2044 2.9997-4.1883-0.34522-0.53742-1.1773-1.7692-2.0768-2.3146 1.2692 2.976 0.69233 3.527-1.6151 6.7234"/>
   <path d="m-215.05 96.608c0.72947-1.2648 1.7136-2.5233 3.0903-3.151 2.8468-1.1824 0.62669 0.88896 0.0371 1.466 0.53136 0.82843 0.0485 1.944-1.1049 1.6001-0.14164-0.03666 0.22979-0.61359 0.13194-0.6118-0.55819 0.01031-1.006 1.13-1.6548 1.3408-0.40982 0.28184-0.68654-0.32414-0.49958-0.64405z"/>
   <path class="st32" d="m-191.6 118.95c0.72273-13.368-1.4471-26.795-12.887-28.253 10.467 3.3477 10.028 14.007 9.8123 28.253z" stroke-width="1.0791"/>
  </g>
  <path d="m-202.12 99.593c-0.68825 1.3938-1.1998 8.7524-3.5823 7.0746-0.37002-0.38569-0.0361-0.93791-9e-3 -1.3884 0.0693-0.29896 0.45-1.2525 0.30618-1.3184-0.20729-0.0949-1.832 0.63004-2.4614 0.84544-9.2796 3.1767-4.0119 1.366 5.747-5.2132z" opacity=".15"/>
  <path d="m-211.4 82.628c-0.77356 0.35897 2.8462 2.7685 2.755 3.7695 16.623 4.0567 16.806 15.02 16.061 33.127h4.7702c0.75964-18.46-1.7922-30.199-19.308-34.033-0.82805-1.4328-2.4329-2.9524-4.2785-2.8628z" clip-rule="evenodd" fill-rule="evenodd" image-rendering="optimizeQuality" opacity=".15" shape-rendering="geometricPrecision"/>
 </g>
</svg>
