<?xml version="1.0" encoding="UTF-8" standalone="no"?>
<svg
   xmlns:dc="http://purl.org/dc/elements/1.1/"
   xmlns:cc="http://creativecommons.org/ns#"
   xmlns:rdf="http://www.w3.org/1999/02/22-rdf-syntax-ns#"
   xmlns:svg="http://www.w3.org/2000/svg"
   xmlns="http://www.w3.org/2000/svg"
   xmlns:sodipodi="http://sodipodi.sourceforge.net/DTD/sodipodi-0.dtd"
   xmlns:inkscape="http://www.inkscape.org/namespaces/inkscape"
   clip-rule="evenodd"
   fill-rule="evenodd"
   height="50mm"
   image-rendering="optimizeQuality"
   shape-rendering="geometricPrecision"
   text-rendering="geometricPrecision"
   viewBox="0 0 50 50"
   width="50mm"
   version="1.1"
   id="svg11"
   sodipodi:docname="bQ.svg"
   inkscape:version="0.92.4 (5da689c313, 2019-01-14)">
  <metadata
     id="metadata17">
    <rdf:RDF>
      <cc:Work
         rdf:about="">
        <dc:format>image/svg+xml</dc:format>
        <dc:type
           rdf:resource="http://purl.org/dc/dcmitype/StillImage" />
      </cc:Work>
    </rdf:RDF>
  </metadata>
  <defs
     id="defs15">
    <clipPath
       clipPathUnits="userSpaceOnUse"
       id="clipPath1505">
      <path
         style="opacity:0.03999999;fill:#ffffff;fill-opacity:1;stroke:#000000;stroke-width:0.26458332px;stroke-linecap:butt;stroke-linejoin:miter;stroke-opacity:1"
         d="m 385.62283,124.66971 c 2.93706,4.38098 0.10091,13.44313 3.24254,19.5073 9.61748,17.12089 2.16427,16.29369 -11.46119,17.62547 -0.39508,2.82461 25.04316,3.08876 27.47632,0.36806 2.51989,-3.6723 2.99582,-8.26776 3.83688,-12.5318 0.91152,-4.97557 2.16032,-10.04246 1.35739,-15.12943 -0.17174,-9.84028 -22.65095,-15.1704 -24.45194,-9.8396 z"
         id="path1507"
         inkscape:connector-curvature="0"
         sodipodi:nodetypes="ccccccc" />
    </clipPath>
    <clipPath
       clipPathUnits="userSpaceOnUse"
       id="clipPath1505-7">
      <path
         style="opacity:0.03999999;fill:#ffffff;fill-opacity:1;stroke:#000000;stroke-width:0.26458332px;stroke-linecap:butt;stroke-linejoin:miter;stroke-opacity:1"
         d="m 385.62283,124.66971 c 2.93706,4.38098 0.10091,13.44313 3.24254,19.5073 9.61748,17.12089 2.16427,16.29369 -11.46119,17.62547 -0.39508,2.82461 25.04316,3.08876 27.47632,0.36806 2.51989,-3.6723 2.99582,-8.26776 3.83688,-12.5318 0.91152,-4.97557 2.16032,-10.04246 1.35739,-15.12943 -0.17174,-9.84028 -22.65095,-15.1704 -24.45194,-9.8396 z"
         id="path1507-2"
         inkscape:connector-curvature="0"
         sodipodi:nodetypes="ccccccc" />
    </clipPath>
    <clipPath
       clipPathUnits="userSpaceOnUse"
       id="clipPath1505-2">
      <path
         style="opacity:0.03999999;fill:#ffffff;fill-opacity:1;stroke:#000000;stroke-width:0.26458332px;stroke-linecap:butt;stroke-linejoin:miter;stroke-opacity:1"
         d="m 385.62283,124.66971 c 2.93706,4.38098 0.10091,13.44313 3.24254,19.5073 9.61748,17.12089 2.16427,16.29369 -11.46119,17.62547 -0.39508,2.82461 25.04316,3.08876 27.47632,0.36806 2.51989,-3.6723 2.99582,-8.26776 3.83688,-12.5318 0.91152,-4.97557 2.16032,-10.04246 1.35739,-15.12943 -0.17174,-9.84028 -22.65095,-15.1704 -24.45194,-9.8396 z"
         id="path1507-5"
         inkscape:connector-curvature="0"
         sodipodi:nodetypes="ccccccc" />
    </clipPath>
    <clipPath
       clipPathUnits="userSpaceOnUse"
       id="clipPath1505-8">
      <path
         style="opacity:0.03999999;fill:#ffffff;fill-opacity:1;stroke:#000000;stroke-width:0.26458332px;stroke-linecap:butt;stroke-linejoin:miter;stroke-opacity:1"
         d="m 385.62283,124.66971 c 2.93706,4.38098 0.10091,13.44313 3.24254,19.5073 9.61748,17.12089 2.16427,16.29369 -11.46119,17.62547 -0.39508,2.82461 25.04316,3.08876 27.47632,0.36806 2.51989,-3.6723 2.99582,-8.26776 3.83688,-12.5318 0.91152,-4.97557 2.16032,-10.04246 1.35739,-15.12943 -0.17174,-9.84028 -22.65095,-15.1704 -24.45194,-9.8396 z"
         id="path1507-3"
         inkscape:connector-curvature="0"
         sodipodi:nodetypes="ccccccc" />
    </clipPath>
  </defs>
  <sodipodi:namedview
     pagecolor="#ffffff"
     bordercolor="#666666"
     borderopacity="1"
     objecttolerance="10"
     gridtolerance="10"
     guidetolerance="10"
     inkscape:pageopacity="0"
     inkscape:pageshadow="2"
     inkscape:window-width="958"
     inkscape:window-height="991"
     id="namedview13"
     showgrid="false"
     inkscape:zoom="2.4976667"
     inkscape:cx="-17.264676"
     inkscape:cy="74.395765"
     inkscape:window-x="952"
     inkscape:window-y="0"
     inkscape:window-maximized="0"
     inkscape:current-layer="svg11" />
  <linearGradient
     id="a"
     gradientUnits="userSpaceOnUse"
     x1="21.253"
     x2="77.764"
     y1="37.224"
     y2="37.36">
    <stop
       offset="0"
       stop-color="#fff"
       id="stop2" />
    <stop
       offset="1"
       stop-color="#fff"
       stop-opacity="0"
       id="stop4" />
  </linearGradient>
  <g
     transform="translate(-971.80508,38.659159)"
     id="g1161">
    <path
       id="path1138"
       d="m 997.13377,-34.402212 a 2.7774103,2.7322418 0 0 0 -0.22081,0.01 c -0.6771,0.04669 -1.2631,0.308345 -1.7463,0.789134 -0.3563,0.354521 -0.5901,0.758687 -0.7083,1.210158 a 2.7774103,2.7322418 0 0 0 -0.1023,0.723411 2.7774103,2.7322418 0 0 0 0.118,0.780415 c 0.015,0.05429 0.035,0.106808 0.054,0.159673 a 2.7774103,2.7322418 0 0 0 0.02,0.05639 c 0.1326,0.343423 0.3371,0.656578 0.6185,0.936499 0.3031,0.301557 0.6478,0.514573 1.0286,0.645379 -2.8613,15.028013 -2.4579,16.225344 -7.8699,0.936488 a 2.4350757,2.4070501 0 0 0 0.4734,-0.36607 c 0.4921,-0.480518 0.738,-1.073413 0.738,-1.766188 0,-0.680265 -0.24519,-1.267442 -0.738,-1.753869 -0.4928,-0.486427 -1.08637,-0.72958 -1.77457,-0.72958 -0.70677,0 -1.30689,0.242423 -1.79895,0.72958 -0.49206,0.487157 -0.73859,1.073604 -0.73859,1.753869 0,0.692775 0.24653,1.28567 0.73859,1.766188 0.37177,0.362521 0.80444,0.585936 1.29791,0.674126 -0.14958,14.037502 0.43237,14.997707 -7.01867,1.882735 0.39368,-0.382548 0.5908,-0.850067 0.5908,-1.406277 0,-0.541551 -0.19712,-1.00753 -0.5908,-1.400627 -0.39904,-0.397227 -0.87346,-0.590955 -1.43893,-0.590955 -0.56067,0 -1.0354,0.193728 -1.42428,0.590955 -0.38891,0.392507 -0.58612,0.859076 -0.58612,1.400627 0,0.55621 0.19721,1.023729 0.58612,1.406277 0.38888,0.382549 0.86361,0.576067 1.42428,0.576067 a 1.9820592,1.9496983 0 0 0 0.23019,-0.0108 l 2.11582,15.231852 2.20665,3.768549 c 0.78899,4.3558557 0.63618,5.2467387 -0.88046,9.7833647 6.42701,5.2928435 24.79425,4.5396756 30.81705,0.1011489 -1.1374,-4.17383546 -2.106,-5.6988194 -0.9311,-9.908641 l 2.2322,-3.7685596 2.0558,-15.095787 a 1.9820592,1.9496983 0 0 0 1.0533,-0.54423 c 0.3936,-0.382538 0.5902,-0.849538 0.5902,-1.405767 0,-0.541531 -0.1966,-1.00803 -0.5902,-1.401138 -0.399,-0.397216 -0.874,-0.590445 -1.4395,-0.590445 -0.5606,0 -1.0354,0.193229 -1.4242,0.590445 -0.389,0.392518 -0.5856,0.859607 -0.5856,1.401138 0,0.556229 0.1966,1.023229 0.5856,1.405767 0.1202,0.118358 0.2499,0.216776 0.3867,0.298818 -7.2946,12.093343 -6.8611,12.02623 -6.773,-2.480881 a 2.4350757,2.4070501 0 0 0 1.2777,-0.675156 c 0.4921,-0.480518 0.738,-1.072903 0.738,-1.765687 0,-0.680257 -0.2451,-1.267432 -0.738,-1.753859 -0.4928,-0.486418 -1.0863,-0.729581 -1.7745,-0.729581 -0.7067,0 -1.307,0.242433 -1.799,0.729581 -0.4921,0.487167 -0.7385,1.073602 -0.7385,1.753859 0,0.692784 0.2464,1.285169 0.7385,1.765687 0.1615,0.157463 0.3354,0.286309 0.5198,0.391748 -5.6584,14.829255 -5.1665,14.727595 -7.87264,-0.796324 0.378,-0.130955 0.7247,-0.343392 1.0345,-0.643849 0.55,-0.533373 0.8209,-1.182251 0.8209,-1.940749 a 2.6516495,2.6063618 0 0 0 -0.8209,-1.92587 c -0.5492,-0.532563 -1.2094,-0.798884 -1.9671,-0.798884 z"
       style="clip-rule:evenodd;fill:#323232;fill-opacity:1;fill-rule:evenodd;stroke:#282828;stroke-width:0.89999998;stroke-miterlimit:4;stroke-dasharray:none;stroke-opacity:1;image-rendering:optimizeQuality;shape-rendering:geometricPrecision;text-rendering:geometricPrecision"
       inkscape:connector-curvature="0" />
    <g
       transform="matrix(1.0099674,0,0,0.99354247,606.55489,-158.04885)"
       style="fill:#e6e6e6;fill-opacity:1;stroke-width:0.99828178"
       id="g1866">
      <path
         style="clip-rule:evenodd;fill:#e6e6e6;fill-opacity:1;fill-rule:evenodd;stroke:none;stroke-width:0.99828166;stroke-miterlimit:4;stroke-dasharray:none;image-rendering:optimizeQuality;shape-rendering:geometricPrecision;text-rendering:geometricPrecision"
         d="m 400.69818,150.85017 c -1.372,-0.76713 -3.302,-1.39003 -5.791,-1.88406 -2.49,-0.49404 -5.233,-0.74105 -8.247,-0.74105 -2.946,0 -5.638,0.23474 -8.085,0.70269 -2.447,0.46641 -4.378,1.07704 -5.783,1.84418 l 1.245,3.45514 c 1.388,-0.62291 3.191,-1.07859 5.41,-1.36549 2.21,-0.27156 4.631,-0.41424 7.264,-0.41424 2.633,0 5.063,0.14268 7.29,0.41424 2.235,0.2869 4.047,0.75486 5.436,1.40385 z"
         id="path1124"
         inkscape:connector-curvature="0" />
      <path
         style="clip-rule:evenodd;fill:#e6e6e6;fill-opacity:1;fill-rule:evenodd;stroke:none;stroke-width:0.99828178;stroke-miterlimit:4;stroke-dasharray:none;image-rendering:optimizeQuality;shape-rendering:geometricPrecision;text-rendering:geometricPrecision"
         d="m 399.60618,161.77521 -0.737,-4.55141 c -3.226,-1.1433 -7.281,-1.72271 -12.158,-1.72271 -4.826,0 -8.864,0.57941 -12.107,1.72426 l -0.788,4.5887 c 3.142,-1.48504 7.443,-2.23687 12.92,-2.23687 2.625,0 5.072,0.21125 7.316,0.6198 2.252,0.40699 4.106,0.93357 5.554,1.57823 z"
         id="path885"
         inkscape:connector-curvature="0" />
    </g>
    <path
       transform="matrix(1.0099674,0,0,0.99354247,606.55489,-158.04885)"
       clip-path="url(#clipPath1505-8)"
       id="path1138-0"
       d="m 386.7242,124.45028 a 2.75,2.75 0 0 0 -0.2186,0.01 c -0.67032,0.047 -1.25063,0.31035 -1.7291,0.79426 -0.35277,0.35683 -0.58425,0.76362 -0.70125,1.21802 a 2.75,2.75 0 0 0 -0.10129,0.72812 2.75,2.75 0 0 0 0.11679,0.78548 c 0.0154,0.0547 0.0349,0.10751 0.0538,0.16071 a 2.75,2.75 0 0 0 0.0196,0.0568 c 0.13129,0.34565 0.3338,0.66084 0.61236,0.94258 0.30011,0.30352 0.64137,0.51792 1.01854,0.64957 -2.83308,15.12569 -2.43367,16.3308 -7.79227,0.94258 a 2.4110439,2.4226947 0 0 0 0.46871,-0.36845 c 0.48723,-0.48364 0.7307,-1.08039 0.7307,-1.77767 0,-0.68468 -0.24273,-1.27568 -0.7307,-1.76527 -0.48798,-0.48958 -1.07564,-0.73432 -1.75702,-0.73432 -0.69983,0 -1.29405,0.244 -1.78128,0.73432 -0.48721,0.49033 -0.73123,1.08059 -0.73123,1.76527 0,0.69728 0.24402,1.29403 0.73123,1.77767 0.36814,0.36488 0.79655,0.58974 1.28518,0.67851 -0.14811,14.12874 0.42807,15.09518 -6.94944,1.89497 0.38979,-0.38503 0.58497,-0.85559 0.58497,-1.41542 0,-0.54507 -0.19518,-1.01408 -0.58497,-1.40973 -0.3951,-0.39981 -0.86484,-0.59479 -1.42473,-0.59479 -0.55514,0 -1.02518,0.19498 -1.41022,0.59479 -0.38508,0.39506 -0.58034,0.86466 -0.58034,1.40973 0,0.55983 0.19526,1.03039 0.58034,1.41542 0.38504,0.38503 0.85508,0.57981 1.41022,0.57981 a 1.9624982,1.9623703 0 0 0 0.22792,-0.0109 l 2.09494,15.33085 2.1849,3.79305 c 0.78116,4.38416 0.62987,5.28084 -0.8718,9.84695 6.3636,5.32724 24.5495,4.56918 30.51289,0.1018 -1.12623,-4.20096 -2.08524,-5.73586 -0.92192,-9.97304 l 2.2102,-3.79305 2.03552,-15.1939 a 1.9624982,1.9623703 0 0 0 1.04286,-0.54777 c 0.38975,-0.38503 0.58443,-0.85506 0.58443,-1.4149 0,-0.54506 -0.19468,-1.01459 -0.58443,-1.41025 -0.39511,-0.3998 -0.86535,-0.59428 -1.42526,-0.59428 -0.55515,0 -1.02518,0.19448 -1.41023,0.59428 -0.38508,0.39507 -0.57981,0.86519 -0.57981,1.41025 0,0.55984 0.19473,1.02987 0.57981,1.4149 0.11914,0.11913 0.24749,0.21818 0.3829,0.30076 -7.22264,12.17194 -6.79344,12.10439 -6.70605,-2.49701 a 2.4110439,2.4226947 0 0 0 1.26506,-0.67954 c 0.48723,-0.48364 0.7307,-1.07988 0.7307,-1.77716 0,-0.68468 -0.24273,-1.27567 -0.7307,-1.76526 -0.48797,-0.48958 -1.07564,-0.73432 -1.75702,-0.73432 -0.6998,0 -1.29405,0.244 -1.78128,0.73432 -0.48721,0.49033 -0.7312,1.08058 -0.7312,1.76526 0,0.69728 0.24399,1.29352 0.7312,1.77716 0.15991,0.15849 0.3321,0.28817 0.51469,0.39429 -5.60255,14.92564 -5.11545,14.82332 -7.79486,-0.8015 0.3743,-0.1318 0.71744,-0.34562 1.02423,-0.64803 0.54459,-0.53684 0.81288,-1.18994 0.81288,-1.95336 a 2.6254803,2.6233019 0 0 0 -0.81288,-1.93839 c -0.5438,-0.53602 -1.19743,-0.80408 -1.94768,-0.80408 z"
       style="clip-rule:evenodd;opacity:0.02000002;fill:#ffffff;fill-opacity:1;fill-rule:evenodd;stroke:none;stroke-width:1.49742258;stroke-miterlimit:4;stroke-dasharray:none;stroke-opacity:1;image-rendering:optimizeQuality;shape-rendering:geometricPrecision;text-rendering:geometricPrecision"
       inkscape:connector-curvature="0" />
  </g>
</svg>
