<svg xmlns="http://www.w3.org/2000/svg" fill-rule="evenodd" clip-rule="evenodd" image-rendering="optimizeQuality" shape-rendering="geometricPrecision" text-rendering="geometricPrecision" viewBox="0 0 50 50"><g stroke-width="1.024"><path fill="#fafafa" stroke="#3a3a3a" stroke-width="1.229" d="M-415.06-74.758v.005c-.795.028-1.5.309-2.056.875a2.862 2.862 0 0 0-.914 2.135c0 1.225.555 2.105 1.697 2.702a23.666 23.666 0 0 1-2.709 2.67c-1.86 1.602-4.34 2.89-5.188 5.089-.425 1.068-.653 2.072-.653 2.952 0 .503.033 1.068.163 1.728.098.628.359 1.32.75 1.979a4.92 4.92 0 0 0 1.176 1.413c.457.409 1.272.943 2.48 1.603l-2.383 5.748c.686.251 1.436.471 2.285.691.848.22 1.664.377 2.447.47-3.753 4.556-9.888-1.726-14.163 2.891l2.252 3.55c5.418-2.985 8.701 2.723 14.327-2.23.56-.493.55-.516 1.11 0 5.512 5.079 8.91-.755 14.327 2.23l2.251-3.55c-4.275-4.617-10.41 1.665-14.163-2.89a18.72 18.72 0 0 0 2.448-.47c.848-.22 1.6-.441 2.284-.692l-2.382-5.748c1.208-.66 2.024-1.194 2.48-1.603.49-.408.882-.88 1.175-1.413.392-.66.653-1.35.75-1.979.131-.66.164-1.225.164-1.728 0-.88-.229-1.884-.653-2.952-.848-2.2-3.328-3.487-5.189-5.09a23.677 23.677 0 0 1-2.709-2.669c1.143-.597 1.697-1.477 1.697-2.702a2.86 2.86 0 0 0-.913-2.135c-.557-.566-1.262-.847-2.056-.875v-.005c-.022 0-.044.002-.065.003l-.066-.003z" transform="matrix(.97733 0 0 .97544 430.59 80.521)"/><path fill="#3a3a3a" d="M30.49 35.236 29.61 33a21.522 21.522 0 0 0-4.604-.49c-1.672 0-3.197.152-4.576.49l-.88 2.206c1.702-.46 3.52-.675 5.427-.675 1.935 0 3.754.246 5.514.705zM24.88 18.63c-.765 0-1.116.336-1.116 1.01v2.421H21.15c-.702 0-1.053.306-1.053.92h.479v-.154.153h-.479c0 .613.351.92 1.053.92h2.615v2.42c0 .674.383 1.011 1.117 1.011s1.116-.337 1.116-1.011V23.9h2.711c.67 0 1.02-.307 1.02-.92h-.222v-.153.153h.223c0-.613-.351-.919-1.02-.919h-2.712v-2.42c0-.675-.383-1.012-1.116-1.012z" class="st32"/><path d="M24.94 7.6c-.766 0-1.43.219-1.972.676.067.058.134.116.197.18 4.73.695 3.777 3.154 1.349 4.72-1.107.944-.279 1.924.533 2.604 1.818 1.563 4.242 2.819 5.07 4.964.416 1.041.64 2.022.64 2.88a8.48 8.48 0 0 1-.16 1.685c-.096.613-.352 1.287-.734 1.93-.287.522-.67.981-1.148 1.38-.447.398-1.244.918-2.424 1.562l2.328 5.607c-.67.245-1.403.46-2.232.674-.83.215-1.627.368-2.392.46 5.067 6.458 11.603.49 17.073 3.888.928-1.636-.664 1.044.68-1.069-1.307-1.408-2.79-1.777-4.324-1.755-2.618.1-5.166.79-7.347.428h.008c-.786-.24-1.521-.693-2.18-1.491a18.22 18.22 0 0 0 2.392-.46c.83-.214 1.563-.429 2.233-.674l-2.328-5.607c1.18-.644 1.977-1.164 2.424-1.563.478-.398.86-.858 1.147-1.378.383-.644.639-1.318.734-1.931a8.48 8.48 0 0 0 .16-1.685c0-.858-.223-1.839-.638-2.88-.83-2.145-3.254-3.401-5.072-4.964a23.129 23.129 0 0 1-2.646-2.604c1.116-.583 1.658-1.44 1.658-2.635a2.79 2.79 0 0 0-.893-2.084c-.574-.582-1.308-.858-2.137-.858z" opacity=".15"/></g></svg>