<svg xmlns="http://www.w3.org/2000/svg" fill-rule="evenodd" clip-rule="evenodd" image-rendering="optimizeQuality" shape-rendering="geometricPrecision" text-rendering="geometricPrecision" viewBox="0 0 50 50"><g stroke="#3a3a3a" stroke-linejoin="round"><path fill="#fafafa" stroke-width="1.2" d="M22.56 5.6v3.552h-3.693v4.694h3.495l-.605 3.772c-6.885-2.986-12.632-1.393-15.043 3.458-2.168 6.08 1.672 8.665 5.766 12.313v7.763c3.468 2.013 9.657 2.214 12.52 2.248h.05c2.864-.034 9.053-.235 12.52-2.248v-7.806c4.076-3.625 7.877-6.214 5.718-12.27-2.411-4.851-8.158-6.444-15.043-3.459l-.608-3.771h3.498V9.152h-3.693V5.6z"/><path fill="none" stroke-width="2" d="m22.68 28.948-8.402.783s-7.003-3.594-3.872-7.926c3.13-4.333 12.945-1.228 12.274 7.143zm4.63 0 8.402.783s7.003-3.594 3.872-7.926c-3.13-4.333-12.945-1.228-12.274 7.143z"/></g><path fill="#3a3a3a" d="M35.42 36.783c-2.608-.994-6.088-1.496-10.424-1.496-4.373 0-7.888.511-10.554 1.527v2.973c2.68-.965 6.406-1.448 10.554-1.448 4.126 0 7.83.473 10.424 1.417z"/><path d="M34.85 16.101a14.087 14.087 0 0 0-2.776.287c2.627.622 4.688 2.238 5.902 4.683 2.159 6.057-1.641 8.647-5.715 12.273v7.286c-.544 1.127-12.484 1.834-15.6 1.997 1.017.053 7.636.765 8.34.774h.05c2.862-.035 9.05-.236 12.517-2.25v-7.808c4.074-3.625 7.874-6.215 5.715-12.272-1.581-3.185-4.599-4.966-8.432-4.97zM25 5.59v4.491h2.625v2.715l.01 1.042.566 3.51-.565-3.51h3.496V9.143h-3.347L27.44 5.59z" opacity=".15"/></svg>