<?xml version="1.0" encoding="UTF-8"?>
<svg width="50mm" height="50mm" clip-rule="evenodd" fill-rule="evenodd" image-rendering="optimizeQuality" shape-rendering="geometricPrecision" text-rendering="geometricPrecision" version="1.1" viewBox="0 0 50 50" xmlns="http://www.w3.org/2000/svg" xmlns:cc="http://creativecommons.org/ns#" xmlns:dc="http://purl.org/dc/elements/1.1/" xmlns:rdf="http://www.w3.org/1999/02/22-rdf-syntax-ns#">
 <metadata>
  <rdf:RDF>
   <cc:Work rdf:about="">
    <dc:format>image/svg+xml</dc:format>
    <dc:type rdf:resource="http://purl.org/dc/dcmitype/StillImage"/>
    <dc:title/>
   </cc:Work>
  </rdf:RDF>
 </metadata>
 <g transform="matrix(1.0773 0 0 1.0773 -4075.4 2295.4)" stroke-width=".92821">
  <g transform="translate(4328.7,-2640.1)">
   <path d="m-522.61 511.85c-0.92669 6e-3 -1.9215 0.49991-1.9215 1.4512v2.938h-2.8151c-0.90679 0-1.3449 0.98942-1.3449 1.8475v0.0328c0 0.8911 0.43807 1.8798 1.3449 1.8798h2.8151v1.8311c-1.5342 0.22159-2.1876 0.85043-2.2836 2.7248 0.0815 0.89007 0.20604 0.96549-0.50044 0.59414-4.3072-1.7477-9.2371-2.911-12.57 0.62642-1.5635 1.7162-2.2514 3.4662-2.095 5.1823 0.30293 3.5066 2.4831 6.4419 5.3158 7.9536 2.4702 1.1881 2.3742 5.3506 1.6863 8.5849 2.9336 2.4837 7.0967 3.1534 12.368 3.1534h0.017c5.2714 3e-5 9.4345-0.66962 12.368-3.1534-0.68792-3.2343-0.78399-7.3968 1.6863-8.5849 2.8327-1.5117 5.0128-4.447 5.3158-7.9536 0.15634-1.7162-0.53154-3.4662-2.095-5.1823-3.333-3.5374-8.2634-2.3741-12.571-0.62642-0.70648 0.37138-0.58142 0.29593-0.49994-0.59414-0.0959-1.8744-0.74934-2.5032-2.2836-2.7248v-1.8311h2.8151c0.9068 0 1.3443-0.98867 1.3443-1.8798v-0.0328c0-0.85807-0.45322-2.0247-1.3443-1.8475h-2.8151v-2.938c0-0.95131-0.9948-1.4452-1.9215-1.4512h-8e-3z" fill="#fafafa" stroke="#3a3a3a" stroke-width="1.1139"/>
   <g transform="matrix(1.0025,0,0,1.0577,177.67,-8.9739)" fill="#3a3a3a" stroke-width=".90139">
    <path d="m-709.53 504.94c-2.2524 0-3.9084 0.81661-5.0092 2.4207-0.59557 0.86791-0.92112 1.9302-0.92112 3.2093 0 1.4042 0.35531 2.5435 1.0242 3.4521 0.37018 0.50282 1.045 1.1475 2.0614 1.9083 1.0096 0.75311 1.8722 1.4547 2.5666 2.0989 3.4616-0.76767 7.1325-1.012 10.266-1.0537 0-0.56999-0.0143-1.3604-0.0433-2.3622-0.029-1.0087-0.12364-1.8541-0.32224-2.5216-0.56925-1.9132-1.4691-3.4528-2.6617-4.6214-0.6133-0.60097-1.5477-1.1696-2.8224-1.6754-1.4527-0.57639-2.837-0.8551-4.1385-0.8551zm0.48064 1.55c0.99324 0 2.0494 0.21259 3.158 0.65249 0.97279 0.38597 1.6862 0.81999 2.1543 1.2786 0.91011 0.89183 1.5966 2.067 2.0311 3.5271 0.15153 0.50937 0.22376 1.1546 0.24591 1.9244 0.022 0.76451 0.033 1.3676 0.033 1.8026-2.3914 0.0319-5.193 0.21841-7.8347 0.80425-0.52991-0.49164-1.1883-1.027-1.9588-1.6018-0.77576-0.58065-1.2907-1.073-1.5732-1.4567-0.51049-0.69339-0.78148-1.5624-0.78148-2.634 0-0.9761 0.24837-1.7869 0.70292-2.4493 0.84005-1.2242 2.1041-1.8476 3.8229-1.8476z"/>
    <path d="m-687.52 504.94c2.2524 0 3.9084 0.81661 5.0092 2.4207 0.59558 0.86791 0.92111 1.9302 0.92111 3.2093 0 1.4042-0.35529 2.5435-1.0242 3.4521-0.37018 0.50282-1.045 1.1475-2.0614 1.9083-1.0096 0.75311-1.8722 1.4547-2.5666 2.0989-3.4616-0.76767-7.1325-1.012-10.266-1.0537 0-0.56999 0.0143-1.3604 0.0433-2.3622 0.0291-1.0087 0.12363-1.8541 0.32223-2.5216 0.56925-1.9132 1.4691-3.4528 2.6617-4.6214 0.61331-0.60097 1.5477-1.1696 2.8223-1.6754 1.4527-0.57639 2.837-0.8551 4.1385-0.8551zm-0.48064 1.55c-0.99325 0-2.0494 0.21259-3.158 0.65249-0.97277 0.38597-1.6862 0.81999-2.1542 1.2786-0.91011 0.89183-1.5966 2.067-2.0311 3.5271-0.15153 0.50937-0.22376 1.1546-0.2459 1.9244-0.022 0.76451-0.033 1.3676-0.033 1.8026 2.3914 0.0319 5.1929 0.21841 7.8346 0.80425 0.52991-0.49164 1.1883-1.027 1.9588-1.6018 0.77576-0.58065 1.2907-1.073 1.5732-1.4567 0.51049-0.69339 0.78147-1.5624 0.78147-2.634 0-0.9761-0.24836-1.7869-0.70291-2.4493-0.84006-1.2242-2.1041-1.8476-3.823-1.8476z"/>
   </g>
   <path class="st32" d="m-512.01 546.45-0.65511-3.5314c-2.6204-0.90339-6.0051-1.314-9.9358-1.314-3.9306 0-7.2062 0.49276-9.9358 1.314l-0.65511 3.6136c2.6204-1.1498 6.1143-1.7246 10.591-1.7246 2.1837 0 4.149 0.16425 6.0051 0.49276 1.8561 0.24638 3.3847 0.65701 4.5858 1.1498z" fill="#3a3a3a" stroke-width=".92904"/>
  </g>
  <path d="m3817.8-2116.6c-0.8578-0.01-1.7375 0.1-2.622 0.2775 1.2271 0.3263 2.3715 0.9617 3.3711 2.0226 1.5634 1.7162 2.251 3.4659 2.0949 5.1821-0.3032 3.5066-2.4834 6.4423-5.316 7.954-2.4704 1.1881-2.3741 5.3502-1.6862 8.5845-2.4778 2.0979-5.8362 2.899-9.9954 3.098 0.7652 0.037 1.5539 0.056 2.373 0.056h0.019c5.2713 0 9.4345-0.67 12.368-3.1538-0.6879-3.2343-0.7842-7.3964 1.6862-8.5845 2.8326-1.5117 5.0122-4.4474 5.3154-7.954 0.1562-1.7162-0.5315-3.4659-2.0949-5.1821-1.5624-1.6582-3.4759-2.2837-5.5116-2.3001z" opacity=".4" stroke-width=".89428"/>
 </g>
</svg>
