<?xml version="1.0" encoding="UTF-8"?>
<svg width="50mm" height="50mm" clip-rule="evenodd" fill-rule="evenodd" image-rendering="optimizeQuality" shape-rendering="geometricPrecision" text-rendering="geometricPrecision" version="1.1" viewBox="0 0 50 50" xmlns="http://www.w3.org/2000/svg" xmlns:cc="http://creativecommons.org/ns#" xmlns:dc="http://purl.org/dc/elements/1.1/" xmlns:rdf="http://www.w3.org/1999/02/22-rdf-syntax-ns#">
 <metadata>
  <rdf:RDF>
   <cc:Work rdf:about="">
    <dc:format>image/svg+xml</dc:format>
    <dc:type rdf:resource="http://purl.org/dc/dcmitype/StillImage"/>
    <dc:title/>
   </cc:Work>
  </rdf:RDF>
 </metadata>
 <g transform="translate(328.12 28.686)">
  <g stroke="#3a3a3a" stroke-linejoin="round">
   <path d="m-305.56-23.086v3.5517h-3.693v4.694h3.4946l-0.60488 3.7718c-6.885-2.9852-12.632-1.3926-15.043 3.4588-2.1678 6.0799 1.6722 8.6644 5.7663 12.313v7.7625c3.4682 2.0129 9.657 2.2142 12.52 2.2486 0.0176-1.13e-4 0.0228 0 0.0327 0h0.0176c2.8632-0.03425 9.0522-0.23569 12.52-2.2486v-7.8056c4.0753-3.6249 7.8762-6.2142 5.7173-12.27-2.4106-4.8514-8.1578-6.444-15.043-3.4588l-0.6075-3.7718h3.4975v-4.694h-3.693v-3.5517z" fill="#fafafa" stroke-width="1.2"/>
   <path d="m-305.44 0.26188-8.4024 0.78283s-7.0022-3.5938-3.8718-7.9259c3.1305-4.3325 12.945-1.2283 12.274 7.1431z" fill="none" stroke-width="2"/>
   <path d="m-300.81 0.26188 8.4024 0.78283s7.0023-3.5938 3.8718-7.9259c-3.1305-4.3325-12.945-1.2283-12.274 7.1431z" fill="none" stroke-width="2"/>
  </g>
  <g>
   <path d="m-292.7 8.0967c-2.6081-0.99405-6.0878-1.496-10.424-1.496-4.3729 0-7.8885 0.51129-10.554 1.527l-1.1e-4 2.973c2.6809-0.96445 6.406-1.4474 10.554-1.4474 4.1258 0 7.8303 0.47225 10.424 1.4166z" fill="#3a3a3a"/>
   <path d="m-293.27-12.585c-0.88419-0.0011-1.8127 0.09454-2.776 0.28723 2.6266 0.62128 4.6881 2.2373 5.9023 4.6823 2.1583 6.057-1.6416 8.6471-5.7158 12.273v7.2862c-0.54309 1.1268-12.484 1.8347-15.599 1.9976 1.0161 0.05312 7.6351 0.76492 8.3389 0.77337 0.0176-1.2e-4 0.0233 0 0.0332 0h0.017c2.8623-0.03429 9.0495-0.23602 12.517-2.2495v-7.8077c4.0741-3.6259 7.874-6.216 5.7157-12.273-1.5815-3.1846-4.5993-4.9654-8.4327-4.9695z" opacity=".15"/>
   <path d="m-303.12-23.096v4.4913h2.6247v2.7148l0.011 1.0418 0.56516 3.5109-0.56515-3.5109h3.4964v-4.6952h-3.3472l-0.34472-3.5527z" opacity=".15"/>
  </g>
 </g>
</svg>
