<?xml version="1.0" encoding="UTF-8" standalone="no"?>
<svg
   xmlns:dc="http://purl.org/dc/elements/1.1/"
   xmlns:cc="http://creativecommons.org/ns#"
   xmlns:rdf="http://www.w3.org/1999/02/22-rdf-syntax-ns#"
   xmlns:svg="http://www.w3.org/2000/svg"
   xmlns="http://www.w3.org/2000/svg"
   xmlns:sodipodi="http://sodipodi.sourceforge.net/DTD/sodipodi-0.dtd"
   xmlns:inkscape="http://www.inkscape.org/namespaces/inkscape"
   clip-rule="evenodd"
   fill-rule="evenodd"
   height="50mm"
   image-rendering="optimizeQuality"
   shape-rendering="geometricPrecision"
   text-rendering="geometricPrecision"
   viewBox="0 0 50 50"
   width="50mm"
   version="1.1"
   id="svg11"
   sodipodi:docname="wK.svg"
   inkscape:version="0.92.4 (5da689c313, 2019-01-14)">
  <metadata
     id="metadata17">
    <rdf:RDF>
      <cc:Work
         rdf:about="">
        <dc:format>image/svg+xml</dc:format>
        <dc:type
           rdf:resource="http://purl.org/dc/dcmitype/StillImage" />
      </cc:Work>
    </rdf:RDF>
  </metadata>
  <defs
     id="defs15">
    <clipPath
       clipPathUnits="userSpaceOnUse"
       id="clipPath1574-7-5">
      <path
         style="opacity:0.03999999;fill:#ffffff;fill-opacity:1;stroke:#000000;stroke-width:0.26458332px;stroke-linecap:butt;stroke-linejoin:miter;stroke-opacity:1"
         d="m 475.65439,117.99476 c 2.93706,4.38098 -0.95739,18.47021 2.18424,24.53438 9.61747,17.12089 2.16427,16.29369 -11.46119,17.62547 -0.39508,2.82461 25.04315,3.08876 27.47631,0.36807 2.5199,-3.67231 2.99583,-8.26777 3.83686,-12.53181 0.91154,-4.97557 2.16035,-10.04246 1.35739,-15.12943 -0.17171,-9.84028 -21.59262,-20.19748 -23.39361,-14.86668 z"
         id="path1576-1-4"
         inkscape:connector-curvature="0"
         sodipodi:nodetypes="ccccccc" />
    </clipPath>
    <clipPath
       clipPathUnits="userSpaceOnUse"
       id="clipPath1574-7-2">
      <path
         style="opacity:0.03999999;fill:#ffffff;fill-opacity:1;stroke:#000000;stroke-width:0.26458332px;stroke-linecap:butt;stroke-linejoin:miter;stroke-opacity:1"
         d="m 475.65439,117.99476 c 2.93706,4.38098 -0.95739,18.47021 2.18424,24.53438 9.61747,17.12089 2.16427,16.29369 -11.46119,17.62547 -0.39508,2.82461 25.04315,3.08876 27.47631,0.36807 2.5199,-3.67231 2.99583,-8.26777 3.83686,-12.53181 0.91154,-4.97557 2.16035,-10.04246 1.35739,-15.12943 -0.17171,-9.84028 -21.59262,-20.19748 -23.39361,-14.86668 z"
         id="path1576-1-6"
         inkscape:connector-curvature="0"
         sodipodi:nodetypes="ccccccc" />
    </clipPath>
    <clipPath
       clipPathUnits="userSpaceOnUse"
       id="clipPath1574-7-2-8">
      <path
         style="opacity:0.03999999;fill:#ffffff;fill-opacity:1;stroke:#000000;stroke-width:0.26458332px;stroke-linecap:butt;stroke-linejoin:miter;stroke-opacity:1"
         d="m 475.65439,117.99476 c 2.93706,4.38098 -0.95739,18.47021 2.18424,24.53438 9.61747,17.12089 2.16427,16.29369 -11.46119,17.62547 -0.39508,2.82461 25.04315,3.08876 27.47631,0.36807 2.5199,-3.67231 2.99583,-8.26777 3.83686,-12.53181 0.91154,-4.97557 2.16035,-10.04246 1.35739,-15.12943 -0.17171,-9.84028 -21.59262,-20.19748 -23.39361,-14.86668 z"
         id="path1576-1-6-2"
         inkscape:connector-curvature="0"
         sodipodi:nodetypes="ccccccc" />
    </clipPath>
    <clipPath
       clipPathUnits="userSpaceOnUse"
       id="clipPath1574-7-2-7">
      <path
         style="opacity:0.03999999;fill:#ffffff;fill-opacity:1;stroke:#000000;stroke-width:0.26458332px;stroke-linecap:butt;stroke-linejoin:miter;stroke-opacity:1"
         d="m 475.65439,117.99476 c 2.93706,4.38098 -0.95739,18.47021 2.18424,24.53438 9.61747,17.12089 2.16427,16.29369 -11.46119,17.62547 -0.39508,2.82461 25.04315,3.08876 27.47631,0.36807 2.5199,-3.67231 2.99583,-8.26777 3.83686,-12.53181 0.91154,-4.97557 2.16035,-10.04246 1.35739,-15.12943 -0.17171,-9.84028 -21.59262,-20.19748 -23.39361,-14.86668 z"
         id="path1576-1-6-6"
         inkscape:connector-curvature="0"
         sodipodi:nodetypes="ccccccc" />
    </clipPath>
    <clipPath
       clipPathUnits="userSpaceOnUse"
       id="clipPath1574-7-2-3">
      <path
         style="opacity:0.03999999;fill:#ffffff;fill-opacity:1;stroke:#000000;stroke-width:0.26458332px;stroke-linecap:butt;stroke-linejoin:miter;stroke-opacity:1"
         d="m 475.65439,117.99476 c 2.93706,4.38098 -0.95739,18.47021 2.18424,24.53438 9.61747,17.12089 2.16427,16.29369 -11.46119,17.62547 -0.39508,2.82461 25.04315,3.08876 27.47631,0.36807 2.5199,-3.67231 2.99583,-8.26777 3.83686,-12.53181 0.91154,-4.97557 2.16035,-10.04246 1.35739,-15.12943 -0.17171,-9.84028 -21.59262,-20.19748 -23.39361,-14.86668 z"
         id="path1576-1-6-3"
         inkscape:connector-curvature="0"
         sodipodi:nodetypes="ccccccc" />
    </clipPath>
    <clipPath
       clipPathUnits="userSpaceOnUse"
       id="clipPath1457">
      <path
         style="fill:#000000;fill-opacity:1;stroke:#000000;stroke-width:0.26458332px;stroke-linecap:butt;stroke-linejoin:miter;stroke-opacity:1"
         d="m 64.261638,20.237303 c -1.195822,10.204877 3.678197,15.640425 5.741894,23.888903 0.806641,2.724753 3.407064,6.956657 1.941632,9.615008 -2.590813,5.033997 -10.32242,6.695734 -15.874048,6.173319 7.716687,3.748387 23.078795,2.316065 28.778489,-1.701329 3.17137,-2.54445 4.843642,-6.660835 4.674155,-10.687023 0.661821,-6.536404 -0.163904,-13.149406 -1.879496,-19.467328 -1.29072,-2.442828 -3.025826,-4.656698 -4.980557,-6.594446 -2.88109,-2.107842 -6.524543,-2.71882 -9.9603,-3.290209 -2.520064,-0.20618 -5.308079,-0.341994 -7.424605,1.296637 -0.369065,0.211295 -0.721006,0.459108 -1.017164,0.766425 z"
         id="path1459"
         inkscape:connector-curvature="0"
         sodipodi:nodetypes="cccccccccccc" />
    </clipPath>
    <clipPath
       clipPathUnits="userSpaceOnUse"
       id="clipPath1457-7">
      <path
         style="fill:#000000;fill-opacity:1;stroke:#000000;stroke-width:0.26458332px;stroke-linecap:butt;stroke-linejoin:miter;stroke-opacity:1"
         d="m 64.261638,20.237303 c -1.195822,10.204877 3.678197,15.640425 5.741894,23.888903 0.806641,2.724753 3.407064,6.956657 1.941632,9.615008 -2.590813,5.033997 -10.32242,6.695734 -15.874048,6.173319 7.716687,3.748387 23.078795,2.316065 28.778489,-1.701329 3.17137,-2.54445 4.843642,-6.660835 4.674155,-10.687023 0.661821,-6.536404 -0.163904,-13.149406 -1.879496,-19.467328 -1.29072,-2.442828 -3.025826,-4.656698 -4.980557,-6.594446 -2.88109,-2.107842 -6.524543,-2.71882 -9.9603,-3.290209 -2.520064,-0.20618 -5.308079,-0.341994 -7.424605,1.296637 -0.369065,0.211295 -0.721006,0.459108 -1.017164,0.766425 z"
         id="path1459-6"
         inkscape:connector-curvature="0"
         sodipodi:nodetypes="cccccccccccc" />
    </clipPath>
    <clipPath
       id="clipPath1457-7-5"
       clipPathUnits="userSpaceOnUse">
      <path
         sodipodi:nodetypes="cccccccccccc"
         inkscape:connector-curvature="0"
         id="path1459-6-0"
         d="m 64.261638,20.237303 c -1.195822,10.204877 3.678197,15.640425 5.741894,23.888903 0.806641,2.724753 3.407064,6.956657 1.941632,9.615008 -2.590813,5.033997 -10.32242,6.695734 -15.874048,6.173319 7.716687,3.748387 23.078795,2.316065 28.778489,-1.701329 3.17137,-2.54445 4.843642,-6.660835 4.674155,-10.687023 0.661821,-6.536404 -0.163904,-13.149406 -1.879496,-19.467328 -1.29072,-2.442828 -3.025826,-4.656698 -4.980557,-6.594446 -2.88109,-2.107842 -6.524543,-2.71882 -9.9603,-3.290209 -2.520064,-0.20618 -5.308079,-0.341994 -7.424605,1.296637 -0.369065,0.211295 -0.721006,0.459108 -1.017164,0.766425 z"
         style="fill:#000000;fill-opacity:1;stroke:#000000;stroke-width:0.26458332px;stroke-linecap:butt;stroke-linejoin:miter;stroke-opacity:1" />
    </clipPath>
    <clipPath
       id="clipPath1457-7-6"
       clipPathUnits="userSpaceOnUse">
      <path
         sodipodi:nodetypes="cccccccccccc"
         inkscape:connector-curvature="0"
         id="path1459-6-5"
         d="m 64.261638,20.237303 c -1.195822,10.204877 3.678197,15.640425 5.741894,23.888903 0.806641,2.724753 3.407064,6.956657 1.941632,9.615008 -2.590813,5.033997 -10.32242,6.695734 -15.874048,6.173319 7.716687,3.748387 23.078795,2.316065 28.778489,-1.701329 3.17137,-2.54445 4.843642,-6.660835 4.674155,-10.687023 0.661821,-6.536404 -0.163904,-13.149406 -1.879496,-19.467328 -1.29072,-2.442828 -3.025826,-4.656698 -4.980557,-6.594446 -2.88109,-2.107842 -6.524543,-2.71882 -9.9603,-3.290209 -2.520064,-0.20618 -5.308079,-0.341994 -7.424605,1.296637 -0.369065,0.211295 -0.721006,0.459108 -1.017164,0.766425 z"
         style="fill:#000000;fill-opacity:1;stroke:#000000;stroke-width:0.26458332px;stroke-linecap:butt;stroke-linejoin:miter;stroke-opacity:1" />
    </clipPath>
    <clipPath
       id="clipPath1574-7-2-3-3"
       clipPathUnits="userSpaceOnUse">
      <path
         sodipodi:nodetypes="ccccccc"
         inkscape:connector-curvature="0"
         id="path1576-1-6-3-8"
         d="m 475.65439,117.99476 c 2.93706,4.38098 -0.95739,18.47021 2.18424,24.53438 9.61747,17.12089 2.16427,16.29369 -11.46119,17.62547 -0.39508,2.82461 25.04315,3.08876 27.47631,0.36807 2.5199,-3.67231 2.99583,-8.26777 3.83686,-12.53181 0.91154,-4.97557 2.16035,-10.04246 1.35739,-15.12943 -0.17171,-9.84028 -21.59262,-20.19748 -23.39361,-14.86668 z"
         style="opacity:0.03999999;fill:#ffffff;fill-opacity:1;stroke:#000000;stroke-width:0.26458332px;stroke-linecap:butt;stroke-linejoin:miter;stroke-opacity:1" />
    </clipPath>
  </defs>
  <sodipodi:namedview
     pagecolor="#ffffff"
     bordercolor="#666666"
     borderopacity="1"
     objecttolerance="10"
     gridtolerance="10"
     guidetolerance="10"
     inkscape:pageopacity="0"
     inkscape:pageshadow="2"
     inkscape:window-width="1920"
     inkscape:window-height="1001"
     id="namedview13"
     showgrid="false"
     inkscape:zoom="4.8838399"
     inkscape:cx="100.82771"
     inkscape:cy="48.058105"
     inkscape:window-x="-9"
     inkscape:window-y="-9"
     inkscape:window-maximized="1"
     inkscape:current-layer="svg11" />
  <linearGradient
     id="a"
     gradientUnits="userSpaceOnUse"
     x1="21.376"
     x2="77.641"
     y1="37.346"
     y2="37.346">
    <stop
       offset="0"
       stop-color="#fff"
       id="stop2" />
    <stop
       offset="1"
       stop-color="#fff"
       stop-opacity="0"
       id="stop4" />
  </linearGradient>
  <g
     style="shape-rendering:crispEdges"
     id="g3123"
     transform="matrix(0.26709547,0,0,0.26390944,-469.76469,-508.53709)">
    <path
       id="path826-5-7"
       d="m 1858.4644,1985.8427 h -12.234 v -21.7957 h -14.3686 c -3.8789,0 -5.825,-1.8242 -5.825,-5.5127 v -0.1676 c 0,-3.6349 1.9461,-5.4523 5.825,-5.4523 h 14.3614 v -14.1371 c 0,-3.9232 2.0648,-5.848 6.1868,-5.848 3.9968,0 6.0544,1.9248 6.0544,5.848 v 14.1371 h 14.8342 c 3.7679,0 5.6516,1.8107 5.6516,5.4523 v 0.1676 c 0,3.6885 -1.8837,5.506 -5.6516,5.506 l -14.7159,0.1743 z"
       inkscape:connector-curvature="0"
       style="clip-rule:evenodd;fill:#e1e1e1;fill-opacity:1;fill-rule:evenodd;stroke:#3a3a3a;stroke-width:4.15748072;stroke-miterlimit:4;stroke-dasharray:none;stroke-opacity:1;image-rendering:optimizeQuality;shape-rendering:geometricPrecision;text-rendering:geometricPrecision" />
    <path
       sodipodi:nodetypes="cccccccccccccccccccccccccccccc"
       inkscape:connector-curvature="0"
       id="path996-7"
       d="m 1792.7399,2042.6661 c -1.4649,-0.7207 -3.222,-1.9108 -5.1753,-3.6294 -2.2326,-1.7788 -4.4149,-3.6151 -6.5446,-5.5069 -1.5614,-1.3882 -2.9779,-2.9195 -4.2297,-4.5719 -3.8801,-5.1263 -6.0643,-11.328 -6.4872,-18.6164 -0.6535,-7.0112 2.3112,-14.0224 8.8558,-21.0003 6.6097,-6.9484 15.5615,-10.2304 26.7935,-9.7943 4.1987,0.2514 9.1513,1.2197 14.781,2.942 1.8572,0.7207 3.7451,1.4414 5.6983,2.1288 l 5.7604,2.1585 c 1.011,0.5026 1.9227,1.0016 2.6722,1.471 -0.3213,-1.2591 -0.4865,-2.5509 -0.4884,-3.8475 0.5216,-9.9312 8.8339,-11.2346 18.0341,-11.4703 10.2455,0.5028 17.8114,2.5607 17.938,11.3742 0,0.972 -0.1323,2.2545 -0.3882,3.8512 0.8765,-0.5323 1.7571,-1.0016 2.5724,-1.3786 2.9298,-1.2197 6.7676,-2.6611 11.5547,-4.2873 5.472,-1.7815 10.3862,-2.7831 14.781,-3.0344 11.232,-0.5026 20.1528,2.7831 26.6975,9.7943 6.4138,6.9779 9.4091,13.9891 8.9518,20.9966 -0.4887,7.2921 -2.7035,13.4901 -6.5757,18.6201 -1.2687,1.6595 -2.7031,3.1896 -4.2988,4.631 -2.0757,1.8704 -4.204,3.6858 -6.3829,5.4441 -2.0802,1.7223 -3.8721,2.942 -5.3374,3.6294 -1.4612,0.6875 -2.307,1.2825 -2.5723,1.6891 -0.049,0.1038 -0.1097,0.1999 -0.1928,0.2846 -0.064,0.063 -0.098,0.1256 -0.098,0.1848 -4.8276,17.6427 -1.5787,22.5518 3.2568,39.868 -26.5523,19.578 -94.9689,19.6915 -119.7089,-0.3437 2.9945,-13.0646 10.498,-36.7852 0.136,-41.5867 z"
       style="clip-rule:evenodd;fill:#fafafa;fill-opacity:1;fill-rule:evenodd;stroke:#3a3a3a;stroke-width:4.15748072;stroke-miterlimit:4;stroke-dasharray:none;stroke-opacity:1;image-rendering:optimizeQuality;shape-rendering:geometricPrecision;text-rendering:geometricPrecision" />
    <g
       transform="matrix(3.8452152,0,0,3.6959367,-2270.513,1433.0795)"
       style="clip-rule:evenodd;fill:#464646;fill-opacity:1;fill-rule:evenodd;stroke-width:1.20308471;stroke-miterlimit:4;stroke-dasharray:none;image-rendering:optimizeQuality;shape-rendering:geometricPrecision;text-rendering:geometricPrecision"
       id="g1044-5-8">
      <path
         style="clip-rule:evenodd;fill:#464646;fill-opacity:1;fill-rule:evenodd;stroke:none;stroke-width:1.20308471;stroke-miterlimit:4;stroke-dasharray:none;stroke-opacity:1;image-rendering:optimizeQuality;shape-rendering:geometricPrecision;text-rendering:geometricPrecision"
         d="m 1071.3336,163.52826 c 0,-0.66 -0.017,-1.575 -0.05,-2.735 -0.034,-1.168 -0.161,-2.142 -0.373,-2.92 -0.677,-2.21 -1.702,-3.997 -3.082,-5.351 -0.711,-0.695 -1.795,-1.347 -3.268,-1.94 -1.685,-0.66 -3.285,-0.99 -4.792,-0.99 -2.608,0 -4.547,0.931 -5.8,2.803 -0.711,0.99 -1.067,2.235 -1.067,3.716 0,1.626 0.398,2.955 1.186,3.997 0.415,0.592 1.21,1.329 2.387,2.21 1.169,0.872 2.168,1.684 2.972,2.43 1.44,-0.314 3.065,-0.585 4.877,-0.822 1.812,-0.229 4.149,-0.364 7.01,-0.398 z"
         id="path1193-5-4"
         inkscape:connector-curvature="0" />
      <path
         style="clip-rule:evenodd;fill:#464646;fill-opacity:1;fill-rule:evenodd;stroke:none;stroke-width:1.20308471;stroke-miterlimit:4;stroke-dasharray:none;stroke-opacity:1;image-rendering:optimizeQuality;shape-rendering:geometricPrecision;text-rendering:geometricPrecision"
         d="m 1085.1176,175.23904 -0.737,-5.76772 c -3.225,-1.44882 -7.281,-2.18307 -12.158,-2.18307 -4.826,0 -8.864,0.73425 -12.107,2.18503 l -0.787,5.81497 c 3.14,-1.88188 7.442,-2.83268 12.92,-2.83268 2.624,0 5.071,0.26772 7.315,0.78347 2.252,0.51575 4.106,1.18308 5.554,2 z"
         id="path1191-4-4"
         inkscape:connector-curvature="0" />
      <path
         style="clip-rule:evenodd;fill:#464646;fill-opacity:1;fill-rule:evenodd;stroke:none;stroke-width:1.20308471;stroke-miterlimit:4;stroke-dasharray:none;stroke-opacity:1;image-rendering:optimizeQuality;shape-rendering:geometricPrecision;text-rendering:geometricPrecision"
         d="m 1073.1116,163.55426 c 2.845,0.05 5.182,0.194 7.002,0.423 1.812,0.229 3.455,0.508 4.91,0.821 0.907,-0.897 1.914,-1.744 3.023,-2.557 1.109,-0.813 1.888,-1.507 2.337,-2.083 0.788,-1.075 1.186,-2.413 1.186,-4.021 0,-1.465 -0.356,-2.701 -1.067,-3.692 -1.27,-1.87 -3.218,-2.802 -5.825,-2.802 -1.524,0 -3.108,0.33 -4.767,0.99 -1.507,0.593 -2.59,1.237 -3.277,1.93 -1.405,1.364 -2.43,3.15 -3.073,5.36 -0.246,0.762 -0.381,1.727 -0.407,2.904 -0.026,1.177 -0.042,2.083 -0.042,2.727 z"
         id="path1187-6-1"
         inkscape:connector-curvature="0" />
    </g>
    <path
       inkscape:connector-curvature="0"
       id="path998-7-7"
       d="m 1862.7999,2030.4326 c 0,-1.7852 0.2305,-4.2873 0.6153,-7.5767 0.4267,-3.2524 1.0768,-5.8211 1.957,-7.6654 2.3766,-4.9451 5.7294,-9.5133 10.1246,-13.7378 1.2688,-1.2196 4.0067,-2.8791 8.2058,-4.9451 a 29.435123,28.292396 0 0 1 13.2506,-2.942 c 3.5758,0 7.0942,0.5951 10.6435,1.7851 3.5184,1.1901 6.1867,3.0048 7.9442,5.4774 1.5957,2.066 2.411,5.4109 2.411,10.0751 0,3.659 -1.5651,7.0704 -4.6912,10.2637 a 155.15444,149.13105 0 0 1 -6.5752,6.102 c -2.3456,2.0327 -4.622,4.4425 -6.7676,7.1959 -3.6839,-1.2196 -8.8249,-2.1879 -15.4043,-2.8458 -6.5752,-0.6875 -13.8039,-1.0645 -21.7137,-1.1901 z"
       style="clip-rule:evenodd;fill:#fafafa;fill-opacity:1;fill-rule:evenodd;stroke:none;stroke-width:4.53543377;stroke-linecap:round;stroke-linejoin:round;stroke-miterlimit:4;stroke-dasharray:none;stroke-opacity:1;paint-order:fill markers stroke;image-rendering:optimizeQuality;shape-rendering:geometricPrecision;text-rendering:geometricPrecision" />
    <path
       inkscape:connector-curvature="0"
       id="path1197-9-8"
       d="m 1841.7358,2030.4289 c -7.9442,0.1256 -15.2039,0.5026 -21.8139,1.1901 -6.5753,0.6579 -11.6512,1.6262 -15.3003,2.8458 a 72.955269,70.123008 0 0 0 -6.6096,-6.8522 126.91902,121.99178 0 0 1 -6.6407,-6.4457 c -3.1918,-3.1305 -4.7527,-6.5418 -4.7527,-10.2637 0,-4.6014 0.7805,-7.9462 2.3762,-10.0751 1.6921,-2.4763 4.3642,-4.2873 7.9135,-5.4774 a 32.630497,31.363719 0 0 1 10.7743,-1.7851 c 4.591,0 8.9515,0.972 13.1505,2.942 4.1375,2.0697 6.8716,3.7255 8.2058,4.9451 4.3298,4.2245 7.7174,8.7964 10.1246,13.7378 0.8152,1.848 1.4343,4.413 1.8572,7.6654 0.423,3.2894 0.6535,5.7915 0.7151,7.5767 z"
       style="clip-rule:evenodd;fill:#fafafa;fill-opacity:1;fill-rule:evenodd;stroke:none;stroke-width:4.53543377;stroke-linecap:round;stroke-linejoin:round;stroke-miterlimit:4;stroke-dasharray:none;stroke-opacity:1;paint-order:fill markers stroke;image-rendering:optimizeQuality;shape-rendering:geometricPrecision;text-rendering:geometricPrecision" />
    <g
       style="clip-rule:evenodd;opacity:0.07999998;fill:#000000;fill-opacity:1;fill-rule:evenodd;stroke:none;stroke-width:1.20308471;stroke-miterlimit:4;stroke-dasharray:none;stroke-opacity:1;image-rendering:optimizeQuality;shape-rendering:geometricPrecision;text-rendering:geometricPrecision"
       clip-path="url(#clipPath1574-7-2-3-3)"
       transform="matrix(3.8452152,0,0,3.6959367,20.640488,1492.9167)"
       id="g1568-5-2">
      <path
         style="clip-rule:evenodd;fill:#000000;fill-opacity:1;fill-rule:evenodd;stroke:none;stroke-width:1.20308471;stroke-miterlimit:4;stroke-dasharray:none;stroke-opacity:1;image-rendering:optimizeQuality;shape-rendering:geometricPrecision;text-rendering:geometricPrecision"
         d="m 460.85872,148.74428 c -0.381,-0.195 -0.838,-0.517 -1.346,-0.982 -0.58061,-0.48129 -1.14815,-0.97814 -1.702,-1.49 -0.406,-0.3756 -0.77441,-0.7899 -1.1,-1.237 -1.009,-1.387 -1.577,-3.065 -1.687,-5.037 -0.17,-1.897 0.601,-3.794 2.303,-5.682 1.719,-1.88 4.047,-2.768 6.968,-2.65 1.092,0.068 2.38,0.33 3.844,0.796 0.483,0.195 0.974,0.39 1.482,0.576 l 1.498,0.584 c 0.263,0.136 0.5,0.271 0.695,0.398 -0.0839,-0.34066 -0.12651,-0.69017 -0.127,-1.041 0.13559,-2.68705 2.29725,-3.03971 4.69,-3.10349 2.66435,0.13606 4.6321,0.69284 4.665,3.07749 0,0.263 -0.034,0.61 -0.101,1.042 0.228,-0.144 0.457,-0.271 0.669,-0.373 0.762,-0.33 1.76,-0.72 3.005,-1.16 1.423,-0.482 2.701,-0.753 3.844,-0.821 2.921,-0.136 5.241,0.753 6.943,2.65 1.668,1.888 2.447,3.785 2.328,5.681 -0.127,1.973 -0.703,3.65 -1.71,5.038 -0.33,0.449 -0.703,0.863 -1.118,1.253 -0.53977,0.50607 -1.09332,0.99726 -1.66,1.473 -0.541,0.466 -1.007,0.796 -1.388,0.982 -0.38,0.186 -0.6,0.347 -0.669,0.457 -0.0125,0.0281 -0.0294,0.0541 -0.05,0.077 -0.017,0.017 -0.026,0.034 -0.026,0.05 -1.25548,4.77355 -0.4106,6.10179 0.847,10.787 -6.90542,5.29715 -24.69803,5.32788 -31.132,-0.093 0.77883,-3.53487 2.73024,-9.95288 0.035,-11.252 z"
         id="path996-9-0"
         inkscape:connector-curvature="0"
         sodipodi:nodetypes="cccccccccccccccccccccccccccccc" />
    </g>
  </g>
</svg>
