<svg width="50mm" height="50mm" clip-rule="evenodd" fill-rule="evenodd" image-rendering="optimizeQuality" shape-rendering="geometricPrecision" text-rendering="geometricPrecision" version="1.1" viewBox="0 0 50 50" xmlns="http://www.w3.org/2000/svg">
 <g transform="matrix(.31191 0 0 .31202 -734.07 -14.993)">
  <path d="m2433.5 66c-3 0-4.5 1.5004-4.5 4.4004v10.6h-10.699c-2.9 0-4.3008 1.3004-4.3008 3.9004v0.099609c0 2.7 1.4008 4 4.3008 4h10.699v7.2441c-4.9066 0.67142-8.693 2.5766-9 8.2559 0 1 0.2004 2.0004 0.4004 2.9004-0.5-0.4-1.2-0.69961-2-1.0996l-4.4004-1.6016c-1.5-0.5-2.9008-1.0996-4.3008-1.5996-4.3-1.3-7.9992-1.9992-11.199-2.1992-8.5-0.4-15.301 2.0988-20.301 7.2988s-7.1992 10.501-6.6992 15.701c0.3 5.4 2.0004 10.1 4.9004 13.9 0.9 1.2 1.9992 2.3984 3.1992 3.3984 1.7 1.4 3.3 2.8016 5 4.1016 1.5 1.3 2.8004 2.1992 3.9004 2.6992 7.9 3.6 4.2 21.3 2 31.1 18.7 15 66.5 14.901 86.6 0.30078-3.7-12.9-4.2-16.601-0.5-29.801l0.1-0.0996c0-0.1 0.1016-0.0992 0.1016-0.19922 0.2-0.3 0.7984-0.80078 1.8984-1.3008s2.4-1.3992 4-2.6992 3.2008-2.7016 4.8008-4.1016c1.3-1.1 2.3008-2.3 3.3008-3.5 3-3.8 4.6-8.3984 5-13.898 0.3-5.2-1.9008-10.501-6.8008-15.701s-11.699-7.6988-20.199-7.2988c-3.3 0.2-7.1012 0.99883-11.201 2.2988-3.6 1.2-6.4992 2.3012-8.6992 3.2012-0.6 0.3-1.2004 0.6-1.9004 1 0.2-1.2 0.3008-2.2004 0.3008-2.9004-0.081-5.326-3.8108-7.3295-9.3457-8.1152l0.0445-7.1856 11.6-0.099609c2.9 0 4.4004-1.3 4.4004-4v-0.09961c0-2.6-1.5004-3.9004-4.4004-3.9004h-11.6v-10.6c0-3-1.6-4.4004-4.5-4.4004z" fill="#fafafa" stroke="#3a3a3a" stroke-width="3.8466"/>
  <g stroke-width=".84812">
   <g transform="matrix(3.8817 0 0 3.6865 -917.16 -411.2)" fill="#464646">
    <path class="st32" d="m862.6 150.5v-2.1c0-0.9-0.1-1.6-0.3-2.2-0.5-1.7-1.3-3-2.3-4-0.5-0.5-1.3-1-2.5-1.5-1.3-0.5-2.5-0.7-3.6-0.7-2 0-3.4 0.7-4.4 2.1-0.5 0.7-0.8 1.7-0.8 2.8 0 1.2 0.3 2.2 0.9 3 0.3 0.4 0.9 1 1.8 1.7s1.6 1.3 2.2 1.8c1.1-0.2 2.3-0.4 3.7-0.6 1.4-0.1 3.1-0.2 5.3-0.3z"/>
    <path class="st32" d="m872.44 159.3-0.57183-4.3c-2.2873-1.1-5.2418-1.6-8.6728-1.6s-6.2901 0.6-8.6728 1.6l-0.57183 4.4c2.2873-1.4 5.3371-2.1 9.2446-2.1 1.9061 0 3.6216 0.2 5.2418 0.6 1.6202 0.3 2.9544 0.8 4.0028 1.4z"/>
    <path class="st32" d="m863.9 150.6c2.1 0 3.9 0.1 5.3 0.3s2.6 0.4 3.7 0.6c0.7-0.7 1.4-1.3 2.3-1.9 0.8-0.6 1.4-1.1 1.8-1.6 0.6-0.8 0.9-1.8 0.9-3 0-1.1-0.3-2-0.8-2.8-1-1.4-2.4-2.1-4.4-2.1-1.1 0-2.3 0.2-3.6 0.7-1.1 0.4-1.9 0.9-2.5 1.4-1.1 1-1.8 2.4-2.3 4-0.2 0.6-0.3 1.3-0.3 2.2-0.1 1-0.1 1.7-0.1 2.2z"/>
   </g>
   <path class="st15" d="m2441.5 138.5c0-1.3 0.2-3.2 0.5-5.7 0.3-2.4 0.8-4.4 1.5-5.7 1.8-3.7 4.3-7.1 7.7-10.3 1-0.9 3-2.2 6.2-3.7 3.1-1.5 6.6-2.2 10-2.2 2.7 0 5.4 0.4 8.1 1.3s4.7 2.2 6 4.1c1.2 1.5 1.8 4 1.8 7.5 0 2.7-1.2 5.3-3.6 7.7-1.6 1.6-3.3 3.1-5 4.6-1.8 1.5-3.5 3.3-5.1 5.4-2.8-0.9-6.7-1.6-11.7-2.1-4.9-0.6-10.4-0.8-16.4-0.9z" fill="#fafafa"/>
   <path class="st15" d="m2426 138.5c-6 0.1-11.5 0.4-16.5 0.9s-8.8 1.2-11.6 2.1c-1.5-1.8-3.2-3.5-5-5.1-1.7-1.5-3.4-3.2-5-4.8-2.4-2.3-3.6-4.9-3.6-7.7 0-3.4 0.6-5.9 1.8-7.5 1.3-1.9 3.3-3.2 6-4.1 2.6-0.9 5.4-1.3 8.2-1.3 3.5 0 6.8 0.7 10 2.2 3.1 1.5 5.2 2.8 6.2 3.7 3.3 3.2 5.8 6.6 7.7 10.3 0.6 1.4 1.1 3.3 1.4 5.7 0.2 2.4 0.4 4.2 0.4 5.6z" fill="#fafafa"/>
  </g>
 </g>
</svg>
