<svg width="50mm" height="50mm" clip-rule="evenodd" fill-rule="evenodd" image-rendering="optimizeQuality" shape-rendering="geometricPrecision" text-rendering="geometricPrecision" version="1.1" viewBox="0 0 50 50" xmlns="http://www.w3.org/2000/svg">
 <g transform="matrix(.31266 0 0 .32935 -691.67 -18.065)">
  <path class="st31" d="m2292.9 71.9h-0.6c-1.9 0.1-3.6 0.9-4.9 2.2-1 1-1.7 2.2-2 3.4-0.2 0.7-0.3 1.4-0.3 2.1s0.1 1.5 0.3 2.2c0 0.2 0.1 0.3 0.2 0.5 0 0.1 0 0.1 0.1 0.2 0.4 1 1 1.9 1.8 2.7 0.9 0.9 1.8 1.5 2.9 1.8-8.1 42.6-7 46-22.3 2.7 0.5-0.3 0.9-0.6 1.3-1 1.4-1.4 2.1-3 2.1-5 0-1.9-0.7-3.6-2.1-5s-3.1-2.1-5-2.1c-2 0-3.7 0.7-5.1 2.1s-2.1 3-2.1 5 0.7 3.6 2.1 5c1.1 1 2.3 1.7 3.7 1.9-0.4 39.8 1.2 42.5-19.9 5.3 1.1-1.1 1.7-2.4 1.7-4 0-1.5-0.6-2.9-1.7-4s-2.5-1.7-4.1-1.7-2.9 0.5-4 1.7c-1.1 1.1-1.7 2.4-1.7 4s0.6 2.9 1.7 4 2.4 1.6 4 1.6h0.7l6 43.2 6.3 10.7c2.2 12.3 1.8 14.9-2.5 27.7 18.2 15 70.3 12.9 87.4 0.3-3.2-11.8-6-16.2-2.6-28.1l6.3-10.7 5.8-42.8c1.1-0.2 2.2-0.7 3-1.5 1.1-1.1 1.7-2.4 1.7-4 0-1.5-0.6-2.9-1.7-4s-2.5-1.7-4.1-1.7-2.9 0.5-4 1.7c-1.1 1.1-1.7 2.4-1.7 4s0.6 2.9 1.7 4c0.3 0.3 0.7 0.6 1.1 0.8-20.7 34.3-19.4 34.1-19.2-7 1.4-0.3 2.6-0.9 3.6-1.9 1.4-1.4 2.1-3 2.1-5 0-1.9-0.7-3.6-2.1-5s-3.1-2.1-5-2.1c-2 0-3.7 0.7-5.1 2.1s-2.1 3-2.1 5 0.7 3.6 2.1 5c0.5 0.4 1 0.8 1.5 1.1-16 42-14.6 41.8-22.3-2.3 1.1-0.4 2.1-1 2.9-1.8 1.6-1.5 2.3-3.4 2.3-5.5s-0.8-4-2.3-5.5c-1.9-1.5-3.8-2.3-5.9-2.3z" fill="#fafafa" stroke="#3a3a3a" stroke-width="3.7395"/>
  <path class="st32" d="m2329.5 146.3c-3.5721-2.2-8.7012-3.9-15.204-5.3s-13.739-2.1-21.616-2.1c-7.6938 0-14.746 0.7-21.158 2-6.4114 1.3-11.449 3-15.204 5.2l3.2973 9.7c3.6637-1.8 8.3349-3 14.197-3.8 5.7704-0.8 12.182-1.2 19.051-1.2 6.8695 0 13.281 0.4 19.143 1.2 5.8619 0.8 10.625 2.1 14.288 4z" fill="#464646" stroke-width=".82452"/>
  <path class="st32" d="m2329.7 177.1-2.1-12.8c-9.2-3.2-20.8-4.9-34.8-4.9-13.8 0-25.4 1.6-34.7 4.9l-2.3 12.9c9-4.2 21.3-6.3 37-6.3 7.5 0 14.5 0.6 20.9 1.7 6.6 1.2 11.9 2.7 16 4.5z" fill="#464646" stroke-width=".73871"/>
 </g>
</svg>
