<svg height="200" width="200" xmlns="http://www.w3.org/2000/svg" xmlns:xlink="http://www.w3.org/1999/xlink"><linearGradient id="b" gradientUnits="userSpaceOnUse" x1="420.278" x2="576.49" y1="265.428" y2="371.561"><stop offset="0" stop-color="#ede3de"/><stop offset="1" stop-color="#d0b090"/></linearGradient><linearGradient id="c" gradientUnits="userSpaceOnUse" x1="452.267" x2="550.4" xlink:href="#a" y1="325.41" y2="325.41"/><linearGradient id="a"><stop offset="0"/><stop offset="1"/></linearGradient><linearGradient id="d" gradientUnits="userSpaceOnUse" x1="426.743" x2="466.21" xlink:href="#a" y1="258.552" y2="258.552"/><linearGradient id="e" gradientUnits="userSpaceOnUse" x1="481.219" x2="518.019" xlink:href="#a" y1="255.886" y2="255.886"/><linearGradient id="f" gradientUnits="userSpaceOnUse" x1="540.648" x2="573.257" xlink:href="#a" y1="259.124" y2="259.124"/><linearGradient id="g" gradientUnits="userSpaceOnUse" x1="435.505" x2="530.971" xlink:href="#a" y1="378.819" y2="378.819"/><linearGradient id="h" gradientUnits="userSpaceOnUse" x1="539.124" x2="564.876" xlink:href="#a" y1="371.962" y2="371.962"/><path d="M0 0h200v200H0z" fill="none"/><g fill="url(#b)" fill-rule="evenodd" stroke-linecap="round" stroke-linejoin="round" stroke-width="3.657" transform="translate(-400 -200)"><path d="M454.095 270.552h94.476v109.715h-94.476z" stroke="url(#c)"/><path d="M428.571 240.076h35.81v36.953h-35.81z" stroke="url(#d)"/><path d="M483.048 248.076h33.142v15.62h-33.142z" stroke="url(#e)"/><path d="M542.476 231.314h28.953v55.62h-28.953z" stroke="url(#f)"/><path d="M437.333 371.2h91.81v15.238h-91.81z" stroke="url(#g)"/><path d="M540.952 357.105h22.096v29.714h-22.096z" stroke="url(#h)"/></g></svg>