<svg height="68" width="68" xmlns="http://www.w3.org/2000/svg"><path d="m24.848 39.728q-.384.704.192 1.28.576.576-.192 1.472-.704 1.024-2.624 2.752-1.856 1.728-3.2 2.304-2.176 1.28-4.48.192-1.152-.576-2.88-2.24-1.664-1.664-2.304-2.688-.768-1.024-.576-1.728.192-.704.064-1.664 0-.768-.384-1.088-.384-.384.384-2.496.768-1.92 3.264-6.336 2.496-4.416 3.2-6.528.704-1.92-.256-1.728-.896.128-.512-.896.384-1.152 1.408-3.072 1.024-1.984 1.856-2.944.896-.896 1.856-.704 1.024.128 1.792-1.152.704-1.216 1.344-3.776.704-2.56 1.472-4.672.96 1.984 2.048 3.776 1.088 1.792 2.24 2.24 2.88-1.088 6.912-.512 5.76.768 8.512 2.304 2.752 1.472 6.592 6.208 1.472 1.856 2.368 3.968.896 2.048 1.6 4.48.704 2.432 1.088 5.568.448 3.136.64 5.632 0 2.688-.192 4.992-.128 2.24 0 4.544v3.776q0 1.408.512 3.776.32 1.984 1.28 4.416.96 2.432 1.792 4.8h-40.192q-.832-1.664-.576-3.648 0-1.28.32-3.136t1.024-3.52q.576-1.472 1.536-2.816.96-1.408 2.048-2.688 2.048-3.2 3.84-5.12 1.536-1.728 3.264-3.2 1.792-1.472 3.328-3.392 1.344-2.112 1.664-3.712.192-.96-.064-2.624-.192-1.728-.512-1.664-.256.128-1.024 2.368-.768 2.24-1.472 3.008-.704 1.088-1.536 1.536-.768.384-1.344.768-.768.384-1.216.384-.384 0-.96.384-.704.512-1.664 1.344-.896.768-1.28 1.472zm2.624 7.488-3.84 5.248 8.448.64 3.84-4.032q1.92-1.92 3.904 0l4.096 4.16 9.408-.64q0-3.264.256-7.744.32-4.544.192-6.976-.128-2.496-.512-5.44-.32-3.008-1.024-5.184-1.28-4.288-3.648-7.424-1.408-1.536-2.624-2.752-1.152-1.216-2.944-2.624-2.112-.896-3.968-1.6-1.792-.704-3.904-.832-3.904-.448-6.592.576-2.112-.768-2.688-1.664-.512-.896-.832-1.856 0 2.752-1.408 4.48-.704.832-1.984 1.216-1.216.32-1.984 1.216-.832.96-1.664 2.496-.768 1.472-1.152 2.432-.192 1.088.64 1.088.832-.064.128 1.856-.704 1.984-3.264 6.528-2.496 4.48-3.2 6.4-.768 1.984-.32 1.92.512-.064.512.512 0 .576-.32 1.088-.256.448.32 1.088.576.832 2.112 2.304 1.536 1.408 2.368 1.856.768.448.96.448.192-.064 1.152-.64.768-.384 2.56-1.92t2.368-2.368q.704-.896.064-1.28-.576-.448-.192-1.152.384-.768 1.6-1.92 1.216-1.216 1.92-1.792.768-.576 1.28-.512.576 0 1.152-.384t1.088-.512q.512-.192 1.088-.896.448-.64 1.088-1.984.704-1.408 1.088-2.496.192-.896.448-1.664.32-.832 0-1.536-.512-.768-2.112-1.664-1.6-.896-1.408-1.28.064-.32 1.792-.32t2.816.768q.768.768 1.792 2.496t1.408 3.072q1.088 3.2.512 5.376-.512 2.304-2.368 4.48-1.28 1.984-3.008 3.584t-3.456 3.328q-1.408 1.408-1.984 2.432zm-5.056 8.512q-.384 1.344-.64 3.008t.32 2.816h33.216l-1.664-5.696-9.728.64-4.096 4.096q-1.984 1.728-3.904 0l-3.968-4.288zm15.552-4.352-3.392 3.392 3.392 3.52 3.392-3.52zm-15.232-28.288q.64.256 1.024.32.448.064.32.768 0 .256-.576.448-.512.128-.96.32-.448.256-1.088.448-.576.192-.768.32-1.088.32-1.536-.192-.256-.256-.256-1.216.064-.32.448-.832.448-.512.896-.512 1.728 0 2.496.128zm-10.304 14.272q.576 0 1.344.192.768.192.96.576 0 .512-.832 1.472-.832.896-1.216.704 0-.192.128-.576.128-.384.064-.768 0-.96-.448-1.6z"/><g fill="#fff" fill-rule="evenodd"><path d="m21.995 61.133c-.262-.689-.216-2.156.12-3.85l.297-1.5 1.203.096c1.915.15 6.953.448 7.654.45.586.003.814.195 2.73 2.298 1.361 1.493 2.345 2.411 2.819 2.63.72.332.654.335-6.96.339l-7.686.004zm16.914.152c.35-.169 1.659-1.301 2.909-2.517l2.272-2.21 4.707-.303c2.589-.166 4.737-.272 4.773-.236.06.06.6 1.84 1.407 4.626l.276.955-8.49-.004c-8.097-.004-8.461-.019-7.854-.311zm-2.637-4.776-1.632-1.639 1.678-1.678 1.678-1.678 1.63 1.622 1.63 1.623-1.506 1.637c-.828.9-1.583 1.663-1.677 1.694-.094.032-.905-.68-1.802-1.581z"/><path d="m41.889 51.137c-2.683-2.874-3.76-3.444-5.146-2.727-.281.145-1.445 1.257-2.586 2.47l-2.075 2.206-4.087-.312c-2.247-.172-4.113-.335-4.145-.363-.032-.027.941-1.427 2.163-3.112 1.756-2.421 2.93-3.786 5.61-6.517 5.593-5.7 7.127-8.3 6.868-11.637-.226-2.915-2.306-7.419-4.034-8.737-.717-.547-2.377-.878-3.573-.714-1.341.185-1.191.576.706 1.843 2.03 1.356 2.202 1.68 1.764 3.313-.414 1.542-1.37 3.834-2.134 5.113-.5.836-.805 1.111-1.863 1.677-.697.371-1.471.679-1.721.682-.615.009-1.31.466-2.805 1.844-1.286 1.184-2.286 2.534-2.286 3.084 0 .168.123.407.273.532.715.594 0 1.656-2.549 3.783-.933.78-2.109 1.641-2.612 1.915l-.916.498-.689-.355c-.954-.491-3.326-2.562-4.22-3.684-.78-.98-.86-1.278-.555-2.079.221-.581.075-1.17-.29-1.17a.265.265 0 0 1 -.26-.268c0-.794 1.646-4.286 4.375-9.277 1.726-3.157 2.74-5.475 2.776-6.348.027-.626-.027-.732-.424-.828-.719-.175-.667-.862.194-2.58 1.493-2.977 2.406-3.985 4.177-4.61.432-.152 1.052-.48 1.378-.73.712-.542 1.642-2.387 1.809-3.589l.12-.867.362.685c.53 1.003 1.007 1.457 2.055 1.952.928.44.942.44 2.01.134.81-.231 1.731-.303 3.713-.288 3.114.023 4.19.244 7.44 1.526 1.983.782 2.482 1.069 3.747 2.148 2.841 2.423 5.345 5.58 6.472 8.158 2.343 5.36 3.116 11.525 2.62 20.907-.153 2.882-.278 5.788-.278 6.458v1.22l-.592.093c-.325.051-2.022.178-3.772.282s-3.6.234-4.112.289l-.93.1zm-27.913-11.624c.937-1.016.967-1.478.12-1.832-.347-.144-.881-.263-1.188-.263-.52 0-.543.027-.34.406.119.223.212.877.207 1.454-.012 1.297.187 1.336 1.201.235zm8.205-14.325c1.709-.69 1.91-.818 1.91-1.224 0-.6-.943-.916-2.876-.965-1.357-.034-1.447-.01-1.866.475-.592.685-.61 1.805-.036 2.206.568.398.726.37 2.868-.492z"/></g></svg>