<svg xmlns="http://www.w3.org/2000/svg" xmlns:xlink="http://www.w3.org/1999/xlink" width="50mm" height="50mm" fill-rule="evenodd" clip-rule="evenodd" image-rendering="optimizeQuality" shape-rendering="geometricPrecision" text-rendering="geometricPrecision" viewBox="0 0 50 50"><defs><linearGradient id="a"><stop offset="0" stop-color="#666"/><stop offset="1" stop-color="#323232"/></linearGradient><linearGradient xlink:href="#a" id="c" x1="719.94" x2="742.36" y1="1208.7" y2="1208.7" gradientUnits="userSpaceOnUse"/><linearGradient id="d" x1="854.8" x2="868.03" y1="1429.4" y2="1429.4" gradientTransform="translate(-831.6 -1404.8)" gradientUnits="userSpaceOnUse"><stop offset="0"/><stop offset="1" stop-opacity="0"/></linearGradient><linearGradient xlink:href="#b" id="e" x1="850.54" x2="857.14" y1="1434.1" y2="1434.1" gradientTransform="translate(-835.57 -1408.8)" gradientUnits="userSpaceOnUse"/><linearGradient id="b"><stop offset="0" stop-color="#fff"/><stop offset="1" stop-color="#fff" stop-opacity="0"/></linearGradient><linearGradient xlink:href="#b" id="f" x1="858" x2="859.64" y1="1420.9" y2="1420.9" gradientTransform="translate(-835.57 -1408.8)" gradientUnits="userSpaceOnUse"/><linearGradient xlink:href="#a" id="g" x1="-20.75" x2="6.102" y1="544.53" y2="544.53" gradientTransform="translate(32.324 -502.01)" gradientUnits="userSpaceOnUse"/><linearGradient xlink:href="#a" id="h" x1="1911.6" x2="1938.4" y1="940.86" y2="940.86" gradientTransform="translate(-1900 -898.34)" gradientUnits="userSpaceOnUse"/><linearGradient xlink:href="#b" id="i" x1="7236" x2="7315.1" y1="3545.9" y2="3545.9" gradientTransform="translate(-1900 -898.34) scale(.26458)" gradientUnits="userSpaceOnUse"/></defs><path fill="url(#c)" stroke="url(#c)" stroke-width=".2" d="M731.15 1193.6c-2.034 0-3.683.839-3.683 1.874l1.465 2.529c-15.506 13.446-6.026 25.896-6.026 25.896h16.487s6.077-7.982.539-18.067l-4.326 6.406a.806.806 0 0 1-1.1.222l-2.621-1.671a.757.757 0 0 1-.229-1.068l5.41-8.01a34.269 34.269 0 0 0-3.698-3.708l1.465-2.53c0-1.034-1.649-1.873-3.683-1.873z" transform="translate(-705.82 -1184.2)"/><path fill="url(#d)" d="M25.323 9.421c-.789 0-1.518.128-2.117.343 2.449.454 4.385 1.411 4.385 1.411s-1.083 1.655-1.912 2.74l3.137 3.404c-3.533 7.864-3.117 8.647-3.117 8.647s2.24-3.547 5.54-8.434a34.27 34.27 0 0 0-3.697-3.708l1.465-2.529c0-1.035-1.65-1.873-3.684-1.873zm8.782 12.232-1.349 1.998c2.413 8.182-3.422 16.07-3.422 16.07h4.233s6.076-7.983.538-18.066z" opacity=".1"/><path fill="url(#e)" d="M15.473 34.212c-.212-.03-2.773-9.284 6.095-17.84-2.224 1.809-7.43 12.507-6.095 17.84z" opacity=".5"/><path fill="url(#f)" d="m24.048 13.989-1.612-2.853s.248-.487 1.637-.86c-.008.018-1.067.91-1.067.91z" opacity=".5"/><path fill="url(#g)" stroke="url(#h)" stroke-linejoin="round" stroke-width=".2" d="M25 38.545s-8.578.048-10.983 1.62c-1.623 1.06-2.006 2.063-1.785 4.735h25.536c.221-2.672-.162-3.676-1.785-4.736C33.58 38.594 25 38.545 25 38.545z"/><path fill="url(#i)" d="M23.572 39.124c-3.233.034-5.786.381-7.727.948 6.147-.438 12.256-.497 18.31 0-2.219-.648-5.236-1.009-9.155-.943-.49-.008-.966-.01-1.428-.005z" opacity=".5"/><path fill="none" stroke="#828282" stroke-width=".3" d="M25.33 9.4c-2.034 0-3.683.839-3.683 1.873l1.465 2.53C9.301 25.78 15.3 36.94 16.779 39.243c-1.155.225-2.155.525-2.762.921-1.622 1.06-2.005 2.064-1.784 4.736h25.536c.22-2.672-.163-3.676-1.785-4.736-.502-.327-1.279-.586-2.183-.795 1.022-1.54 5.22-8.798.311-17.737l-4.326 6.407a.807.807 0 0 1-1.1.221l-2.621-1.671a.757.757 0 0 1-.228-1.069l5.409-8.01a34.279 34.279 0 0 0-3.697-3.707l1.465-2.53c0-1.034-1.65-1.873-3.683-1.873z"/></svg>