<svg width="50mm" height="50mm" clip-rule="evenodd" fill-rule="evenodd" image-rendering="optimizeQuality" shape-rendering="geometricPrecision" text-rendering="geometricPrecision" version="1.1" viewBox="0 0 50 50" xmlns="http://www.w3.org/2000/svg" xmlns:xlink="http://www.w3.org/1999/xlink">
 <g transform="translate(-686.63 -1205.7)">
  <path d="m711.63 1210.3c-1.182 0-2.8379 0.9493-2.8379 2.1288v4.8612h-6.1265c-1.182 0-2.1334 1.6526-2.1334 2.832 0 1.1796 0.95921 2.9675 2.1334 2.8326h6.1265v7.3658c0 1.1795 1.656 2.1289 2.8379 2.1289 1.182 0 2.9405-0.9539 2.8379-2.1289v-7.3658h6.1272c1.182 0 2.1334-1.653 2.1334-2.8326 0-1.1794-0.95918-2.9667-2.1334-2.832h-6.1272v-4.8612c0-1.1795-1.6559-2.1288-2.8379-2.1288z" style="fill:#404040;paint-order:normal;stroke-linecap:round;stroke-linejoin:round;stroke-width:1.5;stroke:#141414"/>
  <path d="m703.37 1225.4c-2.8624 0-6.2821 3.7822-5.167 5.9594l3.9456 7.7043c1.1151 2.1773 2.3046 4.3121 5.167 4.3121h8.6194c2.8624 0 4.052-2.1348 5.167-4.3121l3.9456-7.7043c1.1151-2.1772-2.3046-5.9594-5.167-5.9594z" style="fill:#404040;paint-order:normal;stroke-linecap:round;stroke-linejoin:round;stroke-width:1.5;stroke:#141414"/>
  <rect x="698.54" y="1243.4" width="26.175" height="6.586" ry="3.293" style="fill:#404040;paint-order:normal;stroke-linecap:round;stroke-linejoin:round;stroke-width:1.5;stroke:#141414"/>
 </g>
</svg>
