<svg width="50mm" height="50mm" clip-rule="evenodd" fill-rule="evenodd" image-rendering="optimizeQuality" shape-rendering="geometricPrecision" text-rendering="geometricPrecision" version="1.1" viewBox="0 0 50 50" xmlns="http://www.w3.org/2000/svg" xmlns:xlink="http://www.w3.org/1999/xlink">
 <defs>
  <linearGradient id="linearGradient3667-3-5" x1="1002.5" x2="1041.7" y1="1382.5" y2="1382.5" gradientTransform="translate(-997.08 -1360.3)" gradientUnits="userSpaceOnUse" xlink:href="#FFF"/>
  <linearGradient id="FFF">
   <stop style="stop-color:#666666" offset="0"/>
   <stop style="stop-color:#323232" offset="1"/>
  </linearGradient>
  <linearGradient id="linearGradient3659-1-5" x1="1008.2" x2="1035.9" y1="1401.3" y2="1401.3" gradientTransform="translate(-997.08 -1360.3)" gradientUnits="userSpaceOnUse" xlink:href="#FFF"/>
 </defs>
 <path d="m19.456 6.7948c-2.2238 0-4.0261 1.753-4.0259 3.9146 0 1.775 1.2336 3.3262 2.9991 3.7795v8.6787l-4.9363-3.3544c0.4466-0.6453 0.6852-1.4052 0.6856-2.1828 0-2.162-1.8031-3.9149-4.0274-3.9148-2.2237 0-4.026 1.7532-4.0258 3.9148 0 2.1611 1.8027 3.9129 4.0258 3.9132 0.1978 0 0.3951-0.017 0.5907-0.045l6.4187 16.165h15.681l6.4172-16.165c0.1955 0.029 0.3929 0.044 0.5906 0.045 2.2232 0 4.0253-1.7521 4.0258-3.9132 0-2.1616-1.802-3.914-4.0258-3.9148-2.2244 0-4.0276 1.7528-4.0274 3.9148 0 0.7776 0.2391 1.5375 0.6856 2.1828l-4.9363 3.3544v-8.6787c1.7658-0.4533 2.9967-2.0045 2.9991-3.7795 0-2.1616-1.802-3.9142-4.0257-3.9146-2.2243 0-4.0276 1.7524-4.0273 3.9146 0 1.2775 0.6462 2.4737 1.7243 3.2041l-3.2406 7.9654-3.2425-7.9654c1.0783-0.7304 1.7219-1.9266 1.7245-3.2041 0-2.1622-1.803-3.915-4.0273-3.9146z" style="fill:url(#linearGradient3667-3-5);stroke-linejoin:round;stroke-width:1.5;stroke:#3a3a3a"/>
 <rect x="11.913" y="37.664" width="26.175" height="6.586" ry="3.293" style="fill:url(#linearGradient3659-1-5);paint-order:normal;stroke-linecap:round;stroke-linejoin:round;stroke-width:1.5;stroke:#3a3a3a"/>
 <path d="m39.849 13.716c-0.7779 0-1.5014 0.2178-2.1172 0.5891 6.4103 1.3409 3.3502 6.8195 0.33928 6.3258l-10.522 17.033h5.2917l6.4177-16.165c0.1955 0.029 0.39246 0.044 0.59015 0.045 2.2232 0 4.0256-1.7524 4.0261-3.9135 0-2.1615-1.8023-3.9136-4.0261-3.9144z" style="fill:#000000;opacity:.1"/>
 <path d="m12.19 41.222c-0.17695-0.4047-0.27646-0.8515-0.27646-1.3229 0-1.8244 1.4685-2.2346 3.2928-2.2346h19.589c1.8243 0 3.2928 0.4102 3.2928 2.2346 0 0.4714-0.0995 0.9182-0.27646 1.3229-0.50779-1.1615-1.6635-1.9699-3.0164-1.9699h-19.589c-1.3529 0-2.5086 0.8084-3.0164 1.9699z" style="fill:#000000;opacity:.1;paint-order:normal"/>
 <path d="m7.4625 19.384s-1.8356-2.5962 1.2402-4.6136c-0.66254 1.4187-1.273 2.8107-1.2402 4.6136z" style="fill:#ffffff;opacity:.5"/>
 <path d="m16.722 12.488s-1.8356-2.5962 1.2402-4.6136c-0.82301 1.1663-1.5385 2.6631-1.2402 4.6136z" style="fill:#ffffff;opacity:.5"/>
 <path d="m27.527 11.633s-1.0496-3.0013 2.4628-4.0937c-1.5759 1.211-2.4975 2.3767-2.4628 4.0937z" style="fill:#ffffff;opacity:.5"/>
 <path d="m36.727 18.503c0.058 0.029-0.98681-2.6411 2.2456-3.8614-1.116 0.89-2.069 1.4843-2.2456 3.8614z" style="fill:#ffffff;opacity:.5"/>
 <path d="m11.464 21.22 6.2508 15.676h1.1576z" style="fill:#ffffff;opacity:.5"/>
</svg>
