<svg xmlns="http://www.w3.org/2000/svg" xmlns:xlink="http://www.w3.org/1999/xlink" width="50mm" height="50mm" fill-rule="evenodd" clip-rule="evenodd" image-rendering="optimizeQuality" shape-rendering="geometricPrecision" text-rendering="geometricPrecision" viewBox="0 0 50 50"><defs><linearGradient id="a"><stop offset="0" stop-color="#666"/><stop offset="1" stop-color="#323232"/></linearGradient><linearGradient xlink:href="#a" id="c" x1="1003.1" x2="1041.1" y1="1382.5" y2="1382.5" gradientUnits="userSpaceOnUse"/><linearGradient id="d" x1="823.03" x2="839.36" y1="1432.8" y2="1432.8" gradientUnits="userSpaceOnUse"><stop offset="0"/><stop offset="1" stop-opacity="0"/></linearGradient><linearGradient xlink:href="#b" id="e" x1="806.63" x2="808.42" y1="1428.2" y2="1428.2" gradientUnits="userSpaceOnUse"/><linearGradient id="b"><stop offset="0" stop-color="#fff"/><stop offset="1" stop-color="#fff" stop-opacity="0"/></linearGradient><linearGradient xlink:href="#b" id="f" x1="815.89" x2="817.68" y1="1421.3" y2="1421.3" gradientUnits="userSpaceOnUse"/><linearGradient xlink:href="#b" id="g" x1="827.09" x2="829.7" y1="1420.7" y2="1420.7" gradientUnits="userSpaceOnUse"/><linearGradient xlink:href="#b" id="h" x1="836.33" x2="838.69" y1="1427.6" y2="1427.6" gradientUnits="userSpaceOnUse"/><linearGradient xlink:href="#b" id="i" x1="811.18" x2="818.59" y1="1440.1" y2="1440.1" gradientUnits="userSpaceOnUse"/><linearGradient xlink:href="#a" id="j" x1="-20.75" x2="6.102" y1="544.53" y2="544.53" gradientTransform="translate(2017.8 448.59)" gradientUnits="userSpaceOnUse"/><linearGradient xlink:href="#a" id="k" x1="1911.6" x2="1938.4" y1="940.86" y2="940.86" gradientTransform="translate(85.454 52.258)" gradientUnits="userSpaceOnUse"/><linearGradient xlink:href="#b" id="l" x1="7236" x2="7315.1" y1="3545.9" y2="3545.9" gradientTransform="translate(85.454 52.258) scale(.26458)" gradientUnits="userSpaceOnUse"/></defs><path fill="url(#c)" stroke="url(#c)" stroke-linejoin="round" stroke-width=".2" d="M1016.5 1367.1c-2.224 0-4.026 1.753-4.026 3.915 0 1.775 1.234 3.326 3 3.78v8.678l-4.937-3.355a3.837 3.837 0 0 0 .686-2.182c0-2.162-1.804-3.915-4.028-3.915-2.224 0-4.026 1.753-4.026 3.915 0 2.16 1.803 3.913 4.026 3.913.198 0 .395-.017.59-.045l6.42 16.165h15.68l6.418-16.165c.195.029.393.044.59.045 2.224 0 4.026-1.752 4.026-3.913 0-2.162-1.802-3.914-4.026-3.915-2.224 0-4.027 1.753-4.027 3.915 0 .777.239 1.537.686 2.182l-4.937 3.355v-8.679c1.766-.453 2.997-2.004 3-3.78 0-2.161-1.803-3.914-4.026-3.914-2.225 0-4.028 1.752-4.028 3.915 0 1.277.647 2.473 1.725 3.204l-3.241 7.965-3.242-7.965a3.884 3.884 0 0 0 1.724-3.204c0-2.163-1.803-3.915-4.027-3.915z" transform="translate(-997.097 -1358.4)"/><path fill="url(#d)" d="M835.33 1420.8c-.778 0-1.501.218-2.117.59 6.41 1.34 3.35 6.819.34 6.325l-10.523 17.033h5.292l6.417-16.165c.196.029.393.044.59.045 2.224 0 4.026-1.752 4.027-3.914 0-2.161-1.803-3.913-4.026-3.914z" opacity=".1" transform="translate(-795.507 -1405.211)"/><path fill="url(#e)" d="M807.18 1430.5s-1.836-2.596 1.24-4.614c-.662 1.42-1.273 2.811-1.24 4.614z" opacity=".5" transform="translate(-799.74 -1409.18)"/><path fill="url(#f)" d="M816.44 1423.6s-1.836-2.596 1.24-4.614c-.823 1.167-1.538 2.663-1.24 4.614z" opacity=".5" transform="translate(-799.74 -1409.18)"/><path fill="url(#g)" d="M827.24 1422.7s-1.05-3.001 2.463-4.094c-1.576 1.211-2.498 2.377-2.463 4.094z" opacity=".5" transform="translate(-799.74 -1409.18)"/><path fill="url(#h)" d="M836.44 1429.6c.058.029-.987-2.641 2.246-3.861-1.116.89-2.07 1.484-2.246 3.861z" opacity=".5" transform="translate(-799.74 -1409.18)"/><path fill="url(#i)" d="m811.18 1432.3 6.25 15.676h1.158z" opacity=".5" transform="translate(-799.74 -1409.18)"/><path fill="url(#j)" stroke="url(#k)" stroke-linejoin="round" stroke-width=".2" d="M2010.4 989.15s-8.578.048-10.983 1.62c-1.623 1.06-2.005 2.063-1.785 4.735h25.536c.221-2.672-.162-3.676-1.785-4.736-2.404-1.57-10.983-1.619-10.983-1.619z" transform="translate(-1985.4 -950.6)"/><path fill="url(#l)" d="M2009 989.73c-3.233.034-5.786.381-7.727.948 6.147-.438 12.256-.497 18.31 0-2.219-.648-5.236-1.009-9.155-.943-.49-.008-.966-.01-1.428-.005z" opacity=".5" transform="translate(-1985.4 -950.6)"/><path fill="none" stroke="#828282" stroke-linejoin="round" stroke-width=".3" d="M19.403 8.7c-2.224 0-4.026 1.754-4.026 3.915 0 1.775 1.234 3.327 3 3.78v8.678L13.44 21.72a3.837 3.837 0 0 0 .686-2.183c0-2.162-1.804-3.915-4.028-3.915-2.224 0-4.026 1.754-4.025 3.915 0 2.161 1.802 3.913 4.025 3.913.198 0 .395-.017.59-.045l6.279 15.81c-1.233.23-2.311.538-2.95.955-1.623 1.06-2.006 2.064-1.785 4.736h25.536c.22-2.672-.162-3.676-1.785-4.736-.655-.428-1.774-.74-3.047-.972l6.27-15.793c.195.03.393.044.59.045 2.223 0 4.025-1.752 4.026-3.913 0-2.161-1.802-3.914-4.026-3.915-2.224 0-4.028 1.753-4.027 3.915 0 .778.239 1.538.685 2.183l-4.936 3.354v-8.678c1.765-.453 2.997-2.005 2.999-3.78 0-2.161-1.802-3.914-4.026-3.914-2.224 0-4.027 1.752-4.027 3.914 0 1.278.646 2.474 1.724 3.204l-3.24 7.966-3.243-7.966a3.884 3.884 0 0 0 1.725-3.204c0-2.162-1.803-3.915-4.027-3.914z"/></svg>