<svg xmlns="http://www.w3.org/2000/svg" xmlns:xlink="http://www.w3.org/1999/xlink" width="50mm" height="50mm" fill-rule="evenodd" clip-rule="evenodd" image-rendering="optimizeQuality" shape-rendering="geometricPrecision" text-rendering="geometricPrecision" viewBox="0 0 50 50"><defs><linearGradient id="a"><stop offset="0" stop-color="#f5f5f5"/><stop offset="1" stop-color="#7e7e7e"/></linearGradient><linearGradient xlink:href="#a" id="d" x1="1605.8" x2="1632.4" y1="1101.5" y2="1101.5" gradientUnits="userSpaceOnUse"/><linearGradient xlink:href="#b" id="e" x1="1617" x2="1632.3" y1="1101.5" y2="1101.5" gradientUnits="userSpaceOnUse"/><linearGradient id="b"><stop offset="0"/><stop offset="1" stop-opacity="0"/></linearGradient><linearGradient xlink:href="#c" id="f" x1="1612.2" x2="1621.6" y1="1108.7" y2="1108.7" gradientUnits="userSpaceOnUse"/><linearGradient id="c"><stop offset="0" stop-color="#fff"/><stop offset="1" stop-color="#fff" stop-opacity="0"/></linearGradient><linearGradient xlink:href="#c" id="g" x1="1606.9" x2="1619" y1="1095.6" y2="1095.6" gradientUnits="userSpaceOnUse"/><linearGradient xlink:href="#b" id="h" x1="1621.7" x2="1611.7" y1="1101.1" y2="1101.9" gradientUnits="userSpaceOnUse"/><linearGradient xlink:href="#a" id="i" x1="-20.75" x2="6.102" y1="544.53" y2="544.53" gradientTransform="translate(2017.8 448.59)" gradientUnits="userSpaceOnUse"/><linearGradient xlink:href="#a" id="j" x1="1911.6" x2="1938.4" y1="940.86" y2="940.86" gradientTransform="translate(85.454 52.258)" gradientUnits="userSpaceOnUse"/><linearGradient xlink:href="#c" id="k" x1="7236" x2="7315.1" y1="3545.9" y2="3545.9" gradientTransform="translate(85.454 52.258) scale(.26458)" gradientUnits="userSpaceOnUse"/></defs><path fill="url(#d)" stroke="url(#d)" stroke-linejoin="round" stroke-width=".2" d="M1621.9 1089s-1.896-2.246-4.818-2.482l.117 3.045-11.293 11.584c2.446 4.592 5.916 3.885 5.916 3.885 2.728-2.384 5.124-1.973 8.498-3.385 1.756 2.938-11.52 8.848-8.569 14.758h20.6c-5.665-8.15 8.014-21.54-10.45-27.405z" transform="translate(-1596.6 -1076.2)"/><path fill="url(#e)" d="M1617.1 1086.5c1.589 1.188 3.112 2.413 4.063 3.97 18.465 5.864 1.152 17.766 6.816 25.917h4.389c-5.664-8.151 8.015-21.541-10.45-27.405 0 0-1.896-2.247-4.818-2.482z" opacity=".1" transform="translate(-1596.6 -1076.2)"/><path fill="url(#f)" d="M1621.3 1101.8c1.04 3.592-10.331 8.25-8.97 13.798 0-5.352 11.25-9.953 8.97-13.798z" transform="translate(-1596.6 -1076.2)"/><path fill="url(#g)" d="M1609.4 1103.8s-1.055-.175-2.521-2.526l11.028-11.338-.058-2.494c.268.872.367 1.705 1.151 2.694l-11.459 11.082c.388 1.016 1.203 1.745 1.859 2.582z" transform="translate(-1596.6 -1076.2)"/><path fill="url(#h)" d="M1611.8 1105c2.245-2.127 5.66-2.268 8.499-3.385.252.117-.027 1.183.075 1.074.794-.855 2.693-2.538 1.372-5.798-.184 5.643-11.049 5.194-9.947 8.109z" opacity=".1" transform="translate(-1596.6 -1076.2)"/><path fill="url(#i)" stroke="url(#j)" stroke-linejoin="round" stroke-width=".2" d="M2010.4 989.15s-8.578.048-10.983 1.62c-1.623 1.06-2.005 2.063-1.785 4.735h25.536c.221-2.672-.162-3.676-1.785-4.736-2.404-1.57-10.983-1.619-10.983-1.619z" transform="translate(-1985.4 -950.6)"/><path fill="url(#k)" d="M2009 989.73c-3.233.034-5.786.381-7.727.948 6.147-.438 12.256-.497 18.31 0-2.219-.648-5.236-1.009-9.155-.943-.49-.008-.966-.01-1.428-.005z" transform="translate(-1985.4 -950.6)"/><path fill="none" stroke="#646464" stroke-linejoin="round" stroke-width=".3" d="m20.482 10.318.117 3.045L9.306 24.947c2.446 4.592 5.915 3.885 5.915 3.885 2.729-2.383 5.124-1.973 8.499-3.385 1.708 2.86-10.815 8.533-8.77 14.282a4.565 4.565 0 0 0-.933.44c-1.623 1.06-2.006 2.064-1.785 4.736h25.536c.22-2.672-.162-3.676-1.785-4.736a3.53 3.53 0 0 0-.399-.218c-5.217-8.172 7.991-21.346-10.284-27.15s-1.896-2.247-4.818-2.483z"/></svg>