<svg xmlns="http://www.w3.org/2000/svg" xmlns:xlink="http://www.w3.org/1999/xlink" width="50mm" height="50mm" fill-rule="evenodd" clip-rule="evenodd" image-rendering="optimizeQuality" shape-rendering="geometricPrecision" text-rendering="geometricPrecision" viewBox="0 0 50 50"><defs><linearGradient id="a"><stop offset="0" stop-color="#f5f5f5"/><stop offset="1" stop-color="#7e7e7e"/></linearGradient><linearGradient xlink:href="#a" id="d" x1="1765.8" x2="1790.9" y1="1045.8" y2="1045.8" gradientUnits="userSpaceOnUse"/><linearGradient xlink:href="#a" id="e" x1="1771.5" x2="1785.2" y1="1028.2" y2="1028.2" gradientUnits="userSpaceOnUse"/><linearGradient xlink:href="#b" id="f" x1="1778.2" x2="1790.7" y1="1045.8" y2="1045.8" gradientUnits="userSpaceOnUse"/><linearGradient id="b"><stop offset="0"/><stop offset="1" stop-opacity="0"/></linearGradient><linearGradient xlink:href="#a" id="g" x1="6553.9" x2="6615.8" y1="3964.9" y2="3964.9" gradientUnits="userSpaceOnUse"/><linearGradient xlink:href="#b" id="h" x1="1776.1" x2="1785.1" y1="1028.2" y2="1028.2" gradientUnits="userSpaceOnUse"/><linearGradient xlink:href="#c" id="i" x1="1772.4" x2="1776.4" y1="1026.7" y2="1026.7" gradientUnits="userSpaceOnUse"/><linearGradient id="c"><stop offset="0" stop-color="#fff"/><stop offset="1" stop-color="#fff" stop-opacity="0"/></linearGradient><linearGradient xlink:href="#c" id="j" x1="1771" x2="1778.5" y1="1035.9" y2="1035.9" gradientUnits="userSpaceOnUse"/><linearGradient xlink:href="#c" id="k" x1="1766.9" x2="1775.5" y1="1047" y2="1047" gradientUnits="userSpaceOnUse"/></defs><g stroke-width=".997"><path fill="url(#d)" stroke="url(#d)" stroke-width=".199" d="M1774.8 1036.7c.074 10.306-8.878 14.505-8.878 14.505l.812 3.665h23.163l.811-3.665s-8.95-4.199-8.877-14.505z" transform="matrix(1.0376 0 0 .96964 -1820.1 -977.99)"/><path fill="url(#e)" stroke="url(#e)" stroke-linecap="round" stroke-linejoin="round" stroke-width=".199" d="M1774.6 1034.5c-1.875-1.275-3-3.424-3-5.725 0-3.797 3.011-6.876 6.727-6.876 3.715 0 6.727 3.079 6.727 6.876v0c0 2.302-1.126 4.45-3.001 5.726z" style="paint-order:normal" transform="matrix(1.0376 0 0 .96964 -1820.1 -977.99)"/><path fill="url(#f)" d="M1778.2 1036.7c-.074 10.306 8.877 14.506 8.877 14.506l-.81 3.665h3.704l.811-3.665s-8.951-4.2-8.877-14.506z" opacity=".1" transform="matrix(1.0376 0 0 .96964 -1820.1 -977.99)"/><path fill="url(#g)" stroke="url(#g)" stroke-linecap="round" stroke-linejoin="round" stroke-width=".754" d="M6562.8 3956.3c-4.709 0-8.5 3.846-8.5 8.625s3.791 8.625 8.5 8.625h44.078c4.709 0 8.5-3.846 8.5-8.625s-3.791-8.625-8.5-8.625z" style="paint-order:normal" transform="matrix(.27453 0 0 .25655 -1782.626 -989.92)"/><path fill="url(#h)" d="M1778.3 1022c-.764 0-1.498.127-2.183.358 10.29-2.102 5.933 11.932 1.568 11.932h4.365a6.69 6.69 0 0 0 3.022-5.583c0-3.704-3.032-6.707-6.772-6.707z" opacity=".1" style="paint-order:normal" transform="matrix(1.0376 0 0 .96964 -1820.1 -977.99)"/><path fill="url(#i)" d="M1772.7 1030.4s-1.65-5.082 3.788-7.42c-3.244 2.29-3.788 7.42-3.788 7.42z" transform="matrix(1.0376 0 0 .96964 -1820.1 -977.99)"/><path fill="url(#j)" d="M1771.1 1036.5c.134-1.286 7.426-1.226 7.426-1.226l-6.155-.01c-.907.096-1.241.96-1.275 1.234z" transform="matrix(1.0376 0 0 .96964 -1820.1 -977.99)"/><path fill="url(#k)" d="m1767.4 1054.2-.561-2.49c0 .415 8.456-5.524 8.556-11.91 1.2 7.032-7.69 12.284-7.69 12.284z" transform="matrix(1.0376 0 0 .96964 -1820.1 -977.99)"/></g><path fill="none" stroke="#646464" stroke-width=".3" d="M25.169 12.885c-3.855 0-6.981 2.985-6.981 6.667 0 2.206 1.144 4.266 3.05 5.507h-2.114c-1.292 0-2.333.987-2.333 2.213s1.04 2.213 2.333 2.213h2.233c-1.182 8.357-9.06 11.816-9.06 11.816l.843 3.553h24.034l.842-3.553s-7.876-3.46-9.058-11.816h2.267c1.293 0 2.334-.987 2.334-2.213s-1.041-2.212-2.334-2.212h-2.124c1.905-1.241 3.049-3.301 3.049-5.508 0-3.682-3.126-6.667-6.98-6.667z"/></svg>