<svg xmlns="http://www.w3.org/2000/svg" viewBox="0 0 34.763 35.14"><g transform="translate(-5.082-5.234)" fill="none" stroke="#000" stroke-linejoin="round" stroke-linecap="round" stroke-width="1.5"><g stroke-linejoin="miter"><path d="m22.5 11.63v-5.63" stroke="#000"/><path d="m22.5 25c0 0 4.5-7.5 3-10.5 0 0-1-2.5-3-2.5-2 0-3 2.5-3 2.5-1.5 3 3 10.5 3 10.5" fill="#000" stroke-linecap="butt"/></g><g stroke="#000"><path d="m11.5 37c5.5 3.5 15.5 3.5 21 0v-7c0 0 9-4.5 6-10.5-4-6.5-13.5-3.5-16 4v3.5-3.5c-3.5-7.5-13-10.5-16-4-3 6 5 10 5 10v7.5z" fill="#000"/><path d="m20 8h5" stroke-linejoin="miter"/></g><g stroke="#fff"><path d="m32 29.5c0 0 8.5-4 6.03-9.65-3.88-5.85-13.03-1.85-15.53 4.65l.01 2.1-.01-2.1c-2.5-6.5-12.594-10.5-15.503-4.65-2.497 5.65 4.853 9 4.853 9"/><path d="m11.5 30c5.5-3 15.5-3 21 0m-21 3.5c5.5-3 15.5-3 21 0m-21 3.5c5.5-3 15.5-3 21 0"/></g></g></svg>