<svg xmlns="http://www.w3.org/2000/svg" viewBox="0 0 45 45"><g fill="none" fill-rule="evenodd" stroke="#000" stroke-linejoin="round" stroke-linecap="round" stroke-width="1.5"><g fill="#000" stroke="#000"><path d="m22 10c10.5 1 16.5 8 16 29h-23c0-9 10-6.5 8-21"/><path d="m24 18c.38 2.91-5.55 7.37-8 9-3 2-2.82 4.34-5 4-1.042-.94 1.41-3.04 0-3-1 0 .19 1.23-1 2-1 0-4 1-4-4 0-2 6-12 6-12 0 0 1.89-1.9 2-3.5-.73-.994-.5-2-.5-3 1-1 3 2.5 3 2.5h2c0 0 .78-1.992 2.5-3 1 0 1 3 1 3"/></g><g fill="#ececec"><g stroke="#ececec"><path d="M9.5 25.5A.5 .5 0 1 1 8.5 25.5 .5 .5 0 1 1 9.5 25.5z"/><path d="M15 15.5A.5 1.5 0 1 1 14 15.5 .5 1.5 0 1 1 15 15.5z" transform="matrix(.866.5-.5.866 9.693-5.173)"/></g><path d="m24.55 10.4l-.45 1.45.5.15c3.15 1 5.65 2.49 7.9 6.75 2.25 4.26 3.25 10.31 2.75 20.25l-.05.5h2.25l.05-.5c.5-10.06-.88-16.85-3.25-21.34-2.37-4.49-5.79-6.64-9.19-7.16l-.51-.1" stroke="none"/></g></g></svg>