<svg xmlns="http://www.w3.org/2000/svg" viewBox="0 0 34.68 35.14" xmlns:xlink="http://www.w3.org/1999/xlink"><defs><clipPath id="0"><path opacity=".1" d="m3.05 2.617h19.358v38.632h-19.358z"/></clipPath><clipPath id="1"><path opacity=".1" d="m22.492 3.814h18.647v37.85h-18.647z"/></clipPath></defs><g clip-path="url(#0)" transform="translate(-5.082-5.234)"><g fill="none" stroke="#000" stroke-linejoin="round" stroke-linecap="round" stroke-width="1.5"><path d="m22.5 11.63v-5.63" stroke="#000" stroke-linejoin="miter" id="2"/><path d="m20 8h5" stroke="#000" stroke-linejoin="miter" id="3"/><g stroke="#000"><g fill="#fff"><path d="m22.5 25c0 0 4.5-7.5 3-10.5 0 0-1-2.5-3-2.5-2 0-3 2.5-3 2.5-1.5 3 3 10.5 3 10.5" stroke-linejoin="miter" stroke-linecap="butt"/><path d="m11.5 37c5.5 3.5 15.5 3.5 21 0v-7c0 0 9-4.5 6-10.5-4-6.5-13.5-3.5-16 4v3.5-3.5c-3.5-7.5-13-10.5-16-4-3 6 5 10 5 10v7.5z"/></g><path d="m11.5 30c5.5-3 15.5-3 21 0"/><path d="m11.5 33.5c5.5-3 15.5-3 21 0"/><path d="m11.5 37c5.5-3 15.5-3 21 0"/></g></g></g><g transform="translate(-5.166-5.234)" clip-path="url(#1)"><g fill="none" stroke="#000" stroke-linejoin="round" stroke-linecap="round" stroke-width="1.5"><use xlink:href="#2"/><g fill="#000"><path d="m22.5 25c0 0 4.5-7.5 3-10.5 0 0-1-2.5-3-2.5-2 0-3 2.5-3 2.5-1.5 3 3 10.5 3 10.5" stroke-linejoin="miter" stroke-linecap="butt"/><path d="m11.5 37c5.5 3.5 15.5 3.5 21 0v-7c0 0 9-4.5 6-10.5-4-6.5-13.5-3.5-16 4v3.5-3.5c-3.5-7.5-13-10.5-16-4-3 6 5 10 5 10v7.5z" stroke="#000"/></g><use xlink:href="#3"/><g stroke="#fff"><path d="m32 29.5c0 0 8.5-4 6.03-9.65-3.88-5.85-13.03-1.85-15.53 4.65l.01 2.1-.01-2.1c-2.5-6.5-12.594-10.5-15.503-4.65-2.497 5.65 4.853 9 4.853 9"/><path d="m11.5 30c5.5-3 15.5-3 21 0m-21 3.5c5.5-3 15.5-3 21 0m-21 3.5c5.5-3 15.5-3 21 0"/></g></g></g></svg>