<svg xmlns="http://www.w3.org/2000/svg" viewBox="0 0 35.983 35.983"><path fill="#fee57f" stroke="#000" stroke-width=".523" d="m31.69 33.331-3.802-27.06-9.896-3.602-9.896 3.602-3.803 27.06z"/><path d="M9.84 12.982v12.701c0 .03.011.057.017.085-.003.028-.016.054-.016.083 0 1.572 5.065 1.992 8.057 1.992 2.993 0 8.06-.42 8.06-1.992 0-.029-.014-.055-.017-.083.006-.028.016-.055.016-.085V12.982a.384.384 0 0 0-.654-.273l-2.787 2.779a.384.384 0 0 0-.013.53c.128.14.28.367.28.662 0 .68-.774 1.231-1.727 1.231-.936 0-1.726-.563-1.726-1.231 0-.482.403-.922 1.026-1.124a.382.382 0 0 0 .153-.637l-2.339-2.338a.386.386 0 0 0-.543 0l-2.34 2.338a.382.382 0 0 0 .154.636c.623.204 1.026.643 1.026 1.125 0 .68-.774 1.231-1.727 1.231-.936 0-1.727-.563-1.727-1.231 0-.295.154-.525.284-.665a.382.382 0 0 0-.013-.53l-2.79-2.776a.383.383 0 0 0-.653.273zm.768 11.938v-.852c.126-.423 2.742-1.225 7.29-1.225 4.546 0 7.16.8 7.292 1.231v.847c-1.528-.814-5.008-1.06-7.292-1.06-2.282 0-5.762.246-7.29 1.059zM25.19 13.906v9.227c-1.527-.814-5.008-1.06-7.292-1.06-2.282 0-5.762.246-7.29 1.06v-9.228l1.898 1.889c-.17.273-.26.575-.26.887 0 1.104 1.12 1.999 2.495 1.999s2.494-.897 2.494-1.999c0-.65-.382-1.24-1.01-1.61l1.674-1.674 1.675 1.675c-.629.368-1.012.96-1.012 1.61 0 1.103 1.119 1.998 2.494 1.998 1.376 0 2.495-.896 2.495-1.998 0-.31-.088-.612-.257-.885zM10.607 25.845c.127-.415 2.743-1.217 7.291-1.217 4.55 0 7.166.802 7.293 1.232-.13.412-2.75 1.215-7.293 1.215-4.542.002-7.16-.8-7.29-1.23z"/><path stroke="#000" stroke-linecap="square" stroke-width=".085" d="m17.905 14.265-.768.541.278.898.939.013.303-.889z" opacity=".93" paint-order="fill markers stroke"/></svg>