<svg xmlns="http://www.w3.org/2000/svg" viewBox="0 0 35.983 35.983"><path fill="#fee57f" stroke="#000" stroke-width=".523" d="m27.888 29.712-9.896 3.602-9.896-3.602-3.803-27.06H31.69z"/><path fill="none" stroke="#000" stroke-width=".75" d="m23.34 24.65.045-2.441c-2.531-.258-5.112-1.26-7.205-1.83-.767-.186-.387.042-4.96-.02l.118 4.17h2.216v-1.846h2.511v1.846h2.179v-1.846h2.548v1.994z"/><path fill="none" stroke="#000" stroke-linecap="square" stroke-width=".148" d="M16.066 17.862h-1.007v-1.17h1.007z" opacity=".93" paint-order="fill markers stroke"/><path stroke="#000" stroke-linejoin="round" stroke-width=".25" d="M26.264 22.553c.82-.022 1.536-.128 2.085-.346a.226.226 0 0 0 .011-.415c-3.928-1.81-7.685-3.983-10.914-6.485a.226.226 0 0 0-.357.125c-.12.491-.194.793-.178 1.11.012.242.129.514.251.81-.962.162-1.72.35-2.15.606-.239.142-.413.306-.504.507a.77.77 0 0 0 .008.628c.175.396.593.72 1.168 1.048.575.326 1.316.641 2.159.934 1.685.584 3.775 1.072 5.709 1.314.967.121 1.892.185 2.712.164zm-.007-.46a17.8 17.8 0 0 1-2.649-.151c-1.899-.238-3.968-.722-5.618-1.294-.825-.286-1.544-.595-2.082-.9-.538-.306-.884-.622-.98-.837-.047-.107-.047-.175-.008-.26.038-.083.135-.193.325-.306.38-.226 1.11-.45 2.233-.617a.226.226 0 0 0 .172-.316c-.198-.438-.277-.667-.288-.893-.008-.151.06-.413.11-.652 3.025 2.305 6.477 4.31 10.092 6.018-.4.089-.77.193-1.307.208z" color="#000" font-family="sans-serif" font-weight="400" overflow="visible" style="line-height:normal;font-variant-ligatures:normal;font-variant-position:normal;font-variant-caps:normal;font-variant-numeric:normal;font-variant-alternates:normal;font-feature-settings:normal;text-indent:0;text-align:start;text-decoration-line:none;text-decoration-style:solid;text-decoration-color:#000;text-transform:none;text-orientation:mixed;white-space:normal;shape-padding:0;isolation:auto;mix-blend-mode:normal;solid-color:#000;solid-opacity:1"/><path fill="none" stroke="#000" stroke-width=".75" d="m23.236 19.408-.067-8.79m-6.546 9.775-5.45-.186.085-9.592"/><circle cx="-48.977" cy="266.331" r="6.214" fill="none" stroke="#000" stroke-linecap="square" stroke-width="1.097" opacity=".93" paint-order="fill markers stroke" transform="rotate(180 -8.02 96.48) scale(.68354)"/><g fill="none" stroke="#000"><path stroke-width=".75" d="m17.46 15.07-.022-8.452"/><path stroke-width=".905" d="m10.88 10.992 12.668-.022"/><path stroke-width=".75" d="m14.347 8.03 6.272 5.903m.001-5.926-6.273 5.903"/></g><path fill="none" stroke="#000" stroke-width=".156" d="M16.148 18.986c3.642 2.255 6.246 2.261 9.038 2.678"/><path fill="none" stroke="#000" stroke-width=".116" d="M17.485 18.684c2.706 1.676 4.64 1.68 6.715 1.99"/><path fill="none" stroke="#000" stroke-width=".148" d="M17.9 17.589c1.437 1.26 2.583 1.454 3.782 1.843"/><path fill="none" stroke="#000" stroke-linecap="square" stroke-width=".165" d="M14.193 19.92h-2.547v-1.483h2.547z" opacity=".93" paint-order="fill markers stroke"/><path fill="none" stroke="#000" stroke-linecap="square" stroke-width=".154" d="M14.833 18.19h-2.784v-1.476h2.784z" opacity=".93" paint-order="fill markers stroke"/><path fill="none" stroke="#000" stroke-linecap="square" stroke-width=".144" d="M13.588 16.493h-1.899V14.99h1.899z" opacity=".93" paint-order="fill markers stroke"/><path fill="none" stroke="#000" stroke-linecap="square" stroke-width=".158" d="M14.031 14.79h-2.315v-1.489h2.315z" opacity=".93" paint-order="fill markers stroke"/><path fill="none" stroke="#000" stroke-linecap="square" stroke-width=".142" d="M11.731 18.192h-.65v-1.495h.65z" opacity=".93" paint-order="fill markers stroke"/><path fill="none" stroke="#000" stroke-linecap="square" stroke-width=".14" d="M13.224 13.043h-1.802v-1.507h1.802z" opacity=".93" paint-order="fill markers stroke"/><path fill="none" stroke="#000" stroke-linecap="square" stroke-width=".144" d="M15.886 16.491h-2.029v-1.489h2.029z" opacity=".93" paint-order="fill markers stroke"/><path fill="none" stroke="#000" stroke-linecap="square" stroke-width=".149" d="M17.208 16.498h-1.057v-1.47h1.057z" opacity=".93" paint-order="fill markers stroke"/><path fill="none" stroke="#000" stroke-linecap="square" stroke-width=".137" d="M17.199 17.553h-.867v-.882h.867z" opacity=".93" paint-order="fill markers stroke"/><path fill="none" stroke="#000" stroke-linecap="square" stroke-width=".178" d="M21.449 16.434h-2.997v-1.468h2.997z" opacity=".93" paint-order="fill markers stroke"/><path fill="none" stroke="#000" stroke-linecap="square" stroke-width=".148" d="M22.847 18.13h-1.936v-1.502h1.936z" opacity=".93" paint-order="fill markers stroke"/><path fill="none" stroke="#000" stroke-linecap="square" stroke-width=".153" d="M23.037 16.446h-1.329V14.97h1.329z" opacity=".93" paint-order="fill markers stroke"/><path fill="none" stroke="#000" stroke-linecap="square" stroke-width=".148" d="M22.811 14.755H20.79v-1.499h2.021z" opacity=".93" paint-order="fill markers stroke"/><path fill="none" stroke="#000" stroke-width=".1" d="m21.332 13.02 1.488.019.007-1.409-1.053-.007"/><path fill="none" stroke="#000" stroke-width=".148" d="m15.451 19.934-.99.014-.014-1.548.432.028m4.738-3.67.95-.007.02-.868m.094 3.945.006-1.16-1.707-.011m4.113 2.317v-.615l-1.522-.015"/></svg>