<?xml version="1.0" encoding="UTF-8" standalone="no"?>
<svg
   xmlns:dc="http://purl.org/dc/elements/1.1/"
   xmlns:cc="http://creativecommons.org/ns#"
   xmlns:rdf="http://www.w3.org/1999/02/22-rdf-syntax-ns#"
   xmlns:svg="http://www.w3.org/2000/svg"
   xmlns="http://www.w3.org/2000/svg"
   xmlns:sodipodi="http://sodipodi.sourceforge.net/DTD/sodipodi-0.dtd"
   xmlns:inkscape="http://www.inkscape.org/namespaces/inkscape"
   width="60"
   height="60"
   version="1.1"
   id="svg84"
   sodipodi:docname="0GY.svg"
   inkscape:version="1.0.1 (3bc2e813f5, 2020-09-07)">
  <metadata
     id="metadata88">
    <rdf:RDF>
      <cc:Work
         rdf:about="">
        <dc:format>image/svg+xml</dc:format>
        <dc:type
           rdf:resource="http://purl.org/dc/dcmitype/StillImage" />
      </cc:Work>
    </rdf:RDF>
  </metadata>
  <sodipodi:namedview
     pagecolor="#ffffff"
     bordercolor="#666666"
     borderopacity="1"
     objecttolerance="10"
     gridtolerance="10"
     guidetolerance="10"
     inkscape:pageopacity="0"
     inkscape:pageshadow="2"
     inkscape:window-width="1366"
     inkscape:window-height="711"
     id="namedview86"
     showgrid="false"
     inkscape:zoom="3.2173359"
     inkscape:cx="-3.5430915"
     inkscape:cy="51.806765"
     inkscape:window-x="0"
     inkscape:window-y="0"
     inkscape:window-maximized="1"
     inkscape:current-layer="svg84" />
  <defs
     id="defs64">
    <filter
       id="a"
       color-interpolation-filters="sRGB">
      <feFlood
         flood-opacity=".498"
         flood-color="#000"
         result="flood"
         id="feFlood2" />
      <feComposite
         in="flood"
         in2="SourceGraphic"
         operator="in"
         result="composite1"
         id="feComposite4" />
      <feGaussianBlur
         in="composite1"
         stdDeviation="1"
         result="blur"
         id="feGaussianBlur6" />
      <feOffset
         dx="5"
         dy="3"
         result="offset"
         id="feOffset8" />
      <feComposite
         in="SourceGraphic"
         in2="offset"
         result="composite2"
         id="feComposite10" />
    </filter>
    <filter
       id="b"
       color-interpolation-filters="sRGB">
      <feGaussianBlur
         stdDeviation="5"
         result="result8"
         id="feGaussianBlur13" />
      <feComposite
         result="result6"
         in="SourceGraphic"
         operator="in"
         in2="result8"
         id="feComposite15" />
      <feComposite
         operator="in"
         result="result11"
         in2="result6"
         id="feComposite17" />
      <feFlood
         result="result10"
         flood-opacity="1"
         flood-color="#FFF"
         id="feFlood19" />
      <feBlend
         mode="multiply"
         in="result10"
         in2="result11"
         result="result12"
         id="feBlend21" />
      <feComposite
         result="fbSourceGraphic"
         operator="in"
         in2="SourceGraphic"
         in="result12"
         id="feComposite23" />
      <feFlood
         result="result6"
         flood-color="#4B659A"
         id="feFlood25" />
      <feComposite
         k3=".3"
         k2=".3"
         k1=".5"
         operator="arithmetic"
         result="result2"
         in="fbSourceGraphic"
         in2="result6"
         id="feComposite27" />
      <feColorMatrix
         result="fbSourceGraphicAlpha"
         in="result2"
         values="1 0 0 -1 0 1 0 1 -1 0 1 0 0 -1 0 -0.8 -1 0 3.9 -2.7"
         id="feColorMatrix29" />
      <feGaussianBlur
         result="result0"
         in="fbSourceGraphicAlpha"
         stdDeviation=".5"
         id="feGaussianBlur31" />
      <feDiffuseLighting
         lighting-color="#fff"
         diffuseConstant=".7"
         surfaceScale="50"
         result="result13"
         in="result0"
         id="feDiffuseLighting35">
        <feDistantLight
           elevation="20"
           azimuth="225"
           id="feDistantLight33" />
      </feDiffuseLighting>
      <feSpecularLighting
         specularExponent="20"
         specularConstant=".7"
         surfaceScale="10"
         lighting-color="#fff"
         result="result1"
         in="result0"
         id="feSpecularLighting39">
        <feDistantLight
           elevation="45"
           azimuth="225"
           id="feDistantLight37" />
      </feSpecularLighting>
      <feBlend
         mode="screen"
         result="result5"
         in2="SourceGraphic"
         in="result13"
         id="feBlend41" />
      <feComposite
         in="result1"
         k3="1"
         k2="1"
         operator="arithmetic"
         in2="result5"
         result="result9"
         id="feComposite43" />
      <feComposite
         in2="SourceGraphic"
         operator="in"
         result="fbSourceGraphic"
         id="feComposite45" />
      <feColorMatrix
         result="fbSourceGraphicAlpha"
         in="fbSourceGraphic"
         values="0 0 0 -1 0 0 0 0 -1 0 0 0 0 -1 0 0 0 0 1 0"
         id="feColorMatrix47" />
      <feComposite
         in2="fbSourceGraphic"
         operator="arithmetic"
         k2="1"
         result="composite1"
         in="fbSourceGraphic"
         id="feComposite49" />
      <feColorMatrix
         in="composite1"
         values="1"
         type="saturate"
         result="colormatrix1"
         id="feColorMatrix51" />
      <feFlood
         flood-opacity=".667"
         flood-color="#000"
         result="flood1"
         id="feFlood53" />
      <feBlend
         in2="colormatrix1"
         in="flood1"
         mode="multiply"
         result="blend1"
         id="feBlend55" />
      <feBlend
         in2="blend1"
         mode="screen"
         result="blend2"
         id="feBlend57" />
      <feColorMatrix
         in="blend2"
         values="1"
         type="saturate"
         result="colormatrix2"
         id="feColorMatrix59" />
      <feComposite
         in2="fbSourceGraphic"
         in="colormatrix2"
         operator="in"
         result="composite2"
         id="feComposite61" />
    </filter>
  </defs>
  <g
     opacity="0.99"
     id="g82"
     transform="translate(3.9214002)">
    <g
       filter="url(#a)"
       transform="matrix(0.6,0,0,0.6,2.636,-50.376)"
       id="g72">
      <g
         stroke-width="0.988"
         id="g68">
        <path
           d="M 39.071,93.92 16.52,101.314 6,168.33 h 66.142 l -10.52,-67.017 z"
           fill="#fee572"
           id="path66" />
      </g>
      <path
         d="M 6,168.331 V 174 h 66.142 v -5.669 z"
         fill="#c3983c"
         fill-opacity="0.992"
         id="path70" />
    </g>
    <g
       transform="matrix(0.98351,0,0,0.98608,27.186,33.887)"
       opacity="0.99"
       stroke-width="0.868"
       filter="url(#b)"
       font-weight="400"
       letter-spacing="0"
       word-spacing="0"
       id="g80">
      <path
         style="line-height:1.25;-inkscape-font-specification:'cwTeX Q Kai'"
         d="m 13.062,0.962 q -0.292,0.375 -0.458,0.417 -0.709,0 -1.834,-0.958 L 7.812,-2.33 Q 7.687,-2.455 7.687,-3.205 7.854,-3.33 8.229,-3.33 q 0.75,0 2.25,0.583 1.541,0.542 1.958,0.958 0.625,0.542 0.625,2.75 z"
         font-size="42.667px"
         font-family="'cwTeX Q Kai'"
         stroke="#000000"
         id="path74" />
      <g
         style="line-height:1.25;-inkscape-font-specification:KaiTi"
         id="g78">
        <path
           d="m -6.677,-13.39 c -1.722,0 -4.415,-0.629 -5.248,-1.462 0,-0.194 1.498,-0.121 1.665,-0.204 0.194,-0.084 0.61,-0.153 1.25,-0.209 0.666,-0.083 1.43,-0.166 2.291,-0.25 0.89,-0.083 2.223,-0.277 4,-0.583 1.778,-0.306 3.695,-0.694 5.75,-1.167 a 5.693,5.693 0 0 1 1.459,-0.166 c 1.222,0 2.153,0.375 2.791,1.125 0.028,0.277 -0.027,0.5 -0.166,0.666 -0.14,0.14 -0.459,0.278 -0.959,0.417 -0.5,0.111 -1.027,0.208 -1.583,0.292 -0.528,0.055 -1.375,0.18 -2.542,0.375 -1.166,0.194 -2.305,0.402 -3.416,0.625 0.694,0.36 1.041,0.916 1.041,1.666 l -0.208,2.25 -0.125,4.042 v 0.042 l 4.004,-0.58 c 0.167,-0.028 1.309,-0.254 1.587,-0.254 1.083,0 1.875,0.348 2.375,1.042 -0.028,0.389 -0.542,0.722 -1.542,1 -1,0.278 -3.243,0.5 -4.466,0.667 -1.222,0.139 -1.86,0.222 -1.916,0.25 L -0.76,-3.598 -1.01,4.61 C 2.24,4.388 4.92,4.138 7.031,3.86 l 3.584,-0.625 h 0.291 c 0.806,0 1.653,0.43 2.542,1.292 0.917,0.833 1.375,1.472 1.375,1.917 -0.111,0.194 -0.389,0.291 -0.833,0.291 -0.417,0 -2.236,-0.152 -5.459,-0.458 L 5.865,6.11 c -2.306,0 -5.528,0.195 -9.667,0.584 -4.139,0.389 -6.357,0.784 -7.857,1.256 l -1.875,0.542 A 0.682,0.682 0 0 0 -13.7,8.533 h -0.167 c -0.556,0 -1.153,-0.208 -1.792,-0.625 -0.639,-0.416 -1.11,-0.889 -1.416,-1.416 0,-0.306 0.083,-0.528 0.25,-0.667 l 0.19,0.035 c 1.611,0.3 3.833,-0.166 6.583,-0.5 2.75,-0.333 5,-0.5 6.75,-0.5 h 0.167 l 0.125,-8.25 -3.75,0.25 c -1.222,-0.027 -2.917,-0.233 -3.528,-0.9 0,-0.305 0.18,-0.472 0.541,-0.5 l 2.653,-0.266 4.042,-0.542 v -6.083 c 0,-0.806 -0.264,-1.514 -0.792,-2.125 -1,0.11 -1.944,0.166 -2.833,0.166 z"
           style="-inkscape-font-specification:'cwTeX Q Kai'"
           font-size="42.667px"
           font-family="'cwTeX Q Kai'"
           stroke="#000000"
           aria-label="王"
           id="path76" />
      </g>
    </g>
  </g>
</svg>
