<svg xmlns="http://www.w3.org/2000/svg" width="60" height="60"><defs><filter id="a" color-interpolation-filters="sRGB"><feFlood flood-opacity=".498" flood-color="#000" result="flood"/><feComposite in="flood" in2="SourceGraphic" operator="in" result="composite1"/><feGaussianBlur in="composite1" stdDeviation="1" result="blur"/><feOffset dx="5" dy="3" result="offset"/><feComposite in="SourceGraphic" in2="offset" result="composite2"/></filter><filter id="b" color-interpolation-filters="sRGB"><feGaussianBlur stdDeviation="5" result="result8"/><feComposite result="result6" in="SourceGraphic" operator="in" in2="result8"/><feComposite operator="in" result="result11" in2="result6"/><feFlood result="result10" flood-opacity="1" flood-color="#FFF"/><feBlend mode="multiply" in="result10" in2="result11" result="result12"/><feComposite result="fbSourceGraphic" operator="in" in2="SourceGraphic" in="result12"/><feFlood result="result6" flood-color="#4B659A"/><feComposite k3=".3" k2=".3" k1=".5" operator="arithmetic" result="result2" in="fbSourceGraphic" in2="result6"/><feColorMatrix result="fbSourceGraphicAlpha" in="result2" values="1 0 0 -1 0 1 0 1 -1 0 1 0 0 -1 0 -0.8 -1 0 3.9 -2.7"/><feGaussianBlur result="result0" in="fbSourceGraphicAlpha" stdDeviation=".5"/><feDiffuseLighting lighting-color="#fff" diffuseConstant=".7" surfaceScale="50" result="result13" in="result0"><feDistantLight elevation="20" azimuth="225"/></feDiffuseLighting><feSpecularLighting specularExponent="20" specularConstant=".7" surfaceScale="10" lighting-color="#fff" result="result1" in="result0"><feDistantLight elevation="45" azimuth="225"/></feSpecularLighting><feBlend mode="screen" result="result5" in2="SourceGraphic" in="result13"/><feComposite in="result1" k3="1" k2="1" operator="arithmetic" in2="result5" result="result9"/><feComposite in2="SourceGraphic" operator="in" result="fbSourceGraphic"/><feColorMatrix result="fbSourceGraphicAlpha" in="fbSourceGraphic" values="0 0 0 -1 0 0 0 0 -1 0 0 0 0 -1 0 0 0 0 1 0"/><feComposite in2="fbSourceGraphic" operator="arithmetic" k2="1" result="composite1" in="fbSourceGraphic"/><feColorMatrix in="composite1" values="1" type="saturate" result="colormatrix1"/><feFlood flood-opacity=".667" flood-color="#000" result="flood1"/><feBlend in2="colormatrix1" in="flood1" mode="multiply" result="blend1"/><feBlend in2="blend1" mode="screen" result="blend2"/><feColorMatrix in="blend2" values="1" type="saturate" result="colormatrix2"/><feComposite in2="fbSourceGraphic" in="colormatrix2" operator="in" result="composite2"/></filter></defs><g opacity=".99"><g transform="matrix(.6 0 0 .6 -286.1 3.657)" filter="url(#a)"><path d="M526.835 8l-17.83 5.92-9.336 60.222H554l-9.335-60.223z" fill="#fee572"/><path d="M499.67 74.142v5.668H554v-5.669z" fill="#c3983c" fill-opacity=".992"/></g><g style="line-height:1.25;-inkscape-font-specification:KaiTi" aria-label="ждЎ" transform="matrix(.855 0 0 .855 7.005 .687)" font-weight="400" font-size="26.667" font-family="KaiTi" letter-spacing="0" word-spacing="0" filter="url(#b)"><path style="-inkscape-font-specification:'cwTeX Q Kai'" d="M33.416 25.46q.78 0 1.524.44.779.406 1.117.982 0 .237-.474.406l-6.33.237q-.88.068-1.998.27 3.487 2.71 5.45 3.59 1.964.88 7.685 2.606.204.102.305.203.102.102.135.102-.135.203-2.065.575-1.895.339-2.776.339-1.15 0-2.843-1.219-1.66-1.219-3.792-3.25-2.099-2.065-2.776-2.607-.068.542-.068 1.66 0 1.184.034 1.963 0 2.81-.643 2.81-.474 0-.711-.847l-.237-.745q.237-1.388.237-4.367-4.3 5.79-9.547 7.82-1.388.508-2.133.508-.44 0-.643-.203.068-.034.745-.44.71-.406.981-.541.271-.17 1.016-.61.779-.474 1.185-.745.44-.304 1.185-.812.745-.508 1.219-.88.474-.407 1.117-.982.677-.576 1.15-1.083.475-.508.983-1.118.507-.609.88-1.218-1.862.169-3.487.643-1.591.44-1.93.44h-.101q-1.084 0-1.795-.88 0-.237.407-.305l8.7-1.219q0-2.505-.575-3.588-.508.067-2.37.541l-.813.17-1.15.169v-.372q3.012-1.118 4.671-1.964 1.693-.846 2.167-1.32.474-.508.508-1.016l.101-.135q.88 0 2.031.744 1.185.711 1.185 1.05 0 .305-.44.406-.406.068-1.726.373-1.32.27-2.81.948 1.05.541 1.185.744l.203.407.034.237q-.61 1.117-.644 2.268 1.998-.305 4.401-.745l2.066-.44h.169zM20.281 35.65q.237 0 .71.237.509.237.644.372 4.604-.507 7.651-1.93 1.964.576 2.912 1.863-.034.135-.373.71-.304.542-.304.847l.304 5.315q0 3.69-1.557 4.841l-.474-.068-1.896-2.911q-3.487.034-6.026.542-.203.778-.677 1.15-.474-.202-.779-.88-.304-.643-.304-1.286 0-.135.338-1.185.339-1.083.339-2.573 0-3.182-.914-4.773.101-.271.406-.271zm9.378 3.927q0-1.93-.102-2.64-.068-.712-.305-.88-.203-.204-.812-.204-.373.034-2.505.576-2.133.507-3.623.778l-.101.237v2.81l3.182-.914q.576-.17.982-.17.948 0 1.59.678 0 .372-.135.508l-5.28.744q-.272 0-.407.034 0 2.506-.034 3.216l4.13-.846q.745-.068.982-.068 1.016 0 1.727.914.71-.067.71-4.773z" font-size="34.667" font-family="'cwTeX Q Kai'" stroke="#000"/></g></g></svg>