<svg xmlns="http://www.w3.org/2000/svg" width="60" height="60"><defs><filter id="a" color-interpolation-filters="sRGB"><feFlood flood-opacity=".498" flood-color="#000" result="flood"/><feComposite in="flood" in2="SourceGraphic" operator="in" result="composite1"/><feGaussianBlur in="composite1" stdDeviation="1" result="blur"/><feOffset dx="5" dy="3" result="offset"/><feComposite in="SourceGraphic" in2="offset" result="composite2"/></filter><filter id="b" color-interpolation-filters="sRGB"><feGaussianBlur stdDeviation="5" result="result8"/><feComposite result="result6" in="SourceGraphic" operator="in" in2="result8"/><feComposite operator="in" result="result11" in2="result6"/><feFlood result="result10" flood-opacity="1" flood-color="#FFF"/><feBlend mode="multiply" in="result10" in2="result11" result="result12"/><feComposite result="fbSourceGraphic" operator="in" in2="SourceGraphic" in="result12"/><feFlood result="result6" flood-color="#4B659A"/><feComposite k3=".3" k2=".3" k1=".5" operator="arithmetic" result="result2" in="fbSourceGraphic" in2="result6"/><feColorMatrix result="fbSourceGraphicAlpha" in="result2" values="1 0 0 -1 0 1 0 1 -1 0 1 0 0 -1 0 -0.8 -1 0 3.9 -2.7"/><feGaussianBlur result="result0" in="fbSourceGraphicAlpha" stdDeviation=".5"/><feDiffuseLighting lighting-color="#fff" diffuseConstant=".7" surfaceScale="50" result="result13" in="result0"><feDistantLight elevation="20" azimuth="225"/></feDiffuseLighting><feSpecularLighting specularExponent="20" specularConstant=".7" surfaceScale="10" lighting-color="#fff" result="result1" in="result0"><feDistantLight elevation="45" azimuth="225"/></feSpecularLighting><feBlend mode="screen" result="result5" in2="SourceGraphic" in="result13"/><feComposite in="result1" k3="1" k2="1" operator="arithmetic" in2="result5" result="result9"/><feComposite in2="SourceGraphic" operator="in" result="fbSourceGraphic"/><feColorMatrix result="fbSourceGraphicAlpha" in="fbSourceGraphic" values="0 0 0 -1 0 0 0 0 -1 0 0 0 0 -1 0 0 0 0 1 0"/><feComposite in2="fbSourceGraphic" operator="arithmetic" k2="1" result="composite1" in="fbSourceGraphic"/><feColorMatrix in="composite1" values="1" type="saturate" result="colormatrix1"/><feFlood flood-opacity=".627" flood-color="red" result="flood1"/><feBlend in2="colormatrix1" in="flood1" mode="multiply" result="blend1"/><feBlend in2="blend1" mode="screen" result="blend2"/><feColorMatrix in="blend2" values="1" type="saturate" result="colormatrix2"/><feComposite in2="fbSourceGraphic" in="colormatrix2" operator="in" result="composite2"/></filter></defs><g opacity=".99"><g transform="matrix(.6 0 0 .6 -189.175 -51.407)" filter="url(#a)"><path d="M365.291 98l-20.033 6.137-10.675 63.55H396l-10.676-63.55z" fill="#fee572"/><path d="M334.583 167.687v5.668H396v-5.668z" fill="#c3983c" fill-opacity=".992"/></g><g transform="translate(2.816 -2.914) scale(1.06875)" opacity=".99" filter="url(#b)"><path d="M29.088 42.391c.397-.478.06-.525-1.838-.255-4.253.606-6.373.467-7.507-.494l-1.051-.89 1.073-.909c.59-.5 1.371-1.075 1.735-1.279.58-.324.572-.498-.062-1.404-.647-.924-.653-1.113-.051-1.778.608-.671.564-.815-.454-1.482-1.823-1.194-1.374-1.645 1.321-1.329 2.295.27 2.45.228 2.45-.664 0-.665-.278-.952-.92-.952-1.068 0-2.643-.76-2.643-1.275 0-.47 7.01-1.964 7.575-1.615.932.576.427 1.917-.896 2.378-1.769.617-1.84 1.927-.086 1.576.83-.166 1.44-.019 1.82.437.692.835.29 1.616-.833 1.616-1.274 0-2.237.48-2.237 1.116 0 .364.528.55 1.447.508 1.019-.046 1.447.133 1.447.603 0 .369-.647.858-1.447 1.094-.916.27-1.447.71-1.447 1.202 0 .633.474.8 2.56.91 2.247.117 2.578.253 2.7 1.11.1.709-.228 1.165-1.203 1.67-1.64.847-2.095.88-1.453.106zm-4.901-3.395l.15-1.054-1.479.936c-1.984 1.257-2.099 1.839-.29 1.47 1.095-.222 1.506-.565 1.619-1.352zm.07-3.413c0-.47-.241-.622-.703-.445-.388.149-.889.27-1.114.27-.224 0-.408.2-.408.445s.5.446 1.113.446c.725 0 1.113-.25 1.113-.716zm-8.682-5.207c3.341-2.806 6.326-6.095 7.45-8.209l1.002-1.886-.997-.7c-1.299-.909-1.263-1.455.118-1.802.706-.177 1.536-.005 2.258.468.94.616 1.116 1.036 1 2.383-.14 1.626-.118 1.648 3.963 4.088 5.506 3.291 6.802 4.472 6.802 6.197 0 1.029-.203 1.376-.802 1.376-.8 0-4.038-2.627-8.397-6.812l-2.297-2.205-3.063 3.062c-2.636 2.635-7.678 6.004-8.88 5.933-.21-.013.619-.864 1.843-1.893z" fill="#fecece"/><path d="M20.139 42.081c-1.29-.8-.934-2.12.814-3.016 1.405-.72 1.51-.887.891-1.401-.79-.655-.935-2.06-.258-2.478.714-.441.517-1.03-.445-1.336-.49-.156-.89-.54-.89-.855 0-.42.598-.516 2.226-.36 2.04.197 2.226.136 2.226-.732 0-.66-.278-.948-.92-.948-1.064 0-2.642-.76-2.642-1.272 0-.357 4.654-1.445 6.667-1.56 1.672-.094 1.698 1.293.04 2.15-1.8.931-1.87 2.2-.099 1.811.833-.183 1.443-.063 1.787.351.643.776-.06 1.477-1.711 1.706-.632.088-1.174.497-1.26.95-.123.642.056.745.918.529.692-.174 1.273-.025 1.643.42.486.585.392.757-.619 1.142-.654.249-1.378.453-1.606.453-.23 0-.417.39-.417.867 0 .73.364.888 2.292 1.002 2.736.16 3.88 1.294 2.41 2.387-1.045.775-2.215.856-1.76.12.213-.345.082-.429-.39-.248-1.47.565-8.116.802-8.897.318zm3.34-1.769c.534-.004.779-.359.779-1.13 0-1.091-.038-1.105-1.257-.475-.691.357-1.543.998-1.892 1.424-.58.707-.538.749.477.481.613-.162 1.464-.296 1.893-.3zm.779-4.506c0-.886-.357-1.02-1.522-.573-1.091.419-.83 1.281.409 1.353.818.047 1.113-.16 1.113-.78zm6.217-8.128l-5.137-4.614-1.32 1.761c-1.33 1.776-5.543 5.2-7.898 6.417-2.508 1.297-2.05.336 1.091-2.29 3.144-2.628 6.568-6.915 6.59-8.25.007-.374-.428-1.057-.965-1.517l-.977-.836 1.022-.378c.657-.243 1.444-.175 2.202.192.937.453 1.18.886 1.184 2.117.002.851.158 1.787.344 2.079.187.292 1.876 1.38 3.754 2.416 4.59 2.534 6.892 4.637 6.717 6.138-.074.631-.435 1.2-.802 1.264-.367.063-2.98-1.961-5.805-4.499z" fill="#feb0b0"/><path d="M20.362 42.098c-1.489-.635-1.243-1.967.541-2.928 1.382-.744 1.475-.907.89-1.552-.857-.948-.83-2.17.056-2.51.58-.222.479-.458-.557-1.305l-1.264-1.034 2.337-.016c2.036-.014 2.338-.132 2.338-.907 0-.576-.297-.89-.841-.89-.463 0-1.314-.395-1.892-.876l-1.052-.876 1.114-.02c.612-.011 2.183-.305 3.491-.653 1.308-.348 2.66-.525 3.006-.393 1.074.413.688 1.536-.709 2.063-1.651.623-1.944 2.34-.33 1.934.553-.138 1.283-.08 1.623.13.945.584.247 1.726-1.152 1.887-.798.091-1.304.445-1.406.982-.131.693.033.79.947.56.716-.18 1.3-.045 1.651.379.45.542.338.735-.646 1.109-.654.249-1.378.453-1.607.453-.228 0-.416.39-.416.867 0 .73.364.888 2.292 1.002 2.736.16 3.88 1.294 2.41 2.387-1.035.768-2.215.856-1.767.131.217-.352-.016-.43-.753-.251-2.214.536-7.34.738-8.304.327zm3.065-1.786c.643-.005 1.503-1.709 1.077-2.134-.275-.276-2.72 1.131-3.395 1.953-.58.707-.538.749.477.481.613-.162 1.44-.296 1.84-.3zm.83-4.506c0-.886-.356-1.02-1.521-.573-1.091.419-.83 1.281.409 1.353.818.047 1.113-.16 1.113-.78zm8.612-6.12a623.864 623.864 0 01-5.207-4.587L25.5 23.163l-3.406 3.34c-2.884 2.828-7.324 5.817-7.839 5.277-.082-.086 1.175-1.26 2.795-2.609 3.176-2.644 6.166-6.247 6.615-7.97.19-.727.043-1.243-.455-1.607-1.134-.83-.87-1.551.57-1.551 1.847 0 2.841 1.134 2.516 2.869-.256 1.363-.166 1.453 3.766 3.746 5.332 3.11 7.195 4.76 7.02 6.218-.073.618-.367 1.2-.651 1.294-.285.093-1.888-1.024-3.562-2.483z" fill="#fe8e8e"/><path d="M20.362 42.015c-.551-.28-1.002-.765-1.002-1.077 0-.568 1.804-2.198 2.801-2.53.363-.121.286-.421-.245-.952-.952-.953-1-1.99-.107-2.332.837-.321.875-1.052.054-1.052-.337 0-.862-.3-1.167-.668-.48-.578-.25-.667 1.726-.667 1.984 0 2.281-.116 2.281-.891 0-.576-.297-.89-.841-.89-.463 0-1.314-.395-1.892-.876l-1.052-.876 1.377-.015c.757-.008 2.329-.301 3.494-.652 1.165-.35 2.399-.53 2.742-.398 1.072.412.685 1.535-.711 2.062-1.633.617-1.888 2.199-.334 2.073 1.68-.136 2.115-.009 2.115.62 0 .333-.65.79-1.444 1.018-1.792.514-2.421 2.226-.655 1.782.7-.175 1.297-.048 1.625.347.576.695.364.892-1.418 1.318-.888.212-1.225.569-1.225 1.298 0 .899.182.987 1.732.84 3.085-.295 4.808 1.457 2.477 2.519-1.424.649-1.672.65-1.271.001.234-.379-.26-.432-1.866-.202-4.517.647-6.221.695-7.194.2zm4.004-1.998c.48-.297.419-1.937-.072-1.937-.73 0-3.133 1.541-3.374 2.165-.185.479.12.541 1.437.294.92-.173 1.823-.408 2.009-.522zm-.108-4.2c0-.694-.241-.882-.997-.774-1.437.205-1.54 1.481-.13 1.598.87.072 1.127-.115 1.127-.824zm7.97-6.728c-2.019-1.79-4.376-3.872-5.237-4.627l-1.566-1.373-2.543 2.709c-2.36 2.514-6.1 5.18-8.197 5.84-.605.19-.462-.05.445-.747 4.356-3.353 8.683-8.506 8.683-10.341 0-.415-.301-.87-.668-1.01-1.196-.46-.755-1.497.636-1.497 1.845 0 2.79 1.087 2.462 2.834-.26 1.391-.195 1.453 4.414 4.193 4.883 2.904 6.643 4.56 6.422 6.047-.242 1.628-1.159 1.244-4.85-2.028z" fill="#fe6f6f"/><path d="M20.853 42.09c-.526-.212-1.097-.613-1.269-.89-.362-.587.98-2.23 1.822-2.23.945 0 1.175-.85.431-1.593-.88-.881-.894-1.92-.028-2.253.837-.321.875-1.052.054-1.052-.337 0-.862-.3-1.167-.668-.48-.578-.25-.667 1.726-.667 1.984 0 2.281-.116 2.281-.891 0-.576-.297-.89-.841-.89-.463 0-1.314-.395-1.892-.876l-1.052-.876 1.336-.02c.735-.011 2.37-.296 3.635-.632 1.655-.44 2.435-.477 2.783-.129.783.783.568 1.214-.852 1.709-1.99.693-1.838 2.16.223 2.16 2.112 0 2.038 1.06-.112 1.59-1.235.306-1.67.645-1.67 1.304 0 .86.11.886 2.171.515.215-.039.483.184.597.496.121.33-.365.765-1.169 1.045-.995.347-1.376.76-1.376 1.495 0 .929.16.997 1.893.812 1.302-.14 2.17.016 2.783.5.884.698.882.71-.185 1.613-.817.69-1.158.775-1.42.35-.277-.447-.983-.451-3.498-.02-3.607.619-3.901.624-5.204.098zm3.513-2.073c.185-.115.337-.704.337-1.309v-1.1l-1.773 1.015c-2.487 1.423-2.756 2.325-.573 1.916.92-.173 1.823-.408 2.009-.522zm.255-4.275c.108-.57-.145-.78-.944-.78-1.153 0-2.3.979-1.77 1.51.592.59 2.564.06 2.714-.73zm9.175-5.32a308.185 308.185 0 01-5.221-4.659l-3.03-2.767-2.981 3.024c-2.566 2.602-7.102 5.809-8.236 5.822-.197.002.805-.965 2.226-2.15 3.332-2.78 5.658-5.377 6.776-7.569.886-1.736.886-1.754.02-2.538-1.208-1.093-1.093-1.542.394-1.542 1.827 0 3.032 1.455 2.383 2.878-.576 1.265-.203 1.602 4.943 4.452 3.922 2.172 6.217 4.317 6.024 5.633-.23 1.572-.95 1.445-3.298-.583z" fill="#fe4f4f"/><path d="M21.285 42.231c-1.178-.24-2.107-1.27-1.716-1.903.157-.254.725-.697 1.263-.983.888-.473.92-.452.357.231-.867 1.05-.4 1.313 1.703.958 1.638-.277 1.811-.432 1.811-1.614v-1.308l-1.447.748c-1.332.688-1.398.69-.836.011.523-.63.514-.736-.064-.736-.616 0-1.215-.873-1.215-1.77 0-.199.35-.495.78-.658.624-.238.668-.186.222.264-.93.937-.63 1.337.89 1.19 1.104-.107 1.448-.35 1.448-1.03 0-.601-.254-.848-.78-.76-.428.072-.779-.078-.779-.334 0-.255-.262-.465-.583-.465-.32 0-.971-.307-1.447-.682-.803-.635-.707-.674 1.362-.557 1.988.113 2.241.023 2.363-.835.108-.752-.152-1.024-1.193-1.253-.732-.16-1.548-.554-1.814-.874-.383-.462.001-.647 1.862-.896 3.938-.528 5.366-.503 5.571.097.11.325-.393.77-1.183 1.046-2.025.706-1.902 2.173.183 2.173 1.088 0 1.558.202 1.558.668 0 .378-.399.668-.92.668-1.407 0-2.642.827-2.642 1.769 0 .725.233.809 1.618.584 1.267-.206 1.573-.127 1.41.362-.114.344-.592.696-1.061.784-1.283.24-1.9.895-1.669 1.775.162.62.676.789 2.407.789 2.845 0 3.72.786 2.231 2.003-.783.64-1.164.734-1.403.347-.3-.486-2.72-.398-6.409.232-.5.085-1.345.067-1.878-.041zm-3.583-13.487c3.265-3.044 5.598-5.921 6.249-7.708.184-.506-.03-1.064-.593-1.546-1.225-1.049-1.102-1.447.444-1.447 1.714 0 2.987 1.715 2.269 3.057-.545 1.018-.182 1.334 5.089 4.422 4.076 2.389 5.465 3.606 5.818 5.1.656 2.773-2.055 1.147-8.541-5.126l-2.723-2.633-3.288 3.267c-1.809 1.797-4.39 3.846-5.738 4.554l-2.449 1.287z" fill="#fe2f2f"/><path d="M19.846 41.469c-.658-.794-.37-1.408.986-2.106.805-.414.88-.398.42.087-.826.874-.678 1.302.446 1.295 2.213-.013 3.005-.495 3.005-1.827 0-1.503-.09-1.53-1.685-.512-1.147.732-1.178.732-.598 0 .527-.666.512-.771-.111-.771-.398 0-.723-.2-.723-.446 0-.245.702-.445 1.559-.445 1.384 0 1.558-.13 1.558-1.165 0-.946-.167-1.121-.89-.932-.49.128-.89.05-.89-.171 0-.222-.263-.404-.584-.404-.32 0-.971-.31-1.447-.688-.8-.636-.694-.667 1.413-.411 1.895.23 2.326.148 2.568-.482.385-1.004-.408-1.895-1.838-2.066-3.211-.382-.331-1.617 4.34-1.86 1.597-.084 1.694.72.181 1.502-1.885.975-1.753 2.394.226 2.424.835.013 1.602.273 1.706.58.111.33-.2.556-.77.556-1.465 0-2.68.823-2.68 1.817 0 .788.195.859 1.617.592 2.082-.39 1.908.71-.2 1.257-1.11.288-1.416.604-1.416 1.467 0 1.049.127 1.1 2.672 1.1 2.374 0 2.671.1 2.671.891 0 .49-.15.895-.334.9-.183.006-2.652.12-5.486.254-4.28.201-5.248.128-5.716-.436zm10.717-14.09l-5-4.5-3.013 3.036c-1.657 1.67-4.105 3.607-5.44 4.305l-2.425 1.267 1.558-1.232c2.666-2.109 6.1-5.957 7.192-8.06l1.046-2.013-1.002-.679c-1.251-.847-1.286-1.46-.082-1.46 1.787 0 2.713.852 2.582 2.376-.067.782.023 1.656.2 1.943.177.287 2.107 1.543 4.288 2.79 5.286 3.026 8.017 6.159 5.751 6.599-.36.07-2.905-1.898-5.655-4.372z" fill="#fe0404"/></g></g></svg>