<svg xmlns="http://www.w3.org/2000/svg" width="60" height="60"><defs><filter id="a" color-interpolation-filters="sRGB"><feFlood flood-opacity=".498" flood-color="#000" result="flood"/><feComposite in="flood" in2="SourceGraphic" operator="in" result="composite1"/><feGaussianBlur in="composite1" stdDeviation="1" result="blur"/><feOffset dx="5" dy="3" result="offset"/><feComposite in="SourceGraphic" in2="offset" result="composite2"/></filter><filter id="b" color-interpolation-filters="sRGB"><feGaussianBlur stdDeviation="5" result="result8"/><feComposite result="result6" in="SourceGraphic" operator="in" in2="result8"/><feComposite operator="in" result="result11" in2="result6"/><feFlood result="result10" flood-opacity="1" flood-color="#FFF"/><feBlend mode="multiply" in="result10" in2="result11" result="result12"/><feComposite result="fbSourceGraphic" operator="in" in2="SourceGraphic" in="result12"/><feFlood result="result6" flood-color="#4B659A"/><feComposite k3=".3" k2=".3" k1=".5" operator="arithmetic" result="result2" in="fbSourceGraphic" in2="result6"/><feColorMatrix result="fbSourceGraphicAlpha" in="result2" values="1 0 0 -1 0 1 0 1 -1 0 1 0 0 -1 0 -0.8 -1 0 3.9 -2.7"/><feGaussianBlur result="result0" in="fbSourceGraphicAlpha" stdDeviation=".5"/><feDiffuseLighting lighting-color="#fff" diffuseConstant=".7" surfaceScale="50" result="result13" in="result0"><feDistantLight elevation="20" azimuth="225"/></feDiffuseLighting><feSpecularLighting specularExponent="20" specularConstant=".7" surfaceScale="10" lighting-color="#fff" result="result1" in="result0"><feDistantLight elevation="45" azimuth="225"/></feSpecularLighting><feBlend mode="screen" result="result5" in2="SourceGraphic" in="result13"/><feComposite in="result1" k3="1" k2="1" operator="arithmetic" in2="result5" result="result9"/><feComposite in2="SourceGraphic" operator="in" result="fbSourceGraphic"/><feColorMatrix result="fbSourceGraphicAlpha" in="fbSourceGraphic" values="0 0 0 -1 0 0 0 0 -1 0 0 0 0 -1 0 0 0 0 1 0"/><feComposite in2="fbSourceGraphic" operator="arithmetic" k2="1" result="composite1" in="fbSourceGraphic"/><feColorMatrix in="composite1" values="1" type="saturate" result="colormatrix1"/><feFlood flood-opacity=".667" flood-color="#000" result="flood1"/><feBlend in2="colormatrix1" in="flood1" mode="multiply" result="blend1"/><feBlend in2="blend1" mode="screen" result="blend2"/><feColorMatrix in="blend2" values="1" type="saturate" result="colormatrix2"/><feComposite in2="fbSourceGraphic" in="colormatrix2" operator="in" result="composite2"/></filter></defs><g opacity=".99"><g filter="url(#a)" transform="matrix(.6 0 0 .6 6.557 3.624)"><path d="M39.071 3.92L16.52 11.313 6 78.331h66.142l-10.52-67.018z" opacity=".99" fill="#fee572"/><path d="M6 78.331V84h66.142v-5.669z" fill="#c3983c" fill-opacity=".992"/></g><g transform="matrix(1.00697 0 0 1.0097 25.502 34.892)" stroke="#000" stroke-width=".848" filter="url(#b)"><g style="line-height:1.25;-inkscape-font-specification:KaiTi"><path d="M-1.085-14.282c-1.722 0-4.415-.629-5.248-1.462 0-.195 1.498-.121 1.665-.205.194-.083.611-.152 1.25-.208.667-.083 1.43-.167 2.292-.25.889-.083 2.222-.278 4-.583 1.777-.306 3.694-.695 5.75-1.167a5.693 5.693 0 011.458-.167c1.222 0 2.153.375 2.792 1.125.027.278-.028.5-.167.667-.139.139-.458.278-.958.417-.5.11-1.028.208-1.584.291-.527.056-1.375.181-2.541.375-1.167.195-2.306.403-3.417.625.694.362 1.042.917 1.042 1.667l-.209 2.25-.125 4.042v.041l4.004-.579c.167-.028 1.309-.254 1.587-.254 1.083 0 1.875.347 2.375 1.042-.028.389-.542.722-1.542 1s-3.243.5-4.465.666c-1.223.14-1.861.223-1.917.25l-.125.209-.25 8.208c3.25-.222 5.93-.472 8.042-.75l3.583-.625h.292c.805 0 1.652.43 2.541 1.292.917.833 1.375 1.472 1.375 1.916-.11.195-.389.292-.833.292-.417 0-2.236-.153-5.458-.458l-2.667-.167c-2.306 0-5.528.195-9.667.583-4.139.39-6.357.785-7.857 1.257l-1.875.541a.682.682 0 00-.166.042h-.167c-.555 0-1.153-.208-1.792-.625-.638-.417-1.11-.889-1.416-1.417 0-.305.083-.527.25-.666l.19.035c1.611.3 3.833-.167 6.583-.5 2.75-.333 5-.5 6.75-.5h.167l.125-8.25-3.75.25c-1.222-.028-2.917-.233-3.528-.9 0-.306.18-.472.541-.5l2.654-.267L2.54-6.24v-6.084c0-.805-.264-1.513-.791-2.125-1 .112-1.945.167-2.834.167z" style="-inkscape-font-specification:'cwTeX Q Kai'" font-size="42.667" font-family="'cwTeX Q Kai'" aria-label="王" font-weight="400" letter-spacing="0" word-spacing="0"/></g></g></g></svg>