<?xml version="1.0" encoding="UTF-8" standalone="no"?>
<svg
   xmlns:dc="http://purl.org/dc/elements/1.1/"
   xmlns:cc="http://creativecommons.org/ns#"
   xmlns:rdf="http://www.w3.org/1999/02/22-rdf-syntax-ns#"
   xmlns:svg="http://www.w3.org/2000/svg"
   xmlns="http://www.w3.org/2000/svg"
   xmlns:sodipodi="http://sodipodi.sourceforge.net/DTD/sodipodi-0.dtd"
   xmlns:inkscape="http://www.inkscape.org/namespaces/inkscape"
   width="60"
   height="60"
   version="1.1"
   id="svg78"
   sodipodi:docname="0RY.svg"
   inkscape:version="1.0.1 (3bc2e813f5, 2020-09-07)">
  <metadata
     id="metadata82">
    <rdf:RDF>
      <cc:Work
         rdf:about="">
        <dc:format>image/svg+xml</dc:format>
        <dc:type
           rdf:resource="http://purl.org/dc/dcmitype/StillImage" />
      </cc:Work>
    </rdf:RDF>
  </metadata>
  <sodipodi:namedview
     pagecolor="#ffffff"
     bordercolor="#666666"
     borderopacity="1"
     objecttolerance="10"
     gridtolerance="10"
     guidetolerance="10"
     inkscape:pageopacity="0"
     inkscape:pageshadow="2"
     inkscape:window-width="1366"
     inkscape:window-height="711"
     id="namedview80"
     showgrid="false"
     inkscape:zoom="3.2173359"
     inkscape:cx="9.9302288"
     inkscape:cy="46.52668"
     inkscape:window-x="0"
     inkscape:window-y="0"
     inkscape:window-maximized="1"
     inkscape:current-layer="svg78" />
  <defs
     id="defs64">
    <filter
       id="a"
       color-interpolation-filters="sRGB">
      <feFlood
         flood-opacity=".498"
         flood-color="#000"
         result="flood"
         id="feFlood2" />
      <feComposite
         in="flood"
         in2="SourceGraphic"
         operator="in"
         result="composite1"
         id="feComposite4" />
      <feGaussianBlur
         in="composite1"
         stdDeviation="1"
         result="blur"
         id="feGaussianBlur6" />
      <feOffset
         dx="5"
         dy="3"
         result="offset"
         id="feOffset8" />
      <feComposite
         in="SourceGraphic"
         in2="offset"
         result="composite2"
         id="feComposite10" />
    </filter>
    <filter
       id="b"
       color-interpolation-filters="sRGB">
      <feGaussianBlur
         stdDeviation="5"
         result="result8"
         id="feGaussianBlur13" />
      <feComposite
         result="result6"
         in="SourceGraphic"
         operator="in"
         in2="result8"
         id="feComposite15" />
      <feComposite
         operator="in"
         result="result11"
         in2="result6"
         id="feComposite17" />
      <feFlood
         result="result10"
         flood-opacity="1"
         flood-color="#FFF"
         id="feFlood19" />
      <feBlend
         mode="multiply"
         in="result10"
         in2="result11"
         result="result12"
         id="feBlend21" />
      <feComposite
         result="fbSourceGraphic"
         operator="in"
         in2="SourceGraphic"
         in="result12"
         id="feComposite23" />
      <feFlood
         result="result6"
         flood-color="#4B659A"
         id="feFlood25" />
      <feComposite
         k3=".3"
         k2=".3"
         k1=".5"
         operator="arithmetic"
         result="result2"
         in="fbSourceGraphic"
         in2="result6"
         id="feComposite27" />
      <feColorMatrix
         result="fbSourceGraphicAlpha"
         in="result2"
         values="1 0 0 -1 0 1 0 1 -1 0 1 0 0 -1 0 -0.8 -1 0 3.9 -2.7"
         id="feColorMatrix29" />
      <feGaussianBlur
         result="result0"
         in="fbSourceGraphicAlpha"
         stdDeviation=".5"
         id="feGaussianBlur31" />
      <feDiffuseLighting
         lighting-color="#fff"
         diffuseConstant=".7"
         surfaceScale="50"
         result="result13"
         in="result0"
         id="feDiffuseLighting35">
        <feDistantLight
           elevation="20"
           azimuth="225"
           id="feDistantLight33" />
      </feDiffuseLighting>
      <feSpecularLighting
         specularExponent="20"
         specularConstant=".7"
         surfaceScale="10"
         lighting-color="#fff"
         result="result1"
         in="result0"
         id="feSpecularLighting39">
        <feDistantLight
           elevation="45"
           azimuth="225"
           id="feDistantLight37" />
      </feSpecularLighting>
      <feBlend
         mode="screen"
         result="result5"
         in2="SourceGraphic"
         in="result13"
         id="feBlend41" />
      <feComposite
         in="result1"
         k3="1"
         k2="1"
         operator="arithmetic"
         in2="result5"
         result="result9"
         id="feComposite43" />
      <feComposite
         in2="SourceGraphic"
         operator="in"
         result="fbSourceGraphic"
         id="feComposite45" />
      <feColorMatrix
         result="fbSourceGraphicAlpha"
         in="fbSourceGraphic"
         values="0 0 0 -1 0 0 0 0 -1 0 0 0 0 -1 0 0 0 0 1 0"
         id="feColorMatrix47" />
      <feComposite
         in2="fbSourceGraphic"
         operator="arithmetic"
         k2="1"
         result="composite1"
         in="fbSourceGraphic"
         id="feComposite49" />
      <feColorMatrix
         in="composite1"
         values="1"
         type="saturate"
         result="colormatrix1"
         id="feColorMatrix51" />
      <feFlood
         flood-opacity=".627"
         flood-color="red"
         result="flood1"
         id="feFlood53" />
      <feBlend
         in2="colormatrix1"
         in="flood1"
         mode="multiply"
         result="blend1"
         id="feBlend55" />
      <feBlend
         in2="blend1"
         mode="screen"
         result="blend2"
         id="feBlend57" />
      <feColorMatrix
         in="blend2"
         values="1"
         type="saturate"
         result="colormatrix2"
         id="feColorMatrix59" />
      <feComposite
         in2="fbSourceGraphic"
         in="colormatrix2"
         operator="in"
         result="composite2"
         id="feComposite61" />
    </filter>
  </defs>
  <g
     opacity="0.99"
     id="g76"
     transform="translate(3.9209992,-4.0126801e-4)">
    <g
       filter="url(#a)"
       transform="matrix(0.6,0,0,0.6,-45.855,-52.115)"
       id="g70">
      <path
         d="M 119.89,98 98.188,105.118 88,170.049 h 63.78 l -10.19,-64.93 z"
         opacity="0.99"
         fill="#fee572"
         id="path66" />
      <path
         d="m 88,170.05 v 5.668 h 63.78 v -5.67 z"
         fill="#c3983c"
         fill-opacity="0.992"
         id="path68" />
    </g>
    <g
       style="line-height:1.25;-inkscape-font-specification:KaiTi"
       aria-label="é¾"
       transform="matrix(0.99,0,0,0.99,-0.11,-2.627)"
       font-weight="400"
       font-size="26.667px"
       font-family="KaiTi"
       letter-spacing="0"
       word-spacing="0"
       filter="url(#b)"
       id="g74">
      <path
         style="-inkscape-font-specification:'cwTeX Q Kai'"
         d="m 26.572,32.879 c -0.046,-0.587 -0.125,-1.05 -0.237,-1.388 -0.113,-0.339 -0.17,-0.542 -0.17,-0.61 0,-0.27 0.136,-0.406 0.407,-0.406 0.338,0 0.665,0.124 0.981,0.373 1.851,-0.52 3.43,-1.027 4.74,-1.524 l 0.575,-1.862 c 0.023,-0.09 0.034,-0.225 0.034,-0.406 0,-0.248 -0.022,-0.429 -0.067,-0.542 -0.046,-0.113 -0.102,-0.18 -0.17,-0.203 l -0.101,-0.068 c -1.896,0.362 -3.284,0.915 -4.164,1.66 -0.203,0 -0.44,-0.125 -0.711,-0.373 -0.249,-0.248 -0.373,-0.429 -0.373,-0.542 0,-0.158 0.034,-0.316 0.102,-0.474 0.068,-0.18 0.147,-0.372 0.237,-0.575 0.09,-0.203 0.17,-0.62 0.237,-1.253 0.068,-0.654 0.101,-1.49 0.101,-2.505 0,-1.286 -0.045,-2.076 -0.135,-2.37 l -0.27,-0.88 -0.035,-0.102 0.305,-0.101 c 1.06,0.135 1.806,0.451 2.234,0.948 0,0.135 -0.067,0.485 -0.203,1.05 -0.135,0.563 -0.225,0.981 -0.27,1.252 0.27,0 0.981,-0.158 2.132,-0.474 1.151,-0.316 1.986,-0.474 2.505,-0.474 0.632,0 1.106,0.158 1.422,0.474 0,0.406 -0.61,0.745 -1.828,1.016 -1.219,0.27 -2.19,0.406 -2.911,0.406 -0.474,0 -0.813,-0.023 -1.016,-0.068 l -0.338,-0.068 -0.17,0.203 -0.372,2.506 0.068,0.643 0.033,0.101 h 0.474 l 3.724,-1.455 c 0.52,0 1.32,0.406 2.404,1.218 0,0.09 -0.045,0.181 -0.135,0.271 -0.09,0.09 -0.215,0.203 -0.373,0.339 -0.135,0.135 -0.35,0.463 -0.643,0.982 -0.27,0.496 -0.564,1.15 -0.88,1.963 0.158,0.136 0.282,0.248 0.372,0.339 0.09,0.067 0.136,0.113 0.136,0.135 0.022,0.023 0.033,0.057 0.033,0.102 l 0.068,0.067 c -0.158,0.158 -0.508,0.294 -1.05,0.407 -0.518,0.09 -1.263,0.237 -2.234,0.44 -0.97,0.18 -1.873,0.406 -2.708,0.677 -0.158,0.27 -0.26,0.869 -0.305,1.794 0.339,0 1.185,-0.124 2.54,-0.372 1.376,-0.249 2.279,-0.373 2.708,-0.373 0.406,0.136 0.688,0.294 0.846,0.474 l -0.068,0.271 c -1.783,0.542 -3.442,0.813 -4.976,0.813 a 5.47,5.47 0 0 1 -0.711,-0.034 2.128,2.128 0 0 0 -0.339,-0.034 c -0.09,0.203 -0.169,0.801 -0.237,1.794 0,0.158 -0.011,0.271 -0.034,0.339 1.242,0 2.472,-0.158 3.69,-0.474 l 1.22,-0.339 h 0.27 c 0.587,0 1.072,0.192 1.456,0.576 -0.045,0.541 -1.591,0.869 -4.638,0.982 l -1.998,-0.034 -0.033,2.302 c 0.383,0 1.421,-0.124 3.114,-0.373 1.715,-0.27 2.844,-0.406 3.386,-0.406 0.474,0.248 0.733,0.406 0.778,0.474 0,0.339 -0.124,0.53 -0.372,0.576 l -5.044,0.812 h -0.17 c -0.27,0 -0.654,-0.068 -1.15,-0.203 l -0.407,-0.135 c 0,0.428 0.068,0.846 0.203,1.252 0.136,0.384 0.372,0.779 0.711,1.185 0.361,0.406 0.914,0.734 1.659,0.982 0.745,0.225 1.647,0.338 2.708,0.338 0.903,0 1.648,-0.067 2.235,-0.203 0.586,-0.158 1.072,-0.429 1.455,-0.812 0.384,-0.384 0.666,-0.723 0.847,-1.016 0.18,-0.316 0.428,-0.835 0.744,-1.557 0.316,-0.722 0.587,-1.298 0.813,-1.727 0.113,0.136 0.18,0.316 0.203,0.542 0.045,0.226 0.09,0.598 0.136,1.117 0.045,0.497 0.146,1.038 0.304,1.625 l 0.339,1.287 0.034,0.101 c 0,0.136 -0.023,0.26 -0.068,0.373 a 0.599,0.599 0 0 1 -0.17,0.27 0.862,0.862 0 0 1 -0.203,0.203 0.862,0.862 0 0 1 -0.203,0.204 c -0.067,0.067 -0.112,0.101 -0.135,0.101 -1.625,1.083 -3.634,1.625 -6.026,1.625 h -0.136 c -4.4,0 -6.68,-1.997 -6.838,-5.992 l -0.034,-3.42 z M 19.225,19.134 c 1.693,0.293 2.855,0.756 3.487,1.388 0.136,0.406 0.203,0.734 0.203,0.982 0,0.316 -0.101,0.542 -0.304,0.677 l -0.474,0.135 h -0.17 c -0.632,-0.474 -1.58,-1.342 -2.843,-2.606 0,-0.294 0.033,-0.486 0.101,-0.576 z m 5.89,4.706 c -0.022,0.18 -0.202,0.338 -0.54,0.474 -0.34,0.135 -0.7,0.248 -1.084,0.338 -0.361,0.068 -0.564,0.113 -0.61,0.136 0.362,0.293 0.598,0.496 0.711,0.61 0.113,0.09 0.17,0.236 0.17,0.44 0,0.18 -0.046,0.326 -0.136,0.44 -0.09,0.09 -0.282,0.327 -0.575,0.71 -0.294,0.384 -0.565,0.768 -0.813,1.151 l -0.406,0.61 2.133,-0.373 h 0.101 c 0.655,0 1.151,0.203 1.49,0.61 0,0.158 -0.057,0.27 -0.17,0.338 -0.112,0.068 -0.372,0.136 -0.778,0.203 -0.406,0.068 -0.892,0.136 -1.456,0.203 -0.541,0.068 -1.376,0.226 -2.505,0.474 a 67.728,67.728 0 0 0 -3.656,0.847 c -1.672,0.181 -3.075,-0.209 -3.123,-0.42 0,-0.248 0.08,-0.417 0.237,-0.508 0.023,0 0.542,-0.067 1.557,-0.203 1.039,-0.158 0.457,-0.046 0.48,-0.046 l 4.437,-0.753 c 0.835,-1.715 1.253,-3.092 1.253,-4.13 -0.226,0 -0.903,0.101 -2.031,0.305 -1.106,0.18 -1.896,0.27 -2.37,0.27 -1.219,0 -1.828,-0.225 -1.828,-0.677 0.158,-0.09 0.327,-0.146 0.508,-0.169 0.203,-0.045 0.44,-0.068 0.71,-0.068 0.271,-0.022 0.79,-0.09 1.558,-0.203 a 51.806,51.806 0 0 0 2.742,-0.575 l 2.133,-0.542 c 0.068,-0.023 0.17,-0.034 0.304,-0.034 h 0.204 c 0.632,0 1.083,0.18 1.354,0.542 z m -8.361,2.64 c 0.677,0.136 1.196,0.407 1.557,0.813 0.384,0.384 0.576,0.779 0.576,1.185 0,0.384 -0.192,0.575 -0.576,0.575 -0.09,0 -0.192,-0.045 -0.305,-0.135 a 7.273,7.273 0 0 1 -0.372,-0.406 3.887,3.887 0 0 0 -0.305,-0.373 l -0.61,-1.185 c -0.022,-0.112 -0.01,-0.27 0.035,-0.474 z m -0.17,10.563 c 0,-1.512 -0.236,-2.912 -0.71,-4.198 0.135,-0.068 0.293,-0.102 0.474,-0.102 0.158,0 0.316,0.023 0.474,0.068 0.157,0.045 0.304,0.102 0.44,0.17 0.135,0.045 0.214,0.067 0.237,0.067 l 0.304,0.305 c 0.316,-0.158 1.467,-0.587 3.453,-1.287 0.926,0.136 1.614,0.463 2.066,0.982 0,0.113 -0.09,0.418 -0.271,0.914 -0.18,0.474 -0.271,0.88 -0.271,1.219 v 0.135 l 0.542,7.482 c 0,0.497 -0.204,1.185 -0.61,2.065 -0.406,0.88 -0.79,1.32 -1.15,1.32 -0.385,0 -1.152,-0.823 -2.303,-2.47 l 1.422,0.202 c 0.361,-0.045 0.598,-0.293 0.71,-0.744 0.136,-0.452 0.204,-1.366 0.204,-2.743 0,-1.895 -0.102,-4.22 -0.305,-6.974 -0.067,-0.135 -0.248,-0.203 -0.541,-0.203 -0.407,0 -1.151,0.18 -2.235,0.542 l -0.508,0.203 -0.203,1.997 c 0.88,-0.225 1.433,-0.338 1.66,-0.338 0.383,0.022 0.699,0.192 0.947,0.508 l -0.237,0.237 -2.37,0.508 c -0.135,0.428 -0.203,1.128 -0.203,2.098 1.129,-0.338 1.794,-0.507 1.998,-0.507 0.496,0 0.857,0.169 1.083,0.507 -0.068,0.226 -1.095,0.508 -3.08,0.847 l -0.238,3.08 c -0.226,1.784 -0.7,2.675 -1.422,2.675 -0.451,-0.519 -0.677,-1.185 -0.677,-1.997 0.88,-2.325 1.32,-4.514 1.32,-6.568 z"
         font-size="34.667px"
         font-family="'cwTeX Q Kai'"
         fill="#fd0000"
         stroke="#fd0000"
         id="path72" />
    </g>
  </g>
</svg>
