<?xml version="1.0" encoding="UTF-8" standalone="no"?>
<svg
   xmlns:dc="http://purl.org/dc/elements/1.1/"
   xmlns:cc="http://creativecommons.org/ns#"
   xmlns:rdf="http://www.w3.org/1999/02/22-rdf-syntax-ns#"
   xmlns:svg="http://www.w3.org/2000/svg"
   xmlns="http://www.w3.org/2000/svg"
   xmlns:sodipodi="http://sodipodi.sourceforge.net/DTD/sodipodi-0.dtd"
   xmlns:inkscape="http://www.inkscape.org/namespaces/inkscape"
   width="60"
   height="60"
   version="1.1"
   id="svg78"
   sodipodi:docname="1FU.svg"
   inkscape:version="1.0.1 (3bc2e813f5, 2020-09-07)">
  <metadata
     id="metadata82">
    <rdf:RDF>
      <cc:Work
         rdf:about="">
        <dc:format>image/svg+xml</dc:format>
        <dc:type
           rdf:resource="http://purl.org/dc/dcmitype/StillImage" />
      </cc:Work>
    </rdf:RDF>
  </metadata>
  <sodipodi:namedview
     pagecolor="#ffffff"
     bordercolor="#666666"
     borderopacity="1"
     objecttolerance="10"
     gridtolerance="10"
     guidetolerance="10"
     inkscape:pageopacity="0"
     inkscape:pageshadow="2"
     inkscape:window-width="1366"
     inkscape:window-height="711"
     id="namedview80"
     showgrid="false"
     inkscape:zoom="3.2173359"
     inkscape:cx="4.1039281"
     inkscape:cy="58.179281"
     inkscape:window-x="0"
     inkscape:window-y="0"
     inkscape:window-maximized="1"
     inkscape:current-layer="svg78" />
  <defs
     id="defs64">
    <filter
       id="a"
       color-interpolation-filters="sRGB">
      <feFlood
         flood-opacity=".498"
         flood-color="#000"
         result="flood"
         id="feFlood2" />
      <feComposite
         in="flood"
         in2="SourceGraphic"
         operator="in"
         result="composite1"
         id="feComposite4" />
      <feGaussianBlur
         in="composite1"
         stdDeviation="1"
         result="blur"
         id="feGaussianBlur6" />
      <feOffset
         dx="5"
         dy="3"
         result="offset"
         id="feOffset8" />
      <feComposite
         in="SourceGraphic"
         in2="offset"
         result="composite2"
         id="feComposite10" />
    </filter>
    <filter
       id="b"
       color-interpolation-filters="sRGB">
      <feGaussianBlur
         stdDeviation="5"
         result="result8"
         id="feGaussianBlur13" />
      <feComposite
         result="result6"
         in="SourceGraphic"
         operator="in"
         in2="result8"
         id="feComposite15" />
      <feComposite
         operator="in"
         result="result11"
         in2="result6"
         id="feComposite17" />
      <feFlood
         result="result10"
         flood-opacity="1"
         flood-color="#FFF"
         id="feFlood19" />
      <feBlend
         mode="multiply"
         in="result10"
         in2="result11"
         result="result12"
         id="feBlend21" />
      <feComposite
         result="fbSourceGraphic"
         operator="in"
         in2="SourceGraphic"
         in="result12"
         id="feComposite23" />
      <feFlood
         result="result6"
         flood-color="#4B659A"
         id="feFlood25" />
      <feComposite
         k3=".3"
         k2=".3"
         k1=".5"
         operator="arithmetic"
         result="result2"
         in="fbSourceGraphic"
         in2="result6"
         id="feComposite27" />
      <feColorMatrix
         result="fbSourceGraphicAlpha"
         in="result2"
         values="1 0 0 -1 0 1 0 1 -1 0 1 0 0 -1 0 -0.8 -1 0 3.9 -2.7"
         id="feColorMatrix29" />
      <feGaussianBlur
         result="result0"
         in="fbSourceGraphicAlpha"
         stdDeviation=".5"
         id="feGaussianBlur31" />
      <feDiffuseLighting
         lighting-color="#fff"
         diffuseConstant=".7"
         surfaceScale="50"
         result="result13"
         in="result0"
         id="feDiffuseLighting35">
        <feDistantLight
           elevation="20"
           azimuth="225"
           id="feDistantLight33" />
      </feDiffuseLighting>
      <feSpecularLighting
         specularExponent="20"
         specularConstant=".7"
         surfaceScale="10"
         lighting-color="#fff"
         result="result1"
         in="result0"
         id="feSpecularLighting39">
        <feDistantLight
           elevation="45"
           azimuth="225"
           id="feDistantLight37" />
      </feSpecularLighting>
      <feBlend
         mode="screen"
         result="result5"
         in2="SourceGraphic"
         in="result13"
         id="feBlend41" />
      <feComposite
         in="result1"
         k3="1"
         k2="1"
         operator="arithmetic"
         in2="result5"
         result="result9"
         id="feComposite43" />
      <feComposite
         in2="SourceGraphic"
         operator="in"
         result="fbSourceGraphic"
         id="feComposite45" />
      <feColorMatrix
         result="fbSourceGraphicAlpha"
         in="fbSourceGraphic"
         values="0 0 0 -1 0 0 0 0 -1 0 0 0 0 -1 0 0 0 0 1 0"
         id="feColorMatrix47" />
      <feComposite
         in2="fbSourceGraphic"
         operator="arithmetic"
         k2="1"
         result="composite1"
         in="fbSourceGraphic"
         id="feComposite49" />
      <feColorMatrix
         in="composite1"
         values="1"
         type="saturate"
         result="colormatrix1"
         id="feColorMatrix51" />
      <feFlood
         flood-opacity=".667"
         flood-color="#000"
         result="flood1"
         id="feFlood53" />
      <feBlend
         in2="colormatrix1"
         in="flood1"
         mode="multiply"
         result="blend1"
         id="feBlend55" />
      <feBlend
         in2="blend1"
         mode="screen"
         result="blend2"
         id="feBlend57" />
      <feColorMatrix
         in="blend2"
         values="1"
         type="saturate"
         result="colormatrix2"
         id="feColorMatrix59" />
      <feComposite
         in2="fbSourceGraphic"
         in="colormatrix2"
         operator="in"
         result="composite2"
         id="feComposite61" />
    </filter>
  </defs>
  <g
     opacity="0.99"
     id="g76"
     transform="translate(3.9212988,-3.0029068e-4)">
    <g
       filter="url(#a)"
       transform="matrix(0.6,0,0,0.6,-338.376,-106.932)"
       id="g70">
      <path
         d="M 624.768,252.585 634,194.441 h -53.151 l 9.207,58.137 17.368,5.642 z"
         fill="#feec99"
         id="path66" />
      <path
         d="m 590.056,256.357 v -3.78 l 17.368,5.643 17.344,-5.635 v 3.78 L 607.424,262 Z"
         fill="#c3983c"
         fill-opacity="0.992"
         id="path68" />
    </g>
    <g
       transform="matrix(-0.81225,0,0,-0.81225,46.652,53.818)"
       style="line-height:1.25;-inkscape-font-specification:KaiTi"
       aria-label="歩"
       font-weight="400"
       font-size="26.667px"
       font-family="KaiTi"
       letter-spacing="0"
       word-spacing="0"
       opacity="0.99"
       stroke="#000000"
       filter="url(#b)"
       id="g74">
      <path
         style="-inkscape-font-specification:KaiTi"
         d="m 26.478,21.406 c 1.334,-0.25 2.375,-0.541 3.125,-0.875 0.75,-0.333 1.459,-0.291 2.125,0.125 0.667,0.417 0.459,0.875 -0.625,1.375 -1.083,0.417 -2.625,0.584 -4.625,0.5 l -0.125,3.875 c 2.667,-0.416 4.667,-0.75 6,-1 1.417,-0.25 2.375,-0.166 2.875,0.25 0.5,0.417 0.75,0.75 0.75,1 0.084,0.25 -0.5,0.375 -1.75,0.375 -1.25,0 -2.666,0.084 -4.25,0.25 -1.5,0.167 -3.416,0.417 -5.75,0.75 a 4.23,4.23 0 0 1 1.5,0.75 c 0.417,0.334 0.5,0.75 0.25,1.25 -0.25,0.5 -0.333,1.375 -0.25,2.625 0.084,1.25 0.084,2.292 0,3.125 -0.083,0.834 -0.25,1.417 -0.5,1.75 -0.166,0.25 -0.458,0.084 -0.875,-0.5 -0.416,-0.583 -0.541,-1.208 -0.375,-1.875 0.167,-0.75 0.209,-1.75 0.125,-3 0,-1.25 -0.083,-2.125 -0.25,-2.625 a 25.02,25.02 0 0 0 -0.5,-1.375 c -4.416,0.917 -6.916,1.459 -7.5,1.625 -0.583,0.167 -1.291,0 -2.125,-0.5 -0.75,-0.583 -0.708,-0.875 0.125,-0.875 0.917,0 2.709,-0.25 5.375,-0.75 -0.166,-2.666 -0.458,-4.25 -0.875,-4.75 -0.416,-0.5 -0.541,-0.833 -0.375,-1 0.167,-0.166 0.709,-0.125 1.625,0.125 1,0.167 1.417,0.584 1.25,1.25 -0.166,0.667 -0.208,2.042 -0.125,4.125 1.25,-0.25 2.625,-0.5 4.125,-0.75 0,-3 -0.083,-5.166 -0.25,-6.5 -0.083,-1.416 -0.291,-2.375 -0.625,-2.875 -0.333,-0.5 -0.25,-0.708 0.25,-0.625 0.5,0 1.125,0.167 1.875,0.5 0.75,0.25 1,0.584 0.75,1 -0.25,0.334 -0.375,1.417 -0.375,3.25 z m 6.089,9.517 c 0.667,0.583 0.75,1 0.25,1.25 -0.417,0.25 -2.214,2.4 -2.964,3.483 -0.666,1 -1.708,2.167 -3.125,3.5 -1.333,1.334 -1.992,1.76 -4.925,3.623 -2.446,1.07 -2.156,1.004 -4.608,1.793 -0.903,0.134 -1.525,0.225 -1.78,0.227 -0.38,0.002 0.059,-0.194 1.606,-0.743 2.666,-0.833 3.603,-1.733 5.686,-3.15 2.167,-1.416 3.063,-3.041 4.396,-4.875 1.417,-1.916 3.297,-4.691 3.214,-5.358 -0.713,-0.975 -0.594,-1.221 0.625,-0.875 0.507,0.144 1.042,0.542 1.625,1.125 z m -0.902,5.973 c 1.334,0.334 2.25,0.75 2.75,1.25 0.584,0.5 0.757,1.203 0.625,2.125 -0.118,0.83 -0.541,0.917 -1.375,0.25 -0.75,-0.666 -1.5,-1.25 -2.25,-1.75 a 73.194,73.194 0 0 1 -1.875,-1.5 c -0.5,-0.5 -0.625,-0.791 -0.375,-0.875 0.334,-0.083 1.167,0.084 2.5,0.5 z m -12.687,-4.74 c 0.417,-0.833 0.709,-1.25 0.875,-1.25 0.25,-0.083 0.334,0.5 0.25,1.75 0,1.25 -0.458,2.542 -1.375,3.875 -0.916,1.25 -1.5,1.375 -1.75,0.375 -0.166,-1 0.042,-1.833 0.625,-2.5 a 10.89,10.89 0 0 0 1.375,-2.25 z"
         font-size="32px"
         id="path72" />
    </g>
  </g>
</svg>
