<svg xmlns="http://www.w3.org/2000/svg" width="60" height="60"><defs><filter id="a" color-interpolation-filters="sRGB"><feFlood flood-opacity=".498" flood-color="#000" result="flood"/><feComposite in="flood" in2="SourceGraphic" operator="in" result="composite1"/><feGaussianBlur in="composite1" stdDeviation="1" result="blur"/><feOffset dx="5" dy="3" result="offset"/><feComposite in="SourceGraphic" in2="offset" result="composite2"/></filter><filter id="b" color-interpolation-filters="sRGB"><feGaussianBlur stdDeviation="5" result="result8"/><feComposite result="result6" in="SourceGraphic" operator="in" in2="result8"/><feComposite operator="in" result="result11" in2="result6"/><feFlood result="result10" flood-opacity="1" flood-color="#FFF"/><feBlend mode="multiply" in="result10" in2="result11" result="result12"/><feComposite result="fbSourceGraphic" operator="in" in2="SourceGraphic" in="result12"/><feFlood result="result6" flood-color="#4B659A"/><feComposite k3=".3" k2=".3" k1=".5" operator="arithmetic" result="result2" in="fbSourceGraphic" in2="result6"/><feColorMatrix result="fbSourceGraphicAlpha" in="result2" values="1 0 0 -1 0 1 0 1 -1 0 1 0 0 -1 0 -0.8 -1 0 3.9 -2.7"/><feGaussianBlur result="result0" in="fbSourceGraphicAlpha" stdDeviation=".5"/><feDiffuseLighting lighting-color="#fff" diffuseConstant=".7" surfaceScale="50" result="result13" in="result0"><feDistantLight elevation="20" azimuth="225"/></feDiffuseLighting><feSpecularLighting specularExponent="20" specularConstant=".7" surfaceScale="10" lighting-color="#fff" result="result1" in="result0"><feDistantLight elevation="45" azimuth="225"/></feSpecularLighting><feBlend mode="screen" result="result5" in2="SourceGraphic" in="result13"/><feComposite in="result1" k3="1" k2="1" operator="arithmetic" in2="result5" result="result9"/><feComposite in2="SourceGraphic" operator="in" result="fbSourceGraphic"/><feColorMatrix result="fbSourceGraphicAlpha" in="fbSourceGraphic" values="0 0 0 -1 0 0 0 0 -1 0 0 0 0 -1 0 0 0 0 1 0"/><feComposite in2="fbSourceGraphic" operator="arithmetic" k2="1" result="composite1" in="fbSourceGraphic"/><feColorMatrix in="composite1" values="1" type="saturate" result="colormatrix1"/><feFlood flood-opacity=".667" flood-color="#000" result="flood1"/><feBlend in2="colormatrix1" in="flood1" mode="multiply" result="blend1"/><feBlend in2="blend1" mode="screen" result="blend2"/><feColorMatrix in="blend2" values="1" type="saturate" result="colormatrix2"/><feComposite in2="fbSourceGraphic" in="colormatrix2" operator="in" result="composite2"/></filter></defs><g opacity=".99"><g filter="url(#a)" transform="matrix(.6 0 0 .6 -189.175 -105.922)"><path d="M365.291 259.49l20.403-6.081L396 189.803h-61.417l10.685 63.606z" fill="#feec99"/><path d="M363.944 259.87l1.242 1.66 18.681-5.935-.863-1.63z" fill="url(#linearGradient29775)" transform="matrix(1.10013 0 0 1.05073 -34.8 -13.593)"/><path d="M345.268 257.189v-3.78l20.023 6.081 20.403-6.081v3.78l-20.403 6.08z" fill="#c3983c" fill-opacity=".992"/></g><g transform="matrix(-.9 0 0 -.9 53.435 58.17)" style="line-height:1.25;-inkscape-font-specification:KaiTi" aria-label="銀" font-weight="400" font-size="26.667" font-family="KaiTi" letter-spacing="0" word-spacing="0" opacity=".99" stroke="#000" stroke-width=".867" filter="url(#b)"><path style="-inkscape-font-specification:'cwTeX Q Kai'" d="M33.825 31.442q0-.575.068-.745.102-.203.339-.203.61 0 1.93 1.151l.406.339q0 .135-.034.237 0 .068-.102.17-.101.1-.237.202-.135.102-.44.271-.27.17-.61.372-.304.204-.88.576-.575.372-1.184.779-.88.609-1.693.981 1.93 1.558 2.878 2.133.947.542 1.963.88l3.961 1.151q.27.136.406.17v.237q-1.59.61-4.198.981-2.268-.778-4.705-3.419l-2.506-2.776-.778-.745-.779-.575-.27 7.956-.068.067.135.17 3.08-1.862q.305-.17.915-.373l.101.136-.203.406q-.169.305-1.828 1.862-1.625 1.557-1.997 1.997l-1.32 1.76q-.305.305-.78.305-.947-.846-.947-2.132 1.49-1.592 1.625-5.146l.101-2.844q.237-3.013.237-4.706 0-5.213-1.388-8.125v-.135q0-.474.373-.474.338 0 .982.372.643.339.88.576 3.487-1.185 4.84-1.93.847 0 1.863.61 1.05.609 1.05 1.15 0 .237-.136.474-.135.204-.339.474-.169.237-.44 1.185-.237.948-.44 2.438-.372 2.979-1.591 3.69-.474 0-.914-.474-.406-.508-.44-.508l-.17.068q-.507.203-1.523.474-1.015.237-1.388.372v1.388q.914 0 2.675 1.76l.71.712 2.133-2.675q.339-.474.677-1.185zm-2.03-8.497L27.798 24.4q-.169.507-.27 2.437v.237l1.455-.677q.237-.136.677-.136 1.084 0 1.287.508l-.237.271-3.08.948v2.471l2.03-.812q.339-.068.508-.068.508 0 .847.237l.372-.541.779-4.537q.033-.406.033-1.016 0-.778-.406-.778zm-7.246 11.984q0 .034-.304.203-.305.17-1.185.745-.847.542-1.896 1.354h-.27v-.237l1.32-1.794q.473-.779.473-1.523.136-.136.339-.136.406 0 .948.508.575.474.575.88zm-2.37-3.758q1.422 0 1.422.711v.034l-.304.237-2.912.88q-.169.271-.406 5.552.846-.169 4.164-1.184l.373.067q-.136.61-1.524 1.185l-6.094 2.471q-.27.068-2.302 1.355l-.474-.068-1.862-1.287-.067-.609q.237-.27.948-.27.88 0 .981-.035l4.503-1.218.203-5.519q-1.828.204-2.573.204-1.286 0-1.286-.61.338-.237 3.791-.914 0-1.557-.203-2.302-1.76 0-2.539-.305l-2.234 2.607q-.982.982-1.93 1.388l-.372-.068.101-.304q5.315-6.331 7.177-10.427l.576-1.32q.101-.238.101-.508 0-.102-.169-.745-.17-.677-.17-.948.102-.136.407-.136.643 0 1.524.61.88.575.88 1.083 0 .17-.034.237l-.779 1.151v.068l1.795.508q1.117.406 1.252 1.218v.204l-.034.507-.203.339-.541-.034-2.066-1.591q-.474-.339-.71-.44-1.626 2.945-3.995 5.924.541-.101 2.539-.778 2.031-.677 2.64-.677.914 0 1.355.575 0 .372-.407.508l-2.911.914-.068.034q.745.237.745 1.59v.509q.61-.373 1.693-.373zm-4.908 5.959q0 1.117-.339 1.252-.982-.237-1.963-2.065l-.203-.338q0-.44.203-.508 1.828.812 2.302 1.659z" font-size="34.667" font-family="'cwTeX Q Kai'"/></g></g></svg>