<svg xmlns="http://www.w3.org/2000/svg" width="60" height="60"><defs><filter id="a" color-interpolation-filters="sRGB"><feFlood flood-opacity=".498" flood-color="#000" result="flood"/><feComposite in="flood" in2="SourceGraphic" operator="in" result="composite1"/><feGaussianBlur in="composite1" stdDeviation="1" result="blur"/><feOffset dx="5" dy="3" result="offset"/><feComposite in="SourceGraphic" in2="offset" result="composite2"/></filter><filter id="b" color-interpolation-filters="sRGB"><feGaussianBlur stdDeviation="5" result="result8"/><feComposite result="result6" in="SourceGraphic" operator="in" in2="result8"/><feComposite operator="in" result="result11" in2="result6"/><feFlood result="result10" flood-opacity="1" flood-color="#FFF"/><feBlend mode="multiply" in="result10" in2="result11" result="result12"/><feComposite result="fbSourceGraphic" operator="in" in2="SourceGraphic" in="result12"/><feFlood result="result6" flood-color="#4B659A"/><feComposite k3=".3" k2=".3" k1=".5" operator="arithmetic" result="result2" in="fbSourceGraphic" in2="result6"/><feColorMatrix result="fbSourceGraphicAlpha" in="result2" values="1 0 0 -1 0 1 0 1 -1 0 1 0 0 -1 0 -0.8 -1 0 3.9 -2.7"/><feGaussianBlur result="result0" in="fbSourceGraphicAlpha" stdDeviation=".5"/><feDiffuseLighting lighting-color="#fff" diffuseConstant=".7" surfaceScale="50" result="result13" in="result0"><feDistantLight elevation="20" azimuth="225"/></feDiffuseLighting><feSpecularLighting specularExponent="20" specularConstant=".7" surfaceScale="10" lighting-color="#fff" result="result1" in="result0"><feDistantLight elevation="45" azimuth="225"/></feSpecularLighting><feBlend mode="screen" result="result5" in2="SourceGraphic" in="result13"/><feComposite in="result1" k3="1" k2="1" operator="arithmetic" in2="result5" result="result9"/><feComposite in2="SourceGraphic" operator="in" result="fbSourceGraphic"/><feColorMatrix result="fbSourceGraphicAlpha" in="fbSourceGraphic" values="0 0 0 -1 0 0 0 0 -1 0 0 0 0 -1 0 0 0 0 1 0"/><feComposite in2="fbSourceGraphic" operator="arithmetic" k2="1" result="composite1" in="fbSourceGraphic"/><feColorMatrix in="composite1" values="1" type="saturate" result="colormatrix1"/><feFlood flood-opacity=".667" flood-color="#000" result="flood1"/><feBlend in2="colormatrix1" in="flood1" mode="multiply" result="blend1"/><feBlend in2="blend1" mode="screen" result="blend2"/><feColorMatrix in="blend2" values="1" type="saturate" result="colormatrix2"/><feComposite in2="fbSourceGraphic" in="colormatrix2" operator="in" result="composite2"/></filter></defs><g opacity=".99"><g filter="url(#a)" transform="matrix(.6 0 0 .6 -139.625 -106.36)"><path d="M282.71 260.22l20.087-6.18 10.62-63.506H252l10.623 63.505z" fill="#feec99"/><path d="M262.623 257.819v-3.78l20.087 6.181 20.087-6.18v3.78L282.71 264z" fill="#c3983c" fill-opacity=".992"/></g><g transform="matrix(-.9 0 0 -.9 53.436 58.71)" style="line-height:1.25;-inkscape-font-specification:KaiTi" aria-label="金" font-weight="400" font-size="26.667" font-family="KaiTi" letter-spacing="0" word-spacing="0" opacity=".99" stroke="#000" filter="url(#b)"><path style="-inkscape-font-specification:'cwTeX Q Kai'" d="M26.885 21.515q0 .372-.304.61-.305.202-.474.54l4.604 4.402q1.862 1.659 3.351 2.471 1.524.813 3.42 1.456 1.93.643 3.114 1.219l.136.203q-.745.44-2.64.474l-3.386.169q-.271.034-.61-.102-.338-.169-.61-.338-.236-.203-.608-.542-.339-.372-.508-.541-.17-.204-.508-.576-.305-.406-.339-.44-3.283-3.555-5.89-7.076-.136.204-.88 1.253-.745 1.016-1.185 1.591-.407.542-1.253 1.625-.846 1.083-1.591 1.862-.711.745-1.625 1.693-.914.914-1.896 1.693-.982.744-1.997 1.354-1.828 1.117-2.472 1.388-.643.27-1.32.304l-.068-.033q5.383-4.266 8.091-7.38 2.709-3.115 3.894-5.857.474-1.22.474-3.115.237-.102.541-.102.644 0 1.591.508.948.508.948 1.287zM30.88 37.29q.745.034 1.354.575.644.542.948 1.253 0 .305-.27.474-.271.17-.813.338-.542.136-.643.17-2.946 1.455-4.57 1.794l-.068-.27q3.419-2.675 3.825-3.42l.17-.847zm-5.247 6.838q2.471-.237 4.705-.61 2.269-.405 2.844-.405h.068q.846 0 1.693.507.88.508 1.388 1.253-.136.542-.779.542l-5.281-.17h-.034q-4.841 0-8.971.61l-4.063.745h-.17q-.609 0-1.218-.339-.61-.338-.745-.812 0-.271.373-.271l8.666-.847.068-7.075-2.708.203q-.847-.068-1.625-.305l-.407-.44.271-.237 4.367-.643q0-1.286-.27-2.844-.271.034-.813.034-2.336 0-2.37-.812.305-.136.914-.271.644-.136 1.388-.237.78-.102 1.016-.17l3.927-.981q.677-.136 1.456-.136 1.05.407 1.05.745 0 .203-1.727.711-1.727.474-3.183.711.576.339.576 1.286 0 .339-.034.542l-.101.914 2.708-.677q.474-.101.846-.101 1.151 0 1.524.778 0 .373-.948.643-.948.271-3.42.745-.44.102-.677.136-.169.372-.304 7.143zm-4.266-1.015q-1.354 0-3.487-3.318 0-.339.136-.474 2.572.508 3.656 1.794.068.474.068 1.151 0 .61-.373.847z" font-size="34.667" font-family="'cwTeX Q Kai'"/></g></g></svg>