<?xml version="1.0" encoding="UTF-8" standalone="no"?>
<svg
   xmlns:dc="http://purl.org/dc/elements/1.1/"
   xmlns:cc="http://creativecommons.org/ns#"
   xmlns:rdf="http://www.w3.org/1999/02/22-rdf-syntax-ns#"
   xmlns:svg="http://www.w3.org/2000/svg"
   xmlns="http://www.w3.org/2000/svg"
   xmlns:sodipodi="http://sodipodi.sourceforge.net/DTD/sodipodi-0.dtd"
   xmlns:inkscape="http://www.inkscape.org/namespaces/inkscape"
   width="60"
   height="60"
   version="1.1"
   id="svg78"
   sodipodi:docname="1KI.svg"
   inkscape:version="1.0.1 (3bc2e813f5, 2020-09-07)">
  <metadata
     id="metadata82">
    <rdf:RDF>
      <cc:Work
         rdf:about="">
        <dc:format>image/svg+xml</dc:format>
        <dc:type
           rdf:resource="http://purl.org/dc/dcmitype/StillImage" />
      </cc:Work>
    </rdf:RDF>
  </metadata>
  <sodipodi:namedview
     pagecolor="#ffffff"
     bordercolor="#666666"
     borderopacity="1"
     objecttolerance="10"
     gridtolerance="10"
     guidetolerance="10"
     inkscape:pageopacity="0"
     inkscape:pageshadow="2"
     inkscape:window-width="1366"
     inkscape:window-height="711"
     id="namedview80"
     showgrid="false"
     inkscape:zoom="9.1"
     inkscape:cx="30"
     inkscape:cy="30"
     inkscape:window-x="0"
     inkscape:window-y="0"
     inkscape:window-maximized="1"
     inkscape:current-layer="svg78" />
  <defs
     id="defs64">
    <filter
       id="a"
       color-interpolation-filters="sRGB">
      <feFlood
         flood-opacity=".498"
         flood-color="#000"
         result="flood"
         id="feFlood2" />
      <feComposite
         in="flood"
         in2="SourceGraphic"
         operator="in"
         result="composite1"
         id="feComposite4" />
      <feGaussianBlur
         in="composite1"
         stdDeviation="1"
         result="blur"
         id="feGaussianBlur6" />
      <feOffset
         dx="5"
         dy="3"
         result="offset"
         id="feOffset8" />
      <feComposite
         in="SourceGraphic"
         in2="offset"
         result="composite2"
         id="feComposite10" />
    </filter>
    <filter
       id="b"
       color-interpolation-filters="sRGB">
      <feGaussianBlur
         stdDeviation="5"
         result="result8"
         id="feGaussianBlur13" />
      <feComposite
         result="result6"
         in="SourceGraphic"
         operator="in"
         in2="result8"
         id="feComposite15" />
      <feComposite
         operator="in"
         result="result11"
         in2="result6"
         id="feComposite17" />
      <feFlood
         result="result10"
         flood-opacity="1"
         flood-color="#FFF"
         id="feFlood19" />
      <feBlend
         mode="multiply"
         in="result10"
         in2="result11"
         result="result12"
         id="feBlend21" />
      <feComposite
         result="fbSourceGraphic"
         operator="in"
         in2="SourceGraphic"
         in="result12"
         id="feComposite23" />
      <feFlood
         result="result6"
         flood-color="#4B659A"
         id="feFlood25" />
      <feComposite
         k3=".3"
         k2=".3"
         k1=".5"
         operator="arithmetic"
         result="result2"
         in="fbSourceGraphic"
         in2="result6"
         id="feComposite27" />
      <feColorMatrix
         result="fbSourceGraphicAlpha"
         in="result2"
         values="1 0 0 -1 0 1 0 1 -1 0 1 0 0 -1 0 -0.8 -1 0 3.9 -2.7"
         id="feColorMatrix29" />
      <feGaussianBlur
         result="result0"
         in="fbSourceGraphicAlpha"
         stdDeviation=".5"
         id="feGaussianBlur31" />
      <feDiffuseLighting
         lighting-color="#fff"
         diffuseConstant=".7"
         surfaceScale="50"
         result="result13"
         in="result0"
         id="feDiffuseLighting35">
        <feDistantLight
           elevation="20"
           azimuth="225"
           id="feDistantLight33" />
      </feDiffuseLighting>
      <feSpecularLighting
         specularExponent="20"
         specularConstant=".7"
         surfaceScale="10"
         lighting-color="#fff"
         result="result1"
         in="result0"
         id="feSpecularLighting39">
        <feDistantLight
           elevation="45"
           azimuth="225"
           id="feDistantLight37" />
      </feSpecularLighting>
      <feBlend
         mode="screen"
         result="result5"
         in2="SourceGraphic"
         in="result13"
         id="feBlend41" />
      <feComposite
         in="result1"
         k3="1"
         k2="1"
         operator="arithmetic"
         in2="result5"
         result="result9"
         id="feComposite43" />
      <feComposite
         in2="SourceGraphic"
         operator="in"
         result="fbSourceGraphic"
         id="feComposite45" />
      <feColorMatrix
         result="fbSourceGraphicAlpha"
         in="fbSourceGraphic"
         values="0 0 0 -1 0 0 0 0 -1 0 0 0 0 -1 0 0 0 0 1 0"
         id="feColorMatrix47" />
      <feComposite
         in2="fbSourceGraphic"
         operator="arithmetic"
         k2="1"
         result="composite1"
         in="fbSourceGraphic"
         id="feComposite49" />
      <feColorMatrix
         in="composite1"
         values="1"
         type="saturate"
         result="colormatrix1"
         id="feColorMatrix51" />
      <feFlood
         flood-opacity=".667"
         flood-color="#000"
         result="flood1"
         id="feFlood53" />
      <feBlend
         in2="colormatrix1"
         in="flood1"
         mode="multiply"
         result="blend1"
         id="feBlend55" />
      <feBlend
         in2="blend1"
         mode="screen"
         result="blend2"
         id="feBlend57" />
      <feColorMatrix
         in="blend2"
         values="1"
         type="saturate"
         result="colormatrix2"
         id="feColorMatrix59" />
      <feComposite
         in2="fbSourceGraphic"
         in="colormatrix2"
         operator="in"
         result="composite2"
         id="feComposite61" />
    </filter>
  </defs>
  <g
     opacity="0.99"
     id="g76"
     transform="translate(3.9218998,-2.0073929e-4)">
    <g
       filter="url(#a)"
       transform="matrix(0.6,0,0,0.6,-143.547,-106.36)"
       id="g70">
      <path
         d="m 282.71,260.22 20.087,-6.18 10.62,-63.506 H 252 l 10.623,63.505 z"
         fill="#feec99"
         id="path66" />
      <path
         d="m 262.623,257.819 v -3.78 l 20.087,6.181 20.087,-6.18 v 3.78 L 282.71,264 Z"
         fill="#c3983c"
         fill-opacity="0.992"
         id="path68" />
    </g>
    <g
       transform="matrix(-0.9,0,0,-0.9,49.514,58.71)"
       style="line-height:1.25;-inkscape-font-specification:KaiTi"
       aria-label="金"
       font-weight="400"
       font-size="26.667px"
       font-family="KaiTi"
       letter-spacing="0"
       word-spacing="0"
       opacity="0.99"
       stroke="#000000"
       filter="url(#b)"
       id="g74">
      <path
         style="-inkscape-font-specification:'cwTeX Q Kai'"
         d="m 26.885,21.515 q 0,0.372 -0.304,0.61 -0.305,0.202 -0.474,0.54 l 4.604,4.402 q 1.862,1.659 3.351,2.471 1.524,0.813 3.42,1.456 1.93,0.643 3.114,1.219 l 0.136,0.203 q -0.745,0.44 -2.64,0.474 l -3.386,0.169 q -0.271,0.034 -0.61,-0.102 -0.338,-0.169 -0.61,-0.338 -0.236,-0.203 -0.608,-0.542 -0.339,-0.372 -0.508,-0.541 -0.17,-0.204 -0.508,-0.576 -0.305,-0.406 -0.339,-0.44 -3.283,-3.555 -5.89,-7.076 -0.136,0.204 -0.88,1.253 -0.745,1.016 -1.185,1.591 -0.407,0.542 -1.253,1.625 -0.846,1.083 -1.591,1.862 -0.711,0.745 -1.625,1.693 -0.914,0.914 -1.896,1.693 -0.982,0.744 -1.997,1.354 -1.828,1.117 -2.472,1.388 -0.643,0.27 -1.32,0.304 l -0.068,-0.033 q 5.383,-4.266 8.091,-7.38 2.709,-3.115 3.894,-5.857 0.474,-1.22 0.474,-3.115 0.237,-0.102 0.541,-0.102 0.644,0 1.591,0.508 0.948,0.508 0.948,1.287 z M 30.88,37.29 q 0.745,0.034 1.354,0.575 0.644,0.542 0.948,1.253 0,0.305 -0.27,0.474 -0.271,0.17 -0.813,0.338 -0.542,0.136 -0.643,0.17 -2.946,1.455 -4.57,1.794 l -0.068,-0.27 q 3.419,-2.675 3.825,-3.42 l 0.17,-0.847 z m -5.247,6.838 q 2.471,-0.237 4.705,-0.61 2.269,-0.405 2.844,-0.405 h 0.068 q 0.846,0 1.693,0.507 0.88,0.508 1.388,1.253 -0.136,0.542 -0.779,0.542 l -5.281,-0.17 h -0.034 q -4.841,0 -8.971,0.61 L 17.203,46.6 h -0.17 q -0.609,0 -1.218,-0.339 -0.61,-0.338 -0.745,-0.812 0,-0.271 0.373,-0.271 l 8.666,-0.847 0.068,-7.075 -2.708,0.203 q -0.847,-0.068 -1.625,-0.305 l -0.407,-0.44 0.271,-0.237 4.367,-0.643 q 0,-1.286 -0.27,-2.844 -0.271,0.034 -0.813,0.034 -2.336,0 -2.37,-0.812 0.305,-0.136 0.914,-0.271 0.644,-0.136 1.388,-0.237 0.78,-0.102 1.016,-0.17 l 3.927,-0.981 q 0.677,-0.136 1.456,-0.136 1.05,0.407 1.05,0.745 0,0.203 -1.727,0.711 -1.727,0.474 -3.183,0.711 0.576,0.339 0.576,1.286 0,0.339 -0.034,0.542 l -0.101,0.914 2.708,-0.677 q 0.474,-0.101 0.846,-0.101 1.151,0 1.524,0.778 0,0.373 -0.948,0.643 -0.948,0.271 -3.42,0.745 -0.44,0.102 -0.677,0.136 -0.169,0.372 -0.304,7.143 z m -4.266,-1.015 q -1.354,0 -3.487,-3.318 0,-0.339 0.136,-0.474 2.572,0.508 3.656,1.794 0.068,0.474 0.068,1.151 0,0.61 -0.373,0.847 z"
         font-size="34.667px"
         font-family="'cwTeX Q Kai'"
         id="path72" />
    </g>
  </g>
</svg>
