<svg xmlns="http://www.w3.org/2000/svg" viewBox="0 0 60 60"><defs><filter id="a" color-interpolation-filters="sRGB"><feFlood flood-opacity=".498" flood-color="#000" result="flood"/><feComposite in="flood" in2="SourceGraphic" operator="in" result="composite1"/><feGaussianBlur in="composite1" stdDeviation="1" result="blur"/><feOffset dx="5" dy="3" result="offset"/><feComposite in="SourceGraphic" in2="offset" result="composite2"/></filter></defs><g opacity=".99"><g transform="matrix(.6 0 0 .6 -237.884 -161.069)" filter="url(#a)"><path d="m446.472 350.22 19.257-5.911L476 282.896h-59.055l10.266 61.384z" fill="#feec99"/><path d="M427.21 348.06v-3.78l19.262 5.94 19.257-5.911v3.78L446.472 354z" fill="#c3983c" fill-opacity=".992"/></g><g opacity=".99"><path d="M32.961 16.27c2.027 1.01 2.076 1.626.125 1.626-.824 0-1.498.224-1.498.499s.331.499.737.499c.406 0 1.097.547 1.535 1.216 1.386 2.116-.555 4-4.517 4.384-1.001.098-1.553.458-1.673 1.094-.19.994.136.998 4.667.052 2.046-.428 3.762.774 2.787 1.948-.47.567-.855.659-1.281.305-.36-.3-1.831-.378-3.597-.194-1.898.198-3.382.1-4.07-.267-1.12-.6-1.464-2.25-.582-2.793.334-.207.327-.634-.017-1.279-.641-1.197-.043-2.451 1.881-3.944 1.24-.962 1.265-1.041.258-.763-2.437.67-4.099-1.08-2.523-2.656.858-.857 5.85-.682 7.768.272zm-3.094 4.592c-.913 1.009-.693 2.03.44 2.03.962 0 1.938-1.367 1.601-2.243-.389-1.013-.987-.951-2.041.213zm7.964 11.089c-5.425 5.645-6.189 6.908-5.245 8.673.836 1.561.483 1.934-1.428 1.515-3.48-.765-3.294-2.737.677-7.125 3.379-3.734 6.033-5.881 8.575-6.942 1.79-.746 1.618-.487-2.579 3.879zm-13.611.581c2.678 2.528 4.87 4.767 4.87 4.978 0 1.35-9.885-4.81-10.969-6.835-.72-1.347-.412-2.802.588-2.764.35.014 2.831 2.093 5.51 4.621zm8.367-3.249c0 .268-.597.877-1.326 1.356-1.161.76-1.223.926-.5 1.33.455.254.827.677.827.937 0 .689-3.687.584-4.397-.124-.872-.872-.733-2.292.276-2.821 1.394-.733 5.119-1.226 5.119-.678z" fill="#fecfcf"/><path d="M32.402 16.117c2.318 1.01 2.554 1.779.547 1.779-2.346 0-2.707.587-.75 1.218 1.336.433 1.665.821 1.79 2.12.179 1.839-.694 2.501-4.044 3.073-1.43.245-2.15.64-2.266 1.244-.156.807.157.855 3.54.55 3.1-.281 3.76-.209 4.008.438.369.96-.883 2.17-1.393 1.346-.225-.366-1.451-.44-3.666-.222-2.945.29-3.431.212-4.24-.682-.746-.824-.808-1.207-.34-2.083.43-.801.43-1.245.005-1.758-.722-.87-.037-2.244 1.865-3.736 1.355-1.063 1.36-1.079.177-.822-2.458.533-4.104-1.582-2.075-2.668 1.343-.719 4.97-.611 6.842.203zm-2.114 4.158c-.302.203-.815.874-1.141 1.492-.519.983-.47 1.124.384 1.124 1.597 0 2.556-.551 2.556-1.47 0-1.389-.734-1.856-1.799-1.145zm9.01 9.953c-3.564 3.415-7.211 7.94-7.211 8.95 0 .391.272 1.148.606 1.681.817 1.31.326 1.654-1.634 1.147-2.235-.58-2.871-1.694-1.949-3.42 1.555-2.903 6.893-8.02 10.06-9.643l3.158-1.618zm-18.451-.713c.824.903 2.942 2.929 4.705 4.502 1.764 1.573 3.062 3.003 2.886 3.18-.175.175-1.6-.33-3.169-1.124-3.568-1.806-7.828-5.742-7.585-7.009.287-1.486 1.559-1.305 3.164.451zm11.74.107c0 .13-.73.614-1.621 1.075-1.593.823-1.601.846-.5 1.338 1.78.794 1.306 1.418-.95 1.25-4.324-.32-3.288-3.9 1.128-3.9 1.069 0 1.943.107 1.943.237z" fill="#feafaf"/><path d="M31.9 15.94c.858.249 1.84.79 2.183 1.204.536.645.372.752-1.156.752-1.77 0-3.22.983-1.494 1.015 2.295.04 3.455 2.606 1.887 4.175-.8.798-3.498 1.49-4.737 1.214-.435-.096-.79.305-.897 1.018-.178 1.172-.154 1.177 3.302.83 3.621-.364 4.491-.011 3.885 1.569-.238.62-.449.658-1.02.183-.495-.41-1.71-.491-3.873-.26-2.766.296-3.262.216-4.053-.66-.757-.836-.8-1.158-.273-2.003.463-.74.482-1.182.075-1.672-.739-.89.204-2.643 2.146-3.986l1.464-1.013-1.493.248c-1.534.255-3.252-.348-3.252-1.14 0-1.785 3.673-2.527 7.306-1.474zm-2.503 5.185c-1.06 1.619-1.026 1.766.406 1.766 1.156 0 2.784-1.14 2.784-1.95 0-1.474-2.187-1.347-3.19.184zm8.822 10.133c-1.929 1.855-4.2 4.466-5.044 5.803-1.447 2.289-1.491 2.498-.755 3.62.756 1.155.738 1.193-.559 1.193-1.763 0-3.27-.84-3.27-1.824 0-2.68 9.974-12.163 12.793-12.163.188 0-1.236 1.517-3.165 3.371zm-14.125 1.403c2.61 2.588 4.553 4.709 4.316 4.712-1.086.014-6.765-3.451-8.723-5.323-2.173-2.076-2.639-3.796-1.082-3.999.409-.053 2.879 2.02 5.489 4.61zm7.07-2.188c-1.634 1.045-1.649 1.086-.61 1.641 1.364.73.821 1.267-1.28 1.267-1.182 0-1.813-.308-2.232-1.09-.497-.929-.416-1.225.538-1.999.685-.554 1.924-.904 3.19-.899l2.066.009z" fill="#fe8f8f"/><path d="M31.94 16.033c.881.338 1.881.895 2.223 1.238.496.499.275.626-1.101.632-.948.004-2.061.225-2.474.492-.59.381-.473.486.548.492 1.4.008 2.95 1.37 2.95 2.592 0 1.298-1.657 2.334-3.998 2.501-1.926.137-2.27.328-2.414 1.338-.166 1.17-.139 1.176 3.315.83 3.62-.364 4.49-.011 3.884 1.569-.24.625-.447.66-1.03.175-.505-.418-1.65-.5-3.698-.262-2.636.306-3.087.224-4.05-.74-1.01-1.01-1.028-1.143-.26-1.992.542-.598.64-1.021.29-1.237-1.022-.632-.52-2.177 1.202-3.688l1.733-1.522-2.069-.153c-2.152-.158-2.688-.667-1.943-1.845.587-.927 4.884-1.188 6.892-.42zm-2.572 4.97c-1.1 1.57-.981 1.888.703 1.888 1.512 0 2.875-1.512 2.26-2.508-.535-.864-2.162-.524-2.963.62zm9.137 9.87c-1.82 1.643-4.13 4.223-5.132 5.733-1.766 2.66-1.797 2.787-.998 4.008.813 1.239.804 1.26-.513 1.26-1.752 0-3.272-.839-3.272-1.804 0-1.978 6.17-8.52 10.49-11.125 3.045-1.835 2.841-1.155-.575 1.929zM23.86 32.617c2.739 2.6 4.788 4.736 4.55 4.745-.79.031-6.126-3.013-8.022-4.575-1.031-.85-2.05-2.02-2.265-2.597-.402-1.08-.179-2.302.42-2.302.184 0 2.577 2.127 5.317 4.729zm6.979-2.01c-1.48 1.272-1.485 1.294-.38 1.59 1.598.43.876 1.186-1.132 1.186-1.221 0-1.86-.3-2.267-1.058-.788-1.474.303-2.45 3.085-2.76l2.19-.244-1.496 1.288z" fill="#fe6f6f"/><path d="M31.775 16.131c3.005 1.071 3.375 1.764.94 1.764-1.137 0-2.207.224-2.377.5-.17.275.105.499.61.499 1.356 0 3.137 1.418 3.137 2.498 0 1.392-1.929 2.498-4.357 2.498-1.964 0-2.137.104-2.137 1.288 0 1.282.021 1.288 3.607 1.125 2.895-.133 3.636-.017 3.758.584.125.619-.57.748-3.98.743-4.43-.006-5.383-.302-5.383-1.672 0-.477.281-1.167.624-1.531.5-.53.5-.708 0-.891-1.207-.443-.604-2.084 1.395-3.794l2.02-1.729-2.205.248c-2.7.305-3.545-.58-1.858-1.945 1.333-1.08 3.513-1.144 6.206-.185zm-2.407 4.874c-1.094 1.56-.981 1.886.66 1.886 1.63 0 2.812-1.115 2.38-2.242-.428-1.117-2.15-.917-3.04.355zm9.084 9.878c-4.29 3.931-7.109 8.102-6.387 9.451.741 1.384.67 1.54-.692 1.54-1.16 0-2.783-1.141-2.783-1.959 0-.703 2.848-4.339 5.386-6.877 2.22-2.218 6.426-5.151 7.389-5.151.197 0-1.114 1.348-2.913 2.996zm-14.607 1.783c2.746 2.575 4.76 4.687 4.472 4.696-.68.021-7.653-4.266-9.047-5.563-1.318-1.227-1.762-2.718-.994-3.345.393-.32 2.149 1.008 5.569 4.212zm7.028-2.156c-1.392 1.162-1.416 1.249-.5 1.764.897.502.904.564.09.878-1.254.483-3.207-.117-3.584-1.104-.477-1.24.783-2.206 3.266-2.5l2.19-.26z" fill="#fe4e4e"/><path d="M31.75 16.097c2.628.973 2.713 1.183.632 1.573-1.939.364-2.948 1.224-1.434 1.224 1.356 0 3.137 1.418 3.137 2.498 0 1.399-1.933 2.498-4.39 2.498-2.073 0-2.163.061-2.012 1.374.172 1.495.304 1.52 4.52.861 1.967-.309 2.416-.23 2.683.467.434 1.13-.02 1.48-1.138.882-.598-.32-1.84-.327-3.533-.02-1.781.325-2.929.304-3.616-.063-1.137-.61-1.314-1.978-.382-2.964.5-.53.5-.708 0-.891-1.229-.45-.589-2.09 1.499-3.846l2.123-1.785-2.307.304c-2.515.331-3.267-.171-2.28-1.522.844-1.155 4.157-1.456 6.498-.59zm-2.382 4.907c-1.094 1.562-.981 1.887.66 1.887 1.63 0 2.812-1.115 2.38-2.242-.428-1.117-2.15-.917-3.04.355zm7.938 10.94c-4.558 4.766-6.09 7.221-5.3 8.489.32.51.581 1.044.581 1.185 0 .62-1.991.173-3.05-.685l-1.163-.94 1.396-2.016c1.896-2.736 7.174-7.74 9.313-8.828 1.523-.777 1.295-.42-1.777 2.794zm-13.212.966c2.61 2.464 4.296 4.322 3.747 4.128-1.889-.663-6.995-3.844-8.369-5.21-1.41-1.404-1.86-3.46-.748-3.42.343.01 2.76 2.037 5.37 4.502zm6.779-2.348c-1.385 1.108-1.412 1.199-.507 1.706.887.496.855.561-.43.884-1.563.392-3.461-.883-3.02-2.03.288-.75 2.777-1.738 4.37-1.735.95.003.91.115-.413 1.175z" fill="#fe2f2f"/><path d="M30.552 15.986c2.398.422 3.962 1.41 2.23 1.41-.552 0-1.419.303-1.927.675-.866.633-.833.698.526 1.039 2.83.71 3.434 2.052 1.705 3.781-.695.695-1.665 1-3.189 1-1.726 0-2.241.198-2.437.943-.502 1.925.281 2.264 3.607 1.558 2.163-.46 3.228-.496 3.6-.121.855.853.018 1.704-1.09 1.111-.642-.342-1.68-.344-3.194-.005-3.708.831-6.12-.878-4.166-2.95.5-.53.5-.708 0-.89-1.229-.451-.588-2.092 1.499-3.83l2.123-1.77-2.248.104c-1.935.09-2.248-.032-2.248-.874 0-1.238 2.135-1.72 5.21-1.181zm-1.266 4.782c-.366.48-.672 1.155-.68 1.498-.016.654 1.837.841 3.19.322.796-.306 1.075-1.743.458-2.362-.634-.634-2.308-.328-2.968.542zm7.705 11.501c-4.503 4.728-5.798 6.862-4.965 8.193.308.494.561 1.015.561 1.155 0 .616-1.988.176-3.035-.674l-1.15-.928 1.808-2.463c2.309-3.145 6.685-7.289 8.9-8.426 1.44-.74 1.096-.228-2.119 3.143zm-12.897.712 4.745 4.547-3.616-1.926c-4.06-2.162-7.124-4.86-7.124-6.274 0-1.683 1.168-.971 5.996 3.653zm6.812-2.56c-1.524 1.198-1.689 1.945-.443 2.001.545.025.35.23-.516.546-1.603.585-2.856-.127-2.856-1.622 0-.632.58-1.076 1.874-1.435 2.834-.788 3.4-.64 1.94.51z" fill="#fe0404"/></g></g></svg>