<svg xmlns="http://www.w3.org/2000/svg" viewBox="0 0 60 60"><defs><filter id="a" color-interpolation-filters="sRGB"><feFlood flood-opacity=".498" flood-color="#000" result="flood"/><feComposite in="flood" in2="SourceGraphic" operator="in" result="composite1"/><feGaussianBlur in="composite1" stdDeviation="1" result="blur"/><feOffset dx="5" dy="3" result="offset"/><feComposite in="SourceGraphic" in2="offset" result="composite2"/></filter></defs><g opacity=".99"><g filter="url(#a)" transform="matrix(.6 0 0 .6 -41.934 -160.851)"><path d="m119.89 352.22 21.701-7.117 10.189-64.932H88l10.188 64.932z" fill="#feec99"/><path d="M98.188 348.882v-3.78l21.702 7.118 21.701-7.117v3.78L119.89 356z" fill="#c3983c" fill-opacity=".992"/></g><g style="line-height:1.25;-inkscape-font-specification:KaiTi"><path style="-inkscape-font-specification:'cwTeX Q Kai'" d="M29.88 27.247c.046.58.124 1.04.235 1.374.112.336.169.536.169.604 0 .267-.135.402-.403.402-.335 0-.659-.123-.971-.37-1.833.515-3.396 1.017-4.693 1.51l-.57 1.843a1.752 1.752 0 0 0-.033.402c0 .245.022.424.066.536.046.112.101.178.169.201l.1.067c1.877-.358 3.25-.905 4.122-1.643.201 0 .436.124.704.37.246.245.37.424.37.536 0 .156-.035.313-.102.47-.067.177-.145.367-.234.568-.09.201-.169.614-.235 1.24-.067.648-.1 1.476-.1 2.48 0 1.274.044 2.056.134 2.347l.267.871.035.101-.302.1c-1.05-.133-1.788-.446-2.212-.938 0-.134.066-.48.2-1.04.135-.557.224-.97.268-1.24-.267 0-.971.157-2.11.47-1.14.313-1.967.47-2.48.47-.626 0-1.095-.157-1.408-.47 0-.402.604-.738 1.81-1.006 1.206-.267 2.168-.402 2.881-.402.47 0 .805.023 1.006.068l.335.067.168-.201.368-2.481-.067-.637-.033-.1h-.469l-3.687 1.44c-.514 0-1.306-.401-2.38-1.205 0-.089.045-.18.134-.268a7 7 0 0 1 .37-.336c.133-.133.346-.458.636-.972.267-.491.558-1.139.871-1.943a6.572 6.572 0 0 1-.368-.336c-.09-.066-.135-.112-.135-.134-.022-.022-.032-.056-.032-.1l-.068-.067c.157-.156.503-.291 1.04-.403.513-.089 1.25-.235 2.211-.435a21.25 21.25 0 0 0 2.681-.67c.157-.268.258-.861.302-1.777-.335 0-1.173.123-2.514.369-1.363.246-2.257.369-2.681.369-.402-.135-.681-.291-.838-.47l.068-.268c1.765-.536 3.407-.805 4.926-.805a5.415 5.415 0 0 1 .704.034 2.107 2.107 0 0 0 .335.034c.09-.201.168-.793.235-1.776 0-.157.01-.269.034-.336-1.23 0-2.448.156-3.654.47l-1.207.335h-.268c-.58 0-1.06-.19-1.441-.57.044-.536 1.575-.86 4.592-.973l1.978.034.032-2.279c-.379 0-1.407.123-3.083.37-1.697.267-2.815.401-3.352.401-.469-.245-.725-.402-.77-.469 0-.336.123-.525.368-.57l4.994-.804h.168c.267 0 .648.067 1.139.2l.403.135c0-.424-.068-.838-.201-1.24-.135-.38-.369-.771-.704-1.173-.358-.402-.905-.727-1.643-.972-.737-.223-1.63-.335-2.68-.335-.895 0-1.632.066-2.213.201-.58.157-1.062.425-1.44.804-.38.38-.66.716-.84 1.006-.177.313-.423.826-.736 1.541s-.58 1.285-.805 1.71a.971.971 0 0 1-.2-.537 11.69 11.69 0 0 1-.135-1.105 9.536 9.536 0 0 0-.301-1.61l-.336-1.273-.034-.1c0-.135.023-.258.068-.37a.593.593 0 0 1 .168-.267.853.853 0 0 1 .201-.2.853.853 0 0 1 .201-.203c.066-.066.11-.1.134-.1 1.608-1.072 3.597-1.609 5.965-1.609h.135c4.356 0 6.613 1.978 6.77 5.933l.033 3.385zm7.274 13.607c-1.676-.29-2.826-.748-3.452-1.374-.135-.402-.2-.726-.2-.972 0-.313.1-.537.3-.67l.47-.134h.168c.625.47 1.564 1.329 2.814 2.58 0 .291-.032.481-.1.57zm-5.83-4.659c.02-.178.2-.334.534-.469a7.598 7.598 0 0 1 1.073-.334c.357-.068.558-.112.604-.135a10.18 10.18 0 0 1-.704-.604c-.112-.09-.168-.234-.168-.436a.68.68 0 0 1 .134-.435c.09-.09.28-.324.57-.703.29-.38.559-.76.804-1.14l.402-.604-2.111.37h-.1c-.649 0-1.14-.201-1.475-.604 0-.157.056-.267.168-.335.11-.067.368-.134.77-.2.402-.068.883-.135 1.442-.202.535-.067 1.362-.223 2.48-.469a67.05 67.05 0 0 0 3.619-.838c1.655-.18 3.044.206 3.092.415 0 .246-.08.413-.235.503-.023 0-.537.067-1.541.201-1.029.157-.453.046-.476.046l-4.392.745c-.827 1.698-1.24 3.061-1.24 4.089.223 0 .893-.1 2.01-.302 1.095-.178 1.877-.267 2.346-.267 1.207 0 1.81.222 1.81.67a1.353 1.353 0 0 1-.503.167 3.275 3.275 0 0 1-.703.068c-.268.021-.782.089-1.542.2a51.288 51.288 0 0 0-2.715.57l-2.111.536a1.004 1.004 0 0 1-.301.034h-.202c-.626 0-1.073-.178-1.34-.537zm8.277-2.613c-.67-.135-1.185-.403-1.542-.805-.38-.38-.57-.771-.57-1.173 0-.38.19-.57.57-.57.09 0 .19.045.302.134a7.2 7.2 0 0 1 .368.402 3.848 3.848 0 0 0 .302.37l.604 1.173c.022.11.01.267-.034.469zm.168-10.458c0 1.497.233 2.883.703 4.156a1.03 1.03 0 0 1-.47.101c-.156 0-.312-.022-.469-.067a2.534 2.534 0 0 1-.435-.168 1.354 1.354 0 0 0-.235-.067l-.301-.301c-.313.156-1.452.58-3.418 1.274-.917-.135-1.598-.459-2.046-.973 0-.111.09-.413.269-.904.178-.47.268-.872.268-1.207v-.134l-.537-7.407c0-.492.202-1.173.604-2.044.402-.872.782-1.307 1.139-1.307.38 0 1.14.815 2.28 2.445l-1.408-.2c-.358.045-.592.29-.703.737-.135.447-.202 1.352-.202 2.715 0 1.876.1 4.178.302 6.905.066.133.245.2.535.2.403 0 1.14-.178 2.213-.536l.503-.201.201-1.977c-.871.223-1.419.335-1.643.335a1.24 1.24 0 0 1-.938-.503l.235-.235 2.346-.503c.134-.424.201-1.117.201-2.077-1.118.335-1.776.502-1.978.502-.491 0-.848-.167-1.072-.502.067-.224 1.084-.503 3.049-.838l.236-3.05c.223-1.766.693-2.648 1.407-2.648.447.514.67 1.173.67 1.977-.87 2.302-1.306 4.469-1.306 6.502z" font-size="34.667" font-family="cwTeX Q Kai" fill="#fd0000" stroke="#fd0000" aria-label="龍" font-weight="400" letter-spacing="0" word-spacing="0" opacity=".99" stroke-width=".99"/></g></g></svg>