<svg xmlns="http://www.w3.org/2000/svg" width="52.157" height="60"><defs><filter id="a"><feGaussianBlur in="SourceAlpha" result="blur" stdDeviation="2"/><feOffset dx="2" dy="2" result="offsetBlur"/><feBlend in="SourceGraphic" in2="offsetBlur"/></filter></defs><g style="display:inline"><g style="fill:#ffd5e5;fill-opacity:1;filter:url(#a)" transform="translate(36.96 -.279)"><path d="M-10.96 6.237c-4.319 1-8.69 2.088-12.838 3.608-1.492 6.331-2.103 12.88-3.191 19.306-1.285 8.332-2.439 16.689-3.86 24.997 4.847.345 10 .05 14.963.147H9.085C8.5 48.64 7.367 42.774 6.583 37.035c-1.462-8.96-2.486-18.011-4.288-26.902-.885-1.094-2.799-.958-4.037-1.565-3.053-.81-6.099-1.875-9.218-2.332z" style="fill:#feec99;fill-opacity:1"/></g></g><g style="display:inline"><g style="font-style:normal;font-variant:normal;font-weight:400;font-stretch:normal;font-size:26.66666603px;line-height:1.25;font-family:KaiTi;-inkscape-font-specification:KaiTi;letter-spacing:0;word-spacing:0;fill:red;fill-opacity:.99607843;stroke:red;stroke-width:1;stroke-miterlimit:4;stroke-dasharray:none;stroke-opacity:1;opacity:.5"><path d="M26.478 21.406c1.334-.25 2.375-.541 3.125-.875.75-.333 1.459-.291 2.125.125.667.417.459.875-.625 1.375-1.083.417-2.625.584-4.625.5l-.125 3.875c2.667-.416 4.667-.75 6-1 1.417-.25 2.375-.166 2.875.25.5.417.75.75.75 1 .084.25-.5.375-1.75.375s-2.666.084-4.25.25c-1.5.167-3.416.417-5.75.75a4.23 4.23 0 0 1 1.5.75c.417.334.5.75.25 1.25s-.333 1.375-.25 2.625c.084 1.25.084 2.292 0 3.125-.083.834-.25 1.417-.5 1.75-.166.25-.458.084-.875-.5-.416-.583-.541-1.208-.375-1.875.167-.75.209-1.75.125-3 0-1.25-.083-2.125-.25-2.625a25.02 25.02 0 0 0-.5-1.375c-4.416.917-6.916 1.459-7.5 1.625-.583.167-1.291 0-2.125-.5-.75-.583-.708-.875.125-.875.917 0 2.709-.25 5.375-.75-.166-2.666-.458-4.25-.875-4.75-.416-.5-.541-.833-.375-1 .167-.166.709-.125 1.625.125 1 .167 1.417.584 1.25 1.25-.166.667-.208 2.042-.125 4.125 1.25-.25 2.625-.5 4.125-.75 0-3-.083-5.166-.25-6.5-.083-1.416-.291-2.375-.625-2.875-.333-.5-.25-.708.25-.625.5 0 1.125.167 1.875.5.75.25 1 .584.75 1-.25.334-.375 1.417-.375 3.25zm6.089 9.517c.667.583.75 1 .25 1.25-.417.25-2.214 2.4-2.964 3.483-.666 1-1.708 2.167-3.125 3.5-1.333 1.334-1.992 1.76-4.925 3.623-2.446 1.07-2.156 1.004-4.608 1.793-2.25.333-2.758.401-.174-.516 2.666-.833 3.603-1.733 5.686-3.15 2.167-1.416 3.063-3.041 4.396-4.875 1.417-1.916 3.297-4.691 3.214-5.358-.713-.975-.594-1.221.625-.875.507.144 1.042.542 1.625 1.125zm-.902 5.973c1.334.334 2.25.75 2.75 1.25.584.5.757 1.203.625 2.125-.118.83-.541.917-1.375.25-.75-.666-1.5-1.25-2.25-1.75a73.194 73.194 0 0 1-1.875-1.5c-.5-.5-.625-.791-.375-.875.334-.083 1.167.084 2.5.5zm-12.687-4.74c.417-.833.709-1.25.875-1.25.25-.083.334.5.25 1.75 0 1.25-.458 2.542-1.375 3.875-.916 1.25-1.5 1.375-1.75.375-.166-1 .042-1.833.625-2.5a10.89 10.89 0 0 0 1.375-2.25z" aria-label="歩" style="font-style:normal;font-variant:normal;font-weight:400;font-stretch:normal;font-size:32px;font-family:KaiTi;-inkscape-font-specification:KaiTi;fill:red;fill-opacity:.99607843;stroke:red;stroke-width:1;stroke-miterlimit:4;stroke-dasharray:none;stroke-opacity:1" transform="matrix(.67255 0 0 .67255 9.541 -2.745)"/></g><g style="font-style:normal;font-variant:normal;font-weight:400;font-stretch:normal;font-size:26.66666603px;line-height:1.25;font-family:KaiTi;-inkscape-font-specification:KaiTi;letter-spacing:0;word-spacing:0;fill:#000;fill-opacity:1;stroke:#000;stroke-width:1;stroke-miterlimit:4;stroke-dasharray:none;stroke-opacity:1"><path d="M31.901 22.253q.474 0 .984-1.349t.51-2.224q.256-.11.548-.11.656 0 1.276.62l.474.547v.183q-1.021.62-3.063 2.442l1.896.474q.802.328 1.167.985.4.62.4 1.093 0 .292-.218.401h-.146l-.474-.145q-1.531-1.021-2.807-1.714l-1.276-.62q-.365-.364-.365-.656l1.058.073zm5.14 3.864q0 .292.074.985.109.693.255 1.86.146 1.166.255 2.004-.219.292-.984.292h-.256q-2.078-.182-4.12-1.932-2.041-1.787-2.77-3.865-.584-1.677-.766-4.192l-.146-1.86q-.146-.437-1.02-.51-1.787.4-3.61 1.13-1.823.693-2.37.693-.802 0-1.567-.62l-.584-.583q.219-.183.584-.22.364-.036 2.005-.29 1.64-.293 4.192-.949l2.516-.802q.219-.036.401-.036.219-.037.292-.037.838 0 1.713.839l.474.474q0 .255-.218.51-.183.219-.438.474-.219.255-.437 1.167-.183.875-.183 2.297v.291l.037.657q.182 1.604 1.677 3.244 1.495 1.64 2.953 1.64.693 0 1.057-.801.401-.802.73-2.151zm-1.859 12.47q-.364-.11-1.057-.511-.693-.438-1.932-1.203-1.24-.766-2.224-1.35-.22-.364-.22-.619.767 0 1.75.328 1.058-2.187 1.131-3.682h.985q.947.583 1.093.729l.219.328v.219q-.911.656-2.807 2.515 1.677.51 2.515 1.094.839.547.912 1.35.073.51-.365.801zm5.76 7.218q0 .875-1.057.875-.984 0-3.39-.73-9.042-2.66-9.224-15.421-.219-.292-.656-.292-.365 0-.912.219t-.766.255v9.516l.11 3.5q-.11 2.114-.839 2.114-1.713-2.041-1.713-3.427 0-.255.11-.656.108-.437.254-1.094.146-.692.292-2.661.182-2.005.255-4.958v-.985q.037-.656.073-.911-2.151.437-3.61.948-.51 4.52-1.968 7.692-1.458 3.172-4.484 4.85-.474.255-.912.255-.146 0-.255-.037-.11-.036-.182-.036v-.22q5.395-4.01 5.906-11.812-.51.073-3.281.985-.11 0-.146.036-.948-.146-1.459-.291-.51-.183-.62-.256-.109-.109-.291-.364 0-.146.036-.219.073-.11.256-.182.218-.073.474-.11.255-.073.729-.146.51-.109 1.057-.182.547-.11 1.422-.291.911-.22 1.86-.438 0-1.969-.11-2.661-.11-.693-.474-1.167l-2.99 1.276-.291-.146v-.036q.146-.328 1.094-1.058.984-.729 2.114-1.713 1.13-.985 1.64-1.896v-.401q.657 0 1.204.365.583.364.729.583.146.219.474.765 0 .256-.146.365-.11.11-.875.438-1.057.474-1.969.911 1.605.693 1.787.875l.146.365-.146 1.24-.219 1.348h.182q.292-.146 1.677-.51 1.386-.365 1.568-.438.11-1.312.11-2.442 0-1.97-.365-3.573l-.401-.948q0-.328.474-.328.875 0 2.042 1.349-.256 2.734-.329 5.432h.037q.292 0 1.422-.438 1.13-.474 1.677-.474 1.568.766 2.078 1.313 0 .292-.255.583-.219.292-.474 1.094-.219.766-.219 2.187 0 3.209 1.604 6.053.875 1.53 2.844 2.843 1.969 1.276 2.99 1.276 1.02 0 1.567-1.567l.839-2.954.036-.036q.183 0 .292.182.146.146.219.584.109.4.182.692.073.292.146.948.11.62.146.875l.802 2.698v.292q.036.219.073.328z" aria-label="飛" style="font-style:normal;font-variant:normal;font-weight:400;font-stretch:normal;font-size:37.33333206px;font-family:&quot;cwTeX Q Kai&quot;;-inkscape-font-specification:&quot;cwTeX Q Kai&quot;;stroke:#000;stroke-width:1;stroke-miterlimit:4;stroke-dasharray:none;stroke-opacity:1" transform="matrix(.73378 0 0 .73378 6.59 17.38)"/></g></g></svg>