<svg xmlns="http://www.w3.org/2000/svg" width="52.157" height="60"><defs><filter id="a"><feGaussianBlur in="SourceAlpha" result="blur" stdDeviation="2"/><feOffset dx="2" dy="2" result="offsetBlur"/><feBlend in="SourceGraphic" in2="offsetBlur"/></filter></defs><g style="display:inline"><g style="fill:#feec99;fill-opacity:1;filter:url(#a)"><path d="M-37.3-31.01a246.49 246.49 0 0 0-12.207 3.395c-.467.163-1.13.263-1.201.865-.71 3.416-1.178 6.885-1.737 10.331-1.73 11.255-3.378 22.528-5.1 33.78.155.682 1.013.424 1.51.48 12.894.025 25.788.03 38.68-.033.672-.156.28-.952.279-1.409-2.011-13.12-3.876-26.263-5.998-39.366-.277-1.356-.348-2.782-.816-4.087-.347-.497-1.073-.468-1.588-.704-3.832-1.137-7.673-2.267-11.55-3.231a.885.885 0 0 0-.271-.021z" style="fill:#feec99;fill-opacity:1" transform="rotate(180 -5.25 11.77) scale(.98185)"/></g><g aria-label="と" style="font-style:normal;font-variant:normal;font-weight:400;font-stretch:normal;font-size:26.66666603px;line-height:1.25;font-family:KaiTi;-inkscape-font-specification:KaiTi;letter-spacing:0;word-spacing:0;opacity:.5;fill:red;fill-opacity:1;stroke:red;stroke-width:.50325519;stroke-miterlimit:4;stroke-dasharray:none;stroke-opacity:1"><path d="M.65 9.684q.573 0 .937.287.365.286.365.703t-.469.651q-.469.234-2.24.755l-.364.104q-2.083.704-3.698 1.537-1.615.833-2.526 1.588-.912.756-1.484 1.563-.573.781-.756 1.354-.182.547-.182 1.042 0 2.578 5.234 2.578.73 0 1.12-.026-.39.026-.625.026.156-.078.339 0 .182.078 1.224-.052 1.067-.13 2.396-.547.833-.234 1.354-.234.911 0 1.458.859 0 .52-.469.833-.468.313-1.849.495-1.38.208-3.932.234h-2.396q-.52 0-1.25-.208-.729-.182-1.614-.599-.86-.443-1.459-1.302-.573-.885-.573-2.057 0-1.797 1.172-3.203 1.198-1.407 3.412-3.021-1.433-1.094-1.433-3.412v-.078l.13-2.916q-.025-.86-.312-1.38-.26-.548-.573-.704-.312-.182-.703-.364-.39-.183-.547-.365-.026-.26.287-.39.312-.13.494-.13 2.266.364 2.917 1.796-.364 2.135-.364 4.063 0 3.02 1.197 3.02.209 0 2.553-1.015Q-.21 10.127.65 9.684z" style="font-style:normal;font-variant:normal;font-weight:400;font-stretch:normal;font-family:&quot;cwTeX Q Kai&quot;;-inkscape-font-specification:&quot;cwTeX Q Kai&quot;;fill:red;stroke:red;stroke-width:.50325519;stroke-miterlimit:4;stroke-dasharray:none;stroke-opacity:1" transform="matrix(-.99398 0 0 -.969 22.065 54.753)"/></g><g aria-label="香" style="font-style:normal;font-variant:normal;font-weight:400;font-stretch:normal;font-size:26.66666603px;line-height:1.25;font-family:KaiTi;-inkscape-font-specification:KaiTi;letter-spacing:0;word-spacing:0;fill:#000;fill-opacity:1;stroke:none;stroke-width:.66957903;stroke-miterlimit:4;stroke-dasharray:none"><path d="M33.416 25.46q.78 0 1.524.44.779.406 1.117.982 0 .237-.474.406l-6.33.237q-.88.068-1.998.27 3.487 2.71 5.45 3.59 1.964.88 7.685 2.606.204.102.305.203.102.102.135.102-.135.203-2.065.575-1.895.339-2.776.339-1.15 0-2.843-1.219-1.66-1.219-3.792-3.25-2.099-2.065-2.776-2.607-.068.542-.068 1.66 0 1.184.034 1.963 0 2.81-.643 2.81-.474 0-.711-.847l-.237-.745q.237-1.388.237-4.367-4.3 5.79-9.547 7.82-1.388.508-2.133.508-.44 0-.643-.203.068-.034.745-.44.71-.406.981-.541.271-.17 1.016-.61.779-.474 1.185-.745.44-.304 1.185-.812.745-.508 1.219-.88.474-.407 1.117-.982.677-.576 1.15-1.083.475-.508.983-1.118.507-.609.88-1.218-1.862.169-3.487.643-1.591.44-1.93.44h-.101q-1.084 0-1.795-.88 0-.237.407-.305l8.7-1.219q0-2.505-.575-3.588-.508.067-2.37.541l-.813.17-1.15.169v-.372q3.012-1.118 4.671-1.964 1.693-.846 2.167-1.32.474-.508.508-1.016l.101-.135q.88 0 2.031.744 1.185.711 1.185 1.05 0 .305-.44.406-.406.068-1.726.373-1.32.27-2.81.948 1.05.541 1.185.744l.203.407.034.237q-.61 1.117-.644 2.268 1.998-.305 4.401-.745l2.066-.44h.169zM20.281 35.65q.237 0 .71.237.509.237.644.372 4.604-.507 7.651-1.93 1.964.576 2.912 1.863-.034.135-.373.71-.304.542-.304.847l.304 5.315q0 3.69-1.557 4.841l-.474-.068-1.896-2.911q-3.487.034-6.026.542-.203.778-.677 1.15-.474-.202-.779-.88-.304-.643-.304-1.286 0-.135.338-1.185.339-1.083.339-2.573 0-3.182-.914-4.773.101-.271.406-.271zm9.378 3.927q0-1.93-.102-2.64-.068-.712-.305-.88-.203-.204-.812-.204-.373.034-2.505.576-2.133.507-3.623.778l-.101.237v2.81l3.182-.914q.576-.17.982-.17.948 0 1.59.678 0 .372-.135.508l-5.28.744q-.272 0-.407.034 0 2.506-.034 3.216l4.13-.846q.745-.068.982-.068 1.016 0 1.727.914.71-.067.71-4.773z" style="font-style:normal;font-variant:normal;font-weight:400;font-stretch:normal;font-size:34.66666794px;font-family:&quot;cwTeX Q Kai&quot;;-inkscape-font-specification:&quot;cwTeX Q Kai&quot;;stroke:#000;stroke-width:.66957903;stroke-miterlimit:4;stroke-dasharray:none;stroke-opacity:1" transform="matrix(-.74674 0 0 -.74674 46.15 43.836)"/></g></g></svg>