<svg xmlns="http://www.w3.org/2000/svg" viewBox="0 0 20.637 20.637"><defs><clipPath clipPathUnits="userSpaceOnUse" id="a"><path d="M0 0h936.12v612.12H0z" clip-rule="evenodd"/></clipPath></defs><path d="m1.565 20.079 2.798-17.83L10.32.56l5.754 1.611 2.998 17.909z" fill="#fd5" stroke="#deaa87" stroke-width=".353" stroke-linejoin="round" stroke-miterlimit="10"/><path d="m9.623 16.622.215-1.36.456-.13.443.124.23 1.366z" fill-rule="evenodd"/><path d="m9.623 16.622.215-1.36.456-.13.443.124.23 1.366z" fill="none"/><path d="M12.463 15.877a.594.594 0 1 1 1.19 0 .596.596 0 0 1-1.19 0z" fill-rule="evenodd"/><path d="M12.463 15.877a.594.594 0 1 1 1.19 0 .596.596 0 0 1-1.19 0z" fill="none"/><path d="M6.984 15.877a.596.596 0 1 1 1.191 0 .596.596 0 0 1-1.19 0z" fill-rule="evenodd"/><path d="M6.984 15.877a.596.596 0 1 1 1.191 0 .596.596 0 0 1-1.19 0z" fill="none"/><path d="M12.463 13.167a.594.594 0 1 1 1.19 0 .596.596 0 0 1-1.19 0z" fill-rule="evenodd"/><path d="M12.463 13.167a.594.594 0 1 1 1.19 0 .596.596 0 0 1-1.19 0z" fill="none"/><path d="M6.984 13.167a.596.596 0 1 1 1.192 0 .596.596 0 0 1-1.192 0z" fill-rule="evenodd"/><path d="M6.984 13.167a.596.596 0 1 1 1.192 0 .596.596 0 0 1-1.192 0z" fill="none"/><path d="M9.707 13.167a.596.596 0 1 1 1.191.001.596.596 0 0 1-1.191 0z" fill-rule="evenodd"/><path d="M9.707 13.167a.596.596 0 1 1 1.191.001.596.596 0 0 1-1.191 0z" fill="none"/><path d="M12.463 18.686a.594.594 0 1 1 1.19 0 .596.596 0 0 1-1.19 0z" fill-rule="evenodd"/><path d="M12.463 18.686a.594.594 0 1 1 1.19 0 .596.596 0 0 1-1.19 0z" fill="none"/><path d="M6.984 18.686a.596.596 0 1 1 1.191 0 .596.596 0 0 1-1.19 0z" fill-rule="evenodd"/><path d="M6.984 18.686a.596.596 0 1 1 1.191 0 .596.596 0 0 1-1.19 0z" fill="none"/><path d="M9.707 18.686a.596.596 0 1 1 1.191 0 .596.596 0 0 1-1.191 0z" fill-rule="evenodd"/><path d="M9.707 18.686a.596.596 0 1 1 1.191 0 .596.596 0 0 1-1.191 0z" fill="none"/><path d="m9.291 17.037.32-2.028.683-.193.66.183.343 2.038z" fill-rule="evenodd"/><path d="m9.291 17.037.32-2.028.683-.193.66.183.343 2.038z" fill="none"/><g clip-path="url(#a)" transform="matrix(.25823 0 0 -.25823 -18.622 39.376)" stroke-width="1.366"><path d="M120.496 143.505q2.753 0 3.828-.602l.731-1.72q-.387-1.033-1.118-1.29-.99-.388-3.183-.775l-3.268-.602q-3.269-.946-9.849-2.28-1.204-.344-3.613-.86-3.698 1.764-4.902 4l3.87-.731q1.936 0 8.129 1.85 3.14.902 7.096 2.236 1.118.387 2.28.774zm-11.827-7.656.86-.473 1.936.473q1.591-.258 2.021-.387 1.161-.344 1.677-1.16v-.861q-1.118-.731-1.118-2.537-.387-.474-.387-.86 0-.302.215-.646 2.667.56 3.14.56 3.14 0 4.129-2.71-.173-1.72-1.85-1.72-.473 0-1.462.172-.99.172-1.462.172l-2.538-.516q-.172-1.807-.172-4.344 0-2.624.172-5.978 1.979.344 4 .688 2.494.387 3.957.387 3.87 0 8-2.667.773-.989 1.031-2.623-.473-.043-.946-.602-.645-.688-.86-.817-1.247.215-5.118 1.419-3.14.989-5.075.989-4.688 0-9.849-.99-6.666-1.29-8.902-3.526h-.344q-1.119-.086-2.28 1.29-1.161 1.334-1.763 1.377l-.043.602.559.774.602-.13 12.644 3.054q.086 3.355.086 6.323l-.215 3.225q-2.623-.215-2.838-.215-1.85 0-4.473 1.893l7.311 2.107.215 3.527-.172 2.322q-1.16.817-1.247 2.107zm16.343-13.633q1.42 0 3.785-1.247l1.591-1.807v-1.075l-.688-1.032q-.258-.043-.516-.043-1.806 0-3.742 1.935-2.752 2.925-3.096 3.14 2.537.129 2.666.129z" aria-label="玉" font-weight="400" font-size="44.04" font-family="HakusyuKaisyo"/></g></svg>