<svg xmlns="http://www.w3.org/2000/svg" width="85" height="85" viewBox="0 0 22.49 22.49"><defs><filter id="a" color-interpolation-filters="sRGB"><feFlood flood-opacity=".498" flood-color="#000" result="flood"/><feComposite in="flood" in2="SourceGraphic" operator="in" result="composite1"/><feGaussianBlur in="composite1" stdDeviation="1" result="blur"/><feOffset dx="5" dy="3" result="offset"/><feComposite in="SourceGraphic" in2="offset" result="composite2"/></filter><filter id="b" color-interpolation-filters="sRGB"><feGaussianBlur stdDeviation="5" result="result8"/><feComposite result="result6" in="SourceGraphic" operator="in" in2="result8"/><feComposite operator="in" result="result11" in2="result6"/><feFlood result="result10" flood-opacity="1" flood-color="#FFF"/><feBlend mode="multiply" in="result10" in2="result11" result="result12"/><feComposite result="fbSourceGraphic" operator="in" in2="SourceGraphic" in="result12"/><feFlood result="result6" flood-color="#4B659A"/><feComposite k3=".3" k2=".3" k1=".5" operator="arithmetic" result="result2" in="fbSourceGraphic" in2="result6"/><feColorMatrix result="fbSourceGraphicAlpha" in="result2" values="1 0 0 -1 0 1 0 1 -1 0 1 0 0 -1 0 -0.8 -1 0 3.9 -2.7"/><feGaussianBlur result="result0" in="fbSourceGraphicAlpha" stdDeviation=".5"/><feDiffuseLighting lighting-color="#fff" diffuseConstant=".7" surfaceScale="50" result="result13" in="result0"><feDistantLight elevation="20" azimuth="225"/></feDiffuseLighting><feSpecularLighting specularExponent="20" specularConstant=".7" surfaceScale="10" lighting-color="#fff" result="result1" in="result0"><feDistantLight elevation="45" azimuth="225"/></feSpecularLighting><feBlend mode="screen" result="result5" in2="SourceGraphic" in="result13"/><feComposite in="result1" k3="1" k2="1" operator="arithmetic" in2="result5" result="result9"/><feComposite in2="SourceGraphic" operator="in"/></filter><filter id="c" color-interpolation-filters="sRGB"><feGaussianBlur stdDeviation="5" result="result8"/><feComposite result="result6" in="SourceGraphic" operator="in" in2="result8"/><feComposite operator="in" result="result11" in2="result6"/><feFlood result="result10" flood-opacity="1" flood-color="#FFF"/><feBlend mode="multiply" in="result10" in2="result11" result="result12"/><feComposite result="fbSourceGraphic" operator="in" in2="SourceGraphic" in="result12"/><feFlood result="result6" flood-color="#4B659A"/><feComposite k3=".3" k2=".3" k1=".5" operator="arithmetic" result="result2" in="fbSourceGraphic" in2="result6"/><feColorMatrix result="fbSourceGraphicAlpha" in="result2" values="1 0 0 -1 0 1 0 1 -1 0 1 0 0 -1 0 -0.8 -1 0 3.9 -2.7"/><feGaussianBlur result="result0" in="fbSourceGraphicAlpha" stdDeviation=".5"/><feDiffuseLighting lighting-color="#fff" diffuseConstant=".7" surfaceScale="50" result="result13" in="result0"><feDistantLight elevation="20" azimuth="225"/></feDiffuseLighting><feSpecularLighting specularExponent="20" specularConstant=".7" surfaceScale="10" lighting-color="#fff" result="result1" in="result0"><feDistantLight elevation="45" azimuth="225"/></feSpecularLighting><feBlend mode="screen" result="result5" in2="SourceGraphic" in="result13"/><feComposite in="result1" k3="1" k2="1" operator="arithmetic" in2="result5" result="result9"/><feComposite in2="SourceGraphic" operator="in"/></filter><clipPath clipPathUnits="userSpaceOnUse" id="d"><path d="M0 0h936.12v612.12H0z" clip-rule="evenodd"/></clipPath><filter id="e" color-interpolation-filters="sRGB"><feGaussianBlur stdDeviation="5" result="result8"/><feComposite result="result6" in="SourceGraphic" operator="in" in2="result8"/><feComposite operator="in" result="result11" in2="result6"/><feFlood result="result10" flood-opacity="1" flood-color="#FFF"/><feBlend mode="multiply" in="result10" in2="result11" result="result12"/><feComposite result="fbSourceGraphic" operator="in" in2="SourceGraphic" in="result12"/><feFlood result="result6" flood-color="#4B659A"/><feComposite k3=".3" k2=".3" k1=".5" operator="arithmetic" result="result2" in="fbSourceGraphic" in2="result6"/><feColorMatrix result="fbSourceGraphicAlpha" in="result2" values="1 0 0 -1 0 1 0 1 -1 0 1 0 0 -1 0 -0.8 -1 0 3.9 -2.7"/><feGaussianBlur result="result0" in="fbSourceGraphicAlpha" stdDeviation=".5"/><feDiffuseLighting lighting-color="#fff" diffuseConstant=".7" surfaceScale="50" result="result13" in="result0"><feDistantLight elevation="20" azimuth="225"/></feDiffuseLighting><feSpecularLighting specularExponent="20" specularConstant=".7" surfaceScale="10" lighting-color="#fff" result="result1" in="result0"><feDistantLight elevation="45" azimuth="225"/></feSpecularLighting><feBlend mode="screen" result="result5" in2="SourceGraphic" in="result13"/><feComposite in="result1" k3="1" k2="1" operator="arithmetic" in2="result5" result="result9"/><feComposite in2="SourceGraphic" operator="in"/></filter><filter id="f" color-interpolation-filters="sRGB"><feGaussianBlur stdDeviation="5" result="result8"/><feComposite result="result6" in="SourceGraphic" operator="in" in2="result8"/><feComposite operator="in" result="result11" in2="result6"/><feFlood result="result10" flood-opacity="1" flood-color="#FFF"/><feBlend mode="multiply" in="result10" in2="result11" result="result12"/><feComposite result="fbSourceGraphic" operator="in" in2="SourceGraphic" in="result12"/><feFlood result="result6" flood-color="#4B659A"/><feComposite k3=".3" k2=".3" k1=".5" operator="arithmetic" result="result2" in="fbSourceGraphic" in2="result6"/><feColorMatrix result="fbSourceGraphicAlpha" in="result2" values="1 0 0 -1 0 1 0 1 -1 0 1 0 0 -1 0 -0.8 -1 0 3.9 -2.7"/><feGaussianBlur result="result0" in="fbSourceGraphicAlpha" stdDeviation=".5"/><feDiffuseLighting lighting-color="#fff" diffuseConstant=".7" surfaceScale="50" result="result13" in="result0"><feDistantLight elevation="20" azimuth="225"/></feDiffuseLighting><feSpecularLighting specularExponent="20" specularConstant=".7" surfaceScale="10" lighting-color="#fff" result="result1" in="result0"><feDistantLight elevation="45" azimuth="225"/></feSpecularLighting><feBlend mode="screen" result="result5" in2="SourceGraphic" in="result13"/><feComposite in="result1" k3="1" k2="1" operator="arithmetic" in2="result5" result="result9"/><feComposite in2="SourceGraphic" operator="in"/></filter><filter id="g" color-interpolation-filters="sRGB"><feGaussianBlur stdDeviation="5" result="result8"/><feComposite result="result6" in="SourceGraphic" operator="in" in2="result8"/><feComposite operator="in" result="result11" in2="result6"/><feFlood result="result10" flood-opacity="1" flood-color="#FFF"/><feBlend mode="multiply" in="result10" in2="result11" result="result12"/><feComposite result="fbSourceGraphic" operator="in" in2="SourceGraphic" in="result12"/><feFlood result="result6" flood-color="#4B659A"/><feComposite k3=".3" k2=".3" k1=".5" operator="arithmetic" result="result2" in="fbSourceGraphic" in2="result6"/><feColorMatrix result="fbSourceGraphicAlpha" in="result2" values="1 0 0 -1 0 1 0 1 -1 0 1 0 0 -1 0 -0.8 -1 0 3.9 -2.7"/><feGaussianBlur result="result0" in="fbSourceGraphicAlpha" stdDeviation=".5"/><feDiffuseLighting lighting-color="#fff" diffuseConstant=".7" surfaceScale="50" result="result13" in="result0"><feDistantLight elevation="20" azimuth="225"/></feDiffuseLighting><feSpecularLighting specularExponent="20" specularConstant=".7" surfaceScale="10" lighting-color="#fff" result="result1" in="result0"><feDistantLight elevation="45" azimuth="225"/></feSpecularLighting><feBlend mode="screen" result="result5" in2="SourceGraphic" in="result13"/><feComposite in="result1" k3="1" k2="1" operator="arithmetic" in2="result5" result="result9"/><feComposite in2="SourceGraphic" operator="in"/></filter><filter id="h" color-interpolation-filters="sRGB"><feGaussianBlur stdDeviation="5" result="result8"/><feComposite result="result6" in="SourceGraphic" operator="in" in2="result8"/><feComposite operator="in" result="result11" in2="result6"/><feFlood result="result10" flood-opacity="1" flood-color="#FFF"/><feBlend mode="multiply" in="result10" in2="result11" result="result12"/><feComposite result="fbSourceGraphic" operator="in" in2="SourceGraphic" in="result12"/><feFlood result="result6" flood-color="#4B659A"/><feComposite k3=".3" k2=".3" k1=".5" operator="arithmetic" result="result2" in="fbSourceGraphic" in2="result6"/><feColorMatrix result="fbSourceGraphicAlpha" in="result2" values="1 0 0 -1 0 1 0 1 -1 0 1 0 0 -1 0 -0.8 -1 0 3.9 -2.7"/><feGaussianBlur result="result0" in="fbSourceGraphicAlpha" stdDeviation=".5"/><feDiffuseLighting lighting-color="#fff" diffuseConstant=".7" surfaceScale="50" result="result13" in="result0"><feDistantLight elevation="20" azimuth="225"/></feDiffuseLighting><feSpecularLighting specularExponent="20" specularConstant=".7" surfaceScale="10" lighting-color="#fff" result="result1" in="result0"><feDistantLight elevation="45" azimuth="225"/></feSpecularLighting><feBlend mode="screen" result="result5" in2="SourceGraphic" in="result13"/><feComposite in="result1" k3="1" k2="1" operator="arithmetic" in2="result5" result="result9"/><feComposite in2="SourceGraphic" operator="in"/></filter><filter id="i" color-interpolation-filters="sRGB"><feGaussianBlur stdDeviation="5" result="result8"/><feComposite result="result6" in="SourceGraphic" operator="in" in2="result8"/><feComposite operator="in" result="result11" in2="result6"/><feFlood result="result10" flood-opacity="1" flood-color="#FFF"/><feBlend mode="multiply" in="result10" in2="result11" result="result12"/><feComposite result="fbSourceGraphic" operator="in" in2="SourceGraphic" in="result12"/><feFlood result="result6" flood-color="#4B659A"/><feComposite k3=".3" k2=".3" k1=".5" operator="arithmetic" result="result2" in="fbSourceGraphic" in2="result6"/><feColorMatrix result="fbSourceGraphicAlpha" in="result2" values="1 0 0 -1 0 1 0 1 -1 0 1 0 0 -1 0 -0.8 -1 0 3.9 -2.7"/><feGaussianBlur result="result0" in="fbSourceGraphicAlpha" stdDeviation=".5"/><feDiffuseLighting lighting-color="#fff" diffuseConstant=".7" surfaceScale="50" result="result13" in="result0"><feDistantLight elevation="20" azimuth="225"/></feDiffuseLighting><feSpecularLighting specularExponent="20" specularConstant=".7" surfaceScale="10" lighting-color="#fff" result="result1" in="result0"><feDistantLight elevation="45" azimuth="225"/></feSpecularLighting><feBlend mode="screen" result="result5" in2="SourceGraphic" in="result13"/><feComposite in="result1" k3="1" k2="1" operator="arithmetic" in2="result5" result="result9"/><feComposite in2="SourceGraphic" operator="in"/></filter><filter id="j" color-interpolation-filters="sRGB"><feGaussianBlur stdDeviation="5" result="result8"/><feComposite result="result6" in="SourceGraphic" operator="in" in2="result8"/><feComposite operator="in" result="result11" in2="result6"/><feFlood result="result10" flood-opacity="1" flood-color="#FFF"/><feBlend mode="multiply" in="result10" in2="result11" result="result12"/><feComposite result="fbSourceGraphic" operator="in" in2="SourceGraphic" in="result12"/><feFlood result="result6" flood-color="#4B659A"/><feComposite k3=".3" k2=".3" k1=".5" operator="arithmetic" result="result2" in="fbSourceGraphic" in2="result6"/><feColorMatrix result="fbSourceGraphicAlpha" in="result2" values="1 0 0 -1 0 1 0 1 -1 0 1 0 0 -1 0 -0.8 -1 0 3.9 -2.7"/><feGaussianBlur result="result0" in="fbSourceGraphicAlpha" stdDeviation=".5"/><feDiffuseLighting lighting-color="#fff" diffuseConstant=".7" surfaceScale="50" result="result13" in="result0"><feDistantLight elevation="20" azimuth="225"/></feDiffuseLighting><feSpecularLighting specularExponent="20" specularConstant=".7" surfaceScale="10" lighting-color="#fff" result="result1" in="result0"><feDistantLight elevation="45" azimuth="225"/></feSpecularLighting><feBlend mode="screen" result="result5" in2="SourceGraphic" in="result13"/><feComposite in="result1" k3="1" k2="1" operator="arithmetic" in2="result5" result="result9"/><feComposite in2="SourceGraphic" operator="in"/></filter><filter id="k" color-interpolation-filters="sRGB"><feGaussianBlur stdDeviation="5" result="result8"/><feComposite result="result6" in="SourceGraphic" operator="in" in2="result8"/><feComposite operator="in" result="result11" in2="result6"/><feFlood result="result10" flood-opacity="1" flood-color="#FFF"/><feBlend mode="multiply" in="result10" in2="result11" result="result12"/><feComposite result="fbSourceGraphic" operator="in" in2="SourceGraphic" in="result12"/><feFlood result="result6" flood-color="#4B659A"/><feComposite k3=".3" k2=".3" k1=".5" operator="arithmetic" result="result2" in="fbSourceGraphic" in2="result6"/><feColorMatrix result="fbSourceGraphicAlpha" in="result2" values="1 0 0 -1 0 1 0 1 -1 0 1 0 0 -1 0 -0.8 -1 0 3.9 -2.7"/><feGaussianBlur result="result0" in="fbSourceGraphicAlpha" stdDeviation=".5"/><feDiffuseLighting lighting-color="#fff" diffuseConstant=".7" surfaceScale="50" result="result13" in="result0"><feDistantLight elevation="20" azimuth="225"/></feDiffuseLighting><feSpecularLighting specularExponent="20" specularConstant=".7" surfaceScale="10" lighting-color="#fff" result="result1" in="result0"><feDistantLight elevation="45" azimuth="225"/></feSpecularLighting><feBlend mode="screen" result="result5" in2="SourceGraphic" in="result13"/><feComposite in="result1" k3="1" k2="1" operator="arithmetic" in2="result5" result="result9"/><feComposite in2="SourceGraphic" operator="in"/></filter><filter id="l" color-interpolation-filters="sRGB"><feGaussianBlur stdDeviation="5" result="result8"/><feComposite result="result6" in="SourceGraphic" operator="in" in2="result8"/><feComposite operator="in" result="result11" in2="result6"/><feFlood result="result10" flood-opacity="1" flood-color="#FFF"/><feBlend mode="multiply" in="result10" in2="result11" result="result12"/><feComposite result="fbSourceGraphic" operator="in" in2="SourceGraphic" in="result12"/><feFlood result="result6" flood-color="#4B659A"/><feComposite k3=".3" k2=".3" k1=".5" operator="arithmetic" result="result2" in="fbSourceGraphic" in2="result6"/><feColorMatrix result="fbSourceGraphicAlpha" in="result2" values="1 0 0 -1 0 1 0 1 -1 0 1 0 0 -1 0 -0.8 -1 0 3.9 -2.7"/><feGaussianBlur result="result0" in="fbSourceGraphicAlpha" stdDeviation=".5"/><feDiffuseLighting lighting-color="#fff" diffuseConstant=".7" surfaceScale="50" result="result13" in="result0"><feDistantLight elevation="20" azimuth="225"/></feDiffuseLighting><feSpecularLighting specularExponent="20" specularConstant=".7" surfaceScale="10" lighting-color="#fff" result="result1" in="result0"><feDistantLight elevation="45" azimuth="225"/></feSpecularLighting><feBlend mode="screen" result="result5" in2="SourceGraphic" in="result13"/><feComposite in="result1" k3="1" k2="1" operator="arithmetic" in2="result5" result="result9"/><feComposite in2="SourceGraphic" operator="in"/></filter><filter id="m" color-interpolation-filters="sRGB"><feGaussianBlur stdDeviation="5" result="result8"/><feComposite result="result6" in="SourceGraphic" operator="in" in2="result8"/><feComposite operator="in" result="result11" in2="result6"/><feFlood result="result10" flood-opacity="1" flood-color="#FFF"/><feBlend mode="multiply" in="result10" in2="result11" result="result12"/><feComposite result="fbSourceGraphic" operator="in" in2="SourceGraphic" in="result12"/><feFlood result="result6" flood-color="#4B659A"/><feComposite k3=".3" k2=".3" k1=".5" operator="arithmetic" result="result2" in="fbSourceGraphic" in2="result6"/><feColorMatrix result="fbSourceGraphicAlpha" in="result2" values="1 0 0 -1 0 1 0 1 -1 0 1 0 0 -1 0 -0.8 -1 0 3.9 -2.7"/><feGaussianBlur result="result0" in="fbSourceGraphicAlpha" stdDeviation=".5"/><feDiffuseLighting lighting-color="#fff" diffuseConstant=".7" surfaceScale="50" result="result13" in="result0"><feDistantLight elevation="20" azimuth="225"/></feDiffuseLighting><feSpecularLighting specularExponent="20" specularConstant=".7" surfaceScale="10" lighting-color="#fff" result="result1" in="result0"><feDistantLight elevation="45" azimuth="225"/></feSpecularLighting><feBlend mode="screen" result="result5" in2="SourceGraphic" in="result13"/><feComposite in="result1" k3="1" k2="1" operator="arithmetic" in2="result5" result="result9"/><feComposite in2="SourceGraphic" operator="in"/></filter><filter id="n" color-interpolation-filters="sRGB"><feGaussianBlur stdDeviation="5" result="result8"/><feComposite result="result6" in="SourceGraphic" operator="in" in2="result8"/><feComposite operator="in" result="result11" in2="result6"/><feFlood result="result10" flood-opacity="1" flood-color="#FFF"/><feBlend mode="multiply" in="result10" in2="result11" result="result12"/><feComposite result="fbSourceGraphic" operator="in" in2="SourceGraphic" in="result12"/><feFlood result="result6" flood-color="#4B659A"/><feComposite k3=".3" k2=".3" k1=".5" operator="arithmetic" result="result2" in="fbSourceGraphic" in2="result6"/><feColorMatrix result="fbSourceGraphicAlpha" in="result2" values="1 0 0 -1 0 1 0 1 -1 0 1 0 0 -1 0 -0.8 -1 0 3.9 -2.7"/><feGaussianBlur result="result0" in="fbSourceGraphicAlpha" stdDeviation=".5"/><feDiffuseLighting lighting-color="#fff" diffuseConstant=".7" surfaceScale="50" result="result13" in="result0"><feDistantLight elevation="20" azimuth="225"/></feDiffuseLighting><feSpecularLighting specularExponent="20" specularConstant=".7" surfaceScale="10" lighting-color="#fff" result="result1" in="result0"><feDistantLight elevation="45" azimuth="225"/></feSpecularLighting><feBlend mode="screen" result="result5" in2="SourceGraphic" in="result13"/><feComposite in="result1" k3="1" k2="1" operator="arithmetic" in2="result5" result="result9"/><feComposite in2="SourceGraphic" operator="in"/></filter><filter id="o" color-interpolation-filters="sRGB"><feGaussianBlur stdDeviation="5" result="result8"/><feComposite result="result6" in="SourceGraphic" operator="in" in2="result8"/><feComposite operator="in" result="result11" in2="result6"/><feFlood result="result10" flood-opacity="1" flood-color="#FFF"/><feBlend mode="multiply" in="result10" in2="result11" result="result12"/><feComposite result="fbSourceGraphic" operator="in" in2="SourceGraphic" in="result12"/><feFlood result="result6" flood-color="#4B659A"/><feComposite k3=".3" k2=".3" k1=".5" operator="arithmetic" result="result2" in="fbSourceGraphic" in2="result6"/><feColorMatrix result="fbSourceGraphicAlpha" in="result2" values="1 0 0 -1 0 1 0 1 -1 0 1 0 0 -1 0 -0.8 -1 0 3.9 -2.7"/><feGaussianBlur result="result0" in="fbSourceGraphicAlpha" stdDeviation=".5"/><feDiffuseLighting lighting-color="#fff" diffuseConstant=".7" surfaceScale="50" result="result13" in="result0"><feDistantLight elevation="20" azimuth="225"/></feDiffuseLighting><feSpecularLighting specularExponent="20" specularConstant=".7" surfaceScale="10" lighting-color="#fff" result="result1" in="result0"><feDistantLight elevation="45" azimuth="225"/></feSpecularLighting><feBlend mode="screen" result="result5" in2="SourceGraphic" in="result13"/><feComposite in="result1" k3="1" k2="1" operator="arithmetic" in2="result5" result="result9"/><feComposite in2="SourceGraphic" operator="in"/></filter><filter id="p" color-interpolation-filters="sRGB"><feGaussianBlur stdDeviation="5" result="result8"/><feComposite result="result6" in="SourceGraphic" operator="in" in2="result8"/><feComposite operator="in" result="result11" in2="result6"/><feFlood result="result10" flood-opacity="1" flood-color="#FFF"/><feBlend mode="multiply" in="result10" in2="result11" result="result12"/><feComposite result="fbSourceGraphic" operator="in" in2="SourceGraphic" in="result12"/><feFlood result="result6" flood-color="#4B659A"/><feComposite k3=".3" k2=".3" k1=".5" operator="arithmetic" result="result2" in="fbSourceGraphic" in2="result6"/><feColorMatrix result="fbSourceGraphicAlpha" in="result2" values="1 0 0 -1 0 1 0 1 -1 0 1 0 0 -1 0 -0.8 -1 0 3.9 -2.7"/><feGaussianBlur result="result0" in="fbSourceGraphicAlpha" stdDeviation=".5"/><feDiffuseLighting lighting-color="#fff" diffuseConstant=".7" surfaceScale="50" result="result13" in="result0"><feDistantLight elevation="20" azimuth="225"/></feDiffuseLighting><feSpecularLighting specularExponent="20" specularConstant=".7" surfaceScale="10" lighting-color="#fff" result="result1" in="result0"><feDistantLight elevation="45" azimuth="225"/></feSpecularLighting><feBlend mode="screen" result="result5" in2="SourceGraphic" in="result13"/><feComposite in="result1" k3="1" k2="1" operator="arithmetic" in2="result5" result="result9"/><feComposite in2="SourceGraphic" operator="in"/></filter><filter id="q" color-interpolation-filters="sRGB"><feGaussianBlur stdDeviation="5" result="result8"/><feComposite result="result6" in="SourceGraphic" operator="in" in2="result8"/><feComposite operator="in" result="result11" in2="result6"/><feFlood result="result10" flood-opacity="1" flood-color="#FFF"/><feBlend mode="multiply" in="result10" in2="result11" result="result12"/><feComposite result="fbSourceGraphic" operator="in" in2="SourceGraphic" in="result12"/><feFlood result="result6" flood-color="#4B659A"/><feComposite k3=".3" k2=".3" k1=".5" operator="arithmetic" result="result2" in="fbSourceGraphic" in2="result6"/><feColorMatrix result="fbSourceGraphicAlpha" in="result2" values="1 0 0 -1 0 1 0 1 -1 0 1 0 0 -1 0 -0.8 -1 0 3.9 -2.7"/><feGaussianBlur result="result0" in="fbSourceGraphicAlpha" stdDeviation=".5"/><feDiffuseLighting lighting-color="#fff" diffuseConstant=".7" surfaceScale="50" result="result13" in="result0"><feDistantLight elevation="20" azimuth="225"/></feDiffuseLighting><feSpecularLighting specularExponent="20" specularConstant=".7" surfaceScale="10" lighting-color="#fff" result="result1" in="result0"><feDistantLight elevation="45" azimuth="225"/></feSpecularLighting><feBlend mode="screen" result="result5" in2="SourceGraphic" in="result13"/><feComposite in="result1" k3="1" k2="1" operator="arithmetic" in2="result5" result="result9"/><feComposite in2="SourceGraphic" operator="in"/></filter><filter id="r" color-interpolation-filters="sRGB"><feGaussianBlur stdDeviation="5" result="result8"/><feComposite result="result6" in="SourceGraphic" operator="in" in2="result8"/><feComposite operator="in" result="result11" in2="result6"/><feFlood result="result10" flood-opacity="1" flood-color="#FFF"/><feBlend mode="multiply" in="result10" in2="result11" result="result12"/><feComposite result="fbSourceGraphic" operator="in" in2="SourceGraphic" in="result12"/><feFlood result="result6" flood-color="#4B659A"/><feComposite k3=".3" k2=".3" k1=".5" operator="arithmetic" result="result2" in="fbSourceGraphic" in2="result6"/><feColorMatrix result="fbSourceGraphicAlpha" in="result2" values="1 0 0 -1 0 1 0 1 -1 0 1 0 0 -1 0 -0.8 -1 0 3.9 -2.7"/><feGaussianBlur result="result0" in="fbSourceGraphicAlpha" stdDeviation=".5"/><feDiffuseLighting lighting-color="#fff" diffuseConstant=".7" surfaceScale="50" result="result13" in="result0"><feDistantLight elevation="20" azimuth="225"/></feDiffuseLighting><feSpecularLighting specularExponent="20" specularConstant=".7" surfaceScale="10" lighting-color="#fff" result="result1" in="result0"><feDistantLight elevation="45" azimuth="225"/></feSpecularLighting><feBlend mode="screen" result="result5" in2="SourceGraphic" in="result13"/><feComposite in="result1" k3="1" k2="1" operator="arithmetic" in2="result5" result="result9"/><feComposite in2="SourceGraphic" operator="in"/></filter><filter id="s" color-interpolation-filters="sRGB"><feGaussianBlur stdDeviation="5" result="result8"/><feComposite result="result6" in="SourceGraphic" operator="in" in2="result8"/><feComposite operator="in" result="result11" in2="result6"/><feFlood result="result10" flood-opacity="1" flood-color="#FFF"/><feBlend mode="multiply" in="result10" in2="result11" result="result12"/><feComposite result="fbSourceGraphic" operator="in" in2="SourceGraphic" in="result12"/><feFlood result="result6" flood-color="#4B659A"/><feComposite k3=".3" k2=".3" k1=".5" operator="arithmetic" result="result2" in="fbSourceGraphic" in2="result6"/><feColorMatrix result="fbSourceGraphicAlpha" in="result2" values="1 0 0 -1 0 1 0 1 -1 0 1 0 0 -1 0 -0.8 -1 0 3.9 -2.7"/><feGaussianBlur result="result0" in="fbSourceGraphicAlpha" stdDeviation=".5"/><feDiffuseLighting lighting-color="#fff" diffuseConstant=".7" surfaceScale="50" result="result13" in="result0"><feDistantLight elevation="20" azimuth="225"/></feDiffuseLighting><feSpecularLighting specularExponent="20" specularConstant=".7" surfaceScale="10" lighting-color="#fff" result="result1" in="result0"><feDistantLight elevation="45" azimuth="225"/></feSpecularLighting><feBlend mode="screen" result="result5" in2="SourceGraphic" in="result13"/><feComposite in="result1" k3="1" k2="1" operator="arithmetic" in2="result5" result="result9"/><feComposite in2="SourceGraphic" operator="in"/></filter><filter id="t" color-interpolation-filters="sRGB"><feGaussianBlur stdDeviation="5" result="result8"/><feComposite result="result6" in="SourceGraphic" operator="in" in2="result8"/><feComposite operator="in" result="result11" in2="result6"/><feFlood result="result10" flood-opacity="1" flood-color="#FFF"/><feBlend mode="multiply" in="result10" in2="result11" result="result12"/><feComposite result="fbSourceGraphic" operator="in" in2="SourceGraphic" in="result12"/><feFlood result="result6" flood-color="#4B659A"/><feComposite k3=".3" k2=".3" k1=".5" operator="arithmetic" result="result2" in="fbSourceGraphic" in2="result6"/><feColorMatrix result="fbSourceGraphicAlpha" in="result2" values="1 0 0 -1 0 1 0 1 -1 0 1 0 0 -1 0 -0.8 -1 0 3.9 -2.7"/><feGaussianBlur result="result0" in="fbSourceGraphicAlpha" stdDeviation=".5"/><feDiffuseLighting lighting-color="#fff" diffuseConstant=".7" surfaceScale="50" result="result13" in="result0"><feDistantLight elevation="20" azimuth="225"/></feDiffuseLighting><feSpecularLighting specularExponent="20" specularConstant=".7" surfaceScale="10" lighting-color="#fff" result="result1" in="result0"><feDistantLight elevation="45" azimuth="225"/></feSpecularLighting><feBlend mode="screen" result="result5" in2="SourceGraphic" in="result13"/><feComposite in="result1" k3="1" k2="1" operator="arithmetic" in2="result5" result="result9"/><feComposite in2="SourceGraphic" operator="in"/></filter></defs><g transform="matrix(.26458 0 0 .26458 -63.536 -1.37)" opacity=".99" stroke-width=".435" filter="url(#a)"><path d="M282.71 8l-20.035 6.138L252 77.687h61.417l-10.675-63.55z" fill="#fee572"/><path d="M252 77.687v5.668h61.417v-5.668z" fill="#c3983c" fill-opacity=".992"/></g><path d="M588.372-279.456l22.635-145.313 48.17-13.768 46.542 13.113 24.243 145.968z" fill="none" filter="url(#b)" transform="matrix(.11504 0 0 .11504 -64.583 51.332)"/><g transform="matrix(.2152 0 0 -.2152 -78.746 58.425)" stroke-width="1.639" filter="url(#c)"><g clip-path="url(#d)"><path d="M417.247 255.98c-.208 0-.428-.077-.693-.21a.217.217 0 0 1-.006-.004 3.04 3.04 0 0 0-.41-.195 8.178 8.178 0 0 1-.69-.03c-.35-.023-.641-.139-.795-.384a.217.217 0 0 1-.002-.228l1.067-1.747c-1.057-2.456-2.741-5.234-5.06-8.334-2.537-3.368-4.8-5.7-6.767-6.99a.217.217 0 0 1 .014-.37c.212-.118.425-.184.637-.184.381 0 .815.246 1.453.687.636.44 1.448 1.093 2.44 1.959l.005.004c.261.11.55.326.942.684.425.387.95.925 1.578 1.617a.217.217 0 0 1 .002.002c1.346 1.525 2.173 2.383 2.562 2.713.36-.442.84-.803 1.461-1.065.104-.297.333-.684.737-1.28a.217.217 0 0 1 .004-.005c.361-.502.521-.91.521-1.188 0-.128-.033-.272-.068-.418l-5.618-1.359-.718.262a.217.217 0 0 1-.117.008l-.157-.032a.217.217 0 0 1-.174-.213v-.158a.217.217 0 0 1 .01-.068c.17-.51.328-.876.498-1.12a.217.217 0 0 1 .006-.009l.688-.877a.217.217 0 0 1 .136-.08l.94-.156a.217.217 0 0 1 .238.136c.125.321.337.529.682.657.531.143.942.244 1.224.304a.217.217 0 0 1 .043.014c.331.145.672.289 1.024.434l.004.002c.352.136.668.2.945.2l.12-.011c.106-.752.157-1.878.138-3.428-.02-1.545.059-2.702.226-3.558l-7.177-1.666-.547.117a.217.217 0 0 1-.088 0l-.418-.086-.824.238a.217.217 0 0 1-.276-.236c.11-.88.51-1.874 1.188-2.996a.217.217 0 0 1 .136-.1l.688-.156a.217.217 0 0 1 .129.012c.504.201.853.505 1.047.888 1.632.55 2.855.897 3.636 1.037a.217.217 0 0 1 .028.008c.954.311 1.56.498 1.795.557.802.123 1.412.195 1.812.215a.217.217 0 0 1 .053.01c.807.248 1.359.367 1.562.367.288 0 .695-.05 1.206-.153.669-.146 1.088-.231 1.304-.255a.217.217 0 0 1 .01 0l1.461-.094c.289-.037.928-.22 1.86-.551a.217.217 0 0 1 .001 0c.749-.257 1.451-.387 2.106-.387a.217.217 0 0 1 .011 0l.625.032a.217.217 0 0 1 .127.05c.412.343.643.777.643 1.26 0 .38-.182.743-.502 1.063-.319.319-.777.609-1.373.886-1 .49-1.876.722-2.639.678h-.004l-5.177-.248-.207.078c.021.021.019.047.05.068.104.07.272.132.502.17a.217.217 0 0 1 .004 0c.299.054.54.112.733.174.141.046.233.107.328.172h.004c.655.114 1.548.5 2.724 1.15a.217.217 0 0 1 .004.002c.54.311.974.544 1.303.696.329.152.57.215.621.215.125 0 .252-.019.379-.055a.217.217 0 0 1 .275.174 2.3 2.3 0 0 1 .034.379c0 .421-.201.82-.559 1.166-.358.346-.873.653-1.545.941a.217.217 0 0 1-.078.018l-2.377.093a.217.217 0 0 1-.201-.316l.449-.871c-.404-.955-1.29-1.958-2.648-2.986l-.112.562c.001.042.009.119.028.23.021.131.033.23.033.317 0 .12-.025.254-.069.43-.04.158-.056.275-.056.322 0 .075.018.224.058.426.044.215.067.38.067.513 0 .426.005.763.015 1.008.01.245.034.415.04.434a.217.217 0 0 1 .003.107l-.109.486.477.924 2.386.295 2.16-.37a.217.217 0 0 1 .112.01l.937.345a.217.217 0 0 1 .14.171c.023.155.034.3.034.438 0 .45-.19.85-.543 1.135l-.002.002c-.347.3-.76.457-1.205.457a.217.217 0 0 1-.06-.01.217.217 0 0 1-.002 0 6.075 6.075 0 0 0-.16-.023c-.154-.021-.4-.05-.735-.092-.65-.08-1.674-.207-3.004-.366l-.225.208.29.703a.217.217 0 0 1 .015.082c0 .537-.219 1.03-.627 1.437a.217.217 0 0 1-.08.051c-.096.035-.16.032-.242.055.346.108.695.22 1.566.437a.217.217 0 0 1 .002 0c.812.213 1.47.457 2.012.729.862-.983 1.725-1.985 2.586-3.006a.217.217 0 0 1 .01-.01c1.118-1.16 2.21-2 3.285-2.516a.217.217 0 0 1 .137-.017c.279.056.643.058 1.086-.002.607-.084.969-.127 1.156-.127.149 0 .34.022.596.064.266.041.459.06.56.06.755 0 1.266.019 1.567.065a.217.217 0 0 1 .107.05l.658.562a.217.217 0 0 1 .074.203l-.187 1.064a.217.217 0 0 1-.076.13c-.654.544-1.589 1.052-2.81 1.536h-.003c-1.413.582-2.36 1.033-2.808 1.326a.217.217 0 0 1-.008.006c-.752.448-1.541 1.072-2.365 1.875l-.002.002c-.115.115-.821.85-2.092 2.184a.217.217 0 0 1-.008.008c-1.875 1.777-3.244 3.016-4.283 3.902.329.096.62.214.83.389.293.244.453.585.453.965a.217.217 0 0 1-.004.04l-.094.5a.217.217 0 0 1-.088.137c-.65.462-1.192.81-1.632 1.047-.44.237-.769.37-1.057.37zm.037-5.02a113.323 113.323 0 0 0 2.399-3.47c-.02 0-.04.009-.059.009-.452 0-1.08-.212-1.967-.613a.217.217 0 0 1-.002 0c-.584-.271-1.034-.48-1.351-.625a30.39 30.39 0 0 0-.532-.24h-.002a35.594 35.594 0 0 0-1.488-.442l-.336.23zm-6.223-14.192a.217.217 0 0 1-.207-.308c.115-.245.306-1.066.514-2.354.151-1.031.503-1.791 1.086-2.234a.217.217 0 0 1 .229-.022c.342.172.653.222.959.168a.217.217 0 0 1 .228.112c.311.578.454 1.253.434 2.011V234.485a.217.217 0 0 1-.018.088c-.27.609-.741 1.088-1.383 1.42a.217.217 0 0 1-.013.006l-1.752.752a.217.217 0 0 1-.077.017z" aria-label="金" font-weight="400" font-size="32.04" font-family="HakusyuKaisyo" stroke-width="1.501" stroke-linejoin="round" stroke-miterlimit="10"/></g></g><path d="M653.115-320.685l1.871-11.823 3.966-1.122 3.853 1.066 2.002 11.879z" fill-rule="evenodd" filter="url(#e)" transform="matrix(.11504 0 0 .11504 -64.583 51.332)"/><path d="M653.115-320.685l1.871-11.823 3.966-1.122 3.853 1.066 2.002 11.879z" fill="none" filter="url(#f)" transform="matrix(.11504 0 0 .11504 -64.583 51.332)"/><path d="M677.808-327.158c0-2.862 2.32-5.182 5.163-5.182a5.181 5.181 0 1 1 0 10.364c-2.843 0-5.163-2.32-5.163-5.182z" fill-rule="evenodd" filter="url(#g)" transform="matrix(.11504 0 0 .11504 -64.583 51.332)"/><path d="M677.808-327.158c0-2.862 2.32-5.182 5.163-5.182a5.181 5.181 0 1 1 0 10.364c-2.843 0-5.163-2.32-5.163-5.182z" fill="none" filter="url(#h)" transform="matrix(.11504 0 0 .11504 -64.583 51.332)"/><path d="M630.181-327.158a5.181 5.181 0 1 1 10.363 0 5.181 5.181 0 0 1-10.363 0z" fill-rule="evenodd" filter="url(#i)" transform="matrix(.11504 0 0 .11504 -64.583 51.332)"/><path d="M630.181-327.158a5.181 5.181 0 1 1 10.363 0 5.181 5.181 0 0 1-10.363 0z" fill="none" filter="url(#j)" transform="matrix(.11504 0 0 .11504 -64.583 51.332)"/><path d="M677.808-350.71c0-2.862 2.32-5.181 5.163-5.181a5.181 5.181 0 1 1 0 10.363c-2.843 0-5.163-2.32-5.163-5.181z" fill-rule="evenodd" filter="url(#k)" transform="matrix(.11504 0 0 .11504 -64.583 51.332)"/><path d="M677.808-350.71c0-2.862 2.32-5.181 5.163-5.181a5.181 5.181 0 1 1 0 10.363c-2.843 0-5.163-2.32-5.163-5.181z" fill="none" filter="url(#l)" transform="matrix(.11504 0 0 .11504 -64.583 51.332)"/><path d="M630.181-350.71a5.181 5.181 0 1 1 10.363 0 5.181 5.181 0 0 1-10.363 0z" fill-rule="evenodd" filter="url(#m)" transform="matrix(.11504 0 0 .11504 -64.583 51.332)"/><path d="M630.181-350.71a5.181 5.181 0 1 1 10.363 0 5.181 5.181 0 0 1-10.363 0z" fill="none" filter="url(#n)" transform="matrix(.11504 0 0 .11504 -64.583 51.332)"/><path d="M653.845-350.71a5.181 5.181 0 1 1 10.363 0 5.181 5.181 0 0 1-10.363 0z" fill-rule="evenodd" filter="url(#o)" transform="matrix(.11504 0 0 .11504 -64.583 51.332)"/><path d="M653.845-350.71a5.181 5.181 0 1 1 10.363 0 5.181 5.181 0 0 1-10.363 0z" fill="none" filter="url(#p)" transform="matrix(.11504 0 0 .11504 -64.583 51.332)"/><path d="M653.845-302.746a5.165 5.165 0 0 1 5.182-5.163c2.862 0 5.181 2.301 5.181 5.163a5.181 5.181 0 1 1-10.363 0z" fill-rule="evenodd" filter="url(#q)" transform="matrix(.11504 0 0 .11504 -64.583 51.332)"/><path d="M653.845-302.746a5.165 5.165 0 0 1 5.182-5.163c2.862 0 5.181 2.301 5.181 5.163a5.181 5.181 0 1 1-10.363 0z" fill="none" filter="url(#r)" transform="matrix(.11504 0 0 .11504 -64.583 51.332)"/><path d="M650.46-318.179l2.786-17.64 5.93-1.665 5.725 1.59 2.993 17.715z" fill-rule="evenodd" filter="url(#s)" transform="matrix(.11504 0 0 .11504 -64.583 51.332)"/><path d="M650.46-318.179l2.786-17.64 5.93-1.665 5.725 1.59 2.993 17.715z" fill="none" filter="url(#t)" transform="matrix(.11504 0 0 .11504 -64.583 51.332)"/></svg>