<svg xmlns="http://www.w3.org/2000/svg" width="85" height="85" viewBox="0 0 22.49 22.49"><defs><filter id="a" color-interpolation-filters="sRGB"><feFlood flood-opacity=".498" flood-color="#000" result="flood"/><feComposite in="flood" in2="SourceGraphic" operator="in" result="composite1"/><feGaussianBlur in="composite1" stdDeviation="1" result="blur"/><feOffset dx="5" dy="3" result="offset"/><feComposite in="SourceGraphic" in2="offset" result="composite2"/></filter><filter id="b" color-interpolation-filters="sRGB"><feGaussianBlur stdDeviation="5" result="result8"/><feComposite result="result6" in="SourceGraphic" operator="in" in2="result8"/><feComposite operator="in" result="result11" in2="result6"/><feFlood result="result10" flood-opacity="1" flood-color="#FFF"/><feBlend mode="multiply" in="result10" in2="result11" result="result12"/><feComposite result="fbSourceGraphic" operator="in" in2="SourceGraphic" in="result12"/><feFlood result="result6" flood-color="#4B659A"/><feComposite k3=".3" k2=".3" k1=".5" operator="arithmetic" result="result2" in="fbSourceGraphic" in2="result6"/><feColorMatrix result="fbSourceGraphicAlpha" in="result2" values="1 0 0 -1 0 1 0 1 -1 0 1 0 0 -1 0 -0.8 -1 0 3.9 -2.7"/><feGaussianBlur result="result0" in="fbSourceGraphicAlpha" stdDeviation=".5"/><feDiffuseLighting lighting-color="#fff" diffuseConstant=".7" surfaceScale="50" result="result13" in="result0"><feDistantLight elevation="20" azimuth="225"/></feDiffuseLighting><feSpecularLighting specularExponent="20" specularConstant=".7" surfaceScale="10" lighting-color="#fff" result="result1" in="result0"><feDistantLight elevation="45" azimuth="225"/></feSpecularLighting><feBlend mode="screen" result="result5" in2="SourceGraphic" in="result13"/><feComposite in="result1" k3="1" k2="1" operator="arithmetic" in2="result5" result="result9"/><feComposite in2="SourceGraphic" operator="in"/></filter><filter id="c" color-interpolation-filters="sRGB"><feGaussianBlur stdDeviation="5" result="result8"/><feComposite result="result6" in="SourceGraphic" operator="in" in2="result8"/><feComposite operator="in" result="result11" in2="result6"/><feFlood result="result10" flood-opacity="1" flood-color="#FFF"/><feBlend mode="multiply" in="result10" in2="result11" result="result12"/><feComposite result="fbSourceGraphic" operator="in" in2="SourceGraphic" in="result12"/><feFlood result="result6" flood-color="#4B659A"/><feComposite k3=".3" k2=".3" k1=".5" operator="arithmetic" result="result2" in="fbSourceGraphic" in2="result6"/><feColorMatrix result="fbSourceGraphicAlpha" in="result2" values="1 0 0 -1 0 1 0 1 -1 0 1 0 0 -1 0 -0.8 -1 0 3.9 -2.7"/><feGaussianBlur result="result0" in="fbSourceGraphicAlpha" stdDeviation=".5"/><feDiffuseLighting lighting-color="#fff" diffuseConstant=".7" surfaceScale="50" result="result13" in="result0"><feDistantLight elevation="20" azimuth="225"/></feDiffuseLighting><feSpecularLighting specularExponent="20" specularConstant=".7" surfaceScale="10" lighting-color="#fff" result="result1" in="result0"><feDistantLight elevation="45" azimuth="225"/></feSpecularLighting><feBlend mode="screen" result="result5" in2="SourceGraphic" in="result13"/><feComposite in="result1" k3="1" k2="1" operator="arithmetic" in2="result5" result="result9"/><feComposite in2="SourceGraphic" operator="in"/></filter><clipPath clipPathUnits="userSpaceOnUse" id="d"><path d="M0 0h936.12v612.12H0z" clip-rule="evenodd"/></clipPath><filter id="e" color-interpolation-filters="sRGB"><feGaussianBlur stdDeviation="5" result="result8"/><feComposite result="result6" in="SourceGraphic" operator="in" in2="result8"/><feComposite operator="in" result="result11" in2="result6"/><feFlood result="result10" flood-opacity="1" flood-color="#FFF"/><feBlend mode="multiply" in="result10" in2="result11" result="result12"/><feComposite result="fbSourceGraphic" operator="in" in2="SourceGraphic" in="result12"/><feFlood result="result6" flood-color="#4B659A"/><feComposite k3=".3" k2=".3" k1=".5" operator="arithmetic" result="result2" in="fbSourceGraphic" in2="result6"/><feColorMatrix result="fbSourceGraphicAlpha" in="result2" values="1 0 0 -1 0 1 0 1 -1 0 1 0 0 -1 0 -0.8 -1 0 3.9 -2.7"/><feGaussianBlur result="result0" in="fbSourceGraphicAlpha" stdDeviation=".5"/><feDiffuseLighting lighting-color="#fff" diffuseConstant=".7" surfaceScale="50" result="result13" in="result0"><feDistantLight elevation="20" azimuth="225"/></feDiffuseLighting><feSpecularLighting specularExponent="20" specularConstant=".7" surfaceScale="10" lighting-color="#fff" result="result1" in="result0"><feDistantLight elevation="45" azimuth="225"/></feSpecularLighting><feBlend mode="screen" result="result5" in2="SourceGraphic" in="result13"/><feComposite in="result1" k3="1" k2="1" operator="arithmetic" in2="result5" result="result9"/><feComposite in2="SourceGraphic" operator="in"/></filter><filter id="f" color-interpolation-filters="sRGB"><feGaussianBlur stdDeviation="5" result="result8"/><feComposite result="result6" in="SourceGraphic" operator="in" in2="result8"/><feComposite operator="in" result="result11" in2="result6"/><feFlood result="result10" flood-opacity="1" flood-color="#FFF"/><feBlend mode="multiply" in="result10" in2="result11" result="result12"/><feComposite result="fbSourceGraphic" operator="in" in2="SourceGraphic" in="result12"/><feFlood result="result6" flood-color="#4B659A"/><feComposite k3=".3" k2=".3" k1=".5" operator="arithmetic" result="result2" in="fbSourceGraphic" in2="result6"/><feColorMatrix result="fbSourceGraphicAlpha" in="result2" values="1 0 0 -1 0 1 0 1 -1 0 1 0 0 -1 0 -0.8 -1 0 3.9 -2.7"/><feGaussianBlur result="result0" in="fbSourceGraphicAlpha" stdDeviation=".5"/><feDiffuseLighting lighting-color="#fff" diffuseConstant=".7" surfaceScale="50" result="result13" in="result0"><feDistantLight elevation="20" azimuth="225"/></feDiffuseLighting><feSpecularLighting specularExponent="20" specularConstant=".7" surfaceScale="10" lighting-color="#fff" result="result1" in="result0"><feDistantLight elevation="45" azimuth="225"/></feSpecularLighting><feBlend mode="screen" result="result5" in2="SourceGraphic" in="result13"/><feComposite in="result1" k3="1" k2="1" operator="arithmetic" in2="result5" result="result9"/><feComposite in2="SourceGraphic" operator="in"/></filter><filter id="g" color-interpolation-filters="sRGB"><feGaussianBlur stdDeviation="5" result="result8"/><feComposite result="result6" in="SourceGraphic" operator="in" in2="result8"/><feComposite operator="in" result="result11" in2="result6"/><feFlood result="result10" flood-opacity="1" flood-color="#FFF"/><feBlend mode="multiply" in="result10" in2="result11" result="result12"/><feComposite result="fbSourceGraphic" operator="in" in2="SourceGraphic" in="result12"/><feFlood result="result6" flood-color="#4B659A"/><feComposite k3=".3" k2=".3" k1=".5" operator="arithmetic" result="result2" in="fbSourceGraphic" in2="result6"/><feColorMatrix result="fbSourceGraphicAlpha" in="result2" values="1 0 0 -1 0 1 0 1 -1 0 1 0 0 -1 0 -0.8 -1 0 3.9 -2.7"/><feGaussianBlur result="result0" in="fbSourceGraphicAlpha" stdDeviation=".5"/><feDiffuseLighting lighting-color="#fff" diffuseConstant=".7" surfaceScale="50" result="result13" in="result0"><feDistantLight elevation="20" azimuth="225"/></feDiffuseLighting><feSpecularLighting specularExponent="20" specularConstant=".7" surfaceScale="10" lighting-color="#fff" result="result1" in="result0"><feDistantLight elevation="45" azimuth="225"/></feSpecularLighting><feBlend mode="screen" result="result5" in2="SourceGraphic" in="result13"/><feComposite in="result1" k3="1" k2="1" operator="arithmetic" in2="result5" result="result9"/><feComposite in2="SourceGraphic" operator="in"/></filter><filter id="h" color-interpolation-filters="sRGB"><feGaussianBlur stdDeviation="5" result="result8"/><feComposite result="result6" in="SourceGraphic" operator="in" in2="result8"/><feComposite operator="in" result="result11" in2="result6"/><feFlood result="result10" flood-opacity="1" flood-color="#FFF"/><feBlend mode="multiply" in="result10" in2="result11" result="result12"/><feComposite result="fbSourceGraphic" operator="in" in2="SourceGraphic" in="result12"/><feFlood result="result6" flood-color="#4B659A"/><feComposite k3=".3" k2=".3" k1=".5" operator="arithmetic" result="result2" in="fbSourceGraphic" in2="result6"/><feColorMatrix result="fbSourceGraphicAlpha" in="result2" values="1 0 0 -1 0 1 0 1 -1 0 1 0 0 -1 0 -0.8 -1 0 3.9 -2.7"/><feGaussianBlur result="result0" in="fbSourceGraphicAlpha" stdDeviation=".5"/><feDiffuseLighting lighting-color="#fff" diffuseConstant=".7" surfaceScale="50" result="result13" in="result0"><feDistantLight elevation="20" azimuth="225"/></feDiffuseLighting><feSpecularLighting specularExponent="20" specularConstant=".7" surfaceScale="10" lighting-color="#fff" result="result1" in="result0"><feDistantLight elevation="45" azimuth="225"/></feSpecularLighting><feBlend mode="screen" result="result5" in2="SourceGraphic" in="result13"/><feComposite in="result1" k3="1" k2="1" operator="arithmetic" in2="result5" result="result9"/><feComposite in2="SourceGraphic" operator="in"/></filter><filter id="i" color-interpolation-filters="sRGB"><feGaussianBlur stdDeviation="5" result="result8"/><feComposite result="result6" in="SourceGraphic" operator="in" in2="result8"/><feComposite operator="in" result="result11" in2="result6"/><feFlood result="result10" flood-opacity="1" flood-color="#FFF"/><feBlend mode="multiply" in="result10" in2="result11" result="result12"/><feComposite result="fbSourceGraphic" operator="in" in2="SourceGraphic" in="result12"/><feFlood result="result6" flood-color="#4B659A"/><feComposite k3=".3" k2=".3" k1=".5" operator="arithmetic" result="result2" in="fbSourceGraphic" in2="result6"/><feColorMatrix result="fbSourceGraphicAlpha" in="result2" values="1 0 0 -1 0 1 0 1 -1 0 1 0 0 -1 0 -0.8 -1 0 3.9 -2.7"/><feGaussianBlur result="result0" in="fbSourceGraphicAlpha" stdDeviation=".5"/><feDiffuseLighting lighting-color="#fff" diffuseConstant=".7" surfaceScale="50" result="result13" in="result0"><feDistantLight elevation="20" azimuth="225"/></feDiffuseLighting><feSpecularLighting specularExponent="20" specularConstant=".7" surfaceScale="10" lighting-color="#fff" result="result1" in="result0"><feDistantLight elevation="45" azimuth="225"/></feSpecularLighting><feBlend mode="screen" result="result5" in2="SourceGraphic" in="result13"/><feComposite in="result1" k3="1" k2="1" operator="arithmetic" in2="result5" result="result9"/><feComposite in2="SourceGraphic" operator="in"/></filter></defs><g transform="matrix(.26458 0 0 .26458 -128.147 -.9)" opacity=".99" stroke-width=".435" filter="url(#a)"><path d="M526.835 8l-17.83 5.92-9.336 60.222H554l-9.335-60.223z" fill="#fee572"/><path d="M499.67 74.142v5.668H554v-5.669z" fill="#c3983c" fill-opacity=".992"/></g><path d="M1167.511-292.176l19.904-135.605 42.408-12.87 40.968 12.253 21.326 136.222z" fill="none" filter="url(#b)" transform="matrix(.11504 0 0 .11504 -130.208 52.327)"/><g transform="matrix(.2152 0 0 -.2152 -144.37 59.42)" stroke-width="1.639" filter="url(#c)"><g clip-path="url(#d)"><path d="M723.744 256.58l1.127-.22.594.22q.72-.126 1.252-.658t.532-1.251q0-1.002-.751-1.283-.626-.125-1.815-.407-.595-.188-1.877-.845-1.502-.75-1.69-1.126l1.596-.595q.219-.532 1.032-1.439 2.973.939 6.414.939 1.096 0 1.846-.72.783-.72.783-1.815l-.094-.438-1.346-.375-1.877.375q-1.22.22-1.94.22-.813 0-1.44-.22 3.411-3.66 7.229-5.413 1.314-.625 2.66-1.22 1.501-.688 2.502-1.47l.376-.72q-.5-.5-1.001-.72l-.689.157-1.283-.282-1.72.156-.626-.281q-2.16.25-3.88 2.002v-.469q-.25-.25-.5-.532-.251-.25-.251-.657 0-.219.125-.5 0-.752.031-2.097.032-1.47.032-2.065 0-3.473-1.659-4.13l-.563.125-.5.97q-.22.094-2.128.438-.188-.031-2.597-.344-1.627-.22-2.597-.563-.751-.438-2.253-1.252-.688.563-1.126 1.47.563 3.067.563 7.447 0 1.878-.845 2.16-.75-.47-.75-1.033-.72-.845-1.409-1.721-.939-1.158-1.596-1.596-1.345-.845-2.002-.845l-1.47.032q2.064 1.47 4.974 5.194 2.535 3.254 4.036 6.038-2.816 0-4.13-1.595-.156-.032-.344-.032-1.032 0-1.44 1.064-.187.438-.406 2.003.876-.125 2.065-.438 2.535.594 3.786.938 2.691.72 3.661 1.252-.188 1.126-1.126 2.44l-.438-.156-.501.156q-.782-.219-.908-.219-.125 0-.312.094l-2.629.125q.501.282 4.037 2.16 2.378 1.314 3.848 2.534l-.47.47v.343l.69-.062 1.188.281zm-.47-9.45q-.375-.094-.468-.813-.063-.564-.094-1.096l.187-.469-.281-1.533.219-.563q-.25-.094-.313-.5-.063-.376-.094-.69l.188-.844 3.473.282q1.377.125 2.41-.47-1.784 2.19-5.226 6.696zm-7.602-7.54l1.501-.595q.564.313 1.847.563 1.282.25 1.814.5-.313 1.065-.344 2.848-.031 1.783-.219 2.534-.939-.125-1.564-.876-.094-.125-1.002-1.595-.062-.157-1.157-1.627-.72-.908-.876-1.753zm1.877-1.91l.156-2.721q1.721.125 3.286.532 1.001.344 2.972 1.032h.908q.406 0 .782.188.125 1.502.125 1.658 0 .939-.657.939.375 0-1.909-.282-3.754-.532-5.663-1.345zm1.69-4.098l-.376.094q-1.001 0-1.22-.344v-.564q0 .157.125-.532-.063-.688.063-2.002.907.125 3.848.907 2.347.595 3.88.657v3.004l-.376.157q-2.628-.438-3.003-.532-2.003-.407-2.941-.845z" aria-label="ждЎ" font-weight="400" font-size="32.04" font-family="HakusyuKaisyo"/></g></g><path d="M1221.835-304.036l2.376-15.06 5.051-1.42 4.901 1.346 2.544 15.134z" fill-rule="evenodd" filter="url(#e)" transform="matrix(.11504 0 0 .11504 -130.208 52.327)"/><path d="M1221.835-304.036l2.376-15.06 5.051-1.42 4.901 1.346 2.544 15.134z" fill="none" filter="url(#f)" transform="matrix(.11504 0 0 .11504 -130.208 52.327)"/><path style="line-height:normal;font-variant-ligatures:normal;font-variant-position:normal;font-variant-caps:normal;font-variant-numeric:normal;font-variant-alternates:normal;font-variant-east-asian:normal;font-feature-settings:normal;font-variation-settings:normal;text-indent:0;text-align:start;text-decoration-line:none;text-decoration-style:solid;text-decoration-color:#000;text-transform:none;text-orientation:mixed;white-space:normal;shape-padding:0;shape-margin:0;inline-size:0;isolation:auto;mix-blend-mode:normal;solid-color:#000;solid-opacity:1" d="M1225.236-354.152v26.507h8.051v-26.507z" color="#000" font-weight="400" font-family="sans-serif" overflow="visible" filter="url(#g)" enable-background="accumulate" transform="matrix(.11504 0 0 .11504 -130.208 52.327)"/><path d="M1221.106-301.717l2.787-17.621 5.93-1.684 5.724 1.59 2.975 17.715z" fill-rule="evenodd" filter="url(#h)" transform="matrix(.11504 0 0 .11504 -130.208 52.327)"/><path d="M1221.106-301.717l2.787-17.621 5.93-1.684 5.724 1.59 2.975 17.715z" fill="none" filter="url(#i)" transform="matrix(.11504 0 0 .11504 -130.208 52.327)"/></svg>