<svg xmlns="http://www.w3.org/2000/svg" viewBox="0 0 20.637 20.637"><path d="m44.982 43.71 2.7-17.274 5.748-1.638 5.555 1.56 2.894 17.351zm16.734 29.574-2.7 17.273-5.748 1.638-5.554-1.56-2.895-17.351zM1.87 19.773l2.7-17.272L10.32.864l5.556 1.56 2.892 17.35zm43.183.117 2.7-17.274L53.501.978l5.554 1.56 2.894 17.351zm43.755 23.162 2.602-16.714 5.541-1.586 5.354 1.51 2.789 16.79zm.034-23.646L91.446 2.69l5.54-1.584 5.355 1.509 2.789 16.791zm-21.85-.142 2.604-16.716L75.137.965l5.354 1.508 2.789 16.791zm43.644-.191 2.488-16.158 5.292-1.53 5.113 1.459 2.664 16.23zm21.699-.217 2.29-15.6 4.878-1.48 4.712 1.41 2.453 15.67zm-21.908 24.121 2.486-16.157 5.291-1.532 5.113 1.459 2.664 16.23zm21.905-.309 2.292-15.6 4.876-1.48 4.713 1.409 2.455 15.67zm22.042-23.671 2.195-15.044 4.668-1.426 4.512 1.358 2.35 15.112zm0 23.575 2.193-15.043 4.67-1.427 4.512 1.358 2.35 15.112zm-134.93 6.595-2.798 17.83-5.957 1.691-5.754-1.612-2.997-17.909zm0 23.813-2.798 17.83-5.956 1.69-5.756-1.61-2.998-17.91zm21.07.305-2.7 17.272-5.748 1.637-5.556-1.56-2.893-17.35zm.022-23.805-2.7 17.273-5.748 1.638-5.554-1.56-2.895-17.351zm21.435 0-2.7 17.273-5.748 1.638-5.554-1.56-2.894-17.351zm43.033 25.022-2.601 16.714-5.541 1.586-5.354-1.51-2.79-16.79zm.003-25.007-2.604 16.716-5.541 1.584-5.354-1.509-2.79-16.79zm-21.667.092-2.604 16.716-5.541 1.583-5.354-1.508-2.789-16.791zm63.328.927-2.29 15.599-4.878 1.48-4.712-1.41-2.453-15.67zM125.8 73.575l-2.486 16.157-5.292 1.532-5.113-1.459-2.664-16.23zm20.868.681-2.291 15.6-4.877 1.48-4.712-1.409-2.456-15.67zm21.184-22.778-2.195 15.044-4.668 1.427-4.512-1.358-2.35-15.113zm.048 23.303-2.193 15.043-4.67 1.426-4.512-1.358-2.35-15.11zm-41.885-24.569-2.488 16.159-5.291 1.53-5.113-1.46-2.664-16.23z" fill="#fd5" stroke="#deaa87" stroke-width=".353" stroke-linejoin="round" stroke-miterlimit="10"/><path d="m9.574 15.815.222-1.406.473-.133.456.127.24 1.412z" fill="red" fill-rule="evenodd"/><path style="line-height:normal;font-variant-ligatures:normal;font-variant-position:normal;font-variant-caps:normal;font-variant-numeric:normal;font-variant-alternates:normal;font-variant-east-asian:normal;font-feature-settings:normal;font-variation-settings:normal;text-indent:0;text-align:start;text-decoration-line:none;text-decoration-style:solid;text-decoration-color:#000;text-transform:none;text-orientation:mixed;white-space:normal;shape-padding:0;shape-margin:0;inline-size:0;isolation:auto;mix-blend-mode:normal;solid-color:#000;solid-opacity:1" d="M10.268 14.188a.088.088 0 0 0-.023.003l-.473.133a.088.088 0 0 0-.063.071l-.222 1.407a.088.088 0 0 0 .087.102h1.39a.088.088 0 0 0 .087-.103l-.239-1.413a.088.088 0 0 0-.063-.07l-.456-.127a.088.088 0 0 0-.025-.003zm.001.18.379.105.212 1.254H9.677l.197-1.249z" color="#000" font-weight="400" font-family="sans-serif" overflow="visible" fill="red"/><path d="M12.51 12.244a.616.616 0 1 1 1.23-.003.616.616 0 0 1-1.23.003zm-5.665 0a.616.616 0 1 1 1.232-.003.616.616 0 0 1-1.232.003zm5.665 5.706a.616.616 0 1 1 1.23 0 .616.616 0 0 1-1.23 0zm-5.665 0a.616.616 0 1 1 1.231 0 .616.616 0 0 1-1.23 0z" fill="red" fill-rule="evenodd"/><path style="line-height:normal;font-variant-ligatures:normal;font-variant-position:normal;font-variant-caps:normal;font-variant-numeric:normal;font-variant-alternates:normal;font-variant-east-asian:normal;font-feature-settings:normal;font-variation-settings:normal;text-indent:0;text-align:start;text-decoration-line:none;text-decoration-style:solid;text-decoration-color:#000;text-transform:none;text-orientation:mixed;white-space:normal;shape-padding:0;shape-margin:0;inline-size:0;isolation:auto;mix-blend-mode:normal;solid-color:#000;solid-opacity:1" d="M9.806 11.132v2.478h.926v-2.478zm.028 5.448-.02 2.478.927.007.02-2.478zm1.924-1.985v.926h2.48v-.926zm-5.354-.012-.004.925 2.477.013.004-.926z" color="#000" font-weight="400" font-family="sans-serif" overflow="visible" fill="red"/><path d="m9.346 16.207.32-2.028.683-.193.658.183.344 2.038zm86.949 23.918.215-1.36.458-.13.441.123.23 1.367z" fill="red" fill-rule="evenodd"/><path d="m11.703 3.172.064-.418q.19.1.317.227-.19.19-.381.19zm.109-.5q.036-.1.036-.163 0-.227-.445-.472-.29-.164-.417-.164-.581.11-.581.345 0 .182.417.463 0 .908-.027 1.816-.236.118-.236.209 0 .218.527.272l.971-.1q-.136.2-.418.482-.308.145-.617.254l-.109-.073q-.136-.281-.272-.281-.154 0-.154.281 0 .154.145.6-.209 2.305-.209 2.423 0 .963.608 1.362.581.39 2.134.39 1.606 0 1.606-.771 0-.29-.326-.463-.609-1.49-1.562-2.116.381.554.5 2.161-.763.182-1.462.182-.853 0-.853-.3.009-.445.363-2.152l.444-.127q-.226.6-.226.708 0 .155.272.282-.354.536-.354.708 0 .254.735.427-.136.163-.318.317.354-.036.817-.118.345 0 .345-.272 0-.145-.145-.309-.2-.2-.372-.2-.281 0-.581-.045l.245-.254q.409-.127.409-.4 0-.28-.518-.453l.427-.436q.29-.136.29-.327-.036-.3-.463-.354-.145 0-.308.109-.327.19-.636.336 0-.236-.1-.409.309-.154 1.063-.245.499-.072.499-.29 0-.136-.127-.254.254-.182.472-.409.272-.127.272-.263 0-.164-.163-.327-.327-.327-.572-.327-.19 0-.39.209l-1.054.345q.155-.381.236-.763.236.1.436.1 1.253-.109 1.253-.58 0-.518-.68-.518-.064 0-.155.027-.327 0-.672-.073zM7.99 6.93q.172-.4.89-.663.036.536.036 1.18-.372.318-.79.464.173-.264.436-.563.327-.173.327-.318-.028-.209-.336-.245-.1 0-.563.145zm-.245 1.126q.027-.336.1-.654.1.018.2.018.09 0 .226-.009-.172.273-.38.545zM6.238 5.84q-.136-.082-.2-.082-.172 0-.172.136 0 .19.19.327.4.2.609.2.344 0 1.28-.572-.772 1.08-1.026 3.05-.164.336-.164.445.1.935.527.935.209 0 .29-.154.118-.618.137-1.644.108.164.245.164.19 0 .962-.726 0 .599-.082 1.334-.572-.09-1.08-.454.318.645.935 1.226.127.39.418.39.426 0 .671-.944-.118-2.034-.118-2.306 0-.082.064-.545.118-.236.118-.363 0-.19-.309-.417-.263-.164-.426-.164-.137 0-.727.354.182-.408.926-.653l.817-.182q.11-.036.11-.272 0-.318-.618-.354-.09 0-.427.254l-.808.245q.409-.281.863-.527.626-.163.626-.363 0-.308-.454-.363-.154 0-.381.136l-.327.091q.254-.209.98-.49.282-.09.282-.254 0-.264-.427-.436 0-.454-.245-.69-.218-.218-.517-.218-.863 0-.863.282 0 .127.39.326l.146.11-.744.435.953-.118.245.018-.209.218-1.57.509-.445.036q-.091.018-.091.145 0 .09.172.163.373.128.518.128.136 0 .735-.128-.245.227-.454.39-.154.146-.154.346 0 .309.163.309.155 0 .708-.518.282-.136.563-.227-.817.745-1.634 1.108z" aria-label="龍" font-size="67.344" font-family="EPSON 太行書体Ｂ" letter-spacing="0" word-spacing="0" fill="red"/></svg>