<svg xmlns="http://www.w3.org/2000/svg" width="78" height="78" viewBox="0 0 20.637 20.637"><defs><clipPath clipPathUnits="userSpaceOnUse" id="a"><path d="M0 612.12h936.12V0H0" clip-rule="evenodd"/></clipPath><clipPath clipPathUnits="userSpaceOnUse" id="b"><path d="M0 0h936.12v612.12H0z" clip-rule="evenodd"/></clipPath></defs><path d="M65.597 27.07l-2.701 17.274-5.748 1.638-5.554-1.56L48.7 27.07zm-21.202.002l-2.701 17.271-5.748 1.638-5.556-1.56-2.892-17.35zM18.767.863l-2.7 17.273-5.748 1.638-5.555-1.56L1.87.864z" fill="#fd5" stroke="#deaa87" stroke-width=".353" stroke-linejoin="round" stroke-miterlimit="10"/><path d="M11.052 5.083l-.22 1.395-.468.13-.452-.124-.237-1.4z" fill-rule="evenodd"/><path style="line-height:normal;font-variant-ligatures:normal;font-variant-position:normal;font-variant-caps:normal;font-variant-numeric:normal;font-variant-alternates:normal;font-variant-east-asian:normal;font-feature-settings:normal;font-variation-settings:normal;text-indent:0;text-align:start;text-decoration-line:none;text-decoration-style:solid;text-decoration-color:#000;text-transform:none;text-orientation:mixed;white-space:normal;shape-padding:0;shape-margin:0;inline-size:0;isolation:auto;mix-blend-mode:normal;solid-color:#000;solid-opacity:1" d="M10.365 6.697a.088.088 0 00.022-.003l.47-.131a.088.088 0 00.063-.072l.22-1.394a.088.088 0 00-.088-.102H9.675a.088.088 0 00-.087.103l.237 1.4a.088.088 0 00.063.071l.452.125a.088.088 0 00.025.003zm-.001-.18l-.374-.103-.21-1.243h1.17l-.195 1.237zM7.313 9.454L9.15 7.616l-.654-.654-1.838 1.837zm4.873-4.876l1.797-1.837-.662-.648-1.797 1.838zm1.135 4.873l.661-.649-1.805-1.838-.66.65zM8.496 4.582l.654-.655L7.313 2.09l-.655.655z" color="#000" font-weight="400" font-family="sans-serif" overflow="visible"/><path d="M11.351 4.788l-.32 2.03-.682.191-.661-.183-.342-2.038z" fill-rule="evenodd"/><path d="M36.69 31.652l-.22 1.406-.474.133-.456-.127-.24-1.412z" fill="red" fill-rule="evenodd"/><path style="line-height:normal;font-variant-ligatures:normal;font-variant-position:normal;font-variant-caps:normal;font-variant-numeric:normal;font-variant-alternates:normal;font-variant-east-asian:normal;font-feature-settings:normal;font-variation-settings:normal;text-indent:0;text-align:start;text-decoration-line:none;text-decoration-style:solid;text-decoration-color:#000;text-transform:none;text-orientation:mixed;white-space:normal;shape-padding:0;shape-margin:0;inline-size:0;isolation:auto;mix-blend-mode:normal;solid-color:#000;solid-opacity:1" d="M35.997 33.28a.088.088 0 00.023-.004l.473-.133a.088.088 0 00.063-.071l.222-1.407a.088.088 0 00-.087-.102H35.3a.088.088 0 00-.087.103l.239 1.413a.088.088 0 00.063.07l.456.127a.088.088 0 00.025.003zm-.001-.18l-.379-.106-.212-1.254h1.183l-.197 1.248z" color="#000" font-weight="400" font-family="sans-serif" overflow="visible" fill="red"/><path d="M33.756 35.223a.616.616 0 11-1.232.003.616.616 0 011.232-.003zm5.664 0a.616.616 0 11-1.232.003.616.616 0 011.231-.003zm-5.664-5.706a.616.616 0 11-1.231 0 .616.616 0 011.23 0zm5.664 0a.616.616 0 11-1.232 0 .616.616 0 011.231 0z" fill="red" fill-rule="evenodd"/><path style="line-height:normal;font-variant-ligatures:normal;font-variant-position:normal;font-variant-caps:normal;font-variant-numeric:normal;font-variant-alternates:normal;font-variant-east-asian:normal;font-feature-settings:normal;font-variation-settings:normal;text-indent:0;text-align:start;text-decoration-line:none;text-decoration-style:solid;text-decoration-color:#000;text-transform:none;text-orientation:mixed;white-space:normal;shape-padding:0;shape-margin:0;inline-size:0;isolation:auto;mix-blend-mode:normal;solid-color:#000;solid-opacity:1" d="M36.459 36.335v-2.478h-.926v2.478zm-.029-5.448l.02-2.478-.926-.007-.02 2.478zm-1.923 1.985v-.927h-2.48v.927zm5.353.012l.005-.926-2.477-.013-.005.927z" color="#000" font-weight="400" font-family="sans-serif" overflow="visible" fill="red"/><path d="M36.919 31.26l-.32 2.028-.683.193-.658-.184-.345-2.037zm20.929-.59l-.215 1.367-.46.13-.446-.123-.233-1.375z" fill="red" fill-rule="evenodd"/><path style="line-height:normal;font-variant-ligatures:normal;font-variant-position:normal;font-variant-caps:normal;font-variant-numeric:normal;font-variant-alternates:normal;font-variant-east-asian:normal;font-feature-settings:normal;font-variation-settings:normal;text-indent:0;text-align:start;text-decoration-line:none;text-decoration-style:solid;text-decoration-color:#000;text-transform:none;text-orientation:mixed;white-space:normal;shape-padding:0;shape-margin:0;inline-size:0;isolation:auto;mix-blend-mode:normal;solid-color:#000;solid-opacity:1" d="M57.174 32.255a.088.088 0 00.022-.003l.46-.13a.088.088 0 00.064-.07l.215-1.369a.088.088 0 00-.087-.102h-1.354a.088.088 0 00-.086.103l.232 1.374a.088.088 0 00.063.07l.446.124a.088.088 0 00.025.003zm-.002-.18l-.367-.101-.206-1.217h1.146l-.19 1.211z" color="#000" font-weight="400" font-family="sans-serif" overflow="visible" fill="red"/><path d="M54.992 31.418a.6.6 0 11-1.2-.001.6.6 0 011.2.001zm5.511 0a.6.6 0 11-1.2-.001.6.6 0 011.2.001zm-2.741 2.726a.599.599 0 11-1.197.002.599.599 0 011.197-.002zm0-5.551a.598.598 0 11-1.199 0 .6.6 0 011.199 0z" fill="red" fill-rule="evenodd"/><g clip-path="url(#a)" transform="matrix(-.21519 0 0 .21519 124.925 12.766)" stroke-width="4.303" stroke-miterlimit="10"><path style="line-height:normal;font-variant-ligatures:normal;font-variant-position:normal;font-variant-caps:normal;font-variant-numeric:normal;font-variant-alternates:normal;font-variant-east-asian:normal;font-feature-settings:normal;font-variation-settings:normal;text-indent:0;text-align:start;text-decoration-line:none;text-decoration-style:solid;text-decoration-color:#000;text-transform:none;text-orientation:mixed;white-space:normal;shape-padding:0;shape-margin:0;inline-size:0;isolation:auto;mix-blend-mode:normal;solid-color:#000;solid-opacity:1" d="M323.111 91.645l-3.043 3.044 8.15 8.143 3.044-3.045z" color="#000" font-weight="400" font-family="sans-serif" overflow="visible" fill="red"/></g><path style="line-height:normal;font-variant-ligatures:normal;font-variant-position:normal;font-variant-caps:normal;font-variant-numeric:normal;font-variant-alternates:normal;font-variant-east-asian:normal;font-feature-settings:normal;font-variation-settings:normal;text-indent:0;text-align:start;text-decoration-line:none;text-decoration-style:solid;text-decoration-color:#000;text-transform:none;text-orientation:mixed;white-space:normal;shape-padding:0;shape-margin:0;inline-size:0;isolation:auto;mix-blend-mode:normal;solid-color:#000;solid-opacity:1" d="M58.945 30.245l1.713-1.753-.662-.647-1.713 1.753zm1.052 4.647l.66-.65-1.721-1.752-.66.65zm-4.603-4.642l.655-.655-1.754-1.754-.654.655z" color="#000" font-weight="400" font-family="sans-serif" overflow="visible" fill="red"/><path d="M58.151 30.258l-.32 2.028-.682.193-.661-.183-.342-2.038z" fill="red" fill-rule="evenodd"/><path d="M34.562 44.295l-.064.418q-.19-.1-.318-.227.191-.19.382-.19zm-.11.5q-.035.1-.035.163 0 .227.444.472.29.163.418.163.581-.108.581-.345 0-.181-.418-.463 0-.907.028-1.815.236-.118.236-.209 0-.218-.527-.272l-.971.1q.136-.2.417-.482.309-.145.618-.254l.109.073q.136.281.272.281.154 0 .154-.281 0-.155-.145-.6.209-2.305.209-2.423 0-.963-.608-1.362-.581-.39-2.134-.39-1.607 0-1.607.771 0 .29.327.463.608 1.49 1.562 2.115-.382-.553-.5-2.16.763-.182 1.462-.182.853 0 .853.3-.009.445-.363 2.151l-.445.128q.227-.6.227-.709 0-.154-.272-.281.354-.536.354-.708 0-.254-.735-.427.136-.163.317-.318-.354.037-.817.118-.345 0-.345.273 0 .145.146.308.2.2.372.2.281 0 .58.046l-.244.254q-.409.127-.409.4 0 .28.518.453l-.427.436q-.29.136-.29.327.036.3.462.354.146 0 .31-.11.326-.19.635-.335 0 .236.1.408-.31.155-1.063.246-.499.072-.499.29 0 .136.127.254-.254.182-.472.409-.272.127-.272.263 0 .164.163.327.327.327.572.327.19 0 .39-.21l1.053-.344q-.154.381-.236.763-.236-.1-.435-.1-1.253.109-1.253.58 0 .518.68.518.064 0 .155-.027.327 0 .672.073zm3.823-4.258q-.173.4-.89.663-.036-.536-.036-1.18.372-.318.79-.464-.173.264-.436.563-.327.173-.327.318.027.209.336.245.1 0 .563-.145zm.245-1.126q-.027.336-.1.654-.1-.018-.2-.018-.09 0-.227.009.173-.273.382-.545zm1.507 2.215q.136.082.2.082.172 0 .172-.136 0-.19-.19-.327-.4-.2-.609-.2-.345 0-1.28.572.772-1.08 1.026-3.05.163-.336.163-.445-.1-.935-.526-.935-.209 0-.29.154-.119.618-.137 1.643-.109-.163-.245-.163-.19 0-.962.726 0-.599.082-1.334.571.09 1.08.454-.318-.645-.935-1.226-.127-.39-.418-.39-.426 0-.672.944.118 2.033.118 2.306 0 .081-.063.544-.118.237-.118.364 0 .19.309.417.263.164.426.164.136 0 .726-.354-.181.408-.926.653l-.817.182q-.109.036-.109.272 0 .318.618.354.09 0 .426-.254l.808-.245q-.408.281-.862.526-.626.164-.626.364 0 .308.454.363.154 0 .38-.136l.328-.091q-.255.209-.98.49-.282.09-.282.254 0 .263.426.436 0 .454.246.69.217.218.517.218.862 0 .862-.282 0-.127-.39-.327l-.145-.108.744-.436-.953.118-.245-.018.209-.218 1.57-.509.445-.036q.09-.018.09-.145 0-.091-.172-.164-.372-.127-.517-.127-.136 0-.735.127.245-.227.454-.39.154-.145.154-.345 0-.309-.164-.309-.154 0-.708.518-.281.136-.563.227.818-.745 1.635-1.108z" aria-label="龍" font-size="67.344" font-family="EPSON 太行書体Ｂ" letter-spacing="0" word-spacing="0" fill="red" stroke-width="1.917"/><g clip-path="url(#b)" transform="matrix(-.25823 0 0 .25823 91.661 -48.816)" stroke-width="1.366"><path d="M327.64 246.959q-.105-.352-.879-1.02-.738-.634-.95-.985-.105-.915-.105-2.111 0-1.794.246-5.383.282-3.553.282-5.347 0-1.126-.141-2.463-.14-.176-1.02-2.216-.634-1.442-1.513-1.759-1.09.246-2.04 1.196-.563.774-1.76 2.216-.844.81-1.688 1.654-1.09 1.09-1.126 1.935 2.005-.88 3.624-.88.633 0 1.196.141.035 1.126.035 2.216 0 1.09-.035 2.217-2.392 1.125-4.68 1.125-5.065 0-10.06-2.533l-.599.176q-.246-4.784-.985-6.508-.316-.739-1.16-1.477-1.584.14-1.584 3.201 0 .739.74 5.488.738 4.784.703 7.81v.915l-1.126 1.829.14.317 1.408-.247q4.151.88 6.438 2.252 2.427 1.442 4.995 4.679-.492.422-1.09 1.23-6.403-5.24-8.83-5.487-1.09-.106-2.604-.106-1.442 0-2.075.528 6.156 2.427 10.8 8.091.07.247.07.493 0 .387-.14.774l.246.316q.633.212 1.196.212.915 0 2.287-.704 1.407-.704 1.759-1.478l-.774-1.055q.527-.352 2.497-.352.95 0 2.639-1.794-.07-1.266-.669-1.618-.633-.211-1.794-.633-1.9-.81-2.638-2.182 1.231.317 2.427.634 1.513.351 2.463.351.633 0 2.357-.844 1.477-.703 2.286-1.266.845-.563 1.232-1.548zm-5.804-1.83v1.865q-.281.668-1.442.668-1.583 0-4.68-.774.916-.633.775-1.301 1.477.316 1.935.316 1.512 0 3.412-.774zm-.176-5.206q-.035 2.11 0 3.764-.492-.668-1.618-.81h-2.674q-.985 0-1.548-.527l-.105-2.146q1.477.387 3.201.387 1.618 0 2.744-.668zm-8.97 4.503q0 .316-.423.809-.387.492-.457.774-3.026-1.231-4.925-1.724l.07-1.477h.176q1.302-.07 5.523 1.336.035.176.035.282zm.14-4.609v1.83q-.88-.247-1.759-.458-1.126-.352-1.653-.738-1.232.668-2.568 1.688 0-2.04-.211-4.186 3.236.88 6.191 1.864z" aria-label="角" font-weight="400" font-size="36.024" font-family="HakusyuKaisyoExtraBold_kk"/></g><path d="M57.713 37.226q-.063.146-.063.314-.564.657-.96.657-.2 0-.711-.292-.763-.48-1.139-.48.168-.251.46-.554.376-.083.574-.083 1.222 0 1.839.438zm.741 1.201q-.324.073-.95.345-.397.22-.637.668-1.18.303-2.747.303.083-1.034.49-1.88.053.45.345.71.366.272.899.272.94 0 1.347-.428.501-.272.877-.387.22.293.376.397zm.345 2.977q-.01.501-.084 1.013-.595-.22-.814-.22-.199 0-.345.022l.773-.554-.93.292v-.323q.71-.147 1.4-.23zm.052 2.11q-.376-.094-.553-.094-.199 0-.7.073.042-.126.042-.178 0-.104-.24-.188v-.22q.7-.198 1.273-.198.021.47.178.805zm.02-3.677q0 .22-.04 1.16-.659-.23-.815-.23-.168 0-.376.031.386-.292.97-.647-.47.052-1.21.365l.041-.418q1.17-.25 1.43-.26zm1.766-2.11q.125.544.25.544.272 0 .387-.272.199-.449.199-.741 0-.491-.262-.752-.428-.335-.793-.335-.397 0-.554.71-.167.377-.355.784-.146.167-.282.167-.178 0-.397-.407-.324-.45-.679-.45-.177 0-.313.126-.69-.909-1.849-1.504-.167-.355-.48-.355-.627 0-1.337.73-.637.711-1.128 2.946-.22.282-.22.47 0 .293.356.669.386.407.626.407.188 0 .46-.031 1.034-.042 2.413-.199l-.053.627q-.553.24-1.034.334-.428.094-.428.313 0 .366.7.502.146 0 .731-.178l-.052.428q-.418.147-.877.272-.408.115-.408.313 0 .324.596.376.135 0 .637-.073 0 .303.094.48-.888.105-1.379.21-.418.125-.418.365 0 .313.303.522.334.24.742.24.167 0 .501-.282 1.588-.438 2.6-.511.345.114.429.114.146 0 .146-.114 0-.063-.042-.168.418 0 .418-.177 0-.146-.261-.376 0-.564.157-1.744.135-.961.146-1.724 0-.417-.167-.814-.282-.439-.606-.439-.293 0-.439.418-.23-.084-.793-.084.313-.313.741-.553.146.02.23.02.167 0 .553-.448.533-.387 1.003-.585z" aria-label="馬" font-size="77.476" font-family="EPSON 太行書体Ｂ" letter-spacing="0" word-spacing="0" fill="red" stroke-width="1.917"/></svg>