<svg xmlns="http://www.w3.org/2000/svg" width="78" height="78" viewBox="0 0 20.637 20.637"><defs><clipPath clipPathUnits="userSpaceOnUse" id="a"><path d="M0 612.12h936.12V0H0" clip-rule="evenodd"/></clipPath><clipPath clipPathUnits="userSpaceOnUse" id="b"><path d="M0 0h936.12v612.12H0z" clip-rule="evenodd"/></clipPath><clipPath clipPathUnits="userSpaceOnUse" id="c"><path d="M0 0h936.12v612.12H0z" clip-rule="evenodd"/></clipPath><clipPath clipPathUnits="userSpaceOnUse" id="d"><path d="M0 0h936.12v612.12H0z" clip-rule="evenodd"/></clipPath><clipPath clipPathUnits="userSpaceOnUse" id="e"><path d="M0 0h936.12v612.12H0z" clip-rule="evenodd"/></clipPath><clipPath clipPathUnits="userSpaceOnUse" id="f"><path d="M0 0h936.12v612.12H0z" clip-rule="evenodd"/></clipPath><clipPath clipPathUnits="userSpaceOnUse" id="g"><path d="M0 0h936.12v612.12H0z" clip-rule="evenodd"/></clipPath><clipPath clipPathUnits="userSpaceOnUse" id="h"><path d="M0 0h936.12v612.12H0z" clip-rule="evenodd"/></clipPath><clipPath clipPathUnits="userSpaceOnUse" id="i"><path d="M0 0h936.12v612.12H0z" clip-rule="evenodd"/></clipPath><clipPath clipPathUnits="userSpaceOnUse" id="j"><path d="M0 0h936.12v612.12H0z" clip-rule="evenodd"/></clipPath></defs><path d="M61.716 73.284l-2.7 17.273-5.748 1.638-5.554-1.56-2.895-17.351zM19.444 72.98l-2.798 17.83-5.956 1.69-5.756-1.61-2.998-17.91zM40.514 73.285l-2.7 17.272-5.748 1.637-5.556-1.56-2.893-17.35zM40.536 49.48l-2.7 17.273-5.748 1.638-5.554-1.56-2.895-17.351zM61.971 49.48l-2.7 17.273-5.748 1.638-5.554-1.56-2.894-17.351zM42.643 24.613L40.04 41.327 34.5 42.913l-5.354-1.51-2.789-16.79zM83.34 49.587l-2.604 16.716-5.541 1.583-5.354-1.508-2.789-16.791zM17.485 1.779l-2.29 15.599-4.878 1.48-4.712-1.41-2.453-15.67zM63.438 23.686l-2.486 16.157-5.291 1.532-5.113-1.46-2.664-16.23zM84.307 24.367l-2.292 15.6-4.876 1.48-4.713-1.41-2.455-15.67zM105.49 1.589l-2.195 15.044-4.667 1.427-4.513-1.358-2.35-15.113zM105.538 24.892l-2.193 15.042-4.67 1.427-4.512-1.358-2.35-15.111z" fill="#fd5" stroke="#deaa87" stroke-width=".353" stroke-linejoin="round" stroke-miterlimit="10"/><path d="M32.835 54.279l-.222 1.407-.474.134-.458-.127-.237-1.414z" fill-rule="evenodd"/><path style="line-height:normal;font-variant-ligatures:normal;font-variant-position:normal;font-variant-caps:normal;font-variant-numeric:normal;font-variant-alternates:normal;font-variant-east-asian:normal;font-feature-settings:normal;font-variation-settings:normal;text-indent:0;text-align:start;text-decoration-line:none;text-decoration-style:solid;text-decoration-color:#000;text-transform:none;text-orientation:mixed;white-space:normal;shape-padding:0;shape-margin:0;inline-size:0;isolation:auto;mix-blend-mode:normal;solid-color:#000;solid-opacity:1" d="M32.141 55.908a.088.088 0 0 0 .022-.003l.474-.134a.088.088 0 0 0 .063-.071l.222-1.407a.088.088 0 0 0-.088-.102h-1.39a.088.088 0 0 0-.087.102l.237 1.414a.088.088 0 0 0 .064.07l.458.128a.088.088 0 0 0 .025.003zm-.002-.18l-.38-.105-.21-1.256h1.182l-.197 1.25zM32.603 58.964v-2.48h-.927v2.48zM32.572 53.515l.022-2.477-.926-.008-.022 2.477zM30.648 55.5v-.927H28.17v.926zM36.004 55.512l.005-.926-2.48-.013-.004.926z" color="#000" font-weight="400" font-family="sans-serif" overflow="visible"/><path d="M33.09 53.887l-.32 2.03-.682.19-.659-.182-.344-2.038zM54.257 53.7l-.22 1.394-.469.132-.452-.125-.236-1.401z" fill-rule="evenodd"/><path style="line-height:normal;font-variant-ligatures:normal;font-variant-position:normal;font-variant-caps:normal;font-variant-numeric:normal;font-variant-alternates:normal;font-variant-east-asian:normal;font-feature-settings:normal;font-variation-settings:normal;text-indent:0;text-align:start;text-decoration-line:none;text-decoration-style:solid;text-decoration-color:#000;text-transform:none;text-orientation:mixed;white-space:normal;shape-padding:0;shape-margin:0;inline-size:0;isolation:auto;mix-blend-mode:normal;solid-color:#000;solid-opacity:1" d="M53.57 55.314a.088.088 0 0 0 .022-.004l.47-.13a.088.088 0 0 0 .062-.072l.22-1.394a.088.088 0 0 0-.087-.102H52.88a.088.088 0 0 0-.087.103l.236 1.4a.088.088 0 0 0 .064.07l.452.126a.088.088 0 0 0 .025.003zm-.002-.18l-.374-.103-.21-1.243h1.17l-.195 1.237zM50.517 58.07l1.838-1.837-.655-.655-1.838 1.838zM55.39 53.195l1.797-1.838-.662-.647-1.797 1.838zM56.526 58.068l.66-.65-1.805-1.837-.66.65zM51.7 53.199l.655-.655-1.838-1.838-.655.655z" color="#000" font-weight="400" font-family="sans-serif" overflow="visible"/><path d="M54.556 53.405l-.32 2.03-.683.19-.66-.182-.343-2.038zM75.892 53.8l-.215 1.36-.456.13-.444-.123-.23-1.367z" fill-rule="evenodd"/><path d="M75.892 53.8l-.215 1.36-.456.13-.444-.123-.23-1.367z" fill="none"/><path d="M73.052 54.545a.596.596 0 1 1-1.192 0 .596.596 0 0 1 1.192 0z" fill-rule="evenodd"/><path d="M73.052 54.545a.596.596 0 1 1-1.192 0 .596.596 0 0 1 1.192 0z" fill="none"/><path d="M78.53 54.545a.596.596 0 1 1-1.192 0 .596.596 0 0 1 1.192 0z" fill-rule="evenodd"/><path d="M78.53 54.545a.596.596 0 1 1-1.192 0 .596.596 0 0 1 1.192 0z" fill="none"/><path d="M73.052 57.254a.596.596 0 1 1-1.192.001.596.596 0 0 1 1.192-.001z" fill-rule="evenodd"/><path d="M73.052 57.254a.596.596 0 1 1-1.192.001.596.596 0 0 1 1.192-.001z" fill="none"/><path d="M78.53 57.254a.596.596 0 1 1-1.192 0 .596.596 0 0 1 1.192 0z" fill-rule="evenodd"/><path d="M78.53 57.254a.596.596 0 1 1-1.192 0 .596.596 0 0 1 1.192 0z" fill="none"/><path d="M75.808 57.254a.596.596 0 1 1-1.192 0 .596.596 0 0 1 1.192 0z" fill-rule="evenodd"/><path d="M75.808 57.254a.596.596 0 1 1-1.192 0 .596.596 0 0 1 1.192 0z" fill="none"/><path d="M75.808 51.737c0 .329-.267.593-.596.593a.594.594 0 1 1 0-1.19c.33 0 .596.267.596.597z" fill-rule="evenodd"/><path d="M75.808 51.737c0 .329-.267.593-.596.593a.594.594 0 1 1 0-1.19c.33 0 .596.267.596.597z" fill="none"/><path d="M76.198 53.512l-.321 2.03-.682.19-.659-.182-.344-2.038z" fill-rule="evenodd"/><path d="M76.198 53.512l-.321 2.03-.682.19-.659-.182-.344-2.038z" fill="none"/><path d="M11.236 3.143l-.273 1.732-.581.164-.564-.155-.292-1.741z" fill-rule="evenodd"/><path d="M11.236 3.143l-.273 1.732-.581.164-.564-.155-.292-1.741z" fill="none"/><path style="line-height:normal;font-variant-ligatures:normal;font-variant-position:normal;font-variant-caps:normal;font-variant-numeric:normal;font-variant-alternates:normal;font-variant-east-asian:normal;font-feature-settings:normal;font-variation-settings:normal;text-indent:0;text-align:start;text-decoration-line:none;text-decoration-style:solid;text-decoration-color:#000;text-transform:none;text-orientation:mixed;white-space:normal;shape-padding:0;shape-margin:0;inline-size:0;isolation:auto;mix-blend-mode:normal;solid-color:#000;solid-opacity:1" d="M10.845 8.908v-3.05H9.92v3.05z" color="#000" font-weight="400" font-family="sans-serif" overflow="visible"/><path d="M11.32 2.876L11 4.903l-.683.194-.658-.183-.342-2.038z" fill-rule="evenodd"/><path d="M11.32 2.876L11 4.903l-.683.194-.658-.183-.342-2.038z" fill="none"/><path d="M99.234 4.137l-.193 1.231-.413.116-.4-.112-.21-1.235z" fill-rule="evenodd"/><path d="M99.234 4.137l-.193 1.231-.413.116-.4-.112-.21-1.235z" fill="none"/><path d="M99.157 7.26a.538.538 0 1 1-1.076 0 .538.538 0 0 1 1.076 0z" fill-rule="evenodd"/><path d="M99.157 7.26a.538.538 0 1 1-1.076 0 .538.538 0 0 1 1.076 0z" fill="none"/><path d="M99.63 3.7l-.32 2.03-.682.191-.661-.183-.342-2.038z" fill-rule="evenodd"/><path d="M99.63 3.7l-.32 2.03-.682.191-.661-.183-.342-2.038z" fill="none"/><path d="M11.717 76.827l-.32 2.027-.683.194-.658-.183-.345-2.038z" fill-rule="evenodd"/><path d="M11.717 76.827l-.32 2.027-.683.194-.658-.183-.345-2.038z" fill="none"/><path d="M8.547 77.938a.596.596 0 1 1-1.192 0 .596.596 0 0 1 1.192 0z" fill-rule="evenodd"/><path d="M8.547 77.938a.596.596 0 1 1-1.192 0 .596.596 0 0 1 1.192 0z" fill="none"/><path d="M14.025 77.938a.596.596 0 1 1-1.192 0 .596.596 0 0 1 1.192 0z" fill-rule="evenodd"/><path d="M14.025 77.938a.596.596 0 1 1-1.192 0 .596.596 0 0 1 1.192 0z" fill="none"/><path d="M8.547 80.647a.596.596 0 1 1-1.192 0 .596.596 0 0 1 1.192 0z" fill-rule="evenodd"/><path d="M8.547 80.647a.596.596 0 1 1-1.192 0 .596.596 0 0 1 1.192 0z" fill="none"/><path d="M14.025 80.647a.596.596 0 1 1-1.192 0 .596.596 0 0 1 1.192 0z" fill-rule="evenodd"/><path d="M14.025 80.647a.596.596 0 1 1-1.192 0 .596.596 0 0 1 1.192 0z" fill="none"/><path d="M11.302 80.647a.596.596 0 1 1-1.193 0 .596.596 0 0 1 1.193 0z" fill-rule="evenodd"/><path d="M11.302 80.647a.596.596 0 1 1-1.193 0 .596.596 0 0 1 1.193 0z" fill="none"/><path d="M8.547 75.13c0 .329-.267.593-.596.593a.594.594 0 1 1 0-1.19c.33 0 .596.267.596.596z" fill-rule="evenodd"/><path d="M8.547 75.13c0 .329-.267.593-.596.593a.594.594 0 1 1 0-1.19c.33 0 .596.267.596.596z" fill="none"/><path d="M14.025 75.13c0 .329-.267.593-.596.593a.594.594 0 1 1 0-1.19c.33 0 .596.267.596.596z" fill-rule="evenodd"/><path d="M14.025 75.13c0 .329-.267.593-.596.593a.594.594 0 1 1 0-1.19c.33 0 .596.267.596.596z" fill="none"/><path d="M11.302 75.13a.594.594 0 1 1-1.189-.001.594.594 0 0 1 1.189 0z" fill-rule="evenodd"/><path d="M11.302 75.13a.594.594 0 1 1-1.189-.001.594.594 0 0 1 1.189 0z" fill="none"/><path d="M11.747 76.778l-.32 2.027-.683.194-.66-.183-.343-2.038z" fill-rule="evenodd"/><path d="M11.747 76.778l-.32 2.027-.683.194-.66-.183-.343-2.038z" fill="none"/><path d="M32.81 77.865l-.221 1.406-.474.133-.456-.127-.239-1.412z" fill="red" fill-rule="evenodd"/><path style="line-height:normal;font-variant-ligatures:normal;font-variant-position:normal;font-variant-caps:normal;font-variant-numeric:normal;font-variant-alternates:normal;font-variant-east-asian:normal;font-feature-settings:normal;font-variation-settings:normal;text-indent:0;text-align:start;text-decoration-line:none;text-decoration-style:solid;text-decoration-color:#000;text-transform:none;text-orientation:mixed;white-space:normal;shape-padding:0;shape-margin:0;inline-size:0;isolation:auto;mix-blend-mode:normal;solid-color:#000;solid-opacity:1" d="M32.117 79.492a.088.088 0 0 0 .022-.003l.474-.133a.088.088 0 0 0 .063-.071l.221-1.407a.088.088 0 0 0-.087-.102h-1.39a.088.088 0 0 0-.087.103l.24 1.413a.088.088 0 0 0 .062.07l.457.127a.088.088 0 0 0 .025.003zm-.002-.18l-.378-.105-.213-1.254h1.183L32.51 79.2z" color="#000" font-weight="400" font-family="sans-serif" overflow="visible" fill="red"/><path d="M29.875 81.436a.616.616 0 1 1-1.231.003.616.616 0 0 1 1.231-.003zM35.539 81.436a.616.616 0 1 1-1.232.003.616.616 0 0 1 1.232-.003zM29.875 75.73a.616.616 0 1 1-1.231 0 .616.616 0 0 1 1.231 0zM35.539 75.73a.616.616 0 1 1-1.231 0 .616.616 0 0 1 1.23 0z" fill="red" fill-rule="evenodd"/><path style="line-height:normal;font-variant-ligatures:normal;font-variant-position:normal;font-variant-caps:normal;font-variant-numeric:normal;font-variant-alternates:normal;font-variant-east-asian:normal;font-feature-settings:normal;font-variation-settings:normal;text-indent:0;text-align:start;text-decoration-line:none;text-decoration-style:solid;text-decoration-color:#000;text-transform:none;text-orientation:mixed;white-space:normal;shape-padding:0;shape-margin:0;inline-size:0;isolation:auto;mix-blend-mode:normal;solid-color:#000;solid-opacity:1" d="M32.578 82.548V80.07h-.926v2.478zM32.55 77.1l.02-2.478-.926-.007-.02 2.478zM30.626 79.085v-.927h-2.479v.927zM35.98 79.097l.005-.926-2.477-.013-.005.927z" color="#000" font-weight="400" font-family="sans-serif" overflow="visible" fill="red"/><path d="M33.038 77.473l-.32 2.028-.682.193-.659-.183-.344-2.038zM35.156 27.54l-.215 1.36-.458.13-.441-.123-.23-1.367z" fill="red" fill-rule="evenodd"/><path d="M35.156 27.54l-.215 1.36-.458.13-.441-.123-.23-1.367z" fill="none"/><path d="M32.316 28.285a.596.596 0 1 1-1.192 0 .596.596 0 0 1 1.192 0z" fill="red" fill-rule="evenodd"/><path d="M32.316 28.285a.596.596 0 1 1-1.192 0 .596.596 0 0 1 1.192 0z" fill="none"/><path d="M37.792 28.285a.594.594 0 1 1-1.19 0 .596.596 0 0 1 1.19 0z" fill="red" fill-rule="evenodd"/><path d="M37.792 28.285a.594.594 0 1 1-1.19 0 .596.596 0 0 1 1.19 0z" fill="none"/><path d="M32.316 30.995a.596.596 0 1 1-1.192-.001.596.596 0 0 1 1.192 0z" fill="red" fill-rule="evenodd"/><path d="M32.316 30.995a.596.596 0 1 1-1.192-.001.596.596 0 0 1 1.192 0z" fill="none"/><path d="M37.792 30.995a.594.594 0 1 1-1.19 0 .596.596 0 0 1 1.19 0z" fill="red" fill-rule="evenodd"/><path d="M37.792 30.995a.594.594 0 1 1-1.19 0 .596.596 0 0 1 1.19 0z" fill="none"/><path d="M35.07 30.995a.596.596 0 1 1-1.192-.001.596.596 0 0 1 1.192 0z" fill="red" fill-rule="evenodd"/><path d="M35.07 30.995a.596.596 0 1 1-1.192-.001.596.596 0 0 1 1.192 0z" fill="none"/><path d="M35.07 25.476a.596.596 0 1 1-1.191 0 .596.596 0 0 1 1.191 0z" fill="red" fill-rule="evenodd"/><path d="M35.07 25.476a.596.596 0 1 1-1.191 0 .596.596 0 0 1 1.191 0z" fill="none"/><path d="M35.473 27.146l-.319 2.028-.684.192-.659-.183-.342-2.037z" fill="red" fill-rule="evenodd"/><path d="M35.473 27.146l-.319 2.028-.684.192-.659-.183-.342-2.037z" fill="none"/><path d="M56.358 27.143l-.215 1.36-.459.129-.44-.123-.231-1.366z" fill="red" fill-rule="evenodd"/><path d="M56.358 27.143l-.215 1.36-.459.129-.44-.123-.231-1.366z" fill="none"/><path d="M53.517 27.887a.596.596 0 1 1-1.191 0 .596.596 0 0 1 1.191 0z" fill="red" fill-rule="evenodd"/><path d="M53.517 27.887a.596.596 0 1 1-1.191 0 .596.596 0 0 1 1.191 0z" fill="none"/><path d="M58.996 27.887a.596.596 0 1 1-1.192 0 .596.596 0 0 1 1.192 0z" fill="red" fill-rule="evenodd"/><path d="M58.996 27.887a.596.596 0 1 1-1.192 0 .596.596 0 0 1 1.192 0z" fill="none"/><path d="M53.517 30.597a.596.596 0 1 1-1.192 0 .596.596 0 0 1 1.192 0z" fill="red" fill-rule="evenodd"/><path d="M53.517 30.597a.596.596 0 1 1-1.192 0 .596.596 0 0 1 1.192 0z" fill="none"/><path d="M58.996 30.597a.596.596 0 1 1-1.192 0 .596.596 0 0 1 1.192 0z" fill="red" fill-rule="evenodd"/><path d="M58.996 30.597a.596.596 0 1 1-1.192 0 .596.596 0 0 1 1.192 0z" fill="none"/><path d="M56.272 30.597a.596.596 0 1 1-1.192 0 .596.596 0 0 1 1.192 0z" fill="red" fill-rule="evenodd"/><path d="M56.272 30.597a.596.596 0 1 1-1.192 0 .596.596 0 0 1 1.192 0z" fill="none"/><path d="M56.272 25.079a.596.596 0 1 1-1.192 0 .596.596 0 0 1 1.192 0z" fill="red" fill-rule="evenodd"/><path d="M56.272 25.079a.596.596 0 1 1-1.192 0 .596.596 0 0 1 1.192 0z" fill="none"/><path d="M56.663 26.728l-.32 2.028-.682.192-.659-.183-.344-2.037z" fill="red" fill-rule="evenodd"/><path d="M56.663 26.728l-.32 2.028-.682.192-.659-.183-.344-2.037z" fill="none"/><path d="M77.836 27.824l-.215 1.36-.459.13-.44-.124-.231-1.366z" fill="red" fill-rule="evenodd"/><path d="M77.836 27.824l-.215 1.36-.459.13-.44-.124-.231-1.366z" fill="none"/><path d="M74.995 28.569a.596.596 0 1 1-1.191 0 .596.596 0 0 1 1.191 0z" fill="red" fill-rule="evenodd"/><path d="M74.995 28.569a.596.596 0 1 1-1.191 0 .596.596 0 0 1 1.191 0z" fill="none"/><path d="M80.474 28.569a.596.596 0 1 1-1.191 0 .596.596 0 0 1 1.191 0z" fill="red" fill-rule="evenodd"/><path d="M80.474 28.569a.596.596 0 1 1-1.191 0 .596.596 0 0 1 1.191 0z" fill="none"/><path d="M74.995 31.278a.596.596 0 1 1-1.191 0 .596.596 0 0 1 1.191 0z" fill="red" fill-rule="evenodd"/><path d="M74.995 31.278a.596.596 0 1 1-1.191 0 .596.596 0 0 1 1.191 0z" fill="none"/><path d="M80.474 31.278a.596.596 0 1 1-1.192 0 .596.596 0 0 1 1.192 0z" fill="red" fill-rule="evenodd"/><path d="M80.474 31.278a.596.596 0 1 1-1.192 0 .596.596 0 0 1 1.192 0z" fill="none"/><path d="M77.75 31.278a.596.596 0 1 1-1.192 0 .596.596 0 0 1 1.192 0z" fill="red" fill-rule="evenodd"/><path d="M77.75 31.278a.596.596 0 1 1-1.192 0 .596.596 0 0 1 1.192 0z" fill="none"/><path d="M77.75 25.76a.596.596 0 1 1-1.192 0 .596.596 0 0 1 1.192 0z" fill="red" fill-rule="evenodd"/><path d="M77.75 25.76a.596.596 0 1 1-1.192 0 .596.596 0 0 1 1.192 0z" fill="none"/><path d="M78.111 27.409l-.32 2.028-.682.192-.659-.183-.342-2.037z" fill="red" fill-rule="evenodd"/><path d="M78.111 27.409l-.32 2.028-.682.192-.659-.183-.342-2.037z" fill="none"/><path d="M99.373 28.349l-.215 1.36-.459.129-.44-.123-.231-1.366z" fill="red" fill-rule="evenodd"/><path d="M99.373 28.349l-.215 1.36-.459.129-.44-.123-.231-1.366z" fill="none"/><path d="M96.532 29.093a.596.596 0 1 1-1.191 0 .596.596 0 0 1 1.191 0z" fill="red" fill-rule="evenodd"/><path d="M96.532 29.093a.596.596 0 1 1-1.191 0 .596.596 0 0 1 1.191 0z" fill="none"/><path d="M102.011 29.093a.596.596 0 1 1-1.192 0 .596.596 0 0 1 1.192 0z" fill="red" fill-rule="evenodd"/><path d="M102.011 29.093a.596.596 0 1 1-1.192 0 .596.596 0 0 1 1.192 0z" fill="none"/><path d="M96.532 31.803a.596.596 0 1 1-1.192 0 .596.596 0 0 1 1.192 0z" fill="red" fill-rule="evenodd"/><path d="M96.532 31.803a.596.596 0 1 1-1.192 0 .596.596 0 0 1 1.192 0z" fill="none"/><path d="M102.011 31.803a.596.596 0 1 1-1.192 0 .596.596 0 0 1 1.192 0z" fill="red" fill-rule="evenodd"/><path d="M102.011 31.803a.596.596 0 1 1-1.192 0 .596.596 0 0 1 1.192 0z" fill="none"/><path d="M99.287 31.803a.596.596 0 1 1-1.192 0 .596.596 0 0 1 1.192 0z" fill="red" fill-rule="evenodd"/><path d="M99.287 31.803a.596.596 0 1 1-1.192 0 .596.596 0 0 1 1.192 0z" fill="none"/><path d="M99.287 26.285a.596.596 0 1 1-1.192 0 .596.596 0 0 1 1.192 0z" fill="red" fill-rule="evenodd"/><path d="M99.287 26.285a.596.596 0 1 1-1.192 0 .596.596 0 0 1 1.192 0z" fill="none"/><path d="M99.65 27.934l-.32 2.028-.682.192-.661-.183-.342-2.037z" fill="red" fill-rule="evenodd"/><path d="M99.65 27.934l-.32 2.028-.682.192-.661-.183-.342-2.037z" fill="none"/><path d="M53.968 76.882l-.216 1.369-.46.13-.446-.124-.232-1.375z" fill="red" fill-rule="evenodd"/><path style="line-height:normal;font-variant-ligatures:normal;font-variant-position:normal;font-variant-caps:normal;font-variant-numeric:normal;font-variant-alternates:normal;font-variant-east-asian:normal;font-feature-settings:normal;font-variation-settings:normal;text-indent:0;text-align:start;text-decoration-line:none;text-decoration-style:solid;text-decoration-color:#000;text-transform:none;text-orientation:mixed;white-space:normal;shape-padding:0;shape-margin:0;inline-size:0;isolation:auto;mix-blend-mode:normal;solid-color:#000;solid-opacity:1" d="M53.293 78.468a.088.088 0 0 0 .023-.003l.46-.13a.088.088 0 0 0 .063-.07l.216-1.369a.088.088 0 0 0-.088-.102h-1.353a.088.088 0 0 0-.087.103l.232 1.374a.088.088 0 0 0 .064.07l.445.124a.088.088 0 0 0 .025.003zm-.001-.18l-.368-.101-.206-1.217h1.146l-.19 1.211z" color="#000" font-weight="400" font-family="sans-serif" overflow="visible" fill="red"/><path d="M51.112 77.631a.6.6 0 1 1-1.2-.001.6.6 0 0 1 1.2.001zM56.623 77.631a.6.6 0 1 1-1.2-.001.6.6 0 0 1 1.2.001zM53.881 80.357a.599.599 0 1 1-1.197.002.599.599 0 0 1 1.197-.002zM53.881 74.806a.598.598 0 1 1-1.198 0 .6.6 0 0 1 1.198 0z" fill="red" fill-rule="evenodd"/><g clip-path="url(#a)" transform="matrix(-.21519 0 0 .21519 121.045 58.98)" stroke-width="4.303" stroke-miterlimit="10"><path style="line-height:normal;font-variant-ligatures:normal;font-variant-position:normal;font-variant-caps:normal;font-variant-numeric:normal;font-variant-alternates:normal;font-variant-east-asian:normal;font-feature-settings:normal;font-variation-settings:normal;text-indent:0;text-align:start;text-decoration-line:none;text-decoration-style:solid;text-decoration-color:#000;text-transform:none;text-orientation:mixed;white-space:normal;shape-padding:0;shape-margin:0;inline-size:0;isolation:auto;mix-blend-mode:normal;solid-color:#000;solid-opacity:1" d="M323.111 91.645l-3.043 3.044 8.15 8.143 3.044-3.045z" color="#000" font-weight="400" font-family="sans-serif" overflow="visible" fill="red"/></g><path style="line-height:normal;font-variant-ligatures:normal;font-variant-position:normal;font-variant-caps:normal;font-variant-numeric:normal;font-variant-alternates:normal;font-variant-east-asian:normal;font-feature-settings:normal;font-variation-settings:normal;text-indent:0;text-align:start;text-decoration-line:none;text-decoration-style:solid;text-decoration-color:#000;text-transform:none;text-orientation:mixed;white-space:normal;shape-padding:0;shape-margin:0;inline-size:0;isolation:auto;mix-blend-mode:normal;solid-color:#000;solid-opacity:1" d="M55.065 76.458l1.713-1.753-.663-.647-1.713 1.753zM56.116 81.105l.66-.65-1.72-1.752-.661.65zM51.514 76.463l.655-.655-1.754-1.754-.655.655z" color="#000" font-weight="400" font-family="sans-serif" overflow="visible" fill="red"/><path d="M54.27 76.471l-.32 2.028-.682.193-.66-.183-.343-2.038z" fill="red" fill-rule="evenodd"/><g clip-path="url(#b)" transform="matrix(-.25823 0 0 .25823 39.634 23.163)" stroke-width="1.366"><path d="M117.553 264.689l4.777-.775q.086-.215.817-.818.732-.559.86-1.29-.602-1.076-2.366-1.507-.602-.129-2.926-.3-.688-.044-3.012-.56-2.28-.474-2.926-.689-1.205-.387-2.066-.99 1.291-.602 2.54-1.161 1.376-.689 1.72-2.152l-.172-.817q-.86-.043-1.119-.775-.129-.344-.129-1.463-.043-.172-.086-.56-.043-.344-.043-.516l.13-1.033q.387 0 1.678.13 1.032.086 1.678.086 2.84 0 4.303-2.066v-1.248l-.947-.602-1.807.387q-.517.13-2.453-.387-1.893-.517-2.453-.99l-.258-1.033.258-1.033-.774-7.66q8.864.345 9.165.345 1.377 0 3.27-.56 1.937-.559 2.755-1.247.086-.086 1.205-1.248.903-1.033.903-1.55 0-.472-.645-.989-.646-.56-1.033-.43-4.432 1.549-5.164 1.764-3.098.904-5.422.904-4.518 0-10.886-1.377-.56-.086-1.55-.646-.946-.56-1.463-.688-1.463-.344-1.72-.474-.862-.387-1.077-1.247l-1.592-.603q-1.076.215-2.151 1.463-1.033 1.248-1.679 1.463l-.56 1.291.302.215q.172-.043.603-.172.473-.129.688-.129.13 0 3.443 1.033 3.657 1.119 4.82 1.42 2.796.731 4.948.904-.86 1.72-.86 5.378v.56q0 2.237-.216 3.442l-2.023-.172q-1.979.474-5.508 1.98l.947-.086q.86 0 6.971 2.022.258 7.96.258 7.315 0 1.55-1.42 2.109-.56-.13-2.151-.172-1.334 0-1.85-.215-2.281.99-5.423 3.614l1.937-.215q1.592 0 8.821 2.023 4.303 1.204 8.133 2.797z" aria-label="王" font-weight="400" font-size="44.064" font-family="HakusyuKaisyo"/></g><path d="M30.681 90.508l-.063.418q-.19-.1-.318-.227.19-.19.381-.19zm-.109.5q-.036.1-.036.163 0 .227.445.472.29.163.417.163.582-.108.582-.345 0-.181-.418-.463 0-.907.027-1.815.236-.118.236-.209 0-.218-.526-.272l-.972.1q.136-.2.418-.482.309-.145.617-.254l.11.073q.135.281.271.281.155 0 .155-.281 0-.155-.145-.6.208-2.305.208-2.423 0-.963-.608-1.362-.58-.39-2.133-.39-1.607 0-1.607.771 0 .29.327.463.608 1.49 1.561 2.116-.381-.554-.5-2.161.763-.182 1.462-.182.854 0 .854.3-.01.445-.363 2.151l-.445.128q.227-.6.227-.709 0-.154-.273-.281.354-.536.354-.708 0-.254-.735-.427.136-.163.318-.318-.354.037-.817.118-.345 0-.345.273 0 .145.145.308.2.2.372.2.282 0 .581.046l-.245.254q-.408.127-.408.4 0 .28.517.453l-.427.436q-.29.136-.29.327.036.3.463.354.145 0 .309-.11.326-.19.635-.335 0 .236.1.408-.309.155-1.062.246-.5.072-.5.29 0 .136.128.254-.255.182-.472.409-.273.127-.273.263 0 .164.164.327.326.327.572.327.19 0 .39-.21l1.053-.344q-.154.381-.236.763-.236-.1-.436-.1-1.253.109-1.253.58 0 .518.681.518.064 0 .155-.027.326 0 .671.073zm3.822-4.258q-.172.4-.89.663-.036-.536-.036-1.18.373-.318.79-.464-.172.264-.436.563-.326.173-.326.318.027.209.335.245.1 0 .563-.145zm.245-1.126q-.027.336-.1.654-.1-.018-.2-.018-.09 0-.226.009.172-.273.381-.545zm1.507 2.215q.137.082.2.082.173 0 .173-.136 0-.19-.191-.327-.4-.2-.608-.2-.345 0-1.28.572.771-1.08 1.026-3.05.163-.336.163-.445-.1-.935-.527-.935-.208 0-.29.154-.118.618-.136 1.643-.11-.163-.245-.163-.191 0-.963.726 0-.599.082-1.334.572.09 1.08.454-.317-.645-.935-1.226-.127-.39-.417-.39-.427 0-.672.944.118 2.033.118 2.306 0 .081-.064.544-.118.237-.118.364 0 .19.309.417.263.164.427.164.136 0 .726-.354-.182.408-.926.653l-.817.182q-.109.036-.109.272 0 .318.617.354.091 0 .427-.254l.808-.245q-.409.281-.862.526-.627.164-.627.364 0 .308.454.363.154 0 .381-.136l.327-.091q-.254.209-.98.49-.282.09-.282.254 0 .263.427.436 0 .454.245.69.218.218.518.218.862 0 .862-.282 0-.127-.39-.327l-.146-.108.745-.436-.953.118-.246-.018.21-.218 1.57-.509.445-.036q.09-.018.09-.145 0-.091-.172-.164-.372-.127-.518-.127-.136 0-.735.127.245-.227.454-.39.154-.145.154-.345 0-.309-.163-.309-.154 0-.708.518-.282.136-.563.227.817-.745 1.634-1.108z" aria-label="龍" font-size="67.344" font-family="EPSON 太行書体Ｂ" letter-spacing="0" word-spacing="0" fill="red" stroke-width="1.917"/><g clip-path="url(#c)" transform="matrix(-.25823 0 0 .25823 87.003 -.385)" stroke-width="1.366"><path d="M224.17 257.953q0-1.617-2.954-1.617-.843 0-1.582.703-1.23 1.16-1.265 1.196l.035.21q2.285.704 3.762.704 2.004 0 2.004-1.196zm-.88-4.043q0-.175-.035-.351-.703-.492-1.722-.492-2.18 0-3.27 1.582V255q1.934.317 3.094.317 1.934 0 1.934-1.407zm6.012-20.425q0-.95-.632-1.477-.633-.563-1.618-.563-.879 0-2.707.668-1.617.598-2.601 1.16-2.813 1.653-4.324 4.887-1.336 2.953-1.336 6.504 0 .809.07 1.582-.984-.351-2.25-.914v-2.46q.035-4.395-.176-6.364-.457-4.465-2.11-5.52-.984 3.48-.984 10.301 0 2.145-.07 2.848-1.547-.668-2.953-1.442-.387-4.464-2.918-7.418-2.742-3.164-7.066-3.375l-.317.176q2.11 1.301 4.29 4.008 2.425 3.024 2.6 5.168-3.163-1.3-3.55-2.355-.105-.036-.176-.036-.668 0-1.09 1.407-.351 1.054-.351 1.933 0 .317.281 1.301l.246.246.95-.808q2.003.878 3.937 1.652v.316q.07 1.477-1.3 2.707-1.618-1.054-3.376-1.125 3.621 3.34 5.379 6.434l-1.125.703.035.316 2.426.633q2.46-.246 3.094-1.793-.492-.879-2.145-2.144-1.23-.985-2.496-1.934 2.215-.422 2.637-2.953 1.476.703 3.199 1.266l.035 1.968q.035 4.22-.351 5.204-.176.351-.563.843-.562.668-.633.809l-.035.492 2.11.563q2.18-.317 3.48-2.215-.281-.528-.668-1.617-.352-1.09-.281-3.938v-.738q.808.281 2.39.844.387.21.809.421.457.211.879.176-2.285 1.688-2.285 6.328l.105 2.918q-.773-.21-5.027-1.863-4.078-1.582-4.149-1.582-1.054 0-2.847 3.234l.351.282q.844-.211 1.582-.211.422 0 11.11 3.832.984-.07 2.918-.844.21-.738.21-1.09 0-.633-.562-.95-.808-.421-1.055-.737-.562-.774-.562-2.496 0-2.461 1.195-4.079 1.301-1.757 3.692-1.863 1.265.422 1.336 4.254.457-.492.914-1.547.632-1.547.738-1.652.492-.668 1.406-2.004.317-.527.317-1.055 0-.21-.07-.457-1.055-.668-2.778-.668-2.215 0-4.465.844-.21-.633-.21-1.266-.915-.316-.915-1.968 0-.95.176-1.899l2.004 2.074-.738.598-.141.246h.14q1.126-.035 2.602.633 1.688-.387 1.688-1.828 0-.387-.282-.598-.07-.07-1.441-.387-1.336-.316-2.918-1.37 2.25-.176 3.129-.493 1.863-.633 1.863-2.18 0-.914-.95-1.23-.878.07-2.284 1.02-1.055.808-2.11 1.582 1.618-3.551 5.766-5.028 1.09 1.336 1.547 7.313.808-1.266 1.125-3.305l.562-3.445q.668-2.989.668-3.41z" aria-label="飛" font-weight="400" font-size="36" font-family="HakusyuKaisyoExtraBold_kk"/></g><g clip-path="url(#d)" transform="matrix(-.25823 0 0 .25823 134.866 -.2)" stroke-width="1.366"><path d="M327.64 246.959q-.105-.352-.879-1.02-.738-.634-.95-.985-.105-.915-.105-2.111 0-1.794.246-5.383.282-3.553.282-5.347 0-1.126-.141-2.463-.14-.176-1.02-2.216-.634-1.442-1.513-1.759-1.09.246-2.04 1.196-.563.774-1.76 2.216-.844.81-1.688 1.654-1.09 1.09-1.126 1.935 2.005-.88 3.624-.88.633 0 1.196.141.035 1.126.035 2.216 0 1.09-.035 2.217-2.392 1.125-4.68 1.125-5.065 0-10.06-2.533l-.599.176q-.246-4.784-.985-6.508-.316-.739-1.16-1.477-1.584.14-1.584 3.201 0 .739.74 5.488.738 4.784.703 7.81v.915l-1.126 1.829.14.317 1.408-.247q4.151.88 6.438 2.252 2.427 1.442 4.995 4.679-.492.422-1.09 1.23-6.403-5.24-8.83-5.487-1.09-.106-2.604-.106-1.442 0-2.075.528 6.156 2.427 10.8 8.091.07.247.07.493 0 .387-.14.774l.246.316q.633.212 1.196.212.915 0 2.287-.704 1.407-.704 1.759-1.478l-.774-1.055q.527-.352 2.497-.352.95 0 2.639-1.794-.07-1.266-.669-1.618-.633-.211-1.794-.633-1.9-.81-2.638-2.182 1.231.317 2.427.634 1.513.351 2.463.351.633 0 2.357-.844 1.477-.703 2.286-1.266.845-.563 1.232-1.548zm-5.804-1.83v1.865q-.281.668-1.442.668-1.583 0-4.68-.774.916-.633.775-1.301 1.477.316 1.935.316 1.512 0 3.412-.774zm-.176-5.206q-.035 2.11 0 3.764-.492-.668-1.618-.81h-2.674q-.985 0-1.548-.527l-.105-2.146q1.477.387 3.201.387 1.618 0 2.744-.668zm-8.97 4.503q0 .316-.423.809-.387.492-.457.774-3.026-1.231-4.925-1.724l.07-1.477h.176q1.302-.07 5.523 1.336.035.176.035.282zm.14-4.609v1.83q-.88-.247-1.759-.458-1.126-.352-1.653-.738-1.232.668-2.568 1.688 0-2.04-.211-4.186 3.236.88 6.191 1.864z" aria-label="角" font-weight="400" font-size="36.024" font-family="HakusyuKaisyoExtraBold_kk"/></g><path d="M36.284 33.118l-.493.28-.172-.162zm0 1.255q0 .14-.922.504l.022-.418q.128-.215.353-.397.547.161.547.311zm3.603.89q0-.096-.246-.096-.58 0-1.566.61-.375.269-1.19 1.127-.418-.526-1.073-.526-.182 0-.579.065.054-.28.086-.6 1.544-.644 1.544-.998 0-.515-.75-1.126.568-.429 1.018-.611.204-.043.504-.065.3-.042.3-.29 0-.278-.321-.45-.257-.139-.504-.139-.268 0-1.426.279-.837.16-1.448.16-1.115 0-2.37-.096-.557 0-.557.547 0 .3.225.504.6.429.944.429.278 0 .718-.482.933-.14 1.394-.183l-.01.987q-.44.44-.923.847-.279.14-.279.343 0 .418 1.04.676-.075.29-.375.568-.858.214-.858.59 0 .343.268.504.419.203.708.203.193 0 .536-.396 1.083-.472 1.941-.494-.868 1.03-1.823 2.252-1.212-.965-2.37-2.252-.74-.782-1.072-.89-.633-.182-1.49-.182-.687 0-.687.29 0 .525.483 1.061.236.268.89.483.793.214 1.05.332 1.052.719 2.735 1.748-.525.633-.525.815 0 .204.343.504.3.247.547.247.665-.033.665-.215 0-.193-.236-.386 2.402-4 4.557-5.48.182-.064.182-.214z" aria-label="全" font-size="72.314" font-family="EPSON 太行書体Ｂ" letter-spacing="0" word-spacing="0" fill="red" stroke-width="1.742"/><g clip-path="url(#e)" transform="matrix(-.28405 0 0 .28405 194.013 -6.285)" stroke-width="1.242"><path d="M417.247 255.98c-.208 0-.428-.077-.693-.21a.217.217 0 0 1-.006-.004 3.04 3.04 0 0 0-.41-.195 8.178 8.178 0 0 1-.69-.03c-.35-.023-.641-.139-.795-.384a.217.217 0 0 1-.002-.228l1.067-1.747c-1.057-2.456-2.741-5.234-5.06-8.334-2.537-3.368-4.8-5.7-6.767-6.99a.217.217 0 0 1 .014-.37c.212-.118.425-.184.637-.184.381 0 .815.246 1.453.687.636.44 1.448 1.093 2.44 1.959l.005.004c.261.11.55.326.942.684.425.387.95.925 1.578 1.617a.217.217 0 0 1 .002.002c1.346 1.525 2.173 2.383 2.562 2.713.36-.442.84-.803 1.461-1.065.104-.297.333-.684.737-1.28a.217.217 0 0 1 .004-.005c.361-.502.521-.91.521-1.188 0-.128-.033-.272-.068-.418l-5.618-1.359-.718.262a.217.217 0 0 1-.117.008l-.157-.032a.217.217 0 0 1-.174-.213v-.158a.217.217 0 0 1 .01-.068c.17-.51.328-.876.498-1.12a.217.217 0 0 1 .006-.009l.688-.877a.217.217 0 0 1 .136-.08l.94-.156a.217.217 0 0 1 .238.136c.125.321.337.529.682.657.531.143.942.244 1.224.304a.217.217 0 0 1 .043.014c.331.145.672.289 1.024.434l.004.002c.352.136.668.2.945.2l.12-.011c.106-.752.157-1.878.138-3.428-.02-1.545.059-2.702.226-3.558l-7.177-1.666-.547.117a.217.217 0 0 1-.088 0l-.418-.086-.824.238a.217.217 0 0 1-.276-.236c.11-.88.51-1.874 1.188-2.996a.217.217 0 0 1 .136-.1l.688-.156a.217.217 0 0 1 .129.012c.504.201.853.505 1.047.888 1.632.55 2.855.897 3.636 1.037a.217.217 0 0 1 .028.008c.954.311 1.56.498 1.795.557.802.123 1.412.195 1.812.215a.217.217 0 0 1 .053.01c.807.248 1.359.367 1.562.367.288 0 .695-.05 1.206-.153.669-.146 1.088-.231 1.304-.255a.217.217 0 0 1 .01 0l1.461-.094c.289-.037.928-.22 1.86-.551a.217.217 0 0 1 .001 0c.749-.257 1.451-.387 2.106-.387a.217.217 0 0 1 .011 0l.625.032a.217.217 0 0 1 .127.05c.412.343.643.777.643 1.26 0 .38-.182.743-.502 1.063-.319.319-.777.609-1.373.886-1 .49-1.876.722-2.639.678h-.004l-5.177-.248-.207.078c.021.021.019.047.05.068.104.07.272.132.502.17a.217.217 0 0 1 .004 0c.299.054.54.112.733.174.141.046.233.107.328.172h.004c.655.114 1.548.5 2.724 1.15a.217.217 0 0 1 .004.002c.54.311.974.544 1.303.696.329.152.57.215.621.215.125 0 .252-.019.379-.055a.217.217 0 0 1 .275.174 2.3 2.3 0 0 1 .034.379c0 .421-.201.82-.559 1.166-.358.346-.873.653-1.545.941a.217.217 0 0 1-.078.018l-2.377.093a.217.217 0 0 1-.201-.316l.449-.871c-.404-.955-1.29-1.958-2.648-2.986l-.112.562c.001.042.009.119.028.23.021.131.033.23.033.317 0 .12-.025.254-.069.43-.04.158-.056.275-.056.322 0 .075.018.224.058.426.044.215.067.38.067.513 0 .426.005.763.015 1.008.01.245.034.415.04.434a.217.217 0 0 1 .003.107l-.109.486.477.924 2.386.295 2.16-.37a.217.217 0 0 1 .112.01l.937.345a.217.217 0 0 1 .14.171c.023.155.034.3.034.438 0 .45-.19.85-.543 1.135l-.002.002c-.347.3-.76.457-1.205.457v-.434h-.016l-.025.004-.027.008-.057.031-.082.129.033.166.055.055.027.017.037.014c.02.005.006.002-.007 0a6.075 6.075 0 0 0-.16-.023c-.154-.021-.4-.05-.735-.092-.65-.08-1.674-.207-3.004-.365l-.224.207.289.703a.217.217 0 0 1 .015.082c0 .537-.219 1.03-.627 1.437a.217.217 0 0 1-.08.051c-.096.035-.16.032-.242.055.346.108.695.22 1.566.437a.217.217 0 0 1 .002 0c.812.213 1.47.457 2.012.729.862-.983 1.725-1.985 2.586-3.006a.217.217 0 0 1 .01-.01c1.118-1.16 2.21-2 3.285-2.516a.217.217 0 0 1 .137-.017c.279.056.643.058 1.086-.002.607-.084.969-.127 1.156-.127.149 0 .34.022.596.064.266.041.46.06.56.06.755 0 1.266.02 1.567.065a.217.217 0 0 1 .107.05l.658.562a.217.217 0 0 1 .074.203l-.187 1.064a.217.217 0 0 1-.076.13c-.653.544-1.589 1.052-2.81 1.536h-.003c-1.412.582-2.36 1.033-2.808 1.326a.217.217 0 0 1-.008.006c-.752.448-1.541 1.072-2.365 1.875l-.002.002c-.115.115-.821.85-2.092 2.184a.217.217 0 0 1-.008.008c-1.875 1.777-3.244 3.016-4.283 3.902.329.096.62.214.83.389.293.244.453.585.453.965a.217.217 0 0 1-.004.04l-.094.5a.217.217 0 0 1-.088.137c-.65.462-1.192.81-1.632 1.047-.44.237-.769.37-1.057.37zm.037-5.02a113.323 113.323 0 0 0 2.399-3.47c-.02 0-.04.009-.059.009-.452 0-1.08-.212-1.967-.613a.217.217 0 0 1-.002 0c-.584-.271-1.034-.48-1.351-.625a30.39 30.39 0 0 0-.532-.24h-.002a35.594 35.594 0 0 0-1.488-.442l-.336.23zm-6.223-14.192a.217.217 0 0 1-.207-.308c.115-.245.306-1.066.514-2.354.151-1.031.503-1.791 1.086-2.234a.217.217 0 0 1 .229-.022c.342.172.653.222.959.168a.217.217 0 0 1 .228.112c.311.578.454 1.253.434 2.011V234.485a.217.217 0 0 1-.018.088c-.27.609-.741 1.088-1.383 1.42a.217.217 0 0 1-.013.006l-1.752.752a.217.217 0 0 1-.077.017z" aria-label="金" font-weight="400" font-size="32.04" font-family="HakusyuKaisyo" stroke-width="1.137" stroke-linejoin="round" stroke-miterlimit="10"/></g><g clip-path="url(#f)" transform="matrix(-.28405 0 0 .28405 215.773 -55.082)" stroke-width="1.242"><path d="M723.744 256.58l1.127-.22.594.22q.72-.126 1.252-.658t.532-1.251q0-1.002-.751-1.283-.626-.125-1.815-.407-.595-.188-1.877-.845-1.502-.75-1.69-1.126l1.596-.595q.219-.532 1.032-1.439 2.973.939 6.414.939 1.096 0 1.846-.72.783-.72.783-1.815l-.094-.438-1.346-.375-1.877.375q-1.22.22-1.94.22-.813 0-1.44-.22 3.411-3.66 7.229-5.413 1.314-.625 2.66-1.22 1.501-.688 2.502-1.47l.376-.72q-.5-.5-1.001-.72l-.689.157-1.283-.282-1.72.156-.626-.281q-2.16.25-3.88 2.002v-.469q-.25-.25-.5-.532-.251-.25-.251-.657 0-.219.125-.5 0-.752.031-2.097.032-1.47.032-2.065 0-3.473-1.659-4.13l-.563.125-.5.97q-.22.094-2.128.438-.188-.031-2.597-.344-1.627-.22-2.597-.563-.751-.438-2.253-1.252-.688.563-1.126 1.47.563 3.067.563 7.447 0 1.878-.845 2.16-.75-.47-.75-1.033-.72-.845-1.409-1.721-.939-1.158-1.596-1.596-1.345-.845-2.002-.845l-1.47.032q2.064 1.47 4.974 5.194 2.535 3.254 4.036 6.038-2.816 0-4.13-1.595-.156-.032-.344-.032-1.032 0-1.44 1.064-.187.438-.406 2.003.876-.125 2.065-.438 2.535.594 3.786.938 2.691.72 3.661 1.252-.188 1.126-1.126 2.44l-.438-.156-.501.156q-.782-.219-.908-.219-.125 0-.312.094l-2.629.125q.501.282 4.037 2.16 2.378 1.314 3.848 2.534l-.47.47v.343l.69-.062 1.188.281zm-.47-9.45q-.375-.094-.468-.813-.063-.564-.094-1.096l.187-.469-.281-1.533.219-.563q-.25-.094-.313-.5-.063-.376-.094-.69l.188-.844 3.473.282q1.377.125 2.41-.47-1.784 2.19-5.226 6.696zm-7.602-7.54l1.501-.595q.564.313 1.847.563 1.282.25 1.814.5-.313 1.065-.344 2.848-.031 1.783-.219 2.534-.939-.125-1.564-.876-.094-.125-1.002-1.595-.062-.157-1.157-1.627-.72-.908-.876-1.753zm1.877-1.91l.156-2.721q1.721.125 3.286.532 1.001.344 2.972 1.032h.908q.406 0 .782.188.125 1.502.125 1.658 0 .939-.657.939.375 0-1.909-.282-3.754-.532-5.663-1.345zm1.69-4.098l-.376.094q-1.001 0-1.22-.344v-.564q0 .157.125-.532-.063-.688.063-2.002.907.125 3.848.907 2.347.595 3.88.657v3.004l-.376.157q-2.628-.438-3.003-.532-2.003-.407-2.941-.845z" aria-label="香" font-weight="400" font-size="32.04" font-family="HakusyuKaisyo"/></g><g clip-path="url(#g)" transform="matrix(-.28405 0 0 .28405 232.613 1.501)" stroke-width="1.242"><path d="M634.872 125.026q0-.281-.188-.563-.625-.407-1.439-.626-.782-.219-1.533-.406-.532-.22-1.565-.626-1.22-.47-3.41-1.033l-.532.063 1.94 1.815q1.22 1.189 1.345 2.159-.406.406-2.597.406-4.036 0-7.165-1.658-2.753-1.44-5.663-4.725l-1.44-1.69q-.876-1-1.564-1.501-.907.626-.907 2.44 0 .94 1.376 2.785.126.188 3.098 3.567 2.378 2.691 3.004 3.442 1.783 2.19 2.597 3.723-.47.939-1.001 1.22.438.22.844.439.595.281.845.281 1.502 0 2.128-.938 0-1.471-1.252-3.098-.406-.563-2.503-2.785-1.564-1.658-2.002-2.722 3.003 1.909 5.319 2.628 2.472.783 5.85.783 1.159 0 2.003-.126 1.033-.156 2.66-1.22 1.752-1.157 1.752-2.034zm-5.538-16.677q0-1.126-1.345-1.126-.188 0-.439.031-2.19.407-4.005.407-2.66 0-6.195-1.596-1.251.376-1.314 2.253l2.315 1.846q-.093.094-1.97 1.064-1.534.782-1.534 1.408 0 .845 1.19 1.909.97.876 1.97 1.345 2.378 1.126 2.597 1.252 1.283.876 1.283 2.378 0 .312-.062.625-1.002-.5-2.41-.5-.782 0-1.533.187l-.47.376q1.002.375 2.066 1.564 1.314 1.44 1.815 1.784.313.219.938.219 2.284 0 3.473-.782v-.25q.032-.626-.344-1.127-.344-.47-.72-.939-.437-.813-.5-2.534.125-.188 1.158-.438 1.063-.22 1.439-.657.031-.157.031-.313 0-1.001-2.284-3.38-2.66-2.753-3.004-3.441 1.784.532 4.13.532 3.724 0 3.724-2.097zm-7.885 7.385q-3.63-.658-4.63-2.785.187-.595 2.283-.72 1.44.532 2.347 3.505z" aria-label="全" font-weight="400" font-size="32.04" font-family="HakusyuSousyo_kk" fill="red"/></g><g clip-path="url(#h)" transform="matrix(-.28405 0 0 .28405 282.465 2.934)" stroke-width="1.242"><path d="M729.677 120.538c-.334-.438-1.085-.918-2.253-1.44-1.147-.5-1.783-.834-1.909-1 .167-1.356.209-2.378.126-3.067.646-.563 1.032-1.147 1.157-1.752-.187-.667-.709-1.512-1.564-2.534-.855-1.002-1.387-1.794-1.596-2.378.376-.376 1.335-.751 2.879-1.127 1.376-.334 2.315-.918 2.816-1.752-.021-.334-.334-.605-.939-.813-.605-.23-2.19-.585-4.756-1.064-2.566-.5-4.099-.751-4.6-.751-.896 0-1.46.448-1.69 1.345.105.5.439 1.074 1.002 1.721.647.71 1.043 1.262 1.19 1.658-.21.167-.856.272-1.94.313-.981.021-1.471.48-1.471 1.377 0 .584.323 1.241.97 1.971.667.751 1.637 1.481 2.91 2.19 1.084.585 2.169 1.158 3.254 1.721.125.605.187 1.158.187 1.659 0 .208-.01.386-.031.532-.563-.167-1.898-.783-4.005-1.846-1.606-.814-2.993-1.21-4.161-1.19h-.22c-.375.188-.563.46-.563.814 0 .668.929 1.742 2.785 3.223v-.532l-.219-.688c.814.208 1.93.709 3.348 1.501 1.335.751 2.357 1.43 3.066 2.034.105.271.157.532.157.782 0 .23-.052.439-.157.626-1.543-1.001-2.962-1.658-4.255-1.971l4.068 4.005c-.835.125-1.586.5-2.253 1.126-.668.647-1.001 1.377-1.001 2.19 0 .355.187.991.563 1.91l.813 1.94c.5-.147 1.074-.418 1.721-.814.793-.48 1.19-.908 1.19-1.283 0-.146-.21-.47-.627-.97-.417-.5-.625-.907-.625-1.22 0-.105.01-.199.03-.282.189-.042.408-.063.658-.063.25 0 .636.021 1.158.063.521.042.917.063 1.189.063 1.585 0 2.346-.49 2.284-1.471v-.219c-.355-.25-1.054-.647-2.097-1.189-.897-.459-1.564-.887-2.002-1.283.542-.292 1.345-.553 2.41-.782a52.692 52.692 0 0 1 1.72-.157c.563-.104.99-.48 1.283-1.126zm-7.009-7.478v.063c-2.107-.584-3.63-1.398-4.568-2.441-.334-.375-.5-.688-.5-.939 0-.146.083-.25.25-.313a1.94 1.94 0 0 1 .469-.062c1.043 0 2.034.365 2.972 1.095.96.75 1.419 1.617 1.377 2.597zm.5-6.57c0 .291-.083.594-.25.907-.688-.751-1.251-1.325-1.69-1.721a.693.693 0 0 1 .22-.032c.396 0 .96.188 1.69.564.02.083.03.177.03.281z" aria-label="金" font-weight="400" font-size="32.04" font-family="HakusyuSousyo_kk" fill="red"/></g><g clip-path="url(#i)" transform="matrix(-.28405 0 0 .28405 332.739 -54.458)" stroke-width="1.242"><path d="M824.265 249.16q.383 0 1.311-.356.928-.328 1.174-.573.027-.219.027-.41 0-.464-.19-.655l-.055-2.485q.792 0 3.222 1.038.273-.082 1.365-.082.41 0 .737-.273.328-.246.3-.628v-.055q-.436-.437-1.092-.519-.628-.082-1.228-.136-2.895-.355-3.25-.519-.273-.273-.273-1.474 0-.246-.355-1.284l.574-.027 5.515.874q.656.109 1.72-.328.929-.382 1.53-.928l.054-1.065q-.655-.437-1.147-.437-.355 0-1.638.355-1.256.355-1.939.355-3.959 0-5.843-.929.519-.109 1.038-.245.519-.11.628-.71-.3-1.147-.3-1.993l-.083-.983q.028.163.082-.492l.055-.983q.055-.573.328-.874l2.266 2.24-.382.545q.109.601 1.092.601.218-.191.819-.218l.874-.055-2.157 2.403q3.85-.628 5.488-2.321v-.11q.027-.354-.3-.682-.41-.382-.465-.546h-.136q-.246-.027-.737.219-.492.273-.683.273l-.273-.656q-.765-.19-1.638-1.01-.656-.683-1.338-1.365-.464-.3-1.365-1.038-.465-.519-1.393-1.447-.41-.382-1.529-1.174-.737-.628-2.239-1.72-.983-.601-1.666-.929-.546-.163-1.583-.6-.601-.328-1.174-.656-.792-.382-1.284-.382-.19 0-.6.11l-.765-.192-.519.137q4.232 1.966 9.53 6.58-.41.901-1.038 1.475l-1.201 1.201q.873.246 2.239.683.027.245.027.464 0 .218-.082.655-.055.464-.055.71 0 1.283-.19 1.693-.165.437-1.148 1.174-.163 0-2.512-.437-1.665-.328-2.43-.573-1.583-.464-2.184-1.147l-.792-.3q-.737.3-1.31 1.037-.547.737-.574 1.502l.847-.055q.655-.464.819-.464.054 0 5.324 1.365l.546.383q-.382.163-.382.6 0 .137.027.437.055.328.055.464 0 2.813-.874 3.25l.137.082.027.109-.11.19.765.083q.137-.164 1.147-.382.846-.164.983-.82-.11-1.146-.546-3.74 1.42 0 2.648.491l-.436 1.147.163 3.823q-.109.273-.136.983 0 .71-.11.9-.327.465-.9 1.311.054.52 1.146.52zm-5.98-12.807q.301 0 .41-.246.055-.109.273-1.037.219-.901.219-1.038 0-.9-.383-1.665-.436-.847-1.174-1.174-.846.491-.846 1.392 0 .655.764 1.83.765 1.174.738 1.938z" aria-label="歩" font-weight="400" font-size="27.96" font-family="HakusyuKaisyo" stroke-width=".992" stroke-linejoin="round" stroke-miterlimit="10"/></g><g clip-path="url(#j)" transform="matrix(-.28405 0 0 .28405 332.788 3.069)" stroke-width="1.242"><path d="M817.292 125.451q.6 0 1.638-.437 1.338-.6 2.075-1.91.383-.71.956-2.595.546-1.775 1.12-2.621.764 0 2.785 2.102 1.938 2.021 2.157 2.813l-.41.874q.11 0 .492.081.327.028.518.028.765 0 1.884-1.284 1.12-1.283 1.093-2.075v-.19q-.738-.383-2.076-1.257-1.365-1.229-4.123-3.44-.464-.273-1.31-.792-.328-.191-.82-.792-.436-.491-.928-.71-2.757-2.73-2.757-4.15 0-1.557 3.33-1.557 1.584 0 3.878.601 3.631 1.01 3.795 1.038.792-.3 1.557-.574.846-.355 1.146-1.065 0-.655-.546-1.01-.518-.355-2.239-.9-1.583-.574-2.32-.71-1.393-.274-3.496-.274-2.675 0-4.614.929-2.567 1.174-2.567 3.522 0 1.775 1.366 3.768l2.402 3.331q-.71 1.31-1.283 2.457-.764 1.857-1.556 3.687-1.092 2.348-2.403 2.812.082.3 1.256.3z" aria-label="と" font-weight="400" font-size="27.96" font-family="HakusyuKaisyo" fill="red"/></g><path d="M53.832 83.44q-.063.145-.063.313-.564.658-.96.658-.199 0-.71-.293-.763-.48-1.139-.48.167-.251.46-.554.376-.083.574-.083 1.222 0 1.838.438zm.742 1.2q-.324.073-.95.345-.398.22-.638.668-1.18.303-2.747.303.084-1.034.491-1.88.052.45.345.71.365.272.898.272.94 0 1.347-.428.502-.272.878-.387.219.293.376.397zm.344 2.977q-.01.501-.083 1.013-.596-.22-.815-.22-.198 0-.345.022l.773-.554-.93.292v-.323q.711-.147 1.4-.23zm.053 2.11q-.376-.094-.554-.094-.198 0-.7.073.042-.126.042-.178 0-.104-.24-.188v-.22q.7-.198 1.274-.198.02.47.178.805zm.02-3.677q0 .22-.041 1.16-.658-.23-.815-.23-.167 0-.376.031.386-.292.971-.647-.47.052-1.211.365l.042-.418q1.17-.25 1.43-.26zm1.766-2.11q.125.544.25.544.272 0 .387-.272.198-.449.198-.741 0-.491-.261-.752-.428-.335-.794-.335-.397 0-.553.71-.167.377-.355.784-.147.167-.282.167-.178 0-.397-.407-.324-.45-.68-.45-.177 0-.313.126-.689-.909-1.848-1.504-.167-.355-.48-.355-.627 0-1.337.73-.638.711-1.128 2.946-.22.282-.22.47 0 .293.355.669.387.407.627.407.188 0 .46-.031 1.034-.042 2.412-.199l-.052.627q-.554.24-1.034.334-.428.094-.428.313 0 .366.7.502.146 0 .73-.178l-.052.428q-.417.147-.877.272-.407.115-.407.313 0 .324.595.376.136 0 .637-.073 0 .303.094.48-.888.105-1.378.21-.418.125-.418.365 0 .313.303.522.334.24.741.24.167 0 .502-.282 1.587-.438 2.6-.511.345.114.428.114.147 0 .147-.114 0-.063-.042-.168.418 0 .418-.177 0-.146-.262-.376 0-.564.157-1.744.136-.961.146-1.724 0-.417-.167-.814-.282-.439-.606-.439-.292 0-.438.418-.23-.084-.794-.084.313-.313.742-.553.146.02.23.02.166 0 .553-.448.533-.387 1.003-.585z" aria-label="馬" font-size="77.476" font-family="EPSON 太行書体Ｂ" letter-spacing="0" word-spacing="0" fill="red" stroke-width="1.917"/></svg>