<svg xmlns="http://www.w3.org/2000/svg" viewBox="0 0 20.637 20.637"><path d="m61.716 73.284-2.7 17.273-5.748 1.638-5.554-1.56-2.895-17.351zm-42.272-.304-2.798 17.83-5.956 1.69-5.756-1.61-2.998-17.91zm21.07.305-2.7 17.272-5.748 1.637-5.556-1.56-2.893-17.35zm.022-23.805-2.7 17.273-5.748 1.638-5.554-1.56-2.895-17.351zm21.435 0-2.7 17.273-5.748 1.638-5.554-1.56-2.894-17.351zM18.461 1.168 15.86 17.883l-5.541 1.586-5.354-1.51-2.79-16.79zM83.34 49.587l-2.604 16.716-5.541 1.583-5.354-1.508-2.789-16.791z" fill="#fd5" stroke="#deaa87" stroke-width=".353" stroke-linejoin="round" stroke-miterlimit="10"/><path d="m10.975 4.096-.215 1.36-.459.13-.44-.124-.231-1.366z" fill="none"/><path d="M8.134 4.84a.596.596 0 1 1-1.191 0 .596.596 0 0 1 1.191 0z" fill="red" fill-rule="evenodd"/><path d="M8.134 4.84a.596.596 0 1 1-1.191 0 .596.596 0 0 1 1.191 0z" fill="none"/><path d="M13.611 4.84a.594.594 0 1 1-1.19 0 .596.596 0 0 1 1.19 0z" fill="red" fill-rule="evenodd"/><path d="M13.611 4.84a.594.594 0 1 1-1.19 0 .596.596 0 0 1 1.19 0z" fill="none"/><path d="M8.134 7.55a.596.596 0 1 1-1.191 0 .596.596 0 0 1 1.191 0z" fill="red" fill-rule="evenodd"/><path d="M8.134 7.55a.596.596 0 1 1-1.191 0 .596.596 0 0 1 1.191 0z" fill="none"/><path d="M13.611 7.55a.594.594 0 1 1-1.19 0 .596.596 0 0 1 1.19 0z" fill="red" fill-rule="evenodd"/><path d="M13.611 7.55a.594.594 0 1 1-1.19 0 .596.596 0 0 1 1.19 0z" fill="none"/><path d="M10.889 7.55a.596.596 0 1 1-1.192 0 .596.596 0 0 1 1.192 0z" fill="red" fill-rule="evenodd"/><path d="M10.889 7.55a.596.596 0 1 1-1.192 0 .596.596 0 0 1 1.192 0z" fill="none"/><path d="M10.889 2.032a.596.596 0 1 1-1.192 0 .596.596 0 0 1 1.192 0z" fill="red" fill-rule="evenodd"/><path d="M10.889 2.032a.596.596 0 1 1-1.192 0 .596.596 0 0 1 1.192 0z" fill="none"/><path d="m11.291 3.702-.318 2.028-.685.192-.658-.183-.342-2.037z" fill="red" fill-rule="evenodd"/><path d="m11.291 3.702-.318 2.028-.685.192-.658-.183-.342-2.037z" fill="none"/><path d="m12.103 9.674-.493.279-.172-.16zm0 1.255q0 .14-.922.504l.021-.418q.129-.215.354-.397.547.16.547.31zm3.603.89q0-.097-.247-.097-.579 0-1.565.612-.376.268-1.19 1.126-.419-.526-1.073-.526-.182 0-.579.064.054-.278.086-.6 1.544-.643 1.544-.997 0-.515-.75-1.126.568-.43 1.018-.612.204-.042.504-.064.3-.043.3-.29 0-.278-.321-.45-.258-.14-.504-.14-.268 0-1.427.28-.836.16-1.447.16-1.115 0-2.37-.096-.558 0-.558.547 0 .3.226.504.6.429.943.429.279 0 .719-.483.933-.14 1.394-.182l-.011.986q-.44.44-.922.848-.28.139-.28.343 0 .418 1.041.675-.075.29-.375.569-.858.214-.858.59 0 .343.268.503.418.204.708.204.193 0 .536-.397 1.083-.471 1.94-.493-.868 1.03-1.822 2.252-1.212-.965-2.37-2.252-.74-.783-1.072-.89-.633-.182-1.49-.182-.687 0-.687.29 0 .525.482 1.06.236.269.89.483.794.215 1.051.333 1.051.718 2.735 1.748-.526.632-.526.815 0 .203.343.504.3.246.547.246.665-.032.665-.214 0-.193-.236-.386 2.402-4 4.558-5.48.182-.064.182-.214z" aria-label="全" font-size="72.314" font-family="EPSON 太行書体Ｂ" letter-spacing="0" word-spacing="0" fill="red"/></svg>