<svg xmlns="http://www.w3.org/2000/svg" width="78" height="78" viewBox="0 0 20.637 20.637"><defs><clipPath clipPathUnits="userSpaceOnUse" id="a"><path d="M0 612.12h936.12V0H0" clip-rule="evenodd"/></clipPath><clipPath clipPathUnits="userSpaceOnUse" id="b"><path d="M0 0h936.12v612.12H0z" clip-rule="evenodd"/></clipPath><clipPath clipPathUnits="userSpaceOnUse" id="c"><path d="M0 0h936.12v612.12H0z" clip-rule="evenodd"/></clipPath><clipPath clipPathUnits="userSpaceOnUse" id="d"><path d="M0 0h936.12v612.12H0z" clip-rule="evenodd"/></clipPath></defs><path d="M65.597 27.07l-2.701 17.274-5.748 1.638-5.554-1.56L48.7 27.07zM19.072.559l-2.798 17.83-5.955 1.69-5.756-1.61L1.565.559zM44.395 27.072l-2.701 17.271-5.748 1.638-5.556-1.56-2.892-17.35zM44.417 3.267L41.716 20.54l-5.748 1.638-5.554-1.56L27.52 3.267zM65.852 3.267l-2.7 17.273-5.748 1.638-5.555-1.56-2.894-17.351z" fill="#fd5" stroke="#deaa87" stroke-width=".353" stroke-linejoin="round" stroke-miterlimit="10"/><path d="M36.715 8.066l-.222 1.407-.473.134-.458-.127-.237-1.414z" fill-rule="evenodd"/><path style="line-height:normal;font-variant-ligatures:normal;font-variant-position:normal;font-variant-caps:normal;font-variant-numeric:normal;font-variant-alternates:normal;font-variant-east-asian:normal;font-feature-settings:normal;font-variation-settings:normal;text-indent:0;text-align:start;text-decoration-line:none;text-decoration-style:solid;text-decoration-color:#000;text-transform:none;text-orientation:mixed;white-space:normal;shape-padding:0;shape-margin:0;inline-size:0;isolation:auto;mix-blend-mode:normal;solid-color:#000;solid-opacity:1" d="M36.022 9.695a.088.088 0 0 0 .022-.003l.473-.134a.088.088 0 0 0 .064-.071l.221-1.407a.088.088 0 0 0-.087-.102h-1.39a.088.088 0 0 0-.087.102l.237 1.414a.088.088 0 0 0 .063.07l.458.128a.088.088 0 0 0 .026.003zm-.002-.18l-.38-.105-.21-1.256h1.182l-.197 1.25zM36.483 12.75v-2.479h-.926v2.48zM36.453 7.302l.021-2.477-.926-.008-.021 2.477zM34.529 9.286V8.36h-2.48v.926zM39.884 9.3l.005-.927-2.479-.013-.004.926z" color="#000" font-weight="400" font-family="sans-serif" overflow="visible"/><path d="M36.971 7.674l-.32 2.03-.683.19-.658-.182-.344-2.038zM58.137 7.487l-.22 1.394-.468.132-.452-.125-.237-1.401z" fill-rule="evenodd"/><path style="line-height:normal;font-variant-ligatures:normal;font-variant-position:normal;font-variant-caps:normal;font-variant-numeric:normal;font-variant-alternates:normal;font-variant-east-asian:normal;font-feature-settings:normal;font-variation-settings:normal;text-indent:0;text-align:start;text-decoration-line:none;text-decoration-style:solid;text-decoration-color:#000;text-transform:none;text-orientation:mixed;white-space:normal;shape-padding:0;shape-margin:0;inline-size:0;isolation:auto;mix-blend-mode:normal;solid-color:#000;solid-opacity:1" d="M57.45 9.1a.088.088 0 0 0 .022-.003l.47-.13a.088.088 0 0 0 .063-.072l.22-1.394a.088.088 0 0 0-.088-.102H56.76a.088.088 0 0 0-.087.103l.237 1.4a.088.088 0 0 0 .063.07l.452.126a.088.088 0 0 0 .025.003zm-.001-.179l-.374-.103-.21-1.243h1.17l-.195 1.237zM54.398 11.858l1.837-1.838-.654-.655-1.838 1.838zM59.27 6.982l1.798-1.838-.662-.647-1.797 1.838zM60.406 11.855l.661-.65-1.805-1.837-.66.65zM55.58 6.986l.655-.655-1.837-1.838-.655.655z" color="#000" font-weight="400" font-family="sans-serif" overflow="visible"/><path d="M58.436 7.192l-.32 2.03-.682.19-.661-.182-.342-2.038zM11.345 4.406l-.32 2.028-.682.193-.659-.183-.344-2.038z" fill-rule="evenodd"/><path d="M11.345 4.406l-.32 2.028-.682.193-.659-.183-.344-2.038z" fill="none"/><path d="M8.176 5.517a.596.596 0 1 1-1.192 0 .596.596 0 0 1 1.192 0z" fill-rule="evenodd"/><path d="M8.176 5.517a.596.596 0 1 1-1.192 0 .596.596 0 0 1 1.192 0z" fill="none"/><path d="M13.653 5.517a.596.596 0 1 1-1.191 0 .596.596 0 0 1 1.191 0z" fill-rule="evenodd"/><path d="M13.653 5.517a.596.596 0 1 1-1.191 0 .596.596 0 0 1 1.191 0z" fill="none"/><path d="M8.176 8.226a.596.596 0 1 1-1.192 0 .596.596 0 0 1 1.192 0z" fill-rule="evenodd"/><path d="M8.176 8.226a.596.596 0 1 1-1.192 0 .596.596 0 0 1 1.192 0z" fill="none"/><path d="M13.653 8.226a.596.596 0 1 1-1.191 0 .596.596 0 0 1 1.191 0z" fill-rule="evenodd"/><path d="M13.653 8.226a.596.596 0 1 1-1.191 0 .596.596 0 0 1 1.191 0z" fill="none"/><path d="M10.93 8.226a.596.596 0 1 1-1.192 0 .596.596 0 0 1 1.192 0z" fill-rule="evenodd"/><path d="M10.93 8.226a.596.596 0 1 1-1.192 0 .596.596 0 0 1 1.192 0z" fill="none"/><path d="M8.176 2.709c0 .329-.267.593-.596.593a.594.594 0 1 1 0-1.19c.329 0 .596.267.596.597z" fill-rule="evenodd"/><path d="M8.176 2.709c0 .329-.267.593-.596.593a.594.594 0 1 1 0-1.19c.329 0 .596.267.596.597z" fill="none"/><path d="M13.653 2.709c0 .329-.266.593-.595.593a.594.594 0 1 1 0-1.19c.329 0 .595.267.595.597z" fill-rule="evenodd"/><path d="M13.653 2.709c0 .329-.266.593-.595.593a.594.594 0 1 1 0-1.19c.329 0 .595.267.595.597z" fill="none"/><path d="M10.93 2.709a.594.594 0 1 1-1.188-.001.594.594 0 0 1 1.188 0z" fill-rule="evenodd"/><path d="M10.93 2.709a.594.594 0 1 1-1.188-.001.594.594 0 0 1 1.188 0z" fill="none"/><path d="M11.375 4.357l-.32 2.027-.682.194-.661-.183-.342-2.038z" fill-rule="evenodd"/><path d="M11.375 4.357l-.32 2.027-.682.194-.661-.183-.342-2.038z" fill="none"/><path d="M36.69 31.652l-.22 1.406-.474.133-.456-.127-.24-1.412z" fill="red" fill-rule="evenodd"/><path style="line-height:normal;font-variant-ligatures:normal;font-variant-position:normal;font-variant-caps:normal;font-variant-numeric:normal;font-variant-alternates:normal;font-variant-east-asian:normal;font-feature-settings:normal;font-variation-settings:normal;text-indent:0;text-align:start;text-decoration-line:none;text-decoration-style:solid;text-decoration-color:#000;text-transform:none;text-orientation:mixed;white-space:normal;shape-padding:0;shape-margin:0;inline-size:0;isolation:auto;mix-blend-mode:normal;solid-color:#000;solid-opacity:1" d="M35.997 33.28a.088.088 0 0 0 .023-.004l.473-.133a.088.088 0 0 0 .063-.071l.222-1.407a.088.088 0 0 0-.087-.102H35.3a.088.088 0 0 0-.087.103l.239 1.413a.088.088 0 0 0 .063.07l.456.127a.088.088 0 0 0 .025.003zm-.001-.18l-.379-.106-.212-1.254h1.183l-.197 1.248z" color="#000" font-weight="400" font-family="sans-serif" overflow="visible" fill="red"/><path d="M33.756 35.223a.616.616 0 1 1-1.232.003.616.616 0 0 1 1.232-.003zM39.42 35.223a.616.616 0 1 1-1.232.003.616.616 0 0 1 1.231-.003zM33.756 29.517a.616.616 0 1 1-1.231 0 .616.616 0 0 1 1.23 0zM39.42 29.517a.616.616 0 1 1-1.232 0 .616.616 0 0 1 1.231 0z" fill="red" fill-rule="evenodd"/><path style="line-height:normal;font-variant-ligatures:normal;font-variant-position:normal;font-variant-caps:normal;font-variant-numeric:normal;font-variant-alternates:normal;font-variant-east-asian:normal;font-feature-settings:normal;font-variation-settings:normal;text-indent:0;text-align:start;text-decoration-line:none;text-decoration-style:solid;text-decoration-color:#000;text-transform:none;text-orientation:mixed;white-space:normal;shape-padding:0;shape-margin:0;inline-size:0;isolation:auto;mix-blend-mode:normal;solid-color:#000;solid-opacity:1" d="M36.459 36.335v-2.478h-.926v2.478zM36.43 30.887l.02-2.478-.926-.007-.02 2.478zM34.507 32.872v-.927h-2.48v.927zM39.86 32.884l.005-.926-2.477-.013-.005.927z" color="#000" font-weight="400" font-family="sans-serif" overflow="visible" fill="red"/><path d="M36.919 31.26l-.32 2.028-.683.193-.658-.184-.345-2.037zM57.848 30.67l-.215 1.367-.46.13-.446-.123-.233-1.375z" fill="red" fill-rule="evenodd"/><path style="line-height:normal;font-variant-ligatures:normal;font-variant-position:normal;font-variant-caps:normal;font-variant-numeric:normal;font-variant-alternates:normal;font-variant-east-asian:normal;font-feature-settings:normal;font-variation-settings:normal;text-indent:0;text-align:start;text-decoration-line:none;text-decoration-style:solid;text-decoration-color:#000;text-transform:none;text-orientation:mixed;white-space:normal;shape-padding:0;shape-margin:0;inline-size:0;isolation:auto;mix-blend-mode:normal;solid-color:#000;solid-opacity:1" d="M57.174 32.255a.088.088 0 0 0 .022-.003l.46-.13a.088.088 0 0 0 .064-.07l.215-1.369a.088.088 0 0 0-.087-.102h-1.354a.088.088 0 0 0-.086.103l.232 1.374a.088.088 0 0 0 .063.07l.446.124a.088.088 0 0 0 .025.003zm-.002-.18l-.367-.101-.206-1.217h1.146l-.19 1.211z" color="#000" font-weight="400" font-family="sans-serif" overflow="visible" fill="red"/><path d="M54.992 31.418a.6.6 0 1 1-1.2-.001.6.6 0 0 1 1.2.001zM60.503 31.418a.6.6 0 1 1-1.2-.001.6.6 0 0 1 1.2.001zM57.762 34.144a.599.599 0 1 1-1.197.002.599.599 0 0 1 1.197-.002zM57.762 28.593a.598.598 0 1 1-1.199 0 .6.6 0 0 1 1.199 0z" fill="red" fill-rule="evenodd"/><g clip-path="url(#a)" transform="matrix(-.21519 0 0 .21519 124.925 12.766)" stroke-width="4.303" stroke-miterlimit="10"><path style="line-height:normal;font-variant-ligatures:normal;font-variant-position:normal;font-variant-caps:normal;font-variant-numeric:normal;font-variant-alternates:normal;font-variant-east-asian:normal;font-feature-settings:normal;font-variation-settings:normal;text-indent:0;text-align:start;text-decoration-line:none;text-decoration-style:solid;text-decoration-color:#000;text-transform:none;text-orientation:mixed;white-space:normal;shape-padding:0;shape-margin:0;inline-size:0;isolation:auto;mix-blend-mode:normal;solid-color:#000;solid-opacity:1" d="M323.111 91.645l-3.043 3.044 8.15 8.143 3.044-3.045z" color="#000" font-weight="400" font-family="sans-serif" overflow="visible" fill="red"/></g><path style="line-height:normal;font-variant-ligatures:normal;font-variant-position:normal;font-variant-caps:normal;font-variant-numeric:normal;font-variant-alternates:normal;font-variant-east-asian:normal;font-feature-settings:normal;font-variation-settings:normal;text-indent:0;text-align:start;text-decoration-line:none;text-decoration-style:solid;text-decoration-color:#000;text-transform:none;text-orientation:mixed;white-space:normal;shape-padding:0;shape-margin:0;inline-size:0;isolation:auto;mix-blend-mode:normal;solid-color:#000;solid-opacity:1" d="M58.945 30.245l1.713-1.753-.662-.647-1.713 1.753zM59.997 34.892l.66-.65-1.721-1.752-.66.65zM55.394 30.25l.655-.655-1.754-1.754-.654.655z" color="#000" font-weight="400" font-family="sans-serif" overflow="visible" fill="red"/><path d="M58.151 30.258l-.32 2.028-.682.193-.661-.183-.342-2.038z" fill="red" fill-rule="evenodd"/><g clip-path="url(#b)" transform="matrix(-.25823 0 0 .25823 39.262 -49.258)" stroke-width="1.366"><path d="M117.553 264.689l4.777-.775q.086-.215.817-.818.732-.559.86-1.29-.602-1.076-2.366-1.507-.602-.129-2.926-.3-.688-.044-3.012-.56-2.28-.474-2.926-.689-1.205-.387-2.066-.99 1.291-.602 2.54-1.161 1.376-.689 1.72-2.152l-.172-.817q-.86-.043-1.119-.775-.129-.344-.129-1.463-.043-.172-.086-.56-.043-.344-.043-.516l.13-1.033q.387 0 1.678.13 1.032.086 1.678.086 2.84 0 4.303-2.066v-1.248l-.947-.602-1.807.387q-.517.13-2.453-.387-1.893-.517-2.453-.99l-.258-1.033.258-1.033-.774-7.66q8.864.345 9.165.345 1.377 0 3.27-.56 1.937-.559 2.755-1.247.086-.086 1.205-1.248.903-1.033.903-1.55 0-.472-.645-.989-.646-.56-1.033-.43-4.432 1.549-5.164 1.764-3.098.904-5.422.904-4.518 0-10.886-1.377-.56-.086-1.55-.646-.946-.56-1.463-.688-1.463-.344-1.72-.474-.862-.387-1.077-1.247l-1.592-.603q-1.076.215-2.151 1.463-1.033 1.248-1.679 1.463l-.56 1.291.302.215q.172-.043.603-.172.473-.129.688-.129.13 0 3.443 1.033 3.657 1.119 4.82 1.42 2.796.731 4.948.904-.86 1.72-.86 5.378v.56q0 2.237-.216 3.442l-2.023-.172q-1.979.474-5.508 1.98l.947-.086q.86 0 6.971 2.022.258 7.96.258 7.315 0 1.55-1.42 2.109-.56-.13-2.151-.172-1.334 0-1.85-.215-2.281.99-5.423 3.614l1.937-.215q1.592 0 8.821 2.023 4.303 1.204 8.133 2.797z" aria-label="王" font-weight="400" font-size="44.064" font-family="HakusyuKaisyo"/></g><path d="M34.562 44.295l-.064.418q-.19-.1-.318-.227.191-.19.382-.19zm-.11.5q-.035.1-.035.163 0 .227.444.472.29.163.418.163.581-.108.581-.345 0-.181-.418-.463 0-.907.028-1.815.236-.118.236-.209 0-.218-.527-.272l-.971.1q.136-.2.417-.482.309-.145.618-.254l.109.073q.136.281.272.281.154 0 .154-.281 0-.155-.145-.6.209-2.305.209-2.423 0-.963-.608-1.362-.581-.39-2.134-.39-1.607 0-1.607.771 0 .29.327.463.608 1.49 1.562 2.115-.382-.553-.5-2.16.763-.182 1.462-.182.853 0 .853.3-.009.445-.363 2.151l-.445.128q.227-.6.227-.709 0-.154-.272-.281.354-.536.354-.708 0-.254-.735-.427.136-.163.317-.318-.354.037-.817.118-.345 0-.345.273 0 .145.146.308.2.2.372.2.281 0 .58.046l-.244.254q-.409.127-.409.4 0 .28.518.453l-.427.436q-.29.136-.29.327.036.3.462.354.146 0 .31-.11.326-.19.635-.335 0 .236.1.408-.31.155-1.063.246-.499.072-.499.29 0 .136.127.254-.254.182-.472.409-.272.127-.272.263 0 .164.163.327.327.327.572.327.19 0 .39-.21l1.053-.344q-.154.381-.236.763-.236-.1-.435-.1-1.253.109-1.253.58 0 .518.68.518.064 0 .155-.027.327 0 .672.073zm3.823-4.258q-.173.4-.89.663-.036-.536-.036-1.18.372-.318.79-.464-.173.264-.436.563-.327.173-.327.318.027.209.336.245.1 0 .563-.145zm.245-1.126q-.027.336-.1.654-.1-.018-.2-.018-.09 0-.227.009.173-.273.382-.545zm1.507 2.215q.136.082.2.082.172 0 .172-.136 0-.19-.19-.327-.4-.2-.609-.2-.345 0-1.28.572.772-1.08 1.026-3.05.163-.336.163-.445-.1-.935-.526-.935-.209 0-.29.154-.119.618-.137 1.643-.109-.163-.245-.163-.19 0-.962.726 0-.599.082-1.334.571.09 1.08.454-.318-.645-.935-1.226-.127-.39-.418-.39-.426 0-.672.944.118 2.033.118 2.306 0 .081-.063.544-.118.237-.118.364 0 .19.309.417.263.164.426.164.136 0 .726-.354-.181.408-.926.653l-.817.182q-.109.036-.109.272 0 .318.618.354.09 0 .426-.254l.808-.245q-.408.281-.862.526-.626.164-.626.364 0 .308.454.363.154 0 .38-.136l.328-.091q-.255.209-.98.49-.282.09-.282.254 0 .263.426.436 0 .454.246.69.217.218.517.218.862 0 .862-.282 0-.127-.39-.327l-.145-.108.744-.436-.953.118-.245-.018.209-.218 1.57-.509.445-.036q.09-.018.09-.145 0-.091-.172-.164-.372-.127-.517-.127-.136 0-.735.127.245-.227.454-.39.154-.145.154-.345 0-.309-.164-.309-.154 0-.708.518-.281.136-.563.227.818-.745 1.635-1.108z" aria-label="龍" font-size="67.344" font-family="EPSON 太行書体Ｂ" letter-spacing="0" word-spacing="0" fill="red" stroke-width="1.917"/><g clip-path="url(#c)" transform="matrix(-.25823 0 0 .25823 90.883 -46.598)" stroke-width="1.366"><path d="M224.17 257.953q0-1.617-2.954-1.617-.843 0-1.582.703-1.23 1.16-1.265 1.196l.035.21q2.285.704 3.762.704 2.004 0 2.004-1.196zm-.88-4.043q0-.175-.035-.351-.703-.492-1.722-.492-2.18 0-3.27 1.582V255q1.934.317 3.094.317 1.934 0 1.934-1.407zm6.012-20.425q0-.95-.632-1.477-.633-.563-1.618-.563-.879 0-2.707.668-1.617.598-2.601 1.16-2.813 1.653-4.324 4.887-1.336 2.953-1.336 6.504 0 .809.07 1.582-.984-.351-2.25-.914v-2.46q.035-4.395-.176-6.364-.457-4.465-2.11-5.52-.984 3.48-.984 10.301 0 2.145-.07 2.848-1.547-.668-2.953-1.442-.387-4.464-2.918-7.418-2.742-3.164-7.066-3.375l-.317.176q2.11 1.301 4.29 4.008 2.425 3.024 2.6 5.168-3.163-1.3-3.55-2.355-.105-.036-.176-.036-.668 0-1.09 1.407-.351 1.054-.351 1.933 0 .317.281 1.301l.246.246.95-.808q2.003.878 3.937 1.652v.316q.07 1.477-1.3 2.707-1.618-1.054-3.376-1.125 3.621 3.34 5.379 6.434l-1.125.703.035.316 2.426.633q2.46-.246 3.094-1.793-.492-.879-2.145-2.144-1.23-.985-2.496-1.934 2.215-.422 2.637-2.953 1.476.703 3.199 1.266l.035 1.968q.035 4.22-.351 5.204-.176.351-.563.843-.562.668-.633.809l-.035.492 2.11.563q2.18-.317 3.48-2.215-.281-.528-.668-1.617-.352-1.09-.281-3.938v-.738q.808.281 2.39.844.387.21.809.421.457.211.879.176-2.285 1.688-2.285 6.328l.105 2.918q-.773-.21-5.027-1.863-4.078-1.582-4.149-1.582-1.054 0-2.847 3.234l.351.282q.844-.211 1.582-.211.422 0 11.11 3.832.984-.07 2.918-.844.21-.738.21-1.09 0-.633-.562-.95-.808-.421-1.055-.737-.562-.774-.562-2.496 0-2.461 1.195-4.079 1.301-1.757 3.692-1.863 1.265.422 1.336 4.254.457-.492.914-1.547.632-1.547.738-1.652.492-.668 1.406-2.004.317-.527.317-1.055 0-.21-.07-.457-1.055-.668-2.778-.668-2.215 0-4.465.844-.21-.633-.21-1.266-.915-.316-.915-1.968 0-.95.176-1.899l2.004 2.074-.738.598-.141.246h.14q1.126-.035 2.602.633 1.688-.387 1.688-1.828 0-.387-.282-.598-.07-.07-1.441-.387-1.336-.316-2.918-1.37 2.25-.176 3.129-.493 1.863-.633 1.863-2.18 0-.914-.95-1.23-.878.07-2.284 1.02-1.055.808-2.11 1.582 1.618-3.551 5.766-5.028 1.09 1.336 1.547 7.313.808-1.266 1.125-3.305l.562-3.445q.668-2.989.668-3.41z" aria-label="飛" font-weight="400" font-size="36" font-family="HakusyuKaisyoExtraBold_kk"/></g><g clip-path="url(#d)" transform="matrix(-.25823 0 0 .25823 138.746 -46.413)" stroke-width="1.366"><path d="M327.64 246.959q-.105-.352-.879-1.02-.738-.634-.95-.985-.105-.915-.105-2.111 0-1.794.246-5.383.282-3.553.282-5.347 0-1.126-.141-2.463-.14-.176-1.02-2.216-.634-1.442-1.513-1.759-1.09.246-2.04 1.196-.563.774-1.76 2.216-.844.81-1.688 1.654-1.09 1.09-1.126 1.935 2.005-.88 3.624-.88.633 0 1.196.141.035 1.126.035 2.216 0 1.09-.035 2.217-2.392 1.125-4.68 1.125-5.065 0-10.06-2.533l-.599.176q-.246-4.784-.985-6.508-.316-.739-1.16-1.477-1.584.14-1.584 3.201 0 .739.74 5.488.738 4.784.703 7.81v.915l-1.126 1.829.14.317 1.408-.247q4.151.88 6.438 2.252 2.427 1.442 4.995 4.679-.492.422-1.09 1.23-6.403-5.24-8.83-5.487-1.09-.106-2.604-.106-1.442 0-2.075.528 6.156 2.427 10.8 8.091.07.247.07.493 0 .387-.14.774l.246.316q.633.212 1.196.212.915 0 2.287-.704 1.407-.704 1.759-1.478l-.774-1.055q.527-.352 2.497-.352.95 0 2.639-1.794-.07-1.266-.669-1.618-.633-.211-1.794-.633-1.9-.81-2.638-2.182 1.231.317 2.427.634 1.513.351 2.463.351.633 0 2.357-.844 1.477-.703 2.286-1.266.845-.563 1.232-1.548zm-5.804-1.83v1.865q-.281.668-1.442.668-1.583 0-4.68-.774.916-.633.775-1.301 1.477.316 1.935.316 1.512 0 3.412-.774zm-.176-5.206q-.035 2.11 0 3.764-.492-.668-1.618-.81h-2.674q-.985 0-1.548-.527l-.105-2.146q1.477.387 3.201.387 1.618 0 2.744-.668zm-8.97 4.503q0 .316-.423.809-.387.492-.457.774-3.026-1.231-4.925-1.724l.07-1.477h.176q1.302-.07 5.523 1.336.035.176.035.282zm.14-4.609v1.83q-.88-.247-1.759-.458-1.126-.352-1.653-.738-1.232.668-2.568 1.688 0-2.04-.211-4.186 3.236.88 6.191 1.864z" aria-label="角" font-weight="400" font-size="36.024" font-family="HakusyuKaisyoExtraBold_kk"/></g><path d="M57.713 37.226q-.063.146-.063.314-.564.657-.96.657-.2 0-.711-.292-.763-.48-1.139-.48.168-.251.46-.554.376-.083.574-.083 1.222 0 1.839.438zm.741 1.201q-.324.073-.95.345-.397.22-.637.668-1.18.303-2.747.303.083-1.034.49-1.88.053.45.345.71.366.272.899.272.94 0 1.347-.428.501-.272.877-.387.22.293.376.397zm.345 2.977q-.01.501-.084 1.013-.595-.22-.814-.22-.199 0-.345.022l.773-.554-.93.292v-.323q.71-.147 1.4-.23zm.052 2.11q-.376-.094-.553-.094-.199 0-.7.073.042-.126.042-.178 0-.104-.24-.188v-.22q.7-.198 1.273-.198.021.47.178.805zm.02-3.677q0 .22-.04 1.16-.659-.23-.815-.23-.168 0-.376.031.386-.292.97-.647-.47.052-1.21.365l.041-.418q1.17-.25 1.43-.26zm1.766-2.11q.125.544.25.544.272 0 .387-.272.199-.449.199-.741 0-.491-.262-.752-.428-.335-.793-.335-.397 0-.554.71-.167.377-.355.784-.146.167-.282.167-.178 0-.397-.407-.324-.45-.679-.45-.177 0-.313.126-.69-.909-1.849-1.504-.167-.355-.48-.355-.627 0-1.337.73-.637.711-1.128 2.946-.22.282-.22.47 0 .293.356.669.386.407.626.407.188 0 .46-.031 1.034-.042 2.413-.199l-.053.627q-.553.24-1.034.334-.428.094-.428.313 0 .366.7.502.146 0 .731-.178l-.052.428q-.418.147-.877.272-.408.115-.408.313 0 .324.596.376.135 0 .637-.073 0 .303.094.48-.888.105-1.379.21-.418.125-.418.365 0 .313.303.522.334.24.742.24.167 0 .501-.282 1.588-.438 2.6-.511.345.114.429.114.146 0 .146-.114 0-.063-.042-.168.418 0 .418-.177 0-.146-.261-.376 0-.564.157-1.744.135-.961.146-1.724 0-.417-.167-.814-.282-.439-.606-.439-.293 0-.439.418-.23-.084-.793-.084.313-.313.741-.553.146.02.23.02.167 0 .553-.448.533-.387 1.003-.585z" aria-label="馬" font-size="77.476" font-family="EPSON 太行書体Ｂ" letter-spacing="0" word-spacing="0" fill="red" stroke-width="1.917"/></svg>