<svg xmlns="http://www.w3.org/2000/svg" viewBox="0 0 800 800"><path d="M237.8 702.4c-42 0-77.3-14.9-102.2-43-23-25.9-35.6-62.3-35.6-102.5 0-59.2 41.5-73.3 77.5-79.1l16.4-2.6-5 15.8a213 213 0 0 0-10.2 61.2c0 54 24.4 87.6 63.6 87.6 29.2 0 56.6-23.8 70.7-60.2a157.1 157.1 0 0 1-29.1-8.4c-13.4-5.6-20.1-13-20.5-21.8l-7-55.7v-.6c0-9.1 5.6-15.6 12.9-20.5l-5.1-13.5c-16.6-44.9-37.3-100.9-37.3-143.7 0-50.4 22.1-95.4 62.4-126.9 10.9-15.3 27.2-32 48.5-49.7 17.8-14.8 38-29.3 56.9-40.9l5.4-3.2 5.4 3.2c36.1 22.1 82.4 58.6 105.4 90.7a157.9 157.9 0 0 1 62.5 126.5c0 43.1-20.7 99.5-37.5 144.7l-4.4 12.7c7.2 5 13.3 11.4 13.3 20.5v.6l-7.6 55.6c-.6 13.7-17.1 23.7-50 30.3 14.1 36.4 41.5 60.2 70.6 60.2 39.2 0 63.5-33.6 63.5-87.6 0-18.4-3.7-40.7-10.2-61.2l-5-15.8 16.3 2.6c25.3 4 42.8 10.9 55.2 21.7 15 13.2 22.4 32 22.4 57.3 0 40.2-12.6 76.6-35.6 102.5-24.8 28.1-60.3 43-102.2 43-65.6 0-118.8-45.1-137.8-115.7a653 653 0 0 1-48.8 0c-18.9 70.7-72.3 115.9-137.8 115.9z"/><path d="M400 106.5c33.5 20.5 80.6 56.7 103.2 89.2A147.2 147.2 0 0 1 563 315c0 48.3-28.5 117.6-44.4 161.9 9.7 5.4 15.2 10.2 15.2 16.2l-7.2 55.4c0 9.5-21 17.9-53.1 23.1 13.2 44.7 45.9 78.4 84.2 78.4 45.7 0 73.9-38.9 73.9-97.8 0-20-4-43.3-10.7-64.3 41.5 6.6 68.9 21.9 68.9 68.9 0 75-45.6 135.2-127.5 135.2-62 0-113.6-43.6-129.9-116.1a560.9 560.9 0 0 1-64.8 0c-16.3 72.5-68 116.1-130 116.1-82 0-127.5-60.3-127.5-135.2 0-47 27.4-62.4 68.9-68.9-6.6 21-10.7 44.4-10.7 64.3 0 59 28.1 97.8 73.9 97.8 38.3 0 71.1-33.7 84.2-78.4-32.2-5.2-53.1-13.5-53.1-23L266 493c0-5.9 5.5-10.8 15.2-16.2-15.8-44.3-44.4-113.3-44.4-161.6 0-51 23.9-92.2 59.7-119.7 22.9-32.4 70-68.4 103.5-89m0-24L389.3 89c-34 20.8-82 57.1-107.6 92.1a168.1 168.1 0 0 0-65.2 134c0 44.7 21.1 101.6 37.9 147.3l2.4 6.5a32.7 32.7 0 0 0-11.2 24.1v1.3l.2 1.3 7.1 54.8c.3 5.7 2.7 13.4 10.6 20.4 4.2 3.8 9.5 6.9 16.4 9.8 5.3 2.3 11.6 4.3 18.6 6.2a96.8 96.8 0 0 1-18.9 26c-8 7.7-21 16.7-37.4 16.7a44.7 44.7 0 0 1-37.6-18.6c-10.3-13.8-15.7-34.1-15.7-58.8 0-17.4 3.6-38.6 9.7-58.1l9.9-31.6-32.7 5.2c-37 5.8-86.2 21.5-86.2 89.2 0 21.1 3.2 41 9.5 59.4 6.5 19 16.2 35.7 28.7 49.9 26.9 30.3 64.9 46.4 109.8 46.4 67.9 0 123.4-44.7 145.5-115.5l16.8.2 16.8-.2c21.9 70.7 77.5 115.5 145.5 115.5 45 0 82.9-16.1 109.8-46.4a147.5 147.5 0 0 0 28.7-49.9c6.3-18.4 9.5-38.3 9.5-59.4 0-67.7-49.1-83.4-86.2-89.2l-32.7-5.2 9.9 31.6c6.2 19.5 9.7 40.7 9.7 58.1 0 24.6-5.4 44.9-15.7 58.8a44.7 44.7 0 0 1-37.6 18.6 55.5 55.5 0 0 1-37.4-16.7c-7.2-7-13.7-15.9-18.9-26a128 128 0 0 0 18.7-6.2 60.4 60.4 0 0 0 16.4-9.9 29.8 29.8 0 0 0 10.6-20.4l7.1-54.5.1-1.3v-1.4c0-10.6-5.2-18.4-11.1-24 .6-1.9 1.4-3.9 2.2-5.8 17-46 38-103.4 38-148.3 0-52.9-23.1-100.2-65.2-133.6A277.9 277.9 0 0 0 469 131a534.5 534.5 0 0 0-58.1-41.9z"/><g fill="none" stroke="#f2f2f2" stroke-miterlimit="10"><g stroke-width="15.1"><g stroke-linecap="round"><path d="m526.7 548.5 7.2-55.7c0-19.7-58.9-35.2-133.9-35.2-75.1 0-133.9 15.7-133.9 35.2l7.2 55.7"/><path d="M273.4 548.5c0-15.7 56.7-28.4 126.7-28.4s126.7 12.7 126.7 28.4"/><path d="M169.8 491.2c-35.2 6.3-58.5 21.1-58.5 66.2 0 72 38.8 126.7 108.3 126.7 63.3 0 113.9-59.6 114.8-156.2m295.7-36.7c35.2 6.3 58.5 21.1 58.5 66.2 0 72-38.8 126.7-108.3 126.7-63.3 0-113.9-59.6-114.8-156.2"/></g><path d="M518.7 476.2c15.8-44.7 44.4-113.3 44.4-161.6 0-51-23.9-92.1-59.7-119.7-22.7-32.4-69.9-69-103.2-89.5-33.5 20.5-80.6 57.1-103.2 89.5a147.6 147.6 0 0 0-59.7 119.7c0 48.3 28.6 116.9 44.4 161.6"/></g><path stroke-width="17.3" d="M398.9 211.2v184.7m-69.1-94h140.4"/></g></svg>