<svg xmlns="http://www.w3.org/2000/svg" viewBox="0 0 800 800"><path d="M694.7 363.2a60.8 60.8 0 0 0-38-11.2h-1.4l-6.5.1-8.5.1c3.3-23.7.6-41.6-8-55.5a55.5 55.5 0 0 0-27.8-22.9 90.3 90.3 0 0 0-33.6-5.4 301 301 0 0 0-38.8 3.2 59.1 59.1 0 0 0-18.7-33.5 48.9 48.9 0 0 0-33-12.5c-24.1 0-47.2 16.3-65.9 29.6v-80.7h49.7v-30.2h-49.7V94.6h-30.2v49.7h-46.4v30.2h46.4v78.9c-18.3-13-40.4-28-63.5-28a48.9 48.9 0 0 0-33 12.5 59.4 59.4 0 0 0-18.7 33.5 304 304 0 0 0-38.9-3.2 91.3 91.3 0 0 0-33.7 5.4 55.5 55.5 0 0 0-27.8 22.9c-8.6 14-11.3 32-8.1 55.5l-8.2-.1-7-.1H144a64 64 0 0 0-38.2 11.1 46.8 46.8 0 0 0-18.6 39.4c0 26.1 18.3 53.8 37.5 83.2l5.7 8.7 25.6 53.9a39 39 0 0 0-11.3 26.8v2.2l.4 2.2 15.7 64.6c1.1 12.9 10.2 24 27 32.9a216.7 216.7 0 0 0 52.1 17.5c43.1 9.7 100.1 15 160.6 15 60 0 116.7-5.3 159.7-14.8a224 224 0 0 0 52.1-17.3c17.1-8.9 26.5-19.9 27.9-32.6l14.7-65.7.6-1.9v-2.1c0-9.4-4-18.1-11.6-26.1l23.8-52.6 7.3-11c19.4-29.2 37.8-56.7 37.8-82.7a47 47 0 0 0-18.1-39.3z"/><g stroke="#f2f2f2" stroke-linecap="round" stroke-miterlimit="10"><g fill="none" stroke-width="15.1"><path d="M182 371.5c-11.9.3-25.9-.1-37.5-.3-21.9-.3-39.4 8.7-39.4 32.2 0 39.1 60.6 95.7 73.3 146.7"/><path d="M284.1 293.5c-45.6-6.3-83.3-13.8-100.3 13.7-27 43.6 35.6 150.7 55.1 222.4"/><path d="M398.9 286.8c-24.3-9-67.9-61.7-99.8-33.9-43.6 37.9 22.9 173.9 38.1 260.5m280.7-141.9c11.9.3 25.9-.1 37.5-.3 21.9-.3 39.4 8.7 39.4 32.2 0 39.1-60.6 95.7-73.3 146.7"/><path d="M515.9 293.5c45.6-6.3 83.3-13.8 100.3 13.7 27 43.6-35.6 150.7-55.1 222.4"/><path d="M401.1 286.8c24.3-9 67.9-61.7 99.8-33.9 43.6 37.9-22.9 173.9-38.1 260.5"/></g><path stroke-width="13" d="M177.9 554c34-23.3 120.6-39.6 222-39.6 102.5 0 190.3 16.3 223.6 40l31.8-78.1c-11.8 13.1-23.7 18.5-33.9 15.3-26.9-8.4-26.5-40.6-24.4-66.5-16.4 29.5-39.3 44.7-63.9 39.5-24.9-5.3-40-40.5-39-68.6-17.5 35.6-49.4 54.1-94.1 54.1s-76.6-18.6-94.1-54.2c1.1 28.1-14 63.3-39 68.6-24.6 5.2-47.4-10-63.9-39.5 1.9 25.9 2.6 58.5-24.4 66.5-9.1 2.7-22.1-3.8-33.9-15.3z"/><g fill="none"><path stroke-width="13" d="M162.5 575.9c0-34.3 106.3-61.7 237.4-61.7s237.4 27.3 237.4 61.7m-475 1.8 16.2 65.1m459.2-65.1-16.2 65.1"/><path stroke-width="15.1" d="M178.6 642.2c0-27.4 99.1-49.7 221.4-49.7s221.4 22.2 221.4 49.7"/><path stroke-width="6.5" d="M400 286.8v160.9"/></g></g></svg>