<?xml version="1.0" encoding="UTF-8" standalone="no"?>
<!-- Generator: Adobe Illustrator 16.0.0, SVG Export Plug-In . SVG Version: 6.00 Build 0)  -->

<svg
   xmlns:dc="http://purl.org/dc/elements/1.1/"
   xmlns:cc="http://creativecommons.org/ns#"
   xmlns:rdf="http://www.w3.org/1999/02/22-rdf-syntax-ns#"
   xmlns:svg="http://www.w3.org/2000/svg"
   xmlns="http://www.w3.org/2000/svg"
   xmlns:sodipodi="http://sodipodi.sourceforge.net/DTD/sodipodi-0.dtd"
   xmlns:inkscape="http://www.inkscape.org/namespaces/inkscape"
   version="1.1"
   id="Layer_1"
   x="0px"
   y="0px"
   width="800px"
   height="800px"
   viewBox="0 0 800 800"
   style="enable-background:new 0 0 800 800;"
   xml:space="preserve"
   inkscape:version="0.91 r13725"
   sodipodi:docname="bN.svg"><metadata
     id="metadata4314"><rdf:RDF><cc:Work
         rdf:about=""><dc:format>image/svg+xml</dc:format><dc:type
           rdf:resource="http://purl.org/dc/dcmitype/StillImage" /></cc:Work></rdf:RDF></metadata><defs
     id="defs4312" /><sodipodi:namedview
     pagecolor="#ffffff"
     bordercolor="#666666"
     borderopacity="1"
     objecttolerance="10"
     gridtolerance="10"
     guidetolerance="10"
     inkscape:pageopacity="0"
     inkscape:pageshadow="2"
     inkscape:window-width="1920"
     inkscape:window-height="1039"
     id="namedview4310"
     showgrid="false"
     inkscape:zoom="0.295"
     inkscape:cx="-216.94915"
     inkscape:cy="400"
     inkscape:window-x="0"
     inkscape:window-y="20"
     inkscape:window-maximized="0"
     inkscape:current-layer="Layer_1" /><g
     id="black_knight"
     transform="matrix(-1,0,0,1,790.7,0)"><path
       d="m 652.9,605.9 c -8,-43 -28.9,-151 -43.3,-212 l 0,-40 -0.5,-1.6 c -13.9,-41.9 -33.6,-85.5 -44.1,-109 -1,-2.2 -1.8,-4 -2.6,-5.7 11.9,-19 15.2,-45.7 18.4,-69.4 1.3,-9.9 2.5,-19.3 4.2,-27.3 l 2.9,-13.7 -14,0.8 c -33.7,1.7 -66.1,22.4 -83.6,51.9 5.9,-21.6 0.9,-49.4 -14.4,-72.1 l -5.8,-8.7 -9.4,4.8 c -27.5,13.9 -41.8,43.2 -42.6,68.7 -10.7,-1.1 -21.2,-1.6 -31.1,-1.6 -16.7,0 -32,1.5 -45.3,4.5 -53,12 -139.4,55 -200.9,99.9 l -4.4,3.2 0,428.3 319.5,0 L 440.7,689 C 374,610.9 338.6,536 338.6,472.1 c 0,-22 3.9,-43.7 11.1,-63.5 -1.4,21.1 1,41.3 7.5,59.1 12.6,34.9 49.1,55.3 70.8,64.7 17.7,16.2 46,51.2 61.3,74 l 25.9,67.4 139.1,-59.3 -1.4,-8.6 z"
       id="path4305"
       inkscape:connector-curvature="0" /><path
       id="nose_2_"
       style="fill:#f2f2f2"
       d="m 613.3,578.1 c -19.4,-10.9 -33.9,3.8 -22.4,25.2 l 22.4,-25.2 z"
       inkscape:connector-curvature="0" /><path
       id="eye_2_"
       style="fill:#f2f2f2"
       d="m 561.7,361.1 c 6.9,9.5 0.6,29.3 -6,34.5 -4.5,-0.6 -14.1,-4.4 -18.6,-8 l -21.5,-24.9 4.5,-3.7 c 8.7,-0.1 30.7,-0.1 41.6,2.1 z"
       inkscape:connector-curvature="0" /><path
       id="crin_1_"
       style="fill:#f2f2f2"
       d="m 470.9,200.3 -0.6,-2.9 c -31.1,-5.1 -73,-6 -97.3,-6 -45.7,0 -148,58.8 -209.5,104.1 l 0,55.1 c 45,-43.5 141.2,-118.8 196.3,-135.8 37.2,-11.5 74.1,-15.7 111.1,-14.5 z"
       inkscape:connector-curvature="0" /></g></svg>