<?xml version="1.0" encoding="iso-8859-1"?>
<!-- Generator: Adobe Illustrator 16.0.0, SVG Export Plug-In . SVG Version: 6.00 Build 0)  -->
<!DOCTYPE svg PUBLIC "-//W3C//DTD SVG 1.1//EN" "http://www.w3.org/Graphics/SVG/1.1/DTD/svg11.dtd">
<svg version="1.1" id="Layer_1" xmlns="http://www.w3.org/2000/svg" xmlns:xlink="http://www.w3.org/1999/xlink" x="0px" y="0px"
	 width="800px" height="800px" viewBox="0 0 800 800" style="enable-background:new 0 0 800 800;" xml:space="preserve">
<g id="black_knight">
	<path d="M652.9,605.9c-8-43-28.9-151-43.3-212v-40l-0.5-1.6c-13.9-41.9-33.6-85.5-44.1-109c-1-2.2-1.8-4-2.6-5.7
		c11.9-19,15.2-45.7,18.4-69.4c1.3-9.9,2.5-19.3,4.2-27.3l2.9-13.7l-14,0.8c-33.7,1.7-66.1,22.4-83.6,51.9
		c5.9-21.6,0.9-49.4-14.4-72.1l-5.8-8.7l-9.4,4.8c-27.5,13.9-41.8,43.2-42.6,68.7c-10.7-1.1-21.2-1.6-31.1-1.6
		c-16.7,0-32,1.5-45.3,4.5c-53,12-139.4,55-200.9,99.9l-4.4,3.2v428.3h319.5L440.7,689C374,610.9,338.6,536,338.6,472.1
		c0-22,3.9-43.7,11.1-63.5c-1.4,21.1,1,41.3,7.5,59.1c12.6,34.9,49.1,55.3,70.8,64.7c17.7,16.2,46,51.2,61.3,74l25.9,67.4
		l139.1-59.3L652.9,605.9z"/>
	<path id="nose_2_" style="fill:#F2F2F2;" d="M613.3,578.1c-19.4-10.9-33.9,3.8-22.4,25.2L613.3,578.1z"/>
	<path id="eye_2_" style="fill:#F2F2F2;" d="M561.7,361.1c6.9,9.5,0.6,29.3-6,34.5c-4.5-0.6-14.1-4.4-18.6-8l-21.5-24.9l4.5-3.7
		C528.8,358.9,550.8,358.9,561.7,361.1z"/>
	<path id="crin_1_" style="fill:#F2F2F2;" d="M470.9,200.3l-0.6-2.9c-31.1-5.1-73-6-97.3-6c-45.7,0-148,58.8-209.5,104.1v55.1
		c45-43.5,141.2-118.8,196.3-135.8C397,203.3,433.9,199.1,470.9,200.3z"/>
</g>
</svg>
