<svg xmlns="http://www.w3.org/2000/svg" viewBox="0 0 800 800"><path d="M137.8 605.9c8-43 28.9-151 43.3-212v-40l.5-1.6c13.9-41.9 33.6-85.5 44.1-109l2.6-5.7c-11.9-19-15.2-45.7-18.4-69.4-1.3-9.9-2.5-19.3-4.2-27.3l-2.9-13.7 14 .8a106.4 106.4 0 0 1 83.6 51.9c-5.9-21.6-.9-49.4 14.4-72.1l5.8-8.7 9.4 4.8a81 81 0 0 1 42.6 68.7c10.7-1.1 21.2-1.6 31.1-1.6 16.7 0 32 1.5 45.3 4.5 53 12 139.4 55 200.9 99.9l4.4 3.2v428.3H334.8L350 689c66.7-78.1 102.1-153 102.1-216.9 0-22-3.9-43.7-11.1-63.5 1.4 21.1-1 41.3-7.5 59.1-12.6 34.9-49.1 55.3-70.8 64.7a508.8 508.8 0 0 0-61.3 74l-25.9 67.4-139.1-59.3z"/><path fill="#f2f2f2" d="M177.4 578.1c19.4-10.9 33.9 3.8 22.4 25.2zm51.6-217c-6.9 9.5-.6 29.3 6 34.5a50 50 0 0 0 18.6-8l21.5-24.9-4.5-3.7c-8.7-.1-30.7-.1-41.6 2.1zm90.8-160.8.6-2.9c31.1-5.1 73-6 97.3-6 45.7 0 148 58.8 209.5 104.1v55.1c-45-43.5-141.2-118.8-196.3-135.8a335.3 335.3 0 0 0-111.1-14.5z"/></svg>