<?xml version="1.0" encoding="UTF-8" standalone="no"?>
<!-- Generator: Adobe Illustrator 16.0.0, SVG Export Plug-In . SVG Version: 6.00 Build 0)  -->

<svg
   xmlns:dc="http://purl.org/dc/elements/1.1/"
   xmlns:cc="http://creativecommons.org/ns#"
   xmlns:rdf="http://www.w3.org/1999/02/22-rdf-syntax-ns#"
   xmlns:svg="http://www.w3.org/2000/svg"
   xmlns="http://www.w3.org/2000/svg"
   xmlns:sodipodi="http://sodipodi.sourceforge.net/DTD/sodipodi-0.dtd"
   xmlns:inkscape="http://www.inkscape.org/namespaces/inkscape"
   version="1.1"
   id="Layer_1"
   x="0px"
   y="0px"
   width="800px"
   height="800px"
   viewBox="0 0 800 800"
   style="enable-background:new 0 0 800 800;"
   xml:space="preserve"
   inkscape:version="0.91 r13725"
   sodipodi:docname="wN.svg"><metadata
     id="metadata4260"><rdf:RDF><cc:Work
         rdf:about=""><dc:format>image/svg+xml</dc:format><dc:type
           rdf:resource="http://purl.org/dc/dcmitype/StillImage" /></cc:Work></rdf:RDF></metadata><defs
     id="defs4258" /><sodipodi:namedview
     pagecolor="#ffffff"
     bordercolor="#666666"
     borderopacity="1"
     objecttolerance="10"
     gridtolerance="10"
     guidetolerance="10"
     inkscape:pageopacity="0"
     inkscape:pageshadow="2"
     inkscape:window-width="1920"
     inkscape:window-height="1039"
     id="namedview4256"
     showgrid="false"
     inkscape:zoom="1.07625"
     inkscape:cx="400"
     inkscape:cy="400"
     inkscape:window-x="0"
     inkscape:window-y="20"
     inkscape:window-maximized="0"
     inkscape:current-layer="Layer_1" /><g
     id="white_knight"
     transform="matrix(-1,0,0,1,794.15431,0)"><path
       id="head_3_"
       style="fill:#ffffff;stroke:#000000;stroke-width:29.15999985;stroke-linecap:round;stroke-miterlimit:10"
       d="m 148.9,692.2 0,-411.6 c 57.2,-41.8 142.3,-85.8 196.6,-98.1 42.6,-9.7 101.3,-2.1 148.6,13.2 13.3,-34.9 48,-58.6 81.5,-60.4 -6.3,29.6 -5.9,74.3 -24.3,97.7 7,16.2 32.1,69.4 48.7,119.3 l 0,39.4 c 13.9,59.1 34.9,166.2 43.4,212.8 L 522.5,656 500.1,597.9 C 484.9,575.2 454.4,537 435,519.7 c -24.4,-10.3 -55.8,-29.4 -66.6,-59.2 -14,-38.4 -6.3,-84.3 10.5,-119.9 -31,30.2 -50,77 -50,127.8 0,68.1 38.1,145.9 104.7,223.7 l -284.7,0 0,0.1 z"
       inkscape:connector-curvature="0" /><path
       id="nose_3_"
       style="stroke:#000000;stroke-width:9.16899967;stroke-miterlimit:10"
       d="M 614.4,574.8 C 595,563.9 580.5,578.6 592,600 l 22.4,-25.2 z"
       inkscape:connector-curvature="0" /><path
       id="eye_3_"
       style="stroke:#000000;stroke-width:0.95179999;stroke-miterlimit:10"
       d="m 562.7,357.9 c 6.9,9.5 0.6,29.3 -6,34.5 -4.5,-0.6 -14.1,-4.4 -18.6,-8 l -21.5,-24.9 4.5,-3.7 c 8.8,-0.1 30.7,-0.1 41.6,2.1 z"
       inkscape:connector-curvature="0" /><path
       id="ear_1_"
       style="fill:#ffffff;stroke:#000000;stroke-width:23.76000023;stroke-linecap:square;stroke-miterlimit:10"
       d="m 474.1,186 c 12.5,-17.9 9.9,-49.7 -7,-75.1 -28.2,14.3 -39.7,47.4 -35.1,70.6"
       inkscape:connector-curvature="0" /></g></svg>