<?xml version="1.0" encoding="iso-8859-1"?>
<!-- Generator: Adobe Illustrator 16.0.0, SVG Export Plug-In . SVG Version: 6.00 Build 0)  -->
<!DOCTYPE svg PUBLIC "-//W3C//DTD SVG 1.1//EN" "http://www.w3.org/Graphics/SVG/1.1/DTD/svg11.dtd">
<svg version="1.1" id="Layer_1" xmlns="http://www.w3.org/2000/svg" xmlns:xlink="http://www.w3.org/1999/xlink" x="0px" y="0px"
	 width="800px" height="800px" viewBox="0 0 800 800" style="enable-background:new 0 0 800 800;" xml:space="preserve">
<g id="white_rook">
	<g id="silhouette_3_">
		<path style="fill:#FFFFFF;" d="M400.4,708.3c-57.1,0-110.8-5.8-151.2-16.5c-45.5-12-68.5-28.4-68.5-48.6V582
			c0-28.4,44.1-46.2,74.7-55.3l8.1-172.4c-3.2-2.6-5.6-5.3-7.3-8.1l-0.2-0.3l-24.7-52.8c-19.3-9.5-19.3-19-19.3-22.2V145.3h74.5
			v50.8h43.2v-50.3l137.2,0.1v50.2H510v-50.8h75.6v125.4c0,7.8-4.2,14.5-13,19.9L548.6,346l-0.4,0.8c-2.1,3.1-5,6-8.5,8.6l7.6,170.9
			c21.1,6,38.8,13.5,51.5,21.6c16.5,10.5,24.8,21.9,24.8,34.1c0,0.8,0,1.6-0.1,2.5l-0.1,58.6c0,20.2-23.4,36.6-69.6,48.6
			C512.9,702.4,458.3,708.3,400.4,708.3z"/>
		<path d="M576,155v115.7c0,4.5-3.2,9-10.9,13.1l-24.9,57.7c-2.2,3.2-5.6,6.2-10.4,9l8.2,183.5c47.2,12.5,76,30.8,76,48.2
			c0,0.6,0,1.3-0.1,1.9l-0.1,59.3c0,30.6-95,55.4-213.3,55.4c-116.6,0-210-24.7-210-55.4v-61.2l0,0c0-17.2,28.2-35.3,74.4-47.8
			l8.6-184.7c-4.1-2.6-7.2-5.3-8.9-8.1l-26-55.7c-10.4-4.5-16.8-9.6-16.8-15V155H277v50.8h62.6v-50.3l117.7,0.1v50.2H520V155H576
			 M595.5,135.6h-19h-56.2h-19.9v19.5v31.2h-23.8v-30.8v-19.4h-19.4L339.7,136h-19.7v19.4v30.9h-23.8v-31.2v-19.5h-19.5h-55.2h-19.2
			v19.5v115.6c0,15.4,12.5,24.6,21.6,29.5l23.1,49.4l0.3,0.8l0.4,0.8c1.5,2.6,3.5,5.1,5.8,7.5l-7.6,160.8
			c-18.7,5.9-34.2,12.9-46.2,20.5c-8.3,5.3-14.9,11.1-19.5,17.1c-6.2,7.9-9.3,16.2-9.3,24.9v61.3c0,18.3,13.9,30.8,25.5,38
			c12.2,7.7,29.1,14.4,50.2,20c41.1,10.9,95.7,16.8,153.7,16.8c58.8,0,114-5.9,155.8-16.8c21.4-5.6,38.6-12.3,50.9-19.9
			c11.9-7.3,25.9-19.9,25.9-38.1l0.1-58.2c0.1-1.1,0.1-2.1,0.1-3c0-8.7-3.1-17.3-9.4-25.2c-4.8-6-11.4-11.8-19.9-17.2
			c-12.3-7.8-28.2-14.7-47.3-20.6l-7-159.1c2.7-2.4,5-5,6.8-7.8l1-1.4l0.6-1.6l22.5-52.1c12.3-8.7,14.9-18.9,14.9-26.4V155.1V135.6
			L595.5,135.6z"/>
	</g>
	<g id="base_2_">
		<path id="bottom" style="fill:#FFFFFF;stroke:#000000;stroke-width:18.36;stroke-linecap:round;stroke-miterlimit:10;" d="
			M191,581.6v61.6c0,30.6,93.1,55.4,209.6,55.4c118.3,0,213.2-24.8,213.2-55.4l-0.3-61.3"/>
		<path id="top" style="fill:#FFFFFF;stroke:#000000;stroke-width:21.6;stroke-miterlimit:10;" d="M613.9,582
			c0,30.6-94.5,55.4-211.1,55.4c-116.6,0-211.1-24.8-211.1-55.4s87.5-64,211.1-64C524.4,517.9,613.9,551.3,613.9,582z"/>
	</g>
	<path id="middle_7_" style="fill:#FFFFFF;stroke:#000000;stroke-width:15.12;stroke-miterlimit:10;" d="M275.8,260.9l-10.5,280.6
		c0,19.7,62.1,34.1,136.8,34.1c74.8,0,136.1-14.4,136.1-33.9l-14.9-280.8H275.8L275.8,260.9z"/>
	<path id="top_bottom_3_" style="fill:#FFFFFF;stroke:#000000;stroke-width:15.12;stroke-miterlimit:10;" d="M231.3,268.1l33.8,73.1
		c9.5,16.5,61.6,28.5,137.6,28.5c76,0,126.4-11.7,137.6-28.5l32.8-73.1"/>
	<path id="top_11_" style="fill:#FFFFFF;stroke:#000000;stroke-width:19.44;stroke-linecap:square;stroke-miterlimit:10;" d="
		M522,154v50.8h-63.7v-49.1l-116.6-0.1v49.2H278V154h-55.1v116.7c0,20.1,83.1,36.4,178.5,36.4c95.5,0,176.8-16.3,176.8-36.4V154H522
		z"/>
</g>
</svg>
