<svg xmlns:xlink="http://www.w3.org/1999/xlink" fill-rule="evenodd" clip-rule="evenodd" image-rendering="optimizeQuality" shape-rendering="geometricPrecision" text-rendering="geometricPrecision" viewBox="0 0 188.98 188.98">
  <defs>
    <linearGradient id="b" x1="3850.3782" x2="3850.3782" y1="-424.80612" y2="-307.16516" gradientUnits="userSpaceOnUse" xlink:href="#a"/>
    <linearGradient id="a" x1="-158.56081" x2="-126.5353" y1="1043.2401" y2="1043.2401" gradientTransform="matrix(2.9386 0 0 -2.8481 3133.4426 2816.9734)" gradientUnits="userSpaceOnUse">
      <stop offset="0" stop-color="#3c3c3c"/>
      <stop offset="1"/>
    </linearGradient>
    <filter id="c" color-interpolation-filters="sRGB">
      <feGaussianBlur result="blur" stdDeviation="0.01 0.01"/>
    </filter>
  </defs>
  <g stroke-width=".79779088" transform="matrix(1.28698 0 0 1.22086 -4860.8636 541.30873)">
    <path fill="#e5e4e4" d="M3863.9-346h0-22.7 22.7z" class="st4"/>
    <path fill="url(#b)" stroke="#fff" stroke-width="2.41221809" d="M3850.4-321.4c-.6 2.7-1.5 4.5-2.4 5.5-11.5 14.1-21.2.6-35.7 4.9-1.5.4-2.7 1.1-3.5 1.9l-6.8-11.1c18.2-16.7 29.8 1.3 38.8-9.1-2.5-.3-5-.7-7.6-1.4-2.3-.6-4.6-1.3-6.8-2.1 0 0 4.7025-12.12974 3.3-18.1-.9041-3.84857-5.2098-6.02782-7.1-9.5-1.0539-1.936-2-4.2-2.3-6.2-.3-1.8-.5-3.6-.5-5.4 0-2.8.7-5.9 2-9.3 3.5-7.4 10.2-11.2 15.9-16 3-2.6 5.8-5.4 8.3-8.3-3.4-1.8-5.2-4.6-5.2-8.5 0-2.6.9-4.9 2.8-6.7 1.8-1.9 4.1-2.8 6.8-2.8 2.6 0 4.9.9 6.7 2.8 1.9 1.9 2.8 4.1 2.8 6.7 0 3.8-1.7 6.6-5.2 8.5 2.5 3 5.3 5.8 8.2 8.3 5.7 5 13.2 9.1 15.9 16 1.3 3.4 2 6.5 2 9.3 0 1.6-.1 3.4-.5 5.4-.3 2-1.2526 4.26043-2.3 6.2-1.869 3.46109-6.1134 5.66774-7 9.5-1.3823 5.97498 3.3 18.1 3.3 18.1-2.1.7-4.4 1.5-6.9 2.1-2.6.7-5 1.2-7.4 1.4 11.5 14.2 25.7-5.4 38.8 9.1l-6.9 11.1c-16.5-9.4-22.8 9.4-39.3-7-.8-.9-1.6-2.7-2.2-5.3z" class="st14"/>
    <g class="st18" filter="url(#c)" transform="translate(1130 -64)">
      <ellipse cx="2720.3" cy="-271.39999" fill="#fafafa" class="st15" rx="16.299999" ry="2.5"/>
    </g>
    <circle cx="3850.3999" cy="-414.79999" r="3.5" fill="#fafafa" class="st15"/>
    <path fill="#fff" d="M3847.2404-382.07614v7.54082h-7.7018v5.60806h7.7018v7.8035h6.3191v-7.71294l7.7019-.0906v-5.60805h-7.7019v-7.5409z" class="st14" paint-order="markers fill stroke"/>
  </g>
</svg>
