<?xml version="1.0" encoding="UTF-8" standalone="no"?>
<svg
   xmlns:dc="http://purl.org/dc/elements/1.1/"
   xmlns:cc="http://creativecommons.org/ns#"
   xmlns:rdf="http://www.w3.org/1999/02/22-rdf-syntax-ns#"
   xmlns:svg="http://www.w3.org/2000/svg"
   xmlns="http://www.w3.org/2000/svg"
   xmlns:sodipodi="http://sodipodi.sourceforge.net/DTD/sodipodi-0.dtd"
   xmlns:inkscape="http://www.inkscape.org/namespaces/inkscape"
   clip-rule="evenodd"
   fill-rule="evenodd"
   height="50mm"
   image-rendering="optimizeQuality"
   shape-rendering="geometricPrecision"
   text-rendering="geometricPrecision"
   viewBox="0 0 50 50"
   width="50mm"
   version="1.1"
   id="svg11"
   sodipodi:docname="bK.svg"
   inkscape:version="0.92.4 (5da689c313, 2019-01-14)">
  <metadata
     id="metadata17">
    <rdf:RDF>
      <cc:Work
         rdf:about="">
        <dc:format>image/svg+xml</dc:format>
        <dc:type
           rdf:resource="http://purl.org/dc/dcmitype/StillImage" />
      </cc:Work>
    </rdf:RDF>
  </metadata>
  <defs
     id="defs15">
    <clipPath
       clipPathUnits="userSpaceOnUse"
       id="clipPath1574-7">
      <path
         style="opacity:0.03999999;fill:#ffffff;fill-opacity:1;stroke:#000000;stroke-width:0.26458332px;stroke-linecap:butt;stroke-linejoin:miter;stroke-opacity:1"
         d="m 475.65439,117.99476 c 2.93706,4.38098 -0.95739,18.47021 2.18424,24.53438 9.61747,17.12089 2.16427,16.29369 -11.46119,17.62547 -0.39508,2.82461 25.04315,3.08876 27.47631,0.36807 2.5199,-3.67231 2.99583,-8.26777 3.83686,-12.53181 0.91154,-4.97557 2.16035,-10.04246 1.35739,-15.12943 -0.17171,-9.84028 -21.59262,-20.19748 -23.39361,-14.86668 z"
         id="path1576-1"
         inkscape:connector-curvature="0"
         sodipodi:nodetypes="ccccccc" />
    </clipPath>
    <clipPath
       clipPathUnits="userSpaceOnUse"
       id="clipPath1570-4">
      <path
         style="opacity:0.03999999;fill:#ffffff;fill-opacity:1;stroke:#000000;stroke-width:0.26458332px;stroke-linecap:butt;stroke-linejoin:miter;stroke-opacity:1"
         d="m 475.65439,117.99476 c 2.93706,4.38098 -0.95739,18.47021 2.18424,24.53438 9.61747,17.12089 2.16427,16.29369 -11.46119,17.62547 -0.39508,2.82461 25.04315,3.08876 27.47631,0.36807 2.5199,-3.67231 2.99583,-8.26777 3.83686,-12.53181 0.91154,-4.97557 2.16035,-10.04246 1.35739,-15.12943 -0.17171,-9.84028 -21.59262,-20.19748 -23.39361,-14.86668 z"
         id="path1572-3"
         inkscape:connector-curvature="0"
         sodipodi:nodetypes="ccccccc" />
    </clipPath>
    <clipPath
       clipPathUnits="userSpaceOnUse"
       id="clipPath1574-7-3">
      <path
         style="opacity:0.03999999;fill:#ffffff;fill-opacity:1;stroke:#000000;stroke-width:0.26458332px;stroke-linecap:butt;stroke-linejoin:miter;stroke-opacity:1"
         d="m 475.65439,117.99476 c 2.93706,4.38098 -0.95739,18.47021 2.18424,24.53438 9.61747,17.12089 2.16427,16.29369 -11.46119,17.62547 -0.39508,2.82461 25.04315,3.08876 27.47631,0.36807 2.5199,-3.67231 2.99583,-8.26777 3.83686,-12.53181 0.91154,-4.97557 2.16035,-10.04246 1.35739,-15.12943 -0.17171,-9.84028 -21.59262,-20.19748 -23.39361,-14.86668 z"
         id="path1576-1-6"
         inkscape:connector-curvature="0"
         sodipodi:nodetypes="ccccccc" />
    </clipPath>
    <clipPath
       clipPathUnits="userSpaceOnUse"
       id="clipPath1574-7-6">
      <path
         style="opacity:0.03999999;fill:#ffffff;fill-opacity:1;stroke:#000000;stroke-width:0.26458332px;stroke-linecap:butt;stroke-linejoin:miter;stroke-opacity:1"
         d="m 475.65439,117.99476 c 2.93706,4.38098 -0.95739,18.47021 2.18424,24.53438 9.61747,17.12089 2.16427,16.29369 -11.46119,17.62547 -0.39508,2.82461 25.04315,3.08876 27.47631,0.36807 2.5199,-3.67231 2.99583,-8.26777 3.83686,-12.53181 0.91154,-4.97557 2.16035,-10.04246 1.35739,-15.12943 -0.17171,-9.84028 -21.59262,-20.19748 -23.39361,-14.86668 z"
         id="path1576-1-7"
         inkscape:connector-curvature="0"
         sodipodi:nodetypes="ccccccc" />
    </clipPath>
    <clipPath
       clipPathUnits="userSpaceOnUse"
       id="clipPath1574-7-8">
      <path
         style="opacity:0.03999999;fill:#ffffff;fill-opacity:1;stroke:#000000;stroke-width:0.26458332px;stroke-linecap:butt;stroke-linejoin:miter;stroke-opacity:1"
         d="m 475.65439,117.99476 c 2.93706,4.38098 -0.95739,18.47021 2.18424,24.53438 9.61747,17.12089 2.16427,16.29369 -11.46119,17.62547 -0.39508,2.82461 25.04315,3.08876 27.47631,0.36807 2.5199,-3.67231 2.99583,-8.26777 3.83686,-12.53181 0.91154,-4.97557 2.16035,-10.04246 1.35739,-15.12943 -0.17171,-9.84028 -21.59262,-20.19748 -23.39361,-14.86668 z"
         id="path1576-1-0"
         inkscape:connector-curvature="0"
         sodipodi:nodetypes="ccccccc" />
    </clipPath>
    <clipPath
       clipPathUnits="userSpaceOnUse"
       id="clipPath1574-7-1">
      <path
         style="opacity:0.03999999;fill:#ffffff;fill-opacity:1;stroke:#000000;stroke-width:0.26458332px;stroke-linecap:butt;stroke-linejoin:miter;stroke-opacity:1"
         d="m 475.65439,117.99476 c 2.93706,4.38098 -0.95739,18.47021 2.18424,24.53438 9.61747,17.12089 2.16427,16.29369 -11.46119,17.62547 -0.39508,2.82461 25.04315,3.08876 27.47631,0.36807 2.5199,-3.67231 2.99583,-8.26777 3.83686,-12.53181 0.91154,-4.97557 2.16035,-10.04246 1.35739,-15.12943 -0.17171,-9.84028 -21.59262,-20.19748 -23.39361,-14.86668 z"
         id="path1576-1-66"
         inkscape:connector-curvature="0"
         sodipodi:nodetypes="ccccccc" />
    </clipPath>
    <clipPath
       clipPathUnits="userSpaceOnUse"
       id="clipPath5066-9-9">
      <path
         sodipodi:nodetypes="cccssccccccccccc"
         style="fill:none;stroke:#000000;stroke-width:1px;stroke-linecap:butt;stroke-linejoin:miter;stroke-opacity:1"
         d="m 3085.0002,-1299.5001 c 5.9973,10.5203 12.5229,20.7454 19.8222,30.3944 7.3172,6.2128 3.5627,28.827 4.5498,25.8181 5.6561,-19.6575 70.6886,18.2111 29.7891,43.329 -4.4913,2.7583 -0.6552,10.11 -2.1869,14.494 -8.8562,25.3479 -52.4514,27.2891 -74.9014,35.6642 25.3392,2.8116 71.6308,10.6018 93.9169,2.3574 9.1336,-2.1795 -0.4175,-14.3461 5.3707,-22.4189 8.7746,-9.8358 14.3524,-21.9876 21.698,-32.8046 5.1834,-12.8157 3.9272,-27.0128 3.6312,-40.5086 -1.6908,-11.1004 -5.5014,-21.8088 -9.6449,-32.1943 -4.2267,-10.6527 -14.5846,-16.2547 -22.6061,-23.6595 -7.8474,-6.3159 -16.0734,-13.6565 -26.5732,-14.4715 -8.7452,-1.3301 -17.6563,-3.1725 -26.4965,-2.5801 -6.6526,0.5153 -24.893,9.1839 -16.3703,16.5804 z"
         id="path5068-6-7"
         inkscape:connector-curvature="0" />
    </clipPath>
    <clipPath
       clipPathUnits="userSpaceOnUse"
       id="clipPath5066-9-9-4">
      <path
         sodipodi:nodetypes="cccssccccccccccc"
         style="fill:none;stroke:#000000;stroke-width:1px;stroke-linecap:butt;stroke-linejoin:miter;stroke-opacity:1"
         d="m 3085.0002,-1299.5001 c 5.9973,10.5203 12.5229,20.7454 19.8222,30.3944 7.3172,6.2128 3.5627,28.827 4.5498,25.8181 5.6561,-19.6575 70.6886,18.2111 29.7891,43.329 -4.4913,2.7583 -0.6552,10.11 -2.1869,14.494 -8.8562,25.3479 -52.4514,27.2891 -74.9014,35.6642 25.3392,2.8116 71.6308,10.6018 93.9169,2.3574 9.1336,-2.1795 -0.4175,-14.3461 5.3707,-22.4189 8.7746,-9.8358 14.3524,-21.9876 21.698,-32.8046 5.1834,-12.8157 3.9272,-27.0128 3.6312,-40.5086 -1.6908,-11.1004 -5.5014,-21.8088 -9.6449,-32.1943 -4.2267,-10.6527 -14.5846,-16.2547 -22.6061,-23.6595 -7.8474,-6.3159 -16.0734,-13.6565 -26.5732,-14.4715 -8.7452,-1.3301 -17.6563,-3.1725 -26.4965,-2.5801 -6.6526,0.5153 -24.893,9.1839 -16.3703,16.5804 z"
         id="path5068-6-7-5"
         inkscape:connector-curvature="0" />
    </clipPath>
  </defs>
  <sodipodi:namedview
     pagecolor="#ffffff"
     bordercolor="#666666"
     borderopacity="1"
     objecttolerance="10"
     gridtolerance="10"
     guidetolerance="10"
     inkscape:pageopacity="0"
     inkscape:pageshadow="2"
     inkscape:window-width="958"
     inkscape:window-height="991"
     id="namedview13"
     showgrid="false"
     inkscape:zoom="2.0048589"
     inkscape:cx="67.967255"
     inkscape:cy="-1.2954192"
     inkscape:window-x="122"
     inkscape:window-y="184"
     inkscape:window-maximized="0"
     inkscape:current-layer="svg11"
     inkscape:snap-bbox="true"
     inkscape:bbox-paths="true"
     inkscape:bbox-nodes="true"
     inkscape:snap-bbox-edge-midpoints="true"
     inkscape:snap-bbox-midpoints="true"
     inkscape:object-paths="true"
     inkscape:snap-intersection-paths="true"
     inkscape:snap-smooth-nodes="true"
     inkscape:snap-midpoints="true"
     inkscape:snap-object-midpoints="false"
     inkscape:snap-center="false"
     inkscape:snap-nodes="false" />
  <linearGradient
     id="a"
     gradientUnits="userSpaceOnUse"
     x1="21.13"
     x2="77.764"
     y1="37.224"
     y2="37.469">
    <stop
       offset="0"
       stop-color="#fff"
       id="stop2" />
    <stop
       offset="1"
       stop-color="#fff"
       stop-opacity="0"
       id="stop4" />
  </linearGradient>
  <path
     style="clip-rule:evenodd;fill:#282828;fill-opacity:1;fill-rule:evenodd;stroke:#0a0a0a;stroke-width:0.80000007;stroke-miterlimit:4;stroke-dasharray:none;stroke-opacity:1;paint-order:normal;image-rendering:optimizeQuality;shape-rendering:geometricPrecision;text-rendering:geometricPrecision"
     d="m 25.000069,3.1837901 c -0.769752,0 -1.166257,0.4134776 -1.166257,1.2561728 v 1.9906324 h -1.825598 c -0.725594,0 -1.088708,0.388964 -1.088708,1.1713448 v 0.035298 c 0,0.7922365 0.363114,1.1831108 1.088708,1.1831108 l 1.80295,0.037288 0.0095,1.4759831 h -0.454025 c -1.866371,0.328073 -3.125761,1.144617 -3.152378,3.209015 0,0.2892 0.03535,0.670652 0.103664,1.145775 -0.23376,-0.15834 -0.468551,-0.297825 -0.686038,-0.41036 -0.78158,-0.362792 -1.805358,-0.791755 -3.082423,-1.275631 -1.459706,-0.529934 -2.770716,-0.827709 -3.943138,-0.903084 -2.9962739,-0.149516 -5.3758835,0.829017 -7.1217101,2.915137 -1.7109811,2.076138 -2.509811,4.161327 -2.3878381,6.246315 0.1303602,2.169687 0.720672,4.013669 1.7536318,5.539989 0.338455,0.493805 0.7214394,0.949494 1.1471011,1.378355 0.5537199,0.556458 1.1210131,1.096954 1.7022762,1.620075 0.9317037,0.855313 2.3764611,1.557368 3.3411581,2.148042 v 9.671976 c 3.854873,2.192997 10.572062,2.40659 13.77532,2.424526 2.574634,-0.18425 12.740957,-0.62585 13.775293,-2.424526 v -9.382722 c 0.195685,-0.123595 0.343958,-0.228913 0.354885,-0.281083 0.964592,-0.592812 2.417948,-1.298132 3.3537,-2.157221 0.581236,-0.523145 1.149059,-1.063614 1.702805,-1.620097 0.425662,-0.428889 0.808143,-0.884028 1.146598,-1.37783 1.032987,-1.526345 1.623246,-3.37025 1.753632,-5.539989 0.121973,-2.084964 -0.676883,-4.170177 -2.387838,-6.246291 -1.745879,-2.086145 -4.12541,-3.064174 -7.12171,-2.914658 -1.172448,0.07538 -2.483406,0.373152 -3.943138,0.903084 -1.277012,0.483875 -2.30087,0.912839 -3.082422,1.27563 -0.217488,0.112535 -0.452306,0.251015 -0.686065,0.409358 0.06826,-0.475149 0.10369,-0.856073 0.10369,-1.145273 -0.02667,-2.064271 -1.286007,-2.880439 -3.152378,-3.208512 h -0.454025 l 0.01005,-1.4759831 1.80348,-0.037288 c 0.725619,0 1.088204,-0.3908769 1.088204,-1.1831108 v -0.035298 c 0,-0.7823808 -0.362585,-1.171874 -1.088204,-1.171874 H 26.166723 V 4.4399629 c 0,-0.8426952 -0.396478,-1.2560961 -1.166231,-1.2561728 z"
     id="path2367-9-1"
     inkscape:connector-curvature="0"
     sodipodi:nodetypes="sscsssccccccccccccccccccccccccccccccccccssscscs" />
  <path
     style="clip-rule:evenodd;fill:#fafafa;fill-opacity:1;fill-rule:evenodd;stroke:none;stroke-width:0.98523521;stroke-miterlimit:4;stroke-dasharray:none;stroke-opacity:1;image-rendering:optimizeQuality;shape-rendering:geometricPrecision;text-rendering:geometricPrecision"
     d="m 37.634532,14.250795 c -1.546119,0 -3.153066,0.32631 -4.836107,0.978358 -1.528869,0.585821 -2.627789,1.221954 -3.324728,1.906608 -1.42539,1.347513 -2.465255,3.112019 -3.117585,5.295337 -0.249582,0.752787 -0.386371,1.705977 -0.412777,2.86875 -0.02619,1.162796 -0.04281,2.057683 -0.04281,2.693889 2.88626,0.04943 5.257032,0.191932 7.103427,0.418179 1.838299,0.226224 3.505332,0.501576 4.981443,0.81079 0.920141,-0.886188 1.941459,-1.722597 3.066547,-2.525795 1.125088,-0.803169 1.915372,-1.488956 2.370905,-2.057982 0.799438,-1.06203 1.203245,-2.383845 1.203245,-3.972414 0,-1.447348 -0.360838,-2.668673 -1.082146,-3.647734 -1.288415,-1.8474 -3.264667,-2.767984 -5.909495,-2.767984 z m -0.884793,1.981755 c 0.943424,0 1.871503,0.159073 2.80789,0.477187 0.928264,0.318093 1.632559,0.803473 2.096267,1.464395 0.420979,0.552233 0.6359,1.44609 0.6359,2.692834 0,0.978056 -0.413015,1.889916 -1.237774,2.743469 a 40.935116,39.86268 0 0 1 -1.734529,1.630958 c -0.61886,0.543386 -1.219411,1.187836 -1.785514,1.923807 -0.971947,-0.326012 -2.328307,-0.585296 -4.064158,-0.761161 -1.734794,-0.183759 -3.642281,-0.284351 -5.729156,-0.31794 8e-5,-0.477112 0.06099,-1.145399 0.162322,-2.02407 0.112607,-0.869371 0.28411,-1.556136 0.516335,-2.049111 0.627036,-1.321842 1.511723,-2.543042 2.671339,-3.67225 0.334724,-0.325985 1.057407,-0.76963 2.16527,-1.32189 a 7.7660057,7.5625475 0 0 1 3.495808,-0.786228 z"
     id="path1187-67-9-8-7-9-6"
     inkscape:connector-curvature="0" />
  <path
     style="clip-rule:evenodd;fill:#fafafa;fill-opacity:1;fill-rule:evenodd;stroke:none;stroke-width:0.98523521;stroke-miterlimit:4;stroke-dasharray:none;stroke-opacity:1;image-rendering:optimizeQuality;shape-rendering:geometricPrecision;text-rendering:geometricPrecision"
     d="m 12.364098,14.200662 c -2.6458064,0 -4.6130363,0.919678 -5.8842269,2.769065 -0.7213071,0.97803 -1.0821459,2.20808 -1.0821459,3.671168 0,1.606367 0.4038071,2.919031 1.2032457,3.948427 0.4210314,0.584843 1.2273491,1.312942 2.4214137,2.183292 1.1859414,0.861475 2.1993754,1.663993 3.0150324,2.401017 1.460871,-0.310222 3.109648,-0.578231 4.94792,-0.812348 1.838272,-0.226224 4.209204,-0.359524 7.111683,-0.393115 0,-0.652021 -0.01746,-1.555732 -0.05101,-2.701708 -0.03448,-1.153896 -0.163168,-2.116389 -0.378248,-2.884967 -0.686832,-2.183317 -1.72683,-3.948832 -3.126846,-5.286486 -0.721307,-0.686614 -1.821101,-1.330642 -3.315467,-1.91649 -1.70942,-0.652021 -3.33248,-0.977855 -4.861349,-0.977855 z m 0.83275,2.031888 c 1.211236,0 2.361644,0.259663 3.469508,0.786228 1.091618,0.553239 1.813322,0.995905 2.165323,1.32189 1.142339,1.129208 2.036207,2.351389 2.671313,3.67225 0.21508,0.49393 0.378486,1.17974 0.490061,2.049111 0.111548,0.878721 0.172297,1.546958 0.188569,2.02407 -2.095924,0.03369 -4.011428,0.134184 -5.755402,0.31794 -1.734741,0.175865 -3.074088,0.435149 -4.036854,0.761161 A 19.248129,18.743856 0 0 0 10.645577,25.333262 33.485637,32.608361 0 0 1 8.8935589,23.610435 c -0.8420893,-0.83676 -1.2537281,-1.748618 -1.2537281,-2.743469 0,-1.229974 0.2055813,-2.123779 0.6265863,-2.692834 0.4464579,-0.661924 1.1515725,-1.146302 2.0880389,-1.464395 a 8.6090563,8.3835115 0 0 1 2.842392,-0.477187 z"
     id="path1193-4-5-2-0-5-8"
     inkscape:connector-curvature="0" />
  <path
     style="clip-rule:evenodd;fill:#fafafa;fill-opacity:1;fill-rule:evenodd;stroke:none;stroke-width:0.2606768px;stroke-linecap:butt;stroke-linejoin:miter;stroke-opacity:1;image-rendering:optimizeQuality;shape-rendering:geometricPrecision;text-rendering:geometricPrecision"
     d="m 22.780241,14.01381 c -0.448177,1.487123 2.219696,4.107273 2.219696,4.107273 0,0 2.667899,-2.62015 2.219722,-4.107273 -0.850927,-1.703414 -3.995341,-1.151154 -4.439418,0 z"
     id="path5716-6-0-0-0-4"
     inkscape:connector-curvature="0"
     sodipodi:nodetypes="cccc" />
  <path
     style="clip-rule:evenodd;opacity:0.15;fill:#000000;fill-opacity:1;fill-rule:evenodd;stroke:none;stroke-width:4.53543377;stroke-miterlimit:4;stroke-dasharray:none;stroke-opacity:1;paint-order:normal;image-rendering:optimizeQuality;shape-rendering:geometricPrecision;text-rendering:geometricPrecision"
     d="m 3095.7345,-1302.9226 c -2.9869,0 -4.5254,1.6446 -4.5254,4.9964 v 7.9177 h -7.084 c -2.8156,0 -4.2246,1.5471 -4.2246,4.659 v 0.1404 c 0,3.1511 1.409,4.7058 4.2246,4.7058 l 6.9961,0.1483 0.037,5.8707 h -1.7617 c -7.2422,1.3049 -12.1291,4.5527 -12.2324,12.7638 0,1.1503 0.1372,2.6675 0.4023,4.5573 -0.9071,-0.6298 -1.8182,-1.1846 -2.6621,-1.6322 -3.0328,-1.443 -7.0055,-3.1492 -11.9609,-5.0738 -5.6642,-2.1078 -10.7514,-3.2922 -15.3008,-3.592 -11.6266,-0.5947 -20.8603,3.2974 -27.6348,11.5949 -6.6392,8.2578 -9.7389,16.5516 -9.2656,24.8446 0.5058,8.6299 2.7964,15.9643 6.8047,22.0352 1.3133,1.9641 2.7994,3.7766 4.4511,5.4824 2.1487,2.2133 4.35,4.3631 6.6055,6.4438 3.6153,3.402 9.2215,6.1944 12.9649,8.5438 v 38.4701 h 0.582 c 1.402,5.3997 24.6525,9.6406 52.8711,9.6435 28.2034,-0.01 51.4328,-4.2468 52.834,-9.6435 h 0.6191 v -37.3196 c 0.7593,-0.4916 1.3346,-0.9105 1.377,-1.118 3.743,-2.3579 9.3825,-5.1633 13.0136,-8.5803 2.2554,-2.0808 4.4588,-4.2305 6.6075,-6.4439 1.6517,-1.7059 3.1359,-3.5162 4.4492,-5.4803 4.0083,-6.071 6.2988,-13.4051 6.8047,-22.0352 0.4733,-8.2929 -2.6265,-16.5868 -9.2657,-24.8445 -6.7746,-8.2976 -16.008,-12.1877 -27.6347,-11.593 -4.5495,0.2998 -9.6365,1.4842 -15.3008,3.592 -4.9553,1.9246 -8.9282,3.6308 -11.9609,5.0738 -0.8439,0.4476 -1.7551,0.9984 -2.6622,1.6282 0.2649,-1.8899 0.4024,-3.405 0.4024,-4.5553 -0.1035,-8.2106 -4.9902,-11.4569 -12.2324,-12.7618 h -1.7618 l 0.039,-5.8707 6.9981,-0.1483 c 2.8157,0 4.2226,-1.5547 4.2226,-4.7058 v -0.1404 c 0,-3.1119 -1.4069,-4.6611 -4.2226,-4.6611 h -7.086 v -7.9156 c 0,-3.3518 -1.5385,-4.9961 -4.5254,-4.9964 z"
     id="path2367-9-9-1-0-8"
     inkscape:connector-curvature="0"
     sodipodi:nodetypes="sscsssccccccccccccccccccccccccccccccccccccssscscs"
     clip-path="url(#clipPath5066-9-9-4)"
     transform="matrix(0.25770829,0,0,0.25141539,-772.79645,330.7586)" />
  <ellipse
     style="opacity:1;fill:#fafafa;fill-opacity:1;fill-rule:evenodd;stroke:none;stroke-width:1.7873503;stroke-linecap:round;stroke-linejoin:round;stroke-miterlimit:4;stroke-dasharray:none;stroke-dashoffset:0;stroke-opacity:1;paint-order:markers stroke fill;shape-rendering:crispEdges"
     id="path5350-58-4"
     cx="24.999969"
     cy="41.497227"
     rx="11.282804"
     ry="1.0000001" />
  <path
     style="clip-rule:evenodd;fill:#fafafa;fill-opacity:1;fill-rule:evenodd;stroke:none;stroke-width:0.78415751;stroke-miterlimit:4;stroke-dasharray:none;stroke-opacity:1;image-rendering:optimizeQuality;shape-rendering:geometricPrecision;text-rendering:geometricPrecision"
     d="m 36.645202,37.898302 -0.04908,-3.604823 c -2.964366,-0.905518 -7.320915,-1.364428 -11.803751,-1.364428 -4.435951,0 -8.775938,0.45891 -11.756866,1.365646 l -0.09499,3.634355 c 2.886207,-1.176177 6.840511,-1.770429 11.87577,-1.770429 2.411941,0 4.661164,0.167314 6.723829,0.489659 2.069994,0.322357 3.774149,0.739437 5.105136,1.25002 z"
     id="path1191-9-7-3-2-8-1-5"
     inkscape:connector-curvature="0"
     sodipodi:nodetypes="ccsccscc" />
</svg>
