<?xml version="1.0" encoding="UTF-8" standalone="no"?>
<svg
   xmlns:dc="http://purl.org/dc/elements/1.1/"
   xmlns:cc="http://creativecommons.org/ns#"
   xmlns:rdf="http://www.w3.org/1999/02/22-rdf-syntax-ns#"
   xmlns:svg="http://www.w3.org/2000/svg"
   xmlns="http://www.w3.org/2000/svg"
   xmlns:xlink="http://www.w3.org/1999/xlink"
   xmlns:sodipodi="http://sodipodi.sourceforge.net/DTD/sodipodi-0.dtd"
   xmlns:inkscape="http://www.inkscape.org/namespaces/inkscape"
   id="svg27"
   viewBox="0 0 50 50"
   version="1.1"
   text-rendering="geometricPrecision"
   shape-rendering="geometricPrecision"
   image-rendering="optimizeQuality"
   fill-rule="evenodd"
   clip-rule="evenodd"
   height="50mm"
   width="50mm"
   sodipodi:docname="bN.svg"
   inkscape:version="0.92.4 (5da689c313, 2019-01-14)">
  <sodipodi:namedview
     pagecolor="#ffffff"
     bordercolor="#666666"
     borderopacity="1"
     objecttolerance="10"
     gridtolerance="10"
     guidetolerance="10"
     inkscape:pageopacity="0"
     inkscape:pageshadow="2"
     inkscape:window-width="725"
     inkscape:window-height="480"
     id="namedview19"
     showgrid="false"
     inkscape:zoom="1.2488333"
     inkscape:cx="94.488189"
     inkscape:cy="94.488189"
     inkscape:window-x="0"
     inkscape:window-y="0"
     inkscape:window-maximized="0"
     inkscape:current-layer="svg27" />
  <metadata
     id="metadata31">
    <rdf:RDF>
      <cc:Work
         rdf:about="">
        <dc:format>image/svg+xml</dc:format>
        <dc:type
           rdf:resource="http://purl.org/dc/dcmitype/StillImage" />
        <dc:title />
      </cc:Work>
    </rdf:RDF>
  </metadata>
  <defs
     id="defs7">
    <linearGradient
       gradientUnits="userSpaceOnUse"
       gradientTransform="matrix(.7588 0 0 -.7519 203.29 163.85)"
       y2="-632.67"
       y1="-632.67"
       x2="75.594"
       x1="37.769"
       id="linearGradient3610">
      <stop
         id="stop2"
         offset="0"
         style="stop-color:#303030" />
      <stop
         id="stop4"
         offset="1"
         style="stop-color:#1E1E1E" />
    </linearGradient>
    <linearGradient
       gradientTransform="matrix(0.3130819,0,0,0.32134085,-1135.4046,141.89856)"
       gradientUnits="userSpaceOnUse"
       y2="-304.62231"
       x2="3709.6265"
       y1="-422.94376"
       x1="3711.4849"
       id="linearGradient1260-9-6"
       xlink:href="#B" />
    <linearGradient
       gradientTransform="matrix(2.9386,0,0,-2.8481,3133.4426,2816.9734)"
       y2="1043.2401"
       x2="-126.5353"
       y1="1043.2401"
       x1="-158.56081"
       gradientUnits="userSpaceOnUse"
       id="B">
      <stop
         id="stop321"
         style="stop-color:#3c3c3c;stop-opacity:1"
         offset="0" />
      <stop
         id="stop323"
         style="stop-color:#000000;stop-opacity:1"
         offset="1" />
    </linearGradient>
  </defs>
  <path
     inkscape:connector-curvature="0"
     style="fill:url(#linearGradient1260-9-6);fill-opacity:1;stroke:#ffffff;stroke-width:0.79999995;stroke-miterlimit:4;stroke-dasharray:none;stroke-opacity:1"
     d="m 19.252943,6.4176877 c -0.720751,0.3216275 0.564092,2.9269796 0.376079,3.7954483 -0.376079,0.643281 -5.797232,-1.6082702 -5.421233,-1.0292825 0.12536,0.2251604 0.971444,2.2515245 3.164999,2.8948325 0.175868,0.499745 -3.343407,5.630651 -3.343407,5.630651 -0.720778,1.286589 -0.323083,1.831525 -1.169035,3.085941 -2.9143064,4.374409 -5.6718997,6.400774 -5.9539191,10.324862 -0.125386,1.801204 1.4101498,2.380192 3.5096711,3.409447 3.603705,3.119967 5.651712,-2.862659 7.688554,-4.310036 1.848882,-1.190122 4.344617,-1.125775 5.472721,-2.605352 -0.353298,8.283707 -6.005063,8.342101 -7.458049,15.985807 h 26.9807 V 41.830949 C 43.037344,34.593907 42.504579,27.067411 39.339607,20.730932 v 0 C 36.456654,15.2308 30.095357,10.759897 23.702732,9.7949616 22.950681,9.4733341 23.138667,8.1867448 21.853903,7.5756102 20.193087,6.674995 19.566342,6.4820079 19.252943,6.4176877 Z"
     class="st14"
     id="path5238-5-7-5" />
  <path
     inkscape:connector-curvature="0"
     style="fill:#fafafa;fill-opacity:1;stroke-width:0.31277111"
     d="m 39.372654,40.033503 c 0,0 0,-0.353457 0.0313,-1.092544 C 39.560508,27.244153 38.715164,16.1579 26.504961,13.74781 c 10.676096,6.748198 9.361143,16.002794 9.736852,26.285693 z"
     class="st15"
     id="path1064-4-0-1-7-4-7-0" />
  <path
     inkscape:connector-curvature="0"
     style="fill:#fafafa;fill-opacity:1;stroke-width:0.31277111"
     d="m 12.676143,31.746594 c 0.391768,-0.186584 0.50165,-0.08049 0.893312,0.349911 -0.539591,-0.01138 -2.642076,2.591065 -2.88753,2.424986 C 9.587,33.780684 9.3407258,35.488808 12.676143,31.746594 Z"
     class="st15"
     id="path1241-4-7-0-7-5-3-2-2" />
  <path
     inkscape:connector-curvature="0"
     style="fill:#fafafa;fill-opacity:1;stroke-width:0.31277111"
     d="M 9.4548406,28.293041 C 9.8442014,27.999009 10.01454,28.560402 9.8442014,29.121742 9.649521,29.442523 8.968166,29.923721 8.5301483,30.084085 7.9704752,30.297947 7.8001365,30.030639 9.4548406,28.293041 Z"
     class="st15"
     id="path1241-4-7-3-6-4-3-5-2-7" />
  <path
     inkscape:connector-curvature="0"
     style="fill:#fafafa;fill-opacity:1;stroke-width:0.31277111"
     d="m 24.689099,25.798099 c 1.847162,-1.124691 4.226586,-2.79564 3.130815,-5.398505 -0.313082,-0.706967 -1.314953,-3.920358 -2.191571,-2.924202 1.445895,4.265269 1.364668,4.541573 -1.221025,8.033518"
     class="st15"
     id="path1400-9-6-2-8-6-5" />
  <path
     inkscape:connector-curvature="0"
     style="fill:#fafafa;fill-opacity:1;stroke-width:0.34789756"
     d="m 16.638119,21.519363 c 0.03453,-0.222408 0.94115,-2.460307 1.227349,-1.346332 0.02276,0.141261 -0.481568,0.07392 -0.544724,0.336921 1.490239,0.71202 2.40239,-0.839179 1.703414,-1.889813 0.38436,-0.674106 1.433407,-0.509509 1.811893,-0.784728 0.160814,-0.748374 -1.169352,-0.471805 -1.553474,-0.449024 -3.26226,0.754088 -3.384339,5.006419 -2.644458,4.132976 z"
     class="st15"
     id="path1241-4-2-6-7-7-5" />
</svg>
