<svg xmlns:xlink="http://www.w3.org/1999/xlink" fill-rule="evenodd" clip-rule="evenodd" image-rendering="optimizeQuality" shape-rendering="geometricPrecision" text-rendering="geometricPrecision" viewBox="0 0 50 50">
  <defs>
    <linearGradient id="b" x1="3711.4849" x2="3709.6265" y1="-422.94376" y2="-304.62231" gradientTransform="matrix(.31308 0 0 .32134 -1135.4046 141.89856)" gradientUnits="userSpaceOnUse" xlink:href="#a"/>
    <linearGradient id="a" x1="-158.56081" x2="-126.5353" y1="1043.2401" y2="1043.2401" gradientTransform="matrix(2.9386 0 0 -2.8481 3133.4426 2816.9734)" gradientUnits="userSpaceOnUse">
      <stop offset="0" stop-color="#3c3c3c"/>
      <stop offset="1"/>
    </linearGradient>
  </defs>
  <path fill="url(#b)" stroke="#fff" stroke-width=".79999995" d="M19.252905 6.4176847c-.720751.3216275.564092 2.9269795.376079 3.7954483-.376079.643281-5.797233-1.6082702-5.421233-1.0292826.125359.2251604.971444 2.2515246 3.164999 2.8948326.175868.499745-3.343408 5.630651-3.343408 5.630651-.720778 1.28659-.323082 1.831525-1.169035 3.085941-2.9143057 4.37441-5.6718988 6.400774-5.9539181 10.324862-.1253861 1.801203 1.4101498 2.380191 3.5096711 3.409447 3.603704 3.119966 5.651712-2.862659 7.688554-4.310036 1.848881-1.190122 4.344617-1.125775 5.472721-2.605352-.353299 8.283707-6.005063 8.3421-7.458049 15.985807h26.980699v-1.769057c-.06268-7.237042-.595445-14.763537-3.760417-21.100017-2.882953-5.500132-9.24425-9.971035-15.636874-10.9359705-.752052-.3216274-.564065-1.6082168-1.848829-2.2193513-1.660816-.9006152-2.287561-1.0936023-2.60096-1.1579225z" class="st14"/>
  <path fill="#fafafa" d="M39.372614 40.033499s0-.353457.0313-1.092544c.156555-11.696805-.688789-22.783058-12.898991-25.193148 10.676095 6.748198 9.361142 16.002794 9.73685 26.285692zM12.676104 31.746591c.391769-.186584.50165-.08049.893313.349912-.539591-.01138-2.642076 2.591063-2.88753 2.424984-1.0949247-.740806-1.3411997.967317 1.994217-2.774896zM9.4548023 28.293038c.389361-.294032.5596997.267361.389361.828701-.19468.320781-.8760353.801979-1.314053.962343-.5596731.213863-.7300118-.05345.924692-1.791044zM24.689061 25.798096c1.847162-1.12469 4.226586-2.79564 3.130814-5.398505-.313081-.706967-1.314952-3.920358-2.19157-2.924201 1.445895 4.265268 1.364668 4.541573-1.221025 8.033517M16.638081 21.519361c.03453-.222409.941149-2.460308 1.227349-1.346333.02275.141261-.481568.07393-.544724.336921 1.490239.71202 2.40239-.839179 1.703414-1.889813.38436-.674106 1.433407-.509508 1.811893-.784728.160814-.748374-1.169352-.471805-1.553474-.449024-3.26226.754089-3.384339 5.006419-2.644458 4.132977z" class="st15"/>
</svg>
