<svg xmlns="http://www.w3.org/2000/svg" fill-rule="evenodd" clip-rule="evenodd" image-rendering="optimizeQuality" shape-rendering="geometricPrecision" text-rendering="geometricPrecision" viewBox="0 0 50 50"><defs><linearGradient id="a" x1="4127.2" x2="4235.7" y1="-2558.3" y2="-2558.3" gradientTransform="matrix(.26749 0 0 .26799 -1093.5 713.11)" gradientUnits="userSpaceOnUse"><stop offset="0" stop-color="#3c3c3c"/><stop offset="1"/></linearGradient><filter id="b" color-interpolation-filters="sRGB"><feFlood flood-color="#000" flood-opacity=".498" result="flood"/><feComposite in="flood" in2="SourceGraphic" operator="in" result="composite1"/><feGaussianBlur in="composite1" result="blur" stdDeviation=".3"/><feOffset dx="1" dy="1" result="offset"/><feComposite in="SourceGraphic" in2="offset" result="composite2"/></filter></defs><path fill="url(#a)" stroke="#e6e6e6" stroke-linecap="square" stroke-linejoin="round" stroke-width="1.1" d="M25.019 43.45H11.58c-2.466-5.724 4.072-11.03 8.668-12.832-5.493-3.074-2.515-10.911 2.192-11.547-1.12-.742-1.681-2.327-1.681-3.6 0-1.06.448-2.013 1.233-2.755.785-.742 1.793-1.166 3.026-1.166 1.121 0 2.13.424 3.026 1.166.785.742 1.233 1.696 1.233 2.756 0 1.272-.56 2.857-1.681 3.599 5.156 2.014 7.012 9.427 2.193 11.547 6.276 2.226 10.685 7.85 8.667 12.832z" class="st31" filter="url(#b)"/></svg>