<?xml version="1.0" encoding="UTF-8"?>
<svg width="50mm" height="50mm" clip-rule="evenodd" fill-rule="evenodd" image-rendering="optimizeQuality" shape-rendering="geometricPrecision" text-rendering="geometricPrecision" version="1.1" viewBox="0 0 50 50" xmlns="http://www.w3.org/2000/svg" xmlns:cc="http://creativecommons.org/ns#" xmlns:dc="http://purl.org/dc/elements/1.1/" xmlns:rdf="http://www.w3.org/1999/02/22-rdf-syntax-ns#" xmlns:xlink="http://www.w3.org/1999/xlink">
 <metadata>
  <rdf:RDF>
   <cc:Work rdf:about="">
    <dc:format>image/svg+xml</dc:format>
    <dc:type rdf:resource="http://purl.org/dc/dcmitype/StillImage"/>
    <dc:title/>
   </cc:Work>
  </rdf:RDF>
 </metadata>
 <defs>
  <filter id="filter2813-0-1-5-6" color-interpolation-filters="sRGB">
   <feGaussianBlur result="blur" stdDeviation="0.01 0.01"/>
  </filter>
  <linearGradient id="linearGradient1544-3-4" x1="4513.1" x2="4513.1" y1="-3069.2" y2="-2925.4" gradientTransform="matrix(.27569 0 0 .26116 -1219.2 807.61)" gradientUnits="userSpaceOnUse">
   <stop stop-color="#3c3c3c" offset="0"/>
   <stop offset="1"/>
  </linearGradient>
 </defs>
 <g>
  <path d="m25 6.55c-1.4126-5.2e-5 -2.5579 1.0884-2.5578 2.431 0 0.86408 0.62931 1.6628 1.4148 2.0979-0.63077 4.9146-1.5429 9.8131-2.2603 14.717l-4.1244-12.331c0.80034-0.43098 1.2955-1.2372 1.2969-2.1115 5.3e-5 -1.3424-1.1448-2.4308-2.5573-2.431-1.4127-7.9e-5 -2.5579 1.0884-2.5579 2.431 0.0026 1.1067 0.78933 2.0727 1.9166 2.3501l0.10787 13.097-5.7042-10.367c0.44281-0.44929 0.68974-1.0415 0.69096-1.6572 5.2e-5 -1.3426-1.1451-2.431-2.5578-2.431-1.4127-5.3e-5 -2.5579 1.0884-2.5579 2.431 0.0026 1.1921 0.91252 2.2072 2.1508 2.3969l2.6204 13.888 4.5477 6.5127-0.9993 3.7632c-0.04199 0.68178 4.8666 2.1125 11.131 2.1125 6.2644 0 11.173-1.4308 11.13-2.1125l-0.99925-3.7632 4.5477-6.5127 2.6199-13.886c1.239-0.18981 2.1502-1.206 2.1508-2.3989 5.3e-5 -1.3427-1.1452-2.4311-2.5579-2.431-1.4125 2.12e-4 -2.5573 1.0885-2.5573 2.431 0 0.61587 0.24725 1.2085 0.6899 1.6582l-5.7035 10.366 0.1089-13.096c1.1276-0.27752 1.9155-1.2441 1.9165-2.3511 5.3e-5 -1.3426-1.1451-2.431-2.5578-2.431-1.4127-5.3e-5 -2.5579 1.0884-2.5578 2.431 0 0.87479 0.49607 1.6817 1.2969 2.113l-4.1238 12.329-2.2044-14.718c0.78483-0.43495 1.3565-1.2329 1.3579-2.0963 2.6e-5 -1.3425-1.1449-2.4308-2.5574-2.431z" fill="url(#linearGradient1544-3-4)" stroke="#fff" stroke-linecap="round" stroke-linejoin="round" stroke-width="1.1"/>
  <path d="m24.94 29.222c-0.1397 0-0.25154 0.03196-0.27953 0.09628l-0.47577 1.72c-1.299 0.01508-2.5339 0.07403-3.6947 0.17931l-1.0826-1.2079c-0.08385-0.09644-0.47524-0.06411-0.47524 0.04842l0.32091 1.292c-0.07795 0.0095-0.16036 0.0164-0.23762 0.02646-1.2193 0.1569-2.1925 0.34843-3.0201 0.57825h-0.13684l-1.1176-0.57875c-0.02802-0.03212-0.08395-0.04839-0.11192-0.04839-0.13965-0.01614-0.25141 0.08067-0.25141 0.1289l0.60254 0.82328c0.25908 0.56155 0.51805 1.1232 0.77703 1.6848 1.0027-0.3126 2.281-0.52078 3.8852-0.65974 1.5792-0.13896 3.3339-0.20889 5.2138-0.20889 1.88 0 3.6345 0.06993 5.2388 0.20889 1.6042 0.13896 2.908 0.36438 3.9106 0.6944 0.30372-0.9425 0.7669-1.7392 1.3573-2.5269 0.0277-0.06429-0.19566-0.2086-0.36333-0.07996l-1.1181 0.57872h-0.19624c-0.79978-0.22307-1.7588-0.41262-2.9633-0.57719-0.07726-0.01058-0.157-0.01958-0.23498-0.02955l0.32089-1.3062c0-0.09649-0.39092-0.14486-0.47472-0.04842l-1.0799 1.2171c-1.1351-0.10734-2.3466-0.16624-3.6168-0.18542l-0.4731-1.723c0.0277-0.06432-0.08348-0.09628-0.22328-0.09628z" fill="#fff" stroke-width=".26532"/>
  <ellipse class="st15" transform="matrix(.2821 0 0 .27906 -1303.3 743.32)" cx="4708.7" cy="-2517.6" rx="32.126" ry="2.844" fill="#fff" filter="url(#filter2813-0-1-5-6)"/>
 </g>
</svg>
