<?xml version="1.0" encoding="UTF-8"?>
<svg width="50mm" height="50mm" clip-rule="evenodd" fill-rule="evenodd" image-rendering="optimizeQuality" shape-rendering="geometricPrecision" text-rendering="geometricPrecision" version="1.1" viewBox="0 0 50 50" xmlns="http://www.w3.org/2000/svg" xmlns:cc="http://creativecommons.org/ns#" xmlns:dc="http://purl.org/dc/elements/1.1/" xmlns:rdf="http://www.w3.org/1999/02/22-rdf-syntax-ns#" xmlns:xlink="http://www.w3.org/1999/xlink">
 <defs>
  <linearGradient id="linearGradient3015-1-4" x1="4513.1" x2="4513.1" y1="-3069.2" y2="-2925.4" gradientTransform="matrix(.27569 0 0 .26116 -1219.2 807.61)" gradientUnits="userSpaceOnUse">
   <stop stop-color="#3c3c3c" offset="0"/>
   <stop offset="1"/>
  </linearGradient>
  <filter id="filter2813-0-1-5-1-2-6" color-interpolation-filters="sRGB">
   <feGaussianBlur result="blur" stdDeviation="0.01 0.01"/>
  </filter>
 </defs>
 <metadata>
  <rdf:RDF>
   <cc:Work rdf:about="">
    <dc:format>image/svg+xml</dc:format>
    <dc:type rdf:resource="http://purl.org/dc/dcmitype/StillImage"/>
    <dc:title/>
   </cc:Work>
  </rdf:RDF>
 </metadata>
 <g clip-rule="evenodd" fill-rule="evenodd" shape-rendering="geometricPrecision">
  <path d="m25.001 6.5502c-1.4126-1e-4 -2.5579 1.0884-2.5578 2.431 0 0.8641 0.6293 1.6628 1.4148 2.0979-0.6308 4.9146-1.5429 9.8131-2.2603 14.717l-4.1244-12.331c0.8003-0.431 1.2955-1.2372 1.2969-2.1115 1e-4 -1.3424-1.1448-2.4308-2.5573-2.431-1.4127-1e-4 -2.5579 1.0884-2.5579 2.431 0 1.1067 0.7893 2.0727 1.9166 2.3501l0.1079 13.097-5.7042-10.367c0.4428-0.4493 0.6897-1.0415 0.6909-1.6572 1e-4 -1.3426-1.1451-2.431-2.5578-2.431-1.4127-1e-4 -2.5579 1.0884-2.5579 2.431 0 1.1921 0.9126 2.2072 2.1508 2.3969l2.6204 13.888 4.5477 6.5127-0.9993 3.7632c-0.042 0.6818 4.8666 2.1125 11.131 2.1125s11.173-1.4308 11.13-2.1125l-0.9992-3.7632 4.5477-6.5127 2.6199-13.886c1.239-0.1898 2.1502-1.206 2.1508-2.3989 0-1.3427-1.1452-2.4311-2.5579-2.431-1.4125 2e-4 -2.5573 1.0885-2.5573 2.431 0 0.6159 0.2472 1.2085 0.6899 1.6582l-5.7035 10.366 0.1089-13.096c1.1276-0.2775 1.9155-1.2441 1.9165-2.3511 0-1.3426-1.1451-2.431-2.5578-2.431-1.4127-1e-4 -2.5579 1.0884-2.5578 2.431 0 0.8748 0.496 1.6817 1.2969 2.113l-4.1238 12.329-2.2044-14.718c0.7848-0.435 1.3565-1.2329 1.3579-2.0963 0-1.3425-1.1449-2.4308-2.5574-2.431z" fill="url(#linearGradient3015-1-4)" image-rendering="optimizeQuality" stroke="#000" stroke-linecap="round" stroke-linejoin="round" stroke-width="1.1"/>
  <ellipse class="st15" transform="matrix(.2821 0 0 .27906 -1303.3 743.32)" cx="4708.7" cy="-2517.6" rx="32.126" ry="2.844" fill="#e6e6e6" filter="url(#filter2813-0-1-5-1-2-6)" image-rendering="optimizeQuality"/>
  <path class="st32" d="m35.4 32.672c-1.0152-0.412-2.4729-0.7304-4.3211-0.9926s-3.9046-0.3933-6.1433-0.3933c-2.1866 0-4.1909 0.1311-6.0131 0.3746-1.8221 0.2434-3.2538 0.5618-4.3211 0.9738l0.9371 1.8166c1.0412-0.3371 2.3688-0.5618 4.0347-0.7116 1.6399-0.1499 3.4621-0.2248 5.4144-0.2248s3.7744 0.075 5.4404 0.2248c1.6659 0.1498 3.0196 0.3933 4.0608 0.7491z" fill="#e6e6e6" image-rendering="optimizeQuality" stroke-width=".26458"/>
 </g>
</svg>
