<?xml version="1.0" encoding="UTF-8"?>
<svg width="50mm" height="50mm" clip-rule="evenodd" fill-rule="evenodd" image-rendering="optimizeQuality" shape-rendering="geometricPrecision" text-rendering="geometricPrecision" version="1.1" viewBox="0 0 50 50" xmlns="http://www.w3.org/2000/svg" xmlns:cc="http://creativecommons.org/ns#" xmlns:dc="http://purl.org/dc/elements/1.1/" xmlns:rdf="http://www.w3.org/1999/02/22-rdf-syntax-ns#">
 <defs>
  <linearGradient id="linearGradient3003-2" x1="3850.4" x2="3850.4" y1="-424.81" y2="-307.17" gradientTransform="matrix(.33757 0 0 .32227 -1274.8 143.07)" gradientUnits="userSpaceOnUse">
   <stop stop-color="#fff" offset="0"/>
   <stop stop-color="#e6e6e6" offset="1"/>
  </linearGradient>
  <filter id="filter2809-5-8-5-1" color-interpolation-filters="sRGB">
   <feGaussianBlur result="blur" stdDeviation="0.01 0.01"/>
  </filter>
 </defs>
 <metadata>
  <rdf:RDF>
   <cc:Work rdf:about="">
    <dc:format>image/svg+xml</dc:format>
    <dc:type rdf:resource="http://purl.org/dc/dcmitype/StillImage"/>
    <dc:title/>
   </cc:Work>
  </rdf:RDF>
 </metadata>
 <g clip-rule="evenodd" fill-rule="evenodd" shape-rendering="geometricPrecision">
  <path class="st14" d="m24.999 39.486c-0.20259 0.87016-0.50636 1.4502-0.81024 1.7726-3.882 4.544-9.2676 0.19331-14.162 1.5791-0.50626 0.12891-0.91143 0.35452-1.1814 0.61234l-2.2955-3.5772c6.1439-5.382 12.171 0.41893 15.209-2.9327-0.84394-0.09701-1.6879-0.22552-2.5655-0.45113-0.77644-0.19341-2.2954-0.67675-2.2954-0.67675l1.1139-5.8332s-1.7587-1.9425-2.3967-3.0616c-0.35578-0.62384-0.67515-1.3535-0.77644-1.998-0.10129-0.58014-0.16879-1.1603-0.16879-1.7403 0-0.90236 0.23628-1.9013 0.67515-2.997 1.1815-2.3848 3.4433-3.6094 5.3673-5.1564 1.0128-0.83786 1.958-1.7402 2.8019-2.6748-1.1478-0.58014-1.7554-1.4825-1.7554-2.7393 0-0.83786 0.30378-1.5791 0.94513-2.1592 0.60766-0.61224 1.3841-0.90236 2.2955-0.90236 0.87764 0 1.654 0.29012 2.2617 0.90236 0.64135 0.61234 0.94523 1.3214 0.94523 2.1592 0 1.2247-0.57396 2.1269-1.7555 2.7393 0.84394 0.96677 1.7892 1.8691 2.7681 2.6748 1.9242 1.6113 4.4559 2.9327 5.3673 5.1564 0.43887 1.0957 0.67515 2.0947 0.67515 2.997 0 0.51564-0.034 1.0957-0.16879 1.7403-0.10129 0.64454-0.42287 1.373-0.77644 1.998-0.63086 1.1155-2.3629 3.0616-2.3629 3.0616l1.114 5.8332s-1.4854 0.48333-2.3293 0.67675c-0.87764 0.22562-1.6879 0.38673-2.498 0.45113 3.8821 4.5762 10.787-1.7402 15.209 2.9327l-2.3293 3.5772c-5.5699-3.0294-9.8071 3.0293-15.378-2.256-0.27008-0.29002-0.54016-0.87016-0.74265-1.708z" fill="url(#linearGradient3003-2)" image-rendering="optimizeQuality" stroke="#000" stroke-linejoin="round" stroke-width="1.1"/>
  <ellipse class="st15" transform="matrix(.33757 0 0 .32227 -893.33 122.14)" cx="2720.3" cy="-271.4" rx="16.3" ry="2.5" filter="url(#filter2809-5-8-5-1)" image-rendering="optimizeQuality" stroke-width=".80217"/>
  <ellipse class="st15" cx="24.999" cy="9.6116" rx="1.1401" ry="1.1474" image-rendering="optimizeQuality" stroke-width=".26458"/>
 </g>
 <path d="m21.332 23.266h7.333m-3.6663-3.3339v6.7524" fill="none" stroke="#000" stroke-width="1.4"/>
</svg>
