<?xml version="1.0" encoding="UTF-8"?>
<svg width="50mm" height="50mm" clip-rule="evenodd" fill-rule="evenodd" image-rendering="optimizeQuality" shape-rendering="geometricPrecision" text-rendering="geometricPrecision" version="1.1" viewBox="0 0 50 50" xmlns="http://www.w3.org/2000/svg" xmlns:cc="http://creativecommons.org/ns#" xmlns:dc="http://purl.org/dc/elements/1.1/" xmlns:rdf="http://www.w3.org/1999/02/22-rdf-syntax-ns#" xmlns:xlink="http://www.w3.org/1999/xlink">
 <metadata>
  <rdf:RDF>
   <cc:Work rdf:about="">
    <dc:format>image/svg+xml</dc:format>
    <dc:type rdf:resource="http://purl.org/dc/dcmitype/StillImage"/>
    <dc:title/>
   </cc:Work>
  </rdf:RDF>
 </metadata>
 <defs>
  <filter id="filter2813-0-1-0" color-interpolation-filters="sRGB">
   <feGaussianBlur result="blur" stdDeviation="0.01 0.01"/>
  </filter>
  <linearGradient id="linearGradient1356" x1="5258.8" x2="5258.8" y1="-834.26" y2="-691.11" gradientTransform="matrix(.2618 0 0 .26545 -1351.7 227.46)" gradientUnits="userSpaceOnUse">
   <stop stop-color="#ffffff" offset="0"/>
   <stop stop-color="#e6e6e6" offset="1"/>
  </linearGradient>
 </defs>
 <path class="st14" d="m23.961 6.6043v2.5132h-2.5315v2.4h2.5315v2.2055c-0.78632 0.13568-2.9375 0.82902-2.9672 2.6077 0 0.24117 0.02969 1.5912 0.08903 1.9831-0.20772-0.1206-0.38573-0.24117-0.56377-0.36176-0.65281-0.30147-1.5133-0.6632-2.5815-1.0853-1.2166-0.4522-2.3144-0.69337-3.3232-0.7838-2.5221-0.12057-4.5101 0.69337-5.9937 2.5022-1.4243 1.7786-2.1067 3.5573-2.0177 5.3359 0.11869 1.8691 0.59338 3.4367 1.4836 4.733 0.29665 0.42206 0.59338 0.81396 0.94943 1.1757 0.47477 0.48234 0.94948 0.93454 1.4243 1.3867 0.77147 0.7235 1.9879 1.3264 2.8188 1.8389v8.2601c3.2342 1.8691 9.0203 2.0499 11.72 2.0801 2.166-0.15073 7.8205 0.12089 11.424-2.0801v-8.0189c0.17804-0.1206 0.29673-0.1809 0.29673-0.24117 0.80111-0.5125 2.0176-1.1154 2.8188-1.8389 0.47477-0.4522 0.97915-0.9044 1.4242-1.3867 0.35605-0.36176 0.68247-0.75366 0.94946-1.1757 0.86051-1.2963 1.3649-2.894 1.4836-4.733 0.089-1.7786-0.56372-3.5573-2.0177-5.3359-1.4539-1.7787-3.4715-2.6227-5.9937-2.5022-0.97914 0.0603-2.077 0.3316-3.3232 0.7838-1.0682 0.42206-1.9287 0.7838-2.5815 1.0853-0.17804 0.09044-0.38576 0.21103-0.5638 0.36176 0.05932-0.3919 0.08903-1.7419 0.08903-1.9831-0.02971-1.7787-1.6428-2.472-2.4292-2.6077v-2.2055h2.5366l-0.01931-2.4h-2.5316v-2.5132z" fill="url(#linearGradient1356)" stroke="#000000" stroke-width="1.1" style="paint-order:markers fill stroke"/>
 <g fill="#000000">
  <path d="m14.815 18.69c-2.1307 0-3.7218 0.76965-4.7446 2.3094-0.56817 0.82907-0.8809 1.8654-0.8809 3.0794 0 1.362 0.31274 2.4575 0.96613 3.3162 0.34094 0.50337 0.99438 1.0957 1.9603 1.8359 0.96592 0.71064 1.7615 1.3913 2.4149 2.0131 1.1648-0.26649 2.5-0.47329 3.9773-0.68056 1.4773-0.17767 3.3806-0.29615 5.7386-0.32576 0-0.53298-2.6e-5 -1.3032-0.02839-2.2803-0.02844-0.97711-0.14213-1.7765-0.3126-2.4279-0.5398-1.8358-1.3922-3.3163-2.5286-4.4415-0.56817-0.56258-1.477-1.125-2.6701-1.5988-1.3352-0.50337-2.642-0.79917-3.8921-0.79917zm20.37 0.05906c-1.25 0-2.5284 0.26659-3.8921 0.82918-1.2216 0.50334-2.1024 1.0362-2.6706 1.5988-1.1364 1.1252-1.9888 2.6057-2.5002 4.4415-0.19886 0.6218-0.31258 1.4213-0.341 2.3984-0.02842 0.97711-0.02842 1.7173-0.02842 2.2503 2.3296 0.02961 4.2334 0.14803 5.7107 0.35528 1.4773 0.17767 2.8125 0.41455 4.0057 0.68104 0.73864-0.74022 1.5622-1.4512 2.4713-2.1322 0.90908-0.68101 1.5341-1.2436 1.9034-1.7174 0.65337-0.88829 0.96616-2.0132 0.96616-3.3457 0-1.214-0.28432-2.2505-0.88091-3.0499-1.0228-1.5397-2.6133-2.3094-4.7441-2.3094zm-19.688 1.6583c0.96591 0 1.9036 0.20688 2.7843 0.65103 0.88072 0.47374 1.4488 0.82936 1.7329 1.0959 0.90908 0.9475 1.6478 1.9839 2.1592 3.0794 0.17044 0.41455 0.31258 0.97713 0.3978 1.7174 0.08527 0.74022 0.14211 1.3024 0.14211 1.6874-1.6762 0.02958-3.2388 0.11864-4.6309 0.2667-1.3921 0.14803-2.4715 0.35541-3.2385 0.65151-0.42616-0.53298-0.90945-1.066-1.3924-1.5397-0.483-0.47376-0.96576-0.94779-1.4203-1.4511-0.6818-0.71064-1.023-1.4803-1.023-2.3094 0-1.0363 0.17055-1.7765 0.51149-2.2503 0.36933-0.56258 0.93747-0.94739 1.6761-1.2435 0.73864-0.20728 1.5341-0.35528 2.3012-0.35528zm18.978 0c0.76705 0 1.5058 0.14785 2.2728 0.41434 0.73864 0.26649 1.3067 0.6809 1.6761 1.2435 0.34088 0.47376 0.51149 1.214 0.51149 2.2503 0 0.82907-0.34116 1.5992-0.99454 2.3098-0.45459 0.47374-0.90896 0.91792-1.3919 1.3621-0.51141 0.44413-0.9942 1.0065-1.4488 1.6283-0.79547-0.26649-1.8753-0.50345-3.2674-0.65151-1.3921-0.14806-2.9258-0.23662-4.602-0.26622 0-0.41455 0.05683-0.9476 0.14211-1.6878 0.08517-0.74025 0.22688-1.3028 0.42574-1.7174 0.51139-1.0956 1.2216-2.132 2.1592-3.0795 0.25569-0.26649 0.8522-0.65124 1.7329-1.0954 0.82388-0.50337 1.79-0.71056 2.7843-0.71056z" stroke-width=".29109"/>
  <path class="st15" d="m23.19 16.603c-0.38563 1.2985 1.8688 3.5863 1.8688 3.5863s2.2544-2.2878 1.8688-3.5863c-0.74155-1.484-3.3816-1.0202-3.7376 0z" stroke-width=".30394"/>
  <path class="st15" d="m34.937 37.794-0.02971-2.7926c-2.4917-0.71184-6.17-1.0678-9.9372-1.0678-3.7376 0-7.3862 0.35592-9.8778 1.0678l-0.08901 2.82c2.4323-0.90347 5.7547-1.3689 9.9965-1.3689 2.0171 0 3.9156 0.1369 5.6657 0.38328 1.7204 0.24641 3.1443 0.57494 4.2715 0.95824z" stroke-width=".30394"/>
  <ellipse class="st15" transform="matrix(.26458 0 0 .26458 6.0457 6.0542)" cx="71.077" cy="131.13" rx="32.126" ry="2.844" filter="url(#filter2813-0-1-0)"/>
 </g>
</svg>
