<?xml version="1.0" encoding="UTF-8" standalone="no"?>
<svg
   xmlns:dc="http://purl.org/dc/elements/1.1/"
   xmlns:cc="http://creativecommons.org/ns#"
   xmlns:rdf="http://www.w3.org/1999/02/22-rdf-syntax-ns#"
   xmlns:svg="http://www.w3.org/2000/svg"
   xmlns="http://www.w3.org/2000/svg"
   xmlns:sodipodi="http://sodipodi.sourceforge.net/DTD/sodipodi-0.dtd"
   xmlns:inkscape="http://www.inkscape.org/namespaces/inkscape"
   clip-rule="evenodd"
   fill-rule="evenodd"
   height="50mm"
   image-rendering="optimizeQuality"
   shape-rendering="geometricPrecision"
   text-rendering="geometricPrecision"
   viewBox="0 0 50 50"
   width="50mm"
   version="1.1"
   id="svg11"
   sodipodi:docname="wK.svg"
   inkscape:version="0.92.4 (5da689c313, 2019-01-14)">
  <metadata
     id="metadata17">
    <rdf:RDF>
      <cc:Work
         rdf:about="">
        <dc:format>image/svg+xml</dc:format>
        <dc:type
           rdf:resource="http://purl.org/dc/dcmitype/StillImage" />
      </cc:Work>
    </rdf:RDF>
  </metadata>
  <defs
     id="defs15">
    <clipPath
       clipPathUnits="userSpaceOnUse"
       id="clipPath1574-7-5">
      <path
         style="opacity:0.03999999;fill:#ffffff;fill-opacity:1;stroke:#000000;stroke-width:0.26458332px;stroke-linecap:butt;stroke-linejoin:miter;stroke-opacity:1"
         d="m 475.65439,117.99476 c 2.93706,4.38098 -0.95739,18.47021 2.18424,24.53438 9.61747,17.12089 2.16427,16.29369 -11.46119,17.62547 -0.39508,2.82461 25.04315,3.08876 27.47631,0.36807 2.5199,-3.67231 2.99583,-8.26777 3.83686,-12.53181 0.91154,-4.97557 2.16035,-10.04246 1.35739,-15.12943 -0.17171,-9.84028 -21.59262,-20.19748 -23.39361,-14.86668 z"
         id="path1576-1-4"
         inkscape:connector-curvature="0"
         sodipodi:nodetypes="ccccccc" />
    </clipPath>
    <clipPath
       clipPathUnits="userSpaceOnUse"
       id="clipPath1574-7-2">
      <path
         style="opacity:0.03999999;fill:#ffffff;fill-opacity:1;stroke:#000000;stroke-width:0.26458332px;stroke-linecap:butt;stroke-linejoin:miter;stroke-opacity:1"
         d="m 475.65439,117.99476 c 2.93706,4.38098 -0.95739,18.47021 2.18424,24.53438 9.61747,17.12089 2.16427,16.29369 -11.46119,17.62547 -0.39508,2.82461 25.04315,3.08876 27.47631,0.36807 2.5199,-3.67231 2.99583,-8.26777 3.83686,-12.53181 0.91154,-4.97557 2.16035,-10.04246 1.35739,-15.12943 -0.17171,-9.84028 -21.59262,-20.19748 -23.39361,-14.86668 z"
         id="path1576-1-6"
         inkscape:connector-curvature="0"
         sodipodi:nodetypes="ccccccc" />
    </clipPath>
    <clipPath
       clipPathUnits="userSpaceOnUse"
       id="clipPath1574-7-2-8">
      <path
         style="opacity:0.03999999;fill:#ffffff;fill-opacity:1;stroke:#000000;stroke-width:0.26458332px;stroke-linecap:butt;stroke-linejoin:miter;stroke-opacity:1"
         d="m 475.65439,117.99476 c 2.93706,4.38098 -0.95739,18.47021 2.18424,24.53438 9.61747,17.12089 2.16427,16.29369 -11.46119,17.62547 -0.39508,2.82461 25.04315,3.08876 27.47631,0.36807 2.5199,-3.67231 2.99583,-8.26777 3.83686,-12.53181 0.91154,-4.97557 2.16035,-10.04246 1.35739,-15.12943 -0.17171,-9.84028 -21.59262,-20.19748 -23.39361,-14.86668 z"
         id="path1576-1-6-2"
         inkscape:connector-curvature="0"
         sodipodi:nodetypes="ccccccc" />
    </clipPath>
    <clipPath
       clipPathUnits="userSpaceOnUse"
       id="clipPath1574-7-2-7">
      <path
         style="opacity:0.03999999;fill:#ffffff;fill-opacity:1;stroke:#000000;stroke-width:0.26458332px;stroke-linecap:butt;stroke-linejoin:miter;stroke-opacity:1"
         d="m 475.65439,117.99476 c 2.93706,4.38098 -0.95739,18.47021 2.18424,24.53438 9.61747,17.12089 2.16427,16.29369 -11.46119,17.62547 -0.39508,2.82461 25.04315,3.08876 27.47631,0.36807 2.5199,-3.67231 2.99583,-8.26777 3.83686,-12.53181 0.91154,-4.97557 2.16035,-10.04246 1.35739,-15.12943 -0.17171,-9.84028 -21.59262,-20.19748 -23.39361,-14.86668 z"
         id="path1576-1-6-6"
         inkscape:connector-curvature="0"
         sodipodi:nodetypes="ccccccc" />
    </clipPath>
    <clipPath
       clipPathUnits="userSpaceOnUse"
       id="clipPath1574-7-2-3">
      <path
         style="opacity:0.03999999;fill:#ffffff;fill-opacity:1;stroke:#000000;stroke-width:0.26458332px;stroke-linecap:butt;stroke-linejoin:miter;stroke-opacity:1"
         d="m 475.65439,117.99476 c 2.93706,4.38098 -0.95739,18.47021 2.18424,24.53438 9.61747,17.12089 2.16427,16.29369 -11.46119,17.62547 -0.39508,2.82461 25.04315,3.08876 27.47631,0.36807 2.5199,-3.67231 2.99583,-8.26777 3.83686,-12.53181 0.91154,-4.97557 2.16035,-10.04246 1.35739,-15.12943 -0.17171,-9.84028 -21.59262,-20.19748 -23.39361,-14.86668 z"
         id="path1576-1-6-3"
         inkscape:connector-curvature="0"
         sodipodi:nodetypes="ccccccc" />
    </clipPath>
    <linearGradient
       id="wwwwwwww"
       gradientUnits="userSpaceOnUse"
       x1="21.094"
       x2="77.668999"
       y1="37.101002"
       y2="37.469002">
      <stop
         offset="0"
         stop-color="#fff"
         id="stop1270"
         style="stop-color:#fafafa;stop-opacity:1" />
      <stop
         offset="1"
         stop-color="#fff"
         stop-opacity="0"
         id="stop1272"
         style="stop-color:#edefa1;stop-opacity:1" />
    </linearGradient>
    <linearGradient
       y2="37.469002"
       y1="37.101002"
       x2="77.668999"
       x1="21.094"
       gradientUnits="userSpaceOnUse"
       id="linearGradient1274">
      <stop
         style="stop-color:#ebebeb;stop-opacity:1"
         id="stop1270-8"
         stop-color="#fff"
         offset="0" />
      <stop
         style="stop-color:#fefdfb;stop-opacity:1"
         id="stop1272-9"
         stop-opacity="0"
         stop-color="#fff"
         offset="1" />
    </linearGradient>
    <linearGradient
       y2="37.469002"
       y1="37.101002"
       x2="77.668999"
       x1="21.094"
       gradientUnits="userSpaceOnUse"
       id="linearGradient1274-2">
      <stop
         style="stop-color:#ffffff;stop-opacity:1"
         id="stop1270-1"
         stop-color="#fff"
         offset="0" />
      <stop
         style="stop-color:#e9e9bb;stop-opacity:1"
         id="stop1272-8"
         stop-opacity="0"
         stop-color="#fff"
         offset="1" />
    </linearGradient>
    <clipPath
       clipPathUnits="userSpaceOnUse"
       id="clipPath5066-9">
      <path
         sodipodi:nodetypes="cccssccccccccccc"
         style="fill:none;stroke:#000000;stroke-width:1px;stroke-linecap:butt;stroke-linejoin:miter;stroke-opacity:1"
         d="m 3085.0002,-1299.5001 c 5.9973,10.5203 12.5229,20.7454 19.8222,30.3944 7.3172,6.2128 3.5627,28.827 4.5498,25.8181 5.6561,-19.6575 70.6886,18.2111 29.7891,43.329 -4.4913,2.7583 -0.6552,10.11 -2.1869,14.494 -8.8562,25.3479 -52.4514,27.2891 -74.9014,35.6642 25.3392,2.8116 71.6308,10.6018 93.9169,2.3574 9.1336,-2.1795 -0.4175,-14.3461 5.3707,-22.4189 8.7746,-9.8358 14.3524,-21.9876 21.698,-32.8046 5.1834,-12.8157 3.9272,-27.0128 3.6312,-40.5086 -1.6908,-11.1004 -5.5014,-21.8088 -9.6449,-32.1943 -4.2267,-10.6527 -14.5846,-16.2547 -22.6061,-23.6595 -7.8474,-6.3159 -16.0734,-13.6565 -26.5732,-14.4715 -8.7452,-1.3301 -17.6563,-3.1725 -26.4965,-2.5801 -6.6526,0.5153 -24.893,9.1839 -16.3703,16.5804 z"
         id="path5068-6"
         inkscape:connector-curvature="0" />
    </clipPath>
    <clipPath
       clipPathUnits="userSpaceOnUse"
       id="clipPath5066-9-5">
      <path
         sodipodi:nodetypes="cccssccccccccccc"
         style="fill:none;stroke:#000000;stroke-width:1px;stroke-linecap:butt;stroke-linejoin:miter;stroke-opacity:1"
         d="m 3085.0002,-1299.5001 c 5.9973,10.5203 12.5229,20.7454 19.8222,30.3944 7.3172,6.2128 3.5627,28.827 4.5498,25.8181 5.6561,-19.6575 70.6886,18.2111 29.7891,43.329 -4.4913,2.7583 -0.6552,10.11 -2.1869,14.494 -8.8562,25.3479 -52.4514,27.2891 -74.9014,35.6642 25.3392,2.8116 71.6308,10.6018 93.9169,2.3574 9.1336,-2.1795 -0.4175,-14.3461 5.3707,-22.4189 8.7746,-9.8358 14.3524,-21.9876 21.698,-32.8046 5.1834,-12.8157 3.9272,-27.0128 3.6312,-40.5086 -1.6908,-11.1004 -5.5014,-21.8088 -9.6449,-32.1943 -4.2267,-10.6527 -14.5846,-16.2547 -22.6061,-23.6595 -7.8474,-6.3159 -16.0734,-13.6565 -26.5732,-14.4715 -8.7452,-1.3301 -17.6563,-3.1725 -26.4965,-2.5801 -6.6526,0.5153 -24.893,9.1839 -16.3703,16.5804 z"
         id="path5068-6-7"
         inkscape:connector-curvature="0" />
    </clipPath>
  </defs>
  <sodipodi:namedview
     pagecolor="#ffffff"
     bordercolor="#666666"
     borderopacity="1"
     objecttolerance="10"
     gridtolerance="10"
     guidetolerance="10"
     inkscape:pageopacity="0"
     inkscape:pageshadow="2"
     inkscape:window-width="958"
     inkscape:window-height="991"
     id="namedview13"
     showgrid="false"
     inkscape:zoom="1.4418001"
     inkscape:cx="102.05275"
     inkscape:cy="130.76117"
     inkscape:window-x="952"
     inkscape:window-y="0"
     inkscape:window-maximized="0"
     inkscape:current-layer="svg11"
     inkscape:snap-bbox="true"
     inkscape:snap-bbox-edge-midpoints="true"
     inkscape:bbox-nodes="true"
     inkscape:bbox-paths="true"
     inkscape:snap-bbox-midpoints="true"
     inkscape:snap-nodes="false"
     inkscape:object-paths="false"
     inkscape:snap-intersection-paths="false"
     inkscape:object-nodes="false" />
  <linearGradient
     id="a"
     gradientUnits="userSpaceOnUse"
     x1="21.376"
     x2="77.641"
     y1="37.346"
     y2="37.346">
    <stop
       offset="0"
       stop-color="#fff"
       id="stop2" />
    <stop
       offset="1"
       stop-color="#fff"
       stop-opacity="0"
       id="stop4" />
  </linearGradient>
  <g
     style="shape-rendering:crispEdges"
     id="g2457"
     transform="matrix(0.26458333,0,0,0.26458333,-810.89773,-209.4489)">
    <path
       sodipodi:nodetypes="sscsssccccccccccccccccccccccccccccccccccssscscs"
       inkscape:connector-curvature="0"
       id="path2367-9"
       d="m 3159.2988,803.65112 c -2.9093,0 -4.4079,1.56275 -4.4079,4.74774 v 7.52365 h -6.8999 c -2.7424,0 -4.1148,1.4701 -4.1148,4.42713 v 0.13341 c 0,2.99427 1.3724,4.4716 4.1148,4.4716 l 6.8143,0.14092 0.036,5.57852 h -1.716 c -7.054,1.23996 -11.8139,4.32612 -11.9145,12.12856 0,1.09305 0.1336,2.53475 0.3918,4.33049 -0.8835,-0.59845 -1.7709,-1.12564 -2.5929,-1.55097 -2.954,-1.37118 -6.8234,-2.99246 -11.6501,-4.82128 -5.517,-2.0029 -10.472,-3.12835 -14.9032,-3.41323 -11.3245,-0.5651 -20.3183,3.13329 -26.9167,11.01784 -6.4667,7.84682 -9.4859,15.72785 -9.0249,23.60812 0.4927,8.2004 2.7238,15.16978 6.6279,20.93854 1.2792,1.86635 2.7267,3.58864 4.3355,5.20954 2.0928,2.10315 4.2369,4.14596 6.4338,6.12311 3.5214,3.23268 8.9819,5.88611 12.628,8.11858 v 36.5555 c 14.5696,8.28849 39.9574,9.09577 52.0642,9.16356 9.7309,-0.69638 48.1548,-2.36541 52.0641,-9.16356 v -35.46226 c 0.7396,-0.46713 1.3,-0.86518 1.3413,-1.06236 3.6457,-2.24055 9.1387,-4.90632 12.6754,-8.15327 2.1968,-1.97724 4.3429,-4.01995 6.4358,-6.12319 1.6088,-1.621 3.0544,-3.34121 4.3336,-5.20755 3.9042,-5.76886 6.1351,-12.73795 6.6279,-20.93854 0.461,-7.88018 -2.5583,-15.7613 -9.0249,-23.60803 -6.5986,-7.88464 -15.5921,-11.58113 -26.9167,-11.01603 -4.4313,0.28488 -9.3861,1.41033 -14.9032,3.41323 -4.8265,1.82882 -8.6962,3.4501 -11.6501,4.82128 -0.822,0.42533 -1.7095,0.94872 -2.593,1.54717 0.258,-1.79584 0.3919,-3.23554 0.3919,-4.32859 -0.1008,-7.80197 -4.8605,-10.8867 -11.9145,-12.12666 h -1.716 l 0.038,-5.57852 6.8163,-0.14092 c 2.7425,0 4.1129,-1.47733 4.1129,-4.4716 v -0.13341 c 0,-2.95703 -1.3704,-4.42913 -4.1129,-4.42913 h -6.9019 v -7.52165 c 0,-3.18499 -1.4985,-4.74745 -4.4078,-4.74774 z"
       style="clip-rule:evenodd;fill:#fafafa;fill-opacity:1;fill-rule:evenodd;stroke:#282828;stroke-width:3.02362227;stroke-miterlimit:4;stroke-dasharray:none;stroke-opacity:1;paint-order:normal;image-rendering:optimizeQuality;shape-rendering:geometricPrecision;text-rendering:geometricPrecision" />
    <path
       transform="matrix(0.9740156,0,0,0.9502314,144.005,2041.7291)"
       clip-path="url(#clipPath5066-9-5)"
       sodipodi:nodetypes="sscsssccccccccccccccccccccccccccccccccccccssscscs"
       inkscape:connector-curvature="0"
       id="path2367-9-9-1-0"
       d="m 3095.7345,-1302.9226 c -2.9869,0 -4.5254,1.6446 -4.5254,4.9964 v 7.9177 h -7.084 c -2.8156,0 -4.2246,1.5471 -4.2246,4.659 v 0.1404 c 0,3.1511 1.409,4.7058 4.2246,4.7058 l 6.9961,0.1483 0.037,5.8707 h -1.7617 c -7.2422,1.3049 -12.1291,4.5527 -12.2324,12.7638 0,1.1503 0.1372,2.6675 0.4023,4.5573 -0.9071,-0.6298 -1.8182,-1.1846 -2.6621,-1.6322 -3.0328,-1.443 -7.0055,-3.1492 -11.9609,-5.0738 -5.6642,-2.1078 -10.7514,-3.2922 -15.3008,-3.592 -11.6266,-0.5947 -20.8603,3.2974 -27.6348,11.5949 -6.6392,8.2578 -9.7389,16.5516 -9.2656,24.8446 0.5058,8.6299 2.7964,15.9643 6.8047,22.0352 1.3133,1.9641 2.7994,3.7766 4.4511,5.4824 2.1487,2.2133 4.35,4.3631 6.6055,6.4438 3.6153,3.402 9.2215,6.1944 12.9649,8.5438 v 38.4701 h 0.582 c 1.402,5.3997 24.6525,9.6406 52.8711,9.6435 28.2034,-0.01 51.4328,-4.2468 52.834,-9.6435 h 0.6191 v -37.3196 c 0.7593,-0.4916 1.3346,-0.9105 1.377,-1.118 3.743,-2.3579 9.3825,-5.1633 13.0136,-8.5803 2.2554,-2.0808 4.4588,-4.2305 6.6075,-6.4439 1.6517,-1.7059 3.1359,-3.5162 4.4492,-5.4803 4.0083,-6.071 6.2988,-13.4051 6.8047,-22.0352 0.4733,-8.2929 -2.6265,-16.5868 -9.2657,-24.8445 -6.7746,-8.2976 -16.008,-12.1877 -27.6347,-11.593 -4.5495,0.2998 -9.6365,1.4842 -15.3008,3.592 -4.9553,1.9246 -8.9282,3.6308 -11.9609,5.0738 -0.8439,0.4476 -1.7551,0.9984 -2.6622,1.6282 0.2649,-1.8899 0.4024,-3.405 0.4024,-4.5553 -0.1035,-8.2106 -4.9902,-11.4569 -12.2324,-12.7618 h -1.7618 l 0.039,-5.8707 6.9981,-0.1483 c 2.8157,0 4.2226,-1.5547 4.2226,-4.7058 v -0.1404 c 0,-3.1119 -1.4069,-4.6611 -4.2226,-4.6611 h -7.086 v -7.9156 c 0,-3.3518 -1.5385,-4.9961 -4.5254,-4.9964 z"
       style="clip-rule:evenodd;opacity:0.07999998;fill:#121212;fill-opacity:1;fill-rule:evenodd;stroke:none;stroke-width:4.53543377;stroke-miterlimit:4;stroke-dasharray:none;stroke-opacity:1;paint-order:normal;image-rendering:optimizeQuality;shape-rendering:geometricPrecision;text-rendering:geometricPrecision" />
    <g
       transform="translate(33.858538,1189.6381)"
       id="g6478">
      <path
         style="clip-rule:evenodd;fill:#282828;fill-opacity:1;fill-rule:evenodd;stroke:none;stroke-width:3.72372365;stroke-miterlimit:4;stroke-dasharray:none;stroke-opacity:1;image-rendering:optimizeQuality;shape-rendering:geometricPrecision;text-rendering:geometricPrecision"
         d="m 3173.1925,-344.15896 c -5.8436,0 -11.9171,1.2333 -18.2782,3.69773 -5.7784,2.21413 -9.9318,4.61841 -12.5659,7.20608 -5.3873,5.09296 -9.3175,11.76196 -11.783,20.01387 -0.9433,2.84518 -1.4603,6.44779 -1.5601,10.84252 -0.099,4.39482 -0.1618,7.77707 -0.1618,10.18163 10.9087,0.18682 19.8691,0.72541 26.8476,1.58052 6.9479,0.85502 13.2485,1.89572 18.8275,3.0644 3.4777,-3.34937 7.3378,-6.5106 11.5901,-9.54631 4.2523,-3.0356 7.2392,-5.62755 8.9609,-7.77821 3.0215,-4.01397 4.5477,-9.00981 4.5477,-15.01385 0,-5.47029 -1.3638,-10.08632 -4.09,-13.78671 -4.8696,-6.9823 -12.3389,-10.46167 -22.3351,-10.46167 z m -3.3441,7.4901 c 3.5657,0 7.0734,0.60122 10.6125,1.80354 3.5084,1.20224 6.1703,3.03675 7.9229,5.53472 1.5911,2.08718 2.4034,5.46554 2.4034,10.17764 0,3.69659 -1.561,7.14299 -4.6782,10.36902 a 154.71539,150.66209 0 0 1 -6.5557,6.16425 c -2.339,2.05374 -4.6088,4.48946 -6.7484,7.27108 -3.6735,-1.23217 -8.7999,-2.21214 -15.3606,-2.87683 -6.5567,-0.69452 -13.7661,-1.07471 -21.6535,-1.20166 3e-4,-1.80326 0.2305,-4.32907 0.6135,-7.65003 0.4256,-3.28581 1.0738,-5.88146 1.9515,-7.74467 2.3699,-4.99594 5.7136,-9.6115 10.0964,-13.87937 1.2651,-1.23207 3.9965,-2.90884 8.1837,-4.99612 a 29.351831,28.582855 0 0 1 13.2125,-2.97157 z"
         id="path1187-67-9-8-7-9"
         inkscape:connector-curvature="0" />
      <path
         style="clip-rule:evenodd;fill:#282828;fill-opacity:1;fill-rule:evenodd;stroke:none;stroke-width:3.72372365;stroke-miterlimit:4;stroke-dasharray:none;stroke-opacity:1;image-rendering:optimizeQuality;shape-rendering:geometricPrecision;text-rendering:geometricPrecision"
         d="m 3077.6822,-344.34844 c -9.9999,0 -17.4351,3.47595 -22.2396,10.46576 -2.7262,3.69649 -4.09,8.3455 -4.09,13.87528 0,6.07131 1.5262,11.03256 4.5477,14.92319 1.5913,2.21043 4.6388,4.9623 9.1518,8.25181 4.4823,3.25597 8.3126,6.28911 11.3954,9.07471 5.5214,-1.17249 11.753,-2.18544 18.7008,-3.07029 6.9478,-0.85502 15.9088,-1.35883 26.8788,-1.48579 0,-2.46433 -0.066,-5.87993 -0.1928,-10.21118 -0.1303,-4.36118 -0.6167,-7.99895 -1.4296,-10.90381 -2.5959,-8.25191 -6.5266,-14.92472 -11.818,-19.98042 -2.7262,-2.59508 -6.8829,-5.0292 -12.5309,-7.24343 -6.4608,-2.46433 -12.5952,-3.69583 -18.3736,-3.69583 z m 3.1474,7.67958 c 4.5779,0 8.9259,0.9814 13.1131,2.97157 4.1258,2.09098 6.8535,3.76405 8.1839,4.99612 4.3175,4.26787 7.6959,8.88714 10.0963,13.87937 0.8129,1.86682 1.4305,4.45886 1.8522,7.74467 0.4216,3.32115 0.6512,5.84677 0.7127,7.65003 -7.9216,0.12733 -15.1613,0.50714 -21.7527,1.20166 -6.5565,0.66469 -11.6186,1.64466 -15.2574,2.87683 a 72.748832,70.842917 0 0 0 -6.5907,-6.92387 126.55988,123.24419 0 0 1 -6.6218,-6.51146 c -3.1827,-3.16256 -4.7385,-6.60895 -4.7385,-10.36902 0,-4.64872 0.777,-8.02689 2.3682,-10.17764 1.6874,-2.50177 4.3524,-4.33248 7.8918,-5.53472 a 32.538164,31.685711 0 0 1 10.7429,-1.80354 z"
         id="path1193-4-5-2-0-5"
         inkscape:connector-curvature="0" />
      <path
         style="clip-rule:evenodd;fill:#282828;fill-opacity:1;fill-rule:evenodd;stroke:none;stroke-width:0.98523521px;stroke-linecap:butt;stroke-linejoin:miter;stroke-opacity:1;image-rendering:optimizeQuality;shape-rendering:geometricPrecision;text-rendering:geometricPrecision"
         d="m 3117.0503,-345.05465 c -1.6939,5.62062 8.3894,15.52355 8.3894,15.52355 0,0 10.0834,-9.90293 8.3895,-15.52355 -3.2161,-6.4381 -15.1005,-4.35082 -16.7789,0 z"
         id="path5716-6-0-0-0"
         inkscape:connector-curvature="0"
         sodipodi:nodetypes="cccc" />
      <ellipse
         style="opacity:1;fill:#282828;fill-opacity:1;fill-rule:evenodd;stroke:none;stroke-width:6.7553401;stroke-linecap:round;stroke-linejoin:round;stroke-miterlimit:4;stroke-dasharray:none;stroke-dashoffset:0;stroke-opacity:1;paint-order:markers stroke fill;shape-rendering:crispEdges"
         id="path5350-58"
         cx="3125.4399"
         cy="-241.18034"
         rx="42.643665"
         ry="3.7795279" />
      <path
         style="clip-rule:evenodd;fill:#282828;fill-opacity:1;fill-rule:evenodd;stroke:none;stroke-width:2.96376157;stroke-miterlimit:4;stroke-dasharray:none;stroke-opacity:1;image-rendering:optimizeQuality;shape-rendering:geometricPrecision;text-rendering:geometricPrecision"
         d="m 3169.4543,-254.78257 -0.1855,-13.62453 c -11.204,-3.42243 -27.6699,-5.15689 -44.6131,-5.15689 -16.766,0 -33.1693,1.73446 -44.4359,5.1615 l -0.359,13.73614 c 10.9086,-4.44539 25.8542,-6.69138 44.8853,-6.69138 9.1161,0 17.6172,0.63236 25.4132,1.85068 7.8237,1.21835 14.2646,2.79472 19.2952,4.72448 z"
         id="path1191-9-7-3-2-8-1"
         inkscape:connector-curvature="0"
         sodipodi:nodetypes="ccsccscc" />
    </g>
  </g>
</svg>
