<?xml version="1.0" encoding="UTF-8" standalone="no"?>
<svg
   xmlns:dc="http://purl.org/dc/elements/1.1/"
   xmlns:cc="http://creativecommons.org/ns#"
   xmlns:rdf="http://www.w3.org/1999/02/22-rdf-syntax-ns#"
   xmlns:svg="http://www.w3.org/2000/svg"
   xmlns="http://www.w3.org/2000/svg"
   xmlns:xlink="http://www.w3.org/1999/xlink"
   xmlns:sodipodi="http://sodipodi.sourceforge.net/DTD/sodipodi-0.dtd"
   xmlns:inkscape="http://www.inkscape.org/namespaces/inkscape"
   width="50mm"
   height="50mm"
   clip-rule="evenodd"
   fill-rule="evenodd"
   image-rendering="optimizeQuality"
   shape-rendering="geometricPrecision"
   text-rendering="geometricPrecision"
   version="1.1"
   viewBox="0 0 50 50"
   id="svg25"
   sodipodi:docname="wN.svg"
   inkscape:version="0.92.4 (5da689c313, 2019-01-14)">
  <metadata
     id="metadata29">
    <rdf:RDF>
      <cc:Work
         rdf:about="">
        <dc:format>image/svg+xml</dc:format>
        <dc:type
           rdf:resource="http://purl.org/dc/dcmitype/StillImage" />
      </cc:Work>
    </rdf:RDF>
  </metadata>
  <sodipodi:namedview
     pagecolor="#ffffff"
     bordercolor="#666666"
     borderopacity="1"
     objecttolerance="10"
     gridtolerance="10"
     guidetolerance="10"
     inkscape:pageopacity="0"
     inkscape:pageshadow="2"
     inkscape:window-width="694"
     inkscape:window-height="480"
     id="namedview27"
     showgrid="false"
     inkscape:zoom="1.2488333"
     inkscape:cx="104.09716"
     inkscape:cy="94.488189"
     inkscape:window-x="0"
     inkscape:window-y="0"
     inkscape:window-maximized="0"
     inkscape:current-layer="svg25" />
  <defs
     id="defs7">
    <linearGradient
       id="linearGradient1260-9-0"
       x1="3711.5"
       x2="3709.6"
       y1="-422.94"
       y2="-304.62"
       gradientTransform="matrix(.31308 0 0 .32134 -1135.4 141.9)"
       gradientUnits="userSpaceOnUse">
      <stop
         stop-color="#fff"
         offset="0"
         id="stop2" />
      <stop
         stop-color="#c8c8c8"
         offset="1"
         id="stop4" />
    </linearGradient>
    <linearGradient
       inkscape:collect="always"
       xlink:href="#W"
       id="linearGradient1260-9"
       x1="3711.4849"
       y1="-422.94376"
       x2="3709.6265"
       y2="-304.62231"
       gradientUnits="userSpaceOnUse"
       gradientTransform="matrix(0.3130819,0,0,0.32134085,-1135.4046,141.89855)" />
    <linearGradient
       id="W"
       gradientUnits="userSpaceOnUse"
       x1="3132.2747"
       y1="471.47299"
       x2="3291.1646"
       y2="471.47299"
       gradientTransform="matrix(0.7744,0,0,-0.7744,-52.3103,348.9685)">
      <stop
         offset="0"
         style="stop-color:#ffffff;stop-opacity:1"
         id="stop60" />
      <stop
         offset="1"
         style="stop-color:#dcdcdc;stop-opacity:1"
         id="stop62" />
    </linearGradient>
  </defs>
  <path
     id="path5238-5-7"
     inkscape:connector-curvature="0"
     sodipodi:nodetypes="cccccccccccccccccc"
     class="st14"
     d="m 19.252905,6.4176849 c -0.720751,0.3216275 0.564092,2.9269795 0.376079,3.7954481 -0.376079,0.643255 -5.797232,-1.60827 -5.421233,-1.0292824 0.12536,0.2251604 0.971444,2.2515244 3.164999,2.8948324 0.175868,0.499745 -3.343408,5.630651 -3.343408,5.630651 -0.720777,1.286563 -0.323082,1.831525 -1.169035,3.085941 -2.9143055,4.37441 -5.6718988,6.400774 -5.9539182,10.324836 -0.125386,1.801229 1.4101498,2.380217 3.5096712,3.409473 3.603705,3.119966 5.651712,-2.862659 7.688554,-4.310036 1.848881,-1.190148 4.344617,-1.125802 5.472721,-2.605352 -0.353299,8.283707 -6.005063,8.3421 -7.458049,15.985807 H 43.099985 V 41.830946 C 43.037305,34.593904 42.50454,27.067356 39.339568,20.730929 v 0 C 36.456615,15.230797 30.095318,10.759894 23.702694,9.7949587 22.950642,9.4733313 23.138629,8.186742 21.853865,7.5756074 20.193049,6.6749922 19.566304,6.4820051 19.252905,6.4176849 Z"
     style="fill:url(#linearGradient1260-9);fill-opacity:1;stroke:#000000;stroke-width:0.80000001;stroke-miterlimit:4;stroke-dasharray:none;stroke-opacity:1" />
  <path
     id="path1064-4-0-1-7-4-7"
     inkscape:connector-curvature="0"
     sodipodi:nodetypes="ccccc"
     class="st15"
     d="m 39.372614,40.033499 c 0,0 0,-0.353457 0.0313,-1.09257 0.156555,-11.696779 -0.688789,-22.783032 -12.898991,-25.193122 10.676095,6.748198 9.361142,16.002794 9.73685,26.285692 z"
     style="fill:#000000;fill-opacity:1;stroke-width:0.31277111" />
  <path
     id="path1241-4-7-0-7-5-3-2"
     inkscape:connector-curvature="0"
     sodipodi:nodetypes="ccsc"
     class="st15"
     d="m 12.676105,31.746591 c 0.391768,-0.186584 0.50165,-0.08049 0.893312,0.349912 -0.539591,-0.01138 -2.642076,2.591063 -2.88753,2.424984 -1.0949251,-0.740806 -1.3411993,0.967317 1.994218,-2.774896 z"
     style="fill:#000000;fill-opacity:1;stroke-width:0.31277111" />
  <path
     id="path1241-4-7-3-6-4-3-5-2"
     inkscape:connector-curvature="0"
     sodipodi:nodetypes="ccsc"
     class="st15"
     d="m 9.4548025,28.293038 c 0.3893609,-0.294032 0.5596995,0.267361 0.3893609,0.828675 -0.1946805,0.320807 -0.8760354,0.802005 -1.3140531,0.962342 -0.5596732,0.21389 -0.7300119,-0.05342 0.9246922,-1.791017 z"
     style="fill:#000000;fill-opacity:1;stroke-width:0.31277111" />
  <path
     id="path1400-9-6-2-8-6"
     inkscape:connector-curvature="0"
     sodipodi:nodetypes="cccc"
     class="st15"
     d="m 24.689061,25.798096 c 1.847162,-1.12469 4.226586,-2.795666 3.130814,-5.398505 -0.313081,-0.706967 -1.314952,-3.920358 -2.19157,-2.924201 1.445895,4.265268 1.364668,4.541546 -1.221025,8.033517"
     style="fill:#000000;fill-opacity:1;stroke-width:0.31277111" />
  <path
     id="path1241-4-2-6-7-7"
     inkscape:connector-curvature="0"
     sodipodi:nodetypes="csccccc"
     class="st15"
     d="m 16.638081,21.519361 c 0.03453,-0.222409 0.941149,-2.460308 1.227349,-1.346333 0.02275,0.141261 -0.481568,0.07393 -0.544724,0.336921 1.490239,0.71202 2.40239,-0.839179 1.703414,-1.889813 0.38436,-0.674132 1.433407,-0.509508 1.811893,-0.784728 0.160814,-0.748374 -1.169352,-0.471805 -1.553474,-0.449024 -3.26226,0.754089 -3.384339,5.006419 -2.644458,4.132977 z"
     style="fill:#000000;fill-opacity:1;stroke-width:0.34789756" />
</svg>
