<svg xmlns:xlink="http://www.w3.org/1999/xlink" fill-rule="evenodd" clip-rule="evenodd" image-rendering="optimizeQuality" shape-rendering="geometricPrecision" text-rendering="geometricPrecision" viewBox="0 0 50 50">
  <defs>
    <linearGradient id="b" x1="4780.6792" x2="4780.5532" y1="-1226.002" y2="-1102.7894" gradientTransform="matrix(.26458 0 0 .26458 -1239.8547 335.7797)" gradientUnits="userSpaceOnUse" xlink:href="#a"/>
    <linearGradient id="a" x1="3132.2747" x2="3291.1646" y1="471.47299" y2="471.47299" gradientTransform="matrix(.7744 0 0 -.7744 -52.3103 348.9685)" gradientUnits="userSpaceOnUse">
      <stop offset="0" stop-color="#fff"/>
      <stop offset="1" stop-color="#dcdcdc"/>
    </linearGradient>
  </defs>
  <path fill="url(#b)" stroke="#000" stroke-linecap="round" stroke-linejoin="round" stroke-width=".80000001" d="M25.033245 11.40005c-2.327169.03358-4.75406 1.477354-5.518732 3.794151-.63164 1.813137-.09975 3.96203 1.29659 5.271533.465403.470058 1.063837.805841 1.56255 1.175173-4.089188 1.343077-5.153078 2.585402-5.153078 2.585402l-.09972 3.324093 4.222168-.134303C23.936124 33.627775 12.765681 35.877421 12.4 43.6H37.6c-.332449-7.689003-11.53615-9.972225-8.942996-16.183901l4.222168.134303-.09977-3.324093s-1.063837-1.242325-5.152999-2.585402c.531888-.369332 1.130323-.671512 1.562493-1.175173 1.396365-1.309503 1.928257-3.458396 1.296591-5.271533-.698156-2.350373-3.125073-3.794151-5.452242-3.794151z" class="st38"/>
</svg>
