<svg xmlns:xlink="http://www.w3.org/1999/xlink" fill-rule="evenodd" clip-rule="evenodd" image-rendering="optimizeQuality" shape-rendering="geometricPrecision" text-rendering="geometricPrecision" viewBox="0 0 50 50">
  <defs>
    <linearGradient id="a" x1="3132.2747" x2="3291.1646" y1="471.47299" y2="471.47299" gradientTransform="matrix(.7744 0 0 -.7744 -52.3103 348.9685)" gradientUnits="userSpaceOnUse">
      <stop offset="0" stop-color="#fff"/>
      <stop offset="1" stop-color="#dcdcdc"/>
    </linearGradient>
    <filter id="c" color-interpolation-filters="sRGB">
      <feGaussianBlur result="blur" stdDeviation="0.01 0.01"/>
    </filter>
    <linearGradient id="b" x1="5115.1763" x2="5115.1763" y1="-835.55292" y2="-691.87738" gradientTransform="matrix(.26448 0 0 .26448 -1327.8866 226.99113)" gradientUnits="userSpaceOnUse" xlink:href="#a"/>
  </defs>
  <path fill="url(#b)" stroke="#000" stroke-width=".80000001" d="M25.029951 6.3998578c-1.289949 0-2.369979.9546171-2.369979 2.1116921 0 1.041374.840026 1.9092071 1.950006 2.0827471l-3.240035 14.810714-4.98004-13.595773c.750014-.231405 1.230048-.867807 1.230048-1.590993 0-.9256711-.840026-1.6777761-1.859995-1.6777761-1.020022 0-1.860047.752105-1.860047 1.6777761 0 .867834.749988 1.619938 1.740006 1.677776l-.600022 14.723904-6.3600022-11.68654c.539989-.231431.899954-.723186.899954-1.272805 0-.781023-.719984-1.417426-1.58996-1.417426-.870056 0-1.59004.636403-1.59004 1.417426 0 .781024.719984 1.417426 1.59004 1.417426h.149939l2.9100732 16.054573 3.690037 6.624293-1.635045 3.919643c-.04498.824389 5.205016 1.923627 11.685111 1.923627h.42c6.47999 0 11.73009-1.099238 11.685084-1.923627 0-.08678-1.635019-3.919643-1.635019-3.919643l3.760867-6.624293 2.839191-16.054573h.150019c.870003 0 1.590013-.636402 1.590013-1.417426 0-.781023-.72001-1.417426-1.590013-1.417426-.870056 0-1.590067.636403-1.590067 1.417426 0 .549619.330042 1.041374.900007 1.272805l-6.360054 11.68654-.63-14.723904c.990045-.05784 1.740033-.781024 1.740033-1.677776 0-.9256711-.839999-1.6777761-1.860048-1.6777761-1.019995 0-1.859994.752105-1.859994 1.6777761 0 .723186.510011 1.330669 1.230048 1.590993l-4.98004 13.595773-3.240008-14.810714c1.139957-.17354 1.949979-1.0413731 1.949979-2.0827471.09001-1.157075-.959988-2.1116921-2.280047-2.1116921z" class="st14"/>
  <path d="M24.893294 26.512266c-.13507 0-.243126.0521-.270166.156316l-.567399 3.438948c-1.107811.02593-2.16154.0521-3.188282.156316l-1.323922-2.475019c-.08107-.156315-.459317-.104193-.459317.07816l.378248 2.553177c-.162136.02619-.32422.0521-.48633.0521-.999728.130281-1.621182.286597-2.161514.468948h-.702495l-1.08077-.937895c-.02704-.0521-.08107-.07816-.108083-.07816-.135096-.02593-.243178.13028-.243178.208438l.648467 1.485001.405289 1.172368h18.156872l.405263-1.120272.675534-1.511062c.02701-.104193-.189177-.338666-.351288-.130254l-1.080743.937895h-.810604c-.513344-.182377-1.134771-.312632-2.080445-.468948-.162163-.02619-.297259-.0521-.459343-.0521l.378248-2.579238c0-.156316-.378248-.234473-.45929-.07816l-1.323922 2.50108c-.972714-.07816-2.02647-.130281-3.107214-.156316l-.567425-3.465007c.02701-.10422-.08107-.156316-.216191-.156316z" class="st15"/>
  <g class="st16" filter="url(#c)" transform="matrix(.30011 0 0 .28938 -662.79408 112.47219)">
    <ellipse cx="2291.2" cy="-245.5" class="st15" rx="28.9" ry="2.3"/>
  </g>
</svg>
