<?xml version="1.0" encoding="UTF-8" standalone="no"?>
<!-- Generator: Adobe Illustrator 18.1.1, SVG Export Plug-In . SVG Version: 6.00 Build 0)  -->

<svg
   xmlns:dc="http://purl.org/dc/elements/1.1/"
   xmlns:cc="http://creativecommons.org/ns#"
   xmlns:rdf="http://www.w3.org/1999/02/22-rdf-syntax-ns#"
   xmlns:svg="http://www.w3.org/2000/svg"
   xmlns="http://www.w3.org/2000/svg"
   xmlns:sodipodi="http://sodipodi.sourceforge.net/DTD/sodipodi-0.dtd"
   xmlns:inkscape="http://www.inkscape.org/namespaces/inkscape"
   version="1.1"
   id="Layer_1"
   x="0px"
   y="0px"
   width="1"
   height="1"
   viewBox="-14.05 -10 220 220"
   enable-background="new 0 0 191.9 195.3"
   xml:space="preserve"
   inkscape:version="0.91 r13725"
   sodipodi:docname="bK.svg"><metadata
     id="metadata4275"><rdf:RDF><cc:Work
         rdf:about=""><dc:format>image/svg+xml</dc:format><dc:type
           rdf:resource="http://purl.org/dc/dcmitype/StillImage" /><dc:title></dc:title></cc:Work></rdf:RDF></metadata><defs
     id="defs4273" /><sodipodi:namedview
     pagecolor="#ffffff"
     bordercolor="#666666"
     borderopacity="1"
     objecttolerance="10"
     gridtolerance="10"
     guidetolerance="10"
     inkscape:pageopacity="0"
     inkscape:pageshadow="2"
     inkscape:window-width="130"
     inkscape:window-height="878"
     id="namedview4271"
     showgrid="false"
     inkscape:zoom="3.3589349"
     inkscape:cx="95.949997"
     inkscape:cy="97.650002"
     inkscape:window-x="0"
     inkscape:window-y="22"
     inkscape:window-maximized="0"
     inkscape:current-layer="Layer_1" /><switch
     id="switch4239"><g
       id="g4241"><g
         id="g4243"><polyline
           points="96.1,176.3 49.8,176.3 49.8,192.1 142.3,192.1 142.3,176.3 96.1,176.3    "
           id="polyline4245" /><polyline
           fill="none"
           stroke="#000000"
           stroke-width="6"
           stroke-miterlimit="10"
           points="96.1,176.3 49.8,176.3 49.8,192.1      142.3,192.1 142.3,176.3 96.1,176.3    "
           id="polyline4247" /><polyline
           fill="#FFFFFF"
           points="49.8,168.5 49.8,176.3 142.3,176.3 142.3,168.5    "
           id="polyline4249" /><polyline
           fill="none"
           stroke="#000000"
           stroke-width="6"
           stroke-miterlimit="10"
           points="49.8,168.5 49.8,176.3 142.3,176.3      142.3,168.5    "
           id="polyline4251" /><polyline
           points="103.7,68.4 103.7,42.5 126.9,42.5 126.9,26.7 103.7,26.7 103.8,3.1 88.3,3.1 88.3,26.7 65.2,26.7 65.2,42.5      88.3,42.5 88.3,68.4    "
           id="polyline4253" /><polyline
           fill="none"
           stroke="#000000"
           stroke-width="6"
           stroke-miterlimit="10"
           points="103.7,68.4 103.7,42.5 126.9,42.5      126.9,26.7 103.7,26.7 103.8,3.1 88.3,3.1 88.3,26.7 65.2,26.7 65.2,42.5 88.3,42.5 88.3,68.4    "
           id="polyline4255" /><path
           d="M187.3,75.7C180.1,47,152.8,44,152.8,44C114.3,38.6,96.4,80.8,96,81.8c-0.4-1-18.3-43.3-56.8-37.9c0,0-27.4,3-34.5,31.7     c0,0-13.8,51.8,45,92.8h92.5C201,127.5,187.3,75.7,187.3,75.7"
           id="path4257" /><path
           fill="none"
           stroke="#000000"
           stroke-width="6"
           stroke-miterlimit="10"
           d="M187.3,75.7C180.1,47,152.8,44,152.8,44     C114.3,38.6,96.4,80.8,96,81.8c-0.4-1-18.3-43.3-56.8-37.9c0,0-27.4,3-34.5,31.7c0,0-13.8,51.8,45,92.8h92.5     C201,127.5,187.3,75.7,187.3,75.7z"
           id="path4259" /><line
           fill="none"
           stroke="#000000"
           stroke-width="6"
           stroke-miterlimit="10"
           x1="88.3"
           y1="68.4"
           x2="103.7"
           y2="68.4"
           id="line4261" /><path
           fill="none"
           stroke="#FFFFFF"
           stroke-width="6"
           stroke-miterlimit="10"
           d="M147.5,67.2c-25.1-2.2-43.6,50.9-43.6,50.9v32.8     c0,0,26.2-0.6,46.6-21.8C170.9,107.7,172.6,69.3,147.5,67.2z"
           id="path4263" /><path
           fill="none"
           stroke="#FFFFFF"
           stroke-width="6"
           stroke-miterlimit="10"
           d="M44.5,67.2c-25.1,2.2-23.4,40.6-3,61.9     c20.4,21.3,46.8,21.8,46.8,21.8v-32.8C88.3,118.1,69.6,65,44.5,67.2z"
           id="path4265" /><line
           fill="none"
           stroke="#FFFFFF"
           stroke-width="4"
           stroke-miterlimit="10"
           x1="96"
           y1="18.8"
           x2="96"
           y2="58.2"
           id="line4267" /><line
           fill="none"
           stroke="#FFFFFF"
           stroke-width="4"
           stroke-miterlimit="10"
           x1="80.6"
           y1="34.6"
           x2="111.5"
           y2="34.6"
           id="line4269" /></g></g></switch></svg>
