<?xml version="1.0" encoding="UTF-8" standalone="no"?>
<!-- Generator: Adobe Illustrator 18.1.1, SVG Export Plug-In . SVG Version: 6.00 Build 0)  -->

<svg
   xmlns:dc="http://purl.org/dc/elements/1.1/"
   xmlns:cc="http://creativecommons.org/ns#"
   xmlns:rdf="http://www.w3.org/1999/02/22-rdf-syntax-ns#"
   xmlns:svg="http://www.w3.org/2000/svg"
   xmlns="http://www.w3.org/2000/svg"
   xmlns:sodipodi="http://sodipodi.sourceforge.net/DTD/sodipodi-0.dtd"
   xmlns:inkscape="http://www.inkscape.org/namespaces/inkscape"
   version="1.1"
   id="Layer_1"
   x="0px"
   y="0px"
   width="1"
   height="1"
   viewBox="-47.85 -10 220 220"
   enable-background="new 0 0 124.3 196.1"
   xml:space="preserve"
   inkscape:version="0.91 r13725"
   sodipodi:docname="wB.svg"><metadata
     id="metadata4466"><rdf:RDF><cc:Work
         rdf:about=""><dc:format>image/svg+xml</dc:format><dc:type
           rdf:resource="http://purl.org/dc/dcmitype/StillImage" /><dc:title></dc:title></cc:Work></rdf:RDF></metadata><defs
     id="defs4464" /><sodipodi:namedview
     pagecolor="#ffffff"
     bordercolor="#666666"
     borderopacity="1"
     objecttolerance="10"
     gridtolerance="10"
     guidetolerance="10"
     inkscape:pageopacity="0"
     inkscape:pageshadow="2"
     inkscape:window-width="129"
     inkscape:window-height="878"
     id="namedview4462"
     showgrid="false"
     inkscape:zoom="1.2034676"
     inkscape:cx="62.150002"
     inkscape:cy="98.050003"
     inkscape:window-x="262"
     inkscape:window-y="22"
     inkscape:window-maximized="0"
     inkscape:current-layer="Layer_1" /><switch
     id="switch4440"><g
       id="g4442"><g
         id="g4444"><path
           fill="#FFFFFF"
           d="M30.8,168.8C17,159.5,7.1,143,4.5,126.4C1.6,108.6,7,90.7,15.3,75.1c4.6-8.5,10.1-16.5,16.1-24l22.7,31     l16-16.3L46.4,34.3c5-5.2,10.3-10.1,15.6-15H62c109.6,98.2,31.3,149.5,31.3,149.5"
           id="path4446" /><path
           fill="none"
           stroke="#000000"
           stroke-width="6"
           stroke-miterlimit="10"
           d="M30.8,168.8C17,159.5,7.1,143,4.5,126.4     C1.6,108.6,7,90.7,15.3,75.1c4.6-8.5,10.1-16.5,16.1-24l22.7,31l16-16.3L46.4,34.3c5-5.2,10.3-10.1,15.6-15H62     c109.6,98.2,31.3,149.5,31.3,149.5"
           id="path4448" /><path
           fill="#FFFFFF"
           d="M69.9,11.4c0,4.4-3.5,8-7.9,8c-4.3,0-7.9-3.6-7.9-8c0-4.4,3.5-8,7.9-8C66.3,3.3,69.9,6.9,69.9,11.4"
           id="path4450" /><ellipse
           fill="none"
           stroke="#000000"
           stroke-width="6"
           stroke-miterlimit="10"
           cx="62"
           cy="11.4"
           rx="7.9"
           ry="8"
           id="ellipse4452" /><polyline
           fill="#FFFFFF"
           points="15.8,176.7 15.8,168.8 108.3,168.8 108.3,176.7    "
           id="polyline4454" /><polyline
           fill="none"
           stroke="#000000"
           stroke-width="6"
           stroke-miterlimit="10"
           points="15.8,176.7 15.8,168.8 108.3,168.8      108.3,176.7    "
           id="polyline4456" /><polyline
           fill="#FFFFFF"
           points="62.1,176.7 15.8,176.7 15.8,192.4 108.3,192.4 108.3,176.7 62.1,176.7    "
           id="polyline4458" /><polyline
           fill="none"
           stroke="#000000"
           stroke-width="6"
           stroke-miterlimit="10"
           points="62.1,176.7 15.8,176.7 15.8,192.4      108.3,192.4 108.3,176.7 62.1,176.7    "
           id="polyline4460" /></g></g></switch></svg>
