<?xml version="1.0" encoding="UTF-8" standalone="no"?>
<svg
   xmlns:dc="http://purl.org/dc/elements/1.1/"
   xmlns:cc="http://creativecommons.org/ns#"
   xmlns:rdf="http://www.w3.org/1999/02/22-rdf-syntax-ns#"
   xmlns:svg="http://www.w3.org/2000/svg"
   xmlns="http://www.w3.org/2000/svg"
   xmlns:sodipodi="http://sodipodi.sourceforge.net/DTD/sodipodi-0.dtd"
   xmlns:inkscape="http://www.inkscape.org/namespaces/inkscape"
   width="60"
   height="60"
   version="1.1"
   id="svg61"
   sodipodi:docname="0HI.svg"
   inkscape:version="1.0.1 (3bc2e813f5, 2020-09-07)">
  <metadata
     id="metadata65">
    <rdf:RDF>
      <cc:Work
         rdf:about="">
        <dc:format>image/svg+xml</dc:format>
        <dc:type
           rdf:resource="http://purl.org/dc/dcmitype/StillImage" />
      </cc:Work>
    </rdf:RDF>
  </metadata>
  <sodipodi:namedview
     pagecolor="#ffffff"
     bordercolor="#666666"
     borderopacity="1"
     objecttolerance="10"
     gridtolerance="10"
     guidetolerance="10"
     inkscape:pageopacity="0"
     inkscape:pageshadow="2"
     inkscape:window-width="1366"
     inkscape:window-height="711"
     id="namedview63"
     showgrid="false"
     inkscape:zoom="9.1"
     inkscape:cx="30"
     inkscape:cy="30"
     inkscape:window-x="0"
     inkscape:window-y="0"
     inkscape:window-maximized="1"
     inkscape:current-layer="svg61" />
  <defs
     id="defs9">
    <filter
       id="a">
      <feGaussianBlur
         in="SourceAlpha"
         result="blur"
         stdDeviation="2"
         id="feGaussianBlur2" />
      <feOffset
         result="offsetBlur"
         dx="2"
         dy="2"
         id="feOffset4" />
      <feBlend
         in="SourceGraphic"
         in2="offsetBlur"
         id="feBlend6" />
    </filter>
  </defs>
  <g
     transform="translate(40.881999,-0.267)"
     fill="#fdc9dd"
     filter="url(#a)"
     id="g13">
    <path
       d="m -10.96,6.237 -12.838,3.608 -7.051,44.45 H 9.085 C 6.782,39.41 5.009,23.745 2.295,10.132 Z"
       id="path11" />
  </g>
  <path
     d="m 30.15,43.44 -0.3,-3.01"
     fill="none"
     stroke="#ffffe5"
     stroke-width="0.679147"
     id="path15" />
  <path
     d="M 24.462,40.64 H 35.538"
     fill="none"
     stroke="#ffffff"
     stroke-width="0.679147"
     id="path17" />
  <path
     d="m 35.7915,39.906 a 5.975,6.2 0 0 0 -0.035,-0.158 5.975,6.2 0 0 0 -0.188,-0.589 5.975,6.2 0 0 0 -0.244,-0.565 5.975,6.2 0 0 0 -0.297,-0.537 5.975,6.2 0 0 0 -0.348,-0.506 5.975,6.2 0 0 0 -0.394,-0.465 5.975,6.2 0 0 0 -0.437,-0.422 5.975,6.2 0 0 0 -0.475,-0.375 5.975,6.2 0 0 0 -0.51,-0.324 5.975,6.2 0 0 0 -0.537,-0.27 5.975,6.2 0 0 0 -0.56,-0.212 5.975,6.2 0 0 0 -0.58,-0.153 5.975,6.2 0 0 0 -0.59,-0.093 5.975,6.2 0 0 0 -0.598,-0.03 5.975,6.2 0 0 0 -0.422,0.014 5.975,6.2 0 0 0 -0.592,0.075 5.975,6.2 0 0 0 -0.584,0.136 5.975,6.2 0 0 0 -0.566,0.195 5.975,6.2 0 0 0 -0.546,0.253 5.975,6.2 0 0 0 -0.518,0.31 5.975,6.2 0 0 0 -0.486,0.36 5.975,6.2 0 0 0 -0.448,0.409 5.975,6.2 0 0 0 -0.407,0.453 5.975,6.2 0 0 0 -0.362,0.494 5.975,6.2 0 0 0 -0.312,0.528 5.975,6.2 0 0 0 -0.26,0.558 5.975,6.2 0 0 0 -0.204,0.582 5.975,6.2 0 0 0 -0.083,0.332 z"
     stroke="#000000"
     stroke-linecap="round"
     stroke-linejoin="round"
     stroke-width="0.67915"
     id="path19" />
  <path
     d="m 18.534,23.367 v 17.29 h 2.657 a 9.064,9.064 0 0 1 0.045,-0.302 9.064,9.064 0 0 1 0.224,-0.877 9.064,9.064 0 0 1 0.31,-0.851 9.064,9.064 0 0 1 0.394,-0.816 9.064,9.064 0 0 1 0.474,-0.772 9.064,9.064 0 0 1 0.55,-0.722 9.064,9.064 0 0 1 0.616,-0.663 9.064,9.064 0 0 1 0.682,-0.598 9.064,9.064 0 0 1 0.736,-0.527 9.064,9.064 0 0 1 0.787,-0.45 9.064,9.064 0 0 1 0.826,-0.37 9.064,9.064 0 0 1 0.86,-0.286 9.064,9.064 0 0 1 0.884,-0.199 9.064,9.064 0 0 1 0.9,-0.109 9.064,9.064 0 0 1 0.64,-0.022 9.064,9.064 0 0 1 0.906,0.045 9.064,9.064 0 0 1 0.896,0.135 9.064,9.064 0 0 1 0.878,0.224 9.064,9.064 0 0 1 0.85,0.31 9.064,9.064 0 0 1 0.817,0.395 9.064,9.064 0 0 1 0.772,0.473 9.064,9.064 0 0 1 0.722,0.55 9.064,9.064 0 0 1 0.662,0.616 9.064,9.064 0 0 1 0.598,0.68 9.064,9.064 0 0 1 0.528,0.738 9.064,9.064 0 0 1 0.45,0.785 9.064,9.064 0 0 1 0.37,0.828 9.064,9.064 0 0 1 0.286,0.86 9.064,9.064 0 0 1 0.198,0.884 9.064,9.064 0 0 1 0.005,0.04 h 2.409 V 23.367 Z"
     stroke="#000000"
     stroke-linecap="round"
     stroke-linejoin="round"
     stroke-width="0.67915"
     id="path21" />
  <path
     d="m 39.2315,41.796 h 3.914 l -0.891,-1.13 -0.728,-0.02 -2.41,10e-4 c 0.049,0.288 0.084,0.578 0.106,0.869 0.005,0.093 0.007,0.186 0.01,0.28 z m -17.98,-1.144 -2.6,0.002 -0.903,-0.006 -0.894,1.148 h 4.28 a 9.03,9.03 0 0 1 0.027,-0.544 c 0.023,-0.201 0.053,-0.401 0.09,-0.6 z"
     stroke="#000000"
     stroke-linejoin="round"
     stroke-width="0.67915"
     id="path23" />
  <path
     d="m 27.968384,43.59 4.062,-0.01 -0.006,-1.556 -3.946,0.002 a 9.157,7.96 0 0 1 0.013,0.321 9.157,7.96 0 0 1 -0.045,0.795 9.157,7.96 0 0 1 -0.078,0.447 z"
     stroke="#000000"
     stroke-width="0.639759"
     id="path25" />
  <path
     d="m 32.070971,42.006 -4.311,0.004 0.01,1.635 4.406,-0.01 a 9.106,8.144 0 0 1 -0.1,-0.737 9.106,8.144 0 0 1 -0.022,-0.576 9.106,8.144 0 0 1 0.017,-0.316 z"
     stroke="#000000"
     stroke-width="0.645193"
     id="path27" />
  <path
     d="m 24.135004,40.536 a 5.882,10.226 0 0 0 -0.017,0.584 5.882,10.226 0 0 0 0.014,0.724 5.882,10.226 0 0 0 0.07,1.015 5.882,10.226 0 0 0 0.086,0.656 l 11.43,-0.05 a 5.882,10.226 0 0 0 0.046,-0.313 5.882,10.226 0 0 0 0.089,-1.01 5.882,10.226 0 0 0 0.029,-1.022 5.882,10.226 0 0 0 -0.012,-0.6 z"
     stroke="#000000"
     stroke-width="0.865237"
     id="path29" />
  <path
     d="m 18.523496,23.383 c -1.812,-1.328 -1.658,-1.655 -2.585,-3.66 9.525,0.986 19.13,1.089 28.123,-0.036 -0.649,2.129 -0.769,2.448 -2.532,3.68 z"
     stroke="#000000"
     stroke-linejoin="round"
     stroke-width="0.67915"
     id="path31" />
  <path
     d="m 29.999,32.402 a 9.064,9.064 0 0 0 -9.063,9.064 9.064,9.064 0 0 0 9.063,9.065 9.064,9.064 0 0 0 9.065,-9.065 9.064,9.064 0 0 0 -9.065,-9.064 z m 0,2.864 a 5.975,6.2 0 0 1 5.976,6.2 5.975,6.2 0 0 1 -5.976,6.2 5.975,6.2 0 0 1 -5.974,-6.2 5.975,6.2 0 0 1 5.974,-6.2 z"
     stroke="#000000"
     stroke-width="0.566411"
     stroke-linecap="round"
     stroke-linejoin="round"
     id="path33" />
  <path
     d="M 30,42.007 V 48.4"
     fill="none"
     stroke="#000000"
     stroke-width="0.67915"
     id="path35" />
  <path
     d="m 18.194,24.09 23.612,0.12"
     fill="#ffffff"
     stroke="#ffffff"
     stroke-width="0.999709"
     id="path37" />
  <path
     d="m 25.611331,46.299 4.292,-4.353 4.487,4.488"
     fill="none"
     stroke="#000000"
     stroke-width="0.67915"
     id="path39" />
  <path
     d="m 27.905,42.09 h 4.19"
     fill="#ffffff"
     stroke="#ffffff"
     stroke-width="0.866595"
     id="path41" />
  <path
     d="M 24.503,42.09 H 35.497"
     fill="#ffffff"
     stroke="#ffffff"
     stroke-width="0.680508"
     id="path43" />
  <path
     d="m 27.965,42.09 h 4.07"
     fill="#ffffff"
     stroke="#ffffff"
     stroke-width="0.866595"
     id="path45" />
  <path
     d="M 30,43.715 V 35.433"
     fill="none"
     stroke="#ffffff"
     stroke-width="0.67915"
     id="path47" />
  <path
     d="M 32.896,43.578 27.104,37.551"
     fill="#ffffff"
     stroke="#ffffff"
     stroke-width="0.67915"
     id="path49" />
  <path
     d="m 27.0025,43.693 5.995,-6.099"
     fill="none"
     stroke="#ffffff"
     stroke-width="0.67915"
     id="path51" />
  <path
     d="m 34.851569,43.656 a 5.507,5.507 0 0 0 -1.366,-6.868 5.507,5.507 0 0 0 -7.002,0.026 5.507,5.507 0 0 0 -1.316,6.878"
     fill="none"
     stroke="#ffffff"
     stroke-width="0.666246"
     stroke-linejoin="bevel"
     id="path53" />
  <path
     d="m 24.5455,40.525 h 10.909"
     fill="none"
     stroke="#ffffff"
     stroke-width="0.67915"
     id="path55" />
  <path
     d="m 39.601623,43.624 a 9.794,9.794 0 0 0 -4.195,-10.1 9.794,9.794 0 0 0 -10.936,0.083 9.794,9.794 0 0 0 -4.042,10.162"
     fill="none"
     stroke="#ffffff"
     stroke-width="1.1043"
     stroke-linejoin="bevel"
     id="path57" />
  <path
     d="m 18.197,39.75 h 2.238 m 19.129,0.011 h 2.239"
     fill="#ffffff"
     stroke="#ffffff"
     stroke-width="1.08324"
     id="path59" />
</svg>
