<svg xmlns="http://www.w3.org/2000/svg" width="60" height="60"><defs><filter id="a"><feGaussianBlur in="SourceAlpha" result="blur" stdDeviation="2"/><feOffset result="offsetBlur" dx="2" dy="2"/><feBlend in="SourceGraphic" in2="offsetBlur"/></filter></defs><g transform="translate(40.882 -.267)" fill="#fdc9dd" filter="url(#a)"><path d="M-10.96 6.237l-12.838 3.608-7.051 44.45H9.085c-2.303-14.885-4.076-30.55-6.79-44.163z"/></g><path d="M30.15 43.44l-.3-3.01" fill="none" stroke="#ffffe5" stroke-width=".679"/><path d="M24.462 40.64h11.076" fill="none" stroke="#fff" stroke-width=".679"/><path d="M35.791 39.906a5.975 6.2 0 00-.034-.158 5.975 6.2 0 00-.188-.589 5.975 6.2 0 00-.245-.565 5.975 6.2 0 00-.296-.537 5.975 6.2 0 00-.348-.506 5.975 6.2 0 00-.394-.465 5.975 6.2 0 00-.437-.422 5.975 6.2 0 00-.475-.375 5.975 6.2 0 00-.51-.324 5.975 6.2 0 00-.537-.27 5.975 6.2 0 00-.56-.212 5.975 6.2 0 00-.58-.153 5.975 6.2 0 00-.59-.093 5.975 6.2 0 00-.598-.03 5.975 6.2 0 00-.422.014 5.975 6.2 0 00-.592.075 5.975 6.2 0 00-.584.136 5.975 6.2 0 00-.566.195 5.975 6.2 0 00-.546.253 5.975 6.2 0 00-.518.31 5.975 6.2 0 00-.486.36 5.975 6.2 0 00-.448.409 5.975 6.2 0 00-.407.453 5.975 6.2 0 00-.362.494 5.975 6.2 0 00-.312.528 5.975 6.2 0 00-.26.558 5.975 6.2 0 00-.204.582 5.975 6.2 0 00-.083.332z" stroke="#000" stroke-linecap="round" stroke-linejoin="round" stroke-width=".679"/><path d="M18.534 23.367v17.29h2.657a9.064 9.064 0 01.045-.302 9.064 9.064 0 01.224-.877 9.064 9.064 0 01.31-.851 9.064 9.064 0 01.394-.816 9.064 9.064 0 01.474-.772 9.064 9.064 0 01.55-.722 9.064 9.064 0 01.616-.663 9.064 9.064 0 01.682-.598 9.064 9.064 0 01.736-.527 9.064 9.064 0 01.787-.45 9.064 9.064 0 01.826-.37 9.064 9.064 0 01.86-.286 9.064 9.064 0 01.884-.199 9.064 9.064 0 01.9-.109 9.064 9.064 0 01.64-.022 9.064 9.064 0 01.906.045 9.064 9.064 0 01.896.135 9.064 9.064 0 01.878.224 9.064 9.064 0 01.85.31 9.064 9.064 0 01.817.395 9.064 9.064 0 01.772.473 9.064 9.064 0 01.722.55 9.064 9.064 0 01.662.616 9.064 9.064 0 01.598.68 9.064 9.064 0 01.528.738 9.064 9.064 0 01.45.785 9.064 9.064 0 01.37.828 9.064 9.064 0 01.286.86 9.064 9.064 0 01.198.884 9.064 9.064 0 01.005.04h2.409V23.367z" stroke="#000" stroke-linecap="round" stroke-linejoin="round" stroke-width=".679"/><path d="M39.231 41.796h3.914l-.89-1.13-.729-.02-2.41.001c.05.288.085.578.107.869.005.093.007.186.01.28zm-17.98-1.144l-2.6.002-.903-.006-.894 1.148h4.28a9.03 9.03 0 01.027-.544 8.68 8.68 0 01.09-.6z" stroke="#000" stroke-linejoin="round" stroke-width=".679"/><path d="M27.968 43.59l4.062-.01-.006-1.556-3.946.002a9.157 7.96 0 01.013.321 9.157 7.96 0 01-.045.795 9.157 7.96 0 01-.078.447z" stroke="#000" stroke-width=".64"/><path d="M32.071 42.006l-4.311.004.01 1.635 4.406-.01a9.106 8.144 0 01-.1-.737 9.106 8.144 0 01-.022-.576 9.106 8.144 0 01.017-.316z" stroke="#000" stroke-width=".645"/><path d="M24.135 40.536a5.882 10.226 0 00-.017.584 5.882 10.226 0 00.014.724 5.882 10.226 0 00.07 1.015 5.882 10.226 0 00.086.656l11.43-.05a5.882 10.226 0 00.046-.313 5.882 10.226 0 00.089-1.01 5.882 10.226 0 00.029-1.022 5.882 10.226 0 00-.012-.6z" stroke="#000" stroke-width=".865"/><path d="M18.523 23.383c-1.812-1.328-1.658-1.655-2.585-3.66 9.525.986 19.13 1.089 28.123-.036-.649 2.129-.769 2.448-2.532 3.68z" stroke="#000" stroke-linejoin="round" stroke-width=".679"/><path d="M29.999 32.402a9.064 9.064 0 00-9.063 9.064 9.064 9.064 0 009.063 9.065 9.064 9.064 0 009.065-9.065 9.064 9.064 0 00-9.065-9.064zm0 2.864a5.975 6.2 0 015.976 6.2 5.975 6.2 0 01-5.976 6.2 5.975 6.2 0 01-5.974-6.2 5.975 6.2 0 015.974-6.2z" stroke="#000" stroke-width=".566" stroke-linecap="round" stroke-linejoin="round"/><path d="M30 42.007V48.4" fill="none" stroke="#000" stroke-width=".679"/><path d="M18.194 24.09l23.612.12" fill="#fff" stroke="#fff"/><path d="M25.611 46.299l4.292-4.353 4.487 4.488" fill="none" stroke="#000" stroke-width=".679"/><path d="M27.905 42.09h4.19" fill="#fff" stroke="#fff" stroke-width=".867"/><path d="M24.503 42.09h10.994" fill="#fff" stroke="#fff" stroke-width=".681"/><path d="M27.965 42.09h4.07" fill="#fff" stroke="#fff" stroke-width=".867"/><path d="M30 43.715v-8.282" fill="none" stroke="#fff" stroke-width=".679"/><path d="M32.896 43.578l-5.792-6.027" fill="#fff" stroke="#fff" stroke-width=".679"/><path d="M27.003 43.693l5.995-6.099" fill="none" stroke="#fff" stroke-width=".679"/><path d="M34.852 43.656a5.507 5.507 0 00-1.366-6.868 5.507 5.507 0 00-7.002.026 5.507 5.507 0 00-1.316 6.878" fill="none" stroke="#fff" stroke-width=".666" stroke-linejoin="bevel"/><path d="M24.546 40.525h10.909" fill="none" stroke="#fff" stroke-width=".679"/><path d="M39.602 43.624a9.794 9.794 0 00-4.195-10.1 9.794 9.794 0 00-10.936.083 9.794 9.794 0 00-4.042 10.162" fill="none" stroke="#fff" stroke-width="1.104" stroke-linejoin="bevel"/><path d="M18.197 39.75h2.238m19.129.011h2.239" fill="#fff" stroke="#fff" stroke-width="1.083"/></svg>