<?xml version="1.0" encoding="UTF-8" standalone="no"?>
<svg
   xmlns:dc="http://purl.org/dc/elements/1.1/"
   xmlns:cc="http://creativecommons.org/ns#"
   xmlns:rdf="http://www.w3.org/1999/02/22-rdf-syntax-ns#"
   xmlns:svg="http://www.w3.org/2000/svg"
   xmlns="http://www.w3.org/2000/svg"
   xmlns:sodipodi="http://sodipodi.sourceforge.net/DTD/sodipodi-0.dtd"
   xmlns:inkscape="http://www.inkscape.org/namespaces/inkscape"
   width="60"
   height="60"
   version="1.1"
   id="svg35"
   sodipodi:docname="0KA.svg"
   inkscape:version="1.0.1 (3bc2e813f5, 2020-09-07)">
  <metadata
     id="metadata39">
    <rdf:RDF>
      <cc:Work
         rdf:about="">
        <dc:format>image/svg+xml</dc:format>
        <dc:type
           rdf:resource="http://purl.org/dc/dcmitype/StillImage" />
      </cc:Work>
    </rdf:RDF>
  </metadata>
  <sodipodi:namedview
     pagecolor="#ffffff"
     bordercolor="#666666"
     borderopacity="1"
     objecttolerance="10"
     gridtolerance="10"
     guidetolerance="10"
     inkscape:pageopacity="0"
     inkscape:pageshadow="2"
     inkscape:window-width="1366"
     inkscape:window-height="711"
     id="namedview37"
     showgrid="false"
     inkscape:zoom="9.1"
     inkscape:cx="30"
     inkscape:cy="30"
     inkscape:window-x="0"
     inkscape:window-y="0"
     inkscape:window-maximized="1"
     inkscape:current-layer="svg35" />
  <defs
     id="defs9">
    <filter
       id="a">
      <feGaussianBlur
         in="SourceAlpha"
         result="blur"
         stdDeviation="2"
         id="feGaussianBlur2" />
      <feOffset
         result="offsetBlur"
         dx="2"
         dy="2"
         id="feOffset4" />
      <feBlend
         in="SourceGraphic"
         in2="offsetBlur"
         id="feBlend6" />
    </filter>
  </defs>
  <g
     transform="translate(40.881999,-0.279)"
     fill="#fdc9dd"
     filter="url(#a)"
     id="g13">
    <path
       d="m -10.96,6.237 -12.838,3.608 -7.051,44.45 H 9.085 L 2.295,10.132 Z"
       id="path11" />
  </g>
  <g
     stroke-width="0.6"
     id="g31"
     transform="translate(3.926961)">
    <path
       d="m 37.696,27.755 -2.775,0.278"
       fill="none"
       stroke="#000000"
       stroke-width="1.00029"
       id="path15" />
    <path
       d="m 42.35,41.116 c -6.961,-0.49 -13.486,-0.07 -22.965,0 M 20.1,36.038 c 4.095,-6.716 10.39,-4.523 14.778,-4.464 3.667,2.174 4.206,2.35 5.55,3.988 1.42,1.908 1.782,3.234 1.896,5.577 -7.084,2.553 -14.164,3.077 -22.64,0.488 -0.13,-2.08 0.18,-3.846 0.416,-5.589 z"
       stroke="#000000"
       stroke-width="0.62259"
       id="path17" />
    <g
       stroke="#000000"
       stroke-width="1.554"
       id="g23">
      <path
         d="m 20.165,28.392 c -1.02,4.923 -1.276,9.434 -1.682,14.396 -0.778,3.69 -5.768,7.546 -8.627,6.745 1.174,-6.573 0.814,-16.203 4.463,-28.035 2.246,-0.318 4.556,-0.45 7.006,-0.704 0.816,0.042 1.419,0.207 1.984,0.583 0.76,1.074 2.405,4.614 3.081,6.355 l -0.322,3.622 c -1.597,0.654 -2.492,1.307 -3.68,1.96 z"
         fill="#e6e6e6"
         stroke-width="0.622408"
         id="path19" />
      <path
         d="m 22.482,33.127 c -1.477,-3.188 -1.91,-4.756 -3.768,-7.781 -0.752,-0.928 -1.517,-1.837 -2.387,-2.588 -0.99,-0.32 -1.235,-0.715 -2.224,-0.38"
         fill="none"
         stroke-width="0.622408"
         id="path21" />
    </g>
    <path
       d="m 34.556,31.578 1.656,-12.759 c 0.597,-3.452 -0.196,-5.31 -3.072,-4.774 -2.65,0.753 -4.33,3.278 -5.685,6.396 L 26.11,31.38 c 4.627,-0.44 6.155,-0.121 8.447,0.199 z"
       stroke="#000000"
       stroke-width="0.62259"
       id="path25" />
    <path
       d="m 41.912,37.397 c -0.2,0.078 -0.293,0.064 -0.694,-0.065 -5.152,-1.66 -9.865,-3.442 -20.963,-0.922 -0.103,0.023 -0.357,0.1 -0.54,0.08"
       fill="none"
       stroke="#ffffff"
       stroke-width="1.00029"
       id="path27" />
    <path
       d="m 29.7,28.465 -5.885,0.344"
       fill="none"
       stroke="#000000"
       stroke-width="1.00029"
       id="path29" />
  </g>
  <path
     d="m 41.678728,40.85 c -0.217,0.02 -0.685,-0.114 -0.78,-0.137 -6.984,-1.72 -13.853,-2.061 -21.785,0.465 -0.196,0.062 -0.588,0.07 -0.798,0.087 m 15.714,-10.557 c -3.986,-0.45 -5.938,-0.512 -8.622,-0.192 -0.342,0.04 -0.446,0.082 -0.546,0.07"
     fill="none"
     stroke="#ffffff"
     stroke-width="1.00004"
     id="path33" />
</svg>
