<?xml version="1.0" encoding="UTF-8" standalone="no"?>
<svg
   xmlns:dc="http://purl.org/dc/elements/1.1/"
   xmlns:cc="http://creativecommons.org/ns#"
   xmlns:rdf="http://www.w3.org/1999/02/22-rdf-syntax-ns#"
   xmlns:svg="http://www.w3.org/2000/svg"
   xmlns="http://www.w3.org/2000/svg"
   xmlns:sodipodi="http://sodipodi.sourceforge.net/DTD/sodipodi-0.dtd"
   xmlns:inkscape="http://www.inkscape.org/namespaces/inkscape"
   width="60"
   height="60"
   version="1.1"
   id="svg29"
   sodipodi:docname="0KE.svg"
   inkscape:version="1.0.1 (3bc2e813f5, 2020-09-07)">
  <metadata
     id="metadata33">
    <rdf:RDF>
      <cc:Work
         rdf:about="">
        <dc:format>image/svg+xml</dc:format>
        <dc:type
           rdf:resource="http://purl.org/dc/dcmitype/StillImage" />
      </cc:Work>
    </rdf:RDF>
  </metadata>
  <sodipodi:namedview
     pagecolor="#ffffff"
     bordercolor="#666666"
     borderopacity="1"
     objecttolerance="10"
     gridtolerance="10"
     guidetolerance="10"
     inkscape:pageopacity="0"
     inkscape:pageshadow="2"
     inkscape:window-width="1366"
     inkscape:window-height="711"
     id="namedview31"
     showgrid="false"
     inkscape:zoom="9.1"
     inkscape:cx="30"
     inkscape:cy="30"
     inkscape:window-x="0"
     inkscape:window-y="0"
     inkscape:window-maximized="1"
     inkscape:current-layer="svg29" />
  <defs
     id="defs9">
    <filter
       id="a">
      <feGaussianBlur
         in="SourceAlpha"
         result="blur"
         stdDeviation="2"
         id="feGaussianBlur2" />
      <feOffset
         result="offsetBlur"
         dx="2"
         dy="2"
         id="feOffset4" />
      <feBlend
         in="SourceGraphic"
         in2="offsetBlur"
         id="feBlend6" />
    </filter>
  </defs>
  <g
     transform="matrix(0.91071,0,0,0.91071,39.910345,2.874)"
     filter="url(#a)"
     id="g13">
    <path
       d="m -10.96,6.237 c -4.319,1 -8.69,2.088 -12.838,3.608 l -7.051,44.45 H 9.085 L 2.295,10.133 C -2.123,8.835 -6.544,7.533 -10.96,6.237 Z"
       fill="#fee572"
       id="path11" />
  </g>
  <g
     stroke-width="1.386"
     id="g23"
     transform="translate(3.0933365)">
    <path
       d="m 19.543,14.43 c -0.737,1.39 -0.45,2.979 -0.45,4.505 -1.214,2.5 -2.035,4.423 -1.867,6.692 -1.577,1.757 -2.963,3.627 -3.86,5.791 -0.257,1.073 -0.478,2.145 -0.065,3.218 l 0.58,0.322 c 0.746,1.548 0.966,1.89 2.637,1.673 l 0.322,-1.609 0.45,-0.772 -0.321,2.059 0.45,1.094 c 2.56,-0.825 2.502,-2.202 3.845,-4.274 2.032,-0.938 2.914,-1.414 4.907,-2.161 l 0.9,-0.58 1.352,-2.251 -1.223,2.188 0.322,1.415 c 0,0 0.064,1.287 0,1.609 -0.136,2.074 -1.973,4.578 -3.46,5.858 -2.033,1.548 -2.425,2.987 -2.717,5.467 9.926,5.51 14.796,2.929 19.368,-0.128 A 33.096,33.096 0 0 0 39.93,41.031 C 38.831,37.345 38.627,35.017 38.461,28.651 38.155,23.985 33.377,17.461 27.303,17.771 l -2.998,-4.628 c -1.263,1.124 -1.078,2.793 -1.287,4.376 L 22.052,17.39 Z"
       stroke="#000000"
       stroke-width="0.637823"
       id="path15" />
    <path
       d="m 27.046,30.292 c 0.692,-1.208 0.78,-3.209 0.71,-3.932"
       fill="none"
       stroke="#ffffff"
       stroke-width="0.797049"
       id="path17" />
    <path
       d="m 21.186,22.755 c -1.521,-0.093 -1.394,0.686 -1.8,2.005 1.55,0.121 1.405,-0.658 1.8,-2.005 z"
       fill="#ffffff"
       stroke="#ffffff"
       stroke-width="0.913017"
       id="path19" />
    <path
       d="m 28.28,19.886 c 0.917,-0.523 2.74,0.504 3.404,1.065 2.202,1.86 4.705,4.27 4.744,7.371 0.606,4.819 0.38,11.539 2.208,15.596"
       fill="none"
       stroke="#ffffff"
       stroke-width="1.36584"
       id="path21" />
  </g>
  <path
     d="m 29.1525,36.82 1.695,-2.392"
     fill="none"
     stroke="#ffffff"
     stroke-width="0.796683"
     id="path25" />
  <path
     d="m 29.590231,33.46 c -0.412,-0.77 0.158,-0.956 1.08,-1.83"
     fill="none"
     stroke="#ffffff"
     stroke-width="0.796852"
     id="path27" />
</svg>
