<svg xmlns="http://www.w3.org/2000/svg" width="60" height="60"><defs><filter id="a"><feGaussianBlur in="SourceAlpha" result="blur" stdDeviation="2"/><feOffset result="offsetBlur" dx="2" dy="2"/><feBlend in="SourceGraphic" in2="offsetBlur"/></filter></defs><path d="M29.928 8.117l-11.69 3.286-6.423 40.48h36.37L42 11.664z" fill="#fee572" filter="url(#a)"/><g stroke="#000" stroke-width="4.938"><path d="M29.279 49.912V24.319h1.447v25.593z" stroke-width=".476"/><path d="M29.405 24.812l-1.297-.826.256-10.735 1.609-2.754 1.69 2.676.23 10.726-1.29.889z" fill="#e6e6e6" stroke-width=".838"/><path d="M29.994 10.917V21.05l1.594 1.265m-1.594-1.265l-1.573 1.397" fill="none" stroke-width=".435"/></g><path d="M22.063 40.439h15.875v1.446H22.062z" stroke="#000" stroke-width=".476"/><path d="M30 32.014a9.148 9.148 0 00-9.148 9.148A9.148 9.148 0 0030 50.31a9.148 9.148 0 009.147-9.148 9.148 9.148 0 00-9.146-9.148zm0 1.995a7.152 7.152 0 017.151 7.153 7.152 7.152 0 01-7.15 7.152 7.152 7.152 0 01-7.155-7.152A7.152 7.152 0 0130 34.009z"/><path d="M23.877 46.263l11.225-11.225 1.022 1.023-11.226 11.225z" stroke="#000" stroke-width=".476"/><path d="M24.898 35.038l11.225 11.225-1.021 1.023-11.225-11.225z" stroke="#000" stroke-width=".476"/></svg>