<svg xmlns="http://www.w3.org/2000/svg" width="60" height="60"><defs><filter id="a"><feGaussianBlur in="SourceAlpha" result="blur" stdDeviation="2"/><feOffset result="offsetBlur" dx="2" dy="2"/><feBlend in="SourceGraphic" in2="offsetBlur"/></filter></defs><g transform="translate(40.23 1.533) scale(.94015)" fill="#dcdcdc" filter="url(#a)"><path d="M-10.96 6.237l-12.838 3.608-7.051 44.45H9.085l-6.79-44.163z" fill="#e6e6e6"/></g><g stroke="#000"><path d="M282.83 136.555c.204-5.885-.282-11.142-3.009-13.33 2.021-.873 3.212-2.979 4.365-4.578 1.154 1.6 2.344 3.705 4.365 4.579-2.727 2.187-3.213 7.444-3.009 13.33v0a4.466 4.466 0 01-1.356.232 4.436 4.436 0 01-1.356-.233z" transform="matrix(.74656 0 0 .75296 -182.153 -75.268)" fill="red" stroke="red"/><path transform="matrix(.05802 0 0 .06853 14.131 8.017)" d="M97.159 111.627c-2.764 121.39 19.614 224.192 177.984 219.075 158.37 5.117 180.748-97.685 177.985-219.075-11.066 132.287-51.513 167.404-177.985 175.038-126.471-7.634-166.92-42.75-177.984-175.038z" fill="#fc0" stroke="red" stroke-width="10.736"/><path transform="matrix(.05802 0 0 .06853 14.131 8.017)" d="M166.796 305.119l-54.464 95.975-8.754-6.962-40.051 58.52-7.822-6.797-35.583 44.11c14.216 20.561 41.843 41.307 69.675 47.014 13.293-25.846 76.279-177.737 95.178-219.282m195.235-12.578l54.464 95.975 8.754-6.962 40.05 58.52 7.823-6.797 35.583 44.11c-14.216 20.561-41.844 41.307-69.676 47.014-13.292-25.846-76.278-177.737-95.178-219.282" fill="red" stroke="red" stroke-width="13.427"/><path d="M21.041 39.641c6.24 2.539 12.27 2.62 18.071 0l-3.408-9.673c-3.409 1.355-7.785 1.637-11.2-.077z" fill="red" stroke="red" stroke-width=".834"/><path d="M24.268 32.15c3.618 1.846 7.992 1.897 11.52-.027" fill="none" stroke="#fc0" stroke-width=".847"/></g><path d="M20.673 34.425c.191.093.247.163.323.216l1.896 1.51m16.363-1.711c-1.338.64-1.632.854-2.447 1.281m-18.865 2.301l3.652 2.285m20.462-2.285l-3.652 2.285m-17.096-.082l3.833-10.25m9.883-.035l3.598 10.385" fill="none" stroke="#fc0" stroke-width=".847"/><path d="M24.393 25.91c4.972-4.431 6.805-4.063 11.53.072-2.424.99-2.607.875-5.67 1.424-2.83-.576-2.341-.102-5.86-1.496z" fill="red" stroke="red" stroke-width=".847"/><ellipse cx="30" cy="23.825" rx="3.618" ry="3.713" fill="#fc0" stroke="red" stroke-width=".596" stroke-linecap="square"/><path d="M25.952 41.527l-1.288 4.415-.534-.123-.862 2.67c4.315 1.813 9.907 1.713 13.47 0l-.863-2.67-.534.123-1.273-4.353" fill="red" stroke="red" stroke-width=".929"/><path d="M25.394 41.882c2.656.637 6.652.616 9.219.045" fill="none" stroke="#fc0" stroke-width=".847"/><path d="M24.412 45.033c2.797.617 8.608.546 11.175-.024" fill="none" stroke="#ffd42a" stroke-width=".847"/></svg>