<svg xmlns="http://www.w3.org/2000/svg" width="60" height="60"><defs><filter id="a"><feGaussianBlur in="SourceAlpha" result="blur" stdDeviation="2"/><feOffset result="offsetBlur" dx="2" dy="2"/><feBlend in="SourceGraphic" in2="offsetBlur"/></filter></defs><path d="M26 7.738l-12.838 3.608-7.05 44.452 39.933-.002-6.79-44.162z" fill="#fdc9dd" filter="url(#a)"/><g stroke-width=".8"><path d="M25.452 30.318c-3.676.945-4.675 7.162-7.76 9.713-.535-.268-.602-.868-.58-2.112l-2.06-1.108 3.326-.422-2.111-1.162 2.798-.475-1.162-1.636 2.27.37-.106-2.376 1.003-.528v-1.584l-.527-.791-.845.105.053.74-1.214.105-.106.897-.95-.316-.74.21.16 1.795-1.531-.052-.053 2.903c-.346-.282-.837-.563-1.742-.845-.28 1.654-.208 3.15-.211 4.804l-2.481-3.484c.196-.478.733-.436 1.108-1.53-.033-.765-.062-1.528-.37-2.429 1.864-.92 3.482-2.576 5.068-4.329l.053-3.642c.95-1.818 1.276-2.179 1.847-3.114-.37 1.48-.207 2.425.264 3.061 1.053-1.12.065-5.025 3.801-6.967-.937 2.094-2.687 4.29-1.53 6.123 4.157-5.155 8.485-9.097 13.618-7.285-5.066.416-8.812 3.346-7.937 6.514 3.183-3.557 7.086-2.733 8.339-2.122-3.95.408-5.566 1.922-4.73 4.16 4.472-1.285 7.896-1.09 9.976 1.003-2.505-.274-6.149-1.05-6.245.416 17.532 7.736-2.571 19.192-2.887 20.698-1.093 2.704-.473 3.729-.422 5.543l-12.669.052c-.575-8.092 6.61-10.934 10.204-12.626 3.938-1.854 6.364-9.034.589-9.114-.49 1.033-.771 2.595-.5 4.585-1.205-3.545-3.247-4.58-5.859-3.906" fill="red" stroke="red" stroke-width=".582288"/><g fill="none" stroke="#fff"><path d="M27.257 21.018c-.371 1.567.953 3.235 2.944 3.762-1.432.957-1.908 1.911-1.908 1.911.642.02 2.282.405 2.866 1.381-.27.089-1.674.557-1.883 1.422M30.486 29.652c5.5-1.658 8.948.831 10.638 4.106M32.315 31.332c5.927.206 4.314 7.029 2.837 10.712M35.525 29.279c2.454 1.334 4.504 3.178 3.62 8.734M31.83 41.484c-1.297.588-1.965 5.556-1.046 5.263M35.711 32.825c2.072 8.083-11.141 10.269-9.219 18.29M32.501 32.227c6.116 6.719-11.534 9.399-9.853 19M29.963 37.453l2.053.97M26.193 39.618c.687.887 1.193 1.687 2.277 1.68M21.528 42.567c.529 1.362 2.264 1.298 3.844 1.418M18.99 46.187c.07 2.568 1.902 2.73 3.62 2.874M20.483 25.92c1.467-1.982 2.768-4.164 5.188-5.002M23.058 28.084c1.854-.224 3.708-.343 5.562-.074M22.685 26.554c1.02-1.277 3.05-1.646 5.039-2.053" stroke-width=".582288"/></g><path d="M19.027 24.128l-1.12.858v1.307l1.045-.933z" fill="#fff" stroke="#fff" stroke-width=".582288"/><path d="M14.175 32.6c4.95.167 12.17 6.468 13.885 3.136" fill="none" stroke="red" stroke-width=".582288"/><path d="M25.452 30.318c-3.676.945-4.675 7.162-7.76 9.713-.535-.268-.602-.868-.58-2.112l-2.06-1.108 3.326-.422-2.111-1.162 2.798-.475-1.162-1.636 2.27.37-.106-2.376 1.003-.528v-1.584l-.527-.791-.845.105.053.74-1.214.105-.106.897-.95-.316-.74.21.16 1.795-1.531-.052-.053 2.903c-.346-.282-.837-.563-1.742-.845-.28 1.654-.208 3.15-.211 4.804l-2.481-3.484c.196-.478.733-.436 1.108-1.53-.033-.765-.062-1.528-.37-2.429 1.864-.92 3.482-2.576 5.068-4.329l.053-3.642c.95-1.818 1.276-2.179 1.847-3.114-.37 1.48-.207 2.425.264 3.061 1.053-1.12.065-5.025 3.801-6.967-.937 2.094-2.687 4.29-1.53 6.123 4.157-5.155 8.485-9.097 13.618-7.285-5.066.416-8.812 3.346-7.937 6.514 3.183-3.557 7.086-2.733 8.339-2.122-3.95.408-5.566 1.922-4.73 4.16 4.472-1.285 7.896-1.09 9.976 1.003-2.505-.274-6.149-1.05-6.245.416 17.532 7.736-2.571 19.192-2.887 20.698-1.093 2.704-.473 3.729-.422 5.543-5.735 2.772-9.691 2.303-12.669.052-.575-8.092 6.61-10.934 10.204-12.626 3.938-1.854 6.364-9.034.589-9.114-.49 1.033-.771 2.595-.5 4.585-1.205-3.545-3.247-4.58-5.859-3.906" fill="red" stroke="red" stroke-width=".582288"/><g stroke="#fff"><path d="M27.257 21.018c-.371 1.567.953 3.235 2.944 3.762-1.432.957-1.908 1.911-1.908 1.911.642.02 2.282.405 2.866 1.381-.27.089-1.674.557-1.883 1.422" fill="none" stroke-width=".76959064"/><path d="M30.486 29.652c5.5-1.658 8.948.831 10.638 4.106M32.315 31.332c5.927.206 4.314 7.029 2.837 10.712" fill="none" stroke-width=".7700758799999999"/><path d="M32.501 32.227c6.007 6.6-10.913 9.302-9.925 18.492.018.167.3 2.353.294 2.653M23.058 28.084c1.854-.224 3.708-.343 5.562-.074M22.685 26.554c1.02-1.277 3.05-1.646 5.039-2.053" fill="none" stroke-width=".7700758799999999"/></g><path d="M19.027 24.128l-1.12.858v1.307l1.045-.933z" fill="#fff" stroke="#fff" stroke-width=".582288"/><path d="M14.175 32.6c4.95.167 12.17 6.468 13.885 3.136" fill="none" stroke="red" stroke-width=".582288"/></g></svg>