<?xml version="1.0" encoding="UTF-8" standalone="no"?>
<svg
   xmlns:dc="http://purl.org/dc/elements/1.1/"
   xmlns:cc="http://creativecommons.org/ns#"
   xmlns:rdf="http://www.w3.org/1999/02/22-rdf-syntax-ns#"
   xmlns:svg="http://www.w3.org/2000/svg"
   xmlns="http://www.w3.org/2000/svg"
   xmlns:sodipodi="http://sodipodi.sourceforge.net/DTD/sodipodi-0.dtd"
   xmlns:inkscape="http://www.inkscape.org/namespaces/inkscape"
   width="60"
   height="60"
   version="1.1"
   id="svg39"
   sodipodi:docname="0RY.svg"
   inkscape:version="1.0.1 (3bc2e813f5, 2020-09-07)">
  <metadata
     id="metadata43">
    <rdf:RDF>
      <cc:Work
         rdf:about="">
        <dc:format>image/svg+xml</dc:format>
        <dc:type
           rdf:resource="http://purl.org/dc/dcmitype/StillImage" />
      </cc:Work>
    </rdf:RDF>
  </metadata>
  <sodipodi:namedview
     pagecolor="#ffffff"
     bordercolor="#666666"
     borderopacity="1"
     objecttolerance="10"
     gridtolerance="10"
     guidetolerance="10"
     inkscape:pageopacity="0"
     inkscape:pageshadow="2"
     inkscape:window-width="1366"
     inkscape:window-height="711"
     id="namedview41"
     showgrid="false"
     inkscape:zoom="9.1"
     inkscape:cx="30"
     inkscape:cy="30"
     inkscape:window-x="0"
     inkscape:window-y="0"
     inkscape:window-maximized="1"
     inkscape:current-layer="svg39" />
  <defs
     id="defs9">
    <filter
       id="a">
      <feGaussianBlur
         in="SourceAlpha"
         result="blur"
         stdDeviation="2"
         id="feGaussianBlur2" />
      <feOffset
         result="offsetBlur"
         dx="2"
         dy="2"
         id="feOffset4" />
      <feBlend
         in="SourceGraphic"
         in2="offsetBlur"
         id="feBlend6" />
    </filter>
  </defs>
  <g
     id="g882"
     transform="translate(3.9214992)">
    <path
       d="M 26,7.738 13.162,11.346 6.112,55.798 46.045,55.796 39.255,11.634 Z"
       fill="#fdc9dd"
       filter="url(#a)"
       id="path11" />
    <g
       stroke-width="0.8"
       id="g37">
      <path
         d="m 25.452,30.318 c -3.676,0.945 -4.675,7.162 -7.76,9.713 -0.535,-0.268 -0.602,-0.868 -0.58,-2.112 l -2.06,-1.108 3.326,-0.422 -2.111,-1.162 2.798,-0.475 -1.162,-1.636 2.27,0.37 -0.106,-2.376 1.003,-0.528 v -1.584 l -0.527,-0.791 -0.845,0.105 0.053,0.74 -1.214,0.105 -0.106,0.897 -0.95,-0.316 -0.74,0.21 0.16,1.795 -1.531,-0.052 -0.053,2.903 c -0.346,-0.282 -0.837,-0.563 -1.742,-0.845 -0.28,1.654 -0.208,3.15 -0.211,4.804 l -2.481,-3.484 c 0.196,-0.478 0.733,-0.436 1.108,-1.53 -0.033,-0.765 -0.062,-1.528 -0.37,-2.429 1.864,-0.92 3.482,-2.576 5.068,-4.329 l 0.053,-3.642 c 0.95,-1.818 1.276,-2.179 1.847,-3.114 -0.37,1.48 -0.207,2.425 0.264,3.061 1.053,-1.12 0.065,-5.025 3.801,-6.967 -0.937,2.094 -2.687,4.29 -1.53,6.123 4.157,-5.155 8.485,-9.097 13.618,-7.285 -5.066,0.416 -8.812,3.346 -7.937,6.514 3.183,-3.557 7.086,-2.733 8.339,-2.122 -3.95,0.408 -5.566,1.922 -4.73,4.16 4.472,-1.285 7.896,-1.09 9.976,1.003 -2.505,-0.274 -6.149,-1.05 -6.245,0.416 17.532,7.736 -2.571,19.192 -2.887,20.698 -1.093,2.704 -0.473,3.729 -0.422,5.543 l -12.669,0.052 c -0.575,-8.092 6.61,-10.934 10.204,-12.626 3.938,-1.854 6.364,-9.034 0.589,-9.114 -0.49,1.033 -0.771,2.595 -0.5,4.585 -1.205,-3.545 -3.247,-4.58 -5.859,-3.906"
         fill="#ff0000"
         stroke="#ff0000"
         stroke-width="0.582288"
         id="path13" />
      <g
         fill="none"
         stroke="#ffffff"
         id="g17">
        <path
           d="m 27.257,21.018 c -0.371,1.567 0.953,3.235 2.944,3.762 -1.432,0.957 -1.908,1.911 -1.908,1.911 0.642,0.02 2.282,0.405 2.866,1.381 -0.27,0.089 -1.674,0.557 -1.883,1.422 m 1.21,0.158 c 5.5,-1.658 8.948,0.831 10.638,4.106 m -8.809,-2.426 c 5.927,0.206 4.314,7.029 2.837,10.712 m 0.373,-12.765 c 2.454,1.334 4.504,3.178 3.62,8.734 m -7.315,3.471 c -1.297,0.588 -1.965,5.556 -1.046,5.263 m 4.927,-13.922 c 2.072,8.083 -11.141,10.269 -9.219,18.29 m 6.009,-18.888 c 6.116,6.719 -11.534,9.399 -9.853,19 m 7.315,-13.774 2.053,0.97 m -5.823,1.195 c 0.687,0.887 1.193,1.687 2.277,1.68 m -6.942,1.269 c 0.529,1.362 2.264,1.298 3.844,1.418 m -6.382,2.202 c 0.07,2.568 1.902,2.73 3.62,2.874 M 20.483,25.92 c 1.467,-1.982 2.768,-4.164 5.188,-5.002 m -2.613,7.166 c 1.854,-0.224 3.708,-0.343 5.562,-0.074 m -5.935,-1.456 c 1.02,-1.277 3.05,-1.646 5.039,-2.053"
           stroke-width="0.582288"
           id="path15" />
      </g>
      <path
         d="m 19.027,24.128 -1.12,0.858 v 1.307 l 1.045,-0.933 z"
         fill="#ffffff"
         stroke="#ffffff"
         stroke-width="0.582288"
         id="path19" />
      <path
         d="m 14.175,32.6 c 4.95,0.167 12.17,6.468 13.885,3.136"
         fill="none"
         stroke="#ff0000"
         stroke-width="0.582288"
         id="path21" />
      <path
         d="m 25.452,30.318 c -3.676,0.945 -4.675,7.162 -7.76,9.713 -0.535,-0.268 -0.602,-0.868 -0.58,-2.112 l -2.06,-1.108 3.326,-0.422 -2.111,-1.162 2.798,-0.475 -1.162,-1.636 2.27,0.37 -0.106,-2.376 1.003,-0.528 v -1.584 l -0.527,-0.791 -0.845,0.105 0.053,0.74 -1.214,0.105 -0.106,0.897 -0.95,-0.316 -0.74,0.21 0.16,1.795 -1.531,-0.052 -0.053,2.903 c -0.346,-0.282 -0.837,-0.563 -1.742,-0.845 -0.28,1.654 -0.208,3.15 -0.211,4.804 l -2.481,-3.484 c 0.196,-0.478 0.733,-0.436 1.108,-1.53 -0.033,-0.765 -0.062,-1.528 -0.37,-2.429 1.864,-0.92 3.482,-2.576 5.068,-4.329 l 0.053,-3.642 c 0.95,-1.818 1.276,-2.179 1.847,-3.114 -0.37,1.48 -0.207,2.425 0.264,3.061 1.053,-1.12 0.065,-5.025 3.801,-6.967 -0.937,2.094 -2.687,4.29 -1.53,6.123 4.157,-5.155 8.485,-9.097 13.618,-7.285 -5.066,0.416 -8.812,3.346 -7.937,6.514 3.183,-3.557 7.086,-2.733 8.339,-2.122 -3.95,0.408 -5.566,1.922 -4.73,4.16 4.472,-1.285 7.896,-1.09 9.976,1.003 -2.505,-0.274 -6.149,-1.05 -6.245,0.416 17.532,7.736 -2.571,19.192 -2.887,20.698 -1.093,2.704 -0.473,3.729 -0.422,5.543 -5.735,2.772 -9.691,2.303 -12.669,0.052 -0.575,-8.092 6.61,-10.934 10.204,-12.626 3.938,-1.854 6.364,-9.034 0.589,-9.114 -0.49,1.033 -0.771,2.595 -0.5,4.585 -1.205,-3.545 -3.247,-4.58 -5.859,-3.906"
         fill="#ff0000"
         stroke="#ff0000"
         stroke-width="0.582288"
         id="path23" />
      <g
         stroke="#ffffff"
         id="g31">
        <path
           d="m 27.257,21.018 c -0.371,1.567 0.953,3.235 2.944,3.762 -1.432,0.957 -1.908,1.911 -1.908,1.911 0.642,0.02 2.282,0.405 2.866,1.381 -0.27,0.089 -1.674,0.557 -1.883,1.422"
           fill="none"
           stroke-width="0.769591"
           id="path25" />
        <path
           d="m 30.486,29.652 c 5.5,-1.658 8.948,0.831 10.638,4.106 m -8.809,-2.426 c 5.927,0.206 4.314,7.029 2.837,10.712"
           fill="none"
           stroke-width="0.770076"
           id="path27" />
        <path
           d="m 32.501,32.227 c 6.007,6.6 -10.913,9.302 -9.925,18.492 0.018,0.167 0.3,2.353 0.294,2.653 m 0.188,-25.288 c 1.854,-0.224 3.708,-0.343 5.562,-0.074 m -5.935,-1.456 c 1.02,-1.277 3.05,-1.646 5.039,-2.053"
           fill="none"
           stroke-width="0.770076"
           id="path29" />
      </g>
      <path
         d="m 19.027,24.128 -1.12,0.858 v 1.307 l 1.045,-0.933 z"
         fill="#ffffff"
         stroke="#ffffff"
         stroke-width="0.582288"
         id="path33" />
      <path
         d="m 14.175,32.6 c 4.95,0.167 12.17,6.468 13.885,3.136"
         fill="none"
         stroke="#ff0000"
         stroke-width="0.582288"
         id="path35" />
    </g>
  </g>
</svg>
