<svg xmlns="http://www.w3.org/2000/svg" width="60" height="60"><defs><filter id="a"><feGaussianBlur in="SourceAlpha" result="blur" stdDeviation="2"/><feOffset result="offsetBlur" dx="2" dy="2"/><feBlend in="SourceGraphic" in2="offsetBlur"/></filter></defs><g transform="translate(40.882 -.279)" fill="#fdc9dd" filter="url(#a)"><path d="M-10.96 6.237l-12.838 3.608-7.051 44.54 39.934-.09-6.79-44.163z"/></g><g stroke="red"><g stroke-width="1.253"><path d="M32.582 22.125c3.75.282 2.12.766 4.937 1.932l3.854 1.963-.446 2.894c.372 3.61 1.97 6.006 3.947 8.892l.919.668c-1.51.705-2.026 1.13-2.102 1.563-.485.834-1.402.946-2.261 1.26l.677-3.316-4.03-4.738c.516 2.85-1.046 3.337-.533 6.172l1.372 3.292-1.19.344-1.566-2.336c-.128-2.747-.7-5.019-1.258-7.774-2.382.462-2.925 2.026-5.356-1.43 1.17 2.588-.154 4.856.776 7.535 4.468 3.806 4.73 6.678 6.16 9.611-8.158 2.661-16.818-1.757-23.04.573.673-.925 2.693-4.248 6.653-5.963-2.13-.548-1.91-1.765-6.05-.677.956-1.458 5.775-6.909 7.126-5.56-2.112-.15-3.798-1.47-6.351-.406 2.94-3.662 5.011-3.274 7.421-4.283l-3.045-.147-3.084-.148c1.865-3.258 5.458-3.844 8.788-4.837-1.704-.582-4.264-.41-6.745-.16 3.027-2.444 6.755-3.816 10.964-4.883" fill="red" stroke-linejoin="round"/><path d="M37.435 27.662c.313.496.135.879.975 2.265-.383.226-.7.027-1.116-.432-.642-.761-.653-.864.14-1.833z" fill="#fff" stroke="#fff"/></g><path d="M41.417 25.997c.193-1.651-4.573-4.393-4.893-6.527l1.67-2.402-3.028.992c-1.837-.303-7.26-2.772-9.329-4.814-.338-.333-.733-1.317-.749-1.66-.912 1.336-1.096 1.288-1.601 2.543 1.475 1.652 5.302 3.163 7.136 4.022 3.204 2.052 4.771 5.005 7.507 7.465z" fill="#fff" stroke-width=".835"/><path d="M35.427 25.58c-1.236-.872-2.55-3.814-3.73-5.089-1.175-1.267-1.676-.476-3.476-1.387.108-.046 1.053 1.911 1.174 3.614.07.971-.658 2-.633 2.172.3 2.005 3.922 2.162 4.629 2.882" fill="red" stroke-width="1.253"/><path d="M41.445 40.87l-1.629-.85 1.662-.707" fill="red" stroke-width=".835"/><path d="M29.045 25.104c-8.323 2.154-5.117 18.215-7.716 23.428-.125.25-.134.29-.188.656" fill="none" stroke="#fff"/><path d="M30.981 34.1c-.468-.685-1.173-2.41-1.64-4.418m6.311-4.018c-1.474-1.419-2.033-2.532-2.016-4.116m-.234 6.214c-.267-.064-3.814-2.031-4.357-2.658.79-1.262-.08-2.23 0-3.323" fill="none" stroke="#fff" stroke-width=".835"/><path d="M38.254 42.489l1.628-.85-1.661-.707" fill="red" stroke-width=".835"/></g><path d="M25.426 26.654c-1.009-.003-2.516.12-3.526.702m1.237 4.172c-2.37.25-3.042.414-4.32.978m3.729 3.822c-.88.022-1.918.048-4.283.812m3.84 5.39c-1.353-.184-2.19.283-3.544.666" fill="none" stroke="#fff" stroke-width=".835"/></svg>