<svg xmlns="http://www.w3.org/2000/svg" width="60" height="60"><defs><filter id="a"><feGaussianBlur in="SourceAlpha" result="blur" stdDeviation="2"/><feOffset result="offsetBlur" dx="2" dy="2"/><feBlend in="SourceGraphic" in2="offsetBlur"/></filter></defs><g transform="translate(-100.001 -23.219) scale(.98185)" fill="#fdd3e3" filter="url(#a)"><path d="M128.456 78.635l13.41-4.26 6.836-44.558h-40.19l6.535 44.862 13.138 3.935c.09.017.18.032.271.021z"/></g><path d="M35.239 16.56l.3 3.01" fill="none" stroke="#ffffe5" stroke-width=".6791475"/><path d="M31.757 19.36H20.682" fill="none" stroke="#fff" stroke-width=".6791475"/><path d="M20.087 20.094a5.975 6.2 0 0 0 .034.158 5.975 6.2 0 0 0 .189.589 5.975 6.2 0 0 0 .244.565 5.975 6.2 0 0 0 .297.537 5.975 6.2 0 0 0 .347.506 5.975 6.2 0 0 0 .394.465 5.975 6.2 0 0 0 .438.422 5.975 6.2 0 0 0 .475.375 5.975 6.2 0 0 0 .51.324 5.975 6.2 0 0 0 .536.27 5.975 6.2 0 0 0 .562.212 5.975 6.2 0 0 0 .58.153 5.975 6.2 0 0 0 .59.093 5.975 6.2 0 0 0 .596.03 5.975 6.2 0 0 0 .422-.014 5.975 6.2 0 0 0 .593-.075 5.975 6.2 0 0 0 .584-.136 5.975 6.2 0 0 0 .566-.195 5.975 6.2 0 0 0 .545-.253 5.975 6.2 0 0 0 .519-.31 5.975 6.2 0 0 0 .485-.36 5.975 6.2 0 0 0 .449-.409 5.975 6.2 0 0 0 .407-.453 5.975 6.2 0 0 0 .362-.494 5.975 6.2 0 0 0 .312-.528 5.975 6.2 0 0 0 .26-.558 5.975 6.2 0 0 0 .204-.582 5.975 6.2 0 0 0 .082-.332z" stroke="#000" stroke-linecap="round" stroke-linejoin="round" stroke-width=".67915"/><path d="M37.525 36.633v-17.29h-2.657a9.064 9.064 0 0 1-.045.302 9.064 9.064 0 0 1-.224.877 9.064 9.064 0 0 1-.31.851 9.064 9.064 0 0 1-.395.816 9.064 9.064 0 0 1-.473.772 9.064 9.064 0 0 1-.55.722 9.064 9.064 0 0 1-.616.663 9.064 9.064 0 0 1-.682.598 9.064 9.064 0 0 1-.736.527 9.064 9.064 0 0 1-.787.45 9.064 9.064 0 0 1-.826.37 9.064 9.064 0 0 1-.86.286 9.064 9.064 0 0 1-.885.199 9.064 9.064 0 0 1-.899.109 9.064 9.064 0 0 1-.64.022 9.064 9.064 0 0 1-.907-.045 9.064 9.064 0 0 1-.895-.135 9.064 9.064 0 0 1-.878-.224 9.064 9.064 0 0 1-.85-.31 9.064 9.064 0 0 1-.817-.395 9.064 9.064 0 0 1-.772-.473 9.064 9.064 0 0 1-.722-.55 9.064 9.064 0 0 1-.662-.616 9.064 9.064 0 0 1-.598-.68 9.064 9.064 0 0 1-.528-.738 9.064 9.064 0 0 1-.45-.785 9.064 9.064 0 0 1-.37-.828 9.064 9.064 0 0 1-.286-.86 9.064 9.064 0 0 1-.198-.884 9.064 9.064 0 0 1-.005-.04h-2.41v17.289z" stroke="#000" stroke-linecap="round" stroke-linejoin="round" stroke-width=".67915"/><path d="M16.888 18.204h-3.915l.892 1.13.728.02 2.41-.001a9.076 9.076 0 0 1-.106-.869 8.55 8.55 0 0 1-.01-.28zM34.868 19.348l2.6-.002.902.006.895-1.148h-4.28a9.03 9.03 0 0 1-.027.544c-.023.201-.053.401-.09.6z" stroke="#000" stroke-linejoin="round" stroke-width=".67915"/><path d="M17.017 16.41l-4.062.01.005 1.556 3.947-.002a7.96 9.157 90 0 1-.014-.321 7.96 9.157 90 0 1 .046-.795 7.96 9.157 90 0 1 .078-.447z" stroke="#000" stroke-width=".6397593"/><path d="M34.969 17.994l4.31-.004-.01-1.635-4.405.01a8.144 9.106 90 0 1 .1.737 8.144 9.106 90 0 1 .022.576 8.144 9.106 90 0 1-.017.316z" stroke="#000" stroke-width=".6451925"/><path d="M31.804 19.464a5.882 10.226 0 0 0 .017-.584 5.882 10.226 0 0 0-.015-.724 5.882 10.226 0 0 0-.07-1.015 5.882 10.226 0 0 0-.085-.656l-11.43.05a5.882 10.226 0 0 0-.047.313 5.882 10.226 0 0 0-.088 1.01 5.882 10.226 0 0 0-.03 1.022 5.882 10.226 0 0 0 .013.6z" stroke="#000" stroke-width=".8652371000000001"/><path d="M37.554 36.617c1.813 1.328 1.659 1.655 2.586 3.66-9.525-.986-19.131-1.089-28.123.036.648-2.129.768-2.448 2.531-3.68z" stroke="#000" stroke-linejoin="round" stroke-width=".67915"/><path d="M26.06 27.598a9.064 9.064 0 0 0 9.063-9.064 9.064 9.064 0 0 0-9.064-9.065 9.064 9.064 0 0 0-9.065 9.065 9.064 9.064 0 0 0 9.065 9.064zm0-2.864a5.975 6.2 0 0 1-5.976-6.2 5.975 6.2 0 0 1 5.975-6.2 5.975 6.2 0 0 1 5.975 6.2 5.975 6.2 0 0 1-5.975 6.2z" stroke="#000" stroke-width=".5664111000000001" stroke-linecap="round" stroke-linejoin="round"/><path d="M25.999 17.993V11.6" fill="none" stroke="#000" stroke-width=".67915"/><path d="M37.878 35.91l-23.612-.12" fill="#fff" stroke="#fff" stroke-width=".9997088000000001"/><path d="M30.381 13.701l-4.292 4.353-4.487-4.488" fill="none" stroke="#000" stroke-width=".67915"/><path d="M39.616 17.91h-4.191" fill="#fff" stroke="#fff" stroke-width=".8665954"/><path d="M31.552 17.91H20.558" fill="#fff" stroke="#fff" stroke-width=".6805083000000001"/><path d="M16.705 17.91h-4.07" fill="#fff" stroke="#fff" stroke-width=".8665954"/><path d="M26.029 16.285v8.282" fill="none" stroke="#fff" stroke-width=".67915"/><path d="M24.482 16.422l5.791 6.027" fill="#fff" stroke="#fff" stroke-width=".67915"/><path d="M27.791 16.307l-5.994 6.099" fill="none" stroke="#fff" stroke-width=".67915"/><path d="M21.32 16.344a5.507 5.507 0 0 0 1.366 6.868 5.507 5.507 0 0 0 7.002-.026 5.507 5.507 0 0 0 1.316-6.878" fill="none" stroke="#fff" stroke-width=".66624615" stroke-linejoin="bevel"/><path d="M31.705 19.475H20.796" fill="none" stroke="#fff" stroke-width=".67915"/><path d="M16.464 16.376a9.794 9.794 0 0 0 4.195 10.1 9.794 9.794 0 0 0 10.936-.083 9.794 9.794 0 0 0 4.041-10.162" fill="none" stroke="#fff" stroke-width="1.1042979" stroke-linejoin="bevel"/><path d="M37.865 20.25h-2.239M16.498 20.239h-2.24" fill="#fff" stroke="#fff" stroke-width="1.0832442500000001"/></svg>