<?xml version="1.0" encoding="UTF-8" standalone="no"?>
<svg
   xmlns:dc="http://purl.org/dc/elements/1.1/"
   xmlns:cc="http://creativecommons.org/ns#"
   xmlns:rdf="http://www.w3.org/1999/02/22-rdf-syntax-ns#"
   xmlns:svg="http://www.w3.org/2000/svg"
   xmlns="http://www.w3.org/2000/svg"
   xmlns:sodipodi="http://sodipodi.sourceforge.net/DTD/sodipodi-0.dtd"
   xmlns:inkscape="http://www.inkscape.org/namespaces/inkscape"
   width="60"
   height="60"
   version="1.1"
   id="svg35"
   sodipodi:docname="1KA.svg"
   inkscape:version="1.0.1 (3bc2e813f5, 2020-09-07)">
  <metadata
     id="metadata39">
    <rdf:RDF>
      <cc:Work
         rdf:about="">
        <dc:format>image/svg+xml</dc:format>
        <dc:type
           rdf:resource="http://purl.org/dc/dcmitype/StillImage" />
      </cc:Work>
    </rdf:RDF>
  </metadata>
  <sodipodi:namedview
     pagecolor="#ffffff"
     bordercolor="#666666"
     borderopacity="1"
     objecttolerance="10"
     gridtolerance="10"
     guidetolerance="10"
     inkscape:pageopacity="0"
     inkscape:pageshadow="2"
     inkscape:window-width="1366"
     inkscape:window-height="711"
     id="namedview37"
     showgrid="false"
     inkscape:zoom="9.1"
     inkscape:cx="30"
     inkscape:cy="30"
     inkscape:window-x="0"
     inkscape:window-y="0"
     inkscape:window-maximized="1"
     inkscape:current-layer="svg35" />
  <defs
     id="defs9">
    <filter
       id="a">
      <feGaussianBlur
         in="SourceAlpha"
         result="blur"
         stdDeviation="2"
         id="feGaussianBlur2" />
      <feOffset
         result="offsetBlur"
         dx="2"
         dy="2"
         id="feOffset4" />
      <feBlend
         in="SourceGraphic"
         in2="offsetBlur"
         id="feBlend6" />
    </filter>
  </defs>
  <g
     id="g876"
     transform="translate(3.7282168)">
    <g
       transform="matrix(0.98185,0,0,0.98185,-100.001,-23.219)"
       fill="#fdd3e3"
       filter="url(#a)"
       id="g13">
      <path
         d="m 128.456,78.635 13.41,-4.26 6.836,-44.558 h -40.19 l 6.535,44.862 13.138,3.935 c 0.09,0.017 0.18,0.032 0.271,0.021 z"
         id="path11" />
    </g>
    <g
       stroke-width="0.6"
       id="g31">
      <path
         d="m 15,32.233 2.776,-0.278"
         fill="none"
         stroke="#000000"
         stroke-width="1.00029"
         id="path15" />
      <path
         d="m 10.347,18.872 c 6.96,0.49 13.485,0.07 22.964,0 m -0.715,5.078 c -4.094,6.716 -10.39,4.523 -14.778,4.464 -3.667,-2.174 -4.206,-2.35 -5.55,-3.988 -1.42,-1.908 -1.782,-3.234 -1.895,-5.577 7.083,-2.553 14.163,-3.077 22.64,-0.488 0.13,2.08 -0.18,3.846 -0.417,5.589 z"
         stroke="#000000"
         stroke-width="0.62259"
         id="path17" />
      <g
         stroke="#000000"
         stroke-width="1.554"
         id="g23">
        <path
           d="m 32.532,31.596 c 1.02,-4.923 1.276,-9.434 1.681,-14.396 0.778,-3.69 5.768,-7.546 8.627,-6.745 -1.174,6.573 -0.813,16.203 -4.462,28.035 -2.247,0.318 -4.557,0.45 -7.006,0.704 -0.817,-0.042 -1.42,-0.207 -1.985,-0.583 -0.759,-1.074 -2.404,-4.614 -3.08,-6.355 l 0.322,-3.622 c 1.596,-0.654 2.491,-1.307 3.68,-1.96 z"
           fill="#e6e6e6"
           stroke-width="0.622408"
           id="path19" />
        <path
           d="m 30.214,26.861 c 1.477,3.188 1.91,4.756 3.768,7.781 0.753,0.928 1.518,1.837 2.388,2.588 0.989,0.32 1.235,0.715 2.224,0.38"
           fill="none"
           stroke-width="0.622408"
           id="path21" />
      </g>
      <path
         d="m 18.14,28.41 -1.656,12.758 c -0.596,3.453 0.196,5.31 3.073,4.775 2.65,-0.754 4.33,-3.278 5.684,-6.396 l 1.346,-10.938 c -4.627,0.44 -6.155,0.12 -8.446,-0.199 z"
         stroke="#000000"
         stroke-width="0.62259"
         id="path25" />
      <path
         d="m 10.785,22.591 c 0.2,-0.079 0.292,-0.064 0.693,0.065 5.153,1.66 9.865,3.442 20.963,0.922 0.103,-0.023 0.357,-0.1 0.54,-0.08"
         fill="none"
         stroke="#ffffff"
         stroke-width="1.00029"
         id="path27" />
      <path
         d="m 22.995,31.523 5.886,-0.344"
         fill="none"
         stroke="#000000"
         stroke-width="1.00029"
         id="path29" />
    </g>
    <path
       d="m 10.081,19.137 c 0.217,-0.019 0.685,0.115 0.78,0.138 6.984,1.72 13.853,2.06 21.785,-0.465 0.197,-0.062 0.588,-0.07 0.798,-0.087 M 17.73,29.28 c 3.986,0.45 5.938,0.512 8.622,0.192 0.343,-0.04 0.447,-0.083 0.547,-0.071"
       fill="none"
       stroke="#ffffff"
       stroke-width="1.00004"
       id="path33" />
  </g>
</svg>
