<?xml version="1.0" encoding="UTF-8" standalone="no"?>
<svg
   xmlns:dc="http://purl.org/dc/elements/1.1/"
   xmlns:cc="http://creativecommons.org/ns#"
   xmlns:rdf="http://www.w3.org/1999/02/22-rdf-syntax-ns#"
   xmlns:svg="http://www.w3.org/2000/svg"
   xmlns="http://www.w3.org/2000/svg"
   xmlns:sodipodi="http://sodipodi.sourceforge.net/DTD/sodipodi-0.dtd"
   xmlns:inkscape="http://www.inkscape.org/namespaces/inkscape"
   width="60"
   height="60"
   version="1.1"
   id="svg31"
   sodipodi:docname="1KY.svg"
   inkscape:version="1.0.1 (3bc2e813f5, 2020-09-07)">
  <metadata
     id="metadata35">
    <rdf:RDF>
      <cc:Work
         rdf:about="">
        <dc:format>image/svg+xml</dc:format>
        <dc:type
           rdf:resource="http://purl.org/dc/dcmitype/StillImage" />
      </cc:Work>
    </rdf:RDF>
  </metadata>
  <sodipodi:namedview
     pagecolor="#ffffff"
     bordercolor="#666666"
     borderopacity="1"
     objecttolerance="10"
     gridtolerance="10"
     guidetolerance="10"
     inkscape:pageopacity="0"
     inkscape:pageshadow="2"
     inkscape:window-width="1366"
     inkscape:window-height="711"
     id="namedview33"
     showgrid="false"
     inkscape:zoom="9.1"
     inkscape:cx="30"
     inkscape:cy="30"
     inkscape:window-x="0"
     inkscape:window-y="0"
     inkscape:window-maximized="1"
     inkscape:current-layer="svg31" />
  <defs
     id="defs9">
    <filter
       id="a">
      <feGaussianBlur
         in="SourceAlpha"
         result="blur"
         stdDeviation="2"
         id="feGaussianBlur2" />
      <feOffset
         result="offsetBlur"
         dx="2"
         dy="2"
         id="feOffset4" />
      <feBlend
         in="SourceGraphic"
         in2="offsetBlur"
         id="feBlend6" />
    </filter>
  </defs>
  <g
     id="g870"
     transform="translate(3.8968619)">
    <g
       transform="matrix(0.89418,0,0,0.89418,-88.744,-18.467)"
       filter="url(#a)"
       id="g13">
      <path
         d="m 128.456,78.635 13.41,-4.26 6.836,-44.558 h -40.527 l 6.872,44.862 13.138,3.935 c 0.094,0.026 0.193,0.015 0.271,0.021 z"
         fill="#feec99"
         id="path11" />
    </g>
    <g
       stroke="#000000"
       stroke-width="4.938"
       id="g21">
      <path
         d="M 26.802,10.089 V 35.682 H 25.355 V 10.089 Z"
         stroke-width="0.476073"
         id="path15" />
      <path
         d="m 26.676,35.188 1.297,0.826 -0.256,10.735 -1.609,2.755 -1.691,-2.676 -0.229,-10.726 1.29,-0.89 z"
         fill="#e6e6e6"
         stroke-width="0.838189"
         id="path17" />
      <path
         d="M 26.087,49.084 V 38.95 l -1.594,-1.266 m 1.594,1.266 1.573,-1.397"
         fill="none"
         stroke-width="0.435388"
         id="path19" />
    </g>
    <path
       d="M 34.016,19.561 H 18.141 v -1.446 h 15.875 z"
       stroke="#000000"
       stroke-width="0.475705"
       id="path23" />
    <path
       d="m 26.079,27.986 a 9.148,9.148 0 0 0 9.147,-9.148 9.148,9.148 0 0 0 -9.146,-9.148 9.148,9.148 0 0 0 -9.148,9.148 9.148,9.148 0 0 0 9.148,9.148 z m 0,-1.995 a 7.152,7.152 0 0 1 -7.152,-7.153 7.152,7.152 0 0 1 7.152,-7.151 7.152,7.152 0 0 1 7.153,7.151 7.152,7.152 0 0 1 -7.153,7.153 z"
       id="path25" />
    <path
       d="M 32.202,13.737 20.977,24.962 19.955,23.94 31.18,12.714 Z"
       stroke="#000000"
       stroke-width="0.475705"
       id="path27" />
    <path
       d="M 31.18,24.962 19.955,13.737 20.977,12.714 32.202,23.94 Z"
       stroke="#000000"
       stroke-width="0.475705"
       id="path29" />
  </g>
</svg>
