<svg xmlns="http://www.w3.org/2000/svg" width="60" height="60"><defs><filter id="a"><feGaussianBlur in="SourceAlpha" result="blur" stdDeviation="2"/><feOffset result="offsetBlur" dx="2" dy="2"/><feBlend in="SourceGraphic" in2="offsetBlur"/></filter></defs><g transform="translate(-96.273 -23.219) scale(.98185)" fill="#fdd3e3" filter="url(#a)"><path d="M128.456 78.635l13.41-4.26 6.836-44.558h-40.19l6.535 44.862 13.138 3.935c.09.017.18.032.271.021z"/></g><g stroke-width=".8"><path d="M30.883 31.45c3.675-.944 4.675-7.161 7.76-9.713.535.269.602.868.58 2.112l2.06 1.108-3.327.423 2.112 1.161-2.798.475 1.161 1.636-2.27-.37.106 2.376-1.003.528v1.584l.528.792.844-.106-.052-.739 1.214-.106.105-.897.95.317.74-.211-.159-1.795 1.53.053.054-2.904c.345.282.836.563 1.742.845.28-1.654.208-3.15.21-4.804l2.482 3.484c-.197.479-.733.436-1.109 1.531.033.764.062 1.527.37 2.428-1.864.92-3.482 2.576-5.068 4.329l-.053 3.642c-.95 1.818-1.275 2.18-1.847 3.114.371-1.48.208-2.425-.264-3.061-1.052 1.12-.065 5.026-3.8 6.968.936-2.095 2.686-4.29 1.53-6.124-4.158 5.155-8.485 9.097-13.619 7.285 5.066-.415 8.812-3.346 7.937-6.513-3.183 3.556-7.086 2.732-8.338 2.122 3.95-.408 5.565-1.923 4.73-4.16-4.473 1.284-7.896 1.089-9.977-1.003 2.506.273 6.15 1.05 6.246-.416-17.533-7.737 2.57-19.192 2.886-20.699 1.093-2.703.473-3.729.423-5.542l12.668-.053c.575 8.093-6.61 10.934-10.204 12.627-3.937 1.853-6.364 9.034-.588 9.114.49-1.034.77-2.596.5-4.586 1.204 3.545 3.246 4.58 5.86 3.906" fill="red" stroke="red" stroke-width=".582"/><path d="M29.078 40.75c.37-1.567-.954-3.235-2.944-3.762 1.431-.957 1.908-1.911 1.908-1.911-.642-.02-2.283-.404-2.867-1.38.27-.09 1.674-.558 1.884-1.423m-1.21-.158c-5.5 1.658-8.949-.83-10.638-4.106m8.81 2.427c-5.929-.207-4.316-7.03-2.838-10.713M20.81 32.49c-2.454-1.335-4.505-3.18-3.62-8.735m7.315-3.471c1.296-.587 1.964-5.555 1.045-5.263m-4.927 13.923c-2.07-8.084 11.142-10.27 9.22-18.29m-6.01 18.886c-6.115-6.718 11.534-9.397 9.854-18.998m-7.316 13.773l-2.053-.97m5.823-1.195c-.687-.887-1.192-1.687-2.277-1.68m6.943-1.268c-.53-1.363-2.265-1.299-3.845-1.419m6.383-2.202c-.07-2.568-1.903-2.73-3.62-2.874m2.127 23.142c-1.468 1.98-2.768 4.163-5.188 5.001m2.612-7.166c-1.853.225-3.707.344-5.56.075m5.934 1.455c-1.02 1.277-3.05 1.646-5.04 2.053" stroke-width=".582" fill="none" stroke="#fff"/><path d="M37.308 37.64l1.12-.858v-1.306l-1.046.933z" fill="#fff" stroke="#fff" stroke-width=".582"/><path d="M42.16 29.167c-4.95-.166-12.17-6.467-13.885-3.135" fill="none" stroke="red" stroke-width=".582"/><path d="M30.883 31.45c3.675-.944 4.675-7.161 7.76-9.713.535.269.602.868.58 2.112l2.06 1.108-3.327.423 2.112 1.161-2.798.475 1.161 1.636-2.27-.37.106 2.376-1.003.528v1.584l.528.792.844-.106-.052-.739 1.214-.106.105-.897.95.317.74-.211-.159-1.795 1.53.053.054-2.904c.345.282.836.563 1.742.845.28-1.654.208-3.15.21-4.804l2.482 3.484c-.197.479-.733.436-1.109 1.531.033.764.062 1.527.37 2.428-1.864.92-3.482 2.576-5.068 4.329l-.053 3.642c-.95 1.818-1.275 2.18-1.847 3.114.371-1.48.208-2.425-.264-3.061-1.052 1.12-.065 5.026-3.8 6.968.936-2.095 2.686-4.29 1.53-6.124-4.158 5.155-8.485 9.097-13.619 7.285 5.066-.415 8.812-3.346 7.937-6.513-3.183 3.556-7.086 2.732-8.338 2.122 3.95-.408 5.565-1.923 4.73-4.16-4.473 1.284-7.896 1.089-9.977-1.003 2.506.273 6.15 1.05 6.246-.416-17.533-7.737 2.57-19.192 2.886-20.699 1.093-2.703.473-3.729.423-5.542 5.735-2.772 9.69-2.304 12.668-.053.575 8.093-6.61 10.934-10.204 12.627-3.937 1.853-6.364 9.034-.588 9.114.49-1.034.77-2.596.5-4.586 1.204 3.545 3.246 4.58 5.86 3.906" fill="red" stroke="red" stroke-width=".582"/><g stroke="#fff" fill="none" stroke-width=".77"><path d="M29.078 40.75c.37-1.567-.954-3.235-2.944-3.762 1.431-.957 1.908-1.911 1.908-1.911-.642-.02-2.283-.404-2.867-1.38.27-.09 1.674-.558 1.884-1.423M25.848 32.116c-5.5 1.658-8.948-.83-10.637-4.106m8.81 2.427c-5.929-.207-4.316-7.03-2.838-10.713"/><path d="M23.833 29.54c-6.006-6.598 10.913-9.3 9.926-18.491-.018-.167-.3-2.353-.294-2.653m-.189 25.288c-1.853.225-3.707.344-5.56.075m5.934 1.455c-1.02 1.277-3.05 1.646-5.04 2.053"/></g><path d="M37.308 37.64l1.12-.858v-1.306l-1.046.933z" fill="#fff" stroke="#fff" stroke-width=".582"/><path d="M42.16 29.167c-4.95-.166-12.17-6.467-13.885-3.135" fill="none" stroke="red" stroke-width=".582"/></g></svg>