<svg xmlns="http://www.w3.org/2000/svg" width="136" height="136" viewBox="0 0 35.983 35.983"><g stroke="#000"><path fill="#fee57f" stroke-width=".5232286100000001" d="M4.293 33.331l3.803-27.06 9.896-3.602 9.896 3.602 3.803 27.06z"/><g fill="none" stroke-linejoin="round" stroke-width="2.298" paint-order="stroke fill markers"><path d="M-23.676 36.415l-5.027 16.588-8.042 5.529H-9.1l-8.043-5.53zM-26.818 58.55v8.9c-2.385 5.259-6.571 9.648-11.545 12.528-2.257.927-4.906 1.65-6.33 3.845-.661 1.482-1.344 3.86-1.285 5.488 12.171-.062 31.55-.117 45.675-.117.086-2.304-.286-4.67-1.69-6.51-1.29-.995-3.955-3.333-5.6-3.448-6.908-2.794-7.71-6.117-10.805-11.505-.04-3.048-.175-6.094-.215-9.143-2.735-.042-5.47.004-8.205-.038z" transform="matrix(.2746 0 0 .33422 24.345 -2.49)"/></g></g></svg>