<svg xmlns="http://www.w3.org/2000/svg" width="136" height="136" viewBox="0 0 35.983 35.983"><g stroke="#000"><path fill="#fee57f" stroke-width=".5232286100000001" d="M17.992 2.67l9.896 3.6 3.803 27.061H4.293l3.803-27.06z"/><g stroke-width="1.5" fill="none"><path transform="matrix(.42484 0 0 .42849 -102.52 -40.832)" d="M282.83 136.555c.204-5.885-.282-11.142-3.009-13.33 2.021-.873 3.212-2.979 4.365-4.578 1.154 1.6 2.344 3.705 4.365 4.579-2.727 2.187-3.213 7.444-3.009 13.33l-.018-.159c-.402.14-.834.238-1.338.255a4.458 4.458 0 01-1.338-.255z" stroke-width="1.694"/><path d="M97.159 111.627c-2.764 121.39 19.614 224.192 177.984 219.075 158.37 5.117 180.748-97.685 177.985-219.075-11.066 132.287-51.513 167.404-177.985 175.038-126.471-7.634-166.92-42.75-177.984-175.038z" transform="matrix(.03302 0 0 .039 9.18 6.564)" stroke-width="20.14"/><path d="M166.796 305.119l-54.464 95.975-8.754-6.962-40.59 61.712-7.283-9.989c-17.703 21.022-27.021 32.762-44.724 53.784 14.216 20.56 44.13 49.69 71.96 55.397 13.294-25.846 83.135-195.794 102.034-237.34M380.21 305.12l54.464 95.975 8.754-6.962 40.59 61.712 7.283-9.989c17.702 21.022 27.021 32.762 44.724 53.784-14.216 20.56-44.13 49.69-71.961 55.397-13.293-25.846-83.134-195.794-102.034-237.34" transform="matrix(.03302 0 0 .039 9.18 6.564)" stroke-width="20.14"/><path d="M13.113 24.56c3.55 1.445 6.816 1.536 10.118.045M14.949 20.297c2.059 1.05 4.547 1.08 6.556-.015M14.945 16.852c1.047-.933 1.867-1.507 2.62-1.74m1.28-.065c.82.176 1.674.764 2.79 1.74M12.91 22.235l.859.828M11.33 24.44c.383.676.863 1.232 1.505 1.687M23.423 22.313l-.858.828M25.096 24.433a5.074 5.074 0 01-1.506 1.687" stroke-width=".7227"/></g></g></svg>