<svg xmlns="http://www.w3.org/2000/svg" viewBox="0 0 35.983 35.983"><path fill="#fee57f" stroke="#000" stroke-width=".523" d="m17.992 2.67 9.896 3.6 3.803 27.061H4.293l3.803-27.06z"/><g stroke="red" stroke-width=".718"><path d="m14.068 10.4-.27.657v2.047l-.928 1.043-.193 2.975-2.318 3.477-.039 1.931.348.193.425.773.27.348.889-.116.193-.966.27-.464-.193 1.237.27.656.58.04.696-.542.193-1.12.502-1.005 1.004-.424.58-.27.773-.194.927-.348.54-.347.812-1.353-.734 1.314.193.85s.039.772 0 .966c-.039.193-.232 1.043-.232 1.043l-1.66 1.43-1.044.81c-.667 1.052-.624 2.31-.773 3.516l11.629-.077v-.734l-.425-.889c-.743-2.16-.828-4.098-.928-7.92-1.074-3.723-3.114-5.98-6.76-5.794l-1.739-3.516-.502.58-.27 2.047-.58-.077z" fill="none"/><path d="m19.051 19.324-.47-5.695-4.745 6.931.039.116" fill="none"/><path d="m11.248 19.208 2.588 1.352.927 1.004" fill="none"/><path d="m14.636 15.77-.568.038-.097.773h.367z"/><path d="M22.824 16.524c.548.708 1.286 1.377 1.468 2.086.013 4.554.18 5.588.193 6.142l.502 1.7" fill="none"/></g></svg>