<?xml version="1.0" encoding="UTF-8" standalone="no"?>
<!-- Created with Inkscape (http://www.inkscape.org/) -->

<svg
   xmlns:dc="http://purl.org/dc/elements/1.1/"
   xmlns:cc="http://creativecommons.org/ns#"
   xmlns:rdf="http://www.w3.org/1999/02/22-rdf-syntax-ns#"
   xmlns:svg="http://www.w3.org/2000/svg"
   xmlns="http://www.w3.org/2000/svg"
   xmlns:sodipodi="http://sodipodi.sourceforge.net/DTD/sodipodi-0.dtd"
   xmlns:inkscape="http://www.inkscape.org/namespaces/inkscape"
   width="136"
   height="136"
   viewBox="0 0 35.983333 35.983334"
   version="1.1"
   id="svg8"
   inkscape:version="0.92.4 5da689c313, 2019-01-14"
   sodipodi:docname="WhiteKing.svg">
  <defs
     id="defs2">
    <inkscape:path-effect
       effect="mirror_symmetry"
       start_point="645.03669,116.30607"
       end_point="644.85991,225.02374"
       center_point="644.9483,170.66491"
       id="path-effect10989-6"
       is_visible="true"
       mode="free"
       discard_orig_path="false"
       fuse_paths="true"
       oposite_fuse="false" />
    <inkscape:path-effect
       effect="mirror_symmetry"
       start_point="284.18608,120.29265"
       end_point="284.18608,137.98161"
       center_point="284.18608,129.13713"
       id="path-effect4724"
       is_visible="true"
       mode="free"
       discard_orig_path="false"
       fuse_paths="true"
       oposite_fuse="false" />
    <inkscape:path-effect
       effect="mirror_symmetry"
       start_point="275.14301,98.12006"
       end_point="275.14301,350.07326"
       center_point="275.14301,224.09666"
       id="path-effect4547-0-8"
       is_visible="true"
       mode="free"
       discard_orig_path="false"
       fuse_paths="true"
       oposite_fuse="false" />
    <inkscape:path-effect
       effect="mirror_symmetry"
       start_point="273.50283,331.92091"
       end_point="273.50283,477.30227"
       center_point="273.50283,404.61159"
       id="path-effect4557-0-4"
       is_visible="true"
       mode="free"
       discard_orig_path="false"
       fuse_paths="false"
       oposite_fuse="false" />
    <inkscape:path-effect
       effect="mirror_symmetry"
       start_point="275.14301,98.12006"
       end_point="275.14301,350.07326"
       center_point="275.14301,224.09666"
       id="path-effect4547-0"
       is_visible="true"
       mode="free"
       discard_orig_path="false"
       fuse_paths="true"
       oposite_fuse="false" />
    <inkscape:path-effect
       effect="mirror_symmetry"
       start_point="274.67636,240.21573"
       end_point="274.67636,418.88419"
       center_point="274.67636,329.54996"
       id="path-effect4551-7"
       is_visible="true"
       mode="free"
       discard_orig_path="false"
       fuse_paths="false"
       oposite_fuse="false" />
    <inkscape:path-effect
       effect="mirror_symmetry"
       start_point="273.50283,331.92091"
       end_point="273.50283,477.30227"
       center_point="273.50283,404.61159"
       id="path-effect4557-0"
       is_visible="true"
       mode="free"
       discard_orig_path="false"
       fuse_paths="false"
       oposite_fuse="false" />
  </defs>
  <sodipodi:namedview
     id="base"
     pagecolor="#ffffff"
     bordercolor="#666666"
     borderopacity="1.0"
     inkscape:pageopacity="0.0"
     inkscape:pageshadow="2"
     inkscape:zoom="1.4"
     inkscape:cx="45.548601"
     inkscape:cy="23.674202"
     inkscape:document-units="mm"
     inkscape:current-layer="layer1"
     showgrid="false"
     units="px"
     inkscape:window-width="1362"
     inkscape:window-height="720"
     inkscape:window-x="0"
     inkscape:window-y="46"
     inkscape:window-maximized="0"
     inkscape:lockguides="true"
     inkscape:snap-object-midpoints="true"
     showguides="false"
     inkscape:snap-global="false" />
  <metadata
     id="metadata5">
    <rdf:RDF>
      <cc:Work
         rdf:about="">
        <dc:format>image/svg+xml</dc:format>
        <dc:type
           rdf:resource="http://purl.org/dc/dcmitype/StillImage" />
        <dc:title />
      </cc:Work>
    </rdf:RDF>
  </metadata>
  <g
     inkscape:label="Layer 1"
     inkscape:groupmode="layer"
     id="layer1"
     transform="translate(0,-261.01665)">
    <g
       id="g3515"
       transform="matrix(0.89018544,0,0,0.89018544,1.9757471,30.695369)">
      <polygon
         transform="matrix(-1.11111,0,0,-1.11111,33.38054,296.17683)"
         style="fill:#fee57f;fill-opacity:1;stroke:#000000;stroke-width:0.5291667;stroke-miterlimit:4;stroke-dasharray:none"
         points="13.85,31 3.844982,27.358471 0,0 27.7,0 23.855018,27.358471 "
         id="shogi_trapezoid" />
      <g
         id="g5276"
         transform="matrix(0.13826736,0,0,0.13826736,9.0431772,272.32409)">
        <path
           sodipodi:nodetypes="sscssscssccccsssccccccccsssccccsccsccccccscccssscccssscccsccc"
           id="path5274"
           d="m 130.941,7.182 v 103.196 c 0,0.243 -0.085,0.456 -0.134,0.688 0.024,0.23 0.134,0.438 0.134,0.676 0,12.769 -41.15,16.179 -65.465,16.179 C 41.16,127.921 0,124.511 0,111.742 0,111.504 0.113,111.297 0.137,111.066 0.088,110.834 0,110.621 0,110.378 V 7.182 C 0,5.931 0.761,4.783 1.921,4.308 3.093,3.836 4.426,4.098 5.318,4.969 l 22.64,22.572 c 1.178,1.178 1.23,3.075 0.106,4.308 -1.041,1.142 -2.274,2.987 -2.274,5.379 0,5.521 6.29,10.005 14.029,10.005 7.605,0 14.029,-4.579 14.029,-10.005 0,-3.915 -3.276,-7.486 -8.339,-9.133 -1.035,-0.335 -1.821,-1.178 -2.07,-2.226 -0.256,-1.06 0.058,-2.177 0.825,-2.944 L 63.27,3.927 c 1.215,-1.208 3.193,-1.208 4.408,0 l 19.008,18.999 c 0.767,0.767 1.077,1.884 0.828,2.944 -0.256,1.047 -1.041,1.903 -2.076,2.226 -5.061,1.647 -8.33,5.218 -8.33,9.133 0,5.521 6.29,10.005 14.029,10.005 7.605,0 14.029,-4.579 14.029,-10.005 0,-2.398 -1.248,-4.262 -2.302,-5.404 -1.127,-1.221 -1.084,-3.13 0.104,-4.308 L 125.632,4.969 c 0.901,-0.886 2.234,-1.142 3.386,-0.661 1.163,0.493 1.923,1.623 1.923,2.874 z m -6.235,96.991 V 97.256 C 123.683,93.816 102.432,87.3 65.477,87.3 28.546,87.3 7.301,93.803 6.236,97.305 v 6.875 c 12.41,-6.607 40.691,-8.604 59.241,-8.604 18.542,-0.007 46.819,1.996 59.229,8.597 z M 6.235,14.696 v 74.96 c 12.41,-6.612 40.691,-8.604 59.241,-8.604 18.542,0 46.819,1.991 59.229,8.604 V 14.684 l -15.418,15.345 c 1.389,2.22 2.107,4.677 2.107,7.21 0,8.966 -9.092,16.236 -20.265,16.236 -11.174,0 -20.265,-7.282 -20.265,-16.236 0,-5.276 3.105,-10.072 8.208,-13.083 L 65.468,10.556 51.864,24.162 c 5.109,2.993 8.221,7.806 8.221,13.083 0,8.966 -9.091,16.236 -20.265,16.236 -11.174,0 -20.265,-7.282 -20.265,-16.236 0,-2.521 0.715,-4.972 2.082,-7.186 z m 118.477,96.992 c -1.029,-3.367 -22.28,-9.883 -59.235,-9.883 -36.961,0 -58.218,6.516 -59.247,10.004 1.053,3.355 22.335,9.877 59.247,9.877 36.906,0.011 58.182,-6.504 59.235,-9.998 z"
           inkscape:connector-curvature="0" />
      </g>
    </g>
  </g>
</svg>
