<?xml version="1.0" encoding="UTF-8" standalone="no"?>
<!-- Created with Inkscape (http://www.inkscape.org/) -->

<svg
   xmlns:dc="http://purl.org/dc/elements/1.1/"
   xmlns:cc="http://creativecommons.org/ns#"
   xmlns:rdf="http://www.w3.org/1999/02/22-rdf-syntax-ns#"
   xmlns:svg="http://www.w3.org/2000/svg"
   xmlns="http://www.w3.org/2000/svg"
   xmlns:sodipodi="http://sodipodi.sourceforge.net/DTD/sodipodi-0.dtd"
   xmlns:inkscape="http://www.inkscape.org/namespaces/inkscape"
   width="136"
   height="136"
   viewBox="0 0 35.983333 35.983334"
   version="1.1"
   id="svg8"
   inkscape:version="0.92.4 5da689c313, 2019-01-14"
   sodipodi:docname="WhiteCrownedRook.svg">
  <defs
     id="defs2" />
  <sodipodi:namedview
     id="base"
     pagecolor="#ffffff"
     bordercolor="#666666"
     borderopacity="1.0"
     inkscape:pageopacity="0.0"
     inkscape:pageshadow="2"
     inkscape:zoom="1.4"
     inkscape:cx="24.967904"
     inkscape:cy="30.930678"
     inkscape:document-units="mm"
     inkscape:current-layer="layer1"
     showgrid="false"
     units="px"
     inkscape:window-width="1362"
     inkscape:window-height="720"
     inkscape:window-x="0"
     inkscape:window-y="46"
     inkscape:window-maximized="0"
     inkscape:lockguides="true"
     inkscape:snap-object-midpoints="true"
     showguides="false"
     inkscape:snap-global="true" />
  <metadata
     id="metadata5">
    <rdf:RDF>
      <cc:Work
         rdf:about="">
        <dc:format>image/svg+xml</dc:format>
        <dc:type
           rdf:resource="http://purl.org/dc/dcmitype/StillImage" />
        <dc:title />
      </cc:Work>
    </rdf:RDF>
  </metadata>
  <g
     inkscape:label="Layer 1"
     inkscape:groupmode="layer"
     id="layer1"
     transform="translate(0,-261.01665)">
    <g
       id="g4620"
       transform="matrix(0.89018544,0,0,0.89018544,1.9757471,30.695369)">
      <polygon
         transform="matrix(-1.11111,0,0,-1.11111,33.38054,296.17683)"
         style="fill:#fee57f;fill-opacity:1;stroke:#000000;stroke-width:0.5291667;stroke-miterlimit:4;stroke-dasharray:none"
         points="3.844982,27.358471 0,0 27.7,0 23.855018,27.358471 13.85,31 "
         id="shogi_trapezoid" />
      <g
         id="g12248">
        <path
           inkscape:connector-curvature="0"
           id="path9543-8"
           d="m 22.598056,268.86272 c -1.227474,-0.10745 -2.395399,0.26419 -3.478348,0.94161 -1.292191,0.80831 -2.484549,2.06989 -3.649634,3.46956 -0.03837,-0.31102 -0.0032,-0.63898 0.149323,-1.02593 0.236278,-0.59923 0.647786,-1.26021 0.951276,-1.93857 l 0.395267,-0.88364 -0.858169,0.44709 c -1.246952,0.64827 -1.73739,1.67163 -1.966673,2.55782 -0.03755,0.14514 -0.05047,0.25058 -0.07817,0.38736 0.01257,-0.0595 -2.02e-4,-0.0873 0.01581,-0.15108 l -0.61486,-0.25737 c -0.343695,0.56222 -0.559164,0.80858 -1.152423,1.94384 l -0.03777,0.0711 -0.03162,2.19593 c -0.946397,1.04041 -1.89946,1.99496 -2.9451789,2.51126 l -0.2652682,0.13088 0.095743,0.2802 c 0.1638298,0.48059 0.1800402,0.88698 0.1993901,1.32985 -0.088079,0.2277 -0.1702163,0.34496 -0.2617545,0.42777 -0.1016848,0.092 -0.2842911,0.20066 -0.3873616,0.45148 l -0.07027,0.17304 2.2503871,3.16038 0.0027,-1.05141 c 6.75e-4,-0.37197 0.04465,-0.70201 0.04568,-1.04965 l 1.608297,0.86607 c -2.58e-4,0.27537 -0.0036,0.5387 0.04655,0.74837 0.06443,0.26973 0.235294,0.52376 0.485739,0.64912 l 0.195877,0.0984 0.169525,-0.13966 c 1.04285,-0.86251 1.672056,-2.25414 2.34086,-3.47045 0.652759,-1.18712 1.324099,-2.15504 2.257414,-2.43309 0.05611,0.0281 0.123188,0.0258 0.17743,0.0597 0.521808,0.32634 0.986991,0.95733 1.343907,2.00708 l 0.653511,-0.15459 c -0.145464,-1.06604 -0.07269,-1.85368 0.137904,-2.34613 0.210588,-0.49245 0.51052,-0.711 0.997829,-0.76243 l 0.04479,-0.66317 c -0.62699,-0.15292 -1.021782,-0.40815 -1.181412,-0.71148 -0.159626,-0.30332 -0.152718,-0.73333 0.222227,-1.40627 l 0.150204,-0.26966 -0.256483,-0.17392 c -0.750683,-0.50792 -1.11166,-1.04326 -1.220057,-1.55032 -0.108402,-0.50706 0.02509,-1.01681 0.380333,-1.51519 0.710491,-0.99676 2.333588,-1.86529 4.298747,-2.0264 l 0.0852,-0.65439 c -0.421568,-0.14882 -0.837246,-0.23736 -1.246406,-0.27317 z m -0.902088,0.69654 c -1.20719,0.41116 -2.206504,1.05365 -2.785315,1.86566 -0.438793,0.61559 -0.642762,1.33442 -0.49013,2.04836 0.137806,0.64462 0.598379,1.24915 1.305258,1.78661 -0.311759,0.67546 -0.395979,1.29789 -0.138781,1.78661 0.168189,0.31959 0.456594,0.54478 0.794927,0.72641 -0.287667,0.2016 -0.527492,0.47464 -0.67986,0.83094 -0.133006,0.31102 -0.204517,0.68162 -0.239798,1.09094 -0.267789,-0.38569 -0.572326,-0.68916 -0.917018,-0.90473 -0.698691,-0.43695 -1.530889,-0.4937 -2.398831,-0.26965 l 0.168647,0.6535 c 0.222276,-0.0574 0.409021,-0.0469 0.607833,-0.0597 -0.735899,0.54828 -1.272355,1.40803 -1.761135,2.29694 -0.249185,0.45318 -0.495756,0.8979 -0.744858,1.33776 l -1.090059,-0.59992 1.304381,-0.22135 -0.561279,-0.79142 1.015397,0.16514 -0.07378,-1.66803 0.610468,-0.32148 v -1.28418 l -0.498915,-0.7475 -1.04614,0.13088 0.0325,0.44446 -0.693035,0.0597 -0.04919,0.41547 -0.292498,-0.0975 -0.82479,0.23628 0.08872,1.00573 -0.907357,-0.0308 -0.02898,1.61621 c -0.202065,-0.10678 -0.328677,-0.21833 -0.649116,-0.31797 l -0.368038,-0.11419 -0.06412,0.38033 c -0.121355,0.7156 -0.09172,1.36758 -0.09135,2.03255 L 9.4163428,281.8986 c 0.032452,-0.0288 0.029399,-0.0327 0.1010125,-0.0975 0.1524239,-0.13788 0.3445536,-0.37092 0.4769556,-0.75715 l 0.020202,-0.0597 -0.0027,-0.0641 c -0.016918,-0.39332 -0.080534,-0.84844 -0.205539,-1.33073 1.126953,-0.61864 2.09694,-1.58155 3.021597,-2.6035 l 0.0852,-0.094 0.03338,-2.28904 c 0.202294,-0.38337 0.281701,-0.47797 0.411956,-0.69391 0.05311,0.2903 0.131139,0.56033 0.285471,0.76857 l 0.239795,0.32412 0.276687,-0.29338 c 0.247592,-0.26344 0.32779,-0.60073 0.401416,-0.95918 0.07363,-0.35844 0.129242,-0.75304 0.23189,-1.14978 0.02754,-0.10647 0.09737,-0.20451 0.131755,-0.31007 -0.19227,0.60932 -0.265942,1.25516 0.106283,1.84546 l 0.252093,0.39966 0.296011,-0.36716 c 1.27499,-1.58071 2.569101,-2.9602 3.897336,-3.79105 0.729851,-0.45654 1.462747,-0.73026 2.218764,-0.81689 z m -6.900483,8.44466 0.151958,0.22838 v 0.67195 l -0.628914,0.33115 0.05622,1.26661 -1.789242,-0.29074 0.873979,1.2306 -1.393975,0.23716 0.02811,-1.53715 0.983776,0.0343 -0.107161,-1.21128 0.08871,-0.0255 0.881885,0.29337 0.08081,-0.69304 0.808101,-0.0703 z m -3.829699,3.58112 c 0.148677,0.0695 0.343534,0.14154 0.433037,0.2073 l -0.09223,0.0158 0.492767,0.27054 0.254727,0.20818 9e-4,-0.0668 0.495401,0.27229 -1.632013,0.2073 c 0.0055,-0.36576 0.0068,-0.74741 0.04743,-1.11465 z m 3.339568,1.36411 c -0.332023,0.57079 -0.696765,1.05018 -1.090938,1.44844 -0.03119,-0.1532 -0.04493,-0.39381 -0.03865,-0.75013 l 0.0035,-0.20554 -0.526145,-0.28284 z"
           style="color:#000000;font-style:normal;font-variant:normal;font-weight:normal;font-stretch:normal;font-size:medium;line-height:normal;font-family:sans-serif;font-variant-ligatures:normal;font-variant-position:normal;font-variant-caps:normal;font-variant-numeric:normal;font-variant-alternates:normal;font-feature-settings:normal;text-indent:0;text-align:start;text-decoration:none;text-decoration-line:none;text-decoration-style:solid;text-decoration-color:#000000;letter-spacing:normal;word-spacing:normal;text-transform:none;writing-mode:lr-tb;direction:ltr;text-orientation:mixed;dominant-baseline:auto;baseline-shift:baseline;text-anchor:start;white-space:normal;shape-padding:0;clip-rule:nonzero;display:inline;overflow:visible;visibility:visible;opacity:1;isolation:auto;mix-blend-mode:normal;color-interpolation:sRGB;color-interpolation-filters:linearRGB;solid-color:#000000;solid-opacity:1;vector-effect:none;fill:#ff0000;fill-opacity:1;fill-rule:nonzero;stroke:none;stroke-width:0.6745891;stroke-linecap:butt;stroke-linejoin:miter;stroke-miterlimit:4;stroke-dasharray:none;stroke-dashoffset:0;stroke-opacity:1;color-rendering:auto;image-rendering:auto;shape-rendering:auto;text-rendering:auto;enable-background:accumulate" />
        <path
           inkscape:connector-curvature="0"
           id="path9554-6"
           d="m 21.796104,271.65857 c -1.015459,0.12046 -2.193849,0.61166 -3.213962,1.81823 l 0.514724,0.43479 c 0.914986,-1.08222 1.910666,-1.48078 2.778291,-1.5837 0.102457,-0.0122 0.178834,0.0127 0.277567,0.009 -0.376241,0.13364 -0.718784,0.28478 -0.969722,0.4954 -0.289597,0.24306 -0.489711,0.55492 -0.563039,0.90647 -0.07333,0.35156 -0.02384,0.72878 0.121214,1.11729 l 0.109801,0.2925 0.299522,-0.0861 c 1.911232,-0.54903 3.427385,-0.61296 4.575436,-0.20905 -0.337978,-0.0397 -0.667011,-0.0958 -0.979386,-0.10716 -0.400634,-0.0146 -0.763599,-10e-4 -1.078636,0.10189 -0.157522,0.0516 -0.307258,0.12819 -0.428648,0.25473 -0.121385,0.12653 -0.200528,0.30651 -0.212563,0.49013 l -0.01583,0.2354 0.21608,0.0949 c 2.658303,1.17299 3.808311,2.44657 4.128345,3.66105 0.32003,1.21449 -0.165512,2.47275 -1.023302,3.67248 -0.857794,1.19972 -2.071119,2.30786 -3.0866,3.17092 -0.507741,0.43152 -0.965036,0.80217 -1.309652,1.10059 -0.172308,0.14921 -0.316234,0.27967 -0.42952,0.39878 -0.113002,0.11881 -0.211672,0.19493 -0.256487,0.40669 -1.13e-4,4.5e-4 -9e-4,3.4e-4 -9e-4,9e-4 -0.590796,1.4989 -0.3783,2.28256 -0.297768,3.15775 l -7.110414,0.0299 c -0.06169,-2.20904 0.833625,-3.70172 2.060659,-4.79327 1.288467,-1.1462 2.914919,-1.83588 4.037871,-2.36458 1.342752,-0.63218 2.373367,-2.08231 2.63687,-3.46605 0.131752,-0.69187 0.06447,-1.3907 -0.328511,-1.93505 -0.392975,-0.54435 -1.093239,-0.88048 -2.060658,-0.90911 l -0.02019,0.6737 c 0.827878,0.0245 1.281368,0.28036 1.533638,0.6298 0.252264,0.34944 0.321747,0.84544 0.213444,1.41418 -0.21661,1.13747 -1.171784,2.46887 -2.261807,2.98206 -1.097903,0.51691 -2.801095,1.22765 -4.198615,2.47087 -1.397519,1.24321 -2.483552,3.05823 -2.298697,5.66022 l 0.02196,0.31445 8.488577,-0.0351 -0.0097,-0.3452 c -0.03341,-1.19397 -0.411355,-1.68675 0.236282,-3.28862 l 0.01142,-0.0281 0.0062,-0.0299 c -0.02028,0.0966 3.83e-4,0.008 0.0852,-0.0808 0.08482,-0.0892 0.217236,-0.21123 0.382092,-0.35399 0.329716,-0.28551 0.790326,-0.65856 1.305262,-1.0962 1.029873,-0.87529 2.281208,-2.00934 3.199027,-3.29302 0.917819,-1.28368 1.518568,-2.74936 1.126951,-4.2355 -0.371888,-1.41126 -1.656953,-2.74336 -4.143277,-3.91666 0.0069,-0.003 0.0057,-0.005 0.01318,-0.007 0.172191,-0.0564 0.480969,-0.0826 0.844118,-0.0694 0.726294,0.0265 1.672288,0.18681 2.462952,0.27318 l 0.948638,0.10365 -0.67283,-0.67722 c -1.342851,-1.35069 -3.4871,-1.4752 -6.123124,-0.78527 -0.02892,-0.15948 -0.08244,-0.33611 -0.0571,-0.45763 0.04115,-0.19734 0.140886,-0.36291 0.336417,-0.52702 0.391064,-0.32823 1.189557,-0.5993 2.377752,-0.72203 l 1.174383,-0.12121 -1.061075,-0.51736 c -0.457286,-0.22307 -1.296416,-0.45073 -2.311871,-0.33027 z"
           style="color:#000000;font-style:normal;font-variant:normal;font-weight:normal;font-stretch:normal;font-size:medium;line-height:normal;font-family:sans-serif;font-variant-ligatures:normal;font-variant-position:normal;font-variant-caps:normal;font-variant-numeric:normal;font-variant-alternates:normal;font-feature-settings:normal;text-indent:0;text-align:start;text-decoration:none;text-decoration-line:none;text-decoration-style:solid;text-decoration-color:#000000;letter-spacing:normal;word-spacing:normal;text-transform:none;writing-mode:lr-tb;direction:ltr;text-orientation:mixed;dominant-baseline:auto;baseline-shift:baseline;text-anchor:start;white-space:normal;shape-padding:0;clip-rule:nonzero;display:inline;overflow:visible;visibility:visible;opacity:1;isolation:auto;mix-blend-mode:normal;color-interpolation:sRGB;color-interpolation-filters:linearRGB;solid-color:#000000;solid-opacity:1;vector-effect:none;fill:#ff0000;fill-opacity:1;fill-rule:nonzero;stroke:none;stroke-width:0.6745891;stroke-linecap:butt;stroke-linejoin:miter;stroke-miterlimit:4;stroke-dasharray:none;stroke-dashoffset:0;stroke-opacity:1;color-rendering:auto;image-rendering:auto;shape-rendering:auto;text-rendering:auto;enable-background:accumulate" />
        <path
           inkscape:connector-curvature="0"
           id="path9556-0"
           d="m 23.432509,277.87832 c -0.736166,-0.0338 -1.546599,0.0664 -2.427819,0.33202 l 0.195001,0.64648 c 1.635829,-0.49304 2.920656,-0.364 3.928951,0.10804 1.008299,0.47204 1.751917,1.30055 2.246876,2.26005 l 0.599049,-0.30919 c -0.548783,-1.06384 -1.392865,-2.01559 -2.560453,-2.56221 -0.583794,-0.2733 -1.24544,-0.44136 -1.981605,-0.47519 z"
           style="color:#000000;font-style:normal;font-variant:normal;font-weight:normal;font-stretch:normal;font-size:medium;line-height:normal;font-family:sans-serif;font-variant-ligatures:normal;font-variant-position:normal;font-variant-caps:normal;font-variant-numeric:normal;font-variant-alternates:normal;font-feature-settings:normal;text-indent:0;text-align:start;text-decoration:none;text-decoration-line:none;text-decoration-style:solid;text-decoration-color:#000000;letter-spacing:normal;word-spacing:normal;text-transform:none;writing-mode:lr-tb;direction:ltr;text-orientation:mixed;dominant-baseline:auto;baseline-shift:baseline;text-anchor:start;white-space:normal;shape-padding:0;clip-rule:nonzero;display:inline;overflow:visible;visibility:visible;opacity:1;isolation:auto;mix-blend-mode:normal;color-interpolation:sRGB;color-interpolation-filters:linearRGB;solid-color:#000000;solid-opacity:1;vector-effect:none;fill:#ff0000;fill-opacity:1;fill-rule:nonzero;stroke:none;stroke-width:0.6745891;stroke-linecap:butt;stroke-linejoin:miter;stroke-miterlimit:4;stroke-dasharray:none;stroke-dashoffset:0;stroke-opacity:1;color-rendering:auto;image-rendering:auto;shape-rendering:auto;text-rendering:auto;enable-background:accumulate" />
        <path
           inkscape:connector-curvature="0"
           id="path9558-9"
           d="m 22.244072,279.23452 -0.0237,0.67371 c 0.850477,0.0297 1.369124,0.28313 1.70931,0.6579 0.340186,0.37477 0.513916,0.9043 0.557764,1.53276 0.0877,1.25693 -0.369693,2.85538 -0.815129,3.96585 l 0.625403,0.25121 c 0.467423,-1.16529 0.964725,-2.81285 0.863438,-4.26449 -0.05064,-0.72582 -0.257248,-1.4159 -0.731682,-1.93857 -0.474438,-0.52266 -1.204672,-0.84416 -2.18539,-0.87837 z"
           style="color:#000000;font-style:normal;font-variant:normal;font-weight:normal;font-stretch:normal;font-size:medium;line-height:normal;font-family:sans-serif;font-variant-ligatures:normal;font-variant-position:normal;font-variant-caps:normal;font-variant-numeric:normal;font-variant-alternates:normal;font-feature-settings:normal;text-indent:0;text-align:start;text-decoration:none;text-decoration-line:none;text-decoration-style:solid;text-decoration-color:#000000;letter-spacing:normal;word-spacing:normal;text-transform:none;writing-mode:lr-tb;direction:ltr;text-orientation:mixed;dominant-baseline:auto;baseline-shift:baseline;text-anchor:start;white-space:normal;shape-padding:0;clip-rule:nonzero;display:inline;overflow:visible;visibility:visible;opacity:1;isolation:auto;mix-blend-mode:normal;color-interpolation:sRGB;color-interpolation-filters:linearRGB;solid-color:#000000;solid-opacity:1;vector-effect:none;fill:#ff0000;fill-opacity:1;fill-rule:nonzero;stroke:none;stroke-width:0.6745891;stroke-linecap:butt;stroke-linejoin:miter;stroke-miterlimit:4;stroke-dasharray:none;stroke-dashoffset:0;stroke-opacity:1;color-rendering:auto;image-rendering:auto;shape-rendering:auto;text-rendering:auto;enable-background:accumulate" />
        <path
           inkscape:connector-curvature="0"
           id="path9562-2"
           d="m 24.657837,280.40978 -0.65351,0.16777 c 0.297655,1.16152 0.05507,2.06284 -0.476953,2.91356 -0.532021,0.85071 -1.371341,1.62783 -2.237212,2.41815 -0.865875,0.79033 -1.757767,1.59356 -2.370726,2.54904 -0.612959,0.95547 -0.931252,2.08766 -0.613102,3.4151 l 0.656145,-0.15723 c -0.275709,-1.15035 -0.01848,-2.04576 0.525262,-2.89335 0.543751,-0.84759 1.389861,-1.62358 2.256537,-2.41464 0.866676,-0.79106 1.754147,-1.59753 2.355791,-2.55958 0.601648,-0.96205 0.90005,-2.10315 0.557768,-3.43882 z"
           style="color:#000000;font-style:normal;font-variant:normal;font-weight:normal;font-stretch:normal;font-size:medium;line-height:normal;font-family:sans-serif;font-variant-ligatures:normal;font-variant-position:normal;font-variant-caps:normal;font-variant-numeric:normal;font-variant-alternates:normal;font-feature-settings:normal;text-indent:0;text-align:start;text-decoration:none;text-decoration-line:none;text-decoration-style:solid;text-decoration-color:#000000;letter-spacing:normal;word-spacing:normal;text-transform:none;writing-mode:lr-tb;direction:ltr;text-orientation:mixed;dominant-baseline:auto;baseline-shift:baseline;text-anchor:start;white-space:normal;shape-padding:0;clip-rule:nonzero;display:inline;overflow:visible;visibility:visible;opacity:1;isolation:auto;mix-blend-mode:normal;color-interpolation:sRGB;color-interpolation-filters:linearRGB;solid-color:#000000;solid-opacity:1;vector-effect:none;fill:#ff0000;fill-opacity:1;fill-rule:nonzero;stroke:none;stroke-width:0.6745891;stroke-linecap:butt;stroke-linejoin:miter;stroke-miterlimit:4;stroke-dasharray:none;stroke-dashoffset:0;stroke-opacity:1;color-rendering:auto;image-rendering:auto;shape-rendering:auto;text-rendering:auto;enable-background:accumulate" />
        <path
           inkscape:connector-curvature="0"
           id="path9564-7"
           d="m 22.597179,279.89769 -0.498917,0.45412 c 0.44137,0.48489 0.642244,0.90379 0.695672,1.27452 0.05343,0.37072 -0.03184,0.71415 -0.242434,1.08303 -0.421182,0.73774 -1.368678,1.51608 -2.429573,2.35228 -1.060895,0.83619 -2.230339,1.74018 -3.084839,2.8424 -0.8545,1.10223 -1.387604,2.4333 -1.110261,4.01767 l 0.664049,-0.11594 c -0.241844,-1.38158 0.199258,-2.48172 0.979383,-3.48801 0.780125,-1.0063 1.906451,-1.88835 2.969774,-2.72647 1.063323,-0.83811 2.068929,-1.62258 2.597343,-2.54815 0.26421,-0.46279 0.402465,-0.9759 0.324999,-1.51344 -0.07747,-0.53753 -0.361948,-1.07913 -0.865196,-1.63201 z"
           style="color:#000000;font-style:normal;font-variant:normal;font-weight:normal;font-stretch:normal;font-size:medium;line-height:normal;font-family:sans-serif;font-variant-ligatures:normal;font-variant-position:normal;font-variant-caps:normal;font-variant-numeric:normal;font-variant-alternates:normal;font-feature-settings:normal;text-indent:0;text-align:start;text-decoration:none;text-decoration-line:none;text-decoration-style:solid;text-decoration-color:#000000;letter-spacing:normal;word-spacing:normal;text-transform:none;writing-mode:lr-tb;direction:ltr;text-orientation:mixed;dominant-baseline:auto;baseline-shift:baseline;text-anchor:start;white-space:normal;shape-padding:0;clip-rule:nonzero;display:inline;overflow:visible;visibility:visible;opacity:1;isolation:auto;mix-blend-mode:normal;color-interpolation:sRGB;color-interpolation-filters:linearRGB;solid-color:#000000;solid-opacity:1;vector-effect:none;fill:#ff0000;fill-opacity:1;fill-rule:nonzero;stroke:none;stroke-width:0.6745891;stroke-linecap:butt;stroke-linejoin:miter;stroke-miterlimit:4;stroke-dasharray:none;stroke-dashoffset:0;stroke-opacity:1;color-rendering:auto;image-rendering:auto;shape-rendering:auto;text-rendering:auto;enable-background:accumulate" />
        <path
           inkscape:connector-curvature="0"
           id="path9578-1"
           d="m 18.22201,277.09042 c -0.587704,0.0153 -1.170715,0.0695 -1.749715,0.13966 l 0.08081,0.6702 c 1.132862,-0.13737 2.247648,-0.20704 3.347471,-0.0474 l 0.09662,-0.66756 c -0.595518,-0.0864 -1.187484,-0.11018 -1.77519,-0.0949 z"
           style="color:#000000;font-style:normal;font-variant:normal;font-weight:normal;font-stretch:normal;font-size:medium;line-height:normal;font-family:sans-serif;font-variant-ligatures:normal;font-variant-position:normal;font-variant-caps:normal;font-variant-numeric:normal;font-variant-alternates:normal;font-feature-settings:normal;text-indent:0;text-align:start;text-decoration:none;text-decoration-line:none;text-decoration-style:solid;text-decoration-color:#000000;letter-spacing:normal;word-spacing:normal;text-transform:none;writing-mode:lr-tb;direction:ltr;text-orientation:mixed;dominant-baseline:auto;baseline-shift:baseline;text-anchor:start;white-space:normal;shape-padding:0;clip-rule:nonzero;display:inline;overflow:visible;visibility:visible;opacity:1;isolation:auto;mix-blend-mode:normal;color-interpolation:sRGB;color-interpolation-filters:linearRGB;solid-color:#000000;solid-opacity:1;vector-effect:none;fill:#ff0000;fill-opacity:1;fill-rule:nonzero;stroke:none;stroke-width:0.6745891;stroke-linecap:butt;stroke-linejoin:miter;stroke-miterlimit:4;stroke-dasharray:none;stroke-dashoffset:0;stroke-opacity:1;color-rendering:auto;image-rendering:auto;shape-rendering:auto;text-rendering:auto;enable-background:accumulate" />
        <path
           inkscape:connector-curvature="0"
           id="path9580-0"
           d="m 19.327882,275.02098 c -1.223498,0.25026 -2.561687,0.4531 -3.308826,1.38782 l 0.526144,0.42162 c 0.5144,-0.64355 1.684631,-0.89664 2.91795,-1.14891 z"
           style="color:#000000;font-style:normal;font-variant:normal;font-weight:normal;font-stretch:normal;font-size:medium;line-height:normal;font-family:sans-serif;font-variant-ligatures:normal;font-variant-position:normal;font-variant-caps:normal;font-variant-numeric:normal;font-variant-alternates:normal;font-feature-settings:normal;text-indent:0;text-align:start;text-decoration:none;text-decoration-line:none;text-decoration-style:solid;text-decoration-color:#000000;letter-spacing:normal;word-spacing:normal;text-transform:none;writing-mode:lr-tb;direction:ltr;text-orientation:mixed;dominant-baseline:auto;baseline-shift:baseline;text-anchor:start;white-space:normal;shape-padding:0;clip-rule:nonzero;display:inline;overflow:visible;visibility:visible;opacity:1;isolation:auto;mix-blend-mode:normal;color-interpolation:sRGB;color-interpolation-filters:linearRGB;solid-color:#000000;solid-opacity:1;vector-effect:none;fill:#ff0000;fill-opacity:1;fill-rule:nonzero;stroke:none;stroke-width:0.6745891;stroke-linecap:butt;stroke-linejoin:miter;stroke-miterlimit:4;stroke-dasharray:none;stroke-dashoffset:0;stroke-opacity:1;color-rendering:auto;image-rendering:auto;shape-rendering:auto;text-rendering:auto;enable-background:accumulate" />
        <path
           inkscape:connector-curvature="0"
           id="path9582-4"
           d="m 14.791093,274.24801 -0.759791,0.70445 -0.6579,0.60871 -0.278444,1.70317 1.307016,-1.03648 z"
           style="color:#000000;font-style:normal;font-variant:normal;font-weight:normal;font-stretch:normal;font-size:medium;line-height:normal;font-family:sans-serif;font-variant-ligatures:normal;font-variant-position:normal;font-variant-caps:normal;font-variant-numeric:normal;font-variant-alternates:normal;font-feature-settings:normal;text-indent:0;text-align:start;text-decoration:none;text-decoration-line:none;text-decoration-style:solid;text-decoration-color:#000000;letter-spacing:normal;word-spacing:normal;text-transform:none;writing-mode:lr-tb;direction:ltr;text-orientation:mixed;dominant-baseline:auto;baseline-shift:baseline;text-anchor:start;white-space:normal;shape-padding:0;clip-rule:nonzero;display:inline;overflow:visible;visibility:visible;opacity:1;isolation:auto;mix-blend-mode:normal;color-interpolation:sRGB;color-interpolation-filters:linearRGB;solid-color:#000000;solid-opacity:1;vector-effect:none;fill:#ff0000;fill-opacity:1;fill-rule:nonzero;stroke:none;stroke-width:0.6745891;stroke-linecap:butt;stroke-linejoin:miter;stroke-miterlimit:4;stroke-dasharray:none;stroke-dashoffset:0;stroke-opacity:1;color-rendering:auto;image-rendering:auto;shape-rendering:auto;text-rendering:auto;enable-background:accumulate" />
      </g>
    </g>
  </g>
</svg>
