<svg xmlns="http://www.w3.org/2000/svg" viewBox="0 0 35.983 35.983"><path fill="#fee57f" stroke="#000" stroke-width=".523" d="m27.888 6.27 3.803 27.061H4.293l3.803-27.06 9.896-3.602z"/><g color="#000" font-weight="400" font-family="sans-serif" fill="red"><path d="M22.092 9.016c-1.092-.095-2.132.236-3.096.839-1.15.72-2.212 1.842-3.249 3.088a1.812 1.812 0 0 1 .133-.913c.21-.534.577-1.122.847-1.726l.352-.786-.764.398c-1.11.577-1.547 1.488-1.751 2.277-.033.129-.045.223-.07.344.012-.053 0-.077.014-.134l-.547-.23c-.306.501-.498.72-1.026 1.731l-.033.063-.029 1.955c-.842.926-1.69 1.776-2.621 2.236l-.236.116.085.25c.146.427.16.79.177 1.183-.078.203-.151.308-.233.381-.09.082-.253.179-.345.402l-.062.154 2.003 2.814.003-.936c0-.332.04-.625.04-.935l1.432.771c0 .245-.003.48.041.666.058.24.21.467.433.578l.174.088.151-.125c.928-.767 1.488-2.006 2.084-3.089.58-1.057 1.179-1.918 2.01-2.166.05.025.109.023.157.053.465.29.879.853 1.197 1.787l.581-.138c-.13-.949-.064-1.65.123-2.088.188-.438.455-.633.888-.679l.04-.59c-.558-.136-.91-.363-1.051-.634-.143-.27-.136-.652.197-1.251l.134-.24-.228-.155c-.668-.452-.99-.929-1.086-1.38-.097-.452.022-.905.338-1.35.633-.886 2.078-1.66 3.827-1.803l.076-.582a4.5 4.5 0 0 0-1.11-.244zm-.803.62c-1.074.366-1.964.938-2.48 1.661-.39.548-.571 1.188-.436 1.824.123.573.533 1.112 1.162 1.59-.277.601-.352 1.155-.123 1.59.15.285.406.485.707.647a1.72 1.72 0 0 0-.605.74c-.118.277-.182.607-.213.97a2.837 2.837 0 0 0-.817-.804c-.622-.39-1.362-.44-2.135-.24l.15.581c.198-.05.364-.041.541-.053-.655.488-1.132 1.254-1.567 2.045-.222.403-.442.8-.664 1.19l-.97-.533L15 20.647l-.5-.705.905.147-.066-1.485.543-.286v-1.143l-.444-.666-.931.117.029.396-.617.053-.044.37-.26-.087-.735.21.08.895-.808-.027-.026 1.439c-.18-.095-.293-.195-.578-.283l-.328-.102-.057.339c-.108.637-.081 1.217-.08 1.809l-.725-1.017c.029-.026.026-.03.09-.087.136-.123.307-.33.425-.674l.018-.053-.003-.057a5.766 5.766 0 0 0-.183-1.185c1.003-.55 1.867-1.408 2.69-2.317l.076-.084.03-2.038c.18-.341.25-.425.366-.618.047.259.117.5.254.685l.214.288.246-.261c.22-.234.292-.535.357-.854.066-.319.115-.67.207-1.023.024-.095.087-.182.117-.276-.171.542-.237 1.117.095 1.642l.224.356.264-.327c1.135-1.407 2.287-2.635 3.469-3.374.65-.407 1.302-.65 1.975-.728zm-6.143 7.518.136.203v.598l-.56.295.05 1.128-1.593-.26.778 1.096-1.24.211.024-1.368.876.03-.095-1.078.079-.022.785.26.072-.616.719-.063zm-3.409 3.188c.133.061.306.126.386.184l-.082.014.438.241.227.185v-.06l.442.243-1.453.185c.005-.326.006-.666.042-.992zm2.973 1.214a6.37 6.37 0 0 1-.971 1.29c-.028-.137-.04-.351-.034-.668l.003-.183-.469-.252z" style="line-height:normal;font-variant-ligatures:normal;font-variant-position:normal;font-variant-caps:normal;font-variant-numeric:normal;font-variant-alternates:normal;font-feature-settings:normal;text-indent:0;text-align:start;text-decoration-line:none;text-decoration-style:solid;text-decoration-color:#000;text-transform:none;text-orientation:mixed;white-space:normal;shape-padding:0;isolation:auto;mix-blend-mode:normal;solid-color:#000;solid-opacity:1" overflow="visible"/><path d="M21.378 11.505c-.904.107-1.953.545-2.86 1.619l.457.387c.815-.964 1.701-1.318 2.474-1.41.09-.01.159.011.247.008-.335.119-.64.254-.863.441a1.442 1.442 0 0 0-.502.807c-.065.313-.02.649.108.995l.098.26.267-.077c1.701-.488 3.05-.545 4.073-.186-.301-.035-.594-.085-.872-.095-.357-.013-.68-.001-.96.09a.904.904 0 0 0-.382.227.709.709 0 0 0-.19.437l-.013.21.192.084c2.366 1.044 3.39 2.178 3.675 3.259.285 1.08-.147 2.2-.91 3.269-.764 1.068-1.845 2.054-2.749 2.823-.452.384-.859.714-1.165.98a5.597 5.597 0 0 0-.383.354c-.1.106-.188.174-.228.362v.001c-.527 1.334-.338 2.032-.266 2.811l-6.33.027c-.054-1.967.743-3.296 1.835-4.267 1.147-1.02 2.595-1.635 3.594-2.105 1.196-.563 2.113-1.854 2.348-3.086.117-.615.057-1.238-.293-1.722-.35-.485-.973-.784-1.834-.81l-.018.6c.737.022 1.14.25 1.365.561.225.311.286.753.19 1.259-.193 1.012-1.043 2.198-2.013 2.654-.978.46-2.494 1.093-3.738 2.2-1.244 1.107-2.21 2.722-2.046 5.039l.02.28 7.556-.032-.009-.307c-.03-1.063-.366-1.502.21-2.927l.01-.026.006-.026c-.018.086 0 .007.076-.072.076-.08.193-.188.34-.315.294-.254.704-.586 1.162-.976.917-.78 2.03-1.789 2.848-2.931.817-1.143 1.352-2.448 1.003-3.77-.331-1.257-1.475-2.443-3.688-3.487.006-.003.005-.005.011-.007.154-.05.429-.073.752-.061.646.023 1.489.166 2.192.243l.845.092-.6-.603c-1.195-1.202-3.103-1.313-5.45-.699-.026-.142-.073-.299-.05-.407a.805.805 0 0 1 .299-.47c.348-.291 1.059-.533 2.116-.642l1.046-.108-.945-.46c-.407-.2-1.154-.402-2.058-.294z" style="line-height:normal;font-variant-ligatures:normal;font-variant-position:normal;font-variant-caps:normal;font-variant-numeric:normal;font-variant-alternates:normal;font-feature-settings:normal;text-indent:0;text-align:start;text-decoration-line:none;text-decoration-style:solid;text-decoration-color:#000;text-transform:none;text-orientation:mixed;white-space:normal;shape-padding:0;isolation:auto;mix-blend-mode:normal;solid-color:#000;solid-opacity:1" overflow="visible"/><path d="M22.835 17.042c-.655-.03-1.377.06-2.161.296l.173.575c1.457-.439 2.6-.324 3.498.096.897.42 1.56 1.158 2 2.012l.533-.275c-.488-.947-1.24-1.794-2.279-2.281a4.63 4.63 0 0 0-1.764-.423z" style="line-height:normal;font-variant-ligatures:normal;font-variant-position:normal;font-variant-caps:normal;font-variant-numeric:normal;font-variant-alternates:normal;font-feature-settings:normal;text-indent:0;text-align:start;text-decoration-line:none;text-decoration-style:solid;text-decoration-color:#000;text-transform:none;text-orientation:mixed;white-space:normal;shape-padding:0;isolation:auto;mix-blend-mode:normal;solid-color:#000;solid-opacity:1" overflow="visible"/><path d="m21.777 18.25-.021.599c.757.026 1.219.252 1.522.586.302.333.457.805.496 1.364.078 1.119-.329 2.542-.726 3.53l.557.224c.416-1.037.859-2.504.769-3.796-.045-.646-.23-1.26-.651-1.726-.423-.465-1.073-.751-1.946-.782z" style="line-height:normal;font-variant-ligatures:normal;font-variant-position:normal;font-variant-caps:normal;font-variant-numeric:normal;font-variant-alternates:normal;font-feature-settings:normal;text-indent:0;text-align:start;text-decoration-line:none;text-decoration-style:solid;text-decoration-color:#000;text-transform:none;text-orientation:mixed;white-space:normal;shape-padding:0;isolation:auto;mix-blend-mode:normal;solid-color:#000;solid-opacity:1" overflow="visible"/><path d="m23.926 19.295-.582.15c.265 1.034.05 1.836-.425 2.593-.473.758-1.22 1.45-1.991 2.153-.77.704-1.565 1.419-2.11 2.27-.546.85-.83 1.858-.546 3.04l.584-.14c-.246-1.025-.017-1.822.467-2.576.484-.755 1.238-1.446 2.01-2.15.77-.704 1.56-1.422 2.096-2.278.536-.857.801-1.873.497-3.062z" style="line-height:normal;font-variant-ligatures:normal;font-variant-position:normal;font-variant-caps:normal;font-variant-numeric:normal;font-variant-alternates:normal;font-feature-settings:normal;text-indent:0;text-align:start;text-decoration-line:none;text-decoration-style:solid;text-decoration-color:#000;text-transform:none;text-orientation:mixed;white-space:normal;shape-padding:0;isolation:auto;mix-blend-mode:normal;solid-color:#000;solid-opacity:1" overflow="visible"/><path d="m22.091 18.84-.444.404c.393.431.572.804.62 1.134.047.33-.029.636-.216.964-.375.657-1.219 1.35-2.163 2.094-.944.745-1.985 1.55-2.746 2.53-.76.982-1.235 2.167-.988 3.577l.59-.103c-.215-1.23.178-2.21.873-3.105.694-.896 1.697-1.681 2.643-2.427.947-.746 1.842-1.444 2.312-2.268.235-.412.359-.87.29-1.348-.07-.478-.323-.96-.77-1.452zm-3.894-2.5c-.523.014-1.042.062-1.558.125l.072.597c1.009-.123 2-.185 2.98-.043l.086-.594a9.29 9.29 0 0 0-1.58-.084zm.984-1.842c-1.089.223-2.28.404-2.945 1.236l.468.375c.458-.573 1.5-.798 2.598-1.023zm-4.038-.688-.677.627-.585.542-.248 1.516 1.163-.922z" style="line-height:normal;font-variant-ligatures:normal;font-variant-position:normal;font-variant-caps:normal;font-variant-numeric:normal;font-variant-alternates:normal;font-feature-settings:normal;text-indent:0;text-align:start;text-decoration-line:none;text-decoration-style:solid;text-decoration-color:#000;text-transform:none;text-orientation:mixed;white-space:normal;shape-padding:0;isolation:auto;mix-blend-mode:normal;solid-color:#000;solid-opacity:1" overflow="visible"/></g></svg>