<svg xmlns="http://www.w3.org/2000/svg" viewBox="0 0 35.983 35.983"><path fill="#fee57f" stroke="#000" stroke-width=".523" d="M4.293 2.652H31.69l-3.803 27.06-9.896 3.602-9.896-3.602z"/><path d="M9.84 23.002V10.3c0-.03.011-.056.017-.085-.003-.028-.016-.054-.016-.083 0-1.572 5.065-1.991 8.057-1.991 2.993 0 8.06.42 8.06 1.991 0 .03-.014.055-.017.083.006.029.016.055.016.085v12.702a.384.384 0 0 1-.654.272l-2.787-2.778a.384.384 0 0 1-.013-.53c.128-.141.28-.368.28-.662 0-.68-.774-1.232-1.727-1.232-.936 0-1.726.564-1.726 1.232 0 .481.403.92 1.026 1.124a.382.382 0 0 1 .153.636l-2.339 2.338a.386.386 0 0 1-.543 0l-2.34-2.338a.382.382 0 0 1 .154-.636c.623-.203 1.026-.643 1.026-1.125 0-.68-.774-1.231-1.727-1.231-.936 0-1.727.564-1.727 1.231 0 .296.154.525.284.666a.382.382 0 0 1-.013.53l-2.79 2.775a.383.383 0 0 1-.653-.272zm.768-11.938v.851c.126.423 2.742 1.225 7.29 1.225 4.546 0 7.16-.8 7.292-1.231v-.846c-1.528.813-5.008 1.059-7.292 1.059-2.282 0-5.762-.246-7.29-1.058zM25.19 22.077V12.85c-1.527.814-5.008 1.06-7.292 1.06-2.282 0-5.762-.246-7.29-1.06v9.228l1.898-1.888a1.662 1.662 0 0 1-.26-.888c0-1.103 1.12-1.998 2.495-1.998s2.494.896 2.494 1.998c0 .65-.382 1.24-1.01 1.61l1.674 1.674 1.675-1.674c-.629-.369-1.012-.961-1.012-1.61 0-1.104 1.119-1.999 2.494-1.999 1.376 0 2.495.896 2.495 1.998 0 .31-.088.612-.257.885zM10.607 10.139c.127.414 2.743 1.216 7.291 1.216 4.55 0 7.166-.802 7.293-1.231-.13-.413-2.75-1.216-7.293-1.216-4.542-.001-7.16.8-7.29 1.23z"/><path d="m17.905 21.718-.768-.541.278-.897.939-.014.303.89z" opacity=".93" stroke="#000" stroke-width=".085" stroke-linecap="square" paint-order="fill markers stroke"/></svg>