<svg xmlns="http://www.w3.org/2000/svg" width="136" height="136" viewBox="0 0 35.983 35.983"><path fill="#fee57f" stroke="#000" stroke-width=".5232286100000001" d="M27.888 29.712l-9.896 3.602-9.896-3.602-3.803-27.06H31.69z"/><path d="M23.34 24.65l.045-2.441c-2.531-.258-5.112-1.26-7.205-1.83-.767-.186-.387.042-4.96-.02l.118 4.17h2.216v-1.846h2.511v1.846h2.179v-1.846h2.548v1.994z" fill="none" stroke="#000" stroke-width=".75"/><path opacity=".93" fill="none" stroke="#000" stroke-width=".148" stroke-linecap="square" paint-order="fill markers stroke" d="M16.066 17.862h-1.007v-1.17h1.007z"/><path style="line-height:normal;font-variant-ligatures:normal;font-variant-position:normal;font-variant-caps:normal;font-variant-numeric:normal;font-variant-alternates:normal;font-feature-settings:normal;text-indent:0;text-align:start;text-decoration-line:none;text-decoration-style:solid;text-decoration-color:#000;text-transform:none;text-orientation:mixed;white-space:normal;shape-padding:0;isolation:auto;mix-blend-mode:normal;solid-color:#000;solid-opacity:1" d="M26.264 22.553c.82-.022 1.536-.128 2.085-.346a.226.226 0 00.011-.415c-3.928-1.81-7.685-3.983-10.914-6.485a.226.226 0 00-.357.125c-.12.491-.194.793-.178 1.11.012.242.129.514.251.81-.962.162-1.72.35-2.15.606-.239.142-.413.306-.504.507a.77.77 0 00.008.628c.175.396.593.72 1.168 1.048.575.326 1.316.641 2.159.934 1.685.584 3.775 1.072 5.709 1.314.967.121 1.892.185 2.712.164zm-.007-.46c-.79.022-1.7-.032-2.649-.151-1.899-.238-3.968-.722-5.618-1.294-.825-.286-1.544-.595-2.082-.9-.538-.306-.884-.622-.98-.837-.047-.107-.047-.175-.008-.26.038-.083.135-.193.325-.306.38-.226 1.11-.45 2.233-.617a.226.226 0 00.172-.316c-.198-.438-.277-.667-.288-.893-.008-.151.06-.413.11-.652 3.025 2.305 6.477 4.31 10.092 6.018-.4.089-.77.193-1.307.208z" color="#000" font-weight="400" font-family="sans-serif" overflow="visible" stroke="#000" stroke-width=".25" stroke-linejoin="round"/><path d="M23.236 19.408l-.067-8.79M16.623 20.393l-5.45-.186.085-9.592" fill="none" stroke="#000" stroke-width=".75"/><circle cx="-48.977" cy="266.331" r="6.214" opacity=".93" fill="none" stroke="#000" stroke-width="1.097" stroke-linecap="square" paint-order="fill markers stroke" transform="rotate(180 -8.02 96.48) scale(.68354)"/><g fill="none" stroke="#000"><path d="M17.46 15.07l-.022-8.452" stroke-width=".7498433800000001"/><path d="M10.88 10.992l12.668-.022" stroke-width=".9050069600000001"/><path d="M14.347 8.03l6.272 5.903M20.62 8.007l-6.273 5.903" stroke-width=".7498433800000001"/></g><path d="M16.148 18.986c3.642 2.255 6.246 2.261 9.038 2.678" fill="none" stroke="#000" stroke-width=".156"/><path d="M17.485 18.684c2.706 1.676 4.64 1.68 6.715 1.99" fill="none" stroke="#000" stroke-width=".116"/><path d="M17.9 17.589c1.437 1.26 2.583 1.454 3.782 1.843" fill="none" stroke="#000" stroke-width=".148"/><path opacity=".93" fill="none" stroke="#000" stroke-width=".165" stroke-linecap="square" paint-order="fill markers stroke" d="M14.193 19.92h-2.547v-1.483h2.547z"/><path opacity=".93" fill="none" stroke="#000" stroke-width=".154" stroke-linecap="square" paint-order="fill markers stroke" d="M14.833 18.19h-2.784v-1.476h2.784z"/><path opacity=".93" fill="none" stroke="#000" stroke-width=".144" stroke-linecap="square" paint-order="fill markers stroke" d="M13.588 16.493h-1.899V14.99h1.899z"/><path opacity=".93" fill="none" stroke="#000" stroke-width=".158" stroke-linecap="square" paint-order="fill markers stroke" d="M14.031 14.79h-2.315v-1.489h2.315z"/><path opacity=".93" fill="none" stroke="#000" stroke-width=".142" stroke-linecap="square" paint-order="fill markers stroke" d="M11.731 18.192h-.65v-1.495h.65z"/><path opacity=".93" fill="none" stroke="#000" stroke-width=".14" stroke-linecap="square" paint-order="fill markers stroke" d="M13.224 13.043h-1.802v-1.507h1.802z"/><path opacity=".93" fill="none" stroke="#000" stroke-width=".144" stroke-linecap="square" paint-order="fill markers stroke" d="M15.886 16.491h-2.029v-1.489h2.029z"/><path opacity=".93" fill="none" stroke="#000" stroke-width=".149" stroke-linecap="square" paint-order="fill markers stroke" d="M17.208 16.498h-1.057v-1.47h1.057z"/><path opacity=".93" fill="none" stroke="#000" stroke-width=".137" stroke-linecap="square" paint-order="fill markers stroke" d="M17.199 17.553h-.867v-.882h.867z"/><path opacity=".93" fill="none" stroke="#000" stroke-width=".178" stroke-linecap="square" paint-order="fill markers stroke" d="M21.449 16.434h-2.997v-1.468h2.997z"/><path opacity=".93" fill="none" stroke="#000" stroke-width=".148" stroke-linecap="square" paint-order="fill markers stroke" d="M22.847 18.13h-1.936v-1.502h1.936z"/><path opacity=".93" fill="none" stroke="#000" stroke-width=".153" stroke-linecap="square" paint-order="fill markers stroke" d="M23.037 16.446h-1.329V14.97h1.329z"/><path opacity=".93" fill="none" stroke="#000" stroke-width=".148" stroke-linecap="square" paint-order="fill markers stroke" d="M22.811 14.755H20.79v-1.499h2.021z"/><path d="M21.332 13.02l1.488.019.007-1.409-1.053-.007" fill="none" stroke="#000" stroke-width=".1"/><path d="M15.451 19.934l-.99.014-.014-1.548.432.028M19.617 14.758l.95-.007.02-.868M20.681 17.828l.006-1.16-1.707-.011M23.093 18.974v-.615l-1.522-.015" fill="none" stroke="#000" stroke-width=".148"/></svg>