<svg xmlns="http://www.w3.org/2000/svg" viewBox="0 0 35.983 35.983"><path fill="#fee57f" stroke="#000" stroke-width=".523" d="m27.56 29.935-9.896 3.601-9.896-3.601-3.803-27.06h27.398z"/><path d="m18.168 23.596 5.146-7.448-2.176-3.389" fill="none" stroke="#000" stroke-width=".75"/><path d="m21.672 9.941.052 2.526c-2.478 1.548-5.11 1.91-7.907 0l-.003-.035-.102-2.365m8.012.083c-2.544 1.595-5.213 1.414-7.96.125m.452 2.722-2.108 3.297 5.027 7.26" fill="none" stroke="#000" stroke-width=".75"/><path d="M16.201 25.274a1.555 1.555 0 0 1 1.556-1.555 1.555 1.555 0 0 1 1.555 1.555 1.555 1.555 0 0 1-1.555 1.556 1.555 1.555 0 0 1-1.556-1.556z" fill="none" stroke="#000" stroke-width=".75" stroke-linecap="square"/><path d="M21.538 10.314c-2.622-3.855-5.129-3.608-7.476-.037" fill="none" stroke="#000" stroke-width=".75"/><text style="line-height:3.66724515px;-inkscape-font-specification:'URW Gothic'" x="-213.176" y="-180.934" transform="rotate(-134.737 -54.41 -130.508)" font-weight="400" font-size="8.801" font-family="URW Gothic" letter-spacing="0" word-spacing="0" stroke-width=".147"><tspan x="-213.176" y="-180.934">+</tspan></text></svg>