<svg xmlns="http://www.w3.org/2000/svg" viewBox="0 0 35.983 35.983"><path fill="#fee57f" stroke="#000" stroke-width=".523" d="M4.293 2.652H31.69l-3.803 27.06-9.896 3.602-9.896-3.602z"/><g transform="rotate(180 83.465 46.395) scale(.4727)" stroke="red" stroke-width="1.5" fill="none"><path d="M282.901 129.457c.118-4.347-.398-3.25-3.08-6.231 2.021-.874 3.212-2.98 4.365-4.58 1.154 1.6 2.344 3.706 4.365 4.58-2.682 2.981-3.198 1.884-3.08 6.231" transform="matrix(.88179 0 0 .88935 64.95 36.332)" stroke-width="1.694"/><path transform="matrix(.06853 0 0 .08094 296.79 134.704)" d="M97.159 111.627c-2.764 121.39 19.614 224.192 177.984 219.075 158.37 5.117 180.748-97.685 177.985-219.075-11.066 132.287-51.513 167.404-177.985 175.038-126.471-7.634-166.92-42.75-177.984-175.038z" stroke-width="20.14"/><path transform="matrix(.06853 0 0 .08094 296.79 134.704)" d="m166.796 305.119-54.464 95.975-8.754-6.962-40.59 61.712-7.283-9.989c-17.703 21.022-27.021 32.762-44.724 53.784 14.216 20.56 44.13 49.69 71.96 55.397 13.294-25.846 83.135-195.794 102.034-237.34M380.21 305.12l54.464 95.975 8.754-6.962 40.59 61.712 7.283-9.989c17.702 21.022 27.021 32.762 44.724 53.784-14.216 20.56-44.13 49.69-71.961 55.397-13.293-25.846-83.134-195.794-102.034-237.34" stroke-width="20.14"/><path d="M304.952 172.056c7.368 2.999 14.147 3.188 21 .094m-17.19-8.943c4.274 2.181 9.44 2.241 13.608-.03m-13.616-7.118c2.174-1.938 1.887-1.272 3.363-2.286m7.032-.18c1.998 1.002 2.089.657 3.71 2.374m-18.327 11.264 1.782 1.719m-5.063 2.86c.795 1.4 1.791 2.554 3.125 3.5m21.975-7.918-1.781 1.718m5.254 2.683c-.795 1.401-1.791 2.555-3.125 3.5"/><circle cx="315.645" cy="154.228" r="3.313"/></g></svg>