<svg xmlns="http://www.w3.org/2000/svg" viewBox="0 0 35.983 35.983"><path fill="#fee57f" stroke="#000" stroke-width=".523" d="m31.69 2.652-3.802 27.06-9.896 3.602-9.896-3.602-3.803-27.06z"/><g color="#000" font-weight="400" font-family="sans-serif" fill="red"><path d="M13.891 26.967c1.093.096 2.132-.235 3.097-.838 1.15-.72 2.211-1.843 3.248-3.089.035.277.003.569-.133.913-.21.534-.576 1.122-.846 1.726l-.352.787.764-.398c1.11-.577 1.546-1.488 1.75-2.277.034-.13.045-.223.07-.345-.011.053 0 .078-.014.134l.547.23c.306-.5.498-.72 1.026-1.73l.034-.064.028-1.955c.842-.926 1.69-1.776 2.622-2.235l.236-.117-.085-.25c-.146-.427-.16-.789-.178-1.183.078-.203.152-.307.233-.38.09-.083.253-.18.345-.403l.062-.154-2.003-2.813-.002.936c0 .33-.04.625-.04.934l-1.433-.77c0-.246.004-.48-.041-.667a.868.868 0 0 0-.432-.578l-.175-.087-.15.124c-.929.768-1.49 2.007-2.084 3.09-.582 1.056-1.18 1.918-2.01 2.165-.05-.025-.11-.023-.158-.053-.464-.29-.879-.852-1.196-1.787l-.582.138c.13.949.065 1.65-.123 2.088-.187.439-.454.633-.888.68l-.04.59c.558.136.91.363 1.052.633.142.27.136.653-.198 1.252l-.134.24.229.155c.668.452.99.928 1.086 1.38.096.451-.023.905-.339 1.348-.632.888-2.077 1.66-3.827 1.804l-.075.583a4.5 4.5 0 0 0 1.11.243zm.803-.62c1.075-.366 1.964-.938 2.48-1.66.39-.549.572-1.189.436-1.824-.123-.574-.533-1.112-1.162-1.59.278-.602.352-1.156.124-1.591-.15-.285-.407-.485-.708-.647.256-.18.47-.422.605-.74.118-.276.182-.606.214-.97.238.343.509.613.816.805.622.389 1.363.44 2.135.24l-.15-.582c-.198.051-.364.042-.54.053.654-.488 1.132-1.253 1.567-2.044.222-.404.441-.8.663-1.191l.97.534-1.16.197.499.704-.904-.147.066 1.485-.544.286v1.143l.444.666.931-.117-.028-.395.616-.053.044-.37.26.086.735-.21-.08-.895.809.027.025-1.438c.18.095.293.194.578.283l.328.101.057-.338c.108-.637.082-1.218.081-1.81l.724 1.018c-.029.025-.026.029-.09.086-.135.123-.306.33-.424.674l-.018.054.002.057c.015.35.072.755.183 1.184-1.003.55-1.866 1.408-2.69 2.318l-.075.083-.03 2.038c-.18.341-.25.426-.367.618-.047-.259-.117-.499-.254-.684l-.213-.289-.247.261c-.22.235-.292.535-.357.854-.066.32-.115.67-.207 1.024-.024.094-.086.182-.117.276.171-.543.237-1.118-.094-1.643l-.225-.356-.263.327c-1.135 1.407-2.287 2.635-3.47 3.375-.65.406-1.302.65-1.975.727zm6.143-7.517-.135-.204v-.598l.56-.295-.05-1.127 1.592.259-.778-1.096 1.241-.211-.025 1.368-.876-.03.096 1.078-.08.023-.784-.261-.072.617-.72.062zm3.409-3.188c-.132-.062-.306-.126-.385-.185l.082-.014-.439-.24-.227-.186v.06l-.442-.243 1.453-.184c-.005.325-.006.665-.042.992zm-2.973-1.215c.296-.508.62-.934.971-1.289.028.136.04.35.035.668l-.003.183.468.252z" style="line-height:normal;font-variant-ligatures:normal;font-variant-position:normal;font-variant-caps:normal;font-variant-numeric:normal;font-variant-alternates:normal;font-feature-settings:normal;text-indent:0;text-align:start;text-decoration-line:none;text-decoration-style:solid;text-decoration-color:#000;text-transform:none;text-orientation:mixed;white-space:normal;shape-padding:0;isolation:auto;mix-blend-mode:normal;solid-color:#000;solid-opacity:1" overflow="visible"/><path d="M14.605 24.478c.904-.107 1.953-.544 2.861-1.618l-.458-.387c-.815.963-1.701 1.318-2.473 1.41-.092.01-.16-.012-.247-.009.334-.119.64-.253.863-.44.258-.217.436-.495.501-.808.065-.313.021-.648-.108-.994l-.098-.26-.266.076c-1.702.489-3.051.546-4.073.186.3.035.593.085.872.096.356.013.68 0 .96-.091a.904.904 0 0 0 .381-.227.709.709 0 0 0 .19-.436l.014-.21-.193-.084c-2.366-1.044-3.39-2.178-3.675-3.26-.285-1.08.148-2.2.911-3.268.764-1.068 1.844-2.055 2.748-2.823.452-.384.859-.714 1.166-.98.153-.133.281-.249.382-.355.1-.106.188-.173.228-.362h.001c.526-1.335.337-2.033.265-2.812l6.33-.026c.055 1.966-.742 3.295-1.835 4.267-1.147 1.02-2.594 1.634-3.594 2.104-1.195.563-2.113 1.854-2.347 3.086-.118.616-.058 1.238.292 1.722.35.485.973.784 1.835.81l.017-.6c-.736-.022-1.14-.25-1.365-.56-.224-.312-.286-.753-.19-1.26.193-1.012 1.043-2.197 2.014-2.654.977-.46 2.493-1.093 3.737-2.2 1.244-1.106 2.211-2.722 2.047-5.038l-.02-.28-7.556.031.008.307c.03 1.063.366 1.502-.21 2.928l-.01.025-.006.026c.018-.086 0-.007-.076.072-.075.08-.193.188-.34.316-.293.254-.703.586-1.162.975-.917.78-2.03 1.789-2.847 2.932-.817 1.142-1.352 2.447-1.004 3.77.331 1.256 1.475 2.442 3.689 3.487-.007.002-.005.004-.012.006-.153.05-.428.073-.752.062-.646-.024-1.488-.167-2.192-.244l-.844-.092.598.603c1.196 1.202 3.105 1.313 5.451.7.026.141.074.298.051.406a.805.805 0 0 1-.3.47c-.348.292-1.058.533-2.116.642l-1.046.108.945.46c.407.2 1.154.402 2.058.295z" style="line-height:normal;font-variant-ligatures:normal;font-variant-position:normal;font-variant-caps:normal;font-variant-numeric:normal;font-variant-alternates:normal;font-feature-settings:normal;text-indent:0;text-align:start;text-decoration-line:none;text-decoration-style:solid;text-decoration-color:#000;text-transform:none;text-orientation:mixed;white-space:normal;shape-padding:0;isolation:auto;mix-blend-mode:normal;solid-color:#000;solid-opacity:1" overflow="visible"/><path d="M13.148 18.941c.656.03 1.377-.059 2.162-.295l-.174-.576c-1.456.44-2.6.324-3.498-.096-.897-.42-1.56-1.158-2-2.012l-.533.276c.489.947 1.24 1.794 2.28 2.28a4.63 4.63 0 0 0 1.763.423z" style="line-height:normal;font-variant-ligatures:normal;font-variant-position:normal;font-variant-caps:normal;font-variant-numeric:normal;font-variant-alternates:normal;font-feature-settings:normal;text-indent:0;text-align:start;text-decoration-line:none;text-decoration-style:solid;text-decoration-color:#000;text-transform:none;text-orientation:mixed;white-space:normal;shape-padding:0;isolation:auto;mix-blend-mode:normal;solid-color:#000;solid-opacity:1" overflow="visible"/><path d="m14.206 17.734.021-.6c-.757-.026-1.218-.252-1.521-.585-.303-.334-.458-.805-.497-1.365-.078-1.119.33-2.542.726-3.53l-.557-.224c-.416 1.038-.859 2.504-.769 3.797.046.646.23 1.26.652 1.725.422.465 1.072.752 1.945.782z" style="line-height:normal;font-variant-ligatures:normal;font-variant-position:normal;font-variant-caps:normal;font-variant-numeric:normal;font-variant-alternates:normal;font-feature-settings:normal;text-indent:0;text-align:start;text-decoration-line:none;text-decoration-style:solid;text-decoration-color:#000;text-transform:none;text-orientation:mixed;white-space:normal;shape-padding:0;isolation:auto;mix-blend-mode:normal;solid-color:#000;solid-opacity:1" overflow="visible"/><path d="m12.058 16.688.581-.15c-.265-1.033-.049-1.836.425-2.593.473-.757 1.22-1.45 1.991-2.153.771-.703 1.565-1.418 2.11-2.269.546-.85.83-1.858.547-3.04l-.585.14c.246 1.024.017 1.821-.467 2.576-.484.754-1.237 1.445-2.009 2.15-.771.703-1.561 1.421-2.097 2.278-.536.856-.801 1.872-.496 3.06z" style="line-height:normal;font-variant-ligatures:normal;font-variant-position:normal;font-variant-caps:normal;font-variant-numeric:normal;font-variant-alternates:normal;font-feature-settings:normal;text-indent:0;text-align:start;text-decoration-line:none;text-decoration-style:solid;text-decoration-color:#000;text-transform:none;text-orientation:mixed;white-space:normal;shape-padding:0;isolation:auto;mix-blend-mode:normal;solid-color:#000;solid-opacity:1" overflow="visible"/><path d="m13.892 17.144.444-.404c-.393-.432-.572-.805-.62-1.135-.047-.33.03-.636.217-.964.374-.657 1.218-1.35 2.162-2.094.945-.744 1.986-1.55 2.746-2.53.761-.982 1.236-2.166.989-3.577l-.591.103c.215 1.23-.178 2.21-.872 3.105-.695.896-1.697 1.681-2.644 2.427-.946.746-1.842 1.445-2.312 2.269-.235.412-.358.868-.29 1.347.07.478.323.96.77 1.453zm3.895 2.499a16.518 16.518 0 0 0 1.557-.125l-.072-.596c-1.008.122-2 .184-2.98.042l-.086.594a9.29 9.29 0 0 0 1.58.085zm-.985 1.842c1.09-.223 2.28-.403 2.946-1.235l-.469-.376c-.458.573-1.5.798-2.597 1.023zm4.038.688.677-.627.586-.542.248-1.516-1.164.923z" style="line-height:normal;font-variant-ligatures:normal;font-variant-position:normal;font-variant-caps:normal;font-variant-numeric:normal;font-variant-alternates:normal;font-feature-settings:normal;text-indent:0;text-align:start;text-decoration-line:none;text-decoration-style:solid;text-decoration-color:#000;text-transform:none;text-orientation:mixed;white-space:normal;shape-padding:0;isolation:auto;mix-blend-mode:normal;solid-color:#000;solid-opacity:1" overflow="visible"/></g></svg>