<?xml version="1.0" encoding="UTF-8" standalone="no"?>
<!-- Created with Inkscape (http://www.inkscape.org/) -->

<svg
   xmlns:dc="http://purl.org/dc/elements/1.1/"
   xmlns:cc="http://creativecommons.org/ns#"
   xmlns:rdf="http://www.w3.org/1999/02/22-rdf-syntax-ns#"
   xmlns:svg="http://www.w3.org/2000/svg"
   xmlns="http://www.w3.org/2000/svg"
   xmlns:sodipodi="http://sodipodi.sourceforge.net/DTD/sodipodi-0.dtd"
   xmlns:inkscape="http://www.inkscape.org/namespaces/inkscape"
   width="136"
   height="136"
   viewBox="0 0 35.983333 35.983334"
   version="1.1"
   id="svg8"
   inkscape:version="0.92.4 5da689c313, 2019-01-14"
   sodipodi:docname="WhiteCrownedBishop.svg">
  <defs
     id="defs2" />
  <sodipodi:namedview
     id="base"
     pagecolor="#ffffff"
     bordercolor="#666666"
     borderopacity="1.0"
     inkscape:pageopacity="0.0"
     inkscape:pageshadow="2"
     inkscape:zoom="1.979899"
     inkscape:cx="85.1971"
     inkscape:cy="20.893995"
     inkscape:document-units="mm"
     inkscape:current-layer="layer1"
     showgrid="false"
     units="px"
     inkscape:window-width="679"
     inkscape:window-height="720"
     inkscape:window-x="0"
     inkscape:window-y="46"
     inkscape:window-maximized="0"
     inkscape:lockguides="true"
     inkscape:snap-object-midpoints="true"
     showguides="false"
     inkscape:snap-global="false" />
  <metadata
     id="metadata5">
    <rdf:RDF>
      <cc:Work
         rdf:about="">
        <dc:format>image/svg+xml</dc:format>
        <dc:type
           rdf:resource="http://purl.org/dc/dcmitype/StillImage" />
        <dc:title />
      </cc:Work>
    </rdf:RDF>
  </metadata>
  <g
     inkscape:label="Layer 1"
     inkscape:groupmode="layer"
     id="layer1"
     transform="translate(0,-261.01665)">
    <g
       id="g5115"
       transform="matrix(-0.89018544,0,0,-0.89018544,34.007586,527.32127)">
      <polygon
         transform="matrix(-1.11111,0,0,-1.11111,33.38054,296.17683)"
         style="fill:#fee57f;fill-opacity:1;stroke:#000000;stroke-width:0.5291667;stroke-miterlimit:4;stroke-dasharray:none"
         points="0,0 27.7,0 23.855018,27.358471 13.85,31 3.844982,27.358471 "
         id="shogi_trapezoid" />
      <g
         style="display:inline;fill:none;fill-opacity:1;stroke:#ff0000;stroke-width:2.59939432;stroke-miterlimit:4;stroke-dasharray:none"
         transform="matrix(-0.29858574,0,0,0.29858574,-9.4781184,253.35631)"
         id="g5226-1-6">
        <path
           style="fill:none;stroke:#ff0000;stroke-width:2.59939432;stroke-linecap:butt;stroke-linejoin:round;stroke-miterlimit:4;stroke-dasharray:none;stroke-opacity:1"
           d="m -99.869869,72.613761 c -7.779571,0.585533 -4.396091,1.588995 -10.238971,4.007947 l -7.9946,4.071814 0.92547,6.001393 -2.54119,10.201968 -5.64588,8.242887 -1.90602,1.3852 c 3.13117,1.46188 4.20218,2.34296 4.36004,3.24198 l 0.97882,1.25847 1.76097,1.57173 0.54599,-7.09527 7.27421,-7.660651 c -1.06856,5.909801 0.87088,5.189751 -0.19386,11.069941 l -1.76283,6.17785 3.76693,0.92972 3.25042,-4.84479 0.30535,-4.39859 0.68601,-3.73461 1.61649,-7.992145 2.5368,-0.199153 3.095253,-0.160806 3.411679,0.0675 -0.14509,2.286225 2.936441,-4.894068 -2.65678,4.754237 0.699152,3.076271 c 0,0 0.139831,2.796609 0,3.495769 -0.13983,0.69915 -0.838983,3.77542 -0.838983,3.77542 l -6.012712,5.17373 -3.77542,2.93644 c -2.415,3.80722 -2.26024,8.36292 -2.79661,12.72458 16.205859,-0.0348 48.617502,-0.18161 48.617502,-0.18161 0.490331,-3.49013 -5.099157,-8.74995 -14.357327,-11.43524 3.551391,-1.35396 3.877595,-2.70785 12.114569,-1.83899 2.959254,-0.22763 -10.027643,-11.73057 -14.345497,-11.0985 l 13.17269,-0.84243 c -6.203416,-8.365707 -10.262443,-7.012126 -15.393664,-8.883915 l 12.713186,-0.612677 c -4.414366,-6.10058 -12.253905,-6.973137 -18.686845,-9.601715 3.53372,-1.207193 8.22028,-0.846689 13.367531,-0.328109 -6.280517,-5.071055 -12.928572,-8.350433 -21.658914,-10.563332"
           id="path4658-2-6"
           inkscape:connector-curvature="0"
           sodipodi:nodetypes="ccccccccccccccccccccccccccccccccccccccccc" />
        <path
           style="fill:none;stroke:#ff0000;stroke-width:2.59939432;stroke-linecap:butt;stroke-linejoin:miter;stroke-miterlimit:4;stroke-dasharray:none;stroke-opacity:1"
           d="m -109.93466,84.098408 -0.98404,0.369587 -1.04006,4.328319 1.4062,-0.919026 z"
           id="path4664-3-8"
           inkscape:connector-curvature="0"
           sodipodi:nodetypes="ccccc" />
      </g>
      <path
         sodipodi:nodetypes="ccccscccc"
         inkscape:connector-curvature="0"
         id="path1140-4"
         d="m 25.790189,277.43574 c -0.428932,-1.09102 -2.80936,-2.72066 -3.00755,-4.04241 l 1.034856,-1.48761 -1.875677,0.61445 c -1.116273,-0.57228 -4.755939,-2.05708 -6.175317,-3.22369 -0.263076,-0.21623 -0.0031,-0.63946 10e-4,-0.99577 -0.527481,0.82786 -0.661951,1.21154 -1.081973,2.01309 0.913628,1.0227 3.209746,1.9245 4.34594,2.457 2.151523,1.29136 2.770346,1.58566 3.387772,2.9745"
         style="display:inline;fill:none;fill-opacity:1;stroke:#ff0000;stroke-width:0.776142;stroke-linecap:butt;stroke-linejoin:miter;stroke-miterlimit:4;stroke-dasharray:none;stroke-opacity:1" />
      <path
         sodipodi:nodetypes="cscssc"
         inkscape:connector-curvature="0"
         id="path1144-7"
         d="m 22.103515,277.17702 c -0.765525,-0.53938 -1.476088,-1.84081 -1.781665,-2.8726 -0.281895,-0.9518 -1.56671,-0.57324 -2.681152,-1.13747 0.06697,-0.0287 0.651959,1.18355 0.72695,2.23778 0.04279,0.60179 -0.407588,1.23928 -0.391776,1.34544 0.18496,1.24188 2.42887,1.33893 2.866412,1.7851"
         style="display:inline;fill:none;fill-opacity:1;stroke:#ff0000;stroke-width:0.776142;stroke-linecap:butt;stroke-linejoin:miter;stroke-miterlimit:4;stroke-dasharray:none;stroke-opacity:1" />
      <path
         inkscape:connector-curvature="0"
         id="path1178"
         d="m 26.285471,286.32707 -1.463508,-0.20581 1.532109,-1.1891"
         style="fill:none;fill-opacity:1;stroke:#ff0000;stroke-width:0.51742804px;stroke-linecap:butt;stroke-linejoin:miter;stroke-opacity:1" />
      <path
         sodipodi:nodetypes="cc"
         inkscape:connector-curvature="0"
         id="path1184"
         d="m 18.027786,277.44277 c -4.494561,3.37886 -2.055069,11.42742 -4.074746,14.22927"
         style="fill:none;fill-opacity:1;stroke:#ff0000;stroke-width:0.776142;stroke-linecap:butt;stroke-linejoin:miter;stroke-miterlimit:4;stroke-dasharray:none;stroke-opacity:1" />
    </g>
  </g>
</svg>
