<svg xmlns="http://www.w3.org/2000/svg" viewBox="0 0 35.983 35.983"><path fill="#fee57f" stroke="#000" stroke-width=".523" d="M4.293 2.652H31.69l-3.803 27.06-9.896 3.602-9.896-3.602z"/><g fill="none" stroke="red" stroke-width=".691"><path d="M15.9 21.47c-2.068-.156-1.169-.422-2.722-1.065l-2.125-1.083.246-1.595-.675-2.711-1.5-2.191-.507-.368c.832-.389 1.117-.623 1.159-.862l.26-.335.468-.417.145 1.885 1.933 2.037c-.284-1.571.232-1.38-.051-2.943l-.469-1.642 1.001-.247.864 1.288.082 1.169.182.993.43 2.124.674.053.823.043.906-.018-.038-.608.78 1.3-.706-1.263.186-.818s.037-.743 0-.929a85.708 85.708 0 0 0-.223-1.003l-1.598-1.375-1.004-.78c-.642-1.013-.6-2.224-.743-3.383 4.307.01 12.922.048 12.922.048.13.928-1.355 2.326-3.816 3.04.944.36 1.03.72 3.22.489.787.06-2.665 3.117-3.813 2.95l3.502.223c-1.65 2.224-2.728 1.864-4.092 2.362l3.38.163c-1.174 1.621-3.258 1.853-4.968 2.552.94.32 2.185.225 3.553.087-1.67 1.348-3.436 2.22-5.757 2.808" stroke-linejoin="round"/><path d="m13.225 18.417-.262-.098-.276-1.15.373.244z"/></g><path d="M11.05 19.335c.381.972 2.5 2.422 2.677 3.599l-.921 1.324 1.67-.547c.993.51 4.233 1.831 5.496 2.87.235.192.003.57 0 .886.47-.737.589-1.078.963-1.792-.814-.91-2.858-1.713-3.869-2.187-1.915-1.15-2.466-1.412-3.016-2.648" fill="none" stroke="red" stroke-width=".691"/><path d="M14.331 19.566c.682.48 1.314 1.638 1.586 2.557.251.847 1.395.51 2.387 1.012-.06.026-.58-1.053-.647-1.992-.038-.535.363-1.103.349-1.197-.165-1.106-2.162-1.192-2.552-1.59" fill="none" stroke="red" stroke-width=".691"/><path d="m10.609 11.42 1.302.184-1.363 1.058" fill="none" stroke="red" stroke-width=".46"/><path d="M17.96 19.33c4-3.009 1.829-10.173 3.627-12.668" fill="none" stroke="red" stroke-width=".691"/></svg>