<?xml version="1.0" encoding="utf-8"?>
<!-- Generator: Adobe Illustrator 22.1.0, SVG Export Plug-In . SVG Version: 6.00 Build 0)  -->
<svg version="1.1" id="Layer_1" xmlns="http://www.w3.org/2000/svg" xmlns:xlink="http://www.w3.org/1999/xlink" x="0px" y="0px"
	 viewBox="0 0 81 81" style="enable-background:new 0 0 81 81;" xml:space="preserve">
<style type="text/css">
	.st0{fill:none;}
	.st1{fill:#010101;}
	.st2{fill:#6D6E6E;}
</style>
<rect x="0" y="0" class="st0" width="81" height="81"/>
<polygon class="st1" points="18.9,72 62.1,72 50.3,62.5 30.7,62.5 "/>
<g>
	<path class="st1" d="M41,18.9c1.5,0,2.9-0.5,4-1.3l2.8-5.2c0-0.1,0-0.2,0-0.3c0-3.7-3-6.8-6.8-6.8c-3.7,0-6.8,3-6.8,6.8
		c0,0.1,0,0.2,0,0.3l2.8,5.2C38.2,18.4,39.6,18.9,41,18.9"/>
	<path class="st1" d="M48.4,20.4l-9.7,18.2L37,32.7l8.1-15.2c-1-0.8-2-1.5-3-2.2h-3.1c-10,6.6-19.1,17.5-19.1,32.2l10.9,15.2h2.7h14
		h2.7l10.9-15.2C61.1,36.1,55.6,27,48.4,20.4"/>
	<path class="st2" d="M48.6,27.9l-7.2,13c0,0,5,1.3,7.2-1.9C50.8,35.9,50.2,28.9,48.6,27.9z"/>
	<path class="st2" d="M31.2,55.1c-1.6-13.9,1.4-28.1,7.9-34.8l-0.5-0.7c-7.1,6.3-14,15.6-14,26.6L31.2,55.1z"/>
</g>
<polygon class="st2" points="37.9,69 37.9,63.3 35.4,63.3 28.8,69 "/>
<path class="st2" d="M42.4,7.9c-0.8-0.5-1.8-0.6-2.7-0.3c-1.9,0.5-3,2.5-2.5,4.4c0,0.1,0,0.1,0.1,0.2C40.3,12.4,42.8,9.3,42.4,7.9z"
	/>
</svg>
