<?xml version="1.0" encoding="utf-8"?>
<!-- Generator: Adobe Illustrator 22.1.0, SVG Export Plug-In . SVG Version: 6.00 Build 0)  -->
<svg version="1.1" id="Layer_1" xmlns="http://www.w3.org/2000/svg" xmlns:xlink="http://www.w3.org/1999/xlink" x="0px" y="0px"
	 viewBox="0 0 81 81" style="enable-background:new 0 0 81 81;" xml:space="preserve">
<style type="text/css">
	.st0{fill:none;}
	.st1{fill:#010101;}
	.st2{fill:#6D6E6E;}
</style>
<rect class="st0" width="81" height="81"/>
<path class="st1" d="M58.6,25.5c-6.2,0-9.3,2.6-10.9,4.2l-7.2,12.6l-7.2-12.6c-1.6-1.6-4.7-4.2-10.9-4.2c-9.7,0-15.3,8-15.3,15.8
	c0,8.8,3.8,11.9,8.9,22.3V72h24.5H65v-8.4c5.1-10.5,8.9-13.5,8.9-22.3C73.9,33.5,68.3,25.5,58.6,25.5z M40.5,61.6l-3.6-6.4l3.6-6.4
	l3.6,6.4L40.5,61.6z"/>
<polygon class="st1" points="50.7,21.4 50.7,13.7 42.7,14.6 44.4,7.2 36.6,7.2 38.3,14.6 30.3,13.7 30.3,21.4 38.3,19 35.2,27.9 
	40.5,38.9 45.8,27.9 42.7,19 "/>
<polygon class="st2" points="40.5,19.9 37.6,27.5 40.5,33.9 "/>
<path class="st2" d="M22.8,29.1c-7.2,0-11.7,6.4-11.7,12.9c0,4,2.9,8.2,5.8,12c0-12.4,4.6-17.4,12.5-22.6
	C29.4,31.4,27.4,29.1,22.8,29.1z"/>
<path class="st2" d="M43.5,44l7.4-12.7c0,0,3.6-2.6,8-2.6s4.5,0.5,4.5,0.5L43.5,44z"/>
<polygon class="st2" points="31.8,15.1 35.6,17.4 31.8,19.7 "/>
<polygon class="st2" points="49.2,15.1 42.8,16.3 47.5,17.4 "/>
<polygon class="st2" points="42.6,8.9 40.5,10.8 38.4,8.9 "/>
</svg>
