<?xml version="1.0" encoding="utf-8"?>
<!-- Generator: Adobe Illustrator 22.1.0, SVG Export Plug-In . SVG Version: 6.00 Build 0)  -->
<svg version="1.1" id="Layer_2_1_" xmlns="http://www.w3.org/2000/svg" xmlns:xlink="http://www.w3.org/1999/xlink" x="0px" y="0px"
	 viewBox="0 0 81 81" style="enable-background:new 0 0 81 81;" xml:space="preserve">
<style type="text/css">
	.st0{fill:#FFFFFF;}
	.st1{fill:#CFCECF;}
</style>
<path class="st0" d="M48,45.1c-3.3,1.6-7.2,1.9-11,0.7l-0.4-0.1l-0.3,0.2c-0.1,0.1-12,9.9-15.8,23.7l-0.3,0.9H65L63.2,65v-0.1
	c0-0.1-0.1-14.8-0.1-23.8c0-16.9-7.6-25.6-15-28.6c-3.7-1.4-9.2-2.5-12.4-2.5h-1.2l3.2,6.2L13.3,36.5l1,10.8l5,1.4l5.1-3.9H26
	l-4.3,4.5l1.1,0.4l6.7,1.9l5.5-6.8c3.5,1.5,7.7,1.3,12.5-0.6c2.8-1.2,5.1-3.6,6.5-5.6C53.1,41.4,51,43.7,48,45.1z"/>
<path d="M38,22.1l-7.7,6.2c-0.5,0.5-0.6,1.3-0.2,1.9c0.3,0.4,0.7,0.6,1.1,0.6c0.2,0,0.4,0,0.6-0.1l9.1-3.6L38,22.1z"/>
<path class="st1" d="M38.7,70.7L56.4,71h8.5c0,0-2.1-5.2-2.1-7.2c0-8.2,0-29.9,0-35.2c0,8.4-2.7,18-9.5,24.8
	C40.5,57,38.7,70.7,38.7,70.7z"/>
<path class="st1" d="M34.6,47.3l1.3-1.8l8.8,0.8l4.8-2.2l3.9-3.4l2.4-6.5c-0.8-1.3-2.2-2.1-4-2.8c-2,7.7-8.1,12.3-16.3,10.4
	c-0.4,1.1-0.7,1.9-0.7,1.9l-7,0.3L22,48.8l7,4.5L34.6,47.3z"/>
<path d="M18.2,72.2h49.1l-2.5-7.5c0-1.9,0-15.1,0-23.6c0-6.8-0.9-23.9-16-30.1c-5.8-2.4-14.6-2.6-15-2.5L32,8.6l3.7,7.2l-24.2,20
	l1.3,12.8l14.5,4.2c-3.5,4.5-7.3,10.7-8.9,18L18.2,72.2z M36.7,46.5c1.5,0.5,3.1,0.8,4.8,0.8c2.4,0,4.7-0.5,6.8-1.5
	c4.1-2,6.8-5.6,7.3-10.1l0.2-1.4l-0.6,1.2c0,0.1-3,5.8-7.9,8c-3.9,1.6-8.4,2.4-12.4,0.4l-5.6,6.9l-5.8-1.7L23.1,49l4.7-4.9h-3.7
	l-5,3.8L15,46.7l-0.9-9.9l24.6-20.4l-2.9-5.6c2.9,0,8.3,0.9,12.1,2.4c5.7,2.3,14.5,9.6,14.5,27.9c0,9.1,0.1,23.8,0.1,23.8v0.2
	l1.5,4.7H21.2C24.8,56.6,35.9,47.1,36.7,46.5z"/>
</svg>
