<svg xmlns="http://www.w3.org/2000/svg" xmlns:xlink="http://www.w3.org/1999/xlink" width="30mm" height="30mm" viewBox="0 0 30 30"><defs><linearGradient id="a"><stop offset="0" style="stop-color:#ffdba6;stop-opacity:1"/><stop offset="1" style="stop-color:#f2c478;stop-opacity:1"/></linearGradient><linearGradient xlink:href="#a" id="c" x1="244.85" x2="244.85" y1="222.989" y2="140.991" gradientTransform="translate(5442.518 -212.603)" gradientUnits="userSpaceOnUse"/><clipPath id="b" clipPathUnits="userSpaceOnUse"><path d="M-1169.777 1529.547H1664.87V-1305.1h-2834.646Z"/></clipPath></defs><g clip-path="url(#b)" transform="matrix(.35278 0 0 -.35278 22.671 4.59)"><path d="m0 0-21.223 7.255a1.62 1.62 0 0 1-1.044 0L-43.49 0c-.512-.175-.879-.592-.956-1.088L-54.328-64.8c-.128-.823.569-1.559 1.477-1.559H9.361c.908 0 1.605.736 1.477 1.559L.956-1.088C.879-.592.512-.175 0 0" style="color:#000;fill:url(#c);stroke-miterlimit:10;-inkscape-stroke:none"/><path d="M-52.852-67.209c-1.367 0-2.528 1.177-2.316 2.54l9.88 63.712c.13.83.737 1.493 1.522 1.762L-22.54 8.06a2.46 2.46 0 0 0 1.592 0h.002L.275.805C1.061.536 1.668-.128 1.797-.957l9.88-63.713c.213-1.362-.948-2.539-2.316-2.539h-31.105Zm0 1.701H9.361c.449 0 .681.293.637.576v.002L.115-1.219c-.025.163-.152.333-.39.414l-21.223 7.256V6.45a.78.78 0 0 1-.494 0v.002L-43.215-.805c-.238-.081-.365-.251-.39-.414l-9.883-63.71v-.003c-.044-.283.188-.576.636-.576" style="color:#000;fill:#4d3608;stroke-miterlimit:10;-inkscape-stroke:none"/></g><path d="M2017.316 12.415v-.761h-1.984v.76zm0-1.356v-.695h-1.984v.695zm.133-3.506h-1.29v.827h.496q.231-.265.43-.463zm-2.05-.662v-.959h.76v.96h1.323v.595q.397-.43.694-.86l.629.43q-.166.231-1.125 1.323h1.025v.661h-1.72q-.363.364-.892.728h1.984v3.605h-.76v-.331h-1.985v.397h-.728v-2.68q-.529.299-.727.365-.265-.43-.43-.662 1.323-.529 2.447-1.422h-2.348V8.38h1.852v-.827h-1.422V6.89Zm-2.812.033q.53-.595.728-.893l.562.497q-.298.363-.992 1.124.463 1.39.463 3.175 0 .397-.066 1.125-.033.529-.166.76-.165.265-.364.397-.397.232-1.025.265-.033-.232-.298-.794h.761q.1 0 .232-.066.033-.033.099-.43.099-.728.066-1.852-.43.529-.993.992-.132-.265-.496-.595.53-.43 1.422-1.423-.033-.396-.231-1.058-.066.033-.165.132-.1.067-.232.166l-.397.297q-.264-.463-.463-.628.199-.132.96-.661-.331-.563-.695-1.158l.595-.397q.43.595.695 1.025z" aria-label="猪" style="fill:red;stroke-width:.352777" transform="translate(-2000)"/><path d="M-25.111-.639V.64H0V-.64z" style="color:#000;fill:red;stroke-miterlimit:10;-inkscape-stroke:none" transform="matrix(.35278 0 0 -.35278 19.43 20)"/><path d="M-.451-.451-3.44 2.537l2.988 2.986.902-.902-2.086-2.084L.451.451Z" style="color:#000;fill:red;stroke-miterlimit:10;-inkscape-stroke:none" transform="matrix(.35278 0 0 -.35278 11.466 20.895)"/><path d="m.451-5.523-.902.902 2.086 2.084L-.451-.451.45.45 3.44-2.537Z" style="color:#000;fill:red;stroke-miterlimit:10;-inkscape-stroke:none" transform="matrix(.35278 0 0 -.35278 18.534 19.105)"/><path d="m-.451-.451-17.756 17.756.902.902L.451.451Z" style="color:#000;fill:red;stroke-miterlimit:10;-inkscape-stroke:none" transform="matrix(.35278 0 0 -.35278 18.132 23.132)"/><path d="M-.639 0v4.225h4.227V2.949H.638V0Z" style="color:#000;fill:red;stroke-miterlimit:10;-inkscape-stroke:none" transform="matrix(.35278 0 0 -.35278 11.868 18.133)"/><path d="M-3.588-4.225v1.276h2.95V0H.638v-4.225z" style="color:#000;fill:red;stroke-miterlimit:10;-inkscape-stroke:none" transform="matrix(.35278 0 0 -.35278 18.132 21.866)"/><path d="m-17.305-18.207-.902.902L-.451.451.45-.45z" style="color:#000;fill:red;stroke-miterlimit:10;-inkscape-stroke:none" transform="matrix(.35278 0 0 -.35278 18.132 16.868)"/><path d="M-4.225-.639v4.227h1.276V.638H0V-.638z" style="color:#000;fill:red;stroke-miterlimit:10;-inkscape-stroke:none" transform="matrix(.35278 0 0 -.35278 13.133 23.132)"/><path d="M2.95-3.588v2.95H0V.638h4.225v-4.227Z" style="color:#000;fill:red;stroke-miterlimit:10;-inkscape-stroke:none" transform="matrix(.35278 0 0 -.35278 16.867 16.868)"/></svg>