<svg xmlns="http://www.w3.org/2000/svg" xmlns:xlink="http://www.w3.org/1999/xlink" width="30mm" height="30mm" viewBox="0 0 30 30"><defs><linearGradient id="a"><stop offset="0" style="stop-color:#ffdba6;stop-opacity:1"/><stop offset="1" style="stop-color:#f2c478;stop-opacity:1"/></linearGradient><linearGradient xlink:href="#a" id="c" x1="244.85" x2="244.85" y1="222.989" y2="140.991" gradientTransform="translate(3628.345 -212.603)" gradientUnits="userSpaceOnUse"/><clipPath id="b" clipPathUnits="userSpaceOnUse"><path d="M-887.31 1698.521h2834.647v-2834.646H-887.31Z"/></clipPath></defs><g clip-path="url(#b)" transform="matrix(.35278 0 0 -.35278 23.023 4.2)"><path d="m0 0-22.28 7.578c-.3.102-.625.102-.924 0L-45.484 0a1.42 1.42 0 0 1-.949-1.125l-10.308-66.12a1.422 1.422 0 0 1 1.411-1.636H9.846c.875 0 1.544.776 1.41 1.636L.948-1.125A1.42 1.42 0 0 1 0 0" style="color:#000;fill:url(#c);stroke-miterlimit:10;-inkscape-stroke:none"/><path d="M-55.33-69.73c-1.378 0-2.464 1.254-2.252 2.617L-47.273-.994c.13.834.718 1.527 1.515 1.799l22.28 7.578c.477.163.995.162 1.472 0L.274.805a2.28 2.28 0 0 0 1.515-1.8l10.307-66.118c.212-1.363-.873-2.617-2.25-2.617h-32.588Zm0 1.699H9.846c.372 0 .626.298.57.656L.107-1.255a.56.56 0 0 1-.38.45l-22.282 7.578a.58.58 0 0 1-.375 0L-45.209-.805a.57.57 0 0 1-.383-.45L-55.9-67.378a.555.555 0 0 1 .57-.654" style="color:#000;fill:#4d3608;stroke-miterlimit:10;-inkscape-stroke:none"/></g><path d="m1371.86 12.249.595.397q-.199.264-.364.463-.165.198-.364.43l-.562-.43q.397-.397.694-.86m4.762-1.588v-.264h-3.44v.264zm0-.628v-.265h-3.44v.265zm-2.017-1.257-.1.1.827.066-.165.363h2.183v1.786h-4.167v.265h5.556v.397h-5.556v.297h5.457q-.1 1.092-.232 1.191-.165.199-1.124.364-.066-.33-.265-.695h.595q.066 0 .1-.033.032 0 .032-.066.033-.1.033-.364h-1.29l.331.463-.496.298q-.33-.53-.496-.628l.232-.133h-1.026l.397.563-.529.33q-.165-.297-.43-.661l.364-.232h-1.323q.33.53.397.728l-.595.298q-.1-.298-.199-.463-.066-.166-.165-.364l.397-.199h-.893V9.305h1.918l.099-.396q-.198.165-.265.264-.231-.198-.595-.595l.397-.364q.298.33.595.562zm-.761-1.025v-.397h-1.654v.397zm-2.315.397v-1.19h3.043v1.19h-1.224v.529q0 .198-.132.33-.199.133-.794.2-.033-.2-.199-.563h.397q.066 0 .1-.033.032 0 .032-.066v-.397h-.628l.264.298q-.43.33-.992.661-.231-.364-.364-.463.563-.265.794-.496zm6.184-2.25.596.53-.199.198h.563v.53h-1.753l-.066.264h.496v.86q0 .066.033.1 0 .032.033.032h.463q.165 0 .231-.066.133-.198.166-.529.231.199.661.298-.132.463-.298.628-.165.166-.264.199-.133.033-.364.033h-.463q-.496 0-.728-.166-.165-.099-.165-.297v-.629q-.232.43-.496.695-.165.165-.628.43 0-.066-.133-.298-.165-.165-.364-.33.497-.2.827-.53.232-.231.331-.694h-1.091v-.53h1.223q0-.363.033-.793h.695q0 .562-.033.793h.661q-.066-.066-.397-.33zm-4.994.332v-.397h.728v.397h1.488v.463h-3.67V6.23z" aria-label="жи▓" style="fill:red;stroke-width:.352777" transform="translate(-1360)"/><path d="M-.639 0v25.111H.64V0Z" style="color:#000;fill:red;stroke-miterlimit:10;-inkscape-stroke:none" transform="matrix(.35278 0 0 -.35278 15 24.427)"/><path d="M.451-.451-.45.45l2.988 2.987L5.523.45 4.621-.45 2.537 1.635Z" style="color:#000;fill:red;stroke-miterlimit:10;-inkscape-stroke:none" transform="matrix(.35278 0 0 -.35278 14.105 16.464)"/><path d="M-2.535-3.44-5.523-.45l.902.902 2.086-2.086L-.451.451.45-.45z" style="color:#000;fill:red;stroke-miterlimit:10;-inkscape-stroke:none" transform="matrix(.35278 0 0 -.35278 15.895 23.533)"/><path d="M-25.111-.639V.64H0V-.64z" style="color:#000;fill:red;stroke-miterlimit:10;-inkscape-stroke:none" transform="matrix(.35278 0 0 -.35278 19.43 19.998)"/><path d="M-.451-.451-3.44 2.537l2.988 2.986.902-.902-2.086-2.084L.451.451Z" style="color:#000;fill:red;stroke-miterlimit:10;-inkscape-stroke:none" transform="matrix(.35278 0 0 -.35278 11.466 20.893)"/><path d="m.451-5.523-.902.902 2.086 2.086L-.451-.451.45.45 3.44-2.535Z" style="color:#000;fill:red;stroke-miterlimit:10;-inkscape-stroke:none" transform="matrix(.35278 0 0 -.35278 18.534 19.103)"/><path d="m-.451-.451-8.88 8.877.903.902L.452.451Z" style="color:#000;fill:red;stroke-miterlimit:10;-inkscape-stroke:none" transform="matrix(.35278 0 0 -.35278 18.132 23.13)"/><path d="M-3.588-4.225v1.276h2.95V0H.638v-4.225z" style="color:#000;fill:red;stroke-miterlimit:10;-inkscape-stroke:none" transform="matrix(.35278 0 0 -.35278 18.132 21.865)"/><path d="m-17.305-18.207-.902.902 8.877 8.877.902-.902z" style="color:#000;fill:red;stroke-miterlimit:10;-inkscape-stroke:none" transform="matrix(.35278 0 0 -.35278 18.132 16.866)"/><path d="M-4.225-.639v4.227h1.276V.638H0V-.638z" style="color:#000;fill:red;stroke-miterlimit:10;-inkscape-stroke:none" transform="matrix(.35278 0 0 -.35278 13.134 23.13)"/><path d="m1372.16 16.34-.318.318 3 3a.225.225 0 0 0 .318 0l3-3-.318-.318-2.842 2.84z" style="color:#000;fill:red;stroke-linejoin:round;-inkscape-stroke:none" transform="translate(-1360)"/><path d="m1375.5 19.998 3-3" style="color:#000;fill:#fff;stroke-linejoin:round;-inkscape-stroke:none" transform="translate(-1360)"/><path d="m1378.342 16.84-3 3 .318.318 3-3z" style="color:#000;fill:red;stroke-linejoin:round;-inkscape-stroke:none" transform="translate(-1360)"/><path d="m1374.5 19.998-3-3" style="color:#000;fill:#fff;stroke-linejoin:round;-inkscape-stroke:none" transform="translate(-1360)"/><path d="m1371.66 16.84-.318.318 3 3 .318-.318z" style="color:#000;fill:red;stroke-linejoin:round;-inkscape-stroke:none" transform="translate(-1360)"/></svg>