<svg xmlns="http://www.w3.org/2000/svg" xmlns:xlink="http://www.w3.org/1999/xlink" width="30mm" height="30mm" viewBox="0 0 30 30"><defs><linearGradient id="a"><stop offset="0" style="stop-color:#ffdba6;stop-opacity:1"/><stop offset="1" style="stop-color:#f2c478;stop-opacity:1"/></linearGradient><linearGradient xlink:href="#a" id="c" x1="244.85" x2="244.85" y1="222.989" y2="140.991" gradientTransform="translate(3692 -212.603)" gradientUnits="userSpaceOnUse"/><clipPath id="b" clipPathUnits="userSpaceOnUse"><path d="M-603.845 1273.324h2834.646v-2834.646H-603.845Z"/></clipPath></defs><g clip-path="url(#b)" transform="matrix(.36746 0 0 -.36586 23.357 3.8)"><path d="m0 0-22.28 7.578c-.3.102-.625.102-.924 0L-45.484 0a1.42 1.42 0 0 1-.949-1.125l-10.308-66.12a1.422 1.422 0 0 1 1.411-1.636H9.846a1.42 1.42 0 0 1 1.41 1.636L.948-1.125A1.42 1.42 0 0 1 0 0" style="color:#000;fill:url(#c);stroke-miterlimit:10;-inkscape-stroke:none"/><path d="M-55.33-69.7c-1.36 0-2.428 1.238-2.219 2.58L-47.242-.997A2.25 2.25 0 0 0-45.748.775l22.28 7.577c.47.16.98.161 1.45.002h.002L.264.775A2.25 2.25 0 0 0 1.756-.998V-1l10.308-66.117c.211-1.344-.86-2.582-2.218-2.582h-32.588Zm0 1.638H9.846c.391 0 .66.315.601.69L.14-1.25a.6.6 0 0 1-.403.475l-22.279 7.578a.6.6 0 0 1-.396 0L-45.221-.775a.6.6 0 0 1-.404-.475l-10.307-66.121a.586.586 0 0 1 .602-.692" style="color:#000;fill:#4d3608;stroke-miterlimit:10;-inkscape-stroke:none"/></g><path d="M1451.825 6.437v-.728h6.416v.728h-2.877v2.017h2.513v.761h-2.513v2.282h3.34v.794h-7.408v-.794h3.274V9.215h-2.381v-.76h2.381V6.436Z" aria-label="王" style="stroke-width:.352777" transform="translate(-1440)"/><path d="M-.639 0v25.512H.64V0Z" style="color:#000;fill:#000;stroke-miterlimit:10;-inkscape-stroke:none" transform="matrix(.35278 0 0 -.35278 15 25.5)"/><path d="M-25.512-.639V.64H0V-.64z" style="color:#000;fill:#000;stroke-miterlimit:10;-inkscape-stroke:none" transform="matrix(.35278 0 0 -.35278 19.5 21)"/><path d="m-.451-.451-18.04 18.039.901.902L.451.451Z" style="color:#000;fill:#000;stroke-miterlimit:10;-inkscape-stroke:none" transform="matrix(.35278 0 0 -.35278 18.182 24.182)"/><path d="m-17.59-18.49-.9.902L-.451.452.45-.452z" style="color:#000;fill:#000;stroke-miterlimit:10;-inkscape-stroke:none" transform="matrix(.35278 0 0 -.35278 18.182 17.818)"/></svg>