<svg xmlns="http://www.w3.org/2000/svg" xmlns:xlink="http://www.w3.org/1999/xlink" width="30mm" height="30mm" viewBox="0 0 30 30"><defs><linearGradient id="a"><stop offset="0" style="stop-color:#ffdba6;stop-opacity:1"/><stop offset="1" style="stop-color:#f2c478;stop-opacity:1"/></linearGradient><linearGradient xlink:href="#a" id="c" x1="244.85" x2="244.85" y1="222.989" y2="140.991" gradientTransform="translate(226.771 -212.603)" gradientUnits="userSpaceOnUse"/><clipPath id="b" clipPathUnits="userSpaceOnUse"><path d="M-174.688 1278.104h2834.646v-2834.646H-174.69Z"/></clipPath></defs><g clip-path="url(#b)" transform="matrix(.35278 0 0 -.35278 21.626 5.887)"><path d="m0 0-18.208 6.244c-.37.127-.78.127-1.15 0L-37.566 0c-.538-.184-.92-.612-.998-1.116l-8.551-55.301c-.13-.841.611-1.59 1.573-1.59H7.976c.962 0 1.703.749 1.573 1.59L.998-1.116C.92-.612.538-.184 0 0" style="color:#000;fill:url(#c);stroke-miterlimit:10;-inkscape-stroke:none"/><path d="M-45.543-58.857c-1.403 0-2.628 1.171-2.412 2.57l8.55 55.3c.132.847.76 1.517 1.563 1.792l18.207 6.244c.553.19 1.15.19 1.703 0L.275.805C1.08.53 1.707-.14 1.838-.986l8.55-55.301c.217-1.399-1.008-2.57-2.411-2.57h-26.76Zm0 1.7h53.52c.52 0 .776.327.732.61l-8.55 55.3c-.026.162-.162.35-.434.442l-18.21 6.244a.95.95 0 0 1-.597 0L-37.291-.805c-.273-.093-.407-.28-.432-.441l-8.552-55.3c-.044-.284.211-.61.732-.61" style="color:#000;fill:#4d3608;stroke-miterlimit:10;-inkscape-stroke:none"/></g><path d="M176.653 12.98v-.694h-3.373v.695zm0-1.322v-.53h-3.373v.53zm-1.29-2.48v1.157h-.727V9.243q-.926.761-1.687 1.257h4.2q-.264-.132-.926-.628-.099-.066-.86-.695m0-1.886v.728h3.34v.727h-2.81q.727.629 1.389.96.595.363 1.686.727-.231.232-.297.364l-.199.33q-.496-.23-1.025-.496v3.308h-.794v-.331h-3.373v.364h-.76v-3.241q-.662.33-.993.463-.165-.331-.198-.43-.033-.066-.232-.265 1.488-.529 3.076-1.753h-2.844V8.02h3.307v-.662q-1.19.133-2.315.166-.066-.232-.166-.43-.066-.232-.099-.265 1.885-.1 3.076-.198 1.058-.133 2.084-.331l.463.661q-1.059.199-2.315.331" aria-label="ждЎ" style="fill:#000 icc-color(sRGB-IEC61966-2,.1,0,0,0);stroke-width:.352777" transform="translate(-160)"/><path d="M-.639 0v16.785H.64V0Z" style="color:#000;fill:#000 icc-color(sRGB-IEC61966-2,.1,0,0,0);stroke-miterlimit:10;-inkscape-stroke:none" transform="matrix(.35278 0 0 -.35278 15 22.12)"/><path d="M.451-.451-.45.45 2.25 3.146 4.951.451 4.05-.45 2.25 1.346Z" style="color:#000;fill:#000 icc-color(sRGB-IEC61966-2,.1,0,0,0);stroke-miterlimit:10;-inkscape-stroke:none" transform="matrix(.35278 0 0 -.35278 14.206 16.99)"/></svg>