<svg xmlns="http://www.w3.org/2000/svg" xmlns:xlink="http://www.w3.org/1999/xlink" width="30mm" height="30mm" viewBox="0 0 30 30"><defs><linearGradient id="a"><stop offset="0" style="stop-color:#ffdba6;stop-opacity:1"/><stop offset="1" style="stop-color:#f2c478;stop-opacity:1"/></linearGradient><linearGradient xlink:href="#a" id="c" x1="244.85" x2="244.85" y1="222.989" y2="140.991" gradientTransform="translate(4308.66 -212.603)" gradientUnits="userSpaceOnUse"/><clipPath id="b" clipPathUnits="userSpaceOnUse"><path d="M-884.34 1276.996h2834.646V-1557.65H-884.34Z"/></clipPath></defs><g clip-path="url(#b)" transform="matrix(.35278 0 0 -.35278 21.975 5.496)"><path d="m0 0-19.243 6.562a1.66 1.66 0 0 1-1.059 0L-39.545 0c-.531-.181-.912-.618-.993-1.139l-8.982-57.757c-.134-.863.585-1.636 1.523-1.636H8.452c.938 0 1.657.773 1.523 1.636L.993-1.139C.912-.618.531-.181 0 0" style="color:#000;fill:url(#c);stroke-miterlimit:10;-inkscape-stroke:none"/><path d="M-47.996-61.383c-1.405 0-2.58 1.223-2.363 2.617l8.98 57.758c.132.85.75 1.537 1.559 1.813l19.244 6.562h.002a2.5 2.5 0 0 0 1.603 0h.002L.274.805.275.803c.808-.277 1.427-.962 1.559-1.81l8.98-57.759c.217-1.394-.958-2.617-2.363-2.617h-28.224Zm0 1.701H8.45c.471 0 .735.323.684.655L.152-1.27c-.03.193-.173.38-.425.465L0 0l-.275-.805-19.24 6.56a.8.8 0 0 1-.514 0l-19.242-6.56c-.253-.086-.396-.272-.426-.465l-8.983-57.757c-.051-.332.213-.655.684-.655" style="color:#000;fill:#4d3608;stroke-miterlimit:10;-inkscape-stroke:none"/></g><path d="m1615.298 10.269.595-.463q.297.33.86 1.157l-.596.463q-.397-.562-.86-1.157m-1.555-1.125q.595 1.025.728 1.522.165.661.165 1.488 0 .992-.265 1.356-.264.397-1.124.463-.066-.397-.066-.364-.033-.1-.198-.43h.595q.165 0 .198-.033t.033-.132q.066-.265.066-.629v-.661q-1.091.893-2.183 1.455-.363-.43-.529-.562.827-.397 1.224-.662.86-.595 1.356-1.058-.033-.397-.1-.496-.594.496-1.057.794-.133.066-.397.231-.232.132-.629.33l-.198-.396-.165-.165-.1-.1q.761-.297 1.158-.529.232-.132 1.091-.76-.032-.1-.098-.166-.033-.066-.1-.132-.793.397-1.653.728-.132-.298-.397-.596.86-.297 1.918-.86.794-.529 1.323-.926l.496.53q-.727.529-1.091.76zm-2.05-.992.496-.298q.264.298.496.794l-.53.298q-.132-.265-.264-.463-.132-.199-.198-.331m1.09-.463.563-.298q.165.199.397.695l-.53.33q-.297-.562-.43-.727m2.15 2.348q-.462-.496-.562-.529.596-.86.827-1.356.331-.728.629-1.786l.793.232q-.264.86-.496 1.356h2.381v3.01q-.033 1.322-.099 1.884-.033.463-.165.662-.165.165-.43.297-.297.133-.86.232-.033-.397-.297-.86h.628q.165 0 .265-.1.066-.065.099-.594.099-1.059.033-3.77h-1.919q-.43.826-.826 1.322zm-3.472-2.249q-.198-.397-.364-.628.86-.166 1.39-.298.561-.165 1.421-.529l.397.562q-.794.33-1.389.53-.926.264-1.455.363" aria-label="豹" style="fill:#000 icc-color(sRGB-IEC61966-2,.1,0,0,0);stroke-width:.352777" transform="translate(-1600)"/><path d="M-.639 0v22.678H.64V0Z" style="color:#000;fill:#000 icc-color(sRGB-IEC61966-2,.1,0,0,0);stroke-miterlimit:10;-inkscape-stroke:none" transform="matrix(.35278 0 0 -.35278 15 24)"/><path d="m-.451-.451-16.016 16.035.903.902L.45.451Z" style="color:#000;fill:#000 icc-color(sRGB-IEC61966-2,.1,0,0,0);stroke-miterlimit:10;-inkscape-stroke:none" transform="matrix(.35278 0 0 -.35278 17.825 22.829)"/><path d="m-15.564-16.486-.903.902L-.45.451.45-.45z" style="color:#000;fill:#000 icc-color(sRGB-IEC61966-2,.1,0,0,0);stroke-miterlimit:10;-inkscape-stroke:none" transform="matrix(.35278 0 0 -.35278 17.825 17.172)"/></svg>