<svg xmlns="http://www.w3.org/2000/svg" xmlns:xlink="http://www.w3.org/1999/xlink" width="30mm" height="30mm" viewBox="0 0 30 30"><defs><linearGradient id="a"><stop offset="0" style="stop-color:#ffdba6;stop-opacity:1"/><stop offset="1" style="stop-color:#f2c478;stop-opacity:1"/></linearGradient><linearGradient xlink:href="#a" id="c" x1="244.85" x2="244.85" y1="222.989" y2="140.991" gradientTransform="translate(1133.858 -212.603)" gradientUnits="userSpaceOnUse"/><clipPath id="b" clipPathUnits="userSpaceOnUse"><path d="M-1240.643 1444.507h2834.646v-2834.646h-2834.646Z"/></clipPath></defs><g clip-path="url(#b)" transform="matrix(.35278 0 0 -.35278 22.671 4.59)"><path d="m0 0-21.223 7.255a1.62 1.62 0 0 1-1.044 0L-43.49 0c-.512-.175-.879-.593-.956-1.088L-54.328-64.8c-.128-.823.569-1.559 1.477-1.559H9.361c.907 0 1.605.736 1.477 1.559L.955-1.088C.879-.593.512-.175 0 0" style="color:#000;fill:url(#c);stroke-miterlimit:10;-inkscape-stroke:none"/><path d="M-52.852-67.209c-1.367 0-2.528 1.177-2.316 2.54l9.88 63.712c.13.829.736 1.493 1.522 1.762L-22.54 8.06a2.46 2.46 0 0 0 1.592 0h.002L.275.805c.786-.269 1.392-.933 1.52-1.762v-.002l9.883-63.71c.212-1.364-.95-2.54-2.317-2.54h-31.105Zm0 1.701H9.361c.447 0 .681.293.637.576v.002L.115-1.217c-.024.16-.153.331-.39.412l-21.223 7.256V6.45a.78.78 0 0 1-.494 0v.002L-43.215-.805c-.237-.08-.365-.252-.39-.414l-9.883-63.71v-.003c-.044-.283.188-.576.636-.576" style="color:#000;fill:#4d3608;stroke-miterlimit:10;-inkscape-stroke:none"/></g><path d="M496.357 11.422h-2.58q.166.33.397 1.092h1.786q.066-.166.397-1.092m-1.786-.661v-.496h.827v.496h2.745v.661h-.992l-.397 1.092h1.985v.661h-7.508v-.661h2.183q-.033-.265-.199-.563-.132-.33-.231-.529h-1.125v-.661Zm-1.62-1.224v-.562h-.728v.562Zm1.257-1.091V7.85h-1.985v.596Zm-1.257-1.092V6.76h-.728v.595zm-1.455 2.878V6.13h3.472v.629h-1.323v.595h1.257v1.62h-1.257v.563h1.356v.53h-2.778v.165zm5.49-2.183q.463-.496.793-1.224h-1.323q.133.43.298.827 0 .033.232.397m-1.82-1.919h2.911l.066-.066.595.463q-.066.133-.264.563-.364.793-.992 1.554.694.661 1.323.926-.1.1-.166.198l-.132.133q-.132.198-.198.364-.563-.298-1.356-1.092-.298.298-.662.562-.33.199-.728.397-.264-.43-.496-.661.926-.496 1.423-.893-.53-.695-.728-1.753h-.595z" aria-label="члк" style="fill:#000 icc-color(sRGB-IEC61966-2,.1,0,0,0);stroke-width:.352777" transform="translate(-480)"/><path d="M-.639 0v25.111H.64V0Z" style="color:#000;fill:#000 icc-color(sRGB-IEC61966-2,.1,0,0,0);stroke-miterlimit:10;-inkscape-stroke:none" transform="matrix(.35278 0 0 -.35278 15.001 24.43)"/><path d="M.451-.451-.45.45l2.988 2.987L5.527.45 4.625-.45 2.537 1.635Z" style="color:#000;fill:#000 icc-color(sRGB-IEC61966-2,.1,0,0,0);stroke-miterlimit:10;-inkscape-stroke:none" transform="matrix(.35278 0 0 -.35278 14.106 16.466)"/><path d="M-2.537-3.44-5.527-.45l.902.902 2.088-2.086L-.451.451.45-.45Z" style="color:#000;fill:#000 icc-color(sRGB-IEC61966-2,.1,0,0,0);stroke-miterlimit:10;-inkscape-stroke:none" transform="matrix(.35278 0 0 -.35278 15.897 23.534)"/><path d="M-12.781-.639V.64H0V-.64z" style="color:#000;fill:#000 icc-color(sRGB-IEC61966-2,.1,0,0,0);stroke-miterlimit:10;-inkscape-stroke:none" transform="matrix(.35278 0 0 -.35278 17.256 20)"/></svg>