<svg xmlns="http://www.w3.org/2000/svg" xmlns:xlink="http://www.w3.org/1999/xlink" width="30mm" height="30mm" viewBox="0 0 30 30"><defs><linearGradient id="a"><stop offset="0" style="stop-color:#ffdba6;stop-opacity:1"/><stop offset="1" style="stop-color:#f2c478;stop-opacity:1"/></linearGradient><linearGradient xlink:href="#a" id="c" x1="244.85" x2="244.85" y1="222.989" y2="140.991" gradientTransform="translate(-1247.245 -212.603)" gradientUnits="userSpaceOnUse"/><clipPath id="b" clipPathUnits="userSpaceOnUse"><path d="M-318.38 1275.536h2834.646V-1559.11H-318.38Z"/></clipPath></defs><g clip-path="url(#b)" transform="matrix(-.35278 0 0 .35278 7.683 25.02)"><path d="m0 0-20.266 6.952a1.47 1.47 0 0 1-.952 0L-41.484 0a1.59 1.59 0 0 1-1.038-1.274l-9.381-60.689c-.151-.981.569-1.871 1.515-1.871H8.905c.945 0 1.666.89 1.514 1.871L1.038-1.274A1.59 1.59 0 0 1 0 0" style="color:#000;fill:url(#c);stroke-miterlimit:10;-inkscape-stroke:none"/><path d="M-50.389-64.684c-1.479 0-2.58 1.39-2.355 2.85l9.38 60.69c.139.893.747 1.655 1.604 1.949l20.266 6.95a2.32 2.32 0 0 0 1.504 0L.275.806C1.134.51 1.741-.252 1.88-1.145l9.38-60.687c.227-1.46-.876-2.852-2.355-2.852h-29.646Zm0 1.7H8.904c.411 0 .752.388.674.89L.198-1.404a.74.74 0 0 1-.473.6l-20.266 6.952a.6.6 0 0 1-.4 0L-41.207-.805a.75.75 0 0 1-.475-.6l-9.38-60.689c-.077-.502.261-.89.673-.89" style="color:#000;fill:#4d3608;stroke-miterlimit:10;-inkscape-stroke:none"/></g><path d="M-.639 0v12.756H.64V0Z" style="color:#000;fill:#000 icc-color(sRGB-IEC61966-2,.1,0,0,0);stroke-miterlimit:10;-inkscape-stroke:none" transform="matrix(-.35278 0 0 .35278 15 9.5)"/><path d="m-.451-.451-18.04 18.039.901.902L.451.451Z" style="color:#000;fill:#000 icc-color(sRGB-IEC61966-2,.1,0,0,0);stroke-miterlimit:10;-inkscape-stroke:none" transform="matrix(-.35278 0 0 .35278 11.818 6.318)"/><path d="m-17.59-18.49-.9.902L-.451.452.45-.452z" style="color:#000;fill:#000 icc-color(sRGB-IEC61966-2,.1,0,0,0);stroke-miterlimit:10;-inkscape-stroke:none" transform="matrix(-.35278 0 0 .35278 11.818 12.682)"/><path d="m-378.803-19.24.628-.198q.364.893.397 1.19l-.595.265q-.133-.529-.43-1.257m2.58-.231.628.265-.53 1.124q-.132-.033-.264-.132l-.132-.066q-.066-.033-.166-.033.1-.232.199-.497.132-.264.264-.661m3.77-1.521v-.761h-1.952v.76zm0-1.39v-.76h-1.952v.76zm-2.712 4.995v-6.45h3.44v3.54h-1.224q.066.628.066.66.033.133.099.464l1.157-.86.463.661q-.396.232-1.356.86.133.33.331.562.265.331.397.463.132.066.265.166.132.066.43.264-.199.199-.298.265l-.132.132-.1.1q-.033.066-.099.132-.727-.563-.992-.926-.43-.496-.628-1.092-.298-.86-.331-1.852h-.728v2.712q.298-.1.563-.165l.529-.133.033.728-2.282.662-.199-.761zm-2.183-6.847.694.364-.099.166.595.463q.067.033.232.198l.496.397-.53.628-.859-.793q-.1-.1-.198-.166-.067-.066-.133-.099-.562.893-.926 1.257h2.084v.628h-.827v.695h1.025v.628h-1.025v2.117q.661-.133.992-.232v.695q-.694.198-1.587.397l-1.257.297-.199-.793 1.356-.199v-2.282h-1.157v-.628h1.157v-.695h-.661v-.496l-.397.43q-.264-.463-.43-.695.926-.926 1.654-2.282" aria-label="銀" style="fill:#000 icc-color(sRGB-IEC61966-2,.1,0,0,0);stroke-width:.352777" transform="rotate(180 -180 0)"/></svg>