<svg xmlns="http://www.w3.org/2000/svg" xmlns:xlink="http://www.w3.org/1999/xlink" width="30mm" height="30mm" viewBox="0 0 30 30"><defs><linearGradient id="a"><stop offset="0" style="stop-color:#ffdba6;stop-opacity:1"/><stop offset="1" style="stop-color:#f2c478;stop-opacity:1"/></linearGradient><linearGradient xlink:href="#a" id="c" x1="244.85" x2="244.85" y1="222.989" y2="140.991" gradientTransform="translate(-1020.473 -212.603)" gradientUnits="userSpaceOnUse"/><clipPath id="b" clipPathUnits="userSpaceOnUse"><path d="M-812.484 1363.143h2834.646v-2834.646H-812.484Z"/></clipPath></defs><g clip-path="url(#b)" transform="matrix(-.35278 0 0 .35278 8.374 24.113)"><path d="m0 0-18.208 6.244c-.37.127-.78.127-1.15 0L-37.566 0c-.538-.184-.92-.612-.998-1.116l-8.551-55.301c-.13-.841.611-1.59 1.573-1.59H7.976c.962 0 1.703.749 1.573 1.59L.998-1.116C.92-.612.538-.184 0 0" style="color:#000;fill:url(#c);stroke-miterlimit:10;-inkscape-stroke:none"/><path d="M-45.543-58.857c-1.403 0-2.628 1.171-2.412 2.57l8.55 55.3c.132.847.76 1.517 1.563 1.792l18.207 6.244c.553.19 1.15.19 1.703 0L.275.805C1.08.53 1.707-.14 1.838-.986l8.55-55.301c.217-1.399-1.008-2.57-2.411-2.57h-26.76Zm0 1.7h53.52c.52 0 .776.327.732.61l-8.55 55.3c-.026.162-.162.35-.434.442l-18.21 6.244a.95.95 0 0 1-.597 0L-37.291-.805c-.273-.093-.407-.28-.432-.441l-8.552-55.3c-.044-.284.211-.61.732-.61" style="color:#000;fill:#4d3608;stroke-miterlimit:10;-inkscape-stroke:none"/></g><path d="m-298.075-18.375.298-.033q.1.396.165 1.223l-.364.066q-.066-1.025-.099-1.256m-.562-.033.364.033q-.033.562-.265 1.521l-.397-.165q.265-.86.298-1.39m1.72 1.025-.364.066q-.1-.728-.232-1.091l.298-.034q.132.232.298 1.059m3.274-1.092v-1.52h-.695v1.52zm-1.389 1.092v-3.241h2.05v3.01h-.661v-.265h-.695v.496zm-2.183-2.084v-.76h-.595v.76zm0-1.323v-.595h-.595v.595zm0-1.19v-.662h-.595v.662zm-1.29 3.307v-4.597h2.91v.628h-.991v.662h.793v.595h-.793v.595h.793v.563h-.793v.76h1.124q-.033 1.62-.231 2.613-.067.43-.298.562-.232.199-1.092.298-.033-.265-.231-.728h.628q.232 0 .298-.066t.1-.827l-.265.066q-.232-.463-.497-.959l.298-.165q.265.463.463.86l.1-1.058h-1.621v.198zm5.259 2.646q-.066-.397-.199-.728h.563q.33 0 .397-.066.066-.1.099-.43.099-1.389.132-4.233h-2.381q-.232.297-.794.992-.298-.397-.496-.53.661-.826.794-1.058.43-.76.727-1.554l.761.265q-.33.793-.595 1.223h2.745l-.033 2.415q-.033 2.282-.199 2.877-.066.397-.297.53-.232.198-1.224.297" aria-label="้ง" style="fill:red;stroke-width:.352777" transform="rotate(180 -140 0)"/><path d="M-.639 0v19.535H.64V0Z" style="color:#000;fill:red;stroke-miterlimit:10;-inkscape-stroke:none" transform="matrix(-.35278 0 0 .35278 15 7.554)"/><path d="m.451-.45-.902.9 2.416 2.427L4.38.449l-.904-.898-1.512 1.52Z" style="color:#000;fill:red;stroke-miterlimit:10;-inkscape-stroke:none" transform="matrix(-.35278 0 0 .35278 15.693 13.75)"/><path d="M-1.965-2.877-4.38-.449l.904.898 1.512-1.52L-.45.45.45-.449z" style="color:#000;fill:red;stroke-miterlimit:10;-inkscape-stroke:none" transform="matrix(-.35278 0 0 .35278 14.307 8.25)"/><path d="m-.451-.45-6.875 6.907.904.9L.451.45Z" style="color:#000;fill:red;stroke-miterlimit:10;-inkscape-stroke:none" transform="matrix(-.35278 0 0 .35278 15 11)"/><path d="M-.639 0v3.43h3.416V2.152H.64V0Z" style="color:#000;fill:red;stroke-miterlimit:10;-inkscape-stroke:none" transform="matrix(-.35278 0 0 .35278 17.425 12.452)"/><path d="m-6.422-7.357-.904.9L-.451.449.45-.449z" style="color:#000;fill:red;stroke-miterlimit:10;-inkscape-stroke:none" transform="matrix(-.35278 0 0 .35278 12.575 13.437)"/><path d="M2.139-2.791v2.152H0V.64h3.414v-3.43Z" style="color:#000;fill:red;stroke-miterlimit:10;-inkscape-stroke:none" transform="matrix(-.35278 0 0 .35278 13.555 13.437)"/></svg>