<svg width="24" height="24" viewBox="0 0 24 24" fill="none" xmlns="http://www.w3.org/2000/svg">
<path d="M12 7.97754C15.5045 7.97754 19.8395 10.4553 20.9629 14.4961C19.8399 18.5363 15.5048 21.0146 12 21.0146C8.49491 21.0146 4.1582 18.538 3.03516 14.4961C4.15816 10.4541 8.49488 7.97759 12 7.97754Z" stroke="#333333" stroke-width="2"/>
<path d="M13.7671 12.7287C14.7436 13.705 14.7436 15.2867 13.7671 16.263C12.7906 17.2392 11.2084 17.2392 10.2319 16.263C9.25539 15.2867 9.25539 13.705 10.2319 12.7287C11.2084 11.7525 12.7915 11.7525 13.7671 12.7287Z" stroke="#333333" stroke-width="2"/>
<path d="M12 1.99951V4.99951" stroke="#333333" stroke-width="2"/>
<path d="M5.125 3.87378L7.015 6.12378" stroke="#333333" stroke-width="2"/>
<path d="M18.8751 3.87378L16.9851 6.12378" stroke="#333333" stroke-width="2"/>
</svg>
