<?xml version="1.0" encoding="UTF-8" standalone="no"?>
<svg
   xmlns:dc="http://purl.org/dc/elements/1.1/"
   xmlns:cc="http://creativecommons.org/ns#"
   xmlns:rdf="http://www.w3.org/1999/02/22-rdf-syntax-ns#"
   xmlns:svg="http://www.w3.org/2000/svg"
   xmlns="http://www.w3.org/2000/svg"
   xmlns:sodipodi="http://sodipodi.sourceforge.net/DTD/sodipodi-0.dtd"
   xmlns:inkscape="http://www.inkscape.org/namespaces/inkscape"
   viewBox="0 0 2048 2048"
   id="svg2"
   version="1.1"
   inkscape:version="0.48.2 r9819"
   width="100%"
   height="100%"
   sodipodi:docname="bn.svg">
  <metadata
     id="metadata12">
    <rdf:RDF>
      <cc:Work
         rdf:about="">
        <dc:format>image/svg+xml</dc:format>
        <dc:type
           rdf:resource="http://purl.org/dc/dcmitype/StillImage" />
      </cc:Work>
    </rdf:RDF>
  </metadata>
  <defs
     id="defs10" />
  <sodipodi:namedview
     pagecolor="#ffffff"
     bordercolor="#666666"
     borderopacity="1"
     objecttolerance="10"
     gridtolerance="10"
     guidetolerance="10"
     inkscape:pageopacity="0"
     inkscape:pageshadow="2"
     inkscape:window-width="640"
     inkscape:window-height="678"
     id="namedview8"
     showgrid="false"
     inkscape:zoom="0.11523438"
     inkscape:cx="1024"
     inkscape:cy="1024"
     inkscape:window-x="0"
     inkscape:window-y="0"
     inkscape:window-maximized="0"
     inkscape:current-layer="svg2" />
  <g
     transform="matrix(1 0 0 -1 0 2048)"
     id="g4">
    <path
       fill="#000000"
       d="M502 1180l-52 -1l-26 -64l69 -21l46 55zM1038 1367q34 -1 -16 68t-80 42l-116 -109zM700 1465q6 39 115.5 107.5t220.5 143.5l115 154l96 -217q342 -172 432.5 -417.5t47.5 -603.5q-18 -128 4.5 -236t57.5 -190l-1242 -1q-9 178 39 301.5t183 237.5q50 11 82.5 39.5 t53.5 58.5l62.5 1t138 29t139 97t66.5 207q0 17 -8.5 34t-11.5 37q-62 -228 -161 -288.5t-191 -58.5q-236 42 -292 -60l-56 -102l-217 121l115 82l-51 50l-122 -86l-12 297zM1681 273q-102 130 -85 308.5t27 362.5t-50 351.5t-316 275.5q220 -164 252.5 -342t16.5 -350.5 t-12 -329t167 -276.5z"
       id="path6" />
  </g>
  <path
     style="fill:#ececec;fill-opacity:1;stroke:#000000;stroke-width:0;stroke-linecap:round;stroke-linejoin:miter;stroke-miterlimit:3.79999995;stroke-opacity:1;stroke-dasharray:none;stroke-dashoffset:0"
     d="m 1601.3052,1693.0403 c -81.081,-89.747 -91.5841,-156.5414 -74.2276,-472.0505 20.3789,-370.45059 -8.7512,-495.11834 -150.5575,-644.33895 -28.3483,-29.83051 -47.8136,-54.23729 -43.2562,-54.23729 17.0173,0 100.1093,58.43477 144.6504,101.72598 57.0521,55.45106 86.1396,107.89196 109.6386,197.66385 34.9938,133.6852 37.5437,201.94031 17.3275,463.81811 -19.9909,258.9589 -17.5419,312.6196 18.0578,395.6705 9.6985,22.6255 16.1305,42.6404 14.2935,44.4774 -1.8371,1.8371 -18.004,-12.891 -35.9265,-32.7291 l 0,0 z"
     id="path2989"
     inkscape:connector-curvature="0" />
  <path
     style="fill:#ececec;fill-opacity:1;stroke:#000000;stroke-width:0;stroke-linecap:round;stroke-linejoin:miter;stroke-miterlimit:3.79999995;stroke-opacity:1;stroke-dasharray:none;stroke-dashoffset:0"
     d="m 896.70344,621.33017 c 55.68259,-53.26842 60.42184,-55.96132 78.1017,-44.37838 26.06806,17.07847 76.40326,84.06615 70.43026,93.73076 -2.6971,4.36392 -50.55804,7.80453 -106.35772,7.6458 l -101.45395,-0.2886 59.27971,-56.70958 z"
     id="path2991"
     inkscape:connector-curvature="0" />
  <path
     style="fill:#ececec;fill-opacity:1;stroke:#000000;stroke-width:0;stroke-linecap:round;stroke-linejoin:miter;stroke-miterlimit:3.79999995;stroke-opacity:1;stroke-dasharray:none;stroke-dashoffset:0"
     d="m 464.27119,941.44594 c -27.44127,-6.6005 -31.26949,-14.68402 -20.9599,-44.25815 7.68249,-22.038 14.48333,-27.65559 33.48079,-27.65559 13.112,0 30.36269,7.20749 38.33486,16.01664 13.59229,15.01931 13.36664,17.45094 -3.62386,39.05085 -9.96529,12.66881 -20.76409,22.58121 -23.99733,22.02755 -3.23325,-0.55366 -13.6888,-2.88525 -23.23456,-5.1813 z"
     id="path2993"
     inkscape:connector-curvature="0" />
</svg>
