<svg xmlns="http://www.w3.org/2000/svg" xmlns:xlink="http://www.w3.org/1999/xlink" id="bishop" version="1.1" viewBox="0 0 933 933"><style id="style-base">.base{fill-opacity:1;fill-rule:evenodd;stroke-miterlimit:4;stroke-dasharray:none;stroke-linecap:round;stroke-linejoin:round;stroke-opacity:1}.stroke-medium{stroke-width:20}.stroke-color{stroke:#000}</style><defs id="defs1927"><linearGradient xlink:href="#fillGradient" id="main-gradient" x1="683" x2="739.5" y1="74" y2="69" gradientTransform="matrix(6.26023 0 0 7.12396 -3967 -262)" gradientUnits="userSpaceOnUse"/><linearGradient id="fillGradient"><stop id="stop0" offset="0" stop-color="#fff" stop-opacity="1"/><stop id="stop1" offset="1" stop-color="#bfd3d7" stop-opacity="1"/></linearGradient></defs><path id="boundary" fill="none" stroke-width="35" d="M468 50c-34 0-62 23-62 52 0 8 2 16 6 23-71 20-122 79-122 164 3 78 42 150 105 194-63 25-3 53-3 118-46 83-62 91-140 149-6 4-52 9-57 14-32 42-15 110 46 114 42 3 417 4 460-1 67-7 78-78 47-116-5-6-52-12-59-16-61-33-139-82-160-144 0-65 71-93 8-118 65-45 102-110 109-194 4-46-21-92-60-125l-65 146c-6 15-23 21-38 15-15-7-22-24-15-39l67-153a197 197 0 0 0-13-5c5-8 8-17 8-26 0-29-28-52-62-52z" class="base stroke-color"/><path id="main" fill="url(#main-gradient)" d="M468 50c-34 0-62 23-62 52 0 8 2 16 6 23-71 20-122 79-122 164 3 78 42 150 105 194-63 25-3 53-3 118-46 83-62 91-140 149-6 4-52 9-57 14-32 42-15 110 46 114 42 3 417 4 460-1 67-7 78-78 47-116-5-6-52-12-59-16-61-33-139-82-160-144 0-65 71-93 8-118 65-45 102-110 109-194 4-46-21-92-60-125l-65 146c-6 15-23 21-38 15-15-7-22-24-15-39l67-153a197 197 0 0 0-13-5c5-8 8-17 8-26 0-29-28-52-62-52z" class="base stroke-color stroke-medium"/><path id="deco-lines" fill="none" d="M413 510h105zm-20 200h145zm-100 80h355z" class="base stroke-color stroke-medium" opacity=".5"/><path id="deco-top" fill="none" d="M350 410c40 48 237 35 287-129" class="base stroke-color stroke-medium" opacity=".5"/><path id="deco-side" fill="none" d="M685 867c67-7 77-49 46-88-5-6-52-11-58-15-62-34-139-92-160-153 0-66 70-113 7-137 65-45 102-110 110-195 4-46-5-52-44-85" class="base stroke-color stroke-medium" opacity=".5"/></svg>