<svg xmlns="http://www.w3.org/2000/svg" xmlns:xlink="http://www.w3.org/1999/xlink" id="knight" width="700pt" height="700pt" version="1.1" viewBox="0 0 933.333 933.333"><style id="style-base">.base{fill-opacity:1;fill-rule:evenodd;stroke-miterlimit:4;stroke-dasharray:none;stroke-linecap:round;stroke-linejoin:round;stroke-opacity:1}.stroke-medium{stroke-width:20}.stroke-color{stroke:#000}</style><defs id="defs2202"><linearGradient xlink:href="#fillGradient" id="main-gradient" x1="824.633" x2="992.659" y1="119.493" y2="168.487" gradientTransform="matrix(4.2241 0 0 4.2241 -3372.204 -23.942)" gradientUnits="userSpaceOnUse"/><linearGradient id="fillGradient"><stop id="stop0" offset="0" style="stop-color:white;stop-opacity:1"/><stop id="stop1" offset="1" style="stop-color:#bfd3d7;stop-opacity:1"/></linearGradient></defs><path id="boundary" d="m393.58 44.34-23.233 82.37-59.137-67.585s-2.105 48.124-4.225 88.442c-90.696 91.6-38.153 111.5-172.09 316.392-8.7 13.31-25.05 24.452-28.554 42.223-15.762 79.926 87.587 59.69 105.934 68.823 70.737-57.051 99.85-57.677 136.951-98.391 42.157 15.611 107.453-2.564 146.788-44.353-25.568 77.196-135.797 132.005-168.61 266.32 38.395 37.787.06 74.156-47.814 71.588-51.4 11.949-33.702 108.794 19.503 108.532l451.621-2.218c63.086-.31 71.986-92.442 30.189-108.32-39.66-.11-58.295-41.54-25.599-69.112 3.683-74.017 2.951-143.485-12.736-213.73-1.613-7.22 2.333-22.449 10.68-23.976-6.313-23.571-30.425-45.004-40.723-69.071-4.95-11.57-17.935-17.078 19.707-18.62-11.388-21.318-60.874-57.608-76.514-77.449-5.369-6.81 25.277-13.117 19.197-19.572-34.539-36.675-84.712-49.689-108.849-67.9-8.233-6.212 23.038-14.447 14.078-20.354-32.998-21.754-101.74-48.35-145.512-65.365z" class="base stroke-color" style="fill:none;stroke-width:35"/><path id="main" d="m393.58 44.34-23.233 82.37-59.137-67.585s-2.105 48.124-4.225 88.442c-90.696 91.6-38.153 111.5-172.09 316.392-8.7 13.31-25.05 24.452-28.554 42.223-15.762 79.926 87.587 59.69 105.934 68.823 70.737-57.051 99.85-57.677 136.951-98.391 42.157 15.611 107.453-2.564 146.788-44.353-25.568 77.196-135.797 132.005-168.61 266.32 38.395 37.787.06 74.156-47.814 71.588-51.4 11.949-33.702 108.794 19.503 108.532l451.621-2.218c63.086-.31 71.986-92.442 30.189-108.32-39.66-.11-58.295-41.54-25.599-69.112 3.683-74.017 2.951-143.485-12.736-213.73-1.613-7.22 2.333-22.449 10.68-23.976-6.313-23.571-30.425-45.004-40.723-69.071-4.95-11.57-17.935-17.078 19.707-18.62-11.388-21.318-60.874-57.608-76.514-77.449-5.369-6.81 25.277-13.117 19.197-19.572-34.539-36.675-84.712-49.689-108.849-67.9-8.233-6.212 23.038-14.447 14.078-20.354-32.998-21.754-101.74-48.35-145.512-65.365z" class="base stroke-color stroke-medium" style="fill:url(#main-gradient)"/><path id="eyebrow" d="M336.436 281.844c-28.53 1.976-50.378 16.026-65.054 40.727" class="base stroke-color stroke-medium" style="fill:none"/><path id="eye" d="M309.667 316.499c12.347 7.453 24.905 4.667 22.602-12.8" class="base stroke-color stroke-medium" style="fill:none"/><path id="nose" d="M155.03 500.642c-13.402-4.63-23.098 16.964-14.547 17.844" class="base stroke-color stroke-medium" style="fill:none"/><path id="cheek" d="M508.324 404.81c9.339-12.657 8.386-18.86 10.64-26.322" class="base stroke-color stroke-medium" style="fill:none"/><path id="deco-lines" d="m643.745 698.601-274.127.037zm64.009 64.018-347.28.026z" class="base stroke-color stroke-medium" style="opacity:.5;fill:none"/><path id="deco-side" d="M723.28 876.483c63.086-.31 77.797-76.706 36-92.584-39.66-.109-58.295-59.83-25.599-87.401 3.683-74.017 2.95-143.486-12.736-213.73-1.613-7.22 2.332-22.45 10.68-23.976-6.313-23.572-30.425-35.86-40.723-59.927-4.95-11.569-17.935-17.077 19.707-18.62-11.389-21.318-60.874-57.607-76.514-77.448-5.37-6.81 25.276-13.117 19.196-19.573-34.538-36.675-84.71-49.689-108.848-67.9-8.233-6.211 23.037-14.447 14.077-20.354-32.998-21.754-80.116-54.94-123.888-71.956" class="base stroke-color stroke-medium" style="opacity:.5;fill:none"/></svg>