<svg xmlns="http://www.w3.org/2000/svg" xmlns:xlink="http://www.w3.org/1999/xlink" id="pawn" version="1.1" viewBox="0 0 933 933"><style id="style-base">.base{fill-opacity:1;fill-rule:evenodd;stroke-miterlimit:4;stroke-dasharray:none;stroke-linecap:round;stroke-linejoin:round;stroke-opacity:1}.stroke-medium{stroke-width:20}.stroke-color{stroke:#000}</style><defs id="defs2718"><linearGradient xlink:href="#fillGradient" id="main-gradient" x1="462.1" x2="1135.2" y1="776.1" y2="839.4" gradientTransform="matrix(.64593 0 0 .64727 -27 91)" gradientUnits="userSpaceOnUse"/><linearGradient id="fillGradient"><stop id="stop0" offset="0" stop-color="#fff" stop-opacity="1"/><stop id="stop1" offset="1" stop-color="#bfd3d7" stop-opacity="1"/></linearGradient></defs><path id="boundary" fill="none" stroke-width="35" d="M464 200c-72 1-130 58-135 124-2 33 46 89 74 106-138 31-3 71-3 128 0 40-53 66-24 91-16 64-63 88-119 114-28 35-13 95 39 98 37 3 307 3 345-1 59-6 68-67 41-101-57-17-119-42-131-108 30-26-32-53-32-93 0-57 150-90 7-128 27-17 72-73 73-106 1-65-66-125-135-124Z" class="base stroke-color"/><path id="main" fill="url(#main-gradient)" d="M464 200c-72 1-130 58-135 124-2 33 46 89 74 106-138 31-3 71-3 128 0 40-53 66-24 91-16 64-63 88-119 114-28 35-13 95 39 98 37 3 307 3 345-1 59-6 68-67 41-101-57-17-119-42-131-108 30-26-32-53-32-93 0-57 150-90 7-128 27-17 72-73 73-106 1-65-66-125-135-124Z" class="base stroke-color stroke-medium"/><path id="deco-side" fill="none" d="M618 864c58-7 67-58 40-92-57-18-118-52-131-118 30-25-31-52-31-93 0-57 150-90 6-127 28-18 72-74 73-107 2-65-58-120-127-119" class="base stroke-color stroke-medium" opacity=".5"/><path id="deco-lines" fill="none" d="M417 466h94zm-9 162h112zm-99 153h320z" class="base stroke-color stroke-medium" opacity=".5"/></svg>