<svg xmlns="http://www.w3.org/2000/svg" xmlns:xlink="http://www.w3.org/1999/xlink" id="queen" width="700pt" height="700pt" version="1.1" viewBox="0 0 933.333 933.333"><style id="style-base">.base{fill-opacity:1;fill-rule:evenodd;stroke-miterlimit:4;stroke-dasharray:none;stroke-linecap:round;stroke-linejoin:round;stroke-opacity:1}.stroke-medium{stroke-width:20}.stroke-color{stroke:#000}</style><defs id="defs1194"><linearGradient xlink:href="#fillGradient" id="main-gradient" x1="660.518" x2="757.722" y1="90.377" y2="103.719" gradientTransform="matrix(6.24848 0 0 7.12396 -3974.844 -259.448)" gradientUnits="userSpaceOnUse"/><linearGradient id="fillGradient"><stop id="stop0" offset="0" style="stop-color:white;stop-opacity:1"/><stop id="stop1" offset="1" style="stop-color:#bfd3d7;stop-opacity:1"/></linearGradient></defs><path id="boundary" d="M592.728 82.443c-29.09 0-52.693 21.422-52.693 47.834 0 17.116 9.995 32.085 24.89 40.542-42.475 104.89-75.826 239.617-107.61 240.034-44.694.586-70.138-136.44-99.75-235.805 15.85-8.253 26.493-23.65 26.493-41.417 0-26.412-23.604-47.98-52.693-47.98-29.09 0-52.693 21.568-52.693 47.98 0 23.2 18.212 42.448 42.358 46.813 10.126 108.968 28.24 236.241-10.173 258.761-38.38 22.502-84.2-107.74-149.746-212.406 8.203-8.437 13.246-19.517 13.246-31.646 0-26.412-23.603-47.834-52.693-47.834-29.09 0-51.493 21.449-52.693 47.834-1.874 41.234 43.863 47.798 52.985 47.833 49.94 127.223 52.395 173.68 80.492 292.121 9.188 38.727 45.293 38.65 62.675 81.33 7.582 18.618 11.222 92.334-28.259 116.845-5.982 3.714-64.577 18.568-68.862 24.062-32.077 41.13-14.915 109.805 45.27 113.751 42.274 2.772 449.37 3.516 493.037-1.312 67.002-7.409 77.352-77.465 46.434-116.23-4.736-5.938-55.621-13.666-70.463-24.646-27.106-20.053-40.417-87.51-34.064-112.908 9.648-38.571 46.438-35.27 55.33-67.753 38.28-139.832 36.474-179.45 97.097-305.494 1.444.107 2.891.291 4.367.291 29.09 0 52.693-21.421 52.692-47.833 0-26.413-23.603-47.834-52.692-47.834-29.09 0-52.693 21.421-52.693 47.834 0 12.344 5.218 23.593 13.682 32.083-76.159 94.624-128.154 229.278-164.791 208.503-44.165-25.044-10.251-143.698 5.203-259.435 22.466-5.473 39.01-23.966 39.01-46.084 0-26.412-23.604-47.834-52.693-47.834z" class="base stroke-color" style="fill:none;stroke-width:35"/><path id="main" d="M592.728 82.443c-29.09 0-52.693 21.422-52.693 47.834 0 17.116 9.995 32.085 24.89 40.542-42.475 104.89-75.826 239.617-107.61 240.034-44.694.586-70.138-136.44-99.75-235.805 15.85-8.253 26.493-23.65 26.493-41.417 0-26.412-23.604-47.98-52.693-47.98-29.09 0-52.693 21.568-52.693 47.98 0 23.2 18.212 42.448 42.358 46.813 10.126 108.968 28.24 236.241-10.173 258.761-38.38 22.502-84.2-107.74-149.746-212.406 8.203-8.437 13.246-19.517 13.246-31.646 0-26.412-23.603-47.834-52.693-47.834-29.09 0-51.493 21.449-52.693 47.834-1.874 41.234 43.863 47.798 52.985 47.833 49.94 127.223 52.395 173.68 80.492 292.121 9.188 38.727 45.293 38.65 62.675 81.33 7.582 18.618 11.222 92.334-28.259 116.845-5.982 3.714-64.577 18.568-68.862 24.062-32.077 41.13-14.915 109.805 45.27 113.751 42.274 2.772 449.37 3.516 493.037-1.312 67.002-7.409 77.352-77.465 46.434-116.23-4.736-5.938-55.621-13.666-70.463-24.646-27.106-20.053-40.417-87.51-34.064-112.908 9.648-38.571 46.438-35.27 55.33-67.753 38.28-139.832 36.474-179.45 97.097-305.494 1.444.107 2.891.291 4.367.291 29.09 0 52.693-21.421 52.692-47.833 0-26.413-23.603-47.834-52.692-47.834-29.09 0-52.693 21.421-52.693 47.834 0 12.344 5.218 23.593 13.682 32.083-76.159 94.624-128.154 229.278-164.791 208.503-44.165-25.044-10.251-143.698 5.203-259.435 22.466-5.473 39.01-23.966 39.01-46.084 0-26.412-23.604-47.834-52.693-47.834z" class="base stroke-color stroke-medium" style="fill:url(#main-gradient)"/><path id="deco-lines" d="M283.857 578.365h316.878zM296.472 717.5H538.81zm-55.9 74.666H669.24z" class="base stroke-color stroke-medium" style="opacity:.5;fill:none"/><path id="deco-side" d="M590.403 439.928c-53.067-46.89-15.382-145.834-2.82-264.168 22.467-5.472 39.01-23.966 39.01-46.084 0-26.412-23.603-38.5-52.692-38.5m111.58 780.006c67.003-7.408 77.353-68.131 46.435-106.897-4.736-5.937-55.621-13.666-70.463-24.646-27.106-20.052-40.417-106.176-34.064-131.574 9.648-38.571 43.603-35.51 53.33-67.753 42.402-140.555 38.585-170.069 99.207-296.113 1.445.107 2.892.292 4.367.292 29.09 0 54.693-21.422 54.693-47.834 0-26.412-23.603-38.5-52.693-38.5" class="base stroke-color stroke-medium" style="opacity:.5;fill:none"/></svg>