<svg xmlns="http://www.w3.org/2000/svg" xmlns:xlink="http://www.w3.org/1999/xlink" id="rook" version="1.1" viewBox="0 0 933 933"><style id="style-base">.base{fill-opacity:1;fill-rule:evenodd;stroke-miterlimit:4;stroke-dasharray:none;stroke-linecap:round;stroke-linejoin:round;stroke-opacity:1}.stroke-medium{stroke-width:20}.stroke-color{stroke:#000}</style><defs id="defs1553"><linearGradient xlink:href="#fillGradient" id="main-gradient" x1="660.5" x2="757.7" y1="90.4" y2="103.7" gradientTransform="matrix(6.24848 0 0 7.11058 -3961 -265)" gradientUnits="userSpaceOnUse"/><linearGradient id="fillGradient"><stop id="stop0" offset="0" stop-color="#fff" stop-opacity="1"/><stop id="stop1" offset="1" stop-color="#bfd3d7" stop-opacity="1"/></linearGradient></defs><path id="boundary" fill="none" stroke-width="35" d="M775 112H649v81l-114 9v-80l-131 1v81l-109-11v-81l-117 3c-12 98 48 121 7 191l101 53c5 107 28 247 19 315-35 27 32 53-55 71-10 2-58 9-62 14-32 41-15 110 45 114 43 3 432 3 476-2 67-7 77-77 46-116-4-6-42-12-59-15-78-13-19-43-54-62-11-74 9-210 20-320l104-51c-32-77 20-88 9-195z" class="base stroke-color"/><path id="main" fill="url(#main-gradient)" d="M775 112H649v81l-114 9v-80l-131 1v81l-109-11v-81l-117 3c-12 98 48 121 7 191l101 53c5 107 28 247 19 315-35 27 32 53-55 71-10 2-58 9-62 14-32 41-15 110 45 114 43 3 432 3 476-2 67-7 77-77 46-116-4-6-42-12-59-15-78-13-19-43-54-62-11-74 9-210 20-320l104-51c-32-77 20-88 9-195z" class="base stroke-color stroke-medium"/><path id="deco-lines" fill="none" d="m239 277 389 2zm100 81h215zm0 331h243Zm-80 86h429Z" class="base stroke-color stroke-medium" opacity=".5"/><path id="deco-side" fill="none" d="M670 871c67-7 100-61 69-99-5-6-43-16-60-19-78-13-21-56-56-75-11-74 11-223 23-333l99-51c-28-59 21-100 9-182" class="base stroke-color stroke-medium" opacity=".5"/></svg>