<svg xmlns="http://www.w3.org/2000/svg" width="135" height="135" viewBox="0 0 3810 3810" shape-rendering="geometricPrecision" image-rendering="optimizeQuality" fill-rule="evenodd" clip-rule="evenodd"><g fill="#fff"><path d="m1870 482c0 0 621 269 458 883-163 614-570 260-570 260l113-1142z"/><path d="m798 3238h2217v204h-2217z"/><path d="m967 3385h1885v153h-1885z"/><path d="m794 3505h2217v204h-2217z"/><path d="m1580 1553h598l501 1704h-1555z"/><path d="m1286 1511h1200v152h-1200z"/><path d="m1885 483c0 0-623 269-459 883 164 614 572 260 572 260l-113-1142z"/><ellipse cx="1880" cy="448" rx="174" ry="143"/></g><g fill="#d1d1d1"><path d="m1970 325c0 0 38 51 38 113 0 61-14 118-14 118 0 0 162-115-24-231"/><path d="m967 3442h1885v63h-1885z"/><path d="m1994 556c0 0 221 144 300 333 79 189 66 259 50 397-16 138-68 224-68 224h209v152h-321l-17-152c0 0-2-42-12-77-10-36 93-85 104-240 10-155 1-253-53-368-53-116-194-269-194-269z"/><path d="m1541 1663h669l465 1575h341v204h-164v63h160v204h-481v-204-63l-84-204-312-1429z"/></g></svg>