<svg xmlns="http://www.w3.org/2000/svg" width="135" height="135" viewBox="0 0 3810 3810" shape-rendering="geometricPrecision" image-rendering="optimizeQuality" fill-rule="evenodd" clip-rule="evenodd"><path fill="#fefefe" d="m1342 1632l1098 9 316 1653-1688-24z"/><g fill="#fff"><path d="m798 3241h2217v204h-2217z"/><path d="m967 3387h1885v153h-1885z"/><path d="m794 3507h2217v204h-2217z"/></g><g fill="#d1d1d1"><path d="m1401 1751h1061l288 1489h266v204l-161-3v63l157 3v204h-316c0 0-26-149-71-267-45-117-85-80-135-448-49-368-150-1101-150-1101l-939-145z"/><path d="m970 3442h1884v63h-1884z"/></g><g fill="#fff"><path d="m1088 1531h1638v220h-1638z"/><path d="m1278 1611c0 0-241-328-199-572 50-285 382-408 875-435 148-8 98 1007 98 1007h-774"/><path d="m2515 1611c0 0 241-328 199-572-50-285-382-408-875-435-148-8-98 1007-98 1007h774"/><path d="m1560 655c0 0 253-63 226-169-27-106 114-19 114-19l10 146-350 43z"/><path d="m2172 647c0 0-154-75-159-161-5-86-114-19-114-19l-10 147 282 34z"/><ellipse cx="1755" cy="279" rx="91" ry="89"/><ellipse cx="1784" cy="417" rx="64" ry="62"/><ellipse cx="2039" cy="279" rx="91" ry="89"/><ellipse cx="2010" cy="417" rx="64" ry="62"/><ellipse cx="1900" cy="200" rx="97" ry="101"/><path d="m1836 526l-81-247 145-79 139 79-75 251z"/></g><g fill="#d1d1d1"><path d="m2014 486c0 0-49 94 18 144 66 50 231 81 319 139 89 58 240 120 241 284 2 164-33 236-139 351-107 116-175 126-175 126h288c0 0 87-152 110-226 23-74 52-167 36-267-16-100-90-225-206-280-116-56-86-51-170-75-83-24-94-26-103-28-9-2-95-27-95-27 0 0-45-25-70-51-25-26-55-91-55-91z"/><path d="m2278 1531l34 220h414v-220z"/></g></svg>