<svg xmlns="http://www.w3.org/2000/svg" viewBox="0 0 60 60"><g transform="translate(2.484 .102) scale(1.03306)"><rect width="43.829" height="43.829" x="4.721" y="7.026" ry="2.671" fill="#d7b5d6" stroke="#000" stroke-width=".699" stroke-linecap="square" paint-order="fill markers stroke"/><path d="M42.876 30.544V27.12l2.964 1.712zm-33.426 0V27.12l-2.964 1.712zM27.935 11.86h-3.423l1.712-2.964zm-3.423 34.293h3.423l-1.711 2.965z" fill="#e95c35" stroke="#000" stroke-width=".315" stroke-linecap="square" paint-order="fill markers stroke"/><path d="M18.773 48.595c-.344-.029-.542-.079-.618-.154-.094-.095-.123-.377-.194-1.87-.294-6.24-.616-17.72-.616-22.02 0-2.383.017-2.897.137-3.903.153-1.277.154-2.93.003-3.208-.118-.218-.349-.185-.85.12-.725.44-1.488.784-1.826.824-.402.047-.652-.122-.72-.486-.168-.897.63-3.96 1.329-5.103l.456-.751c.304-.503.511-1.445.46-2.086-.036-.447-.028-.49.122-.64.205-.205.367-.202.758.01.297.162.326.202.518.729.111.306.203.617.203.69 0 .127.026.131.606.089.838-.062 1.034-.102 1.034-.213 0-.267.774-1.312 1.017-1.373.387-.097.691.406.74 1.227l.03.5.913.032c.84.03.926.045 1.075.185a.51.51 0 0 1 .16.32c-.004.435-.563 1.219-1.126 1.58l-.359.23-.004.754c-.003.545-.063 1.091-.218 1.968-.21 1.197-.213 1.239-.203 3.116.012 2.323.16 6.146.379 9.769l.043.715 2.4-.06c3.149-.077 5.207-.065 5.977.037 1.992.264 3.294.947 4.067 2.134.153.235.294.427.312.427.019 0 .272-.125.563-.279.7-.368 1.328-.97 1.39-1.331.094-.558.19-.686.518-.686.284 0 .432.173.432.502 0 .87-.709 1.702-2.018 2.37-.601.306-.608.312-.558.507.067.262.032 3.11-.048 3.936-.035.36-.096 1.158-.134 1.771-.175 2.807-.512 6.778-.695 8.196-.172 1.329-.255 1.382-2.3 1.458-1.265.047-1.465.008-1.599-.315-.101-.245-.045-2.947.097-4.669.053-.643.117-1.665.143-2.272l.046-1.104-.387-.043c-1.044-.116-2.542-.178-5.149-.213l-2.86-.039-.043.518c-.025.284-.026 1.196-.004 2.026.047 1.717-.068 5.615-.17 5.807a.553.553 0 0 1-.192.193c-.152.081-2.342.138-3.037.078zm13.852-.927c.304-.035.573-.097.598-.138.107-.173.504-4.511.716-7.834.04-.614.083-1.209.098-1.323.025-.204.023-.206-.182-.147-.4.114-1.037.07-1.39-.097-.387-.184-.773-.567-.915-.908-.137-.33-.127-.939.022-1.266.28-.618.97-1.035 1.708-1.034.238 0 .539.046.669.101l.237.1.037-.621c.02-.342.02-.725 0-.853-.043-.261.007-.258-.905-.058-.954.21-1.432.094-1.432-.345 0-.327.162-.448.666-.497.46-.046 1.172-.193 1.235-.256.063-.063-.357-.615-.68-.892-.625-.535-1.605-.896-2.84-1.047-.866-.106-2.754-.169-2.754-.092 0 .036.114.141.254.234.302.2.495.492.6.91.235.934-.652 1.84-1.802 1.84-1.026 0-1.805-.67-1.805-1.556 0-.435.176-.8.536-1.118l.295-.26-2.037.02-2.038.02-.233.25c-.299.322-.589.467-1.018.511-.466.048-.962-.121-1.277-.436-1.005-1.005.227-2.535 1.653-2.054l.377.127v-.284c0-.157-.06-1.43-.132-2.827-.073-1.399-.155-3.42-.184-4.492-.028-1.072-.067-1.966-.087-1.985-.02-.02-.162.008-.317.063a1.785 1.785 0 0 1-.461.099c-.307 0-.743-.192-.994-.437l-.24-.234-.044.45c-.023.248-.1.956-.17 1.573-.07.618-.127 1.392-.127 1.72v.598l.178-.067c.098-.037.35-.068.562-.07.949-.004 1.62.71 1.462 1.555-.065.344-.564.829-.973.943-.305.086-.862.07-1.121-.033-.119-.047-.121.02-.078 2.077.024 1.17.072 3.086.105 4.258a173.8 173.8 0 0 1 .061 2.685l.001.553.149-.14c.424-.399 1.327-.547 1.94-.319 1.17.436 1.514 1.863.658 2.725-.622.627-1.762.718-2.492.199l-.195-.14.032.155c.017.084.05.877.072 1.761.036 1.457.157 4.732.271 7.331l.044 1h1.106c.608 0 1.11-.007 1.116-.016.007-.009.029-1.868.05-4.131l.037-4.115.148-.147c.133-.133.237-.153 1.05-.196a21.96 21.96 0 0 1 1.777-.008l.876.04-.149-.29c-.335-.65-.1-1.551.518-1.99.391-.278.631-.354 1.132-.36.6-.007 1.006.147 1.383.524.519.519.64 1.235.316 1.87-.07.137-.116.261-.101.276.014.014.434.052.933.084 1.875.12 2.049.158 2.26.5.14.228.144.27.102 1.62a56.901 56.901 0 0 1-.142 2.535 57.23 57.23 0 0 0-.141 2.509l-.044 1.361h.454c.249 0 .702-.03 1.006-.064zM18.947 16.919c.436-.359.879-.427 1.427-.219.187.072.345.123.351.115.069-.099.36-2.25.359-2.655v-.541h-.23c-.297 0-.492-.191-.492-.482 0-.294.158-.422.626-.509.453-.083.917-.305 1.14-.545l.16-.17h-.359a3.2 3.2 0 0 0-.716.1c-.674.19-.881.195-1.038.026-.078-.083-.141-.206-.141-.273 0-.113-.043-.12-.574-.08-.316.024-.882.082-1.26.129-.711.088-.957.056-1.03-.136-.028-.071-.121.066-.288.421a7.42 7.42 0 0 1-.442.81c-.318.463-.584 1.04-.858 1.865-.276.83-.534 1.965-.534 2.35v.235l.377-.192c.208-.105.584-.313.837-.461.603-.355.85-.419 1.269-.33.4.087.75.433.864.855l.074.275.119-.194a1.96 1.96 0 0 1 .36-.394zm-2.037-2.936a.657.657 0 0 1-.419-.638c0-.49.265-.782.716-.788a.986.986 0 0 1 .393.074c.188.1.4.45.4.66 0 .35-.432.791-.767.784a1.135 1.135 0 0 1-.323-.092z"/><path d="M18.613 18.876c-.036.107-.032.23-.05.343-.095 1.014-.24 2.025-.291 3.043-.012.31-.021.622-.018.93.155-.052.314-.106.48-.116.316-.026.642-.017.936.114.424.178.775.583.802 1.055.019.199.006.41-.101.585-.14.252-.371.44-.608.6-.318.236-.884.106-1.482.087-.075.694.025 1.413.02 2.11.062 2.442.07 5.026.158 7.467.004.125.169-.192.214-.21a2.145 2.145 0 0 1 1.912-.239c.692.261 1.183.996 1.087 1.741-.063.901-.974 1.549-1.84 1.508-.463.011-.943-.2-1.313-.475.08 1.338.13 2.771.183 4.127.07 2.033.155 4.087.236 6.12.732.016 1.495-.004 2.226-.02.015-2.747.053-5.493.078-8.238a.743.743 0 0 1 .63-.311c1.058-.086 2.167-.011 3.226-.005-.154-.328-.351-.735-.297-1.118.057-.743.671-1.367 1.396-1.494.582-.08 1.24-.026 1.684.398.553.445.748 1.255.44 1.902-.023.102-.141.248-.119.346.913.147 1.876.078 2.783.268.318.102.53.451.522.768-.011 2.74-.346 5.125-.337 7.563.684.002 1.42.007 2.082-.169.199-1.126.253-2.291.369-3.428.163-1.961.342-3.968.438-5.933-.843.085-1.472.099-2.065-.387-.294-.27-.566-.625-.514-1.05-.008-.336-.03-.698.184-.982.38-.604 1.119-.931 1.821-.842.222.002.492.133.7.188.063-.397.091-1.314.015-1.638-.372-.215-1.47.3-2.07.144-.341-.127-.337-.725.036-.804.524-.15 1.136-.12 1.644-.33-1.067-2.228-4.299-2.082-6.195-2.062-.278-.02.013.173.073.21.48.327.798.875.706 1.464-.154.826-1.02 1.374-1.83 1.329-.792.05-1.64-.47-1.784-1.281-.103-.517.109-1.02.511-1.354.328-.19.594-.346-.042-.284-1.243.018-2.492.012-3.733.035-.378.495-.99.867-1.626.761-.625-.072-1.26-.56-1.27-1.23-.018-.638.511-1.181 1.116-1.31.427-.143.87.083 1.282.177.032-.375-.043-.814-.047-1.198-.017-.868-.035-1.633-.107-2.42-.084-1.69-.139-3.382-.194-5.074-.017-.297-.014-.596-.057-.89-.038-.039-.107.003-.154.006-.27.076-.549.195-.832.12-.361-.071-.675-.29-.927-.55-.029-.02-.052-.062-.087-.067z" fill="#fee51f" stroke="#000" stroke-width=".019" stroke-linecap="square" paint-order="fill markers stroke"/><path d="M17.115 11.682c-.124.16-.194.354-.292.53-.167.348-.372.675-.575 1.003-.403.718-.668 1.504-.888 2.294-.123.475-.245.953-.301 1.441a2.7 2.7 0 0 0-.006.402c.296-.132.584-.294.87-.452.335-.179.654-.398 1.018-.515.273-.07.575-.038.83.083.311.157.544.457.629.795.026.07.028.183.07.244.05-.028.073-.13.11-.175.214-.312.516-.582.881-.696.218-.058.453-.06.672-.007.198.048.382.14.58.182.046-.01.032-.082.049-.116.129-.71.22-1.425.296-2.141.032-.308.023-.617.024-.925-.081-.023-.18-.002-.268-.017-.203-.006-.41-.152-.436-.364-.041-.18.013-.403.194-.487.264-.13.568-.14.84-.249.329-.114.637-.306.854-.58.027-.067-.125-.012-.17-.027a3.85 3.85 0 0 0-1.044.148c-.239.056-.49.138-.735.079a.518.518 0 0 1-.277-.346c.011-.078-.067-.13-.139-.125-.49.01-.976.074-1.462.124-.336.032-.673.09-1.01.058a.32.32 0 0 1-.269-.176c-.014-.028-.033.006-.045.015zm.088.88c.188.003.403.03.53.186a.94.94 0 0 1 .26.52c.004.292-.209.54-.437.695a.535.535 0 0 1-.487.074c-.236-.06-.465-.215-.538-.458-.05-.17-.037-.358.002-.53a.646.646 0 0 1 .522-.474.885.885 0 0 1 .148-.013z" fill="#fee51f" stroke="#000" stroke-width=".023" stroke-linecap="square" paint-order="fill markers stroke"/></g></svg>