<svg xmlns="http://www.w3.org/2000/svg" viewBox="0 0 512 512"><path fill="#3893e8" d="M70.57 17.27 65.7 35.31c24.23 6.55 46.02 15.58 65.48 26.7-21.27 15.77-35.3 42.71-35.3 73.32 0 13.6 2.76 26.46 7.7 37.96-21.82 20.36-35 49.4-35 87.5 0 70.68 42.85 131.72 104.85 161l-30.71 70.37h20.37l27.6-63.22c3 1.08 6.05 2.09 9.13 3.02 3.56 2.76 7.18 5.25 10.87 7.49l-13.03 52.7h19.28l10.94-44.31a87.73 87.73 0 0 0 20.9 5v39.32h18.7V452.8a87.51 87.51 0 0 0 23.25-6.06l11.2 45.42h19.26l-13.44-54.42c3.4-2.22 6.75-4.66 10.03-7.35a192.7 192.7 0 0 0 9.54-3.45l28.46 65.21h20.38l-31.8-72.86c59.22-30.16 99.74-89.78 99.74-158.5 0-37.11-12.51-65.62-33.32-85.9a95.85 95.85 0 0 0 8.43-39.56c0-30.5-13.93-57.36-35.07-73.14 19.64-11.34 41.45-20.41 65.4-26.88l-4.88-18.04c-26.26 7.1-50.2 17.24-71.75 30-34.08-18.84-77.19-28.16-120.2-28.11-40.92.04-81.74 8.57-114.66 25.44-20.23-11.39-42.7-20.64-67.47-27.33zm182.14 21.4c36.44-.04 72.95 6.7 102.08 20.35-45.11 31.89-77.92 76.2-97.15 127.79C238.31 134.67 205 88.95 157.07 56.39c27.81-11.75 61.7-17.68 95.64-17.72zm-83.6 68.37a35.47 35.47 0 0 1 35.32 35.32c0 19.4-15.93 35.33-35.33 35.33s-35.33-15.93-35.33-35.33a35.47 35.47 0 0 1 35.33-35.32zm179.43 0a35.47 35.47 0 0 1 35.33 35.32 35.47 35.47 0 0 1-35.33 35.33 35.47 35.47 0 0 1-35.33-35.33 35.47 35.47 0 0 1 35.33-35.32zm-110.38 80.7a296.1 296.1 0 0 1 10.43 31.9l9.03 33.97 9.03-33.96a289.4 289.4 0 0 1 10.4-31.72c14.4 21.47 37.35 35.38 63.24 35.38a72.45 72.45 0 0 0 39.6-11.9c-4 70.86-18.93 124.73-39.33 161.42-23.97 43.1-54.35 62.28-83.54 61.84-29.18-.44-59.8-20.67-83.8-64.08-20.44-36.95-35.36-90.5-39.36-160.03a72.63 72.63 0 0 0 40.94 12.75c25.97 0 48.98-14 63.36-35.58zm-125.26 2.14 1.3 1.82c2.17 81.33 18.4 144.05 42.66 187.94a209.4 209.4 0 0 0 11.54 18.55c-48.72-28.26-81.13-79.3-81.13-137.4 0-32.02 9.22-54.48 25.63-70.9zm288.28 1.43c15.53 16.3 24.23 38.38 24.23 69.48 0 56.37-30.52 106.09-76.83 134.8 2.87-4.33 5.65-8.88 8.31-13.67 24.17-43.46 40.33-106.15 42.63-188.48.56-.7 1.12-1.4 1.66-2.13zm-237.5 59.05c-3.75 6.26-6.1 14.53-6.1 23.24 0 20.06 12.1 35.91 26.83 35.91 12.53 0 23.35-11.58 26.2-27.46a24.97 24.97 0 0 1-16.45 6.34c-15.98 0-29.42-16.62-30.48-38.03zm185.92 2.48c-1.06 21.41-14.5 38.03-30.48 38.03a24.98 24.98 0 0 1-16.46-6.34c2.86 15.88 13.68 27.46 26.21 27.46 14.73 0 26.21-15.85 26.21-35.91 0-8.71-1.73-16.98-5.48-23.24zm-68.73 28.97c-3.51 13.1-14.31 23.18-24.53 23.18-9.99 0-20.61-10.06-23.95-22.51-.81 3.4-1.75 7.03-1.75 10.8 0 19.22 11.6 34.4 25.7 34.4s25.7-15.18 25.7-34.4c0-3.99-.26-7.9-1.17-11.47zm35.04 66.7c-3.44 16.56-14.21 29.02-27.45 29.02-8.24 0-15.76-4.6-21.03-12.15.74 18.33 12.07 33.06 25.7 33.06 14.1 0 25.7-15.86 25.7-35.08 0-5.41-1.3-10.28-2.92-14.85zm-115.64 1.35c-1.3 4.17-1.75 8.69-1.75 13.5 0 19.22 11.59 35.08 25.7 35.08 13.63 0 24.37-14.73 25.1-33.06-5.26 7.54-12.78 12.15-21.02 12.15-12.91 0-24.31-11.74-28.03-27.67z" style="touch-action:none"/></svg>