<svg xmlns="http://www.w3.org/2000/svg" shape-rendering="crispEdges" viewBox="0 -0.5 16 16"><path stroke="#000" d="M7 1h2M6 2h1m2 0h1M6 3h1m2 0h1M7 4h2M1 5h1m12 0h1M2 6h2m3 0h2m3 0h2M2 7h1m1 0h1m1 0h1m2 0h1m1 0h1m1 0h1M2 8h1m2 0h1m4 0h1m2 0h1M3 9h1m8 0h1M3 10h1m8 0h1m-9 1h1m6 0h1m-8 1h8m-9 1h1m8 0h1M3 14h10"/><path stroke="#6d6d6d" d="M7 2h1M3 7h1M3 8h1"/><path stroke="#151515" d="M8 2h1M8 3h1m3 4h1m-2 1h2m-2 1h1m-2 1h2m-3 1h2m-2 2h3"/><path stroke="#494949" d="M7 3h1M7 7h1M4 8h1m1 0h1M4 9h2m-2 1h2m-1 1h1m-2 2h2"/><path stroke="#242424" d="M8 7h1M7 8h3M6 9h5m-5 1h4m-4 1h3m-3 2h3"/></svg>