<?xml version="1.0" encoding="UTF-8"?>
<!DOCTYPE svg PUBLIC "-//W3C//DTD SVG 1.1//EN" "http://www.w3.org/Graphics/SVG/1.1/DTD/svg11.dtd">
<!-- Creator: CorelDRAW X5 -->
<svg xmlns="http://www.w3.org/2000/svg" xml:space="preserve" width="38.1mm" height="38.1mm" style="shape-rendering:geometricPrecision; text-rendering:geometricPrecision; image-rendering:optimizeQuality; fill-rule:evenodd; clip-rule:evenodd"
viewBox="0 0 3810 3810"
 xmlns:xlink="http://www.w3.org/1999/xlink">
 <defs>
  <style type="text/css">
   <![CDATA[
    .fil1 {fill:#111111}
    .fil0 {fill:#383838}
   ]]>
  </style>
 </defs>
 <g id="Warstwa_x0020_1">
  <metadata id="CorelCorpID_0Corel-Layer"/>
  <rect class="fil0" x="953" y="3239" width="1907" height="204"/>
  <rect class="fil0" x="1099" y="3386" width="1621" height="153"/>
  <rect class="fil0" x="950" y="3506" width="1907" height="204"/>
  <polygon class="fil1" points="1099,3443 2720,3443 2720,3506 1099,3506 "/>
  <polygon class="fil0" points="1659,2059 1955,2055 1956,3337 1338,3328 "/>
  <polygon class="fil0" points="2140,2059 1876,2055 1876,3337 2493,3328 "/>
  <rect class="fil0" x="1355" y="1907" width="1115" height="158"/>
  <ellipse class="fil0" cx="1890" cy="1549" rx="414" ry="433"/>
  <path class="fil1" d="M1980 1126c0,0 195,147 218,349 36,315 -162,418 -446,351 -143,-34 -244,-110 -231,-82 0,0 21,51 59,90 37,39 82,75 82,75l457 0c0,0 74,-41 114,-117 40,-77 72,-137 72,-244 0,-107 -41,-199 -68,-237 -27,-38 -56,-71 -105,-114 -48,-44 -152,-71 -152,-71z"/>
  <polygon class="fil1" points="2074,1907 2143,2065 2469,2065 2469,1907 "/>
  <polygon class="fil1" points="1558,2065 2143,2065 2489,3307 2234,3307 2066,2212 "/>
  <polygon class="fil1" points="2466,3239 2536,3710 2857,3710 2857,3506 2720,3506 2720,3443 2860,3443 2860,3239 "/>
 </g>
</svg>
