<svg width="50mm" height="50mm" clip-rule="evenodd" fill-rule="evenodd" image-rendering="optimizeQuality" shape-rendering="geometricPrecision" text-rendering="geometricPrecision" inkscape:version="1.0.1 (3bc2e813f5, 2020-09-07)" sodipodi:docname="wN.svg" version="1.1" viewBox="0 0 50 50" xmlns="http://www.w3.org/2000/svg" xmlns:inkscape="http://www.inkscape.org/namespaces/inkscape" xmlns:sodipodi="http://sodipodi.sourceforge.net/DTD/sodipodi-0.dtd" xmlns:xlink="http://www.w3.org/1999/xlink">
 <sodipodi:namedview bordercolor="#666666" borderopacity="1" gridtolerance="10" guidetolerance="10" inkscape:current-layer="svg81" inkscape:cx="27.567664" inkscape:cy="83.205274" inkscape:document-rotation="0" inkscape:guide-bbox="true" inkscape:pageopacity="0" inkscape:pageshadow="2" inkscape:window-height="1001" inkscape:window-maximized="1" inkscape:window-width="1920" inkscape:window-x="-9" inkscape:window-y="-9" inkscape:zoom="3.105672" objecttolerance="10" pagecolor="#ffffff" showgrid="false" showguides="true"/>
 <defs>
  <linearGradient id="linearGradient1643" x1="9.2407" x2="40.761" y1="27.266" y2="27.266" gradientTransform="matrix(.98495 0 0 .98605 .37559 .64119)" gradientUnits="userSpaceOnUse">
   <stop stop-color="#ece9df" offset="0"/>
   <stop stop-color="#f4e0c8" offset="1"/>
  </linearGradient>
  <linearGradient id="linearGradient2766-9" x1="-736.5" x2="-696.5" y1="-367.96" y2="-367.96" gradientTransform="matrix(.99995 0 0 .99606 740.69 393.31)" gradientUnits="userSpaceOnUse" xlink:href="#linearGradient1643"/>
  <filter id="filter1572-7-1" x="-.063849" y="-.038425" width="1.1277" height="1.0768" color-interpolation-filters="sRGB">
   <feGaussianBlur stdDeviation="0.56999549"/>
  </filter>
  <linearGradient id="linearGradient2768-3" x1="-116.32" x2="-77.199" y1="299.9" y2="299.9" gradientTransform="matrix(1.1045 0 0 1.0827 130.81 -314.94)" gradientUnits="userSpaceOnUse" xlink:href="#linearGradient1643"/>
  <filter id="filter3022-9" x="-.16545" y="-.2942" width="1.3309" height="1.5884" color-interpolation-filters="sRGB">
   <feGaussianBlur stdDeviation="0.21100914"/>
  </filter>
  <filter id="filter1433-2-4-3" x="-.16216" y="-.13438" width="1.3243" height="1.2688" color-interpolation-filters="sRGB">
   <feGaussianBlur stdDeviation="0.6353602"/>
  </filter>
  <filter id="filter1676-3-7" x="-.011181" y="-.012953" width="1.0224" height="1.0259" color-interpolation-filters="sRGB">
   <feGaussianBlur stdDeviation="0.01825907"/>
  </filter>
  <filter id="filter1866-4-7" x="-.24425" y="-.31328" width="1.4885" height="1.6266" color-interpolation-filters="sRGB">
   <feGaussianBlur stdDeviation="0.77153703"/>
  </filter>
  <filter id="filter1605-5" x="-.23947" y="-.069723" width="1.4789" height="1.1394" color-interpolation-filters="sRGB">
   <feGaussianBlur stdDeviation="0.27949598"/>
  </filter>
  <filter id="filter1572-7-1-4-4-8" x="-.063849" y="-.038425" width="1.1277" height="1.0768" color-interpolation-filters="sRGB">
   <feGaussianBlur stdDeviation="0.56999549"/>
  </filter>
  <filter id="filter4257-2" x="-.23449" y="-.41695" width="1.469" height="1.8339" color-interpolation-filters="sRGB">
   <feGaussianBlur stdDeviation="0.29904924"/>
  </filter>
  <filter id="filter1754-6-5" x="-.11914" y="-.098732" width="1.2383" height="1.1975" color-interpolation-filters="sRGB">
   <feGaussianBlur stdDeviation="0.46679525"/>
  </filter>
  <filter id="filter1676-3-7-2-3" x="-.044722" y="-.051812" width="1.0894" height="1.1036" color-interpolation-filters="sRGB">
   <feGaussianBlur stdDeviation="0.073036278"/>
  </filter>
  <filter id="filter1746-3-3" x="-.32068" y="-.41131" width="1.6414" height="1.8226" color-interpolation-filters="sRGB">
   <feGaussianBlur stdDeviation="1.0129772"/>
  </filter>
  <filter id="filter1758-7-8" x="-.23947" y="-.069723" width="1.4789" height="1.1394" color-interpolation-filters="sRGB">
   <feGaussianBlur stdDeviation="0.27949598"/>
  </filter>
 </defs>
 <path d="m10.393 35.883c2.8869 2.407 4.1574-0.70163 5.1782-3.0531 1.3976-3.9525 7.1276-1.8258 8.7327-6.795 2.8307 11.085-9.8645 8.3935-9.2638 20.261h28.386c1.9127-22.103-5.002-37.421-25.957-35.288-2.0835-2.1762-4.9922-3.5581-4.9922-3.5581-1.1294 2.0848-1.0123 4.7165 0.66682 5.722 0.43908 0.40095-3.527 2.0784-2.9954 7.8917 0 0-3.1925 5.3173-5.055 8.8118-1.3565 2.7316 1.0741 6.2645 4.5356 6.589" fill="url(#linearGradient2766-9)" image-rendering="optimizeQuality" stroke="#000000" stroke-dashoffset="1.852" stroke-linecap="round" style="clip-rule:evenodd;fill-rule:evenodd;fill:url(#linearGradient2766-9);shape-rendering:geometricPrecision" sodipodi:nodetypes="ccccccccccc"/>
 <path d="m16.859 17.328c-0.0177 9.96e-4 -0.0353 3e-3 -0.0529 6e-3 -2.9426 0.47858-3.352 3.258-3.352 3.258-0.0599 0.29614 0.13177 0.58478 0.42873 0.64568 0.29788 0.06086 0.58888-0.13039 0.64995-0.42722 0 0 0.17221-2.0231 2.4515-2.3938 0.30002-0.04901 0.50335-0.33111 0.45418-0.63006-0.046-0.27865-0.2967-0.47699-0.57947-0.45842z" color="#000000" color-rendering="auto" dominant-baseline="auto" image-rendering="optimizeQuality" solid-color="#000000" stop-color="#000000" style="clip-rule:evenodd;fill-rule:evenodd;font-feature-settings:normal;font-variant-alternates:normal;font-variant-caps:normal;font-variant-east-asian:normal;font-variant-ligatures:normal;font-variant-numeric:normal;font-variant-position:normal;font-variation-settings:normal;inline-size:0;isolation:auto;mix-blend-mode:normal;shape-margin:0;shape-padding:0;shape-rendering:geometricPrecision;text-decoration-color:#000000;text-decoration-line:none;text-decoration-style:solid;text-indent:0;text-orientation:mixed;text-transform:none;white-space:normal"/>
 <path d="m16.7 19.572a1.1175 1.2045 69.395 0 1-0.94316 1.3664 1.1175 1.2045 69.395 0 1-1.4008-0.82495 1.1175 1.2045 69.395 0 1 0.94316-1.3664 1.1175 1.2045 69.395 0 1 1.4008 0.82496z" image-rendering="optimizeQuality" style="clip-rule:evenodd;fill-rule:evenodd;paint-order:markers fill stroke;shape-rendering:geometricPrecision"/>
 <path d="m8.4188 29.95c-0.14397 9.96e-4 -0.28172 0.05877-0.38371 0.15996-0.43847 0.43626-0.66902 0.84933-0.77915 1.1724-0.11013 0.32303-0.093995 0.61642-0.093995 0.61642 0.028099 0.30081 0.29508 0.52234 0.59709 0.49549 0.30351-0.02709 0.71483-0.24787 0.68676-0.55022 0 0-0.013699-9.96e-4 0.041098-0.1619 0.054797-0.16069 0.18302-0.42084 0.51291-0.74907 0.21538-0.21429 0.027799-0.60878-0.18756-0.82307-0.10438-0.10365-0.24613-0.16127-0.39349-0.15996z" color="#000000" color-rendering="auto" dominant-baseline="auto" image-rendering="optimizeQuality" solid-color="#000000" stop-color="#000000" style="clip-rule:evenodd;fill-rule:evenodd;font-feature-settings:normal;font-variant-alternates:normal;font-variant-caps:normal;font-variant-east-asian:normal;font-variant-ligatures:normal;font-variant-numeric:normal;font-variant-position:normal;font-variation-settings:normal;inline-size:0;isolation:auto;mix-blend-mode:normal;shape-margin:0;shape-padding:0;shape-rendering:geometricPrecision;text-decoration-color:#000000;text-decoration-line:none;text-decoration-style:solid;text-indent:0;text-orientation:mixed;text-transform:none;white-space:normal"/>
 <path transform="matrix(.99995 0 0 .99606 740.69 393.31)" d="m-718.42-382.86c17.099 0.6447 19.298 14.991 17.595 34.473h3.5261c1.7534-20.341-3.9138-34.957-21.011-35.602z" filter="url(#filter1572-7-1)" image-rendering="optimizeQuality" opacity=".25" style="clip-rule:evenodd;fill-rule:evenodd;filter:url(#filter1572-7-1-4-4-8);opacity:.15;shape-rendering:geometricPrecision"/>
 <path d="m17.454 12.38s0.65237-4.1428 3.9004-4.8479c0 0 2.0788 1.0847 1.6635 5.9689" fill="url(#linearGradient2768-3)" image-rendering="optimizeQuality" stroke="#000000" stroke-linecap="round" style="clip-rule:evenodd;fill-rule:evenodd;fill:url(#linearGradient2768-3);paint-order:markers fill stroke;shape-rendering:geometricPrecision"/>
 <path d="m12.206 33.765c-0.3065 0.52617-1.4519 1.7466-2.5755 2.7012" fill="none" image-rendering="optimizeQuality" stroke="#000000" stroke-linecap="round" style="clip-rule:evenodd;fill-rule:evenodd;shape-rendering:geometricPrecision"/>
 <path d="m5.4273 30.42 4.1942-7.324 1.172-1.8919s-0.79698-4.4145 2.7191-7.3808c-5e-4 9.96e-4 0.55469-0.61422 3e-3 -1.106-0.55243-0.49212-1.936-2.1287-0.7527-4.3361-0.077-0.022013 0.27413 4.8058 4.3533 4.8639-3.9191 1.2493-6.111 4.9892-5.151 8.5822-0.73559 1.1727-1.4576 2.0798-2.3743 3.2079-0.82019 1.0093-1.7963 2.1954-3.0776 3.9069-0.33953 0.45355-0.7005 0.944-1.0857 1.4778z" style="clip-rule:evenodd;fill-rule:evenodd;fill:#ffffff;image-rendering:optimizeQuality;mix-blend-mode:normal;opacity:.8;shape-rendering:geometricPrecision"/>
 <path d="m15.757 45.676c-0.74366-9.4346 10.084-8.7948 9.4383-17.61 1.1035 10.971-7.8835 9.1291-9.4383 17.61z" style="clip-rule:evenodd;fill-rule:evenodd;fill:#ffffff;image-rendering:optimizeQuality;opacity:.7;shape-rendering:geometricPrecision"/>
 <path transform="matrix(.99995 0 0 .99606 740.69 393.31)" d="m-733.97-364.25c-0.0148 0.57251 1.587-1.8871 3.0607-0.43886-0.59811-1.4295-2.2181-1.9017-3.0607 0.43886z" filter="url(#filter3022-9)" style="clip-rule:evenodd;fill-rule:evenodd;fill:#ffffff;filter:url(#filter4257-2);image-rendering:optimizeQuality;shape-rendering:geometricPrecision"/>
 <path d="m18.027 12.578s0.58013-3.6995 3.2487-4.4593c-1.5535 1.9713-1.745 5.1538-3.2487 4.4593z" style="clip-rule:evenodd;fill-rule:evenodd;fill:#ffffff;image-rendering:optimizeQuality;opacity:.8;shape-rendering:geometricPrecision"/>
 <path transform="matrix(.99995 0 0 .99606 740.69 393.31)" d="m-716.03-369.64c0.40451-1.1844 0.32557-3.0516-0.0308-3.6122-2.9586 8.6713-8.2447 5.492-9.101 11.347 1.6394-3.7075 7.8131-2.4199 9.1318-7.7344z" filter="url(#filter1433-2-4-3)" opacity=".25" style="clip-rule:evenodd;fill-rule:evenodd;filter:url(#filter1754-6-5);image-rendering:optimizeQuality;opacity:.15;shape-rendering:geometricPrecision"/>
 <path transform="matrix(.99995 0 0 .99606 740.69 393.31)" d="m-723.87-377.47c-3.2168 0.61547-3.405 3.2769-3.405 3.2769s-0.49877 0.21082-0.49048-0.32798c-0.23069-0.68798 1.2151-3.4747 3.8955-2.9489z" filter="url(#filter1676-3-7)" opacity=".2" style="clip-rule:evenodd;fill-rule:evenodd;fill:#ffffff;filter:url(#filter1676-3-7-2-3);image-rendering:optimizeQuality;opacity:.8;shape-rendering:geometricPrecision"/>
 <path transform="matrix(.76507 0 0 .92137 575.69 349.88)" d="m-723.63-356.13c-6.5319-0.82682-7.5812 5.8397-7.5812 5.8397 1.1097-2.0653 4.2941-4.784 7.5812-5.8397z" fill="#ffffff" filter="url(#filter1866-4-7)" style="clip-rule:evenodd;fill-rule:evenodd;filter:url(#filter1746-3-3);image-rendering:optimizeQuality;shape-rendering:geometricPrecision"/>
 <path d="m24.304 26.035s0.39863-0.9089 0.7437-3.4869" clip-rule="evenodd" fill="none" fill-rule="evenodd" image-rendering="optimizeQuality" shape-rendering="geometricPrecision" stroke="#000000" stroke-linecap="round" stroke-linejoin="round"/>
 <path d="m23.987 32.169c0.36428-0.026 5.3704-6.2152 1.061-9.6208l-0.51019 4.5568c0.10743 1.6818 0.43691 3.3589-0.55079 5.0641z" filter="url(#filter1605-5)" opacity=".15" style="clip-rule:evenodd;fill-rule:evenodd;filter:url(#filter1758-7-8);image-rendering:optimizeQuality;opacity:.15;shape-rendering:geometricPrecision"/>
</svg>
