<?xml version="1.0" encoding="UTF-8"?>
<svg width="50mm" height="50mm" clip-rule="evenodd" fill-rule="evenodd" image-rendering="optimizeQuality" shape-rendering="geometricPrecision" text-rendering="geometricPrecision" version="1.1" viewBox="0 0 50 50" xmlns="http://www.w3.org/2000/svg" xmlns:cc="http://creativecommons.org/ns#" xmlns:dc="http://purl.org/dc/elements/1.1/" xmlns:rdf="http://www.w3.org/1999/02/22-rdf-syntax-ns#" xmlns:xlink="http://www.w3.org/1999/xlink">
 <defs>
  <linearGradient id="linearGradient4485" x1="3341.2" x2="3366.2" y1="-469.26" y2="-469.26" gradientTransform="matrix(1.019 0 0 1.0751 -3392.3 527.45)" gradientUnits="userSpaceOnUse" xlink:href="#linearGradient4625"/>
  <linearGradient id="linearGradient4625">
   <stop stop-color="#fff" offset="0"/>
   <stop stop-color="#bba38a" offset="1"/>
  </linearGradient>
  <linearGradient id="linearGradient4487" x1="-177.63" x2="-151.24" y1="156.68" y2="156.68" gradientTransform="matrix(1.1509 0 0 1.1499 214.24 -138.92)" gradientUnits="userSpaceOnUse" xlink:href="#linearGradient4625"/>
 </defs>
 <metadata>
  <rdf:RDF>
   <cc:Work rdf:about="">
    <dc:format>image/svg+xml</dc:format>
    <dc:type rdf:resource="http://purl.org/dc/dcmitype/StillImage"/>
    <dc:title/>
   </cc:Work>
  </rdf:RDF>
 </metadata>
 <g clip-rule="evenodd" fill-rule="evenodd" shape-rendering="geometricPrecision">
  <path d="m26.87 8.2235c-5.7968-2.2985-6.9525 2.5263-4.6685 5.8595-9.8971 10.6-11.253 16.425-6.1943 24.204h17.989c6.0849-6.9125 2.5592-14.515-4.8221-22.3-2.883 4.1189-3.2739 7.3506-3.9463 11.131l-3.6205-0.071064c-0.65878-6.0056 7.6222-15.14 5.262-18.823z" fill="url(#linearGradient4485)" image-rendering="optimizeQuality" stroke="#323232" stroke-linejoin="round" stroke-width="1.6001"/>
  <path d="m24.933 7.6537c-0.62516 0.020427-0.20706 0.19682-0.77138 0.5678 0 0.00215 0.01019 0.00538 0.01019 0.00753 3.5817-0.31103-2.3684 11.772-3.3939 18.894 0.53599-3.0139 1.3246-5.6805 3.0822-8.7248 2.0033-4.3517 4.2364-8.6814 3.0078-10.169-0.41137-0.38082-1.1444-0.6013-1.9342-0.57557zm4.2391 8.3386c-0.59938 0.85616-0.51572 0.66974-0.9709 1.4621 6.004 6.0484 8.7278 13.787 3.0964 20.838h2.6967c6.0849-6.9125 2.5589-14.515-4.8222-22.3z" image-rendering="optimizeQuality" opacity=".1" stroke-width="1.1001"/>
  <path d="m13.24 38.286c-1.4368 0-2.627 1.2165-2.627 2.6847v0.5449l0.01254 2.6847h28.749l0.01254-2.6847v-0.5449c0-1.4682-1.1903-2.6847-2.627-2.6847h-11.76z" fill="url(#linearGradient4487)" image-rendering="optimizeQuality" stroke="#323232" stroke-linecap="round" stroke-linejoin="round" stroke-width="1.6"/>
 </g>
 <path d="m14.895 34.327c-0.7157-1.3956-3.2662-6.8121 4.5135-15.739-2.1002 4.8607-5.9584 8.6896-4.5135 15.739z" fill="#fff"/>
</svg>
