<svg xmlns="http://www.w3.org/2000/svg" width="100" height="100" viewBox="-50 -60 381.3 511.7"><defs><clipPath id="a"><path d="M0 70h291.3v361.7H0Zm0 0"/></clipPath></defs><path fill="gray" d="M180.4 29.8a34.8 34.8 0 1 1-69.7 0 34.8 34.8 0 0 1 69.7 0"/><path fill="none" stroke="#000" stroke-linejoin="round" stroke-miterlimit="10" stroke-width="30" d="M180.4 29.8a34.8 34.8 0 1 1-69.7 0 34.8 34.8 0 0 1 69.7 0Zm0 0"/><path fill="#4d4d4d" d="M248.1 149.9C191.6 165.2 154 261.3 154 261.3s4.7-86.5 44.8-160.1c-27.9-22.3-52.6-36-52.6-36s-132 72-131.1 154.6c1 82.6 66.2 147 58 164.3-8 17.2 154.3 16.3 146.1 0-8.1-16.4 56.3-82.6 57.2-164.3.3-24.7-11.5-48.6-28.2-70"/><path fill="gray" d="M150.3 71.8c-50.5 87-62.5 126-62.5 153 0 56.9 51 148 26.5 162h-36l-45-90-18-63 9-54 36-45Zm0 0"/><g clip-path="url(#a)" transform="translate(0 -20)"><path d="M88.7 397.5a289 289 0 0 0 55.8 4.2h1.7c27.9-.1 47.8-2.3 57.4-4.4 1.3-10.4 8-22.6 17.4-39.4 16.8-30.3 39.8-71.7 40.3-118.2.2-16.1-6-33.5-18.6-51.8-36.1 17.6-65.9 76-74.9 98.9a15 15 0 0 1-17.1 9.1 15 15 0 0 1-11.8-15.4 446 446 0 0 1 40.8-155.1 439.6 439.6 0 0 0-33.7-22.9c-11.2 6.8-34 21.4-56.4 40.7C62.2 167 29.6 203 30 239.7c.5 47 23.8 87.9 40.8 117.8 9.7 17.1 16.7 29.5 17.9 40m55.9 34.2c-16.5 0-32.3-.8-45-2.2-22.6-2.4-30-6.3-34.4-9.7-6.4-5-8.9-12.8-6.6-20-1-5-8.2-17.4-14-27.5C27.2 341.4.7 294.7 0 240c-.4-38.9 23.3-79.2 70.4-119.8A417.4 417.4 0 0 1 139 72a15 15 0 0 1 14.5 0c1 .6 26.1 14.7 54.7 37.5a15 15 0 0 1 3.8 18.9 342 342 0 0 0-28.4 71.9c19.3-24.1 39.6-39.2 60.7-45a15 15 0 0 1 15.8 5.3c21 27.1 31.6 53.8 31.3 79.4-.6 54.1-26.7 101.2-44 132.4-5.6 10.1-12.5 22.5-13.7 27.5 2.2 6.9 0 14.4-6.1 19.4-4.2 3.4-11.5 7.3-34 9.9a428.5 428.5 0 0 1-46.8 2.4h-2.1"/></g><path fill="none" stroke="#000" stroke-linecap="round" stroke-linejoin="round" stroke-miterlimit="10" stroke-width="30" d="M47.3 324.3c15.6 24.3 181.5 28.8 198 0"/></svg>