<svg xmlns="http://www.w3.org/2000/svg" width="100" height="100" viewBox="-50 -100 345.8 506.5"><defs><clipPath id="a"><path d="M0 0h255.8v376.5H0Zm0 0"/></clipPath></defs><path fill="#4d4d4d" d="M239.5 320.4c0-90.3-74.4-119.9-65.9-176.2A81 81 0 0 0 129.3-3.7a81.2 81.2 0 0 0-48.2 147.8c9.5 56.4-64.8 86.4-64.8 176.3 33 9.9 54.4 19.7 112.2 19.7s78-9.8 111-19.7"/><path fill="gray" d="M126 10.4s-25 26-26 64c-1 38.1 14 60.6 14 66 0 5.5.4 28.4-5 48s-36 89-34 136c1.4 32.8-55.6-10.4-55.6-10.4l7.6-56.6 56.6-82.6-4.3-34.9-33.8-52.2 19.6-62Zm0 0"/><g clip-path="url(#a)" transform="translate(0 -20)"><path d="M239.5 340.4ZM33.1 328.5l1.9.6c26 8.2 46.6 14.7 93.5 14.7 46.3 0 66.2-6.3 91.4-14.4l2.8-.9c-3-36.4-20-61-36.3-84.9-16.7-24.2-33.9-49.2-29-81.9a16.3 16.3 0 0 1 6.9-11 64.8 64.8 0 1 0-74 0 16.3 16.3 0 0 1 6.8 10.7c5.6 33-11.5 58.3-28.2 82.8-16 23.8-32.7 48.3-35.8 84.3m95.4 48c-52 0-77-8-103.3-16.3L11.6 356A16.3 16.3 0 0 1 0 340.4c0-52.7 23.2-87 42-114.5 15-22.3 24.1-36.6 23.6-53A97.6 97.6 0 0 1 129.7 0a97 97 0 0 1 66.5 28.6 97 97 0 0 1-7 144.2c0 17.3 10.8 33 24 52.3 19 27.7 42.6 62 42.6 115.3 0 7.2-4.7 13.6-11.6 15.6l-14.4 4.5c-25.7 8.2-50 16-101.3 16"/></g></svg>