<svg xmlns="http://www.w3.org/2000/svg" width="100" height="100" viewBox="-50 -90 498 528"><path fill="#4d4d4d" d="M319.3 373H88.7a79.8 79.8 0 0 0 17.7-49.5c0-7-1-28.7-17.7-49.5h230.6a79.8 79.8 0 0 0-17.7 49.5c0 7 1 28.7 17.7 49.5"/><path fill="gray" d="M140 373c3.6-10.3 11.4-25.8 12-45 .7-23.8-8.1-41.7-12-53-10.7 0-27.3-1-38-1l15.6 54L93 373Zm0 0"/><path d="M113.5 358h181a92.9 92.9 0 0 1 0-69h-181a92.9 92.9 0 0 1 0 69m205.8 30H88.7c-5.4 0-10.3-3.5-12.5-8.8a16.1 16.1 0 0 1 2.2-16.1 63.8 63.8 0 0 0 14.3-39.6c0-8.2-1.9-24.1-14.3-39.6a16.1 16.1 0 0 1-2.2-16c2.2-5.4 7-8.9 12.5-8.9h230.6c5.4 0 10.3 3.5 12.5 8.8a16 16 0 0 1-2.2 16.1 63.8 63.8 0 0 0-14.3 39.6c0 8.2 1.9 24.1 14.3 39.6a16 16 0 0 1 2.2 16 13.7 13.7 0 0 1-12.5 8.9"/><path fill="#4d4d4d" d="m91.1 234.3-35.4-127c3.3 2 50.5 69 74.2 54.2 18.8-11.8 14.9-84.2 16.4-112.5 8.3 26.2 36.1 93.8 57.7 93.8s49.4-67.6 57.7-93.8c.5 3.2-7.9 97.2 24.7 112.5 18.6 8.8 59.9-51.5 65.9-54.2-6.2 35.2-28.8 83.8-35 126.8a46.2 46.2 0 0 1-45.5 39.9H136.6A46.1 46.1 0 0 1 91 234.3"/><path fill="gray" d="M86.8 139C153 172 93 259 230 259l-100 15a148.2 148.2 0 0 1-43.2-72c-6.6-27-3.2-49.7 0-63"/><path d="M203.7 127.8Zm.6 0Zm-81.4 20.8Zm-38 11.7 19.3 69.6.5 2a32.1 32.1 0 0 0 31.9 27.1h135.2c16 0 29.7-11.7 32-27.2a429.6 429.6 0 0 1 18.8-71.4c-14.9 13.7-28.7 21-41.7 14.9-16.6-7.9-27.2-28.6-31.4-61.7-16 30.1-30.5 44.2-45.5 44.2s-29.6-14.2-45.7-44.6v-.2c-2.2 30.2-7.4 52.6-21.6 61.5a26.6 26.6 0 0 1-14.4 4.2c-12.4 0-25.5-8-37.5-18.4m187 128.7H136.6A58.7 58.7 0 0 1 98 274.4a62 62 0 0 1-20.3-36.6L42.6 111.7c-1.6-5.8.1-12.2 4.5-16a12.8 12.8 0 0 1 15.2-1.5 36 36 0 0 1 9.1 9.4c6.4 7.9 18.4 22.5 30.5 33.1 13.5 11.8 19.9 12.4 21 11.8.5-.5 4.6-5.3 7-27 1.8-16.1 2-35.4 2.2-50.9.1-8.8.2-16.4.5-22.5.4-7.1 5.4-13 11.9-14s12.7 3.2 14.8 10a365 365 0 0 0 21.6 51.8c12.2 23.6 20.5 30.8 23.1 31.8 2.6-1 11-8.2 23.1-31.8a365.3 365.3 0 0 0 21.6-51.8c2-6.5 7.8-10.6 14-10 6.3.5 11.4 5.6 12.5 12.3.3 2 .2 3.4 0 8.2-2.8 73.4 10.4 89.3 15.8 92.7 1.5-.5 6.3-2.5 16-11.8 8.3-8 16.7-17.8 23.4-25.7 9-10.5 12.2-14.4 16.7-16.4 4.7-2 10-1.1 13.9 2.3a16 16 0 0 1 4.8 14.5c-3 17-9.3 36.1-16 56.4a426.2 426.2 0 0 0-19 69.8 62 62 0 0 1-20.3 38 58.7 58.7 0 0 1-38.7 14.6"/><path fill="gray" d="M168 22a27 27 0 1 1-54 0 27 27 0 0 1 54 0"/><path fill="none" stroke="#000" stroke-linejoin="round" stroke-miterlimit="10" stroke-width="30" d="M168 22a27 27 0 1 1-54 0 27 27 0 0 1 54 0Zm0 0"/><path fill="gray" d="M294 22a27 27 0 1 1-54 0 27 27 0 0 1 54 0"/><path fill="none" stroke="#000" stroke-linejoin="round" stroke-miterlimit="10" stroke-width="30" d="M294 22a27 27 0 1 1-54 0 27 27 0 0 1 54 0Zm0 0"/><path fill="gray" d="M393 76a27 27 0 1 1-54 0 27 27 0 0 1 54 0"/><path fill="none" stroke="#000" stroke-linejoin="round" stroke-miterlimit="10" stroke-width="30" d="M393 76a27 27 0 1 1-54 0 27 27 0 0 1 54 0Zm0 0"/><path fill="gray" d="M69 76a27 27 0 1 1-54 0 27 27 0 0 1 54 0"/><path fill="none" stroke="#000" stroke-linejoin="round" stroke-miterlimit="10" stroke-width="30" d="M69 76a27 27 0 1 1-54 0 27 27 0 0 1 54 0Zm36.2 252h197.6"/></svg>