<?xml version="1.0" encoding="UTF-8"?>
<svg xmlns="http://www.w3.org/2000/svg" xmlns:xlink="http://www.w3.org/1999/xlink" width="100" height="100" viewBox="-50 -100 386.833 503" version="1.1">
<defs>
<clipPath id="clip1">
  <path d="M 0 0 L 296.832031 0 L 296.832031 373 L 0 373 Z M 0 0 "/>
</clipPath>
</defs>
<g id="surface1" transform="translate(0 -20)">
<path style=" stroke:none;fill-rule:nonzero;fill:rgb(30.195618%,30.195618%,30.195618%);fill-opacity:1;" d="M 49.320312 182.347656 C 49.804688 113.917969 5.804688 57.183594 18.757812 16.238281 L 278.078125 16.238281 C 291.03125 57.183594 247.03125 113.917969 247.515625 182.347656 C 248.023438 254.550781 291.425781 314.5625 278.078125 356.765625 L 18.757812 356.765625 C 5.40625 314.5625 48.808594 254.550781 49.320312 182.347656 "/>
<path style=" stroke:none;fill-rule:nonzero;fill:rgb(50.196838%,50.196838%,50.196838%);fill-opacity:1;" d="M 92.859375 18 C 83.117188 73.203125 98.859375 143.324219 98.859375 191 C 98.859375 237.542969 80.613281 292.054688 83.859375 357 L 23.519531 356.765625 L 42.859375 191 L 23.519531 15.804688 Z M 92.859375 18 "/>
<g clip-path="url(#clip1)" clip-rule="nonzero">
<path style=" stroke:none;fill-rule:nonzero;fill:rgb(0%,0%,0%);fill-opacity:1;" d="M 251.265625 281.757812 C 242.019531 252.527344 231.539062 219.402344 231.277344 182.464844 C 231.023438 146.65625 241.722656 114.730469 251.160156 86.5625 C 258.113281 65.804688 264.324219 47.269531 264.226562 32.472656 L 32.605469 32.472656 C 32.507812 47.269531 38.71875 65.804688 45.671875 86.5625 C 55.109375 114.730469 65.808594 146.65625 65.554688 182.464844 C 65.292969 219.402344 54.8125 252.53125 45.566406 281.757812 C 38.40625 304.402344 32.019531 324.585938 32.464844 340.527344 L 264.371094 340.527344 C 264.8125 324.585938 258.429688 304.402344 251.265625 281.757812 M 3.277344 361.660156 C -5.246094 334.722656 4.398438 304.238281 14.605469 271.964844 C 23.160156 244.925781 32.855469 214.277344 33.082031 182.234375 C 33.300781 151.839844 23.9375 123.898438 14.882812 96.878906 C 4.65625 66.355469 -5.007812 37.523438 3.277344 11.339844 C 5.410156 4.589844 11.675781 0 18.757812 0 L 278.078125 0 C 285.15625 0 291.421875 4.589844 293.558594 11.339844 C 301.839844 37.523438 292.179688 66.355469 281.949219 96.878906 C 272.894531 123.898438 263.535156 151.839844 263.75 182.234375 C 263.976562 214.277344 273.671875 244.921875 282.226562 271.964844 C 292.4375 304.234375 302.078125 334.722656 293.558594 361.660156 C 291.421875 368.410156 285.15625 373 278.078125 373 L 18.757812 373 C 11.675781 373 5.410156 368.410156 3.277344 361.660156 "/>
</g>
<path style="fill:none;stroke-width:30;stroke-linecap:butt;stroke-linejoin:round;stroke:rgb(0%,0%,0%);stroke-opacity:1;stroke-miterlimit:10;" d="M -0.00136875 -0.00096875 L -0.00136875 -58.137687 " transform="matrix(1,0,0,-1,98.5834,24.542)"/>
<path style="fill:none;stroke-width:30;stroke-linecap:butt;stroke-linejoin:round;stroke:rgb(0%,0%,0%);stroke-opacity:1;stroke-miterlimit:10;" d="M -0.0004 -0.00096875 L -0.0004 -58.137687 " transform="matrix(1,0,0,-1,198.2504,24.542)"/>
<path style="fill:none;stroke-width:30;stroke-linecap:butt;stroke-linejoin:round;stroke:rgb(0%,0%,0%);stroke-opacity:1;stroke-miterlimit:10;" d="M -0.00135 -0.0019375 L 250.143181 -0.0019375 " transform="matrix(1,0,0,-1,23.3451,298.2715)"/>
<path style="fill:none;stroke-width:30;stroke-linecap:butt;stroke-linejoin:round;stroke:rgb(0%,0%,0%);stroke-opacity:1;stroke-miterlimit:10;" d="M 0.0006125 -0.0010125 L 215.945925 -0.0010125 " transform="matrix(1,0,0,-1,40.4447,140.8193)"/>
</g>
</svg>
