<?xml version="1.0" encoding="UTF-8" standalone="no"?>
<svg
xmlns:dc="http://purl.org/dc/elements/1.1/"
xmlns:cc="http://creativecommons.org/ns#"
xmlns:rdf="http://www.w3.org/1999/02/22-rdf-syntax-ns#"
xmlns:svg="http://www.w3.org/2000/svg"
xmlns="http://www.w3.org/2000/svg"
xmlns:sodipodi="http://sodipodi.sourceforge.net/DTD/sodipodi-0.dtd"
xmlns:inkscape="http://www.inkscape.org/namespaces/inkscape"
version="1.1"
width="34.763126"
height="35.141476"
id="svg2"
inkscape:version="0.48.4 r9939"
sodipodi:docname="wK.svg">
<metadata
id="metadata24">
<rdf:RDF>
<cc:Work
rdf:about="">
<dc:format>image/svg+xml</dc:format>
<dc:type
rdf:resource="http://purl.org/dc/dcmitype/StillImage" />
<dc:title></dc:title>
</cc:Work>
</rdf:RDF>
</metadata>
<defs
id="defs22" />
<sodipodi:namedview
pagecolor="#ffffff"
bordercolor="#666666"
borderopacity="1"
objecttolerance="10"
gridtolerance="10"
guidetolerance="10"
inkscape:pageopacity="0"
inkscape:pageshadow="2"
inkscape:window-width="2880"
inkscape:window-height="1800"
id="namedview20"
showgrid="false"
fit-margin-top="0"
fit-margin-left="0"
fit-margin-right="0"
fit-margin-bottom="0"
inkscape:zoom="5.2444444"
inkscape:cx="17.798991"
inkscape:cy="17.875"
inkscape:window-x="0"
inkscape:window-y="0"
inkscape:window-maximized="0"
inkscape:current-layer="svg2" />
<g
style="fill:none;stroke:#000000;stroke-width:1.5;stroke-linecap:round;stroke-linejoin:round;stroke-miterlimit:4;stroke-opacity:1;stroke-dasharray:none"
id="g4"
transform="translate(-5.0823652,-5.2335229)">
<path
d="M 22.5,11.63 22.5,6"
style="fill:none;stroke:#000000;stroke-linejoin:miter"
id="path6"
inkscape:connector-curvature="0" />
<path
d="m 20,8 5,0"
style="fill:none;stroke:#000000;stroke-linejoin:miter"
id="path8"
inkscape:connector-curvature="0" />
<path
d="m 22.5,25 c 0,0 4.5,-7.5 3,-10.5 0,0 -1,-2.5 -3,-2.5 -2,0 -3,2.5 -3,2.5 -1.5,3 3,10.5 3,10.5"
style="fill:#ffffff;stroke:#000000;stroke-linecap:butt;stroke-linejoin:miter"
id="path10"
inkscape:connector-curvature="0" />
<path
d="m 11.5,37 c 5.5,3.5 15.5,3.5 21,0 l 0,-7 c 0,0 9,-4.5 6,-10.5 -4,-6.5 -13.5,-3.5 -16,4 l 0,3.5 0,-3.5 C 19,16 9.5,13 6.5,19.5 c -3,6 5,10 5,10 l 0,7.5 z"
style="fill:#ffffff;stroke:#000000"
id="path12"
inkscape:connector-curvature="0" />
<path
d="M 11.5,30 C 17,27 27,27 32.5,30"
style="fill:none;stroke:#000000"
id="path14"
inkscape:connector-curvature="0" />
<path
d="m 11.5,33.5 c 5.5,-3 15.5,-3 21,0"
style="fill:none;stroke:#000000"
id="path16"
inkscape:connector-curvature="0" />
<path
d="M 11.5,37 C 17,34 27,34 32.5,37"
style="fill:none;stroke:#000000"
id="path18"
inkscape:connector-curvature="0" />
</g>
</svg>
