<?xml version="1.0" encoding="UTF-8" standalone="no"?>
<!DOCTYPE svg PUBLIC "-//W3C//DTD SVG 1.1//EN" "http://www.w3.org/Graphics/SVG/1.1/DTD/svg11.dtd">
<svg xmlns="http://www.w3.org/2000/svg" version="1.1" width="45" height="45">
  <g style="opacity:1; fill:#ffffff; fill-opacity:1; fill-rule:evenodd; stroke:#000000; stroke-width:1.5; stroke-linecap:round;stroke-linejoin:round;stroke-miterlimit:4; stroke-dasharray:none; stroke-opacity:1;">
    <path
      d="M 9 13 A 2 2 0 1 1  5,13 A 2 2 0 1 1  9 13 z"
      transform="translate(-1,-1)" />
    <path
      d="M 9 13 A 2 2 0 1 1  5,13 A 2 2 0 1 1  9 13 z"
      transform="translate(15.5,-5.5)" />
    <path
      d="M 9 13 A 2 2 0 1 1  5,13 A 2 2 0 1 1  9 13 z"
      transform="translate(32,-1)" />
    <path
      d="M 9 13 A 2 2 0 1 1  5,13 A 2 2 0 1 1  9 13 z"
      transform="translate(7,-4.5)" />
    <path
      d="M 9 13 A 2 2 0 1 1  5,13 A 2 2 0 1 1  9 13 z"
      transform="translate(24,-4)" />
    <path
      d="M 9,26 C 17.5,24.5 30,24.5 36,26 L 38,14 L 31,25 L 31,11 L 25.5,24.5 L 22.5,9.5 L 19.5,24.5 L 14,10.5 L 14,25 L 7,14 L 9,26 z "
      style="stroke-linecap:butt;" />
    <path
      d="M 9,26 C 9,28 10.5,28 11.5,30 C 12.5,31.5 12.5,31 12,33.5 C 10.5,34.5 10.5,36 10.5,36 C 9,37.5 11,38.5 11,38.5 C 17.5,39.5 27.5,39.5 34,38.5 C 34,38.5 35.5,37.5 34,36 C 34,36 34.5,34.5 33,33.5 C 32.5,31 32.5,31.5 33.5,30 C 34.5,28 36,28 36,26 C 27.5,24.5 17.5,24.5 9,26 z "
      style="stroke-linecap:butt;" />
    <path
      d="M 11.5,30 C 15,29 30,29 33.5,30"
      style="fill:none;" />
    <path
      d="M 12,33.5 C 18,32.5 27,32.5 33,33.5"
      style="fill:none;" />
  </g>
</svg>
