<?xml version="1.0" encoding="UTF-8" standalone="no"?>
<!-- Created with Inkscape (http://www.inkscape.org/) -->

<svg
   width="30mm"
   height="34mm"
   viewBox="0 0 30 34"
   version="1.1"
   id="svg1"
   xmlns:xlink="http://www.w3.org/1999/xlink"
   xmlns="http://www.w3.org/2000/svg"
   xmlns:svg="http://www.w3.org/2000/svg">
  <defs
     id="defs1">
    <linearGradient
       id="linearGradient22">
      <stop
         style="stop-color:#ffdba6;stop-opacity:1;"
         offset="0"
         id="stop21" />
      <stop
         style="stop-color:#f2c478;stop-opacity:1;"
         offset="1"
         id="stop22" />
    </linearGradient>
    <clipPath
       clipPathUnits="userSpaceOnUse"
       id="clipPath1278">
      <path
         d="M 0,2834.646 H 2834.646 V 0 H 0 Z"
         transform="translate(-101.8765,-1555.7911)"
         id="path1278" />
    </clipPath>
    <linearGradient
       xlink:href="#linearGradient22"
       id="linearGradient78"
       gradientUnits="userSpaceOnUse"
       gradientTransform="translate(-2279.0557,-212.60334)"
       x1="289.06915"
       y1="220.19536"
       x2="289.06967"
       y2="143.72234" />
  </defs>
  <g
     id="layer1">
    <g
       id="path1277"
       clip-path="url(#clipPath1278)"
       transform="matrix(0.35277776,0,0,-0.35277776,20.939752,8.15154)">
      <path
         style="color:#000000;fill:url(#linearGradient78);stroke-miterlimit:10;-inkscape-stroke:none"
         d="m 0,0 -16.217,5.989 c -0.397,0.146 -0.844,0.146 -1.241,0 L -33.674,0 c -0.531,-0.196 -0.903,-0.627 -0.975,-1.131 l -7.687,-53.534 c -0.122,-0.848 0.627,-1.598 1.595,-1.598 h 23.904 23.903 c 0.969,0 1.717,0.75 1.596,1.598 L 0.975,-1.131 C 0.902,-0.627 0.531,-0.196 0,0"
         id="path145" />
      <path
         style="color:#000000;fill:#4d3608;stroke-miterlimit:10;-inkscape-stroke:none"
         d="m -40.740234,-57.113281 c -1.406573,0 -2.637944,1.165724 -2.4375,2.568359 l 7.6875,53.5351564 c 0.120395,0.84276505 0.731595,1.5150809 1.521484,1.8066406 l 16.216797,5.9902344 c 0.591076,0.2173731 1.237049,0.2173731 1.828125,0 L 0.29492188,0.796875 C 1.085136,0.50519519 1.6946732,-0.16930742 1.8164062,-1.0097656 L 9.5039063,-54.544922 c 0.2001345,-1.402596 -1.0297011,-2.568359 -2.4375001,-2.568359 H -16.837891 Z m 0,1.701172 h 23.902343 23.9042972 c 0.5301992,0 0.7957715,0.333551 0.7539063,0.626953 l -7.6875,53.5332029 c -0.0242668,0.1675408 -0.1559496,0.3547583 -0.42773438,0.4550781 L -16.511719,5.1914062 c -0.202585,0.07396 -0.450026,0.074404 -0.652343,0 L -33.378906,-0.796875 c -0.27211,-0.1004399 -0.40413,-0.2898442 -0.427735,-0.4550781 l -7.6875,-53.5332029 c -0.04208,-0.292456 0.225161,-0.626953 0.753907,-0.626953 z"
         id="path146" />
    </g>
    <path
       style="color:#000000;fill:#000000 icc-color(sRGB-IEC61966-2, 0.1, 0, 0, 0);stroke-width:0.352778;stroke-miterlimit:10;-inkscape-stroke:none"
       d="m 14.774669,22.499786 v -2.999989 h 0.450619 v 2.999989 z"
       id="path1279" />
    <path
       style="fill:#231f20 icc-color(sRGB-IEC61966-2, 0.1, 0.13699341, 0.12199402, 0.125);stroke-width:0.35424"
       d="m 11.699418,16.505924 q -0.0984,-0.429948 -0.295204,-0.760678 0.951212,-0.03308 2.099226,-0.33073 0.918411,-0.231511 1.60722,-0.727605 0.688808,-0.463022 1.344816,-1.190628 l 0.590406,0.463022 q -0.754408,0.760678 -0.984011,0.926043 -0.459205,0.363803 -1.148014,0.694533 -0.459206,0.264584 -1.443218,0.56224 -0.787209,0.198438 -1.771221,0.363803 z M 18.4563,13.661648 17.964294,14.256961 Q 17.013083,13.397064 16.193073,12.90097 l 0.426405,-0.562241 q 1.082413,0.694532 1.836822,1.322919 z m -6.920884,0.926043 q -0.0984,-0.198438 -0.164002,-0.264584 L 11.04341,13.959305 q 0.656008,-0.463022 0.852811,-0.661459 0.360803,-0.297658 0.984011,-0.992191 l 0.623208,0.496096 q -0.131202,0.132291 -0.262404,0.264584 -0.131201,0.132291 -0.262403,0.264583 -0.656008,0.66146 -0.721609,0.694533 -0.524805,0.429949 -0.721608,0.56224 z m 2.853635,-3.175005 V 8.8329935 h 0.721609 v 0.9921896 h 2.55843 v 0.6945319 h -2.55843 v 0.892971 h 3.280039 v 0.727605 H 15.11066 v 1.918233 q 0,0.264583 -0.229603,0.463022 -0.196803,0.165365 -1.016813,0.330729 -0.0328,-0.330729 -0.328004,-0.793751 h 0.721609 q 0.0328,0 0.0984,-0.06614 0.0328,-0.03308 0.0328,-0.09922 v -1.752868 h -3.378445 v -0.727607 h 1.279215 V 9.5275291 h 0.754409 v 1.8851599 z"
       id="text1280"
       aria-label="歩" />
  </g>
</svg>
