<svg xmlns="http://www.w3.org/2000/svg" xmlns:xlink="http://www.w3.org/1999/xlink" width="30mm" height="34mm" viewBox="0 0 30 34"><defs><linearGradient id="a"><stop offset="0" style="stop-color:#ffdba6;stop-opacity:1"/><stop offset="1" style="stop-color:#f2c478;stop-opacity:1"/></linearGradient><linearGradient xlink:href="#a" id="c" x1="289.069" x2="289.07" y1="220.195" y2="143.722" gradientTransform="translate(-2279.056 -212.603)" gradientUnits="userSpaceOnUse"/><clipPath id="b" clipPathUnits="userSpaceOnUse"><path d="M-461.115 1274.429H2373.53v-2834.646H-461.115Z"/></clipPath></defs><g clip-path="url(#b)" transform="matrix(.35278 0 0 -.35278 22.671 6.59)"><path d="m0 0-21.223 7.255a1.62 1.62 0 0 1-1.044 0L-43.49 0c-.512-.175-.879-.593-.956-1.088L-54.328-64.8c-.128-.823.569-1.559 1.477-1.559H9.361c.907 0 1.605.736 1.477 1.559L.955-1.088C.879-.593.512-.175 0 0" style="color:#000;fill:url(#c);stroke-miterlimit:10;-inkscape-stroke:none"/><path d="M-52.852-67.209c-1.367 0-2.528 1.177-2.316 2.54l9.88 63.712c.13.829.736 1.493 1.522 1.762L-22.54 8.06a2.46 2.46 0 0 0 1.592 0h.002L.275.805c.786-.269 1.392-.933 1.52-1.762v-.002l9.883-63.71c.212-1.364-.95-2.54-2.317-2.54h-31.105Zm0 1.701H9.361c.447 0 .681.293.637.576v.002L.115-1.217c-.024.16-.153.331-.39.412l-21.223 7.256V6.45a.78.78 0 0 1-.494 0v.002L-43.215-.805c-.237-.08-.365-.252-.39-.414l-9.883-63.71v-.003c-.044-.283.188-.576.636-.576" style="color:#000;fill:#4d3608;stroke-miterlimit:10;-inkscape-stroke:none"/></g><path d="m661.645 7.7.794.232-.397.562h2.216l.132-.066.463.496q-.066.033-1.058 1.026h2.315v4.663q0 .33-.265.595-.297.265-1.29.298 0-.265-.033-.33 0-.034-.066-.166-.066-.066-.165-.265h.86q.066 0 .1-.033.032-.033.032-.1v-.991h-4.233q-.066.231-.43 1.025-.199.298-.662.76-.231-.33-.595-.595.629-.628.794-1.025.165-.496.231-.926.066-.86.066-2.58-.529.496-.826.662-.199-.331-.53-.596.728-.463 1.257-.992.596-.661 1.29-1.653m-.86 2.25h2.117l.694-.794h-2.083q-.265.264-.43.463-.165.198-.298.33m2.778 1.488h1.72v-.827h-1.72zm-.76-.827h-1.588v.827h1.588zm.76 2.348h1.72v-.926h-1.72zm-2.38 0h1.62v-.926h-1.588q-.033.298-.033.926" aria-label="่ง" style="fill:#000 icc-color(sRGB-IEC61966-2,.1,0,0,0);stroke-width:.352777" transform="translate(-648)"/><path d="m666.165 26.517-6.648-6.716.32-.317 6.648 6.716z" style="color:#000;fill:#000 icc-color(sRGB-IEC61966-2,.1,0,0,0);stroke-width:.352778;stroke-miterlimit:10;-inkscape-stroke:none" transform="translate(-648)"/><path d="M659.452 21v-1.583h1.569v.45h-1.118v1.132zM664.982 26.584v-.45h1.118v-1.132h.45v1.582zM659.837 26.517l-.32-.317 6.648-6.716.32.317z" style="color:#000;fill:#000 icc-color(sRGB-IEC61966-2,.1,0,0,0);stroke-width:.352778;stroke-miterlimit:10;-inkscape-stroke:none" transform="translate(-648)"/><path d="M659.452 26.584v-1.583h.45v1.132h1.119v.451zM666.1 21.041v-1.174h-1.118v-.45h1.568v1.624z" style="color:#000;fill:#000 icc-color(sRGB-IEC61966-2,.1,0,0,0);stroke-width:.352778;stroke-miterlimit:10;-inkscape-stroke:none" transform="translate(-648)"/></svg>