<svg xmlns="http://www.w3.org/2000/svg" xmlns:xlink="http://www.w3.org/1999/xlink" width="102.489" height="118.522" viewBox="0 0 27.117 31.359"><defs><linearGradient id="a"><stop offset="0" style="stop-color:#ffdba6;stop-opacity:1"/><stop offset="1" style="stop-color:#f2c478;stop-opacity:1"/></linearGradient><linearGradient xlink:href="#a" id="c" x1="222.318" x2="222.318" y1="231.283" y2="155.882" gradientTransform="translate(-402.237 -223.091)" gradientUnits="userSpaceOnUse"/><clipPath id="b" clipPathUnits="userSpaceOnUse"><path d="M-174.688 1363.143h2834.646v-2834.646H-174.69Z"/></clipPath></defs><g clip-path="url(#b)" transform="matrix(.35278 0 0 -.35278 20.185 6.566)"><path d="m0 0-18.208 6.244c-.37.127-.78.127-1.15 0L-37.566 0c-.538-.184-.92-.612-.998-1.116l-8.551-55.301c-.13-.841.611-1.59 1.573-1.59H7.976c.962 0 1.703.749 1.573 1.59L.998-1.116C.92-.612.538-.184 0 0" style="color:#000;font-variation-settings:normal;opacity:1;vector-effect:none;fill:url(#c);fill-opacity:1;stroke-width:1;stroke-linecap:butt;stroke-linejoin:miter;stroke-miterlimit:10;stroke-dasharray:none;stroke-dashoffset:0;stroke-opacity:1;-inkscape-stroke:none;stop-color:#000;stop-opacity:1"/><path d="M-45.543-58.857c-1.403 0-2.628 1.171-2.412 2.57l8.55 55.3c.132.847.76 1.517 1.563 1.792l18.207 6.244c.553.19 1.15.19 1.703 0L.275.805C1.08.53 1.707-.14 1.838-.986l8.55-55.301c.217-1.399-1.008-2.57-2.411-2.57h-26.76Zm0 1.7h53.52c.52 0 .776.327.732.61l-8.55 55.3c-.026.162-.162.35-.434.442l-18.21 6.244a.95.95 0 0 1-.597 0L-37.291-.805c-.273-.093-.407-.28-.432-.441l-8.552-55.3c-.044-.284.211-.61.732-.61" style="color:#000;fill:#4d3608;stroke-miterlimit:10;-inkscape-stroke:none"/></g><path d="M15.54 13.505v-1.447h-3.824v1.447zm-3.824 1.171h-.827v-3.341h5.477v3.341h-.826v-.482h-3.824zm1.481-6.924V6.684h.861v1.068h3.41v.689h-3.065q.723.826 1.343 1.309.724.551 1.93 1.137-.242.31-.517.758-1.206-.69-1.792-1.172-.62-.482-1.309-1.309v1.895h-.861v-1.93q-.482.517-1.102 1.034-.31.241-1 .724l-1.102.62q-.344-.483-.551-.655 1.102-.517 1.895-1.102.86-.62 1.447-1.31H9.959v-.688Z" aria-label="杏" style="fill:red;stroke-width:.352777"/><path d="M-.639 0v22.678H.64V0Z" style="color:#000;fill:red;stroke-miterlimit:10;-inkscape-stroke:none" transform="matrix(.35278 0 0 -.35278 13.559 24.68)"/><path d="M-22.678-.639V.64H0V-.64z" style="color:#000;fill:red;stroke-miterlimit:10;-inkscape-stroke:none" transform="matrix(.35278 0 0 -.35278 17.559 20.68)"/><path d="M-.451-.451-8.47 7.566l.903.903L.45.45Z" style="color:#000;fill:red;stroke-miterlimit:10;-inkscape-stroke:none" transform="matrix(.35278 0 0 -.35278 13.559 20.68)"/><path d="m-7.566-8.469-.903.903L-.45.45.45-.45Z" style="color:#000;fill:red;stroke-miterlimit:10;-inkscape-stroke:none" transform="matrix(.35278 0 0 -.35278 16.387 17.851)"/></svg>