<svg xmlns="http://www.w3.org/2000/svg" xmlns:xlink="http://www.w3.org/1999/xlink" width="30mm" height="34mm" viewBox="0 0 30 34"><defs><linearGradient id="a"><stop offset="0" style="stop-color:#ffdba6;stop-opacity:1"/><stop offset="1" style="stop-color:#f2c478;stop-opacity:1"/></linearGradient><linearGradient xlink:href="#a" id="c" x1="289.069" x2="289.07" y1="220.195" y2="143.722" gradientTransform="translate(-2279.056 -212.603)" gradientUnits="userSpaceOnUse"/><clipPath id="b" clipPathUnits="userSpaceOnUse"><path d="M-174.688 1363.143h2834.646v-2834.646H-174.69Z"/></clipPath></defs><g clip-path="url(#b)" transform="matrix(.35278 0 0 -.35278 21.626 7.886)"><path d="m0 0-18.208 6.244c-.37.127-.78.127-1.15 0L-37.566 0c-.538-.184-.92-.612-.998-1.116l-8.551-55.301c-.13-.841.611-1.59 1.573-1.59H7.976c.962 0 1.703.749 1.573 1.59L.998-1.116C.92-.612.538-.184 0 0" style="color:#000;fill:url(#c);stroke-miterlimit:10;-inkscape-stroke:none"/><path d="M-45.543-58.857c-1.403 0-2.628 1.171-2.412 2.57l8.55 55.3c.132.847.76 1.517 1.563 1.792l18.207 6.244c.553.19 1.15.19 1.703 0L.275.805C1.08.53 1.707-.14 1.838-.986l8.55-55.301c.217-1.399-1.008-2.57-2.411-2.57h-26.76Zm0 1.7h53.52c.52 0 .776.327.732.61l-8.55 55.3c-.026.162-.162.35-.434.442l-18.21 6.244a.95.95 0 0 1-.597 0L-37.291-.805c-.273-.093-.407-.28-.432-.441l-8.552-55.3c-.044-.284.211-.61.732-.61" style="color:#000;fill:#4d3608;stroke-miterlimit:10;-inkscape-stroke:none"/></g><path d="M232.981 14.825v-1.447h-3.824v1.447zm-3.824 1.172h-.827v-3.342h5.478v3.342h-.827v-.483h-3.824zm1.481-6.925V8.004h.862v1.068h3.41v.689h-3.066q.724.827 1.344 1.31.723.55 1.93 1.136-.242.31-.518.758-1.205-.69-1.791-1.171-.62-.483-1.31-1.31v1.895h-.86V10.45q-.483.517-1.103 1.034-.31.24-.999.723l-1.102.62q-.345-.482-.552-.654 1.103-.517 1.895-1.103.861-.62 1.447-1.309H227.4v-.689Z" aria-label="杏" style="fill:red;stroke-width:.352777" transform="translate(-216)"/><path d="M230.775 26v-8h.45v8z" style="color:#000;fill:red;stroke-width:.352778;stroke-miterlimit:10;-inkscape-stroke:none" transform="translate(-216)"/><path d="M227 22.225v-.45h8v.45z" style="color:#000;fill:red;stroke-width:.352778;stroke-miterlimit:10;-inkscape-stroke:none" transform="translate(-216)"/><path d="m230.84 22.16-2.827-2.83.318-.318 2.828 2.829z" style="color:#000;fill:red;stroke-width:.352778;stroke-miterlimit:10;-inkscape-stroke:none" transform="translate(-216)"/><path d="m231.16 22.16-.32-.32 2.83-2.828.318.319z" style="color:#000;fill:red;stroke-width:.352778;stroke-miterlimit:10;-inkscape-stroke:none" transform="translate(-216)"/></svg>