<svg xmlns="http://www.w3.org/2000/svg" xmlns:xlink="http://www.w3.org/1999/xlink" width="30mm" height="34mm" viewBox="0 0 30 34"><defs><linearGradient id="a"><stop offset="0" style="stop-color:#ffdba6;stop-opacity:1"/><stop offset="1" style="stop-color:#f2c478;stop-opacity:1"/></linearGradient><linearGradient xlink:href="#a" id="c" x1="289.069" x2="289.07" y1="220.195" y2="143.722" gradientTransform="translate(-2279.056 -212.603)" gradientUnits="userSpaceOnUse"/><clipPath id="b" clipPathUnits="userSpaceOnUse"><path d="M-461.115 1359.468H2373.53v-2834.646H-461.115Z"/></clipPath></defs><g clip-path="url(#b)" transform="matrix(.35278 0 0 -.35278 22.671 6.59)"><path d="m0 0-21.223 7.255a1.62 1.62 0 0 1-1.044 0L-43.49 0c-.512-.175-.879-.592-.956-1.088L-54.328-64.8c-.128-.823.569-1.559 1.477-1.559H9.361c.907 0 1.605.736 1.477 1.559L.955-1.088C.879-.592.512-.175 0 0" style="color:#000;fill:url(#c);stroke-miterlimit:10;-inkscape-stroke:none"/><path d="M-52.852-67.209c-1.367 0-2.528 1.177-2.316 2.54l9.88 63.712c.13.83.737 1.493 1.522 1.762L-22.54 8.06a2.46 2.46 0 0 0 1.592 0h.002L.275.805C1.06.536 1.667-.127 1.795-.957v-.002l9.883-63.71c.212-1.364-.95-2.54-2.317-2.54h-31.105Zm0 1.701H9.361c.447 0 .681.293.637.576v.002L.115-1.217c-.024.162-.152.33-.39.412l-21.223 7.256V6.45a.78.78 0 0 1-.494 0v.002L-43.215-.805c-.238-.081-.365-.251-.39-.414l-9.883-63.71v-.003c-.044-.283.188-.576.636-.576" style="color:#000;fill:#4d3608;stroke-miterlimit:10;-inkscape-stroke:none"/></g><path d="m732.918 13.521.628-.132q.231.662.364 1.29l-.695.165q-.033-.529-.297-1.323m-1.092-.231.662.231q-.232.86-.596 1.621l-.661-.298q.264-.628.595-1.554m2.547.165.562-.198q.232.364.496 1.157l-.595.232q-.133-.397-.463-1.19m1.918.86-.562-1.025.562-.265q.298.43.595.992zm-1.588-2.15v-.727h-1.95v.727zm0-1.356v-.661h-1.95v.661zm0-1.256V8.89h-1.95v.662zm-2.711 3.505V8.197h6.25v.694h-2.778v.662h2.348v.595h-2.348v.661h2.348v.629h-2.348v.727h3.043q-.033 2.018-.199 2.58-.066.364-.297.463-.397.232-1.323.364-.033-.298-.298-.86h.794q.265 0 .298-.1.132-.23.165-1.785h-4.895v.231z" aria-label="ждг" style="fill:red;stroke-width:.352777" transform="translate(-720)"/><path d="m738.165 26.517-6.648-6.717.32-.317 6.648 6.717z" style="color:#000;fill:red;stroke-width:.352778;stroke-miterlimit:10;-inkscape-stroke:none" transform="translate(-720)"/><path d="M731.452 20.999v-1.582h1.568v.45h-1.117v1.132zM736.982 26.583v-.45h1.118v-1.131h.45v1.581zM731.837 26.517l-.32-.316 6.648-6.718.32.317z" style="color:#000;fill:red;stroke-width:.352778;stroke-miterlimit:10;-inkscape-stroke:none" transform="translate(-720)"/><path d="M731.452 26.584V25h.45v1.132h1.119v.45zM738.1 21v-1.133h-1.118v-.45h1.568v1.582zM734.775 25.5v-5h.45v5z" style="color:#000;fill:red;stroke-width:.352778;stroke-miterlimit:10;-inkscape-stroke:none" transform="translate(-720)"/><path d="M732.5 23.225v-.45h5v.45z" style="color:#000;fill:red;stroke-width:.352778;stroke-miterlimit:10;-inkscape-stroke:none" transform="translate(-720)"/></svg>