<?xml version="1.0" encoding="UTF-8" standalone="no"?>
<!-- Created with Inkscape (http://www.inkscape.org/) -->

<svg
   width="26mm"
   height="30mm"
   viewBox="0 0 26 30"
   version="1.1"
   id="svg1"
   xmlns:xlink="http://www.w3.org/1999/xlink"
   xmlns="http://www.w3.org/2000/svg"
   xmlns:svg="http://www.w3.org/2000/svg">
  <defs
     id="defs1">
    <linearGradient
       id="linearGradient22">
      <stop
         style="stop-color:#ffdba6;stop-opacity:1;"
         offset="0"
         id="stop21" />
      <stop
         style="stop-color:#f2c478;stop-opacity:1;"
         offset="1"
         id="stop22" />
    </linearGradient>
    <clipPath
       clipPathUnits="userSpaceOnUse"
       id="clipPath1278-3">
      <path
         d="M 0,2834.646 H 2834.646 V 0 H 0 Z"
         transform="translate(-101.8765,-1555.7911)"
         id="path1278-1" />
    </clipPath>
    <linearGradient
       xlink:href="#linearGradient22"
       id="linearGradient2"
       gradientUnits="userSpaceOnUse"
       gradientTransform="translate(-2381.1029,-212.60334)"
       x1="289.06915"
       y1="220.19536"
       x2="289.06967"
       y2="143.72234" />
  </defs>
  <g
     id="layer1"
     transform="translate(-36)">
    <g
       id="path1277-2"
       clip-path="url(#clipPath1278-3)"
       transform="matrix(-0.35277776,0,0,0.35277776,43.326792,24.342536)">
      <path
         style="color:#000000;fill:url(#linearGradient2);stroke-miterlimit:10;-inkscape-stroke:none"
         d="m 0,0 -16.217,5.989 c -0.397,0.146 -0.844,0.146 -1.241,0 L -33.674,0 c -0.531,-0.196 -0.903,-0.627 -0.975,-1.131 l -7.687,-53.534 c -0.122,-0.848 0.627,-1.598 1.595,-1.598 h 23.904 23.903 c 0.969,0 1.717,0.75 1.596,1.598 L 0.975,-1.131 C 0.902,-0.627 0.531,-0.196 0,0"
         id="path143" />
      <path
         style="color:#000000;fill:#4d3608;stroke-miterlimit:10;-inkscape-stroke:none"
         d="m -40.740234,-57.113281 c -1.406573,0 -2.637944,1.165724 -2.4375,2.568359 l 7.6875,53.5351564 c 0.120395,0.84276505 0.731595,1.5150809 1.521484,1.8066406 l 16.216797,5.9902344 c 0.591076,0.2173731 1.237049,0.2173731 1.828125,0 L 0.29492188,0.796875 C 1.085136,0.50519519 1.6946732,-0.16930742 1.8164062,-1.0097656 L 9.5039063,-54.544922 c 0.2001345,-1.402596 -1.0297011,-2.568359 -2.4375001,-2.568359 H -16.837891 Z m 0,1.701172 h 23.902343 23.9042972 c 0.5301992,0 0.7957715,0.333551 0.7539063,0.626953 l -7.6875,53.5332029 c -0.0242668,0.1675408 -0.1559496,0.3547583 -0.42773438,0.4550781 L -16.511719,5.1914062 c -0.202585,0.07396 -0.450026,0.074404 -0.652343,0 L -33.378906,-0.796875 c -0.27211,-0.1004399 -0.40413,-0.2898442 -0.427735,-0.4550781 l -7.6875,-53.5332029 c -0.04208,-0.292456 0.225161,-0.626953 0.753907,-0.626953 z"
         id="path144" />
    </g>
    <path
       style="color:#000000;fill:#000000 icc-color(sRGB-IEC61966-2, 0.1, 0, 0, 0);stroke-miterlimit:10;-inkscape-stroke:none"
       d="M -0.63867187,0 V 8.5039063 H 0.63867187 V 0 Z"
       id="path1279-6"
       transform="matrix(-0.35277776,0,0,0.35277776,49.266566,9.9942897)" />
    <path
       style="fill:#231f20 icc-color(sRGB-IEC61966-2, 0.1, 0.13699341, 0.12199402, 0.125);stroke-width:0.35424"
       d="m -52.785096,-15.922132 q -0.09881,-0.428174 -0.296427,-0.757538 0.955155,-0.03294 2.107929,-0.329364 0.92222,-0.230555 1.613884,-0.724601 0.691665,-0.461109 1.350393,-1.18571 l 0.592855,0.461109 q -0.757537,0.757538 -0.988092,0.92222 -0.46111,0.3623 -1.152774,0.691664 -0.46111,0.263492 -1.449202,0.559919 -0.790474,0.197619 -1.778566,0.362301 z m 6.7849,-2.832531 -0.494046,0.592855 q -0.955156,-0.856346 -1.778566,-1.350393 l 0.428173,-0.559918 q 1.086901,0.691664 1.844439,1.317456 z m -6.949582,0.922219 q -0.09881,-0.197618 -0.164682,-0.263491 l -0.329364,-0.362301 q 0.658728,-0.461109 0.856347,-0.658728 0.3623,-0.296427 0.988092,-0.988092 l 0.625791,0.494046 q -0.131745,0.131746 -0.263491,0.263491 -0.131745,0.131746 -0.263491,0.263492 -0.658728,0.658728 -0.724601,0.691664 -0.526982,0.428173 -0.724601,0.559919 z m 2.865467,-3.161895 v -2.569039 h 0.724601 v 0.988092 h 2.56904 v 0.691664 h -2.56904 v 0.889283 h 3.293641 v 0.724601 h -3.293641 v 1.910312 q 0,0.263491 -0.230555,0.461109 -0.197618,0.164682 -1.021028,0.329364 -0.03294,-0.329364 -0.329364,-0.790473 h 0.724601 q 0.03294,0 0.09881,-0.06587 0.03294,-0.03294 0.03294,-0.09881 v -1.74563 h -3.392449 v -0.724601 h 1.284519 v -1.877375 h 0.757538 v 1.877375 z"
       id="text1280-8"
       transform="scale(-0.99587063,-1.0041465)"
       aria-label="歩" />
  </g>
</svg>
