<?xml version="1.0" encoding="UTF-8" standalone="no"?>
<!-- Created with Inkscape (http://www.inkscape.org/) -->

<svg
   width="26mm"
   height="30mm"
   viewBox="0 0 26 30"
   version="1.1"
   id="svg1"
   xmlns:xlink="http://www.w3.org/1999/xlink"
   xmlns="http://www.w3.org/2000/svg"
   xmlns:svg="http://www.w3.org/2000/svg">
  <defs
     id="defs1">
    <linearGradient
       id="linearGradient22">
      <stop
         style="stop-color:#ffdba6;stop-opacity:1;"
         offset="0"
         id="stop21" />
      <stop
         style="stop-color:#f2c478;stop-opacity:1;"
         offset="1"
         id="stop22" />
    </linearGradient>
    <clipPath
       clipPathUnits="userSpaceOnUse"
       id="clipPath1316">
      <path
         d="M 0,2834.646 H 2834.646 V 0 H 0 Z"
         transform="translate(-531.98141,-1560.2174)"
         id="path1316" />
    </clipPath>
    <linearGradient
       xlink:href="#linearGradient22"
       id="linearGradient26"
       gradientUnits="userSpaceOnUse"
       gradientTransform="translate(-4626.1413,-212.60334)"
       x1="289.06915"
       y1="220.19536"
       x2="289.06967"
       y2="143.72234" />
  </defs>
  <g
     id="layer1"
     transform="translate(-828)">
    <g
       id="path52"
       clip-path="url(#clipPath1316)"
       transform="matrix(-0.35277776,0,0,0.35277776,833.32884,25.410075)">
      <path
         style="color:#000000;fill:url(#linearGradient26);stroke-miterlimit:10;-inkscape-stroke:none"
         d="m 0,0 -21.223,7.255 c -0.337,0.115 -0.707,0.115 -1.044,0 L -43.49,0 c -0.512,-0.175 -0.879,-0.593 -0.956,-1.088 L -54.328,-64.8 c -0.128,-0.823 0.569,-1.559 1.477,-1.559 h 31.106 31.106 c 0.907,0 1.605,0.736 1.477,1.559 L 0.955,-1.088 C 0.879,-0.593 0.512,-0.175 0,0"
         id="path99" />
      <path
         style="color:#000000;fill:#4d3608;stroke-miterlimit:10;-inkscape-stroke:none"
         d="m -52.851562,-67.208984 c -1.367537,0 -2.528283,1.176762 -2.316407,2.539062 l 9.88086,63.71289075 c 0.128904,0.82867416 0.735013,1.49290547 1.521484,1.76171875 l 21.224609,7.2558594 c 0.517057,0.1764437 1.07474,0.1764437 1.591797,0 h 0.002 L 0.27539063,0.8046875 C 1.0612847,0.53607135 1.6668921,-0.12796836 1.7949219,-0.95703125 v -0.001953 L 11.677734,-64.669922 c 0.21198,-1.362964 -0.949363,-2.539062 -2.3164059,-2.539062 H -21.744141 Z m 0,1.701172 h 31.107421 31.1054691 c 0.4469549,0 0.6807389,0.293137 0.6367188,0.576171 v 0.002 L 0.11523437,-1.2167969 c -0.02457878,0.1600856 -0.15309689,0.33092303 -0.390625,0.4121094 L -21.498047,6.4511719 v -0.00195 c -0.156942,0.053556 -0.337198,0.053556 -0.49414,0 v 0.00195 l -21.222657,-7.2558594 c -0.237528,-0.0811864 -0.36553,-0.2527376 -0.390625,-0.4140625 l -9.882812,-63.710937 v -0.002 c -0.04412,-0.283698 0.188257,-0.576171 0.636719,-0.576171 z"
         id="path100" />
    </g>
    <path
       style="color:#000000;fill:#000000 icc-color(sRGB-IEC61966-2, 0.1, 0, 0, 0);stroke-miterlimit:10;-inkscape-stroke:none"
       d="M -0.63867187,0 V 23.693359 H 0.63867187 V 0 Z"
       id="path53"
       transform="matrix(-0.35277776,0,0,0.35277776,841.00007,4.8206158)" />
    <path
       style="color:#000000;fill:#231f20 icc-color(sRGB-IEC61966-2, 0.1, 0.13699341, 0.12199402, 0.125);stroke-miterlimit:10;-inkscape-stroke:none"
       d="M 0.45117188,-0.45117188 -0.45117188,0.45117188 2.3925781,3.2949219 5.2382812,0.45117188 4.3359375,-0.45117188 2.3925781,1.4902344 Z"
       id="path54"
       transform="matrix(-0.35277776,0,0,0.35277776,841.8444,12.334782)" />
    <path
       style="color:#000000;fill:#000000 icc-color(sRGB-IEC61966-2, 0.1, 0, 0, 0);stroke-miterlimit:10;-inkscape-stroke:none"
       d="m -2.3925781,-3.2949219 -2.8457031,2.84375002 0.9023437,0.90234376 1.9433594,-1.94140628 1.94140622,1.94140628 0.90234376,-0.90234376 z"
       id="path55"
       transform="matrix(-0.35277776,0,0,0.35277776,840.15573,5.6649798)" />
    <path
       style="color:#000000;fill:#000000 icc-color(sRGB-IEC61966-2, 0.1, 0, 0, 0);stroke-miterlimit:10;-inkscape-stroke:none"
       d="M -23.693359,-0.63867187 V 0.63867187 H 0 v -1.27734374 z"
       id="path56"
       transform="matrix(-0.35277776,0,0,0.35277776,836.82078,8.9998678)" />
    <path
       style="color:#000000;fill:#000000 icc-color(sRGB-IEC61966-2, 0.1, 0, 0, 0);stroke-miterlimit:10;-inkscape-stroke:none"
       d="M -0.45117188,-0.45117188 -3.2949219,2.3925781 -0.45117188,5.2382812 0.45117188,4.3359375 -1.4902344,2.3925781 0.45117188,0.45117188 Z"
       id="path57"
       transform="matrix(-0.35277776,0,0,0.35277776,844.33501,8.1555298)" />
    <path
       style="color:#000000;fill:#000000 icc-color(sRGB-IEC61966-2, 0.1, 0, 0, 0);stroke-miterlimit:10;-inkscape-stroke:none"
       d="M 0.45117188,-5.2382812 -0.45117188,-4.3359375 1.4902344,-2.3925781 -0.45117188,-0.45117188 0.45117188,0.45117188 3.2949219,-2.3925781 Z"
       id="path58"
       transform="matrix(-0.35277776,0,0,0.35277776,837.66511,9.8442058)" />
    <path
       style="fill:#000000 icc-color(sRGB-IEC61966-2, 0.1, 0, 0, 0);stroke-width:0.352777"
       d="m -841.52935,-20.661331 v -2.282032 h 0.7276 v 2.282032 h 1.5875 q 0,0.826824 0.0331,1.289845 l 0.85989,-0.793751 0.52917,0.496094 -0.69453,0.595313 0.85989,0.330729 -0.33073,0.628386 q -0.0661,-0.03307 -0.42994,-0.165365 -0.33073,-0.165364 -0.66146,-0.297656 0.26458,0.628386 0.59531,0.992188 0.26458,0.264583 0.3638,0.264583 0.0331,0 0.0992,-0.06615 0.0992,-0.165364 0.19844,-0.562239 0.16536,0.132291 0.62838,0.396875 -0.16536,0.595312 -0.3638,0.760677 -0.19844,0.198438 -0.42995,0.198438 -0.3638,0 -0.89297,-0.363803 -0.46302,-0.330729 -0.7276,-0.992187 -0.29766,-0.727605 -0.33073,-2.017449 h -0.89297 v 3.406512 h -0.7276 v -3.406512 h -1.12448 q -0.0661,1.025261 -0.16537,1.389063 -0.16536,0.529167 -0.33073,0.826823 -0.39687,0.529167 -0.42994,0.595313 -0.0661,0.09922 -0.69454,0.628386 -0.33072,-0.463022 -0.52916,-0.628386 0.56224,-0.429948 0.79375,-0.727605 0.29765,-0.429948 0.42995,-0.826823 0.13229,-0.429948 0.19843,-1.256771 h -1.28984 v -0.694532 h 1.28984 v -1.058333 q -0.19843,0.06615 -1.12448,0.297656 -0.19843,-0.463021 -0.33073,-0.694532 0.69454,-0.09922 1.09141,-0.198437 0.33073,-0.09922 1.52136,-0.496094 l 0.3638,0.595313 q -0.39688,0.165364 -0.76068,0.297656 v 1.256771 z m 1.65364,-2.480469 h -4.59713 v -0.694532 h 5.29167 q -0.0331,0.297656 0.0331,0.992188 0.19844,-0.231511 0.42995,-0.463021 0.23151,-0.264584 0.46302,-0.496094 l 0.52916,0.529167 q -0.23151,0.198437 -0.46302,0.396875 -0.19843,0.165365 -0.39687,0.330729 0.0992,0.03307 0.33073,0.132292 0.26458,0.06615 0.69453,0.198438 l -0.29766,0.595312 -1.15755,-0.429948 q 0.26458,0.496094 0.66146,0.892969 0.23151,0.231511 0.39687,0.231511 0.0331,0 0.0992,-0.06615 0,0 0.16537,-0.463021 0.23151,0.23151 0.66146,0.396875 -0.26459,0.628386 -0.36381,0.727605 -0.16536,0.165364 -0.33073,0.165364 -0.3638,0 -0.92604,-0.363802 -0.59531,-0.363802 -0.82682,-0.892969 -0.29766,-0.529167 -0.39688,-1.719792 z"
       id="text58"
       transform="scale(-1)"
       aria-label="飛" />
  </g>
</svg>
