<svg xmlns="http://www.w3.org/2000/svg" xmlns:xlink="http://www.w3.org/1999/xlink" width="102.489" height="118.522" viewBox="0 0 27.117 31.359"><defs><linearGradient xlink:href="#a" id="c" x1="-121.227" x2="-121.227" y1="-18.261" y2="47.788" gradientTransform="rotate(180 -84.604 -5.535)" gradientUnits="userSpaceOnUse"/><linearGradient id="a"><stop offset="0" style="stop-color:#ffdba6;stop-opacity:1"/><stop offset="1" style="stop-color:#f2c478;stop-opacity:1"/></linearGradient><clipPath id="b" clipPathUnits="userSpaceOnUse"><path d="M-174.688 1278.104h2834.646v-2834.646H-174.69Z"/></clipPath></defs><g clip-path="url(#b)" transform="matrix(-.35278 0 0 .35278 6.934 24.793)"><path d="m0 0-18.208 6.244c-.37.127-.78.127-1.15 0L-37.566 0c-.538-.184-.92-.612-.998-1.116l-8.551-55.301c-.13-.841.611-1.59 1.573-1.59H7.976c.962 0 1.703.749 1.573 1.59L.998-1.116C.92-.612.538-.184 0 0" style="color:#000;fill:url(#c);stroke-miterlimit:10;-inkscape-stroke:none"/><path d="M-45.543-58.857c-1.403 0-2.628 1.171-2.412 2.57l8.55 55.3c.132.847.76 1.517 1.563 1.792l18.207 6.244c.553.19 1.15.19 1.703 0L.275.805C1.08.53 1.707-.14 1.838-.986l8.55-55.301c.217-1.399-1.008-2.57-2.411-2.57h-26.76Zm0 1.7h53.52c.52 0 .776.327.732.61l-8.55 55.3c-.026.162-.162.35-.434.442l-18.21 6.244a.95.95 0 0 1-.597 0L-37.291-.805c-.273-.093-.407-.28-.432-.441l-8.552-55.3c-.044-.284.211-.61.732-.61" style="color:#000;fill:#4d3608;stroke-miterlimit:10;-inkscape-stroke:none"/></g><path d="M11.906 17.7v.694h3.374v-.695zm0 1.322v.53h3.374v-.53zm1.29 2.48v-1.157h.728v1.091q.926-.76 1.687-1.256h-4.2q.264.132.925.628.1.066.86.695m0 1.886v-.728h-3.34v-.727h2.811q-.727-.629-1.389-.96-.595-.363-1.687-.727.232-.232.298-.364l.198-.33q.497.23 1.026.495V16.74h.793v.33h3.374v-.363h.76v3.241q.662-.33.993-.463.165.33.198.43.033.066.232.265-1.489.529-3.076 1.753h2.844v.727h-3.307v.662q1.19-.133 2.315-.166.066.232.165.43.067.232.1.265-1.886.099-3.076.198-1.059.132-2.084.33l-.463-.66q1.059-.199 2.315-.331" aria-label="ждЎ" style="fill:#000 icc-color(sRGB-IEC61966-2,.1,0,0,0);stroke-width:.352777"/><path d="M13.785 8.68V14.6h-.45V8.68Z" style="color:#000;fill:#000 icc-color(sRGB-IEC61966-2,.1,0,0,0);stroke-width:.352778;stroke-miterlimit:10;-inkscape-stroke:none"/><path d="m14.195 13.65.318.318-.953.95-.953-.95.318-.319.635.634z" style="color:#000;fill:#000 icc-color(sRGB-IEC61966-2,.1,0,0,0);stroke-width:.352778;stroke-miterlimit:10;-inkscape-stroke:none"/></svg>