<?xml version="1.0" encoding="UTF-8" standalone="no"?>
<!-- Created with Inkscape (http://www.inkscape.org/) -->

<svg
   width="30mm"
   height="34mm"
   viewBox="0 0 30 34"
   version="1.1"
   id="svg1"
   xmlns:xlink="http://www.w3.org/1999/xlink"
   xmlns="http://www.w3.org/2000/svg"
   xmlns:svg="http://www.w3.org/2000/svg">
  <defs
     id="defs1">
    <linearGradient
       id="linearGradient22">
      <stop
         style="stop-color:#ffdba6;stop-opacity:1;"
         offset="0"
         id="stop21" />
      <stop
         style="stop-color:#f2c478;stop-opacity:1;"
         offset="1"
         id="stop22" />
    </linearGradient>
    <clipPath
       clipPathUnits="userSpaceOnUse"
       id="clipPath1360">
      <path
         d="M 0,2834.646 H 2834.646 V 0 H 0 Z"
         transform="translate(-531.98141,-1475.1781)"
         id="path1360" />
    </clipPath>
    <linearGradient
       xlink:href="#linearGradient22"
       id="linearGradient56"
       gradientUnits="userSpaceOnUse"
       gradientTransform="translate(-2279.0557,-212.60334)"
       x1="289.06915"
       y1="220.19536"
       x2="289.06967"
       y2="143.72234" />
  </defs>
  <g
     id="layer1"
     transform="translate(-900)">
    <g
       id="path59"
       clip-path="url(#clipPath1360)"
       transform="matrix(-0.35277776,0,0,0.35277776,907.32883,27.410075)">
      <path
         style="color:#000000;fill:url(#linearGradient56);stroke-miterlimit:10;-inkscape-stroke:none"
         d="m 0,0 -21.223,7.255 c -0.337,0.115 -0.707,0.115 -1.044,0 L -43.49,0 c -0.512,-0.175 -0.879,-0.592 -0.956,-1.088 L -54.328,-64.8 c -0.128,-0.823 0.569,-1.559 1.477,-1.559 h 31.106 31.106 c 0.907,0 1.605,0.736 1.477,1.559 L 0.955,-1.088 C 0.879,-0.592 0.512,-0.175 0,0"
         id="path95" />
      <path
         style="color:#000000;fill:#4d3608;stroke-miterlimit:10;-inkscape-stroke:none"
         d="m -52.851562,-67.208984 c -1.367537,0 -2.528283,1.176762 -2.316407,2.539062 l 9.88086,63.71289075 c 0.128752,0.82936477 0.735951,1.49322613 1.521484,1.76171875 l 21.224609,7.2558594 c 0.517057,0.1764437 1.07474,0.1764437 1.591797,0 h 0.002 L 0.27539063,0.8046875 C 1.060348,0.53639151 1.6670432,-0.12728558 1.7949219,-0.95703125 v -0.001953 L 11.677734,-64.669922 c 0.21198,-1.362964 -0.949363,-2.539062 -2.3164059,-2.539062 H -21.744141 Z m 0,1.701172 h 31.107421 31.1054691 c 0.4469549,0 0.6807389,0.293137 0.6367188,0.576171 v 0.002 L 0.11523437,-1.2167969 c -0.02473099,0.1614023 -0.15215872,0.33060237 -0.390625,0.4121094 L -21.498047,6.4511719 v -0.00195 c -0.156942,0.053556 -0.337198,0.053556 -0.49414,0 v 0.00195 l -21.222657,-7.2558594 c -0.238466,-0.081507 -0.365377,-0.2514283 -0.390625,-0.4140625 l -9.882812,-63.710937 v -0.002 c -0.04412,-0.283698 0.188257,-0.576171 0.636719,-0.576171 z"
         id="path96" />
    </g>
    <path
       style="color:#000000;fill:#ff0000;stroke-width:0.352778;stroke-miterlimit:10;-inkscape-stroke:none"
       d="m 915.22537,6.8205965 v 8.3584905 h -0.45061 V 6.8205965 Z"
       id="path60" />
    <path
       style="color:#000000;fill:#ff0000;stroke-width:0.352778;stroke-miterlimit:10;-inkscape-stroke:none"
       d="m 915.68523,14.175653 0.31833,0.318327 -1.00321,1.003212 -1.0039,-1.003212 0.31832,-0.318327 0.68558,0.684885 z"
       id="path61" />
    <path
       style="color:#000000;fill:#ff0000;stroke-width:0.352778;stroke-miterlimit:10;-inkscape-stroke:none"
       d="m 914.99977,6.5025604 1.0039,1.0032117 -0.31832,0.3183268 -0.68558,-0.6848849 -0.68488,0.6848849 -0.31833,-0.3183268 z"
       id="path62" />
    <path
       style="color:#000000;fill:#ff0000;stroke-width:0.352778;stroke-miterlimit:10;-inkscape-stroke:none"
       d="m 919.17926,10.774593 v 0.450619 h -8.35849 v -0.450619 z"
       id="path63" />
    <path
       style="color:#000000;fill:#ff0000;stroke-width:0.352778;stroke-miterlimit:10;-inkscape-stroke:none"
       d="m 918.49417,9.9964011 1.00321,1.0032119 -1.00321,1.003901 -0.31833,-0.318327 0.68489,-0.685574 -0.68489,-0.684885 z"
       id="path64" />
    <path
       style="color:#000000;fill:#ff0000;stroke-width:0.352778;stroke-miterlimit:10;-inkscape-stroke:none"
       d="m 911.50594,9.9962384 0.31833,0.3183266 -0.68489,0.685574 0.68489,0.684885 -0.31833,0.318327 -1.00321,-1.003212 z"
       id="path65" />
    <path
       style="fill:#ff0000;stroke-width:0.352777"
       d="m 916.1908,20.643968 v 0.496094 h 1.45521 v -0.496094 z m 0,1.025261 v 0.529167 h 1.45521 v -0.529167 z m 2.18281,-3.141929 v 4.365627 h -2.91041 v -3.538803 q 0,-0.33073 0.19843,-0.529167 0.26459,-0.198438 0.82683,-0.297657 0.0331,0.297657 0.0992,0.463021 0,0.03307 0.0661,0.132292 0.0661,0.06615 0.16537,0.165365 h -0.42995 q -0.13229,0 -0.16537,0.03307 -0.0331,0.03307 -0.0331,0.132291 v 0.595313 h 1.45521 v -1.521355 z m -3.67109,5.324742 v 2.282032 h -0.79375 v -0.628385 h -2.38125 v -0.595313 h 2.38125 v -0.496094 h -2.38125 v -1.68672 h 2.44739 v -0.496094 h -2.21588 V 21.80152 h 2.21588 v -0.463021 h -2.21588 v -0.463021 h 2.21588 v -0.463021 h -2.21588 v -0.463021 h 2.21588 v -0.396875 q 0,-0.23151 -0.13229,-0.264583 -0.0661,-0.06615 -0.46302,-0.06615 h -0.92604 q -0.33073,0 -0.3638,0.03307 -0.29766,0.09922 -0.33073,0.529167 -0.33073,-0.231511 -0.66146,-0.33073 0.13229,-0.496094 0.3638,-0.661458 0.23151,-0.198438 0.52917,-0.198438 h 1.71979 q 0.3638,0 0.56224,0.06615 0.16537,0.03307 0.33073,0.264583 0.0992,0.132292 0.0992,0.429949 v 3.935678 h -2.4474 v 0.56224 z m 1.85208,0.09922 -0.26458,0.992188 h 1.19063 q -0.16537,-0.529167 -0.29766,-0.992188 z m 0.72761,1.554428 v 0.661458 h -0.79375 V 25.50569 h -1.32292 v -0.56224 h 0.39688 l 0.33072,-0.992188 h -0.89296 v -0.661459 h 3.77031 v 0.661459 h -0.89297 q 0,0.09922 0.0992,0.429948 0.0992,0.363802 0.16536,0.56224 h 0.4961 v 0.56224 z"
       id="text65"
       aria-label="é¾" />
    <path
       style="color:#000000;fill:#ff0000;stroke-width:0.352778;stroke-miterlimit:10;-inkscape-stroke:none"
       d="m 912.69451,8.3761191 4.92924,4.9299319 -0.31833,0.318326 -4.92924,-4.9299311 z"
       id="path66" />
    <path
       style="color:#000000;fill:#ff0000;stroke-width:0.352778;stroke-miterlimit:10;-inkscape-stroke:none"
       d="m 917.30542,8.375719 0.31833,0.3183266 -4.92924,4.9299314 -0.31833,-0.318327 z"
       id="path67" />
  </g>
</svg>
