<?xml version="1.0" encoding="UTF-8" standalone="no"?>
<!-- Created with Inkscape (http://www.inkscape.org/) -->

<svg
   width="30mm"
   height="34mm"
   viewBox="0 0 30 34"
   version="1.1"
   id="svg1"
   xmlns:xlink="http://www.w3.org/1999/xlink"
   xmlns="http://www.w3.org/2000/svg"
   xmlns:svg="http://www.w3.org/2000/svg">
  <defs
     id="defs1">
    <linearGradient
       id="linearGradient22">
      <stop
         style="stop-color:#ffdba6;stop-opacity:1;"
         offset="0"
         id="stop21" />
      <stop
         style="stop-color:#f2c478;stop-opacity:1;"
         offset="1"
         id="stop22" />
    </linearGradient>
    <clipPath
       clipPathUnits="userSpaceOnUse"
       id="clipPath1350">
      <path
         d="M 0,2834.646 H 2834.646 V 0 H 0 Z"
         transform="translate(-101.8765,-1470.7517)"
         id="path1350" />
    </clipPath>
    <linearGradient
       xlink:href="#linearGradient22"
       id="linearGradient5322"
       gradientUnits="userSpaceOnUse"
       gradientTransform="translate(-2279.0557,-212.60334)"
       x1="289.06915"
       y1="220.19536"
       x2="289.06967"
       y2="143.72234" />
  </defs>
  <g
     id="layer1"
     transform="translate(-108)">
    <g
       id="path12"
       clip-path="url(#clipPath1350)"
       transform="matrix(-0.35277776,0,0,0.35277776,117.06025,25.848636)">
      <path
         style="color:#000000;fill:url(#linearGradient5322);stroke-miterlimit:10;-inkscape-stroke:none"
         d="m 0,0 -16.217,5.989 c -0.397,0.146 -0.844,0.146 -1.241,0 L -33.674,0 c -0.531,-0.196 -0.903,-0.628 -0.975,-1.131 l -7.687,-53.534 c -0.122,-0.848 0.627,-1.599 1.595,-1.599 h 23.904 23.903 c 0.969,0 1.717,0.751 1.596,1.599 L 0.975,-1.131 C 0.902,-0.628 0.531,-0.196 0,0"
         id="path139" />
      <path
         style="color:#000000;fill:#4d3608;stroke-miterlimit:10;-inkscape-stroke:none"
         d="m -40.740234,-57.115234 c -1.407158,0 -2.637958,1.167583 -2.4375,2.570312 l 7.6875,53.5351564 c 0.12054,0.84210769 0.730714,1.51475552 1.521484,1.8066406 l 16.216797,5.9902344 c 0.591076,0.2173731 1.237049,0.2173731 1.828125,0 L 0.29492188,0.796875 C 1.0860176,0.50486982 1.6945279,-0.16997398 1.8164062,-1.0097656 L 9.5039063,-54.544922 C 9.704054,-55.947611 8.4747902,-57.115234 7.0664062,-57.115234 H -16.837891 Z m 0,1.701172 h 23.902343 23.9042972 c 0.5296141,0 0.7957583,0.335596 0.7539063,0.628906 l -7.6875,53.5312498 C 0.108691,-1.0876989 -0.02401861,-0.89686942 -0.29492188,-0.796875 L -16.511719,5.1914062 c -0.202585,0.07396 -0.450026,0.074404 -0.652343,0 L -33.378906,-0.796875 c -0.271229,-0.10011453 -0.404275,-0.2911868 -0.427735,-0.4550781 l -7.6875,-53.5332029 c -0.04206,-0.292363 0.225746,-0.628907 0.753907,-0.628906 z"
         id="path140" />
    </g>
    <path
       style="fill:#ff0000;stroke-width:0.35424"
       d="m 123.41403,21.926164 q -0.5576,0.198437 -2.65683,0.859898 l -0.2952,-0.826825 q 2.52563,-0.595314 3.01763,-0.826825 1.21362,-0.463021 1.64002,-0.926043 0.32801,-0.330729 0.32801,-0.727605 0,-0.463022 -0.4264,-0.694533 -0.55761,-0.297656 -2.26323,-0.297656 -0.88561,0 -1.18082,0.03308 -0.5248,0 -1.21361,0.132292 l -0.0328,-0.826824 q 1.77123,-0.09922 2.19763,-0.09922 1.57442,0 2.42722,0.297657 0.72161,0.264583 0.95122,0.628386 0.2952,0.396876 0.2952,0.793752 0,0.595313 -0.4592,1.157554 -0.45921,0.562241 -1.67283,1.091408 0.0656,0.297657 0.164,1.058335 0.0656,0.463022 0.0656,1.157554 0,0.562241 -0.0328,0.959117 l -0.88562,0.03308 q 0.0984,-1.190626 0.0984,-1.984378 0,-0.132291 -0.0656,-0.992189 z"
       id="text12"
       aria-label="ã¨" />
    <path
       style="color:#000000;fill:#ff0000;stroke-width:0.352778;stroke-miterlimit:10;-inkscape-stroke:none"
       d="m 123.22531,8.0001362 v 8.0001998 h -0.45062 V 8.0001362 Z"
       id="path13" />
    <path
       style="color:#000000;fill:#ff0000;stroke-width:0.352778;stroke-miterlimit:10;-inkscape-stroke:none"
       d="m 127.0002,11.774824 v 0.450619 H 119 v -0.450619 z"
       id="path14" />
    <path
       style="color:#000000;fill:#ff0000;stroke-width:0.352778;stroke-miterlimit:10;-inkscape-stroke:none"
       d="m 123.15916,11.84097 2.82842,2.828423 -0.31832,0.318327 -2.82843,-2.828423 z"
       id="path15" />
    <path
       style="color:#000000;fill:#ff0000;stroke-width:0.352778;stroke-miterlimit:10;-inkscape-stroke:none"
       d="m 122.84083,11.840996 0.31832,0.318326 -2.82842,2.828424 -0.31833,-0.318327 z"
       id="path16" />
  </g>
</svg>
