<svg xmlns="http://www.w3.org/2000/svg" xmlns:xlink="http://www.w3.org/1999/xlink" width="30mm" height="34mm" viewBox="0 0 30 34"><defs><linearGradient id="a"><stop offset="0" style="stop-color:#ffdba6;stop-opacity:1"/><stop offset="1" style="stop-color:#f2c478;stop-opacity:1"/></linearGradient><linearGradient xlink:href="#a" id="c" x1="289.069" x2="289.07" y1="220.195" y2="143.722" gradientTransform="translate(-2279.056 -212.603)" gradientUnits="userSpaceOnUse"/><clipPath id="b" clipPathUnits="userSpaceOnUse"><path d="M-101.876 1363.894H2732.77v-2834.646H-101.876Z"/></clipPath></defs><g clip-path="url(#b)" transform="matrix(-.35278 0 0 .35278 9.06 25.849)"><path d="m0 0-16.217 5.989a1.8 1.8 0 0 1-1.241 0L-33.674 0c-.531-.196-.903-.628-.975-1.131l-7.687-53.534c-.122-.848.627-1.599 1.595-1.599H7.066c.969 0 1.717.751 1.596 1.599L.975-1.131C.902-.628.531-.196 0 0" style="color:#000;fill:url(#c);stroke-miterlimit:10;-inkscape-stroke:none"/><path d="M-40.74-57.115c-1.407 0-2.638 1.167-2.438 2.57L-35.49-1.01c.12.842.73 1.515 1.521 1.807l16.217 5.99a2.64 2.64 0 0 0 1.828 0L.295.797c.791-.292 1.4-.967 1.521-1.807l7.688-53.535c.2-1.403-1.03-2.57-2.438-2.57h-23.904Zm0 1.7H7.066c.53 0 .796.337.754.63L.133-1.254c-.024.166-.157.357-.428.457l-16.217 5.988a1 1 0 0 1-.652 0L-33.38-.797c-.271-.1-.404-.291-.428-.455l-7.687-53.533c-.042-.293.226-.63.754-.63" style="color:#000;fill:#4d3608;stroke-miterlimit:10;-inkscape-stroke:none"/></g><path d="M123.414 21.926q-.558.199-2.657.86l-.295-.827q2.526-.595 3.018-.827 1.213-.463 1.64-.926.328-.33.328-.727 0-.463-.427-.695-.557-.297-2.263-.297-.886 0-1.18.033-.526 0-1.214.132l-.033-.827q1.771-.1 2.197-.1 1.575 0 2.428.299.721.264.95.628.296.397.296.794 0 .595-.46 1.157-.458.562-1.672 1.092.066.297.164 1.058.066.463.066 1.158 0 .562-.033.959l-.886.033q.099-1.19.099-1.985 0-.132-.066-.992" aria-label="と" style="fill:red;stroke-width:.35424" transform="translate(-108)"/><path d="M123.225 8v8h-.45V8Z" style="color:#000;fill:red;stroke-width:.352778;stroke-miterlimit:10;-inkscape-stroke:none" transform="translate(-108)"/><path d="M127 11.775v.45h-8v-.45z" style="color:#000;fill:red;stroke-width:.352778;stroke-miterlimit:10;-inkscape-stroke:none" transform="translate(-108)"/><path d="m123.16 11.841 2.828 2.828-.319.319-2.828-2.829z" style="color:#000;fill:red;stroke-width:.352778;stroke-miterlimit:10;-inkscape-stroke:none" transform="translate(-108)"/><path d="m122.84 11.841.32.318-2.83 2.829-.318-.319z" style="color:#000;fill:red;stroke-width:.352778;stroke-miterlimit:10;-inkscape-stroke:none" transform="translate(-108)"/></svg>