<svg xmlns="http://www.w3.org/2000/svg" xmlns:xlink="http://www.w3.org/1999/xlink" width="30mm" height="34mm" viewBox="0 0 30 34"><defs><linearGradient id="a"><stop offset="0" style="stop-color:#ffdba6;stop-opacity:1"/><stop offset="1" style="stop-color:#f2c478;stop-opacity:1"/></linearGradient><linearGradient xlink:href="#a" id="c" x1="289.069" x2="289.07" y1="220.195" y2="143.722" gradientTransform="translate(-2279.056 -212.603)" gradientUnits="userSpaceOnUse"/><clipPath id="b" clipPathUnits="userSpaceOnUse"><path d="M-461.115 1359.468H2373.53v-2834.646H-461.115Z"/></clipPath></defs><g clip-path="url(#b)" transform="matrix(-.35278 0 0 .35278 7.329 27.41)"><path d="m0 0-21.223 7.255a1.62 1.62 0 0 1-1.044 0L-43.49 0c-.512-.175-.879-.592-.956-1.088L-54.328-64.8c-.128-.823.569-1.559 1.477-1.559H9.361c.907 0 1.605.736 1.477 1.559L.955-1.088C.879-.592.512-.175 0 0" style="color:#000;fill:url(#c);stroke-miterlimit:10;-inkscape-stroke:none"/><path d="M-52.852-67.209c-1.367 0-2.528 1.177-2.316 2.54l9.88 63.712c.13.83.737 1.493 1.522 1.762L-22.54 8.06a2.46 2.46 0 0 0 1.592 0h.002L.275.805C1.06.536 1.667-.127 1.795-.957v-.002l9.883-63.71c.212-1.364-.95-2.54-2.317-2.54h-31.105Zm0 1.701H9.361c.447 0 .681.293.637.576v.002L.115-1.217c-.024.162-.152.33-.39.412l-21.223 7.256V6.45a.78.78 0 0 1-.494 0v.002L-43.215-.805c-.238-.081-.365-.251-.39-.414l-9.883-63.71v-.003c-.044-.283.188-.576.636-.576" style="color:#000;fill:#4d3608;stroke-miterlimit:10;-inkscape-stroke:none"/></g><path d="m773.082 20.478-.628.133q-.231-.662-.364-1.29l.695-.166q.033.53.297 1.323m1.092.232-.662-.232q.232-.86.596-1.62l.661.297q-.264.629-.595 1.555m-2.547-.166-.562.199q-.232-.364-.496-1.158l.595-.231q.132.397.463 1.19m-1.918-.86.562 1.026-.562.264q-.298-.43-.595-.992Zm1.587 2.15v.728h1.952v-.728zm0 1.356v.662h1.952v-.662zm0 1.257v.662h1.952v-.662zm2.712-3.506v4.862h-6.25v-.694h2.778v-.662h-2.348v-.595h2.348v-.662h-2.348v-.628h2.348v-.728h-3.043q.033-2.017.199-2.58.066-.363.297-.462.397-.232 1.323-.364.033.297.298.86h-.794q-.265 0-.298.099-.132.231-.165 1.786h4.895v-.232z" aria-label="ждг" style="fill:red;stroke-width:.352777" transform="translate(-756)"/><path d="m767.835 7.483 6.648 6.717-.32.316-6.648-6.716z" style="color:#000;fill:red;stroke-width:.352778;stroke-miterlimit:10;-inkscape-stroke:none" transform="translate(-756)"/><path d="M774.548 13v1.583h-1.569v-.45h1.118v-1.132zM769.018 7.416v.45H767.9v1.132h-.45V7.416ZM774.163 7.483l.32.316-6.648 6.717-.32-.317z" style="color:#000;fill:red;stroke-width:.352778;stroke-miterlimit:10;-inkscape-stroke:none" transform="translate(-756)"/><path d="M774.548 7.416v1.583h-.45V7.867h-1.119v-.451ZM767.9 13v1.133h1.118v.45h-1.568v-1.582zM771.225 8.5v5h-.45v-5Z" style="color:#000;fill:red;stroke-width:.352778;stroke-miterlimit:10;-inkscape-stroke:none" transform="translate(-756)"/><path d="M773.5 10.774v.451h-5v-.45z" style="color:#000;fill:red;stroke-width:.352778;stroke-miterlimit:10;-inkscape-stroke:none" transform="translate(-756)"/></svg>