<svg viewBox="0 0 2048 2048" xmlns="http://www.w3.org/2000/svg"><path d="M1024 1769h489l-12-73H547l-12 73zm0-921q-25-60-62-111 31-48 62-65 30 17 62 65-38 51-62 111zm-97 454q-154 11-303 58-123-108-200-213.5T347 945q0-89 73.5-159T569 716q67 0 134.5 62.5T806 909q30 54 75 175t46 218zm-350 217l-26 156 145-84zm447-907q-47 0-136 121-31-36-50-55 93-140 186-140 92 0 186 140-20 19-50 55-90-121-136-121zm0 775q-1-126-42-267.5T898 893q-8-14-14-27t-12-23q-28-43-48-69-51-63-120-105t-134-42q-103 0-208 93T257 949q0 120 99 254.5T605 1463q201-74 419-76zm0 456H448l61-365q-325-280-326-535-1-159 125-274.5T575 553q78 0 158.5 47T876 719q61 74 98.5 164.5T1024 1034q12-60 49-150.5t99-164.5q61-72 142-119t159-47q140 0 266 115.5T1865 943q-2 255-326 535l61 365zm97-541q0-97 45-218t76-175q34-68 101.5-130.5T1479 716q74 0 147.5 70t74.5 159q0 96-77 201.5T1424 1360q-150-47-303-58zm350 217l-119 72 145 84zm-447-132q217 2 419 76 150-125 249-259.5t99-254.5q0-136-105.5-229T1478 627q-66 0-135 42t-119 105q-21 26-48 69-6 10-12.5 23l-13.5 27q-44 85-85 226.5t-41 267.5zm-139 159l139 86 139-84-139-86zm92-1248v-95h94v95h107v95h-107v153q-48-16-94 0V393H870v-95z" fill="#101010"/><path d="M1401.492 1445.022c-78.866-27.972-280.85-63.49-361.055-63.49-13.573 0-8.37-92.938 9.931-177.41 46.541-214.815 134.473-397.66 231.48-481.337 104.287-89.958 202.425-110.292 301.88-62.55 101.707 48.823 168.857 126.476 192.611 222.736 11.953 48.434 12.507 65.835 3.633 113.995-20.047 108.8-81.379 205.359-221.236 348.304-109.997 112.425-114.127 115.045-157.244 99.752zm122.817-179.66c134.761-141.464 175.483-214.462 176.192-315.837.468-67.037-13.434-101.836-61.525-154.008-143.41-155.581-315.104-83.452-434.398 182.49-42.62 95.015-76.487 206.097-82.515 270.65-5.707 61.109-10.232 57.493 84.804 67.766 26.597 2.875 83.221 14.376 125.83 25.557s81.974 20.75 87.477 21.263c5.502.513 52.363-43.533 104.135-97.88zm-1001.616 113.4c-239.839-230.933-308.11-402.656-225.689-567.686 10.704-21.434 41.003-58.671 67.33-82.75 103.387-94.555 209.172-117.574 308.992-67.237 104.94 52.92 177.349 137.227 237.926 277.025 58.528 135.068 104.07 310.156 104.07 400.101v41.936l-58.576 5.339c-104.006 9.48-214.781 29.587-283.864 51.524l-67.445 21.418zm186.383-35.874c46.727-11.709 106.436-23.66 132.687-26.558 95.023-10.492 89.914-6.207 83.92-70.398-6.617-70.86-56.457-218.828-106.453-316.048-88.352-171.804-210.068-249.015-320.084-203.047-44.16 18.451-116.437 87.495-135.752 129.678-19.051 41.607-20.987 132.185-3.852 180.208 22.655 63.493 71.076 130.937 164.149 228.64 51.772 54.347 95.548 98.813 97.28 98.813 1.73 0 41.378-9.58 88.105-21.288zm294.298-393.148c-16.522-50.556-72.053-164.196-97.314-199.144-13.352-18.472-11.901-21.121 41.579-75.933 38.004-38.95 61.994-56.792 76.361-56.792s38.357 17.843 76.361 56.792c53.717 55.055 54.98 57.379 41.28 75.933-24.021 32.532-99.744 191.128-105.47 220.902-2.984 15.512-7.919 28.175-10.967 28.14-3.049-.034-12.872-22.488-21.83-49.897zm56.667-157.68l31.702-59.818-28.533-31.152c-15.694-17.133-33.338-31.151-39.21-31.151s-23.516 14.018-39.21 31.151l-28.533 31.152 31.702 59.818c17.436 32.9 33.655 59.819 36.041 59.819s18.605-26.918 36.041-59.819zm-98.956 795.496c-32.217-20.136-58.543-38.607-58.502-41.046.04-2.44 27.066-21.087 60.057-41.438l59.983-37.003 61.434 36.958c33.79 20.327 61.434 39.462 61.434 42.522 0 4.915-115.844 77.235-123.008 76.792-1.552-.096-29.181-16.65-61.398-36.785zm-402.308 64.763c2.366-8.133 6.963-34.312 10.215-58.177 8.994-66 11.04-67.191 62.33-36.286 25.058 15.099 45.56 29.911 45.56 32.917s-27.542 21.41-61.204 40.898c-45.117 26.12-60.073 31.548-56.901 20.648zm873.087-20.597c-31.023-18.304-57.392-36.23-58.598-39.834-2.447-7.321 86.946-63.409 92.389-57.966 3.417 3.417 26.463 128.974 23.928 130.362-.721.396-26.695-14.257-57.719-32.562zM545.065 1732.99l3.546-30.373h950.779l3.545 30.373 3.546 30.373H541.519z" fill="#ececec"/></svg>