<svg viewBox="0 0 2048 2048" xmlns="http://www.w3.org/2000/svg"><path d="M1024 356q66 0 64-66 1-55-64-55-66 0-64 55-3 66 64 66zm0 1204q0 114-101 198.5T700 1843H205q0-117 65-179t142-62h250q51 0 88-7t71-60q12-20 10-16h76q-7 21-3 13-45 105-109 124.5T649 1676H409q-52 0-86 40t-34 53h424q66 0 158.5-65t93.5-185H624q67-116 72-229-114-119-162-223.5T528 843q33-96 118-189.5T958 407q-17-11-46-36t-29-79q0-58 41-96t100-38q58 0 99.5 38t41.5 96q0 54-29.5 79t-45.5 36q226 153 311 246.5T1520 843q42 119-6 223.5T1352 1290q4 113 72 229h-341q0 120 93 185t159 65h424q0-13-34.5-53t-85.5-40h-240q-83 0-146.5-19.5T1144 1532q4 8-3-13h76q-2-4 10 16 33 53 70 60t89 7h250q76 0 141.5 62t65.5 179h-495q-123 0-223.5-84.5T1024 1560zm0-114h283q-28-84-29-154-120-41-254-38-135-3-254 38-2 70-29 154zm0-267q159-1 285 42 189-180 142-346-60-193-427-431-368 238-427 431-48 166 142 346 125-43 285-42zm-47-361V714h94v104h95v89h-95v165h-94V907h-95v-89z" fill="#101010"/><path d="M980.18 333.344c-22.19-22.19-22.19-55.913 0-78.102 35.838-35.838 104.135-10.227 104.135 39.05 0 29.458-29.023 56.408-60.746 56.408-14.463 0-33.747-7.714-43.39-17.356zm-288.623 829.58c-86.016-103.304-118.43-217.515-85.204-300.224 23.46-58.402 87.625-145.482 152.854-207.443 66.656-63.317 193.837-161.715 243.789-188.616l27.338-14.722 90.794 66.167c230.31 167.841 347.226 323.444 333.169 443.411-6.81 58.115-46.04 138.164-98.716 201.427l-44.049 52.901-63.71-17.461c-53.166-14.572-90.28-17.462-224.253-17.462-133.973 0-171.086 2.89-224.252 17.462l-63.71 17.461zm384.08-165.716v-82.44h95.458V810.632h-95.458V706.496H971.501v104.136h-95.458v104.136h95.458v164.88h104.136zm-329.66 444.746c.057-1.193 5.868-23.648 12.914-49.898 7.046-26.251 12.858-58.36 12.914-71.351.093-21.157 5.31-25.232 50.002-39.051 70.887-21.919 331.58-22.261 401.71-.528l48.083 14.901 10.223 59.618c5.623 32.79 12.715 66.112 15.76 74.048 5.093 13.27-16.857 14.43-273.085 14.43-153.243 0-278.577-.976-278.52-2.169zm-433.751 296.869c38.203-53.65 46.224-55.574 255.332-61.236 105.266-2.85 205.326-9.687 222.441-15.199 38.632-12.44 87.308-60.14 107.845-105.685 12.794-28.372 19.886-34.478 40.047-34.478 22.92 0 24.164 1.818 19.307 28.203-15.617 84.836-58.861 136.717-153.913 184.652l-59.743 30.128H293.438zm931.628-3.743c-95.59-48.207-135.094-94.003-150.025-173.923-7.12-38.107-6.792-38.926 15.47-38.674 18.44.21 28.171 9.653 51.417 49.898 53.855 93.239 92.612 105.792 327.124 105.958 183.711.13 204.997 5.216 245.52 58.666l21.383 28.203h-451.147z" fill="#f9f9f9"/></svg>