<svg xmlns="http://www.w3.org/2000/svg" viewBox="0 0 2048 2048"><path fill="#f9f9f9" d="m508.5 1815.6 48.4-356.7-216.3-554.6-135.8-20.7-16.1-126.5 112.7-43.8 78.3 73.7-18.4 99 246.2 197.8 112.8-568.3L635 428l78.3-108 112.8 43.7-23 161 223.2 474 244-490-66.8-105.9 92-92 105.9 73.6L1337 534l103.5 529.2 260-161-16-142.7 131-46 57.6 131.1-207 103.6-175 529.2 48.4 308.4z"/><path fill="#101010" d="M1024 1769h478q-53-130-43-280-100-39-213-67.5t-222-28.5q-110 0-223 28.5T589 1489q9 150-43 280zm0-450q111 0 223.5 26.5T1468 1413q17-105 60.5-212.5T1634 988l-220 155-123-601-267 555-267-555-123 601-220-155q61 105 104.5 212.5T580 1413q108-41 220.5-67.5T1024 1319zm0 524H441q114-231 57.5-456.5T296 937q-12 2-19 2-54 0-92.5-38.5T146 808t38.5-92.5T277 677t92.5 38.5T408 808q0 20-6 38-4 14-15 33l196 139 100-486q-64-31-72-103-5-44 29-91t88-53q54-5 96 29t48 88q7 68-46 114l198 412 198-412q-54-46-46-114 6-54 48-88t96-29q54 6 87.5 53t29.5 91q-9 72-72 103l100 486 196-139q-12-19-15-33-6-18-6-38 0-54 38.5-92.5T1771 677t92.5 38.5T1902 808t-38.5 92.5T1771 939q-7 0-19-2-147 224-203 449.5t58 456.5zM276 746q-62 0-62 62t62 62q63 0 63-62t-63-62zm466-394q-62 0-62 62t62 62 62-62-62-62zM590 1519l119 72-134 86q19-86 15-158zm1182-773q-63 0-63 62t63 62q62 0 62-62t-62-62zm-466-394q-62 0-62 62t62 62 62-62-62-62zm152 1167-119 72 134 86q-20-86-15-158zm-573 47 139-83 139 86-139 84z"/></svg>