<!DOCTYPE svg PUBLIC "-//W3C//DTD SVG 20010904//EN" "http://www.w3.org/TR/2001/REC-SVG-20010904/DTD/svg10.dtd">
<svg version="1.0" xmlns="http://www.w3.org/2000/svg" width="133px" height="133px" viewBox="6150 1350 1333 1333" preserveAspectRatio="xMidYMid meet">

<g id="Background" fill="#565252" stroke="none">
 <path d="M0 3000 m7200 -500 l0 -100 -119 0 -118 0 -17 -57 
 -16 -58 72 -153 72 -154 -24 -19 c-58 -44 -130 -63 -240 -64 -98 0 -109 2 -170 32 -36 17 -71 36 -78 41 -11 7 1 41 59 161 l73
 152 -15 57 -15 57 -117 3 -117 3 0 99 0 100 385 0 385 0 0 -100z m-333 -705 c-4 -25 -9 -56 -13 -70 -6 -24 -5 -25 40 -19 l46
 7 0 -53 0 -52 -46 7 c-41 6 -45 5 -40 -12 3 -10 8 -30 12 -45 l6 -28 -57 0 -58 0 6 45 7 45 -40 -6 -40 -7 0 53 0 53 41 -7 42
 -7 -6 38 c-4 21 -9 53 -13 71 l-6 32 62 0 63 0 -6 -45z"/>
  </g>
 
<g id="Dark" fill="#444242" stroke="none">
 <path d="M6430 2500 l0 -99 117 -3 117 -3 15 -57 15 -57 -72 -150 c-40 -83 -72 -151 -72 -153 0 -2 45 -2 99 0 65 2
 101 7 104 15 2 7 17 74 32 150 l28 137 58 0 c43 0 58 4 63 16 8 21 8 24 -4 24 -5 0 -39 18 -75 40 -55 34 -74 40 -120
 40 l-55 0 0 100 0 100 -125 0 -125 0 0 -100z"/>
 <path d="M6754 1808 c4 -18 9 -50 13 -71 l6 -38 -42 7 -41 7 0 -53 0 -53 40 7 40 6 -7 -45 c-6 -44 -5 -45 23 -45 l29
 0 0 155 0 155 -34 0 c-32 0 -33 -1 -27 -32z"/>
 <path d="M6933 1660 c0 -30 2 -43 4 -27 2 15 2 39 0 55 -2 15 -4 2 -4 -28z"/>
 </g>
 
 
<g id="Light" fill="#565252" stroke="none">
 <path d="M6680 2500 l0 -100 55 0 c46 0 65 -6 120 -40 36 -22 69 -40 74 -40 4 0 14 18 21 40 l13 40 119 0 118 0 0 100 0
 100 -260 0 -260 0 0 -100z"/>
 <path d="M6785 2143 c-15 -76 -30 -144 -33 -150 -3 -9 -33 -13 -101 -13 -89 -1 -94 -2 -76 -16 22 -17 81 -44 131 -61 46 
 -15 191 -9 249 11 47 16 115 55 115 66 0 3 -31 70 -68 150 l-67 145 -61 3 -61 3 -28 -138z"/>
 <path d="M6814 1827 c-2 -7 -3 -76 -2 -152 l3 -140 29 -3 c26 -3 28 -1 22 22 -3 14 -9 37 -12 51 -5 19 -3 24 7 21 8 -2 26
 -7 42 -10 27 -6 27 -6 27 44 l0 50 -42 -6 -41 -7 6 39 c4 21 9 54 13 72 6 30 5 32 -20 32 -15 0 -29 -6 -32 -13z"/>
 </g>
 
 
<g id="Contour" fill="none" stroke="black" stroke-width="24">
 <path d="M0 3000 m7200 -500 l0 -100 -119 0 -118 0 -17 -57 
 -16 -58 72 -153 72 -154 -24 -19 c-58 -44 -130 -63 -240 -64 -98 0 -109 2 -170 32 -36 17 -71 36 -78 41 -11 7 1 41 59 161 l73
 152 -15 57 -15 57 -117 3 -117 3 0 99 0 100 385 0 385 0 0 -100z m-333 -705 c-4 -25 -9 -56 -13 -70 -6 -24 -5 -25 40 -19 l46
 7 0 -53 0 -52 -46 7 c-41 6 -45 5 -40 -12 3 -10 8 -30 12 -45 l6 -28 -57 0 -58 0 6 45 7 45 -40 -6 -40 -7 0 53 0 53 41 -7 42
 -7 -6 38 c-4 21 -9 53 -13 71 l-6 32 62 0 63 0 -6 -45z"/>
 </g>

</svg>