<!DOCTYPE svg PUBLIC "-//W3C//DTD SVG 20010904//EN" "http://www.w3.org/TR/2001/REC-SVG-20010904/DTD/svg10.dtd">
<svg version="1.0" xmlns="http://www.w3.org/2000/svg" width="133px" height="133px" viewBox="2780 1350 1333 1333" preserveAspectRatio="xMidYMid meet">
<g id="layer3" fill="#565252" stroke="none">
 <path d="M0 3000 m3830 -500 l0 -99 -106 -3 -106 -3 82 -69 82 -69 
-168 -168 -167 -167 26 -16 c43 -29 91 -31 141 -6 25 12 46 26 46 31 0 22 22 5 67 -53 28 -35 53 -68 57 -75 4 -8 -66 -61 -212 -159 l-220 -146 -42 22 c-190 97 -273 340 -183 531 16 35 39 75 51 89 l21 25 -45 46 -45 46 82 69 81 69 -106 3 -106 3 0 99 0 100 385 0 385 0 0 -100z"/>
 </g>

<g id="layer1" fill="#444242" stroke="none">
 <path d="M3060 2500 l0 -99 106 -3 106 -3 -81 -69 -82 -69 45 -46 45 -46 -21 -25 c-12 -14 -35 -54 -51 -89 -55 -116 -47 -264 19 
 -377 31 -52 108 -126 162 -153 53 -27 62 -27 26 2 -46 35 -73 68 -103 127 -124 239 6 525 267 591 35 8 63 17 64 20 1 2 -9 34 -21 
 72 l-23 67 -79 0 -79 0 0 100 0 100 -150 0 -150 0 0 -100z"/>
 <path d="M3350 1923 l0 -97 48 47 c40 39 50 45 62 35 13 -11 13 -11 2 2 -10 12 -4 22 35 62 l47 48 -97 0 -97 0 0 -97z"/>
 </g>
<g id="layer2" fill="#565252" stroke="none">
 <path d="M3360 2500 l0 -100 79 0 79 0 21 -62 c12 -35 21 -67 21 -72 1 -5 -27 -17 -62 -25 -261 -66 -390 -350 -268 -591 27 -52 103 
 -140 122 -140 12 0 428 279 428 287 0 6 -74 106 -101 137 -5 5 -16 0 -26 -11 -37 -43 -126 -55 -178 -23 l-30 18 -47 -46 -48 -46 0 
 97 0 97 98 0 97 0 115 115 114 114 -20 23 c-10 13 -25 27 -33 32 -7 4 -30 24 -49 42 -20 19 -40 34 -44 34 -4 0 -8 5 -8 10 0 6 42 10 
 105 10 l105 0 0 100 0 100 -235 0 -235 0 0 -100z"/>
 </g>
<g id="layer3" fill="none" stroke="black" stroke-width="24">
 <path d="M0 3000 m3830 -500 l0 -99 -106 -3 -106 -3 82 -69 82 -69 
-168 -168 -167 -167 26 -16 c43 -29 91 -31 141 -6 25 12 46 26 46 31 0 22 22 5 67 -53 28 -35 53 -68 57 -75 4 -8 -66 -61 -212 -159 l-220 -146 -42 22 c-190 97 -273 340 -183 531 16 35 39 75 51 89 l21 25 -45 46 -45 46 82 69 81 69 -106 3 -106 3 0 99 0 100 385 0 385 0 0 -100z"/>
 </g>

</svg>