<?xml version="1.0" encoding="UTF-8"?>
<!DOCTYPE svg PUBLIC "-//W3C//DTD SVG 1.1//EN" "http://www.w3.org/Graphics/SVG/1.1/DTD/svg11.dtd">
<!-- Creator: CorelDRAW X5 -->
<svg xmlns="http://www.w3.org/2000/svg" xml:space="preserve" width="42.3332mm" height="42.3332mm" style="shape-rendering:geometricPrecision; text-rendering:geometricPrecision; image-rendering:optimizeQuality; fill-rule:evenodd; clip-rule:evenodd"
viewBox="0 0 4233 4233"
 xmlns:xlink="http://www.w3.org/1999/xlink">
 <defs>
  <style type="text/css">
   <![CDATA[
    .fil2 {fill:#E3E3E3}
    .fil0 {fill:#FEFEFE}
    .fil1 {fill:white}
   ]]>
  </style>
 </defs>
 <g id="Warstwa_x0020_1">
  <metadata id="CorelCorpID_0Corel-Layer"/>
  <polygon class="fil0" points="1554,1987 2652,1996 2968,3649 1280,3626 "/>
  <rect class="fil1" x="1010" y="3596" width="2217" height="204"/>
  <rect class="fil1" x="1179" y="3743" width="1885" height="153"/>
  <rect class="fil1" x="1006" y="3863" width="2217" height="204"/>
  <path class="fil2" d="M1612 2107l1061 0 288 1489 266 0 0 204 -161 -3 0 63 157 3 0 204 -316 0c0,0 -26,-149 -71,-267 -45,-117 -85,-80 -135,-448 -49,-368 -150,-1101 -150,-1101l-939 -145z"/>
  <polygon class="fil2" points="1181,3797 3066,3797 3066,3860 1181,3860 "/>
  <rect class="fil1" x="1300" y="1887" width="1638" height="220"/>
  <path class="fil1" d="M1490 1966c0,0 -241,-328 -199,-572 50,-285 382,-408 875,-435 148,-8 98,1007 98,1007l-774 0z"/>
  <path class="fil1" d="M2726 1966c0,0 241,-328 199,-572 -50,-285 -382,-408 -875,-435 -148,-8 -98,1007 -98,1007l774 0z"/>
  <path class="fil1" d="M1772 1010c0,0 253,-63 226,-169 -27,-106 114,-19 114,-19l10 146 -350 43z"/>
  <path class="fil1" d="M2384 1003c0,0 -154,-75 -159,-161 -5,-86 -114,-19 -114,-19l-10 147 282 34z"/>
  <ellipse class="fil1" cx="1967" cy="634" rx="91" ry="89"/>
  <ellipse class="fil1" cx="1995" cy="772" rx="64" ry="62"/>
  <ellipse class="fil1" cx="2250" cy="635" rx="91" ry="89"/>
  <ellipse class="fil1" cx="2222" cy="773" rx="64" ry="62"/>
  <ellipse class="fil1" cx="2112" cy="556" rx="97" ry="101"/>
  <polygon class="fil1" points="2047,881 1967,634 2112,556 2250,635 2176,886 "/>
  <path class="fil2" d="M2226 842c0,0 -49,94 18,144 66,50 231,81 319,139 89,58 240,120 241,284 2,164 -33,236 -139,351 -107,116 -175,126 -175,126l288 0c0,0 87,-152 110,-226 23,-74 52,-167 36,-267 -16,-100 -90,-225 -206,-280 -116,-56 -86,-51 -170,-75 -83,-24 -94,-26 -103,-28 -9,-2 -95,-27 -95,-27 0,0 -45,-25 -70,-51 -25,-26 -55,-91 -55,-91z"/>
  <polygon class="fil2" points="2490,1887 2524,2107 2938,2107 2938,1887 "/>
 </g>
</svg>
