<svg xmlns="http://www.w3.org/2000/svg" viewBox="0 0 100 100"><linearGradient id="a" x1="19.181" x2="80.829" y1="52" y2="52" gradientTransform="matrix(1 0 0 -1 0 102)" gradientUnits="userSpaceOnUse"><stop offset="0" stop-color="#f9da9c"/><stop offset=".043" stop-color="#fbe0a1"/><stop offset=".067" stop-color="#fce6a6"/><stop offset=".145" stop-color="#f4d593"/><stop offset=".193" stop-color="#f5d797"/><stop offset=".243" stop-color="#f7dda4"/><stop offset=".263" stop-color="#f9e1ab"/><stop offset=".329" stop-color="#f7dfa8"/><stop offset=".383" stop-color="#f2d89e"/><stop offset=".398" stop-color="#efd599"/><stop offset=".461" stop-color="#f2d795"/><stop offset=".462" stop-color="#f2d795"/><stop offset=".527" stop-color="#f2d795"/><stop offset=".538" stop-color="#f2d795"/><stop offset=".538" stop-color="#f2d795"/><stop offset=".615" stop-color="#efda9c"/><stop offset=".735" stop-color="#f6e5ad"/><stop offset=".773" stop-color="#f9e9b4"/><stop offset=".822" stop-color="#f7e1a6"/><stop offset=".887" stop-color="#f5db9b"/><stop offset=".956" stop-color="#f4d997"/><stop offset=".967" stop-color="#f4da9c"/><stop offset="1" stop-color="#f4db9e"/></linearGradient><path fill="url(#a)" stroke="#63451a" stroke-miterlimit="10" stroke-width=".954" d="M77.6 15.4 50 5.8l-27.6 9.6-10.6 72.1v6.7h76.4v-6.7z"/><path fill="#63451a" fill-opacity=".75" d="M12.3 87.5h75.4v6.2H12.3z"/><g transform="translate(-11.21 -10.624) scale(1.22278)"><path d="M49.3 64.4c2.2-1.8 4.8-3.7 6.9-5.5 1-.9 1.7-.7 2.4.3 1.1 1.6 2.4 3.1 3.5 4.7.9 1 1.5.8 2.1-.3 1.3-2.5.7-4.2-2.6-6-2.1-1.2-2.1-1.2-.2-2.6 2.2-1.7 2.2-3.1 0-4.8-1-.7-2.5-1.7-4.2-2.4-.3-.1-.2-.6.1-.6 3.3.1 10.1.4 13.3.7.9.1 2.7.4 2.7-1.3-.1-1.1-.6-1.9-1.2-2.2-1.7-1.1-3.7-1.3-5.6-1.2-4.1.2-8.1.7-12.2 1.1-1.1.1-1.6-.2-1.5-1.3.1-.7.2-3.8.6-3.7.3 0 .6.5 1 .6 2.5.2 4.9.3 7.4.2 1 0 2.4-.6 2.7-1.2.3-1-1.5-1.8-2.4-2.2-.7-.3-1.5-.2-2.4-.1-1.5.1-3 .3-4.6.5-.8.1-1.4.5-1.7.3-.3-.2-.3-.8-.3-1 0-4-2.5-5.1-6-5.3-.4 0-.7.4-.4.7 2.6 3.4 1.9 7.2 2 10.9.1 1.9-.4 2.8-2.7 3.2-2.1.4-1.9-.3-1.9-1.7 0-1.3-.2-3.1-1-3.8-1-.9-3.6-1.9-4.8-2.2-.3-.1-.5.2-.3.5.2.4.5.8.8 1.2 1.1 1.7 1.8 3.6 1.4 5.7-.2 1.1-.6 1.7-1.7 1.7-3.9.2-7.2.4-11.3.6h-.6c-.1 0-.1.1 0 .3.3.7 1 1.8 1.7 2.3 3.3 2.2 7.1.7 10.8.4.4 0 .7.4.6.7-.6 1.4-1.7 2.8-2.6 3.8-1 1.1-1.5 2.2-.2 3.4 1.2 1 2.3.4 3.1-.7 1.4-1.8 2.5-3.7 3-5.6.3-.8.4-1.6.5-2.1.1-.6 1.8-.7 2.9-.7 3-.5 3.6-.2 3.4 2.9 0 .6 0 2-.1 2.8 0 .2-.2.3-.4.2-1-.5-2.5-1.1-3.5-1.4-.4-.1-.7.3-.5.7 1 1.5 2 2.7 3.4 4.4.4.4.4.5.7.6.1.1.8.2 1 .1 0 0-.1.2-.7.7-2.9 2.3-6.3 5.3-9.6 8-1.3 1-2.2 1.3-2.9 0-.9-1.4-1.6-3.1-2.6-4.7-.2-.3-.6-.2-.6.1-.2 3.3.6 6 1.7 8.5.8 1.6 1.5 2 3 .9 2.8-2.6 10.6-9.1 10.6-9.1zm8.4-13.6c.2.3.2.9 0 1.2-1 1.2-2.2 2.4-3.3 3.6-.3.3-.8.1-.9-.3-.3-2.5-.6-4.8-.8-7-.1-.6 1.3-.8 1.8-.9.1 0 .2 0 .3.1 1.1.8 2.2 2.2 2.9 3.3z"/><path d="M70.4 44.2c.2.2-1 .7-1.7.4-.9-.3-5.9-.4-9.4-.2-.1 0 10-1.5 11.1-.2z" class="st5" style="fill:#fff"/><ellipse cx="61.9" cy="37.3" class="st5" rx=".4" ry="1.4" style="fill:#fff" transform="rotate(-75.741 61.94 37.31)"/><path d="M41.8 67.9c.1.2-.2 1-.9 1.5-.7.4-1.1.5-1.4.4-.1-.1-.2-.4 0-.5.2-.2.4-.2 1-.7.8-.6 1.2-1 1.3-.7z" class="st5" style="fill:#fff"/><ellipse cx="49.5" cy="32" class="st5" rx=".4" ry="1.4" style="fill:#fff" transform="rotate(-75.741 49.545 31.982)"/></g></svg>