<svg xmlns="http://www.w3.org/2000/svg" viewBox="0 0 100 100"><linearGradient id="a" x1="19.181" x2="80.829" y1="52" y2="52" gradientTransform="matrix(1 0 0 -1 0 102)" gradientUnits="userSpaceOnUse"><stop offset="0" stop-color="#f9da9c"/><stop offset=".043" stop-color="#fbe0a1"/><stop offset=".067" stop-color="#fce6a6"/><stop offset=".145" stop-color="#f4d593"/><stop offset=".193" stop-color="#f5d797"/><stop offset=".243" stop-color="#f7dda4"/><stop offset=".263" stop-color="#f9e1ab"/><stop offset=".329" stop-color="#f7dfa8"/><stop offset=".383" stop-color="#f2d89e"/><stop offset=".398" stop-color="#efd599"/><stop offset=".461" stop-color="#f2d795"/><stop offset=".462" stop-color="#f2d795"/><stop offset=".527" stop-color="#f2d795"/><stop offset=".538" stop-color="#f2d795"/><stop offset=".538" stop-color="#f2d795"/><stop offset=".615" stop-color="#efda9c"/><stop offset=".735" stop-color="#f6e5ad"/><stop offset=".773" stop-color="#f9e9b4"/><stop offset=".822" stop-color="#f7e1a6"/><stop offset=".887" stop-color="#f5db9b"/><stop offset=".956" stop-color="#f4d997"/><stop offset=".967" stop-color="#f4da9c"/><stop offset="1" stop-color="#f4db9e"/></linearGradient><path fill="url(#a)" stroke="#63451a" stroke-miterlimit="10" stroke-width=".954" d="M77.6 15.4 50 5.8l-27.6 9.6-10.6 72.1v6.7h76.4v-6.7z"/><path fill="#63451a" fill-opacity=".75" d="M12.3 87.5h75.4v6.2H12.3z"/><path d="M25.606 46.988c-.118-.236 0-.591.355-.591.947.118 2.25.473 2.96.591 2.96 1.303 6.984-.71 10.654-2.722.592-.356 1.658-1.303 1.658-2.013.118-4.143.355-7.221-2.013-10.891-1.42-1.894-3.078-3.197-3.196-4.144-.119-.355.118-.592.355-.592.71-.236 2.604-.355 4.025 0 1.894.474 3.433 1.303 4.262 2.487 1.065 1.775.947 4.498.592 7.813-.119 1.302-.119 2.723-.237 4.143 0 .237.237.474.355.474 1.42-.474 2.486-.947 3.552-.829 1.183.119 2.486.829 3.314 1.894.947 1.066.237 1.894-.947 2.25-1.42.355-4.853 1.775-5.919 2.012-.118 0-.237.237-.237.474 0 .592-.118 2.367-.236 3.078 0 .828.355 1.065.947 1.42.828.474 1.42 0 1.657.474.473.592.237 1.775-.355 2.604-.237.355-.592.71-.947 1.184-.119.118-.119.474 0 .592 1.065 1.184 2.249 2.368 3.314 3.551.948 1.066 2.131 2.486.83 4.144-1.303 1.657-2.487.592-3.434-.947l-.473-.829c-.237-.355-.474-.118-.474.237 0 1.657-.118 4.262-.118 5.327 0 .355.236.592.355.592.71.237 2.012.592 2.841.592 1.657 0 3.433-.592 5.209-.829 1.42-.236 2.96-.71 3.906-1.184.356-.236.71-.71.71-1.302 0-.947-.118-2.486-.236-4.025 0-.473-.355-.71-.71-.592-3.67.829-6.156-.118-8.05-4.262-.119-.236.118-.591.355-.591 1.776.118 3.433.473 5.09.355.947-.119 1.658-.237 2.25-.237.355 0 .473-.355.473-.592 0-.71 0-2.013-.237-3.196 0-.237-.236-.356-.355-.356-5.09 2.25-7.576 1.54-9.707-3.196-.119-.237 0-.592.236-.592.83 0 1.54-.118 2.25-.118 1.657-.237 5.919-.829 7.34-1.066.236 0 .355-.355.355-.592v-2.722c-.355-.947-.355-2.131-.355-2.723 0-.237-.237-.355-.356-.355-.355.118-1.065.355-1.657.473-2.486.592-4.143-1.42-5.8-4.025-.238-.237 0-.592.354-.592 1.658.237 2.96.474 4.262.592.947 0 2.25-.237 2.841-.355.119 0 .237-.237.237-.355 0-.829.119-3.197-.71-4.735-.947-2.013-2.96-4.617-4.262-6.512-.118-.118-.355-.592.118-.592 0 0 4.854-.236 7.459 2.368.947.829 1.065 6.511 1.183 8.169 0 .236.237.473.356.355.71-.355 2.249-.947 2.96-1.184 1.183-.592 2.485-.71 3.67-.947 1.301-.237 3.432 3.433 2.959 4.854-.237.592-.947.947-1.42 1.065-1.54.237-2.96.237-4.5.474-1.065.118-2.84.473-3.551.592-.237 0-.355.236-.355.591 0 .83.118 2.605.355 4.499 0 .355.355.592.474.474 1.42-.592 3.551-1.54 4.853-2.013 2.25-1.065 3.789.355 5.21 2.13.354.593.591 1.777.354 2.25-.236.592-.947.829-1.657.947-2.013.355-4.143.474-6.156.592-.829.119-2.013.474-2.486.592-.237.119-.355.237-.355.474 0 .592 0 2.012.118 3.078 0 .473.355.71.829.592.947-.474 2.13-.948 2.841-1.303 2.368-1.184 4.025.355 5.446 2.605.355.592.355 1.657.118 2.25-.237.473-.947.591-1.539.71-1.776.236-3.551.236-5.446.71-.236.118-.947.236-1.539.355-.118 0-.236.237-.236.355.118 1.065.236 4.262.355 4.735 0 .355.237.474.473.474.474-.119 1.303-.355 2.25-.592 3.196-.592 6.274-1.302 9.352 1.42 1.539 1.303 1.657 3.434 2.13 4.854.12.592-.236 1.184-.591.947-5.682-3.906-14.561-1.184-20.362 0-1.894.474-3.67 1.303-5.564 1.303-1.302 0-2.96-1.303-4.38-2.605-.355-.237-.592 0-.592.474 0 1.183 0 2.96-.119 4.143-.236 2.368-.473 4.144-2.012 4.617-3.196.947-7.103-4.972-8.997-7.813a136.86 136.86 0 0 1-1.42-2.25c-.238-.355.118-.591.354-.591 2.368 1.538 4.499 2.604 6.867 3.67.236.118.355-.119.355-.356.236-4.262.355-8.168.473-12.548 0-.356-.355-.592-.473-.356a858.417 858.417 0 0 0-7.695 6.867c-2.841 2.367-5.683 4.853-9.234 5.327-1.184.118-2.486-.355-3.67-.592-.237 0-.355-.237-.355-.592 0-.237.118-.473.237-.592.355-.237.473-.473.828-.592 7.932-2.012 13.733-8.523 19.297-15.271.828-.947.473-3.315.71-5.21v-.828c0-.237-.237-.473-.355-.355-.355.118-3.907 2.486-6.156 3.078-3.433 1.539-6.274 0-8.642-4.499z"/><path fill="#fff" d="M38.983 27.455c0 .355-.473.474-1.065.355-.592-.118-.947-.473-.947-.592 0-.355.592-.473 1.065-.355.71.237.947.237.947.592zm16.692-1.539c0 .237-.473.237-.947.119-.592-.119-.947-.237-.947-.474s.474-.355.947-.237c.474 0 .947.355.947.592zM30.46 48.41c0 .474-.71.592-1.42.592-.711-.118-1.303-.592-1.303-.947s.592-.355 1.302-.237c.71.119 1.54.237 1.42.592zm41.434 17.402c0 .592-.947.948-2.25.948-1.302 0-2.249-.356-2.249-.83 0-.473.947-.591 2.25-.591 1.184 0 2.249 0 2.249.473z"/></svg>