<svg xmlns="http://www.w3.org/2000/svg" viewBox="0 0 100 100"><linearGradient id="a" x1="19.181" x2="80.829" y1="52" y2="52" gradientTransform="matrix(1 0 0 -1 0 102)" gradientUnits="userSpaceOnUse"><stop offset="0" stop-color="#f9da9c"/><stop offset=".043" stop-color="#fbe0a1"/><stop offset=".067" stop-color="#fce6a6"/><stop offset=".145" stop-color="#f4d593"/><stop offset=".193" stop-color="#f5d797"/><stop offset=".243" stop-color="#f7dda4"/><stop offset=".263" stop-color="#f9e1ab"/><stop offset=".329" stop-color="#f7dfa8"/><stop offset=".383" stop-color="#f2d89e"/><stop offset=".398" stop-color="#efd599"/><stop offset=".461" stop-color="#f2d795"/><stop offset=".462" stop-color="#f2d795"/><stop offset=".527" stop-color="#f2d795"/><stop offset=".538" stop-color="#f2d795"/><stop offset=".538" stop-color="#f2d795"/><stop offset=".615" stop-color="#efda9c"/><stop offset=".735" stop-color="#f6e5ad"/><stop offset=".773" stop-color="#f9e9b4"/><stop offset=".822" stop-color="#f7e1a6"/><stop offset=".887" stop-color="#f5db9b"/><stop offset=".956" stop-color="#f4d997"/><stop offset=".967" stop-color="#f4da9c"/><stop offset="1" stop-color="#f4db9e"/></linearGradient><path fill="url(#a)" stroke="#63451a" stroke-miterlimit="10" stroke-width=".954" d="M77.6 15.4 50 5.8l-27.6 9.6-10.6 72.1v6.7h76.4v-6.7z"/><path fill="#63451a" fill-opacity=".75" d="M12.3 87.5h75.4v6.2H12.3z"/><path d="M44.131 78.142c-.244 0-.489-.122-.733-.244-2.198-1.221-2.686-2.564-3.42-5.007-.854-3.175-1.465-6.35-2.32-9.403-.61-2.565-.488-2.32 1.344-1.71h.122c.489.122 1.221.367 1.71.367.366.122.488.366.61.61.245.367 1.222 3.298 1.832 4.763.244.488.61.733 1.1.61.366-.122 1.098-.244 1.587-.366 1.954-.61 6.96-.366 7.327.244.855.733.733.977.733 1.588 0 1.465-5.862 1.343-6.839 1.221-1.465-.122-2.809-.61-3.175-.855-.122-.122-.244 0-.244.245-.123 1.465.366 3.419.977 4.396.122.122.122.244.366.244h.366c3.298-.122 6.473-.366 9.892-.61.366 0 .733-.367 1.1-.611.365-.366.488-.733.61-1.1a61.884 61.884 0 0 0 1.099-6.594c.244-1.465-.244-1.831-1.588-1.71-2.809.367-5.74.367-8.67.611-1.954.122-3.542-.488-4.885-1.831-.733-.611-.366-1.832.61-1.832 5.496-.245 10.747-1.1 15.754-2.198 1.71-.245 3.541 1.831 3.42 3.663a196.395 196.395 0 0 1-2.32 14.41c-.367 2.199-2.077 1.954-3.665 1.954-3.053-.122-10.868-.61-12.7-.855z"/><path d="M48.039 52.375c.366 0 0-1.71 0-2.076-.122-.977-.367-2.687-.367-3.786 0-.366-.366-.61-.732-.488-.733.244-1.954.488-2.565.733-2.564.61-2.564.61-1.099 3.419.733 1.587 1.1 3.175-.366 4.64-4.885 5.252-11.48 14.9-20.394 15.876-1.954.244-2.687-1.099-1.954-2.687.61-1.465 2.564-4.762 4.03-6.838a.603.603 0 0 1 1.099.366l-.367 3.175c0 .977.367.733.855.489 5.007-4.152 10.38-9.404 13.19-16.12.244-.367-.123-.977-.611-.855-4.519 1.221-8.67 1.954-11.968-2.198-.366-.367 0-.977.366-.977 4.152 0 12.579-1.1 18.196-2.565.855-.244 1.466-.61 1.832-1.099.488-.61.733-1.587.61-2.686 0-.611-.122-1.344 0-2.076 0-.367.367-.611.611-.489.855.366 1.832.61 2.565.977l.366.366c.244.977.61 1.832.855 2.565.122.366.366.61.733.61 2.564.367 8.67-.976 10.502-.854 1.1 0 4.763-.367 5.129 3.541.122.855-.366 1.71-1.1 1.832-2.564.61-8.303-.366-11.112-.366-1.1 0-2.565.122-3.175.244-.244 0-.366.366-.366.488v3.542c0 2.564.122 8.426-3.664 9.281-.244.122-.489-.122-.61-.366-.856-1.344-2.077-4.275-3.176-6.595a.27.27 0 0 1 .367-.366c.732.244 1.71 1.22 2.32 1.343zM50.603 22.7c-.122-.367.245-.855.489-.61 2.32 1.098 5.129 2.32 7.205 3.54 2.198 1.344 2.076 4.52-.244 5.618-5.74 2.565-16.853 4.519-21.493 5.007-.489 0-.733-.733-.245-1.099.855-.366 1.71-.855 2.565-1.221 3.908-1.71 7.693-3.42 11.601-5.007 1.832-.733 2.32-1.588 1.344-3.42-.245-.61-.855-1.831-1.222-2.808Z"/><path d="M54.878 52.009c-.489-.367-.367-1.221.366-1.1 3.541.367 9.892 1.344 13.311 1.955 2.32.366 4.763 1.099 6.96 1.953 2.688 1.1 3.787 3.42 2.688 6.106-.245.489-1.222 1.1-1.71.977-5.373-2.32-17.097-7.449-21.615-9.891z"/><path fill="#fff" d="M56.343 25.509c1.221.366 2.198 1.099 2.076 1.71-.122.366-.855 0-2.076-.367-1.221-.366-2.198-1.466-2.076-1.832 0-.61.855 0 2.076.489zM27.156 65.198c.733-.733 1.588-1.1 1.832-.855.366.366-.366.733-1.099 1.465-.733.733-1.832 1.1-1.954.733-.244-.366.489-.61 1.221-1.343zm42.376-11.235c1.1.122 1.832.488 1.832.977 0 .366-.733.244-1.71.122-1.099-.245-1.954-.855-1.954-1.221 0-.489.733 0 1.832.122z"/></svg>