<svg xmlns="http://www.w3.org/2000/svg" viewBox="0 0 100 100"><linearGradient id="a" x1="17.242" x2="82.762" y1="52" y2="52" gradientTransform="matrix(1 0 0 -1 0 102)" gradientUnits="userSpaceOnUse"><stop offset="0" stop-color="#f9da9c"/><stop offset=".043" stop-color="#fbe0a1"/><stop offset=".067" stop-color="#fce6a6"/><stop offset=".145" stop-color="#f4d593"/><stop offset=".193" stop-color="#f5d797"/><stop offset=".243" stop-color="#f7dda4"/><stop offset=".263" stop-color="#f9e1ab"/><stop offset=".329" stop-color="#f7dfa8"/><stop offset=".383" stop-color="#f2d89e"/><stop offset=".398" stop-color="#efd599"/><stop offset=".461" stop-color="#f2d795"/><stop offset=".462" stop-color="#f2d795"/><stop offset=".527" stop-color="#f2d795"/><stop offset=".538" stop-color="#f2d795"/><stop offset=".538" stop-color="#f2d795"/><stop offset=".615" stop-color="#efda9c"/><stop offset=".735" stop-color="#f6e5ad"/><stop offset=".773" stop-color="#f9e9b4"/><stop offset=".822" stop-color="#f7e1a6"/><stop offset=".887" stop-color="#f5db9b"/><stop offset=".956" stop-color="#f4d997"/><stop offset=".967" stop-color="#f4da9c"/><stop offset="1" stop-color="#f4db9e"/></linearGradient><path fill="url(#a)" stroke="#63451a" stroke-miterlimit="10" stroke-width="1.01" d="M11.8 5.8V11l10.6 73.5L50 94.2l27.6-9.7L88.2 11V5.8z"/><path fill="#63451a" fill-opacity=".75" d="M77.1 78.9 50 88.6l-27.1-9.7L12.3 6.3V11l10.6 73.1L50 93.7l27.1-9.6L87.7 11V6.3z"/><path d="M43.219 48.927c-.475 0-1.188-.357-1.545-.713-.119-.119-.119-.238-.119-.238-.831-2.139 0-2.614 1.545-2.733 2.614-.237 6.298-.594 8.912-.713-1.07-4.277-.119-4.515-5.466-3.802-2.258.237-4.634.237-6.892.237-.832 0-1.782-.118-2.258-.712-.712-.832-1.782-2.258-1.663-3.328.238-2.257 7.367.357 8.674 0-4.515-2.257-4.04-6.416-2.376-7.842 1.9-1.545 4.04-2.614 6.06-4.04.475-.357 1.426-.95.713-2.02h-.95c-4.16.119-8.319.356-12.478.356-2.851 0-5.347-1.07-6.654-4.396-.356-.713-.475-2.02-.119-2.496.357-.475 1.426-.713 2.02-.356 4.991 3.208 10.338 2.495 15.567 2.139 5.94-.594 11.882-2.139 17.823-3.446 4.397-.832 8.675 1.663 9.625 6.06-2.376-.356-4.872-1.188-7.367-.95-3.565.356-7.01 1.306-10.457 2.257-.356.119-.713.594-.95 1.07-.238.475-.476.95-.476 1.425-.118 1.664.12 3.446.357 5.942a110.514 110.514 0 0 0 2.97-4.872c1.545-2.377 3.922-2.614 5.704-.713 2.139 2.376 3.446 5.11 3.921 9.506-1.307-1.426-2.376-2.377-3.327-3.446-2.852-2.852-3.09-2.97-6.297-.713-1.189.713-2.971 2.733-3.09 3.327-.119.713.119 2.377.119 2.377s9.268-3.565 11.526-.951c.832.95 1.307 2.139 2.02 3.327-4.159-.713-8.199-.713-12.358.713l-1.07.357c-.237.118-.475.356-.356.713l.594 3.802s4.516-.357 5.942 1.426c.118.119.356.594.831 0 2.14-2.377 9.269-8.437 10.576-9.15 2.376-1.426 4.872-1.782 7.724-.713-9.744 6.892-22.34 17.943-25.667 27.33-1.07 1.783-.119 3.09.713 4.516 1.307 2.257 1.426 3.089 1.783 4.158.237.713-.476 1.308-.951.832-2.139-1.663-4.515-3.208-6.535-4.99-.713-.713-1.307-2.496-.951-3.446.119-.595.475-1.426.475-1.664-.118-.119-.95-.95-1.426-1.545-7.486-7.723-15.447-14.378-24.953-17.586-1.07-.356-4.634-2.495-2.733-2.733 13.427-4.872 20.082 7.01 21.864 8.674 2.139 2.14 4.04 4.278 6.179 6.298 3.921 3.684 2.614 3.684 6.298-.594 1.663-1.901 2.97-4.159 4.634-6.298.119-.119 0-.356-.119-.356-1.426-.119-13.784.832-15.566.713zm5.822-22.934s-2.97 3.803-3.327 5.11c-.356.95-.475 3.684-.356 5.704 1.307.237 3.09 0 4.277 0 .238 0 .476-.238.357-.595-.238-1.425-.594-8.08-.95-10.219z"/><path fill="#fff" d="M54.032 59.621c.356.119.238 1.782-.238 2.733-.475.95-1.782 2.139-2.257 2.02-.832-.356.118-2.258.475-3.208.594-1.07 1.545-1.664 2.02-1.545zm10.694-43.965c.12.356-1.544.95-2.495 1.188-.95.238-3.565.594-3.684.356-.118-.475 1.07-.831 1.902-1.188.95-.238 4.158-.713 4.277-.356zM28.128 41.203c0 .475-.95.832-1.782.713-.95-.119-4.04-.475-4.04-.95 0-.476 2.852-.595 3.802-.595.95.12 2.02.476 2.02.832z"/></svg>