<svg viewBox="0 0 64 64" xmlns="http://www.w3.org/2000/svg"><g transform="translate(0 -16)"><path d="m22.322 27.775c-.16354-3.1879 1.1407-3.6123 3.2344-1.1459 1.971 1.8795.22986 2.5492 1.4432 4.7022 1.4676 3.2199 3.0656 6.3788 4.5599 9.5868 1.6187-3.3115 3.3847-6.5507 4.9538-9.8857 1.0778-2.2462.77818-3.5765 3.127-5.1991 2.2728-1.7606.93681-2.7589.78514.13212.25921 2.0698.57618 2.9663.89099 5.1832 1.3273 5.2652 2.5244 10.562 3.7998 15.84 2.4806-1.9125 4.9646-3.8207 7.4294-5.7538.33575-1.5198 1.5449-.06302 3.1215-.97226 2.167-1.6146.17101-2.5317-.3265.11805-.18283 1.8531 1.7682 1.997.38018 2.7379-1.7902 4.2031-3.961 8.2414-5.6251 12.496-.91114 4.8096-1.0257 9.7414-1.6309 14.599-6.444 3.994-14.343 4.274-21.689 3.722-4.016-.274-8.034-1.323-11.363-3.659-.677-4.813-.981-9.684-1.865-14.462-1.603-4.299-3.6957-8.4-5.4232-12.651-1.7311-.706-.8261-2.595-.4272-4.847.26161-3.2197-.11002-2.272.99945.73124.0387.79118 2.3284 1.5439 2.3672 2.3351 2.3043 1.8828 4.6224 3.7486 6.9389 5.6167 2.1495-7.5629 3.3986-13.066 4.32-19.225z"/><g fill="#fff"><path d="m20.903 53.561c8.0738-1.6222 16.822-1.8186 24.622 1.1195 1.5432.32639 1.5363 2.0881 2.0683 3.2539-4.7643-.26967-9.4511-1.4039-14.243-1.3361-5.7691-.26774-11.48.62026-17.171 1.4034-1.4384-3.1483 2.5988-3.7638 4.7243-4.4406z" stroke="#fff" stroke-miterlimit="10" stroke-width=".092496"/><path d="m20.903 53.561c8.0738-1.6222 16.822-1.8186 24.622 1.1195 1.5432.32639 1.5363 2.0881 2.0683 3.2539-4.7643-.26967-9.4511-1.4039-14.243-1.3361-5.7691-.26774-11.48.62026-17.171 1.4034-1.4384-3.1483 2.5988-3.7638 4.7243-4.4406z"/><path d="m29.14 58.916c1.8988-.77806 4.8749-.93556 5.771 1.3565-.84163 3.2957-8.5952 2.0251-5.771-1.3565z" stroke="#fff" stroke-miterlimit="10" stroke-width=".092496"/><path d="m29.14 58.916c1.8988-.77806 4.8749-.93556 5.771 1.3565-.84163 3.2957-8.5952 2.0251-5.771-1.3565z"/><path d="m16.478 62.118c1.4183-.96308 3.0154-.83363 4.5257-.13786-1.3158.55072-4.461 3.0227-4.5257.13786z" stroke="#fff" stroke-miterlimit="10" stroke-width=".092496"/><path d="m16.478 62.118c1.4183-.96308 3.0154-.83363 4.5257-.13786-1.3158.55072-4.461 3.0227-4.5257.13786z"/><path d="m42.378 62.011c1.8997-1.193 3.808-.47688 5.1011 1.1971-1.8479.47047-3.5902-.14153-5.1011-1.1971z" stroke="#fff" stroke-miterlimit="10" stroke-width=".092496"/><path d="m42.378 62.011c1.8997-1.193 3.808-.47688 5.1011 1.1971-1.8479.47047-3.5902-.14153-5.1011-1.1971z"/><path d="m20.509 65.256c6.2109-1.712 12.828-1.5053 19.169-.70693 2.4315.39009 6.2399 1.1585 5.4226 4.497-8.6934-3.0797-18.402-3.1077-27.086.01963-.41721-1.8735.66888-3.4229 2.4943-3.8097z" stroke="#fff" stroke-miterlimit="10" stroke-width=".092496"/><path d="m20.509 65.256c6.2109-1.712 12.828-1.5053 19.169-.70693 2.4315.39009 6.2399 1.1585 5.4226 4.497-8.6934-3.0797-18.402-3.1077-27.086.01963-.41721-1.8735.66888-3.4229 2.4943-3.8097z"/></g><g fill-rule="evenodd"><path d="m12.5 12.5a4.8214 3.75 0 1 1 -.000255-.03857" transform="matrix(.74352 0 0 .90381 2.3267 28.591)"/><path d="m12.5 12.5a4.8214 3.75 0 1 1 -.000316-.04296" transform="matrix(.74352 0 0 .90381 50.255 28.76)"/><path d="m12.5 12.5a4.8214 3.75 0 1 1 -.000087-.02254" transform="matrix(.83815 0 0 1.0255 17.263 13.846)"/><path d="m12.5 12.5a4.8214 3.75 0 1 1 -.000227-.03637" transform="matrix(.83815 0 0 1.0255 33.261 12.877)"/></g></g><path d="m25.131399 57.642877c-2.353135-.30772-4.867921-1.002769-6.756389-1.867362-2.956786-1.353695-2.794824-1.013085-3.555447-7.47721-.942759-8.012-1.040958-8.434896-3.01831-12.998446-.97381-2.247466-2.1482165-4.972933-2.6097927-6.056595-.7655441-1.797302-.9275202-1.99407-1.84481-2.241071-1.3695404-.368778-2.6822435-1.891155-2.6822435-3.110668 0-2.014737 2.6962161-3.795055 4.7306224-3.123641 1.4968398.494002 1.9098938 1.178221 1.9401148 3.213776l.02667 1.796345 3.300513 2.690029c1.815283 1.479517 3.356967 2.633577 3.425965 2.564579.242726-.242726 3.070704-11.783073 3.538915-14.441518l.473814-2.690261-.650509-.526206c-1.721097-1.392219-2.061861-3.129485-.887584-4.5250348 1.589551-1.8890739 4.646556-2.5393404 5.925469-1.2604276 1.303227 1.3032268 1.493581 4.0760414.38771 5.6476384-.50901.723374-.508962.755843.003 2.033898.28613.714334 1.458772 3.251332 2.60587 5.637773l2.085632 4.338983 2.532046-5.01695c1.392627-2.759322 2.737245-5.613617 2.988041-6.342879.420339-1.222247.421499-1.345234.01486-1.5728-.663989-.371588-1.25468-1.696682-1.25468-2.8146221 0-.7893386.21184-1.2063643 1.02678-2.0213043 2.391195-2.391195 5.771173-1.8628091 6.548431 1.0237043.520524 1.9330781-.134291 3.7788031-1.611663 4.5427811-.446053.230664-.811005.61662-.811005.857681 0 .631414 3.852049 16.727804 4.062443 16.975554.09689.11409 1.815694-1.070101 3.819569-2.631536 3.563957-2.777061 3.643957-2.862516 3.66838-3.918486.08038-3.475473 4.955772-4.882914 6.50912-1.879071 1.097716 2.122751-.331086 4.831826-2.548375 4.831826h-1.022676l-1.459292 3.186441c-4.545701 9.925784-4.263743 8.935097-5.14761 18.086516-.601689 6.229809-.377817 5.807829-3.813763 7.188589-2.362478.94938-4.521017 1.520306-7.18644 1.900797-2.196258.313513-10.353646.31299-12.753347-.000814v-.000008zm-.534789-6.148423c1.736311-.328252 3.810282-.457885 7.186441-.449182 4.919612.01269 7.750994.420369 11.79661 1.698582l1.627119.514088.08687-.965869c.170269-1.893114-1.26169-3.009502-4.832635-3.767631-3.342796-.709695-14.307023-.71357-17.627119-.0062-1.267796.270101-2.732203.69722-3.254237.949152-1.106325.533912-2.03754 2.171471-1.791741 3.150812l.160495.639466 2.103759-.650885c1.157067-.35798 3.202063-.858517 4.544436-1.112296zm-4.887364-4.608575c.823644-.403951 1.497534-.822318 1.497534-.929703 0-.107384-.643473-.339249-1.42994-.515251-1.197652-.268025-1.59413-.251404-2.440678.102308-1.045572.436867-1.314006 1.122991-.685315 1.751682.510489.51049 1.435873.386726 3.058399-.409036zm27.531432.45123c.340485-.230118.258644-.40215-.50218-1.05559-1.084133-.931114-2.336342-1.218563-3.516391-.807195-1.091452.38048-1.087634.659881.01681 1.231013 1.71933.889101 3.260908 1.132477 4.001754.631772zm-12.819447-1.960499c.614246-.614245.685974-.836398.467433-1.447718-.141985-.397171-.68337-.949413-1.203078-1.227205-2.599399-1.389424-6.348717.354362-5.043838 2.34586.638853.97501 1.375454 1.224003 3.351836 1.133012 1.425353-.06562 1.820019-.19632 2.427647-.803949zm-13.485638-3.885006c1.715254-.23607 5.80339-.493068 9.084746-.57111 5.757887-.136941 8.985928.08351 16.745763 1.143598.559322.07641 1.016949.08105 1.016949.0103 0-.07074-.250449-.798009-.556553-1.616143-.529305-1.414699-.631737-1.515651-2.092353-2.062137-5.703449-2.133937-14.076616-2.713191-21.486687-1.486446-5.665541.937933-7.864407 2.031134-7.864407 3.909917 0 1.260062.154264 1.419642 1.200947 1.242335.458123-.07761 2.236341-.334248 3.951595-.570319z" fill="#333" stroke="#000" stroke-width=".987802"/></svg>