<svg xmlns="http://www.w3.org/2000/svg" width="177.17" height="177.17"><filter id="a"><feGaussianBlur stdDeviation="2" result="blur" in="SourceAlpha"/><feOffset dy="2" dx="2" result="offsetBlur"/><feBlend in2="offsetBlur" in="SourceGraphic"/></filter><g transform="translate(25.858 13.656) scale(3.02226)" filter="url(#a)"><path fill="#feec99" d="M40.733.601l-6.395 45.018L21.16 49.24 7.559 45.387.777.345z"/><path fill="#fecfcf" d="M23.698 3.863c1.624.408 3.565 1.71 3.858 2.59.14.421-.102.5-.917.295-1.309-.328-1.855.265-.941 1.024 1.043.865.827 4.048-.368 5.438-.847.984-1.354 1.174-3.129 1.168-2.242-.007-2.748.344-2.759 1.913-.007 1.136.952 1.256 2.583.323 1.607-.918 4.033-.811 4.965.219.995 1.099.72 1.354-1.59 1.471-1.026.053-2.775.362-3.887.687-1.61.472-2.255.486-3.168.07-1.063-.484-1.135-.687-.999-2.82.097-1.502-.057-2.545-.443-3.01-.504-.608-.48-.88.168-1.869.952-1.453 2.63-3.044 4.307-4.083 1.216-.754 1.234-.803.295-.804-.55-.001-1.4.212-1.889.474-1.141.611-2.938-.138-2.938-1.226 0-1.594 3.801-2.626 6.852-1.86zm-1.919 6.553c-.854 1.687-.994 2.297-.583 2.552.564.348 2.342-.17 3.296-.963.698-.579.72-2.603.036-3.288-.95-.949-1.616-.537-2.749 1.7zm-2.54 10.926c1.2 1.2 1.294 2.153.512 5.212-.395 1.548-.424 2.52-.103 3.494l.445 1.35 1.371-1.998c1.646-2.396 2.287-3.993 2.287-5.693 0-2.007 2.548-3.984 3.142-2.438.117.306-.07 1.393-.416 2.416-.346 1.022-.516 1.973-.377 2.11.138.14.907-.06 1.71-.443 1.073-.512 1.656-1.215 2.21-2.667.738-1.932 1.733-2.557 2.187-1.374.319.832-.844 3.448-2.65 5.962-1.11 1.544-1.292 1.996-.672 1.665 1.394-.746 2.94-.523 4.228.61l1.211 1.064-2.025.014c-1.114.008-3.394.52-5.066 1.14-2.9 1.076-4.345 1.14-4.345.193 0-.239.562-.724 1.248-1.08.687-.354 1.87-1.43 2.63-2.388l1.38-1.744-1.176.447c-.646.246-1.493.346-1.882.223-.502-.16-1.113.432-2.108 2.038-.77 1.245-1.786 2.75-2.257 3.342-1.219 1.537-1.79 10.072-.701 10.49 1.114.428.865 1.594-.34 1.594-1.686 0-2.479-1.14-2.342-3.367.118-1.92.092-1.962-1.579-2.54-.934-.324-1.865-.755-2.068-.958-.577-.577.498-1.936 2.564-3.243 1.625-1.028 1.884-1.395 1.884-2.668 0-.812-.23-1.846-.511-2.296-.408-.652-.347-1.363.296-3.486.586-1.936.685-2.864.36-3.383-.583-.93-2.957-1.12-5.12-.408l-1.714.564.15 2.082.15 2.081-1.822-1.977c-2.086-2.262-1.989-2.646 1.046-4.115 1.243-.601 2.688-.884 4.516-.884 2.279 0 2.85.161 3.747 1.059zm-2.77 16.484c.79.951 1.24.668 1.24-.78 0-1.333-.017-1.345-.861-.582-.657.595-.747.918-.379 1.362zm.797-11.999c-.006.155-.678.767-1.492 1.36-1.293.943-1.393 1.144-.798 1.597.498.378.604.9.395 1.941-.375 1.867-.42 2.584-.209 3.357.239.875-1.346 1.061-2.41.283-.823-.602-.826-.675-.105-2.189.93-1.95.93-1.968-.1-1.968-.943 0-1.845-1.306-1.388-2.008.59-.908 6.136-3.062 6.107-2.373zm11.254 6.732l-.992 1.055 1.456.636c1.354.59 1.38.638.377.684-.61.027-1.416.512-1.854 1.114-.767 1.053-.764 1.065.276 1.065.578 0 1.51.382 2.07.849l1.019.848-1.942.02c-1.068.01-2.67.139-3.56.286-1.448.24-1.619.17-1.619-.652 0-.506.215-.92.477-.92.263 0 1.083-.51 1.824-1.133l1.347-1.133-1.824.308c-2.687.454-2.386-.593.723-2.511 2.975-1.837 3.599-1.982 2.222-.516zm-2.172 8.844c-1.486 1.232-1.494 1.256-.688 2.146.448.495.638.923.424.95-1.817.231-3.628-.915-3.628-2.296 0-.942 2.313-2.076 4.194-2.058l1.2.012z"/><path fill="#feb0b0" d="M23.224 3.922c1.859.355 4.411 1.842 4.411 2.57 0 .215-.583.275-1.295.132-1.426-.285-1.593.066-.633 1.334 1.021 1.35.806 3.992-.426 5.224-.839.838-1.503 1.059-3.19 1.059-2.204 0-2.655.373-2.655 2.193 0 .987 1.05 1.06 2.589.18 1.546-.883 4.033-.811 4.896.142 1.069 1.182.9 1.369-1.242 1.369-1.075 0-2.653.291-3.505.647-3.377 1.411-5.162.286-4.79-3.017.122-1.077.05-2.065-.158-2.194-1.316-.813 1.596-4.957 4.485-6.381l1.393-.687-1.215-.01c-.669-.005-1.578.184-2.022.422-1.12.6-3.02-.175-3.02-1.232 0-1.396 3.38-2.325 6.377-1.751zm-1.504 6.223c-.537.947-.979 2.087-.983 2.532-.006.68.212.765 1.367.534.756-.151 1.727-.594 2.158-.984 1.42-1.286.726-4.246-.922-3.929-.354.069-1.083.9-1.62 1.847zm-3.097 10.786c1.474.8 1.778 2.466 1.033 5.652-.37 1.58-.443 2.702-.192 2.956.222.226.403.799.403 1.273 0 1.128.437.658 2.345-2.52.924-1.539 1.54-3.126 1.54-3.968 0-.85.398-1.867 1.007-2.576 1.736-2.018 2.729-.217 1.35 2.448-.6 1.16-.597 1.306.028 1.545 1.238.475 2.814-.65 3.693-2.638.927-2.094 1.55-2.7 2.154-2.096.628.628-.263 2.974-2.214 5.833-1.276 1.868-1.565 2.538-.995 2.305 1.722-.707 2.259-.713 3.557-.042 1.893.98 1.672 1.537-.61 1.537-1.114 0-3.058.464-4.519 1.079-1.41.593-2.86 1.078-3.223 1.078-1.054 0-.787-1.6.313-1.876.535-.135 1.715-1.239 2.622-2.453 1.347-1.805 1.469-2.113.663-1.682-.542.29-1.53.512-2.194.493-.906-.026-1.365.269-1.834 1.174-.343.665-1.338 2.143-2.21 3.285-1.55 2.03-1.589 2.175-1.805 6.736-.192 4.052-.128 4.697.487 4.933.95.364.905 1.474-.059 1.474-.422 0-1.214-.314-1.76-.696-.836-.585-.972-1.01-.852-2.657.138-1.893.092-1.977-1.339-2.461-2.923-.989-2.77-2.325.504-4.392 1.374-.867 1.625-1.259 1.625-2.536 0-.831-.236-1.888-.524-2.35-.422-.675-.38-1.24.218-2.906.872-2.432.933-3.643.22-4.356-.71-.71-3.507-.651-5.33.11-1.466.613-1.498.676-1.22 2.482l.286 1.853-1.68-1.712c-1.825-1.858-1.879-2.222-.48-3.231 2.394-1.724 6.84-2.267 8.992-1.098zm-1.922 17.122c.859.95.822.985 1.146-1.107l.259-1.677-1.06.997c-.996.935-1.017 1.045-.345 1.787zm-1.082-10.985c-1.321 1.138-1.382 1.292-.718 1.843.53.44.647.953.436 1.92a15.16 15.16 0 00-.283 2.722c.006 1.657-1.063 1.914-2.297.55-.719-.794-.723-.925-.067-1.927.945-1.442.888-1.882-.267-2.046-.711-.1-.97-.426-.97-1.216 0-1.148 1.7-2.257 4.315-2.812l1.294-.275zm12.987 5.116c-1.172.868-1.27 1.908-.18 1.908 1.952 0 1.175.678-1.302 1.136-4.512.835-4.395-.211.295-2.644 1.187-.615 1.721-.796 1.187-.4zm-1.135 4.009c-.694.767-.671.818.472 1.052.662.135 1.59.546 2.066.913.812.63.737.669-1.295.683-1.187.009-2.721.06-3.41.115-1.907.15-1.779-.672.342-2.195 2.144-1.54 2.923-1.782 1.825-.568zm-1.13 5.15c-1.216 1.053-1.406 1.417-.972 1.862.757.777.672 1.244-.227 1.244-1.155 0-2.686-1.235-2.686-2.167 0-1.017 1.047-1.605 3.507-1.969l1.888-.28z"/><path fill="#fe8f8f" d="M25.659 4.862c2.04 1.161 2.603 2.217.964 1.805-1.628-.408-2.122.125-1.08 1.167.728.728.857 1.264.68 2.834-.292 2.587-1.114 3.303-4.101 3.569l-2.47.22-.137 1.656c-.128 1.556-.075 1.638.863 1.348.55-.17 1.524-.575 2.165-.901 1.528-.777 2.949-.75 4.133.079 1.436 1.006 1.166 1.486-.837 1.486-.988 0-2.82.322-4.07.717-2.144.675-2.34.673-3.437-.046-1.071-.702-1.144-.93-.915-2.863.137-1.155.065-2.213-.16-2.353-1.351-.834 1.65-5.131 4.371-6.258 1.64-.68 1.032-1.5-.64-.865-1.694.644-3.086.552-3.751-.25-.496-.596-.435-.812.426-1.51 1.483-1.2 5.753-1.113 7.997.165zm-3.939 5.283c-.537.947-.979 2.087-.983 2.532-.006.68.212.765 1.367.534 2.551-.51 3.804-2.479 2.637-4.144-.898-1.283-1.883-.931-3.021 1.078zm-3.832 10.588c.692.207 1.418.627 1.612.934.5.786.452 4.285-.078 5.806-.33.945-.295 1.634.134 2.654l.58 1.377.887-1.2c1.51-2.042 2.728-4.75 2.728-6.062 0-.69.396-1.757.88-2.371 1.644-2.09 2.899-.163 1.494 2.296-.848 1.482-.8 1.726.335 1.726 1.508 0 2.892-1.202 3.786-3.287.901-2.103 1.704-2.476 1.704-.792 0 1.313-.876 3.125-2.87 5.93l-1.468 2.067 1.285-.665c1.752-.906 2.374-.84 3.785.401l1.21 1.065-1.998.014c-1.1.008-3.288.5-4.865 1.093-1.576.593-3.056 1.078-3.288 1.078-.894 0-.364-1.302.77-1.888.654-.339 1.847-1.53 2.65-2.648 1.153-1.606 1.272-1.932.564-1.553-.493.264-1.476.48-2.184.48-1.027 0-1.486.327-2.264 1.618a41.374 41.374 0 01-2.266 3.282c-1.2 1.55-1.303 1.977-1.49 6.16-.172 3.874-.094 4.613.564 5.34.699.772.703.866.053 1.115-.39.15-1.218-.06-1.84-.468-1.025-.672-1.107-.929-.89-2.768l.24-2.028-1.803-.624c-2.482-.858-2.414-1.96.223-3.644 1.822-1.164 2.029-1.46 2.05-2.941.012-.906-.185-2.036-.44-2.51-.344-.646-.29-1.368.217-2.854.869-2.552.867-4.26-.005-4.595-1.188-.456-3.607-.285-5.165.366-1.462.611-1.497.68-1.215 2.44l.29 1.81-1.748-1.684-1.747-1.684 1.227-1.16c1.946-1.84 5.395-2.512 8.356-1.626zm-1.241 17.422c.767.565.873.535 1.127-.317a9.23 9.23 0 00.324-1.794c.038-.764-.08-.73-1.127.317-1.146 1.146-1.153 1.183-.324 1.794zm-1.095-11.027c-1.445 1.233-1.475 1.316-.692 1.902.633.473.747.895.504 1.866-.174.69-.348 1.834-.387 2.543-.087 1.537-1.105 1.896-2.14.753-.672-.743-.665-.895.11-2.34l.828-1.546-1.3-.26c-2.781-.556-.71-3.022 3.293-3.917l1.294-.29-1.51 1.29zm12.454 5.637c-.806.658-.883.874-.371 1.038 2.592.826 2.186 1.076-2.759 1.697-1.636.205-1.074-.805 1.206-2.169 2.623-1.569 3.453-1.813 1.924-.566zm-.371 2.94c0 .205-.233.605-.518.89-.403.403-.36.518.196.518.927 0 2.911.907 2.911 1.33 0 .182-.825.34-1.834.352a46.826 46.826 0 00-3.086.141c-1.92.182-1.775-.654.38-2.202 1.073-.77 1.951-1.233 1.951-1.029zm-1.248 5.59c-1.295 1.111-1.405 1.365-.956 2.205.437.816.398.95-.274.95-1.05 0-2.7-1.196-2.7-1.957 0-.855 1.621-1.81 3.668-2.16l1.726-.294z"/><path fill="#fe6f6f" d="M25.66 4.838c2.282 1.332 2.495 2.097.493 1.772-1.761-.286-1.89-.046-.676 1.257 1.029 1.104 1.11 2.92.208 4.663-.68 1.316-1.398 1.618-4.307 1.812-1.667.11-1.731.172-1.863 1.771-.128 1.556-.075 1.638.863 1.348.55-.17 1.524-.575 2.165-.901 1.992-1.014 4.66-.48 4.66.933 0 .455-.513.634-1.834.638-1.008.004-2.68.301-3.715.662-3.133 1.09-4.709-.14-4.205-3.289.149-.93.075-1.758-.17-1.91-1.313-.81 1.149-4.484 4.053-6.048 1.841-.991 2.05-1.728.37-1.308-2.92.73-3.828.737-4.411.035-1.036-1.248.408-2.124 3.764-2.284 2.415-.115 3.201.03 4.605.849zm-4.04 5.467c-.705 1.396-1.16 2.658-1.014 2.805.413.413 1.7.318 2.861-.211 2.454-1.118 2.273-4.826-.25-5.097-.174-.019-.893 1.108-1.597 2.503zm-4.342 10.271c2.477.497 3.222 2.805 2.151 6.66-.324 1.168-.283 1.917.166 2.985l.6 1.425 1.577-2.376c.99-1.491 1.708-3.198 1.927-4.585.392-2.483 1.068-3.54 2.263-3.54.987 0 1.065 1.443.163 3.022-.872 1.524-.805 1.726.572 1.726 1.431 0 2.731-1.258 3.68-3.56.766-1.862 1.573-2.127 1.573-.519 0 1.328-.901 3.17-2.89 5.903l-1.484 2.04 1.571-.656c1.765-.738 2.762-.562 3.892.687.758.836.735.852-1.228.852-1.099 0-3.286.484-4.859 1.076-1.572.592-3.033.97-3.246.838-.695-.43-.408-1.018.804-1.645.655-.339 1.848-1.53 2.651-2.648 1.222-1.702 1.306-1.95.514-1.527-.52.279-1.464.446-2.097.372-1.009-.118-1.443.293-3.502 3.318l-2.351 3.452-.194 4.443c-.163 3.716-.078 4.571.52 5.233.592.653.612.83.112 1.022-.332.128-1.068-.005-1.637-.294-.902-.46-1.021-.8-.946-2.681l.086-2.154-1.812-.627c-2.488-.86-2.426-1.959.205-3.647 2.387-1.532 2.912-2.94 1.855-4.984-.663-1.283-.663-1.51.001-3.25.393-1.029.653-2.51.578-3.292-.133-1.387-.189-1.423-2.381-1.55-1.45-.084-2.723.117-3.593.568-1.275.659-1.333.794-1.048 2.481l.302 1.785-1.604-1.7c-1.778-1.886-1.706-2.467.465-3.733 1.342-.782 4.884-1.273 6.644-.92zm-1.281 16.757c-.008.24.355.666.805.947.7.437.856.373 1.073-.436.14-.52.257-1.296.26-1.722.006-.746-.034-.746-1.06 0-.585.426-1.07.971-1.078 1.21zm-.445-10.193c-1.362 1.204-1.436 1.38-.755 1.791.9.544.941 1.532.128 3.002-.431.779-.468 1.233-.133 1.637.737.887-.224 1.582-1.352.978-1.062-.568-1.169-1.673-.275-2.855.891-1.179.828-1.344-.634-1.636-.94-.188-1.295-.504-1.295-1.157 0-.878 1.86-1.971 4.747-2.79.975-.275.934-.176-.431 1.03zm12.407 5.51c-1.02 1.165-.974 1.283.647 1.664 1.383.326 1.373.335-.755.656-1.187.18-2.478.457-2.87.617-1.557.635-1.137-.653.595-1.826 2.817-1.908 3.26-2.114 2.383-1.112zm-.324 3.08c0 .19-.213.56-.474.821-.345.345-.117.553.833.762.72.158 1.51.531 1.758.83.35.422-.002.553-1.588.59-1.122.026-2.525.11-3.118.185-1.625.206-1.31-.712.755-2.208 1.009-.73 1.834-1.172 1.834-.98zm-1.575 5.765c-1.035 1.08-1.13 1.376-.674 2.106.453.724.418.848-.24.848-1.015 0-2.69-1.191-2.69-1.913 0-.887 1.146-1.628 3.06-1.978l1.749-.32z"/><path fill="#fe5050" d="M25.448 4.84c2.413 1.292 2.675 1.948.684 1.716-1.744-.204-1.857.021-.655 1.311 1.029 1.104 1.11 2.92.208 4.663-.68 1.316-1.398 1.618-4.307 1.812-1.66.11-1.732.178-1.86 1.733-.156 1.874.14 1.963 2.507.755 1.95-.995 3.349-1.078 4.423-.262 1.288.977.845 1.469-1.51 1.68-1.246.11-2.954.39-3.795.621-2.92.8-4.496-.902-3.494-3.777.371-1.065.338-1.369-.17-1.564-.348-.133-.633-.62-.633-1.08 0-1.085 3.907-4.993 5.356-5.356.615-.155 1.118-.475 1.118-.713 0-.41-.922-.337-4.125.326-.945.196-1.485.073-1.905-.432-.996-1.201.4-2.105 3.543-2.294 2.22-.133 3.044.02 4.615.861zm-3.955 5.552c-.649 1.286-1.183 2.484-1.187 2.662-.012.55 2.129.357 3.414-.307 1.953-1.01 2.307-2.703.867-4.143-1.22-1.22-1.725-.927-3.094 1.788zm-4.43 10.214c2.677.373 3.495 2.666 2.333 6.544-.368 1.227-.337 1.904.14 3.071l.61 1.498 1.652-2.488c1.052-1.585 1.778-3.284 1.999-4.68.39-2.473.984-3.405 2.165-3.405.985 0 1.046 1.046.16 2.746-.899 1.723-.819 2 .575 2 1.431 0 2.731-1.257 3.68-3.56.792-1.923 1.573-2.111 1.573-.379 0 .758-.834 2.518-2.149 4.532-1.182 1.81-2.046 3.292-1.92 3.292.126 0 .79-.291 1.477-.646 1.34-.693 2.84-.401 3.782.734.423.51.174.615-1.529.641-1.173.018-3.2.522-4.788 1.19-1.8.759-2.9 1.014-3.177.737-.526-.526-.054-1.362.768-1.362.663 0 4.255-4.289 3.893-4.65-.12-.12-.504.016-.851.305-.348.288-1.178.461-1.845.385-1.085-.125-1.459.222-3.56 3.313l-2.349 3.452-.267 4.316c-.242 3.91-.187 4.406.59 5.286l.856.971h-1.355c-1.7 0-2.416-1.183-2.044-3.383.264-1.562.235-1.604-1.581-2.233-2.555-.885-2.568-1.775-.05-3.488 1.14-.777 2.217-1.619 2.391-1.872.533-.773.367-2.59-.328-3.581-.597-.853-.576-1.183.225-3.56 1.018-3.024.73-4.095-1.22-4.523-1.63-.358-5.948 1.072-5.764 1.909.075.336.246 1.163.38 1.838l.246 1.227-1.615-1.615c-1.21-1.21-1.515-1.782-1.214-2.28.917-1.515 5.12-2.698 8.11-2.282zm-1.08 16.757c0 .666 1.475 1.584 1.886 1.173.15-.15.272-.924.272-1.72 0-1.447-.002-1.448-1.079-.742-.593.389-1.079.969-1.079 1.29zm-.478-10.221c-1.322 1.215-1.39 1.389-.708 1.796.924.551.954 1.36.109 2.993-.407.788-.487 1.347-.216 1.515.798.493.438 1.078-.662 1.078-1.372 0-1.784-1.005-1.028-2.51.32-.637.653-1.304.74-1.482.087-.178-.208-.324-.655-.324-.951 0-1.849-.787-1.849-1.62 0-.545 2.303-1.76 4.7-2.482.91-.273.86-.151-.431 1.036zm12.454 5.524c-1.02 1.144-.973 1.267.647 1.65 1.34.319 1.296.348-.971.65-1.305.173-2.568.387-2.805.476-.237.088-.529-.009-.647-.216-.119-.207.852-1.058 2.157-1.892 1.36-.868 2.052-1.153 1.619-.668zm-.723 3.76c-.411.496-.265.662.78.892 2.303.505 2.373 1.296.122 1.386-1.107.044-2.48.14-3.049.215-1.674.22-1.498-.722.365-1.955 1.92-1.27 2.547-1.46 1.782-.537zm-1.344 5.236c-.874.93-.95 1.226-.503 1.942.45.72.414.845-.244.845-1.032 0-2.689-1.196-2.689-1.942 0-.885 1.737-1.942 3.193-1.942h1.273z"/><path fill="#fe2f2f" d="M24.905 4.58c.754.371 1.67 1.007 2.038 1.412.618.683.557.724-.831.562-1.75-.205-1.81-.037-.58 1.627 2.012 2.721-.256 6.268-3.827 5.984-1.752-.14-1.863-.077-2.317 1.3-.73 2.212-.049 2.53 2.852 1.327 2.217-.918 2.539-.953 3.558-.378 1.775 1.001 1.807 1.868.058 1.61-.802-.118-2.21.05-3.13.375-.92.324-2.332.589-3.138.589-1.903 0-2.68-1.424-1.995-3.657.36-1.175.33-1.597-.144-1.99-.332-.275-.603-.691-.603-.925 0-.937 2.667-3.706 4.512-4.685 1.079-.572 1.962-1.187 1.962-1.365 0-.491-1.703-.389-3.333.2-2.509.908-4.156-.84-1.895-2.01 1.662-.859 5.048-.847 6.814.023zm-3.033 5.022c-.579 1.009-1.191 2.3-1.362 2.868-.3 1.004-.255 1.027 1.57.783 3.035-.407 4.35-2.806 2.534-4.622-1.22-1.22-1.553-1.102-2.742.97zM16.846 20.64c2.563.24 3.172 1.15 2.799 4.174-.42 3.396-.391 5.578.085 6.428.312.557.696.219 1.999-1.76.887-1.346 1.71-2.948 1.827-3.558.604-3.124 1.293-4.565 2.245-4.7 1.15-.164 1.28.84.324 2.511-1.22 2.135-.404 2.95 1.858 1.854.917-.444 1.658-1.333 2.307-2.77.58-1.283 1.113-1.962 1.352-1.722.671.67-.075 2.729-2.052 5.655-1.04 1.54-1.825 2.867-1.744 2.948.08.08.539-.063 1.018-.32 1.377-.737 3.307-.552 4.168.4.77.851.762.862-.512.607-.876-.175-2.508.163-5.028 1.042-2.072.723-3.84 1.124-3.977.903-.338-.546.16-1.26.88-1.26.326 0 1.326-.923 2.221-2.05 2.7-3.4 2.672-3.337 1.096-2.522-.788.408-1.878.683-2.422.611-.81-.106-1.419.5-3.352 3.34l-2.363 3.47-.259 4.581c-.248 4.373-.216 4.612.685 5.242l.945.66-1.156.023c-1.832.035-2.599-1.048-2.274-3.214l.277-1.843-1.876-.625c-2.654-.884-2.595-1.72.255-3.613 2.064-1.37 2.4-1.783 2.4-2.947 0-.744-.282-1.757-.628-2.25-.559-.798-.526-1.211.294-3.734 1.055-3.244.795-3.986-1.551-4.426-1.465-.275-5.708 1.07-5.614 1.778.029.219.186.98.35 1.692l.296 1.295-1.59-1.572c-.878-.868-1.457-1.787-1.293-2.053.867-1.402 4.95-2.562 8.01-2.275zm-.741 16.348c-.245.638.86 1.851 1.687 1.851.192 0 .349-.784.349-1.741 0-1.624-.06-1.71-.887-1.267-.489.262-1.006.782-1.15 1.157zm-1.015-9.553c-.962 1.024-.985 1.144-.29 1.532.93.52.95 1.331.077 3.02-.526 1.017-.561 1.44-.163 1.92.422.508.31.617-.633.617-1.502 0-1.871-1.066-.925-2.668.414-.702.686-1.32.604-1.375-.083-.054-.684-.327-1.337-.608-1.71-.734-1.469-1.737.647-2.697 2.608-1.184 3.293-1.096 2.02.259zm12.653 5.38c-.815.886-.668 1.144.824 1.442 1.869.374 1.506.532-2.01.875-2.596.254-2.93.21-2.374-.306.928-.862 4.206-2.714 3.56-2.011zm-.645 3.514c-.209.548.027.793.963.999.682.15 1.439.51 1.68.802.338.407.091.49-1.058.356-.824-.096-2.088.069-2.808.367-1.054.437-1.41.435-1.824-.006-.4-.425-.392-.593.04-.75.305-.112 1.17-.719 1.92-1.349.941-.79 1.279-.92 1.087-.42zm-1.174 5.272c-.903.984-.984 1.286-.535 2.003.598.96.183 1.066-1.378.355-2.234-1.018-1.541-2.816 1.252-3.249l1.725-.267z"/><path fill="#fe0303" d="M24.885 4.711c2.441 1.11 2.75 1.762.834 1.762-1.79 0-1.89.223-.572 1.29 1.463 1.185 1.28 4.135-.343 5.53-1 .861-1.54 1.005-3.103.83-1.705-.193-1.933-.11-2.295.843-1.011 2.66.036 3.276 3.118 1.833 1.968-.922 2.26-.956 3.278-.383.614.347 1.206.9 1.314 1.228.156.468-.136.535-1.345.308-1.008-.189-2.093-.06-3.129.373-.872.365-2.246.663-3.054.663-1.812 0-2.554-1.423-1.926-3.696.302-1.094.251-1.566-.208-1.947-.334-.278-.608-.683-.608-.902 0-.735 3.905-4.58 5.195-5.114.703-.29 1.279-.7 1.279-.908 0-.541-1.921-.469-3.217.121-.825.377-1.368.379-2.178.01-1.48-.675-1.352-1.303.418-2.043 2.023-.845 4.396-.772 6.542.203zm-3.39 5.436c-1.543 2.823-1.51 3.23.256 3.23 2.974 0 4.763-2.885 2.998-4.836-1.09-1.205-1.948-.782-3.253 1.606zm-2.49 11.43c.956.957 1.09 2.473.417 4.75-.461 1.563-.155 5.607.425 5.607.391 0 3.058-4.016 3.809-5.738.29-.664.527-1.696.527-2.294 0-1.557.757-2.756 1.741-2.756 1.03 0 1.05.342.142 2.608-.946 2.366-.352 3.029 1.796 2.005 1.103-.526 1.763-1.273 2.362-2.672.819-1.91 1.726-2.58 1.726-1.277 0 .947-1.617 4.015-3.13 5.937-1.382 1.755-1.364 2.387.044 1.633 1.294-.693 2.867-.567 3.958.317l.967.783-1.474-.173c-.854-.1-2.556.227-4.048.778-3.151 1.162-4.947 1.513-4.947.968 0-.227.473-.627 1.051-.89 1.07-.488 4.747-4.794 4.395-5.146-.106-.106-.694.135-1.306.536-.687.45-1.514.629-2.159.467-.906-.227-1.231.04-2.434 2.002-.764 1.246-1.821 2.781-2.349 3.412-.804.96-1.01 1.9-1.271 5.806-.268 3.99-.214 4.731.37 5.158.914.669.86 1.051-.15 1.051-1.523 0-2.255-1.205-1.954-3.213l.273-1.82-2.002-.763c-1.1-.42-1.93-.988-1.842-1.26.088-.273 1.165-1.251 2.395-2.175 1.98-1.486 2.234-1.857 2.222-3.236-.008-.857-.28-1.91-.606-2.339-.508-.67-.475-1.113.23-3.118 1.047-2.98 1.032-3.457-.138-4.276-1.279-.896-3.174-.833-5.4.177-1.707.775-1.81.92-1.558 2.179l.27 1.349-1.406-1.284c-.849-.775-1.28-1.49-1.086-1.802 1.247-2.018 8.49-2.94 10.14-1.29zm-2.568 16.504c1.421 1.15 1.704.94 1.704-1.265v-2.022l-1.32 1.264-1.32 1.265zm-1.528-10.72l-1.29 1.032 1.024.829c1.014.82 1.017.844.269 2.42-.609 1.282-.652 1.718-.221 2.237.452.544.356.645-.61.645-1.504 0-1.87-1.067-.92-2.677.797-1.348.586-1.884-.84-2.141-1.708-.308-1.212-1.494 1.025-2.457 2.772-1.192 3.159-1.165 1.563.112zm12.603 5.755c-.751.84-.735.87.647 1.196 1.305.307 1.196.362-1.368.688-1.532.194-2.852.287-2.934.205-.082-.082.88-.78 2.138-1.55 1.534-.94 2.033-1.117 1.517-.539zm-.88 3.443c-.145.234.556.685 1.557 1.001l1.82.576-2.158.303c-1.187.166-2.425.373-2.751.46-1.17.308-.906-.77.432-1.758.75-.555 1.245-.816 1.1-.582zm-1.003 5.11c-1.06 1.06-1.073 1.137-.345 1.942.963 1.064.003 1.175-1.437.166-1.88-1.317-.66-3.212 2.07-3.212.725 0 .692.124-.288 1.104z"/></g></svg>