<?xml version="1.0" encoding="UTF-8" standalone="no"?>
<svg
   xmlns:dc="http://purl.org/dc/elements/1.1/"
   xmlns:cc="http://creativecommons.org/ns#"
   xmlns:rdf="http://www.w3.org/1999/02/22-rdf-syntax-ns#"
   xmlns:svg="http://www.w3.org/2000/svg"
   xmlns="http://www.w3.org/2000/svg"
   xmlns:sodipodi="http://sodipodi.sourceforge.net/DTD/sodipodi-0.dtd"
   xmlns:inkscape="http://www.inkscape.org/namespaces/inkscape"
   inkscape:version="1.0 (4035a4fb49, 2020-05-01)"
   sodipodi:docname="1OU.svg"
   id="svg29"
   version="1.1"
   width="177.17"
   height="177.17">
  <metadata
     id="metadata35">
    <rdf:RDF>
      <cc:Work
         rdf:about="">
        <dc:format>image/svg+xml</dc:format>
        <dc:type
           rdf:resource="http://purl.org/dc/dcmitype/StillImage" />
      </cc:Work>
    </rdf:RDF>
  </metadata>
  <defs
     id="defs33" />
  <sodipodi:namedview
     inkscape:current-layer="svg29"
     inkscape:window-maximized="1"
     inkscape:window-y="0"
     inkscape:window-x="0"
     inkscape:cy="134.0218"
     inkscape:cx="133.45156"
     inkscape:zoom="1.5408929"
     showgrid="false"
     id="namedview31"
     inkscape:window-height="711"
     inkscape:window-width="1366"
     inkscape:pageshadow="2"
     inkscape:pageopacity="0"
     guidetolerance="10"
     gridtolerance="10"
     objecttolerance="10"
     borderopacity="1"
     bordercolor="#666666"
     pagecolor="#ffffff" />
  <!--
Created by Hari Seldon and modified by orangain, licensed under Creative Commons Attribution-Share Alike 3.0 Unported.
See: https://creativecommons.org/licenses/by-sa/3.0/deed.en

Original file is available at: https://commons.wikimedia.org/wiki/File:Shogi_osho(svg).svg
-->
  <filter
     id="drop-shadow">
    <feGaussianBlur
       id="feGaussianBlur2"
       stdDeviation="2"
       result="blur"
       in="SourceAlpha" />
    <feOffset
       id="feOffset4"
       dy="2"
       dx="2"
       result="offsetBlur" />
    <feBlend
       id="feBlend6"
       mode="normal"
       in2="offsetBlur"
       in="SourceGraphic" />
  </filter>
  <g
     id="g27"
     transform="matrix(3.0164145,0,0,3.0164145,24.950051,13.317315)"
     filter="url(#drop-shadow)">
    <g
       id="g25"
       transform="rotate(180,21.0785,25)">
      <path
         id="path9"
         fill="#feec99"
         d="M 21.015,0.615 C 16.919,1.649 12.844,2.767 8.807,4.01 8.34,4.173 7.677,4.273 7.606,4.875 6.897,8.291 6.428,11.76 5.869,15.206 c -1.73,11.255 -3.378,22.528 -5.1,33.78 0.155,0.682 1.013,0.424 1.51,0.48 12.894,0.025 25.788,0.03 38.68,-0.033 0.672,-0.156 0.28,-0.952 0.279,-1.409 C 39.227,34.904 37.362,21.761 35.24,8.658 34.963,7.302 34.892,5.876 34.424,4.571 34.077,4.074 33.351,4.103 32.836,3.867 29.004,2.73 25.163,1.6 21.286,0.636 21.196,0.619 21.106,0.604 21.015,0.615 Z m 5.09,6.246 c 0.365,-0.09 0.92,0.166 0.758,0.61 -0.396,0.628 -1.268,0.624 -1.918,0.781 -1.09,0.222 -2.256,0.114 -3.306,0.483 -0.63,0.354 -0.178,1.135 -0.076,1.655 0.247,0.62 0.277,1.396 0.756,1.89 0.94,0.365 2.004,0.015 2.972,0.243 0.249,0.134 0.686,0.333 0.69,0.638 -0.78,0.372 -1.715,0.217 -2.56,0.352 -0.646,-0.011 -1.31,0.347 -1.464,1.015 -0.258,0.953 -0.585,1.922 -0.62,2.912 0.167,0.662 1.021,0.469 1.53,0.495 1.608,-0.006 3.19,-0.394 4.791,-0.39 0.836,0.05 1.783,0.098 2.388,0.75 0.101,0.133 0.483,0.367 0.335,0.538 -0.694,0.315 -1.518,0.14 -2.264,0.202 -2.92,0.036 -5.843,-0.135 -8.76,-0.008 -1.698,0.085 -3.226,1.068 -4.912,1.118 -1.306,-0.093 -2.363,-1.031 -3.143,-2.012 -0.081,-0.208 0.42,0.002 0.574,-0.014 1.862,0.426 3.784,0.668 5.691,0.414 0.648,-0.113 1.355,-0.064 1.952,-0.345 0.237,-0.68 0.018,-1.447 0.07,-2.162 -0.056,-0.69 0.11,-1.725 -0.68,-2.052 -0.847,-0.195 -1.754,-0.007 -2.575,-0.357 -0.569,-0.18 -1.1,-0.462 -1.618,-0.758 1.41,-0.004 2.866,0.286 4.25,-0.068 0.813,-0.352 0.696,-1.426 0.595,-2.144 C 19.463,9.957 19.239,9.057 18.41,8.96 16.941,8.793 15.27,8.74 14.167,7.63 13.795,7.298 14.422,7.579 14.634,7.61 c 3.258,0.677 6.603,0.027 9.827,-0.557 0.547,-0.085 1.093,-0.176 1.644,-0.192 z m 2.537,15.879 c 0.546,-0.072 1.004,0.405 1.215,0.845 -0.506,0.674 -1.47,0.555 -2.22,0.713 -1.037,0.157 -2.366,0.1 -3.033,1.063 -0.405,0.982 -0.578,2.055 -0.86,3.075 -0.046,0.635 0.756,0.859 1.246,0.632 1.51,-0.374 2.93,-1.16 4.47,-1.36 0.774,-0.097 1.479,0.373 2.115,0.762 0.564,0.408 0.184,1.177 -0.16,1.603 -0.397,0.657 -1.168,1.116 -1.335,1.889 0.042,0.734 1,0.565 1.32,1.11 0.45,0.56 1.042,1.177 1.839,1.033 0.997,-0.039 1.943,-0.567 2.935,-0.406 0.626,0.298 1.084,0.882 1.433,1.469 -1.638,-0.003 -3.264,-0.148 -4.885,-0.349 -0.656,0.13 -0.299,0.901 -0.284,1.34 0.46,2.89 0.64,5.888 0.108,8.777 -0.057,0.438 -0.46,1.062 -0.963,0.758 -1.1,-0.702 -1.757,-1.92 -2.793,-2.717 -0.388,-0.33 -0.802,-0.627 -1.245,-0.877 1.04,-0.104 2.185,0.056 3.133,-0.457 0.828,-0.678 0.6,-1.885 0.574,-2.826 -0.133,-1.172 -0.144,-2.387 -0.428,-3.525 -0.358,-0.406 -1.022,-0.087 -1.507,-0.158 -3.494,0.12 -6.895,1.026 -10.348,1.477 -0.821,0.126 -1.42,-0.584 -1.958,-1.081 -0.147,-0.104 -0.192,-0.463 0.079,-0.336 1.81,0.215 3.646,0.145 5.465,0.09 2.326,-0.155 4.66,-0.414 6.93,-0.956 0.552,-0.098 1.06,-0.676 0.744,-1.235 -0.243,-0.646 -0.884,-1.15 -1.598,-0.971 -1.74,0.325 -3.473,0.93 -5.265,0.672 2.38,-0.79 5.072,-1.165 7.002,-2.923 0.516,-0.435 0.837,-1.41 0.163,-1.85 -0.817,-0.354 -1.691,0.162 -2.457,0.43 -1.218,0.524 -2.462,1.185 -3.835,1.046 -0.957,-0.095 -1.741,0.515 -2.392,1.135 -0.384,0.268 -0.917,0.802 -1.401,0.48 -0.354,-0.497 0.104,-1.094 0.438,-1.467 0.934,-1.139 2.113,-2.08 2.957,-3.29 0.333,-0.707 -0.525,-1.173 -0.997,-1.516 -0.295,-0.191 -0.618,-0.33 -0.906,-0.533 1.873,-0.304 3.807,-0.548 5.539,-1.38 0.372,-0.148 0.768,-0.184 1.165,-0.186 z m -15.608,1.527 c 1.318,0.108 2.721,1.051 2.75,2.474 0.121,1.827 -0.586,3.57 -0.746,5.376 -0.479,3.3 -0.509,6.65 -0.845,9.959 -0.188,1.085 -0.27,2.288 -0.905,3.217 -0.318,0.357 -0.673,-0.224 -0.85,-0.457 -0.595,-0.924 -1.174,-1.953 -1.687,-2.87 0.614,0.293 1.254,0.83 1.963,0.706 0.623,-0.37 0.474,-1.25 0.669,-1.855 0.362,-2.02 0.55,-4.07 0.645,-6.113 -0.264,-0.643 -1.014,-0.17 -1.438,0.011 -1.083,0.582 -2.362,0.972 -3.172,1.948 -0.601,0.864 -0.212,1.988 -0.601,2.928 -0.24,0.65 -0.454,1.503 -1.146,1.803 -0.288,0.05 -0.559,-0.28 -0.407,-0.564 0.217,-1.295 0.944,-2.443 1.2,-3.726 0.03,-0.516 -0.49,-0.8 -0.927,-0.85 -0.574,-0.34 -1.095,-0.914 -1.327,-1.511 1.517,0.19 3.089,0.853 4.603,0.263 1.02,-0.373 2.097,-0.735 2.945,-1.433 0.603,-0.57 0.635,-1.468 0.598,-2.238 -0.138,-0.488 -0.706,-0.319 -0.997,-0.084 -0.937,0.497 -1.818,1.129 -2.83,1.456 -0.838,0.143 -1.643,-0.343 -2.2,-0.924 0.785,-0.114 1.628,0.042 2.388,-0.188 0.287,-0.593 0.054,-1.302 0.019,-1.94 -0.073,-0.996 -0.508,-1.992 -1.076,-2.744 0.783,0.13 1.566,0.538 1.891,1.31 0.36,0.542 0.333,1.203 0.208,1.815 -0.057,0.585 0.635,0.902 1.107,0.627 0.949,-0.23 1.952,-0.922 1.92,-2.007 0.094,-1.578 -1.22,-2.681 -1.962,-3.922 -0.089,-0.207 -0.134,-0.55 0.21,-0.467 z m 11.242,12.85 c 0.759,0.111 1.433,0.715 1.734,1.404 0.11,0.582 -0.62,0.846 -1.039,1.052 -1.075,0.46 -2.237,0.726 -3.416,0.645 0.877,-0.413 2,-0.634 2.516,-1.532 0.041,-0.5 -0.063,-1.04 0.048,-1.521 0.043,-0.04 0.101,-0.046 0.157,-0.048 z" />
      <path
         id="path11"
         fill="#d0d0d0"
         d="m 29.645,44.757 c -0.66,-0.826 -2.062,-1.902 -3.116,-2.39 l -1.918,-0.886 3.013,-0.122 3.012,-0.122 v -1.592 c 0,-0.876 -0.108,-2.134 -0.24,-2.795 -0.225,-1.124 -0.354,-1.194 -1.974,-1.073 -0.953,0.072 -2.144,0.217 -2.647,0.322 l -0.914,0.193 1.034,1.033 c 0.857,0.857 0.956,1.18 0.577,1.887 -0.583,1.09 -2.055,1.646 -4.357,1.646 -2.444,0 -2.686,-0.628 -0.52,-1.35 1.805,-0.601 2.276,-1.3 1.592,-2.364 -0.314,-0.49 -0.738,-0.515 -2.362,-0.144 -2.373,0.543 -3.723,0.134 -4.39,-1.33 -0.624,-1.369 -0.24,-1.692 1.268,-1.067 1.248,0.517 3.066,0.422 9.09,-0.475 2.755,-0.41 3.538,-0.792 2.694,-1.314 -0.175,-0.108 -1.304,0.06 -2.51,0.372 -1.205,0.313 -2.417,0.5 -2.694,0.415 -0.277,-0.085 -1.055,-0.276 -1.728,-0.425 -1.599,-0.354 -0.836,-0.856 2.264,-1.492 2.632,-0.54 5.402,-1.949 5.402,-2.746 0,-0.784 -0.48,-0.69 -2.908,0.57 -1.649,0.855 -2.315,1.014 -2.843,0.677 -0.543,-0.346 -0.982,-0.185 -2.06,0.757 -1.114,0.973 -1.522,1.116 -2.182,0.763 -1.302,-0.697 -0.959,-1.67 1.37,-3.888 1.924,-1.833 2.077,-2.097 1.298,-2.23 -0.486,-0.082 -1.313,-0.607 -1.838,-1.166 l -0.955,-1.017 2.254,-0.01 c 1.347,-0.005 2.99,-0.342 4.083,-0.838 2.026,-0.92 3.136,-0.773 3.82,0.505 0.652,1.219 0.037,1.624 -2.87,1.887 -2.413,0.22 -2.511,0.273 -2.48,1.36 0.017,0.622 -0.1,1.346 -0.262,1.607 -0.43,0.696 1.1,0.596 2.065,-0.135 1.687,-1.275 6.001,-0.394 6.001,1.226 0,0.312 -0.484,1.143 -1.076,1.846 -0.852,1.013 -0.936,1.279 -0.402,1.279 0.37,0 0.789,0.3 0.93,0.668 0.209,0.545 0.639,0.618 2.32,0.395 2.29,-0.304 3.63,0.423 3.63,1.967 0,0.765 -0.192,0.805 -2.674,0.55 l -2.675,-0.274 0.39,1.357 c 0.57,1.987 0.491,8.366 -0.11,8.967 -0.906,0.906 -2.177,0.53 -3.402,-1.004 z M 10.79,43.477 c -0.745,-1.284 -1.26,-2.43 -1.145,-2.545 0.178,-0.177 0.716,0.032 2.773,1.077 0.314,0.16 0.969,-6.073 0.67,-6.372 -0.109,-0.108 -0.926,0.134 -1.817,0.538 -1.443,0.655 -1.626,0.905 -1.667,2.278 -0.056,1.888 -1.142,3.651 -2.249,3.651 -1.067,0 -1.067,-1.287 -0.001,-3.636 0.77,-1.696 0.771,-1.766 0.042,-1.766 -0.88,0 -1.465,-0.628 -1.897,-2.035 -0.276,-0.898 -0.21,-0.968 0.676,-0.71 2.495,0.722 3.698,0.73 5.517,0.036 1.358,-0.52 1.907,-0.96 1.907,-1.533 0,-0.782 -0.032,-0.78 -1.095,0.056 -1.386,1.09 -3.235,1.103 -4.308,0.03 -1.268,-1.268 -1.045,-1.74 0.67,-1.418 l 1.5,0.281 -0.292,-1.82 C 9.914,28.587 9.519,27.559 9.197,27.306 8.337,26.627 8.48,26.313 9.651,26.313 c 0.571,0 1.413,0.374 1.87,0.831 0.457,0.457 0.831,1.299 0.831,1.87 0,1.131 0.035,1.159 1.005,0.787 0.94,-0.361 0.839,-2.577 -0.156,-3.422 -0.448,-0.379 -0.94,-1.224 -1.096,-1.878 -0.276,-1.166 -0.256,-1.182 1.126,-0.89 2.982,0.632 3.944,2.822 2.83,6.445 -0.245,0.798 -0.6,4.163 -0.789,7.477 -0.188,3.314 -0.579,6.54 -0.867,7.169 -0.859,1.872 -2.054,1.468 -3.615,-1.224 z m 2.139,-22.974 c -1.206,-0.487 -2.775,-2.548 -2.301,-3.021 0.226,-0.227 1.021,-0.2 1.986,0.068 0.884,0.246 2.683,0.448 3.997,0.45 l 2.39,0.002 v -1.889 -1.889 l -1.35,0.24 c -0.954,0.17 -1.749,-0.006 -2.702,-0.598 -2.02,-1.254 -1.676,-1.682 1.35,-1.682 h 2.702 V 10.705 C 19.001,9.79 18.836,9.328 18.57,9.492 17.736,10.007 14.884,9.2 13.837,8.154 12.671,6.987 12.781,6.122 14.012,6.781 c 1.2,0.642 7.073,0.493 9.552,-0.243 2.416,-0.718 4.164,-0.354 4.164,0.867 0,0.78 -1.24,1.322 -3.77,1.652 -1.83,0.238 -1.893,0.293 -1.719,1.484 0.217,1.478 0.66,1.828 1.628,1.286 0.771,-0.431 3.03,0.452 3.03,1.184 0,0.562 -1.601,1.338 -2.11,1.023 -0.237,-0.146 -0.867,-0.156 -1.4,-0.023 -0.745,0.187 -1.01,0.594 -1.146,1.753 l -0.176,1.508 3.49,-0.283 c 3.838,-0.311 5.497,0.249 5.497,1.855 0,0.784 -0.282,0.82 -6.13,0.774 -4.708,-0.038 -6.55,0.107 -7.947,0.622 -2.011,0.742 -2.745,0.79 -4.046,0.264 z" />
      <path
         id="path13"
         fill="#b0b0b0"
         d="m 29.697,44.619 c -0.745,-1.053 -1.694,-1.797 -2.702,-2.119 -2.685,-0.858 -2.49,-1.227 0.65,-1.227 h 2.991 l -0.005,-1.974 c -0.01,-3.541 -0.217,-3.848 -2.428,-3.595 -1.061,0.121 -2.397,0.318 -2.968,0.437 l -1.04,0.217 1.143,0.6 c 1.714,0.902 1.568,2.518 -0.298,3.297 -1.603,0.67 -3.868,0.78 -4.735,0.231 -0.406,-0.257 -0.053,-0.53 1.246,-0.963 1.623,-0.541 1.818,-0.745 1.855,-1.941 0.031,-1.002 -0.108,-1.28 -0.556,-1.107 -1.21,0.464 -3.838,0.735 -4.797,0.495 -0.926,-0.233 -2.243,-2.202 -1.782,-2.663 0.116,-0.116 0.775,0.024 1.466,0.31 1.904,0.789 12.28,-0.419 11.942,-1.39 -0.09,-0.26 -0.614,-0.422 -1.162,-0.36 l -3.164,0.362 c -2.451,0.282 -4.082,-0.08 -3.027,-0.673 0.342,-0.192 1.815,-0.658 3.273,-1.036 2.953,-0.765 4.622,-1.687 4.622,-2.554 0,-0.787 -0.573,-0.724 -2.547,0.283 -0.925,0.472 -2.215,0.803 -2.866,0.735 -0.79,-0.083 -1.525,0.196 -2.208,0.838 -1.152,1.082 -2.891,1.084 -3.097,0.004 -0.074,-0.387 0.826,-1.639 2.073,-2.886 1.902,-1.9 2.09,-2.226 1.373,-2.373 -0.925,-0.19 -2.286,-1.268 -2.286,-1.811 0,-0.193 0.932,-0.351 2.07,-0.351 1.138,0 2.82,-0.301 3.74,-0.669 1.867,-0.747 3.52,-0.525 3.924,0.527 0.4,1.042 -0.163,1.356 -2.952,1.648 l -2.531,0.264 -0.229,1.704 c -0.125,0.938 -0.165,1.768 -0.087,1.845 0.077,0.078 0.899,-0.246 1.826,-0.72 1.838,-0.937 3.81,-1.104 5.071,-0.429 1.047,0.56 1.056,2.538 0.015,3.48 -0.774,0.7 -0.772,0.732 0.104,1.629 0.797,0.816 1.105,0.874 2.875,0.54 1.666,-0.315 2.114,-0.256 2.805,0.37 0.453,0.41 0.823,1.111 0.823,1.56 0,0.754 -0.198,0.793 -2.664,0.53 l -2.664,-0.286 0.368,1.587 c 0.508,2.187 0.482,7.494 -0.041,8.472 -0.706,1.318 -2.144,0.966 -3.42,-0.837 z m -18.53,-0.88 C 9.299,40.733 9.406,40.183 11.56,41.717 l 1.207,0.86 0.022,-0.964 c 0.012,-0.53 0.161,-2.225 0.333,-3.768 0.171,-1.543 0.209,-2.797 0.082,-2.787 -0.126,0.011 -0.977,0.432 -1.891,0.935 -1.457,0.804 -1.675,1.117 -1.761,2.54 -0.113,1.852 -1.077,3.571 -2.002,3.571 -1.058,0 -1.155,-1.178 -0.273,-3.302 l 0.844,-2.029 -0.96,-0.24 C 6.572,36.384 6.027,35.791 5.749,34.995 5.319,33.762 5.343,33.713 6.227,33.997 c 2.14,0.686 3.758,0.692 5.523,0.017 1.293,-0.493 1.848,-0.943 1.848,-1.496 0,-0.77 -0.034,-0.77 -1.35,0.033 -1.77,1.08 -2.873,1.042 -3.98,-0.135 -1.217,-1.297 -1.155,-1.427 0.655,-1.372 1.492,0.046 1.553,-0.005 1.43,-1.199 -0.072,-0.686 -0.498,-1.76 -0.948,-2.39 L 8.587,26.313 h 1.051 c 1.345,0 2.714,1.363 2.714,2.701 0,0.762 0.221,1.039 0.83,1.039 0.694,0 0.832,-0.277 0.832,-1.662 0,-0.915 -0.197,-1.663 -0.437,-1.663 -0.451,0 -1.823,-2.865 -1.518,-3.17 0.476,-0.476 3.447,1.004 4,1.993 0.556,0.992 0.544,1.492 -0.12,4.779 -0.407,2.019 -0.876,6.038 -1.043,8.932 -0.41,7.148 -1.36,8.287 -3.729,4.477 z M 12.482,20.1 c -0.728,-0.444 -1.545,-1.22 -1.815,-1.724 -0.482,-0.902 -0.456,-0.913 1.532,-0.648 3.014,0.402 3.126,0.41 5.036,0.339 l 1.766,-0.065 v -1.9 c 0,-1.716 -0.091,-1.893 -0.935,-1.824 -1.788,0.145 -2.35,-0.022 -3.51,-1.042 l -1.165,-1.026 2.805,-0.013 2.805,-0.014 v -1.397 c 0,-1.359 -0.048,-1.398 -1.695,-1.398 -1.838,0 -3.818,-1.159 -4.056,-2.374 -0.119,-0.6 -0.004,-0.644 0.7,-0.267 1.211,0.648 7.408,0.545 9.74,-0.163 1.964,-0.595 4.038,-0.32 4.038,0.538 0,0.808 -1.611,1.737 -3.012,1.737 -2.322,0 -2.658,0.258 -2.467,1.892 0.164,1.408 0.213,1.444 1.594,1.185 1.052,-0.197 1.635,-0.076 2.23,0.461 1.072,0.971 0.687,1.447 -1.175,1.455 -1.977,0.008 -2.382,0.31 -2.717,2.03 l -0.275,1.412 3.366,-0.26 c 3.771,-0.29 5.78,0.334 5.78,1.799 0,0.77 -0.31,0.807 -6.337,0.745 -5.123,-0.052 -6.646,0.07 -7.947,0.634 -2.056,0.892 -2.665,0.876 -4.286,-0.112 z" />
      <path
         id="path15"
         fill="#909090"
         d="m 29.927,44.758 c -0.638,-0.826 -2.096,-1.937 -3.238,-2.47 l -2.078,-0.967 3.013,-0.024 3.012,-0.024 v -2.251 c 0,-3.494 -0.085,-3.586 -3.053,-3.292 -2.456,0.243 -4.704,0.93 -3.14,0.96 0.838,0.015 2.038,1.318 2.038,2.212 0,0.374 -0.367,0.876 -0.815,1.115 -1.277,0.684 -4.404,0.985 -5.26,0.506 -0.665,-0.373 -0.495,-0.504 1.196,-0.93 1.86,-0.469 1.97,-0.574 1.97,-1.891 0,-1.357 -0.037,-1.387 -1.35,-1.1 -2.886,0.63 -4.521,0.38 -5.43,-0.828 -0.468,-0.625 -0.77,-1.219 -0.669,-1.32 0.101,-0.1 0.973,0.027 1.937,0.285 1.376,0.367 2.791,0.325 6.565,-0.193 2.646,-0.364 4.929,-0.779 5.072,-0.922 0.143,-0.143 0.054,-0.468 -0.2,-0.72 -0.336,-0.337 -0.82,-0.335 -1.8,0.006 -1.585,0.552 -4.512,0.604 -5.318,0.094 -0.62,-0.393 0.925,-1.017 3.741,-1.513 1.919,-0.338 4.1,-1.653 4.1,-2.471 0,-0.845 -0.541,-0.794 -2.568,0.24 -1.064,0.543 -2.185,0.8 -2.983,0.682 -0.984,-0.144 -1.455,0.038 -2.049,0.793 -0.784,0.996 -2.527,1.323 -2.998,0.56 -0.467,-0.755 0.212,-1.968 1.659,-2.96 0.781,-0.535 1.585,-1.342 1.786,-1.792 0.3,-0.67 0.137,-0.936 -0.89,-1.46 -2.073,-1.057 -1.872,-1.68 0.542,-1.68 1.17,0 2.798,-0.28 3.618,-0.623 1.945,-0.812 2.776,-0.786 3.59,0.114 1.013,1.118 0.334,1.664 -2.468,1.98 l -2.544,0.288 -0.23,1.71 c -0.125,0.94 -0.165,1.774 -0.088,1.851 0.078,0.078 0.9,-0.246 1.827,-0.72 1.854,-0.945 3.186,-1.07 4.809,-0.454 1.314,0.5 1.467,2.427 0.278,3.503 -0.77,0.697 -0.766,0.734 0.187,1.687 0.87,0.87 1.161,0.933 2.71,0.585 2.032,-0.457 3.709,0.338 3.709,1.758 0,0.807 -0.156,0.838 -2.767,0.558 -2.603,-0.278 -2.748,-0.25 -2.45,0.487 0.553,1.365 0.754,7.781 0.281,8.99 -0.622,1.592 -1.851,1.456 -3.254,-0.36 z m -18.76,-1.02 c -1.682,-2.705 -1.65,-3.164 0.146,-2.104 1.32,0.778 1.455,0.792 1.468,0.145 0.008,-0.393 0.182,-2.02 0.387,-3.616 0.206,-1.597 0.316,-2.96 0.245,-3.032 -0.072,-0.071 -0.972,0.28 -2.002,0.78 -1.74,0.845 -1.874,1.026 -1.895,2.547 -0.025,1.824 -1.007,3.646 -1.966,3.646 -1.05,0 -1.125,-1.087 -0.218,-3.139 0.475,-1.074 0.864,-2.003 0.864,-2.063 0,-0.06 -0.465,-0.227 -1.033,-0.37 -0.643,-0.16 -1.132,-0.654 -1.296,-1.31 -0.333,-1.326 -0.048,-1.618 1.02,-1.047 1.99,1.065 6.417,-0.042 6.854,-1.714 0.114,-0.436 0.082,-0.731 -0.071,-0.655 -0.154,0.076 -0.976,0.493 -1.827,0.927 -1.72,0.876 -3.231,0.535 -4,-0.9 -0.363,-0.68 -0.242,-0.74 1.202,-0.603 l 1.606,0.153 -0.244,-1.6 C 10.273,28.903 9.782,27.763 9.315,27.248 L 8.467,26.313 h 1.039 c 1.256,0 2.846,1.581 2.846,2.832 0,0.613 0.254,0.908 0.785,0.908 1.249,0 1.396,-2.667 0.21,-3.781 -0.504,-0.474 -1.01,-1.22 -1.125,-1.657 -0.32,-1.226 1.973,-1.068 3.265,0.224 1.194,1.194 1.263,2.288 0.365,5.753 -0.36,1.391 -0.79,5.092 -0.952,8.224 -0.398,7.614 -1.311,8.819 -3.733,4.923 z M 12.482,20.1 c -0.728,-0.444 -1.53,-1.191 -1.78,-1.66 -0.414,-0.772 -0.34,-0.854 0.777,-0.854 0.679,0 1.705,0.18 2.281,0.398 0.576,0.22 1.991,0.287 3.144,0.15 l 2.097,-0.248 v -1.812 -1.813 h -1.64 c -1.182,0 -1.963,-0.298 -2.804,-1.07 l -1.166,-1.07 1.601,0.22 c 0.881,0.121 2.144,0.112 2.805,-0.02 1.043,-0.209 1.204,-0.43 1.204,-1.644 0,-1.382 -0.027,-1.402 -1.847,-1.402 -1.354,0 -2.158,-0.268 -3.013,-1.004 -1.463,-1.26 -1.131,-1.626 1.03,-1.14 1.538,0.345 3.383,0.233 10.105,-0.617 1.513,-0.192 1.964,-0.105 2.164,0.417 0.37,0.965 -1.262,1.928 -3.268,1.928 -0.94,0 -1.796,0.088 -1.903,0.195 -0.108,0.108 -0.118,0.86 -0.023,1.673 0.168,1.435 0.213,1.47 1.597,1.21 1.052,-0.198 1.635,-0.077 2.23,0.46 1.12,1.015 0.671,1.449 -1.5,1.449 -1.912,0 -1.958,0.043 -2.445,2.245 l -0.266,1.206 3.356,-0.258 c 2.12,-0.164 3.727,-0.09 4.364,0.2 1.049,0.478 1.63,1.414 1.256,2.02 -0.12,0.193 -2.972,0.33 -6.339,0.305 -4.81,-0.036 -6.511,0.103 -7.94,0.65 -2.284,0.875 -2.464,0.87 -4.077,-0.114 z" />
      <path
         id="path17"
         fill="#6f6f6f"
         d="m 29.859,44.665 c -0.714,-0.901 -2.046,-1.938 -2.961,-2.304 -0.915,-0.366 -1.664,-0.778 -1.664,-0.915 0,-0.137 1.169,-0.185 2.597,-0.107 l 2.598,0.142 0.123,-2.81 c 0.092,-2.1 -0.023,-2.868 -0.453,-3.033 -0.317,-0.121 -2.523,0.091 -4.902,0.472 -2.38,0.38 -4.942,0.785 -5.695,0.898 -1.505,0.225 -2.753,-0.583 -3.13,-2.028 -0.175,-0.666 -0.077,-0.772 0.477,-0.52 1.374,0.625 4.919,0.63 8.74,0.012 2.139,-0.346 3.966,-0.706 4.062,-0.802 0.096,-0.096 0.066,-0.456 -0.066,-0.8 -0.208,-0.54 -0.45,-0.551 -1.776,-0.078 -1.782,0.637 -4.597,0.739 -5.451,0.199 -0.434,-0.275 -0.102,-0.502 1.246,-0.853 1.011,-0.264 2.492,-0.649 3.292,-0.856 1.824,-0.473 3.325,-1.508 3.325,-2.292 0,-0.844 -0.952,-0.746 -2.686,0.278 -0.97,0.571 -1.933,0.811 -2.771,0.688 -0.958,-0.14 -1.532,0.06 -2.258,0.785 -1.143,1.143 -2.473,1.268 -2.856,0.268 -0.193,-0.503 0.332,-1.285 1.825,-2.717 1.153,-1.106 2.093,-2.144 2.088,-2.306 -0.005,-0.163 -0.603,-0.577 -1.33,-0.92 -2.193,-1.036 -1.889,-1.571 1.005,-1.764 1.44,-0.096 3.232,-0.436 3.98,-0.755 1.573,-0.67 2.795,-0.185 2.795,1.11 0,0.647 -0.457,0.85 -2.597,1.155 -2.37,0.338 -2.597,0.458 -2.597,1.378 0,0.555 -0.194,1.37 -0.43,1.812 -0.581,1.085 0.344,1.074 2.399,-0.027 3.852,-2.064 7.344,0.419 4.411,3.136 -0.806,0.748 -0.923,1.02 -0.439,1.02 0.363,0 0.932,0.388 1.265,0.862 0.539,0.77 0.775,0.815 2.205,0.418 0.88,-0.245 1.741,-0.446 1.913,-0.447 0.557,-0.004 1.974,1.643 1.974,2.295 0,0.534 -0.439,0.59 -2.77,0.351 -2.613,-0.268 -2.753,-0.239 -2.457,0.508 0.529,1.332 0.77,6.937 0.365,8.48 -0.554,2.107 -1.761,2.131 -3.396,0.067 z M 11.151,43.713 c -0.728,-1.172 -1.218,-2.237 -1.088,-2.367 0.13,-0.13 0.77,0.079 1.424,0.464 l 1.187,0.702 0.233,-1.762 c 0.128,-0.97 0.352,-2.732 0.497,-3.918 l 0.265,-2.155 -2.11,1.116 c -1.858,0.984 -2.11,1.274 -2.113,2.44 -0.006,2.656 -1.469,4.65 -2.588,3.53 -0.402,-0.402 -0.021,-1.827 1.269,-4.747 0.076,-0.173 -0.129,-0.314 -0.455,-0.314 -0.777,0 -1.97,-1.334 -1.97,-2.204 0,-0.563 0.19,-0.612 1.067,-0.28 3.042,1.158 7.245,-0.307 7.245,-2.524 0,-0.203 -0.68,0.093 -1.513,0.657 -1.759,1.194 -2.525,1.27 -3.797,0.38 C 7.384,31.806 7.562,31.3 9.209,31.3 c 1.415,0 1.426,-0.014 1.192,-1.559 -0.13,-0.857 -0.619,-1.979 -1.086,-2.493 L 8.467,26.313 h 0.922 c 1.23,0 2.963,1.788 2.963,3.059 0,1.532 1.499,0.976 1.83,-0.679 0.204,-1.02 0.042,-1.51 -0.787,-2.375 -1.96,-2.046 -1.072,-3.18 1.465,-1.868 1.634,0.846 1.882,2.17 1.03,5.51 -0.392,1.537 -0.843,5.319 -1.003,8.404 -0.409,7.897 -1.331,9.218 -3.736,5.35 z m 9.326,-3.235 c -0.13,-0.21 0.561,-0.65 1.534,-0.98 1.545,-0.522 1.754,-0.737 1.65,-1.697 -0.093,-0.842 0.063,-1.1 0.662,-1.1 1.107,0 2.287,1.432 1.98,2.401 -0.398,1.252 -5.201,2.386 -5.826,1.376 z M 12.975,20.267 c -2.689,-1.378 -3.015,-2.925 -0.52,-2.464 1.55,0.286 6.585,0.352 6.762,0.088 0.036,-0.053 -0.017,-0.892 -0.119,-1.863 -0.182,-1.74 -0.209,-1.767 -1.78,-1.767 -1.123,0 -1.941,-0.311 -2.761,-1.051 l -1.166,-1.051 1.933,0.26 c 2.854,0.387 3.677,0.002 3.677,-1.718 0,-1.41 -0.02,-1.426 -1.847,-1.426 -1.354,0 -2.158,-0.268 -3.013,-1.004 -1.472,-1.267 -1.196,-1.548 1.028,-1.048 1.619,0.363 3.289,0.244 10.088,-0.72 1.011,-0.143 1.641,-0.013 1.994,0.413 0.797,0.96 -0.925,1.943 -3.404,1.943 -1.907,0 -2.019,0.059 -1.784,0.935 0.138,0.514 0.253,1.283 0.257,1.709 0.005,0.661 0.22,0.733 1.491,0.494 1.55,-0.29 2.67,0.236 2.67,1.254 0,0.36 -0.676,0.593 -1.96,0.676 -1.895,0.122 -1.973,0.18 -2.333,1.708 -0.204,0.87 -0.286,1.666 -0.182,1.77 0.105,0.105 1.652,-0.013 3.438,-0.261 2.972,-0.414 3.34,-0.384 4.324,0.352 0.592,0.441 1.076,1.063 1.076,1.381 0,0.469 -1.224,0.583 -6.44,0.599 -5.155,0.015 -6.751,0.16 -7.987,0.727 -1.876,0.859 -1.889,0.86 -3.442,0.064 z" />
      <path
         id="path19"
         fill="#4f4f4f"
         d="m 29.821,44.618 c -0.715,-0.904 -1.946,-1.876 -2.736,-2.162 -2.12,-0.766 -1.744,-1.226 0.76,-0.932 2.804,0.33 3.145,-0.077 2.825,-3.368 l -0.241,-2.493 -2.286,0.085 c -1.257,0.046 -4.015,0.403 -6.129,0.792 -3.63,0.669 -3.887,0.668 -4.633,-0.008 -0.435,-0.393 -0.89,-1.092 -1.01,-1.552 -0.173,-0.664 -0.074,-0.774 0.478,-0.53 1.405,0.62 4.116,0.685 8.007,0.19 4.428,-0.565 5.094,-0.817 4.723,-1.786 -0.228,-0.594 -0.432,-0.601 -1.937,-0.07 -1.808,0.638 -3.793,0.725 -5.076,0.222 -0.628,-0.246 -0.363,-0.424 1.247,-0.837 3.47,-0.889 5.444,-1.696 6.206,-2.538 0.687,-0.76 0.688,-0.824 0.018,-1.081 -0.407,-0.156 -1.515,0.127 -2.578,0.657 -1.146,0.573 -2.29,0.85 -2.97,0.72 -0.808,-0.154 -1.351,0.057 -2.03,0.789 -1.063,1.148 -2.42,1.307 -2.795,0.329 -0.175,-0.456 0.408,-1.316 1.825,-2.689 1.146,-1.11 2.083,-2.165 2.083,-2.345 0,-0.18 -0.561,-0.575 -1.247,-0.879 -1.795,-0.794 -1.547,-1.18 0.963,-1.493 1.216,-0.152 2.733,-0.548 3.372,-0.88 1.484,-0.77 2.494,-0.764 3.141,0.016 0.931,1.122 0.18,1.748 -2.454,2.046 -2.445,0.277 -2.528,0.326 -2.528,1.488 0,0.66 -0.187,1.317 -0.416,1.458 -0.635,0.392 -0.495,1.039 0.224,1.039 0.352,0 1.408,-0.392 2.347,-0.87 3.705,-1.891 7.01,0.594 4.225,3.175 -0.806,0.747 -0.923,1.02 -0.439,1.02 0.363,0 0.945,0.405 1.292,0.901 0.582,0.83 0.762,0.862 2.295,0.403 1.76,-0.527 3.085,-0.113 3.555,1.113 0.396,1.032 -0.176,1.246 -2.709,1.016 l -2.507,-0.227 0.326,1.825 c 0.525,2.94 0.385,7.652 -0.25,8.418 -0.866,1.042 -1.523,0.827 -2.94,-0.963 z M 11.84,44.702 c -0.315,-0.629 -0.912,-1.657 -1.325,-2.286 -0.85,-1.291 -0.345,-1.503 1.188,-0.498 0.968,0.634 0.988,0.619 1.22,-0.935 0.13,-0.869 0.354,-2.637 0.498,-3.93 l 0.263,-2.349 -2.12,1.015 c -1.956,0.936 -2.121,1.13 -2.121,2.474 0,1.77 -1.037,3.911 -1.894,3.911 -1.032,0 -1.097,-0.988 -0.2,-3.078 1.004,-2.343 1.001,-2.324 0.288,-2.324 -0.733,0 -1.934,-1.345 -1.934,-2.166 0,-0.575 0.187,-0.581 1.713,-0.056 1.357,0.468 2.026,0.492 3.22,0.113 2.246,-0.71 3.378,-1.549 3.378,-2.5 0,-0.845 -0.007,-0.846 -1.143,-0.045 -1.812,1.276 -2.933,1.477 -4.072,0.731 -1.421,-0.931 -1.27,-1.48 0.41,-1.48 1.416,0 1.426,-0.013 1.19,-1.558 -0.13,-0.857 -0.493,-1.853 -0.805,-2.214 -0.739,-0.855 -0.717,-1.214 0.075,-1.214 1.005,0 2.683,1.93 2.683,3.085 0,0.82 0.156,0.987 0.727,0.776 1.655,-0.61 1.78,-2.192 0.312,-3.937 -1.752,-2.082 -1.17,-3.027 1.199,-1.948 1.759,0.802 2.13,2.424 1.293,5.66 -0.4,1.543 -0.85,5.33 -1.003,8.415 -0.275,5.57 -0.758,7.48 -1.89,7.48 -0.317,0 -0.835,-0.514 -1.15,-1.142 z m 8.884,-4.193 c -0.41,-0.274 -0.07,-0.534 1.247,-0.953 1.61,-0.513 1.796,-0.701 1.69,-1.715 -0.093,-0.88 0.057,-1.139 0.662,-1.139 0.842,0 2.158,1.218 2.158,1.997 0,1.219 -4.52,2.64 -5.757,1.81 z M 12.968,20.273 c -1.3,-0.642 -2.522,-2.166 -2.086,-2.602 0.137,-0.138 1.091,-0.025 2.12,0.25 2.434,0.651 6.56,0.23 6.228,-0.636 -0.126,-0.33 -0.23,-1.144 -0.23,-1.81 0,-1.136 -0.104,-1.213 -1.638,-1.213 -1.132,0 -1.999,-0.31 -2.8,-1 L 13.4,12.263 16.2,12.488 19,12.713 V 11.047 9.38 L 16.845,9.173 c -1.577,-0.151 -2.36,-0.46 -2.919,-1.15 -0.42,-0.52 -0.707,-1.001 -0.636,-1.072 0.07,-0.07 0.92,0.074 1.889,0.32 1.296,0.329 2.664,0.311 5.18,-0.067 5.23,-0.786 6.7,-0.765 6.87,0.096 0.177,0.895 -1.392,1.56 -3.684,1.56 -1.752,0 -1.774,0.033 -1.368,2.065 0.245,1.221 0.375,1.317 1.489,1.095 1.405,-0.281 2.815,0.329 2.815,1.217 0,0.443 -0.502,0.609 -1.846,0.609 -2.087,0 -2.122,0.031 -2.537,2.245 l -0.303,1.615 2.654,-0.343 c 3.879,-0.5 4.912,-0.406 5.857,0.539 1.566,1.566 0.681,1.825 -5.213,1.527 -4.916,-0.248 -5.73,-0.187 -8.053,0.603 -3.037,1.032 -2.53,1.002 -4.072,0.24 z" />
      <path
         id="path21"
         fill="#2f2f2f"
         d="m 29.821,44.555 c -0.754,-0.938 -1.954,-1.959 -2.667,-2.27 -1.293,-0.562 -1.291,-0.564 1.049,-0.58 2.786,-0.02 2.942,-0.251 2.569,-3.82 l -0.265,-2.531 -2.74,0.263 c -1.507,0.146 -4.184,0.568 -5.947,0.94 -2.977,0.626 -3.282,0.625 -4.26,-0.015 -1.932,-1.267 -1.353,-1.846 1.608,-1.609 1.464,0.118 4.222,-0.008 6.13,-0.277 4.797,-0.68 4.998,-0.754 4.447,-1.637 -0.42,-0.671 -0.628,-0.68 -2.8,-0.114 -2.091,0.545 -5.11,0.409 -4.498,-0.203 0.12,-0.12 1.577,-0.569 3.237,-0.996 3.239,-0.833 5.54,-2.478 4.676,-3.342 -0.328,-0.328 -1.061,-0.146 -2.646,0.657 -1.417,0.718 -2.575,1.034 -3.278,0.893 -0.796,-0.16 -1.35,0.057 -2.076,0.81 -1.114,1.158 -2.237,1.159 -2.46,0.001 -0.096,-0.502 0.521,-1.387 1.762,-2.526 1.05,-0.965 1.909,-1.924 1.907,-2.132 -10e-4,-0.208 -0.609,-0.74 -1.35,-1.182 l -1.348,-0.804 2.235,-0.3 c 1.23,-0.165 2.976,-0.633 3.88,-1.041 1.835,-0.827 3.027,-0.466 3.027,0.917 0,0.572 -0.34,0.816 -1.247,0.895 -3.34,0.294 -3.85,0.504 -4.05,1.667 -0.108,0.623 -0.346,1.487 -0.53,1.921 -0.287,0.677 -0.192,0.756 0.668,0.553 0.552,-0.13 1.85,-0.561 2.885,-0.96 1.662,-0.64 2.023,-0.655 3.111,-0.134 1.65,0.79 1.77,1.866 0.37,3.326 -0.635,0.663 -0.94,1.206 -0.677,1.206 0.262,0 0.86,0.412 1.33,0.915 0.78,0.837 1.003,0.875 2.613,0.438 1.634,-0.442 1.834,-0.404 2.784,0.534 1.391,1.372 0.748,1.806 -2.17,1.465 l -2.393,-0.28 0.315,2.1 c 0.447,2.976 0.265,7.643 -0.325,8.355 -0.794,0.956 -1.41,0.72 -2.876,-1.103 z M 11.84,44.702 c -0.315,-0.629 -0.912,-1.658 -1.325,-2.286 -0.845,-1.284 -0.478,-1.47 0.94,-0.477 0.523,0.366 1.043,0.573 1.157,0.46 0.256,-0.257 0.967,-5.08 0.978,-6.64 l 0.008,-1.149 -2.078,1.053 c -1.778,0.901 -2.078,1.228 -2.078,2.266 0,2.5 -1.317,4.564 -2.36,3.698 -0.407,-0.338 -0.344,-0.883 0.298,-2.573 0.973,-2.56 0.956,-2.352 0.202,-2.352 -0.641,0 -2.146,-1.95 -1.784,-2.312 0.114,-0.114 1.028,0.01 2.03,0.278 1.618,0.432 2.066,0.381 4.004,-0.453 1.73,-0.745 2.182,-1.139 2.182,-1.898 v -0.959 l -1.858,1.038 c -1.66,0.928 -1.978,0.98 -2.982,0.49 C 7.434,32.039 7.456,31.3 9.219,31.3 h 1.508 l -0.28,-1.559 C 10.294,28.884 9.881,27.854 9.531,27.453 8.699,26.501 9.058,26.187 10.398,26.697 c 1.262,0.48 2.112,1.872 1.822,2.983 -0.24,0.916 -0.25,0.913 1.143,0.383 1.405,-0.534 1.416,-2.175 0.027,-3.826 -1.757,-2.088 -1.169,-3.027 1.215,-1.94 1.583,0.72 2.02,2.587 1.25,5.34 -0.35,1.257 -0.782,4.998 -0.957,8.312 -0.316,5.96 -0.784,7.895 -1.907,7.895 -0.318,0 -0.837,-0.514 -1.152,-1.142 z m 9.035,-4.151 c -0.642,-0.162 -0.409,-0.365 1.039,-0.908 1.64,-0.614 1.851,-0.834 1.746,-1.82 -0.092,-0.863 0.06,-1.121 0.663,-1.121 0.842,0 2.158,1.218 2.158,1.997 0,1.13 -3.665,2.34 -5.606,1.852 z M 13.361,20.296 c -1.404,-0.598 -2.937,-2.167 -2.523,-2.581 0.155,-0.155 1.186,-0.05 2.29,0.232 1.182,0.303 2.85,0.403 4.054,0.244 l 2.046,-0.272 -0.01,-1.827 c -0.009,-1.81 -0.024,-1.828 -1.464,-1.83 -1.192,-0.003 -4.155,-1.277 -4.155,-1.787 0,-0.075 1.136,-0.054 2.524,0.046 1.389,0.1 2.7,0.007 2.914,-0.207 0.215,-0.215 0.27,-0.986 0.125,-1.715 -0.236,-1.18 -0.42,-1.324 -1.688,-1.324 -1.68,0 -3.667,-0.936 -4.037,-1.901 -0.204,-0.53 -0.098,-0.617 0.469,-0.38 1.469,0.61 4.586,0.697 7.404,0.206 5.585,-0.974 5.56,-0.973 5.846,-0.228 0.413,1.076 -0.36,1.522 -3.063,1.767 l -2.483,0.225 0.417,1.645 c 0.397,1.562 0.483,1.633 1.729,1.399 1.454,-0.273 3.043,0.572 2.556,1.36 -0.162,0.263 -1.094,0.478 -2.07,0.478 -1.765,0 -1.78,0.012 -2.204,1.87 l -0.428,1.87 1.5,-0.018 c 0.826,-0.01 2.298,-0.172 3.272,-0.36 1.993,-0.386 4.463,0.514 4.463,1.625 0,0.53 -0.863,0.603 -5.818,0.487 -4.95,-0.116 -6.163,-0.015 -8.133,0.68 -1.968,0.692 -2.499,0.737 -3.533,0.296 z" />
      <path
         id="path23"
         fill="#020202"
         d="m 29.926,44.542 c -0.866,-0.945 -2.136,-1.966 -2.822,-2.27 -1.222,-0.54 -1.2,-0.551 1.118,-0.567 1.301,-0.01 2.49,-0.218 2.643,-0.465 0.152,-0.246 0.148,-1.649 -0.008,-3.117 l -0.286,-2.668 -1.733,0.015 c -1.537,0.013 -5.462,0.627 -9.274,1.451 -1.02,0.221 -1.499,0.091 -2.182,-0.591 -1.163,-1.164 -1.135,-1.85 0.06,-1.445 1.6,0.541 12.127,-0.373 12.572,-1.092 0.1,-0.161 -0.047,-0.597 -0.325,-0.969 -0.466,-0.621 -0.686,-0.622 -2.738,-0.015 -1.6,0.473 -2.6,0.552 -3.532,0.278 -1.256,-0.37 -1.198,-0.408 1.651,-1.115 3.293,-0.817 5.567,-2.013 5.567,-2.927 0,-1.088 -0.706,-1.081 -3.137,0.032 -1.897,0.868 -2.548,0.999 -3.139,0.63 -0.615,-0.384 -0.967,-0.243 -2.015,0.806 -0.7,0.698 -1.504,1.193 -1.788,1.098 -1.159,-0.386 -0.7,-1.637 1.322,-3.607 2.338,-2.277 2.59,-2.938 1.12,-2.938 -0.543,0 -1.199,-0.254 -1.457,-0.565 -0.382,-0.46 -0.056,-0.607 1.773,-0.796 1.232,-0.127 2.849,-0.546 3.592,-0.93 1.051,-0.544 1.569,-0.6 2.332,-0.252 2.015,0.919 0.996,2.102 -1.858,2.157 -2.106,0.04 -2.764,0.422 -2.811,1.633 -0.022,0.571 -0.183,1.366 -0.356,1.766 -0.25,0.578 -0.114,0.724 0.664,0.714 0.538,-0.007 1.342,-0.288 1.786,-0.623 0.443,-0.336 1.668,-0.61 2.722,-0.61 3.024,0 3.762,1.353 1.834,3.365 -1.06,1.107 -1.064,1.13 -0.207,1.401 0.478,0.152 0.87,0.552 0.87,0.888 0,0.485 0.525,0.587 2.535,0.492 2.281,-0.109 2.602,-0.021 3.21,0.879 l 0.675,0.999 -2.835,-0.228 -2.835,-0.227 0.28,1.862 c 0.436,2.91 0.297,8.048 -0.235,8.69 -0.72,0.866 -1.032,0.737 -2.752,-1.139 z M 11.412,43.71 c -0.792,-1.226 -1.378,-2.301 -1.302,-2.39 0.076,-0.087 0.631,0.164 1.234,0.559 0.603,0.395 1.247,0.56 1.43,0.368 0.184,-0.193 0.466,-1.985 0.628,-3.982 l 0.294,-3.632 -2.117,0.93 c -1.958,0.861 -2.118,1.04 -2.133,2.386 -0.02,1.807 -0.833,3.48 -1.78,3.663 -0.9,0.173 -0.95,-1.335 -0.093,-2.832 0.816,-1.428 0.766,-1.977 -0.209,-2.286 -0.816,-0.26 -1.907,-1.762 -1.543,-2.127 0.102,-0.102 1.005,0.029 2.007,0.29 1.57,0.41 2.111,0.361 3.9,-0.35 1.707,-0.679 2.103,-1.03 2.215,-1.971 l 0.137,-1.145 -1.433,0.886 C 10.951,33.125 9.338,33.214 8.433,32.309 7.516,31.391 7.6,31.282 9.131,31.402 l 1.35,0.105 -0.141,-1.87 c -0.078,-1.028 -0.335,-2.103 -0.57,-2.39 -0.318,-0.384 -0.214,-0.519 0.402,-0.519 1.123,0 1.903,1.031 1.903,2.516 0,1.321 0.022,1.337 1.42,0.963 1.368,-0.367 1.306,-2.831 -0.104,-4.138 -1.456,-1.349 -1.4,-2.43 0.103,-2.054 2.164,0.54 2.708,1.416 2.457,3.959 -0.124,1.258 -0.415,3.128 -0.647,4.157 -0.233,1.028 -0.435,3.553 -0.45,5.61 -0.032,4.204 -0.486,6.68 -1.39,7.585 -0.54,0.539 -0.785,0.346 -2.052,-1.616 z m 10.082,-3.831 c 2.22,-0.726 2.59,-1.075 2.311,-2.183 -0.308,-1.229 0.51,-1.328 1.868,-0.228 1.865,1.51 -0.024,3.012 -3.687,2.93 L 20.04,40.355 Z m -9.64,-20.65 c -0.696,-0.695 -1.155,-1.376 -1.02,-1.511 0.136,-0.136 1.087,-0.01 2.114,0.276 1.18,0.33 2.713,0.417 4.168,0.235 l 2.3,-0.287 v -1.84 c 0,-1.878 -0.132,-2.004 -1.944,-1.86 -0.498,0.039 -1.527,-0.268 -2.286,-0.682 l -1.38,-0.753 2.795,-0.123 2.796,-0.122 L 19.319,10.814 19.242,9.067 17.258,9.064 C 15.638,9.062 15.062,8.848 14.124,7.9 l -1.149,-1.162 1.17,0.437 c 1.72,0.644 5.795,0.533 9.018,-0.244 2.964,-0.716 4.149,-0.59 4.149,0.441 0,0.692 -2.37,1.482 -4.454,1.485 -0.878,0.002 -1.283,0.181 -1.178,0.522 0.088,0.286 0.279,1.057 0.423,1.713 0.238,1.077 0.395,1.173 1.604,0.977 1.449,-0.236 3.044,0.589 2.583,1.334 -0.15,0.244 -1.084,0.443 -2.074,0.443 -1.621,0 -1.828,0.114 -2.073,1.143 -0.15,0.629 -0.378,1.494 -0.506,1.923 -0.22,0.739 -0.023,0.764 3.724,0.483 3.73,-0.28 4.009,-0.244 4.873,0.62 1.394,1.394 0.51,1.612 -5.45,1.347 -4.26,-0.19 -5.694,-0.102 -7.38,0.449 -3.022,0.989 -4.093,0.876 -5.55,-0.581 z" />
    </g>
  </g>
</svg>
