<svg xmlns="http://www.w3.org/2000/svg" width="177.17" height="177.17"><filter id="a"><feGaussianBlur stdDeviation="2" result="blur" in="SourceAlpha"/><feOffset dy="2" dx="2" result="offsetBlur"/><feBlend in2="offsetBlur" in="SourceGraphic"/></filter><g transform="matrix(3.0144 0 0 3.0144 25.216 13.338)" filter="url(#a)"><path fill="#feec99" d="M34.537 45.502L41.266.646.778.882l6.846 44.502 14.047 3.895z"/><path fill="#d0d0d0" d="M16.341 5.254c1.082.793 1.875 1.59 1.763 1.772-.113.182-1.104.165-2.202-.037-2.358-.435-3.304.183-4.135 2.7-.475 1.44-.425 1.743.425 2.594.962.962.977.962 6.355.119 4.36-.684 5.527-.733 6.1-.256 1.204.999.799 1.41-1.393 1.41-1.157 0-2.103.21-2.103.467s.578.47 1.285.473c.707.004 1.759.134 2.337.289.949.254 1.052.116 1.052-1.41 0-.929.22-1.69.491-1.69.971 0 1.824 3.084 1.533 5.542-.21 1.777-.089 2.669.483 3.542 1.435 2.19.485 2.919-1.632 1.253-.967-.76-1.485-.824-3.78-.465-1.462.23-3.208.626-3.88.882-1.812.689-3.49.564-3.815-.284-.351-.915.593-1.572 2.276-1.581.691-.004 1.387-.218 1.546-.475.172-.278-.375-.467-1.347-.467-1.774 0-2.668-.793-1.634-1.448.354-.224 1.223-.411 1.93-.415 1.932-.01 1.545-.864-.468-1.03-1.182-.098-1.753-.374-1.753-.847s.571-.748 1.753-.846c.964-.08 1.753-.362 1.753-.628 0-.558-4.41-.082-5.744.62-1.223.642-2.51.067-3.887-1.739l-1.217-1.595 1.1-2.656c1.173-2.83 3.172-5.333 4.21-5.27.346.02 1.516.685 2.598 1.477zM22.35 16.36c-.66 0-1.2.21-1.2.467s.51.467 1.131.467c.622 0 1.463.128 1.87.284 1.286.494.8 1.119-.87 1.119-.884 0-1.738.21-1.897.467-.16.26.191.47.79.474.594.004 1.553.133 2.132.288.99.266 1.051.143 1.051-2.126 0-2.236-.064-2.374-.904-1.924-.497.266-1.443.484-2.103.484zm8.326-11.778c.319.516 1.678 4.451 1.686 4.883.015.783-1.1.267-2.377-1.1-1.633-1.75-1.893-4.158-.448-4.158.499 0 1.011.168 1.139.375zm-3.465 3.67c.53 1.197.867 2.271.75 2.388-.117.117-.843-.236-1.614-.785-1.454-1.035-2.198-2.49-1.693-3.307.638-1.033 1.642-.364 2.557 1.704zm-4.222.66c1.611 2.005 1.64 2.583.105 2.096-1.565-.497-3.346-2.144-3.346-3.096 0-1.527 1.61-1.03 3.241 1zm-4.888.66c1.023.874 1.728 1.722 1.567 1.882-.447.448-3.942-.62-4.592-1.402-.665-.802-.308-2.114.568-2.088.33.01 1.435.733 2.457 1.608zm8.606 15.84c.385.463.456 1.646.23 3.853l-.327 3.184 1.895-1.501c3.648-2.89 5.1-1.339 1.924 2.054-3.797 4.054-4.137 4.434-4.137 4.617 0 .1.716.067 1.591-.075 1.294-.21 1.69-.074 2.12.73.483.903.41.99-.852.99-.759 0-1.713.127-2.12.283-.935.359-.956 1.759-.038 2.52 1.013.84.863 1.403-.374 1.403-1.36 0-2.196-.825-2.196-2.164 0-.724-.32-1.089-1.047-1.192-.576-.083-1.117-.518-1.203-.968-.121-.635.165-.818 1.28-.818 1.244 0 1.437-.167 1.437-1.24 0-1.198-.032-1.213-.903-.424-.654.591-1.298.731-2.327.505-.783-.172-1.849-.178-2.369-.013-1.262.401-1.25 2.528.024 4.147.685.871.788 1.248.35 1.287-2.17.195-3.656-1.05-3.656-3.061 0-1.426-.043-1.455-1.914-1.277-1.665.16-1.893.07-1.748-.688.107-.56.792-1.027 1.914-1.305 2.072-.513 2.508-1.904.463-1.474-1.573.33-2.69-.309-2.303-1.317.188-.491.855-.749 1.937-.749 1.27 0 1.651-.191 1.651-.83 0-.687-.323-.8-1.87-.652-1.16.11-1.87-.018-1.87-.338 0-.284-.006-.675-.015-.867-.008-.193.764-.456 1.717-.585.952-.128 1.828-.526 1.945-.883.171-.518-.283-.602-2.246-.413-2 .192-2.626.07-3.35-.653-1.375-1.375-.614-1.814 3.035-1.748 1.845.033 4.355-.092 5.576-.278 1.7-.259 2.495-.158 3.39.427 1.723 1.13 1.445 1.445-1.277 1.445-2.028 0-2.475.151-2.62.886-.13.666.021.812.605.588.883-.339 3.524.866 3.524 1.608 0 .267-.403.359-.895.202-1.078-.342-3.312.157-3.312.74 0 .229.584.416 1.298.416 1.43 0 3.532 1.24 3.15 1.858-.133.216-.66.283-1.169.15-1.397-.366-3.279.252-3.279 1.077 0 .57.312.66 1.421.417.935-.205 1.787-.073 2.488.387 1.011.662 1.108.621 1.844-.777.519-.984.82-2.866.901-5.645.124-4.169.58-5.197 1.707-3.84zm.143 9.423c.144.144.405-.116.58-.576.254-.667.2-.72-.26-.262-.32.317-.464.694-.32.838z"/><path fill="#afafaf" d="M14.935 4.377c.205.35 1.057.987 1.892 1.414.836.427 1.52.892 1.52 1.032s-1.091.187-2.424.105c-2.301-.143-2.479-.07-3.506 1.438-1.248 1.832-1.347 2.778-.423 4.042.644.88.784.883 6.136.105 3.807-.553 5.745-.653 6.353-.328 1.486.796.971 1.37-1.229 1.37-1.157 0-2.103.21-2.103.468 0 .257.508.467 1.13.467 2.937 0 3.485 1.251.74 1.69-2.038.326-2.561 1.114-.74 1.114.622 0 1.463.128 1.87.284 1.286.494.8 1.119-.87 1.119-.884 0-1.738.21-1.897.467-.159.257.13.468.643.468s1.517.222 2.232.494c1.041.395 1.164.58.615.927-.377.239-1.256.437-1.954.441-.698.004-2.248.34-3.443.745-2.357.8-4.403.575-4.403-.485 0-.407.757-.815 1.95-1.05 2.425-.48 2.94-1.432.629-1.162-1.236.144-1.644.018-1.644-.51 0-.761.952-1.27 2.375-1.27.494 0 .897-.21.897-.468 0-.257-.724-.467-1.608-.467-1.751 0-2.635-.796-1.607-1.447.354-.225 1.223-.412 1.93-.415.707-.004 1.285-.218 1.285-.475 0-.651-1.688-.583-4.659.188-2.891.75-3.872.386-5.25-1.944-.763-1.294-.742-1.417.803-4.61 1.057-2.186 1.991-3.466 2.798-3.833 1.508-.687 1.508-.687 1.961.086zm15.782.38c1.162 3.333 1.576 4.823 1.39 5.009-.12.12-.962-.5-1.869-1.379-1.175-1.14-1.61-1.935-1.512-2.769.148-1.26 1.63-1.901 1.991-.862zm-4.25 2.371c.9 1.43 1.382 3.155.879 3.155-.85 0-3.042-2.757-2.765-3.478.394-1.028 1.111-.905 1.886.323zm-3.55 1.834c.825 1.073 1.418 2.032 1.32 2.13-.322.322-3.302-1.11-3.957-1.899-.72-.87-.406-2.182.522-2.182.339 0 1.29.878 2.115 1.95zm-4.844.64l1.831 1.616h-1.662c-1.997 0-3.924-1.378-3.494-2.498.44-1.146 1.283-.922 3.325.882zm9.138 2.988c.266.497.484 2.305.484 4.017 0 2.09.26 3.556.793 4.457.959 1.624.682 2.022-.968 1.395-1.901-.723-2.326-2.199-1.945-6.764.335-4.024.736-4.786 1.636-3.105zm-.52 12.99c.256.478.347 2.174.202 3.77-.145 1.596-.158 2.902-.029 2.902.13 0 1.029-.631 2-1.402.97-.772 2.028-1.403 2.35-1.403 1.511 0 .868 1.517-1.91 4.5-1.644 1.767-2.994 3.393-3 3.614-.007.22.534.264 1.202.097 1.178-.296 2.526.341 2.526 1.195 0 .226-.743.41-1.651.41-2.029 0-2.557 1.023-1.49 2.883.739 1.287.73 1.324-.293 1.324-1.34 0-2.175-.832-2.175-2.164 0-.724-.32-1.089-1.047-1.192-.576-.083-1.117-.518-1.203-.968-.121-.635.165-.818 1.28-.818 1.24 0 1.437-.169 1.437-1.226 0-1.087-.087-1.153-.773-.584-.433.359-1.824.642-3.155.642-2.362 0-2.383.013-2.532 1.57-.108 1.127.145 1.885.899 2.688l1.05 1.117h-1.412c-1.923 0-3.163-1.428-2.803-3.23.274-1.368.255-1.383-1.692-1.297-2.737.12-2.724-1.137.018-1.679 2.533-.5 2.814-1.825.352-1.66-1.593.108-3.058-.685-2.43-1.314.173-.172 1.104-.442 2.068-.599 1.173-.19 1.806-.563 1.914-1.124.14-.727-.065-.797-1.519-.524-1.075.201-1.93.108-2.372-.258-1.04-.864-.395-1.403 1.679-1.403 1.242 0 1.948-.238 2.133-.721.435-1.133-.148-1.342-2.34-.84-2.471.565-4.042.077-4.042-1.255 0-.912.223-.968 3.388-.851 1.864.068 4.44-.032 5.726-.224 1.972-.294 2.52-.201 3.506.592l1.168.941-2.687.01c-2.373.01-2.688.12-2.688.946 0 .718.312.935 1.345.935.74 0 1.607.315 1.927.701.491.592.397.701-.606.701-1.623 0-2.666.452-2.666 1.154 0 .366.42.506 1.117.373.626-.12 1.699.165 2.441.649l1.324.862-2.32.234c-1.794.18-2.358.433-2.487 1.114-.142.744.028.831 1.097.563.836-.21 1.657-.06 2.424.442.638.418 1.21.69 1.274.606 1.494-2.013 1.674-2.714 1.674-6.511 0-2.938.183-4.197.669-4.6.531-.442.763-.378 1.133.313zm.175 9.272c.157.156.537-.207.845-.807.535-1.044.523-1.057-.285-.285-.464.444-.716.935-.56 1.092z"/><path fill="#8f8f8f" d="M14.888 4.455c.488.37 1.413 1.099 2.056 1.619l1.168.945-2.416-.293-2.416-.293-.973 1.907c-1.25 2.45-1.229 3.628.08 4.459.921.585 1.676.556 6.093-.23 3.692-.658 5.288-.767 5.96-.407 1.527.817 1.037 1.393-1.186 1.393-1.598 0-2.103.176-2.103.733 0 .52.271.646.934.436 1.043-.331 2.805.091 2.805.673 0 .206-.841.51-1.87.675-2.42.387-2.386 1.02.076 1.414 2.218.355 1.94 1.065-.507 1.294-2.268.213-2.31 1.107-.052 1.107 2.667 0 3.493.996 1.128 1.362-.997.155-2.923.603-4.28.996-2.606.755-4.31.552-4.31-.513 0-.401.786-.759 2.103-.956 2.393-.36 2.861-1.39.628-1.383-2.09.007-2.23-1.04-.191-1.423 2.17-.407 2.244-1.49.085-1.238-.918.107-1.727-.052-1.93-.38-.39-.634.57-1.418 1.641-1.339 1.356.1 1.87-.06 1.87-.587 0-.604-4.74-.207-6.01.503-.873.489-2.223-.127-3.42-1.56-1.073-1.282-1.054-2.073.115-4.8 1.603-3.74 3.417-5.257 4.922-4.114zm15.504.324c.69.832 1.992 4.71 1.685 5.017-.516.516-3.506-3.304-3.36-4.292.177-1.198.99-1.55 1.675-.725zm-4.38 1.638c.63.627 1.707 3.53 1.416 3.82-.398.4-3.093-2.73-2.886-3.35.225-.676 1.01-.927 1.47-.47zm-3.93 1.62c2.48 2.633 2.05 3.53-.846 1.765-.936-.571-1.492-1.25-1.403-1.713.234-1.204 1.143-1.225 2.25-.051zm-4.268 1.42c1.929 1.477 1.956 1.532.806 1.674-1.66.205-3.78-.907-3.78-1.984 0-1.415.833-1.328 2.974.31zm9.3 3.157c.322.515.58 2.424.58 4.287 0 2.473.205 3.584.777 4.216.964 1.065.57 1.524-.975 1.136-1.884-.473-2.268-1.77-1.9-6.415.18-2.284.465-4.153.633-4.153.168 0 .567.418.886.929zm-.287 13.177c.036.34.012 2.084-.055 3.877l-.12 3.258 1.924-1.74c2.1-1.895 2.745-2.108 3.156-1.039.167.437-.802 1.907-2.586 3.919-1.57 1.77-2.854 3.375-2.854 3.565 0 .19.6.227 1.334.08 1.232-.246 2.406.315 2.406 1.15 0 .19-.79.411-1.753.49-1.534.128-1.747.292-1.708 1.314.025.643.206 1.537.401 1.987.274.63.133.818-.613.818-1.038 0-1.936-1.25-1.936-2.694 0-.618-.318-.875-1.052-.849-1.556.055-1.342-1.332.234-1.513 1.028-.118 1.285-.387 1.285-1.343 0-1.04-.096-1.114-.745-.576-.41.34-1.83.629-3.155.642-2.388.023-2.411.037-2.56 1.593-.108 1.127.145 1.885.899 2.688l1.05 1.117h-1.473c-1.824 0-3.089-1.644-2.64-3.432.29-1.153.23-1.191-1.731-1.101-1.528.07-2.032-.08-2.032-.602 0-.382.421-.759.935-.836 2.513-.38 3.038-.635 3.038-1.472 0-.754-.262-.846-1.809-.639-1.13.152-1.937.036-2.15-.31-.474-.767-.064-1.057 1.963-1.387 1.201-.195 1.806-.559 1.92-1.156.148-.767-.038-.833-1.549-.55-1.083.204-1.961.12-2.378-.226-1.042-.864-.325-1.377 1.928-1.377 1.802 0 2.075-.13 2.075-.988 0-.927-.162-.969-2.595-.665-2.714.34-3.948-.129-3.948-1.497 0-.58.508-.643 3.027-.374 1.907.204 3.991.109 5.633-.259 2.458-.55 2.664-.525 3.62.432l1.015 1.014h-2.44c-2.13 0-2.442.12-2.442.935 0 .718.312.935 1.345.935.74 0 1.596.302 1.902.67.465.561.263.696-1.224.819-1.291.106-1.826.384-1.945 1.01-.13.682.037.8.79.56.563-.178 1.59.043 2.498.54l1.542.841-2.567.234c-2.043.186-2.6.415-2.735 1.12-.146.772.044.853 1.465.622 1.08-.175 1.98-.022 2.655.451 1.694 1.187 2.536-.584 2.818-5.927.197-3.743.362-4.46 1.052-4.592.45-.086.848.122.885.463zm.04 9.06c.156.157.536-.206.844-.806.536-1.044.523-1.057-.285-.285-.464.444-.716.935-.56 1.092z"/><path fill="#6e6e6e" d="M30.362 4.775c.26.33.805 1.6 1.211 2.822.713 2.14.708 2.205-.13 1.756-1.367-.731-2.869-2.895-2.718-3.914.17-1.135 1.002-1.472 1.638-.664zM15.308 4.7c.257.246.993.857 1.636 1.359l1.168.91-2.364-.267c-2.55-.288-2.888-.035-4.3 3.221-.48 1.11-.416 1.435.496 2.494 1.036 1.204 1.083 1.212 4.076.659 1.665-.309 3.955-.73 5.09-.935 2.18-.396 4.505.152 4.014.946-.159.257-1.118.468-2.131.468-1.346 0-1.842.194-1.842.719 0 .46.377.686 1.051.628 1.755-.15 2.688.03 2.688.523 0 .257-.473.47-1.052.474-1.746.01-3.205.548-2.999 1.104.107.289.47.46.807.38.917-.219 2.777.335 2.777.827 0 .237-.773.496-1.717.575-2.427.205-2.543 1.186-.141 1.186 2.862 0 3.334.875.685 1.273-1.197.18-3.054.636-4.125 1.014-2.088.737-4.237.505-3.93-.423.104-.312 1.065-.755 2.137-.984 2.306-.494 2.662-1.624.48-1.522-2.06.097-2.206-.92-.187-1.299 2.237-.42 2.2-1.56-.048-1.49-.986.03-1.79-.193-1.909-.53-.138-.396.328-.585 1.443-.585 1.573 0 2.593-.667 1.972-1.29-.16-.16-1.887-.023-3.837.305l-3.545.595-1.352-1.295c-1.597-1.53-1.654-2.185-.43-4.953 1.754-3.966 3.852-5.556 5.389-4.087zm10.714 1.727c.623.619 1.694 3.523 1.406 3.81-.49.49-2.996-2.705-2.71-3.453.298-.775.757-.9 1.304-.357zm-3.47 2.454c1.56 1.969 1.293 2.32-.9 1.186-1.366-.706-2.104-1.887-1.644-2.63.477-.772 1.046-.448 2.545 1.444zm-4.687.616c1.887 1.444 1.91 1.492.755 1.634-1.51.187-3.723-.857-3.914-1.844-.267-1.39 1.196-1.293 3.159.21zm9.012 3.11c.585.828.818 2.06.818 4.34 0 2.192.244 3.557.783 4.38.766 1.17.759 1.192-.304 1.035-.598-.088-1.496-.71-1.996-1.382-.82-1.102-.87-1.628-.514-5.375.392-4.124.4-4.145 1.213-2.998zm-.065 13.184c.028.34.008 2.072-.046 3.848l-.097 3.23 2-1.71c2.205-1.888 2.667-2.043 3.059-1.022.163.424-.831 1.922-2.586 3.896-1.567 1.764-2.85 3.35-2.85 3.525 0 .175.585.273 1.299.219.714-.055 1.556.06 1.87.254 1.116.69.544 1.232-1.3 1.232-1.757 0-1.869.083-1.869 1.375 0 .756.21 1.504.468 1.663.785.485.52 1.169-.451 1.169-1.15 0-2.04-1.585-1.625-2.893.256-.805.163-.93-.5-.675-.899.344-2.238-.503-1.832-1.16.14-.227.77-.414 1.397-.414.91 0 1.141-.24 1.141-1.185 0-1.088-.086-1.138-1.052-.608-.578.317-2.103.588-3.388.6l-2.338.025.132 1.615c.073.889.474 1.994.893 2.457.997 1.102.451 1.59-1.15 1.03-1.081-.377-1.299-.75-1.42-2.424l-.144-1.98-1.784.286c-1.862.297-2.79-.288-1.78-1.124.319-.263 1.21-.55 1.982-.637 1.018-.115 1.441-.434 1.546-1.169.131-.923-.016-.99-1.692-.765-1.154.155-1.963.042-2.178-.305-.48-.777-.126-1 2.051-1.292 1.488-.2 1.908-.455 1.908-1.16 0-.777-.282-.884-1.986-.757-1.52.113-1.987-.016-1.987-.553 0-.49.597-.744 1.987-.845 1.654-.12 1.986-.306 1.986-1.116 0-.906-.178-.951-2.626-.663-2.723.32-3.917-.12-3.917-1.443 0-.56.538-.624 3.015-.358 1.886.202 3.903.11 5.384-.245 2.109-.506 2.507-.474 3.645.298l1.277.867-2.728.14c-2.223.116-2.678.275-2.454.857.15.393.274.803.274.91 0 .108.435.196.966.196.53 0 1.425.261 1.986.581.949.54.872.598-1.078.818-1.51.17-2.143.466-2.255 1.055-.125.661.187.82 1.632.833.983.008 2.18.312 2.659.675.79.598.637.673-1.632.803-1.943.11-2.538.326-2.658.96-.13.679.194.819 1.888.819 1.125 0 2.299.254 2.61.565.442.442.742.315 1.379-.584.581-.822.88-2.416 1.047-5.585.197-3.743.362-4.46 1.052-4.592.45-.086.841.122.87.463zm-.52 9.338c0 .854.816.328 1.367-.882.58-1.273.579-1.274-.393-.395-.535.485-.974 1.06-.974 1.277z"/><path fill="#4e4e4e" d="M30.368 4.775c.732.921 1.666 4.129 1.308 4.487-.549.549-3.112-2.722-2.957-3.771.174-1.181.996-1.537 1.649-.716zm-14.38.658c.889.631 1.682 1.214 1.763 1.295.082.081-.864.05-2.1-.068-2.5-.24-2.91.043-4.07 2.819-.675 1.617-.658 1.752.394 2.974 1.076 1.252 1.155 1.268 3.619.736 3.98-.86 7.27-1.177 8.638-.833 1.664.417.919 1.097-1.41 1.285-2.55.206-2.81 1.316-.308 1.316 1.05 0 1.909.21 1.909.468 0 .257-.51.467-1.13.467-1.614 0-2.61.465-2.61 1.219 0 .453.597.65 1.963.65 2.183 0 1.964.764-.29 1.017-1.993.222-2.076 1.227-.102 1.227.89 0 1.976.201 2.415.447.62.347.252.52-1.64.77-1.34.178-3.242.645-4.225 1.039-1.38.552-2.01.595-2.771.188-1.332-.713-.886-1.233 1.368-1.593 2.305-.369 2.645-1.632.41-1.527-.81.038-1.56-.193-1.674-.515-.12-.342.183-.585.73-.585 1.448 0 2.414-.5 2.414-1.25 0-.47-.291-.59-.935-.386-1.09.347-2.804-.101-2.804-.732 0-.24.818-.436 1.82-.436 1.168 0 1.913-.246 2.082-.686.424-1.103-.228-1.166-4.07-.392l-3.63.73-1.373-1.316c-.755-.723-1.373-1.67-1.373-2.104 0-1.093 1.641-4.697 2.824-6.201 1.193-1.517 2.055-1.521 4.166-.023zm10.786 2.542c.542 1.062.898 2.02.79 2.126-.416.417-2.674-1.803-2.674-2.629 0-1.661.903-1.42 1.884.503zm-4.221.906c1.559 1.969 1.292 2.32-.901 1.186-1.366-.706-2.104-1.887-1.644-2.63.477-.772 1.046-.448 2.545 1.444zm-4.316.948c1.282 1.167 1.38 1.389.614 1.389-1.962 0-4.214-1.304-4.237-2.454-.018-.86 2.235-.197 3.623 1.065zm8.974 3.228c.266.497.484 2.343.484 4.103 0 2.189.238 3.539.755 4.277.725 1.036.713 1.072-.304.922-.582-.086-1.457-.692-1.943-1.345-.77-1.036-.842-1.682-.564-5.025.324-3.883.694-4.572 1.572-2.932zm-.533 15.924c-.083 2.057-.027 3.74.126 3.74.153-.001.678-.444 1.168-.984.489-.54 1.472-1.284 2.184-1.653 1.136-.587 1.328-.583 1.566.037.17.445-.781 1.889-2.58 3.912-1.567 1.764-2.85 3.334-2.85 3.49 0 .154.773.347 1.717.426.944.08 1.808.423 1.92.762.11.339-.083.577-.432.529-.349-.048-1.212-.063-1.92-.032-1.098.047-1.285.255-1.285 1.43 0 .756.21 1.504.468 1.663.86.531.48 1.236-.585 1.084-.847-.12-1.08-.493-1.198-1.924-.12-1.464-.293-1.728-.985-1.508-.462.146-1.083-.027-1.38-.386-.438-.527-.272-.705.868-.933 1.14-.228 1.41-.518 1.41-1.513 0-.886-.19-1.157-.682-.968-.516.198-.448-.187.28-1.584.8-1.534.907-2.315.64-4.619-.365-3.143-.033-4.71.998-4.71.582 0 .678.65.552 3.741zm-.386 6.157c0 .852.782.301 1.609-1.133l.874-1.52-1.241 1.134c-.683.623-1.242 1.307-1.242 1.519zm-4.177-9.007l1.139.948-2.688.016c-2.37.013-2.687.125-2.687.95 0 .692.311.935 1.199.935.66 0 1.659.261 2.22.581.949.54.872.598-1.078.818-1.51.17-2.143.466-2.255 1.055-.126.667.186.818 1.692.818 1.038 0 2.091.295 2.406.674.472.569.208.696-1.696.818-1.89.12-2.278.305-2.397 1.14-.13.916.025.98 1.888.77 1.502-.17 2.193-.034 2.654.521.558.673.376.751-1.744.751-1.302 0-2.5.215-2.663.479-.433.701.205 3.157 1.036 3.989.977.976.398 1.412-1.155.869-1.087-.38-1.297-.747-1.422-2.47-.144-2-.164-2.022-1.636-1.753-1.823.334-3.018-.234-2.096-.997.333-.276 1.237-.573 2.009-.66 1.026-.116 1.44-.433 1.548-1.184.132-.929-.04-1.018-1.82-.935-2.769.129-2.946-.923-.224-1.331 1.694-.254 2.131-.507 2.131-1.233 0-.786-.276-.893-1.986-.765-1.52.113-1.987-.016-1.987-.553 0-.49.597-.744 1.987-.845 1.652-.12 1.986-.307 1.986-1.112 0-.904-.18-.948-2.734-.659-2.176.246-2.858.16-3.339-.418-.949-1.144-.233-1.388 4.118-1.407 2.232-.01 4.598-.184 5.257-.388.899-.277 1.483-.133 2.337.578z"/><path fill="#2f2f2f" d="M15.989 5.433c.888.631 1.667 1.2 1.732 1.265.065.064-.978.109-2.316.098-2.432-.018-2.435-.017-3.602 2.192l-1.167 2.21 1.224 1.225 1.224 1.224 4.35-.747c4.93-.847 6.818-.933 7.192-.329.332.538-.838.984-2.579.984-.9 0-1.364.238-1.364.701 0 .507.52.701 1.87.701 2.364 0 2.461.83.12 1.024-1.222.101-1.795.391-1.903.963-.127.67.21.828 1.865.874l2.021.056-1.986.478c-2.581.62-2.674 1.747-.145 1.747 2.615 0 2.76.77.218 1.15-1.176.177-2.98.618-4.01.982-1.353.477-2.124.526-2.779.176-1.256-.673-.767-1.197 1.447-1.551 2.347-.375 2.709-1.762.412-1.577-.848.069-1.556-.128-1.675-.465-.134-.378.261-.587 1.118-.592.728-.004 1.614-.19 1.968-.415.972-.616.119-1.564-1.125-1.252-.595.15-1.413.144-1.82-.012-1.363-.524-.754-1.118 1.147-1.118 1.267 0 1.975-.236 2.161-.722.465-1.212-.099-1.275-4.126-.459l-3.879.786-1.292-1.446c-.71-.795-1.292-1.72-1.292-2.057 0-1.19 2.787-6.343 3.693-6.828 1.215-.65 1.407-.608 3.297.734zm14.717-.175c.098.322.408 1.302.689 2.18.28.877.41 1.696.286 1.819-.573.573-3.052-2.751-3.052-4.092 0-.696 1.863-.612 2.077.093zm-3.819 3.161c.749 1.905.52 2.012-1.179.552-.966-.83-1.09-2.427-.188-2.427.347 0 .962.844 1.367 1.875zm-4.346.447c1.586 2.002 1.247 2.39-.953 1.091-1.617-.955-2-1.764-1.162-2.459.482-.4.959-.092 2.115 1.368zm-4.662.95c1.748 1.471 1.23 1.847-1.246.905-1.395-.53-2.11-1.327-1.734-1.935.419-.677 1.323-.365 2.98 1.03zm9.338 3.252c.27.504.46 2.287.424 3.964-.048 2.172.162 3.397.73 4.263.778 1.187.772 1.212-.244 1.061-.572-.084-1.42-.68-1.884-1.322-.716-.99-.802-1.757-.565-5.025.284-3.903.65-4.602 1.539-2.94zm-.615 12.904c.155.402.172 2.085.04 3.74-.133 1.654-.109 2.999.055 2.988.163-.01 1.025-.641 1.915-1.402 1.67-1.428 3.298-1.825 3.278-.799-.007.321-1.269 1.915-2.805 3.542-1.536 1.627-2.793 3.204-2.793 3.506 0 .319.713.548 1.71.548 2.239 0 2.53.908.327 1.023-2.355.122-2.77.685-1.855 2.519.848 1.699.637 2.282-.555 1.535-.437-.273-.863-1.18-.945-2.015-.121-1.227-.32-1.474-1.035-1.287-.486.127-1.128-.062-1.426-.421-.44-.53-.316-.653.656-.653 1.33 0 1.456-.132 1.905-2.011.292-1.22.245-1.274-.672-.783-.899.481-.94.445-.48-.417.278-.52.735-1.086 1.016-1.26.315-.194.47-1.763.404-4.115-.058-2.09-.079-4.064-.045-4.385.086-.826.97-.727 1.305.147zm-.31 8.904c0 1.077.684.732 1.589-.8l.855-1.448-1.222.8c-.672.44-1.222 1.092-1.222 1.448zm-4.18-8.717l1.142.98-1.169-.066c-3.283-.186-4.206.027-4.206.972 0 .705.316.939 1.285.95.707.008 1.694.323 2.193.7.84.636.743.687-1.286.687-1.88 0-2.192.133-2.192.935 0 .774.311.935 1.812.935 1.041 0 2.06.298 2.394.701.505.608.263.701-1.812.701-2.226 0-2.394.08-2.394 1.14 0 1.031.148 1.114 1.572.883.924-.15 2.031.007 2.687.38 1.061.604.99.647-1.455.869l-2.57.234.054 1.763c.03.972.43 2.18.89 2.688.805.89.803.923-.054.91-1.578-.027-2.527-1.145-2.527-2.98 0-1.701-.02-1.72-1.752-1.584-1.308.103-1.753-.04-1.753-.564 0-.472.57-.748 1.753-.846 1.493-.123 1.752-.31 1.752-1.257 0-1.006-.184-1.103-1.936-1.023-1.197.054-2.015-.135-2.142-.496-.127-.358.215-.587.884-.59 2.07-.013 3.194-.544 3.194-1.51 0-.833-.21-.907-1.841-.646-1.154.184-1.962.1-2.163-.227-.448-.725.68-1.335 2.485-1.344 1.24-.005 1.52-.191 1.52-1.008 0-.942-.163-.985-2.727-.717-2.543.266-3.817-.11-3.817-1.125 0-.176 2.05-.428 4.557-.56 2.506-.132 4.99-.381 5.519-.553.643-.209 1.34.012 2.103.668z"/><path fill="#030303" d="M15.989 5.433c.888.631 1.66 1.192 1.715 1.246.055.054-.982.099-2.304.099-2.351 0-2.428.044-3.525 2.027-.977 1.765-1.045 2.171-.523 3.147.875 1.635 1.752 1.74 7.16.859 2.856-.466 5.238-.636 5.745-.41.767.34.733.403-.302.55-2.549.36-3.272.65-3.272 1.314 0 .502.541.692 1.963.692 2.2 0 1.956.767-.323 1.016-.882.097-1.455.455-1.553.97-.125.658.196.828 1.632.867l1.787.048-1.753.466c-2.11.56-2.377 1.775-.389 1.775 3.068 0 3.086.651.035 1.292-4.94 1.037-6.407 1.171-6.749.618-.35-.567.088-.767 2.585-1.18 2.299-.379 2.342-1.738.049-1.559-.938.074-1.708-.107-1.82-.426-.124-.35.46-.609 1.582-.702 1.285-.106 1.823-.385 1.94-1.006.14-.731-.097-.836-1.587-.7-1.06.095-1.826-.061-1.94-.397-.12-.349.468-.609 1.587-.701 1.3-.107 1.823-.383 1.944-1.025.151-.795-.047-.848-2.099-.559-1.246.175-2.958.537-3.803.803-1.766.557-3.534-.29-4.351-2.083-.836-1.834 2.623-8.347 4.369-8.227.321.022 1.31.556 2.2 1.186zm15.166 1.424c.409 1.2.691 2.235.627 2.299-.594.594-3.341-3.331-2.867-4.098.598-.968 1.56-.196 2.24 1.799zM26.9 8.452c.703 1.79.7 1.871-.046 1.308-1.876-1.414-2.623-3.216-1.334-3.216.347 0 .968.859 1.38 1.908zm-4.21.663c.718.9 1.138 1.635.935 1.634-.869-.004-3.41-1.914-3.41-2.562 0-1.202 1.107-.787 2.475.928zm-4.811.764l1.636 1.428-1.636-.332c-1.895-.385-2.805-1.007-2.805-1.918 0-1.024 1.038-.72 2.805.822zm9.312 3.347c.256.674.422 2.578.368 4.23-.078 2.392.084 3.208.792 3.993.737.817.766.987.169.987-.397 0-1.192-.38-1.767-.846-.944-.764-1.038-1.226-.973-4.781.077-4.21.634-5.626 1.41-3.583zm-.641 12.52c.172.279.163 2.098-.02 4.043l-.33 3.536 2.08-1.705c3.147-2.578 5.078-2.1 2.336.577-2.194 2.142-4.324 4.793-4.324 5.381 0 .368.567.496 1.636.372 2.28-.267 2.073.69-.233 1.08-2.062.348-2.386 1.158-1.164 2.903.47.67.541 1.11.213 1.313-.807.498-1.854-.727-1.854-2.17 0-1.124-.193-1.345-1.169-1.345-.642 0-1.168-.21-1.168-.468 0-.257.503-.467 1.118-.467 1.14 0 1.686-.77 1.686-2.376 0-1.036-.478-1.144-1.384-.312-.35.321-.182-.08.374-.89.854-1.246 1.01-2.135 1.01-5.726 0-3.894.375-5.07 1.193-3.746zm-.18 9.299c-.208 1.397.643.846 1.625-1.052l.76-1.472-1.114.737c-.613.405-1.185 1.21-1.271 1.787zm-3.988-8.586c.827.664.816.684-.22.397-1.863-.515-4.283.168-4.283 1.21 0 .695.322.914 1.345.914.74 0 1.607.315 1.927.701.5.604.314.701-1.345.701-1.616 0-1.927.151-1.927.935 0 .746.311.935 1.546.935.851 0 1.955.333 2.454.74.864.703.865.725.027.457-.484-.155-1.589-.148-2.454.014-1.267.238-1.573.513-1.573 1.417 0 1.034.138 1.1 1.753.85 1.206-.187 2.044-.047 2.687.447.874.673.76.72-1.753.734l-2.687.015v1.573c0 .883.424 2.113.969 2.804 1.114 1.417.371 1.698-1.333.504-.77-.539-1.039-1.197-1.039-2.538 0-1.77-.029-1.802-1.34-1.426-1.636.47-3.032-.187-1.931-.91.385-.253 1.28-.463 1.986-.467 1.072-.006 1.285-.21 1.285-1.227 0-1.077-.14-1.184-1.208-.916-1.42.357-3.128-.08-2.744-.703.148-.238.765-.433 1.371-.433 1.732 0 2.581-.49 2.581-1.488 0-.755-.274-.897-1.525-.79-1.966.17-3.266-.526-1.95-1.042.498-.195 1.483-.369 2.19-.387.992-.025 1.285-.261 1.285-1.033 0-.931-.174-.982-2.532-.739-1.74.18-2.802.066-3.389-.363-.47-.344-.75-.72-.622-.833.129-.114 2.786-.33 5.905-.48 4.633-.223 5.832-.144 6.544.427z"/></g></svg>