<?xml version="1.0" encoding="UTF-8" standalone="no"?>
<svg
   xmlns:dc="http://purl.org/dc/elements/1.1/"
   xmlns:cc="http://creativecommons.org/ns#"
   xmlns:rdf="http://www.w3.org/1999/02/22-rdf-syntax-ns#"
   xmlns:svg="http://www.w3.org/2000/svg"
   xmlns="http://www.w3.org/2000/svg"
   xmlns:sodipodi="http://sodipodi.sourceforge.net/DTD/sodipodi-0.dtd"
   xmlns:inkscape="http://www.inkscape.org/namespaces/inkscape"
   inkscape:version="1.0 (4035a4fb49, 2020-05-01)"
   sodipodi:docname="1TO.svg"
   id="svg29"
   version="1.1"
   height="177.17"
   width="177.17">
  <metadata
     id="metadata35">
    <rdf:RDF>
      <cc:Work
         rdf:about="">
        <dc:format>image/svg+xml</dc:format>
        <dc:type
           rdf:resource="http://purl.org/dc/dcmitype/StillImage" />
        <dc:title></dc:title>
      </cc:Work>
    </rdf:RDF>
  </metadata>
  <defs
     id="defs33" />
  <sodipodi:namedview
     inkscape:current-layer="svg29"
     inkscape:window-maximized="1"
     inkscape:window-y="0"
     inkscape:window-x="0"
     inkscape:cy="135.09851"
     inkscape:cx="-139.06872"
     inkscape:zoom="1.1375"
     showgrid="false"
     id="namedview31"
     inkscape:window-height="711"
     inkscape:window-width="1366"
     inkscape:pageshadow="2"
     inkscape:pageopacity="0"
     guidetolerance="10"
     gridtolerance="10"
     objecttolerance="10"
     borderopacity="1"
     bordercolor="#666666"
     pagecolor="#ffffff" />
  <!--
Created by Hari Seldon and modified by orangain, licensed under Creative Commons Attribution-Share Alike 3.0 Unported.
See: https://creativecommons.org/licenses/by-sa/3.0/deed.en

Original file is available at: https://commons.wikimedia.org/wiki/File:Shogi_tokin(svg).svg
-->
  <filter
     id="drop-shadow">
    <feGaussianBlur
       id="feGaussianBlur2"
       stdDeviation="2"
       result="blur"
       in="SourceAlpha" />
    <feOffset
       id="feOffset4"
       dy="2"
       dx="2"
       result="offsetBlur" />
    <feBlend
       id="feBlend6"
       mode="normal"
       in2="offsetBlur"
       in="SourceGraphic" />
  </filter>
  <g
     id="g27"
     transform="matrix(3.0174299,0,0,3.0174299,24.896103,12.9154)"
     filter="url(#drop-shadow)">
    <g
       id="g25"
       transform="rotate(180,20.9845,25)">
      <path
         id="path9"
         fill="#feec99"
         d="M 7.696,4.672 0.674,49.437 41.05,49.187 34.404,4.547 20.987,0.408 Z" />
      <path
         id="path11"
         fill="#fecfcf"
         d="m 20.839,39.032 c -2.667,-1.408 -3.823,-3.54 -3.825,-7.056 -10e-4,-1.678 0.331,-3.524 0.796,-4.423 0.685,-1.325 0.708,-1.82 0.16,-3.482 -0.481,-1.455 -0.516,-2.689 -0.142,-4.953 0.427,-2.58 0.37,-3.27 -0.4,-4.777 -1.11,-2.177 -0.812,-2.565 0.958,-1.252 2.026,1.504 2.772,4.233 2.14,7.831 -0.285,1.62 -0.429,3.035 -0.32,3.143 0.107,0.108 0.76,-0.174 1.451,-0.626 1.485,-0.973 3.476,-0.82 3.686,0.282 0.095,0.5 -0.744,1.265 -2.343,2.135 -3.163,1.721 -4.002,2.941 -4.002,5.818 0,2.864 1.352,4.758 3.713,5.2 1.846,0.347 3.525,1.836 3.01,2.67 -0.509,0.823 -2.812,0.582 -4.882,-0.51 z" />
      <path
         id="path13"
         fill="#feb0b0"
         d="m 21.121,39.03 c -1.154,-0.571 -2.55,-1.77 -3.104,-2.665 -1.227,-1.987 -1.34,-5.955 -0.241,-8.582 0.635,-1.52 0.664,-2.216 0.172,-4.136 -0.454,-1.77 -0.457,-2.846 -0.012,-4.61 0.478,-1.9 0.447,-2.62 -0.179,-4.118 -0.916,-2.192 -0.68,-2.556 0.958,-1.483 1.75,1.147 2.395,3.925 1.736,7.486 -0.29,1.573 -0.42,2.967 -0.289,3.098 0.132,0.132 0.805,-0.13 1.495,-0.583 1.377,-0.902 3.356,-0.845 3.669,0.106 0.11,0.332 -1.04,1.396 -2.554,2.365 -3.253,2.08 -3.774,2.905 -3.774,5.974 0,1.886 0.264,2.57 1.452,3.757 0.798,0.798 1.865,1.451 2.372,1.451 0.506,0 1.428,0.355 2.048,0.79 0.894,0.626 1.007,0.934 0.546,1.49 -0.797,0.96 -1.835,0.878 -4.295,-0.34 z" />
      <path
         id="path15"
         fill="#fe8e8e"
         d="m 21.72,39.387 c -0.824,-0.364 -2.248,-1.516 -3.164,-2.56 -1.613,-1.837 -1.658,-2 -1.423,-5.275 0.133,-1.86 0.566,-3.868 0.962,-4.465 0.631,-0.951 0.628,-1.344 -0.029,-3.17 -0.64,-1.78 -0.654,-2.476 -0.098,-4.794 0.575,-2.397 0.553,-2.9 -0.19,-4.335 -0.98,-1.896 -0.774,-2.351 0.66,-1.455 1.692,1.056 2.223,3.077 1.879,7.149 -0.172,2.034 -0.148,3.691 0.053,3.682 0.201,-0.008 0.8,-0.343 1.33,-0.744 1.26,-0.954 3.073,-0.932 3.446,0.042 0.201,0.523 -0.209,1.042 -1.275,1.613 -0.864,0.464 -2.357,1.54 -3.317,2.392 -1.572,1.395 -1.747,1.806 -1.747,4.114 0,3.026 1.22,4.577 4.412,5.614 1.438,0.466 1.986,0.918 1.986,1.635 0,1.232 -1.438,1.462 -3.485,0.557 z" />
      <path
         id="path17"
         fill="#fe7070"
         d="m 21.485,38.963 c -3.267,-1.652 -4.61,-3.912 -4.363,-7.335 0.108,-1.502 0.526,-3.401 0.928,-4.22 0.627,-1.279 0.635,-1.771 0.054,-3.476 -0.549,-1.61 -0.564,-2.52 -0.081,-4.797 0.51,-2.41 0.481,-3.04 -0.21,-4.425 -1.13,-2.266 -0.5,-2.51 1.295,-0.5 1.512,1.693 1.516,1.711 1.206,6.071 l -0.31,4.374 1.607,-0.98 c 2.082,-1.27 3.346,-1.27 3.346,-0.001 0,0.635 -0.66,1.32 -1.862,1.937 -3.152,1.617 -4.345,3.268 -4.345,6.017 0,2.897 1.323,4.58 4.414,5.61 1.437,0.478 2.04,0.96 2.04,1.624 0,1.36 -1.169,1.391 -3.72,0.101 z" />
      <path
         id="path19"
         fill="#fe4e4e"
         d="m 21.509,38.963 c -3.27,-1.673 -4.254,-3.304 -4.224,-7 0.016,-1.875 0.35,-3.677 0.861,-4.639 0.766,-1.441 0.77,-1.728 0.06,-3.428 -0.66,-1.579 -0.685,-2.308 -0.17,-4.896 0.526,-2.65 0.498,-3.248 -0.223,-4.64 -0.997,-1.929 -0.425,-2.075 1.223,-0.313 1.11,1.188 1.197,1.643 1.121,5.917 l -0.082,4.63 1.7,-1.003 c 0.935,-0.552 2.034,-0.875 2.441,-0.72 1.395,0.536 0.74,1.744 -1.653,3.047 -3.758,2.045 -5.046,5.346 -3.359,8.608 0.699,1.35 1.536,1.904 4.658,3.08 1.057,0.398 1.583,0.898 1.484,1.41 -0.232,1.207 -1.404,1.191 -3.836,-0.053 z" />
      <path
         id="path21"
         fill="#fe2f2f"
         d="m 20.438,38.446 c -2.515,-1.68 -3.545,-4.011 -3.197,-7.233 0.157,-1.457 0.614,-3.282 1.013,-4.056 0.641,-1.239 0.638,-1.62 -0.024,-3.205 -0.635,-1.52 -0.657,-2.257 -0.143,-4.747 0.536,-2.596 0.505,-3.166 -0.264,-4.777 l -0.872,-1.83 1.148,0.755 c 2.042,1.344 2.456,2.763 2.114,7.243 l -0.314,4.113 2.014,-1.05 c 1.108,-0.577 2.246,-0.906 2.529,-0.731 1.078,0.666 0.427,1.639 -1.973,2.945 -2.724,1.482 -3.968,3.32 -3.965,5.855 0.002,2.24 1.634,4.765 3.334,5.16 1.716,0.398 3.615,1.554 3.615,2.2 0,0.912 -3.327,0.486 -5.016,-0.642 z" />
      <path
         id="path23"
         fill="#fe0505"
         d="m 20.654,38.55 c -2.47,-1.582 -3.365,-3.315 -3.323,-6.425 0.02,-1.502 0.4,-3.59 0.845,-4.638 0.527,-1.242 0.656,-2.194 0.37,-2.731 -0.653,-1.225 -0.747,-2.982 -0.325,-6.092 0.295,-2.179 0.198,-3.134 -0.446,-4.379 -0.817,-1.58 -0.815,-1.588 0.242,-1.022 1.838,0.984 2.587,3.634 2.198,7.783 l -0.345,3.678 2.08,-1.084 c 1.631,-0.85 2.205,-0.953 2.667,-0.477 0.63,0.65 0.366,0.918 -3.129,3.163 -2.32,1.49 -3.07,3.06 -2.831,5.928 0.23,2.759 1.24,4.073 3.753,4.882 3.308,1.065 4.119,2.442 1.43,2.428 -0.888,-0.004 -2.321,-0.46 -3.185,-1.014 z" />
    </g>
  </g>
</svg>
