<?xml version="1.0" encoding="UTF-8" standalone="no"?>
<svg
   xmlns:dc="http://purl.org/dc/elements/1.1/"
   xmlns:cc="http://creativecommons.org/ns#"
   xmlns:rdf="http://www.w3.org/1999/02/22-rdf-syntax-ns#"
   xmlns:svg="http://www.w3.org/2000/svg"
   xmlns="http://www.w3.org/2000/svg"
   xmlns:sodipodi="http://sodipodi.sourceforge.net/DTD/sodipodi-0.dtd"
   xmlns:inkscape="http://www.inkscape.org/namespaces/inkscape"
   inkscape:version="1.0 (4035a4fb49, 2020-05-01)"
   sodipodi:docname="0UM.svg"
   id="svg27"
   version="1.1"
   width="177.17"
   height="177.17">
  <metadata
     id="metadata33">
    <rdf:RDF>
      <cc:Work
         rdf:about="">
        <dc:format>image/svg+xml</dc:format>
        <dc:type
           rdf:resource="http://purl.org/dc/dcmitype/StillImage" />
      </cc:Work>
    </rdf:RDF>
  </metadata>
  <defs
     id="defs31" />
  <sodipodi:namedview
     inkscape:current-layer="svg27"
     inkscape:window-maximized="1"
     inkscape:window-y="0"
     inkscape:window-x="0"
     inkscape:cy="184.67024"
     inkscape:cx="11.047334"
     inkscape:zoom="1.5408929"
     showgrid="false"
     id="namedview29"
     inkscape:window-height="711"
     inkscape:window-width="1366"
     inkscape:pageshadow="2"
     inkscape:pageopacity="0"
     guidetolerance="10"
     gridtolerance="10"
     objecttolerance="10"
     borderopacity="1"
     bordercolor="#666666"
     pagecolor="#ffffff" />
  <!--
Created by Hari Seldon and modified by orangain, licensed under Creative Commons Attribution-Share Alike 3.0 Unported.
See: https://creativecommons.org/licenses/by-sa/3.0/deed.en

Original file is available at: https://commons.wikimedia.org/wiki/File:Shogi_ryuma(svg).svg
-->
  <filter
     id="drop-shadow">
    <feGaussianBlur
       id="feGaussianBlur2"
       stdDeviation="2"
       result="blur"
       in="SourceAlpha" />
    <feOffset
       id="feOffset4"
       dy="2"
       dx="2"
       result="offsetBlur" />
    <feBlend
       id="feBlend6"
       mode="normal"
       in2="offsetBlur"
       in="SourceGraphic" />
  </filter>
  <g
     id="g25"
     transform="matrix(3.0359633,0,0,3.0359633,24.960314,13.36445)"
     filter="url(#drop-shadow)">
    <path
       id="path9"
       fill="#feec99"
       d="M 7.56,4.532 20.605,0.581 34.084,4.37 41.12,48.972 0.794,48.755 Z" />
    <path
       id="path11"
       fill="#fed5d5"
       d="m 16.599,45.308 c -0.996,-0.408 -2.109,-1.62 -2.502,-2.726 -0.406,-1.142 1.494,-2.87 3.154,-2.87 1.812,0 2.992,0.704 2.992,1.785 0,0.831 -0.16,0.876 -2.186,0.607 -1.695,-0.225 -2.144,-0.165 -2.002,0.267 0.569,1.723 4.635,2.11 7.516,0.715 2.103,-1.017 2.922,-2.327 2.502,-4 -0.348,-1.386 -1.725,-1.946 -4.786,-1.946 -2.474,0 -3.028,-0.606 -1.616,-1.77 0.636,-0.524 0.53,-0.611 -0.964,-0.802 -1.276,-0.163 -1.679,-0.407 -1.679,-1.014 0,-0.702 0.43,-0.82 3.51,-0.966 1.931,-0.092 3.617,0.005 3.746,0.213 0.129,0.209 -0.146,0.863 -0.61,1.453 l -0.844,1.073 1.915,0.482 c 2.117,0.533 3.117,1.672 3.483,3.965 0.291,1.824 -1.162,4.126 -3.278,5.188 -1.586,0.797 -6.728,1.01 -8.35,0.346 z M 14.441,30.73 c -1.094,-0.443 -2.131,-1.66 -1.744,-2.048 0.16,-0.16 0.86,-0.077 1.556,0.186 1.042,0.393 2.228,0.252 6.736,-0.8 4.341,-1.014 5.713,-1.185 6.649,-0.829 0.648,0.247 1.179,0.75 1.179,1.117 0,0.772 -2.831,2.089 -5.352,2.49 l -1.709,0.271 1.28,-1.066 1.28,-1.067 -1.286,0.26 c -0.708,0.144 -2.65,0.629 -4.314,1.078 -3.391,0.914 -3.097,0.886 -4.275,0.408 z m 6.818,-6.609 c -1.04,-1.04 -1.873,-2.279 -1.873,-2.786 0,-1.033 0.642,-1.212 1.157,-0.323 0.475,0.819 3.181,2.407 4.105,2.408 0.744,0.002 1.799,-1.896 1.406,-2.532 -0.108,-0.175 -0.978,-0.67 -1.932,-1.1 -0.954,-0.43 -1.735,-0.92 -1.735,-1.089 0,-0.168 0.392,-0.804 0.87,-1.413 l 0.871,-1.107 -0.87,-0.466 c -0.48,-0.256 -0.871,-0.785 -0.871,-1.174 0,-0.542 -0.303,-0.419 -1.288,0.525 -1.678,1.608 -3,4.381 -3,6.298 0,1.673 -0.815,2.646 -2.015,2.403 -0.646,-0.13 -0.748,-0.518 -0.633,-2.393 0.076,-1.23 0.046,-2.237 -0.067,-2.237 -0.112,0 -0.897,0.965 -1.744,2.144 -0.847,1.179 -1.83,2.143 -2.184,2.143 -1.313,0 -0.583,-1.903 1.75,-4.56 1.317,-1.5 2.303,-2.727 2.19,-2.727 -0.112,0 -1.044,0.381 -2.072,0.847 -2.438,1.107 -4.066,1.11 -4.655,0.01 -0.421,-0.787 -0.326,-0.858 1.164,-0.859 1.834,-0.002 4.113,-1.217 4.844,-2.583 0.403,-0.753 0.35,-1.02 -0.294,-1.51 -0.431,-0.326 -1.272,-0.6 -1.868,-0.607 -1.16,-0.015 -2.989,-1.087 -2.989,-1.753 0,-0.222 1.038,-0.404 2.306,-0.404 2.152,0 2.34,-0.085 2.833,-1.272 0.72,-1.74 1.958,-2.058 3.257,-0.837 1.313,1.233 1.306,1.82 -0.031,2.535 -0.795,0.425 -0.951,0.71 -0.614,1.116 0.32,0.384 0.318,0.8 -0.005,1.403 -0.633,1.184 -0.585,1.342 0.413,1.342 1.453,0 1.458,1.175 0.011,2.823 -1.097,1.25 -1.254,1.658 -0.834,2.164 0.433,0.522 0.704,0.303 1.67,-1.348 0.633,-1.085 1.826,-2.685 2.65,-3.556 1.153,-1.218 1.553,-2.06 1.73,-3.643 0.206,-1.827 0.117,-2.134 -0.786,-2.726 -1.312,-0.86 -0.937,-1.43 0.938,-1.43 1.862,0 2.677,1.368 1.99,3.338 l -0.44,1.262 1.93,-0.218 c 1.705,-0.192 1.912,-0.125 1.778,0.573 -0.099,0.514 -0.862,1.01 -2.186,1.422 -1.622,0.504 -2.035,0.824 -2.035,1.578 0,0.585 0.327,1.032 0.855,1.17 1.114,0.291 1.556,1.494 0.922,2.51 -0.44,0.703 -0.313,0.895 1.017,1.529 2.463,1.174 2.518,3.32 0.147,5.691 -1.91,1.91 -3.448,1.755 -5.783,-0.58 z m 6.7,-10.987 c 0,-0.236 0.145,-0.433 0.322,-0.438 0.177,-0.006 0.799,-0.377 1.382,-0.825 1.02,-0.784 1.032,-0.847 0.303,-1.652 C 29.262,9.44 29.259,9.362 29.93,9.105 c 1.166,-0.448 2.745,0.869 2.745,2.288 0,1.144 -0.17,1.278 -2.165,1.705 -2.63,0.565 -2.55,0.563 -2.55,0.036 z" />
    <path
       id="path13"
       fill="#feb0b0"
       d="m 16.822,45.235 c -3.751,-1.497 -3.293,-5.55 0.623,-5.51 1.663,0.018 2.995,1 2.633,1.943 -0.223,0.58 -0.627,0.659 -2.197,0.423 -2.223,-0.333 -2.528,0.206 -0.77,1.359 2.89,1.893 9.134,-0.415 9.134,-3.376 0,-2.083 -1.306,-2.934 -4.501,-2.934 -1.533,0 -2.787,-0.15 -2.787,-0.334 0,-0.183 0.3,-0.762 0.668,-1.286 0.635,-0.907 0.617,-0.952 -0.394,-0.952 -1.503,0 -2.417,-0.423 -2.417,-1.118 0,-0.328 0.144,-0.602 0.321,-0.607 0.177,-0.006 1.817,-0.104 3.644,-0.217 3.078,-0.191 3.322,-0.145 3.322,0.63 0,0.458 -0.41,1.121 -0.91,1.472 -0.885,0.62 -0.864,0.647 0.75,0.947 2.418,0.449 3.523,1.338 4.038,3.251 1.018,3.78 -2.238,6.79 -7.307,6.753 -1.533,-0.011 -3.265,-0.21 -3.85,-0.444 z m 5.709,-14.679 c 0.433,-0.269 1.108,-0.724 1.5,-1.012 0.648,-0.474 0.635,-0.523 -0.145,-0.536 -0.473,-0.007 -2.208,0.373 -3.857,0.844 -3.606,1.031 -5.28,1.08 -6.55,0.19 -1.692,-1.185 -0.687,-2.12 1.09,-1.012 0.563,0.351 1.822,0.19 5.173,-0.66 4.407,-1.117 7.696,-1.463 8.6,-0.904 1.504,0.93 -0.744,2.517 -4.537,3.206 -1.604,0.291 -1.887,0.265 -1.274,-0.116 z m -0.188,-5.54 c -1.575,-1.057 -3.365,-3.9 -2.808,-4.458 0.19,-0.19 0.533,-0.007 0.763,0.406 0.462,0.825 3.394,2.458 4.414,2.458 0.792,0 1.684,-1.56 1.366,-2.389 -0.128,-0.334 -1.011,-0.918 -1.962,-1.299 -0.951,-0.38 -1.73,-0.786 -1.73,-0.9 0,-0.115 0.376,-0.736 0.834,-1.38 0.826,-1.16 0.826,-1.176 -0.018,-1.9 -0.469,-0.4 -0.736,-0.916 -0.594,-1.146 0.585,-0.947 -0.574,-0.32 -1.804,0.976 -1.816,1.914 -2.704,3.826 -2.704,5.82 0,1.822 -0.777,2.81 -2.016,2.565 -0.656,-0.13 -0.748,-0.516 -0.622,-2.607 0.082,-1.35 0.066,-2.455 -0.036,-2.455 -0.101,0 -0.92,1.067 -1.819,2.372 -1.626,2.362 -2.446,2.75 -2.729,1.292 -0.088,-0.454 0.615,-1.571 1.73,-2.75 3.859,-4.08 3.854,-4.06 0.79,-2.815 -2.954,1.2 -4.43,1.225 -4.649,0.079 -0.116,-0.608 0.167,-0.751 1.496,-0.753 1.83,-0.003 3.886,-1.16 4.672,-2.63 0.459,-0.858 0.396,-1.032 -0.556,-1.525 -0.591,-0.307 -1.423,-0.558 -1.848,-0.558 -1.244,0 -2.12,-0.468 -2.618,-1.397 C 9.455,9.198 9.529,9.165 11.352,9.37 13.388,9.6 14.67,9.166 14.67,8.25 c 0,-0.306 0.37,-0.89 0.822,-1.3 0.948,-0.858 2.263,-0.405 3.04,1.047 0.386,0.72 0.245,0.973 -0.954,1.704 -0.774,0.471 -1.14,0.858 -0.815,0.86 0.434,0 0.528,0.39 0.354,1.463 -0.208,1.282 -0.11,1.494 0.802,1.723 1.334,0.335 1.307,0.645 -0.224,2.571 -0.693,0.873 -1.155,1.865 -1.025,2.203 0.379,0.987 0.778,0.73 1.864,-1.201 0.56,-0.999 1.727,-2.59 2.59,-3.537 1.239,-1.358 1.632,-2.203 1.865,-4.006 0.268,-2.084 0.214,-2.307 -0.6,-2.52 -0.492,-0.129 -0.824,-0.45 -0.737,-0.715 0.267,-0.81 2.042,-0.81 2.938,0.001 0.806,0.73 0.836,1.446 0.137,3.267 -0.184,0.478 0.174,0.606 1.605,0.576 2.565,-0.054 2.45,0.98 -0.195,1.751 -1.684,0.491 -2.036,0.768 -2.036,1.603 0,0.647 0.307,1.089 0.855,1.232 1.11,0.29 1.556,1.493 0.928,2.5 -0.646,1.034 -0.626,1.235 0.122,1.235 0.34,0 1.136,0.444 1.768,0.987 0.963,0.829 1.1,1.205 0.85,2.34 -0.33,1.505 -2.838,3.96 -4.046,3.96 -0.428,0 -1.434,-0.44 -2.235,-0.978 z m 6.872,-12.74 c 1.44,-1.236 1.454,-1.28 0.684,-2.131 -0.773,-0.855 -0.765,-0.87 0.48,-0.87 1.524,0 2.296,0.681 2.296,2.026 0,1.059 -0.764,1.498 -3.43,1.972 l -1.5,0.267 1.47,-1.263 z" />
    <path
       id="path15"
       fill="#fe8f8f"
       d="m 16.94,45.239 c -2.289,-0.662 -3.541,-3.437 -2.093,-4.638 1.158,-0.961 3.41,-1.032 4.51,-0.142 1.5,1.215 0.816,1.931 -1.51,1.582 -2.639,-0.395 -2.605,0.757 0.053,1.771 2.226,0.85 4.1,0.508 6.669,-1.217 1.144,-0.768 1.49,-1.32 1.592,-2.535 0.182,-2.16 -0.994,-2.92 -4.513,-2.92 -1.48,0 -2.69,-0.15 -2.69,-0.334 0,-0.183 0.3,-0.762 0.667,-1.286 0.641,-0.916 0.621,-0.953 -0.536,-0.959 -0.662,-0.003 -1.491,-0.188 -1.843,-0.41 -1.206,-0.763 0.229,-1.362 3.443,-1.438 3.583,-0.085 4.114,0.388 2.31,2.06 l -1.166,1.08 h 1.77 c 5.398,0 6.112,7.092 0.924,9.168 -1.875,0.75 -5.395,0.851 -7.587,0.218 z M 13.384,29.638 c -1.08,-1.15 -0.693,-1.37 1.03,-0.585 0.867,0.396 1.92,0.274 5.58,-0.643 5.78,-1.448 8.823,-1.48 8.823,-0.092 0,0.71 -2.626,1.903 -4.829,2.196 l -1.816,0.24 1.286,-0.761 c 1.248,-0.74 1.257,-0.767 0.294,-0.914 -0.545,-0.083 -2.311,0.25 -3.924,0.74 -3.882,1.179 -5.2,1.142 -6.444,-0.181 z m 9.106,-4.499 c -1.433,-0.873 -3.1,-3.164 -3.103,-4.262 0,-0.418 0.378,-0.262 1.178,0.483 2.373,2.214 4.463,2.678 5.269,1.171 0.67,-1.25 0.235,-2.048 -1.512,-2.778 -1.678,-0.7 -1.8,-1.057 -0.86,-2.492 0.59,-0.9 0.574,-1.053 -0.186,-1.74 -0.485,-0.439 -0.727,-1.05 -0.582,-1.463 0.451,-1.282 -2.934,2.25 -3.837,4.003 -0.485,0.942 -0.866,2.28 -0.846,2.972 0.048,1.67 -0.61,2.818 -1.616,2.818 -1.192,0 -1.394,-0.618 -0.855,-2.617 0.607,-2.254 -0.013,-3.044 -1.076,-1.37 -1.157,1.823 -2.881,3.555 -3.289,3.303 -0.87,-0.538 -0.186,-1.83 2.293,-4.33 1.46,-1.473 2.57,-2.764 2.464,-2.868 -0.104,-0.103 -1.318,0.288 -2.698,0.87 -2.773,1.17 -4.268,1.186 -4.485,0.046 -0.115,-0.603 0.162,-0.75 1.41,-0.75 2.008,0 3.903,-0.996 4.665,-2.45 0.567,-1.082 0.538,-1.189 -0.466,-1.71 -0.59,-0.306 -1.33,-0.556 -1.645,-0.556 -0.976,0 -2.698,-0.94 -2.957,-1.615 -0.206,-0.538 0.098,-0.595 1.892,-0.357 2.137,0.283 2.138,0.283 3.229,-1.444 0.6,-0.95 1.232,-1.722 1.406,-1.714 0.417,0.018 1.46,0.876 2.177,1.79 0.505,0.646 0.401,0.84 -0.858,1.607 -0.787,0.48 -1.19,0.873 -0.895,0.874 0.694,0.002 0.698,1.994 0.004,2.423 -0.359,0.222 -0.186,0.41 0.534,0.58 1.49,0.352 1.57,1.582 0.196,3.017 -0.703,0.733 -1.065,1.484 -0.91,1.887 0.417,1.088 1.07,0.773 1.945,-0.94 0.452,-0.883 1.589,-2.477 2.526,-3.54 1.33,-1.509 1.771,-2.418 2.009,-4.145 0.272,-1.98 0.209,-2.264 -0.6,-2.697 -1.111,-0.594 -0.767,-1.299 0.634,-1.299 1.487,0 2.5,1.675 1.925,3.185 -0.625,1.644 -0.565,2.168 0.177,1.552 0.74,-0.615 2.895,-0.436 3.123,0.259 0.09,0.276 -0.794,0.811 -2.003,1.213 -1.191,0.395 -2.166,0.88 -2.166,1.078 0,0.198 -0.117,0.665 -0.26,1.037 -0.183,0.478 -0.009,0.679 0.59,0.679 1.308,0 2.095,1.165 1.466,2.172 -0.692,1.11 -0.64,1.686 0.153,1.686 0.364,0 1.127,0.465 1.696,1.033 0.895,0.895 0.98,1.225 0.631,2.465 -0.45,1.605 -2.612,3.79 -3.747,3.788 -0.408,-10e-4 -1.372,-0.385 -2.14,-0.854 z M 17.028,8.419 c 0.146,-0.236 0.072,-0.43 -0.164,-0.43 -0.235,0 -0.547,0.194 -0.693,0.43 -0.146,0.235 -0.072,0.428 0.164,0.428 0.235,0 0.547,-0.193 0.693,-0.429 z m 12.432,3.717 c 1.033,-0.869 1.18,-1.19 0.75,-1.628 -0.858,-0.875 -0.625,-1.3 0.635,-1.154 0.83,0.097 1.291,0.48 1.584,1.317 0.528,1.512 0.113,1.917 -2.326,2.269 l -1.93,0.278 z" />
    <path
       id="path17"
       fill="#fe6f6f"
       d="m 16.94,45.239 c -2.746,-0.795 -3.615,-3.745 -1.434,-4.873 1.683,-0.87 2.719,-0.825 3.94,0.173 0.8,0.654 0.902,0.938 0.486,1.36 -0.388,0.396 -0.892,0.422 -1.931,0.104 -2.803,-0.86 -3.352,0.244 -0.776,1.558 1.93,0.984 2.586,1.041 4.827,0.419 2.449,-0.68 4.193,-2.355 4.193,-4.026 0,-2.078 -1.083,-2.814 -4.142,-2.814 -1.416,0 -2.704,-0.13 -2.862,-0.288 -0.158,-0.158 -0.007,-0.713 0.334,-1.235 0.599,-0.913 0.56,-0.957 -1.07,-1.218 -1.652,-0.264 -2.14,-0.79 -1.246,-1.342 0.245,-0.151 1.82,-0.308 3.5,-0.347 3.507,-0.082 3.99,0.366 2.19,2.033 l -1.197,1.11 h 1.85 c 5.315,0 6.033,7.125 0.925,9.168 -1.875,0.75 -5.395,0.851 -7.587,0.218 z M 13.384,29.638 c -1.08,-1.15 -0.693,-1.37 1.03,-0.585 0.867,0.396 1.92,0.274 5.58,-0.643 4.669,-1.17 7.305,-1.399 8.367,-0.727 0.928,0.587 -0.062,1.544 -2.434,2.352 -2.72,0.927 -3.443,0.872 -2.195,-0.169 l 1.012,-0.843 -1.073,-0.014 c -0.59,-0.008 -2.422,0.372 -4.07,0.843 -3.925,1.122 -4.996,1.085 -6.217,-0.214 z m 9.525,-4.357 c -1.517,-0.747 -2.79,-2.29 -3.303,-4.002 l -0.322,-1.072 1.23,1.156 c 0.676,0.636 1.93,1.449 2.785,1.806 1.435,0.6 1.61,0.59 2.25,-0.118 1.224,-1.352 0.872,-2.466 -1.019,-3.223 -1.872,-0.749 -2.089,-1.284 -1.005,-2.48 0.66,-0.73 0.66,-0.84 0,-1.569 -0.39,-0.43 -0.71,-1.145 -0.71,-1.587 0,-0.641 -0.343,-0.469 -1.7,0.857 -2.044,1.996 -3.143,4.145 -3.268,6.393 -0.095,1.704 -0.752,2.5 -1.89,2.288 -0.676,-0.126 -0.709,-0.739 -0.187,-3.473 0.417,-2.188 -0.203,-1.97 -2.304,0.81 -0.89,1.177 -1.8,2.14 -2.023,2.14 -0.663,0 -0.77,-1.619 -0.141,-2.136 1.459,-1.198 4.794,-4.94 4.587,-5.147 -0.127,-0.127 -1.32,0.268 -2.65,0.878 -2.628,1.202 -4.268,1.245 -4.483,0.116 -0.1,-0.525 0.087,-0.658 0.703,-0.497 1.38,0.362 4.64,-1.34 5.406,-2.82 0.616,-1.192 0.618,-1.325 0.017,-1.325 -0.367,0 -0.778,-0.288 -0.913,-0.64 -0.135,-0.352 -0.422,-0.532 -0.638,-0.398 -0.615,0.38 -3.273,-0.646 -3.55,-1.37 -0.214,-0.556 0.091,-0.61 2.036,-0.368 2.26,0.283 2.293,0.27 2.843,-1.057 0.812,-1.96 1.826,-2.358 2.952,-1.16 1.251,1.333 1.168,1.671 -0.691,2.802 -0.884,0.538 -1.263,0.868 -0.841,0.734 0.982,-0.311 1.47,0.867 0.801,1.937 -0.674,1.08 -0.632,1.19 0.356,0.932 0.542,-0.142 0.95,0.03 1.12,0.472 0.233,0.61 -0.106,1.295 -1.733,3.5 -0.264,0.357 -0.205,0.785 0.172,1.24 0.512,0.617 0.69,0.491 1.613,-1.143 0.57,-1.01 1.804,-2.75 2.741,-3.866 1.31,-1.56 1.762,-2.515 1.953,-4.135 0.22,-1.856 0.14,-2.165 -0.674,-2.6 -1.113,-0.596 -0.8,-1.31 0.573,-1.31 1.527,0 2.11,1.021 1.814,3.179 l -0.258,1.88 1.209,-0.456 c 1.267,-0.478 2.621,-0.214 2.621,0.511 0,0.235 -0.763,0.632 -1.695,0.883 -3.045,0.82 -3.916,2.48 -1.734,3.303 1.262,0.476 1.703,1.537 0.857,2.06 -0.84,0.52 -0.406,1.353 1.072,2.057 1.306,0.623 1.5,0.916 1.5,2.266 0,1.191 -0.337,1.887 -1.457,3.008 -1.647,1.646 -2.044,1.72 -4.022,0.744 z M 17.029,8.418 C 17.174,8.183 17.1,7.99 16.864,7.99 c -0.235,0 -0.547,0.193 -0.693,0.428 -0.146,0.236 -0.072,0.43 0.164,0.43 0.235,0 0.547,-0.194 0.693,-0.43 z m 12.381,3.756 c 1.08,-0.893 1.173,-1.143 0.736,-1.961 -0.434,-0.81 -0.392,-0.937 0.304,-0.937 0.958,0 2.225,1.286 2.225,2.259 0,0.884 -0.236,1.009 -2.572,1.367 l -1.93,0.296 z" />
    <path
       id="path19"
       fill="#fe4e4e"
       d="m 17.034,45.09 c -3.177,-1.174 -3.858,-3.69 -1.288,-4.764 2.248,-0.94 4.981,0.052 4.095,1.486 -0.287,0.465 -0.65,0.474 -1.944,0.047 -1.221,-0.403 -1.706,-0.408 -2.087,-0.02 -0.679,0.691 0.998,2.04 3.005,2.416 3.298,0.618 8.3,-2.425 7.626,-4.64 -0.61,-1.997 -1.446,-2.475 -4.335,-2.475 -2.884,0 -3.297,-0.367 -2.01,-1.788 0.671,-0.743 0.642,-0.784 -0.562,-0.784 -1.515,0 -3.11,-0.995 -2.35,-1.465 0.699,-0.432 5.955,-0.58 6.592,-0.186 0.375,0.232 0.168,0.696 -0.727,1.63 l -1.251,1.307 h 1.827 c 4.928,0 6.024,6.618 1.46,8.81 -2.139,1.027 -5.889,1.225 -8.051,0.426 z m -3.4,-15.287 c -1.462,-1.15 -1.163,-1.467 0.736,-0.781 1.29,0.467 2.056,0.39 6.02,-0.604 4.746,-1.189 6.935,-1.39 7.97,-0.735 0.98,0.62 -0.16,1.636 -2.673,2.382 -2.85,0.846 -3.17,0.814 -1.955,-0.199 l 1.012,-0.843 -1.355,-0.014 c -0.745,-0.008 -2.578,0.37 -4.072,0.838 -3.447,1.08 -4.262,1.074 -5.683,-0.044 z m 10.039,-4.109 c -1.194,-0.431 -3.858,-3.297 -3.858,-4.148 0,-0.83 0.017,-0.83 0.964,0.036 0.53,0.486 1.617,1.212 2.413,1.615 1.38,0.699 1.485,0.696 2.218,-0.057 1.44,-1.478 1.22,-2.423 -0.773,-3.326 -1.921,-0.87 -2.238,-1.514 -1.179,-2.393 0.812,-0.674 0.827,-1.553 0.034,-1.857 -0.336,-0.13 -0.673,-0.68 -0.75,-1.225 -0.133,-0.937 -0.24,-0.892 -1.963,0.831 -1.002,1.002 -1.822,1.75 -1.822,1.662 0,-0.088 0.965,-1.366 2.144,-2.84 1.815,-2.272 2.143,-2.961 2.143,-4.504 0,-1.41 -0.218,-1.97 -0.965,-2.478 -0.893,-0.607 -0.907,-0.678 -0.187,-0.966 0.428,-0.17 1.248,-0.096 1.822,0.165 1.146,0.522 1.35,1.778 0.608,3.73 -0.387,1.018 -0.35,1.111 0.322,0.815 1.142,-0.504 3.227,-0.469 3.408,0.058 0.088,0.255 -0.665,0.71 -1.674,1.009 -1.008,0.3 -2.075,0.74 -2.37,0.98 -0.932,0.76 -0.586,1.84 0.75,2.345 1.263,0.476 1.704,1.537 0.858,2.06 -0.84,0.52 -0.406,1.353 1.072,2.057 1.266,0.604 1.5,0.936 1.5,2.128 0,1.704 -0.907,3.1 -2.577,3.963 -0.681,0.352 -1.296,0.625 -1.367,0.606 -0.07,-0.018 -0.418,-0.138 -0.771,-0.266 z m -8.406,-2.453 c -0.129,-0.335 -0.026,-0.998 0.228,-1.472 0.561,-1.05 0.61,-3.062 0.073,-3.062 -0.214,0 -1.081,0.964 -1.928,2.143 -1.453,2.023 -2.828,2.801 -2.828,1.602 0,-0.298 1.181,-1.85 2.624,-3.45 1.443,-1.598 2.543,-2.988 2.444,-3.086 -0.099,-0.1 -1.387,0.307 -2.862,0.903 -2.78,1.123 -3.936,1.2 -4.242,0.28 -0.113,-0.338 0.237,-0.536 0.946,-0.536 1.48,0 4.29,-1.456 5.134,-2.661 0.775,-1.106 0.897,-2.244 0.195,-1.81 -0.262,0.162 -0.638,0.032 -0.836,-0.288 -0.198,-0.32 -0.95,-0.611 -1.67,-0.648 -1.329,-0.066 -2.59,-0.806 -2.59,-1.519 0,-0.221 0.931,-0.267 2.146,-0.106 2.117,0.28 2.153,0.266 2.617,-1.066 0.682,-1.957 1.755,-2.394 2.894,-1.181 1.293,1.376 1.162,1.777 -0.905,2.78 -1.736,0.842 -1.764,0.885 -0.593,0.905 1.267,0.022 1.316,0.258 0.476,2.304 -0.225,0.547 -0.143,0.758 0.273,0.7 2.063,-0.288 2.198,0.668 0.387,2.73 -1.267,1.444 -1.271,1.462 -0.428,2.225 0.467,0.423 0.85,0.583 0.85,0.356 0,-0.228 0.288,-0.788 0.64,-1.246 0.57,-0.738 0.57,-0.652 0,0.762 -0.352,0.877 -0.64,2.255 -0.64,3.062 0,0.943 -0.243,1.561 -0.679,1.729 -1.045,0.4 -1.471,0.314 -1.726,-0.35 z M 17.028,8.418 C 17.174,8.183 17.1,7.99 16.864,7.99 c -0.235,0 -0.547,0.193 -0.693,0.428 -0.146,0.236 -0.072,0.43 0.164,0.43 0.235,0 0.547,-0.194 0.693,-0.43 z m 12.432,3.707 c 1.136,-0.95 1.223,-1.178 0.746,-1.962 -0.47,-0.772 -0.436,-0.887 0.255,-0.887 0.948,0 2.214,1.29 2.214,2.255 0,0.71 -0.438,0.912 -3,1.39 L 28.174,13.2 Z" />
    <path
       id="path21"
       fill="#fe2e2e"
       d="m 17.75,45.289 c -1.656,-0.392 -3.508,-1.983 -3.508,-3.013 0,-1.737 3.915,-3.107 5.202,-1.82 0.819,0.818 0.093,1.935 -1.02,1.569 -2.73,-0.898 -3.787,0.157 -1.534,1.53 1.925,1.175 4.024,1.095 6.733,-0.255 2.688,-1.34 3.408,-2.546 2.636,-4.412 -0.633,-1.526 -1.585,-1.904 -4.623,-1.83 -2.378,0.057 -2.933,-0.533 -1.566,-1.667 0.598,-0.496 0.449,-0.625 -1.179,-1.017 -2.478,-0.598 -2.33,-1.285 0.301,-1.396 1.168,-0.05 2.51,-0.186 2.984,-0.304 0.473,-0.118 1.145,-0.038 1.493,0.176 0.525,0.325 0.43,0.6 -0.564,1.639 l -1.195,1.248 2.046,0.23 c 2.593,0.293 4.003,1.75 4.003,4.14 0,3.986 -4.852,6.45 -10.209,5.182 z M 13.515,29.651 c -0.923,-0.812 -1.034,-1.06 -0.477,-1.071 0.398,-0.008 0.844,0.18 0.99,0.415 0.409,0.663 1.748,0.529 6.936,-0.693 4.859,-1.144 8.107,-1.158 7.742,-0.033 -0.215,0.665 -2.698,1.82 -4.605,2.14 -1.3,0.22 -1.372,0.19 -0.536,-0.218 0.53,-0.258 0.965,-0.633 0.965,-0.833 0,-0.61 -2.207,-0.407 -5.358,0.494 -3.82,1.092 -4.202,1.079 -5.657,-0.2 z m 9.914,-4.283 C 21.94,24.742 19.815,22.4 19.815,21.385 c 0,-0.569 0.163,-0.535 0.964,0.197 1.048,0.959 3.443,2.269 4.147,2.269 0.242,0 0.746,-0.593 1.12,-1.317 0.819,-1.583 0.417,-2.261 -1.765,-2.981 -1.57,-0.518 -1.86,-1.271 -0.823,-2.132 0.812,-0.674 0.827,-1.553 0.034,-1.857 -0.336,-0.13 -0.673,-0.662 -0.75,-1.184 -0.14,-0.938 -0.16,-0.934 -1.641,0.295 -1.472,1.221 -1.466,1.203 0.321,-0.958 1.606,-1.942 1.822,-2.456 1.822,-4.344 0,-1.854 -0.13,-2.177 -0.965,-2.412 -0.911,-0.256 -0.92,-0.297 -0.167,-0.74 0.581,-0.343 1.089,-0.337 1.876,0.022 0.944,0.43 1.051,0.691 0.853,2.084 -0.125,0.875 -0.36,1.924 -0.524,2.33 -0.277,0.685 -0.204,0.69 1.03,0.075 0.73,-0.364 1.648,-0.6 2.041,-0.523 1.205,0.234 1.106,1.092 -0.16,1.388 -2.634,0.617 -3.555,1.193 -3.555,2.224 0,0.713 0.306,1.088 1.04,1.272 1.35,0.34 1.734,1.393 0.859,2.36 -0.65,0.719 -0.584,0.823 1.061,1.662 1.968,1.004 2.25,2.107 1.105,4.321 -0.96,1.857 -2.667,2.622 -4.31,1.932 z m -7.824,-2.067 c -0.29,-0.35 -0.311,-0.78 -0.06,-1.18 0.535,-0.844 0.52,-3.414 -0.018,-3.414 -0.236,0 -1.122,0.964 -1.97,2.143 -1.456,2.028 -2.75,2.787 -2.74,1.608 0.003,-0.295 1.273,-1.935 2.822,-3.644 1.55,-1.71 2.602,-3.108 2.34,-3.108 -0.262,0 -1.643,0.49 -3.068,1.09 -1.464,0.617 -2.95,0.977 -3.416,0.829 -1.198,-0.38 -1.013,-1.062 0.288,-1.062 1.54,0 3.887,-1.183 4.9,-2.47 0.851,-1.083 1.17,-2.497 0.465,-2.06 -0.21,0.128 -0.619,-0.053 -0.91,-0.404 -0.292,-0.351 -1.143,-0.639 -1.892,-0.639 -1.281,0 -2.391,-0.627 -2.391,-1.351 0,-0.178 0.955,-0.21 2.123,-0.071 2.106,0.249 2.129,0.239 2.866,-1.307 0.819,-1.717 1.786,-1.977 2.875,-0.773 1.053,1.163 0.893,1.527 -1.112,2.534 -1.748,0.878 -1.772,0.916 -0.593,0.942 1.262,0.027 1.315,0.27 0.488,2.277 -0.247,0.602 -0.087,0.75 0.809,0.75 1.453,0 1.416,0.749 -0.13,2.588 -1.14,1.358 -1.19,1.548 -0.58,2.23 0.634,0.71 0.697,0.71 1.271,0 0.546,-0.674 0.56,-0.656 0.152,0.19 -0.25,0.516 -0.453,1.587 -0.453,2.38 0,2.044 -1.109,3.075 -2.066,1.922 z M 17.242,8.398 c 0,-0.197 -0.192,-0.477 -0.428,-0.623 -0.236,-0.145 -0.429,-0.173 -0.429,-0.06 0,0.113 -0.118,0.512 -0.262,0.888 -0.192,0.5 -0.077,0.611 0.429,0.417 0.38,-0.145 0.69,-0.426 0.69,-0.622 z m 12.11,4.004 c 1.257,-0.802 1.504,-1.773 0.665,-2.612 -0.4,-0.4 -0.307,-0.514 0.419,-0.514 0.528,0 1.245,0.476 1.652,1.097 0.913,1.394 0.287,2.109 -2.2,2.507 l -1.714,0.276 1.179,-0.754 z" />
    <path
       id="path23"
       fill="#fe0101"
       d="m 18.137,45.316 c -1.263,-0.215 -2.224,-0.709 -2.893,-1.487 -1.252,-1.454 -1.263,-2.171 -0.05,-3.021 1.738,-1.217 5.034,-0.648 4.488,0.774 -0.212,0.552 -0.49,0.59 -1.568,0.214 -2.598,-0.906 -3.468,0.391 -1.193,1.779 1.807,1.101 4.294,1.08 6.639,-0.054 2.349,-1.137 3.284,-2.485 2.91,-4.19 -0.421,-1.915 -1.312,-2.406 -4.364,-2.406 -2.77,0 -3.367,-0.43 -2.077,-1.5 0.78,-0.647 0.85,-1.336 0.107,-1.06 -0.7,0.26 -3.108,-0.4 -3.108,-0.852 0,-0.193 1.592,-0.427 3.537,-0.52 2.098,-0.101 3.536,-0.002 3.536,0.242 0,0.227 -0.627,0.907 -1.393,1.511 l -1.393,1.098 1.33,0.005 c 3.156,0.011 5.317,1.792 5.313,4.377 -0.002,1.406 -1.47,3.624 -2.879,4.353 -1.582,0.818 -4.587,1.137 -6.942,0.737 z M 13.908,30.042 c -1.192,-0.835 -1.291,-1.687 -0.123,-1.062 1.249,0.668 2.835,0.532 7.316,-0.628 4.72,-1.223 5.953,-1.302 7.098,-0.46 0.788,0.58 0.73,0.66 -1.097,1.492 -1.06,0.483 -2.303,0.882 -2.761,0.887 -0.824,0.01 -0.824,0.003 0,-0.62 0.775,-0.586 0.71,-0.63 -0.952,-0.643 -0.98,-0.007 -3.006,0.37 -4.5,0.839 -3.291,1.031 -3.76,1.05 -4.98,0.195 z m 7.57,-6.14 c -0.915,-0.916 -1.663,-1.977 -1.663,-2.359 0,-0.574 0.153,-0.54 0.894,0.202 0.87,0.869 3.35,2.106 4.225,2.106 0.237,0 0.738,-0.593 1.112,-1.317 0.819,-1.583 0.417,-2.261 -1.765,-2.981 -1.703,-0.563 -1.696,-0.538 -0.716,-2.202 0.715,-1.213 0.715,-1.294 0,-1.695 -0.412,-0.232 -0.75,-0.798 -0.75,-1.257 0,-1.118 -0.351,-1.056 -1.905,0.338 -0.72,0.646 -0.49,0.301 0.512,-0.766 1.699,-1.81 1.822,-2.105 1.822,-4.361 0,-2.104 -0.121,-2.458 -0.927,-2.714 -0.828,-0.263 -0.85,-0.338 -0.206,-0.698 1.834,-1.027 3.316,0.933 2.443,3.23 -0.702,1.845 -0.556,2.067 0.872,1.328 1.29,-0.667 2.533,-0.595 2.533,0.146 0,0.202 -0.916,0.65 -2.036,0.996 -1.704,0.528 -2.058,0.82 -2.172,1.793 -0.095,0.816 0.096,1.245 0.643,1.44 1.683,0.602 1.917,1.053 1.152,2.221 -0.396,0.603 -0.545,1.158 -0.332,1.232 3.468,1.216 4.073,3.393 1.624,5.843 -1.68,1.68 -3.313,1.52 -5.36,-0.526 z m -5.687,-0.4 c -0.12,-0.194 -0.101,-1.477 0.04,-2.852 0.224,-2.164 0.332,-2.399 0.806,-1.75 0.302,0.413 0.706,0.652 0.898,0.533 0.193,-0.119 0.283,0.638 0.2,1.68 -0.104,1.295 -0.402,2.031 -0.939,2.319 -0.433,0.231 -0.885,0.263 -1.005,0.07 z m -4.77,-0.946 c -0.148,-0.24 1.021,-1.88 2.6,-3.644 1.578,-1.763 2.62,-3.206 2.314,-3.206 -0.305,0 -1.8,0.498 -3.323,1.108 -2.526,1.01 -2.828,1.048 -3.448,0.428 -0.62,-0.62 -0.554,-0.679 0.748,-0.679 2,0 4.515,-1.537 5.337,-3.262 0.663,-1.389 0.657,-1.453 -0.132,-1.453 -0.453,0 -0.944,-0.193 -1.09,-0.429 -0.145,-0.236 -0.748,-0.429 -1.34,-0.429 -1.194,0 -2.732,-0.696 -2.732,-1.238 0,-0.193 0.933,-0.26 2.073,-0.151 2.006,0.193 2.102,0.15 2.986,-1.35 1.03,-1.744 1.753,-1.926 2.847,-0.717 0.927,1.024 0.587,1.628 -1.421,2.521 l -1.555,0.692 1.179,0.15 c 1.358,0.173 1.451,0.565 0.486,2.038 -0.685,1.045 -0.678,1.056 0.643,1.056 0.735,0 1.336,0.22 1.336,0.488 0,0.269 -1.024,1.668 -2.275,3.108 -1.25,1.441 -2.71,3.247 -3.244,4.013 -1.009,1.449 -1.53,1.7 -1.989,0.956 z M 17.242,8.122 c 0,-0.843 -1.034,-0.47 -1.21,0.438 -0.096,0.497 0.066,0.634 0.536,0.454 0.371,-0.142 0.674,-0.543 0.674,-0.892 z m 12.325,4.281 c 1.06,-0.725 1.248,-1.815 0.45,-2.613 -0.4,-0.4 -0.352,-0.514 0.214,-0.514 0.777,0 2.444,1.445 2.444,2.118 0,0.566 -0.71,0.942 -2.516,1.332 -1.496,0.324 -1.519,0.312 -0.592,-0.323 z" />
  </g>
</svg>
