<svg xmlns="http://www.w3.org/2000/svg" xmlns:xlink="http://www.w3.org/1999/xlink" id="bishop" width="700pt" height="700pt" version="1.0" viewBox="0 0 933.333 933.333"><style id="style-base">.base{fill-opacity:1;fill-rule:evenodd;stroke-miterlimit:4;stroke-dasharray:none;stroke-linecap:round;stroke-linejoin:round;stroke-opacity:1}.stroke-medium{stroke-width:20}.stroke-color{stroke:#000}.fill-color{fill:#7f899b}</style><defs id="defs36222"><linearGradient id="fillGradient"><stop id="stop0" offset="0" style="stop-color:#7f899b;stop-opacity:1"/><stop id="stop1" offset="1" style="stop-color:#1c1c2f;stop-opacity:1"/></linearGradient><linearGradient xlink:href="#fillGradient" id="shoulders-gradient" x1="136.097" x2="784.781" y1="629.62" y2="865.103" gradientTransform="matrix(1.2051 0 0 1.18532 -52.883 -98.266)" gradientUnits="userSpaceOnUse"/><linearGradient xlink:href="#fillGradient" id="top-deco-1-gradient" x1="321.158" x2="395.432" y1="90.161" y2="128.463" gradientTransform="matrix(1.07338 0 0 1.05577 6.2 -.71)" gradientUnits="userSpaceOnUse"/><linearGradient xlink:href="#fillGradient" id="top-deco-2-gradient" x1="321.158" x2="395.432" y1="90.161" y2="128.463" gradientTransform="matrix(1.07338 0 0 1.05577 155.718 -4.82)" gradientUnits="userSpaceOnUse"/><linearGradient xlink:href="#fillGradient" id="hat-2-gradient" x1="192.3" x2="825.779" y1="446.013" y2="717.336" gradientTransform="matrix(1.07338 0 0 1.05577 6.2 -.71)" gradientUnits="userSpaceOnUse"/><linearGradient xlink:href="#fillGradient" id="crown-base-gradient" x1="192.3" x2="825.779" y1="446.013" y2="717.336" gradientTransform="matrix(1.07338 0 0 1.05577 6.2 -.71)" gradientUnits="userSpaceOnUse"/><linearGradient xlink:href="#fillGradient" id="hat-1-gradient" x1="721.622" x2="541.266" y1="220.042" y2="599.38" gradientTransform="matrix(1.07338 0 0 1.05577 6.2 -.71)" gradientUnits="userSpaceOnUse"/></defs><path id="boundary" d="M560.572 141.416c-18.932-19.681 19.546-33.92 5.48-50.334-4.877-5.692-11.659-8.32-18.491-8.426-6.833-.106-13.715 2.307-18.793 6.696-18.086 15.629 16.489 29.905 3.093 52.283m-120.808 3.892c-18.932-19.681 19.547-33.921 5.482-50.336-4.877-5.692-11.66-8.319-18.492-8.425-6.833-.107-13.715 2.307-18.793 6.695-18.085 15.629 16.49 29.905 3.094 52.283m226.441 633.58s-2.105-38.027 4.377-54.662c.394-3.433-.448-6.636-2.336-9.623 4.54.707 8.623 1.424 12.172 2.145a336.043 336.043 0 0 0 10.053-48.909l1.6 4.428c21.986-24.414 57.808-90.411 56.744-157.406-1.065-66.995-5.305-95.174-25.75-157.887-5.641-17.303-12.573-34.736-20.286-51.834 9.8-19.122 19.483-38.305 29.354-57.388 14.58-21.226 42.254-28.338 58.601-47.944 10.41-11.238 17.07-26.117 15.395-41.533-1.074-25.653-16.176-53.416-43.17-59.52-5.54-1.38-11.27-1.802-17.006-1.55-22.096.208-38.58 18.045-47.744 36.175-6.063 11.514-16.756 19.897-22.697 31.395-1.25 6.925 8.79 9.18 14.088 7.685 12.932-2.691 23.177-12.746 27.545-24.832 5.182-12.444 16.884-22.236 30.754-23.138 13.62-2.356 26.203 8.177 28.947 20.984 3.965 13.426 2.17 29.25-8.822 38.996-17.158 17.702-43.185 25.626-57.627 46.158-7.52 14.597-15.007 29.213-22.524 43.811-26.08-50.112-57.528-94.11-82.965-117.625-31.364 17.698-61.783 51.729-73.396 71.004l.89 2.467c-23.407-26.748-49.232-50.485-78.158-71.032-80.287 69.505-158.694 226.195-173.12 307.284-14.428 81.088.096 153.402 24.73 188.173 15.432 21.785 33.242 55.941 57.705 64.477a113.27 113.27 0 0 1 6.105-2.072c-1.854 3.206-2.48 6.63-1.611 10.285 10.645 23.108 2.25 52.826 2.25 52.826s25.514-3.483 62.804-6.166m-9.474 19.617c-6.312.783-12.647 1.54-18.826 2.479-31.809 4.835-42.258 13.356-62.664 20.08-36.013 11.867-163.076-17.531-173.067 11.611-9.99 29.143 136.775 26.506 218.52 25.606 2.94-.033 5.732-.22 8.543-.387-1.249 2.885-2.54 5.751-3.764 8.646-1.892 7.178-7.569 15.137-4.527 22.6 4.797 3.667 10.84-2.005 14.994-4.488 9.87-8.861 17.125-19.88 23.738-31.334 42.089-10.357 67.114-33.428 90.453-33.463 29.777-.045 56.943 37.506 129.367 37.63 38.86.068 243.428 4.085 232.06-26.413-11.37-30.498-140.563 10.458-183.821-11.233-22.643-11.354-29.286-14.045-58.576-18.41" class="base stroke-color" style="fill:none;stroke-width:35"/><path id="shoulders" d="M330.177 853.889c67.272-.741 99.658-38.383 129.435-38.427 29.777-.044 56.945 37.508 129.37 37.633 38.859.067 243.427 4.083 232.058-26.415-11.37-30.499-140.563 10.458-183.82-11.233-22.644-11.354-29.287-14.045-58.578-18.41-79.016-11.775-159.806-11.305-231.256-.445-31.809 4.835-42.256 13.355-62.662 20.08-36.013 11.866-163.076-17.532-173.068 11.61-9.99 29.143 136.776 26.507 218.52 25.607z" class="base stroke-color stroke-medium" style="fill:url(#shoulders-gradient)"/><path id="crown-base" d="M613.162 724.663c6.482-56.451-315.703-52.285-302.528 3.173 10.645 23.108 2.249 52.826 2.249 52.826s74.361-10.379 157.124-9.086c82.764 1.294 138.777 7.748 138.777 7.748s-2.103-38.026 4.378-54.661z" class="base stroke-color stroke-medium" style="fill:url(#crown-base-gradient)"/><path id="hat-1" d="M474.092 228.253c11.614-19.275 42.03-53.305 73.395-71.002 38.892 35.955 91.925 119.693 118.158 200.158 20.445 62.714 24.685 90.893 25.75 157.889 1.064 66.995-34.757 132.99-56.744 157.404" class="base stroke-color stroke-medium" style="fill:url(#hat-1-gradient)"/><path id="hat-2" d="M306.139 719.622c-24.463-8.535-42.273-42.69-57.705-64.475-24.634-34.772-39.157-107.085-24.73-188.174 14.426-81.089 92.833-237.78 173.12-307.284 97.852 69.505 160.956 174.584 210.757 314.6 26.651 74.93 39.88 156.928 15.417 242.895-57.08-11.585-250.366-22.573-316.86 2.438z" class="base stroke-color stroke-medium" style="fill:url(#hat-2-gradient)"/><path id="jewel" d="M468.528 751.363c-10.232-2.717-13.358 2.066-17.11-.992-4.604-3.752-4.334-19.363-1.286-23.326 2.606-3.388 36.1-3.811 39.386-.69 3.063 2.905-.09 21.818-2.928 26.603" class="base stroke-color stroke-medium" style="fill:none"/><path id="cross" d="M415.492 367.29c-12.266 1.914-18.371 15.142-16.835 26.36-.212 9.591 4.06 21.948-3.961 29.464-10.85 3.55-22.593-.896-33.649-1.825-9.102-.818-20.079-4.203-28.171 1.561-6.194 7.217 1.041 18.122 9.023 20.554 16.05 6.868 35.105 3.286 50.55 11.416 5.33 4.837 4.24 13.263 5.87 19.697 5.02 38.326 4.755 77.723 16.536 114.847 3.084 8.15 7.9 19.46 18.214 19.532 7.961-2.68 6.956-13.081 7.38-19.796-.965-42.095-12.842-83.127-14.726-125.141-.212-4.136.164-9.327 5.602-9.766 19.28-5.458 41.807.613 59.337-10.92 7.2-3.838 13.209-18.155 1.543-20.027-20.562-2.977-41.347 5.74-61.786 1.947-6.327-2.204-5.773-10.819-6.507-16.233-1.198-12.754 2.742-26.33-2.18-38.502-1.235-2.123-3.716-3.475-6.24-3.168z" class="base stroke-color stroke-medium fill-color"/><path id="top-deco-1" d="M382.343 145.744c13.395-22.377-21.179-36.654-3.094-52.283 10.156-8.777 27.531-9.655 37.286 1.73 14.066 16.414-24.414 30.654-5.481 50.335" class="base stroke-color stroke-medium" style="fill:url(#top-deco-1-gradient)"/><path id="top-deco-2" d="M531.86 141.635c13.396-22.378-21.178-36.655-3.093-52.284 10.156-8.776 27.53-9.654 37.286 1.73 14.065 16.415-24.414 30.654-5.482 50.336" class="base stroke-color stroke-medium" style="fill:url(#top-deco-2-gradient)"/><path id="stick" d="M688.533 97.641c-22.096.208-38.58 18.046-47.745 36.176-6.063 11.514-16.754 19.896-22.696 31.393-1.25 6.926 8.791 9.182 14.088 7.687 12.933-2.691 23.177-12.747 27.544-24.833 5.182-12.445 16.885-22.236 30.754-23.138 13.622-2.355 26.204 8.176 28.948 20.983 3.965 13.426 2.171 29.252-8.822 38.998-17.158 17.702-43.184 25.624-57.627 46.157-79.265 153.855-158.41 307.81-236.61 462.195-27.762 55.995-57.095 111.36-81.412 168.889-1.891 7.178-7.57 15.137-4.528 22.6 4.798 3.666 10.84-2.004 14.994-4.487 17.096-15.35 26.574-37.033 37.904-56.583 47.738-91.101 92.479-183.706 138.944-275.45 50.452-100.187 100.906-200.408 152.444-300.041 14.58-21.226 42.253-28.336 58.6-47.943 10.41-11.238 17.072-26.117 15.396-41.533-1.074-25.653-16.176-53.416-43.17-59.52-5.54-1.38-11.27-1.802-17.006-1.55z" class="base stroke-color stroke-medium fill-color"/></svg>