<svg height="700pt" viewBox="-20 0 900 900" width="700pt" xmlns="http://www.w3.org/2000/svg" xmlns:xlink="http://www.w3.org/1999/xlink"><linearGradient id="a"><stop offset="0"/><stop offset="1" stop-color="#505090"/></linearGradient><linearGradient id="g" gradientUnits="userSpaceOnUse" x1="785.141" x2="840.911" xlink:href="#a" y1="294.759" y2="363.089"/><linearGradient id="e" gradientUnits="userSpaceOnUse" x1="649.863" x2="711.117" xlink:href="#a" y1="171.18" y2="227.749"/><linearGradient id="c" gradientUnits="userSpaceOnUse" x1="406.012" x2="470.835" xlink:href="#a" y1="103.532" y2="132.994"/><linearGradient id="i" gradientUnits="userSpaceOnUse" x1="167.872" x2="234.62" xlink:href="#a" y1="174.997" y2="174.997"/><linearGradient id="k" gradientUnits="userSpaceOnUse" x1="23.458" x2="87.371" xlink:href="#a" y1="337.855" y2="315.463"/><linearGradient id="j" gradientUnits="userSpaceOnUse" x1="339.471" x2="514.54" xlink:href="#a" y1="530.606" y2="571.593"/><linearGradient id="d" gradientUnits="userSpaceOnUse" x1="339.471" x2="495.022" xlink:href="#a" y1="530.606" y2="584.758"/><linearGradient id="f" gradientUnits="userSpaceOnUse" x1="339.471" x2="487.215" xlink:href="#a" y1="530.606" y2="584.758"/><linearGradient id="h" gradientUnits="userSpaceOnUse" x1="339.471" x2="498.926" xlink:href="#a" y1="530.606" y2="584.758"/><linearGradient id="l" gradientUnits="userSpaceOnUse" x1="339.471" x2="510.637" xlink:href="#a" y1="530.606" y2="584.758"/><linearGradient id="b" gradientUnits="userSpaceOnUse" x1="153.604" x2="761.364" xlink:href="#a" y1="380.54" y2="682.207"/><g fill-rule="evenodd"><path d="M243.935 824.89l-50.378-166.212 433.768 1.318-49.519 169.681z" fill="url(#b)"/><g stroke="gray" stroke-linecap="round" stroke-linejoin="round"><g stroke-width="16"><g fill="url(#b)"><path d="M612.713 716.28c-122.2-43.669-283.406-43.923-402.394-.104 12.585 30.53 15.919 92.998 15.919 92.998 100.719-28.173 271.954-27.317 371.885 4.188 0 0 2.31-66.707 14.59-97.082z"/><path d="M195.104 697.915c121.85-52.686 312.58-53.52 435.577.41C642.807 593.29 681.03 463.63 753.364 370.627c-54.848 21.462-134.48 158.863-180.775 184.758-36.304-76.263 35.544-274.204 63.478-316.129-46.899 28.219-146.147 203.016-175.47 284.785-42.265-94.445-32.372-271.082-33.383-345.108-31.796 69.553-73.518 229.373-77.788 342.314-81.193-60.864-109.846-225.27-131.501-290.406-11.924 93.798 8.884 257.173 22.623 323.227-52.792-35.593-114.44-113.92-165.611-180.305 65.06 155.574 88.608 202.693 120.167 324.153zm212.659 1.867c-18.998-.098-8.585 14.635-12.318 21.115-8.538 4.949-36.246-3.832-27.327 14.34 6.319 12.874 15.766 6.813 26.377 10.961 5.276 7.267-3.643 29.366 15.037 28.903 15.427-.383 7.018-22.431 10.316-28.372 9.326-6.094 21.562 2.165 27.734-13.452 4.686-11.856-18.512-7.458-27.673-12.564-3.837-5.731 7.62-20.828-12.146-20.931zm-163.19 125.491c88.823 10.599 232.722 14.36 332.958 4.407-56.568-25.281-259.89-25.068-332.958-4.407z"/></g><path d="M474.62 82.518c-8.56.188-34.943 4.62-50.798 12.528-4.81 12.11-2.312 47.606.131 76.64 15.185-24.37 48.737-66.254 50.667-89.168z" fill="url(#c)"/></g><path d="M440.763 530.606a45.962 44.783 0 1 1-91.924 0 45.962 44.783 0 1 1 91.924 0z" fill="url(#d)" stroke-width="18.737" transform="translate(87.235 -271.506) scale(.85393)"/><path d="M714.902 206.005c-4.717-5.653-1.71-16-40.003-37.055l-48.856 61.029c27.41-8.55 70.764-21.46 88.86-23.974z" fill="url(#e)" stroke-width="16"/><path d="M440.763 530.606a45.962 44.783 0 1 1-91.924 0 45.962 44.783 0 1 1 91.924 0z" fill="url(#f)" stroke-width="18.737" transform="translate(295.235 -211.506) scale(.85393)"/><path d="M845.56 351.891c2.674-13.827-12.17-18.268-26.411-37.324-19.836 8.122-42.817 17.81-59.006 40.522 40.867-8.428 59.444 4.058 85.417-3.198z" fill="url(#g)" stroke-width="16"/><path d="M440.763 530.606a45.962 44.783 0 1 1-91.924 0 45.962 44.783 0 1 1 91.924 0z" fill="url(#h)" stroke-width="18.737" transform="translate(417.85 -85.749) scale(.85393)"/><path d="M226.62 154.518c-10.56-11.812-22.893-10.117-50.748-14.208.972 33.726 21.104 43.135 33.081 69.375 15.185-24.37 12.737-25.253 17.667-55.167z" fill="url(#i)" stroke-width="16"/><path d="M440.763 530.606a45.962 44.783 0 1 1-91.924 0 45.962 44.783 0 1 1 91.924 0z" fill="url(#j)" stroke-width="18.737" transform="translate(-123.765 -219.506) scale(.85393)"/><path d="M50.263 289.782c-13.447 2.8-14.585 30.312-18.805 44.426 15.057 16.595 30.367 26.05 43.52 51.72 14.065-25.033-8.759-76.936-24.715-96.146z" fill="url(#k)" stroke-width="16"/><path d="M440.763 530.606a45.962 44.783 0 1 1-91.924 0 45.962 44.783 0 1 1 91.924 0z" fill="url(#l)" stroke-width="18.737" transform="translate(-249.108 -68.92) scale(.85393)"/></g></g></svg>