<svg xmlns="http://www.w3.org/2000/svg" xmlns:xlink="http://www.w3.org/1999/xlink" width="700pt" height="700pt" viewBox="-20 0 900 900" version="1"><defs><linearGradient id="a"><stop offset="0" stop-color="#fff"/><stop offset="1" stop-color="#d0b090"/></linearGradient><linearGradient xlink:href="#a" id="b" x1="297.554" y1="427.05" x2="368.562" y2="521.216" gradientUnits="userSpaceOnUse"/><linearGradient xlink:href="#a" id="c" x1="495.296" y1="448.547" x2="595.971" y2="528.547" gradientUnits="userSpaceOnUse"/><linearGradient xlink:href="#a" id="i" x1="221.551" y1="774.937" x2="633.491" y2="859.351" gradientUnits="userSpaceOnUse"/><linearGradient xlink:href="#a" id="d" x1="342.53" y1="145.674" x2="549.848" y2="282.341" gradientUnits="userSpaceOnUse"/><linearGradient xlink:href="#a" id="e" gradientUnits="userSpaceOnUse" x1="342.53" y1="145.674" x2="609.848" y2="280.674"/><linearGradient xlink:href="#a" id="f" x1="379.197" y1="160.253" x2="579.848" y2="286.919" gradientUnits="userSpaceOnUse"/><linearGradient xlink:href="#a" id="g" x1="368.469" y1="319.275" x2="494.551" y2="319.275" gradientUnits="userSpaceOnUse"/><linearGradient xlink:href="#a" id="h" x1="129.962" y1="428.659" x2="812.369" y2="836.313" gradientUnits="userSpaceOnUse"/></defs><g><path d="M288.635 612.485c23.192-33.51-7.05-125.84.018-168.052 11.473-68.508 101.49-114.49 113.505-74.77 14.253 47.115-43.612 51.562-59.712 90.892-14.788 36.126-11.624 96.483 17.166 132.81" fill="url(#b)" fill-rule="evenodd" stroke="#000" stroke-width="16" stroke-linecap="round" stroke-linejoin="round"/><path d="M586.89 617.316c-23.192-33.51 7.052-125.84-.018-168.052-11.473-68.508-101.49-114.49-113.505-74.77-14.253 47.115 43.612 51.562 59.712 90.892 14.787 36.126 11.623 96.483-17.167 132.81" fill="url(#c)" fill-rule="evenodd" stroke="#000" stroke-width="16" stroke-linecap="round" stroke-linejoin="round"/><g fill="url(#d)"><g fill="url(#e)" fill-rule="evenodd" stroke="#000" stroke-width="16" stroke-linecap="round" stroke-linejoin="round"><path d="M401.217 288.115c5.257-15 18.904-70.925 13.916-87.4-22.314-1.766-68.935 18.702-99.152 12.145-8.51-15.386-13.823-48.494-1.6-66.668 27.357-8.324 87.732 6.27 104.42 8.505 5.916-16.853-14.494-67.638-10.54-86.027 18.75-8.963 65.314-8.077 79.153 1.034-.705 19.314-28.895 66.225-29.58 82.264 18.785-.963 77.295-16.875 97.27-12.99 8.615 16.712 10.485 46.566-3.415 65.647-21.295 7.093-77.675-8.93-101.167-4.27-9.898 19.967 5.492 71.523 9.28 86.605" fill="url(#f)"/><path d="M408.41 371.832c-24.735-21.418-35.634-21.596-30.833-75.206 4.1-45.78 106.257-43.42 108.634-1.99 2.982 51.946-14.29 55.836-26.298 80.988" fill="url(#g)"/></g></g><g fill="url(#h)" fill-rule="evenodd" stroke-width="16"><path d="M270.962 830.3l-63.975-196.244 471.233-2.067-74.89 204.323-332.368-6.014z"/><path d="M643.456 717.11c-93.676-48.015-307.14-50.27-407.606 1.875 14.074 44.473 19.704 93.973 19.704 93.973 91.666-28.464 277.873-29.6 367.873 4.143 0 0 9.28-66.68 20.03-99.99z" stroke="#000" stroke-linecap="round" stroke-linejoin="round"/><path d="M553.53 574.03c-28.76-15.546-89.17-53.538-121.963-54.894-25.066-1.037-76.806 32.48-103.41 53.083-115.274-52.468-113.896-152.893-33.25-171.314 13.134-3 52.23.464 78.062-.72-8.227-22.714-17.193-38.822-8.69-69.06-18.227-11.733-42.487-20.145-70.124-21.782-8.25-.49-16.63-.697-25.03-.594-81.202 1-165.452 30.536-177.407 105.25-17.45 109.048 79.09 173.315 113.843 288.656 110.307-62.908 364.664-58.902 470.343-4.53 28.048-89.163 139.85-193.362 114.844-284.25-23.158-84.17-135.742-108.802-210.03-104.595-30.11 1.707-59.014 11.454-80.72 24.845 4.202 23.97-4.315 43.57-11.375 64.28 34.345.016 94.602-7.97 118.25 5.408 52.23 29.546 56.212 135.896-53.344 170.218z" stroke="#000" stroke-linecap="round" stroke-linejoin="round"/><path d="M328.488 572.528c37.995-26.678 55.998-79.66 54.48-122.435-2.192-61.676-35.18-72.426-16.34-126.414 12.773-36.608 119.162-38.49 131.178 1.23 14.253 47.115-22.343 76.448-16.638 124.144 6.654 55.64 7.067 92.523 72.294 126.573" stroke="#000" stroke-linecap="round" stroke-linejoin="round"/></g><path d="M275.69 832.678c87.866 10.484 228.213 12.205 327.368 2.36-68.597-27.98-256.555-27.677-327.367-2.36z" fill="url(#i)" fill-rule="evenodd" stroke="#000" stroke-width="16" stroke-linecap="round" stroke-linejoin="round"/><path d="M453.622 737.035a16.908 16.103 0 1 1-33.817 0 16.908 16.103 0 1 1 33.817 0z" fill="#fff" fill-rule="evenodd" stroke="#000" stroke-width="15.456.56" stroke-linecap="round" stroke-linejoin="round"/><path d="M815 915a17.5 16.667 0 1 1-35 0 17.5 16.667 0 1 1 35 0z" transform="matrix(1.063 -.192 .129 .713 -628.072 249.549)" fill="#fff" fill-rule="evenodd" stroke="#000" stroke-width="18.087" stroke-linecap="round" stroke-linejoin="round"/><path transform="matrix(1.039 .169 -.116 .715 -188.652 -40.445)" d="M815 915a17.5 16.667 0 1 1-35 0 17.5 16.667 0 1 1 35 0z" fill="#fff" fill-rule="evenodd" stroke="#000" stroke-width="18.32" stroke-linecap="round" stroke-linejoin="round"/></g></svg>