<svg xmlns="http://www.w3.org/2000/svg" xmlns:xlink="http://www.w3.org/1999/xlink" id="king" version="1.0" viewBox="0 0 933.33 933.33"><style id="style-base">.base{fill-opacity:1;fill-rule:evenodd;stroke-miterlimit:4;stroke-dasharray:none;stroke-linecap:round;stroke-linejoin:round;stroke-opacity:1}.stroke-medium{stroke-width:20}.stroke-color{stroke:#000}.fill-color{fill:#fff}</style><defs id="defs36222"><linearGradient id="fillGradient"><stop id="stop0" offset="0" stop-color="#fff" stop-opacity="1"/><stop id="stop1" offset="1" stop-color="#bfd3d7" stop-opacity="1"/></linearGradient><linearGradient xlink:href="#fillGradient" id="linearGradient2272" x1="297.55" x2="368.56" y1="427.05" y2="521.22" gradientTransform="translate(19.7 .05) scale(1.02329)" gradientUnits="userSpaceOnUse"/><linearGradient xlink:href="#fillGradient" id="linearGradient2274" x1="495.3" x2="595.97" y1="448.55" y2="528.55" gradientTransform="translate(19.7 .05) scale(1.02329)" gradientUnits="userSpaceOnUse"/><linearGradient xlink:href="#fillGradient" id="base-gradient" x1="221.55" x2="633.49" y1="774.94" y2="859.35" gradientTransform="translate(19.7 .05) scale(1.02329)" gradientUnits="userSpaceOnUse"/><linearGradient xlink:href="#fillGradient" id="linearGradient2476" x1="342.53" x2="549.85" y1="145.67" y2="282.34" gradientUnits="userSpaceOnUse"/><linearGradient xlink:href="#fillGradient" id="cross-gradient" x1="379.2" x2="579.85" y1="160.25" y2="286.92" gradientTransform="translate(19.7 .05) scale(1.02329)" gradientUnits="userSpaceOnUse"/><linearGradient xlink:href="#fillGradient" id="top-base-gradient" x1="368.47" x2="494.55" y1="319.27" y2="319.27" gradientTransform="translate(19.7 .05) scale(1.02329)" gradientUnits="userSpaceOnUse"/><linearGradient xlink:href="#fillGradient" id="crown-lower-gradient" x1="129.96" x2="812.37" y1="428.66" y2="836.31" gradientTransform="translate(19.7 .05) scale(1.02329)" gradientUnits="userSpaceOnUse"/><linearGradient xlink:href="#fillGradient" id="background-gradient" x1="129.96" x2="812.37" y1="428.66" y2="836.31" gradientTransform="translate(19.7 .05) scale(1.02329)" gradientUnits="userSpaceOnUse"/><linearGradient xlink:href="#fillGradient" id="bar1and5-gradient" x1="129.96" x2="812.37" y1="428.66" y2="836.31" gradientTransform="translate(19.7 .05) scale(1.02329)" gradientUnits="userSpaceOnUse"/><linearGradient xlink:href="#fillGradient" id="bar3-gradient" x1="129.96" x2="812.37" y1="428.66" y2="836.31" gradientTransform="translate(19.7 .05) scale(1.02329)" gradientUnits="userSpaceOnUse"/><linearGradient xlink:href="#fillGradient" id="linearGradient598" x1="129.96" x2="812.37" y1="428.66" y2="836.31" gradientUnits="userSpaceOnUse"/></defs><path id="boundary" fill="none" stroke-width="35" d="M479.86 63.92c-16.08-.25-32.8 1.82-42.39 6.4-4.04 18.82 16.84 70.79 10.79 88.03-17.08-2.29-78.86-17.22-106.85-8.7-12.51 18.6-7.07 52.47 1.63 68.22 30.92 6.7 78.63-14.24 101.47-12.43 3.63 12-2.39 44.22-8.1 67.46-16.25 5-28.93 15.03-30.34 30.68a290.4 290.4 0 0 0-.93 14.46c-4.83 3.76-8.5 8.14-10.27 13.23a127.09 127.09 0 0 0-2.52 8.1l.12-.48c-18.65-12-43.48-20.62-71.76-22.29-8.44-.5-17.02-.71-25.61-.6C212 317 125.8 347.23 113.56 423.7 95.7 535.27 194.5 601.03 230.06 719.06c112.87-64.37 373.15-60.27 481.3-4.64 28.7-91.23 143.1-197.86 117.51-290.87-23.7-86.13-138.9-111.33-214.92-107.03-30.81 1.75-60.39 11.72-82.6 25.43l.03.21a80.28 80.28 0 0 0-2.28-9.64c-1.86-6.15-5.96-11.31-11.57-15.54.11-4.65.04-9.75-.3-15.44-.86-15.16-14.85-25.1-32.57-29.61-5.36-22.14-11.09-52.46-3.94-66.87 24.04-4.76 81.73 11.63 103.52 4.37 14.22-19.52 12.31-50.07 3.5-67.17-20.45-3.98-80.32 12.3-99.54 13.29.7-16.41 29.55-64.42 30.27-84.18-7.08-4.66-22.53-7.22-38.61-7.46zm113.1 341.52c19.46.15 37.21 1.87 47.75 7.83 49.02 27.73 56.43 121.52-29.14 163.98 2.2-40.6 13.33-89.65 8.67-117.47-3.46-20.68-13.94-39.33-27.28-54.34zm-257.6 3.64c-9.92 13.32-17.45 28.85-20.28 45.76-4.5 26.84 5.74 73.47 8.45 113.17-84.82-55.96-76.27-140.76-2.05-157.72 3.25-.74 8.1-1.08 13.89-1.21zm179.18 16.03c15.47 15.64 40.75 26.97 50.66 51.17 10.9 26.63 12.2 66.1 1.1 100.02-2.22-1.26-4.87-2.7-7.2-4.01-40.07-30.45-41.29-64.79-47.02-112.73-1.5-12.51-.13-23.78 2.46-34.45zm-106.71 6.18c1.93 8.5 3.36 18.06 3.76 29.34 1.35 38.1-12.44 84.08-41.67 113.37-12.07-34.48-10.98-75.34.2-102.67 7.46-18.2 23.55-29.1 37.7-40.04zm64.37 265.1c-79.44-.05-159.75 12.71-211.15 39.39 14.4 45.5 20.16 96.16 20.16 96.16 93.8-29.12 284.35-30.29 376.44 4.24 0 0 9.5-68.23 20.5-102.32-47.93-24.57-126.5-37.43-205.95-37.48zm-2.04 136.49c-65.91-.27-132.11 6.29-168.34 19.24 89.9 10.73 233.52 12.5 334.99 2.41-35.1-14.31-100.73-21.4-166.65-21.65z" class="base stroke-color"/><path id="bar2" fill="url(#linearGradient2272)" d="M315.06 626.8c23.73-34.29-7.21-128.77.02-171.97 11.74-70.1 103.85-117.15 116.15-76.5 14.58 48.2-44.63 52.76-61.1 93-15.14 36.97-11.9 98.73 17.56 135.9" class="base stroke-color stroke-medium"/><path id="bar4" fill="url(#linearGradient2274)" d="M620.26 631.74c-23.73-34.29 7.22-128.77-.02-171.96-11.74-70.1-103.85-117.16-116.14-76.51-14.59 48.2 44.62 52.76 61.1 93 15.13 36.97 11.9 98.74-17.57 135.9" class="base stroke-color stroke-medium"/><path id="cross" fill="url(#cross-gradient)" d="M430.27 294.88c5.38-15.35 19.34-72.58 14.24-89.44-22.84-1.8-70.54 19.14-101.46 12.43-8.71-15.75-14.15-49.62-1.64-68.22 28-8.52 89.77 6.41 106.85 8.7 6.05-17.24-14.83-69.21-10.79-88.03 19.19-9.17 66.84-8.26 81 1.06-.72 19.76-29.57 67.77-30.27 84.18 19.22-.99 79.1-17.27 99.53-13.3 8.82 17.1 10.73 47.66-3.49 67.18-21.79 7.26-79.48-9.13-103.52-4.37-10.13 20.44 5.62 73.2 9.5 88.63" class="base stroke-color stroke-medium"/><path id="top-base" fill="url(#top-base-gradient)" d="M437.63 380.54c-25.32-21.91-36.47-22.1-31.55-76.95 4.2-46.85 108.73-44.43 111.16-2.04 3.05 53.15-14.62 57.14-26.91 82.87" class="base stroke-color stroke-medium"/><path id="background" fill="url(#background-gradient)" d="M296.98 849.69 231.5 648.87l482.2-2.11-76.63 209.08Z" class="base stroke-color stroke-medium"/><path id="bar1and5" fill="url(#bar1and5-gradient)" d="M586.13 587.45c-29.43-15.9-91.25-54.79-124.8-56.17-25.66-1.06-78.6 33.23-105.83 54.32-117.95-53.7-116.54-156.46-34.02-175.3 13.44-3.08 53.45.47 79.88-.74-8.42-23.25-17.6-39.73-8.89-70.67-18.65-12-43.48-20.61-71.76-22.3-8.44-.5-17.02-.7-25.61-.6-83.1 1.03-169.3 31.25-181.54 107.7-17.86 111.6 80.94 177.35 116.5 295.38 112.87-64.37 373.15-60.27 481.3-4.64 28.7-91.23 143.1-197.86 117.51-290.87-23.7-86.13-138.9-111.33-214.92-107.03-30.81 1.75-60.39 11.72-82.6 25.43 4.3 24.53-4.42 44.58-11.64 65.78 35.14.01 96.8-8.16 121 5.53 53.45 30.23 57.52 139.06-54.58 174.18z" class="base stroke-color stroke-medium"/><path id="bar3" fill="url(#bar3-gradient)" d="M355.84 585.91c38.88-27.3 57.3-81.51 55.75-125.28-2.24-63.11-36-74.12-16.72-129.36 13.07-37.46 121.94-39.39 134.23 1.26 14.59 48.21-22.86 78.23-17.02 127.03 6.8 56.94 7.23 94.68 73.98 129.52" class="base stroke-color stroke-medium"/><path id="crown-lower" fill="url(#crown-lower-gradient)" d="M678.15 733.86c-95.86-49.13-314.3-51.44-417.1 1.92 14.4 45.5 20.16 96.16 20.16 96.16 93.8-29.13 284.34-30.29 376.44 4.24 0 0 9.5-68.23 20.5-102.32z" class="base stroke-color stroke-medium"/><path id="base" fill="url(#base-gradient)" d="M301.82 852.12c89.9 10.73 233.52 12.49 334.99 2.42-70.2-28.64-262.53-28.32-335-2.42z" class="base stroke-color stroke-medium"/><path id="jewel-center" d="M466.59 737.77a17.3 16.48 0 0 0-17.3 16.48 17.3 16.48 0 0 0 17.3 16.48 17.3 16.48 0 0 0 17.3-16.48 17.3 16.48 0 0 0-17.3-16.48z" class="base stroke-color stroke-medium fill-color"/><path id="jewel-right" d="M562.95 753.43a18.85 12.36 9.22 0 0-15.7 9.54 18.85 12.36 9.22 0 0 16.63 15.22 18.85 12.36 9.22 0 0 20.58-9.18 18.85 12.36 9.22 0 0-16.62-15.22 18.85 12.36 9.22 0 0-4.89-.36z" class="base stroke-color stroke-medium fill-color"/><path id="jewel-left" d="M367.89 753.35a12.36 19.34 79.73 0 0-5 .48 12.36 19.34 79.73 0 0-16.83 15.6 12.36 19.34 79.73 0 0 21.23 8.72 12.36 19.34 79.73 0 0 16.83-15.6 12.36 19.34 79.73 0 0-16.23-9.2z" class="base stroke-color stroke-medium fill-color"/></svg>