<svg height="700pt" viewBox="-20 0 900 900" width="700pt" xmlns="http://www.w3.org/2000/svg" xmlns:xlink="http://www.w3.org/1999/xlink"><linearGradient id="a"><stop offset="0" stop-color="#fff"/><stop offset="1" stop-color="#d0b090"/></linearGradient><linearGradient id="b" gradientUnits="userSpaceOnUse" x1="297.554" x2="368.562" xlink:href="#a" y1="427.05" y2="521.216"/><linearGradient id="c" gradientUnits="userSpaceOnUse" x1="495.296" x2="595.971" xlink:href="#a" y1="448.547" y2="528.547"/><linearGradient id="d" gradientUnits="userSpaceOnUse" x1="221.551" x2="633.491" xlink:href="#a" y1="774.937" y2="859.351"/><linearGradient id="e" gradientUnits="userSpaceOnUse" x1="342.53" x2="609.848" xlink:href="#a" y1="145.674" y2="280.674"/><linearGradient id="f" gradientUnits="userSpaceOnUse" x1="379.197" x2="579.848" xlink:href="#a" y1="160.253" y2="286.919"/><linearGradient id="g" gradientUnits="userSpaceOnUse" x1="368.469" x2="494.551" xlink:href="#a" y1="319.275" y2="319.275"/><linearGradient id="h" gradientUnits="userSpaceOnUse" x1="129.962" x2="812.369" xlink:href="#a" y1="428.659" y2="836.313"/><g fill-rule="evenodd"><g stroke="#000" stroke-linecap="round" stroke-linejoin="round" stroke-width="16"><path d="m288.635 612.485c23.192-33.51-7.051-125.839.018-168.052 11.473-68.508 101.49-114.49 113.505-74.771 14.253 47.116-43.612 51.563-59.712 90.893-14.788 36.126-11.624 96.483 17.166 132.81" fill="url(#b)"/><path d="m586.89 617.316c-23.192-33.51 7.052-125.839-.018-168.052-11.473-68.508-101.49-114.49-113.505-74.771-14.253 47.116 43.612 51.563 59.712 90.893 14.788 36.126 11.624 96.483-17.166 132.81" fill="url(#c)"/><g fill="url(#e)"><path d="m401.217 288.115c5.257-15 18.904-70.925 13.916-87.4-22.314-1.766-68.935 18.702-99.152 12.145-8.51-15.386-13.824-48.494-1.6-66.668 27.356-8.324 87.731 6.269 104.42 8.505 5.915-16.853-14.495-67.638-10.541-86.027 18.75-8.963 65.314-8.077 79.153 1.034-.705 19.314-28.895 66.225-29.579 82.264 18.784-.963 77.294-16.875 97.268-12.989 8.616 16.71 10.486 46.565-3.414 65.646-21.295 7.093-77.675-8.93-101.167-4.27-9.9 19.967 5.491 71.523 9.278 86.605" fill="url(#f)"/><path d="m408.41 371.832c-24.735-21.418-35.634-21.596-30.833-75.206 4.1-45.781 106.257-43.42 108.634-1.991 2.981 51.947-14.29 55.837-26.3 80.99" fill="url(#g)"/></g></g><g fill="url(#h)"><path d="m270.962 830.3-63.975-196.244 471.233-2.067-74.89 204.324z"/><g stroke="#000" stroke-linecap="round" stroke-linejoin="round" stroke-width="16"><path d="m643.456 717.11c-93.676-48.015-307.139-50.27-407.606 1.875 14.074 44.473 19.704 93.973 19.704 93.973 91.666-28.464 277.873-29.6 367.873 4.143 0 0 9.28-66.68 20.03-99.992z"/><path d="m553.531 574.031c-28.76-15.547-89.17-53.54-121.964-54.895-25.066-1.037-76.806 32.479-103.41 53.083-115.274-52.467-113.896-152.892-33.25-171.313 13.134-3 52.23.464 78.062-.719-8.226-22.715-17.192-38.823-8.688-69.062-18.228-11.732-42.488-20.144-70.125-21.781a351.023 351.023 0 0 0 -25.031-.594c-81.201 1-165.451 30.536-177.406 105.25-17.449 109.048 79.091 173.315 113.844 288.656 110.307-62.908 364.664-58.902 470.343-4.531 28.048-89.162 139.851-193.36 114.844-284.25-23.158-84.17-135.742-108.801-210.031-104.594-30.109 1.706-59.013 11.453-80.719 24.844 4.202 23.971-4.315 43.57-11.375 64.281 34.345.015 94.602-7.972 118.25 5.406 52.23 29.547 56.212 135.897-53.344 170.22z"/><path d="m328.488 572.528c37.995-26.678 55.998-79.661 54.479-122.435-2.191-61.676-35.18-72.426-16.34-126.414 12.774-36.607 119.163-38.489 131.179 1.23 14.253 47.116-22.343 76.45-16.638 124.145 6.654 55.64 7.067 92.523 72.294 126.573"/></g></g><g stroke="#000" stroke-linecap="round" stroke-linejoin="round"><path d="m275.691 832.678c87.865 10.484 228.212 12.205 327.367 2.36-68.597-27.98-256.555-27.677-327.367-2.36z" fill="url(#d)" stroke-width="16"/><g fill="#fff"><path d="m453.622 737.035a16.908 16.103 0 1 1 -33.817 0 16.908 16.103 0 1 1 33.817 0z" stroke-width="16"/><path d="m815 915a17.5 16.667 0 1 1 -35 0 17.5 16.667 0 1 1 35 0z" stroke-width="18.087" transform="matrix(1.06262 -.19244 .12913 .71304 -628.072 249.549)"/><path d="m815 915a17.5 16.667 0 1 1 -35 0 17.5 16.667 0 1 1 35 0z" stroke-width="18.32" transform="matrix(1.03898 .16861 -.11608 .71528 -188.652 -40.445)"/></g></g></g></svg>