<svg xmlns="http://www.w3.org/2000/svg" xmlns:xlink="http://www.w3.org/1999/xlink" id="knight" version="1.0" viewBox="0 0 933.33 933.33"><style id="base">.base{fill-opacity:1;fill-rule:evenodd;stroke-miterlimit:4;stroke-dasharray:none;stroke-linecap:round;stroke-linejoin:round;stroke-opacity:1}.stroke-medium{stroke-width:20}.stroke-color{stroke:#000}</style><defs id="defs36222"><linearGradient id="fillGradient"><stop id="stop0" offset="0" stop-color="#fff" stop-opacity="1"/><stop id="stop1" offset="1" stop-color="#bfd3d7" stop-opacity="1"/></linearGradient><linearGradient xlink:href="#fillGradient" id="hair4-gradient" x1="705.29" x2="787.13" y1="378.29" y2="465.62" gradientTransform="translate(7.03 14.37) scale(1.03317)" gradientUnits="userSpaceOnUse"/><linearGradient xlink:href="#fillGradient" id="hair3-gradient" x1="667.03" x2="739.15" y1="299.33" y2="348.42" gradientTransform="translate(11.16 14.37) scale(1.03317)" gradientUnits="userSpaceOnUse"/><linearGradient xlink:href="#fillGradient" id="hair2-gradient" x1="598.68" x2="705.53" y1="209.76" y2="232.29" gradientTransform="translate(7.03 14.37) scale(1.03317)" gradientUnits="userSpaceOnUse"/><linearGradient xlink:href="#fillGradient" id="hair1-gradient" x1="493.79" x2="625.85" y1="157.91" y2="159.49" gradientTransform="translate(11.16 8.17) scale(1.03317)" gradientUnits="userSpaceOnUse"/><linearGradient xlink:href="#fillGradient" id="body-gradient" x1="265.65" x2="753.21" y1="255.94" y2="854.33" gradientTransform="translate(7.03 14.37) scale(1.03317)" gradientUnits="userSpaceOnUse"/></defs><path id="boundary" fill="none" stroke-width="35" d="M392.06 80.14c-18.36-3-11.42 61.28-21.76 85.2-17.72-16.27-32.58-55.02-71.12-61.9-9.76 32.5 17.09 82.29 6.86 95.1-54.43 68.26-43.29 69.9-71.7 145.17-14.11 37.42-50.6 102.3-86.53 144.44-34.5 40.45-39.45 90.11-23.43 107.38 33.01 35.59 72.53 20.25 92.67-3.13-6.86 14.01-12.93 31.98-4.28 38.68 20.07 15.53 145.3-98.02 159.1-92.74 90.13 34.42 181.5-33.94 181.28-112.96 2.6 58.75-8.3 98.14-67.92 138.21-58.04 39.02-176.52 117.76-204.58 230.25-5.88 23.58 8.24 63.05 38.75 63.54 125.9 2 275.79 2.53 400.98.2 101.42-1.87 104.4-582.63-258.52-694.3-30.3-24.46-51.43-80.14-69.8-83.14Zm237.78 99.9c18.83 1.19-51.66-28.11-60.85-39.83-3.99-5.09-15.8-6.83-29.74-6.7-30.68.26-71.73 9.56-62.7 12.2m227.08 126.66c15.36 9.78 30.78-29.67 21-29.67-14.7 0-39.67 6.9-35.15-9.7 4.96-18.23-17.98-23.86-41.15-24.18-23.16-.3-46.56 4.7-42.53 7.77m161.56 163.73c22 7.32-1.02-18.93-12.12-32.43s7.58-19.55 6.28-28.11c-3.17-20.71-37.87-24.1-58.33-23.88m72.27 181.67c7.77 15.35 39.03 13.35 52.5 8.84 18.16-6.07-43.9-24.93-29.92-53.67 7.75-15.92-43.91-31.7-55.05-32.1" class="base stroke-color"/><path id="body" fill="url(#body-gradient)" d="M553.15 425.38c.22 79.03-91.15 147.38-181.28 112.95-13.8-5.27-139.03 108.28-159.1 92.75-15.83-12.26 17.55-62.79 15.12-56.33-11.55 30.73-62.56 64.93-103.51 20.78-16.02-17.27-11.07-66.93 23.43-107.38 35.93-42.13 72.42-107.01 86.54-144.43 28.4-75.27 17.26-76.91 71.69-145.17 10.23-12.82-16.62-62.6-6.86-95.1 38.54 6.87 53.4 45.63 71.13 61.89 10.33-23.92 3.39-88.2 21.75-85.2 18.37 3 39.5 58.68 69.8 83.13C824.77 274.95 821.8 855.71 720.38 857.6c-125.2 2.32-275.07 1.8-400.98-.21-30.5-.49-44.63-39.96-38.74-63.54 28.05-112.5 146.53-191.23 204.57-230.25 59.61-40.07 70.53-79.46 67.92-138.21z" class="base stroke-color stroke-medium"/><path id="eyebrow" fill="none" d="M363.48 314.1c-30.04-5.55-56.38 3.17-78.13 24.82" class="base stroke-color stroke-medium"/><path id="eye" fill="none" d="M315.06 346.85c10.79 11 24.52 11.45 26.78-7.23" class="base stroke-color stroke-medium"/><path id="nose" fill="none" d="M162.8 545.72c-14.31-4.94-24.67 18.12-15.54 19.06" class="base stroke-color stroke-medium"/><path id="cheek1" fill="none" d="m334.42 500.28 9.8 12.18" class="base stroke-color stroke-medium"/><path id="cheek2" fill="none" d="m553.32 391.72.3-25.74" class="base stroke-color stroke-medium"/><path id="ear-right" fill="none" d="m343.72 178.28-10.45 5.46" class="base stroke-color stroke-medium"/><path id="ear-left" fill="none" d="M398.88 122.72c31.15 43.52 42.4 52.32 5.36 46.08" class="base stroke-color stroke-medium"/><path id="leg-line" fill="none" d="m459.7 763.94-26.63 63.53" class="base stroke-color stroke-medium"/><path id="hair1" fill="url(#hair1-gradient)" d="M476.55 145.72c89.44 26.22 74.35 7.3 93.22 38.01 10.57 17.21 25.21-5.86 60.07-3.68 18.83 1.18-51.66-28.13-60.85-39.84-12.76-16.27-105.57 1.66-92.44 5.5z" class="base stroke-color stroke-medium"/><path id="hair2" fill="url(#hair2-gradient)" d="M605.8 216.59c28.1 21.35 48.68-.34 47.57 36.72-.77 25.45 33.58 8.45 50.26 19.06 15.37 9.78 30.78-29.67 21-29.67-14.7 0-39.67 6.9-35.15-9.7 9.91-36.45-91.75-22.55-83.68-16.41z" class="base stroke-color stroke-medium"/><path id="hair3" fill="url(#hair3-gradient)" d="M688.43 297.17c5.47 1.91 35.26 22.07 33.88 31.66-7.11 49.46 29.36 46.26 45.05 51.49 22 7.32-1.02-18.93-12.12-32.43s7.58-19.55 6.28-28.11c-4.6-30.13-75.94-23.61-73.08-22.61z" class="base stroke-color stroke-medium"/><path id="hair4" fill="url(#hair4-gradient)" d="M740.98 401.45c5.23 9.1 17.48 19.43 21.36 33.72 3.89 14.3 5.35 27.04 13.12 42.4 7.77 15.35 39.02 13.35 52.5 8.84 18.16-6.07-43.9-24.92-29.92-53.67 8.85-18.2-59.88-36.21-57.06-31.3z" class="base stroke-color stroke-medium"/></svg>