<svg xmlns="http://www.w3.org/2000/svg" xmlns:xlink="http://www.w3.org/1999/xlink" id="pawn" version="1.0" viewBox="0 0 933.33 933.33"><style id="style-base">.base{fill-opacity:1;fill-rule:evenodd;stroke-miterlimit:4;stroke-dasharray:none;stroke-linecap:round;stroke-linejoin:round;stroke-opacity:1}.stroke-medium{stroke-width:20}.stroke-color{stroke:#000}</style><defs id="defs36222"><linearGradient id="fillGradient"><stop id="stop0" offset="0" stop-color="#fff" stop-opacity="1"/><stop id="stop1" offset="1" stop-color="#bfd3d7" stop-opacity="1"/></linearGradient><linearGradient xlink:href="#fillGradient" id="head-gradient" x1="586.53" x2="1126.02" y1="328.04" y2="534.2" gradientTransform="matrix(.73447 0 0 .736 -84.66 58.44)" gradientUnits="userSpaceOnUse"/><linearGradient xlink:href="#fillGradient" id="shoulders-gradient" x1="275.24" x2="862.65" y1="458.66" y2="560.75" gradientTransform="translate(36 28)" gradientUnits="userSpaceOnUse"/><linearGradient xlink:href="#fillGradient" id="pawn-body-gradient" x1="300.27" x2="774.05" y1="623.78" y2="764.9" gradientTransform="translate(36 28)" gradientUnits="userSpaceOnUse"/></defs><path id="boundary" fill="none" stroke-width="35" d="M473.54 222.8a122.41 110.4 0 0 0-122.41 110.4 122.41 110.4 0 0 0 122.4 110.4 122.41 110.4 0 0 0 122.42-110.4 122.41 110.4 0 0 0-122.41-110.4Zm-3.72 223.77c-30.33.31-58.7 5.23-93.47 14.16-74.2 19.07-100.1 66.02-100.1 66.02h156.33c-9 144.95-88.58 191.26-127.13 218.5-34.2 24.18-25.46 82.35 19.9 85.32 28.12 1.84 276.62 2.36 305.66-.85 51.38-5.67 52.84-66.7 19.69-87.3-49.35-30.68-125.94-65-137.16-215.67H685.1s-43.43-51.83-110.03-66.68c-42.62-9.5-74.9-13.8-105.24-13.5z" class="base stroke-color"/><ellipse id="head" cx="473.54" cy="333.21" fill="url(#head-gradient)" class="base stroke-color stroke-medium" rx="122.41" ry="110.4"/><path id="pawn-body" fill="url(#pawn-body-gradient)" d="M433.42 495.01c1.47 170.18-86.74 221.1-127.97 250.25-34.2 24.17-25.46 82.34 19.9 85.3 28.12 1.85 276.62 2.37 305.66-.84 51.38-5.67 52.84-66.7 19.69-87.3-52.61-32.71-136.2-69.54-138.5-247.1-.44-33.3-79.04-30-78.78-.3z" class="base stroke-color stroke-medium"/><path id="shoulders" fill="url(#shoulders-gradient)" d="M376.35 460.74c-74.2 19.06-100.1 66.01-100.1 66.01h408.84s-43.43-51.83-110.03-66.68c-85.23-19-129.17-17.2-198.7.67z" class="base stroke-color stroke-medium"/><path id="lower-line" fill="none" d="M379.12 739.67h187.9" class="base stroke-color stroke-medium"/></svg>