<svg xmlns="http://www.w3.org/2000/svg" xmlns:xlink="http://www.w3.org/1999/xlink" id="rook" version="1.0" viewBox="0 0 933.33 933.33"><style id="style-base">.base{fill-opacity:1;fill-rule:evenodd;stroke-miterlimit:4;stroke-dasharray:none;stroke-linecap:round;stroke-linejoin:round;stroke-opacity:1}.stroke-medium{stroke-width:20}.stroke-color{stroke:#000}</style><defs id="defs36222"><linearGradient id="fillGradient"><stop id="stop0" offset="0" stop-color="#fff" stop-opacity="1"/><stop id="stop1" offset="1" stop-color="#bfd3d7" stop-opacity="1"/></linearGradient><linearGradient xlink:href="#fillGradient" id="upper-back-gradient" x1="7.34" x2="689.75" y1="207.66" y2="274.33" gradientTransform="matrix(1.10352 0 0 1.06757 -32.26 -16.14)" gradientUnits="userSpaceOnUse"/><linearGradient xlink:href="#fillGradient" id="body-gradient" x1="218.5" x2="906.1" y1="521.53" y2="643.2" gradientTransform="matrix(1.10352 0 0 1.06757 -32.26 -16.14)" gradientUnits="userSpaceOnUse"/><linearGradient xlink:href="#fillGradient" id="upper-wall-gradient" x1="153.41" x2="966.59" y1="229.07" y2="400.73" gradientTransform="matrix(1.10352 0 0 1.06757 -32.26 -16.14)" gradientUnits="userSpaceOnUse"/><linearGradient xlink:href="#fillGradient" id="tower-base-gradient" x1="193.15" x2="878.6" y1="715.41" y2="782.07" gradientTransform="matrix(1.10352 0 0 1.06757 -32.26 -16.14)" gradientUnits="userSpaceOnUse"/></defs><path id="boundary" fill="none" stroke-width="35" d="M468.91 119.08c-30.68-.25-61.62 1.07-71.44 4.28-3.39 33.65.9 51.98-1.82 81.9a197.55 197.55 0 0 1-30.64 5.88c.91-16.5 1.94-32.57 1.75-43.34-22.83-3.32-53.78-3.52-81.93-1.78.78-7.47 1.46-14.92 1.17-23.98-17.52-4.78-126.91 18.93-143.45 24 5.44 29.7 9.56 57.87 14.83 100.53 33.87 23.54 52.83 31.76 56.45 71.2.84-.15 1.94-.27 2.8-.41 10.96 5.29 29.17 9.84 52.39 13.59-2.92 92.32-3.7 349.07-2.77 386.38-25.97 24.61-77.23 48.98-114.08 56.75-5.47 18-10.86 38.83.25 61.22 134.5 1.22 489.67-.34 618.19-.79 6.93-24.97 12.17-43.03 5.24-62.66-38.9-7.68-85.72-19.26-120.9-54.51-2.94-65.39-2.6-320.4-2.47-385.93 23.79-3.7 44.08-8.3 59.01-13.88l.1-.51c.93.13 2.16.25 3.06.38 6.43-35.55 16.95-41.62 66.65-71.46 6.28-46.69 11.8-69.2 12.15-97.1-14.9-3.62-121.91-35.56-135.13-30.97-4.7 27.77 1.95 51.64-4.24 77.76-4.27.2-8.47.36-12.65.49-.09-14.7.25-30.26 1.6-44.17-24.98-10.7-73.24-11.03-105.79-9.63.23-12.68.64-24.4 1.5-38.05-8.75-3.1-39.15-4.94-69.83-5.2z" class="base stroke-color"/><path id="upper-back" fill="url(#upper-back-gradient)" d="M214.93 336.6s3.43-123.38 18.64-164.39c31.78-6.84 94.34-10.06 133.2-4.4.43 25.08-5.74 77.85-1.68 101.98 35.3-1.67 106.84 2.6 152.36-2.5 1.02-29.43-7.67-71.1.94-103.91 28.9-2.17 94.22-4.46 124.64 8.57-4.06 41.98.6 99.69.6 99.69l79.74 2.75-11.88 63.14c-99.56 37.2-434.27 31.67-496.56-.94z" class="base stroke-color stroke-medium"/><path id="tower-base" fill="url(#tower-base-gradient)" d="M268.16 735.55c-25.33 25.2-78.25 50.57-115.99 58.53-5.47 18.01-10.86 38.83.26 61.22 134.5 1.22 489.66-.34 618.18-.79 6.93-24.97 12.17-43.03 5.24-62.66-39.57-7.81-87.36-19.6-122.73-56.3" class="base stroke-color stroke-medium"/><path id="lower-line" fill="none" d="M212.54 805.16c157.8.07 329.05-5.8 497.82.6" class="base stroke-color stroke-medium"/><path id="body" fill="url(#body-gradient)" d="M270.3 323.45c-3.98 47.2-5.13 375.99-4.03 415.15 58.25-4.91 329-5.22 388.7-.6-3.38-73.7-2.45-413.51-2.45-413.51" class="base stroke-color stroke-medium"/><path id="bricks" fill="none" d="M372.03 395.73c-20.05-.08-34.74 1.05-60.48 3.84l69.45-3.73a593.8 593.8 0 0 0-8.97-.11zm22.2 60.6c-31.6-.1-52.54 1.48-84 4.07l107.85-3.73c-8.69-.21-16.55-.32-23.85-.35zM357.15 487c.42 15.17-.33-7.04.48 16.8zm114.1 34.8c-82.58 1.18-84.73.62-161.03 5.88zm-55.3 32.72c.37 13.37-.33-7.2.47 16.15zm47.33 35.54c-61.2-.13-106.74 1.73-153.62 6.23l180.85-6.05c-9.43-.1-18.49-.16-27.23-.18zm16.92 20.28.38 14.57c-.01-1.42-.1-4.94-.38-14.57zm.38 14.57c.05 3.25-.28-5.52.36 13.4zm-123.43-3.4c.42 15.17-.33-7.04.48 16.8zm110.81 38.17c-67.75-.19-125.29 2.36-156.87 4.68l227.46-3.47a2419.13 2419.13 0 0 0-70.59-1.2zm-52.28 22.99.38 14.57c-.02-1.42-.1-4.95-.38-14.57zm.38 14.57c.04 3.24-.29-5.52.36 13.4z" class="base stroke-color stroke-medium"/><path id="upper-wall" fill="url(#upper-wall-gradient)" d="M142.55 166.03c5.44 29.7 9.56 57.88 14.83 100.54 33.87 23.54 52.83 31.76 56.45 71.2 101.73-18.27 408.56-14.06 500.82-.37 6.43-35.55 16.95-41.63 66.65-71.46 6.28-46.69 11.8-69.2 12.15-97.1-14.9-3.61-121.91-35.56-135.13-30.97-4.7 27.78 1.95 51.64-4.24 77.76-40.06 2-75.75.48-117.2-10.28.2-34.91.15-54.06 1.87-81.08-17.5-6.22-121.64-7.32-141.28-.91-3.39 33.65.9 51.98-1.82 81.9-35.56 10.03-69.29 7.43-111.74 9.8-3.42-35.57 2.9-48.05 2.09-73.02-17.52-4.78-126.91 18.93-143.45 24z" class="base stroke-color stroke-medium"/><path id="upper-line" fill="none" d="M202.72 272.29c156.95-15.47 389.07-16.43 523.78 3.73" class="base stroke-color stroke-medium"/></svg>