<svg viewBox="0 0 2000 2000" xmlns="http://www.w3.org/2000/svg"><path fill="#fff" d="M 524.89418,1673.6155 464.43517,1189.9434 252.82861,835.43367 563.3681,582.60506 799.70789,684.28613 783.21907,250.08047 l 423.21313,-16.48882 5.4963,467.18331 h 478.1758 l -24.7332,390.23544 -170.3845,230.8435 2.7481,343.5172 -233.5916,79.6959 z"/><path fill="#000" d="m 1850.2766,799.1 q -11.28,154.16 -125.02,307.38 -81.78,109.98 -161.68,161.68 -4.7,71.44 -23.5,409.84 -58.28,96.82 -250.04,128.78 -101.52,16.92 -289.52,16.92 -188.00001,0 -289.52001,-16.92 -191.76,-31.96 -250.04,-128.78 l -23.5,-409.84 q -114.68,-75.2 -199.28,-218.08 -89.3,-148.52 -89.3,-279.18 0,-127.84 96.82,-210.56 91.18,-79.9 220.9,-79.9 146.64,0 288.58,105.28 V 216.3 h 490.68001 v 369.42 q 141.94,-105.28 286.7,-105.28 140.06,0 232.18,88.36 94.94,92.12 85.54,230.3 z m -674.92,-252.86 q 15.98,-18.8 -1.88,-33.84 l -98.7,-87.42 95.88,-86.48 q 16.92,-15.04 0.94,-33.84 l -30.08,-34.78 q -16.92,-19.74 -36.66,-1.88 l -104.34,94 -104.34001,-94 q -19.74,-17.86 -36.66,1.88 l -30.08,34.78 q -15.98,18.8 0.94,33.84 l 95.88,86.48 -98.7,87.42 q -17.86,15.04 -1.88,33.84 l 30.08,35.72 q 14.1,16.92 34.78,3.76 l 109.98001,-96.82 109.98,96.82 q 20.68,13.16 34.78,-3.76 z m -72.38,227.48 q 0,-42.3 -30.08,-70.03 -30.08,-27.73 -72.38,-27.73 -42.30001,0 -72.38001,27.73 -30.08,27.73 -30.08,70.03 0,42.3 30.08,70.03 30.08,27.73 72.38001,27.73 42.3,0 72.38,-27.73 30.08,-27.73 30.08,-70.03 z m 372.24,665.52 q 7.52,-28.2 -48.88,-43.24 -52.64,-14.1 -62.98,13.16 -6.58,30.08 48.88,45.12 54.52,15.04 62.98,-15.04 z m 158.86,-564.94 q 2.82,-141.94 -170.14,-145.7 -75.2,8.46 -139.12,48.88 -155.1,97.76 -235.94,341.22 H 912.15659 q -120.32,-361.9 -375.06,-390.1 -172.96,3.76 -170.14,145.7 30.08,196.46 194.58,305.5 l -47.94,39.48 q -4.7,11.28 -4.7,24.44 -0.94,31.96 31.02,46.06 256.62,-74.26 460.60001,-74.26 203.98,0 460.6,74.26 31.96,-14.1 31.02,-46.06 0,-13.16 -4.7,-24.44 l -47.94,-39.48 q 163.56,-109.04 194.58,-305.5 z m -537.68,480.34 q 0,-50.76 -95.88,-50.76 -95.88001,0 -95.88001,50.76 0,50.76 95.88001,50.76 95.88,0 95.88,-50.76 z m -95.88,151.34 q -128.78001,0 -250.04001,13.16 -206.8,22.56 -206.8,71.44 0,15.04 15.51,29.61 15.51,14.57 29.61,10.81 175.78,-49.82 318.66,-49.82 47,0 93.06001,4.7 46.06,-4.7 93.06,-4.7 142.88,0 318.66,49.82 14.1,3.76 29.61,-10.81 15.51,-14.57 15.51,-29.61 0,-39.48 -139.59,-62.04 -139.59,-22.56 -317.25,-22.56 z m -362.84001,-96.82 q -10.34,-27.26 -62.98,-13.16 -56.4,15.04 -48.88,43.24 8.46,30.08 62.98,15.04 55.46,-15.04 48.88,-45.12 z M 1506.2366,905.32 q 1.88,57.34 -164.5,238.76 -55.46,-13.16 -137.24,-25.38 94.94,-266.96 257.56,-266.96 42.3,0 44.18,53.58 z M 796.53659,1118.7 q -38.54,5.64 -137.24,25.38 -166.38,-181.42 -164.5,-238.76 1.88,-59.22 56.4,-52.64 49.82,6.58 86.48,30.08 97.76,63.92 158.86,235.94 z"/></svg>