<?xml version="1.0" encoding="UTF-8" standalone="no"?>
<svg
   xmlns:dc="http://purl.org/dc/elements/1.1/"
   xmlns:cc="http://creativecommons.org/ns#"
   xmlns:rdf="http://www.w3.org/1999/02/22-rdf-syntax-ns#"
   xmlns:svg="http://www.w3.org/2000/svg"
   xmlns="http://www.w3.org/2000/svg"
   xmlns:sodipodi="http://sodipodi.sourceforge.net/DTD/sodipodi-0.dtd"
   xmlns:inkscape="http://www.inkscape.org/namespaces/inkscape"
   height="100%"
   width="100%"
   version="1.0"
   viewBox="0 0 64 64"
   id="svg2"
   inkscape:version="0.91 r13725"
   sodipodi:docname="blackknight.vers1.svg">
  <sodipodi:namedview
     pagecolor="#ffffff"
     bordercolor="#666666"
     borderopacity="1"
     objecttolerance="10"
     gridtolerance="10"
     guidetolerance="10"
     inkscape:pageopacity="0"
     inkscape:pageshadow="2"
     inkscape:window-width="1237"
     inkscape:window-height="823"
     id="namedview22"
     showgrid="false"
     inkscape:zoom="3.6875"
     inkscape:cx="32"
     inkscape:cy="32"
     inkscape:window-x="71"
     inkscape:window-y="12"
     inkscape:window-maximized="0"
     inkscape:current-layer="svg2" />
  <defs
     id="defs4" />
  <g
     transform="translate(0,-16)"
     id="g6">
    <path
       stroke-linejoin="miter"
       d="m11.698 60.852c.92476.92951 3.2346.95240 4.38.12548.90758-1.1176 2.2293-1.6941 2.5839-3.1742.61739-1.9518-1.9179-3.0837-3.222-1.7012-1.4901 1.4104-4.7594 3.8523-3.7418 4.7499z"
       stroke-dashoffset="0"
       stroke="#201917"
       stroke-linecap="butt"
       stroke-miterlimit="4"
       stroke-dasharray="none"
       stroke-width="1.422"
       fill="#fff"
       id="path8" />
    <path
       d="m22.245 29.071c.20597-1.9788.33490-3.9646.43123-5.9517 1.9883 3.0016 4.5019 6.2066 8.3762 6.5823 7.7791 1.1731 15.125 5.6456 19.173 12.475 5.8028 9.5313 6.2665 21.372 3.4977 31.968-10.304-.0066-20.607.01636-30.909-.002-1.2234-.03411-3.4531.06056-3.1456-1.8212.74965-3.9733 3.8055-7.1684 7.2969-9.0242 4.4241-2.6506 5.6409-8.114 5.7011-12.912-2.4746 2.2916-6.6059 4.9362-10.314 4.8586-2.1527 3.4628-2.7729 5.6352-7.3428 6.8119-.61116-.67946.0714-1.5008.93898-3.9147-1.0144 1.0616-2.4963 2.4652-4.6153 3.334-2.1847-1.921-3.3993-4.6283-2.2626-7.8439.93823-1.4112.56631-1.7158 1.8382-2.9077 1.6509-1.547 4.0042-5.2911 4.4821-8.1005.46283-3.1574 2.1843-5.8864 4.0421-8.4033-1.2045-2.7992-1.7214-5.8187-1.6461-8.8587 1.4899 1.2297 2.9285 2.5224 4.4579 3.7095z"
       fill-rule="nonzero"
       fill="#000"
       id="path10" />
    <g
       fill-rule="nonzero"
       fill="#fff"
       id="g12">
      <path
         d="m24.355 28.426c0.787 1.0721 2.0117 2.1759 3.1393 2.9155.0499.98886.58942 2.762-1.0227 2.6898-2.9763.29354-2.5169-3.8142-2.1166-5.6053z"
         id="path14" />
      <path
         d="m32.042 32.324c6.3341-.02973 13.117 6.5315 15.01 9.1944 6.5723 7.9067 6.7916 19.162 5.3087 29.095.32949 1.813-1.6467 1.5827-2.7979 1.9718.11418-8.1758.85073-16.72-2.6863-24.377-3.051-6.365-8.6691-11.317-15.142-14.026.077-.46460.23085-1.3938.30780-1.8584z"
         id="path16" />
      <path
         d="m10.878 55.372c.63170-1.0029 1.9787-.98986 2.9778-1.3707-.64846 1.3215-.95350 3.1954-2.5168 3.7202-.45216-.64066-1.0763-1.6031-.46106-2.3495z"
         id="path18" />
      <path
         d="m20.434 42.99c1.8061-1.3623 3.5718-.51520 5.5015.06248-2.135 1.1951-4.6929 3.3449-6.4036 2.315-.69292-.41714-.11045-1.6138.90214-2.3775z"
         id="path20" />
    </g>
  </g>
  <path
     style="fill:#333333;fill-opacity:1;stroke:#000000;stroke-width:0.98780197;stroke-miterlimit:4;stroke-dasharray:none;stroke-opacity:1"
     d="m 20.588524,57.669031 c -0.860485,-0.373535 -0.906548,-0.459583 -0.752891,-1.40646 0.261812,-1.613356 1.729975,-4.2985 3.14415,-5.750381 0.718506,-0.73766 2.175191,-1.903238 3.23708,-2.59017 1.061889,-0.686934 2.375183,-1.700914 2.918432,-2.253291 1.94099,-1.973605 3.584836,-6.657317 3.614566,-10.298763 l 0.0095,-1.158849 -1.381781,1.092235 c -2.6789,2.117548 -6.404678,3.801733 -8.410249,3.801733 -0.622127,0 -0.890892,0.256192 -1.635844,1.559322 -1.206897,2.1112 -2.795761,3.779642 -4.348834,4.566644 -2.219427,1.124667 -2.534792,0.849047 -1.579224,-1.380204 0.756042,-1.763774 0.680454,-1.997632 -0.338983,-1.048748 -1.174416,1.093136 -3.22288,2.54234 -3.578848,2.531889 -0.371301,-0.0109 -1.9296898,-2.085093 -2.3016776,-3.063496 -0.505137,-1.32861 -0.3440746,-3.713651 0.3516816,-5.207764 0.3494421,-0.750416 0.812158,-1.543636 1.028257,-1.762712 2.483923,-2.518145 4.205137,-5.612834 5.075638,-9.125841 0.585047,-2.361024 1.411672,-4.189924 2.921635,-6.464094 l 0.931772,-1.403349 -0.657317,-2.27879 c -0.656186,-2.274871 -1.206142,-6.2109928 -0.867802,-6.2109928 0.0983,0 1.048582,0.7322038 2.111742,1.6271188 1.063159,0.894915 2.022626,1.627118 2.132149,1.627118 0.109523,0 0.287595,-1.247772 0.395716,-2.772827 0.189089,-2.667116 0.213038,-2.7472414 0.628169,-2.1016951 0.806057,1.2534547 3.417491,3.8432811 4.537226,4.4996861 0.613317,0.359535 2.321792,0.908199 3.796611,1.219255 5.033977,1.061719 8.589101,2.622932 12.243688,5.376746 3.435645,2.588837 5.769933,5.545315 7.789779,9.866099 2.635943,5.638711 3.471007,9.538759 3.494286,16.319516 0.0163,4.745866 -0.198652,6.883401 -1.083973,10.779661 l -0.415935,1.830509 -16.046058,-0.0106 C 24.061703,58.06861 21.359049,58.003523 20.588524,57.669041 l 0,-1e-5 z m 31.153849,-1.583268 c 0.621483,-0.283309 0.704065,-0.53472 0.991235,-3.017749 0.472084,-4.081907 0.444128,-11.806889 -0.0531,-14.673169 C 51.610442,32.226472 49.54907,27.929316 45.629067,23.69535 41.742732,19.497749 36.313289,16.332021 32.99173,16.326936 c -0.651729,-0.001 -1.043953,0.144468 -1.152543,0.427447 -0.426633,1.111788 -0.167444,1.440413 2.043132,2.590481 6.530284,3.397427 11.6101,9.028172 13.809875,15.307621 1.327984,3.790842 1.646872,6.344231 1.80035,14.415678 l 0.145616,7.65799 0.713125,-0.165668 c 0.39222,-0.09112 1.018211,-0.304743 1.391092,-0.474722 z M 12.246816,41.20678 c 0.368654,-0.335594 0.92368,-1.203238 1.233391,-1.928098 l 0.56311,-1.317928 -1.014879,0.179477 c -1.191274,0.210671 -2.3327,0.963959 -2.462623,1.625214 -0.108579,0.552624 0.466829,2.051504 0.787556,2.051504 0.12274,0 0.52479,-0.274576 0.893445,-0.610169 z M 23.538983,28.610007 c 2.704142,-1.444056 2.77749,-1.587278 1.07223,-2.093686 -0.793022,-0.235502 -1.755302,-0.427729 -2.1384,-0.427172 -0.757349,0.0011 -2.384219,0.888311 -2.92041,1.592636 -0.548019,0.719863 -0.422856,1.650518 0.257766,1.91664 0.841984,0.329214 1.674816,0.108451 3.728814,-0.988418 z m 3.742373,-10.711702 c 0.178983,-0.178983 0.325424,-0.807521 0.325424,-1.396751 0,-0.960243 -0.170171,-1.230762 -1.641183,-2.608974 -0.902651,-0.845707 -1.683107,-1.468016 -1.734348,-1.382911 -0.119658,0.198739 -0.233512,2.33089 -0.186312,3.489098 0.06712,1.647024 2.223373,2.912584 3.236419,1.899538 z"
     id="path4200"
     inkscape:connector-curvature="0" />
</svg>
