<svg viewBox="0 0 2000 2000" xmlns="http://www.w3.org/2000/svg"><path fill="#fff" d="m 1735.2523,1806.7038 25.5184,-530.783 -170.9734,-459.3315 -306.221,-321.53203 -474.64252,-119.93656 -30.6221,-71.45156 -86.76261,58.69235 v 86.76262 L 563.95699,392.9836 607.3383,653.27144 482.29806,803.8301 428.70939,954.38875 234.76943,1178.9508 l 30.62209,191.3881 349.6023,-15.311 112.28103,-178.6289 283.25445,28.0702 -186.28447,273.0471 -201.59549,142.9031 35.72579,188.8363 z"/><path fill="#000" d="m 1794.7136,1462.74 q -5.64,313.02 -52.64,372.24 l -1091.34,1.88 q -60.16,-68.62 -60.16,-142.88 0,-100.58 84.6,-167.32 294.22,-233.12 287.64,-305.5 -81.78,15.04 -150.4,15.04 -49.82,0 -92.12,-7.52 -95.88,192.7 -221.84,194.58 -11.28,2.82 -21.62,2.82 -33.84,0 -51.7,-28.2 -21.62,29.14 -52.64,29.14 -6.58,0 -15.98,-1.88 -79.9,-15.98 -113.74,-50.76 -37.6,-39.48 -37.6,-117.5 0,-15.04 0.94,-28.2 6.58,-94.94 116.56,-208.68 115.62,-119.38 126.9,-183.3 10.34,-56.4 17.86,-71.44 22.56,-43.24 105.28,-119.38 -4.7,-7.52 -16.92,-106.22 -14.1,-113.74 -14.1,-184.24 0,-21.62 1.88,-38.54 81.78,62.04 117.5,94 6.58,-132.54 68.62,-207.74 36.66,73.32 141,172.02 349.68,-7.52 585.62,235 180.48,185.18 273.54,486.92 67.68,218.08 64.86,365.66 z m -1121.42,-972.9 q -13.16,-47 -47.94,-37.6 -38.54,10.34 -25.38,58.28 12.22,46.06 50.76,35.72 35.72,-9.4 22.56,-56.4 z m 1047.16,890.18 -88.36,-92.12 68.62,-117.5 -131.6,-88.36 48.88,-122.2 -125.02,-79.9 27.26,-109.98 -113.74,-17.86 -19.74,-106.22 -109.98,-15.04 -25.38,-82.72 -70.5,14.1 -17.86,-59.22 -103.4,10.34 -33.84,-66.74 -129.72,27.26 q -63.92,-35.72 -85.54,-53.58 -9.4,-7.52 -68.62,-66.74 -20.68,43.24 -20.68,78.96 0,39.48 43.24,89.3 30.08,34.78 30.08,69.56 0,15.04 -5.64,29.14 l -100.58,-68.62 q -19.74,19.74 -74.26,124.08 -72.38,67.68 -101.52,126.9 -20.68,42.3 -41.36,129.72 -22.56,54.52 -172.96,200.22 -39.48,38.54 -39.48,119.38 0,96.82 106.22,100.58 78.96,-94.94 122.2,-94.94 4.7,0 7.52,0.94 -16.92,30.08 -16.92,58.28 0,16.92 6.58,30.08 10.34,4.7 24.44,4.7 78.02,0 157.92,-130.66 -40.42,-38.54 -40.42,-80.84 0,-6.58 0.94,-13.16 65.8,33.84 204.92,33.84 194.58,0 227.48,-77.08 -13.16,148.52 -82.72,252.86 -77.08,115.62 -288.58,278.24 -37.6,29.14 -37.6,84.6 0,36.66 24.44,64.86 246.28,-28.2 511.36,-28.2 266.96,0 479.4,31.96 l 48.88,-176.72 -75.2,-79.9 z M 857.5336,836.7 q -66.74,33.84 -137.24,68.62 -77.08,7.52 -78.96,-25.38 -2.82,-43.24 18.33,-67.21 21.15,-23.97 64.39,-21.15 52.64,2.82 133.48,45.12 z m -422.06,355.32 q 8.46,21.62 -37.6,38.54 -42.3,15.98 -52.64,-5.64 -6.58,-21.62 37.6,-37.6 44.18,-16.92 52.64,4.7 z"/></svg>