<svg xmlns="http://www.w3.org/2000/svg" viewBox="0 0 64 64"><path fill="#fff" stroke="#000" stroke-miterlimit="10" stroke-width=".079" d="M27.705 14.724c1.713-2.966 6.33-3.243 8.352-.46 1.76 1.896.924 4.548.397 6.754 2.81 1.343 6.1 1.892 8.429 4.086 1.716 1.526 1.91 3.928 2.27 6.046-3.623.122-7.248.057-10.871.082.023 2.053.191 4.139 1.276 5.941 1.739 3.38 3.078 7.72.465 11.044l-.087 1.829c3.2.267 6.77.444 9.267 2.736 1.537 1.287 1.805 3.368 2.265 5.193-11.193.163-22.39.027-33.583.072v-4.12c2.48-3.111 6.587-3.67 10.296-3.887l.064-1.75c-.73-1.397-1.83-2.772-1.677-4.448-.006-4.506 3.784-8.027 3.267-12.61-3.57-.022-7.14.027-10.708-.062.487-2.58 1.35-5.347 3.631-6.904 2.197-1.462 4.694-2.39 6.992-3.679-.477-1.892-1.39-4.094-.045-5.863z"/><path d="M27.705 14.724c1.713-2.966 6.33-3.243 8.352-.46 1.76 1.896.924 4.548.397 6.754 2.81 1.343 6.1 1.892 8.429 4.086 1.716 1.526 1.91 3.928 2.27 6.046-3.623.122-7.248.057-10.871.082.023 2.053.191 4.139 1.276 5.941 1.739 3.38 3.078 7.72.465 11.044l-.087 1.829c3.2.267 7.246.508 9.267 2.736 2.048 2.26 1.805 3.368 2.265 5.193-11.193.163-23.804.13-34.998.174.288-1.743.199-1.732 1.426-4.378 1.216-2.623 6.576-3.515 10.286-3.731l.064-1.75c-.73-1.397-1.831-2.772-1.677-4.447-.006-4.506 3.784-8.027 3.267-12.61-3.57-.022-7.14.028-10.708-.061.487-2.58 1.35-5.348 3.63-6.904 2.198-1.462 4.695-2.39 6.992-3.68-.476-1.892-1.389-4.093-.045-5.863z"/><g fill="#fff"><path stroke="#fff" stroke-miterlimit="10" stroke-width=".079" d="M30.597 20.878c-1.966-1.965-1.742-6.53 1.782-6.211 3.093.41 2.726 4.23 1.323 6.164 2.98 3.652 9.248 2.957 10.876 7.882-8.258.238-16.538.232-24.796 0 1.718-4.852 7.814-4.26 10.815-7.835z"/><path d="M30.597 20.878c-1.966-1.965-1.742-6.53 1.782-6.211 3.093.41 2.726 4.23 1.323 6.164 2.98 3.652 9.248 2.957 10.876 7.882-8.258.238-16.538.232-24.796 0 1.718-4.852 7.814-4.26 10.815-7.835z"/><path stroke="#fff" stroke-miterlimit="10" stroke-width=".079" d="M30.127 31.223h3.862c-.935 4.856 3.483 8.492 3.155 13.27-.037 1.197-.766 2.186-1.322 3.191.213 1.351.429 2.702.642 4.055 3.54.243 8.023.23 9.934 3.845-9.596.142-19.204.194-28.798-.027 2.074-3.56 6.578-3.573 10.188-3.817.224-1.373.451-2.746.683-4.118-.821-1.127-1.82-2.288-1.714-3.786-.073-4.568 4.37-7.9 3.37-12.613z"/><path d="M30.127 31.223h3.862c-.935 4.856 3.483 8.492 3.155 13.27-.037 1.197-.766 2.186-1.322 3.191.213 1.351.429 2.702.642 4.055 3.54.243 8.023.23 9.934 3.845-9.596.142-19.204.194-28.798-.027 2.074-3.56 6.578-3.573 10.188-3.817.224-1.373.451-2.746.683-4.118-.821-1.127-1.82-2.288-1.714-3.786-.073-4.568 4.37-7.9 3.37-12.613z"/></g></svg>