<svg viewBox="0 0 64 64" xmlns="http://www.w3.org/2000/svg"><g transform="translate(0 -16)"><path d="m15.039 26.785c2.1037-.000096 4.2088-.000132 6.3154-.000132-.0019 1.579-.0025 3.1578-.000536 4.7369 2.104-.000217 4.2093-.000252 6.3164-.000289-.0021-1.579-.0025-3.1578-.00056-4.7367 2.9306.000145 5.8622.000205 8.7951.000602-.0019 1.5786-.0023 3.157-.000339 4.7357 2.0667.000084 4.1347.000493 6.2046.000876-.0021-1.5792-.0027-3.1581-.00045-4.7371 2.1035.000071 4.2085.000071 6.3154.000059-.0017 3.1776-.0016 6.355 0 9.5326-1.318 1.4775-2.6341 2.9555-3.9491 4.4336.0057 6.2893-.0045 12.579.005 18.868 2.4814 2.7802 3.5595 5.5629 6.2892 8.0722-.000496 2.1523.000546 4.3049.0014 6.4581-12.887.001-25.773.001-38.66.001-.000876-2.1465-.000876-4.2926.000876-6.4383 3.0973-1.9391 3.6227-5.764 6.3093-8.1079.01258-6.2388.0012-12.477.0061-18.716-1.3187-1.4693-2.635-2.9395-3.9501-4.4099.0034-3.2309.002-6.4616.0023-9.6924z"/><g fill="#fff"><path d="m17.408 29.152c.50857.00071 1.5257.0021 2.0343.0028-.0027 1.5781-.0033 3.1561-.0013 4.7344 3.5315.000603 7.0638.00012 10.597.000422-.002-1.5791-.0023-3.1579-.000214-4.7368 1.3994.000132 2.7999.000278 4.2043.00071-.0019 1.5785-.0025 3.1569-.000803 4.7356 3.5976.000651 7.196.000362 10.795.00035-.0022-1.5789-.0023-3.1576.000072-4.7363.39471-.000073 1.1841-.000192 1.5788-.000265-.0012 2.2552-.0012 4.5103-.0022 6.7656-1.3095 1.1649-2.6162 2.3305-3.9216 3.497-7.639-.000145-15.277-.00029-22.916.00006-.79143-.88195-1.5814-1.7641-2.3686-2.6461-.000803-2.5393-.0028-5.0784.0003-7.6175z"/><path d="m21.354 41.784c7.1043-.000012 14.209-.000096 21.314.000036-.000505 5.5259-.000687 11.052.000102 16.578-7.1053-.000241-14.21-.00006-21.314-.000096-.000562-5.526-.000514-11.052-.000041-16.578z"/><path d="m20.814 60.719c7.4785.02398 14.957.0077 22.437.0086 2.3204 2.1911 3.3433 4.8043 5.7322 6.9844-.0031 1.3561-.0021 2.7128.0022 4.0702-11.316-.000216-22.632-.000325-33.947.000048-.000949-1.3568-.000616-2.7128.0023-4.0684 2.7668-1.6776 3.345-5.0079 5.7738-6.9949z"/></g></g></svg>