<?xml version="1.0" encoding="UTF-8"?>
<svg width="177.17" height="177.17" version="1.1" xmlns="http://www.w3.org/2000/svg" xmlns:cc="http://creativecommons.org/ns#" xmlns:dc="http://purl.org/dc/elements/1.1/" xmlns:rdf="http://www.w3.org/1999/02/22-rdf-syntax-ns#">
 <metadata>
  <rdf:RDF>
   <cc:Work rdf:about="">
    <dc:format>image/svg+xml</dc:format>
    <dc:type rdf:resource="http://purl.org/dc/dcmitype/StillImage"/>
    <dc:title/>
   </cc:Work>
  </rdf:RDF>
 </metadata>
 <!--
Created by Hari Seldon and modified by orangain, licensed under Creative Commons Attribution-Share Alike 3.0 Unported.
See: https://creativecommons.org/licenses/by-sa/3.0/deed.en

Original file is available at: https://commons.wikimedia.org/wiki/File:Shogi_osho(svg).svg
-->
 <filter id="drop-shadow">
  <feGaussianBlur in="SourceAlpha" result="blur" stdDeviation="2"/>
  <feOffset dx="2" dy="2" result="offsetBlur"/>
  <feBlend in="SourceGraphic" in2="offsetBlur"/>
 </filter>
 <path transform="matrix(3.0096 0 0 3.0096 25.2 13.202)" d="m21.015 0.615c-4.096 1.034-8.171 2.152-12.208 3.395-0.467 0.163-1.13 0.263-1.201 0.865-0.709 3.416-1.178 6.885-1.737 10.331-1.73 11.255-3.378 22.528-5.1 33.78 0.155 0.682 1.013 0.424 1.51 0.48 12.894 0.025 25.788 0.03 38.68-0.033 0.672-0.156 0.28-0.952 0.279-1.409-2.011-13.12-3.876-26.263-5.998-39.366-0.277-1.356-0.348-2.782-0.816-4.087-0.347-0.497-1.073-0.468-1.588-0.704-3.832-1.137-7.673-2.267-11.55-3.231-0.09-0.017-0.18-0.032-0.271-0.021zm5.09 6.246c0.365-0.09 0.92 0.166 0.758 0.61-0.396 0.628-1.268 0.624-1.918 0.781-1.09 0.222-2.256 0.114-3.306 0.483-0.63 0.354-0.178 1.135-0.076 1.655 0.247 0.62 0.277 1.396 0.756 1.89 0.94 0.365 2.004 0.015 2.972 0.243 0.249 0.134 0.686 0.333 0.69 0.638-0.78 0.372-1.715 0.217-2.56 0.352-0.646-0.011-1.31 0.347-1.464 1.015-0.258 0.953-0.585 1.922-0.62 2.912 0.167 0.662 1.021 0.469 1.53 0.495 1.608-6e-3 3.19-0.394 4.791-0.39 0.836 0.05 1.783 0.098 2.388 0.75 0.101 0.133 0.483 0.367 0.335 0.538-0.694 0.315-1.518 0.14-2.264 0.202-2.92 0.036-5.843-0.135-8.76-8e-3 -1.698 0.085-3.226 1.068-4.912 1.118-1.306-0.093-2.363-1.031-3.143-2.012-0.081-0.208 0.42 2e-3 0.574-0.014 1.862 0.426 3.784 0.668 5.691 0.414 0.648-0.113 1.355-0.064 1.952-0.345 0.237-0.68 0.018-1.447 0.07-2.162-0.056-0.69 0.11-1.725-0.68-2.052-0.847-0.195-1.754-7e-3 -2.575-0.357-0.569-0.18-1.1-0.462-1.618-0.758 1.41-4e-3 2.866 0.286 4.25-0.068 0.813-0.352 0.696-1.426 0.595-2.144-0.098-0.69-0.322-1.59-1.151-1.687-1.469-0.167-3.14-0.22-4.243-1.33-0.372-0.332 0.255-0.051 0.467-0.02 3.258 0.677 6.603 0.027 9.827-0.557 0.547-0.085 1.093-0.176 1.644-0.192zm2.537 15.879c0.546-0.072 1.004 0.405 1.215 0.845-0.506 0.674-1.47 0.555-2.22 0.713-1.037 0.157-2.366 0.1-3.033 1.063-0.405 0.982-0.578 2.055-0.86 3.075-0.046 0.635 0.756 0.859 1.246 0.632 1.51-0.374 2.93-1.16 4.47-1.36 0.774-0.097 1.479 0.373 2.115 0.762 0.564 0.408 0.184 1.177-0.16 1.603-0.397 0.657-1.168 1.116-1.335 1.889 0.042 0.734 1 0.565 1.32 1.11 0.45 0.56 1.042 1.177 1.839 1.033 0.997-0.039 1.943-0.567 2.935-0.406 0.626 0.298 1.084 0.882 1.433 1.469-1.638-3e-3 -3.264-0.148-4.885-0.349-0.656 0.13-0.299 0.901-0.284 1.34 0.46 2.89 0.64 5.888 0.108 8.777-0.057 0.438-0.46 1.062-0.963 0.758-1.1-0.702-1.757-1.92-2.793-2.717-0.388-0.33-0.802-0.627-1.245-0.877 1.04-0.104 2.185 0.056 3.133-0.457 0.828-0.678 0.6-1.885 0.574-2.826-0.133-1.172-0.144-2.387-0.428-3.525-0.358-0.406-1.022-0.087-1.507-0.158-3.494 0.12-6.895 1.026-10.348 1.477-0.821 0.126-1.42-0.584-1.958-1.081-0.147-0.104-0.192-0.463 0.079-0.336 1.81 0.215 3.646 0.145 5.465 0.09 2.326-0.155 4.66-0.414 6.93-0.956 0.552-0.098 1.06-0.676 0.744-1.235-0.243-0.646-0.884-1.15-1.598-0.971-1.74 0.325-3.473 0.93-5.265 0.672 2.38-0.79 5.072-1.165 7.002-2.923 0.516-0.435 0.837-1.41 0.163-1.85-0.817-0.354-1.691 0.162-2.457 0.43-1.218 0.524-2.462 1.185-3.835 1.046-0.957-0.095-1.741 0.515-2.392 1.135-0.384 0.268-0.917 0.802-1.401 0.48-0.354-0.497 0.104-1.094 0.438-1.467 0.934-1.139 2.113-2.08 2.957-3.29 0.333-0.707-0.525-1.173-0.997-1.516-0.295-0.191-0.618-0.33-0.906-0.533 1.873-0.304 3.807-0.548 5.539-1.38 0.372-0.148 0.768-0.184 1.165-0.186zm-15.608 1.527c1.318 0.108 2.721 1.051 2.75 2.474 0.121 1.827-0.586 3.57-0.746 5.376-0.479 3.3-0.509 6.65-0.845 9.959-0.188 1.085-0.27 2.288-0.905 3.217-0.318 0.357-0.673-0.224-0.85-0.457-0.595-0.924-1.174-1.953-1.687-2.87 0.614 0.293 1.254 0.83 1.963 0.706 0.623-0.37 0.474-1.25 0.669-1.855 0.362-2.02 0.55-4.07 0.645-6.113-0.264-0.643-1.014-0.17-1.438 0.011-1.083 0.582-2.362 0.972-3.172 1.948-0.601 0.864-0.212 1.988-0.601 2.928-0.24 0.65-0.454 1.503-1.146 1.803-0.288 0.05-0.559-0.28-0.407-0.564 0.217-1.295 0.944-2.443 1.2-3.726 0.03-0.516-0.49-0.8-0.927-0.85-0.574-0.34-1.095-0.914-1.327-1.511 1.517 0.19 3.089 0.853 4.603 0.263 1.02-0.373 2.097-0.735 2.945-1.433 0.603-0.57 0.635-1.468 0.598-2.238-0.138-0.488-0.706-0.319-0.997-0.084-0.937 0.497-1.818 1.129-2.83 1.456-0.838 0.143-1.643-0.343-2.2-0.924 0.785-0.114 1.628 0.042 2.388-0.188 0.287-0.593 0.054-1.302 0.019-1.94-0.073-0.996-0.508-1.992-1.076-2.744 0.783 0.13 1.566 0.538 1.891 1.31 0.36 0.542 0.333 1.203 0.208 1.815-0.057 0.585 0.635 0.902 1.107 0.627 0.949-0.23 1.952-0.922 1.92-2.007 0.094-1.578-1.22-2.681-1.962-3.922-0.089-0.207-0.134-0.55 0.21-0.467zm11.242 12.85c0.759 0.111 1.433 0.715 1.734 1.404 0.11 0.582-0.62 0.846-1.039 1.052-1.075 0.46-2.237 0.726-3.416 0.645 0.877-0.413 2-0.634 2.516-1.532 0.041-0.5-0.063-1.04 0.048-1.521 0.043-0.04 0.101-0.046 0.157-0.048z" fill="#feec99" filter="url(#drop-shadow)"/>
 <g>
  <g transform="matrix(3.0096 0 0 3.0096 25.2 13.202)" stroke-width="1.0188">
   <path d="m29.845 45.145c-0.67242-0.84155-2.1008-1.9378-3.1746-2.435l-1.9541-0.90268 6.1384-0.24859v-1.622c0-0.89249-0.11003-2.1742-0.24452-2.8476-0.22923-1.1452-0.36066-1.2165-2.0112-1.0932-0.97094 0.07335-2.1844 0.22108-2.6968 0.32806l-0.9312 0.19561 1.0535 1.0535c0.87313 0.87313 0.97399 1.2022 0.58786 1.9225-0.59397 1.1105-2.0937 1.677-4.439 1.677-2.49 0-2.7366-0.63982-0.52979-1.3754 1.839-0.61231 2.3188-1.3245 1.622-2.4085-0.31991-0.49922-0.75189-0.52469-2.4065-0.14671-2.4177 0.55322-3.7931 0.13652-4.4726-1.355-0.63574-1.3948-0.24452-1.7238 1.2919-1.0871 1.2715 0.52673 3.1237 0.42994 9.2611-0.48394 2.8069-0.41772 3.6046-0.80691 2.7447-1.3387-0.17829-0.11003-1.3285 0.06113-2.5572 0.379-1.2277 0.31889-2.4625 0.50941-2.7447 0.42281-0.28221-0.0866-1.0749-0.2812-1.7605-0.433-1.6291-0.36066-0.85173-0.87211 2.3066-1.5201 2.6815-0.55016 5.5037-1.9857 5.5037-2.7987 0-0.79774-0.48904-0.70095-2.9627 0.58073-1.68 0.87211-2.3586 1.0341-2.8965 0.69076-0.55322-0.35251-1.0005-0.18848-2.0988 0.77125-1.135 0.99131-1.5506 1.137-2.2231 0.77736-1.3265-0.71012-0.97705-1.7014 1.3958-3.9622 1.9602-1.8665 2.1161-2.1354 1.3224-2.2699-0.49515-0.08456-1.3377-0.61944-1.8726-1.189l-0.97298-1.0361 2.2964-0.01019c1.3724-0.0051 3.0463-0.34844 4.1598-0.85377 2.0641-0.93732 3.195-0.78653 3.8919 0.5145 0.66427 1.243 0.0377 1.6546-2.924 1.9225-2.4584 0.22414-2.5583 0.27814-2.5267 1.3856 0.01732 0.63371-0.10188 1.3713-0.26693 1.6372-0.43809 0.7091 1.1207 0.60722 2.1039-0.13652 1.7188-1.3 6.1139-0.40243 6.1139 1.2481 0 0.31787-0.49311 1.1645-1.0963 1.8807-0.86804 1.0321-0.95362 1.3031-0.40957 1.3031 0.37696 0 0.80385 0.30565 0.9475 0.68057 0.21293 0.55526 0.65103 0.62963 2.3637 0.40243 2.3331-0.30972 3.6983 0.43096 3.6983 2.004 0 0.7794-0.19561 0.82015-2.7243 0.56035l-2.7253-0.27814 0.39734 1.3815c0.58073 2.0244 0.50024 8.5235-0.11207 9.1358-0.92305 0.92305-2.218 0.53998-3.466-1.0229zm-19.21-1.3041c-0.75902-1.3082-1.2837-2.4757-1.1666-2.5929 0.18135-0.18033 0.72948 0.0326 2.8252 1.0973 0.31991 0.16301 0.98724-6.1873 0.68261-6.4919-0.11105-0.11003-0.94343 0.13652-1.8512 0.54813-1.4702 0.66733-1.6566 0.92203-1.6984 2.3209-0.05705 1.9235-1.1635 3.7197-2.2913 3.7197-1.0871 0-1.0871-1.3112-1e-3 -3.7044 0.78449-1.7279 0.78551-1.7992 0.04177-1.7992-0.89656 0-1.4916-0.63982-1.9327-2.0733-0.2812-0.9149-0.21395-0.98622 0.68974-0.72336 2.5409 0.73559 3.7676 0.74374 5.6208 0.03668 1.3836-0.52877 1.9419-0.97807 1.9419-1.5619 0-0.79672-0.03158-0.79468-1.1156 0.05705-1.4121 1.1105-3.2949 1.1238-4.3881 0.03057-1.2919-1.2919-1.0647-1.7728 0.68261-1.4447l1.5282 0.28629-0.2975-1.8543c-0.16301-1.0209-0.56545-2.0682-0.89351-2.326-0.8772-0.69178-0.7305-1.0117 0.46153-1.0117 0.58276 0 1.4396 0.38104 1.9052 0.84664 0.46662 0.4656 0.84766 1.3234 0.84766 1.9052 0 1.1523 0.03566 1.1808 1.0239 0.80181 0.95769-0.36779 0.85479-2.6255-0.15996-3.4864-0.45541-0.38613-0.95769-1.247-1.1156-1.9133-0.28221-1.1879-0.26082-1.2042 1.1462-0.90675 3.0391 0.6439 4.0182 2.8751 2.8843 6.5663-0.24961 0.81302-0.61129 4.2414-0.80385 7.6177-0.19256 3.3764-0.59092 6.6631-0.88332 7.3039-0.87619 1.9072-2.0927 1.4956-3.683-1.247zm2.1793-23.406c-1.2287-0.49616-2.8272-2.596-2.3443-3.0779 0.23025-0.23127 1.0402-0.20376 2.0234 0.06928 0.90064 0.25063 2.7335 0.45643 4.0722 0.45847l2.435 2e-3v-3.8491l-1.3754 0.24452c-0.97196 0.1732-1.7819-0.0061-2.7529-0.60926-2.058-1.2776-1.7075-1.7137 1.3754-1.7137h2.7529v-1.5079c0-0.9312-0.1681-1.4029-0.43911-1.2348-0.8497 0.5247-3.7554-0.29748-4.8221-1.3642-1.1879-1.1879-1.0759-2.0692 0.17829-1.3988 1.2226 0.6551 7.2061 0.5033 9.7318-0.24655 2.4615-0.73151 4.2424-0.36066 4.2424 0.88332 0 0.79468-1.2633 1.3469-3.841 1.6821-1.8644 0.24248-1.9286 0.29851-1.7514 1.5129 0.22108 1.5058 0.67242 1.8624 1.6586 1.3102 0.78551-0.43911 3.087 0.45949 3.087 1.2063 0 0.57258-1.6311 1.3632-2.1497 1.0423-0.24146-0.14875-0.88332-0.15996-1.4264-0.02343-0.75902 0.19052-1.029 0.60518-1.1676 1.785l-0.17931 1.5384 3.5557-0.28934c3.9102-0.31685 5.6005 0.25267 5.6005 1.8889 0 0.79978-0.28731 0.83543-6.2454 0.78857-4.7966-0.0377-6.6733 0.10901-8.0966 0.63473-2.0488 0.75494-2.7967 0.80487-4.1222 0.26795zm17.243-5.7798c-0.49209-0.34538-0.89554-0.83645-0.89554-1.0922 0-0.25572-0.49107-1.1105-1.0922-1.8981l-1.0932-1.4325 1.1992 0.28629c1.6556 0.39734 2.3148 0.7743 3.4334 1.9704 1.5527 1.6607 0.27508 3.4446-1.5517 2.166z" fill="#d0d0d0"/>
   <path d="m29.898 45.004c-0.75902-1.0728-1.7259-1.8308-2.7529-2.1589-2.7355-0.87415-2.5369-1.2501 0.66223-1.2501h3.0473l-0.0051-2.0112c-0.01019-3.6076-0.22108-3.9204-2.4747-3.6627-1.08 0.12328-2.4411 0.32398-3.0239 0.44522l-1.0586 0.22108 1.1645 0.61129c1.7463 0.91898 1.5975 2.5654-0.30361 3.3591-1.6332 0.68261-3.9408 0.79468-4.8251 0.23535-0.41364-0.26184-0.054-0.53998 1.2705-0.98113 1.6525-0.55118 1.8522-0.75902 1.8899-1.9775 0.03057-1.0209-0.11105-1.3041-0.56646-1.1278-1.2328 0.47273-3.9113 0.74883-4.8873 0.50432-0.94343-0.23738-2.2862-2.2434-1.8155-2.7131 0.11716-0.11818 0.78959 0.02445 1.4936 0.31584 1.9398 0.80385 12.511-0.42689 12.167-1.4162-0.09271-0.26489-0.62556-0.42994-1.1839-0.36678l-3.2236 0.36881c-2.4982 0.28731-4.1598-0.08252-3.085-0.68567 0.34946-0.19561 1.8502-0.67038 3.3356-1.0555 3.0086-0.7794 4.709-1.7188 4.709-2.6021 0-0.80181-0.58378-0.73763-2.5949 0.28833-0.94343 0.48088-2.2577 0.81811-2.921 0.74883-0.80385-0.08456-1.5537 0.19969-2.2485 0.85377-1.1747 1.1024-2.9464 1.1044-3.1553 0.0031-0.07539-0.39428 0.84155-1.6698 2.112-2.9403 1.9378-1.9358 2.1293-2.2679 1.3988-2.4177-0.94241-0.19358-2.329-1.2908-2.329-1.8441 0-0.19765 0.94852-0.35862 2.109-0.35862 1.1594 0 2.8731-0.30565 3.8104-0.68057 1.9011-0.76106 3.5862-0.5359 3.9968 0.5359 0.40753 1.0616-0.16607 1.3825-3.0055 1.679l-2.5807 0.26999-0.23229 1.7361c-0.12837 0.95464-0.1681 1.8003-0.08966 1.8797 0.07947 0.07845 0.91694-0.25165 1.8614-0.73355 1.8726-0.95464 3.8817-1.1248 5.1654-0.43809 1.0677 0.57054 1.0759 2.5858 0.01528 3.5455-0.78755 0.71318-0.78551 0.7468 0.10596 1.6607 0.81302 0.83136 1.1268 0.89045 2.9301 0.55016 1.6974-0.32195 2.1538-0.26184 2.8578 0.37696 0.46051 0.4167 0.83849 1.1309 0.83849 1.5883 0 0.76819-0.20173 0.80894-2.7141 0.53998l-2.7141-0.29138 0.37493 1.6179c0.51756 2.2271 0.49005 7.635-0.04279 8.6304-0.71827 1.3438-2.1833 0.9852-3.4823-0.85173zm-18.879-0.89656c-1.9032-3.0626-1.7941-3.6229 0.4004-2.0601l1.2297 0.87619 0.02242-0.98214c0.01121-0.53998 0.16403-2.2669 0.33927-3.8389 0.17422-1.572 0.21192-2.8496 0.08354-2.8395-0.12837 0.01019-0.99539 0.44013-1.9266 0.9526-1.4844 0.81913-1.7065 1.138-1.7952 2.5878-0.11513 1.8869-1.0963 3.6382-2.0387 3.6382-1.0779 0-1.1767-1.2002-0.27814-3.3641l0.85887-2.0672-0.97807-0.24452c-0.59907-0.1518-1.1543-0.75596-1.4365-1.5669-0.43809-1.2562-0.41466-1.3061 0.48598-1.0168 2.1803 0.69891 3.8287 0.70502 5.6269 0.01732 1.3163-0.50228 1.8828-0.96075 1.8828-1.5242 0-0.78449-0.03464-0.78449-1.3754 0.03362-1.8033 1.1003-2.9281 1.0616-4.0549-0.13754-1.2399-1.3214-1.1767-1.4539 0.66733-1.3978 1.5201 0.04687 1.5822-0.0051 1.4569-1.2216-0.07335-0.69891-0.50737-1.7931-0.96584-2.435l-0.8334-1.1635h1.0708c1.3703 0 2.7651 1.3887 2.7651 2.7518 0 0.77634 0.22516 1.0586 0.84562 1.0586 0.70604 0 0.84766-0.28221 0.84766-1.6933 0-0.93222-0.20071-1.6943-0.44522-1.6943-0.45949 0-1.8573-2.9189-1.5466-3.2297 0.48496-0.48496 3.5119 1.0229 4.0753 2.0305 0.56646 1.0107 0.55424 1.5201-0.12226 4.8689-0.41466 2.057-0.89351 6.1516-1.0626 9.1001-0.41874 7.2825-1.3856 8.443-3.7992 4.5613zm1.3398-24.084c-0.7417-0.45236-1.5741-1.243-1.8492-1.7564-0.49107-0.91898-0.46458-0.93018 1.5608-0.6602 3.0707 0.40957 3.1848 0.41772 5.1308 0.34538l1.7992-0.066223v-1.9358c0-1.7483-0.09271-1.9286-0.9526-1.8583-1.8217 0.14773-2.3942-0.02241-3.5761-1.0616l-1.1869-1.0453 5.7156-0.02648v-1.4243c0-1.3836-0.0489-1.4243-1.7269-1.4243-1.8726 0-3.8899-1.1798-4.1323-2.4187-0.12022-0.61129-0.0041-0.65612 0.71318-0.27203 1.2338 0.6602 7.5474 0.55526 9.9233-0.16505 2.001-0.60722 4.114-0.32602 4.114 0.54711 0 0.82321-1.6413 1.7697-3.0687 1.7697-2.3657 0-2.708 0.26286-2.5134 1.9276 0.16709 1.4345 0.21701 1.4722 1.624 1.2083 1.0718-0.20173 1.6658-0.07845 2.272 0.46866 1.0922 0.98928 0.69993 1.4753-1.1971 1.4824-2.0142 0.0082-2.4268 0.31685-2.7681 2.0682l-0.28018 1.4386 3.4294-0.26489c3.842-0.29546 5.8888 0.3413 5.8888 1.8339 0 0.78449-0.31584 0.82117-6.4563 0.75902-5.2194-0.05298-6.7711 0.0703-8.0966 0.64491-2.0947 0.90981-2.7152 0.89351-4.3667-0.11411zm16.818-6.766c-0.46764-0.91694-1.0433-1.785-1.2796-1.9307-1.1105-0.68669-0.25267-0.99946 1.1431-0.4167 2.1232 0.88637 3.085 1.8288 3.085 3.0188 0 0.7743-0.23025 0.99335-1.0494 0.99335-0.7957 0-1.2562-0.40345-1.8991-1.6648z" fill="#b0b0b0"/>
   <path d="m30.133 45.146c-0.65001-0.84155-2.1354-1.9735-3.2989-2.5165l-2.1171-0.9852 6.1384-0.0489v-2.2934c0-3.5598-0.0866-3.6535-3.1105-3.354-2.5022 0.24757-4.7925 0.9475-3.1991 0.97807 0.85377 0.01528 2.0764 1.3428 2.0764 2.2536 0 0.38104-0.37391 0.89249-0.83034 1.136-1.301 0.69688-4.4869 1.0035-5.359 0.51552-0.67752-0.38002-0.50432-0.51348 1.2185-0.9475 1.895-0.47782 2.0071-0.5848 2.0071-1.9266 0-1.3825-0.0377-1.4131-1.3754-1.1207-2.9403 0.64186-4.6061 0.38715-5.5322-0.84358-0.47681-0.63676-0.78449-1.2419-0.68159-1.3448 0.1029-0.10188 0.99131 0.02751 1.9735 0.29036 1.4019 0.37391 2.8435 0.33112 6.6886-0.19663 2.6958-0.37085 5.0218-0.79366 5.1675-0.93935 0.14569-0.14569 0.05502-0.47681-0.20376-0.73355-0.34232-0.34334-0.83543-0.34131-1.8339 0.0061-1.6148 0.56341-4.5969 0.61537-5.4181 0.09577-0.63167-0.4004 0.94241-1.0361 3.8114-1.5415 1.9551-0.34334 4.1772-1.6831 4.1772-2.5165 0-0.8609-0.55118-0.80996-2.6163 0.24452-1.084 0.5522-2.2261 0.81302-3.0391 0.69382-1.0025-0.14671-1.4824 0.03871-2.0876 0.80792-0.79876 1.0158-2.5746 1.3479-3.0544 0.57054-0.47579-0.76921 0.21599-2.005 1.6902-3.0147 0.7957-0.54507 1.6148-1.3673 1.8196-1.8267 0.30565-0.68261 0.13958-0.95362-0.90675-1.4875-2.112-1.0759-1.9072-1.7116 0.5522-1.7116 1.192 0 2.8507-0.28527 3.6861-0.63371 1.9816-0.8283 2.8282-0.80181 3.6576 0.11513 1.0321 1.1401 0.34029 1.6953-2.5145 2.0173l-2.5919 0.29444-0.23433 1.7422c-0.12735 0.95769-0.1681 1.8064-0.08966 1.8848 0.07947 0.07947 0.91694-0.25063 1.8614-0.73253 1.8889-0.9638 3.246-1.0922 4.8995-0.46356 1.3387 0.50941 1.4946 2.4727 0.28323 3.5689-0.78449 0.71012-0.78042 0.74782 0.19052 1.7188 0.88637 0.88637 1.1829 0.95056 2.761 0.59601 2.0702-0.46458 3.7788 0.34436 3.7788 1.7911 0 0.82219-0.15894 0.85377-2.8191 0.56952-2.652-0.28425-2.7997-0.2547-2.4961 0.49515 0.56341 1.3907 0.76819 7.9274 0.28629 9.1592-0.63371 1.622-1.8858 1.4834-3.3152-0.36576zm-19.113-1.0392c-1.7137-2.7559-1.6811-3.2236 0.14875-2.1436 1.3448 0.79264 1.4824 0.8069 1.4956 0.14773 0.0071-0.4004 0.18543-2.058 0.39428-3.6841 0.20988-1.6271 0.32195-3.0157 0.24961-3.0891-0.07335-0.07234-0.99029 0.28527-2.0397 0.79468-1.7727 0.8609-1.9093 1.0453-1.9307 2.5949-0.02547 1.8583-1.026 3.7146-2.003 3.7146-1.0698 0-1.1462-1.1075-0.2221-3.1981 0.48394-1.0942 0.88026-2.0407 0.88026-2.1018s-0.47375-0.23127-1.0524-0.37696c-0.6551-0.16301-1.1533-0.66631-1.3204-1.3347-0.33927-1.351-0.0489-1.6485 1.0392-1.0667 2.0275 1.085 6.5378-0.04279 6.983-1.7463 0.11614-0.44421 0.08354-0.74476-0.07234-0.66733-0.1569 0.07743-0.99437 0.50228-1.8614 0.94445-1.7524 0.89249-3.2918 0.54507-4.0753-0.91694-0.36983-0.6928-0.24655-0.75393 1.2246-0.61435l1.6362 0.15588-0.24859-1.6301c-0.13652-0.89656-0.63676-2.058-1.1126-2.5827l-0.86396-0.9526h1.0586c1.2796 0 2.8996 1.6108 2.8996 2.8853 0 0.62454 0.25878 0.92509 0.79978 0.92509 1.2725 0 1.4223-2.7172 0.21395-3.8522-0.51349-0.48292-1.029-1.243-1.1462-1.6882-0.32602-1.2491 2.0101-1.0881 3.3265 0.22822 1.2165 1.2165 1.2868 2.3311 0.37187 5.8613-0.36678 1.4172-0.80487 5.1878-0.96992 8.3788-0.40549 7.7573-1.3357 8.985-3.8033 5.0157zm1.3398-24.083c-0.7417-0.45236-1.5588-1.2134-1.8135-1.6912-0.42179-0.78653-0.3464-0.87007 0.79162-0.87007 0.69178 0 1.7371 0.18339 2.3239 0.40549 0.58684 0.22414 2.0285 0.2924 3.2032 0.15282l2.1365-0.25267v-3.6932h-1.6709c-1.2042 0-1.9999-0.30361-2.8568-1.0901l-1.1879-1.0901 1.6311 0.22414c0.89758 0.12328 2.1844 0.11411 2.8578-0.02038 1.0626-0.21293 1.2267-0.43809 1.2267-1.6749 0-1.408-0.02751-1.4284-1.8818-1.4284-1.3795 0-2.1986-0.27304-3.0697-1.0229-1.4905-1.2837-1.1523-1.6566 1.0494-1.1615 1.5669 0.35149 3.4467 0.23739 10.295-0.62861 1.5415-0.19561 2.001-0.10698 2.2047 0.42485 0.37696 0.98316-1.2858 1.9643-3.3295 1.9643-0.95769 0-1.8298 0.089656-1.9388 0.19867-0.11003 0.11003-0.12022 0.87619-0.02343 1.7045 0.17116 1.462 0.21701 1.4977 1.6271 1.2328 1.0718-0.20173 1.6658-0.07845 2.272 0.46866 1.1411 1.0341 0.68363 1.4763-1.5282 1.4763-1.948 0-1.9949 0.04381-2.491 2.2873l-0.27101 1.2287 3.4192-0.26286c2.1599-0.16709 3.7971-0.09169 4.4461 0.20376 1.0687 0.487 1.6607 1.4406 1.2796 2.058-0.12226 0.19663-3.0279 0.33621-6.4583 0.31074-4.9005-0.03668-6.6335 0.10494-8.0894 0.66223-2.327 0.89147-2.5104 0.88638-4.1537-0.11614zm16.988-6.4512c-0.39123-0.77125-1.0025-1.7361-1.3601-2.1436-0.59193-0.67548-0.57462-0.74068 0.19969-0.74068 1.4549 0 3.7268 1.8176 3.7268 2.9801 0 1.7055-1.6851 1.6423-2.5674-0.09577z" fill="#909090"/>
   <path d="m30.063 45.051c-0.72744-0.91796-2.0845-1.9745-3.0167-2.3474-0.93222-0.37289-1.6953-0.79264-1.6953-0.93222 0-0.13958 1.191-0.18848 2.6459-0.10901l2.6469 0.14467 0.12532-2.8629c0.09373-2.1395-0.02343-2.922-0.46153-3.0901-0.32297-0.12328-2.5705 0.09271-4.9943 0.48088-2.4248 0.38715-5.035 0.79978-5.8022 0.9149-1.5333 0.22923-2.8048-0.59397-3.1889-2.0662-0.17829-0.67854-0.07845-0.78653 0.48598-0.52979 1.3999 0.63676 5.0116 0.64186 8.9045 0.01223 2.1793-0.35149 4.0406-0.71929 4.1385-0.81709 0.09781-0.09679 0.06724-0.46356-0.06724-0.81506-0.21192-0.55016-0.45847-0.56035-1.8094-0.07845-1.8155 0.64797-4.6835 0.75189-5.5536 0.20172-0.44217-0.28018-0.10392-0.51145 1.2695-0.86905l3.354-0.87211c1.8583-0.4819 3.3876-1.5364 3.3876-2.3351 0-0.85988-0.96992-0.75902-2.7366 0.28323-0.98826 0.58277-1.9694 0.82626-2.8232 0.70095-0.97603-0.14264-1.5608 0.06113-2.3005 0.79977-1.1645 1.1645-2.5195 1.2919-2.9098 0.27304-0.19663-0.51247 0.33825-1.3092 1.8593-2.7681 1.1747-1.1258 2.1324-2.1833 2.1273-2.3494-0.0051-0.16607-0.61435-0.58786-1.355-0.93732-2.2343-1.0555-1.9246-1.6006 1.0239-1.7972 1.4671-0.09781 3.2928-0.44319 4.0549-0.76921 1.6026-0.68261 2.8476-0.18848 2.8476 1.1309 0 0.65918-0.4656 0.866-2.6459 1.1767-2.4146 0.34436-2.6459 0.46662-2.6459 1.4039 0 0.56545-0.19765 1.3958-0.43809 1.8461-0.59194 1.1054 0.35048 1.0942 2.4442-0.02751 3.9245-2.1028 7.4822 0.42689 4.494 3.196-0.82117 0.76106-0.94037 1.0382-0.44726 1.0382 0.36983 0 0.94954 0.3953 1.2888 0.87822 0.54914 0.78449 0.78959 0.83034 2.2465 0.42587 0.89656-0.24859 1.7738-0.45439 1.949-0.45541 0.56748-0.0041 2.0112 1.6739 2.0112 2.3382 0 0.54405-0.44726 0.6011-2.8221 0.35761-2.6622-0.27304-2.8048-0.2435-2.5032 0.51756 0.53896 1.3571 0.78449 7.0686 0.37187 8.6396-0.56443 2.1467-1.7941 2.1721-3.4599 0.06826zm-19.06-0.96992c-0.74272-1.1941-1.2409-2.2791-1.1085-2.4116 0.13245-0.13245 0.78449 0.08049 1.4508 0.47273l1.2093 0.71521 0.23739-1.7952c0.13041-0.98826 0.35862-2.7834 0.50635-3.9917l0.26999-2.1956-2.1497 1.137c-1.893 1.0025-2.1497 1.298-2.1528 2.4859-0.0071 2.706-1.4966 4.7375-2.6367 3.5964-0.40957-0.40957-0.0214-1.8614 1.2929-4.8363 0.07743-0.17626-0.13143-0.31991-0.46356-0.31991-0.79162 0-2.0071-1.3591-2.0071-2.2455 0-0.5736 0.19358-0.62352 1.0871-0.28527 3.0993 1.1798 7.3814-0.31278 7.3814-2.5715 0-0.20682-0.6928 0.09475-1.5415 0.66936-1.7921 1.2165-2.5725 1.2939-3.8685 0.38715-1.3448-0.94241-1.1635-1.4579 0.5145-1.4579 1.4416 0 1.4528-0.01426 1.2144-1.5883-0.13245-0.87313-0.63065-2.0162-1.1064-2.5399l-0.86396-0.9526h0.93935c1.2532 0 3.0188 1.8217 3.0188 3.1166 0 1.5608 1.5272 0.99437 1.8644-0.69178 0.20784-1.0392 0.04279-1.5384-0.80181-2.4197-1.9969-2.0845-1.0922-3.2399 1.4926-1.9032 1.6648 0.86192 1.9174 2.2108 1.0494 5.6137-0.39938 1.5659-0.85887 5.4191-1.0219 8.5622-0.4167 8.0456-1.3561 9.3915-3.8063 5.4507zm9.5015-3.2959c-0.13245-0.21395 0.57156-0.66223 1.5629-0.99845 1.5741-0.53182 1.787-0.75087 1.6811-1.7289-0.09475-0.85785 0.06419-1.1207 0.67446-1.1207 1.1278 0 2.33 1.459 2.0173 2.4462-0.40549 1.2756-5.2989 2.4309-5.9357 1.4019zm-7.6432-20.591c-2.7396-1.4039-3.0717-2.9801-0.52979-2.5104 1.5792 0.29138 6.7089 0.35862 6.8893 0.08966 0.03668-0.054-0.01732-0.90879-0.12124-1.8981-0.18542-1.7727-0.21395-1.8003-1.8135-1.8003-1.1441 0-1.9775-0.31685-2.813-1.0708l-1.1879-1.0708 1.9684 0.26489c2.9087 0.39428 3.7472 2e-3 3.7472-1.7503 0-1.4365-0.02038-1.4528-1.8818-1.4528-1.3795 0-2.1986-0.27304-3.0697-1.0229-1.4997-1.2908-1.2185-1.5771 1.0473-1.0677 1.6495 0.36983 3.3509 0.24859 10.278-0.73355 1.03-0.14569 1.6709-0.013245 2.0315 0.42077 0.812 0.97807-0.94241 1.9796-3.4681 1.9796-1.9429 0-2.057 0.06011-1.8176 0.9526 0.1406 0.52367 0.25776 1.3071 0.26184 1.7412 0.0041 0.67344 0.22414 0.7468 1.5191 0.5033 1.5792-0.29546 2.7203 0.24044 2.7203 1.2776 0 0.36678-0.68872 0.60416-1.9969 0.68872-1.9307 0.1243-2.0101 0.18339-2.3769 1.7401-0.20784 0.88638-0.29138 1.6974-0.18543 1.8033 0.10698 0.10698 1.6831-0.01324 3.5027-0.26591 3.0279-0.42077 3.4029-0.39123 4.4054 0.35863 0.60314 0.4493 1.0963 1.083 1.0963 1.408 0 0.47681-1.247 0.59295-6.5622 0.60926-5.251 0.01528-6.877 0.16301-8.1363 0.74068-1.9113 0.87619-1.9246 0.87619-3.5068 0.0652zm16.648-6.4074c-0.28018-0.65612-0.88638-1.622-1.3489-2.1456-0.83747-0.95056-0.83747-0.9526 0.01834-0.9526 1.462 0 3.735 1.8135 3.735 2.9801 0 1.5985-1.7381 1.6841-2.4044 0.11818z" fill="#6f6f6f"/>
   <path d="m30.025 45.003c-0.72846-0.92102-1.9826-1.9113-2.7875-2.2027-2.1599-0.78042-1.7768-1.2491 0.7743-0.94954 2.8568 0.33621 3.2042-0.07845 2.8782-3.4314l-0.24554-2.5399-2.329 0.0866c-1.2807 0.04687-4.0906 0.41058-6.2444 0.80691-3.6983 0.68159-3.9602 0.68057-4.7202-0.0082-0.44319-0.40035-0.90675-1.1125-1.029-1.5812-0.17626-0.67548-0.07539-0.78755 0.487-0.53998 1.4314 0.63269 4.1935 0.69789 8.1577 0.19358 4.5113-0.57563 5.1909-0.83136 4.8119-1.8186-0.23229-0.60518-0.44013-0.61333-1.9735-0.07132-1.842 0.64899-3.8644 0.73763-5.1715 0.22516-0.63982-0.25063-0.36983-0.43198 1.2705-0.85174 3.5353-0.90675 5.5465-1.7289 6.3228-2.5868 0.69993-0.7743 0.70095-0.83951 0.01834-1.1013-0.41466-0.15894-1.5435 0.12939-2.6265 0.67038-1.1676 0.58277-2.3331 0.866-3.0259 0.73355-0.82321-0.1569-1.3764 0.05807-2.0682 0.80283-1.083 1.1696-2.4656 1.3326-2.8476 0.3352-0.17829-0.46458 0.41568-1.3398 1.8593-2.7386 1.1676-1.1309 2.1222-2.2068 2.1222-2.3891 0-0.18339-0.57156-0.58684-1.2705-0.89656-1.8288-0.80894-1.5761-1.2022 0.98112-1.5211 1.2389-0.15486 2.7844-0.5573 3.4355-0.89554 1.5119-0.78449 2.5409-0.7794 3.2001 0.01528 0.94852 1.1431 0.18339 1.7809-2.5002 2.0845-2.491 0.28221-2.5756 0.33214-2.5756 1.516 0 0.67242-0.19052 1.3418-0.42383 1.4854-0.64695 0.39938-0.50432 1.0596 0.22822 1.0596 0.35863 0 1.4345-0.4004 2.3912-0.88841 3.7747-1.9256 7.1419 0.6062 4.3045 3.2368-0.82117 0.76106-0.94037 1.0382-0.44726 1.0382 0.36983 0 0.96279 0.41262 1.3163 0.91796 0.59295 0.84562 0.77634 0.87924 2.3382 0.41058 1.7931-0.53692 3.1431-0.11513 3.6219 1.135 0.40346 1.0504-0.17931 1.2684-2.76 1.0351l-2.5542-0.23229 0.33214 1.8593c0.53488 2.9964 0.39225 7.796-0.25471 8.5764-0.8823 1.0626-1.5517 0.84358-2.9953-0.98011zm-18.319 0.08558c-0.32093-0.64084-0.92916-1.6892-1.3499-2.329-0.866-1.3153-0.35149-1.5313 1.2104-0.50737 0.98622 0.64593 1.0066 0.63065 1.243-0.9526 0.13245-0.88536 0.36066-2.6866 0.50737-4.004l0.26795-2.3932-2.1599 1.0341c-1.9928 0.95362-2.1609 1.1513-2.1609 2.5206 0 1.8033-1.0565 3.9846-1.9296 3.9846-1.0514 0-1.1176-1.0066-0.20376-3.1359 1.0229-2.3871 1.0198-2.3677 0.29342-2.3677-0.7468 0-1.9704-1.3703-1.9704-2.2068 0-0.58582 0.19052-0.59193 1.7452-0.05705 1.3825 0.47681 2.0641 0.50126 3.2806 0.11513 2.2883-0.72336 3.4416-1.5782 3.4416-2.5471 0-0.8609-0.0061-0.86192-1.1645-0.04585-1.8461 1.3-2.9882 1.5048-4.1486 0.74476-1.4477-0.94852-1.2939-1.5079 0.41772-1.5079 1.4427 0 1.4528-0.01324 1.2124-1.5873-0.13245-0.87313-0.50228-1.8879-0.82015-2.2557-0.75291-0.87109-0.7305-1.2368 0.07641-1.2368 1.0239 0 2.7335 1.9653 2.7335 3.1431 0 0.83543 0.15894 1.0056 0.74068 0.7906 1.6861-0.62148 1.8135-2.2333 0.31787-4.0111-1.785-2.1212-1.192-3.084 1.2216-1.9847 1.7921 0.8171 2.1701 2.4696 1.3173 5.7665-0.40753 1.572-0.866 5.4303-1.0219 8.5734-0.28018 5.6748-0.77227 7.6208-1.9256 7.6208-0.32297 0-0.85072-0.52368-1.1716-1.1635zm9.0512-4.2719c-0.41772-0.27916-0.07132-0.54405 1.2705-0.97094 1.6403-0.52265 1.8298-0.71419 1.7218-1.7473-0.09475-0.89656 0.05807-1.1615 0.67446-1.1615 0.85785 0 2.1986 1.2419 2.1986 2.0356 0 1.2419-4.6051 2.6897-5.8654 1.8441zm-7.902-20.617c-1.3245-0.65408-2.5695-2.2068-2.1253-2.651 0.13958-0.1406 1.1115-0.02547 2.1599 0.2547 2.4798 0.66325 6.6835 0.23433 6.3452-0.64899-0.12837-0.33417-0.23433-1.1645-0.23433-1.8441 0-1.1564-0.10596-1.2358-1.6688-1.2358-1.1533 0-2.0366-0.31482-2.8527-1.0178l-1.1839-1.0178 5.7054 0.45847v-3.3957l-2.1956-0.2109c-1.6067-0.15384-2.4044-0.46866-2.9739-1.1716-0.4279-0.52979-0.72031-1.0198-0.64797-1.0922 0.07132-0.071318 0.93732 0.075393 1.9246 0.32602 1.3204 0.33519 2.7141 0.31685 5.2775-0.068261 5.3284-0.80079 6.8261-0.7794 6.9993 0.097807 0.18033 0.91184-1.4182 1.5894-3.7533 1.5894-1.785 0-1.8074 0.033621-1.3937 2.1039 0.24961 1.244 0.38206 1.3418 1.517 1.1146 1.4314-0.28527 2.868 0.33621 2.868 1.2409 0 0.45134-0.51145 0.62046-1.8807 0.62046-2.1263 0-2.1619 0.03158-2.5847 2.2873l-0.3087 1.6454 2.704-0.34946c3.952-0.51043 5.0044-0.41364 5.9672 0.54914 1.5955 1.5955 0.69382 1.8593-5.3111 1.5557-5.0085-0.25267-5.8378-0.19052-8.2046 0.61435-3.0942 1.0514-2.5776 1.0209-4.1486 0.24452zm16.95-6.1027c-0.15282-0.47986-0.78449-1.4753-1.4039-2.2108l-1.1258-1.3387 1.2358 0.31074c1.9857 0.4982 3.68 1.9103 3.5323 2.9444-0.17728 1.2491-1.8655 1.4702-2.2384 0.29546z" fill="#4f4f4f"/>
   <path d="m30.025 44.939c-0.76819-0.95565-1.9908-1.9959-2.7172-2.3127-1.3173-0.57258-1.3153-0.57462 1.0687-0.59092 2.8384-0.02037 2.9974-0.25572 2.6174-3.8919l-0.26999-2.5786-2.7916 0.26795c-1.5354 0.14875-4.2627 0.57869-6.0589 0.95769-3.033 0.63778-3.3438 0.63676-4.3402-0.01528-1.9684-1.2908-1.3785-1.8807 1.6383-1.6393 1.4916 0.12022 4.3015-0.0071 6.2454-0.28221 4.8873-0.6928 5.0921-0.76819 4.5307-1.6678-0.4279-0.68363-0.63982-0.6928-2.8527-0.11615-2.1304 0.55526-5.2062 0.4167-4.5837-0.20682 0.12328-0.12226 1.6077-0.57971 3.2989-1.0147 3.3-0.84868 5.6443-2.5246 4.764-3.4049-0.33417-0.33417-1.081-0.14875-2.6958 0.66937-1.4437 0.73151-2.6235 1.0535-3.3397 0.90981-0.81098-0.16301-1.3754 0.05807-2.1151 0.82524-1.135 1.1798-2.2791 1.1808-2.5063 1e-3 -0.09781-0.51145 0.53081-1.4131 1.7952-2.5735 1.0698-0.98316 1.9449-1.9602 1.9429-2.1721-1e-3 -0.21192-0.62046-0.75393-1.3754-1.2042l-1.3734-0.8191 2.2771-0.30565c1.2532-0.16811 3.032-0.64491 3.953-1.0606 1.8695-0.84257 3.084-0.47477 3.084 0.93426 0 0.58276-0.3464 0.83136-1.2705 0.91184-3.4029 0.29953-3.9225 0.51349-4.1262 1.6984-0.11003 0.63472-0.35251 1.515-0.53998 1.9572-0.2924 0.68974-0.19561 0.77023 0.68057 0.56341 0.56239-0.13245 1.8848-0.57156 2.9393-0.97807 1.6933-0.65204 2.0611-0.66733 3.1696-0.13652 1.6811 0.80487 1.8033 1.9011 0.37696 3.3886-0.64695 0.67548-0.95769 1.2287-0.68974 1.2287 0.26693 0 0.87619 0.41975 1.355 0.93222 0.79468 0.85275 1.0219 0.89147 2.6622 0.44624 1.6648-0.45032 1.8685-0.4116 2.8364 0.54405 1.4172 1.3978 0.76208 1.84-2.2108 1.4926l-2.438-0.28527 0.32093 2.1395c0.45541 3.032 0.26999 7.7869-0.33112 8.5123-0.80894 0.97399-1.4365 0.73355-2.9301-1.1238zm-18.319 0.14977c-0.32093-0.64084-0.92916-1.6892-1.3499-2.329-0.8609-1.3082-0.487-1.4977 0.95769-0.48598 0.53284 0.37289 1.0626 0.58378 1.1788 0.46866 0.26082-0.26184 0.9852-5.1756 0.99641-6.765l0.0082-1.1706-2.1161 1.0728c-1.8125 0.91796-2.1171 1.2511-2.1171 2.3086 0 2.5471-1.3418 4.6499-2.4044 3.7676-0.41568-0.34436-0.35149-0.89962 0.30361-2.6214 0.99131-2.6082 0.97297-2.3963 0.20478-2.3963-0.65306 0-2.1864-1.9867-1.8176-2.3555 0.11716-0.11615 1.0473 0.01019 2.0682 0.28323 1.6495 0.44013 2.1059 0.38817 4.0794-0.46153 1.7626-0.75902 2.2231-1.1594 2.2231-1.9337v-0.97705l-1.893 1.0575c-1.6902 0.94547-2.0142 0.99844-3.0381 0.49922-1.7717-0.86294-1.7503-1.6158 0.04585-1.6158h1.5364l-0.28527-1.5883c-0.15588-0.87313-0.57563-1.9225-0.93324-2.3311-0.84766-0.96992-0.48088-1.2898 0.88434-0.77023 1.2858 0.48903 2.1518 1.9072 1.8553 3.0391-0.24452 0.93324-0.2547 0.93018 1.1655 0.39021 1.4304-0.54405 1.4426-2.2159 0.02751-3.898-1.7911-2.1273-1.192-3.084 1.2379-1.9765 1.6118 0.73355 2.058 2.6357 1.2735 5.4405-0.35761 1.2807-0.79672 5.0921-0.97603 8.4684-0.32195 6.0722-0.79876 8.0436-1.9429 8.0436-0.32398 0-0.85173-0.52368-1.1727-1.1635zm9.205-4.2291c-0.65408-0.16505-0.4167-0.37187 1.0586-0.92509 1.6709-0.62556 1.8858-0.8497 1.7789-1.8543-0.09373-0.87924 0.06113-1.1421 0.67548-1.1421 0.85785 0 2.1986 1.2409 2.1986 2.0346 0 1.1513-3.734 2.384-5.7115 1.8869zm-7.6554-20.636c-1.4304-0.60926-2.9923-2.2078-2.5705-2.6296 0.15792-0.15792 1.2083-0.05094 2.3331 0.23637 1.2042 0.3087 2.9036 0.41058 4.1303 0.24859l2.0845-0.27712-0.01019-1.8614c-0.01019-1.8441-0.02445-1.8624-1.4916-1.8644-1.2144-0.0031-4.2342-1.301-4.2342-1.8206 0-0.07641 1.1574-0.05502 2.5725 0.04687 1.4141 0.10188 2.7508 0.0071 2.9688-0.2109 0.21803-0.21905 0.27508-1.0046 0.12735-1.7473-0.24044-1.2022-0.42791-1.3489-1.7198-1.3489-1.7116 0-3.736-0.95362-4.114-1.9368-0.20682-0.53998-0.09984-0.62861 0.47885-0.38715 1.4956 0.62148 4.6713 0.71012 7.5423 0.20988 5.6901-0.99233 5.6646-0.99131 5.956-0.23229 0.42077 1.0963-0.36678 1.5506-3.1196 1.8003l-2.5308 0.22923 0.42587 1.676c0.40345 1.5914 0.49209 1.6637 1.7605 1.4253 1.4814-0.27814 3.1013 0.58277 2.6051 1.3856-0.16607 0.26795-1.1156 0.487-2.11 0.487-1.7972 0-1.8125 0.01223-2.2455 1.9052l-0.43606 1.9052 1.5293-0.01834c0.84155-0.01019 2.3413-0.17524 3.3336-0.36678 2.0295-0.39326 4.546 0.52367 4.546 1.6556 0 0.53998-0.87924 0.61435-5.9275 0.49617-5.0432-0.11818-6.279-0.01528-8.2861 0.6928-2.004 0.70502-2.545 0.75087-3.5985 0.30157zm15.917-7.2571c-0.7254-1.0759-1.2307-2.0448-1.1227-2.1538 0.10901-0.108 0.88637 0.13041 1.7279 0.52979 1.6505 0.78347 2.5532 2.0132 2.1823 2.978-0.4279 1.1146-1.459 0.61333-2.7875-1.355z" fill="#2f2f2f"/>
   <path d="m29.765 44.742c-0.8823-0.96278-2.1762-2.003-2.8751-2.3127-1.245-0.55017-1.2236-0.56137 1.139-0.57768 1.3255-0.0092 2.5369-0.2221 2.6927-0.47375 0.15486-0.25063 0.15078-1.68-0.0092-3.1757l-0.29138-2.7182-1.7656 0.01528c-1.5649 0.01325-5.5638 0.6388-9.4485 1.4783-1.0392 0.22516-1.5272 0.09271-2.222-0.60212-1.1859-1.1859-1.1564-1.8848 0.06113-1.4722 1.6301 0.55118 12.355-0.38002 12.807-1.1126 0.10188-0.16403-0.04585-0.60824-0.3301-0.98724-0.47375-0.63269-0.69891-0.63371-2.7885-0.01528-1.6301 0.4819-2.6489 0.56239-3.5995 0.28323-1.2786-0.37594-1.2205-0.41568 1.6821-1.136 3.356-0.83238 5.6718-2.0509 5.6718-2.9821 0-1.1085-0.71929-1.1013-3.195 0.0326-1.9327 0.88434-2.597 1.0178-3.1991 0.64186-0.62556-0.39123-0.9852-0.24757-2.0529 0.82117-0.71216 0.71114-1.5313 1.2155-1.8217 1.1187-1.1808-0.39326-0.71318-1.6678 1.3479-3.6749 2.381-2.3199 2.6387-2.9933 1.1411-2.9933-0.55424 0-1.2226-0.25878-1.4844-0.57564-0.39021-0.46866-0.05705-0.61842 1.8054-0.81098 1.2562-0.12939 2.9036-0.55628 3.6596-0.9475 1.0718-0.55424 1.5985-0.61129 2.3769-0.25674 2.0529 0.9363 1.0137 2.1416-1.893 2.1976-2.1467 0.04075-2.816 0.42994-2.8649 1.6637-0.02241 0.58175-0.18542 1.3917-0.3627 1.7992-0.25471 0.58888-0.11615 0.73864 0.6765 0.72744 0.54914-0.0071 1.3683-0.29342 1.8196-0.63473 0.45236-0.34232 1.7004-0.62148 2.7732-0.62148 3.0819 0 3.8328 1.3785 1.8695 3.4283-1.081 1.1278-1.084 1.1513-0.21192 1.4274 0.48802 0.15486 0.88638 0.56239 0.88638 0.90471 0 0.49413 0.5359 0.59805 2.5827 0.50126 2.325-0.11105 2.651-0.02038 3.2704 0.89554l0.68872 1.0178-2.8894-0.23229-2.8884-0.23127 0.28527 1.897c0.44421 2.9658 0.30259 8.1995-0.23942 8.8536-0.73355 0.8823-1.0514 0.75087-2.8038-1.1604zm-18.862-0.84766c-0.80691-1.2491-1.4039-2.3443-1.3265-2.435 0.07743-0.08864 0.64288 0.16709 1.2572 0.56952s1.2705 0.57054 1.4569 0.37493c0.18746-0.19663 0.47477-2.0224 0.63982-4.0569l0.29953-3.7004-2.1568 0.9475c-1.9949 0.8772-2.1579 1.0596-2.1731 2.4309-0.02038 1.841-0.84868 3.5455-1.8135 3.7319-0.91694 0.17626-0.96788-1.3601-0.09475-2.8853 0.83136-1.4549 0.78042-2.0142-0.21293-2.329-0.83136-0.26489-1.9429-1.7952-1.572-2.167 0.10392-0.10392 1.0239 0.02954 2.0448 0.29546 1.5995 0.41772 2.1507 0.3678 3.9734-0.35659 1.7391-0.69178 2.1426-1.0494 2.2567-2.0071l0.13958-1.1676-1.46 0.90268c-1.7279 1.0677-3.3713 1.1584-4.2933 0.23637-0.93426-0.93528-0.84868-1.0463 0.71114-0.92407l1.3754 0.10698-0.14365-1.9052c-0.07947-1.0473-0.3413-2.1426-0.58073-2.435-0.32399-0.39123-0.21803-0.52877 0.40956-0.52877 1.1441 0 1.9388 1.0514 1.9388 2.5634 0 1.3459 0.02241 1.3622 1.4467 0.98112 1.3937-0.37391 1.3306-2.8843-0.10596-4.2159-1.4834-1.3744-1.4264-2.4757 0.10494-2.0927 2.2057 0.55016 2.759 1.4427 2.5032 4.0345-0.12633 1.2807-0.42281 3.1859-0.65918 4.2342-0.23738 1.0473-0.44319 3.6199-0.45847 5.7156-0.0326 4.2831-0.49515 6.8057-1.4162 7.7278-0.55016 0.54914-0.79978 0.35251-2.0906-1.6464zm10.272-3.9031c2.2618-0.73966 2.6387-1.0952 2.3545-2.2241-0.3138-1.2521 0.5196-1.353 1.9032-0.23229 1.9001 1.5384-0.02445 3.0687-3.7564 2.9851l-1.9826-0.04381zm-9.8214-21.039c-0.7091-0.70808-1.1767-1.4019-1.0392-1.5394 0.13856-0.13856 1.1075-0.01121 2.1538 0.28119 1.2022 0.33621 2.7641 0.42485 4.2464 0.23942l2.3433-0.2924v-1.8746c0-1.9133-0.13448-2.0417-1.9806-1.895-0.50737 0.03973-1.5557-0.27304-2.329-0.69484l-1.406-0.76717 2.8476-0.12532 2.8486-0.1243-0.07947-1.7809-0.07845-1.7799-2.0213-0.00306c-1.6505-0.00204-2.2373-0.22108-3.193-1.1869l-1.1706-1.1839 1.192 0.44624c1.7524 0.65612 5.9041 0.54303 9.1877-0.24961 3.0198-0.72846 4.2271-0.60009 4.2271 0.45032 0 0.70401-2.4146 1.5089-4.5378 1.5129-0.89452 0.00102-1.3071 0.18339-1.2002 0.53182 0.08966 0.29036 0.28425 1.0759 0.43096 1.7452 0.24248 1.0973 0.40244 1.1941 1.6342 0.99437 1.4763-0.23942 3.1013 0.6011 2.6316 1.3601-0.15282 0.24757-1.1044 0.45134-2.113 0.45134-1.6515 0-1.8624 0.11614-2.112 1.1645-0.15282 0.63982-0.38511 1.5221-0.51552 1.9592-0.22414 0.75189-0.02343 0.77838 3.7941 0.49209 3.8002-0.28527 4.0845-0.24859 4.9647 0.63167 1.4202 1.4192 0.5196 1.6423-5.5526 1.3724-4.3402-0.19358-5.8012-0.10494-7.5189 0.45745-3.0789 1.0066-4.17 0.89249-5.6545-0.59194zm18.156-5.1664c-0.31584-0.52469-0.89656-1.4773-1.2898-2.1171-0.812-1.3245-0.68872-1.4029 0.91592-0.57258 1.6189 0.83747 2.7702 2.2271 2.4757 2.9913-0.36372 0.94954-1.4386 0.79468-2.1018-0.30157z" fill="#020202"/>
  </g>
 </g>
</svg>
