<svg width="177.17" height="177.17" xmlns="http://www.w3.org/2000/svg"><filter id="a"><feGaussianBlur in="SourceAlpha" result="blur" stdDeviation="2"/><feOffset dx="2" dy="2" result="offsetBlur"/><feBlend in="SourceGraphic" in2="offsetBlur"/></filter><path transform="translate(25.2 13.202) scale(3.0096)" d="M21.015.615A246.49 246.49 0 008.807 4.01c-.467.163-1.13.263-1.201.865-.709 3.416-1.178 6.885-1.737 10.331-1.73 11.255-3.378 22.528-5.1 33.78.155.682 1.013.424 1.51.48 12.894.025 25.788.03 38.68-.033.672-.156.28-.952.279-1.409-2.011-13.12-3.876-26.263-5.998-39.366-.277-1.356-.348-2.782-.816-4.087-.347-.497-1.073-.468-1.588-.704C29.004 2.73 25.163 1.6 21.286.636a.885.885 0 00-.271-.021zm5.09 6.246c.365-.09.92.166.758.61-.396.628-1.268.624-1.918.781-1.09.222-2.256.114-3.306.483-.63.354-.178 1.135-.076 1.655.247.62.277 1.396.756 1.89.94.365 2.004.015 2.972.243.249.134.686.333.69.638-.78.372-1.715.217-2.56.352-.646-.011-1.31.347-1.464 1.015-.258.953-.585 1.922-.62 2.912.167.662 1.021.469 1.53.495 1.608-.006 3.19-.394 4.791-.39.836.05 1.783.098 2.388.75.101.133.483.367.335.538-.694.315-1.518.14-2.264.202-2.92.036-5.843-.135-8.76-.008-1.698.085-3.226 1.068-4.912 1.118-1.306-.093-2.363-1.031-3.143-2.012-.081-.208.42.002.574-.014 1.862.426 3.784.668 5.691.414.648-.113 1.355-.064 1.952-.345.237-.68.018-1.447.07-2.162-.056-.69.11-1.725-.68-2.052-.847-.195-1.754-.007-2.575-.357-.569-.18-1.1-.462-1.618-.758 1.41-.004 2.866.286 4.25-.068.813-.352.696-1.426.595-2.144-.098-.69-.322-1.59-1.151-1.687-1.469-.167-3.14-.22-4.243-1.33-.372-.332.255-.051.467-.02 3.258.677 6.603.027 9.827-.557.547-.085 1.093-.176 1.644-.192zm2.537 15.879c.546-.072 1.004.405 1.215.845-.506.674-1.47.555-2.22.713-1.037.157-2.366.1-3.033 1.063-.405.982-.578 2.055-.86 3.075-.046.635.756.859 1.246.632 1.51-.374 2.93-1.16 4.47-1.36.774-.097 1.479.373 2.115.762.564.408.184 1.177-.16 1.603-.397.657-1.168 1.116-1.335 1.889.042.734 1 .565 1.32 1.11.45.56 1.042 1.177 1.839 1.033.997-.039 1.943-.567 2.935-.406.626.298 1.084.882 1.433 1.469-1.638-.003-3.264-.148-4.885-.349-.656.13-.299.901-.284 1.34.46 2.89.64 5.888.108 8.777-.057.438-.46 1.062-.963.758-1.1-.702-1.757-1.92-2.793-2.717a7.982 7.982 0 00-1.245-.877c1.04-.104 2.185.056 3.133-.457.828-.678.6-1.885.574-2.826-.133-1.172-.144-2.387-.428-3.525-.358-.406-1.022-.087-1.507-.158-3.494.12-6.895 1.026-10.348 1.477-.821.126-1.42-.584-1.958-1.081-.147-.104-.192-.463.079-.336 1.81.215 3.646.145 5.465.09 2.326-.155 4.66-.414 6.93-.956.552-.098 1.06-.676.744-1.235-.243-.646-.884-1.15-1.598-.971-1.74.325-3.473.93-5.265.672 2.38-.79 5.072-1.165 7.002-2.923.516-.435.837-1.41.163-1.85-.817-.354-1.691.162-2.457.43-1.218.524-2.462 1.185-3.835 1.046-.957-.095-1.741.515-2.392 1.135-.384.268-.917.802-1.401.48-.354-.497.104-1.094.438-1.467.934-1.139 2.113-2.08 2.957-3.29.333-.707-.525-1.173-.997-1.516-.295-.191-.618-.33-.906-.533 1.873-.304 3.807-.548 5.539-1.38.372-.148.768-.184 1.165-.186zm-15.608 1.527c1.318.108 2.721 1.051 2.75 2.474.121 1.827-.586 3.57-.746 5.376-.479 3.3-.509 6.65-.845 9.959-.188 1.085-.27 2.288-.905 3.217-.318.357-.673-.224-.85-.457-.595-.924-1.174-1.953-1.687-2.87.614.293 1.254.83 1.963.706.623-.37.474-1.25.669-1.855.362-2.02.55-4.07.645-6.113-.264-.643-1.014-.17-1.438.011-1.083.582-2.362.972-3.172 1.948-.601.864-.212 1.988-.601 2.928-.24.65-.454 1.503-1.146 1.803-.288.05-.559-.28-.407-.564.217-1.295.944-2.443 1.2-3.726.03-.516-.49-.8-.927-.85-.574-.34-1.095-.914-1.327-1.511 1.517.19 3.089.853 4.603.263 1.02-.373 2.097-.735 2.945-1.433.603-.57.635-1.468.598-2.238-.138-.488-.706-.319-.997-.084-.937.497-1.818 1.129-2.83 1.456-.838.143-1.643-.343-2.2-.924.785-.114 1.628.042 2.388-.188.287-.593.054-1.302.019-1.94-.073-.996-.508-1.992-1.076-2.744.783.13 1.566.538 1.891 1.31.36.542.333 1.203.208 1.815-.057.585.635.902 1.107.627.949-.23 1.952-.922 1.92-2.007.094-1.578-1.22-2.681-1.962-3.922-.089-.207-.134-.55.21-.467zm11.242 12.85c.759.111 1.433.715 1.734 1.404.11.582-.62.846-1.039 1.052-1.075.46-2.237.726-3.416.645.877-.413 2-.634 2.516-1.532.041-.5-.063-1.04.048-1.521.043-.04.101-.046.157-.048z" fill="#feec99" filter="url(#a)"/><g stroke-width="1.019"><path d="M115.022 149.07c-2.024-2.532-6.323-5.832-9.555-7.328l-5.88-2.717 18.473-.748v-4.881c0-2.686-.33-6.544-.736-8.57-.69-3.447-1.085-3.662-6.053-3.29-2.922.22-6.574.665-8.116.987l-2.802.588 3.17 3.171c2.628 2.628 2.932 3.618 1.77 5.786-1.788 3.342-6.302 5.047-13.36 5.047-7.494 0-8.236-1.926-1.595-4.14 5.535-1.842 6.98-3.986 4.882-7.248-.963-1.502-2.263-1.58-7.243-.442-7.276 1.665-11.415.411-13.46-4.078-1.914-4.197-.736-5.187 3.888-3.271 3.826 1.585 9.4 1.294 27.872-1.457 8.448-1.257 10.848-2.428 8.26-4.029-.536-.33-3.998.184-7.696 1.141-3.695.96-7.41 1.533-8.26 1.272-.85-.26-3.235-.846-5.299-1.303-4.903-1.085-2.563-2.624 6.942-4.575 8.07-1.655 16.564-5.976 16.564-8.423 0-2.4-1.472-2.11-8.916 1.748-5.056 2.625-7.099 3.112-8.718 2.08-1.665-1.062-3.01-.568-6.316 2.32-3.416 2.984-4.667 3.422-6.69 2.34-3.993-2.137-2.941-5.12 4.2-11.925 5.9-5.617 6.369-6.427 3.98-6.831-1.49-.255-4.026-1.865-5.636-3.579l-2.928-3.118 6.911-.03c4.13-.016 9.168-1.05 12.52-2.57 6.212-2.821 9.615-2.367 11.713 1.548 1.999 3.741.113 4.98-8.8 5.786-7.4.675-7.7.837-7.605 4.17.052 1.908-.307 4.127-.803 4.928-1.319 2.134 3.373 1.827 6.332-.411 5.173-3.913 18.4-1.211 18.4 3.756 0 .957-1.484 3.505-3.3 5.66-2.612 3.106-2.87 3.922-1.232 3.922 1.134 0 2.42.92 2.852 2.048.64 1.671 1.959 1.895 7.113 1.211 7.022-.932 11.13 1.297 11.13 6.032 0 2.345-.588 2.468-8.198 1.686l-8.202-.837 1.195 4.158c1.748 6.092 1.506 25.652-.337 27.495-2.778 2.778-6.675 1.625-10.431-3.079zm-57.815-3.924c-2.284-3.938-3.863-7.451-3.51-7.804.545-.543 2.195.098 8.502 3.302.963.491 2.971-18.62 2.054-19.538-.334-.33-2.84.411-5.571 1.65-4.425 2.008-4.986 2.775-5.112 6.985-.171 5.789-3.501 11.195-6.896 11.195-3.271 0-3.271-3.946-.003-11.149 2.361-5.2 2.364-5.415.126-5.415-2.698 0-4.489-1.925-5.817-6.24-.846-2.753-.643-2.968 2.076-2.177 7.647 2.214 11.34 2.239 16.917.11 4.164-1.59 5.844-2.943 5.844-4.7 0-2.398-.095-2.392-3.357.172-4.25 3.342-9.917 3.382-13.207.092-3.888-3.888-3.204-5.336 2.054-4.348l4.6.861-.896-5.58c-.49-3.073-1.701-6.225-2.689-7-2.64-2.083-2.198-3.045 1.39-3.045 1.753 0 4.332 1.146 5.733 2.548 1.405 1.4 2.551 3.983 2.551 5.734 0 3.467.108 3.553 3.082 2.413 2.882-1.107 2.572-7.902-.482-10.493-1.37-1.162-2.882-3.753-3.357-5.758-.85-3.575-.785-3.624 3.45-2.73 9.146 1.939 12.093 8.654 8.68 19.763-.751 2.447-1.84 12.765-2.42 22.926-.579 10.162-1.778 20.053-2.658 21.982-2.637 5.74-6.298 4.5-11.084-3.753zm6.559-70.443c-3.698-1.493-8.509-7.813-7.055-9.263.692-.696 3.13-.614 6.09.208 2.71.754 8.226 1.374 12.255 1.38l7.328.006V55.45l-4.14.736c-2.924.52-5.362-.019-8.284-1.834-6.194-3.845-5.14-5.158 4.14-5.158h8.284v-4.538c0-2.802-.506-4.222-1.321-3.716-2.558 1.58-11.303-.895-14.513-4.106-3.575-3.575-3.238-6.227.537-4.21 3.68 1.972 21.687 1.515 29.288-.742 7.409-2.201 12.768-1.085 12.768 2.659 0 2.392-3.802 4.054-11.56 5.062-5.61.73-5.804.899-5.27 4.554.665 4.531 2.023 5.605 4.991 3.943 2.364-1.322 9.29 1.383 9.29 3.63 0 1.723-4.908 4.103-6.469 3.137-.727-.448-2.658-.481-4.293-.07-2.284.573-3.097 1.821-3.514 5.372l-.54 4.63 10.702-.871c11.768-.954 16.855.76 16.855 5.685 0 2.407-.865 2.514-18.796 2.373-14.436-.113-20.084.328-24.368 1.91-6.166 2.272-8.417 2.423-12.406.807zm51.894-17.395c-1.48-1.04-2.695-2.517-2.695-3.287s-1.478-3.342-3.287-5.713l-3.29-4.31 3.61.86c4.982 1.197 6.966 2.331 10.332 5.93 4.673 4.999.828 10.368-4.67 6.52z" fill="#d0d0d0"/><path d="M115.181 148.646c-2.284-3.229-5.194-5.51-8.285-6.497-8.233-2.631-7.635-3.763 1.993-3.763h9.171l-.015-6.053c-.03-10.857-.666-11.798-7.448-11.023-3.25.371-7.347.975-9.1 1.34l-3.187.665 3.505 1.84c5.256 2.766 4.808 7.721-.914 10.11-4.915 2.054-11.86 2.391-14.521.708-1.245-.788-.163-1.625 3.823-2.953 4.974-1.659 5.575-2.284 5.688-5.951.092-3.073-.334-3.925-1.705-3.394-3.71 1.422-11.771 2.253-14.709 1.517-2.839-.714-6.88-6.751-5.464-8.165.353-.356 2.377.074 4.496.95 5.838 2.42 37.653-1.284 36.617-4.262-.279-.797-1.882-1.294-3.563-1.104l-9.701 1.11c-7.519.865-12.52-.248-9.285-2.063 1.052-.589 5.568-2.018 10.039-3.177 9.055-2.345 14.172-5.173 14.172-7.831 0-2.413-1.757-2.22-7.81.868-2.839 1.447-6.794 2.462-8.79 2.253-2.42-.254-4.677.601-6.768 2.57-3.535 3.318-8.867 3.324-9.496.01-.227-1.187 2.533-5.026 6.356-8.85 5.832-5.826 6.409-6.825 4.21-7.276-2.836-.583-7.01-3.885-7.01-5.55 0-.595 2.856-1.08 6.348-1.08 3.49 0 8.647-.92 11.468-2.048 5.721-2.29 10.793-1.613 12.029 1.613 1.226 3.195-.5 4.16-9.046 5.053l-7.767.813-.699 5.225c-.386 2.873-.506 5.418-.27 5.657.24.236 2.76-.758 5.603-2.208 5.635-2.873 11.682-3.385 15.545-1.318 3.214 1.717 3.238 7.782.046 10.67-2.37 2.147-2.364 2.248.32 4.998 2.446 2.502 3.39 2.68 8.818 1.656 5.108-.969 6.482-.788 8.6 1.135 1.386 1.254 2.524 3.403 2.524 4.78 0 2.312-.607 2.434-8.168 1.625l-8.169-.877 1.129 4.87c1.557 6.702 1.475 22.977-.13 25.973-2.16 4.044-6.57 2.965-10.48-2.563zm-56.818-2.698c-5.728-9.217-5.4-10.904 1.205-6.2l3.7 2.637.068-2.956c.034-1.625.494-6.823 1.021-11.554.525-4.73.638-8.576.252-8.546-.387.031-2.996 1.325-5.799 2.867-4.467 2.466-5.135 3.425-5.402 7.789-.347 5.678-3.3 10.95-6.136 10.95-3.244 0-3.542-3.613-.837-10.125l2.585-6.222-2.944-.736c-1.803-.457-3.474-2.275-4.323-4.715-1.319-3.781-1.248-3.931 1.462-3.06 6.562 2.103 11.523 2.121 16.935.051 3.962-1.511 5.667-2.891 5.667-4.587 0-2.36-.105-2.36-4.14.101-5.427 3.312-8.812 3.195-12.203-.414-3.732-3.976-3.542-4.375 2.008-4.206 4.575.14 4.762-.016 4.385-3.677-.221-2.103-1.527-5.396-2.907-7.328l-2.508-3.502h3.222c4.124 0 8.322 4.18 8.322 8.282 0 2.336.678 3.186 2.545 3.186 2.125 0 2.551-.85 2.551-5.096 0-2.806-.604-5.1-1.34-5.1-1.383 0-5.59-8.784-4.654-9.72 1.46-1.46 10.57 3.079 12.265 6.111 1.705 3.042 1.668 4.575-.368 14.654-1.248 6.19-2.69 18.514-3.198 27.388-1.26 21.917-4.17 25.41-11.434 13.727zm4.032-72.483c-2.232-1.362-4.737-3.741-5.565-5.287-1.478-2.765-1.399-2.799 4.697-1.986 9.242 1.232 9.585 1.257 15.442 1.039l5.415-.2v-5.825c0-5.262-.28-5.805-2.867-5.593-5.483.445-7.206-.067-10.763-3.195l-3.572-3.146 17.202-.08v-4.286c0-4.164-.148-4.287-5.198-4.287-5.635 0-11.707-3.55-12.436-7.28-.362-1.839-.013-1.974 2.146-.818 3.713 1.987 22.715 1.671 29.865-.497 6.023-1.827 12.382-.98 12.382 1.647 0 2.478-4.94 5.326-9.236 5.326-7.12 0-8.15.791-7.564 5.801.503 4.318.653 4.431 4.888 3.637 3.225-.607 5.013-.236 6.837 1.41 3.287 2.978 2.107 4.44-3.602 4.462-6.062.025-7.304.953-8.331 6.224l-.844 4.33 10.322-.797c11.562-.89 17.722 1.027 17.722 5.519 0 2.361-.95 2.471-19.43 2.284-15.709-.16-20.379.212-24.368 1.941-6.304 2.738-8.172 2.69-13.142-.343zm50.615-20.363c-1.407-2.76-3.14-5.373-3.85-5.811-3.343-2.067-.761-3.008 3.44-1.254 6.39 2.667 9.284 5.504 9.284 9.085 0 2.33-.693 2.99-3.158 2.99-2.395 0-3.78-1.214-5.716-5.01z" fill="#b0b0b0"/><path d="M115.888 149.073c-1.956-2.532-6.426-5.939-9.928-7.573l-6.372-2.965 18.474-.147v-6.903c0-10.713-.26-10.995-9.36-10.094-7.532.745-14.424 2.852-9.629 2.944 2.57.046 6.25 4.041 6.25 6.782 0 1.147-1.126 2.686-2.5 3.419-3.915 2.097-13.504 3.02-16.128 1.552-2.04-1.144-1.518-1.546 3.667-2.852 5.703-1.438 6.04-1.76 6.04-5.798 0-4.161-.113-4.253-4.139-3.373-8.849 1.932-13.862 1.165-16.65-2.539-1.435-1.916-2.36-3.738-2.05-4.047.309-.307 2.983.082 5.939.874 4.219 1.125 8.557.996 20.13-.592 8.113-1.116 15.113-2.389 15.552-2.827.438-.439.165-1.435-.614-2.208-1.03-1.033-2.514-1.027-5.519.018-4.86 1.696-13.835 1.852-16.306.289-1.901-1.205 2.836-3.119 11.47-4.64 5.885-1.033 12.572-5.065 12.572-7.573 0-2.591-1.659-2.438-7.874.736-3.262 1.661-6.7 2.446-9.146 2.088-3.017-.442-4.462.116-6.283 2.431-2.404 3.057-7.749 4.057-9.193 1.717-1.432-2.315.65-6.034 5.087-9.073 2.395-1.64 4.86-4.115 5.477-5.497.92-2.055.42-2.87-2.73-4.477-6.356-3.238-5.74-5.151 1.662-5.151 3.588 0 8.58-.859 11.094-1.908 5.964-2.493 8.512-2.413 11.008.347 3.106 3.431 1.024 5.102-7.568 6.071l-7.8.886-.705 5.244c-.384 2.882-.506 5.436-.27 5.672.239.24 2.76-.754 5.602-2.205 5.685-2.9 9.769-3.287 14.745-1.395 4.03 1.533 4.499 7.442.853 10.741-2.361 2.137-2.349 2.25.573 5.173 2.668 2.668 3.56 2.861 8.31 1.794 6.23-1.398 11.372 1.036 11.372 5.39 0 2.475-.478 2.57-8.484 1.714-7.981-.855-8.426-.766-7.512 1.49 1.695 4.186 2.312 23.859.861 27.566-1.907 4.882-5.675 4.465-9.977-1.1zm-57.522-3.127c-5.158-8.294-5.06-9.702.447-6.452 4.048 2.386 4.462 2.429 4.502.445.021-1.205.558-6.194 1.186-11.088.632-4.897.97-9.076.751-9.297-.22-.217-2.98.859-6.138 2.392-5.335 2.591-5.746 3.146-5.81 7.81-.077 5.592-3.089 11.18-6.03 11.18-3.219 0-3.449-3.334-.667-9.626 1.456-3.293 2.649-6.142 2.649-6.325s-1.426-.696-3.168-1.135c-1.971-.49-3.47-2.005-3.973-4.017-1.022-4.066-.148-4.961 3.127-3.21 6.102 3.265 19.676-.129 21.016-5.256.35-1.337.252-2.241-.218-2.008-.472.233-2.992 1.511-5.602 2.842-5.274 2.686-9.907 1.64-12.265-2.76-1.113-2.084-.742-2.268 3.686-1.848l4.924.469-.748-4.906c-.41-2.698-1.916-6.194-3.348-7.773l-2.6-2.867h3.185c3.851 0 8.727 4.848 8.727 8.684 0 1.88.779 2.784 2.407 2.784 3.83 0 4.28-8.178.644-11.594-1.545-1.453-3.097-3.74-3.45-5.08-.98-3.76 6.05-3.275 10.012.686 3.66 3.661 3.873 7.016 1.119 17.64-1.104 4.266-2.422 15.614-2.92 25.217-1.22 23.347-4.02 27.041-11.446 15.095zm4.032-72.48c-2.232-1.362-4.691-3.652-5.458-5.09-1.27-2.367-1.042-2.619 2.383-2.619 2.082 0 5.228.552 6.994 1.22 1.766.675 6.105.88 9.64.46l6.43-.76V55.562h-5.029c-3.624 0-6.019-.914-8.598-3.28L65.185 49l4.91.675c2.7.371 6.573.343 8.6-.061 3.198-.641 3.692-1.319 3.692-5.041 0-4.238-.083-4.299-5.663-4.299-4.152 0-6.617-.822-9.24-3.078-4.485-3.864-3.467-4.986 3.16-3.496 4.715 1.058 10.372.714 30.983-1.892 4.64-.589 6.022-.322 6.635 1.279 1.135 2.959-3.87 5.911-10.02 5.911-2.882 0-5.507.27-5.835.598-.331.331-.362 2.637-.07 5.13.514 4.4.652 4.508 4.896 3.71 3.226-.607 5.014-.236 6.838 1.41 3.434 3.113 2.058 4.444-4.6 4.444-5.862 0-6.003.132-7.496 6.884l-.816 3.698 10.29-.791c6.501-.503 11.428-.276 13.382.613 3.216 1.466 4.998 4.335 3.85 6.194-.367.591-9.112 1.011-19.436.935-14.749-.11-19.964.316-24.346 1.993-7.003 2.683-7.555 2.668-12.501-.35zm51.127-19.416c-1.177-2.321-3.017-5.225-4.093-6.451-1.782-2.033-1.73-2.23.6-2.23 4.38 0 11.217 5.47 11.217 8.97 0 5.132-5.072 4.942-7.727-.289z" fill="#909090"/><path d="M115.678 148.787c-2.19-2.762-6.274-5.942-9.08-7.064-2.805-1.122-5.102-2.386-5.102-2.806 0-.42 3.585-.567 7.963-.328l7.967.435.377-8.616c.282-6.439-.07-8.794-1.39-9.3-.971-.37-7.735.28-15.03 1.448-7.298 1.165-15.153 2.407-17.462 2.753-4.615.69-8.442-1.788-9.598-6.218-.536-2.043-.236-2.368 1.463-1.595 4.213 1.917 15.083 1.932 26.799.037 6.559-1.058 12.16-2.165 12.455-2.46.294-.29.202-1.394-.202-2.452-.638-1.656-1.38-1.687-5.446-.236-5.464 1.95-14.095 2.263-16.714.607-1.33-.843-.313-1.54 3.82-2.616l10.095-2.624c5.593-1.45 10.195-4.624 10.195-7.028 0-2.588-2.919-2.284-8.236.852-2.974 1.754-5.927 2.487-8.497 2.11-2.937-.43-4.697.184-6.923 2.407-3.505 3.505-7.583 3.888-8.757.822-.592-1.543 1.018-3.94 5.595-8.331 3.536-3.388 6.418-6.571 6.403-7.071-.016-.5-1.85-1.77-4.078-2.82-6.725-3.178-5.793-4.818 3.081-5.41 4.416-.294 9.91-1.334 12.204-2.315 4.823-2.054 8.57-.567 8.57 3.404 0 1.984-1.401 2.606-7.963 3.541-7.267 1.037-7.963 1.404-7.963 4.225 0 1.702-.595 4.201-1.319 5.556-1.781 3.327 1.055 3.293 7.356-.082 11.811-6.329 22.519 1.284 13.525 9.618-2.471 2.29-2.83 3.125-1.346 3.125 1.113 0 2.858 1.19 3.88 2.643 1.652 2.36 2.375 2.499 6.76 1.282 2.698-.749 5.339-1.368 5.866-1.371 1.708-.012 6.053 5.038 6.053 7.037 0 1.637-1.346 1.81-8.494 1.076-8.012-.821-8.44-.733-7.533 1.558 1.622 4.084 2.36 21.274 1.119 26.002-1.699 6.46-5.4 6.537-10.413.205zm-57.363-2.919c-2.236-3.593-3.735-6.859-3.337-7.258.4-.398 2.361.243 4.367 1.423l3.64 2.153.714-5.403c.392-2.974 1.08-8.377 1.524-12.014l.812-6.607-6.47 3.421c-5.697 3.018-6.47 3.907-6.479 7.482-.02 8.144-4.504 14.258-7.935 10.824-1.233-1.233-.064-5.602 3.891-14.556.233-.53-.395-.962-1.395-.962-2.382 0-6.04-4.09-6.04-6.758 0-1.727.582-1.877 3.271-.859 9.328 3.55 22.215-.941 22.215-7.74 0-.622-2.085.286-4.64 2.015-5.393 3.662-7.741 3.894-11.642 1.166-4.047-2.837-3.501-4.388 1.549-4.388 4.338 0 4.372-.043 3.655-4.78-.399-2.628-1.898-6.068-3.33-7.644l-2.6-2.867h2.827c3.771 0 9.085 5.482 9.085 9.38 0 4.697 4.596 2.992 5.611-2.083.626-3.127.129-4.63-2.413-7.282-6.01-6.273-3.287-9.75 4.492-5.728 5.01 2.594 5.77 6.654 3.158 16.895-1.202 4.713-2.584 16.31-3.075 25.769-1.254 24.214-4.081 28.265-11.456 16.404zm28.595-9.919c-.398-.644 1.72-1.993 4.704-3.005 4.737-1.6 5.378-2.26 5.06-5.203-.286-2.582.193-3.373 2.03-3.373 3.394 0 7.012 4.391 6.07 7.362-1.22 3.84-15.947 7.316-17.863 4.22zM63.907 73.98c-8.245-4.226-9.244-8.97-1.594-7.556 4.753.877 20.191 1.08 20.734.27.11-.163-.052-2.735-.365-5.713-.558-5.335-.644-5.418-5.458-5.418-3.443 0-5.951-.953-8.466-3.222l-3.575-3.223 5.924.797c8.754 1.187 11.278.006 11.278-5.268 0-4.323-.062-4.372-5.664-4.372-4.151 0-6.617-.822-9.238-3.078-4.514-3.885-3.668-4.747 3.152-3.214 4.964 1.113 10.085.748 30.932-2.208 3.1-.438 5.029-.04 6.114 1.267 2.444 2.943-2.836 5.958-10.437 5.958-5.848 0-6.191.18-5.47 2.867.423 1.576.775 3.933.787 5.24.013 2.027.675 2.247 4.572 1.515 4.753-.89 8.187.723 8.187 3.845 0 1.104-2.072 1.818-6.01 2.072-5.81.375-6.05.552-7.153 5.237-.626 2.668-.877 5.109-.558 5.428.322.322 5.065-.04 10.542-.8 9.112-1.267 10.241-1.178 13.258 1.079 1.815 1.352 3.3 3.26 3.3 4.237 0 1.435-3.753 1.785-19.75 1.834-15.803.046-20.697.49-24.487 2.229-5.752 2.637-5.792 2.637-10.554.196zm50.104-19.284c-.843-1.975-2.667-4.882-4.06-6.458-2.52-2.86-2.52-2.867.056-2.867 4.4 0 11.24 5.458 11.24 8.97 0 4.81-5.23 5.068-7.236.355z" fill="#6f6f6f"/><path d="M115.563 148.643c-2.192-2.772-5.967-5.752-8.389-6.63-6.5-2.348-5.347-3.759 2.33-2.857 8.598 1.012 9.644-.236 8.663-10.327l-.74-7.644-7.009.26c-3.854.142-12.31 1.236-18.793 2.429-11.13 2.051-11.919 2.048-14.206-.025-1.334-1.205-2.729-3.348-3.097-4.759-.53-2.032-.227-2.37 1.466-1.625 4.308 1.904 12.62 2.1 24.551.583 13.578-1.732 15.623-2.502 14.482-5.473-.699-1.822-1.324-1.846-5.94-.215-5.543 1.953-11.63 2.22-15.563.678-1.926-.755-1.113-1.3 3.823-2.564 10.64-2.729 16.693-5.203 19.03-7.785 2.106-2.33 2.109-2.527.055-3.314-1.248-.479-4.646.389-7.905 2.017-3.514 1.754-7.022 2.606-9.107 2.208-2.477-.472-4.142.175-6.224 2.416-3.26 3.52-7.42 4.01-8.57 1.009-.537-1.398 1.25-4.032 5.595-8.242 3.514-3.404 6.387-6.642 6.387-7.19 0-.552-1.72-1.767-3.823-2.699-5.504-2.434-4.744-3.618 2.952-4.578 3.729-.466 8.38-1.677 10.34-2.695 4.55-2.36 7.647-2.346 9.63.046 2.856 3.44.553 5.36-7.524 6.274-7.497.849-7.751 1-7.751 4.562 0 2.024-.574 4.038-1.276 4.47-1.947 1.203-1.518 3.19.687 3.19 1.08 0 4.317-1.205 7.197-2.674 11.36-5.795 21.494 1.824 12.954 9.741-2.47 2.29-2.83 3.125-1.346 3.125 1.113 0 2.898 1.242 3.962 2.763 1.784 2.545 2.336 2.646 7.037 1.235 5.396-1.616 9.46-.346 10.9 3.416 1.215 3.161-.54 3.818-8.306 3.115l-7.687-.699 1 5.596c1.61 9.018 1.18 23.463-.767 25.812-2.656 3.198-4.67 2.538-9.015-2.95zm-55.133.258c-.965-1.93-2.796-5.084-4.062-7.01-2.607-3.958-1.058-4.608 3.643-1.527 2.968 1.944 3.029 1.898 3.74-2.867.4-2.664 1.086-8.085 1.527-12.05l.807-7.203-6.5 3.113c-5.998 2.87-6.504 3.464-6.504 7.586 0 5.427-3.18 11.992-5.807 11.992-3.165 0-3.364-3.03-.614-9.438 3.079-7.184 3.07-7.126.884-7.126-2.248 0-5.93-4.124-5.93-6.642 0-1.763.573-1.781 5.252-.171 4.16 1.435 6.212 1.508 9.873.346 6.887-2.177 10.358-4.75 10.358-7.666 0-2.59-.018-2.594-3.505-.138-5.556 3.913-8.993 4.53-12.485 2.242-4.357-2.855-3.895-4.538 1.257-4.538 4.342 0 4.372-.04 3.649-4.777-.399-2.628-1.512-5.682-2.469-6.79-2.266-2.62-2.198-3.722.23-3.722 3.082 0 8.227 5.915 8.227 9.46 0 2.514.478 3.026 2.23 2.38 5.074-1.871 5.457-6.722.956-12.072-5.372-6.384-3.588-9.282 3.676-5.974 5.394 2.46 6.531 7.433 3.965 17.355-1.227 4.731-2.606 16.343-3.076 25.803-.843 17.079-2.324 22.935-5.795 22.935-.972 0-2.56-1.576-3.526-3.501zm27.24-12.857c-1.256-.84-.214-1.637 3.825-2.922 4.936-1.573 5.507-2.15 5.181-5.259-.285-2.698.175-3.496 2.03-3.496 2.582 0 6.617 3.738 6.617 6.127 0 3.737-13.86 8.095-17.652 5.55zM63.89 73.995c-3.986-1.969-7.733-6.642-6.396-7.978.42-.424 3.345-.077 6.5.766 7.463 1.996 20.115.705 19.097-1.953-.387-1.006-.706-3.505-.706-5.55 0-3.48-.318-3.72-5.022-3.72-3.471 0-6.13-.947-8.585-3.063l-3.564-3.063 17.171 1.38v-10.22l-6.607-.634c-4.836-.463-7.237-1.41-8.95-3.526-1.289-1.595-2.169-3.07-1.95-3.288.214-.214 2.82.227 5.791.982 3.974 1.008 8.169.953 15.884-.206 16.036-2.41 20.543-2.345 21.065.295C108.159 36.96 103.348 39 96.32 39c-5.372 0-5.44.101-4.195 6.332.752 3.744 1.15 4.038 4.566 3.354 4.308-.858 8.631 1.012 8.631 3.735 0 1.358-1.539 1.867-5.66 1.867-6.4 0-6.506.095-7.779 6.884l-.929 4.952 8.138-1.051c11.894-1.537 15.061-1.245 17.96 1.652 4.8 4.802 2.087 5.596-15.985 4.682-15.074-.76-17.57-.573-24.693 1.85-9.312 3.164-7.757 3.072-12.485.735zm51.013-18.367c-.46-1.444-2.361-4.44-4.225-6.653l-3.389-4.03 3.72.936c5.976 1.5 11.075 5.75 10.63 8.861-.533 3.76-5.614 4.425-6.736.89z" fill="#4f4f4f"/><path d="M115.563 148.45c-2.312-2.876-5.991-6.006-8.177-6.96-3.965-1.723-3.959-1.73 3.216-1.778 8.542-.062 9.02-.77 7.877-11.713l-.812-7.76-8.402.805c-4.62.448-12.829 1.742-18.235 2.883-9.128 1.92-10.063 1.916-13.062-.046-5.924-3.885-4.149-5.66 4.93-4.934 4.49.362 12.946-.021 18.797-.85 14.709-2.084 15.325-2.311 13.635-5.019-1.287-2.057-1.925-2.085-8.585-.35-6.412 1.672-15.669 1.255-13.795-.622.37-.368 4.838-1.744 9.928-3.053 9.932-2.555 16.987-7.599 14.338-10.248-1.006-1.006-3.254-.448-8.113 2.015-4.345 2.201-7.896 3.17-10.052 2.738-2.44-.49-4.139.175-6.365 2.483-3.416 3.551-6.86 3.554-7.543.003-.295-1.539 1.597-4.252 5.403-7.745 3.22-2.959 5.853-5.9 5.847-6.537-.003-.638-1.867-2.269-4.14-3.624l-4.133-2.465 6.853-.92c3.772-.506 9.125-1.941 11.897-3.192 5.627-2.536 9.282-1.429 9.282 2.812 0 1.754-1.043 2.502-3.824 2.744-10.241.901-11.805 1.545-12.418 5.111-.331 1.91-1.06 4.56-1.625 5.89-.88 2.077-.589 2.319 2.048 1.696 1.693-.398 5.673-1.72 8.846-2.943 5.096-1.962 6.203-2.008 9.54-.411 5.059 2.422 5.427 5.722 1.134 10.198-1.947 2.033-2.882 3.698-2.076 3.698.804 0 2.637 1.264 4.078 2.806 2.392 2.566 3.076 2.683 8.012 1.343 5.01-1.355 5.624-1.239 8.537 1.637 4.265 4.207 2.293 5.538-6.654 4.492l-7.337-.858.966 6.439c1.37 9.125.812 23.435-.997 25.618-2.435 2.932-4.323 2.208-8.818-3.382zm-55.133.451c-.965-1.929-2.796-5.084-4.062-7.01-2.591-3.936-1.466-4.507 2.882-1.462 1.604 1.122 3.198 1.757 3.548 1.41.785-.787 2.965-15.576 2.998-20.36l.025-3.522-6.368 3.228c-5.455 2.763-6.372 3.766-6.372 6.948 0 7.666-4.038 13.995-7.236 11.34-1.251-1.037-1.058-2.708.913-7.89 2.984-7.85 2.929-7.212.617-7.212-1.966 0-6.58-5.98-5.47-7.09.352-.349 3.151.032 6.224.853 4.964 1.325 6.338 1.169 12.277-1.389 5.305-2.284 6.69-3.489 6.69-5.82v-2.94l-5.696 3.183c-5.087 2.845-6.062 3.005-9.144 1.502-5.332-2.597-5.267-4.863.138-4.863h4.624l-.858-4.78c-.47-2.628-1.733-5.786-2.809-7.015-2.551-2.92-1.447-3.882 2.661-2.319 3.87 1.472 6.477 5.74 5.584 9.147-.736 2.809-.766 2.8 3.508 1.174 4.305-1.637 4.342-6.669.083-11.731-5.39-6.402-3.588-9.282 3.725-5.949 4.851 2.208 6.194 7.933 3.833 16.374-1.076 3.855-2.398 15.325-2.937 25.487-.97 18.274-2.404 24.208-5.848 24.208-.975 0-2.563-1.576-3.53-3.502zm27.704-12.728c-1.969-.496-1.254-1.119 3.186-2.784 5.028-1.883 5.675-2.557 5.353-5.58-.282-2.647.184-3.438 2.033-3.438 2.582 0 6.617 3.735 6.617 6.123 0 3.465-11.238 7.175-17.189 5.68zm-23.04-62.106c-4.305-1.833-9.006-6.644-7.736-7.914.475-.475 3.636-.153 7.022.711 3.624.93 8.738 1.236 12.43.749l6.274-.834-.031-5.602c-.03-5.55-.074-5.606-4.49-5.612-3.654-.009-12.742-3.915-12.742-5.479 0-.23 3.483-.165 7.742.141 4.256.307 8.279.022 8.935-.634.656-.66.828-3.024.383-5.26-.724-3.617-1.288-4.059-5.176-4.059-5.151 0-11.244-2.87-12.381-5.829-.623-1.625-.3-1.892 1.44-1.165 4.502 1.87 14.06 2.137 22.7.632 17.125-2.987 17.048-2.984 17.925-.7 1.267 3.3-1.104 4.667-9.389 5.419l-7.616.69 1.281 5.044c1.215 4.79 1.481 5.007 5.299 4.29 4.458-.838 9.334 1.753 7.84 4.17-.5.806-3.357 1.465-6.35 1.465-5.409 0-5.455.037-6.758 5.734l-1.313 5.734 4.603-.055c2.533-.031 7.046-.528 10.033-1.104 6.108-1.184 13.682 1.576 13.682 4.983 0 1.625-2.647 1.848-17.84 1.493-15.178-.356-18.897-.046-24.938 2.085-6.031 2.122-7.66 2.26-10.83.907zm47.904-21.84c-2.183-3.239-3.704-6.155-3.379-6.483.328-.325 2.668.393 5.2 1.595 4.968 2.357 7.684 6.058 6.568 8.962-1.288 3.355-4.39 1.846-8.39-4.078z" fill="#2f2f2f"/><path d="M114.78 147.858c-2.655-2.898-6.549-6.029-8.652-6.96-3.747-1.657-3.683-1.69 3.428-1.74 3.989-.027 7.635-.668 8.104-1.425.466-.754.454-5.056-.028-9.558l-.877-8.18-5.314.046c-4.71.04-16.744 1.922-28.436 4.449-3.127.677-4.596.279-6.687-1.813-3.57-3.569-3.48-5.672.184-4.43 4.906 1.659 37.183-1.144 38.544-3.349.306-.493-.138-1.83-.994-2.97-1.426-1.905-2.103-1.908-8.392-.047-4.906 1.45-7.972 1.693-10.833.853-3.848-1.132-3.673-1.252 5.062-3.42 10.1-2.505 17.07-6.172 17.07-8.974 0-3.336-2.165-3.315-9.615.098-5.817 2.661-7.816 3.063-9.628 1.932-1.883-1.178-2.965-.746-6.179 2.47-2.143 2.141-4.608 3.66-5.482 3.368-3.554-1.184-2.147-5.02 4.056-11.06 7.166-6.982 7.942-9.009 3.434-9.009-1.668 0-3.68-.779-4.467-1.732-1.174-1.41-.172-1.861 5.434-2.441 3.78-.39 8.738-1.674 11.013-2.852 3.226-1.668 4.811-1.84 7.154-.772 6.178 2.818 3.05 6.445-5.697 6.614-6.46.122-8.475 1.294-8.622 5.007-.068 1.75-.558 4.188-1.092 5.415-.767 1.772-.35 2.223 2.036 2.189 1.653-.022 4.118-.883 5.476-1.91 1.362-1.03 5.118-1.87 8.347-1.87 9.275 0 11.535 4.148 5.626 10.317-3.253 3.394-3.262 3.465-.638 4.296 1.469.466 2.668 1.692 2.668 2.723 0 1.487 1.613 1.8 7.773 1.508 6.997-.334 7.978-.061 9.842 2.695l2.073 3.064-8.696-.7-8.693-.695.859 5.709c1.337 8.926.91 24.677-.72 26.646-2.208 2.655-3.165 2.26-8.44-3.493zm-56.766-2.552c-2.429-3.759-4.226-7.055-3.993-7.328.233-.267 1.935.503 3.784 1.714s3.824 1.717 4.385 1.128c.564-.591 1.429-6.086 1.925-12.21l.902-11.136-6.491 2.852c-6.004 2.64-6.495 3.189-6.54 7.316-.062 5.54-2.555 10.67-5.458 11.231-2.76.53-2.913-4.093-.285-8.683 2.502-4.379 2.348-6.062-.641-7.01-2.502-.797-5.848-5.403-4.731-6.522.312-.312 3.081.09 6.154.89 4.813 1.257 6.472 1.107 11.958-1.074 5.234-2.081 6.448-3.158 6.792-6.04l.42-3.514-4.394 2.717c-5.2 3.213-10.146 3.486-12.921.711-2.812-2.815-2.555-3.149 2.14-2.781l4.14.322-.433-5.734c-.24-3.152-1.027-6.448-1.748-7.328-.975-1.178-.656-1.592 1.233-1.592 3.443 0 5.835 3.165 5.835 7.715 0 4.05.067 4.1 4.354 2.953 4.194-1.125 4.004-8.68-.319-12.688-4.464-4.137-4.293-7.451.316-6.299 6.638 1.656 8.303 4.342 7.533 12.143-.38 3.854-1.272 9.588-1.983 12.743-.715 3.152-1.334 10.894-1.38 17.202-.098 12.89-1.49 20.482-4.262 23.257-1.656 1.653-2.407 1.061-6.292-4.955zm30.914-11.746c6.807-2.226 7.942-3.296 7.086-6.694-.944-3.768 1.564-4.072 5.728-.7 5.719 4.63-.073 9.236-11.305 8.985l-5.967-.132zM59.37 70.24c-2.134-2.13-3.542-4.218-3.128-4.632.417-.417 3.333-.034 6.482.846 3.618 1.012 8.32 1.279 12.78.72l7.053-.88v-5.641c0-5.759-.405-6.145-5.961-5.703-1.527.12-4.682-.822-7.01-2.092l-4.231-2.309 8.57-.377 8.573-.374-.239-5.36-.236-5.356-6.083-.01c-4.968-.006-6.734-.665-9.61-3.572l-3.523-3.563 3.587 1.343c5.274 1.975 17.77 1.635 27.652-.751 9.088-2.192 12.722-1.806 12.722 1.355 0 2.12-7.267 4.541-13.657 4.554-2.692.003-3.934.551-3.612 1.6.27.874.855 3.238 1.297 5.252.73 3.303 1.21 3.594 4.918 2.993 4.443-.72 9.334 1.81 7.92 4.093-.46.746-3.324 1.359-6.36 1.359-4.97 0-5.604.35-6.356 3.504-.46 1.926-1.159 4.581-1.551 5.897-.675 2.263-.07 2.343 11.419 1.48 11.437-.858 12.292-.747 14.941 1.902 4.275 4.271 1.564 4.943-16.71 4.13-13.063-.582-17.46-.315-22.63 1.377-9.266 3.03-12.55 2.686-17.017-1.781zm54.642-15.548c-.95-1.58-2.698-4.446-3.882-6.372-2.443-3.986-2.072-4.222 2.757-1.723 4.872 2.52 8.337 6.703 7.45 9.003-1.094 2.857-4.329 2.391-6.325-.908z" fill="#020202"/></g></svg>