<svg xmlns="http://www.w3.org/2000/svg" viewBox="0 0 177 177"><filter id="a"><feGaussianBlur stdDeviation="2" result="blur" in="SourceAlpha"/><feOffset dy="2" dx="2" result="offsetBlur"/><feBlend in2="offsetBlur" in="SourceGraphic"/></filter><path filter="url(#a)" fill="#feec99" d="M7.635 4.498.906 49.354l40.488-.236-6.846-44.502L20.501.721z" transform="translate(24.746 13.012) scale(3.01838)"/><path fill="#d0d0d0" d="M102.714 148.072c-3.266-2.393-5.66-4.799-5.322-5.348.341-.55 3.333-.498 6.647.112 7.117 1.313 9.973-.553 12.48-8.15 1.435-4.347 1.284-5.261-1.282-7.83-2.904-2.903-2.949-2.903-19.182-.359-13.16 2.065-16.682 2.213-18.412.773-3.634-3.016-2.412-4.256 4.205-4.256 3.492 0 6.347-.634 6.347-1.41s-1.744-1.418-3.878-1.427c-2.134-.013-5.31-.405-7.054-.873-2.865-.766-3.176-.35-3.176 4.256 0 2.804-.664 5.101-1.482 5.101-2.93 0-5.505-9.308-4.627-16.728.634-5.363.269-8.056-1.458-10.69-4.331-6.611-1.464-8.811 4.926-3.783 2.92 2.294 4.483 2.487 11.41 1.404 4.413-.694 9.683-1.89 11.711-2.662 5.47-2.08 10.534-1.703 11.515.857 1.06 2.762-1.79 4.745-6.87 4.772-2.085.012-4.186.658-4.666 1.434-.52.839 1.132 1.41 4.066 1.41 5.354 0 8.053 2.393 4.932 4.37-1.069.676-3.692 1.24-5.826 1.252-5.831.03-4.663 2.608 1.413 3.11 3.568.295 5.291 1.128 5.291 2.556s-1.723 2.258-5.291 2.553c-2.91.242-5.291 1.093-5.291 1.896 0 1.684 13.31.248 17.337-1.871 3.692-1.938 7.576-.203 11.733 5.249l3.673 4.814-3.32 8.017c-3.54 8.542-9.574 16.097-12.707 15.907-1.045-.06-4.576-2.068-7.842-4.459zM84.576 114.55c1.992 0 3.622-.634 3.622-1.41s-1.539-1.409-3.413-1.409c-1.878 0-4.416-.386-5.645-.857-3.881-1.491-2.414-3.378 2.626-3.378 2.668 0 5.246-.634 5.726-1.41.483-.784-.576-1.418-2.384-1.43a30.794 30.794 0 0 1-6.436-.87c-2.988-.802-3.172-.43-3.172 6.418 0 6.749.193 7.165 2.729 5.807 1.5-.803 4.355-1.46 6.347-1.46zm-25.13 35.55c-.964-1.557-5.066-13.434-5.09-14.738-.045-2.363 3.32-.806 7.175 3.32 4.929 5.282 5.714 12.55 1.352 12.55-1.506 0-3.051-.506-3.438-1.131zm10.458-11.077c-1.6-3.613-2.617-6.854-2.264-7.208.353-.353 2.545.713 4.872 2.37 4.389 3.124 6.634 7.516 5.11 9.982-1.926 3.118-4.956 1.098-7.718-5.144zm12.744-1.992c-4.863-6.052-4.95-7.796-.317-6.326 4.723 1.5 10.1 6.471 10.1 9.345 0 4.609-4.86 3.109-9.783-3.019zM97.4 135.04c-3.087-2.638-5.215-5.198-4.73-5.68 1.35-1.353 11.9 1.87 13.861 4.231 2.007 2.421.93 6.381-1.714 6.303-.996-.03-4.332-2.213-7.417-4.854zM71.425 87.228c-1.162-1.398-1.376-4.968-.694-11.63l.987-9.61-5.72 4.53c-11.01 8.723-15.394 4.042-5.807-6.2 11.46-12.236 12.487-13.383 12.487-13.935 0-.302-2.161-.203-4.802.226-3.906.634-5.101.223-6.4-2.203-1.457-2.726-1.237-2.989 2.572-2.989 2.291 0 5.17-.383 6.4-.854 2.821-1.083 2.885-5.31.114-7.606-3.058-2.536-2.605-4.235 1.129-4.235 4.105 0 6.628 2.49 6.628 6.532 0 2.185.966 3.287 3.16 3.598 1.74.25 3.372 1.563 3.632 2.921.365 1.917-.498 2.47-3.864 2.47-3.755 0-4.337.504-4.337 3.742 0 3.616.096 3.662 2.725 1.28 1.974-1.784 3.918-2.206 7.024-1.524 2.363.519 5.581.537 7.15.04 3.81-1.211 3.774-7.631-.072-12.518-2.067-2.63-2.378-3.767-1.056-3.885 6.55-.588 11.035 3.17 11.035 9.24 0 4.304.13 4.391 5.777 3.854 5.026-.483 5.714-.211 5.276 2.077-.323 1.69-2.39 3.1-5.777 3.939-6.254 1.548-7.57 5.747-1.398 4.449 4.748-.996 8.12.932 6.952 3.975-.568 1.482-2.58 2.26-5.847 2.26-3.833 0-4.983.577-4.983 2.506 0 2.074.975 2.415 5.644 1.968 3.502-.332 5.645.054 5.645 1.02 0 .857.018 2.037.045 2.617.024.583-2.306 1.376-5.183 1.766-2.873.386-5.517 1.587-5.87 2.665-.517 1.564.854 1.817 6.779 1.247 6.037-.58 7.926-.212 10.111 1.97 4.15 4.15 1.854 5.476-9.16 5.277-5.57-.1-13.145.277-16.83.839-5.132.782-7.532.477-10.233-1.289-5.2-3.41-4.362-4.362 3.854-4.362 6.122 0 7.47-.455 7.908-2.674.393-2.01-.063-2.45-1.826-1.775-2.665 1.024-10.636-2.614-10.636-4.853 0-.806 1.216-1.084 2.701-.61 3.254 1.032 9.997-.474 9.997-2.234 0-.69-1.763-1.255-3.918-1.255-4.316 0-10.66-3.743-9.508-5.608.402-.652 1.992-.855 3.529-.453 4.216 1.105 9.897-.76 9.897-3.25 0-1.721-.942-1.993-4.29-1.26-2.821.62-5.393.22-7.509-1.168-3.052-1.998-3.344-1.874-5.566 2.346-1.566 2.97-2.475 8.65-2.72 17.038-.374 12.584-1.75 15.687-5.152 11.59zm-.431-28.442c-.435-.435-1.223.35-1.751 1.738-.767 2.014-.604 2.174.785.791.966-.957 1.4-2.095.966-2.53z"/><path fill="#afafaf" d="M106.958 150.72c-.62-1.057-3.19-2.98-5.711-4.268-2.524-1.29-4.588-2.693-4.588-3.115s3.293-.565 7.316-.317c6.946.431 7.483.21 10.583-4.34 3.767-5.53 4.066-8.386 1.277-12.201-1.944-2.656-2.367-2.665-18.521-.317-11.491 1.67-17.34 1.971-19.176.99-4.485-2.403-2.93-4.135 3.71-4.135 3.492 0 6.347-.634 6.347-1.413 0-.775-1.533-1.41-3.41-1.41-8.865 0-10.52-3.775-2.234-5.1 6.151-.984 7.73-3.363 2.234-3.363-1.878 0-4.416-.386-5.645-.857-3.881-1.491-2.414-3.378 2.626-3.378 2.668 0 5.246-.634 5.726-1.41.48-.775-.392-1.412-1.94-1.412s-4.58-.67-6.738-1.49c-3.142-1.193-3.513-1.752-1.856-2.799 1.138-.721 3.791-1.319 5.898-1.331 2.107-.012 6.785-1.026 10.392-2.249 7.114-2.414 13.29-1.735 13.29 1.464 0 1.229-2.285 2.46-5.886 3.17-7.32 1.448-8.874 4.322-1.898 3.507 3.73-.435 4.962-.055 4.962 1.54 0 2.296-2.874 3.833-7.169 3.833-1.49 0-2.707.633-2.707 1.412 0 .776 2.185 1.41 4.853 1.41 5.285 0 7.954 2.402 4.85 4.367-1.068.68-3.69 1.244-5.825 1.253-2.134.012-3.878.658-3.878 1.434 0 1.965 5.095 1.76 14.062-.568 8.727-2.264 11.688-1.165 15.847 5.868 2.303 3.906 2.24 4.277-2.424 13.915-3.19 6.598-6.01 10.461-8.445 11.57-4.552 2.073-4.552 2.073-5.92-.26zm-47.636-1.147c-3.508-10.06-4.757-14.558-4.196-15.12.362-.362 2.904 1.51 5.641 4.163 3.547 3.44 4.86 5.84 4.564 8.358-.447 3.803-4.92 5.738-6.01 2.602zm12.828-7.157c-2.717-4.316-4.172-9.523-2.653-9.523 2.565 0 9.181 8.322 8.345 10.498-1.189 3.103-3.353 2.732-5.692-.975zm10.715-5.536c-2.49-3.238-4.28-6.133-3.984-6.429.972-.972 9.966 3.35 11.943 5.732 2.174 2.626 1.226 6.586-1.575 6.586-1.023 0-3.894-2.65-6.384-5.886zm14.62-1.931-5.526-4.878h5.017c6.028 0 11.844 4.16 10.546 7.54-1.328 3.459-3.873 2.783-10.036-2.662zm-27.581-9.02c-.803-1.5-1.46-6.957-1.46-12.124 0-6.309-.786-10.734-2.394-13.453-2.895-4.902-2.059-6.103 2.921-4.21 5.738 2.181 7.021 6.637 5.871 20.416-1.011 12.145-2.221 14.445-4.938 9.372zm1.57-39.208c-.773-1.443-1.048-6.562-.61-11.38.437-4.817.477-8.759.087-8.759-.392 0-3.106 1.905-6.036 4.232-2.928 2.33-6.122 4.235-7.094 4.235-4.56 0-2.62-4.58 5.766-13.583 4.962-5.333 9.037-10.241 9.055-10.908.02-.664-1.612-.797-3.628-.293-3.556.893-7.625-1.03-7.625-3.607 0-.682 2.243-1.238 4.983-1.238 6.125 0 7.718-3.087 4.498-8.702-2.23-3.884-2.204-3.996.884-3.996 4.045 0 6.565 2.511 6.565 6.532 0 2.185.966 3.287 3.16 3.598 1.74.25 3.372 1.563 3.632 2.921.365 1.917-.498 2.47-3.864 2.47-3.743 0-4.337.51-4.337 3.7 0 3.281.262 3.48 2.333 1.763 1.307-1.084 5.505-1.938 9.523-1.938 7.13 0 7.193-.04 7.642-4.739.326-3.402-.437-5.69-2.713-8.113l-3.17-3.372h4.263c5.804 0 9.547 4.31 8.46 9.75-.827 4.129-.77 4.174 5.107 3.914 8.261-.362 8.222 3.432-.054 5.068-7.646 1.51-8.494 5.509-1.063 5.01 4.809-.325 9.23 2.068 7.335 3.967-.522.52-3.332 1.334-6.242 1.808-3.54.573-5.451 1.7-5.777 3.393-.423 2.194.196 2.405 4.585 1.581 3.244-.606 5.825-.326 7.16.779 3.138 2.608 1.192 4.235-5.069 4.235-3.748 0-5.88.718-6.438 2.176-1.313 3.42.447 4.05 7.063 2.535 7.459-1.705 12.2-.232 12.2 3.789 0 2.752-.673 2.921-10.226 2.568-5.626-.205-13.401.097-17.283.676-5.952.888-7.606.607-10.582-1.787l-3.526-2.84 8.11-.03c7.163-.03 8.114-.362 8.114-2.855 0-2.168-.942-2.823-4.06-2.823-2.233 0-4.85-.95-5.816-2.116-1.482-1.786-1.199-2.115 1.829-2.115 4.899 0 8.047-1.365 8.047-3.484 0-1.104-1.268-1.527-3.372-1.125-1.89.362-5.128-.499-7.367-1.96l-3.997-2.601 7.003-.707c5.415-.543 7.117-1.307 7.507-3.362.428-2.246-.085-2.508-3.312-1.7-2.523.634-5.001.182-7.316-1.334-1.926-1.261-3.652-2.082-3.846-1.829-4.509 6.076-5.052 8.192-5.052 19.653 0 8.868-.553 12.668-2.02 13.885-1.602 1.334-2.303 1.14-3.42-.945zm-.529-27.987c-.474-.47-1.62.625-2.55 2.436-1.615 3.151-1.579 3.19.86.86 1.4-1.34 2.161-2.822 1.69-3.296z"/><path fill="#8f8f8f" d="M107.1 150.484a312.659 312.659 0 0 1-6.206-4.887l-3.526-2.852 7.293.884 7.292.885 2.937-5.756c3.773-7.395 3.71-10.951-.242-13.46-2.78-1.765-5.058-1.677-18.39.695-11.144 1.986-15.962 2.315-17.99 1.228-4.61-2.466-3.13-4.204 3.58-4.204 4.823 0 6.347-.531 6.347-2.213 0-1.57-.818-1.95-2.819-1.316-3.148 1-8.466-.274-8.466-2.031 0-.622 2.538-1.54 5.644-2.037 7.304-1.169 7.202-3.08-.23-4.268-6.694-1.072-5.855-3.215 1.53-3.906 6.847-.643 6.973-3.342.158-3.342-8.05 0-10.543-3.006-3.405-4.11 3.01-.468 8.823-1.82 12.919-3.007 7.866-2.279 13.009-1.666 13.009 1.549 0 1.21-2.372 2.29-6.348 2.885-7.223 1.087-8.635 4.196-1.895 4.175 6.308-.022 6.73 3.139.576 4.295-6.55 1.228-6.773 4.497-.256 3.736 2.77-.323 5.213.157 5.825 1.147 1.177 1.914-1.72 4.28-4.953 4.042-4.093-.302-5.644.181-5.644 1.772 0 1.823 14.307.625 18.14-1.518 2.635-1.476 6.71.383 10.323 4.708 3.239 3.87 3.181 6.257-.347 14.489-4.839 11.288-10.314 15.867-14.857 12.417zm-46.797-.978c-2.083-2.511-6.013-14.216-5.086-15.143 1.557-1.558 10.582 9.973 10.141 12.955-.534 3.616-2.988 4.678-5.055 2.188zm13.22-4.944c-1.902-1.892-5.152-10.655-4.274-11.53 1.201-1.208 9.336 8.24 8.711 10.111-.68 2.04-3.049 2.798-4.437 1.42zm11.862-4.89c-7.485-7.947-6.187-10.655 2.554-5.327 2.825 1.723 4.503 3.773 4.235 5.17-.707 3.634-3.45 3.698-6.792.154zm12.883-4.286c-5.823-4.458-5.904-4.624-2.433-5.053 5.01-.618 11.41 2.738 11.41 5.989 0 4.27-2.515 4.008-8.977-.936zm-28.071-9.529c-.972-1.554-1.75-7.316-1.75-12.94 0-7.464-.62-10.818-2.346-12.725-2.91-3.215-1.72-4.6 2.943-3.429 5.686 1.428 6.845 5.343 5.735 19.363-.544 6.894-1.404 12.535-1.911 12.535-.507 0-1.711-1.261-2.674-2.804zm.866-39.773c-.109-1.026-.036-6.29.166-11.702l.362-9.834-5.807 5.252c-6.339 5.72-8.286 6.363-9.526 3.136-.504-1.32 2.42-5.756 7.805-11.83 4.74-5.342 8.615-10.186 8.615-10.76 0-.573-1.811-.685-4.027-.241-3.718.742-7.262-.95-7.262-3.471 0-.574 2.385-1.24 5.291-1.48 4.63-.386 5.273-.88 5.156-3.965-.076-1.941-.622-4.64-1.21-5.998-.828-1.902-.402-2.469 1.85-2.469 3.133 0 5.843 3.773 5.843 8.132 0 1.865.96 2.64 3.176 2.562 4.696-.166 4.05 4.02-.707 4.567-3.103.356-3.878 1.168-3.878 4.054 0 3.139.29 3.362 2.248 1.738 1.238-1.026 5.524-1.898 9.523-1.938 7.208-.069 7.278-.111 7.727-4.808.326-3.402-.437-5.69-2.713-8.113l-3.17-3.372h4.447c5.505 0 9.323 4.962 7.968 10.36-.875 3.48-.694 3.594 5.225 3.323 4.612-.212 6.133.241 6.133 1.817 0 1.153-1.27 2.29-2.822 2.523-7.585 1.147-9.17 1.917-9.17 4.443 0 2.276.791 2.554 5.46 1.929 3.411-.459 5.847-.109 6.49.935 1.43 2.316.193 3.19-5.925 4.187-3.625.589-5.451 1.687-5.795 3.49-.447 2.314.114 2.514 4.675 1.66 3.27-.616 5.92-.363 7.178.681 3.145 2.608.98 4.157-5.82 4.157-5.439 0-6.263.392-6.263 2.982 0 2.798.49 2.925 7.833 2.007 8.192-1.026 11.917.39 11.917 4.519 0 1.75-1.534 1.94-9.137 1.129-5.756-.616-12.046-.33-17.003.781-7.419 1.66-8.04 1.585-10.926-1.304l-3.064-3.06h7.365c6.43 0 7.37-.362 7.37-2.822 0-2.168-.94-2.823-4.059-2.823-2.233 0-4.817-.911-5.74-2.022-1.404-1.693-.795-2.1 3.694-2.472 3.896-.32 5.511-1.16 5.87-3.049.393-2.058-.111-2.414-2.384-1.69-1.7.537-4.8-.13-7.54-1.63l-4.654-2.538 7.748-.707c6.166-.561 7.848-1.252 8.255-3.38.44-2.33-.133-2.575-4.422-1.878-3.26.529-5.976.067-8.014-1.36-5.113-3.584-7.654 1.762-8.505 17.89-.595 11.297-1.093 13.461-3.176 13.86-1.358.26-2.56-.369-2.671-1.398zm-.12-27.347c-.472-.473-1.619.622-2.548 2.433-1.618 3.151-1.579 3.19.86.86 1.4-1.34 2.161-2.822 1.69-3.296z"/><path fill="#6e6e6e" d="M60.393 149.518c-.785-.996-2.43-4.83-3.655-8.518-2.152-6.459-2.137-6.655.392-5.3 4.126 2.207 8.66 8.738 8.204 11.814-.513 3.426-3.024 4.443-4.944 2.004zm45.439.227c-.776-.743-2.997-2.587-4.938-4.102l-3.526-2.747 7.136.806c7.697.87 8.717.105 12.979-9.722 1.449-3.35 1.255-4.332-1.497-7.528-3.127-3.634-3.27-3.659-12.303-1.99-5.026.933-11.938 2.204-15.364 2.823-6.58 1.195-13.598-.459-12.116-2.856.48-.775 3.375-1.412 6.433-1.412 4.062 0 5.56-.586 5.56-2.17 0-1.389-1.139-2.071-3.173-1.896-5.297.453-8.113-.09-8.113-1.579 0-.775 1.427-1.418 3.175-1.43 5.27-.03 9.674-1.654 9.052-3.333-.323-.872-1.419-1.388-2.436-1.146-2.768.66-8.382-1.012-8.382-2.497 0-.715 2.333-1.497 5.183-1.735 7.325-.619 7.676-3.58.425-3.58-8.638 0-10.063-2.641-2.067-3.842 3.613-.544 9.218-1.92 12.45-3.061 6.303-2.225 12.79-1.524 11.863 1.277-.314.941-3.215 2.279-6.45 2.97-6.96 1.49-8.035 4.902-1.45 4.594 6.219-.293 6.66 2.777.565 3.92-6.752 1.268-6.64 4.71.145 4.498 2.976-.09 5.403.583 5.762 1.6.417 1.195-.99 1.765-4.355 1.765-4.748 0-7.827 2.014-5.953 3.894.483.483 5.696.07 11.582-.92l10.7-1.796 4.08 3.908c4.821 4.619 4.993 6.596 1.299 14.95-5.294 11.971-11.627 16.77-16.266 12.337zm-32.34-5.213c-1.88-1.869-5.112-10.634-4.243-11.5 1.479-1.48 9.043 8.165 8.18 10.422-.9 2.34-2.285 2.717-3.936 1.078zm10.475-7.407c-4.71-5.943-3.903-7.003 2.716-3.58 4.123 2.13 6.35 5.696 4.962 7.938-1.44 2.33-3.157 1.353-7.681-4.358zm14.147-1.86c-5.696-4.358-5.765-4.503-2.28-4.932 4.559-.564 11.238 2.587 11.815 5.566.806 4.196-3.61 3.903-9.535-.634zm-27.202-9.387c-1.766-2.499-2.469-6.218-2.469-13.1 0-6.616-.736-10.736-2.363-13.22-2.312-3.531-2.291-3.598.917-3.124 1.805.266 4.516 2.143 6.025 4.171 2.475 3.327 2.626 4.914 1.551 16.224-1.183 12.448-1.207 12.511-3.66 9.05zm.196-39.794c-.084-1.026-.024-6.254.14-11.615l.292-9.75-6.037 5.162c-6.655 5.699-8.05 6.167-9.233 3.085-.492-1.28 2.508-5.801 7.805-11.76 4.73-5.324 8.603-10.111 8.603-10.64 0-.528-1.766-.823-3.921-.66-2.155.166-4.697-.181-5.644-.767-3.369-2.083-1.642-3.719 3.924-3.719 5.303 0 5.64-.25 5.64-4.15 0-2.282-.633-4.54-1.412-5.02-2.37-1.463-1.57-3.528 1.362-3.528 3.47 0 6.157 4.784 4.904 8.732-.772 2.43-.492 2.807 1.51 2.038 2.713-1.039 6.755 1.518 5.53 3.5-.423.686-2.325 1.25-4.217 1.25-2.747 0-3.444.725-3.444 3.577 0 3.284.26 3.435 3.175 1.835 1.745-.956 6.348-1.774 10.226-1.81l7.057-.076-.398-4.875c-.22-2.683-1.43-6.018-2.696-7.416-3.009-3.326-1.36-4.8 3.472-3.109 3.262 1.138 3.92 2.264 4.286 7.317l.434 5.976 5.385-.863c5.62-.897 8.421.87 5.373 3.393-.963.793-3.652 1.66-5.983 1.922-3.072.347-4.35 1.31-4.666 3.529-.395 2.786.048 2.988 5.107 2.309 3.483-.468 5.925-.127 6.574.92 1.449 2.346.38 3.019-6.19 3.9-4.492.604-5.76 1.374-5.76 3.502 0 2.345.851 2.668 5.995 2.284 4.588-.34 5.997.049 5.997 1.67 0 1.479-1.802 2.245-5.997 2.55-4.993.362-5.995.924-5.995 3.369 0 2.734.538 2.87 7.927 2 8.219-.965 11.823.363 11.823 4.356 0 1.69-1.624 1.884-9.1 1.08-5.694-.609-11.782-.331-16.252.74-6.366 1.528-7.567 1.431-11.002-.9l-3.854-2.616 8.234-.423c6.71-.35 8.083-.83 7.407-2.586-.453-1.187-.827-2.424-.827-2.747 0-.326-1.313-.592-2.916-.592-1.6 0-4.301-.787-5.994-1.753-2.865-1.63-2.632-1.805 3.253-2.47 4.558-.512 6.469-1.406 6.807-3.184.377-1.995-.565-2.475-4.926-2.514-2.967-.024-6.58-.942-8.026-2.037-2.384-1.805-1.923-2.032 4.926-2.424 5.865-.332 7.66-.984 8.023-2.898.392-2.05-.586-2.472-5.699-2.472-3.395 0-6.94-.767-7.878-1.705-1.334-1.334-2.24-.951-4.162 1.762-1.754 2.482-2.656 7.293-3.16 16.858-.595 11.298-1.093 13.462-3.176 13.86-1.358.26-2.538-.368-2.626-1.397zm1.57-28.186c0-2.577-2.463-.99-4.126 2.663-1.75 3.842-1.748 3.845 1.186 1.192 1.615-1.464 2.94-3.2 2.94-3.855z"/><path fill="#4e4e4e" d="M60.375 149.518c-2.21-2.78-5.029-12.463-3.948-13.543 1.657-1.657 9.393 8.216 8.925 11.382-.525 3.565-3.006 4.64-4.977 2.161zm43.404-1.986c-2.683-1.904-5.077-3.664-5.321-3.909-.248-.244 2.608-.15 6.338.206 7.546.724 8.784-.13 12.285-8.51 2.038-4.88 1.986-5.287-1.189-8.976-3.248-3.779-3.486-3.827-10.923-2.221-12.014 2.595-21.944 3.552-26.073 2.514-5.023-1.259-2.774-3.311 4.256-3.879 7.697-.622 8.481-3.972.93-3.972-3.17 0-5.763-.634-5.763-1.413 0-.775 1.54-1.41 3.411-1.41 4.872 0 7.878-1.403 7.878-3.679 0-1.367-1.802-1.961-5.925-1.961-6.59 0-5.928-2.306.875-3.07 6.016-.67 6.266-3.704.308-3.704-2.686 0-5.964-.606-7.29-1.349-1.87-1.047-.76-1.57 4.95-2.324 4.045-.537 9.786-1.947 12.754-3.136 4.165-1.666 6.066-1.796 8.363-.568 4.02 2.152 2.675 3.722-4.129 4.809-6.957 1.113-7.983 4.926-1.237 4.609 2.445-.115 4.708.582 5.053 1.554.362 1.032-.553 1.766-2.204 1.766-4.37 0-7.286 1.51-7.286 3.773 0 1.419.878 1.78 2.822 1.165 3.29-1.047 8.463.305 8.463 2.21 0 .724-2.469 1.315-5.493 1.315-3.525 0-5.774.743-6.284 2.071-1.28 3.33.688 3.52 12.285 1.183l10.956-2.203 4.145 3.972c2.278 2.182 4.144 5.04 4.144 6.35 0 3.3-4.953 14.178-8.524 18.718-3.601 4.579-6.203 4.59-12.575.07zm-32.556-7.673c-1.636-3.205-2.71-6.097-2.385-6.417 1.256-1.258 8.072 5.442 8.072 7.936 0 5.013-2.726 4.286-5.687-1.519zm12.74-2.734c-4.705-5.943-3.9-7.003 2.72-3.58 4.123 2.13 6.35 5.696 4.962 7.938-1.44 2.33-3.157 1.353-7.681-4.358zm13.028-2.862c-3.87-3.522-4.165-4.192-1.853-4.192 5.922 0 12.72 3.936 12.789 7.407.054 2.596-6.747.595-10.936-3.215zm-27.087-9.743c-.803-1.5-1.46-7.072-1.46-12.384 0-6.608-.72-10.682-2.28-12.91-2.188-3.127-2.152-3.236.918-2.783 1.756.26 4.398 2.089 5.865 4.06 2.324 3.127 2.541 5.077 1.702 15.167-.978 11.72-2.095 13.8-4.745 8.85zm1.609-48.065c.25-6.208.081-11.288-.38-11.288-.462.003-2.047 1.34-3.526 2.97-1.476 1.63-4.443 3.875-6.592 4.99-3.429 1.77-4.009 1.759-4.727-.113-.513-1.343 2.357-5.701 7.787-11.808 4.73-5.324 8.603-10.063 8.603-10.534 0-.465-2.333-1.047-5.183-1.286-2.849-.241-5.457-1.276-5.795-2.3-.332-1.023.25-1.741 1.304-1.596 1.053.145 3.658.19 5.795.096 3.314-.142 3.879-.77 3.879-4.316 0-2.282-.634-4.54-1.413-5.02-2.596-1.602-1.449-3.73 1.766-3.271 2.557.362 3.26 1.488 3.616 5.807.362 4.419.884 5.216 2.973 4.552 1.395-.441 3.27.081 4.166 1.165 1.322 1.59.82 2.128-2.62 2.816-3.441.688-4.256 1.563-4.256 4.567 0 2.674.573 3.492 2.058 2.922 1.558-.598 1.352.564-.845 4.78-2.415 4.63-2.738 6.988-1.932 13.943 1.102 9.486.1 14.216-3.012 14.216-1.757 0-2.047-1.962-1.666-11.292zm1.165-18.584c0-2.571-2.36-.908-4.857 3.42l-2.638 4.588 3.746-3.423c2.062-1.88 3.749-3.945 3.749-4.585zm12.608 27.187-3.438-2.862 8.113-.048c7.154-.04 8.11-.377 8.11-2.867 0-2.09-.938-2.823-3.619-2.823-1.992 0-5.007-.787-6.7-1.753-2.865-1.63-2.632-1.805 3.253-2.47 4.558-.512 6.469-1.406 6.807-3.184.38-2.013-.561-2.469-5.107-2.469-3.133 0-6.312-.89-7.262-2.034-1.425-1.718-.628-2.101 5.119-2.47 5.705-.361 6.876-.92 7.235-3.44.392-2.765-.076-2.958-5.699-2.324-4.533.513-6.62.102-8.01-1.573-1.685-2.031-1.136-2.267 5.263-2.267 3.93 0 7.546-.649 8.038-1.446 1.307-2.115-.618-9.529-3.127-12.04-2.949-2.946-1.201-4.262 3.487-2.623 3.28 1.147 3.914 2.255 4.292 7.456.434 6.036.495 6.103 4.938 5.29 5.502-1.007 9.11.707 6.326 3.01-1.005.833-3.733 1.73-6.064 1.992-3.097.35-4.346 1.307-4.672 3.574-.399 2.804.12 3.073 5.493 2.822 8.358-.39 8.892 2.786.676 4.018-5.113.766-6.432 1.53-6.432 3.721 0 2.373.833 2.696 5.995 2.31 4.588-.342 5.997.048 5.997 1.669 0 1.479-1.802 2.245-5.997 2.55-4.987.362-5.995.927-5.995 3.357 0 2.728.544 2.861 8.253 1.989 6.568-.743 8.626-.483 10.078 1.261 2.864 3.453.703 4.19-12.43 4.247-6.737.03-13.878.556-15.867 1.171-2.714.836-4.477.402-7.054-1.744z"/><path fill="#2f2f2f" d="M103.776 147.532c-2.68-1.904-5.031-3.622-5.228-3.818-.196-.193 2.952-.33 6.991-.296 7.34.054 7.35.051 10.872-6.616l3.523-6.67-3.695-3.698-3.694-3.695-13.13 2.255c-14.88 2.556-20.58 2.816-21.709.993-1.002-1.624 2.53-2.97 7.785-2.97 2.716 0 4.117-.719 4.117-2.116 0-1.53-1.57-2.116-5.644-2.116-7.136 0-7.429-2.505-.363-3.09 3.689-.306 5.418-1.18 5.744-2.907.384-2.023-.633-2.5-5.629-2.638l-6.1-.17 5.994-1.442c7.79-1.872 8.072-5.273.438-5.273-7.893 0-8.33-2.325-.658-3.472 3.55-.534 8.995-1.865 12.104-2.964 4.084-1.44 6.41-1.587 8.388-.53 3.791 2.03 2.315 3.612-4.368 4.68-7.084 1.133-8.177 5.32-1.243 4.76 2.56-.208 4.696.387 5.056 1.404.404 1.141-.788 1.772-3.375 1.787-2.197.012-4.872.574-5.94 1.253-2.934 1.859-.36 4.72 3.395 3.779 1.796-.453 4.265-.435 5.494.036 4.114 1.582 2.276 3.374-3.462 3.374-3.824 0-5.961.713-6.523 2.18-1.403 3.658.299 3.848 12.454 1.385l11.708-2.372 3.9 4.364c2.143 2.4 3.9 5.192 3.9 6.21 0 3.591-8.412 19.145-11.147 20.609-3.667 1.962-4.247 1.835-9.952-2.216zm-44.421.528a730.37 730.37 0 0 0-2.08-6.58c-.845-2.647-1.237-5.119-.863-5.49 1.73-1.73 9.212 8.303 9.212 12.351 0 2.1-5.623 1.847-6.27-.28zm11.527-9.54c-2.26-5.75-1.57-6.074 3.559-1.667 2.915 2.505 3.29 7.326.567 7.326-1.047 0-2.904-2.548-4.126-5.66zM84 137.17c-4.787-6.043-3.764-7.214 2.876-3.293 4.881 2.883 6.037 5.324 3.508 7.422-1.455 1.208-2.895.278-6.384-4.129zm14.072-2.867c-5.277-4.44-3.713-5.575 3.76-2.732 4.211 1.6 6.37 4.005 5.234 5.84-1.264 2.044-3.993 1.102-8.994-3.108zm-28.186-9.816c-.815-1.521-1.389-6.903-1.28-11.965.145-6.556-.489-10.253-2.203-12.867-2.349-3.583-2.33-3.659.736-3.203 1.727.254 4.286 2.053 5.687 3.99 2.16 2.989 2.42 5.304 1.705 15.168-.857 11.78-1.962 13.89-4.645 8.874zm1.856-38.95c-.468-1.213-.519-6.293-.12-11.288.4-4.993.328-9.052-.167-9.019-.492.03-3.093 1.935-5.78 4.232-5.04 4.31-9.954 5.508-9.894 2.411.021-.968 3.83-5.78 8.467-10.69 4.636-4.912 8.43-9.672 8.43-10.583 0-.963-2.152-1.654-5.162-1.654-6.758 0-7.636-2.74-.987-3.088 7.109-.368 8.361-2.068 5.6-7.603-2.56-5.129-1.923-6.888 1.675-4.634 1.319.825 2.605 3.562 2.852 6.083.365 3.703.966 4.449 3.124 3.884 1.467-.383 3.405.187 4.304 1.27 1.328 1.6.954 1.972-1.98 1.972-4.014 0-4.394.398-5.75 6.07-.881 3.682-.74 3.845 2.029 2.363 2.713-1.452 2.837-1.343 1.448 1.259-.839 1.57-2.218 3.278-3.066 3.803-.951.586-1.419 5.322-1.22 12.42.175 6.31.239 12.267.136 13.236-.26 2.494-2.928 2.195-3.939-.443zm.936-26.875c0-3.25-2.065-2.21-4.796 2.415l-2.581 4.37 3.688-2.414c2.029-1.328 3.689-3.296 3.689-4.371zm12.617 26.311-3.447-2.958 3.528.2c9.91.56 12.696-.082 12.696-2.934 0-2.128-.954-2.835-3.88-2.868-2.133-.024-5.112-.975-6.618-2.113-2.536-1.92-2.243-2.073 3.881-2.073 5.675 0 6.617-.402 6.617-2.823 0-2.336-.94-2.822-5.47-2.822-3.142 0-6.218-.9-7.226-2.116-1.524-1.835-.794-2.116 5.47-2.116 6.718 0 7.226-.241 7.226-3.44 0-3.112-.447-3.363-4.745-2.666-2.79.453-6.13-.02-8.11-1.147-3.203-1.823-2.989-1.953 4.391-2.623l7.757-.706-.163-5.321c-.09-2.934-1.298-6.58-2.686-8.114-2.43-2.686-2.424-2.786.163-2.747 4.763.082 7.627 3.457 7.627 8.995 0 5.135.06 5.192 5.288 4.781 3.949-.31 5.292.121 5.292 1.703 0 1.424-1.72 2.257-5.292 2.553-4.506.372-5.288.936-5.288 3.794 0 3.037.556 3.33 5.844 3.088 3.613-.163 6.082.408 6.465 1.497.384 1.08-.649 1.772-2.668 1.781-6.248.04-9.64 1.642-9.64 4.558 0 2.514.633 2.738 5.556 1.95 3.483-.556 5.922-.302 6.529.685 1.352 2.188-2.053 4.03-7.5 4.057-3.744.015-4.589.576-4.589 3.042 0 2.843.492 2.973 8.231 2.164 7.676-.803 11.522.332 11.522 3.396 0 .531-6.188 1.292-13.755 1.69-7.564.399-15.062 1.15-16.659 1.67-1.94.63-4.044-.037-6.347-2.017z"/><path fill="#030303" d="M103.776 147.532c-2.68-1.904-5.01-3.598-5.176-3.76-.166-.164 2.964-.3 6.954-.3 7.096 0 7.329-.132 10.64-6.118 2.949-5.327 3.154-6.553 1.578-9.499-2.64-4.935-5.288-5.252-21.611-2.592-8.62 1.406-15.81 1.92-17.34 1.237-2.316-1.026-2.213-1.216.91-1.66 7.695-1.087 9.877-1.962 9.877-3.966 0-1.515-1.633-2.089-5.925-2.089-6.64 0-5.904-2.315.975-3.067 2.662-.292 4.392-1.373 4.687-2.927.378-1.987-.591-2.5-4.926-2.617l-5.393-.145 5.29-1.407c6.37-1.69 7.175-5.357 1.175-5.357-9.26 0-9.315-1.965-.106-3.9 14.911-3.13 19.339-3.535 20.371-1.866 1.057 1.712-.265 2.316-7.802 3.562-6.94 1.144-7.07 5.246-.148 4.706 2.831-.224 5.155.323 5.493 1.286.375 1.056-1.388 1.838-4.775 2.119-3.878.32-5.502 1.162-5.855 3.036-.423 2.206.292 2.523 4.79 2.113 3.2-.287 5.511.184 5.855 1.198.363 1.054-1.412 1.838-4.79 2.116-3.924.323-5.502 1.156-5.867 3.094-.456 2.4.141 2.56 6.335 1.687 3.761-.528 8.928-1.62 11.479-2.424 5.33-1.68 10.667.876 13.133 6.288 2.523 5.535-7.917 25.194-13.187 24.832-.97-.066-3.954-1.678-6.64-3.58zM58 143.234c-1.234-3.622-2.085-6.746-1.892-6.94 1.793-1.792 10.084 10.055 8.654 12.37-1.805 2.922-4.709.592-6.762-5.43zm12.844-4.814c-2.122-5.403-2.113-5.648.139-3.948 5.662 4.268 7.917 9.707 4.026 9.707-1.047 0-2.922-2.593-4.165-5.76zm12.707-2.002c-2.167-2.716-3.435-4.935-2.822-4.932 2.623.013 10.293 5.778 10.293 7.734 0 3.628-3.342 2.375-7.47-2.802zm14.522-2.306-4.939-4.31 4.939 1.002c5.72 1.162 8.466 3.04 8.466 5.79 0 3.09-3.133 2.173-8.466-2.482zM69.964 124.01c-.772-2.034-1.273-7.781-1.11-12.768.235-7.22-.254-9.683-2.391-12.052-2.225-2.466-2.312-2.98-.51-2.98 1.198 0 3.598 1.148 5.333 2.554 2.85 2.306 3.133 3.7 2.937 14.431-.232 12.707-1.913 16.981-4.256 10.815zM71.9 86.22c-.519-.842-.492-6.333.06-12.204l.997-10.673-6.279 5.147c-9.499 7.781-15.327 6.338-7.05-1.742 6.622-6.465 13.05-14.467 13.05-16.242 0-1.11-1.71-1.497-4.937-1.123-6.882.806-6.257-2.082.703-3.26 6.224-1.05 7.202-3.495 3.513-8.762-1.418-2.022-1.632-3.35-.642-3.963 2.435-1.503 5.596 2.195 5.596 6.55 0 3.393.582 4.06 3.528 4.06 1.938 0 3.526.634 3.526 1.412 0 .776-1.519 1.41-3.375 1.41-3.44 0-5.089 2.324-5.089 7.172 0 3.127 1.443 3.453 4.177.941 1.057-.969.55.242-1.128 2.687-2.578 3.76-3.049 6.444-3.049 17.283 0 11.754-1.132 15.303-3.6 11.307zm.543-28.068c.628-4.217-1.94-2.554-4.904 3.175l-2.294 4.443 3.362-2.224c1.85-1.223 3.577-3.653 3.836-5.394zM84.48 84.068c-2.496-2.005-2.463-2.065.664-1.199 5.623 1.555 12.928-.507 12.928-3.652 0-2.098-.972-2.759-4.06-2.759-2.234 0-4.85-.95-5.817-2.116-1.509-1.823-.947-2.115 4.06-2.115 4.878 0 5.817-.456 5.817-2.823 0-2.251-.94-2.822-4.667-2.822-2.569 0-5.9-1.005-7.407-2.233-2.608-2.122-2.61-2.189-.082-1.38 1.461.468 4.797.447 7.408-.042 3.824-.718 4.748-1.548 4.748-4.277 0-3.121-.417-3.32-5.292-2.566-3.64.565-6.17.142-8.11-1.349-2.638-2.031-2.294-2.173 5.291-2.215l8.11-.046v-4.748c0-2.665-1.28-6.377-2.924-8.463-3.363-4.277-1.12-5.125 4.023-1.521 2.324 1.626 3.136 3.613 3.136 7.66 0 5.343.088 5.44 4.045 4.304 4.938-1.418 9.152.565 5.828 2.747-1.162.764-3.863 1.398-5.994 1.41-3.236.018-3.879.634-3.879 3.703 0 3.251.423 3.574 3.646 2.765 4.287-1.077 9.442.242 8.283 2.122-.447.718-2.31 1.307-4.138 1.307-5.228 0-7.79 1.479-7.79 4.491 0 2.28.826 2.708 4.602 2.385 5.934-.513 9.858 1.588 5.886 3.145-1.503.589-4.476 1.114-6.61 1.168-2.994.076-3.879.788-3.879 3.118 0 2.81.525 2.964 7.643 2.23 5.252-.543 8.457-.198 10.23 1.096 1.418 1.039 2.263 2.174 1.877 2.515-.39.344-8.41.996-17.824 1.449-13.984.673-17.603.434-19.752-1.29z"/></svg>