<svg xmlns="http://www.w3.org/2000/svg" viewBox="0 0 177 177"><filter id="a"><feGaussianBlur stdDeviation="2" result="blur" in="SourceAlpha"/><feOffset dy="2" dx="2" result="offsetBlur"/><feBlend in2="offsetBlur" in="SourceGraphic"/></filter><path filter="url(#a)" fill="#feec99" d="M7.696 4.672.674 49.437l40.376-.25-6.646-44.64L20.987.408z" transform="translate(25.966 13.778) scale(3.00157)"/><path fill="#fecfcf" d="M88.516 130.935c-8.005-4.226-11.475-10.625-11.481-21.179-.003-5.036.993-10.577 2.389-13.276 2.056-3.977 2.125-5.463.48-10.451-1.444-4.367-1.549-8.071-.426-14.867 1.282-7.744 1.11-9.815-1.2-14.338-3.332-6.535-2.438-7.7 2.875-3.758 6.081 4.514 8.32 12.705 6.423 23.505-.855 4.862-1.287 9.11-.96 9.434.32.324 2.28-.522 4.355-1.88 4.457-2.92 10.433-2.46 11.064.847.285 1.501-2.233 3.797-7.033 6.409-9.494 5.165-12.012 8.827-12.012 17.463 0 8.596 4.058 14.281 11.145 15.608 5.54 1.041 10.58 5.51 9.034 8.014-1.527 2.47-8.44 1.747-14.653-1.53z"/><path fill="#feb0b0" d="M89.362 130.93c-3.464-1.715-7.654-5.314-9.317-8-3.683-5.964-4.022-17.874-.723-25.76 1.906-4.562 1.993-6.65.516-12.414-1.363-5.313-1.372-8.542-.036-13.837 1.435-5.703 1.342-7.864-.537-12.36-2.75-6.58-2.041-7.673 2.875-4.452 5.253 3.443 7.19 11.781 5.211 22.47-.87 4.721-1.26 8.906-.867 9.299.396.396 2.416-.39 4.487-1.75 4.133-2.708 10.073-2.537 11.013.318.33.996-3.122 4.19-7.666 7.099-9.764 6.243-11.328 8.72-11.328 17.931 0 5.661.792 7.714 4.358 11.277 2.395 2.395 5.598 4.355 7.12 4.355 1.519 0 4.286 1.066 6.147 2.371 2.683 1.88 3.023 2.804 1.639 4.473-2.392 2.881-5.508 2.635-12.892-1.02z"/><path fill="#fe8e8e" d="M91.16 132c-2.473-1.092-6.747-4.55-9.497-7.683-4.841-5.514-4.976-6.003-4.271-15.833.4-5.583 1.699-11.61 2.887-13.402 1.894-2.855 1.885-4.035-.087-9.515-1.92-5.343-1.963-7.432-.294-14.39 1.726-7.195 1.66-8.705-.57-13.012-2.942-5.69-2.323-7.056 1.98-4.367 5.08 3.17 6.673 9.236 5.64 21.458-.515 6.105-.443 11.079.16 11.052.603-.024 2.401-1.03 3.992-2.233 3.782-2.864 9.224-2.798 10.343.126.604 1.57-.627 3.127-3.827 4.841-2.593 1.393-7.074 4.623-9.956 7.18-4.718 4.187-5.243 5.421-5.243 12.349 0 9.082 3.661 13.738 13.242 16.85 4.317 1.4 5.962 2.756 5.962 4.908 0 3.698-4.317 4.388-10.46 1.672z"/><path fill="#fe7070" d="M90.455 130.728c-9.806-4.958-13.838-11.742-13.096-22.016.324-4.509 1.579-10.209 2.785-12.667 1.882-3.839 1.906-5.316.162-10.433-1.647-4.833-1.692-7.564-.243-14.399 1.531-7.234 1.444-9.125-.63-13.282-3.392-6.801-1.5-7.534 3.887-1.5 4.538 5.081 4.55 5.135 3.62 18.222l-.93 13.129 4.823-2.942c6.25-3.812 10.043-3.812 10.043-.003 0 1.906-1.98 3.962-5.589 5.814-9.46 4.854-13.042 9.81-13.042 18.06 0 8.696 3.972 13.748 13.25 16.84 4.313 1.434 6.123 2.881 6.123 4.874 0 4.082-3.51 4.175-11.166.303z"/><path fill="#fe4e4e" d="M90.527 130.728c-9.815-5.021-12.769-9.917-12.679-21.01.048-5.629 1.05-11.038 2.584-13.925 2.3-4.325 2.312-5.187.18-10.29-1.98-4.739-2.055-6.927-.51-14.695 1.58-7.954 1.495-9.75-.669-13.927-2.993-5.79-1.276-6.229 3.67-.94 3.333 3.566 3.594 4.932 3.366 17.76L86.223 87.6l5.102-3.011c2.807-1.657 6.105-2.626 7.327-2.161 4.187 1.609 2.221 5.235-4.962 9.146-11.28 6.138-15.145 16.046-10.082 25.837 2.098 4.052 4.61 5.715 13.981 9.245 3.173 1.195 4.752 2.695 4.455 4.232-.697 3.623-4.214 3.575-11.514-.159z"/><path fill="#fe2f2f" d="M87.312 129.176c-7.549-5.042-10.64-12.039-9.596-21.71.471-4.373 1.843-9.851 3.04-12.174 1.925-3.72 1.916-4.863-.071-9.62-1.906-4.563-1.972-6.775-.43-14.249 1.61-7.792 1.516-9.503-.792-14.338l-2.617-5.493 3.445 2.266c6.13 4.034 7.372 8.293 6.346 21.74l-.943 12.346 6.045-3.152c3.326-1.732 6.742-2.72 7.591-2.194 3.236 1.999 1.282 4.92-5.922 8.84-8.176 4.448-11.91 9.965-11.9 17.574.005 6.723 4.904 14.302 10.006 15.488 5.151 1.195 10.851 4.664 10.851 6.603 0 2.738-9.986 1.46-15.056-1.927z"/><path fill="#fe0505" d="M87.96 129.489c-7.413-4.749-10.1-9.95-9.974-19.286.06-4.508 1.2-10.775 2.537-13.92 1.581-3.729 1.969-6.586 1.11-8.198-1.96-3.677-2.242-8.95-.975-18.286.885-6.54.594-9.407-1.34-13.144-2.451-4.742-2.445-4.766.727-3.067 5.517 2.953 7.765 10.908 6.598 23.361l-1.036 11.04 6.243-3.254c4.896-2.551 6.619-2.86 8.006-1.432 1.89 1.951 1.098 2.756-9.392 9.494-6.964 4.473-9.215 9.185-8.498 17.794.69 8.281 3.722 12.225 11.265 14.653 9.93 3.197 12.364 7.33 4.292 7.288-2.665-.012-6.966-1.38-9.56-3.043z"/></svg>