<svg xmlns="http://www.w3.org/2000/svg" viewBox="0 0 177 177"><filter id="a"><feGaussianBlur stdDeviation="2" result="blur" in="SourceAlpha"/><feOffset dy="2" dx="2" result="offsetBlur"/><feBlend in2="offsetBlur" in="SourceGraphic"/></filter><path filter="url(#a)" fill="#feec99" d="M23.606 48.372c3.456-.929 6.977-1.698 10.327-2.948.609-.259.384-1.123.596-1.636 2.415-14.123 4.33-28.348 6.626-42.488.206-.557-.615-.452-.937-.48C31.547.704 22.874.8 14.202.81 10.005.862 5.803.774 1.61.942.8.924 1.507 2.035 1.423 2.515c2.01 13.24 3.891 26.51 6.066 39.72.253 1.05.266 2.217.749 3.182 1.952.847 4.093 1.218 6.133 1.84 2.23.596 4.46 1.222 6.702 1.76z" transform="translate(24.152 12.945) scale(3.03895)"/><path fill="#cfcfcf" d="M91.608 25.739c.446 2.71.82 6.631.826 8.716l.015 3.79 7.315-.86c4.024-.475 9.412-1.736 11.974-2.809 7.39-3.087 15.665-2.543 19.488 1.277 5.252 5.25 4.23 6.214-5.637 5.33-12.156-1.091-12.934-.374-10.91 10.022.894 4.583 2.836 10.302 4.31 12.71l2.686 4.375-6.412-.364c-13.25-.75-21.546.051-22.36 2.166-1.201 3.13.011 3.444 6.527 1.702 4.914-1.316 6.63-1.282 9.36.18 5.91 3.16 4.039 4.947-5.771 5.5-5.014.283-9.54.94-10.056 1.456-.517.516-.125 2.565.872 4.555a806.315 806.315 0 0 1 2.291 4.598c.575 1.18-6.53 1.319-9.475.188-1.23-.474-2.076-2.34-2.076-4.594 0-3.985-2.61-5.012-6.49-2.553-2.794 1.762-9.17-2.036-9.24-5.51-.011-.54 3.818-.984 8.51-.984 7.804 0 8.533-.234 8.533-2.766 0-2.203-.604-2.625-2.954-2.066-6.482 1.537-17.917 2.425-20.543 1.592-1.532-.486-3.723-2.699-4.868-4.92-1.954-3.774-1.92-4.343.525-8.767 1.44-2.599 3.015-6.616 3.504-8.923l.888-4.193-6.935-.399c-6.026-.349-7.202-.88-8.95-4.041-3.033-5.492-.416-6.185 12.834-3.398 6.272 1.319 14.8 2.41 18.95 2.422l7.55.024v-4.114c0-4.832 2.625-14.262 3.971-14.262.514 0 1.3 2.218 1.748 4.923zm3.464 18.705c-1.498.97-.976 1.276 2.191 1.291 5.485.03 8.312 1.198 8.312 3.443 0 1.146-1.432 1.83-3.83 1.83-4.327 0-7.983 1.146-7.983 2.5 0 .5 1.93.685 4.291.408 3.09-.362 4.969.243 6.707 2.167 2.395 2.644 2.355 2.677-4.29 3.559-3.69.489-6.708 1.473-6.708 2.185 0 1.103 14.229.252 15.462-.924.2-.195-.376-4.273-1.285-9.062l-1.65-8.71-4.623.021c-2.543.01-5.51.593-6.594 1.292zm-27.551 9.135c-.848 5.023-1.161 9.749-.7 10.5.91 1.464 13.555 1.887 16.989.568 4.266-1.638 2.024-3.361-3.219-2.477-5.713.966-9.138-.696-9.144-4.434 0-1.699 1.389-2.136 6.774-2.136 4.528 0 6.974-.59 7.376-1.778.443-1.316-.21-1.544-2.508-.881a580.23 580.23 0 0 1-5.303 1.507c-2.382.66-7.992-4.452-6.868-6.266.377-.611 3.9-1.113 7.829-1.113 3.926 0 7.141-.59 7.141-1.312 0-.739-3.68-1.313-8.415-1.313h-8.411zM96.99 93.976c4.011 4.324 4.26 6.062.71 4.935-2.473-.784-2.625-.234-2.625 9.36 0 10.897.89 11.238 4.4 1.692 2.316-6.305 6.595-11.061 13.5-15 5.637-3.218 8.317-1.93 8.098 3.89-.185 4.954-.902 5.598-3.422 3.082-2.036-2.043-7.764 2.05-11.286 8.068l-2.492 4.255 5.39-2.754c6.085-3.1 8.95-3.373 14.272-1.337 3.564 1.358 3.604 1.474 1.149 3.282-1.404 1.027-3.805 1.87-5.343 1.87-1.535 0-5.85.908-9.59 2.017-6.808 2.02-8.273 4.13-5.696 8.193.854 1.343 1.833 1.28 4.902-.322 2.109-1.1 5.607-2 7.774-2.003h3.935l-3.935 2.431c-6.428 3.97-8.95 7.525-8.005 11.284.678 2.714.362 3.337-1.708 3.337-6.117 0-8.63-4.103-5.516-9.017.742-1.17.335-2.598-1.17-4.102-1.267-1.268-2.592-3.115-2.947-4.11-1.012-2.856-2.468-.516-3.237 5.198-.744 5.567 1.79 13.34 4.352 13.34 1.823 0 8.387 5.066 8.387 6.477 0 .568-3.449 1.349-7.664 1.732-4.212.38-9.533 1.662-11.821 2.844-5.084 2.629-10.053.82-8.983-3.276.601-2.3.434-2.343-2.137-.544-3.291 2.307-8.238 2.562-9.515.496-1.313-2.119 1.985-3.747 7.637-3.769 4.559-.018 4.923-.304 4.923-3.85 0-6.6-1.164-7.983-6.704-7.983-4.236 0-5.111.45-5.111 2.625 0 3.04.03 3.048 4.619 1.304 4.68-1.78 6.622-.359 3.79 2.768-2.684 2.966-9.68 2.903-10.728-.097-.383-1.103-1.905-3.349-3.38-4.984-2.455-2.732-2.506-3.16-.589-5.075 3.1-3.1 14.8-2.805 19.225.487 2.838 2.112 3.543 3.81 3.865 9.338.219 3.717.641 6.759.942 6.759.298 0 2.632-.997 5.188-2.219l4.646-2.212-4.096-1.723c-4.048-1.702-4.088-1.805-3.216-8.767l.882-7.048-4.996.155-4.996.158.42-6.06c.801-11.584-4.189-17.947-13.084-16.69-2.856.405-3.057.958-2.704 7.437.243 4.589-.094 6.707-.988 6.157-.747-.465-1.361-1.647-1.361-2.632 0-.984-1.52-3.601-3.383-5.81-1.86-2.21-3.181-5.045-2.941-6.303 1.005-5.218 12.885-7.312 21.373-3.765 5.652 2.364 8.575 7.965 8.575 16.443 0 5.221.45 6.628 2.116 6.628 1.802 0 2.06-1.598 1.762-10.827-.568-17.432-.307-19.359 2.632-19.359 1.413 0 4.072 1.62 5.905 3.596zm-23.9 16.972c3.073.836 2.909 2.687-.328 3.714-3.407 1.079-8.163-.444-7.515-2.41.547-1.672 4.23-2.282 7.84-1.304zm3.607 8.114c0 1.896-5.348 5.44-8.205 5.44-2.12 0-4.686-3.355-3.44-4.498 1.438-1.319 11.645-2.142 11.645-.942z"/><path fill="#b0b0b0" d="M90.207 21.691c.52.842 1.312 5.023 1.76 9.293l.81 7.762 6.85-1.076c3.769-.59 9.379-1.966 12.47-3.054 8.63-3.045 15.3-2.592 19.2 1.307 1.81 1.81 2.953 3.844 2.537 4.515-.426.69-4.75.888-9.883.456-7.731-.647-9.257-.431-9.962 1.407-1.185 3.09 2.012 18.824 4.194 20.635 1.003.832 1.83 2.33 1.83 3.324 0 2.158-5.422 2.425-7.473.374-1.036-1.036-2.176-1.036-4.115 0-1.474.79-5.67 1.435-9.33 1.435-5.77 0-6.646.346-6.646 2.625 0 3.03 1.104 3.185 7.993 1.125 4.215-1.268 5.552-1.155 8.396.71 4.76 3.119 2.99 4.726-5.202 4.726-3.869 0-7.968.359-9.111.796-2.626 1.01-2.686 4.939-.106 7.081 3.139 2.605 2.306 3.936-2.465 3.936-5.16 0-7.999-2.745-6.96-6.722.694-2.641.39-2.754-5.311-1.973-4.64.638-6.607.325-8.452-1.346-3.962-3.586-2.832-4.397 6.124-4.397 7.658 0 8.533-.268 8.533-2.623 0-3.054-.38-3.094-11.396-1.176-10.861 1.89-13.812 1.03-16.617-4.853-1.972-4.133-2.036-5.09-.446-6.93 1.963-2.278 4.831-9.9 4.831-12.833 0-1.221-1.802-1.771-5.807-1.771-4.716 0-6.324-.654-8.533-3.459-1.496-1.902-2.72-3.968-2.72-4.591 0-1.733 6.898-1.359 15.307.832 4.157 1.082 11.566 1.97 16.471 1.97h8.91l.1-4.267c.14-5.984 3.052-15.116 4.219-13.238zm3.555 22.753c0 .723 1.994 1.313 4.434 1.313 4.768 0 9.178 3.388 5.886 4.522-.984.337-3.516.79-5.625 1-2.109.212-4.078 1.118-4.373 2.011-.383 1.17.608 1.401 3.507.82 3.86-.768 7.984 1.058 7.984 3.538 0 .59-2.66 1.47-5.908 1.957-3.966.596-5.905 1.529-5.905 2.848 0 1.12.769 1.662 1.802 1.267.988-.38 4.534-1.1 7.871-1.602 6.777-1.015 6.686-.79 4.5-11.36l-1.573-7.627h-6.3c-3.464 0-6.3.592-6.3 1.313zm-25.758 4.923c-.517 2.704-.985 7.284-1.042 10.171l-.107 5.248h9.08c6.48 0 9.248-.51 9.67-1.78.469-1.404-.562-1.587-4.856-.863-5.7.963-9.299-.614-9.299-4.079 0-1.316 1.963-1.808 7.218-1.808 5.567 0 7.22-.456 7.22-1.984 0-1.58-1.07-1.815-5.245-1.146-5.573.89-9.193-.845-9.193-4.413 0-1.45.957-1.783 3.61-1.26 4.361.86 10.828-.244 10.828-1.848 0-.639-3.814-1.161-8.472-1.161h-8.473zm27.21 43.262c5.106 6.151 5.219 6.492 2.128 6.382-2.735-.091-2.948.526-3.312 9.542-.29 7.163.027 9.512 1.218 9.111 1.966-.653 3.373-3.188 4.343-7.825 1.045-5.002 6.215-10.646 13.095-14.295 4.27-2.264 6.33-2.748 7.354-1.72 2.02 2.017.158 8.721-2.176 7.825-3-1.149-8.235 2.015-11.159 6.746-1.507 2.438-2.522 4.653-2.258 4.92.268.268 2.845-.629 5.729-1.993 6.33-2.993 9.81-3.179 13.192-.705 3.33 2.431 2.461 3.103-6.081 4.695-13.159 2.45-16.502 5.063-13.18 10.302.924 1.459 1.823 1.398 5.166-.331 2.225-1.149 5.364-2.091 6.971-2.091 2.538 0 2.182.638-2.68 4.802-4.844 4.145-5.507 5.32-4.847 8.615.699 3.507.486 3.783-2.699 3.404-4.74-.569-6.862-4.152-4.6-7.768 1.498-2.4 1.382-3.09-.86-5.181-1.426-1.328-2.833-3.14-3.13-4.03-.296-.89-1.244-1.185-2.104-.653-1.89 1.17-2.103 13.447-.249 14.593 2.225 1.373 1.45 4.592-1.11 4.592-4.576 0-6.858-4.21-5.934-10.94l.838-6.127-3.956.79c-5.02 1.003-5.771-.255-6.033-10.15-.258-9.634-3.543-13.332-11.265-12.685-4.686.395-4.695.41-4.613 6.628.046 3.428-.091 6.236-.304 6.236-.21 0-1.586-2.364-3.06-5.251-1.474-2.887-3.258-5.248-3.963-5.248-.708 0-1.285-1.213-1.285-2.693 0-3.09 6.855-6.543 12.751-6.421 11.116.225 17.434 6.968 17.434 18.607 0 4.622.502 6.254 1.924 6.254 1.56 0 2-2.826 2.298-14.748.303-12.131.735-14.82 2.422-15.143 1.124-.216 2.923.663 3.996 1.954zm-22.123 18.32c3.27.886 2.839 2.634-.881 3.567-3.85.97-7.613-.286-6.947-2.313.535-1.629 4.254-2.224 7.828-1.255zm3.607 8.213c0 2-7.4 5.44-9.758 4.538-2.175-.836-2.707-2.605-1.07-3.54 2.572-1.466 10.828-2.225 10.828-.998zm4.404 12.5c2.774 2.57 3.473 4.415 3.473 9.186 0 3.282.593 5.969 1.316 5.969.727 0 3.522-1.182 6.215-2.626 6.114-3.276 7.047-3.27 11.323.094 4.844 3.811 4.346 4.805-2.48 4.942-3.267.067-8.676 1.33-12.019 2.808-5.734 2.537-6.22 2.565-8.545.459-1.356-1.228-2.188-2.948-1.854-3.83.447-1.154-.362-1.09-2.905.238-4.954 2.583-8.406 2.388-7.871-.444.316-1.669 1.936-2.407 5.89-2.696 6.05-.443 7.32-2.112 5.834-7.694-.85-3.222-1.708-3.775-6.357-4.118-5.124-.38-5.413-.198-6.321 3.938-.952 4.316-.96 4.319-2.14 1.052-.653-1.802-2.197-4.054-3.434-5.002-2.103-1.61-2.085-1.842.304-3.607 1.44-1.07 5.485-1.89 9.324-1.89 5.372 0 7.494.668 10.247 3.22zm-5.531 8.636c-3.477 2.896-6.148 3.294-7.494 1.122-1.234-1.997 1.905-3.756 6.655-3.726l3.936.021-3.1 2.583z"/><path fill="#8f8f8f" d="M91.608 27.055c.446 2.705.82 6.506.826 8.448.015 3.334.283 3.486 4.938 2.76 2.705-.423 7.871-1.626 11.485-2.675 11.67-3.403 17.981-3.51 21.327-.374 5.136 4.817 3.896 6.513-4.151 5.683-3.905-.404-8.555-.367-10.333.076l-3.227.812 1.936 9.533c1.063 5.242 2.762 10.463 3.768 11.603 3.094 3.494 2.285 5.567-1.775 4.558-3.735-.924-6.078-.954-12.797-.176-2.166.252-5.56.525-7.545.61-2.684.116-3.61.83-3.61 2.781 0 3.03 1.103 3.185 7.992 1.125 4.215-1.268 5.552-1.155 8.396.71 4.826 3.161 3.14 4.465-5.798 4.465-4.285 0-8.42.389-9.19.863-2.005 1.24-1.726 5.446.505 7.68 2.382 2.382 1.316 3.53-3.276 3.53-4.665 0-6.85-2.759-5.726-7.238.766-3.054.547-3.45-1.583-2.811-8.017 2.392-9.873 2.419-12.341.185-3.756-3.397-2.048-4.573 6.661-4.573 6.923 0 7.798-.295 7.798-2.623 0-3.07-.893-3.14-12.994-1.064-10.141 1.739-11.804 1.116-15.347-5.737-1.747-3.376-1.687-4.033.672-7.315 1.425-1.981 2.984-5.82 3.464-8.524l.872-4.923H56.6c-4.893 0-6.452-.626-8.716-3.507-4.112-5.227-1.762-6.622 7.497-4.455 4.145.972 12.63 2.036 18.857 2.364l11.314.596.9-6.358c1.726-12.216 3.743-14.578 5.157-6.03zm2.4 16.833c-2.963.923-.477 2.862 2.857 2.224 3.653-.699 9.15 1.805 8.014 3.647-.426.687-3.1 1.246-5.945 1.246-3.683 0-5.172.559-5.172 1.939 0 1.45.985 1.738 3.933 1.148 3.713-.744 7.88 1.107 7.88 3.495 0 .556-2.757 1.52-6.127 2.137-3.37.62-6.394 1.93-6.72 2.908-.473 1.422.57 1.571 5.143.735 3.154-.577 7.062-1.085 8.688-1.127 3.419-.091 3.483-.63 1.37-11.76l-1.58-8.34-5.309.605c-2.92.331-6.087.845-7.032 1.143zm-25.755 3.51c-3.06 14.532-3.103 15.456-.772 17.094 3.428 2.403 18.407 1.343 18.407-1.307 0-1.592-1.015-1.857-4.78-1.246-5.318.863-9.658-.827-9.658-3.76 0-1.458 1.754-1.923 7.218-1.923 5.719 0 7.22-.431 7.22-2.085 0-1.707-.957-1.92-5.297-1.188-5.57.942-9.14-.687-9.14-4.163 0-1.416 1.087-1.666 4.479-1.03 4.868.911 9.958-.17 9.958-2.122 0-.674-3.829-1.224-8.509-1.224-7.758 0-8.557.258-9.126 2.954zM96.37 93.924l2.905 3.677-2.756.416c-2.52.383-2.757 1.274-2.757 10.269 0 8.64.28 9.795 2.28 9.409 1.458-.28 2.546-2.116 3.038-5.133 1.049-6.467 5.382-12.095 12.542-16.289 5.106-2.99 6.327-3.267 7.838-1.76 2.522 2.523.993 7.55-2.052 6.753-1.306-.343-3.944.404-5.862 1.66-3.443 2.254-8.062 9.426-6.853 10.636.344.343 3.14-.657 6.209-2.222 4.321-2.203 6.473-2.592 9.54-1.714 6.606 1.896 5.475 3.908-3.152 5.604-11.843 2.33-14.52 3.83-14.065 7.87.496 4.398-1.875 5.532-3.555 1.7-.72-1.641-2.197-2.82-3.282-2.614-2.571.486-3.392 10.904-1.18 15.034 2.183 4.081.493 5.373-3.816 2.917-3.23-1.838-3.501-2.598-3.115-8.807l.42-6.798-3.87.775c-4.925.985-5.685-.313-5.947-10.171-.258-9.63-3.543-13.33-11.265-12.682-4.498.377-4.729.648-5.482 6.3-.435 3.252-.878 4.96-.985 3.802-.11-1.158-1.705-3.732-3.546-5.72-1.845-1.987-3.164-4.585-2.936-5.77.593-3.088 9.61-5.69 16.262-4.69 9.43 1.413 13.644 7.282 13.644 18.985 0 5.12.395 6.284 1.93 5.698 1.501-.578 2.006-3.963 2.298-15.365.31-12.317.708-14.69 2.516-15.037 1.185-.228 3.455 1.243 5.054 3.264zm-23.935 17.07c3.96.76 3.738 2.528-.456 3.58-3.531.887-7.625-1.27-6.342-3.343.735-1.195 1.668-1.225 6.798-.237zm3.692 8.393c.927 1.505-3.899 3.805-7.98 3.805-5.197 0-3.294-3.124 2.474-4.063 2.67-.435 5.148-.316 5.506.258zM115.041 126c-4.817 3.082-8.929 9.682-6.838 10.977 2.34 1.443 1.383 3.276-1.71 3.276-3.523 0-6.17-2.258-6.17-5.267 0-4.367 10.667-11.833 16.82-11.773 1.426.015.676 1.006-2.102 2.787zm-36.373 3.957c4.388 2.4 5.907 5.281 5.907 11.204 0 3.11.575 5.653 1.277 5.653s3.95-1.295 7.214-2.881l5.938-2.887 3.529 2.638c5.409 4.038 4.932 5.072-2.514 5.44-3.768.182-9.062 1.43-11.77 2.77-4.233 2.095-5.278 2.183-7.475.648-2.2-1.544-2.37-2.44-1.24-6.534 2.44-8.834-1.064-14.106-8.44-12.696-2.46.47-3.871 1.738-4.436 3.98-.76 3.04-.924 3.1-2.118.83-.708-1.355-2.25-3.236-3.425-4.184-1.951-1.574-1.915-1.884.413-3.607 2.987-2.213 13.365-2.44 17.14-.374zm-.657 8.296c0 .347-1.392 1.54-3.093 2.656-3.756 2.462-8.297 1.346-5.966-1.465 1.374-1.653 9.06-2.662 9.06-1.188zm0 8.403c0 .638-1.802 1.902-4.011 2.814-3.09 1.282-4.364 1.307-5.564.106s-1.11-1.841.4-2.796c2.477-1.565 9.178-1.656 9.178-.121z"/><path fill="#6f6f6f" d="M90.106 22.846c.517.52 1.331 4.406 1.809 8.637l.872 7.688 5.409-.826c2.975-.453 8.953-1.915 13.283-3.252 4.334-1.337 9.421-2.434 11.308-2.443 3.47-.019 10.348 4.397 10.348 6.64 0 .668-4.394 1.215-9.764 1.215-5.373 0-10.053.462-10.4 1.027-1.081 1.75 3.067 19.07 5.106 21.325 3.203 3.537 2.431 5.646-1.675 4.598-4.23-1.082-10.581-1.08-18.373 0-4.519.629-5.58 1.291-5.58 3.491 0 2.438.505 2.614 4.923 1.739 7.4-1.468 10.91-1.161 13.229 1.16 1.155 1.155 1.529 2.14.833 2.195-.7.051-4.62.285-8.72.516-4.096.237-8.083.82-8.858 1.298-2.008 1.243-1.738 5.446.499 7.682 2.382 2.383 1.316 3.532-3.276 3.532-4.598 0-6.847-2.766-5.762-7.093.972-3.884.738-3.957-6.127-1.9-5.442 1.632-9.053.122-9.053-3.783 0-1.517 1.012-1.763 4.516-1.106 6.306 1.185 11.235-.274 11.235-3.322 0-2.942-3.154-3.188-13.213-1.03-8.208 1.763-12.007.407-14.98-5.34-1.938-3.75-1.898-4.224.63-7.645 1.483-2.006 3.054-5.844 3.489-8.528l.79-4.877h-5.98c-4.89 0-6.474-.626-8.686-3.434-4.753-6.048-1.553-7.12 11.256-3.784 4.157 1.082 11.837 1.97 17.067 1.97h9.506l.778-4.924c1.313-8.345 2.583-12.414 3.561-11.426zm3.981 21.011c-3.558 1.094-1.568 3.404 2.222 2.571 3.774-.826 10.271 1.383 8.697 2.96-.437.435-3.245 1.124-6.239 1.535-2.996.407-5.722 1.568-6.06 2.58-.473 1.428.329 1.65 3.61.994 4.192-.836 9.258.802 9.258 2.996 0 .626-2.954 1.55-6.565 2.045-4.482.617-6.56 1.51-6.56 2.826 0 1.56 1.19 1.745 6.232.964 3.431-.529 7.27-.897 8.534-.818 2.765.173 2.91-2.461.726-13.037l-1.571-7.603-5.318.741c-2.927.407-6.06.967-6.963 1.246zM66.731 53.63c-1.362 7.425-1.292 8.84.532 10.901 1.55 1.75 3.312 2.188 6.752 1.69 2.559-.374 6.279-.7 8.263-.73 2.44-.03 3.61-.741 3.61-2.185 0-1.75-.93-1.987-5.157-1.312-3.78.607-5.704.273-7.217-1.237-3.495-3.495-2.346-4.5 5.154-4.5 5.719 0 7.22-.432 7.22-2.086 0-1.707-.957-1.92-5.297-1.188-5.482.927-9.14-.678-9.14-4.011 0-1.292 1.774-1.529 7.217-.97 6.19.639 7.22.432 7.22-1.464 0-1.894-1.27-2.158-8.797-1.824l-8.798.386zm29.113 40.26c3.355 3.61 3.373 3.72.684 4.127-2.547.386-2.766 1.252-2.766 10.874 0 10.05.104 10.402 2.626 9.05 1.443-.772 2.622-2.586 2.622-4.036 0-5.057 5.072-12.38 11.618-16.775 7.294-4.893 9.385-4.589 9.385 1.364 0 3.155-.371 3.714-1.711 2.602-1.258-1.046-2.802-.76-5.844 1.094-3.902 2.37-9.12 10.016-7.765 11.372.344.343 3.14-.657 6.209-2.222 4.321-2.203 6.473-2.592 9.54-1.714 6.411 1.842 5.418 3.802-2.696 5.337-12.955 2.449-15.18 3.72-14.505 8.305.456 3.097.124 3.88-1.495 3.574-1.143-.219-2.268-1.717-2.499-3.334-.349-2.461-.826-2.717-2.95-1.58-1.933 1.033-2.535 2.771-2.535 7.302 0 3.27.638 7.142 1.42 8.598 1.98 3.707.382 4.686-3.79 2.321-3.261-1.844-3.501-2.546-3.07-8.998.447-6.792.371-6.977-2.637-6.22-4.805 1.203-5.975-.435-6.598-9.24-.741-10.45-3.252-13.498-11.122-13.498h-5.702l-.051 6.233-.052 6.236-1.863-4.285c-1.024-2.358-2.771-4.638-3.887-5.063-2.975-1.143-2.461-5.419.867-7.202 4.376-2.34 16.106-1.927 20.133.714 4.379 2.868 7.165 9.503 7.165 17.063 0 4.656.408 5.75 1.927 5.167 1.501-.575 2.006-3.951 2.298-15.271.41-16.182 1.437-17.918 7.04-11.895zm-24.722 17.195c3.793.614 3.796 2.395.01 3.382-3.329.872-7.826-2.279-4.705-3.294.957-.313 3.07-.353 4.695-.091zm3.61 10.18c-2.799 2.173-9.186 2.146-9.186-.042 0-.72 2.656-1.465 5.904-1.653 5.565-.323 5.756-.225 3.282 1.695zm39.735 5.094c-5.926 4.175-8.46 8.29-6.388 10.362 2.279 2.28 1.68 3.532-1.687 3.532-1.717 0-3.902-.942-4.86-2.094-3.491-4.206 4.462-12.885 13.23-14.435l4.594-.815-4.892 3.45zm-35.8 3.668c4.331 2.482 5.823 5.336 5.866 11.213.024 3.067.568 5.577 1.21 5.577.644 0 3.652-1.112 6.685-2.47 6.13-2.745 9.248-2.426 12.609 1.288 2.173 2.4 2.1 2.492-1.927 2.492-2.3 0-7.786 1.215-12.19 2.698-10.848 3.656-12.116 2.994-11.022-5.768.72-5.759.435-7.512-1.634-10.068-2.2-2.717-3.045-2.941-6.905-1.835-2.993.86-4.69 2.3-5.306 4.51-.495 1.786-.963 2.507-1.033 1.604-.073-.9-1.292-2.799-2.71-4.218-2.32-2.319-2.374-2.78-.563-4.592 2.395-2.395 13.025-2.665 16.92-.431zm-1.306 8.907c-1.529 2.473-5.336 3.798-7.294 2.54-1.647-1.06-1.64-1.391.07-2.513 2.577-1.693 8.266-1.714 7.224-.027zm.65 7.552c0 2.276-7.792 4.874-9.5 3.166-1.978-1.978-.932-2.799 4.744-3.72 2.836-.461 4.756-.237 4.756.554z"/><path fill="#4f4f4f" d="M90.216 23.028c.364.59 1.085 4.495 1.604 8.676l.945 7.604 6.078-.866c3.343-.477 9.303-1.979 13.25-3.337 3.942-1.361 8.737-2.474 10.649-2.474 3.513 0 10.393 4.407 10.393 6.656 0 .671-4.394 1.218-9.764 1.218-5.373 0-10.068.486-10.433 1.082-1.103 1.784 2.796 18.182 5.197 21.844 2.722 4.154 1.856 5.288-2.985 3.905-3.814-1.088-12.845-.975-19.09.24-2.538.493-3.61 1.501-3.61 3.395 0 2.4.525 2.589 4.922 1.747 7.072-1.358 11.13-.972 13.369 1.264 1.735 1.739 1.367 1.963-3.246 1.976-2.86.009-7.473.389-10.244.847-4.559.754-4.984 1.161-4.452 4.252.325 1.878 1.033 4.452 1.574 5.713.763 1.784.346 2.298-1.869 2.298-5.443 0-7.926-2.313-7.072-6.589.87-4.34-1.291-5.175-6.36-2.461-3.337 1.784-8.935-.377-8.935-3.45 0-1.64.933-1.884 4.586-1.197 6.47 1.216 11.165-.213 11.165-3.391 0-3.1-4.133-3.416-14.252-1.08-5.644 1.301-7.057 1.207-9.926-.674-4.792-3.14-5.476-7.594-2.206-14.35 3.914-8.083 3.635-11.031-1.146-12.083-2.148-.47-4.415-.54-5.035-.158-1.863 1.152-6.807-3.084-6.807-5.828 0-3.094 1.81-3.173 12.019-.526 4.704 1.215 11.815 1.869 17.905 1.64l10.105-.382.814-7.597c.82-7.634 1.641-9.901 2.857-7.914zm5.348 20.103c-1.884 0-3.115.772-3.115 1.96 0 1.447 1.383 1.905 5.297 1.75 7.415-.288 9.774 2.401 3.079 3.52-7.2 1.2-8.376 1.677-8.376 3.379 0 .951 1.56 1.264 4.267.85 4.294-.65 8.859.821 8.859 2.857 0 .602-2.954 1.49-6.565 1.967-4.77.632-6.56 1.443-6.56 2.966 0 1.69.95 1.938 4.922 1.282 2.705-.45 6.546-.82 8.53-.83 4.231-.015 4.468-1.607 2.013-13.493-1.569-7.585-1.672-7.718-5.416-6.97-2.097.418-5.218.762-6.932.762zM66.542 53.21c-1.64 9.591-1.234 11.773 2.42 12.93 4.488 1.426 16.926-.771 16.926-2.99 0-1.558-1.121-1.841-5.169-1.297-3.866.516-5.689.121-7.22-1.571-3.13-3.465-2.626-3.866 5.394-4.288 4.953-.265 7.646-1.012 8.053-2.237.49-1.489-.608-1.677-5.668-.985-6.336.87-9.828-.437-9.828-3.677 0-1.118 2.088-1.413 7.05-1.003 4.368.365 7.391.03 7.95-.875 1.714-2.771-.334-3.428-9.372-3.005l-9.065.425-1.468 8.57zm29.299 40.68c3.358 3.61 3.376 3.72.687 4.126-2.547.386-2.766 1.252-2.766 10.874 0 10.05.104 10.402 2.626 9.05 1.443-.772 2.622-2.605 2.622-4.07 0-7.338 11.85-19.552 18.967-19.552 1.404 0 2.036 1.27 2.036 4.096 0 3.222-.368 3.793-1.711 2.68-2.407-1.996-9.378 2.453-12.104 7.723-1.17 2.264-1.885 4.367-1.58 4.668.303.304 3.19-.617 6.412-2.043 4.211-1.862 6.95-2.303 9.718-1.562 5.956 1.593 4.604 3.319-3.92 5.003-12.116 2.391-14.271 3.722-13.584 8.4.45 3.08.121 3.865-1.498 3.555-1.143-.213-2.268-1.717-2.499-3.334-.464-3.258-.477-3.267-3.41-2.142-1.564.601-2.075 2.683-2.075 8.454 0 4.212.599 8.029 1.334 8.479 2.091 1.294.152 3.245-2.361 2.373-4.066-1.41-5.172-4.12-4.507-11.047.62-6.46.541-6.66-2.066-5.266-4.984 2.671-6.838.59-6.838-7.689 0-8.648-2.963-13.733-8.63-14.814-6.504-1.246-8.427.133-8.47 6.071-.037 4.68-.24 5.063-1.492 2.8-.8-1.444-2.571-3.86-3.936-5.374-4.865-5.388-.79-8.357 11.524-8.387 11.016-.03 16.228 6.418 16.246 20.103.006 3.44.53 4.862 1.65 4.488 1.128-.374 1.845-5.172 2.295-15.426.73-16.52 1.753-18.23 7.33-12.238zm-21.765 18.646c0 1.414-3.975 2.56-6.236 1.8-3.112-1.046-1.629-2.957 2.297-2.957 2.167 0 3.939.522 3.939 1.157zm.577 8.643c-2.856 2.158-7.916 2.629-9.025.836-.949-1.535 2.38-2.762 7.494-2.762 3.868 0 3.95.1 1.531 1.926zm40.51 4.58c-5.987 3.647-9.078 8.667-6.93 11.25.91 1.097 1.301 2.346.87 2.778-1.325 1.325-7.537-.812-8.324-2.866-1.188-3.1 3.227-8.49 9.163-11.186 7.171-3.255 10.572-3.24 5.217.024zm-38.465 3.607c5.03 1.839 7.877 6.096 7.877 11.773 0 6.184 1.119 6.82 6.565 3.708 4.616-2.641 9.682-2.407 13.304.61l3.1 2.584-4.31.042c-2.37.024-7.91 1.258-12.313 2.741-10.746 3.623-12.08 2.966-10.934-5.364 1.44-10.46-3.665-15.78-11.248-11.724-1.397.748-2.54 2.304-2.54 3.459 0 1.513-.732 1.166-2.623-1.237-1.443-1.836-2.625-3.915-2.625-4.62 0-2.416 10.824-3.77 15.747-1.972zm-.577 10.272c-2.814 2.127-7.293 2.592-7.293.757 0-1.49 3.312-2.778 6.995-2.726 2.784.042 2.79.085.298 1.969zm1.298 7.078c-1.55 2.507-7.497 4.345-9.047 2.795-1.802-1.802-1.094-2.297 4.908-3.415 3.829-.718 4.868-.56 4.139.62z"/><path fill="#2e2e2e" d="M90.243 24.757c.383 1.082 1.082 4.832 1.55 8.336l.857 6.37 5.956-.894c3.28-.492 9.512-2.03 13.855-3.415 4.34-1.386 9.21-2.523 10.825-2.523 3.017 0 9.849 4.559 9.849 6.574 0 .62-4.407 1.045-9.786.942-5.385-.104-10.15.173-10.593.614-1.34 1.343 2.16 17.173 4.844 21.895 2.984 5.254 2.492 6.148-2.444 4.455-3.491-1.194-8.928-1.073-18.44.41-3.394.53-4.267 1.289-4.267 3.708 0 2.911.237 2.984 5.744 1.723 6.023-1.377 12.63-.486 12.63 1.702 0 .711-2.288 1.288-5.084 1.288s-6.932.371-9.187.821c-3.428.687-4.103 1.428-4.103 4.516 0 2.036.602 4.066 1.334 4.522 1.921 1.185.25 3.267-2.628 3.267-3.72 0-6.33-3.334-5.604-7.142.717-3.756-1.699-4.467-6.48-1.911-3.18 1.701-8.934-.32-8.934-3.143 0-1.33 1.897-1.616 7.874-1.185 7.862.571 7.877.565 7.877-3.054v-3.625l-8.205 1.033c-12.329 1.562-15.65 1.285-17.662-1.468-3.064-4.188-3.495-8.293-1.14-10.895 1.2-1.325 2.538-4.607 2.975-7.296.942-5.792-.583-7.202-7.825-7.233-3.996-.015-5.236-.65-6.446-3.303-.823-1.808-1.127-3.66-.677-4.109.456-.456 4.658.14 9.344 1.316 4.686 1.18 13.566 2.142 19.732 2.142h11.214l.091-5.58c.113-6.66 1.866-11.92 2.954-8.858zm4.504 18.359c-1.264.009-2.298.902-2.298 1.984 0 1.459 1.532 1.97 5.905 1.97 7.637 0 7.637 2.203 0 3.348-7.685 1.155-7.962 4.224-.428 4.778 5.798.425 8.858 3.67 3.494 3.704-5.257.03-8.97 1.52-8.97 3.595 0 1.617 1.151 1.836 6.09 1.158 3.348-.459 7.52-.836 9.274-.836 2.392 0 3.036-.571 2.577-2.294-.334-1.264-1.355-6.05-2.264-10.637l-1.659-8.341-4.71.778c-2.593.428-5.747.787-7.011.793zm-21.88 1.328h-4.82l-1.502 8.764c-2.185 12.751-1.151 14.125 9.874 13.098 7.85-.736 11.524-2.538 10.044-4.93-.307-.5-2.599-.449-5.09.113-3.204.72-5.319.468-7.227-.869-3.61-2.528-3.456-4.868.258-3.899 4.72 1.237 12.794-.52 12.794-2.78 0-1.587-1.155-1.82-5.844-1.177-4.54.62-6.354.295-8.12-1.464-2.158-2.143-1.9-2.283 4.862-2.666 7.555-.425 10.014-1.653 8.437-4.209-.593-.957-2.486-1.255-4.905-.768-2.17.431-6.112.79-8.762.79zm22.956 49.425c3.373 3.626 3.394 3.741.705 4.148-2.54.386-2.766 1.255-2.766 10.707 0 9.432.204 10.232 2.474 9.636 1.683-.438 2.738-2.28 3.291-5.747.906-5.646 6.914-13.383 12.74-16.395 5.822-3.008 7.746-2.461 7.746 2.197 0 3.295-.35 3.811-1.778 2.626-3.446-2.86-16.669 9.394-13.523 12.536.565.568 2.814.012 4.99-1.237 4.22-2.422 11.122-2.963 14.058-1.103 2.315 1.468.854 2.249-6.373 3.419-3.252.525-7.892 1.771-10.323 2.771-3.896 1.605-4.346 2.288-3.83 5.814.46 3.12.134 3.91-1.488 3.6-1.143-.218-2.268-1.72-2.499-3.336-.464-3.258-.477-3.267-3.41-2.142-2.552.981-2.953 14.86-.5 17.316 1.224 1.224.799 1.574-1.921 1.574-4.659 0-6.355-3.41-4.902-9.856 1.377-6.093.68-7.664-2.614-5.901-4.467 2.394-6.485.334-6.208-6.346.365-8.721-2.28-14.207-7.7-15.997-7.054-2.327-9.722-.768-9.768 5.704-.037 4.73-.243 5.127-1.492 2.866-.8-1.443-2.702-4.005-4.224-5.689l-2.775-3.066 3.1-2.513c2.097-1.702 5.142-2.513 9.427-2.513 12.778 0 17.14 4.26 17.434 17.024.182 8.013.45 8.5 3.908 7.172 1.59-.608 1.811-3.112 1.246-14.131-.571-11.223-.343-13.676 1.41-15.131 1.793-1.486 2.596-1.198 5.562 1.993zm-21.747 18.823c0 .72-1.772 1.313-3.939 1.313-2.166 0-3.938-.592-3.938-1.313 0-.723 1.772-1.312 3.938-1.312 2.167 0 3.939.59 3.939 1.312zm-.578 8.51c-3.087 2.41-7.73 2.643-6.977.349.295-.903 2.559-1.8 5.03-1.99 4.239-.335 4.348-.244 1.944 1.64zm40.27 5.272c-5.62 4.58-7.525 8.144-5.595 10.466 1.872 2.255-.31 3.799-3.802 2.693-7.81-2.48-1.124-12.612 10.39-15.745 3.024-.824 2.948-.62-.993 2.586zm-36.16 3.291c4.418 1.781 7.232 7.06 6.779 12.718-.444 5.537.793 5.914 7.664 2.331 4.352-2.27 7.51-2.437 10.983-.577 4.133 2.212 2.948 3.476-4.02 4.303-3.61.425-8.625 1.756-11.147 2.95-7.172 3.404-8.655 2.055-7.71-6.998.647-6.193.374-8.096-1.422-9.889-3.763-3.762-12.536-1.945-12.536 2.593 0 1.455-.875.984-2.857-1.535-2.771-3.525-2.783-3.686-.404-5.425 2.735-2.002 10.272-2.242 14.67-.47zm-1.642 9.792c-2.826 2.136-7.141 2.653-7.141.85 0-1.181 4.373-2.728 7.798-2.762 1.343-.012 1.154.544-.657 1.912zm.155 7.956c-2.774 2.1-8.61 2.628-8.61.78 0-.631 1.848-1.519 4.103-1.968 6.182-1.237 7.318-.936 4.507 1.188z"/><path fill="#010101" d="M90.32 25.465c.449 1.174.826 4.003.838 6.291.042 8.68 2.917 9.099 22.795 3.328 10.244-2.978 15.167-2.252 17.769 2.613 1.306 2.44.917 2.553-8.34 2.358-5.339-.112-10.128.213-10.635.72-1.52 1.514 2.066 18.478 4.695 22.225 2.868 4.087 2.16 5.348-2.1 3.728-1.699-.647-6.215-.866-10.038-.489-11.955 1.18-12.855 1.55-12.855 5.276 0 2.662.487 3.212 2.237 2.537 5.738-2.2 12.976-2.31 14.709-.219 1.568 1.888 1.078 2.112-4.644 2.128-9.867.03-12.302 1.042-12.302 5.123 0 1.936.642 4.164 1.429 4.948 2.045 2.045-.535 3.312-4.65 2.279-2.76-.693-3.343-1.617-3.343-5.29 0-3.626-.501-4.453-2.71-4.453-1.49 0-3.903.638-5.358 1.416-2.076 1.112-3.191.927-5.166-.86-1.38-1.252-2.514-2.625-2.517-3.057 0-.428 3.693-.781 8.206-.781 7.876 0 8.205-.13 8.205-3.282 0-2.498-.626-3.212-2.626-3-1.443.155-7.145.681-12.672 1.164l-10.044.882-2.246-4.34c-2.054-3.975-2.07-4.637-.182-7.834 1.136-1.92 2.607-5.917 3.273-8.88 1.392-6.19.626-6.865-7.795-6.865-4.246 0-5.44-.59-6.668-3.285-.823-1.808-1.115-3.671-.647-4.14.468-.467 4.55.144 9.071 1.356 4.522 1.216 13.241 2.337 19.37 2.498l11.154.292.82-7.598c.897-8.265 1.696-10.098 2.966-6.789zm7.05 17.198c-7.221 1.191-6.504 4.406.984 4.406 7.63 0 7.63 2.067 0 3.213-4.315.647-5.905 1.483-5.908 3.1 0 1.689 1.176 2.218 4.923 2.218 5.233 0 8.035 2.318 3.61 2.987-6.73 1.018-8.53 1.808-8.53 3.753 0 1.805 1.228 1.966 8.859 1.158 4.874-.517 9.074-1.143 9.336-1.395.26-.25-.517-4.917-1.733-10.369-2.38-10.706-2.255-10.606-11.539-9.071zM74.582 43.96l-6.707.805-1.622 9.068c-2.018 11.305-1.03 12.922 7.895 12.922 7.67 0 13.052-1.87 13.052-4.537 0-1.584-1.164-1.815-5.89-1.167-3.88.531-6.564.243-7.873-.842-2.854-2.37-2.45-4.276.693-3.282 4.3 1.367 13.067-.599 13.067-2.927 0-1.62-1.167-1.893-5.853-1.364-4.613.52-6.324.14-8.077-1.796-2.152-2.38-1.958-2.462 5.853-2.462 7.202 0 8.08-.282 8.08-2.622 0-2.912-1.528-3.13-12.618-1.796zm20.945 50.133c2.586 2.857 2.783 4.285.532 3.832-1.186-.237-1.748 2.73-2.024 10.66-.34 9.695-.134 10.895 1.747 10.175 1.173-.45 2.377-.82 2.68-.82.304 0 .547-1.204.547-2.675 0-4.78 5.194-13.015 10.734-17.03 7.272-5.266 10.269-5.184 10.269.283 0 3.264-.353 3.847-1.578 2.622-2.206-2.206-2.935-2.027-7.557 1.863-4.094 3.443-8.67 10.697-7.498 11.87.347.344 3.024-.595 5.95-2.09 5.662-2.887 11.409-3.462 14.582-1.456 2.233 1.413 3.039 1.088-11.062 4.485-9.901 2.386-11.52 3.723-10.317 8.525.58 2.31.31 2.978-1.04 2.531-1.003-.331-2.015-1.884-2.246-3.452-.464-3.164-.486-3.176-3.41-2.054-2.552.981-2.953 14.86-.5 17.316 1.224 1.224 1.005 1.57-.985 1.555-5.258-.042-6.236-1.844-5.258-9.679.76-6.105.578-7.363-1.066-7.363-1.094 0-2.316.535-2.72 1.188-.404.654-1.966.87-3.47.474-2.316-.604-2.611-1.392-1.915-5.105 1.389-7.385-1.368-14.715-6.43-17.13-2.675-1.277-5.729-1.757-7.81-1.234-3.01.753-3.423 1.525-3.429 6.412l-.006 5.552-1.99-3.814c-1.094-2.097-3.009-4.57-4.255-5.497-2.09-1.55-2.103-1.854-.155-3.836 2.562-2.601 11.077-3.908 17.55-2.695 6.58 1.237 9.852 6.85 9.859 16.918.006 7.169.188 7.612 2.96 7.217 2.847-.404 2.935-.836 2.522-12.055-.638-17.161 1.291-21.568 6.789-15.493zm-22.765 18.598c0 .72-1.477 1.313-3.282 1.313s-3.282-.592-3.282-1.313c0-.723 1.477-1.312 3.282-1.312s3.282.59 3.282 1.312zm.732 8.57c-2.805 2.125-7.293 2.596-7.293.77 0-1.21 4.485-2.76 7.87-2.718 1.496.019 1.36.487-.577 1.951zm37.419 7.74c-3.467 3.58-4.188 5.191-3.513 7.877.942 3.744-.146 4.237-3.668 1.66-3.516-2.568-2.149-7.564 3.02-11.038 6.923-4.652 9.3-3.798 4.164 1.502zm-33.219 1.332c5.066 2.282 7.266 7.171 6.078 13.508-.814 4.351-.705 4.528 2.27 3.607 1.717-.532 4.72-1.778 6.67-2.766 4.836-2.461 8.1-2.264 10.737.648 2.137 2.361 1.976 2.477-4.15 3.07-3.505.333-8.355 1.598-10.78 2.807s-5.47 1.863-6.774 1.45c-2.045-.65-2.258-1.772-1.577-8.294.635-6.062.352-7.974-1.434-9.76-3.997-3.997-12.509-2.523-12.576 2.181-.04 2.766-.06 2.769-1.528.189-.818-1.444-2.124-3.045-2.902-3.556-2.356-1.55 1.015-3.814 6.61-4.44 2.877-.325 6.934.265 9.356 1.356zm-2.14 9.037c-1.956 2.383-6.73 3.009-6.73.882 0-.72.443-1.32.984-1.328.541-.01 2.462-.41 4.267-.885 2.948-.778 3.097-.64 1.48 1.331zm.566 8.005c-2.83 2.294-8.61 2.799-8.61.754 0-.724 1.034-1.322 2.298-1.331 1.264-.01 3.775-.35 5.58-.754 3.166-.711 3.19-.666.732 1.331z"/></svg>