<?xml version="1.0" encoding="UTF-8" standalone="no"?>
<svg
   xmlns:dc="http://purl.org/dc/elements/1.1/"
   xmlns:cc="http://creativecommons.org/ns#"
   xmlns:rdf="http://www.w3.org/1999/02/22-rdf-syntax-ns#"
   xmlns:svg="http://www.w3.org/2000/svg"
   xmlns="http://www.w3.org/2000/svg"
   xmlns:sodipodi="http://sodipodi.sourceforge.net/DTD/sodipodi-0.dtd"
   xmlns:inkscape="http://www.inkscape.org/namespaces/inkscape"
   inkscape:version="1.0 (4035a4fb49, 2020-05-01)"
   sodipodi:docname="1NG.svg"
   id="svg29"
   version="1.1"
   width="177.17"
   height="177.17">
  <metadata
     id="metadata35">
    <rdf:RDF>
      <cc:Work
         rdf:about="">
        <dc:format>image/svg+xml</dc:format>
        <dc:type
           rdf:resource="http://purl.org/dc/dcmitype/StillImage" />
      </cc:Work>
    </rdf:RDF>
  </metadata>
  <defs
     id="defs33" />
  <sodipodi:namedview
     inkscape:current-layer="svg29"
     inkscape:window-maximized="1"
     inkscape:window-y="0"
     inkscape:window-x="0"
     inkscape:cy="138.01348"
     inkscape:cx="46.014669"
     inkscape:zoom="1.5408929"
     showgrid="false"
     id="namedview31"
     inkscape:window-height="711"
     inkscape:window-width="1366"
     inkscape:pageshadow="2"
     inkscape:pageopacity="0"
     guidetolerance="10"
     gridtolerance="10"
     objecttolerance="10"
     borderopacity="1"
     bordercolor="#666666"
     pagecolor="#ffffff" />
  <!--
Created by Hari Seldon and modified by orangain, licensed under Creative Commons Attribution-Share Alike 3.0 Unported.
See: https://creativecommons.org/licenses/by-sa/3.0/deed.en

Original file is available at: https://commons.wikimedia.org/wiki/File:Shogi_narigin(svg).svg
-->
  <filter
     id="drop-shadow">
    <feGaussianBlur
       id="feGaussianBlur2"
       stdDeviation="2"
       result="blur"
       in="SourceAlpha" />
    <feOffset
       id="feOffset4"
       dy="2"
       dx="2"
       result="offsetBlur" />
    <feBlend
       id="feBlend6"
       mode="normal"
       in2="offsetBlur"
       in="SourceGraphic" />
  </filter>
  <g
     id="g27"
     transform="matrix(2.9936494,0,0,2.9936494,25.67495,13.348805)"
     filter="url(#drop-shadow)">
    <g
       id="g25"
       transform="rotate(180,21.039,25)">
      <path
         id="path9"
         fill="#feec99"
         d="M 0.598,48.948 7.458,4.194 20.838,0.258 34.445,4.644 41.529,49.285 Z" />
      <path
         id="path11"
         fill="#fecece"
         d="m 24.088,37.391 c 0.397,-0.478 0.06,-0.525 -1.838,-0.255 -4.253,0.606 -6.373,0.467 -7.507,-0.494 l -1.051,-0.89 1.073,-0.909 c 0.59,-0.5 1.371,-1.075 1.735,-1.279 0.58,-0.324 0.572,-0.498 -0.062,-1.404 -0.647,-0.924 -0.653,-1.113 -0.051,-1.778 0.608,-0.671 0.564,-0.815 -0.454,-1.482 -1.823,-1.194 -1.374,-1.645 1.321,-1.329 2.295,0.27 2.45,0.228 2.45,-0.664 0,-0.665 -0.278,-0.952 -0.92,-0.952 -1.068,0 -2.643,-0.76 -2.643,-1.275 0,-0.47 7.01,-1.964 7.575,-1.615 0.932,0.576 0.427,1.917 -0.896,2.378 -1.769,0.617 -1.84,1.927 -0.086,1.576 0.83,-0.166 1.44,-0.019 1.82,0.437 0.692,0.835 0.29,1.616 -0.833,1.616 -1.274,0 -2.237,0.48 -2.237,1.116 0,0.364 0.528,0.55 1.447,0.508 1.019,-0.046 1.447,0.133 1.447,0.603 0,0.369 -0.647,0.858 -1.447,1.094 -0.916,0.27 -1.447,0.71 -1.447,1.202 0,0.633 0.474,0.8 2.56,0.91 2.247,0.117 2.578,0.253 2.7,1.11 0.1,0.709 -0.228,1.165 -1.203,1.67 -1.64,0.847 -2.095,0.88 -1.453,0.106 z m -4.901,-3.395 0.15,-1.054 -1.479,0.936 c -1.984,1.257 -2.099,1.839 -0.29,1.47 1.095,-0.222 1.506,-0.565 1.619,-1.352 z m 0.07,-3.413 c 0,-0.47 -0.241,-0.622 -0.703,-0.445 -0.388,0.149 -0.889,0.27 -1.114,0.27 -0.224,0 -0.408,0.2 -0.408,0.445 0,0.245 0.5,0.446 1.113,0.446 0.725,0 1.113,-0.25 1.113,-0.716 z m -8.682,-5.207 c 3.341,-2.806 6.326,-6.095 7.45,-8.209 l 1.002,-1.886 -0.997,-0.7 c -1.299,-0.909 -1.263,-1.455 0.118,-1.802 0.706,-0.177 1.536,-0.005 2.258,0.468 0.94,0.616 1.116,1.036 1,2.383 -0.14,1.626 -0.118,1.648 3.963,4.088 5.506,3.291 6.802,4.472 6.802,6.197 0,1.029 -0.203,1.376 -0.802,1.376 -0.8,0 -4.038,-2.627 -8.397,-6.812 l -2.297,-2.205 -3.063,3.062 c -2.636,2.635 -7.678,6.004 -8.88,5.933 -0.21,-0.013 0.619,-0.864 1.843,-1.893 z" />
      <path
         id="path13"
         fill="#feb0b0"
         d="m 15.139,37.081 c -1.29,-0.8 -0.934,-2.12 0.814,-3.016 1.405,-0.72 1.51,-0.887 0.891,-1.401 -0.79,-0.655 -0.935,-2.06 -0.258,-2.478 0.714,-0.441 0.517,-1.03 -0.445,-1.336 -0.49,-0.156 -0.89,-0.54 -0.89,-0.855 0,-0.42 0.598,-0.516 2.226,-0.36 2.04,0.197 2.226,0.136 2.226,-0.732 0,-0.66 -0.278,-0.948 -0.92,-0.948 -1.064,0 -2.642,-0.76 -2.642,-1.272 0,-0.357 4.654,-1.445 6.667,-1.56 1.672,-0.094 1.698,1.293 0.04,2.15 -1.8,0.931 -1.87,2.2 -0.099,1.811 0.833,-0.183 1.443,-0.063 1.787,0.351 0.643,0.776 -0.06,1.477 -1.711,1.706 -0.632,0.088 -1.174,0.497 -1.26,0.95 -0.123,0.642 0.056,0.745 0.918,0.529 0.692,-0.174 1.273,-0.025 1.643,0.42 0.486,0.585 0.392,0.757 -0.619,1.142 -0.654,0.249 -1.378,0.453 -1.606,0.453 -0.23,0 -0.417,0.39 -0.417,0.867 0,0.73 0.364,0.888 2.292,1.002 2.736,0.16 3.88,1.294 2.41,2.387 -1.045,0.775 -2.215,0.856 -1.76,0.12 0.213,-0.345 0.082,-0.429 -0.39,-0.248 -1.47,0.565 -8.116,0.802 -8.897,0.318 z m 3.34,-1.769 c 0.534,-0.004 0.779,-0.359 0.779,-1.13 0,-1.091 -0.038,-1.105 -1.257,-0.475 -0.691,0.357 -1.543,0.998 -1.892,1.424 -0.58,0.707 -0.538,0.749 0.477,0.481 0.613,-0.162 1.464,-0.296 1.893,-0.3 z m 0.779,-4.506 c 0,-0.886 -0.357,-1.02 -1.522,-0.573 -1.091,0.419 -0.83,1.281 0.409,1.353 0.818,0.047 1.113,-0.16 1.113,-0.78 z m 6.217,-8.128 -5.137,-4.614 -1.32,1.761 c -1.33,1.776 -5.543,5.2 -7.898,6.417 -2.508,1.297 -2.05,0.336 1.091,-2.29 3.144,-2.628 6.568,-6.915 6.59,-8.25 0.007,-0.374 -0.428,-1.057 -0.965,-1.517 l -0.977,-0.836 1.022,-0.378 c 0.657,-0.243 1.444,-0.175 2.202,0.192 0.937,0.453 1.18,0.886 1.184,2.117 0.002,0.851 0.158,1.787 0.344,2.079 0.187,0.292 1.876,1.38 3.754,2.416 4.59,2.534 6.892,4.637 6.717,6.138 -0.074,0.631 -0.435,1.2 -0.802,1.264 -0.367,0.063 -2.98,-1.961 -5.805,-4.499 z" />
      <path
         id="path15"
         fill="#fe8e8e"
         d="m 15.362,37.098 c -1.489,-0.635 -1.243,-1.967 0.541,-2.928 1.382,-0.744 1.475,-0.907 0.89,-1.552 -0.857,-0.948 -0.83,-2.17 0.056,-2.51 0.58,-0.222 0.479,-0.458 -0.557,-1.305 l -1.264,-1.034 2.337,-0.016 c 2.036,-0.014 2.338,-0.132 2.338,-0.907 0,-0.576 -0.297,-0.89 -0.841,-0.89 -0.463,0 -1.314,-0.395 -1.892,-0.876 l -1.052,-0.876 1.114,-0.02 c 0.612,-0.011 2.183,-0.305 3.491,-0.653 1.308,-0.348 2.66,-0.525 3.006,-0.393 1.074,0.413 0.688,1.536 -0.709,2.063 -1.651,0.623 -1.944,2.34 -0.33,1.934 0.553,-0.138 1.283,-0.08 1.623,0.13 0.945,0.584 0.247,1.726 -1.152,1.887 -0.798,0.091 -1.304,0.445 -1.406,0.982 -0.131,0.693 0.033,0.79 0.947,0.56 0.716,-0.18 1.3,-0.045 1.651,0.379 0.45,0.542 0.338,0.735 -0.646,1.109 -0.654,0.249 -1.378,0.453 -1.607,0.453 -0.228,0 -0.416,0.39 -0.416,0.867 0,0.73 0.364,0.888 2.292,1.002 2.736,0.16 3.88,1.294 2.41,2.387 -1.035,0.768 -2.215,0.856 -1.767,0.131 0.217,-0.352 -0.016,-0.43 -0.753,-0.251 -2.214,0.536 -7.34,0.738 -8.304,0.327 z m 3.065,-1.786 c 0.643,-0.005 1.503,-1.709 1.077,-2.134 -0.275,-0.276 -2.72,1.131 -3.395,1.953 -0.58,0.707 -0.538,0.749 0.477,0.481 0.613,-0.162 1.44,-0.296 1.84,-0.3 z m 0.83,-4.506 c 0,-0.886 -0.356,-1.02 -1.521,-0.573 -1.091,0.419 -0.83,1.281 0.409,1.353 0.818,0.047 1.113,-0.16 1.113,-0.78 z m 8.612,-6.12 C 26.194,23.228 23.851,21.163 22.662,20.099 L 20.5,18.163 17.094,21.503 C 14.21,24.331 9.77,27.32 9.255,26.78 9.173,26.694 10.43,25.52 12.05,24.171 c 3.176,-2.644 6.166,-6.247 6.615,-7.97 0.19,-0.727 0.043,-1.243 -0.455,-1.607 -1.134,-0.83 -0.87,-1.551 0.57,-1.551 1.847,0 2.841,1.134 2.516,2.869 -0.256,1.363 -0.166,1.453 3.766,3.746 5.332,3.11 7.195,4.76 7.02,6.218 -0.073,0.618 -0.367,1.2 -0.651,1.294 -0.285,0.093 -1.888,-1.024 -3.562,-2.483 z" />
      <path
         id="path17"
         fill="#fe6f6f"
         d="m 15.362,37.015 c -0.551,-0.28 -1.002,-0.765 -1.002,-1.077 0,-0.568 1.804,-2.198 2.801,-2.53 0.363,-0.121 0.286,-0.421 -0.245,-0.952 -0.952,-0.953 -1,-1.99 -0.107,-2.332 0.837,-0.321 0.875,-1.052 0.054,-1.052 -0.337,0 -0.862,-0.3 -1.167,-0.668 -0.48,-0.578 -0.25,-0.667 1.726,-0.667 1.984,0 2.281,-0.116 2.281,-0.891 0,-0.576 -0.297,-0.89 -0.841,-0.89 -0.463,0 -1.314,-0.395 -1.892,-0.876 l -1.052,-0.876 1.377,-0.015 c 0.757,-0.008 2.329,-0.301 3.494,-0.652 1.165,-0.35 2.399,-0.53 2.742,-0.398 1.072,0.412 0.685,1.535 -0.711,2.062 -1.633,0.617 -1.888,2.199 -0.334,2.073 1.68,-0.136 2.115,-0.009 2.115,0.62 0,0.333 -0.65,0.79 -1.444,1.018 -1.792,0.514 -2.421,2.226 -0.655,1.782 0.7,-0.175 1.297,-0.048 1.625,0.347 0.576,0.695 0.364,0.892 -1.418,1.318 -0.888,0.212 -1.225,0.569 -1.225,1.298 0,0.899 0.182,0.987 1.732,0.84 3.085,-0.295 4.808,1.457 2.477,2.519 -1.424,0.649 -1.672,0.65 -1.271,0.001 0.234,-0.379 -0.26,-0.432 -1.866,-0.202 -4.517,0.647 -6.221,0.695 -7.194,0.2 z m 4.004,-1.998 c 0.48,-0.297 0.419,-1.937 -0.072,-1.937 -0.73,0 -3.133,1.541 -3.374,2.165 -0.185,0.479 0.12,0.541 1.437,0.294 0.92,-0.173 1.823,-0.408 2.009,-0.522 z m -0.108,-4.2 c 0,-0.694 -0.241,-0.882 -0.997,-0.774 -1.437,0.205 -1.54,1.481 -0.13,1.598 0.87,0.072 1.127,-0.115 1.127,-0.824 z m 7.97,-6.728 c -2.019,-1.79 -4.376,-3.872 -5.237,-4.627 l -1.566,-1.373 -2.543,2.709 c -2.36,2.514 -6.1,5.18 -8.197,5.84 -0.605,0.19 -0.462,-0.05 0.445,-0.747 4.356,-3.353 8.683,-8.506 8.683,-10.341 0,-0.415 -0.301,-0.87 -0.668,-1.01 -1.196,-0.46 -0.755,-1.497 0.636,-1.497 1.845,0 2.79,1.087 2.462,2.834 -0.26,1.391 -0.195,1.453 4.414,4.193 4.883,2.904 6.643,4.56 6.422,6.047 -0.242,1.628 -1.159,1.244 -4.85,-2.028 z" />
      <path
         id="path19"
         fill="#fe4f4f"
         d="m 15.853,37.09 c -0.526,-0.212 -1.097,-0.613 -1.269,-0.89 -0.362,-0.587 0.98,-2.23 1.822,-2.23 0.945,0 1.175,-0.85 0.431,-1.593 -0.88,-0.881 -0.894,-1.92 -0.028,-2.253 0.837,-0.321 0.875,-1.052 0.054,-1.052 -0.337,0 -0.862,-0.3 -1.167,-0.668 -0.48,-0.578 -0.25,-0.667 1.726,-0.667 1.984,0 2.281,-0.116 2.281,-0.891 0,-0.576 -0.297,-0.89 -0.841,-0.89 -0.463,0 -1.314,-0.395 -1.892,-0.876 l -1.052,-0.876 1.336,-0.02 c 0.735,-0.011 2.37,-0.296 3.635,-0.632 1.655,-0.44 2.435,-0.477 2.783,-0.129 0.783,0.783 0.568,1.214 -0.852,1.709 -1.99,0.693 -1.838,2.16 0.223,2.16 2.112,0 2.038,1.06 -0.112,1.59 -1.235,0.306 -1.67,0.645 -1.67,1.304 0,0.86 0.11,0.886 2.171,0.515 0.215,-0.039 0.483,0.184 0.597,0.496 0.121,0.33 -0.365,0.765 -1.169,1.045 -0.995,0.347 -1.376,0.76 -1.376,1.495 0,0.929 0.16,0.997 1.893,0.812 1.302,-0.14 2.17,0.016 2.783,0.5 0.884,0.698 0.882,0.71 -0.185,1.613 -0.817,0.69 -1.158,0.775 -1.42,0.35 -0.277,-0.447 -0.983,-0.451 -3.498,-0.02 -3.607,0.619 -3.901,0.624 -5.204,0.098 z m 3.513,-2.073 c 0.185,-0.115 0.337,-0.704 0.337,-1.309 v -1.1 l -1.773,1.015 c -2.487,1.423 -2.756,2.325 -0.573,1.916 0.92,-0.173 1.823,-0.408 2.009,-0.522 z m 0.255,-4.275 c 0.108,-0.57 -0.145,-0.78 -0.944,-0.78 -1.153,0 -2.3,0.979 -1.77,1.51 0.592,0.59 2.564,0.06 2.714,-0.73 z m 9.175,-5.32 c -1.205,-1.04 -3.555,-3.137 -5.221,-4.659 l -3.03,-2.767 -2.981,3.024 c -2.566,2.602 -7.102,5.809 -8.236,5.822 -0.197,0.002 0.805,-0.965 2.226,-2.15 3.332,-2.78 5.658,-5.377 6.776,-7.569 0.886,-1.736 0.886,-1.754 0.02,-2.538 -1.208,-1.093 -1.093,-1.542 0.394,-1.542 1.827,0 3.032,1.455 2.383,2.878 -0.576,1.265 -0.203,1.602 4.943,4.452 3.922,2.172 6.217,4.317 6.024,5.633 -0.23,1.572 -0.95,1.445 -3.298,-0.583 z" />
      <path
         id="path21"
         fill="#fe2f2f"
         d="m 16.285,37.231 c -1.178,-0.24 -2.107,-1.27 -1.716,-1.903 0.157,-0.254 0.725,-0.697 1.263,-0.983 0.888,-0.473 0.92,-0.452 0.357,0.231 -0.867,1.05 -0.4,1.313 1.703,0.958 1.638,-0.277 1.811,-0.432 1.811,-1.614 v -1.308 l -1.447,0.748 c -1.332,0.688 -1.398,0.69 -0.836,0.011 0.523,-0.63 0.514,-0.736 -0.064,-0.736 -0.616,0 -1.215,-0.873 -1.215,-1.77 0,-0.199 0.35,-0.495 0.78,-0.658 0.624,-0.238 0.668,-0.186 0.222,0.264 -0.93,0.937 -0.63,1.337 0.89,1.19 1.104,-0.107 1.448,-0.35 1.448,-1.03 0,-0.601 -0.254,-0.848 -0.78,-0.76 -0.428,0.072 -0.779,-0.078 -0.779,-0.334 0,-0.255 -0.262,-0.465 -0.583,-0.465 -0.32,0 -0.971,-0.307 -1.447,-0.682 -0.803,-0.635 -0.707,-0.674 1.362,-0.557 1.988,0.113 2.241,0.023 2.363,-0.835 0.108,-0.752 -0.152,-1.024 -1.193,-1.253 -0.732,-0.16 -1.548,-0.554 -1.814,-0.874 -0.383,-0.462 0.001,-0.647 1.862,-0.896 3.938,-0.528 5.366,-0.503 5.571,0.097 0.11,0.325 -0.393,0.77 -1.183,1.046 -2.025,0.706 -1.902,2.173 0.183,2.173 1.088,0 1.558,0.202 1.558,0.668 0,0.378 -0.399,0.668 -0.92,0.668 -1.407,0 -2.642,0.827 -2.642,1.769 0,0.725 0.233,0.809 1.618,0.584 1.267,-0.206 1.573,-0.127 1.41,0.362 -0.114,0.344 -0.592,0.696 -1.061,0.784 -1.283,0.24 -1.9,0.895 -1.669,1.775 0.162,0.62 0.676,0.789 2.407,0.789 2.845,0 3.72,0.786 2.231,2.003 -0.783,0.64 -1.164,0.734 -1.403,0.347 -0.3,-0.486 -2.72,-0.398 -6.409,0.232 -0.5,0.085 -1.345,0.067 -1.878,-0.041 z M 12.702,23.744 c 3.265,-3.044 5.598,-5.921 6.249,-7.708 0.184,-0.506 -0.03,-1.064 -0.593,-1.546 -1.225,-1.049 -1.102,-1.447 0.444,-1.447 1.714,0 2.987,1.715 2.269,3.057 -0.545,1.018 -0.182,1.334 5.089,4.422 4.076,2.389 5.465,3.606 5.818,5.1 0.656,2.773 -2.055,1.147 -8.541,-5.126 l -2.723,-2.633 -3.288,3.267 c -1.809,1.797 -4.39,3.846 -5.738,4.554 l -2.449,1.287 z" />
      <path
         id="path23"
         fill="#fe0404"
         d="m 14.846,36.469 c -0.658,-0.794 -0.37,-1.408 0.986,-2.106 0.805,-0.414 0.88,-0.398 0.42,0.087 -0.826,0.874 -0.678,1.302 0.446,1.295 2.213,-0.013 3.005,-0.495 3.005,-1.827 0,-1.503 -0.09,-1.53 -1.685,-0.512 -1.147,0.732 -1.178,0.732 -0.598,0 0.527,-0.666 0.512,-0.771 -0.111,-0.771 -0.398,0 -0.723,-0.2 -0.723,-0.446 0,-0.245 0.702,-0.445 1.559,-0.445 1.384,0 1.558,-0.13 1.558,-1.165 0,-0.946 -0.167,-1.121 -0.89,-0.932 -0.49,0.128 -0.89,0.05 -0.89,-0.171 0,-0.222 -0.263,-0.404 -0.584,-0.404 -0.32,0 -0.971,-0.31 -1.447,-0.688 -0.8,-0.636 -0.694,-0.667 1.413,-0.411 1.895,0.23 2.326,0.148 2.568,-0.482 0.385,-1.004 -0.408,-1.895 -1.838,-2.066 -3.211,-0.382 -0.331,-1.617 4.34,-1.86 1.597,-0.084 1.694,0.72 0.181,1.502 -1.885,0.975 -1.753,2.394 0.226,2.424 0.835,0.013 1.602,0.273 1.706,0.58 0.111,0.33 -0.2,0.556 -0.77,0.556 -1.465,0 -2.68,0.823 -2.68,1.817 0,0.788 0.195,0.859 1.617,0.592 2.082,-0.39 1.908,0.71 -0.2,1.257 -1.11,0.288 -1.416,0.604 -1.416,1.467 0,1.049 0.127,1.1 2.672,1.1 2.374,0 2.671,0.1 2.671,0.891 0,0.49 -0.15,0.895 -0.334,0.9 -0.183,0.006 -2.652,0.12 -5.486,0.254 -4.28,0.201 -5.248,0.128 -5.716,-0.436 z m 10.717,-14.09 -5,-4.5 -3.013,3.036 c -1.657,1.67 -4.105,3.607 -5.44,4.305 l -2.425,1.267 1.558,-1.232 c 2.666,-2.109 6.1,-5.957 7.192,-8.06 l 1.046,-2.013 -1.002,-0.679 c -1.251,-0.847 -1.286,-1.46 -0.082,-1.46 1.787,0 2.713,0.852 2.582,2.376 -0.067,0.782 0.023,1.656 0.2,1.943 0.177,0.287 2.107,1.543 4.288,2.79 5.286,3.026 8.017,6.159 5.751,6.599 -0.36,0.07 -2.905,-1.898 -5.655,-4.372 z" />
    </g>
  </g>
</svg>
