<svg xmlns="http://www.w3.org/2000/svg" viewBox="0 0 177 177"><filter id="a"><feGaussianBlur stdDeviation="2" result="blur" in="SourceAlpha"/><feOffset dy="2" dx="2" result="offsetBlur"/><feBlend in2="offsetBlur" in="SourceGraphic"/></filter><path filter="url(#a)" fill="#feec99" d="M34.22 45.852 41.304.277.688.631l7.084 44.867 12.87 3.778z" transform="translate(25.533 14.18) scale(3.00307)"/><path fill="#fed1d1" d="M96.048 43.19c7.337 3.985 8.364 7.495 2.186 7.495-6.138 0-6.318 1.973-.826 9.166 5.817 7.621 6.865 16.754 2.388 20.802-3.529 3.195-5.174 2.931-8.559-1.375l-2.913-3.7v9.234c0 5.075.505 9.544 1.117 9.922.616.382 5.826-2.132 11.583-5.58 8.349-5.002 10.562-5.825 10.931-4.053.589 2.792-2.234 6.327-4.43 5.546-.906-.321-3.555 1.138-5.882 3.243-2.328 2.109-3.622 3.358-2.877 2.778.745-.58 1.985-1.054 2.763-1.054.771 0-.931 2.397-3.793 5.325-6.147 6.294-6.376 7.312-1.646 7.312 5.12 0 5.63 3.243 1.475 9.358-4.18 6.156-4.499 8.258-1.43 9.435 3.328 1.277.98 3.67-3.604 3.67-2.591 0-4.834-1.12-6.234-3.12-2.9-4.144-2.82-4.577 1.676-8.92l3.862-3.729-4.39.796c-2.809.51-5.34.048-7.022-1.28-2.537-2.003-2.507-2.159.835-4.492a91.849 91.849 0 0 0 7.021-5.592l3.556-3.168-3.952 1.411c-6.71 2.403-15.667 1.754-18.466-1.336-3.349-3.7-2-6.442 4.162-8.478 5.45-1.798 8.625-.7 4.556 1.58-4.01 2.243-2.793 4.036 2.736 4.036 4.594 0 4.898-.207 2.69-1.823-2.282-1.67-2.351-2.784-.817-13.288 1.244-8.499 1.274-12.625.12-15.938-.858-2.46-1.561-5.817-1.561-7.46 0-3.062 4.838-8.213 8.204-8.73 2.304-.35 3.736-1.663 2.82-2.582-.372-.372-2.835-.06-5.465.697-6.82 1.955-10.03.604-9.502-3.997.4-3.445.991-3.769 7.454-4.072 4.393-.205 8.597.528 11.231 1.96zm-3.501 27.165c1.642 2.31 3.66 4.199 4.48 4.199 2.418 0 .237-9.376-3.351-14.406l-3.244-4.55-.438 5.28c-.3 3.663.48 6.564 2.553 9.477z"/><path fill="#feb0b0" d="M96.892 44.073c4.916 3.312 5.252 5.642.859 5.967-5.388.396-5.685 3.033-1.003 8.859 5.706 7.102 7.33 17.048 3.48 21.306-3.24 3.58-4.288 3.496-8.456-.672l-3.448-3.448v8.98c0 4.94.54 9.315 1.207 9.726.661.409 5.367-1.765 10.451-4.835 11.643-7.018 13.988-7.306 10.784-1.32-.78 1.462-2.303 2.323-3.375 1.912-1.072-.411-4.066 1.231-6.65 3.655-4.002 3.75-4.176 4.156-1.185 2.736 2.666-1.262 2.009-.103-2.748 4.826-5.982 6.195-6.102 6.486-2.739 6.486 6.427 0 7.183 2.568 2.982 10.142-3.709 6.678-3.739 6.922-1.141 8.856 2.523 1.87 2.532 2.042.19 2.94-1.37.522-4.151.372-6.187-.34-4.67-1.633-5.796-7.796-1.934-10.583 4.946-3.564 4.483-4.714-1.697-4.222-7.556.6-9.76-2.835-3.874-6.042 2.093-1.141 6.021-3.982 8.724-6.31l4.916-4.234-5.9 2.793c-7.458 3.523-15.944 3.607-20.155.198-4.198-3.4-2.913-6.282 3.715-8.315 5.736-1.76 8.439-.997 4.427 1.252-3.97 2.222-2.814 4.036 2.567 4.036 4.676 0 4.856-.156 2.68-2.336-1.668-1.667-2.079-3.577-1.433-6.667 2.18-10.463 2.432-18.01.801-23.844-1.555-5.55-1.459-6.637.86-9.82 1.435-1.968 3.636-3.598 4.894-3.622 1.256-.024 3.024-.934 3.928-2.024 1.39-1.676.352-1.862-6.847-1.208-7.733.7-8.492.526-8.492-1.952 0-4.216 2.835-6.093 9.198-6.093 3.754 0 7.532 1.147 10.6 3.214zm-8.568 16.471c0 4.199 6.265 15.415 8.61 15.415 1.754 0 1.502-8.063-.366-11.676-2.085-4.039-5.574-7.982-7.058-7.982-.651 0-1.186 1.91-1.186 4.243z"/><path fill="#fe9090" d="M94.643 42.802c2.318 1.01 5.08 2.883 6.138 4.157 1.706 2.054 1.525 2.32-1.538 2.32-1.904 0-4.594 1.253-5.976 2.782-2.318 2.555-2.33 2.85-.18 3.672 3.418 1.313 9.28 12.073 9.28 17.034 0 5.547-4.073 10.715-7.427 9.43-1.37-.526-3.394-2.62-4.496-4.65-1.9-3.498-2.012-3.152-2.063 6.4-.03 5.556.592 10.5 1.382 10.986.792.49 5.513-1.682 10.495-4.83 11.349-7.168 13.74-7.501 10.511-1.47-.865 1.615-2.282 2.335-3.604 1.831-1.333-.51-3.913.84-6.648 3.484-9.538 9.21-24.854 12.877-30.445 7.282-4.56-4.559-3.865-5.523 6.14-8.523 3.983-1.192 4.004-1.17 1.46 1.637-3.087 3.414-1.015 5.445 4.484 4.393 3.126-.6 3.267-.9 1.393-2.967-1.787-1.979-1.838-3.886-.354-13.48 1.441-9.316 1.396-12.187-.27-17.238-1.901-5.787-1.844-6.225 1.246-9.514 1.78-1.898 4-3.45 4.928-3.45.93 0 2.49-.961 3.469-2.141 1.57-1.892.858-2.034-6.118-1.214-6.591.775-8.042.547-8.784-1.387-2.234-5.817 7.856-8.52 16.977-4.544zm-6.319 17.989c0 4.372 6.13 15.165 8.616 15.165 1.748 0 1.493-8.066-.372-11.673-2.085-4.039-5.574-7.982-7.058-7.982-.651 0-1.186 2.018-1.186 4.487zm8.484 40.886c-6.087 6.391-6.16 6.574-2.63 6.574 6.336 0 7.056 2.862 2.552 10.102-3.48 5.59-3.766 6.757-2.018 8.208 3.02 2.507 2.477 4.153-1.373 4.153-7.477 0-10.372-8.093-4.312-12.063 5.054-3.313 4.327-4.625-2.081-3.766-4.535.607-5.775.267-6.57-1.805-.596-1.55-.295-2.784.756-3.135.958-.318 4.45-2.649 7.763-5.177s7.856-5.736 10.096-7.13c3.261-2.027 2.823-1.219-2.183 4.04z"/><path fill="#fe7070" d="M95.261 43.316c5.532 2.81 7.238 5.964 3.226 5.964-1.49 0-3.754 1.156-5.028 2.568-2.177 2.402-2.093 2.774 1.367 5.967 7.237 6.67 9.499 16.817 4.997 22.375-2.243 2.772-2.898 2.922-5.529 1.28-1.642-1.027-3.612-3.16-4.384-4.742-1.07-2.204-1.418-.517-1.49 7.22-.054 5.555.529 10.48 1.292 10.955.762.471 5.838-1.787 11.28-5.019 5.438-3.234 10.228-5.537 10.642-5.123 1.37 1.367-2.712 6.376-4.6 5.649-1.022-.39-4.184 1.336-7.03 3.835-10.893 9.565-24.34 12.577-30.158 6.76l-3.033-3.033 3.19-2.583c1.753-1.42 4.459-2.583 6.012-2.583 2.387 0 2.546.337 1.027 2.166-2.52 3.036.108 5.246 4.826 4.063 3.363-.847 3.558-1.201 1.762-3.238-1.741-1.973-1.753-3.922-.105-14.126 1.054-6.508 1.39-12.51.748-13.337-.643-.825-1.544-3.477-2-5.886-.646-3.417-.126-5.045 2.351-7.372 1.748-1.643 3.85-2.988 4.673-2.988.82 0 2.292-.961 3.27-2.141 1.571-1.892.86-2.034-6.117-1.214-6.591.775-8.042.547-8.784-1.387-2.366-6.162 8.499-8.649 17.595-4.03zM88.324 60.89c0 4.597 5.886 15.07 8.475 15.07 1.862 0 1.706-7.929-.231-11.677-2.085-4.039-5.574-7.982-7.058-7.982-.651 0-1.186 2.066-1.186 4.589zm7.649 41.391-5.418 5.261 4.133.715c5.507.955 5.862 4.168 1.231 11.172-3.613 5.456-3.679 5.847-1.276 7.603 1.847 1.352 2.072 2.133.835 2.898-3.166 1.958-8.475-.498-9.445-4.37-.75-2.981-.204-4.233 2.787-6.41 5.183-3.779 4.64-5.139-1.718-4.286-6.727.9-9.177-1.832-4.583-5.108 1.703-1.214 6.063-4.577 9.691-7.472 8.499-6.787 10.751-6.79 3.763-.003z"/><path fill="#fe5050" d="M94.994 43.628c6.186 2.808 7.886 5.652 3.375 5.652-1.423 0-3.633 1.156-4.91 2.568-2.177 2.402-2.105 2.768 1.106 5.783 7.474 7.022 9.75 17.01 5.168 22.668l-2.63 3.249-4.388-4.388-4.39-4.39v10.42c0 7.403.51 10.421 1.753 10.421.967 0 5.862-2.522 10.883-5.615 5.018-3.085 9.586-5.613 10.15-5.613.562 0 .325 1.531-.528 3.4-.895 1.963-2.348 3.09-3.445 2.669-1.045-.402-4.516 1.51-7.711 4.246-6.064 5.19-15.983 9.34-22.32 9.34-2.032 0-5.138-1.343-6.897-2.982-2.67-2.484-2.89-3.286-1.319-4.82 1.036-1.012 3.778-2.303 6.097-2.868 3.852-.94 4.042-.823 2.234 1.372-2.667 3.238-.093 5.736 4.679 4.535 3.117-.78 3.384-1.261 1.967-3.532-1.25-2-1.253-5.372-.012-14.138 1.087-7.69 1.168-12.373.24-14.102-2.28-4.259-1.6-10.394 1.435-12.995 1.556-1.33 3.373-2.42 4.042-2.42.667 0 2.055-1.01 3.076-2.24 1.681-2.028 1.105-2.15-5.976-1.265-8.604 1.075-10.712-.183-8.193-4.889 1.964-3.67 8.523-3.694 16.514-.066zm-6.667 17.763c0 4.655 5.742 14.565 8.439 14.565 3.829 0 1.895-10.066-3.292-17.141-3.447-4.71-5.15-3.856-5.15 2.576zm6.496 41.202-4.03 4.871 4.384 1.136c5.376 1.393 5.496 3.64.58 11.069-3.505 5.294-3.616 5.88-1.427 7.48 2.637 1.928 1.802 3.565-1.81 3.565-2.868 0-7.004-4.324-7.004-7.318 0-1.202 1.58-3.22 3.51-4.487 5.133-3.363 4.307-4.907-2.456-4.607-7.733.346-7.675-1.75.205-7.706 11.832-8.937 12.342-9.192 8.048-4.003z"/><path fill="#fe2f2f" d="M91.213 42.187c8.469 2.57 13.033 7.093 7.156 7.093-1.423 0-3.633 1.156-4.91 2.568-2.177 2.402-2.102 2.768 1.15 5.825 1.91 1.796 4.517 6 5.797 9.343 4.285 11.225-2.532 19.298-9.172 10.86l-2.91-3.7v10.72c0 7.358.526 10.718 1.673 10.718.922 0 5.928-2.528 11.126-5.615 10.817-6.427 11.742-6.694 9.646-2.77-.84 1.565-2.141 2.47-2.892 2.004-.75-.466-4.444 1.732-8.213 4.886-10.712 8.97-21.742 12.03-27.875 7.733-4.105-2.874-3.949-5.409.454-7.418 5.12-2.33 6.835-2.012 4.063.763-2.25 2.252-2.222 2.462.51 3.685 1.598.711 4.604.87 6.676.348 3.502-.88 3.592-1.081 1.256-2.79-2.325-1.697-2.388-2.787-.823-13.964 1.186-8.478 1.258-12.943.24-14.844-2.288-4.274-1.712-9.67 1.351-12.733 1.544-1.547 3.364-2.811 4.04-2.811.678 0 2.072-1.01 3.093-2.24 1.681-2.028 1.09-2.148-6.145-1.244-7.88.985-8.009.943-8.009-2.522 0-4.98 4.553-6.373 12.718-3.895zm-2.889 18.73c0 4.649.95 7.13 4.174 10.883 3.496 4.078 4.403 4.52 5.628 2.754.802-1.16 1.1-3.685.658-5.616-1.01-4.415-7.232-14.04-9.075-14.04-.763 0-1.382 2.71-1.382 6.019zm-4.213-.322c0 .727.63 1.322 1.405 1.322.772 0 1.406-.985 1.406-2.19 0-1.2-.63-1.798-1.406-1.32-.771.48-1.405 1.462-1.405 2.191zm10.556 41.81c-3.499 3.822-3.844 4.792-2.105 5.891 1.144.721 3.186 1.325 4.537 1.337 3.36.03 3.096 1.943-1.297 9.438-3.48 5.937-3.58 6.538-1.364 8.16 3.442 2.513-.435 3.771-4.847 1.573-5.096-2.54-4.976-6.246.36-10.823l4.692-4.03-7.022.31c-4.42.195-7.018-.271-7.018-1.262 0-1.312 5.967-6.363 16.145-13.664 1.159-.829.222.553-2.081 3.07z"/><path fill="#fe0505" d="M90.952 42.262c2.6.615 5.973 2.36 7.49 3.877 2.744 2.741 2.696 2.756-8.229 2.558-9.49-.174-11.06-.555-11.493-2.799-.886-4.606 3.1-5.792 12.232-3.636zm4.183 16.156c5.6 7.439 7.562 14.58 5.268 19.18-2.448 4.91-6.088 4.86-8.926-.122-1.348-2.373-2.765-4.313-3.153-4.316-.591-.009-.682 11.502-.15 19.998.201 3.273 4.102 3.093 9.277-.43 2.315-1.58 6.621-4.135 9.567-5.682l5.352-2.813-1.562 2.922c-.862 1.606-2.177 2.543-2.925 2.08-.748-.462-4.573 1.721-8.508 4.854-3.93 3.129-10.45 6.733-14.49 8.006-6.378 2.012-7.873 2.057-11.411.36-5.324-2.55-5.865-5.907-1.285-7.994 4.78-2.177 5.606-2.087 3.55.39-3.274 3.947 2.522 6.592 9.003 4.109 2.066-.793 2.06-1.018-.067-2.571-2.09-1.529-2.153-2.922-.618-13.733 1.243-8.75 1.291-12.811.18-14.89-2.354-4.399-1.82-9.768 1.28-12.87 1.543-1.544 3.282-2.787 3.861-2.763.58.024 3.169 2.853 5.757 6.288zm-6.81 2.126c0 5.484 5.783 16.818 8.582 16.818 2.222 0 2.976-7.055 1.21-11.316-2.129-5.141-6.706-11.147-8.49-11.147-.717 0-1.303 2.54-1.303 5.645zm-4.214-.732c0 1.159.63 2.105 1.405 2.105.772 0 1.406-.946 1.406-2.105 0-1.16-.63-2.106-1.406-2.106-.771 0-1.405.946-1.405 2.103zm10.73 42.412c-4.42 4.835-3.97 7.43 1.291 7.43 4.349 0 4.325 2.234-.084 8.727-4.162 6.126-4.318 7.513-1.054 9.414 2.04 1.186 1.688 1.439-2.057 1.472-3.183.03-4.982-.83-6.096-2.913-1.36-2.54-.92-3.661 3.108-7.91l4.694-4.95-5.346.811c-5.534.844-9.4.081-9.4-1.853 0-.615 2.058-2.414 4.565-4.003a137.297 137.297 0 0 0 9.478-6.754l4.916-3.864z"/></svg>