<?xml version="1.0" encoding="UTF-8"?>
<svg width="50.799999mm" height="50.775211mm" version="1.1" viewBox="0 0 50.799999 50.775211" xmlns="http://www.w3.org/2000/svg">
	<g transform="translate(-77.240891,-107.44508)">
		<g fill="#fff">
			<path d="m105.91506 151.29942q-0.39688-0.24805-1.11622-1.0418-0.12402-0.12402-0.24804-0.22324-0.12403-0.12403-0.24805-0.27285-0.19844-0.12403-0.39687-0.12403-1.28985 0-0.96739 0.96739 0.14883 0.22324 0.12403 0.19843 0.17363 0.17364 1.19062 1.11621 0.47129 0.44649 0.89297 0.64493 0.22324 0.14882 0.44648 0.14882 0.74415 0 0.74415-0.74414 0-0.29765-0.42168-0.66972z" style="font-feature-settings:normal;font-variant-caps:normal;font-variant-ligatures:normal;font-variant-numeric:normal"/>
			<path d="m107.80021 138.67383-0.44648-1.71152q-1.95957-0.54571-4.68809-0.54571-2.50527 0-4.489647 0.4961l-0.496094 1.71152q2.158008-0.57051 4.985741-0.57051 3.02617 0 5.13457 0.62012z" style="font-feature-settings:normal;font-variant-caps:normal;font-variant-ligatures:normal;font-variant-numeric:normal"/>
			<path d="m105.0965 141.37754-2.40605 0.99219-2.38125-0.99219 2.38125-0.99219z" style="font-feature-settings:normal;font-variant-caps:normal;font-variant-ligatures:normal;font-variant-numeric:normal"/>
			<path d="m107.89943 140.0877q-2.1084-0.57051-5.15937-0.57051-2.852544 0-5.035356 0.5209l-0.347266 0.96738 2.108399 0.47129-2.182813 1.38906-0.471289-0.0992-0.595312 1.78594q0.520898-0.5457 2.356445-0.91777 1.835542-0.37207 4.241602-0.37207 2.35644 0 4.16719 0.37207 1.83554 0.37207 2.38125 0.89297l-0.62012-1.78594-0.62012 0.12402-2.18281-1.38906 2.23242-0.47129z" style="font-feature-settings:normal;font-variant-caps:normal;font-variant-ligatures:normal;font-variant-numeric:normal"/>
			<path d="m107.08088 127.11485v-2.77813h-2.97657v-3.86953h-2.75332v3.86953h-3.026169v2.77813h3.026169v5.53144h2.75332v-5.53144z" style="font-feature-settings:normal;font-variant-caps:normal;font-variant-ligatures:normal;font-variant-numeric:normal"/>
			<path d="m99.366618 151.29942q-0.272852 0.27285-0.272852 0.62011 0 0.74415 0.744141 0.74415 0.223243 0 0.396873-0.12403 0.42168-0.22324 0.81856-0.62012 0.89297-0.84335 1.24023-1.14101 0.0496-0.0496 0.0496-0.17363 0-0.96739-0.96738-0.96739-0.17364 0-0.32246 0.14883-0.22325 0.22324-0.54571 0.47129-0.29765 0.22324-0.545699 0.5209-0.223243 0.27285-0.595313 0.5209z" style="font-feature-settings:normal;font-variant-caps:normal;font-variant-ligatures:normal;font-variant-numeric:normal"/>
			<path d="m111.9922 128.67754q0.34727-1.33945-0.76894-4.98574t-3.47266-6.10195q-0.29765-0.22324-0.62011-0.19844-0.42168 0.0248-0.79375 0.34727-0.37208 0.32246-0.0992 0.76894 2.90214 1.90996 4.34082 5.3082 1.43867 3.37344 1.41386 4.86172z" style="font-feature-settings:normal;font-variant-caps:normal;font-variant-ligatures:normal;font-variant-numeric:normal"/>
			<path d="m102.66564 152.21719q-1.83555 2.6541-4.960936 2.6541-0.322461 0-0.644922-0.0248-0.297656-0.0496-0.595312-0.0744-0.719336-0.0248-2.108399-0.24804-1.389062-0.24805-3.100586-1.11621-1.513086-1.31465-3.844726-1.31465-1.785938 0-3.100586 0.84336-0.37207 0.17363-0.917773 0.71933-0.992188 1.0666-1.612305 1.16582-0.496094-0.24804-0.520899-0.84336-0.124023-1.16582 1.711524-3.00136-0.322461 0.0496-1.21543 0.29765-0.74414 0.22324-0.992187 0.22324-0.818555 0.12403-0.868164 0.0248-0.272852-0.27285 0.198437-1.11621 0.396875-0.71934 1.537891-1.26504 0.148828-0.0744 0.942578-0.42168 2.306836-1.21543 4.836914-1.21543 3.695898 0 6.672461 2.50527 1.190625 0.39688 2.406054 0.39688 3.720706 0 3.844726-3.07578-2.406054-0.22324-4.018359-0.81856-1.587499-0.59531-1.587499-1.38906l1.984374-6.59805q-1.736328-2.72851-2.877343-5.55625-1.141016-2.82773-1.141016-5.35781 0-7.59023 8.235153-11.6582 0-0.32246 0.0744-0.96738-0.84336-0.69454-0.84336-1.76114 0-2.28203 2.30683-2.28203 2.28204 0 2.28204 2.28203 0 0.99219-0.71934 1.66192 0 0.76894 0.19844 1.04179 0.42168 0.59532 1.11621 0.62012 0.71933-0.0248 1.19062-0.64492 0.0992-0.14883 0.19844-0.91777-0.64492-0.66973-0.64492-1.66192 0-2.33164 2.33164-2.33164t2.33164 2.33164q0 1.31465-1.14102 2.03399-0.0992 0.49609-0.0496 0.79375 4.192 4.96093 3.64629 11.45976-0.17363 1.86035-0.5705 3.67109-0.39688 1.78594-1.38907 3.37344-0.37207 0.84336-1.16582 1.90996-0.76894 1.0418-1.33945 1.95957l1.95957 6.59805q-0.0248 0.79375-1.63711 1.38906-1.6123 0.59532-4.06797 0.81856 0.12403 3.07578 3.86953 3.07578 1.21543 0 2.40606-0.39688 2.95176-2.50527 6.67246-2.50527 2.53008 0 4.81211 1.21543 0.29765 0.14883 0.5209 0.24805 0.22324 0.0992 0.44648 0.17363 1.11621 0.57051 1.53789 1.26504 0.0744 0.22324 0.22324 0.57051 0.14883 0.34726-0.0248 0.5457-0.0744 0.0992-0.86817-0.0248-0.24804 0-0.99218-0.22324-0.91778-0.24804-1.24024-0.29765 1.83555 1.86035 1.73633 3.00136-0.0496 0.57051-0.5457 0.84336-0.62012-0.0992-1.61231-1.16582-0.49609-0.49609-0.89297-0.71933-1.38906-0.84336-3.10058-0.84336-2.38125 0-3.86953 1.31465-1.71153 0.86816-3.10059 1.11621-1.38906 0.22324-2.08359 0.24804-0.29766 0.0248-0.62012 0.0744-0.32246 0.0248-0.62012 0.0248-3.1998 0-4.98574-2.6541z" style="font-feature-settings:normal;font-variant-caps:normal;font-variant-ligatures:normal;font-variant-numeric:normal"/>
		</g>
		<g style="font-feature-settings:normal;font-variant-caps:normal;font-variant-ligatures:normal;font-variant-numeric:normal" aria-label="v">
			<path d="m105.91506 151.29942q-0.39688-0.24805-1.11622-1.0418-0.12402-0.12402-0.24804-0.22324-0.12403-0.12403-0.24805-0.27285-0.19844-0.12403-0.39687-0.12403-1.28985 0-0.96739 0.96739 0.14883 0.22324 0.12403 0.19843 0.17363 0.17364 1.19062 1.11621 0.47129 0.44649 0.89297 0.64493 0.22324 0.14882 0.44648 0.14882 0.74415 0 0.74415-0.74414 0-0.29765-0.42168-0.66972zm1.88515-12.62559-0.44648-1.71152q-1.95957-0.54571-4.68809-0.54571-2.50527 0-4.489647 0.4961l-0.496094 1.71152q2.158008-0.57051 4.985741-0.57051 3.02617 0 5.13457 0.62012zm-2.70371 2.70371-2.40605 0.99219-2.38125-0.99219 2.38125-0.99219zm2.80293-1.28984q-2.1084-0.57051-5.15937-0.57051-2.852544 0-5.035356 0.5209l-0.347266 0.96738 2.108399 0.47129-2.182813 1.38906-0.471289-0.0992-0.595312 1.78594q0.520898-0.5457 2.356445-0.91777 1.835542-0.37207 4.241602-0.37207 2.35644 0 4.16719 0.37207 1.83554 0.37207 2.38125 0.89297l-0.62012-1.78594-0.62012 0.12402-2.18281-1.38906 2.23242-0.47129zm-0.81855-12.97285v-2.77813h-2.97657v-3.86953h-2.75332v3.86953h-3.026169v2.77813h3.026169v5.53144h2.75332v-5.53144zm-7.714262 24.18457q-0.272852 0.27285-0.272852 0.62011 0 0.74415 0.744141 0.74415 0.223243 0 0.396873-0.12403 0.42168-0.22324 0.81856-0.62012 0.89297-0.84335 1.24023-1.14101 0.0496-0.0496 0.0496-0.17363 0-0.96739-0.96738-0.96739-0.17364 0-0.32246 0.14883-0.22325 0.22324-0.54571 0.47129-0.29765 0.22324-0.545699 0.5209-0.223243 0.27285-0.595313 0.5209zm12.625582-22.62188q0.34727-1.33945-0.76894-4.98574t-3.47266-6.10195q-0.29765-0.22324-0.62011-0.19844-0.42168 0.0248-0.79375 0.34727-0.37208 0.32246-0.0992 0.76894 2.90214 1.90996 4.34082 5.3082 1.43867 3.37344 1.41386 4.86172zm-9.32656 23.53965q-1.83555 2.6541-4.960936 2.6541-0.322461 0-0.644922-0.0248-0.297656-0.0496-0.595312-0.0744-0.719336-0.0248-2.108399-0.24804-1.389062-0.24805-3.100586-1.11621-1.513086-1.31465-3.844726-1.31465-1.785938 0-3.100586 0.84336-0.37207 0.17363-0.917773 0.71933-0.992188 1.0666-1.612305 1.16582-0.496094-0.24804-0.520899-0.84336-0.124023-1.16582 1.711524-3.00136-0.322461 0.0496-1.21543 0.29765-0.74414 0.22324-0.992187 0.22324-0.818555 0.12403-0.868164 0.0248-0.272852-0.27285 0.198437-1.11621 0.396875-0.71934 1.537891-1.26504 0.148828-0.0744 0.942578-0.42168 2.306836-1.21543 4.836914-1.21543 3.695898 0 6.672461 2.50527 1.190625 0.39688 2.406054 0.39688 3.720706 0 3.844726-3.07578-2.406054-0.22324-4.018359-0.81856-1.587499-0.59531-1.587499-1.38906l1.984374-6.59805q-1.736328-2.72851-2.877343-5.55625-1.141016-2.82773-1.141016-5.35781 0-7.59023 8.235153-11.6582 0-0.32246 0.0744-0.96738-0.84336-0.69454-0.84336-1.76114 0-2.28203 2.30683-2.28203 2.28204 0 2.28204 2.28203 0 0.99219-0.71934 1.66192 0 0.76894 0.19844 1.04179 0.42168 0.59532 1.11621 0.62012 0.71933-0.0248 1.19062-0.64492 0.0992-0.14883 0.19844-0.91777-0.64492-0.66973-0.64492-1.66192 0-2.33164 2.33164-2.33164t2.33164 2.33164q0 1.31465-1.14102 2.03399-0.0992 0.49609-0.0496 0.79375 4.192 4.96093 3.64629 11.45976-0.17363 1.86035-0.5705 3.67109-0.39688 1.78594-1.38907 3.37344-0.37207 0.84336-1.16582 1.90996-0.76894 1.0418-1.33945 1.95957l1.95957 6.59805q-0.0248 0.79375-1.63711 1.38906-1.6123 0.59532-4.06797 0.81856 0.12403 3.07578 3.86953 3.07578 1.21543 0 2.40606-0.39688 2.95176-2.50527 6.67246-2.50527 2.53008 0 4.81211 1.21543 0.29765 0.14883 0.5209 0.24805 0.22324 0.0992 0.44648 0.17363 1.11621 0.57051 1.53789 1.26504 0.0744 0.22324 0.22324 0.57051 0.14883 0.34726-0.0248 0.5457-0.0744 0.0992-0.86817-0.0248-0.24804 0-0.99218-0.22324-0.91778-0.24804-1.24024-0.29765 1.83555 1.86035 1.73633 3.00136-0.0496 0.57051-0.5457 0.84336-0.62012-0.0992-1.61231-1.16582-0.49609-0.49609-0.89297-0.71933-1.38906-0.84336-3.10058-0.84336-2.38125 0-3.86953 1.31465-1.71153 0.86816-3.10059 1.11621-1.38906 0.22324-2.08359 0.24804-0.29766 0.0248-0.62012 0.0744-0.32246 0.0248-0.62012 0.0248-3.1998 0-4.98574-2.6541z" stroke-width=".26458332"/>
		</g>
	</g>
</svg>
