<svg xmlns="http://www.w3.org/2000/svg" width="192" height="191.906" viewBox="0 0 50.8 50.775"><g fill="#fff"><path d="m71.017 116.387 2.084 1.612 2.604-.893-2.058-1.612z" style="font-feature-settings:normal;font-variant-caps:normal;font-variant-ligatures:normal;font-variant-numeric:normal" transform="translate(-37.952 -79.85)"/><path d="M77.144 115.965q.174.521.174.992 0 1.464-1.067 2.258-.1.421-.149.843.918 1.29.918 2.084 0 2.083-4.018 3.571t-9.65 1.489q-5.655 0-9.673-1.489-3.994-1.488-3.994-3.571 0-.819.968-2.134-.05-.272-.15-.769-1.09-.793-1.09-2.282 0-.47.148-.967.248-.62-.099-.967-.347-.348-.794-.968-.397-1.24-.397-1.711.025-.224.075-.496.074-.273.074-.645-1.091-1.092-2.282-2.06-1.166-.991-1.835-2.38-.794-1.637-1.464-3.3-.645-1.686-.645-3.298 0-3.051 1.613-5.16 1.612-2.108 4.365-3.299 3.671-.248 3.1-.248 4.317 0 7.84 3.2v-8.706h8.457v8.73q3.523-3.224 7.888-3.224-.62 0 3.1.248 2.705 1.19 4.317 3.3 1.637 2.108 1.637 5.159 0 1.612-.67 3.274-.645 1.662-1.414 3.299-.67 1.414-1.86 2.456-1.19 1.041-2.257 2.083-.025.298.025.57.074.273.099.497.025.347-.397 1.711-.446.62-.794.968-.322.347-.099.942z" style="font-feature-settings:normal;font-variant-caps:normal;font-variant-ligatures:normal;font-variant-numeric:normal" transform="translate(-37.952 -79.85)"/><path d="M73.721 123.084q-.1-.546-.347-1.19-.273-.596-.57-.794-.274-.223-.497-.57-2.505-1.588-8.905-1.415-6.499-.173-8.979 1.414-.298.298-.595.521-.273.223-.472.819-.272.62-.347 1.215-.05.794.695.794.719 0 .694-.77.223-2.48 8.905-2.48 8.756 0 9.004 2.48-.05.77.695.77.719 0 .719-.794zM66.081 108.45q.323 0 .645.049.323.025.62.025-.198-2.257.199-3.696.148-.546.545-.595.57-.1.819.62.198 1.19-.397 3.795.992.173 1.464.173.148-3.82 1.165-6.077.298-.595.993-.595.843 0 .793.819.05.05.05.768 0 1.266-1.414 5.383.72.248 1.24.199.273-.72.546-1.514.298-.818.744-1.736.199-.471.57-.471.422 0 .522.818.024.695-1.464 3.175.62.298 1.24.323.298-.595.546-1.116.273-.521.57-1.34.546-1.587.447-3.026-.198-.868-.967-.868-.372 0-.918.595.124-.794.124-.992 0-1.042-.521-1.96-.496-.942-1.712-1.29-.893.05-1.86 1.092-.967 1.042-1.29 2.456-.273-.869-.72-.993-.446-.124-.594-.124-.298 0-.57.174-.993 1.141-1.216 3.473-.075.52-.1 1.017-.024.496-.099 1.438zM60.55 108.474q-.075-.918-.1-1.414-.024-.496-.074-1.017-.298-2.38-1.215-3.472-.248-.174-.596-.174-.148 0-.62.124-.446.124-.67.967-.347-1.413-1.314-2.455-.943-1.042-1.836-1.092-1.24.372-1.736 1.315-.496.918-.496 1.96 0 .47.124.992-.595-.62-.918-.62-.794 0-.967.893-.124 1.538.446 3.001.273.819.521 1.364.273.521.595 1.116.596-.024 1.24-.322-1.512-2.456-1.463-3.175.025-.819.496-.819.372 0 .596.472.421.893.694 1.711.298.819.595 1.538.596 0 1.24-.198-1.438-4.192-1.438-5.408 0-.67.05-.744 0-.843.793-.843.695 0 1.017.62.993 2.257 1.166 6.077.496-.025 1.439-.174-.595-2.654-.372-3.795.223-.744.794-.645.421.1.545.596.397 1.562.199 3.72.397-.05 1.265-.099zM63.353 94.559q-1.216 0-2.084.868t-.868 2.083q0 1.24.868 2.109.868.843 2.084.843 2.951 0 2.951-2.952 0-2.951-2.951-2.951zM63.65 89.226q-.149-.075-.297-.075-.273 0-.397.1l-1.588-1.613h-.57v.695l1.562 1.562q-.074.15-.074.323 0 .149.074.298l-1.562 1.587v.645h.57l1.563-1.563q.174.075.422.075.198 0 .322-.05l1.563 1.538h.67v-.57L64.32 90.64q.074-.174.074-.422 0-.223-.099-.397l1.613-1.587v-.596h-.695zM66.652 115.618l-3.349-1.588-3.225 1.588 3.35 1.612zM55.886 116.387l-2.629-.893-2.059 1.612 2.605.893z" style="font-feature-settings:normal;font-variant-caps:normal;font-variant-ligatures:normal;font-variant-numeric:normal" transform="translate(-37.952 -79.85)"/><path d="M75.16 114.08q1.116-.124 1.116-1.24 0-.72-.645-1.092-2.084-.843-5.308-1.364-3.2-.546-6.995-.546-7.962 0-12.353 1.96-.546.422-.546 1.042 0 1.265 1.265 1.215 4.416-1.662 11.634-1.662 7.317 0 11.832 1.687zM58.962 97.114q-2.877-3.051-6.523-3.051-3.349 0-5.085 2.232-1.117 1.414-1.117 3.845 0 1.91.546 3.646.025.496.62.496.596 0 .645-.595-.198-1.265-.198-2.257 0-2.06.967-3.25 1.39-1.885 4.316-1.885 2.877 0 5.383 2.282.496 0 .496-.918 0-.198-.05-.545zM67.62 97.114q-.05.347-.05.545 0 .918.496.918 2.48-2.282 5.407-2.282 2.877 0 4.291 1.885.968 1.19.968 3.25 0 .992-.199 2.257.025.595.645.595t.62-.496q.546-1.736.546-3.646 0-2.431-1.116-3.845-1.761-2.232-5.085-2.232-3.671 0-6.524 3.05z" style="font-feature-settings:normal;font-variant-caps:normal;font-variant-ligatures:normal;font-variant-numeric:normal" transform="translate(-37.952 -79.85)"/></g><path d="m71.017 116.387 2.084 1.612 2.604-.893-2.058-1.612zm6.127-.422q.174.521.174.992 0 1.464-1.067 2.258-.1.421-.149.843.918 1.29.918 2.084 0 2.083-4.018 3.571t-9.65 1.489q-5.655 0-9.673-1.489-3.994-1.488-3.994-3.571 0-.819.968-2.134-.05-.272-.15-.769-1.09-.793-1.09-2.282 0-.47.148-.967.248-.62-.099-.967-.347-.348-.794-.968-.397-1.24-.397-1.711.025-.224.075-.496.074-.273.074-.645-1.091-1.092-2.282-2.06-1.166-.991-1.835-2.38-.794-1.637-1.464-3.3-.645-1.686-.645-3.298 0-3.051 1.613-5.16 1.612-2.108 4.365-3.299 3.671-.248 3.1-.248 4.317 0 7.84 3.2v-8.706h8.457v8.73q3.523-3.224 7.888-3.224-.62 0 3.1.248 2.705 1.19 4.317 3.3 1.637 2.108 1.637 5.159 0 1.612-.67 3.274-.645 1.662-1.414 3.299-.67 1.414-1.86 2.456-1.19 1.041-2.257 2.083-.025.298.025.57.074.273.099.497.025.347-.397 1.711-.446.62-.794.968-.322.347-.099.942zm-3.423 7.12q-.1-.547-.347-1.191-.273-.596-.57-.794-.274-.223-.497-.57-2.505-1.588-8.905-1.415-6.499-.173-8.979 1.414-.298.298-.595.521-.273.223-.472.819-.272.62-.347 1.215-.05.794.695.794.719 0 .694-.77.223-2.48 8.905-2.48 8.756 0 9.004 2.48-.05.77.695.77.719 0 .719-.794zm-7.64-14.636q.323 0 .645.05.323.025.62.025-.198-2.257.199-3.696.148-.546.545-.595.57-.1.819.62.198 1.19-.397 3.795.992.173 1.464.173.148-3.82 1.165-6.077.298-.595.993-.595.843 0 .793.819.05.05.05.768 0 1.266-1.414 5.383.72.248 1.24.199.273-.72.546-1.514.298-.818.744-1.736.199-.471.57-.471.422 0 .522.818.024.695-1.464 3.175.62.298 1.24.323.298-.595.546-1.116.273-.521.57-1.34.546-1.587.447-3.026-.198-.868-.967-.868-.372 0-.918.595.124-.794.124-.992 0-1.042-.521-1.96-.496-.942-1.712-1.29-.893.05-1.86 1.092-.967 1.042-1.29 2.456-.273-.869-.72-.993-.446-.124-.594-.124-.298 0-.57.174-.993 1.141-1.216 3.473-.075.52-.1 1.017-.024.496-.099 1.438zm-5.531.025q-.075-.918-.1-1.414-.024-.496-.074-1.017-.298-2.38-1.215-3.472-.248-.174-.596-.174-.148 0-.62.124-.446.124-.67.967-.347-1.413-1.314-2.455-.943-1.042-1.836-1.092-1.24.372-1.736 1.315-.496.918-.496 1.96 0 .47.124.992-.595-.62-.918-.62-.794 0-.967.893-.124 1.538.446 3.001.273.819.521 1.364.273.521.595 1.116.596-.024 1.24-.322-1.512-2.456-1.463-3.175.025-.819.496-.819.372 0 .596.472.421.893.694 1.711.298.819.595 1.538.596 0 1.24-.198-1.438-4.192-1.438-5.408 0-.67.05-.744 0-.843.793-.843.695 0 1.017.62.993 2.257 1.166 6.077.496-.025 1.439-.174-.595-2.654-.372-3.795.223-.744.794-.645.421.1.545.596.397 1.562.199 3.72.397-.05 1.265-.099zm2.803-13.915q-1.216 0-2.084.868t-.868 2.083q0 1.24.868 2.109.868.843 2.084.843 2.951 0 2.951-2.952 0-2.951-2.951-2.951zm.297-5.333q-.149-.075-.297-.075-.273 0-.397.1l-1.588-1.613h-.57v.695l1.562 1.562q-.074.15-.074.323 0 .149.074.298l-1.562 1.587v.645h.57l1.563-1.563q.174.075.422.075.198 0 .322-.05l1.563 1.538h.67v-.57L64.32 90.64q.074-.174.074-.422 0-.223-.099-.397l1.613-1.587v-.596h-.695zm3.002 26.392-3.349-1.588-3.225 1.588 3.35 1.612zm-10.766.769-2.629-.893-2.059 1.612 2.605.893zm19.274-2.307q1.116-.124 1.116-1.24 0-.72-.645-1.092-2.084-.843-5.308-1.364-3.2-.546-6.995-.546-7.962 0-12.353 1.96-.546.422-.546 1.042 0 1.265 1.265 1.215 4.416-1.662 11.634-1.662 7.317 0 11.832 1.687zM58.962 97.114q-2.877-3.051-6.523-3.051-3.349 0-5.085 2.232-1.117 1.414-1.117 3.845 0 1.91.546 3.646.025.496.62.496.596 0 .645-.595-.198-1.265-.198-2.257 0-2.06.967-3.25 1.39-1.885 4.316-1.885 2.877 0 5.383 2.282.496 0 .496-.918 0-.198-.05-.545zm8.657 0q-.05.347-.05.545 0 .918.497.918 2.48-2.282 5.407-2.282 2.877 0 4.291 1.885.968 1.19.968 3.25 0 .992-.199 2.257.025.595.645.595t.62-.496q.546-1.736.546-3.646 0-2.431-1.116-3.845-1.761-2.232-5.085-2.232-3.671 0-6.524 3.05z" aria-label="l" style="font-feature-settings:normal;font-variant-caps:normal;font-variant-ligatures:normal;font-variant-numeric:normal" transform="translate(-37.952 -79.85)"/></svg>