<?xml version="1.0" encoding="UTF-8"?>
<svg width="50.800007mm" height="50.7752mm" version="1.1" viewBox="0 0 50.800007 50.7752" xmlns="http://www.w3.org/2000/svg">
	<g transform="translate(-91.873894,-87.934431)">
		<g fill="#fff">
			<path d="m120.54827 117.97254q0.62012-0.12402 1.38906-0.27285 0.79375-0.17363 1.68672-0.47129 0.79375-0.24805 0.5209-0.89297-0.17363-0.27285-0.49609-0.27285-1.76113 0.39687-3.32383 0.47129 0.59531-0.22324 1.24023-0.44649 0.64493-0.24804 1.26504-0.5457 1.93477-0.91777 2.55489-4.01836 0.12402-0.71933-0.47129-0.81855-0.5209-0.0496-0.81856 0.42168-0.59531 2.20761-1.88515 2.97656-0.42168 0.24805-0.86817 0.44648-0.44648 0.19844-0.89297 0.42168 0.4961-0.52089 0.91778-1.26504 0.76894-1.28984 1.04179-4.56406-0.17363-0.86816-0.86816-0.64492-0.22324 0.12402-0.29766 0.22324-0.44648 3.52227-1.21543 4.63848-0.27285 0.27285-0.37207 0.47129-0.22324 0.17363-0.42168 0.34726-0.17363 0.14883-0.34726 0.29766-0.42168 0.5457-0.42168 1.24023 0 0.84336 0.47129 1.53789 0.49609 0.69454 1.6123 0.71934z" style="font-feature-settings:normal;font-variant-caps:normal;font-variant-ligatures:normal;font-variant-numeric:normal"/>
			<path d="m118.78714 101.25418q6.8709 3.37344 10.14512 8.28477 2.00918 3.05097 2.6789 7.24297 0.66973 4.19199 0.66973 9.40097-0.12402 2.00918 1.11621 3.52227 1.26504 1.51308 2.82773 1.19062 0.47129-15.08125-5.35781-22.99394-1.78594-2.38125-4.98574-4.61367-3.1998-2.23243-7.14375-3.993559 0 0.520899 0.0248 1.066599 0.0248 0.5209 0.0248 0.89297z" style="font-feature-settings:normal;font-variant-caps:normal;font-variant-ligatures:normal;font-variant-numeric:normal"/>
			<path d="m104.20198 122.0157q0.27286-0.44648 0.62012-0.86816 0.37207-0.44648 0.66973-0.99219 0.5457-1.11621-0.54571-1.31465-0.19843-0.0496-0.44648 0.0496-0.71934 0.96739-1.5627 1.95957-0.12402 0.0992-0.5705 0.4961-0.22325 0.74414-0.0248 1.14101 0.32246 0.74414 1.21543 0.0992 0.44649-0.34726 0.64492-0.57051z" style="font-feature-settings:normal;font-variant-caps:normal;font-variant-ligatures:normal;font-variant-numeric:normal"/>
			<path d="m112.93323 115.6409q0.0744-0.29766 0.17364-0.59531 0.12402-0.29766 0.19843-0.59531 0.22325-0.96739-0.5457-0.96739-0.27285 0-0.66973 0.44649-0.17363 0.39687-0.34726 0.79375-0.17363 0.37207-0.27285 0.69453-0.0744 0.24804-0.22325 0.69453-0.0496 0.37207 0.29766 0.5457 0.5209 0.29766 1.0666-0.47129 0.17364-0.17363 0.32246-0.5457z" style="font-feature-settings:normal;font-variant-caps:normal;font-variant-ligatures:normal;font-variant-numeric:normal"/>
			<path d="m101.34944 117.62527q0.24805-0.34726 0.57051-0.69453 0.32246-0.37207 0.57051-0.81855 0.49609-0.91777-0.47129-1.0666-0.14883-0.0248-0.42168 0.0248-0.59531 0.76895-1.38906 1.61231-0.297657 0.22324-0.496095 0.39687-0.198437 0.62012-0.02481 0.91778 0.297657 0.62011 1.091415 0.0992 0.39687-0.29765 0.5705-0.47129z" style="font-feature-settings:normal;font-variant-caps:normal;font-variant-ligatures:normal;font-variant-numeric:normal"/>
			<path d="m108.66683 106.61199q0.17363 1.06661 0.5705 1.21543 0.39688 0.14883 1.11622 0.0992 0.96738-0.0744 1.48828-0.39687 1.04179-0.66973 1.83554-2.90215-0.79375 0.24805-1.48828 0.24805t-1.66191 0.0744q-1.36426 0.12402-1.86035 1.66191z" style="font-feature-settings:normal;font-variant-caps:normal;font-variant-ligatures:normal;font-variant-numeric:normal"/>
			<path d="m108.34437 120.99871q-0.34727 0.37207-0.57051 0.54571-0.19844 0.14882-0.34727 0.29765-0.12402 0.12403-1.6123 1.63711-0.57051 0.62012-1.36426 0.79375-0.5209 0.14883-1.46348-0.12402-3.100582-0.81856-4.88652-3.27422-0.694531-0.91777-0.992187-2.20762-0.272852-1.31465 0.272851-3.32383 0.545704-2.03398 3.943946-4.63847 3.6959-2.82774 4.34082-4.48965 0.5457-0.96738 1.24023-2.1332 0.71934-1.16582 1.68672-2.25723 0.59532-0.42168 1.11621-0.96738 0.54571-0.57051 1.06661-1.165824v-3.050976q1.36425 0.272851 2.00918 0.79375 0.29765 0.322461 0.64492 0.595312 0.37207 0.272852 0.66972 0.595313 0.62012-1.116211 0.79375-1.860352 0.0248-0.173633 0.17364-0.694531 0.14882-0.520899 0.29765-1.711524 0.37207-0.09922 0.64492 0.198438 1.14102 1.289844 2.15801 2.877344 4.53926 1.810742 8.28477 4.29121 3.77031 2.48047 5.77949 5.15938 5.68027 7.71425 5.68027 22.72109 0 3.15019-0.32246 5.75469h-33.8584q-0.32246-3.22461 3.42305-6.8461 1.68672-1.63711 3.49746-3.175 1.83555-1.53789 3.57188-3.12539 3.22461-2.97656 3.57187-4.7625-0.12402-0.29765-0.47129-0.39687-0.86816 0.5209-1.73633 0.66972-0.86816 0.14883-1.71152 0.19844-0.5457 0.0248-1.0914 0.0496-0.5209 0-1.24024-0.24805-0.96738 1.09141-1.66191 1.88516-0.66973 0.76895-1.53789 1.38906z" style="font-feature-settings:normal;font-variant-caps:normal;font-variant-ligatures:normal;font-variant-numeric:normal"/>
		</g>
		<g style="font-feature-settings:normal;font-variant-caps:normal;font-variant-ligatures:normal;font-variant-numeric:normal" aria-label="m">
			<path d="m120.54827 117.97254q0.62012-0.12402 1.38906-0.27285 0.79375-0.17363 1.68672-0.47129 0.79375-0.24805 0.5209-0.89297-0.17363-0.27285-0.49609-0.27285-1.76113 0.39687-3.32383 0.47129 0.59531-0.22324 1.24023-0.44649 0.64493-0.24804 1.26504-0.5457 1.93477-0.91777 2.55489-4.01836 0.12402-0.71933-0.47129-0.81855-0.5209-0.0496-0.81856 0.42168-0.59531 2.20761-1.88515 2.97656-0.42168 0.24805-0.86817 0.44648-0.44648 0.19844-0.89297 0.42168 0.4961-0.52089 0.91778-1.26504 0.76894-1.28984 1.04179-4.56406-0.17363-0.86816-0.86816-0.64492-0.22324 0.12402-0.29766 0.22324-0.44648 3.52227-1.21543 4.63848-0.27285 0.27285-0.37207 0.47129-0.22324 0.17363-0.42168 0.34726-0.17363 0.14883-0.34726 0.29766-0.42168 0.5457-0.42168 1.24023 0 0.84336 0.47129 1.53789 0.49609 0.69454 1.6123 0.71934zm-1.76113-16.71836q6.8709 3.37344 10.14512 8.28477 2.00918 3.05097 2.6789 7.24297 0.66973 4.19199 0.66973 9.40097-0.12402 2.00918 1.11621 3.52227 1.26504 1.51308 2.82773 1.19062 0.47129-15.08125-5.35781-22.99394-1.78594-2.38125-4.98574-4.61367-3.1998-2.23243-7.14375-3.993559 0 0.520899 0.0248 1.066599 0.0248 0.5209 0.0248 0.89297zm-14.58516 20.76152q0.27286-0.44648 0.62012-0.86816 0.37207-0.44648 0.66973-0.99219 0.5457-1.11621-0.54571-1.31465-0.19843-0.0496-0.44648 0.0496-0.71934 0.96739-1.5627 1.95957-0.12402 0.0992-0.5705 0.4961-0.22325 0.74414-0.0248 1.14101 0.32246 0.74414 1.21543 0.0992 0.44649-0.34726 0.64492-0.57051zm8.73125-6.3748q0.0744-0.29766 0.17364-0.59531 0.12402-0.29766 0.19843-0.59531 0.22325-0.96739-0.5457-0.96739-0.27285 0-0.66973 0.44649-0.17363 0.39687-0.34726 0.79375-0.17363 0.37207-0.27285 0.69453-0.0744 0.24804-0.22325 0.69453-0.0496 0.37207 0.29766 0.5457 0.5209 0.29766 1.0666-0.47129 0.17364-0.17363 0.32246-0.5457zm-11.58379 1.98437q0.24805-0.34726 0.57051-0.69453 0.32246-0.37207 0.57051-0.81855 0.49609-0.91777-0.47129-1.0666-0.14883-0.0248-0.42168 0.0248-0.59531 0.76895-1.38906 1.61231-0.297657 0.22324-0.496095 0.39687-0.198437 0.62012-0.02481 0.91778 0.297657 0.62011 1.09141 0.0992 0.39687-0.29765 0.5705-0.47129zm7.31739-11.01328q0.17363 1.06661 0.5705 1.21543 0.39688 0.14883 1.11622 0.0992 0.96738-0.0744 1.48828-0.39687 1.04179-0.66973 1.83554-2.90215-0.79375 0.24805-1.48828 0.24805t-1.66191 0.0744q-1.36426 0.12402-1.86035 1.66191zm-0.32246 14.38672q-0.34727 0.37207-0.57051 0.54571-0.19844 0.14882-0.34727 0.29765-0.12402 0.12403-1.6123 1.63711-0.57051 0.62012-1.36426 0.79375-0.5209 0.14883-1.46348-0.12402-3.100582-0.81856-4.88652-3.27422-0.694531-0.91777-0.992187-2.20762-0.272852-1.31465 0.272851-3.32383 0.545704-2.03398 3.943946-4.63847 3.6959-2.82774 4.34082-4.48965 0.5457-0.96738 1.24023-2.1332 0.71934-1.16582 1.68672-2.25723 0.59532-0.42168 1.11621-0.96738 0.54571-0.57051 1.06661-1.165824v-3.050976q1.36425 0.272851 2.00918 0.79375 0.29765 0.322461 0.64492 0.595312 0.37207 0.272852 0.66972 0.595313 0.62012-1.116211 0.79375-1.860352 0.0248-0.173633 0.17364-0.694531 0.14882-0.520899 0.29765-1.711524 0.37207-0.09922 0.64492 0.198438 1.14102 1.289844 2.15801 2.877344 4.53926 1.810742 8.28477 4.29121 3.77031 2.48047 5.77949 5.15938 5.68027 7.71425 5.68027 22.72109 0 3.15019-0.32246 5.75469h-33.8584q-0.32246-3.22461 3.42305-6.8461 1.68672-1.63711 3.49746-3.175 1.83555-1.53789 3.57188-3.12539 3.22461-2.97656 3.57187-4.7625-0.12402-0.29765-0.47129-0.39687-0.86816 0.5209-1.73633 0.66972-0.86816 0.14883-1.71152 0.19844-0.5457 0.0248-1.0914 0.0496-0.5209 0-1.24024-0.24805-0.96738 1.09141-1.66191 1.88516-0.66973 0.76895-1.53789 1.38906z" stroke-width=".26458332"/>
		</g>
	</g>
</svg>
