<svg xmlns="http://www.w3.org/2000/svg" width="192" height="191.906" viewBox="0 0 50.8 50.775"><g fill="#fff"><path d="M100.837 95.408h3.423v3.374h5.134v-3.374h5.904v8.855l-3.994 4.614q1.29 1.637.05 3.448-.199.322-.199.595 0 .323.199.62.52.77.496 2.183 0 1.39-.52 2.183-.175.248-.175.52 0 .348.224.646 1.165 1.76-.05 3.472-.174.298-.174.571t.174.57q.546.819.546 2.283 0 1.438-.596 2.133l4.019 2.009v2.133h1.662v7.193H84.689v-7.168h1.687v-2.133l3.993-2.034q-.595-.695-.595-2.133t.545-2.258q.199-.273.199-.57 0-.248-.199-.57-1.215-1.737-.024-3.473.223-.397.223-.645t-.174-.546q-.545-.794-.57-2.183 0-1.414.52-2.183.224-.297.224-.62 0-.273-.199-.57-1.265-1.811.05-3.473l-3.993-4.589v-8.855h5.903v3.349l5.11.024v-3.373z" style="font-feature-settings:normal;font-variant-caps:normal;font-variant-ligatures:normal;font-variant-numeric:normal" transform="translate(-75.437 -92.01)"/><path d="M88.137 101.709v2.158l6.325-.298q3.175-.174 6.375-.174 3.125 0 6.3.199 3.2.198 6.4.273v-2.158zM89.203 130.928q-1.066.1-1.066 1.067 0 1.067 1.066 1.067l11.634-.397 11.633.397q1.067 0 1.067-1.067 0-.967-1.067-1.067-2.902-.173-5.829-.297-2.902-.149-5.804-.149t-5.83.149q-2.902.124-5.804.297zM102.102 124.206q.72-.57 2.108-.57 1.414 0 2.158.57.744.596.744 1.786.025 1.19-.744 1.563-.794.422-2.158.422t-2.108-.422q-.794-.372-.77-1.563.026-1.19.77-1.786zM95.305 124.206q.744-.57 2.133-.57 1.39 0 2.134.57.744.596.67 1.786-.05 1.19-.67 1.563-.645.422-2.183.397-1.513-.05-2.084-.397-.595-.322-.67-1.538-.074-1.215.67-1.81z" style="font-feature-settings:normal;font-variant-caps:normal;font-variant-ligatures:normal;font-variant-numeric:normal" transform="translate(-75.437 -92.01)"/><path d="M100.837 106.322q-2.357 0-5.457.323-3.1.297-3.895.545-.818.298-.744.943.075.645.744.843.67.224 2.654-.05 1.985-.272 2.456.05.447.348.447 1.637 0 1.265-.447 1.737-.471.471-2.555.124-2.059-.347-2.555-.124-.496.223-.397.818.1.57.397.844.298.297.868-.124.596-.422.893.124.298.595.298 1.711t-.298 1.662q-.297.57-.893.149-.57-.447-.868-.149-.322.323-.347.967 0 .62.347.794.323.223 2.48-.099 2.159-.347 2.63.1.447.47.447 1.661 0 1.19-.447 1.712-.471.545-2.654.173-2.158-.397-2.456-.173-.967.793 0 1.686.298.298.868-.124.596-.421.893.124.298.57.298 1.687t-.298 1.662q-.297.595-.893.174-.57-.447-.868-.174-.297.298-.471.893-.174.57.471.794.496.198 3.275-.075 2.778-.273 6.077-.273 3.274 0 6.126.224 2.853.198 3.225.124.521-.075.397-.72-.1-.67-.397-.967-.322-.273-.918.174-.57.421-.843-.174-.298-.546-.298-1.662t.298-1.687q.273-.545.868-.124t.893.124q.918-.917 0-1.686-.298-.224-2.555.124-2.257.347-2.58-.124-.322-.447-.372-1.563-.024-1.141.372-1.81.397-.67 2.58-.249 2.208.422 2.555.248.298-.149.298-.793t-.298-.968q-.322-.298-.918.149-.57.422-.843-.149-.298-.546-.298-1.662t.298-1.711q.273-.546.843-.124.596.421.918.124.298-.273.323-.844.05-.595-.323-.818-.422-.223-2.58.124t-2.555-.124q-.396-.472-.396-1.687t.396-1.687q.397-.446 2.431-.05 2.034.398 2.704.05.645-.322.695-.893.074-.595-.695-.893-.818-.248-3.944-.545-3.1-.323-5.407-.323z" style="font-feature-settings:normal;font-variant-caps:normal;font-variant-ligatures:normal;font-variant-numeric:normal" transform="translate(-75.437 -92.01)"/><path d="M98.778 108.976q.694-.57 2.034-.57 1.364 0 2.083.57.72.596.72 1.687 0 1.091-.72 1.687-.719.595-2.083.595-1.34 0-2.034-.595-.72-.596-.72-1.687 0-1.091.72-1.687zM102.102 114.012q.72-.57 2.108-.57 1.414 0 2.158.57.744.595.744 1.711 0 1.092-.744 1.662-.744.595-2.158.595-1.389 0-2.108-.595-.744-.57-.744-1.662 0-1.116.744-1.711zM95.305 114.012q.744-.57 2.133-.57 1.39 0 2.134.57.744.595.744 1.711 0 1.092-.744 1.662-.744.595-2.134.595-1.389 0-2.133-.595-.744-.57-.744-1.662 0-1.116.744-1.711zM98.778 119.146q.694-.57 2.034-.57 1.364 0 2.083.57.72.596.72 1.712 0 1.091-.72 1.662-.719.595-2.083.595-1.34 0-2.034-.595-.72-.57-.72-1.662 0-1.116.72-1.712zM86.45 134.748v1.687h28.798v-1.687z" style="font-feature-settings:normal;font-variant-caps:normal;font-variant-ligatures:normal;font-variant-numeric:normal" transform="translate(-75.437 -92.01)"/></g><path d="M100.837 95.408h3.423v3.374h5.134v-3.374h5.904v8.855l-3.994 4.614q1.29 1.637.05 3.448-.199.322-.199.595 0 .323.199.62.52.77.496 2.183 0 1.39-.52 2.183-.175.248-.175.52 0 .348.224.646 1.165 1.76-.05 3.472-.174.298-.174.571t.174.57q.546.819.546 2.283 0 1.438-.596 2.133l4.019 2.009v2.133h1.662v7.193H84.689v-7.168h1.687v-2.133l3.993-2.034q-.595-.695-.595-2.133t.545-2.258q.199-.273.199-.57 0-.248-.199-.57-1.215-1.737-.024-3.473.223-.397.223-.645t-.174-.546q-.545-.794-.57-2.183 0-1.414.52-2.183.224-.297.224-.62 0-.273-.199-.57-1.265-1.811.05-3.473l-3.993-4.589v-8.855h5.903v3.349l5.11.024v-3.373zm-12.7 6.3v2.159l6.325-.298q3.175-.174 6.375-.174 3.125 0 6.3.199 3.2.198 6.4.273v-2.158zm1.066 29.22q-1.066.1-1.066 1.067 0 1.067 1.066 1.067l11.634-.397 11.633.397q1.067 0 1.067-1.067 0-.967-1.067-1.067-2.902-.173-5.829-.297-2.902-.149-5.804-.149t-5.83.149q-2.902.124-5.804.297zm12.899-6.722q.72-.57 2.108-.57 1.414 0 2.158.57.744.596.744 1.786.025 1.19-.744 1.563-.794.422-2.158.422t-2.108-.422q-.794-.372-.77-1.563.026-1.19.77-1.786zm-6.797 0q.744-.57 2.133-.57 1.39 0 2.134.57.744.596.67 1.786-.05 1.19-.67 1.563-.645.422-2.183.397-1.513-.05-2.084-.397-.595-.322-.67-1.538-.074-1.215.67-1.81zm5.532-17.884q-2.357 0-5.457.323-3.1.297-3.895.545-.818.298-.744.943.075.645.744.843.67.224 2.654-.05 1.985-.272 2.456.05.447.348.447 1.637 0 1.265-.447 1.737-.471.471-2.555.124-2.059-.347-2.555-.124-.496.223-.397.818.1.57.397.844.298.297.868-.124.596-.422.893.124.298.595.298 1.711t-.298 1.662q-.297.57-.893.149-.57-.447-.868-.149-.322.323-.347.967 0 .62.347.794.323.223 2.48-.099 2.159-.347 2.63.1.447.47.447 1.661 0 1.19-.447 1.712-.471.545-2.654.173-2.158-.397-2.456-.173-.967.793 0 1.686.298.298.868-.124.596-.421.893.124.298.57.298 1.687t-.298 1.662q-.297.595-.893.174-.57-.447-.868-.174-.297.298-.471.893-.174.57.471.794.496.198 3.275-.075 2.778-.273 6.077-.273 3.274 0 6.126.224 2.853.198 3.225.124.521-.075.397-.72-.1-.67-.397-.967-.322-.273-.918.174-.57.421-.843-.174-.298-.546-.298-1.662t.298-1.687q.273-.545.868-.124t.893.124q.918-.917 0-1.686-.298-.224-2.555.124-2.257.347-2.58-.124-.322-.447-.372-1.563-.024-1.141.372-1.81.397-.67 2.58-.249 2.208.422 2.555.248.298-.149.298-.793t-.298-.968q-.322-.298-.918.149-.57.422-.843-.149-.298-.546-.298-1.662t.298-1.711q.273-.546.843-.124.596.421.918.124.298-.273.323-.844.05-.595-.323-.818-.422-.223-2.58.124t-2.555-.124q-.396-.472-.396-1.687t.396-1.687q.397-.446 2.431-.05 2.034.398 2.704.05.645-.322.695-.893.074-.595-.695-.893-.818-.248-3.944-.545-3.1-.323-5.407-.323zm-2.06 2.654q.695-.57 2.035-.57 1.364 0 2.083.57.72.596.72 1.687 0 1.091-.72 1.687-.719.595-2.083.595-1.34 0-2.034-.595-.72-.596-.72-1.687 0-1.091.72-1.687zm3.325 5.036q.72-.57 2.108-.57 1.414 0 2.158.57.744.595.744 1.711 0 1.092-.744 1.662-.744.595-2.158.595-1.389 0-2.108-.595-.744-.57-.744-1.662 0-1.116.744-1.711zm-6.797 0q.744-.57 2.133-.57 1.39 0 2.134.57.744.595.744 1.711 0 1.092-.744 1.662-.744.595-2.134.595-1.389 0-2.133-.595-.744-.57-.744-1.662 0-1.116.744-1.711zm3.473 5.134q.694-.57 2.034-.57 1.364 0 2.083.57.72.596.72 1.712 0 1.091-.72 1.662-.719.595-2.083.595-1.34 0-2.034-.595-.72-.57-.72-1.662 0-1.116.72-1.712zM86.45 134.748v1.687h28.798v-1.687z" aria-label="t" style="font-feature-settings:normal;font-variant-caps:normal;font-variant-ligatures:normal;font-variant-numeric:normal" transform="translate(-75.437 -92.01)"/></svg>