<?xml version="1.0" encoding="UTF-8" standalone="no"?>
<!-- Created with Inkscape (http://www.inkscape.org/) -->

<svg
   xmlns:dc="http://purl.org/dc/elements/1.1/"
   xmlns:cc="http://creativecommons.org/ns#"
   xmlns:rdf="http://www.w3.org/1999/02/22-rdf-syntax-ns#"
   xmlns:svg="http://www.w3.org/2000/svg"
   xmlns="http://www.w3.org/2000/svg"
   xmlns:sodipodi="http://sodipodi.sourceforge.net/DTD/sodipodi-0.dtd"
   xmlns:inkscape="http://www.inkscape.org/namespaces/inkscape"
   width="144pt"
   height="144pt"
   viewBox="0 0 50.800001 50.8"
   version="1.1"
   id="svg8"
   sodipodi:docname="wb.svg"
   inkscape:version="0.92.3 (2405546, 2018-03-11)">
  <defs
     id="defs2" />
  <sodipodi:namedview
     id="base"
     pagecolor="#ffffff"
     bordercolor="#666666"
     borderopacity="1.0"
     inkscape:pageopacity="0.0"
     inkscape:pageshadow="2"
     inkscape:zoom="7.9195959"
     inkscape:cx="83.53486"
     inkscape:cy="97.424508"
     inkscape:document-units="mm"
     inkscape:current-layer="layer1"
     showgrid="false"
     units="pt"
     inkscape:window-width="3840"
     inkscape:window-height="2035"
     inkscape:window-x="-13"
     inkscape:window-y="-13"
     inkscape:window-maximized="1" />
  <metadata
     id="metadata5">
    <rdf:RDF>
      <cc:Work
         rdf:about="">
        <dc:format>image/svg+xml</dc:format>
        <dc:type
           rdf:resource="http://purl.org/dc/dcmitype/StillImage" />
        <dc:title />
      </cc:Work>
    </rdf:RDF>
  </metadata>
  <g
     inkscape:label="Layer 1"
     inkscape:groupmode="layer"
     id="layer1"
     transform="translate(0,-246.2)">
    <g
       aria-label="b"
       style="font-style:normal;font-variant:normal;font-weight:normal;font-stretch:normal;font-size:50.79999924px;line-height:1.25;font-family:'Chess Leipzig';-inkscape-font-specification:'Chess Leipzig';letter-spacing:0px;word-spacing:0px;fill:#000000;fill-opacity:1;stroke:none;stroke-width:0.26458332"
       id="text120"
       transform="translate(0.02987519,0.12544)">
      <path
         d="m 25.539701,281.53427 q -2.802929,0 -4.787304,0.4961 -1.984375,0.49609 -1.984375,1.19062 0,0.69453 1.984375,1.19063 1.984375,0.47128 4.787304,0.47128 2.80293,0 4.787305,-0.47128 2.00918,-0.4961 2.00918,-1.19063 0,-0.69453 -2.00918,-1.19062 -1.984375,-0.4961 -4.787305,-0.4961 z m 5.60586,-30.55937 q -1.066602,0 -1.066602,1.04179 0,1.06661 1.066602,1.06661 1.066601,0 1.066601,-1.06661 0,-1.04179 -1.066601,-1.04179 z m -5.953125,-0.0744 q -1.016993,0 -1.016993,1.017 0,1.01699 1.016993,1.01699 1.016992,0 1.016992,-1.01699 0,-1.017 -1.016992,-1.017 z m 4.043164,14.11387 v -1.26504 h -3.175 v -4.2416 h -1.265039 v 4.2416 h -3.175 v 1.26504 h 3.175 v 5.92832 H 26.0606 v -5.92832 z m 1.066601,1.0666 h -3.175 v 5.92832 h -3.398242 v -5.92832 h -3.175 v -3.37344 h 3.175 v -4.2416 h 3.398242 v 4.2416 h 3.175 z m -2.480469,13.49375 -2.406054,-0.99219 -2.38125,0.99219 2.38125,0.99219 z m 7.242969,-13.32012 q 0.272852,-1.33945 -0.843359,-4.93613 -1.091406,-3.62148 -3.249414,-6.00273 -0.322461,-0.19844 -0.570508,-0.17364 -0.37207,0.0496 -0.694531,0.37207 -0.297657,0.32247 -0.07441,0.76895 2.629296,1.78594 4.018359,5.13457 1.389062,3.34863 1.413867,4.83691 z m -15.180468,9.5002 q 2.38125,-0.79375 5.531445,-0.79375 3.274219,0 5.581054,0.79375 3.026172,-6.10195 3.026172,-9.57461 0,-5.87871 -8.508007,-11.43496 -8.483203,5.55625 -8.483203,11.43496 0,3.74551 2.852539,9.57461 z m 10.64121,2.53008 -0.446484,-1.5627 q -2.083594,-0.49609 -4.688086,-0.49609 -2.554883,0 -4.489648,0.44648 l -0.496094,1.5875 q 2.058789,-0.5457 4.985742,-0.5457 3.075781,0 5.13457,0.57051 z m 0.892969,2.6541 -0.545703,-1.76113 -2.207617,0.47129 2.182812,1.41386 z m -11.85664,0.0248 0.446484,0.0992 2.182813,-1.41386 -2.108399,-0.47129 z m 5.829101,9.94668 q -1.835547,2.6541 -4.960937,2.6541 -0.322461,0 -0.644922,-0.0248 -0.297656,-0.0496 -0.595313,-0.0744 -0.719336,-0.0248 -2.108398,-0.24805 -1.389063,-0.24805 -3.100586,-1.11621 -1.513086,-1.31465 -3.844726,-1.31465 -1.7859379,0 -3.1005863,0.84336 -0.3720703,0.17363 -0.9177735,0.71934 -0.9921874,1.0666 -1.6123046,1.16582 -0.4960938,-0.24805 -0.5208984,-0.84336 -0.1240235,-1.16582 1.7115234,-3.00137 -0.322461,0.0496 -1.2154297,0.29766 -0.7441406,0.22324 -0.9921875,0.22324 -0.8185547,0.12402 -0.868164,0.0248 -0.2728516,-0.27285 0.1984375,-1.11621 0.396875,-0.71933 1.5378906,-1.26504 0.1488281,-0.0744 0.9425781,-0.42168 2.3068359,-1.21543 4.8369144,-1.21543 3.695898,0 6.67246,2.50528 1.190625,0.39687 2.406055,0.39687 3.720703,0 3.844727,-3.07578 -2.406055,-0.22324 -4.01836,-0.81855 -1.5875,-0.59532 -1.5875,-1.38907 l 1.984375,-6.59804 q -1.736328,-2.72852 -2.877343,-5.55625 -1.141016,-2.82774 -1.141016,-5.35782 0,-7.59023 8.235156,-11.6582 0,-0.32246 0.07441,-0.96738 -0.843359,-0.69453 -0.843359,-1.76113 0,-2.28204 2.306836,-2.28204 2.282031,0 2.282031,2.28204 0,0.99218 -0.719336,1.66191 0,0.76894 0.198437,1.0418 0.42168,0.59531 1.116211,0.62011 0.719336,-0.0248 1.190625,-0.64492 0.09922,-0.14883 0.198438,-0.91777 -0.644922,-0.66973 -0.644922,-1.66192 0,-2.33164 2.331641,-2.33164 2.33164,0 2.33164,2.33164 0,1.31465 -1.141015,2.03399 -0.09922,0.49609 -0.04961,0.79375 4.191992,4.96094 3.646289,11.45976 -0.173633,1.86036 -0.570508,3.6711 -0.396875,1.78593 -1.389062,3.37343 -0.37207,0.84336 -1.16582,1.90997 -0.768946,1.04179 -1.339454,1.95957 l 1.959571,6.59804 q -0.02481,0.79375 -1.63711,1.38907 -1.612304,0.59531 -4.067968,0.81855 0.124023,3.07578 3.869531,3.07578 1.21543,0 2.406055,-0.39687 2.951757,-2.50528 6.67246,-2.50528 2.530079,0 4.81211,1.21543 0.297656,0.14883 0.520898,0.24805 0.223242,0.0992 0.446485,0.17363 1.11621,0.57051 1.53789,1.26504 0.07441,0.22324 0.223242,0.57051 0.148828,0.34726 -0.0248,0.5457 -0.07441,0.0992 -0.868164,-0.0248 -0.248047,0 -0.992188,-0.22324 -0.917773,-0.24805 -1.240234,-0.29766 1.835547,1.86035 1.736328,3.00137 -0.04961,0.5705 -0.545703,0.84336 -0.620117,-0.0992 -1.612305,-1.16582 -0.496094,-0.4961 -0.892969,-0.71934 -1.389062,-0.84336 -3.100586,-0.84336 -2.38125,0 -3.869531,1.31465 -1.711523,0.86816 -3.100586,1.11621 -1.389062,0.22324 -2.083593,0.24805 -0.297657,0.0248 -0.620118,0.0744 -0.32246,0.0248 -0.620117,0.0248 -3.199804,0 -4.985742,-2.6541 z m 0,-1.81074 q 0.07441,0 1.637109,1.51309 1.438672,1.36425 3.522266,1.36425 0.173633,0 0.496094,0 0.322461,0 0.520898,0 1.066602,-0.0744 2.033985,-0.24804 0.967382,-0.19844 2.306835,-0.74414 2.579688,-1.78594 4.7625,-1.78594 0.942579,0 1.736329,0.22324 0.32246,0.0744 0.37207,0.17363 0.07441,0.0744 0.570508,0.29766 1.53789,0.79375 0.768945,0.17363 -0.744141,-0.64492 -0.570508,-0.94257 0.148828,-0.32247 1.141016,-0.69454 1.016992,-0.37207 -1.438672,-0.59531 -1.240234,-0.42168 -2.579688,-0.42168 -2.976562,0 -6.077148,2.40606 -1.091406,0.59531 -1.860351,0.66972 -0.744141,0.0744 -1.413868,0.0248 -1.934765,-0.0744 -2.604492,-0.5209 -0.644922,-0.47129 -1.16582,-1.0418 -0.496094,-0.5209 -0.967383,-2.00918 -0.248047,-0.79375 -1.190625,-0.89297 -0.967383,0.0992 -1.190625,0.89297 -0.446484,1.48828 -0.967383,2.00918 -0.520898,0.57051 -1.190625,1.0418 -0.644921,0.44648 -2.554882,0.5209 -0.694532,0.0496 -1.463477,-0.0248 -0.744141,-0.0744 -1.810742,-0.66972 -3.150195,-2.40606 -6.077148,-2.40606 -1.3642582,0 -2.5796879,0.42168 -2.4804687,0.22324 -1.4882812,0.59531 1.0169921,0.37207 1.190625,0.69454 0.1488281,0.29765 -0.6201172,0.94257 -0.7441406,0.62012 0.8185547,-0.17363 0.4464843,-0.22324 0.5208984,-0.29766 0.074414,-0.0992 0.396875,-0.17363 0.7689453,-0.22324 1.7611332,-0.22324 2.158007,0 4.737695,1.78594 1.339453,0.5457 2.282031,0.74414 0.967383,0.17363 2.083594,0.24804 0.173633,0 0.471289,0 0.322461,0 0.545703,0 2.058789,0 3.522265,-1.36425 1.537891,-1.51309 1.612305,-1.51309 z"
         style="stroke-width:0.26458332"
         id="path122"
         inkscape:connector-curvature="0" />
    </g>
    <path
       style="fill:#ffffff;stroke-width:0.03340869"
       d="m 18.543713,292.02919 c -1.21801,-0.13045 -1.987784,-0.31011 -3.072092,-0.71699 -0.36929,-0.13857 -0.626993,-0.2584 -0.785104,-0.36504 -1.373307,-0.9263 -2.727197,-1.4735 -3.977142,-1.60744 -0.9250747,-0.0991 -2.2927252,0.0838 -2.6949046,0.36045 -0.2030553,0.13968 -1.3374357,0.69948 -1.4811814,0.73095 -0.084943,0.0186 -0.041154,-0.036 0.287179,-0.35797 0.394571,-0.38693 0.4979252,-0.53899 0.4979252,-0.73256 0,-0.20853 -0.3405381,-0.45048 -1.0163064,-0.72207 -0.3761287,-0.15116 -0.5013179,-0.22827 -0.4652811,-0.28657 0.068697,-0.11116 0.5192879,-0.21839 1.295524,-0.3083 0.2614925,-0.0303 0.6054789,-0.0955 0.7851042,-0.14888 0.7392554,-0.2196 1.3843918,-0.30692 2.2574021,-0.30556 1.857369,0.003 3.621517,0.65382 5.629365,2.07707 0.733918,0.52023 1.495762,0.86856 2.104747,0.96232 0.848616,0.13065 2.556328,0.0407 3.428864,-0.18066 0.547032,-0.13877 0.82041,-0.30225 1.471927,-0.88024 0.687281,-0.60971 1.000745,-1.12612 1.362134,-2.244 0.158597,-0.4906 0.214291,-0.59405 0.418766,-0.77789 0.239849,-0.21565 0.479967,-0.30346 0.835264,-0.30546 0.251131,-10e-4 0.309674,0.0106 0.506184,0.10367 0.236952,0.11227 0.456709,0.30634 0.549025,0.48486 0.03108,0.0601 0.119642,0.29016 0.196818,0.51126 0.378931,1.0856 0.642668,1.54426 1.192496,2.07384 0.667491,0.64291 1.014021,0.87184 1.541306,1.01828 0.811681,0.2254 2.633186,0.32599 3.514423,0.19407 0.536478,-0.0803 1.48186,-0.47313 1.887591,-0.78432 0.95042,-0.72897 2.163373,-1.40833 3.146486,-1.76231 0.945118,-0.3403 1.771904,-0.48849 2.735281,-0.49026 0.84641,-0.002 1.508447,0.0859 2.173676,0.28717 0.290867,0.088 0.392258,0.10627 1.199094,0.21603 0.512845,0.0698 0.776793,0.13369 0.885582,0.2145 0.06601,0.049 0.06601,0.0494 -5.29e-4,0.11553 -0.03675,0.0365 -0.202123,0.12181 -0.367496,0.18963 -0.765868,0.31411 -1.052372,0.53429 -1.052372,0.80877 0,0.14803 0.179022,0.39699 0.530339,0.73753 0.227877,0.22088 0.297243,0.30515 0.238058,0.28921 -0.125907,-0.0339 -1.267396,-0.58369 -1.416169,-0.68206 -0.218135,-0.14423 -0.274055,-0.16868 -0.544549,-0.23809 -0.423659,-0.10871 -0.831191,-0.16531 -1.346753,-0.18704 -1.484252,-0.0625 -2.933555,0.40662 -4.65922,1.5083 -0.465487,0.29718 -0.814417,0.45035 -1.621615,0.71188 -0.62665,0.20303 -1.024454,0.2954 -1.670434,0.38788 -0.964978,0.13813 -1.358535,0.16249 -2.326907,0.14398 -0.750054,-0.0143 -0.951773,-0.029 -1.23112,-0.0895 -0.706112,-0.15288 -1.344313,-0.43085 -1.888053,-0.82235 -0.145336,-0.10464 -0.531672,-0.44569 -0.858531,-0.7579 -0.763318,-0.7291 -1.275725,-1.19412 -1.315813,-1.19412 -0.04114,0 -0.183685,0.13033 -1.139498,1.0418 -0.835419,0.79666 -1.146564,1.03707 -1.705578,1.31782 -0.354752,0.17817 -0.758619,0.31667 -1.210838,0.41524 -0.294262,0.0641 -0.455553,0.0741 -1.353052,0.0833 -0.724414,0.007 -1.14934,-0.003 -1.469982,-0.0378 z"
       id="path125"
       inkscape:connector-curvature="0" />
    <path
       style="fill:#ffffff;stroke-width:0.03340869"
       d="m 24.573982,284.97697 c -3.384925,-0.13424 -5.762999,-0.8066 -5.762999,-1.6294 0,-0.75581 2.162934,-1.44006 5.137241,-1.62519 0.83414,-0.0519 3.255732,-0.0211 3.966628,0.0505 1.803948,0.18161 3.351281,0.56001 3.97111,0.97112 0.239543,0.15888 0.26842,0.18489 0.367728,0.33123 0.15543,0.22904 0.09461,0.51119 -0.156681,0.72686 -0.910963,0.78182 -4.257235,1.30443 -7.523027,1.17493 z"
       id="path127"
       inkscape:connector-curvature="0" />
    <path
       style="fill:#ffffff;stroke-width:0.03340869"
       d="m 24.273303,280.18668 c -0.606367,-0.25512 -1.116258,-0.46891 -1.133089,-0.47509 -0.04073,-0.0149 2.254723,-0.97218 2.319098,-0.96708 0.04568,0.004 2.299814,0.92631 2.325354,0.95185 0.01931,0.0193 -2.29221,0.95996 -2.351748,0.957 -0.03142,-0.002 -0.553247,-0.21156 -1.159615,-0.46668 z"
       id="path129"
       inkscape:connector-curvature="0" />
    <path
       style="fill:#ffffff;stroke-width:0.03340869"
       d="m 29.81288,280.47973 c -0.573064,-0.3715 -1.031597,-0.68507 -1.018963,-0.69681 0.02222,-0.0207 2.086491,-0.46649 2.097624,-0.45304 0.003,0.004 0.125206,0.3927 0.271492,0.8645 l 0.265978,0.85783 -0.23273,0.0526 c -0.128003,0.0289 -0.257197,0.0521 -0.287097,0.0515 -0.0299,-5.3e-4 -0.52324,-0.30503 -1.096304,-0.67652 z"
       id="path131"
       inkscape:connector-curvature="0" />
    <path
       style="fill:#ffffff;stroke-width:0.03340869"
       d="m 19.753157,281.11482 c -0.07898,-0.019 -0.13783,-0.051 -0.130767,-0.0712 0.0071,-0.0202 0.123099,-0.41648 0.257858,-0.88069 0.198975,-0.68543 0.254936,-0.84126 0.29781,-0.82932 0.02904,0.008 0.473743,0.10775 0.988237,0.22147 0.514494,0.11372 0.945794,0.2163 0.958444,0.22796 0.03905,0.036 -2.060182,1.37471 -2.148635,1.37024 -0.04364,-0.002 -0.143963,-0.0195 -0.222947,-0.0385 z"
       id="path133"
       inkscape:connector-curvature="0" />
    <path
       style="fill:#ffffff;stroke-width:0.03340869"
       d="m 30.18267,278.30084 c -2.474505,-0.6201 -6.811213,-0.63492 -9.330411,-0.0319 -0.191095,0.0457 -0.354617,0.076 -0.363382,0.0672 -0.01888,-0.0189 0.423225,-1.45919 0.460329,-1.49968 0.06885,-0.0751 1.308542,-0.28231 2.271724,-0.37963 0.469429,-0.0474 0.8974,-0.0591 2.171565,-0.0592 1.672028,-1.4e-4 2.14006,0.0268 3.223452,0.18565 0.39129,0.0574 1.456942,0.25615 1.475807,0.27529 0.0031,0.003 0.09772,0.32895 0.210269,0.72401 0.112551,0.39505 0.21109,0.73708 0.218975,0.76004 0.01717,0.05 0.03852,0.0526 -0.338328,-0.0418 z"
       id="path135"
       inkscape:connector-curvature="0" />
    <path
       style="fill:#ffffff;stroke-width:0.03340869"
       d="m 19.726525,275.45279 c -1.596212,-3.3593 -2.442122,-6.07798 -2.622146,-8.42734 -0.261958,-3.41862 1.497184,-6.65619 5.364855,-9.87362 0.863101,-0.71799 2.599171,-1.99379 3.016078,-2.21645 0.06945,-0.0371 0.122126,-0.009 0.601357,0.31783 2.998665,2.04656 5.054213,4.00249 6.374865,6.0659 0.322797,0.50435 0.852315,1.55233 1.032489,2.04341 0.275555,0.75107 0.448966,1.53887 0.519943,2.36211 0.158763,1.84147 -0.473313,4.44969 -1.866016,7.69998 -0.308573,0.72015 -1.070698,2.35273 -1.127686,2.41566 -0.0058,0.006 -0.210794,-0.0484 -0.455552,-0.12177 -1.425951,-0.42748 -3.125393,-0.64171 -5.088125,-0.64144 -1.951411,2.7e-4 -3.549158,0.20102 -5.069137,0.6369 -0.251992,0.0723 -0.466319,0.13139 -0.476283,0.13139 -0.01,0 -0.102053,-0.17665 -0.204642,-0.39256 z m 7.43663,-6.27248 v -2.95667 h 1.586912 1.586913 v -1.70384 -1.70384 h -1.586913 -1.586912 v -2.12146 -2.12145 h -1.703843 -1.703843 v 2.12145 2.12146 h -1.586913 -1.586913 v 1.70384 1.70384 h 1.586913 1.586913 v 2.95667 2.95667 h 1.703843 1.703843 z"
       id="path137"
       inkscape:connector-curvature="0" />
    <path
       style="fill:#ffffff;stroke-width:0.03340869"
       d="m 24.824547,268.09453 v -2.97337 h -1.586913 -1.586913 v -0.61807 -0.61806 h 1.586913 1.586913 v -2.12145 -2.12145 h 0.618061 0.618061 v 2.12145 2.12145 h 1.586911 1.586913 v 0.61806 0.61807 H 27.64758 26.060669 v 2.97337 2.97337 h -0.618061 -0.618061 z"
       id="path139"
       inkscape:connector-curvature="0" />
    <path
       style="fill:#ffffff;stroke-width:0.03340869"
       d="m 25.024999,253.02373 c -0.344421,-0.0386 -0.573348,-0.1866 -0.704891,-0.45568 -0.06592,-0.13485 -0.07787,-0.212 -0.07895,-0.50969 -0.0011,-0.31054 0.0088,-0.37229 0.08657,-0.53812 0.152185,-0.32454 0.416832,-0.46414 0.879905,-0.46414 0.315868,0 0.540631,0.0579 0.701605,0.18065 0.34671,0.26445 0.421254,1.0303 0.140774,1.44629 -0.182866,0.27121 -0.551577,0.39376 -1.025018,0.34069 z"
       id="path141"
       inkscape:connector-curvature="0" />
    <path
       style="fill:#ffffff;stroke-width:0.03340869"
       d="m 30.82924,253.16002 c -0.501597,-0.12661 -0.713695,-0.46601 -0.686078,-1.09789 0.01627,-0.37233 0.07709,-0.52208 0.290245,-0.71465 0.189127,-0.17087 0.432412,-0.23571 0.820659,-0.21873 0.666382,0.0292 0.957693,0.33691 0.958958,1.01313 0.0013,0.6846 -0.306697,1.01364 -0.972484,1.03901 -0.157025,0.006 -0.342109,-0.003 -0.4113,-0.0209 z"
       id="path143"
       inkscape:connector-curvature="0" />
    <path
       style="fill:#ffffff;stroke-width:0.03340869"
       d="m 35.081015,266.04984 c 0,-0.81926 -0.92778,-3.62636 -1.769999,-5.35534 -0.80291,-1.64827 -1.931215,-3.03079 -3.324826,-4.07393 -0.335867,-0.2514 -0.391268,-0.32879 -0.393922,-0.55031 -0.0033,-0.27055 0.198906,-0.52814 0.543928,-0.69311 0.351843,-0.16823 0.687152,-0.0964 0.963969,0.20648 0.978863,1.07103 1.92785,2.64703 2.583707,4.2908 0.591486,1.48243 1.19204,3.66508 1.379291,5.01286 0.05239,0.37709 0.07787,1.22065 0.03808,1.26044 -0.01111,0.0111 -0.02021,-0.0329 -0.02021,-0.0979 z"
       id="path145"
       inkscape:connector-curvature="0" />
  </g>
</svg>
