<svg xmlns="http://www.w3.org/2000/svg" width="192" height="191.906" viewBox="0 0 50.8 50.775"><g fill="#fff"><path d="M68.203 125q-2.803 0-4.787.497-1.985.496-1.985 1.19t1.985 1.191q1.984.471 4.787.471t4.787-.47q2.01-.497 2.01-1.191t-2.01-1.191Q71.006 125 68.203 125zM73.809 94.441q-1.067 0-1.067 1.042 0 1.067 1.067 1.067t1.067-1.067q0-1.042-1.067-1.042zM67.856 94.367q-1.017 0-1.017 1.017t1.017 1.017q1.017 0 1.017-1.017t-1.017-1.017zM71.899 108.48v-1.264h-3.175v-4.242h-1.265v4.242h-3.175v1.265h3.175v5.928h1.265v-5.928z" style="font-feature-settings:normal;font-variant-caps:normal;font-variant-ligatures:normal;font-variant-numeric:normal" transform="translate(-42.63 -89.605)"/><path d="M72.966 109.547H69.79v5.929h-3.399v-5.929h-3.175v-3.373h3.175v-4.242h3.399v4.242h3.175zM70.485 123.041l-2.406-.992-2.381.992 2.381.992zM77.728 109.721q.273-1.34-.843-4.936-1.092-3.622-3.25-6.003-.322-.198-.57-.173-.372.05-.695.372-.297.322-.074.769 2.63 1.786 4.018 5.134 1.39 3.349 1.414 4.837z" style="font-feature-settings:normal;font-variant-caps:normal;font-variant-ligatures:normal;font-variant-numeric:normal" transform="translate(-42.63 -89.605)"/><path d="M62.548 119.221q2.38-.793 5.531-.793 3.274 0 5.581.793 3.026-6.102 3.026-9.574 0-5.879-8.508-11.435-8.483 5.556-8.483 11.435 0 3.745 2.853 9.574zM73.189 121.751l-.447-1.562q-2.083-.496-4.688-.496-2.555 0-4.49.446l-.496 1.588q2.06-.546 4.986-.546 3.076 0 5.135.57zM74.082 124.405l-.546-1.76-2.208.47 2.183 1.415zM62.225 124.43l.447.1 2.182-1.414-2.108-.472z" style="font-feature-settings:normal;font-variant-caps:normal;font-variant-ligatures:normal;font-variant-numeric:normal" transform="translate(-42.63 -89.605)"/><path d="M68.054 134.377q-1.835 2.654-4.96 2.654-.323 0-.646-.025-.297-.05-.595-.074-.72-.025-2.108-.248-1.39-.248-3.1-1.116-1.514-1.315-3.846-1.315-1.786 0-3.1.843-.372.174-.918.72-.992 1.066-1.612 1.165-.496-.248-.521-.843-.124-1.166 1.711-3.001-.322.05-1.215.297-.744.224-.992.224-.819.124-.868.024-.273-.272.198-1.116.397-.72 1.538-1.265.149-.074.942-.421 2.307-1.216 4.837-1.216 3.696 0 6.673 2.505 1.19.397 2.406.397 3.72 0 3.845-3.076-2.406-.223-4.019-.818-1.587-.595-1.587-1.39l1.984-6.597q-1.736-2.729-2.877-5.556-1.141-2.828-1.141-5.358 0-7.59 8.235-11.658 0-.323.074-.968-.843-.694-.843-1.761 0-2.282 2.307-2.282 2.282 0 2.282 2.282 0 .992-.72 1.662 0 .769.199 1.042.422.595 1.116.62.72-.025 1.19-.645.1-.149.2-.918-.646-.67-.646-1.662 0-2.331 2.332-2.331t2.332 2.331q0 1.315-1.141 2.034-.1.496-.05.794 4.192 4.96 3.646 11.46-.173 1.86-.57 3.67-.397 1.787-1.39 3.374-.371.844-1.165 1.91-.77 1.042-1.34 1.96l1.96 6.598q-.025.794-1.637 1.389t-4.068.818q.124 3.076 3.87 3.076 1.215 0 2.405-.397 2.952-2.505 6.673-2.505 2.53 0 4.812 1.216.298.148.52.248.224.099.447.173 1.117.57 1.538 1.265.075.223.224.57.148.348-.025.546-.075.1-.868-.024-.248 0-.993-.224-.917-.248-1.24-.297 1.836 1.86 1.736 3.001-.05.57-.545.843-.62-.099-1.613-1.165-.496-.496-.892-.72-1.39-.843-3.101-.843-2.381 0-3.87 1.315-1.711.868-3.1 1.116-1.39.223-2.084.248-.297.025-.62.074-.322.025-.62.025-3.2 0-4.986-2.654z" style="font-feature-settings:normal;font-variant-caps:normal;font-variant-ligatures:normal;font-variant-numeric:normal" transform="translate(-42.63 -89.605)"/><path d="M68.054 132.566q.075 0 1.637 1.513 1.439 1.365 3.523 1.365h1.016q1.067-.075 2.035-.248.967-.199 2.306-.745 2.58-1.786 4.763-1.786.942 0 1.736.224.323.074.372.173.075.075.57.298 1.539.794.77.174-.744-.645-.57-.943.148-.322 1.14-.695 1.017-.372-1.438-.595-1.24-.422-2.58-.422-2.977 0-6.077 2.407-1.092.595-1.86.67-.745.074-1.414.024-1.935-.074-2.605-.52-.645-.472-1.166-1.043-.496-.52-.967-2.009-.248-.794-1.19-.893-.968.1-1.191.893-.447 1.488-.968 2.01-.52.57-1.19 1.041-.645.447-2.555.521-.695.05-1.464-.025-.744-.074-1.81-.67-3.15-2.406-6.078-2.406-1.364 0-2.58.422-2.48.223-1.488.595 1.017.373 1.191.695.149.298-.62.943-.744.62.818-.174.447-.223.521-.298.075-.099.397-.173.77-.224 1.761-.224 2.158 0 4.738 1.786 1.34.546 2.282.745.967.173 2.084.248h1.017q2.058 0 3.522-1.365 1.538-1.513 1.612-1.513z" style="font-feature-settings:normal;font-variant-caps:normal;font-variant-ligatures:normal;font-variant-numeric:normal" transform="translate(-42.63 -89.605)"/></g><path d="M68.203 125q-2.803 0-4.787.497-1.985.496-1.985 1.19t1.985 1.191q1.984.471 4.787.471t4.787-.47q2.01-.497 2.01-1.191t-2.01-1.191Q71.006 125 68.203 125zm5.606-30.559q-1.067 0-1.067 1.042 0 1.067 1.067 1.067t1.067-1.067q0-1.042-1.067-1.042zm-5.953-.074q-1.017 0-1.017 1.017t1.017 1.017q1.017 0 1.017-1.017t-1.017-1.017zm4.043 14.114v-1.265h-3.175v-4.242h-1.265v4.242h-3.175v1.265h3.175v5.928h1.265v-5.928zm1.067 1.066H69.79v5.929h-3.399v-5.929h-3.175v-3.373h3.175v-4.242h3.399v4.242h3.175zm-2.48 13.494-2.407-.992-2.381.992 2.381.992zm7.242-13.32q.273-1.34-.843-4.936-1.092-3.622-3.25-6.003-.322-.198-.57-.173-.372.05-.695.372-.297.322-.074.769 2.63 1.786 4.018 5.134 1.39 3.349 1.414 4.837zm-15.18 9.5q2.38-.793 5.531-.793 3.274 0 5.581.793 3.026-6.102 3.026-9.574 0-5.879-8.508-11.435-8.483 5.556-8.483 11.435 0 3.745 2.853 9.574zm10.64 2.53-.446-1.562q-2.083-.496-4.688-.496-2.555 0-4.49.446l-.496 1.588q2.06-.546 4.986-.546 3.076 0 5.135.57zm.894 2.654-.546-1.76-2.208.47 2.183 1.415zm-11.857.025.447.1 2.182-1.414-2.108-.472zm5.83 9.947q-1.836 2.654-4.962 2.654-.322 0-.645-.025-.297-.05-.595-.074-.72-.025-2.108-.248-1.39-.248-3.1-1.116-1.514-1.315-3.846-1.315-1.786 0-3.1.843-.372.174-.918.72-.992 1.066-1.612 1.165-.496-.248-.521-.843-.124-1.166 1.711-3.001-.322.05-1.215.297-.744.224-.992.224-.819.124-.868.024-.273-.272.198-1.116.397-.72 1.538-1.265.149-.074.942-.421 2.307-1.216 4.837-1.216 3.696 0 6.673 2.505 1.19.397 2.406.397 3.72 0 3.845-3.076-2.406-.223-4.019-.818-1.587-.595-1.587-1.39l1.984-6.597q-1.736-2.729-2.877-5.556-1.141-2.828-1.141-5.358 0-7.59 8.235-11.658 0-.323.074-.968-.843-.694-.843-1.761 0-2.282 2.307-2.282 2.282 0 2.282 2.282 0 .992-.72 1.662 0 .769.199 1.042.422.595 1.116.62.72-.025 1.19-.645.1-.149.2-.918-.646-.67-.646-1.662 0-2.331 2.332-2.331t2.332 2.331q0 1.315-1.141 2.034-.1.496-.05.794 4.192 4.96 3.646 11.46-.173 1.86-.57 3.67-.397 1.787-1.39 3.374-.371.844-1.165 1.91-.77 1.042-1.34 1.96l1.96 6.598q-.025.794-1.637 1.389t-4.068.818q.124 3.076 3.87 3.076 1.215 0 2.405-.397 2.952-2.505 6.673-2.505 2.53 0 4.812 1.216.298.148.52.248.224.099.447.173 1.117.57 1.538 1.265.075.223.224.57.148.348-.025.546-.075.1-.868-.024-.248 0-.993-.224-.917-.248-1.24-.297 1.836 1.86 1.736 3.001-.05.57-.545.843-.62-.099-1.613-1.165-.496-.496-.892-.72-1.39-.843-3.101-.843-2.381 0-3.87 1.315-1.711.868-3.1 1.116-1.39.223-2.084.248-.297.025-.62.074-.322.025-.62.025-3.2 0-4.986-2.654zm0-1.81q.074 0 1.636 1.512 1.439 1.365 3.523 1.365h1.016q1.067-.075 2.035-.248.967-.199 2.306-.745 2.58-1.786 4.763-1.786.942 0 1.736.224.323.074.372.173.075.075.57.298 1.539.794.77.174-.744-.645-.57-.943.148-.322 1.14-.695 1.017-.372-1.438-.595-1.24-.422-2.58-.422-2.977 0-6.077 2.407-1.092.595-1.86.67-.745.074-1.414.024-1.935-.074-2.605-.52-.645-.472-1.166-1.043-.496-.52-.967-2.009-.248-.794-1.19-.893-.968.1-1.191.893-.447 1.488-.968 2.01-.52.57-1.19 1.041-.645.447-2.555.521-.695.05-1.464-.025-.744-.074-1.81-.67-3.15-2.406-6.078-2.406-1.364 0-2.58.422-2.48.223-1.488.595 1.017.373 1.191.695.149.298-.62.943-.744.62.818-.174.447-.223.521-.298.075-.099.397-.173.77-.224 1.761-.224 2.158 0 4.738 1.786 1.34.546 2.282.745.967.173 2.084.248h1.017q2.058 0 3.522-1.365 1.538-1.513 1.612-1.513z" aria-label="b" style="font-feature-settings:normal;font-variant-caps:normal;font-variant-ligatures:normal;font-variant-numeric:normal" transform="translate(-42.63 -89.605)"/></svg>