<svg xmlns="http://www.w3.org/2000/svg" width="192" height="191.906" viewBox="0 0 50.8 50.775"><g fill="#fff"><path d="M93.803 122.503q-.199.248-.521.471-.695.521-.992-.099-.174-.298.024-.918.348-.297.472-.397.769-.917 1.265-1.612.248-.05.372-.025.868.15.446 1.067-.223.446-.545.818-.298.348-.521.695zM101.145 111.49q.496-1.538 1.885-1.662.943-.075 1.637-.075.695 0 1.489-.248-.794 2.233-1.811 2.902-.546.323-1.513.397-.72.05-1.117-.099-.396-.149-.57-1.215z" style="font-feature-settings:normal;font-variant-caps:normal;font-variant-ligatures:normal;font-variant-numeric:normal" transform="translate(-83.856 -92.812)"/><path d="M99.508 124.686q1.19-.844 1.687-1.761.52-.943 1.413-1.786.025-.298.075-.67t.099-.794q.174-.173.273-.198.72-.223.843.645 0 .248-.05.496-.024.223.025.397.15.173 1.117.372 3.572.124 6.573-2.68 0-.024.149-.222.173-.199.198-.248.744-1.117 1.19-4.639.05-.1.274-.223.645-.223.818.645-.223 3.2-.967 4.564-.397.72-.893 1.265.422-.223.843-.422t.819-.446q1.265-.77 1.81-2.977.273-.471.794-.422.546.1.422.819-.57 3.1-2.43 4.018-.596.298-1.216.546-.596.223-1.166.447 1.463-.075 3.175-.472.322 0 .446.273.224.496-.471.893-3.497.967-4.44.868-.67 2.109-3.274 4.639-1.439 1.389-2.977 2.703-1.538 1.29-3.026 2.58-3.299 2.902-4.018 5.656 5.68.024 9.425.024h13.271q3.2-.024 7.789-.024.347 0 .272-1.24-.05-1.24-.173-2.308-1.34.15-2.53-1.389-1.19-1.562-1.092-3.571.025-5.21-.67-9.377-.67-4.192-2.678-7.267-3.274-4.961-10.393-8.434-.1.62-.224 1.141-.198.794-.744.52-.52-.173-.545-.669.099-.446.124-.67-.025-.074-.05-.173-.025-.124-.025-.223-.248-1.29-1.414-2.927-.198 1.041-.397 1.414-.198.372-.347.644-.273.397-.496.77-.198.371-.471.818-.273-.298-.596-.695-.297-.421-.545-.719-.224-.223-.447-.422-.198-.223-.794-.372.521 1.935-.272 2.654-.397.397-.869 1.067-.47.645-1.066 1.19-.347.373-.868.869-.496.471-.844 1.24-.471 1.439-1.86 2.902-1.364 1.439-3.001 2.902-3.572 3.175-4.044 4.614-.644 1.736.075 3.373.67 1.464 1.835 1.91.695.273 1.712-1.041 1.091-1.315 1.439-1.216.645.174.421.918-.124.422-.793 1.215-.695.77-.72 1.017-.124.298.496.472.77.198 2.878-1.86.248-.249.52-.447.298-.223.596-.496z" style="font-feature-settings:normal;font-variant-caps:normal;font-variant-ligatures:normal;font-variant-numeric:normal" transform="translate(-83.856 -92.812)"/><path d="M100.326 125.876q-.347.372-.57.546-.199.149-.372.298-.223.198-1.588 1.637-.57.595-1.364.794-.57.148-1.463-.124-3.101-.819-4.887-3.275-.72-.917-1.017-2.207-.273-1.315.298-3.324.545-2.059 3.919-4.639 3.696-2.803 4.366-4.49.545-.967 1.24-2.132.694-1.166 1.662-2.258.595-.421 1.116-.967.546-.57 1.091-1.166v-3.05q1.39.272 1.985.793.297.322.67.595.371.273.67.596.62-1.117.793-1.86.025-.174.149-.695.149-.521.297-1.712.372-.074.645.199 1.166 1.265 2.183 2.877 4.54 1.81 8.285 4.291 3.77 2.48 5.755 5.16 5.705 7.739 5.705 22.72 0 3.15-.323 5.755H95.713q-.323-3.224 3.423-6.846 1.687-1.637 3.497-3.175 1.836-1.538 3.572-3.125 3.225-2.977 3.572-4.763-.124-.297-.471-.397-.868.521-1.737.67-.868.149-1.711.199l-1.092.05q-.52 0-1.24-.249-.967 1.092-1.662 1.885-.67.77-1.538 1.39z" style="font-feature-settings:normal;font-variant-caps:normal;font-variant-ligatures:normal;font-variant-numeric:normal" transform="translate(-83.856 -92.812)"/></g><path d="M93.803 122.503q-.199.248-.521.471-.695.521-.992-.099-.174-.298.024-.918.348-.297.472-.397.769-.917 1.265-1.612.248-.05.372-.025.868.15.446 1.067-.223.446-.545.818-.298.348-.521.695zm7.342-11.013q.496-1.538 1.885-1.662.943-.075 1.637-.075.695 0 1.489-.248-.794 2.233-1.811 2.902-.546.323-1.513.397-.72.05-1.117-.099-.396-.149-.57-1.215zm-1.637 13.196q1.19-.844 1.687-1.761.52-.943 1.413-1.786.025-.298.075-.67t.099-.794q.174-.173.273-.198.72-.223.843.645 0 .248-.05.496-.024.223.025.397.15.173 1.117.372 3.572.124 6.573-2.68 0-.024.149-.222.173-.199.198-.248.744-1.117 1.19-4.639.05-.1.274-.223.645-.223.818.645-.223 3.2-.967 4.564-.397.72-.893 1.265.422-.223.843-.422t.819-.446q1.265-.77 1.81-2.977.273-.471.794-.422.546.1.422.819-.57 3.1-2.43 4.018-.596.298-1.216.546-.596.223-1.166.447 1.463-.075 3.175-.472.322 0 .446.273.224.496-.471.893-3.497.967-4.44.868-.67 2.109-3.274 4.639-1.439 1.389-2.977 2.703-1.538 1.29-3.026 2.58-3.299 2.902-4.018 5.656 5.68.024 9.425.024h13.271q3.2-.024 7.789-.024.347 0 .272-1.24-.05-1.24-.173-2.308-1.34.15-2.53-1.389-1.19-1.562-1.092-3.571.025-5.21-.67-9.377-.67-4.192-2.678-7.267-3.274-4.961-10.393-8.434-.1.62-.224 1.141-.198.794-.744.52-.52-.173-.545-.669.099-.446.124-.67-.025-.074-.05-.173-.025-.124-.025-.223-.248-1.29-1.414-2.927-.198 1.041-.397 1.414-.198.372-.347.644-.273.397-.496.77-.198.371-.471.818-.273-.298-.596-.695-.297-.421-.545-.719-.224-.223-.447-.422-.198-.223-.794-.372.521 1.935-.272 2.654-.397.397-.869 1.067-.47.645-1.066 1.19-.347.373-.868.869-.496.471-.844 1.24-.471 1.439-1.86 2.902-1.364 1.439-3.001 2.902-3.572 3.175-4.044 4.614-.644 1.736.075 3.373.67 1.464 1.835 1.91.695.273 1.712-1.041 1.091-1.315 1.439-1.216.645.174.421.918-.124.422-.793 1.215-.695.77-.72 1.017-.124.298.496.472.77.198 2.878-1.86.248-.249.52-.447.298-.223.596-.496zm.818 1.19q-.347.372-.57.546-.199.149-.372.298-.223.198-1.588 1.637-.57.595-1.364.794-.57.148-1.463-.124-3.101-.819-4.887-3.275-.72-.917-1.017-2.207-.273-1.315.298-3.324.545-2.059 3.919-4.639 3.696-2.803 4.366-4.49.545-.967 1.24-2.132.694-1.166 1.662-2.258.595-.421 1.116-.967.546-.57 1.091-1.166v-3.05q1.39.272 1.985.793.297.322.67.595.371.273.67.596.62-1.117.793-1.86.025-.174.149-.695.149-.521.297-1.712.372-.074.645.199 1.166 1.265 2.183 2.877 4.54 1.81 8.285 4.291 3.77 2.48 5.755 5.16 5.705 7.739 5.705 22.72 0 3.15-.323 5.755H95.713q-.323-3.224 3.423-6.846 1.687-1.637 3.497-3.175 1.836-1.538 3.572-3.125 3.225-2.977 3.572-4.763-.124-.297-.471-.397-.868.521-1.737.67-.868.149-1.711.199l-1.092.05q-.52 0-1.24-.249-.967 1.092-1.662 1.885-.67.77-1.538 1.39z" aria-label="n" style="font-feature-settings:normal;font-variant-caps:normal;font-variant-ligatures:normal;font-variant-numeric:normal" transform="translate(-83.856 -92.812)"/></svg>