<?xml version="1.0" encoding="UTF-8" standalone="no"?>
<!-- Created with Inkscape (http://www.inkscape.org/) -->

<svg
   xmlns:dc="http://purl.org/dc/elements/1.1/"
   xmlns:cc="http://creativecommons.org/ns#"
   xmlns:rdf="http://www.w3.org/1999/02/22-rdf-syntax-ns#"
   xmlns:svg="http://www.w3.org/2000/svg"
   xmlns="http://www.w3.org/2000/svg"
   xmlns:sodipodi="http://sodipodi.sourceforge.net/DTD/sodipodi-0.dtd"
   xmlns:inkscape="http://www.inkscape.org/namespaces/inkscape"
   width="144pt"
   height="144pt"
   viewBox="0 0 50.800001 50.8"
   version="1.1"
   id="svg8"
   sodipodi:docname="wp.svg"
   inkscape:version="0.92.3 (2405546, 2018-03-11)">
  <defs
     id="defs2" />
  <sodipodi:namedview
     id="base"
     pagecolor="#ffffff"
     bordercolor="#666666"
     borderopacity="1.0"
     inkscape:pageopacity="0.0"
     inkscape:pageshadow="2"
     inkscape:zoom="15.839192"
     inkscape:cx="150.78514"
     inkscape:cy="174.77197"
     inkscape:document-units="mm"
     inkscape:current-layer="layer1"
     showgrid="false"
     units="pt"
     inkscape:window-width="3840"
     inkscape:window-height="2035"
     inkscape:window-x="-13"
     inkscape:window-y="-13"
     inkscape:window-maximized="1" />
  <metadata
     id="metadata5">
    <rdf:RDF>
      <cc:Work
         rdf:about="">
        <dc:format>image/svg+xml</dc:format>
        <dc:type
           rdf:resource="http://purl.org/dc/dcmitype/StillImage" />
        <dc:title />
      </cc:Work>
    </rdf:RDF>
  </metadata>
  <g
     inkscape:label="Layer 1"
     inkscape:groupmode="layer"
     id="layer1"
     transform="translate(0,-246.2)">
    <g
       aria-label="p"
       style="font-style:normal;font-variant:normal;font-weight:normal;font-stretch:normal;font-size:10.58333302px;line-height:1.25;font-family:'Chess Leipzig';-inkscape-font-specification:'Chess Leipzig';letter-spacing:0px;word-spacing:0px;fill:#000000;fill-opacity:1;stroke:none;stroke-width:0.26458332"
       id="text12"
       transform="translate(0.001152,0.07585)">
      <path
         d="m 25.412402,291.95223 h 11.459766 q -0.744141,-2.95175 -2.852539,-5.23379 -0.818555,-0.94257 -1.537891,-1.56269 -2.38125,-1.93477 -3.894336,-4.56406 -1.5875,0.59531 -3.175,0.59531 -1.637109,0 -3.175,-0.59531 -1.612304,2.6789 -3.894335,4.56406 -0.744141,0.62012 -1.537891,1.56269 -2.133203,2.28204 -2.852539,5.23379 z m 0,-12.42714 q 2.80293,0 4.787305,-1.98438 1.984375,-1.98437 1.984375,-4.81211 0,-2.30683 -1.438672,-4.14238 -1.661914,-2.1332 -2.554883,-4.51445 -1.488281,-0.19844 -2.778125,-0.19844 -1.364257,0 -2.778125,0.19844 -1.016992,2.53007 -2.579687,4.51445 -1.438672,1.83555 -1.438672,4.14238 0,2.82774 1.984375,4.81211 1.984375,1.98438 4.812109,1.98438 z m 0,-23.19239 q 2.530078,0 2.530078,-2.53007 0,-2.53008 -2.530078,-2.53008 -2.530078,0 -2.530078,2.53008 0,2.53007 2.530078,2.53007 z m 0,5.85391 q 1.885157,0 3.348633,0.47129 -0.570508,-1.0418 -1.190625,-2.30684 -0.595312,-1.28984 -0.768945,-2.55488 -0.694531,0.19844 -1.389063,0.19844 -0.74414,0 -1.413867,-0.19844 -0.198437,1.26504 -0.79375,2.55488 -0.595312,1.26504 -1.141015,2.30684 1.95957,-0.47129 3.348632,-0.47129 z m 0,31.42754 H 11.893848 q 0.471289,-5.33301 4.539258,-9.0041 0.669726,-0.62012 0.74414,-0.66973 2.108399,-1.73633 3.59668,-4.14238 -3.819922,-2.50528 -3.819922,-7.06934 0,-2.82773 1.711523,-5.08496 0.570508,-0.71934 1.21543,-1.63711 0.669727,-0.91777 1.066602,-1.78594 -0.595313,0.14883 -1.810742,0.47129 -1.190625,0.32246 -1.761133,0.54571 1.711523,-1.5875 3.249414,-3.77032 1.562695,-2.18281 1.835547,-4.63847 -1.265039,-1.28985 -1.265039,-3.02617 0,-1.73633 1.215429,-2.97657 1.240235,-1.24023 3.001367,-1.24023 1.711524,0 2.951758,1.24023 1.240234,1.24024 1.240234,2.97657 0,1.76113 -1.265039,3.02617 0.272852,2.45566 1.835547,4.63847 1.5875,2.18282 3.299024,3.77032 -0.570508,-0.22325 -1.810742,-0.54571 -1.21543,-0.32246 -1.810743,-0.47129 0.396875,0.86817 1.041797,1.78594 0.669727,0.91777 1.265039,1.63711 1.711524,2.25723 1.711524,5.08496 0,4.56406 -3.819922,7.06934 1.413867,2.38125 3.571875,4.14238 0.37207,0.29766 0.74414,0.66973 4.092774,3.67109 4.539258,9.0041 z"
         style="font-size:50.79999924px;stroke-width:0.26458332"
         id="path14"
         inkscape:connector-curvature="0" />
    </g>
    <path
       style="fill:#ffffff;stroke-width:0.1889881"
       d="m 14.194664,291.48226 c 0.06959,-0.28584 0.438772,-1.15755 0.820405,-1.93713 0.57387,-1.17227 1.153992,-1.89135 3.354264,-4.15774 1.463214,-1.50717 2.940604,-3.15127 3.28309,-3.65354 0.550601,-0.80748 0.68059,-0.89854 1.122657,-0.78639 1.925799,0.48854 3.41617,0.48987 5.327602,0.005 0.424445,-0.10772 0.556784,-0.004 1.12689,0.88088 0.355282,0.55162 1.675659,2.02348 2.934168,3.2708 2.824239,2.79913 3.838218,4.2504 4.442973,6.35906 l 0.154586,0.539 H 25.414717 14.068136 Z"
       id="path17"
       inkscape:connector-curvature="0" />
    <path
       style="fill:#ffffff;stroke-width:0.1889881"
       d="m 23.487455,279.23172 c -1.876754,-0.6013 -3.377583,-1.95996 -4.239624,-3.83801 -0.396074,-0.8629 -0.487027,-1.34571 -0.484897,-2.57402 0.0031,-1.81021 0.249744,-2.43239 1.990948,-5.02312 0.669183,-0.99568 1.364135,-2.19638 1.544337,-2.66823 0.309984,-0.81168 0.374564,-0.86435 1.198323,-0.97726 1.108465,-0.15193 2.970235,-0.14989 3.903333,0.004 0.653034,0.1079 0.765702,0.2159 1.16345,1.11529 0.24222,0.5477 1.002927,1.82542 1.69046,2.83939 1.467881,2.16481 1.879885,3.36302 1.777769,5.1702 -0.137519,2.43379 -1.608923,4.56051 -3.89196,5.62532 -1.28488,0.59927 -3.348191,0.74392 -4.652139,0.32615 z"
       id="path19"
       inkscape:connector-curvature="0" />
    <path
       style="fill:#ffffff;stroke-width:0.01670435"
       d="m 22.339588,262.21711 c 0.25501,-0.49875 0.686899,-1.38393 0.883003,-1.80975 0.364216,-0.79087 0.652106,-1.70654 0.772199,-2.45609 l 0.01079,-0.0674 0.178716,0.0449 c 0.776306,0.19495 1.610058,0.19636 2.414918,0.004 0.190577,-0.0455 0.210064,-0.0427 0.21073,0.0304 1.35e-4,0.0155 0.01932,0.13198 0.04259,0.25892 0.157499,0.85858 0.425945,1.63489 0.885608,2.56105 0.291812,0.58797 0.814237,1.59244 0.972257,1.86936 0.03736,0.0655 0.03853,0.0723 0.01053,0.0613 -0.184121,-0.0722 -0.827436,-0.22559 -1.229161,-0.29311 -1.192652,-0.20046 -2.40176,-0.21731 -3.588128,-0.05 -0.535005,0.0754 -1.505932,0.26199 -1.792749,0.34442 -0.02187,0.006 0.04254,-0.13398 0.228691,-0.49807 z"
       id="path21"
       inkscape:connector-curvature="0" />
    <path
       style="fill:#ffffff;stroke-width:0.01670435"
       d="m 25.089655,256.39032 c -1.245798,-0.098 -1.949203,-0.70206 -2.145734,-1.84267 -0.06844,-0.39721 -0.06515,-0.97369 0.0079,-1.37923 0.131145,-0.72832 0.49132,-1.24654 1.063033,-1.52948 0.269349,-0.1333 0.586134,-0.22026 0.944706,-0.25931 0.208607,-0.0227 0.703097,-0.0227 0.911704,0 1.229221,0.13389 1.906586,0.81126 2.040484,2.04048 0.02273,0.20861 0.02273,0.7031 0,0.9117 -0.08472,0.77775 -0.380953,1.33052 -0.892718,1.66581 -0.175741,0.11514 -0.267964,0.16041 -0.470135,0.23078 -0.394766,0.13741 -0.965579,0.20075 -1.459217,0.16192 z"
       id="path23"
       inkscape:connector-curvature="0" />
  </g>
</svg>
