<?xml version="1.0" encoding="UTF-8" standalone="no"?>
<!-- Created with Inkscape (http://www.inkscape.org/) -->

<svg
   xmlns:dc="http://purl.org/dc/elements/1.1/"
   xmlns:cc="http://creativecommons.org/ns#"
   xmlns:rdf="http://www.w3.org/1999/02/22-rdf-syntax-ns#"
   xmlns:svg="http://www.w3.org/2000/svg"
   xmlns="http://www.w3.org/2000/svg"
   xmlns:sodipodi="http://sodipodi.sourceforge.net/DTD/sodipodi-0.dtd"
   xmlns:inkscape="http://www.inkscape.org/namespaces/inkscape"
   width="144pt"
   height="144pt"
   viewBox="0 0 50.800001 50.8"
   version="1.1"
   id="svg8"
   sodipodi:docname="wr.svg"
   inkscape:version="0.92.3 (2405546, 2018-03-11)">
  <defs
     id="defs2" />
  <sodipodi:namedview
     id="base"
     pagecolor="#ffffff"
     bordercolor="#666666"
     borderopacity="1.0"
     inkscape:pageopacity="0.0"
     inkscape:pageshadow="2"
     inkscape:zoom="7.9195959"
     inkscape:cx="32.378538"
     inkscape:cy="82.094414"
     inkscape:document-units="mm"
     inkscape:current-layer="layer1"
     showgrid="false"
     units="pt"
     inkscape:window-width="3840"
     inkscape:window-height="2035"
     inkscape:window-x="-13"
     inkscape:window-y="-13"
     inkscape:window-maximized="1" />
  <metadata
     id="metadata5">
    <rdf:RDF>
      <cc:Work
         rdf:about="">
        <dc:format>image/svg+xml</dc:format>
        <dc:type
           rdf:resource="http://purl.org/dc/dcmitype/StillImage" />
        <dc:title />
      </cc:Work>
    </rdf:RDF>
  </metadata>
  <g
     inkscape:label="Layer 1"
     inkscape:groupmode="layer"
     id="layer1"
     transform="translate(0,-246.2)">
    <g
       aria-label="r"
       style="font-style:normal;font-variant:normal;font-weight:normal;font-stretch:normal;font-size:50.79999924px;line-height:1.25;font-family:'Chess Leipzig';-inkscape-font-specification:'Chess Leipzig';letter-spacing:0px;word-spacing:0px;fill:#000000;fill-opacity:1;stroke:none;stroke-width:0.26458332"
       id="text34"
       transform="matrix(1.0000032,0,0,1,4.1935344e-4,0.06083)">
      <path
         d="m 25.412402,249.58585 h 3.423047 v 3.37343 h 5.13457 v -3.37343 h 5.903516 v 8.85527 l -3.993555,4.61367 q 1.289844,1.63711 0.04961,3.44785 -0.198438,0.32246 -0.198438,0.59532 0,0.32246 0.198438,0.62011 0.520898,0.76895 0.496093,2.18282 0,1.38906 -0.520898,2.18281 -0.173633,0.24804 -0.173633,0.5209 0,0.34726 0.223242,0.64492 1.165821,1.76113 -0.04961,3.47265 -0.173633,0.29766 -0.173633,0.57051 0,0.27285 0.173633,0.57051 0.545703,0.81855 0.545703,2.28203 0,1.43867 -0.595312,2.1332 l 4.018359,2.00918 v 2.13321 h 1.661914 v 7.19336 H 25.412402 9.264551 v -7.16856 h 1.686719 v -2.1332 l 3.993554,-2.03399 q -0.595312,-0.69453 -0.595312,-2.1332 0,-1.43867 0.545703,-2.25723 0.198437,-0.27285 0.198437,-0.5705 0,-0.24805 -0.198437,-0.57051 -1.21543,-1.73633 -0.02481,-3.47266 0.223242,-0.39687 0.223242,-0.64492 0,-0.24805 -0.173632,-0.5457 -0.545703,-0.79375 -0.570508,-2.18281 0,-1.41387 0.520898,-2.18282 0.223242,-0.29765 0.223242,-0.62011 0,-0.27286 -0.198437,-0.57051 -1.265039,-1.81074 0.04961,-3.47266 l -3.993554,-4.58887 v -8.85527 h 5.903515 v 3.34863 l 5.109766,0.0248 v -3.37344 z m -9.152929,12.25351 q 4.241601,-0.66972 9.152929,-0.66972 4.985742,0 9.227344,0.66972 l 1.438672,-1.81074 q -5.060156,-0.89297 -10.666016,-0.89297 -5.655468,0 -10.69082,0.89297 z m -5.233789,26.29297 v 3.79512 h 28.748632 v -3.79512 z m 14.386718,-5.06016 q -5.159375,0 -9.351367,0.34727 l -3.348632,1.78594 v 1.24023 h 25.399999 v -1.24023 q -0.843359,-0.44649 -1.686719,-0.89297 -0.843359,-0.44649 -1.661914,-0.89297 -4.464843,-0.34727 -9.351367,-0.34727 z m 12.7,-31.7996 h -2.554883 v 3.47265 h -8.483203 v -3.44785 h -3.348632 v 3.44785 h -8.458399 v -3.47265 h -2.554882 q 0,1.5875 0,3.175 0,1.56269 0,3.12539 3.174999,-0.19844 6.325195,-0.37207 3.175,-0.17364 6.374804,-0.17364 6.027539,0 12.7,0.54571 z m -8.210351,11.88144 q -0.818555,0.59531 -0.818555,1.68672 0,1.09141 0.818555,1.68672 0.768945,0.59531 2.282031,0.59531 1.513086,0 2.306836,-0.59531 0.79375,-0.59531 0.79375,-1.68672 0,-1.09141 -0.79375,-1.68672 -0.79375,-0.57051 -2.306836,-0.57051 -1.513086,0 -2.282031,0.57051 z m -6.672461,0 q -0.768945,0.59531 -0.768945,1.68672 0,1.09141 0.768945,1.68672 0.74414,0.59531 2.158008,0.59531 1.438672,0 2.207617,-0.59531 0.74414,-0.59531 0.74414,-1.68672 0,-1.09141 -0.74414,-1.68672 -0.768945,-0.57051 -2.207617,-0.57051 -1.413868,0 -2.158008,0.57051 z m -6.895703,0 q -0.818555,0.59531 -0.818555,1.68672 0,1.09141 0.818555,1.68672 0.768945,0.59531 2.257226,0.59531 1.513086,0 2.331641,-0.59531 0.79375,-0.59531 0.79375,-1.68672 0,-1.09141 -0.79375,-1.68672 -0.818555,-0.57051 -2.331641,-0.57051 -1.488281,0 -2.257226,0.57051 z m 16.66875,5.03535 q -0.297657,0.59531 -0.297657,1.71153 0,1.0914 0.297657,1.66191 0.272851,0.59531 0.868164,0.59531 0.595312,0 0.892968,-0.59531 0.297657,-0.57051 0.297657,-1.66191 0,-1.11622 -0.297657,-1.71153 -0.297656,-0.5457 -0.892968,-0.5457 -0.595313,0 -0.868164,0.5457 z m -6.35,0 q -0.744141,0.59531 -0.744141,1.71153 0,1.0914 0.744141,1.66191 0.74414,0.59531 2.133203,0.59531 1.413867,0 2.158008,-0.59531 0.74414,-0.57051 0.74414,-1.66191 0,-1.11622 -0.74414,-1.71153 -0.744141,-0.57051 -2.158008,-0.57051 -1.389063,0 -2.133203,0.57051 z m -6.77168,0 q -0.74414,0.59531 -0.74414,1.71153 0,1.0914 0.74414,1.66191 0.719336,0.59531 2.133203,0.59531 1.413867,0 2.158008,-0.59531 0.719336,-0.57051 0.719336,-1.66191 0,-1.11622 -0.719336,-1.71153 -0.744141,-0.57051 -2.158008,-0.57051 -1.413867,0 -2.133203,0.57051 z m -3.819922,0 q -0.297656,0.59531 -0.297656,1.71153 0,1.0914 0.297656,1.66191 0.297657,0.59531 0.868164,0.59531 0.595313,0 0.892969,-0.59531 0.297656,-0.57051 0.297656,-1.66191 0,-1.11622 -0.297656,-1.71153 -0.297656,-0.5457 -0.892969,-0.5457 -0.570507,0 -0.868164,0.5457 z m 16.941602,10.19473 q -0.297657,0.57051 -0.297657,1.68672 0,1.11621 0.297657,1.68672 0.272851,0.5705 0.868164,0.5705 0.595312,0 0.892968,-0.5705 0.297657,-0.57051 0.297657,-1.68672 0,-1.11621 -0.297657,-1.68672 -0.297656,-0.5457 -0.892968,-0.5457 -0.595313,0 -0.868164,0.5457 z m -16.941602,0 q -0.297656,0.57051 -0.297656,1.68672 0,1.11621 0.297656,1.68672 0.297657,0.5705 0.868164,0.5705 0.595313,0 0.892969,-0.5705 0.297656,-0.57051 0.297656,-1.68672 0,-1.11621 -0.297656,-1.68672 -0.297656,-0.5457 -0.892969,-0.5457 -0.570507,0 -0.868164,0.5457 z m 3.819922,0 q -0.74414,0.59531 -0.74414,1.78594 0,1.19062 0.74414,1.5875 0.694531,0.39687 2.182813,0.39687 1.513085,0 2.108398,-0.39687 0.570508,-0.39688 0.644922,-1.5875 0.07441,-1.19063 -0.644922,-1.78594 -0.744141,-0.57051 -2.158008,-0.57051 -1.413867,0 -2.133203,0.57051 z m 6.77168,0 q -0.744141,0.59531 -0.744141,1.78594 0,1.19062 0.744141,1.5875 0.719336,0.39687 2.133203,0.39687 1.438672,0 2.158008,-0.39687 0.694531,-0.39688 0.719336,-1.5875 0.0248,-1.19063 -0.719336,-1.78594 -0.744141,-0.57051 -2.158008,-0.57051 -1.389063,0 -2.133203,0.57051 z m 3.249414,-5.06016 q -0.818555,0.59531 -0.818555,1.71153 0,1.0914 0.818555,1.66191 0.768945,0.59531 2.282031,0.59531 1.513086,0 2.306836,-0.59531 0.79375,-0.57051 0.79375,-1.66191 0,-1.11622 -0.79375,-1.71153 -0.79375,-0.57051 -2.306836,-0.57051 -1.513086,0 -2.282031,0.57051 z m -6.672461,0 q -0.768945,0.59531 -0.768945,1.71153 0,1.0914 0.768945,1.66191 0.74414,0.59531 2.158008,0.59531 1.438672,0 2.207617,-0.59531 0.74414,-0.57051 0.74414,-1.66191 0,-1.11622 -0.74414,-1.71153 -0.768945,-0.57051 -2.207617,-0.57051 -1.413868,0 -2.158008,0.57051 z m -6.895703,0 q -0.818555,0.59531 -0.818555,1.71153 0,1.0914 0.818555,1.66191 0.768945,0.59531 2.257226,0.59531 1.513086,0 2.331641,-0.59531 0.79375,-0.57051 0.79375,-1.66191 0,-1.11622 -0.79375,-1.71153 -0.818555,-0.57051 -2.331641,-0.57051 -1.488281,0 -2.257226,0.57051 z"
         style="stroke-width:0.26458332"
         id="path36"
         inkscape:connector-curvature="0" />
    </g>
    <path
       style="fill:#ffffff;stroke-width:0.03340874"
       d="m 11.026156,290.09329 v -1.87089 h 14.365782 14.365783 v 1.87089 1.87089 H 25.391938 11.026156 Z"
       id="path39"
       inkscape:connector-curvature="0" />
    <path
       style="fill:#ffffff;stroke-width:0.03340874"
       d="m 12.737603,285.87589 0.0091,-0.60926 1.670439,-0.88937 1.670441,-0.88937 0.785106,-0.0547 c 2.207262,-0.15384 3.606247,-0.21186 6.305865,-0.26154 3.630101,-0.0668 7.377404,0.0278 10.999893,0.27781 l 0.551244,0.038 0.835219,0.44612 c 0.45937,0.24536 1.214505,0.64547 1.678074,0.88913 l 0.842857,0.44301 7.94e-4,0.6097 7.94e-4,0.60971 H 25.40789 12.728497 Z"
       id="path41"
       inkscape:connector-curvature="0" />
    <path
       style="fill:#ffffff;stroke-width:0.03340874"
       d="m 21.372927,282.17495 c -0.641407,-0.0578 -1.186189,-0.19762 -1.51495,-0.38889 -0.181061,-0.10534 -0.414168,-0.35743 -0.504956,-0.54607 -0.139713,-0.29031 -0.188591,-0.55667 -0.186982,-1.01897 0.0026,-0.7377 0.172699,-1.21617 0.574947,-1.61695 0.483809,-0.48204 1.203292,-0.70476 2.276664,-0.70476 1.06832,0 1.86064,0.24504 2.289266,0.70801 0.399915,0.43195 0.548285,0.97076 0.480638,1.74545 -0.06571,0.75254 -0.312361,1.27327 -0.712469,1.50419 -0.187707,0.10834 -0.543545,0.21262 -0.921536,0.27006 -0.400839,0.0609 -1.352111,0.0865 -1.780622,0.0479 z"
       id="path43"
       inkscape:connector-curvature="0" />
    <path
       style="fill:#ffffff;stroke-width:0.03340874"
       d="m 28.138713,282.17635 c -0.442924,-0.0398 -0.710125,-0.0911 -1.063485,-0.2043 -0.605181,-0.19386 -0.894717,-0.47816 -1.070206,-1.05087 -0.08545,-0.27886 -0.08531,-1.10755 2.39e-4,-1.41555 0.298882,-1.07608 1.209384,-1.60564 2.761842,-1.60632 1.651758,-7.9e-4 2.590111,0.55389 2.82591,1.67024 0.06821,0.32294 0.04684,1.09595 -0.03787,1.36976 -0.22092,0.71409 -0.611904,0.99788 -1.612526,1.1704 -0.435455,0.0751 -1.33856,0.10844 -1.803904,0.0666 z"
       id="path45"
       inkscape:connector-curvature="0" />
    <path
       style="fill:#ffffff;stroke-width:0.03340874"
       d="m 33.549458,282.31223 c -0.464751,-0.1605 -0.725692,-0.71738 -0.810311,-1.72928 -0.02671,-0.31941 -0.02676,-0.56741 -1.98e-4,-0.90554 0.09569,-1.2179 0.443818,-1.751 1.141996,-1.7488 0.666953,0.002 1.021667,0.50144 1.134941,1.59766 0.05159,0.49933 0.02114,1.25505 -0.0677,1.68031 -0.190183,0.9103 -0.729646,1.33673 -1.398731,1.10565 z"
       id="path47"
       inkscape:connector-curvature="0" />
    <path
       style="fill:#ffffff;stroke-width:0.03340874"
       d="m 16.626808,282.32136 c -0.207426,-0.0637 -0.444988,-0.29679 -0.568419,-0.5577 -0.282298,-0.59673 -0.364192,-1.77867 -0.185072,-2.67107 0.160167,-0.79797 0.497576,-1.16578 1.067758,-1.16398 0.727141,0.002 1.095939,0.61706 1.15476,1.92492 0.04902,1.08986 -0.15363,1.94295 -0.542948,2.28564 -0.252486,0.22224 -0.583581,0.28739 -0.926079,0.18219 z"
       id="path49"
       inkscape:connector-curvature="0" />
    <path
       style="fill:#ffffff;stroke-width:0.03340874"
       d="m 17.824846,277.29535 c -0.573138,-0.0777 -1.072747,-0.26412 -1.472409,-0.54931 -0.549811,-0.39234 -0.814933,-0.93019 -0.814933,-1.65325 0,-1.18584 0.731908,-1.9489 2.103594,-2.19312 0.430379,-0.0766 1.460439,-0.077 1.909512,-7.9e-4 0.713121,0.12114 1.216876,0.34316 1.566544,0.69042 0.254665,0.25291 0.439243,0.58132 0.518286,0.92214 0.06927,0.29868 0.06864,0.89835 -0.0012,1.16594 -0.210331,0.80568 -0.850762,1.32746 -1.907351,1.55397 -0.381469,0.0818 -1.494595,0.1192 -1.902025,0.0639 z"
       id="path51"
       inkscape:connector-curvature="0" />
    <path
       style="fill:#ffffff;stroke-width:0.03340874"
       d="m 24.60345,277.28252 c -1.123907,-0.17459 -1.885621,-0.78089 -2.069159,-1.64698 -0.06953,-0.3281 -0.0625,-0.84646 0.01562,-1.15191 0.195439,-0.76416 0.764325,-1.29541 1.619456,-1.51233 0.815183,-0.20679 1.969621,-0.17903 2.685868,0.0646 0.743541,0.25289 1.193572,0.69801 1.379289,1.36424 0.0992,0.35584 0.107368,0.99412 0.01699,1.32743 -0.183955,0.6785 -0.734439,1.20233 -1.506532,1.43359 -0.542212,0.1624 -1.5205,0.21785 -2.141544,0.12138 z"
       id="path53"
       inkscape:connector-curvature="0" />
    <path
       style="fill:#ffffff;stroke-width:0.03340874"
       d="m 31.334345,277.27977 c -0.412293,-0.0642 -0.678669,-0.13872 -0.95916,-0.26817 -0.89214,-0.41175 -1.313332,-1.09603 -1.263329,-2.05245 0.0312,-0.59667 0.188578,-0.96794 0.575196,-1.35692 0.42574,-0.42834 1.049397,-0.66736 1.952332,-0.74823 0.696572,-0.0624 1.520298,0.006 2.056036,0.16972 0.794396,0.24336 1.319622,0.75594 1.506384,1.47012 0.06891,0.26352 0.07714,0.87336 0.01529,1.13349 -0.22064,0.92806 -1.027221,1.51151 -2.307309,1.66901 -0.383745,0.0472 -1.22273,0.0384 -1.575448,-0.0166 z"
       id="path55"
       inkscape:connector-curvature="0" />
    <path
       style="fill:#ffffff;stroke-width:0.03340874"
       d="m 33.510275,272.13311 c -0.288873,-0.12478 -0.549422,-0.52449 -0.668184,-1.02508 -0.22516,-0.94906 -0.122631,-2.34082 0.214478,-2.91147 0.193414,-0.32739 0.434505,-0.46373 0.821203,-0.46437 0.58581,-9.8e-4 0.919427,0.37685 1.091783,1.23644 0.09002,0.44895 0.08209,1.57919 -0.01421,2.02507 -0.122912,0.56918 -0.367763,0.96808 -0.68995,1.12405 -0.174065,0.0843 -0.576654,0.0924 -0.755135,0.0154 z"
       id="path57"
       inkscape:connector-curvature="0" />
    <path
       style="fill:#ffffff;stroke-width:0.03340874"
       d="m 28.382025,272.17986 c -1.331578,-0.0767 -2.213162,-0.7038 -2.405978,-1.71155 -0.207349,-1.08371 0.207224,-2.01251 1.08633,-2.43377 0.553984,-0.26546 1.021147,-0.34175 1.936336,-0.31622 0.52135,0.0145 0.672342,0.031 0.953527,0.10394 1.091862,0.28319 1.654309,0.93824 1.710888,1.99256 0.04142,0.77188 -0.212088,1.39603 -0.727956,1.79223 -0.589689,0.45291 -1.415932,0.63828 -2.553147,0.57281 z"
       id="path59"
       inkscape:connector-curvature="0" />
    <path
       style="fill:#ffffff;stroke-width:0.03340874"
       d="m 21.60004,272.17986 c -1.075522,-0.0619 -1.861203,-0.48576 -2.222665,-1.19901 -0.157248,-0.31029 -0.211099,-0.56985 -0.210858,-1.0163 2.58e-4,-0.47498 0.05816,-0.74745 0.232362,-1.09336 0.306575,-0.60878 0.946102,-0.99476 1.867073,-1.12686 0.300639,-0.0431 1.200927,-0.0433 1.503396,-2.9e-4 0.702676,0.0999 1.153799,0.29727 1.52101,0.66544 0.279186,0.27992 0.418493,0.52808 0.51662,0.92031 0.07628,0.30491 0.07873,0.91801 0.0049,1.22777 -0.277735,1.16532 -1.3901,1.72718 -3.211839,1.6223 z"
       id="path61"
       inkscape:connector-curvature="0" />
    <path
       style="fill:#ffffff;stroke-width:0.03340874"
       d="m 16.546545,272.11569 c -0.17781,-0.088 -0.381628,-0.3165 -0.493754,-0.55351 -0.218488,-0.46185 -0.317255,-1.26456 -0.253857,-2.06317 0.09652,-1.21585 0.444963,-1.76507 1.121726,-1.76806 0.542586,-0.002 0.877556,0.31679 1.052503,1.00294 0.168932,0.66256 0.175506,1.72403 0.01476,2.38326 -0.126124,0.51725 -0.426795,0.93557 -0.739854,1.02937 -0.214891,0.0644 -0.537851,0.0502 -0.701525,-0.0308 z"
       id="path63"
       inkscape:connector-curvature="0" />
    <path
       style="fill:#ffffff;stroke-width:0.03340874"
       d="m 17.958481,267.14066 c -0.857345,-0.097 -1.461398,-0.36506 -1.914929,-0.84988 -0.34265,-0.3663 -0.506048,-0.81435 -0.506048,-1.38764 0,-1.24525 0.8428,-2.03432 2.35416,-2.20407 0.663583,-0.0745 1.510814,-0.027 2.076418,0.11647 0.504268,0.12792 0.849438,0.31214 1.150407,0.614 0.415428,0.41664 0.568449,0.81366 0.567964,1.4736 -4.76e-4,0.66212 -0.153186,1.0581 -0.567964,1.47283 -0.378857,0.37881 -0.834835,0.58846 -1.556385,0.71558 -0.363346,0.064 -1.235673,0.0907 -1.603623,0.0491 z"
       id="path65"
       inkscape:connector-curvature="0" />
    <path
       style="fill:#ffffff;stroke-width:0.03340874"
       d="m 24.907511,267.1515 c -1.207459,-0.11019 -2.012043,-0.62673 -2.311473,-1.48394 -0.105056,-0.30076 -0.141496,-0.86034 -0.07933,-1.21815 0.201889,-1.162 1.204458,-1.78411 2.875228,-1.78411 0.766411,0 1.31999,0.10703 1.831788,0.35416 0.521498,0.25181 0.873225,0.67922 1.02777,1.24891 0.08098,0.29852 0.08118,0.97063 2.64e-4,1.26715 -0.207879,0.76287 -0.764453,1.26819 -1.64052,1.48944 -0.493727,0.12469 -1.172066,0.17507 -1.703849,0.12654 z"
       id="path67"
       inkscape:connector-curvature="0" />
    <path
       style="fill:#ffffff;stroke-width:0.03340874"
       d="m 31.689497,267.15489 c -0.915501,-0.0935 -1.505246,-0.31975 -1.973545,-0.75709 -0.196585,-0.18359 -0.276114,-0.28842 -0.382408,-0.50408 -0.227522,-0.46162 -0.288045,-0.95944 -0.180524,-1.48477 0.08225,-0.40184 0.219629,-0.65047 0.530196,-0.95958 0.524644,-0.52219 1.134963,-0.73271 2.240141,-0.7727 1.307715,-0.0473 2.217419,0.19587 2.766506,0.73957 0.384165,0.38041 0.56486,0.84223 0.568692,1.45349 0.0027,0.4358 -0.04719,0.67603 -0.2122,1.02113 -0.101957,0.21324 -0.179853,0.31791 -0.373413,0.50177 -0.134519,0.12778 -0.331568,0.28142 -0.437883,0.34142 -0.251594,0.14199 -0.698818,0.29052 -1.075721,0.35726 -0.292307,0.0518 -1.200813,0.0911 -1.469841,0.0636 z"
       id="path69"
       inkscape:connector-curvature="0" />
    <path
       style="fill:#ffffff;stroke-width:0.03340874"
       d="m 15.518074,260.99925 c -0.412517,-0.48664 -0.745845,-0.88898 -0.740727,-0.8941 0.01783,-0.0178 1.215182,-0.21091 1.928304,-0.31095 1.981921,-0.27802 4.057255,-0.45548 6.313555,-0.53986 1.320056,-0.0494 4.751677,-0.021 5.964179,0.0493 2.459384,0.14257 4.910297,0.41378 6.857139,0.75881 l 0.208785,0.037 -0.09646,0.12172 c -0.05305,0.0669 -0.372518,0.46788 -0.709919,0.89097 l -0.613457,0.76926 -0.734993,-0.10617 c -1.826488,-0.26383 -3.802763,-0.43306 -6.030289,-0.51636 -1.195203,-0.0447 -4.869018,-0.0231 -5.81313,0.0342 -2.158626,0.13097 -3.839368,0.29669 -5.388784,0.5313 l -0.39417,0.0597 z"
       id="path71"
       inkscape:connector-curvature="0" />
    <path
       style="fill:#ffffff;stroke-width:0.03340874"
       d="m 12.730004,254.47963 v -3.14042 h 1.25253 1.252529 l 0.0087,1.7289 0.0087,1.7289 4.25127,0.008 4.251268,0.008 v -1.72068 -1.72067 h 1.653737 1.653733 v 1.72055 1.72054 h 4.259622 4.259623 v -1.73725 -1.73725 h 1.25283 1.25283 v 3.14282 3.14282 l -0.175399,-0.0193 c -0.766727,-0.0844 -4.267292,-0.30538 -6.12216,-0.38653 -2.060037,-0.0901 -2.723407,-0.10536 -5.362111,-0.12315 -4.154096,-0.028 -5.781563,0.0311 -12.603677,0.45782 -0.583516,0.0365 -1.068362,0.0663 -1.077435,0.0663 -0.0091,0 -0.0165,-1.41318 -0.0165,-3.14041 z"
       id="path73"
       inkscape:connector-curvature="0" />
  </g>
</svg>
