<svg xmlns="http://www.w3.org/2000/svg" width="50" height="50" viewBox="0 0 13.229 13.229"><g style="line-height:125%;-inkscape-font-specification:'Noto Sans JP, Normal';font-variant-ligatures:normal;font-variant-caps:normal;font-variant-numeric:normal;font-variant-east-asian:normal"><g style="line-height:125%;-inkscape-font-specification:'Noto Sans JP, weight=250';font-variant-ligatures:normal;font-variant-caps:normal;font-variant-numeric:normal;font-variant-east-asian:normal" aria-label="玉" font-weight="400" font-size="12.7" font-family="Noto Sans JP" letter-spacing="0" word-spacing="0" stroke="#000" stroke-width=".265" stroke-linecap="round" stroke-linejoin="round"><path d="M3.795 6.113c-.622.99-1.625 1.968-2.59 2.642.152.076.418.279.533.368.927-.686 1.981-1.753 2.667-2.82zM9.447 7.89c-.94 2.413-3.264 3.556-7.328 3.937.14.165.254.394.317.584 4.153-.482 6.63-1.727 7.608-4.305zm-.394-1.448c.965.775 2.07 1.892 2.54 2.667l.508-.368c-.495-.762-1.6-1.854-2.578-2.616zM6.907 4.97V3.04h4.09v-.572h-4.09V.817h-.623V4.97H3.592V1.91h-.61v3.06H1.027v.584h5.27v3.264c0 .165-.05.203-.241.216-.216.013-.877.013-1.715-.013.09.165.178.394.216.559 1.003 0 1.613 0 1.918-.102.343-.088.432-.279.432-.66V5.554h5.296V4.97z" style="-inkscape-font-specification:'Noto Sans JP, weight=250';font-variant-ligatures:normal;font-variant-caps:normal;font-variant-numeric:normal;font-variant-east-asian:normal" aria-label="歩" font-weight="300" stroke-width=".2"/></g></g></svg>