<svg xmlns="http://www.w3.org/2000/svg" width="50" height="50" viewBox="0 0 13.229 13.229"><g style="line-height:125%;-inkscape-font-specification:'Noto Sans JP, Normal';font-variant-ligatures:normal;font-variant-caps:normal;font-variant-numeric:normal;font-variant-east-asian:normal"><g style="line-height:125%;-inkscape-font-specification:'Noto Sans JP, weight=250';font-variant-ligatures:normal;font-variant-caps:normal;font-variant-numeric:normal;font-variant-east-asian:normal" aria-label="玉" font-weight="400" font-size="12.7" font-family="Noto Sans JP" letter-spacing="0" word-spacing="0" stroke="#000" stroke-width=".265" stroke-linecap="round" stroke-linejoin="round"><path d="M3.389 5.35V3.93H9.7V5.35zM9.7 1.948v1.486H3.389V1.947zm.597-1.016H9.7v.496H3.389v-.47h-.61v4.915h7.519zM1.039 8.92v.571h5.296v1.664c-1.473.178-2.857.394-3.899.66l.508.483c1.816-.495 5.347-.838 8.255-.99a2.862 2.862 0 01-.165-.534c-1.308.076-2.73.178-4.09.317v-1.6h5.246V8.92H7.77c1.143-1.334 2.997-2.591 4.61-3.2a1.88 1.88 0 01-.419-.483c-1.689.71-3.695 2.159-4.877 3.683h-.14V6.253h-.609V8.92h-.152C4.976 7.497 2.944 6.1 1.268 5.414a1.741 1.741 0 01-.42.496c1.588.571 3.468 1.778 4.636 3.01z" style="-inkscape-font-specification:'Noto Sans JP, weight=250';font-variant-ligatures:normal;font-variant-caps:normal;font-variant-numeric:normal;font-variant-east-asian:normal" aria-label="香" font-weight="300" stroke-width=".2"/></g></g></svg>