<svg xmlns="http://www.w3.org/2000/svg" width="50" height="50" viewBox="0 0 13.229 13.229"><g style="line-height:125%;-inkscape-font-specification:'Noto Sans JP, Normal';font-variant-ligatures:normal;font-variant-caps:normal;font-variant-numeric:normal;font-variant-east-asian:normal"><g style="line-height:125%;-inkscape-font-specification:'Noto Sans JP, weight=250';font-variant-ligatures:normal;font-variant-caps:normal;font-variant-numeric:normal;font-variant-east-asian:normal" aria-label="玉" font-weight="400" font-size="12.7" font-family="Noto Sans JP" letter-spacing="0" word-spacing="0" stroke="#000" stroke-width=".265" stroke-linecap="round" stroke-linejoin="round"><path d="M11.688 1.331c-.863.724-1.27 1.969-1.524 3.137l.534.14c.216-1.105.66-2.273 1.486-2.946zm-2.82 2.921c-.202-.8-.342-1.803-.355-2.476l-.571.089c.025.673.19 1.676.406 2.464zm-2.17.102c-.356-.711-.674-1.664-.788-2.235l-.521.165c.102.559.445 1.486.8 2.172zM9.96 7.351H6.608V5.827h3.353zm-3.353 4.115V9.942h3.353v1.524zm0-3.581h3.353v1.51H6.608zm-.597-2.058v1.524h-3.81v.534h3.81v1.51h-3.81v.547h3.81v1.524H1.77v.559h8.788V5.268H1.693c.165-2.26.343-3.137.623-3.39.089-.115.216-.128.457-.128.228 0 .902 0 1.6.077a1.514 1.514 0 01-.165-.572c-.673-.05-1.334-.063-1.664-.038-.33 0-.546.076-.75.267-.342.368-.532 1.359-.723 4.038a6.927 6.927 0 00-.025.305zM2.963 3.071c.204.457.724 1.169 1.22 1.677l.457-.216c-.483-.52-1.004-1.258-1.207-1.727z" style="-inkscape-font-specification:'Noto Sans JP, weight=250';font-variant-ligatures:normal;font-variant-caps:normal;font-variant-numeric:normal;font-variant-east-asian:normal" aria-label="馬" font-weight="300" stroke-width=".2"/></g></g></svg>