<svg xmlns="http://www.w3.org/2000/svg" width="100" height="100" version="1.0"><path d="M153.814 30.508c0 7.957-6.45 14.407-14.407 14.407S125 38.465 125 30.508c0-7.956 6.45-14.406 14.407-14.406 7.956 0 14.407 6.45 14.407 14.406z" style="fill:#fff;fill-opacity:1;stroke:#000;stroke-width:3.00283241;stroke-linecap:round;stroke-linejoin:round;stroke-miterlimit:4;stroke-opacity:1;stroke-dasharray:none" transform="matrix(-.99906 0 0 .99906 157.834 49.781)"/><path d="M153.814 30.508c0 7.957-6.45 14.407-14.407 14.407S125 38.465 125 30.508c0-7.956 6.45-14.406 14.407-14.406 7.956 0 14.407 6.45 14.407 14.406z" style="fill:#fff;fill-opacity:1;stroke:#000;stroke-width:3.00283241;stroke-linecap:round;stroke-linejoin:round;stroke-miterlimit:4;stroke-opacity:1;stroke-dasharray:none" transform="matrix(-.99906 0 0 .99906 219.275 -11.66)"/><path d="M-43.397 56.052h88.691v28.521h-88.691z" style="fill:#fff;fill-opacity:1;stroke:#000;stroke-width:2.8685081;stroke-linecap:round;stroke-linejoin:miter;stroke-miterlimit:4;stroke-opacity:1;stroke-dasharray:none" transform="scale(-1 1) rotate(45 .31 .743)"/><path d="M153.814 30.508c0 7.957-6.45 14.407-14.407 14.407S125 38.465 125 30.508c0-7.956 6.45-14.406 14.407-14.406 7.956 0 14.407 6.45 14.407 14.406z" style="fill:#fff;fill-opacity:1;stroke:#000;stroke-width:3.00283241;stroke-linecap:round;stroke-linejoin:round;stroke-miterlimit:4;stroke-opacity:1;stroke-dasharray:none" transform="translate(-58.96 50.027) scale(.99906)"/><path d="M153.814 30.508c0 7.957-6.45 14.407-14.407 14.407S125 38.465 125 30.508c0-7.956 6.45-14.406 14.407-14.406 7.956 0 14.407 6.45 14.407 14.406z" style="fill:#fff;fill-opacity:1;stroke:#000;stroke-width:3.00283241;stroke-linecap:round;stroke-linejoin:round;stroke-miterlimit:4;stroke-opacity:1;stroke-dasharray:none" transform="translate(-120.4 -11.413) scale(.99906)"/><path d="M27.564-14.56h88.691v28.521H27.564z" style="fill:#fff;fill-opacity:1;stroke:#000;stroke-width:2.8685081;stroke-linecap:round;stroke-linejoin:miter;stroke-miterlimit:4;stroke-opacity:1;stroke-dasharray:none" transform="rotate(45 -.306 -.744)"/><path d="M38.132-11.612h66.931v22.739H38.132z" style="fill:#fff;fill-opacity:1;stroke:#fff;stroke-width:3.01831746;stroke-linecap:round;stroke-linejoin:miter;stroke-miterlimit:4;stroke-opacity:1;stroke-dasharray:none" transform="rotate(45 -.306 -.744)"/><path d="M94.98 80.974c0 5.874-4.762 10.637-10.637 10.637-5.874 0-10.636-4.763-10.636-10.637 0-5.874 4.762-10.637 10.636-10.637 5.875 0 10.637 4.763 10.637 10.637z" style="fill:#fff;fill-opacity:1;stroke:#fff;stroke-width:3;stroke-linecap:round;stroke-linejoin:miter;stroke-miterlimit:4;stroke-opacity:1;stroke-dasharray:none" transform="translate(-8.968 -5.448) scale(1.06172)"/><path d="M94.98 80.974c0 5.874-4.762 10.637-10.637 10.637-5.874 0-10.636-4.763-10.636-10.637 0-5.874 4.762-10.637 10.636-10.637 5.875 0 10.637 4.763 10.637 10.637z" style="fill:#fff;fill-opacity:1;stroke:#fff;stroke-width:3;stroke-linecap:round;stroke-linejoin:miter;stroke-miterlimit:4;stroke-opacity:1;stroke-dasharray:none" transform="translate(-70.99 -67.17) scale(1.06172)"/><path d="m17.658 17.658 18.074 18.074m29.595 29.172 18.074 18.074" style="fill:none;stroke:#000;stroke-width:3;stroke-linecap:round;stroke-linejoin:miter;stroke-miterlimit:4;stroke-opacity:1;stroke-dasharray:none" transform="translate(-.616 -.001)"/><path d="M38.132-11.612h66.931v22.739H38.132z" style="fill:#fff;fill-opacity:1;stroke:#fff;stroke-width:3.01831746;stroke-linecap:round;stroke-linejoin:miter;stroke-miterlimit:4;stroke-opacity:1;stroke-dasharray:none" transform="scale(1 -1) rotate(45 119.514 -50.587)"/><path d="M94.98 80.974c0 5.874-4.762 10.637-10.637 10.637-5.874 0-10.636-4.763-10.636-10.637 0-5.874 4.762-10.637 10.636-10.637 5.875 0 10.637 4.763 10.637 10.637z" style="fill:#fff;fill-opacity:1;stroke:#fff;stroke-width:3;stroke-linecap:round;stroke-linejoin:miter;stroke-miterlimit:4;stroke-opacity:1;stroke-dasharray:none" transform="matrix(1.06172 0 0 -1.06172 -9.117 104.773)"/><path d="M94.98 80.974c0 5.874-4.762 10.637-10.637 10.637-5.874 0-10.636-4.763-10.636-10.637 0-5.874 4.762-10.637 10.636-10.637 5.875 0 10.637 4.763 10.637 10.637z" style="fill:#fff;fill-opacity:1;stroke:#fff;stroke-width:3;stroke-linecap:round;stroke-linejoin:miter;stroke-miterlimit:4;stroke-opacity:1;stroke-dasharray:none" transform="matrix(1.06172 0 0 -1.06172 -71.14 166.495)"/><path d="M82.45 17.412 64.374 35.486M34.78 64.657 16.706 82.731" style="fill:none;stroke:#000;stroke-width:3;stroke-linecap:round;stroke-linejoin:miter;stroke-miterlimit:4;stroke-opacity:1;stroke-dasharray:none" transform="translate(-.616 -.001)"/><path d="M-11.386 43.821a4.345 4.345 0 1 1-8.689 0 4.345 4.345 0 1 1 8.69 0z" style="fill:#000;fill-opacity:1;stroke:#000;stroke-width:3;stroke-linecap:round;stroke-linejoin:miter;stroke-miterlimit:4;stroke-opacity:1;stroke-dasharray:none" transform="translate(65.317 5.992)"/></svg>