<svg xmlns="http://www.w3.org/2000/svg" width="100" height="100" version="1.0"><path d="M18.927-64.368h60.72v29.015h-60.72z" style="fill:#fff;fill-opacity:1;stroke:#000;stroke-width:2.8895;stroke-linecap:round;stroke-linejoin:miter;stroke-miterlimit:4;stroke-dasharray:none;stroke-opacity:1" transform="matrix(0 -1 -1 0 0 99.213)"/><path d="M153.814 30.508a14.407 14.407 0 1 1-28.814 0 14.407 14.407 0 1 1 28.814 0z" style="fill:#fff;fill-opacity:1;stroke:#000;stroke-width:3.00283;stroke-linecap:round;stroke-linejoin:round;stroke-miterlimit:4;stroke-dasharray:none;stroke-opacity:1" transform="rotate(180 94.506 24.584) scale(.99906)"/><path d="M-80.254-63.579h60.734v28.729h-60.734Z" style="fill:#fff;fill-opacity:1;stroke:#000;stroke-width:2.87557;stroke-linecap:round;stroke-linejoin:miter;stroke-miterlimit:4;stroke-dasharray:none;stroke-opacity:1" transform="matrix(-1 0 0 1 0 99.213)"/><path d="M153.814 30.508a14.407 14.407 0 1 1-28.814 0 14.407 14.407 0 1 1 28.814 0z" style="fill:#fff;fill-opacity:1;stroke:#000;stroke-width:3.00283;stroke-linecap:round;stroke-linejoin:round;stroke-miterlimit:4;stroke-dasharray:none;stroke-opacity:1" transform="rotate(180 109.936 40.314) scale(.99906)"/><path d="M153.814 30.508a14.407 14.407 0 1 1-28.814 0 14.407 14.407 0 1 1 28.814 0z" style="fill:#fff;fill-opacity:1;stroke:#000;stroke-width:3.00283;stroke-linecap:round;stroke-linejoin:round;stroke-miterlimit:4;stroke-dasharray:none;stroke-opacity:1" transform="rotate(180 79.225 40.164) scale(.99906)"/><path d="M153.814 30.508a14.407 14.407 0 1 1-28.814 0 14.407 14.407 0 1 1 28.814 0z" style="fill:#fff;fill-opacity:1;stroke:#000;stroke-width:3.00283;stroke-linecap:round;stroke-linejoin:round;stroke-miterlimit:4;stroke-dasharray:none;stroke-opacity:1" transform="rotate(180 79.085 24.781) scale(.99906)"/><path d="M153.814 30.508a14.407 14.407 0 1 1-28.814 0 14.407 14.407 0 1 1 28.814 0z" style="fill:#fff;fill-opacity:1;stroke:#000;stroke-width:3.00283;stroke-linecap:round;stroke-linejoin:round;stroke-miterlimit:4;stroke-dasharray:none;stroke-opacity:1" transform="rotate(180 109.805 55.502) scale(.99906)"/><path d="M-43.293 55.76h88.691v28.521h-88.691Z" style="fill:#fff;fill-opacity:1;stroke:#000;stroke-width:2.86851;stroke-linecap:round;stroke-linejoin:miter;stroke-miterlimit:4;stroke-dasharray:none;stroke-opacity:1" transform="rotate(-135 20.548 49.606)"/><path d="M153.814 30.508a14.407 14.407 0 1 1-28.814 0 14.407 14.407 0 1 1 28.814 0z" style="fill:#fff;fill-opacity:1;stroke:#000;stroke-width:3.00283;stroke-linecap:round;stroke-linejoin:round;stroke-miterlimit:4;stroke-dasharray:none;stroke-opacity:1" transform="matrix(.99906 0 0 -.99906 -58.623 49.318)"/><path d="M153.814 30.508a14.407 14.407 0 1 1-28.814 0 14.407 14.407 0 1 1 28.814 0z" style="fill:#fff;fill-opacity:1;stroke:#000;stroke-width:3.00283;stroke-linecap:round;stroke-linejoin:round;stroke-miterlimit:4;stroke-dasharray:none;stroke-opacity:1" transform="matrix(.99906 0 0 -.99906 -120.064 110.758)"/><path d="M27.272-14.457h88.691v28.521H27.272Z" style="fill:#fff;fill-opacity:1;stroke:#000;stroke-width:2.86851;stroke-linecap:round;stroke-linejoin:miter;stroke-miterlimit:4;stroke-dasharray:none;stroke-opacity:1" transform="scale(1 -1) rotate(45 119.76 -49.606)"/><path d="M38.132-11.612h66.931v22.739H38.132Z" style="fill:#fff;fill-opacity:1;stroke:#fff;stroke-width:3.01832;stroke-linecap:round;stroke-linejoin:miter;stroke-miterlimit:4;stroke-dasharray:none;stroke-opacity:1" transform="scale(1 -1) rotate(45 119.781 -50.01)"/><path d="M94.98 80.974c0 5.874-4.762 10.637-10.637 10.637-5.874 0-10.636-4.763-10.636-10.637 0-5.874 4.762-10.637 10.636-10.637 5.875 0 10.637 4.763 10.637 10.637z" style="fill:#fff;fill-opacity:1;stroke:#fff;stroke-width:3;stroke-linecap:round;stroke-linejoin:miter;stroke-miterlimit:4;stroke-dasharray:none;stroke-opacity:1" transform="matrix(1.06172 0 0 -1.06172 -8.631 104.793)"/><path d="M94.98 80.974c0 5.874-4.762 10.637-10.637 10.637-5.874 0-10.636-4.763-10.636-10.637 0-5.874 4.762-10.637 10.636-10.637 5.875 0 10.637 4.763 10.637 10.637z" style="fill:#fff;fill-opacity:1;stroke:#fff;stroke-width:3;stroke-linecap:round;stroke-linejoin:miter;stroke-miterlimit:4;stroke-dasharray:none;stroke-opacity:1" transform="matrix(1.06172 0 0 -1.06172 -70.653 166.515)"/><path d="M38.132-11.612h66.931v22.739H38.132Z" style="fill:#fff;fill-opacity:1;stroke:#fff;stroke-width:3.01832;stroke-linecap:round;stroke-linejoin:miter;stroke-miterlimit:4;stroke-dasharray:none;stroke-opacity:1" transform="rotate(45 -.237 -.51)"/><path d="M94.98 80.974c0 5.874-4.762 10.637-10.637 10.637-5.874 0-10.636-4.763-10.636-10.637 0-5.874 4.762-10.637 10.636-10.637 5.875 0 10.637 4.763 10.637 10.637z" style="fill:#fff;fill-opacity:1;stroke:#fff;stroke-width:3;stroke-linecap:round;stroke-linejoin:miter;stroke-miterlimit:4;stroke-dasharray:none;stroke-opacity:1" transform="translate(-8.781 -5.427) scale(1.06172)"/><path d="M94.98 80.974c0 5.874-4.762 10.637-10.637 10.637-5.874 0-10.636-4.763-10.636-10.637 0-5.874 4.762-10.637 10.636-10.637 5.875 0 10.637 4.763 10.637 10.637z" style="fill:#fff;fill-opacity:1;stroke:#fff;stroke-width:3;stroke-linecap:round;stroke-linejoin:miter;stroke-miterlimit:4;stroke-dasharray:none;stroke-opacity:1" transform="translate(-70.803 -67.15) scale(1.06172)"/><path d="M22.548-60.697h56.964v23.224H22.548Z" style="fill:#fff;fill-opacity:1;stroke:#fff;stroke-width:2.81405;stroke-linecap:round;stroke-linejoin:miter;stroke-miterlimit:4;stroke-dasharray:none;stroke-opacity:1" transform="translate(0 99.213)"/><path d="M94.98 80.974a10.637 10.637 0 1 1-21.273 0 10.637 10.637 0 1 1 21.273 0z" style="fill:#fff;fill-opacity:1;stroke:#fff;stroke-width:3;stroke-linecap:round;stroke-linejoin:miter;stroke-miterlimit:4;stroke-dasharray:none;stroke-opacity:1" transform="scale(1.06172 1.07394) rotate(-45 38.323 74.226)"/><path d="M94.98 80.974a10.637 10.637 0 1 1-21.273 0 10.637 10.637 0 1 1 21.273 0z" style="fill:#fff;fill-opacity:1;stroke:#fff;stroke-width:3;stroke-linecap:round;stroke-linejoin:miter;stroke-miterlimit:4;stroke-dasharray:none;stroke-opacity:1" transform="scale(1.06172 1.07394) rotate(-45 9.915 143.491)"/><path d="M22.548-60.697h56.964v23.224H22.548Z" style="fill:#fff;fill-opacity:1;stroke:#fff;stroke-width:2.81405;stroke-linecap:round;stroke-linejoin:miter;stroke-miterlimit:4;stroke-dasharray:none;stroke-opacity:1" transform="rotate(-90 98.89 -.054)"/><path d="M94.98 80.974c0 5.874-4.762 10.637-10.637 10.637-5.874 0-10.636-4.763-10.636-10.637 0-5.874 4.762-10.637 10.636-10.637 5.875 0 10.637 4.763 10.637 10.637z" style="fill:#fff;fill-opacity:1;stroke:#fff;stroke-width:3;stroke-linecap:round;stroke-linejoin:miter;stroke-miterlimit:4;stroke-dasharray:none;stroke-opacity:1" transform="scale(-1.07394 -1.06172) rotate(45 137.883 -125.828)"/><path d="M94.98 80.974c0 5.874-4.762 10.637-10.637 10.637-5.874 0-10.636-4.763-10.636-10.637 0-5.874 4.762-10.637 10.636-10.637 5.875 0 10.637 4.763 10.637 10.637z" style="fill:#fff;fill-opacity:1;stroke:#fff;stroke-width:3;stroke-linecap:round;stroke-linejoin:miter;stroke-miterlimit:4;stroke-dasharray:none;stroke-opacity:1" transform="scale(-1.07394 -1.06172) rotate(45 206.948 -154.718)"/><path d="M83.295 49.064H63.819m-27.115.3H17.228m32.21 33.108V62.997m-32.06-45.472 18.074 18.074M65.048 64.77l18.074 18.074m-.952-65.566L64.094 35.352M34.5 64.524 16.426 82.598" style="fill:none;stroke:#000;stroke-width:3;stroke-linecap:round;stroke-linejoin:miter;stroke-miterlimit:4;stroke-dasharray:none;stroke-opacity:1" transform="matrix(1 0 0 -1 0 99.213)"/><path d="M153.814 30.508a14.407 14.407 0 1 1-28.814 0 14.407 14.407 0 1 1 28.814 0z" style="fill:#fff;fill-opacity:1;stroke:#000;stroke-width:3.00283;stroke-linecap:round;stroke-linejoin:round;stroke-miterlimit:4;stroke-dasharray:none;stroke-opacity:1" transform="rotate(180 94.506 55.295) scale(.99906)"/><path d="M-4.794 38.428a7.94 7.94 0 1 1-15.88 0 7.94 7.94 0 1 1 15.88 0z" style="fill:#000;fill-opacity:1;stroke:#fff;stroke-width:3;stroke-linecap:round;stroke-linejoin:miter;stroke-miterlimit:4;stroke-dasharray:none;stroke-opacity:1" transform="matrix(1.14283 0 0 -1.14283 64.29 124.327)"/></svg>