<svg xmlns="http://www.w3.org/2000/svg" width="100" height="100" version="1.0"><path d="M18.927-64.368h60.72v29.015h-60.72z" style="fill:#fff;fill-opacity:1;stroke:#000;stroke-width:2.88950181;stroke-linecap:round;stroke-linejoin:miter;stroke-miterlimit:4;stroke-opacity:1;stroke-dasharray:none" transform="rotate(90 -.15 -.3)"/><path d="M153.814 30.508c0 7.957-6.45 14.407-14.407 14.407S125 38.465 125 30.508c0-7.956 6.45-14.406 14.407-14.406 7.956 0 14.407 6.45 14.407 14.406z" style="fill:#fff;fill-opacity:1;stroke:#000;stroke-width:3.00283241;stroke-linecap:round;stroke-linejoin:round;stroke-miterlimit:4;stroke-opacity:1;stroke-dasharray:none" transform="matrix(-.99906 0 0 .99906 188.563 -11.527)"/><path d="M153.814 30.508c0 7.957-6.45 14.407-14.407 14.407S125 38.465 125 30.508c0-7.956 6.45-14.406 14.407-14.406 7.956 0 14.407 6.45 14.407 14.406z" style="fill:#fff;fill-opacity:1;stroke:#000;stroke-width:3.00283241;stroke-linecap:round;stroke-linejoin:round;stroke-miterlimit:4;stroke-opacity:1;stroke-dasharray:none" transform="matrix(-.99906 0 0 .99906 188.563 49.895)"/><path d="M-80.254-63.579h60.734v28.729h-60.734z" style="fill:#fff;fill-opacity:1;stroke:#000;stroke-width:2.87557077;stroke-linecap:round;stroke-linejoin:miter;stroke-miterlimit:4;stroke-opacity:1;stroke-dasharray:none" transform="rotate(180 -.225 -.075)"/><path d="M153.814 30.508c0 7.957-6.45 14.407-14.407 14.407S125 38.465 125 30.508c0-7.956 6.45-14.406 14.407-14.406 7.956 0 14.407 6.45 14.407 14.406z" style="fill:#fff;fill-opacity:1;stroke:#000;stroke-width:3.00283241;stroke-linecap:round;stroke-linejoin:round;stroke-miterlimit:4;stroke-opacity:1;stroke-dasharray:none" transform="matrix(-.99906 0 0 .99906 219.424 18.435)"/><path d="M153.814 30.508c0 7.957-6.45 14.407-14.407 14.407S125 38.465 125 30.508c0-7.956 6.45-14.406 14.407-14.406 7.956 0 14.407 6.45 14.407 14.406z" style="fill:#fff;fill-opacity:1;stroke:#000;stroke-width:3.00283241;stroke-linecap:round;stroke-linejoin:round;stroke-miterlimit:4;stroke-opacity:1;stroke-dasharray:none" transform="matrix(-.99906 0 0 .99906 158.002 18.734)"/><path d="M22.548-60.697h56.964v23.224H22.548z" style="fill:#fff;fill-opacity:1;stroke:#fff;stroke-width:2.81404567;stroke-linecap:round;stroke-linejoin:miter;stroke-miterlimit:4;stroke-opacity:1;stroke-dasharray:none" transform="matrix(1 0 0 -1 -.45 -.15)"/><path d="M94.98 80.974c0 5.874-4.762 10.637-10.637 10.637-5.874 0-10.636-4.763-10.636-10.637 0-5.874 4.762-10.637 10.636-10.637 5.875 0 10.637 4.763 10.637 10.637z" style="fill:#fff;fill-opacity:1;stroke:#fff;stroke-width:3;stroke-linecap:round;stroke-linejoin:miter;stroke-miterlimit:4;stroke-opacity:1;stroke-dasharray:none" transform="scale(1.06172 -1.07394) rotate(-45 -73.235 28.616)"/><path d="M94.98 80.974c0 5.874-4.762 10.637-10.637 10.637-5.874 0-10.636-4.763-10.636-10.637 0-5.874 4.762-10.637 10.636-10.637 5.875 0 10.637 4.763 10.637 10.637z" style="fill:#fff;fill-opacity:1;stroke:#fff;stroke-width:3;stroke-linecap:round;stroke-linejoin:miter;stroke-miterlimit:4;stroke-opacity:1;stroke-dasharray:none" transform="scale(1.06172 -1.07394) rotate(-45 -101.643 97.88)"/><path d="M22.548-60.697h56.964v23.224H22.548z" style="fill:#fff;fill-opacity:1;stroke:#fff;stroke-width:2.81404567;stroke-linecap:round;stroke-linejoin:miter;stroke-miterlimit:4;stroke-opacity:1;stroke-dasharray:none" transform="matrix(0 1 1 0 98.494 .226)"/><path d="M94.98 80.974c0 5.874-4.762 10.637-10.637 10.637-5.874 0-10.636-4.763-10.636-10.637 0-5.874 4.762-10.637 10.636-10.637 5.875 0 10.637 4.763 10.637 10.637z" style="fill:#fff;fill-opacity:1;stroke:#fff;stroke-width:3;stroke-linecap:round;stroke-linejoin:miter;stroke-miterlimit:4;stroke-opacity:1;stroke-dasharray:none" transform="scale(-1.07394 1.06172) rotate(45 25.465 -78.67)"/><path d="M94.98 80.974c0 5.874-4.762 10.637-10.637 10.637-5.874 0-10.636-4.763-10.636-10.637 0-5.874 4.762-10.637 10.636-10.637 5.875 0 10.637 4.763 10.637 10.637z" style="fill:#fff;fill-opacity:1;stroke:#fff;stroke-width:3;stroke-linecap:round;stroke-linejoin:miter;stroke-miterlimit:4;stroke-opacity:1;stroke-dasharray:none" transform="scale(-1.07394 1.06172) rotate(45 94.53 -107.56)"/><path d="M83.295 49.064H63.819m-27.115.3H17.228m32.21-12.734V17.155m0 65.317V62.997" style="fill:none;stroke:#000;stroke-width:3;stroke-linecap:round;stroke-linejoin:miter;stroke-miterlimit:4;stroke-opacity:1;stroke-dasharray:none" transform="translate(-.45 -.15)"/><path d="M-11.386 43.821a4.345 4.345 0 1 1-8.689 0 4.345 4.345 0 1 1 8.69 0z" style="fill:#000;fill-opacity:1;stroke:#000;stroke-width:3;stroke-linecap:round;stroke-linejoin:miter;stroke-miterlimit:4;stroke-opacity:1;stroke-dasharray:none" transform="translate(65.317 5.992)"/></svg>