<svg xmlns="http://www.w3.org/2000/svg" width="100" height="100" version="1.0"><path d="M19.114-64.481h60.72v29.015h-60.72z" style="fill:#000;fill-opacity:1;stroke:#000;stroke-width:2.88950181;stroke-linecap:round;stroke-linejoin:miter;stroke-miterlimit:4;stroke-opacity:1;stroke-dasharray:none" transform="rotate(90 .037 -.3)"/><path d="M153.814 30.508c0 7.957-6.45 14.407-14.407 14.407S125 38.465 125 30.508c0-7.956 6.45-14.406 14.407-14.406 7.956 0 14.407 6.45 14.407 14.406z" style="fill:#000;fill-opacity:1;stroke:#000;stroke-width:3.00283241;stroke-linecap:round;stroke-linejoin:round;stroke-miterlimit:4;stroke-opacity:1;stroke-dasharray:none" transform="matrix(-.99906 0 0 .99906 188.863 -11.527)"/><path d="M153.814 30.508c0 7.957-6.45 14.407-14.407 14.407S125 38.465 125 30.508c0-7.956 6.45-14.406 14.407-14.406 7.956 0 14.407 6.45 14.407 14.406z" style="fill:#000;fill-opacity:1;stroke:#000;stroke-width:3.00283241;stroke-linecap:round;stroke-linejoin:round;stroke-miterlimit:4;stroke-opacity:1;stroke-dasharray:none" transform="matrix(-.99906 0 0 .99906 188.863 49.895)"/><path d="M-80.367-63.765h60.734v28.729h-60.734z" style="fill:#000;fill-opacity:1;stroke:#000;stroke-width:2.87557077;stroke-linecap:round;stroke-linejoin:miter;stroke-miterlimit:4;stroke-opacity:1;stroke-dasharray:none" transform="rotate(180 -.131 -.168)"/><path d="M153.814 30.508c0 7.957-6.45 14.407-14.407 14.407S125 38.465 125 30.508c0-7.956 6.45-14.406 14.407-14.406 7.956 0 14.407 6.45 14.407 14.406z" style="fill:#000;fill-opacity:1;stroke:#000;stroke-width:3.00283241;stroke-linecap:round;stroke-linejoin:round;stroke-miterlimit:4;stroke-opacity:1;stroke-dasharray:none" transform="matrix(-.99906 0 0 .99906 219.724 18.435)"/><path d="M153.814 30.508c0 7.957-6.45 14.407-14.407 14.407S125 38.465 125 30.508c0-7.956 6.45-14.406 14.407-14.406 7.956 0 14.407 6.45 14.407 14.406z" style="fill:#000;fill-opacity:1;stroke:#000;stroke-width:3.00283241;stroke-linecap:round;stroke-linejoin:round;stroke-miterlimit:4;stroke-opacity:1;stroke-dasharray:none" transform="matrix(-.99906 0 0 .99906 158.301 18.734)"/><path d="M83.408 49.25H63.932m-27.115.3H17.34m32.21-12.733V17.34m0 65.319V63.183" style="fill:#000;fill-opacity:1;stroke:#fff;stroke-width:3;stroke-linecap:round;stroke-linejoin:miter;stroke-miterlimit:4;stroke-opacity:1;stroke-dasharray:none" transform="translate(-.263 -.336)"/><path d="M-11.386 43.821a4.345 4.345 0 1 1-8.689 0 4.345 4.345 0 1 1 8.69 0z" style="fill:#fff;fill-opacity:1;stroke:#fff;stroke-width:3;stroke-linecap:round;stroke-linejoin:miter;stroke-miterlimit:4;stroke-opacity:1;stroke-dasharray:none" transform="rotate(90 13.783 79.326)"/></svg>