<svg xmlns="http://www.w3.org/2000/svg" width="100" height="100" version="1.0"><path d="M19.062-64.765h60.72v29.015h-60.72z" style="fill:#fff;fill-opacity:1;stroke:#000;stroke-width:2.88950181;stroke-linecap:round;stroke-linejoin:miter;stroke-miterlimit:4;stroke-opacity:1;stroke-dasharray:none" transform="rotate(180 50.142 -.194)"/><path d="M153.814 30.508c0 7.957-6.45 14.407-14.407 14.407S125 38.465 125 30.508c0-7.956 6.45-14.406 14.407-14.406 7.956 0 14.407 6.45 14.407 14.406z" style="fill:#fff;fill-opacity:1;stroke:#000;stroke-width:3.00283241;stroke-linecap:round;stroke-linejoin:round;stroke-miterlimit:4;stroke-opacity:1;stroke-dasharray:none" transform="matrix(0 -.99906 -.99906 0 111.527 189.021)"/><path d="M153.814 30.508c0 7.957-6.45 14.407-14.407 14.407S125 38.465 125 30.508c0-7.956 6.45-14.406 14.407-14.406 7.956 0 14.407 6.45 14.407 14.406z" style="fill:#fff;fill-opacity:1;stroke:#000;stroke-width:3.00283241;stroke-linecap:round;stroke-linejoin:round;stroke-miterlimit:4;stroke-opacity:1;stroke-dasharray:none" transform="matrix(0 -.99906 -.99906 0 50.105 189.021)"/><path d="M31.763 30.193c2.803-3.732 4.414-6.318 4.19-11.765l28.763-.143c.09 4.573 1.245 8.913 4.493 11.907 3.496 3.086 8.19 4.669 12.285 4.79v29.363c-4.775.127-8.808 1.368-11.985 3.892-3.02 2.994-4.583 6.155-4.491 12.284H35.955c-.424-4.968-1.388-9.396-4.192-11.985-1.91-3.245-6.387-4.435-12.284-4.49l-.3-28.465c5.78.027 9.344-2.123 12.584-5.388z" style="fill:#fff;fill-opacity:1;stroke:#000;stroke-width:3.00690365;stroke-linecap:butt;stroke-linejoin:miter;stroke-miterlimit:4;stroke-opacity:1;stroke-dasharray:none" transform="rotate(90 50.336 49.949)"/><path d="M33.765 32.218c2.545-3.39 5.207-6.038 5.003-10.984l22.825-.13c.081 4.153 2.63 8.693 5.579 11.412 3.174 2.803 7.737 4.84 11.455 4.95l-.3 24.269c-4.336.116-8.298 1.841-11.183 4.133-2.742 2.72-5.36 6.19-5.277 11.756l-23.097-.3c-.385-4.512-2.16-8.533-4.705-10.884-1.734-2.947-6.4-5.226-11.756-5.277l-.272-22.853c5.25.024 8.786-3.127 11.728-6.092z" style="fill:#fff;fill-opacity:1;stroke:#fff;stroke-width:2.73069978;stroke-linecap:butt;stroke-linejoin:miter;stroke-miterlimit:4;stroke-opacity:1;stroke-dasharray:none" transform="rotate(90 50.336 49.949)"/><path d="M22.548-60.697h56.964v23.224H22.548z" style="fill:#fff;fill-opacity:1;stroke:#fff;stroke-width:2.81404567;stroke-linecap:round;stroke-linejoin:miter;stroke-miterlimit:4;stroke-opacity:1;stroke-dasharray:none" transform="matrix(-1 0 0 1 99.774 98.952)"/><path d="M94.98 80.974c0 5.874-4.762 10.637-10.637 10.637-5.874 0-10.636-4.763-10.636-10.637 0-5.874 4.762-10.637 10.636-10.637 5.875 0 10.637 4.763 10.637 10.637z" style="fill:#fff;fill-opacity:1;stroke:#fff;stroke-width:3;stroke-linecap:round;stroke-linejoin:miter;stroke-miterlimit:4;stroke-opacity:1;stroke-dasharray:none" transform="scale(-1.06172 1.07394) rotate(-45 -8.957 187.542)"/><path d="M94.98 80.974c0 5.874-4.762 10.637-10.637 10.637-5.874 0-10.636-4.763-10.636-10.637 0-5.874 4.762-10.637 10.636-10.637 5.875 0 10.637 4.763 10.637 10.637z" style="fill:#fff;fill-opacity:1;stroke:#fff;stroke-width:3;stroke-linecap:round;stroke-linejoin:miter;stroke-miterlimit:4;stroke-opacity:1;stroke-dasharray:none" transform="scale(-1.06172 1.07394) rotate(-45 -37.364 256.806)"/><path d="M49.834 36.765V17.29m0 65.317V63.132" style="fill:none;stroke:#000;stroke-width:3;stroke-linecap:round;stroke-linejoin:miter;stroke-miterlimit:4;stroke-opacity:1;stroke-dasharray:none" transform="rotate(90 50.336 49.949)"/></svg>