<svg xmlns="http://www.w3.org/2000/svg" width="100" height="100" version="1.0"><path d="M18.927-64.368h60.72v29.015h-60.72z" style="fill:#000;fill-opacity:1;stroke:#000;stroke-width:2.88950181;stroke-linecap:round;stroke-linejoin:miter;stroke-miterlimit:4;stroke-opacity:1;stroke-dasharray:none" transform="matrix(0 -1 -1 0 0 99.627)"/><path d="M153.814 30.508c0 7.957-6.45 14.407-14.407 14.407S125 38.465 125 30.508c0-7.956 6.45-14.406 14.407-14.406 7.956 0 14.407 6.45 14.407 14.406z" style="fill:#000;fill-opacity:1;stroke:#000;stroke-width:3.00283241;stroke-linecap:round;stroke-linejoin:round;stroke-miterlimit:4;stroke-opacity:1;stroke-dasharray:none" transform="rotate(180 94.506 55.502) scale(.99906)"/><path d="M153.814 30.508c0 7.957-6.45 14.407-14.407 14.407S125 38.465 125 30.508c0-7.956 6.45-14.406 14.407-14.406 7.956 0 14.407 6.45 14.407 14.406z" style="fill:#000;fill-opacity:1;stroke:#000;stroke-width:3.00283241;stroke-linecap:round;stroke-linejoin:round;stroke-miterlimit:4;stroke-opacity:1;stroke-dasharray:none" transform="rotate(180 94.506 24.791) scale(.99906)"/><path d="M153.814 30.508c0 7.957-6.45 14.407-14.407 14.407S125 38.465 125 30.508c0-7.956 6.45-14.406 14.407-14.406 7.956 0 14.407 6.45 14.407 14.406z" style="fill:#000;fill-opacity:1;stroke:#000;stroke-width:3.00283241;stroke-linecap:round;stroke-linejoin:round;stroke-miterlimit:4;stroke-opacity:1;stroke-dasharray:none" transform="rotate(180 79.085 24.989) scale(.99906)"/><path d="M-1.995-84.698h43.382v29.355H-1.995z" style="fill:#000;fill-opacity:1;stroke:#000;stroke-width:2.03528833;stroke-linecap:round;stroke-linejoin:miter;stroke-miterlimit:4;stroke-opacity:1;stroke-dasharray:none" transform="scale(-1 1) rotate(-45 120.26 49.813)"/><path d="M153.814 30.508c0 7.957-6.45 14.407-14.407 14.407S125 38.465 125 30.508c0-7.956 6.45-14.406 14.407-14.406 7.956 0 14.407 6.45 14.407 14.406z" style="fill:#000;fill-opacity:1;stroke:#000;stroke-width:3.00283241;stroke-linecap:round;stroke-linejoin:round;stroke-miterlimit:4;stroke-opacity:1;stroke-dasharray:none" transform="matrix(.99906 0 0 -.99906 -58.623 49.731)"/><path d="M49.438 36.63V17.155M34.5 64.524 16.426 82.598" style="fill:#000;fill-opacity:1;stroke:#fff;stroke-width:3;stroke-linecap:round;stroke-linejoin:miter;stroke-miterlimit:4;stroke-opacity:1;stroke-dasharray:none" transform="matrix(1 0 0 -1 0 99.627)"/><path d="M71.265-14.413h43.382v29.355H71.265z" style="fill:#000;fill-opacity:1;stroke:#000;stroke-width:2.03528833;stroke-linecap:round;stroke-linejoin:miter;stroke-miterlimit:4;stroke-opacity:1;stroke-dasharray:none" transform="rotate(-45 120.26 49.813)"/><path d="M49.438 82.472V62.997m15.61 1.773 18.074 18.074" style="fill:#000;fill-opacity:1;stroke:#fff;stroke-width:3;stroke-linecap:round;stroke-linejoin:miter;stroke-miterlimit:4;stroke-opacity:1;stroke-dasharray:none" transform="matrix(1 0 0 -1 0 99.627)"/></svg>