<svg xmlns="http://www.w3.org/2000/svg" width="100" height="100" version="1.0"><path d="M18.927-64.368h60.72v29.015h-60.72z" style="fill:#fff;fill-opacity:1;stroke:#000;stroke-width:2.88950181;stroke-linecap:round;stroke-linejoin:miter;stroke-miterlimit:4;stroke-opacity:1;stroke-dasharray:none" transform="rotate(90)"/><path d="M153.814 30.508a14.407 14.407 0 1 1-28.814 0 14.407 14.407 0 1 1 28.814 0z" style="fill:#fff;fill-opacity:1;stroke:#000;stroke-width:3.00283241;stroke-linecap:round;stroke-linejoin:round;stroke-miterlimit:4;stroke-opacity:1;stroke-dasharray:none" transform="matrix(-.99906 0 0 .99906 189.012 -11.378)"/><path d="M153.814 30.508a14.407 14.407 0 1 1-28.814 0 14.407 14.407 0 1 1 28.814 0z" style="fill:#fff;fill-opacity:1;stroke:#000;stroke-width:3.00283241;stroke-linecap:round;stroke-linejoin:round;stroke-miterlimit:4;stroke-opacity:1;stroke-dasharray:none" transform="matrix(-.99906 0 0 .99906 189.012 50.045)"/><path d="M22.548-60.697h56.964v23.224H22.548z" style="fill:#fff;fill-opacity:1;stroke:#fff;stroke-width:2.81404567;stroke-linecap:round;stroke-linejoin:miter;stroke-miterlimit:4;stroke-opacity:1;stroke-dasharray:none" transform="matrix(0 1 1 0 98.944 .376)"/><path d="M94.98 80.974c0 5.874-4.762 10.637-10.637 10.637-5.874 0-10.636-4.763-10.636-10.637 0-5.874 4.762-10.637 10.636-10.637 5.875 0 10.637 4.763 10.637 10.637z" style="fill:#fff;fill-opacity:1;stroke:#fff;stroke-width:3;stroke-linecap:round;stroke-linejoin:miter;stroke-miterlimit:4;stroke-opacity:1;stroke-dasharray:none" transform="scale(-1.07394 1.06172) rotate(45 25.085 -79.105)"/><path d="M94.98 80.974c0 5.874-4.762 10.637-10.637 10.637-5.874 0-10.636-4.763-10.636-10.637 0-5.874 4.762-10.637 10.636-10.637 5.875 0 10.637 4.763 10.637 10.637z" style="fill:#fff;fill-opacity:1;stroke:#fff;stroke-width:3;stroke-linecap:round;stroke-linejoin:miter;stroke-miterlimit:4;stroke-opacity:1;stroke-dasharray:none" transform="scale(-1.07394 1.06172) rotate(45 94.15 -107.995)"/><path d="M49.438 36.63V17.155m0 65.317V62.997" style="fill:none;stroke:#000;stroke-width:3;stroke-linecap:round;stroke-linejoin:miter;stroke-miterlimit:4;stroke-opacity:1;stroke-dasharray:none"/></svg>