<svg xmlns="http://www.w3.org/2000/svg" width="100" height="100" version="1.0"><g transform="matrix(1 0 0 -1 0 97.362)"><path d="M18.493-63.903H49.52v28.385H18.493z" style="fill:#fff;fill-opacity:1;stroke:#000;stroke-width:3;stroke-linecap:round;stroke-linejoin:miter;stroke-miterlimit:4;stroke-dasharray:none;stroke-opacity:1" transform="rotate(90)"/><circle cx="139.407" cy="30.508" r="14.407" style="fill:#fff;fill-opacity:1;stroke:#000;stroke-width:3.00283;stroke-linecap:round;stroke-linejoin:round;stroke-miterlimit:4;stroke-dasharray:none;stroke-opacity:1" transform="matrix(-.99906 0 0 .99906 189.012 -11.378)"/><circle cx="139.407" cy="30.508" r="14.407" style="fill:#fff;fill-opacity:1;stroke:#000;stroke-width:3.00283;stroke-linecap:round;stroke-linejoin:round;stroke-miterlimit:4;stroke-dasharray:none;stroke-opacity:1" transform="matrix(-.99906 0 0 .99906 189.012 19.484)"/><path d="M22.512 37.835h27.526v24.047H22.512z" style="fill:#fff;fill-opacity:1;stroke:#fff;stroke-width:1.99052;stroke-linecap:round;stroke-linejoin:miter;stroke-miterlimit:4;stroke-dasharray:none;stroke-opacity:1" transform="matrix(0 1 1 0 0 0)"/><circle cx="84.343" cy="80.974" r="10.637" style="fill:#fff;fill-opacity:1;stroke:#fff;stroke-width:3;stroke-linecap:round;stroke-linejoin:miter;stroke-miterlimit:4;stroke-dasharray:none;stroke-opacity:1" transform="scale(-1.07394 1.06172) rotate(45 60.513 -93.78)"/><circle cx="84.343" cy="80.974" r="10.637" style="fill:#fff;fill-opacity:1;stroke:#fff;stroke-width:3;stroke-linecap:round;stroke-linejoin:miter;stroke-miterlimit:4;stroke-dasharray:none;stroke-opacity:1" transform="scale(-1.07394 1.06172) rotate(45 94.15 -107.995)"/><path d="M49.438 36.63V17.155" style="fill:none;stroke:#000;stroke-width:3;stroke-linecap:round;stroke-linejoin:miter;stroke-miterlimit:4;stroke-dasharray:none;stroke-opacity:1"/></g></svg>