<svg xmlns="http://www.w3.org/2000/svg" width="100" height="100" version="1.0"><path d="M-81.223-64.377h60.72v29.015h-60.72z" style="fill:#000;fill-opacity:1;stroke:#000;stroke-width:2.88950181;stroke-linecap:round;stroke-linejoin:miter;stroke-miterlimit:4;stroke-opacity:1;stroke-dasharray:none" transform="rotate(180 -.45 -.292)"/><path d="M153.814 30.508c0 7.957-6.45 14.407-14.407 14.407S125 38.465 125 30.508c0-7.956 6.45-14.406 14.407-14.406 7.956 0 14.407 6.45 14.407 14.406z" style="fill:#000;fill-opacity:1;stroke:#000;stroke-width:3.00283241;stroke-linecap:round;stroke-linejoin:round;stroke-miterlimit:4;stroke-opacity:1;stroke-dasharray:none" transform="matrix(0 -.99906 -.99906 0 110.628 188.437)"/><path d="M153.814 30.508c0 7.957-6.45 14.407-14.407 14.407S125 38.465 125 30.508c0-7.956 6.45-14.406 14.407-14.406 7.956 0 14.407 6.45 14.407 14.406z" style="fill:#000;fill-opacity:1;stroke:#000;stroke-width:3.00283241;stroke-linecap:round;stroke-linejoin:round;stroke-miterlimit:4;stroke-opacity:1;stroke-dasharray:none" transform="matrix(0 -.99906 -.99906 0 49.206 188.437)"/><path d="M70.092 31.376c3.732 2.802 6.318 4.413 11.765 4.189L82 64.328c-4.573.09-8.913 1.246-11.907 4.493-3.086 3.496-4.669 8.19-4.79 12.285H35.94c-.127-4.775-1.368-8.808-3.892-11.985-2.994-3.02-6.155-4.583-12.284-4.491V35.567c4.968-.424 9.396-1.388 11.985-4.191 3.245-1.91 4.435-6.388 4.49-12.285l28.465-.3c-.027 5.78 2.123 9.344 5.388 12.585z" style="fill:#000;fill-opacity:1;stroke:#000;stroke-width:3.00690365;stroke-linecap:butt;stroke-linejoin:miter;stroke-miterlimit:4;stroke-opacity:1;stroke-dasharray:none" transform="translate(-.899 -.585)"/><path d="M63.52 49.446h19.475m-65.317 0h19.475" style="fill:#000;fill-opacity:1;stroke:#fff;stroke-width:3;stroke-linecap:round;stroke-linejoin:miter;stroke-miterlimit:4;stroke-opacity:1;stroke-dasharray:none" transform="translate(-.899 -.585)"/><path d="M-11.386 43.821a4.345 4.345 0 1 1-8.689 0 4.345 4.345 0 1 1 8.69 0z" style="fill:#fff;fill-opacity:1;stroke:#fff;stroke-width:3;stroke-linecap:round;stroke-linejoin:miter;stroke-miterlimit:4;stroke-opacity:1;stroke-dasharray:none" transform="rotate(90 13.783 79.326)"/></svg>