<?xml version="1.0" encoding="UTF-8" standalone="no"?><!DOCTYPE svg PUBLIC "-//W3C//DTD SVG 1.1//EN" "http://www.w3.org/Graphics/SVG/1.1/DTD/svg11.dtd"><svg width="100%" height="100%" viewBox="0 0 5871 5871" version="1.1" xmlns="http://www.w3.org/2000/svg" xmlns:xlink="http://www.w3.org/1999/xlink" xml:space="preserve" xmlns:serif="http://www.serif.com/" style="fill-rule:evenodd;clip-rule:evenodd;stroke-linejoin:round;stroke-miterlimit:2;"><g><path d="M4606.776,1332.63l-570.283,-424.312l-140.94,368.146l-2184.489,0l-268.795,1324.199c0,0 1542.29,-377.935 1734.079,407.456c-904.531,890.584 -2181.587,252.572 -1861.949,2061.754l3292.343,0l0,-3889.492l0.029,152.254l0.005,-0.005Z" style="fill:#4c4c4c;"/><path d="M4719.711,1317.546l0,3709.422c0,76.512 -62.019,138.532 -138.531,138.532l-3242.751,0c-67.278,0 -124.826,-48.342 -136.446,-114.609c-103.38,-589.664 -39.685,-938.962 109.455,-1166.681c152.734,-233.192 400.691,-348.149 694.633,-449.548c312.678,-107.884 682.272,-203.844 1007.099,-494.416c-87.317,-198.073 -308.358,-272.014 -540.992,-301.362c-454.731,-57.381 -974.61,71.75 -974.61,71.75c-45.593,11.257 -93.768,-1.346 -128.014,-33.472c-34.244,-32.127 -49.869,-79.427 -41.513,-125.641l264.745,-1314.341c11.907,-65.933 69.32,-113.898 136.326,-113.898l2056.014,0l104.877,-276.079c15.458,-40.682 49.129,-71.736 90.929,-83.856c41.8,-12.121 86.863,-3.884 121.681,22.215l561.693,421.154c34.893,26.16 55.429,67.217 55.429,110.829l-0.029,0l0.004,0.004l0.001,0l0,-0.003Zm-277.044,792.528l0,-723.256l-359.015,-269.188l-73.458,193.373c-20.43,53.782 -71.964,89.326 -129.493,89.326l-2035.841,0l-198.283,946.532c-2.223,12.36 1.694,25.04 10.489,34.016c8.81,8.961 21.413,13.118 33.82,11.123c213.44,-33.11 526.68,-64.496 815.98,-27.988c378.643,47.769 710.362,213.651 800.098,583.937c11.424,47.135 -2.63,96.808 -37.055,130.959c-373.7,370.783 -806.807,491.151 -1173.467,617.652c-230.576,79.547 -433.408,156.513 -553.214,339.444c-113.4,173.153 -148.324,432.817 -86.834,852.447l2986.272,0l0,-927.175l-522.614,0c-76.451,0 -138.532,-62.067 -138.532,-138.532c0,-76.451 62.063,-138.532 138.532,-138.532l522.614,0l0,-510.026l-522.614,0c-76.451,0 -138.532,-62.063 -138.532,-138.532c0,-76.451 62.063,-138.532 138.532,-138.532l522.614,0l0,-510.026l-522.614,0c-76.451,0 -138.532,-62.067 -138.532,-138.532c0,-76.451 62.063,-138.532 138.532,-138.532l522.614,0l0,0.029l0.004,0.007l-0.001,0.004l-0.002,0.002Z"/></g></svg>