<?xml version="1.0" encoding="UTF-8" standalone="no"?><!DOCTYPE svg PUBLIC "-//W3C//DTD SVG 1.1//EN" "http://www.w3.org/Graphics/SVG/1.1/DTD/svg11.dtd"><svg width="100%" height="100%" viewBox="0 0 5871 5871" version="1.1" xmlns="http://www.w3.org/2000/svg" xmlns:xlink="http://www.w3.org/1999/xlink" xml:space="preserve" xmlns:serif="http://www.serif.com/" style="fill-rule:evenodd;clip-rule:evenodd;stroke-linejoin:round;stroke-miterlimit:2;"><g><path d="M3852.857,2595.356c-245.955,971.554 368.925,1162.007 614.879,1943.001l0,491.895l-3074.358,0l0,-491.891c245.955,-780.998 860.816,-971.451 614.879,-1943.004l-399.663,0l0,-1266.631l2643.957,0l0,1266.631l-399.695,0l0.001,-0.001Z" style="fill:#fff;"/><path d="M1608.58,2730.619l-430.418,0c-74.655,0 -135.277,-60.609 -135.277,-135.278c0,-74.655 60.605,-135.278 135.277,-135.278l295.138,0l0,-1131.371c0,-74.715 60.562,-135.277 135.278,-135.277l2643.957,0c74.715,0 135.278,60.562 135.278,135.277l0,1131.371l295.138,0c74.655,0 135.278,60.609 135.278,135.278c0,74.655 -60.609,135.278 -135.278,135.278l-721.866,0c-93.263,478.316 52.123,636.749 230.4,946.836c142.272,247.446 303.652,497.544 405.269,820.25c4.147,13.15 6.244,26.842 6.244,40.626l0,491.891c0,74.715 -60.562,135.278 -135.277,135.278l-3074.358,0c-74.715,0 -135.277,-60.562 -135.277,-135.278l0,-491.891c0,-13.784 2.111,-27.494 6.244,-40.626c101.632,-322.706 262.997,-572.804 405.269,-820.25c178.295,-310.087 323.662,-468.52 230.4,-946.836l-291.451,0l0.032,0Zm2403.564,-270.541c91.184,0 105.116,-73.918 105.116,-165.116l0,-867.472l-556.513,0c-14.386,0 -28.185,5.713 -38.367,15.895c-10.182,10.182 -15.895,23.981 -15.895,38.367l0,560.2c0,74.655 -60.605,135.278 -135.278,135.278c-74.655,0 -135.277,-60.609 -135.277,-135.278l0,-560.2c0,-14.386 -5.713,-28.185 -15.891,-38.367c-10.182,-10.182 -23.981,-15.895 -38.367,-15.895l-502.251,0c-14.386,0 -28.185,5.713 -38.367,15.895c-10.182,10.182 -15.895,23.981 -15.895,38.367l0,560.2c0,74.655 -60.605,135.278 -135.278,135.278c-74.655,0 -135.278,-60.609 -135.278,-135.278l0,-560.2c0,-14.386 -5.709,-28.185 -15.891,-38.367c-10.182,-10.182 -23.981,-15.895 -38.367,-15.895l-556.513,0l0,867.472c0,91.184 13.918,165.116 105.116,165.116l2163.196,0Zm-1699.909,270.541c-34,0.014 -66.42,14.358 -89.296,39.518c-22.872,25.16 -34.074,58.792 -30.841,92.643c37.29,369.116 -53.256,500.409 -186.157,762.861c-148.028,292.336 -355.789,561.34 -477.314,933.863l0,335.484l2803.821,0l-0.046,-335.633c-121.479,-372.378 -329.24,-641.382 -477.254,-933.718c-132.887,-262.452 -223.451,-393.731 -187.149,-762.949c3.202,-33.557 -7.909,-66.923 -30.593,-91.86c-22.681,-24.94 -54.836,-39.164 -88.542,-39.164c-287.201,-1.034 -949.432,-1.034 -1236.633,-1.034l0,-0.014l0.004,0.004l0,-0.001Z"/></g></svg>