<?xml version="1.0" encoding="iso-8859-1"?>
<!-- Generator: Adobe Illustrator 16.0.0, SVG Export Plug-In . SVG Version: 6.00 Build 0)  -->
<!DOCTYPE svg PUBLIC "-//W3C//DTD SVG 1.1//EN" "http://www.w3.org/Graphics/SVG/1.1/DTD/svg11.dtd">
<svg version="1.1" id="Layer_1" xmlns="http://www.w3.org/2000/svg" xmlns:xlink="http://www.w3.org/1999/xlink" x="0px" y="0px"
	 width="800px" height="800px" viewBox="0 0 800 800" style="enable-background:new 0 0 800 800;" xml:space="preserve">
<g id="black_king">
	<path id="silhouette" d="M694.7,363.2c-9.7-7.5-22.6-11.2-38-11.2c-0.4,0-1,0-1.4,0c-2.1,0-4.2,0.1-6.5,0.1c-2.7,0-5.6,0.1-8.5,0.1
		c3.3-23.7,0.6-41.6-8-55.5c-6.6-10.6-15.9-18.3-27.8-22.9c-9.3-3.7-20.3-5.4-33.6-5.4c-12.2,0-25.2,1.4-38.8,3.2
		c-3-14.1-9.3-25.4-18.7-33.5c-9.5-8.3-20.6-12.5-33-12.5c-24.1,0-47.2,16.3-65.9,29.6v-80.7h49.7v-30.2h-49.7V94.6h-30.2v49.7
		h-46.4v30.2h46.4v78.9c-18.3-13-40.4-28-63.5-28c-12.4,0-23.5,4.2-33,12.5c-9.4,8.1-15.6,19.3-18.7,33.5
		c-13.7-1.8-26.7-3.2-38.9-3.2c-13.3,0-24.3,1.7-33.7,5.4c-11.9,4.6-21.2,12.3-27.8,22.9c-8.6,14-11.3,32-8.1,55.5
		c-2.8,0-5.6-0.1-8.2-0.1c-2.5,0-4.9-0.1-7-0.1c-0.4,0-1,0-1.4,0c-15.2,0-28.4,3.9-38.2,11.1c-8.5,6.4-18.6,18.3-18.6,39.4
		c0,26.1,18.3,53.8,37.5,83.2c1.9,2.9,3.8,5.8,5.7,8.7l25.6,53.9c-7.6,8.3-11.3,17.3-11.3,26.8v2.2l0.4,2.2l15.7,64.6
		c1.1,12.9,10.2,24,27,32.9c12.6,6.7,30.1,12.5,52.1,17.5c43.1,9.7,100.1,15,160.6,15c60,0,116.7-5.3,159.7-14.8
		c21.8-4.9,39.3-10.7,52.1-17.3c17.1-8.9,26.5-19.9,27.9-32.6l14.7-65.7l0.6-1.9v-2.1c0-9.4-4-18.1-11.6-26.1l23.8-52.6
		c2.5-3.7,4.9-7.5,7.3-11c19.4-29.2,37.8-56.7,37.8-82.7C712.8,381.4,702.9,369.5,694.7,363.2z"/>
	<g id="top_3_">
		<path id="_x31__5_" style="fill:none;stroke:#F2F2F2;stroke-width:15.12;stroke-linecap:round;stroke-miterlimit:10;" d="
			M182,371.5c-11.9,0.3-25.9-0.1-37.5-0.3c-21.9-0.3-39.4,8.7-39.4,32.2c0,39.1,60.6,95.7,73.3,146.7"/>
		<path id="_x32__5_" style="fill:none;stroke:#F2F2F2;stroke-width:15.12;stroke-linecap:round;stroke-miterlimit:10;" d="
			M284.1,293.5c-45.6-6.3-83.3-13.8-100.3,13.7c-27,43.6,35.6,150.7,55.1,222.4"/>
		<path id="_x33__3_" style="fill:none;stroke:#F2F2F2;stroke-width:15.12;stroke-linecap:round;stroke-miterlimit:10;" d="
			M398.9,286.8c-24.3-9-67.9-61.7-99.8-33.9c-43.6,37.9,22.9,173.9,38.1,260.5"/>
		<path id="_x31__4_" style="fill:none;stroke:#F2F2F2;stroke-width:15.12;stroke-linecap:round;stroke-miterlimit:10;" d="
			M617.9,371.5c11.9,0.3,25.9-0.1,37.5-0.3c21.9-0.3,39.4,8.7,39.4,32.2c0,39.1-60.6,95.7-73.3,146.7"/>
		<path id="_x32__3_" style="fill:none;stroke:#F2F2F2;stroke-width:15.12;stroke-linecap:round;stroke-miterlimit:10;" d="
			M515.9,293.5c45.6-6.3,83.3-13.8,100.3,13.7c27,43.6-35.6,150.7-55.1,222.4"/>
		<path id="_x33__2_" style="fill:none;stroke:#F2F2F2;stroke-width:15.12;stroke-linecap:round;stroke-miterlimit:10;" d="
			M401.1,286.8c24.3-9,67.9-61.7,99.8-33.9c43.6,37.9-22.9,173.9-38.1,260.5"/>
	</g>
	<path id="middle_4_" style="stroke:#F2F2F2;stroke-width:12.96;stroke-linecap:round;stroke-miterlimit:10;" d="M177.9,554
		c34-23.3,120.6-39.6,222-39.6c102.5,0,190.3,16.3,223.6,40l31.8-78.1c-11.8,13.1-23.7,18.5-33.9,15.3
		c-26.9-8.4-26.5-40.6-24.4-66.5c-16.4,29.5-39.3,44.7-63.9,39.5c-24.9-5.3-40-40.5-39-68.6c-17.5,35.6-49.4,54.1-94.1,54.1
		c-44.7,0-76.6-18.6-94.1-54.2c1.1,28.1-14,63.3-39,68.6c-24.6,5.2-47.4-10-63.9-39.5c1.9,25.9,2.6,58.5-24.4,66.5
		c-9.1,2.7-22.1-3.8-33.9-15.3L177.9,554z"/>
	<g id="bottom_5_">
		<path style="display:none;fill:none;stroke:#F2F2F2;stroke-width:15.12;stroke-linecap:round;stroke-miterlimit:10;" d="
			M621.4,642.2c0,27.4-99.1,49.7-221.4,49.7c-122.3,0-221.4-22.2-221.4-49.7"/>
		<path style="fill:none;stroke:#F2F2F2;stroke-width:12.96;stroke-linecap:round;stroke-miterlimit:10;" d="M162.5,575.9
			c0-34.3,106.3-61.7,237.4-61.7c131.1,0,237.4,27.3,237.4,61.7"/>
		
			<line style="fill:none;stroke:#F2F2F2;stroke-width:12.96;stroke-linecap:round;stroke-miterlimit:10;" x1="162.3" y1="577.7" x2="178.5" y2="642.8"/>
		
			<line style="fill:none;stroke:#F2F2F2;stroke-width:12.96;stroke-linecap:round;stroke-miterlimit:10;" x1="637.7" y1="577.7" x2="621.5" y2="642.8"/>
		<path style="fill:none;stroke:#F2F2F2;stroke-width:15.12;stroke-linecap:round;stroke-miterlimit:10;" d="M178.6,642.2
			c0-27.4,99.1-49.7,221.4-49.7c122.3,0,221.4,22.2,221.4,49.7"/>
	</g>
	
		<line id="line_2_" style="fill:none;stroke:#F2F2F2;stroke-width:6.48;stroke-linecap:round;stroke-miterlimit:10;" x1="400" y1="286.8" x2="400" y2="447.7"/>
</g>
</svg>
