<?xml version="1.0" encoding="UTF-8" standalone="no"?>
<!-- Created with Inkscape (http://www.inkscape.org/) -->

<svg
   xmlns:dc="http://purl.org/dc/elements/1.1/"
   xmlns:cc="http://creativecommons.org/ns#"
   xmlns:rdf="http://www.w3.org/1999/02/22-rdf-syntax-ns#"
   xmlns:svg="http://www.w3.org/2000/svg"
   xmlns="http://www.w3.org/2000/svg"
   xmlns:sodipodi="http://sodipodi.sourceforge.net/DTD/sodipodi-0.dtd"
   xmlns:inkscape="http://www.inkscape.org/namespaces/inkscape"
   width="68"
   height="68"
   id="svg2985"
   version="1.1"
   inkscape:version="0.91 r13725"
   sodipodi:docname="wb.svg">
  <defs
     id="defs2987" />
  <sodipodi:namedview
     id="base"
     pagecolor="#ffffff"
     bordercolor="#666666"
     borderopacity="1.0"
     inkscape:pageopacity="0.0"
     inkscape:pageshadow="2"
     inkscape:zoom="5.5"
     inkscape:cx="10.363636"
     inkscape:cy="43.754075"
     inkscape:current-layer="layer1"
     showgrid="true"
     inkscape:document-units="px"
     inkscape:grid-bbox="true"
     inkscape:window-width="1280"
     inkscape:window-height="972"
     inkscape:window-x="-8"
     inkscape:window-y="-8"
     inkscape:window-maximized="1" />
  <metadata
     id="metadata2990">
    <rdf:RDF>
      <cc:Work
         rdf:about="">
        <dc:format>image/svg+xml</dc:format>
        <dc:type
           rdf:resource="http://purl.org/dc/dcmitype/StillImage" />
        <dc:title></dc:title>
      </cc:Work>
    </rdf:RDF>
  </metadata>
  <g
     id="layer1"
     inkscape:label="Layer 1"
     inkscape:groupmode="layer"
     transform="translate(0,4)">
    <g
       id="g3342"
       transform="translate(2.0005548,-2.4156092)">
      <g
         id="text3145"
         style="font-style:normal;font-variant:normal;font-weight:normal;font-stretch:normal;font-size:64px;line-height:125%;font-family:Chess-7;-inkscape-font-specification:Chess-7;letter-spacing:0px;word-spacing:0px;fill:#000000;fill-opacity:1;stroke:none">
        <path
           inkscape:connector-curvature="0"
           id="path3340"
           d="m 25.983445,53.887609 q -2.752,-0.064 -4.544,-0.064 -1.792,-0.064 -1.92,-0.256 -0.832,-0.768 -0.896,-1.856 -0.064,-1.088 0.768,-1.792 0.064,-0.128 1.088,-1.536 1.024,-1.472 2.432,-3.584 -2.432,-3.072 -4.608,-6.016 -2.176,-3.008 -2.624,-3.52 -1.408,-1.216 -1.408,-3.008 0,-1.856 1.408,-3.264 0.384,-0.384 2.304,-2.944 1.984,-2.56 4.224,-5.568 2.304,-3.008 4.224,-5.568 1.984,-2.624 2.24,-2.88 0.256,-0.256 0.384,-0.448 -0.704,-0.768 -1.472,-1.472 -0.704,-0.7039996 -0.832,-0.9599996 -2.048,-1.792 0,-3.584 0.192,-0.32 1.728,-1.792 1.6,-1.472 1.856,-1.856 1.728,-1.66400003 3.328,0 0.384,0.384 1.856,1.856 1.472,1.472 1.856,1.792 1.792,1.792 0,3.584 -0.256,0.256 -1.024,0.9599996 -0.768,0.704 -1.408,1.472 0.064,0 0.064,0.128 0.064,0.064 0.256,0.064 0.448,0.512 2.368,3.136 1.92,2.56 4.096,5.568 2.24,3.008 4.096,5.568 1.92,2.56 2.304,2.944 1.344,1.408 1.344,3.264 0,1.792 -1.344,3.008 -0.448,0.512 -2.56,3.392 -2.048,2.816 -4.352,5.888 1.6,2.112 2.688,3.712 1.152,1.536 1.344,1.664 1.728,1.792 -0.192,3.648 -0.128,0.192 -2.112,0.256 -1.92,0 -4.8,0.064 -0.192,1.408 -0.128,1.408 0.32,0.32 2.176,0.32 1.856,-0.064 4.096,-0.128 2.24,-0.064 4.288,-0.064 2.112,-0.064 2.944,0.192 2.112,0.704 2.944,3.264 0.832,2.496 1.408,4.864 l -17.088,0 q -1.344,0 -2.56,-0.064 -1.152,-0.128 -2.368,-0.704 -1.152,-0.576 -1.472,-0.832 -0.32,-0.32 -0.384,-0.704 0,0.384 -0.256,0.704 -0.256,0.256 -1.408,0.832 -1.344,0.576 -2.56,0.704 -1.216,0.064 -2.368,0.064 l -17.2799997,0 q 0.704,-2.368 1.664,-4.864 1.0239997,-2.56 3.1359997,-3.264 0.768,-0.256 2.752,-0.192 2.048,0 4.16,0.064 2.176,0.064 3.904,0.128 1.792,0 2.112,-0.32 0.32,-0.192 0.192,-0.384 -0.064,-0.256 -0.064,-1.024 z m 6.912,-0.128 q 0,3.968 1.088,5.056 0.576,0.832 0.576,0.96 0,0.128 0.512,0.448 2.048,0.768 3.52,0.768 l 13.248,0 q -0.128,-0.32 -0.384,-1.28 -0.256,-0.96 -1.152,-1.344 -0.704,-0.192 -2.816,-0.128 -2.048,0 -4.352,0.128 -2.304,0.064 -4.288,0.064 -1.92,-0.064 -2.368,-0.512 -1.088,-0.896 -1.088,-1.92 0,-1.088 0.128,-2.24 l -2.624,0 z m -1.792,1.92 q 0,-1.92 -0.064,-1.92 -0.064,0 -2.56,0 0.064,1.152 0.064,2.176 0,0.96 -1.152,1.984 -0.448,0.448 -2.368,0.512 -1.92,0 -4.224,-0.064 -2.304,-0.128 -4.416,-0.128 -2.112,-0.064 -2.816,0.128 -0.832,0.384 -1.152,1.344 -0.32,0.96 -0.384,1.28 l 13.376,0 q 1.6,0 3.52,-0.768 0.576,-0.32 0.512,-0.448 0,-0.128 0.704,-0.96 0.96,-1.216 0.96,-3.136 z m 2.432,-22.208 0,11.072 -2.944,0 0,-11.072 -3.52,0 0,-2.944 3.52,0 0,-4.288 2.944,0 0,4.288 3.52,0 0,2.944 -3.52,0 z m -6.912,11.328 q -1.984,2.944 -3.52,4.864 -1.472,1.856 -1.536,1.92 0.064,0.128 3.392,0.192 3.328,0.064 7.296,0.064 3.968,0 7.296,-0.064 3.392,-0.064 3.52,-0.192 -0.128,-0.064 -1.792,-2.048 -1.6,-1.984 -3.712,-4.992 2.624,-3.648 5.248,-7.232 2.688,-3.584 3.2,-4.16 1.088,-0.832 0,-1.984 -0.512,-0.448 -2.432,-3.008 -1.92,-2.624 -4.16,-5.568 -2.176,-3.008 -4.096,-5.568 -1.856,-2.624 -2.24,-3.136 -0.448,-0.448 -0.96,-0.448 -0.704,0 -1.024,0.448 -0.512,0.512 -2.496,3.136 -1.92,2.56 -4.224,5.568 -2.24,2.944 -4.16,5.568 -1.92,2.56 -2.368,3.008 -1.28,1.152 0,1.984 0.384,0.576 3.136,4.224 2.816,3.648 5.632,7.424 z m 5.376,-40.7679996 q -0.256,0.384 -1.6,1.728 -1.28,1.344 -1.472,1.536 0.192,0.384 1.472,1.728 1.344,1.2799996 1.6,1.4719996 0.192,-0.192 1.536,-1.4719996 1.344,-1.344 1.728,-1.728 -0.384,-0.192 -1.728,-1.536 -1.344,-1.344 -1.536,-1.728 z" />
      </g>
      <path
         inkscape:connector-curvature="0"
         id="path3149"
         d="m 12.227709,60.463636 c 0.312731,-1.023962 0.631406,-1.58552 1.058603,-1.86543 0.413864,-0.271174 1.132436,-0.296393 6.878823,-0.241415 7.210449,0.06898 7.163983,0.07627 7.990039,-1.252383 0.355282,-0.571445 0.421915,-0.906711 0.398371,-2.004408 l -0.02827,-1.318182 1.279854,0 1.279854,0 -0.08545,1.774511 c -0.08891,1.846401 -0.17608,2.121379 -1.120024,3.533168 -1.113059,1.664721 -1.800505,1.780993 -10.537216,1.782216 l -7.239525,10e-4 0.124941,-0.409091 z"
         style="fill:#ffffff;fill-opacity:1;fill-rule:evenodd" />
      <path
         inkscape:connector-curvature="0"
         id="path3151"
         d="m 37.127273,60.78068 c -0.1,-0.03484 -0.650981,-0.193923 -1.224401,-0.353526 C 34.943589,60.160151 34.807,60.053776 34.193309,59.095756 33.379755,57.825731 33.041369,56.62822 33.038522,55.009091 l -0.0022,-1.227273 1.181818,0 1.181818,0 6.73e-4,1.409091 c 7.82e-4,1.627468 0.335319,2.368411 1.309461,2.900264 0.551211,0.300945 1.114759,0.322127 7.070453,0.265764 l 6.471504,-0.06125 0.48931,0.424882 c 0.269121,0.233685 0.605303,0.813518 0.747072,1.288518 l 0.257763,0.863636 -7.218576,-0.01435 c -3.97021,-0.0079 -7.300387,-0.04286 -7.400387,-0.07769 z"
         style="fill:#ffffff;fill-opacity:1;fill-rule:evenodd" />
      <path
         inkscape:connector-curvature="0"
         id="path3153"
         d="m 22.809091,51.655615 c -0.575,-0.04057 -1.045455,-0.11702 -1.045455,-0.169891 0,-0.05287 0.480271,-0.68388 1.067268,-1.402246 1.035033,-1.266669 3.344632,-4.445953 3.674587,-5.058262 0.127198,-0.236043 -0.75014,-1.507549 -4.014544,-5.818181 -2.297523,-3.03387 -4.42379,-5.81744 -4.72504,-6.185715 -0.301249,-0.368275 -0.547725,-0.756676 -0.547725,-0.863113 0,-0.106438 0.272916,-0.500576 0.606481,-0.875865 C 18.158227,30.907054 19.442062,29.25 20.677628,27.6 c 4.068149,-5.432689 9.132004,-12.074555 9.928833,-13.022882 0.430699,-0.512586 0.936099,-0.971987 1.123111,-1.020892 0.786874,-0.205772 1.324763,0.36241 4.688806,4.952865 5.102342,6.962472 8.46188,11.443585 9.31152,12.420149 0.748584,0.860411 0.971862,1.609896 0.556144,1.866824 -0.197515,0.122071 -6.091226,7.977312 -7.864415,10.481827 -0.524778,0.741216 -0.813262,1.314464 -0.731991,1.454545 0.44068,0.759584 2.548299,3.569535 3.766031,5.021011 0.783924,0.934398 1.371684,1.75258 1.306135,1.818182 -0.129009,0.129118 -18.232975,0.205322 -19.952711,0.08399 l 0,0 z M 33.53903,39.1 l 0.04812,-5.5 1.724606,0 1.724608,0 0,-1.545455 0,-1.545454 -1.727273,0 -1.727273,0 0,-2.181818 0,-2.181818 -1.545454,0 -1.545455,0 0,2.181818 0,2.181818 -1.727273,0 -1.727272,0 0,1.545454 0,1.545455 1.727272,0 1.727273,0 0,5.424242 c 0,2.983334 0.05769,5.481927 0.128189,5.552433 0.0705,0.0705 0.745504,0.104594 1.5,0.07576 L 33.490909,44.6 33.53903,39.1 Z"
         style="fill:#ffffff;fill-opacity:1;fill-rule:evenodd" />
      <path
         inkscape:connector-curvature="0"
         id="path3155"
         d="M 30.415854,8.877498 28.99819,7.420714 29.91016,6.3739933 C 30.411743,5.7982969 31.095332,5.079411 31.429247,4.776469 l 0.607117,-0.5508038 1.571579,1.6001455 1.571579,1.6001455 -1.540486,1.4052036 c -0.847267,0.7728622 -1.600118,1.4272352 -1.673002,1.4541632 -0.07288,0.02693 -0.770465,-0.6065937 -1.55018,-1.407825 l 0,0 z"
         style="fill:#ffffff;fill-opacity:1;fill-rule:evenodd" />
    </g>
  </g>
</svg>
