<?xml version="1.0" encoding="UTF-8" standalone="no"?>
<!-- Created with Inkscape (http://www.inkscape.org/) -->

<svg
   xmlns:dc="http://purl.org/dc/elements/1.1/"
   xmlns:cc="http://creativecommons.org/ns#"
   xmlns:rdf="http://www.w3.org/1999/02/22-rdf-syntax-ns#"
   xmlns:svg="http://www.w3.org/2000/svg"
   xmlns="http://www.w3.org/2000/svg"
   xmlns:sodipodi="http://sodipodi.sourceforge.net/DTD/sodipodi-0.dtd"
   xmlns:inkscape="http://www.inkscape.org/namespaces/inkscape"
   width="68"
   height="68"
   id="svg2985"
   version="1.1"
   inkscape:version="0.91 r13725"
   sodipodi:docname="wq.svg">
  <defs
     id="defs2987" />
  <sodipodi:namedview
     id="base"
     pagecolor="#ffffff"
     bordercolor="#666666"
     borderopacity="1.0"
     inkscape:pageopacity="0.0"
     inkscape:pageshadow="2"
     inkscape:zoom="5.5"
     inkscape:cx="-12.181818"
     inkscape:cy="32"
     inkscape:current-layer="layer1"
     showgrid="true"
     inkscape:document-units="px"
     inkscape:grid-bbox="true"
     inkscape:window-width="1280"
     inkscape:window-height="972"
     inkscape:window-x="-8"
     inkscape:window-y="-8"
     inkscape:window-maximized="1" />
  <metadata
     id="metadata2990">
    <rdf:RDF>
      <cc:Work
         rdf:about="">
        <dc:format>image/svg+xml</dc:format>
        <dc:type
           rdf:resource="http://purl.org/dc/dcmitype/StillImage" />
        <dc:title></dc:title>
      </cc:Work>
    </rdf:RDF>
  </metadata>
  <g
     id="layer1"
     inkscape:label="Layer 1"
     inkscape:groupmode="layer"
     transform="translate(0,4)">
    <g
       id="g3351"
       transform="translate(1.9843281,-2.3515939)">
      <g
         id="text2993"
         style="font-style:normal;font-variant:normal;font-weight:normal;font-stretch:normal;font-size:64px;line-height:125%;font-family:Chess-7;-inkscape-font-specification:Chess-7;letter-spacing:0px;word-spacing:0px;fill:#000000;fill-opacity:1;stroke:none">
        <path
           inkscape:connector-curvature="0"
           id="path3349"
           d="m 19.103672,49.663594 -1.664,5.184 3.648,-3.328 -1.984,-1.856 z m 25.088,0.128 -2.176,1.856 3.264,2.752 -1.088,-4.608 z m -17.728,2.176 -2.752,0.576 -3.392,4.16 22.464,0 q -0.704,-0.64 -3.392,-4.16 l -2.304,-0.448 -3.52,3.52 q -1.792,1.792 -3.52,0 l -3.584,-3.648 z m -9.344,-5.568 q -2.816,-6.08 -5.504,-12.16 -2.6240001,-6.144 -5.2480001,-12.16 -1.408,0.384 -2.304,-0.576 l -1.408,-1.536 q -1.92000003,-1.664 0,-3.584 l 1.408,-1.344 q 1.664,-2.048 3.52,0 l 1.536,1.344 q 1.5360001,1.92 0,3.584 l -0.768,0.768 10.9440001,8.576 -0.96,-13.824 q -0.832,-0.192 -1.408,-0.768 l -1.344,-1.408 q -1.984,-1.792 0,-3.5200003 l 1.344,-1.536 q 1.792,-1.6639999 3.584,0 l 1.536,1.536 q 1.536,1.7280003 0,3.5200003 l -1.536,1.408 6.592,11.264 3.52,-12.928 q 0.192,0 -0.576,-0.32 l -1.408,-1.536 q -1.728,-1.7920003 0,-3.5840002 l 1.408,-1.536 q 1.728,-1.4080001 3.52,0 l 1.408,1.536 q 1.984,1.7919999 0,3.5840002 l -1.408,1.536 q -0.32,0.32 -0.64,0.32 l 3.584,13.056 6.592,-11.072 -1.536,-1.536 q -1.536,-1.856 0,-3.7120003 l 1.408,-1.408 q 1.856,-1.5359999 3.648,0 l 1.408,1.408 q 1.856,1.8560003 0,3.7120003 l -1.408,1.344 -1.216,0.768 -0.768,13.568 11.264,-9.984 -0.96,-0.768 q -1.536,-1.856 0,-3.712 l 1.536,-1.408 q 1.792,-1.664 3.584,0 l 1.344,1.408 q 1.856,1.856 0,3.712 l -1.344,1.344 q -1.088,1.088 -2.368,0.768 l -11.2,26.304 3.072,12.48 -36.928,0 4.48,-12.928 z m 0,-7.36 q 6.592,-3.84 14.912,-3.84 7.552,0 14.336,4.16 l 5.376,-12.352 -9.216,6.848 -0.64,-10.816 -6.336,7.872 -3.648,-10.624 -4.352,10.624 -5.696,-7.872 -0.512,10.816 -9.28,-6.208 5.056,11.392 z m 14.784,8 -3.264,3.2 3.264,3.264 3.072,-3.264 -3.072,-3.2 z m -13.568,-5.056 q 0.32,0.704 0.64,1.344 0.384,0.64 0.576,1.216 2.688,-1.216 5.824,-2.304 3.2,-1.088 6.656,-1.088 3.328,0 5.824,0.832 2.496,0.832 6.336,2.752 l 1.088,-2.624 q -3.456,-1.92 -6.528,-2.88 -3.072,-0.96 -6.72,-0.96 -3.584,0 -7.296,0.96 -3.648,0.896 -6.4,2.752 z m -12.4800001,-24.832 -1.024,1.088 1.024,1.088 1.088,-1.088 -1.088,-1.088 z m 12.9280001,-6.72 -1.088,1.088 1.088,1.024 1.088,-1.024 -1.088,-1.088 z m 13.12,-2.0480003 -1.088,1.088 1.088,1.0880003 0.896,-1.0880003 -0.896,-1.088 z m 12.928,2.1760003 -1.088,1.088 1.088,1.088 1.024,-1.088 -1.024,-1.088 z m 13.376,4.928 -1.088,1.088 1.088,1.088 1.088,-1.088 -1.088,-1.088 z m -15.872,31.872 q -3.008,-1.6 -5.184,-2.432 -2.112,-0.832 -5.12,-0.832 -3.008,0 -5.888,1.088 -2.88,1.024 -5.184,2.176 0.576,0.576 2.304,2.304 l 2.944,-0.64 3.84,-4.16 q 1.728,-1.408 3.52,0 l 4.032,4.16 2.56,0.64 2.176,-2.304 z" />
      </g>
      <path
         inkscape:connector-curvature="0"
         id="path2997"
         d="m 17.763636,54.210279 c 0,-0.06435 0.298307,-1.081479 0.662903,-2.260293 l 0.662904,-2.143299 0.974098,0.840975 0.974098,0.840975 -1.500638,1.410417 c -1.407982,1.323332 -1.773365,1.593495 -1.773365,1.311225 z"
         style="fill:#ffffff;fill-opacity:1;fill-rule:evenodd" />
      <path
         inkscape:connector-curvature="0"
         id="path2999"
         d="m 20.832342,56.190909 c 0.201407,-0.275 0.936916,-1.194219 1.634464,-2.042709 l 1.268269,-1.542709 1.332462,-0.294405 1.332463,-0.294404 2.288352,2.246204 c 2.101933,2.06322 2.343596,2.246205 2.966498,2.246205 0.978178,0 1.254138,-0.188436 3.472423,-2.371093 l 2,-1.967879 1.1128,0.21494 c 1.098709,0.212219 1.127223,0.233359 2.251912,1.669486 0.626511,0.8 1.38953,1.720455 1.695593,2.045455 l 0.556482,0.590909 -11.138956,0 -11.138956,0 0.366194,-0.5 z"
         style="fill:#ffffff;fill-opacity:1;fill-rule:evenodd" />
      <path
         inkscape:connector-curvature="0"
         id="path3001"
         d="m 30.248189,51.816903 -1.606357,-1.618772 1.568413,-1.435429 c 0.862628,-0.789486 1.656755,-1.435429 1.764729,-1.435429 0.107973,0 0.807137,0.671196 1.553698,1.491548 l 1.357383,1.491548 -1.515755,1.562653 -1.515755,1.562654 -1.606356,-1.618773 z"
         style="fill:#ffffff;fill-opacity:1;fill-rule:evenodd" />
      <path
         inkscape:connector-curvature="0"
         id="path3003"
         d="m 43.527684,52.904897 -1.41777,-1.213988 0.958133,-0.853576 c 0.526973,-0.469468 1.001334,-0.810701 1.054134,-0.758297 0.151762,0.150623 1.052048,4.067931 0.931502,4.053134 -0.05953,-0.0073 -0.746225,-0.559579 -1.525999,-1.227273 l 0,0 z"
         style="fill:#ffffff;fill-opacity:1;fill-rule:evenodd" />
      <path
         inkscape:connector-curvature="0"
         id="path3005"
         d="M 38.706577,49.272611 C 37.58887,48.993509 37.506232,48.929961 35.571614,46.861819 34.478767,45.693545 33.31808,44.606296 32.99231,44.44571 L 32.4,44.153735 l 0.545455,0.0022 c 0.975377,0.0039 3.244991,0.485451 4.454545,0.945057 0.990131,0.376229 4.485207,2.039482 4.702872,2.238023 0.113232,0.103284 -1.873654,2.253503 -2.066508,2.236388 -0.1,-0.0089 -0.698404,-0.145132 -1.329787,-0.302795 z"
         style="fill:#ffffff;fill-opacity:1;fill-rule:evenodd" />
      <path
         inkscape:connector-curvature="0"
         id="path3007"
         d="m 22.228579,48.521269 c -0.594282,-0.601468 -1.044282,-1.126221 -1,-1.166118 0.197297,-0.177764 1.391227,-0.724081 3.213539,-1.470449 2.042922,-0.836724 4.203087,-1.447659 5.776064,-1.633579 l 0.909091,-0.107451 -0.545455,0.336414 c -0.3,0.185027 -1.420204,1.275881 -2.489342,2.424118 -1.880167,2.019271 -1.978506,2.095205 -3,2.316466 -0.580862,0.125819 -1.219749,0.265979 -1.419749,0.311469 -0.262665,0.05974 -0.663663,-0.220947 -1.444148,-1.01087 z"
         style="fill:#ffffff;fill-opacity:1;fill-rule:evenodd" />
      <path
         inkscape:connector-curvature="0"
         id="path3009"
         d="m 42.036364,43.685836 c -4.423622,-2.1527 -8.08592,-2.90676 -11.986031,-2.467901 -2.559382,0.287994 -4.194472,0.737297 -7.603347,2.089306 l -2.862105,1.135152 -0.548904,-1.172982 c -0.403418,-0.862084 -0.49734,-1.235114 -0.354358,-1.407398 0.309474,-0.372893 3.041132,-1.657022 4.58962,-2.157542 3.731074,-1.205999 8.519806,-1.648681 12.102881,-1.118821 2.694905,0.39852 4.490125,0.973855 7.4351,2.382816 2.286469,1.093914 2.400838,1.174104 2.244747,1.573905 -0.351878,0.901281 -0.916302,2.147763 -0.965687,2.132639 -0.02855,-0.0087 -0.951916,-0.453873 -2.051916,-0.989174 z"
         style="fill:#ffffff;fill-opacity:1;fill-rule:evenodd" />
      <path
         inkscape:connector-curvature="0"
         id="path3011"
         d="m 44.218182,38.162665 c -2.176722,-1.125893 -4.582802,-1.986722 -7,-2.504406 -2.204375,-0.472105 -8.861019,-0.47525 -11.090909,-0.0052 -2.448279,0.516042 -5.026423,1.365208 -7.074641,2.330181 -1.041052,0.490469 -1.919116,0.865467 -1.951252,0.833331 -0.127233,-0.127233 -4.787095,-10.736877 -4.737518,-10.786453 0.02917,-0.02917 2.033814,1.266185 4.454769,2.878564 2.420954,1.612379 4.441691,2.891642 4.490525,2.842808 0.04883,-0.04883 0.200958,-2.355503 0.338052,-5.125931 0.137094,-2.770428 0.285606,-5.073484 0.330025,-5.117904 0.04442,-0.04442 1.294812,1.591911 2.778649,3.63629 1.483838,2.044379 2.755034,3.681733 2.824881,3.638565 0.06985,-0.04317 1.060022,-2.366331 2.200388,-5.162584 1.140367,-2.796254 2.125256,-4.987832 2.188642,-4.870174 0.06339,0.117659 0.879218,2.444253 1.81296,5.17021 0.933742,2.725958 1.752803,4.935049 1.820136,4.909091 0.06733,-0.02596 1.441709,-1.683558 3.054171,-3.683558 1.612462,-2 2.995273,-3.658063 3.072915,-3.684584 0.07764,-0.02652 0.271585,2.248542 0.430989,5.055697 0.159403,2.807154 0.335911,5.150003 0.392236,5.20633 0.05633,0.05633 2.044178,-1.337641 4.417445,-3.097706 2.37327,-1.760066 4.35028,-3.164873 4.393359,-3.121794 0.09551,0.09551 -4.926802,11.727962 -5.054913,11.707953 -0.05,-0.0078 -0.990909,-0.479718 -2.090909,-1.048686 l 0,0 z"
         style="fill:#ffffff;fill-opacity:1;fill-rule:evenodd" />
      <path
         inkscape:connector-curvature="0"
         id="path3013"
         d="M 5.3430763,18.726382 4.8530577,18.214913 5.3645269,17.724894 5.8759961,17.234876 6.3660145,17.746345 6.8560331,18.257814 6.344564,18.747833 5.8330949,19.237851 5.3430763,18.726382 Z"
         style="fill:#ffffff;fill-opacity:1;fill-rule:evenodd" />
      <path
         inkscape:connector-curvature="0"
         id="path3015"
         d="m 18.252167,11.999109 -0.490018,-0.511469 0.511469,-0.490018 0.511469,-0.490019 0.490018,0.511469 0.490019,0.51147 -0.511469,0.490018 -0.511469,0.490019 -0.490019,-0.51147 z"
         style="fill:#ffffff;fill-opacity:1;fill-rule:evenodd" />
      <path
         inkscape:connector-curvature="0"
         id="path3017"
         d="m 31.339178,9.9950407 -0.48612,-0.5074004 0.512699,-0.4911969 0.512699,-0.4911969 0.412713,0.4393133 c 0.326563,0.3476097 0.373581,0.5124338 0.225244,0.789603 -0.39775,0.7432042 -0.659554,0.8012202 -1.177235,0.2608779 z"
         style="fill:#ffffff;fill-opacity:1;fill-rule:evenodd" />
      <path
         inkscape:connector-curvature="0"
         id="path3019"
         d="m 44.34259,12.272022 c -0.500866,-0.533148 -0.497613,-0.696059 0.02367,-1.185783 0.530372,-0.498259 0.525116,-0.498935 0.988008,0.12716 l 0.386293,0.522489 -0.500419,0.479433 -0.50042,0.479432 -0.397136,-0.422731 z"
         style="fill:#ffffff;fill-opacity:1;fill-rule:evenodd" />
      <path
         inkscape:connector-curvature="0"
         id="path3021"
         d="m 57.706713,17.090019 -0.490019,-0.51147 0.511469,-0.490018 0.511469,-0.490019 0.490019,0.511469 0.490018,0.51147 -0.511469,0.490018 -0.511469,0.490019 -0.490018,-0.511469 z"
         style="fill:#ffffff;fill-opacity:1;fill-rule:evenodd" />
    </g>
  </g>
</svg>
