<svg width="512" height="512" viewBox="0 0 512 512" fill="none" xmlns="http://www.w3.org/2000/svg">
<path d="M256.562 123.54C155.456 123.54 73.2019 198.384 73.2019 290.376C73.2019 330.738 76.2601 376.535 112.758 409.246C126.73 421.768 148.068 428.921 165.212 434.671C167.396 435.404 169.498 436.11 171.479 436.792C172.524 437.153 172.999 437.317 174.325 444.571C175.746 452.343 177.691 462.986 188.139 472.492C191.937 475.944 203.491 486.461 257.111 487H257.249H257.386C311.006 486.461 322.561 475.947 326.359 472.492C336.804 462.985 338.752 452.343 340.173 444.571C341.499 437.316 341.977 437.152 343.022 436.792C345.003 436.11 347.101 435.407 349.285 434.671C366.43 428.921 387.768 421.768 401.736 409.246C438.238 376.538 441.296 330.736 441.296 290.376C441.289 198.381 358.42 123.54 256.561 123.54H256.562Z" fill="#00173C"/>
<path d="M388.395 396.045C377.827 405.505 358.549 411.962 343.053 417.153C340.706 417.938 338.451 418.692 336.328 419.425C320.927 424.726 318.639 437.23 317.124 445.506C315.975 451.793 314.982 457.225 309.951 461.793C309.077 462.588 300.162 469.553 256.333 470.007C212.505 469.55 203.59 462.588 202.716 461.793C197.689 457.225 196.695 451.793 195.542 445.506C194.029 437.23 191.74 424.726 176.339 419.425C174.213 418.692 171.958 417.938 169.611 417.153C154.118 411.962 134.836 405.505 124.268 396.045C96.4356 371.13 90.8403 336.746 90.8403 289.346C90.8403 206.767 164.757 139.589 255.617 139.589C347.261 139.589 421.822 206.768 421.822 289.346C421.825 336.747 416.23 371.133 388.397 396.045H388.395Z" fill="#FF9CAE"/>
<path d="M181.391 322.169C154.689 322.169 138.101 334.676 138.101 354.807C138.101 377.377 157.927 396.444 181.391 396.444C206.069 396.444 224.681 380.478 224.681 359.306C224.681 338.135 206.07 322.17 181.391 322.17V322.169Z" fill="#810F23"/>
<path d="M333.108 322.169C308.43 322.169 289.819 338.135 289.819 359.305C289.819 380.478 308.43 396.443 333.108 396.443C356.572 396.443 376.398 377.373 376.398 354.806C376.398 334.675 359.811 322.168 333.108 322.168V322.169Z" fill="#810F23"/>
<path d="M269.102 380.293C267.478 375.315 262.341 372.005 256.614 372.258C250.914 372.523 246.153 376.304 245.092 381.407L236.677 421.921C235.41 428.029 239.821 433.916 246.533 435.068C251.919 435.992 257.138 433.597 259.653 429.464C261.83 433.051 266.008 435.268 270.471 435.268C271.637 435.268 272.825 435.116 273.997 434.797C280.546 433.028 284.279 426.762 282.33 420.804L269.102 380.293Z" fill="#810F23"/>
<path d="M257 276.923C155.38 276.923 73 287.031 73 299.5C71.4072 274.417 66.1991 224.826 56.6685 191.234L85.8318 172.068C120.348 239.957 163.133 251.521 138.823 114.294L173.864 101.891C199.003 183.595 236.884 259.009 240.258 76.2276L273.224 75.8986C276.51 261.868 315.191 185.681 340.891 102.941L375.089 114.325C345.327 244.887 389.333 236.043 425.728 171.133L455.482 191.23C446.317 224.822 442.062 274.416 441 299.5C441 287.031 358.62 276.923 257 276.923Z" fill="#00173C"/>
<path d="M437.407 188.393C431.081 213.034 427.165 243.943 424.988 268.927C415.217 266.557 402.956 264.523 389.005 262.811C354.9 258.627 308.237 256.083 257 256.083C205.763 256.083 159.1 258.627 124.995 262.811C110.779 264.556 98.3187 266.635 88.4586 269.063C85.9953 245.731 81.9534 217.116 76.0424 193.303C83.711 206.826 91.9628 218.385 100.325 226.749C105.552 231.978 111.515 236.657 118.042 239.397C124.698 242.191 133.001 243.346 141.311 239.336C149.633 235.321 154.969 227.572 158.182 219.518C161.33 211.626 162.942 202.321 163.601 192.348C164.918 172.384 164.216 149.15 158 114.064C164.423 134.94 170.74 150.823 178.44 167.761C182.279 176.203 186.43 184.16 190.846 190.702C194.934 196.76 200.724 203.865 208.365 207.51C212.536 209.5 217.618 210.62 223.14 209.477C228.68 208.33 233.223 205.202 236.712 201.413C243.099 194.476 246.783 184.463 249.261 174.73C252.717 161.156 255.208 128.152 256.728 103.254C258.252 128.761 260.781 162.205 264.298 176.082C266.812 186.005 270.529 196.101 276.913 203.114C280.391 206.934 284.916 210.107 290.446 211.325C295.97 212.542 301.088 211.499 305.325 209.541C313.088 205.954 318.991 198.823 323.167 192.714C327.673 186.123 331.911 178.091 335.83 169.56C343.188 153.543 350.291 133.849 356.553 114.064C349.731 145.113 346.769 169.658 347.339 188.153C347.877 205.623 352.003 226.822 368.382 235.122C376.439 239.206 384.609 238.408 391.254 235.993C397.809 233.611 403.91 229.337 409.338 224.442C418.961 215.763 428.561 203.226 437.407 188.393Z" fill="#66B6FF"/>
<circle cx="56.5" cy="156.5" r="37.5" fill="#00173C"/>
<circle cx="56.5" cy="156.5" r="18.5" fill="#66B6FF"/>
<circle cx="255.5" cy="61.5" r="37.5" fill="#00173C"/>
<circle cx="255.5" cy="61.5" r="18.5" fill="#66B6FF"/>
<circle cx="454.5" cy="156.5" r="37.5" fill="#00173C"/>
<circle cx="454.5" cy="156.5" r="18.5" fill="#66B6FF"/>
<circle cx="364.5" cy="81.5" r="37.5" fill="#00173C"/>
<circle cx="364.5" cy="81.5" r="18.5" fill="#66B6FF"/>
<circle cx="146.5" cy="81.5" r="37.5" fill="#00173C"/>
<circle cx="146.5" cy="81.5" r="18.5" fill="#66B6FF"/>
</svg>
