<svg xmlns="http://www.w3.org/2000/svg" viewBox="0 0 22 22"><defs><clipPath clipPathUnits="userSpaceOnUse" id="b"><path d="M0 0h936.12v612.12H0z" clip-rule="evenodd"/></clipPath><filter id="a" color-interpolation-filters="sRGB"><feFlood flood-opacity=".498" flood-color="#000" result="flood"/><feComposite in="flood" in2="SourceGraphic" operator="in" result="composite1"/><feGaussianBlur in="composite1" stdDeviation="1" result="blur"/><feOffset dx="5" dy="3" result="offset"/><feComposite in="SourceGraphic" in2="offset" result="composite2"/></filter></defs><g transform="translate(-107.147 -25.23) scale(.26458)" opacity=".99" stroke-width=".435" filter="url(#a)"><path d="m446.472 98-19.256 5.892-10.271 61.433H476l-10.259-61.359z" fill="#fee572"/><path d="M416.945 165.325v5.668H476v-5.669z" fill="#c3983c" fill-opacity=".992"/></g><path d="m10.268 15.05.215-1.36.459-.128.44.122.23 1.367z" fill="red" fill-rule="evenodd"/><path d="m10.268 15.05.215-1.36.459-.128.44.122.23 1.367z" fill="none"/><path d="M13.109 14.306a.596.596 0 1 1 1.191 0 .596.596 0 0 1-1.191 0z" fill="red" fill-rule="evenodd"/><path d="M13.109 14.306a.596.596 0 1 1 1.191 0 .596.596 0 0 1-1.191 0z" fill="none"/><path d="M7.63 14.306a.596.596 0 1 1 1.191 0 .596.596 0 0 1-1.191 0z" fill="red" fill-rule="evenodd"/><path d="M7.63 14.306a.596.596 0 1 1 1.191 0 .596.596 0 0 1-1.191 0z" fill="none"/><path d="M13.109 11.596a.596.596 0 1 1 1.191.001.596.596 0 0 1-1.191 0z" fill="red" fill-rule="evenodd"/><path d="M13.109 11.596a.596.596 0 1 1 1.191.001.596.596 0 0 1-1.191 0z" fill="none"/><path d="M7.63 11.596a.596.596 0 1 1 1.192.001.596.596 0 0 1-1.192 0z" fill="red" fill-rule="evenodd"/><path d="M7.63 11.596a.596.596 0 1 1 1.192.001.596.596 0 0 1-1.192 0z" fill="none"/><path d="M10.354 11.596a.596.596 0 1 1 1.192.001.596.596 0 0 1-1.192 0z" fill="red" fill-rule="evenodd"/><path d="M10.354 11.596a.596.596 0 1 1 1.192.001.596.596 0 0 1-1.192 0z" fill="none"/><path d="M10.354 17.115a.596.596 0 1 1 1.192 0 .596.596 0 0 1-1.192 0z" fill="red" fill-rule="evenodd"/><path d="M10.354 17.115a.596.596 0 1 1 1.192 0 .596.596 0 0 1-1.192 0z" fill="none"/><path d="m9.962 15.466.321-2.028.682-.193.659.183.344 2.038z" fill="red" fill-rule="evenodd"/><path d="m9.962 15.466.321-2.028.682-.193.659.183.344 2.038z" fill="none"/><g clip-path="url(#b)" transform="matrix(.28405 0 0 -.28405 -165.987 40.692)" stroke-width="1.242"><path d="M634.872 125.026q0-.281-.188-.563-.625-.407-1.439-.626-.782-.219-1.533-.406-.532-.22-1.565-.626-1.22-.47-3.41-1.033l-.532.063 1.94 1.815q1.22 1.189 1.345 2.159-.406.406-2.597.406-4.036 0-7.165-1.658-2.753-1.44-5.663-4.725l-1.44-1.69q-.876-1-1.564-1.501-.907.626-.907 2.44 0 .94 1.376 2.785.126.188 3.098 3.567 2.378 2.691 3.004 3.442 1.783 2.19 2.597 3.723-.47.939-1.001 1.22.438.22.844.439.595.281.845.281 1.502 0 2.128-.938 0-1.471-1.252-3.098-.406-.563-2.503-2.785-1.564-1.658-2.002-2.722 3.003 1.909 5.319 2.628 2.472.783 5.85.783 1.159 0 2.003-.126 1.033-.156 2.66-1.22 1.752-1.157 1.752-2.034zm-5.538-16.677q0-1.126-1.345-1.126-.188 0-.439.031-2.19.407-4.005.407-2.66 0-6.195-1.596-1.251.376-1.314 2.253l2.315 1.846q-.093.094-1.97 1.064-1.534.782-1.534 1.408 0 .845 1.19 1.909.97.876 1.97 1.345 2.378 1.126 2.597 1.252 1.283.876 1.283 2.378 0 .312-.062.625-1.002-.5-2.41-.5-.782 0-1.533.187l-.47.376q1.002.375 2.066 1.564 1.314 1.44 1.815 1.784.313.219.938.219 2.284 0 3.473-.782v-.25q.032-.626-.344-1.127-.344-.47-.72-.939-.437-.813-.5-2.534.125-.188 1.158-.438 1.063-.22 1.439-.657.031-.157.031-.313 0-1.001-2.284-3.38-2.66-2.753-3.004-3.441 1.784.532 4.13.532 3.724 0 3.724-2.097zm-7.885 7.385q-3.63-.658-4.63-2.785.187-.595 2.283-.72 1.44.532 2.347 3.505z" aria-label="全" font-weight="400" font-size="32.04" font-family="HakusyuSousyo_kk" fill="red"/></g></svg>