<svg xmlns="http://www.w3.org/2000/svg" viewBox="0 0 22 22"><defs><clipPath clipPathUnits="userSpaceOnUse" id="b"><path d="M0 0h936.12v612.12H0z" clip-rule="evenodd"/></clipPath><filter id="a" color-interpolation-filters="sRGB"><feFlood flood-opacity=".498" flood-color="#000" result="flood"/><feComposite in="flood" in2="SourceGraphic" operator="in" result="composite1"/><feGaussianBlur in="composite1" stdDeviation="1" result="blur"/><feOffset dx="5" dy="3" result="offset"/><feComposite in="SourceGraphic" in2="offset" result="composite2"/></filter></defs><g transform="translate(-149.731 -25.23) scale(.26458)" opacity=".99" stroke-width=".435" filter="url(#a)"><path d="m607.424 100-17.367 5.643-9.208 58.137 53.151-.001-9.208-58.136z" fill="#fee572"/><path d="M580.849 163.78v5.668H634v-5.67z" fill="#c3983c" fill-opacity=".992"/></g><path d="m10.452 14.645.215-1.36.458-.129.441.123.23 1.366z" fill="red" fill-rule="evenodd"/><path d="m10.452 14.645.215-1.36.458-.129.441.123.23 1.366z" fill="none"/><path d="M13.292 13.9a.596.596 0 1 1 1.192.001.596.596 0 0 1-1.192 0z" fill="red" fill-rule="evenodd"/><path d="M13.292 13.9a.596.596 0 1 1 1.192.001.596.596 0 0 1-1.192 0z" fill="none"/><path d="M7.814 13.9a.596.596 0 1 1 1.191.001.596.596 0 0 1-1.191 0z" fill="red" fill-rule="evenodd"/><path d="M7.814 13.9a.596.596 0 1 1 1.191.001.596.596 0 0 1-1.191 0z" fill="none"/><path d="M13.292 11.191a.596.596 0 1 1 1.192 0 .596.596 0 0 1-1.192 0z" fill="red" fill-rule="evenodd"/><path d="M13.292 11.191a.596.596 0 1 1 1.192 0 .596.596 0 0 1-1.192 0z" fill="none"/><path d="M7.814 11.191a.596.596 0 1 1 1.191 0 .596.596 0 0 1-1.191 0z" fill="red" fill-rule="evenodd"/><path d="M7.814 11.191a.596.596 0 1 1 1.191 0 .596.596 0 0 1-1.191 0z" fill="none"/><path d="M10.538 11.191a.596.596 0 1 1 1.192 0 .596.596 0 0 1-1.192 0z" fill="red" fill-rule="evenodd"/><path d="M10.538 11.191a.596.596 0 1 1 1.192 0 .596.596 0 0 1-1.192 0z" fill="none"/><path d="M10.538 16.71a.596.596 0 1 1 1.191 0 .596.596 0 0 1-1.191 0z" fill="red" fill-rule="evenodd"/><path d="M10.538 16.71a.596.596 0 1 1 1.191 0 .596.596 0 0 1-1.191 0z" fill="none"/><path d="m10.174 15.06.32-2.028.683-.192.66.183.343 2.038z" fill="red" fill-rule="evenodd"/><path d="m10.174 15.06.32-2.028.683-.192.66.183.343 2.038z" fill="none"/><g clip-path="url(#b)" transform="matrix(.28405 0 0 -.28405 -222.964 39.925)" stroke-width="1.242"><path d="M817.292 125.451q.6 0 1.638-.437 1.338-.6 2.075-1.91.383-.71.956-2.595.546-1.775 1.12-2.621.764 0 2.785 2.102 1.938 2.021 2.157 2.813l-.41.874q.11 0 .492.081.327.028.518.028.765 0 1.884-1.284 1.12-1.283 1.093-2.075v-.19q-.738-.383-2.076-1.257-1.365-1.229-4.123-3.44-.464-.273-1.31-.792-.328-.191-.82-.792-.436-.491-.928-.71-2.757-2.73-2.757-4.15 0-1.557 3.33-1.557 1.584 0 3.878.601 3.631 1.01 3.795 1.038.792-.3 1.557-.574.846-.355 1.146-1.065 0-.655-.546-1.01-.518-.355-2.239-.9-1.583-.574-2.32-.71-1.393-.274-3.496-.274-2.675 0-4.614.929-2.567 1.174-2.567 3.522 0 1.775 1.366 3.768l2.402 3.331q-.71 1.31-1.283 2.457-.764 1.857-1.556 3.687-1.092 2.348-2.403 2.812.082.3 1.256.3z" aria-label="と" font-weight="400" font-size="27.96" font-family="HakusyuKaisyo" fill="red"/></g></svg>