<svg xmlns="http://www.w3.org/2000/svg" xmlns:xlink="http://www.w3.org/1999/xlink" width="83" height="83" viewBox="0 0 21.96 21.96"><defs><filter id="b" color-interpolation-filters="sRGB"><feFlood flood-opacity=".498" flood-color="#000" result="flood"/><feComposite in="flood" in2="SourceGraphic" operator="in" result="composite1"/><feGaussianBlur in="composite1" stdDeviation="1" result="blur"/><feOffset dx="5" dy="3" result="offset"/><feComposite in="SourceGraphic" in2="offset" result="composite2"/></filter><linearGradient id="a"><stop offset="0" stop-color="#e5c37b"/><stop offset=".042" stop-color="#e4bd76"/><stop offset=".093" stop-color="#e7c781"/><stop offset=".165" stop-color="#e2b86e"/><stop offset=".305" stop-color="#e6c686"/><stop offset=".539" stop-color="#dfb96f"/><stop offset=".586" stop-color="#ddbb73"/><stop offset=".84" stop-color="#e7ce8f"/><stop offset=".924" stop-color="#e1bd73"/><stop offset=".962" stop-color="#e0bf78"/><stop offset="1" stop-color="#e7c685"/></linearGradient><filter id="c" color-interpolation-filters="sRGB"><feFlood flood-opacity=".498" flood-color="#000" result="flood"/><feComposite in="flood" in2="SourceGraphic" operator="in" result="composite1"/><feGaussianBlur in="composite1" stdDeviation="1" result="blur"/><feOffset dx="5" dy="3" result="offset"/><feComposite in="SourceGraphic" in2="offset" result="composite2"/></filter><filter id="d" color-interpolation-filters="sRGB"><feFlood flood-opacity=".498" flood-color="#000" result="flood"/><feComposite in="flood" in2="SourceGraphic" operator="in" result="composite1"/><feGaussianBlur in="composite1" stdDeviation="1" result="blur"/><feOffset dx="5" dy="3" result="offset"/><feComposite in="SourceGraphic" in2="offset" result="composite2"/></filter><linearGradient xlink:href="#a" id="e" x1="104.094" y1="54.226" x2="152.758" y2="54.226" gradientUnits="userSpaceOnUse"/><clipPath clipPathUnits="userSpaceOnUse" id="f"><path d="M0 0h936.12v612.12H0z" clip-rule="evenodd"/></clipPath><clipPath clipPathUnits="userSpaceOnUse" id="g"><path d="M0 0h936.12v612.12H0z" clip-rule="evenodd"/></clipPath><clipPath clipPathUnits="userSpaceOnUse" id="h"><path d="M0 0h936.12v612.12H0z" clip-rule="evenodd"/></clipPath></defs><g transform="matrix(.26458 0 0 .26458 -80.392 -42.75)" opacity=".99" stroke-width=".435" filter="url(#b)"><path d="M590.056 254.357v-3.78l17.368 5.643 17.344-5.635v3.78L607.424 260z" fill="#c3983c" fill-opacity=".992"/><path d="M624.768 252.585L634 194.441h-53.151l9.207 58.137 17.368 5.642z" fill="#feec99"/></g><g transform="matrix(.26458 0 0 .26458 -80.392 -43.808)" opacity=".99" stroke-width=".435" filter="url(#c)"><path d="M589.491 348.833v-3.78l17.934 5.167 17.533-5.566v3.78L607.425 354z" fill="#c3983c" fill-opacity=".992"/><path d="M624.958 346.654L634 288.441h-53.151l8.642 58.613 17.934 5.166z" fill="#feec99"/></g><g transform="matrix(.26458 0 0 .26458 -128.409 -73.097)" opacity=".99" stroke-width=".435" filter="url(#d)"><path d="M507.891 344.726v-3.78l18.944 7.012 18.943-7.01v3.779l-18.943 7.01z" fill="#c3983c" fill-opacity=".992"/><path d="M526.835 349.958l18.943-7.01L554 283.815h-54.33l8.221 59.13z" fill="#feec99"/></g><path d="M80.847 11.583l-.193 1.23-.414.117-.4-.112-.209-1.235z" fill-rule="evenodd"/><path d="M80.847 11.583l-.193 1.23-.414.117-.4-.112-.209-1.235z" fill="none"/><path d="M80.77 14.705a.538.538 0 1 1-1.077 0 .538.538 0 0 1 1.077 0z" fill-rule="evenodd"/><path d="M80.77 14.705a.538.538 0 1 1-1.077 0 .538.538 0 0 1 1.077 0z" fill="none"/><path d="M81.243 11.146l-.32 2.03-.683.19-.66-.182-.342-2.038z" fill-rule="evenodd"/><path d="M81.243 11.146l-.32 2.03-.683.19-.66-.182-.342-2.038z" fill="none"/><path d="M11.697 5.452l-.216 1.36-.458.129-.441-.123-.23-1.366z" fill="red" fill-rule="evenodd"/><path d="M11.697 5.452l-.216 1.36-.458.129-.441-.123-.23-1.366z" fill="none"/><path d="M8.856 6.196a.596.596 0 1 1-1.192 0 .596.596 0 0 1 1.192 0z" fill="red" fill-rule="evenodd"/><path d="M8.856 6.196a.596.596 0 1 1-1.192 0 .596.596 0 0 1 1.192 0z" fill="none"/><path d="M14.335 6.196a.596.596 0 1 1-1.192 0 .596.596 0 0 1 1.192 0z" fill="red" fill-rule="evenodd"/><path d="M14.335 6.196a.596.596 0 1 1-1.192 0 .596.596 0 0 1 1.192 0z" fill="none"/><path d="M8.856 8.906a.596.596 0 1 1-1.192 0 .596.596 0 0 1 1.192 0z" fill="red" fill-rule="evenodd"/><path d="M8.856 8.906a.596.596 0 1 1-1.192 0 .596.596 0 0 1 1.192 0z" fill="none"/><path d="M14.335 8.906a.596.596 0 1 1-1.192 0 .596.596 0 0 1 1.192 0z" fill="red" fill-rule="evenodd"/><path d="M14.335 8.906a.596.596 0 1 1-1.192 0 .596.596 0 0 1 1.192 0z" fill="none"/><path d="M11.61 8.906a.596.596 0 1 1-1.191 0 .596.596 0 0 1 1.192 0z" fill="red" fill-rule="evenodd"/><path d="M11.61 8.906a.596.596 0 1 1-1.191 0 .596.596 0 0 1 1.192 0z" fill="none"/><path d="M11.61 3.388a.596.596 0 1 1-1.191 0 .596.596 0 0 1 1.192 0z" fill="red" fill-rule="evenodd"/><path d="M11.61 3.388a.596.596 0 1 1-1.191 0 .596.596 0 0 1 1.192 0z" fill="none"/><path d="M11.972 5.037l-.32 2.028-.683.192-.658-.183-.342-2.037z" fill="red" fill-rule="evenodd"/><path d="M11.972 5.037l-.32 2.028-.683.192-.658-.183-.342-2.037z" fill="none"/><path d="M80.986 35.794l-.216 1.36-.458.13-.441-.123-.23-1.367z" fill="red" fill-rule="evenodd"/><path d="M80.986 35.794l-.216 1.36-.458.13-.441-.123-.23-1.367z" fill="none"/><path d="M78.145 36.539a.596.596 0 1 1-1.191 0 .596.596 0 0 1 1.191 0z" fill="red" fill-rule="evenodd"/><path d="M78.145 36.539a.596.596 0 1 1-1.191 0 .596.596 0 0 1 1.191 0z" fill="none"/><path d="M83.624 36.539a.596.596 0 1 1-1.192 0 .596.596 0 0 1 1.192 0z" fill="red" fill-rule="evenodd"/><path d="M83.624 36.539a.596.596 0 1 1-1.192 0 .596.596 0 0 1 1.192 0z" fill="none"/><path d="M78.145 39.249a.596.596 0 1 1-1.192-.001.596.596 0 0 1 1.192 0z" fill="red" fill-rule="evenodd"/><path d="M78.145 39.249a.596.596 0 1 1-1.192-.001.596.596 0 0 1 1.192 0z" fill="none"/><path d="M83.624 39.249a.596.596 0 1 1-1.192-.001.596.596 0 0 1 1.192 0z" fill="red" fill-rule="evenodd"/><path d="M83.624 39.249a.596.596 0 1 1-1.192-.001.596.596 0 0 1 1.192 0z" fill="none"/><path d="M80.9 39.249a.596.596 0 1 1-1.192-.001.596.596 0 0 1 1.192 0z" fill="red" fill-rule="evenodd"/><path d="M80.9 39.249a.596.596 0 1 1-1.192-.001.596.596 0 0 1 1.192 0z" fill="none"/><path d="M80.9 33.73a.596.596 0 1 1-1.192 0 .596.596 0 0 1 1.192 0z" fill="red" fill-rule="evenodd"/><path d="M80.9 33.73a.596.596 0 1 1-1.192 0 .596.596 0 0 1 1.192 0z" fill="none"/><path d="M81.263 35.38l-.32 2.027-.682.193-.661-.183-.342-2.038z" fill="red" fill-rule="evenodd"/><path d="M81.263 35.38l-.32 2.027-.682.193-.661-.183-.342-2.038z" fill="none"/><g clip-path="url(#f)" transform="matrix(-.28405 0 0 .28405 216.326 -19.438)" stroke-width="1.242"><path d="M729.677 120.538c-.334-.438-1.085-.918-2.253-1.44-1.147-.5-1.783-.834-1.909-1 .167-1.356.209-2.378.126-3.067.646-.563 1.032-1.147 1.157-1.752-.187-.667-.709-1.512-1.564-2.534-.855-1.002-1.387-1.794-1.596-2.378.376-.376 1.335-.751 2.879-1.127 1.376-.334 2.315-.918 2.816-1.752-.021-.334-.334-.605-.939-.813-.605-.23-2.19-.585-4.756-1.064-2.566-.5-4.099-.751-4.6-.751-.896 0-1.46.448-1.69 1.345.105.5.439 1.074 1.002 1.721.647.71 1.043 1.262 1.19 1.658-.21.167-.856.272-1.94.313-.981.021-1.471.48-1.471 1.377 0 .584.323 1.241.97 1.971.667.751 1.637 1.481 2.91 2.19 1.084.585 2.169 1.158 3.254 1.721.125.605.187 1.158.187 1.659 0 .208-.01.386-.031.532-.563-.167-1.898-.783-4.005-1.846-1.606-.814-2.993-1.21-4.161-1.19h-.22c-.375.188-.563.46-.563.814 0 .668.929 1.742 2.785 3.223v-.532l-.219-.688c.814.208 1.93.709 3.348 1.501 1.335.751 2.357 1.43 3.066 2.034.105.271.157.532.157.782 0 .23-.052.439-.157.626-1.543-1.001-2.962-1.658-4.255-1.971l4.068 4.005c-.835.125-1.586.5-2.253 1.126-.668.647-1.001 1.377-1.001 2.19 0 .355.187.991.563 1.91l.813 1.94c.5-.147 1.074-.418 1.721-.814.793-.48 1.19-.908 1.19-1.283 0-.146-.21-.47-.627-.97-.417-.5-.625-.907-.625-1.22 0-.105.01-.199.03-.282.189-.042.408-.063.658-.063.25 0 .636.021 1.158.063.521.042.917.063 1.189.063 1.585 0 2.346-.49 2.284-1.471v-.219c-.355-.25-1.054-.647-2.097-1.189-.897-.459-1.564-.887-2.002-1.283.542-.292 1.345-.553 2.41-.782a52.692 52.692 0 0 1 1.72-.157c.563-.104.99-.48 1.283-1.126zm-7.009-7.478v.063c-2.107-.584-3.63-1.398-4.568-2.441-.334-.375-.5-.688-.5-.939 0-.146.083-.25.25-.313a1.94 1.94 0 0 1 .469-.062c1.043 0 2.034.365 2.972 1.095.96.75 1.419 1.617 1.377 2.597zm.5-6.57c0 .291-.083.594-.25.907-.688-.751-1.251-1.325-1.69-1.721a.693.693 0 0 1 .22-.032c.396 0 .96.188 1.69.564.02.083.03.177.03.281z" aria-label="金" font-weight="400" font-size="32.04" font-family="HakusyuSousyo_kk" fill="red"/></g><g clip-path="url(#g)" transform="matrix(-.28405 0 0 .28405 314.352 -47.013)" stroke-width="1.242"><path d="M824.265 249.16q.383 0 1.311-.356.928-.328 1.174-.573.027-.219.027-.41 0-.464-.19-.655l-.055-2.485q.792 0 3.222 1.038.273-.082 1.365-.082.41 0 .737-.273.328-.246.3-.628v-.055q-.436-.437-1.092-.519-.628-.082-1.228-.136-2.895-.355-3.25-.519-.273-.273-.273-1.474 0-.246-.355-1.284l.574-.027 5.515.874q.656.109 1.72-.328.929-.382 1.53-.928l.054-1.065q-.655-.437-1.147-.437-.355 0-1.638.355-1.256.355-1.939.355-3.959 0-5.843-.929.519-.109 1.038-.245.519-.11.628-.71-.3-1.147-.3-1.993l-.083-.983q.028.163.082-.492l.055-.983q.055-.573.328-.874l2.266 2.24-.382.545q.109.601 1.092.601.218-.191.819-.218l.874-.055-2.157 2.403q3.85-.628 5.488-2.321v-.11q.027-.354-.3-.682-.41-.382-.465-.546h-.136q-.246-.027-.737.219-.492.273-.683.273l-.273-.656q-.765-.19-1.638-1.01-.656-.683-1.338-1.365-.464-.3-1.365-1.038-.465-.519-1.393-1.447-.41-.382-1.529-1.174-.737-.628-2.239-1.72-.983-.601-1.666-.929-.546-.163-1.583-.6-.601-.328-1.174-.656-.792-.382-1.284-.382-.19 0-.6.11l-.765-.192-.519.137q4.232 1.966 9.53 6.58-.41.901-1.038 1.475l-1.201 1.201q.873.246 2.239.683.027.245.027.464 0 .218-.082.655-.055.464-.055.71 0 1.283-.19 1.693-.165.437-1.148 1.174-.163 0-2.512-.437-1.665-.328-2.43-.573-1.583-.464-2.184-1.147l-.792-.3q-.737.3-1.31 1.037-.547.737-.574 1.502l.847-.055q.655-.464.819-.464.054 0 5.324 1.365l.546.383q-.382.163-.382.6 0 .137.027.437.055.328.055.464 0 2.813-.874 3.25l.137.082.027.109-.11.19.765.083q.137-.164 1.147-.382.846-.164.983-.82-.11-1.146-.546-3.74 1.42 0 2.648.491l-.436 1.147.163 3.823q-.109.273-.136.983 0 .71-.11.9-.327.465-.9 1.311.054.52 1.146.52zm-5.98-12.807q.301 0 .41-.246.055-.109.273-1.037.219-.901.219-1.038 0-.9-.383-1.665-.436-.847-1.174-1.174-.846.491-.846 1.392 0 .655.764 1.83.765 1.174.738 1.938z" aria-label="歩" font-weight="400" font-size="27.96" font-family="HakusyuKaisyo" stroke-width=".992" stroke-linejoin="round" stroke-miterlimit="10"/></g><g clip-path="url(#h)" transform="matrix(-.28405 0 0 .28405 314.401 10.515)" stroke-width="1.242"><path d="M817.292 125.451q.6 0 1.638-.437 1.338-.6 2.075-1.91.383-.71.956-2.595.546-1.775 1.12-2.621.764 0 2.785 2.102 1.938 2.021 2.157 2.813l-.41.874q.11 0 .492.081.327.028.518.028.765 0 1.884-1.284 1.12-1.283 1.093-2.075v-.19q-.738-.383-2.076-1.257-1.365-1.229-4.123-3.44-.464-.273-1.31-.792-.328-.191-.82-.792-.436-.491-.928-.71-2.757-2.73-2.757-4.15 0-1.557 3.33-1.557 1.584 0 3.878.601 3.631 1.01 3.795 1.038.792-.3 1.557-.574.846-.355 1.146-1.065 0-.655-.546-1.01-.518-.355-2.239-.9-1.583-.574-2.32-.71-1.393-.274-3.496-.274-2.675 0-4.614.929-2.567 1.174-2.567 3.522 0 1.775 1.366 3.768l2.402 3.331q-.71 1.31-1.283 2.457-.764 1.857-1.556 3.687-1.092 2.348-2.403 2.812.082.3 1.256.3z" aria-label="と" font-weight="400" font-size="27.96" font-family="HakusyuKaisyo" fill="red"/></g></svg>