<?xml version="1.0" encoding="UTF-8" standalone="no"?>
<svg
   xmlns:dc="http://purl.org/dc/elements/1.1/"
   xmlns:cc="http://creativecommons.org/ns#"
   xmlns:rdf="http://www.w3.org/1999/02/22-rdf-syntax-ns#"
   xmlns:svg="http://www.w3.org/2000/svg"
   xmlns="http://www.w3.org/2000/svg"
   xmlns:xlink="http://www.w3.org/1999/xlink"
   xmlns:sodipodi="http://sodipodi.sourceforge.net/DTD/sodipodi-0.dtd"
   xmlns:inkscape="http://www.inkscape.org/namespaces/inkscape"
   width="60"
   height="60"
   version="1.1"
   id="svg49"
   sodipodi:docname="0FU.svg"
   inkscape:version="1.0.1 (3bc2e813f5, 2020-09-07)">
  <metadata
     id="metadata53">
    <rdf:RDF>
      <cc:Work
         rdf:about="">
        <dc:format>image/svg+xml</dc:format>
        <dc:type
           rdf:resource="http://purl.org/dc/dcmitype/StillImage" />
      </cc:Work>
    </rdf:RDF>
  </metadata>
  <sodipodi:namedview
     pagecolor="#ffffff"
     bordercolor="#666666"
     borderopacity="1"
     objecttolerance="10"
     gridtolerance="10"
     guidetolerance="10"
     inkscape:pageopacity="0"
     inkscape:pageshadow="2"
     inkscape:window-width="1366"
     inkscape:window-height="711"
     id="namedview51"
     showgrid="false"
     inkscape:zoom="9.1"
     inkscape:cx="30"
     inkscape:cy="30"
     inkscape:window-x="0"
     inkscape:window-y="0"
     inkscape:window-maximized="1"
     inkscape:current-layer="svg49" />
  <defs
     id="defs33">
    <filter
       id="b">
      <feGaussianBlur
         in="SourceAlpha"
         result="blur"
         stdDeviation="2"
         id="feGaussianBlur2" />
      <feOffset
         result="offsetBlur"
         dx="2"
         dy="2"
         id="feOffset4" />
      <feBlend
         in="SourceGraphic"
         in2="offsetBlur"
         id="feBlend6" />
    </filter>
    <linearGradient
       id="a">
      <stop
         offset="0"
         stop-color="#dfb459"
         id="stop9" />
      <stop
         offset=".076"
         stop-color="#dead54"
         id="stop11" />
      <stop
         offset=".123"
         stop-color="#e1b85f"
         id="stop13" />
      <stop
         offset=".212"
         stop-color="#dba84d"
         id="stop15" />
      <stop
         offset=".305"
         stop-color="#dfb765"
         id="stop17" />
      <stop
         offset=".539"
         stop-color="#d8a94e"
         id="stop19" />
      <stop
         offset=".586"
         stop-color="#d5ab53"
         id="stop21" />
      <stop
         offset=".84"
         stop-color="#e0bf6e"
         id="stop23" />
      <stop
         offset=".924"
         stop-color="#daae52"
         id="stop25" />
      <stop
         offset=".962"
         stop-color="#d9af57"
         id="stop27" />
      <stop
         offset="1"
         stop-color="#e1b663"
         id="stop29" />
    </linearGradient>
    <linearGradient
       xlink:href="#a"
       id="c"
       x1="-29.351"
       y1="30.267"
       x2="-11.018"
       y2="30.267"
       gradientUnits="userSpaceOnUse"
       spreadMethod="repeat" />
    <linearGradient
       inkscape:collect="always"
       xlink:href="#a"
       id="linearGradient878"
       gradientUnits="userSpaceOnUse"
       x1="-29.351"
       y1="30.267"
       x2="-11.018"
       y2="30.267"
       spreadMethod="repeat" />
  </defs>
  <g
     transform="matrix(0.84306,0,0,0.84306,38.887959,4.483)"
     filter="url(#b)"
     fill="url(#c)"
     id="g39"
     style="fill:url(#c)">
    <path
       d="m -10.282,7.519 -12.837,3.607 -7.052,44.45 H 9.764 L 2.974,11.413 2.295,10.133 2.485,11.27 C -1.77,10.02 -6.029,8.766 -10.282,7.519 Z"
       fill="#815e0c"
       id="path35" />
    <path
       d="m -10.96,6.237 -12.838,3.608 -7.051,44.451 H 9.085 L 2.295,10.133 C -2.123,8.835 -6.544,7.533 -10.96,6.237 Z"
       id="path37"
       style="fill:url(#linearGradient878)" />
  </g>
  <g
     stroke-linejoin="round"
     stroke="#000000"
     stroke-width="1.313"
     paint-order="stroke fill markers"
     id="g45"
     transform="translate(3.9216613)">
    <path
       d="m -23.356,37.944 c -2.134,9.081 -4.332,14.438 -13.39,20.588 8.914,3.135 18.701,2.896 26.78,0 -9.058,-6.15 -11.255,-11.507 -13.39,-20.588 z"
       transform="matrix(0.42483,0,0,0.5171,35.89,-3.465)"
       id="path41" />
    <path
       d="m -26.818,58.55 c -0.101,8.756 -0.37,15.837 -11.545,21.428 -5.232,2.786 -6.963,4.476 -7.615,9.333 6.785,1.493 14.837,2.21 22.883,2.179 8.046,0.031 16.097,-0.686 22.882,-2.18 C -0.864,84.454 -2.595,82.764 -7.828,79.978 -19.002,74.387 -19.271,67.306 -19.373,58.55 v 0 c -1.24,0.02 -2.481,0.02 -3.722,0.02 -1.241,0 -2.482,0 -3.723,-0.02 z"
       transform="matrix(0.42483,0,0,0.5171,35.89,-3.465)"
       id="path43" />
  </g>
  <path
     d="m 12.8805,50.258 0.571,1.08 h 33.668 l -0.572,-1.08 z"
     fill="#654b13"
     id="path47" />
</svg>
