<svg xmlns="http://www.w3.org/2000/svg" xmlns:xlink="http://www.w3.org/1999/xlink" width="60" height="60"><defs><linearGradient id="a"><stop offset="0" stop-color="#dfb459"/><stop offset=".041" stop-color="#dead54"/><stop offset=".082" stop-color="#e1b85f"/><stop offset=".165" stop-color="#dba84d"/><stop offset=".305" stop-color="#dfb765"/><stop offset=".539" stop-color="#d8a94e"/><stop offset=".586" stop-color="#d5ab53"/><stop offset=".84" stop-color="#e0bf6e"/><stop offset=".924" stop-color="#daae52"/><stop offset=".962" stop-color="#d9af57"/><stop offset="1" stop-color="#e1b663"/></linearGradient><linearGradient xlink:href="#a" id="c" x1="-30.849" y1="30.267" x2="-15.094" y2="30.267" gradientUnits="userSpaceOnUse" spreadMethod="repeat" gradientTransform="translate(40.882 -.267)"/><filter id="b"><feGaussianBlur in="SourceAlpha" result="blur" stdDeviation="2"/><feOffset result="offsetBlur" dx="2" dy="2"/><feBlend in="SourceGraphic" in2="offsetBlur"/></filter></defs><g transform="translate(41.197 .902)" fill="#75581b" filter="url(#b)"><path d="M-10.96 6.237l-12.84 3.61-6.865 43.278-.814.002.629 1.168H9.084C6.781 39.41 5.01 23.745 2.295 10.133l-.629-1.17.203 1.045-12.83-3.771z" fill="#84631f"/></g><path d="M29.922 5.97L17.084 9.578l-7.051 44.45h39.934c-2.303-14.885-4.076-30.55-6.79-44.163z" fill="url(#c)"/><path d="M9.719 54.03l.628 1.167h39.934l-.628-1.168z" fill="#654b13"/><path d="M15.281 49.04l-.327 2.155H45.06l-.26-2.22z" stroke="#000" stroke-width=".739"/><g style="line-height:1.25;-inkscape-font-specification:KaiTi"><path style="-inkscape-font-specification:'cwTeX Q Kai'" d="M24.449 21.268c-1.722 0-4.415-.63-5.248-1.463 0-.194 1.498-.12 1.665-.204.194-.083.611-.153 1.25-.208.667-.084 1.43-.167 2.292-.25.889-.084 2.222-.278 4-.584 1.777-.305 3.694-.694 5.75-1.166a5.693 5.693 0 011.458-.167c1.222 0 2.153.375 2.792 1.125.027.278-.028.5-.167.667-.139.139-.458.277-.958.416-.5.111-1.028.209-1.584.292-.527.056-1.375.18-2.541.375-1.167.194-2.306.403-3.417.625.694.361 1.042.917 1.042 1.667l-.209 2.25-.125 4.041v.042l4.004-.58c.167-.027 1.309-.253 1.587-.253 1.083 0 1.875.347 2.375 1.041-.028.39-.542.723-1.542 1-1 .278-3.243.5-4.465.667-1.223.139-1.861.222-1.917.25l-.125.208-.25 8.209c3.25-.223 5.93-.473 8.042-.75l3.583-.625h.292c.805 0 1.652.43 2.541 1.291.917.834 1.375 1.473 1.375 1.917-.11.194-.389.292-.833.292-.417 0-2.236-.153-5.458-.459l-2.667-.166c-2.306 0-5.528.194-9.667.583-4.139.389-6.357.784-7.857 1.256l-1.875.542a.682.682 0 00-.166.042h-.167c-.555 0-1.153-.209-1.792-.625-.638-.417-1.11-.89-1.416-1.417 0-.306.083-.528.25-.667l.19.036c1.611.3 3.833-.167 6.583-.5 2.75-.334 5-.5 6.75-.5h.167l.125-8.25-3.75.25c-1.222-.028-2.917-.234-3.528-.9 0-.306.18-.473.541-.5l2.654-.267 4.041-.542v-6.083c0-.806-.264-1.514-.791-2.125-1 .111-1.945.167-2.834.167z" font-size="42.667" font-family="'cwTeX Q Kai'" stroke="#000" aria-label="王" font-weight="400" letter-spacing="0" word-spacing="0"/></g></svg>