<svg xmlns="http://www.w3.org/2000/svg" xmlns:xlink="http://www.w3.org/1999/xlink" viewBox="0 0 60 60"><defs><linearGradient id="a"><stop offset="0" stop-color="#dfb459"/><stop offset=".033" stop-color="#dead54"/><stop offset=".093" stop-color="#e1b85f"/><stop offset=".165" stop-color="#dba84d"/><stop offset=".305" stop-color="#dfb765"/><stop offset=".539" stop-color="#d8a94e"/><stop offset=".586" stop-color="#d5ab53"/><stop offset=".84" stop-color="#e0bf6e"/><stop offset=".924" stop-color="#daae52"/><stop offset=".962" stop-color="#d9af57"/><stop offset="1" stop-color="#e1b663"/></linearGradient><linearGradient xlink:href="#a" id="c" x1="-30.849" y1="30.267" x2="-14.721" y2="30.267" gradientUnits="userSpaceOnUse" spreadMethod="repeat"/><linearGradient xlink:href="#a" id="i" x1="9.1" y1="23.825" x2="22.307" y2="23.825" gradientUnits="userSpaceOnUse" spreadMethod="repeat"/><linearGradient xlink:href="#a" id="d" x1="-34.461" y1="223.715" x2="230.344" y2="223.715" gradientUnits="userSpaceOnUse" spreadMethod="repeat"/><linearGradient xlink:href="#a" id="k" x1="7.714" y1="45.248" x2="19.853" y2="45.248" gradientUnits="userSpaceOnUse" spreadMethod="repeat"/><linearGradient xlink:href="#a" id="j" x1="8.13" y1="42.128" x2="22.351" y2="42.128" gradientUnits="userSpaceOnUse" spreadMethod="repeat"/><linearGradient xlink:href="#a" id="g" x1="303.244" y1="93.368" x2="332.257" y2="93.368" gradientUnits="userSpaceOnUse"/><linearGradient xlink:href="#a" id="f" x1="305.241" y1="90.705" x2="327.624" y2="90.705" gradientUnits="userSpaceOnUse"/><linearGradient xlink:href="#a" id="h" x1="304.947" y1="93.29" x2="326.339" y2="93.29" gradientUnits="userSpaceOnUse"/><linearGradient xlink:href="#a" id="e" x1="277.179" y1="142.935" x2="291.253" y2="142.935" gradientUnits="userSpaceOnUse"/><filter id="b"><feGaussianBlur in="SourceAlpha" result="blur" stdDeviation="2"/><feOffset result="offsetBlur" dx="2" dy="2"/><feBlend in="SourceGraphic" in2="offsetBlur"/></filter></defs><g transform="translate(39.935 1.558) scale(.93934)" fill="#fecb00" filter="url(#b)"><path d="m-10.348 7.413-12.84 3.608-7.05 44.45H9.696L2.907 11.31l-.611-1.177.164 1.046z" fill="#83611c"/><path d="m-10.96 6.237-12.838 3.608-7.051 44.45H9.085l-6.79-44.163z" fill="url(#c)"/></g><path d="m11.531 53.665-.574-1.105h37.511l.575 1.105z" fill="#654b13"/><g transform="translate(3.921 -.02)"><g stroke="#000"><path transform="matrix(.74656 0 0 .75296 -186.074 -75.268)" d="M282.83 136.555c.204-5.885-.282-11.142-3.009-13.33 2.021-.873 3.212-2.979 4.365-4.578 1.154 1.6 2.344 3.705 4.365 4.579-2.727 2.187-3.213 7.444-3.009 13.33a4.466 4.466 0 0 1-1.356.232 4.436 4.436 0 0 1-1.356-.233z" fill="#c80000" stroke="#c80000"/><path d="M97.159 111.627c-2.764 121.39 19.614 224.192 177.984 219.075 158.37 5.117 180.748-97.685 177.985-219.075-11.066 132.287-51.513 167.404-177.985 175.038-126.471-7.634-166.92-42.75-177.984-175.038z" transform="matrix(.05802 0 0 .06853 10.21 8.017)" fill="url(#d)" stroke="#c80000" stroke-width="10.736"/><path d="m166.796 305.119-54.464 95.975-8.754-6.962-40.051 58.52-7.822-6.797-35.583 44.11c14.216 20.561 41.843 41.307 69.675 47.014 13.293-25.846 76.279-177.737 95.178-219.282m195.235-12.578 54.464 95.975 8.754-6.962 40.05 58.52 7.823-6.797 35.583 44.11c-14.216 20.561-41.844 41.307-69.676 47.014-13.292-25.846-76.278-177.737-95.178-219.282" transform="matrix(.05802 0 0 .06853 10.21 8.017)" fill="#c80000" stroke="#c80000" stroke-width="13.427"/><path d="M17.12 39.641c6.239 2.539 12.27 2.62 18.071 0l-3.408-9.673c-3.409 1.355-7.785 1.637-11.2-.077z" fill="#c80000" stroke="#c80000" stroke-width=".834"/><path d="M277.406 142.092c4.274 2.182 9.44 2.242 13.608-.03" fill="none" stroke="url(#e)" transform="translate(-214.516 -88.152) scale(.84664)"/></g><path d="M305.46 89.714c.226.11.292.193.382.255l2.24 1.784m19.326-2.021c-1.58.755-1.927 1.009-2.89 1.514" transform="translate(-241.83 -41.53) scale(.84664)" fill="none" stroke="url(#f)"/><path transform="translate(-242.91 -39.885) scale(.84664)" d="m303.399 91.871 4.424 2.847m24.28-2.847-4.425 2.847" fill="none" stroke="url(#g)"/><path d="m305.415 99.305 4.528-12.106m11.673-.042 4.25 12.266" fill="none" stroke="url(#h)" transform="translate(-241.157 -43.85) scale(.84664)"/><path d="M20.564 25.91c4.972-4.431 6.805-4.063 11.531.072-2.425.99-2.608.875-5.67 1.424-2.831-.576-2.342-.102-5.86-1.496z" fill="#c80000" stroke="#c80000" stroke-width=".847"/><ellipse ry="3.713" rx="3.618" cy="23.825" cx="26.079" fill="url(#i)" stroke="#c80000" stroke-width=".596" stroke-linecap="square"/><path d="m22 41.527-1.288 4.415-.534-.123-.862 2.67c4.315 1.813 9.907 1.713 13.47 0l-.863-2.67-.534.123-1.273-4.353" fill="#c80000" stroke="#c80000" stroke-width=".929"/><path d="M21.328 41.86c2.656.636 6.873.66 9.44.09" fill="none" stroke="url(#j)" stroke-width=".847"/><path d="M20.461 45.033c2.797.617 8.608.546 11.175-.024" fill="none" stroke="url(#k)" stroke-width=".847"/></g></svg>