<?xml version="1.0" encoding="UTF-8" standalone="no"?>
<svg
   xmlns:dc="http://purl.org/dc/elements/1.1/"
   xmlns:cc="http://creativecommons.org/ns#"
   xmlns:rdf="http://www.w3.org/1999/02/22-rdf-syntax-ns#"
   xmlns:svg="http://www.w3.org/2000/svg"
   xmlns="http://www.w3.org/2000/svg"
   xmlns:xlink="http://www.w3.org/1999/xlink"
   xmlns:sodipodi="http://sodipodi.sourceforge.net/DTD/sodipodi-0.dtd"
   xmlns:inkscape="http://www.inkscape.org/namespaces/inkscape"
   width="60"
   height="60"
   version="1.1"
   id="svg85"
   sodipodi:docname="0UM.svg"
   inkscape:version="1.0.1 (3bc2e813f5, 2020-09-07)">
  <metadata
     id="metadata89">
    <rdf:RDF>
      <cc:Work
         rdf:about="">
        <dc:format>image/svg+xml</dc:format>
        <dc:type
           rdf:resource="http://purl.org/dc/dcmitype/StillImage" />
      </cc:Work>
    </rdf:RDF>
  </metadata>
  <sodipodi:namedview
     pagecolor="#ffffff"
     bordercolor="#666666"
     borderopacity="1"
     objecttolerance="10"
     gridtolerance="10"
     guidetolerance="10"
     inkscape:pageopacity="0"
     inkscape:pageshadow="2"
     inkscape:window-width="1366"
     inkscape:window-height="711"
     id="namedview87"
     showgrid="false"
     inkscape:zoom="4.55"
     inkscape:cx="7.2792206"
     inkscape:cy="43.842594"
     inkscape:window-x="0"
     inkscape:window-y="0"
     inkscape:window-maximized="1"
     inkscape:current-layer="svg85" />
  <defs
     id="defs43">
    <filter
       id="b">
      <feGaussianBlur
         in="SourceAlpha"
         result="blur"
         stdDeviation="2"
         id="feGaussianBlur2" />
      <feOffset
         result="offsetBlur"
         dx="2"
         dy="2"
         id="feOffset4" />
      <feBlend
         in="SourceGraphic"
         in2="offsetBlur"
         id="feBlend6" />
    </filter>
    <linearGradient
       id="a">
      <stop
         offset="0"
         stop-color="#dfb459"
         id="stop9" />
      <stop
         offset=".033"
         stop-color="#dead54"
         id="stop11" />
      <stop
         offset=".093"
         stop-color="#e1b85f"
         id="stop13" />
      <stop
         offset=".165"
         stop-color="#dba84d"
         id="stop15" />
      <stop
         offset=".305"
         stop-color="#dfb765"
         id="stop17" />
      <stop
         offset=".539"
         stop-color="#d8a94e"
         id="stop19" />
      <stop
         offset=".586"
         stop-color="#d5ab53"
         id="stop21" />
      <stop
         offset=".84"
         stop-color="#e0bf6e"
         id="stop23" />
      <stop
         offset=".924"
         stop-color="#daae52"
         id="stop25" />
      <stop
         offset=".962"
         stop-color="#d9af57"
         id="stop27" />
      <stop
         offset="1"
         stop-color="#e1b663"
         id="stop29" />
    </linearGradient>
    <linearGradient
       xlink:href="#a"
       id="c"
       x1="-30.849"
       y1="30.267"
       x2="-15.094"
       y2="30.267"
       gradientUnits="userSpaceOnUse"
       spreadMethod="repeat" />
    <linearGradient
       xlink:href="#a"
       id="h"
       x1="772.069"
       y1="122.778"
       x2="775.33"
       y2="122.778"
       gradientUnits="userSpaceOnUse" />
    <linearGradient
       xlink:href="#a"
       id="g"
       x1="783.028"
       y1="132.601"
       x2="802.729"
       y2="132.601"
       gradientUnits="userSpaceOnUse"
       spreadMethod="repeat" />
    <linearGradient
       xlink:href="#a"
       id="i"
       x1="774.952"
       y1="124.22"
       x2="780.945"
       y2="124.22"
       gradientUnits="userSpaceOnUse" />
    <linearGradient
       xlink:href="#a"
       id="f"
       x1="780.175"
       y1="138.561"
       x2="790.378"
       y2="138.561"
       gradientUnits="userSpaceOnUse" />
    <linearGradient
       xlink:href="#a"
       id="j"
       x1="788.776"
       y1="185.635"
       x2="793.248"
       y2="185.635"
       gradientUnits="userSpaceOnUse" />
    <linearGradient
       xlink:href="#a"
       id="k"
       x1="791.465"
       y1="191.648"
       x2="796.89"
       y2="191.648"
       gradientUnits="userSpaceOnUse" />
    <linearGradient
       xlink:href="#a"
       id="l"
       x1="792.212"
       y1="197.302"
       x2="797.505"
       y2="197.302"
       gradientUnits="userSpaceOnUse" />
    <linearGradient
       xlink:href="#a"
       id="m"
       x1="792.688"
       y1="204.616"
       x2="797.134"
       y2="204.616"
       gradientUnits="userSpaceOnUse" />
    <linearGradient
       xlink:href="#a"
       id="e"
       x1="781.821"
       y1="116.355"
       x2="800.338"
       y2="116.355"
       gradientUnits="userSpaceOnUse"
       spreadMethod="repeat" />
    <linearGradient
       xlink:href="#a"
       id="d"
       x1="-89.495"
       y1="86.53"
       x2="-55.296"
       y2="86.53"
       gradientUnits="userSpaceOnUse"
       spreadMethod="repeat" />
  </defs>
  <g
     id="g934"
     transform="translate(3.6074992)">
    <g
       transform="translate(37.59,0.902)"
       fill="#75581b"
       filter="url(#b)"
       id="g47">
      <path
         d="m -10.96,6.237 -12.84,3.61 -6.865,43.278 -0.814,0.002 0.629,1.168 H 9.084 C 6.781,39.41 5.01,23.745 2.295,10.133 l -0.629,-1.17 0.203,1.045 -12.83,-3.771 z"
         fill="#84631f"
         id="path45" />
    </g>
    <path
       d="m -10.96,6.237 -12.838,3.608 -7.051,44.45 H 9.085 C 6.782,39.41 5.009,23.745 2.295,10.132 Z"
       fill="url(#c)"
       transform="translate(36.96,-0.267)"
       id="path49"
       style="fill:url(#c)" />
    <path
       d="M 6.112,54.03 6.74,55.197 H 46.674 L 46.046,54.029 Z"
       fill="#654b13"
       id="path51" />
    <g
       stroke="#ff0000"
       id="g75">
      <g
         stroke-width="2.599"
         id="g57">
        <path
           d="m 28.662,22.137 c 3.75,0.282 2.119,0.766 4.936,1.932 l 3.854,1.963 -0.446,2.894 c 0.372,3.61 1.97,6.006 3.947,8.892 l 0.919,0.668 c -1.51,0.705 -2.026,1.13 -2.102,1.563 -0.484,0.834 -1.401,0.946 -2.26,1.26 l 0.676,-3.316 -4.03,-4.738 c 0.516,2.85 -1.046,3.338 -0.532,6.172 l 1.372,3.292 -1.19,0.344 -1.567,-2.336 c -0.128,-2.747 -0.7,-5.018 -1.257,-7.774 -2.382,0.462 -2.925,2.026 -5.356,-1.43 1.17,2.588 -0.154,4.856 0.776,7.535 4.468,3.806 4.729,6.678 6.16,9.611 -8.159,2.662 -16.819,-1.757 -23.04,0.573 0.673,-0.925 2.693,-4.248 6.652,-5.962 -2.13,-0.549 -1.91,-1.766 -6.049,-0.678 0.955,-1.458 5.774,-6.909 7.125,-5.56 -2.111,-0.15 -3.798,-1.47 -6.35,-0.406 2.94,-3.662 5.01,-3.274 7.42,-4.283 l -3.045,-0.147 -3.083,-0.148 c 1.864,-3.257 5.457,-3.844 8.787,-4.837 -1.704,-0.582 -4.264,-0.41 -6.745,-0.16 3.028,-2.444 6.755,-3.816 10.964,-4.883"
           fill="#c80000"
           stroke="#c80000"
           stroke-linejoin="round"
           stroke-width="1.253"
           id="path53" />
        <path
           d="m -109.935,84.098 c -0.65,1.03 -0.28,1.823 -2.024,4.698 0.796,0.47 1.453,0.057 2.315,-0.895 1.333,-1.58 1.355,-1.793 -0.29,-3.803 z"
           fill="#ffffff"
           stroke="url(#d)"
           transform="matrix(-0.4821,0,0,0.4821,-19.486,-12.87)"
           id="path55"
           style="stroke:url(#d)" />
      </g>
      <path
         d="m 765.516,125.462 c -0.231,-1.976 5.474,-5.258 5.857,-7.812 l -2,-2.875 3.625,1.187 c 2.198,-0.363 8.69,-3.318 11.166,-5.762 0.405,-0.399 0.878,-1.577 0.897,-1.988 1.092,1.6 1.312,1.543 1.916,3.045 -1.765,1.977 -6.346,3.785 -8.541,4.814 -3.835,2.456 -5.71,5.991 -8.986,8.936 z"
         fill="url(#e)"
         stroke="#c80000"
         transform="matrix(-0.83546,0,0,0.83546,677.055,-78.81)"
         id="path59"
         style="fill:url(#e)" />
      <path
         d="m 31.507,25.591 c -1.237,-0.87 -2.55,-3.813 -3.731,-5.087 -1.174,-1.268 -1.676,-0.477 -3.475,-1.388 0.108,-0.046 1.052,1.911 1.173,3.614 0.07,0.971 -0.658,2 -0.632,2.172 0.298,2.005 3.922,2.162 4.628,2.882"
         fill="#c80000"
         stroke="#c80000"
         stroke-width="1.25319"
         id="path61" />
      <path
         d="m 37.524,40.882 -1.628,-0.85 1.661,-0.707"
         fill="#c80000"
         stroke="#c80000"
         stroke-width="0.83546"
         id="path63" />
      <path
         d="m 780.325,124.393 c 9.962,2.579 6.124,21.802 9.235,28.043 0.15,0.3 0.322,0.615 0.387,1.054"
         fill="none"
         stroke="url(#f)"
         stroke-width="1.197"
         transform="matrix(-0.83546,0,0,0.83546,677.055,-78.81)"
         id="path65"
         style="stroke:url(#f)" />
      <path
         d="m 778.008,135.16 c 0.56,-0.819 1.404,-2.884 1.963,-5.287"
         fill="none"
         stroke="url(#g)"
         transform="matrix(-0.83546,0,0,0.83546,677.055,-78.81)"
         id="path67"
         style="stroke:url(#g)" />
      <path
         d="m 772.415,125.063 c 1.766,-1.698 2.435,-3.03 2.414,-4.926"
         fill="none"
         stroke="url(#h)"
         transform="matrix(-0.83546,0,0,0.83546,677.055,-78.81)"
         id="path69"
         style="stroke:url(#h)" />
      <path
         d="m 775.11,127.575 c 0.32,-0.076 4.564,-2.431 5.215,-3.182 -0.947,-1.51 0.094,-2.669 0,-3.978"
         fill="none"
         stroke="url(#i)"
         transform="matrix(-0.83546,0,0,0.83546,677.055,-78.81)"
         id="path71"
         style="stroke:url(#i)" />
      <path
         d="M 34.333,42.5 35.961,41.652 34.3,40.944"
         fill="#c80000"
         stroke="#c80000"
         stroke-width="0.83546"
         id="path73" />
    </g>
    <path
       d="m 788.778,185.249 c 1.208,-0.004 3.012,0.144 4.22,0.84"
       fill="none"
       stroke="url(#j)"
       transform="matrix(-0.83546,0,0,0.83546,680.498,-128.102)"
       id="path77"
       style="stroke:url(#j)" />
    <path
       d="m 791.518,191.083 c 2.838,0.3 3.641,0.495 5.17,1.17"
       fill="none"
       stroke="url(#k)"
       transform="matrix(-0.83546,0,0,0.83546,680.498,-128.102)"
       id="path79"
       style="stroke:url(#k)" />
    <path
       d="m 792.225,196.828 c 1.054,0.026 2.295,0.058 5.126,0.972"
       fill="none"
       stroke="url(#l)"
       transform="matrix(-0.83546,0,0,0.83546,680.498,-128.102)"
       id="path81"
       style="stroke:url(#l)" />
    <path
       d="m 792.755,204.252 c 1.62,-0.22 2.622,0.338 4.243,0.796"
       fill="none"
       stroke="url(#m)"
       transform="matrix(-0.83546,0,0,0.83546,680.498,-128.102)"
       id="path83"
       style="stroke:url(#m)" />
  </g>
</svg>
