<?xml version="1.0" encoding="UTF-8" standalone="no"?>
<svg
   xmlns:dc="http://purl.org/dc/elements/1.1/"
   xmlns:cc="http://creativecommons.org/ns#"
   xmlns:rdf="http://www.w3.org/1999/02/22-rdf-syntax-ns#"
   xmlns:svg="http://www.w3.org/2000/svg"
   xmlns="http://www.w3.org/2000/svg"
   xmlns:xlink="http://www.w3.org/1999/xlink"
   xmlns:sodipodi="http://sodipodi.sourceforge.net/DTD/sodipodi-0.dtd"
   xmlns:inkscape="http://www.inkscape.org/namespaces/inkscape"
   width="60"
   height="60"
   version="1.1"
   id="svg92"
   sodipodi:docname="1GI.svg"
   inkscape:version="1.0.1 (3bc2e813f5, 2020-09-07)">
  <metadata
     id="metadata96">
    <rdf:RDF>
      <cc:Work
         rdf:about="">
        <dc:format>image/svg+xml</dc:format>
        <dc:type
           rdf:resource="http://purl.org/dc/dcmitype/StillImage" />
      </cc:Work>
    </rdf:RDF>
  </metadata>
  <sodipodi:namedview
     pagecolor="#ffffff"
     bordercolor="#666666"
     borderopacity="1"
     objecttolerance="10"
     gridtolerance="10"
     guidetolerance="10"
     inkscape:pageopacity="0"
     inkscape:pageshadow="2"
     inkscape:window-width="1366"
     inkscape:window-height="711"
     id="namedview94"
     showgrid="false"
     inkscape:zoom="9.1"
     inkscape:cx="30"
     inkscape:cy="30"
     inkscape:window-x="0"
     inkscape:window-y="0"
     inkscape:window-maximized="1"
     inkscape:current-layer="svg92" />
  <defs
     id="defs62">
    <filter
       id="d">
      <feGaussianBlur
         in="SourceAlpha"
         result="blur"
         stdDeviation="2"
         id="feGaussianBlur2" />
      <feOffset
         result="offsetBlur"
         dx="2"
         dy="2"
         id="feOffset4" />
      <feBlend
         in="SourceGraphic"
         in2="offsetBlur"
         id="feBlend6" />
    </filter>
    <linearGradient
       id="a">
      <stop
         offset="0"
         stop-color="#dfb459"
         id="stop9" />
      <stop
         offset=".033"
         stop-color="#dead54"
         id="stop11" />
      <stop
         offset=".093"
         stop-color="#e1b85f"
         id="stop13" />
      <stop
         offset=".165"
         stop-color="#dba84d"
         id="stop15" />
      <stop
         offset=".305"
         stop-color="#dfb765"
         id="stop17" />
      <stop
         offset=".539"
         stop-color="#d8a94e"
         id="stop19" />
      <stop
         offset=".586"
         stop-color="#d5ab53"
         id="stop21" />
      <stop
         offset=".84"
         stop-color="#e0bf6e"
         id="stop23" />
      <stop
         offset=".924"
         stop-color="#daae52"
         id="stop25" />
      <stop
         offset=".962"
         stop-color="#d9af57"
         id="stop27" />
      <stop
         offset="1"
         stop-color="#e1b663"
         id="stop29" />
    </linearGradient>
    <linearGradient
       xlink:href="#a"
       id="c"
       x1="148.368"
       y1="49.819"
       x2="129.504"
       y2="49.819"
       gradientUnits="userSpaceOnUse"
       spreadMethod="repeat" />
    <linearGradient
       xlink:href="#b"
       id="f"
       x1="-40.518"
       y1="236.614"
       x2="184.164"
       y2="236.614"
       gradientUnits="userSpaceOnUse"
       spreadMethod="repeat" />
    <linearGradient
       xlink:href="#b"
       id="g"
       x1="262.772"
       y1="142.935"
       x2="280.5"
       y2="142.935"
       gradientUnits="userSpaceOnUse"
       spreadMethod="repeat" />
    <linearGradient
       xlink:href="#b"
       id="h"
       x1="295.323"
       y1="90.705"
       x2="311.338"
       y2="90.705"
       gradientUnits="userSpaceOnUse" />
    <linearGradient
       xlink:href="#b"
       id="i"
       x1="296.145"
       y1="93.368"
       x2="313.361"
       y2="93.368"
       gradientUnits="userSpaceOnUse"
       spreadMethod="repeat" />
    <linearGradient
       xlink:href="#b"
       id="j"
       x1="294.715"
       y1="93.394"
       x2="311.827"
       y2="93.394"
       gradientUnits="userSpaceOnUse" />
    <linearGradient
       id="b">
      <stop
         offset="0"
         stop-color="#e5c37b"
         id="stop38" />
      <stop
         offset=".042"
         stop-color="#e4bd76"
         id="stop40" />
      <stop
         offset=".093"
         stop-color="#e7c781"
         id="stop42" />
      <stop
         offset=".165"
         stop-color="#e2b86e"
         id="stop44" />
      <stop
         offset=".305"
         stop-color="#e6c686"
         id="stop46" />
      <stop
         offset=".539"
         stop-color="#dfb96f"
         id="stop48" />
      <stop
         offset=".586"
         stop-color="#ddbb73"
         id="stop50" />
      <stop
         offset=".84"
         stop-color="#e7ce8f"
         id="stop52" />
      <stop
         offset=".924"
         stop-color="#e1bd73"
         id="stop54" />
      <stop
         offset=".962"
         stop-color="#e0bf78"
         id="stop56" />
      <stop
         offset="1"
         stop-color="#e7c685"
         id="stop58" />
    </linearGradient>
    <linearGradient
       xlink:href="#b"
       id="e"
       gradientUnits="userSpaceOnUse"
       x1="148.368"
       y1="49.819"
       x2="129.504"
       y2="49.819"
       spreadMethod="repeat" />
  </defs>
  <g
     id="g935"
     transform="translate(3.7101635)">
    <g
       transform="matrix(0.92309,0,0,0.92309,-92.456,-20.034)"
       fill="url(#c)"
       filter="url(#d)"
       id="g68"
       style="fill:url(#c)">
      <path
         d="m 148.703,29.817 -0.234,1.17 h -39.89 l 6.924,43.53 -0.457,-0.142 0.62,1.17 13.14,4.24 c 0.09,0.018 0.18,0.03 0.27,0.02 l 13.409,-4.26 6.836,-44.558 z"
         fill="#876419"
         id="path64" />
      <path
         d="m -37.3,-31.01 -13.408,4.26 -6.837,44.558 h 40.743 l -7.088,-44.558 -13.138,-4.239 a 0.885,0.885 0 0 0 -0.271,-0.021 z"
         fill="url(#e)"
         transform="rotate(180,45.578,23.813)"
         id="path66"
         style="fill:url(#e)" />
    </g>
    <path
       d="M 25.87,52.534 26.693,53.633 39.07,49.7 38.498,48.62 Z"
       fill="#a57a1b"
       id="path70" />
    <g
       stroke="#000000"
       id="g82">
      <path
         d="m 282.83,136.555 c 0.204,-5.885 -0.282,-11.142 -3.009,-13.33 2.021,-0.873 3.212,-2.979 4.365,-4.578 1.154,1.6 2.344,3.705 4.365,4.579 -2.727,2.187 -3.213,7.444 -3.009,13.33 v 0 c -0.479,0.153 -0.912,0.229 -1.356,0.232 a 4.436,4.436 0 0 1 -1.356,-0.233 z"
         transform="matrix(-0.74656,0,0,-0.75296,238.443,135.258)"
         id="path72" />
      <path
         transform="matrix(-0.05802,0,0,-0.06853,42.16,51.972)"
         d="m 97.159,111.627 c -2.764,121.39 19.614,224.192 177.984,219.075 158.37,5.117 180.748,-97.685 177.985,-219.075 C 442.062,243.914 401.615,279.031 275.143,286.665 148.672,279.031 108.223,243.915 97.159,111.627 Z"
         fill="url(#f)"
         stroke-width="10.741"
         id="path74"
         style="fill:url(#f)" />
      <path
         transform="matrix(-0.05802,0,0,-0.06853,42.16,51.972)"
         d="m 166.796,305.119 -54.464,95.975 -8.754,-6.962 -40.59,61.712 -7.283,-9.989 c -17.703,21.022 -27.021,32.762 -44.724,53.784 14.216,20.56 44.13,49.69 71.96,55.397 13.294,-25.846 83.135,-195.794 102.034,-237.34 m 195.235,-12.576 54.464,95.975 8.754,-6.962 40.59,61.712 7.283,-9.989 c 17.702,21.022 27.021,32.762 44.724,53.784 -14.216,20.56 -44.13,49.69 -71.961,55.397 C 450.771,529.191 380.93,359.243 362.03,317.697"
         stroke-width="13.427"
         id="path76" />
      <path
         d="m 35.248,20.348 c -6.238,-2.538 -12.268,-2.62 -18.07,0 l 3.408,9.674 c 3.409,-1.355 7.785,-1.637 11.2,0.077 z"
         stroke-width="0.83394"
         id="path78" />
      <path
         d="m 277.406,142.092 c 4.274,2.182 9.44,2.242 13.608,-0.03"
         fill="none"
         stroke="url(#g)"
         transform="matrix(-0.84663886,0.00138901,-0.00138901,-0.84663886,267.00734,147.92097)"
         id="path80"
         style="stroke:url(#g)" />
    </g>
    <path
       transform="matrix(-0.84664,0,0,-0.84664,294.2,101.52)"
       d="m 305.46,89.714 c 0.226,0.11 0.292,0.193 0.382,0.255 l 2.24,1.784 m 19.326,-2.021 c -1.58,0.755 -1.927,1.009 -2.89,1.514"
       fill="none"
       stroke="url(#h)"
       id="path84"
       style="stroke:url(#h)" />
    <path
       d="m 303.51,92.019 4.313,2.699 m 24.169,-2.7 -4.314,2.7"
       transform="matrix(-0.84664,0,0,-0.84664,295.278,99.875)"
       fill="none"
       stroke="url(#i)"
       id="path86"
       style="stroke:url(#i)" />
    <path
       d="m 305.415,99.305 4.528,-12.106 m 11.673,-0.042 4.25,12.266"
       fill="none"
       stroke="url(#j)"
       transform="matrix(-0.84664,0,0,-0.84664,293.526,103.84)"
       id="path88"
       style="stroke:url(#j)" />
    <path
       d="M 31.805,34.08 C 26.833,38.51 25,38.142 20.274,34.007 c 2.425,-0.99 2.607,-0.875 5.67,-1.424 2.831,0.577 2.342,0.102 5.86,1.496 z"
       stroke="#000000"
       stroke-width="0.84664"
       id="path90" />
  </g>
</svg>
