<?xml version="1.0" encoding="UTF-8" standalone="no"?>
<svg
   xmlns:dc="http://purl.org/dc/elements/1.1/"
   xmlns:cc="http://creativecommons.org/ns#"
   xmlns:rdf="http://www.w3.org/1999/02/22-rdf-syntax-ns#"
   xmlns:svg="http://www.w3.org/2000/svg"
   xmlns="http://www.w3.org/2000/svg"
   xmlns:xlink="http://www.w3.org/1999/xlink"
   xmlns:sodipodi="http://sodipodi.sourceforge.net/DTD/sodipodi-0.dtd"
   xmlns:inkscape="http://www.inkscape.org/namespaces/inkscape"
   width="60"
   height="60"
   version="1.1"
   id="svg69"
   sodipodi:docname="1KA.svg"
   inkscape:version="1.0.1 (3bc2e813f5, 2020-09-07)">
  <metadata
     id="metadata73">
    <rdf:RDF>
      <cc:Work
         rdf:about="">
        <dc:format>image/svg+xml</dc:format>
        <dc:type
           rdf:resource="http://purl.org/dc/dcmitype/StillImage" />
      </cc:Work>
    </rdf:RDF>
  </metadata>
  <sodipodi:namedview
     pagecolor="#ffffff"
     bordercolor="#666666"
     borderopacity="1"
     objecttolerance="10"
     gridtolerance="10"
     guidetolerance="10"
     inkscape:pageopacity="0"
     inkscape:pageshadow="2"
     inkscape:window-width="1366"
     inkscape:window-height="711"
     id="namedview71"
     showgrid="false"
     inkscape:zoom="9.1"
     inkscape:cx="30"
     inkscape:cy="30"
     inkscape:window-x="0"
     inkscape:window-y="0"
     inkscape:window-maximized="1"
     inkscape:current-layer="svg69" />
  <defs
     id="defs37">
    <filter
       id="c">
      <feGaussianBlur
         in="SourceAlpha"
         result="blur"
         stdDeviation="2"
         id="feGaussianBlur2" />
      <feOffset
         result="offsetBlur"
         dx="2"
         dy="2"
         id="feOffset4" />
      <feBlend
         in="SourceGraphic"
         in2="offsetBlur"
         id="feBlend6" />
    </filter>
    <linearGradient
       xlink:href="#a"
       id="b"
       x1="148.578"
       y1="49.826"
       x2="130.323"
       y2="49.826"
       gradientUnits="userSpaceOnUse"
       spreadMethod="repeat" />
    <linearGradient
       xlink:href="#a"
       id="d"
       x1="1112.353"
       y1="159.01"
       x2="1167.429"
       y2="159.01"
       gradientUnits="userSpaceOnUse"
       spreadMethod="repeat" />
    <linearGradient
       xlink:href="#a"
       id="e"
       x1="132.561"
       y1="231.857"
       x2="148.24"
       y2="231.857"
       gradientUnits="userSpaceOnUse"
       spreadMethod="repeat" />
    <linearGradient
       xlink:href="#a"
       id="f"
       x1="177.827"
       y1="92.855"
       x2="197.093"
       y2="92.855"
       gradientUnits="userSpaceOnUse"
       spreadMethod="repeat" />
    <linearGradient
       xlink:href="#a"
       id="g"
       x1="176.859"
       y1="80.264"
       x2="196.381"
       y2="80.264"
       gradientUnits="userSpaceOnUse"
       spreadMethod="repeat" />
    <linearGradient
       id="a">
      <stop
         offset="0"
         stop-color="#e5c37b"
         id="stop14" />
      <stop
         offset=".042"
         stop-color="#e4bd76"
         id="stop16" />
      <stop
         offset=".093"
         stop-color="#e7c781"
         id="stop18" />
      <stop
         offset=".165"
         stop-color="#e2b86e"
         id="stop20" />
      <stop
         offset=".305"
         stop-color="#e6c686"
         id="stop22" />
      <stop
         offset=".539"
         stop-color="#dfb96f"
         id="stop24" />
      <stop
         offset=".586"
         stop-color="#ddbb73"
         id="stop26" />
      <stop
         offset=".84"
         stop-color="#e7ce8f"
         id="stop28" />
      <stop
         offset=".924"
         stop-color="#e1bd73"
         id="stop30" />
      <stop
         offset=".962"
         stop-color="#e0bf78"
         id="stop32" />
      <stop
         offset="1"
         stop-color="#e7c685"
         id="stop34" />
    </linearGradient>
    <linearGradient
       inkscape:collect="always"
       xlink:href="#a"
       id="linearGradient915"
       gradientUnits="userSpaceOnUse"
       x1="148.578"
       y1="49.826"
       x2="130.323"
       y2="49.826"
       spreadMethod="repeat" />
  </defs>
  <g
     id="g913"
     transform="translate(3.4434789)">
    <g
       transform="matrix(0.98185,0,0,0.98185,-100.001,-23.219)"
       fill="url(#b)"
       filter="url(#c)"
       id="g43"
       style="fill:url(#b)">
      <path
         d="m 148.702,29.817 -0.139,0.972 0.718,0.01 z m 0.58,0.982 H 109.09 l 6.41,44.002 -0.454,-0.121 0.578,0.98 13.14,3.935 c 0.09,0.017 0.179,0.033 0.27,0.022 l 13.41,-4.26 6.836,-44.558 z"
         fill="#876419"
         id="path39" />
      <path
         d="m 128.456,78.635 13.41,-4.26 6.836,-44.558 h -40.19 l 6.535,44.862 13.138,3.935 c 0.09,0.017 0.18,0.032 0.271,0.021 z"
         id="path41"
         style="fill:url(#linearGradient915)" />
    </g>
    <path
       d="m 26.123,53.989 0.303,0.943 13.431,-4.162 -0.568,-0.964 z"
       fill="#ac812a"
       id="path45" />
    <g
       stroke-width="0.6"
       id="g63">
      <path
         d="M 14.755,31.618 17.531,31.34"
         fill="none"
         stroke="#000000"
         stroke-width="1.00029"
         id="path47" />
      <path
         d="m 10.102,18.257 c 6.961,0.49 13.485,0.07 22.964,0 m -0.715,5.078 c -4.094,6.716 -10.39,4.523 -14.778,4.464 -3.667,-2.174 -4.206,-2.35 -5.55,-3.988 -1.42,-1.908 -1.781,-3.234 -1.895,-5.577 7.084,-2.553 14.164,-3.077 22.64,-0.488 0.13,2.08 -0.18,3.846 -0.417,5.589 z"
         stroke="#000000"
         stroke-width="0.62259"
         id="path49" />
      <g
         stroke="#000000"
         stroke-width="1.554"
         id="g55">
        <path
           d="m 1134.293,141.964 c 2.547,12.294 3.186,23.557 4.198,35.944 1.943,9.213 14.401,18.842 21.54,16.842 -2.932,-16.412 -2.031,-40.457 -11.142,-69.998 -5.61,-0.793 -11.376,-1.122 -17.492,-1.757 -2.038,0.106 -3.543,0.516 -4.955,1.456 -1.895,2.68 -6.003,11.52 -7.692,15.867 l 0.805,9.044 c 3.986,1.631 6.221,3.263 9.188,4.894 z"
           fill="url(#d)"
           transform="matrix(0.40052,0,0,-0.40052,-422.021,87.841)"
           id="path51"
           style="fill:url(#d)" />
        <path
           d="m 29.97,26.246 c 1.476,3.188 1.91,4.756 3.767,7.781 0.753,0.928 1.518,1.837 2.388,2.588 0.99,0.32 1.235,0.715 2.224,0.38"
           fill="none"
           stroke-width="0.622408"
           id="path53" />
      </g>
      <path
         d="m 17.896,27.795 -1.657,12.759 c -0.596,3.452 0.196,5.31 3.073,4.774 2.65,-0.753 4.33,-3.278 5.684,-6.396 l 1.347,-10.938 c -4.628,0.44 -6.156,0.121 -8.447,-0.199 z"
         stroke="#000000"
         stroke-width="0.62259"
         id="path57" />
      <path
         d="m 114.546,230.804 c 0.192,-0.076 0.282,-0.063 0.668,0.062 4.966,1.6 9.507,3.317 20.202,0.889 0.1,-0.023 0.345,-0.097 0.522,-0.078"
         fill="none"
         stroke="url(#e)"
         stroke-width="0.964"
         transform="matrix(1.03765,0,0,1.03765,-108.319,-217.517)"
         id="path59"
         style="stroke:url(#e)" />
      <path
         d="m 22.75,30.908 5.886,-0.344"
         fill="none"
         stroke="#000000"
         stroke-width="1.00029"
         id="path61" />
    </g>
    <path
       d="m 151.095,93.551 c 0.279,0.024 0.88,-0.147 1.001,-0.177 8.975,-2.21 17.802,-2.648 27.993,0.597 0.253,0.08 0.757,0.09 1.026,0.112"
       fill="none"
       stroke="url(#f)"
       stroke-width="1.285"
       transform="matrix(0.77824,0,0,-0.77824,-107.751,91.327)"
       id="path65"
       style="stroke:url(#f)" />
    <path
       d="m 160.883,80.539 c 4.815,-0.641 7.67,-0.68 11.119,-0.268 0.44,0.052 0.574,0.106 0.702,0.091"
       fill="none"
       stroke="url(#g)"
       stroke-width="1.285"
       transform="matrix(0.77824,0,0,-0.77824,-107.751,91.327)"
       id="path67"
       style="stroke:url(#g)" />
  </g>
</svg>
