<svg xmlns="http://www.w3.org/2000/svg" xmlns:xlink="http://www.w3.org/1999/xlink" width="52.157" height="60"><defs><filter id="c"><feGaussianBlur in="SourceAlpha" result="blur" stdDeviation="2"/><feOffset result="offsetBlur" dx="2" dy="2"/><feBlend in="SourceGraphic" in2="offsetBlur"/></filter><linearGradient xlink:href="#a" id="f" x1="-96.59" y1="92.733" x2="-93.377" y2="92.733" gradientUnits="userSpaceOnUse"/><linearGradient id="b"><stop offset="0" stop-color="#dfb459"/><stop offset=".042" stop-color="#dead54"/><stop offset=".093" stop-color="#e1b85f"/><stop offset=".165" stop-color="#dba84d"/><stop offset=".305" stop-color="#dfb765"/><stop offset=".539" stop-color="#d8a94e"/><stop offset=".586" stop-color="#d5ab53"/><stop offset=".84" stop-color="#e0bf6e"/><stop offset=".924" stop-color="#daae52"/><stop offset=".962" stop-color="#d9af57"/><stop offset="1" stop-color="#e1b663"/></linearGradient><linearGradient xlink:href="#a" id="g" x1="-134.375" y1="82.638" x2="-104.096" y2="82.638" gradientUnits="userSpaceOnUse"/><linearGradient xlink:href="#a" id="h" x1="-136.475" y1="99.718" x2="-99.186" y2="99.718" gradientUnits="userSpaceOnUse" spreadMethod="repeat"/><linearGradient xlink:href="#a" id="i" x1="373.592" y1="89.663" x2="376.533" y2="89.663" gradientUnits="userSpaceOnUse"/><linearGradient xlink:href="#b" id="d" x1="104.094" y1="54.226" x2="152.758" y2="54.226" gradientUnits="userSpaceOnUse"/><linearGradient xlink:href="#a" id="e" gradientUnits="userSpaceOnUse" x1="-57.446" y1="-2.331" x2="-39.653" y2="-2.331" spreadMethod="repeat"/><linearGradient id="a"><stop offset="0" stop-color="#e5c37b"/><stop offset=".042" stop-color="#e4bd76"/><stop offset=".093" stop-color="#e7c781"/><stop offset=".165" stop-color="#e2b86e"/><stop offset=".305" stop-color="#e6c686"/><stop offset=".539" stop-color="#dfb96f"/><stop offset=".586" stop-color="#ddbb73"/><stop offset=".84" stop-color="#e7ce8f"/><stop offset=".924" stop-color="#e1bd73"/><stop offset=".962" stop-color="#e0bf78"/><stop offset="1" stop-color="#e7c685"/></linearGradient><linearGradient xlink:href="#a" id="j" x1="14.606" y1="36.113" x2="16.266" y2="36.113" gradientUnits="userSpaceOnUse"/></defs><g transform="matrix(.89418 0 0 .89418 -87.935 -17.119)" fill="#654b13" filter="url(#c)"><path d="M147.797 28.31l-.236 1.177h-39.613l6.736 43.812-.542-.129.703 1.18 13.139 3.933c.093.026.192.016.27.022l13.41-4.261 6.837-44.557-.704-1.177z" fill="#876419"/></g><path d="M-37.3-31.01l-13.408 4.26-6.837 44.558h40.553l-6.898-44.862-13.138-3.935c-.094-.026-.193-.015-.271-.021z" fill="url(#e)" transform="matrix(-.89418 0 0 -.89418 -7.233 24.118)"/><g stroke-width="1.386"><path d="M32.794 46.008c.737-1.39.45-2.978.45-4.504 1.214-2.5 2.035-4.423 1.867-6.693 1.576-1.756 2.963-3.627 3.86-5.791.256-1.072.478-2.145.065-3.217l-.58-.322c-.746-1.548-.966-1.891-2.638-1.673l-.321 1.608-.45.773.321-2.06-.45-1.093c-2.56.824-2.502 2.201-3.845 4.273-2.032.939-2.914 1.414-4.907 2.161l-.9.58-1.352 2.252 1.223-2.188-.322-1.416s-.065-1.287 0-1.608c.135-2.074 1.973-4.579 3.46-5.858 2.033-1.549 2.425-2.987 2.717-5.468-9.926-5.509-14.796-2.928-19.369.129.2 1.138.355 1.948.784 3.515 1.099 3.685 1.303 6.014 1.469 12.379.306 4.667 5.084 11.19 11.158 10.88l2.998 4.628c1.263-1.124 1.078-2.792 1.287-4.376l.965.129z" stroke="#000" stroke-width=".63782334"/><path d="M25.29 30.147c-.691 1.207-.78 3.208-.71 3.931" fill="none" stroke="#fff" stroke-width=".79704908"/><path d="M31.151 37.683c1.521.094 1.394-.685 1.8-2.005-1.55-.12-1.405.658-1.8 2.005z" fill="#fff" stroke="#fff" stroke-width=".91301696"/><path d="M24.057 40.552c-.917.523-2.74-.504-3.405-1.065-2.201-1.86-4.704-4.27-4.744-7.371-.605-4.818-.38-11.538-2.207-15.595" fill="none" stroke="#fff" stroke-width="1.3658439199999999"/></g><path d="M35.437 23.618l-1.695 2.392" fill="none" stroke="#fff" stroke-width=".79668252"/><path d="M37.857 26.978c.412.77-.158.956-1.081 1.83" fill="none" stroke="#fff" stroke-width=".796852"/><g><g stroke-width="1.386"><path d="M32.794 46.008c.737-1.39.45-2.978.45-4.504 1.214-2.5 2.035-4.423 1.867-6.693 1.576-1.756 2.963-3.627 3.86-5.791.256-1.072.478-2.145.065-3.217l-.58-.322c-.746-1.548-.966-1.891-2.638-1.673l-.321 1.608-.45.773.321-2.06-.45-1.093c-2.56.824-2.502 2.201-3.845 4.273-2.032.939-2.914 1.414-4.907 2.161l-.9.58-1.352 2.252 1.223-2.188-.322-1.416s-.065-1.287 0-1.608c.135-2.074 1.973-4.579 3.46-5.858 2.033-1.549 2.425-2.987 2.717-5.468-9.926-5.509-14.796-2.928-19.369.129.2 1.138.355 1.948.784 3.515 1.099 3.685 1.303 6.014 1.469 12.379.306 4.667 5.084 11.19 11.158 10.88l2.998 4.628c1.263-1.124 1.078-2.792 1.287-4.376l.965.129z" stroke="#000" stroke-width=".63782334"/><path d="M-95.839 96.831c1.504-2.624 1.695-6.972 1.543-8.543" fill="none" stroke="url(#f)" stroke-width="1.732" transform="translate(-18.814 74.708) scale(.46019)"/><path d="M-108.574 80.454c-3.305-.203-3.03 1.49-3.91 4.358 3.366.262 3.052-1.43 3.91-4.358z" fill="url(#g)" stroke="url(#g)" stroke-width="1.984" transform="translate(-18.814 74.708) scale(.46019)"/><path d="M-93.16 74.22c1.994-1.137 5.955 1.095 7.4 2.315 4.784 4.04 10.222 9.277 10.309 16.017 1.315 10.47.825 25.073 4.796 33.889" fill="none" stroke="url(#h)" stroke-width="2.968" transform="translate(-18.814 74.708) scale(.46019)"/></g><path d="M373.442 92.04l2.683-3.877" fill="none" stroke="url(#i)" stroke-width=".999" transform="matrix(-.79748 0 0 -.79748 333.693 96.318)"/><path d="M15.076 36.961c-.362-.676.138-.84.949-1.607" fill="none" stroke="url(#j)" stroke-width=".7" transform="rotate(179.901 27.51 34.527) scale(1.13836)"/></g><path d="M26.12 51.847l.628 1.053 11.99-3.81-.628-1.052z" fill="#a5780f"/></svg>