<svg xmlns="http://www.w3.org/2000/svg" xmlns:xlink="http://www.w3.org/1999/xlink" width="52.157" height="60"><defs><filter id="c"><feGaussianBlur in="SourceAlpha" result="blur" stdDeviation="2"/><feOffset result="offsetBlur" dx="2" dy="2"/><feBlend in="SourceGraphic" in2="offsetBlur"/></filter><linearGradient id="a"><stop offset="0" stop-color="#dfb459"/><stop offset=".042" stop-color="#dead54"/><stop offset=".093" stop-color="#e1b85f"/><stop offset=".165" stop-color="#dba84d"/><stop offset=".305" stop-color="#dfb765"/><stop offset=".539" stop-color="#d8a94e"/><stop offset=".586" stop-color="#d5ab53"/><stop offset=".84" stop-color="#e0bf6e"/><stop offset=".924" stop-color="#daae52"/><stop offset=".962" stop-color="#d9af57"/><stop offset="1" stop-color="#e1b663"/></linearGradient><linearGradient xlink:href="#a" id="d" x1="104.094" y1="54.226" x2="152.758" y2="54.226" gradientUnits="userSpaceOnUse"/><linearGradient xlink:href="#b" id="e" gradientUnits="userSpaceOnUse" x1="-57.446" y1="-2.331" x2="-39.653" y2="-2.331" spreadMethod="repeat"/><linearGradient xlink:href="#b" id="f" x1="214.813" y1="1248.905" x2="366.351" y2="1248.905" gradientUnits="userSpaceOnUse" spreadMethod="repeat"/><linearGradient id="b"><stop offset="0" stop-color="#e5c37b"/><stop offset=".042" stop-color="#e4bd76"/><stop offset=".093" stop-color="#e7c781"/><stop offset=".165" stop-color="#e2b86e"/><stop offset=".305" stop-color="#e6c686"/><stop offset=".539" stop-color="#dfb96f"/><stop offset=".586" stop-color="#ddbb73"/><stop offset=".84" stop-color="#e7ce8f"/><stop offset=".924" stop-color="#e1bd73"/><stop offset=".962" stop-color="#e0bf78"/><stop offset="1" stop-color="#e7c685"/></linearGradient></defs><g transform="matrix(.89418 0 0 .89418 -87.935 -17.119)" fill="#654b13" filter="url(#c)"><path d="M147.797 28.31l-.236 1.177h-39.613l6.736 43.812-.542-.129.703 1.18 13.139 3.933c.093.026.192.016.27.022l13.41-4.261 6.837-44.557-.704-1.177z" fill="#876419"/></g><path d="M-37.3-31.01l-13.408 4.26-6.837 44.558h40.553l-6.898-44.862-13.138-3.935c-.094-.026-.193-.015-.271-.021z" fill="url(#e)" transform="matrix(-.89418 0 0 -.89418 -7.233 24.118)"/><path d="M26.12 51.847l.628 1.053 11.99-3.81-.628-1.052z" fill="#a5780f"/><g stroke="#000" stroke-width="4.938"><path d="M26.771 10.052v25.593h-1.446V10.052z" stroke-width=".47607257999999997"/><path d="M373.444 1325.142l-13.45-8.57 2.65-111.341 16.688-28.568 17.542 27.755 2.373 111.247-13.382 9.224z" fill="url(#f)" stroke-width="8.694" transform="matrix(-.09641 0 0 -.09641 62.651 162.915)"/><path d="M26.057 49.047V38.914l-1.594-1.265M26.057 38.914l1.573-1.397" fill="none" stroke-width=".43538756"/></g><path d="M33.986 19.525H18.11v-1.446h15.875z" stroke="#000" stroke-width=".47570509"/><path d="M26.048 27.95a9.148 9.148 0 0 0 9.148-9.148 9.148 9.148 0 0 0-9.148-9.148 9.148 9.148 0 0 0-9.147 9.148 9.148 9.148 0 0 0 9.147 9.148zm0-1.995a7.152 7.152 0 0 1-7.151-7.153 7.152 7.152 0 0 1 7.151-7.152 7.152 7.152 0 0 1 7.154 7.152 7.152 7.152 0 0 1-7.154 7.153z"/><path d="M32.172 13.7L20.947 24.926l-1.023-1.023L31.15 12.678z" stroke="#000" stroke-width=".47570509"/><path d="M31.15 24.926L19.924 13.7l1.023-1.022 11.225 11.225z" stroke="#000" stroke-width=".47570509"/></svg>