<?xml version="1.0" encoding="UTF-8" standalone="no"?>
<svg
   xmlns:dc="http://purl.org/dc/elements/1.1/"
   xmlns:cc="http://creativecommons.org/ns#"
   xmlns:rdf="http://www.w3.org/1999/02/22-rdf-syntax-ns#"
   xmlns:svg="http://www.w3.org/2000/svg"
   xmlns="http://www.w3.org/2000/svg"
   xmlns:xlink="http://www.w3.org/1999/xlink"
   xmlns:sodipodi="http://sodipodi.sourceforge.net/DTD/sodipodi-0.dtd"
   xmlns:inkscape="http://www.inkscape.org/namespaces/inkscape"
   width="60"
   height="60"
   version="1.1"
   id="svg95"
   sodipodi:docname="1NK.svg"
   inkscape:version="1.0.1 (3bc2e813f5, 2020-09-07)">
  <metadata
     id="metadata99">
    <rdf:RDF>
      <cc:Work
         rdf:about="">
        <dc:format>image/svg+xml</dc:format>
        <dc:type
           rdf:resource="http://purl.org/dc/dcmitype/StillImage" />
      </cc:Work>
    </rdf:RDF>
  </metadata>
  <sodipodi:namedview
     pagecolor="#ffffff"
     bordercolor="#666666"
     borderopacity="1"
     objecttolerance="10"
     gridtolerance="10"
     guidetolerance="10"
     inkscape:pageopacity="0"
     inkscape:pageshadow="2"
     inkscape:window-width="1366"
     inkscape:window-height="711"
     id="namedview97"
     showgrid="false"
     inkscape:zoom="9.1"
     inkscape:cx="30"
     inkscape:cy="30"
     inkscape:window-x="0"
     inkscape:window-y="0"
     inkscape:window-maximized="1"
     inkscape:current-layer="svg95" />
  <defs
     id="defs65">
    <filter
       id="c">
      <feGaussianBlur
         in="SourceAlpha"
         result="blur"
         stdDeviation="2"
         id="feGaussianBlur2" />
      <feOffset
         result="offsetBlur"
         dx="2"
         dy="2"
         id="feOffset4" />
      <feBlend
         in="SourceGraphic"
         in2="offsetBlur"
         id="feBlend6" />
    </filter>
    <linearGradient
       id="a">
      <stop
         offset="0"
         stop-color="#dfb459"
         id="stop9" />
      <stop
         offset=".042"
         stop-color="#dead54"
         id="stop11" />
      <stop
         offset=".093"
         stop-color="#e1b85f"
         id="stop13" />
      <stop
         offset=".165"
         stop-color="#dba84d"
         id="stop15" />
      <stop
         offset=".305"
         stop-color="#dfb765"
         id="stop17" />
      <stop
         offset=".539"
         stop-color="#d8a94e"
         id="stop19" />
      <stop
         offset=".586"
         stop-color="#d5ab53"
         id="stop21" />
      <stop
         offset=".84"
         stop-color="#e0bf6e"
         id="stop23" />
      <stop
         offset=".924"
         stop-color="#daae52"
         id="stop25" />
      <stop
         offset=".962"
         stop-color="#d9af57"
         id="stop27" />
      <stop
         offset="1"
         stop-color="#e1b663"
         id="stop29" />
    </linearGradient>
    <linearGradient
       xlink:href="#a"
       id="d"
       x1="104.094"
       y1="54.226"
       x2="152.758"
       y2="54.226"
       gradientUnits="userSpaceOnUse" />
    <linearGradient
       xlink:href="#b"
       id="e"
       gradientUnits="userSpaceOnUse"
       x1="-57.446"
       y1="-2.331"
       x2="-39.653"
       y2="-2.331"
       spreadMethod="repeat" />
    <linearGradient
       xlink:href="#a"
       id="f"
       x1="-135.705"
       y1="83.095"
       x2="-106.858"
       y2="83.095"
       gradientUnits="userSpaceOnUse" />
    <linearGradient
       xlink:href="#a"
       id="g"
       x1="-135.705"
       y1="83.095"
       x2="-100.814"
       y2="83.095"
       gradientUnits="userSpaceOnUse" />
    <linearGradient
       xlink:href="#b"
       id="h"
       x1="-136.085"
       y1="99.718"
       x2="-100.553"
       y2="99.718"
       gradientUnits="userSpaceOnUse"
       spreadMethod="repeat" />
    <linearGradient
       xlink:href="#a"
       id="i"
       x1="363.308"
       y1="90.022"
       x2="381.337"
       y2="90.022"
       gradientUnits="userSpaceOnUse" />
    <linearGradient
       xlink:href="#a"
       id="j"
       x1="10.349"
       y1="36.113"
       x2="22.561"
       y2="36.113"
       gradientUnits="userSpaceOnUse" />
    <linearGradient
       xlink:href="#b"
       id="k"
       x1="8.508"
       y1="26.218"
       x2="24.751"
       y2="26.218"
       gradientUnits="userSpaceOnUse" />
    <linearGradient
       xlink:href="#b"
       id="l"
       x1="8.569"
       y1="44.674"
       x2="20.782"
       y2="44.674"
       gradientUnits="userSpaceOnUse"
       spreadMethod="repeat" />
    <linearGradient
       xlink:href="#b"
       id="m"
       x1="8.317"
       y1="36.147"
       x2="24.006"
       y2="36.147"
       gradientUnits="userSpaceOnUse"
       spreadMethod="repeat" />
    <linearGradient
       id="b">
      <stop
         offset="0"
         stop-color="#e5c37b"
         id="stop42" />
      <stop
         offset=".042"
         stop-color="#e4bd76"
         id="stop44" />
      <stop
         offset=".093"
         stop-color="#e7c781"
         id="stop46" />
      <stop
         offset=".165"
         stop-color="#e2b86e"
         id="stop48" />
      <stop
         offset=".305"
         stop-color="#e6c686"
         id="stop50" />
      <stop
         offset=".539"
         stop-color="#dfb96f"
         id="stop52" />
      <stop
         offset=".586"
         stop-color="#ddbb73"
         id="stop54" />
      <stop
         offset=".84"
         stop-color="#e7ce8f"
         id="stop56" />
      <stop
         offset=".924"
         stop-color="#e1bd73"
         id="stop58" />
      <stop
         offset=".962"
         stop-color="#e0bf78"
         id="stop60" />
      <stop
         offset="1"
         stop-color="#e7c685"
         id="stop62" />
    </linearGradient>
  </defs>
  <g
     id="g938"
     transform="translate(3.092705,0.20014669)">
    <g
       transform="matrix(0.89418,0,0,0.89418,-87.935,-17.119)"
       fill="#654b13"
       filter="url(#c)"
       id="g69">
      <path
         d="m 147.797,28.31 -0.236,1.177 h -39.613 l 6.736,43.812 -0.542,-0.129 0.703,1.18 13.139,3.933 c 0.093,0.026 0.192,0.016 0.27,0.022 l 13.41,-4.261 6.837,-44.557 z"
         fill="#876419"
         id="path67" />
    </g>
    <path
       d="m -37.3,-31.01 -13.408,4.26 -6.837,44.558 h 40.553 l -6.898,-44.862 -13.138,-3.935 c -0.094,-0.026 -0.193,-0.015 -0.271,-0.021 z"
       fill="url(#e)"
       transform="matrix(-0.89418,0,0,-0.89418,-7.233,24.118)"
       id="path71"
       style="fill:url(#e)" />
    <path
       d="M 26.12,51.847 26.748,52.9 38.738,49.09 38.11,48.038 Z"
       fill="#a5780f"
       id="path73" />
    <g
       stroke-width="1.386"
       id="g83">
      <path
         d="m 33.15,46.096 c 0.736,-1.39 0.45,-2.979 0.45,-4.505 1.213,-2.5 2.034,-4.423 1.866,-6.692 1.577,-1.757 2.963,-3.628 3.86,-5.792 0.257,-1.072 0.478,-2.144 0.065,-3.217 l -0.579,-0.322 c -0.747,-1.548 -0.967,-1.89 -2.638,-1.673 -0.921,2.854 -0.797,0.984 -0.901,-0.772 -2.56,0.824 -2.502,2.202 -3.845,4.273 -2.032,0.94 -2.914,1.415 -4.906,2.162 l -0.901,0.579 -1.352,2.252 1.223,-2.188 -0.322,-1.415 c 0,0 -0.064,-1.287 0,-1.609 0.136,-2.074 1.973,-4.578 3.46,-5.858 2.034,-1.548 2.426,-2.987 2.718,-5.467 -9.927,-5.51 -14.797,-2.929 -19.37,0.128 0.2,1.138 0.356,1.949 0.784,3.515 1.099,3.685 1.303,6.014 1.469,12.38 0.307,4.666 5.085,11.19 11.159,10.88 l 2.998,4.627 c 1.262,-1.123 1.077,-2.792 1.287,-4.375 l 0.965,0.128 z"
         fill="#c80000"
         stroke="#c80000"
         stroke-width="0.637823"
         id="path75" />
      <path
         d="m 25.646,30.234 c -0.692,1.208 -0.78,3.209 -0.71,3.932"
         fill="none"
         stroke="#debc6a"
         stroke-width="0.797049"
         id="path77" />
      <path
         d="m -108.086,80.845 c -4.597,1.232 -3.885,2.46 -5.113,4.738 3.794,0.296 5.742,-1.934 5.113,-4.738 z"
         fill="url(#f)"
         stroke="url(#g)"
         stroke-width="2.236"
         transform="matrix(0.46019,0,0,0.46019,-18.458,74.795)"
         id="path79"
         style="fill:url(#f);stroke:url(#g)" />
      <path
         d="m -93.16,74.22 c 1.994,-1.137 5.955,1.095 7.4,2.315 4.784,4.04 10.222,9.277 10.309,16.017 1.315,10.47 0.825,25.073 4.796,33.889"
         fill="none"
         stroke="url(#h)"
         stroke-width="2.968"
         transform="matrix(0.46019,0,0,0.46019,-18.458,74.795)"
         id="path81"
         style="stroke:url(#h)" />
    </g>
    <path
       d="m 373.76,91.88 2.365,-3.717"
       fill="none"
       stroke="url(#i)"
       stroke-width="0.999"
       transform="matrix(-0.79748,0,0,-0.79748,334.049,96.406)"
       id="path85"
       style="stroke:url(#i)" />
    <path
       d="m 15.076,36.961 c -0.362,-0.676 0.138,-0.84 0.949,-1.607"
       fill="none"
       stroke="url(#j)"
       stroke-width="0.7"
       transform="matrix(-1.13836,0,0,-1.13836,55.374,69.14)"
       id="path87"
       style="stroke:url(#j)" />
    <path
       d="m 14.683,28.695 3.982,2.321 c 2.292,-3.793 2.303,-3.728 4.583,-6.924 -0.705,-1.743 -3.133,-2.591 -5.027,-3.62 l 0.82,-1.948 c 1.904,1.19 4.274,1.825 5.49,3.857 1.41,-1.697 2.315,-3.407 3.249,-4.77 0.807,0.098 1.455,0.102 2.409,0.516 -2.615,3.8 -5.993,7.51 -10.153,13.808 l 1.228,1.194 -0.86,1.573 -1.925,-1.949 -4.587,-2.486 a 9.112,9.112 0 0 1 0.791,-1.572 z"
       fill="url(#k)"
       stroke="#c80000"
       stroke-width="0.417"
       transform="rotate(180,26.346,30.263)"
       id="path89"
       style="fill:url(#k)" />
    <path
       d="m 21.193,43.242 c 0.333,0.075 1.114,0.413 1.273,0.5 5.752,3.181 11.644,3.772 16.572,0.1 0.21,-0.157 1.519,-0.816 1.735,-0.877"
       fill="none"
       stroke="url(#l)"
       stroke-width="1.5"
       transform="rotate(180,26.346,30.263)"
       id="path91"
       style="stroke:url(#l)" />
    <path
       d="m 20.526,33.57 c 0.31,0.217 0.257,0.338 0.3,0.44 1.541,3.703 4.262,5.532 5.96,5.945 6.678,-0.027 8.327,-4.17 11.46,-7.204 0.13,-0.125 0.463,-0.405 0.664,-0.414"
       fill="none"
       stroke="url(#m)"
       stroke-width="1.2"
       transform="rotate(180,26.346,30.263)"
       id="path93"
       style="stroke:url(#m)" />
  </g>
</svg>
