<?xml version="1.0" encoding="UTF-8" standalone="no"?>
<svg
   xmlns:dc="http://purl.org/dc/elements/1.1/"
   xmlns:cc="http://creativecommons.org/ns#"
   xmlns:rdf="http://www.w3.org/1999/02/22-rdf-syntax-ns#"
   xmlns:svg="http://www.w3.org/2000/svg"
   xmlns="http://www.w3.org/2000/svg"
   xmlns:xlink="http://www.w3.org/1999/xlink"
   xmlns:sodipodi="http://sodipodi.sourceforge.net/DTD/sodipodi-0.dtd"
   xmlns:inkscape="http://www.inkscape.org/namespaces/inkscape"
   width="60"
   height="60"
   version="1.1"
   id="svg98"
   sodipodi:docname="1NY.svg"
   inkscape:version="1.0.1 (3bc2e813f5, 2020-09-07)">
  <metadata
     id="metadata102">
    <rdf:RDF>
      <cc:Work
         rdf:about="">
        <dc:format>image/svg+xml</dc:format>
        <dc:type
           rdf:resource="http://purl.org/dc/dcmitype/StillImage" />
      </cc:Work>
    </rdf:RDF>
  </metadata>
  <sodipodi:namedview
     pagecolor="#ffffff"
     bordercolor="#666666"
     borderopacity="1"
     objecttolerance="10"
     gridtolerance="10"
     guidetolerance="10"
     inkscape:pageopacity="0"
     inkscape:pageshadow="2"
     inkscape:window-width="1366"
     inkscape:window-height="711"
     id="namedview100"
     showgrid="false"
     inkscape:zoom="9.1"
     inkscape:cx="30"
     inkscape:cy="30"
     inkscape:window-x="0"
     inkscape:window-y="0"
     inkscape:window-maximized="1"
     inkscape:current-layer="svg98" />
  <defs
     id="defs34">
    <filter
       id="b">
      <feGaussianBlur
         in="SourceAlpha"
         result="blur"
         stdDeviation="2"
         id="feGaussianBlur2" />
      <feOffset
         result="offsetBlur"
         dx="2"
         dy="2"
         id="feOffset4" />
      <feBlend
         in="SourceGraphic"
         in2="offsetBlur"
         id="feBlend6" />
    </filter>
    <linearGradient
       xlink:href="#a"
       id="c"
       x1="104.094"
       y1="54.226"
       x2="152.758"
       y2="54.226"
       gradientUnits="userSpaceOnUse" />
    <linearGradient
       xlink:href="#a"
       id="d"
       gradientUnits="userSpaceOnUse"
       x1="-57.446"
       y1="-2.331"
       x2="-39.653"
       y2="-2.331"
       spreadMethod="repeat" />
    <linearGradient
       id="a">
      <stop
         offset="0"
         stop-color="#e5c37b"
         id="stop11" />
      <stop
         offset=".042"
         stop-color="#e4bd76"
         id="stop13" />
      <stop
         offset=".093"
         stop-color="#e7c781"
         id="stop15" />
      <stop
         offset=".165"
         stop-color="#e2b86e"
         id="stop17" />
      <stop
         offset=".305"
         stop-color="#e6c686"
         id="stop19" />
      <stop
         offset=".539"
         stop-color="#dfb96f"
         id="stop21" />
      <stop
         offset=".586"
         stop-color="#ddbb73"
         id="stop23" />
      <stop
         offset=".84"
         stop-color="#e7ce8f"
         id="stop25" />
      <stop
         offset=".924"
         stop-color="#e1bd73"
         id="stop27" />
      <stop
         offset=".962"
         stop-color="#e0bf78"
         id="stop29" />
      <stop
         offset="1"
         stop-color="#e7c685"
         id="stop31" />
    </linearGradient>
  </defs>
  <g
     id="g958"
     transform="translate(3.2792164)">
    <g
       transform="matrix(0.89418,0,0,0.89418,-87.935,-17.119)"
       fill="#654b13"
       filter="url(#b)"
       id="g38">
      <path
         d="m 147.797,28.31 -0.236,1.177 h -39.613 l 6.736,43.812 -0.542,-0.129 0.703,1.18 13.139,3.933 c 0.093,0.026 0.192,0.016 0.27,0.022 l 13.41,-4.261 6.837,-44.557 z"
         fill="#876419"
         id="path36" />
    </g>
    <path
       d="m -37.3,-31.01 -13.408,4.26 -6.837,44.558 h 40.553 l -6.898,-44.862 -13.138,-3.935 c -0.094,-0.026 -0.193,-0.015 -0.271,-0.021 z"
       fill="url(#d)"
       transform="matrix(-0.89418,0,0,-0.89418,-7.233,24.118)"
       id="path40"
       style="fill:url(#d)" />
    <path
       d="M 26.12,51.847 26.748,52.9 38.738,49.09 38.11,48.038 Z"
       fill="#a5780f"
       id="path42" />
    <path
       d="m 372.14,1666.57 v -346.55 h 15 v 346.55 z"
       fill="#c80000"
       stroke="#c80000"
       transform="matrix(0.07194,0,0,-0.05254,-1.246,107.087)"
       stroke-width="4.938"
       id="path44" />
    <g
       fill="#c80000"
       stroke="#c80000"
       stroke-width="4.938"
       id="g50">
      <path
         d="m 373.444,1325.142 -13.45,-8.57 2.65,-111.341 16.688,-28.568 17.542,27.755 2.373,111.247 -13.382,9.224 z"
         stroke-width="7.713"
         transform="matrix(0.05076,0,0,-0.03707,6.796,85.945)"
         id="path46" />
      <path
         d="m 379.551,1181.017 v 105.099 l 16.535,13.127 m -16.535,-13.127 -16.317,14.496"
         stroke-width="4.516"
         transform="matrix(0.05076,0,0,-0.03707,6.796,85.945)"
         id="path48" />
    </g>
    <path
       d="m 26.064,36.094 a 8.442,8.442 0 0 1 -8.442,-8.443 8.442,8.442 0 0 1 8.442,-8.442 8.442,8.442 0 0 1 8.442,8.442 8.442,8.442 0 0 1 -8.442,8.443 z m 0,-1.841 a 6.6,6.6 0 0 0 6.6,-6.602 6.6,6.6 0 0 0 -6.6,-6.6 6.6,6.6 0 0 0 -6.602,6.6 6.6,6.6 0 0 0 6.602,6.602 z"
       fill="#c80000"
       id="path52" />
    <path
       d="m 372.14,1666.57 v -346.55 h 15 v 346.55 z"
       fill="#c80000"
       stroke="#c80000"
       transform="matrix(0.07194,0,0,0.05254,-1.246,-51.842)"
       stroke-width="4.938"
       id="path54" />
    <g
       stroke="#c80000"
       stroke-width="4.938"
       id="g62">
      <path
         d="m 373.444,1325.142 -13.45,-8.57 2.65,-111.341 16.688,-28.568 17.542,27.755 2.373,111.247 -13.382,9.224 z"
         fill="#c80000"
         stroke-width="7.713"
         transform="matrix(0.05076,0,0,0.03707,6.798,-30.7)"
         id="path56" />
      <path
         d="m 379.551,1181.017 v 105.099 l 16.535,13.127"
         fill="#c80000"
         stroke-width="4.516"
         transform="matrix(0.05076,0,0,0.03707,6.798,-30.7)"
         id="path58" />
      <path
         d="m 379.551,1286.116 -16.317,14.496"
         fill="none"
         stroke-width="4.516"
         transform="matrix(0.05076,0,0,0.03707,6.798,-30.7)"
         id="path60" />
    </g>
    <path
       d="m 372.14,1666.57 v -346.55 h 15 v 346.55 z"
       fill="#c80000"
       stroke="#c80000"
       transform="matrix(0.05087,-0.05087,-0.03715,-0.03715,62.66,103.134)"
       stroke-width="4.938"
       id="path64" />
    <path
       d="m 372.14,1666.57 v -346.55 h 15 v 346.55 z"
       fill="#c80000"
       stroke="#c80000"
       transform="matrix(-0.05087015,-0.05086837,0.03715074,-0.03715204,-10.806424,103.13394)"
       stroke-width="4.938"
       id="path66" />
    <path
       d="m 372.14,1666.57 v -346.55 h 15 v 346.55 z"
       fill="#c80000"
       stroke="#c80000"
       transform="matrix(0,0.07194,0.05254,0,-52.845,0.342)"
       stroke-width="4.938"
       id="path68" />
    <g
       stroke="#c80000"
       stroke-width="4.938"
       id="g76">
      <path
         d="m 373.444,1325.142 -13.45,-8.57 2.65,-111.341 16.688,-28.568 17.542,27.755 2.373,111.247 -13.382,9.224 z"
         fill="#c80000"
         stroke-width="7.713"
         transform="matrix(0,0.05076,0.03707,0,-32.284,8.383)"
         id="path70" />
      <path
         d="m 379.551,1181.017 v 105.099 l 16.535,13.127"
         fill="#c80000"
         stroke-width="4.516"
         transform="matrix(0,0.05076,0.03707,0,-32.284,8.383)"
         id="path72" />
      <path
         d="m 379.551,1286.116 -16.317,14.496"
         fill="none"
         stroke-width="4.516"
         transform="matrix(0,0.05076,0.03707,0,-32.284,8.383)"
         id="path74" />
    </g>
    <path
       d="m 372.14,1666.57 v -346.55 h 15 v 346.55 z"
       fill="#c80000"
       stroke="#c80000"
       transform="matrix(0,0.07194,-0.05254,0,105.012,0.342)"
       stroke-width="4.938"
       id="path78" />
    <g
       stroke="#c80000"
       stroke-width="4.938"
       id="g84">
      <path
         d="m 373.444,1325.142 -13.45,-8.57 2.65,-111.341 16.688,-28.568 17.542,27.755 2.373,111.247 -13.382,9.224 z"
         fill="#c80000"
         stroke-width="7.713"
         transform="matrix(0,0.05076,-0.03707,0,84.508,8.383)"
         id="path80" />
      <path
         d="m 379.551,1181.017 v 105.099 l 16.535,13.127 m -16.535,-13.127 -16.317,14.496"
         fill="none"
         stroke-width="4.516"
         transform="matrix(0,0.05076,-0.03707,0,84.508,8.383)"
         id="path82" />
    </g>
    <g
       stroke="#c80000"
       stroke-width="4.938"
       id="g90">
      <path
         d="m 373.444,1325.142 -13.45,-8.57 2.65,-111.341 16.688,-28.568 17.542,27.755 2.373,111.247 -13.382,9.224 z"
         fill="#c80000"
         stroke-width="7.713"
         transform="matrix(-0.03589023,0.03589525,-0.02621428,-0.02621062,80.96043,55.541781)"
         id="path86" />
      <path
         d="m 379.551,1181.017 v 105.099 l 16.535,13.127 m -16.535,-13.127 -16.317,14.496"
         fill="none"
         stroke-width="4.516"
         transform="matrix(-0.03589023,0.03589525,-0.02621428,-0.02621062,80.96043,55.541781)"
         id="path88" />
    </g>
    <g
       stroke="#c80000"
       stroke-width="4.938"
       id="g96">
      <path
         d="m 373.444,1325.142 -13.45,-8.57 2.65,-111.341 16.688,-28.568 17.542,27.755 2.373,111.247 -13.382,9.224 z"
         fill="#c80000"
         stroke-width="7.713"
         transform="matrix(0.0359,0.0359,0.02621,-0.02621,-29.112,55.544)"
         id="path92" />
      <path
         d="m 379.551,1181.017 v 105.099 l 16.535,13.127 m -16.535,-13.127 -16.317,14.496"
         fill="none"
         stroke-width="4.516"
         transform="matrix(0.0359,0.0359,0.02621,-0.02621,-29.112,55.544)"
         id="path94" />
    </g>
  </g>
</svg>
