<svg xmlns="http://www.w3.org/2000/svg" xmlns:xlink="http://www.w3.org/1999/xlink" width="52.157" height="60"><defs><filter id="b"><feGaussianBlur in="SourceAlpha" result="blur" stdDeviation="2"/><feOffset result="offsetBlur" dx="2" dy="2"/><feBlend in="SourceGraphic" in2="offsetBlur"/></filter><linearGradient xlink:href="#a" id="c" x1="104.094" y1="54.226" x2="152.758" y2="54.226" gradientUnits="userSpaceOnUse"/><linearGradient xlink:href="#a" id="d" gradientUnits="userSpaceOnUse" x1="-57.446" y1="-2.331" x2="-39.653" y2="-2.331" spreadMethod="repeat"/><linearGradient id="a"><stop offset="0" stop-color="#e5c37b"/><stop offset=".042" stop-color="#e4bd76"/><stop offset=".093" stop-color="#e7c781"/><stop offset=".165" stop-color="#e2b86e"/><stop offset=".305" stop-color="#e6c686"/><stop offset=".539" stop-color="#dfb96f"/><stop offset=".586" stop-color="#ddbb73"/><stop offset=".84" stop-color="#e7ce8f"/><stop offset=".924" stop-color="#e1bd73"/><stop offset=".962" stop-color="#e0bf78"/><stop offset="1" stop-color="#e7c685"/></linearGradient></defs><g transform="matrix(.89418 0 0 .89418 -87.935 -17.119)" fill="#654b13" filter="url(#b)"><path d="M147.797 28.31l-.236 1.177h-39.613l6.736 43.812-.542-.129.703 1.18 13.139 3.933c.093.026.192.016.27.022l13.41-4.261 6.837-44.557-.704-1.177z" fill="#876419"/></g><path d="M-37.3-31.01l-13.408 4.26-6.837 44.558h40.553l-6.898-44.862-13.138-3.935c-.094-.026-.193-.015-.271-.021z" fill="url(#d)" transform="matrix(-.89418 0 0 -.89418 -7.233 24.118)"/><path d="M26.12 51.847l.628 1.053 11.99-3.81-.628-1.052z" fill="#a5780f"/><path d="M372.14 1666.57v-346.55h15v346.55z" fill="#c80000" stroke="#c80000" transform="matrix(.07194 0 0 -.05254 -1.246 107.087)" stroke-width="4.938"/><g fill="#c80000" stroke="#c80000" stroke-width="4.938"><path d="M373.444 1325.142l-13.45-8.57 2.65-111.341 16.688-28.568 17.542 27.755 2.373 111.247-13.382 9.224z" stroke-width="7.713" transform="matrix(.05076 0 0 -.03707 6.796 85.945)"/><path d="M379.551 1181.017v105.099l16.535 13.127M379.551 1286.116l-16.317 14.496" stroke-width="4.516" transform="matrix(.05076 0 0 -.03707 6.796 85.945)"/></g><path d="M26.064 36.094a8.442 8.442 0 0 1-8.442-8.443 8.442 8.442 0 0 1 8.442-8.442 8.442 8.442 0 0 1 8.442 8.442 8.442 8.442 0 0 1-8.442 8.443zm0-1.841a6.6 6.6 0 0 0 6.6-6.602 6.6 6.6 0 0 0-6.6-6.6 6.6 6.6 0 0 0-6.602 6.6 6.6 6.6 0 0 0 6.602 6.602z" fill="#c80000"/><path d="M372.14 1666.57v-346.55h15v346.55z" fill="#c80000" stroke="#c80000" transform="matrix(.07194 0 0 .05254 -1.246 -51.842)" stroke-width="4.938"/><g stroke="#c80000" stroke-width="4.938"><path d="M373.444 1325.142l-13.45-8.57 2.65-111.341 16.688-28.568 17.542 27.755 2.373 111.247-13.382 9.224z" fill="#c80000" stroke-width="7.713" transform="matrix(.05076 0 0 .03707 6.798 -30.7)"/><path d="M379.551 1181.017v105.099l16.535 13.127" fill="#c80000" stroke-width="4.516" transform="matrix(.05076 0 0 .03707 6.798 -30.7)"/><path d="M379.551 1286.116l-16.317 14.496" fill="none" stroke-width="4.516" transform="matrix(.05076 0 0 .03707 6.798 -30.7)"/></g><path d="M372.14 1666.57v-346.55h15v346.55z" fill="#c80000" stroke="#c80000" transform="matrix(.05087 -.05087 -.03715 -.03715 62.66 103.134)" stroke-width="4.938"/><path d="M372.14 1666.57v-346.55h15v346.55z" fill="#c80000" stroke="#c80000" transform="rotate(-135.001 15.956 53.805) scale(.07194 .05254)" stroke-width="4.938"/><path d="M372.14 1666.57v-346.55h15v346.55z" fill="#c80000" stroke="#c80000" transform="matrix(0 .07194 .05254 0 -52.845 .342)" stroke-width="4.938"/><g stroke="#c80000" stroke-width="4.938"><path d="M373.444 1325.142l-13.45-8.57 2.65-111.341 16.688-28.568 17.542 27.755 2.373 111.247-13.382 9.224z" fill="#c80000" stroke-width="7.713" transform="matrix(0 .05076 .03707 0 -32.284 8.383)"/><path d="M379.551 1181.017v105.099l16.535 13.127" fill="#c80000" stroke-width="4.516" transform="matrix(0 .05076 .03707 0 -32.284 8.383)"/><path d="M379.551 1286.116l-16.317 14.496" fill="none" stroke-width="4.516" transform="matrix(0 .05076 .03707 0 -32.284 8.383)"/></g><path d="M372.14 1666.57v-346.55h15v346.55z" fill="#c80000" stroke="#c80000" transform="matrix(0 .07194 -.05254 0 105.012 .342)" stroke-width="4.938"/><g stroke="#c80000" stroke-width="4.938"><path d="M373.444 1325.142l-13.45-8.57 2.65-111.341 16.688-28.568 17.542 27.755 2.373 111.247-13.382 9.224z" fill="#c80000" stroke-width="7.713" transform="matrix(0 .05076 -.03707 0 84.508 8.383)"/><path d="M379.551 1181.017v105.099l16.535 13.127M379.551 1286.116l-16.317 14.496" fill="none" stroke-width="4.516" transform="matrix(0 .05076 -.03707 0 84.508 8.383)"/></g><g stroke="#c80000" stroke-width="4.938"><path d="M373.444 1325.142l-13.45-8.57 2.65-111.341 16.688-28.568 17.542 27.755 2.373 111.247-13.382 9.224z" fill="#c80000" stroke-width="7.713" transform="rotate(134.996 28.976 44.54) scale(.05076 .03707)"/><path d="M379.551 1181.017v105.099l16.535 13.127M379.551 1286.116l-16.317 14.496" fill="none" stroke-width="4.516" transform="rotate(134.996 28.976 44.54) scale(.05076 .03707)"/></g><g stroke="#c80000" stroke-width="4.938"><path d="M373.444 1325.142l-13.45-8.57 2.65-111.341 16.688-28.568 17.542 27.755 2.373 111.247-13.382 9.224z" fill="#c80000" stroke-width="7.713" transform="matrix(.0359 .0359 .02621 -.02621 -29.112 55.544)"/><path d="M379.551 1181.017v105.099l16.535 13.127M379.551 1286.116l-16.317 14.496" fill="none" stroke-width="4.516" transform="matrix(.0359 .0359 .02621 -.02621 -29.112 55.544)"/></g></svg>