<svg xmlns="http://www.w3.org/2000/svg" xmlns:xlink="http://www.w3.org/1999/xlink" width="60" height="60"><defs><linearGradient id="a"><stop offset="0" stop-color="#dfb459"/><stop offset=".041" stop-color="#dead54"/><stop offset=".082" stop-color="#e1b85f"/><stop offset=".165" stop-color="#dba84d"/><stop offset=".305" stop-color="#dfb765"/><stop offset=".539" stop-color="#d8a94e"/><stop offset=".586" stop-color="#d5ab53"/><stop offset=".84" stop-color="#e0bf6e"/><stop offset=".924" stop-color="#daae52"/><stop offset=".962" stop-color="#d9af57"/><stop offset="1" stop-color="#e1b663"/></linearGradient><linearGradient xlink:href="#a" id="c" x1="148.578" y1="49.826" x2="130.323" y2="49.826" gradientUnits="userSpaceOnUse" spreadMethod="repeat"/><linearGradient xlink:href="#b" id="l" x1="75.609" y1="151.302" x2="96.28" y2="151.302" gradientUnits="userSpaceOnUse" gradientTransform="translate(-39.636 -68.395) scale(1.44493)"/><linearGradient xlink:href="#b" id="f" gradientUnits="userSpaceOnUse" x1="76.354" y1="184.13" x2="81.431" y2="184.13"/><linearGradient xlink:href="#b" id="g" gradientUnits="userSpaceOnUse" x1="75.616" y1="159.699" x2="96.529" y2="159.699" spreadMethod="repeat"/><linearGradient xlink:href="#b" id="h" gradientUnits="userSpaceOnUse" x1="74.42" y1="166.883" x2="96.477" y2="166.883" spreadMethod="repeat"/><linearGradient xlink:href="#b" id="i" gradientUnits="userSpaceOnUse" x1="74.183" y1="175.275" x2="97.521" y2="175.275" spreadMethod="repeat"/><linearGradient xlink:href="#b" id="j" gradientUnits="userSpaceOnUse" x1="96.587" y1="155.069" x2="104.367" y2="155.069"/><linearGradient xlink:href="#b" id="k" gradientUnits="userSpaceOnUse" x1="95.724" y1="151.622" x2="103.167" y2="151.622"/><linearGradient id="b"><stop offset="0" stop-color="#e5c37b"/><stop offset=".042" stop-color="#e4bd76"/><stop offset=".093" stop-color="#e7c781"/><stop offset=".165" stop-color="#e2b86e"/><stop offset=".305" stop-color="#e6c686"/><stop offset=".539" stop-color="#dfb96f"/><stop offset=".586" stop-color="#ddbb73"/><stop offset=".84" stop-color="#e7ce8f"/><stop offset=".924" stop-color="#e1bd73"/><stop offset=".962" stop-color="#e0bf78"/><stop offset="1" stop-color="#e7c685"/></linearGradient><linearGradient xlink:href="#b" id="e" gradientUnits="userSpaceOnUse" x1="148.578" y1="49.826" x2="130.323" y2="49.826" spreadMethod="repeat"/><filter id="d"><feGaussianBlur in="SourceAlpha" result="blur" stdDeviation="2"/><feOffset result="offsetBlur" dx="2" dy="2"/><feBlend in="SourceGraphic" in2="offsetBlur"/></filter></defs><g transform="translate(-96.557 -23.219) scale(.98185)" fill="url(#c)" filter="url(#d)"><path d="M148.702 29.817l-.139.972.718.01zm.58.982H109.09l6.41 44.002-.454-.121.578.98 13.14 3.935a.88.88 0 00.27.022l13.41-4.26 6.836-44.558z" fill="#876419"/><path d="M-37.3-31.01l-13.408 4.26-6.837 44.558h40.19l-6.535-44.862-13.138-3.935a.885.885 0 00-.271-.021z" fill="url(#e)" transform="rotate(180 45.578 23.813)"/></g><path d="M29.567 53.989l.303.943 13.431-4.162-.568-.964z" fill="#ac812a"/><path d="M30.896 30.835c3.676-.945 4.675-7.162 7.76-9.713.535.268.603.868.58 2.111l2.06 1.109-3.326.422 2.111 1.161-2.798.476 1.162 1.636-2.27-.37.106 2.376-1.003.528v1.583l.527.792.845-.106-.053-.739 1.214-.105.106-.898.95.317.74-.21-.16-1.796 1.532.053.052-2.903c.346.281.837.563 1.742.844.28-1.654.208-3.15.211-4.803l2.481 3.484c-.196.478-.733.435-1.108 1.53.033.765.062 1.527.37 2.429-1.864.92-3.482 2.576-5.068 4.328l-.053 3.642c-1.29 2.884-1.539 2.122-2.111.053-1.053 1.12-.065 5.026-3.801 6.968.937-2.094 2.687-4.29 1.53-6.123-4.157 5.155-8.485 9.096-13.618 7.284 5.066-.415 8.812-3.345 7.937-6.513-3.183 3.556-7.086 2.733-8.339 2.122 3.95-.408 5.566-1.922 4.73-4.16-4.472 1.285-7.896 1.09-9.976-1.003 2.505.274 6.15 1.05 6.245-.416-17.532-7.736 2.571-19.192 2.887-20.698 1.093-2.704.473-3.73.422-5.543l12.669-.053c.575 8.093-6.61 10.935-10.204 12.627-3.938 1.854-6.364 9.034-.589 9.114.49-1.033.771-2.595.5-4.585 1.205 3.545 3.247 4.58 5.859 3.906" fill="red" stroke="red" stroke-width=".582"/><path d="M29.091 40.134c.371-1.566-.953-3.234-2.944-3.761 1.432-.957 1.908-1.912 1.908-1.912-.642-.02-2.282-.404-2.866-1.38.27-.09 1.674-.557 1.883-1.423m-1.21-.158c-5.5 1.658-8.948-.83-10.638-4.105m8.81 2.426c-5.928-.207-4.315-7.03-2.838-10.712m-.372 12.765c-2.455-1.334-4.505-3.179-3.621-8.734m7.315-3.472c1.297-.587 1.965-5.555 1.046-5.262m-4.927 13.922c-2.072-8.083 11.141-10.27 9.219-18.29m-6.009 18.887c-6.116-6.718 11.534-9.398 9.854-18.998M26.384 23.7l-2.052-.97m5.822-1.195c-.686-.887-1.192-1.688-2.276-1.68m6.942-1.269c-.529-1.362-2.264-1.299-3.844-1.418m6.382-2.203c-.07-2.567-1.902-2.729-3.62-2.874m2.127 23.142c-1.467 1.981-2.768 4.164-5.188 5.002m2.613-7.167c-1.854.225-3.708.344-5.562.075m5.936 1.456c-1.022 1.277-3.052 1.646-5.04 2.053" stroke-width=".582" fill="none" stroke="#fff"/><path d="M37.321 37.025l1.12-.859V34.86l-1.045.933z" fill="#fff" stroke="#fff" stroke-width=".582"/><path d="M42.174 28.552c-4.952-.166-12.171-6.467-13.886-3.135" fill="none" stroke="red" stroke-width=".582"/><path d="M30.896 30.835c3.676-.945 4.675-7.162 7.76-9.713.535.268.603.868.58 2.111l2.06 1.109-3.326.422 2.111 1.161-2.798.476 1.162 1.636-2.27-.37.106 2.376-1.003.528v1.583l.527.792.845-.106-.053-.739 1.214-.105.106-.898.95.317.74-.21-.16-1.796 1.532.053.052-2.903c.346.281.837.563 1.742.844.28-1.654.208-3.15.211-4.803l2.481 3.484c-.196.478-.733.435-1.108 1.53.033.765.062 1.527.37 2.429-1.864.92-3.482 2.576-5.068 4.328l-.053 3.642c-.664 1.819-1.124 2.803-1.696 3.739-.042-1.353-.116-2.473-.46-3.236-1.053 1.12-.02 4.576-3.756 6.518.937-2.094 2.687-4.29 1.53-6.123-4.157 5.155-8.485 9.096-13.618 7.284 5.066-.415 8.812-3.345 7.937-6.513-3.183 3.556-7.086 2.733-8.339 2.122 3.95-.408 5.566-1.922 4.73-4.16-4.472 1.285-7.896 1.09-9.976-1.003 2.505.274 6.15 1.05 6.245-.416-17.532-7.736 2.571-19.192 2.887-20.698 1.093-2.704.473-3.73.422-5.543 5.735-2.772 9.691-2.304 12.669-.053.575 8.093-6.61 10.935-10.204 12.627-3.938 1.854-6.364 9.034-.589 9.114.49-1.033.771-2.595.5-4.585 1.205 3.545 3.247 4.58 5.859 3.906" fill="#c80000" stroke="#c80000" stroke-width=".582"/><g stroke-width=".8" fill="none"><path transform="matrix(-.97048 0 0 .97048 103.638 -142.8)" d="M76.815 188.497c-.383-1.614.982-3.333 3.033-3.876-1.475-.986-1.966-1.97-1.966-1.97.661-.02 2.351-.416 2.954-1.422-.28-.092-1.726-.574-1.941-1.466" stroke="url(#f)" stroke-width=".793"/><g stroke="#fff" stroke-width="1.058"><path d="M106.855 157.383c7.557-2.278 12.295 1.142 14.615 5.64" stroke="url(#g)" transform="rotate(180 51.819 73.027) scale(.72786)"/><path d="M109.368 159.69c8.144.285 5.927 9.658 3.897 14.718" stroke="url(#h)" transform="rotate(180 51.819 73.027) scale(.72786)"/><path d="M109.625 160.921c8.252 9.066-14.994 12.78-13.637 25.406.025.23.413 3.232.403 3.645" stroke="url(#i)" transform="rotate(180 51.819 73.027) scale(.72786)"/></g><path d="M96.65 155.23c2.547-.31 5.094-.473 7.641-.103" stroke="url(#j)" stroke-width="1.058" transform="rotate(180 51.819 73.027) scale(.72786)"/><path d="M96.138 153.127c1.402-1.755 4.191-2.262 6.923-2.82" stroke="url(#k)" stroke-width="1.058" transform="rotate(180 51.819 73.027) scale(.72786)"/></g><path d="M92.015 148.046l-2.223 1.704v2.594c1.122-.627 1.645-1.241 2.075-1.853.147-.913.32-1.85.148-2.445z" fill="url(#l)" stroke="url(#l)" stroke-width="1.156" transform="rotate(180 51.819 73.027) scale(.72786)"/><path d="M42.174 28.552c-4.952-.166-12.171-6.467-13.886-3.135" fill="none" stroke="#c80000" stroke-width=".582"/></svg>