<?xml version="1.0" encoding="UTF-8"?>
<svg width="50mm" height="50mm" clip-rule="evenodd" fill-rule="evenodd" image-rendering="optimizeQuality" shape-rendering="geometricPrecision" text-rendering="geometricPrecision" version="1.1" viewBox="0 0 50 50" xmlns="http://www.w3.org/2000/svg" xmlns:cc="http://creativecommons.org/ns#" xmlns:dc="http://purl.org/dc/elements/1.1/" xmlns:rdf="http://www.w3.org/1999/02/22-rdf-syntax-ns#" xmlns:xlink="http://www.w3.org/1999/xlink">
 <defs>
  <linearGradient id="linearGradient1889-2" x1="-825.75" x2="-704.44" y1="2712.8" y2="2712.8" gradientUnits="userSpaceOnUse" xlink:href="#linearGradient2250"/>
  <linearGradient id="linearGradient2250">
   <stop stop-color="#796c60" offset="0"/>
   <stop stop-color="#4b403b" offset="1"/>
  </linearGradient>
  <linearGradient id="linearGradient2238" x1="-215.24" x2="-184.86" y1="731.78" y2="731.78" gradientUnits="userSpaceOnUse" xlink:href="#linearGradient2250"/>
 </defs>
 <metadata>
  <rdf:RDF>
   <cc:Work rdf:about="">
    <dc:format>image/svg+xml</dc:format>
    <dc:type rdf:resource="http://purl.org/dc/dcmitype/StillImage"/>
    <dc:title/>
   </cc:Work>
  </rdf:RDF>
 </metadata>
 <g transform="translate(.0021623 .1957)" clip-rule="evenodd" fill-rule="evenodd" image-rendering="optimizeQuality" shape-rendering="geometricPrecision">
  <g transform="translate(225.05,-690.73)" clip-rule="evenodd" fill-rule="evenodd" shape-rendering="geometricPrecision">
   <g transform="matrix(1 0 0 .95836 -225.04 692.31)" image-rendering="optimizeQuality" stroke-width="1.0215">
    <g transform="translate(221.07,-170.56)" stroke-width="1.0215">
     <g transform="matrix(1.0676,0,0,1.0981,73.872,422.19)" stroke-width=".94346">
      <g fill="#e7d6c3" stroke="#3c3c3c" stroke-linejoin="round">
       <path transform="matrix(.24783 0 0 .24095 -63.248 -864.21)" d="m-765.07 2643.9c-6.8133 0.3934-12.199 4.8659-12.201 10.326 0 2.2289 0.92414 6.4832 2.6191 8.2686h-21.791v20.135h23.832l-9.8652 11.173 10.104 8.5455c-21.106 1.4304-45.434 6.4792-49.715 15.765-4.794 10.402 23.49 61.519 23.49 61.519h67.01s28.284-51.118 23.49-61.519c-4.2847-9.2971-28.703-14.355-49.811-15.771l10.242-8.5396-9.8652-11.173h23.832v-20.135h-21.791c1.695-1.7854 2.6191-6.0398 2.6191-8.2686-2e-3 -5.4602-5.3859-9.9328-12.199-10.326z" fill="url(#linearGradient1889-2)" fill-rule="evenodd" stroke="#1e1e1e" stroke-width="6.1772" style="paint-order:fill markers stroke"/>
      </g>
      <path d="m-246.97-194.46 2.4099-5e-3s7.0088-11.809 5.8207-14.315c-3.8738-3.6336-12.345-4.2995-12.345-4.2995 10.35 2.6812 11.819 4.7779 4.1146 18.62z" opacity=".3"/>
     </g>
    </g>
   </g>
   <path d="m-211.81 728.82c-1.4368 0-2.627 1.2165-2.627 2.6847v0.5449l0.0126 2.6847h28.749l0.0125-2.6847v-0.5449c0-1.4682-1.1903-2.6847-2.627-2.6847h-11.76z" fill="url(#linearGradient2238)" image-rendering="optimizeQuality" stroke="#1e1e1e" stroke-linecap="round" stroke-linejoin="round" stroke-width="1.6"/>
   <path d="m-193.15 728.82c1.4368 0 2.627 1.2165 2.627 2.6847v0.5449l-0.0125 2.6847h4.8721l0.0125-2.6847v-0.5449c0-1.4682-1.1903-2.6847-2.627-2.6847z" image-rendering="optimizeQuality" opacity=".3" stroke-width="1.1"/>
  </g>
 </g>
</svg>
