<svg xmlns="http://www.w3.org/2000/svg" xmlns:xlink="http://www.w3.org/1999/xlink" width="50mm" height="50mm" fill-rule="evenodd" clip-rule="evenodd" image-rendering="optimizeQuality" shape-rendering="geometricPrecision" text-rendering="geometricPrecision" viewBox="0 0 50 50"><defs><linearGradient xlink:href="#a" id="b" x1="3295.1" x2="3321.5" y1="-411.88" y2="-411.88" gradientTransform="matrix(1.0621 0 0 1.0589 -3487.5 459.63)" gradientUnits="userSpaceOnUse"/><linearGradient id="a"><stop offset="0" stop-color="#796c60"/><stop offset="1" stop-color="#4b403b"/></linearGradient><linearGradient xlink:href="#a" id="c" x1="-177.63" x2="-151.24" y1="156.68" y2="156.68" gradientTransform="matrix(1.1509 0 0 1.1499 214.24 -138.92)" gradientUnits="userSpaceOnUse"/></defs><path fill="url(#b)" stroke="#1e1e1e" stroke-linejoin="round" stroke-width="1.6" d="m25.987 23.546-11.592 1.097-1.454-5.216 14.468-6.815 1.763-3.9 10.2 11.892-4.116 17.678H14.74c.245-11.292 9.64-8.1 11.247-14.736z" class="st28"/><path d="m29.173 8.72-.879 1.945.426-.943c2.692 3.722 5.608 7.279 8.45 10.888l-5.285 17.671h3.372l4.117-17.671z" opacity=".15"/><path fill="url(#c)" stroke="#1e1e1e" stroke-linecap="round" stroke-linejoin="round" stroke-width="1.6" d="M13.24 38.286c-1.437 0-2.627 1.216-2.627 2.685v.545l.013 2.684h28.748l.013-2.684v-.545c0-1.468-1.19-2.685-2.627-2.685H25z"/><path fill="#fff" d="M15.62 37.633c.159-4.472 2.145-6.971 8.667-9.837-.987 1.107-6.405 2.237-8.667 9.837zM14.418 21.67l-.523-1.803L28.03 13.21l1.217-2.764-.671 3.558-14.35 5.921z" opacity=".25"/></svg>