<?xml version="1.0" encoding="UTF-8"?>
<svg width="50mm" height="50mm" clip-rule="evenodd" fill-rule="evenodd" image-rendering="optimizeQuality" shape-rendering="geometricPrecision" text-rendering="geometricPrecision" version="1.1" viewBox="0 0 50 50" xmlns="http://www.w3.org/2000/svg" xmlns:cc="http://creativecommons.org/ns#" xmlns:dc="http://purl.org/dc/elements/1.1/" xmlns:rdf="http://www.w3.org/1999/02/22-rdf-syntax-ns#">
 <metadata>
  <rdf:RDF>
   <cc:Work rdf:about="">
    <dc:format>image/svg+xml</dc:format>
    <dc:type rdf:resource="http://purl.org/dc/dcmitype/StillImage"/>
    <dc:title/>
   </cc:Work>
  </rdf:RDF>
 </metadata>
 <g transform="translate(-3422.7 489.44)">
  <g transform="translate(-79.96 72.279)">
   <g>
    <path d="m3527.7-549.62c-3.7351 1.1e-4 -6.7633 2.6396-6.7633 5.8958 0 1.6934 0.8385 3.3044 2.2974 4.4225h-1.7476c-1.3766 0-2.5162 0.97197-2.5162 2.1446v0.43513c0 1.1726 1.1396 2.1441 2.5162 2.1441h2.4929c-0.1217 6.0179-4.3513 10.284-6.4121 12.379l10.133-8e-3 10.133 8e-3c-2.0609-2.0946-6.2905-6.3611-6.4122-12.379h2.4929c1.3769 0 2.5162-0.97148 2.5162-2.1441v-0.43513c0-1.1726-1.1393-2.1446-2.5162-2.1446h-1.7476c1.4589-1.1181 2.2974-2.7291 2.2974-4.4225 0-3.2561-3.0282-5.8956-6.7633-5.8958z" fill="#5a544e" stroke="#1e1d1d" stroke-linejoin="round" stroke-width="1.5"/>
    <path transform="matrix(.26458 0 0 .26458 3465.5 -561.43)" d="m235.2 44.629c-2.0666 1.14e-4 -4.0747 0.21917-6 0.62305 24.809 2.6005 30.429 24.29 19.496 34.646-7.991 6.3507-30.375 3.7305-30.375 3.7305 10.15 1.6614 19.701 3.6722 28.748 5.6777-15.512 19.348 6.4568 46.038 20.418 58.951l6.0098 0.0117c-7.7888-7.9167-23.774-24.042-24.234-46.787h9.4219c5.204 0 9.5098-3.6717 9.5098-8.1035v-1.6445c0-4.4318-4.3057-8.1055-9.5098-8.1055h-6.6055c5.5143-4.2259 8.6847-10.315 8.6836-16.715 0-12.307-11.445-22.283-25.562-22.283z" opacity=".4"/>
   </g>
  </g>
  <g transform="translate(42.589 -17.727)">
   <path class="st29" d="m3393.7-432.2h22.806c1.393 0 2.5472 1.18 2.5472 2.604v0.52892c0 1.4241-1.1542 2.604-2.5472 2.604h-22.806c-1.3931 0-2.5473-1.1799-2.5473-2.604v-0.52892c0-1.4241 1.1542-2.604 2.5473-2.604z" fill="#5a544e" stroke="#1e1d1d" stroke-linecap="round" stroke-linejoin="round" stroke-width="1.5"/>
   <path d="m3413.2-432.42s2.5472 1.1799 2.5472 2.604v0.52867c0 1.2739-2.1162 2.5632-2.1162 2.5632l3.3507-0.0403s2.1193-1.2886 2.1193-2.5636v-0.52866c0-1.4241-1.1541-2.604-2.5471-2.604z" fill="#090704" opacity=".4"/>
  </g>
 </g>
</svg>
