<svg xmlns="http://www.w3.org/2000/svg" xmlns:xlink="http://www.w3.org/1999/xlink" width="50mm" height="50mm" fill-rule="evenodd" clip-rule="evenodd" image-rendering="optimizeQuality" shape-rendering="geometricPrecision" text-rendering="geometricPrecision" viewBox="0 0 50 50"><defs><linearGradient xlink:href="#a" id="b" x1="-647.27" x2="-525.69" y1="418.44" y2="418.44" gradientTransform="translate(209.27 -109.27) scale(.31419)" gradientUnits="userSpaceOnUse"/><linearGradient id="a"><stop offset="0" stop-color="#796c60"/><stop offset="1" stop-color="#4b403b"/></linearGradient><linearGradient xlink:href="#a" id="c" x1="-177.63" x2="-151.24" y1="156.68" y2="156.68" gradientTransform="matrix(1.1509 0 0 1.1499 214.23 -138.92)" gradientUnits="userSpaceOnUse"/></defs><path fill="url(#b)" stroke="#1e1e1e" stroke-linejoin="round" stroke-width="1.6" d="M25 6.122c-2.635 0-4.771 2.098-4.771 4.685.002 1.855 1.118 3.534 2.846 4.283-.369 2.286-1.51 7.558-4.68 8.009-2.355.334-3.855-1.287-4.88-3.144a4.19 4.19 0 0 0 1.767-3.4c0-2.327-1.921-4.214-4.291-4.214S6.699 14.228 6.7 16.555c0 2.142 1.64 3.943 3.809 4.183l4.973 17.54h19.036l4.973-17.54c2.169-.24 3.807-2.041 3.809-4.183 0-2.327-1.922-4.214-4.292-4.214s-4.29 1.887-4.29 4.214a4.19 4.19 0 0 0 1.766 3.4c-1.025 1.857-2.525 3.478-4.88 3.144-3.17-.45-4.31-5.723-4.68-8.01 1.729-.748 2.845-2.427 2.847-4.282 0-2.587-2.136-4.685-4.77-4.685z"/><path d="M39.002 12.342a4.348 4.348 0 0 0-1.567.296c4.741 1.678 3.877 6.805.591 7.316L30.414 38.28h4.2l4.87-17.541c2.17-.241 3.808-2.042 3.81-4.184 0-2.327-1.922-4.214-4.292-4.213z" opacity=".15"/><path fill="url(#c)" stroke="#1e1e1e" stroke-linecap="round" stroke-linejoin="round" stroke-width="1.6" d="M13.227 38.286c-1.437 0-2.627 1.216-2.627 2.685v.545l.013 2.684H39.36l.013-2.684v-.545c0-1.468-1.19-2.685-2.627-2.685h-11.76z"/><g fill="#fff"><path d="M9.515 13.489c-.794 1.17-1.726 2.667-1.554 4.779 0 0-1.604-3.01 1.554-4.779zM23.659 7.23c-.853.874-2.37 2.934-2.133 5.374-.207-.084-1.73-3.893 2.133-5.374zM12.062 23.328l5.244 14.111-1.17.023z" opacity=".25"/></g></svg>