<svg width="50mm" height="50mm" clip-rule="evenodd" fill-rule="evenodd" image-rendering="optimizeQuality" shape-rendering="geometricPrecision" text-rendering="geometricPrecision" version="1.1" viewBox="0 0 50 50" xmlns="http://www.w3.org/2000/svg">
 <g transform="matrix(.26065 0 0 .26177 -275.47 180.01)" stroke-width="1.0129">
  <g fill="#4d463f" stroke="#392d2d">
   <path class="st28" d="m1153-661.88c-4.4459 0-8.0027 3.4923-8.0027 7.8576 0 3.4923 2.6676 6.9846 6.2243 7.8576l-7.5581 48.019-22.23-38.415c2.6676-1.3096 4.0014-3.9288 4.0014-6.9846 0-4.3654-3.5568-7.8576-8.0027-7.8576s-8.0027 3.4923-8.0027 7.8576 3.5568 7.8576 8.0027 7.8576h0.8892l4.4459 43.217-26.231-24.446c1.3338-1.3096 2.2229-3.4923 2.2229-5.2384 0-4.3654-3.5567-7.8576-8.0026-7.8576-4.446 0-8.0027 3.4923-8.0027 7.8576s3.5567 7.8576 8.0027 7.8576c0.8891 0 2.2229 0 3.1121-0.43653l23.119 58.496h71.58l23.119-58.496c0.8892 0.43653 1.7784 0.43653 3.1122 0.43653 4.4459 0 8.0027-3.4923 8.0027-7.8576s-3.5568-7.8576-8.0027-7.8576-8.0027 3.4923-8.0027 7.8576c0 2.1827 0.8892 3.9288 2.223 5.2384l-26.231 24.446 4.446-43.217h0.8892c4.4459 0 8.0026-3.4923 8.0026-7.8576s-3.5567-7.8576-8.0026-7.8576c-4.446 0-8.0027 3.4923-8.0027 7.8576 0 3.0558 1.7783 5.675 4.0013 6.9846l-22.23 38.415-7.5581-48.019c3.5568-0.87307 6.2243-3.9288 6.2243-7.8576 0.4446-4.3654-3.1121-7.8576-7.5581-7.8576z" stroke-width="5.7425"/>
   <path class="st29" d="m1111.8-556.67h80.576c4.9218 0 8.9998 3.675 8.9998 8.1105v1.6474c0 4.4354-4.078 8.1104-8.9998 8.1104h-80.576c-4.9218 0-8.9998-3.675-8.9998-8.1104v-1.6474c0-4.4354 4.078-8.1105 8.9998-8.1105z" stroke-linecap="round" stroke-linejoin="round" stroke-width="5.7425"/>
   <path class="st29" d="m1087.5-540.2h130.5c1.6875 0 2.9531 1.1405 2.9531 2.6612v12.419c0 1.5207-1.2656 2.6612-2.9531 2.6612h-130.5c-1.6875 0-2.9531-1.1405-2.9531-2.6612v-12.419c0-1.5207 1.2656-2.6612 2.9531-2.6612z" stroke-linecap="round" stroke-linejoin="round" stroke-width="5.7425"/>
  </g>
  <path class="st25" d="m1214.2-630.56c-2.5311 0-4.7811 1.1405-6.3279 3.0414 1.125 1.394 1.8281 3.1682 1.8281 4.9423 0 1.7742-0.5625 3.5483-1.8281 4.9423 0.1406 0.12673 0.2812 0.38018 0.4218 0.50691l-14.203 13.179-18.843 47.269h12.656l23.343-58.547c0.9843 0.38017 1.9687 0.5069 2.953 0.5069 4.4999 0 8.1561-3.5483 8.1561-7.9837-0.1406-4.3087-3.6562-7.857-8.1561-7.857zm-40.077 73.881c4.9218 0 8.8592 3.675 8.8592 8.2372v1.1405c0 4.5621-3.9374 8.2372-8.7185 8.2372h18.14c4.9218 0 8.9998-3.675 8.9998-8.1105v-1.6474c0-4.4354-4.078-8.1105-8.9998-8.1105h-18.281zm24.187 16.474c1.6875 0 2.9531 1.2673 2.9531 2.788v12.166c0 1.5207-1.2656 2.788-2.9531 2.788h18.281c1.6875 0 2.9531-1.1405 2.9531-2.6612v-12.419c0-1.5207-1.2656-2.6612-2.9531-2.6612z" enable-background="new" fill="#030303" opacity=".3" stroke-width=".93835"/>
 </g>
</svg>
