<?xml version="1.0" encoding="UTF-8"?>
<svg width="50mm" height="50mm" clip-rule="evenodd" fill-rule="evenodd" image-rendering="optimizeQuality" shape-rendering="geometricPrecision" text-rendering="geometricPrecision" version="1.1" viewBox="0 0 50 50" xmlns="http://www.w3.org/2000/svg" xmlns:cc="http://creativecommons.org/ns#" xmlns:dc="http://purl.org/dc/elements/1.1/" xmlns:rdf="http://www.w3.org/1999/02/22-rdf-syntax-ns#" xmlns:xlink="http://www.w3.org/1999/xlink">
 <defs>
  <linearGradient id="linearGradient1879-0" x1="-647.27" x2="-525.69" y1="418.44" y2="418.44" gradientTransform="matrix(.31419 0 0 .31419 209.27 -109.27)" gradientUnits="userSpaceOnUse" xlink:href="#linearGradient2250"/>
  <linearGradient id="linearGradient2250">
   <stop stop-color="#796c60" offset="0"/>
   <stop stop-color="#4b403b" offset="1"/>
  </linearGradient>
  <linearGradient id="linearGradient1881-2" x1="-177.63" x2="-151.24" y1="156.68" y2="156.68" gradientTransform="matrix(1.1509 0 0 1.1499 214.23 -138.92)" gradientUnits="userSpaceOnUse" xlink:href="#linearGradient2250"/>
 </defs>
 <metadata>
  <rdf:RDF>
   <cc:Work rdf:about="">
    <dc:format>image/svg+xml</dc:format>
    <dc:type rdf:resource="http://purl.org/dc/dcmitype/StillImage"/>
    <dc:title/>
   </cc:Work>
  </rdf:RDF>
 </metadata>
 <g clip-rule="evenodd" fill-rule="evenodd" shape-rendering="geometricPrecision">
  <path d="m25 6.1221c-2.6353 2.199e-4 -4.7713 2.0979-4.7713 4.6852 0.0016 1.855 1.1179 3.5343 2.8467 4.2827-0.36917 2.2866-1.51 7.5584-4.6802 8.009-2.355 0.33458-3.8548-1.287-4.8797-3.1438 1.1081-0.79144 1.7645-2.0549 1.7667-3.4002 1.35e-4 -2.327-1.9212-4.2133-4.2912-4.2133-2.3701-8.5e-5 -4.2915 1.8864-4.2912 4.2133 0.00126 2.1427 1.6404 3.9431 3.8089 4.1837l4.973 17.54h19.036l4.9736-17.54c2.1683-0.24104 3.807-2.0414 3.8083-4.1837 1.35e-4 -2.327-1.9212-4.2133-4.2912-4.2133-2.3698 2.48e-4 -4.2909 1.8866-4.2906 4.2133 0.0019 1.3452 0.65826 2.6086 1.7661 3.4002-1.025 1.8569-2.5248 3.4784-4.8797 3.1438-3.1702-0.45052-4.311-5.7223-4.6802-8.009 1.7288-0.7483 2.8451-2.4276 2.8467-4.2827 2.45e-4 -2.5871-2.1355-4.6846-4.7706-4.6852z" fill="url(#linearGradient1879-0)" image-rendering="optimizeQuality" stroke="#1e1e1e" stroke-linejoin="round" stroke-width="1.6"/>
  <path d="m39.002 12.342c-0.53645 0.0012-1.0679 0.10189-1.5667 0.29578 4.7409 1.6785 3.8762 6.8051 0.59092 7.3161l-7.6127 18.326h4.2002l4.8712-17.541c2.1684-0.24105 3.8071-2.0414 3.8083-4.1839 1.3e-4 -2.327-1.9213-4.2135-4.2913-4.2134z" image-rendering="optimizeQuality" opacity=".3" stroke-width="1.1"/>
  <path d="m13.227 38.286c-1.4368 0-2.627 1.2165-2.627 2.6847v0.5449l0.01254 2.6847h28.749l0.01254-2.6847v-0.5449c0-1.4682-1.1903-2.6847-2.627-2.6847h-11.76z" fill="url(#linearGradient1881-2)" image-rendering="optimizeQuality" stroke="#1e1e1e" stroke-linecap="round" stroke-linejoin="round" stroke-width="1.6"/>
  <path d="m31.883 38.286c1.4368 0 2.627 1.2165 2.627 2.6847v0.5449l-0.01254 2.6847h4.8721l0.01254-2.6847v-0.5449c0-1.4682-1.1903-2.6847-2.627-2.6847z" image-rendering="optimizeQuality" opacity=".3" stroke-width="1.1"/>
 </g>
</svg>
