<svg xmlns="http://www.w3.org/2000/svg" xmlns:xlink="http://www.w3.org/1999/xlink" width="50mm" height="50mm" fill-rule="evenodd" clip-rule="evenodd" image-rendering="optimizeQuality" shape-rendering="geometricPrecision" text-rendering="geometricPrecision" viewBox="0 0 50 50"><defs><linearGradient xlink:href="#a" id="b" x1="3341.2" x2="3366.2" y1="-469.26" y2="-469.26" gradientTransform="matrix(1.019 0 0 1.0751 -3392.3 527.45)" gradientUnits="userSpaceOnUse"/><linearGradient id="a"><stop offset="0" stop-color="#fff"/><stop offset="1" stop-color="#bba38a"/></linearGradient><linearGradient xlink:href="#a" id="c" x1="-177.63" x2="-151.24" y1="156.68" y2="156.68" gradientTransform="matrix(1.1509 0 0 1.1499 214.24 -138.92)" gradientUnits="userSpaceOnUse"/></defs><path fill="url(#b)" stroke="#323232" stroke-linejoin="round" stroke-width="1.6" d="M26.87 8.223c-5.797-2.298-6.952 2.527-4.668 5.86-9.898 10.6-11.253 16.425-6.195 24.204h17.99c6.084-6.912 2.558-14.515-4.823-22.3-2.883 4.119-3.274 7.35-3.946 11.131l-3.62-.071c-.66-6.006 7.622-15.14 5.261-18.823z"/><path d="M24.933 7.654c-.625.02-.207.197-.771.567 0 .003.01.006.01.008 3.582-.311-2.369 11.772-3.394 18.894.536-3.014 1.325-5.68 3.082-8.725 2.003-4.351 4.237-8.681 3.008-10.169-.411-.38-1.144-.601-1.934-.575zm4.24 8.338c-.6.856-.517.67-.972 1.462 6.004 6.049 8.728 13.787 3.097 20.838h2.696c6.085-6.912 2.56-14.515-4.822-22.3z" opacity=".1"/><path fill="url(#c)" stroke="#323232" stroke-linecap="round" stroke-linejoin="round" stroke-width="1.6" d="M13.24 38.286c-1.437 0-2.627 1.216-2.627 2.685v.545l.013 2.684h28.749l.012-2.684v-.545c0-1.468-1.19-2.685-2.627-2.685H25z"/><path fill="#fff" d="M14.895 34.327c-.716-1.396-3.266-6.812 4.513-15.739-2.1 4.86-5.958 8.69-4.513 15.739z"/></svg>