<svg xmlns="http://www.w3.org/2000/svg" xmlns:xlink="http://www.w3.org/1999/xlink" width="50mm" height="50mm" fill-rule="evenodd" clip-rule="evenodd" image-rendering="optimizeQuality" shape-rendering="geometricPrecision" text-rendering="geometricPrecision" viewBox="0 0 50 50"><defs><linearGradient xlink:href="#a" id="b" x1="-825.75" x2="-704.44" y1="2712.8" y2="2712.8" gradientTransform="matrix(.26458 0 0 .25357 227.43 -666.55)" gradientUnits="userSpaceOnUse"/><linearGradient id="a"><stop offset="0" stop-color="#fff"/><stop offset="1" stop-color="#bba38a"/></linearGradient><linearGradient xlink:href="#a" id="c" x1="-215.24" x2="-184.86" y1="731.78" y2="731.78" gradientTransform="translate(225.05 -690.53)" gradientUnits="userSpaceOnUse"/></defs><path fill="url(#b)" stroke="#323232" stroke-linejoin="round" stroke-width="1.6" d="M25.006 3.868c-1.803.1-3.228 1.234-3.228 2.618 0 .565.244 1.644.693 2.097h-5.766v5.106h6.306l-2.61 2.833 2.673 2.167c-5.584.362-12.02 1.643-13.154 3.997-1.268 2.638 6.215 15.6 6.215 15.6h17.73s7.484-12.963 6.215-15.6c-1.133-2.357-7.594-3.64-13.179-3.999l2.71-2.165-2.61-2.833h6.306V8.583H27.54c.449-.453.693-1.531.693-2.097 0-1.384-1.425-2.518-3.228-2.618z" style="paint-order:fill markers stroke"/><path d="m31.289 38.283 2.573-.005s7.482-12.428 6.214-15.065c-4.136-3.824-13.18-4.525-13.18-4.525 11.05 2.822 12.618 5.028 4.393 19.595z" opacity=".1"/><path fill="url(#c)" stroke="#323232" stroke-linecap="round" stroke-linejoin="round" stroke-width="1.6" d="M13.242 38.286c-1.437 0-2.627 1.216-2.627 2.685v.545l.013 2.684h28.749l.012-2.684v-.545c0-1.468-1.19-2.685-2.627-2.685h-11.76z"/><g fill="#fff"><path d="M13.283 31.138s-3.074-6.555-2.666-8.092c.408-1.536 5.987-2.736 5.987-2.736-6.486 2.71-4.786 4.558-3.321 10.828zM17.521 12.884v-3.52l1.532-.011c-.891.007-1.532 2.147-1.532 3.531zM24.798 4.67s-2.614.92-1.53 3.522c-.178-.007-2.142-2.72 1.53-3.522z"/></g></svg>