<svg width="50mm" height="50mm" clip-rule="evenodd" fill-rule="evenodd" image-rendering="optimizeQuality" shape-rendering="geometricPrecision" text-rendering="geometricPrecision" version="1.1" viewBox="0 0 50 50" xmlns="http://www.w3.org/2000/svg">
 <g transform="matrix(.26072 0 0 .26141 -317.8 180.12)">
  <g fill="#e7d6c3" stroke="#392d2d" stroke-linecap="round" stroke-width="5.7457">
   <path class="st29" d="m1275.5-556.67h77.829c4.754 0 8.5572 3.7967 8.5572 8.4508v0.24495c0 4.6541-3.8032 8.4508-8.5572 8.4508h-77.829c-4.7539 0-8.5571-3.7967-8.5571-8.4508v-0.24495c0-4.6541 3.8032-8.4508 8.5571-8.4508z" stroke-linejoin="round"/>
   <path class="st39" d="m1307.7-663.23v8.5733h-12.224v9.798h12.224v12.615c-9.5079-2.9394-27.709-8.9407-41.156-5.2664-46.317 18.126-7.1989 68.954 13.854 80.834h67.235c29.203-21.923 59.493-67.729 13.854-80.834-13.447-3.5518-41.428 5.2664-41.428 5.2664v-12.615h12.224v-9.798h-12.224v-8.5733zm-26.351 49.235c10.866 0 22.276 4.7765 22.276 4.7765v21.923h-24.856s-14.941-13.717-6.6556-24.005c1.4941-1.9596 5.0257-2.6945 9.2363-2.6945zm64.926 0c4.2106 0 7.7421 0.61238 9.2362 2.572 8.2855 10.288-6.6555 24.005-6.6555 24.005h-24.856v-21.923s11.41-4.5316 22.276-4.6541z" style="paint-order:markers fill stroke"/>
   <path class="st29" d="m1250.7-540.75h126.05c1.6299 0 2.8524 1.1023 2.8524 2.572v12.003c0 1.4697-1.2225 2.572-2.8524 2.572h-126.05c-1.63 0-2.8524-1.1023-2.8524-2.572v-12.003c0-1.4697 1.2224-2.572 2.8524-2.572z" stroke-linejoin="round"/>
  </g>
  <path d="m1350.7-638.27c13.175-0.4899 29.08 6.5155 32.605 17.367 3.9493 27.356-14.388 47.695-35.849 64.23h5.8406c4.754 0 8.693 3.5518 8.693 7.8384v1.5922c0 4.2866-3.939 7.8384-8.693 7.8384h-23.226c25.4 0.36742 19.016-17.024 6.248-17.147 52.022-68.586 28.541-77.324-30.137-62.504-6.9272-4.899 34.292-20.698 44.518-19.215z" opacity=".3" stroke-width="1.0135"/>
  <path d="m1379.6-538.18v12.003c0 1.4697-1.2225 2.572-2.8524 2.572h-21.597c1.4941 0 2.8524-1.2248 2.8524-2.6945v-11.758c0-1.4697-1.2225-2.6945-2.8524-2.6945h21.597c1.6299 0 2.8524 1.1023 2.8524 2.572z" opacity=".3" stroke-width="1.0135"/>
 </g>
</svg>
