<svg width="50mm" height="50mm" clip-rule="evenodd" fill-rule="evenodd" image-rendering="optimizeQuality" shape-rendering="geometricPrecision" text-rendering="geometricPrecision" version="1.1" viewBox="0 0 50 50" xmlns="http://www.w3.org/2000/svg">
 <g transform="matrix(.26138 0 0 .25945 -359.5 179.04)">
  <g fill="#e7d6c3" stroke="#392d2d" stroke-width="5.76">
   <path class="st29" d="m1404.2-540.89h133.58c1.7273 0 3.0228 1.1263 3.0228 2.6281v12.264c0 1.5018-1.2955 2.6281-3.0228 2.6281h-133.58c-1.7273 0-3.0228-1.1263-3.0228-2.6281v-12.264c0-1.5018 1.2955-2.6281 3.0228-2.6281z" stroke-linecap="round" stroke-linejoin="round"/>
   <path class="st28" d="m1431.4-558.41v-28.533l29.94-23.903-37.568 3.1287-4.4621-21.525 44.621-13.766 10.364-3.2538 4.6061-15.268 41.743 41.423-12.955 41.298 2.8788 20.274h-79.167z"/>
   <path class="st29" d="m1429.1-558.41h82.478c5.0379 0 9.2121 3.6292 9.2121 8.0094v1.6269c0 4.3801-4.1742 8.0094-9.2121 8.0094h-82.478c-5.0379 0-9.2122-3.6292-9.2122-8.0094v-1.6269c0-4.3801 4.1743-8.0094 9.2122-8.0094z" stroke-linecap="round" stroke-linejoin="round"/>
  </g>
  <g stroke-width=".84685">
   <path class="st26" d="m1478.2-661.4-4.0303 13.266 28.356 28.283-12.955 41.298 2.8788 20.274h17.273l-2.8788-20.274 12.955-41.298z" opacity=".3"/>
   <path class="st26" d="m1494.2-558.41c5.0379 0 9.2122 3.6292 9.2122 8.1345v1.1263c0 4.5053-4.0304 8.1345-9.2122 8.1345h17.273c5.0379 0 9.2122-3.6292 9.2122-8.0094v-1.6269c0-4.3801-4.1743-8.0094-9.2122-8.0094h-17.273z" opacity=".3"/>
   <path class="st26" d="m1519.1-540.89c1.7272 0 3.0227 1.2515 3.0227 2.7532v12.014c0 1.5018-1.2955 2.7532-3.0227 2.7532h17.273c1.7273 0 3.0227-1.1263 3.0227-2.6281v-12.264c0-1.5018-1.2954-2.6281-3.0227-2.6281z" opacity=".3"/>
  </g>
 </g>
</svg>
