<svg width="512" height="512" viewBox="0 0 512 512" fill="none" xmlns="http://www.w3.org/2000/svg">
<path d="M369 465.043C369 481.035 318.408 494 256 494C193.592 494 143 481.035 143 465.043C143 457.705 153.651 451.005 171.206 445.902C191.913 439.883 222.226 436.086 256 436.086C289.774 436.086 320.087 439.883 340.794 445.902C358.349 451.005 369 457.705 369 465.043Z" fill="#1F1A17"/>
<path d="M340.794 445.902C358.349 451.005 369 457.705 369 465.043V445.902H340.794Z" fill="#1F1A17"/>
<path d="M143 465.043C143 457.705 153.651 451.005 171.206 445.902H143V465.043Z" fill="#1F1A17"/>
<ellipse cx="256" cy="446.393" rx="113" ry="28.9571" fill="#1F1A17"/>
<path d="M164 459.691C164 461.802 165.316 463.692 167.324 464.343C188.02 471.048 220.049 475.35 256 475.35C291.35 475.35 322.909 471.19 343.63 464.677C345.661 464.038 347 462.136 347 460.007V449.527C347 448.491 345.783 447.935 345 448.612C336.209 456.598 299.478 462.589 255.5 462.589C211.522 462.589 174.791 456.598 166 448.612C165.296 447.831 164 448.329 164 449.38V459.691Z" fill="#EEEEEE"/>
<path d="M215 401.73H295V446.883H215V401.73Z" fill="#1F1A17"/>
<path d="M391 291.301C391 359.066 330.558 414 256 414C181.442 414 121 359.066 121 291.301C121 211.272 180.822 111.671 227.308 49.6786C241.847 30.2906 270.153 30.2906 284.692 49.6786C331.178 111.671 391 211.272 391 291.301Z" fill="#1F1A17"/>
<path d="M372 283.121C372 344.706 320.065 394.63 256 394.63C191.935 394.63 140 344.706 140 283.121C140 208.665 193.873 124.419 234.171 72.8584C245.36 58.5426 266.64 58.5426 277.829 72.8584C318.127 124.419 372 208.665 372 283.121Z" fill="#1F1A17"/>
<path d="M341.825 280.363C340.628 293.525 324.285 281.647 324.285 268.43C324.285 208.463 299.69 141.709 277 93.5092C306.896 139.976 342.285 208.813 342.285 270.2C342.285 273.631 342.129 277.022 341.825 280.363Z" fill="#EEEEEE"/>
<path d="M232 382.098H277V452.773H232V382.098Z" fill="#1F1A17"/>
<path d="M296.463 250.83C295.961 250.623 295.436 250.477 294.922 250.298C294.544 250.172 294.167 250.046 293.789 249.918C293.383 249.781 292.987 249.557 292.611 250.027C292.534 250.123 292.253 250.125 292.11 250.061C291.343 249.717 290.593 249.705 289.815 250.027C289.63 250.103 289.394 250.061 289.182 250.048C288.83 250.027 288.477 249.966 288.124 249.952C287.844 249.941 287.515 249.885 287.295 250.015C287.161 250.095 287.192 250.49 287.141 250.741C287.126 250.814 287.107 250.923 287.059 250.947C286.918 251.015 286.762 251.048 286.612 251.096C286.62 250.978 286.608 250.853 286.639 250.741C286.713 250.472 287.012 250.121 286.616 249.972C286.106 249.778 286.185 250.311 286.127 250.607C286.096 250.761 286.123 250.942 285.911 250.854C285.801 250.808 285.663 250.665 285.656 250.557C285.644 250.377 285.739 250.189 285.763 250.003C285.774 249.928 285.713 249.844 285.686 249.763C285.041 250.156 284.793 249.386 284.338 249.225C284.107 249.143 284.018 249.197 283.919 249.387C283.659 249.881 283.193 249.911 282.803 249.762C282.354 249.59 281.952 249.314 281.455 249.544C281.137 249.041 280.843 249.626 280.501 249.574C279.81 249.474 279.112 249.428 278.416 249.368C278.052 249.338 277.653 249.238 277.29 249.25C277.022 249.259 276.816 249.409 276.543 249.434C276.334 249.455 276.104 249.372 275.999 249.179C275.955 249.097 275.924 248.988 275.838 248.962C275.75 248.935 275.67 249.013 275.593 249.066C275.331 249.243 275.028 249.13 274.721 249.001C274.767 248.947 274.767 248.891 274.831 248.838C274.879 248.8 274.956 248.738 274.95 248.7C274.831 247.991 275.306 247.18 274.638 246.561C274.642 246.029 274.071 245.583 274.453 244.98C274.517 244.88 274.39 244.64 274.351 244.465C274.31 244.287 274.192 244.079 274.237 243.933C274.434 243.318 274.287 242.93 273.721 242.642C273.377 242.467 273.46 242.051 273.485 241.71C273.509 241.396 273.754 241.434 273.955 241.368C274.094 241.325 274.241 241.179 274.308 241.039C274.58 240.468 274.579 239.801 274.493 239.182C274.457 238.922 274.537 238.909 274.37 238.649C274.305 238.548 273.867 238.323 273.856 238.262C273.773 237.729 273.689 237.194 273.604 236.66C273.561 236.387 273.497 236.077 273.27 235.942C273.036 235.8 272.665 235.866 272.552 235.605C272.474 235.428 272.599 235.211 272.765 235.127C272.932 235.045 273.125 235.061 273.309 235.078C273.076 234.523 272.39 234.351 272.07 233.846C271.893 233.568 271.849 233.22 271.809 232.885C271.717 232.096 271.623 231.308 271.53 230.519C271.056 230.331 270.657 229.939 270.443 229.453C270.294 229.481 270.135 229.507 269.997 229.437C269.862 229.368 269.78 229.16 269.882 229.04C269.917 228.998 269.971 228.974 270.019 228.948C270.382 228.761 270.642 228.206 270.344 227.917C270.124 227.703 269.776 227.796 269.496 227.903C269.477 227.623 269.603 227.336 269.82 227.172C269.452 226.585 269.304 225.716 268.905 225.189C268.576 224.757 268.136 224.749 268.066 224.078C268.051 223.927 268.067 223.772 268.058 223.62C268.053 223.549 268.02 223.478 267.999 223.409C267.936 223.471 267.87 223.531 267.81 223.594C267.518 223.896 267.53 223.889 267.3 223.541C267.229 223.436 267.075 223.391 266.959 223.322C266.907 223.445 266.828 223.564 266.804 223.692C266.773 223.861 267.069 224.162 266.645 224.158C266.349 224.156 266.341 223.894 266.338 223.659C266.337 223.545 266.314 223.416 266.351 223.317C266.739 222.347 265.752 222 265.537 221.302C265.516 221.236 265.125 221.307 265.1 221.238C264.965 220.851 264.882 220.444 264.795 220.038C264.712 219.644 263.983 219.545 264.344 218.934C264.352 218.921 264.157 218.7 264.056 218.698C263.598 218.687 263.349 218.397 263.108 218.041C262.945 217.802 262.759 217.564 262.539 217.384C261.8 216.779 261.791 216.788 261.286 215.777C261.143 215.489 260.553 215.298 260.477 215.534C260.321 216.018 260.172 215.845 259.916 215.715C259.502 215.501 259.244 215.208 259.147 214.698C259.079 214.333 258.808 213.855 258.453 213.969C257.963 214.127 257.917 213.775 257.731 213.541C257.597 213.376 257.419 213.039 257.345 213.063C256.789 213.247 256.867 212.859 256.824 212.514C256.789 212.226 256.679 211.948 256.6 211.666C256.529 211.419 256.417 211.176 256.398 210.926C256.375 210.621 256.276 210.501 255.998 210.366C255.592 210.169 255.248 209.569 254.885 209.578C254.201 209.594 254.15 209.168 254.013 208.709C254.005 208.683 253.945 208.649 253.924 208.658C253.719 208.738 253.52 208.725 253.656 208.447C253.872 208.01 253.704 207.78 253.347 207.662C251.946 207.195 251.968 206.374 250.121 206.74C250.086 206.747 250.049 206.736 250.013 206.736C249.601 206.747 249.298 206.598 249.279 206.108C249.263 205.721 249.114 205.473 248.755 205.662C248.43 205.834 248.419 205.444 248.269 205.444C248.159 205.444 248.07 205.721 247.934 205.783C247.852 205.82 247.609 205.701 247.594 205.619C247.511 205.155 247.287 205.033 246.909 205.243C246.497 205.472 246.249 205.321 246.032 204.923C245.776 204.458 245.479 204.038 244.909 203.951C244.756 203.927 244.614 203.745 244.49 203.611C244.118 203.213 243.807 202.736 243.139 203.029C242.997 203.091 242.665 202.854 242.516 202.668C242.121 202.173 241.62 202.144 241.078 202.135C240.439 202.124 240.399 202.063 240.423 201.419C240.428 201.306 240.447 201.192 240.483 201.086C240.593 200.766 240.428 200.879 240.238 200.84C239.596 200.709 238.961 200.522 238.342 200.298C238.141 200.226 237.872 199.989 237.853 199.802C237.813 199.392 237.698 199.354 237.319 199.281C236.865 199.192 236.114 198.673 236.008 198.787C235.703 199.11 235.002 198.347 234.95 199.245C234.949 199.278 234.835 199.304 234.775 199.333C234.633 198.792 234.301 199.446 234.084 199.203C233.721 198.801 233.346 198.884 232.928 199.176C232.721 199.321 232.324 199.434 232.161 199.321C231.767 199.049 231.459 198.848 231.114 199.346C230.518 199.182 229.921 199.02 229.325 198.856C229.356 198.273 228.638 197.996 228.859 197.266C229.147 196.318 229.14 195.396 227.797 194.815C227.548 194.706 227.453 194.571 227.469 194.321C227.481 194.136 227.462 193.856 227.561 193.787C227.987 193.49 227.844 193.054 227.886 192.656C227.936 192.203 227.877 191.883 227.341 191.929C227.321 191.93 227.23 191.644 227.261 191.518C227.331 191.227 227.468 190.956 227.554 190.666C227.592 190.536 227.628 190.319 227.564 190.254C227.062 189.741 227.097 188.995 226.819 188.39C226.747 188.234 226.681 188.046 226.555 187.953C225.892 187.449 225.889 187.399 226.018 186.61C226.109 186.053 226.211 185.462 226.12 184.92C226.045 184.475 226.076 183.8 225.339 183.753C225.05 183.735 225.048 183.435 225.147 183.221C225.356 182.77 225.336 182.427 224.878 182.17C224.765 182.106 224.692 181.955 224.611 181.835C223.821 180.668 223.39 179.368 223.356 177.925C223.352 177.777 223.344 177.534 223.27 177.501C222.566 177.181 222.884 176.776 223.103 176.298C223.216 176.051 223.233 175.611 223.095 175.408C222.668 174.777 222.725 174.009 222.474 173.328C222.135 172.41 221.784 171.444 222.031 170.395C222.093 170.135 222.075 169.842 221.718 169.792C221.382 169.745 221.217 169.486 221.146 169.184C221.069 168.856 221.072 168.496 220.616 168.824C220.581 168.848 220.439 168.791 220.434 168.758C220.395 168.502 220.344 168.239 220.364 167.986C220.387 167.712 220.586 167.771 220.774 167.814C220.824 167.826 220.947 167.717 220.955 167.651C221.033 167.016 220.21 166.07 219.628 166.152C219.442 166.178 219.189 166.316 219.112 166.48C218.784 167.188 218.316 167.81 218.171 168.63C218.034 169.401 217.646 170.116 217.716 170.942C217.727 171.072 217.621 171.227 217.542 171.353C217.262 171.802 217.237 172.313 217.362 172.788C217.468 173.191 217.357 173.249 217.039 173.241C216.75 173.233 216.669 173.441 216.687 173.693C216.721 174.259 216.774 174.823 216.818 175.387C216.83 175.537 216.87 175.69 216.844 175.833C216.731 176.42 216.571 177 216.484 177.591C216.429 177.964 216.342 178.438 216.503 178.716C216.954 179.502 216.696 180.246 216.571 181.014C216.461 181.68 216.346 182.347 216.239 183.013C216.172 183.419 215.977 183.872 216.08 184.223C216.272 184.87 215.534 184.825 215.512 185.293C215.5 185.527 215.207 185.737 215.18 185.976C215.07 186.912 214.991 187.856 214.95 188.799C214.911 189.735 215.01 190.673 214.955 191.613C214.931 192.031 214.837 192.364 214.516 192.593C214.053 192.922 213.8 193.362 213.613 193.932C213.368 194.679 212.97 195.305 212.224 195.727C211.449 196.167 210.746 196.839 210.841 197.972C210.852 198.084 210.844 198.201 210.836 198.315C210.813 198.606 210.693 198.735 210.417 198.592C210.148 198.452 210.017 198.55 209.992 198.856C209.963 199.22 209.971 199.596 209.882 199.943C209.79 200.303 209.779 200.656 209.246 200.833C208.658 201.029 207.92 201.249 207.649 202.023C207.523 202.38 207.337 202.35 207.064 202.219C206.796 202.09 206.575 202.156 206.512 202.52C206.472 202.75 206.356 202.804 206.128 202.753C205.9 202.7 205.652 202.745 205.416 202.732C204.774 202.695 204.239 203.076 203.648 203.244C203.202 203.371 202.791 203.643 202.343 203.735C201.894 203.828 201.482 204.032 200.989 204.037C200.144 204.045 199.746 204.621 199.697 205.571C199.693 205.65 199.598 205.794 199.574 205.789C199.452 205.755 199.312 205.707 199.235 205.613C199.194 205.562 199.294 205.406 199.29 205.298C199.278 205.084 199.175 204.909 198.954 205.035C198.232 205.449 197.43 205.593 196.648 205.782C196.311 205.864 196.138 205.973 196.138 206.358C196.138 206.459 195.996 206.563 195.918 206.665C195.848 206.551 195.763 206.445 195.714 206.321C195.647 206.152 195.618 205.964 195.549 205.796C195.537 205.765 195.406 205.791 195.328 205.791C195.556 206.4 195.108 206.339 194.842 206.26C194.128 206.051 193.563 206.763 192.863 206.567C192.799 206.549 192.678 206.672 192.611 206.755C192.544 206.839 192.504 206.952 192.465 207.057C192.265 207.61 191.407 207.829 191.748 208.655C191.658 208.681 191.547 208.756 191.487 208.723C191.268 208.602 191.143 208.711 191.049 208.888C190.943 209.086 190.821 209.287 190.778 209.504C190.713 209.83 190.62 209.998 190.278 209.833C190.218 209.804 190.036 209.887 190.021 209.95C189.91 210.408 189.621 210.193 189.353 210.21C188.626 210.253 188.429 210.494 188.393 211.212C188.343 212.163 188.104 212.283 187.16 213.352C186.505 214.094 185.625 214.451 184.996 215.18C184.777 215.435 184.496 215.579 184.1 215.482C183.475 215.33 183.061 215.621 182.706 216.242C182.31 216.935 181.806 217.644 181.187 218.088C180.385 218.662 180.065 219.362 179.935 220.319C179.841 221.006 179.699 221.712 178.837 221.946C178.474 222.047 178.249 222.535 178.065 223.012C177.888 223.47 177.832 223.901 177.773 224.362C177.745 224.585 177.587 224.664 177.363 224.765C176.258 225.268 176.3 225.311 175.736 226.639C175.613 226.93 175.502 227.151 175.602 227.45C174.741 227.55 174.76 228.532 174.244 228.985C174.091 229.12 173.971 229.347 173.925 229.555C173.755 230.363 173.629 231.181 173.463 231.988C173.431 232.143 173.31 232.363 173.192 232.396C172.45 232.6 172.308 233.268 172.261 233.885C172.237 234.195 172.071 234.304 172.003 234.498C171.806 235.052 170.983 235.001 171.018 235.727C171.02 235.744 170.818 235.822 170.751 235.786C170.167 235.476 170.123 236.054 170.073 236.336C169.981 236.855 169.965 237.411 170.034 237.935C170.126 238.63 169.821 239.206 169.569 239.75C169.249 240.439 168.834 241.03 168.911 241.88C168.943 242.229 168.697 242.661 168.476 242.974C168.094 243.515 167.616 243.976 167.213 244.502C167 244.782 166.618 245.223 167.445 245.109C167.495 245.102 167.627 245.269 167.615 245.339C167.567 245.661 167.937 246.329 167.118 246.079C167.083 246.067 166.983 246.231 166.945 246.327C166.778 246.746 166.575 247.157 166.474 247.593C166.395 247.933 166.307 248.414 166.463 248.648C166.89 249.285 166.516 249.885 166.535 250.494C166.536 250.565 166.417 250.695 166.35 250.699C166.282 250.703 166.195 250.591 166.143 250.51C166.087 250.421 166.061 250.308 166.022 250.204C165.991 250.272 165.963 250.339 165.931 250.405C165.727 250.802 165.492 251.185 165.328 251.6C165.174 251.989 165.021 252.408 164.996 252.822C164.957 253.395 164.961 253.97 164.951 254.545C164.629 254.674 164.307 254.803 163.984 254.932C163.756 255.023 163.496 255.113 163.278 254.998C163.096 254.901 162.943 254.663 162.746 254.721C162.485 254.796 162.385 255.211 162.177 255.372C162.012 255.501 161.834 255.511 161.647 255.577C161.035 255.792 160.521 256.228 159.875 256.354C159.356 256.454 158.727 256.563 158.398 256.923C158.101 257.252 157.74 257.473 157.482 257.397C157.174 257.304 157.008 257.422 156.804 257.526C155.703 258.088 154.562 258.558 153.344 258.664C152.546 258.735 152.112 259.269 151.792 259.872C151.595 260.242 151.392 260.078 151.358 259.968C151.203 259.444 150.802 259.54 150.502 259.604C149.996 259.713 149.512 259.947 149.014 260.11C148.709 260.211 148.369 260.411 148.094 260.341C147.521 260.194 147.102 260.434 146.712 260.773C146.366 261.075 146.003 261.099 145.61 261C145.365 260.938 145.124 260.854 144.891 260.754C144.607 260.631 144.388 260.733 144.24 260.973C143.786 261.717 143.487 262.545 143.534 263.424C143.554 263.786 143.649 263.995 143.31 264.272C142.841 264.654 142.923 264.986 143.432 265.313C143.806 265.553 144.179 265.665 144.631 265.562C144.928 265.495 144.859 265.685 144.742 265.886C144.608 266.113 144.761 266.237 144.962 266.275C145.194 266.318 145.116 266.128 145.148 265.995C145.218 265.709 145.321 265.429 145.439 265.161C145.46 265.116 145.644 265.114 145.728 265.15C145.783 265.174 145.842 265.315 145.824 265.383C145.761 265.632 145.559 265.905 145.61 266.11C145.714 266.521 146.091 266.269 146.353 266.312C146.494 266.336 146.632 266.388 146.769 266.432C147.68 266.727 148.573 267.204 149.556 266.733C150.25 266.935 150.923 266.51 151.677 266.792C152.341 267.04 153.147 266.838 153.889 266.88C154.31 266.904 154.727 267.015 155.148 267.082C155.618 267.157 155.913 267.158 156.38 267.096C156.675 267.058 156.964 267.198 157.258 267.231C157.443 267.252 157.633 267.231 157.811 267.167C157.867 267.147 157.922 267.121 157.966 267.08C158.009 267.038 158.037 266.983 158.08 266.943C158.124 266.901 158.182 266.879 158.232 266.842C158.722 266.487 158.758 265.747 158.92 265.203C158.94 265.131 158.967 265.051 159.012 264.998C159.055 264.951 159.131 264.906 159.187 264.91C159.243 264.914 159.325 264.968 159.348 265.023C159.464 265.301 159.332 265.803 159.495 266.004C159.578 266.108 159.791 266.104 159.902 266.166C160.111 266.28 160.285 266.481 160.466 266.641C160.516 266.686 160.569 266.732 160.632 266.748C160.703 266.766 160.778 266.747 160.848 266.72C161.052 266.644 161.242 266.526 161.401 266.372C161.459 266.316 161.516 266.254 161.591 266.222C161.689 266.181 161.796 266.205 161.899 266.223C162.279 266.295 162.664 266.325 163.049 266.354C163.25 266.368 163.452 266.383 163.652 266.399C164.67 266.474 165.698 266.472 166.7 266.314C166.708 266.342 166.699 266.38 166.708 266.407C167.02 267.157 165.9 268.541 167.185 268.924C167.209 269.172 167.144 269.428 167.003 269.63C167.279 269.433 167.67 269.743 167.709 270.091C167.749 270.44 167.566 270.77 167.389 271.068C167.512 271.105 167.626 271.174 167.716 271.27C167.739 271.076 167.763 270.881 167.784 270.686C167.965 270.69 168.048 270.948 167.986 271.127C167.924 271.307 167.781 271.438 167.685 271.597C167.497 271.908 167.499 272.305 167.536 272.672C167.589 273.204 167.703 273.726 167.875 274.229C168.07 274.8 168.342 275.402 168.187 275.986C168.122 276.232 167.986 276.507 168.122 276.717C168.184 276.812 168.287 276.864 168.355 276.951C168.454 277.078 168.466 277.255 168.475 277.418C168.499 277.908 168.432 278.531 168.555 279.003C168.641 279.334 168.856 279.632 168.964 279.971C169.032 280.185 169.096 280.4 169.153 280.617C169.282 281.119 169.424 281.561 169.825 281.96C170.303 282.437 170.857 282.964 170.685 283.863C170.595 284.333 171.04 284.6 171.343 284.838C171.731 285.144 171.991 285.516 172.177 285.971C172.247 286.142 172.3 286.339 172.417 286.464C173.425 287.555 174.456 288.625 175.458 289.722C175.644 289.926 175.889 289.789 176.003 289.891C176.15 290.02 176.123 290.357 176.26 290.52C176.742 291.087 177.223 291.67 177.777 292.148C178.329 292.622 178.574 293.528 179.466 293.549C179.537 293.55 179.659 293.7 179.67 293.791C179.726 294.331 180.046 294.515 180.495 294.693C180.83 294.826 181.072 295.218 181.353 295.499C181.562 295.708 181.732 296.01 181.98 296.116C182.861 296.498 182.861 297.265 182.731 298.028C182.404 299.958 182.503 301.883 182.669 303.814C182.681 303.953 182.696 304.123 182.634 304.232C182.417 304.622 182.216 305.043 181.916 305.353C181.572 305.709 181.403 306.106 181.477 306.572C181.572 307.185 181.158 307.705 181.331 308.362C181.504 309.013 180.701 309.353 180.593 309.978C180.562 310.158 180.452 310.327 180.367 310.495C180.244 310.734 180.236 310.877 180.403 311.175C180.75 311.793 180.79 312.551 180.375 313.177C180.058 313.654 180.047 314.264 180.256 314.561C180.575 315.014 180.569 315.441 180.609 315.92C180.675 316.724 181.257 317.292 181.994 317.3C182.857 317.309 183.722 317.314 184.586 317.299C185.122 317.287 186.189 316.382 186.188 315.838C186.185 314.945 186.619 314.279 186.997 313.564C187.059 313.446 187.609 312.833 186.776 313.097C186.777 312.971 186.729 312.804 186.788 312.729C187.034 312.405 187.317 312.136 187.298 311.645C187.26 310.69 187.749 309.905 188.205 309.163C188.778 308.235 189.225 307.279 189.464 306.201C189.666 305.287 189.784 304.33 190.267 303.524C190.69 302.82 191.157 302.164 191.2 301.279C191.213 300.993 191.422 300.764 191.721 300.863C191.977 300.946 192.016 300.861 192.056 300.629C192.083 300.469 192.186 300.326 192.256 300.172C192.368 300.303 192.54 300.415 192.579 300.566C192.717 301.078 193.133 301.237 193.503 301.456C193.789 301.628 193.803 301.615 194.146 301.214C194.281 301.058 194.367 301.096 194.462 301.27C194.503 301.345 194.699 301.417 194.706 301.407C195.015 300.916 195.112 301.293 195.218 301.55C195.317 301.796 195.273 301.919 194.994 301.796C194.929 301.767 194.856 301.743 194.788 301.742C194.722 301.741 194.653 301.767 194.584 301.782C194.603 301.829 194.61 301.897 194.644 301.922C194.959 302.161 195.276 302.396 195.596 302.626C196.243 303.084 196.899 303.532 197.542 303.998C197.731 304.135 197.708 304.149 197.989 303.887C198.036 303.844 198.222 303.867 198.247 303.915C198.366 304.146 198.472 304.39 198.544 304.642C198.62 304.906 198.765 304.904 198.948 304.81C199.21 304.673 199.422 304.76 199.371 305.056C199.255 305.719 199.696 305.703 200.077 305.841C200.575 306.025 201.051 306.276 201.535 306.496C201.72 306.579 201.902 306.725 202.088 306.732C202.771 306.761 203.477 306.855 204.134 306.711C204.86 306.553 205.461 306.732 206.052 307.084C207.146 307.735 208.327 307.983 209.557 307.893C210.371 307.833 211.019 308.149 211.634 308.64C211.748 308.731 211.834 308.87 211.956 308.942C212.165 309.065 212.303 309.052 212.196 308.731C212.113 308.475 212.263 308.376 212.469 308.38C212.788 308.385 212.645 308.593 212.611 308.765C212.588 308.873 212.58 309.012 212.627 309.098C212.672 309.178 212.797 309.245 212.888 309.245C212.979 309.245 213.143 309.165 213.148 309.105C213.165 308.924 213.116 308.736 213.11 308.551C213.109 308.497 213.166 308.399 213.204 308.395C213.307 308.386 213.472 308.381 213.504 308.441C213.588 308.597 213.594 308.797 213.67 308.961C213.725 309.079 213.835 309.239 213.934 309.25C214.672 309.333 215.411 309.415 216.152 309.43C217.191 309.451 218.233 309.41 219.275 309.405C219.378 309.405 219.491 309.443 219.582 309.496C220.217 309.864 220.905 309.732 221.579 309.74C222.257 309.747 222.921 309.76 223.593 309.957C225.003 310.369 226.413 310.331 227.796 309.751C228.121 309.614 228.483 309.537 228.832 309.511C229.333 309.473 229.838 309.51 230.343 309.511C230.846 309.513 231.351 309.513 231.855 309.511C232.381 309.51 232.906 309.517 233.431 309.491C233.913 309.47 234.436 309.264 234.864 309.404C235.369 309.567 235.712 308.8 236.179 309.269C236.567 309.104 237.083 309.051 237.321 308.75C237.921 307.992 238.737 307.726 239.548 307.501C239.991 307.379 240.341 307.223 240.647 306.876C240.977 306.502 241.41 306.187 241.879 306.326C242.393 306.477 242.723 306.151 243.116 306.003C243.543 305.844 243.961 305.675 244.308 305.289C244.745 304.803 245.267 304.388 245.991 304.433C246.208 304.446 246.445 304.273 246.655 304.149C247.638 303.575 248.464 302.663 249.684 302.605C249.779 302.6 249.886 302.528 249.964 302.457C250.374 302.096 250.778 301.727 251.18 301.355C251.254 301.288 251.369 301.132 251.369 301.132C251.872 301.538 252.685 300.691 253.058 301.599C253.851 301.368 253.58 301.855 253.473 302.266C253.418 302.473 253.367 302.724 253.429 302.913C253.525 303.211 253.744 303.722 253.866 303.71C254.472 303.639 255.028 304.217 255.643 303.839C255.77 303.76 255.808 303.872 255.893 304.017C256.126 304.411 256.47 304.734 256.769 305.085C257.517 304.883 257.093 305.362 257.092 305.66C257.088 306.184 257.068 306.746 257.233 307.22C257.343 307.534 257.502 307.819 257.506 308.169C257.514 308.573 257.701 308.593 258.001 308.443C258.227 308.33 258.35 308.493 258.34 308.708C258.328 308.963 258.339 309.336 258.197 309.443C257.801 309.741 257.955 310.126 257.939 310.482C257.91 311.069 258.471 311.406 258.518 311.966C258.578 311.949 258.636 311.93 258.696 311.912C258.624 311.659 258.67 311.567 258.944 311.644C259.134 311.699 259.347 311.67 259.549 311.677C259.528 311.848 259.47 312.026 259.498 312.186C259.519 312.294 259.66 312.45 259.754 312.455C260.43 312.502 260.737 313.003 261.007 313.554C261.202 313.951 261.228 314.459 261.64 314.711C261.967 314.911 261.975 315.637 262.587 315.36C262.606 315.429 262.659 315.519 262.637 315.562C262.522 315.776 262.61 315.853 262.778 315.993C263.114 316.274 263.45 316.588 263.686 316.959C263.884 317.273 264.108 317.314 264.405 317.312C265.269 317.306 266.133 317.32 266.996 317.306C267.608 317.298 267.641 317.279 267.635 316.678C267.628 316.125 267.798 315.524 267.363 315.039C267.332 315.005 267.39 314.859 267.431 314.779C267.831 313.979 267.755 313.177 267.357 312.426C267.237 312.2 267.069 312.065 267.184 311.775C267.235 311.645 267.243 311.423 267.172 311.33C266.511 310.466 266.367 309.429 266.194 308.381C266.154 308.145 266.087 307.941 266.09 307.673C266.095 306.684 266.016 305.677 265.187 305.013C264.973 304.84 264.954 304.751 265.01 304.485C265.183 303.683 264.888 302.978 264.438 302.361C263.742 301.406 263.755 300.389 264.58 299.673C264.832 299.454 264.878 299.232 264.798 298.99C264.701 298.738 264.515 298.494 264.358 298.241C264.345 298.22 264.229 298.229 264.212 298.258C264.059 298.504 263.916 298.593 263.766 298.262C263.67 298.052 263.576 297.843 263.481 297.633C264.026 297.407 263.483 296.625 264.042 296.387C264.094 296.365 264.077 296.125 264.073 295.988C264.049 295.384 263.954 294.773 264.013 294.179C264.045 293.837 264.093 293.637 263.756 293.462C263.196 293.169 263.023 292.594 263.132 292.012C263.253 291.354 263.392 290.646 263.926 290.186C264.483 289.707 264.802 289.092 264.964 288.371C265.102 287.753 265.379 287.327 265.946 286.991C266.361 286.744 266.523 286.05 266.925 285.733C267.38 285.377 267.956 285.204 268.171 284.556C268.218 284.416 268.286 284.211 268.389 284.174C269.304 283.858 269.557 283.023 269.825 282.188C269.87 282.051 269.972 281.917 270.082 281.828C270.443 281.534 270.478 281.133 270.458 280.696C270.442 280.315 270.439 279.93 270.458 279.551C270.474 279.208 270.407 279.116 270.044 279.174C269.749 279.221 269.815 278.863 269.824 278.653C269.835 278.422 269.953 278.321 270.184 278.405C270.548 278.538 270.716 278.255 270.595 278.003C270.363 277.521 270.622 277.375 270.934 277.253C271.692 276.959 271.822 276.338 271.733 275.596C271.71 275.411 271.607 275.227 271.618 275.047C271.646 274.603 271.646 274.133 271.8 273.735C271.877 273.533 272.261 273.458 272.509 273.335C272.572 273.302 272.646 273.288 272.716 273.28C273.005 273.241 273.094 273.014 273.001 272.789C272.842 272.403 272.734 272.135 273.314 272.268C273.331 272.272 273.467 271.952 273.456 271.789C273.42 271.192 273.578 270.666 273.856 270.157C273.979 269.934 274.051 269.67 274.101 269.414C274.124 269.3 274.019 269.046 273.991 269.05C273.722 269.079 273.625 268.953 273.793 268.746C274.457 267.932 274.251 267.131 273.752 266.371C273.524 266.028 273.424 265.733 273.536 265.32C273.611 265.048 273.69 264.695 273.589 264.471C273.215 263.644 273.743 262.989 274.095 262.517C274.384 262.13 274.465 261.762 274.477 261.392C274.691 261.439 274.79 261.387 274.993 261.323C275.353 261.21 275.575 261.34 275.925 261.385C276.316 261.436 276.707 261.26 277.078 261.133C277.585 260.958 278.113 260.847 278.611 260.651C278.832 260.563 279.011 260.186 279.195 260.198C280.406 260.273 281.336 259.745 282.098 258.81C282.445 258.385 282.855 258.159 283.384 258.066C283.827 257.988 284.254 257.776 284.679 257.593C285.338 257.311 285.983 256.991 286.645 256.713C286.929 256.592 287.287 256.609 287.522 256.431C287.794 256.227 288.025 256.313 288.292 256.313C288.819 256.312 289.397 256.862 289.87 256.17C289.882 256.152 289.954 256.149 289.966 256.166C290.317 256.628 290.599 256.2 290.733 256.001C291.025 255.557 291.309 255.591 291.751 255.704C292.544 255.908 293.386 256.01 294.145 255.599C294.653 255.325 295.12 255.008 295.712 254.948C295.881 254.93 296.126 254.754 296.177 254.591C296.466 253.689 296.737 252.778 296.956 251.852C297.084 251.294 296.937 251.027 296.463 250.83ZM234.441 216.289C234.559 216.342 234.675 216.396 234.796 216.445C234.891 216.485 235.027 216.582 235.081 216.545C235.672 216.159 235.945 216.662 236.361 216.957C237.424 217.712 238.315 218.773 239.721 218.957C240.212 219.02 240.656 219.553 241.107 219.893C241.593 220.258 242.378 220.485 243.049 220.444C243.156 220.436 243.345 220.515 243.361 220.587C243.453 221.009 243.735 221.083 244.067 221.262C244.685 221.593 245.187 222.163 245.757 222.604C246.099 222.869 246.472 223.094 246.847 223.304C246.912 223.343 247.067 223.246 247.159 223.179C247.352 223.037 247.561 223.065 247.494 223.312C247.405 223.636 247.605 223.773 247.68 224C247.817 224.423 248.359 224.059 248.455 224.569C248.51 224.866 248.806 225.117 249.008 225.375C249.236 225.668 249.473 225.951 249.719 226.226C249.838 226.357 249.976 226.481 250.125 226.569C250.644 226.872 251.252 227.04 251.366 227.835C251.394 228.027 251.727 228.17 251.924 228.329C252.307 228.638 252.804 228.811 252.796 229.503C252.795 229.713 253.167 229.922 253.363 230.138C253.743 230.554 254.236 230.951 254.44 231.505C254.542 231.782 254.531 232.807 254.931 232.759C255.045 232.745 255.129 232.637 255.243 232.619C255.5 232.577 255.592 232.967 255.575 233.244C255.9 233.016 256.376 233.067 256.652 233.362C256.549 233.488 256.447 233.618 256.345 233.745C256.927 233.979 257.622 234.402 257.549 235.058C257.333 234.963 257.063 235.209 257.116 235.451C257.518 235.375 257.942 235.418 258.323 235.581C258.338 235.468 258.354 235.357 258.37 235.244C258.531 235.252 258.674 235.409 258.673 235.581C258.672 235.752 258.527 235.909 258.366 235.913C258.592 236.044 258.772 236.261 258.863 236.516C258.945 236.745 258.957 236.994 259.004 237.234C259.123 237.845 259.485 238.4 259.982 238.732C259.908 238.936 259.833 239.139 259.76 239.344C259.966 239.39 260.191 239.349 260.372 239.233C260.385 239.373 260.4 239.515 260.412 239.656C260.45 240.045 260.48 240.464 260.301 240.805C260.466 240.823 260.628 240.836 260.786 240.872C260.763 241.173 260.979 241.314 261.041 241.569C261.145 241.989 260.991 242.02 261.378 242.362C262.116 243.015 262.942 243.693 262.933 244.899C263.458 245.636 263.107 246.396 262.995 247.152C262.915 247.694 262.716 248.249 263.138 248.755C263.2 248.83 263.147 249.016 263.138 249.152C263.134 249.239 263.094 249.324 263.07 249.411C262.964 249.387 262.856 249.352 262.748 249.383C262.566 249.436 262.428 249.585 262.266 249.69C262.108 249.795 261.883 249.852 261.741 249.72C261.681 249.666 261.645 249.586 261.586 249.533C261.404 249.374 261.143 249.525 260.913 249.569C260.618 249.625 260.326 249.493 260.056 249.356C259.693 249.175 259.337 248.982 258.985 248.778C258.108 249.009 257.082 248.932 256.287 249.276C256.078 249.368 255.822 249.507 255.604 249.571C255.477 249.607 255.367 249.63 255.239 249.591C255.164 249.569 254.893 249.298 254.876 249.302C254.666 249.352 254.414 249.411 254.161 249.473C254.022 249.507 253.884 249.577 253.745 249.574C252.367 249.557 251.075 250.096 249.723 250.26C249.586 250.276 249.363 250.216 249.32 250.285C248.894 251.011 248.599 251.38 248.733 250.101C248.736 250.076 248.531 249.974 248.496 250.003C247.99 250.44 247.371 249.767 246.873 250.197C246.829 250.164 246.784 250.173 246.74 250.154C246.63 250.011 246.507 249.876 246.408 249.722C246.317 249.582 246.045 249.21 246.008 249.068C245.977 248.955 246.058 248.502 246.067 248.524C245.966 248.298 245.929 248.042 245.961 247.794C245.767 247.972 245.44 247.806 245.346 247.555C245.252 247.302 245.315 247.018 245.381 246.757C245.192 246.866 244.969 246.896 244.76 246.842L244.806 246.4C245.028 246.245 245.253 246.091 245.476 245.935C245.254 245.772 245.046 245.548 245 245.265C244.955 244.98 245.138 244.648 245.409 244.639C245.508 244.053 245.154 243.419 244.622 243.23C244.449 243.167 244.251 243.142 244.125 242.999C243.824 242.651 244.184 241.895 243.778 241.702C243.639 241.635 243.477 241.688 243.332 241.743C243.189 241.797 243.028 241.852 242.887 241.79C242.746 241.727 242.68 241.488 242.812 241.407C243.055 241.41 243.298 241.353 243.519 241.247C243.506 241.074 243.49 240.899 243.476 240.726C243.211 240.782 242.96 240.572 242.789 240.35C242.248 239.648 242.063 238.6 242.484 237.812C241.742 237.968 241.026 237.468 240.723 236.773C240.603 236.5 240.858 235.956 240.274 235.976C240.291 235.799 240.243 235.541 240.336 235.456C240.852 234.977 240.688 234.274 240.716 233.732C240.74 233.266 240.258 232.742 239.942 232.292C239.562 231.748 239.133 231.261 239.074 230.526C239.054 230.286 238.88 230.024 238.713 229.841C238.22 229.304 238.002 228.636 237.761 227.957C237.513 227.257 237.249 226.574 236.753 225.973C236.385 225.527 236.287 224.818 236.109 224.21C236.042 223.981 236.042 223.748 235.753 223.752C235.283 223.757 235.356 223.639 235.543 223.249C235.947 222.402 235.698 221.532 234.966 220.967C234.717 220.775 234.814 220.545 234.75 220.333C234.402 219.153 234.846 217.895 234.387 216.735C234.338 216.607 234.418 216.434 234.441 216.289ZM207.74 250.232C207.986 249.858 208.348 249.46 208.527 249.046C208.678 248.699 208.622 248.38 208.927 248.101C209.298 247.762 209.449 247.368 209.195 246.889C208.886 246.303 209.57 245.98 209.522 245.456C209.519 245.423 209.87 245.267 209.988 245.325C210.363 245.506 210.517 245.334 210.627 244.998C210.697 244.783 210.741 244.554 210.848 244.363C211.127 243.856 211.064 243.39 210.658 243.039C210.414 242.829 210.408 242.604 210.408 242.338C210.408 242.092 210.461 241.907 210.733 241.836C211.775 241.562 212.195 240.498 211.741 239.452C211.594 239.113 211.563 238.822 211.738 238.497C211.808 238.367 211.902 238.211 211.887 238.078C211.772 237.071 212.412 236.5 212.964 235.864C213.07 235.744 213.208 235.513 213.165 235.413C212.994 235.014 213.276 234.679 213.247 234.309C213.242 234.249 213.382 234.117 213.444 234.125C213.516 234.134 213.587 234.25 213.634 234.335C213.666 234.398 213.65 234.485 213.662 234.559C213.697 234.805 213.736 235.052 213.773 235.297C214.198 235.121 213.983 234.824 213.91 234.544C213.894 234.489 213.966 234.351 213.98 234.354C214.625 234.491 214.494 234.002 214.498 233.633C214.501 233.251 214.502 232.869 214.482 232.487C214.478 232.431 214.351 232.385 214.281 232.331C214.155 232.233 213.925 232.137 213.921 232.03C213.904 231.62 214.185 232.014 214.281 231.91C214.371 231.817 214.492 231.683 214.483 231.577C214.433 230.937 214.654 230.494 215.056 229.982C215.405 229.538 215.64 228.725 215.511 228.186C215.322 227.388 215.515 226.688 215.587 225.953C215.645 225.35 215.65 224.778 215.491 224.187C215.411 223.889 215.471 223.545 215.492 223.223C215.497 223.154 215.599 223.059 215.673 223.034C216.498 222.757 216.38 221.897 216.641 221.273C216.654 221.242 216.535 221.147 216.476 221.084C216.399 221.001 216.24 220.882 216.257 220.844C216.424 220.434 216.525 219.851 216.829 219.678C217.613 219.229 217.32 218.441 217.483 217.819C217.554 217.552 217.364 217.248 217.812 217.212C217.868 217.207 217.959 216.95 217.945 216.818C217.839 215.838 218.422 215.107 218.748 214.286C218.827 214.088 219.063 213.947 218.861 213.704C218.473 213.23 219.146 213.025 219.103 212.635C219.101 212.615 219.348 212.538 219.355 212.55C219.529 212.936 219.899 212.848 220.181 212.978C220.37 213.063 220.576 213.301 220.367 213.607C220.068 214.045 220.32 214.42 220.494 214.807C220.667 215.193 220.849 215.605 221.293 215.646C221.833 215.693 222.094 215.853 221.894 216.488C221.832 216.685 222.001 216.752 222.231 216.765C222.583 216.781 222.733 217.125 222.503 217.271C221.912 217.644 222.073 218.136 222.193 218.669C222.295 219.113 222.503 219.524 222.656 219.932C222.825 220.383 222.951 220.85 222.878 221.249C222.731 222.059 223.278 222.487 223.556 223.068C223.569 223.097 223.611 223.115 223.642 223.135C224.334 223.57 224.397 223.587 224.227 224.285C224.005 225.212 224.369 225.959 224.718 226.729C224.75 226.802 224.92 226.886 224.971 226.856C225.436 226.587 225.541 226.835 225.54 227.271C225.54 227.346 225.559 227.423 225.584 227.493C225.749 227.941 225.348 228.432 225.747 228.89C226.031 229.216 226.181 229.672 226.387 230.073C226.805 230.887 227.319 231.675 227.092 232.689C227.415 233.187 227.163 234.011 227.894 234.286C227.949 234.306 227.998 234.455 227.988 234.535C227.886 235.307 228.238 235.726 228.915 235.881C229.125 235.928 229.089 236.027 229.064 236.195C229.037 236.37 229.032 236.581 229.1 236.736C229.34 237.286 229.927 237.614 229.787 238.426C229.704 238.895 230.056 239.437 230.121 239.975C230.144 240.155 230.224 240.339 230.315 240.496C230.555 240.921 230.075 241.487 230.694 241.801C230.84 242.129 230.82 242.512 230.817 242.875C230.816 243.239 230.845 243.631 231.062 243.914C231.28 244.196 231.747 244.28 231.951 243.986C232.151 244.088 232.255 244.365 232.173 244.585C232.024 244.649 231.876 244.712 231.726 244.777C231.846 245.055 232.057 245.288 232.314 245.424C232.018 245.933 231.848 246.524 231.825 247.123C231.822 247.219 231.822 247.319 231.86 247.407C231.976 247.692 232.36 247.687 232.638 247.592C232.915 247.497 233.235 247.363 233.482 247.533C233.502 247.78 233.523 248.027 233.544 248.275C233.433 248.291 233.322 248.308 233.208 248.322C233.315 248.762 233.419 249.202 233.525 249.642C233.509 249.65 233.49 249.646 233.475 249.654C233.057 249.83 232.639 250.007 232.223 250.182C232.086 250.24 231.942 250.298 231.797 250.274C231.667 250.253 231.553 250.166 231.427 250.127C231.06 250.01 230.72 250.296 230.507 250.585C230.415 250.711 230.372 250.895 230.254 250.996C230.206 251.037 229.844 251.146 229.85 251.133C229.562 251.996 229.071 251.623 228.6 251.364C228.059 251.099 227.401 251.239 226.905 250.819C226.29 251.189 225.676 250.63 225.018 250.857C224.464 251.048 223.821 250.942 223.217 250.978C222.578 251.016 222.443 251.175 222.514 251.851C222.533 252.023 222.569 252.175 222.358 252.123C222.192 252.081 221.925 252.153 221.94 251.778C221.963 251.223 221.778 251.074 221.434 251.362C221.109 251.634 220.855 251.887 220.432 251.568C220.377 251.527 220.156 251.653 220.068 251.757C219.883 251.972 219.733 251.993 219.534 251.783C219.339 251.577 219.116 251.486 218.875 251.73C218.828 251.775 218.731 251.825 218.688 251.801C218.358 251.629 218.06 251.23 217.666 251.679C217.342 251.478 217.015 251.542 216.678 251.641C216.588 251.669 216.459 251.617 216.369 251.562C215.18 250.85 213.874 251.088 212.623 251.15C211.951 251.183 211.351 251.112 210.736 250.893C210.495 250.808 210.259 250.716 210.014 250.655C209.774 250.597 209.497 250.486 209.295 250.566C209.142 250.628 209.128 251.077 208.976 251.132C208.802 251.198 208.55 251.01 208.325 250.97C208.306 250.966 208.218 251.228 208.207 251.372C208.195 251.537 208.196 251.704 207.991 251.614C207.66 251.468 207.765 251.174 207.66 250.935C207.695 250.872 207.728 250.806 207.762 250.743C207.564 250.706 207.629 250.4 207.74 250.232ZM180.139 249.654C180.009 249.025 180.431 248.71 180.784 248.345C181.203 247.912 181.49 247.417 181.249 246.755C181.146 246.473 181.572 246.117 181.119 245.86C181.005 245.797 181.047 245.647 181.271 245.627C181.689 245.59 181.884 245.257 181.876 244.843C181.857 243.978 182.107 243.233 182.528 242.491C182.808 241.997 182.997 241.433 183.249 240.909C183.42 240.552 183.353 240.028 183.292 239.596C183.201 238.946 183.178 238.974 183.68 238.627C184.055 238.369 184.415 238.071 184.731 237.737C184.851 237.611 184.878 237.327 184.86 237.125C184.783 236.302 185.183 235.698 185.602 235.078C185.976 234.527 186.268 233.91 186.649 233.366C187.143 232.662 187.491 231.832 188.281 231.37C188.45 231.273 188.912 231.055 188.708 230.583C188.692 230.542 188.756 230.411 188.768 230.414C189.359 230.515 189.387 229.956 189.643 229.634C189.863 229.357 190.223 229.205 190.516 228.992C190.774 228.804 190.75 228.82 190.466 228.438C190.374 228.315 190.368 228.035 190.435 227.88C190.533 227.651 190.688 227.691 190.81 227.921C190.838 227.974 191.062 227.987 191.071 227.961C191.265 227.465 192.112 227.685 192.073 226.935C192.069 226.879 192.167 226.76 192.186 226.768C192.856 227.028 192.953 226.284 193.323 226.028C193.705 225.763 194.013 225.364 194.406 225.13C195.473 224.497 196.313 223.499 197.471 223.016C198.044 222.776 198.517 222.404 198.887 221.859C199.12 221.516 199.313 221.049 199.875 221.124C199.961 221.136 200.142 220.815 200.184 220.624C200.254 220.306 200.235 219.967 200.28 219.642C200.29 219.56 200.401 219.441 200.466 219.438C200.534 219.438 200.647 219.549 200.664 219.631C200.705 219.815 200.683 220.013 200.72 220.197C200.737 220.284 200.835 220.352 200.895 220.43C200.941 220.321 200.989 220.212 201.032 220.102C201.063 220.019 201.107 219.863 201.107 219.863C201.798 220.057 202.193 219.154 202.872 219.332C203.61 218.806 204.35 218.28 205.088 217.755C205.165 217.226 205.651 217.451 205.918 217.261C206.047 217.17 206.061 216.7 206.363 217.035C206.558 217.253 206.572 217.492 206.347 217.736C205.975 218.135 206.007 218.695 205.891 219.192C205.872 219.271 205.966 219.46 205.998 219.457C206.195 219.445 206.462 219.269 206.487 219.642C206.52 220.095 206.496 220.557 206.459 221.01C206.454 221.072 206.215 221.174 206.106 221.15C205.966 221.119 205.846 220.981 205.718 220.888C205.69 221.072 205.687 221.269 205.624 221.439C205.506 221.757 205.355 222.061 205.21 222.366C205.094 222.609 204.996 222.819 205.145 223.11C205.287 223.384 204.972 223.295 204.919 223.362C204.7 223.631 204.374 224.051 204.446 224.294C204.68 225.065 204.205 225.607 204.012 226.211C203.822 226.803 203.644 227.349 203.767 227.977C203.787 228.078 203.731 228.258 203.656 228.312C203.407 228.48 202.993 228.535 202.895 228.761C202.659 229.295 202.583 229.91 202.407 230.48C202.263 230.944 202.297 231.445 202.012 231.891C201.866 232.122 201.956 232.519 201.502 232.344C201.486 232.336 201.352 232.548 201.345 232.662C201.325 233.044 201.34 233.426 201.334 233.808C201.327 234.215 201.412 234.622 200.927 234.881C200.761 234.97 200.745 235.41 200.69 235.695C200.651 235.892 200.62 236.127 200.389 236.047C199.853 235.858 199.852 236.254 199.838 236.592C199.811 237.204 199.853 237.818 199.815 238.426C199.791 238.8 200.092 238.66 200.189 238.784C200.29 238.913 200.634 239.22 200.117 239.338C200.011 239.362 199.857 239.526 199.856 239.628C199.832 240.741 199.113 241.483 198.593 242.327C198.427 242.596 198.277 242.807 198.379 243.153C198.424 243.304 198.369 243.513 198.308 243.673C198.052 244.33 197.777 244.975 197.511 245.628C197.484 245.695 197.459 245.775 197.461 245.846C197.477 246.252 197.571 246.672 197.502 247.059C197.442 247.403 197.192 247.706 197.059 248.041C197.006 248.172 197.006 248.352 197.039 248.494C197.205 249.179 197.106 249.842 196.976 250.5C196.041 250.518 195.105 250.486 194.217 250.322C193.065 250.108 191.867 250.192 190.755 249.706C190.206 249.466 189.665 249.382 189.161 249.897C189 250.062 188.707 250.131 188.466 250.156C187.719 250.235 187.156 250.778 186.478 250.996C185.818 251.207 185.044 250.921 184.442 251.515C184.372 251.584 184.084 251.407 183.898 251.346C183.906 251.287 183.914 251.226 183.924 251.166C183.26 251.113 182.59 250.995 181.929 251.027C181.396 251.052 180.863 251.164 180.334 251.269C180.286 251.023 180.205 250.763 180.139 250.536C180.044 250.224 179.665 249.952 180.139 249.654ZM191.487 265.14C191.176 265.547 190.864 265.954 190.551 266.36C190.453 266.486 190.346 266.62 190.196 266.659C190.357 266.882 190.053 267.137 189.842 267.306C189.574 267.52 189.402 267.86 189.377 268.215C189.726 268.48 189.752 269.061 189.526 269.45C189.301 269.839 188.893 270.066 188.485 270.212C188.447 270.4 188.646 271.656 188.54 271.671C188.136 271.725 187.849 271.974 187.759 272.356C187.603 273.006 187.131 273.568 187.301 274.311C187.506 275.193 187.479 275.344 187.156 276.089C186.991 276.467 186.82 276.844 186.658 277.222C186.532 277.515 186.543 277.962 186.617 278.387C186.646 278.554 186.621 278.79 186.526 278.914C185.878 279.758 185.792 279.938 185.783 280.82C185.779 281.354 185.791 281.888 185.776 282.422C185.773 282.577 185.86 282.828 185.552 282.8C185.357 282.784 185.07 282.868 184.98 282.759C184.673 282.397 184.406 281.987 184.182 281.562C183.905 281.037 183.689 280.502 183.136 280.179C182.851 280.014 182.684 279.61 182.485 279.298C182.302 279.008 182.134 278.752 181.742 278.772C181.52 278.784 181.402 278.567 181.589 278.403C182.123 277.941 181.784 277.341 181.86 276.81C181.868 276.747 181.817 276.621 181.782 276.617C181.061 276.533 181.379 275.854 181.178 275.476C180.932 275.009 181.163 274.394 181.146 273.878C180.788 274.027 180.408 273.459 180.656 273.148C180.794 272.977 181.068 272.847 181.009 272.632C180.98 272.524 180.875 272.467 180.796 272.389C180.614 272.214 180.571 271.935 180.544 271.676C180.438 270.677 180.398 269.667 180.429 268.661C180.433 268.534 180.438 268.401 180.394 268.283C180.346 268.153 180.244 268.055 180.153 267.954C179.506 267.219 179.391 266.015 179.886 265.156C179.885 265.127 179.882 265.098 179.881 265.069C179.929 265.052 179.973 265.069 180.022 265.041C180.14 264.974 180.322 265.125 180.441 265.139C180.63 265.163 180.869 265.127 181.03 265.022C181.369 264.8 181.382 264.602 181.871 264.783C182.126 264.879 182.38 265.017 182.65 264.997C182.728 264.992 182.805 264.972 182.881 264.955C182.997 264.926 183.114 264.899 183.232 264.87C183.402 264.828 183.575 264.786 183.729 264.698C184.084 264.494 184.231 264.396 184.626 264.438C185.085 264.485 185.541 264.536 185.991 264.649C186.078 264.671 186.168 264.695 186.255 264.673C186.416 264.631 186.503 264.451 186.623 264.331C186.781 264.174 187.021 264.117 187.226 264.188C187.416 264.256 187.569 264.418 187.762 264.476C187.884 264.513 188.012 264.504 188.137 264.493C188.888 264.426 189.635 264.292 190.365 264.096C190.897 263.952 191.494 263.832 191.96 264.103C191.96 264.129 191.957 264.153 191.955 264.176C191.935 264.544 191.706 264.854 191.487 265.14ZM245.098 290.702C244.655 290.678 244.381 290.88 244.081 291.171C243.82 291.424 243.505 291.625 243.185 291.788C242.562 292.106 242.025 292.481 241.637 293.135C241.404 293.526 240.953 293.777 240.576 294.059C240.492 294.122 240.315 294.037 240.181 294.037C240.05 294.037 239.827 294.016 239.799 294.079C239.565 294.627 239.179 294.582 238.753 294.423C238.272 294.952 237.603 294.805 237.023 294.925C236.196 295.098 235.459 295.597 234.579 295.604C234.278 295.605 233.966 295.953 233.687 296.183C233.555 296.292 233.504 296.506 233.387 296.647C232.999 297.113 232.862 297.105 232.519 296.642C232.496 296.613 232.484 296.573 232.459 296.547C232.288 296.379 232.132 296.119 231.935 296.077C231.703 296.028 231.385 296.573 231.371 296.938C231.368 297.048 231.387 297.167 231.421 297.274C231.469 297.429 231.523 297.581 231.292 297.585C231.197 297.586 231.071 297.548 231.007 297.481C230.743 297.203 230.481 297.12 230.17 297.148C229.526 297.204 228.889 297.509 228.23 297.217C228.065 297.144 227.961 297.209 228.021 297.426C228.032 297.46 228.04 297.502 228.03 297.535C227.93 297.842 227.825 298.148 227.723 298.455C227.198 298.275 227.521 297.813 227.45 297.487C227.352 297.029 227.231 296.954 226.832 297.251C226.599 297.422 226.138 297.418 226.286 297.939C226.091 297.969 225.891 298.044 225.705 298.015C225.615 298.001 225.551 297.793 225.476 297.671C225.42 297.836 225.353 297.999 225.31 298.171C225.238 298.451 225.145 298.565 224.88 298.34C224.73 298.213 224.531 298.12 224.34 298.078C224.061 298.019 224.14 298.276 224.1 298.435C224.093 298.46 223.946 298.489 223.915 298.459C223.35 297.883 222.521 298.107 221.878 297.708C221.676 297.582 221.208 297.635 220.883 297.661C220.492 297.694 220.145 297.87 219.814 297.481C219.754 297.41 219.494 297.534 219.326 297.566C218.903 297.644 218.903 297.644 218.023 297.208C217.99 297.191 217.959 297.166 217.927 297.162C217.077 297.083 216.226 296.998 215.376 296.948C215.249 296.94 215.061 297.082 215 297.208C214.944 297.325 215.178 297.599 214.845 297.582C214.735 297.577 214.571 297.46 214.533 297.355C214.208 296.431 213.367 296.181 212.664 295.819C212.209 295.584 211.62 295.531 211.1 295.564C210.393 295.609 209.955 295.291 209.566 294.73C209.364 294.439 209.119 294.068 208.83 293.988C208.418 293.875 207.945 293.979 207.503 294.035C207.435 294.044 207.567 294.415 207.269 294.387C207.044 294.367 206.706 294.484 206.887 293.998C206.904 293.952 206.786 293.851 206.732 293.776C206.669 293.851 206.579 293.914 206.547 294.002C206.451 294.261 206.672 294.714 206.301 294.771C205.895 294.834 205.741 294.323 205.751 294.061C205.767 293.62 205.625 293.735 205.412 293.832C205.214 293.923 205.054 293.904 205.022 293.644C204.919 292.808 204.44 292.498 203.695 292.557C202.846 292.623 202.14 292.212 201.574 291.639C201.076 291.136 200.487 290.968 199.884 290.775C199.766 290.737 199.541 290.759 199.49 290.841C199.162 291.365 199.029 291.063 198.838 290.723C198.656 290.401 198.386 290.137 198.202 289.817C197.996 289.456 197.261 289.625 197.403 288.995C197.501 288.568 197.08 288.092 197.537 287.725C197.372 287.198 197.576 286.702 197.621 286.189C197.695 285.371 197.822 284.617 198.41 284.023C198.441 283.993 198.355 283.83 198.324 283.73C197.965 283.901 197.877 283.69 197.875 283.366C197.874 282.984 197.87 282.602 197.875 282.218C197.88 281.874 197.998 281.709 198.341 281.894C198.551 282.009 198.668 281.916 198.721 281.68C198.753 281.533 198.84 281.396 198.854 281.249C198.89 280.881 199.02 280.452 198.893 280.154C198.699 279.699 199.227 279.632 199.166 279.269C199.106 278.9 199.193 278.503 199.161 278.125C199.097 277.374 199.368 276.787 199.873 276.299C200.228 275.957 200.415 275.586 200.486 275.039C200.59 274.23 200.774 273.383 201.316 272.741C201.568 272.444 201.285 271.811 201.888 271.769C202.031 271.344 202.192 270.921 202.311 270.489C202.422 270.078 202.571 269.713 202.887 269.427C203.043 269.287 203.212 269.079 203.24 268.879C203.414 267.666 203.981 266.69 204.767 265.825C205.43 265.095 204.641 264.479 205.055 263.794C205.253 263.466 205.686 263.521 205.97 263.366C205.85 263.239 205.689 263.133 205.545 263.024C205.637 262.819 205.711 262.596 205.737 262.366C205.887 262.342 206.037 262.352 206.196 262.269C206.839 261.932 207.384 261.761 208.094 262.01C208.77 262.248 209.433 262.571 210.19 262.328C210.368 262.272 210.616 262.383 210.81 262.467C212.22 263.062 213.7 263.267 215.19 263.464C215.766 263.54 216.116 263.135 216.556 262.909C216.508 262.847 216.453 262.728 216.41 262.733C215.996 262.774 216.083 262.595 216.272 262.384C216.426 262.212 216.612 261.882 216.718 262.425C217.093 262.481 217.458 262.564 217.754 262.85C217.776 262.871 217.951 262.79 217.964 262.729C218.028 262.474 218.024 262.195 218.122 261.96C218.173 261.835 218.394 261.695 218.516 261.717C218.811 261.77 218.638 261.939 218.571 262.111C218.518 262.25 218.572 262.437 218.579 262.602C218.734 262.543 218.894 262.494 219.044 262.418C219.202 262.336 218.901 261.845 219.3 262.019C219.526 262.116 219.619 262.429 219.367 262.685C219.341 262.71 219.3 262.739 219.297 262.77C219.286 262.871 219.29 262.975 219.288 263.079C219.383 263.058 219.533 263.067 219.562 263.008C219.736 262.653 219.909 262.559 220.204 262.892C220.418 263.134 220.626 262.958 220.867 262.862C221.033 262.796 221.29 263.069 221.518 263.096C221.976 263.149 222.439 263.163 222.898 263.143C223.651 263.11 224.383 263.138 225.115 263.398C225.609 263.573 226.138 263.537 226.674 263.503C228.393 263.394 230.306 263.889 231.972 263.332C232.212 263.252 232.463 263.143 232.71 263.202C232.774 263.219 232.845 263.246 232.908 263.22C233.067 263.153 233.004 262.833 233.165 262.772C233.251 262.8 233.334 262.827 233.42 262.855C233.431 262.93 233.419 263.007 233.389 263.074C233.927 263.31 234.622 262.887 234.704 262.274C234.713 262.208 234.717 262.137 234.754 262.085C234.826 261.981 234.991 262.002 235.073 262.096C235.157 262.189 235.181 262.326 235.195 262.454C235.206 262.545 235.215 262.643 235.278 262.706C235.34 262.77 235.47 262.757 235.484 262.668C235.438 262.892 235.528 263.142 235.706 263.274C235.883 263.015 236.057 262.755 236.232 262.497C236.275 262.58 236.394 262.568 236.463 262.51C236.534 262.454 236.575 262.364 236.638 262.3C236.796 262.142 237.047 262.161 237.253 262.233C237.458 262.305 237.657 262.421 237.873 262.426C237.937 262.427 237.996 262.388 238.059 262.363C237.997 262.777 237.944 263.194 238.383 263.511C238.43 263.545 238.478 263.654 238.463 263.709C238.211 264.557 238.76 265.312 238.709 266.142C238.676 266.676 238.798 267.073 239.393 267.29C240.002 267.512 239.958 268.284 240.156 268.833C240.183 268.904 240.092 269.03 240.045 269.122C239.624 269.965 239.699 270.742 240.294 271.359C240.408 271.477 240.566 271.467 240.54 271.754C240.469 272.562 241.173 273.167 241.127 273.998C241.12 274.127 241.324 274.324 241.471 274.398C241.881 274.602 242.013 274.858 241.766 275.298C241.72 275.381 241.747 275.612 241.778 275.621C242.632 275.863 242.372 276.727 242.541 277.298C242.67 277.731 242.858 278.038 243.134 278.334C243.16 278.362 243.186 278.385 243.214 278.411C244.306 279.41 244.335 279.414 244.217 280.779C244.127 281.816 244.248 282.776 244.759 283.683C244.956 284.032 245.055 284.446 245.177 284.838C245.398 285.556 245.569 286.278 246.137 286.834C246.438 287.128 246.638 287.577 246.792 287.994C246.903 288.298 246.91 288.666 246.886 289.001C246.856 289.448 245.544 290.727 245.098 290.702ZM261.871 261.615C261.785 261.628 261.649 261.741 261.646 261.809C261.635 262.37 261.418 262.997 261.79 263.466C262.148 263.921 261.924 264.197 261.628 264.401C261.048 264.8 260.985 265.344 260.914 266.022C260.801 267.13 260.586 268.242 259.87 269.172C259.645 269.466 259.53 269.909 259.396 270.303C259.1 271.179 258.646 272.007 258.164 272.791C257.827 273.341 257.768 273.945 258.086 274.348C258.571 274.963 258.241 275.581 258.334 276.185C258.345 276.247 258.3 276.367 258.257 276.383C257.771 276.558 257.768 277.085 257.541 277.448C257.199 277.996 256.889 277.972 256.5 277.407C256.333 277.163 256.205 276.878 256.007 276.667C255.786 276.431 255.521 276.109 255.252 276.081C254.711 276.027 254.288 275.905 254.02 275.357C253.888 275.089 253.846 275.419 253.762 275.435C253.654 275.457 253.431 275.395 253.431 275.377C253.439 275.083 253.372 274.663 253.525 274.521C254.051 274.037 253.72 273.447 253.801 272.918C253.833 272.701 253.691 272.699 253.525 272.75C253.197 272.851 253.151 272.591 253.178 272.364C253.265 271.592 253.032 270.967 252.58 270.362C252.38 270.093 252.38 269.654 252.291 269.292C252.247 269.115 252.223 268.786 252.161 268.78C251.588 268.711 251.809 268.405 251.927 268.081C252.05 267.742 252.177 267.388 252.204 267.031C252.244 266.511 252.22 265.982 252.177 265.459C252.137 264.985 251.994 264.54 252.039 264.033C252.084 263.526 251.913 262.997 251.823 262.478C251.813 262.418 251.734 262.326 251.685 262.323C251.539 262.318 251.471 262.222 251.385 262.147C251.385 262.1 251.386 262.052 251.389 262.004C251.455 261.827 251.49 261.622 251.599 261.483C251.663 261.4 251.857 261.37 251.973 261.405C252.194 261.468 252.059 261.598 252.004 261.74C251.836 262.184 251.865 262.137 252.344 262.29C252.787 262.434 253.173 262.53 253.58 262.206C253.683 262.124 253.916 262.109 254.026 262.177C254.399 262.412 254.741 262.252 255.075 262.13C255.589 261.943 256.077 261.808 256.643 261.945C257.002 262.03 257.419 261.911 257.736 261.623C257.838 261.532 257.934 261.435 258.034 261.342C257.907 261.289 257.782 261.232 257.651 261.186C257.562 261.156 257.469 261.143 257.378 261.12C257.472 260.971 257.558 260.813 257.663 260.675C257.813 260.484 257.888 260.57 257.915 260.773C257.92 260.81 257.943 260.871 257.958 260.871C258.163 260.882 258.431 260.802 258.551 260.911C258.686 261.034 258.676 261.33 258.753 261.539C258.764 261.572 258.969 261.577 258.978 261.551C259.085 261.266 259.161 260.971 259.264 260.687C259.327 260.514 259.401 260.335 259.509 260.196C259.552 260.14 259.714 260.146 259.8 260.183C259.919 260.236 259.978 260.703 260.088 260.836C260.259 261.043 260.507 261.181 260.766 261.202C261.13 261.23 261.489 261.046 261.855 261.065C261.985 261.072 262.101 261.157 262.227 261.204C262.223 261.397 262.155 261.571 261.871 261.615Z" fill="#EEEEEE"/>
<path d="M295 435.595C295 437.493 277.091 439.031 255 439.031C232.909 439.031 215 437.493 215 435.595V446.393C215 448.29 232.909 449.828 255 449.828C277.091 449.828 295 448.29 295 446.393V435.595Z" fill="#EEEEEE"/>
</svg>
