<svg width="512" height="512" viewBox="0 0 512 512" fill="none" xmlns="http://www.w3.org/2000/svg">
<path d="M255.562 138.54C154.456 138.54 72.2019 210.295 72.2019 298.49C72.2019 337.187 75.2601 381.094 111.758 412.455C125.73 424.46 147.068 431.318 164.212 436.831C166.396 437.533 168.498 438.21 170.479 438.864C171.524 439.21 171.999 439.367 173.325 446.322C174.746 453.773 176.691 463.977 187.139 473.09C190.937 476.401 202.491 486.483 256.111 487H256.249H256.386C310.006 486.483 321.561 476.403 325.359 473.09C335.804 463.976 337.752 453.773 339.173 446.322C340.499 439.367 340.977 439.21 342.022 438.864C344.003 438.21 346.102 437.536 348.285 436.831C365.43 431.318 386.768 424.46 400.736 412.455C437.238 381.096 440.296 337.185 440.296 298.49C440.289 210.293 357.42 138.54 255.561 138.54H255.562Z" fill="#1F1A17"/>
<path d="M179.5 335.215C156.987 335.215 143 345.203 143 361.28C143 379.306 159.716 394.533 179.5 394.533C200.307 394.533 216 381.782 216 364.873C216 347.966 200.308 335.216 179.5 335.216V335.215Z" fill="#EEEEEE"/>
<path d="M331.5 335.216C310.693 335.216 295 347.967 295 364.873C295 381.783 310.692 394.533 331.5 394.533C351.283 394.533 368 379.303 368 361.28C368 345.203 354.014 335.215 331.5 335.215V335.216Z" fill="#EEEEEE"/>
<path d="M266.74 388.67C265.41 384.743 261.201 382.132 256.51 382.331C251.84 382.541 247.941 385.523 247.071 389.55L240.178 421.513C239.14 426.332 242.753 430.977 248.252 431.886C252.664 432.615 256.939 430.725 258.999 427.465C260.783 430.295 264.206 432.043 267.862 432.043C268.816 432.043 269.79 431.923 270.75 431.672C276.115 430.276 279.173 425.333 277.577 420.632L266.74 388.67Z" fill="#EEEEEE"/>
<path d="M257 276.923C155.38 276.923 73 287.031 73 299.5C71.4072 274.417 66.1991 224.826 56.6685 191.234L85.8318 172.068C120.348 239.957 163.133 251.521 138.823 114.294L173.864 101.891C199.003 183.595 236.884 259.009 240.258 76.2276L273.224 75.8986C276.51 261.868 315.191 185.681 340.891 102.941L375.089 114.325C345.327 244.887 389.333 236.043 425.728 171.133L455.482 191.23C446.317 224.822 442.062 274.416 441 299.5C441 287.031 358.62 276.923 257 276.923Z" fill="#1F1A17"/>
<path d="M437.407 188.393C431.082 213.034 427.165 243.943 424.988 268.928C415.217 266.557 402.956 264.523 389.005 262.811C354.9 258.627 308.237 256.083 257 256.083C205.763 256.083 159.1 258.627 124.995 262.811C110.78 264.556 98.3188 266.635 88.4586 269.063C85.9954 245.731 81.9534 217.116 76.0425 193.303C83.7111 206.826 91.9629 218.385 100.325 226.749C105.553 231.978 111.515 236.657 118.042 239.397C124.698 242.191 133.001 243.346 141.311 239.336C149.633 235.321 154.969 227.572 158.182 219.518C161.33 211.626 162.943 202.321 163.601 192.348C164.918 172.384 164.216 149.15 158 114.064C164.423 134.94 170.74 150.823 178.441 167.761C182.279 176.203 186.43 184.16 190.846 190.702C194.934 196.76 200.724 203.865 208.365 207.51C212.536 209.5 217.618 210.62 223.14 209.477C228.68 208.33 233.223 205.202 236.712 201.413C243.099 194.476 246.783 184.463 249.261 174.73C252.717 161.156 255.208 128.152 256.728 103.254C258.252 128.761 260.781 162.205 264.298 176.082C266.812 186.005 270.529 196.101 276.914 203.114C280.391 206.934 284.916 210.107 290.446 211.325C295.97 212.542 301.088 211.499 305.325 209.541C313.088 205.954 318.991 198.823 323.167 192.714C327.673 186.124 331.911 178.091 335.83 169.56C343.188 153.543 350.291 133.849 356.553 114.064C349.731 145.113 346.769 169.658 347.339 188.153C347.877 205.623 352.003 226.822 368.382 235.123C376.439 239.206 384.609 238.408 391.254 235.993C397.809 233.611 403.91 229.337 409.338 224.442C418.961 215.763 428.561 203.226 437.407 188.393Z" fill="#EEEEEE"/>
<circle cx="56.5" cy="156.5" r="37.5" fill="#1F1A17"/>
<circle cx="56.5" cy="156.5" r="18.5" fill="#EEEEEE"/>
<circle cx="255.5" cy="61.5" r="37.5" fill="#1F1A17"/>
<circle cx="255.5" cy="61.5" r="18.5" fill="#EEEEEE"/>
<circle cx="454.5" cy="156.5" r="37.5" fill="#1F1A17"/>
<circle cx="454.5" cy="156.5" r="18.5" fill="#EEEEEE"/>
<circle cx="364.5" cy="81.5" r="37.5" fill="#1F1A17"/>
<circle cx="364.5" cy="81.5" r="18.5" fill="#EEEEEE"/>
<circle cx="146.5" cy="81.5" r="37.5" fill="#1F1A17"/>
<circle cx="146.5" cy="81.5" r="18.5" fill="#EEEEEE"/>
</svg>
