<svg width="512" height="512" viewBox="0 0 512 512" fill="none" xmlns="http://www.w3.org/2000/svg">
<path d="M369 465.043C369 481.035 318.408 494 256 494C193.592 494 143 481.035 143 465.043C143 457.705 153.651 451.005 171.206 445.902C191.913 439.883 222.226 436.086 256 436.086C289.774 436.086 320.087 439.883 340.794 445.902C358.349 451.005 369 457.705 369 465.043Z" fill="#1F1A17"/>
<path d="M340.794 445.902C358.349 451.005 369 457.705 369 465.043V445.902H340.794Z" fill="#1F1A17"/>
<path d="M143 465.043C143 457.705 153.651 451.005 171.206 445.902H143V465.043Z" fill="#1F1A17"/>
<ellipse cx="256" cy="446.393" rx="113" ry="28.9571" fill="#1F1A17"/>
<ellipse cx="255.5" cy="444.92" rx="91.5" ry="17.6687" fill="white"/>
<path d="M215 401.73H295V446.883H215V401.73Z" fill="#1F1A17"/>
<ellipse cx="255" cy="446.393" rx="40" ry="3.43558" fill="#1F1A17"/>
<path d="M391 291.301C391 359.066 330.558 414 256 414C181.442 414 121 359.066 121 291.301C121 211.272 180.822 111.671 227.308 49.6786C241.847 30.2906 270.153 30.2906 284.692 49.6786C331.178 111.671 391 211.272 391 291.301Z" fill="#1F1A17"/>
<path d="M372 283.121C372 344.706 320.065 394.63 256 394.63C191.935 394.63 140 344.706 140 283.121C140 208.665 193.873 124.419 234.171 72.8584C245.36 58.5426 266.64 58.5426 277.829 72.8584C318.127 124.419 372 208.665 372 283.121Z" fill="white"/>
<path d="M341.825 280.363C340.628 293.525 324.285 281.647 324.285 268.43C324.285 208.463 299.69 141.709 277 93.5092C306.896 139.976 342.285 208.813 342.285 270.2C342.285 273.631 342.129 277.022 341.825 280.363Z" fill="#1F1A17"/>
<path d="M232 382.098H277V452.773H232V382.098Z" fill="white"/>
<path d="M304.463 250.83C303.961 250.623 303.436 250.477 302.922 250.298C302.544 250.172 302.167 250.046 301.789 249.918C301.383 249.781 300.987 249.557 300.611 250.027C300.534 250.123 300.253 250.125 300.11 250.061C299.343 249.717 298.593 249.705 297.815 250.027C297.63 250.103 297.394 250.061 297.182 250.048C296.83 250.027 296.477 249.966 296.124 249.952C295.844 249.941 295.515 249.885 295.295 250.015C295.161 250.095 295.192 250.49 295.141 250.741C295.126 250.814 295.107 250.923 295.059 250.947C294.918 251.015 294.762 251.048 294.612 251.096C294.62 250.978 294.608 250.853 294.639 250.741C294.713 250.472 295.012 250.121 294.616 249.972C294.106 249.778 294.185 250.311 294.127 250.607C294.096 250.761 294.123 250.942 293.911 250.854C293.801 250.808 293.663 250.665 293.656 250.557C293.644 250.377 293.739 250.189 293.763 250.003C293.774 249.928 293.713 249.844 293.686 249.763C293.041 250.156 292.793 249.386 292.338 249.225C292.107 249.143 292.018 249.197 291.919 249.387C291.659 249.881 291.193 249.911 290.803 249.762C290.354 249.59 289.952 249.314 289.455 249.544C289.137 249.041 288.843 249.626 288.501 249.574C287.81 249.474 287.112 249.428 286.416 249.368C286.052 249.338 285.653 249.238 285.29 249.25C285.022 249.259 284.816 249.409 284.543 249.434C284.334 249.455 284.104 249.372 283.999 249.179C283.955 249.097 283.924 248.988 283.838 248.962C283.75 248.935 283.67 249.013 283.593 249.066C283.331 249.243 283.028 249.13 282.721 249.001C282.767 248.947 282.767 248.891 282.831 248.838C282.879 248.8 282.956 248.738 282.95 248.7C282.831 247.991 283.306 247.18 282.638 246.561C282.642 246.029 282.071 245.583 282.453 244.98C282.517 244.88 282.39 244.64 282.351 244.465C282.31 244.287 282.192 244.079 282.237 243.933C282.434 243.318 282.287 242.93 281.721 242.642C281.377 242.467 281.46 242.051 281.485 241.71C281.509 241.396 281.754 241.434 281.955 241.368C282.094 241.325 282.241 241.179 282.308 241.039C282.58 240.468 282.579 239.801 282.493 239.182C282.457 238.922 282.537 238.909 282.37 238.649C282.305 238.548 281.867 238.323 281.856 238.262C281.773 237.729 281.689 237.194 281.604 236.66C281.561 236.387 281.497 236.077 281.27 235.942C281.036 235.8 280.665 235.866 280.552 235.605C280.474 235.428 280.599 235.211 280.765 235.127C280.932 235.045 281.125 235.061 281.309 235.078C281.076 234.523 280.39 234.351 280.07 233.846C279.893 233.568 279.849 233.22 279.809 232.885C279.717 232.096 279.623 231.308 279.53 230.519C279.056 230.331 278.657 229.939 278.443 229.453C278.294 229.481 278.135 229.507 277.997 229.437C277.862 229.368 277.78 229.16 277.882 229.04C277.917 228.998 277.971 228.974 278.019 228.948C278.382 228.761 278.642 228.206 278.344 227.917C278.124 227.703 277.776 227.796 277.496 227.903C277.477 227.623 277.603 227.336 277.82 227.172C277.452 226.585 277.304 225.716 276.905 225.189C276.576 224.757 276.136 224.749 276.066 224.078C276.051 223.927 276.067 223.772 276.058 223.62C276.053 223.549 276.02 223.478 275.999 223.409C275.936 223.471 275.87 223.531 275.81 223.594C275.518 223.896 275.53 223.889 275.3 223.541C275.229 223.436 275.075 223.391 274.959 223.322C274.907 223.445 274.828 223.564 274.804 223.692C274.773 223.861 275.069 224.162 274.645 224.158C274.349 224.156 274.341 223.894 274.338 223.659C274.337 223.545 274.314 223.416 274.351 223.317C274.739 222.347 273.752 222 273.537 221.302C273.516 221.236 273.125 221.307 273.1 221.238C272.965 220.851 272.882 220.444 272.795 220.038C272.712 219.644 271.983 219.545 272.344 218.934C272.352 218.921 272.157 218.7 272.056 218.698C271.598 218.687 271.349 218.397 271.108 218.041C270.945 217.802 270.759 217.564 270.539 217.384C269.8 216.779 269.791 216.788 269.286 215.777C269.143 215.489 268.553 215.298 268.477 215.534C268.321 216.018 268.172 215.845 267.916 215.715C267.502 215.501 267.244 215.208 267.147 214.698C267.079 214.333 266.808 213.855 266.453 213.969C265.963 214.127 265.917 213.775 265.731 213.541C265.597 213.376 265.419 213.039 265.345 213.063C264.789 213.247 264.867 212.859 264.824 212.514C264.789 212.226 264.679 211.948 264.6 211.666C264.529 211.419 264.417 211.176 264.398 210.926C264.375 210.621 264.276 210.501 263.998 210.366C263.592 210.169 263.248 209.569 262.885 209.578C262.201 209.594 262.15 209.168 262.013 208.709C262.005 208.683 261.945 208.649 261.924 208.658C261.719 208.738 261.52 208.725 261.656 208.447C261.872 208.01 261.704 207.78 261.347 207.662C259.946 207.195 259.968 206.374 258.121 206.74C258.086 206.747 258.049 206.736 258.013 206.736C257.601 206.747 257.298 206.598 257.279 206.108C257.263 205.721 257.114 205.473 256.755 205.662C256.43 205.834 256.419 205.444 256.269 205.444C256.159 205.444 256.07 205.721 255.934 205.783C255.852 205.82 255.609 205.701 255.594 205.619C255.511 205.155 255.287 205.033 254.909 205.243C254.497 205.472 254.249 205.321 254.032 204.923C253.776 204.458 253.479 204.038 252.909 203.951C252.756 203.927 252.614 203.745 252.49 203.611C252.118 203.213 251.807 202.736 251.139 203.029C250.997 203.091 250.665 202.854 250.516 202.668C250.121 202.173 249.62 202.144 249.078 202.135C248.439 202.124 248.399 202.063 248.423 201.419C248.428 201.306 248.447 201.192 248.483 201.086C248.593 200.766 248.428 200.879 248.238 200.84C247.596 200.709 246.961 200.522 246.342 200.298C246.141 200.226 245.872 199.989 245.853 199.802C245.813 199.392 245.698 199.354 245.319 199.281C244.865 199.192 244.114 198.673 244.008 198.787C243.703 199.11 243.002 198.347 242.95 199.245C242.949 199.278 242.835 199.304 242.775 199.333C242.633 198.792 242.301 199.446 242.084 199.203C241.721 198.801 241.346 198.884 240.928 199.176C240.721 199.321 240.324 199.434 240.161 199.321C239.767 199.049 239.459 198.848 239.114 199.346C238.518 199.182 237.921 199.02 237.325 198.856C237.356 198.273 236.638 197.996 236.859 197.266C237.147 196.318 237.14 195.396 235.797 194.815C235.548 194.706 235.453 194.571 235.469 194.321C235.481 194.136 235.462 193.856 235.561 193.787C235.987 193.49 235.844 193.054 235.886 192.656C235.936 192.203 235.877 191.883 235.341 191.929C235.321 191.93 235.23 191.644 235.261 191.518C235.331 191.227 235.468 190.956 235.554 190.666C235.592 190.536 235.628 190.319 235.564 190.254C235.062 189.741 235.097 188.995 234.819 188.39C234.747 188.234 234.681 188.046 234.555 187.953C233.892 187.449 233.889 187.399 234.018 186.61C234.109 186.053 234.211 185.462 234.12 184.92C234.045 184.475 234.076 183.8 233.339 183.753C233.05 183.735 233.048 183.435 233.147 183.221C233.356 182.77 233.336 182.427 232.878 182.17C232.765 182.106 232.692 181.955 232.611 181.835C231.821 180.668 231.39 179.368 231.356 177.925C231.352 177.777 231.344 177.534 231.27 177.501C230.566 177.181 230.884 176.776 231.103 176.298C231.216 176.051 231.233 175.611 231.095 175.408C230.668 174.777 230.725 174.009 230.474 173.328C230.135 172.41 229.784 171.444 230.031 170.395C230.093 170.135 230.075 169.842 229.718 169.792C229.382 169.745 229.217 169.486 229.146 169.184C229.069 168.856 229.072 168.496 228.616 168.824C228.581 168.848 228.439 168.791 228.434 168.758C228.395 168.502 228.344 168.239 228.364 167.986C228.387 167.712 228.586 167.771 228.774 167.814C228.824 167.826 228.947 167.717 228.955 167.651C229.033 167.016 228.21 166.07 227.628 166.152C227.442 166.178 227.189 166.316 227.112 166.48C226.784 167.188 226.316 167.81 226.171 168.63C226.034 169.401 225.646 170.116 225.716 170.942C225.727 171.072 225.621 171.227 225.542 171.353C225.262 171.802 225.237 172.313 225.362 172.788C225.468 173.191 225.357 173.249 225.039 173.241C224.75 173.233 224.669 173.441 224.687 173.693C224.721 174.259 224.774 174.823 224.818 175.387C224.83 175.537 224.87 175.69 224.844 175.833C224.731 176.42 224.571 177 224.484 177.591C224.429 177.964 224.342 178.438 224.503 178.716C224.954 179.502 224.696 180.246 224.571 181.014C224.461 181.68 224.346 182.347 224.239 183.013C224.172 183.419 223.977 183.872 224.08 184.223C224.272 184.87 223.534 184.825 223.512 185.293C223.5 185.527 223.207 185.737 223.18 185.976C223.07 186.912 222.991 187.856 222.95 188.799C222.911 189.735 223.01 190.673 222.955 191.613C222.931 192.031 222.837 192.364 222.516 192.593C222.053 192.922 221.8 193.362 221.613 193.932C221.368 194.679 220.97 195.305 220.224 195.727C219.449 196.167 218.746 196.839 218.841 197.972C218.852 198.084 218.844 198.201 218.836 198.315C218.813 198.606 218.693 198.735 218.417 198.592C218.148 198.452 218.017 198.55 217.992 198.856C217.963 199.22 217.971 199.596 217.882 199.943C217.79 200.303 217.779 200.656 217.246 200.833C216.658 201.029 215.92 201.249 215.649 202.023C215.523 202.38 215.337 202.35 215.064 202.219C214.796 202.09 214.575 202.156 214.512 202.52C214.472 202.75 214.356 202.804 214.128 202.753C213.9 202.7 213.652 202.745 213.416 202.732C212.774 202.695 212.239 203.076 211.648 203.244C211.202 203.371 210.791 203.643 210.343 203.735C209.894 203.828 209.482 204.032 208.989 204.037C208.144 204.045 207.746 204.621 207.697 205.571C207.693 205.65 207.598 205.794 207.574 205.789C207.452 205.755 207.312 205.707 207.235 205.613C207.194 205.562 207.294 205.406 207.29 205.298C207.278 205.084 207.175 204.909 206.954 205.035C206.232 205.449 205.43 205.593 204.648 205.782C204.311 205.864 204.138 205.973 204.138 206.358C204.138 206.459 203.996 206.563 203.918 206.665C203.848 206.551 203.763 206.445 203.714 206.321C203.647 206.152 203.618 205.964 203.549 205.796C203.537 205.765 203.406 205.791 203.328 205.791C203.556 206.4 203.108 206.339 202.842 206.26C202.128 206.051 201.563 206.763 200.863 206.567C200.799 206.549 200.678 206.672 200.611 206.755C200.544 206.839 200.504 206.952 200.465 207.057C200.265 207.61 199.407 207.829 199.748 208.655C199.658 208.681 199.547 208.756 199.487 208.723C199.268 208.602 199.143 208.711 199.049 208.888C198.943 209.086 198.821 209.287 198.778 209.504C198.713 209.83 198.62 209.998 198.278 209.833C198.218 209.804 198.036 209.887 198.021 209.95C197.91 210.408 197.621 210.193 197.353 210.21C196.626 210.253 196.429 210.494 196.393 211.212C196.343 212.163 196.104 212.283 195.16 213.352C194.505 214.094 193.625 214.451 192.996 215.18C192.777 215.435 192.496 215.579 192.1 215.482C191.475 215.33 191.061 215.621 190.706 216.242C190.31 216.935 189.806 217.644 189.187 218.088C188.385 218.662 188.065 219.362 187.935 220.319C187.841 221.006 187.699 221.712 186.837 221.946C186.474 222.047 186.249 222.535 186.065 223.012C185.888 223.47 185.832 223.901 185.773 224.362C185.745 224.585 185.587 224.664 185.363 224.765C184.258 225.268 184.3 225.311 183.736 226.639C183.613 226.93 183.502 227.151 183.602 227.45C182.741 227.55 182.76 228.532 182.244 228.985C182.091 229.12 181.971 229.347 181.925 229.555C181.755 230.363 181.629 231.181 181.463 231.988C181.431 232.143 181.31 232.363 181.192 232.396C180.45 232.6 180.308 233.268 180.261 233.885C180.237 234.195 180.071 234.304 180.003 234.498C179.806 235.052 178.983 235.001 179.018 235.727C179.02 235.744 178.818 235.822 178.751 235.786C178.167 235.476 178.123 236.054 178.073 236.336C177.981 236.855 177.965 237.411 178.034 237.935C178.126 238.63 177.821 239.206 177.569 239.75C177.249 240.439 176.834 241.03 176.911 241.88C176.943 242.229 176.697 242.661 176.476 242.974C176.094 243.515 175.616 243.976 175.213 244.502C175 244.782 174.618 245.223 175.445 245.109C175.495 245.102 175.627 245.269 175.615 245.339C175.567 245.661 175.937 246.329 175.118 246.079C175.083 246.067 174.983 246.231 174.945 246.327C174.778 246.746 174.575 247.157 174.474 247.593C174.395 247.933 174.307 248.414 174.463 248.648C174.89 249.285 174.516 249.885 174.535 250.494C174.536 250.565 174.417 250.695 174.35 250.699C174.282 250.703 174.195 250.591 174.143 250.51C174.087 250.421 174.061 250.308 174.022 250.204C173.991 250.272 173.963 250.339 173.931 250.405C173.727 250.802 173.492 251.185 173.328 251.6C173.174 251.989 173.021 252.408 172.996 252.822C172.957 253.395 172.961 253.97 172.951 254.545C172.629 254.674 172.307 254.803 171.984 254.932C171.756 255.023 171.496 255.113 171.278 254.998C171.096 254.901 170.943 254.663 170.746 254.721C170.485 254.796 170.385 255.211 170.177 255.372C170.012 255.501 169.834 255.511 169.647 255.577C169.035 255.792 168.521 256.228 167.875 256.354C167.356 256.454 166.727 256.563 166.398 256.923C166.101 257.252 165.74 257.473 165.482 257.397C165.174 257.304 165.008 257.422 164.804 257.526C163.703 258.088 162.562 258.558 161.344 258.664C160.546 258.735 160.112 259.269 159.792 259.872C159.595 260.242 159.392 260.078 159.358 259.968C159.203 259.444 158.802 259.54 158.502 259.604C157.996 259.713 157.512 259.947 157.014 260.11C156.709 260.211 156.369 260.411 156.094 260.341C155.521 260.194 155.102 260.434 154.712 260.773C154.366 261.075 154.003 261.099 153.61 261C153.365 260.938 153.124 260.854 152.891 260.754C152.607 260.631 152.388 260.733 152.24 260.973C151.786 261.717 151.487 262.545 151.534 263.424C151.554 263.786 151.649 263.995 151.31 264.272C150.841 264.654 150.923 264.986 151.432 265.313C151.806 265.553 152.179 265.665 152.631 265.562C152.928 265.495 152.859 265.685 152.742 265.886C152.608 266.113 152.761 266.237 152.962 266.275C153.194 266.318 153.116 266.128 153.148 265.995C153.218 265.709 153.321 265.429 153.439 265.161C153.46 265.116 153.644 265.114 153.728 265.15C153.783 265.174 153.842 265.315 153.824 265.383C153.761 265.632 153.559 265.905 153.61 266.11C153.714 266.521 154.091 266.269 154.353 266.312C154.494 266.336 154.632 266.388 154.769 266.432C155.68 266.727 156.573 267.204 157.556 266.733C158.25 266.935 158.923 266.51 159.677 266.792C160.341 267.04 161.147 266.838 161.889 266.88C162.31 266.904 162.727 267.015 163.148 267.082C163.618 267.157 163.913 267.158 164.38 267.096C164.675 267.058 164.964 267.198 165.258 267.231C165.443 267.252 165.633 267.231 165.811 267.167C165.867 267.147 165.922 267.121 165.966 267.08C166.009 267.038 166.037 266.983 166.08 266.943C166.124 266.901 166.182 266.879 166.232 266.842C166.722 266.487 166.758 265.747 166.92 265.203C166.94 265.131 166.967 265.051 167.012 264.998C167.055 264.951 167.131 264.906 167.187 264.91C167.243 264.914 167.325 264.968 167.348 265.023C167.464 265.301 167.332 265.803 167.495 266.004C167.578 266.108 167.791 266.104 167.902 266.166C168.111 266.28 168.285 266.481 168.466 266.641C168.516 266.686 168.569 266.732 168.632 266.748C168.703 266.766 168.778 266.747 168.848 266.72C169.052 266.644 169.242 266.526 169.401 266.372C169.459 266.316 169.516 266.254 169.591 266.222C169.689 266.181 169.796 266.205 169.899 266.223C170.279 266.295 170.664 266.325 171.049 266.354C171.25 266.368 171.452 266.383 171.652 266.399C172.67 266.474 173.698 266.472 174.7 266.314C174.708 266.342 174.699 266.38 174.708 266.407C175.02 267.157 173.9 268.541 175.185 268.924C175.209 269.172 175.144 269.428 175.003 269.63C175.279 269.433 175.67 269.743 175.709 270.091C175.749 270.44 175.566 270.77 175.389 271.068C175.512 271.105 175.626 271.174 175.716 271.27C175.739 271.076 175.763 270.881 175.784 270.686C175.965 270.69 176.048 270.948 175.986 271.127C175.924 271.307 175.781 271.438 175.685 271.597C175.497 271.908 175.499 272.305 175.536 272.672C175.589 273.204 175.703 273.726 175.875 274.229C176.07 274.8 176.342 275.402 176.187 275.986C176.122 276.232 175.986 276.507 176.122 276.717C176.184 276.812 176.287 276.864 176.355 276.951C176.454 277.078 176.466 277.255 176.475 277.418C176.499 277.908 176.432 278.531 176.555 279.003C176.641 279.334 176.856 279.632 176.964 279.971C177.032 280.185 177.096 280.4 177.153 280.617C177.282 281.119 177.424 281.561 177.825 281.96C178.303 282.437 178.857 282.964 178.685 283.863C178.595 284.333 179.04 284.6 179.343 284.838C179.731 285.144 179.991 285.516 180.177 285.971C180.247 286.142 180.3 286.339 180.417 286.464C181.425 287.555 182.456 288.625 183.458 289.722C183.644 289.926 183.889 289.789 184.003 289.891C184.15 290.02 184.123 290.357 184.26 290.52C184.742 291.087 185.223 291.67 185.777 292.148C186.329 292.622 186.574 293.528 187.466 293.549C187.537 293.55 187.659 293.7 187.67 293.791C187.726 294.331 188.046 294.515 188.495 294.693C188.83 294.826 189.072 295.218 189.353 295.499C189.562 295.708 189.732 296.01 189.98 296.116C190.861 296.498 190.861 297.265 190.731 298.028C190.404 299.958 190.503 301.883 190.669 303.814C190.681 303.953 190.696 304.123 190.634 304.232C190.417 304.622 190.216 305.043 189.916 305.353C189.572 305.709 189.403 306.106 189.477 306.572C189.572 307.185 189.158 307.705 189.331 308.362C189.504 309.013 188.701 309.353 188.593 309.978C188.562 310.158 188.452 310.327 188.367 310.495C188.244 310.734 188.236 310.877 188.403 311.175C188.75 311.793 188.79 312.551 188.375 313.177C188.058 313.654 188.047 314.264 188.256 314.561C188.575 315.014 188.569 315.441 188.609 315.92C188.675 316.724 189.257 317.292 189.994 317.3C190.857 317.309 191.722 317.314 192.586 317.299C193.122 317.287 194.189 316.382 194.188 315.838C194.185 314.945 194.619 314.279 194.997 313.564C195.059 313.446 195.609 312.833 194.776 313.097C194.777 312.971 194.729 312.804 194.788 312.729C195.034 312.405 195.317 312.136 195.298 311.645C195.26 310.69 195.749 309.905 196.205 309.163C196.778 308.235 197.225 307.279 197.464 306.201C197.666 305.287 197.784 304.33 198.267 303.524C198.69 302.82 199.157 302.164 199.2 301.279C199.213 300.993 199.422 300.764 199.721 300.863C199.977 300.946 200.016 300.861 200.056 300.629C200.083 300.469 200.186 300.326 200.256 300.172C200.368 300.303 200.54 300.415 200.579 300.566C200.717 301.078 201.133 301.237 201.503 301.456C201.789 301.628 201.803 301.615 202.146 301.214C202.281 301.058 202.367 301.096 202.462 301.27C202.503 301.345 202.699 301.417 202.706 301.407C203.015 300.916 203.112 301.293 203.218 301.55C203.317 301.796 203.273 301.919 202.994 301.796C202.929 301.767 202.856 301.743 202.788 301.742C202.722 301.741 202.653 301.767 202.584 301.782C202.603 301.829 202.61 301.897 202.644 301.922C202.959 302.161 203.276 302.396 203.596 302.626C204.243 303.084 204.899 303.532 205.542 303.998C205.731 304.135 205.708 304.149 205.989 303.887C206.036 303.844 206.222 303.867 206.247 303.915C206.366 304.146 206.472 304.39 206.544 304.642C206.62 304.906 206.765 304.904 206.948 304.81C207.21 304.673 207.422 304.76 207.371 305.056C207.255 305.719 207.696 305.703 208.077 305.841C208.575 306.025 209.051 306.276 209.535 306.496C209.72 306.579 209.902 306.725 210.088 306.732C210.771 306.761 211.477 306.855 212.134 306.711C212.86 306.553 213.461 306.732 214.052 307.084C215.146 307.735 216.327 307.983 217.557 307.893C218.371 307.833 219.019 308.149 219.634 308.64C219.748 308.731 219.834 308.87 219.956 308.942C220.165 309.065 220.303 309.052 220.196 308.731C220.113 308.475 220.263 308.376 220.469 308.38C220.788 308.385 220.645 308.593 220.611 308.765C220.588 308.873 220.58 309.012 220.627 309.098C220.672 309.178 220.797 309.245 220.888 309.245C220.979 309.245 221.143 309.165 221.148 309.105C221.165 308.924 221.116 308.736 221.11 308.551C221.109 308.497 221.166 308.399 221.204 308.395C221.307 308.386 221.472 308.381 221.504 308.441C221.588 308.597 221.594 308.797 221.67 308.961C221.725 309.079 221.835 309.239 221.934 309.25C222.672 309.333 223.411 309.415 224.152 309.43C225.191 309.451 226.233 309.41 227.275 309.405C227.378 309.405 227.491 309.443 227.582 309.496C228.217 309.864 228.905 309.732 229.579 309.74C230.257 309.747 230.921 309.76 231.593 309.957C233.003 310.369 234.413 310.331 235.796 309.751C236.121 309.614 236.483 309.537 236.832 309.511C237.333 309.473 237.838 309.51 238.343 309.511C238.846 309.513 239.351 309.513 239.855 309.511C240.381 309.51 240.906 309.517 241.431 309.491C241.913 309.47 242.436 309.264 242.864 309.404C243.369 309.567 243.712 308.8 244.179 309.269C244.567 309.104 245.083 309.051 245.321 308.75C245.921 307.992 246.737 307.726 247.548 307.501C247.991 307.379 248.341 307.223 248.647 306.876C248.977 306.502 249.41 306.187 249.879 306.326C250.393 306.477 250.723 306.151 251.116 306.003C251.543 305.844 251.961 305.675 252.308 305.289C252.745 304.803 253.267 304.388 253.991 304.433C254.208 304.446 254.445 304.273 254.655 304.149C255.638 303.575 256.464 302.663 257.684 302.605C257.779 302.6 257.886 302.528 257.964 302.457C258.374 302.096 258.778 301.727 259.18 301.355C259.254 301.288 259.369 301.132 259.369 301.132C259.872 301.538 260.685 300.691 261.058 301.599C261.851 301.368 261.58 301.855 261.473 302.266C261.418 302.473 261.367 302.724 261.429 302.913C261.525 303.211 261.744 303.722 261.866 303.71C262.472 303.639 263.028 304.217 263.643 303.839C263.77 303.76 263.808 303.872 263.893 304.017C264.126 304.411 264.47 304.734 264.769 305.085C265.517 304.883 265.093 305.362 265.092 305.66C265.088 306.184 265.068 306.746 265.233 307.22C265.343 307.534 265.502 307.819 265.506 308.169C265.514 308.573 265.701 308.593 266.001 308.443C266.227 308.33 266.35 308.493 266.34 308.708C266.328 308.963 266.339 309.336 266.197 309.443C265.801 309.741 265.955 310.126 265.939 310.482C265.91 311.069 266.471 311.406 266.518 311.966C266.578 311.949 266.636 311.93 266.696 311.912C266.624 311.659 266.67 311.567 266.944 311.644C267.134 311.699 267.347 311.67 267.549 311.677C267.528 311.848 267.47 312.026 267.498 312.186C267.519 312.294 267.66 312.45 267.754 312.455C268.43 312.502 268.737 313.003 269.007 313.554C269.202 313.951 269.228 314.459 269.64 314.711C269.967 314.911 269.975 315.637 270.587 315.36C270.606 315.429 270.659 315.519 270.637 315.562C270.522 315.776 270.61 315.853 270.778 315.993C271.114 316.274 271.45 316.588 271.686 316.959C271.884 317.273 272.108 317.314 272.405 317.312C273.269 317.306 274.133 317.32 274.996 317.306C275.608 317.298 275.641 317.279 275.635 316.678C275.628 316.125 275.798 315.524 275.363 315.039C275.332 315.005 275.39 314.859 275.431 314.779C275.831 313.979 275.755 313.177 275.357 312.426C275.237 312.2 275.069 312.065 275.184 311.775C275.235 311.645 275.243 311.423 275.172 311.33C274.511 310.466 274.367 309.429 274.194 308.381C274.154 308.145 274.087 307.941 274.09 307.673C274.095 306.684 274.016 305.677 273.187 305.013C272.973 304.84 272.954 304.751 273.01 304.485C273.183 303.683 272.888 302.978 272.438 302.361C271.742 301.406 271.755 300.389 272.58 299.673C272.832 299.454 272.878 299.232 272.798 298.99C272.701 298.738 272.515 298.494 272.358 298.241C272.345 298.22 272.229 298.229 272.212 298.258C272.059 298.504 271.916 298.593 271.766 298.262C271.67 298.052 271.576 297.843 271.481 297.633C272.026 297.407 271.483 296.625 272.042 296.387C272.094 296.365 272.077 296.125 272.073 295.988C272.049 295.384 271.954 294.773 272.013 294.179C272.045 293.837 272.093 293.637 271.756 293.462C271.196 293.169 271.023 292.594 271.132 292.012C271.253 291.354 271.392 290.646 271.926 290.186C272.483 289.707 272.802 289.092 272.964 288.371C273.102 287.753 273.379 287.327 273.946 286.991C274.361 286.744 274.523 286.05 274.925 285.733C275.38 285.377 275.956 285.204 276.171 284.556C276.218 284.416 276.286 284.211 276.389 284.174C277.304 283.858 277.557 283.023 277.825 282.188C277.87 282.051 277.972 281.917 278.082 281.828C278.443 281.534 278.478 281.133 278.458 280.696C278.442 280.315 278.439 279.93 278.458 279.551C278.474 279.208 278.407 279.116 278.044 279.174C277.749 279.221 277.815 278.863 277.824 278.653C277.835 278.422 277.953 278.321 278.184 278.405C278.548 278.538 278.716 278.255 278.595 278.003C278.363 277.521 278.622 277.375 278.934 277.253C279.692 276.959 279.822 276.338 279.733 275.596C279.71 275.411 279.607 275.227 279.618 275.047C279.646 274.603 279.646 274.133 279.8 273.735C279.877 273.533 280.261 273.458 280.509 273.335C280.572 273.302 280.646 273.288 280.716 273.28C281.005 273.241 281.094 273.014 281.001 272.789C280.842 272.403 280.734 272.135 281.314 272.268C281.331 272.272 281.467 271.952 281.456 271.789C281.42 271.192 281.578 270.666 281.856 270.157C281.979 269.934 282.051 269.67 282.101 269.414C282.124 269.3 282.019 269.046 281.991 269.05C281.722 269.079 281.625 268.953 281.793 268.746C282.457 267.932 282.251 267.131 281.752 266.371C281.524 266.028 281.424 265.733 281.536 265.32C281.611 265.048 281.69 264.695 281.589 264.471C281.215 263.644 281.743 262.989 282.095 262.517C282.384 262.13 282.465 261.762 282.477 261.392C282.691 261.439 282.79 261.387 282.993 261.323C283.353 261.21 283.575 261.34 283.925 261.385C284.316 261.436 284.707 261.26 285.078 261.133C285.585 260.958 286.113 260.847 286.611 260.651C286.832 260.563 287.011 260.186 287.195 260.198C288.406 260.273 289.336 259.745 290.098 258.81C290.445 258.385 290.855 258.159 291.384 258.066C291.827 257.988 292.254 257.776 292.679 257.593C293.338 257.311 293.983 256.991 294.645 256.713C294.929 256.592 295.287 256.609 295.522 256.431C295.794 256.227 296.025 256.313 296.292 256.313C296.819 256.312 297.397 256.862 297.87 256.17C297.882 256.152 297.954 256.149 297.966 256.166C298.317 256.628 298.599 256.2 298.733 256.001C299.025 255.557 299.309 255.591 299.751 255.704C300.544 255.908 301.386 256.01 302.145 255.599C302.653 255.325 303.12 255.008 303.712 254.948C303.881 254.93 304.126 254.754 304.177 254.591C304.466 253.689 304.737 252.778 304.956 251.852C305.084 251.294 304.937 251.027 304.463 250.83ZM242.441 216.289C242.559 216.342 242.675 216.396 242.796 216.445C242.891 216.485 243.027 216.582 243.081 216.545C243.672 216.159 243.945 216.662 244.361 216.957C245.424 217.712 246.315 218.773 247.721 218.957C248.212 219.02 248.656 219.553 249.107 219.893C249.593 220.258 250.378 220.485 251.049 220.444C251.156 220.436 251.345 220.515 251.361 220.587C251.453 221.009 251.735 221.083 252.067 221.262C252.685 221.593 253.187 222.163 253.757 222.604C254.099 222.869 254.472 223.094 254.847 223.304C254.912 223.343 255.067 223.246 255.159 223.179C255.352 223.037 255.561 223.065 255.494 223.312C255.405 223.636 255.605 223.773 255.68 224C255.817 224.423 256.359 224.059 256.455 224.569C256.51 224.866 256.806 225.117 257.008 225.375C257.236 225.668 257.473 225.951 257.719 226.226C257.838 226.357 257.976 226.481 258.125 226.569C258.644 226.872 259.252 227.04 259.366 227.835C259.394 228.027 259.727 228.17 259.924 228.329C260.307 228.638 260.804 228.811 260.796 229.503C260.795 229.713 261.167 229.922 261.363 230.138C261.743 230.554 262.236 230.951 262.44 231.505C262.542 231.782 262.531 232.807 262.931 232.759C263.045 232.745 263.129 232.637 263.243 232.619C263.5 232.577 263.592 232.967 263.575 233.244C263.9 233.016 264.376 233.067 264.652 233.362C264.549 233.488 264.447 233.618 264.345 233.745C264.927 233.979 265.622 234.402 265.549 235.058C265.333 234.963 265.063 235.209 265.116 235.451C265.518 235.375 265.942 235.418 266.323 235.581C266.338 235.468 266.354 235.357 266.37 235.244C266.531 235.252 266.674 235.409 266.673 235.581C266.672 235.752 266.527 235.909 266.366 235.913C266.592 236.044 266.772 236.261 266.863 236.516C266.945 236.745 266.957 236.994 267.004 237.234C267.123 237.845 267.485 238.4 267.982 238.732C267.908 238.936 267.833 239.139 267.76 239.344C267.966 239.39 268.191 239.349 268.372 239.233C268.385 239.373 268.4 239.515 268.412 239.656C268.45 240.045 268.48 240.464 268.301 240.805C268.466 240.823 268.628 240.836 268.786 240.872C268.763 241.173 268.979 241.314 269.041 241.569C269.145 241.989 268.991 242.02 269.378 242.362C270.116 243.015 270.942 243.693 270.933 244.899C271.458 245.636 271.107 246.396 270.995 247.152C270.915 247.694 270.716 248.249 271.138 248.755C271.2 248.83 271.147 249.016 271.138 249.152C271.134 249.239 271.094 249.324 271.07 249.411C270.964 249.387 270.856 249.352 270.748 249.383C270.566 249.436 270.428 249.585 270.266 249.69C270.108 249.795 269.883 249.852 269.741 249.72C269.681 249.666 269.645 249.586 269.586 249.533C269.404 249.374 269.143 249.525 268.913 249.569C268.618 249.625 268.326 249.493 268.056 249.356C267.693 249.175 267.337 248.982 266.985 248.778C266.108 249.009 265.082 248.932 264.287 249.276C264.078 249.368 263.822 249.507 263.604 249.571C263.477 249.607 263.367 249.63 263.239 249.591C263.164 249.569 262.893 249.298 262.876 249.302C262.666 249.352 262.414 249.411 262.161 249.473C262.022 249.507 261.884 249.577 261.745 249.574C260.367 249.557 259.075 250.096 257.723 250.26C257.586 250.276 257.363 250.216 257.32 250.285C256.894 251.011 256.599 251.38 256.733 250.101C256.736 250.076 256.531 249.974 256.496 250.003C255.99 250.44 255.371 249.767 254.873 250.197C254.829 250.164 254.784 250.173 254.74 250.154C254.63 250.011 254.507 249.876 254.408 249.722C254.317 249.582 254.045 249.21 254.008 249.068C253.977 248.955 254.058 248.502 254.067 248.524C253.966 248.298 253.929 248.042 253.961 247.794C253.767 247.972 253.44 247.806 253.346 247.555C253.252 247.302 253.315 247.018 253.381 246.757C253.192 246.866 252.969 246.896 252.76 246.842L252.806 246.4C253.028 246.245 253.253 246.091 253.476 245.935C253.254 245.772 253.046 245.548 253 245.265C252.955 244.98 253.138 244.648 253.409 244.639C253.508 244.053 253.154 243.419 252.622 243.23C252.449 243.167 252.251 243.142 252.125 242.999C251.824 242.651 252.184 241.895 251.778 241.702C251.639 241.635 251.477 241.688 251.332 241.743C251.189 241.797 251.028 241.852 250.887 241.79C250.746 241.727 250.68 241.488 250.812 241.407C251.055 241.41 251.298 241.353 251.519 241.247C251.506 241.074 251.49 240.899 251.476 240.726C251.211 240.782 250.96 240.572 250.789 240.35C250.248 239.648 250.063 238.6 250.484 237.812C249.742 237.968 249.026 237.468 248.723 236.773C248.603 236.5 248.858 235.956 248.274 235.976C248.291 235.799 248.243 235.541 248.336 235.456C248.852 234.977 248.688 234.274 248.716 233.732C248.74 233.266 248.258 232.742 247.942 232.292C247.562 231.748 247.133 231.261 247.074 230.526C247.054 230.286 246.88 230.024 246.713 229.841C246.22 229.304 246.002 228.636 245.761 227.957C245.513 227.257 245.249 226.574 244.753 225.973C244.385 225.527 244.287 224.818 244.109 224.21C244.042 223.981 244.042 223.748 243.753 223.752C243.283 223.757 243.356 223.639 243.543 223.249C243.947 222.402 243.698 221.532 242.966 220.967C242.717 220.775 242.814 220.545 242.75 220.333C242.402 219.153 242.846 217.895 242.387 216.735C242.338 216.607 242.418 216.434 242.441 216.289ZM215.74 250.232C215.986 249.858 216.348 249.46 216.527 249.046C216.678 248.699 216.622 248.38 216.927 248.101C217.298 247.762 217.449 247.368 217.195 246.889C216.886 246.303 217.57 245.98 217.522 245.456C217.519 245.423 217.87 245.267 217.988 245.325C218.363 245.506 218.517 245.334 218.627 244.998C218.697 244.783 218.741 244.554 218.848 244.363C219.127 243.856 219.064 243.39 218.658 243.039C218.414 242.829 218.408 242.604 218.408 242.338C218.408 242.092 218.461 241.907 218.733 241.836C219.775 241.562 220.195 240.498 219.741 239.452C219.594 239.113 219.563 238.822 219.738 238.497C219.808 238.367 219.902 238.211 219.887 238.078C219.772 237.071 220.412 236.5 220.964 235.864C221.07 235.744 221.208 235.513 221.165 235.413C220.994 235.014 221.276 234.679 221.247 234.309C221.242 234.249 221.382 234.117 221.444 234.125C221.516 234.134 221.587 234.25 221.634 234.335C221.666 234.398 221.65 234.485 221.662 234.559C221.697 234.805 221.736 235.052 221.773 235.297C222.198 235.121 221.983 234.824 221.91 234.544C221.894 234.489 221.966 234.351 221.98 234.354C222.625 234.491 222.494 234.002 222.498 233.633C222.501 233.251 222.502 232.869 222.482 232.487C222.478 232.431 222.351 232.385 222.281 232.331C222.155 232.233 221.925 232.137 221.921 232.03C221.904 231.62 222.185 232.014 222.281 231.91C222.371 231.817 222.492 231.683 222.483 231.577C222.433 230.937 222.654 230.494 223.056 229.982C223.405 229.538 223.64 228.725 223.511 228.186C223.322 227.388 223.515 226.688 223.587 225.953C223.645 225.35 223.65 224.778 223.491 224.187C223.411 223.889 223.471 223.545 223.492 223.223C223.497 223.154 223.599 223.059 223.673 223.034C224.498 222.757 224.38 221.897 224.641 221.273C224.654 221.242 224.535 221.147 224.476 221.084C224.399 221.001 224.24 220.882 224.257 220.844C224.424 220.434 224.525 219.851 224.829 219.678C225.613 219.229 225.32 218.441 225.483 217.819C225.554 217.552 225.364 217.248 225.812 217.212C225.868 217.207 225.959 216.95 225.945 216.818C225.839 215.838 226.422 215.107 226.748 214.286C226.827 214.088 227.063 213.947 226.861 213.704C226.473 213.23 227.146 213.025 227.103 212.635C227.101 212.615 227.348 212.538 227.355 212.55C227.529 212.936 227.899 212.848 228.181 212.978C228.37 213.063 228.576 213.301 228.367 213.607C228.068 214.045 228.32 214.42 228.494 214.807C228.667 215.193 228.849 215.605 229.293 215.646C229.833 215.693 230.094 215.853 229.894 216.488C229.832 216.685 230.001 216.752 230.231 216.765C230.583 216.781 230.733 217.125 230.503 217.271C229.912 217.644 230.073 218.136 230.193 218.669C230.295 219.113 230.503 219.524 230.656 219.932C230.825 220.383 230.951 220.85 230.878 221.249C230.731 222.059 231.278 222.487 231.556 223.068C231.569 223.097 231.611 223.115 231.642 223.135C232.334 223.57 232.397 223.587 232.227 224.285C232.005 225.212 232.369 225.959 232.718 226.729C232.75 226.802 232.92 226.886 232.971 226.856C233.436 226.587 233.541 226.835 233.54 227.271C233.54 227.346 233.559 227.423 233.584 227.493C233.749 227.941 233.348 228.432 233.747 228.89C234.031 229.216 234.181 229.672 234.387 230.073C234.805 230.887 235.319 231.675 235.092 232.689C235.415 233.187 235.163 234.011 235.894 234.286C235.949 234.306 235.998 234.455 235.988 234.535C235.886 235.307 236.238 235.726 236.915 235.881C237.125 235.928 237.089 236.027 237.064 236.195C237.037 236.37 237.032 236.581 237.1 236.736C237.34 237.286 237.927 237.614 237.787 238.426C237.704 238.895 238.056 239.437 238.121 239.975C238.144 240.155 238.224 240.339 238.315 240.496C238.555 240.921 238.075 241.487 238.694 241.801C238.84 242.129 238.82 242.512 238.817 242.875C238.816 243.239 238.845 243.631 239.062 243.914C239.28 244.196 239.747 244.28 239.951 243.986C240.151 244.088 240.255 244.365 240.173 244.585C240.024 244.649 239.876 244.712 239.726 244.777C239.846 245.055 240.057 245.288 240.314 245.424C240.018 245.933 239.848 246.524 239.825 247.123C239.822 247.219 239.822 247.319 239.86 247.407C239.976 247.692 240.36 247.687 240.638 247.592C240.915 247.497 241.235 247.363 241.482 247.533C241.502 247.78 241.523 248.027 241.544 248.275C241.433 248.291 241.322 248.308 241.208 248.322C241.315 248.762 241.419 249.202 241.525 249.642C241.509 249.65 241.49 249.646 241.475 249.654C241.057 249.83 240.639 250.007 240.223 250.182C240.086 250.24 239.942 250.298 239.797 250.274C239.667 250.253 239.553 250.166 239.427 250.127C239.06 250.01 238.72 250.296 238.507 250.585C238.415 250.711 238.372 250.895 238.254 250.996C238.206 251.037 237.844 251.146 237.85 251.133C237.562 251.996 237.071 251.623 236.6 251.364C236.059 251.099 235.401 251.239 234.905 250.819C234.29 251.189 233.676 250.63 233.018 250.857C232.464 251.048 231.821 250.942 231.217 250.978C230.578 251.016 230.443 251.175 230.514 251.851C230.533 252.023 230.569 252.175 230.358 252.123C230.192 252.081 229.925 252.153 229.94 251.778C229.963 251.223 229.778 251.074 229.434 251.362C229.109 251.634 228.855 251.887 228.432 251.568C228.377 251.527 228.156 251.653 228.068 251.757C227.883 251.972 227.733 251.993 227.534 251.783C227.339 251.577 227.116 251.486 226.875 251.73C226.828 251.775 226.731 251.825 226.688 251.801C226.358 251.629 226.06 251.23 225.666 251.679C225.342 251.478 225.015 251.542 224.678 251.641C224.588 251.669 224.459 251.617 224.369 251.562C223.18 250.85 221.874 251.088 220.623 251.15C219.951 251.183 219.351 251.112 218.736 250.893C218.495 250.808 218.259 250.716 218.014 250.655C217.774 250.597 217.497 250.486 217.295 250.566C217.142 250.628 217.128 251.077 216.976 251.132C216.802 251.198 216.55 251.01 216.325 250.97C216.306 250.966 216.218 251.228 216.207 251.372C216.195 251.537 216.196 251.704 215.991 251.614C215.66 251.468 215.765 251.174 215.66 250.935C215.695 250.872 215.728 250.806 215.762 250.743C215.564 250.706 215.629 250.4 215.74 250.232ZM188.139 249.654C188.009 249.025 188.431 248.71 188.784 248.345C189.203 247.912 189.49 247.417 189.249 246.755C189.146 246.473 189.572 246.117 189.119 245.86C189.005 245.797 189.047 245.647 189.271 245.627C189.689 245.59 189.884 245.257 189.876 244.843C189.857 243.978 190.107 243.233 190.528 242.491C190.808 241.997 190.997 241.433 191.249 240.909C191.42 240.552 191.353 240.028 191.292 239.596C191.201 238.946 191.178 238.974 191.68 238.627C192.055 238.369 192.415 238.071 192.731 237.737C192.851 237.611 192.878 237.327 192.86 237.125C192.783 236.302 193.183 235.698 193.602 235.078C193.976 234.527 194.268 233.91 194.649 233.366C195.143 232.662 195.491 231.832 196.281 231.37C196.45 231.273 196.912 231.055 196.708 230.583C196.692 230.542 196.756 230.411 196.768 230.414C197.359 230.515 197.387 229.956 197.643 229.634C197.863 229.357 198.223 229.205 198.516 228.992C198.774 228.804 198.75 228.82 198.466 228.438C198.374 228.315 198.368 228.035 198.435 227.88C198.533 227.651 198.688 227.691 198.81 227.921C198.838 227.974 199.062 227.987 199.071 227.961C199.265 227.465 200.112 227.685 200.073 226.935C200.069 226.879 200.167 226.76 200.186 226.768C200.856 227.028 200.953 226.284 201.323 226.028C201.705 225.763 202.013 225.364 202.406 225.13C203.473 224.497 204.313 223.499 205.471 223.016C206.044 222.776 206.517 222.404 206.887 221.859C207.12 221.516 207.313 221.049 207.875 221.124C207.961 221.136 208.142 220.815 208.184 220.624C208.254 220.306 208.235 219.967 208.28 219.642C208.29 219.56 208.401 219.441 208.466 219.438C208.534 219.438 208.647 219.549 208.664 219.631C208.705 219.815 208.683 220.013 208.72 220.197C208.737 220.284 208.835 220.352 208.895 220.43C208.941 220.321 208.989 220.212 209.032 220.102C209.063 220.019 209.107 219.863 209.107 219.863C209.798 220.057 210.193 219.154 210.872 219.332C211.61 218.806 212.35 218.28 213.088 217.755C213.165 217.226 213.651 217.451 213.918 217.261C214.047 217.17 214.061 216.7 214.363 217.035C214.558 217.253 214.572 217.492 214.347 217.736C213.975 218.135 214.007 218.695 213.891 219.192C213.872 219.271 213.966 219.46 213.998 219.457C214.195 219.445 214.462 219.269 214.487 219.642C214.52 220.095 214.496 220.557 214.459 221.01C214.454 221.072 214.215 221.174 214.106 221.15C213.966 221.119 213.846 220.981 213.718 220.888C213.69 221.072 213.687 221.269 213.624 221.439C213.506 221.757 213.355 222.061 213.21 222.366C213.094 222.609 212.996 222.819 213.145 223.11C213.287 223.384 212.972 223.295 212.919 223.362C212.7 223.631 212.374 224.051 212.446 224.294C212.68 225.065 212.205 225.607 212.012 226.211C211.822 226.803 211.644 227.349 211.767 227.977C211.787 228.078 211.731 228.258 211.656 228.312C211.407 228.48 210.993 228.535 210.895 228.761C210.659 229.295 210.583 229.91 210.407 230.48C210.263 230.944 210.297 231.445 210.012 231.891C209.866 232.122 209.956 232.519 209.502 232.344C209.486 232.336 209.352 232.548 209.345 232.662C209.325 233.044 209.34 233.426 209.334 233.808C209.327 234.215 209.412 234.622 208.927 234.881C208.761 234.97 208.745 235.41 208.69 235.695C208.651 235.892 208.62 236.127 208.389 236.047C207.853 235.858 207.852 236.254 207.838 236.592C207.811 237.204 207.853 237.818 207.815 238.426C207.791 238.8 208.092 238.66 208.189 238.784C208.29 238.913 208.634 239.22 208.117 239.338C208.011 239.362 207.857 239.526 207.856 239.628C207.832 240.741 207.113 241.483 206.593 242.327C206.427 242.596 206.277 242.807 206.379 243.153C206.424 243.304 206.369 243.513 206.308 243.673C206.052 244.33 205.777 244.975 205.511 245.628C205.484 245.695 205.459 245.775 205.461 245.846C205.477 246.252 205.571 246.672 205.502 247.059C205.442 247.403 205.192 247.706 205.059 248.041C205.006 248.172 205.006 248.352 205.039 248.494C205.205 249.179 205.106 249.842 204.976 250.5C204.041 250.518 203.105 250.486 202.217 250.322C201.065 250.108 199.867 250.192 198.755 249.706C198.206 249.466 197.665 249.382 197.161 249.897C197 250.062 196.707 250.131 196.466 250.156C195.719 250.235 195.156 250.778 194.478 250.996C193.818 251.207 193.044 250.921 192.442 251.515C192.372 251.584 192.084 251.407 191.898 251.346C191.906 251.287 191.914 251.226 191.924 251.166C191.26 251.113 190.59 250.995 189.929 251.027C189.396 251.052 188.863 251.164 188.334 251.269C188.286 251.023 188.205 250.763 188.139 250.536C188.044 250.224 187.665 249.952 188.139 249.654ZM199.487 265.14C199.176 265.547 198.864 265.954 198.551 266.36C198.453 266.486 198.346 266.62 198.196 266.659C198.357 266.882 198.053 267.137 197.842 267.306C197.574 267.52 197.402 267.86 197.377 268.215C197.726 268.48 197.752 269.061 197.526 269.45C197.301 269.839 196.893 270.066 196.485 270.212C196.447 270.4 196.646 271.656 196.54 271.671C196.136 271.725 195.849 271.974 195.759 272.356C195.603 273.006 195.131 273.568 195.301 274.311C195.506 275.193 195.479 275.344 195.156 276.089C194.991 276.467 194.82 276.844 194.658 277.222C194.532 277.515 194.543 277.962 194.617 278.387C194.646 278.554 194.621 278.79 194.526 278.914C193.878 279.758 193.792 279.938 193.783 280.82C193.779 281.354 193.791 281.888 193.776 282.422C193.773 282.577 193.86 282.828 193.552 282.8C193.357 282.784 193.07 282.868 192.98 282.759C192.673 282.397 192.406 281.987 192.182 281.562C191.905 281.037 191.689 280.502 191.136 280.179C190.851 280.014 190.684 279.61 190.485 279.298C190.302 279.008 190.134 278.752 189.742 278.772C189.52 278.784 189.402 278.567 189.589 278.403C190.123 277.941 189.784 277.341 189.86 276.81C189.868 276.747 189.817 276.621 189.782 276.617C189.061 276.533 189.379 275.854 189.178 275.476C188.932 275.009 189.163 274.394 189.146 273.878C188.788 274.027 188.408 273.459 188.656 273.148C188.794 272.977 189.068 272.847 189.009 272.632C188.98 272.524 188.875 272.467 188.796 272.389C188.614 272.214 188.571 271.935 188.544 271.676C188.438 270.677 188.398 269.667 188.429 268.661C188.433 268.534 188.438 268.401 188.394 268.283C188.346 268.153 188.244 268.055 188.153 267.954C187.506 267.219 187.391 266.015 187.886 265.156C187.885 265.127 187.882 265.098 187.881 265.069C187.929 265.052 187.973 265.069 188.022 265.041C188.14 264.974 188.322 265.125 188.441 265.139C188.63 265.163 188.869 265.127 189.03 265.022C189.369 264.8 189.382 264.602 189.871 264.783C190.126 264.879 190.38 265.017 190.65 264.997C190.728 264.992 190.805 264.972 190.881 264.955C190.997 264.926 191.114 264.899 191.232 264.87C191.402 264.828 191.575 264.786 191.729 264.698C192.084 264.494 192.231 264.396 192.626 264.438C193.085 264.485 193.541 264.536 193.991 264.649C194.078 264.671 194.168 264.695 194.255 264.673C194.416 264.631 194.503 264.451 194.623 264.331C194.781 264.174 195.021 264.117 195.226 264.188C195.416 264.256 195.569 264.418 195.762 264.476C195.884 264.513 196.012 264.504 196.137 264.493C196.888 264.426 197.635 264.292 198.365 264.096C198.897 263.952 199.494 263.832 199.96 264.103C199.96 264.129 199.957 264.153 199.955 264.176C199.935 264.544 199.706 264.854 199.487 265.14ZM253.098 290.702C252.655 290.678 252.381 290.88 252.081 291.171C251.82 291.424 251.505 291.625 251.185 291.788C250.562 292.106 250.025 292.481 249.637 293.135C249.404 293.526 248.953 293.777 248.576 294.059C248.492 294.122 248.315 294.037 248.181 294.037C248.05 294.037 247.827 294.016 247.799 294.079C247.565 294.627 247.179 294.582 246.753 294.423C246.272 294.952 245.603 294.805 245.023 294.925C244.196 295.098 243.459 295.597 242.579 295.604C242.278 295.605 241.966 295.953 241.687 296.183C241.555 296.292 241.504 296.506 241.387 296.647C240.999 297.113 240.862 297.105 240.519 296.642C240.496 296.613 240.484 296.573 240.459 296.547C240.288 296.379 240.132 296.119 239.935 296.077C239.703 296.028 239.385 296.573 239.371 296.938C239.368 297.048 239.387 297.167 239.421 297.274C239.469 297.429 239.523 297.581 239.292 297.585C239.197 297.586 239.071 297.548 239.007 297.481C238.743 297.203 238.481 297.12 238.17 297.148C237.526 297.204 236.889 297.509 236.23 297.217C236.065 297.144 235.961 297.209 236.021 297.426C236.032 297.46 236.04 297.502 236.03 297.535C235.93 297.842 235.825 298.148 235.723 298.455C235.198 298.275 235.521 297.813 235.45 297.487C235.352 297.029 235.231 296.954 234.832 297.251C234.599 297.422 234.138 297.418 234.286 297.939C234.091 297.969 233.891 298.044 233.705 298.015C233.615 298.001 233.551 297.793 233.476 297.671C233.42 297.836 233.353 297.999 233.31 298.171C233.238 298.451 233.145 298.565 232.88 298.34C232.73 298.213 232.531 298.12 232.34 298.078C232.061 298.019 232.14 298.276 232.1 298.435C232.093 298.46 231.946 298.489 231.915 298.459C231.35 297.883 230.521 298.107 229.878 297.708C229.676 297.582 229.208 297.635 228.883 297.661C228.492 297.694 228.145 297.87 227.814 297.481C227.754 297.41 227.494 297.534 227.326 297.566C226.903 297.644 226.903 297.644 226.023 297.208C225.99 297.191 225.959 297.166 225.927 297.162C225.077 297.083 224.226 296.998 223.376 296.948C223.249 296.94 223.061 297.082 223 297.208C222.944 297.325 223.178 297.599 222.845 297.582C222.735 297.577 222.571 297.46 222.533 297.355C222.208 296.431 221.367 296.181 220.664 295.819C220.209 295.584 219.62 295.531 219.1 295.564C218.393 295.609 217.955 295.291 217.566 294.73C217.364 294.439 217.119 294.068 216.83 293.988C216.418 293.875 215.945 293.979 215.503 294.035C215.435 294.044 215.567 294.415 215.269 294.387C215.044 294.367 214.706 294.484 214.887 293.998C214.904 293.952 214.786 293.851 214.732 293.776C214.669 293.851 214.579 293.914 214.547 294.002C214.451 294.261 214.672 294.714 214.301 294.771C213.895 294.834 213.741 294.323 213.751 294.061C213.767 293.62 213.625 293.735 213.412 293.832C213.214 293.923 213.054 293.904 213.022 293.644C212.919 292.808 212.44 292.498 211.695 292.557C210.846 292.623 210.14 292.212 209.574 291.639C209.076 291.136 208.487 290.968 207.884 290.775C207.766 290.737 207.541 290.759 207.49 290.841C207.162 291.365 207.029 291.063 206.838 290.723C206.656 290.401 206.386 290.137 206.202 289.817C205.996 289.456 205.261 289.625 205.403 288.995C205.501 288.568 205.08 288.092 205.537 287.725C205.372 287.198 205.576 286.702 205.621 286.189C205.695 285.371 205.822 284.617 206.41 284.023C206.441 283.993 206.355 283.83 206.324 283.73C205.965 283.901 205.877 283.69 205.875 283.366C205.874 282.984 205.87 282.602 205.875 282.218C205.88 281.874 205.998 281.709 206.341 281.894C206.551 282.009 206.668 281.916 206.721 281.68C206.753 281.533 206.84 281.396 206.854 281.249C206.89 280.881 207.02 280.452 206.893 280.154C206.699 279.699 207.227 279.632 207.166 279.269C207.106 278.9 207.193 278.503 207.161 278.125C207.097 277.374 207.368 276.787 207.873 276.299C208.228 275.957 208.415 275.586 208.486 275.039C208.59 274.23 208.774 273.383 209.316 272.741C209.568 272.444 209.285 271.811 209.888 271.769C210.031 271.344 210.192 270.921 210.311 270.489C210.422 270.078 210.571 269.713 210.887 269.427C211.043 269.287 211.212 269.079 211.24 268.879C211.414 267.666 211.981 266.69 212.767 265.825C213.43 265.095 212.641 264.479 213.055 263.794C213.253 263.466 213.686 263.521 213.97 263.366C213.85 263.239 213.689 263.133 213.545 263.024C213.637 262.819 213.711 262.596 213.737 262.366C213.887 262.342 214.037 262.352 214.196 262.269C214.839 261.932 215.384 261.761 216.094 262.01C216.77 262.248 217.433 262.571 218.19 262.328C218.368 262.272 218.616 262.383 218.81 262.467C220.22 263.062 221.7 263.267 223.19 263.464C223.766 263.54 224.116 263.135 224.556 262.909C224.508 262.847 224.453 262.728 224.41 262.733C223.996 262.774 224.083 262.595 224.272 262.384C224.426 262.212 224.612 261.882 224.718 262.425C225.093 262.481 225.458 262.564 225.754 262.85C225.776 262.871 225.951 262.79 225.964 262.729C226.028 262.474 226.024 262.195 226.122 261.96C226.173 261.835 226.394 261.695 226.516 261.717C226.811 261.77 226.638 261.939 226.571 262.111C226.518 262.25 226.572 262.437 226.579 262.602C226.734 262.543 226.894 262.494 227.044 262.418C227.202 262.336 226.901 261.845 227.3 262.019C227.526 262.116 227.619 262.429 227.367 262.685C227.341 262.71 227.3 262.739 227.297 262.77C227.286 262.871 227.29 262.975 227.288 263.079C227.383 263.058 227.533 263.067 227.562 263.008C227.736 262.653 227.909 262.559 228.204 262.892C228.418 263.134 228.626 262.958 228.867 262.862C229.033 262.796 229.29 263.069 229.518 263.096C229.976 263.149 230.439 263.163 230.898 263.143C231.651 263.11 232.383 263.138 233.115 263.398C233.609 263.573 234.138 263.537 234.674 263.503C236.393 263.394 238.306 263.889 239.972 263.332C240.212 263.252 240.463 263.143 240.71 263.202C240.774 263.219 240.845 263.246 240.908 263.22C241.067 263.153 241.004 262.833 241.165 262.772C241.251 262.8 241.334 262.827 241.42 262.855C241.431 262.93 241.419 263.007 241.389 263.074C241.927 263.31 242.622 262.887 242.704 262.274C242.713 262.208 242.717 262.137 242.754 262.085C242.826 261.981 242.991 262.002 243.073 262.096C243.157 262.189 243.181 262.326 243.195 262.454C243.206 262.545 243.215 262.643 243.278 262.706C243.34 262.77 243.47 262.757 243.484 262.668C243.438 262.892 243.528 263.142 243.706 263.274C243.883 263.015 244.057 262.755 244.232 262.497C244.275 262.58 244.394 262.568 244.463 262.51C244.534 262.454 244.575 262.364 244.638 262.3C244.796 262.142 245.047 262.161 245.253 262.233C245.458 262.305 245.657 262.421 245.873 262.426C245.937 262.427 245.996 262.388 246.059 262.363C245.997 262.777 245.944 263.194 246.383 263.511C246.43 263.545 246.478 263.654 246.463 263.709C246.211 264.557 246.76 265.312 246.709 266.142C246.676 266.676 246.798 267.073 247.393 267.29C248.002 267.512 247.958 268.284 248.156 268.833C248.183 268.904 248.092 269.03 248.045 269.122C247.624 269.965 247.699 270.742 248.294 271.359C248.408 271.477 248.566 271.467 248.54 271.754C248.469 272.562 249.173 273.167 249.127 273.998C249.12 274.127 249.324 274.324 249.471 274.398C249.881 274.602 250.013 274.858 249.766 275.298C249.72 275.381 249.747 275.612 249.778 275.621C250.632 275.863 250.372 276.727 250.541 277.298C250.67 277.731 250.858 278.038 251.134 278.334C251.16 278.362 251.186 278.385 251.214 278.411C252.306 279.41 252.335 279.414 252.217 280.779C252.127 281.816 252.248 282.776 252.759 283.683C252.956 284.032 253.055 284.446 253.177 284.838C253.398 285.556 253.569 286.278 254.137 286.834C254.438 287.128 254.638 287.577 254.792 287.994C254.903 288.298 254.91 288.666 254.886 289.001C254.856 289.448 253.544 290.727 253.098 290.702ZM269.871 261.615C269.785 261.628 269.649 261.741 269.646 261.809C269.635 262.37 269.418 262.997 269.79 263.466C270.148 263.921 269.924 264.197 269.628 264.401C269.048 264.8 268.985 265.344 268.914 266.022C268.801 267.13 268.586 268.242 267.87 269.172C267.645 269.466 267.53 269.909 267.396 270.303C267.1 271.179 266.646 272.007 266.164 272.791C265.827 273.341 265.768 273.945 266.086 274.348C266.571 274.963 266.241 275.581 266.334 276.185C266.345 276.247 266.3 276.367 266.257 276.383C265.771 276.558 265.768 277.085 265.541 277.448C265.199 277.996 264.889 277.972 264.5 277.407C264.333 277.163 264.205 276.878 264.007 276.667C263.786 276.431 263.521 276.109 263.252 276.081C262.711 276.027 262.288 275.905 262.02 275.357C261.888 275.089 261.846 275.419 261.762 275.435C261.654 275.457 261.431 275.395 261.431 275.377C261.439 275.083 261.372 274.663 261.525 274.521C262.051 274.037 261.72 273.447 261.801 272.918C261.833 272.701 261.691 272.699 261.525 272.75C261.197 272.851 261.151 272.591 261.178 272.364C261.265 271.592 261.032 270.967 260.58 270.362C260.38 270.093 260.38 269.654 260.291 269.292C260.247 269.115 260.223 268.786 260.161 268.78C259.588 268.711 259.809 268.405 259.927 268.081C260.05 267.742 260.177 267.388 260.204 267.031C260.244 266.511 260.22 265.982 260.177 265.459C260.137 264.985 259.994 264.54 260.039 264.033C260.084 263.526 259.913 262.997 259.823 262.478C259.813 262.418 259.734 262.326 259.685 262.323C259.539 262.318 259.471 262.222 259.385 262.147C259.385 262.1 259.386 262.052 259.389 262.004C259.455 261.827 259.49 261.622 259.599 261.483C259.663 261.4 259.857 261.37 259.973 261.405C260.194 261.468 260.059 261.598 260.004 261.74C259.836 262.184 259.865 262.137 260.344 262.29C260.787 262.434 261.173 262.53 261.58 262.206C261.683 262.124 261.916 262.109 262.026 262.177C262.399 262.412 262.741 262.252 263.075 262.13C263.589 261.943 264.077 261.808 264.643 261.945C265.002 262.03 265.419 261.911 265.736 261.623C265.838 261.532 265.934 261.435 266.034 261.342C265.907 261.289 265.782 261.232 265.651 261.186C265.562 261.156 265.469 261.143 265.378 261.12C265.472 260.971 265.558 260.813 265.663 260.675C265.813 260.484 265.888 260.57 265.915 260.773C265.92 260.81 265.943 260.871 265.958 260.871C266.163 260.882 266.431 260.802 266.551 260.911C266.686 261.034 266.676 261.33 266.753 261.539C266.764 261.572 266.969 261.577 266.978 261.551C267.085 261.266 267.161 260.971 267.264 260.687C267.327 260.514 267.401 260.335 267.509 260.196C267.552 260.14 267.714 260.146 267.8 260.183C267.919 260.236 267.978 260.703 268.088 260.836C268.259 261.043 268.507 261.181 268.766 261.202C269.13 261.23 269.489 261.046 269.855 261.065C269.985 261.072 270.101 261.157 270.227 261.204C270.223 261.397 270.155 261.571 269.871 261.615Z" fill="#1F1A17"/>
</svg>
