<svg xmlns="http://www.w3.org/2000/svg" viewBox="0 0 45 45"><g style="font-style:normal;font-weight:400;font-size:40px;line-height:1.25;font-family:sans-serif;letter-spacing:0;word-spacing:0;fill:#fff;fill-opacity:1;stroke:none" aria-label="桂"><path style="font-style:normal;font-variant:normal;font-weight:400;font-stretch:normal;font-family:'Otsutome_font Bold';-inkscape-font-specification:'Otsutome_font Bold, ';fill:#fff" d="M3.95 34.409q0-3.96 1.28-6.6-.04-.16.08-.36.12-.24.24-.4.16-.16.16-.2.28-1.04 1.76-4.88 1.52-3.84 1.84-6.04v-1h-.84q-1.24-.12-2.4-.8-1.16-.72-1.16-1.44 0-.88 1.96-1.2.16-.12 1.2-.32 1.08-.2 1.28-.36-.16-.28-.16-1.24 0-1.28.12-1.4-.16-.88-.16-1.52 0-2.04 1.48-2.04.16 0 .56.08h.28q.16-.04.28-.04.8 0 1.32.28.56.24.84.6.28.36.4 1.12.16.72.16 1.28.04.56.04 1.6v1.6h1.8q1.08.08 1.48.24.4.12.92.52l.72.56v.84q-.28.92-.96 1.24-.68.32-2.2.32h-1.48v1.36q.64 2.84 2.72 5.48 2.08 2.6 4.44 3.96.48-.04 1.24-.2.76-.2 1.64-.2h2.52v-1.24q0-1.2.08-2v-.76h-2.28q-.32.04-.88.04-3.28 0-4.56-2.16.16-.56 2.16-.68 2.04-.12 4.12-.32 2.12-.24 2.4-1v-.16q.04-.16.04-.4v-.48q0-.88-.08-3.12v-.64H25.95q-.88 0-1.32-.16-.44-.16-.96-.56t-1.08-.64q-.4-.16-.4-.56 0-.36.36-.68.4-.36.88-.4 1.36-.68 3.56-.68h1v-.68q.04-.12.04-.44 0-.24-.04-.8t-.04-.84q0-1.12.56-1.12h.04q1.28-.4 2.32-.4 1.2 0 1.56.64l.84.68v2.64h2.4q1.16.04 1.72.08.6.04.92.2.36.16.4.28.08.08.2.52.16.4.32.68-.04 1.96-5.68 1.96-.52 3.56-1.16 4.56-.16.12-.16.24 0 .24 2.2.36 4.56.24 4.56 2 0 .6-.4 1.28-.76.6-1.76.6-.96 0-2.72-.16h-1.32v1.12q0 .16-.16 1-.12.84-.12 1.16v.88h1.44q.56-.08.84-.08 1.2 0 1.92.64.72.6.72 1.36 0 .68-.64 1.16-.6.48-1.8.48h-.84q-.92 0-1.28.24-.32.24-.32.76 0 .2.08.8.08.6.08.96 0 .84-.32 1.6-.36.4-.36.72 0 .72 2.92.72h2.28q2.44 0 2.88.44 1.44.44 1.96 1.12v.52l-.52.68q-1.6 1.2-5.8 1.2-1.08 0-3.4-.08-2.28-.12-3.4-.12-3.32 0-5.08.68-3.56.56-4.24.56-.52 0-.8-.12-.28-.08-.88-.52-.56-.48-.96-.72-.2-.4-.2-.68 0-.96 1.76-1.44 1.8-.48 4.6-.76t3.8-.56q1.36 0 1.36-.76 0-.24-.28-1.08-.28-.88-.28-1.44 0-.24.12-.76.16-.52.16-.72 0-.8-1.28-.88-1.24-.12-2.84-.2-1.6-.12-2.12-.88-.52-.12-.76-.64-.24-.56-.84-.56-1.36 0-3.24-.64-1.88-.64-2.4-1.44-.16.2-.16 1.56 0 1.48.24 5.68.24 4.2.24 5.4 0 .72-.04.92-.2.36-.28.96-.08.64-.32.84-.8.76-1.88.76-1.04 0-1.84-.8t-.8-2q0-.48.12-.96-.2-.52-.4-3.44t-.52-3.64q-.4.6-1.2 2.32-.8 1.72-1.64 2.8-.8 1.04-2 1.44-.12-1-.12-2.08z"/></g></svg>