<?xml version="1.0" encoding="UTF-8" standalone="no"?>
<svg
   xmlns:dc="http://purl.org/dc/elements/1.1/"
   xmlns:cc="http://creativecommons.org/ns#"
   xmlns:rdf="http://www.w3.org/1999/02/22-rdf-syntax-ns#"
   xmlns:svg="http://www.w3.org/2000/svg"
   xmlns="http://www.w3.org/2000/svg"
   xmlns:sodipodi="http://sodipodi.sourceforge.net/DTD/sodipodi-0.dtd"
   xmlns:inkscape="http://www.inkscape.org/namespaces/inkscape"
   inkscape:version="1.0 (4035a4fb49, 2020-05-01)"
   sodipodi:docname="P.svg"
   id="svg3735"
   version="1.1"
   viewBox="0 0 45 45">
  <metadata
     id="metadata3741">
    <rdf:RDF>
      <cc:Work
         rdf:about="">
        <dc:format>image/svg+xml</dc:format>
        <dc:type
           rdf:resource="http://purl.org/dc/dcmitype/StillImage" />
      </cc:Work>
    </rdf:RDF>
  </metadata>
  <defs
     id="defs3739" />
  <sodipodi:namedview
     inkscape:document-rotation="0"
     inkscape:current-layer="svg3735"
     inkscape:window-maximized="1"
     inkscape:window-y="0"
     inkscape:window-x="0"
     inkscape:cy="22.5"
     inkscape:cx="51.006356"
     inkscape:zoom="5.2444444"
     showgrid="false"
     id="namedview3737"
     inkscape:window-height="711"
     inkscape:window-width="1366"
     inkscape:pageshadow="2"
     inkscape:pageopacity="0"
     guidetolerance="10"
     gridtolerance="10"
     objecttolerance="10"
     borderopacity="1"
     bordercolor="#666666"
     pagecolor="#ffffff" />
  <g
     style="font-style:normal;font-weight:normal;font-size:40px;line-height:1.25;font-family:sans-serif;letter-spacing:0px;word-spacing:0px;fill:#ffffff;fill-opacity:1;stroke:none"
     id="text3745"
     aria-label="歩">
    <path
       id="path26"
       style="font-style:normal;font-variant:normal;font-weight:normal;font-stretch:normal;font-family:'Otsutome_font Bold';-inkscape-font-specification:'Otsutome_font Bold, ';fill:#ffffff"
       d="m 4.9894908,17.722374 q 0,-0.16 0.16,-0.32 0.28,-0.24 1.16,-0.56 0.88,-0.32 1.64,-0.36 0.96,-0.12 0.96,-1 0,-0.4 -0.28,-1.52 -0.28,-1.12 -0.28,-1.72 0,-0.2 0.08,-0.6 -0.04,-0.16 -0.04,-0.48 0,-1.6400003 2.6800002,-1.6400003 0.36,0 1.24,0.08 1.64,0.7200003 1.52,1.3600003 0.12,0.48 0.12,0.8 0,0.28 -0.12,0.84 -0.08,0.52 -0.08,0.96 0,0.24 0.08,0.96 l -0.04,1.64 2.72,-0.08 q 0.48,-0.08 1.28,-0.08 h 1 q 0.68,0 0.68,-0.32 0,-0.08 -0.08,-0.32 0,-0.12 -0.32,-2.32 -0.32,-2.24 -0.32,-3.6000003 0,-3.72 2.24,-3.72 h 0.04 q 0.2,-0.04 0.6,-0.04 1.32,0 2.52,0.76 1.2,0.76 1.2,1.92 0,0.64 0.12,0.88 0.16,0.24 0.56,0.24 0.16,0 0.6,-0.04 0.48,-0.04 0.8,-0.04 0.76,0 1.24,0.12 1.92,0.08 2.76,0.28 0.84,0.2000003 2.16,0.9200003 0.44,0.28 0.44,0.52 0,0.24 -0.76,0.76 0.08,0.12 -0.24,0.2 -0.32,0.04 -1.04,0.04 -0.6,0 -2.28,-0.04 -1.68,-0.08 -2.48,-0.08 -1.84,0 -2.28,0.24 -0.12,0.04 -0.4,1.56 -0.28,1.48 -0.28,1.8 0,0.04 5.64,0.16 5.68,0.12 5.68,0.28 0,0.04 -0.04,0.04 1.84,0.96 1.84,1.56 0,1.28 -6.92,1.28 -1.12,0 -2.24,-0.08 -1.12,-0.08 -1.24,-0.08 -0.12,0 -0.24,0.04 -0.08,0 -0.16,0.04 -0.08,0 -0.12,0.08 -0.04,0.08 -0.08,0.16 -0.04,0.04 -0.08,0.2 0,0.12 -0.04,0.24 0,0.12 -0.04,0.36 0,0.24 -0.04,0.44 l -0.12,1.08 0.92,-0.4 q 0.68,-0.52 1.56,-0.52 1.32,0 3.2,1.12 1.92,1.12 3.56,2.28 1.64,1.12 2.4,1.12 h 0.04 q 0.4,0.12 1.2,0.36 0.84,0.2 1.12,0.32 0.28,0.12 0.56,0.44 0.32,0.32 0.32,0.84 -1.4,0.88 -3.28,0.88 -2.52,0 -5.36,-1.36 -2.8,-1.36 -4.32,-2.84 -0.4,-0.4 -0.88,-0.76 -0.48,-0.4 -0.76,-0.56 -0.28,-0.16 -0.32,-0.16 -0.08,0 -0.08,1.68 v 1.48 q 0,0.32 -0.04,0.6 0,0.24 0,0.48 0,0.2 -0.08,0.4 -0.08,0.16 -0.12,0.28 0,0.12 -0.16,0.28 -0.16,0.12 -0.2,0.2 -0.04,0.04 -0.28,0.16 -0.24,0.12 -0.32,0.16 -0.08,0.04 -0.4,0.2 -0.32,0.16 -0.48,0.24 -0.72,-0.2 -1.28,-0.4 -0.52,-0.24 -0.88,-0.68 -0.36,-0.44 -0.56,-0.68 -0.2,-0.28 -0.36,-1.08 -0.16,-0.8 -0.24,-1.12 -0.04,-0.32 -0.16,-1.48 -0.08,-1.16 -0.12,-1.6 v -2.16 l -2.6,0.12 q -0.2,0 -3.2,0.16 -3,0.16 -4.6000002,0.16 -2.96,0 -3.16,-0.48 -0.52,-0.2 -1.12,-0.64 -0.6,-0.48 -0.6,-0.84 z m 2.84,21.52 q 1.32,-1.32 4.8800002,-2.36 3.56,-1.04 6.96,-2 3.44,-1 4.56,-2.16 0.96,-0.24 1.88,-1.12 0.96,-0.92 1.56,-1.8 0.6,-0.92 1.52,-1.64 0.92,-0.76 1.96,-0.76 0.92,0 2.16,0.64 0.28,0.16 0.28,0.64 0,1.12 -1,2.76 -0.64,1.08 -2.8,2.68 -2.16,1.6 -3.96,2.48 -0.8,0.84 -5.84,2 -5.04,1.12 -8.8,1.12 -2.2800002,0 -3.3600002,-0.48 z m 1.32,-9.28 q 0,-1.28 4.7600002,-7.92 0.16,-0.6 1.04,-0.96 0.88,-0.4 1.96,-0.4 2.36,0 2.36,1.52 0,0.48 -0.2,0.88 -0.12,0.16 -1.08,1.32 -0.96,1.12 -1.36,1.52 -0.36,0.4 -1.32,1.36 -0.96,0.96 -1.68,1.44 -0.68,0.44 -1.72,0.96 -1,0.52 -2.0400002,0.76 -0.4,-0.04 -0.52,-0.04 -0.12,-0.04 -0.16,-0.12 -0.04,-0.08 -0.04,-0.32 z m 0.04,-14.44 z" />
  </g>
</svg>
