<?xml version="1.0" encoding="UTF-8" standalone="no"?>
<svg
   xmlns:dc="http://purl.org/dc/elements/1.1/"
   xmlns:cc="http://creativecommons.org/ns#"
   xmlns:rdf="http://www.w3.org/1999/02/22-rdf-syntax-ns#"
   xmlns:svg="http://www.w3.org/2000/svg"
   xmlns="http://www.w3.org/2000/svg"
   xmlns:sodipodi="http://sodipodi.sourceforge.net/DTD/sodipodi-0.dtd"
   xmlns:inkscape="http://www.inkscape.org/namespaces/inkscape"
   inkscape:version="1.0 (4035a4fb49, 2020-05-01)"
   sodipodi:docname="R.svg"
   id="svg24"
   version="1.1"
   viewBox="0 0 45 45">
  <metadata
     id="metadata30">
    <rdf:RDF>
      <cc:Work
         rdf:about="">
        <dc:format>image/svg+xml</dc:format>
        <dc:type
           rdf:resource="http://purl.org/dc/dcmitype/StillImage" />
        <dc:title />
      </cc:Work>
    </rdf:RDF>
  </metadata>
  <defs
     id="defs28" />
  <sodipodi:namedview
     inkscape:document-rotation="0"
     inkscape:current-layer="svg24"
     inkscape:window-maximized="1"
     inkscape:window-y="0"
     inkscape:window-x="0"
     inkscape:cy="4.9518071"
     inkscape:cx="10.945067"
     inkscape:zoom="7.4167645"
     showgrid="false"
     id="namedview26"
     inkscape:window-height="711"
     inkscape:window-width="1366"
     inkscape:pageshadow="2"
     inkscape:pageopacity="0"
     guidetolerance="10"
     gridtolerance="10"
     objecttolerance="10"
     borderopacity="1"
     bordercolor="#666666"
     pagecolor="#ffffff" />
  <flowRoot
     style="font-style:normal;font-weight:normal;font-size:40px;line-height:1.25;font-family:sans-serif;letter-spacing:0px;word-spacing:0px;fill:#000000;fill-opacity:1;stroke:none"
     id="flowRoot32"
     xml:space="preserve"><flowRegion
       id="flowRegion34"><rect
         y="0.57203388"
         x="0.95338982"
         height="42.330509"
         width="44.046612"
         id="rect36" /></flowRegion><flowPara
       id="flowPara38" /></flowRoot>
  <g
     style="font-style:normal;font-weight:normal;font-size:40px;line-height:1.25;font-family:sans-serif;letter-spacing:0px;word-spacing:0px;fill:#ffffff;fill-opacity:1;stroke:none"
     id="text42"
     aria-label="飛">
    <path
       id="path12"
       style="font-style:normal;font-variant:normal;font-weight:normal;font-stretch:normal;font-family:'Otsutome_font Bold';-inkscape-font-specification:'Otsutome_font Bold, ';fill:#ffffff"
       d="m 4.5180545,20.310345 q 0.12,-0.8 0.68,-1.64 0.6,-0.84 1.2,-1.44 0.64,-0.64 0.72,-0.76 2.68,-2.48 4.8399995,-3.32 0.56,-0.52 1.32,-0.52 0.92,0 1.76,0.68 0.88,0.64 0.88,1.28 0,0.32 -0.16,0.48 -0.88,1 -2.28,1.84 l -1,0.6 0.48,0.44 q 0.52,0.6 0.76,0.96 0.24,0.32 0.48,1.08 0.24,0.72 0.24,1.6 l 0.16,1.04 h 1.48 q 1.24,0 1.6,-0.08 0.36,-0.12 0.36,-0.56 0,-0.08 -0.16,-1.08 -0.12,-1.04 -0.12,-2.04 0,-0.44 0.08,-1.64 -0.2,-1.16 -0.2,-2.36 0,-0.52 0.04,-1.16 0.04,-0.68 0.04,-0.88 0,-0.72 -0.6,-0.88 -0.56,-0.2 -2.88,-0.2 -4.3999995,0 -5.8799995,-0.32 -1.44,-0.36 -2.64,-1.8800005 -0.28,-0.32 -0.28,-0.64 0,-1.04 3,-1.04 0.68,0 1,0.04 3.3999995,0.2 5.3199995,0.2 2.68,0 6.92,-0.32 4.24,-0.32 6.76,-0.4 h 0.6 q 2.28,0 2.88,0.68 0.64,0.64 0.64,2.4000005 -0.2,0.64 -0.2,1.08 0,0.36 0.2,0.36 0.24,0 1,-0.64 0.8,-0.68 1.08,-0.8 1.92,-1.2800005 2.64,-1.2800005 0.8,0 1.56,0.8800005 0,0.64 -0.76,1.32 -0.72,0.64 -2,1.4 -1.28,0.76 -1.64,1.08 -0.64,0.28 -0.64,0.56 0,0.16 0.24,0.32 0.28,0.16 0.68,0.28 0.4,0.12 0.88,0.24 0.48,0.12 0.92,0.24 0.48,0.08 0.88,0.16 0.4,0.08 0.6,0.2 0.2,0.08 0.16,0.16 0.2,0.2 0.8,0.64 0.64,0.4 1.12,0.8 0.48,0.4 0.48,0.72 0,0.36 -0.52,0.6 l -0.52,0.6 -1.44,-0.44 q -0.68,-0.2 -2.56,-0.68 -1.88,-0.48 -2.44,-0.64 -0.16,-0.12 -0.32,-0.12 -0.08,0 -0.08,0.12 0,0.28 0.4,1.04 0.4,0.76 0.76,1.36 0.36,0.6 0.32,0.6 0.96,1.12 0.96,1.96 0,0.8 -1.16,1.04 -0.2,0.16 -0.6,0.84 -0.36,0.68 -0.36,1.04 0,0.32 0.28,0.32 0.28,0 0.92,-0.36 2.4,-0.8 3.44,-0.8 1.24,0 1.88,1.2 -0.2,0.64 -2.6,1.24 -2.36,0.56 -2.36,1 0,0.36 1.12,0.92 1.2,0.92 2.4,1.68 1.24,0.76 1.72,1.08 0.52,0.28 0.84,0.72 0.36,0.4 0.36,1.04 0,0.64 -0.16,1.4 -0.32,0.04 -0.96,0.04 -1.96,0 -3.16,-0.88 -4,-2.96 -4.56,-2.96 -0.16,0 -0.16,0.84 0,1.28 1.52,3.52 1.52,2.2 1.64,2.56 l 0.44,0.56 -0.4,0.4 q -0.4,0.52 -1.12,0.52 -1.48,0 -3.72,-1.72 -2.2,-1.72 -2.44,-2.64 -0.84,-0.96 -0.84,-3.56 0,-0.96 0.12,-3 0.16,-2.04 0.16,-2.92 0,-0.08 -0.88,-0.08 -1.32,0 -1.88,0.12 l -0.6,0.12 0.16,2 q 0.12,1.92 0.12,3.48 0,4.76 -1.68,5.84 -0.52,0.76 -1.8,0.76 -0.8,0 -1.36,-0.4 -0.56,-0.4 -0.52,-1.2 -0.12,-0.56 -0.36,-4.6 -0.24,-4.08 -0.44,-4.6 0.12,-0.24 0.12,-0.44 0,-0.6 -1.28,-0.6 -0.4,0 -2,0.2 -0.08,0.72 -0.16,2.8 -0.08,2.04 -0.24,3.52 -0.16,1.48 -0.44,1.8 -0.12,0.2 -0.44,0.92 -0.32,0.72 -0.48,1.08 -0.16,0.32 -0.48,0.92 -0.32,0.6 -0.6,0.96 -0.28,0.32 -0.68,0.68 -0.4,0.32 -0.8,0.48 -0.2,0 -0.6,0.12 -0.3599995,0.16 -0.5599995,0.16 -0.32,0 -0.52,-0.28 -0.08,0.08 -0.12,0.08 -0.44,0 -0.44,-3.28 0,-1.36 0.08,-3.96 0.08,-2.6 0.08,-3.2 v -0.52 l -0.12,-2.32 -0.88,-0.36 q -1.36,-0.64 -1.36,-1.28 0,-0.64 1.36,-1.04 l 1.12,-0.32 -0.12,-1.2 q 0.04,-0.2 0.04,-0.56 0,-1 -0.64,-1 -0.24,0 -1.04,0.28 -0.8,0.28 -1.24,0.28 -0.76,0 -1.16,-0.76 z m 18.3599995,-8 q 0,0.4 0.28,1.8 0.32,1.36 0.32,2.24 0,0.72 -0.16,1.32 0.04,3.36 0.44,4.56 0.08,-0.04 1.16,-0.04 h 0.76 q 4.24,0 4.24,-0.48 0,-0.16 -0.36,-0.36 -1.96,-1.96 -2.96,-4.68 -0.4,-0.2 -0.4,-1.36 0,-0.36 0.04,-1.24 0.08,-0.88 0.08,-1.28 0,-1.8 -0.96,-1.8 -0.36,0 -0.92,0.24 h -0.2 q -1.36,0 -1.36,1.08 z" />
  </g>
</svg>
