<svg xmlns="http://www.w3.org/2000/svg" viewBox="0 0 45 45"><g style="font-style:normal;font-weight:400;font-size:40px;line-height:1.25;font-family:sans-serif;letter-spacing:0;word-spacing:0;fill:#fff;fill-opacity:1;stroke:none" aria-label="飛"><path style="font-style:normal;font-variant:normal;font-weight:400;font-stretch:normal;font-family:'Otsutome_font Bold';-inkscape-font-specification:'Otsutome_font Bold, ';fill:#fff" d="M4.518 20.31q.12-.8.68-1.64.6-.84 1.2-1.44.64-.64.72-.76 2.68-2.48 4.84-3.32.56-.52 1.32-.52.92 0 1.76.68.88.64.88 1.28 0 .32-.16.48-.88 1-2.28 1.84l-1 .6.48.44q.52.6.76.96.24.32.48 1.08.24.72.24 1.6l.16 1.04h1.48q1.24 0 1.6-.08.36-.12.36-.56 0-.08-.16-1.08-.12-1.04-.12-2.04 0-.44.08-1.64-.2-1.16-.2-2.36 0-.52.04-1.16.04-.68.04-.88 0-.72-.6-.88-.56-.2-2.88-.2-4.4 0-5.88-.32-1.44-.36-2.64-1.88-.28-.32-.28-.64 0-1.04 3-1.04.68 0 1 .04 3.4.2 5.32.2 2.68 0 6.92-.32t6.76-.4h.6q2.28 0 2.88.68.64.64.64 2.4-.2.64-.2 1.08 0 .36.2.36.24 0 1-.64.8-.68 1.08-.8 1.92-1.28 2.64-1.28.8 0 1.56.88 0 .64-.76 1.32-.72.64-2 1.4-1.28.76-1.64 1.08-.64.28-.64.56 0 .16.24.32.28.16.68.28.4.12.88.24t.92.24q.48.08.88.16t.6.2q.2.08.16.16.2.2.8.64.64.4 1.12.8.48.4.48.72 0 .36-.52.6l-.52.6-1.44-.44q-.68-.2-2.56-.68-1.88-.48-2.44-.64-.16-.12-.32-.12-.08 0-.08.12 0 .28.4 1.04t.76 1.36q.36.6.32.6.96 1.12.96 1.96 0 .8-1.16 1.04-.2.16-.6.84-.36.68-.36 1.04 0 .32.28.32t.92-.36q2.4-.8 3.44-.8 1.24 0 1.88 1.2-.2.64-2.6 1.24-2.36.56-2.36 1 0 .36 1.12.92 1.2.92 2.4 1.68 1.24.76 1.72 1.08.52.28.84.72.36.4.36 1.04t-.16 1.4q-.32.04-.96.04-1.96 0-3.16-.88-4-2.96-4.56-2.96-.16 0-.16.84 0 1.28 1.52 3.52 1.52 2.2 1.64 2.56l.44.56-.4.4q-.4.52-1.12.52-1.48 0-3.72-1.72-2.2-1.72-2.44-2.64-.84-.96-.84-3.56 0-.96.12-3 .16-2.04.16-2.92 0-.08-.88-.08-1.32 0-1.88.12l-.6.12.16 2q.12 1.92.12 3.48 0 4.76-1.68 5.84-.52.76-1.8.76-.8 0-1.36-.4t-.52-1.2q-.12-.56-.36-4.6-.24-4.08-.44-4.6.12-.24.12-.44 0-.6-1.28-.6-.4 0-2 .2-.08.72-.16 2.8-.08 2.04-.24 3.52-.16 1.48-.44 1.8-.12.2-.44.92l-.48 1.08q-.16.32-.48.92-.32.6-.6.96-.28.32-.68.68-.4.32-.8.48-.2 0-.6.12-.36.16-.56.16-.32 0-.52-.28-.08.08-.12.08-.44 0-.44-3.28 0-1.36.08-3.96.08-2.6.08-3.2v-.52l-.12-2.32-.88-.36q-1.36-.64-1.36-1.28t1.36-1.04l1.12-.32-.12-1.2q.04-.2.04-.56 0-1-.64-1-.24 0-1.04.28t-1.24.28q-.76 0-1.16-.76zm18.36-8q0 .4.28 1.8.32 1.36.32 2.24 0 .72-.16 1.32.04 3.36.44 4.56.08-.04 1.16-.04h.76q4.24 0 4.24-.48 0-.16-.36-.36-1.96-1.96-2.96-4.68-.4-.2-.4-1.36 0-.36.04-1.24.08-.88.08-1.28 0-1.8-.96-1.8-.36 0-.92.24h-.2q-1.36 0-1.36 1.08z"/></g></svg>