<?xml version="1.0" encoding="UTF-8" standalone="no"?>
<svg
   xmlns:dc="http://purl.org/dc/elements/1.1/"
   xmlns:cc="http://creativecommons.org/ns#"
   xmlns:rdf="http://www.w3.org/1999/02/22-rdf-syntax-ns#"
   xmlns:svg="http://www.w3.org/2000/svg"
   xmlns="http://www.w3.org/2000/svg"
   xmlns:sodipodi="http://sodipodi.sourceforge.net/DTD/sodipodi-0.dtd"
   xmlns:inkscape="http://www.inkscape.org/namespaces/inkscape"
   inkscape:version="1.0 (4035a4fb49, 2020-05-01)"
   sodipodi:docname="S.svg"
   id="svg24"
   version="1.1"
   viewBox="0 0 45 45">
  <metadata
     id="metadata30">
    <rdf:RDF>
      <cc:Work
         rdf:about="">
        <dc:format>image/svg+xml</dc:format>
        <dc:type
           rdf:resource="http://purl.org/dc/dcmitype/StillImage" />
        <dc:title />
      </cc:Work>
    </rdf:RDF>
  </metadata>
  <defs
     id="defs28" />
  <sodipodi:namedview
     inkscape:document-rotation="0"
     inkscape:current-layer="svg24"
     inkscape:window-maximized="1"
     inkscape:window-y="0"
     inkscape:window-x="0"
     inkscape:cy="11.924506"
     inkscape:cx="15.465524"
     inkscape:zoom="7.4167645"
     showgrid="false"
     id="namedview26"
     inkscape:window-height="711"
     inkscape:window-width="1366"
     inkscape:pageshadow="2"
     inkscape:pageopacity="0"
     guidetolerance="10"
     gridtolerance="10"
     objecttolerance="10"
     borderopacity="1"
     bordercolor="#666666"
     pagecolor="#ffffff" />
  <flowRoot
     style="font-style:normal;font-weight:normal;font-size:40px;line-height:1.25;font-family:sans-serif;letter-spacing:0px;word-spacing:0px;fill:#000000;fill-opacity:1;stroke:none"
     id="flowRoot32"
     xml:space="preserve"><flowRegion
       id="flowRegion34"><rect
         y="0.57203388"
         x="0.95338982"
         height="42.330509"
         width="44.046612"
         id="rect36" /></flowRegion><flowPara
       id="flowPara38" /></flowRoot>
  <g
     style="font-style:normal;font-weight:normal;font-size:40px;line-height:1.25;font-family:sans-serif;letter-spacing:0px;word-spacing:0px;fill:#ffffff;fill-opacity:1;stroke:none"
     id="text42"
     aria-label="銀">
    <path
       id="path12"
       style="font-style:normal;font-variant:normal;font-weight:normal;font-stretch:normal;font-family:'Otsutome_font Bold';-inkscape-font-specification:'Otsutome_font Bold, ';fill:#ffffff"
       d="m 3.1239062,16.440684 q 0,-0.12 0.08,-0.52 0.68,-3.24 3,-7.4400004 l 1.08,-1.96 2.2,-1.2 q 0.16,-0.08 1.2399998,-0.08 1.24,0 1.84,1.04 0.64,1 1.36,2.12 0.72,1.12 1.4,1.8000004 0.68,1.2 1.8,2.68 1.04,1.44 1.84,3.28 0.12,0.28 -0.48,0.56 l -0.6,0.28 -0.96,-0.4 q -1.24,-0.52 -3,-2.52 -2.04,-2.24 -3.48,-4.2400004 -2.8399998,3.9600004 -2.8399998,5.4000004 0,0.52 0.6,0.52 h 0.16 q 1.16,0.16 2.6399998,0.32 1.48,0.16 2.12,0.24 0.64,0.08 1.4,0.4 0.76,0.28 1.36,0.8 0.16,0.64 0.16,0.8 0,0.72 -1.24,0.72 -0.44,0 -0.72,-0.04 l -1.56,-0.04 -0.04,1.52 q -0.24,0.48 -0.24,0.8 0,0.68 1.04,0.88 1.04,0.2 2.08,0.32 1.08,0.16 1,0.64 -0.04,0.2 -0.04,0.2 0.04,0.12 0.04,0.32 0,0.48 -0.48,0.68 -0.48,0.2 -1.64,0.36 -1.16,0.16 -1.8,0.36 -0.28,1.96 -0.28,4.44 0,1.52 0.28,1.52 0.24,0 0.64,-1 0.12,-0.28 0.28,-0.72 0.16,-0.44 0.24,-0.64 0.12,-0.24 0.24,-0.6 0.16,-0.36 0.24,-0.52 0.12,-0.16 0.24,-0.4 0.16,-0.28 0.28,-0.36 0.12,-0.12 0.28,-0.24 0.16,-0.16 0.32,-0.2 0.2,-0.04 0.4,-0.04 0.64,0 1.56,0.52 0.08,0.24 0.08,0.4 0,1.08 -0.92,2.52 -0.88,1.32 -2.08,1.6 -0.48,0.12 -0.88,0.28 -0.24,0.08 -0.56,0.08 -0.12,0 -0.28,0.2 -0.16,0.2 -0.24,0.56 -0.04,0.36 -0.16,1.2 0.12,0 2.24,-0.64 2.16,-0.68 3.2,-0.68 0.88,0 1.2,0.44 l 0.48,0.04 -0.04,-3.36 v -1.6 q 0,-2.36 0.16,-7.28 0.08,-4.88 0.12,-7.6 l 0.04,-5.0800004 0.68,-0.2 q 0.8,-0.24 0.96,-0.24 0.64,0 1.36,0.28 0.76,0.28 1.04,0.52 0.4,0 3.72,-0.32 3.36,-0.32 5.52,-0.32 6.08,0 6.48,2.4400004 0.04,0.24 0.04,0.8 0,1.08 -0.28,2.52 -0.28,1.4 -0.72,3.16 -0.44,1.72 -0.6,2.48 -0.32,0.6 -0.52,1.92 -0.2,1.28 -0.68,2 -0.32,0.44 -1.72,0.84 -0.2,0.08 -0.36,0.16 -0.24,0.08 -0.72,-0.72 -0.44,-0.68 -0.68,-0.68 -0.16,0 -0.36,0.2 -0.12,0.12 -1.28,0.28 -1.12,0.16 -2.16,0.4 -1.04,0.2 -1.04,0.44 0,0.12 0.52,0.36 0.48,0.44 1.72,2.36 1.28,1.88 1.64,2.12 3.32,-2.6 4.24,-2.92 1.36,-0.96 2.84,-0.96 1.4,0 2.12,0.88 -0.44,1.2 -1.84,2.2 -1.36,0.96 -3.08,1.8 -1.72,0.84 -2.36,1.44 0.56,0.84 2.72,3.2 2.16,2.32 2.96,4.2 -0.4,0.84 -1.32,0.84 -1.6,0 -3.2,-1.6 -3.04,-1.8 -6.2,-5.76 -2.8,-3.52 -4.32,-7.36 -0.24,-0.6 -0.36,-0.6 -0.4,0 -0.4,4.08 0,1.24 0,2.84 0.04,1.56 0.08,2.68 0.04,1.08 0.04,1.2 0.12,0 1.16,-0.4 1.04,-0.44 1.48,-0.44 0.4,0 0.68,0.36 0.28,0.32 0.28,0.64 0,0.6 -0.64,1.32 -0.6,0.68 -1.12,1 -0.36,0.48 -1.88,1.32 -1.52,0.8 -2.8,0.8 -1.44,0 -2.12,-1.08 l -0.32,-0.52 0.4,-0.36 q 0.36,-0.32 0.36,-0.96 0,-0.48 -0.24,-1.56 -0.2,-1.12 -0.2,-1.52 v -0.28 l -0.76,0.68 q -0.68,0.6 -1.32,1.08 -0.64,0.48 -0.96,0.48 -1.56,0 -4.52,1.64 -2.9199998,1.6 -4.6399998,1.6 -0.8,0 -1.76,-0.24 -0.92,-0.28 -0.92,-0.84 0,-0.4 0.8,-0.8 0.84,-0.44 1.88,-0.88 1.08,-0.44 1.44,-0.8 h 0.04 q 0.88,0 0.88,-1 0,-1.12 -0.96,-3.04 -1.52,-0.2 -2.72,-0.92 -1.2,-0.72 -1.52,-1.76 -0.16,-0.56 -0.16,-0.76 0,-0.84 1,-0.84 0.8,0 1.92,0.56 1.12,0.56 1.4,1.04 -0.04,-0.08 -0.04,-0.6 v -0.8 q 0,-2.68 -0.72,-2.6 -0.08,0.04 -0.16,0.04 -1.2,-0.2 -2.84,-1.28 -0.24,-0.16 -0.24,-0.28 0,-0.2 1,-0.4 1,-0.24 2,-0.72 1,-0.48 1,-1.28 0,-0.28 -0.12,-0.6 l -0.04,-1.24 -0.56,-0.08 q -0.56,-0.24 -1.92,-0.6 -1.56,-0.4 -1.72,-0.48 -0.68,-0.44 -0.68,-1 z m 21.0399998,4.2 h 1 q 3.76,-0.48 7.72,-1.16 v -0.28 -0.56 q 0,-1.2 -0.8,-1.2 -0.4,0 -1.04,0.24 -0.92,0.16 -2.36,0.16 -1.88,0 -2.2,-0.24 -0.52,-0.08 -1.16,-0.72 -0.6,-0.64 -1,-0.72 -0.12,0.32 -0.12,4.04 z m 0.24,-6.56 q 0,1.84 0.12,1.84 0,-0.04 0.04,-0.12 0.08,-0.32 1.52,-0.52 1.44,-0.24 3.48,-0.32 2.08,-0.12 2.32,-0.16 l 0.6,-0.12 v -1 -0.24 q 0,-0.44 0.12,-1.4 0.12,-1 0.12,-1.32 v -0.2 q -4.32,0.16 -6.04,0.16 -2.24,0 -2.24,-0.16 -0.04,1.92 -0.04,3.56 z" />
  </g>
</svg>
