<svg xmlns="http://www.w3.org/2000/svg" width="52.157" height="52.157"><g opacity=".99"><path fill="#fee572" fill-opacity=".992" stroke="#000" stroke-width="1.044" d="m-11.54 7.386-13.14 4.634-6.169 42.276H7.767L1.598 12.02Z" style="fill:#3a3931;fill-opacity:.992157;stroke:#393831;stroke-opacity:.992157" transform="matrix(1.04053 0 0 .96762 38.088 -3.75)"/><path d="m26.338 7.346.346.26c.08.06.182.153.24.192 1.07.835 2.062 1.913 2.7 2.945.24.384.663 1.203.75 1.446.03.074.06.153.07.163.03.037.287.758.287.787 0 .043.04.03.06-.014.01-.024.02-.173.03-.346.03-.576-.095-1.415-.297-1.928-.02-.043-.01-.043.04-.03.173.055.538.25.787.403.336.22.75.624.964.96.202.307.442.797.576 1.222.06.182.115.336.125.346a1.23 1.23 0 0 0 .23-.096 4.783 4.783 0 0 1 1.706-.5c.144-.017.27-.026.27-.017a.9.9 0 0 1-.051.154c-.22.566-.336 1.361-.365 2.441-.05 1.792-.096 2.251-.336 3.146-.04.154-.278.71-.384.912-.06.106-.163.288-.24.403-.125.192-.153.25-.115.25.04 0 .346-.26.528-.451.422-.451.634-.855 1.103-2.091.211-.547.394-.931.614-1.246.154-.221.173-.23.404-.346.355-.173.864-.326.835-.25-.365.845-.49 1.668-.423 2.882.02.345.04.69.06.758.01.063.04.384.06.7.04.826-.003 1.553-.162 2.299a4.12 4.12 0 0 1-.461 1.124 2.904 2.904 0 0 1-.509.557c-.08.057-.144.106-.154.115-.03.037-.412.221-.556.269-.212.063-.442.115-.452.106a.614.614 0 0 1 .02-.173c.06-.307-.05-.74-.25-1.001-.182-.23-.431-.375-.834-.461-.288-.06-.672-.055-1.365.024-.692.074-.962.085-1.281.027a2.247 2.247 0 0 1-.912-.346c-.096-.063-.192-.105-.202-.09-.008.014-.008.037 0 .055.02.03.08.355.125.605.01.09.04.278.06.432.09.586.08.547.231.605.451.163.768.144 1.673-.074.797-.192.816-.202 1.151-.202l.317-.002.05.096c.04.09.05.106.02.173-.04.096-.144.154-.403.192-.115.017-.24.043-.298.057-.46.125-1.574.384-1.82.432-.173.03-.471.064-.673.075l-.364.017-.08.307c-.04.173-.091.307-.097.288a3.113 3.113 0 0 1-.05-.384c-.02-.202-.04-.432-.06-.509-.09-.528-.125-.72-.192-.99-.202-.769-.432-1.281-.893-1.982-.413-.624-1.007-1.313-2.044-2.383l-.374-.384-.374.384c-.672.691-1.29 1.378-1.625 1.8-.971 1.223-1.403 2.35-1.562 4.064-.03.345-.05.451-.07.374-.006-.023-.04-.163-.08-.317l-.07-.278-.365-.017c-.47-.023-.874-.096-1.912-.355-.567-.144-.663-.164-.893-.202-.317-.057-.451-.173-.375-.346.05-.115.096-.134.327-.134.259 0 .451.03 1.086.192.672.163.93.211 1.19.211.346.001.73-.115.758-.22.02-.125.07-.385.106-.663.05-.346.134-.806.163-.864.03-.072-.03-.057-.182.043-.279.183-.547.279-.912.346-.307.057-.643.046-1.317-.027-.327-.034-.701-.063-.845-.063-.365-.001-.749.077-.993.201-.125.063-.326.269-.403.394-.154.269-.24.672-.182.93.02.082.03.155.02.155-.02.015-.24-.035-.452-.106-.624-.192-1.185-.72-1.45-1.363-.03-.063-.06-.154-.07-.173-.25-.595-.384-1.739-.317-2.789.02-.307.04-.633.06-.73.06-.431.09-1.335.06-1.786-.06-.787-.163-1.241-.422-1.848-.03-.074.48.074.835.25.26.124.298.163.547.556.192.308.442.884.682 1.557.03.089.06.172.08.182a.44.44 0 0 1 .04.09c.03.115.202.451.327.663.163.278.307.46.528.69.172.174.46.404.49.385a.613.613 0 0 0-.116-.192 5.321 5.321 0 0 1-.691-1.534c-.192-.74-.25-1.346-.288-2.995-.03-1.004-.125-1.703-.327-2.312l-.09-.279c0-.009.538.064.71.096.442.086.826.212 1.292.452a.857.857 0 0 0 .201.089c.006-.007.06-.163.125-.346.144-.422.375-.912.576-1.22.221-.327.624-.73.965-.96.24-.164.614-.356.787-.404.06-.017.06-.014.04.03-.124.307-.24.816-.288 1.308-.04.423-.01 1.006.05 1.005.01 0 .07-.154.135-.327.125-.365.134-.384.374-.912.74-1.638 1.901-3.043 3.537-4.292.355-.278.586-.442.605-.442.01 0 .115.07.23.154zm11.729 14.649c.278.451.432.826.537 1.332.06.268.06 1.07.01 1.298-.096.432-.124.51-.182.701-.08.25-.422.95-.49 1.018-.007.007-.06.085-.115.163-.22.346-.71.874-1.113 1.202-.09.074-.172.154-.172.154 0 .063.518-.164.825-.365.221-.144.643-.51.778-.663l.07-.074.02.202c.01.105.02.413.01.672-.01.566-.04.69-.336 1.713-.23.778-.298 1.045-.25 1.045.09 0 .759-.595.941-.845.06-.074.115-.154.135-.173.02-.023.06-.085.09-.134.03-.046.07-.09.09-.09.04.005.115.337.144.673.06.537-.06 1.157-.345 1.719a6.733 6.733 0 0 1-.49.777c-.04.058-.08.106-.08.125 0 .014.09.04.192.057.46.082.749.173 1.078.356.288.163.758.547.72.585-.01.01-.135.03-.279.046-.93.106-1.852.576-2.779 1.399-.499.442-.921.854-.912.883.005.015.09.057.183.09.681.23 1.236.69 1.643 1.337l.05.074-.105-.017c-.442-.07-.73-.081-1.123-.03-.624.072-1.102.211-1.746.509-.153.072-.278.144-.278.163 0 .017.04.063.096.096.278.182.633.614.835.998.125.24.23.519.211.538-.007.007-.04 0-.07-.017a2.557 2.557 0 0 0-.22-.09c-.807-.259-1.461-.297-2.396-.134-.384.07-1.347.317-1.391.355-.02.024.01.064.211.221a4.58 4.58 0 0 0 1.527.797l.153.043-.144.09c-.595.384-1.297.557-1.944.49-.509-.055-.883-.144-1.494-.365-.153-.057-.547-.22-.748-.307-.09-.04-.221-.096-.288-.134-.07-.03-.144-.058-.154-.047-.01.005.02.096.07.192.173.346.442.71.74 1.02.201.212.278.308.259.318-.02.012-.24.02-.49.02-.394 0-.49-.008-.7-.06a4.223 4.223 0 0 1-.769-.287 9.69 9.69 0 0 1-.614-.404c-.04-.03-.07-.043-.08-.034-.01.012-.08.115-.164.23a5.17 5.17 0 0 1-.985 1.083l-.172.144-.26-.23a5.104 5.104 0 0 1-.892-.997c-.08-.115-.154-.221-.164-.23-.01-.013-.09.033-.172.095a3.733 3.733 0 0 1-1.29.634c-.201.051-.307.06-.71.06-.26 0-.48-.01-.49-.019-.01-.01.106-.144.25-.288.25-.26.48-.538.624-.768.125-.202.24-.46.22-.47a.64.64 0 0 0-.153.046c-.07.03-.201.096-.297.134-.826.375-1.49.586-2.137.663-.317.037-.413.039-.644.012a3.157 3.157 0 0 1-1.401-.49l-.144-.09.153-.043a4.6 4.6 0 0 0 1.523-.797c.211-.163.24-.211.22-.23a7.332 7.332 0 0 0-.662-.192c-.05-.012-.172-.04-.268-.064-.605-.153-1.331-.22-1.802-.172-.48.046-1.063.182-1.278.297-.03.017-.06.024-.07.016-.02-.017.105-.345.201-.537.183-.346.538-.778.816-.985.06-.043.125-.096.125-.116 0-.03-.02-.043-.365-.201-.643-.288-1.19-.442-1.887-.5-.183-.014-.547.01-.883.058l-.116.017.05-.074c.413-.663.95-1.094 1.643-1.338a.512.512 0 0 0 .183-.089c.005-.015-.116-.154-.27-.288-.987-.95-1.655-1.432-2.39-1.726a4.018 4.018 0 0 0-.644-.202c-.06-.016-.23-.039-.374-.06-.154-.017-.279-.039-.288-.055-.02-.019.096-.134.393-.365a3.495 3.495 0 0 1 .999-.491c.03-.012.173-.04.326-.07.154-.026.269-.06.269-.074a.34.34 0 0 0-.08-.125 5.224 5.224 0 0 1-.634-1.12c-.125-.337-.23-.826-.22-1.12.001-.221.105-.816.153-.922.01-.027.03-.023.06.027.317.451.614.778.95 1.031.23.173.27.192.27.135 0-.03-.231-1.002-.298-1.227a19.73 19.73 0 0 1-.192-.903c-.06-.316-.116-1.43-.07-1.43.004 0 .105.095.23.22s.317.288.441.374c.317.23.983.547.978.461-.001-.013-.08-.09-.173-.154-.23-.172-.691-.643-.903-.912-.432-.547-.768-1.226-.912-1.83-.096-.394-.105-.538-.105-.964.002-.605.08-.978.326-1.5.125-.278.355-.672.384-.672.02 0 .02.004.09.384.164.941.529 1.872.96 2.41.433.547.951.893 1.597 1.09.557.163.903.201 2.263.23 1.161.027 1.22.03 1.647.096.615.096 1.013.317 1.19.653.06.125.08.192.096.49.03.45.06.7.134.963a3.272 3.272 0 0 0 1.039 1.7c.09.086.182.164.201.173.02.017.135.096.26.173.595.374 1.2.566 2 .643.749.072 1.647-.096 2.323-.422.874-.423 1.498-1.112 1.798-1.967.135-.375.173-.595.24-1.432.04-.48.557-.835 1.435-1 .23-.044.49-.058 1.459-.075 1.415-.03 1.79-.072 2.383-.26.69-.22 1.311-.72 1.717-1.37.336-.537.614-1.32.749-2.1.06-.385.07-.385.09-.385.01 0 .07.086.135.183zm-.432 3.04a3.36 3.36 0 0 1-.595.777c-.404.403-.922.7-1.54.883-.08.024-.182.057-.23.063a9.95 9.95 0 0 1-.643.135c-.163.03-.682.096-.964.125-1.07.105-1.564.22-1.992.422-.259.125-.537.374-.653.586-.08.153-.201.48-.22.624-.05.316-.26.816-.452 1.106-.115.164-.115.192-.05.192.03 0 .183.013.327.027.965.096 1.613.528 1.975 1.319.08.182.192.518.192.604 0 .03.02.057.04.057.03 0 .04-.063.07-.22.02-.125.04-.327.06-.452l.03-.22.081.172c.365.768.566 1.388.682 2.14.04.221.06.48.06.768.007.49-.004.461.22.528.596.183 1.305.144 1.955-.115.25-.096.586-.288.73-.422.23-.211.95-.71 1.167-.816.211-.106-.105-.09-.653.03-.974.22-1.015.22-1.445.22-.327.002-.461-.009-.624-.055-.116-.027-.212-.06-.212-.072 0-.01.08-.026.183-.034 1.08-.105 2.135-.893 2.79-2.086a.679.679 0 0 0 .09-.22c-.009-.01-.211.115-.451.278-.74.509-.931.614-1.443.854-.144.063-.49.154-.74.183-.287.034-.71.034-.729 0-.009-.014-.004-.026.01-.026.03 0 .47-.212.663-.317.528-.298.97-.759 1.217-1.247.192-.384.22-.48.557-1.54.124-.393.23-.71.268-.786.06-.106.01-.173-.06-.09-.05.058-.365.26-.566.365-.24.125-.663.25-.985.307-.24.04-.442.044-1.443.04-1.168-.006-1.499.014-1.867.105-.06.017-.125.023-.135.015-.03-.026.442-.48.634-.614.326-.23.883-.519 1.847-.962 1.524-.7 2.29-1.288 2.696-2.073.105-.201.25-.605.25-.7 0-.075-.04-.038-.116.095zm-23.06.201c.412 1.077 1.028 1.706 2.224 2.28.153.075.297.135.307.135.01 0 .05.012.07.026.03.016.288.125.595.25.941.374 1.437.643 1.781.981.183.173.355.384.317.384-.01 0-.115-.02-.23-.043-.221-.046-.72-.057-2.236-.034-.874.013-1.019-.002-1.47-.154-.355-.115-.806-.365-1.025-.576-.09-.089-.144-.069-.09.034.05.106.163.423.364 1.035.22.672.327.941.46 1.21.356.702.855 1.175 1.639 1.55.124.057.23.106.25.106.02 0 .02.012.01.027-.02.034-.452.034-.73-.001a3.27 3.27 0 0 1-.74-.183c-.403-.163-.835-.422-1.512-.893-.202-.134-.375-.25-.384-.23-.02.014.115.278.259.5.365.566.94 1.122 1.456 1.415.346.192.797.346 1.15.384a.68.68 0 0 1 .191.034c0 .01-.09.04-.211.072-.163.04-.298.056-.624.056-.422-.002-.518-.015-1.392-.221-.096-.023-.298-.057-.451-.085-.288-.043-.384-.027-.25.043.25.125 1.089.72 1.212.854.09.096.518.336.787.423.643.22 1.474.23 1.978.019l.096-.04v-.364c0-.95.25-2.003.691-2.897l.125-.25.03.222c.02.115.05.316.06.45.02.164.04.231.07.231.02 0 .04-.026.04-.057 0-.09.106-.422.192-.605.221-.48.557-.835 1.004-1.059.298-.153.567-.22 1.023-.269.192-.019.326-.043.326-.06a.822.822 0 0 0-.08-.153 3.454 3.454 0 0 1-.432-.99c-.26-.968-.787-1.485-1.71-1.671-.288-.058-.605-.096-1.272-.144-.749-.056-1.085-.096-1.533-.202-.96-.22-1.75-.806-2.323-1.697-.134-.221-.154-.144-.03.163zm15.53 5.722c-.173.015-.23.03-.461.153-.173.09-.384.298-.48.509-.096.202-.183.451-.144.48.01.014.153.046.307.077 1.341.279 1.396.346 2.43.96.164.096.308.192.337.192.03.014.04-.019.06-.201.02-.23-.02-.692-.07-.884-.211-.806-.691-1.231-1.46-1.3a2.11 2.11 0 0 0-.279-.012c-.04.004-.144.014-.23.02zM21.262 31c-.566.172-.931.556-1.1 1.155-.05.192-.106.72-.096.892.004.043.009.135.01.192l.004.116.115-.064c1.726-.94 1.587-.844 3.003-1.196.02-.015.005-.09-.02-.173-.153-.48-.413-.777-.806-.912-.24-.089-.845-.09-1.105-.01zm4.58 1.938a.865.865 0 0 0-.452.25c-.163.163-.201.268-.23.652-.01.183-.04.432-.05.548-.03.22-.144.69-.183.758-.01.023-.03-.106-.04-.307-.04-.864-.355-1.363-.96-1.555-.183-.058-.788-.064-1.053-.012-.71.144-1.24.346-1.802.72-.26.173-.835.605-1.05.778-.287.25-.738.586-1.003.758-.48.308-.893.5-1.379.605-.08.02-.24.064-.346.096-.115.03-.268.086-.355.106-.134.037-.518.153-.653.192-.08.023.02.063.336.153 1.092.279 1.077.279 1.525.365.298.057.893.125 1.15.125.529 0 1.475-.182 1.895-.365.336-.153-.115.221-.595.48-.096.055-.26.135-.375.183-.115.043-.23.096-.25.105-.03.014-.258.106-.508.202-.605.23-.624.24-.99.422-.385.192-.404.23-.154.25.681.027 1.621.25 2.985.681.212.064.423.135.49.154.06.017.115.04.115.055 0 .011-.04.06-.096.106-.06.046-.24.22-.413.374-.172.154-.364.336-.432.394a2.65 2.65 0 0 0-.153.134c-.02.017-.06.057-.106.09-.115.09-.06.105.202.055a8.388 8.388 0 0 0 1.52-.528c.09-.04.22-.096.297-.135.211-.096.442-.201.691-.317.125-.06.336-.163.47-.22.125-.06.308-.144.394-.183.09-.039.24-.115.336-.163.202-.096.26-.106.221-.034-.01.026-.08.153-.134.278-.06.135-.154.327-.202.432-.05.106-.115.25-.154.317-.03.074-.096.211-.144.307-.04.096-.115.26-.163.355-.04.096-.08.192-.07.212.01.043.278-.154.778-.586.124-.106.24-.192.259-.192.01 0 .125.173.25.394.287.528.767 1.184.854 1.184.09 0 .566-.652.854-1.184.125-.221.23-.394.25-.394.02 0 .125.077.23.173.288.25.74.605.778.605.05 0 .04-.03-.202-.567-.105-.22-.384-.845-.49-1.07a4.689 4.689 0 0 0-.115-.25.402.402 0 0 1-.03-.089c.004-.004.096.034.211.09.106.054.27.124.365.172.26.125.595.278.874.413.144.063.317.153.384.182.07.03.23.096.336.154.749.345 1.354.566 1.961.691.06.011.09-.034.05-.063-.07-.043-.499-.432-.873-.787-.106-.096-.23-.212-.279-.25-.05-.037-.09-.085-.09-.096 0-.011.05-.034.115-.055.221-.063.807-.25.864-.279.08-.034.874-.259 1.178-.336.423-.105 1.159-.22 1.37-.22.192 0 .279-.016.279-.058 0-.012-.164-.105-.365-.21-.403-.202-.384-.193-.845-.366-1.07-.412-1.536-.643-1.91-.96-.135-.115-.125-.124.124-.03a6.021 6.021 0 0 0 1.843.336c.326 0 .967-.074 1.351-.163.163-.034.922-.22 1.232-.297.144-.034.288-.075.326-.086.08-.019.106-.096.03-.096-.02 0-.134-.03-.25-.063-.114-.034-.278-.09-.364-.105-.09-.026-.23-.07-.317-.096-.09-.027-.288-.086-.441-.125-.336-.09-.74-.25-1.002-.394-.374-.211-.604-.374-1.421-1.032-1.149-.921-1.755-1.231-2.758-1.426-.25-.047-.845-.043-1.018 0-.23.064-.432.183-.586.346-.259.279-.384.644-.412 1.217-.02.393-.04.393-.144-.024-.08-.308-.106-.5-.135-.95-.02-.327-.03-.385-.096-.51-.192-.345-.672-.528-1.105-.412zm2.74-5.39c.211.116.279.298.23.624-.05.365-.22.692-.441.893-.307.27-.682.288-.826.057-.08-.124-.04-.288.096-.441.116-.125.336-.5.413-.682.04-.105.09-.24.115-.288.07-.153.288-.23.423-.163zm-4.654.021c.096.06.115.09.202.317.03.096.09.23.134.317.07.144.307.48.355.509.03.023.106.211.106.269 0 .03-.02.09-.04.134-.183.307-.692.173-1.01-.26-.2-.278-.335-.815-.258-1.042.08-.25.326-.364.528-.25z" style="fill:#ef5b5b;fill-opacity:.984314;stroke-width:.0267751" transform="rotate(-180 26.079 26.078)"/></g></svg>