<svg xmlns="http://www.w3.org/2000/svg" width="52.157" height="52.157"><path fill="#fee572" stroke="#000" stroke-width=".878" d="M26.08 5.256 14.845 8.985l-5.882 37.94h34.229L37.31 8.985Z" opacity=".99" style="fill:#e2d9ba;fill-opacity:1;stroke:#38362e;stroke-opacity:.972549"/><path d="M32.583 42.304a181.933 181.933 0 0 0-1.046-2.75c-.021-.037-2.834-.475-3.049-.475-.072 0-.322.07-.553.148-.677.24-.83.253-1.908.253-1.075 0-1.3-.033-1.933-.276-.175-.069-.388-.124-.475-.124-.179 0-2.593.364-2.963.446l-.11.025-.729 1.932c-.4 1.062-.738 1.932-.749 1.932-.034 0-.072-.672-.065-1.233.012-1.517.42-3.356.903-4.065.234-.34.638-.618 1.212-.827.14-.05.264-.106.274-.12.03-.035-.281-.486-.315-.464-.014.011-.439.083-.944.156-.506.073-.937.148-.958.152-.078.031-.312.592-.939 2.25-.15.397-.332.868-.406 1.042-.123.295-.134.309-.154.217-.034-.166-.032-1.06.004-1.701.048-.876.22-1.73.5-2.506.308-.854.718-1.185 1.872-1.51.268-.072.336-.106.333-.165l-.008-.217c-.008-.216-.096-.304-.373-.391-.711-.216-1.681-.744-2.199-1.204-.467-.42-.864-.99-1.049-1.518-.106-.299-.24-1.032-.376-2.062-.234-1.749-.285-2.094-.316-2.148a.236.236 0 0 0-.12-.083c-.148-.045-.77-.485-1.05-.736-.31-.276-.844-.97-1.053-1.37-.37-.71-.513-1.668-.39-2.62.158-1.226.707-2.58 1.632-4.038.54-.851 1.83-2.506 1.89-2.425.008.01-.002 1.146-.023 2.52-.02 1.376-.031 3.057-.025 3.735l.01 1.233.552-1.041c.305-.573.709-1.339.9-1.7.552-1.045.848-1.574.878-1.574.048 0 .552.705.737 1.03.199.345.393.85.492 1.266.291 1.235.096 2.764-.511 3.975-.316.633-.92 1.306-1.418 1.584-.288.166-.698.309-.857.309-.264 0-.261-.019-.107 1.214.155 1.241.264 1.921.35 2.145.24.64.933 1.219 1.957 1.634.56.225.506.258.771-.451.278-.743.417-.996.881-1.596.63-.813 1.13-1.248 1.895-1.648.171-.093.308-.176.308-.198 0-.08-1.11-3.012-1.14-3.012a.932.932 0 0 1-.205-.093c-.22-.114-.527-.48-.644-.78-.075-.193-.086-.258-.086-.641 0-.391.009-.451.1-.702.161-.45.369-.68.755-.83.835-.327 1.663.862 1.38 1.978l-.069.277.629 1.69.628 1.69h1.872l.636-1.662.637-1.662-.062-.258a2.347 2.347 0 0 1 .006-1.101c.14-.503.554-.933.952-.993.36-.055.802.193 1.036.572.178.294.243.589.223 1.065-.025.7-.278 1.133-.818 1.404l-.175.083-.553 1.487c-.306.817-.547 1.494-.539 1.503.008.01.151.094.316.176a6.467 6.467 0 0 1 1.788 1.453c.443.52.879 1.34 1.095 2.058.058.193.123.355.147.369.062.03.758-.244 1.153-.452.824-.442 1.288-.95 1.42-1.566.152-.699.447-2.946.407-3.086-.015-.05-.062-.069-.175-.069-.323 0-1.028-.327-1.387-.639-.216-.193-.798-.968-.96-1.287-.234-.456-.456-1.197-.558-1.86-.192-1.246.027-2.438.644-3.482.192-.327.614-.897.662-.897.034 0 .43.726 1.415 2.604.487.927.9 1.674.916 1.66.031-.027.02-1.956-.03-5.854l-.021-1.61.07.05c.255.18 1.552 1.917 2.022 2.703.978 1.636 1.5 3.18 1.497 4.438a4.762 4.762 0 0 1-.52 2.064c-.195.368-.652.942-.975 1.227-.309.271-1.015.753-1.107.753-.034 0-.072.042-.09.1-.016.055-.11.712-.206 1.457-.28 2.162-.362 2.547-.651 3.118-.49.968-1.5 1.749-2.943 2.275-.227.083-.42.176-.454.226-.078.1-.11.4-.052.463.024.026.213.095.424.156 1.2.354 1.561.743 1.926 2.065.154.568.267 1.218.305 1.765.038.58.041 1.88.004 1.912-.038.03-.137-.207-.747-1.805-.52-1.36-.647-1.666-.72-1.729-.023-.02-.469-.106-.992-.193l-.95-.156-.165.221c-.092.12-.154.23-.144.249.013.017.144.072.292.124.343.12.789.377 1 .572.658.609 1.209 3.148 1.087 5.016-.02.304-.04.56-.043.569-.006.009-.206-.508-.444-1.148z" style="fill:#c80e0e;fill-opacity:.99215686;stroke-width:.0367039"/></svg>