<svg xmlns="http://www.w3.org/2000/svg" width="52.157" height="52.157"><path fill="#fee572" fill-opacity=".992" stroke="#000" stroke-width="1.048" d="M26.079 3.396 12.406 7.88 5.988 48.787h40.181L39.75 7.88z" opacity=".98" style="fill:#e2d9ba;fill-opacity:1;stroke:#393830;stroke-opacity:.992157"/><path d="M30.248 8.192c-.186.022-.36.714-.685 2.687a29.973 29.973 0 0 1-.199 1.107c-.084.244-.189-.27-.47-2.21-.157-1.098-.223-1.269-.426-1.066-.126.123-.084 1.174.085 2.516.222 1.745.261 2.57.13 3.181-.27 1.294-1.072 2.578-2.165 3.457-.552.446-.58.45-1.273.122-.517-.244-1.075-.766-1.5-1.404-.378-.57-.635-1.129-1.079-2.348-.165-.452-.324-.848-.353-.881-.032-.036-.095-.025-.157.039-.21.21-.084 1.149.292 2.126.21.553.6 1.278.972 1.814 1.286 1.85 1.493 2.233 1.492 2.738-.001.316-.313.843-.628 1.067-.14.101-.253.202-.253.232-.001.03.16.22.358.427v-.004c.358.375.436.431.475.316a8.646 8.646 0 0 1 .498-.554c1.772-1.834 2.914-3.547 3.812-5.719.597-1.441.718-2.073 1.089-5.652.164-1.591.164-1.992-.005-1.992h-.008zm1.157 2.297h-.002v.002c-.063.01-.105.354-.105 1.032-.004 2.947-.642 4.968-2.242 7.091-.904 1.2-2.363 2.6-3.553 3.408-.592.404-.58.328-.123.827h.001c.106.115.22.207.258.207.042 0 .181-.073.32-.168 1.671-1.124 4.605-4.476 5.848-6.681.408-.724.602-.881 1.663-1.345.396-.174.801-.4.962-.545.304-.265.705-.99.642-1.154-.074-.198-.279-.097-.568.278-.49.63-1.17 1.036-1.881 1.12-.262.029-.308.016-.422-.13-.186-.236-.308-.829-.495-2.334-.085-.724-.19-1.392-.223-1.485-.032-.08-.063-.123-.084-.123zm-11.316 8.72h-.005v.002h-.001c-.173.026-.203.237-.064.499.165.316 1.211 1.365 1.737 1.74v.002c.485.341.604.4.552.261-.01-.041-.073-.223-.13-.396-.064-.194-.14-.316-.258-.413-.021-.018-.042-.036-.063-.05-.123-.086-.539-.492-.926-.905-.513-.548-.728-.74-.83-.735zm-2.995 1.317-.02.001c-.161.004-.258.026-.258.073 0 .041.02.088.042.127.084.1.253.189.521.265.19.054.661.19 1.044.295 1.266.358 2.513.95 3.438 1.636.611.456.607.443.489.848-.279.954-1.355 2.133-4.376 4.788-1.576 1.385-3.201 2.992-3.52 3.482a2.71 2.71 0 0 0-.304.641c-.064.257-.064.32.063.564.189.375.478.67.743.774a.442.442 0 0 1 .032-.014l2.14-1.07a.441.441 0 0 1 .577.164.44.44 0 0 1-.165.577l-1.751.875c.152.054.332.076.574.076.493 0 1.839-.087 2.875-.249 2.102-.328 3.616-.514 4.219-.422.472.073.533.168.577.965.223 3.945 2.833 7.586 7.38 10.307l.001-.008c.366.22.686.4.713.4.135.008 2.942-1.944 3.812-3.673 1.455-2.889 1.903-5.07 1.83-7.756-.01-.409-.236-1.197-.236-1.197l-.671-.04C34.167 32.8 32.6 31.58 30.6 28.075c-.506-.888-1.271-2.042-1.484-2.24-.22-.207-.206-.27.095-.405.669-.308 1.617-1.25 2.306-2.287.55-.831 1.107-2.024 1.107-2.374 0-.092-.042-.123-.181-.123-.216 0-1.195.47-2.28 1.097-1.845 1.067-3.083 1.693-3.814 1.933-.198.063-.266.06-.443-.032-.359-.181-.991-.726-2.2-1.898-.855-.827-1.175-1.1-1.191-1.02-.01.063.074.417.198.79.123.375.324 1.019.454 1.436.421 1.353.98 2.37 1.798 3.268.211.232.384.44.384.462l-.002.004c-.021.014-.156-.046-.324-.14-.571-.311-1.223-1.09-1.683-2.012-.198-.396-.838-2.062-.838-2.175 0-.029-.063-.08-.152-.102-.084-.022-.487-.232-.894-.471-.784-.459-1.497-.72-2.84-1.044-.582-.14-1.193-.223-1.534-.215zm5.338 6.655h.032c.383-.002.82.173 1.399.604-1.537 1.318-1.975 2.372-3.752 1.008 1.014-.847 1.558-1.591 2.325-1.613z" style="fill:#c80e0e;fill-opacity:.99215686;stroke-width:.0632402"/></svg>