<svg xmlns="http://www.w3.org/2000/svg" width="52.157" height="52.157"><path fill="#fee572" stroke="#000" d="m-11.427 7.439-12.666 4.1-6.756 42.757H7.992L1.245 11.592Z" opacity=".99" style="fill:#38362e;fill-opacity:.972549;stroke:#38362e;stroke-opacity:.972549" transform="matrix(-.95786 0 0 -.9052 15.132 54.008)"/><path d="M19.134 40.681a3.94 3.94 0 0 0 .884-.072v-.062h.06c2.339-.662 4.1-2.68 4.818-5.333 0 0 .03-.084.03-.134.212-1.062.404-2.498.586-3.926a48.478 48.478 0 0 0 2.176 3.441l.07.144.143.07c.624.422 1.382.585 2.18.633h.139c2.099-.22 4.05-.355 6.045-.633l.567-.07.144-.49c3.205-10.393 2.879-18.867 3.867-24.395l.144-.778-.701-.21c-1.7-.471-3.533.364-5.133 1.615-1.6 1.246-2.975 3.024-3.374 4.92h-.069v.073c-.01.182-.031.326-.04.499-7.111-2.159-13.106-1.683-19.057.422-.06.023-.144-.023-.21 0l-.404.144v.183c.06.016.134.03.173.043.163.033.269.07.278.072 5.986 1.473 11.861 1.733 18.63-.423a1.684 1.684 0 0 1 .557-.07c-.03.393-.07.786-.115 1.178-.05.006-.182.023-.182.021-6.981 2.224-13.071 1.93-19.193.422l-.077-.02c.07.623.183 1.175.365 1.713.05-.001.106-.009.144-.004.183.017.317.083.49.144 4.482 1.443 8.329 2.935 17.857.777.04-.01.154-.043.298-.064-.041.403-.106.806-.154 1.2-9.437 2.133-13.715.644-18.042-.748.192.326.393.643.643.987a7.756 7.756 0 0 0 1.77 1.633c.662.46 1.095.921 2.629 1.835l.144.07.144.069c1.082.015 2.666.182 4.153.24.22.002.45 0 .672 0 .259.001.518.005.787 0 .173-.002.336-.01.509-.015a78.726 78.726 0 0 0 1.649-.05c.24-.077.5-.164.787-.23.624-.174 1.148-.394 1.671-.596.99 2.2 1.488 3.618 2.819 5.85l.01.022v-.003c.07.134.135.22.212.355l.07.07v.069c.671.835 1.432 1.538 2.194 2.2-1.2.125-2.436.202-3.74.326-.528-.026-.836-.124-1.125-.278a55.5 55.5 0 0 1-2.17-3.46l1.186-.055-.07-2.249-2.066.106c.06-.557.06-.624.115-.996-.201.024-.384.04-.576.057h-.002a21.862 21.862 0 0 1-1.747.094c-1.54.026-3.188-.106-5.472-.365l-.202 1.564-2.131.105.144 2.25 1.701-.084-.73 5.736v.062c-.22 1.386-.22 2.566.25 3.405.25.423.605.74 1.092.903.24.076.508.134.777.144zm16.533-8.238c-.135-.05-.346-.134-.576-.23-.72-.624-1.429-1.286-2.038-2.037a24.235 24.235 0 0 1-1.116-2.02c.883-4.272 1.125-8.176 1.467-12.393.269-1.302 1.39-2.885 2.74-3.938.797-.624 1.553-.883 2.232-.983.22-.036.441-.06.643-.072-.835 5.504-.826 12.72-3.354 21.676zm-5.012-7.474-.624-1.422c.336-.326.652-.662.97-1.083-.115.835-.211 1.666-.345 2.504z" style="color:#000;font-style:normal;font-variant:normal;font-weight:400;font-stretch:normal;font-size:medium;line-height:normal;font-family:sans-serif;font-variant-ligatures:normal;font-variant-position:normal;font-variant-caps:normal;font-variant-numeric:normal;font-variant-alternates:normal;font-variant-east-asian:normal;font-feature-settings:normal;font-variation-settings:normal;text-indent:0;text-align:start;text-decoration:none;text-decoration-line:none;text-decoration-style:solid;text-decoration-color:#000;letter-spacing:normal;word-spacing:normal;text-transform:none;writing-mode:lr-tb;direction:ltr;text-orientation:mixed;dominant-baseline:auto;baseline-shift:baseline;text-anchor:start;white-space:normal;shape-padding:0;shape-margin:0;inline-size:0;clip-rule:nonzero;display:inline;overflow:visible;visibility:visible;opacity:.99;isolation:auto;mix-blend-mode:normal;color-interpolation:sRGB;color-interpolation-filters:linearRGB;solid-color:#000;solid-opacity:1;fill:#ec5a5a;fill-opacity:1;fill-rule:nonzero;stroke:none;stroke-width:2.24244;stroke-linecap:butt;stroke-linejoin:miter;stroke-miterlimit:4;stroke-dasharray:none;stroke-dashoffset:0;stroke-opacity:1;color-rendering:auto;image-rendering:auto;shape-rendering:auto;text-rendering:auto;enable-background:accumulate;stop-color:#000"/></svg>