<svg xmlns="http://www.w3.org/2000/svg" width="52.157" height="52.157"><path fill="#fee572" fill-opacity=".992" stroke="#000" stroke-width="1.048" d="m26.078 48.76 13.673-4.484 6.418-40.907H5.988l6.419 40.907z" opacity=".98" style="fill:#e2d9ba;fill-opacity:1;stroke:#393830;stroke-opacity:.992157"/><path d="M18.703 39.99c.278.011.576-.013.893-.072v-.063h.06c2.344-.663 4.106-2.684 4.825-5.34 0 0 .03-.086.03-.126.211-1.063.413-2.501.585-3.932a48.054 48.054 0 0 0 2.179 3.447l.07.144.144.07c.624.413 1.383.595 2.182.634h.14c2.103-.221 4.058-.356 6.055-.634l.566-.07.144-.49c3.21-10.409 2.883-18.895 3.873-24.432l.144-.778-.7-.21c-1.702-.48-3.54.374-5.14 1.619-1.602 1.247-2.98 3.03-3.38 4.928h-.07v.073c-.01.172-.03.326-.04.499-7.12-2.162-13.125-1.686-19.085.422-.06.023-.144-.023-.201 0l-.413.135v.163c.06.016.125.03.173.043.153.034.278.07.278.072 5.995 1.477 11.88 1.737 18.659-.422a1.584 1.584 0 0 1 .547-.072c-.03.394-.07.787-.106 1.18-.05.006-.182.023-.173.02-6.991 2.229-13.09 1.935-19.221.423l-.08-.021c.07.614.182 1.179.364 1.716.05-.002.096-.009.144-.005.173.017.307.082.49.144 4.49 1.447 8.341 2.942 17.884.778.04-.01.144-.043.297-.065-.04.403-.096.806-.144 1.202-9.45 2.136-13.735.653-18.07-.748.193.316.395.643.654.988a7.794 7.794 0 0 0 1.77 1.634c.673.461 1.1.932 2.634 1.839l.135.069.134.07c1.084.014 2.67.182 4.16.249.22.002.45-.001.681 0 .26 0 .519.005.787 0 .164-.002.336-.01.51-.016a69.398 69.398 0 0 0 1.651-.05c.25-.078.5-.154.788-.231.624-.183 1.149-.403 1.674-.595.99 2.202 1.49 3.624 2.822 5.858l.01.023v-.004c.071.125.135.23.212.355l.07.07v.07c.682.836 1.434 1.542 2.198 2.205-1.201.115-2.44.201-3.746.326-.518-.027-.826-.115-1.126-.278a55.33 55.33 0 0 1-2.172-3.466l1.186-.055-.07-2.253-2.069.096c.06-.557.06-.634.106-.997-.192.024-.394.042-.586.059h-.002a23.012 23.012 0 0 1-1.738.094c-1.542.026-3.193-.096-5.48-.355l-.202 1.565-2.134.096.144 2.254 1.704-.082-.73 5.744v.063c-.23 1.388-.23 2.571.26 3.411.25.432.604.74 1.093.902.24.08.5.125.778.135zM35.26 31.74a42.409 42.409 0 0 1-.586-.23c-.73-.624-1.43-1.289-2.042-2.042a28.218 28.218 0 0 1-1.117-2.022c.883-4.279 1.126-8.189 1.469-12.412.278-1.303 1.392-2.888 2.745-3.943a4.736 4.736 0 0 1 2.233-.984c.23-.037.442-.06.653-.072-.835 5.513-.826 12.74-3.359 21.709zm-5.019-7.486-.625-1.424c.336-.317.663-.672.972-1.085-.106.836-.221 1.669-.346 2.509z" style="color:#000;font-style:normal;font-variant:normal;font-weight:400;font-stretch:normal;font-size:medium;line-height:normal;font-family:sans-serif;font-variant-ligatures:normal;font-variant-position:normal;font-variant-caps:normal;font-variant-numeric:normal;font-variant-alternates:normal;font-variant-east-asian:normal;font-feature-settings:normal;font-variation-settings:normal;text-indent:0;text-align:start;text-decoration:none;text-decoration-line:none;text-decoration-style:solid;text-decoration-color:#000;letter-spacing:normal;word-spacing:normal;text-transform:none;writing-mode:lr-tb;direction:ltr;text-orientation:mixed;dominant-baseline:auto;baseline-shift:baseline;text-anchor:start;white-space:normal;shape-padding:0;shape-margin:0;inline-size:0;clip-rule:nonzero;display:inline;overflow:visible;visibility:visible;opacity:.99;isolation:auto;mix-blend-mode:normal;color-interpolation:sRGB;color-interpolation-filters:linearRGB;solid-color:#000;solid-opacity:1;fill:#38372f;fill-opacity:.980392;fill-rule:nonzero;stroke:none;stroke-width:2.24581;stroke-linecap:butt;stroke-linejoin:miter;stroke-miterlimit:4;stroke-dasharray:none;stroke-dashoffset:0;stroke-opacity:1;color-rendering:auto;image-rendering:auto;shape-rendering:auto;text-rendering:auto;enable-background:accumulate;stop-color:#000"/></svg>