<svg xmlns="http://www.w3.org/2000/svg" width="52.157" height="52.157"><g opacity=".99"><path fill="#fee572" fill-opacity=".992" stroke="#000" stroke-width="1.044" d="m-11.54 7.386-13.14 4.634-6.169 42.276H7.767L1.598 12.02Z" style="fill:#3a3931;fill-opacity:.992157;stroke:#393831;stroke-opacity:.992157" transform="matrix(-1.04053 0 0 -.96762 14.07 55.905)"/><path d="m25.82 44.81-.346-.26c-.08-.06-.183-.153-.24-.192-1.07-.835-2.062-1.913-2.7-2.945-.24-.384-.663-1.203-.75-1.446-.03-.074-.06-.153-.07-.163a9.24 9.24 0 0 1-.288-.787c0-.043-.04-.03-.06.014-.009.024-.02.173-.03.345-.03.576.096 1.415.298 1.929.02.043.01.043-.04.03-.173-.055-.538-.25-.788-.403a3.725 3.725 0 0 1-.964-.96 5.485 5.485 0 0 1-.576-1.222 3.483 3.483 0 0 0-.124-.346 1.23 1.23 0 0 0-.23.096 4.783 4.783 0 0 1-1.707.5c-.144.016-.269.025-.269.016a.9.9 0 0 1 .05-.153c.221-.567.337-1.362.365-2.442.05-1.79.096-2.25.336-3.145.04-.154.279-.71.384-.912.06-.106.164-.288.24-.404.125-.192.154-.25.116-.25-.04 0-.346.26-.528.452-.423.451-.634.854-1.103 2.09-.212.548-.394.932-.615 1.247-.153.22-.173.23-.403.346-.355.172-.864.326-.835.25.365-.846.49-1.668.422-2.882-.02-.345-.04-.691-.06-.758a13.09 13.09 0 0 1-.06-.701c-.04-.826.004-1.552.163-2.298a4.12 4.12 0 0 1 .46-1.124c.135-.202.366-.442.51-.557.08-.057.144-.106.153-.115.03-.038.413-.221.557-.27.211-.062.442-.114.451-.105a.614.614 0 0 1-.02.173c-.06.307.05.74.25 1.001.182.23.432.375.835.461.288.06.672.055 1.365-.024.691-.074.962-.085 1.28-.027.404.072.596.153.913.345.096.064.192.106.201.09.009-.013.009-.036 0-.054-.02-.03-.08-.356-.125-.605-.01-.09-.04-.279-.06-.432-.09-.586-.08-.547-.23-.605-.452-.163-.768-.144-1.674.074-.797.192-.816.202-1.15.202l-.318.001-.05-.096c-.04-.089-.05-.105-.02-.172.04-.096.144-.154.403-.192.116-.017.24-.043.298-.058.46-.124 1.574-.384 1.821-.432.173-.03.47-.063.672-.074l.365-.017.08-.307c.04-.173.09-.307.096-.288.01.011.03.182.05.384.02.202.04.432.06.509.09.528.125.72.193.99.201.769.432 1.281.892 1.982.413.624 1.007 1.313 2.044 2.383l.375.384.374-.384c.672-.692 1.29-1.378 1.624-1.8.972-1.223 1.404-2.35 1.562-4.064.03-.346.05-.451.07-.374.006.023.04.163.08.316l.07.279.366.017c.47.023.873.096 1.912.355.566.144.662.163.893.202.317.057.451.172.374.345-.05.115-.096.135-.326.135-.26 0-.451-.03-1.086-.192-.672-.164-.931-.212-1.19-.212-.346 0-.73.116-.759.221-.02.125-.07.384-.105.663-.05.345-.135.806-.164.864-.03.072.03.057.183-.043.278-.183.547-.279.912-.346.307-.057.643-.046 1.317.027.326.034.7.063.845.063.365 0 .749-.077.992-.201.125-.064.327-.27.404-.394.153-.269.24-.672.182-.931-.02-.081-.03-.154-.02-.154.02-.015.24.034.451.106.624.192 1.186.72 1.45 1.363.03.063.06.154.07.173.25.595.385 1.738.318 2.789-.02.307-.04.633-.06.73-.06.431-.09 1.335-.06 1.786.06.787.162 1.241.422 1.848.03.074-.48-.074-.836-.25-.259-.125-.297-.163-.547-.557-.192-.307-.441-.883-.681-1.556-.03-.089-.06-.173-.08-.182a.44.44 0 0 1-.04-.09c-.03-.116-.202-.452-.327-.663a3.38 3.38 0 0 0-.528-.691c-.173-.173-.46-.403-.49-.384a.613.613 0 0 0 .115.192c.298.442.567 1.042.692 1.534.192.74.25 1.346.288 2.994.03 1.004.124 1.703.326 2.313l.09.278c0 .01-.537-.063-.71-.096a4.532 4.532 0 0 1-1.291-.45.857.857 0 0 0-.202-.09c-.006.006-.06.163-.125.345a6.058 6.058 0 0 1-.576 1.222c-.22.326-.624.73-.964.96-.24.163-.615.355-.788.403-.06.017-.06.014-.04-.03.125-.307.24-.816.288-1.309.04-.422.01-1.005-.05-1.004-.01 0-.07.154-.134.326-.125.365-.135.384-.375.912-.739 1.64-1.9 3.044-3.536 4.293-.356.278-.586.441-.605.441-.01 0-.115-.069-.23-.153zM14.09 30.16a3.837 3.837 0 0 1-.537-1.33c-.06-.27-.06-1.072-.01-1.3.096-.432.125-.508.183-.7.08-.25.422-.95.49-1.018.007-.008.06-.085.114-.163.221-.346.71-.874 1.113-1.202.09-.074.173-.154.173-.154 0-.063-.519.163-.826.365-.22.144-.643.509-.777.662l-.07.075-.02-.202a6.5 6.5 0 0 1-.01-.672c.01-.566.04-.691.336-1.714.23-.777.297-1.044.25-1.044-.091 0-.76.595-.942.845-.06.074-.115.153-.134.173a1.39 1.39 0 0 0-.09.134c-.03.046-.07.09-.09.09-.04-.005-.116-.337-.145-.673-.06-.537.06-1.158.346-1.72.096-.191.374-.633.49-.777.04-.057.08-.105.08-.125 0-.014-.09-.039-.192-.057-.461-.08-.749-.172-1.078-.355-.288-.163-.759-.547-.72-.585.01-.01.134-.03.278-.047.931-.105 1.853-.576 2.78-1.398.499-.442.92-.855.911-.883-.005-.016-.09-.058-.182-.09-.682-.23-1.237-.69-1.644-1.337l-.05-.074.106.017c.441.069.73.081 1.122.03.624-.072 1.102-.211 1.746-.509.154-.072.279-.144.279-.163 0-.017-.04-.063-.096-.096-.279-.182-.634-.614-.835-.998-.125-.24-.23-.519-.212-.538.008-.007.04 0 .07.017.03.017.135.057.221.09.807.258 1.46.297 2.396.134.384-.07 1.346-.317 1.39-.356.02-.024-.01-.063-.21-.22a4.58 4.58 0 0 0-1.527-.797l-.154-.043.144-.09c.596-.385 1.297-.557 1.944-.49.51.055.884.144 1.494.365.154.057.547.22.749.307.09.039.22.096.288.134.07.03.144.057.154.046.01-.004-.02-.096-.07-.192a4.361 4.361 0 0 0-.74-1.02c-.202-.211-.278-.307-.26-.317.02-.012.24-.021.49-.021.394 0 .49.009.701.06.25.063.557.183.768.288.154.09.528.336.615.403.04.03.07.044.08.034.01-.012.08-.115.163-.23a5.17 5.17 0 0 1 .985-1.082l.173-.144.26.23c.373.327.642.634.892.997.08.115.153.22.163.23.01.013.09-.034.173-.096a3.733 3.733 0 0 1 1.29-.633c.2-.051.306-.06.71-.06.259 0 .48.009.49.019.009.01-.106.144-.25.288-.25.259-.48.537-.624.768-.125.201-.24.46-.221.47a.64.64 0 0 0 .153-.046c.07-.03.202-.096.298-.135.826-.374 1.489-.585 2.137-.662.317-.037.413-.04.643-.012.538.063.99.22 1.402.49l.144.09-.154.043a4.6 4.6 0 0 0-1.522.797c-.212.163-.24.211-.221.23.02.016.49.154.662.192l.269.063c.605.154 1.33.221 1.802.173.48-.046 1.063-.182 1.278-.297.03-.017.06-.024.07-.016.02.017-.106.345-.202.537-.182.346-.537.778-.816.985-.06.043-.124.096-.124.115 0 .03.02.043.364.202.644.288 1.19.442 1.888.5.182.014.547-.01.883-.058l.115-.017-.05.074c-.413.663-.95 1.094-1.643 1.337a.512.512 0 0 0-.182.09c-.005.015.115.153.269.288.988.95 1.656 1.432 2.391 1.726.221.089.307.115.643.201.06.016.23.04.375.06.153.018.278.04.288.056.02.019-.096.134-.394.364a3.495 3.495 0 0 1-.998.492c-.03.012-.173.04-.327.07-.153.025-.268.06-.268.074 0 .014.03.069.08.124.22.279.509.797.633 1.122.125.336.23.825.221 1.119-.002.22-.105.816-.153.922-.01.027-.03.023-.06-.028-.317-.45-.615-.777-.951-1.03-.23-.173-.269-.193-.269-.135 0 .03.23 1.001.298 1.227.04.173.144.624.192.902.06.317.115 1.432.07 1.432-.004 0-.105-.096-.23-.221a3.816 3.816 0 0 0-.442-.375c-.317-.23-.983-.547-.977-.46 0 .013.08.089.173.153.23.173.69.643.902.912.432.547.768 1.227.912 1.831.096.394.106.538.106.964-.003.605-.08.978-.327 1.5-.125.278-.355.671-.384.671-.02 0-.02-.003-.09-.384-.163-.94-.528-1.872-.96-2.41a3.113 3.113 0 0 0-1.597-1.089c-.556-.163-.902-.201-2.262-.23-1.162-.027-1.22-.03-1.648-.096-.614-.096-1.012-.317-1.19-.653-.06-.125-.08-.192-.095-.49-.03-.45-.06-.7-.135-.963a3.272 3.272 0 0 0-1.038-1.7 1.933 1.933 0 0 0-.202-.173 3.557 3.557 0 0 0-.259-.173c-.595-.375-1.201-.567-2-.643-.75-.073-1.647.096-2.324.422-.873.422-1.497 1.112-1.798 1.967-.134.374-.173.595-.24 1.431-.04.48-.557.836-1.434 1.002-.23.043-.49.057-1.46.074-1.414.03-1.789.072-2.382.259-.691.22-1.311.72-1.718 1.37-.336.538-.614 1.32-.748 2.101-.06.384-.07.384-.09.384-.01 0-.07-.085-.135-.182zm.433-3.039a3.36 3.36 0 0 1 .595-.777c.403-.403.922-.701 1.539-.883.08-.025.182-.058.23-.064.09-.026.394-.089.643-.134.164-.03.682-.096.964-.125 1.07-.105 1.564-.22 1.992-.422.26-.125.538-.375.653-.586.08-.153.202-.48.22-.624.051-.317.26-.816.452-1.107.115-.163.115-.192.05-.192-.03 0-.182-.013-.326-.027-.966-.096-1.614-.528-1.976-1.318-.08-.182-.192-.518-.192-.605 0-.03-.02-.057-.04-.057-.03 0-.04.063-.07.221-.02.125-.04.326-.06.451l-.03.221-.08-.173c-.365-.768-.567-1.387-.682-2.14-.04-.22-.06-.48-.06-.768-.007-.49.004-.46-.221-.528-.595-.182-1.305-.144-1.955.116-.25.096-.585.288-.73.422-.23.211-.95.71-1.167.816-.21.106.106.09.653-.03.975-.22 1.016-.22 1.446-.22.326-.002.46.009.624.054.115.027.211.06.211.072 0 .01-.08.026-.182.035-1.081.105-2.135.892-2.79 2.086a.679.679 0 0 0-.09.22c.008.01.21-.115.45-.278.74-.509.932-.614 1.444-.854.144-.064.49-.154.739-.183.288-.034.71-.034.73-.001.008.015.003.027-.01.027-.03 0-.471.211-.663.317-.528.298-.97.758-1.217 1.247-.192.384-.221.48-.557 1.539-.125.393-.23.71-.269.787-.06.106-.01.173.06.09.05-.058.365-.26.567-.366.24-.124.662-.25.985-.307.24-.039.441-.043 1.443-.039 1.168.005 1.498-.014 1.867-.105.06-.017.125-.023.134-.015.03.026-.441.48-.633.614-.327.23-.884.518-1.847.962-1.524.7-2.29 1.288-2.696 2.073-.106.201-.25.604-.25.7 0 .075.04.037.115-.096zm23.06-.201c-.413-1.077-1.028-1.706-2.224-2.281a3.175 3.175 0 0 0-.307-.135.192.192 0 0 1-.07-.026c-.03-.015-.289-.124-.596-.25-.94-.374-1.437-.642-1.78-.98-.183-.173-.356-.384-.317-.384.01 0 .115.02.23.043.22.046.72.057 2.236.034.873-.013 1.018.002 1.47.153.355.116.806.365 1.025.576.09.09.144.07.09-.034-.05-.105-.163-.422-.365-1.034-.22-.672-.326-.941-.46-1.211-.356-.7-.855-1.174-1.638-1.55-.125-.057-.23-.105-.25-.105-.02 0-.02-.012-.01-.027.02-.034.451-.034.73.001.259.03.537.106.739.183.403.163.835.422 1.513.892.202.135.374.25.384.23.02-.013-.115-.278-.26-.498-.364-.567-.94-1.124-1.456-1.416a3.336 3.336 0 0 0-1.149-.384.68.68 0 0 1-.192-.035c0-.01.09-.039.211-.072.164-.039.298-.055.624-.055.423.001.519.015 1.392.22.096.024.298.058.452.086.288.043.384.027.25-.043-.25-.125-1.09-.72-1.212-.854-.09-.096-.519-.336-.787-.423-.644-.22-1.474-.23-1.978-.019l-.096.04v.364c0 .95-.25 2.003-.691 2.896l-.125.25-.03-.22a5.51 5.51 0 0 1-.06-.452c-.02-.163-.04-.23-.07-.23-.02 0-.04.026-.04.057 0 .09-.106.422-.193.605-.22.48-.557.835-1.004 1.059-.298.153-.566.22-1.022.268-.192.02-.327.044-.327.06 0 .017.04.086.08.154.173.26.337.624.433.99.259.968.787 1.485 1.71 1.671.287.057.604.096 1.271.144.75.055 1.085.096 1.533.202.96.22 1.751.806 2.324 1.697.134.22.153.144.03-.163zm-15.53-5.722c.173-.015.23-.03.46-.153.173-.09.385-.298.48-.51.097-.2.183-.45.145-.48-.01-.013-.154-.045-.308-.076-1.34-.279-1.395-.346-2.43-.96-.163-.096-.307-.192-.336-.192-.03-.015-.04.019-.06.201-.02.23.02.691.07.883.21.807.69 1.232 1.46 1.301.115.011.24.016.278.012.04-.004.144-.014.23-.02zm8.842-.043c.567-.173.932-.557 1.1-1.155.05-.192.106-.72.097-.893a3.867 3.867 0 0 1-.01-.192l-.005-.115-.115.063c-1.726.941-1.587.845-3.003 1.197-.02.015-.005.089.02.172.154.48.413.778.807.912.24.09.845.09 1.105.01zm-4.579-1.938a.865.865 0 0 0 .451-.25c.164-.163.202-.269.23-.653.01-.182.04-.432.05-.547.031-.22.145-.691.183-.758.01-.023.03.105.04.307.04.864.356 1.363.961 1.555.183.057.788.063 1.053.011.71-.144 1.24-.345 1.801-.72.26-.173.836-.605 1.05-.777.288-.25.739-.586 1.004-.759.48-.307.893-.499 1.378-.605.08-.019.24-.063.346-.096.115-.03.269-.085.355-.105.135-.037.519-.154.653-.192.08-.023-.02-.063-.336-.154-1.091-.278-1.076-.278-1.524-.365a8.506 8.506 0 0 0-1.151-.124c-.528 0-1.474.182-1.895.364-.336.154.116-.22.596-.48.096-.055.259-.134.374-.182.115-.043.23-.096.25-.106.03-.014.259-.105.508-.201.605-.23.624-.24.991-.423.384-.192.403-.23.154-.25-.682-.026-1.622-.249-2.986-.68-.211-.064-.422-.135-.49-.154-.06-.017-.115-.04-.115-.056 0-.01.04-.06.096-.105.06-.046.24-.22.413-.375.173-.153.365-.336.432-.393a2.65 2.65 0 0 0 .154-.135c.02-.017.06-.057.105-.089.116-.09.06-.105-.201-.055a8.388 8.388 0 0 0-1.52.528c-.09.04-.22.096-.297.135l-.692.316c-.124.06-.336.164-.47.221-.125.06-.307.144-.394.183-.09.039-.24.115-.336.163-.201.096-.259.105-.22.034.01-.026.08-.154.134-.279.06-.134.154-.326.202-.432.05-.105.115-.25.153-.316.03-.075.096-.212.144-.308.04-.096.115-.259.163-.355.04-.096.08-.192.07-.21-.01-.044-.278.153-.777.585-.125.105-.24.192-.26.192-.01 0-.124-.173-.249-.394-.288-.528-.768-1.185-.854-1.185-.09 0-.567.653-.855 1.185-.124.22-.23.394-.25.394-.02 0-.124-.077-.23-.173-.288-.25-.739-.605-.777-.605-.05 0-.04.03.201.566.106.221.384.845.49 1.07.04.097.096.212.115.25.02.044.03.086.03.09a1.307 1.307 0 0 1-.21-.09c-.107-.055-.27-.124-.366-.172-.259-.125-.595-.279-.873-.413-.144-.063-.317-.154-.384-.183-.07-.03-.23-.096-.336-.153-.75-.346-1.355-.567-1.962-.691-.06-.011-.09.034-.05.063.07.043.5.432.874.787.105.096.23.211.278.25.05.037.09.085.09.096 0 .01-.05.034-.115.055-.22.063-.806.25-.864.278-.08.034-.873.26-1.178.336-.422.106-1.158.221-1.37.221-.192 0-.278.016-.278.057 0 .012.163.106.365.211.403.202.384.192.845.365 1.069.413 1.536.643 1.91.96.134.115.125.125-.125.03a6.021 6.021 0 0 0-1.842-.336c-.326 0-.968.075-1.352.164-.163.034-.921.22-1.231.297a8.138 8.138 0 0 0-.327.085c-.08.02-.105.096-.03.096.02 0 .134.03.25.064.115.034.278.089.364.105.09.026.23.07.317.096.09.027.288.085.442.125.336.09.739.25 1.001.394.375.21.605.374 1.422 1.032 1.148.921 1.755 1.231 2.758 1.426.25.046.845.043 1.018-.001.23-.063.432-.183.585-.346.26-.278.384-.643.413-1.216.02-.394.04-.394.144.024.08.307.106.5.134.95.02.327.03.384.096.51.192.345.672.527 1.105.412zm-2.74 5.39c-.212-.116-.279-.298-.231-.625.05-.365.22-.69.442-.893.307-.268.681-.288.825-.057.08.125.04.288-.096.442-.115.125-.336.5-.413.681-.04.106-.09.24-.115.288-.07.154-.288.23-.422.164zm4.653-.022c-.096-.06-.115-.09-.201-.317-.03-.096-.09-.23-.135-.316-.07-.144-.307-.48-.355-.51a.689.689 0 0 1-.105-.268c0-.03.02-.09.04-.134.182-.308.691-.173 1.009.259.201.278.336.816.259 1.042-.08.25-.326.365-.528.25z" style="fill:#ef5b5b;fill-opacity:.984314;stroke-width:.0267751" transform="rotate(-180 26.079 26.078)"/></g></svg>