<svg xmlns="http://www.w3.org/2000/svg" width="52.157" height="52.157"><g stroke="#000" opacity=".99"><path fill="#fee572" d="m26.08 5.999 10.95 3.56 5.792 36.62H9.336l5.795-36.62Z" style="fill:#38362e;fill-opacity:.964706;stroke:#38362e;stroke-width:.84445;stroke-opacity:.964706" transform="rotate(-180 26.079 26.078)"/><path stroke="none" d="M23.392 12.277a.895.83 0 0 0-.896.833.895.83 0 0 0 .896.833.895.83 0 0 0 .894-.833.895.83 0 0 0-.894-.833zm2.627 2.172a.799.895 0 0 0-.775.894.799.895 0 0 0 .8.895.799.895 0 0 0 .79-.895.799.895 0 0 0-.79-.894.799.895 0 0 0-.027 0zm-2.468 1.468a.863.895 0 0 0-.863.896.863.895 0 0 0 .863.894.863.895 0 0 0 .863-.894.863.895 0 0 0-.863-.896zm4.34 2.68c-2.191.032-3.856 1.238-5.244 3.061-1.576 1.76-2.672 3.964-3.222 6.669-.542 1.1-1 1.294-1.458 1.534-1.392-.425-1.847-1.084-1.519-1.934.217-1.206 2.12-2.234 3.343-3.335.971-1.764 1.427-3.465-.366-4.869-5.324-1.368-4.29 3.14-3.162 4.136.758-.367 1.216-.817 1.459-1.335-.159-.292-.592-.542 0-.934a.718.718 0 0 1 .608.4c0 .666.308.766-2.188 2.667-1.47.774-1.577 1.993-2.128 3.068-1.015 5.827 1.185 7.575 3.95 8.603.526-.483.684-1.162.912-1.8.783.182 1.528.257 2.615 1.2.267-.266.525-.541.783-.8l.925-.74c.241.624-.259.911-.517 1.307-.375.575-1.157 1.169-1.806 1.563l1.458.192c.666-.275 1.175-.683 1.642-1.134l.79-.266c.742-1.982 1.455-3.97 1.763-6.068-.052-.658-.06-1.18-.425-3.001l.425-1.534 2.553-3.134-1.945 3.334-.366 1.4c-.06 1.02.1 1.888.366 2.667l-.125 1.4c-.666 2.067-1.433 4.047-1.578 6.335.078.516.241.964.791 1.134 6.825-.284 10.229-3.49 12.338-7.804l.125-1.399c-1.28-5.931-4.954-8.97-9.847-10.537a6.698 6.698 0 0 0-.852-.058h-.117zm-5.757 7.511c.117 0 .233.046.35.183l1.073 1.389c.183.458.233.888.066 1.313-.192-.333-.367-.683-.816-1.025-.5-.15-1.016-.292-1.32-.616-.15-.783.027-.825.116-1.071.175-.048.333-.159.508-.175a.63.63 0 0 1 .027-.001zm-2.83 9.155c-.808 2.712-2.462 4.216-4.011 5.867-.133.2.092.267.608.192 2.374-1.244 4.17-2.909 4.922-5.336-.475-.274-.791-.724-1.518-.74z" style="fill:#ec5a5a;fill-opacity:.992157;stroke:none;stroke-width:.636675px;stroke-linecap:butt;stroke-linejoin:miter;stroke-opacity:1" transform="rotate(-180 26.079 26.078)"/></g></svg>