<svg xmlns="http://www.w3.org/2000/svg" width="52.157" height="52.157"><path fill="#fee572" fill-opacity=".992" stroke="#000" stroke-width="1.048" d="m26.078 48.76 13.673-4.484 6.418-40.907H5.988l6.419 40.907z" opacity=".98" style="fill:#e2d9ba;fill-opacity:1;stroke:#393830;stroke-opacity:.992157"/><path d="m30.08 45.28.798-1.145c.432-.634.681-.931.912-1.259.24-.326.432-.681.681-1.316l.115-.23-.172-.23c-.807-.903-2.134-1.662-3.49-2.346-1.355-.682-2.727-1.306-3.604-1.716-1.459-.941-2.56-2.1-3.626-3.324-.08-1.17-.576-2.011-1.808-3.198l.633-.681c1.483 1.426 2.134 2.69 2.116 4.346h-.105c.355.528.71 1.03 1.08 1.43.644.7 1.301.893 1.831.972.528.082.922.116 1.717.519.002.001.22.057.23.057l.288-.057 1.201-.519-1.03-.518c-.02-.028-.03-.057-.06-.115-.09-.173-.22-.423-.346-.749a8.172 8.172 0 0 1-.336-1.139c3.979-.412 8.231-3.21 10.523-4.81.49-.384.163-1.17-.46-1.087-1.5.221-2.67.48-3.885.922l-.01.006v-.001c-.5.173-1.067.269-1.634.336-.749.083-1.464.096-1.964.096a6.477 6.477 0 0 1-2.692 1.548c-.25.452-.26.768-.173 1.21.096.47.336.993.288 1.659l-.912-.057c.03-.404-.172-.855-.288-1.43-.09-.442.08-.99.288-1.545a9.82 9.82 0 0 0-.624-.461c-.393-.26-.892-.576-1.372-.855-.48-.278-.95-.547-1.316-.748-.182-.096-.345-.173-.46-.23-.06-.028-.08-.044-.116-.056l.23-.912h.06c.02.01.091.048.116.057.05.023.05.026.115.057.125.064.327.183.519.288.374.202.825.461 1.316.75.49.287 1.015.585 1.43.854.279.182.5.345.682.508 1.749-.528 2.857-1.738 3.669-3.425.845-1.757 1.33-4.024 1.602-6.406.269-2.382.384-4.861.576-7.093.192-2.232.451-4.21 1.144-5.606.116-.23.221-.384.27-.614-.855-.09-1.723-.202-2.613-.307-3.87-.47-8.052-.893-12.184.46a.612.612 0 0 0-.345.797c1.298 2.664 1.846 5.678 5.948 9.324.403 1.17.355 2.284.288 3.49-.02.287.03.594.09.902.538.806 1.035 2.026 1.493 3.991l-.317.538-.566-.288c-.442-1.913-1.063-3.163-1.437-3.71-.508-.643-.604-.518-.854-.518-.758.017-1.366.336-2.06.576-.489-2.374-1.032-4.437-1.143-6.807a.643.643 0 0 0-.06-.346l-1.544-2.288a.597.597 0 0 0-.682-.23l-1.144.346a.613.613 0 0 0-.403.796l.03.082-1.438.739c-.154-.24-.442-.336-.71-.24-.375.134-.807.26-1.258.46-.452.202-.941.49-1.259 1.03a.923.923 0 0 0-.06.23c-.002.013-.03.09-.288.288-.26.192-.71.47-1.43.797a.613.613 0 0 0-.115 1.03l.74.518c1.915 2.79 3.419 4.953 3.776 8.291.002.019-.002.037 0 .057l-.46 2.69c-.02.162.03.316.124.44.08.471.384.893.73 1.33.441.547 1.012 1.093 1.601 1.657.586.567 1.15 1.177 1.601 1.717.432.509.672.95.75 1.316l-2.29 3.261 4.175-1.374c.797.154 2.509.75 4.233 1.602 1.773.874 3.59 2 4.52 2.918.06.063.269.394.403.682a2.7 2.7 0 0 1 .173.633zm.625-2.41c-.154-.346-.365-.71-.624-.966-1.088-1.073-2.925-2.132-4.748-3.032-1.823-.902-3.552-1.604-4.577-1.773h-.115l-1.716.518.912-1.316v-.173c-.096-.672-.528-1.29-1.03-1.888-.5-.595-1.127-1.151-1.716-1.716-.557-.528-1.09-1.061-1.472-1.517l2.501 1.288c1.307.538 1.441.835 1.945 1.201.08.06.183.125.298.173 1.291 1.508 2.61 3.014 4.51 4.23h.061c.912.433 2.23.995 3.546 1.659 1.205.604 2.302 1.345 2.974 2.002-.134.288-.259.605-.403.797-.08.115-.23.365-.345.509zM18.613 28.916h-.634l-.182-.288c-.22-.345-.269-.643-.355-.93-.09-.289-.221-.654-.605-1.295l-.326-.528.537-.317a1.272 1.272 0 0 1 1.094-.072c.316.144.537.365.768.614l.007.009.008.008c.163.192.298.346.413.538.115.192.21.45.192.72-.04.537-.336.835-.73 1.32zm11.802-.21c.355-.014.74-.037 1.135-.08.508-.058 1.018-.154 1.41-.288v-.003c3.077-.864 5.08-1.14 6.842-4.113a.608.608 0 0 0-.518-.912l-.845-.035-.006.001c-.883.25-.672.183-1.774.634l-.002-.006c-1.22.518-2.307.682-4.455.902-.23.845-.518 1.652-.873 2.387a8.152 8.152 0 0 1-.922 1.507zm2.002-4.738c1.915-.201 2.866-.355 3.934-.816l-.002-.006c1.098-.451.902-.413 1.779-.662l.03-.016c.893-.537 1.835-1.333 2.847-2.593.643-.5.09-1.17-.739-.974-2.485.23-4.746 1.195-7.238 1.263l-.03.288a31.564 31.564 0 0 1-.577 3.518zM17.381 21.31l-2.803-3.318.134-.69 2.554-1.079-2.133-1.114.02-.09a.562.562 0 0 0-.04-.336l2.1.912.567 1.379c.183 1.167-.04 1.853-.288 2.631-.134.432-.05 1.14-.115 1.716zm15.721-1.962h.002c.826-.023 1.763-.07 3.925-.768.528-.26 1.09-.528 1.343-.759 1.499-1.38 2.9-3.02 3.431-3.832a.606.606 0 0 0-.682-.912c-1.966.518-2.802.47-3.374.288-.413-.06-.317-.135-.768.096-1.233.345-2.127.816-3.473.672-.125 1.654-.23 3.437-.403 5.22zm.874-6.005h.001v-.001c.836.004 1.513-.288 2.494-.586 2.996-1.77 5.036-4.173 5.62-5.007.03-.037.212-.202.23-.23.308-.48-.143-1.075-.68-.913-1.94.73-4.22.73-6.704.51a3.31 3.31 0 0 1-.336.98c-.576 1.146-.845 3.007-1.03 5.206l-.001.017c.144.016.278.025.412.025z" style="color:#000;font-style:normal;font-variant:normal;font-weight:400;font-stretch:normal;font-size:medium;line-height:normal;font-family:sans-serif;font-variant-ligatures:normal;font-variant-position:normal;font-variant-caps:normal;font-variant-numeric:normal;font-variant-alternates:normal;font-variant-east-asian:normal;font-feature-settings:normal;font-variation-settings:normal;text-indent:0;text-align:start;text-decoration:none;text-decoration-line:none;text-decoration-style:solid;text-decoration-color:#000;letter-spacing:normal;word-spacing:normal;text-transform:none;writing-mode:lr-tb;direction:ltr;text-orientation:mixed;dominant-baseline:auto;baseline-shift:baseline;text-anchor:start;white-space:normal;shape-padding:0;shape-margin:0;inline-size:0;clip-rule:nonzero;display:inline;overflow:visible;visibility:visible;isolation:auto;mix-blend-mode:normal;color-interpolation:sRGB;color-interpolation-filters:linearRGB;solid-color:#000;solid-opacity:1;fill:#c80e0e;fill-opacity:.992157;fill-rule:nonzero;stroke:none;stroke-width:1.22166;stroke-linecap:butt;stroke-linejoin:round;stroke-miterlimit:4;stroke-dasharray:none;stroke-dashoffset:0;stroke-opacity:1;color-rendering:auto;image-rendering:auto;shape-rendering:auto;text-rendering:auto;enable-background:accumulate;stop-color:#000"/></svg>