<svg xmlns="http://www.w3.org/2000/svg" width="52.157" height="52.157"><g opacity=".99"><path fill="#fee572" fill-opacity=".992" stroke="#000" stroke-width="1.044" d="m-11.54 7.386-13.14 4.634-6.169 42.276H7.767L1.598 12.02Z" style="fill:#3a3931;fill-opacity:.992157;stroke:#393831;stroke-opacity:.992157" transform="matrix(-1.04053 0 0 -.96762 14.07 55.905)"/><path d="M24.393 43.263c-1.814-1.823-2.466-3.11-2.605-5.143-.153-2.28.25-3.51 1.93-5.852 1.485-2.068 1.745-2.598 1.951-3.968l.135-.912.98.864c.567.5 1.226 1.365 1.563 2.058.518 1.07.585 1.422.585 3.39.005 1.918-.06 2.313-.49 3.135-.278.518-.806 1.234-1.189 1.593-1.197 1.134-1.55 1.913-1.55 3.425 0 .748.09 1.664.192 2.038.125.422.125.681-.004.681-.106 0-.787-.585-1.5-1.31zm7.347-2.297c-1.412-1.782-1.673-2.601-1.883-5.904-.269-4.145-.806-5.759-2.452-7.348-.528-.51-.634-.788-.7-1.888-.081-1.213-.06-1.28.306-1.082.221.116 1.111.884 1.987 1.71l1.591 1.5-.93-1.341c-.51-.74-1.45-1.773-2.088-2.3-1.039-.854-1.52-1.586-2.256-3.399-.115-.278 1.06-.192 2.28.163 2.056.605 3.784 1.654 4.524 2.75.835 1.239 1.414 2.542 1.828 4.133.596 2.282.288 5.84-.652 7.684-.442.864-.576 1.463-.644 2.867-.04.977.007 2.176.125 2.665.115.49.125.893.02.893-.096 0-.576-.49-1.05-1.098zm-11.9-1.358c-2.678-3.013-2.483-6.748.489-9.346 1.13-.99 4.435-2.795 4.675-2.555.08.074-.03.7-.23 1.377-.27.873-.691 1.602-1.467 2.488-2.18 2.5-2.703 3.908-2.58 6.959.04 1.139.06 2.07.04 2.07-.02 0-.441-.45-.921-.992zm18.278-6.286c-2.095-1.355-2.814-2.429-3.328-4.979-.403-2.001-1.465-4.332-2.488-5.465-.672-.739-2.328-1.723-3.881-2.297l-.519-.192.672-.346c.922-.48 1.213-.441 2.881.375.807.393 1.49.681 1.527.652.096-.096-2.41-1.74-2.886-1.89-.384-.126-.394-.174-.09-.76.192-.374.297-1.012.259-1.605-.06-.973-.07-.983-.854-1.048-1.12-.09-2.848.461-3.93 1.263-.73.537-1.09.672-1.709.614-.432-.034-.787-.153-.787-.25 0-.278 1.614-1.338 3.374-2.223 2.682-1.35 4.38-1.205 6.294.538 1.592 1.451 2.67 1.933 4.65 2.082l1.671.125-.778.46c-.652.385-2.153.96-3.267 1.248-.183.046.144.528.873 1.319 1.762 1.903 2.437 4.07 2.444 7.844.004 1.981.365 3.748.941 4.63.192.288.307.566.26.614-.05.047-.644-.278-1.327-.71zm-22.074-.7c-.749-.433-1.502-1.54-1.288-1.884.06-.09.548-.173 1.083-.173.538-.003 1.391-.192 1.892-.423.5-.23.95-.412.993-.412.04 0 .08.278.08.604 0 .384-.268.922-.73 1.484-.402.48-.729.96-.729 1.064 0 .308-.47.212-1.298-.268zm-2.076-3.043a6.295 6.295 0 0 1-.816-1.33c-.163-.385-.48-.855-.7-1.043-.404-.327-.385-.365.604-1.42a28.209 28.209 0 0 1 2.32-2.146c1.194-.967 1.286-1.1 1.082-1.547-.316-.691.116-1.626 1.373-2.965.567-.604 1.097-1.098 1.174-1.098.08 0 .106.279.05.615l-.09.614 1.223-.5c.893-.364 1.619-.498 2.686-.498 1.463 0 1.463 0 .893.355-.317.192-.576.432-.576.518 0 .09.26.09.576.004.883-.25 2.604-.163 3.187.154.51.278.48.288-.835.633-.749.192-1.735.538-2.194.778-.72.374-.778.451-.423.566 1.481.47 2.274 1.6 2.464 3.51l.096.995-.912-.835c-1.102-1.014-1.357-1.076-.672-.163.787 1.053.835 1.342.278 1.983-.451.528-.634.576-2.02.605-1.377.024-1.565.077-1.96.576-.527.663-.902.682-2.02.115l-.853-.432.336.48c.182.26.336.596.336.73 0 .394-1.662 1.093-2.94 1.243-1.108.135-1.188.106-1.688-.49zm4.889-6.618c.768-.016.93-.115 1.444-.855.317-.46.586-.902.586-.992.01-.279-1.675-.164-2.32.172-.355.183-.767.644-.93 1.038-.404.96-.385 1.271.03.922.182-.154.71-.279 1.19-.288zm-2.863-4.793a2.415 2.415 0 0 1-.528-1.543c0-.768.125-.96 1.337-2.097.864-.806 1.693-1.373 2.337-1.592 1.372-.47 1.729-.432 1.057.09-.855.673-.653.845.441.356.75-.336 1.502-.46 3.02-.5 2.418-.072 3.139-.335 4.567-1.67 1.043-.976 1.061-.984.922-.375-.519 2.16-1.268 2.997-3.749 4.162-1.18.557-2.186 1.2-2.699 1.733-.45.47-1.061.903-1.358.96-.298.06-.7.173-.902.25-.576.22-.461-.442.268-1.505l.634-.932-.576.336c-.317.192-1.329.941-2.248 1.682-.922.74-1.739 1.342-1.819 1.344-.08.002-.384-.307-.681-.69zm10.127.202c-.966-.269-.966-.269-.5-.787.519-.586 1.817-1.143 3.065-1.32l.992-.143v.806c0 .442-.134.992-.307 1.215-.288.384-.307.374-.441-.279-.09-.432-.27-.681-.49-.681-.451 0-1.267.576-1.447 1.026-.124.297-.259.317-.873.153z" style="fill:#b3b3b3;fill-opacity:.992157;stroke-width:.209022" transform="rotate(-180 26.079 26.078)"/></g></svg>