<svg xmlns="http://www.w3.org/2000/svg" width="52.157" height="52.157"><g opacity=".99"><path fill="#fee572" fill-opacity=".992" stroke="#000" stroke-width="1.044" d="m-11.54 7.386-13.14 4.634-6.169 42.276H7.767L1.598 12.02Z" style="fill:#3a3931;fill-opacity:.992157;stroke:#393831;stroke-opacity:.992157" transform="matrix(-1.04053 0 0 -.96762 14.07 55.905)"/><path d="M28.45 14.496c-1.655.007-3.433.442-5.33 1.537 1.489-.336 2.298-.997 4.57-.97 1.476.017 3.744.854 4.868 1.87.883.797 2.392 4.266 3.64 4.153 2.882-.26 1.984-2.54.96-2.803.327.317.433.883.202 1.38-.23.498-.777.71-1.128.412-.45-.394-2.416-5.112-6.818-5.53a9.773 9.773 0 0 0-.96-.044zm-.884 1.005c-.48.002-.966.067-1.463.201 1.762.394 3.369.106 5.84 4.111 1.029 1.667 1.432 7.811 4.684 7.234 4.133-.74 3.28-3.776 2.142-5.166-.105 1.395-1.219 2.743-1.943 2.782-1.998.105-2.842-5.197-4.53-6.94-1.316-1.361-2.943-2.23-4.73-2.222zm-2.05.977c-1.1.003-2.348.202-3.746.624 8.553 1.606 5.986 6.47 10.053 8.68.365-5.789-1.66-9.31-6.308-9.3zm-7.629 1.418c-1.983.004-2.9.125-4.249.201-.768.336-.96.557-1.186.999 1.483-.24 3.155-.017 4.887.355-1.594-.173-3.527-.509-4.408-.011l1.144.09c1.309.787 2.568 1.766 4.23 2.045l1.748-1.576-.777-2.092a58.5 58.5 0 0 0-1.386-.014zm3.594.061c-.518 0-1.08.026-1.677.076.25.615.46.932.778 2.155l-1.78 1.655c1.1 2.267 2.93 3.681 6.025 3.622.845 1.9-1.03 8.552-2.404 14.33-.211.892.153 1.84.777 2.84-.09-2.814.967-5.574 2.623-8.304-1.273 2.99-.787 5.559 0 8.055.173-2.634-.02-5.282 2.06-7.836-.384 3.593.624 5.224 1.624 6.868-.23-2.321-.883-4.58-.03-7.056.844 3.884 2.126 4.527 3.372 5.433-.826-1.959-1.799-3.872-1.499-6.15 2.01 3.66 3.025 3.622 4.152 3.995h.001c-.95-1.48-2.77-3.424-4.55-11.408-1.516-.557-2.857-3.404-3.848-5.388-1.49-2.215-3.178-2.88-5.629-2.887zm1.575 1.48h.05c.288 0 .586.034.778.125.585.27 1.302 1.432 1.302 1.432s-1.434.269-2.04-.043c-.527-.27-1.084-1.432-1.084-1.432s.49-.08.991-.08z" style="fill:#b1b1b1;fill-opacity:.992157;stroke:none;stroke-width:.12488px;stroke-linecap:butt;stroke-linejoin:miter;stroke-opacity:1" transform="rotate(-180 26.079 26.078)"/></g></svg>