<svg xmlns="http://www.w3.org/2000/svg" width="52.157" height="52.157"><g opacity=".99"><path fill="#fee572" fill-opacity=".992" stroke="#000" stroke-width="1.044" d="m-11.54 7.386-13.14 4.634-6.169 42.276H7.767L1.598 12.02Z" style="fill:#3a3931;fill-opacity:.992157;stroke:#393831;stroke-opacity:.992157" transform="matrix(-1.04053 0 0 -.96762 14.07 55.905)"/><path d="M32.638 37.318a.559.559 0 0 0 .508-.75l-.96-2.948a.57.57 0 0 0-.556-.346h-7.78l3.81-2.928V26.14h8.719c.25.004.48-.173.556-.413l.961-2.537a.56.56 0 0 0-.556-.749h-9.678V14.28l3.007.035c.23-.024.537.017.825-.016l-.968-1.284c-.969-1.243-1.558-1.897-2.944-2.77-1.173.024-2.332.49-3.996 1.378l.03 2.657v8.162h-8.803a.553.553 0 0 0-.548.749l.96 2.776c.07.25 1.693.173 1.948.173h6.444v4.2l-3.656 2.934c-1.771 1.366-2.546 1.654-2.695 3.292a.559.559 0 0 0 .547.75l14.777-.002.04.001z" style="color:#000;font-style:normal;font-variant:normal;font-weight:400;font-stretch:normal;font-size:29.072px;line-height:1.25;font-family:MingLiU_HKSCS-ExtB;-inkscape-font-specification:MingLiU_HKSCS-ExtB;font-variant-ligatures:normal;font-variant-position:normal;font-variant-caps:normal;font-variant-numeric:normal;font-variant-alternates:normal;font-variant-east-asian:normal;font-feature-settings:normal;font-variation-settings:normal;text-indent:0;text-align:start;text-decoration:none;text-decoration-line:none;text-decoration-style:solid;text-decoration-color:#000;letter-spacing:0;word-spacing:0;text-transform:none;writing-mode:lr-tb;direction:ltr;text-orientation:mixed;dominant-baseline:auto;baseline-shift:baseline;text-anchor:start;white-space:normal;shape-padding:0;shape-margin:0;inline-size:0;clip-rule:nonzero;display:inline;overflow:visible;visibility:visible;opacity:.99;isolation:auto;mix-blend-mode:normal;color-interpolation:sRGB;color-interpolation-filters:linearRGB;solid-color:#000;solid-opacity:1;vector-effect:none;fill:#ee5959;fill-opacity:.984314;fill-rule:nonzero;stroke:none;stroke-width:.487827;stroke-linecap:butt;stroke-linejoin:round;stroke-miterlimit:4;stroke-dasharray:none;stroke-dashoffset:0;stroke-opacity:1;color-rendering:auto;image-rendering:auto;shape-rendering:auto;text-rendering:auto;enable-background:accumulate;stop-color:#000"/></g></svg>