<svg xmlns="http://www.w3.org/2000/svg" width="52.157" height="52.157"><g opacity=".99"><path fill="#fee572" fill-opacity=".992" stroke="#000" stroke-width="1.044" d="m-11.54 7.386-13.14 4.634-6.169 42.276H7.767L1.598 12.02Z" style="fill:#e2d9ba;fill-opacity:1;stroke:#393831;stroke-opacity:.992157" transform="matrix(-1.04053 0 0 -.96762 14.07 55.905)"/><path d="m26.078 10.666-2.03 7.577s1.303-.153 1.998-.153c.701 0 2.07.153 2.07.153zm10.899 4.511L30.183 19.1s1.033.806 1.524 1.301c.49.49 1.352 1.575 1.352 1.575zm-21.793.001 3.917 6.799s.854-1.082 1.351-1.575c.49-.49 1.525-1.301 1.525-1.301zm10.898 3.852a7.048 7.048 0 0 0-7.049 7.048 7.048 7.048 0 0 0 7.049 7.048 7.048 7.048 0 0 0 7.048-7.048 7.048 7.048 0 0 0-7.048-7.048zm-3.252 2.913h6.463a.166.166 0 0 1 .163.23l-.297.903a.179.179 0 0 1-.164.106h-2.324v2.177h1.654c.08-.002.144.049.164.125l.288.777a.17.17 0 0 1-.164.23h-1.947v2.492h3.33c.08-.001.144.05.163.125l.269.902c.02.096-.05.202-.144.211h-8.416a.171.171 0 0 1-.163-.211l.298-.902a.18.18 0 0 1 .144-.125h3.287v-2.491h-1.99a.166.166 0 0 1-.163-.23l.298-.778a.172.172 0 0 1 .163-.125h1.696v-2.176h-2.302c-.07.004-.144-.039-.164-.106l-.297-.902c-.04-.106.04-.221.153-.23zm-4.586 2.102-7.577 2.03 7.577 2.037s-.154-1.372-.154-2.069c0-.69.154-1.998.154-1.998zm15.67 0s.153 1.303.153 1.998c0 .701-.154 2.07-.154 2.07l7.578-2.038zm-14.81 6.134-3.923 6.794 6.798-3.917s-1.082-.854-1.574-1.352c-.49-.49-1.302-1.524-1.302-1.524zm13.953.001s-.807 1.033-1.302 1.525c-.49.49-1.574 1.352-1.574 1.352l6.798 3.917zm-9.01 3.732 2.03 7.578 2.038-7.578s-1.372.154-2.07.154c-.69 0-1.998-.154-1.998-.154z" style="fill:#c80e0e;fill-opacity:.992157;stroke:none;stroke-width:.713716;stroke-linecap:round;stroke-linejoin:round;stroke-dasharray:none;paint-order:stroke fill markers" transform="rotate(-180 26.079 26.078)"/></g></svg>