<?xml version="1.0" encoding="UTF-8"?>
<svg width="50mm" height="50mm" clip-rule="evenodd" fill-rule="evenodd" image-rendering="optimizeQuality" shape-rendering="geometricPrecision" text-rendering="geometricPrecision" version="1.1" viewBox="0 0 50 50" xmlns="http://www.w3.org/2000/svg" xmlns:cc="http://creativecommons.org/ns#" xmlns:dc="http://purl.org/dc/elements/1.1/" xmlns:rdf="http://www.w3.org/1999/02/22-rdf-syntax-ns#">
 <metadata>
  <rdf:RDF>
   <cc:Work rdf:about="">
    <dc:format>image/svg+xml</dc:format>
    <dc:type rdf:resource="http://purl.org/dc/dcmitype/StillImage"/>
    <dc:title/>
   </cc:Work>
  </rdf:RDF>
 </metadata>
 <g transform="translate(497.77 -77.408)">
  <path d="m-485.39 86.956v7.7333l4.8329 4.0175v10.204l-6.588 6.9652v4.932h28.745v-4.932l-6.5874-6.9652v-10.204l4.8329-4.0175v-7.7333h-5.2993v3.1011h-3.992v-3.1011h-6.6534v3.1011h-3.992v-3.1011z" fill="#fafafa" stroke="#3a3a3a" stroke-width="1.2"/>
  <path class="st32" d="m-472.77 93.863h-8.7496l3.3065 2.5h11.004l3.1887-2.5z" fill="#3a3a3a" stroke-width="1.0042"/>
  <path d="m-463.73 86.956v7.7332l-4.8326 4.0174v10.204l6.5873 6.9653v4.9319h3.5728v-4.9319l-6.5878-6.9653v-10.204l4.8331-4.0174v-7.7332z" opacity=".15"/>
  <g fill="#3a3a3a" stroke-width="1.0042">
   <path class="st32" d="m-472.77 116.15h-10.027l2.7763-2.5h14.636l2.6422 2.5z"/>
   <path class="st32" d="m-472.71 112.06h-6.7886l1.7622-2.2h10.146l1.6693 2.2z"/>
   <path class="st32" d="m-472.71 97.951h-4.9728l1.7453 2.2h6.525l1.6754-2.2z"/>
  </g>
 </g>
</svg>
