<svg xmlns="http://www.w3.org/2000/svg" xml:space="preserve" width="260" height="260" overflow="hidden"><defs><clipPath id="a"><path d="M1680 198h260v260h-260z"/></clipPath></defs><g fill="#262626" fill-rule="evenodd" clip-path="url(#a)" transform="translate(-1680 -198)"><path d="m1760.66 379 4.74 4.569c12.73 10.051 28.08 15.92 44.6 15.92 16.52 0 31.87-5.869 44.6-15.92l4.74-4.568L1909.5 430h-199z"/><path d="M1809.905 213.661c14.31-.472 26.66 13.616 24 27.573-.38 5.676-4.78 11.263-8.08 14.603 4.74 5.617 9.46 11.233 14.18 16.85-11.08 10.924-22.17 21.849-33.25 32.784 4.47 4.394 8.93 8.798 13.39 13.191 10.54-10.368 21.06-20.746 31.59-31.114 3.29 5.388 7.08 10.517 10.05 16.054 9.35 24.186.61 54.088-21.27 68.641-19.35 13.768-47.77 12.247-65.56-3.419-21.31-17.457-26.65-50.231-12.8-73.761 5.25-8.708 12.68-15.816 18.96-23.778 4.41-5.229 8.81-10.467 13.21-15.696-11.46-8.132-11.38-26.85-.76-35.706 4.42-3.988 10.36-6.249 16.34-6.222z"/></g></svg>