<?xml version="1.0" encoding="UTF-8" standalone="no"?>
<svg
   width="260"
   height="260"
   xml:space="preserve"
   overflow="hidden"
   version="1.1"
   id="svg642"
   xmlns="http://www.w3.org/2000/svg"
   xmlns:svg="http://www.w3.org/2000/svg"><defs
     id="defs632"><clipPath
       id="clip0"><rect
         x="1940"
         y="1497"
         width="260"
         height="260"
         id="rect629" /></clipPath></defs><g
     clip-path="url(#clip0)"
     transform="translate(-1940,-1497)"
     id="g640"><path
       d="m 1998.91,1515 c 17.9533,6.54 35.9067,13.08 53.86,19.62 10.2,-4.4916 20.5153,-8.9528 31.8052,-9.7771 25.2381,-2.7162 53.2262,-2.5496 75.0799,12.107 15.9645,11.0629 23.5096,32.7043 18.9153,51.3831 -7.0428,20.1753 -27.6759,30.9797 -46.1317,38.882 -9.1717,3.723 -18.6197,6.7787 -28.2387,9.115 7.64,30.5567 15.28,61.1133 22.92,91.67 -51.93,0 -103.86,0 -155.79,0 -0.6401,-37.1894 -0.099,-75.2383 10.8857,-111.065 1.8553,-4.9694 4.8679,-9.8967 5.9964,-14.8925 -6.7374,-19.3208 -13.4747,-38.6417 -20.2121,-57.9625 13.9533,4.3333 27.9067,8.6667 41.86,13 -3.65,-14.0267 -7.3,-28.0533 -10.95,-42.08 z"
       fill="#262626"
       fill-rule="evenodd"
       id="path634" /><path
       d="m 2040,1585 c 0,-8.84 6.94,-16 15.5,-16 8.56,0 15.5,7.16 15.5,16 0,8.84 -6.94,16 -15.5,16 -8.56,0 -15.5,-7.16 -15.5,-16 z"
       fill="#ffffff"
       fill-rule="evenodd"
       id="path636" /><path
       d="m 2083,1565.5 c 0,-8.56 7.16,-15.5 16,-15.5 8.84,0 16,6.94 16,15.5 0,8.56 -7.16,15.5 -16,15.5 -8.84,0 -16,-6.94 -16,-15.5 z"
       fill="#ffffff"
       fill-rule="evenodd"
       id="path638" /></g></svg>
