<?xml version="1.0" encoding="UTF-8" standalone="no"?>
<svg
   width="260"
   height="260"
   xml:space="preserve"
   overflow="hidden"
   version="1.1"
   id="svg15"
   xmlns="http://www.w3.org/2000/svg"
   xmlns:svg="http://www.w3.org/2000/svg"><defs
     id="defs5"><clipPath
       id="clip0"><rect
         x="1680"
         y="1757"
         width="260"
         height="260"
         id="rect2" /></clipPath></defs><g
     clip-path="url(#clip0)"
     transform="matrix(0.9,0,0,0.9,-1498.9,-1568.7508)"
     id="g13"><path
       id="path1176"
       style="color:#000000;fill:#262626;fill-rule:evenodd;stroke-miterlimit:8;-inkscape-stroke:none"
       d="m 1809.9707,1760.1875 c -23.8609,-0.7327 -43.9101,23.8884 -38.3354,47.1123 -0.931,5.746 8.1692,10.8474 1.8326,14.8762 -4.0624,4.6145 -10.1228,11.4947 -12.929,14.6879 -16.8483,16.3626 -24.4167,43.1935 -18.0369,66.4271 2.9485,11.5297 8.9552,22.2516 17.2324,30.8008 -18.0365,23.5736 -36.0729,47.1471 -54.1094,70.7207 70.25,0 140.5,0 210.75,0 -18.0365,-23.5736 -36.0729,-47.1471 -54.1094,-70.7207 23.7314,-23.611 25.9375,-64.6733 4.9338,-90.7225 -4.3848,-5.3869 -6.0508,-6.6463 -10.0577,-11.4144 -4.2555,-4.8314 -8.5111,-9.6627 -12.7667,-14.494 11.8766,-19.5729 0.4632,-47.706 -20.9912,-54.8778 -4.2819,-1.586 -8.8471,-2.3988 -13.4131,-2.3956 z" /><path
       style="fill:#ffffff;fill-opacity:1;stroke:none"
       d="m 1776.0625,1946.6953 c -9.5625,12.4974 -19.125,24.9948 -28.6875,37.4922 42.4167,0 84.8333,0 127.25,0 -9.5625,-12.4974 -19.125,-24.9948 -28.6875,-37.4922 -21.2896,12.0642 -48.582,12.0659 -69.875,0 z"
       id="path1181" /><path
       style="fill:#ffffff;fill-opacity:1;stroke:none"
       d="m 1809.9707,1780.8125 c -11.2616,-0.4517 -20.6745,11.0703 -18.171,22.0147 1.0154,4.8746 4.8716,8.4489 7.2991,12.6717 0.6761,1.8256 3.677,3.8026 2.8594,5.5309 -10.4889,11.9419 -21.0376,23.8503 -31.5123,35.788 -13.1942,16.9156 -12.8532,42.5638 0.7632,59.1363 13.7855,18.1577 40.4107,24.4624 60.9472,14.6702 19.8679,-8.7128 32.5178,-31.4746 28.4163,-52.9381 -1.4974,-8.7333 -5.4863,-17.0007 -11.305,-23.6745 -9.7923,10.069 -19.5847,20.1381 -29.377,30.2071 -4.9284,-4.7936 -9.8567,-9.5873 -14.7851,-14.3809 10.1308,-10.4167 20.2617,-20.8333 30.3925,-31.25 -5.7044,-6.4759 -11.4088,-12.9518 -17.1132,-19.4277 2.9824,-4.6677 6.4294,-9.1004 9.1112,-13.9201 4.0387,-10.6957 -4.1424,-23.6333 -15.6148,-24.3332 l -0.9484,-0.071 z"
       id="path7" /></g></svg>
