<?xml version="1.0" encoding="UTF-8" standalone="no"?>
<svg
   width="260"
   height="260"
   xml:space="preserve"
   overflow="hidden"
   version="1.1"
   id="svg1993"
   xmlns="http://www.w3.org/2000/svg"
   xmlns:svg="http://www.w3.org/2000/svg"><defs
     id="defs1985"><clipPath
       id="clip0"><rect
         x="2460"
         y="1757"
         width="260"
         height="260"
         id="rect1982" /></clipPath></defs><g
     clip-path="url(#clip0)"
     transform="matrix(0.9,0,0,0.9,-2201.0116,-1568.4)"
     id="g1991"><path
       style="color:#000000;fill:#262626;fill-rule:evenodd;stroke-miterlimit:8;-inkscape-stroke:none"
       d="m 2589,1767.1875 c -22.5065,0 -40.8125,18.707 -40.8125,41.3125 0,22.6055 18.306,41.3125 40.8125,41.3125 22.5065,0 40.8125,-18.707 40.8125,-41.3125 0,-22.6055 -18.306,-41.3125 -40.8125,-41.3125 z"
       id="path1027" /><path
       style="color:#000000;fill:#262626;fill-rule:evenodd;stroke-miterlimit:8;-inkscape-stroke:none"
       d="m 2528.7051,1842.2441 c -28.7887,0.7441 -52.468,25.1056 -57.6387,52.5545 -6.8103,33.4037 6.2503,67.5926 24.7795,94.9894 3.7799,5.0081 7.5598,10.0163 11.3397,15.0245 55.2109,0 110.4219,0 165.6328,0 9.3218,-12.0401 18.599,-24.238 24.6904,-38.3229 13.619,-28.4953 19.28,-63.8946 3.4332,-92.7243 -12.4439,-23.884 -42.0832,-37.2879 -68.0658,-29.2897 -18.6075,5.2357 -33.3585,19.545 -42.8957,35.9346 -12.5868,-21.6191 -35.1819,-39.2603 -61.2754,-38.1661 z"
       id="path1029" /><path
       id="path1987"
       style="fill:#ffffff;fill-opacity:1;stroke:none"
       d="m 2589,1787.8125 c -11.1734,0 -20.1875,9.0531 -20.1875,20.6875 0,11.6344 9.0141,20.6875 20.1875,20.6875 11.1734,0 20.1875,-9.0531 20.1875,-20.6875 0,-11.6344 -9.0141,-20.6875 -20.1875,-20.6875 z" /><path
       id="path1989"
       style="fill:#ffffff;fill-opacity:1;stroke:none"
       d="m 2647.9707,1862.7812 c -17.6524,0.2141 -30.8576,13.9067 -40.3199,27.3737 -5.853,7.9825 -10.7516,16.6071 -16.7016,24.5209 -9.7123,-12.4245 -16.9172,-26.8275 -28.8545,-37.4385 -10.9948,-10.8899 -27.5855,-18.1398 -42.9024,-12.4632 -19.26,6.3754 -29.2985,27.3151 -29.3593,46.5767 -0.2694,24.3658 9.9784,47.7752 23.6017,67.5064 1.9999,1.709 2.7442,5.9385 5.8985,5.3303 47.7366,0 95.4732,0 143.2098,0 13.12,-16.7117 22.7626,-36.47 26.7035,-57.4073 3.8778,-20.2978 -0.9294,-44.2392 -18.5437,-56.8602 -6.551,-4.7334 -14.6247,-7.4166 -22.7321,-7.1388 z" /></g></svg>
