<svg xmlns="http://www.w3.org/2000/svg" xml:space="preserve" width="260" height="260" overflow="hidden"><defs><clipPath id="a"><path d="M1940 1757h260v260h-260z"/></clipPath></defs><g clip-path="url(#a)" transform="matrix(.9 0 0 .9 -1732.398 -1568.14)"><path d="M1993.497 1772.398c2.445 14.335 4.891 27.157 7.337 41.493-12.55-3.209-25.773-6.921-38.324-10.13 4.889 20.978 10.45 43.971 15.338 64.948-9.382 18.866-12.067 40.117-14.479 60.812-2.565 25.012-2.306 50.191-1.615 75.292h179.074l-23.693-94.764c24.95-7.914 52.056-18.195 66.855-41.148 14.213-23.62 4.73-56.346-16.374-72.685-23.889-17.612-55.593-18.223-83.928-15.094-10.74 1.051-20.974 4.338-30.677 8.921l-59.514-17.645z" style="color:#000;fill:#262626;fill-rule:evenodd;stroke-miterlimit:8;-inkscape-stroke:none"/><path d="m2014.338 1797.912 10.666 41.016-40.04-12.436 15 43.02c-4.408 10.49-9.798 20.68-11.44 32.094-5.644 27.118-6.722 54.953-6.471 82.576h132.35l-17.288-69.139-28.864 3.325-2.24-18.905c28.2-3.994 56.957-10.143 81.794-24.679 11.34-6.904 24.008-17.692 22.233-32.463-.242-13.703-7.655-27.175-20.231-33.208-19.735-10.004-42.944-9.916-64.426-7.387-11.376.908-21.475 6.229-31.84 10.467l-39.203-14.28z" style="fill:#fff;fill-opacity:1;stroke:none"/><path fill="#262626" fill-rule="evenodd" d="M2040 1853c0-9.94 7.84-18 17.5-18s17.5 8.06 17.5 18-7.84 18-17.5 18-17.5-8.06-17.5-18zM2083 1833.5c0-9.66 8.06-17.5 18-17.5s18 7.84 18 17.5c0 9.67-8.06 17.5-18 17.5s-18-7.83-18-17.5z"/></g></svg>