<?xml version="1.0" encoding="UTF-8" standalone="no"?>
<svg
   xmlns:dc="http://purl.org/dc/elements/1.1/"
   xmlns:cc="http://creativecommons.org/ns#"
   xmlns:rdf="http://www.w3.org/1999/02/22-rdf-syntax-ns#"
   xmlns:svg="http://www.w3.org/2000/svg"
   xmlns="http://www.w3.org/2000/svg"
   xmlns:sodipodi="http://sodipodi.sourceforge.net/DTD/sodipodi-0.dtd"
   xmlns:inkscape="http://www.inkscape.org/namespaces/inkscape"
   inkscape:version="0.92.4 (5da689c313, 2019-01-14)"
   sodipodi:docname="8bit_black_man.svg"
   id="svg847"
   version="1.1"
   shape-rendering="crispEdges"
   viewBox="0 -0.5 16 16">
  <defs
     id="defs851" />
  <sodipodi:namedview
     inkscape:current-layer="svg847"
     inkscape:window-maximized="0"
     inkscape:window-y="9"
     inkscape:window-x="29"
     inkscape:cy="1.0583339"
     inkscape:cx="11.732759"
     inkscape:zoom="16.000001"
     inkscape:snap-midpoints="true"
     inkscape:object-paths="false"
     inkscape:object-nodes="true"
     inkscape:snap-intersection-paths="true"
     showgrid="false"
     id="namedview849"
     inkscape:window-height="1044"
     inkscape:window-width="2048"
     inkscape:pageshadow="2"
     inkscape:pageopacity="0"
     guidetolerance="10"
     gridtolerance="10"
     objecttolerance="10"
     borderopacity="1"
     inkscape:document-rotation="0"
     bordercolor="#666666"
     pagecolor="#ffffff" />
  <metadata
     id="metadata833">Made with Pixels to Svg https://codepen.io/shshaw/pen/XbxvNj<rdf:RDF>
  <cc:Work
     rdf:about="">
    <dc:format>image/svg+xml</dc:format>
    <dc:type
       rdf:resource="http://purl.org/dc/dcmitype/StillImage" />
    <dc:title />
  </cc:Work>
</rdf:RDF>
</metadata>
  <g
     id="g1588"
     transform="translate(-36.648438,2.544141)">
    <path
       id="rect2281"
       style="fill:#000000;stroke:none;stroke-width:0.75590599;stroke-linecap:round;stroke-linejoin:round;stroke-miterlimit:4;stroke-dasharray:none"
       d="m 42.148438,2.2558594 v 1 h 1 1 1 1 1 v -1 h -1 -1 -1 -1 z m 5,1 v 1 h 1 1 1 v -1 h -1 -1 z m 3,1 v 1 1 h -1 -1 v 1 h 1 1 v 1 1 h 1 v -1 -1 -1 -1 -1 z m 0,5 h -1 v 0.9999996 h 1 z m -1,0.9999996 h -1 -1 -1 -1 -1 -1 -1 -1 -1 v 1 h 1 1 1 1 1 1 1 1 1 z m -9,0 V 9.2558594 h -1 v 0.9999996 z m -1,-0.9999996 v -1 -1 h 1 1 v -1 h -1 -1 v -1 -1 h -1 v 1 1 1 1 1 z m 0,-5 h 1 1 1 v -1 h -1 -1 -1 z m 2,3 v 1 h 1 1 1 1 1 1 1 v -1 h -1 -1 -1 -1 -1 -1 z"
       transform="translate(0,-0.5)"
       inkscape:connector-curvature="0" />
    <path
       id="rect2363"
       style="fill:#1a1a1a;fill-opacity:1;stroke:none;stroke-width:0.75590599;stroke-linecap:round;stroke-linejoin:round;stroke-miterlimit:4;stroke-dasharray:none"
       d="m 49.148438,4.2558594 v 1 1 h 1 v -1 -1 z m 0,3 v 1 h -1 v 1 h -1 v 0.9999996 h 1 1 V 9.2558594 h 1 v -1 -1 z"
       transform="translate(0,-0.5)"
       inkscape:connector-curvature="0" />
    <path
       id="rect2365"
       style="fill:#333333;fill-opacity:1;stroke:none;stroke-width:0.75590599;stroke-linecap:round;stroke-linejoin:round;stroke-miterlimit:4;stroke-dasharray:none"
       d="m 48.148438,4.2558594 v 1 1 h 1 v -1 -1 z m 0,2 h -1 v 1 h 1 z m 0,1 v 1 h 1 v -1 z m 0,1 h -1 v 1 h 1 z m -1,1 h -1 v 0.9999996 h 1 z"
       transform="translate(0,-0.5)"
       inkscape:connector-curvature="0" />
    <path
       id="rect2367"
       style="fill:#4d4d4d;fill-opacity:1;stroke:none;stroke-width:0.75590599;stroke-linecap:round;stroke-linejoin:round;stroke-miterlimit:4;stroke-dasharray:none"
       d="m 43.148438,3.2558594 v 1 h -1 v 1 h -1 v 1 h 1 1 v 1 h 1 1 1 1 v -1 h 1 v -1 -1 h -1 v -1 h -1 -1 -1 z m -1,5 v 1 h -1 v 0.9999996 h 1 1 1 1 1 V 9.2558594 h 1 v -1 h -1 -1 -1 -1 z"
       transform="translate(0,-0.5)"
       inkscape:connector-curvature="0" />
    <path
       id="rect2371"
       style="fill:#666666;fill-opacity:1;stroke:none;stroke-width:0.75590599;stroke-linecap:round;stroke-linejoin:round;stroke-miterlimit:4;stroke-dasharray:none"
       d="m 42.148438,3.2558594 v 1 h 1 v -1 z m 0,1 h -1 v 1 h 1 z m -1,1 h -1 v 1 h 1 z m 0,1 v 1 h 1 1 v -1 h -1 z m 0,1 h -1 v 1 h -1 v 1 h 1 v 0.9999996 h 1 V 9.2558594 h 1 v -1 h -1 z"
       transform="translate(0,-0.5)"
       inkscape:connector-curvature="0" />
    <path
       id="rect2375"
       style="fill:#808080;fill-opacity:1;stroke:none;stroke-width:0.75590599;stroke-linecap:round;stroke-linejoin:round;stroke-miterlimit:4;stroke-dasharray:none"
       d="m 39.148438,4.2558594 v 1 1 h 1 v -1 h 1 v -1 h -1 z m 0,3 v 1 h 1 v -1 z"
       transform="translate(0,-0.5)"
       inkscape:connector-curvature="0" />
    <path
       transform="translate(0,-0.5)"
       d="m 42.148438,2.2558594 v 1 h 1 1 1 1 1 v -1 h -1 -1 -1 -1 z m 5,1 v 1 h 1 1 1 v -1 h -1 -1 z m 3,1 v 1 1 h -1 -1 v 1 h 1 1 v 1 1 h 1 v -1 -1 -1 -1 -1 z m 0,5 h -1 v 0.9999996 h 1 z m -1,0.9999996 h -1 -1 -1 -1 -1 -1 -1 -1 -1 v 1 h 1 1 1 1 1 1 1 1 1 z m -9,0 V 9.2558594 h -1 v 0.9999996 z m -1,-0.9999996 v -1 -1 h 1 1 v -1 h -1 -1 v -1 -1 h -1 v 1 1 1 1 1 z m 0,-5 h 1 1 1 v -1 h -1 -1 -1 z m 2,3 v 1 h 1 1 1 1 1 1 1 v -1 h -1 -1 -1 -1 -1 -1 z"
       style="fill:#000000;stroke:none;stroke-width:0.75590599;stroke-linecap:round;stroke-linejoin:round;stroke-miterlimit:4;stroke-dasharray:none"
       id="path2634"
       inkscape:connector-curvature="0" />
    <path
       transform="translate(0,-0.5)"
       d="m 49.148438,4.2558594 v 1 1 h 1 v -1 -1 z m 0,3 v 1 h -1 v 1 h -1 v 0.9999996 h 1 1 V 9.2558594 h 1 v -1 -1 z"
       style="fill:#1a1a1a;fill-opacity:1;stroke:none;stroke-width:0.75590599;stroke-linecap:round;stroke-linejoin:round;stroke-miterlimit:4;stroke-dasharray:none"
       id="path2636"
       inkscape:connector-curvature="0" />
    <path
       transform="translate(0,-0.5)"
       d="m 48.148438,4.2558594 v 1 1 h 1 v -1 -1 z m 0,2 h -1 v 1 h 1 z m 0,1 v 1 h 1 v -1 z m 0,1 h -1 v 1 h 1 z m -1,1 h -1 v 0.9999996 h 1 z"
       style="fill:#333333;fill-opacity:1;stroke:none;stroke-width:0.75590599;stroke-linecap:round;stroke-linejoin:round;stroke-miterlimit:4;stroke-dasharray:none"
       id="path2638"
       inkscape:connector-curvature="0" />
    <path
       transform="translate(0,-0.5)"
       d="m 43.148438,3.2558594 v 1 h -1 v 1 h -1 v 1 h 1 1 v 1 h 1 1 1 1 v -1 h 1 v -1 -1 h -1 v -1 h -1 -1 -1 z m -1,5 v 1 h -1 v 0.9999996 h 1 1 1 1 1 V 9.2558594 h 1 v -1 h -1 -1 -1 -1 z"
       style="fill:#4d4d4d;fill-opacity:1;stroke:none;stroke-width:0.75590599;stroke-linecap:round;stroke-linejoin:round;stroke-miterlimit:4;stroke-dasharray:none"
       id="path2640"
       inkscape:connector-curvature="0" />
    <path
       transform="translate(0,-0.5)"
       d="m 42.148438,3.2558594 v 1 h 1 v -1 z m 0,1 h -1 v 1 h 1 z m -1,1 h -1 v 1 h 1 z m 0,1 v 1 h 1 1 v -1 h -1 z m 0,1 h -1 v 1 h -1 v 1 h 1 v 0.9999996 h 1 V 9.2558594 h 1 v -1 h -1 z"
       style="fill:#666666;fill-opacity:1;stroke:none;stroke-width:0.75590599;stroke-linecap:round;stroke-linejoin:round;stroke-miterlimit:4;stroke-dasharray:none"
       id="path2642"
       inkscape:connector-curvature="0" />
    <path
       transform="translate(0,-0.5)"
       d="m 39.148438,4.2558594 v 1 1 h 1 v -1 h 1 v -1 h -1 z m 0,3 v 1 h 1 v -1 z"
       style="fill:#808080;fill-opacity:1;stroke:none;stroke-width:0.75590599;stroke-linecap:round;stroke-linejoin:round;stroke-miterlimit:4;stroke-dasharray:none"
       id="path2644"
       inkscape:connector-curvature="0" />
  </g>
</svg>
