<?xml version="1.0" encoding="UTF-8"?>
<svg width="50mm" height="50mm" clip-rule="evenodd" fill-rule="evenodd" image-rendering="optimizeQuality" shape-rendering="geometricPrecision" text-rendering="geometricPrecision" version="1.1" viewBox="0 0 50 50" xmlns="http://www.w3.org/2000/svg" xmlns:cc="http://creativecommons.org/ns#" xmlns:dc="http://purl.org/dc/elements/1.1/" xmlns:rdf="http://www.w3.org/1999/02/22-rdf-syntax-ns#">
 <metadata>
  <rdf:RDF>
   <cc:Work rdf:about="">
    <dc:format>image/svg+xml</dc:format>
    <dc:type rdf:resource="http://purl.org/dc/dcmitype/StillImage"/>
    <dc:title/>
   </cc:Work>
  </rdf:RDF>
 </metadata>
 <g transform="translate(234.18 594.89)">
  <path d="m-218.58-556.5c-3.8003 2.0594-4.1456 2.9933-4.1456 7.1295 9.0173 0.15151 18.034 0.0594 27.051 0 0.10437-4.1586 0.3424-5.2041-4.1471-7.1295z" fill="#4d443f" stroke="#000" stroke-linejoin="round" stroke-width=".8"/>
  <path d="m-203.72-556.5c4.4895 1.9255 4.2511 2.971 4.1468 7.1296 0 0 1.0025-2e-3 3.9026 0 0.10439-4.1587 0.34228-5.2042-4.1472-7.1296z" opacity=".25"/>
  <g transform="matrix(1.0937 0 0 1.0038 19.607 2.1162)" stroke-width=".95438">
   <path d="m-209.2-585.7s-2.4506 0.88181-2.4504 1.9694c9.6e-4 0.66995 0.42574 1.2935 1.1275 1.6552-8.1966 12.496-12.173 16.133-5.3688 25.575h13.383c5.6699-7.868 3.8402-11.722-1.6648-20.012-2.4596 3.4097-4.0763 9.3641-4.0763 9.3641l-2.2734-0.98164c1.0045-3.9001 3.0728-8.3742 4.7621-10.762-0.67154-1.0021-1.3692-2.0448-2.1157-3.1828 0.70208-0.3621 1.1267-0.98637 1.1268-1.6567 2.3e-4 -1.0876-2.4504-1.9694-2.4504-1.9694z" fill="#4d443f" stroke="#000" stroke-width=".76351"/>
   <path d="m-209.2-585.7c0.86141 1.3668 2.1678 2.4166 0.0269 3.6264l1.9399 3.2158c-1.4546 0.97831-3.7332 6.7296-3.283 10.728l-1e-5 1.2e-4s-0.13104 0.43495 0 0c0.99938-3.9001 3.0576-8.3741 4.7382-10.762-0.6681-1.0021-1.3626-2.0448-2.1053-3.1828 0.6985-0.36211 1.1212-0.98639 1.1214-1.6567 2.2e-4 -1.0876-2.4381-1.9696-2.4381-1.9696zm5.0013 9.1883c-0.36404 0.50723-0.41924 0.55863-0.74362 1.1505 4.6044 7.1757 5.0635 11.307-0.88612 18.861h3.286c5.641-7.868 3.8207-11.722-1.6562-20.012z" opacity=".25"/>
  </g>
 </g>
</svg>
