<svg xmlns="http://www.w3.org/2000/svg" fill-rule="evenodd" clip-rule="evenodd" image-rendering="optimizeQuality" shape-rendering="geometricPrecision" text-rendering="geometricPrecision" viewBox="0 0 50 50"><path fill="#5f5955" stroke="#1e1e1e" stroke-linecap="round" stroke-width="1.2" d="M27.67 15.22v-3.54h4.44V7.25h-4.93V3.36H22.8v3.9h-4.93v4.42h4.44v3.55"/><rect width="9.4" height="2.79" x="20.3" y="14.21" fill="#5f5955" stroke="#1e1e1e" stroke-linejoin="round" stroke-width="1.2" ry="1.39"/><path d="M26.42 14.21c.72 0 1.3.63 1.3 1.4 0 .77-.58 1.4-1.3 1.4h1.97c.72 0 1.3-.63 1.3-1.4 0-.77-.58-1.4-1.3-1.4z" opacity=".18"/><path fill="#fff" d="M21.63 14.84c-.4 0-.72.35-.72.78 0 .42.32.77.72.77h.88c-.4 0-.73-.35-.73-.78 0-.42.32-.77.72-.77z" opacity=".25"/><path fill="#5f5955" stroke="#1e1e1e" stroke-linecap="round" stroke-width="1.2" d="M33.63 36.99s7.78-13.32 6.62-15.92c-1.17-2.6-8.48-4.5-15.25-4.5s-14.08 1.9-15.25 4.5c-1.16 2.6 6.61 15.92 6.61 15.92z"/><path d="M25 16.58c15.93 2.62 12.57 9.35 6.64 22.54l2.02-1.73s7.75-13.72 6.59-16.32c-1.55-2.83-7.5-4.16-15.25-4.5z" opacity=".18"/><path fill="#fff" d="M23.77 17.3c-3.9-.19-14.63 1.8-13.5 5.01.8 3.73 2.75 7.25 4.5 10.5-5.69-10.33-5.94-13.77 9-15.52zM23.39 4l-.02 3.3h.55l.02-3.3zm-4.93 3.87v3.2h.77v-3.2zm4.41 3.21.03 2.49h.52l-.03-2.49z" opacity=".25"/><path d="M26.19 3.36v3.9h.99v-3.9zm4.44 3.9v4.94h1.48V7.25zm-4.44 4.42v2.5h1.48v-2.5z" opacity=".18"/><path fill="#5f5955" stroke="#1e1e1e" stroke-linejoin="round" stroke-width="1.2" d="M25 36.46s-9.13.04-11.7 1.62c-1.72 1.06-2.13 3.65-1.9 6.32h27.2c.23-2.67-.18-5.26-1.9-6.32C34.12 36.5 25 36.46 25 36.46z"/><path fill="#fff" d="M25 37.15S16.29 37 13.38 38.8c-.37.23-.7.84-.96 1.4.26-.34.5-.62.89-.86C15.87 37.78 25 37.73 25 37.73s9.13.05 11.7 1.62c.38.24.58.54.85.87a3 3 0 0 0-1.15-1.6C33.65 37.15 25 37.16 25 37.16z" opacity=".25"/></svg>