<?xml version="1.0" encoding="UTF-8"?>
<svg width="50mm" height="50mm" clip-rule="evenodd" fill-rule="evenodd" image-rendering="optimizeQuality" shape-rendering="geometricPrecision" text-rendering="geometricPrecision" version="1.1" viewBox="0 0 50 50" xmlns="http://www.w3.org/2000/svg" xmlns:cc="http://creativecommons.org/ns#" xmlns:dc="http://purl.org/dc/elements/1.1/" xmlns:rdf="http://www.w3.org/1999/02/22-rdf-syntax-ns#" xmlns:xlink="http://www.w3.org/1999/xlink">
 <defs>
  <linearGradient id="linearGradient3438" x1="408.47" x2="424.92" y1="-130.04" y2="-130.04" gradientTransform="matrix(1 0 0 1.0265 -391.7 143.35)" gradientUnits="userSpaceOnUse" xlink:href="#1"/>
  <linearGradient id="1">
   <stop stop-color="#78706b" offset="0"/>
   <stop stop-color="#45403d" offset="1"/>
  </linearGradient>
  <linearGradient id="linearGradient3440" x1="411.07" x2="422.33" y1="-123.57" y2="-123.57" gradientTransform="matrix(1 0 0 1.0265 -391.7 143.35)" gradientUnits="userSpaceOnUse" xlink:href="#1"/>
  <linearGradient id="linearGradient3442" x1="399.62" x2="433.78" y1="-112.12" y2="-112.12" gradientTransform="matrix(1 0 0 1.0265 -391.7 143.35)" gradientUnits="userSpaceOnUse" xlink:href="#1"/>
  <linearGradient id="linearGradient3444" x1="399.17" x2="427.68" y1="-87.433" y2="-87.433" gradientTransform="translate(-388.43 129.86)" gradientUnits="userSpaceOnUse" xlink:href="#1"/>
 </defs>
 <metadata>
  <rdf:RDF>
   <cc:Work rdf:about="">
    <dc:format>image/svg+xml</dc:format>
    <dc:type rdf:resource="http://purl.org/dc/dcmitype/StillImage"/>
    <dc:title/>
   </cc:Work>
  </rdf:RDF>
 </metadata>
 <g>
  <path d="m27.865 16.096v-3.7273h4.7615v-4.659h-5.2922v-4.0952h-4.6826v4.0952h-5.2922v4.659h4.7615v3.7273" clip-rule="evenodd" fill="url(#linearGradient3438)" fill-rule="evenodd" image-rendering="optimizeQuality" shape-rendering="geometricPrecision" stroke="#1e1e1e" stroke-linecap="round" stroke-width="1.2"/>
  <rect x="19.96" y="15.034" width="10.08" height="2.9319" ry="1.4659" fill="url(#linearGradient3440)" stroke="#1e1e1e" stroke-linejoin="round" stroke-width="1.2" style="paint-order:normal"/>
  <path d="m26.52 15.034c0.77735 0 1.403 0.65364 1.403 1.4658 0 0.81212-0.62566 1.4658-1.403 1.4658h2.1167c0.77734 0 1.403-0.65366 1.403-1.4658 0-0.81214-0.62566-1.4658-1.403-1.4658z" opacity=".18" style="paint-order:normal"/>
  <path d="m21.388 15.694c-0.43082 0-0.77756 0.36255-0.77756 0.81265 0 0.45006 0.34674 0.81232 0.77756 0.81232h0.93715c-0.43082 0-0.77756-0.36226-0.77756-0.81232 0-0.4501 0.34674-0.81265 0.77756-0.81265z" fill="#fff" opacity=".25" style="paint-order:normal"/>
 </g>
 <g clip-rule="evenodd" fill-rule="evenodd" shape-rendering="geometricPrecision">
  <path d="m34.263 38.986s8.3399-14.009 7.0922-16.741c-1.2476-2.731-9.0951-4.7306-16.354-4.7306s-15.106 1.9989-16.354 4.7306c-1.2476 2.7313 7.0922 16.741 7.0922 16.741z" fill="url(#linearGradient3442)" image-rendering="optimizeQuality" stroke="#1e1e1e" stroke-linecap="round" stroke-width="1.2"/>
  <g>
   <path d="m24.997 17.517c5.0188 0.21026 11.653 3.0687 12.743 5.4551 1.2476 2.7314-7.5333 16.016-7.5333 16.016l4.0863 0.42292s8.309-14.435 7.0613-17.166c-1.6573-2.9804-8.0468-4.3748-16.358-4.7275z" image-rendering="optimizeQuality" opacity=".18"/>
   <path d="m23.677 18.273c-4.1871-0.19392-15.681 1.8948-14.482 5.2768 1.2641 5.6544 5.0265 10.848 7.0951 15.436l0.81865-0.16568c-6.8967-14.701-11.467-18.601 6.5681-20.547z" fill="#fff" image-rendering="optimizeQuality" opacity=".25"/>
   <path d="m23.275 4.2862-0.0173 4.0406h0.58522l0.0174-4.0406zm-5.2887 4.0706-8e-3 3.3741h0.82922l8e-3 -3.3741zm4.7328 3.3796 0.0276 2.6148h0.55771l-0.0276-2.6148z" fill="#fff" image-rendering="optimizeQuality" opacity=".25"/>
  </g>
  <path d="m26.276 3.6143-2e-5 4.0954h1.0583l3e-5 -4.0954zm4.763 4.0956v5.2018h1.5875v-5.2018zm-4.7615 4.6588 3e-5 2.6216h1.5875l-3e-5 -2.6216z" image-rendering="optimizeQuality" opacity=".18"/>
  <path d="m25.001 38.457s-9.1309 0.0481-11.691 1.6192c-1.7273 1.0602-2.1348 3.6514-1.8998 6.3237h27.182c0.23495-2.6723-0.17255-5.2636-1.8999-6.3237-2.5597-1.5711-11.691-1.6192-11.691-1.6192z" fill="url(#linearGradient3444)" image-rendering="optimizeQuality" stroke="#1e1e1e" stroke-linejoin="round" stroke-width="1.2"/>
  <path d="m25.001 39.147s-8.7121-0.13732-11.624 1.6658c-0.36985 0.22905-0.69925 0.83944-0.95359 1.3902 0.26077-0.3313 0.50213-0.61301 0.88663-0.84901 2.5598-1.5711 11.691-1.6191 11.691-1.6191s9.1318 0.0479 11.692 1.6191c0.39104 0.24 0.59243 0.53161 0.85561 0.87009 0.0258-0.0759-0.40837-1.1578-1.1438-1.5962-2.7554-1.492-11.403-1.4808-11.403-1.4808z" fill="#fff" image-rendering="optimizeQuality" opacity=".25"/>
 </g>
</svg>
