<?xml version="1.0" encoding="UTF-8"?>
<svg width="50mm" height="50mm" clip-rule="evenodd" fill-rule="evenodd" image-rendering="optimizeQuality" shape-rendering="geometricPrecision" text-rendering="geometricPrecision" version="1.1" viewBox="0 0 50 50" xmlns="http://www.w3.org/2000/svg" xmlns:cc="http://creativecommons.org/ns#" xmlns:dc="http://purl.org/dc/elements/1.1/" xmlns:rdf="http://www.w3.org/1999/02/22-rdf-syntax-ns#">
 <metadata>
  <rdf:RDF>
   <cc:Work rdf:about="">
    <dc:format>image/svg+xml</dc:format>
    <dc:type rdf:resource="http://purl.org/dc/dcmitype/StillImage"/>
    <dc:title/>
   </cc:Work>
  </rdf:RDF>
 </metadata>
 <g transform="translate(507.88 614.76)">
  <path d="m-490.69-576.48c-3.8003 2.0594-4.1456 2.9933-4.1456 7.1295 9.0173 0.15151 18.034 0.0594 27.051 0 0.10437-4.1586 0.3424-5.2041-4.1471-7.1295z" fill="#7a6c62" stroke="#191919" stroke-linejoin="round"/>
  <g stroke="#000">
   <path d="m-484.38-589.92 1.0581-1.6893m11.107 15.132s4.1034-7.8624 1.5501-15.862c-1.3084-4.0995-4.3649-8.2351-10.617-11.367-0.97579-0.48883-2.9282-2.159-2.9282-2.159-0.73466 1.0628-0.74685 3.799-0.74685 3.799l-4.0795 1.1691s-0.85637 2.9156-8.8972 7.8317l-0.0864 3.793 0.9499 1.0318 1.9452-0.99332 0.7997 0.98908-1.5711 0.95545 2.1217 1.6236 2.0124-0.65448 0.46698-2.2275 6.9161-1.3718c0.55164 5.7852-6.0266 8.2674-6.0266 8.2674l-3e-5 5.1754z" fill="#7a6c62" stroke-linecap="round" stroke-linejoin="round"/>
   <ellipse cx="-486.29" cy="-597.47" rx="1.0129" ry="1.0361" fill="none" stroke-linecap="round" stroke-linejoin="round" stroke-width=".8" style="paint-order:normal"/>
   <path d="m-496.83-591.4s0.30257 0.75211 0.54462 0.68945c0.24206-0.0628 0.92788-1.1909 0.62531-1.2326-0.30257-0.0418-1.1699 0.5432-1.1699 0.5432z" stroke-width=".26458px"/>
   <path d="m-484.96-602.07s3.3761-2.2076 5.3924-2.8396c0.44013 1.6317 0.52374 3.1416-0.82235 4.9714" fill="#7a6c62" stroke-linejoin="round"/>
  </g>
  <path d="m-478.81-601.78c12.087 10.04 3.0997 25.421 2.036 25.299h4.5556s8.004-16.134-6.5916-25.299z" opacity=".25"/>
  <path d="m-475.83-576.48c4.4895 1.9255 4.2511 2.971 4.1468 7.1296 0 0 1.0025-2e-3 3.9026 0 0.10439-4.1587 0.34228-5.2042-4.1472-7.1296z" opacity=".25"/>
 </g>
</svg>
