<?xml version="1.0" encoding="UTF-8"?>
<svg width="50mm" height="50mm" clip-rule="evenodd" fill-rule="evenodd" image-rendering="optimizeQuality" shape-rendering="geometricPrecision" text-rendering="geometricPrecision" version="1.1" viewBox="0 0 50 50" xmlns="http://www.w3.org/2000/svg" xmlns:cc="http://creativecommons.org/ns#" xmlns:dc="http://purl.org/dc/elements/1.1/" xmlns:rdf="http://www.w3.org/1999/02/22-rdf-syntax-ns#">
 <metadata>
  <rdf:RDF>
   <cc:Work rdf:about="">
    <dc:format>image/svg+xml</dc:format>
    <dc:type rdf:resource="http://purl.org/dc/dcmitype/StillImage"/>
    <dc:title/>
   </cc:Work>
  </rdf:RDF>
 </metadata>
 <g transform="translate(500.07 -348.65)">
  <g transform="translate(15.154 -10.29)">
   <g transform="translate(-221.8 421.54)">
    <g>
     <path d="m-256.28-20.857c-6.1431-10.009 6.3371-28.02-15.158-31.706 0 0-3.7011-2.4929-6.9294-1.9528l1.084 4.4278-8.3191 14.36s-1.8739 4.193 5.4669 5.9248c3.8405-4.7113 7.5342-4.937 9.1344-7.8834 1.0638 4.7796-12.346 9.5608-7.9936 16.829z" fill="#5f5955" stroke="#1e1e1e" stroke-linejoin="round" stroke-width="1.2"/>
     <path d="m-277.66-43.402c-0.0972-0.14874 0.0856-2.3248 3.3133-2.1105-1.2884 4.2107-3.3133 2.1105-3.3133 2.1105z" opacity=".4"/>
     <path d="m-284.47-34.749 0.7558 1.0003c0.3935-0.18404 0.81489-1.5936-0.04-1.8973l-0.71599 0.89706z" clip-rule="evenodd" fill-rule="evenodd" image-rendering="optimizeQuality" opacity=".35" shape-rendering="geometricPrecision"/>
     <path d="m-278.37-54.516c0.08 0.50162-0.028-0.41503 0 0 3.478 1.0267 7.1456 3.6811 6.2262 3.5003 19.741 3.81 6.6867 17.831 9.5112 30.158h6.35c-5.3306-10.761 5.3208-30.021-15.158-31.706 0 0-3.9447-1.6789-6.9294-1.9528z" fill="#0d0d0c" opacity=".18"/>
    </g>
    <path d="m-281.45-30.17 1.3187 0.36739c3.1548-4.1781 14.636-7.4659 10.479-15.524 0.93581 7.9732-11.586 10.698-11.798 15.157z" clip-rule="evenodd" fill-rule="evenodd" image-rendering="optimizeQuality" opacity=".18" shape-rendering="geometricPrecision"/>
    <path d="m-269.21-39.794c-0.11246 0.29678-0.94041 1.8094-1.2061 1.9466 1.445 4.236-9.1561 9.0944-8.7928 14.233 0.68233-5.0811 12.804-9.2694 9.9989-16.179z" clip-rule="evenodd" fill="#fff" fill-rule="evenodd" image-rendering="optimizeQuality" opacity=".25" shape-rendering="geometricPrecision"/>
    <path d="m-276.63-49.998-8.4288 14.553s-0.95882 2.514 2.3386 4.1042c0 0-2.1336-1.782-1.7478-3.4074l9.0851-15.489-2.2352-3.742z" fill="#fff" opacity=".25"/>
   </g>
  </g>
  <g transform="translate(66.216 -11.305)" clip-rule="evenodd" fill-rule="evenodd" shape-rendering="geometricPrecision">
   <path d="m-541.28 398.41s-9.1309 0.0481-11.691 1.6192c-1.7273 1.0602-2.1348 3.6514-1.8998 6.3237h27.182c0.23495-2.6723-0.17255-5.2636-1.8999-6.3237-2.5597-1.5711-11.691-1.6192-11.691-1.6192z" fill="#5f5955" image-rendering="optimizeQuality" stroke="#1e1e1e" stroke-linejoin="round" stroke-width="1.2"/>
   <path d="m-541.28 399.1s-8.7121-0.13732-11.624 1.6658c-0.36985 0.22905-0.69925 0.83944-0.95359 1.3902 0.26077-0.3313 0.50213-0.61301 0.88663-0.84901 2.5598-1.5711 11.691-1.6191 11.691-1.6191s9.1318 0.0479 11.692 1.6191c0.39104 0.24 0.59243 0.53161 0.85561 0.87009 0.0258-0.0759-0.40837-1.1578-1.1438-1.5962-2.7554-1.492-11.403-1.4808-11.403-1.4808z" fill="#fff" image-rendering="optimizeQuality" opacity=".25"/>
  </g>
 </g>
</svg>
