<?xml version="1.0" encoding="UTF-8"?>
<svg width="50mm" height="50mm" clip-rule="evenodd" fill-rule="evenodd" image-rendering="optimizeQuality" shape-rendering="geometricPrecision" text-rendering="geometricPrecision" version="1.1" viewBox="0 0 50 50" xmlns="http://www.w3.org/2000/svg" xmlns:cc="http://creativecommons.org/ns#" xmlns:dc="http://purl.org/dc/elements/1.1/" xmlns:rdf="http://www.w3.org/1999/02/22-rdf-syntax-ns#">
 <metadata>
  <rdf:RDF>
   <cc:Work rdf:about="">
    <dc:format>image/svg+xml</dc:format>
    <dc:type rdf:resource="http://purl.org/dc/dcmitype/StillImage"/>
    <dc:title/>
   </cc:Work>
  </rdf:RDF>
 </metadata>
 <path d="m21.503 27.595h6.9944m-9.4974-10.086c0 1.7315 0.7123 3.3873 1.9657 4.587l-3.6504 2.0999 0.43091 3.3988h4.3059c-0.79438 3.559-2.7548 7.3308-5.0622 8.6173s-5.2994 3.0968-4.8425 8.189l25.706 2.1e-5c0.45687-5.0922-2.5352-6.9025-4.8425-8.189-2.3074-1.2865-4.2678-5.0583-5.0622-8.6173h4.3059l0.43091-3.3988-3.6503-2.0999c1.2533-1.1996 1.9655-2.8554 1.9655-4.5869 3.11e-4 -3.3667-2.628-5.9118-6.0006-5.9118-3.3726-1.1e-5 -6.0008 2.545-6.0006 5.9117z" fill="#5f5955" stroke="#1e1e1e" stroke-width="1.2"/>
 <g transform="matrix(.23703 0 0 .25755 -1303.7 1015.7)" stroke-width="1.0709">
  <g transform="matrix(3.7797 0 0 3.7788 5511 -3938.6)" clip-rule="evenodd" fill-rule="evenodd" image-rendering="optimizeQuality" shape-rendering="geometricPrecision" stroke-width="1.0709">
   <g transform="matrix(.26458 0 0 .26458 -750.81 976.17)" stroke-width="1.0709">
    <path d="m2932.2-3649.8c4.9397-1.781 40.193 22.935 2.7301 41.836l19.035 8.1555-2.3718 12.136h11.216l1.8085-13.199-15.4-8.1552c5.2879-4.6585 8.2765-10.024 8.288-16.749-1.9781-21.033-25.306-24.024-25.306-24.024zm-12.439 62.128c18.995 30.811 39.952 38.812 55.156 38.698l-8.9255-5.231c-8.7539-5.7846-19.962-18.863-21.356-33.467z" opacity=".2" stroke-width="1.0709"/>
   </g>
  </g>
 </g>
 <g fill="#fff">
  <path d="m21.983 22.214-1.647 2.3466-2.3561-0.01371 4.013-2.3234z" opacity=".25"/>
  <path d="m24.307 12.268c-3.2223 0.17414-7.5215 4.9545-2.3141 9.956-3.5618-3.8182-0.53726-9.3138 2.3141-9.956z" opacity=".25"/>
  <path d="m18.393 37.626c-3.9839 2.3053-5.6462 6.1402-5.6462 6.1402-0.01037 0-0.54754-4.1751 3.9564-6.654 4.5039-2.4789 4.8215-6.1507 5.8602-8.8927-0.63708 3.7031-0.18656 7.1012-4.1704 9.4065z" opacity=".25"/>
 </g>
</svg>
