<?xml version="1.0" encoding="UTF-8"?>
<svg width="50mm" height="50mm" clip-rule="evenodd" fill-rule="evenodd" image-rendering="optimizeQuality" shape-rendering="geometricPrecision" text-rendering="geometricPrecision" version="1.1" viewBox="0 0 50 50" xmlns="http://www.w3.org/2000/svg" xmlns:cc="http://creativecommons.org/ns#" xmlns:dc="http://purl.org/dc/elements/1.1/" xmlns:rdf="http://www.w3.org/1999/02/22-rdf-syntax-ns#">
 <metadata>
  <rdf:RDF>
   <cc:Work rdf:about="">
    <dc:format>image/svg+xml</dc:format>
    <dc:type rdf:resource="http://purl.org/dc/dcmitype/StillImage"/>
    <dc:title/>
   </cc:Work>
  </rdf:RDF>
 </metadata>
 <path d="m21.63 27.596h6.741m-9.1533-9.2635c0 1.6784 0.6865 3.2835 1.8945 4.4463l-3.5182 2.0355 0.4153 2.7816h4.1499c-0.7656 3.4499-2.655 7.619-4.8788 8.8661s-5.1074 3.0019-4.6671 7.938l24.774 2e-5c0.44032-4.936-2.4434-6.6909-4.6671-7.938-2.2238-1.2471-4.1132-5.4162-4.8788-8.8661h4.1499l0.4153-2.7816-3.5181-2.0355c1.2079-1.1629 1.8943-2.7679 1.8943-4.4463 3e-4 -3.2635-2.5328-5.7305-5.7832-5.7305-3.2504-1e-5 -5.7834 2.467-5.7832 5.7305z" fill="#584e48" stroke="#1e1e1e" stroke-width="1.2"/>
 <path d="m25.001 12.602c1.1285-0.44453 9.1821 5.7245 0.62369 10.442l4.3485 2.0356-0.54184 2.5163h2.5624l0.41315-2.7816-3.5181-2.0355c1.208-1.1628 1.8908-2.502 1.8934-4.1805-0.4519-5.2497-5.7812-5.9963-5.7812-5.9963zm-2.8418 14.994c0.1755 9.7047 15.675 8.1266 15.757 17.07h-0.52916c0.5881-5.7375-3.0779-7.1386-5.7854-9.0933-1.9998-1.4438-2.912-4.3313-3.2304-7.9764z" clip-rule="evenodd" fill-rule="evenodd" image-rendering="optimizeQuality" opacity=".2" shape-rendering="geometricPrecision" stroke-width=".26458"/>
 <g fill="#fff">
  <path d="m22.092 22.893-1.5873 2.2747-2.2707-0.01329 3.8676-2.2521z" opacity=".25"/>
  <path d="m24.332 13.251c-3.1056 0.1688-7.249 4.8026-2.2303 9.6508-3.4328-3.7012-0.5178-9.0282 2.2303-9.6508z" opacity=".25"/>
  <path d="m18.122 37.832c-3.8396 2.2346-4.9317 5.952-4.9317 5.952-0.01 0-0.5277-4.0472 3.8131-6.45 4.3407-2.4029 4.6468-6.4751 5.6479-9.1331-0.614 3.5896-0.6898 7.3965-4.5293 9.6311z" opacity=".25"/>
 </g>
</svg>
