<?xml version="1.0" encoding="UTF-8"?>
<svg width="50mm" height="50mm" clip-rule="evenodd" fill-rule="evenodd" image-rendering="optimizeQuality" shape-rendering="geometricPrecision" text-rendering="geometricPrecision" version="1.1" viewBox="0 0 50 50" xmlns="http://www.w3.org/2000/svg" xmlns:cc="http://creativecommons.org/ns#" xmlns:dc="http://purl.org/dc/elements/1.1/" xmlns:rdf="http://www.w3.org/1999/02/22-rdf-syntax-ns#">
 <metadata>
  <rdf:RDF>
   <cc:Work rdf:about="">
    <dc:format>image/svg+xml</dc:format>
    <dc:type rdf:resource="http://purl.org/dc/dcmitype/StillImage"/>
    <dc:title/>
   </cc:Work>
  </rdf:RDF>
 </metadata>
 <g transform="translate(363.69 -385.18)">
  <g transform="matrix(1.0519 0 0 1.0515 17.588 -21.188)" stroke-width=".95084">
   <path d="m-341.79 410.62c-1.1297 8.3887-3.8718 7.1702-5.3894 10.877h16.986c-1.5176-3.707-4.2597-2.4885-5.3894-10.877h-3.1038z" fill="#584e48" stroke="#1e1e1e" stroke-linejoin="round" stroke-width="1.141"/>
   <path d="m-339.13 410.62c-0.51217 4.7501 9.1815 9.9298 8.773 10.877 0.60423-1.0658-5.3449-4.358-5.2301-10.877z" opacity=".25"/>
   <g transform="matrix(1.0891 0 0 1.0891 30.092 -36.585)" stroke-width=".87305">
    <path d="m-338.61 395.94c-2.8588 2e-5 -5.176 2.2737-5.176 5.0786 0 1.6859 0.85387 3.2618 2.2774 4.206l-4.0027 2.4681 0.5389 2.9237h12.725l0.53841-2.9237-4.0022-2.4681c1.4235-0.94421 2.2774-2.5201 2.2774-4.206 0-2.8049-2.3178-5.0786-5.1765-5.0786z" fill="#584e48" stroke="#1e1e1e" stroke-width="1.0477"/>
    <path d="m-338.79 396.02c-0.55214 0-1.0848 0.0808-1.5875 0.22945 6.1536 0.19034 6.9367 5.7371 2.0164 8.9824l3.7486 2.8464-0.18552 2.5455 2.5466-2e-5 0.53841-2.9237-4.0022-2.4681c1.5098-1.0003 2.4154-2.6699 2.4154-4.456 0-2.9717-2.4582-4.7558-5.4901-4.7558z" opacity=".25"/>
    <path d="m-339.36 405.25s-3.5034 2.1043-4.9623 2.7151l-0.59635-0.0117 4.3674-2.6952z" fill="#fff" opacity=".25"/>
    <path d="m-339.32 396.51c-2.3627 1e-3 -6.4406 4.5217-1.8228 8.332-2.9404-3.0691-0.1945-7.6091 1.8228-8.332z" fill="#fff" opacity=".25"/>
   </g>
   <path d="m-346.25 420.92c0.96537-2.1094 4.0499-2.3257 4.9516-9.7336 0.0893 2.9161 1.0269 5.7209-4.9516 9.7336z" fill="#fff" opacity=".25"/>
  </g>
  <g transform="translate(-30.509 -.16118)">
   <path d="m-317.62 422.16c-4.9428 0-4.1709 7.4944-4.1709 7.4944 4.536 0.0797 9.072 0.0953 13.608 0.0832 4.5357 0.0121 9.0714-3e-3 13.607-0.0832 0 0 0.77187-7.4944-4.171-7.4944h-9.4364z" fill="#584e48" stroke="#1e1e1e" stroke-linejoin="round" stroke-opacity=".99983" stroke-width="1.2"/>
   <path d="m-301.89 422.16c4.9428 0 4.1709 7.4944 4.1709 7.4944h3.1464s0.77191-7.4944-4.1709-7.4944z" opacity=".25"/>
   <path d="m-316.93 422.77c-1.8169 0.30383-3.4063 1.8423-3.0285 6.3077l-1.2555-7e-3c0.0579-0.31974-0.49535-6.7226 4.284-6.3004z" fill="#fff" opacity=".25"/>
  </g>
 </g>
</svg>
