<?xml version="1.0" encoding="UTF-8"?>
<svg width="50mm" height="50mm" clip-rule="evenodd" fill-rule="evenodd" image-rendering="optimizeQuality" shape-rendering="geometricPrecision" text-rendering="geometricPrecision" version="1.1" viewBox="0 0 50 50" xmlns="http://www.w3.org/2000/svg" xmlns:cc="http://creativecommons.org/ns#" xmlns:dc="http://purl.org/dc/elements/1.1/" xmlns:rdf="http://www.w3.org/1999/02/22-rdf-syntax-ns#">
 <metadata>
  <rdf:RDF>
   <cc:Work rdf:about="">
    <dc:format>image/svg+xml</dc:format>
    <dc:type rdf:resource="http://purl.org/dc/dcmitype/StillImage"/>
    <dc:title/>
   </cc:Work>
  </rdf:RDF>
 </metadata>
 <g transform="translate(229.3 -385.17)">
  <ellipse cx="-204.3" cy="395.04" rx="3.1021" ry="2.7633" fill="#7a6c62" stroke="#000" stroke-linecap="round" stroke-linejoin="round" stroke-opacity=".99988" style="paint-order:normal"/>
  <path d="m-206.46 397.8c-7.3687 2.9183-9.3404 10.834-9.3404 10.834h23.01s-1.9721-7.9171-9.3426-10.835z" fill="#7a6c62" stroke="#000" stroke-linecap="round" stroke-linejoin="round" stroke-opacity=".99988"/>
  <path d="m-204.46 392.41s0.44795-0.30619-9e-5 1e-5c1.3739 1.1838 2.7771 3.1796 0.7211 5.3955 7.3705 2.9175 7.7885 10.834 7.7885 10.834h3.0188s-1.9719-7.917-9.3424-10.835c2.684-3.7276-0.22945-5.2739-2.186-5.3951z" opacity=".2"/>
  <path d="m-204.3 422.46v0h-8.2631c-0.16456-5.4462-2.8829-9.1814-6.8449-17.532 1.9301-1.3174 2.9808 1.9209 4.3457 1.2626 1.1928-0.57527 0.28467-3.3378 1.6545-3.7329 1.713-0.49401 3.4047 2.8636 5.316 2.4971 1.7601-0.33747 1.985-3.9652 3.7918-3.9652v0c1.8067 0 2.0316 3.6277 3.7917 3.9652 1.9114 0.36647 3.6031-2.9911 5.316-2.4971 1.3699 0.39507 0.46176 3.1576 1.6545 3.7329 1.3649 0.65827 2.4155-2.58 4.3457-1.2626-3.962 8.3502-6.6803 12.085-6.8449 17.532z" fill="#7a6c62" stroke="#000" stroke-linecap="round" stroke-linejoin="round" stroke-opacity=".99988"/>
  <path d="m-189.19 404.93s0.85114-0.29665-0.52034-0.25727c-7.4316 6.6616-8.8179 13.4-8.9562 17.789h2.6317c0.15362-4.8736 3.1461-10.059 6.8449-17.532z" opacity=".2"/>
  <g fill="#fff">
   <path d="m-211.8 402.29c-0.28444-0.0237 3.3649-3.495 5.4639-3.9871l2.6586 0.0234c-0.14489-0.0805-4.3204 0.98655-8.1225 3.9637z" opacity=".15"/>
   <path d="m-205.18 392.91c-0.20401-0.18001-3.4425 1.8688-0.54958 4.0224-0.61382-1.2936-0.84905-3.1601 0.54958-4.0224z" opacity=".15"/>
   <path d="m-218.77 405.1s-0.1819-0.61184 3.0096 1.7198c2.5945 0.42887 1.76-3.9284 2.2927-3.3362-1.3945 7.4223 1.3444 9.1578 2.5864 18.478 0.031 0.23284-1.2061-0.0464-1.1973-7e-3 0.45377-0.31486-2.0306-7.7246-2.1823-7.6924" opacity=".15"/>
  </g>
  <path d="m-213.27 422.46c-4.7002 0-3.9662 7.1283-3.9662 7.1283 4.3133 0.0758 8.6267 0.0906 12.94 0.0791 4.3131 0.0115 8.626-3e-3 12.939-0.0791 0 0 0.73397-7.1283-3.9662-7.1283h-8.9731z" fill="#7a6c62" stroke="#000" stroke-linejoin="round" stroke-opacity=".99983"/>
  <path d="m-198.32 422.46c4.7002 0 3.9662 7.1284 3.9662 7.1284h2.9919s0.73401-7.1284-3.9662-7.1284z" opacity=".2"/>
  <path d="m-212.61 422.96c-0.5324 0.0888-3.2391 1.8927-2.8798 6.1399l-1.275-5e-3c-0.27702-0.37684-0.2031-6.792 4.1548-6.1349z" fill="#fff" opacity=".15"/>
 </g>
</svg>
