<svg xmlns="http://www.w3.org/2000/svg" fill-rule="evenodd" clip-rule="evenodd" image-rendering="optimizeQuality" shape-rendering="geometricPrecision" text-rendering="geometricPrecision" viewBox="0 0 50 50"><path fill="#f0f0f0" stroke="#3c3c3c" stroke-linejoin="round" stroke-width="1.2" d="M25 5.77c-2.1 0-3.81.88-3.81 1.96l1.51 2.65C6.65 24.47 17 37.52 17 37.52h16s7.05-8.68.77-19.51l-3 4.82c-.66 1.09-1.96 1.5-2.9.91-.93-.57-1.14-1.91-.47-3l3.89-6.27a35.38 35.38 0 0 0-4-4.09l1.52-2.65c0-1.08-1.7-1.96-3.8-1.96z"/><path d="M25 5.77c-.82 0-1.57.13-2.2.36 4.35.84 4.99 1.12 2.57 4.35l3.24 3.56c-3.65 8.24-1.6 8-1.6 8s.7-2.65 4.11-7.77a35.7 35.7 0 0 0-3.82-3.89l1.51-2.65c0-1.08-1.7-1.96-3.81-1.96zM33.77 18l-1.01 1.52c3.73 8.41-4.14 18-4.14 18H33c.16.03 6.96-8.85.77-19.52z" opacity=".15"/><path fill="#fff" d="M15.14 31.72c-.22-.03-3.42-9.78 5.76-18.75-2.3 1.9-7.14 13.16-5.75 18.75zM23.3 10.2l-1.47-2.6s.24-.72 1.78-1.05c-1.73 1.35-1 1.67-.3 3.65z"/><path fill="#f0f0f0" stroke="#3c3c3c" stroke-linejoin="round" stroke-width="1.2" d="M25 36.46s-9.13.04-11.7 1.62c-1.72 1.06-2.13 3.65-1.9 6.32h27.2c.23-2.67-.18-5.26-1.9-6.32C34.12 36.5 25 36.46 25 36.46z"/><path fill="#fff" d="M25 37.15S16.29 37 13.38 38.8c-.37.23-.7.84-.96 1.4.26-.34.5-.62.89-.86C15.87 37.78 25 37.74 25 37.74s9.13.04 11.7 1.61c.38.24.58.54.85.87a3 3 0 0 0-1.15-1.6C33.65 37.15 25 37.16 25 37.16z"/></svg>