<?xml version="1.0" encoding="UTF-8"?>
<svg width="50mm" height="50mm" clip-rule="evenodd" fill-rule="evenodd" image-rendering="optimizeQuality" shape-rendering="geometricPrecision" text-rendering="geometricPrecision" version="1.1" viewBox="0 0 50 50" xmlns="http://www.w3.org/2000/svg" xmlns:cc="http://creativecommons.org/ns#" xmlns:dc="http://purl.org/dc/elements/1.1/" xmlns:rdf="http://www.w3.org/1999/02/22-rdf-syntax-ns#">
 <metadata>
  <rdf:RDF>
   <cc:Work rdf:about="">
    <dc:format>image/svg+xml</dc:format>
    <dc:type rdf:resource="http://purl.org/dc/dcmitype/StillImage"/>
    <dc:title/>
   </cc:Work>
  </rdf:RDF>
 </metadata>
 <g transform="translate(228.99 -271.16)">
  <path d="m-203.99 279.13s-2.6803 0.88517-2.68 1.9769c1e-3 0.6725 0.46564 1.2984 1.2332 1.6615-8.9648 12.543-13.314 16.194-5.872 25.673h14.638c6.2013-7.898 4.2001-11.237-1.8209-19.559-2.6901 3.4226-3.9144 8.8237-3.9144 8.8237l-3.0304-0.9386c1.0986-3.9149 3.3608-8.406 5.2084-10.803-0.73448-1.0059-1.4976-2.0526-2.314-3.1949 0.76788-0.36347 1.2322-0.99012 1.2324-1.663 2.5e-4 -1.0918-2.68-1.9769-2.68-1.9769z" fill="#f5e9da" stroke="#191919" stroke-opacity=".99982"/>
  <path d="m-203.99 279.13c0.94215 1.372 2.371 2.4258 0.0294 3.6402l2.1218 3.228c-1.5909 0.98203-4.083 6.7552-3.5907 10.769l-1e-5 1.2e-4s-0.14332 0.4366 0 0c1.093-3.9149 3.3441-8.406 5.1823-10.803-0.73072-1.0059-1.4903-2.0526-2.3026-3.1949 0.76397-0.36348 1.2263-0.99014 1.2265-1.663 2.4e-4 -1.0918-2.6666-1.9771-2.6666-1.9771zm5.47 9.2233c-0.39816 0.50916-0.45853 0.56076-0.81331 1.1549 5.036 7.203 5.5381 11.35-0.96917 18.933h3.5939c6.1696-7.898 4.1788-11.767-1.8115-20.088z" opacity=".25"/>
  <path d="m-212.97 308.45c-4.7002 0-3.9662 7.1283-3.9662 7.1283 4.3133 0.0758 8.6267 0.0906 12.94 0.0791 4.3131 0.0115 8.626-3e-3 12.939-0.0791 0 0 0.73397-7.1283-3.9662-7.1283h-8.9731z" fill="#f5e9da" stroke="#191919" stroke-linejoin="round" stroke-opacity=".99982"/>
  <path d="m-199.07 308.45c4.7002 0 3.9662 7.1284 3.9662 7.1284h4.0502s0.73401-7.1284-3.9662-7.1284z" opacity=".25"/>
 </g>
</svg>
