<?xml version="1.0" encoding="UTF-8"?>
<svg width="50mm" height="50mm" clip-rule="evenodd" fill-rule="evenodd" image-rendering="optimizeQuality" shape-rendering="geometricPrecision" text-rendering="geometricPrecision" version="1.1" viewBox="0 0 50 50" xmlns="http://www.w3.org/2000/svg" xmlns:cc="http://creativecommons.org/ns#" xmlns:dc="http://purl.org/dc/elements/1.1/" xmlns:rdf="http://www.w3.org/1999/02/22-rdf-syntax-ns#">
 <metadata>
  <rdf:RDF>
   <cc:Work rdf:about="">
    <dc:format>image/svg+xml</dc:format>
    <dc:type rdf:resource="http://purl.org/dc/dcmitype/StillImage"/>
    <dc:title/>
   </cc:Work>
  </rdf:RDF>
 </metadata>
 <g transform="translate(127.95 -272.48)">
  <g fill="#f5e9da" stroke="#191919">
   <path d="m-100.23 289.93v-2.8991h4.0156v-4.7364h-4.5191v-3.7286h-4.4428v3.7286h-4.5191v4.7364h4.0156v2.8991"/>
   <path d="m-97.231 291.55-1.9458-2.5934h-7.561l-1.9458 2.5941"/>
   <path d="m-95.674 309.77s7.4097-12.755 6.226-15.242c-1.1837-2.4866-8.8718-3.3003-13.506-3.3003-4.6346 0-12.323 0.81321-13.506 3.3003-1.1837 2.4868 6.226 15.242 6.226 15.242z"/>
  </g>
  <path d="m-100.23 288.96 0.6625 2.4128 2.051 0.22895c0.28803-0.0485-1.2654-2.1188-1.6578-2.6417zm-4.2829 2.2655c-0.60489 0-1.2613 0.0127-1.9492 0.0403 4.7618 0.19143 12.084 1.0869 13.118 3.2597 1.1837 2.4868-4.6641 15.242-4.6641 15.242h2.3373s7.4096-12.755 6.2258-15.242c-1.1837-2.4866-10.276-3.3-15.068-3.3z" fill="#040301" opacity=".25"/>
  <path d="m-111.93 309.77c-4.7002 0-3.9662 7.1283-3.9662 7.1283 4.3133 0.0758 8.6267 0.0906 12.94 0.0791 4.3131 0.0115 8.626-3e-3 12.939-0.0791 0 0 0.73397-7.1283-3.9662-7.1283h-8.9731z" fill="#f5e9da" stroke="#191919" stroke-linejoin="round" stroke-opacity=".99982"/>
  <path d="m-98.031 309.77c4.7002 0 3.9662 7.1284 3.9662 7.1284h4.0502s0.734-7.1284-3.9662-7.1284z" opacity=".25"/>
 </g>
</svg>
