<svg width="50mm" height="50mm" clip-rule="evenodd" fill-rule="evenodd" image-rendering="optimizeQuality" shape-rendering="geometricPrecision" text-rendering="geometricPrecision" version="1.1" viewBox="0 0 50 50" xmlns="http://www.w3.org/2000/svg" xmlns:xlink="http://www.w3.org/1999/xlink">
 <defs>
  <linearGradient id="linearGradient7179">
   <stop style="stop-color:#ffffff" offset="0"/>
   <stop style="stop-color:#ffffff;stop-opacity:0" offset="1"/>
  </linearGradient>
  <linearGradient id="linearGradient7701" x1="1958.4" x2="1972.1" y1="909" y2="909" gradientTransform="translate(-1940.2,-898.06)" gradientUnits="userSpaceOnUse" xlink:href="#linearGradient9330"/>
  <linearGradient id="linearGradient7703" x1="7212.2" x2="7313.9" y1="3515.3" y2="3515.3" gradientTransform="matrix(.28299 0 0 .2829 -2030.4 -967.29)" gradientUnits="userSpaceOnUse" xlink:href="#linearGradient9330"/>
  <linearGradient id="linearGradient7705" x1="7215.9" x2="7270.7" y1="3433.6" y2="3433.6" gradientTransform="matrix(.28299 0 0 .2829 -2030.7 -946.72)" gradientUnits="userSpaceOnUse" xlink:href="#linearGradient7179"/>
  <linearGradient id="linearGradient7707" x1="1899.9" x2="1925.5" y1="932.07" y2="932.07" gradientTransform="translate(-1887.7,-891.31)" gradientUnits="userSpaceOnUse" xlink:href="#linearGradient9330"/>
  <linearGradient id="linearGradient7709" x1="2026.7" x2="2048.5" y1="939.8" y2="939.8" gradientTransform="matrix(1.1083 0 0 1.2594 -2233.3 -1144.3)" gradientUnits="userSpaceOnUse" xlink:href="#linearGradient7179"/>
  <linearGradient id="linearGradient7711" x1="1961.8" x2="1969.9" y1="910.42" y2="910.42" gradientTransform="translate(-1942.9 -900.68)" gradientUnits="userSpaceOnUse" xlink:href="#linearGradient7179"/>
  <linearGradient id="linearGradient7713" x1="3041.7" x2="3061.6" y1="97.813" y2="97.813" gradientTransform="matrix(3.7795 0 0 3.7795 -11439 -228.14)" gradientUnits="userSpaceOnUse" xlink:href="#linearGradient9330"/>
  <linearGradient id="linearGradient7715" x1="3040.4" x2="3063" y1="104.36" y2="104.36" gradientTransform="matrix(3.7795 0 0 3.7795 -11439 -228.14)" gradientUnits="userSpaceOnUse" xlink:href="#linearGradient9330"/>
  <linearGradient id="linearGradient9330" x1="-266.66" x2="-251.55" y1="-915.4" y2="-915.4" gradientTransform="scale(2.0105 .49739)" gradientUnits="userSpaceOnUse">
   <stop stop-color="#f2e7da" style="stop-color:#efe3ca" offset="0"/>
   <stop stop-color="#bba38a" style="stop-color:#eadcba" offset="1"/>
  </linearGradient>
 </defs>
 <path d="m22.205 5.1658v3.4297h-3.6901v5.7377h3.6283l-0.9887 2.3915 3.8451-8.8e-4 3.8453 8.8e-4 -0.9888-2.3915h3.6275v-5.7377h-3.6901v-3.4297h-2.7938z" style="fill:url(#linearGradient7701);stroke-width:.7;stroke:#141414"/>
 <path d="m19.46 16.195c-0.73248 0-1.3221 0.67816-1.3221 1.5206 0 0.4072 0.13968 0.77409 0.36477 1.0465-4.663 1.2401-7.5478 4.0985-7.5478 6.5603v0.0071l5.6891 12.858h16.712l1.9019-4.3004 3.7872-8.5621c0-2.4621-2.8856-5.3208-7.5494-6.5608 0.22611-0.2726 0.36701-0.64045 0.36701-1.0487 0-0.84241-0.59017-1.5206-1.3227-1.5206h-6.9348z" style="fill:url(#linearGradient7703);stroke-linecap:round;stroke-width:.7;stroke:#141414"/>
 <path d="m19.118 19.001c-4.2008 0.92106-6.9038 3.2551-7.5813 5.4778-0.08784 0.28824-0.18793 0.4764-0.18793 0.76416v0.0065l3.277 7.4856s-2.4519-6.5594-2.0661-7.4597l12.191-0.29724-12.175-0.46356c-0.56032-1.2551 2.2498-4.5066 6.1085-5.412 0.7603-0.35127-0.77315-0.75273 0.85652-1.6993 0.85779-0.31826 5.6232-0.8352 5.6232-0.8352l-5.9415 0.04221c-1.0924 0.60902-0.74191 1.6323-0.04981 2.363z" style="fill:url(#linearGradient7705)"/>
 <path d="m15.992 38.187-3.455 1.7531v3.4096h24.926v-3.4096l-3.4549-1.7531h-9.0078z" style="fill:url(#linearGradient7707);stroke-width:.7;stroke:#141414"/>
 <path d="m12.959 40.134 3.1157-1.6037 17.801 0.0101 3.1204 1.6037z" style="fill:url(#linearGradient7709)"/>
 <path d="m18.503 18.762 12.993 3e-3" style="fill:none;stroke-width:.7;stroke:#141414"/>
 <path d="m27.365 16.195c0.7325 0 1.3229 0.67789 1.3229 1.5203 0 0.40823-0.1408 0.7759-0.3669 1.0485 4.6638 1.24 7.5494 4.0988 7.5494 6.5608-0.8433 4.5081-4.1015 12.863-4.1015 12.863h1.5875s3.7925-8.5753 5.689-12.863c0-2.462-2.8856-5.3209-7.5494-6.5608 0.2261-0.2726 0.3669-0.64027 0.3669-1.0485 0-0.84243-0.5899-1.5203-1.3224-1.5203z" style="fill:#000000;opacity:.15"/>
 <path d="m22.543 5.5165 0.025 3.423-3.6794 0.0078s-0.01 1.9207-0.013 3.4039v1.2914c4e-4 0.03871 0 0.31266-5e-4 0.31522l5e-4 -0.0031h3.5197l-2.7125-0.2527 0.043-3.9109h3.729v-3.9357l3.4644-0.33901z" style="fill:url(#linearGradient7711)"/>
 <path d="m26.735 5.1658v3.4298h1.0583v-3.4298zm3.6902 3.4298v5.7376h1.0583v-5.7376z" style="fill:#141414;opacity:.15"/>
 <path transform="scale(.26458)" d="m60.82 138.77c-1.4676 0-2.6504 1.1808-2.6504 2.6484v0.26563c0 1.4676 1.1828 2.6484 2.6504 2.6484h67.34c1.4676 0 2.6484-1.1808 2.6484-2.6484v-0.26563c0-1.4676-1.1808-2.6484-2.6484-2.6484h-67.34z" style="fill:url(#linearGradient7713);paint-order:normal;stroke-linecap:round;stroke-linejoin:round;stroke-width:2.6457;stroke:#141414"/>
 <path transform="scale(.26458)" d="m53.092 163.84v0.00195 4.9102 0.00195h82.793v-0.00195-4.9102-0.00195h-82.793z" style="fill:url(#linearGradient7715);paint-order:normal;stroke-linecap:round;stroke-linejoin:round;stroke-width:2.6457;stroke:#141414"/>
</svg>
