<?xml version="1.0" encoding="UTF-8"?>
<svg width="50mm" height="50mm" clip-rule="evenodd" fill-rule="evenodd" image-rendering="optimizeQuality" shape-rendering="geometricPrecision" text-rendering="geometricPrecision" version="1.1" viewBox="0 0 50 50" xmlns="http://www.w3.org/2000/svg" xmlns:cc="http://creativecommons.org/ns#" xmlns:dc="http://purl.org/dc/elements/1.1/" xmlns:rdf="http://www.w3.org/1999/02/22-rdf-syntax-ns#">
 <metadata>
  <rdf:RDF>
   <cc:Work rdf:about="">
    <dc:format>image/svg+xml</dc:format>
    <dc:type rdf:resource="http://purl.org/dc/dcmitype/StillImage"/>
    <dc:title/>
   </cc:Work>
  </rdf:RDF>
 </metadata>
 <path d="m22.328 10.77s-1.955-2.6801-3.9227-3.7475l0.0364 2.8822" fill="#f5f5f5" stroke="#373737" stroke-linejoin="round" stroke-width="1.2"/>
 <path d="m20.696 9.8338-3.4499 0.14181c-0.0701 0.0211-0.82428 5.4477-11.584 9.8224l-0.46923 3.6555 1.075 2.5441 2.4273-0.54545 0.91199 1.1994-2.1057 0.59805 1.7361 1.7187 2.641-0.15885-0.27258-1.7584 8.8793-1.9714c1.6734 6.0407-8.3341 6.2468-5.6492 13.552h19.481s4.6659-6.5474 1.7627-16.588c-1.4877-5.1454-4.9629-10.336-12.072-14.267l-3.327-2.043s0.0149 3.8512 0.0159 4.1009z" fill="#f5f5f5" stroke="#373737" stroke-linecap="round" stroke-linejoin="round" stroke-width="1.2"/>
 <path d="m26.821 9.5239c13.744 12.602 3.5245 29.26 2.315 29.107h5.18c0.37485 0.14368 9.4092-17.486-7.495-29.107z" opacity=".15"/>
 <path d="m21.308 6.8935s0.0488 2.5918 0.0488 3.0114c0 0.41962-0.31889 0.53071-0.31889 0.53071l-3.2449 0.15819c-1.4618 4.4324-7.8587 8.3873-11.567 9.6839 8.6643-3.0321 11.316-4.7267 11.567-9.6839l4.5344 0.17614c0.23318-1.2836-1.0194-3.8765-1.0194-3.8765z" fill="#fff"/>
 <path d="m6.3595 21.774s0.45279 1.0534 0.815 0.96564c0.36223-0.088 1.3885-1.6679 0.93576-1.7264-0.45279-0.0586-1.7508 0.76079-1.7508 0.76079z" opacity=".3"/>
 <path d="m19.49 13.914c-0.50753 0.71029-0.3866 1.2926-0.42047 2.1076 0.58024 0.0577 1.0933 0.0854 1.6052-0.0564 2.1078-1.1594-0.10118-3.06-1.1847-2.0514z" fill-rule="evenodd" opacity=".3" style="paint-order:fill markers stroke"/>
 <path d="m11.605 27.051c0.0928 0.0584 8.8793-1.9714 8.8793-1.9714 1.9077-1.1287 2.1519-3.0383 2.4032-4.5473-2.9565 2.1827-6.046 4.2569-10.962 4.8423z" opacity=".15"/>
 <path d="m22.037 23.493-1.0674 1.2559c2.2593 6.7734-7.8562 6.7834-5.6264 13.269-0.3135-7.0661 8.5418-5.1156 6.6938-14.525z" fill="#fff"/>
 <path d="m24.999 36.457s-9.1309 0.0481-11.691 1.6192c-1.7273 1.0602-2.1348 3.6515-1.8998 6.3237h27.182c0.23496-2.6723-0.17255-5.2636-1.8999-6.3237-2.5597-1.5711-11.691-1.6192-11.691-1.6192z" fill="#f5f5f5" stroke="#373737" stroke-linejoin="round" stroke-width="1.2"/>
 <path d="m24.999 37.147s-8.7121-0.13732-11.624 1.6658c-0.36985 0.22904-0.69925 0.83943-0.95359 1.3902 0.26077-0.33131 0.50213-0.61301 0.88664-0.84902 2.5597-1.5711 11.691-1.6191 11.691-1.6191s9.1318 0.0479 11.692 1.6191c0.39103 0.24 0.59242 0.53162 0.8556 0.8701 0.0258-0.0759-0.40837-1.1579-1.1438-1.5962-2.7554-1.492-11.403-1.4808-11.403-1.4808z" fill="#fff"/>
</svg>
