<?xml version="1.0" encoding="UTF-8"?>
<svg width="50mm" height="50mm" clip-rule="evenodd" fill-rule="evenodd" image-rendering="optimizeQuality" shape-rendering="geometricPrecision" text-rendering="geometricPrecision" version="1.1" viewBox="0 0 50 50" xmlns="http://www.w3.org/2000/svg" xmlns:cc="http://creativecommons.org/ns#" xmlns:dc="http://purl.org/dc/elements/1.1/" xmlns:rdf="http://www.w3.org/1999/02/22-rdf-syntax-ns#">
 <metadata>
  <rdf:RDF>
   <cc:Work rdf:about="">
    <dc:format>image/svg+xml</dc:format>
    <dc:type rdf:resource="http://purl.org/dc/dcmitype/StillImage"/>
    <dc:title/>
   </cc:Work>
  </rdf:RDF>
 </metadata>
 <g>
  <path d="m21.101 24.683c2.3324-1.3599 2.6805-3.7963 2.6805-3.7963m10.499 16.635s4.4456-6.2031 1.6794-15.716c-1.4175-4.8748-4.7289-9.7925-11.503-13.517-1.0572-0.58128-3.1724-2.5673-3.1724-2.5673-0.79592 1.2637-0.80913 4.5175-0.80913 4.5175l-4.5181 1.4905s-1.2457 4.5776-9.5409 9.2125l-0.093595 4.5103 1.0291 1.2269 2.2735-1.1059 1.0087 1.4204-2.077 1.0609 2.3651 1.6864 2.1802-0.77825 0.81886-2.2591 7.18-2.0208c1.5945 5.723-7.9408 5.9181-5.3826 12.839z" fill="#f5f5f5" stroke="#464646" stroke-linecap="round" stroke-linejoin="round" stroke-width="1.2"/>
  <path d="m8.136 22.275s0.4024 0.93091 0.72431 0.85336c0.32192-0.07773 1.234-1.474 0.83163-1.5257-0.40241-0.05178-1.5559 0.67233-1.5559 0.67233z" opacity=".4"/>
  <path d="m20.476 10.239s3.6576-2.6251 5.8421-3.3766c0.47683 1.9402 0.56742 3.7357-0.89094 5.9116" fill="#f5f5f5" stroke="#464646" stroke-linecap="round" stroke-linejoin="round" stroke-width="1.2"/>
  <path d="m27.139 10.585c13.095 11.939 3.3582 27.082 2.2058 26.937h4.9355s8.6715-16.039-7.1413-26.937z" opacity=".15"/>
  <path d="m20.851 10.768-4.4218 1.4773c-2.31e-4 -4.82e-4 -1.134 4.4009-9.409 9.0769l-0.085287 3.9142c0.32763-0.54585 0.26269-3.5629 0.61133-3.6913 8.2951-4.6349 9.977-9.0087 9.977-9.0087 3.6831-0.71612 6.2296-3.437 8.3456-4.8257-0.38912-0.00858-4.5285 2.5805-5.0178 3.0573zm1.2629 13.95-0.33379 0.25723c1.1542 5.8015-7.3885 5.9736-5.6142 11.94l0.25542 0.0021c0.5925-7.4279 7.352-4.459 5.6926-12.2z" fill="#fff"/>
  <path d="m18.504 24.689c0.08697 0.04663 1.7524-0.19915 2.5776-0.67384 1.3827-0.79533 2.2782-2.784 2.281-4.5716 0.03586 0.02187-0.72448 2.968-4.8586 5.2455z" opacity=".15"/>
  <path d="m19.304 14.933c-0.53542 0.68191-0.75841 1.4114-0.79413 2.1938 0.02534 0.07987 0.13938 0.0521 0.20952 0.03624 0.6074-0.09702 1.2404-0.10538 1.8344-0.26072 2.2235-1.113-0.10673-2.9377-1.2498-1.9694z" fill-rule="evenodd" opacity=".4" style="paint-order:fill markers stroke"/>
  <path d="m25 36.464s-9.1309 0.04814-11.691 1.6192c-1.7273 1.0602-2.1348 3.6515-1.8998 6.3237h27.182c0.23496-2.6723-0.17255-5.2635-1.8999-6.3237-2.5597-1.5711-11.691-1.6192-11.691-1.6192z" fill="#f5f5f5" stroke="#464646" stroke-linejoin="round" stroke-width="1.2"/>
  <path d="m25 37.153s-8.7121-0.13732-11.624 1.6658c-0.36985 0.22905-0.69926 0.83944-0.95359 1.3902 0.26077-0.3313 0.50213-0.61301 0.88664-0.84902 2.5597-1.5711 11.691-1.6191 11.691-1.6191s9.1318 0.04794 11.692 1.6191c0.39104 0.24 0.59242 0.53162 0.85561 0.8701 0.02583-0.0759-0.40837-1.1579-1.1438-1.5962-2.7554-1.492-11.403-1.4808-11.403-1.4808z" fill="#fff"/>
 </g>
</svg>
