<?xml version="1.0" encoding="UTF-8"?>
<svg width="50mm" height="50mm" clip-rule="evenodd" fill-rule="evenodd" image-rendering="optimizeQuality" shape-rendering="geometricPrecision" text-rendering="geometricPrecision" version="1.1" viewBox="0 0 50 50" xmlns="http://www.w3.org/2000/svg" xmlns:cc="http://creativecommons.org/ns#" xmlns:dc="http://purl.org/dc/elements/1.1/" xmlns:rdf="http://www.w3.org/1999/02/22-rdf-syntax-ns#">
 <metadata>
  <rdf:RDF>
   <cc:Work rdf:about="">
    <dc:format>image/svg+xml</dc:format>
    <dc:type rdf:resource="http://purl.org/dc/dcmitype/StillImage"/>
    <dc:title/>
   </cc:Work>
  </rdf:RDF>
 </metadata>
 <g transform="translate(0 2.0534)">
  <g transform="translate(-2.1085 5e-6)">
   <path d="m23.378 24.259 1.4905-2.4827m11.042 14.458s4.2274-5.786 1.5969-14.659c-1.3479-4.5471-4.4968-9.1342-10.938-12.608-1.0053-0.5422-3.0167-2.3947-3.0167-2.3947-0.75685 1.1788-0.76941 4.2138-0.76941 4.2138l-4.2963 1.3903s-1.1846 4.2698-9.0725 8.5932l-0.08901 4.2071 0.9786 1.1445 2.1619-1.0316 0.81763 1.1204-1.975 0.98956 2.3905 1.7775 2.0732-0.72593 0.77865-2.1072 6.8275-1.885c0.56831 6.4168-5.1183 7.5981-5.1183 7.5981l-3e-5 4.3776z" fill="#f5e9da" stroke="#191919" stroke-linecap="round" stroke-linejoin="round"/>
   <ellipse cx="21.431" cy="15.999" rx="1.0663" ry="1.0331" fill="none" stroke="#191919" stroke-linecap="round" stroke-linejoin="round" stroke-width=".8" style="paint-order:normal"/>
   <g>
    <path d="m10.554 22.617s0.31171 0.83422 0.56107 0.76472c0.24937-0.06965 0.95591-1.3209 0.6442-1.3672-0.31171-0.04636-1.2053 0.6025-1.2053 0.6025z" fill="#191919" stroke="#191919" stroke-width=".26458px"/>
    <path d="m22.782 10.786s3.4781-2.4486 5.5553-3.1496c0.45343 1.8098 0.53956 3.4845-0.84719 5.5141" fill="#f5e9da" stroke="#191919" stroke-linejoin="round"/>
    <path d="m29.119 11.108c12.452 11.136 3.1933 25.261 2.0975 25.126h4.6932s8.2458-14.961-6.7907-25.126z" opacity=".25"/>
   </g>
  </g>
  <path d="m15.597 36.234c-3.8003 2.0594-4.1456 2.9933-4.1456 7.1295 9.0173 0.15151 18.034 0.0594 27.051 0 0.10437-4.1586 0.3424-5.2041-4.1471-7.1295z" fill="#f5e9da" stroke="#191919" stroke-linejoin="round"/>
  <path d="m30.453 36.234c4.4895 1.9255 4.2511 2.971 4.1468 7.1296 0 0 1.0025-2e-3 3.9026 0 0.10439-4.1587 0.34228-5.2042-4.1472-7.1296z" opacity=".25"/>
 </g>
</svg>
