<?xml version="1.0" encoding="UTF-8"?>
<svg width="50mm" height="50mm" clip-rule="evenodd" fill-rule="evenodd" image-rendering="optimizeQuality" shape-rendering="geometricPrecision" text-rendering="geometricPrecision" version="1.1" viewBox="0 0 50 50" xmlns="http://www.w3.org/2000/svg" xmlns:cc="http://creativecommons.org/ns#" xmlns:dc="http://purl.org/dc/elements/1.1/" xmlns:rdf="http://www.w3.org/1999/02/22-rdf-syntax-ns#">
 <metadata>
  <rdf:RDF>
   <cc:Work rdf:about="">
    <dc:format>image/svg+xml</dc:format>
    <dc:type rdf:resource="http://purl.org/dc/dcmitype/StillImage"/>
    <dc:title/>
   </cc:Work>
  </rdf:RDF>
 </metadata>
 <g transform="translate(183.59 594.83)">
  <g transform="matrix(.8741 0 0 1.0719 132.84 -18.803)" stroke-width="1.0331">
   <path d="m-344.13-501.7c-4.3476 1.9131-4.7427 2.7807-4.7427 6.6233 10.316 0.14075 20.631 0.0552 30.947 0 0.1194-3.8634 0.39172-4.8345-4.7444-6.6233z" fill="#f5e9da" stroke="#191919" stroke-linejoin="round" stroke-opacity=".99964" stroke-width="1.0331"/>
   <path d="m-327.13-501.7c5.1362 1.7887 4.8634 2.76 4.744 6.6234 0 0 1.1469-2e-3 4.4647 0 0.11942-3.8634 0.39158-4.8346-4.7446-6.6234z" opacity=".25"/>
  </g>
  <g transform="translate(-1.0039 3.175)">
   <ellipse cx="-157.58" cy="-587.16" rx="3.1021" ry="2.7633" fill="#f5e9da" stroke="#191919" stroke-linecap="round" stroke-linejoin="round" stroke-opacity=".99964" style="paint-order:normal"/>
   <path d="m-159.75-584.4c-7.3687 2.9183-9.3404 10.834-9.3404 10.834h23.01s-1.9721-7.9171-9.3426-10.835z" fill="#f5e9da" stroke="#191919" stroke-linecap="round" stroke-linejoin="round" stroke-opacity=".99964"/>
   <path d="m-157.74-589.8s0.44795-0.30619-9e-5 1e-5c1.3739 1.1838 2.7771 3.1796 0.7211 5.3955 7.3705 2.9175 7.7885 10.834 7.7885 10.834h3.0188s-1.9719-7.917-9.3424-10.835c2.684-3.7276-0.22945-5.2739-2.186-5.3951z" opacity=".25"/>
   <path d="m-157.58-559.74v0h-8.2631c-0.16456-5.4462-2.8829-9.1814-6.8449-17.532 1.9301-1.3174 2.9808 1.9209 4.3457 1.2626 1.1928-0.57527 0.28467-3.3378 1.6545-3.7329 1.713-0.49401 3.4047 2.8636 5.316 2.4971 1.7601-0.33747 1.985-3.9652 3.7918-3.9652v0c1.8067 0 2.0316 3.6277 3.7917 3.9652 1.9114 0.36647 3.6031-2.9911 5.316-2.4971 1.3699 0.39507 0.46176 3.1576 1.6545 3.7329 1.3649 0.65827 2.4155-2.58 4.3457-1.2626-3.962 8.3502-6.6803 12.085-6.8449 17.532z" fill="#f5e9da" stroke="#191919" stroke-linecap="round" stroke-linejoin="round" stroke-opacity=".99964"/>
  </g>
  <path d="m-143.48-574.1s0.85114-0.29665-0.52034-0.25727c-7.4316 6.6616-8.8179 13.4-8.9562 17.789h2.6317c0.15362-4.8736 3.1461-10.059 6.8449-17.532z" opacity=".25"/>
 </g>
</svg>
