<svg width="512" height="512" viewBox="0 0 512 512" fill="none" xmlns="http://www.w3.org/2000/svg">
<path fill-rule="evenodd" clip-rule="evenodd" d="M266.799 105.295C256.924 107.317 246.399 106.155 242.37 105.322L163.619 396.015L128.797 395.811C127.532 395.811 124.568 397.872 122.833 406.113C121.097 414.355 114.519 444.249 111.446 458.166C110.904 461.058 112.422 466.95 122.833 467.384C133.243 467.818 215.371 467.565 255.134 467.384H255.581C295.344 467.565 377.472 467.818 387.882 467.384C398.293 466.95 399.811 461.058 399.269 458.166C396.196 444.249 389.617 414.355 387.882 406.113C386.147 397.872 383.183 395.811 381.918 395.811L345.712 396.015L266.799 105.295Z" fill="url(#paint0_linear_487_147)"/>
<path d="M254.613 422.543H254.615H254.611H254.613Z" fill="#350000"/>
<path d="M254.615 422.543H254.613H254.611H254.615Z" fill="#350000"/>
<path d="M254.55 441.623H254.551H254.548H254.55Z" fill="#350000"/>
<path d="M254.551 441.623H254.55H254.548H254.551Z" fill="#350000"/>
<path d="M254.55 441.623C198.953 441.622 153.674 429.931 151.652 415.331C152.227 407.523 157.919 406.151 160.693 406.44C176.822 415.93 212.799 422.543 254.613 422.543C296.42 422.543 332.395 415.936 348.524 406.45C351.515 406.157 357.487 407.523 357.44 415.331C355.442 429.934 310.154 441.622 254.55 441.623Z" fill="#350000"/>
<path fill-rule="evenodd" clip-rule="evenodd" d="M417.094 460.816L402.252 391.625C400.514 383.595 392.431 377.244 384.151 377.244H358.69L282.819 98.0234C282.243 91.7037 264.777 90 254.396 90C244.015 90 226.546 91.7038 225.963 98.0234L150.105 377.244H127.373C119.089 377.244 111.003 383.595 109.287 391.625L94.4298 460.816C93.8783 463.403 93.8721 465.869 94.3275 468.118C92.5152 477.846 98.423 485.819 107.803 485.819H403.702C413.089 485.819 419 477.845 417.184 468.118C417.652 465.878 417.639 463.403 417.094 460.816ZM266.799 105.295C256.924 107.316 246.399 106.155 242.37 105.322L231.301 146.181C239.325 147.883 259.876 150.267 277.897 146.181L266.799 105.295ZM195.673 277.695C217.807 283.228 272.379 290.974 313.595 277.695L281.474 159.361C261.209 163.777 237.199 161.21 227.727 159.375L195.673 277.695ZM387.882 406.113C386.147 397.871 383.183 395.811 381.918 395.811L345.712 396.015L317.292 291.315C263.805 305.956 211.467 297.415 191.983 291.315L163.619 396.015L128.797 395.811C127.532 395.811 124.568 397.871 122.833 406.113C121.097 414.355 114.519 444.249 111.446 458.166C110.904 461.058 112.422 466.95 122.833 467.384C133.243 467.818 215.371 467.565 255.134 467.384H255.581C295.344 467.565 377.472 467.818 387.882 467.384C398.293 466.95 399.811 461.058 399.269 458.166C396.196 444.249 389.617 414.355 387.882 406.113Z" fill="#350000"/>
<defs>
<linearGradient id="paint0_linear_487_147" x1="255.357" y1="105.295" x2="255.357" y2="467.623" gradientUnits="userSpaceOnUse">
<stop stop-color="#EBD1A9"/>
<stop offset="1" stop-color="#FFA978"/>
</linearGradient>
</defs>
</svg>
