<svg xmlns="http://www.w3.org/2000/svg" viewBox="0 0 512 512"><path fill="#fff" d="m188.44 24.94-7.19 17.72-8.78 21.59-23.1-3.22-18.93-2.62L140 74.97l17.72 30.69 2.28 3.97 4.53.62 26.19 3.66 69.84 120.97a237 237 0 0 1 19.13-4.22l-73.03-126.53 9.62-23.75 1.72-4.25-2.28-3.94L198 41.5l-9.56-16.56zM327 33.72l-13.69 13.34-16.72 16.25-19.84-12.22-16.28-10.03 2.1 19.03 3.87 35.22.5 4.53 3.9 2.41 21.85 13.44 12.37 112.1c4-.2 7.94-.3 11.85-.23 2.33.05 4.64.15 6.93.29L311.28 114.1l18.94-18.41 3.28-3.19-.5-4.56-3.87-35.22-2.13-19zM103.34 94.06l-1.56 19.07-1.87 23.25-23 3.87-18.85 3.16 14.1 12.94 26.12 23.93 3.35 3.1 4.53-.75 26.03-4.41 80.87 74.19a259.54 259.54 0 0 1 18.72-8.16l-87.3-80.13 2.05-25.53.38-4.56-3.38-3.1-26.1-23.93-14.09-12.94zm332.53 123c-17.88-.1-38.85 9.04-55.93 26.13a100.14 100.14 0 0 0-13.57 16.87c-11.6-6.99-25.38-11.1-40.34-12.68l-.03-.25c-3.09-.24-6.22-.4-9.44-.44h-1.25C209.5 243.7 59.5 353.69 187.38 449.8H68.06L41.6 497.56h257.19l-88.5-103.25c24.27-26.7 67.46-43.7 97-45.06 13.8 45.1 36.27 113.5 71.75 148.31h60.84c-43.07-46.54-76.53-109.09-81.93-179.84a33.6 33.6 0 0 0 6.31 8.78c18.66 18.66 55.95 11.62 83.28-15.72 27.34-27.34 34.35-64.62 15.69-83.28-7-7-16.62-10.38-27.35-10.44z"/></svg>