<svg xmlns="http://www.w3.org/2000/svg" viewBox="0 0 512 512"><path fill="#fff" d="m241.84 28.63-21.18 5.06L33.25 78.53l-9.6 2.28 2.82 9.47 54.72 184.03 6.15 20.78 10.88-18.75 36.62-63.12 39.35 22.65 9.37-16.18-47.47-27.32-8.09-4.65-4.66 8.06-30.4 52.47L47.19 94.41 203.8 56.94l-30.34 52.34-4.7 8.13 8.13 4.65 155.85 89.69-17.6 30.34 16.23 9.32 22.25-38.38 4.68-8.12-8.12-4.66-155.85-89.69 36.6-63.09 10.9-18.84zM213.6 205.1l-57.43 99.3 155.22 89.5 8.09 4.66-4.7 8.1-44.05 76.25 218.8-52.5-63.86-215.47-44.1 76.25-4.66 8.06-8.09-4.66-155.22-89.5z"/></svg>