<svg xmlns="http://www.w3.org/2000/svg" viewBox="0 0 512 512"><path fill="#fff" d="m424.05 26.6 2.54 11.2 16.15-13.06zM218.52 338.93a24.07 24.07 0 0 0 1.54-36l6.15-5.17c.72.73 1.4 1.5 2.07 2.31a32.09 32.09 0 0 1-45.62 44.74q2.13-3.69 4.14-7a24.12 24.12 0 0 0 31.71 1.12zm-18.1-19.47 10.32 7.67-15.53-2.3c.58-.81 1.14-1.58 1.69-2.3zm76.89-80.33-31.33-38.65 15.26-12.34 31.33 38.65zm137.88-111.75-31.33-38.65 15.27-12.37 31.33 38.64zm-41.83-26.18 25.9 32a65611.7 65611.7 0 0 0-96.91 80.29l-26.75-33zM120.6 340.93l10 1.16 32.83-65.86a28.13 28.13 0 0 0 41-38.11l4.52-3.67 26.53-21.52 27.14 33.48c-32.82 27.33-61.6 51.43-77.38 65-26.12 32.63-84.5 163.79-95.8 175.86-13.73-4.68-26.77-40.12-54-55.2 9.14-18.66 85.16-91.14 85.16-91.14zm33.05-113.81c1.5 2.1 5.69 5.8 8.38 5.8h.06c.35 0 1.29.18 2.48-1.64 7.15-11 18-16.41 25.26-12.77l-3.6 7.2c-1.76-.9-5.5.3-9.37 3.63l14.75 18.2a12.13 12.13 0 1 1-18.91.1l-6-7.44a10 10 0 0 1-4.4 1.12h-.23c-8.12 0-14.83-9.36-14.9-9.45zM413.49 68.66l46.5-37.73 11.06 13.68-46.5 37.69zm63.08 1.27-37.46 30.3-5.73-7.06 37.42-30.34z"/></svg>