<svg xmlns="http://www.w3.org/2000/svg" viewBox="0 0 512 512"><path fill="#fff" d="M20.56 20.84v44.6l73.13 72.9a124.7 124.7 0 0 1 18.12-22.8 124.3 124.3 0 0 1 22.75-18.07l-76.4-76.63h-37.6zm159.81 81.07-1.72.03c-3.1.1-6.42.52-9.9 1.28-13.94 3.04-29.97 11.75-43.75 25.53-13.78 13.78-22.49 29.8-25.53 43.75-2.9 13.3-.81 23.93 5.28 30.78 5.4-20.35 17.59-41.18 35.6-59.19 18.02-18.02 38.87-30.2 59.24-35.6-4.71-4.21-11.25-6.52-19.22-6.58zm40.47 22.15c-3.97.1-8.19.63-12.59 1.57-17.62 3.75-37.6 14.57-54.72 31.68-17.11 17.12-27.93 37.07-31.69 54.69-3.75 17.62-.63 32.09 8.47 41.19.91.9 1.9 1.74 2.91 2.53 4.63-31.5 18.5-59.09 39.44-80 20.69-20.68 47.89-34.47 78.93-39.25-.67-.84-1.39-1.64-2.15-2.4-6.83-6.83-16.67-10.3-28.6-10zm55.35 28.66c-36.56.17-68.02 13.9-90.35 36.22a119.63 119.63 0 0 0-6.43 7c22.43 11.65 37.31 26.57 46.3 43.06 10.58 19.4 12.99 40.4 12.16 60.03l-18.68-.78c.73-17.57-1.45-34.86-9.88-50.31-7.46-13.7-19.87-26.32-41.03-36.7-18.15 29.69-24.5 68.67-12.66 111.85 36.48 3.15 72.9 24.3 86.38 66.25 45.02-6.37 119.33 26.56 127.22 64.25 39.96 18.48 84.59 33.37 125.72 45.1-11.33-35.88-24.38-81.1-40.72-116.97-34.53-21.5-49.7-62.82-46.63-106.35-40.33-30.1-70.18-69.51-74.78-112.62-19.78-6.95-38.8-10.11-56.62-10.03zm-9.53 45.5c10.29 52.54 58.66 86.17 100.62 93.72l-3.3 18.37c-11.1-2-22.49-5.5-33.6-10.44-6.93 19.62 1.34 41.26 19.75 60 19.63 20 50.4 34.91 81.09 35.97l-.66 18.69c-36.15-1.25-70.66-18.01-93.78-41.56-.98-1-1.93-2-2.87-3.03-15.47-12.36-27.62-16.12-38.47-15.5-10.92.62-21.6 6-33.03 15.06l-11.6-14.66c13.04-10.32 27.3-18.13 43.56-19.06 6.38-.36 12.9.37 19.57 2.28-5.64-15.18-6.43-31.34-.25-46.8-31.03-18.52-57.4-48.85-65.35-89.45l18.32-3.59z"/></svg>