<svg xmlns="http://www.w3.org/2000/svg" viewBox="0 -380 512 269">
  <path d="M199 -351 Q207 -352 223 -352 Q361 -351 459 -264 Q368 -318 220 -318 Q203 -318 192 -317 Q197 -346 199 -351 M464 -261 Q364 -353 221 -353 Q199 -353 198 -352 Q197 -351 190 -316 Q202 -317 220 -317 Q372 -317 464 -260 L464 -261 M140 -246 Q140 -295 150.5 -334.5 Q161 -374 174 -376 Q195 -379 226 -379 Q250 -379 274 -376.5 Q298 -374 330 -365 Q362 -356 391.5 -342.5 Q421 -329 453 -304 Q485 -279 511 -246 Q479 -205 439 -177 Q399 -149 358.5 -136 Q318 -123 286.5 -118 Q255 -113 225 -113 L174 -116 Q161 -118 150.5 -157.5 Q140 -197 140 -246 M45 -347 L130 -365 L109 -328 L35 -332 L45 -347 M133 -366 Q125 -365 93 -358.5 Q61 -352 44 -348 Q38 -339 34 -331 L109 -327 L133 -366 M106 -246 Q106 -240 108 -227 L1 -240 L1 -252 L108 -265 Q106 -252 106 -246 M0 -253 L0 -239 L109 -226 Q107 -240 107 -246.5 Q107 -253 109 -266 L0 -253 M109 -164 L130 -127 L45 -145 L35 -160 L109 -164 M133 -126 L109 -165 L34 -161 L44 -144 L133 -126 M226 -380 L174 -377 Q160 -375 149.5 -335 Q139 -295 139 -246 Q139 -197 149.5 -157 Q160 -117 174 -115 Q195 -112 225 -112 Q244 -112 264 -114 Q284 -116 309.5 -120.5 Q335 -125 360.5 -135 Q386 -145 412 -159.5 Q438 -174 464 -196 Q490 -218 512 -246 Q480 -287 440 -315.5 Q400 -344 360 -357 Q320 -370 288.5 -375 Q257 -380 226 -380 M132 -127 L44 -144 L35 -161 L109 -165 L132 -127 M108 -266 Q106 -253 106 -246 L108 -226 L0 -239 L0 -253 L108 -266 M132 -365 L109 -327 L35 -331 L44 -348 L132 -365 M226 -380 Q257 -380 288.5 -374.5 Q320 -369 360 -356 Q400 -343 440 -315 Q480 -287 512 -246 Q475 -199 426.5 -168.5 Q378 -138 335.5 -127.5 Q293 -117 255.5 -113.5 Q218 -110 196 -113 L174 -116 Q168 -117 161.5 -128 Q155 -139 150 -157 Q145 -175 142 -198.5 Q139 -222 139 -246 Q139 -295 150 -334.5 Q161 -374 174 -376 L226 -380 M223 -352 L198 -351 L191 -317 Q198 -317 209.5 -317.5 Q221 -318 255 -316.5 Q289 -315 321 -310 Q353 -305 393 -292.5 Q433 -280 464 -261 Q364 -352 223 -352"/>
</svg>
