<?xml version="1.0" encoding="UTF-8" standalone="no"?>
<!-- Creator: CorelDRAW -->
<svg
   xmlns:dc="http://purl.org/dc/elements/1.1/"
   xmlns:cc="http://web.resource.org/cc/"
   xmlns:rdf="http://www.w3.org/1999/02/22-rdf-syntax-ns#"
   xmlns:svg="http://www.w3.org/2000/svg"
   xmlns="http://www.w3.org/2000/svg"
   xmlns:xlink="http://www.w3.org/1999/xlink"
   xmlns:sodipodi="http://sodipodi.sourceforge.net/DTD/sodipodi-0.dtd"
   xmlns:inkscape="http://www.inkscape.org/namespaces/inkscape"
   xml:space="preserve"
   width="50mm"
   height="50mm"
   shape-rendering="geometricPrecision"
   text-rendering="geometricPrecision"
   image-rendering="optimizeQuality"
   fill-rule="evenodd"
   clip-rule="evenodd"
   viewBox="0 0 50 50"
   id="svg2"
   sodipodi:version="0.32"
   inkscape:version="0.45"
   sodipodi:docname="bk.svg"
   sodipodi:docbase="/home/fkling/2/v0.1.2reduced/PieceThemes/Merida"
   inkscape:output_extension="org.inkscape.output.svg.inkscape"
   sodipodi:modified="true"><metadata
   id="metadata15"><rdf:RDF><cc:Work
       rdf:about=""><dc:format>image/svg+xml</dc:format><dc:type
         rdf:resource="http://purl.org/dc/dcmitype/StillImage" /></cc:Work></rdf:RDF></metadata><defs
   id="defs13"><linearGradient
     inkscape:collect="always"
     id="linearGradient2167"><stop
       style="stop-color:#ffffff;stop-opacity:1;"
       offset="0"
       id="stop2169" /><stop
       style="stop-color:#ffffff;stop-opacity:0;"
       offset="1"
       id="stop2171" /></linearGradient><linearGradient
     inkscape:collect="always"
     xlink:href="#linearGradient2167"
     id="linearGradient2173"
     x1="21.13022"
     y1="37.223587"
     x2="77.76413"
     y2="37.469288"
     gradientUnits="userSpaceOnUse" /></defs><sodipodi:namedview
   inkscape:window-height="625"
   inkscape:window-width="944"
   inkscape:pageshadow="2"
   inkscape:pageopacity="0.0"
   guidetolerance="10.0"
   gridtolerance="10.0"
   objecttolerance="10.0"
   borderopacity="1.0"
   bordercolor="#666666"
   pagecolor="#ffffff"
   id="base"
   inkscape:zoom="2.2972888"
   inkscape:cx="91.847223"
   inkscape:cy="88.582678"
   inkscape:window-x="109"
   inkscape:window-y="109"
   inkscape:current-layer="svg2"
   showgrid="true" />
 <g
   id="Layer_x0020_1">
  <metadata
   id="CorelCorpID_0Corel-Layer" />
  <path
   fill="#1F1A17"
   d="M25.8213 12.0224l-1.7611 0 0 -3.2512 -2.0659 0c-0.5588,0 -0.8382,-0.2709 -0.8382,-0.8212l0 -0.0254c0,-0.5419 0.2794,-0.8128 0.8382,-0.8128l2.0659 0 0 -2.1082c0,-0.5842 0.2963,-0.8721 0.889,-0.8721l0 0c0.5757,0 0.8721,0.2879 0.8721,0.8721l0 2.1082 2.1336 0c0.5418,0 0.8128,0.2709 0.8128,0.8128l0 0.0254c0,0.5503 -0.271,0.8212 -0.8128,0.8212l-2.1167 0.0254 -0.0169 3.2258z"
   id="path6" />
  <path
   fill="#1F1A17"
   d="M11.03 37.7442l-0.8128 -4.6398c-0.0169,0 -0.0423,-0.0338 -0.0762,-0.1016 -0.0847,-0.1185 -0.3217,-0.2709 -0.7112,-0.4572 -0.381,-0.1947 -0.8382,-0.5164 -1.3462,-0.9821 -0.7281,-0.6096 -1.2954,-1.1091 -1.7018,-1.4901 -0.4064,-0.3726 -0.7705,-0.7874 -1.1007,-1.2362 -1.0075,-1.3885 -1.5748,-3.0649 -1.6848,-5.0376 -0.1694,-1.8966 0.6011,-3.7931 2.3029,-5.6812 1.7187,-1.8796 4.0471,-2.7686 6.9681,-2.65 1.0922,0.0677 2.3791,0.3302 3.8438,0.7958 0.4826,0.1948 0.9737,0.3895 1.4817,0.5758 0.4995,0.1947 0.9991,0.3894 1.4986,0.5842 0.2625,0.1354 0.4995,0.2709 0.6943,0.3979 -0.0847,-0.3471 -0.127,-0.6943 -0.127,-1.0414 0,-1.2869 0.4572,-2.3876 1.38,-3.302 0.9144,-0.9059 2.0236,-1.3716 3.3105,-1.3885 1.2869,0 2.3876,0.4656 3.302,1.38 0.9059,0.9144 1.3631,2.0151 1.3631,3.2851 0,0.2625 -0.0338,0.6096 -0.1016,1.0414 0.2286,-0.1439 0.4572,-0.2709 0.6689,-0.3725 0.762,-0.3302 1.7611,-0.7197 3.0057,-1.16 1.4224,-0.4826 2.7008,-0.7535 3.8438,-0.8212 2.921,-0.1355 5.2409,0.7535 6.9427,2.65 1.6679,1.8881 2.4469,3.7846 2.3283,5.6812 -0.127,1.9727 -0.7027,3.6491 -1.7102,5.0376 -0.3302,0.4488 -0.7028,0.8636 -1.1176,1.2531 -0.4064,0.3895 -0.9652,0.8805 -1.6595,1.4732 -0.5419,0.4657 -1.0075,0.7959 -1.3885,0.9821 -0.381,0.1863 -0.6012,0.3472 -0.6689,0.4572 -0.0169,0.0339 -0.0339,0.0593 -0.0508,0.0762 -0.0169,0.017 -0.0254,0.0339 -0.0254,0.0508l-0.7959 4.6652 1.6426 6.1214c-0.8298,0.745 -2.684,1.3546 -5.5542,1.8372 -2.8786,0.4826 -6.206,0.7197 -9.9737,0.7197 -3.8354,0 -7.2136,-0.254 -10.1177,-0.7535 -2.9125,-0.508 -4.7413,-1.143 -5.4864,-1.8966l1.6341 -6.0536z"
   id="path8" />
  <path
   fill="white"
   d="M24.9492 20.6754c-0.0339,-0.1609 -0.0762,-0.3048 -0.127,-0.4234 -0.0931,-0.3302 -0.1778,-0.5672 -0.2455,-0.7196 -0.0508,-0.1101 -0.1186,-0.254 -0.1948,-0.4318 -0.0846,-0.1694 -0.1693,-0.3556 -0.254,-0.5588 -0.0508,-0.1186 -0.11,-0.271 -0.1862,-0.4572 -0.0678,-0.1948 -0.1355,-0.3726 -0.1863,-0.5334 -0.0423,-0.1524 -0.0677,-0.3048 -0.0677,-0.4742 0,-0.872 0.4148,-1.3123 1.2615,-1.3123 0.8805,0 1.3123,0.4318 1.3123,1.2869 0,0.2202 -0.0338,0.3726 -0.0931,0.4742 -0.2371,0.6265 -0.3556,0.9652 -0.3725,1.016 -0.254,0.4995 -0.4064,0.8212 -0.4742,0.9652 -0.1185,0.2709 -0.1947,0.508 -0.2201,0.7196 -0.0508,0.1016 -0.0847,0.1863 -0.1016,0.2625 -0.0169,0.0762 -0.0339,0.1355 -0.0508,0.1863zm-2.7771 8.5598c-2.0658,0.0338 -3.9539,0.1354 -5.6726,0.3217 -1.7103,0.1778 -3.0311,0.4403 -3.9794,0.7705 -0.491,-0.6181 -1.0668,-1.2277 -1.7187,-1.8542 -0.6604,-0.6181 -1.2277,-1.2023 -1.7272,-1.7442 -0.8297,-0.8466 -1.2361,-1.7695 -1.2361,-2.777 0,-1.2446 0.2032,-2.1506 0.618,-2.7263 0.4403,-0.6689 1.1346,-1.1599 2.0574,-1.4817 0.9229,-0.3217 1.8627,-0.4826 2.8025,-0.4826 1.1938,0 2.3283,0.2625 3.4205,0.7959 1.0753,0.5588 1.7865,1.0075 2.1336,1.3377 1.1261,1.143 2.0066,2.3792 2.6332,3.7169 0.2116,0.4995 0.3725,1.1938 0.4826,2.0743 0.11,0.889 0.1693,1.5664 0.1862,2.049zm2.7771 -4.318c0.1185,-0.4657 0.2117,-0.7874 0.2963,-0.9652 0.1694,-0.6435 0.3556,-1.1938 0.5758,-1.6426 0.0931,-0.2794 0.237,-0.6011 0.4318,-0.9736 0.1862,-0.3726 0.3894,-0.8044 0.6096,-1.2785 0.127,-0.2794 0.2709,-0.6265 0.4148,-1.0329 0.1524,-0.4064 0.3048,-0.8044 0.4488,-1.2023 0.1354,-0.3302 0.2032,-0.6858 0.2032,-1.0668 0,-0.8128 -0.2964,-1.4986 -0.8721,-2.0659 -0.5757,-0.5757 -1.2785,-0.8636 -2.1082,-0.8636 -1.9643,0 -2.9549,0.9906 -2.9549,2.9549 0,0.381 0.0678,0.7366 0.2032,1.0668 0.3641,1.0753 0.6435,1.8203 0.8382,2.2352 0.2202,0.4741 0.4149,0.9059 0.6012,1.2785 0.1778,0.3725 0.3386,0.6942 0.4656,0.9736 0.2202,0.5504 0.398,1.0922 0.5504,1.6426 0.0338,0.0931 0.127,0.4148 0.2963,0.9398zm-0.889 6.223c0,-0.6604 -0.0169,-1.5748 -0.0508,-2.7348 -0.0339,-1.1684 -0.1609,-2.142 -0.3725,-2.921 -0.6774,-2.2098 -1.7018,-3.9962 -3.0819,-5.3509 -0.7112,-0.6943 -1.7949,-1.3462 -3.2681,-1.9389 -1.6849,-0.6604 -3.2851,-0.9906 -4.7922,-0.9906 -2.6077,0 -4.5466,0.9314 -5.7996,2.8025 -0.7112,0.9906 -1.0668,2.2352 -1.0668,3.7169 0,1.6256 0.3979,2.9548 1.1853,3.9962 0.4149,0.5927 1.2107,1.3293 2.3876,2.2098 1.1684,0.8721 2.1675,1.6849 2.9718,2.43 1.4393,-0.3133 3.0649,-0.5842 4.8768,-0.8213 1.8119,-0.2286 4.1487,-0.3641 7.0104,-0.3979zm13.7837 11.7348l-0.7366 -2.9295c-3.2258,-0.7366 -7.2813,-1.1091 -12.1581,-1.1091 -4.826,0 -8.8646,0.3725 -12.1073,1.1091l-0.7874 2.9549c3.1411,-0.9568 7.4422,-1.4394 12.9201,-1.4394 2.6247,0 5.0715,0.1355 7.3152,0.398 2.2521,0.2624 4.1063,0.6011 5.5541,1.016zm-0.6434 -7.4168c-3.0396,-0.8382 -7.0951,-1.2616 -12.1497,-1.2616 -5.0969,0 -9.1948,0.4318 -12.3021,1.287l0.3726 2.5061c3.1242,-0.8128 7.095,-1.2192 11.9295,-1.2192 4.8091,0 8.7291,0.3979 11.7517,1.1938l0.398 -2.5061zm-11.3623 -4.2926c2.8448,0.0508 5.1816,0.1947 7.0019,0.4233 1.8119,0.2286 3.4544,0.508 4.9107,0.8213 0.9059,-0.8975 1.9135,-1.7442 3.0226,-2.557 1.1091,-0.8128 1.8881,-1.507 2.3368,-2.0828 0.7874,-1.0752 1.1853,-2.413 1.1853,-4.0216 0,-1.4648 -0.3556,-2.7009 -1.0668,-3.6915 -1.27,-1.8711 -3.2173,-2.8025 -5.825,-2.8025 -1.524,0 -3.1073,0.3302 -4.7668,0.9906 -1.507,0.5927 -2.5908,1.2362 -3.2766,1.9304 -1.4054,1.3632 -2.4299,3.1496 -3.0734,5.3594 -0.2455,0.762 -0.381,1.7272 -0.4064,2.9041 -0.0254,1.1769 -0.0423,2.0828 -0.0423,2.7263zm1.8119 -1.9304c0,-0.4826 0.0592,-1.16 0.1608,-2.049 0.1101,-0.8805 0.2794,-1.5748 0.508,-2.0743 0.6181,-1.3377 1.4902,-2.5739 2.6332,-3.7169 0.3302,-0.3302 1.0414,-0.7789 2.1336,-1.3377 1.0752,-0.5334 2.2267,-0.7959 3.4459,-0.7959 0.9313,0 1.8457,0.1609 2.7686,0.4826 0.9144,0.3218 1.6087,0.8128 2.0659,1.4817 0.4148,0.5588 0.6265,1.4647 0.6265,2.7263 0,0.9906 -0.4064,1.9134 -1.2192,2.777 -0.5249,0.5419 -1.1007,1.0922 -1.7103,1.651 -0.6096,0.5504 -1.2022,1.2023 -1.761,1.9474 -0.9568,-0.3302 -2.2945,-0.5927 -4.0048,-0.7705 -1.7102,-0.1863 -3.5898,-0.2879 -5.6472,-0.3217z"
   id="path10"
   style="fill-opacity:1.0;fill:url(#linearGradient2173)" />
 </g>
</svg>