<?xml version="1.0" encoding="UTF-8" standalone="no"?>
<!-- Creator: CorelDRAW -->

<svg
   xmlns:dc="http://purl.org/dc/elements/1.1/"
   xmlns:cc="http://creativecommons.org/ns#"
   xmlns:rdf="http://www.w3.org/1999/02/22-rdf-syntax-ns#"
   xmlns:svg="http://www.w3.org/2000/svg"
   xmlns="http://www.w3.org/2000/svg"
   xmlns:xlink="http://www.w3.org/1999/xlink"
   xmlns:sodipodi="http://sodipodi.sourceforge.net/DTD/sodipodi-0.dtd"
   xmlns:inkscape="http://www.inkscape.org/namespaces/inkscape"
   xml:space="preserve"
   width="50mm"
   height="50mm"
   shape-rendering="geometricPrecision"
   text-rendering="geometricPrecision"
   image-rendering="optimizeQuality"
   fill-rule="evenodd"
   clip-rule="evenodd"
   viewBox="0 0 50 50"
   id="svg2"
   sodipodi:version="0.32"
   inkscape:version="0.91 r13725"
   sodipodi:docname="bn.svg"
   inkscape:output_extension="org.inkscape.output.svg.inkscape"
   sodipodi:modified="true"
   version="1.1"><metadata
     id="metadata13"><rdf:RDF><cc:Work
         rdf:about=""><dc:format>image/svg+xml</dc:format><dc:type
           rdf:resource="http://purl.org/dc/dcmitype/StillImage" /></cc:Work></rdf:RDF></metadata><defs
     id="defs11"><linearGradient
       inkscape:collect="always"
       id="linearGradient2165"><stop
         style="stop-color:#ffffff;stop-opacity:1;"
         offset="0"
         id="stop2167" /><stop
         style="stop-color:#b7b7b7;stop-opacity:1"
         offset="1"
         id="stop2169" /></linearGradient><linearGradient
       inkscape:collect="always"
       xlink:href="#linearGradient2165"
       id="linearGradient2171"
       x1="21.253071"
       y1="37.59214"
       x2="43.113819"
       y2="37.59214"
       gradientUnits="userSpaceOnUse" /><linearGradient
       inkscape:collect="always"
       id="linearGradient4223-166"><stop
         style="stop-color:#000000;stop-opacity:1"
         offset="0"
         id="stop4157" /><stop
         style="stop-color:#484848;stop-opacity:1"
         offset="1"
         id="stop4159" /></linearGradient><linearGradient
       inkscape:collect="always"
       xlink:href="#linearGradient4223-166"
       id="linearGradient5558"
       x1="31.424639"
       y1="25.499903"
       x2="3.1953833"
       y2="25.499903"
       gradientUnits="userSpaceOnUse"
       gradientTransform="matrix(0.97634009,0,0,0.97622616,0.58771912,1.2048041)" /></defs><sodipodi:namedview
     inkscape:window-height="1016"
     inkscape:window-width="1920"
     inkscape:pageshadow="2"
     inkscape:pageopacity="0.0"
     guidetolerance="10.0"
     gridtolerance="10.0"
     objecttolerance="10.0"
     borderopacity="1.0"
     bordercolor="#666666"
     pagecolor="#ffffff"
     id="base"
     inkscape:zoom="1.5136422"
     inkscape:cx="248.35965"
     inkscape:cy="85.727389"
     inkscape:window-x="0"
     inkscape:window-y="27"
     inkscape:current-layer="svg2"
     showgrid="true"
     inkscape:window-maximized="1"
     inkscape:snap-bbox="true"
     inkscape:bbox-paths="true"
     inkscape:object-nodes="true"
     inkscape:snap-global="false" /><path
     style="opacity:1;fill:url(#linearGradient5558);fill-opacity:1;stroke:#000000;stroke-width:1;stroke-opacity:1"
     inkscape:connector-curvature="0"
     id="path6"
     d="m 26.14635,9.7946444 c 2.537801,0.165373 4.885411,0.8182726 7.051226,1.9671926 2.157516,1.140623 4.000944,2.611894 5.521886,4.405416 1.066359,1.256403 2.066619,2.777168 3.008983,4.554291 0.950662,1.768726 1.702835,3.653233 2.265011,5.636925 0.644775,2.314339 1.05806,4.736063 1.223354,7.281866 0.173594,2.537407 0.25629,4.893041 0.25629,7.058603 l 0,5.273281 -3.769454,0 -9.770821,0 -16.24337,0 c -0.148794,0 -0.214893,-0.396738 -0.206691,-1.181917 0.0083,-0.793477 0.0579,-1.429879 0.157093,-1.917601 0.0579,-0.388441 0.214892,-0.933956 0.454681,-1.644746 0.247991,-0.710888 0.644775,-1.570455 1.215153,-2.587097 0.256192,-0.520719 0.867966,-1.272901 1.835129,-2.264747 0.975364,-0.991846 2.083119,-2.148967 3.34787,-3.454864 0.727373,-0.743885 1.28955,-1.677938 1.702835,-2.810263 0.259885,-1.091123 1.074316,-3.404939 0.137229,-4.264548 -0.231498,-0.187458 -0.733012,0.06845 -2.003645,1.470388 -2.112975,2.33132 -5.902171,3.695951 -7.431413,6.018491 -0.870115,1.332118 -1.555268,3.578414 -3.248674,3.736017 -0.901064,0.04129 -1.175664,-0.174502 -1.6798462,-1.10016 C 8.5859296,36.439646 7.2223178,36.091728 6.1914231,35.128103 4.7194612,33.694948 4.2166062,31.819265 4.2075,29.995302 c 0,-1.355588 0.8348684,-3.149111 2.521203,-5.380764 1.9674229,-2.562301 3.0172814,-4.521196 3.1412766,-5.860188 0,-0.578609 0.057799,-1.231509 0.1735934,-1.958895 0.0992,-0.504221 0.297588,-0.983548 0.603378,-1.454675 0.21499,-0.32235 0.355485,-0.545515 0.421584,-0.661295 0.0744,-0.123981 0.206691,-0.305754 0.405083,-0.545516 0.140496,-0.198369 0.264491,-0.347146 0.363687,-0.44633 0.09099,-0.107385 0.21499,-0.247962 0.363784,-0.429735 0.173593,-0.206667 0.396785,-0.446331 0.677776,-0.727386 -0.859668,-2.355634 -1.206854,-4.7856555 -1.04156,-7.2817682 3.207375,1.1406226 5.91047,2.9424433 8.084486,5.3972612 0.537378,-1.8266164 1.587139,-3.3061848 3.149478,-4.4302116 1.28955,0.9008615 2.31461,2.0993744 3.075081,3.578845 z"
     sodipodi:nodetypes="ccccccscccsccccccccscccccccccccccccccc" /><path
     inkscape:connector-curvature="0"
     sodipodi:nodetypes="cccccccccccccccccccsccccccccccccccccccccccccccccccc"
     style="fill:url(#linearGradient2171);fill-opacity:1"
     id="path8"
     d="m 16.671551,17.222618 c 0.3641,-0.1863 0.5419,-0.2794 0.5419,-0.2794 0.4995,-0.1947 0.6519,-0.5588 0.4741,-1.0922 -0.1947,-0.4911 -0.5757,-0.6604 -1.143,-0.4911 -1.9473,0.7112 -3.2935,2.0151 -4.0386,3.9201 -0.1185,0.5419 0.0762,0.9144 0.5927,1.1176 0.5165,0.1609 0.8636,-0.0169 1.0414,-0.5503 0.1355,-0.2794 0.2286,-0.4657 0.2963,-0.5419 z m -4.494379,14.907255 c -0.0254,-0.4572 -0.166849,-0.6942 -0.615549,-0.6942 -0.572305,0.696648 -0.490637,1.335208 -1.240642,2.038283 -0.4486995,0.4657 -0.568281,0.502244 0.0074,0.815444 l 0,0 c 0.5334,0.3133 0.845209,0.202241 1.027259,-0.140659 0.563276,-0.697052 0.733919,-1.280695 0.821513,-2.018868 z M 26.2034,24.7644 c 1.16,-1.524 1.7272,-3.2173 1.7103,-5.08 -0.0677,-0.5503 -0.381,-0.8212 -0.9398,-0.8212 -0.762,0 -1.0583,0.2794 -0.8975,0.8382 0.0508,0.9144 -0.0338,1.6679 -0.2709,2.2606 -0.381,0.9398 -0.8043,1.6425 -1.2615,2.1082 -0.254,0.4995 -0.1016,0.8636 0.4487,1.0922 l 0,0 c 0.5249,0.2455 0.9313,0.1185 1.2107,-0.398 z m -6.477,-12.1073 c -0.0762,-0.5927 -0.0592,-1.2361 0.0508,-1.9304 -0.9906,0.1947 -1.9219,0.6604 -2.8024,1.3885 -0.525,0.2794 -0.652,0.6689 -0.3726,1.1684 0.2794,0.508 0.6689,0.5927 1.1684,0.2456 0.3472,-0.1863 0.6689,-0.3556 0.9568,-0.508 0.2878,-0.1609 0.618,-0.2794 0.999,-0.3641 z m 23.2495,31.4537 c -0.0169,0 0,-0.4488 0.0423,-1.3462 0.131225,-3.107467 0.09547,-6.220708 0.0762,-9.3303 -0.0169,-2.2098 -0.3132,-4.4111 -0.889,-6.6125 -0.839736,-3.309941 -2.12404,-6.484595 -4.0724,-9.2964 -2.634128,-3.845425 -6.81436,-6.033645 -11.2861,-6.9765 0.126251,0.765797 0.03295,1.540013 0.0762,2.3114 1.6002,0.5419 3.1157,1.2192 4.5381,2.032 4.240858,2.554367 6.414009,7.275359 7.1967,11.9295 1.271801,6.154161 0.452633,11.557496 0.8128,17.289 z M 9.3056275,29.208792 c 0.4742,-0.3387 0.525,-0.7282 0.144,-1.1938 -0.398,-0.381 -0.8298,-0.4149 -1.3124,-0.1016 -1.0075,0.6604 -1.5494,1.5324 -1.6171,2.6077 0.0169,0.5419 0.3471,0.8043 0.9737,0.7705 0.5926,-0.0508 0.8805,-0.3556 0.8636,-0.9229 0.1354,-0.5249 0.4487,-0.9144 0.9482,-1.1599 z" /><circle
     r="1.489815"
     cy="18.171089"
     cx="15.48767"
     id="path8070-2"
     style="color:#000000;clip-rule:evenodd;display:inline;overflow:visible;visibility:visible;opacity:1;fill:#ffffff;fill-opacity:1;fill-rule:evenodd;stroke:none;stroke-width:1.5;stroke-linecap:round;stroke-linejoin:round;stroke-miterlimit:4;stroke-dasharray:none;stroke-dashoffset:0;stroke-opacity:1;marker:none;marker-start:none;marker-mid:none;marker-end:none;image-rendering:optimizeQuality;shape-rendering:geometricPrecision;text-rendering:geometricPrecision;enable-background:accumulate" /></svg>