<?xml version="1.0" encoding="UTF-8" standalone="no"?>
<!-- Creator: CorelDRAW -->

<svg
   xmlns:dc="http://purl.org/dc/elements/1.1/"
   xmlns:cc="http://creativecommons.org/ns#"
   xmlns:rdf="http://www.w3.org/1999/02/22-rdf-syntax-ns#"
   xmlns:svg="http://www.w3.org/2000/svg"
   xmlns="http://www.w3.org/2000/svg"
   xmlns:xlink="http://www.w3.org/1999/xlink"
   xmlns:sodipodi="http://sodipodi.sourceforge.net/DTD/sodipodi-0.dtd"
   xmlns:inkscape="http://www.inkscape.org/namespaces/inkscape"
   xml:space="preserve"
   width="50mm"
   height="50mm"
   shape-rendering="geometricPrecision"
   text-rendering="geometricPrecision"
   image-rendering="optimizeQuality"
   fill-rule="evenodd"
   clip-rule="evenodd"
   viewBox="0 0 50 50"
   id="svg2"
   sodipodi:version="0.32"
   inkscape:version="0.91 r13725"
   sodipodi:docname="wk.svg"
   inkscape:output_extension="org.inkscape.output.svg.inkscape"
   sodipodi:modified="true"
   version="1.1"><metadata
     id="metadata15"><rdf:RDF><cc:Work
         rdf:about=""><dc:format>image/svg+xml</dc:format><dc:type
           rdf:resource="http://purl.org/dc/dcmitype/StillImage" /></cc:Work></rdf:RDF></metadata><defs
     id="defs13"><linearGradient
       inkscape:collect="always"
       id="linearGradient2167"><stop
         style="stop-color:#ffffff;stop-opacity:1;"
         offset="0"
         id="stop2169" /><stop
         style="stop-color:#b7b7b7;stop-opacity:1"
         offset="1"
         id="stop2171" /></linearGradient><linearGradient
       inkscape:collect="always"
       xlink:href="#linearGradient2167"
       id="linearGradient4155"
       gradientUnits="userSpaceOnUse"
       x1="20.700541"
       y1="23.422642"
       x2="45.393116"
       y2="23.422642"
       gradientTransform="translate(0.05080097,0)" /></defs><sodipodi:namedview
     inkscape:window-height="1016"
     inkscape:window-width="1920"
     inkscape:pageshadow="2"
     inkscape:pageopacity="0.0"
     guidetolerance="10.0"
     gridtolerance="10.0"
     objecttolerance="10.0"
     borderopacity="1.0"
     bordercolor="#666666"
     pagecolor="#ffffff"
     id="base"
     inkscape:zoom="2.2438292"
     inkscape:cx="182.04854"
     inkscape:cy="10.806278"
     inkscape:window-x="0"
     inkscape:window-y="27"
     inkscape:current-layer="svg2"
     showgrid="true"
     inkscape:window-maximized="1" /><path
     style="fill:#000000;fill-opacity:1;stroke-width:1"
     d="m 21.791178,13.47626 c -0.653971,0.629715 -1.138492,1.473728 -1.339454,2.499589 -0.210597,0.615685 -0.160991,1.2141 -0.06304,1.805574 -1.139901,-0.607088 -2.384382,-1.142263 -3.453018,-1.451074 -1.607445,-0.476678 -3.068953,-0.861785 -4.567164,-0.8754 -4.6140746,0.354171 -8.4808224,3.109095 -8.6790826,7.912694 -0.025612,0.532834 0.019685,1.067607 0.1235075,1.608171 0.010716,0.05948 0.019976,0.118711 0.032038,0.178283 0.00489,0.02248 0.010398,0.04519 0.015505,0.0677 0.5918332,2.265724 1.6877426,4.293165 3.5000432,5.727815 0.8828167,0.793827 1.8634366,1.51007 2.8008639,2.077395 l 0.433565,2.313554 0.427366,2.453595 -1.6422806,6.121074 c 0.8298026,0.745001 2.6839846,1.354497 5.5541846,1.837097 2.878598,0.4826 6.205852,0.719852 9.97355,0.719852 0.01138,0 0.02246,-2.64e-4 0.03359,-5.29e-4 0.01294,5e-6 0.02529,5.29e-4 0.03824,5.29e-4 0.0068,0 0.01347,8.8e-5 0.02016,0 0.0069,9e-5 0.01368,0 0.02066,0 0.01294,0 0.02532,-5.29e-4 0.03824,-5.29e-4 0.01111,1.51e-4 0.02222,5.29e-4 0.03359,5.29e-4 3.767702,0 7.094953,-0.237252 9.973551,-0.719852 2.8702,-0.4826 4.724384,-1.092096 5.554184,-1.837097 L 38.9777,37.794156 39.405063,35.340561 39.83863,33.027007 c 0.937424,-0.567325 1.918047,-1.283568 2.800861,-2.077395 1.745263,-1.454531 3.021624,-3.534169 3.500046,-5.727815 0.0051,-0.0225 0.01061,-0.04521 0.0155,-0.0677 0.01206,-0.05957 0.02133,-0.118798 0.03204,-0.178283 0.103807,-0.540564 0.149109,-1.075337 0.123505,-1.608171 -0.534585,-4.792984 -3.959616,-7.876818 -8.679079,-7.912694 -1.570045,0.02913 -3.271568,0.438824 -4.567163,0.8754 -1.068637,0.308812 -2.313118,0.843987 -3.453019,1.451074 0.15622,-0.631424 0.08598,-1.229773 -0.06304,-1.805574 -0.200933,-1.025715 -0.685107,-1.869903 -1.338937,-2.499589 -1.907286,-1.715938 -4.70317,-1.704366 -6.418212,0 z"
     id="path4162"
     inkscape:connector-curvature="0"
     sodipodi:nodetypes="cccccccccccccccscscscsccccccccccccccccc" /><path
     style="fill:#000000;fill-opacity:1"
     inkscape:connector-curvature="0"
     id="path6"
     d="m 25.859398,12.046768 c 0,0 -0.385338,-0.07787 -0.88055,-0.07787 -0.495212,0 -0.88055,0.07787 -0.88055,0.07787 l 0,-3.2511996 -2.0659,0 c -0.5588,0 -0.8382,-0.2709 -0.8382,-0.8212 l 0,-0.0254 c 0,-0.5419 0.2794,-0.8128 0.8382,-0.8128 l 2.0659,0 0,-2.1082 c 0,-0.5842 0.2963,-0.8721 0.889,-0.8721 l 0,0 c 0.5757,0 0.8721,0.2879 0.8721,0.8721 l 0,2.1082 2.1336,0 c 0.5418,0 0.8128,0.2709 0.8128,0.8128 l 0,0.0254 c 0,0.5503 -0.271,0.8212 -0.8128,0.8212 l -2.1167,0.0254 z"
     sodipodi:nodetypes="czccsssscsccscsssccc" /><path
     style="fill:url(#linearGradient4155);fill-opacity:1;stroke-width:1"
     d="m 22.019572,16.779417 c 0,0.381 0.06769,0.736919 0.203086,1.067119 0.210177,0.579532 0.443762,1.145042 0.685747,1.706872 0.696822,1.860842 1.543801,3.688074 2.089277,5.381067 7.04e-4,0.0022 0.0014,0.0045 0.0021,0.0067 -5e-5,1.52e-4 4.7e-5,3.65e-4 0,5.17e-4 1.6e-5,5.2e-5 5e-4,-5.3e-5 5.16e-4,0 6.4e-4,-0.0024 0.0014,-0.0048 0.0021,-0.0072 0.545478,-1.692993 1.392457,-3.520225 2.08928,-5.381067 0.241985,-0.56183 0.47557,-1.12734 0.685744,-1.706872 0.135401,-0.3302 0.203089,-0.686119 0.203089,-1.067119 -0.798541,-4.339506 -5.726927,-3.375174 -5.960939,-1.7e-5 z M 6.7460747,20.005575 c -0.7112,0.9906 -1.0671175,2.234869 -1.0671175,3.716569 0,0.0044 5.107e-4,0.0085 5.16e-4,0.01292 -5.3e-6,0.0044 -5.16e-4,0.0085 -5.16e-4,0.01292 0.053492,3.686773 2.5276934,5.520895 5.1056338,7.492566 0.393837,-0.141642 0.81902,-0.273582 1.270206,-0.397391 1.167728,-0.298773 2.595131,-0.561084 4.292243,-0.77928 2.748878,-0.33574 5.073169,-0.466473 7.711156,-0.506421 0.03198,-4.16e-4 0.06305,-0.0012 0.09509,-0.0016 0,-0.6604 -0.01713,-1.312166 -0.05943,-1.947166 -0.0424,-0.635 -0.177577,-1.346452 -0.406177,-2.125452 -0.6604,-2.1759 -1.693482,-3.962078 -3.081981,-5.350578 -0.7366,-0.7112 -1.828718,-1.3547 -3.268019,-1.9389 C 13.684347,16.873023 9.1865192,16.502785 6.7460747,20.005575 Z M 32.662329,18.193801 c -1.439302,0.5842 -2.53142,1.2277 -3.26802,1.9389 -1.388499,1.3885 -2.42158,3.174678 -3.08198,5.350578 -0.228603,0.779 -0.363778,1.490452 -0.406178,2.125452 -0.0423,0.635 -0.05943,1.286766 -0.05943,1.947166 0.03204,3.84e-4 0.06311,0.0011 0.09508,0.0016 2.529147,0.02809 5.301856,0.199465 7.711157,0.506421 1.697109,0.218196 3.124515,0.480507 4.292243,0.77928 0.451186,0.123809 0.876368,0.255749 1.270206,0.397391 2.654938,-1.871365 5.065719,-4.157985 5.105633,-7.492566 0,-0.0044 -5.11e-4,-0.0085 -5.16e-4,-0.01292 5e-6,-0.0044 5.16e-4,-0.0085 5.16e-4,-0.01292 0,-1.4817 -0.355918,-2.725969 -1.06712,-3.716569 -2.550779,-3.459606 -6.957199,-3.209883 -10.591591,-1.811813 z M 24.999747,31.24055 c -0.675936,0 -1.334857,0.0073 -1.978173,0.02119 -2.227395,0.04812 -4.247793,0.184553 -6.085935,0.398426 -0.02439,0.0029 -0.04906,0.0054 -0.07338,0.0083 -1.824003,0.215014 -3.467918,0.506929 -4.909262,0.884701 l 0.618051,3.648874 c 0.0052,-0.0013 0.01079,-0.0023 0.01602,-0.0036 l 0.0093,0.05478 c 3.120175,-0.790472 7.253406,-1.187916 12.403378,-1.193208 5.150215,0.0053 9.283612,0.40271 12.403894,1.193208 l 0.0093,-0.05478 c 0.0052,0.0013 0.01079,0.0023 0.01602,0.0036 l 0.61805,-3.648874 c -1.441344,-0.377772 -3.085258,-0.669687 -4.909261,-0.884701 -0.0244,-0.0029 -0.04891,-0.0054 -0.07338,-0.0083 -1.838142,-0.213873 -3.85854,-0.350301 -6.085935,-0.398426 -0.643316,-0.0139 -1.302237,-0.02119 -1.978173,-0.02119 z m 0,5.486487 c -0.60325,0 -1.19438,0.0057 -1.773537,0.01705 -4.054088,0.07963 -7.517357,0.438214 -10.384377,1.075389 l -0.426849,1.648475 -0.334862,1.221632 c 1.764593,-0.515689 3.889216,-0.888534 6.375839,-1.117243 0.04022,-0.0037 0.08051,-0.0073 0.120922,-0.01085 1.925254,-0.172659 4.065709,-0.259284 6.422864,-0.259932 2.357363,6.35e-4 4.49798,0.08726 6.423379,0.259932 0.04041,0.0036 0.0807,0.0072 0.120923,0.01085 2.486623,0.228709 4.611243,0.601554 6.375839,1.117243 l -0.334865,-1.22163 -0.426847,-1.648475 c -2.867019,-0.637175 -6.330291,-0.99576 -10.384377,-1.075389 -0.002,-3.9e-5 -0.0042,4e-5 -0.0062,0 -0.577305,-0.01137 -1.166714,-0.01705 -1.767852,-0.01705 z m -0.101288,4.335137 c -5.7658,0 -10.253175,0.651899 -13.445172,1.938898 0.02867,0.01184 0.06125,0.02288 0.09043,0.03462 -0.01292,0.0055 -0.02692,0.01047 -0.03979,0.01602 2.833989,1.120323 7.179694,1.702038 13.03538,1.732711 0.14541,8.15e-4 0.288378,0.0031 0.435116,0.0031 l 0.02532,0 0.02584,0 c 0.146741,0 0.289709,-0.0023 0.435116,-0.0031 5.855689,-0.03067 10.201394,-0.612388 13.03538,-1.732711 -0.01287,-0.0056 -0.02687,-0.01049 -0.03979,-0.01602 0.02918,-0.01174 0.06176,-0.02279 0.09043,-0.03462 -3.191997,-1.286999 -7.679375,-1.938898 -13.445175,-1.938898 -0.03445,0 -0.06744,4.71e-4 -0.101801,5.16e-4 -0.03419,-4.3e-5 -0.06701,-5.16e-4 -0.101288,-5.16e-4 z"
     id="path4153"
     inkscape:connector-curvature="0"
     sodipodi:nodetypes="cccccccccccccssccccccccccccccccccccccccccccccccccccccssssccccccccccccccscccccscsccccsccccc" /></svg>