<?xml version="1.0" encoding="UTF-8" standalone="no"?>
<!-- Creator: CorelDRAW -->

<svg
   xmlns:dc="http://purl.org/dc/elements/1.1/"
   xmlns:cc="http://creativecommons.org/ns#"
   xmlns:rdf="http://www.w3.org/1999/02/22-rdf-syntax-ns#"
   xmlns:svg="http://www.w3.org/2000/svg"
   xmlns="http://www.w3.org/2000/svg"
   xmlns:xlink="http://www.w3.org/1999/xlink"
   xmlns:sodipodi="http://sodipodi.sourceforge.net/DTD/sodipodi-0.dtd"
   xmlns:inkscape="http://www.inkscape.org/namespaces/inkscape"
   xml:space="preserve"
   width="50mm"
   height="50mm"
   shape-rendering="geometricPrecision"
   text-rendering="geometricPrecision"
   image-rendering="optimizeQuality"
   fill-rule="evenodd"
   clip-rule="evenodd"
   viewBox="0 0 50 50"
   id="svg2"
   sodipodi:version="0.32"
   inkscape:version="0.91 r13725"
   sodipodi:docname="wp.svg"
   inkscape:output_extension="org.inkscape.output.svg.inkscape"
   sodipodi:modified="true"
   version="1.1"><metadata
     id="metadata13"><rdf:RDF><cc:Work
         rdf:about=""><dc:format>image/svg+xml</dc:format><dc:type
           rdf:resource="http://purl.org/dc/dcmitype/StillImage" /></cc:Work></rdf:RDF></metadata><defs
     id="defs11"><linearGradient
       inkscape:collect="always"
       id="linearGradient4223"><stop
         style="stop-color:#ffffff;stop-opacity:1"
         offset="0"
         id="stop4225" /><stop
         style="stop-color:#b7b7b7;stop-opacity:1"
         offset="1"
         id="stop4227" /></linearGradient><linearGradient
       inkscape:collect="always"
       xlink:href="#linearGradient4223"
       id="linearGradient4147"
       gradientUnits="userSpaceOnUse"
       gradientTransform="matrix(0.91983598,0,0,0.91983595,44.889402,-165.43112)"
       x1="-26.698618"
       y1="210.77223"
       x2="-6.5282454"
       y2="210.77223" /></defs><sodipodi:namedview
     inkscape:window-height="1016"
     inkscape:window-width="1920"
     inkscape:pageshadow="2"
     inkscape:pageopacity="0.0"
     guidetolerance="10.0"
     gridtolerance="10.0"
     objecttolerance="10.0"
     borderopacity="1.0"
     bordercolor="#666666"
     pagecolor="#ffffff"
     id="base"
     inkscape:zoom="7.4589794"
     inkscape:cx="78.708129"
     inkscape:cy="6.378673"
     inkscape:window-x="0"
     inkscape:window-y="27"
     inkscape:current-layer="svg2"
     showgrid="true"
     inkscape:window-maximized="1"
     inkscape:snap-object-midpoints="false" /><path
     style="clip-rule:evenodd;fill:url(#linearGradient4147);fill-opacity:1;fill-rule:evenodd;stroke:#000000;stroke-width:1.74652588;stroke-linecap:round;stroke-linejoin:round;stroke-miterlimit:4;stroke-dasharray:none;stroke-opacity:1;image-rendering:optimizeQuality;shape-rendering:geometricPrecision;text-rendering:geometricPrecision"
     d="m 21.702341,9.3306798 c -0.910954,0.9184832 -1.370104,2.0254122 -1.370104,3.3129312 0,1.530801 0.615191,2.771018 1.853152,3.705172 -1.557151,0.180626 -2.865409,0.863894 -3.924322,2.049226 -1.066647,1.177542 -1.595869,2.574538 -1.595869,4.183881 0,1.287413 0.342408,2.441343 1.035324,3.461909 0.677379,1.020481 1.55726,1.782233 2.631715,2.284672 -2.507013,0.965593 -4.5626,2.574621 -6.158745,4.827717 -1.596138,2.260884 -2.390448,4.804611 -2.390448,7.638496 0.03358,1.650797 0.382854,3.461094 0.88757,4.804272 l 0.02375,0 c 8.203743,0 16.407484,0 24.611227,0 l 0.02324,0 c 0.572826,-1.73125 0.869514,-3.169569 0.88757,-4.804272 0,-2.833885 -0.794308,-5.377612 -2.390447,-7.638496 -1.596145,-2.253096 -3.651217,-3.862124 -6.15823,-4.827717 1.074457,-0.502439 1.95382,-1.264191 2.631199,-2.284672 0.692917,-1.020566 1.03584,-2.174496 1.03584,-3.461909 0,-1.609343 -0.529738,-3.006339 -1.596385,-4.183881 -1.058913,-1.185332 -2.366652,-1.8686 -3.923806,-2.049226 1.237961,-0.934154 1.853152,-2.174371 1.853152,-3.705172 0,-1.287519 -0.459666,-2.394448 -1.37062,-3.3129312 -1.989848,-1.7391427 -4.692045,-1.8669585 -6.594775,0 z"
     id="path4145"
     inkscape:connector-curvature="0"
     sodipodi:nodetypes="csccsccccccccccccsccscc" /></svg>