<svg clip-rule="evenodd" fill-rule="evenodd" height="144" image-rendering="optimizeQuality" shape-rendering="geometricPrecision" text-rendering="geometricPrecision" viewBox="0 0 3810 3810" width="144" xmlns="http://www.w3.org/2000/svg"><g fill="#383838"><path d="M953 3239h1907v204H953z"/><path d="M1099 3386h1621v153H1099z"/><path d="M950 3506h1907v204H950z"/></g><path d="M1099 3443h1621v63H1099z" fill="#111"/><g fill="#383838"><path d="M1659 2059l296-4 1 1282-618-9z"/><path d="M2140 2059l-264-4v1282l617-9z"/><path d="M1355 1907h1115v158H1355z"/><ellipse cx="1890" cy="1549" rx="414" ry="433"/></g><g fill="#111"><path d="M1980 1126s195 147 218 349c36 315-162 418-446 351-143-34-244-110-231-82 0 0 21 51 59 90 37 39 82 75 82 75h457s74-41 114-117c40-77 72-137 72-244s-41-199-68-237-56-71-105-114c-48-44-152-71-152-71z"/><path d="M2074 1907l69 158h326v-158zm-516 158h585l346 1242h-255l-168-1095z"/><path d="M2466 3239l70 471h321v-204h-137v-63h140v-204z"/></g></svg>