<svg clip-rule="evenodd" fill-rule="evenodd" height="144" image-rendering="optimizeQuality" shape-rendering="geometricPrecision" text-rendering="geometricPrecision" viewBox="0 0 3810 3810" width="144" xmlns="http://www.w3.org/2000/svg"><g fill="#fff"><path d="M828 1378c-183 169-132 155-60 286s195 227 503 77 390-133 517-103 159 91 167 157-186 227-400 433c-214 205-402 243-373 671 30 428 19 525-42 592s1074 263 1221 196c147-68 543-55 465-460-78-406-208-900-10-1238s398-1042-527-1423-558 35-648 83c-90 47-121 57-175 83-98 47-463 485-639 647z"/><path d="M890 3239h2217v204H890z"/><path d="M1059 3386h1885v153H1059z"/><path d="M886 3506h2217v204H886z"/></g><g fill="#d1d1d1"><path d="M1615 1644s85-124 262-131c176-7 75-331 75-331s227 293 227 444-239 217-239 217-30-182-324-200zm1004-900s425 238 221 842-560 915-498 1226 9 364 31 391 93 27 195-4 84 44 93 89c9 44 72 421 72 421h369v-204h-159v-63h163v-204h-277s-95-448-116-728 58-454 170-653c111-200 231-777-265-1113z"/><path d="M1060 3443h1885v63H1060z"/></g></svg>