<svg xmlns="http://www.w3.org/2000/svg" width="1" height="1" viewBox="-14.05 -10 220 220"><switch><g><path d="M96.1 176.3H49.8v15.8h92.5v-15.8H96.1"/><path fill="none" stroke="#000" stroke-width="6" stroke-miterlimit="10" d="M96.1 176.3H49.8v15.8h92.5v-15.8H96.1"/><path fill="#FFF" d="M49.8 168.5v7.8h92.5v-7.8"/><path fill="none" stroke="#000" stroke-width="6" stroke-miterlimit="10" d="M49.8 168.5v7.8h92.5v-7.8"/><path d="M103.7 68.4V42.5h23.2V26.7h-23.2l.1-23.6H88.3v23.6H65.2v15.8h23.1v25.9"/><path fill="none" stroke="#000" stroke-width="6" stroke-miterlimit="10" d="M103.7 68.4V42.5h23.2V26.7h-23.2l.1-23.6H88.3v23.6H65.2v15.8h23.1v25.9"/><path d="M187.3 75.7C180.1 47 152.8 44 152.8 44 114.3 38.6 96.4 80.8 96 81.8c-.4-1-18.3-43.3-56.8-37.9 0 0-27.4 3-34.5 31.7 0 0-13.8 51.8 45 92.8h92.5c58.8-40.9 45.1-92.7 45.1-92.7"/><path fill="none" stroke="#000" stroke-width="6" stroke-miterlimit="10" d="M187.3 75.7C180.1 47 152.8 44 152.8 44 114.3 38.6 96.4 80.8 96 81.8c-.4-1-18.3-43.3-56.8-37.9 0 0-27.4 3-34.5 31.7 0 0-13.8 51.8 45 92.8h92.5c58.8-40.9 45.1-92.7 45.1-92.7zM88.3 68.4h15.4"/><path fill="none" stroke="#FFF" stroke-width="6" stroke-miterlimit="10" d="M147.5 67.2c-25.1-2.2-43.6 50.9-43.6 50.9v32.8s26.2-.6 46.6-21.8c20.4-21.4 22.1-59.8-3-61.9zM44.5 67.2c-25.1 2.2-23.4 40.6-3 61.9 20.4 21.3 46.8 21.8 46.8 21.8v-32.8S69.6 65 44.5 67.2z"/><path fill="none" stroke="#FFF" stroke-width="4" stroke-miterlimit="10" d="M96 18.8v39.4M80.6 34.6h30.9"/></g></switch></svg>