<svg xmlns="http://www.w3.org/2000/svg" width="1" height="1" viewBox="-63.35 -10 220 220" enable-background="new 0 0 99.3 195.4"><switch><g><g><path d="M96 168.5c-.2-58.8-15.2-101.9-15.2-101.9L96 58.4V3.3H72.8V19H61.3V3.3H38.1V19H26.6V3.3H3.4v55.1l15.2 8.3s-15.1 43-15.2 101.9"/><path fill="none" stroke="#000" stroke-width="6" stroke-miterlimit="10" d="M96 168.5c-.2-58.8-15.2-101.9-15.2-101.9L96 58.4V3.3H72.8V19H61.3V3.3H38.1V19H26.6V3.3H3.4v55.1l15.2 8.3s-15.1 43-15.2 101.9"/><path fill="#fff" d="M3.4 176.4v-7.9H96v7.9"/><path fill="none" stroke="#000" stroke-width="6" stroke-miterlimit="10" d="M3.4 176.4v-7.9H96v7.9"/><path d="M49.7 176.4H3.4v15.7H96v-15.7H49.7"/><path fill="none" stroke="#000" stroke-width="6" stroke-miterlimit="10" d="M49.7 176.4H3.4v15.7H96v-15.7H49.7"/><path fill="none" stroke="#fff" stroke-width="4" stroke-miterlimit="10" d="M18.6 66.6h62.2"/><path fill="none" stroke="#fff" stroke-width="4" stroke-miterlimit="10" d="M3.4 57.5H96"/></g></g></switch></svg>