<svg height="1" viewBox="-32.45 -10 220 220" width="1" xmlns="http://www.w3.org/2000/svg"><switch><g><path d="M97.9 170.4c9.7 0 9.7-15 0-15-9.6 0-9.6 15 0 15M39.1 30.5c-2-3-4.5-4.4-7.8-5.7-3.5-1.3-6.5-3.4-10-4.7-6.7-2.5-18.4-5.4-19 5.5-.2 3.1 1.2 5.8 2.3 8.7 1.5 3.7 3 7.6 5.8 10.6 2.6 2.9 5.6 4.5 9.2 5.9 1.9.8 4.7.8 6.7.3 1.1-.2 2.1-.6 3.1-1.1 1.6-.8 1.8-.9.6-.4 2.9-1.2 5.9-3.7 5.5-7.2-.6-5.5-4.4-9.1-9.5-10.7-6.8-2.1-13.3 7.7-7.3 12.5C24.6 49 35 58.9 41.6 49.5c4.9-6.9-1.2-17.6-5.2-23.3-2.8 3.7-5.6 7.3-8.5 11 3.7.7 7 3.1 10.8 3.8 5.6.9 11.1-1.1 13.6-6.5 1.9-4.1.7-10-4.5-11-2.7-.5-5-.3-7.7-.3-9.7.1-9.7 15 0 15 7.6 0 14.9-.7 21.1-5.5 2.6-2 6.7-1.8 9.8-2.6 4.8-1.3 8.1-2.6 13-1.2 6.4 1.8 11.4 6.1 18.4 4.6 3.6-.8 6.3-4.2 7.1-7.6.5-2.1.1-4-.2-6-.7 1.8-.6 2.1.2 1 .9-.6.8-.7-.4-.2-1.3-.3-2.5-.7-3.8-1 1.2.6 2.4 4.6 3.5 6.2 2.1 3.1 4.3 6 6.2 9.2l.9 1.8-.1-.1c.5 2.7 1.5 1.1 2.9-4.6-2 .8-4.2 1.1-6.2 1.9 1.3-.5 1.9 3.2.2-.6-.4-1-.7-2.1-1-3.2-.6-2.5 2.2-.1-1.7 2.1-1.3.3-2.5.7-3.8 1-3.9.5-1.8-5-.8-5.8-1.7 1.2-3.5 2.4-5.2 3.5-3.4 2.2-7 4.1-10.5 6.1-7.4 4.3-14.4 9.3-21.6 13.9-6.9 4.4-13.1 9.3-21.2 11-4 .9-7.7-.5-11.4-1.7-3.9-1.3-8.2-1.8-11.6-4.1-1.3 4.7-2.5 9.3-3.8 14 9.4 1.2 16.3-1.1 23.7-7.1 3.5-2.9 6.2-6.2 6.5-10.9.2-2.1-.2-4.1-.8-6.1-.2-.5-.4-1-.6-1.6-.1-.3-.2-.6-.2-.9.1 1.6-.5 2.9-1.9 3.9-1.3.3-2.5.7-3.8 1 2.5-.1 1.6-.9-2.8-2.4-.4-2.2-.6-2.6-.5-1.2 0 .9-.1 1-.4 2.4-.6 2.7-1.6 5.4-2.3 8.1-2.1 7.2 1.4 16 10.4 13.7 3.4-.9 6.2-4.3 8.2-6.9 3.1-3.9 4.8-8.6 5.1-13.5.1-2 0-4-.1-6v-4.2c0-.6.1-1.3.1-1.9 0 .1 0 .3-.1.4.6-2-.3-1.1-2.7 2.8-1.3.3-2.5.7-3.8 1h.4c-1.3-.3-2.5-.7-3.8-1 .9.4 3.8 3.5 3.9 5.7.2 2.4-.8 5.2-1.1 7.6-.3 3.3.9 6.8 2.6 9.5 3.7 6 11.3 4 13.7-1.8 3.2-7.8 3.9-16.2 3.3-24.5-.1-.9-.1-1.7 0-2.6-4.5 2-5.5 3.2-2.7 3.5.4.1.9.2 1.3.4 1.8 1.2 1.5.1-.9-3.2-.5 2.4-2.1 4.9-3 7.2-2.8 7.5 3.5 15.2 11.4 11.4 3.4-1.6 5.8-4.6 8.1-7.6 1.2-1.6 2-3.4 2.7-5.2.4-.8.7-1.7 1-2.5 1-2.7 2.1-3.1-1-.8-1.3.3-2.5.7-3.8 1-2.3.2-1.6-.5-.1.7 1.2 1 2.4 1.9 3.8 2.8 3.1 2.1 6.4 1.3 9.7.5l-9.2-9.2c-.7 4.9-1.8 9.6-1.8 14.6-.1 3.8-3.2 6.2-5.6 8.8-2.9 3.1-5.5 6.7-7.8 10.3-.8 1.3-1.5 2.7-2.1 4.2-.3.6-.5 1.2-.8 1.8-1.3 2.7-1.6.7 1.2.1h4c2.6 3.1 3.4 3.5 2.6 1.2-.4-1.5-1-2.8-1.8-4.1s-2-2.4-3.3-3.2c-2.4-1.6-1.2-1.9 0 1.3v4c.1-.3.2-.5.3-.8 1.3-3.9-1.4-8.2-5.2-9.2-1.2-.3-2.5-.4-3.7-.9.6 4.6 1.2 9.1 1.8 13.7 5.3-3 11.1-5 16.3-8-3.8-2.2-7.5-4.3-11.3-6.5.3 2.9-1.4 6.3-2.5 8.9-.9 2.1-1.7 4.1-2.1 6.3-.2 1-.3 2.1-.2 3.1.2-.6.4-1.1.6-1.7l-1.8 2.4c-5.4 8 7.6 15.5 13 7.6 1.2-1.8 2.2-3.1 2.9-5.2.4-1.3 0-2.5.3-3.8.3-1.5 1.1-3 1.7-4.5 1.6-4.1 3.8-8.7 3.2-13.2-.7-5.4-5.9-9.6-11.3-6.5-5.3 3.1-11 5.1-16.3 8-6.1 3.4-4 11.6 1.8 13.7 1.2.5 2.5.5 3.7.9-1.7-3.1-3.5-6.2-5.2-9.2-1.2 3.6.1 6.8 2.6 9.5l2.4 1.8c1.3.9 1.2.8-.1-.5.6 1.8 1.1 3.5 2.2 5.1 5.3 7.7 13.9 4 17.5-2.9 1.6-2.9 2.8-5.8 4.7-8.6 2.2-3.2 5.1-5.9 7.7-8.9 6.5-7.3 6.1-16.5 7.3-25.7.8-5.7-3.1-10.6-9.2-9.2-2.5.6 2.7 1.7.2-.2-1.4-1.1-2.8-2.2-4.4-3.1-2.9-1.7-6.8-1.8-9.5.2-3.3 2.4-4.1 5.7-5.3 9.4-.5 1.5-1.3 2.8-2.2 4.2-.7 1.1-2.9 1.7-1.4 1.5 1.9.3 3.9.5 5.8.8.8.7 1.5 1.5 2.3 2.2.3 1.3.7 2.5 1 3.8.1 1.9 0 .3.2-.5.3-.8.4-.9.9-2 1.2-2.6 2.7-5.4 2.7-8.3-.1-7.6-6.7-12-13.7-13-8.7-1.2-13.7 4.2-14 12.6-.1 3 .5 5.9.3 8.9-.3 4.5-1.3 8.8-3 13l13.7-1.8c-1.5-2.4.4-6.8.5-9.6.2-3.5-1.1-7.1-3-10-3-4.4-10-13.4-16.3-8.7-5.2 3.9-4.9 10-4.8 15.9 0 1.7.3 4.2.1 5.6-.2 1.6-.7 3.3-1.7 4.5-.8 1-3.7 2.7-1.4 2.1 1.9.3 3.9.5 5.8.8l-.6-.3c1.1 1.5 2.3 3 3.4 4.5.3.7-.6 2.6-.1.4.3-1.1.6-2.2.9-3.2.8-2.5 1.5-4.9 2-7.5 1.2-6.6-.2-13.5-7.3-15.7-9.6-2.9-14.3 7-12.4 14.7.2.5.3 1.1.5 1.6.4 1.8.6 1.9.5.4-1.4 1-3.3 2.3-4.8 3.3-3.4 2.4-7.1 1.5-10.8 1-8.1-1-9.2 10.2-3.8 14 5.3 3.7 12.5 4.8 18.6 6.8 7.5 2.4 15.6 1.3 22.9-1.3 6.4-2.3 12.2-7 17.9-10.6C82.5 59.7 89 55.1 95.9 51c9.4-5.7 29-12.7 21-26.9-3.1-5.4-9.7-7.4-15.1-4.3s-5.3 10.1-4.1 15.4c1.1 4.6 3.8 9.5 7.7 12.3 5.2 3.8 13.1.8 18.5-1.4 12.2-5.1 5.4-17.3 0-24.9-5.3-7.4-9.6-20.3-21.3-13.8-5.5 3.1-9.1 9.1-7.9 15.4.7 3.7 7.2-3.1 3.4-4.3-1-.3-2-.9-3-1.4-3.3-1.6-6.8-2.8-10.4-3.6-8.4-1.9-15.9 2.2-24 3.3-3.7.5-6.2 2.4-9.2 4.5-3.2 2.2-7.7 1.8-11.3 1.8v15c1.1 0 2.6-.5 3.7-.2-1.5-3.7-3-7.3-4.5-11-1.3 2.8.4-.8 2.4-.5-1.1-.2-2.2-.6-3.2-1-2.2-.9-4.3-2.1-6.7-2.6-5.8-1.1-12.6 5.1-8.5 11 1 1.4 2.5 2.7 3.1 4.2.4 1 .8 2 1.1 3 .7 2.1-.1 2.7 1.1 1 1.5-1.1 3-2.3 4.5-3.4-.2.1-.5.1-.7.2h4c-2.6-.6-5-3.4-7-5.1-2.4 4.2-4.9 8.4-7.3 12.5.4.1.2 0-.5-.4-.3-1.3-.7-2.5-1-3.8v.4c1.8-2.4 3.7-4.8 5.5-7.2-.7.3-3.1 1.1-2.4 1.2-1.4-.3-2.3-1.7-2.9-2.7-1.2-1.9-3.4-6.8-3.3-8-.3 1.3-.7 2.5-1 3.8.1-.2.2-.3.3-.5-1.5 1.1-3 2.3-4.5 3.4-2.6 1.1.8 1 2 1.3 2.1.5 3.7 1.5 5.6 2.5 1.8 1 3.6 1.8 5.5 2.5 2.4.9 2.4 1.6.9-.5 5.1 7.9 18.1.4 12.7-7.7" fill="#fff"/><path d="M102 54c3.4 1.3 6.2 3.8 10.1 3.8 2.2 0 4.4-.3 6.5-.8.8-.2 1.7-.4 2.5-.4-2.1-1.1-2.5-1-1.2.1 1.8 1.8 2.7 5.2 3.7 7.5.4 1 .9 1.9 1.3 2.8-1.6-4.2 5.2-5.8.3-4.1-3.3 1.1-6.5 1.8-9.7 3.2-3.8 1.6-7.4 3.8-11 5.9-3.5 2-7 4.1-10.7 5.5-1.9.8-4 1.2-6 1.7.8-.1.6-.1-.5 0-2.1-.2-1.5.4 1.7 1.6.3 1.9.5 3.9.8 5.8.6-2.6 4.5-6.2 6.5-8.5 3.5-4 5.3-8.4 7.6-13.2 1.9-3.9 4-1 7.6.3 1.4.5 2.9 1 4.3 1.5.4.2.9.3 1.3.5 1.9.8 1.8 1.9.3-.6-.3-1.3-.7-2.5-1-3.8.2-1.5.8-2.7 1.8-3.5-.8.5-.7.4-1.6.7-1.9.7-3.8 1.1-5.7 1.5-5.3 1.2-10.1 3.2-15 5.4 3 3.9 6.1 7.9 9.1 11.8 1-1.1 2-2.3 3-3.5.7-.8 1.4-1.5 2.1-2.3 1.3-1 1.6-1.3.8-.9-1.9-.3-3.9-.5-5.8-.8-2.5-1.2-2.3-2.5-.6.1.8 1.3 1.8 2.3 2.9 3.3 2.3 2.1 5 3.2 7.8 4.4 4.6 1.9 9.9 1.3 12.8 5.9 1.4 2.3 2.5 4.8 3.8 7.2.7 1.2 1.4 2.4 1.9 3.7.1.5.3 1 .4 1.5 0 2.2 1.1 1.7 3.4-1.3-1.6.1-3.4-.6-5-.8-4.1-.6-8.2-.3-12.2-.8 1.8 4.3 3.5 8.5 5.3 12.8 1.3-1.2 3.2-1.9 4.6-3 2.6-2 4.7-4.6 5.8-7.7 2-5.5-.4-10.4-3.9-14.6-6-7.2-22.1-11.3-24.8 1.4-1.9 8.8 4.1 15 8.4 21.9 2.2 3.6 2.7 8.3 4.1 12.3 1.9 5 4.9 9.1 9.5 11.9 2.1 1.3 5.5 1.5 7.6 0 5.9-4.4 8.3-10.4 8.9-17.6.7-8.6-8.4-13.3-15.3-9.1-4.6 2.8-5.2 10.4 0 13 1.4.7 2.6 1.3 4.1 1.5 1.1.2 2.2.3 3.2.3-2.6-2.3-3.3-2.6-2.1-.8 1.4 2.6 1.4 7.4 1.7 10.3.2 1.9.4 3.8.6 5.6.2.8.3 1.7.3 2.5 3.6-2.3 4.1-3.3 1.6-3-4 0-7.7 0-11.7.6-5.6.9-14 2.5-15.7 8.8-2.5 8.9 6.4 11.4 12.6 13.9l-3.3-12.5c-2.4 2.4-4.4 5.1-6.4 7.8-.8 1.2-1.8 2.3-2.8 3.3l1.5-.3c-.7-.3-1.5-.6-2.3-.8-9.3-3-12.9 11.1-4 14.5 4.1 1.5 10.4 4.2 14.7-.6 4.8-5.3.6-11.6-.7-17.3-2.1-8.9 13.6-11.6 19-13.5 6.4-2.2 7.1-9.9 1.8-13.7-3.4-2.4-8-2.2-12-2.1-1.8 0-11-.6-11.5-1.7-2.5-6-2.3-13-2.9-19.3-.5-5.5-.9-13.2-4.1-17.9-3.9-5.9-14.3-4.1-14 3.8.2 6.4 4 12.9 6.8 18.6 1.5 3 3.5 5.7 5.6 8.4 1 1.3 4.6 4.7 4.5 6.1.3-1.3.7-2.5 1-3.8 1-.7.9-.7-.4.1l-2.1 1.2c-2.1 1.2-4.1 2.9-6 4.5-4.4 3.7-6.2 8.4-6.9 13.9-.6 5-.6 10.6.4 15.5.6 2.8-.8 6.5-3 8.8-6.7 7 3.9 17.6 10.6 10.6 4.8-5 8.8-13.4 7.5-20.4-.8-4.3-.8-8.4-.7-12.8.1-4 3.4-5.9 6.6-7.8 3.3-1.9 6.5-3.9 7.6-7.8 1.2-4.4-1.1-8.6-3.5-12.1-2.5-3.6-5.4-6.6-7.6-10.4-1.9-3.2-5.5-8.7-5.6-12.5-4.7 1.3-9.3 2.5-14 3.8 1.3 2 1.1 5 1.5 7.3.6 3.3.8 6.6 1 10 .5 6.6 1.2 14.5 4.8 20.3 3.2 5.2 9.5 6.8 15.1 7.7 2.9.5 6 .9 9 .9 1.2 0 4.4 0 4.4.1.6-4.6 1.2-9.1 1.8-13.7-9.4 3.2-20.2 5.7-26.2 14.3-3.2 4.6-4.4 10.4-3.5 16 .4 2.7 1.2 5.1 2.2 7.6 1.8 4.2 10.3-3.6 6-5-1.2-.4-2.3-1-3.5-1.4-1.3 4.8-2.7 9.6-4 14.5 5.3 1.7 9.7 2 14.2-1.8 4.1-3.5 6.4-8.4 10.3-12.1 4.5-4.3 1.7-10.5-3.3-12.5-.6-.3-1.2-.5-1.9-.7l-1.2-.3c-1.7-.6-1.6-.5.2.5.3 1.3.7 2.5 1 3.8v-.7c-.3 1.3-.7 2.5-1 3.8-.9 1.4-3 2-.9 1.6.8-.2 1.5-.3 2.3-.5 3.4-.9 6.3-1.6 9.9-1.4 7.5.3 14.6-1.9 15.7-10.5.4-3.1-.4-6.3-.7-9.5-.4-4.1-1.1-8.1-1.8-12.1-.5-2.9-1.9-7.3-4.4-9.2-1.3-1.1-2.4-2.1-4.1-2.6-.9-.3-4.5-.5-4.1-.4v13c.4-.2.8-.5 1.2-.7-1.3.3-2.5.7-3.8 1 .3 0 .7-.1 1-.1-1.3-.3-2.5-.7-3.8-1-2.9-1.4-1.4-4.8-2.2-1.3-.2.7-.8 2.6-1.2 2.9h7.6c-3.6-2.2-4.1-7.7-5.2-11.5-1.4-4.8-3.8-8.5-6.6-12.5-1.1-1.5-2.3-3.1-3-4.8-.6-1.4-.1-.9-.8.7-1.4 3.3-5.4.1-2.1 2.1.9.5 1.6 1.4 2.3 2.2.9.9-.4.3.2-.7-1 1.7-5.2 3.3-6.7 4.7-5.2 5-.8 12.1 5.3 12.8 4.4.5 8.7.4 13.1 1.1 4.7.8 9.1.4 12.6-3.1 8.3-8.2-.7-22.3-5.1-30.1-2.3-4-5.7-7.4-9.9-9.2-4.4-1.9-9.4-2.1-13.6-4.5-1.3-.7-1.9-2.9-2.9-3.9-2-2-5.1-2.9-7.8-2.2-5.4 1.5-8.9 6.5-12.5 10.5-5.9 6.7 1.4 15.2 9.1 11.8 4.1-1.8 8-3.2 12.3-4.1 3.7-.8 7.5-1.9 10.7-4 4.1-2.7 6.7-8.2 3.9-12.8-2.4-4.1-7.4-5.7-11.7-7.2-4-1.4-8.1-4.2-12.4-4.2-6.7 0-12.2 3.9-15.5 9.6-1.2 2.2-2 4.6-3.1 6.9-1.3 2.6-3.4 4.6-5.3 6.8-3.3 3.7-8.8 10.1-7.3 15.5 3.5 12.7 20.8 6.4 28.6 2.8 5.2-2.4 10-5.6 15-8.3 4.8-2.6 10-3.3 14.9-5.6 10.9-5.1 3.9-17.5-.3-25.1-2.5-4.5-6.3-8.1-11.6-8.7-2.9-.4-5.6.7-8.4 1-2.2.3-5.6-2.4-7.7-3.2-3.8-1.5-8.2 1.6-9.2 5.2-.2 4.2 2.4 7.7 6.2 9.2" fill="#fff"/><path d="M75.7 81.3c-5.5.9-10.7 6.5-15.1 9.7-5.8 4.2-10.5 9.3-14.5 15.2-4 5.7-6.7 12.1-9.3 18.6-2.9 7.1-5.6 14.1-6.5 21.7-.4 3.2.1 6.6-.8 9.6-.8 2.8-1.1 5.9.4 8.5 4.5 7.7 12.2 3.2 18.7 2.8 14.7-.8 29.5 3.9 44.1 1.4 15.9-2.8 15.5-21.3 17.5-33.6 2.2-13.6 7.3-30.1.8-43.3-7.9-16.1-25.8-2.9-35.8 3.2-11.8 7.3-22.4 18.2-28.2 30.9-3.9 8.5-10.7 19.8-3.1 28.1 5.5 6 14.3 7.2 21.9 8.2 9.6 1.2 22.8 3 31.2-2.7 8.9-6.1 13.7-18.6 15.2-28.8 1.4-9.9 1.4-21.6-2-31.1-1.9-5.3-5.3-8.9-10.5-11-5.7-2.3-12 2.3-16.4 5.5-9.7 6.8-14 19-21.7 27.7-4.3 4.8-9 9.3-13.6 13.8-3.9 3.8-7 8.4-10.3 12.2-5 5.9-.2 13.9 7.3 12.5 7.3-1.3 13.6-5 20.5-7.6 7.4-2.8 14.1-1.1 21.6-.1 14.9 2 17.5-14.9 18.5-25.8.7-7.2 1.7-16.1-.7-23-2.5-7.5-10.8-8.1-16.3-3.4-4.4 3.8-7.5 9.2-10.5 14.1-2.1 3.4-4.2 6.8-6.8 9.8-2.1 2.5-6.2 4-8.8 6.1-3.9 3.1-2.3 9.5 1.5 11.8 3.6 2.2 8 1.8 12.1 2 5.3.3 10.3-.5 14.8-3.3 7.4-4.5 6.9-16.7 3.3-23.6-4.4-8.6-17.4-1-13 7.6-.6-1.2 0 1.8 0 2 0 .8.1 1.6.2 2.4 0 1.8.2 1.6.6-.6-1.7 1-4.3.6-6.1.5-.7 0-5.3-.5-4.5 0 .5 3.9 1 7.9 1.5 11.8 2.8-2.3 6.1-3.5 8.8-6 2.9-2.8 5.1-6.6 7.3-9.9 2.2-3.4 4.3-6.9 6.6-10.2.6-.9 3.1-3.1 2.3-2.9h-4c-1.1-1-2.2-2.1-3.3-3.1.1 1 .2 2 .2 3.1.1 1.9.1 3.7.1 5.6 0 4.3-.4 8.7-.9 13-.2 1.9-.7 4.1-1.3 6.2-.3 1-.5 1.2-1.1 2.1.4-.6 1-.9 1.7-.8-1-.2-2-.5-2.9-.7-7.7-1.9-15.7-1.4-23.4.5s-14.2 6.6-22.2 8.1l7.3 12.5c1.8-2.1 3.8-3.6 5.2-6.2 1.5-2.8 4-5 6.2-7.2 5.5-5.5 11.1-10.9 16.1-16.9 4.3-5.1 7.5-11.1 11.3-16.6 1.7-2.5 3.8-4.6 6.3-6.3 1.1-.8 2.3-1.7 3.6-2.1-2.1.8-1.7-1-.7 1.7 1.8 5 1.8 10.7 1.8 15.9 0 6.7-1 13.4-4.3 19.3-1.2 2.1-2.4 4.3-4 6.1-1.7 2-3.7 1.9-6.1 2-5.6.3-13.4-.2-17.6-.8-3.5-.5-7.4-1.1-10.4-2.8-1.3-.7-.3-.4-.4.6.6-3.4 2.9-6.8 4.2-10 5.1-13.2 15.6-22.6 27.4-29.6 3.1-1.8 6.3-3.7 9.5-5.4.5-.3 1.1-.6 1.6-.8 1.6-.4 1.5-.8-.4-1 .6.8.7 2.2.9 3.1 1.7 7.3-.2 14.9-1.4 22.1-1.3 7.6-2.5 15.3-3.7 22.9-.3 1.8-.2 4.9-1.5 6.3-2.1 2.3-6.1 1.7-8.8 1.6-7.8-.4-15.5-1.1-23.3-1.7-3.7-.3-7.5-.3-11.2-.2-1.8 0-3.5.3-5.2.6-1 .3-1.9.5-2.9.9-3.2.5-2.2 1.8 2.9 4.1v4c.5-2.9 1.3-5.6 1.5-8.6.2-3.5.3-6.6 1.1-10 1.7-7.2 4.9-14.3 8-21 2.7-5.7 6.2-10.9 10.6-15.4 2.4-2.5 5.3-4.4 8.1-6.3 1.9-1.3 4.7-4.6 6.9-4.9 9.8-1.8 5.7-16.3-3.7-14.7" fill="#fff"/><path d="M30.5 176.5v-7.9H123v7.9" fill="#fff"/><path d="M30.5 176.5v-7.9H123v7.9" fill="none" stroke="#000" stroke-miterlimit="10" stroke-width="6"/><path d="M44.2 182.5c-.1-.3-.1-.6-.2-.9-.6 2.4-1.3 4.9-1.9 7.3l.6-.6H32c4.5 5 10.8 4.5 16.9 3.7 7.4-1 15.3-1.1 22.7-.4 7.9.7 15.6-.3 23.4-.1 4.1.1 8 .5 12.1.3 2.9-.1 6.2-1.5 8.9-.5 9.1 3.3 13-11.2 4-14.5-5.7-2-12.2.1-18.1.1-3.5 0-7-.4-10.5-.4-4.2 0-8.4.6-12.6.6-7.5.1-14.6-1.2-22.1-.6-3.2.2-6.4.2-9.6.7-.9.1-1.9.3-2.8.4-.8.1-1.6.1-2.4.1-.4-.2-.3-.1.5.1-2.7-3-7.9-2.9-10.6 0-2.5 2.6-3.2 5.2-2.3 8.8 2.5 9.3 17 5.3 14.7-4.1" fill="#fff"/><path d="M76.7 176.5H30.5v15.7H123v-15.7zm5-92.2c-53.7 8.5-51.3 84.3-51.3 84.3" fill="none" stroke="#000" stroke-miterlimit="10" stroke-width="6"/><path d="M113.4 48.7c13.5-2.6 17.1-12.2 17.1-12.2-7.8-21.4-23.1-32.6-23.1-32.6S96.5 14.2 96.3 19c0 0-14.3-9.4-32.6-1.4 0 0-20 10.4-36.9 4.3 0 0-21.2-8.5-22.6-2.7 0 0-3.3 10.5 2.5 20.5 0 0 5.8 9.3 8.4 9.3 0 0 21.6 2.5 18.5 3.5 0 0-1.4 4.6-16.2 3.8 0 0-5.3-.1-4.3 5 1 5.3 4.8 10.5 15.1 12.5 0 0 9.7 2.9 26 .5s13 14.4 13 14.4" fill="none" stroke="#000" stroke-miterlimit="10" stroke-width="6"/><path d="M120.5 74.3c13.5.7 19.9-6.3 19.9-6.3s-3.4-14.2-14-25.7" fill="none" stroke="#000" stroke-miterlimit="10" stroke-width="6"/><path d="M80.1 34.8c0 2-1.6 3.6-3.5 3.6s-3.5-1.6-3.5-3.6 1.6-3.6 3.5-3.6 3.5 1.6 3.5 3.6"/><ellipse cx="76.6" cy="34.8" fill="none" rx="3.5" ry="3.6" stroke="#000" stroke-miterlimit="10" stroke-width="4"/><path d="M76.2 31.2s-3.8-.1-7.6 3.7"/><path d="M76.2 31.2s-3.8-.1-7.6 3.7" fill="none" stroke="#000" stroke-miterlimit="10" stroke-width="4"/><path d="M136.8 71.2c11.6 15.7 13.2 32.9 13.2 32.9s-9.7 6.7-27 2.9" fill="none" stroke="#000" stroke-miterlimit="10" stroke-width="6"/><path d="M122.7 143.1c17.1 7.3 28.7 1.7 28.7 1.7s2.4-19.4-5.7-38.8M123 168.6s2.2-19.6 22-22.1" fill="none" stroke="#000" stroke-miterlimit="10" stroke-width="6"/><path d="M103.8 115.1c-1.1.8-.8.7.7-.4 1.3-.9 2.8-1.6 4.2-2.3 3-1.5 6.2-2.5 9.3-3.8 5.3-2.3 11-5.9 16.8-6 7.4-.1 10.4-10.2 3.8-14-6.1-3.5-12.8-4.8-19.4-6.9-7.5-2.3-13.8-6.2-20.6-10-8.4-4.8-16 8.1-7.6 13 6.8 3.9 13.4 7.9 20.8 10.5 6.3 2.2 13.3 3.1 19.1 6.5 1.3-4.7 2.5-9.3 3.8-14-8.5.2-15.1 4.1-22.8 7.3-6.6 2.8-17.8 5.4-21.2 12.5-4 8.8 8.9 16.4 13.1 7.6" fill="#fff"/></g></switch></svg>