<svg xmlns="http://www.w3.org/2000/svg" width="1" height="1" viewBox="-14.10 -10 220 220"><switch><g><path fill="#FFF" d="M142.1 167.3s.6-7.3-3.6-8.2c-23.8-4.6 36.9-96.4 36.9-96.4s-55.2 62.1-51.8-45.5l-.8-.5c-27.8 98.1-53.7 0-53.7 0l-1 .6c3.4 107.6-51.8 45.5-51.8 45.5s60.7 91.8 36.9 96.4c-4.2.8-3.6 8.2-3.6 8.2"/><path fill="none" stroke="#000" stroke-width="6" stroke-miterlimit="10" d="M142.1 167.3s.6-7.3-3.6-8.2c-23.8-4.6 36.9-96.4 36.9-96.4s-55.2 62.1-51.8-45.5l-.8-.5c-27.8 98.1-53.7 0-53.7 0l-1 .6c3.4 107.6-51.8 45.5-51.8 45.5s60.7 91.8 36.9 96.4c-4.2.8-3.6 8.2-3.6 8.2"/><path fill="#FFF" d="M49.5 176.3v-7.9h92.6v7.9"/><path fill="none" stroke="#000" stroke-width="6" stroke-miterlimit="10" d="M49.5 176.3v-7.9h92.6v7.9"/><path fill="#FFF" d="M74.3 9.8c.9 5.4-3.7 10-9 9.1-3.2-.5-5.8-3.2-6.3-6.5-.9-5.4 3.7-10 9-9.1 3.1.6 5.7 3.2 6.3 6.5"/><path fill="none" stroke="#000" stroke-width="6" stroke-miterlimit="10" d="M74.3 9.8c.9 5.4-3.7 10-9 9.1-3.2-.5-5.8-3.2-6.3-6.5-.9-5.4 3.7-10 9-9.1 3.1.6 5.7 3.2 6.3 6.5z"/><path fill="#FFF" d="M18.6 56.3c.9 5.4-3.7 10-9 9.1-3.2-.5-5.8-3.2-6.3-6.5-.9-5.4 3.6-10 9-9.1 3.2.6 5.8 3.2 6.3 6.5"/><path fill="none" stroke="#000" stroke-width="6" stroke-miterlimit="10" d="M18.6 56.3c.9 5.4-3.7 10-9 9.1-3.2-.5-5.8-3.2-6.3-6.5-.9-5.4 3.6-10 9-9.1 3.2.6 5.8 3.2 6.3 6.5z"/><path fill="none" stroke="#000" stroke-width="5" stroke-miterlimit="10" d="M58 156.9h75.6"/><path fill="#FFF" d="M117.4 9.7c-.9 5.4 3.7 10 9 9.1 3.2-.5 5.8-3.2 6.3-6.5.9-5.4-3.6-10-9-9.1-3.2.6-5.8 3.2-6.3 6.5"/><path fill="none" stroke="#000" stroke-width="6" stroke-miterlimit="10" d="M117.4 9.7c-.9 5.4 3.7 10 9 9.1 3.2-.5 5.8-3.2 6.3-6.5.9-5.4-3.6-10-9-9.1-3.2.6-5.8 3.2-6.3 6.5z"/><path fill="#FFF" d="M173 56.2c-.9 5.4 3.7 10 9 9.1 3.2-.5 5.8-3.2 6.3-6.5.9-5.4-3.7-10-9-9.1-3.2.6-5.8 3.2-6.3 6.5"/><path fill="none" stroke="#000" stroke-width="6" stroke-miterlimit="10" d="M173 56.2c-.9 5.4 3.7 10 9 9.1 3.2-.5 5.8-3.2 6.3-6.5.9-5.4-3.7-10-9-9.1-3.2.6-5.8 3.2-6.3 6.5z"/><path fill="#FFF" d="M95.8 176H49.5v15.7h92.6V176H95.8"/><path fill="none" stroke="#000" stroke-width="6" stroke-miterlimit="10" d="M95.8 176H49.5v15.7h92.6V176H95.8"/><path fill="none" stroke="#000" stroke-width="4" stroke-miterlimit="10" d="M164.6 76.4l-67.5 78.9c-.4.5-1.3.2-1.3-.5l-25.2-124"/><path fill="none" stroke="#000" stroke-width="4" stroke-miterlimit="10" d="M120.7 30.8L96.6 153.3c-.3 1.4-2.1 1.9-3 .8L26.9 76.5"/></g></switch></svg>