<?xml version="1.0" encoding="UTF-8"?>
<svg width="50mm" height="50mm" clip-rule="evenodd" fill-rule="evenodd" image-rendering="optimizeQuality" shape-rendering="geometricPrecision" text-rendering="geometricPrecision" version="1.1" viewBox="0 0 50 50" xmlns="http://www.w3.org/2000/svg" xmlns:cc="http://creativecommons.org/ns#" xmlns:dc="http://purl.org/dc/elements/1.1/" xmlns:rdf="http://www.w3.org/1999/02/22-rdf-syntax-ns#" xmlns:xlink="http://www.w3.org/1999/xlink">
 <metadata>
  <rdf:RDF>
   <cc:Work rdf:about="">
    <dc:format>image/svg+xml</dc:format>
    <dc:type rdf:resource="http://purl.org/dc/dcmitype/StillImage"/>
    <dc:title/>
   </cc:Work>
  </rdf:RDF>
 </metadata>
 <defs>
  <linearGradient id="linearGradient1861" x1="1603.1" x2="1608.3" y1="-390.27" y2="-390.27" gradientUnits="userSpaceOnUse" xlink:href="#linearGradient1859"/>
  <linearGradient id="linearGradient1859">
   <stop stop-color="#fff" offset="0"/>
   <stop stop-color="#fff" stop-opacity="0" offset="1"/>
  </linearGradient>
  <linearGradient id="linearGradient1869" x1="1632.5" x2="1637.6" y1="-392.63" y2="-392.63" gradientUnits="userSpaceOnUse" xlink:href="#linearGradient1859"/>
  <linearGradient id="linearGradient1877" x1="1656.6" x2="1665.2" y1="-391.34" y2="-391.75" gradientUnits="userSpaceOnUse" xlink:href="#linearGradient1859"/>
  <linearGradient id="linearGradient1885" x1="1679.6" x2="1691.8" y1="-382.86" y2="-382.86" gradientUnits="userSpaceOnUse" xlink:href="#linearGradient1859"/>
  <linearGradient id="linearGradient1853" x1="391.15" x2="395.21" y1="-332.31" y2="-332.31" gradientUnits="userSpaceOnUse" xlink:href="#linearGradient1859"/>
  <linearGradient id="linearGradient1837" x1="490.24" x2="511.24" y1="-382.24" y2="-382.24" gradientUnits="userSpaceOnUse" xlink:href="#linearGradient1859"/>
  <linearGradient id="linearGradient1845" x1="491.59" x2="499.17" y1="-377.43" y2="-377.43" gradientUnits="userSpaceOnUse" xlink:href="#linearGradient1859"/>
  <linearGradient id="linearGradient2539-0" x1="1609.3" x2="1624.2" y1="-310.48" y2="-279.45" gradientTransform="matrix(.21285 0 0 .21284 114.26 -321.28)" gradientUnits="userSpaceOnUse" xlink:href="#linearGradient1859"/>
 </defs>
 <g transform="translate(-438.1 412.49)">
  <g transform="translate(54.63 -55.752)" clip-rule="evenodd" fill-rule="evenodd" shape-rendering="geometricPrecision">
   <g transform="translate(383.47 -355.76)" image-rendering="optimizeQuality">
    <g transform="matrix(.90137 0 0 .90085 -256.82 215.52)" clip-rule="evenodd" fill-rule="evenodd" image-rendering="optimizeQuality" shape-rendering="geometricPrecision" stroke-width="1.0535">
     <g transform="matrix(.29333 0 0 .29333 -1755 303.26)">
      <g transform="translate(5468.9,-1133.1)" stroke-width="1.1097">
       <g transform="translate(-57.803,-246.18)">
        <path d="m1637.8-451.4c-3.4671 0.0258-6.265 2.8329-6.2651 6.2864-1e-4 3.2312 2.4596 5.936 5.6876 6.2554l-7.1061 67.183c-2.9583 0.14105-5.8768 0.36443-8.7282 0.66468l-20.683-63.315c2.7176-0.76546 4.5946-3.2351 4.5947-6.0481-2e-4 -3.4718-2.8261-6.2865-6.3117-6.2864-3.4856-1e-5 -6.3114 2.8147-6.3116 6.2864 2e-4 3.4717 2.826 6.2864 6.3116 6.2864 0.2966 2.9e-4 0.5939-0.0208 0.8876-0.062l3.3099 66.417c-1.7749 0.48306-3.4593 1.0046-5.0423 1.558l-31.281-56.639c2.2872-1.0055 3.7633-3.2614 3.7633-5.7516-2e-4 -3.4717-2.8261-6.2864-6.3116-6.2864-3.4856-6e-5 -6.3115 2.8147-6.3117 6.2864-3e-4 3.4721 2.8258 6.2865 6.3117 6.2864 0.4819-2.1e-4 0.9627-0.0557 1.432-0.16472l17.009 73.509c2.9373 10.101 10.962 19.111 24.553 22.752h60.985c13.591-3.6418 21.616-12.651 24.553-22.752l17.009-73.509c0.4693 0.10908 0.9502 0.16451 1.4321 0.16472 3.4858 6e-5 6.3119-2.8144 6.3116-6.2864-2e-4 -3.4718-2.8261-6.2865-6.3116-6.2864-3.4856-1e-5 -6.3115 2.8147-6.3117 6.2864 0 2.4902 1.4761 4.7461 3.7633 5.7516l-31.281 56.639c-1.583-0.55342-3.2674-1.075-5.0424-1.558l3.31-66.417c0.2937 0.0412 0.5909 0.0623 0.8875 0.062 3.4855 1e-5 6.3114-2.8147 6.3116-6.2864-2e-4 -3.4718-2.8261-6.2864-6.3116-6.2864-3.4856-6e-5 -6.3114 2.8146-6.3116 6.2864 1e-4 2.813 1.877 5.2826 4.5946 6.0481l-20.683 63.315c-2.8514-0.30025-5.7699-0.52363-8.7281-0.66468l-7.1062-67.183c3.2281-0.31946 5.6858-3.0242 5.6857-6.2554-1e-4 -3.4535-2.7961-6.2606-6.2632-6.2864z" fill="#514b46" stroke="#000" stroke-linecap="round" stroke-linejoin="round" stroke-width="4.5395" style="paint-order:markers fill stroke"/>
        <g stroke-width="1.1097">
         <path d="m1605.7-367.96 2.6094 0.13121-5.1977-48.888z" fill="url(#linearGradient1861)" opacity=".5"/>
         <path d="m1632.5-371.73 5.0811-47.365-2.5108 48.918z" fill="url(#linearGradient1869)" opacity=".5"/>
         <path d="m1656.6-370.29 15.57-47.552c-5.98 19.434-8.4098 29.224-13.462 49.002z" fill="url(#linearGradient1877)" opacity=".5"/>
         <path d="m1679.6-365.3 23.017-40.51-21.476 41.904z" fill="url(#linearGradient1885)" opacity=".5"/>
        </g>
        <g fill="#fefefe" stroke-width="1.1097">
         <ellipse cx="1562.1" cy="-429.79" rx="2.0241" ry="1.9244" opacity=".5" style="paint-order:markers fill stroke"/>
         <ellipse cx="1596.5" cy="-441.61" rx="1.945" ry="1.8653" opacity=".5" style="paint-order:markers fill stroke"/>
         <ellipse cx="1636.2" cy="-447.06" rx="1.8852" ry="2.0247" opacity=".5" style="paint-order:markers fill stroke"/>
         <ellipse cx="1674.8" cy="-442.51" rx="1.4909" ry="1.5657" opacity=".5" style="paint-order:markers fill stroke"/>
        </g>
        <ellipse cx="1709.9" cy="-430.59" rx="1.4643" ry="1.5096" fill="#fff" opacity=".5" stroke-width="1.169" style="paint-order:markers fill stroke"/>
       </g>
      </g>
      <g stroke-width="1.2315">
       <path d="m7122.4-1814.1c9.4448 8.768-8.9481 8.4012-2.5483 12.038-15.954 38.4-7.6786 101.82-86.184 96.632l45.738 1e-4c13.592-3.6418 21.616-12.651 24.553-22.753l17.009-73.511c0.4693 0.109 0.9502 0.1645 1.4321 0.1647 3.4858 1e-4 6.3119-2.8124 6.3116-6.2845-2e-4 -3.4718-2.8261-6.2865-6.3116-6.2864z" opacity=".2" style="paint-order:markers fill stroke"/>
       <path d="m7083.6-1747-8.1006-0.1924 10.118-38.727z" opacity=".2"/>
       <path d="m7056.6-1751.4-6.3137 2.1569 1.9263-42.104z" opacity=".2"/>
       <path d="m7032.5-1750.3-5.2407 0.8862-10.068-46.71z" opacity=".2"/>
       <path d="m7009.3-1745.4-3.7124 2.5507-19.828-44.182z" opacity=".2"/>
      </g>
     </g>
     <g stroke-width="1.2315">
      <path d="m324.06-232.26s2.9856 1.3935 0.0762 3.2637c0.033-9e-3 1.0616-1.9781-0.0762-3.2637z" opacity=".2"/>
      <path d="m312.7-233.42s2.9856 1.3935 0.0762 3.2637c0.033-9e-3 1.0616-1.9781-0.0762-3.2637z" opacity=".2"/>
      <path d="m301.22-232.28s2.9856 1.3935 0.0762 3.2637c0.033-9e-3 1.0616-1.9781-0.0762-3.2637z" opacity=".2"/>
      <path d="m291.26-228.61s2.9856 1.3935 0.0762 3.2637c0.033-9e-3 1.0616-1.9781-0.0762-3.2637z" opacity=".2"/>
     </g>
    </g>
   </g>
   <path d="m394.01-327.17 1.1946 0.0193-4.0545-11.365z" fill="url(#linearGradient1853)" image-rendering="optimizeQuality" opacity=".5"/>
  </g>
  <g transform="translate(-37.193 9.6685)">
   <path d="m490.96-383.12-1.2692 0.78752v3.1293l1.2692 0.78795h19.564l1.2692-0.78795v-3.1293l-1.2692-0.78752h-9.782z" fill="#514b46" stroke="#000" stroke-linejoin="round" stroke-width="1.1999"/>
   <path d="m511.24-381.97-20.994 9e-3 0.88442-0.54198 19.247-0.015z" fill="url(#linearGradient1837)" opacity=".5"/>
   <path d="m511.24-381.97-8e-3 2.4035-0.86604 0.52378-8.4393-0.0102s2.9487-0.62841 1.9391-2.8938c-1e-3 -4e-3 5.2771-0.0199 7.3742-0.0233z" opacity=".2"/>
   <path d="m490.96-378.42v1.9595h19.564v-1.9595z" clip-rule="evenodd" fill="#514b46" fill-rule="evenodd" image-rendering="optimizeQuality" shape-rendering="geometricPrecision" stroke="#000" stroke-linecap="round" stroke-linejoin="round" stroke-width="1.2" style="paint-order:normal"/>
   <rect x="491.59" y="-377.79" width="7.5756" height=".70898" ry="0" clip-rule="evenodd" fill="url(#linearGradient1845)" fill-rule="evenodd" image-rendering="optimizeQuality" opacity=".5" shape-rendering="geometricPrecision" stroke-width=".7" style="paint-order:markers fill stroke"/>
  </g>
  <path d="m461.41-384.6c-5.05 0.0153-8.3189 1.4342-8.3189 1.4342-1.6888 0.59415-3.045 1.2327-3.2015 2.2891-0.14706 0.99237 0.69019 1.932 1.1231 2.4989 1.2914 1.6907 2.3368 2.4091 3.3207 2.8359 1.4388 0.45895 0.98243-1.009 0.52133-1.8741-2.5892-4.4687 6.8298-6.0898 10.958-5.871 3.2092 0.25115 6.4331 0.76681 8.8611 1.3985-1.8137-1.1672-7.0634-2.2686-12.268-2.6761-0.32658-0.0256-0.65941-0.0368-0.99603-0.0358z" clip-rule="evenodd" fill="url(#linearGradient2539-0)" fill-rule="evenodd" image-rendering="optimizeQuality" opacity=".5" shape-rendering="geometricPrecision" stroke-width=".90087"/>
 </g>
</svg>
