<?xml version="1.0" encoding="UTF-8"?>
<svg width="50mm" height="50mm" clip-rule="evenodd" fill-rule="evenodd" image-rendering="optimizeQuality" shape-rendering="geometricPrecision" text-rendering="geometricPrecision" version="1.1" viewBox="0 0 50 50" xmlns="http://www.w3.org/2000/svg" xmlns:cc="http://creativecommons.org/ns#" xmlns:dc="http://purl.org/dc/elements/1.1/" xmlns:rdf="http://www.w3.org/1999/02/22-rdf-syntax-ns#" xmlns:xlink="http://www.w3.org/1999/xlink">
 <metadata>
  <rdf:RDF>
   <cc:Work rdf:about="">
    <dc:format>image/svg+xml</dc:format>
    <dc:type rdf:resource="http://purl.org/dc/dcmitype/StillImage"/>
    <dc:title/>
   </cc:Work>
  </rdf:RDF>
 </metadata>
 <defs>
  <linearGradient id="linearGradient3163" x1="284.57" x2="288.14" y1="-399.25" y2="-399.25" gradientTransform="matrix(1.013 0 0 1.0128 -6.496 54.052)" gradientUnits="userSpaceOnUse" xlink:href="#linearGradient2089"/>
  <linearGradient id="linearGradient2089">
   <stop stop-color="#fff" offset="0"/>
   <stop stop-color="#fff" stop-opacity="0" offset="1"/>
  </linearGradient>
  <linearGradient id="linearGradient3165" x1="293.02" x2="296.47" y1="-400.76" y2="-400.76" gradientTransform="matrix(1.013 0 0 1.0128 -6.496 54.052)" gradientUnits="userSpaceOnUse" xlink:href="#linearGradient2089"/>
  <linearGradient id="linearGradient3167" x1="301.35" x2="304.9" y1="-400.73" y2="-400.73" gradientTransform="matrix(1.013 0 0 1.0128 -6.496 54.052)" gradientUnits="userSpaceOnUse" xlink:href="#linearGradient2089"/>
  <linearGradient id="linearGradient3169" x1="285.93" x2="292.3" y1="-383.26" y2="-383.26" gradientTransform="matrix(1.013 0 0 1.0128 -5.9734 54.052)" gradientUnits="userSpaceOnUse" xlink:href="#linearGradient2089"/>
  <linearGradient id="linearGradient3171" x1="490.24" x2="511.24" y1="-382.24" y2="-382.24" gradientUnits="userSpaceOnUse" xlink:href="#linearGradient2089"/>
  <linearGradient id="linearGradient3173" x1="491.59" x2="499.17" y1="-377.43" y2="-377.43" gradientUnits="userSpaceOnUse" xlink:href="#linearGradient2089"/>
 </defs>
 <g transform="translate(-267.09 363.29)">
  <g clip-rule="evenodd" fill-rule="evenodd" shape-rendering="geometricPrecision" stroke="#1a1a1a" stroke-width="1.2">
   <path d="m281.17-354.06v7.5865l4.1028 3.1051-2.7915 19.108h19.218l-2.7915-19.108 4.1028-3.1051v-7.5865h-4.8492v3.3306h-3.7017v-3.3306h-4.7382v3.3306h-3.7017v-3.3306z" fill="#e7cd97" image-rendering="optimizeQuality" stroke-linejoin="round" stroke-width="1.1999"/>
   <path d="m285.27-343.37h13.635" fill="#514b46" fill-opacity=".90196" image-rendering="optimizeQuality"/>
   <path d="m303.01-346.48h-21.841" fill="#514b46" fill-opacity=".90196" image-rendering="optimizeQuality"/>
  </g>
  <path d="m281.79-347.11v-6.3606h3.6122v0.48409h-3.0232v4.7756z" fill="url(#linearGradient3163)"/>
  <path d="m290.34-350.16v-3.3102h3.4944v0.52335h-2.9578v2.2766z" fill="url(#linearGradient3165)"/>
  <path d="m298.79-350.13v-3.3102h3.5991v0.43178h-3.1672v2.2766z" fill="url(#linearGradient3167)"/>
  <path d="m286.34-342.22-2.6511 17.305h6.428s1.1125-16.545-3.7769-17.305z" fill="url(#linearGradient3169)"/>
  <path d="m301-324.91-2.6233-18.36h-11.718s12.241 0.52268 14.342 18.36z" fill-opacity=".90196" opacity=".15"/>
  <g transform="translate(-208.66 58.859)">
   <path d="m490.96-383.12-1.2692 0.78752v3.1293l1.2692 0.78795h19.564l1.2692-0.78795v-3.1293l-1.2692-0.78752h-9.782z" fill="#e7cd97" stroke="#1a1a1a" stroke-linejoin="round" stroke-width="1.1999"/>
   <path d="m511.24-381.97-20.994 9e-3 0.88442-0.54198 19.247-0.015z" fill="url(#linearGradient3171)"/>
   <path d="m511.24-381.97-8e-3 2.4035-0.86604 0.52378-8.4393-0.0102s2.9487-0.62841 1.9391-2.8938c-1e-3 -4e-3 5.2771-0.0199 7.3742-0.0233z" opacity=".15"/>
   <path d="m490.96-378.42v1.9595h19.564v-1.9595z" clip-rule="evenodd" fill="#e7cd97" fill-rule="evenodd" image-rendering="optimizeQuality" shape-rendering="geometricPrecision" stroke="#1a1a1a" stroke-linecap="round" stroke-linejoin="round" stroke-width="1.1999" style="paint-order:normal"/>
   <rect x="491.59" y="-377.79" width="7.5756" height=".70898" ry="0" clip-rule="evenodd" fill="url(#linearGradient3173)" fill-rule="evenodd" image-rendering="optimizeQuality" shape-rendering="geometricPrecision" stroke-width=".7" style="paint-order:markers fill stroke"/>
  </g>
 </g>
</svg>
