<?xml version="1.0" encoding="UTF-8" standalone="no"?>
<!-- Created with Inkscape (http://www.inkscape.org/) -->

<svg
   xmlns:dc="http://purl.org/dc/elements/1.1/"
   xmlns:cc="http://creativecommons.org/ns#"
   xmlns:rdf="http://www.w3.org/1999/02/22-rdf-syntax-ns#"
   xmlns:svg="http://www.w3.org/2000/svg"
   xmlns="http://www.w3.org/2000/svg"
   xmlns:sodipodi="http://sodipodi.sourceforge.net/DTD/sodipodi-0.dtd"
   xmlns:inkscape="http://www.inkscape.org/namespaces/inkscape"
   width="136"
   height="136"
   viewBox="0 0 35.983333 35.983334"
   version="1.1"
   id="svg8"
   inkscape:version="0.92.4 5da689c313, 2019-01-14"
   sodipodi:docname="WhitePawn.svg">
  <defs
     id="defs2" />
  <sodipodi:namedview
     id="base"
     pagecolor="#ffffff"
     bordercolor="#666666"
     borderopacity="1.0"
     inkscape:pageopacity="0.0"
     inkscape:pageshadow="2"
     inkscape:zoom="1.4"
     inkscape:cx="32.349541"
     inkscape:cy="74.489744"
     inkscape:document-units="mm"
     inkscape:current-layer="layer1"
     showgrid="false"
     units="px"
     inkscape:window-width="1362"
     inkscape:window-height="720"
     inkscape:window-x="0"
     inkscape:window-y="46"
     inkscape:window-maximized="0"
     inkscape:lockguides="true"
     inkscape:snap-object-midpoints="true"
     showguides="false"
     inkscape:snap-global="false" />
  <metadata
     id="metadata5">
    <rdf:RDF>
      <cc:Work
         rdf:about="">
        <dc:format>image/svg+xml</dc:format>
        <dc:type
           rdf:resource="http://purl.org/dc/dcmitype/StillImage" />
        <dc:title></dc:title>
      </cc:Work>
    </rdf:RDF>
  </metadata>
  <g
     inkscape:label="Layer 1"
     inkscape:groupmode="layer"
     id="layer1"
     transform="translate(0,-261.01665)">
    <g
       id="g4784"
       transform="translate(2.0566666e-7,3.2376534e-6)">
      <polygon
         transform="matrix(-0.94419614,0,0,-0.94419614,31.068783,293.65137)"
         style="fill:#e8bc5d;fill-opacity:1;stroke:#000000;stroke-width:0.5291667;stroke-miterlimit:4;stroke-dasharray:none"
         points="13.85,31 3.844982,27.358471 0,0 27.7,0 23.855018,27.358471 "
         id="shogi_trapezoid" />
      <g
         style="fill:#000000;stroke:#000000;stroke-width:1.42378044"
         transform="matrix(0.14921378,0,0,0.14921378,36.55426,271.53441)"
         id="g4333">
        <path
           inkscape:connector-curvature="0"
           id="path4335"
           d="m -149.19715,117.28875 c 17.13431,-10.24989 31.58155,-24.433692 37.76891,-37.080201 4.97258,-10.163581 6.09747,-11.234835 9.74659,-9.281882 6.76273,3.619302 6.588947,7.189872 -0.77072,15.835382 -12.60031,14.801771 -21.60415,22.211411 -34.48302,28.377501 -18.17185,8.70025 -25.30204,9.95001 -12.26176,2.1492 z m -9.95281,-31.322046 c 0,-4.072382 2.40951,-8.217632 7.68611,-13.222961 l 7.6861,-7.290965 -1.2553,8.237156 c -1.16497,7.644399 -8.34182,18.208766 -12.37003,18.208766 -0.96078,0 -1.74688,-2.669399 -1.74688,-5.931996 z m 29.61943,-1.472862 -4.96893,-5.289185 h 4.60014 c 4.25353,0 4.60014,-1.04118 4.60014,-13.818279 0,-9.601184 -0.86561,-14.150443 -2.83635,-14.906688 -1.56,-0.598626 -11.46112,0.654014 -22.0025,2.783644 -13.06877,2.64023 -20.57973,3.241291 -23.60957,1.889342 -6.55338,-2.924202 -5.40473,-5.564195 2.43251,-5.590736 3.78177,-0.01291 10.3215,-0.593174 14.53273,-1.289706 l 7.65679,-1.266424 -1.89928,-8.453058 c -1.0446,-4.649182 -3.32453,-11.209211 -5.06652,-14.577844 -3.43404,-6.640692 -1.98847,-7.474425 6.36239,-3.669518 4.0694,1.854141 5.39581,4.05558 5.41762,8.991614 0.0591,13.370408 1.86541,16.056874 10.79624,16.056874 h 8.21594 V 30.439097 c 0,-9.231201 -1.23004,-17.293404 -3.22784,-21.156737 -2.99816,-5.7977861 -2.95638,-6.241957 0.58708,-6.241957 2.09821,0 6.03254,1.5532714 8.74294,3.4517141 4.20648,2.946331 4.73639,4.6500469 3.61926,11.6362049 -1.16665,7.295856 -0.83151,8.184492 3.08669,8.184492 2.41749,0 6.35738,-1.05 8.75531,-2.333336 3.19622,-1.710565 5.773117,-1.689423 9.654845,0.07921 7.167403,3.265686 5.034715,4.670965 -9.450875,6.227409 -11.5727,1.243458 -12.28533,1.652701 -12.94528,7.434078 l -0.69841,6.118179 21.954164,-1.470618 c 19.770527,-1.324346 22.306022,-1.081811 25.491797,2.438429 3.426249,3.785962 2.697905,3.881091 -23.13116,3.021201 -22.251881,-0.740797 -26.369241,-0.405949 -24.860081,2.021763 1.84095,2.961452 1.51846,29.492145 -0.44041,36.231467 -1.50477,5.177075 -5.54479,4.613235 -11.36938,-1.586754 z m 33.239937,-15.74666 -8.909687,-8.341798 7.993752,1.785501 c 9.705059,2.167745 14.220821,5.637187 14.220821,10.925805 0,5.983136 -3.461742,4.846251 -13.304886,-4.369508 z"
           style="fill:#000000;fill-opacity:1;stroke:#000000;stroke-width:1.42378044" />
      </g>
    </g>
  </g>
</svg>
