<svg xmlns="http://www.w3.org/2000/svg" width="136" height="136" viewBox="0 0 35.983 35.983"><g stroke="#000"><path fill="#e8bc5d" stroke-width=".49948180000000003" d="M27.438 6.803l3.63 25.832H4.916l3.63-25.832 9.447-3.438z"/><g style="line-height:125%;-inkscape-font-specification:IPAMincho"><path style="-inkscape-font-specification:UnGungseo" d="M18.374 12.101c-.105.21-.397.57-.877 1.08-1.124 1.273-2.518 2.57-4.182 3.889-1.664 1.319-2.99 1.978-3.98 1.978-.194 0-.292-.037-.292-.112 0-.105.285-.36.855-.764.584-.42.929-.66 1.034-.72.914-.644 2.046-1.761 3.395-3.35 1.229-1.439 1.978-2.526 2.248-3.26 0-.015.045-.173.135-.472.09-.315.18-.562.27-.742.09-.195.187-.293.292-.293.255 0 .667.218 1.237.652.584.42.877.75.877.99a.408.408 0 01-.135.292.51.51 0 01-.27.157c1.2 1.634 2.916 2.984 5.749 4.648l1.619.944c.015.015.15.09.404.225.27.12.48.24.63.36.165.12.247.24.247.36 0 .18-.202.284-.607.314-.404.03-.667.03-.787 0a6.64 6.64 0 01-1.506-.157 3.8 3.8 0 01-1.237-.607c-.374-.3-.674-.555-.9-.765-.209-.225-.225-.285-.644-.78a24.045 24.045 0 00-.922-1.08l-1.596-1.73c-.57-.615-.922-.967-1.057-1.057zm-1.012 8.836c0-1.634-.135-2.54-.405-2.72-.15.015-.397.067-.742.157-.33.075-.584.112-.764.112-.225 0-.502-.082-.832-.247-.33-.18-.495-.367-.495-.562 0-.165.278-.247.832-.247.165 0 .413.015.742.045.345.015.607.022.787.022.63 0 1.597-.187 2.9-.562.03 0 .143-.037.338-.112.21-.075.375-.113.495-.113.24 0 .562.09.966.27.405.18.607.375.607.585 0 .24-.42.374-1.259.404-.84.03-1.281.023-1.326-.022-.18 0-.435.015-.765.045.24.36.405.674.495.944.09.27.127.547.112.832v1.034l1.282-.18c.105-.015.36-.067.764-.157.405-.105.727-.158.967-.158.27 0 .622.098 1.057.293.435.195.652.404.652.63 0 .224-.15.337-.45.337-.24 0-.6-.015-1.079-.045-.48-.03-.84-.045-1.08-.045-.794 0-1.498.03-2.113.09-.015.39-.045 2.173-.09 5.35a43.99 43.99 0 002.384-.112c.09-.015.3-.052.63-.112a6.03 6.03 0 01.741-.068c.375 0 .87.098 1.484.293.63.195.944.442.944.742 0 .24-.24.36-.719.36a4.6 4.6 0 01-.764-.09 6.77 6.77 0 00-.608-.068c-1.558-.12-2.758-.18-3.597-.18-1.574 0-3.223.165-4.946.495-1.02.195-1.597.292-1.732.292-.314 0-.704-.075-1.169-.225-.464-.15-.697-.345-.697-.584 0-.09.075-.158.225-.203.165-.045.337-.075.517-.09h.945c1.708-.12 2.99-.217 3.844-.292l1.012-.09c0-.375-.015-.952-.045-1.731a99.74 99.74 0 00-.045-1.776c0-.405.008-.99.023-1.754l-1.642.247c-.135.015-.434.075-.9.18-.449.105-.801.158-1.056.158s-.607-.098-1.057-.293c-.45-.195-.674-.39-.674-.584 0-.15.15-.225.45-.225.105 0 .27.015.494.045.225.015.397.022.517.022 1.32 0 2.601-.112 3.845-.337zm2.338 4.654c.075-.135.308-.405.697-.81.39-.404.66-.756.81-1.056 0-.015.045-.127.135-.337.09-.21.172-.375.247-.495.09-.135.172-.202.247-.202.21 0 .51.187.9.562.39.36.577.637.562.832v.045c-.015.075-.068.142-.158.202-.075.06-.202.12-.382.18a2.928 2.928 0 01-.27.067 8.905 8.905 0 00-.809.36c-.39.195-.757.36-1.102.495-.33.12-.584.18-.764.18h-.045a.172.172 0 00-.068-.023zm-7.104-2.226h.067c.645 0 1.327.188 2.046.562.735.36 1.102.825 1.102 1.394v.248c0 .42-.143.63-.427.63-.24 0-.772-.428-1.597-1.282-.824-.87-1.221-1.387-1.191-1.552z" font-family="UnGungseo" aria-label="金" font-weight="400" font-size="26.458" letter-spacing="0" word-spacing="0" stroke-width=".33736266"/></g></g></svg>