<svg xmlns="http://www.w3.org/2000/svg" viewBox="0 0 35.983 35.983"><path fill="#e8bc5d" stroke="#000" stroke-width=".499" d="m17.992 3.365 9.446 3.438 3.63 25.832H4.916l3.63-25.832z"/><path d="M14.334 28.9c-.17-.317-.565-1.559-.876-2.759-.312-1.2-.72-2.552-.907-3.005-.187-.454-.255-.91-.151-1.014.104-.104.734-.035 1.4.152 1.239.35 2.21.384 3.454.125.593-.124.664-.223.45-.623-.14-.262-.256-1.366-.256-2.452v-1.976l-2.031 1.941c-1.514 1.446-2.592 2.212-4.228 3.004-2.575 1.246-3.392 1.132-1.395-.194 1.735-1.153 5.286-4.789 6.078-6.224l.606-1.096-.734.16c-1.929.42-3.82.465-4.301.101-.825-.623-.258-.898 2.218-1.075 3.707-.263 3.787-.291 3.787-1.31 0-.48-.252-1.391-.561-2.027-.31-.636-.49-1.228-.403-1.315.24-.24 1.53.106 2.428.652.79.48.799.509.656 2.087-.13 1.426-.099 1.582.286 1.434.237-.09 1.323-.24 2.413-.33 1.735-.143 2.06-.101 2.6.338 1.034.84.497 1.071-2.414 1.035-1.476-.018-2.761.045-2.856.14-.63.63 3.341 4.177 6.91 6.173 2.19 1.224 2.255 1.707.23 1.707-1.965 0-3.276-.83-5.43-3.434-.894-1.08-1.65-1.934-1.68-1.896-.03.038-.127 1.137-.215 2.442l-.162 2.374h.685c.377 0 1.06-.135 1.518-.301.753-.272.92-.235 1.733.385 1.166.889 1.358 1.525.73 2.419-.807 1.15-1.587 3.116-1.304 3.29.14.087.218.346.173.576-.07.365-.482.41-3.157.35-2.384-.052-3.244.022-3.813.328-.967.52-1.114.502-1.481-.182zm6.093-1.345c.292-.089 1.128-3.03 1.128-3.969 0-.449-.157-.521-1.091-.505-1.693.03-5.457.6-5.424.82.017.11.17 1.067.342 2.13l.311 1.93 2.225-.16c1.224-.088 2.353-.199 2.51-.246z" fill="#fd0301"/></svg>