<svg xmlns="http://www.w3.org/2000/svg" viewBox="0 0 35.983 35.983"><g stroke="#000"><path fill="#e8bc5d" stroke-width=".499" d="m31.069 3.349-3.63 25.831-9.447 3.439-9.447-3.439-3.63-25.83z"/><g stroke-width=".212"><path d="M18.383 14.545c0 .415-.045.585-.099.378a1.772 1.772 0 0 1 0-.756c.054-.208.099-.038.099.378z"/><path d="M19.243 8.771c.451.564.555 1.44.513 4.345l-.042 2.997.6-.121c1.37-.275 1.701-.522 1.988-1.48.154-.516.522-1.416.818-2 .596-1.177 2.55-3.363 3.007-3.363.414 0 .381.09-.461 1.263-.658.916-1.837 3.563-1.837 4.124 0 .109.33.144.732.079.872-.142 2.29.278 2.29.679 0 .32-.43.45-2.213.663l-1.24.148v.742c0 .407.144 1.02.32 1.363.314.605.339.613.972.297 1.361-.68 1.342-.195-.036.894-.762.603-1.54 1.437-1.76 1.889-.442.904-.67.974-1.445.444-1.19-.814-1.134-1.214.264-1.923l1.123-.568-.58-.304c-.639-.335-.922-1.082-.69-1.817.144-.45.107-.467-.68-.32-.457.086-.918.21-1.025.276-.245.152-.018 4.082.281 4.868.135.355.385.585.636.585.44 0 1.506.752 1.324.934-.06.06-.836.21-1.727.334-.89.125-2.201.431-2.913.682-2.151.756-2.228.758-2.934.081-.532-.51-.618-.726-.502-1.268.077-.36.201-.752.277-.87.13-.206.146-.743.065-2.127-.043-.736-1.3-2.083-1.943-2.083-.256 0-.498.189-.583.455-.114.36.075.656.903 1.416l1.047.961-.971-.132c-.534-.072-1.19-.275-1.457-.45-.484-.316-.68-1.17-.27-1.17.416 0 .21-.64-.448-1.39-.366-.416-.603-.856-.527-.978.075-.123.65-.223 1.278-.223 2.625 0 4.17 1.757 4.391 4.998.103 1.502.18 1.754.572 1.903.95.144 1.816-.51 2.66-.47.128.077-.093-.178-.412-.56-.492-.586-.567-.848-.493-1.716.11-1.288.104-2.93-.01-3.043-.047-.048-.489.075-.981.272-1.07.427-1.513.32-2.243-.548-.847-1.03.386-2.727-.39-2.778-.124 0-.595.4-1.046.889l-.821.89-.687-.688c-.754-.754-.669-1.036.352-1.167a6.109 6.109 0 0 0 1.247-.327c.335-.135.74-.245.902-.245 1.051-1.52-1.873-4.697-3.046-3.864-.252.21-.316.532-.24 1.212.132 1.166-.124 1.198-.465.058-.143-.476-.547-1.193-.898-1.593-.35-.4-.637-.827-.637-.95 0-.6 2.33-.54 3.885.1 1.761.724 3.02 2.845 3.024 5.1.001.618.064 1.5.14 1.958.137.828.143.833.987.72.467-.063.89-.155.94-.205.12-.12.189-2.409.141-4.694-.053-2.606-.053-2.618.182-3.057.249-.464.492-.503.792-.127zm-5.723 3.615 1.537 1.195-1.265-.217c-1.115-.176-1.942-.779-1.942-1.415 0-.849.49-.72 1.67.437zm.428 9.584c-.43.475-1.343 1.574-1.343 1.756 0 .567-.639.615-1.198.09-.87-.818-.693-1.19.808-1.697 1.903-.643 2.633-1.146 1.733-.15z"/></g></g></svg>