<svg xmlns="http://www.w3.org/2000/svg" viewBox="0 0 35.983 35.983"><g stroke="#000"><path fill="#e8bc5d" stroke-width=".499" d="m31.069 3.349-3.63 25.831-9.447 3.439-9.447-3.439-3.63-25.83z"/><path d="M23.285 7.802c.192.504.228 1.775.113 4.05l-.168 3.317 1.25-1.761c.686-.97 1.376-1.84 1.533-1.937.335-.207.325-.184-.7 1.785-.892 1.71-2.13 5.206-1.918 5.418.076.075.497.031.935-.1.876-.259 1.657-.18 1.657.168 0 .123-.303.292-.675.376-2.342.53-2.14.348-2.221 2.02-.067 1.387.093 2.395.564 3.545.262.641-.682.559-1.482-.13-.634-.545-.643-.595-.382-2.009.147-.797.268-1.759.268-2.136 0-.643-.039-.669-.614-.407-.465.212-.772.208-1.265-.017-.826-.376-.51-.707.774-.809l.982-.078.073-1.259c.07-1.2.04-1.268-.613-1.43-.86-.214-1.792-1.064-1.792-1.635 0-.763.391-.712 1.237.16 1.398 1.443 1.464 1.308 1.464-3.032 0-2.973.081-3.992.35-4.358.336-.458.36-.448.63.259zM19.47 8.4c.22.357-.084.437-2.384.623l-2.148.175v3.341l.892-.2c.559-.127 1.132-.1 1.534.07.598.252.536.288-.892.507-1.702.26-1.777.388-1.278 2.183.321 1.156.506 1.26 1.642.922.707-.21 1.1-.204 1.662.03.716.297.689.311-.982.511-.945.114-1.857.257-2.026.32-.199.073-.307.632-.307 1.59v1.475l1.073-.147c.658-.09 1.136-.044 1.236.118.105.17-.282.324-1.072.43l-1.237.163v1.577c0 .932.153 1.872.375 2.3.373.723.372.725-.341.725-.394 0-.95-.194-1.235-.43-.484-.4-.502-.534-.262-1.995.14-.86.196-1.625.123-1.698-.073-.073-.52-.015-.992.13-.867.266-1.841.169-1.841-.183 0-.27.658-.49 1.473-.49 1.32 0 1.473-.18 1.473-1.746v-1.448l-1.657.146c-1.294.114-1.766.063-2.149-.236-.457-.356-.36-.383 1.381-.39 1.03-.004 2.23-.08 2.665-.167l.794-.158-.794-.334c-.783-.33-.792-.35-.63-1.573l.165-1.24-.868.163c-1.01.19-2.186-.043-1.972-.389.081-.131.749-.238 1.483-.238h1.336V9.394l-1.043.177c-1.832.31-3.081.228-3.543-.233-.409-.41-.313-.43 2.017-.438 1.346-.004 3.33-.169 4.41-.364 2.276-.41 3.718-.461 3.919-.136z" stroke-width=".425"/></g></svg>