<svg xmlns="http://www.w3.org/2000/svg" xmlns:xlink="http://www.w3.org/1999/xlink" width="498.898" height="544.252" viewBox="0 0 1320 1440"><style>.B{color-interpolation-filters:sRGB}</style><defs><filter id="C" width="1.02" height="1.021" x="-.01" y="-.011" class="B"><feGaussianBlur stdDeviation="2.441"/></filter><filter id="E" width="1.06" height="1.068" x="-.03" y="-.034" class="B"><feGaussianBlur stdDeviation="6.825"/></filter><filter id="F" width="1.025" height="1.023" x="-.013" y="-.011" class="B"><feGaussianBlur stdDeviation="2.152"/></filter><filter id="H" width="1.096" height="1.096" x="-.048" y="-.048" class="B"><feGaussianBlur stdDeviation="5.529"/></filter><linearGradient id="A" x1="236.943" x2="278.677" y1="670.458" y2="670.458" gradientUnits="userSpaceOnUse" spreadMethod="reflect"><stop offset="0" stop-color="#ffead5"/><stop offset=".232" stop-color="#fff0d8"/><stop offset=".616" stop-color="#ffeed2"/><stop offset=".808" stop-color="#ffebd7"/><stop offset="1" stop-color="#ffefdd"/></linearGradient><linearGradient id="B" x1="660" x2="670.254" y1="115.844" y2="1157.469" gradientUnits="userSpaceOnUse"><stop offset=".604" stop-color="#fff"/><stop offset="1"/></linearGradient><clipPath id="D"><path stroke-width="5.943" d="M-259.905 606.27c-34.215-15.43-56.354-45.62-98.62-41.595 16.772 26.835 49.645 87.215 92.582 107.342 19.456-16.101 16.101-40.253 6.038-65.747m127.468 137.531c-23.481-39.582-77.152-48.975-118.076-59.709-20.127 15.43-42.266 19.456-67.089 19.456s-49.646-2.684-77.823-3.354c2.013-40.924 4.025-111.367 4.025-157.658 48.975-7.38 111.367-6.709 163.696-5.367 16.101 0 15.43-10.063 9.392-18.785-19.456-20.127-49.645-28.177-81.177-34.886-14.759 12.076-64.405 12.076-91.24 12.076 2.684-38.24 3.354-94.595 4.696-144.24 39.582-2.684 78.494-6.709 110.025-7.38 32.202-.671 61.051-2.013 90.569-8.051-8.721-38.24-44.949-47.633-85.202-51.658-3.354-.671-6.038 8.051-12.747 8.721-64.405 8.722-225.417 22.81-281.101 15.43-26.165-3.354-50.987-12.076-83.19-20.127-9.392-2.013-9.392 8.722-6.709 20.797 16.772 20.797 34.886 46.962 56.354 58.367 14.089 7.38 30.19-5.367 44.278-7.38 37.57-6.038 67.759-.671 98.62-5.367 6.038 24.823 8.722 46.962 10.063 69.772s1.342 45.62 1.342 76.481c-73.797 10.063-140.215-.671-193.215 6.709 10.063 12.747 39.582 47.633 69.772 58.367 11.405 4.025 20.127-6.709 30.861-9.392 29.519-7.38 61.721-7.38 91.911-10.734l1.342 158.329c-69.101 3.354-142.228 16.101-190.531 17.443-21.468.671-40.253-14.089-62.392-5.367 16.772 32.202 47.633 48.304 75.81 67.089 24.823 9.392 30.19-6.038 48.975-14.089 29.519-12.747 88.557-17.443 121.43-19.456 101.974-6.038 200.595-6.038 259.632 8.722 14.759 4.025 43.607 1.342 57.696-14.759z" opacity=".593"/></clipPath><clipPath id="G"><path stroke-width="1.534" d="M1799.132 1043.252a7.223 7.223 0 0 0-7.237 7.24v107.141l-75.759-75.762a7.22 7.22 0 0 0-10.237 0l-3.45 3.45a7.22 7.22 0 0 0 0 10.237l75.756 75.759h-107.138a7.223 7.223 0 0 0-7.237 7.24v4.88a7.22 7.22 0 0 0 7.237 7.237h107.141l-75.759 75.759a7.226 7.226 0 0 0 0 10.24l3.45 3.45a7.22 7.22 0 0 0 10.237 0l75.759-75.762v107.141c0 4.01 3.227 7.24 7.237 7.24h4.88c4.01 0 7.24-3.23 7.24-7.24V1204.36l75.759 75.762a7.22 7.22 0 0 0 10.237 0l3.45-3.45a7.226 7.226 0 0 0 0-10.24l-75.759-75.759h107.138c4.01 0 7.24-3.227 7.24-7.237v-4.88c0-4.01-3.23-7.24-7.24-7.24h-107.135l75.756-75.759a7.22 7.22 0 0 0 0-10.237l-3.45-3.45a7.22 7.22 0 0 0-10.237 0l-75.759 75.762v-107.141c0-4.01-3.23-7.24-7.24-7.24zm2.438 137.74h-.01z"/></clipPath><path id="I" d="M654.456 1200.517c2.346 2.346 6.396 2.1 3.974 4.522s-6.287 2.483-8.633.137-2.285-6.211.137-8.633 2.176 1.628 4.522 3.974"/></defs><path d="m-2765.718 268.206 28.198 35.189h538.751l10.087-9.413-86.673-527.828-31.462-17.601z" filter="url(#C)" opacity=".5" transform="matrix(-2.0051 0 0 2.0051 -4355.682 800.271)"/><path fill="url(#A)" d="M660 115.844 254.043 268.378l-139.111 999.236 13.312 73.804 20.099 16.718H1169.89l20.099-16.718 13.312-73.804-137.282-999.246z"/><path fill="url(#B)" d="M660 115.844 253.994 268.369l-137.243 999.246 11.442 73.812 20.099 16.719h1021.563l20.134-16.728 15.13-73.802-139.1-999.248z" opacity=".25" style="mix-blend-mode:overlay"/><path fill="#fff" d="m1182.559 1262.571-.043 21.064 20.75-16.013z" opacity=".8"/><path d="m1203.266 1267.622-20.75 16.013-12.661 74.512 20.099-16.719z" opacity=".6"/><g fill="#fff"><path d="m254.044 268.378 17.664 13.248 388.293-149.381v-16.402z" opacity=".3"/><path d="m1066.019 268.368-17.664 13.248L660 132.246v-16.402z" opacity=".3"/><path d="m1064.146 251.267-17.664 13.248 138.452 996.966 20.707 5.052z" opacity=".3"/></g><path d="m253.994 268.369 17.664 13.248-136.07 980.953-20.707 5.052z" opacity=".4"/><path d="m114.881 1267.622 20.75 16.013 12.661 74.512-20.099-16.719z" opacity=".9"/><path d="m135.588 1262.571.043 21.064-20.75-16.013z" opacity=".6"/><path d="M135.588 1262.571h1046.971l-.043 21.064H135.631z" opacity=".2"/><path d="m1182.516 1283.635-12.661 74.512H148.292l-12.661-74.512z" opacity=".7"/><path d="M798.855 624.353c-30.786-13.884-50.708-41.049-88.739-37.427 15.092 24.147 44.672 78.476 83.306 96.586 17.507-14.488 14.488-36.22 5.433-59.159m114.697 123.751c-21.128-35.616-69.421-44.067-106.245-53.726-18.11 13.884-38.03 17.507-60.367 17.507s-44.671-2.415-70.025-3.018c1.812-36.824 3.622-100.208 3.622-141.862 44.068-6.64 100.208-6.037 147.295-4.83 14.487 0 13.884-9.054 8.45-16.902-17.506-18.11-44.671-25.353-73.043-31.39-13.28 10.866-57.951 10.866-82.098 10.866 2.415-34.41 3.018-85.117 4.225-129.788 35.616-2.415 70.63-6.037 99.002-6.64 28.976-.605 54.933-1.812 81.495-7.245-7.849-34.41-40.446-42.86-76.666-46.482-3.018-.604-5.433 7.244-11.47 7.848-57.951 7.848-202.831 20.525-252.935 13.884-23.544-3.018-45.88-10.866-74.855-18.11-8.45-1.812-8.45 7.848-6.037 18.714 15.092 18.714 31.39 42.256 50.709 52.518 12.677 6.64 27.165-4.829 39.842-6.64 33.805-5.433 60.97-.604 88.74-4.83 5.432 22.336 7.847 42.257 9.054 62.781s1.207 41.05 1.207 68.818c-66.403 9.055-126.166-.604-173.855 6.037 9.054 11.47 35.615 42.86 62.78 52.518 10.263 3.622 18.11-6.036 27.77-8.45 26.56-6.641 55.537-6.641 82.702-9.659l1.207 142.465c-62.177 3.018-127.977 14.488-171.44 15.696-19.318.603-36.22-12.678-56.142-4.83 15.092 28.977 42.86 43.464 68.214 60.367 22.336 8.451 27.165-5.433 44.068-12.677 26.56-11.47 79.683-15.695 109.263-17.507 91.757-5.433 180.497-5.433 233.619 7.848 13.281 3.622 39.238 1.208 51.915-13.28z"/><g clip-path="url(#D)" filter="url(#E)" transform="matrix(.9 0 0 .9 1032.719 78.829)"><path fill="#282f3e" d="M-274.39 612.481c-34.214-15.428-33.518-38.13-75.784-34.106 16.77 26.838 41.28 73.525 84.21 93.654 19.458-16.1 1.635-34.053-8.432-59.548zm135.646 137.026c-18.155-22.702-78.095-37.102-119.018-47.835-20.129 15.428-42.266 19.457-67.09 19.457s-61.194-2.924-89.375-3.595c1.005-20.462 4.654-153.577 4.654-153.577l18.161-21.412c48.975-7.38 111.37-6.71 163.697-5.366 16.1 0 8.195-5.931 2.157-14.65-19.457-20.128-48.94-21.412-80.472-28.121-14.762 12.076-81.359 21.638-108.19 21.638 1.342-19.119 5.276-128.848 5.276-128.848l22.904-35.854s78.494-6.71 110.027-7.38c32.205-.672 61.052-2.015 90.57-8.053-15.255-10.086-20.509-11.464-35.55-17.49-15.404-6.17-33.91-14.62-54.033-16.629-3.352-.671-6.038 8.053-12.748 8.725-64.403 8.724-224.32 16.598-280.005 9.217-26.167-3.352-31.254-5.866-63.459-13.912-9.39-2.015-25.833-8.82-23.153 3.256 16.77 20.8 34.885 46.961 56.356 58.366 14.09 7.38 30.19-5.367 44.28-7.382 37.572-6.038 67.762-.671 98.623-5.366 6.038 24.824 8.724 46.96 10.062 69.77s1.343 45.617 1.343 76.479l-16.712 18.976s-133.263 3.399-159.763 7.09c10.062 12.747 22.839 28.276 53.029 39.009 11.404 4.023 20.128-6.71 30.861-9.39 29.519-7.381 61.723-7.381 91.913-10.733l1.343 158.33-8.427 15.78-176.26 14.452c-21.466.672-37.429-13.098-59.566-4.38 16.77 32.205 38.962 34.529 67.137 53.314 24.823 9.39 30.19-6.038 48.975-14.09 29.519-12.748 88.556-17.443 121.432-19.458 101.974-6.038 200.596-6.038 259.633 8.725 14.762 4.023 31.117 6.78 51.406-9.063z"/></g><g fill="#fff" filter="url(#F)" transform="translate(1032.733 78.823)scale(.8998)"><path d="M-577.902 352.788c-9.392-9.727-42.936-26.723-50.316-25.492s11.405 20.686 28.177 29.182 31.531 6.036 22.139-3.69m22.469 200.466c-8.838-6.501-36.801-16.373-41.945-14.807s12.533 14.569 26.514 19.504 24.268 1.804 15.43-4.697zm-41.457 212.342c-13.006-9.374-51.71-22.448-67.582-24.679s-8.909 6.381 4.099 15.755 32.06 19.513 47.93 21.743 28.56-3.445 15.553-12.819m324.032-103.931c-9.701-3.543-26.32-17.439-38.675-30.297s-20.445-24.679-10.741-21.136 37.198 22.45 49.551 35.308 9.566 19.668-.135 16.125"/></g><path d="M656.649 812.865a10.406 10.406 0 0 0-10.426 10.431v154.359L537.077 868.504a10.406 10.406 0 0 0-14.748 0l-4.971 4.971a10.406 10.406 0 0 0 0 14.748l109.141 109.146H472.146a10.405 10.405 0 0 0-10.426 10.431v7.03a10.4 10.4 0 0 0 10.426 10.426h154.359l-109.146 109.146a10.41 10.41 0 0 0 0 14.753l4.971 4.971a10.406 10.406 0 0 0 14.748 0l109.146-109.151v154.359a10.406 10.406 0 0 0 10.426 10.431h7.03a10.41 10.41 0 0 0 10.431-10.431v-154.359l109.146 109.151a10.406 10.406 0 0 0 14.748 0l4.971-4.971a10.41 10.41 0 0 0 0-14.753L693.83 1025.256h154.354a10.406 10.406 0 0 0 10.431-10.426v-7.03a10.41 10.41 0 0 0-10.431-10.431h-154.35l109.141-109.146a10.406 10.406 0 0 0 0-14.748l-4.971-4.971a10.406 10.406 0 0 0-14.748 0L674.11 977.654V823.296a10.41 10.41 0 0 0-10.431-10.431zm3.512 198.442h-.014z"/><path fill="#29303d" fill-opacity=".99" d="M1789.457 1052.923a7.223 7.223 0 0 0-7.237 7.24v107.141l-75.759-75.762a7.22 7.22 0 0 0-10.237 0l-3.45 3.45a7.22 7.22 0 0 0 0 10.237l85.431 66.088-9.675 9.671h-107.138a7.223 7.223 0 0 0-7.237 7.24v4.88a7.22 7.22 0 0 0 7.237 7.237h107.141l-75.759 75.759a7.226 7.226 0 0 0 0 10.24l3.45 3.45a7.22 7.22 0 0 0 10.237 0l75.759-75.762v107.141c0 4.01 3.227 7.24 7.237 7.24h4.88c4.01 0 7.24-3.23 7.24-7.24v-107.141l9.675-9.671 66.084 85.434a7.22 7.22 0 0 0 10.237 0l3.45-3.45a7.226 7.226 0 0 0 0-10.24l-75.759-75.759 9.675-9.671 97.463 9.671c3.991.396 7.24-3.227 7.24-7.237v-4.88c0-4.01-3.23-7.24-7.24-7.24h-107.135l75.756-75.759a7.22 7.22 0 0 0 0-10.237l-3.45-3.45a7.22 7.22 0 0 0-10.237 0l-75.759 75.762v-107.141c0-4.01-3.23-7.24-7.24-7.24zm2.438 137.74h-.01z" clip-path="url(#G)" filter="url(#H)" transform="translate(-1935.36 -690.148)scale(1.4407)"/><g fill="#fff" style="fill-opacity:.98"><path d="M516.823 1140.931c3.607 3.607 8.68 4.384 6.258 6.806s-7.31 1.46-10.917-2.147-4.569-8.495-2.147-10.917 3.198 2.65 6.806 6.258"/><use xlink:href="#I"/><use xlink:href="#I" x="-196.651" y="-197.774"/></g></svg>