<svg xmlns="http://www.w3.org/2000/svg" width="498.898" height="544.252" viewBox="0 0 1320 1440"><style>.B{color-interpolation-filters:sRGB}</style><defs><filter id="B" width="1.026" height="1.022" x="-.013" y="-.011" class="B"><feGaussianBlur stdDeviation="2.441"/></filter><filter id="E" width="1.09" height="1.104" x="-.045" y="-.052" class="B"><feGaussianBlur stdDeviation="8.893"/></filter><filter id="F" width="1.8" height="1.903" x="-.4" y="-.452" class="B"><feGaussianBlur stdDeviation="1.833"/></filter><filter id="G" width="1.596" height="1.665" x="-.298" y="-.333" class="B"><feGaussianBlur stdDeviation="1.833"/></filter><filter id="H" width="1.37" height="1.304" x="-.185" y="-.152" class="B"><feGaussianBlur stdDeviation="1.833"/></filter><filter id="I" width="1.425" height="1.465" x="-.212" y="-.232" class="B"><feGaussianBlur stdDeviation="1.833"/></filter><filter id="J" width="1.429" height="1.495" x="-.215" y="-.248" class="B"><feGaussianBlur stdDeviation="1.833"/></filter><filter id="K" width="1.697" height="1.834" x="-.349" y="-.417" class="B"><feGaussianBlur stdDeviation="1.833"/></filter><filter id="M" width="1.105" height="1.089" x="-.052" y="-.044" class="B"><feGaussianBlur stdDeviation="4.412"/></filter><linearGradient id="A" x1="-1430.769" x2="-1409.955" y1="-77.47" y2="-77.47" gradientUnits="userSpaceOnUse" spreadMethod="reflect"><stop offset="0" stop-color="#ffead5"/><stop offset=".232" stop-color="#fff0d8"/><stop offset=".616" stop-color="#ffeed2"/><stop offset=".808" stop-color="#ffebd7"/><stop offset="1" stop-color="#ffefdd"/></linearGradient><linearGradient id="C" x1="-905.02" x2="-904.556" y1="-384.47" y2="184.159" gradientUnits="userSpaceOnUse"><stop offset="0"/><stop offset=".599" stop-color="#fff"/></linearGradient><clipPath id="D"><path stroke-width="24.218" d="M416.432 609.694c3.905 57.109 83.956 66.383 116.659 111.778-28.311 11.227-66.383 15.132-85.908 35.632 6.834 24.406 28.799 26.846 44.418 28.311-3.905 4.393-6.834 9.274-7.81 16.108.488 16.596-6.345 96.158-23.918 107.873-4.881 3.417-11.715 1.952-17.572 9.274 17.084 26.358 50.276 62.479 90.301 36.609 29.775-.976 61.502-7.322 82.491-9.274 18.548-1.952 33.68 13.667 51.74 8.786 3.417-11.715-6.834-20.501-12.203-27.334-6.345-22.453-11.227-54.669-12.203-89.325 0-2.929-4.393-.976-3.417-4.881.488-57.109-.488-126.421 7.322-198.662 7.81 4.881 16.596 5.857 22.453-.976-9.274-13.667-20.501-44.906-54.181-43.442-2.441 2.929-3.905 6.346-6.345 10.738-26.358 17.572-50.764 40.513-80.051 62.479-13.179-15.62-32.216-40.025-45.395-65.407-27.334-8.298-51.74-9.762-66.383 11.715zm243.081 100.063c-.488 13.667 35.632 55.645 44.418 37.097-2.441-5.369-4.881-9.762-6.834-15.62-1.952-21.965 11.715-53.204 21.965-80.051-12.691 0-18.06 9.762-25.87.976-9.274 11.715-32.704 38.561-33.68 57.597zm2.441 189.388c0 34.168 32.215 54.669 53.204 64.431 11.715 29.775 41.978 39.049 72.729 22.453-7.81-8.298-18.548-13.667-22.941-25.87 6.345-18.06 88.349-158.637 105.921-168.399 0-10.25 24.406-30.263 32.704-39.537-6.834-10.25-20.989-11.715-31.727-9.274-10.25 2.441-63.455 74.681-67.36 80.539-8.298-2.929-19.525-12.203-34.168-7.322-6.345-10.25-10.25-22.941-10.739-41.978 20.501-9.762 65.407-2.929 79.563-21.477-18.548-25.382-53.693-10.25-80.539-10.25 0-31.239 0-84.932 2.929-116.171 12.691-2.929 41.49-10.25 59.55-8.298 10.25.976 17.572 10.738 28.799 4.393-1.464-17.084-35.144-54.669-54.181-47.347-8.786 3.417-15.62 14.155-25.382 19.036-31.239 15.62-71.753 4.393-103.48 23.918 11.715 17.572 35.144 22.941 65.895 13.667l-5.857 117.635c-21.477 5.857-42.954 6.834-57.597 19.525 5.857 12.691 21.477 26.358 58.086 12.203-1.464 12.691-3.417 29.287 4.393 45.883-21.965 1.952-34.168 6.834-50.764 15.132 11.227 13.179 27.334 20.013 47.347 22.941 10.739-14.643 46.371-19.036 64.431-20.013-12.203 20.013-39.537 59.55-51.252 86.396-3.417 3.417-8.298 8.298-15.62 9.274-14.643-24.894-34.656-37.097-63.943-41.49zm119.1-264.069c0 14.643 6.834 28.799 6.346 40.513 0 3.417-3.417 4.881-2.929 8.786 3.417 19.036 30.263 36.609 45.883 37.097 2.929-16.108-11.227-40.025-9.762-61.014-8.786-9.274-22.453-22.941-39.537-25.382zM517.471 870.347c23.429 15.62 52.228-.976 89.813-1.464-.976 17.084 2.441 36.609 4.393 47.347-22.453 6.345-59.062 11.227-91.765 13.667-3.905-12.691-2.441-41.49-2.441-59.55m0-17.572c-.488-20.501.488-29.775 1.952-47.347 20.501-2.929 59.55-8.298 88.349-6.834-1.464 8.786-.976 31.239-1.464 41.002-25.87 3.905-58.574 6.834-88.837 13.179m-14.643-73.217c-2.929-5.857-2.441-13.179 3.905-15.62 10.25-5.369 27.823-18.06 41.002-24.406 8.786 5.857 23.918 23.918 35.144 32.215-22.941 1.952-56.133 3.905-80.051 7.81zm46.859-87.372c6.834-13.667 42.466-38.561 66.383-51.252-1.464 17.572-6.834 89.813-7.81 126.421-25.382-18.548-41.002-47.835-58.574-75.169z"/></clipPath><clipPath id="L"><path stroke-width="1.534" d="M1711.016 1079.856a7.48 7.48 0 0 0-5.309 2.208l-3.066 3.066a7.49 7.49 0 0 0 0 10.619l85.245 85.248-85.245 85.245a7.49 7.49 0 0 0 0 10.619l3.066 3.07a7.49 7.49 0 0 0 10.619 0l75.571-75.571v106.87a7.493 7.493 0 0 0 7.507 7.511h4.34a7.493 7.493 0 0 0 7.507-7.511v-106.87l75.568 75.571a7.49 7.49 0 0 0 10.619 0l3.07-3.07a7.49 7.49 0 0 0 0-10.619l-85.248-85.245 85.248-85.248a7.49 7.49 0 0 0 0-10.619l-3.07-3.066a7.493 7.493 0 0 0-10.619 0l-85.245 85.245-85.248-85.245a7.49 7.49 0 0 0-5.31-2.208m90.558 101.135v.01h-.01z"/></clipPath></defs><path d="m-2659.569 204.596 26.181 28.949 150.416 46.096 171.017-51.398 98.911-437.515-45.894-49.39z" filter="url(#B)" opacity=".5" transform="matrix(-2.0051 0 0 2.0051 -4364.078 706.823)"/><path fill="url(#A)" d="m-1220.686-340.838-153.963 49.823-8.809 28.459-94.245 482.361 10.349 7.986h493.336l10.348-7.986-94.244-482.361-8.809-28.459z" transform="rotate(180 -893.82 266.77)scale(2.0051)"/><path fill="url(#C)" d="m-905.02-384.47-153.963 49.823-8.809 26.778-94.245 484.042 10.349 7.986h493.336l10.349-7.986-94.244-482.219-8.809-28.601z" opacity=".25" style="mix-blend-mode:overlay" transform="rotate(180 -577.344 223.027)scale(2.0051)"/><path d="m165.355 97.854.043-21.064-20.75 16.013zm821.025 961.863-17.664-13.248L660 1143.218v16.402z" opacity=".4"/><path d="m333.62 1059.717 17.664-13.248L660 1143.218v16.402z" opacity=".6"/><path d="m333.62 1059.717 17.664-13.248L165.355 97.854l-20.707-5.052z" opacity=".6"/><g fill="#fff"><path d="m986.38 1059.717-17.664-13.248 185.93-948.615 20.707-5.052z" opacity=".3"/><path d="m1154.646 97.854-.043-21.064 20.75 16.013z" opacity=".8"/><path d="M1154.646 97.854H165.355l.043-21.064h989.205z" opacity=".3"/></g><path d="M525.787 193.734a11.1 11.1 0 0 0-7.865 3.271l-4.542 4.542a11.1 11.1 0 0 0 0 15.73l126.273 126.278L513.38 469.828a11.1 11.1 0 0 0 0 15.73l4.542 4.547a11.1 11.1 0 0 0 15.73 0l111.944-111.944v158.307a11.1 11.1 0 0 0 11.121 11.126h6.428a11.1 11.1 0 0 0 11.12-11.126V378.162l111.938 111.944a11.1 11.1 0 0 0 15.73 0l4.547-4.547a11.1 11.1 0 0 0 0-15.73L680.202 343.555 806.48 217.277a11.1 11.1 0 0 0 0-15.73l-4.547-4.542a11.1 11.1 0 0 0-15.73 0L659.93 323.278 533.652 197.005a11.1 11.1 0 0 0-7.865-3.271M659.93 343.545l.005.01-.005.005-.01-.005z"/><path fill="#29303d" d="M1703.872 1087a7.48 7.48 0 0 0-5.309 2.208l-3.066 3.066a7.49 7.49 0 0 0 0 10.619l85.245 85.248-85.245 85.245a7.49 7.49 0 0 0 0 10.619l3.066 3.07a7.49 7.49 0 0 0 10.619 0l75.571-75.571v106.87a7.493 7.493 0 0 0 7.507 7.511h4.34a7.493 7.493 0 0 0 7.507-7.511v-106.87l75.568 75.571a7.49 7.49 0 0 0 10.619 0l3.07-3.07a7.49 7.49 0 0 0 0-10.619l-85.248-85.245 85.248-85.248a7.49 7.49 0 0 0 0-10.619l-3.07-3.066a7.493 7.493 0 0 0-10.619 0l-85.245 85.245-85.248-85.245a7.49 7.49 0 0 0-5.31-2.208m90.558 101.135v.01h-.01z" clip-path="url(#L)" filter="url(#M)" transform="translate(-2008.741 -1405.856)scale(1.4813)"/><path d="m351.283 1117.065-17.663-57.348L660 1159.62l326.38-99.903-17.663 57.348L660 1216.968z" opacity=".7"/><path d="M416.432 609.694c3.905 57.109 83.956 66.383 116.659 111.778-28.311 11.227-66.383 15.132-85.908 35.632 6.834 24.406 28.799 26.846 44.418 28.311-3.905 4.393-6.834 9.274-7.81 16.108.488 16.596-6.345 96.158-23.918 107.873-4.881 3.417-11.715 1.952-17.572 9.274 17.084 26.358 50.276 62.479 90.301 36.609 29.775-.976 61.502-7.322 82.491-9.274 18.548-1.952 33.68 13.667 51.74 8.786 3.417-11.715-6.834-20.501-12.203-27.334-6.345-22.453-11.227-54.669-12.203-89.325 0-2.929-4.393-.976-3.417-4.881.488-57.109-.488-126.421 7.322-198.662 7.81 4.881 16.596 5.857 22.453-.976-9.274-13.667-20.501-44.906-54.181-43.442-2.441 2.929-3.905 6.345-6.345 10.738-26.358 17.572-50.764 40.513-80.051 62.479-13.179-15.62-32.216-40.025-45.395-65.407-27.334-8.298-51.74-9.762-66.383 11.715zm243.081 100.063c-.488 13.667 35.632 55.645 44.418 37.097-2.441-5.369-4.881-9.762-6.834-15.62-1.952-21.965 11.715-53.204 21.965-80.051-12.691 0-18.06 9.762-25.87.976-9.274 11.715-32.704 38.561-33.68 57.597zm2.441 189.388c0 34.168 32.215 54.669 53.204 64.431 11.715 29.775 41.978 39.049 72.729 22.453-7.81-8.298-18.548-13.667-22.941-25.87 6.345-18.06 88.349-158.637 105.921-168.399 0-10.25 24.406-30.263 32.704-39.537-6.834-10.25-20.989-11.715-31.727-9.274-10.25 2.441-63.455 74.681-67.36 80.539-8.298-2.929-19.525-12.203-34.168-7.322-6.345-10.25-10.25-22.941-10.739-41.978 20.501-9.762 65.407-2.929 79.563-21.477-18.548-25.382-53.692-10.25-80.539-10.25 0-31.239 0-84.932 2.929-116.171 12.691-2.929 41.49-10.25 59.55-8.298 10.25.976 17.572 10.738 28.799 4.393-1.464-17.084-35.144-54.669-54.181-47.347-8.786 3.417-15.62 14.155-25.382 19.036-31.239 15.62-71.753 4.393-103.48 23.918 11.715 17.572 35.144 22.941 65.895 13.667l-5.857 117.635c-21.477 5.857-42.954 6.834-57.597 19.525 5.857 12.691 21.477 26.358 58.086 12.203-1.464 12.691-3.417 29.287 4.393 45.883-21.965 1.952-34.168 6.834-50.764 15.132 11.227 13.179 27.334 20.013 47.347 22.941 10.739-14.643 46.371-19.036 64.431-20.013-12.203 20.013-39.537 59.55-51.252 86.396-3.417 3.417-8.298 8.298-15.62 9.274-14.643-24.894-34.656-37.097-63.943-41.49zm119.1-264.069c0 14.643 6.834 28.799 6.345 40.513 0 3.417-3.417 4.881-2.929 8.786 3.417 19.036 30.263 36.609 45.883 37.097 2.929-16.108-11.227-40.025-9.762-61.014-8.786-9.274-22.453-22.941-39.537-25.382M517.471 870.347c23.429 15.62 52.228-.976 89.813-1.464-.976 17.084 2.441 36.609 4.393 47.347-22.453 6.345-59.062 11.227-91.765 13.667-3.905-12.691-2.441-41.49-2.441-59.55m0-17.572c-.488-20.501.488-29.775 1.952-47.347 20.501-2.929 59.55-8.298 88.349-6.834-1.464 8.786-.976 31.239-1.464 41.002-25.87 3.905-58.574 6.834-88.837 13.179m-14.643-73.217c-2.929-5.857-2.441-13.179 3.905-15.62 10.25-5.369 27.823-18.06 41.002-24.406 8.786 5.857 23.918 23.918 35.144 32.215-22.941 1.952-56.133 3.905-80.051 7.81zm46.859-87.372c6.834-13.667 42.466-38.561 66.383-51.252-1.464 17.572-6.834 89.813-7.81 126.421-25.382-18.548-41.002-47.835-58.574-75.169z"/><path fill="#29303d" d="M416.432 609.694c3.905 57.109 83.956 66.383 116.659 111.778-16.107 23.621-59.519 27.907-85.908 35.632 6.834 24.406 28.799 26.846 44.418 28.311-3.905 4.393-6.834 9.274-7.81 16.108.488 16.596-6.345 96.158-23.918 107.873-9.983 20.061-11.715 1.952-17.572 9.274 17.084 26.358 50.276 62.479 90.301 36.609 29.775-.976 61.502-7.322 82.491-9.274 18.548-1.952 33.68 13.667 51.74 8.786-6.834-9.962-14.384-17.265-19.753-24.098-17.132-17.06-32.111-275.768-.747-296.104 7.81 4.881 10.994 9.876 16.852 3.043-19.791-11.78-8.967-37.33-42.646-35.866-2.441 2.929-9.837-5.25-12.278-.857-26.358 17.572-63.482 54.611-87.3 77.733-13.179-15.62-39.458-39.263-52.637-64.644-27.334-8.298-37.249-25.779-51.892-4.302zm243.081 100.063c-.488 13.667 29.304 60.284 38.09 41.736-2.441-5.369-6.103-12.783-8.055-18.641-1.952-21.965 9.827-41.339 20.078-68.186-12.691 0-18.878 9.097-26.687.311-9.274 11.715-22.448 25.743-23.424 44.779zm2.979 196.939c0 34.168 31.677 47.118 52.666 56.88 11.715 29.775 31.278 43.804 62.03 27.209-7.81-8.298-30.231-23.546-12.242-30.625 6.345-18.06 88.349-158.637 105.921-168.399 3.554-8.632 14.275-19.395 22.488-29.336-6.834-10.25-21.778-12.703-32.516-10.263-10.25 2.441-52.45 65.469-56.355 71.326-3.174 14.33-26.266-3.843-40.909 1.038-6.345-10.25-17.262-42.626-3.997-50.337 20.501-9.762 65.407-2.929 79.563-21.477-27.141-14.454-60.973-3.239-87.82-3.239 0-31.239-3.236-116.752 10.209-123.182 12.691-2.929 41.49-10.25 59.55-8.298 10.25.976 8.896 2.701 20.645 6.511-1.464-17.084-21.327-45.191-40.364-37.869-8.786 3.417-18.047 13.077-27.809 17.958-31.239 15.62-67.708 8.708-106.716 13.401 11.715 17.572 35.144 22.941 65.895 13.667l-5.857 117.635c-7.185 17.992-39.095 19.487-57.597 19.525 5.857 12.691 21.477 26.358 58.086 12.203-1.464 12.691-3.417 29.287 4.393 45.883-8.212 15.435-32.434 14.39-50.764 15.132 11.227 13.179 27.334 20.013 47.347 22.941 10.739-14.643 46.371-19.036 64.431-20.013-12.203 20.013-39.537 59.55-51.252 86.396-3.417 3.417-11.534 18.006-18.856 18.982-14.643-24.894-30.882-39.254-60.168-43.647zm118.827-262.185c0 14.643 6.568 19.363 6.08 31.078 0 3.417-3.417 4.881-2.929 8.786C787.886 703.412 808.202 720 823.61 720c2.929-16.108-12.04-26.151-10.575-47.14-8.786-9.274-14.633-25.908-31.717-28.348zM517.471 870.347c23.429 15.62 52.228-.976 89.813-1.464-.976 17.084 2.441 36.609 4.393 47.347-13.015 20.772-67.826 18.103-100.529 20.543-3.905-12.691-9.856-49.31 6.323-66.426m-7.011-9.078c-.488-20.501-2.208-45.55 8.964-55.841 20.501-2.929 59.55-8.298 88.349-6.834-1.464 8.786-.976 31.239-1.464 41.002-6.994 11.995-65.585 15.328-95.848 21.673zm-7.767-77.116c-7.513 0-12.822-11.707 4.04-20.214 10.25-5.369 27.823-18.06 41.002-24.406 8.786 5.857 23.918 23.918 35.144 32.215-6.492 11.121-56.268 8.5-80.185 12.405zm46.994-91.967c6.834-13.667 42.466-38.561 66.383-51.252-1.464 17.572-6.834 89.813-7.81 126.421-2.461 21.092-87.3-79.116-58.574-75.169z" clip-path="url(#D)" filter="url(#E)"/><g fill="#fff"><path d="M444.846 647.594c5.841 2.671 9.977-5.341 8.721-12.019s-7.908-12.022-13.75-14.696-10.876-2.673-9.619 4.007 8.807 20.037 14.648 22.708" filter="url(#H)"/><path d="M466.838 774.309c5.018 1.184 7.738-4.454 6.327-9.036s-6.956-8.106-11.976-9.292-9.512-.032-8.099 4.551 8.731 12.592 13.748 13.776z" filter="url(#I)"/><path d="M471.522 941.562c4.886 1.167 7.757-2.608 6.033-6.921s-8.047-9.167-12.936-10.337-8.34 1.347-6.613 5.663 8.63 10.428 13.516 11.596z" filter="url(#J)"/><path d="M686.614 731.195c2.294-2.624 1.656-6.908-1.359-9.052s-8.408-2.144-10.704.484-1.492 7.879 1.524 10.019 8.245 1.173 10.539-1.451" filter="url(#G)"/><path d="M727.262 976.931c3.861.839 7.462-3.738 5.403-6.866s-9.782-4.808-11.584-2.518 2.32 8.546 6.18 9.384z" filter="url(#K)"/><path d="M800.392 697.542c3.357.929 6.259-3.056 4.354-5.98s-8.621-4.785-10.072-2.791 2.362 7.841 5.719 8.771z" filter="url(#F)"/></g></svg>