<svg xmlns="http://www.w3.org/2000/svg" width="498.898" height="544.252" viewBox="0 0 1320 1440"><style>.B{color-interpolation-filters:sRGB}</style><defs><filter id="C" x="-.011" y="-.011" width="1.021" height="1.022" class="B"><feGaussianBlur stdDeviation="2.441"/></filter><filter id="E" x="-.048" y="-.048" width="1.096" height="1.096" class="B"><feGaussianBlur stdDeviation="7.58"/></filter><filter id="G" x="-.048" y="-.048" width="1.096" height="1.096" class="B"><feGaussianBlur stdDeviation="5.51"/></filter><filter id="H" x="-.155" y="-.174" width="1.31" height="1.348" class="B"><feGaussianBlur stdDeviation="1.005"/></filter><filter id="I" x="-.167" y="-.217" width="1.335" height="1.434" class="B"><feGaussianBlur stdDeviation="1.005"/></filter><filter id="J" x="-.139" y="-.168" width="1.277" height="1.336" class="B"><feGaussianBlur stdDeviation="1.005"/></filter><filter id="K" x="-.193" y="-.251" width="1.386" height="1.502" class="B"><feGaussianBlur stdDeviation="1.005"/></filter><filter id="L" x="-.1" y="-.13" width="1.201" height="1.259" class="B"><feGaussianBlur stdDeviation="1.005"/></filter><filter id="M" x="-.119" y="-.142" width="1.238" height="1.284" class="B"><feGaussianBlur stdDeviation="1.005"/></filter><linearGradient id="A" x1="228.547" y1="660.587" x2="270.281" y2="660.587" spreadMethod="reflect" gradientUnits="userSpaceOnUse"><stop offset="0" stop-color="#ffd285"/><stop offset=".232" stop-color="#ffcd79"/><stop offset=".616" stop-color="#ffca73"/><stop offset=".808" stop-color="#ffd386"/><stop offset="1" stop-color="#ffc86e"/></linearGradient><linearGradient id="B" x1="660.031" y1="176.668" x2="660.029" y2="1147.598" gradientUnits="userSpaceOnUse"><stop offset=".597" stop-color="#fff"/><stop offset="1"/></linearGradient><clipPath id="D"><path d="M-309.997 569.351c-12.933-14.657-33.194-29.746-54.318-36.643-15.951-5.173-32.332-5.604-46.99 2.155-27.59-4.311-46.99-.431-68.113-1.293.862-8.622-2.587-22.417 3.449-26.297 20.261 0 40.954-4.311 61.216-6.466 6.898-.862 14.226 4.311 18.537-3.018-12.502-17.244-45.696-25.435-81.477-16.382-.862-9.484-1.724-15.088 1.724-26.297 30.177-1.724 57.336-1.293 81.477-11.209-6.035-12.502-22.848-20.262-43.541-22.848-6.466 6.466-21.124 5.173-34.488 5.173 4.742-18.106-6.035-26.728-10.346-37.505 27.159-5.604 68.975-.862 101.308-3.449-.431-20.693-38.799-27.59-57.336-25.004-23.279 3.449-51.732 2.155-75.442 3.88-36.643 2.587-71.131 10.777-104.756 12.933-3.018.862.431 7.76-3.018 8.191-6.898.431-8.622-4.742-16.813-3.018-4.742 8.622 3.88 13.364 5.173 21.124 12.933 3.88 17.675 14.657 18.106 30.608.862 33.194 0 91.824-8.191 120.707 9.915 9.053 15.519 22.848 26.728 30.608 2.155-2.587 16.382-5.604 16.382-11.209 62.509-6.898 122-16.813 179.336-12.933 7.329 25.866-5.173 51.732-6.466 73.286-.431 4.742 4.311 9.915 3.449 14.657-2.155 13.795-12.502 23.71-23.279 28.883 0-3.018 19.399-16.382 18.537-22.848-13.364 9.053-25.866 30.608-43.541 32.763-25.004 3.018-52.594-18.968-75.011-11.209 17.244 6.898 28.883 20.693 38.368 35.781 18.106 9.484 30.608 27.59 56.474 25.866 13.795-.862 35.35-12.071 44.834-21.124 28.883-26.728 25.435-85.357 36.643-126.742 18.106-2.587 34.488-12.502 41.385-21.124zm-140.968 72.855c2.587-9.915 2.156-18.106 0-25.004-5.604-18.968-26.297-28.883-48.283-36.643 1.293 6.035 2.156 12.933 1.724 21.124 12.933 15.519 19.83 43.972 46.558 40.523zm-60.353-16.813c-6.466-19.83-31.039-31.47-44.403-38.368-4.311 34.057 17.244 62.509 43.11 63.371 3.88-9.484 3.449-17.675 1.293-25.004zm-60.785 7.76c-6.035-19.83-28.452-34.488-46.99-41.385 5.604 29.746 12.071 67.251 44.834 68.544 4.311-9.915 4.742-18.968 2.155-27.159zm-65.096 40.092c10.777-46.558-20.262-64.233-50.007-79.753-8.191 8.622 10.777 31.901 1.724 45.696 9.915 7.76 16.382 22.848 26.728 30.608 5.604 4.311 12.502 6.466 21.555 3.449zm124.587-242.276c-23.71-.431-37.936 6.898-64.664 4.742 2.587-6.898.862-21.986-3.449-27.159 12.502-15.088 42.247-14.226 64.664-16.813 2.155 12.071 4.311 24.141 3.449 39.23zm-1.724 55.18c-25.004.431-40.954 2.587-62.94 4.742-3.449-7.329-1.293-24.141 0-27.59 24.141-2.155 38.368-7.329 62.94-6.466-.431 10.777 1.724 19.83 0 29.315zm1.724 50.438c-24.572 6.898-45.265 6.466-66.389 8.191-1.293-8.622 3.018-19.83 1.293-27.159 23.71 1.724 38.799-9.484 63.371-8.622-.431 10.346 3.018 16.382 1.724 27.59z" stroke-width="21.389"/></clipPath><clipPath id="F"><path d="M1799.132 1043.254a7.22 7.22 0 0 0-7.237 7.237v107.141l-44.726-44.726 10.889-10.886c-.771-2.729-3.59-5.548-6.319-6.319l-30.343-8.569-5.259-5.26a7.222 7.222 0 0 0-10.237 0l-3.45 3.45a7.222 7.222 0 0 0 0 10.237l5.259 5.259 8.569 30.343c.771 2.729 3.59 5.548 6.319 6.319l10.886-10.889 44.726 44.726h-107.141a7.22 7.22 0 0 0-7.237 7.237v4.88c0 4.01 3.227 7.24 7.237 7.24h107.141l-44.726 44.726-10.886-10.889c-2.729.771-5.548 3.586-6.319 6.315l-8.569 30.347-5.259 5.259a7.222 7.222 0 0 0 0 10.237l3.45 3.45a7.222 7.222 0 0 0 10.237 0l5.266-5.266 30.337-8.565c2.729-.771 5.548-3.586 6.319-6.315l-10.889-10.886 44.726-44.726v107.138c0 4.01 3.227 7.24 7.237 7.24h4.88c4.01 0 7.24-3.23 7.24-7.24v-107.138l44.726 44.726-10.889 10.886c.771 2.729 3.586 5.545 6.315 6.315l30.34 8.565 5.266 5.266a7.222 7.222 0 0 0 10.237 0l3.45-3.45a7.222 7.222 0 0 0 0-10.237l-5.266-5.266-8.565-30.34c-.771-2.729-3.586-5.545-6.315-6.315l-10.886 10.889-44.726-44.726h107.138c4.01 0 7.24-3.23 7.24-7.24v-4.88c0-4.01-3.23-7.237-7.24-7.237H1824.94l44.726-44.726 10.886 10.889c2.729-.771 5.545-3.59 6.315-6.319l8.565-30.337 5.266-5.266a7.222 7.222 0 0 0 0-10.237l-1.725-1.725-1.725-1.725a7.222 7.222 0 0 0-10.237 0l-5.259 5.26-30.347 8.569c-2.729.771-5.545 3.59-6.315 6.319l10.889 10.886-44.726 44.726V1050.49c0-4.01-3.23-7.237-7.24-7.237zm2.438 137.74h.01v.01h-.01z" stroke-width="1.534"/></clipPath></defs><path  d="m-2758.546 269.702 24.453 34.897h517.576l14.375-11.25-104.69-501.167-31.462-17.601z" transform="matrix(-2.0051 0 0 2.0051 -4364.078 800.65)" opacity=".5" filter="url(#C)"/><path d="M660.043 176.666 306.898 293.594l-167.217 974.019 13.3 73.818 20.099 16.718h973.903l20.099-16.718 13.324-73.818-167.217-974.019z" fill="url(#A)"/><path d="M660.031 176.668 306.887 293.595l-167.217 974.02 13.312 73.816 20.099 16.719h973.903l20.099-16.719 13.312-73.816-167.217-974.019z" opacity=".25" fill="url(#B)" style="mix-blend-mode:overlay"/><path d="m1159.664 1262.571-.043 21.064 20.75-16.013-20.707-5.052z" opacity=".8" fill="#fff"/><path d="m1180.371 1267.622-20.75 16.013-12.637 74.514 20.099-16.718 13.288-73.808z" opacity=".6"/><g fill="#fff"><path d="m306.85 293.586 17.664 13.248L660 193.058v-16.402zM1013.15 293.586l-17.664 13.248L660 193.058v-16.402z" opacity=".3"/><path d="m1013.15 293.586-17.664 13.248 164.177 955.737 20.707 5.052z" opacity=".3"/></g><path d="m306.85 293.586 17.664 13.248-164.177 955.737-20.707 5.052z" opacity=".4"/><path d="m139.629 1267.622 20.75 16.013 12.702 74.514-20.099-16.718-13.353-73.808z" opacity=".9"/><path d="m160.337 1262.571.043 21.064-20.75-16.013 20.707-5.052z" opacity=".6"/><path d="M160.337 1262.571h999.327l-.043 21.064H160.379l-.043-21.064z" opacity=".2"/><path d="m1159.621 1283.635-12.637 74.514H173.081l-12.702-74.514h999.241z" opacity=".7"/><path d="M876.159 598.638c-14.74-16.705-37.833-33.902-61.908-41.763-18.179-5.896-36.85-6.387-53.555 2.457-31.445-4.913-53.555-.491-77.631-1.474.983-9.827-2.948-25.549 3.931-29.971 23.093 0 46.677-4.913 69.769-7.37 7.861-.983 16.214 4.913 21.127-3.439-14.249-19.653-52.081-28.989-92.862-18.671-.983-10.809-1.965-17.197 1.965-29.971 34.393-1.965 65.347-1.474 92.862-12.775-6.879-14.249-26.041-23.093-49.625-26.041-7.37 7.37-24.075 5.896-39.307 5.896 5.405-20.636-6.879-30.463-11.792-42.746 30.954-6.387 78.613-.983 115.463-3.931-.491-23.584-44.22-31.445-65.347-28.497-26.532 3.931-58.96 2.457-85.983 4.422-41.763 2.948-81.07 12.283-119.394 14.74-3.439.983.491 8.844-3.439 9.335-7.861.491-9.827-5.405-19.162-3.439-5.405 9.827 4.422 15.231 5.896 24.075 14.74 4.422 20.145 16.705 20.636 34.885.983 37.833 0 104.654-9.335 137.573 11.301 10.318 17.688 26.041 30.463 34.885 2.457-2.948 18.671-6.387 18.671-12.775 71.243-7.861 139.048-19.162 204.395-14.74 8.353 29.48-5.896 58.96-7.37 83.527-.491 5.405 4.913 11.301 3.931 16.705-2.457 15.723-14.249 27.023-26.532 32.919 0-3.439 22.11-18.671 21.127-26.041-15.231 10.318-29.48 34.885-49.625 37.341-28.497 3.439-59.943-21.619-85.492-12.775 19.653 7.861 32.919 23.584 43.729 40.781 20.636 10.809 34.885 31.445 64.365 29.48 15.723-.983 40.289-13.757 51.099-24.075 32.919-30.463 28.989-97.284 41.763-144.452 20.636-2.948 39.307-14.249 47.168-24.075zm-160.666 83.035c2.948-11.301 2.457-20.636 0-28.497-6.387-21.619-29.971-32.919-55.029-41.763 1.474 6.879 2.457 14.74 1.965 24.075 14.74 17.688 22.601 50.116 53.064 46.185zm-68.787-19.162c-7.37-22.601-35.376-35.867-50.607-43.729-4.913 38.815 19.653 71.243 49.133 72.226 4.422-10.809 3.931-20.145 1.474-28.497zm-69.278 8.844c-6.879-22.601-32.428-39.307-53.555-47.168 6.387 33.902 13.757 76.648 51.099 78.122 4.913-11.301 5.405-21.619 2.457-30.954zm-74.191 45.694c12.283-53.064-23.093-73.209-56.995-90.897-9.335 9.827 12.283 36.359 1.965 52.081 11.301 8.844 18.671 26.041 30.463 34.885 6.387 4.913 14.249 7.37 24.567 3.931zm141.995-276.13c-27.023-.491-43.237 7.861-73.7 5.405 2.948-7.861.983-25.058-3.931-30.954 14.249-17.197 48.151-16.214 73.7-19.162 2.457 13.757 4.913 27.515 3.931 44.711zm-1.965 62.891c-28.497.491-46.677 2.948-71.735 5.405-3.931-8.353-1.474-27.515 0-31.445 27.515-2.457 43.729-8.353 71.735-7.37-.491 12.283 1.965 22.601 0 33.411zm1.965 57.486c-28.006 7.861-51.59 7.37-75.665 9.335-1.474-9.827 3.439-22.601 1.474-30.954 27.023 1.965 44.22-10.809 72.226-9.827-.491 11.792 3.439 18.671 1.965 31.445z" fill="#340000"/><path d="M-313.014 577.541c-12.933-14.657-33.194-29.746-54.318-36.643-15.951-5.173-32.332-5.604-46.99 2.155-27.59-4.311-46.99-.431-68.113-1.293.862-8.622-2.587-22.417 3.449-26.297 20.262 0 40.954-4.311 61.216-6.466 6.898-.862 14.226 4.311 18.537-3.018-12.502-17.244-45.696-25.435-81.477-16.382-.862-9.484-1.724-15.088 1.724-26.297 30.177-1.724 57.336-1.293 81.477-11.209-6.035-12.502-22.848-20.262-43.541-22.848-6.466 6.466-21.124 5.173-34.488 5.173 4.742-18.106-6.035-26.728-10.346-37.505 27.159-5.604 68.975-.862 101.308-3.449-.431-20.693-38.799-27.59-57.336-25.004-23.279 3.449-51.732 2.155-75.442 3.88-36.643 2.587-71.131 10.777-104.756 12.933-3.018.862.431 7.76-3.018 8.191-6.898.431-8.622-4.742-16.813-3.018-4.742 8.622 3.88 13.364 5.173 21.124 12.933 3.88 17.675 14.657 18.106 30.608.862 33.194 0 91.824-8.191 120.707 9.915 9.053 15.519 22.848 26.728 30.608 2.155-2.587 16.382-5.604 16.382-11.209 62.509-6.898 122-16.813 179.336-12.933 7.329 25.866-5.173 51.732-6.466 73.286-.431 4.742 4.311 9.915 3.449 14.657-2.155 13.795-12.502 23.71-23.279 28.883 0-3.018 19.399-16.382 18.537-22.848-13.364 9.053-25.866 30.608-43.541 32.763-25.004 3.018-52.594-18.968-75.011-11.208 17.244 6.898 28.883 20.693 38.368 35.781 18.106 9.484 30.608 27.59 56.474 25.866 13.795-.862 35.35-12.071 44.834-21.124 28.883-26.728 25.435-85.357 36.643-126.742 18.106-2.587 34.488-12.502 41.385-21.124zm-140.968 72.855c2.587-9.915 2.155-18.106 0-25.004-5.604-18.968-26.297-28.883-48.283-36.643 1.293 6.035 2.156 12.933 1.724 21.124 12.933 15.519 19.83 43.972 46.558 40.523zm-60.353-16.813c-6.466-19.83-31.039-31.47-44.403-38.368-4.311 34.057 17.244 62.509 43.11 63.371 3.88-9.484 3.449-17.675 1.293-25.004zm-60.785 7.76c-6.035-19.83-28.452-34.488-46.99-41.385 5.604 29.746 12.071 67.251 44.834 68.544 4.311-9.915 4.742-18.968 2.155-27.159zm-65.096 40.092c10.777-46.558-20.262-64.233-50.007-79.753-8.191 8.622 10.777 31.901 1.724 45.696 9.915 7.76 16.382 22.848 26.728 30.608 5.604 4.311 12.502 6.466 21.555 3.449zm124.587-242.276c-23.71-.431-37.936 6.898-64.664 4.742 2.587-6.898.862-21.986-3.449-27.159 12.502-15.088 42.247-14.226 64.664-16.813 2.155 12.071 4.311 24.141 3.449 39.23zm-1.724 55.18c-25.004.431-40.954 2.587-62.94 4.742-3.449-7.329-1.293-24.141 0-27.59 24.141-2.155 38.368-7.329 62.94-6.466-.431 10.777 1.724 19.83 0 29.315zm1.724 50.438c-24.572 6.898-45.265 6.466-66.389 8.191-1.293-8.622 3.018-19.83 1.293-27.159 23.71 1.724 38.799-9.484 63.371-8.622-.431 10.346 3.018 16.382 1.724 27.59z" clip-path="url(#D)" transform="translate(1229.472 -50.268) scale(1.1397)" fill="#9b0000" filter="url(#E)"/><path d="M643.199 817.8a10.4 10.4 0 0 0-10.425 10.425v154.348l-64.433-64.433 15.687-15.682c-1.11-3.931-5.172-7.993-9.103-9.103l-43.713-12.344-7.577-7.577a10.405 10.405 0 0 0-14.747 0l-4.971 4.971a10.405 10.405 0 0 0 0 14.747l7.577 7.577 12.344 43.713c1.11 3.932 5.171 7.993 9.103 9.103l15.682-15.687 64.433 64.433H458.708a10.4 10.4 0 0 0-10.425 10.425v7.029c0 5.777 4.648 10.43 10.425 10.43h154.348l-64.433 64.433-15.682-15.687c-3.931 1.11-7.993 5.167-9.103 9.098l-12.344 43.717-7.577 7.577a10.405 10.405 0 0 0 0 14.747l4.971 4.971a10.405 10.405 0 0 0 14.747 0l7.587-7.587 43.703-12.339c3.931-1.11 7.993-5.167 9.103-9.098l-15.687-15.682 64.433-64.433v154.343c0 5.777 4.648 10.43 10.425 10.43h7.03a10.41 10.41 0 0 0 10.43-10.43v-154.343l64.433 64.433-15.687 15.682c1.11 3.931 5.167 7.988 9.098 9.098l43.708 12.339 7.586 7.587a10.405 10.405 0 0 0 14.747 0l4.971-4.971a10.405 10.405 0 0 0 0-14.747l-7.587-7.586-12.339-43.708c-1.11-3.931-5.167-7.988-9.098-9.098l-15.682 15.687-64.433-64.433h154.343a10.41 10.41 0 0 0 10.43-10.43v-7.029a10.404 10.404 0 0 0-10.43-10.425H680.376l64.433-64.433 15.682 15.687c3.931-1.11 7.988-5.172 9.098-9.103l12.339-43.703 7.587-7.586a10.405 10.405 0 0 0 0-14.747l-2.485-2.485-2.485-2.485a10.405 10.405 0 0 0-14.747 0l-7.577 7.577-43.717 12.344c-3.932 1.11-7.988 5.171-9.098 9.103l15.687 15.682-64.433 64.433v-154.35a10.404 10.404 0 0 0-10.43-10.425zm3.512 198.429h.014v.014h-.014z" fill="#340000"/><path d="M1789.451 1052.929a7.22 7.22 0 0 0-7.237 7.237v107.141l-44.726-44.726 10.889-10.886c-.771-2.729-3.59-5.548-6.319-6.319l-30.343-8.569-5.259-5.26a7.222 7.222 0 0 0-10.237 0l-3.45 3.45a7.222 7.222 0 0 0 0 10.237l5.259 5.259 8.569 30.343c.771 2.729 3.59 5.548 6.319 6.319l10.886-10.889 44.726 44.726h-107.141a7.22 7.22 0 0 0-7.237 7.237v4.88c0 4.01 3.227 7.24 7.237 7.24h107.141l-44.726 44.726-10.886-10.889c-2.729.771-5.548 3.586-6.319 6.315l-8.569 30.347-5.259 5.259a7.222 7.222 0 0 0 0 10.237l3.45 3.45a7.222 7.222 0 0 0 10.237 0l5.266-5.266 30.336-8.565c2.729-.771 5.548-3.586 6.319-6.315l-10.889-10.886 44.726-44.726v107.138c0 4.01 3.227 7.24 7.237 7.24h4.88c4.01 0 7.24-3.23 7.24-7.24v-107.138l44.726 44.726-10.889 10.886c.771 2.729 3.586 5.545 6.315 6.315l30.34 8.565 5.266 5.266a7.222 7.222 0 0 0 10.237 0l3.45-3.45a7.222 7.222 0 0 0 0-10.237l-5.266-5.266-8.565-30.34c-.771-2.729-3.586-5.545-6.315-6.315l-10.886 10.889-44.726-44.726h107.138c4.01 0 7.24-3.23 7.24-7.24v-4.88c0-4.01-3.23-7.237-7.24-7.237h-107.138l44.726-44.726 10.886 10.889c2.729-.771 5.545-3.59 6.315-6.319l8.565-30.337 5.266-5.266a7.222 7.222 0 0 0 0-10.237l-1.725-1.725-1.725-1.725a7.222 7.222 0 0 0-10.237 0l-5.259 5.26-30.347 8.569c-2.729.771-5.545 3.59-6.315 6.319l10.889 10.886-44.726 44.726v-107.141c0-4.01-3.23-7.237-7.24-7.237zm2.438 137.74h.01v.01h-.01z" clip-path="url(#F)" fill="#9b0000" filter="url(#G)" transform="translate(-1948.631 -685.111) scale(1.4406)"/><g fill="#fff"><path d="M463.437 688.373c4.738 2.164 10.378-1.986 8.46-6.225s-11.395-8.57-14.216-6.495 1.017 10.556 5.756 12.72z" filter="url(#H)"/><path d="M546.443 683.076c4.396 1.796 9.422-1.409 7.54-4.808s-10.674-6.995-13.187-5.391 1.252 8.403 5.647 10.199z" filter="url(#I)"/><path d="M670.409 640.129c-2.675 3.519 2.628 11.675 7.952 12.235s10.673-6.475 8.024-10.554-13.301-5.2-15.976-1.681z" filter="url(#J)"/><path d="M611.792 662.633c3.554.746 9.64-3.449 9.13-6.294s-7.618-4.341-10.662-2.242-2.022 7.79 1.532 8.536z" filter="url(#K)"/><path d="M540.997 600.375c5.986 2.065 9.689-1.99 9.142-6.174s-5.347-8.498-11.334-10.565-13.16-1.885-12.612 2.301 8.819 12.373 14.804 14.438z" filter="url(#L)"/><path d="M673.923 753.445c6.079 2.009 14.316-4.296 12.356-9.46s-14.117-9.186-18.237-6.032-.198 13.482 5.881 15.491z" filter="url(#M)"/></g></svg>