<svg xmlns="http://www.w3.org/2000/svg" xmlns:xlink="http://www.w3.org/1999/xlink" xml:space="preserve" width="100mm" height="100mm"><defs><linearGradient id="a"><stop offset="0" stop-color="#fad028"/><stop offset="1" stop-color="#856a02"/></linearGradient><linearGradient xlink:href="#a" id="b" x1="32.681" x2="105.54" y1="56.888" y2="56.888" gradientUnits="userSpaceOnUse"/></defs><g stroke="#000" stroke-width="3.563"><path fill="url(#b)" stroke-width="3.771" d="M53.381 11.803c-5.04.18-7.987 3.5-7.987 7.79 0 3.837 4.78 5.855 7.987 6.73 3.208-.875 7.987-2.893 7.987-6.73 0-4.29-2.948-7.61-7.987-7.79zm0 14.583c-21.396 1.73-26.479 19.141-26.401 25.343.083 6.616 2.136 16.261 12.599 21.12-2.321 4.109-6.876 10.595-6.872 14.273 4.88.054 9.618-1.755 20.674-1.771 11.056.016 15.793 1.825 20.674 1.771.004-3.678-4.551-10.165-6.872-14.273 10.463-4.86 12.516-14.504 12.599-21.12.077-6.203-5.005-23.614-26.401-25.343zm9.39 59.955c9.523 27.301 27.165-5.005 37.928 11.242.306-.289-2.818 10.386-2.932 9.774-9.864-14.818-17.75 8.702-36.697-5.318-4.598-3.402-7.04-9.176-7.689-14.807-.648 5.63-3.09 11.404-7.688 14.807-18.946 14.02-26.833-9.5-36.697 5.318-.114.612-3.238-10.062-2.932-9.774 10.763-16.248 28.404 16.058 37.928-11.242" style="font-variation-settings:&quot;wdth&quot;80,&quot;wght&quot;749" transform="matrix(3.073 0 0 3.0415 25 7.8)"/><path fill="none" stroke-width="3.472" d="M37.651 74.269c7.172-1.764 9.585-2.38 15.73-2.495 6.145.114 8.558.73 15.73 2.495" style="font-variation-settings:&quot;wdth&quot;80,&quot;wght&quot;749" transform="matrix(3.073 0 0 3.0415 25 7.8)"/></g><path fill="#ea5858" fill-opacity=".992" stroke="#ea5858" stroke-opacity=".992" stroke-width="2.376" d="m1761.5 1374.4-22.451-12.258-6.099 23.963-7.117-24.38-21.432 12.676 12.385-22.22-24.21-6.036 24.632-7.044-12.807-21.212 22.451 12.258 6.098-23.963 7.118 24.38 21.432-12.676-12.385 22.22 24.211 6.036-24.633 7.044z" style="font-variation-settings:&quot;wdth&quot;80,&quot;wght&quot;749" transform="translate(-1543.9 -1182.9)"/></svg>