<svg xmlns="http://www.w3.org/2000/svg" xml:space="preserve" width="100mm" height="100mm"><defs><linearGradient id="a" x1="1320.6" x2="1455.8" y1="123.38" y2="275.9" gradientTransform="translate(-1163.9)" gradientUnits="userSpaceOnUse"><stop offset="0" stop-color="#fff"/><stop offset="1" stop-color="#999999ff"/></linearGradient></defs><path fill="url(#a)" fill-opacity=".973" stroke="#000" stroke-width="11.339" d="M64.186 217.34c-15.859-20.143-51.287-26.315 13.887-104.31 39.02-73.834 98.877-39.737 148.36-59.365l41.752-15.556-3.926 15.894-28.18 7.806c105.37 58.084 67.518 140.7 101.28 211.05l5.124 63.76-53.587-51.582 37.216 46.283c-27.484-.063-51.61-7.654-71.365-25.053-.476 9.612-1.57 18.032.302 32.186-2.769 6.83-53.86-44.044-56.218-49.896-.857-2.127 3.427 31.504 5.951 32.932-1.263-.314-43.985-32.07-40.507-35.108 3.898-3.405 3.002 30.59 3.002 30.59-7.883-12.3-14.277-24.712-18.293-37.302-10.551 10.754-21.44 21.3-37.671 28.548 13.525-44.01 43.72-93.969 5.744-119.61l21.03 6.288-5.649-15.248c-11.267 2.347-44.75 1.335-62.622 7.472-2.143.735 11.98-12.202 9.9-12.22-15.866-.14-25.795 7.656-15.528 42.449z"/><path fill-opacity=".973" stroke="#000" stroke-width=".001" d="M137.64 119.06c-5.428-.438-8.882-3.422-11.537-8.073 2.15 1.506 5.616 3.214 8.765 3.68 8.628 1.25 43.4-11.513 56.69-5.437-3.85.77-7.65.136-18.354 2.61 0 9.888-6.5 16.342-15.851 18.54-12.461.534-17.835-10.388-19.714-11.32z"/><path fill="none" stroke="#000" stroke-width="11.339" d="M338.23 279.94c-21.836-46.074-85.764-72.748-140.66-94.052 12.988 10.664 24.788 21.8 32.822 34.435-27.397-12.847-52.024-28.138-79.568-37.575 2.99 5.428 14.052 15.687 19.66 20.123-2.364-6.68-29.288-18.104-33.983-25.024 0 0 19.022 1.003 17.796.353s-21.462-6.737-21.462-6.737c20.651-5.17 40.978-10.47 63.015-15.08-5.462-1.848-59.853-3.036-93.321-8.523l16.131-4.56c-7.293 4.292-13.519 1.567-19.024 1.296-2.694-1.271 7.19-12.368 11.126-17.527-6.08-1.682-13.32.603-17.787-6.588 4.212-3.608 5.78-7.29 6.662-10.99l-9.165 8.435-8.528-9.147"/><path fill="none" stroke="#000" stroke-width="11.339" d="M74.753 175.41c27.54-7.77 56.099-12.166 84.289-17.784"/></svg>