<svg xmlns="http://www.w3.org/2000/svg" xml:space="preserve" width="100mm" height="100mm"><defs><linearGradient id="a" x1="1644.6" x2="1846.2" y1="188.87" y2="188.87" gradientUnits="userSpaceOnUse"><stop offset="0" stop-color="#fff" stop-opacity=".973"/><stop offset="1" stop-color="#999999ff"/></linearGradient></defs><g stroke="#000"><path fill="url(#a)" fill-opacity=".973" stroke-width="11.339" d="M1739.1 340.1c-9.423-.107-18.677-1.588-25.868-5.07-4.3-4.151-6.873-7.435-8.65-10.32-21.513-10.767-23.934-13.563-30.059-36.769 2.335-5.574 7.103-11.132 12.853-16.68-5.992-26.336-12.263-52.62-29.469-76.912l4.494-8.196c-11.947 4.282-26.107 12.575-35.72 12.63-8.638-7.285-15.431-14.38-27.64-22.03 11.882-4.969 26.009-7.973 39.449-11.578-73.621-67.077-11.764-109.64 65.822-127.69-77.56 42.318-80.837 90.337-18.733 97.584 7.917-14.227 35.24-10.658 53.522-10.424 18.282-.235 45.605-3.803 53.522 10.424 62.104-7.247 58.827-55.266-18.733-97.584 77.586 18.054 139.44 60.615 65.822 127.69 13.44 3.605 27.567 6.609 39.448 11.578-12.207 7.65-19.001 14.746-27.64 22.03-9.613-.055-23.772-8.348-35.72-12.63l4.494 8.196c-17.206 24.292-23.476 50.576-29.47 76.911 5.75 5.55 10.519 11.107 12.854 16.681-6.125 23.206-8.547 26.002-30.058 36.77-1.778 2.884-4.35 6.168-8.651 10.32-7.191 3.48-16.446 4.962-25.868 5.069z" transform="translate(-1551.206 -4.322)"/><path fill="none" stroke-width="11.339" d="m174.4 220.9-7.446 34.327-33.343 13.869c13.726-14.511 48.889-16.988 54.514-16.988m13.206-31.209 7.446 34.327 33.343 13.869c-13.726-14.511-48.889-16.988-54.514-16.988M135.9 189.82c7.611 16.005 7.51 10.115 23.683 15.019l-2.813-7.774c-3.23-5.034-9.575-3.38-20.87-7.244zm103.09 0c-7.611 16.005-7.51 10.115-23.683 15.019l2.813-7.774c3.23-5.034 9.575-3.38 20.87-7.244z"/><path fill-opacity=".973" stroke-width=".001" d="M164.7 278.31v.024c-3.287 7.77-8.123 18.078.47 25.544 5.406 3.704 6.407-3.388 6.197-7.232-6.656-4.625-6.198-12.244-6.538-18.336zm48.434 0v.024c3.287 7.77 8.124 18.078-.47 25.544-5.406 3.704-6.407-3.388-6.197-7.232 6.656-4.625 6.198-12.244 6.538-18.336z"/></g></svg>