<svg xmlns="http://www.w3.org/2000/svg" xml:space="preserve" width="100mm" height="100mm"><defs><linearGradient id="a" x1="1760" x2="1685.2" y1="510.14" y2="617.35" gradientTransform="translate(-1554.4 -391.97)" gradientUnits="userSpaceOnUse"><stop offset="0" stop-color="#fff"/><stop offset="1" stop-color="#999999ff"/></linearGradient></defs><path fill="url(#a)" stroke="#000" stroke-width="11.339" d="M336.36 86.976c-23.715-16.42-58.878-11.465-87.37-13.018-64.508-52.14-127.17-33.391-170.46 24.213-4.505 5.996-7.249-11.185-9.74-17.237-5.567 14.111 2.474 29.522 14.926 22.643 16.914-9.344 39.14-35.775 46.355-37.104-18.075 27.498-31.035 73.441-54.79 79.828-12.898 3.468-17.515-11.335-23.176-27.341-8.778 20.14-17.435 41.072 22.688 53.348 16.51 5.051 32.649-33.754 49.62-57.889-2.567 16.204-.88 31.464 1.805 45.504l5.415 11.198c-11.66 38.241-17.237 80.321-42.606 109.91 18.607.711 30.343-20.67 44.332-34.806 3.465 21.556-6.714 41.931-14.722 62.493 19.462-10.541 25.272-34.236 34.46-54.675 7.906 25.14 4.581 47.574.224 69.759 10.524-9.994 23.871-16.099 15.523-69.168 20.166 19.154 17.248 51.578 21.933 79.631 8.86-22.838 10.736-49.374 1.874-81.599 13.934 20.584 20.714 53.04 27.54 85.419 15.955-39.976-21.096-149.59-17.127-180.9 23.146-1.51 45.871-5.706 64.025-39.106 20.203-8.638 14.208-6.617 62.251-21.132-9.213-3.23-22.677.648-36-3.227 15.956-4.003 25.916-5.279 43.017-6.751z"/><path fill-opacity=".992" stroke="#000" stroke-width=".001" d="M209.27 109.58h.56c3.23 0 6.573-.381 8.726-1.402 6.561-3.028 14.602-16.06 14.602-16.06s-16.083-3.017-22.879.482c-5.91 3.028-12.157 16.06-12.157 16.06s5.496.898 11.114.898z"/><path fill="none" stroke="#000" stroke-width="11.339" d="M123 118.86c11.666-39.119 30.899-73.463 102.24-60.89M241.6 69.929c-83.489 7.749-69.742 70.125-112.58 93.786M259.03 75.503 251.2 99.92l15.345 15.322"/></svg>