<svg xmlns="http://www.w3.org/2000/svg" xmlns:xlink="http://www.w3.org/1999/xlink" xml:space="preserve" width="100mm" height="100mm"><defs><linearGradient id="a"><stop offset="0" stop-color="#fad028"/><stop offset="1" stop-color="#856a02"/></linearGradient><linearGradient id="c"><stop offset="0" stop-color="#856a02"/><stop offset="1"/></linearGradient><linearGradient id="b"><stop offset="0"/><stop offset="1" stop-color="#856a02"/></linearGradient><linearGradient xlink:href="#a" id="e" x1="460.4" x2="479.87" y1="230.57" y2="230.66" gradientUnits="userSpaceOnUse"/><linearGradient xlink:href="#b" id="d" x1="11.619" x2="38.381" y1="25.004" y2="25.004" gradientUnits="userSpaceOnUse"/><linearGradient xlink:href="#c" id="f" x1="11.619" x2="38.381" y1="25.004" y2="25.004" gradientUnits="userSpaceOnUse"/></defs><g fill="url(#d)" fill-rule="evenodd" stroke="#1f1a17" stroke-width="2.639" clip-rule="evenodd" image-rendering="optimizeQuality" shape-rendering="geometricPrecision" transform="matrix(4.7039 0 0 -3.9231 -1433.2 1053.2)"><path fill="url(#e)" d="m469.92 259.51-9.87-28.558 9.369-4.387h1.31l9.5 4.387z" transform="translate(-125.29 -2.814)"/><path d="M344.19 223.676V218.5h1.287c0 3.126.006-1.498.03 5.168zM344.86 247.42v-18.468"/></g><g fill="url(#f)" fill-rule="evenodd" stroke="#1f1a17" stroke-width="2.639" clip-rule="evenodd" image-rendering="optimizeQuality" shape-rendering="geometricPrecision" transform="matrix(4.7039 0 0 3.9231 -1433.2 -675.23)"><path fill="url(#e)" d="m469.92 259.51-9.87-28.558 9.369-4.387h1.31l9.5 4.387z" transform="translate(-125.29 -2.814)"/><path d="M344.19 223.676V218.5h1.287c0 3.126.006-1.498.03 5.168zM344.86 247.42v-18.468"/></g></svg>