<svg xmlns="http://www.w3.org/2000/svg" xmlns:xlink="http://www.w3.org/1999/xlink" xml:space="preserve" width="100mm" height="100mm"><defs><linearGradient id="a"><stop offset="0" stop-color="#fad028"/><stop offset="1" stop-color="#856a02"/></linearGradient><linearGradient xlink:href="#a" id="b" x1="845.95" x2="1082.2" y1="216.24" y2="216.24" gradientUnits="userSpaceOnUse"/></defs><g stroke="#000"><path fill="url(#b)" stroke-width="11.339" d="M832.69 217.32C817.988 178.309 934.22 75.98 955.24 107.2c67.763 24.034 57.559 71.699 85.177 107.9 62.707 7.319-14.758-37.852-13.208-70.399 2.724-57.229 68.436-24.63 45.578 10.466l-14.465-8.748c-1.27-5.995 5.327-8.941-6.639-9.6-9.144 16.108 36.564 48.35 40.27 67.666 5.02 26.17 1.368 35.024-2.956 45.095-12.944 30.151-29.072 25.956-39.88 40.622l-11.55-17.239c8.717 19.833 19.321 41.4 42.954 63.482-30.759-6.152-44.593-30.863-61.583-53.128l-17.248-9.18c.347 4.852 11.425 19.968 16.484 29.466-14.776-2.821-27.775-8.59-37.783-19.87-11.96-45.228-8.005-94.994-35-122.55-.558 24.536 17.344 40.007 15.524 59.506-2.818 30.185 9.35 54.882 14.943 87.735-63.65-3.143-119.61-21.337-143.17-91.102z" transform="translate(-875 -55.031)scale(1.1051)"/><path fill-opacity=".973" stroke-width=".0011051" d="M220.707 179.051c2.186-3.905 4.193-7.82 9.341-11.756 5.724-1.719 11.647-3.339 15.145-7.056 1.62-8.973.516-9.244-.428-12.096-17.903-6.441-27.833 21.585-24.058 30.909z"/><path fill="url(#b)" stroke-width="11.339" d="M1016.6 282.46c9.051-6.337 15.918-7.886 24.877-7.215" transform="translate(-875 -55.031)scale(1.1051)"/></g></svg>