<svg xmlns="http://www.w3.org/2000/svg" xml:space="preserve" width="100mm" height="100mm"><defs><linearGradient id="a" x1="1429.8" x2="1277" y1="566.15" y2="571.7" gradientTransform="translate(-412.02 802.9)" gradientUnits="userSpaceOnUse"><stop offset="0" stop-color="#fff"/><stop offset="1" stop-color="#999999ff"/></linearGradient></defs><g stroke="#000" stroke-width="11.339"><path fill="url(#a)" d="M1016.8 1312.2c11.208-15.447 18.589-16.42 16.356-32.994l-38.012-26.659.941 5.794c-28.553-7.97-59.749-2.787-84.769-28.337 8.691 25.705 53.295 53.328 75.126 71.1-41.997-40.597-83.564-52.143-126.21-11.34-7.346 7.029-21.325 1.653-33.229 6.446l36.382 17.894c-36.029 30.56-32.987 77.739-41.912 124.37 11.115-9.048 23.323-8.083 32.22-29.369 17.438-41.722 30.45-80.602 74.442-92.673-58.38 32.442-64.43 79.342-58.553 127.7 15.07 20.122 8.997 43.108 8.497 65.031l20.869-26.395c8.74-41.42 15.33-81.499 32.95-103.58l5.8 5.597c-6.295-18.41-36.98 54.918-22.289 71.116 24.22 26.704 23.814 45.742 22.4 76.557 62.86-33.89 36.75-90.95 2.53-150.12l16.631 30.324c22.572 24.046 24.76 26.416 32.776 78.44 27.552-26.915 21.226-47.466 5.172-82.09l24.17 24.2c9.243-5.755 14.945-13.416 19.732-21.57l-32.653-12.791 36.665 6.021c6.22-7.428 2.721-8.03 9.85-17.145 1.844-1.67 9.16-8.638 10.153-11.303l-39.793-37.288c1.772-14.842.68-14.83-6.243-26.94z" transform="translate(-752.27 -1195.1)"/><path d="M255.93 143.2c-1.783-.198-6.348.336-9.98-1.762-2.19-1.266-5.765-5.777-6.182-7.353 9.202-.32 11.516-.539 16.162 9.115z"/><path fill="none" d="m264.41 111.1-24.239-21.188 6.202 17.363-46.938-6.09 4.945 5.204c-14.14-12.837-26.688-26.867-51.554-21.467-1.777 9.96.15 19.073 4.413 27.653-8.553 2.785-12.428 9.435-18.172 9.977 4.378-4.635 47.46-3.144 60.213 7.203-16.447 15.055-35.656 30.394-41.722 46.77l27.612-21.51c-1.752 8.523-1.91 18.685 2.303 25.83 0 0 11.758-15.014 11.59-17.624-2.306 1.411-7.703 16.901-7.703 16.901 20.406 8.276 44.44 23.544 50.85 33.07l2.962-17.296-11.81 4.025c-7.231-9.459-10.614-8.56-20.244-9.747"/><path fill="none" d="m199.7 105-36.194 6.958c1.53-3.297 1.108-15.222 4.956-10.136 9.249 9.248 5.169 6.091 6.806 7.491"/></g></svg>