<svg xmlns="http://www.w3.org/2000/svg" xml:space="preserve" width="100mm" height="100mm"><defs><linearGradient id="a" x1="2371.2" x2="2662.8" y1="180.78" y2="180.78" gradientTransform="translate(-2518.1 -23.591)scale(1.0755)" gradientUnits="userSpaceOnUse"><stop offset="0" stop-color="#fad028"/><stop offset="1" stop-color="#856a02"/></linearGradient></defs><path fill="url(#a)" stroke="#000" stroke-width="12.195" d="M188.98 297.47c-14.083.023-20.926-5.936-30.874-9.328-11.823 1.676-32.298 3.064-43.335 9.455-5.243 14.6-10.603 29.98-15.946 45.24 7.555-24.727-.376-48.333 36.671-74.434l-5.327-6.406-30.324 2.85c-11.652 16.03-16.303 33.684-19.824 45.105 4.737-21.034 6.124-57.687 41.527-70.945 0 0 3.151-6.445 1.48-6.05-26.657 6.304-61.483-25.722-54.777-54.877-48.16-47.018-13.004-75.876 6.973-90.594 0 0 3.375 67.425 4.675 63.413 1.301-4.012 22.818-45.944 22.818-45.944 35.264 65.386.416 62.502-13.957 71.7-1.2 32.174 13.802 22.79 33.355 37.334 7.96-25.782 22.193-41.003 39.402-51.212 0 0 .325-15.476-1.036-16.098-15.39-7.029-18.235-29.483-3.78-34.107 18.274-5.846 19.767 17.206 16.99 24.876l2.339 20.893 12.95.478 12.95-.478 2.339-20.893c-2.777-7.67-1.284-30.722 16.989-24.876 14.456 4.624 11.611 27.079-3.78 34.107-1.36.621-1.036 16.098-1.036 16.098 17.21 10.209 31.442 25.43 39.402 51.212 19.553-14.545 34.555-5.16 33.355-37.333-14.373-9.2-49.22-6.315-13.957-71.701 0 0 21.518 41.933 22.818 45.944s4.675-63.413 4.675-63.413c19.978 14.719 55.134 43.576 6.974 90.594 6.706 29.156-28.121 61.18-54.777 54.878-1.671-.396 1.48 6.05 1.48 6.05 35.403 13.257 36.79 49.91 41.526 70.944-3.52-11.42-8.171-29.076-19.824-45.105l-30.324-2.85-5.326 6.406c37.047 26.1 29.115 49.706 36.67 74.434-5.342-15.26-10.702-30.64-15.945-45.24-11.037-6.391-31.512-7.779-43.335-9.455-9.95 3.392-16.791 9.351-30.874 9.328z"/><path fill="#ea5858" fill-opacity=".992" d="M173.6 133.93a11.087 11.087 0 0 1-11.087 11.087 11.087 11.087 0 0 1-11.087-11.087 11.087 11.087 0 0 1 11.087-11.087A11.087 11.087 0 0 1 173.6 133.93M225.06 133.9a11.087 11.087 0 0 1-11.087 11.087 11.087 11.087 0 0 1-11.087-11.087 11.087 11.087 0 0 1 11.087-11.087A11.087 11.087 0 0 1 225.06 133.9"/></svg>