<svg xmlns="http://www.w3.org/2000/svg" xml:space="preserve" width="100mm" height="100mm"><defs><linearGradient id="a" x1="112.38" x2="258.8" y1="970.31" y2="970.31" gradientTransform="translate(3.114 -778.82)" gradientUnits="userSpaceOnUse"><stop offset="0" stop-color="#fad028"/><stop offset="1" stop-color="#856a02"/></linearGradient></defs><path fill="#000" fill-rule="evenodd" stroke="none" stroke-width=".001" d="M25.219 8.315c-.09.48-.136.9-.078 1.293a3.053 3.053 0 0 1 .002 0c-.058-.392-.014-.813.076-1.294m2.596 3.21c.542.201 1.122.294 1.71.362.589.068 1.186.111 1.76.217-.574-.106-1.171-.151-1.76-.22-.588-.067-1.168-.158-1.71-.359m5.095 1.165c.62.387 1.024.939 1.165 1.543-.14-.605-.543-1.155-1.163-1.544zm-2.572.851c.47.298.732.634.736.951-.004-.317-.264-.653-.734-.95zm.736.951a.65.65 0 0 1-.193.455h.002a.65.65 0 0 0 .191-.455m-.193.455c-.132.142-.333.272-.611.383-1.238.499-3.687.762-6.051 1.178 2.364-.416 4.813-.677 6.05-1.176.278-.111.48-.243.612-.385m-6.662 1.56c-1.182.209-2.343.454-3.32.788-.977.333-1.77.755-2.217 1.31.448-.556 1.24-.975 2.217-1.308s2.138-.581 3.32-.79m-5.537 2.099h-.002c-1.246 1.55-1.136 3.857-.135 5.494h.002c-1-1.637-1.111-3.945.135-5.494m2.394 7.347c1.008.305 2.135.4 3.256.59 1.46.24 2.921.44 4.375.729-1.453-.29-2.915-.491-4.375-.73-1.12-.191-2.248-.284-3.256-.589m7.631 1.319a.99.99 0 0 1 .787.855c.034.278-.015.48-.119.633.104-.153.155-.357.121-.635-.047-.384-.307-.74-.787-.853zm.668 1.488c-.104.153-.263.255-.449.33-.372.15-.854.191-1.22.305.366-.114.847-.153 1.22-.303a.95.95 0 0 0 .45-.332m2.043-11.332-5.385 1.441c-1.537.36-2.925.717-3.742 1.244.816-.528 2.204-.882 3.742-1.242zm-9.127 2.685h-.002c-.45.291-.681.742-.681 1.202 0-.46.233-.911.683-1.202m6.528 3.305c1.981.247 3.83 1.175 4.818 2.543-.989-1.369-2.836-2.296-4.818-2.543m5.566 4.897c-.026.875-.358 1.831-1.086 2.838h.002c.728-1.007 1.058-1.963 1.084-2.838m-8.617 2.123c-1.381 1.115-2.14 3.066-2.053 4.826-.088-1.76.672-3.711 2.053-4.826m5.201 2.25c-.48.12-.963.154-1.398.283-.436.129-.825.353-1.118.85.293-.497.682-.72 1.118-.848.435-.13.917-.165 1.398-.285M28.791 38.3c-.199 1.118-.744 2.19-1.521 2.967.777-.778 1.322-1.848 1.521-2.967m-5.478.174c.235 1.078.797 2.111 1.566 2.937.298.317.569.499.838.565-.269-.066-.538-.25-.836-.567-.77-.826-1.333-1.858-1.568-2.935m2.924 3.484v.002h.06v-.002h-.06m-.532.018c-.01.586-.27 1.225-.566 1.758.297-.534.558-1.172.568-1.758zm.586.008c.087.529.317 1.23.567 1.826h.002c-.25-.595-.482-1.297-.569-1.826" class="st0" clip-rule="evenodd" color="#000" style="-inkscape-stroke:none" transform="matrix(8.2766 0 0 -8.2766 -271.65 413.99)"/><path fill="url(#a)" stroke="#000" stroke-width="11.339" d="M181.78 337.31c-36.947-42.74 68.066-37.135 43.784-59.432-7.692-7.063-106.37-12.159-104.38-49.778 2.971-56.024 68.452-51.294 86.957-57.695 3.892-1.346 5.617-8.576 3.923-11.442-14.793-25.021-35.985-13.395-39.362-49.261-11.353-19.32-10.375-32.866 1.444-49.06 1.874-2.568 11.358-4.674 11.139-11.278 1.566 2.6 2.156 1.547 4.51-1.139-.34 1.831-3.035 6.599 6.338 10.284 22.318 8.776 17.173 31.724 10.696 50.23 1.999 14.184 33.878 21.391 42.34 38.985 32.454 67.487-101.7 45.02-92.984 79.422 8.541 33.701 124.57 22.98 95.183 63.741-17.797 24.682-73.177 12.296-69.588 46.422z"/></svg>