<svg xmlns="http://www.w3.org/2000/svg" xml:space="preserve" width="100mm" height="100mm"><defs><linearGradient id="a" x1="451.14" x2="700.97" y1="969.68" y2="969.68" gradientUnits="userSpaceOnUse"><stop offset="0" stop-color="#fad028"/><stop offset="1" stop-color="#856a02"/></linearGradient></defs><g stroke="#000" stroke-width="11.339"><path fill="url(#a)" d="M576.05 842.73c-32.866 1.166-87.34-7.105-101.19-25.102-.006 51.429 61.169 38.471 81.854 60.584 12.348 13.2-12.081 29.288-16.437 48.368-66.197 13.92-69.437 50.56-73.265 98.664-4.423 31.791-43.508 71.219-42.118 93.092 17.433-14.493 62.804-33.481 73.405-45.458 24.155 19.393 57.387 32.353 77.756 33.176 20.369-.822 53.601-13.783 77.756-33.176 10.601 11.977 55.973 30.966 73.405 45.458 1.39-21.874-37.695-61.302-42.118-93.092-3.828-48.104-7.069-84.744-73.265-98.664-4.356-19.08-28.785-35.167-16.437-48.368 20.685-22.113 81.86-9.155 81.854-60.584-13.855 17.997-68.329 26.268-101.19 25.102z" transform="translate(-356 -722.52)scale(.94193)"/><path fill="none" stroke-width="10.68054427" d="M104.943 257.464c37.452 10.843 49.792-12.726 85.028-11.006m81.65 11.006c-37.453 10.843-49.793-12.726-85.029-11.006"/><path fill="none" stroke-width="9.37157011" d="M135.35 202c-4.584 1.205-9.619 2.76-12.512 6.719-3.763 3.563.143 9.999 4.823 6.675 5.799-3.782 9.503-6.54 7.69-13.395zm105.543 0c4.584 1.205 9.62 2.76 12.512 6.719 3.764 3.563-.143 9.999-4.823 6.675-5.799-3.782-9.503-6.54-7.69-13.395z"/></g></svg>