<svg xmlns="http://www.w3.org/2000/svg" viewBox="0 0 13.229 13.229"><g style="line-height:125%;-inkscape-font-specification:'Noto Sans JP, Normal';font-variant-ligatures:normal;font-variant-caps:normal;font-variant-numeric:normal;font-variant-east-asian:normal"><g style="line-height:125%;-inkscape-font-specification:'Noto Sans JP, weight=250';font-variant-ligatures:normal;font-variant-caps:normal;font-variant-numeric:normal;font-variant-east-asian:normal" aria-label="玉"><path d="M9.434 7.116c.622-.99 1.626-1.968 2.59-2.641-.152-.077-.418-.28-.533-.369-.927.686-1.98 1.753-2.667 2.82zM3.782 5.338c.94-2.413 3.264-3.556 7.328-3.937a1.878 1.878 0 0 1-.317-.584C6.64 1.3 4.163 2.544 3.186 5.122zm.394 1.448c-.965-.775-2.07-1.892-2.54-2.667l-.508.368c.495.762 1.6 1.855 2.578 2.617zm2.146 1.473v1.93H2.233v.572h4.09v1.651h.622V8.26h2.692v3.06h.61V8.26h1.956v-.584h-5.27V4.411c0-.165.05-.203.24-.216.216-.012.877-.012 1.715.013a2.532 2.532 0 0 1-.216-.559c-1.003 0-1.613 0-1.918.102-.343.089-.432.28-.432.66v3.264H1.027v.584z" style="-inkscape-font-specification:'Noto Sans JP, weight=250';font-variant-ligatures:normal;font-variant-caps:normal;font-variant-numeric:normal;font-variant-east-asian:normal" aria-label="歩" font-weight="300" stroke-width=".2" font-size="12.7" font-family="Noto Sans JP" letter-spacing="0" word-spacing="0" stroke="#000" stroke-linecap="round" stroke-linejoin="round"/></g></g></svg>