<svg xmlns="http://www.w3.org/2000/svg" width="50mm" height="50mm" fill-rule="evenodd" clip-rule="evenodd" image-rendering="optimizeQuality" shape-rendering="geometricPrecision" text-rendering="geometricPrecision" viewBox="0 0 50 50"><linearGradient id="a" x1="21.13" x2="77.764" y1="37.224" y2="37.469" gradientUnits="userSpaceOnUse"><stop offset="0" stop-color="#fff"/><stop offset="1" stop-color="#fff" stop-opacity="0"/></linearGradient><path fill="#1f1a17" d="M25.821 12.022h-1.76v-3.25h-2.067q-.838.002-.838-.822v-.025q0-.813.838-.813h2.066V5.004c0-.585.297-.872.89-.872.575 0 .871.287.871.872v2.108h2.134q.813 0 .813.813v.025q0 .823-.813.821l-2.117.026zM11.03 37.744l-.813-4.64q-.025 0-.076-.101-.127-.178-.711-.457c-.381-.195-.838-.517-1.346-.982a42 42 0 0 1-1.702-1.49 8.5 8.5 0 0 1-1.1-1.237C4.273 27.45 3.705 25.772 3.595 23.8c-.17-1.897.601-3.794 2.303-5.682 1.719-1.88 4.047-2.768 6.968-2.65 1.092.068 2.38.33 3.844.796.483.195.974.39 1.482.576l1.498.584c.263.136.5.271.695.398a4.4 4.4 0 0 1-.127-1.041c0-1.287.457-2.388 1.38-3.302.914-.906 2.023-1.372 3.31-1.389 1.287 0 2.388.466 3.302 1.38.906.915 1.363 2.015 1.363 3.285q0 .394-.101 1.042c.228-.144.457-.271.669-.373.762-.33 1.76-.72 3.005-1.16 1.423-.482 2.701-.753 3.844-.821 2.921-.136 5.241.753 6.943 2.65 1.668 1.888 2.447 3.785 2.328 5.681-.127 1.973-.703 3.65-1.71 5.038-.33.449-.703.863-1.118 1.253a41 41 0 0 1-1.66 1.473c-.541.466-1.007.796-1.388.982-.38.186-.6.347-.669.457a.3.3 0 0 1-.05.077q-.026.026-.026.05l-.796 4.666 1.643 6.121c-.83.745-2.684 1.355-5.554 1.837-2.879.483-6.206.72-9.974.72-3.835 0-7.214-.254-10.118-.754-2.912-.508-4.741-1.143-5.486-1.896z"/><path fill="url(#a)" d="M24.95 20.675a2.3 2.3 0 0 0-.128-.423 6 6 0 0 0-.245-.72c-.051-.11-.119-.254-.195-.431a9 9 0 0 1-.254-.56q-.074-.177-.186-.456c-.068-.195-.136-.373-.187-.534a1.7 1.7 0 0 1-.067-.474c0-.872.415-1.312 1.261-1.312.88 0 1.313.431 1.313 1.287 0 .22-.034.372-.094.474-.237.626-.355.965-.372 1.016-.254.5-.406.821-.474.965-.119.27-.195.508-.22.72q-.076.15-.102.262c-.026.112-.034.136-.05.186m-2.778 8.56c-2.066.034-3.954.136-5.673.322-1.71.178-3.03.44-3.979.77a19 19 0 0 0-1.719-1.854 33 33 0 0 1-1.727-1.744c-.83-.847-1.236-1.77-1.236-2.777 0-1.245.203-2.15.618-2.726.44-.67 1.135-1.16 2.058-1.482a8.5 8.5 0 0 1 2.802-.483c1.194 0 2.328.263 3.42.796q1.614.841 2.134 1.338c1.126 1.143 2.007 2.38 2.633 3.717q.318.752.483 2.074c.11.89.17 1.567.186 2.05zm2.777-4.318c.119-.466.212-.787.296-.965.17-.643.356-1.194.576-1.643.093-.279.237-.6.432-.973.186-.373.39-.805.61-1.279.127-.28.27-.626.415-1.033q.23-.607.448-1.202.203-.495.203-1.067c0-.813-.296-1.498-.872-2.066q-.863-.863-2.108-.863c-1.964 0-2.955.99-2.955 2.955q0 .57.203 1.066.547 1.613.839 2.236c.22.474.415.906.6 1.278.179.373.34.694.466.974.22.55.398 1.092.55 1.642.035.093.128.415.297.94m-.889 6.223c0-.66-.017-1.575-.05-2.735-.034-1.168-.161-2.142-.373-2.92-.677-2.21-1.702-3.997-3.082-5.351-.711-.695-1.795-1.347-3.268-1.94q-2.53-.99-4.792-.99c-2.608 0-4.547.931-5.8 2.803-.711.99-1.067 2.235-1.067 3.716 0 1.626.398 2.955 1.186 3.997q.622.888 2.387 2.21c1.169.872 2.168 1.684 2.972 2.43 1.44-.314 3.065-.585 4.877-.822q2.718-.345 7.01-.398m13.784 11.735-.737-2.93c-3.225-.736-7.281-1.109-12.158-1.109-4.826 0-8.864.373-12.107 1.11l-.787 2.954c3.14-.956 7.442-1.439 12.92-1.439 2.624 0 5.071.136 7.315.398q3.38.393 5.554 1.016m-.643-7.417c-3.04-.838-7.096-1.261-12.15-1.261-5.097 0-9.195.431-12.302 1.287l.372 2.506c3.125-.813 7.095-1.22 11.93-1.22q7.216 0 11.752 1.194zm-11.363-4.292c2.845.05 5.182.194 7.002.423 1.812.229 3.455.508 4.91.821.907-.897 1.914-1.744 3.023-2.557s1.888-1.507 2.337-2.083c.788-1.075 1.186-2.413 1.186-4.021 0-1.465-.356-2.701-1.067-3.692-1.27-1.87-3.218-2.802-5.825-2.802-1.524 0-3.108.33-4.767.99-1.507.593-2.59 1.237-3.277 1.93q-2.108 2.046-3.073 5.36c-.246.762-.381 1.727-.407 2.904s-.042 2.083-.042 2.727m1.812-1.93c0-.483.06-1.16.16-2.05.111-.88.28-1.575.509-2.074.618-1.338 1.49-2.574 2.633-3.717.33-.33 1.042-.779 2.134-1.338a7.66 7.66 0 0 1 3.446-.796c.93 0 1.845.161 2.768.483.915.322 1.609.813 2.066 1.482.415.559.627 1.464.627 2.726q0 1.483-1.22 2.777a40 40 0 0 1-1.71 1.651c-.61.55-1.202 1.202-1.76 1.947-.958-.33-2.295-.592-4.006-.77-1.71-.186-3.59-.288-5.647-.322z"/></svg>