<svg xmlns="http://www.w3.org/2000/svg" width="50mm" height="50mm" fill-rule="evenodd" clip-rule="evenodd" image-rendering="optimizeQuality" shape-rendering="geometricPrecision" text-rendering="geometricPrecision" viewBox="0 0 50 50"><path fill="#1f1a17" d="M25 46.448H11.606a13.1 13.1 0 0 1-.99-5.043c0-2.975.863-5.644 2.598-8.018q2.606-3.547 6.697-5.067a6.8 6.8 0 0 1-2.861-2.398c-.737-1.071-1.1-2.283-1.1-3.634 0-1.69.575-3.156 1.735-4.392q1.727-1.866 4.267-2.15c-1.346-.981-2.015-2.283-2.015-3.89 0-1.351.491-2.513 1.482-3.477.982-.964 2.176-1.442 3.581-1.442 1.389 0 2.582.478 3.573 1.442s1.49 2.126 1.49 3.477c0 1.607-.669 2.909-2.015 3.89q2.54.284 4.267 2.15c1.16 1.236 1.736 2.703 1.736 4.392q.002 2.027-1.126 3.634a7.04 7.04 0 0 1-2.862 2.398c2.726 1.013 4.962 2.702 6.697 5.067 1.736 2.374 2.6 5.043 2.6 8.018q0 2.608-.966 5.043z"/></svg>