<svg xmlns="http://www.w3.org/2000/svg" width="50mm" height="50mm" fill-rule="evenodd" clip-rule="evenodd" image-rendering="optimizeQuality" shape-rendering="geometricPrecision" text-rendering="geometricPrecision" viewBox="0 0 50 50"><linearGradient id="a" x1="21.13" x2="77.641" y1="37.592" y2="37.469" gradientUnits="userSpaceOnUse"><stop offset="0" stop-color="#fff"/><stop offset="1" stop-color="#fff" stop-opacity="0"/></linearGradient><path fill="#1f1a17" d="M25.447 42.008c-.228.94-.516 1.592-.846 1.956s-.762.745-1.313 1.143c-.592.415-1.295.762-2.108 1.05s-1.71.364-2.7.211l-6.969-.965a3 3 0 0 0-.762 0q-.33.051-.635.051c-.347 0-.787.076-1.32.237-.542.152-.957.381-1.254.677l-2.404-3.945q.445-.493.787-.694c.237-.127.508-.271.821-.415a9.2 9.2 0 0 1 3.074-.822c.466-.033.923-.042 1.363-.025a10 10 0 0 0 1.397-.05q1.336.228 2.684.406c.906.127 1.812.254 2.718.39.99 0 1.66-.102 2.006-.297.187-.102.474-.288.872-.55q.597-.394 1.194-1.169c-.88-.093-1.77-.262-2.684-.508a24 24 0 0 1-2.404-.753l2.582-6.401c-1.295-.745-2.193-1.338-2.71-1.795a5.3 5.3 0 0 1-1.21-1.575q-.65-1.143-.83-2.21a9.3 9.3 0 0 1-.16-1.913c.016-.99.245-2.083.702-3.285.457-1.194 1.312-2.27 2.566-3.21a79 79 0 0 0 3.056-2.455 28 28 0 0 0 2.946-2.954q-1.828-.94-1.828-2.998c0-.93.321-1.718.973-2.387.652-.66 1.457-.99 2.396-.99.923 0 1.72.33 2.38.99.66.669.99 1.456.99 2.387q0 2.032-1.829 2.998a27 27 0 0 0 2.913 2.954c.982.839 2.015 1.66 3.09 2.456 1.236.94 2.083 2.015 2.523 3.209.449 1.202.694 2.294.72 3.285 0 .567-.05 1.202-.17 1.913s-.38 1.448-.795 2.21a6.1 6.1 0 0 1-1.253 1.575c-.5.457-1.389 1.05-2.667 1.795l2.582 6.4a29 29 0 0 1-2.455.754c-.915.246-1.787.415-2.634.508q.572.775 1.169 1.168c.398.263.694.45.897.55q.52.295 2.007.297a263 263 0 0 1 2.692-.39 81 81 0 0 0 2.718-.406q.661.076 1.346.051a13 13 0 0 1 1.406.025 9.6 9.6 0 0 1 3.073.822c.297.144.567.288.805.415.245.135.508.364.804.694l-2.43 3.945c-.296-.296-.711-.525-1.253-.677q-.8-.238-1.296-.237-.33 0-.66-.05a2.8 2.8 0 0 0-.753 0l-6.952.964c-.99.153-1.913.085-2.76-.194-.855-.28-1.558-.652-2.1-1.118a20 20 0 0 1-1.303-1.151c-.322-.322-.593-.957-.805-1.897"/><path fill="url(#a)" d="M26.32 39.197c0 1.092.245 2.024.753 2.794.5.77 1.041 1.372 1.626 1.795q1.358 1.002 3.987 1c.432 0 1.279-.094 2.532-.28a75 75 0 0 1 2.48-.356c.627-.076 1.05-.135 1.27-.186a6.5 6.5 0 0 1 1.982.05c.262.068.559.128.88.187a1.6 1.6 0 0 1 .805.38l1.194-1.93a7.4 7.4 0 0 0-2.16-.72c-1.252-.22-2.353-.262-3.301-.151-.28.033-.644.118-1.101.245-.457.136-1.067.263-1.846.372-1.676.272-2.557.399-2.658.399-.644 0-1.203-.077-1.685-.246a10 10 0 0 1-1.287-.542c-.88-.398-1.77-1.338-2.684-2.81zm-1.762 0h-.795c-.932 1.49-1.812 2.43-2.659 2.811-.398.195-.83.373-1.312.542s-1.033.246-1.66.246c-.118 0-.999-.127-2.658-.398-.788-.11-1.423-.238-1.88-.373a9 9 0 0 0-1.092-.245c-.948-.11-2.04-.068-3.302.152a7 7 0 0 0-2.134.72l1.194 1.93q.294-.292.779-.381c.322-.06.618-.119.88-.186a6.5 6.5 0 0 1 1.982-.051q.33.073 1.27.186c.626.076 1.465.195 2.506.356 1.236.186 2.083.28 2.531.28q2.604.002 3.988-1c.567-.423 1.1-1.024 1.6-1.795q.762-1.156.762-2.794m.89-9.347c1.6 0 3.14.127 4.614.372 1.617-.575 2.794-1.481 3.522-2.7a6.75 6.75 0 0 0 .94-3.497c0-.762-.187-1.6-.568-2.523q-.569-1.372-1.862-2.49-1.46-1.218-3.2-2.666a33 33 0 0 1-3.447-3.387c-1.16 1.287-2.311 2.421-3.47 3.387a407 407 0 0 0-3.176 2.667c-.88.745-1.499 1.574-1.871 2.489-.373.923-.559 1.76-.559 2.523q0 1.907.914 3.497c.712 1.219 1.897 2.125 3.548 2.7a28 28 0 0 1 4.614-.372zm0 4.513c1.938 0 3.793.194 5.579.575l-1.185-3.056a28 28 0 0 0-4.395-.347c-1.507 0-2.98.118-4.41.347l-1.194 3.056c1.769-.38 3.64-.575 5.604-.575zm0-23.538c1.126 0 1.684-.559 1.684-1.685s-.559-1.693-1.685-1.693-1.684.567-1.684 1.693.558 1.685 1.684 1.685zm0 27.009a19 19 0 0 0 3.285-.28c1.066-.194 2.1-.423 3.09-.685-1.94-.508-4.064-.77-6.376-.77-2.345 0-4.47.262-6.375.77q1.436.392 3.048.686a19.5 19.5 0 0 0 3.327.279zm-.89-14.334-2.065-.026c-.56 0-.839-.279-.839-.846q0-.838.839-.838h2.065v-2.134c0-.576.297-.872.89-.872.575 0 .872.296.872.872v2.134h2.133q.813 0 .813.838c0 .567-.271.846-.813.846H26.32v2.032c0 .602-.297.898-.873.898-.592 0-.889-.296-.889-.898z"/></svg>