<svg clip-rule="evenodd" fill-rule="evenodd" height="50mm" image-rendering="optimizeQuality" shape-rendering="geometricPrecision" text-rendering="geometricPrecision" viewBox="0 0 50 50" width="50mm" xmlns="http://www.w3.org/2000/svg"><linearGradient id="a" gradientUnits="userSpaceOnUse" x1="21.376" x2="77.641" y1="37.346" y2="37.346"><stop offset="0" stop-color="#fff"/><stop offset="1" stop-color="#fff" stop-opacity="0"/></linearGradient><path d="M25.821 12.022h-1.76v-3.25h-2.067c-.558 0-.838-.272-.838-.822v-.025c0-.542.28-.813.838-.813h2.066V5.004c0-.585.297-.872.89-.872.575 0 .871.287.871.872v2.108h2.134c.542 0 .813.27.813.813v.025c0 .55-.271.821-.813.821l-2.117.026zM11.03 37.744l-.813-4.64c-.017 0-.042-.033-.076-.101-.085-.119-.322-.271-.711-.457-.381-.195-.838-.517-1.346-.982a41.99 41.99 0 0 1-1.702-1.49 8.509 8.509 0 0 1-1.1-1.237C4.273 27.45 3.705 25.772 3.595 23.8c-.17-1.897.601-3.794 2.303-5.682 1.719-1.88 4.047-2.768 6.968-2.65 1.092.068 2.38.33 3.844.796.483.195.974.39 1.482.576l1.498.584c.263.136.5.271.695.398a4.38 4.38 0 0 1-.127-1.041c0-1.287.457-2.388 1.38-3.302.914-.906 2.023-1.372 3.31-1.389 1.287 0 2.388.466 3.302 1.38.906.915 1.363 2.015 1.363 3.285 0 .263-.034.61-.101 1.042.228-.144.457-.271.669-.373.762-.33 1.76-.72 3.005-1.16 1.423-.482 2.701-.753 3.844-.821 2.921-.136 5.241.753 6.943 2.65 1.668 1.888 2.447 3.785 2.328 5.681-.127 1.973-.703 3.65-1.71 5.038-.33.449-.703.863-1.118 1.253a40.5 40.5 0 0 1-1.66 1.473c-.541.466-1.007.796-1.388.982-.38.186-.6.347-.669.457a.294.294 0 0 1-.05.077c-.017.017-.026.034-.026.05l-.796 4.666 1.643 6.121c-.83.745-2.684 1.355-5.554 1.837-2.879.483-6.206.72-9.974.72-3.835 0-7.214-.254-10.118-.754-2.912-.508-4.741-1.143-5.486-1.896z" fill="#1f1a17"/><path d="M25.796 29.532c2.845.033 5.444.203 7.806.508 2.37.304 4.225.694 5.563 1.151a126.32 126.32 0 0 0 2.057-1.651 12.018 12.018 0 0 0 1.863-1.846c.787-1.007 1.185-2.337 1.185-3.996 0-1.482-.356-2.726-1.067-3.717-1.27-1.854-3.209-2.777-5.8-2.777-1.557 0-3.149.322-4.792.965-1.439.584-2.531 1.228-3.268 1.94-1.388 1.388-2.421 3.174-3.082 5.35-.228.779-.364 1.49-.406 2.125-.042.635-.06 1.287-.06 1.947zm-13.25 6.697c3.14-.796 7.306-1.194 12.505-1.194 5.088 0 9.203.38 12.327 1.143l.618-3.65c-3.327-.871-7.67-1.312-13.047-1.312-5.41 0-9.745.45-13.022 1.338zm25.298 4.41l-.737-2.844c-3.276-.728-7.332-1.092-12.158-1.092-4.809 0-8.856.364-12.133 1.092l-.787 2.87c3.158-.923 7.468-1.388 12.946-1.388 5.444 0 9.728.457 12.869 1.363zm.652 2.338c-3.192-1.287-7.68-1.94-13.445-1.94-5.986 0-10.516.661-13.598 1.99 2.913 1.152 7.417 1.736 13.522 1.736 2.912 0 5.562-.16 7.958-.483 2.405-.321 4.25-.762 5.563-1.303zM24.077 29.532c-.008-.644-.034-1.287-.068-1.922s-.16-1.347-.372-2.126c-.677-2.21-1.702-3.996-3.082-5.35-.711-.695-1.795-1.347-3.268-1.94-1.685-.66-3.285-.99-4.792-.99-2.608 0-4.547.931-5.8 2.803-.711.99-1.067 2.235-1.067 3.716 0 1.626.398 2.955 1.186 3.997.482.61 1.092 1.227 1.837 1.837.745.61 1.44 1.168 2.083 1.66 2.895-1.042 7.34-1.6 13.343-1.685zm.872-4.615c.119-.465.212-.787.296-.965.17-.643.356-1.194.576-1.643.093-.279.237-.6.432-.973.186-.373.39-.805.61-1.279.127-.28.27-.626.415-1.033.152-.406.304-.804.448-1.202.136-.33.203-.686.203-1.067 0-.813-.296-1.498-.872-2.066-.575-.575-1.278-.863-2.108-.863-1.964 0-2.955.99-2.955 2.955 0 .38.068.736.203 1.067.365 1.075.644 1.82.839 2.235.22.474.415.906.6 1.278.179.373.34.694.466.974.22.55.398 1.092.55 1.642.035.094.128.415.297.94z" fill="url(#a)"/></svg>