<svg xmlns="http://www.w3.org/2000/svg" width="177.17" height="177.17" shape-rendering="geometricPrecision" image-rendering="optimizeQuality" fill-rule="evenodd" clip-rule="evenodd" viewBox="0 0 50 50"><defs><linearGradient id="0" x1="21.405" x2="77.64" gradientUnits="userSpaceOnUse"><stop stop-color="#fff"/><stop offset="1" stop-color="#fff" stop-opacity="0"/></linearGradient></defs><path fill="#1f1a17" d="m26.18 9.395c2.599.169 5 .838 7.222 2.02 2.21 1.168 4.098 2.675 5.656 4.513 1.092 1.287 2.117 2.845 3.082 4.665.974 1.812 1.744 3.742 2.32 5.774.66 2.371 1.084 4.851 1.253 7.459.178 2.599.263 5.01.263 7.23v5.402c0 0-1.287 0-3.861 0-2.565 0-5.901 0-10.01 0h-16.637c-.152 0-.22-.406-.212-1.211.008-.813.059-1.465.161-1.964.059-.398.22-.957.466-1.685.254-.728.66-1.609 1.245-2.65.262-.533.889-1.304 1.88-2.32.999-1.016 2.134-2.201 3.429-3.539.745-.762 1.321-1.719 1.744-2.879.423-1.151.601-2.201.533-3.15-.61.5-1.279.906-2.01 1.219-3.505 1.253-6.05 3.073-7.611 5.452-.119.152-.491.821-1.118 2.02-.33.627-.618 1.058-.847 1.287-.313.313-.771.491-1.363.525-.923.042-1.643-.398-2.159-1.346-.694.203-1.312.288-1.863.254-.923-.347-1.592-.72-2.01-1.118-.847-.847-1.389-1.685-1.651-2.532-.254-.847-.381-1.753-.381-2.726 0-1.389.855-3.226 2.582-5.512 2.02-2.625 3.09-4.631 3.217-6 0-.593.059-1.262.178-2.01.102-.517.305-1.01.618-1.49.22-.33.364-.559.432-.677.076-.127.212-.313.415-.559.144-.203.271-.356.373-.457.093-.11.22-.254.373-.44.178-.212.406-.457.694-.745-.88-2.413-1.236-4.902-1.067-7.459 3.285 1.168 6.05 3.01 8.28 5.529.55-1.871 1.626-3.387 3.226-4.538 1.321.923 2.371 2.151 3.15 3.666"/><path fill="url(#0)" d="m42.976 44.693c-.017 0 0-.449.042-1.346.051-.906.076-1.88.076-2.921.017-2.066.017-4.2 0-6.409-.017-2.21-.313-4.411-.889-6.613-.567-2.117-1.185-3.92-1.863-5.419-.677-1.499-1.414-2.786-2.21-3.878-1.185-1.786-2.811-3.302-4.86-4.538-2.049-1.245-4.191-2.057-6.426-2.438.152.813.22 1.609.203 2.388-.034.593-.313.889-.847.889-.61 0-.881-.296-.821-.889.051-2.184-.728-4.056-2.328-5.605-1.253 1.321-1.939 2.853-2.032 4.606-.034.584-.33.838-.897.771-.525-.017-.787-.322-.787-.914 0 0 .017-.068.042-.203-.677.22-1.389.525-2.134.923-.474.33-.864.245-1.16-.246-.296-.499-.169-.889.398-1.168.711-.364 1.245-.635 1.609-.821-1.422-1.456-3.04-2.625-4.86-3.522.195 2.303.83 4.47 1.888 6.528.279.423.212.804-.203 1.135-.466.364-.855.313-1.168-.169-.11-.169-.279-.466-.491-.897-.347.347-.584.61-.694.77-.118.152-.322.483-.61.991-.288.516-.499.94-.635 1.27-.144.415-.212.745-.186 1.01.025.254.051.533.068.855-.152.974-.491 1.888-1.01 2.752-.525.855-1.185 1.905-1.998 3.15-.779 1.185-1.372 2.083-1.786 2.675-.415.601-.728 1.355-.94 2.286-.152.559-.152 1.245 0 2.041.144.804.474 1.431.965 1.88.762.77 1.499 1.126 2.21 1.067.229 0 .542-.093.931-.279.389-.178.686-.525.906-1.041.423-.94.779-1.414 1.067-1.414.406 0 .635.237.669.694 0 .102-.136.517-.398 1.245-.152.33-.347.677-.593 1.041-.322.432-.457.61-.423.542.262.948.703 1.109 1.312.499.178-.178.389-.525.618-1.016.237-.499.601-1.168 1.092-2.01.584-.982 1.202-1.77 1.863-2.388.66-.61 1.245-1.109 1.761-1.482.296-.22.66-.466 1.092-.745.432-.288 1.01-.576 1.736-.872.576-.229 1.219-.516 1.922-.855.703-.339 1.329-.77 1.871-1.304.762-.745 1.346-1.659 1.761-2.752.22-.61.296-1.363.245-2.261-.144-.559.136-.838.847-.838.533 0 .83.271.898.821 0 1.863-.533 3.564-1.592 5.105.347 1.058.44 2.218.271 3.471-.144 1.01-.5 2.091-1.05 3.243-.559 1.143-1.676 2.422-3.361 3.827-3.429 2.845-5.05 5.774-4.86 8.78 0 0 1.405 0 4.225 0 2.819 0 5.47 0 7.95 0h13.572m-33.638-15.08c-.483.296-.77.694-.872 1.194.017.542-.237.838-.762.889-.584.068-.881-.178-.898-.745.068-1.092.55-1.956 1.465-2.599.432-.347.83-.322 1.194.093.364.449.322.838-.127 1.168m7.366-11.828c.212.33.296.677.246 1.041-.161 1.058-.754 1.499-1.761 1.338-.296-.051-.533-.152-.72-.296-.059.076-.161.262-.296.542-.178.533-.525.711-1.041.55-.508-.203-.711-.576-.593-1.118.745-1.905 2.091-3.209 4.04-3.92.567-.169.94 0 1.118.491.203.533.051.898-.449 1.092-.093.051-.186.102-.271.136-.085.042-.169.093-.271.144"/></svg>