<svg clip-rule="evenodd" fill-rule="evenodd" height="50mm" image-rendering="optimizeQuality" shape-rendering="geometricPrecision" text-rendering="geometricPrecision" viewBox="0 0 50 50" width="50mm" xmlns="http://www.w3.org/2000/svg"><linearGradient id="a" gradientUnits="userSpaceOnUse" x1="21.405" x2="77.641" y1="37.346" y2="37.346"><stop offset="0" stop-color="#fff"/><stop offset="1" stop-color="#fff" stop-opacity="0"/></linearGradient><path d="M26.178 9.395c2.6.17 5.004.838 7.222 2.015 2.21 1.169 4.098 2.676 5.656 4.513 1.092 1.287 2.117 2.845 3.082 4.665a28.684 28.684 0 0 1 2.32 5.774 36.511 36.511 0 0 1 1.253 7.46c.177 2.599.262 5.012.262 7.23v5.402H15.468c-.153 0-.22-.407-.212-1.21.009-.814.06-1.466.16-1.965.06-.398.221-.957.467-1.685.254-.728.66-1.609 1.244-2.65.263-.534.89-1.304 1.88-2.32.999-1.016 2.133-2.201 3.429-3.539.745-.762 1.32-1.719 1.744-2.879.423-1.151.601-2.201.533-3.15a8.37 8.37 0 0 1-2.006 1.22c-3.505 1.253-6.045 3.073-7.612 5.452-.118.153-.49.822-1.117 2.015-.33.627-.618 1.059-.847 1.287-.313.314-.77.491-1.363.525-.923.043-1.643-.398-2.16-1.346-.693.203-1.312.288-1.862.254-.923-.347-1.592-.72-2.006-1.117-.847-.847-1.389-1.685-1.651-2.532a9.43 9.43 0 0 1-.381-2.726c0-1.389.855-3.226 2.582-5.512 2.015-2.625 3.09-4.631 3.217-6.003 0-.593.06-1.261.178-2.007a4.198 4.198 0 0 1 .618-1.49c.22-.33.364-.558.432-.677.076-.127.212-.313.415-.559.144-.203.27-.355.372-.457.093-.11.22-.254.373-.44.178-.212.406-.457.694-.745a18.06 18.06 0 0 1-1.067-7.46c3.285 1.169 6.054 3.015 8.28 5.53.551-1.872 1.626-3.387 3.226-4.539 1.321.923 2.371 2.15 3.15 3.666z" fill="#1f1a17"/><path d="M42.976 44.693c-.017 0 0-.449.042-1.346.051-.906.076-1.88.076-2.921.017-2.066.017-4.2 0-6.41a26.837 26.837 0 0 0-.889-6.612c-.567-2.117-1.185-3.92-1.862-5.419-.678-1.498-1.414-2.785-2.21-3.878-1.185-1.786-2.811-3.302-4.86-4.538-2.049-1.244-4.19-2.057-6.426-2.438.152.813.22 1.609.203 2.387-.034.593-.313.89-.847.89-.61 0-.88-.297-.82-.89.05-2.184-.729-4.055-2.33-5.604-1.252 1.32-1.938 2.853-2.031 4.605-.034.585-.33.839-.898.77-.525-.016-.787-.32-.787-.914 0 0 .017-.067.042-.203-.677.22-1.388.525-2.133.923-.474.33-.864.246-1.16-.245-.297-.5-.17-.89.398-1.169.71-.364 1.244-.635 1.608-.821a17.634 17.634 0 0 0-4.86-3.522 17.31 17.31 0 0 0 1.889 6.528c.279.423.211.804-.204 1.134-.465.364-.855.313-1.168-.17a8.87 8.87 0 0 1-.491-.897c-.347.347-.584.61-.694.77-.119.153-.322.483-.61.991-.288.517-.5.94-.635 1.27-.144.415-.212.745-.186 1.008.025.254.05.533.067.855a7.61 7.61 0 0 1-1.007 2.752 133.71 133.71 0 0 1-1.998 3.15 127.607 127.607 0 0 1-1.787 2.675c-.415.601-.728 1.354-.94 2.286-.152.559-.152 1.244 0 2.04.144.805.475 1.431.966 1.88.762.77 1.498 1.126 2.21 1.067.228 0 .541-.093.93-.28.39-.178.687-.525.907-1.041.423-.94.779-1.414 1.067-1.414.406 0 .635.237.668.694 0 .102-.135.517-.397 1.245-.153.33-.348.677-.593 1.041-.322.432-.457.61-.423.542.262.948.702 1.11 1.312.5.178-.178.39-.525.618-1.016.237-.5.601-1.169 1.092-2.007.584-.982 1.202-1.77 1.863-2.388.66-.61 1.244-1.109 1.76-1.481.297-.22.661-.466 1.093-.745.432-.288 1.008-.576 1.736-.872.576-.229 1.219-.517 1.922-.856s1.329-.77 1.87-1.303c.763-.745 1.347-1.66 1.762-2.752.22-.61.296-1.363.245-2.26-.144-.56.136-.839.847-.839.533 0 .83.271.898.821 0 1.863-.534 3.565-1.592 5.106.347 1.058.44 2.218.27 3.471-.143 1.008-.499 2.091-1.05 3.243-.558 1.143-1.676 2.421-3.36 3.827-3.43 2.845-5.046 5.774-4.86 8.78h12.175zM9.338 29.613c-.483.297-.77.695-.872 1.194.017.542-.237.839-.762.89-.584.067-.88-.178-.898-.746.068-1.092.55-1.955 1.465-2.599.432-.347.83-.322 1.194.093.364.449.322.838-.127 1.169zm7.366-11.827c.212.33.296.677.245 1.041-.16 1.058-.753 1.499-1.76 1.338a1.596 1.596 0 0 1-.72-.296c-.06.076-.161.262-.297.541-.178.534-.525.712-1.041.55-.508-.202-.711-.575-.593-1.117.745-1.905 2.091-3.209 4.039-3.92.567-.17.94 0 1.117.491.204.534.051.898-.448 1.092a2.745 2.745 0 0 1-.271.136c-.085.042-.17.093-.271.144z" fill="url(#a)"/></svg>