<svg width="50mm" height="50mm" clip-rule="evenodd" fill-rule="evenodd" image-rendering="optimizeQuality" shape-rendering="geometricPrecision" text-rendering="geometricPrecision" version="1.1" viewBox="0 0 50 50" xmlns="http://www.w3.org/2000/svg" xmlns:xlink="http://www.w3.org/1999/xlink">
 <defs>
  <linearGradient id="linearGradient5159" x1="-657.83" x2="-639.01" y1="113.63" y2="113.63" gradientTransform="matrix(1.2079,0,0,1.0576,808.26,-95.246)" gradientUnits="userSpaceOnUse" xlink:href="#linearGradient3935"/>
  <linearGradient id="linearGradient5161" x1="-49.253" x2="-22.402" y1="508.57" y2="508.57" gradientTransform="translate(60.827,-468.14)" gradientUnits="userSpaceOnUse" xlink:href="#linearGradient3935"/>
  <linearGradient id="linearGradient3935">
   <stop stop-color="#f2e7da" style="stop-color:#fbf6dc" offset="0"/>
   <stop stop-color="#bba38a" style="stop-color:#aa9445" offset="1"/>
  </linearGradient>
 </defs>
 <ellipse cx="24.704" cy="9.2521" rx="2.5133" ry="2.5242" style="fill:#b82f14;paint-order:normal;stroke-linecap:round;stroke-linejoin:round;stroke-width:1.2;stroke:#323232"/>
 <path d="m24.704 6.7281a2.5133 2.5242 0 0 0-0.87999 0.16116 2.5133 2.5242 0 0 1 1.6377 2.3627 2.5133 2.5242 0 0 1-1.6337 2.3627 2.5133 2.5242 0 0 0 0.87598 0.1618 2.5133 2.5242 0 0 0 2.5131-2.5245 2.5133 2.5242 0 0 0-2.5131-2.5239z" style="fill:#000000;opacity:.2;paint-order:normal"/>
 <path d="m18.771 38.045s-13.46-25.8 6.2297-26.216c19.69 0.41613 6.2298 26.216 6.2298 26.216z" style="fill:url(#linearGradient5159);stroke-linejoin:round;stroke-width:1.2;stroke:#323232"/>
 <path d="m24.704 11.829c-0.57733 0.01216-1.1228 0.04823-1.6425 0.1028 16.223-0.58529 9.8268 22.905 0.90913 26.113l7.2596-8.57e-4c8.9615-17.768 5.6701-25.493-6.5263-26.215z" style="fill:#000000;opacity:.15"/>
 <path d="m25 36.457s-8.5779 0.0481-10.983 1.6192c-1.6227 1.0602-2.0055 3.6514-1.7848 6.3237h25.536c0.22073-2.6723-0.16211-5.2636-1.7848-6.3237-2.4047-1.5711-10.983-1.6192-10.983-1.6192z" style="clip-rule:evenodd;fill-rule:evenodd;fill:url(#linearGradient5161);image-rendering:optimizeQuality;shape-rendering:geometricPrecision;stroke-linejoin:round;stroke-width:1.2;stroke:#323232"/>
 <path d="m25 36.457s-8.5782 0.0479-10.983 1.619c-1.6227 1.0602-2.0054 2.593-1.7846 5.2653h0.084c0.22762-1.3799 0.75027-2.5278 1.7006-3.1486 2.4051-1.5711 10.983-1.619 10.983-1.619s8.5785 0.0479 10.983 1.619c0.95033 0.62083 1.4729 1.7688 1.7006 3.1486h0.08399c0.22072-2.6723-0.16186-4.2052-1.7846-5.2653-2.4047-1.5711-10.983-1.619-10.983-1.619z" style="clip-rule:evenodd;fill-rule:evenodd;fill:#000000;image-rendering:optimizeQuality;opacity:.15;shape-rendering:geometricPrecision"/>
 <path d="m17.743 34.208s-4.6997-15.724 2.723-21.015c-5.4885 1.5267-7.7627 8.6119-2.723 21.015z" style="fill:#ffffff"/>
 <path d="m24.555 7.3139c-0.46811-0.0956-2.7646 1.1026-1.0852 3.4284-0.41661-1.4941-0.11258-2.6851 1.0852-3.4284z" style="clip-rule:evenodd;fill-rule:evenodd;fill:#ffffff;image-rendering:optimizeQuality;opacity:.25;shape-rendering:geometricPrecision"/>
</svg>
