<svg width="50mm" height="50mm" clip-rule="evenodd" fill-rule="evenodd" image-rendering="optimizeQuality" shape-rendering="geometricPrecision" text-rendering="geometricPrecision" version="1.1" viewBox="0 0 50 50" xmlns="http://www.w3.org/2000/svg" xmlns:xlink="http://www.w3.org/1999/xlink">
 <defs>
  <linearGradient id="linearGradient5167" x1="-497.73" x2="-408.14" y1="2174.5" y2="2174.5" gradientTransform="matrix(.26458 0 0 .26458 144.84 -551.98)" gradientUnits="userSpaceOnUse" xlink:href="#linearGradient3935"/>
  <linearGradient id="linearGradient5169" x1="-134.61" x2="-107.76" y1="598.91" y2="598.91" gradientTransform="translate(146.19,-558.49)" gradientUnits="userSpaceOnUse" xlink:href="#linearGradient3935"/>
  <linearGradient id="linearGradient3935">
   <stop stop-color="#f2e7da" style="stop-color:#fbf6dc" offset="0"/>
   <stop stop-color="#bba38a" style="stop-color:#aa9445" offset="1"/>
  </linearGradient>
 </defs>
 <path d="m14.371 8.6743c-1.0323 3.1689-1.1441 10.538 2.5895 10.565v2.7957h2.6737l-3.3812 16.01h17.494l-3.3812-16.01h2.6737v-2.7957c3.7336-0.02699 3.6218-7.3958 2.5895-10.565h-4.0664v2.7352h-3.8706v-2.7352h-5.3837v2.7352h-3.8706v-2.7352z" style="fill:url(#linearGradient5167);stroke-width:1.2;stroke:#323232"/>
 <path d="m16.961 19.239h16.079" style="fill:none;stroke-width:1.2;stroke:#323232"/>
 <path d="m19.634 22.035 11.261-3.97e-4" style="fill:none;stroke-width:1.2;stroke:#323232"/>
 <path d="m33.217 8.6739c0.91113 3.2222 0.57124 7.1348 0 9.921l-16.256 1e-5c4.3301 0.95181 11.559-0.0206 12.303 3.4402l-12.303 2e-5c16.079-2e-5 10.825 6.8012 12.059 16.01l4.7268-5.3e-4 -2.8516-16.01h2.1443v-3.4403h1.7464c2.6224-3.1495 1.1695-8.2321 0.76659-9.921z" style="fill:#070705;opacity:.15"/>
 <path d="m25 36.457s-8.5779 0.0481-10.983 1.6192c-1.6227 1.0602-2.0055 3.6514-1.7848 6.3237h25.536c0.22073-2.6723-0.16211-5.2636-1.7848-6.3237-2.4047-1.5711-10.983-1.6192-10.983-1.6192z" style="clip-rule:evenodd;fill-rule:evenodd;fill:url(#linearGradient5169);image-rendering:optimizeQuality;shape-rendering:geometricPrecision;stroke-linejoin:round;stroke-width:1.2;stroke:#323232"/>
 <path d="m25 36.457s-8.5782 0.0479-10.983 1.619c-1.6227 1.0602-2.0054 2.593-1.7846 5.2653h0.084c0.22762-1.3799 0.75027-2.5278 1.7006-3.1486 2.4051-1.5711 10.983-1.619 10.983-1.619s8.5785 0.0479 10.983 1.619c0.95033 0.62083 1.4729 1.7688 1.7006 3.1486h0.084c0.22072-2.6723-0.16185-4.2052-1.7846-5.2653-2.4047-1.5711-10.983-1.619-10.983-1.619z" style="clip-rule:evenodd;fill-rule:evenodd;fill:#000000;image-rendering:optimizeQuality;opacity:.15;shape-rendering:geometricPrecision"/>
 <path d="m14.821 9.2702s-0.7839 3.4082-0.37464 5.5597c-0.12277-2.7336 2.1281-5.5597 2.1281-5.5597z" style="fill:#ffffff"/>
 <path d="m22.899 9.2454v2.7533l1.1824-2.7368z" style="fill:#ffffff"/>
 <path d="m32.168 9.2756v2.7533l0.7614-2.7456z" style="fill:#ffffff"/>
 <path d="m17.575 21.433v-1.5958h5.7051s-5.5976-0.15711-5.7051 1.5958z" style="fill:#ffffff"/>
</svg>
