<svg xmlns="http://www.w3.org/2000/svg" viewBox="0 0 512 512" style="height: 512px; width: 512px;"><g class="" transform="translate(0,0)" style=""><path d="M302.344 28.514c-2.386 1.354-4.334 3.497-6.273 7.182-2.335 4.438-4.28 10.836-5.94 18.29-3.316 14.91-5.51 33.828-12.098 51.26l-.54 1.43-.982 1.17c-53.308 63.59-92.07 98.36-119.014 148.817l-2.46 4.605-5.22.15s-10.63.322-22.607 2.46c-11.978 2.137-43.225 3.316-46.132 7.017-13.33 16.97-23.48 45.76-25.072 70.46-1.592 24.697 3.872 48.986 16.676 65.568.858 1.11 29.53 4.57 38.22 5.302 8.693.73 16.52.162 16.52.162l6.08-.457 2.678 5.48c14.83 30.325 61.456 50.595 110.937 66.056 4.384.248 11.962-1.82 20.852-6.295-19.818-7.57-35.37-14.03-52.5-23.087l-4.423-2.338-.347-4.99c-.896-12.814 5.672-23.273 13.61-30.256 2.54-2.237 5.24-4.216 7.985-6.038-1.54-.685-3.074-1.38-4.62-2.053l-4.698-2.05-.635-5.086c-1.752-14.04 2.566-27.897 11.664-37.728 1.852-2 3.932-3.81 6.19-5.405l-.23-.1-.438-5.31c-1.313-15.828 8.72-29.44 20.295-39.02 2.13-1.764 4.347-3.44 6.623-4.985l-.91-2.148c-4.49-10.608-2.336-21.785 3.01-29.815 5.35-8.03 13.357-13.657 21.92-16.79l.232-.086.236-.073c16.656-5.078 32.616-1.007 47.756 3.03 15.14 4.036 29.842 8.22 45.14 6.923 9.286 15.502 8.095 12.523 10.49 17.176l-8.966.76c-19.417 1.647-36.48-3.515-51.3-7.467-14.71-3.92-26.832-6.456-37.616-3.264-5.132 1.933-10.21 5.715-12.908 9.77-2.15 3.226-3.06 6.18-2.338 9.75 21.768 9.268 38.374 19.347 57.04 24.798 19.682 5.746 42.49 7.06 79.325-3.035 5.858-2.842 11.615-7.678 15.014-12.946 3.503-5.427 4.637-10.646 2.87-16-6.415-19.43-15.202-36.684-33.028-48.515-40.155-16.703-65.958-16.832-101.275-13.336-.627-5.215-.437-10.644.022-18.09 2.066-15.153 8.845-33.844 16.745-55.096 9.792-26.342 21.692-55.157 30.416-78.892-2.042-19.79-7.618-30.87-15.044-37.3-7.295-6.315-17.56-9.054-30.932-9.564zm-14.53 290.698c-4.52 1.1-10.952 3.76-16.513 8.363-6.763 5.6-11.67 12.988-13.268 18.99 24.578 11.48 43.09 22.944 74.63 33.086l66.92-3.794c11.996-4.2 19.78-8.523 24.07-12.197 4.42-3.79 5.292-6.294 5.45-8.77.265-4.15-3.83-11.11-9.88-18.43-37.514 9.835-63.92 8.562-86.034 2.105-16.627-4.855-30.524-12.225-45.375-19.353zm-25.398 49.41c-6.38.195-11.287 2.923-15.2 7.15-4.27 4.616-6.853 11.327-7.09 18.49 23.313 10.374 45.08 21.135 74.69 30.407l56.54-1.095c21.862-.903 27.79-9.79 28.918-17.854.6-4.28-.493-8.504-2.71-11.72l-67.27 3.815-1.57-.496c-28.61-9.035-47.056-19.095-66.265-28.698h-.044zm-9.96 50.937c-6.14 3.332-12.053 6.753-16.258 10.452-4.005 3.523-6.404 6.67-7.237 10.69 17.396 8.825 33.933 15.363 57.386 24.162l46.51 1.596c8.015-3.427 12.8-6.69 15.08-9.11 2.44-2.59 2.637-3.797 2.603-5.873-.035-2.12-1.344-5.413-3-9.437l-35.403.685-1.385-.427c-22.878-7.07-41.16-14.99-58.295-22.74z" fill="#7f7f7f" fill-opacity="1"></path></g></svg>