<svg xmlns="http://www.w3.org/2000/svg" viewBox="0 0 512 512"><path fill="#7f7f7f" d="M302.34 28.51c-2.38 1.36-4.33 3.5-6.27 7.19-2.33 4.43-4.28 10.83-5.94 18.29-3.32 14.9-5.5 33.82-12.1 51.26l-.54 1.43-.98 1.17c-53.3 63.59-92.07 98.36-119.01 148.81l-2.46 4.6-5.22.16s-10.63.32-22.61 2.46c-11.98 2.13-43.23 3.31-46.13 7.01C67.75 287.87 57.6 316.65 56 341.35c-1.6 24.7 3.87 49 16.67 65.57.86 1.11 29.53 4.57 38.22 5.3 8.7.73 16.52.17 16.52.17l6.08-.46 2.68 5.48c14.83 30.32 61.46 50.6 110.94 66.06 4.38.24 11.96-1.82 20.85-6.3-19.82-7.57-35.37-14.03-52.5-23.09l-4.42-2.33-.35-5c-.9-12.8 5.67-23.27 13.6-30.25a73.56 73.56 0 0 1 8-6.04c-1.55-.68-3.08-1.38-4.63-2.05l-4.7-2.05-.63-5.09c-1.75-14.04 2.57-27.9 11.66-37.73 1.86-2 3.94-3.8 6.2-5.4l-.24-.1-.43-5.31c-1.32-15.83 8.72-29.44 20.3-39.02a87.21 87.21 0 0 1 6.61-4.99l-.9-2.14c-4.5-10.61-2.34-21.79 3-29.82 5.35-8.03 13.36-13.66 21.92-16.79l.24-.08.23-.08c16.66-5.08 32.62-1 47.76 3.03 15.14 4.04 29.84 8.22 45.14 6.93 9.28 15.5 8.1 12.52 10.49 17.17l-8.97.76c-19.41 1.65-36.48-3.51-51.3-7.47-14.7-3.92-26.83-6.45-37.61-3.26-5.14 1.93-10.21 5.72-12.91 9.77-2.15 3.23-3.06 6.18-2.34 9.75 21.77 9.27 38.37 19.35 57.04 24.8 19.68 5.74 42.5 7.06 79.33-3.04 5.85-2.84 11.61-7.67 15.01-12.94 3.5-5.43 4.64-10.65 2.87-16-6.42-19.43-15.2-36.69-33.03-48.52-40.15-16.7-65.96-16.83-101.27-13.33-.63-5.22-.44-10.65.02-18.1 2.06-15.15 8.84-33.84 16.74-55.09 9.8-26.34 21.7-55.16 30.42-78.9-2.04-19.78-7.62-30.86-15.04-37.3-7.3-6.3-17.56-9.05-30.94-9.56zm-14.53 290.7a43.08 43.08 0 0 0-16.5 8.37c-6.77 5.6-11.68 12.98-13.28 18.99 24.58 11.48 43.1 22.94 74.63 33.08l66.92-3.8c12-4.2 19.78-8.52 24.07-12.19 4.42-3.79 5.3-6.3 5.45-8.77.27-4.15-3.83-11.11-9.88-18.43-37.51 9.84-63.92 8.56-86.03 2.1-16.63-4.85-30.52-12.22-45.38-19.35zm-25.4 49.41c-6.37.2-11.28 2.92-15.2 7.15-4.26 4.62-6.85 11.33-7.08 18.5 23.3 10.37 45.08 21.13 74.69 30.4l56.54-1.1c21.86-.9 27.79-9.79 28.91-17.85.6-4.28-.49-8.5-2.7-11.72l-67.28 3.81-1.57-.5c-28.6-9.03-47.05-19.09-66.26-28.69h-.04zm-9.95 50.94c-6.14 3.33-12.06 6.75-16.26 10.45-4 3.52-6.4 6.67-7.24 10.7 17.4 8.82 33.93 15.35 57.39 24.15l46.5 1.6c8.02-3.43 12.8-6.7 15.09-9.11 2.44-2.6 2.63-3.8 2.6-5.87-.04-2.12-1.34-5.42-3-9.44l-35.4.68-1.39-.42c-22.88-7.07-41.16-15-58.3-22.74z"/></svg>