<svg xmlns="http://www.w3.org/2000/svg" viewBox="0 0 512 512"><path fill="#7f7f7f" d="M300.58 62.5c-5.15.03-10.99.55-17.71 1.46-1.83 12-3.82 24.25-5.77 36.68l.35-.14 6.65 16.73c-12.89 5.12-20.8 10.21-24.38 13.99-3.6 3.77-3.48 4.84-2.72 7.33.75 2.5 3.97 6.94 9.97 11.75s14.46 9.99 24.34 15.22l-8.43 15.9c-5.36-2.83-10.4-5.7-15.06-8.6a471.12 471.12 0 0 0-1.7 53.4c31.64 5.36 60.48 9.17 102.09-9.34-.48.2.85-.62 2.07-3.43 1.22-2.81 2.3-7.1 2.87-11.84 1.13-9.5.1-21.04-2.4-27.77l-13.5-33.03-1.88-24.32v-.1c-.43-7.42-4.36-20.66-10.2-31.42-5.85-10.76-13.97-18.37-18.19-19.28-9.63-2.09-17.38-3.23-26.4-3.19zm-36.12 2.4C199.1 72.45 141.72 99 107.88 175.7c14.14 6.56 44.46 12.32 73.25 14.3 15.53 1.07 30.81 1.26 43.34.56 10.84-.61 19.92-2.22 24.17-3.57.5-9.04 1.26-18 2.16-26.88-5.11-4.77-9.1-9.97-11.03-16.33-2.51-8.27.25-17.97 6.9-24.97 2.9-3.04 6.4-5.83 10.61-8.47 2.38-15.56 4.9-30.74 7.17-45.43zm74.25 51.83c4.87 14.57 2.85 18.95-4.59 33.52l-34.02-27.02 38.6-6.5zM107.7 195.24c3.35 21.6 14.17 41.45 36.8 56.37 35.56 22.69 71.21 29.72 110.3 34.01-5.53-26.83-7.31-53.5-6.86-79.68-6.4 1.42-13.86 2.1-22.46 2.59-13.51.75-29.4.55-45.6-.57-26.34-1.81-52.96-5.47-72.18-12.72zm159.42 49.3a301.28 301.28 0 0 0 7.93 49.3l3.1 12.37-12.7-1.21c-40.77-3.91-80.12-9.74-119.17-31.4-7.63 10.72-17 21.07-30.12 29.94l-2.28 1.55h-90V343h328.89a147.83 147.83 0 0 0-19.7-40.78c-8.6-12.42-15.3-25.34-16.38-39.85a52.1 52.1 0 0 1 .93-14.22c-18 1.13-34.4-.98-50.5-3.6zM23.88 361v30h337.75a264.93 264.93 0 0 0-4.26-30H23.88zm0 48v24.81c14.25-3 31.01-5.35 53.2-7.26 4.11-.35 7.99-.51 11.64-.49 10.95.08 19.89 1.86 27.27 5.24a41.99 41.99 0 0 1 20.32 19.97c5.85 11.95 7.07 24.81 8.71 34.52h342.86c1.2-12.98-1.83-25.94-15.86-36.4-4.45-3.31-11.14-6.12-26.04-6.62-14.9-.5-37.5 1.57-71.57 7.85l-10.42 1.92-.2-10.6a1182.8 1182.8 0 0 0-.97-32.94H23.88zm64.66 35.07c-3-.03-6.3.1-9.92.42-23.8 2.05-40.63 4.43-54.74 7.6v33.7H126.4c-1.86-10.05-2.86-19.67-6.25-26.6-2.5-5.1-5.63-8.77-11.65-11.52-4.51-2.07-10.93-3.52-19.96-3.6z"/></svg>