<svg xmlns="http://www.w3.org/2000/svg" viewBox="0 0 512 512" style="height: 512px; width: 512px;"><g class="" transform="translate(0,0)" style=""><path d="M55.984 10.73L10.73 55.984l12.73 12.73 45.253-45.255-12.73-12.73zm400.032 0l-12.73 12.73 45.255 45.253 12.73-12.73-45.254-45.253zM62.348 52.45l-9.9 9.898 265.167 265.166c13.718 13.718 25.277 22.427 33.258 26.724 2.435 1.31 4.362 2.074 5.973 2.608-.534-1.61-1.297-3.538-2.608-5.973-4.297-7.98-13.006-19.54-26.724-33.258L62.348 52.45zm387.304 0L268.73 233.372l9.897 9.898L459.55 62.35l-9.898-9.9zm-216.28 216.28l-48.886 48.885c-13.718 13.718-22.427 25.277-26.724 33.258-1.31 2.435-2.074 4.362-2.608 5.973 1.61-.534 3.538-1.297 5.973-2.608 7.98-4.297 19.54-13.006 33.258-26.724l48.886-48.887-9.897-9.898zm-55.25 9.094c-6.472 0-12.96.676-18.09 1.883-5.13 1.207-8.78 3.26-9.487 3.967L28.95 405.27c1.11 18.56 10.795 37.717 25.43 52.35 14.633 14.635 33.79 24.32 52.35 25.43l121.596-121.595c.707-.707 2.76-4.357 3.967-9.486 1.207-5.13 1.883-11.62 1.883-18.09 0-6.472-.676-12.963-1.883-18.093-.047-.2-.1-.38-.15-.574l-25.03 25.03c-14.566 14.566-27.05 24.24-37.453 29.843-5.202 2.8-9.863 4.644-14.572 5.316-4.71.673-10.378.02-14.443-4.047-4.066-4.065-4.72-9.734-4.047-14.443.672-4.71 2.515-9.37 5.316-14.572 5.602-10.404 15.277-22.887 29.844-37.453l25.03-25.03c-.195-.05-.376-.103-.575-.15-5.13-1.207-11.62-1.883-18.092-1.883zm155.757 0c-6.472 0-12.963.676-18.093 1.883-.2.047-.38.1-.574.15l25.03 25.03c14.566 14.566 24.24 27.05 29.843 37.453 2.8 5.202 4.644 9.863 5.316 14.572.673 4.71.02 10.378-4.047 14.443-4.065 4.066-9.734 4.72-14.443 4.047-4.71-.672-9.37-2.515-14.572-5.316-10.404-5.602-22.887-15.277-37.453-29.844l-25.03-25.03c-.05.195-.103.376-.15.575-1.207 5.13-1.883 11.62-1.883 18.092 0 6.47.676 12.96 1.883 18.09 1.207 5.128 3.26 8.778 3.967 9.485L405.27 483.05c18.56-1.11 37.717-10.795 52.35-25.43 14.635-14.633 24.32-33.79 25.43-52.35L361.456 283.674c-.707-.707-4.357-2.76-9.486-3.967-5.13-1.207-11.62-1.883-18.09-1.883z" fill="#7f7f7f" fill-opacity="1"></path></g></svg>