<svg xmlns="http://www.w3.org/2000/svg" viewBox="0 0 512 512"><path fill="#7f7f7f" d="M331.92 20.39c-36.7.88-82.53 60.97-116.06 147.97 30.57-65.57 71.17-106.4 97.35-99.38 28.06 7.51 37.11 69.42 24.85 148.4l-2.67-.96 2.65 1.11a573.58 573.58 0 0 1-12.77 60.12 597.02 597.02 0 0 1-8.94 30.14c-25-3.82-52.37-9.54-80.82-17.16-105.85-28.36-186.11-72.12-179.3-97.53 4.25-15.88 42.16-23.78 95.9-20.29-74.42-8.7-128.9-2.04-135.03 20.8-9.04 33.73 89.17 89.37 219.15 124.2a902.7 902.7 0 0 0 70.91 16.04c-28.96 75.88-68.29 126.08-96.65 118.48-21.82-5.85-36-45.44-36.31-100.2-4.8 75.47 9.27 131.94 40.66 140.35 38.83 10.41 91.39-55 127.9-152.98 80.11 10.74 138.95 4.28 145.37-19.68 6.39-23.82-41.02-58.44-115.1-89.03 20.71-109.02 8.48-198.5-31.96-209.34a32.1 32.1 0 0 0-9.12-1.07zm40.57 213.08c44.65 23 71.15 47.14 67.07 62.35-4.05 15.13-38.1 20.46-87.33 16.3a683.98 683.98 0 0 0 20.26-78.65z"/></svg>