<svg xmlns="http://www.w3.org/2000/svg" viewBox="0 0 512 512"><path fill="#7f7f7f" d="M137.71 18.33 17.87 138.17l29.58 29.58A228.95 228.95 0 0 1 167.29 47.9L137.7 18.33zm238.29.04-29.56 29.55a228.96 228.96 0 0 1 119.82 119.86l29.58-29.58L376 18.36zM242.73 55.4C137.4 62.64 54.45 150.13 54.45 257.3c0 111.93 90.46 202.4 202.4 202.4 32.75 0 63.66-7.76 91-21.52L325.6 422.4a178.02 178.02 0 0 1-68.74 13.73c-98.65 0-178.83-80.17-178.83-178.82 0-90.94 68.13-166.18 156.07-177.38l8.63-24.53zm29.43.07 8.55 24.6c87.4 11.7 154.96 86.68 154.96 177.24a178.2 178.2 0 0 1-50.29 124.23l8.64 24.68a201.8 201.8 0 0 0 65.23-148.92c0-106.78-82.34-194.02-187.1-201.83zm-14.75 14.5-32.3 91.7h18.92v45.07a51.9 51.9 0 0 1 26.28-.26v-44.81h18.98l-31.88-91.71zm71.82 44.41-17.2 29.8a124.43 124.43 0 0 0-10.6-4.5l14.15 40.67H289v35.06a52.29 52.29 0 0 1 20.95 41.8 51.8 51.8 0 0 1-5.95 24.14l40.7 54.18 19.47-14.66 4.92 14.08 20.6 11.9a159.74 159.74 0 0 0 9.53-16.08l-29.35-16.95a124.84 124.84 0 0 0 12.86-45.35h33.86a163.18 163.18 0 0 0 .21-18.68h-33.82c-.98-16.43-5.1-32-11.8-46.12l29.46-17a159.99 159.99 0 0 0-9.2-16.26l-29.49 17.02a126.09 126.09 0 0 0-33.73-33.93l17.15-29.7a159.35 159.35 0 0 0-16.14-9.42zm-145.38.31a159.6 159.6 0 0 0-16.1 9.49l17.61 30.52a126.2 126.2 0 0 0-32.67 33.74l-30.64-17.7a159.37 159.37 0 0 0-9.17 16.3l30.73 17.73a124.95 124.95 0 0 0-11.28 45.02H96.89a163.08 163.08 0 0 0 .21 18.68h35.48a124.84 124.84 0 0 0 12.33 44.27l-30.62 17.67a159.8 159.8 0 0 0 9.5 16.1l30.59-17.66a126.14 126.14 0 0 0 32.42 32.24l-17.53 30.35c5.2 3.4 10.61 6.5 16.21 9.3l17.48-30.27a124.86 124.86 0 0 0 44.14 12.05v34.62a163 163 0 0 0 18.69.05v-34.5c6.6-.42 13.05-1.36 19.32-2.75l10.69-8.05-47.52-63.26c-24.33-4.45-42.91-25.86-42.91-51.43 0-16.59 7.83-31.43 19.98-41.02v-35.83h-26.63l14.2-40.3c-3.94 1.5-7.79 3.18-11.52 5.05l-17.55-30.4zm73.81 108.91a33.46 33.46 0 0 0-33.6 33.6 33.46 33.46 0 0 0 33.6 33.6 33.46 33.46 0 0 0 33.6-33.6 33.46 33.46 0 0 0-33.6-33.6zm34.36 72.93A52.31 52.31 0 0 1 271 307.77l50.96 67.83-14.58 10.98 79.74 56.53-32.14-91.9L341 361.73l-48.98-65.2zm174.23 50.33a228.77 228.77 0 0 1-63.27 85l9.7 27.73 83.15-83.15-29.58-29.58zm-418.79.03-29.59 29.59 119.84 119.84 29.6-29.6A228.97 228.97 0 0 1 47.47 346.9zM370.8 454.45c-7.85 4.55-15.99 8.65-24.4 12.26L376 496.29l22.33-22.33-27.52-19.5z"/></svg>