<svg xmlns="http://www.w3.org/2000/svg" viewBox="0 0 512 512" style="height: 512px; width: 512px;"><g class="" transform="translate(0,0)" style=""><path d="M237.4 20.73c-6.1 42.1-26.8 64.2-63.9 64 31.6 4.5 63.8 8 63.9 64.07-.6-46.1 24.5-63.07 64.1-64.07-38-1.5-64.9-16.3-64.1-64zm127.8 11.58c-9.1 14.25-20.8 21.29-38.9 10.28 14.9 11.79 18.6 24.76 10.2 38.97 8.9-11.18 17.5-22.73 39-10.27-17.8-10.06-18.8-23.57-10.3-38.98zM59.68 41.69c-2.7 18.8-12 28.6-28.5 28.5 14.1 2 28.4 3.6 28.5 28.52-.3-20.5 10.9-28.12 28.5-28.52-16.9-.7-28.9-7.3-28.5-28.5zM431 66.28c-2.7 18.8-12 28.6-28.5 28.5 14.1 2 28.4 3.6 28.5 28.52-.3-20.5 10.9-28.12 28.5-28.52-16.9-.7-28.9-7.3-28.5-28.5zM120.3 116.4c-15.8 53.7-47.76 48-79.35 43.4C76.6 170 90.3 197.1 84.28 239.2c12.66-46 42.62-52.6 79.42-43.4-37.6-12.1-56.9-35.4-43.4-79.4zm187 5c-8.8 61.6-39.3 94-93.6 93.7 46.2 6.5 93.6 11.7 93.6 93.7-.8-67.3 35.9-92.2 93.8-93.7-55.5-2.2-94.9-23.9-93.8-93.7zm136.8 38.3c-13.1 21.6-29.5 28.8-49.7 20.1 16.3 9.7 33 19.1 20.1 49.6 10.3-25.2 27.9-28.7 49.7-20-20.3-9.7-31.6-23.9-20.1-49.7zM50.7 243.2c9.16 16.7 7.63 30.1-5.61 40 12.46-6.9 24.85-14.3 39.91 5.6-12.57-16.2-8.2-29 5.61-40-13.92 9.7-27.47 11.6-39.91-5.6zm137.2.3c11.4 26.8-.5 41.3-21.7 50.9 22.7-8.5 40.8-4.5 50.9 21.7-12.7-31.8 4.8-41.2 21.7-50.9-21 8.5-37.8.9-50.9-21.7zm228 12.6c-26.6 64.7-68.7 91.7-127.8 76.4 48.6 19.8 98.8 38.5 76.4 127.9 17.5-73.7 64.4-90.7 127.9-76.5-59.9-17.5-96.9-52-76.5-127.8zM99.94 295.5c15.66 57.8.86 98.1-47.32 118.5 43.46-11.8 87.38-25.2 118.68 47.4-26.4-59.3-3.4-95.4 47.3-118.8-50 19.2-93.1 15-118.66-47.1zm169.36 61c-21.8 20.6-43 23.6-63.2 7.3 15.5 16.3 31.6 32.4 7.2 63.3 19.8-25.6 41.2-24.1 63.3-7.3-20.2-17.4-28.6-37.5-7.3-63.3zM443.2 404c-2.7 18.8-12 28.6-28.5 28.5 14.1 2 28.4 3.6 28.5 28.5-.3-20.5 10.9-28.1 28.5-28.5-16.9-.7-28.9-7.3-28.5-28.5zm-169.7 36c-2.7 18.8-12 28.6-28.5 28.5 14.1 2 28.4 3.6 28.5 28.5-.3-20.5 10.9-28.1 28.5-28.5-16.9-.7-28.9-7.3-28.5-28.5z" fill="#7f7f7f" fill-opacity="1"></path></g></svg>