<svg xmlns="http://www.w3.org/2000/svg" style="height:512px;width:512px" viewBox="0 0 512 512"><path fill="none" d="M0 0h512v512H0z"/><path fill="#7f7f7f" d="M262.978 89.103C233.38 136.78 168.383 214.66 113 253.6v52.892c53.113-38.92 105.113-92.537 140.56-145.71l9.44-14.158 9.44 14.16c35.333 53 87.963 106.296 140.56 145.47v-52.593c-56.39-38.937-120.654-116.944-150.022-164.557zm0 108.403C233.38 245.183 168.384 323.066 113 362.01v52.887c53.113-38.92 105.113-92.537 140.56-145.71L263 255.03l9.44 14.158c35.333 53 87.963 106.298 140.56 145.473v-52.594c-56.39-38.937-120.654-116.947-150.022-164.56z"/></svg>