<svg xmlns="http://www.w3.org/2000/svg" viewBox="0 0 512 512"><path fill="#7f7f7f" d="m408.26 119.46-37.7 52.16 19.57 44.43 34.8-37.21-16.67-59.38zm86.07 12.51L384.44 249.5l-50.43-114.48-75.16 132.95-86.95-131.78-33.33 114.12L17.92 132.83l39.3 127.6a33.9 33.9 0 0 1 5.98-.54 34.4 34.4 0 0 1 34.26 34.26 34.42 34.42 0 0 1-20.23 31.22l5.33 17.33c12.43 25.47 71.87 45.15 176.59 47.2 110.8 2.18 178.12-17.53 189.85-47.2l4.35-20.26a34.43 34.43 0 0 1-30.02-33.99 34.4 34.4 0 0 1 34.27-34.26c3.51 0 6.9.54 10.1 1.54l26.63-123.76zm-391.77 2.04 1.22 56.34 25.56 24.89 9.6-32.84L102.55 134zm150.59 2.91-24.49 51.36 28.96 43.89 24.92-44.08-29.4-51.17zM457.6 272.88a15.43 15.43 0 0 0-15.58 15.58c0 8.7 6.87 15.57 15.58 15.57s15.57-6.86 15.57-15.57-6.86-15.57-15.57-15.57zm-394.4 5.7c-8.71 0-15.57 6.86-15.57 15.57s6.86 15.58 15.57 15.58 15.57-6.87 15.57-15.58c0-8.7-6.86-15.57-15.57-15.57zm130.33 17.84a34.4 34.4 0 0 1 34.26 34.26 34.4 34.4 0 0 1-34.26 34.26c-18.81 0-34.26-15.45-34.26-34.26s15.45-34.26 34.26-34.26zm131.23 0a34.4 34.4 0 0 1 34.26 34.26 34.4 34.4 0 0 1-34.26 34.26c-18.8 0-34.26-15.45-34.26-34.26s15.45-34.26 34.26-34.26zm-131.23 18.7a15.43 15.43 0 0 0-15.57 15.56c0 8.71 6.86 15.58 15.57 15.58 8.7 0 15.57-6.87 15.57-15.58s-6.86-15.57-15.57-15.57zm131.23 0a15.43 15.43 0 0 0-15.57 15.56c0 8.71 6.86 15.58 15.57 15.58s15.58-6.87 15.58-15.58-6.86-15.57-15.58-15.57z"/></svg>