<svg xmlns="http://www.w3.org/2000/svg" viewBox="0 0 512 512" style="height: 512px; width: 512px;"><g class="" transform="translate(0,0)" style=""><path d="M323.3 19.97c-60.4.63-112.4 52.18-109 119.13l14.2-13.4 12.8 13.6-23.8 22.6c2.2 9.2 5.4 18.6 9.8 28.2-53.6-22.8-67-40.1-111.9-94.1-9.4-11.23-18.92-15.48-27.49-16.13-1.07-.1-2.14-.1-3.19-.1-7.36.24-14.13 3.22-19.35 8.03-5.96 5.5-9.71 13.3-9.77 21.7-.1 8.4 3.36 18 13.55 27.7 24.54 23.5 52.75 47.2 74.15 71.2 11.7 13.1 21.7 26.5 27.6 40.3 16 4.2 32 8.5 48 12.7l1.5 5c4.3 14.2 2.4 31.7-12.2 45.8l-3.9 3.7c-12.2-3.3-24.5-6.5-36.8-9.8-4.5 8.1-10.3 15-16.6 21-11.4 10.9-24.3 19.4-36.2 29-23.66 19.1-43.42 40.3-41.58 92.2 1.15 32.2 25.42 45.8 45.98 44.5 10.3-.6 19-4.9 24-12.6 5-7.8 7.2-19.9.9-38.5-5.5-16.6 2.9-33.5 15.3-45.2 12.5-11.7 30.4-19.4 48.6-15.3 10 2.2 16.2 10.7 19.4 19.1 3.2 8.4 4.8 17.8 6.9 27.5 4.1 19.4 9.5 38.7 25.2 50 30.4 21.7 61.3 18.2 74.9 6.6 6.8-5.8 9.7-12.8 8-22.1-1.7-9.2-9.1-21.5-26.3-34.5-19.7-14.9-24-41.6-22.2-67.1 1.9-25.5 9.9-51 20.3-67.8 6.3-10.1 17.3-13.7 29.4-16.8 12-3.2 26-5.6 40.5-9.3 28.9-7.4 58.5-19.3 76.3-50.6 8.7-15.4 10.8-28 9.3-37.1-1.4-9.1-6-15.1-12.5-18.7-13-7.1-35.8-4.2-54.6 21-13.7 18.2-39.5 26.6-69.2 28.6-9 .6-18.5.6-28.1-.1 2.4-1.5 4.9-3.1 7.4-4.8l.1-31.2h18.6v15.9c31.5-29.7 55.1-74.4 53.1-119.84 18.1 11.88 30.6 27.13 42 47.74 3.4-16.5-.2-32.57-8.1-47.99 16.2 6.7 28.6 17.11 41.4 27.1-4.8-20.07-14.7-33.13-29.5-43.24 16.7 1.34 26.1 5.24 40.8 12.74-11-24.93-55.2-50.35-98.3-35.21-16.7-6.54-34-11.16-49.4-11.13zm-34.6 54.34c11 0 19.8 8.87 19.8 19.81 0 10.98-8.8 19.88-19.8 19.88-10.9 0-19.8-8.9-19.8-19.88 0-10.94 8.9-19.81 19.8-19.81zm44.7 33.09c10.9 0 19.8 8.9 19.8 19.8 0 11-8.9 19.8-19.8 19.8-11 0-19.8-8.8-19.8-19.8 2.3-11.3 6.5-19.5 19.8-19.8zm-80.1 40.7l15 11.3-21 27.7-14.9-11.3c7-9.2 14-18.5 20.9-27.7zm28.1 16.8l17.8 5.7-10.1 31.6-17.8-5.7c3.3-10.5 6.8-21.1 10.1-31.6zM42.31 204.6c-16.92 20.2-19.8 44.5-18 72.1l30.38-17.1 3.31-1.8 3.66.9L198.7 295c5.5-6.5 6.2-11.9 5-18.2L66.72 240.4l-3.69-.9-1.94-3.3c-6.24-10.6-12.54-21.1-18.78-31.6zM326.2 309.8c-2.5 5.2-4.9 11.2-6.9 17.8l95.9 25.4c19.2 2.4 38.5 3.7 57.7 5.9l-51.7-22.8c-34.1-9.8-67.2-18.9-95-26.3z" fill="#7f7f7f" fill-opacity="1"></path></g></svg>