<svg xmlns="http://www.w3.org/2000/svg" viewBox="0 0 512 512"><path fill="#7f7f7f" d="M50 96c-9.97 0-18 8.03-18 18v300c0 9.97 8.03 18 18 18h412c9.97 0 18-8.03 18-18V114c0-9.97-8.03-18-18-18H50zm5 23h402v18H55v-18zm0 32h210v258H55V151zm18 18v222h7.03c.47-24.34 18.32-74.17 47.1-97.89 9.2 7.45 20.49 11.89 32.87 11.89 12.38 0 23.67-4.44 32.88-11.89 28.78 23.72 46.62 73.55 47.09 97.89H247V169H73zm222 14h146v18H295v-18zm-135 10c20.84 0 39 20.24 39 47s-18.16 47-39 47-39-20.24-39-47 18.16-47 39-47zm135 22h114v18H295v-18zm0 32h50v18h-50v-18zm80 0h66v18h-66v-18zm-16 96h98v18h-98v-18zm-32 32h130v18H327v-18z"/></svg>