<svg xmlns="http://www.w3.org/2000/svg" viewBox="0 0 512 512" style="height: 512px; width: 512px;"><g class="" transform="translate(0,0)" style=""><path d="M256 27.88l-8.1 16.09c-8.2 16.54-20.2 44.64-30.4 73.03-10.1 28.3-18.5 56-18.5 75 0 22 6.1 43.4 14.4 61.2-1.5.1-2.9.2-4.3.3-15-6.8-29.5-15-41.5-24.5-18.7-15-30.6-32.5-30.6-53 0-14.5 3.7-21.8 7-25 3.3-3.2 6.9-3.7 11.5-2.3 4.6 1.3 9.5 5 12 9.3 2.5 4.3 3.1 8.7.4 14l16.2 8c5.3-10.7 3.9-22.3-1.1-31s-13.1-15-22.5-17.7c-2.4-.6-4.8-1-7.4-1.1-7.5-.4-15.4 1.9-21.6 7.8-8.2 7.8-12.5 20.5-12.5 38 0 27.5 16.1 50 37.4 67 6 4.8 12.4 9.2 19.1 13.2-14.3 1.6-28 3.6-40.8 5.9-9.9-1.3-21-3.9-30.4-7.6-7.17-2.8-13.37-6.4-17.17-10-3.9-3.6-5.4-6.6-5.5-9.9v-.1c-.2-9.9 7.2-15.3 13.4-16 3.1-.4 5.37.4 7.17 2.2 1.7 1.8 3.6 5.4 3.2 12.9l18 1c.6-11.1-2.4-20.4-8.3-26.5-4.5-4.6-10.3-7-16.17-7.5-2-.2-3.9-.2-5.9 0-15.2 1.6-29.7 15.1-29.4 34.3.2 9.1 5 17 11.2 22.8 6.1 5.7 13.6 9.7 21.8 13.1l-1.2.3c-15.8 4.5-29.4 9.6-40.5 15.5-3.1.2-6 .4-8.3.1-2.8-.3-4.6-1-5.9-2-1.3-.9-2.4-2.3-3.5-5.7-.6-2 1.7-6.1 4.8-7.6 1.6-.8 2.7-.8 3.3-.5.7.2 1.8.7 3.2 4.3l16.8-6.4c-2.7-7.1-7.6-12.6-13.7-14.8-3.1-1.2-6.2-1.5-9.2-1.2-2.9.3-5.8 1.2-8.3 2.4-10.1 5-17.9 16.4-14.1 29 1.9 6.4 5.4 11.6 10 15 1.8 1.4 3.7 2.4 5.7 3.2-7.2 10.4-11.7 24.5-11.7 33.6 0 12.6 8.7 23.1 21.1 31.5 12.5 8.5 29.5 15.5 50.3 21.4 26.77 7.7 59.77 13.4 96.57 16.5 16-5.4 16-5.4 0-16.1-35.4-3.1-67.1-8.6-92.17-15.7-19.7-5.7-35.5-12.4-45.7-19.3-10.2-6.9-14.1-13.2-14.1-18.3 0-5.1 3.9-11.4 14.1-18.3s26-13.6 45.7-19.3c33.57-9.5 78.77-16.2 129.27-18 0 .1.1.1.1.1v-.1h1.1c1.6 2.1 3.4 4 5.1 5.7 6 6.1 12.1 10.9 20.6 10.9 8.5 0 14.6-4.8 20.6-10.9 1.7-1.7 3.5-3.6 5.1-5.7h1.1v.1s.1 0 .1-.1c50.5 1.8 95.7 8.5 129.3 18 19.7 5.7 35.5 12.4 45.7 19.3 10.2 6.9 14.1 13.2 14.1 18.3 0 5.1-3.9 11.4-14.1 18.3s-26 13.6-45.7 19.3c-25.1 7.1-56.8 12.6-92.2 15.7-16 10.7-16 10.7 0 16.1 36.8-3.1 69.8-8.8 96.6-16.5 20.8-5.9 37.8-12.9 50.3-21.4 12.4-8.4 21.1-18.9 21.1-31.5 0-9.1-4.5-23.3-11.7-33.6 1.9-.8 3.8-1.9 5.6-3.2 4.6-3.4 8.1-8.6 10-15 3.8-12.6-4-24-14.1-29-2.5-1.2-5.3-2.1-8.3-2.4-3-.3-6.1 0-9.2 1.2-6.1 2.2-11 7.7-13.7 14.8l16.8 6.4c1.4-3.6 2.5-4.1 3.2-4.3.6-.3 1.7-.3 3.3.5 3.1 1.5 5.4 5.6 4.8 7.6-1.1 3.4-2.2 4.8-3.5 5.7-1.3 1-3.1 1.7-5.9 2-2.3.2-5.1.1-8.2-.1-11.1-5.9-24.7-11-40.5-15.5l-1.2-.3c8.2-3.4 15.7-7.4 21.7-13.1 6.3-5.8 11.1-13.7 11.2-22.9.3-19.1-14.1-32.6-29.4-34.2-1.9-.2-3.9-.2-5.8 0-5.9.5-11.7 2.9-16.2 7.5-5.9 6.1-8.9 15.4-8.3 26.5l18-1c-.4-7.5 1.5-11.1 3.2-12.9 1.8-1.8 4.1-2.6 7.2-2.2 6.1.7 13.5 6.1 13.3 16v.1c-.1 3.3-1.6 6.3-5.4 9.9-3.9 3.6-10.1 7.2-17.2 10-9.4 3.7-20.5 6.3-30.4 7.6-12.8-2.3-26.5-4.3-40.8-5.9 6.7-4 13.1-8.4 19.1-13.2 21.3-17 37.4-39.5 37.4-67 0-17.5-4.3-30.2-12.5-38-6.2-5.9-14.1-8.2-21.6-7.8-2.6.1-5 .5-7.4 1.1-9.4 2.7-17.5 9-22.5 17.7s-6.4 20.3-1.1 31l16.2-8c-2.7-5.3-2.1-9.7.4-14 2.5-4.3 7.4-8 12-9.3 4.6-1.4 8.2-.9 11.5 2.3 3.3 3.2 7 10.5 7 25 0 20.5-11.9 38-30.6 53-12 9.5-26.5 17.7-41.5 24.5-1.4-.1-2.8-.2-4.3-.3C306.9 235.4 313 214 313 192c0-19-8.4-46.7-18.5-75-10.2-28.39-22.2-56.49-30.4-73.03zm0 41.45c6.8 15.23 14.6 34.37 21.5 53.67 9.9 27.7 17.5 56 17.5 69 0 22-7.5 44.8-16.9 61.6-4.6 8.4-9.8 15.3-14.2 19.8-4 3.9-7.5 5.3-7.9 5.5 0 .1.1.1 0 .1s0 0 0-.1c-.4-.2-3.9-1.6-7.9-5.5-4.4-4.5-9.6-11.4-14.2-19.8C224.5 236.8 217 214 217 192c0-13 7.6-41.3 17.5-69 6.9-19.3 14.7-38.44 21.5-53.67z" fill="#7f7f7f" fill-opacity="1"></path></g></svg>