<svg xmlns="http://www.w3.org/2000/svg" viewBox="0 0 512 512" style="height: 512px; width: 512px;"><g class="" transform="translate(0,0)" style=""><path d="M242.5 21.5c-25.192 3.245-47.28 32.016-47.28 68.78 0 20.28 7.038 38.25 17.5 50.75l10.25 12.25-15.69 2.94c-6.058 1.128-11.42 3.163-16.25 6.093l50.907 29.343.22.125c10.092 5.547 17.387 12.847 21.687 20.72 4.332 7.932 5.865 16.78 2.562 24.75-3.302 7.97-12.133 13.29-21.687 13.344-9.457.054-20.02-3.703-32.345-11.5-.13-.082-.245-.136-.375-.22l-52.313-30.06c-1.536 4.65-2.918 9.51-4.156 14.56-8.238 33.626-9.925 74.615-10.155 110.407H189.5l.625 8.626 11.28 149.78 96.69.002L308.03 342.5l.564-8.72h42c-.013-36.18-.378-77.737-7.844-111.624-4.05-18.384-10.197-34.295-18.813-45.75-8.615-11.454-19.257-18.706-34.593-21.062l-16-2.438L283.5 140.25c10.008-12.437 16.72-30.183 16.72-49.97-.002-39.2-24.78-68.718-52.5-68.718-2.913 0-4.762-.12-5.22-.062zM20.812 85.78v21.626l200.875 115.5.188.094.188.125c10.573 6.74 18.416 8.805 22.53 8.78 4.115-.022 4.113-.724 4.563-1.81.45-1.09.63-4.324-1.72-8.626-2.348-4.304-7.01-9.363-14.436-13.407l-.094-.032-.094-.06-212-122.19zm396.97 187.626l-15.626 28.22-33.656-19.063c.355 8.144.576 16.234.688 24.187l22.906 13.03-15.47 27.94 114.97 15.124-73.813-89.438z" fill="#7f7f7f" fill-opacity="1"></path></g></svg>