<svg xmlns="http://www.w3.org/2000/svg" viewBox="0 0 512 512" style="height: 512px; width: 512px;"><g class="" transform="translate(0,0)" style=""><path d="M66.89 18L128 128 18 117v32.5L96 208l-78 39v35l110 22-3.6 16c-12.6 12.1-21.9 26.5-28.46 42.5-14.43 35.2-16.64 85.7-16.9 131.5h18.1c.34-44.1 2.78-93.8 15.46-124.7 8.9-21.9 22.4-39.6 44.6-52.1-4.1-22-6.2-43.5-6.2-61.2v-14.6l13 6.6c9.6 4.7 16.5 6.2 23.1 5.7-5.2-14-8.1-29.6-8.1-45.7 0-29.1 9.1-55.2 23.3-73.7 14.2-18.5 33.1-29.3 53.7-29.3s39.5 10.8 53.7 29.3c14.2 18.5 23.3 44.6 23.3 73.7 0 16.1-2.9 31.7-8.1 45.7 6.6.5 13.6-1 23.1-5.7l13-6.6V256c0 17.7-2.1 39.2-6.2 61.2 22.2 12.5 35.7 30.2 44.6 52.1 12.7 30.9 15.1 80.6 15.5 124.7H433c-.3-45.8-2.5-96.3-16.9-131.5-6.6-16-15.9-30.5-28.6-42.6L384 304l110-22v-35l-78-39 78-58.5V117l-110 11 61.1-110h-37.8L304 80l-18.6-62h-58.8L208 80 104.7 18zM208 215v18h32v-18zm64 0v18h32v-18zm-33.6 36.1c-12.7 6.7-23.7 13.5-35.6 17.4-10 3.4-21.1 4.1-33.3.8.5 8 1.3 16.7 2.4 25.7 27.2-.4 51.7-3.3 77.7-29.4l1.7-1.6zm35.2 0L260.7 264l1.7 1.6c26 26.1 50.5 29 77.7 29.4 1.1-9 1.9-17.7 2.4-25.7-12.2 3.3-23.3 2.6-33.3-.8-11.9-3.9-22.9-10.7-35.6-17.4zM256 284.3c-27 23.7-55.2 27.8-81.3 28.5 1.7 9 3.6 18 6 26.9 2.2 8.3 4.8 16.3 7.6 23.9C193.9 353.1 201 343 208 336c0 21-6.9 35-11.6 46.8 3.8 7.6 7.8 14.4 12.1 20l24.5-24.5V400c0 14.5 2.8 19.1 7.4 23.6 3.4 3.5 9.1 6.9 15.6 12.3 6.5-5.4 12.2-8.8 15.6-12.3 4.6-4.5 7.4-9.1 7.4-23.6v-21.7l24.5 24.5c4.3-5.6 8.3-12.4 12.1-20C310.9 371 304 357 304 336c7 7 14.1 17.1 19.7 27.6 2.8-7.6 5.4-15.6 7.6-23.9 2.4-8.9 4.3-17.9 6-26.9-26.1-.7-54.3-4.8-81.3-28.5z" fill="#7f7f7f" fill-opacity="1"></path></g></svg>