<svg xmlns="http://www.w3.org/2000/svg" viewBox="0 0 512 512"><path fill="#7f7f7f" d="M176 22v86c80 32 80 32 160 0V22l-48 48-32-48-32 48zm159.54 108.31c-4.74.2-9.56 1.49-14.2 4.17-38.94 22.48-89.77 21.95-127.8 0a28.77 28.77 0 0 0-18.14-3.9 46.38 46.38 0 0 1 9.44 28.1c0 23.15-17.04 42.83-39.17 45.1-12.78 14.91-21.56 31.8-24.4 49.97 44.74-23.79 90.96-35.57 137.07-35.5 46.15.06 92.2 11.98 136.56 35.62-2.69-18.15-11.21-35.05-23.8-49.92-.58.02-1.16.04-1.75.04-24.18 0-43.45-20.7-43.45-45.31 0-10.64 3.6-20.55 9.64-28.37zm-194.15 3.21c-12.67 0-23.27 10.86-23.27 25.16s10.6 25.14 23.27 25.14 23.28-10.85 23.28-25.14-10.6-25.15-23.28-25.15zm227.96 0c-12.67 0-23.28 10.86-23.28 25.16s10.6 25.14 23.28 25.14c12.67 0 23.27-10.85 23.27-25.14s-10.6-25.15-23.27-25.15zm68.4 93.38c-9.37-.13-18.97 1.65-28.68 4.24 6.92 19.45 8.57 40.72 2.7 62.65-4.27 15.9.93 37.48 11.7 54.76l4.68 7.53-7.02 5.43c-19.76 15.28-36.44 25.1-46.1 35.26-9.66 10.16-13.89 19.6-10.92 40.88.49 12.74 6.07 17.05 13.67 24.97 19.88-14.55 36.01-23.89 68.35-4.1-6.74-18.8 15.93-29.76 46.71-29.77-36.9-15.88-64.98-25.62-86.43-30.38 67.49-72.19 97.18-127.96 66-159.19-10.99-8.8-22.63-12.11-34.67-12.28zm-364.08.12c-12.65.03-24.77 3.16-34.08 12.16-31.18 31.23-1.49 87 66 159.2-21.45 4.75-49.52 14.49-86.43 30.37 30.78.02 53.45 10.97 46.72 29.78 32.33-19.8 48.46-10.46 68.34 4.1 6.23-8.56 16.3-14.84 17.72-24.98 2.98-21.28-1.25-30.71-10.91-40.87-9.66-10.16-26.34-19.98-46.1-35.27l-7.03-5.42 4.7-7.53c10.73-17.23 15.85-39.24 11.7-54.76-5.79-21.57-4.19-42.44 2.53-61.56-10.42-2.87-22-5.25-33.16-5.22zm184.67 9.54c-46.1-.07-92.3 12.82-137.57 38.84a87.27 87.27 0 0 0 2.5 13.31c5.45 20.36.58 42.93-9.5 62.3 15.9 11.64 30.35 20.53 41.49 32.23 10.36 10.89 16.8 25.13 16.95 43.71-1.1 16.31-9.16 39.28-22.35 59.25 24.6-14.24 42.14-15.34 45.3 3.49 14.1-17.78 25.7-20.39 38.98-8.04-3.75-31.45-11.12-52.88-17.26-65.1-14.9-36.56-42.81-61.48-73.74-83.42l11.36-16.01c38.79 27.52 76.8 62.66 89.12 119.57 9.63.7 19.25.65 28.85-.16 12.36-56.81 50.34-91.92 89.09-119.41l11.36 16.01c-31.2 22.13-59.34 47.28-74.13 84.37-6.05 12.35-13.14 33.49-16.8 64.15 13.3-12.35 24.9-9.74 39 8.04 3.15-18.82 20.69-17.73 45.28-3.5-13.51-20.45-21.64-44.05-22.42-60.42.41-18 6.8-31.87 16.95-42.53 11.13-11.7 25.59-20.6 41.47-32.23-10.06-19.29-14.99-41.74-9.48-62.3a88.6 88.6 0 0 0 2.51-13.27c-44.85-25.79-90.85-38.82-136.96-38.88z"/></svg>