<svg xmlns="http://www.w3.org/2000/svg" viewBox="0 0 512 512"><path fill="#7f7f7f" d="M18 18v476h79.81A374.75 374.75 0 0 0 183 256c0-87.2-30.3-171.22-85.2-238zm438.1 53.91c-1.9 0-3.8.28-5.7.8a22.9 22.9 0 0 0-16.3 28.19 22.83 22.83 0 0 0 28.2 16.2 22.86 22.86 0 0 0 16.2-28.12 22.84 22.84 0 0 0-22.4-17.07m-37.5 7.23c-6.5 1.89-10.9 7.19-13.2 11.99-2.3 4.89-3.3 9.77-4.3 14.17s-2 8.4-3 10.6-1.2 2.1-1.8 2.3-.8.3-2.8-1.1-4.8-4.3-7.9-7.6-6.4-7.1-10.8-10.15c-4.5-3.08-11-5.54-17.7-3.74-6.7 1.79-11.2 7.19-13.5 12.09s-3.3 9.8-4.3 14.2-2 8.3-3 10.6c-1.1 2.2-1.2 2.2-1.8 2.3-.6.2-.8.3-2.8-1.1s-4.8-4.3-7.9-7.7c-3.1-3.3-6.4-7-10.8-10.1-4.5-3.1-11-5.5-17.8-3.7-6.6 1.8-11.1 7.2-13.4 12.1-2.3 4.8-3.3 9.7-4.3 14.1s-2 8.4-3.1 10.6c-1 2.2-1.2 2.2-1.7 2.3h-.1c-.6.2-.7.3-2.7-1.1s-4.9-4.3-7.9-7.6c-3.1-3.3-6.4-7-10.9-10.1-4.4-3.1-10.9-5.6-17.6-3.8s-11.2 7.2-13.5 12.1-3.3 9.8-4.3 14.2-2 8.3-3.1 10.5c-1 2.3-1.2 2.2-1.8 2.4s-.7.3-2.7-1.1c-2.1-1.4-4.9-4.3-8-7.6s-6.4-7.1-10.8-10.2c-1.1-.8-2.4-1.5-3.8-2.1 3 10.2 5.5 20.5 7.6 30.9 1.5 1.3 3 2.6 4.7 3.7 4.4 3.1 10.9 5.6 17.6 3.8s11.2-7.2 13.5-12.1 3.3-9.8 4.3-14.2 2-8.3 3.1-10.5c1-2.3 1.2-2.2 1.8-2.4s.7-.3 2.7 1.1 4.9 4.3 8 7.7c3.1 3.3 6.4 7 10.8 10.1 4.5 3.1 11 5.5 17.8 3.7 6.6-1.8 11.1-7.2 13.3-12.1 2.3-4.9 3.3-9.7 4.3-14.1s2-8.3 3.1-10.6c1-2.2 1.2-2.1 1.8-2.3h.1c.6-.2.7-.3 2.7 1.1s4.8 4.3 7.9 7.6 6.4 7 10.8 10.1 11 5.6 17.7 3.8 11.2-7.2 13.5-12.1 3.3-9.8 4.3-14.2 2-8.3 3-10.6c1.1-2.2 1.2-2.1 1.8-2.3s.8-.3 2.8 1.1 4.8 4.3 7.9 7.6 6.4 7.1 10.8 10.2c4.5 3 11 5.5 17.7 3.7s11.2-7.2 13.5-12.1c2.1-4.4 3.1-8.9 4-13a42 42 0 0 1-1.7-5 40.86 40.86 0 0 1 1.9-26.36M240 231c-7 0-12.7 4.1-16.1 8.2-3.5 4.1-5.7 8.6-7.9 12.6-2.1 4-4.1 7.5-5.6 9.4-1.6 1.9-1.8 1.8-2.4 1.8s-.8.1-2.4-1.8c-1.3-1.6-2.9-4.4-4.6-7.6v2.4c0 7.8-.2 15.6-.7 23.3 2.3 1 4.9 1.7 7.7 1.7 7 0 12.7-4.1 16.1-8.2 3.5-4.1 5.7-8.6 7.9-12.6 2.1-4 4.1-7.5 5.6-9.4 1.6-1.9 1.8-1.8 2.4-1.8s.8-.1 2.4 1.8c1.5 1.9 3.5 5.4 5.6 9.4 2.2 4 4.4 8.5 7.9 12.6 3.4 4.1 9.1 8.2 16.1 8.2s12.7-4.1 16.1-8.2c3.5-4.1 5.7-8.6 7.9-12.6 2.1-4 4.1-7.5 5.6-9.4 1.6-1.9 1.8-1.8 2.4-1.8s.8-.1 2.4 1.8c1.5 1.9 3.5 5.4 5.6 9.4 2.2 4 4.4 8.5 7.9 12.6 3.4 4.1 9.1 8.2 16.1 8.2s12.7-4.1 16.1-8.2c3.5-4.1 5.7-8.6 7.9-12.6 2.1-4 4.1-7.5 5.6-9.4 1.6-1.9 1.8-1.8 2.4-1.8s.8-.1 2.4 1.8c1.5 1.9 3.5 5.4 5.6 9.4 2.2 4 4.4 8.5 7.9 12.6 3.4 4.1 9.1 8.2 16.1 8.2s12.7-4.1 16.1-8.2c3.2-3.7 5.3-7.7 7.3-11.4-.3-1.8-.4-3.6-.4-5.4 0-9.4 3.2-18 8.6-25-6.8.2-12.4 4.2-15.7 8.2-3.5 4.1-5.7 8.6-7.9 12.6-2.1 4-4.1 7.5-5.6 9.4-1.6 1.9-1.8 1.8-2.4 1.8s-.8.1-2.4-1.8c-1.5-1.9-3.5-5.4-5.6-9.4-2.2-4-4.4-8.5-7.9-12.6-3.4-4.1-9.1-8.2-16.1-8.2s-12.7 4.1-16.1 8.2c-3.5 4.1-5.7 8.6-7.9 12.6-2.1 4-4.1 7.5-5.6 9.4-1.6 1.9-1.8 1.8-2.4 1.8s-.8.1-2.4-1.8c-1.5-1.9-3.5-5.4-5.6-9.4-2.2-4-4.4-8.5-7.9-12.6-3.4-4.1-9.1-8.2-16.1-8.2s-12.7 4.1-16.1 8.2c-3.5 4.1-5.7 8.6-7.9 12.6-2.1 4-4.1 7.5-5.6 9.4-1.6 1.9-1.8 1.8-2.4 1.8s-.8.1-2.4-1.8c-1.5-1.9-3.5-5.4-5.6-9.4-2.2-4-4.4-8.5-7.9-12.6-3.4-4.1-9.1-8.2-16.1-8.2m224 2c-12.8 0-23 10.2-23 23s10.2 23 23 23 23-10.2 23-23-10.2-23-23-23m-269.2 92.4c-2 11.2-4.5 22.2-7.4 33.2.5 1.4 1 2.8 1.7 4.3 2.3 4.9 6.8 10.3 13.5 12.1s13.2-.7 17.6-3.8c4.5-3 7.8-6.8 10.8-10.1 3.1-3.3 6-6.2 8-7.6s2.1-1.3 2.7-1.1c.6.1.8.1 1.8 2.4 1.1 2.2 2.1 6.1 3.1 10.5s2 9.3 4.3 14.2 6.8 10.3 13.5 12.1 13.3-.7 17.7-3.8 7.7-6.8 10.8-10.1c3.1-3.4 5.9-6.3 7.9-7.7s2.2-1.3 2.8-1.1c.6.1.7.1 1.8 2.3 1 2.3 2 6.2 3 10.6s2 9.3 4.3 14.2 6.8 10.3 13.5 12.1 13.2-.7 17.7-3.7c4.4-3.1 7.7-6.9 10.8-10.2s5.9-6.2 7.9-7.6 2.2-1.3 2.8-1.1.7.1 1.8 2.3c1 2.3 2 6.2 3 10.6s2 9.3 4.3 14.2 6.8 10.3 13.5 12.1 13.2-.7 17.7-3.7c4-2.8 7.1-6.2 10-9.3.2-1.7.5-3.5 1-5.2 2.4-9 7.8-16.6 14.7-21.9-6.5-1.6-12.9.9-17.3 3.8-4.4 3.1-7.7 6.9-10.8 10.2s-5.9 6.2-7.9 7.6-2.2 1.3-2.8 1.1c-.6-.1-.7-.1-1.8-2.3-1-2.3-2-6.2-3-10.6s-2-9.3-4.3-14.2-6.8-10.3-13.5-12.1-13.2.7-17.7 3.7c-4.4 3.1-7.7 6.9-10.8 10.2s-5.9 6.2-7.9 7.6-2.2 1.3-2.8 1.1c-.6-.1-.7-.1-1.8-2.3-1-2.3-2-6.2-3-10.6s-2-9.3-4.3-14.2-6.8-10.3-13.5-12.1-13.3.7-17.7 3.8-7.7 6.8-10.8 10.1c-3.1 3.4-5.9 6.3-7.9 7.7s-2.2 1.3-2.8 1.1c-.6-.1-.8-.1-1.8-2.4-1.1-2.2-2.1-6.1-3.1-10.5s-2-9.3-4.3-14.2-6.8-10.3-13.5-12.1-13.2.7-17.6 3.8c-4.5 3-7.8 6.8-10.8 10.1-3.1 3.3-6 6.2-8 7.6s-2.1 1.3-2.7 1.1c-.6-.1-.8-.1-1.8-2.4-1.1-2.2-2.1-6.1-3.1-10.5s-2-9.3-4.3-14.2c-.8-1.7-1.9-3.4-3.2-5.1m261.7 68.7c-10.3-.1-19.6 6.6-22.4 17.1a22.85 22.85 0 0 0 16.2 28.1 22.9 22.9 0 0 0 28.2-16.2 22.9 22.9 0 0 0-16.3-28.2c-1.9-.5-3.8-.8-5.7-.8"/></svg>