<svg xmlns="http://www.w3.org/2000/svg" viewBox="0 0 512 512" style="height: 512px; width: 512px;"><g class="" transform="translate(0,0)" style=""><path d="M18 18v476h79.81C152.7 427.2 183 343.2 183 256c0-87.2-30.3-171.22-85.2-238zm438.1 53.91c-1.9 0-3.8.28-5.7.8-12.4 3.32-19.6 15.81-16.3 28.19 3.3 12.3 15.8 19.6 28.2 16.2 12.3-3.3 19.5-15.8 16.2-28.12-2.8-10.44-12.1-17.2-22.4-17.07zm-37.5 7.23c-6.5 1.89-10.9 7.19-13.2 11.99-2.3 4.89-3.3 9.77-4.3 14.17s-2 8.4-3 10.6c-1 2.2-1.2 2.1-1.8 2.3-.6.2-.8.3-2.8-1.1-2-1.4-4.8-4.3-7.9-7.6-3.1-3.3-6.4-7.1-10.8-10.15-4.5-3.08-11-5.54-17.7-3.74-6.7 1.79-11.2 7.19-13.5 12.09-2.3 4.9-3.3 9.8-4.3 14.2-1 4.4-2 8.3-3 10.6-1.1 2.2-1.2 2.2-1.8 2.3-.6.2-.8.3-2.8-1.1-2-1.4-4.8-4.3-7.9-7.7-3.1-3.3-6.4-7-10.8-10.1-4.5-3.1-11-5.5-17.8-3.7-6.6 1.8-11.1 7.2-13.4 12.1-2.3 4.8-3.3 9.7-4.3 14.1s-2 8.4-3.1 10.6c-1 2.2-1.2 2.2-1.7 2.3h-.1c-.6.2-.7.3-2.7-1.1-2-1.4-4.9-4.3-7.9-7.6-3.1-3.3-6.4-7-10.9-10.1-4.4-3.1-10.9-5.6-17.6-3.8-6.7 1.8-11.2 7.2-13.5 12.1-2.3 4.9-3.3 9.8-4.3 14.2-1 4.4-2 8.3-3.1 10.5-1 2.3-1.2 2.2-1.8 2.4-.6.2-.7.3-2.7-1.1-2.1-1.4-4.9-4.3-8-7.6-3.1-3.3-6.4-7.1-10.8-10.2-1.1-.8-2.4-1.5-3.8-2.1 3 10.2 5.5 20.5 7.6 30.9 1.5 1.3 3 2.6 4.7 3.7 4.4 3.1 10.9 5.6 17.6 3.8 6.7-1.8 11.2-7.2 13.5-12.1 2.3-4.9 3.3-9.8 4.3-14.2 1-4.4 2-8.3 3.1-10.5 1-2.3 1.2-2.2 1.8-2.4.6-.2.7-.3 2.7 1.1 2 1.4 4.9 4.3 8 7.7 3.1 3.3 6.4 7 10.8 10.1 4.5 3.1 11 5.5 17.8 3.7 6.6-1.8 11.1-7.2 13.3-12.1 2.3-4.9 3.3-9.7 4.3-14.1s2-8.3 3.1-10.6c1-2.2 1.2-2.1 1.8-2.3h.1c.6-.2.7-.3 2.7 1.1 2 1.4 4.8 4.3 7.9 7.6 3.1 3.3 6.4 7 10.8 10.1 4.4 3.1 11 5.6 17.7 3.8 6.7-1.8 11.2-7.2 13.5-12.1 2.3-4.9 3.3-9.8 4.3-14.2 1-4.4 2-8.3 3-10.6 1.1-2.2 1.2-2.1 1.8-2.3.6-.2.8-.3 2.8 1.1 2 1.4 4.8 4.3 7.9 7.6 3.1 3.3 6.4 7.1 10.8 10.2 4.5 3 11 5.5 17.7 3.7 6.7-1.8 11.2-7.2 13.5-12.1 2.1-4.4 3.1-8.9 4-13-.7-1.6-1.2-3.3-1.7-5-2.4-9.05-1.5-18.27 1.9-26.36zM240 231c-7 0-12.7 4.1-16.1 8.2-3.5 4.1-5.7 8.6-7.9 12.6-2.1 4-4.1 7.5-5.6 9.4-1.6 1.9-1.8 1.8-2.4 1.8-.6 0-.8.1-2.4-1.8-1.3-1.6-2.9-4.4-4.6-7.6v2.4c0 7.8-.2 15.6-.7 23.3 2.3 1 4.9 1.7 7.7 1.7 7 0 12.7-4.1 16.1-8.2 3.5-4.1 5.7-8.6 7.9-12.6 2.1-4 4.1-7.5 5.6-9.4 1.6-1.9 1.8-1.8 2.4-1.8.6 0 .8-.1 2.4 1.8 1.5 1.9 3.5 5.4 5.6 9.4 2.2 4 4.4 8.5 7.9 12.6 3.4 4.1 9.1 8.2 16.1 8.2 7 0 12.7-4.1 16.1-8.2 3.5-4.1 5.7-8.6 7.9-12.6 2.1-4 4.1-7.5 5.6-9.4 1.6-1.9 1.8-1.8 2.4-1.8.6 0 .8-.1 2.4 1.8 1.5 1.9 3.5 5.4 5.6 9.4 2.2 4 4.4 8.5 7.9 12.6 3.4 4.1 9.1 8.2 16.1 8.2 7 0 12.7-4.1 16.1-8.2 3.5-4.1 5.7-8.6 7.9-12.6 2.1-4 4.1-7.5 5.6-9.4 1.6-1.9 1.8-1.8 2.4-1.8.6 0 .8-.1 2.4 1.8 1.5 1.9 3.5 5.4 5.6 9.4 2.2 4 4.4 8.5 7.9 12.6 3.4 4.1 9.1 8.2 16.1 8.2 7 0 12.7-4.1 16.1-8.2 3.2-3.7 5.3-7.7 7.3-11.4-.3-1.8-.4-3.6-.4-5.4 0-9.4 3.2-18 8.6-25-6.8.2-12.4 4.2-15.7 8.2-3.5 4.1-5.7 8.6-7.9 12.6-2.1 4-4.1 7.5-5.6 9.4-1.6 1.9-1.8 1.8-2.4 1.8-.6 0-.8.1-2.4-1.8-1.5-1.9-3.5-5.4-5.6-9.4-2.2-4-4.4-8.5-7.9-12.6-3.4-4.1-9.1-8.2-16.1-8.2-7 0-12.7 4.1-16.1 8.2-3.5 4.1-5.7 8.6-7.9 12.6-2.1 4-4.1 7.5-5.6 9.4-1.6 1.9-1.8 1.8-2.4 1.8-.6 0-.8.1-2.4-1.8-1.5-1.9-3.5-5.4-5.6-9.4-2.2-4-4.4-8.5-7.9-12.6-3.4-4.1-9.1-8.2-16.1-8.2-7 0-12.7 4.1-16.1 8.2-3.5 4.1-5.7 8.6-7.9 12.6-2.1 4-4.1 7.5-5.6 9.4-1.6 1.9-1.8 1.8-2.4 1.8-.6 0-.8.1-2.4-1.8-1.5-1.9-3.5-5.4-5.6-9.4-2.2-4-4.4-8.5-7.9-12.6-3.4-4.1-9.1-8.2-16.1-8.2zm224 2c-12.8 0-23 10.2-23 23s10.2 23 23 23 23-10.2 23-23-10.2-23-23-23zm-269.2 92.4c-2 11.2-4.5 22.2-7.4 33.2.5 1.4 1 2.8 1.7 4.3 2.3 4.9 6.8 10.3 13.5 12.1 6.7 1.8 13.2-.7 17.6-3.8 4.5-3 7.8-6.8 10.8-10.1 3.1-3.3 6-6.2 8-7.6 2-1.4 2.1-1.3 2.7-1.1.6.1.8.1 1.8 2.4 1.1 2.2 2.1 6.1 3.1 10.5s2 9.3 4.3 14.2c2.3 4.9 6.8 10.3 13.5 12.1 6.7 1.8 13.3-.7 17.7-3.8 4.4-3.1 7.7-6.8 10.8-10.1 3.1-3.4 5.9-6.3 7.9-7.7 2-1.4 2.2-1.3 2.8-1.1.6.1.7.1 1.8 2.3 1 2.3 2 6.2 3 10.6 1 4.4 2 9.3 4.3 14.2 2.3 4.9 6.8 10.3 13.5 12.1 6.7 1.8 13.2-.7 17.7-3.7 4.4-3.1 7.7-6.9 10.8-10.2 3.1-3.3 5.9-6.2 7.9-7.6 2-1.4 2.2-1.3 2.8-1.1.6.2.7.1 1.8 2.3 1 2.3 2 6.2 3 10.6 1 4.4 2 9.3 4.3 14.2 2.3 4.9 6.8 10.3 13.5 12.1 6.7 1.8 13.2-.7 17.7-3.7 4-2.8 7.1-6.2 10-9.3.2-1.7.5-3.5 1-5.2 2.4-9 7.8-16.6 14.7-21.9-6.5-1.6-12.9.9-17.3 3.8-4.4 3.1-7.7 6.9-10.8 10.2-3.1 3.3-5.9 6.2-7.9 7.6-2 1.4-2.2 1.3-2.8 1.1-.6-.1-.7-.1-1.8-2.3-1-2.3-2-6.2-3-10.6-1-4.4-2-9.3-4.3-14.2-2.3-4.9-6.8-10.3-13.5-12.1-6.7-1.8-13.2.7-17.7 3.7-4.4 3.1-7.7 6.9-10.8 10.2-3.1 3.3-5.9 6.2-7.9 7.6-2 1.4-2.2 1.3-2.8 1.1-.6-.1-.7-.1-1.8-2.3-1-2.3-2-6.2-3-10.6-1-4.4-2-9.3-4.3-14.2-2.3-4.9-6.8-10.3-13.5-12.1-6.7-1.8-13.3.7-17.7 3.8-4.4 3.1-7.7 6.8-10.8 10.1-3.1 3.4-5.9 6.3-7.9 7.7-2 1.4-2.2 1.3-2.8 1.1-.6-.1-.8-.1-1.8-2.4-1.1-2.2-2.1-6.1-3.1-10.5s-2-9.3-4.3-14.2c-2.3-4.9-6.8-10.3-13.5-12.1-6.7-1.8-13.2.7-17.6 3.8-4.5 3-7.8 6.8-10.8 10.1-3.1 3.3-6 6.2-8 7.6-2 1.4-2.1 1.3-2.7 1.1-.6-.1-.8-.1-1.8-2.4-1.1-2.2-2.1-6.1-3.1-10.5s-2-9.3-4.3-14.2c-.8-1.7-1.9-3.4-3.2-5.1zm261.7 68.7c-10.3-.1-19.6 6.6-22.4 17.1-3.3 12.3 3.9 24.8 16.2 28.1 12.4 3.3 24.9-3.9 28.2-16.2 3.3-12.4-3.9-24.9-16.3-28.2-1.9-.5-3.8-.8-5.7-.8z" fill="#7f7f7f" fill-opacity="1"></path></g></svg>