<svg xmlns="http://www.w3.org/2000/svg" xmlns:xlink="http://www.w3.org/1999/xlink" fill-rule="evenodd" clip-rule="evenodd" image-rendering="optimizeQuality" shape-rendering="geometricPrecision" text-rendering="geometricPrecision" viewBox="0 1.5 50 50"><defs><filter id="d" width="1.16" height="1.07" x="-.08" y="-.03" color-interpolation-filters="sRGB"><feGaussianBlur stdDeviation=".41"/></filter><filter id="e" width="1.3" height="1.17" x="-.15" y="-.08" color-interpolation-filters="sRGB"><feGaussianBlur stdDeviation=".62"/></filter><filter id="h" width="1.22" height="1.44" x="-.11" y="-.22" color-interpolation-filters="sRGB"><feGaussianBlur stdDeviation=".42"/></filter><filter id="i" width="1.29" height="1.58" x="-.14" y="-.29" color-interpolation-filters="sRGB"><feGaussianBlur stdDeviation=".35"/></filter><filter id="j" width="1.39" height="1.15" x="-.2" y="-.07" color-interpolation-filters="sRGB"><feGaussianBlur stdDeviation=".12"/></filter><filter id="k" width="1.43" height="1.35" x="-.21" y="-.17" color-interpolation-filters="sRGB"><feGaussianBlur stdDeviation=".27"/></filter><linearGradient xlink:href="#a" id="b" x1="14.56" x2="35.92" y1="25.93" y2="25.93" gradientTransform="matrix(1.0739 0 0 1.0269 -2.26 -.38)" gradientUnits="userSpaceOnUse"/><linearGradient id="a" x1="9.24" x2="40.76" y1="27.27" y2="27.27" gradientTransform="matrix(1.0155 0 0 1.0103 -.39 .48)" gradientUnits="userSpaceOnUse"><stop offset="0" stop-color="#737373"/><stop offset="1" stop-color="#303030"/></linearGradient><linearGradient xlink:href="#a" id="c" x1="21.35" x2="29.14" y1="10.31" y2="10.31" gradientTransform="matrix(.83475 0 0 .90883 3.75 1.1)" gradientUnits="userSpaceOnUse"/><linearGradient xlink:href="#a" id="f" x1="5.61" x2="25.92" y1="42.3" y2="42.3" gradientTransform="matrix(1.0856 0 0 .94062 -2.56 2.94)" gradientUnits="userSpaceOnUse"/><linearGradient xlink:href="#a" id="g" x1="24.85" x2="45.16" y1="42.3" y2="42.3" gradientTransform="matrix(1.0856 0 0 .94062 -2.56 2.94)" gradientUnits="userSpaceOnUse"/></defs><path fill="url(#b)" stroke="#000" stroke-linecap="round" d="m31.02 32.27 4.72-5.95-10.19-12.97h-.7v-.01h-.71L13.95 26.3l4.73 5.95-1.55 4.86c-.03.39 3.1 2.04 7.72 2.04s7.74-1.65 7.71-2.04z"/><path fill="url(#c)" stroke="#000" stroke-linecap="round" stroke-linejoin="round" d="M24.83 7.7c-1.55 0-2.81 1.24-2.81 2.77s1.26 2.76 2.8 2.76 2.81-1.24 2.81-2.77a2.79 2.79 0 0 0-2.8-2.76z"/><path fill="none" stroke="#000" stroke-linecap="round" stroke-linejoin="round" d="M22.1 24.66h5.5m-2.75-2.75v5.5"/><path d="M-549.75-422.16c3.41 1.81.5 4.93-1.53 5.2.47.2.98.32 1.53.32 5.53-1.76 1.32-5.65 0-5.52zm-.69 5.52c3.1 4.11 5.85 8.46 8.73 12.7l-4.81 5.2 1.09 4.43 3 .86-1.35-4.67 4.57-5.81-9.86-12.7h-.68v-.01z" filter="url(#d)" opacity=".2" style="mix-blend-mode:normal" transform="matrix(1.0334 0 0 1.0218 592.95 439.08)"/><path d="M26.07 35.62c-3.08.01-6.4.5-8.37 1.77 2.19 1.5 5.8 1.82 8.89 1.77-7.14-1.45 2.03-2.97 4.84-3a25.13 25.13 0 0 0-5.36-.54z" opacity=".15"/><path fill="none" stroke="#000" d="M17.13 37.12s1.93-1.56 7.72-1.56 7.71 1.56 7.71 1.56m-13.88-4.86s1.86-1.02 6.17-1.03c4.31 0 6.18 1.03 6.18 1.03"/><path fill="#fff" d="m18.87 31.58-4.17-5.26 9.74-12.43-8.08 12.38z" filter="url(#e)" opacity=".3"/><path d="M25 39.16c-5.62 0-7.3-1.77-7.3-1.77s1.68-1.77 7.3-1.77 7.3 1.77 7.3 1.77-1.68 1.77-7.3 1.77z" opacity=".2"/><path fill="url(#f)" stroke="#000" stroke-linecap="round" stroke-linejoin="round" d="M22.65 39.16c-5.2 6.25-11.79-2.92-18.53 3.48l1.96 3.66C10.48 40.62 25 51.5 25 39.16z"/><path fill="url(#g)" stroke="#000" stroke-linecap="round" stroke-linejoin="round" d="M27.35 39.16c5.2 6.25 11.79-2.92 18.53 3.48l-1.97 3.66C39.51 40.62 25 51.5 25 39.16z"/><path fill="#fff" d="m4.83 42.73 1.4 2.6-.34-2.34c3.12-2.39 5.96-1.62 8.04-1.6 0 0-5.85-1.95-9.1 1.35z" filter="url(#h)" opacity=".3"/><path fill="#fff" d="m45.24 42.77-.49.89c-1.9-2.33-3.74-2.76-5.32-2.76 0 0 3.02-.72 5.81 1.87z" filter="url(#i)" opacity=".2"/><path fill="#fff" d="M23.67 12.37c-.25.06-2.6-2.42.42-3.98-.09 0-1.76 2.14-.42 3.98z" filter="url(#j)" opacity=".2"/><path fill="#fff" d="m603.76-67.57 1.05-3.3s.37-.26 1.45-.44c0 0-.74 2.23.51 3.04-2.15.34-2.53.56-3.01.7z" filter="url(#k)" opacity=".1" transform="matrix(1.0007 0 0 .98931 -586.04 102.79)"/></svg>