<svg xmlns:xlink="http://www.w3.org/1999/xlink" fill-rule="evenodd" clip-rule="evenodd" image-rendering="optimizeQuality" shape-rendering="geometricPrecision" text-rendering="geometricPrecision" viewBox="0 0 50 50">
  <defs>
    <linearGradient id="b" x1="2667.8291" x2="2761.3708" y1="-154.40002" y2="-154.40002" gradientUnits="userSpaceOnUse" xlink:href="#a"/>
    <linearGradient id="a" x1="2859.019" x2="3021.3357" y1="426.7789" y2="426.7789" gradientTransform="matrix(.7588 0 0 -.7519 203.2899 163.8478)" gradientUnits="userSpaceOnUse">
      <stop offset="0" stop-color="#303030"/>
      <stop offset="1" stop-color="#1e1e1e"/>
    </linearGradient>
  </defs>
  <g stroke-width=".70993209">
    <path fill="url(#b)" stroke="#010101" stroke-linecap="round" stroke-linejoin="round" stroke-width="1.34160376" d="M2714.6-210.3c-4.4 0-6.7 2.8-6.7 6.4 0 2.4.4 4.7 3.2 5.7-1.4 3.2-3.4 5.8-5.5 8.3-5.4 7.1-10.9 14.2-16 21.6-3.9 6-7.9 12.4-9.5 20.3-.7 3.7-.5 7.9 1.2 11.1 2.6 4.9 6.8 7.5 10.9 9.4 1.5.7 3.1 1.3 4.7 1.8l-1.6 4.6c1.8.8 3.6 1.5 5.5 2 1.1.3 2.1.6 3.1.8-.8 1.4-1.6 2.7-2.6 3.6-.1.1-.2.1-.3.2-8.4.8-21.1-7.1-32.5 5.4l5.5 10.6c.7-.8 1.6-1.4 2.8-1.8 11.6-4.1 26.7 8.8 35.9-4.7.8-1 1.4-2.7 1.9-5.3.5 2.5 1.1 4.2 1.8 5.1 13.2 15.6 25.5-2.3 38.8 6.6l5.5-10.6c-7.4-9.7-18.7-3.4-28-3.5-1.6-.6-3.1-1.3-4.6-2.4-.9-1-1.7-2.2-2.4-3.5.9-.2 1.7-.5 2.6-.7 2.1-.6 3.9-1.3 5.6-2l-1.5-4.5c3.4-1.1 6.7-2.5 9.8-4.5 3.3-2.2 6.6-5.7 7.5-10.9.9-5.2-.5-10.6-2.4-14.9-2.2-3.6-2.7-5.5-5-9.3-3.3-5.5-7.9-11.8-7.9-11.8l-6.9-8.6s-3.5-4.4-5.1-6.8c-1.3-1.8-2.8-3.8-3.9-6 2.6-1.1 2.8-3.2 2.8-5.6-.1-3.3-2.3-6.1-6.7-6.1z" class="st43" transform="matrix(.37417 0 0 .37122 -990.71238 82.315747)"/>
    <g transform="matrix(.37668 0 0 .3794 -948.35183062 -105.88353028)">
      <path fill="#d2d2d2" d="M2599.7 373.1l-2.5-7.1c-4-1-8.4-1.5-13.2-1.5-4.8 0-9.1.5-13.1 1.5l-2.5 7c4.9-1.4 10.1-2.2 15.6-2.2 5.5.1 10.7.8 15.7 2.3z" class="st1"/>
      <ellipse cx="2584" cy="296.70001" fill="#d2d2d2" class="st1" rx="3.4000001" ry="3.5"/>
    </g>
    <path fill="#d2d2d2" d="M24.96258425 30.23415342c-.26191655-.9280398-3.10558195-6.60764337-3.741665-6.68188656-.56124975-.11136477-1.1224995.11136478-1.4218327.55682388-.2244999.37121592-.11224995-.18560796-.1496666-.33409432.03741665-.77955344-.0748333-1.74471483.71091635-2.22729552.86058295-.66818866 2.28241565-.37121592 3.2926652 0 .2993332-.18560796-.18708325-.77955344-.18708325-1.11364776-.41158315-1.07652617.63608305-2.15305234 1.496666-2.821241.86058295.66818866 1.90824915 1.74471483 1.496666 2.821241 0 .33409432-.48641645.9280398-.18708325 1.11364776 1.01024955-.37121592 2.43208225-.66818866 3.2926652 0 .78574965.4825807.6734997 1.44774208.71091635 2.22729552-.03741665.14848636.0748333.70531024-.1496666.33409432-.2993332-.4454591-.86058295-.66818865-1.4218327-.55682388-.63608305.07424319-3.47974845 5.75384676-3.741665 6.68188656" class="st1"/>
  </g>
</svg>
