<?xml version="1.0" encoding="UTF-8"?>
<svg width="50mm" height="50mm" clip-rule="evenodd" fill-rule="evenodd" image-rendering="optimizeQuality" shape-rendering="geometricPrecision" text-rendering="geometricPrecision" version="1.1" viewBox="0 0 50 50" xmlns="http://www.w3.org/2000/svg" xmlns:cc="http://creativecommons.org/ns#" xmlns:dc="http://purl.org/dc/elements/1.1/" xmlns:rdf="http://www.w3.org/1999/02/22-rdf-syntax-ns#" xmlns:xlink="http://www.w3.org/1999/xlink">
 <metadata>
  <rdf:RDF>
   <cc:Work rdf:about="">
    <dc:format>image/svg+xml</dc:format>
    <dc:type rdf:resource="http://purl.org/dc/dcmitype/StillImage"/>
    <dc:title/>
   </cc:Work>
  </rdf:RDF>
 </metadata>
 <defs>
  <linearGradient id="linearGradient4563-5" x1="-15.796" x2="15.796" y1="316.7" y2="316.7" gradientTransform="matrix(1.0125 0 0 .9819 -59.002 -94.528)" gradientUnits="userSpaceOnUse">
   <stop stop-color="#968270" offset="0"/>
   <stop stop-color="#342c22" offset="1"/>
  </linearGradient>
  <linearGradient id="linearGradient3288-9-8" x1="272.88" x2="293.31" y1="-482.76" y2="-482.76" gradientTransform="matrix(1.0995 0 0 1.0409 -285.99 528.27)" gradientUnits="userSpaceOnUse" xlink:href="#linearGradient4563-5"/>
  <linearGradient id="linearGradient3290-6-2" x1="279.55" x2="286.66" y1="-497.61" y2="-497.61" gradientTransform="matrix(1.0995 0 0 1.0409 -285.99 528.27)" gradientUnits="userSpaceOnUse" xlink:href="#linearGradient4563-5"/>
  <linearGradient id="linearGradient3284-1-2" x1="272.22" x2="294.03" y1="-517.16" y2="-517.16" gradientTransform="matrix(.96056 0 0 1.0041 -256.68 560.73)" gradientUnits="userSpaceOnUse" xlink:href="#linearGradient4563-5"/>
  <linearGradient id="linearGradient3286-6-2" x1="272.94" x2="314.8" y1="-517.16" y2="-517.16" gradientTransform="matrix(.96056 0 0 1.0041 -256.68 560.73)" gradientUnits="userSpaceOnUse" xlink:href="#linearGradient4563-5"/>
 </defs>
 <g clip-rule="evenodd" shape-rendering="geometricPrecision" stroke-width=".99999">
  <g stroke="#000" stroke-linecap="round" stroke-linejoin="round">
   <path d="m31.017 31.542 4.9357-5.7298-10.031-12.509h-0.65341v-0.01h-0.66298l-10.031 12.509 4.9357 5.7297-1.9319 4.6922c-0.02868 0.37177 3.3794 1.9606 7.6854 1.9606 4.3057 0 7.715-1.5889 7.6856-1.9606z" fill="url(#linearGradient3288-9-8)" fill-rule="evenodd" image-rendering="optimizeQuality"/>
   <path d="m25.27 7.2573c-1.8592 0-3.3671 1.3496-3.3671 3.0146 0 1.6649 1.508 3.0145 3.3671 3.0145s3.3651-1.35 3.3651-3.0145c0-1.6646-1.5061-3.0144-3.3651-3.0146z" fill="url(#linearGradient3290-6-2)" fill-rule="evenodd" image-rendering="optimizeQuality"/>
   <path d="m19.491 31.562c4.4278-1.1953 7.0974-1.2326 11.526-0.02052" fill="none" image-rendering="optimizeQuality"/>
   <path d="m22.18 24.49h6.1785m-3.0893-2.9244v5.8491" fill="none" image-rendering="optimizeQuality"/>
  </g>
  <g fill-rule="evenodd">
   <path d="m25.27 7.2573c-0.52819 0-1.0259 0.11201-1.4709 0.30615 4.4257 1.352 4.2716 4.2626 5.67e-4 5.4166 0.44478 0.19401 0.94235 0.30616 1.4704 0.30616 1.8591 0 3.3651-1.3502 3.3651-3.0147 0-1.6646-1.506-3.014-3.3651-3.0142zm-0.6628 6.0305c2.9788 4.0538 5.6345 8.3333 8.406 12.52l-4.6312 5.1218 1.5431 4.3568 2.8914 0.84972-1.798-4.5994 4.9352-5.7292-10.03-12.509h-0.6536v-0.01046z" image-rendering="optimizeQuality" opacity=".15"/>
   <path d="m22.895 38.186c-5.2345 6.2272-11.351-2.9007-18.147 3.4698l1.9835 3.6346c4.4329-5.6435 16.525 5.0889 18.532-7.1044z" fill="url(#linearGradient3284-1-2)" image-rendering="optimizeQuality" stroke="#000" stroke-linecap="round" stroke-linejoin="round"/>
   <path d="m27.634 38.186c5.2345 6.2272 10.792-2.9007 17.588 3.4698l-1.9835 3.6346c-4.433-5.6435-15.966 5.0889-17.973-7.1044z" fill="url(#linearGradient3286-6-2)" image-rendering="optimizeQuality" stroke="#000" stroke-linecap="round" stroke-linejoin="round"/>
   <path d="m24.923 34.77c-2.8785 0.01165-5.5089 0.23104-7.3472 1.4491 2.0339 1.4476 4.9506 1.9185 7.8286 1.8636-6.6571-1.3922 1.4037-2.7581 4.0278-2.7921-1.4196-0.35422-2.97-0.5272-4.509-0.52068z" image-rendering="optimizeQuality" opacity=".15"/>
  </g>
 </g>
 <path d="m17.578 36.224s2.3187-1.2112 7.6854-1.2112c5.3669-5e-5 7.6854 1.2112 7.6854 1.2112" fill="none" stroke="#000"/>
</svg>
