<?xml version="1.0" encoding="UTF-8" standalone="no"?>
<svg
   xmlns:dc="http://purl.org/dc/elements/1.1/"
   xmlns:cc="http://creativecommons.org/ns#"
   xmlns:rdf="http://www.w3.org/1999/02/22-rdf-syntax-ns#"
   xmlns:svg="http://www.w3.org/2000/svg"
   xmlns="http://www.w3.org/2000/svg"
   xmlns:sodipodi="http://sodipodi.sourceforge.net/DTD/sodipodi-0.dtd"
   xmlns:inkscape="http://www.inkscape.org/namespaces/inkscape"
   clip-rule="evenodd"
   fill-rule="evenodd"
   height="50mm"
   image-rendering="optimizeQuality"
   shape-rendering="geometricPrecision"
   text-rendering="geometricPrecision"
   viewBox="0 0 50 50"
   width="50mm"
   version="1.1"
   id="svg11"
   sodipodi:docname="bB.svg"
   inkscape:version="0.92.4 (5da689c313, 2019-01-14)">
  <metadata
     id="metadata17">
    <rdf:RDF>
      <cc:Work
         rdf:about="">
        <dc:format>image/svg+xml</dc:format>
        <dc:type
           rdf:resource="http://purl.org/dc/dcmitype/StillImage" />
      </cc:Work>
    </rdf:RDF>
  </metadata>
  <defs
     id="defs15">
    <clipPath
       clipPathUnits="userSpaceOnUse"
       id="clipPath1360">
      <path
         style="fill:none;stroke:#000000;stroke-width:0.26458332px;stroke-linecap:butt;stroke-linejoin:miter;stroke-opacity:1"
         d="m 293.82275,121.23019 c 3.65665,1.32156 5.15901,5.84899 4.10909,9.38027 1.20385,4.04187 4.3343,7.92191 3.0417,12.3561 -0.9027,3.71567 -4.80274,6.56296 -3.99962,10.67465 1.17721,3.37401 5.29484,4.62202 6.25255,8.16629 0.39309,3.39892 4.22161,4.10687 7.02133,3.43627 2.38003,-0.76486 5.57067,0.32982 7.25781,-1.98583 1.96548,-3.02107 1.66799,-6.8213 1.9572,-10.27308 0.17812,-8.2005 -1.46582,-16.7871 -6.33209,-23.54159 -2.89777,-3.42761 -6.7261,-6.26711 -11.04455,-7.58349 -2.69282,-0.69508 -5.50087,-0.73076 -8.26342,-0.62959 z"
         id="path1362"
         inkscape:connector-curvature="0" />
    </clipPath>
    <clipPath
       clipPathUnits="userSpaceOnUse"
       id="clipPath1360-1">
      <path
         style="fill:none;stroke:#000000;stroke-width:0.26458332px;stroke-linecap:butt;stroke-linejoin:miter;stroke-opacity:1"
         d="m 293.82275,121.23019 c 3.65665,1.32156 5.15901,5.84899 4.10909,9.38027 1.20385,4.04187 4.3343,7.92191 3.0417,12.3561 -0.9027,3.71567 -4.80274,6.56296 -3.99962,10.67465 1.17721,3.37401 5.29484,4.62202 6.25255,8.16629 0.39309,3.39892 4.22161,4.10687 7.02133,3.43627 2.38003,-0.76486 5.57067,0.32982 7.25781,-1.98583 1.96548,-3.02107 1.66799,-6.8213 1.9572,-10.27308 0.17812,-8.2005 -1.46582,-16.7871 -6.33209,-23.54159 -2.89777,-3.42761 -6.7261,-6.26711 -11.04455,-7.58349 -2.69282,-0.69508 -5.50087,-0.73076 -8.26342,-0.62959 z"
         id="path1362-8"
         inkscape:connector-curvature="0" />
    </clipPath>
    <clipPath
       clipPathUnits="userSpaceOnUse"
       id="clipPath1360-13">
      <path
         style="fill:none;stroke:#000000;stroke-width:0.26458332px;stroke-linecap:butt;stroke-linejoin:miter;stroke-opacity:1"
         d="m 293.82275,121.23019 c 3.65665,1.32156 5.15901,5.84899 4.10909,9.38027 1.20385,4.04187 4.3343,7.92191 3.0417,12.3561 -0.9027,3.71567 -4.80274,6.56296 -3.99962,10.67465 1.17721,3.37401 5.29484,4.62202 6.25255,8.16629 0.39309,3.39892 4.22161,4.10687 7.02133,3.43627 2.38003,-0.76486 5.57067,0.32982 7.25781,-1.98583 1.96548,-3.02107 1.66799,-6.8213 1.9572,-10.27308 0.17812,-8.2005 -1.46582,-16.7871 -6.33209,-23.54159 -2.89777,-3.42761 -6.7261,-6.26711 -11.04455,-7.58349 -2.69282,-0.69508 -5.50087,-0.73076 -8.26342,-0.62959 z"
         id="path1362-2"
         inkscape:connector-curvature="0" />
    </clipPath>
    <clipPath
       clipPathUnits="userSpaceOnUse"
       id="clipPath1360-9">
      <path
         style="fill:none;stroke:#000000;stroke-width:0.26458332px;stroke-linecap:butt;stroke-linejoin:miter;stroke-opacity:1"
         d="m 293.82275,121.23019 c 3.65665,1.32156 5.15901,5.84899 4.10909,9.38027 1.20385,4.04187 4.3343,7.92191 3.0417,12.3561 -0.9027,3.71567 -4.80274,6.56296 -3.99962,10.67465 1.17721,3.37401 5.29484,4.62202 6.25255,8.16629 0.39309,3.39892 4.22161,4.10687 7.02133,3.43627 2.38003,-0.76486 5.57067,0.32982 7.25781,-1.98583 1.96548,-3.02107 1.66799,-6.8213 1.9572,-10.27308 0.17812,-8.2005 -1.46582,-16.7871 -6.33209,-23.54159 -2.89777,-3.42761 -6.7261,-6.26711 -11.04455,-7.58349 -2.69282,-0.69508 -5.50087,-0.73076 -8.26342,-0.62959 z"
         id="path1362-3"
         inkscape:connector-curvature="0" />
    </clipPath>
  </defs>
  <sodipodi:namedview
     pagecolor="#ffffff"
     bordercolor="#666666"
     borderopacity="1"
     objecttolerance="10"
     gridtolerance="10"
     guidetolerance="10"
     inkscape:pageopacity="0"
     inkscape:pageshadow="2"
     inkscape:window-width="958"
     inkscape:window-height="991"
     id="namedview13"
     showgrid="false"
     inkscape:zoom="1.2488333"
     inkscape:cx="121.03403"
     inkscape:cy="36.203336"
     inkscape:window-x="-8"
     inkscape:window-y="0"
     inkscape:window-maximized="0"
     inkscape:current-layer="svg11" />
  <linearGradient
     id="a"
     gradientUnits="userSpaceOnUse"
     x1="21.094"
     x2="77.669"
     y1="37.101"
     y2="37.469">
    <stop
       offset="0"
       stop-color="#fff"
       id="stop2" />
    <stop
       offset="1"
       stop-color="#fff"
       stop-opacity="0"
       id="stop4" />
  </linearGradient>
  <g
     id="g1889"
     transform="matrix(0.92010274,0,0,0.99553656,66.68265,319.73067)"
     style="stroke-width:1.04484832">
    <path
       sodipodi:nodetypes="ccccccccccccccccccccccccccccccccccccccc"
       inkscape:connector-curvature="0"
       id="path2227"
       d="m -45.301429,-315.80209 c -1.642242,2e-5 -2.465614,1.00324 -2.465436,2.2407 0.0018,0.86257 0.152573,1.64777 1.185849,2.01898 -0.512854,1.13419 -1.271615,2.05407 -2.026011,2.92076 -2.010387,2.49291 -4.016341,4.99597 -5.924788,7.62072 -1.446104,2.11857 -2.923266,4.38068 -3.527795,7.15563 -0.248873,1.31535 -0.190534,2.79977 0.443888,3.92792 0.947552,1.74123 2.526647,2.63946 4.033181,3.31505 0.571563,0.25535 1.154184,0.46111 1.741826,0.64079 l -0.582759,1.6366 c 0.661458,0.27845 1.335567,0.51706 2.019071,0.71572 0.388722,0.11852 0.772217,0.21814 1.152124,0.2992 -0.283069,0.47956 -0.580893,0.94056 -0.976058,1.26711 -0.03602,0.0236 -0.07292,0.043 -0.109109,0.0656 -3.111114,0.27422 -7.787053,-2.49272 -12.014732,1.91978 l 2.019069,3.75119 c 0.24847,-0.2815 0.596619,-0.49785 1.052435,-0.64337 4.30376,-1.45298 9.85711,3.10181 13.268035,-1.64279 0.277846,-0.34619 0.51898,-0.96586 0.711212,-1.85984 0.177962,0.89398 0.405059,1.49777 0.674513,1.80402 4.896708,5.49375 9.432762,-0.82146 14.335349,2.34198 l 2.039404,-3.75119 c -2.728539,-3.42103 -6.920367,-1.21308 -10.359701,-1.2175 -0.590902,-0.19577 -1.164453,-0.46299 -1.70314,-0.8568 -0.349915,-0.34188 -0.632719,-0.77087 -0.902158,-1.21749 0.3197,-0.0738 0.643833,-0.15878 0.975561,-0.25993 0.760526,-0.22541 1.44978,-0.46664 2.061723,-0.71676 l -0.567878,-1.5942 c 1.246466,-0.37651 2.468689,-0.8654 3.622521,-1.59991 1.229593,-0.78709 2.454101,-2.02026 2.787816,-3.8313 0.3391,-1.82121 -0.184524,-3.72449 -0.885792,-5.271 -0.82368,-1.279 -1.000443,-1.92604 -1.832588,-3.27782 -1.204868,-1.95723 -1.852119,-2.81855 -2.923213,-4.15428 -1.879765,2.43076 -9.51149,13.10384 -11.48283,9.89089 -0.09245,-2.38328 5.745012,-9.38006 8.918198,-12.92997 -0.646799,-0.78547 -1.280615,-1.56493 -1.902021,-2.38178 -0.486915,-0.64003 -1.032297,-1.32567 -1.425401,-2.12492 0.950257,-0.39293 1.033601,-1.14435 1.035077,-1.96112 1.79e-4,-1.23746 -0.823197,-2.24068 -2.46544,-2.2407 z"
       style="opacity:1;fill:#282828;fill-opacity:1;fill-rule:evenodd;stroke:#141414;stroke-width:0.67915136;stroke-linecap:round;stroke-linejoin:round;stroke-miterlimit:4;stroke-dasharray:none;stroke-dashoffset:1.85196841;stroke-opacity:1;paint-order:normal" />
    <g
       transform="translate(10.851143,-28.0633)"
       style="fill:#d2d2d2;fill-opacity:1;stroke:none;stroke-width:1.04484832;stroke-opacity:1"
       id="g1855">
      <path
         style="fill:#d2d2d2;fill-opacity:1;stroke:none;stroke-width:1.04484808;stroke-opacity:1"
         d="m -50.282779,-257.89375 -0.923955,-2.55842 c -1.494115,-0.36794 -3.138084,-0.54787 -4.924815,-0.54787 -1.771653,0 -3.400547,0.17993 -4.879586,0.54787 l -0.923959,2.53315 c 1.817764,-0.5226 3.754347,-0.77834 5.803545,-0.77834 2.02703,0 3.971596,0.26484 5.84877,0.80361 z"
         id="path1058-0-0"
         inkscape:connector-curvature="0" />
      <circle
         style="opacity:1;fill:#d2d2d2;fill-opacity:1;fill-rule:evenodd;stroke:none;stroke-width:0.62690902;stroke-linecap:square;stroke-linejoin:miter;stroke-miterlimit:4;stroke-dasharray:none;stroke-dashoffset:0;stroke-opacity:1;paint-order:markers fill stroke"
         id="path1851"
         cx="-56.152573"
         cy="-285.43045"
         r="1.25" />
    </g>
  </g>
</svg>
