<svg width="50mm" height="50mm" clip-rule="evenodd" fill-rule="evenodd" image-rendering="optimizeQuality" shape-rendering="geometricPrecision" text-rendering="geometricPrecision" version="1.1" viewBox="0 0 50 50" xmlns="http://www.w3.org/2000/svg" xmlns:xlink="http://www.w3.org/1999/xlink">
 <defs>
  <linearGradient id="linearGradient2161-8" x1="-505.97" x2="-484.22" y1="-408.5" y2="-408.5" gradientTransform="matrix(1.0113 0 0 1.0008 536.2 433.25)" gradientUnits="userSpaceOnUse" xlink:href="#linearGradient1508"/>
  <linearGradient id="linearGradient1508" x1="9.2407" x2="40.761" y1="27.266" y2="27.266" gradientTransform="matrix(.98495 0 0 .98605 .37559 .64119)" gradientUnits="userSpaceOnUse">
   <stop stop-color="#534f4e" offset="0"/>
   <stop stop-color="#131111" offset="1"/>
  </linearGradient>
  <linearGradient id="linearGradient2171-7" x1="-520.15" x2="-490.84" y1="-394.44" y2="-394.44" gradientTransform="matrix(1.0113 0 0 1.0008 536.2 433.25)" gradientUnits="userSpaceOnUse" xlink:href="#linearGradient1508"/>
  <linearGradient id="linearGradient2159-9" x1="-526.74" x2="-504.98" y1="-408.5" y2="-408.5" gradientTransform="matrix(1.0113 0 0 1.0008 536.2 433.25)" gradientUnits="userSpaceOnUse" xlink:href="#linearGradient1508"/>
  <filter id="filter1644-4" x="-.084759" y="-.033375" width="1.1695" height="1.0667" color-interpolation-filters="sRGB">
   <feGaussianBlur stdDeviation="0.39181543"/>
  </filter>
  <linearGradient id="linearGradient2163-3" x1="-510.08" x2="-500.85" y1="-412.72" y2="-412.72" gradientTransform="matrix(1.0113 0 0 1.0008 536.2 433.25)" gradientUnits="userSpaceOnUse" xlink:href="#linearGradient1508"/>
  <filter id="filter1894-1" x="-.10232" y="-.031241" width="1.2046" height="1.0625" color-interpolation-filters="sRGB">
   <feGaussianBlur stdDeviation="0.17214082"/>
  </filter>
  <filter id="filter1898-2" x="-.058271" y="-.040744" width="1.1165" height="1.0815" color-interpolation-filters="sRGB">
   <feGaussianBlur stdDeviation="0.25776142"/>
  </filter>
  <filter id="filter2826-3" x="-.18468" y="-.20001" width="1.3694" height="1.4" color-interpolation-filters="sRGB">
   <feGaussianBlur stdDeviation="0.45456726"/>
  </filter>
  <filter id="filter2830-4" x="-.17344" y="-.21529" width="1.3469" height="1.4306" color-interpolation-filters="sRGB">
   <feGaussianBlur stdDeviation="0.41061648"/>
  </filter>
  <filter id="filter1664-2" x="-.1497" y="-.11022" width="1.2994" height="1.2204" color-interpolation-filters="sRGB">
   <feGaussianBlur stdDeviation="0.59458106"/>
  </filter>
  <filter id="filter1668-3" x="-.40289" y="-.16883" width="1.8058" height="1.3377" color-interpolation-filters="sRGB">
   <feGaussianBlur stdDeviation="0.59458106"/>
  </filter>
  <filter id="filter1672-2" x="-.16273" y="-.16801" width="1.3255" height="1.336" color-interpolation-filters="sRGB">
   <feGaussianBlur stdDeviation="0.59458106"/>
  </filter>
 </defs>
 <g clip-rule="evenodd" shape-rendering="geometricPrecision">
  <g stroke="#000">
   <path d="m29.116 18.256c6.3868-5.7409 17.544-2.6063 16.851 6.8125-0.67884 6.1704-7.0132 8.3474-7.0132 8.3474s-3.827-2.2278-13.94-2.2279l-0.01375-3.9929z" fill="url(#linearGradient2161-8)" fill-rule="evenodd"/>
   <path d="m37.927 38.295 1.3044 5.2758s-3.7788 2.2279-14.247 2.2281c-10.468-2e-4 -14.247-2.2281-14.247-2.2281l1.3039-5.2758-0.99653-4.8785s3.6452-2.228 13.941-2.2281c10.295-9e-5 13.939 2.2281 13.939 2.2281z" fill="url(#linearGradient2171-7)" fill-rule="evenodd"/>
   <path d="m10.738 43.57s3.779-2.2282 14.248-2.2282c10.469-8e-5 14.248 2.2282 14.248 2.2282" fill="none" image-rendering="optimizeQuality"/>
   <path d="m12.042 38.295s3.3937-2.2281 12.978-2.2282c9.5837-9e-5 12.977 2.2282 12.977 2.2282" fill="none" image-rendering="optimizeQuality"/>
  </g>
  <g fill-rule="evenodd">
   <path d="m20.884 18.256c-6.3868-5.7409-17.544-2.6063-16.851 6.8125 0.67883 6.1705 7.0132 8.3474 7.0132 8.3474s3.827-2.2278 13.94-2.2279l0.01375-3.9929z" fill="url(#linearGradient2159-9)" stroke="#000"/>
   <path d="m21.634 9.3756h6.7327m-3.3665-3.5825v7.9811" fill="#59917a" image-rendering="optimizeQuality" stroke="#000" stroke-linecap="round" stroke-linejoin="round"/>
   <path transform="matrix(1.0113 0 0 1.0008 536.2 433.25)" d="m-494.08-417.53c-0.55524 4e-3 -1.1328 0.0512-1.7317 0.14551 9.0875-0.22351 13.443 11.958 1.3939 16.485l-1.272 4.9584 1.5258 5.4821 2.9613 1.1046-1.4892-5.4685 0.9866-5.2069s6.2729-1.7817 6.9341-7.821c0.50626-4.6237-2.5471-9.7267-9.3088-9.6791z" filter="url(#filter1644-4)" image-rendering="optimizeQuality" opacity=".3" style="mix-blend-mode:normal"/>
   <path d="m20.884 18.256 4.1296 8.6534 4.1296-8.6534s0.70326-4.7675-4.1296-4.7675c-4.8328 0-4.1296 4.7675-4.1296 4.7675z" fill="url(#linearGradient2163-3)" image-rendering="optimizeQuality" stroke="#000" stroke-linejoin="round"/>
   <path transform="matrix(1.0113 0 0 1.0008 536.2 433.25)" d="m-505.48-419.2c4.7574 0.97002 0.86734 10.52 0.0159 13.186 0.024 0.0251 3.0784-5.4037 4.0203-8.9129 0.0891-4.5046-3.8674-4.3926-4.0362-4.2734z" filter="url(#filter1894-1)" image-rendering="optimizeQuality" opacity=".3" style="mix-blend-mode:normal"/>
   <path transform="matrix(1.0113 0 0 1.0008 536.2 433.25)" d="m-505.49-402.26-9.1e-4 -0.0753c9.1e-4 0.0753 0.0156-3.3953 0.0156-3.3953s-2.6809-6.8956-4.0516-8.9141c-1.3335-1.9637-3.7782-2.9295-6.5648-2.7843 3.9722 1.7651 8.9372 10.029 10.602 15.169z" filter="url(#filter1898-2)" image-rendering="optimizeQuality" opacity=".3" style="mix-blend-mode:normal"/>
  </g>
 </g>
 <g fill="#fff">
  <path transform="matrix(1.0113 0 0 1.0008 536.2 433.25)" d="m-517.85-394.29c0.10145 0.0167 1.0006-0.71826 4.9423-1.4588-1.7142 1.5839-1.0244 2.8161-0.48171 4.1358 0 0-1.9264 0.12022-5.4255 1.3187z" filter="url(#filter2826-3)" opacity=".2"/>
  <path transform="matrix(1.0113 0 0 1.0008 536.2 433.25)" d="m-517.89-395.45c0.0882-0.0249 1.0192-0.64449 4.8826-1.3958-3.0701-1.7005-3.3149-3.1817-3.3149-3.1817s-0.66125 0.14479-2.367 0.81525z" filter="url(#filter2830-4)" opacity=".2"/>
  <path transform="matrix(1.0113 0 0 1.0008 536.2 433.25)" d="m-523.97-403.93c-1.1828-1.6459-1.9887-3.847-1.4295-6.6302 1.4204-7.0688 9.3512-6.2913 9.3512-6.2913-11.465 3.4651-7.7838 12.952-7.9217 12.921z" filter="url(#filter1664-2)" opacity=".2"/>
  <path transform="matrix(1.0113 0 0 1.0008 536.2 433.25)" d="m-506.91-410.43-2.0899-4.3989s-0.68282-4.1166 3.5006-4.0528c-4.1658 1.3299-1.4107 8.4517-1.4107 8.4517z" filter="url(#filter1668-3)" opacity=".2"/>
  <path transform="matrix(1.0113 0 0 1.0008 536.2 433.25)" d="m-503.49-408.5 2.7213-5.924s2.4193-2.2218 6.0479-2.5695c-3.9033 1.0313-6.2593 4.8708-8.7692 8.4935z" filter="url(#filter1672-2)" opacity=".2"/>
 </g>
 <path d="m25.302 41.388c-10.311 1e-4 -14.564 2.1827-14.564 2.1827s4.2529 2.1825 14.564 2.1825h0.02124c-15.441-1.99 7.3148-3.803 8.2842-3.8107-2.1733-0.31642-4.9171-0.55383-8.3052-0.55373z" clip-rule="evenodd" fill-rule="evenodd" image-rendering="optimizeQuality" opacity=".3" shape-rendering="geometricPrecision"/>
 <path d="m24.985 45.76c-9.241 8e-5 -13.744-2.2088-13.744-2.2088s4.503-2.2087 13.744-2.2088c9.241-8e-5 13.744 2.2088 13.744 2.2088s-4.503 2.2087-13.744 2.2088z" clip-rule="evenodd" fill-rule="evenodd" image-rendering="optimizeQuality" opacity=".3" shape-rendering="geometricPrecision" stroke="#000"/>
</svg>
