<?xml version="1.0" encoding="UTF-8"?>
<svg width="50mm" height="50mm" clip-rule="evenodd" fill-rule="evenodd" image-rendering="optimizeQuality" shape-rendering="geometricPrecision" text-rendering="geometricPrecision" version="1.1" viewBox="0 0 50 50" xmlns="http://www.w3.org/2000/svg" xmlns:cc="http://creativecommons.org/ns#" xmlns:dc="http://purl.org/dc/elements/1.1/" xmlns:rdf="http://www.w3.org/1999/02/22-rdf-syntax-ns#">
 <metadata>
  <rdf:RDF>
   <cc:Work rdf:about="">
    <dc:format>image/svg+xml</dc:format>
    <dc:type rdf:resource="http://purl.org/dc/dcmitype/StillImage"/>
    <dc:title/>
   </cc:Work>
  </rdf:RDF>
 </metadata>
 <g transform="translate(-2833.8 468.03)" clip-rule="evenodd" fill-rule="evenodd" shape-rendering="geometricPrecision">
  <path d="m2857.7-464.53v1.6093h-1.0912v1.8525h1.0912v1.3128h-2.3432v-1.0236h-1.9339v1.0236h-1.1753v2.096h1.1753v1.0236h1.9339v-1.0236h2.3432v3.2697h-0.4318c-2.7633 0.30401-4.7018 1.3913-4.7044 2.639 0 0.38503 1.7469 0.7655 2.11 1.1162-8.9951 0.84032-16.604 5.3035-16.387 8.0195l6.994 12.762s-2.8249 3.2186-2.8934 4.1118c0 1.221 7.3389 2.211 16.393 2.211 9.0544-2e-5 16.394-0.99003 16.394-2.211-0.068-0.89326-2.8937-4.1123-2.8937-4.1123l6.9955-12.762c0.2174-2.7155-7.3901-7.1776-16.383-8.019 0.3622-0.35092 2.105-0.73158 2.1067-1.1167 0-1.2475-1.9419-2.3342-4.7049-2.638 2e-4 0 0 0 0 0h-0.3638v-3.2697h2.3429v1.0236h1.9337v-1.0236h1.1756v-2.0961h-1.1756v-1.0236h-1.9337v1.0236h-2.3429v-1.3128h1.0907v-1.8525h-1.0907v-1.6093h-1.117z" fill="#191919" image-rendering="optimizeQuality" stroke="#191919" stroke-dashoffset="1.852" stroke-linecap="round" stroke-linejoin="round"/>
  <path d="m2858.8-448.38c-0.011-9e-5 -0.015 3e-3 -0.018 5e-3 -2.0075 0.62265-4.5598 1.4168-6.023 2.7416-1.9399 1.8361-1.8179 4.1395-1.5725 6.134 0.2156 1.7112 2.9628 8.7194 3.3287 9.2796-0.3047-2.7528-2.9567-10.987-1.5261-13.18 1.1957-1.9404 3.4702-3.2072 5.3738-4.6667 0.028-0.0215 0.361-0.20491 0.4362-0.28009 0.076 0.0751 0.4068 0.2586 0.4358 0.28009 1.9041 1.4595 4.1782 2.7263 5.3739 4.6667 1.4308 2.1935-1.221 10.427-1.5256 13.18 0.366-0.5602 3.1129-7.5684 3.3285-9.2796 0.2451-1.9945 0.3674-4.2979-1.5725-6.134-1.4634-1.3248-4.0159-2.1187-6.0232-2.7414 0-3e-3 -0.011-5e-3 -0.018-5e-3z" fill="#dcdcdc" image-rendering="optimizeQuality"/>
  <path d="m2858.8-448.41c-0.023-1e-4 -0.03 3e-3 -0.036 4e-3 -4.2948 0.57096-9.7557 1.2992-12.887 2.514-4.1505 1.6836-3.8892 3.7959-3.3647 5.6248 0.4616 1.5692 5.1787 9.5215 5.962 10.035-0.6522-2.5244-6.7205-11.601-3.6595-13.612 2.5583-1.7793 8.9794-2.941 13.052-4.2794 0.062-0.0197 0.772-0.18789 0.9327-0.25684 0.1607 0.069 0.8706 0.23714 0.9331 0.25684 4.0732 1.3384 10.494 2.5 13.052 4.2794 3.0612 2.0114-3.0064 11.088-3.6585 13.612 0.7832-0.51373 5.5002-8.466 5.9611-10.035 0.5247-1.8289 0.7863-3.9411-3.3642-5.6248-3.131-1.2148-8.5922-1.9429-12.887-2.5138 0-3e-3 -0.019-4e-3 -0.035-4e-3z" fill="#dcdcdc" image-rendering="optimizeQuality"/>
 </g>
</svg>
