<svg xmlns="http://www.w3.org/2000/svg" xmlns:xlink="http://www.w3.org/1999/xlink" fill-rule="evenodd" clip-rule="evenodd" image-rendering="optimizeQuality" shape-rendering="geometricPrecision" text-rendering="geometricPrecision" viewBox="0 1.5 50 50"><defs><filter id="c" width="1.128" height="1.077" x="-.064" y="-.038" color-interpolation-filters="sRGB"><feGaussianBlur stdDeviation=".57"/></filter><filter id="e" width="1.216" height="1.115" x="-.108" y="-.057" color-interpolation-filters="sRGB"><feGaussianBlur stdDeviation=".527"/></filter><filter id="f" width="1.307" height="1.167" x="-.153" y="-.083" color-interpolation-filters="sRGB"><feGaussianBlur stdDeviation=".612"/></filter><filter id="g" width="1.469" height="1.834" x="-.234" y="-.417" color-interpolation-filters="sRGB"><feGaussianBlur stdDeviation=".299"/></filter><filter id="h" width="1.461" height="1.329" x="-.231" y="-.164" color-interpolation-filters="sRGB"><feGaussianBlur stdDeviation=".312"/></filter><filter id="i" width="1.238" height="1.198" x="-.119" y="-.099" color-interpolation-filters="sRGB"><feGaussianBlur stdDeviation=".467"/></filter><filter id="j" width="1.358" height="1.415" x="-.179" y="-.207" color-interpolation-filters="sRGB"><feGaussianBlur stdDeviation=".292"/></filter><filter id="k" width="1.641" height="1.823" x="-.321" y="-.411" color-interpolation-filters="sRGB"><feGaussianBlur stdDeviation="1.013"/></filter><filter id="l" width="1.479" height="1.139" x="-.239" y="-.07" color-interpolation-filters="sRGB"><feGaussianBlur stdDeviation=".279"/></filter><linearGradient xlink:href="#a" id="b" x1="-736.5" x2="-696.5" y1="-367.96" y2="-367.96" gradientTransform="matrix(.99995 0 0 .99606 740.69 393.31)" gradientUnits="userSpaceOnUse"/><linearGradient id="a" x1="9.241" x2="40.761" y1="27.266" y2="27.266" gradientTransform="matrix(1.0155 0 0 1.0103 -.389 .482)" gradientUnits="userSpaceOnUse"><stop offset="0" stop-color="#737373"/><stop offset="1" stop-color="#303030"/></linearGradient><linearGradient xlink:href="#a" id="d" x1="-116.32" x2="-77.199" y1="299.9" y2="299.9" gradientTransform="matrix(1.1045 0 0 1.0827 130.81 -314.94)" gradientUnits="userSpaceOnUse"/></defs><path fill="url(#b)" stroke="#000" stroke-dashoffset="1.852" stroke-linecap="round" d="M10.393 35.883c2.887 2.407 4.157-.702 5.178-3.053 1.398-3.953 7.128-1.826 8.733-6.795 2.83 11.085-9.865 8.393-9.264 20.26h28.386c1.913-22.102-5.002-37.42-25.957-35.287-2.083-2.176-4.992-3.558-4.992-3.558-1.13 2.085-1.012 4.716.667 5.722.439.4-3.527 2.078-2.996 7.892 0 0-3.192 5.317-5.055 8.811-1.356 2.732 1.074 6.265 4.536 6.59"/><path d="M16.859 17.328a.472.472 0 0 0-.053.006c-2.943.479-3.352 3.258-3.352 3.258a.55.55 0 0 0 1.079.218s.172-2.023 2.451-2.393a.549.549 0 0 0-.125-1.089z" color="#000" style="font-feature-settings:normal;font-variant-alternates:normal;font-variant-caps:normal;font-variant-east-asian:normal;font-variant-ligatures:normal;font-variant-numeric:normal;font-variant-position:normal;font-variation-settings:normal;inline-size:0;isolation:auto;mix-blend-mode:normal;shape-margin:0;shape-padding:0;text-decoration-color:#000;text-decoration-line:none;text-decoration-style:solid;text-indent:0;text-orientation:mixed;text-transform:none;white-space:normal"/><path d="M16.7 19.572a1.117 1.204 69.395 0 1-.943 1.366 1.117 1.204 69.395 0 1-1.401-.825 1.117 1.204 69.395 0 1 .943-1.366 1.117 1.204 69.395 0 1 1.401.825z" paint-order="markers fill stroke"/><path d="M8.419 29.95a.55.55 0 0 0-.384.16c-.438.436-.669.85-.78 1.172-.11.323-.093.617-.093.617a.55.55 0 0 0 .597.495c.304-.027.715-.248.687-.55 0 0-.014 0 .04-.162.056-.16.184-.42.514-.749.215-.214.028-.609-.188-.823a.552.552 0 0 0-.393-.16z" color="#000" style="font-feature-settings:normal;font-variant-alternates:normal;font-variant-caps:normal;font-variant-east-asian:normal;font-variant-ligatures:normal;font-variant-numeric:normal;font-variant-position:normal;font-variation-settings:normal;inline-size:0;isolation:auto;mix-blend-mode:normal;shape-margin:0;shape-padding:0;text-decoration-color:#000;text-decoration-line:none;text-decoration-style:solid;text-indent:0;text-orientation:mixed;text-transform:none;white-space:normal"/><path d="M-718.42-382.86c17.099.645 19.298 14.991 17.595 34.473h3.526c1.754-20.341-3.914-34.957-21.01-35.602z" filter="url(#c)" opacity=".2" transform="matrix(.99995 0 0 .99606 740.69 393.31)"/><path fill="url(#d)" stroke="#000" stroke-linecap="round" d="M17.454 12.38s.652-4.143 3.9-4.848c0 0 2.08 1.085 1.664 5.969" paint-order="markers fill stroke"/><path fill="none" stroke="#000" stroke-linecap="round" d="M12.206 33.765c-.306.526-1.452 1.747-2.575 2.701"/><path fill="#fff" d="m5.427 30.42 4.195-7.324 1.172-1.892s-.797-4.414 2.719-7.38c0 0 .554-.615.003-1.107-.553-.492-1.936-2.128-.753-4.336-.077-.022.274 4.806 4.353 4.864-3.919 1.25-6.11 4.99-5.15 8.582-.736 1.173-1.458 2.08-2.375 3.208-.82 1.01-1.796 2.196-3.078 3.907-.34.454-.7.944-1.085 1.478z" filter="url(#e)" opacity=".3" style="mix-blend-mode:normal"/><path fill="#fff" d="M15.757 45.676c-.744-9.435 10.084-8.795 9.438-17.61 1.104 10.971-7.883 9.13-9.438 17.61z" filter="url(#f)" opacity=".2"/><path fill="#fff" d="M-733.97-364.25c-.015.573 1.587-1.887 3.06-.439-.597-1.43-2.217-1.902-3.06.439z" filter="url(#g)" opacity=".2" transform="matrix(.99995 0 0 .99606 740.69 393.31)"/><path fill="#fff" d="M18.027 12.578s.58-3.7 3.249-4.46c-1.554 1.972-1.745 5.155-3.249 4.46z" filter="url(#h)" opacity=".2"/><path d="M-716.03-369.64c.405-1.184.326-3.052-.03-3.612-2.96 8.671-8.246 5.492-9.102 11.347 1.64-3.708 7.813-2.42 9.132-7.735z" filter="url(#i)" opacity=".2" transform="matrix(.99995 0 0 .99606 740.69 393.31)"/><path fill="#fff" d="M-723.87-377.47c-3.217.615-3.405 3.277-3.405 3.277s-.499.21-.49-.328c-.231-.688 1.215-3.475 3.895-2.949z" filter="url(#j)" opacity=".2" transform="matrix(.99995 0 0 .99606 740.69 393.31)"/><path fill="#fff" d="M-723.63-356.13c-6.532-.827-7.581 5.84-7.581 5.84 1.11-2.066 4.294-4.784 7.581-5.84z" filter="url(#k)" opacity=".1" transform="matrix(.76507 0 0 .92137 575.69 349.88)"/><path fill="none" stroke="#000" stroke-linecap="round" stroke-linejoin="round" d="M24.304 26.035s.399-.909.744-3.487"/><path d="M23.987 32.169c.364-.026 5.37-6.215 1.061-9.62l-.51 4.556c.107 1.682.437 3.359-.551 5.064z" filter="url(#l)" opacity=".2"/></svg>