<?xml version="1.0" encoding="UTF-8" standalone="no"?>
<svg
   xmlns:dc="http://purl.org/dc/elements/1.1/"
   xmlns:cc="http://creativecommons.org/ns#"
   xmlns:rdf="http://www.w3.org/1999/02/22-rdf-syntax-ns#"
   xmlns:svg="http://www.w3.org/2000/svg"
   xmlns="http://www.w3.org/2000/svg"
   xmlns:xlink="http://www.w3.org/1999/xlink"
   xmlns:sodipodi="http://sodipodi.sourceforge.net/DTD/sodipodi-0.dtd"
   xmlns:inkscape="http://www.inkscape.org/namespaces/inkscape"
   clip-rule="evenodd"
   fill-rule="evenodd"
   height="50mm"
   image-rendering="optimizeQuality"
   shape-rendering="geometricPrecision"
   text-rendering="geometricPrecision"
   viewBox="0 0 50 50"
   width="50mm"
   version="1.1"
   id="svg11"
   sodipodi:docname="bN.svg"
   inkscape:version="0.92.4 (5da689c313, 2019-01-14)">
  <metadata
     id="metadata17">
    <rdf:RDF>
      <cc:Work
         rdf:about="">
        <dc:format>image/svg+xml</dc:format>
        <dc:type
           rdf:resource="http://purl.org/dc/dcmitype/StillImage" />
      </cc:Work>
    </rdf:RDF>
  </metadata>
  <defs
     id="defs15">
    <clipPath
       clipPathUnits="userSpaceOnUse"
       id="clipPath1714-5">
      <path
         style="opacity:0.03999999;fill:#1f1a17;fill-opacity:1;stroke:#000000;stroke-width:0.26458332px;stroke-linecap:butt;stroke-linejoin:miter;stroke-opacity:1"
         d="m 521.29531,126.47604 c 4.81907,6.35734 13.07762,9.51041 16.70881,16.86005 2.22607,4.77045 1.22703,10.19989 2.0052,15.26169 0.35848,3.46623 1.97474,7.21572 5.43679,8.5587 3.01339,1.36014 7.09586,1.25416 9.26581,-1.54677 2.84882,-3.70724 3.09351,-8.67465 2.95532,-13.17021 -0.0124,-5.17478 -0.43114,-10.54795 -2.90354,-15.20523 -2.34653,-4.78986 -7.0966,-7.65403 -11.60772,-10.12145 -5.79305,-2.99297 -12.45994,-4.82112 -18.99846,-3.86445 -1.50087,0.33452 -2.94537,1.5747 -2.86221,3.22767 z"
         id="path1716-5"
         inkscape:connector-curvature="0" />
    </clipPath>
    <clipPath
       clipPathUnits="userSpaceOnUse"
       id="clipPath1056">
      <path
         style="opacity:0.07000002;fill:#ffffff;fill-opacity:1;stroke:none;stroke-width:0.26458332px;stroke-linecap:butt;stroke-linejoin:miter;stroke-opacity:1"
         d="m 830.76193,-38.631318 c 6.28126,7.141276 17.66636,10.241693 19.87764,20.527647 1.38758,6.022802 1.51289,12.87075 -2.47658,17.98128475 -4.22219,4.93076685 0.98782,9.71003215 6.32365,8.56668615 7.33973,1.5006468 10.41109,-7.50290883 9.7818,-13.3984276 -0.28318,-6.9057063 -2.96648,-13.4427183 -4.8287,-19.9832333 -3.68985,-5.465087 -10.12256,-8.264442 -15.82115,-11.148837 -4.06239,-1.668788 -8.44267,-2.72192 -12.85666,-2.54512 z"
         id="path1059"
         inkscape:connector-curvature="0" />
    </clipPath>
    <clipPath
       clipPathUnits="userSpaceOnUse"
       id="clipPath1056-0">
      <path
         style="opacity:0.07000002;fill:#ffffff;fill-opacity:1;stroke:none;stroke-width:0.26458332px;stroke-linecap:butt;stroke-linejoin:miter;stroke-opacity:1"
         d="m 830.76193,-38.631318 c 6.28126,7.141276 17.66636,10.241693 19.87764,20.527647 1.38758,6.022802 1.51289,12.87075 -2.47658,17.98128475 -4.22219,4.93076685 0.98782,9.71003215 6.32365,8.56668615 7.33973,1.5006468 10.41109,-7.50290883 9.7818,-13.3984276 -0.28318,-6.9057063 -2.96648,-13.4427183 -4.8287,-19.9832333 -3.68985,-5.465087 -10.12256,-8.264442 -15.82115,-11.148837 -4.06239,-1.668788 -8.44267,-2.72192 -12.85666,-2.54512 z"
         id="path1059-8"
         inkscape:connector-curvature="0" />
    </clipPath>
    <clipPath
       clipPathUnits="userSpaceOnUse"
       id="clipPath1056-3">
      <path
         style="opacity:0.07000002;fill:#ffffff;fill-opacity:1;stroke:none;stroke-width:0.26458332px;stroke-linecap:butt;stroke-linejoin:miter;stroke-opacity:1"
         d="m 830.76193,-38.631318 c 6.28126,7.141276 17.66636,10.241693 19.87764,20.527647 1.38758,6.022802 1.51289,12.87075 -2.47658,17.98128475 -4.22219,4.93076685 0.98782,9.71003215 6.32365,8.56668615 7.33973,1.5006468 10.41109,-7.50290883 9.7818,-13.3984276 -0.28318,-6.9057063 -2.96648,-13.4427183 -4.8287,-19.9832333 -3.68985,-5.465087 -10.12256,-8.264442 -15.82115,-11.148837 -4.06239,-1.668788 -8.44267,-2.72192 -12.85666,-2.54512 z"
         id="path1059-4"
         inkscape:connector-curvature="0" />
    </clipPath>
    <linearGradient
       inkscape:collect="always"
       xlink:href="#linearGradient4254"
       id="linearGradient2171"
       gradientUnits="userSpaceOnUse"
       gradientTransform="matrix(1.0275377,0,0,1.0198588,49.199455,12.564225)"
       x1="-11.217585"
       y1="-632.67462"
       x2="25.779123"
       y2="-632.67462" />
    <linearGradient
       inkscape:collect="always"
       id="linearGradient4254">
      <stop
         style="stop-color:#303030;stop-opacity:1"
         offset="0"
         id="stop4250" />
      <stop
         style="stop-color:#1e1e1e;stop-opacity:1"
         offset="1"
         id="stop4252" />
    </linearGradient>
  </defs>
  <sodipodi:namedview
     pagecolor="#ffffff"
     bordercolor="#666666"
     borderopacity="1"
     objecttolerance="10"
     gridtolerance="10"
     guidetolerance="10"
     inkscape:pageopacity="0"
     inkscape:pageshadow="2"
     inkscape:window-width="1920"
     inkscape:window-height="1001"
     id="namedview13"
     showgrid="false"
     inkscape:zoom="1.3204611"
     inkscape:cx="331.51008"
     inkscape:cy="-32.475563"
     inkscape:window-x="-9"
     inkscape:window-y="-9"
     inkscape:window-maximized="1"
     inkscape:current-layer="svg11" />
  <linearGradient
     id="a"
     gradientUnits="userSpaceOnUse"
     x1="21.253"
     x2="77.641"
     y1="37.592"
     y2="37.469">
    <stop
       offset="0"
       stop-color="#fff"
       id="stop2" />
    <stop
       offset="1"
       stop-color="#fff"
       stop-opacity="0"
       id="stop4" />
  </linearGradient>
  <g
     transform="translate(-31.681254,657.67463)"
     id="g2187">
    <path
       sodipodi:nodetypes="ccccccccccccccccccccccccccccccc"
       inkscape:connector-curvature="0"
       id="path2225-0-0"
       d="m 50.962274,-652.84933 c -0.830006,-0.0304 -1.597412,0.42225 -2.143477,1.07047 -0.247916,0.28877 0.329869,0.57925 0.428267,0.8586 0.41116,0.60535 0.944005,1.17794 1.144186,1.90952 -0.73923,0.80981 -1.675204,1.39022 -2.50384,2.09075 -0.927126,0.79459 -2.030034,1.55937 -2.457325,2.80775 -0.154154,0.39521 0.003,0.90834 -0.397257,1.15766 -2.08789,2.32669 -4.244097,4.58699 -6.260403,6.98503 -0.195933,0.7406 0.06434,1.62423 -0.445912,2.26143 -0.580214,0.88291 -0.280929,2.06585 0.265194,2.87644 0.403831,0.615 0.715109,0.8756 1.32662,1.26382 3.006366,-4.36389 5.416178,-1.16928 1.527963,0.79148 0.955027,0.12245 1.956286,0.27747 2.898958,0.004 0.668715,-0.38265 1.112503,-1.09432 1.669761,-1.62895 0.784974,-0.84875 1.617507,-1.83111 2.790956,-1.97982 1.573905,-0.2673 3.332148,-0.37167 4.588503,-1.56925 0.593915,-0.46904 1.004554,-1.19526 1.671366,-1.5476 0.643434,-0.19601 1.082248,0.48554 1.404567,0.97011 0.75862,1.16749 0.905564,2.89938 -0.02834,4.00978 -0.642492,0.71566 -1.591977,1.07324 -2.391561,1.58142 -3.109594,1.77458 -6.334974,3.4522 -8.99308,5.97743 -1.514936,1.47049 -2.827151,3.47913 -2.777054,5.76134 0.05644,1.28002 0.262218,2.62384 0.930318,3.71178 0.284712,0.40301 0.652904,0.80104 1.084303,0.98435 7.172172,-0.004 14.346089,0.0121 21.517094,-0.004 9.963007,-5.7436 11.809621,-19.50941 7.00145,-29.89565 -1.760125,-3.68049 -4.567701,-6.85131 -8.110345,-8.55586 -2.580689,-1.3036 -5.475332,-1.81873 -8.312986,-1.66224 -1.09297,0.21625 -2.228562,0.46461 -3.311186,0.084 -0.693199,-0.17503 -1.401413,-0.3269 -2.116742,-0.31384 z"
       style="clip-rule:evenodd;opacity:1;fill:url(#linearGradient2171);fill-opacity:1;fill-rule:evenodd;stroke:#141414;stroke-width:0.5;stroke-linecap:round;stroke-linejoin:round;stroke-miterlimit:4;stroke-dasharray:none;stroke-dashoffset:1.85196841;stroke-opacity:1;paint-order:normal;image-rendering:optimizeQuality;shape-rendering:geometricPrecision;text-rendering:geometricPrecision" />
    <g
       style="clip-rule:evenodd;fill:#d2d2d2;fill-opacity:1;fill-rule:evenodd;stroke:none;stroke-width:0.97226059;stroke-opacity:1;image-rendering:optimizeQuality;shape-rendering:geometricPrecision;text-rendering:geometricPrecision"
       id="g1875-4-0"
       transform="matrix(1.0346417,0,0,1.0224561,68.894968,-358.62029)">
      <path
         style="opacity:1;fill:#d2d2d2;fill-opacity:1;stroke:none;stroke-width:0.48613009;stroke-linecap:round;stroke-linejoin:round;stroke-miterlimit:4;stroke-dasharray:none;stroke-dashoffset:46.29920959;stroke-opacity:1"
         d="m -20.970147,-277.10926 c 0.137513,0.51162 0.600753,1.05218 1.206049,0.83052 0.867436,-0.1582 1.034129,-0.84954 1.630843,-1.42466 0.341376,-0.48016 -0.107726,-0.3521 -0.382996,-0.51119 -0.66049,-0.17513 -1.46267,-0.10875 -1.919679,0.44096 -0.198343,0.2056 -0.362152,0.43864 -0.534217,0.66437 z"
         id="path855-6-8-4"
         inkscape:connector-curvature="0"
         sodipodi:nodetypes="cccccc" />
      <path
         style="opacity:1;fill:#d2d2d2;fill-opacity:1;stroke:none;stroke-width:0.48613009;stroke-linecap:round;stroke-linejoin:round;stroke-miterlimit:4;stroke-dasharray:none;stroke-dashoffset:46.29920959;stroke-opacity:1"
         d="m -27.741788,-270.63575 c 0.27168,0.24545 -0.265009,0.96682 -0.289107,1.31076 -0.08196,0.26445 -0.131141,0.87058 -0.465558,0.79778 -0.30965,-0.66304 0.185874,-1.96863 0.754665,-2.10854 z"
         id="path889-6-4-5"
         inkscape:connector-curvature="0"
         sodipodi:nodetypes="cccc" />
      <path
         style="opacity:1;fill:#d2d2d2;fill-opacity:1;stroke:none;stroke-width:0.48613009;stroke-linecap:butt;stroke-linejoin:round;stroke-miterlimit:4;stroke-dasharray:none;stroke-dashoffset:46.29920959;stroke-opacity:1"
         d="m -22.438238,-277.39956 c 0.92323,-1.87206 2.77018,-2.65019 4.455984,-2.73076 0.939865,-0.28676 2.754326,1.26913 1.326069,2.05111 -2.9367,-2.04003 -4.415313,-0.4352 -4.985019,0.37196 -0.161763,0.1422 -1.339688,1.40804 -0.797034,0.30769 z"
         id="path3703-1-9"
         inkscape:connector-curvature="0"
         sodipodi:nodetypes="scccs" />
      <path
         style="opacity:1;fill:#d2d2d2;fill-opacity:1;stroke:none;stroke-width:0.48613009;stroke-linecap:butt;stroke-linejoin:round;stroke-miterlimit:4;stroke-dasharray:none;stroke-dashoffset:46.29920959;stroke-opacity:1"
         d="m -14.1703,-275.64782 c 0.135186,3.38405 -0.602688,3.67199 -2.040207,5.26362 -0.123199,0.1362 -0.276709,0.58409 0.03349,0.42307 0.687391,-0.29574 1.323387,-0.737 1.965879,-1.14905 0.301605,-0.21466 0.624733,-0.3911 0.904924,-0.64506 0.741291,-0.76409 0.805814,-2.3315 0.06855,-3.1285 -0.104829,-0.11015 -0.797408,-0.7237 -0.93263,-0.76408 z"
         id="path3945-7-3"
         inkscape:connector-curvature="0"
         sodipodi:nodetypes="cccccccc" />
      <path
         style="fill:#d2d2d2;fill-opacity:1;stroke:none;stroke-width:0.25724402px;stroke-linecap:butt;stroke-linejoin:miter;stroke-opacity:1"
         d="m -6.7211489,-279.40761 c 0.05139,0.16206 -0.55343,-0.38589 2.290224,0.38268 14.0965619,6.99081 -2.88641,24.90051 -2.88641,24.90051 -1.10889,-3.6e-4 -5.3314641,-0.002 -5.3314641,-0.002 7.8158491,-8.70051 15.4354753,-17.68519 5.9276501,-25.28124 z"
         id="path979-2-4-3"
         inkscape:connector-curvature="0"
         sodipodi:nodetypes="ccccc" />
    </g>
  </g>
</svg>
