<svg xmlns="http://www.w3.org/2000/svg" fill-rule="evenodd" clip-rule="evenodd" image-rendering="optimizeQuality" shape-rendering="geometricPrecision" text-rendering="geometricPrecision" viewBox="0 0 50 50"><path d="M18.858 5.251c-.872-.03-1.678.413-2.252 1.046-.26.282.346.565.45.838.432.591.992 1.15 1.202 1.865-.777.791-1.76 1.358-2.63 2.042-.975.776-2.134 1.523-2.583 2.742-.162.386.003.887-.417 1.13-2.194 2.273-4.46 4.48-6.579 6.823-.206.723.068 1.586-.468 2.208-.61.862-.296 2.018.278 2.81.704.995 1.735 1.896 3 2.007 1.004.12 2.056.27 3.046.003.703-.373 1.169-1.069 1.755-1.59.824-.83 1.699-1.79 2.932-1.934 1.654-.261 3.502-.363 4.822-1.533.624-.458 1.055-1.167 1.756-1.511.676-.192 1.137.474 1.476.947.797 1.14.952 2.832-.03 3.916-.675.7-1.673 1.048-2.513 1.545-3.268 1.733-6.657 3.371-9.45 5.837-1.591 1.437-2.97 3.398-2.918 5.627.06 1.25.276 2.563.978 3.625.3.394.686.783 1.14.962 7.536-.004 15.074.011 22.609-.004 5.663-2.37 8.24-5.158 9.64-10.953 1.351-6.097.586-12.682-2.283-18.244-1.85-3.594-4.8-6.691-8.522-8.356-2.712-1.273-5.754-1.776-8.735-1.623-1.149.211-2.342.454-3.48.082-.728-.171-1.472-.32-2.224-.307z" fill="#191919" stroke="#fff" stroke-width=".5" stroke-linecap="round" stroke-linejoin="round" stroke-dashoffset="1.852"/><path d="M14.548 15.686c.158.61.691 1.253 1.388.99.999-.19 1.729-.957 2.416-1.642.393-.572-.662-.476-.979-.665-.76-.209-1.684-.13-2.21.525-.229.245-.417.523-.615.792zM7.54 22.358c.295.245-.288.965-.314 1.309-.09.264-.143.869-.506.796-.337-.662.202-1.965.82-2.105z" fill="#f0f0f0"/><path d="M21.038 29.668c-6.859 2.441-9.52 8.486-9.478 10.231-.175 3.187 1.028 4.427 5.007 4.927 5.56.698 13.025-.775 16.377-3.157C54.85 31.164 37.513-1.552 22.91 8.236c6.052 5.963 10.866 17.72-1.873 21.432" opacity=".04" fill="#fff"/><path d="M13.307 15.075c1.004-1.869 3.012-2.646 4.844-2.726 1.022-.287 2.995 1.267 1.442 2.048-3.193-2.037-4.8-.435-5.42.371-.175.142-1.456 1.406-.866.307zm8.504 3.687c.07.54.542 1.537.275 2.039-.22.442-.337.866-.693 1.162-.648.63-1.273 1.298-1.8 2.055-.134.136-.301.583.036.423.747-.296 1.439-.736 2.137-1.148.328-.214.68-.39.984-.644.806-.763.876-2.328.074-3.124-.113-.11-.866-.722-1.013-.763z" opacity=".13" fill="#fff"/></svg>