<svg width="50mm" height="50mm" clip-rule="evenodd" fill-rule="evenodd" image-rendering="optimizeQuality" shape-rendering="geometricPrecision" text-rendering="geometricPrecision" inkscape:version="1.0.1 (3bc2e813f5, 2020-09-07)" sodipodi:docname="bP.svg" version="1.1" viewBox="0 0 50 50" xmlns="http://www.w3.org/2000/svg" xmlns:inkscape="http://www.inkscape.org/namespaces/inkscape" xmlns:sodipodi="http://sodipodi.sourceforge.net/DTD/sodipodi-0.dtd" xmlns:xlink="http://www.w3.org/1999/xlink">
 <sodipodi:namedview bordercolor="#666666" borderopacity="1" gridtolerance="10" guidetolerance="10" inkscape:current-layer="svg53" inkscape:cx="129.17992" inkscape:cy="50.424109" inkscape:document-rotation="0" inkscape:pageopacity="0" inkscape:pageshadow="2" inkscape:window-height="1001" inkscape:window-maximized="1" inkscape:window-width="1920" inkscape:window-x="-9" inkscape:window-y="-9" inkscape:zoom="2.1960417" objecttolerance="10" pagecolor="#ffffff" showgrid="false"/>
 <defs>
  <linearGradient id="linearGradient884" x1="9.2407" x2="40.761" y1="27.266" y2="27.266" gradientTransform="matrix(.98495 0 0 .98605 .37559 .64119)" gradientUnits="userSpaceOnUse">
   <stop stop-color="#635f5e" offset="0"/>
   <stop stop-color="#131111" style="stop-color:#1f1f1f" offset="1"/>
  </linearGradient>
  <linearGradient id="linearGradient1520" x1="779.03" x2="794.63" y1="54.449" y2="54.449" gradientTransform="matrix(.98131 0 0 .97235 -747.13 -35.315)" gradientUnits="userSpaceOnUse" xlink:href="#linearGradient884">
   <stop stop-color="#635f5e" offset="0"/>
   <stop stop-color="#131111" style="stop-color:#1f1f1f" offset="1"/>
  </linearGradient>
  <linearGradient id="linearGradient1518" x1="777.73" x2="795.93" y1="63.423" y2="63.423" gradientTransform="matrix(.98131 0 0 .97235 -747.13 -35.315)" gradientUnits="userSpaceOnUse" xlink:href="#linearGradient884"/>
  <linearGradient id="linearGradient1516" x1="772.83" x2="800.83" y1="74.581" y2="74.581" gradientTransform="matrix(.98131 0 0 .97235 -747.13 -35.315)" gradientUnits="userSpaceOnUse" xlink:href="#linearGradient884"/>
  <filter id="filter1796-6" x="-.228" y="-.1656" width="1.456" height="1.3312" color-interpolation-filters="sRGB">
   <feGaussianBlur stdDeviation="0.6530485"/>
  </filter>
  <filter id="filter1788-7" x="-.27321" y="-.14768" width="1.5464" height="1.2954" color-interpolation-filters="sRGB">
   <feGaussianBlur stdDeviation="0.50146981"/>
  </filter>
  <filter id="filter1792-5" x="-.37843" y="-.2929" width="1.7569" height="1.5858" color-interpolation-filters="sRGB">
   <feGaussianBlur stdDeviation="0.45508114"/>
  </filter>
  <filter id="filter1689" x="-.049358" y="-.046705" width="1.0987" height="1.0934" color-interpolation-filters="sRGB">
   <feGaussianBlur stdDeviation="0.34409574"/>
  </filter>
  <filter id="filter1657" x="-.075434" y="-.035115" width="1.1509" height="1.0702" color-interpolation-filters="sRGB">
   <feGaussianBlur stdDeviation="0.26894903"/>
  </filter>
 </defs>
 <g stroke="#000" stroke-width=".99997">
  <ellipse cx="24.994" cy="17.628" rx="7.1608" ry="6.8342" fill="url(#linearGradient1520)" fill-rule="evenodd" stroke-linejoin="round" style="paint-order:markers fill stroke"/>
  <path d="m24.994 24.1c-5.2281 0.04446-7.9848-0.02766-8.394 4.5079h16.787c-0.40921-4.5355-3.1654-4.4635-8.3935-4.5079z" fill="url(#linearGradient1518)"/>
  <path d="m20.48 28.608c0.49572 6.7876-9.3032 7.9958-8.7059 17.19h26.444c0.59732-9.1945-9.2016-10.403-8.7059-17.19h-4.5158z" fill="url(#linearGradient1516)"/>
 </g>
 <g fill="#fff">
  <path transform="matrix(.98444 0 0 .97506 -251.35 271.96)" d="m275.96-257.49c-0.53618 0.23117-4.6812-7.9914 4.7425-9.4468 0.72826-0.12147 1.271 0.65752 8e-3 1.0661 0 0-7.66 2.8568-4.7506 8.3807z" filter="url(#filter1796-6)" opacity=".2"/>
  <path transform="matrix(.98444 0 0 .97506 -252.26 273.5)" d="m268.81-234.14c-0.0179-1.6934 0.11596-4.74 3.9166-8.1328-1.2411 2.4482-2.9827 5.3754 0.48734 8.1494z" filter="url(#filter1788-7)" opacity=".2" style="filter:url(#filter1788-7);opacity:.1" sodipodi:nodetypes="cccc"/>
  <path transform="matrix(.98444 0 0 .97506 -252.14 273.67)" d="m273.63-251.9c0.0359-0.029 0.23042-2.9428 3.2056-3.2098-1.0746 1.2522-1.3367 1.9927-1.0592 3.1739z" filter="url(#filter1792-5)" opacity=".2" sodipodi:nodetypes="cccc"/>
 </g>
 <path transform="matrix(.98092 0 0 .9722 -247.86 126.92)" d="m275.09-101.12c0.22763 6.0374 18.734 9.3143 16.553 17.682 1.2865-7.878-9.2816-10.089-8.8753-17.682z" clip-rule="evenodd" fill-rule="evenodd" filter="url(#filter1689)" image-rendering="optimizeQuality" opacity=".2" shape-rendering="geometricPrecision" style="mix-blend-mode:normal"/>
 <path transform="matrix(.98092 0 0 .9722 -248.05 125.84)" d="m278.37-118.34c4.9751 0.66261 6.5956 10.501 1.9202 13.454 0 0 3.4083 0.51166 3.9665 2.6881 0.16937 0.66034 0.46812 2.1809 0.46812 2.1809l2.2021 7.7e-4s-0.19634-1.5405-0.46912-2.1651c-0.88868-2.0348-4.6857-2.7708-4.6857-2.7708 1.871-1.1791 3.8981-4.2529 3.8981-6.3581 0.38818-4.551-5.5087-7.5475-7.3001-7.0296z" clip-rule="evenodd" fill-rule="evenodd" filter="url(#filter1657)" image-rendering="optimizeQuality" opacity=".3" shape-rendering="geometricPrecision" style="mix-blend-mode:normal"/>
</svg>
