<?xml version="1.0" encoding="UTF-8" standalone="no"?>
<svg
   xmlns:dc="http://purl.org/dc/elements/1.1/"
   xmlns:cc="http://creativecommons.org/ns#"
   xmlns:rdf="http://www.w3.org/1999/02/22-rdf-syntax-ns#"
   xmlns:svg="http://www.w3.org/2000/svg"
   xmlns="http://www.w3.org/2000/svg"
   xmlns:sodipodi="http://sodipodi.sourceforge.net/DTD/sodipodi-0.dtd"
   xmlns:inkscape="http://www.inkscape.org/namespaces/inkscape"
   clip-rule="evenodd"
   fill-rule="evenodd"
   height="50mm"
   image-rendering="optimizeQuality"
   shape-rendering="geometricPrecision"
   text-rendering="geometricPrecision"
   viewBox="0 0 50 50"
   width="50mm"
   version="1.1"
   id="svg4"
   sodipodi:docname="bP.svg"
   inkscape:version="0.92.4 (5da689c313, 2019-01-14)">
  <metadata
     id="metadata10">
    <rdf:RDF>
      <cc:Work
         rdf:about="">
        <dc:format>image/svg+xml</dc:format>
        <dc:type
           rdf:resource="http://purl.org/dc/dcmitype/StillImage" />
      </cc:Work>
    </rdf:RDF>
  </metadata>
  <defs
     id="defs8">
    <clipPath
       clipPathUnits="userSpaceOnUse"
       id="clipPath1437-2">
      <path
         style="fill:#000000;fill-opacity:1;stroke:#000000;stroke-width:0.26458332px;stroke-linecap:butt;stroke-linejoin:miter;stroke-opacity:1"
         d="m 23.036779,4.3723102 c 0.575019,1.5797794 1.879679,2.7865493 2.17379,4.5493093 0.332343,1.6744395 0.880613,3.6715305 0.004,5.2686615 -1.607027,1.866799 1.096486,3.317279 1.858407,4.822658 0.823224,1.819431 1.112096,3.88394 0.625766,5.835592 -0.530305,1.47384 -2.775374,2.430849 -2.177706,4.17894 1.581943,2.22708 2.733542,4.770639 3.261598,7.459858 0.491648,2.70813 0.128164,5.484802 0.245268,8.223311 0.207063,1.253691 -1.130855,3.573661 0.638705,3.943811 2.087271,0.0574 4.213225,0.273158 6.236599,0.610668 1.933602,0.260991 4.54324,-0.50714 4.906883,-2.706528 C 41.721812,44.9669 41.74155,43.02381 42.128847,41.262349 41.977823,38.41149 42.458121,35.54686 41.974992,32.717991 41.510834,30.14764 41.186666,27.546371 40.381936,25.049731 39.850494,23.271299 40.34672,21.38342 39.71344,19.632519 38.546601,16.28227 38.061196,12.694451 36.334367,9.5501187 35.187715,6.8995811 32.909309,4.8806197 30.532504,3.3283702 29.026628,2.6743599 27.194997,2.5170598 25.656101,3.1540997 24.805174,3.1570895 23.271226,3.4993201 23.03699,4.3723102 Z"
         id="path1439-71"
         inkscape:connector-curvature="0" />
    </clipPath>
    <clipPath
       clipPathUnits="userSpaceOnUse"
       id="clipPath1437-2-0">
      <path
         style="fill:#000000;fill-opacity:1;stroke:#000000;stroke-width:0.26458332px;stroke-linecap:butt;stroke-linejoin:miter;stroke-opacity:1"
         d="m 23.036779,4.3723102 c 0.575019,1.5797794 1.879679,2.7865493 2.17379,4.5493093 0.332343,1.6744395 0.880613,3.6715305 0.004,5.2686615 -1.607027,1.866799 1.096486,3.317279 1.858407,4.822658 0.823224,1.819431 1.112096,3.88394 0.625766,5.835592 -0.530305,1.47384 -2.775374,2.430849 -2.177706,4.17894 1.581943,2.22708 2.733542,4.770639 3.261598,7.459858 0.491648,2.70813 0.128164,5.484802 0.245268,8.223311 0.207063,1.253691 -1.130855,3.573661 0.638705,3.943811 2.087271,0.0574 4.213225,0.273158 6.236599,0.610668 1.933602,0.260991 4.54324,-0.50714 4.906883,-2.706528 C 41.721812,44.9669 41.74155,43.02381 42.128847,41.262349 41.977823,38.41149 42.458121,35.54686 41.974992,32.717991 41.510834,30.14764 41.186666,27.546371 40.381936,25.049731 39.850494,23.271299 40.34672,21.38342 39.71344,19.632519 38.546601,16.28227 38.061196,12.694451 36.334367,9.5501187 35.187715,6.8995811 32.909309,4.8806197 30.532504,3.3283702 29.026628,2.6743599 27.194997,2.5170598 25.656101,3.1540997 24.805174,3.1570895 23.271226,3.4993201 23.03699,4.3723102 Z"
         id="path1439-71-4"
         inkscape:connector-curvature="0" />
    </clipPath>
    <clipPath
       clipPathUnits="userSpaceOnUse"
       id="clipPath1437-2-8">
      <path
         style="fill:#000000;fill-opacity:1;stroke:#000000;stroke-width:0.26458332px;stroke-linecap:butt;stroke-linejoin:miter;stroke-opacity:1"
         d="m 23.036779,4.3723102 c 0.575019,1.5797794 1.879679,2.7865493 2.17379,4.5493093 0.332343,1.6744395 0.880613,3.6715305 0.004,5.2686615 -1.607027,1.866799 1.096486,3.317279 1.858407,4.822658 0.823224,1.819431 1.112096,3.88394 0.625766,5.835592 -0.530305,1.47384 -2.775374,2.430849 -2.177706,4.17894 1.581943,2.22708 2.733542,4.770639 3.261598,7.459858 0.491648,2.70813 0.128164,5.484802 0.245268,8.223311 0.207063,1.253691 -1.130855,3.573661 0.638705,3.943811 2.087271,0.0574 4.213225,0.273158 6.236599,0.610668 1.933602,0.260991 4.54324,-0.50714 4.906883,-2.706528 C 41.721812,44.9669 41.74155,43.02381 42.128847,41.262349 41.977823,38.41149 42.458121,35.54686 41.974992,32.717991 41.510834,30.14764 41.186666,27.546371 40.381936,25.049731 39.850494,23.271299 40.34672,21.38342 39.71344,19.632519 38.546601,16.28227 38.061196,12.694451 36.334367,9.5501187 35.187715,6.8995811 32.909309,4.8806197 30.532504,3.3283702 29.026628,2.6743599 27.194997,2.5170598 25.656101,3.1540997 24.805174,3.1570895 23.271226,3.4993201 23.03699,4.3723102 Z"
         id="path1439-71-6"
         inkscape:connector-curvature="0" />
    </clipPath>
    <clipPath
       clipPathUnits="userSpaceOnUse"
       id="clipPath1437-2-6">
      <path
         style="fill:#000000;fill-opacity:1;stroke:#000000;stroke-width:0.26458332px;stroke-linecap:butt;stroke-linejoin:miter;stroke-opacity:1"
         d="m 23.036779,4.3723102 c 0.575019,1.5797794 1.879679,2.7865493 2.17379,4.5493093 0.332343,1.6744395 0.880613,3.6715305 0.004,5.2686615 -1.607027,1.866799 1.096486,3.317279 1.858407,4.822658 0.823224,1.819431 1.112096,3.88394 0.625766,5.835592 -0.530305,1.47384 -2.775374,2.430849 -2.177706,4.17894 1.581943,2.22708 2.733542,4.770639 3.261598,7.459858 0.491648,2.70813 0.128164,5.484802 0.245268,8.223311 0.207063,1.253691 -1.130855,3.573661 0.638705,3.943811 2.087271,0.0574 4.213225,0.273158 6.236599,0.610668 1.933602,0.260991 4.54324,-0.50714 4.906883,-2.706528 C 41.721812,44.9669 41.74155,43.02381 42.128847,41.262349 41.977823,38.41149 42.458121,35.54686 41.974992,32.717991 41.510834,30.14764 41.186666,27.546371 40.381936,25.049731 39.850494,23.271299 40.34672,21.38342 39.71344,19.632519 38.546601,16.28227 38.061196,12.694451 36.334367,9.5501187 35.187715,6.8995811 32.909309,4.8806197 30.532504,3.3283702 29.026628,2.6743599 27.194997,2.5170598 25.656101,3.1540997 24.805174,3.1570895 23.271226,3.4993201 23.03699,4.3723102 Z"
         id="path1439-71-7"
         inkscape:connector-curvature="0" />
    </clipPath>
  </defs>
  <sodipodi:namedview
     pagecolor="#ffffff"
     bordercolor="#666666"
     borderopacity="1"
     objecttolerance="10"
     gridtolerance="10"
     guidetolerance="10"
     inkscape:pageopacity="0"
     inkscape:pageshadow="2"
     inkscape:window-width="965"
     inkscape:window-height="480"
     id="namedview6"
     showgrid="false"
     inkscape:zoom="0.52949017"
     inkscape:cx="-39.709005"
     inkscape:cy="198.5968"
     inkscape:window-x="125"
     inkscape:window-y="218"
     inkscape:window-maximized="0"
     inkscape:current-layer="svg4" />
  <path
     style="clip-rule:evenodd;opacity:1;fill:#000000;fill-opacity:1;fill-rule:evenodd;stroke:none;stroke-width:1.20000005;stroke-linecap:round;stroke-linejoin:round;stroke-miterlimit:4;stroke-dasharray:none;stroke-dashoffset:1.85196841;stroke-opacity:1;paint-order:normal;image-rendering:optimizeQuality;shape-rendering:geometricPrecision;text-rendering:geometricPrecision"
     d="m 25,7.4999993 c -2.59833,0.024 -5.27446,1.60086 -6.120099,4.1164397 -0.704011,1.98128 -0.10102,4.3163 1.45078,5.73875 0.506199,0.52709 1.163119,0.86478 1.753539,1.27441 -4.546469,1.4505 -6.87672,2.80116 -6.87672,2.80116 l 1.6155,3.60846 4.104131,-0.14523 C 23.81798,31.650929 11.38315,34.11686 11,42.5 H 25 39 C 38.61686,34.11686 26.18203,31.650929 29.07287,24.893989 l 4.10411,0.14523 1.61552,-3.60846 c 0,0 -2.33025,-1.35066 -6.87674,-2.80116 0.59044,-0.40963 1.24734,-0.74732 1.75356,-1.27441 1.55181,-1.42245 2.15479,-3.75747 1.45077,-5.73875 C 30.27446,9.1008293 27.59834,7.5240293 25,7.4999993 Z"
     id="path2221-7-1-5"
     inkscape:connector-curvature="0"
     sodipodi:nodetypes="ccccccccccccccccc" />
</svg>
