<svg xmlns="http://www.w3.org/2000/svg" xmlns:xlink="http://www.w3.org/1999/xlink" fill-rule="evenodd" clip-rule="evenodd" image-rendering="optimizeQuality" shape-rendering="geometricPrecision" text-rendering="geometricPrecision" viewBox="0 1.5 50 50"><defs><filter id="e" width="1.46" height="1.33" x="-.23" y="-.16" color-interpolation-filters="sRGB"><feGaussianBlur stdDeviation=".67"/></filter><filter id="f" width="1.55" height="1.29" x="-.27" y="-.15" color-interpolation-filters="sRGB"><feGaussianBlur stdDeviation=".49"/></filter><filter id="g" width="1.61" height="1.59" x="-.3" y="-.3" color-interpolation-filters="sRGB"><feGaussianBlur stdDeviation=".39"/></filter><filter id="h" width="1.1" height="1.09" x="-.05" y="-.05" color-interpolation-filters="sRGB"><feGaussianBlur stdDeviation=".34"/></filter><filter id="i" width="1.15" height="1.07" x="-.07" y="-.04" color-interpolation-filters="sRGB"><feGaussianBlur stdDeviation=".27"/></filter><linearGradient xlink:href="#a" id="b" x1="779.03" x2="794.63" y1="54.45" y2="54.45" gradientTransform="matrix(.98131 0 0 .97235 -747.13 -34.82)" gradientUnits="userSpaceOnUse"/><linearGradient id="a" x1="9.24" x2="40.76" y1="27.27" y2="27.27" gradientTransform="matrix(1.0155 0 0 1.0103 -.39 .48)" gradientUnits="userSpaceOnUse"><stop offset="0" stop-color="#737373"/><stop offset="1" stop-color="#303030"/></linearGradient><linearGradient xlink:href="#a" id="c" x1="777.73" x2="795.93" y1="63.42" y2="63.42" gradientTransform="matrix(.98131 0 0 .97235 -747.13 -34.82)" gradientUnits="userSpaceOnUse"/><linearGradient xlink:href="#a" id="d" x1="772.83" x2="800.83" y1="74.58" y2="74.58" gradientTransform="matrix(.98131 0 0 .97235 -747.13 -34.82)" gradientUnits="userSpaceOnUse"/></defs><ellipse cx="25" cy="18.13" fill="url(#b)" stroke="#000" stroke-linejoin="round" paint-order="markers fill stroke" rx="7.16" ry="6.83"/><path fill="url(#c)" stroke="#000" d="M25 24.6c-5.23.04-7.99-.03-8.4 4.5h16.8c-.42-4.53-3.17-4.46-8.4-4.5z"/><path fill="url(#d)" stroke="#000" d="M20.48 29.1c.5 6.8-9.3 8-8.7 17.2h26.44c.6-9.2-9.2-10.4-8.7-17.2H25z"/><path fill="#fff" d="M19.88 21.63c-.52.22-4.58-7.63 4.87-9.77.72-.12 1.25.64 0 1.04 0 0-7.73 3.34-4.87 8.73z" filter="url(#e)" opacity=".25"/><path fill="#fff" d="M12.5 45.7c-.32-1.24-.2-3.97 3.52-8-.37 2.43-3.07 5.39-.9 8.02z" filter="url(#f)" opacity=".2"/><path fill="#fff" d="M17.28 28.56s-.02-2.9 3.1-3.15c-1.07 1.22-1.45 1.91-.93 3.18z" filter="url(#g)" opacity=".2"/><path d="M275.09-101.12c.23 6.04 18.73 9.31 16.55 17.68 1.29-7.88-9.28-10.09-8.87-17.68z" filter="url(#h)" opacity=".15" style="mix-blend-mode:normal" transform="matrix(.98092 0 0 .9722 -247.86 127.42)"/><path d="M278.37-118.34c4.97.66 6.6 10.5 1.92 13.45 0 0 3.4.52 3.97 2.7.17.65.47 2.17.47 2.17h2.2s-.2-1.54-.47-2.16c-.9-2.04-4.69-2.77-4.69-2.77 1.87-1.18 3.9-4.25 3.9-6.36.39-4.55-5.5-7.55-7.3-7.03z" filter="url(#i)" opacity=".2" style="mix-blend-mode:normal" transform="matrix(.98092 0 0 .9722 -248.05 126.34)"/></svg>