<?xml version="1.0" encoding="UTF-8"?>
<svg width="50mm" height="50mm" clip-rule="evenodd" fill-rule="evenodd" image-rendering="optimizeQuality" shape-rendering="geometricPrecision" text-rendering="geometricPrecision" version="1.1" viewBox="0 0 50 50" xmlns="http://www.w3.org/2000/svg" xmlns:cc="http://creativecommons.org/ns#" xmlns:dc="http://purl.org/dc/elements/1.1/" xmlns:rdf="http://www.w3.org/1999/02/22-rdf-syntax-ns#" xmlns:xlink="http://www.w3.org/1999/xlink">
 <defs>
  <linearGradient id="linearGradient4100-1" x1="-497.87" x2="-466.88" y1="13.855" y2="13.855" gradientTransform="translate(507.38 12.645)" gradientUnits="userSpaceOnUse">
   <stop stop-color="#968270" offset="0"/>
   <stop stop-color="#342c22" offset="1"/>
  </linearGradient>
 </defs>
 <metadata>
  <rdf:RDF>
   <cc:Work rdf:about="">
    <dc:format>image/svg+xml</dc:format>
    <dc:type rdf:resource="http://purl.org/dc/dcmitype/StillImage"/>
    <dc:title/>
   </cc:Work>
  </rdf:RDF>
 </metadata>
 <path d="m12.754 39.276h24.56m-24.566-4.1124h24.505m-20.073-3.8118h15.641m-15.554-11.935h15.467m-20.52-3.6675h25.572m-25.572-6.3491v6.3492l5.0526 3.6676-0.0872 11.936-4.4323 3.8117v4.1124h-2.8411v4.3232h30.188v-4.3232h-2.8411v-4.1124l-4.4323-3.8117-0.0871-11.936 5.0526-3.6676v-6.3492h-4.1028v2.6424h-5.2423v-2.6424h-6.881v2.6424h-5.2423v-2.6424z" fill="url(#linearGradient4100-1)" stroke="#000" stroke-linecap="round" stroke-linejoin="round" stroke-width=".8"/>
 <path d="m13.142 9.3999 3.175 2.6427v-2.6427zm12.123 0 3.175 2.6427v-2.6427zm9.3452 0v6.3495l-5.0524 3.6675 0.0868 11.936 4.4318 3.8111 5.2e-4 5.16e-4v4.1124h2.8412v4.3233h3.175v-4.3233h-2.8412v-4.1124l-5.2e-4 -5.16e-4 -4.4318-3.8111-0.0868-11.936 5.0524-3.6675v-6.3495z" opacity=".2"/>
</svg>
