<?xml version="1.0" encoding="UTF-8"?>
<svg width="50mm" height="50mm" clip-rule="evenodd" fill-rule="evenodd" image-rendering="optimizeQuality" shape-rendering="geometricPrecision" text-rendering="geometricPrecision" version="1.1" viewBox="0 0 50 50" xmlns="http://www.w3.org/2000/svg" xmlns:cc="http://creativecommons.org/ns#" xmlns:dc="http://purl.org/dc/elements/1.1/" xmlns:rdf="http://www.w3.org/1999/02/22-rdf-syntax-ns#" xmlns:xlink="http://www.w3.org/1999/xlink">
 <metadata>
  <rdf:RDF>
   <cc:Work rdf:about="">
    <dc:format>image/svg+xml</dc:format>
    <dc:type rdf:resource="http://purl.org/dc/dcmitype/StillImage"/>
    <dc:title/>
   </cc:Work>
  </rdf:RDF>
 </metadata>
 <defs>
  <linearGradient id="linearGradient3942" x1="1337.9" x2="1359.7" y1="-118.94" y2="-118.94" gradientTransform="matrix(1.0002 0 0 .99995 -1334.5 160.77)" gradientUnits="userSpaceOnUse" xlink:href="#linearGradient2623"/>
  <linearGradient id="linearGradient2623">
   <stop stop-color="#fbf5d1" offset="0"/>
   <stop stop-color="#d7ca8e" offset="1"/>
  </linearGradient>
  <linearGradient id="linearGradient3944" x1="1358.7" x2="1380.4" y1="-118.94" y2="-118.94" gradientTransform="matrix(1.0002 0 0 .99995 -1334.5 160.77)" gradientUnits="userSpaceOnUse" xlink:href="#linearGradient2623"/>
  <linearGradient id="linearGradient3940" x1="1348.8" x2="1370" y1="-134.85" y2="-134.85" gradientTransform="matrix(1.0002 0 0 .99995 -1334.5 160.77)" gradientUnits="userSpaceOnUse" xlink:href="#linearGradient2623"/>
  <linearGradient id="linearGradient3946" x1="1355.5" x2="1363.3" y1="-150.47" y2="-150.47" gradientTransform="matrix(1.0002 0 0 .99995 -1334.5 160.77)" gradientUnits="userSpaceOnUse" xlink:href="#linearGradient2623"/>
 </defs>
 <g clip-rule="evenodd" fill-rule="evenodd" shape-rendering="geometricPrecision">
  <g stroke="#000" stroke-linecap="round" stroke-linejoin="round">
   <path d="m22.665 38.406c-5.1602 6.0133-11.715-2.801-18.415 3.3507l1.9554 3.5097c4.3701-5.4497 18.795 5.009 18.795-6.8603z" fill="url(#linearGradient3942)" image-rendering="optimizeQuality" stroke-width=".99999"/>
   <path d="m27.335 38.406c5.1602 6.0133 11.715-2.801 18.415 3.3507l-1.9554 3.5097c-4.3701-5.4497-18.795 5.009-18.795-6.8603z" fill="url(#linearGradient3944)" image-rendering="optimizeQuality" stroke-width=".99999"/>
   <path d="m30.985 31.791 4.4005-5.7875-9.4888-12.635h-0.65256v-0.0101h-0.66206l-9.4888 12.635 4.4005 5.7874-1.9293 4.7395c-0.02901 0.37553 3.3748 1.9803 7.6749 1.9803 4.2999 0 7.7046-1.6049 7.6752-1.9803z" fill="url(#linearGradient3940)" image-rendering="optimizeQuality"/>
   <path d="m25.245 7.2667c-1.8566 0-3.3625 1.3633-3.3625 3.045 0 1.6817 1.506 3.0448 3.3625 3.0448s3.3605-1.3637 3.3605-3.0448c0-1.6814-1.5041-3.0448-3.3605-3.045z" fill="url(#linearGradient3946)" image-rendering="optimizeQuality"/>
  </g>
  <g>
   <path d="m22.159 24.671h6.1703m-3.0852-2.9539v5.908" fill="none" image-rendering="optimizeQuality" stroke="#000" stroke-linecap="round" stroke-linejoin="round"/>
   <path d="m25.245 7.2664c-0.52743 0-1.0246 0.11313-1.4689 0.30923 4.4197 1.3656 4.2658 4.3056 6e-4 5.4711 0.44421 0.19597 0.94103 0.30924 1.4683 0.30924 1.8566 0 3.3605-1.3639 3.3605-3.045 0-1.6814-1.504-3.0443-3.3605-3.0445zm-0.66186 6.0912c2.9748 4.0947 5.6268 8.4172 8.3946 12.646l-4.6249 5.1735 1.541 4.4008 2.8875 0.85828-1.7955-4.6458 4.9286-5.787-10.016-12.635h-0.65276v-0.0106z" image-rendering="optimizeQuality" opacity=".15"/>
   <path d="m24.903 35.055c-2.8747 0.0118-5.5015 0.23337-7.3373 1.4637 2.0312 1.4622 4.9438 2.0363 7.8179 1.9809-6.6481-1.4062 1.8902-2.8879 4.5106-2.9221-1.4176-0.35779-3.4542-0.52898-4.9912-0.52239z" image-rendering="optimizeQuality" opacity=".15"/>
   <path d="m17.566 36.519s2.3155-1.5233 7.675-1.5234c5.3596-5e-5 7.6751 1.5234 7.6751 1.5234" fill="none" image-rendering="optimizeQuality" stroke="#000"/>
   <path d="m19.494 31.781s1.7347-0.99417 5.75-0.99427c4.0153-6e-5 5.75 0.99427 5.75 0.99427" fill="none" image-rendering="optimizeQuality" stroke="#000"/>
  </g>
 </g>
</svg>
