<svg fill-rule="evenodd" clip-rule="evenodd" image-rendering="optimizeQuality" shape-rendering="geometricPrecision" text-rendering="geometricPrecision" viewBox="0 0 50 50">
  <defs>
    <linearGradient id="a" x1="2667.8" x2="2761.4" y1="-154.4" y2="-154.4" gradientUnits="userSpaceOnUse">
      <stop offset="0" stop-color="#fff"/>
      <stop offset="1" stop-color="#b4b4b4"/>
    </linearGradient>
  </defs>
  <path fill="url(#a)" stroke="#010101" stroke-linecap="round" stroke-linejoin="round" stroke-width="1.3416" d="M2714.6-210.3c-4.4 0-6.7 2.8-6.7 6.4 0 2.4.4 4.7 3.2 5.7-1.4 3.2-3.4 5.8-5.5 8.3-5.4 7.1-10.9 14.2-16 21.6-3.9 6-7.9 12.4-9.5 20.3-.7 3.7-.5 7.9 1.2 11.1 2.6 4.9 6.8 7.5 10.9 9.4 1.5.7 3.1 1.3 4.7 1.8l-1.6 4.6c1.8.8 3.6 1.5 5.5 2 1.1.3 2.1.6 3.1.8-.8 1.4-1.6 2.7-2.6 3.6-.1.1-.2.1-.3.2-8.4.8-21.1-7.1-32.5 5.4l5.5 10.6c.7-.8 1.6-1.4 2.8-1.8 11.6-4.1 26.7 8.8 35.9-4.7.8-1 1.4-2.7 1.9-5.3.5 2.5 1.1 4.2 1.8 5.1 13.2 15.6 25.5-2.3 38.8 6.6l5.5-10.6c-7.4-9.7-18.7-3.4-28-3.5-1.6-.6-3.1-1.3-4.6-2.4-.9-1-1.7-2.2-2.4-3.5.9-.2 1.7-.5 2.6-.7 2.1-.6 3.9-1.3 5.6-2l-1.5-4.5c3.4-1.1 6.7-2.5 9.8-4.5 3.3-2.2 6.6-5.7 7.5-10.9s-.5-10.6-2.4-14.9c-2.2-3.6-2.7-5.5-5-9.3-3.3-5.5-7.9-11.8-7.9-11.8l-6.9-8.6s-3.5-4.4-5.1-6.8c-1.3-1.8-2.8-3.8-3.9-6 2.6-1.1 2.8-3.2 2.8-5.6-.1-3.3-2.3-6.1-6.7-6.1z" class="st43" transform="matrix(.37417 0 0 .37122 -990.71 82.316)"/>
  <g fill="#373737" stroke-width=".70993" transform="matrix(.37668 0 0 .37939 -948.3502143 -105.8851156)">
    <path d="M2599.7 373.1l-2.5-7.1c-4-1-8.4-1.5-13.2-1.5s-9.1.5-13.1 1.5l-2.5 7c4.9-1.4 10.1-2.2 15.6-2.2 5.5.1 10.7.8 15.7 2.3z" class="st1"/>
    <ellipse cx="2584" cy="296.7" class="st1" rx="3.4" ry="3.5"/>
  </g>
  <path fill="#373737" d="M24.974465 30.233834c-.261919-.92805-3.105611-6.607716-3.7417-6.68196-.561255-.111366-1.12251.111366-1.421846.55683-.224502.37122-.112251-.18561-.149668-.334098.037417-.779562-.074834-1.744734.710923-2.22732.860591-.668196 2.282437-.37122 3.292696 0 .299336-.18561-.187085-.779562-.187085-1.11366-.411587-1.076538.636089-2.153076 1.49668-2.821272.860591.668196 1.908267 1.744734 1.49668 2.821272 0 .334098-.486421.92805-.187085 1.11366 1.010259-.37122 2.432105-.668196 3.292696 0 .785757.482586.673506 1.447758.710923 2.22732-.037417.148488.074834.705318-.149668.334098-.299336-.445464-.860591-.668196-1.421846-.55683-.636089.074244-3.479781 5.75391-3.7417 6.68196" class="st1"/>
</svg>
