<?xml version="1.0" encoding="UTF-8"?>
<svg width="50mm" height="50mm" clip-rule="evenodd" fill-rule="evenodd" image-rendering="optimizeQuality" shape-rendering="geometricPrecision" text-rendering="geometricPrecision" version="1.1" viewBox="0 0 50 50" xmlns="http://www.w3.org/2000/svg" xmlns:cc="http://creativecommons.org/ns#" xmlns:dc="http://purl.org/dc/elements/1.1/" xmlns:rdf="http://www.w3.org/1999/02/22-rdf-syntax-ns#" xmlns:xlink="http://www.w3.org/1999/xlink">
 <metadata>
  <rdf:RDF>
   <cc:Work rdf:about="">
    <dc:format>image/svg+xml</dc:format>
    <dc:type rdf:resource="http://purl.org/dc/dcmitype/StillImage"/>
    <dc:title/>
   </cc:Work>
  </rdf:RDF>
 </metadata>
 <defs>
  <linearGradient id="linearGradient3257">
   <stop stop-color="#fbf5d1" offset="0"/>
   <stop stop-color="#d8cc92" offset="1"/>
  </linearGradient>
  <linearGradient id="linearGradient2237-1-7" x1="268.63" x2="307.27" y1="-399.91" y2="-399.91" gradientTransform="matrix(1.0836,0,0,1.1047,-287.03,470.58)" gradientUnits="userSpaceOnUse" xlink:href="#linearGradient3257"/>
  <linearGradient id="linearGradient2245-3-3" x1="283.87" x2="292.03" y1="-407.55" y2="-407.55" gradientTransform="matrix(1.0836,0,0,1.1047,-287.03,470.58)" gradientUnits="userSpaceOnUse" xlink:href="#linearGradient3257"/>
 </defs>
 <g transform="translate(0 1.0583)" stroke="#000">
  <path d="m28.984 15.422c11.09-6.0766 17.119 2.7621 16.473 8.7282-0.64599 5.9661-6.6753 7.5682-6.6753 7.5682l-0.75364 5.0388 1.2382 5.2915s-4.3038 2.1545-14.266 2.1544c-9.962-7.3e-5 -14.266-2.1544-14.266-2.1544l1.2381-5.2915-0.75365-5.0388s-6.0293-1.602-6.6753-7.5682 5.3833-14.805 16.473-8.7282z" fill="url(#linearGradient2237-1-7)"/>
  <path d="m25 29.564c-2e-5 -5.6904-1.194-8.9195-3.9836-14.142 0 0 0.10522-3.8334 3.9836-3.8334 3.8784 0 3.9837 3.8334 3.9837 3.8334-2.7896 5.2224-3.9836 8.4516-3.9837 14.142z" fill="url(#linearGradient2245-3-3)"/>
  <path d="m10.734 42.049s4.3038-2.1544 14.266-2.1544c9.9619-8.4e-5 14.266 2.1544 14.266 2.1544" fill="none"/>
  <path d="m21.955 7.3162h6.0897m-3.0448-3.1035v7.3764" clip-rule="evenodd" fill="none" image-rendering="optimizeQuality" shape-rendering="geometricPrecision" stroke-linecap="round" stroke-linejoin="round"/>
 </g>
 <g transform="translate(0 1.0583)">
  <path d="m14.422 13.712c4.306 0.83586 8.0761 6.8239 10.577 15.086-0.70827-6.0689-2.5697-16.223-10.577-15.086z" fill-rule="evenodd" opacity=".15"/>
  <path d="m35.926 13.379c-0.54255 0.0042-1.1068 0.05049-1.692 0.14375 5.4545 0.95242 9.3666 4.8164 8.9178 8.9617-0.64598 5.9661-7.021 8.3754-7.021 8.3754l-1.0324 4.5055 1.274 5.5927 2.8933 1.0912-1.2382-5.5792 0.75352-4.751s6.0295-1.6021 6.6754-7.5682c0.49459-4.5678-2.924-10.819-9.5305-10.772z" opacity=".15"/>
  <path d="m25 11.589c-0.42758 0-0.80659 0.04891-1.1474 0.1318 7.428 2.6223 0.80351 5.832 1.1474 17.844 5.4e-5 -5.6904 1.1944-8.9193 3.984-14.142 0 0-0.1056-3.8338-3.984-3.8338z" opacity=".15"/>
  <path d="m26.299 39.882c-9.9619 1.03e-4 -14.266 2.1544-14.266 2.1544s4.304 2.1544 14.266 2.1545h0.02014c-14.918-1.9644 7.067-3.754 8.0036-3.7617-2.0996-0.31234-4.7504-0.5467-8.0238-0.5466z" opacity=".15"/>
 </g>
 <path d="m11.972 37.816s3.9399-2.1544 13.06-2.1544c9.1196-8.2e-5 13.06 2.1544 13.06 2.1544" fill="none" stroke="#000"/>
 <path d="m11.219 32.777s4.1577-2.1544 13.781-2.1544c9.6236-8.2e-5 13.781 2.1544 13.781 2.1544" fill="none" stroke="#000"/>
</svg>
