<?xml version="1.0" encoding="UTF-8"?>
<svg width="50mm" height="50mm" clip-rule="evenodd" fill-rule="evenodd" image-rendering="optimizeQuality" shape-rendering="geometricPrecision" text-rendering="geometricPrecision" version="1.1" viewBox="0 0 50 50" xmlns="http://www.w3.org/2000/svg" xmlns:cc="http://creativecommons.org/ns#" xmlns:dc="http://purl.org/dc/elements/1.1/" xmlns:rdf="http://www.w3.org/1999/02/22-rdf-syntax-ns#" xmlns:xlink="http://www.w3.org/1999/xlink">
 <defs>
  <linearGradient id="linearGradient3149" x1="-66.027" x2="-28.022" y1="319.14" y2="319.14" gradientTransform="matrix(.99986 0 0 1.0001 72.018 -289.26)" gradientUnits="userSpaceOnUse" xlink:href="#linearGradient3257"/>
  <linearGradient id="linearGradient3257">
   <stop stop-color="#fbf5d1" offset="0"/>
   <stop stop-color="#d8cc92" offset="1"/>
  </linearGradient>
  <linearGradient id="linearGradient3279" x1="-51.119" x2="-42.93" y1="306.88" y2="306.88" gradientTransform="matrix(.99986 0 0 1.0001 72.018 -289.26)" gradientUnits="userSpaceOnUse" xlink:href="#linearGradient3257"/>
 </defs>
 <metadata>
  <rdf:RDF>
   <cc:Work rdf:about="">
    <dc:format>image/svg+xml</dc:format>
    <dc:type rdf:resource="http://purl.org/dc/dcmitype/StillImage"/>
    <dc:title/>
   </cc:Work>
  </rdf:RDF>
 </metadata>
 <path d="m7.1488 20.247c-3.3466 6.7194 5.5759 11.199 5.5783 11.2l1.6455 4.0552-2.2415 5.5736c-0.04329 0.70093 6.727 2.5234 13.102 2.5234 6.3752 0 13.145-1.8225 13.102-2.5234l-2.2426-5.5736 1.1804-4.0552s8.9254-4.4803 5.5783-11.2c-3.347-7.2805-13.946-3.9202-17.851 4.4802-3.5091-6.7966-14.132-12.169-17.851-4.4802z" fill="url(#linearGradient3149)" fill-rule="evenodd" stroke="#000" stroke-linecap="round" stroke-linejoin="round" stroke-width=".8"/>
 <g fill="none" stroke="#000" stroke-linecap="round" stroke-linejoin="round" stroke-width=".8">
  <path d="m12.131 41.076c6.5509-3.511 19.653-3.511 26.204 0"/>
  <path d="m14.372 35.503c6.5827-2.3525 15.2-2.3823 21.72 0"/>
  <path d="m12.727 31.448c6.1363-3.3601 18.409-3.3601 24.545 0"/>
 </g>
 <g>
  <path d="m25 12.712v-6.306m-2.7892 2.2401h5.5785m-2.7891 20.282s5.0205-10.056 3.3471-13.416c0 0-1.1158-2.8002-3.3472-2.8002-2.2314 0-3.347 2.8002-3.347 2.8002-1.6736 3.3602 3.3471 13.416 3.3471 13.416" fill="url(#linearGradient3279)" fill-rule="evenodd" stroke="#000" stroke-linecap="round" stroke-linejoin="round" stroke-width=".8"/>
  <path d="m12.131 41.076s13.337 3.4512 11.112 2.4682c-5.9698-2.638 1.4309-5.4923 7.1355-4.7714-7.2632-0.83288-11.369 0.48864-18.248 2.3032z" opacity=".2" stroke="#000" stroke-width=".26458px"/>
  <path d="m25 12.712c-0.61491 0-1.1418 0.21649-1.5873 0.52458 5.4106 0.57593 2.8416 11.942 1.8698 15.105 1.2334-1.0123 2.7294-7.3863 3.0454-8.2967 0.0197-0.78333 0.27941-4.0104 0.01917-4.5329 0 0-1.1158-2.8002-3.3471-2.8002zm11.412 3.5424c-0.45767 0.0135-0.92368 0.06711-1.393 0.1535 7.2174 2.5825 7.4031 10.534-0.27564 13.949l-1.6667 4.247 1.8516 5.1108 3.4068 1.3618-2.2424-5.5741 1.1806-4.0551s8.9253-4.4802 5.5782-11.2c-1.3122-2.8543-3.7386-4.0727-6.4396-3.9931zm-23.6 0.22223c-0.47243 9e-3 -0.93386 0.06421-1.3811 0.16488 5.6418 0.98697 11.421 7.2102 12.066 8.7764-0.23382-0.92178-2.1867-4.5322-2.2477-5.3435-1.2916-1.6776-6.5204-3.9219-8.4369-3.5978z" fill-rule="evenodd" opacity=".2"/>
 </g>
</svg>
