<?xml version="1.0" encoding="UTF-8" standalone="no"?>
<svg
   xmlns:dc="http://purl.org/dc/elements/1.1/"
   xmlns:cc="http://creativecommons.org/ns#"
   xmlns:rdf="http://www.w3.org/1999/02/22-rdf-syntax-ns#"
   xmlns:svg="http://www.w3.org/2000/svg"
   xmlns="http://www.w3.org/2000/svg"
   xmlns:sodipodi="http://sodipodi.sourceforge.net/DTD/sodipodi-0.dtd"
   xmlns:inkscape="http://www.inkscape.org/namespaces/inkscape"
   clip-rule="evenodd"
   fill-rule="evenodd"
   height="50mm"
   image-rendering="optimizeQuality"
   shape-rendering="geometricPrecision"
   text-rendering="geometricPrecision"
   viewBox="0 0 50 50"
   width="50mm"
   version="1.1"
   id="svg11"
   sodipodi:docname="wN.svg"
   inkscape:version="0.92.4 (5da689c313, 2019-01-14)">
  <metadata
     id="metadata17">
    <rdf:RDF>
      <cc:Work
         rdf:about="">
        <dc:format>image/svg+xml</dc:format>
        <dc:type
           rdf:resource="http://purl.org/dc/dcmitype/StillImage" />
      </cc:Work>
    </rdf:RDF>
  </metadata>
  <defs
     id="defs15">
    <clipPath
       clipPathUnits="userSpaceOnUse"
       id="clipPath1714">
      <path
         style="opacity:0.03999999;fill:#1f1a17;fill-opacity:1;stroke:#000000;stroke-width:0.26458332px;stroke-linecap:butt;stroke-linejoin:miter;stroke-opacity:1"
         d="m 521.29531,126.47604 c 4.81907,6.35734 13.07762,9.51041 16.70881,16.86005 2.22607,4.77045 1.22703,10.19989 2.0052,15.26169 0.35848,3.46623 1.97474,7.21572 5.43679,8.5587 3.01339,1.36014 7.09586,1.25416 9.26581,-1.54677 2.84882,-3.70724 3.09351,-8.67465 2.95532,-13.17021 -0.0124,-5.17478 -0.43114,-10.54795 -2.90354,-15.20523 -2.34653,-4.78986 -7.0966,-7.65403 -11.60772,-10.12145 -5.79305,-2.99297 -12.45994,-4.82112 -18.99846,-3.86445 -1.50087,0.33452 -2.94537,1.5747 -2.86221,3.22767 z"
         id="path1716"
         inkscape:connector-curvature="0" />
    </clipPath>
    <clipPath
       clipPathUnits="userSpaceOnUse"
       id="clipPath1056-8">
      <path
         style="opacity:0.07000002;fill:#ffffff;fill-opacity:1;stroke:none;stroke-width:0.26458332px;stroke-linecap:butt;stroke-linejoin:miter;stroke-opacity:1"
         d="m 830.76193,-38.631318 c 6.28126,7.141276 17.66636,10.241693 19.87764,20.527647 1.38758,6.022802 1.51289,12.87075 -2.47658,17.98128475 -4.22219,4.93076685 0.98782,9.71003215 6.32365,8.56668615 7.33973,1.5006468 10.41109,-7.50290883 9.7818,-13.3984276 -0.28318,-6.9057063 -2.96648,-13.4427183 -4.8287,-19.9832333 -3.68985,-5.465087 -10.12256,-8.264442 -15.82115,-11.148837 -4.06239,-1.668788 -8.44267,-2.72192 -12.85666,-2.54512 z"
         id="path1059-6"
         inkscape:connector-curvature="0" />
    </clipPath>
    <clipPath
       clipPathUnits="userSpaceOnUse"
       id="clipPath1056-8-0">
      <path
         style="opacity:0.07000002;fill:#ffffff;fill-opacity:1;stroke:none;stroke-width:0.26458332px;stroke-linecap:butt;stroke-linejoin:miter;stroke-opacity:1"
         d="m 830.76193,-38.631318 c 6.28126,7.141276 17.66636,10.241693 19.87764,20.527647 1.38758,6.022802 1.51289,12.87075 -2.47658,17.98128475 -4.22219,4.93076685 0.98782,9.71003215 6.32365,8.56668615 7.33973,1.5006468 10.41109,-7.50290883 9.7818,-13.3984276 -0.28318,-6.9057063 -2.96648,-13.4427183 -4.8287,-19.9832333 -3.68985,-5.465087 -10.12256,-8.264442 -15.82115,-11.148837 -4.06239,-1.668788 -8.44267,-2.72192 -12.85666,-2.54512 z"
         id="path1059-6-8"
         inkscape:connector-curvature="0" />
    </clipPath>
    <clipPath
       clipPathUnits="userSpaceOnUse"
       id="clipPath1056-8-5">
      <path
         style="opacity:0.07000002;fill:#ffffff;fill-opacity:1;stroke:none;stroke-width:0.26458332px;stroke-linecap:butt;stroke-linejoin:miter;stroke-opacity:1"
         d="m 830.76193,-38.631318 c 6.28126,7.141276 17.66636,10.241693 19.87764,20.527647 1.38758,6.022802 1.51289,12.87075 -2.47658,17.98128475 -4.22219,4.93076685 0.98782,9.71003215 6.32365,8.56668615 7.33973,1.5006468 10.41109,-7.50290883 9.7818,-13.3984276 -0.28318,-6.9057063 -2.96648,-13.4427183 -4.8287,-19.9832333 -3.68985,-5.465087 -10.12256,-8.264442 -15.82115,-11.148837 -4.06239,-1.668788 -8.44267,-2.72192 -12.85666,-2.54512 z"
         id="path1059-6-7"
         inkscape:connector-curvature="0" />
    </clipPath>
  </defs>
  <sodipodi:namedview
     pagecolor="#ffffff"
     bordercolor="#666666"
     borderopacity="1"
     objecttolerance="10"
     gridtolerance="10"
     guidetolerance="10"
     inkscape:pageopacity="0"
     inkscape:pageshadow="2"
     inkscape:window-width="1920"
     inkscape:window-height="1001"
     id="namedview13"
     showgrid="false"
     inkscape:zoom="2.6409222"
     inkscape:cx="-55.238808"
     inkscape:cy="146.049"
     inkscape:window-x="-9"
     inkscape:window-y="-9"
     inkscape:window-maximized="1"
     inkscape:current-layer="svg11"
     showguides="false"
     inkscape:guide-bbox="true">
    <sodipodi:guide
       position="19.685368,4.6985651"
       orientation="0,1"
       id="guide25"
       inkscape:locked="false" />
  </sodipodi:namedview>
  <linearGradient
     id="a"
     gradientUnits="userSpaceOnUse"
     x1="21.405"
     x2="77.641"
     y1="37.346"
     y2="37.346">
    <stop
       offset="0"
       stop-color="#fff"
       id="stop2" />
    <stop
       offset="1"
       stop-color="#fff"
       stop-opacity="0"
       id="stop4" />
  </linearGradient>
  <g
     id="g3107"
     transform="matrix(1.0130884,0,0,1.0125626,-410.52642,838.84305)"
     style="stroke-width:0.98733693">
    <path
       sodipodi:nodetypes="cccccccccccscsccccac"
       inkscape:connector-curvature="0"
       id="path1593-7"
       d="m 426.86377,-819.05803 c -1.69435,0.59131 -3.61261,1.06096 -4.86852,2.47833 -0.42339,0.43974 -0.48489,1.17998 -1.16588,1.31363 -4.10493,2.02892 -3.14472,2.17258 -7.19027,4.32802 -0.66642,0.86817 -0.78703,2.13844 -1.82715,2.72328 -1.26798,0.87053 -1.49577,2.54749 -1.18623,3.85853 0.22047,0.98971 0.50484,1.47566 1.13114,2.26958 2.05833,-1.35072 5.97162,-2.71582 5.97162,-2.71582 l 2.10507,1.26388 -6.41534,3.20389 6.00141,1.13514 c 1.12762,-0.26589 3.65446,-4.43625 6.35414,-4.03011 3.80254,0.57204 4.27084,-0.99566 4.76642,-0.79711 2.62883,2.33418 -0.78113,4.66126 -4.93082,7.20859 -4.406,2.70465 -9.01946,9.42413 -8.75062,12.89751 l 32.331,0.14956 c -0.16763,-18.99204 2.57701,-34.34361 -11.90308,-36.97569 l 1.64776,-2.97389 c -9.57267,1.40597 -5.68904,1.96285 -8.48058,3.08301 -1.21336,0.48688 -1.92752,0.98561 -3.59007,1.57967 z"
       style="clip-rule:evenodd;opacity:1;fill:#ffffff;fill-opacity:1;fill-rule:evenodd;stroke:#000000;stroke-width:0.69113582;stroke-linecap:round;stroke-linejoin:round;stroke-miterlimit:4;stroke-dasharray:none;stroke-dashoffset:1.85196841;stroke-opacity:1;paint-order:normal;image-rendering:optimizeQuality;shape-rendering:geometricPrecision;text-rendering:geometricPrecision" />
    <g
       style="stroke:none;stroke-width:0.38172686;stroke-miterlimit:4;stroke-dasharray:none;stroke-opacity:1"
       transform="matrix(1.0526796,0,0,1.0168317,-18.19933,12.053252)"
       id="g2558">
      <path
         style="clip-rule:evenodd;opacity:1;fill:#000000;fill-opacity:1;fill-rule:evenodd;stroke:none;stroke-width:0.38172686;stroke-linecap:round;stroke-linejoin:round;stroke-miterlimit:4;stroke-dasharray:none;stroke-dashoffset:46.29920959;stroke-opacity:1;image-rendering:optimizeQuality;shape-rendering:geometricPrecision;text-rendering:geometricPrecision"
         d="m 412.66848,-808.97855 c 0.37841,0.0245 0.88538,0.44246 0.67315,0.87963 -0.24835,0.30553 -2.96503,1.92865 -3.37594,1.67222 -0.069,-1.01471 1.46872,-2.63166 2.70279,-2.55185 z"
         id="path889-6-4-9-8"
         inkscape:connector-curvature="0"
         sodipodi:nodetypes="acca" />
      <path
         style="clip-rule:evenodd;opacity:1;fill:#000000;fill-opacity:1;fill-rule:evenodd;stroke:none;stroke-width:0.38172686;stroke-linecap:round;stroke-linejoin:round;stroke-miterlimit:4;stroke-dasharray:none;stroke-dashoffset:46.29920959;stroke-opacity:1;image-rendering:optimizeQuality;shape-rendering:geometricPrecision;text-rendering:geometricPrecision"
         d="m 420.53979,-812.10998 c 0.15974,0.72123 1.22492,1.53043 2.10415,1.23179 1.24868,-0.2041 1.4992,-0.90722 2.39138,-1.70234 0.52118,-0.66709 -0.0921,-0.76075 -0.47349,-0.98984 -0.9297,-0.2597 -2.4659,-0.34841 -3.15697,0.41393 -0.29757,0.28455 -0.60356,0.73312 -0.86508,1.0465 z"
         id="path855-6-8-7-1"
         inkscape:connector-curvature="0"
         sodipodi:nodetypes="ccccccc" />
      <path
         style="clip-rule:evenodd;opacity:1;fill:#000000;fill-opacity:1;fill-rule:evenodd;stroke:none;stroke-width:0.38172686;stroke-linecap:butt;stroke-linejoin:round;stroke-miterlimit:4;stroke-dasharray:none;stroke-dashoffset:46.29920959;stroke-opacity:1;image-rendering:optimizeQuality;shape-rendering:geometricPrecision;text-rendering:geometricPrecision"
         d="m 418.8095,-812.6389 c 1.30312,-2.34465 3.72023,-3.29188 5.88618,-3.36198 1.22304,-0.34422 3.44918,1.65269 1.56846,2.61257 -3.63361,-2.62871 -5.6315,-0.63161 -6.41335,0.37611 -0.21664,0.17612 -1.80725,1.75142 -1.04131,0.37325 z"
         id="path3703-1-2-0"
         inkscape:connector-curvature="0"
         sodipodi:nodetypes="scccs" />
      <path
         style="clip-rule:evenodd;opacity:1;fill:#000000;fill-opacity:1;fill-rule:evenodd;stroke:none;stroke-width:0.38172686;stroke-linecap:butt;stroke-linejoin:round;stroke-miterlimit:4;stroke-dasharray:none;stroke-dashoffset:46.29920959;stroke-opacity:1;image-rendering:optimizeQuality;shape-rendering:geometricPrecision;text-rendering:geometricPrecision"
         d="m 429.19518,-812.03131 c 2.37395,4.26068 0.19978,5.16959 -1.85277,7.83308 -0.14687,0.22001 -0.27629,0.88161 0.12856,0.58094 0.90898,-0.58118 1.71765,-1.35243 2.54111,-2.08456 0.38252,-0.37321 0.80251,-0.69861 1.14732,-1.12129 0.89446,-1.24675 0.68317,-3.4455 -0.50647,-4.37382 -0.16852,-0.12757 -1.25999,-0.81142 -1.45777,-0.83434 z"
         id="path3945-7-2-1"
         inkscape:connector-curvature="0"
         sodipodi:nodetypes="ccccccc" />
      <path
         style="fill:#000000;fill-opacity:1;stroke:none;stroke-width:0.38172686;stroke-linecap:butt;stroke-linejoin:miter;stroke-miterlimit:4;stroke-dasharray:none;stroke-opacity:1"
         d="m 438.92302,-811.92327 c 2.95113,8.42299 -0.29639,25.67898 -0.29639,25.67898 h -11.76138 c 11.47058,0.4354 13.78897,-17.77023 12.05777,-25.679 z"
         id="path2595-8"
         inkscape:connector-curvature="0"
         sodipodi:nodetypes="ccccc" />
    </g>
  </g>
</svg>
