<?xml version="1.0" encoding="UTF-8"?>
<svg width="50mm" height="50mm" clip-rule="evenodd" fill-rule="evenodd" image-rendering="optimizeQuality" shape-rendering="geometricPrecision" text-rendering="geometricPrecision" version="1.1" viewBox="0 0 50 50" xmlns="http://www.w3.org/2000/svg" xmlns:cc="http://creativecommons.org/ns#" xmlns:dc="http://purl.org/dc/elements/1.1/" xmlns:rdf="http://www.w3.org/1999/02/22-rdf-syntax-ns#">
 <metadata>
  <rdf:RDF>
   <cc:Work rdf:about="">
    <dc:format>image/svg+xml</dc:format>
    <dc:type rdf:resource="http://purl.org/dc/dcmitype/StillImage"/>
    <dc:title/>
   </cc:Work>
  </rdf:RDF>
 </metadata>
 <g transform="matrix(1.0173 0 0 1.0451 166.94 -302.95)" stroke-width=".96985">
  <g transform="translate(72.403 -37.979)" stroke-width=".96985">
   <path d="m-222.79 369.57c-0.14615-9.2651 8.0593-7.3318 8.0593-16.754h-3.9166l-0.39922-3.4173 3.1588-2.1518c-0.85189-0.93105-1.3229-2.1305-1.3248-3.3734-5e-5 -2.8186 2.3641-5.1036 5.2805-5.1037v0c2.9164 1.3e-4 5.2806 2.2851 5.2805 5.1037-2e-3 1.2428-0.47294 2.4423-1.3248 3.3734l3.1588 2.1518-0.39921 3.4173h-3.9166c0 9.422 8.2055 7.4887 8.0593 16.754h-10.858zm8.0593-16.754h5.5981" fill="#fbf5bf" stroke="#000" stroke-linecap="round" stroke-linejoin="round" stroke-width=".77588"/>
  </g>
  <path d="m-139.53 300.79c-0.55326 3e-5 -1.0864 0.0831-1.5875 0.23564 5.3728 1.8251 6.3386 4.8679 3.4261 8.2414l3.159 2.1518-0.39945 3.4174h2.1167l0.39946-3.4174-3.159-2.1518c0.85188-0.93107 1.323-2.1306 1.325-3.3734 5e-5 -2.8186-2.3639-5.1034-5.2803-5.1036zm-0.37672 14.046c0 9.422 9.7944 7.4899 9.6484 16.755h1.5875c0.14615-9.2651-8.0612-7.333-8.0612-16.755h-2.1156z" opacity=".35"/>
 </g>
</svg>
