<?xml version="1.0" encoding="UTF-8"?>
<svg width="50mm" height="50mm" clip-rule="evenodd" fill-rule="evenodd" image-rendering="optimizeQuality" shape-rendering="geometricPrecision" text-rendering="geometricPrecision" version="1.1" viewBox="0 0 50 50" xmlns="http://www.w3.org/2000/svg" xmlns:cc="http://creativecommons.org/ns#" xmlns:dc="http://purl.org/dc/elements/1.1/" xmlns:rdf="http://www.w3.org/1999/02/22-rdf-syntax-ns#" xmlns:xlink="http://www.w3.org/1999/xlink">
 <defs>
  <linearGradient id="linearGradient3257">
   <stop stop-color="#fbf5d1" offset="0"/>
   <stop stop-color="#d8cc92" offset="1"/>
  </linearGradient>
  <linearGradient id="linearGradient2874-4-4" x1="-1077.1" x2="-1006.9" y1="136.02" y2="136.02" gradientTransform="matrix(.2566 0 0 .26279 292.35 -4.4645)" gradientUnits="userSpaceOnUse" xlink:href="#linearGradient3257"/>
  <linearGradient id="linearGradient2876-1-6" x1="-296.97" x2="-268.86" y1="51.991" y2="51.991" gradientTransform="matrix(.98394 0 0 .98072 303.37 -9.3286)" gradientUnits="userSpaceOnUse" xlink:href="#linearGradient3257"/>
  <linearGradient id="linearGradient2935-7-9" x1="-913.48" x2="-853.4" y1="29.333" y2="29.333" gradientTransform="matrix(.25888 0 0 .27109 253.68 9.7524)" gradientUnits="userSpaceOnUse" xlink:href="#linearGradient3257"/>
 </defs>
 <metadata>
  <rdf:RDF>
   <cc:Work rdf:about="">
    <dc:format>image/svg+xml</dc:format>
    <dc:type rdf:resource="http://purl.org/dc/dcmitype/StillImage"/>
    <dc:title/>
   </cc:Work>
  </rdf:RDF>
 </metadata>
 <g clip-rule="evenodd" shape-rendering="geometricPrecision">
  <g fill-rule="evenodd">
   <path d="m21.667 25.739c0 6.9879-5.3004 7.978-5.3004 11.624h17.218c0-3.6457-5.3004-4.6357-5.3004-11.624h-3.3092z" fill="url(#linearGradient2874-4-4)" image-rendering="optimizeQuality" stroke="#000" stroke-linejoin="round" stroke-width=".8"/>
   <path d="m16.295 36.839c-4.8634 0-4.1039 6.7607-4.1039 6.7607h25.617s0.75948-6.7607-4.104-6.7607h-8.7041z" fill="url(#linearGradient2876-1-6)" image-rendering="optimizeQuality" stroke="#000" stroke-linejoin="round" stroke-width=".8"/>
   <path d="m21.643 25.739c-0.01184 5.3549 10.426 7.4358 10.426 11.081h1.5401c-0.46257-3.1708-5.5618-5.4708-5.3009-11.081z" image-rendering="optimizeQuality" opacity=".2"/>
   <path d="m24.975 9.6688c-3.5357 2.46e-5 -6.4017 2.6778-6.4017 5.9814 0 1.9856 1.0562 3.8416 2.8168 4.9537 0 0-3.2133 0.85453-3.7386 2.9073-0.15936 0.6228 0.07377 2.7707 0.07377 2.7707h14.5s0.23266-2.1479 0.07329-2.7707c-0.52528-2.0528-3.7381-2.9073-3.7381-2.9073 1.7606-1.1121 2.8163-2.9681 2.8163-4.9537 0-3.3036-2.866-5.9814-6.4017-5.9814z" fill="url(#linearGradient2935-7-9)" image-rendering="optimizeQuality" stroke="#000" stroke-width=".8"/>
  </g>
  <path d="m28.561 20.604c-1.1899 0.1131-2.3849 0.16517-3.5851 0.16278-1.2002 0.0027-2.3953-0.04943-3.5851-0.16252" fill="none" image-rendering="optimizeQuality" stroke="#000" stroke-width=".8"/>
  <path d="m24.975 9.6688c-0.53551 4.26e-5 -1.0556 0.062134-1.5528 0.1779 2.7848 0.64869 4.8479 3.0006 4.8479 5.8035 0 1.9856-1.0558 3.8416-2.8163 4.9537 0 0 3.2128 0.85454 3.7381 2.9073 0.15938 0.6228-0.07328 2.7652-0.07328 2.7652h3.1071s0.23218-2.1424 0.0728-2.7652c-0.52528-2.0528-3.7381-2.9073-3.7381-2.9073 1.7606-1.1121 2.8163-2.9681 2.8163-4.9537 0-3.3034-2.8658-5.9811-6.4012-5.9814z" fill-rule="evenodd" image-rendering="optimizeQuality" opacity=".2"/>
 </g>
</svg>
