<?xml version="1.0" encoding="UTF-8"?>
<svg width="50mm" height="50mm" clip-rule="evenodd" fill-rule="evenodd" image-rendering="optimizeQuality" shape-rendering="geometricPrecision" text-rendering="geometricPrecision" version="1.1" viewBox="0 0 50 50" xmlns="http://www.w3.org/2000/svg" xmlns:cc="http://creativecommons.org/ns#" xmlns:dc="http://purl.org/dc/elements/1.1/" xmlns:rdf="http://www.w3.org/1999/02/22-rdf-syntax-ns#" xmlns:xlink="http://www.w3.org/1999/xlink">
 <metadata>
  <rdf:RDF>
   <cc:Work rdf:about="">
    <dc:format>image/svg+xml</dc:format>
    <dc:type rdf:resource="http://purl.org/dc/dcmitype/StillImage"/>
    <dc:title/>
   </cc:Work>
  </rdf:RDF>
 </metadata>
 <defs>
  <linearGradient id="linearGradient3257">
   <stop stop-color="#fbf5d1" offset="0"/>
   <stop stop-color="#d8cc92" offset="1"/>
  </linearGradient>
  <linearGradient id="linearGradient4266" x1="34.738" x2="69.657" y1="257.05" y2="257.05" gradientTransform="matrix(1.1133 0 0 1.046 -33.109 -241.18)" gradientUnits="userSpaceOnUse" xlink:href="#linearGradient3257"/>
 </defs>
 <g fill="url(#linearGradient4266)" stroke="#000" stroke-linecap="round" stroke-linejoin="round">
  <path d="m37.263 37.515 3.3159-4.8366 3.7677-19.563-9.2666 16.387 0.14634-19.205-6.481 18.11-3.745-18.668-3.745 18.666-6.4804-18.11 0.14634 19.205-9.2669-16.387 3.768 19.563 3.3159 4.8366-0.82902 5.5099s3.9586 2.1766 13.102 2.1767c9.1437 8.3e-5 13.091-2.1756 13.091-2.1756z"/>
  <path d="m38.1 43.025"/>
  <path d="m38.1 43.025"/>
 </g>
 <path d="m40.446 32.676c-1.8364 0.2015-1.3781-1.1106-1.9314-2.0338 0 0-2.7064 1.4639-4.0779 1.1333-1.3825-0.33324-2.5118-2.317-2.5118-2.317s-2.146 1.8712-3.4334 1.7593c-1.4971-0.13006-3.5574-2.3212-3.5574-2.3212s-2.0604 2.1912-3.5574 2.3212c-1.2875 0.11185-3.4334-1.7593-3.4334-1.7593s-1.1264 1.9956-2.5118 2.317c-1.2944 0.30032-3.8209-1.1333-3.8209-1.1333-0.41738 1.6557-0.82026 2.2261-2.1884 2.0338" fill="none" stroke="#000" stroke-linecap="round" stroke-linejoin="round"/>
 <g>
  <ellipse cx="5.6539" cy="13.662" rx="2.6382" ry="2.3808" fill="#f6efc8" stroke="#000" stroke-linecap="round" stroke-linejoin="round" style="paint-order:normal"/>
  <path d="m43.783 13.115c-1.2094 4.9283-4.2371 14.112-5.6053 19.003l-3.8929 4.4382 0.6886 5.2588 3.1261 1.2102-0.83718-5.8013 3.1043-4.2906z" opacity=".15"/>
  <g stroke="#000" stroke-linecap="round" stroke-linejoin="round">
   <ellipse cx="14.774" cy="10.296" rx="2.6382" ry="2.3808" fill="#f0e8be" style="paint-order:normal"/>
   <ellipse cx="25" cy="8.6322" rx="2.6382" ry="2.3808" fill="#e9e0b1" style="paint-order:normal"/>
   <ellipse cx="35.226" cy="10.297" rx="2.6382" ry="2.3808" fill="#e2d8a4" style="paint-order:normal"/>
   <ellipse cx="44.346" cy="13.664" rx="2.6382" ry="2.3808" fill="#ded39d" style="paint-order:normal"/>
  </g>
  <path d="m25.006 40.284c-4.9103 0-9.8208 0.91381-13.094 2.7413 3.2765 1.8292 8.193 2.743 13.108 2.7412-12.101-2.0027 1.9919-4.8184 6.8438-4.8546-2.1675-0.41714-4.5115-0.62794-6.8574-0.62794z" fill-rule="evenodd" opacity=".15"/>
 </g>
 <path d="m11.911 43.025s3.9503-2.177 13.094-2.1771c9.1437-8.3e-5 13.094 2.1771 13.094 2.1771" fill="none" stroke="#000"/>
 <path d="m12.681 37.891s3.7225-2.177 12.339-2.1771c8.6165-8.3e-5 12.339 2.1771 12.339 2.1771" fill="none" stroke="#000"/>
</svg>
