<?xml version="1.0" encoding="UTF-8" standalone="no"?>
<svg
   xmlns:dc="http://purl.org/dc/elements/1.1/"
   xmlns:cc="http://creativecommons.org/ns#"
   xmlns:rdf="http://www.w3.org/1999/02/22-rdf-syntax-ns#"
   xmlns:svg="http://www.w3.org/2000/svg"
   xmlns="http://www.w3.org/2000/svg"
   xmlns:xlink="http://www.w3.org/1999/xlink"
   xmlns:sodipodi="http://sodipodi.sourceforge.net/DTD/sodipodi-0.dtd"
   xmlns:inkscape="http://www.inkscape.org/namespaces/inkscape"
   width="50mm"
   height="50mm"
   clip-rule="evenodd"
   fill-rule="evenodd"
   image-rendering="optimizeQuality"
   shape-rendering="geometricPrecision"
   text-rendering="geometricPrecision"
   version="1.1"
   viewBox="0 0 50 50"
   id="svg19"
   sodipodi:docname="wQ.svg"
   inkscape:version="0.92.4 (5da689c313, 2019-01-14)">
  <metadata
     id="metadata23">
    <rdf:RDF>
      <cc:Work
         rdf:about="">
        <dc:format>image/svg+xml</dc:format>
        <dc:type
           rdf:resource="http://purl.org/dc/dcmitype/StillImage" />
      </cc:Work>
    </rdf:RDF>
  </metadata>
  <sodipodi:namedview
     pagecolor="#ffffff"
     bordercolor="#666666"
     borderopacity="1"
     objecttolerance="10"
     gridtolerance="10"
     guidetolerance="10"
     inkscape:pageopacity="0"
     inkscape:pageshadow="2"
     inkscape:window-width="880"
     inkscape:window-height="480"
     id="namedview21"
     showgrid="false"
     inkscape:zoom="1.4976243"
     inkscape:cx="94.488189"
     inkscape:cy="94.488189"
     inkscape:window-x="0"
     inkscape:window-y="0"
     inkscape:window-maximized="0"
     inkscape:current-layer="svg19" />
  <defs
     id="defs7">
    <linearGradient
       id="linearGradient3594"
       x1="2193.3"
       x2="2344.4"
       y1="-162.94"
       y2="-162.94"
       gradientUnits="userSpaceOnUse">
      <stop
         stop-color="#fff"
         style="stop-color:#ffffff"
         offset="0"
         id="stop2" />
      <stop
         stop-color="#fff"
         stop-opacity="0"
         style="stop-color:#b4b4b4;stop-opacity:1"
         offset="1"
         id="stop4" />
    </linearGradient>
    <linearGradient
       inkscape:collect="always"
       xlink:href="#WWWW"
       id="linearGradient3594-8"
       x1="2193.2717"
       y1="-162.94173"
       x2="2344.4199"
       y2="-162.94173"
       gradientUnits="userSpaceOnUse"
       gradientTransform="matrix(0.27787213,0,0,0.26096709,-605.449,67.52243)" />
    <linearGradient
       y2="37.469002"
       y1="37.101002"
       x2="77.668999"
       x1="21.094"
       gradientUnits="userSpaceOnUse"
       id="WWWW">
      <stop
         style="stop-color:#ffffff;stop-opacity:1"
         id="stop1270"
         stop-color="#fff"
         offset="0" />
      <stop
         style="stop-color:#b4b4b4;stop-opacity:1"
         id="stop1272"
         stop-opacity="0"
         stop-color="#fff"
         offset="1" />
    </linearGradient>
  </defs>
  <path
     id="path2851-1"
     inkscape:connector-curvature="0"
     sodipodi:nodetypes="ccccccccssccccssscccccccccccccsssccccsscccccccccc"
     class="st0"
     d="m 23.617184,6.8273462 c 0.03293,0.2548317 0.460935,0.7007854 0.197568,0.8600562 -0.888941,-0.2548318 -1.25112,-0.5096635 -2.041305,0 -0.691373,0.3822463 -0.592618,1.6245488 -0.625518,2.2297733 0.0329,0.1274143 -0.06586,0.5415143 0.131684,0.2548313 2.864361,-2.038651 3.029001,0.03185 2.271744,1.560839 -1.382803,3.08983 -3.292368,8.924054 -3.292368,8.924054 L 14.958244,10.649815 c 0.395107,-0.254832 0.625574,-0.637078 0.625574,-1.083032 0,-0.7326416 -0.658474,-1.3378661 -1.481587,-1.3378661 -0.823085,0 -1.481558,0.6052245 -1.481558,1.3378661 0,0.732639 0.658473,1.337863 1.481558,1.337863 -0.0329,2.420896 1.119408,13.128769 -0.625545,13.479162 -1.712054,0.382246 -5.5641119,-9.624839 -6.848159,-11.09012 0.3622063,-0.254832 0.5926735,-0.637078 0.5926735,-1.051178 0,-0.732639 -0.6585014,-1.337864 -1.4815864,-1.337864 -0.8230851,0 -1.4815587,0.605225 -1.4815587,1.337864 0,0.732639 0.6584736,1.337863 1.4815587,1.337863 h 0.1975393 c 0.2963228,2.229774 3.3252957,11.026411 3.489935,12.81023 0.3950508,4.395839 0.3950508,5.861117 0.3950508,5.861117 0,0 1.0206518,1.78382 1.8437368,3.057976 0.954797,2.006795 1.119408,3.91803 0.823085,6.084096 0,2.038648 5.959218,4.363983 12.511026,4.363983 6.551836,0 12.511026,-2.293481 12.511026,-4.363983 -0.296295,-2.166066 -0.131711,-4.077301 0.823113,-6.084096 0.823085,-1.274156 1.843709,-3.057976 1.843709,-3.057976 0,0 0.03293,-1.465278 0.395079,-5.861117 0.164639,-1.783819 3.160684,-10.580456 3.489935,-12.81023 h 0.197539 c 0.823085,0 1.481559,-0.605224 1.481559,-1.337863 0,-0.732639 -0.658474,-1.337864 -1.481559,-1.337864 -0.823085,0 -1.481586,0.605225 -1.481586,1.337864 0,0.445953 0.230467,0.828202 0.592618,1.051178 -1.283992,1.465281 -5.136105,11.440513 -6.848103,11.09012 -1.744954,-0.382246 -0.592646,-11.058266 -0.625546,-13.479162 0.823085,0 1.481531,-0.605224 1.481531,-1.337863 0,-0.7326416 -0.658446,-1.3378661 -1.481531,-1.3378661 -0.823113,0 -1.481586,0.6052245 -1.481586,1.3378661 0,0.445954 0.263395,0.8282 0.625545,1.083032 L 29.741014,20.6569 c 0,0 -1.876665,-5.866078 -3.292368,-8.924054 -0.790157,-1.528985 -0.592618,-3.5676364 2.271716,-1.560839 0.197567,0.286683 0.09878,-0.127417 0.131711,-0.2548313 -0.03293,-0.6052245 0.06586,-1.8156734 -0.625546,-2.2297733 -0.790185,-0.5096635 -1.152335,-0.2866854 -2.041276,0 -0.263395,-0.1592708 0.164611,-0.6052245 0.197539,-0.8600562 0.362179,-0.8282 -1.382803,-2.484605 -1.382803,-2.484605 0,0 -1.744953,1.6245488 -1.382803,2.484605 z"
     style="fill:url(#linearGradient3594-8);fill-opacity:1;stroke:#010101;stroke-width:0.5;stroke-linecap:round;stroke-miterlimit:4;stroke-dasharray:none;stroke-opacity:1" />
  <path
     style="fill:#373737;fill-opacity:1;stroke-width:0.219493"
     d="m 15.173019,33.413974 -4.181314,-7.224697 c 0,0 3.687458,2.167409 4.741018,1.71252 1.448644,-0.615437 1.909576,-4.415092 1.909576,-4.415092 0,0 2.568051,2.087134 4.082543,1.659004 1.810805,-0.481646 3.259449,-5.137562 3.259449,-5.137562 0,0 1.284026,4.495367 2.930212,4.977013 1.547416,0.481647 4.411781,-1.471697 4.411781,-1.471697 0,0 0.856017,3.425042 2.041271,3.986962 1.020636,0.481647 4.67517,-1.337906 4.67517,-1.337906 l -4.247162,7.251455 1.251102,-4.468609 c 0,0 -2.436356,0.695711 -3.325297,0.214065 -0.658474,-0.347856 -0.823093,-1.980102 -0.823093,-1.980102 0,0 -3.061907,0.749228 -4.444704,0.347856 -1.020635,-0.29434 -2.403432,-2.033619 -2.403432,-2.033619 0,0 -1.547416,1.846312 -2.666823,2.140651 -1.316949,0.347856 -4.181313,-0.481646 -4.181313,-0.481646 0,0 0,1.873069 -0.757246,2.274441 -0.921865,0.481647 -3.424068,-0.05352 -3.424068,-0.05352 z"
     class="st1"
     sodipodi:nodetypes="ccscscscscccscscscscc"
     inkscape:connector-curvature="0"
     id="path2497-6-7-8-1-4-6" />
  <path
     style="fill:#373737;fill-opacity:1;stroke-width:0.24249855"
     d="m 35.454005,40.986527 -0.03763,-3.184218 c -2.633898,-0.802745 -6.509482,-1.204117 -10.497962,-1.204117 -3.950848,0 -7.826432,0.401372 -10.460331,1.204117 l -0.07526,3.210976 c 2.558635,-1.043567 6.095598,-1.551972 10.573226,-1.551972 2.14475,0 4.138974,0.160549 5.982703,0.42813 1.843729,0.267582 3.348837,0.642196 4.515259,1.097084 z"
     class="st1"
     sodipodi:nodetypes="ccsccscc"
     inkscape:connector-curvature="0"
     id="path1191-9-7-3-6-1-5-6" />
</svg>
