<?xml version="1.0" encoding="UTF-8"?>
<svg width="50mm" height="50mm" clip-rule="evenodd" fill-rule="evenodd" image-rendering="optimizeQuality" shape-rendering="geometricPrecision" text-rendering="geometricPrecision" version="1.1" viewBox="0 0 50 50" xmlns="http://www.w3.org/2000/svg" xmlns:cc="http://creativecommons.org/ns#" xmlns:dc="http://purl.org/dc/elements/1.1/" xmlns:rdf="http://www.w3.org/1999/02/22-rdf-syntax-ns#" xmlns:xlink="http://www.w3.org/1999/xlink">
 <defs>
  <linearGradient id="linearGradient4183" x1="-234.85" x2="-201.95" y1="313.98" y2="313.98" gradientTransform="matrix(1.0109 0 0 1.0109 272.97 -59.288)" gradientUnits="userSpaceOnUse">
   <stop stop-color="#fbf5d1" offset="0"/>
   <stop stop-color="#d8cc92" offset="1"/>
  </linearGradient>
 </defs>
 <metadata>
  <rdf:RDF>
   <cc:Work rdf:about="">
    <dc:format>image/svg+xml</dc:format>
    <dc:type rdf:resource="http://purl.org/dc/dcmitype/StillImage"/>
    <dc:title/>
   </cc:Work>
  </rdf:RDF>
 </metadata>
 <g transform="matrix(1.0213 0 0 .98783 -28.309 -227.27)" stroke-width=".9956">
  <path d="m48.833 257.72-5.3155-17.313-0.37416 18.359-7.8185-15.666 2.879 18.702 2.9785 3.821-2.2724 6.0705c6.5046 3.4223 19.811 3.2918 26.575 2e-3v0l-0.09472-0.20919-2.1777-5.8614 2.9785-3.821 2.8787-18.702-7.8182 15.666-0.37416-18.36-5.316 17.313-3.364-17.847z" fill="url(#linearGradient4183)" stroke="#000" stroke-linecap="round" stroke-linejoin="round" stroke-width=".79648"/>
  <g fill="none" stroke="#000" stroke-linecap="round" stroke-linejoin="round" stroke-width=".79648">
   <path d="m66.072 261.8c-1.6496 0.19263-1.2379-1.5903-1.7349-2.4728 0 0-2.4311 1.928-3.663 1.6119-1.2418-0.31858-2.2562-2.7436-2.2562-2.7436s-1.9276 2.3174-3.0841 2.2104c-1.3448-0.12434-3.1955-3.1101-3.1955-3.1101s-1.8507 2.9858-3.1955 3.1101c-1.1565 0.10693-3.0841-2.2104-3.0841-2.2104s-1.0118 2.4363-2.2562 2.7436c-1.1628 0.2871-3.4322-1.6119-3.4322-1.6119-0.37492 1.5828-0.7368 2.6567-1.9657 2.4728"/>
   <path d="m38.92 271.69c6.6412-3.4941 19.924-3.4941 26.565 0"/>
   <path d="m41.183 265.62c6.6734-2.3412 15.41-2.3709 22.019 0"/>
  </g>
  <g>
   <ellipse cx="35.325" cy="243.1" rx="2.3698" ry="2.276" fill="#f8f1cb" stroke="#000" stroke-linecap="round" stroke-linejoin="round" stroke-width=".79648" style="paint-order:normal"/>
   <path d="m38.91 271.7s13.596-3.1786 11.234-2.4947c-8.3423 2.4156 1.1978 5.5241 7.214 4.8226-7.3431 0.84182-11.494-0.49388-18.448-2.3279z" opacity=".2" stroke="#000" stroke-width=".26342px"/>
   <path d="m68.838 243.56c-1.0864 4.7114-3.5743 13.027-4.8032 17.702l-3.4968 3.7183 2.1389 5.552 2.808 1.1569-2.2723-6.0706 2.9785-3.8211z" opacity=".2"/>
   <g stroke="#000" stroke-linecap="round" stroke-linejoin="round" stroke-width=".79648">
    <ellipse cx="43.518" cy="240.4" rx="2.3698" ry="2.276" fill="#f1eac0" style="paint-order:normal"/>
    <ellipse cx="52.197" cy="238.81" rx="2.3698" ry="2.276" fill="#eae1b2" style="paint-order:normal"/>
    <ellipse cx="60.877" cy="240.41" rx="2.3698" ry="2.276" fill="#e3d8a5" style="paint-order:normal"/>
    <ellipse cx="69.07" cy="243.1" rx="2.3698" ry="2.276" fill="#ddd19a" style="paint-order:normal"/>
   </g>
  </g>
 </g>
</svg>
