<svg xmlns="http://www.w3.org/2000/svg" fill-rule="evenodd" clip-rule="evenodd" image-rendering="optimizeQuality" shape-rendering="geometricPrecision" text-rendering="geometricPrecision" viewBox="0 0 50 50"><path d="M8.416 5.306c-.04 2.88-.006 5.773-.018 8.658.538.696 1.373 1.083 2.153 1.485.244.185.09.566.148.826.028.665-.042 1.35.036 2.003.96.038 1.934.005 2.9.016.022.547-.045 1.114.032 1.65 1.101.038 2.215.005 3.321.016.656 2.867 1.174 5.859.515 8.768-.616 3.103-2.508 5.86-5.001 7.891-1.805 1.539-3.955 2.624-5.884 4.006-.083.615-.01 1.267-.035 1.896-.433.022-.888-.043-1.309.031-.018.718-.05 1.467.015 2.178 5.504.039 11.02.005 16.528.017h20.945c.199-.283.026-.76.084-1.113-.058-.353.115-.831-.084-1.113H41.52c-.024-.628.048-1.279-.034-1.894-2.475-1.76-5.293-3.13-7.356-5.372-2.235-2.275-3.613-5.298-3.787-8.4-.18-2.325.267-4.628.772-6.895 1.11-.02 2.24.041 3.336-.03.041-.54.006-1.092.018-1.636.969-.02 1.958.041 2.915-.03.082-.912-.078-1.866.094-2.764.725-.416 1.537-.733 2.097-1.369.283-.294.059-.781.13-1.154V5.355c-.307-.19-.818-.025-1.2-.08-1.788.02-3.594-.04-5.37.03-.069 1.05.034 2.141-.05 3.19-.39 1.074-1.531 1.815-2.722 1.793-1.197.04-2.368-.688-2.764-1.77-.098-1.01-.014-2.057-.042-3.08-.091-.36-.75-.07-1.061-.163H20.63c-.199.293-.025.78-.084 1.146-.054.755.112 1.558-.115 2.286-.727 1.71-3.38 2.122-4.702.81-.428-.418-.831-.935-.714-1.552-.035-.888.019-1.798-.07-2.674-2.15-.038-4.31-.006-6.463-.016l-.063.03z" fill="#efefef" stroke="#000" stroke-width=".5" stroke-linecap="round" stroke-linejoin="round" stroke-dashoffset="46.299"/><path d="M17.322 12.643c2.808-1.897 4.84-2.474 6.475-2.482 3.387-.017 5.063 2.407 8.379.582C34.29 9.03 34.978 5.77 37.938 5.05c3.51 3.12.207 7-.482 8.818-2.152 3.318-1.136 4.3-4.399 5.834-.648.285-1.597-.589-1.94.009-1.035 1.83-1.372 4.43-1.137 6.412-1.437 9.526 5.387 9.158 10.71 14.016.507 1.22 1.042 2.473 2.12 3.157.374 2.326-2.257.423-3.595.946-2.902.318-5.82.273-8.724.013-19.942-1.775-8.209-7.846-7.209-18.112.368-2.264.347-4.592 1.026-6.804-.143-2.412-3.19-2.679-5.136-2.979-2.813-.43-6.031-.551-8.187-2.555-4.263-15.936 1.94-.526 6.337-1.162z" opacity=".07"/><path d="M18.352 19.778h10.96v1.668h-10.96zm-5.586 19.837h22.13v1.668h-22.13z"/></svg>