<svg xmlns="http://www.w3.org/2000/svg" viewBox="0 0 512 512"><path fill="#3893e8" d="M241.06 54.4a293.61 293.61 0 0 0-12.31.29c-8.81 1.57-12.88 5.42-15.1 9.84-2.43 4.87-2.33 11.42.38 17.25 2.72 5.83 7.7 10.6 14.66 12.38 6.96 1.78 16.53.86 29.12-7.19l10.07 15.75c-15.82 10.11-31.13 12.78-43.82 9.53a41.06 41.06 0 0 1-26.97-22.56c-4.58-9.84-5.42-21.38-1.03-31.63-42.91 6.94-81.77 23.4-111.62 46.57-9.81 10.68-10.77 23.1-6.47 31.59 4.83 9.53 16.2 16.48 38.97 9.28l5.65 17.81c-28.58 9.04-52.13-.59-61.28-18.62a40.78 40.78 0 0 1-4.12-14.07 152.55 152.55 0 0 0-13 17.85l.12.06c-8.61 19.61-8.8 33.2-5.37 42.03 3.43 8.83 10.63 14.44 21.72 17.53 22.17 6.18 58.06-1.27 83.34-20.15 10.82-8.08 21.08-27.68 21.97-42.88.45-7.6-1.16-13.6-4.34-17.44-3.18-3.83-8.28-6.7-18.82-6.6l-.18-18.68c14.48-.15 26.25 4.76 33.37 13.35 7.13 8.59 9.26 19.65 8.63 30.47-1.27 21.63-12.6 44.17-29.44 56.75-29.88 22.3-69.34 31.6-99.53 23.18-13.99-3.9-26.37-12.38-32.75-25.53-9.55 45.45 4.32 87.66 30.72 116.88a128.5 128.5 0 0 0 10.97 10.78 65.93 65.93 0 0 1-3.72-24.1c.53-14.32 6.08-28.34 17.22-38.03 9.13-7.94 21.75-12.53 36.84-12.5a75.23 75.23 0 0 1 10.28.69l-2.44 18.53c-15.59-2.05-25.7 1.52-32.43 7.38-6.73 5.85-10.45 14.61-10.82 24.62-.74 20.03 12.07 43.4 39.7 50.19l-.04.19c27.2 5.19 57.54.37 88-18.22l.06-.03c6.34-4.45 9.76-8.81 11.44-12.57a15.9 15.9 0 0 0 .53-12.43c-2.82-8.3-12.94-16.81-22.22-19.19-15-3.84-24.53 1.44-29 7.72-4.47 6.28-4.74 12.45 2.16 17.81l-11.47 14.75c-14.19-11.03-15.1-30.49-5.9-43.4 6.89-9.7 18.98-16.33 33.56-16.75a55.76 55.76 0 0 1 15.28 1.78c15.5 3.97 29.84 15.27 35.28 31.25a36.19 36.19 0 0 1 1.87 13.3c16.71-8.53 34.34-16.11 52.29-21.8 30.15-13.78 43.23-37.94 42.72-58.28-.52-20.5-13.2-37.74-42.38-40.63l1.84-18.6c36.67 3.63 58.47 29.85 59.2 58.76.41 16.84-5.76 34.36-18.2 49.28 16.08-1.8 32.05-1.5 47.53 1.62a43.65 43.65 0 0 1-4.46-20.44c.67-22.03 19.42-42.59 48.87-42.9 1.97-.02 3.98.05 6.03.22l-1.5 18.62c-24.92-2-34.3 11.09-34.72 24.66-.4 13.42 8.55 28.44 34.22 30.43 28.3.25 48.6-15.1 58.53-37.9 13.31-30.54 7-76.32-34.84-118.2-.8-.78-1.58-1.58-2.38-2.37a40.42 40.42 0 0 1-2.84 10.85c-7.25 17.39-24.23 29.13-41.87 32.4-24.34 4.53-44.3-5.34-53.5-20.4-9.21-15.06-6.8-36.35 9.78-47.56l10.47 15.5c-8.91 6.03-9.28 14.19-4.31 22.3 4.96 8.13 16.17 15.16 34.15 11.82 11.3-2.1 23.9-11.33 28.03-21.25 2.07-4.96 2.47-9.86.4-15.47-1.67-4.55-5.18-9.76-11.71-15.25l-.19-.15A298.47 298.47 0 0 0 334.2 69.3l.07.1c6.68 12.21 7.18 26.08 3.06 38.34-8.24 24.52-34.07 43.85-66.03 42.78-6.95-.23-13.56 3.12-19.19 9.65-5.63 6.54-9.73 16.12-10.69 26.32-1.9 20.4 6.93 42.88 41.35 54L277 258.28c-41.08-13.26-56.83-45.55-54.22-73.5 1.3-13.98 6.7-26.96 15.16-36.78 8.45-9.82 20.47-16.6 33.97-16.16 24.04.8 42.32-14.08 47.68-30.06 2.69-7.99 2.34-15.94-1.75-23.4-3.96-7.26-11.83-14.43-25.9-19.66a292.57 292.57 0 0 0-50.88-4.31zm101.22 251.94c-41.91 3.41-87.37 23.4-125.28 46.57-55.98 34.2-114.89 26.73-156.69-4.28 16.45 58.84 74.71 70.78 135.5 55.9 6.08-2.28 12.06-6.54 17.16-12.03 7.06-7.6 12.17-17.47 13.78-25.62l18.34 3.62c-2.44 12.38-9.08 24.67-18.4 34.72-8.95 9.65-20.61 17.35-34.1 19.38-6.76 15.07-12.33 29.68-14.6 39.9-3.54 16.06 14.21 22.23 22.16 6.03 19.03-38.74 45.87-73.23 79.41-102.97 26.07-17.15 48.4-38.3 62.72-61.22z"/></svg>