<svg xmlns="http://www.w3.org/2000/svg" xml:space="preserve" viewBox="0 0 31.79 31.79"><path d="M15.55 21.67c-.1.07-.22.1-.35.14-.13.02-.27.03-.4.03v.7h.92v2.36h1v-3.86h-.78a.8.8 0 0 1-.12.38.86.86 0 0 1-.27.25zM2.07 15.72s.4-.89-.21-1.84c-.62-.95-1.6-1.13-1.6-1.13s-.44 1.04.16 1.97c.6.92 1.65 1 1.65 1zM3.8 15.87s1-.32 1.37-1.36c.36-1.05-.32-1.96-.32-1.96s-.9.42-1.27 1.49a2 2 0 0 0 .23 1.83zM4.19 17.04c-.24 1.11.46 1.79.46 1.79s.95-.45 1.17-1.53c.23-1.08-.56-1.9-.56-1.9s-.84.53-1.07 1.64zM6.39 20.77s.9-.53 1.02-1.63c.13-1.1-.74-1.83-.74-1.83s-.78.6-.91 1.73a1.99 1.99 0 0 0 .63 1.73zM8.69 22.6s.7-.77.5-1.85C9 19.65 7.97 19.2 7.97 19.2s-.58.8-.38 1.92a2 2 0 0 0 1.1 1.48zM2.9 13.41s.82-.5.83-1.64c.01-1.14-.69-1.83-.69-1.83s-.95.62-.96 1.73c-.01 1.1.81 1.74.81 1.74zM2.6 18s.13-.97-.74-1.7C.99 15.59 0 15.7 0 15.7s-.11 1.13.74 1.84c.85.7 1.87.46 1.87.46zM3.9 20.16s-.1-.97-1.1-1.48c-1.02-.52-1.95-.2-1.95-.2s.14 1.14 1.12 1.64c.99.5 1.93.04 1.93.04zM3.99 20.75c-1.12-.19-1.91.4-1.91.4s.47 1.03 1.56 1.21c1.09.18 1.85-.54 1.85-.54s-.38-.89-1.5-1.07zM6.17 22.51c-1.13-.05-1.85.63-1.85.63s.6.97 1.7 1.02c1.1.05 1.77-.76 1.77-.76s-.49-.84-1.62-.89z"/><path d="m3.15 14.02-.52-.12c-.02.06-1.23 5.8 6.97 10.03l.25-.48c-7.81-4.03-6.75-9.2-6.7-9.43z"/><path d="M21.18 25.73h-.52v-5.81h.52v-.85h-.63v-.6s-4.17-.77-4.17-2.5c0-.56.52-1.18 1.2-2l.17.48 1.11-.4-.07-.2c1.82.11 3.33-.37 4.5-1.44 2.93-2.66 2.6-7.97 2.59-8.2l-.04-.54h-3.4l.18.73a1 1 0 0 1-.12.82c-.36.57-1.31.88-1.65.95v-.68h.81v-.94H10.13v.94h.81v.68c-.34-.07-1.29-.38-1.65-.96-.15-.24-.19-.5-.11-.82l.17-.73h-3.4l-.04.55c-.01.23-.33 5.53 2.59 8.2a5.9 5.9 0 0 0 4.5 1.44l-.07.19 1.12.4.17-.47c.67.81 1.19 1.43 1.19 2 0 1.72-4.17 2.5-4.17 2.5v.6h-.63v.84h.52v5.81h-.52v.97h-.37v1.44h11.31V26.7h-.37v-.96zm-.44-18.07h.82V7.2a3.65 3.65 0 0 0 1.94-1.34c.2-.31.3-.65.33-1.01h.88c0 1.36-.21 4.87-2.21 6.69a4.88 4.88 0 0 1-3.87 1.11c.9-1.22 1.8-2.8 2.11-4.99zM9.3 11.53c-2-1.82-2.22-5.33-2.22-6.69h.88c.02.36.14.7.33 1.01a3.64 3.64 0 0 0 1.94 1.34v.47h.82a10.85 10.85 0 0 0 2.11 4.99c-1.6.14-2.9-.24-3.87-1.12zm10.47 14.2h-7.75v-5.6h3.88v.01h3.87v5.59zM29.72 15.72s1.05-.07 1.65-1c.6-.92.16-1.97.16-1.97s-.97.19-1.6 1.14c-.61.95-.2 1.83-.2 1.83zM27.99 15.87s.6-.76.22-1.83c-.37-1.07-1.27-1.48-1.27-1.48s-.68.9-.31 1.95a2.31 2.31 0 0 0 1.36 1.36zM27.14 18.84s.7-.68.46-1.8c-.23-1.1-1.06-1.63-1.06-1.63s-.8.82-.57 1.9c.23 1.08 1.17 1.53 1.17 1.53zM25.12 17.31s-.86.74-.74 1.84c.13 1.1 1.02 1.63 1.02 1.63s.76-.6.63-1.74c-.13-1.12-.9-1.73-.9-1.73z"/><path d="M22.6 20.75c-.2 1.09.5 1.86.5 1.86s.9-.36 1.11-1.48c.2-1.12-.37-1.92-.37-1.92s-1.05.45-1.24 1.54zM28.9 13.42s.83-.64.81-1.75c0-1.1-.96-1.72-.96-1.72s-.7.69-.69 1.82a2 2 0 0 0 .84 1.65zM31.79 15.7s-.98-.11-1.86.61c-.87.73-.74 1.69-.74 1.69s1.02.24 1.87-.47c.85-.7.73-1.84.73-1.84zM29 18.68c-1.02.52-1.1 1.48-1.1 1.48s.93.46 1.92-.04c.98-.5 1.12-1.63 1.12-1.63s-.93-.32-1.94.2zM27.8 20.75a2 2 0 0 0-1.5 1.08s.77.72 1.86.54c1.09-.18 1.56-1.21 1.56-1.21s-.8-.6-1.91-.4zM24 23.4s.67.81 1.78.76c1.1-.04 1.7-1.01 1.7-1.01s-.72-.68-1.86-.64a2 2 0 0 0-1.61.9z"/><path d="m29.17 13.9-.53.13c.05.22 1.12 5.4-6.7 9.42l.25.48c8.2-4.23 6.99-9.96 6.98-10.02z"/></svg>