<svg xmlns="http://www.w3.org/2000/svg" xml:space="preserve" viewBox="0 0 85 80.79"><g fill="#A6ABA9"><path d="M27.52 8.5c.48-2.92 3.94-5.73 7.06-5.58-.74 3.35-4.36 5.4-7.06 5.57zM21.52 12.65c2.8-2.2 8.29-2.3 10.9-.3-2.7 1.84-8.54 2.01-10.9.3zM16.35 18.1c2.34-2.68 7.72-3.78 10.66-2.3-2.32 2.3-8.03 3.55-10.66 2.3zM19.67 20.37c-1.44 3.26-6.25 5.9-9.5 5.35 1.53-2.88 5.85-5.77 9.5-5.35z"/><path d="M10.43 14.77c-2.23 2.76-2.39 8.25-.41 10.88 1.86-2.67 2.1-8.5.41-10.88zM17.41 7.68c-2.33 2.47-2.88 7.7-1.19 10.35 1.97-2.42 2.63-7.96 1.2-10.35zM26.24 2.96c-3.15 1.55-5.55 6.39-4.88 9.56 2.77-1.62 5.4-6.73 4.88-9.56zM15.92 26.76c-.42 3.82-4.52 8.11-8.04 8.6.64-3.46 4.26-8.1 8.04-8.6z"/><path d="M4.66 24.28C3.3 27.76 4.88 33.3 7.7 35.3c1.01-3.27-.6-9.18-3.04-11.03zM13.13 34.5c.8 4.05-2 9.76-5.45 11.4-.46-3.75 1.58-9.13 5.45-11.4zM13.16 43.21c1.83 3.86.47 10.3-2.58 12.83-1.42-3.65-.32-10.22 2.58-12.83zM14.68 51.94c2.79 3.17 3.24 9.66 1.03 12.88-2.34-3.08-3.22-8.56-1.03-12.88zM18.55 60.91c3.3 2 5.49 7.53 4.45 10.95-2.88-2.05-5.06-6.62-4.45-10.95zM32.23 70.98c3.86.4 8.2 4.5 8.73 8.05-3.5-.62-7.93-4.2-8.73-8.05zM25.45 67.57c3.26 1.29 6.05 5.91 5.64 9.13a10.65 10.65 0 0 1-5.64-9.13z"/><path d="M1.96 35.07c-.68 3.9 2.12 9.32 5.46 10.83.37-3.61-2.53-9.42-5.46-10.83zM.3 46.53c.77 4.5 5.9 9.3 10.1 9.63-.99-4.05-6.38-9.23-10.1-9.63zM10.76 69.87c2.75 2.9 8.84 3.88 12.06 2.07-2.7-2.46-9.16-3.59-12.06-2.07zM29.2 82.82c3.77 1.33 9.63-.56 11.68-3.63-3.53-.97-9.8.96-11.69 3.63zM3.68 58.77c1.88 3.93 7.86 6.98 11.81 6.19-1.98-3.46-8.3-6.8-11.8-6.19zM19.02 77.75c3.32 2.12 9.36 1.6 12-.88-3.16-1.71-9.6-1.26-12 .88zM57.48 8.5c-.48-2.92-3.94-5.73-7.06-5.58.8 3.35 4.36 5.4 7.06 5.57zM63.48 12.65c-2.8-2.2-8.29-2.3-10.9-.3 2.7 1.84 8.54 2.01 10.9.3zM68.65 18.1c-2.34-2.68-7.72-3.78-10.66-2.3 2.32 2.3 8.02 3.55 10.66 2.3zM65.33 20.37c1.44 3.26 6.25 5.9 9.5 5.35-1.53-2.88-5.85-5.77-9.5-5.35z"/><path d="M74.57 14.77c2.23 2.76 2.39 8.25.4 10.88-1.85-2.67-2.09-8.5-.4-10.88zM67.59 7.68c2.33 2.47 2.88 7.7 1.19 10.35-1.97-2.42-2.63-7.96-1.2-10.35zM58.76 2.96c3.15 1.55 5.55 6.39 4.88 9.56-2.77-1.62-5.4-6.73-4.88-9.56zM69.08 26.76c.42 3.82 4.52 8.11 8.04 8.6-.64-3.46-4.26-8.1-8.04-8.6z"/><path d="M80.33 24.28c1.37 3.48-.22 9.02-3.03 11.03-1.01-3.27.6-9.18 3.03-11.03zM71.88 34.5c-.8 4.05 2 9.76 5.44 11.4.46-3.75-1.58-9.13-5.44-11.4zM71.84 43.21c-1.83 3.86-.47 10.3 2.58 12.83 1.41-3.65.32-10.22-2.58-12.83zM70.32 51.94c-2.79 3.17-3.24 9.66-1.03 12.88 2.34-3.08 3.22-8.56 1.03-12.88zM66.44 60.91c-3.3 2-5.48 7.53-4.44 10.95 2.88-2.05 5.06-6.62 4.44-10.95zM52.77 70.98c-3.86.4-8.2 4.5-8.73 8.05 3.5-.62 7.93-4.2 8.73-8.05zM59.55 67.57c-3.26 1.29-6.05 5.91-5.64 9.13a10.65 10.65 0 0 0 5.64-9.13z"/><path d="M83.04 35.07c.68 3.9-2.12 9.32-5.47 10.83-.36-3.61 2.54-9.42 5.47-10.83zM84.7 46.53c-.77 4.5-5.9 9.3-10.1 9.63.99-4.05 6.38-9.23 10.1-9.63zM74.24 69.87c-2.75 2.9-8.84 3.88-12.06 2.07 2.7-2.46 9.16-3.59 12.06-2.07zM55.8 82.82c-3.76 1.33-9.63-.56-11.68-3.63 3.53-.97 9.8.96 11.69 3.63zM81.32 58.77c-1.89 3.93-7.86 6.98-11.81 6.19 1.98-3.46 8.3-6.8 11.8-6.19zM65.97 77.75c-3.31 2.12-9.35 1.6-12-.88 3.17-1.71 9.6-1.26 12 .88z"/></g></svg>