<?xml version="1.0" encoding="utf-8"?>
<svg xmlns="http://www.w3.org/2000/svg" viewBox="0 0 100 100" width="100" height="100">
	<defs>
		<mask id="donut">
			<rect width="100%" height="100%" fill="white" />
			<path fill="black" d="M 32 28 A 5 5 0 0 1 37 23 L 75 45 A 6 6 0 0 1 75 55 L 37 77 A 5 5 0 0 1 32 72 Z"/>
		</mask>
		<mask id="hole">
			<rect width="100%" height="100%" fill="black" />
			<path fill="white" fill-opacity="0.8" d="M 32 28 A 5 5 0 0 1 37 23 L 75 45 A 6 6 0 0 1 75 55 L 37 77 A 5 5 0 0 1 32 72 Z"/>
		</mask>
	</defs>
	<circle fill="#7f5af0" cx="50" cy="50" r="40" mask="url(#donut)"/>
	<circle fill="#ffffff" cx="50" cy="50" r="40" mask="url(#hole)"/>
</svg>
