<svg xmlns="http://www.w3.org/2000/svg" xml:space="preserve" viewBox="0 0 32.18 32.18"><path d="M3.03 20.16s.29-1.2-.72-2.24c-1-1.04-2.27-1.04-2.27-1.04s-.3 1.42.68 2.43c.98 1.01 2.3.85 2.3.85zM5.24 19.93S6.4 19.3 6.6 17.9c.21-1.4-.86-2.37-.86-2.37s-1.03.73-1.24 2.16a2.54 2.54 0 0 0 .73 2.24zM7.02 23.44s1.07-.8 1.1-2.2C8.14 19.83 6.95 19 6.95 19s-.92.87-.94 2.31a2.54 2.54 0 0 0 1 2.13zM9.66 25.45s1-.88.9-2.29c-.12-1.4-1.38-2.12-1.38-2.12s-.84.95-.72 2.4a2.55 2.55 0 0 0 1.2 2.01zM12.98 27.2s.7-1.14.2-2.46c-.51-1.31-1.93-1.63-1.93-1.63s-.53 1.14 0 2.5a2.56 2.56 0 0 0 1.73 1.58zM3.5 17.07s.91-.84.65-2.26-1.3-2.12-1.3-2.12-1.05 1-.8 2.4c.26 1.38 1.45 1.98 1.45 1.98zM4.25 22.89s-.08-1.24-1.34-1.94c-1.27-.7-2.48-.32-2.48-.32s.13 1.44 1.36 2.12c1.24.68 2.46.14 2.46.14zM6.4 25.29s-.36-1.2-1.75-1.6c-1.39-.39-2.48.24-2.48.24s.44 1.38 1.8 1.77c1.36.39 2.42-.41 2.42-.41zM8.79 26.99s-.7-1.03-2.14-.99c-1.45.04-2.3.97-2.3.97s.84 1.19 2.25 1.15a2.97 2.97 0 0 0 2.19-1.13zM9.81 27.68c-1.43.22-2.17 1.24-2.17 1.24s.98 1.07 2.38.87c1.4-.21 2.03-1.38 2.03-1.38s-.81-.94-2.24-.73z"/><path d="m3.98 17.78-.7-.02c0 .07-.13 7.56 11.18 10.87l.19-.66C3.88 24.81 3.96 18.07 3.97 17.78zM29.15 20.16s1.33.16 2.3-.85c.99-1.01.68-2.43.68-2.43s-1.26 0-2.26 1.04c-1 1.04-.72 2.24-.72 2.24zM25.57 17.9c.2 1.4 1.37 2.03 1.37 2.03s.94-.8.73-2.24c-.21-1.43-1.24-2.16-1.24-2.16s-1.07.97-.86 2.37zM24.06 21.24c.03 1.4 1.1 2.2 1.1 2.2s1.04-.68 1.02-2.13c-.03-1.44-.94-2.3-.94-2.3s-1.2.82-1.18 2.23zM21.63 23.16c-.1 1.4.89 2.3.89 2.3s1.1-.59 1.2-2.03c.12-1.44-.72-2.38-.72-2.38s-1.26.7-1.37 2.11zM19 24.74c-.5 1.31.2 2.45.2 2.45s1.21-.24 1.73-1.59 0-2.5 0-2.5-1.42.32-1.93 1.64zM30.12 15.09c.26-1.4-.78-2.4-.78-2.4s-1.05.7-1.31 2.12c-.26 1.43.65 2.27.65 2.27s1.19-.6 1.44-2zM29.27 20.95c-1.26.7-1.34 1.94-1.34 1.94s1.22.54 2.46-.14c1.23-.68 1.35-2.12 1.35-2.12s-1.2-.37-2.47.32zM27.53 23.7c-1.4.4-1.74 1.59-1.74 1.59s1.06.8 2.42.4c1.36-.38 1.8-1.76 1.8-1.76s-1.1-.63-2.48-.23zM25.53 26c-1.44-.04-2.14.99-2.14.99s.78 1.08 2.2 1.12c1.4.05 2.24-1.14 2.24-1.14s-.85-.93-2.3-.97zM22.37 27.68c-1.43-.21-2.24.73-2.24.73s.64 1.17 2.04 1.38c1.39.2 2.37-.87 2.37-.87s-.74-1.02-2.17-1.24z"/><path d="m28.9 17.76-.7.02c.02.28.1 7.03-10.67 10.19l.2.66c11.3-3.31 11.17-10.8 11.17-10.87zM20.5 20.25h-.94v-2.33c-1.73-.47-1.99-3.48-2.02-3.92h.58v-2.26c.4-.16 1-.55 1.6-1.25l1.05 1.16 1.14-1.03-.9-1c1 .32 2.62.63 3.89-.26 1.4-1 1.9-3.13 1.44-6.33l-.09-.67-10.16.01H5.93l-.1.66c-.44 3.2.05 5.34 1.46 6.33 1.26.89 2.88.58 3.88.25l-.9 1 1.14 1.04 1.05-1.16c.6.7 1.2 1.1 1.6 1.25V14h.58c-.03.44-.3 3.45-2.02 3.92v2.33h-.94v1.13h8.82v-1.13zm.95-16.35h3.45c.22 2.18-.09 3.63-.9 4.2-.84.6-2.23.2-2.93-.1.33-1.09.5-2.44.38-4.1zM8.17 8.1c-.8-.57-1.1-2.02-.89-4.2h3.45c-.12 1.66.05 3.01.38 4.09-.7.3-2.1.7-2.94.1z"/></svg>