<svg xmlns="http://www.w3.org/2000/svg" viewBox="0 0 512 512" style="height: 512px; width: 512px;"><path d="M0 0h512v512H0z" fill-opacity="0"></path><g class="" transform="translate(0,0)" style=""><path d="M265.143 16.73c-65.944 0-118.326 5.893-155.188 18.143-18.43 6.125-33.1 13.83-43.54 23.926-10.438 10.095-16.352 23.132-15.88 37.165l.006.172.013.17c2.75 39.093 15.275 72.883 33.394 103.4-30.092 26.304-22.554 56.57 55.328 71.47 6.504 6.985 13.16 13.85 19.877 20.653-44.976 17.343-44.457 38.22 40.79 40.582 10.873 10.84 21.557 21.703 31.767 32.744-34.54 3.67-70.755 11.923-106.7 26.227 33.16-5.943 79.682-8.487 124.244-6.436 27.66 32.73 49.995 67.74 60.193 108.84h19.207c-9.205-40.806-29.034-75.516-53.713-107.105 46.038 4.14 86.467 13.755 102.77 30.302-6.223 24.423-16.816 49.782-33.946 76.803h21.873c4.307-7.368 8.162-14.648 11.615-21.848 48.44-8.298 70.147-23.06 72.033-39.1 7.677-22.363-10.594-56.65-45.38-82.97-.028-8.232-.335-16.386-.842-24.474 62.557-8.128 63.666-38.01-5.163-51.105-3.74-30.33-7.695-60.182-7.425-90.93 91.998-21.19 74.89-59.455 13.513-83.942 1.79-5.373 3.767-10.793 5.998-16.28l.268-.66.164-.69c2.94-12.31-.722-24.506-8.666-33.145-7.944-8.64-19.33-14.517-32.955-19.07-27.25-9.103-64.2-12.71-103.623-12.843h-.031zm-.034 18.69c38.27.13 74.034 3.952 97.765 11.88 11.866 3.965 20.536 9.007 25.12 13.993 4.512 4.905 5.846 9.015 4.29 15.844-2.168 5.394-4.123 10.735-5.892 16.03-54.098-17.105-131.934-23.978-202.008-5.622 65.494.283 172.564 13.5 190.418 54.82-3.317 23.44-3.54 46-2.283 67.955-45.155-33.14-134.644-21.05-199.475 1.23 41.805-1.966 94.256 1.828 136.084 12.9-25.3 2.72-53.93 10.074-81.84 21.894 64.456-6.42 133.745 2.883 151.286 23.982l.123.996c-20.61-2.533-45.806-3.76-75.735-3.047-49.278 1.178-92.846 8.102-124.002 17.002-18.856-18.886-36.954-37.853-52.848-57.763 8.89-54.23 137.75-65.292 210.666-63.426-88.136-26.143-187.425-6.064-237.17 24.312-2.61-44.05 89.057-68.318 170.267-60.23-72.526-23.095-149-33.873-182.982-16.15 31.36-37.388 106.277-55.177 179.17-54.934-32.778-8.548-61.407-13.926-92-16.656 26.092-3.278 56.598-5.01 91.044-5.01zm51.73 249.873c25.132-.12 48.713 2.566 64.607 8.908 1.65 14.464 3.032 28.817 3.63 43.218-13.863-7.993-29.508-14.637-46.557-19.094 13.17 10.786 25.794 22.58 37.226 34.598-41.07-17.11-89.233-22.64-116.377-18.67 30.09 4.298 66.47 18.864 92.41 36.248-28.314-5.917-61.158-8.87-96.344-7.174-16.924-19.096-35.188-37.224-53.383-55.166 19.422-13.37 69.6-22.65 114.787-22.867z" fill="#d59120" fill-opacity="1"></path></g></svg>
