<svg width="50mm" height="50mm" clip-rule="evenodd" fill-rule="evenodd" image-rendering="optimizeQuality" shape-rendering="geometricPrecision" text-rendering="geometricPrecision" version="1.1" viewBox="0 0 50 50" xmlns="http://www.w3.org/2000/svg">
 <path d="m25.004 5.75c-1.683 0-3.0472 1.0985-3.047 2.4526 0 0.50298 0.19448 0.99341 0.55392 1.405-2.5407 3.3068-8.7811 9.8002-8.9854 16.336-0.08682 3.3751 3.9331 8.7237 4.1072 9.2597 0.17395 0.53603 1.3328 0.93394 3.2684 1.1767-1.3305 4.5905-10.098-1.0786-14.147 3.3708l1.8417 4.4992c5.5729-3.1223 9.9671 3.1494 16.409-3.4216v0.0011c6.4409 6.5692 10.835 0.29848 16.407 3.4206l1.8423-4.4992c-4.0498-4.4493-12.817 1.2197-14.148-3.3708 1.9355-0.24281 3.0944-0.64072 3.2684-1.1767 0.17404-0.53602 4.1939-5.8846 4.1072-9.2597-0.20424-6.5357-6.4446-13.029-8.9853-16.336 0.35944-0.41155 0.55392-0.90198 0.55392-1.405 1.9e-4 -1.3539-1.3635-2.4522-3.046-2.4526z" fill="#545454" stroke="#1e1e1e" stroke-linejoin="round" stroke-width="1.5" style="paint-order:normal"/>
 <path class="st32" d="m25.004 21.106c-0.69896 0-1.0193 0.34157-1.0193 1.0247v2.4532h-2.3882c-0.64074 0-0.96112 0.31056-0.96112 0.93159 0 0.62102 0.32037 0.93159 0.96112 0.93159h2.3882v2.4531c0 0.68312 0.34938 1.0247 1.0193 1.0247 0.66984 0 1.0193-0.34156 1.0193-1.0247v-2.4531h2.4756c0.61174 0 0.93192-0.31057 0.93192-0.93159 0-0.62103-0.32018-0.93159-0.93192-0.93159h-2.4756v-2.4532c0-0.68312-0.34948-1.0247-1.0193-1.0247z" opacity=".5" stroke-width=".26139"/>
 <path d="m25.004 5.7499c-0.82726 2.03e-4 -1.6196 0.27079-2.1937 0.75028 3.9366 0.19367 4.0448 2.2614 3.0721 3.4745 1.1014 2.3939 2.8198 4.2002 4.1606 6.4317 0 0 11.604 21.888-13.358 17.253 0 0 0.62919 1.5525 2.0301 2.28 0.69997 0.36358 1.1638 0.39546 2.1852 0.4406 1.3232 0.08091 5.3334 0.5372 6.3058 0.69063 1.9373 7.0557 13.332 0.01127 15.127 4.9301l0.92114-2.2496c-3.7259-4.4524-9.9963 1.0631-14.057-3.3101 1.3791-0.21434 2.3919-0.60348 2.9538-0.89834 0-0.14281 4.4217-6.0649 4.331-9.5988-0.20444-6.5348-6.4431-13.027-8.9846-16.335 0.35926-0.41204 0.55317-0.90342 0.55363-1.4069 0-1.3543-1.3644-2.452-3.0475-2.4521z" opacity=".4" style="opacity:.25;paint-order:normal"/>
 <path d="m23.797 6.8981c-0.71354 0.31972-1.2649 0.95021-1.0015 1.7786 0.08402 0.3206 0.31483 0.50746 0.46568 0.78995 0.06651 0.27839-0.0111 0.53895-0.14309 0.7301-1.5756 1.9467-5.5659 6.4117-7.4138 10.599-0.70467 1.7357-1.5656 3.7459-1.3961 5.6483 0.47446 3.4126 3.388 7.3918 3.388 7.3918s-2.0532-4.357-2.246-7.0213c-0.03231-7.0794 5.7998-12.424 8.3009-17.099-0.37876-1.5773-1.1724-1.4646 0.04601-2.8178z" fill="#fff" opacity=".25"/>
 <path d="m9.01 43.191c0-0.05846-1.345-3.2618-1.345-3.2618 2.9204-2.5601 8.3691-0.29926 11.229-0.95259-4.2861 0.84733-7.6386-0.50981-10.069 1.0913z" fill="#fff" opacity=".25"/>
</svg>
