<?xml version="1.0" encoding="UTF-8"?>
<svg width="50mm" height="50mm" clip-rule="evenodd" fill-rule="evenodd" image-rendering="optimizeQuality" shape-rendering="geometricPrecision" text-rendering="geometricPrecision" version="1.1" viewBox="0 0 50 50" xmlns="http://www.w3.org/2000/svg" xmlns:cc="http://creativecommons.org/ns#" xmlns:dc="http://purl.org/dc/elements/1.1/" xmlns:rdf="http://www.w3.org/1999/02/22-rdf-syntax-ns#">
 <metadata>
  <rdf:RDF>
   <cc:Work rdf:about="">
    <dc:format>image/svg+xml</dc:format>
    <dc:type rdf:resource="http://purl.org/dc/dcmitype/StillImage"/>
    <dc:title/>
   </cc:Work>
  </rdf:RDF>
 </metadata>
 <g transform="matrix(.99985 0 0 1.0001 -3408.3 2136.1)">
  <path d="m3433.8-2124.8c-3.6734 0-6.5357 2.5601-6.5355 5.9466 0 1.7416 0.7759 3.4072 2.1409 4.6137-4.2217 1.7297-3.9484 2.3731-3.5064 6.6221h4.0918c-1.7989 8.4094-10.362 6.4782-10.19 15.813h27.999c0.1718-9.3351-8.3907-7.4039-10.19-15.813h4.0918c0.9179-4.4845 0.2571-4.6224-3.507-6.6221 1.3653-1.2065 2.1384-2.8721 2.1412-4.6137 0-3.387-2.8637-5.947-6.537-5.9466z" fill="#545454" stroke="#141414" stroke-width="2" style="paint-order:normal"/>
  <path d="m3433.8-2124.6c-0.6438 1e-4 -1.2612 0.083-1.844 0.2314 2.7432 0.696 4.693 2.9236 4.6928 5.7167 0 1.7416-0.7761 3.4067-2.1414 4.6132 3.6582 1.1869 4.4146 1.9708 4.8589 4.5126l-13.604 0.5171 0.1382 1.3178 9.036 0.9472c1.8538 8.2767 9.3466 5.8497 9.1753 15.141h3.6877c0.1713-9.291-8.3074-7.8111-10.161-16.088h4.0659c0.3343-5.0908 1.1032-3.6844-3.509-6.3475 1.3653-1.2065 2.1378-2.8716 2.1409-4.6132 0-3.387-2.8632-5.9486-6.5365-5.9481z" opacity=".35"/>
  <path d="m3432.8-2123.7c-3.2393 0.7747-4.567 2.5248-4.5687 5.2328 0 1.6996 1.5589 3.2088 1.5491 3.2112h1.0589s-1.5497-1.4678-1.5497-3.2112c0-3.2259 0.6254-4.9805 4.0419-5.2126-0.1751-0.012-0.3521-0.02-0.5315-0.02zm-1.8988 16.673c-2.1316 8.2422-9.3323 6.35-10.134 14.198v-0.016c2.5384-6.1547 8.8971-5.049 10.522-13.91z" fill="#fff" opacity=".25" style="paint-order:normal"/>
  <path d="m3431.2-2114c-1.4971 0.736-4.5084 1.5614-4.5176 2.942l2.1242-0.4977c-0.2982 0 0.6943-1.4365 2.3933-2.4443z" fill="#fff" opacity=".25"/>
 </g>
</svg>
