<?xml version="1.0" encoding="UTF-8"?>
<svg width="50mm" height="50mm" clip-rule="evenodd" fill-rule="evenodd" image-rendering="optimizeQuality" shape-rendering="geometricPrecision" text-rendering="geometricPrecision" version="1.1" viewBox="0 0 50 50" xmlns="http://www.w3.org/2000/svg" xmlns:cc="http://creativecommons.org/ns#" xmlns:dc="http://purl.org/dc/elements/1.1/" xmlns:rdf="http://www.w3.org/1999/02/22-rdf-syntax-ns#">
 <metadata>
  <rdf:RDF>
   <cc:Work rdf:about="">
    <dc:format>image/svg+xml</dc:format>
    <dc:type rdf:resource="http://purl.org/dc/dcmitype/StillImage"/>
    <dc:title/>
   </cc:Work>
  </rdf:RDF>
 </metadata>
 <g transform="matrix(.99905 0 0 1.001 -3207.3 2188)" stroke-width=".99996">
  <path d="m3235.3-2179.9c-1.8218 0-3.2987 1.127-3.2985 2.5162 0 0.516 0.2107 1.0191 0.5998 1.4413-2.7503 3.3924-9.5056 10.054-9.7267 16.758-0.094 3.4625 4.2576 8.9496 4.446 9.4995 0.1883 0.5499 1.4428 0.9579 3.538 1.207-4.208 2.9423-11.444-2.4151-15.828 2.1494l2.5076 4.8868c6.0326-3.2031 10.789 3.2307 17.762-3.5104 6.9728 6.7411 11.73 0.3073 17.762 3.5104l2.5078-4.8868c-4.38-4.5601-11.608 0.7825-15.816-2.1412 2.1296-0.2488 3.4028-0.6607 3.6927-1.3847 0.2895-0.7241 4.3694-5.9773 4.2785-9.33-0.2214-6.7039-6.9737-13.364-9.7249-16.757 0.389-0.4227 0.598-0.9264 0.5983-1.4428 0-1.3894-1.4763-2.5159-3.2979-2.5162z" fill="#e9e9e9" stroke="#2a2a2a" stroke-linejoin="round" stroke-width="1.4999" style="paint-order:normal"/>
  <path d="m3235.3-2179.9c-0.8955 2e-4 -1.7532 0.2778-2.3747 0.7697 4.8027 0.7855 4.1833 1.6703 3.1699 3.1747 1.1923 2.4559 3.208 4.6986 4.6595 6.9879 0 0 12.561 22.454-14.46 17.699 0 0 0.6811 1.5927 2.1976 2.339 0.7577 0.373 1.2598 0.4057 2.3655 0.452 1.4323 0.083 3.829 0 4.8817 0.1574 6.6441 6.1436 16.975-1.2765 18.918 3.7693l0.9119-1.7771c-4.0332-4.5676-10.789 1.2303-15.73-2.087 1.4929-0.2199 2.5892-0.6191 3.1975-0.9216 0-0.1465 4.7865-6.2219 4.6883-9.8472-0.2213-6.7039-6.9746-13.364-9.7257-16.757 0.3889-0.4227 0.5988-0.9268 0.5993-1.4433 0-1.3894-1.477-2.5155-3.2989-2.5156z" opacity=".4" style="paint-order:normal"/>
  <path class="st32" d="m3235.3-2164.9c-0.7566 0-1.1034 0.3504-1.1034 1.0512v2.5167h-2.5852c-0.6936 0-1.0404 0.3186-1.0404 0.9557s0.3468 0.9557 1.0404 0.9557h2.5852v2.5166c0 0.7008 0.3782 1.0512 1.1034 1.0512 0.7251 0 1.1034-0.3504 1.1034-1.0512v-2.5166h2.6798c0.6622 0 1.0088-0.3186 1.0088-0.9557s-0.3466-0.9557-1.0088-0.9557h-2.6798v-2.5167c0-0.7008-0.3783-1.0512-1.1034-1.0512z" opacity=".5" stroke-width=".26138"/>
  <path d="m3233.9-2178.9c-0.7724 0.328-1.3693 0.9748-1.0841 1.8246 0.091 0.3289 0.3408 0.5206 0.5041 0.8104 0.072 0.2856-0.012 0.5529-0.1549 0.749-1.7056 1.9971-6.025 6.5777-8.0254 10.873-0.7628 1.7806-1.6948 3.8429-1.5113 5.7945 0.5136 3.5009 3.6675 7.5831 3.6675 7.5831s-2.8096-4.4698-3.0183-7.203c-0.035-7.2626 6.7001-12.659 9.4075-17.455-0.41-1.6181-1.082-1.6105 0.2369-2.9987z" fill="#fff"/>
 </g>
</svg>
