<?xml version="1.0" encoding="UTF-8"?>
<svg width="50mm" height="50mm" clip-rule="evenodd" fill-rule="evenodd" image-rendering="optimizeQuality" shape-rendering="geometricPrecision" text-rendering="geometricPrecision" version="1.1" viewBox="0 0 50 50" xmlns="http://www.w3.org/2000/svg" xmlns:cc="http://creativecommons.org/ns#" xmlns:dc="http://purl.org/dc/elements/1.1/" xmlns:rdf="http://www.w3.org/1999/02/22-rdf-syntax-ns#">
 <metadata>
  <rdf:RDF>
   <cc:Work rdf:about="">
    <dc:format>image/svg+xml</dc:format>
    <dc:type rdf:resource="http://purl.org/dc/dcmitype/StillImage"/>
    <dc:title/>
   </cc:Work>
  </rdf:RDF>
 </metadata>
 <g transform="matrix(1.0011 0 0 1.0239 -3260.5 2185.1)" stroke-width=".98774">
  <path d="m3281.9-2090.7c6.3612 0 11.51-0.5605 11.51-1.2488l1.3415-6.5248c11.336-7.8219 6.6894-19.658-3.3492-19.615-2.0834 0.01-4.8937 0.5303-6.2643 1.3374l-0.8757-4.0994h3.8947c1.1702 0.1305 1.7699-1.6001 1.7699-2.668 0-1.0677-0.5922-2.6676-1.7699-2.6676h-3.3879v-3.0921c0-0.9698-1.8043-1.4548-2.891-1.4548s-2.8908 0.485-2.8908 1.4548v3.0921h-3.3881c-1.1798 0-1.7699 1.5999-1.7699 2.6676 0 1.0678 0.6 2.7985 1.7699 2.668h3.8949l-0.8759 4.0994c-1.3706-0.8071-4.1808-1.3282-6.2643-1.3374-10.038-0.043-14.685 11.794-3.3492 19.615l1.3416 6.5248c0 0.6883 5.1491 1.2461 11.51 1.2488h0.023z" fill="#f6f6f6" stroke="#464646" stroke-width=".98774" style="paint-order:normal"/>
  <path d="m3287.7-2126.4c-0.5507-0.01-0.9684 0.097-0.9863 0.1851 2.5323 0.6348 1.919 4.3424 1.2136 4.2672l-4.8902 0.024 0.7078 7.5114c14.045-5.3549 22.148 5.2333 7.7095 16.08-5.255 0.7955-14.22 0.6001-19.399-0.1697l0.413 2.538c6.7439 1.2469 18.383 0.5629 18.383 0.3505-0.5785 1.5964-1.078 3.1928-4.5198 4.7892 0 0 7.0495 0.072 7.0782-1.117l1.3415-6.5595c11.335-7.8217 6.69-19.658-3.3476-19.616-0.8758 0-1.8772 0.1036-2.8489 0.2717l-3.4115 1.065-0.8758-4.0992h3.8944c1.0266 0.2939 1.7428-1.581 1.7698-2.668 0.151-2.2513-1.4303-2.7041-2.2284-2.8526z" opacity=".2"/>
  <path d="m3279.5-2129.4c-0.043 0.055-0.051 0.2639-0.051 0.3446v3.456l-3.7272-0.011c-0.296-8e-4 -0.3389-0.011-0.5318 0.074-0.4231 0.1859-0.8701 1.2656-0.8848 2.1315-0.012 0.709 0.591 2.0525 0.9866 2.0672 0.2377 0.01 0.5759-0.028 1.182-0.01-2.405 0.2203-1.7442-3.6627-0.5462-3.6106l3.9288-0.02v-3.2742c0-0.9698 0.5128-1.4089 1.5767-1.625 0.5334-0.1083 1.4525-0.1923 1.9481-0.042-0.4984-0.2077-1.4426-0.2873-1.4589-0.2733-0.4452 0.018-1.9951 0.2448-2.4223 0.7927z" fill="#fff" style="paint-order:normal"/>
  <path d="m3279.7-2119.5-0.777 3.6096c-1.7226-1.0748-3.6691-1.4254-6.0574-1.5795-9.4147-0.7528-14.627 10.912-3.4513 18.646l1.2828 5.8277 0.1082 0.015-0.2515-5.9397c-11.336-7.8219-6.8913-17.884 3.1473-17.841 2.0833 0.01 4.2535 0.9782 5.6244 1.7853l0.7374-6.3538z" fill="#fff" style="paint-order:normal"/>
 </g>
</svg>
