<svg width="50mm" height="50mm" clip-rule="evenodd" fill-rule="evenodd" image-rendering="optimizeQuality" shape-rendering="geometricPrecision" text-rendering="geometricPrecision" version="1.1" viewBox="0 0 50 50" xmlns="http://www.w3.org/2000/svg">
 <path d="m22.803 5.7681-2.4951 0.46807-0.99475 3.425-2.1691-1.4236-1.4275 0.42473 0.76065 4.9507-9.7021 14.98c-0.35806 5.9558 1.8713 6.0166 6.1429 7.6475 4.9733-7.0194 10.689-5.0167 15.371-10.323 0.56336 6.6219-15.845 9.1995-13.646 18.275l27.09 0.05772c3.811-16.778 1.0194-27.751-14.607-33.796z" style="clip-rule:evenodd;fill-rule:evenodd;fill:#e9e9e9;image-rendering:optimizeQuality;paint-order:normal;shape-rendering:geometricPrecision;stroke-linejoin:round;stroke-width:1.5;stroke:#2a2a2a"/>
 <path d="m21.619 17.718c-0.45045-0.01013-0.83497 0.28487-1.0899 0.60894-0.41403 0.53268-0.62949 1.1779-0.74842 1.8208-0.0434 0.27687-0.0938 0.55759-0.077 0.8376 0.0267 0.09722 0.14479 0.06279 0.21772 0.04355 0.63126-0.11757 1.2892-0.1278 1.9064-0.31596 0.44739-0.13965 0.80151-0.46382 1.0337-0.84074 0.23371-0.35829 0.33389-0.77218 0.47167-1.1671 0.0612-0.13854 0.0444-0.31536-0.0957-0.40741-0.23243-0.16021-0.51391-0.24122-0.77239-0.35617-0.25395-0.09621-0.50543-0.22857-0.7877-0.2234-0.0197-5.06e-4 -0.0385-7.09e-4 -0.0592-5.06e-4z" style="clip-rule:evenodd;fill-rule:evenodd;image-rendering:optimizeQuality;opacity:.5;paint-order:fill markers stroke;shape-rendering:geometricPrecision"/>
 <path d="m22.803 5.7681-1.2472 0.23414 3.8075 5.7019c19.045 8.1245 18.868 24.79 6.8599 32.524l9.5094 0.02127c3.811-16.778 1.0234-27.751-14.604-33.796z" style="clip-rule:evenodd;fill-rule:evenodd;image-rendering:optimizeQuality;opacity:.2;shape-rendering:geometricPrecision"/>
 <path d="m16.586 9.2113c0.14568 1.7055 0.87366 4.4306 0.57125 4.8355l-9.6105 14.731c-0.32313 3.6093 1.0667 4.8874 1.3427 4.8316-0.0878 0.01013-1.4184-2.1288-0.53098-4.6477l9.6706-14.883-1.4317-4.8573c-0.14044-0.13205 0.15841 0.0719-0.0109-0.0101z" style="clip-rule:evenodd;fill-rule:evenodd;fill:#ffffff;image-rendering:optimizeQuality;paint-order:normal;shape-rendering:geometricPrecision"/>
 <path d="m27.442 25.617s2.0209-2.6244 1.9893-3.8231 1.0654 5.553-1.3028 6.363c-0.0977-0.41278 0.27289-1.7089 0.19887-1.9927-0.31948-1.2239-0.88481-0.41713-0.8854-0.54716z" style="clip-rule:evenodd;fill-rule:evenodd;image-rendering:optimizeQuality;opacity:.2;shape-rendering:geometricPrecision;stroke-width:.26458px;stroke:#000000"/>
 <path d="m28.727 28.005c-2.8345 6.2323-14.734 8.1391-13.325 15.542-1.0724-6.5367 13.176-8.8793 13.325-15.542z" style="fill:#ffffff"/>
 <path d="m10.763 28.109s-0.0466 2.3858-1.5613 2.1851c0 0-1.8342-1.0159 1.5613-2.1851z" style="fill:#000000;opacity:.5"/>
</svg>
