<svg xmlns="http://www.w3.org/2000/svg" width="50mm" height="50mm" fill-rule="evenodd" clip-rule="evenodd" image-rendering="optimizeQuality" shape-rendering="geometricPrecision" text-rendering="geometricPrecision" viewBox="0 0 50 50"><g stroke-width="1.079"><path d="m3329.1-2128.5-.643 2.608-3.389.194-.589-2.593-4.87 1.003v7.87c.846 2.112 1.968 2.466 3.027 3.027h2.162l-3.148 17.25c-4.314 2.456-5.284 3.57-5.284 8.502h31.034c0-4.933-.97-6.046-5.283-8.502l-3.148-17.25h2.161c1.06-.56 2.182-.915 3.027-3.027v-7.87l-4.87-1.003-.589 2.592-3.388-.194-.643-2.608h-2.784z" style="fill:#e9e9e9;stroke-width:1.6185;stroke:#2a2a2a" transform="matrix(.91877 0 0 .93482 -3036.3 1998.5)"/><path d="M3341.8-2127.8c4.172 12.439-14.069 10.218-21.331 9.793 0 0 .085 1.6 2.246 1.604h2.197-.036l-.092.503c13.852-1.045 11.329 3.048 13.773 15.557l-16.717.578-.111.613-1.051.613c5.434.595 23.899-3.102 22.257 7.89h4.543c.262-5.094-1.767-6.688-5.284-8.503l-2.962-17.53c.3-.194.96 0 1.922-.161 1.28-.213 2.624-1.483 3.08-2.748v-7.554z" opacity=".4" style="opacity:.2" transform="matrix(.91877 0 0 .93482 -3036.3 1998.5)"/><g fill="#fff"><path d="m14.384 10.418 2.172-.444c-1.21.475-1.62 3.045-2.105 6.36-.145.994-.068-5.916-.068-5.916zM22.928 9.483l-.572 2.4 1.947-2.407zM32.3 9.764l-.5 2.303 1.411-2.109zM19.07 20.608l-2.738 15.027L19.819 20.7zM11.444 43.23c-.013-.043-.031-1.011.152-1.914.209-1.022.696-2.007 1.488-2.64 1.462-1.168 2.688-1.829 2.826-1.833-2.104 1.629-4.051 3.62-4.466 6.387z"/></g></g></svg>