<?xml version="1.0" encoding="UTF-8" standalone="no"?>
<svg
   xmlns:dc="http://purl.org/dc/elements/1.1/"
   xmlns:cc="http://creativecommons.org/ns#"
   xmlns:rdf="http://www.w3.org/1999/02/22-rdf-syntax-ns#"
   xmlns:svg="http://www.w3.org/2000/svg"
   xmlns="http://www.w3.org/2000/svg"
   xmlns:sodipodi="http://sodipodi.sourceforge.net/DTD/sodipodi-0.dtd"
   xmlns:inkscape="http://www.inkscape.org/namespaces/inkscape"
   width="60"
   height="60"
   version="1.1"
   id="svg32"
   sodipodi:docname="0NG.svg"
   inkscape:version="1.0.1 (3bc2e813f5, 2020-09-07)">
  <metadata
     id="metadata38">
    <rdf:RDF>
      <cc:Work
         rdf:about="">
        <dc:format>image/svg+xml</dc:format>
        <dc:type
           rdf:resource="http://purl.org/dc/dcmitype/StillImage" />
      </cc:Work>
    </rdf:RDF>
  </metadata>
  <defs
     id="defs36" />
  <sodipodi:namedview
     pagecolor="#ffffff"
     bordercolor="#666666"
     borderopacity="1"
     objecttolerance="10"
     gridtolerance="10"
     guidetolerance="10"
     inkscape:pageopacity="0"
     inkscape:pageshadow="2"
     inkscape:window-width="1366"
     inkscape:window-height="711"
     id="namedview34"
     showgrid="false"
     inkscape:zoom="9.1"
     inkscape:cx="30"
     inkscape:cy="30"
     inkscape:window-x="0"
     inkscape:window-y="0"
     inkscape:window-maximized="1"
     inkscape:current-layer="svg32" />
  <g
     opacity="0.99"
     id="g30"
     transform="translate(3.9213388)">
    <path
       d="m -10.912,7.41 -13.006,4.13 -6.931,42.755 H 9.024 L 2.094,11.54 Z"
       fill="#fee572"
       fill-opacity="0.992"
       stroke="#000000"
       transform="matrix(0.9242,0,0,0.89181,36.164,2.496)"
       id="path2" />
    <g
       transform="matrix(0.63,0,0,0.63,-203.688,-54.168)"
       id="g28">
      <path
         transform="matrix(1.17023,0,0,1.18026,32.262,-34.363)"
         d="m 282.83,136.555 c 0.204,-5.885 -0.111,-10.125 -2.838,-12.313 3.375,-1.142 3.844,-3.428 4.194,-4.471 0.35,1.043 0.82,3.33 4.194,4.471 -2.726,2.188 -3.042,6.428 -2.838,12.313 v 0 c -0.479,0.154 -0.912,0.23 -1.356,0.233 a 4.436,4.436 0 0 1 -1.356,-0.233 z"
         opacity="0.99"
         fill="#ff0000"
         stroke="#ff0000"
         stroke-width="0.81"
         id="path4" />
      <path
         d="m 356.776,124.623 c 2.933,-5.213 12.965,-5.372 16.073,0 -3.647,1.31 -3.64,2.23 -8.29,2.207 -4.65,-0.021 -4.617,-0.788 -7.783,-2.207 z"
         fill="#ff0000"
         stroke="#ff0000"
         stroke-width="1.33329"
         id="path6" />
      <g
         stroke="#000000"
         id="g16">
        <path
           d="m 97.159,111.627 c -2.764,121.39 19.614,219.568 177.984,219 158.37,0.568 180.748,-97.61 177.985,-219 C 442.062,243.914 401.615,279.031 275.143,286.665 148.672,279.031 108.223,243.915 97.159,111.627 Z"
           transform="matrix(0.08993,0,0,0.10622,340.08,96.277)"
           fill="#ffdf00"
           stroke="#ff0000"
           stroke-width="9.744"
           id="path8" />
        <path
           d="m 166.796,305.119 -54.464,95.975 -8.754,-6.962 -40.051,58.52 -7.822,-6.797 -35.583,44.11 c 14.216,20.561 41.843,41.307 69.675,47.014 13.293,-25.846 76.279,-177.737 95.178,-219.282 m 195.235,-12.578 54.464,95.975 8.754,-6.962 40.05,58.52 7.823,-6.797 35.583,44.11 C 512.668,510.526 485.04,531.272 457.208,536.979 443.916,511.133 380.93,359.242 362.03,317.697"
           transform="matrix(0.08993,0,0,0.10622,340.113,96.277)"
           fill="#ff0000"
           stroke="#ff0000"
           stroke-width="13.642"
           id="path10" />
        <path
           d="m 350.824,145.294 c 9.67,3.935 19.017,4.06 28.01,0 L 373.55,130.3 c -5.283,2.1 -12.066,2.538 -17.36,-0.12 z"
           fill="#ff0000"
           stroke="#ff0000"
           stroke-width="1.33329"
           id="path12" />
        <path
           d="m 355.825,133.682 c 5.608,2.862 12.387,2.941 17.856,-0.04"
           fill="none"
           stroke="#ffdf00"
           stroke-width="1.33329"
           id="path14" />
      </g>
      <path
         d="m 350.303,137.209 c 0.296,0.145 0.383,0.252 0.5,0.335 l 2.94,2.34 m 25.362,-2.652 c -2.074,0.992 -2.53,1.324 -3.794,1.987 m -29.24,3.565 5.66,3.542 m 31.717,-3.542 -5.661,3.542 m -26.5,-0.127 5.942,-15.887 m 15.32,-0.054 5.576,16.096"
         fill="none"
         stroke="#ffdf00"
         stroke-width="1.33329"
         id="path18" />
      <g
         stroke-width="0.86"
         id="g24">
        <path
           d="m 358.552,148.217 -1.997,6.844 -0.828,-0.19 -1.336,4.136 c 6.688,2.812 15.356,2.656 20.877,0 l -1.336,-4.137 -0.828,0.191 -1.973,-6.747"
           fill="#ff0000"
           stroke="#ff0000"
           stroke-width="1.333"
           id="path20" />
        <path
           d="m 357.586,148.768 c 4.116,0.986 10.51,0.954 14.488,0.07 m -15.907,4.814 c 4.275,1.315 13.343,1.147 17.32,-0.038"
           fill="none"
           stroke="#ffdf00"
           stroke-width="1.333"
           id="path22" />
      </g>
      <ellipse
         ry="4.8850002"
         rx="4.8800001"
         cy="120.704"
         cx="364.82401"
         fill="#ffdf00"
         stroke="#ff0000"
         stroke-width="0.952"
         id="ellipse26" />
    </g>
  </g>
</svg>
