<svg xmlns="http://www.w3.org/2000/svg" width="52.157" height="60"><g opacity=".99"><path d="M26.078 9.813l-11.553 3.535-6.163 36.86h35.433L37.64 13.393z" fill="#fee572" stroke="#000" stroke-width=".8867999999999999"/><g opacity=".99"><g stroke-width="1.386"><path d="M19.37 14.13c-.73 1.379-.447 2.956-.447 4.47-1.204 2.48-2.019 4.388-1.851 6.64-1.565 1.743-2.94 3.6-3.831 5.747-.254 1.064-.474 2.128-.064 3.192l.574.32c.741 1.536.96 1.876 2.618 1.66.914-2.832.79-.977.894.766 2.54-.818 2.482-2.185 3.815-4.24 2.016-.932 2.891-1.404 4.869-2.145l.894-.575 1.34-2.235-1.213 2.171.32 1.405s.063 1.277 0 1.596c-.135 2.058-1.958 4.543-3.434 5.813-2.017 1.536-2.406 2.963-2.696 5.425 9.85 5.466 14.682 2.906 19.219-.128a32.84 32.84 0 0 0-.777-3.488c-1.09-3.656-1.294-5.967-1.458-12.283-.304-4.63-5.045-11.103-11.072-10.796l-2.975-4.592c-1.252 1.115-1.07 2.77-1.277 4.342l-.958-.128z" fill="red" stroke="red" stroke-width=".6598159"/><path d="M26.816 29.869c.686-1.199.774-3.184.704-3.902" fill="none" stroke="#fee572" stroke-width=".8401808000000001"/><path d="M21.223 22.569c-2.099.563-1.774 1.123-2.335 2.164 1.733.135 2.622-.884 2.335-2.164z" fill="#fee572" stroke="#fee572" stroke-width=".8999980200000001"/><path d="M28.039 19.544c.91-.52 2.72.5 3.379 1.057 2.184 1.845 4.668 4.236 4.707 7.314.6 4.78.377 11.448 2.19 15.474" fill="none" stroke="#fee572" stroke-width="1.32008842"/></g><path d="M16.748 36.347l1.681-2.374" fill="none" stroke="#fee572" stroke-width=".8403606"/><path d="M14.347 33.013c-.409-.764.156-.95 1.072-1.816" fill="none" stroke="#fee572" stroke-width=".84037776"/><path d="M14.548 28.285l3.95 2.302c2.275-3.764 2.286-3.7 4.549-6.87-.7-1.73-3.11-2.57-4.988-3.592l.813-1.933c1.89 1.181 4.242 1.81 5.447 3.827 1.4-1.684 2.298-3.38 3.224-4.734.802.098 1.445.102 2.391.513-2.595 3.771-5.947 7.453-10.074 13.702l1.218 1.184-.854 1.56-1.91-1.933-4.55-2.467c.185-.482.43-.993.784-1.56z" fill="#ffdf00" fill-opacity=".992" stroke="red" stroke-width=".36" stroke-opacity=".992"/><path d="M21.008 42.718c.33.075 1.105.41 1.262.497 5.709 3.157 11.554 3.742 16.444.098.208-.155 1.507-.809 1.722-.869" fill="none" stroke="#ffdf00" stroke-width="1.7999999999999998" stroke-opacity=".992"/><path d="M20.346 33.122c.308.215.255.335.297.437 1.53 3.673 4.23 5.488 5.914 5.898 6.626-.027 8.262-4.138 11.372-7.148.128-.124.459-.402.658-.41" fill="none" stroke="#ffdf00" stroke-width="1.2" stroke-opacity=".992"/></g></g></svg>