<?xml version="1.0" encoding="UTF-8" standalone="no"?>
<svg
   xmlns:dc="http://purl.org/dc/elements/1.1/"
   xmlns:cc="http://creativecommons.org/ns#"
   xmlns:rdf="http://www.w3.org/1999/02/22-rdf-syntax-ns#"
   xmlns:svg="http://www.w3.org/2000/svg"
   xmlns="http://www.w3.org/2000/svg"
   xmlns:sodipodi="http://sodipodi.sourceforge.net/DTD/sodipodi-0.dtd"
   xmlns:inkscape="http://www.inkscape.org/namespaces/inkscape"
   width="60"
   height="60"
   version="1.1"
   id="svg30"
   sodipodi:docname="0UM.svg"
   inkscape:version="1.0.1 (3bc2e813f5, 2020-09-07)">
  <metadata
     id="metadata36">
    <rdf:RDF>
      <cc:Work
         rdf:about="">
        <dc:format>image/svg+xml</dc:format>
        <dc:type
           rdf:resource="http://purl.org/dc/dcmitype/StillImage" />
      </cc:Work>
    </rdf:RDF>
  </metadata>
  <defs
     id="defs34" />
  <sodipodi:namedview
     pagecolor="#ffffff"
     bordercolor="#666666"
     borderopacity="1"
     objecttolerance="10"
     gridtolerance="10"
     guidetolerance="10"
     inkscape:pageopacity="0"
     inkscape:pageshadow="2"
     inkscape:window-width="1366"
     inkscape:window-height="711"
     id="namedview32"
     showgrid="false"
     inkscape:zoom="9.1"
     inkscape:cx="30"
     inkscape:cy="30"
     inkscape:window-x="0"
     inkscape:window-y="0"
     inkscape:window-maximized="1"
     inkscape:current-layer="svg30" />
  <g
     opacity="0.99"
     id="g28"
     transform="translate(3.9217429)">
    <path
       d="m -11.54,7.394 -12.768,4.282 -6.541,42.62 H 7.766 L 1.225,11.675 Z"
       fill="#fee572"
       fill-opacity="0.992"
       stroke="#000000"
       transform="matrix(0.99101,0,0,0.9217,37.516,1.583)"
       id="path2" />
    <g
       id="g26">
      <g
         stroke="#ff0000"
         id="g22">
        <g
           stroke-width="2.599"
           id="g8">
          <path
             d="m 28.973,22.078 c 3.663,0.276 2.07,0.748 4.82,1.887 l 3.764,1.917 -0.435,2.825 c 0.363,3.526 1.923,5.865 3.854,8.684 l 0.897,0.652 c -1.474,0.688 -1.978,1.103 -2.052,1.526 -0.473,0.815 -1.369,0.924 -2.208,1.23 l 0.66,-3.238 -3.934,-4.626 c 0.503,2.782 -1.022,3.26 -0.52,6.027 l 1.34,3.215 -1.162,0.336 -1.53,-2.281 c -0.125,-2.683 -0.684,-4.901 -1.228,-7.592 -2.326,0.452 -2.856,1.979 -5.23,-1.396 1.143,2.527 -0.15,4.741 0.758,7.358 4.362,3.716 4.618,6.52 6.015,9.385 -7.967,2.599 -16.423,-1.716 -22.498,0.56 0.656,-0.904 2.629,-4.149 6.496,-5.823 C 14.7,42.189 14.914,41 10.872,42.062 c 0.933,-1.424 5.639,-6.746 6.958,-5.429 -2.062,-0.147 -3.709,-1.436 -6.202,-0.396 2.871,-3.577 4.894,-3.197 7.247,-4.183 l -2.974,-0.143 -3.01,-0.145 c 1.82,-3.18 5.329,-3.754 8.58,-4.723 -1.663,-0.569 -4.163,-0.4 -6.586,-0.156 C 17.84,24.5 21.48,23.16 25.59,22.118"
             fill="#ff0000"
             stroke-width="1.14023"
             stroke-linejoin="round"
             id="path4" />
          <path
             d="m 33.712,27.485 c 0.306,0.485 0.131,0.858 0.953,2.212 -0.375,0.22 -0.684,0.026 -1.09,-0.422 -0.628,-0.743 -0.638,-0.844 0.137,-1.79 z"
             fill="#fee572"
             fill-opacity="0.992"
             stroke="#fee572"
             stroke-width="1.20002"
             stroke-opacity="0.992"
             id="path6" />
        </g>
        <path
           d="m 37.6,25.86 c 0.19,-1.613 -4.465,-4.29 -4.778,-6.374 l 1.632,-2.346 -2.958,0.969 c -1.793,-0.296 -7.089,-2.707 -9.11,-4.7 -0.33,-0.326 -0.715,-1.287 -0.73,-1.623 -0.892,1.306 -1.071,1.259 -1.564,2.485 1.44,1.612 5.177,3.088 6.968,3.927 3.128,2.003 4.66,4.888 7.331,7.29 z"
           fill="#fee572"
           fill-opacity="0.992"
           stroke-width="0.779933"
           id="path10" />
        <path
           d="m 31.751,25.451 c -1.207,-0.85 -2.49,-3.723 -3.643,-4.968 -1.146,-1.237 -1.636,-0.465 -3.393,-1.354 0.105,-0.046 1.028,1.866 1.146,3.528 0.067,0.949 -0.643,1.954 -0.618,2.121 0.292,1.958 3.83,2.111 4.52,2.815"
           fill="#ff0000"
           stroke-width="1.22374"
           id="path12" />
        <path
           d="m 37.628,40.383 -1.59,-0.83 1.622,-0.69"
           fill="#ff0000"
           stroke-width="0.81583"
           id="path14" />
        <path
           d="m 25.519,24.987 c -8.127,2.104 -4.996,17.787 -7.534,22.878 -0.122,0.245 -0.131,0.283 -0.184,0.64"
           fill="none"
           stroke="#fee572"
           stroke-width="0.960232"
           stroke-opacity="0.992"
           id="path16" />
        <path
           d="m 27.41,33.772 c -0.457,-0.669 -1.146,-2.354 -1.603,-4.314 m 6.165,-3.924 c -1.44,-1.385 -1.987,-2.472 -1.97,-4.019 m -0.229,6.068 c -0.26,-0.062 -3.723,-1.983 -4.254,-2.596 0.772,-1.232 -0.077,-2.177 0,-3.245"
           fill="none"
           stroke="#fee572"
           stroke-width="0.840305"
           stroke-opacity="0.992"
           id="path18" />
        <path
           d="m 34.512,41.964 1.59,-0.83 -1.623,-0.69"
           fill="#ff0000"
           stroke-width="0.81583"
           id="path20" />
      </g>
      <path
         d="M 21.986,26.501 C 21,26.498 19.528,26.619 18.542,27.186 m 1.208,4.074 c -2.315,0.245 -2.97,0.405 -4.218,0.956 m 3.641,3.732 c -0.86,0.021 -1.873,0.047 -4.182,0.793 m 3.749,5.264 c -1.321,-0.18 -2.139,0.275 -3.46,0.649"
         fill="none"
         stroke="#fee572"
         stroke-width="0.840305"
         stroke-opacity="0.992"
         id="path24" />
    </g>
  </g>
</svg>
