<svg xmlns="http://www.w3.org/2000/svg" width="52.157" height="52.157"><g opacity=".99"><g stroke-width="1.044"><path d="M-11.54 7.386l-13.14 4.634-6.169 42.276H7.767L1.598 12.02z" fill="#fee572" fill-opacity=".992" stroke="#000" transform="matrix(-1.04053 0 0 -.96762 14.07 55.905)"/></g><path d="M34.978 14.98l.29 2.917" fill="none" stroke="#ffffe5" stroke-width=".65838"/><path d="M31.603 17.693H20.866" fill="none" stroke="#fff" stroke-width=".65838"/><path d="M21.4 18.396a4.86 6.037 0 00.029.153 4.86 6.037 0 00.153.574 4.86 6.037 0 00.199.55 4.86 6.037 0 00.241.523 4.86 6.037 0 00.283.492 4.86 6.037 0 00.32.454 4.86 6.037 0 00.357.41 4.86 6.037 0 00.386.366 4.86 6.037 0 00.414.315 4.86 6.037 0 00.437.262 4.86 6.037 0 00.457.207 4.86 6.037 0 00.471.15 4.86 6.037 0 00.48.09 4.86 6.037 0 00.486.03 4.86 6.037 0 00.343-.014 4.86 6.037 0 00.482-.074 4.86 6.037 0 00.475-.132 4.86 6.037 0 00.46-.19 4.86 6.037 0 00.444-.246 4.86 6.037 0 00.422-.301 4.86 6.037 0 00.395-.352 4.86 6.037 0 00.365-.397 4.86 6.037 0 00.331-.442 4.86 6.037 0 00.295-.48 4.86 6.037 0 00.253-.515 4.86 6.037 0 00.212-.543 4.86 6.037 0 00.166-.567 4.86 6.037 0 00.067-.323z" stroke="#000" stroke-width=".60439284" stroke-linecap="round" stroke-linejoin="round"/><path d="M37.194 34.439v-16.76h-2.576a8.787 8.787 0 01-.044.291 8.787 8.787 0 01-.217.85 8.787 8.787 0 01-.3.826 8.787 8.787 0 01-.383.79 8.787 8.787 0 01-.459.749 8.787 8.787 0 01-.532.7 8.787 8.787 0 01-.598.642 8.787 8.787 0 01-.661.58 8.787 8.787 0 01-.714.51 8.787 8.787 0 01-.762.438 8.787 8.787 0 01-.801.359 8.787 8.787 0 01-.834.276 8.787 8.787 0 01-.857.193 8.787 8.787 0 01-.872.106 8.787 8.787 0 01-.621.022 8.787 8.787 0 01-.878-.044 8.787 8.787 0 01-.868-.131 8.787 8.787 0 01-.852-.218 8.787 8.787 0 01-.824-.3 8.787 8.787 0 01-.792-.383 8.787 8.787 0 01-.748-.459 8.787 8.787 0 01-.7-.532 8.787 8.787 0 01-.642-.598 8.787 8.787 0 01-.58-.66 8.787 8.787 0 01-.511-.714 8.787 8.787 0 01-.436-.762 8.787 8.787 0 01-.36-.802 8.787 8.787 0 01-.277-.833 8.787 8.787 0 01-.191-.858 8.787 8.787 0 01-.006-.039h-2.335v16.76z" stroke="#000" stroke-linecap="round" stroke-linejoin="round" stroke-width=".65838"/><path d="M16.029 16.583h-2.636l.6 1.094.49.02h1.624c-.034-.28-.057-.56-.072-.843-.003-.09-.005-.18-.006-.271zM36.113 17.682l1.637-.001.568.005.563-1.112h-2.694c-.002.176-.008.352-.017.527-.015.195-.034.389-.057.581z" stroke="#000" stroke-width=".53855484" stroke-linejoin="round"/><path d="M16.044 14.78l-2.668.01.003 1.508 2.593-.002a6.017 7.717 0 01-.009-.311 6.017 7.717 0 01.03-.77 6.017 7.717 0 01.051-.434zM36.09 16.37l2.805-.004-.007-1.585-2.867.01a5.926 7.895 0 01.065.714 5.926 7.895 0 01.015.558 5.926 7.895 0 01-.011.307z" stroke="#000" stroke-width=".53855484"/><path d="M30.886 17.795a4.794 9.913 0 00.013-.566 4.794 9.913 0 00-.011-.702 4.794 9.913 0 00-.058-.984 4.794 9.913 0 00-.069-.636l-9.316.048a4.794 9.913 0 00-.037.304 4.794 9.913 0 00-.072.98 4.794 9.913 0 00-.024.99 4.794 9.913 0 00.01.58z" stroke="#000" stroke-width=".71829258"/><path d="M37.204 34.438c1.757 1.287 1.863 2.01 2.506 3.569-9.234-.955-18.546-1.091-27.263 0 .629-2.064.745-2.374 2.454-3.569z" stroke="#000" stroke-linejoin="round" stroke-width=".65838"/><path d="M26.08 25.68a8.787 8.787 0 008.786-8.787 8.787 8.787 0 00-8.787-8.788 8.787 8.787 0 00-8.788 8.788 8.787 8.787 0 008.788 8.787zm0-2.777a5.793 6.01 0 01-5.794-6.01 5.793 6.01 0 015.793-6.01 5.793 6.01 0 015.792 6.01 5.793 6.01 0 01-5.792 6.01z" stroke="#000" stroke-width=".53855484" stroke-linecap="round" stroke-linejoin="round"/><path d="M26.02 16.37v-6.198" fill="none" stroke="#000" stroke-width=".65838"/><path d="M37.553 33.623H14.604" fill="#fff" stroke="#fee572" stroke-width=".95728452" stroke-opacity=".992"/><path d="M30.269 12.209l-4.161 4.219-4.35-4.35" fill="none" stroke="#000" stroke-width=".65838"/><path d="M39.22 16.29h-3.224" fill="#fff" stroke="#fee672" stroke-width=".8381177399999999" stroke-opacity=".984"/><path d="M31.164 16.29H20.985" fill="#fff" stroke="#fee672" stroke-opacity=".984" stroke-width=".65838"/><path d="M16.113 16.29h-3.048" fill="#fff" stroke="#fee672" stroke-width=".8381177399999999" stroke-opacity=".984"/><path d="M26.05 14.713v8.028" fill="none" stroke="#fee672" stroke-opacity=".984" stroke-width=".65838"/><path d="M24.55 14.846l5.614 5.842" fill="#fff" stroke="#fee672" stroke-opacity=".984" stroke-width=".65838"/><path d="M27.758 14.734l-5.811 5.913" fill="none" stroke="#fee672" stroke-opacity=".984" stroke-width=".65838"/><path d="M21.602 14.386a5.338 5.338 0 00.986 6.948 5.338 5.338 0 007.017-.032 5.338 5.338 0 00.923-6.956" fill="none" stroke="#fee672" stroke-linejoin="bevel" stroke-opacity=".984" stroke-width=".65838"/><path d="M31.133 17.805H21.037" fill="none" stroke="#fee672" stroke-opacity=".984" stroke-width=".65838"/><path d="M16.855 14.424a9.495 9.495 0 003.851 10.08 9.495 9.495 0 0010.79-.032A9.495 9.495 0 0035.29 14.37" fill="none" stroke="#fee672" stroke-width="1.07710968" stroke-linejoin="bevel" stroke-opacity=".984"/><path d="M37.584 18.546h-1.752M16.33 18.546h-1.75" fill="#fff" stroke="#fee672" stroke-width="1.07710968" stroke-opacity=".984"/></g></svg>