<svg xmlns="http://www.w3.org/2000/svg" width="52.157" height="52.157"><g opacity=".99"><path d="M26.079 46.266l11.553-3.535 6.163-36.86H8.362l6.155 36.815z" fill="#feec99" stroke="#000" stroke-width=".887"/><g opacity=".99"><g stroke-width="1.386"><path d="M32.787 41.948c.73-1.378.447-2.955.447-4.47 1.204-2.48 2.018-4.388 1.851-6.64 1.565-1.743 2.94-3.599 3.831-5.746.254-1.064.474-2.128.064-3.193l-.574-.319c-.741-1.536-.96-1.876-2.618-1.66-.914 2.831-.79.976-.894-.766-2.54.818-2.482 2.184-3.815 4.24-2.016.931-2.891 1.403-4.869 2.145l-.894.574-1.34 2.235 1.213-2.17-.32-1.405s-.063-1.277 0-1.597c.135-2.057 1.958-4.543 3.434-5.812 2.017-1.536 2.406-2.964 2.696-5.425-9.85-5.467-14.682-2.906-19.219.127a32.84 32.84 0 00.777 3.488c1.09 3.657 1.294 5.967 1.458 12.283.304 4.631 5.045 11.103 11.072 10.796l2.975 4.592c1.252-1.115 1.07-2.77 1.277-4.342l.958.128z" fill="red" stroke="red" stroke-width=".66"/><path d="M25.341 26.21c-.686 1.198-.774 3.184-.704 3.901" fill="none" stroke="#feec99" stroke-width=".84"/><path d="M30.934 33.51c2.099-.563 1.774-1.124 2.335-2.164-1.733-.135-2.622.883-2.335 2.164z" fill="#feec99" stroke="#feec99" stroke-width=".9"/><path d="M24.118 36.535c-.91.519-2.72-.5-3.379-1.057-2.185-1.845-4.668-4.237-4.707-7.314-.6-4.781-.377-11.449-2.19-15.474" fill="none" stroke="#feec99" stroke-width="1.32"/></g><path d="M35.409 19.731l-1.682 2.374M37.81 23.066c.409.763-.156.949-1.072 1.815" fill="none" stroke="#feec99" stroke-width=".84"/><path d="M37.609 27.794l-3.95-2.303c-2.275 3.764-2.286 3.7-4.549 6.87.7 1.73 3.11 2.571 4.988 3.593l-.813 1.932c-1.89-1.18-4.242-1.81-5.447-3.827-1.4 1.685-2.298 3.38-3.224 4.734-.802-.097-1.445-.102-2.391-.513 2.595-3.771 5.947-7.452 10.074-13.701l-1.218-1.185.854-1.56 1.91 1.933 4.55 2.467a9.041 9.041 0 01-.784 1.56z" fill="#feec99" stroke="red" stroke-width=".36" stroke-opacity=".992"/><path d="M31.15 13.36c-.33-.074-1.106-.41-1.263-.496-5.709-3.157-11.554-3.743-16.444-.099-.209.155-1.507.81-1.722.87" fill="none" stroke="#feec99" stroke-width="1.8"/><path d="M31.811 22.956c-.308-.215-.255-.334-.297-.436-1.53-3.674-4.23-5.489-5.915-5.899-6.625.028-8.262 4.139-11.37 7.148-.129.124-.46.403-.659.411" fill="none" stroke="#feec99" stroke-width="1.2"/></g></g></svg>