<svg xmlns="http://www.w3.org/2000/svg" viewBox="0 0 52.157 52.157"><path d="m26.078 48.76 13.673-4.484 6.418-40.907H5.988l6.419 40.907z" opacity=".99" fill="#feec99" stroke="#000" stroke-width="1.048"/><path style="fill:red;fill-opacity:.992157;stroke:none;stroke-width:1px;stroke-linecap:butt;stroke-linejoin:miter;stroke-opacity:1" d="M35.853 43.321c.102.006.194.005.271-.004a.58.58 0 0 0 .202-.053c-.503-.613-4.463-3.429-2.297-4.207.026-.009.043-.02.068-.029.866.04 1.75.917 1.846 1.004.13.118.431.157.78.143 1.042-.044 2.494-.871.907-1.205-1.445-.503-2.622-.76-3.484-1.38l-.004.008c-.616-.638-1.898-1.798-2.539-2.363l-1.07-1.021c-.325-.279-.896-.74-1.498-1.078a3.94 3.94 0 0 0-.883-.38c-.26-.067-.446-.068-.594-.02a.89.89 0 0 0 .041.408c.098.332.334.784.596 1.22.262.436.55.859.758 1.162.102.15.184.27.238.356 0 0 4.254 1.116 2.88 2.81-2.277 2.81 2.25 4.533 3.782 4.627zm-19.6 0v-.002c1.533-.094 6.06-1.818 3.782-4.627-1.374-1.694 2.88-2.81 2.88-2.81.054-.085.136-.205.239-.356.207-.303.495-.726.758-1.162.262-.436.497-.888.595-1.22a.89.89 0 0 0 .041-.409c-.148-.047-.333-.046-.593.022a3.94 3.94 0 0 0-.883.378c-.603.339-1.173.8-1.498 1.079l-1.07 1.021c-.641.565-1.924 1.725-2.54 2.363l-.004-.007c-.862.619-2.038.876-3.484 1.378-1.587.335-.135 1.162.908 1.206.348.014.65-.025.78-.143.095-.087.98-.964 1.845-1.004.025.01.042.02.069.03 2.165.777-1.795 3.593-2.297 4.206a.58.58 0 0 0 .2.053c.078.01.17.01.272.004zm19.953-7.973c.714-1.578 1.015-2.434-1-4.761 1.33.318 2.772 2.99 3.38 3.539 1.041-2.636-.262-3.793-1.874-4.633 1.572-.336 2.51.416 4.086.894-.878-1.604-1.962-4.057-4.619-2.916.987-1.355 2.706-1.979 4.176-2.851-1.511-.286-3.086-1.036-4.375.289.669-1.222 1.759-2.266 2.828-3.316a16.78 16.78 0 0 0-1.303.224c-.684.756-1.477 1.258-2.261 1.613-.008.419-.121.855-.235 1.237-.068.228-.087.263-.14.41.194.05.355.062.578.203.189.12.373.309.467.566.093.258.09.558.002.883l-.485 1.776c-.144.528-.602.785-1.06 1.03-.363.195-.727.335-1.059.47.051.401.101.806.139 1.21zm-20.255 0 2.76-4.136c.037-.404.085-.807.136-1.207-.332-.135-.696-.275-1.058-.47-.46-.245-.917-.502-1.061-1.03l-.484-1.776c-.09-.325-.094-.625 0-.883.093-.257.28-.446.468-.566.223-.141.383-.154.577-.203-.053-.147-.073-.182-.141-.41-.114-.382-.226-.818-.234-1.237-.785-.355-1.578-.857-2.262-1.613-.427-.09-.86-.167-1.305-.224 1.07 1.05 2.161 2.094 2.83 3.316-1.289-1.325-2.866-.575-4.377-.29 1.47.873 3.192 1.497 4.178 2.852-2.657-1.14-3.741 1.312-4.62 2.916 1.578-.478 2.513-1.23 4.085-.894-1.612.84-2.915 1.997-1.873 4.633.607-.549 2.052-3.221 3.38-3.54-2.014 2.328-1.713 3.184-1 4.762zm8.718-.318c.253-.007.503-.016.53-.02.005 0 .013.003.02.003l.86-.149.86.149c.006 0 .015-.003.021-.002.024.003.252.011.473.017-.035-.057-.063-.092-.098-.15-.283-.471-.545-.938-.697-1.451-.077-.262-.134-.437-.066-.811-.003.016-.01.027-.012.043.006-.078.013-.088.014-.09-.004.02.001.028-.002.047.165-.987 1.043-1.034 1.83-.826h.004c.393.102.758.272 1.119.474.705.397 1.308.89 1.658 1.19l.021.017 1.061 1.014.072.065.032-.069v-.002c.494-1.309.316-2.978.097-4.68l-.04-.314.294-.121c.379-.154.867-.346 1.262-.557.394-.21.64-.476.652-.52l.485-1.775c.057-.21.041-.322.02-.384-.023-.062-.057-.1-.136-.15-.127-.082-.362-.14-.603-.206-.393.004-.834.025-1.295-.017-.565-.053-1.17-.22-1.608-.711l-.044-.051-.026-.063c-.171-.402-.277-.835-.379-1.254h.666c.314.01 3.7.076 5.729-2.591.766-1.008 1.5-1.753 2.342-2.137.367-.168.53-.317.837-.357.19-.025.527.095.809.171l-.264-.683c-.917-.315-1.661-.16-2.37.303-.738.48-1.42 1.284-2.083 2.148-.864 1.136-2.256 1.662-3.418 1.918-.987.217-1.572.202-1.802.203l-.739.027c-.047-.112-.099-.21-.152-.29a.615.615 0 0 0-.307-.254 32.418 32.418 0 0 1-4.183.646l-.034.004-.035-.004a32.385 32.385 0 0 1-4.181-.646.615.615 0 0 0-.307.253c-.053.08-.104.179-.152.291l-.74-.027c-.23 0-.816.014-1.803-.203-1.162-.256-2.554-.782-3.418-1.918-.663-.864-1.345-1.669-2.082-2.148-.71-.462-1.454-.618-2.371-.303l-.264.683c.282-.076.619-.196.809-.171.306.04.47.189.837.357.842.384 1.576 1.129 2.342 2.137 2.029 2.667 5.415 2.6 5.729 2.591h.668c-.101.419-.208.852-.38 1.254l-.027.063-.044.05c-.44.496-1.064.678-1.659.753-.55.07-1.09.054-1.529.06a1.347 1.347 0 0 0-.318.121c-.08.05-.113.089-.135.15-.022.063-.038.174.02.385l.484 1.776c.011.043.26.308.654.52.394.21.883.402 1.262.556l.293.121-.04.315c-.218 1.702-.397 3.372.098 4.681l.016.035.035-.03 1.06-1.015.022-.017c.35-.3.953-.793 1.658-1.19.361-.202.727-.372 1.12-.474h.002c.787-.208 1.668-.162 1.832.828-.004-.02 0-.028-.004-.049 0 .002.007.012.013.09-.002-.015-.007-.026-.01-.041.067.372.01.548-.068.808-.151.514-.414.98-.697 1.452-.035.059-.064.094-.1.152zm5.551-3.516c-.679-.096-.952-1.013-3.049-2.521.537-.882 1.297-1.258 2.637-1.041 1.257.452 2.48 1.213 1.709 2.79-.29.48-.62.705-.973.765-.119.02-.32-.087-.324.007zm-8.283 0a1.03 1.03 0 0 1-.322-.007c-.353-.06-.682-.284-.973-.764-.771-1.578.452-2.34 1.709-2.791 1.34-.217 2.098.16 2.635 1.041-2.097 1.508-2.37 2.425-3.049 2.521zm6.154-6.216c-.66-.145-.95-1.093-1.406-1.678l.838.619 1.04.113c-.069.45.368.81-.472.946zm-4.023 0c-.84-.136-.405-.495-.475-.946l1.041-.113.838-.62c-.457.586-.744 1.534-1.404 1.679zm-5.928-.278a7 7 0 0 0 .758-.043c.479-.06.855-.208 1.101-.463.035-.088.062-.2.092-.304a9.015 9.015 0 0 1-2.293-.434c.032.21.075.434.14.656.098.328.163.486.202.588zm15.902-.07c.047-.125.09-.23.176-.518.068-.226.095-.44.127-.652a9.022 9.022 0 0 1-2.28.43c.03.103.059.215.093.302.246.256.579.38 1.023.42.27.025.562.024.861.018zm-2.638-2.793a8.69 8.69 0 0 0 1.78-.219c.218-.048.446-.117.673-.187-.113-.194-.223-.39-.36-.565.007.01-.291-.198-.554-.312-.263-.114-.5-.194-.5-.194l-.24-.08-.038-.25c-.554-3.645-1.3-4.983-2.22-7.709a2.495 2.495 0 0 0-.389-.455l-.574-7.69-.813 5.778-1.088-5.13-1.005 5.025-1-5.014-1.096 5.205-.813-5.9-.568 7.73a2.494 2.494 0 0 0-.385.45c-.92 2.725-1.666 4.064-2.22 7.71l-.04.25-.238.08s-.239.08-.502.194-.56.321-.552.312c-.137.176-.247.373-.36.567a8.697 8.697 0 0 0 2.453.404c.038-.075.067-.154.114-.225.18-.271.442-.511.787-.619-.038-3.946.024-3.54 1.013-7.267l.041-.157.135-.086c.89-.572 2.052-.852 3.219-.851 1.166 0 2.343.284 3.244.924l.121.086.037.144c.987 3.745 1.105 3.332 1.018 7.201l.01.002c.35.106.615.35.797.623.046.07.075.15.113.225zm-5.324-.203c.924-.078 2.2-.242 3.48-.5l-.586-3.135-.812 1.57-1.088-1.203-1.006 1.143-1-1.137-1.096 1.246-.812-1.64-.58 3.15c1.286.26 2.57.428 3.5.506zm-.012-5.277 1-.963.947.912.426-2.26a5.005 5.005 0 0 0-2.377-.59c-.863 0-1.696.214-2.367.549l.431 2.293.94-.904z"/></svg>