<?xml version="1.0" encoding="UTF-8" standalone="no"?>
<svg
   xmlns:dc="http://purl.org/dc/elements/1.1/"
   xmlns:cc="http://creativecommons.org/ns#"
   xmlns:rdf="http://www.w3.org/1999/02/22-rdf-syntax-ns#"
   xmlns:svg="http://www.w3.org/2000/svg"
   xmlns="http://www.w3.org/2000/svg"
   xmlns:sodipodi="http://sodipodi.sourceforge.net/DTD/sodipodi-0.dtd"
   xmlns:inkscape="http://www.inkscape.org/namespaces/inkscape"
   width="60"
   height="60"
   version="1.1"
   id="svg32"
   sodipodi:docname="1RY.svg"
   inkscape:version="1.0.1 (3bc2e813f5, 2020-09-07)">
  <metadata
     id="metadata38">
    <rdf:RDF>
      <cc:Work
         rdf:about="">
        <dc:format>image/svg+xml</dc:format>
        <dc:type
           rdf:resource="http://purl.org/dc/dcmitype/StillImage" />
      </cc:Work>
    </rdf:RDF>
  </metadata>
  <defs
     id="defs36" />
  <sodipodi:namedview
     pagecolor="#ffffff"
     bordercolor="#666666"
     borderopacity="1"
     objecttolerance="10"
     gridtolerance="10"
     guidetolerance="10"
     inkscape:pageopacity="0"
     inkscape:pageshadow="2"
     inkscape:window-width="1366"
     inkscape:window-height="711"
     id="namedview34"
     showgrid="false"
     inkscape:zoom="9.1"
     inkscape:cx="30"
     inkscape:cy="30"
     inkscape:window-x="0"
     inkscape:window-y="0"
     inkscape:window-maximized="1"
     inkscape:current-layer="svg32" />
  <g
     opacity="0.99"
     id="g30"
     transform="translate(3.9219991)">
    <path
       d="m -36.762,-31.01 -13.206,4.802 -6.2,43.812 h 38.813 l -6.2,-43.812 z"
       fill="#feed99"
       fill-opacity="0.984"
       stroke="#000000"
       transform="matrix(-0.98595,0,0,-0.88924,-10.167,24.025)"
       stroke-width="1.024"
       id="path2" />
    <g
       stroke-width="0.8"
       fill="none"
       stroke="#ffffff"
       id="g6">
      <path
         d="m 25.647,39.9 c 0.35,-1.48 -0.9,-3.056 -2.782,-3.554 1.353,-0.905 1.803,-1.806 1.803,-1.806 -0.606,-0.02 -2.156,-0.382 -2.708,-1.305 0.256,-0.084 1.582,-0.526 1.78,-1.344 m -1.144,-0.149 c -5.197,1.567 -8.455,-0.785 -10.051,-3.88 m 8.323,2.293 c -5.6,-0.195 -4.076,-6.641 -2.68,-10.121 m -0.353,12.061 c -2.318,-1.26 -4.256,-3.003 -3.42,-8.253 m 6.912,-3.279 c 1.225,-0.555 1.855,-5.25 0.987,-4.973 m -4.655,13.155 c -1.957,-7.638 10.527,-9.703 8.71,-17.281 m -5.677,17.845 c -5.778,-6.348 10.898,-8.88 9.31,-17.951 m 2.046,23.911 c -1.387,1.872 -2.616,3.934 -4.902,4.726 m 2.468,-6.771 c -1.751,0.212 -3.503,0.324 -5.255,0.07 m 5.608,1.376 c -0.965,1.206 -2.883,1.555 -4.761,1.94"
         stroke-width="0.550176"
         id="path4" />
    </g>
    <path
       d="m 38.008,28.956 c -4.678,-0.157 -11.5,-6.11 -13.12,-2.962"
       fill="none"
       stroke="#ff0000"
       stroke-width="0.550176"
       id="path8" />
    <path
       d="m 27.353,31.113 c 3.472,-0.893 4.417,-6.767 7.331,-9.177 0.506,0.253 0.57,0.82 0.549,1.995 l 1.945,1.047 -3.142,0.4 1.995,1.097 -2.643,0.448 1.097,1.547 -2.145,-0.35 0.1,2.245 -0.948,0.499 v 1.496 l 0.499,0.748 0.798,-0.1 -0.05,-0.698 1.147,-0.1 0.1,-0.848 0.898,0.3 0.698,-0.2 -0.15,-1.696 1.447,0.05 0.05,-2.743 c 0.326,0.266 0.79,0.532 1.646,0.798 0.265,-1.563 0.196,-2.976 0.2,-4.539 l 2.343,3.292 c -0.186,0.452 -0.692,0.412 -1.047,1.447 0.03,0.722 0.059,1.442 0.349,2.294 -1.76,0.87 -3.29,2.433 -4.788,4.09 l -0.05,3.44 c -0.627,1.719 -1.062,2.65 -1.603,3.533 -0.04,-1.278 -0.109,-2.336 -0.434,-3.058 -0.995,1.058 -0.02,4.324 -3.549,6.16 0.885,-1.98 2.538,-4.054 1.446,-5.786 -3.928,4.87 -8.017,8.595 -12.867,6.883 4.786,-0.393 8.325,-3.161 7.499,-6.154 -3.008,3.36 -6.696,2.582 -7.879,2.004 3.733,-0.385 5.259,-1.816 4.47,-3.93 -4.226,1.214 -7.461,1.03 -9.427,-0.948 2.367,0.259 5.81,0.993 5.9,-0.393 -16.565,-7.31 2.43,-18.133 2.728,-19.557 1.033,-2.554 0.447,-3.523 0.4,-5.237 5.418,-2.619 9.156,-2.176 11.97,-0.05 0.543,7.647 -6.246,10.332 -9.642,11.93 -3.72,1.752 -6.013,8.537 -0.556,8.612 0.464,-0.976 0.728,-2.452 0.472,-4.332 1.139,3.35 3.068,4.328 5.536,3.69"
       fill="#ff0000"
       stroke="#ff0000"
       stroke-width="0.513039"
       id="path10" />
    <g
       stroke-width="0.8"
       id="g22">
      <path
         d="m 25.647,39.9 c 0.35,-1.48 -0.9,-3.056 -2.782,-3.554 1.353,-0.905 1.803,-1.806 1.803,-1.806 -0.606,-0.02 -2.156,-0.382 -2.708,-1.305 0.256,-0.084 1.582,-0.526 1.78,-1.344"
         fill="none"
         stroke="#feed99"
         stroke-width="0.740904"
         stroke-opacity="0.984"
         id="path12" />
      <g
         stroke="#ffffff"
         id="g18">
        <path
           d="m 22.596,31.742 c -5.197,1.567 -8.455,-0.785 -10.051,-3.88 m 8.323,2.293 c -5.6,-0.195 -4.076,-6.641 -2.68,-10.121"
           fill="none"
           stroke="#feed99"
           stroke-width="0.740674"
           stroke-opacity="0.984"
           id="path14" />
        <path
           d="M 20.692,29.309 C 15.017,23.074 31.002,20.521 30.07,11.837 30.053,11.679 29.786,9.614 29.792,9.33"
           fill="none"
           stroke="#feed99"
           stroke-width="0.740674"
           stroke-opacity="0.984"
           id="path16" />
      </g>
      <path
         d="m 29.614,33.224 c -1.751,0.212 -3.503,0.324 -5.255,0.07 m 5.608,1.376 c -0.965,1.206 -2.883,1.555 -4.761,1.94"
         fill="none"
         stroke="#feed99"
         stroke-width="0.740674"
         stroke-opacity="0.984"
         id="path20" />
    </g>
    <path
       d="m 32.802,38.163 1.529,-1.172 v -1.783 c -0.772,0.431 -1.131,0.853 -1.427,1.274 -0.101,0.628 -0.22,1.273 -0.102,1.681 z"
       fill="#feed99"
       fill-opacity="0.984"
       stroke="#feed99"
       stroke-width="0.740674"
       stroke-opacity="0.984"
       id="path24" />
    <path
       d="m 38.008,28.956 c -4.678,-0.157 -11.5,-6.11 -13.12,-2.962"
       fill="none"
       stroke="#ff0000"
       stroke-width="0.57012"
       id="path26" />
    <path
       d="m 22.698,25.084 -1.907,-1.193 m 5.744,-1.238 c -0.677,-0.875 -1.176,-1.606 -2.246,-1.598 m 6.849,-1.43 C 30.616,18.281 29.258,18.167 27.7,18.049 m 6.164,-2.759 c -0.565,-2.47 -2.31,-2.27 -4,-2.078"
       fill="none"
       stroke="#feed99"
       stroke-width="0.740943"
       stroke-opacity="0.984"
       id="path28" />
  </g>
</svg>
