<svg xmlns="http://www.w3.org/2000/svg" width="498.898" height="544.252" viewBox="0 0 1320 1440"><defs><linearGradient id="b" x1="-1430.769" x2="-1409.955" y1="-77.47" y2="-77.47" gradientUnits="userSpaceOnUse" spreadMethod="reflect"><stop offset="0" stop-color="#ffd285"/><stop offset=".232" stop-color="#ffcd79"/><stop offset=".616" stop-color="#ffca73"/><stop offset=".808" stop-color="#ffd386"/><stop offset="1" stop-color="#ffc86e"/></linearGradient><linearGradient id="c" x1="-899.905" x2="-899.906" y1="-344.262" y2="125.211" gradientUnits="userSpaceOnUse"><stop offset=".597" stop-color="#fff"/><stop offset="1"/></linearGradient><filter id="a" width="1.022" height="1.022" x="-.011" y="-.011" style="color-interpolation-filters:sRGB"><feGaussianBlur stdDeviation="2.441"/></filter><filter id="d" width="1.083" height="1.089" x="-.041" y="-.044" style="color-interpolation-filters:sRGB"><feGaussianBlur in="SourceGraphic" result="result0" stdDeviation="6"/><feDiffuseLighting lighting-color="#FFF" result="result5" surfaceScale="4"><feDistantLight azimuth="235" elevation="45"/></feDiffuseLighting><feComposite in="result5" in2="SourceGraphic" k1="1.4" operator="arithmetic" result="fbSourceGraphic"/><feGaussianBlur in="fbSourceGraphic" result="result0" stdDeviation="6"/><feSpecularLighting in="result0" lighting-color="#FFF" result="result1" specularExponent="25" surfaceScale="4"><feDistantLight azimuth="280" elevation="45"/></feSpecularLighting><feComposite in="fbSourceGraphic" in2="result1" k2="1" k3="1" operator="arithmetic" result="result4"/><feComposite in="result4" in2="SourceGraphic" operator="in" result="result2"/></filter></defs><path d="m-2745.657 265.144 28.198 35.189h489.331l10.087-9.413-110.95-494.045-31.462-17.601z" filter="url(#a)" opacity=".5" transform="matrix(-2.0051 0 0 2.0051 -4364.078 816.662)"/><path fill="url(#b)" d="m-1215.57-304.058-153.963 48.25-92.727 473.093 6.639 36.814 10.024 8.338h460.053l10.024-8.338 6.639-36.814-92.727-473.093z" transform="translate(3097.382 831.934)scale(2.0051)"/><path fill="url(#c)" d="m-899.905-344.262-153.963 48.25-92.727 473.093 6.639 36.814 10.024 8.338h460.054l10.024-8.338 6.639-36.814-92.727-473.093z" opacity=".25" style="mix-blend-mode:overlay" transform="translate(2464.43 912.55)scale(2.0051)"/><path fill="#fff" d="m1133.938 1262.57-.043 21.064 20.75-16.013z" opacity=".8"/><path d="m1154.645 1267.622-20.75 16.013-12.661 74.524 20.099-16.719z" opacity=".6"/><g fill="#fff"><path d="m351.284 319.007 17.664 13.248L660 238.66v-16.402zm617.432 0-17.664 13.248L660 238.66v-16.402z" opacity=".3"/><path d="m968.716 319.007-17.664 13.248 182.886 930.315 20.707 5.052z" opacity=".3"/></g><path d="m351.284 319.007 17.664 13.248-182.886 930.315-20.707 5.052z" opacity=".4"/><path d="m165.355 1267.622 20.75 16.013 12.661 74.524-20.099-16.719z" opacity=".9"/><path d="m186.062 1262.57.043 21.064-20.75-16.013z" opacity=".6"/><path d="M186.062 1262.57h947.876l-.043 21.064h-947.79z" opacity=".2"/><path d="m1133.895 1283.634-12.661 74.524H198.765l-12.66-74.524z" opacity=".7"/><path d="M647.07 1168.51c-17.956-2.652-28.333-7.508-42.91-20.381-11.785-10.338-29.861-36.883-29.861-43.842 0-8.217-12.324-6.594-22.589 2.738-4.043 3.868-8.01 6.39-8.724 5.682-.66-.66.304-7.308 2.108-14.689 1.829-7.404 3.043-13.716 2.514-14.008-.482-.305-16.776.737-36.23 2.21-36.267 2.738-78.616.196-104.264-6.49-30.928-8.01-64.505-31.21-78.767-54.289-17.338-28.05-22.012-68.217-11.623-99.724 5.479-16.685 28.871-59.9 32.38-59.9 1.117 0-1.753 11.149-6.292 24.68-11.318 33.696-10.825 44.42 3.434 74.942 15.238 32.54 47.138 46.702 86.415 38.375l18.769-3.958v-12.862c0-11.027-.813-12.822-5.774-12.53-3.132.182-8.217 1.448-11.283 2.652-5.072 2.108-5.37 1.295-3.652-10.915.99-7.307 4.465-17.932 7.704-23.678 8.217-14.668 7.607-18.928-2.827-18.928-9.838 0-9.635.915-5.682-21.851 3.739-21.547 6.086-27.741 23.95-63.338 7.911-15.885 18.737-37.522 23.98-48.092 11.35-22.893 21.564-58.733 17.813-62.485-1.448-1.448-8.725-2.109-16.188-1.296-14.356 1.448-41.874-5.075-51.39-12.149-4.366-3.261-4.77-4.869-1.93-7.808 2.058-2.108 3.653-6.184 3.653-9.128 0-4.87-1.448-5.37-12.759-3.564-12.598 1.829-12.872 1.753-21.646-11.026-17.142-24.915-20.756-39.327-23.271-92.765-1.118-23.828-3.043-46.236-4.26-49.806-3.563-10.216 2.439-7.913 17.369 6.903 15.649 15.428 34.153 52.474 37.326 74.72 3.435 24.034 9.739 31.993 29.893 37.675 5.37 1.524 6.39 3.347 5.073 8.725-2.739 11.026 8.42 20.51 35.583 30.21 28.393 10.142 26.262 9.738 26.262 4.366 0-2.439-9.334-8.827-22.374-15.164-20.5-9.942-22.398-11.61-22.566-19.667-.25-11.829-2.108-14.262-16.434-21.191-14.993-7.308-17.305-10.795-23.637-36.436-5.987-24.082-15.346-41.144-33.088-60.113-14.689-15.702-26.575-22.976-33.323-20.398-3.042 1.117-4.465.076-4.465-3.348 0-4.465 2.058-4.77 16.607-3.043 36.496 4.26 65.732 18.694 103.879 51.197 7.607 6.49 16.403 13.899 19.588 16.515 3.26 2.652 13.079 10.915 21.974 18.471 8.926 7.508 17.437 13.724 18.979 13.724 1.524 0 4.173-2.957 5.77-6.49 14.022-30.41 21.28-42.604 31.559-53.032 16.106-16.332 60.336-37.218 91.091-42.979l10.43-1.93-8.317 16.472c-12.588 24.955-7.1 27.802 22.124 11.493 9.941-5.582 18.724-10.142 19.514-10.142.762 0 .014 3.869-1.752 8.522-4.044 10.68-.534 15.377 15.245 20.102 17.978 5.367 30.684 18.298 36 36.6 4.964 17.102 8.926 19.172 19.546 10.338 3.563-3.043 15.613-13.109 26.728-22.48 64.586-54.41 100.323-72.791 135.716-69.798l11.555.94-13.716 6.695c-25.993 12.776-49.042 46.342-56.821 82.728-4.366 20.338-8.42 25.632-26.971 35.035-11.938 6.086-13.384 7.712-10.844 12.47 5.682 10.568-1.447 17.825-26.414 27.153-13.42 4.963-22.073 12-18.845 15.217 2.337 2.337 32.827-7.198 46.144-14.401 10.826-5.776 15.801-15.116 12.606-23.432-1.118-3.043 1.6-5.278 9.738-7.704 16.533-4.963 22.581-13.096 27.602-37.178 2.438-11.634 8.42-29.45 13.297-39.57 9.23-19.091 32.067-47.12 35.605-43.65 1.118 1.117.915 3.739-.431 5.773-7.199 11.382-9.635 26.871-9.635 63.48-.036 32.167-.99 41.8-5.478 52.16-7.608 17.762-13.155 22.618-23.462 20.548-4.659-.94-10.498-.914-12.98.042-4.043 1.524-4.043 2.438.33 9.129 4.56 7 4.56 7.508-.61 11.381-10.042 7.405-42.756 16.655-64.17 18.159-13.641.94-21.698 2.738-22.628 5.278-2.21 5.776 6.795 33.71 17.346 53.853 5.278 9.944 15.661 29.784 23.21 44.075 17.521 33.201 27.806 64.323 27.806 84.113 0 14.432-.482 15.512-6.903 15.512-10.47 0-10.773 6.085-1.296 25.936 9.03 18.928 9.129 28.271.28 24.498-2.739-1.117-8.621-2.738-12.975-3.434-7.404-1.295-7.912-.736-7.912 8.725 0 5.583 1.829 11.623 4.044 13.49 9.235 7.704 35.261 14.63 54.797 14.63 32.462 0 51.409-15.042 63.338-50.313 6.696-19.782 5.987-38.08-2.336-64.343-9.335-29.101-9.13-30.514 2.057-15.115 5.075 7.1 10.043 13.49 10.947 14.28 2.109 1.828 15.439 29.862 20.625 43.313 2.439 6.39 3.869 21.788 3.74 41.865-.132 27.145-1.118 33.78-6.905 45.566-15.285 31.475-44.835 53.823-84.812 64.17-19.782 5.072-98.456 5.883-115.402 1.295-14.485-4.043-17.094-1.828-12.06 10.216 7.308 17.407 5.48 20.267-6.593 10.338-14.829-12.225-21.143-11.493-28.18 3.132-7.912 16.403-28.767 38.992-46.682 50.456-17.356 11.148-38.7 15.285-61.056 11.968zm32.827-15.725c17.01-5.682 35.34-17.742 45.546-29.872 15.53-18.463 16.426-47.401 1.828-57.829-10.043-7.1-14.95-7.1-36.265 0-20.59 6.904-33.102 7.198-55.061 1.524-22.408-5.773-33.423-5.479-42.24 1.448-10.429 8.217-12.31 20.094-5.582 35.187 9.433 21.128 31.67 41.427 54.644 49.857 14.598 5.37 20.308 5.37 37.144-.356zm-55.753-47.076c-13.215-5.075-20.236-10.447-17.305-13.412 3.13-3.131 15.878 1.448 24.346 8.725 10.447 8.926 8.217 10.447-7.099 4.669zm62.77 2.956c0-3.868 15.946-17.003 21.659-17.948 10.65-1.752 5.883 5.883-7.912 12.957-7.508 3.868-13.716 6.086-13.716 4.963zm-92.258-252.887c8.926-4.56 11.624-12.926 4.26-12.926-2.337 0-10.47-5.883-18.047-13.277-19.75-19.05-26.818-24.262-32.927-24.262-5.773 0-7.508 7.404-2.108 9.335 2.439.813 2.439 2.652 0 7.307-7.508 14.12-1.752 26.354 16.457 34.427 10.81 4.77 22.428 4.661 32.37-.533zm168.407-1.524c15.103-7.1 20.564-16.698 15.629-27.52-2.652-5.775-2.515-8.724.25-13.266 4.658-7.508 2.826-9.128-7.712-6.903-5.073 1.117-14.547 8.217-23.394 17.704-8.216 8.724-18.084 17.05-22.011 18.542-9.23 3.563-9.03 7.307.813 12.499 11.35 5.888 22.054 5.682 36.448-1.118z" style="fill:#9b0000;fill-opacity:1;stroke-width:2.8876;filter:url(#d)"/></svg>