<svg xmlns="http://www.w3.org/2000/svg" width="498.898" height="544.252" viewBox="0 0 1320 1440"><defs><linearGradient id="b" x1="236.943" x2="278.677" y1="670.458" y2="670.458" gradientUnits="userSpaceOnUse" spreadMethod="reflect"><stop offset="0" stop-color="#ffd285"/><stop offset=".232" stop-color="#ffcd79"/><stop offset=".616" stop-color="#ffca73"/><stop offset=".808" stop-color="#ffd386"/><stop offset="1" stop-color="#ffc86e"/></linearGradient><linearGradient id="c" x1="660" x2="670.254" y1="115.844" y2="1157.469" gradientUnits="userSpaceOnUse"><stop offset=".604" stop-color="#fff"/><stop offset="1"/></linearGradient><filter id="a" width="1.02" height="1.021" x="-.01" y="-.011" style="color-interpolation-filters:sRGB"><feGaussianBlur stdDeviation="2.441"/></filter><filter id="d" width="1.081" height="1.064" x="-.04" y="-.032" style="color-interpolation-filters:sRGB"><feGaussianBlur in="SourceGraphic" result="result0" stdDeviation="6"/><feDiffuseLighting lighting-color="#FFF" result="result5" surfaceScale="4"><feDistantLight azimuth="235" elevation="45"/></feDiffuseLighting><feComposite in="result5" in2="SourceGraphic" k1="1.4" operator="arithmetic" result="fbSourceGraphic"/><feGaussianBlur in="fbSourceGraphic" result="result0" stdDeviation="6"/><feSpecularLighting in="result0" lighting-color="#FFF" result="result1" specularExponent="25" surfaceScale="4"><feDistantLight azimuth="280" elevation="45"/></feSpecularLighting><feComposite in="fbSourceGraphic" in2="result1" k2="1" k3="1" operator="arithmetic" result="result4"/><feComposite in="result4" in2="SourceGraphic" operator="in" result="result2"/></filter></defs><path d="m-2765.718 268.206 28.198 35.189h538.751l10.087-9.413-86.673-527.828-31.462-17.601z" filter="url(#a)" opacity=".5" transform="matrix(-2.0051 0 0 2.0051 -4355.682 800.271)"/><path fill="url(#b)" d="M660 115.844 254.043 268.378l-139.111 999.236 13.312 73.804 20.099 16.718H1169.89l20.099-16.718 13.312-73.804-137.282-999.246z"/><path fill="url(#c)" d="M660 115.844 253.994 268.369l-137.243 999.246 11.442 73.812 20.099 16.719h1021.563l20.134-16.728 15.13-73.802-139.1-999.248z" opacity=".25" style="mix-blend-mode:overlay"/><path fill="#fff" d="m1182.559 1262.571-.043 21.064 20.75-16.013z" opacity=".8"/><path d="m1203.266 1267.622-20.75 16.013-12.661 74.512 20.099-16.719z" opacity=".6"/><g fill="#fff"><path d="m254.044 268.378 17.664 13.248 388.293-149.381v-16.402z" opacity=".3"/><path d="m1066.019 268.368-17.664 13.248L660 132.246v-16.402z" opacity=".3"/><path d="m1064.146 251.267-17.664 13.248 138.452 996.966 20.707 5.052z" opacity=".3"/></g><path d="m253.994 268.369 17.664 13.248-136.07 980.953-20.707 5.052z" opacity=".4"/><path d="m114.881 1267.622 20.75 16.013 12.661 74.512-20.099-16.719z" opacity=".9"/><path d="m135.588 1262.571.043 21.064-20.75-16.013z" opacity=".6"/><path d="M135.588 1262.571h1046.971l-.043 21.064H135.631z" opacity=".2"/><path d="m1182.516 1283.635-12.661 74.512H148.292l-12.661-74.512z" opacity=".7"/><path d="M655.11 1190.723c-2.957-2.16-6.871-5.067-8.822-6.589-1.955-1.524-4.63-3.782-6.075-4.778-27.098-21.046-52.213-48.449-68.388-74.578-6.01-9.644-16.807-30.47-19.05-36.613-.686-1.88-1.448-3.783-1.753-4.044-.686-.94-7.404-19.086-7.404-19.954 0-1.093-1.092-.762-1.6.355-.228.61-.61 4.488-.864 8.72-.762 14.468 2.515 35.827 7.607 48.832.432 1.092.28 1.092-1.092.762-4.26-1.397-13.612-6.226-19.832-10.277-8.517-5.573-18.928-15.895-24.422-24.211-5.174-7.803-11.09-20.295-14.689-30.94-1.524-4.705-2.956-8.621-3.132-8.832-.143-.157-2.738.94-5.887 2.464-14.659 7.162-26.029 10.612-43.192 12.659-3.739.432-6.794.66-6.794.432 0-.208.61-2.058 1.295-3.998 5.476-14.351 8.42-34.466 9.129-61.824 1.219-45.358 2.438-57.018 8.42-79.68.99-3.782 7-18.082 9.634-23.188 1.448-2.697 4.173-7.325 5.987-10.183 3.13-4.846 3.868-6.296 2.956-6.296-1.117 0-8.724 6.66-13.337 11.486-10.704 11.376-16.088 21.59-27.945 52.957-5.278 13.98-10.043 23.515-15.621 31.55-3.955 5.572-4.26 5.864-10.173 8.83-8.925 4.26-21.97 8.212-21.138 6.226 9.335-21.45 12.347-42.23 10.699-72.954-.483-8.829-1.118-17.417-1.448-19.085-.33-1.6-.914-9.645-1.448-17.755-1.117-20.914.105-39.31 4.044-58.19 1.829-8.621 7.198-21.69 11.775-28.48 3.434-5.139 9.129-11.29 12.873-14.01 1.93-1.449 3.653-2.61 3.868-2.957.864-.94 10.5-5.573 14.029-6.731 5.278-1.6 11.067-2.957 11.42-2.609.156.156-.065 2.26-.483 4.488-1.448 7.72 1.295 18.738 6.39 25.367 4.56 5.934 10.956 9.538 21.067 11.651 7.405 1.524 17.072 1.397 34.562-.61 17.445-1.879 24.37-2.158 32.432-.685 10.147 1.829 15.176 3.782 23.198 8.829 2.514 1.6 4.78 2.608 4.996 2.286.221-.356.215-.94-.01-1.397-.432-.762-2.083-9.025-3.13-15.276a691 691 0 0 1-1.6-10.85c-2.286-14.913-1.955-13.872-5.79-15.228-11.454-4.044-19.477-3.693-42.384 1.88-20.266 4.922-20.703 5.064-29.153 5.064l-8.118.042-1.296-2.464c-1.117-2.26-1.219-2.609-.431-4.488 1.117-2.515 3.652-3.825 10.233-4.846 2.827-.432 6.185-1.093 7.509-1.448 11.717-3.043 39.865-9.645 46.113-10.843 4.26-.762 11.898-1.6 16.92-1.88l9.123-.432 2.057-7.882c1.092-4.348 2.26-7.719 2.464-7.404.234.28.762 4.704 1.22 9.645.431 5.065 1.091 10.833 1.447 12.875 2.26 13.49 3.132 18.158 4.851 25.085 4.997 19.423 10.81 32.432 22.632 50.171 10.538 15.83 25.506 33.267 51.77 60.355l9.538 9.832 9.538-9.832c17.008-17.564 32.657-34.88 41.143-45.59 24.603-30.962 35.55-59.493 39.562-102.918.762-8.829 1.295-11.376 1.828-9.538.15.585 1.093 4.13 2.083 8.113l1.829 7.163 9.124.432c11.87.584 22.174 2.464 48.426 9.024 14.262 3.564 16.797 4.13 22.71 5.139 8.113 1.448 11.342 4.26 9.533 8.831-1.22 2.914-2.515 3.391-8.217 3.348-6.66-.008-11.422-.762-27.488-4.778-17.112-4.13-23.536-5.43-30.145-5.43-8.822-.02-18.593 2.913-19.129 5.646-.61 3.173-1.752 9.833-2.738 16.79-1.295 8.831-3.477 20.332-4.044 21.892-.685 1.829.864 1.448 4.63-1.092 7.092-4.704 13.775-7.163 23.005-8.83 7.913-1.447 16.274-1.168 33.345.687 8.217.863 17.864 1.6 21.466 1.6 9.23.012 19.065-1.956 25.135-5.139 3.043-1.6 8.316-6.73 10.254-9.941 3.998-6.729 6.01-17.049 4.56-23.472-.432-2.058-.66-3.782-.432-3.998.38-.381 6.01.863 11.364 2.608 15.895 4.923 30.027 18.288 36.744 34.523.686 1.6 1.524 3.782 1.829 4.488 6.368 15.088 9.743 44.034 8.113 70.639-.483 7.719-1.093 16.093-1.448 18.522-1.524 11.03-2.26 33.805-1.448 45.242 1.448 19.822 4.044 31.44 10.69 46.805.864 1.88-12.181-1.88-21.142-6.225-6.586-3.13-7.607-4.13-13.815-14.163-4.846-7.72-11.189-22.337-17.153-39.418-.762-2.26-1.6-4.349-1.956-4.704-.279-.381-.736-1.448-.99-2.286-.864-2.957-5.065-11.486-8.217-16.856-4.13-7.094-7.706-11.755-13.27-17.526-4.348-4.488-11.736-10.276-12.354-9.641-.15.15 1.093 2.463 2.827 4.922 7.504 11.29 14.28 26.389 17.529 38.853 4.846 18.638 6.368 34.084 7.404 75.835.66 25.424 3.13 43.135 8.217 58.56 1.295 3.998 2.286 7.092 2.286 7.163 0 .229-13.665-1.6-17.965-2.464-11.301-2.159-20.793-5.43-32.706-11.346-2.738-1.448-5.065-2.464-5.138-2.26-.143.161-1.524 4.043-3.13 8.828-3.609 10.66-9.537 23.132-14.683 30.919-5.5 8.316-15.873 18.562-24.427 24.211-6.152 4.044-15.568 8.926-19.828 10.307-1.447.432-1.524.356-1.092-.762 3.13-7.719 6.01-20.751 7.24-33.126 1.091-10.679.33-25.463-1.296-25.428-.242.01-1.829 3.782-3.477 8.316-3.262 9.133-3.478 9.644-9.533 23.014-18.816 41.492-48.13 77.07-89.57 108.704-9.025 6.947-14.946 11.173-15.428 11.173-.33 0-2.957-1.752-5.86-3.825zM358.087 819.749c-7-11.354-10.826-20.904-13.572-33.718-1.447-6.731-1.6-27.141-.304-32.901 2.514-10.874 3.042-12.97 4.559-17.633 2.057-6.225 10.64-24.018 12.408-25.767.19-.19 1.448-2.159 2.827-4.13 5.682-8.73 18.077-22.075 28.188-30.436 2.337-1.88 4.26-3.782 4.26-3.998 0-1.6-13.185 4.13-20.958 9.235-5.583 3.693-16.291 12.769-19.72 16.741l-1.753 1.88-.584-5.067c-.305-2.698-.432-10.43-.247-16.965.38-14.346.99-17.572 8.521-43.396 5.776-19.773 7.405-26.445 6.292-26.445-2.337 0-19.213 15.11-23.797 21.36-1.448 1.879-2.827 3.824-3.348 4.487-.432.584-1.524 2.16-2.337 3.348-.863 1.168-1.829 2.286-2.21 2.26-.914-.111-2.827-8.516-3.738-16.972-1.524-13.543 1.6-29.314 8.826-43.548 2.515-4.923 9.434-16.048 12.301-19.752.99-1.447 1.93-2.697 1.93-3.172 0-.356-2.21-.99-4.869-1.448-11.767-2.057-18.928-4.348-27.297-9.024-7.307-4.044-19.225-13.782-18.146-14.72.28-.25 3.434-.762 7-1.168 23.473-2.698 46.926-14.567 70.388-35.427 12.693-11.278 23.29-21.603 23.015-22.426-.123-.38-2.21-1.448-4.658-2.26-17.135-5.934-31.323-17.552-41.622-33.867l-1.22-1.88 2.652.433c11.138 1.752 18.512 2.057 28.415.762 15.865-1.83 27.906-5.43 44.227-12.97 3.869-1.828 7-3.693 7-4.043 0-.432-1.117-1.6-2.514-2.464-7-4.704-16.088-15.578-21.049-25.28-3.13-6.079-5.883-13.14-5.37-13.666.19-.188.991 0 1.83.432.761.432 3.347 1.448 5.681 2.26 20.366 6.587 36.984 7.48 60.65 3.391 9.837-1.752 34.105-8.01 35.218-9.024.61-.61-.355-1.6-5.367-5.647-10.703-8.72-24.445-15.915-38.648-20.218l-3.957-1.092 3.563-2.286c14.97-9.645 32.845-14.1 49.228-12.436 12.934 1.397 22.448 3.693 37.84 9.134 3.782 1.448 13.924 5.573 18.91 7.805 2.26.99 5.573 2.464 7.307 3.348 1.83.762 3.564 1.448 3.998 1.168.356-.118-.431-2.463-1.828-4.922-4.489-8.72-11.29-18.108-18.791-25.845-5.139-5.355-7.095-7.707-6.513-8.113.483-.305 6.076-.534 12.403-.534 9.842-.003 12.464.23 17.638 1.524 6.367 1.6 14.142 4.56 19.324 7.405 3.825 2.26 13.411 8.415 15.555 10.253.94.762 1.829 1.093 2.083.864.242-.305 2.057-2.956 4.043-5.933 6.079-9.124 15.187-19.13 24.93-27.402l4.26-3.61 6.589 5.718c9.537 8.316 16.416 16.017 22.55 25.232 2.057 2.957 3.825 5.647 4.044 5.934.24.305 2.26-.864 4.348-2.515 9.634-7.404 21.021-13.078 32.64-16.025 5.139-1.295 7.71-1.524 18.065-1.524 6.586.012 12.232.234 12.5.483.249.25-2.61 3.61-6.298 7.404-6.296 6.513-12.148 13.716-15.69 19.563-3.128 5.139-6.151 11.79-5.572 11.986.356.116 2.083-.482 3.998-1.168 1.829-.762 5.139-2.464 7.404-3.39 20.815-9.539 37.714-14.72 54.116-16.678 8.113-.94 10.46-.991 16.269-.305 13.543 1.6 25.092 5.646 35.487 12.42l3.564 2.286-4 1.093c-14.222 4.26-27.654 11.34-38.549 20.165-5.283 4.13-6.075 5.28-5.499 5.79.407.407 12.324 3.999 16.703 4.923 1.296.305 4.349.99 6.805 1.6 15.275 3.998 33.696 5.642 45.64 4.489 12.171-1.169 26.923-4.704 32.366-7.643.762-.432 1.6-.61 1.829-.407.432.432-2.738 8.83-5.138 13.577-4.56 8.829-13.638 19.802-20.757 24.93-1.6 1.092-3.043 2.514-3.043 2.956 0 .762.482 1.093 9.124 5.065 16.22 7.404 30.157 11.085 47.804 12.543 4.56.38 13.846-.242 22.276-1.448l2.956-.432-1.219 1.88c-10.551 16.677-24.11 27.697-41.609 33.866-2.463.762-4.488 1.88-4.559 2.26-.13.382 2.957 3.783 6.805 7.405 25.026 24.058 41.935 36.274 60.557 43.715 5.573 2.26 7.808 2.956 16.269 5.138 1.524.407 5.79.99 9.537 1.524 3.782.432 7.021.99 7.308 1.397.533.483-2.515 3.348-9.947 9.33-3.825 3.172-14.805 8.925-20.109 10.632-2.057.66-4.348 1.448-5.138 1.753-.762.304-4.488.99-8.316 1.752-3.782.66-6.876 1.524-6.876 1.88s.864 1.752 1.956 3.172c5.573 7.163 12.977 20.186 16.068 28.385 3.261 8.62 5.717 20.99 5.573 28.34-.058 5.647-2.609 20.742-3.998 23.305-.381.685-.737.584-1.6-.686-7.913-11.4-15.655-19.728-24.095-26.115-5.791-4.348-6.876-4.922-6.876-3.39 0 .761 5.86 25.361 7.404 31.057 1.093 4.26 3.564 15.765 4.778 22.74 1.448 8.113 2.827 36.262 1.829 36.262-.116 0-2.738-2.464-5.86-5.573-3.13-3.043-8.113-7.325-11.112-9.537-8.012-5.934-24.89-13.859-24.737-11.603.02.33 2.057 2.26 4.488 3.998 5.86 4.488 17.485 16.294 22.842 23.137 10.912 13.947 19.433 31.07 23.08 46.371 2.465 10.048 2.739 13.566 2.739 24.404-.062 15.212-2.083 24.78-8.217 37.966-3.13 6.947-9.035 16.965-9.842 16.965-.585 0-.585-.099-2.261-9.833-4.044-23.919-13.442-47.399-24.303-61.02-11.049-13.845-23.95-22.654-40.435-27.606-14.15-4.13-22.73-5.138-57.293-5.933-29.414-.686-30.906-.762-41.705-2.464-15.468-2.464-25.65-8.113-30.132-16.637-1.6-3.13-1.955-4.778-2.463-12.42-.737-11.413-1.6-17.712-3.348-24.405-4.488-17.31-13.127-31.514-26.302-43.048-2.286-2.159-4.63-4.043-5.065-4.488-.482-.432-3.477-2.464-6.588-4.348-14.989-9.429-30.419-14.372-50.656-16.3-18.903-1.828-41.705 2.464-58.827 10.762-22.055 10.798-37.918 28.146-45.525 49.817-3.348 9.428-4.26 15.123-6.01 36.24-.94 12.085-14.1 21.25-36.326 25.362-5.865 1.092-12.286 1.448-36.953 1.88-35.827.761-45.314 1.828-60.346 6.66-17.539 5.572-33.201 18.125-43.497 34.683-8.522 13.665-15.497 33.418-18.877 53.218-1.6 9.733-1.753 9.832-2.21 9.832-.28-.003-1.753-2.159-3.348-4.559zm10.886-76.959c3.259-6.078 9.335-14.132 14.994-19.791 10.203-10.234 23.332-17.778 38.974-22.373 2.058-.61 4.658-1.448 5.771-1.6 2.21-.66 9.942-2.26 16.274-3.348 4.173-.762 17.155-2.463 24.404-3.129 27.093-2.697 39.614-5.499 50.446-10.734 6.512-3.13 13.586-9.538 16.451-14.793 2.058-3.782 4.996-12.042 5.573-15.86 1.295-8.01 6.513-20.635 11.47-28.036 2.828-4.13 2.957-4.847 1.22-4.847-.686 0-4.488-.33-8.316-.685-24.455-2.464-40.879-13.424-50.04-33.366-2.108-4.705-4.77-13.11-4.77-15.33 0-.761-.432-1.447-.94-1.447-.66 0-1.118 1.6-1.753 5.573-.431 3.042-1.117 8.216-1.524 11.318l-.762 5.646-2.057-4.417c-9.129-19.355-14.234-35.122-17.386-54.202-.915-5.573-1.448-12.233-1.524-19.553-.177-12.347.11-11.638-5.48-13.39-14.957-4.705-33.026-3.694-49.501 2.956-6.292 2.464-14.86 7.404-18.42 10.604-5.774 5.284-24.018 17.956-29.571 20.742-5.278 2.609 2.738 2.286 16.457-.762 24.67-5.5 25.723-5.573 36.618-5.573 8.316-.031 11.633.241 15.765 1.397 2.957.686 5.279 1.524 5.279 1.83 0 .246-2.058.66-4.56.863-27.375 2.608-54.056 22.588-70.651 52.834-1.524 2.695-2.515 5.283-2.337 5.5.22.22 5.367-2.957 11.534-7.164 18.776-12.804 23.533-15.59 36.549-21.554 3.652-1.6 12.364-3.825 18.707-4.704 7.198-.864 18.036-.864 18.592-.032.228.38.098.685-.304.685-.864 0-11.92 5.431-16.86 8.113-13.267 7.48-24.56 19.086-30.828 31.57-4.87 9.645-5.682 12.086-14.039 38.967-3.129 9.941-5.882 17.973-6.794 19.832-1.448 2.608-.33 4.26 1.448 2.26 1.219-1.447 9.334-6.66 14.333-9.133 5.987-3.043 16.79-6.368 24.953-7.72 6.185-.99 11.067-1.092 36.54-.99 29.588.13 37.94-.356 47.28-2.609 1.6-.431 3.13-.584 3.434-.38.66.66-11.3 12.179-16.038 15.509-8.316 5.79-22.245 13.086-46.783 24.356-38.587 17.714-57.992 32.64-68.257 52.48-2.652 5.064-6.292 15.425-6.292 17.675 0 1.88 1.118.94 2.957-2.514zm583.999-5.065c-10.539-27.28-26.05-43.195-56.33-57.755-3.998-1.88-7.503-3.391-7.912-3.391-.381 0-1.22-.305-1.83-.66-.66-.382-7.403-3.173-15.074-6.226-23.894-9.429-36.405-16.322-45.09-24.841-4.56-4.488-8.926-9.734-8.011-9.734.33.001 2.827.534 5.717 1.093 5.573 1.168 18.319 1.447 56.62.863 22.11-.33 25.788.048 37.213 3.782 9.025 2.957 20.46 9.33 25.976 14.567 2.286 2.26 3.61 1.753 2.286-.863-1.22-2.609-4.044-10.646-9.23-26.206-5.573-16.937-8.217-23.9-11.646-30.654-8.926-17.68-21.707-29.723-41.488-39.227-3.042-1.447-5.86-2.608-6.296-2.608-.407 0-.534-.305-.33-.686.584-.864 11.399-.864 18.592.033 6.587.762 13.666 2.608 18.702 4.704 10.148 4.13 21.15 10.764 38.318 22.654 5.065 3.394 9.429 6.226 9.635 5.934.61-.356-2.828-6.947-6.59-12.759-9.339-14.455-23.74-28.445-36.874-35.87-8.819-4.923-20.162-8.72-29.101-9.645-2.738-.249-4.847-.685-4.847-.863 0-.248 2.286-.99 5.284-1.829 4.13-.99 7.503-1.397 15.763-1.397 10.744.036 13.043.381 35.262 5.5 2.463.583 7.607 1.447 11.453 2.158 7.239 1.092 9.842.686 6.367-1.092-6.296-3.132-27.562-18.255-30.692-21.69-2.286-2.514-13.208-8.424-20.008-10.69-16.337-5.646-37.318-5.791-50.076-.483l-2.464.991-.01 9.33c-.015 24.17-6.368 50.72-17.508 73.352l-3.13 6.368-.762-5.5c-.432-2.956-1.219-8.02-1.6-11.318-.584-4.13-.99-5.933-1.753-5.933-.533 0-.94.66-.94 1.448 0 2.26-2.608 10.591-4.777 15.32-5.573 12.203-13.998 21.045-25.432 26.811-7.503 3.782-14.25 5.573-25.898 6.731-4.851.483-8.316 1.093-8.316 1.524.001.407.94 2.16 2.058 3.782 4.488 6.66 8.415 15.713 10.927 25.063 6.512 24.506 19.875 37.605 43.287 42.313 7.312 1.447 15.308 2.463 32.21 3.563 19.055 1.397 27.467 2.464 38.83 5.139 24.321 5.646 44.338 20.419 58.842 42.991 3.477 5.5 3.782 3.693.762-4.13zm-393.302-144.9c4.349-.38 5.791-.762 11.692-3.782 4.348-2.26 9.634-7.643 12.25-12.969 2.515-5.067 4.488-11.43 3.61-12.212-.356-.356-3.826-1.169-7.71-1.956-33.957-7.02-35.361-8.832-61.57-24.32-4.043-2.515-7.808-4.778-8.42-4.923-.863-.356-1.117.483-1.524 5.138-.482 5.792.432 17.575 1.753 22.385 5.37 20.389 17.467 31.193 36.975 32.945 2.956.28 6.076.407 7.092.305.94-.103 3.563-.356 5.864-.533zm223.924-1.092c14.367-4.417 23.655-14.11 27.871-29.253 1.296-4.778 2.738-18.342 2.464-22.589-.097-1.092-.222-3.347-.28-4.922l-.103-2.957-2.827 1.6c-43.708 23.89-40.174 21.448-76.048 30.289-.38.38-.131 2.26.584 4.348 3.826 12.18 10.488 19.706 20.46 23.125 6.152 2.26 21.349 2.286 27.97.24zm-115.962-49.088c5.354-1.448 8.112-2.956 11.346-6.225 4.13-4.13 5.062-6.731 5.717-16.581.33-4.705.94-10.907 1.296-13.869.762-5.573 3.61-17.462 4.63-19.195.33-.584.737 2.609.94 7.72.99 21.859 8.926 34.53 24.32 39.387 4.56 1.447 19.858 1.6 26.659.28 18.064-3.61 31.406-8.83 45.64-18.225 6.513-4.26 21.15-15.2 26.584-19.81 7.24-6.225 18.725-14.823 25.433-19.202 12.065-7.882 22.667-12.573 34.914-15.426 2.057-.482 6.01-1.6 8.821-2.463 2.827-.762 6.878-2.16 9.124-2.61 3.477-.939 13.142-3.824 16.55-4.845 1.956-.585-.533-1.6-8.516-3.782-27.641-7.092-27.263-7.021-38.6-9.134-7.608-1.448-22.718-3.043-29.154-3.043-13.333.009-37.318 4.704-47.978 9.235-8.621 3.782 2.956-5.573 15.087-12.151 2.464-1.397 6.66-3.348 9.538-4.56 2.827-1.092 5.717-2.463 6.368-2.697.736-.355 6.588-2.608 12.88-5.065 15.316-5.86 15.69-6.08 25.085-10.797 9.634-4.778 10.312-5.934 3.782-6.297-17.224-.686-41.057-6.225-75.602-17.333-5.283-1.6-10.79-3.393-12.377-4-1.6-.432-2.827-.99-2.827-1.397 0-.28 1.092-1.524 2.514-2.609 1.448-1.168 6.076-5.499 10.335-9.428 4.26-3.998 9.124-8.426 10.844-9.942 1.752-1.448 3.477-2.956 3.825-3.39.483-.433 1.6-1.449 2.608-2.261 2.957-2.286 1.448-2.609-4.996-1.397-10.807 2.463-25.214 7.404-38.483 13.467-2.26.99-5.573 2.514-7.503 3.393-13.57 6.063-25.365 12.052-39.375 18.4-2.26.99-6.081 2.913-8.418 4.044-5.062 2.463-6.512 2.608-5.499.863.381-.66 1.956-3.998 3.477-7.163 1.524-3.347 3.782-8.217 4.997-10.856 2.525-5.25 4.975-10.795 7.345-15.915 1.092-2.464 2.957-6.513 4.044-8.926 1.092-2.464 1.956-4.846 1.829-5.283-.356-1.092-7.02 3.998-19.723 14.717-3.13 2.608-6.079 4.922-6.513 4.922-.38 0-3.261-4.488-6.297-10.048-7.404-13.411-19.446-30.005-21.689-30.005-12.997 11.988-17.883 26.738-28.051 39.947-8.708-5.48-15.916-14.44-25.471-19.696-1.296 0-.991.762 5.138 14.242 2.609 5.573 9.832 21.382 12.5 27.11 1.092 2.465 2.463 5.284 2.956 6.369.533 1.092.863 2.159.762 2.26-.104.104-2.464-.863-5.283-2.26-2.738-1.397-6.876-3.262-9.124-4.26-14.752-7.586-27.063-11.91-40.396-18.91-19.05-8.83-34.301-14.23-49.664-17.422-1.448-.28-2.286.864-1.296 1.6 1.83 1.092 12.705 10.864 22.175 19.855 2.608 2.464 5.79 5.43 7.02 6.297 1.22.94 2.26 2.159 2.26 2.464 0 .28-1.295.863-2.826 1.397-5.5 1.6-20.518 6.296-21.87 7.02-2.057.864-22.156 6.587-29.832 8.517-10.673 2.609-29.336 5.646-34.683 5.646-4.963 0-7 .407-7 1.448 0 .305 4.173 2.609 9.334 5.283 10.173 5.065 9.738 4.847 21.524 9.33 27.093 10.376 38.9 16.32 48.376 24.297 3.477 2.957 3.043 3.043-3.043.762-14.209-5.064-32.988-8.521-46.66-8.521-8.218.01-24.5 1.88-34.245 4.043-4.174.864-23.239 5.573-31.193 7.643a304 304 0 0 0-8.316 2.16c-1.93.482-2.652 2.463-.813 2.463.585 0 3.348.762 6.292 1.6 2.827.864 7 2.26 9.334 2.698 2.21.66 5.888 1.752 8.118 2.464 2.21.685 7.308 2.159 11.189 3.042 8.42 2.261 18.646 6.226 25.36 10.049 9.433 5.43 15.237 9.537 36 26.15 29.071 23.255 44.44 31.187 69.84 36.13 6.297 1.169 21.372 1.093 25.768-.03 5.79-1.6 10.965-4.703 14.777-8.828 6.589-7.163 9.744-16.38 10.44-30.802.482-10.048.99-9.941 3.609.61 1.956 7.72 2.609 12.672 3.348 24.18.533 8.317.762 9.643 2.514 12.792 4.847 8.83 16.942 13.465 27.98 10.529zM598.23 679.133c-5.283-2.957-7.02-7.48-5.791-15.794 1.219-9.134 5.501-17.602 11.277-22.698 7.717-6.73 17.35-7.325 20.892-1.447 1.955 3.258.99 7.404-2.464 11.094-2.957 3.173-8.62 12.576-10.376 17.356-.99 2.698-2.286 6.078-2.827 7.325-1.753 3.998-7.24 5.934-10.711 4.044zm117.86-.534c-2.515-1.524-2.957-2.286-4.997-8.113-.762-2.463-2.286-5.933-3.348-8.112-1.828-3.61-7.706-12.18-8.925-12.977-.864-.584-2.609-5.283-2.609-6.731 0-.762.534-2.286 1.092-3.348 4.56-7.719 17.585-4.348 25.563 6.66 4.996 6.947 8.415 20.6 6.513 26.397-2.058 6.368-8.316 9.33-13.318 6.297z" style="fill:#9b0000;fill-opacity:1;stroke-width:.678073;filter:url(#d)"/></svg>