<svg xmlns="http://www.w3.org/2000/svg" xmlns:xlink="http://www.w3.org/1999/xlink" width="498.898" height="544.252" viewBox="0 0 1320 1440"><defs><linearGradient id="c" x1="-1430.769" x2="-1409.955" y1="-77.47" y2="-77.47" gradientUnits="userSpaceOnUse" spreadMethod="reflect"><stop offset="0" stop-color="#ffd285"/><stop offset=".232" stop-color="#ffcd79"/><stop offset=".616" stop-color="#ffca73"/><stop offset=".808" stop-color="#ffd386"/><stop offset="1" stop-color="#ffc86e"/></linearGradient><linearGradient id="d" x1="-1215.571" x2="-1215.572" y1="-296.329" y2="165.415" gradientUnits="userSpaceOnUse"><stop offset=".6" stop-color="#fff"/><stop offset="1"/></linearGradient><filter id="a" width="1.024" height="1.023" x="-.012" y="-.011" style="color-interpolation-filters:sRGB"><feGaussianBlur stdDeviation="2.441"/></filter><filter id="e" width="1.089" height="1.076" x="-.045" y="-.038" style="color-interpolation-filters:sRGB"><feGaussianBlur in="SourceGraphic" result="result0" stdDeviation="6"/><feDiffuseLighting lighting-color="#FFF" result="result5" surfaceScale="4"><feDistantLight azimuth="235" elevation="45"/></feDiffuseLighting><feComposite in="result5" in2="SourceGraphic" k1="1.4" operator="arithmetic" result="fbSourceGraphic"/><feGaussianBlur in="fbSourceGraphic" result="result0" stdDeviation="6"/><feSpecularLighting in="result0" lighting-color="#FFF" result="result1" specularExponent="25" surfaceScale="4"><feDistantLight azimuth="280" elevation="45"/></feSpecularLighting><feComposite in="fbSourceGraphic" in2="result1" k2="1" k3="1" operator="arithmetic" result="result4"/><feComposite in="result4" in2="SourceGraphic" operator="in" result="result2"/></filter><path id="b" d="m-1215.571-296.329-149.881 40.669-79.82 472.51 6.639 36.814 10.024 8.338h426.077l10.024-8.338 6.639-36.814-79.82-472.51z"/></defs><path d="m-2728.669 264.709 28.198 35.189h455.354l10.087-9.413-98.043-493.462-31.462-17.601z" filter="url(#a)" opacity=".5" transform="matrix(-2.0051 0 0 2.0051 -4364.078 816.662)"/><use xlink:href="#b" fill="url(#c)" transform="translate(3097.382 831.934)scale(2.0051)"/><use xlink:href="#b" x="315.666" y="-40.204" fill="url(#d)" opacity=".25" style="mix-blend-mode:overlay" transform="translate(2464.43 912.55)scale(2.0051)"/><path fill="#fff" d="m1099.874 1261.697-.043 21.064 20.75-16.013z" opacity=".8"/><path d="m1120.582 1266.748-20.75 16.013-12.661 74.524 20.099-16.719z" opacity=".6"/><g fill="#fff"><path d="m359.469 319.303 17.664 13.248L660 254.157v-16.402zm601.062 0-17.664 13.248L660 254.157v-16.402z" opacity=".3"/><path d="m960.531 319.303-17.664 13.248 157.007 929.146 20.707 5.052z" opacity=".3"/></g><path d="m359.469 319.303 17.664 13.248-157.007 929.146-20.707 5.052z" opacity=".4"/><path d="m199.419 1266.748 20.75 16.013 12.661 74.524-20.099-16.719z" opacity=".9"/><path d="m220.126 1261.697.043 21.064-20.75-16.013z" opacity=".6"/><path d="M220.126 1261.697h879.749l-.043 21.064H220.169z" opacity=".2"/><path d="m1099.831 1282.761-12.661 74.524H232.829l-12.661-74.524z" opacity=".7"/><path d="M586.466 461.023a23.181 21.525 0 0 0-23.18 21.535 23.181 21.525 0 0 0 23.18 21.536 23.181 21.525 0 0 0 23.182-21.536 23.181 21.525 0 0 0-23.182-21.535m68.087 56.307a20.697 23.181 0 0 0-20.088 23.181 20.697 23.181 0 0 0 20.71 23.18 20.697 23.181 0 0 0 20.69-23.18 20.697 23.181 0 0 0-20.69-23.18 20.697 23.181 0 0 0-.63 0zm-63.96 38.072a22.353 23.181 0 0 0-22.353 23.2 22.353 23.181 0 0 0 22.353 23.18 22.353 23.181 0 0 0 22.354-23.18 22.353 23.181 0 0 0-22.354-23.2m112.473 69.444c-56.793.79-99.92 32.056-135.87 79.31-40.85 45.642-69.256 102.724-83.5 172.824-14.115 28.495-25.914 33.54-37.81 39.753-36.068-11.069-47.855-28.09-39.367-50.112 5.575-31.266 54.932-57.908 86.62-86.422 25.169-45.769 36.983-89.793-9.423-126.174-137.954-35.465-111.187 81.35-81.917 107.167 19.53-9.433 31.525-21.14 37.793-34.574-4.041-7.552-15.475-14.1 0-24.188 8.452.795 12.904 4.946 15.754 10.35 0 17.282 7.915 19.8-56.694 69.13-38.09 20.06-40.841 51.667-55.12 79.506-26.275 151.009 30.707 196.302 102.373 222.95 13.622-12.461 17.634-30.095 23.623-46.667 20.41 4.857 39.618 6.653 67.744 31.121 6.836-6.92 13.64-13.828 20.476-20.745l23.946-19.08c6.383 16.303-6.654 23.63-13.354 33.864-9.765 14.89-29.979 30.276-46.812 40.5l37.793 5.216c17.12-7.013 30.456-17.578 42.531-29.376l20.476-6.923c19.118-51.352 37.667-102.87 45.679-157.275-1.261-17.012-1.621-30.59-11.017-77.77l11.017-39.754 66.153-81.242-50.4 86.421-9.44 36.301c-1.531 26.436 2.422 48.898 9.44 69.13l-3.147 36.291c-17.292 53.538-37.154 104.862-40.94 164.19 1.958 13.371 6.382 24.953 20.475 29.377 176.888-7.375 265.08-90.462 319.745-202.227l3.159-36.274c-33.196-153.69-128.404-232.466-255.183-273.077-7.554-.986-14.946-1.536-22.086-1.536-.9 0-1.801-.012-2.693 0zm-149.188 194.65c2.972 0 5.935 1.176 9.18 4.761l27.802 35.968c4.589 11.627 6.206 23.029 1.802 34.026-5.037-8.812-9.39-17.65-21.06-26.58-12.993-3.868-26.3-7.552-34.213-15.951-3.683-20.214.608-21.365 2.693-27.786 4.4-1.256 8.723-4.131 13.192-4.4.195-.012.405-.019.608-.02zm-73.32 237.238c-20.924 70.281-63.798 109.25-103.966 152.08-3.242 5.306 2.252 6.83 15.754 5.216 61.505-32.21 108.045-75.361 127.583-138.267-12.39-7.104-20.654-18.73-39.367-19.01z" style="fill:#900;fill-opacity:1;stroke:none;stroke-width:16.4993px;stroke-linecap:butt;stroke-linejoin:miter;stroke-opacity:1;filter:url(#e)"/></svg>