<svg xmlns="http://www.w3.org/2000/svg" width="498.898" height="544.252" viewBox="0 0 1320 1440"><defs><linearGradient id="b" x1="236.943" x2="278.677" y1="670.458" y2="670.458" gradientUnits="userSpaceOnUse" spreadMethod="reflect"><stop offset="0" stop-color="#ffd285"/><stop offset=".232" stop-color="#ffcd79"/><stop offset=".616" stop-color="#ffca73"/><stop offset=".808" stop-color="#ffd386"/><stop offset="1" stop-color="#ffc86e"/></linearGradient><linearGradient id="c" x1="660" x2="670.254" y1="115.844" y2="1157.469" gradientUnits="userSpaceOnUse"><stop offset=".604" stop-color="#fff"/><stop offset="1"/></linearGradient><filter id="a" width="1.02" height="1.021" x="-.01" y="-.011" style="color-interpolation-filters:sRGB"><feGaussianBlur stdDeviation="2.441"/></filter><filter id="d" width="1.079" height="1.068" x="-.04" y="-.034" style="color-interpolation-filters:sRGB"><feGaussianBlur in="SourceGraphic" result="result0" stdDeviation="6"/><feDiffuseLighting lighting-color="#FFF" result="result5" surfaceScale="4"><feDistantLight azimuth="235" elevation="45"/></feDiffuseLighting><feComposite in="result5" in2="SourceGraphic" k1="1.4" operator="arithmetic" result="fbSourceGraphic"/><feGaussianBlur in="fbSourceGraphic" result="result0" stdDeviation="6"/><feSpecularLighting in="result0" lighting-color="#FFF" result="result1" specularExponent="25" surfaceScale="4"><feDistantLight azimuth="280" elevation="45"/></feSpecularLighting><feComposite in="fbSourceGraphic" in2="result1" k2="1" k3="1" operator="arithmetic" result="result4"/><feComposite in="result4" in2="SourceGraphic" operator="in" result="result2"/></filter></defs><path d="m-2765.718 268.206 28.198 35.189h538.751l10.087-9.413-86.673-527.828-31.462-17.601z" filter="url(#a)" opacity=".5" transform="matrix(-2.0051 0 0 2.0051 -4355.682 800.271)"/><path fill="url(#b)" d="M660 115.844 254.043 268.378l-139.111 999.236 13.312 73.804 20.099 16.718H1169.89l20.099-16.718 13.312-73.804-137.282-999.246z"/><path fill="url(#c)" d="M660 115.844 253.994 268.369l-137.243 999.246 11.442 73.812 20.099 16.719h1021.563l20.134-16.728 15.13-73.802-139.1-999.248z" opacity=".25" style="mix-blend-mode:overlay"/><path fill="#fff" d="m1182.559 1262.571-.043 21.064 20.75-16.013z" opacity=".8"/><path d="m1203.266 1267.622-20.75 16.013-12.661 74.512 20.099-16.719z" opacity=".6"/><g fill="#fff"><path d="m254.044 268.378 17.664 13.248 388.293-149.381v-16.402z" opacity=".3"/><path d="m1066.019 268.368-17.664 13.248L660 132.246v-16.402z" opacity=".3"/><path d="m1064.146 251.267-17.664 13.248 138.452 996.966 20.707 5.052z" opacity=".3"/></g><path d="m253.994 268.369 17.664 13.248-136.07 980.953-20.707 5.052z" opacity=".4"/><path d="m114.881 1267.622 20.75 16.013 12.661 74.512-20.099-16.719z" opacity=".9"/><path d="m135.588 1262.571.043 21.064-20.75-16.013z" opacity=".6"/><path d="M135.588 1262.571h1046.971l-.043 21.064H135.631z" opacity=".2"/><path d="m1182.516 1283.635-12.661 74.512H148.292l-12.661-74.512z" opacity=".7"/><path d="M577.945 276.211a26.15 24.283 0 0 0-26.15 24.295 26.15 24.283 0 0 0 26.15 24.294 26.15 24.283 0 0 0 26.151-24.294 26.15 24.283 0 0 0-26.151-24.295m76.81 63.521a23.349 26.15 0 0 0-22.663 26.15 23.349 26.15 0 0 0 23.363 26.15 23.349 26.15 0 0 0 23.34-26.15 23.349 26.15 0 0 0-23.34-26.15 23.349 26.15 0 0 0-.71 0zM582.6 382.681a25.217 26.15 0 0 0-25.217 26.171 25.217 26.15 0 0 0 25.218 26.15 25.217 26.15 0 0 0 25.217-26.15 25.217 26.15 0 0 0-25.218-26.171m126.882 78.34c-64.069.892-112.721 36.163-153.277 89.47-46.083 51.49-78.127 115.884-94.195 194.964-15.924 32.146-29.234 37.837-42.655 44.846-40.688-12.487-53.986-31.69-44.41-56.533 6.29-35.27 61.969-65.325 97.716-97.492 28.394-51.632 41.721-101.296-10.63-142.338-155.626-40.008-125.43 91.77-92.41 120.896 22.032-10.642 35.564-23.849 42.634-39.003-4.56-8.52-17.457-15.906 0-27.287 9.535.897 14.557 5.58 17.773 11.676 0 19.496 8.928 22.336-63.958 77.985-42.97 22.63-46.073 58.287-62.181 89.692-29.64 170.354 34.641 221.45 115.488 251.512 15.367-14.059 19.893-33.952 26.649-52.647 23.025 5.48 44.693 7.506 76.423 35.109 7.711-7.808 15.387-15.6 23.099-23.402l27.013-21.525c7.2 18.391-7.506 26.658-15.065 38.203-11.016 16.797-33.819 34.154-52.809 45.688l42.635 5.884c19.314-7.912 34.357-19.83 47.98-33.14l23.099-7.81c21.567-57.93 42.492-116.048 51.53-177.422-1.422-19.192-1.829-34.51-12.428-87.734l12.428-44.846 74.628-91.65-56.856 97.493-10.65 40.951c-1.728 29.823 2.733 55.162 10.65 77.986l-3.551 40.94c-19.507 60.397-41.914 118.295-46.185 185.224 2.21 15.084 7.2 28.15 23.098 33.14 199.549-8.32 299.039-102.05 360.706-228.133l3.564-40.92c-37.448-173.38-144.853-262.248-287.873-308.061-8.522-1.113-16.86-1.732-24.915-1.732-1.016-.003-2.032-.015-3.038 0zm-168.3 219.587c3.352 0 6.695 1.326 10.355 5.37l31.365 40.576c5.176 13.116 7 25.979 2.032 38.385-5.682-9.941-10.592-19.913-23.757-29.985-14.658-4.364-29.67-8.52-38.596-17.995-4.156-22.804.685-24.102 3.037-31.345 4.964-1.417 9.84-4.661 14.882-4.965.22-.012.457-.02.686-.021zm-82.714 267.629c-23.604 79.284-71.97 123.245-117.283 171.561-3.658 5.987 2.54 7.705 17.772 5.885 69.384-36.336 121.886-85.016 143.927-155.98-13.978-8.014-23.3-21.13-44.41-21.444z" style="fill:#000;fill-opacity:.992157;stroke:none;stroke-width:18.613px;stroke-linecap:butt;stroke-linejoin:miter;stroke-opacity:1;filter:url(#d)"/></svg>