<svg xmlns="http://www.w3.org/2000/svg" width="498.898" height="544.252" viewBox="0 0 1320 1440"><defs><linearGradient id="b" x1="-1430.769" x2="-1409.955" y1="-77.47" y2="-77.47" gradientUnits="userSpaceOnUse" spreadMethod="reflect"><stop offset="0" stop-color="#ffd285"/><stop offset=".232" stop-color="#ffcd79"/><stop offset=".616" stop-color="#ffca73"/><stop offset=".808" stop-color="#ffd386"/><stop offset="1" stop-color="#ffc86e"/></linearGradient><linearGradient id="c" x1="-899.905" x2="-899.906" y1="-344.262" y2="125.211" gradientUnits="userSpaceOnUse"><stop offset=".597" stop-color="#fff"/><stop offset="1"/></linearGradient><filter id="a" width="1.022" height="1.022" x="-.011" y="-.011" style="color-interpolation-filters:sRGB"><feGaussianBlur stdDeviation="2.441"/></filter><filter id="d" width="1.082" height="1.068" x="-.041" y="-.034" style="color-interpolation-filters:sRGB"><feGaussianBlur in="SourceGraphic" result="result0" stdDeviation="6"/><feDiffuseLighting lighting-color="#FFF" result="result5" surfaceScale="4"><feDistantLight azimuth="235" elevation="45"/></feDiffuseLighting><feComposite in="result5" in2="SourceGraphic" k1="1.4" operator="arithmetic" result="fbSourceGraphic"/><feGaussianBlur in="fbSourceGraphic" result="result0" stdDeviation="6"/><feSpecularLighting in="result0" lighting-color="#FFF" result="result1" specularExponent="25" surfaceScale="4"><feDistantLight azimuth="280" elevation="45"/></feSpecularLighting><feComposite in="fbSourceGraphic" in2="result1" k2="1" k3="1" operator="arithmetic" result="result4"/><feComposite in="result4" in2="SourceGraphic" operator="in" result="result2"/></filter></defs><path d="m-2745.657 265.144 28.198 35.189h489.331l10.087-9.413-110.95-494.045-31.462-17.601z" filter="url(#a)" opacity=".5" transform="matrix(-2.0051 0 0 2.0051 -4364.078 816.662)"/><path fill="url(#b)" d="m-1215.57-304.058-153.963 48.25-92.727 473.093 6.639 36.814 10.024 8.338h460.053l10.024-8.338 6.639-36.814-92.727-473.093z" transform="translate(3097.382 831.934)scale(2.0051)"/><path fill="url(#c)" d="m-899.905-344.262-153.963 48.25-92.727 473.093 6.639 36.814 10.024 8.338h460.054l10.024-8.338 6.639-36.814-92.727-473.093z" opacity=".25" style="mix-blend-mode:overlay" transform="translate(2464.43 912.55)scale(2.0051)"/><path fill="#fff" d="m1133.938 1262.57-.043 21.064 20.75-16.013z" opacity=".8"/><path d="m1154.645 1267.622-20.75 16.013-12.661 74.524 20.099-16.719z" opacity=".6"/><g fill="#fff"><path d="m351.284 319.007 17.664 13.248L660 238.66v-16.402zm617.432 0-17.664 13.248L660 238.66v-16.402z" opacity=".3"/><path d="m968.716 319.007-17.664 13.248 182.886 930.315 20.707 5.052z" opacity=".3"/></g><path d="m351.284 319.007 17.664 13.248-182.886 930.315-20.707 5.052z" opacity=".4"/><path d="m165.355 1267.622 20.75 16.013 12.661 74.524-20.099-16.719z" opacity=".9"/><path d="m186.062 1262.57.043 21.064-20.75-16.013z" opacity=".6"/><path d="M186.062 1262.57h947.876l-.043 21.064h-947.79z" opacity=".2"/><path d="m1133.895 1283.634-12.661 74.524H198.765l-12.66-74.524z" opacity=".7"/><path d="M415.722 382.756c-10.508 3.172-45.09 9.873-24.61 23.385 8.522 8.13 23.614 19.998 32.562 34.901 40.535 67.491 28.697 148.278 31.608 198.63-24.78-2.159-80.796-5.788-89.53 15.141l-55.141 95.581c46.936-6.87 105.909-16.134 139.453 25.559 22.754 12.377 38.222 73.67 53.235 70.638l32.38-96.454c30.917 4.635 27.388 21.664 16.677 43.744 19.89 22.746 75.805 24.536 111.183 25.815 33.323-3.825 88.972-5.139 105.89-27.489-9.942-20.922-14.648-37.93 15.56-42.109l35.31 100.745c23.28-35.297 39.095-80.09 80.31-98.164 34.894-13.673 72.843-7.326 108.843-2.286L946.6 641.449c-25.411-11.16-72.894.864-83.23-2.082 3.444-60.702-4.56-126.12 28.068-180.836 12.222-23.132 29.691-42.74 46.662-62.424-19.04-12.616-43.222-19.337-61.705-.534-25.126 24-52.454 29.689-84.234 20.348-34.104 4.22-50.994 37.245-58.51 67.18 28.96-.534 42.909 28.914 45.485 54.325 3.655 24.28 2.54 93.635-28.535 80.611 7.302-59.601-55.74-112.644-113.282-95.434-42.362 10.09-72.975 53.834-67.781 97.087-30.097 10.475-31.964-57.56-28.089-82.264 2.54-25.45 16.515-54.789 45.465-54.325-7.608-32.114-28.089-67.83-65.438-67.628-43.6 22.898-66.341-23.915-105.78-32.75zm44.247 65.92c24.64 27.193 53.701-5.283 78.219 9.51-5.377 20.576-30.553 52.327-28.88 82.449-9.636 68.446 32.035 142.72 101.023 160.2C685.6 726.84 782.28 688.5 804.82 608.559c14.333-48.644 9.23-108.106-26.302-146.586 22.53-25.454 52.798 16.198 78.117-10.886-5.174 22.004-25.897 76.37-22.956 113.914-.712 38.562 5.885 81.491-21.608 113.208-31.598 51.59-96.813 62.648-152.53 59.956-55.284 2.611-119.744-8.88-151.025-59.954-27.54-31.723-20.845-74.641-21.564-113.193-.813-40.096-9.23-80.235-26.983-116.347zm200.078 103.827c46.48-2.387 75.531 59.312 44.135 93.631-27.53 37.175-93.18 20.839-100.15-24.876-8.013-34.306 20.785-69.684 56.025-68.757zM878.7 800.301c-12.985 30.875-46.084 57.741-43.761 92.275 5.776 7.48 5.682 38.809 16.99 24.145 17.62-16.698 35.889-32.723 52.92-50.04q-13.082-33.2-26.15-66.377zm-434.872 4.043-24.76 62.837c18.938 19.119 39.176 36.918 58.713 55.426 3.96-16.157 16.281-32.202 6.39-48.666-10.751-24.572-27.48-46.14-40.382-69.597zm98.132 19.63-59.94 173.405c115.127 36.914 242.536 36.87 357.326-1.397l-58.865-171.58c-76.991 27.523-161.914 29.775-238.527-.483zm379.168 60.788c-21.859 21.395-44.642 41.861-66.918 62.837 9.128 26.889 17.813 52.212 30.533 77.3 31.75-10.16 59.625-28.775 82.844-52.559-14.912-29.493-31.09-58.314-46.459-87.578m-518.343.432c-15.296 29.11-31.375 57.807-46.266 87.13 23.31 23.655 50.993 42.557 82.844 52.56 12.568-25.014 21.496-50.323 29.976-77.158-22.144-20.891-44.846-41.209-66.554-62.532m158.64 164.602c-3.141 13.447-6.288 26.898-9.331 40.344 69.313 17.199 143.668 18.733 213.135 1.6l-9.129-41.66c-63.632 15.316-130.941 13.934-194.636-.28zm-29.163 64.153c-8.725 28.32-17.376 56.649-26.06 84.976 94.379 50.431 212.305 45.046 307.677 0l-27.672-84.976c-40.656 15.647-80.897 18.934-127.492 19.922-38.282-.432-90.665-5.647-126.45-19.922z" style="color:#000;font-style:normal;font-variant:normal;font-weight:400;font-stretch:normal;font-size:medium;line-height:normal;font-family:sans-serif;font-variant-ligatures:normal;font-variant-position:normal;font-variant-caps:normal;font-variant-numeric:normal;font-variant-alternates:normal;font-variant-east-asian:normal;font-feature-settings:normal;font-variation-settings:normal;text-indent:0;text-align:start;text-decoration:none;text-decoration-line:none;text-decoration-style:solid;text-decoration-color:#000;letter-spacing:normal;word-spacing:normal;text-transform:none;writing-mode:lr-tb;direction:ltr;text-orientation:mixed;dominant-baseline:auto;baseline-shift:baseline;text-anchor:start;white-space:normal;shape-padding:0;shape-margin:0;inline-size:0;clip-rule:nonzero;display:inline;overflow:visible;visibility:visible;opacity:.99;isolation:auto;mix-blend-mode:normal;color-interpolation:sRGB;color-interpolation-filters:linearRGB;solid-color:#000;solid-opacity:1;fill:#000;fill-opacity:1;fill-rule:nonzero;stroke:none;stroke-width:33.833;stroke-linecap:butt;stroke-linejoin:miter;stroke-miterlimit:4;stroke-dasharray:none;stroke-dashoffset:0;stroke-opacity:1;color-rendering:auto;image-rendering:auto;shape-rendering:auto;text-rendering:auto;enable-background:accumulate;stop-color:#000;filter:url(#d)"/></svg>