<svg xmlns="http://www.w3.org/2000/svg" width="498.898" height="544.252" viewBox="0 0 1320 1440"><defs><linearGradient id="b" x1="228.547" x2="270.281" y1="660.584" y2="660.584" gradientUnits="userSpaceOnUse" spreadMethod="reflect"><stop offset="0" stop-color="#ffd285"/><stop offset=".232" stop-color="#ffcd79"/><stop offset=".616" stop-color="#ffca73"/><stop offset=".808" stop-color="#ffd386"/><stop offset="1" stop-color="#ffc86e"/></linearGradient><linearGradient id="c" x1="660.031" x2="660.029" y1="176.665" y2="1147.595" gradientUnits="userSpaceOnUse"><stop offset=".6" stop-color="#fff"/><stop offset="1"/></linearGradient><filter id="a" width="1.021" height="1.022" x="-.011" y="-.011" style="color-interpolation-filters:sRGB"><feGaussianBlur stdDeviation="2.441"/></filter><filter id="d" width="1.07" height="1.058" x="-.035" y="-.029" style="color-interpolation-filters:sRGB"><feGaussianBlur in="SourceGraphic" result="result0" stdDeviation="6"/><feDiffuseLighting lighting-color="#FFF" result="result5" surfaceScale="4"><feDistantLight azimuth="235" elevation="45"/></feDiffuseLighting><feComposite in="result5" in2="SourceGraphic" k1="1.4" operator="arithmetic" result="fbSourceGraphic"/><feGaussianBlur in="fbSourceGraphic" result="result0" stdDeviation="6"/><feSpecularLighting in="result0" lighting-color="#FFF" result="result1" specularExponent="25" surfaceScale="4"><feDistantLight azimuth="280" elevation="45"/></feSpecularLighting><feComposite in="fbSourceGraphic" in2="result1" k2="1" k3="1" operator="arithmetic" result="result4"/><feComposite in="result4" in2="SourceGraphic" operator="in" result="result2"/></filter></defs><path d="m-2758.546 269.702 24.453 34.897h517.576l14.375-11.25-104.69-501.167-31.462-17.601z" filter="url(#a)" opacity=".5" transform="matrix(-2.0051 0 0 2.0051 -4364.078 800.649)"/><path fill="url(#b)" d="M660.043 176.664 306.898 293.591 139.681 1267.61l13.3 73.818 20.099 16.718h973.903l20.099-16.718 13.324-73.818-167.217-974.019z"/><path fill="url(#c)" d="M660.031 176.665 306.887 293.593 139.67 1267.612l13.312 73.816 20.099 16.718h973.903l20.099-16.718 13.312-73.816-167.217-974.019z" opacity=".25" style="mix-blend-mode:overlay"/><path fill="#fff" d="m1159.664 1262.568-.043 21.064 20.75-16.013z" opacity=".8"/><path d="m1180.371 1267.619-20.75 16.013-12.637 74.514 20.099-16.718z" opacity=".6"/><g fill="#fff"><path d="m306.85 293.583 17.664 13.248L660 193.055v-16.402zm706.3 0-17.664 13.248L660 193.055v-16.402z" opacity=".3"/><path d="m1013.15 293.583-17.664 13.248 164.177 955.737 20.707 5.052z" opacity=".3"/></g><path d="m306.85 293.583 17.664 13.248-164.177 955.737-20.707 5.052z" opacity=".4"/><path d="m139.629 1267.619 20.75 16.013 12.702 74.514-20.099-16.718z" opacity=".9"/><path d="m160.337 1262.568.043 21.064-20.75-16.013z" opacity=".6"/><path d="M160.337 1262.568h999.327l-.043 21.064H160.379z" opacity=".2"/><path d="m1159.621 1283.632-12.637 74.514H173.081l-12.702-74.514h999.241z" opacity=".7"/><path d="m558.31 247.66-20.29 28.976c-11.025 16.136-17.248 23.556-23.182 31.863-5.986 8.316-10.93 17.32-17.373 33.332l-2.957 5.778 4.366 5.77c20.412 22.848 54.036 42.067 88.372 59.393 34.327 17.322 69.072 33.071 91.266 43.47 36.966 23.848 64.847 53.181 91.819 84.16 2.108 29.64 14.567 50.936 45.8 80.982l-15.936 17.374c-37.554-36.122-54.034-68.12-53.578-110.066h2.738c-8.925-13.419-17.985-26.078-27.388-36.22-16.332-17.628-32.946-22.609-46.359-24.618-13.398-2.057-23.38-2.867-43.465-13.043-.063-.032-5.682-1.447-5.773-1.447h-.01c-.254.038-7.194 1.447-7.194 1.447l-30.427 13.043 26.076 13.018c.432.711.66 1.448 1.448 2.956 2.21 4.26 5.58 10.74 8.722 18.842 3.26 8.522 6.292 18.534 8.621 28.835-100.738 10.478-208.45 81.328-266.49 121.822-12.436 9.739-4.049 29.621 11.57 27.513 37.947-5.504 67.601-12.17 98.36-23.37l.355-.145.01.015c12.576-4.46 27.036-6.866 41.383-8.471 18.867-2.108 37.064-2.515 49.754-2.515 18.603-17.762 41.152-31.256 68.166-39.212 6.391-11.313 6.488-19.553 4.257-30.628-2.438-11.95-8.42-25.151-7.198-42.018l23.183 1.447c-.737 10.143 4.26 21.687 7.198 36.22 2.337 11.237-2.108 25.06-7.198 39.11 2.827 2.437 7.711 6.181 15.936 11.594 9.941 6.594 22.71 14.671 34.773 21.735 12.06 7.1 24.125 13.904 33.316 18.842 4.559 2.438 8.72 4.368 11.59 5.778 1.447.686 2.108 1.092 2.827 1.397l-5.769 23.198h-1.448c-.61-.24-2.21-1.22-2.827-1.448-1.219-.584-1.295-.66-2.961-1.448-3.259-1.6-8.314-4.658-13.023-7.198-9.532-5.072-21.006-11.62-33.331-18.842-12.324-7.198-25.726-14.782-36.225-21.734-7.1-4.669-12.586-8.705-17.168-12.843-44.289 13.297-72.348 44.033-92.91 86.74-21.432 44.49-33.69 101.922-40.576 162.232-6.903 60.315-9.634 123.11-14.465 179.633-4.869 56.518-11.351 106.616-28.97 141.965-2.956 5.791-5.582 9.83-6.794 15.46 21.554 2.261 43.607 4.997 66.166 7.72 98 11.89 203.916 22.522 308.555-11.605 8.011-3.13 11.971-12.269 8.728-20.257-32.897-67.475-46.746-143.784-150.637-236.12-10.295-29.653-8.926-57.875-7.199-88.366.407-7.199-.762-15.02-2.21-22.954-13.5-20.4-26.201-51.314-37.795-101.08l8.117-13.586 14.402 7.404c11.29 48.457 26.922 80.117 36.365 93.943 12.985 16.258 15.301 13.116 21.73 13.043 19.195-.432 34.606-8.522 52.146-14.486 12.487 60.123 26.171 112.372 28.95 172.387-.382 2.957.146 6.007 1.447 8.733l39.109 57.929c3.868 5.5 10.93 7.915 17.373 5.794l28.97-8.712c8.621-2.515 13.3-11.87 10.145-20.29l-.813-2.057 36.406-18.641c3.869 6.01 11.3 8.514 18.014 6.149 9.533-3.477 20.345-6.586 31.858-11.603 11.524-4.996 23.902-12.367 31.864-26.06.864-1.829 1.296-3.785 1.448-5.794.053-.33.762-2.286 7.198-7.239 6.49-4.846 18.04-11.8 36.195-20.284 10.304-4.996 11.869-18.987 2.956-26.086l-18.816-13.018c-48.503-70.654-86.605-125.433-95.653-209.945-.053-.483.043-.94 0-1.448l11.575-68.084c.533-4.173-.762-8.123-3.132-11.27-1.93-11.991-9.637-22.72-18.532-33.636-11.234-13.813-25.65-27.695-40.56-41.997-14.906-14.303-29.101-29.81-40.556-43.46-10.887-12.987-16.96-24.181-18.837-33.332l57.95-82.574-105.746 34.779c-20.248-3.869-63.52-19.022-107.192-40.577-44.896-22.161-90.9-50.642-114.458-73.881-1.6-1.6-6.901-9.934-10.14-17.379-3.258-7.404-4.366-15.687-4.366-15.93zm-15.854 61.02c3.863 8.867 9.194 17.912 15.854 24.463 27.532 27.167 74.081 53.987 120.236 76.77 46.154 22.784 89.96 40.626 115.884 44.907h2.957l43.465-13.043-23.183 33.332v4.356c2.515 17.071 13.404 32.687 26.092 47.821 12.69 15.133 28.532 29.158 43.444 43.465 14.051 13.483 27.597 26.858 37.274 38.401l-63.34-32.624c-33.1-13.703-36.487-21.092-49.257-30.421-2.109-1.524-4.661-3.043-7.407-4.356-32.705-38.201-66.099-76.334-114.23-107.151h-1.449c-23.098-10.826-56.48-25.177-89.813-41.993-30.5-15.39-58.297-34.095-75.329-50.71 3.434-7.404 6.597-15.313 10.145-20.282 2.032-2.804 5.82-9.222 8.656-12.933zM848.68 662.043h15.936l4.556 7.244c5.583 8.804 6.701 16.302 8.931 23.612 2.21 7.315 5.58 16.548 15.395 32.768l8.217 13.457-13.561 7.978c-8.118 4.77-19.535 5.43-27.693 1.83-8.118-3.61-13.638-9.178-19.358-15.492l-.18-.212-.207-.207c-4.044-4.834-7.509-8.87-10.376-13.72-2.957-4.847-5.278-11.345-4.87-18.124.915-13.553 8.52-21.209 18.553-33.455zm-298.881 5.324c-9.03.33-18.816.915-28.727 2.007-12.941 1.473-25.791 3.934-35.75 7.213l.031.077c-77.94 21.979-128.653 28.849-173.285 104.144-5.888 10.173 1.296 22.895 13.023 23.177l21.414.89.155-.032c22.332-6.347 17.054-4.617 44.918-16.05l.062.145c30.908-13.168 58.431-17.158 112.815-22.95 5.882-21.455 13.088-41.815 22.064-60.45 6.597-13.754 14.38-26.537 23.275-38.158zm-50.72 119.956c-48.472 5.213-72.559 9.106-99.628 20.64l.067.166c-27.811 11.412-22.938 10.462-45.04 16.744l-.712.38c-22.576 13.656-46.487 33.774-72.12 65.697-16.332 12.565-2.235 29.62 18.817 24.645 62.934-5.95 120.202-30.278 183.316-31.972.25-2.438.432-4.77.712-7.198 3.434-30.371 8.013-60.485 14.587-89.09zm380.803 67.314 70.998 84.016-3.348 17.58-64.698 27.3 54.007 28.23-.432 2.261a15.2 15.2 0 0 0 .914 8.618l-53.206-22.997-14.346-34.918c-4.668-29.557.991-46.921 7.199-66.636 3.347-10.82 1.219-28.881 2.827-43.445zM481.73 904.32l-.052.01c-20.905.584-44.643 1.752-99.39 19.383-13.274 6.461-27.605 13.49-34.008 19.266-37.948 34.97-73.419 76.48-86.899 97.063-7.704 12.05 3.65 27.19 17.374 23.173 49.786-13.086 70.957-11.964 85.462-7.24 10.437 1.5 8.037 3.414 19.416-2.489 31.21-8.821 53.87-20.546 87.953-16.985 3.132-41.878 5.89-87.032 10.145-132.183zm-22.139 152.058-.036.015v.02c-21.262-.095-38.308 7.234-63.128 14.732-75.886 44.815-127.528 105.677-142.338 126.798-.66.94-5.278 5.067-5.773 5.794-7.711 12.05 3.65 27.195 17.374 23.177 49.075-18.369 106.815-18.382 169.767-12.822 1.829-10.703 5.58-19.182 8.418-24.84 14.465-29.006 21.313-76.15 26.091-131.833.01-.132 0-.279.021-.431-3.653-.407-7.097-.61-10.396-.61" style="color:#000;font-style:normal;font-variant:normal;font-weight:400;font-stretch:normal;font-size:medium;line-height:normal;font-family:sans-serif;font-variant-ligatures:normal;font-variant-position:normal;font-variant-caps:normal;font-variant-numeric:normal;font-variant-alternates:normal;font-variant-east-asian:normal;font-feature-settings:normal;font-variation-settings:normal;text-indent:0;text-align:start;text-decoration:none;text-decoration-line:none;text-decoration-style:solid;text-decoration-color:#000;letter-spacing:normal;word-spacing:normal;text-transform:none;writing-mode:lr-tb;direction:ltr;text-orientation:mixed;dominant-baseline:auto;baseline-shift:baseline;text-anchor:start;white-space:normal;shape-padding:0;shape-margin:0;inline-size:0;clip-rule:nonzero;display:inline;overflow:visible;visibility:visible;isolation:auto;mix-blend-mode:normal;color-interpolation:sRGB;color-interpolation-filters:linearRGB;solid-color:#000;solid-opacity:1;fill:#9b0000;fill-opacity:1;fill-rule:nonzero;stroke:none;stroke-width:30.9382;stroke-linecap:butt;stroke-linejoin:round;stroke-miterlimit:4;stroke-dasharray:none;stroke-dashoffset:0;stroke-opacity:1;color-rendering:auto;image-rendering:auto;shape-rendering:auto;text-rendering:auto;enable-background:accumulate;stop-color:#000;filter:url(#d)"/></svg>