<svg xmlns="http://www.w3.org/2000/svg" width="498.898" height="544.252" viewBox="0 0 1320 1440"><defs><linearGradient id="b" x1="236.943" x2="278.677" y1="670.458" y2="670.458" gradientUnits="userSpaceOnUse" spreadMethod="reflect"><stop offset="0" stop-color="#ffd285"/><stop offset=".232" stop-color="#ffcd79"/><stop offset=".616" stop-color="#ffca73"/><stop offset=".808" stop-color="#ffd386"/><stop offset="1" stop-color="#ffc86e"/></linearGradient><linearGradient id="c" x1="660" x2="670.254" y1="115.844" y2="1157.469" gradientUnits="userSpaceOnUse"><stop offset=".604" stop-color="#fff"/><stop offset="1"/></linearGradient><filter id="a" width="1.02" height="1.021" x="-.01" y="-.011" style="color-interpolation-filters:sRGB"><feGaussianBlur stdDeviation="2.441"/></filter><filter id="d" width="1.07" height="1.058" x="-.035" y="-.029" style="color-interpolation-filters:sRGB"><feGaussianBlur in="SourceGraphic" result="result0" stdDeviation="6"/><feDiffuseLighting lighting-color="#FFF" result="result5" surfaceScale="4"><feDistantLight azimuth="235" elevation="45"/></feDiffuseLighting><feComposite in="result5" in2="SourceGraphic" k1="1.4" operator="arithmetic" result="fbSourceGraphic"/><feGaussianBlur in="fbSourceGraphic" result="result0" stdDeviation="6"/><feSpecularLighting in="result0" lighting-color="#FFF" result="result1" specularExponent="25" surfaceScale="4"><feDistantLight azimuth="280" elevation="45"/></feSpecularLighting><feComposite in="fbSourceGraphic" in2="result1" k2="1" k3="1" operator="arithmetic" result="result4"/><feComposite in="result4" in2="SourceGraphic" operator="in" result="result2"/></filter></defs><path d="m-2765.718 268.206 28.198 35.189h538.751l10.087-9.413-86.673-527.828-31.462-17.601z" filter="url(#a)" opacity=".5" transform="matrix(-2.0051 0 0 2.0051 -4355.682 800.271)"/><path fill="url(#b)" d="M660 115.844 254.043 268.378l-139.111 999.236 13.312 73.804 20.099 16.718H1169.89l20.099-16.718 13.312-73.804-137.282-999.246z"/><path fill="url(#c)" d="M660 115.844 253.994 268.369l-137.243 999.246 11.442 73.812 20.099 16.719h1021.563l20.134-16.728 15.13-73.802-139.1-999.248z" opacity=".25" style="mix-blend-mode:overlay"/><path fill="#fff" d="m1182.559 1262.571-.043 21.064 20.75-16.013z" opacity=".8"/><path d="m1203.266 1267.622-20.75 16.013-12.661 74.512 20.099-16.719z" opacity=".6"/><g fill="#fff"><path d="m254.044 268.378 17.664 13.248 388.293-149.381v-16.402z" opacity=".3"/><path d="m1066.019 268.368-17.664 13.248L660 132.246v-16.402z" opacity=".3"/><path d="m1064.146 251.267-17.664 13.248 138.452 996.966 20.707 5.052z" opacity=".3"/></g><path d="m253.994 268.369 17.664 13.248-136.07 980.953-20.707 5.052z" opacity=".4"/><path d="m114.881 1267.622 20.75 16.013 12.661 74.512-20.099-16.719z" opacity=".9"/><path d="m135.588 1262.571.043 21.064-20.75-16.013z" opacity=".6"/><path d="M135.588 1262.571h1046.971l-.043 21.064H135.631z" opacity=".2"/><path d="m1182.516 1283.635-12.661 74.512H148.292l-12.661-74.512z" opacity=".7"/><path d="m559.213 222.717-20.29 28.975c-11.026 16.137-17.249 23.556-23.182 31.864-5.987 8.316-10.93 17.32-17.374 33.331l-2.956 5.779 4.366 5.77c20.411 22.848 54.035 42.066 88.372 59.392 34.327 17.323 69.071 33.072 91.266 43.47 36.966 23.849 64.846 53.182 91.818 84.16 2.108 29.641 14.567 50.937 45.8 80.983l-15.935 17.373c-37.555-36.122-54.035-68.12-53.578-110.065h2.738c-8.926-13.42-17.986-26.078-27.389-36.22-16.332-17.628-32.945-22.609-46.358-24.618-13.399-2.057-23.381-2.868-43.465-13.043-.063-.032-5.682-1.448-5.774-1.448h-.01c-.254.039-7.193 1.448-7.193 1.448l-30.427 13.043 26.076 13.017c.431.712.66 1.448 1.447 2.957 2.21 4.26 5.58 10.74 8.723 18.842 3.259 8.521 6.291 18.534 8.62 28.835-100.738 10.478-208.45 81.328-266.49 121.822-12.435 9.738-4.048 29.62 11.57 27.512 37.948-5.504 67.602-12.169 98.36-23.37l.356-.145.01.016c12.575-4.46 27.036-6.866 41.382-8.471 18.867-2.108 37.065-2.515 49.754-2.515 18.603-17.762 41.153-31.256 68.167-39.212 6.39-11.313 6.487-19.552 4.257-30.628-2.439-11.95-8.42-25.151-7.198-42.018L657.858 511c-.736 10.143 4.26 21.687 7.198 36.22 2.337 11.237-2.108 25.06-7.198 39.11 2.827 2.438 7.712 6.182 15.936 11.594 9.942 6.594 22.71 14.671 34.773 21.735 12.06 7.1 24.125 13.904 33.316 18.842 4.56 2.438 8.72 4.369 11.59 5.778 1.448.686 2.108 1.093 2.827 1.397l-5.768 23.198h-1.448c-.61-.24-2.21-1.22-2.827-1.448-1.22-.584-1.295-.66-2.962-1.447-3.259-1.6-8.313-4.659-13.022-7.199-9.533-5.072-21.006-11.62-33.332-18.842-12.324-7.198-25.726-14.782-36.225-21.734-7.1-4.669-12.586-8.705-17.168-12.843-44.288 13.297-72.348 44.034-92.909 86.74-21.432 44.49-33.69 101.922-40.576 162.232-6.904 60.315-9.634 123.11-14.465 179.633-4.87 56.518-11.352 106.616-28.97 141.965-2.957 5.791-5.583 9.83-6.795 15.461 21.555 2.26 43.607 4.996 66.167 7.72 98 11.889 203.916 22.521 308.555-11.606 8.01-3.13 11.97-12.268 8.727-20.257-32.897-67.475-46.745-143.784-150.637-236.12-10.294-29.653-8.925-57.875-7.198-88.366.406-7.199-.762-15.02-2.21-22.954-13.5-20.399-26.202-51.314-37.796-101.08l8.118-13.586 14.402 7.404c11.29 48.457 26.922 80.117 36.365 93.943 12.984 16.259 15.3 13.117 21.73 13.043 19.194-.432 34.606-8.522 52.146-14.486 12.486 60.123 26.17 112.372 28.949 172.387-.381 2.957.147 6.008 1.448 8.733l39.108 57.93c3.869 5.498 10.93 7.914 17.374 5.793l28.97-8.712c8.62-2.515 13.3-11.87 10.145-20.29l-.813-2.057 36.406-18.641c3.868 6.01 11.3 8.514 18.014 6.15 9.532-3.478 20.345-6.587 31.858-11.604 11.524-4.996 23.901-12.367 31.864-26.06.863-1.829 1.295-3.785 1.448-5.794.053-.33.762-2.286 7.198-7.239 6.49-4.846 18.039-11.8 36.194-20.284 10.305-4.996 11.87-18.987 2.957-26.086l-18.817-13.018c-48.502-70.654-86.604-125.432-95.653-209.945-.053-.483.043-.94 0-1.448l11.575-68.084c.533-4.173-.762-8.123-3.132-11.27-1.93-11.991-9.636-22.72-18.532-33.636-11.234-13.812-25.649-27.695-40.56-41.997-14.905-14.303-29.1-29.81-40.556-43.46-10.886-12.987-16.96-24.181-18.837-33.332l57.95-82.573-105.745 34.778c-20.249-3.868-63.521-19.022-107.193-40.576-44.896-22.162-90.9-50.643-114.457-73.882-1.6-1.6-6.902-9.934-10.14-17.379-3.259-7.404-4.366-15.687-4.366-15.93zm-15.855 61.02c3.864 8.867 9.195 17.912 15.855 24.463 27.531 27.166 74.08 53.987 120.235 76.77 46.155 22.784 89.96 40.626 115.885 44.907h2.956l43.465-13.043-23.182 33.331v4.356c2.514 17.072 13.403 32.687 26.091 47.822 12.69 15.133 28.533 29.158 43.444 43.465 14.052 13.482 27.597 26.858 37.275 38.4l-63.34-32.623c-33.101-13.703-36.487-21.092-49.258-30.422-2.108-1.524-4.66-3.043-7.407-4.356-32.704-38.2-66.098-76.333-114.23-107.15h-1.448c-23.099-10.826-56.481-25.177-89.814-41.993-30.5-15.39-58.297-34.095-75.328-50.71 3.434-7.404 6.596-15.314 10.145-20.282 2.032-2.804 5.819-9.223 8.656-12.934zM849.582 637.1h15.936l4.557 7.244c5.583 8.804 6.7 16.302 8.93 23.612 2.21 7.315 5.58 16.548 15.396 32.768l8.216 13.457-13.56 7.978c-8.118 4.77-19.536 5.43-27.694 1.829-8.118-3.61-13.637-9.177-19.357-15.492l-.181-.212-.207-.206c-4.044-4.834-7.508-8.87-10.376-13.721-2.956-4.847-5.278-11.344-4.869-18.123.914-13.554 8.52-21.21 18.552-33.455zm-298.88 5.324c-9.03.33-18.817.914-28.728 2.006-12.94 1.474-25.791 3.935-35.75 7.214l.032.078C408.315 673.7 357.603 680.57 312.97 755.865c-5.888 10.173 1.295 22.896 13.022 23.178l21.415.889.155-.031c22.332-6.348 17.053-4.618 44.917-16.05l.062.144c30.908-13.168 58.432-17.158 112.815-22.95 5.883-21.454 13.089-41.815 22.065-60.45 6.596-13.754 14.379-26.537 23.274-38.158zm-50.72 119.956c-48.473 5.212-72.56 9.106-99.628 20.64l.067.165c-27.812 11.413-22.939 10.463-45.041 16.744l-.712.381c-22.575 13.655-46.486 33.774-72.12 65.696-16.331 12.566-2.234 29.62 18.817 24.646 62.935-5.951 120.202-30.279 183.317-31.972.25-2.439.432-4.77.711-7.199 3.434-30.37 8.014-60.484 14.587-89.09zm380.802 67.314 70.999 84.015-3.348 17.58-64.699 27.3 54.007 28.231-.431 2.26a15.2 15.2 0 0 0 .914 8.62l-53.206-22.998-14.346-34.918c-4.669-29.557.99-46.922 7.198-66.637 3.348-10.82 1.22-28.88 2.827-43.444zm-398.15 49.681-.053.01c-20.904.585-44.643 1.753-99.39 19.384-13.273 6.461-27.604 13.49-34.007 19.266-37.949 34.97-73.42 76.481-86.9 97.063-7.703 12.05 3.65 27.19 17.374 23.173 49.786-13.086 70.957-11.964 85.463-7.24 10.437 1.5 8.036 3.414 19.415-2.489 31.21-8.82 53.87-20.546 87.954-16.984 3.132-41.879 5.89-87.033 10.144-132.184zm-22.14 152.059-.035.015v.02c-21.263-.094-38.308 7.235-63.129 14.733-75.885 44.815-127.527 105.676-142.337 126.798-.66.94-5.278 5.067-5.773 5.794-7.712 12.05 3.65 27.195 17.373 23.177 49.075-18.37 106.815-18.382 169.768-12.822 1.828-10.703 5.58-19.182 8.417-24.841 14.465-29.006 21.313-76.15 26.092-131.832.01-.132 0-.28.02-.432-3.652-.406-7.096-.61-10.396-.61" style="color:#000;font-style:normal;font-variant:normal;font-weight:400;font-stretch:normal;font-size:medium;line-height:normal;font-family:sans-serif;font-variant-ligatures:normal;font-variant-position:normal;font-variant-caps:normal;font-variant-numeric:normal;font-variant-alternates:normal;font-variant-east-asian:normal;font-feature-settings:normal;font-variation-settings:normal;text-indent:0;text-align:start;text-decoration:none;text-decoration-line:none;text-decoration-style:solid;text-decoration-color:#000;letter-spacing:normal;word-spacing:normal;text-transform:none;writing-mode:lr-tb;direction:ltr;text-orientation:mixed;dominant-baseline:auto;baseline-shift:baseline;text-anchor:start;white-space:normal;shape-padding:0;shape-margin:0;inline-size:0;clip-rule:nonzero;display:inline;overflow:visible;visibility:visible;isolation:auto;mix-blend-mode:normal;color-interpolation:sRGB;color-interpolation-filters:linearRGB;solid-color:#000;solid-opacity:1;fill:#020202;fill-opacity:1;fill-rule:nonzero;stroke:none;stroke-width:30.9382;stroke-linecap:butt;stroke-linejoin:round;stroke-miterlimit:4;stroke-dasharray:none;stroke-dashoffset:0;stroke-opacity:1;color-rendering:auto;image-rendering:auto;shape-rendering:auto;text-rendering:auto;enable-background:accumulate;stop-color:#000;filter:url(#d)"/></svg>