<svg xmlns="http://www.w3.org/2000/svg" width="498.898" height="544.252" viewBox="0 0 1320 1440"><defs><linearGradient id="b" x1="236.943" x2="278.677" y1="670.458" y2="670.458" gradientUnits="userSpaceOnUse" spreadMethod="reflect"><stop offset="0" stop-color="#ffd285"/><stop offset=".232" stop-color="#ffcd79"/><stop offset=".616" stop-color="#ffca73"/><stop offset=".808" stop-color="#ffd386"/><stop offset="1" stop-color="#ffc86e"/></linearGradient><linearGradient id="c" x1="660" x2="670.254" y1="115.844" y2="1157.469" gradientUnits="userSpaceOnUse"><stop offset=".604" stop-color="#fff"/><stop offset="1"/></linearGradient><filter id="a" width="1.02" height="1.021" x="-.01" y="-.011" style="color-interpolation-filters:sRGB"><feGaussianBlur stdDeviation="2.441"/></filter><filter id="d" width="1.095" height="1.083" x="-.048" y="-.042" style="color-interpolation-filters:sRGB"><feGaussianBlur in="SourceGraphic" result="result0" stdDeviation="6"/><feDiffuseLighting lighting-color="#FFF" result="result5" surfaceScale="4"><feDistantLight azimuth="235" elevation="45"/></feDiffuseLighting><feComposite in="result5" in2="SourceGraphic" k1="1.4" operator="arithmetic" result="fbSourceGraphic"/><feGaussianBlur in="fbSourceGraphic" result="result0" stdDeviation="6"/><feSpecularLighting in="result0" lighting-color="#FFF" result="result1" specularExponent="25" surfaceScale="4"><feDistantLight azimuth="280" elevation="45"/></feSpecularLighting><feComposite in="fbSourceGraphic" in2="result1" k2="1" k3="1" operator="arithmetic" result="result4"/><feComposite in="result4" in2="SourceGraphic" operator="in" result="result2"/></filter></defs><path d="m-2765.718 268.206 28.198 35.189h538.751l10.087-9.413-86.673-527.828-31.462-17.601z" filter="url(#a)" opacity=".5" transform="matrix(-2.0051 0 0 2.0051 -4355.682 800.271)"/><path fill="url(#b)" d="M660 115.844 254.043 268.378l-139.111 999.236 13.312 73.804 20.099 16.718H1169.89l20.099-16.718 13.312-73.804-137.282-999.246z"/><path fill="url(#c)" d="M660 115.844 253.994 268.369l-137.243 999.246 11.442 73.812 20.099 16.719h1021.563l20.134-16.728 15.13-73.802-139.1-999.248z" opacity=".25" style="mix-blend-mode:overlay"/><path fill="#fff" d="m1182.559 1262.571-.043 21.064 20.75-16.013z" opacity=".8"/><path d="m1203.266 1267.622-20.75 16.013-12.661 74.512 20.099-16.719z" opacity=".6"/><g fill="#fff"><path d="m254.044 268.378 17.664 13.248 388.293-149.381v-16.402z" opacity=".3"/><path d="m1066.019 268.368-17.664 13.248L660 132.246v-16.402z" opacity=".3"/><path d="m1064.146 251.267-17.664 13.248 138.452 996.966 20.707 5.052z" opacity=".3"/></g><path d="m253.994 268.369 17.664 13.248-136.07 980.953-20.707 5.052z" opacity=".4"/><path d="m114.881 1267.622 20.75 16.013 12.661 74.512-20.099-16.719z" opacity=".9"/><path d="m135.588 1262.571.043 21.064-20.75-16.013z" opacity=".6"/><path d="M135.588 1262.571h1046.971l-.043 21.064H135.631z" opacity=".2"/><path d="m1182.516 1283.635-12.661 74.512H148.292l-12.661-74.512z" opacity=".7"/><path d="M494 442.657c-9.76.3-16.367 10.042-13.001 19.243l24.462 75.135c2.337 5.58 7.943 9.13 13.986 8.724h198.165l-97.08 74.603v107.147H398.458c-6.507-.088-12.243 4.256-13.985 10.479l-24.463 64.657c-3.523 9.536 3.826 19.608 13.986 19.221H620.53v207.953l-76.584-.899c-5.847.648-13.741-.424-21.115.399l24.697 32.73c24.696 31.654 39.652 48.34 74.968 70.563 29.884-.6 59.395-12.497 101.798-35.094l-.66-67.688V821.893H947.9c10.16.374 17.458-9.635 13.97-19.221l-24.452-70.728c-1.753-6.29-43.127-4.51-49.63-4.43H723.64v-107.01l93.118-74.725c45.117-34.812 64.867-42.14 68.635-83.869 3.477-9.535-3.825-19.598-13.968-19.223l-376.436.02a14 14 0 0 0-.99-.02z" style="color:#000;font-style:normal;font-variant:normal;font-weight:400;font-stretch:normal;font-size:29.072px;line-height:1.25;font-family:MingLiU_HKSCS-ExtB;-inkscape-font-specification:MingLiU_HKSCS-ExtB;font-variant-ligatures:normal;font-variant-position:normal;font-variant-caps:normal;font-variant-numeric:normal;font-variant-alternates:normal;font-variant-east-asian:normal;font-feature-settings:normal;font-variation-settings:normal;text-indent:0;text-align:start;text-decoration:none;text-decoration-line:none;text-decoration-style:solid;text-decoration-color:#000;letter-spacing:0;word-spacing:0;text-transform:none;writing-mode:lr-tb;direction:ltr;text-orientation:mixed;dominant-baseline:auto;baseline-shift:baseline;text-anchor:start;white-space:normal;shape-padding:0;shape-margin:0;inline-size:0;clip-rule:nonzero;display:inline;overflow:visible;visibility:visible;opacity:.99;isolation:auto;mix-blend-mode:normal;color-interpolation:sRGB;color-interpolation-filters:linearRGB;solid-color:#000;solid-opacity:1;vector-effect:none;fill:#9b0000;fill-opacity:1;fill-rule:nonzero;stroke:none;stroke-width:12.4272;stroke-linecap:butt;stroke-linejoin:round;stroke-miterlimit:4;stroke-dasharray:none;stroke-dashoffset:0;stroke-opacity:1;filter:url(#d);color-rendering:auto;image-rendering:auto;shape-rendering:auto;text-rendering:auto;enable-background:accumulate;stop-color:#000"/></svg>