<svg xmlns="http://www.w3.org/2000/svg" width="498.898" height="544.252" viewBox="0 0 1320 1440"><defs><linearGradient id="b" x1="228.547" x2="270.281" y1="660.584" y2="660.584" gradientUnits="userSpaceOnUse" spreadMethod="reflect"><stop offset="0" stop-color="#ffd285"/><stop offset=".232" stop-color="#ffcd79"/><stop offset=".616" stop-color="#ffca73"/><stop offset=".808" stop-color="#ffd386"/><stop offset="1" stop-color="#ffc86e"/></linearGradient><linearGradient id="c" x1="660.031" x2="660.029" y1="176.665" y2="1147.595" gradientUnits="userSpaceOnUse"><stop offset=".6" stop-color="#fff"/><stop offset="1"/></linearGradient><filter id="a" width="1.021" height="1.022" x="-.011" y="-.011" style="color-interpolation-filters:sRGB"><feGaussianBlur stdDeviation="2.441"/></filter><filter id="d" width="1.094" height="1.078" x="-.047" y="-.039" style="color-interpolation-filters:sRGB"><feGaussianBlur in="SourceGraphic" result="result0" stdDeviation="6"/><feDiffuseLighting lighting-color="#FFF" result="result5" surfaceScale="4"><feDistantLight azimuth="235" elevation="45"/></feDiffuseLighting><feComposite in="result5" in2="SourceGraphic" k1="1.4" operator="arithmetic" result="fbSourceGraphic"/><feGaussianBlur in="fbSourceGraphic" result="result0" stdDeviation="6"/><feSpecularLighting in="result0" lighting-color="#FFF" result="result1" specularExponent="25" surfaceScale="4"><feDistantLight azimuth="280" elevation="45"/></feSpecularLighting><feComposite in="fbSourceGraphic" in2="result1" k2="1" k3="1" operator="arithmetic" result="result4"/><feComposite in="result4" in2="SourceGraphic" operator="in" result="result2"/></filter></defs><path d="m-2758.546 269.702 24.453 34.897h517.576l14.375-11.25-104.69-501.167-31.462-17.601z" filter="url(#a)" opacity=".5" transform="matrix(-2.0051 0 0 2.0051 -4364.078 800.649)"/><path fill="url(#b)" d="M660.043 176.664 306.898 293.591 139.681 1267.61l13.3 73.818 20.099 16.718h973.903l20.099-16.718 13.324-73.818-167.217-974.019z"/><path fill="url(#c)" d="M660.031 176.665 306.887 293.593 139.67 1267.612l13.312 73.816 20.099 16.718h973.903l20.099-16.718 13.312-73.816-167.217-974.019z" opacity=".25" style="mix-blend-mode:overlay"/><path fill="#fff" d="m1159.664 1262.568-.043 21.064 20.75-16.013z" opacity=".8"/><path d="m1180.371 1267.619-20.75 16.013-12.637 74.514 20.099-16.718z" opacity=".6"/><g fill="#fff"><path d="m306.85 293.583 17.664 13.248L660 193.055v-16.402zm706.3 0-17.664 13.248L660 193.055v-16.402z" opacity=".3"/><path d="m1013.15 293.583-17.664 13.248 164.177 955.737 20.707 5.052z" opacity=".3"/></g><path d="m306.85 293.583 17.664 13.248-164.177 955.737-20.707 5.052z" opacity=".4"/><path d="m139.629 1267.619 20.75 16.013 12.702 74.514-20.099-16.718z" opacity=".9"/><path d="m160.337 1262.568.043 21.064-20.75-16.013z" opacity=".6"/><path d="M160.337 1262.568h999.327l-.043 21.064H160.379z" opacity=".2"/><path d="m1159.621 1283.632-12.637 74.514H173.081l-12.702-74.514h999.241z" opacity=".7"/><path d="M965.491 456.92v.018c-206.928 22.713-403.428 22.713-610.952.381-1.423-.148-1.118 2.057-.813 3.261 11.372 45.995 15.408 51.676 47.22 85.533l517.952-.148c33.088-32.466 35.931-39.027 47.453-85.292.33-1.295.533-3.914-.813-3.782zM400.286 569.606v393.675h32.745c11.908-114.56 109.11-204.295 226.75-204.295 117.638 0 214.816 89.734 226.715 204.295h32.744V569.607Zm259.497 213.062c-112.841-.015-204.325 91.454-204.332 204.295-.014 112.855 91.477 204.345 204.332 204.33 112.84-.01 204.31-91.486 204.295-204.33-.01-112.827-91.467-204.289-204.295-204.295m-18.999 71.319v87.187L579.17 879.51a134.33 134.33 0 0 1 61.614-25.52zm37.97 0c22.356 3.172 43.546 11.973 61.613 25.52l-61.614 61.664zm-126.396 52.4 61.644 61.643h-87.167c3.142-22.362 11.961-43.57 25.523-61.643m214.88 0a134.3 134.3 0 0 1 25.523 61.643h-87.187zm-364.717 79.957c-13.117.067-25.908.187-25.908.187l-19.393 33.357v37.688h87.135c-10.497-18.166-15.519-47.457-13.947-71.045-1.32-.279-14.76-.25-27.875-.187zm514.479 0c-13.117-.065-26.567-.075-27.876.187h-.018c1.524 23.591-3.434 52.87-13.97 71.044h87.147v-37.688l-19.378-33.357s-12.791-.12-25.906-.187zm-390.164 19.553h87.166l-61.613 61.651a134.4 134.4 0 0 1-25.563-61.65zm178.756 0h87.166c-3.248 22.38-12.001 43.585-25.573 61.65zm-64.809 26.876v87.13c-22.337-3.261-43.507-11.978-61.553-25.519zm37.968 0 61.614 61.614a134.3 134.3 0 0 1-61.614 25.519z" style="opacity:.99;fill:#000;fill-opacity:1;stroke:none;stroke-width:15.3843px;stroke-linecap:butt;stroke-linejoin:round;stroke-opacity:1;filter:url(#d)"/></svg>