<svg xmlns="http://www.w3.org/2000/svg" width="498.898" height="544.252" viewBox="0 0 1320 1440"><defs><linearGradient id="b" x1="-1430.769" x2="-1409.955" y1="-77.47" y2="-77.47" gradientUnits="userSpaceOnUse" spreadMethod="reflect"><stop offset="0" stop-color="#ffd285"/><stop offset=".232" stop-color="#ffcd79"/><stop offset=".616" stop-color="#ffca73"/><stop offset=".808" stop-color="#ffd386"/><stop offset="1" stop-color="#ffc86e"/></linearGradient><linearGradient id="c" x1="-904.556" x2="-904.556" y1="-406.052" y2="184.159" gradientUnits="userSpaceOnUse"><stop offset="0"/><stop offset=".596" stop-color="#fff"/></linearGradient><filter id="a" width="1.024" height="1.021" x="-.012" y="-.01" style="color-interpolation-filters:sRGB"><feGaussianBlur stdDeviation="2.441"/></filter><filter id="d" width="1.078" height="1.071" x="-.039" y="-.036" style="color-interpolation-filters:sRGB"><feGaussianBlur in="SourceGraphic" result="result0" stdDeviation="6"/><feDiffuseLighting lighting-color="#FFF" result="result5" surfaceScale="4"><feDistantLight azimuth="235" elevation="45"/></feDiffuseLighting><feComposite in="result5" in2="SourceGraphic" k1="1.4" operator="arithmetic" result="fbSourceGraphic"/><feGaussianBlur in="fbSourceGraphic" result="result0" stdDeviation="6"/><feSpecularLighting in="result0" lighting-color="#FFF" result="result1" specularExponent="25" surfaceScale="4"><feDistantLight azimuth="280" elevation="45"/></feSpecularLighting><feComposite in="fbSourceGraphic" in2="result1" k2="1" k3="1" operator="arithmetic" result="result4"/><feComposite in="result4" in2="SourceGraphic" operator="in" result="result2"/></filter></defs><path d="m-2681.73 217.274 26.181 28.949 172.576 56.161 193.177-61.463 89.581-450.194-45.894-49.39z" filter="url(#a)" opacity=".5" transform="matrix(-2.0051 0 0 2.0051 -4364.078 706.823)"/><path fill="url(#b)" d="m-1220.686-363.581-176.123 60.03-8.809 28.459-84.914 494.898 10.349 7.986h518.995l10.348-7.986-84.914-495.039-8.809-28.459z" transform="rotate(180 -893.82 266.77)scale(2.0051)"/><path fill="url(#c)" d="m-905.02-407.213-176.123 59.888-8.809 26.778-84.914 496.72 10.349 7.986h518.995l10.349-7.986-84.914-494.898-8.809-28.601z" opacity=".25" style="mix-blend-mode:overlay" transform="rotate(180 -577.344 223.027)scale(2.0051)"/><path d="m139.629 97.854.043-21.064-20.75 16.013zm891.185 987.285-17.664-13.248L660 1188.821v16.402z" opacity=".4"/><path d="m289.186 1085.139 17.664-13.248L660 1188.821v16.402z" opacity=".6"/><path d="m289.186 1085.139 17.664-13.248L139.629 97.854l-20.707-5.052z" opacity=".6"/><g fill="#fff"><path d="m1030.814 1085.139-17.664-13.248 167.221-974.037 20.707-5.052z" opacity=".3"/><path d="m1180.371 97.854-.043-21.064 20.75 16.013z" opacity=".8"/><path d="M1180.371 97.854H139.629l.043-21.064h1040.656z" opacity=".3"/></g><path d="m306.849 1142.487-17.663-57.348L660 1205.223l370.814-120.084-17.663 57.348L660 1262.571z" opacity=".7"/><path d="M473.252 979.901c7.1.28 14.554-.33 22.512-1.828v-1.6h1.625c59.363-16.884 103.985-67.978 122.199-135.256 0 0 .685-2.16.889-3.26 5.382-26.927 10.347-63.362 14.914-99.592 20.186 35.353 43.812 71.226 55.163 87.278l1.828 3.564 3.551 1.778c15.875 10.564 35.027 14.999 55.274 16.045h3.658c53.234-5.517 102.756-8.895 153.346-16.045l14.262-1.778 3.55-12.482c81.296-263.605 73.019-478.526 98.073-618.737l3.552-19.619-17.834-5.354c-43.091-12.072-89.61 9.429-130.167 41.009-40.555 31.58-75.45 76.716-85.583 124.817h-1.83v1.829c-.355 4.26-.736 8.382-1.117 12.628-180.328-54.752-332.386-42.687-483.312 10.767-1.626.585-3.564-.584-5.174 0l-10.345 3.478v4.219c1.524.406 3.042.762 4.26 1.092 3.956.863 7 1.752 7.098 1.829 151.82 37.396 300.836 43.968 472.522-10.699 3.038-.94 5.58-1.448 7.912-1.65 2.312-.239 4.366-.227 6.188-.168a3654 3654 0 0 1-2.634 29.884c-1.22.149-4.669.584-4.466.534C606.11 449 451.648 441.56 296.381 403.318c-.585-.142-1.524-.381-2.109-.534 1.83 15.654 4.659 29.854 9.335 43.44 1.219-.035 2.438-.215 3.563-.112 4.466.432 7.913 2.083 12.487 3.564 113.697 36.644 211.254 74.479 452.908 19.616 1.117-.25 3.756-1.092 7.61-1.65-1.118 10.19-2.44 20.314-3.658 30.461-239.352 54.087-347.848 16.503-457.607-19.078 4.77 8.113 10.043 16.34 16.472 25.02 14.719 17.932 27.754 29.701 44.855 41.4 17.105 11.694 27.806 23.515 66.686 46.566l3.434 1.753 3.434 1.752c27.441.381 67.63 4.56 105.334 6.297 5.58.045 11.48-.02 17.163 0 6.593.025 13.045.127 19.913.02 4.156-.066 8.522-.25 12.832-.407 13.622-.28 27.5-.66 41.843-1.296 6.286-1.955 12.687-3.825 20.043-5.933 15.814-4.56 29.112-10.16 42.39-15.194 25.065 55.773 37.745 91.783 71.483 148.35l.25.585.018-.093c1.829 3.043 3.353 5.834 5.37 9.007l1.828 1.778v1.778c17.183 21.178 36.306 39.04 55.65 55.815-30.422 2.827-61.776 5.016-94.876 8.38-13.127-.686-20.998-3-28.524-7.13-11.169-16.104-35.98-54.508-55-87.762l30.037-1.397-1.829-57.059-52.392 2.439c1.524-14.077 1.626-15.972 2.634-25.225-4.963.61-9.942 1.041-14.818 1.473h-.056c-7.506.686-14.971 1.27-22.439 1.651-7.2.407-14.424.66-21.696.737-39.074.66-80.867-2.464-138.784-9.03l-5.073 39.657-54.046 2.515 3.563 57.059 43.144-2.058-18.524 145.471v1.6c-5.883 35.149-5.883 65.095 6.49 86.37 6.29 10.837 15.39 18.808 27.692 22.806 6.185 2.006 12.759 3.172 19.82 3.434zm419.306-208.956c-3.353-1.296-8.723-3.348-14.79-5.921-18.42-15.918-36.225-32.619-51.714-51.709-11.697-19.182-20.531-35.579-28.291-51.208 22.326-108.363 28.514-207.385 37.207-314.327 7-33.027 35.26-73.159 69.536-99.853 20.277-15.783 39.358-22.11 56.562-24.912a160 160 0 0 1 16.556-1.829c-21.15 139.599-20.836 322.63-85.067 549.765zM765.456 581.36h-.018l-15.897-36.049c8.521-8.064 16.718-17.137 24.61-27.475-2.634 21.132-5.48 42.26-8.723 63.524z" style="color:#000;font-style:normal;font-variant:normal;font-weight:400;font-stretch:normal;font-size:medium;line-height:normal;font-family:sans-serif;font-variant-ligatures:normal;font-variant-position:normal;font-variant-caps:normal;font-variant-numeric:normal;font-variant-alternates:normal;font-variant-east-asian:normal;font-feature-settings:normal;font-variation-settings:normal;text-indent:0;text-align:start;text-decoration:none;text-decoration-line:none;text-decoration-style:solid;text-decoration-color:#000;letter-spacing:normal;word-spacing:normal;text-transform:none;writing-mode:lr-tb;direction:ltr;text-orientation:mixed;dominant-baseline:auto;baseline-shift:baseline;text-anchor:start;white-space:normal;shape-padding:0;shape-margin:0;inline-size:0;clip-rule:nonzero;display:inline;overflow:visible;visibility:visible;opacity:.99;isolation:auto;mix-blend-mode:normal;color-interpolation:sRGB;color-interpolation-filters:linearRGB;solid-color:#000;solid-opacity:1;fill:#000;fill-opacity:1;fill-rule:nonzero;stroke:none;stroke-width:56.8749;stroke-linecap:butt;stroke-linejoin:miter;stroke-miterlimit:4;stroke-dasharray:none;stroke-dashoffset:0;stroke-opacity:1;color-rendering:auto;image-rendering:auto;shape-rendering:auto;text-rendering:auto;enable-background:accumulate;stop-color:#000;filter:url(#d)"/></svg>