<svg xmlns="http://www.w3.org/2000/svg" width="498.898" height="544.252" viewBox="0 0 1320 1440"><defs><linearGradient id="b" x1="-1430.769" x2="-1409.955" y1="-77.47" y2="-77.47" gradientUnits="userSpaceOnUse" spreadMethod="reflect"><stop offset="0" stop-color="#ffd285"/><stop offset=".232" stop-color="#ffcd79"/><stop offset=".616" stop-color="#ffca73"/><stop offset=".808" stop-color="#ffd386"/><stop offset="1" stop-color="#ffc86e"/></linearGradient><linearGradient id="c" x1="-905.02" x2="-904.556" y1="-384.47" y2="184.159" gradientUnits="userSpaceOnUse"><stop offset="0"/><stop offset=".603" stop-color="#fff"/></linearGradient><filter id="a" width="1.026" height="1.022" x="-.013" y="-.011" style="color-interpolation-filters:sRGB"><feGaussianBlur stdDeviation="2.441"/></filter><filter id="d" width="1.078" height="1.071" x="-.039" y="-.036" style="color-interpolation-filters:sRGB"><feGaussianBlur in="SourceGraphic" result="result0" stdDeviation="6"/><feDiffuseLighting lighting-color="#FFF" result="result5" surfaceScale="4"><feDistantLight azimuth="235" elevation="45"/></feDiffuseLighting><feComposite in="result5" in2="SourceGraphic" k1="1.4" operator="arithmetic" result="fbSourceGraphic"/><feGaussianBlur in="fbSourceGraphic" result="result0" stdDeviation="6"/><feSpecularLighting in="result0" lighting-color="#FFF" result="result1" specularExponent="25" surfaceScale="4"><feDistantLight azimuth="280" elevation="45"/></feSpecularLighting><feComposite in="fbSourceGraphic" in2="result1" k2="1" k3="1" operator="arithmetic" result="result4"/><feComposite in="result4" in2="SourceGraphic" operator="in" result="result2"/></filter></defs><path d="m-2659.569 204.596 26.181 28.949 150.416 46.096 171.017-51.398 98.911-437.515-45.894-49.39z" filter="url(#a)" opacity=".5" transform="matrix(-2.0051 0 0 2.0051 -4364.078 706.823)"/><path fill="url(#b)" d="m-1220.686-340.838-153.963 49.823-8.809 28.459-94.245 482.361 10.349 7.986h493.336l10.348-7.986-94.244-482.361-8.809-28.459z" transform="rotate(180 -893.82 266.77)scale(2.0051)"/><path fill="url(#c)" d="m-905.02-384.47-153.963 49.823-8.809 26.778-94.245 484.042 10.349 7.986h493.336l10.349-7.986-94.244-482.219-8.809-28.601z" opacity=".25" style="mix-blend-mode:overlay" transform="rotate(180 -577.344 223.027)scale(2.0051)"/><path d="m165.355 97.854.043-21.064-20.75 16.013zm821.025 961.863-17.664-13.248L660 1143.218v16.402z" opacity=".4"/><path d="m333.62 1059.717 17.664-13.248L660 1143.218v16.402z" opacity=".6"/><path d="m333.62 1059.717 17.664-13.248L165.355 97.854l-20.707-5.052z" opacity=".6"/><g fill="#fff"><path d="m986.38 1059.717-17.664-13.248 185.93-948.615 20.707-5.052z" opacity=".3"/><path d="m1154.646 97.854-.043-21.064 20.75 16.013z" opacity=".8"/><path d="M1154.646 97.854H165.355l.043-21.064h989.205z" opacity=".3"/></g><path d="m351.283 1117.065-17.663-57.348L660 1159.62l326.38-99.903-17.663 57.348L660 1216.968z" opacity=".7"/><path d="M473.253 985.609c7.1.279 14.554-.33 22.512-1.83v-1.6h1.625c59.363-16.883 103.985-67.977 122.199-135.255 0 0 .685-2.16.889-3.259 5.382-26.928 10.347-63.363 14.914-99.593 20.186 35.353 43.812 71.226 55.163 87.279l1.828 3.563 3.551 1.778c15.875 10.564 35.027 14.999 55.274 16.045h3.657c53.235-5.516 102.757-8.895 153.347-16.045l14.262-1.778 3.55-12.481c81.296-263.606 73.019-478.527 98.074-618.738l3.55-19.619-17.833-5.354c-43.091-12.072-89.61 9.429-130.167 41.009-40.555 31.58-75.45 76.716-85.583 124.817h-1.83v1.829c-.355 4.26-.736 8.382-1.117 12.628-180.328-54.752-332.386-42.687-483.312 10.768-1.626.584-3.564-.585-5.174 0l-10.345 3.477v4.219c1.524.406 3.042.762 4.26 1.092 3.956.864 7 1.753 7.098 1.829 151.82 37.396 300.836 43.969 472.522-10.699 3.038-.94 5.58-1.448 7.912-1.65 2.312-.239 4.366-.227 6.188-.168a3654 3654 0 0 1-2.634 29.884c-1.22.149-4.669.584-4.466.534-177.056 56.417-331.518 48.976-486.785 10.734-.585-.142-1.524-.381-2.109-.534 1.83 15.654 4.659 29.854 9.335 43.44 1.22-.034 2.438-.215 3.563-.112 4.466.432 7.913 2.083 12.487 3.564 113.697 36.644 211.254 74.479 452.908 19.616 1.117-.249 3.756-1.092 7.61-1.65-1.118 10.19-2.44 20.314-3.658 30.462-239.352 54.087-347.848 16.502-457.607-19.078 4.77 8.112 10.043 16.34 16.472 25.019 14.72 17.932 27.754 29.701 44.855 41.4 17.105 11.694 27.806 23.515 66.686 46.566l3.434 1.753 3.434 1.753c27.441.38 67.63 4.559 105.334 6.296 5.58.045 11.48-.02 17.163 0 6.593.025 13.045.127 19.913.018 4.156-.065 8.522-.25 12.832-.406 13.622-.28 27.5-.66 41.843-1.296 6.286-1.955 12.687-3.825 20.043-5.933 15.814-4.56 29.112-10.16 42.39-15.194 25.065 55.773 37.745 91.783 71.483 148.35l.25.585.018-.093c1.829 3.043 3.353 5.834 5.37 9.007l1.828 1.778v1.778c17.183 21.178 36.306 39.04 55.65 55.815-30.422 2.827-61.776 5.016-94.876 8.38-13.127-.686-20.998-3-28.524-7.13-11.169-16.104-35.98-54.508-55-87.762l30.037-1.397-1.829-57.059-52.392 2.439c1.524-14.077 1.626-15.972 2.634-25.225-4.963.61-9.942 1.042-14.818 1.473h-.056c-7.506.686-14.971 1.27-22.439 1.651-7.2.407-14.424.66-21.696.737-39.074.66-80.867-2.464-138.784-9.03l-5.072 39.657-54.047 2.515 3.564 57.059 43.143-2.057-18.524 145.47v1.6c-5.883 35.149-5.883 65.095 6.49 86.37 6.291 10.837 15.39 18.808 27.692 22.806 6.185 2.006 12.759 3.172 19.82 3.434zm419.306-208.957c-3.353-1.296-8.723-3.348-14.79-5.921-18.42-15.918-36.224-32.618-51.714-51.709-11.697-19.182-20.531-35.579-28.291-51.208 22.326-108.363 28.514-207.385 37.207-314.327 7-33.027 35.26-73.159 69.536-99.853 20.277-15.783 39.358-22.11 56.562-24.912a160 160 0 0 1 16.556-1.829c-21.15 139.599-20.836 322.63-85.067 549.765zM765.457 587.068h-.018l-15.898-36.049c8.522-8.064 16.719-17.137 24.61-27.475-2.633 21.132-5.478 42.26-8.722 63.524z" style="color:#000;font-style:normal;font-variant:normal;font-weight:400;font-stretch:normal;font-size:medium;line-height:normal;font-family:sans-serif;font-variant-ligatures:normal;font-variant-position:normal;font-variant-caps:normal;font-variant-numeric:normal;font-variant-alternates:normal;font-variant-east-asian:normal;font-feature-settings:normal;font-variation-settings:normal;text-indent:0;text-align:start;text-decoration:none;text-decoration-line:none;text-decoration-style:solid;text-decoration-color:#000;letter-spacing:normal;word-spacing:normal;text-transform:none;writing-mode:lr-tb;direction:ltr;text-orientation:mixed;dominant-baseline:auto;baseline-shift:baseline;text-anchor:start;white-space:normal;shape-padding:0;shape-margin:0;inline-size:0;clip-rule:nonzero;display:inline;overflow:visible;visibility:visible;opacity:.99;isolation:auto;mix-blend-mode:normal;color-interpolation:sRGB;color-interpolation-filters:linearRGB;solid-color:#000;solid-opacity:1;fill:#9b0000;fill-opacity:1;fill-rule:nonzero;stroke:none;stroke-width:56.8749;stroke-linecap:butt;stroke-linejoin:miter;stroke-miterlimit:4;stroke-dasharray:none;stroke-dashoffset:0;stroke-opacity:1;color-rendering:auto;image-rendering:auto;shape-rendering:auto;text-rendering:auto;enable-background:accumulate;stop-color:#000;filter:url(#d)"/></svg>