<svg xmlns="http://www.w3.org/2000/svg" id="svg65050" width="498.898" height="544.252" version="1.1" viewBox="0 0 1320 1440"><style id="style64934">.B{color-interpolation-filters:sRGB}</style><defs id="defs64998"><filter id="B" width="1.024" height="1.021" x="-.012" y="-.01" class="B"><feGaussianBlur id="feGaussianBlur64947" stdDeviation="2.441"/></filter><filter id="filter69761" width="1.094" height="1.078" x="-.047" y="-.039" style="color-interpolation-filters:sRGB"><feGaussianBlur id="feGaussianBlur69743" in="SourceGraphic" result="result0" stdDeviation="6"/><feDiffuseLighting id="feDiffuseLighting69747" diffuseConstant="1" lighting-color="#FFF" result="result5" surfaceScale="4"><feDistantLight id="feDistantLight69745" azimuth="235" elevation="45"/></feDiffuseLighting><feComposite id="feComposite69749" in="result5" in2="SourceGraphic" k1="1.4" operator="arithmetic" result="fbSourceGraphic"/><feGaussianBlur id="feGaussianBlur69751" in="fbSourceGraphic" result="result0" stdDeviation="6"/><feSpecularLighting id="feSpecularLighting69755" in="result0" lighting-color="#FFF" result="result1" specularConstant="1" specularExponent="25" surfaceScale="4"><feDistantLight id="feDistantLight69753" azimuth="280" elevation="45"/></feSpecularLighting><feComposite id="feComposite69757" in="fbSourceGraphic" in2="result1" k2="1" k3="1" operator="arithmetic" result="result4"/><feComposite id="feComposite69759" in="result4" in2="SourceGraphic" operator="in" result="result2"/></filter><filter id="filter11694" width="1.076" height="1.06" x="-.038" y="-.03" style="color-interpolation-filters:sRGB"><feGaussianBlur id="feGaussianBlur11676" in="SourceGraphic" result="result0" stdDeviation="6"/><feDiffuseLighting id="feDiffuseLighting11680" diffuseConstant="1" lighting-color="#fff" result="result5" surfaceScale="4"><feDistantLight id="feDistantLight11678" azimuth="235" elevation="45"/></feDiffuseLighting><feComposite id="feComposite11682" in="result5" in2="SourceGraphic" k1="1.4" k2="0" k3="0" k4="0" operator="arithmetic" result="fbSourceGraphic"/><feGaussianBlur id="feGaussianBlur11684" in="fbSourceGraphic" result="result0" stdDeviation="6"/><feSpecularLighting id="feSpecularLighting11688" in="result0" lighting-color="#fff" result="result1" specularConstant="1" specularExponent="25" surfaceScale="4"><feDistantLight id="feDistantLight11686" azimuth="280" elevation="45"/></feSpecularLighting><feComposite id="feComposite11690" in="fbSourceGraphic" in2="result1" k1="0" k2="1" k3="1" k4="0" operator="arithmetic" result="result4"/><feComposite id="feComposite11692" in="result4" in2="SourceGraphic" operator="in" result="result2"/></filter><filter id="D" width="1.021" height="1.022" x="-.011" y="-.011" class="B"><feGaussianBlur id="feGaussianBlur6315" stdDeviation="2.441"/></filter><filter id="filter70231" width="1.076" height="1.06" x="-.038" y="-.03" style="color-interpolation-filters:sRGB"><feGaussianBlur id="feGaussianBlur70213" in="SourceGraphic" result="result0" stdDeviation="6"/><feDiffuseLighting id="feDiffuseLighting70217" diffuseConstant="1" lighting-color="#FFF" result="result5" surfaceScale="4"><feDistantLight id="feDistantLight70215" azimuth="235" elevation="45"/></feDiffuseLighting><feComposite id="feComposite70219" in="result5" in2="SourceGraphic" k1="1.4" operator="arithmetic" result="fbSourceGraphic"/><feGaussianBlur id="feGaussianBlur70221" in="fbSourceGraphic" result="result0" stdDeviation="6"/><feSpecularLighting id="feSpecularLighting70225" in="result0" lighting-color="#FFF" result="result1" specularConstant="1" specularExponent="25" surfaceScale="4"><feDistantLight id="feDistantLight70223" azimuth="280" elevation="45"/></feSpecularLighting><feComposite id="feComposite70227" in="fbSourceGraphic" in2="result1" k2="1" k3="1" operator="arithmetic" result="result4"/><feComposite id="feComposite70229" in="result4" in2="SourceGraphic" operator="in" result="result2"/></filter><linearGradient id="A" x1="-1430.769" x2="-1409.955" y1="-77.47" y2="-77.47" gradientUnits="userSpaceOnUse" spreadMethod="reflect"><stop id="stop64936" offset="0" stop-color="#ffd285"/><stop id="stop64938" offset=".232" stop-color="#ffcd79"/><stop id="stop64940" offset=".616" stop-color="#ffca73"/><stop id="stop64942" offset=".808" stop-color="#ffd386"/><stop id="stop64944" offset="1" stop-color="#ffc86e"/></linearGradient><linearGradient id="C" x1="-904.556" x2="-904.556" y1="-406.052" y2="184.159" gradientUnits="userSpaceOnUse"><stop id="stop64950" offset="0"/><stop id="stop64952" offset=".596" stop-color="#fff"/></linearGradient><linearGradient id="B-4" x1="660.031" x2="660.029" y1="176.665" y2="1147.595" gradientTransform="rotate(180 -36.585 680.796)" gradientUnits="userSpaceOnUse"><stop id="stop6306" offset=".6" stop-color="#fff"/><stop id="stop6308" offset="1"/></linearGradient><linearGradient id="A-0" x1="228.547" x2="270.281" y1="660.584" y2="660.584" gradientTransform="rotate(180 -36.585 680.796)" gradientUnits="userSpaceOnUse" spreadMethod="reflect"><stop id="stop6295" offset="0" stop-color="#ffd285"/><stop id="stop6297" offset=".232" stop-color="#ffcd79"/><stop id="stop6299" offset=".616" stop-color="#ffca73"/><stop id="stop6301" offset=".808" stop-color="#ffd386"/><stop id="stop6303" offset="1" stop-color="#ffc86e"/></linearGradient></defs><path id="path65000" d="m-2681.73 217.274 26.181 28.949 172.576 56.161 193.177-61.463 89.581-450.194-45.894-49.39z" filter="url(#B)" opacity=".5" transform="matrix(-2.0051 0 0 2.0051 -4364.078 706.823)"/><path id="path65002" fill="url(#A)" d="m-1220.686-363.581-176.123 60.03-8.809 28.459-84.914 494.898 10.349 7.986h518.995l10.348-7.986-84.914-495.039-8.809-28.459z" transform="rotate(180 -893.82 266.77)scale(2.0051)"/><path id="path65004" fill="url(#C)" d="m-905.02-407.213-176.123 59.888-8.809 26.778-84.914 496.72 10.349 7.986h518.995l10.349-7.986-84.914-494.898-8.809-28.601z" opacity=".25" style="mix-blend-mode:overlay" transform="rotate(180 -577.344 223.027)scale(2.0051)"/><path id="path65006" d="m139.629 97.854.043-21.064-20.75 16.013zm891.185 987.285-17.664-13.248L660 1188.821v16.402z" opacity=".4"/><path id="path65008" d="m289.186 1085.139 17.664-13.248L660 1188.821v16.402z" opacity=".6"/><path id="path65010" d="m289.186 1085.139 17.664-13.248L139.629 97.854l-20.707-5.052z" opacity=".6"/><g id="g65018" fill="#fff"><path id="path65012" d="m1030.814 1085.139-17.664-13.248 167.221-974.037 20.707-5.052z" opacity=".3"/><path id="path65014" d="m1180.371 97.854-.043-21.064 20.75 16.013z" opacity=".8"/><path id="path65016" d="M1180.371 97.854H139.629l.043-21.064h1040.656z" opacity=".3"/></g><path id="path65020" d="m306.849 1142.487-17.663-57.348L660 1205.223l370.814-120.084-17.663 57.348L660 1262.571z" opacity=".7"/><path id="path3940" d="M901.129 1059.404c2.515.148 4.77.126 6.695-.096 2.058-.223 3.74-.66 4.964-1.296-12.419-15.14-110.166-84.669-56.704-103.86.66-.223.99-.483 1.752-.737 21.372.94 43.205 22.631 45.566 24.78 3.132 2.957 10.673 3.825 19.243 3.564 25.754-1.092 61.594-21.494 22.42-29.754-35.696-12.42-64.726-18.768-86.019-34.044l-.097.193c-15.194-15.763-46.864-44.403-62.678-58.35l-26.424-25.214c-8.01-6.947-22.11-18.255-36.983-26.619-7.607-4.26-15.286-7.643-21.81-9.33-6.49-1.752-11.01-1.752-14.649-.533.025.074.044.178-.097.864-.356 1.752-.103 5.067 1.118 9.235 2.438 8.217 8.217 19.368 14.719 30.136 6.49 10.762 13.581 21.194 18.692 28.689 2.514 3.782 4.56 6.66 5.882 8.72 0 0 105.034 27.575 71.119 69.386-56.237 69.344 55.508 111.894 93.344 114.226zm-483.872 0v-.05c37.835-2.286 149.585-44.888 93.354-114.23-33.91-41.812 71.118-69.379 71.118-69.379 1.296-2.159 3.348-5.065 5.888-8.72 5.072-7.48 12.232-17.912 18.694-28.688 6.49-10.76 12.274-21.923 14.7-30.136 1.218-4.044 1.447-7.486 1.117-9.236-.14-.686-.121-.762-.096-.863-3.653-1.169-8.217-1.093-14.666.533-6.49 1.753-14.242 5.067-21.811 9.33-14.882 8.315-28.962 19.738-36.983 26.619l-26.424 25.214c-15.801 13.94-47.483 42.592-62.689 58.343l-.096-.193c-21.313 15.286-50.324 21.633-86.02 34.045-39.165 8.217-3.347 28.662 22.421 29.753 8.522.356 16.048-.61 19.243-3.563 2.337-2.16 24.194-23.79 45.566-24.78.61.234.99.533 1.753.736 53.458 19.195-44.298 88.706-56.704 103.861 1.22.66 2.956 1.093 4.963 1.296 1.93.222 4.173.245 6.696.097zm492.6-196.826c17.61-38.983 25.044-60.115-24.689-117.556 32.806 7.882 68.43 73.837 83.413 87.369 25.723-65.073-6.49-93.627-46.246-114.373 38.791-8.316 61.938 10.287 100.87 22.098-21.659-39.627-48.457-100.16-114.036-71.993 24.356-33.475 66.797-48.86 103.092-70.4-37.31-7.02-76.19-25.575-108.01 7.095 16.515-30.176 43.426-55.932 69.82-81.872-10.954 1.448-21.635 3.347-32.157 5.573-16.88 18.65-36.466 31.036-55.841 39.83-.198 10.34-3.043 21.085-5.774 30.52-1.6 5.646-2.108 6.512-3.434 10.136 4.77 1.169 8.725 1.524 14.272 4.923 4.669 2.956 9.228 7.643 11.512 13.975 2.336 6.368 2.21 13.746.05 21.806l-11.969 43.837c-3.563 13.056-14.859 19.383-26.18 25.463-8.925 4.78-17.947 8.217-26.132 11.565 1.22 9.941 2.514 19.903 3.434 29.897zm-500.074 0 68.136-102.128c.914-9.942 2.108-19.932 3.348-29.806-8.217-3.348-17.183-6.731-26.133-11.565-11.32-6.08-22.629-12.39-26.18-25.462l-11.968-43.831c-2.21-8.022-2.337-15.43 0-21.816 2.337-6.368 6.904-11.027 11.565-13.976 5.478-3.39 9.433-3.782 14.221-4.922-1.295-3.693-1.829-4.488-3.434-10.137-2.827-9.429-5.583-20.196-5.773-30.527-19.365-8.832-38.953-21.164-55.842-39.823a406 406 0 0 0-32.206-5.573c26.393 25.941 53.357 51.699 69.87 81.872-31.822-32.705-70.753-14.196-108.056-7.091 36.297 21.546 78.788 36.926 103.14 70.4-65.581-28.172-92.36 32.366-114.037 71.992 38.93-11.798 62.03-30.37 100.82-22.088-39.784 20.737-71.971 49.295-46.246 114.376 14.98-13.533 50.658-79.522 83.463-87.369-49.736 57.445-42.309 78.582-24.689 117.555zm215.247-7.882c6.185-.168 12.395-.406 13.055-.482.139-.017.33.05.483.05l21.262-3.694 21.212 3.694c.16.012.38-.074.533-.05.61.083 6.185.304 11.656.431-.863-1.447-1.524-2.285-2.438-3.782-7-11.605-13.482-23.154-17.204-35.827-1.93-6.512-3.258-10.784-1.6-20.007-.064.406-.234.66-.305 1.092.161-1.88.33-2.159.356-2.26-.1.482.038.71-.048 1.092 4.044-24.374 25.767-25.528 45.18-20.412h.097c9.738 2.515 18.725 6.66 27.632 11.712 17.417 9.733 32.297 21.971 40.94 29.363l.533.432 26.18 25.026c.483.407 1.295 1.169 1.829 1.6.076-.192.762-1.6.762-1.752v-.05c12.232-32.31 7.808-73.52 2.438-115.532l-.99-7.803 7.307-3.043c9.335-3.825 21.425-8.517 31.154-13.742 9.738-5.138 15.8-11.78 16.116-12.827l11.968-43.83c1.448-5.139.99-7.882.483-9.538-.584-1.524-1.448-2.464-3.348-3.782-3.13-1.956-8.925-3.394-14.912-5.065-9.634.099-20.572.61-31.975-.432-13.94-1.397-28.902-5.43-39.683-17.559l-1.118-1.168-.61-1.524c-4.26-9.942-6.903-20.64-9.334-30.954h16.444c7.711.223 91.345 1.83 141.426-63.98 18.907-24.885 37.035-43.266 57.819-52.74 9.03-4.13 13.109-7.806 20.693-8.83 4.669-.609 12.987 2.287 19.955 4.26l-6.49-16.873c-22.632-7.719-41.013-3.998-58.54 7.48-18.199 11.847-35.035 31.702-51.399 53.037-21.33 28.054-55.69 41.036-84.387 47.356-24.384 5.43-38.83 4.923-44.5 4.923l-18.23.685c-1.22-2.697-2.438-5.138-3.739-7.162-2.337-3.564-4.77-5.139-7.607-6.297-37.462 8.425-76.343 13.719-103.284 15.941l-.813.097-.864-.097c-26.94-2.26-65.783-7.48-103.236-15.941-2.827 1.092-5.174 2.697-7.608 6.297-1.295 1.88-2.514 4.348-3.739 7.162l-18.28-.685c-5.682-.025-20.124.355-44.501-4.923-28.689-6.297-63.055-19.294-84.377-47.356-16.35-21.33-33.21-41.204-51.4-53.037-17.52-11.389-35.887-15.232-58.539-7.48l-6.49 16.873c7-1.88 15.286-4.846 19.95-4.26 7.607.94 11.615 4.705 20.693 8.83 20.77 9.487 38.874 27.906 57.793 52.787 50.09 65.848 133.696 64.205 141.439 63.98h16.492c-2.439 10.313-5.073 21.034-9.335 30.954l-.66 1.524-1.118 1.168C515.353 620 499.946 624.48 485.27 626.33c-13.58 1.752-26.94 1.397-37.757 1.524-3.131.94-5.986 1.828-7.912 3.043-1.93 1.168-2.738 2.26-3.347 3.782-.585 1.524-.94 4.26.482 9.537l11.961 43.846c.28.99 6.39 7.643 16.16 12.824 9.738 5.139 21.81 9.942 31.153 13.742l7.199 3.042-.94 7.803c-5.37 42.013-9.838 83.26 2.438 115.578 0 0 .381.762.381.864.226-.203.66-.584.864-.762l26.18-25.027.533-.432c8.62-7.404 23.515-19.586 40.94-29.362 8.925-4.923 17.947-9.235 27.632-11.712h.05c19.433-5.138 41.182-4 45.23 20.447-.088-.483.01-.686-.095-1.168.01.045.177.304.355 2.26-.053-.38-.18-.66-.242-.99 1.6 9.235.212 13.535-1.752 19.954-3.74 12.682-10.247 24.211-17.201 35.827-.864 1.448-1.524 2.286-2.439 3.782zm137.037-86.79c-16.754-2.464-23.515-25.006-75.268-62.258 13.25-21.762 32.015-31.062 65.093-25.701 31.028 11.16 61.24 29.958 42.187 68.909-7.198 11.844-15.285 17.376-24.01 18.844-2.957.483-7.912-2.159-8.011.193zm-204.494 0c-2.438.356-4.963.305-7.912-.193-8.725-1.524-16.83-7.02-24.01-18.867-19.05-38.94 11.16-57.749 42.187-68.909 33.079-5.43 51.804 3.998 65.042 25.702-51.754 37.235-58.5 59.869-75.267 62.257zM709.51 614.429c-16.305-3.563-23.442-26.967-34.715-41.413L695.49 588.3l25.706 2.914c-1.753 11.115 9.03 20.007-11.656 23.34zm-99.329 0c-20.734-3.348-10.043-12.202-11.71-23.342l25.707-2.914 20.693-15.286c-11.282 14.456-18.372 37.862-34.67 41.414zm-146.343-6.947c6.39-.098 12.751-.305 18.692-.99 11.829-1.524 21.097-5.139 27.197-11.423.813-2.159 1.524-4.922 2.21-7.48-12.799-.584-32.684-3.043-56.613-10.711.762 5.138 1.83 10.71 3.434 16.205 2.439 8.113 3.958 11.986 4.964 14.503zm392.595-1.752c1.118-3.043 2.21-5.647 4.366-12.769 1.6-5.573 2.337-10.856 3.13-16.116-23.79 7.48-43.528 10.048-56.267 10.617.736 2.514 1.447 5.283 2.21 7.48 6.085 6.297 14.294 9.33 25.267 10.356 6.594.61 13.886.584 21.263.432zm-65.143-68.94c6.292-.074 21.852-.533 43.922-5.43 5.37-1.168 11.027-2.957 16.637-4.704-2.738-4.778-5.478-9.645-8.826-13.94.165.222-7.198-4.851-13.693-7.719-6.49-2.913-12.347-4.777-12.347-4.777l-5.888-1.88-.914-6.226c-13.693-89.996-32.097-123.036-54.828-190.317-2.652-4.13-5.987-7.803-9.634-11.235l-14.173-189.837-20.056 142.63-26.863-126.668-24.83 124.066-24.69-123.777-27.053 128.503-20.046-145.667-14.028 190.85c-3.564 3.391-6.904 7.021-9.533 11.095-22.73 67.296-41.13 100.343-54.828 190.366l-.94 6.226-5.887 1.88s-5.883 1.88-12.395 4.777c-6.49 2.914-13.818 7.882-13.655 7.72-3.348 4.348-6.086 9.235-8.827 13.974 5.583 1.753 11.199 3.348 16.586 4.56 22.116 4.851 37.766 5.43 43.975 5.43.94-1.829 1.6-3.825 2.827-5.573 4.465-6.66 10.904-12.628 19.436-15.285-.94-97.432.61-87.399 25.024-179.42l.99-3.828 3.348-2.16c21.941-14.127 50.668-21.046 79.467-21.02 28.797.012 57.84 7.02 80.095 22.806l3.043 2.16.915 3.563c24.323 92.43 27.245 82.235 25.092 177.761l.243.049c8.621 2.609 15.195 8.62 19.667 15.38 1.118 1.752 1.83 3.693 2.827 5.572zm-131.445-4.922c22.825-1.88 54.33-5.933 85.929-12.347l-14.455-77.388-20.056 38.766-26.863-29.698-24.83 28.21-24.69-28.057-27.054 30.766-20.045-40.5-14.313 77.77c31.77 6.368 63.47 10.574 86.405 12.47zm-.305-130.286 24.69-23.767 23.393 22.507 10.497-55.794c-16.596-9.134-37.218-14.564-58.68-14.564-21.314-.01-41.875 5.283-58.44 13.563l10.672 56.613 23.198-22.327z" style="fill:#9b0000;fill-opacity:1;stroke:none;stroke-width:24.688px;stroke-linecap:butt;stroke-linejoin:miter;stroke-opacity:1;filter:url(#filter70231)"/></svg>