<svg xmlns="http://www.w3.org/2000/svg" width="498.898" height="544.252" viewBox="0 0 1320 1440"><defs><linearGradient id="b" x1="-1430.769" x2="-1409.955" y1="-77.47" y2="-77.47" gradientUnits="userSpaceOnUse" spreadMethod="reflect"><stop offset="0" stop-color="#ffd285"/><stop offset=".232" stop-color="#ffcd79"/><stop offset=".616" stop-color="#ffca73"/><stop offset=".808" stop-color="#ffd386"/><stop offset="1" stop-color="#ffc86e"/></linearGradient><linearGradient id="c" x1="-904.556" x2="-904.556" y1="-406.052" y2="184.159" gradientUnits="userSpaceOnUse"><stop offset="0"/><stop offset=".604" stop-color="#fff"/></linearGradient><filter id="a" width="1.023" height="1.02" x="-.012" y="-.01" style="color-interpolation-filters:sRGB"><feGaussianBlur stdDeviation="2.441"/></filter><filter id="d" width="1.079" height="1.084" x="-.039" y="-.042" style="color-interpolation-filters:sRGB"><feGaussianBlur in="SourceGraphic" result="result0" stdDeviation="6"/><feDiffuseLighting lighting-color="#FFF" result="result5" surfaceScale="4"><feDistantLight azimuth="235" elevation="45"/></feDiffuseLighting><feComposite in="result5" in2="SourceGraphic" k1="1.4" operator="arithmetic" result="fbSourceGraphic"/><feGaussianBlur in="fbSourceGraphic" result="result0" stdDeviation="6"/><feSpecularLighting in="result0" lighting-color="#FFF" result="result1" specularExponent="25" surfaceScale="4"><feDistantLight azimuth="280" elevation="45"/></feSpecularLighting><feComposite in="fbSourceGraphic" in2="result1" k2="1" k3="1" operator="arithmetic" result="result4"/><feComposite in="result4" in2="SourceGraphic" operator="in" result="result2"/></filter></defs><path d="m-2699.281 228.709 26.181 28.949 190.592 72.165 210.264-77.468 75.234-461.629-45.894-49.39z" filter="url(#a)" opacity=".5" transform="matrix(-2.0051 0 0 2.0051 -4364.078 706.823)"/><path fill="url(#b)" d="m-1220.221-390.88-194.139 75.893-8.809 28.459-70.567 506.333 10.349 7.986h525.404l10.348-7.986-70.567-506.333-8.809-28.459z" transform="rotate(180 -893.82 266.77)scale(2.0051)"/><path fill="url(#c)" d="m-904.556-434.511-194.139 75.893-8.809 31.887-70.567 502.905 10.349 7.986h525.404l10.349-7.986-70.567-502.905-8.809-31.887z" opacity=".25" style="mix-blend-mode:overlay" transform="rotate(180 -577.344 223.027)scale(2.0051)"/><path d="m133.204 97.854.043-21.064-20.75 16.013zm932.803 1010.214-17.664-13.248-389.274 149.021v16.402z" opacity=".4"/><path d="m253.993 1108.068 17.664-13.248 387.412 149.021v16.402z" opacity=".6"/><path d="m253.993 1108.068 17.664-13.248L133.204 97.854l-20.707-5.052z" opacity=".6"/><g fill="#fff"><path d="m1066.007 1108.068-17.664-13.248 138.453-996.966 20.707-5.052z" opacity=".3"/><path d="m1186.796 97.854-.043-21.064 20.75 16.013z" opacity=".8"/><path d="M1186.796 97.854H133.204l.043-21.064h1053.506z" opacity=".3"/></g><path d="m271.655 1165.416-17.663-57.348 405.076 152.176 406.938-152.176-17.663 57.348-389.275 152.176z" opacity=".7"/><path d="M926.002 930.178c12.558 0 21.6-10.845 18.092-21.694l-23.812-73.57c-2.337-7.245-9.71-12.22-18.093-12.22H717.602V649.268H852.69c8.08.01 15.268-4.618 17.869-11.499l23.83-63.56c4.125-10.996-4.966-22.388-17.869-22.383H717.601V351.674h264.79c8.38 0 15.751-4.98 18.093-12.221l23.886-73.572c3.508-10.844-5.53-21.687-18.092-21.697H313.656c-12.558 0-21.6 10.844-18.09 21.697l23.83 73.572c2.337 7.243 9.708 12.219 18.092 12.221h268.004v200.152H451.086c-12.877.027-21.933 11.405-17.813 22.383l23.83 63.56c2.604 6.879 9.79 11.51 17.87 11.494H605.49V822.69H419.807c-8.38 0-15.75 4.979-18.093 12.22l-23.83 73.571c-3.508 10.846 5.53 21.69 18.093 21.694zm-25.093-33.914H421.09l12.852-39.657h190.42c10.389-.016 18.806-7.587 18.816-16.936V632.348c.013-9.365-8.41-16.96-18.816-16.977H488.493l-11.126-29.645h146.995c10.388-.016 18.806-7.587 18.816-16.937V334.683c-.01-9.342-8.425-16.923-18.816-16.939h-272.74l-12.87-39.655h642.36l-12.852 39.655H698.79c-10.412-.012-18.863 7.578-18.873 16.94v234.105c.01 9.365 8.46 16.95 18.872 16.937h151.526l-11.145 29.645H698.788c-10.427-.012-18.885 7.595-18.872 16.977V839.67c.01 9.365 8.46 16.95 18.872 16.937h189.25z" style="color:#000;font-style:normal;font-variant:normal;font-weight:400;font-stretch:normal;font-size:medium;line-height:1.25;font-family:MingLiU_HKSCS-ExtB;-inkscape-font-specification:MingLiU_HKSCS-ExtB;font-variant-ligatures:normal;font-variant-position:normal;font-variant-caps:normal;font-variant-numeric:normal;font-variant-alternates:normal;font-variant-east-asian:normal;font-feature-settings:normal;font-variation-settings:normal;text-indent:0;text-align:start;text-decoration:none;text-decoration-line:none;text-decoration-style:solid;text-decoration-color:#000;letter-spacing:0;word-spacing:0;text-transform:none;writing-mode:lr-tb;direction:ltr;text-orientation:mixed;dominant-baseline:auto;baseline-shift:baseline;text-anchor:start;white-space:normal;shape-padding:0;shape-margin:0;inline-size:0;clip-rule:nonzero;display:inline;overflow:visible;visibility:visible;opacity:.99;isolation:auto;mix-blend-mode:normal;color-interpolation:sRGB;color-interpolation-filters:linearRGB;solid-color:#000;solid-opacity:1;vector-effect:none;fill:#000;fill-opacity:1;fill-rule:nonzero;stroke:none;stroke-width:35.749;stroke-linecap:butt;stroke-linejoin:round;stroke-miterlimit:4;stroke-dasharray:none;stroke-dashoffset:0;stroke-opacity:1;color-rendering:auto;image-rendering:auto;shape-rendering:auto;text-rendering:auto;enable-background:accumulate;stop-color:#000;filter:url(#d)"/></svg>