<svg xmlns="http://www.w3.org/2000/svg" width="498.898" height="544.252" viewBox="0 0 1320 1440"><defs><linearGradient id="b" x1="-1430.769" x2="-1409.955" y1="-77.47" y2="-77.47" gradientUnits="userSpaceOnUse" spreadMethod="reflect"><stop offset="0" stop-color="#ffd285"/><stop offset=".232" stop-color="#ffcd79"/><stop offset=".616" stop-color="#ffca73"/><stop offset=".808" stop-color="#ffd386"/><stop offset="1" stop-color="#ffc86e"/></linearGradient><linearGradient id="c" x1="-905.02" x2="-904.556" y1="-384.47" y2="184.159" gradientUnits="userSpaceOnUse"><stop offset="0"/><stop offset=".603" stop-color="#fff"/></linearGradient><filter id="a" width="1.026" height="1.022" x="-.013" y="-.011" style="color-interpolation-filters:sRGB"><feGaussianBlur stdDeviation="2.441"/></filter><filter id="d" width="1.088" height="1.085" x="-.044" y="-.043" style="color-interpolation-filters:sRGB"><feGaussianBlur in="SourceGraphic" result="result0" stdDeviation="6"/><feDiffuseLighting lighting-color="#FFF" result="result5" surfaceScale="4"><feDistantLight azimuth="235" elevation="45"/></feDiffuseLighting><feComposite in="result5" in2="SourceGraphic" k1="1.4" operator="arithmetic" result="fbSourceGraphic"/><feGaussianBlur in="fbSourceGraphic" result="result0" stdDeviation="6"/><feSpecularLighting in="result0" lighting-color="#FFF" result="result1" specularExponent="25" surfaceScale="4"><feDistantLight azimuth="280" elevation="45"/></feSpecularLighting><feComposite in="fbSourceGraphic" in2="result1" k2="1" k3="1" operator="arithmetic" result="result4"/><feComposite in="result4" in2="SourceGraphic" operator="in" result="result2"/></filter></defs><path d="m-2659.569 204.596 26.181 28.949 150.416 46.096 171.017-51.398 98.911-437.515-45.894-49.39z" filter="url(#a)" opacity=".5" transform="matrix(-2.0051 0 0 2.0051 -4364.078 706.823)"/><path fill="url(#b)" d="m-1220.686-340.838-153.963 49.823-8.809 28.459-94.245 482.361 10.349 7.986h493.336l10.348-7.986-94.244-482.361-8.809-28.459z" transform="rotate(180 -893.82 266.77)scale(2.0051)"/><path fill="url(#c)" d="m-905.02-384.47-153.963 49.823-8.809 26.778-94.245 484.042 10.349 7.986h493.336l10.349-7.986-94.244-482.219-8.809-28.601z" opacity=".25" style="mix-blend-mode:overlay" transform="rotate(180 -577.344 223.027)scale(2.0051)"/><path d="m165.355 97.854.043-21.064-20.75 16.013zm821.025 961.863-17.664-13.248L660 1143.218v16.402z" opacity=".4"/><path d="m333.62 1059.717 17.664-13.248L660 1143.218v16.402z" opacity=".6"/><path d="m333.62 1059.717 17.664-13.248L165.355 97.854l-20.707-5.052z" opacity=".6"/><g fill="#fff"><path d="m986.38 1059.717-17.664-13.248 185.93-948.615 20.707-5.052z" opacity=".3"/><path d="m1154.646 97.854-.043-21.064 20.75 16.013z" opacity=".8"/><path d="M1154.646 97.854H165.355l.043-21.064h989.205z" opacity=".3"/></g><path d="m351.283 1117.065-17.663-57.348L660 1159.62l326.38-99.903-17.663 57.348L660 1216.968z" opacity=".7"/><path d="M950.831 840.792c6.797.011 7.71-.22 10.165-1.117 1.83-.66 3.244-1.448 3.142-1.6-.182-.585-1.422-1.22-6.695-3.74-6.39-3.042-20.876-11.435-20.876-12.133 0-.138.254-.093.584.111.381.234.457.14.22-.235-.204-.356-.584-.483-.838-.33-.686.432-4.669-2.439-4.364-3.043.188-.33.076-.407-.28-.171-13.416-9.21-26.139-20.265-36.982-32.505-4.16-4.658-4.77-5.682-4.363-6.185.202-.22.108-.25-.238-.064-.71.406-2.938-2.438-2.337-3.043.204-.234.11-.28-.202-.086-.762.431-4.062-3.653-3.549-4.367.22-.355.14-.431-.204-.25-.686.433-2.337-1.752-1.829-2.437.173-.28.062-.356-.236-.173-.305.187-1.32-.813-2.235-2.337l-1.727-2.738-1.93 1.829c-1.017.99-2.134 1.6-2.337 1.524-.243-.22-.28-.125-.098.204.191.355-.508 1.295-1.626 2.21-1.118.863-2.736 2.438-3.757 3.434-7.731 3.692-10.203 10.533-17.86 13.609-.355-.236-.482-.157-.253.172.188.33-.483 1.118-1.524 1.6-.99.66-1.829 1.22-1.829 1.296 0 .25 6.39 6.49 6.695 6.49 18.062 17.129 42.63 33.142 65.86 41.332 7.166 1.826 14.75 2.307 22.367 2.397 3.856.043 6.797.076 9.027.08zM367.76 836.62c6.998-.001 11.372-.66 18.928-2.652 9.739-2.514 23.15-8.42 32.856-14.465 15.783-11.395 26.953-19.722 40.057-29.969.254 0 3.96-3.652 3.96-3.868 0-.079-1.83-1.524-3.96-3.13-2.337-1.752-3.757-3.26-3.551-3.563.204-.33.126-.432-.172-.25-.685.432-2.842-1.448-2.336-2.057.219-.235.124-.28-.189-.096-.762.432-14.425-12.072-13.978-12.804.189-.33.111-.431-.171-.25-.28.173-1.626-.812-2.946-2.209l-2.439-2.652-1.422 1.6c-.788.915-3.142 3.955-5.276 6.795-2.133 2.738-4.061 4.963-4.257 4.77-.254-.173-.432-.1-.355.134.196.61-1.423 2.827-1.83 2.515-.189-.135-.23-.103-.088.086-20.53 22.67-41.049 40.938-67.085 54.016l-7.099 3.563 2.134.864c4.965 2.108 10.802 3.261 17.772 3.261.483.005.965.006 1.422.006zm290.867-4.669c9.332.001 18.654-.172 24.03-.533 25.045-1.6 50.568-5.479 70.115-10.673 12.2-2.54 24.93-7.49 35.822-11.725 8.926-3.434 23.747-10.71 32.887-15.969 2.84-1.6 5.682-3.261 6.289-3.563 5.484-3.233 10.365-6.768 15.423-10.379 11.026-8.725 15.156-12.12 16.675-13.703.99-.99 1.93-1.93 2.133-1.93.173 0 3.658-3.348 7.81-7.509 6.693-5.547 9.857-9.743 15.055-16.126 1.22-1.6 2.54-2.827 2.84-2.652.304.188.431.13.254-.137 8.235-11.211 14.233-20.27 20.285-30.605 16.056-28.085 26.026-59.068 31.678-89.303 4.77-26.01 6.493-52.385 5.682-87.561-.61-25.659-2.133-44.917-4.77-62.389-3.999-24.466-10.377-51.175-22.088-71.586-1.016-1.829-1.727-3.563-1.524-3.825.188-.33.156-.432-.08-.22-4.129-4.161-6.994-9.823-11.153-14.646-.38-.38-.508-.94-.33-1.219-.804-.34-2.129-2.403-2.553-3.263.22-.205.112-.305-.233-.205-11.007-10.916-20.397-19.918-33.693-28.416-.839-.534-1.83-1.092-2.134-1.448-.864-.737-12.984-8.819-13.228-8.819-9.348-6.12-19.934-12.607-29.665-19.327-.28-.218-1.22-.99-2.134-1.752-.914-.737-1.828-1.296-2.133-1.296-.28 0-1.118-.584-1.829-1.219-.711-.686-1.727-1.448-2.235-1.6-.508-.188-.711-.61-.508-.94.234-.381.156-.483-.204-.25-.762.483-12.71-8.521-12.273-9.227.188-.305.077-.381-.237-.188-.304.188-1.32-.33-2.336-1.092-.94-.762-2.84-2.286-4.16-3.348l-2.44-1.955-1.422 4.26c-1.727 5.064-4.567 11.602-6.695 15.232-2.54 4.26-17.143 33.474-19.863 39.67-2.158 4.812-4.472 10.043-6.291 14.612-1.016 2.609-2.236 5.5-2.634 6.297-1.22 2.608-5.886 16.088-8.319 23.942-4.061 13.137-7.1 25.94-8.62 36.548-.33 2.286-.839 5.573-1.118 7.308-1.321 8.113-1.118 31.192.38 40.978.864 5.718 4.466 19.249 5.784 21.476.102.172 1.727-.235 3.551-.94 4.669-1.6 12.74-3.609 17.671-4.348 12.72-1.753 28.93.355 40.636 5.283 8.525 3.425 14.689 6.92 21.834 11.73 11.169 8.516 20.775 17.907 29.996 28.466 0 .234.172.61.38.864.966.94.33 3.825-1.117 5.354-11.168 9.33-19.11 12.06-28.291 14.786-3.96 1.092-14.71 1.752-20.056 1.092-8.723-.94-9.23-1.092-13.805-2.26-8.115-2.058-21.008-7.71-24.041-10.504-.584-.533-1.016-.863-1.016-.66 0 .432-8.014-5.791-11.32-8.819-1.525-1.448-2.635-2.738-2.44-3.043.196-.33.118-.432-.148-.25-6.344-5.777-9.126-10.376-12.922-15.139-.863-1.295-2.133-3.261-2.735-4.348-4.16-6.297-9.739-21.438-11.918-32.137-2.134-10.335-2.634-15.946-2.54-28.675.058-19.454 2.735-36.505 9.535-60.303 3.244-11.27 8.722-27.076 12.253-35.219.381-.863 1.32-3.261 2.235-5.283 7.003-16.937 16.924-36.6 24.937-50.378.22.218.33.154.252-.128-.28-.94.66-2.827 1.219-2.515.33.203.432.109.204-.235.241-2.457 1.713-4.76 2.641-7.081 2.84-6.297 4.669-15.58 4.872-24.56.126-4.63.034-5.572-.635-5.572-2.134 0-30.614-2.739-40.525-3.826-12.446-1.448-13.723-1.956-14.8-5.138-.813-2.515.355-5.139 2.84-6.368 1.727-.863 2.438-.762 13.987.533 6.696.737 17.57 1.83 24.173 2.464 6.594.61 12.294 1.092 12.64 1.296.914.33 1.32-.61.71-1.6-.279-.534-1.015-2.61-1.625-4.56-.635-2.057-1.422-4-1.625-4.348-.28-.356-.381-.66-.188-.66.457 0-2.54-5.866-5.073-9.843l-2.133-3.262-3.452.305c-8.522.737-19.9 1.448-21.93 1.22-1.83-.105-2.54-.483-3.757-1.83-2.438-2.737-1.829-6.66 1.22-8.315 1.32-.686 10.314-1.6 15.691-1.753 1.22-.016 1.423-.142.864-.762-.356-.432-1.829-1.524-3.343-2.464-1.524-.94-3.243-2.082-3.96-2.738-.787-.686-1.117-.762-.863-.305.355.686.305.686-.305 0-.381-.431-.914-.863-1.22-.94-.279-.07-3.243-1.092-6.695-2.26-3.342-1.092-7.709-2.286-9.636-2.515-14.273-1.828-31.183 1.093-42.229 7.308-1.524.864-2.84 1.295-3.038 1.092-.17-.172-.305-.045-.305.28 0 .33-1.219 1.295-2.735 2.26-4.265 2.609-13.066 12.378-16.383 18.212-2.743 4.778-4.872 9.743-4.872 11.173 0 .407 2.54 1.83 5.682 3.13 9.738 4.26 26.689 14.092 26.689 15.56 0 .33.156.406.33.235.432-.432 6.29 4.348 6.086 4.994-.079.279.032.38.254.235.864-.534 8.722 8.316 8.115 9.123-.188.33-.11.432.188.235.686-.432 3.452 4.78 4.567 8.517 1.524 5.065.914 13.18-1.22 17.78-1.219 2.608-1.93 3.607-2.438 3.261-.241-.22-.241-.08-.022.33.28.483-.533 1.6-2.54 3.564-1.625 1.524-3.142 2.738-3.342 2.738-.198-.063-1.321.432-2.54 1.092s-4.265 1.6-6.797 2.286c-4.567 1.093-5.073 1.093-38.78 1.093-31.294 0-34.55-.08-38.374-.94-4.872-1.092-11.351-3.826-10.863-4.636.172-.305.08-.38-.234-.187-.304.187-1.625-.737-2.946-2.058-1.32-1.295-2.235-2.608-2.032-2.956.188-.305.11-.407-.173-.235-.635.407-3.142-4.778-3.855-8.011-.788-3.564-.635-9.634.305-12.903 2.634-9.025 10.314-17.844 23.18-26.476 6.085-4.044 19.68-11.318 25.968-13.838.914-.38 1.727-.863 1.727-1.092 0-.762-3.142-8.316-3.96-9.644-.457-.686-.66-1.524-.431-1.956.235-.407.156-.483-.22-.25-.33.204-.584.145-.584-.121 0-.28-1.016-2.058-2.337-3.826-1.32-1.828-2.133-3.563-1.93-3.782.203-.204.126-.304-.156-.204-.737.236-7.1-6.586-6.696-7.092.204-.235.125-.28-.204-.096-.33.189-1.219-.25-2.032-.94-.762-.736-1.524-1.295-1.625-1.295-.128 0-1.321-.762-2.743-1.753-5.886-4.13-14.984-7.808-23.89-9.532-3.45-.686-7.2-.94-14.099-.94-8.521.017-9.84.142-14.353 1.448-7.201 2.057-10.315 3.261-15.052 6.075-2.337 1.448-4.364 2.464-4.567 2.083-.199-.187-.216-.06-.028.28.187.33-.014.736-.432.863-.432.172-.787.61-.787.94 0 .533 1.93.686 8.013.864 8.926.172 11.108.61 13.107 2.463 3.342 3.13.457 9.124-4.466 9.124-3.243 0-25.582-1.524-26.374-1.829-.61-.22-3.25 2.083-3.25 2.957 0 .203-.306.686-.661 1.092-2.134 2.108-9.332 19.911-8.319 20.46.711.406 32.785-2.609 50.05-4.63 1.727-.204 3.342-.08 4.264.33 1.626.685 3.658 3.347 3.658 4.996 0 1.6-1.524 4-3.142 4.777-2.235 1.093-23.553 3.61-48.447 5.573l-8.014.66.092 6.01c.047 3.782.508 8.011 1.22 11.22.584 2.827 1.117 5.572 1.219 6.01 1.59 5.301 4.206 10.404 6.446 14.787 2.032 3.825 3.551 7.094 3.343 7.094-.219 0-.141.188.156.407 5.355 8.063 8.848 16.499 13.569 25.887.431.864.635 1.753.482 1.956-.156.25-.078.483.189.483 3.514 6.639 6.52 13.265 9.035 20.378.078.432.304.94.482 1.092 1.016.864 8.926 22.807 11.938 33.414 7.506 26.007 10.142 42.231 10.142 62.903.025 19.225-2.54 33.392-8.824 48.723-3.352 8.113-9.535 18.768-10.396 17.973-.236-.203-.28-.141-.114.172.508.864-2.939 5.5-8.723 11.651-4.363 4.63-12.76 11.638-13.441 11.212-.305-.188-.432-.13-.249.153.457.737-7.709 5.717-14.11 8.517-10.63 4.777-20.795 6.87-32.5 7.02-8.116.03-14.639-.762-16.597-2.108-11.999-5.573-16.322-7.02-22.784-13.063-1.829-2.286-3.746-3.13-3.55-6.079.077-1.092 3.144-4.993 3.85-4.777.28.078.355-.11.172-.407-.185-.304 2.947-3.782 6.904-7.709 8.722-8.72 12.113-11.673 12.832-11.216.305.188.406.106.236-.171-.28-.432 1.016-1.6 6.696-5.718 2.735-1.956 10.721-6.586 14.851-8.62 7.912-3.826 18.725-7.092 27.51-8.317 7.607-.99 19.972-.355 27.957 1.524 3.657.864 7.709 2.058 9.027 2.609 1.32.584 2.634.94 2.84.762.61-.381 3.352-8.926 4.567-14.6 1.727-7.706 2.235-11.943 2.54-24.275.406-16.088-1.118-29.68-5.276-48.029-3.96-17.322-12.405-41.687-20.876-60.274-1.016-2.26-1.727-4.348-1.524-4.63.193-.33.15-.432-.086-.205-.33.305-2.032-2.608-2.337-4.043-3.565-7.348-6.563-13.133-10.145-21.014-.015-.355-.187-.66-.38-.66-.195 0-1.22-1.6-2.236-3.564-1.016-1.956-3.142-6.01-4.872-9.025-3.144-5.86-5.986-12.382-7.302-17.002-.457-1.524-1.016-2.827-1.32-2.827-.306 0-2.135 1.295-4.062 3.043-4.364 3.609-16.079 12.659-16.536 12.659-.185 0-1.016.61-2.032 1.295-2.438 2.058-2.337 1.83-7.81 5.718-2.84 2.057-5.48 3.564-5.886 3.564s-.61.107-.482.235c.28.28-4.669 3.782-5.37 3.782a.78.78 0 0 0-.66.432c-.247.66-13.614 9.123-14.394 9.123-.356 0-.534.126-.381.28.14.14-.201.533-.737.863-19.946 13.465-38.18 23.947-51.81 41.897-1.22 1.296-2.843 3.262-3.445 4.13-.635.94-1.422 1.524-1.727 1.296-.305-.188-.432-.11-.233.187.182.305-.584 1.83-1.727 3.348-11.31 15.603-20.094 36.5-25.958 61.794-2.735 11.768-5.885 34.64-7.2 51.416-3.143 40.992-2.338 77.702 2.234 108.844.762 5.139 1.423 9.937 1.423 10.704.032.737.167 1.448.305 1.6.156.144.838 3.043 1.524 6.513 5.776 28.901 17.213 59.949 30.533 82.682 3.22 7.018 8.367 12.899 11.943 19.558-.173.188-.077.33.236.33.305 0 1.829 1.6 3.353 3.74 3.444 4.657 7.912 10.233 10.752 13.367.635.737 1.016 1.524.838 1.829-.171.28-.093.38.204.203.711-.432 4.465 3.739 3.96 4.465-.197.356-.165.432.07.235.23-.204 3.85 2.957 8.014 7 4.155 4.044 9.84 9.23 12.588 11.542 2.735 2.21 4.872 4.367 4.872 4.669-.063.25.045.406.254.33.812-.28 4.257 2.337 3.96 2.957-.185.33-.156.431.08.219 11.886 6.627 20.614 13.938 32.616 20.21 14.543 8.18 30.456 14.099 48.083 19.74 24.478 7.607 53.235 12.575 83.524 14.432 5.48.355 14.923.533 24.265.533zm315.802-2.108c.66-.128 2.54-4.26 3.452-7.508 1.93-7.1 1.829-19.416-.305-29.601-.38-1.93-.813-4.044-.965-4.77-.483-2.652-2.54-9.739-5.174-17.407-5.642-25.838-19.467-43.777-29.263-65.126.184-.33.155-.432-.08-.22-.432.406-9.84-15.542-9.84-16.678-.015-.355-.185-.533-.381-.406-.203.125-.508-.141-.686-.584l-.01.01c-.254-.66-.432-.686-1.016-.128-.407.38-.635.863-.508 1.117.126.203-.064.915-.432 1.6-.356.661-.686 1.296-.711 1.448-5.196 8.249-8.453 18.946-14.56 26.18-.279-.172-.33-.048-.13.28.382.66-3.141 6.39-3.96 6.39-.253 0-.355.188-.218.432.355.584-3.856 6.695-4.466 6.49-.279-.079-.38.078-.204.355.381.61-9.332 13.635-13.492 18.146-.305.33-1.524 1.6-2.54 3.043-1.118 1.295-2.235 2.21-2.438 2.108-.915-.584-.158 2.738.914 4.173.635.762.99 1.753.813 2.058-.193.33-.158.432.06.235.218-.188 1.625 1.22 3.038 3.13 26.104 26.449 49.966 53.135 81.077 64.623 1.118.431 2.032.812 2.134.812q.014.001.032 0zm-636.45-5.987c.534-.002.915-.144.915-.33 0-.219 1.117-.762 2.438-1.295 26.872-9.308 42.396-27.45 60.28-41.785.249.156.38.078.304-.188-.223-.736 8.014-9.532 8.621-9.128.28.172.356.061.155-.25 5.616-6.372 7.91-10.22 12.634-16.958 1.727-2.438 2.438-3.868 2.134-4.26-.28-.33-.33-.761-.105-.99.22-.234.109-.28-.237-.07-.56.33-2.032-1.524-1.83-2.21.049-.147-.108-.279-.355-.279-1.016 0-8.826-10.287-8.521-11.282.078-.305-.062-.407-.33-.25-.585.356-9.028-12.255-14.06-20.968-5.58-9.639-11.168-20.957-10.751-21.681.204-.356.173-.483-.061-.25-.407.382-5.174-9.738-5.776-12.423h.01c-.458-1.752-1.118-1.6-2.236.686-13.293 21.332-25.108 45.058-33.645 64.78-5.908 10.78-9.702 23.146-12.626 35.442-.015.534-.534 3.653-1.118 6.904-1.422 7.308-1.625 25.014-.38 29.61 1.117 4.044 2.946 7.199 4.363 7.308q.121.008.236.006zm214.734-44.551c-10.043.03-23.33-2.827-32.501-7.1-2.134-.94-3.96-1.752-4.062-1.752-.812 0-7.505-4.465-8.724-5.773-4.062-4.56-6.594-11.634-5.682-15.878.635-2.738 1.93-5.773 3.246-7.607 1.524-2.058 5.072-4.669 5.682-4.26.28.188.38.094.188-.204-.457-.736 5.784-3.563 10.904-4.869l.01-.006c3.246-.864 5.885-1.118 12.751-1.22 9.738-.155 9.738-.155 17.143 1.601 12.639 3.043 20.51 9.533 23.332 19.225 2.337 7.912-.242 16.889-6.492 22.58-.762.687-3.142 2.109-5.276 3.26-3.452 1.6-4.465 1.93-8.722 2.108-.635.028-1.32.043-1.93.044zm171.222-.534c-3.655.015-7.302-.234-7.81-.66-.381-.33-.839-.432-.991-.28-.457.483-8.014-1.752-10.762-3.131-4.669-2.337-9.535-7.912-8.722-9.942.187-.533.095-.71-.28-.432-.432.28-.508-.762-.355-3.738.181-3.043.584-4.77 1.625-6.696 1.727-3.261 4.971-7.198 5.784-6.695.33.202.406.095.188-.25-.508-.813 4.871-4.173 9.331-5.773l.016.006c2.947-.99 4.872-1.296 9.637-1.448 3.343-.073 6.594-.029 7.303.098 7.302 1.296 15.37 4.174 19.842 7.1 4.872 3.258 8.42 8.42 8.319 12.334-.037 2.108-1.22 4.963-3.038 7.307-3.856 4.87-15.621 10.65-24.224 11.908-1.422.203-3.655.33-5.784.33zm-80.136-16.677c-7.195.36-15.378-1.817-19.066-6.045.204-.33.112-.432-.216-.22-.737.432-2.84-2.336-4.466-5.986-1.828-3.957-2.438-8.62-1.828-12.64.584-3.652 3.451-9.94 4.264-9.433.33.189.381.08.156-.305-.584-.94 2.95-4.043 6.899-5.882 3.038-1.524 4.061-1.753 8.722-1.829 3.549-.126 5.377 0 5.682.406.204.33.559.483.813.33 1.32-.761 8.42 3.26 11.107 6.292 2.032 2.337 4.062 5.479 3.757 5.987-.171.28-.093.533.173.533.558 0 2.54 5.987 2.946 9.13.584 3.868-2.736 14.16-4.16 12.88-.232-.22-.255-.109-.058.249.737 1.295-5.478 5.476-9.23 6.292-1.117.234-3.246.355-5.58.355zM525.98 697.76c-2.939.031-6.086-.482-9.535-1.524-8.522-2.651-17.864-8.925-23.462-15.8-6.899-8.421-9.535-13.846-11.28-22.198-1.22-6.152-.838-10.561 1.422-14.93 2.032-4.044 3.96-5.718 8.319-7.02l-.042-.016c-1.728-.66 3.855-.94 4.567-.94 2.032.051 6.492 1.295 9.128 2.608 4.265 2.083 14.679 10.681 14.14 11.623-.183.33-.152.432.083.22.585-.534 1.93.66 1.524 1.295-.188.305-.11.407.188.219.66-.407 2.939 1.956 2.337 2.464-.22.22-.047.33.38.22.433-.095.737.123.661.482-.062.356.05.61.254.584.762-.219 2.736 1.22 2.736 2.058 0 .431.203.685.457.533.246-.15 1.626.61 3.144 1.6 1.423 1.092 3.658 2.609 4.77 3.348 1.728 1.22 7.608 8.926 7.506 9.743-.016.141.22.864.508 1.6.305.737.584 3.435.584 5.987.032 4.044-.142 5.075-1.32 7.608-1.93 3.868-3.249 5.367-6.797 7.508-3.038 1.829-6.391 2.738-10.204 2.738zm304.433 20.138c-.559.004-1.118.002-1.727 0-8.522-.032-9.027-.091-14.1-1.753-5.072-1.6-14.882-6.904-14.882-7.912 0-.28-.305-.533-.66-.533-.94 0-4.16-3.348-3.658-3.869.235-.234.141-.33-.187-.234-4.032-3.646-6.812-7.037-9.387-14.81-1.524-4.87-1.728-10.044-.508-13.55 1.016-2.826 4.264-7.807 5.275-7.807.381 0 .711-.204.711-.432 0-.864 5.987-3.61 9.942-4.778 2.133-.584 6.086-1.295 8.824-1.6l-.01.036c5.783-.61 10.67-.584 16.129.044 3.856.431 10.711 2.082 13.106 3.261.711.33 1.626.66 2.032.737 1.22.234 7.608 4.348 9.332 5.86 2.54 2.285 5.377 6.296 5.073 6.903-.188.305-.11.406.172.235.305-.172.94.584 1.422 1.6 6.391 13.155 1.626 29.902-9.84 35.301-5.072 2.337-8.724 3.13-17.081 3.13zM620.847 659.59a22 22 0 0 1-1.524-.057c-3.756-.28-10.457-2.609-10.924-3.826-.158-.406-.56-.685-.915-.685-1.117 0-6.187-6.081-5.682-7.023.186-.33.157-.432-.079-.22-.533.484-3.248-3.781-4.77-7.403-2.133-5.139-2.54-8.822-1.625-13.096 1.625-7.021 6.289-13.064 12.496-16.14l.01-.013c2.634-1.295 4.16-1.6 7.201-1.829 3.856-.188 4.77-.063 7.201.94.711.305 1.626.61 1.93.686 1.22.25 5.276 2.827 6.594 4.26 2.947 3.043 4.161 4.63 6.086 8.72 3.549 7.238 5.174 16.492 3.549 20.46-.33.863-.686 1.955-.813 2.514-.33 1.752-3.244 5.865-5.58 7.719-4.062 3.347-8.522 5.065-13.36 4.996zm105.222 3.043c-7.2.024-12.14-.737-18.775-2.827-4.466-1.448-13.087-5.5-14.415-6.805-.406-.406-.965-.736-1.22-.736-.279 0-.355-.28-.142-.61.234-.38.14-.432-.236-.22-.762.483-6.998-5.717-9.332-9.329-3.658-5.499-5.073-12.304-3.757-17.584.381-1.524.711-2.957.711-3.043.016-.143.66-1.296 1.423-2.738 1.727-2.957 7.404-11.016 8.521-7.313v.01c1.118 3.477 8.824-1.752 12.73-.686 1.626.432 4.466 1.753 6.493 2.827 6.695 3.782 10.955 5.718 13.787 6.152 5.682 1.092 11.087.432 16.24-2.057 1.525-.737 3.145-1.296 3.55-1.296.38.033.558-.078.38-.235-.457-.432 2.939-2.738 3.549-2.286.304.171.38.061.172-.28-.457-.736 3.038-2.608 5.784-3.042 3.548-.584 11.856 3.348 10.782 5.138-.188.28-.077.356.236.174.737-.482 2.947 2.609 2.439 3.478-.214.355-.18.482.055.279.234-.22.889.61 1.422 1.829 4.265 9.33 2.946 19.517-3.655 27.836-1.93 2.464-8.319 7.24-9.129 6.66-.38-.25-.457-.153-.172.33.305.534.186.61-.483.356-.482-.19-.762-.134-.61.118.356.584-6.39 3.348-6.997 2.957-.28-.172-.483-.078-.483.189 0 1.092-7.607 2.286-15.661 2.514-1.118.035-2.236.055-3.249.057zm170.645-155.59c-2.939.06-6.492-.94-12.304-3.261-4.264-1.6-10.226-5.86-12.923-9.23-5.276-6.368-6.797-12.513-5.072-20.199 1.625-7.404 4.97-12.181 10.65-14.904l-.01-.003c4.363-2.083 12.133-1.753 17.538.863 5.276 2.464 10.935 10.308 13.917 19.093 1.524 4.349 1.727 5.718 1.727 10.704.031 5.138-.11 6.01-1.32 8.62-1.83 3.783-4.062 6.01-7.71 7.308a14 14 0 0 1-4.465.94zm-459.891-17.376a13.7 13.7 0 0 1-3.142-.33c-3.145-.737-5.479-1.829-6.492-3.043-.381-.432-.534-.534-.33-.128.249.534-.033.432-.966-.156-1.727-1.092-4.155-4.846-3.85-5.791.14-.407-.015-.762-.356-.94-1.016-.356-.762-7.503.406-10.69 1.118-3.044 5.276-8.72 6.086-8.218.28.173.508.079.508-.218 0-.863 4.364-3.258 7.402-4l.013-.003c3.85-1.092 6.492-.94 9.941.533 3.96 1.6 6.39 3.564 5.682 4.63-.172.28-.045.356.254.138.737-.432 3.038 4.348 3.551 7.404.407 2.514-.406 6.66-1.93 9.733-3.249 6.513-10.305 10.937-16.787 10.996zm397.218-16.98c-2.438-1.22-4.465-2.464-4.465-2.608 0-.22-.483-.534-1.118-.712-.71-.187-.965-.533-.71-.94-2.338-.99-6.595-5.86-8.32-7.807.25-.407.172-.483-.22-.25-.406.25-1.219-.864-2.336-3.259-1.524-3.13-1.727-4.044-1.626-8.011.041-7.092 2.84-12.05 8.621-15.09l-.012-.004c3.757-1.956 6.998-2.609 10.345-2.058 2.84.534 7.913 3.043 7.506 3.782-.172.305-.065.381.254.173.33-.188 1.016.063 1.626.61.559.533 1.422 1.218 1.93 1.523 1.118.686 3.658 3.998 5.987 7.912 3.249 5.5 4.465 12.606 3.048 17.585-.33 1.092-.635 2.26-.635 2.514-.032.235-.356.61-.737.864-.38.235-.685.61-.66.762-3.082 8.384-12.566 8.082-18.478 5.014m-344.278-15.42a26 26 0 0 1-3.444-.22c-3.96-.533-9.233-2.463-8.722-3.129.156-.236-.046-.33-.483-.157-.736.279-4.061-3.26-4.363-4.63a99 99 0 0 0-.635-2.61c-.381-1.523-.305-2.738.249-4.846.914-3.563 3.353-8.01 3.96-7.607.28.187.355.078.172-.235-.508-.762 4.77-6.805 8.723-9.942 4.465-3.563 10.043-6.512 14.922-7.808l.022-.012c9.027-2.514 16.363-.013 19.901 6.805 1.016 2.057 1.22 3.132 1.22 7.308.011 4.777-.089 5.138-1.931 9.024-2.235 4.56-9.738 12.738-11.118 12.195-.457-.173-.66-.094-.508.156.381.61-4.871 3.348-8.62 4.488-3.343.99-6.391 1.524-9.434 1.524zm340.209-42.991c-1.728.012-3.655-.381-5.784-1.092-6.695-2.515-13.523-6.66-15.855-9.64-2.938-3.609-3.548-5.717-3.548-10.812.016-4.044.205-5.065 1.422-7.404 1.626-3.13 4.364-5.718 7.71-7.095l-.01-.003c2.336-.99 7.607-1.6 9.738-1.092 13.33 3.348 21.486 13.787 19.05 24.32-.635 2.739-4.062 9.33-4.77 9.33-.219 0-1.22.686-2.236 1.6-1.524 1.296-3.451 2.058-5.682 2.058zM491.118 399.6a20.6 20.6 0 0 1-3.96-.432c-1.22-.25-4.156-2.083-4.156-2.608 0-.22-.304-.407-.685-.407-1.524 0-4.77-5.865-5.58-10.35-.661-3.348-.305-6.152 1.422-11.044 2.735-7.808 11.087-14.872 19.982-16.942l.01-.01c5.174-1.22 8.925-.94 12.791.762.28.126.458.406.381.61-.063.203.185.249.585.104 1.219-.432 5.173 3.998 6.289 6.878 1.32 3.826.99 11.212-.762 15.431-.33.762-.813 1.448-1.118 1.448-.254 0-.356.218-.173.533.432.737-2.337 4.778-3.038 4.349-.304-.188-.38-.077-.172.28.483.761-3.038 4.259-6.594 6.512-5.174 3.258-10.355 4.993-15.204 4.846zM874.33 273.748c35.189-.051 70.429-1.6 100.82-4.63 7.607-.738 8.722-1.22 10.924-4.489 2.54-3.782 1.016-10.147-2.947-12.487l.01-.01c-2.133-1.295-4.465-1.295-19.649.173-44.26 3.521-87.123 4.85-133.381 3.043-23.564-1.092-34.672-1.752-36.407-2.083-.914-.25-1.829-.25-1.93-.025-.141.22.077 2.083.508 4.349.432 2.083.914 6.152 1.117 8.925l.356 4.994 2.134.01c1.219.015 8.521.356 16.24.762 20.016 1.092 41.114 1.6 62.223 1.6zm-355.803-2.105 5.58-.356.356-5.062c.204-2.738.712-6.805 1.118-8.926.432-2.082.762-3.997.762-3.997 0-.047-.762 0-1.727.123-2.634.356-18.644 1.22-33.952 1.829-17.427.686-56.694.863-79.355.355-17.264-.279-31.962-1.6-47.34-2.738-6.188-.482-12.63-.99-14.354-1.219l-.032.01c-6.39-.863-9.84-.66-11.748.66-2.842 1.956-3.85 3.783-4.155 7.405-.087 2.514-.044 3.825 1.117 5.79 2.032 3.044 5.48 2.957 8.319 3.349 6.086.762 27.702 2.514 31.882 2.608v.012l24.132 1.448-.013-.086c4.062.406 10.904.584 22.855.863 31.355.525 66.557-.304 96.555-2.068m140.378-35.227c.199 0 .99-1.092 1.727-2.464 3.038-5.354 3.856-6.66 4.466-6.512.355.077.482-.062.33-.33-.157-.28.201-1.092.838-1.956 1.422-1.956 2.337-2.827 1.727-1.829-.28.534-.219.61.188.356.33-.204.482-.61.304-.864-.304-.482 8.319-9.33 9.13-9.33.222 0 1.117-.609 1.93-1.295 2.032-1.752 8.521-5.572 12.74-7.503 8.217-3.782 19.985-6.512 30.27-7.094 4.363-.28 6.593-.126 14.962.99 1.321.189 2.337.08 2.54-.235.173-.304.05-.584-.279-.584-.33 0-.483-.355-.305-.863.178-.432.114-.686-.12-.585-.236.147-.94-.61-1.524-1.6-1.785-2.618-4.092-5.089-5.484-7.62.187-.305.08-.38-.233-.187-3.304-1.596-6.326-4.586-9.236-6.589-12.964-8.72-30.067-14.28-49.593-16.263l.022.01c-1.118-.117-7.81-.144-14.882-.06-13.8-.716-22.98 2.846-34.755 4.069-.304-.173-.355-.105-.14.13-7.897 3.11-16.784 6.828-24.686 11.613-2.84 1.829-6.492 4.63-9.941 8.011-2.134 2.058-8.014 9.744-7.71 10.148.126.124 2.44 0 5.175-.305 7.912-.864 17.742.204 28.27 3.043 2.84.736 4.971 1.6 4.77 1.828-.157.236.094.305.56.121 2.031-.762 22.275 10.93 21.384 12.383-.173.28-.094.432.172.355.584-.188 4.364 3.262 7.506 6.66 2.54 2.827 7.2 9.635 8.925 13.097.33.66.762 1.092.94 1.092zm126.811-2.514c2.235-.016 6.594-.407 15.166-1.093 52.058-4.559 93.476-10.452 121.89-17.282 7.1-1.752 10.227-2.827 12.101-4.488 1.423-1.295 2.736-4.488 2.736-6.66 0-3.261-2.634-7.02-5.784-8.112-1.524-.585-5.478-.356-8.115.431-46.012 11.068-92.017 15.987-137.945 19.652-8.116.66-14.75 1.296-14.75 1.524 0 .172.965 1.296 2.134 2.609 3.243 3.564 7.404 8.926 7.404 9.743 0 .356.201.534.431.407.432-.28.66.61.458 1.6-.063.28.077.33.304.111.235-.235.686.11 1.016.737.381.686.56 1.092 2.84.99zm-253.133-.33c2.032-.012 2.54-.25 2.54-.686 0-1.093 5.58-8.72 9.535-12.934 1.32-1.524 2.438-2.738 2.438-2.827 0-.11-1.727-.28-3.756-.356-11.189-.431-48.255-4.043-73.219-7.239-25.694-3.26-37.775-5.138-62.385-10.233-2.235-.432-8.722-2.26-11.483-3.132v-.01c-2.134-.686-6.188-.584-7.706.235-1.626.863-3.851 3.129-4.77 4.846-1.525 3.043.304 8.925 3.352 10.69 5.682 3.262 38.09 9.635 72.265 14.232 8.926 1.22 38.486 4.56 45.678 5.281 16.383 1.524 24.01 2.083 27.43 2.083z" style="fill:#000;stroke-width:.522023;filter:url(#d)"/></svg>