<svg xmlns="http://www.w3.org/2000/svg" width="498.898" height="544.252" viewBox="0 0 1320 1440"><defs><linearGradient id="b" x1="-1430.769" x2="-1409.955" y1="-77.47" y2="-77.47" gradientUnits="userSpaceOnUse" spreadMethod="reflect"><stop offset="0" stop-color="#ffd285"/><stop offset=".232" stop-color="#ffcd79"/><stop offset=".616" stop-color="#ffca73"/><stop offset=".808" stop-color="#ffd386"/><stop offset="1" stop-color="#ffc86e"/></linearGradient><linearGradient id="c" x1="-904.556" x2="-904.556" y1="-406.052" y2="184.159" gradientUnits="userSpaceOnUse"><stop offset="0"/><stop offset=".604" stop-color="#fff"/></linearGradient><filter id="a" width="1.023" height="1.02" x="-.012" y="-.01" style="color-interpolation-filters:sRGB"><feGaussianBlur stdDeviation="2.441"/></filter><filter id="d" width="1.066" height="1.066" x="-.033" y="-.033" style="color-interpolation-filters:sRGB"><feGaussianBlur in="SourceGraphic" result="result0" stdDeviation="6"/><feDiffuseLighting lighting-color="#FFF" result="result5" surfaceScale="4"><feDistantLight azimuth="235" elevation="45"/></feDiffuseLighting><feComposite in="result5" in2="SourceGraphic" k1="1.4" operator="arithmetic" result="fbSourceGraphic"/><feGaussianBlur in="fbSourceGraphic" result="result0" stdDeviation="6"/><feSpecularLighting in="result0" lighting-color="#FFF" result="result1" specularExponent="25" surfaceScale="4"><feDistantLight azimuth="280" elevation="45"/></feSpecularLighting><feComposite in="fbSourceGraphic" in2="result1" k2="1" k3="1" operator="arithmetic" result="result4"/><feComposite in="result4" in2="SourceGraphic" operator="in" result="result2"/></filter></defs><path d="m-2699.281 228.709 26.181 28.949 190.592 72.165 210.264-77.468 75.234-461.629-45.894-49.39z" filter="url(#a)" opacity=".5" transform="matrix(-2.0051 0 0 2.0051 -4364.078 706.823)"/><path fill="url(#b)" d="m-1220.221-390.88-194.139 75.893-8.809 28.459-70.567 506.333 10.349 7.986h525.404l10.348-7.986-70.567-506.333-8.809-28.459z" transform="rotate(180 -893.82 266.77)scale(2.0051)"/><path fill="url(#c)" d="m-904.556-434.511-194.139 75.893-8.809 31.887-70.567 502.905 10.349 7.986h525.404l10.349-7.986-70.567-502.905-8.809-31.887z" opacity=".25" style="mix-blend-mode:overlay" transform="rotate(180 -577.344 223.027)scale(2.0051)"/><path d="m133.204 97.854.043-21.064-20.75 16.013zm932.803 1010.214-17.664-13.248-389.274 149.021v16.402z" opacity=".4"/><path d="m253.993 1108.068 17.664-13.248 387.412 149.021v16.402z" opacity=".6"/><path d="m253.993 1108.068 17.664-13.248L133.204 97.854l-20.707-5.052z" opacity=".6"/><g fill="#fff"><path d="m1066.007 1108.068-17.664-13.248 138.453-996.966 20.707-5.052z" opacity=".3"/><path d="m1186.796 97.854-.043-21.064 20.75 16.013z" opacity=".8"/><path d="M1186.796 97.854H133.204l.043-21.064h1053.506z" opacity=".3"/></g><path d="m271.655 1165.416-17.663-57.348 405.076 152.176 406.938-152.176-17.663 57.348-389.275 152.176z" opacity=".7"/><path d="m659.996 1049.122 57.074-212.974s-36.651 4.42-56.185 4.429c-19.598.011-58.157-4.429-58.157-4.429zM353.66 922.318l190.95-110.241s-29.044-22.793-42.86-36.598c-13.865-13.85-37.986-44.255-37.986-44.255zm612.546-.03L856.108 731.196S831.98 761.6 818.116 775.45c-13.816 13.805-42.86 36.598-42.86 36.598zM659.899 814.033a198.1 198.1 0 0 0 198.096-198.096A198.1 198.1 0 0 0 659.899 417.84a198.1 198.1 0 0 0-198.102 198.096 198.1 198.1 0 0 0 198.102 198.096Zm91.388-81.885c-.05.003-.103-.002-.155 0-.11.002-.223-.01-.338-.017l-181.211.017c-3.417.116-5.867-3.272-4.703-6.48l8.226-25.31a4.79 4.79 0 0 1 4.697-2.938h65.315v-61.203h-46.486c-2.199.039-4.124-1.381-4.702-3.504l-8.218-21.783c-1.184-3.236 1.269-6.588 4.697-6.464h54.716v-70.013h-93.562a4.776 4.776 0 0 1-4.702-3.526l-7.634-25.31a4.796 4.796 0 0 1 4.107-5.867H777.87c3.09 0 5.378 2.865 4.696 5.867l-8.223 25.31a4.79 4.79 0 0 1-4.113 3.526h-92.387v70.013h55.91c3.428-.125 5.877 3.273 4.702 6.481l-8.226 21.766c-.564 2.086-2.538 3.55-4.72 3.521h-47.644v61.186h64.707a4.81 4.81 0 0 1 4.72 2.954l8.223 25.293c1.1 3.053-1.043 6.287-4.226 6.481zm128.893-59.069 212.974-57.073-212.974-57.269s4.44 38.56 4.429 58.158c-.012 19.533-4.43 56.184-4.43 56.184zm-440.425 0s-4.42-36.654-4.428-56.184c-.012-19.599 4.428-58.158 4.428-58.158l-212.974 57.269Zm416.278-172.43 110.247-190.95L775.187 419.8s30.404 24.123 44.254 37.986c13.805 13.816 36.593 42.86 36.592 42.86zm-392.2-.029c-.001 0 22.786-29.045 36.592-42.86 13.85-13.865 44.254-37.987 44.254-37.987L353.592 309.67ZM717.07 395.724l-57.074-212.975-57.268 212.975s38.56-4.44 58.157-4.43c19.534.009 56.185 4.43 56.185 4.43" style="fill:#020202;fill-opacity:1;stroke:none;stroke-width:20.0607;stroke-linecap:round;stroke-linejoin:round;stroke-dasharray:none;paint-order:stroke fill markers;filter:url(#d)"/></svg>