<svg xmlns="http://www.w3.org/2000/svg" width="498.898" height="544.252" viewBox="0 0 1320 1440"><defs><linearGradient id="b" x1="-1430.769" x2="-1409.955" y1="-77.47" y2="-77.47" gradientUnits="userSpaceOnUse" spreadMethod="reflect"><stop offset="0" stop-color="#ffd285"/><stop offset=".232" stop-color="#ffcd79"/><stop offset=".616" stop-color="#ffca73"/><stop offset=".808" stop-color="#ffd386"/><stop offset="1" stop-color="#ffc86e"/></linearGradient><linearGradient id="c" x1="-904.556" x2="-904.556" y1="-406.052" y2="184.159" gradientUnits="userSpaceOnUse"><stop offset="0"/><stop offset=".596" stop-color="#fff"/></linearGradient><filter id="a" width="1.024" height="1.021" x="-.012" y="-.01" style="color-interpolation-filters:sRGB"><feGaussianBlur stdDeviation="2.441"/></filter><filter id="d" width="1.074" height="1.074" x="-.037" y="-.037" style="color-interpolation-filters:sRGB"><feGaussianBlur in="SourceGraphic" result="result0" stdDeviation="6"/><feDiffuseLighting lighting-color="#FFF" result="result5" surfaceScale="4"><feDistantLight azimuth="235" elevation="45"/></feDiffuseLighting><feComposite in="result5" in2="SourceGraphic" k1="1.4" operator="arithmetic" result="fbSourceGraphic"/><feGaussianBlur in="fbSourceGraphic" result="result0" stdDeviation="6"/><feSpecularLighting in="result0" lighting-color="#FFF" result="result1" specularExponent="25" surfaceScale="4"><feDistantLight azimuth="280" elevation="45"/></feSpecularLighting><feComposite in="fbSourceGraphic" in2="result1" k2="1" k3="1" operator="arithmetic" result="result4"/><feComposite in="result4" in2="SourceGraphic" operator="in" result="result2"/></filter></defs><path d="m-2681.73 217.274 26.181 28.949 172.576 56.161 193.177-61.463 89.581-450.194-45.894-49.39z" filter="url(#a)" opacity=".5" transform="matrix(-2.0051 0 0 2.0051 -4364.078 706.823)"/><path fill="url(#b)" d="m-1220.686-363.581-176.123 60.03-8.809 28.459-84.914 494.898 10.349 7.986h518.995l10.348-7.986-84.914-495.039-8.809-28.459z" transform="rotate(180 -893.82 266.77)scale(2.0051)"/><path fill="url(#c)" d="m-905.02-407.213-176.123 59.888-8.809 26.778-84.914 496.72 10.349 7.986h518.995l10.349-7.986-84.914-494.898-8.809-28.601z" opacity=".25" style="mix-blend-mode:overlay" transform="rotate(180 -577.344 223.027)scale(2.0051)"/><path d="m139.629 97.854.043-21.064-20.75 16.013zm891.185 987.285-17.664-13.248L660 1188.821v16.402z" opacity=".4"/><path d="m289.186 1085.139 17.664-13.248L660 1188.821v16.402z" opacity=".6"/><path d="m289.186 1085.139 17.664-13.248L139.629 97.854l-20.707-5.052z" opacity=".6"/><g fill="#fff"><path d="m1030.814 1085.139-17.664-13.248 167.221-974.037 20.707-5.052z" opacity=".3"/><path d="m1180.371 97.854-.043-21.064 20.75 16.013z" opacity=".8"/><path d="M1180.371 97.854H139.629l.043-21.064h1040.656z" opacity=".3"/></g><path d="m306.849 1142.487-17.663-57.348L660 1205.223l370.814-120.084-17.663 57.348L660 1262.571z" opacity=".7"/><path d="m659.992 983.628 51.423-191.89s-33.022 3.983-50.622 3.99c-17.658.01-52.4-3.99-52.4-3.99zM383.983 869.377 556.03 770.05s-26.17-20.536-38.618-32.975c-12.492-12.48-34.225-39.874-34.225-39.874zm551.905-.026-99.199-172.176s-21.74 27.395-34.23 39.874c-12.449 12.438-38.617 32.975-38.618 32.975zm-275.984-97.54A178.49 178.49 0 0 0 838.39 593.327a178.49 178.49 0 0 0-178.485-178.485 178.49 178.49 0 0 0-178.49 178.485 178.49 178.49 0 0 0 178.49 178.486zm82.342-73.778c-.046.003-.094-.002-.14 0-.1.002-.2-.01-.305-.015l-163.271.015c-3.079.104-5.286-2.949-4.237-5.84l7.412-22.803a4.32 4.32 0 0 1 4.231-2.647h58.85v-55.144H602.9c-1.98.035-3.716-1.245-4.236-3.157l-7.404-19.627c-1.067-2.916 1.143-5.936 4.231-5.824h49.3V519.91h-84.3a4.304 4.304 0 0 1-4.237-3.178l-6.878-22.804a4.32 4.32 0 0 1 3.7-5.286h213.12c2.783 0 4.846 2.58 4.231 5.286l-7.41 22.804a4.31 4.31 0 0 1-3.705 3.178h-83.24v63.081h50.374c3.089-.113 5.296 2.949 4.237 5.84l-7.412 19.61c-.508 1.88-2.286 3.199-4.252 3.173h-42.928v55.129h58.302a4.34 4.34 0 0 1 4.251 2.662l7.41 22.788c.99 2.751-.94 5.665-3.808 5.84m116.132-53.221 191.89-51.423-191.89-51.6s4 34.743 3.99 52.4c-.01 17.6-3.99 50.623-3.99 50.623m-396.823 0s-3.983-33.025-3.99-50.623c-.01-17.658 3.99-52.4 3.99-52.4l-191.89 51.6zm375.067-155.36 99.333-172.047-172.176 99.204s27.394 21.734 39.874 34.225c12.438 12.448 32.97 38.617 32.97 38.618zm-353.373-.026s20.53-26.17 32.97-38.618c12.478-12.492 39.873-34.225 39.873-34.225l-172.17-99.204zm228.166-94.511-51.423-191.89-51.599 191.89s34.743-4 52.4-3.99c17.6.01 50.622 3.99 50.622 3.99" style="fill:#9b0000;fill-opacity:1;stroke:none;stroke-width:18.0747;stroke-linecap:round;stroke-linejoin:round;stroke-dasharray:none;paint-order:stroke fill markers;filter:url(#d)"/></svg>