<svg xmlns="http://www.w3.org/2000/svg" width="498.898" height="544.252" viewBox="0 0 1320 1440"><defs><linearGradient id="b" x1="-1430.769" x2="-1409.955" y1="-77.47" y2="-77.47" gradientUnits="userSpaceOnUse" spreadMethod="reflect"><stop offset="0" stop-color="#ffd285"/><stop offset=".232" stop-color="#ffcd79"/><stop offset=".616" stop-color="#ffca73"/><stop offset=".808" stop-color="#ffd386"/><stop offset="1" stop-color="#ffc86e"/></linearGradient><linearGradient id="c" x1="-904.556" x2="-904.556" y1="-406.052" y2="184.159" gradientUnits="userSpaceOnUse"><stop offset="0"/><stop offset=".596" stop-color="#fff"/></linearGradient><filter id="a" width="1.024" height="1.021" x="-.012" y="-.01" style="color-interpolation-filters:sRGB"><feGaussianBlur stdDeviation="2.441"/></filter><filter id="d" width="1.094" height="1.078" x="-.047" y="-.039" style="color-interpolation-filters:sRGB"><feGaussianBlur in="SourceGraphic" result="result0" stdDeviation="6"/><feDiffuseLighting lighting-color="#FFF" result="result5" surfaceScale="4"><feDistantLight azimuth="235" elevation="45"/></feDiffuseLighting><feComposite in="result5" in2="SourceGraphic" k1="1.4" operator="arithmetic" result="fbSourceGraphic"/><feGaussianBlur in="fbSourceGraphic" result="result0" stdDeviation="6"/><feSpecularLighting in="result0" lighting-color="#FFF" result="result1" specularExponent="25" surfaceScale="4"><feDistantLight azimuth="280" elevation="45"/></feSpecularLighting><feComposite in="fbSourceGraphic" in2="result1" k2="1" k3="1" operator="arithmetic" result="result4"/><feComposite in="result4" in2="SourceGraphic" operator="in" result="result2"/></filter></defs><path d="m-2681.73 217.274 26.181 28.949 172.576 56.161 193.177-61.463 89.581-450.194-45.894-49.39z" filter="url(#a)" opacity=".5" transform="matrix(-2.0051 0 0 2.0051 -4364.078 706.823)"/><path fill="url(#b)" d="m-1220.686-363.581-176.123 60.03-8.809 28.459-84.914 494.898 10.349 7.986h518.995l10.348-7.986-84.914-495.039-8.809-28.459z" transform="rotate(180 -893.82 266.77)scale(2.0051)"/><path fill="url(#c)" d="m-905.02-407.213-176.123 59.888-8.809 26.778-84.914 496.72 10.349 7.986h518.995l10.349-7.986-84.914-494.898-8.809-28.601z" opacity=".25" style="mix-blend-mode:overlay" transform="rotate(180 -577.344 223.027)scale(2.0051)"/><path d="m139.629 97.854.043-21.064-20.75 16.013zm891.185 987.285-17.664-13.248L660 1188.821v16.402z" opacity=".4"/><path d="m289.186 1085.139 17.664-13.248L660 1188.821v16.402z" opacity=".6"/><path d="m289.186 1085.139 17.664-13.248L139.629 97.854l-20.707-5.052z" opacity=".6"/><g fill="#fff"><path d="m1030.814 1085.139-17.664-13.248 167.221-974.037 20.707-5.052z" opacity=".3"/><path d="m1180.371 97.854-.043-21.064 20.75 16.013z" opacity=".8"/><path d="M1180.371 97.854H139.629l.043-21.064h1040.656z" opacity=".3"/></g><path d="m306.849 1142.487-17.663-57.348L660 1205.223l370.814-120.084-17.663 57.348L660 1262.571z" opacity=".7"/><path d="M354.508 904.206v-.018c206.928-22.713 403.428-22.713 610.952-.381 1.423.148 1.118-2.058.813-3.262-11.372-45.994-15.408-51.676-47.22-85.532l-517.952.148c-33.088 32.466-35.931 39.026-47.453 85.291-.33 1.296-.533 3.915.813 3.783zM919.713 791.52V397.844h-32.745c-11.908 114.56-109.11 204.294-226.75 204.294-117.638 0-214.816-89.734-226.715-204.294H400.76v393.675ZM660.216 578.457c112.841.014 204.325-91.454 204.332-204.295.014-112.855-91.477-204.346-204.332-204.331-112.84.01-204.31 91.487-204.295 204.331.01 112.826 91.467 204.288 204.295 204.295m18.999-71.32V419.95l61.614 61.665a134.33 134.33 0 0 1-61.614 25.52zm-37.97 0c-22.356-3.172-43.546-11.973-61.613-25.519l61.614-61.664zm126.396-52.4-61.644-61.642h87.167c-3.142 22.362-11.961 43.57-25.523 61.643zm-214.88 0a134.3 134.3 0 0 1-25.523-61.642h87.187zm364.717-79.957c13.117-.066 25.908-.186 25.908-.186l19.393-33.358V303.55h-87.135c10.497 18.166 15.519 47.457 13.947 71.044 1.32.28 14.76.25 27.875.188zm-514.479 0c13.117.065 26.567.075 27.876-.186h.018c-1.524-23.592 3.434-52.87 13.97-71.044h-87.147v37.687l19.378 33.358s12.791.12 25.906.186zm390.164-19.553h-87.166l61.613-61.65a134.4 134.4 0 0 1 25.563 61.65zm-178.756 0H527.24c3.248-22.38 12.001-43.585 25.573-61.65zm64.809-26.875v-87.13c22.337 3.26 43.507 11.978 61.553 25.518zm-37.968 0-61.614-61.614a134.3 134.3 0 0 1 61.614-25.52z" style="opacity:.99;fill:#000;fill-opacity:1;stroke:none;stroke-width:15.3843px;stroke-linecap:butt;stroke-linejoin:round;stroke-opacity:1;filter:url(#d)"/></svg>