<svg xmlns="http://www.w3.org/2000/svg" width="498.898" height="544.252" viewBox="0 0 1320 1440"><defs><linearGradient id="b" x1="-1430.769" x2="-1409.955" y1="-77.47" y2="-77.47" gradientUnits="userSpaceOnUse" spreadMethod="reflect"><stop offset="0" stop-color="#ffd285"/><stop offset=".232" stop-color="#ffcd79"/><stop offset=".616" stop-color="#ffca73"/><stop offset=".808" stop-color="#ffd386"/><stop offset="1" stop-color="#ffc86e"/></linearGradient><linearGradient id="c" x1="-905.02" x2="-904.556" y1="-384.47" y2="184.159" gradientUnits="userSpaceOnUse"><stop offset="0"/><stop offset=".603" stop-color="#fff"/></linearGradient><filter id="a" width="1.026" height="1.022" x="-.013" y="-.011" style="color-interpolation-filters:sRGB"><feGaussianBlur stdDeviation="2.441"/></filter><filter id="d" width="1.137" height="1.062" x="-.068" y="-.031" style="color-interpolation-filters:sRGB"><feGaussianBlur in="SourceGraphic" result="result0" stdDeviation="6"/><feDiffuseLighting lighting-color="#FFF" result="result5" surfaceScale="4"><feDistantLight azimuth="235" elevation="45"/></feDiffuseLighting><feComposite in="result5" in2="SourceGraphic" k1="1.4" operator="arithmetic" result="fbSourceGraphic"/><feGaussianBlur in="fbSourceGraphic" result="result0" stdDeviation="6"/><feSpecularLighting in="result0" lighting-color="#FFF" result="result1" specularExponent="25" surfaceScale="4"><feDistantLight azimuth="280" elevation="45"/></feSpecularLighting><feComposite in="fbSourceGraphic" in2="result1" k2="1" k3="1" operator="arithmetic" result="result4"/><feComposite in="result4" in2="SourceGraphic" operator="in" result="result2"/></filter></defs><path d="m-2659.569 204.596 26.181 28.949 150.416 46.096 171.017-51.398 98.911-437.515-45.894-49.39z" filter="url(#a)" opacity=".5" transform="matrix(-2.0051 0 0 2.0051 -4364.078 706.823)"/><path fill="url(#b)" d="m-1220.686-340.838-153.963 49.823-8.809 28.459-94.245 482.361 10.349 7.986h493.336l10.348-7.986-94.244-482.361-8.809-28.459z" transform="rotate(180 -893.82 266.77)scale(2.0051)"/><path fill="url(#c)" d="m-905.02-384.47-153.963 49.823-8.809 26.778-94.245 484.042 10.349 7.986h493.336l10.349-7.986-94.244-482.219-8.809-28.601z" opacity=".25" style="mix-blend-mode:overlay" transform="rotate(180 -577.344 223.027)scale(2.0051)"/><path d="m165.355 97.854.043-21.064-20.75 16.013zm821.025 961.863-17.664-13.248L660 1143.218v16.402z" opacity=".4"/><path d="m333.62 1059.717 17.664-13.248L660 1143.218v16.402z" opacity=".6"/><path d="m333.62 1059.717 17.664-13.248L165.355 97.854l-20.707-5.052z" opacity=".6"/><g fill="#fff"><path d="m986.38 1059.717-17.664-13.248 185.93-948.615 20.707-5.052z" opacity=".3"/><path d="m1154.646 97.854-.043-21.064 20.75 16.013z" opacity=".8"/><path d="M1154.646 97.854H165.355l.043-21.064h989.205z" opacity=".3"/></g><path d="m351.283 1117.065-17.663-57.348L660 1159.62l326.38-99.903-17.663 57.348L660 1216.968z" opacity=".7"/><path d="M665.266 1011.257h-1.445c8.433-2.169 16.906-8.474 26.143-17.71 39.435-39.435 55.378-108.708 24.456-157.701-1.325-12.088.562-22.489 5.743-31.203 14.898-25.18 39.395-22.61 63.77-28.673 13.494-3.374 25.501-8.233 36.786-16.546 8.192-6.023 15.702-13.453 22.328-22.649 73.81-102.082-13.132-183.643-113.688-196.173-29.356-3.654-60.64-4.658-89.352-6.706-29.516-2.128-57.788-3.092-75.417-14.859-24.376-16.264-23.734-47.426-.763-62.124 20.56-13.172 55.94-22.53 94.974-31.525l136.578-36.584c25.982-6.144 45.098-17.228 56.824-33.692 21.766-30.601 12.489-66.784-18.955-86.501-50.76-31.806-122.603-3.815-166.857-55.298-16.987-19.718-22.288-46.865-16.224-81.12q-8.614 7.891-11.927 25.42c-2.33 12.208-3.092 23.011-2.088 32.85 5.421 54.816 56.984 74.734 102.082 87.063 9.758 2.69 19.557 6.144 29.717 12.53 23.974 15.059 26.464 34.094-1.647 45.418-62.807 25.3-248.499 26.665-293.918 83.088-31.604 39.314-28.793 97.785-3.252 139.308 32.287 52.447 89.874 52.286 146.738 61.924 37.026 6.265 74.092 11.204 110.957 18.513 12.128 2.731 18.794 11.887 19.918 21.605 3.253 28.151-26.785 26.384-45.419 32.167-19.316 5.984-35.58 15.501-49.113 26.464-35.018 28.272-54.294 77.747-52.045 122.403-27.629 51.242-9.357 114.009 29.556 155.894 7.47 8.032 14.377 12.69 21.124 14.457h-.241c-.322 14.939-6.747 31.082-14.297 44.575 8.835-4.658 16.706-10.2 22.65-17.428 5.34 7.911 12.408 14.176 20.922 19.155-6.466-15.14-12.168-32.89-14.618-46.342m-41.563-59.153c7.067 0 12.85-5.783 12.85-12.85.04-7.109-5.742-12.892-12.85-12.852-7.068 0-12.851 5.783-12.851 12.851s5.783 12.85 12.85 12.85zm68.75 0c7.149 0 12.891-5.743 12.851-12.85 0-7.069-5.783-12.852-12.85-12.852-7.109-.04-12.891 5.743-12.851 12.851-.04 7.108 5.702 12.85 12.85 12.85z" class="st0" style="clip-rule:evenodd;fill-rule:evenodd;stroke-width:5.67923;filter:url(#d)"/></svg>