<?xml version="1.0" encoding="UTF-8" standalone="no"?>
<!-- Created with Inkscape (http://www.inkscape.org/) -->

<svg
   version="1.1"
   id="svg1"
   width="1280"
   height="1280"
   viewBox="0 0 1280 1280"
   xmlns="http://www.w3.org/2000/svg"
   xmlns:svg="http://www.w3.org/2000/svg">
  <defs
     id="defs1" />
  <g
     id="g1">
    <g
       id="g2">
      <path
         style="fill:#6e7373"
         d="m 560,1151.3949 c -4.675,-0.1774 -23.8,-0.8093 -42.5,-1.4042 -97.19928,-3.092 -166.77119,-8.8035 -240.5,-19.7438 l -5.5,-0.8161 0.27085,-6.9654 c 0.42043,-10.812 6.03295,-52.4085 9.17285,-67.9834 6.50683,-32.276 21.54644,-52.0272 45.5563,-59.82817 C 336.17542,991.51022 354.71022,989 368.24634,989 h 13.04759 l -8.90534,-9.25 C 348.77185,955.21926 332.94311,933.45584 321.5142,909.80127 309.35979,884.64514 306.45532,872.11307 306.61151,845.5 c 0.15713,-26.77092 3.014,-40.66137 13.42914,-65.29402 12.20398,-28.86342 29.76204,-55.35757 78.23874,-118.05795 40.93231,-52.94238 54.68035,-73.20289 70.45128,-103.82415 15.76886,-30.61724 23.90886,-51.37844 31.76214,-81.00985 3.03402,-11.44771 8.21432,-30.92352 11.51179,-43.27957 3.29747,-12.35605 5.9954,-22.74694 5.9954,-23.09087 0,-0.34393 -2.48232,-1.18085 -5.51628,-1.85982 -12.97515,-2.90371 -24.98908,-11.43781 -30.32043,-21.53813 -2.3603,-4.47161 -2.65704,-6.12642 -2.6084,-14.54564 0.0454,-7.85645 0.4972,-10.55213 2.61147,-15.58147 9.2687,-22.04803 32.1224,-43.64707 68.5832,-64.81799 4.53726,-2.63456 8.50882,-5.20959 8.82569,-5.7223 0.31687,-0.5127 -1.74904,-3.4763 -4.59092,-6.58576 C 540.28157,264.20531 530.11729,243.00481 526.54424,220.97253 515.27478,151.48246 571.2182,85.043284 641,85.043284 c 42.97736,0 83.18389,25.626276 103.48327,65.956716 21.44359,42.60374 14.44995,94.36959 -17.4676,129.29248 -2.84188,3.10946 -4.90779,6.07306 -4.59092,6.58576 0.31687,0.51271 4.28843,3.08774 8.82569,5.7223 36.48205,21.18327 59.43215,42.88197 68.55613,64.81799 2.03275,4.88716 2.5456,7.84894 2.61147,15.08147 0.0722,7.92363 -0.25222,9.68052 -2.71228,14.69009 C 797.02715,392.64473 787.21653,403 784.72741,403 c -0.61128,0 -4.15212,1.2375 -7.86852,2.75 -5.61347,2.28457 -6.68445,3.0885 -6.32786,4.75 0.23608,1.1 2.26711,13.7 4.51341,28 4.286,27.28482 4.45388,32.66794 1.2575,40.32146 -3.04245,7.28495 -13.58242,21.13583 -35.6923,46.90428 -15.03632,17.52442 -22.89588,27.47798 -23.68869,30 -0.65255,2.07584 -1.39646,11.0137 -1.65312,19.86189 -0.56016,19.31085 0.41736,24.25699 7.69039,38.91237 5.84607,11.78 12.25452,20.12769 18.75973,24.43657 5.17872,3.43024 12.91932,6.06343 17.82423,6.06343 3.45498,0 2.35671,1.58413 13.91602,-20.07234 2.22299,-4.16478 8.3168,-15.51512 13.5418,-25.22296 l 9.5,-17.65062 6,0.013 6,0.013 40.43575,50.98261 c 64.69321,81.56716 86.37106,113.09273 100.69436,146.43738 10.83409,25.22178 13.63725,38.9601 13.77264,67.5 0.0921,19.40775 -0.0523,21.07357 -2.70947,31.26503 -8.97452,34.42123 -29.23364,66.8186 -64.08715,102.48497 l -8.06197,8.25 h 17.62855 c 18.25568,0 35.34493,2.08559 46.32729,5.65383 13.89577,4.51482 24.44245,12.66847 31.93408,24.68827 11.81186,18.9514 14.08598,28.7205 22.96622,98.6579 0.7333,5.775 1.0557,10.7761 0.7165,11.1136 -0.9437,0.9387 -60.4825,8.5789 -88.6168,11.3716 -41.99583,4.1686 -83.11926,6.7372 -153.5,9.5878 -24.67418,0.9994 -187.04448,2.0413 -206,1.3219 z"
         id="path6" />
      <path
         style="fill:#4d5252"
         d="m 560,1151.3949 c -4.675,-0.1774 -23.8,-0.8093 -42.5,-1.4042 -97.19928,-3.092 -166.77119,-8.8035 -240.5,-19.7438 l -5.5,-0.8161 0.27085,-6.9654 c 0.42043,-10.812 6.03295,-52.4085 9.17285,-67.9834 6.50683,-32.276 21.54644,-52.0272 45.5563,-59.82817 C 336.17542,991.51022 354.71022,989 368.24634,989 h 13.04759 l -8.90534,-9.25 C 348.77185,955.21926 332.94311,933.45584 321.5142,909.80127 309.35979,884.64514 306.45532,872.11307 306.61151,845.5 c 0.15713,-26.77092 3.014,-40.66137 13.42914,-65.29402 12.20398,-28.86342 29.76204,-55.35757 78.23874,-118.05795 40.93231,-52.94238 54.68035,-73.20289 70.45128,-103.82415 15.76886,-30.61724 23.90886,-51.37844 31.76214,-81.00985 3.03402,-11.44771 8.21432,-30.92352 11.51179,-43.27957 3.29747,-12.35605 5.9954,-22.74694 5.9954,-23.09087 0,-0.34393 -2.48232,-1.18085 -5.51628,-1.85982 -12.97515,-2.90371 -24.98908,-11.43781 -30.32043,-21.53813 -2.3603,-4.47161 -2.65704,-6.12642 -2.6084,-14.54564 0.0454,-7.85645 0.4972,-10.55213 2.61147,-15.58147 9.2687,-22.04803 32.1224,-43.64707 68.5832,-64.81799 4.53726,-2.63456 8.50882,-5.20959 8.82569,-5.7223 0.31687,-0.5127 -1.74904,-3.4763 -4.59092,-6.58576 C 540.28157,264.20531 530.11729,243.00481 526.54424,220.97253 515.27478,151.48246 571.2182,85.043284 641,85.043284 c 42.97736,0 83.18389,25.626276 103.48327,65.956716 21.44359,42.60374 14.44995,94.36959 -17.4676,129.29248 -2.84188,3.10946 -4.90779,6.07306 -4.59092,6.58576 0.31687,0.51271 4.28843,3.08774 8.82569,5.7223 36.48205,21.18327 59.43215,42.88197 68.55613,64.81799 2.03275,4.88716 2.5456,7.84894 2.61147,15.08147 0.0722,7.92363 -0.25222,9.68052 -2.71228,14.69009 C 797.02715,392.64473 787.21653,403 784.72741,403 c -0.61128,0 -4.15212,1.2375 -7.86852,2.75 -5.61347,2.28457 -6.68445,3.0885 -6.32786,4.75 0.23608,1.1 2.26711,13.7 4.51341,28 4.286,27.28482 4.45388,32.66794 1.2575,40.32146 -3.04245,7.28495 -13.58242,21.13583 -35.6923,46.90428 -15.03632,17.52442 -22.89588,27.47798 -23.68869,30 -0.65255,2.07584 -1.39646,11.0137 -1.65312,19.86189 -0.56016,19.31085 0.41736,24.25699 7.69039,38.91237 5.84607,11.78 12.25452,20.12769 18.75973,24.43657 5.17872,3.43024 12.91932,6.06343 17.82423,6.06343 3.45498,0 2.35671,1.58413 13.91602,-20.07234 2.22299,-4.16478 8.3168,-15.51512 13.5418,-25.22296 l 9.5,-17.65062 6,0.013 6,0.013 40.43575,50.98261 c 64.69321,81.56716 86.37106,113.09273 100.69436,146.43738 10.83409,25.22178 13.63725,38.9601 13.77264,67.5 0.0921,19.40775 -0.0523,21.07357 -2.70947,31.26503 -8.97452,34.42123 -29.23364,66.8186 -64.08715,102.48497 l -8.06197,8.25 h 17.62855 c 18.25568,0 35.34493,2.08559 46.32729,5.65383 13.89577,4.51482 24.44245,12.66847 31.93408,24.68827 11.81186,18.9514 14.08598,28.7205 22.96622,98.6579 0.7333,5.775 1.0557,10.7761 0.7165,11.1136 -0.9437,0.9387 -60.4825,8.5789 -88.6168,11.3716 -41.99583,4.1686 -83.11926,6.7372 -153.5,9.5878 -24.67418,0.9994 -187.04448,2.0413 -206,1.3219 z M 326.9581,1097.874 c 3.67297,-25.1196 12.99673,-47.1571 24.32479,-57.4938 7.1717,-6.544 12.96726,-9.5303 28.8445,-14.863 7.35493,-2.4703 12.92261,-4.5012 12.37261,-4.513 -0.55,-0.012 -6.49087,-0.6691 -13.20193,-1.4605 -11.36141,-1.3397 -13.08352,-1.304 -25,0.5183 -22.28775,3.4084 -27.01706,5.5102 -32.92679,14.6334 -4.99943,7.7179 -8.60053,18.0721 -11.76403,33.825 -2.5501,12.6983 -5.91021,34.5651 -5.37634,34.9878 0.4248,0.3363 14.93171,2.1861 18.40405,2.3468 l 3.13496,0.145 z M 370.35127,784.13019 C 428.08985,720.84645 495.42496,624.83501 526.48712,561.5 c 18.53003,-37.78229 33.99763,-84.65424 45.2921,-137.25 l 1.98635,-9.25 h -11.81183 -11.81182 l -1.47816,5.25 c -0.81298,2.8875 -4.03628,14.925 -7.16289,26.75 -21.88512,82.7707 -46.51267,135.95475 -90.29726,195 -4.69026,6.325 -18.95059,25 -31.68962,41.5 -42.3199,54.81408 -57.48477,77.24963 -69.51685,102.8462 C 346.0817,794.67574 339,814.18981 339,816.64951 c 0,0.66356 20.06267,-20.14658 31.35127,-32.51932 z M 691.5,384.90564 c -3.40064,-1.00907 -65.13942,-6.58839 -116,-10.48291 -18.7,-1.4319 -34.16717,-2.76746 -34.37149,-2.96792 -1.0898,-1.06918 5.70419,-9.985 12.7068,-16.67525 8.25115,-7.8831 26.31775,-20.29573 55.83573,-38.36185 9.86559,-6.03811 15.71442,-10.18774 15,-10.64218 -0.64407,-0.4097 -4.09604,-0.76569 -7.67104,-0.79109 -3.575,-0.0254 -9.84202,-0.47994 -13.9267,-1.01008 l -7.4267,-0.9639 -12.5733,6.59948 c -27.31782,14.33858 -45.3623,26.48606 -57.63844,38.80201 -10.6378,10.67229 -17.43745,21.81176 -15.84587,25.95935 1.21116,3.15625 12.96371,6.54059 31.91101,9.18929 14.25759,1.99311 156.48198,3.26844 150,1.34505 z M 603,272.53374 c 0,-0.25644 -1.77128,-3.20677 -3.93617,-6.55628 -6.3361,-9.80318 -13.76552,-24.97871 -17.17807,-35.08836 -2.65291,-7.85925 -3.24585,-11.34437 -3.63904,-21.3891 -0.59372,-15.16749 1.67339,-25.61782 8.67766,-40 10.03541,-20.60619 18.61095,-28.55656 57.32562,-53.14653 6.08973,-3.86795 4.93603,-4.72147 -5.5,-4.069 -35.78036,2.23702 -68.105,27.40619 -79.55862,61.94729 -9.43363,28.44934 -4.58802,58.84453 13.11521,82.26824 8.32363,11.01325 11.17353,13.10137 20.19341,14.79568 9.19248,1.72674 10.5,1.88091 10.5,1.23806 z"
         id="path5" />
      <path
         style="fill:#404343"
         d="m 560,1151.3949 c -4.675,-0.1774 -23.8,-0.8093 -42.5,-1.4042 -97.19928,-3.092 -166.77119,-8.8035 -240.5,-19.7438 l -5.5,-0.8161 0.27085,-6.9654 c 0.42043,-10.812 6.03295,-52.4085 9.17285,-67.9834 6.50683,-32.276 21.54644,-52.0272 45.5563,-59.82817 C 336.17542,991.51022 354.71022,989 368.24634,989 h 13.04759 l -8.90534,-9.25 C 348.77185,955.21926 332.94311,933.45584 321.5142,909.80127 309.35979,884.64514 306.45532,872.11307 306.61151,845.5 c 0.15713,-26.77092 3.014,-40.66137 13.42914,-65.29402 12.20398,-28.86342 29.76204,-55.35757 78.23874,-118.05795 40.93231,-52.94238 54.68035,-73.20289 70.45128,-103.82415 15.76886,-30.61724 23.90886,-51.37844 31.76214,-81.00985 3.03402,-11.44771 8.21432,-30.92352 11.51179,-43.27957 3.29747,-12.35605 5.9954,-22.74694 5.9954,-23.09087 0,-0.34393 -2.48232,-1.18085 -5.51628,-1.85982 -12.97515,-2.90371 -24.98908,-11.43781 -30.32043,-21.53813 -2.3603,-4.47161 -2.65704,-6.12642 -2.6084,-14.54564 0.0454,-7.85645 0.4972,-10.55213 2.61147,-15.58147 9.2687,-22.04803 32.1224,-43.64707 68.5832,-64.81799 4.53726,-2.63456 8.50882,-5.20959 8.82569,-5.7223 0.31687,-0.5127 -1.74904,-3.4763 -4.59092,-6.58576 C 540.28157,264.20531 530.11729,243.00481 526.54424,220.97253 515.27478,151.48246 571.2182,85.043284 641,85.043284 c 42.97736,0 83.18389,25.626276 103.48327,65.956716 21.44359,42.60374 14.44995,94.36959 -17.4676,129.29248 -2.84188,3.10946 -4.90779,6.07306 -4.59092,6.58576 0.31687,0.51271 4.28843,3.08774 8.82569,5.7223 36.48205,21.18327 59.43215,42.88197 68.55613,64.81799 2.03275,4.88716 2.5456,7.84894 2.61147,15.08147 0.0722,7.92363 -0.25222,9.68052 -2.71228,14.69009 C 797.02715,392.64473 787.21653,403 784.72741,403 c -0.61128,0 -4.15212,1.2375 -7.86852,2.75 -5.61347,2.28457 -6.68445,3.0885 -6.32786,4.75 0.23608,1.1 2.26711,13.7 4.51341,28 4.286,27.28482 4.45388,32.66794 1.2575,40.32146 -3.04245,7.28495 -13.58242,21.13583 -35.6923,46.90428 -15.03632,17.52442 -22.89588,27.47798 -23.68869,30 -0.65255,2.07584 -1.39646,11.0137 -1.65312,19.86189 -0.56016,19.31085 0.41736,24.25699 7.69039,38.91237 5.84607,11.78 12.25452,20.12769 18.75973,24.43657 5.17872,3.43024 12.91932,6.06343 17.82423,6.06343 3.45498,0 2.35671,1.58413 13.91602,-20.07234 2.22299,-4.16478 8.3168,-15.51512 13.5418,-25.22296 l 9.5,-17.65062 6,0.013 6,0.013 40.43575,50.98261 c 64.69321,81.56716 86.37106,113.09273 100.69436,146.43738 10.83409,25.22178 13.63725,38.9601 13.77264,67.5 0.0921,19.40775 -0.0523,21.07357 -2.70947,31.26503 -8.97452,34.42123 -29.23364,66.8186 -64.08715,102.48497 l -8.06197,8.25 h 17.62855 c 18.25568,0 35.34493,2.08559 46.32729,5.65383 13.89577,4.51482 24.44245,12.66847 31.93408,24.68827 11.81186,18.9514 14.08598,28.7205 22.96622,98.6579 0.7333,5.775 1.0557,10.7761 0.7165,11.1136 -0.9437,0.9387 -60.4825,8.5789 -88.6168,11.3716 -41.99583,4.1686 -83.11926,6.7372 -153.5,9.5878 -24.67418,0.9994 -187.04448,2.0413 -206,1.3219 z m 51,-33.9597 c 80.28493,-6.4856 117.30918,-10.8922 210,-24.9942 30.525,-4.644 70.23948,-10.6201 88.2544,-13.2801 18.01492,-2.66 32.9446,-5.0266 33.17705,-5.259 0.23246,-0.2325 -0.20783,-4.0558 -0.97841,-8.4963 -1.86969,-10.774 -11.75052,-36.1001 -17.23784,-44.1832 -0.47701,-0.7026 -3.75807,-1.7444 -7.29124,-2.3151 -6.86285,-1.1085 -11.15195,-0.8286 -55.42396,3.6167 -71.25129,7.1544 -125.86817,9.4344 -226,9.4344 -108.10452,0 -175.11469,-3.2031 -251.21218,-12.0081 l -17.21217,-1.9916 -13.21533,2.0255 c -7.26843,1.114 -15.72295,2.8099 -18.78782,3.7687 -11.43109,3.5759 -18.96723,15.4114 -24.03511,37.7471 -2.71018,11.9446 -7.50869,41.4452 -6.82841,41.9801 0.57064,0.4488 43.63567,5.5288 63.29102,7.466 23.94007,2.3594 70.91495,5.5667 104,7.1007 70.9828,3.2913 92.34515,3.1976 139.5,-0.6116 z M 730.20918,999.98083 c 35.00117,-0.97048 35.7551,-1.03463 38.02469,-3.23547 1.27353,-1.23495 9.49514,-8.32036 18.27024,-15.74536 52.3952,-44.33387 57.59747,-49.38274 70.33088,-68.25711 14.05324,-20.8307 27.41933,-53.15951 32.26021,-78.02835 2.29348,-11.78223 2.37635,-18.17433 0.39815,-30.71454 -2.72567,-17.27855 -9.67204,-28.7167 -37.75423,-62.16754 -21.28941,-25.35942 -28.92685,-35.3638 -38.21362,-50.05648 -4.38597,-6.93908 -8.34488,-12.38761 -8.79758,-12.10783 -0.45269,0.27979 -5.8125,8.00641 -11.91067,17.17027 -21.69574,32.60268 -37.98262,53.12981 -60.31236,76.01457 -23.96865,24.5644 -40.29696,36.35528 -62.27333,44.9684 -17.41359,6.82483 -20.31325,7.5255 -31.23156,7.54676 -16.12027,0.0314 -29.24427,-5.44588 -40.42259,-16.87024 -14.04415,-14.35328 -20.68107,-32.80093 -20.72665,-57.6108 -0.0798,-43.43392 22.26586,-90.10201 82.54254,-172.38711 22.43506,-30.62661 30.38261,-40.69921 50.08796,-63.48066 8.81031,-10.18564 16.58933,-19.25019 17.28671,-20.14346 1.03742,-1.3288 0.71368,-5.41999 -1.78041,-22.5 -3.49104,-23.90728 -7.2569,-44.55248 -9.51179,-52.14553 L 714.92252,415 H 632.53881 550.1551 l -1.01555,3.25 c -0.55855,1.7875 -2.82374,10.2286 -5.03375,18.758 -22.67927,87.52918 -46.47046,140.71279 -89.34134,199.71653 -5.90455,8.12651 -22.04189,29.40047 -35.86076,47.27547 -40.07169,51.83358 -53.58327,71.63168 -66.37804,97.26167 -11.52754,23.09152 -14.94453,35.36719 -16.14335,57.9955 -0.82004,15.47878 0.66053,27.02297 5.22534,40.74283 9.74905,29.30138 31.61207,58.92922 71.97273,97.53436 l 17.65362,16.88575 6.633,0.33647 c 3.64815,0.18506 15.858,0.97551 27.133,1.75656 22.83253,1.58167 64.35235,3.44273 85,3.80996 40.54407,0.7212 149.30557,0.5146 180.20918,-0.34227 z m 4.21371,-615.90165 c 5.45759,-0.55467 11.85213,-1.29779 14.2101,-1.65139 l 4.28721,-0.64291 -3.07801,-6.14244 c -8.70863,-17.37887 -17.59804,-25.96078 -60.21556,-58.13254 l -15.87336,-11.98273 -29.62664,-0.11287 c -16.29464,-0.0621 -33.97942,-0.65153 -39.29951,-1.3099 l -9.67287,-1.19704 -14.32713,7.72003 c -29.8262,16.07155 -42.64464,24.90092 -56.42865,38.86822 C 515.63201,358.37863 509,368.52106 509,373.04471 c 0,5.65423 20.46756,10.35376 52,11.93965 21.92286,1.1026 160.79988,0.37772 173.42289,-0.90518 z M 667.55011,273.95433 c 7.12244,-0.57512 16.74621,-1.81262 21.38616,-2.75 l 8.43628,-1.70433 3.75795,-6.96266 C 709.3567,247.29604 714,226.44737 714,204.75265 c 0,-25.73584 -5.91975,-43.12103 -23.859,-70.0694 -6.41924,-9.643 -6.67746,-9.8854 -14.58796,-13.69466 -23.49757,-11.31514 -45.0127,-11.52994 -67.92113,-0.67812 -11.39382,5.39731 -16.69082,8.94218 -25.05858,16.76982 -20.24356,18.93685 -31.22388,49.32937 -27.6284,76.47285 2.51035,18.95147 10.62141,36.64941 22.63142,49.38065 l 6.5054,6.89607 9.20913,1.64024 c 18.74939,3.33945 50.50962,4.40195 74.25923,2.48423 z"
         id="path4" />
      <path
         style="fill:#2e3030"
         d="m 560,1151.3949 c -4.675,-0.1774 -23.8,-0.8093 -42.5,-1.4042 -97.19928,-3.092 -166.77119,-8.8035 -240.5,-19.7438 l -5.5,-0.8161 0.27085,-6.9654 c 0.42043,-10.812 6.03295,-52.4085 9.17285,-67.9834 6.50683,-32.276 21.54644,-52.0272 45.5563,-59.82817 C 336.17542,991.51022 354.71022,989 368.24634,989 h 13.04759 l -8.90534,-9.25 C 348.77185,955.21926 332.94311,933.45584 321.5142,909.80127 309.35979,884.64514 306.45532,872.11307 306.61151,845.5 c 0.15713,-26.77092 3.014,-40.66137 13.42914,-65.29402 12.20398,-28.86342 29.76204,-55.35757 78.23874,-118.05795 40.93231,-52.94238 54.68035,-73.20289 70.45128,-103.82415 15.76886,-30.61724 23.90886,-51.37844 31.76214,-81.00985 3.03402,-11.44771 8.21432,-30.92352 11.51179,-43.27957 3.29747,-12.35605 5.9954,-22.74694 5.9954,-23.09087 0,-0.34393 -2.48232,-1.18085 -5.51628,-1.85982 -12.97515,-2.90371 -24.98908,-11.43781 -30.32043,-21.53813 -2.3603,-4.47161 -2.65704,-6.12642 -2.6084,-14.54564 0.0454,-7.85645 0.4972,-10.55213 2.61147,-15.58147 9.2687,-22.04803 32.1224,-43.64707 68.5832,-64.81799 4.53726,-2.63456 8.50882,-5.20959 8.82569,-5.7223 0.31687,-0.5127 -1.74904,-3.4763 -4.59092,-6.58576 C 540.28157,264.20531 530.11729,243.00481 526.54424,220.97253 515.27478,151.48246 571.2182,85.043284 641,85.043284 c 42.97736,0 83.18389,25.626276 103.48327,65.956716 21.44359,42.60374 14.44995,94.36959 -17.4676,129.29248 -2.84188,3.10946 -4.90779,6.07306 -4.59092,6.58576 0.31687,0.51271 4.28843,3.08774 8.82569,5.7223 36.48205,21.18327 59.43215,42.88197 68.55613,64.81799 2.03275,4.88716 2.5456,7.84894 2.61147,15.08147 0.0722,7.92363 -0.25222,9.68052 -2.71228,14.69009 C 797.02715,392.64473 787.21653,403 784.72741,403 c -0.61128,0 -4.15212,1.2375 -7.86852,2.75 -5.61347,2.28457 -6.68445,3.0885 -6.32786,4.75 0.23608,1.1 2.26711,13.7 4.51341,28 4.286,27.28482 4.45388,32.66794 1.2575,40.32146 -3.04245,7.28495 -13.58242,21.13583 -35.6923,46.90428 -15.03632,17.52442 -22.89588,27.47798 -23.68869,30 -0.65255,2.07584 -1.39646,11.0137 -1.65312,19.86189 -0.56016,19.31085 0.41736,24.25699 7.69039,38.91237 5.84607,11.78 12.25452,20.12769 18.75973,24.43657 5.17872,3.43024 12.91932,6.06343 17.82423,6.06343 3.45498,0 2.35671,1.58413 13.91602,-20.07234 2.22299,-4.16478 8.3168,-15.51512 13.5418,-25.22296 l 9.5,-17.65062 6,0.013 6,0.013 40.43575,50.98261 c 64.69321,81.56716 86.37106,113.09273 100.69436,146.43738 10.83409,25.22178 13.63725,38.9601 13.77264,67.5 0.0921,19.40775 -0.0523,21.07357 -2.70947,31.26503 -8.97452,34.42123 -29.23364,66.8186 -64.08715,102.48497 l -8.06197,8.25 h 17.62855 c 18.25568,0 35.34493,2.08559 46.32729,5.65383 13.89577,4.51482 24.44245,12.66847 31.93408,24.68827 11.81186,18.9514 14.08598,28.7205 22.96622,98.6579 0.7333,5.775 1.0557,10.7761 0.7165,11.1136 -0.9437,0.9387 -60.4825,8.5789 -88.6168,11.3716 -41.99583,4.1686 -83.11926,6.7372 -153.5,9.5878 -24.67418,0.9994 -187.04448,2.0413 -206,1.3219 z m 198.5,-31.332 c 65.86768,-2.5071 116.61941,-5.5313 153,-9.1168 19.08496,-1.881 62.70557,-7.0115 63.26619,-7.4411 0.52748,-0.4043 -2.94456,-23.1069 -5.34154,-34.9267 -3.31205,-16.3322 -6.61317,-25.8234 -11.67877,-33.5783 -5.81869,-8.9078 -10.52587,-11.1761 -30.24588,-14.5752 -14.40708,-2.4832 -15.59292,-2.5395 -30,-1.425 -8.25,0.6382 -20.625,1.7827 -27.5,2.5434 -20.9535,2.3185 -57.17728,5.3725 -83,6.9977 -58.15946,3.6604 -244.67489,3.663 -303,0 -29.49557,-1.8503 -76.15062,-5.8935 -99.585,-8.6302 l -17.085,-1.9952 -13.415,2.0497 c -22.10834,3.3781 -26.67153,5.492 -33.00407,15.2897 -4.91679,7.6072 -7.07211,13.4483 -10.34191,28.0273 -2.42157,10.797 -6.98295,39.7165 -6.34241,40.2114 0.15037,0.1161 9.94839,1.396 21.77339,2.8442 57.98368,7.1008 116.84411,11.1429 199,13.6655 18.975,0.5827 38.775,1.207 44,1.3875 19.43693,0.6713 163.46671,-0.3412 189.5,-1.3321 z m 8,-121.00797 c 11.55,-0.65409 32.21766,-2.07674 45.92813,-3.16143 l 24.92814,-1.97217 6.07186,-4.36455 c 7.09473,-5.09979 43.66631,-41.85953 51.79032,-52.05678 13.73246,-17.23697 26.55798,-38.73709 32.511,-54.5 8.22185,-21.77048 8.48128,-53.88744 0.62139,-76.92739 -6.88169,-20.17253 -18.22124,-40.57552 -39.13912,-70.42214 -19.15184,-27.32673 -27.86676,-38.89968 -58.54731,-77.74767 L 806.5,627.30561 l -1.58386,2.59719 c -0.87112,1.42846 -9.15304,16.3222 -18.40427,33.0972 -41.13163,74.58287 -65.70145,110.82572 -92.27111,136.10875 -18.76994,17.861 -35.76078,25.98301 -54.74076,26.16733 -16.3902,0.15917 -27.94242,-4.66141 -40.10011,-16.7332 -14.55929,-14.45642 -21.35863,-32.78846 -21.38675,-57.66189 -0.0277,-24.52322 6.16018,-46.34135 22.08806,-77.88099 9.71024,-19.22776 15.76744,-29.446 31.41753,-53 18.7289,-28.18773 65.37301,-90.85332 71.45605,-96 4.48941,-3.79836 39.80967,-46.6791 43.89906,-53.29587 l 2.31801,-3.75062 -3.66107,-23.72675 C 743.51719,430.17704 741.62524,418.4875 741.32644,417.25 l -0.54326,-2.25 -95.36365,0 -95.36366,0 -1.4578,5.25 c -0.80179,2.8875 -3.77501,13.8 -6.60716,24.25 -14.34225,52.91972 -25.42695,83.82119 -42.38796,118.16742 C 481.9675,598.37939 465.18357,624.08491 429.5222,670 c -27.06326,34.84477 -46.91995,61.56067 -56.50875,76.0289 -28.89677,43.60139 -38.3433,70.73245 -36.72306,105.4711 0.76893,16.48644 4.01558,28.56748 12.09324,45 11.56732,23.53158 29.10639,45.69977 61.81433,78.1291 l 20.30204,20.1291 13,0.56819 c 7.15,0.31251 23.46639,1.28853 36.25865,2.16895 12.79226,0.88041 34.61726,1.98427 48.5,2.45302 36.12501,1.21974 212.61369,0.55794 238.24135,-0.89343 z M 654.32903,790.68195 C 675.05957,780.43636 698.36806,752.32728 732.01156,697 c 6.18723,-10.175 12.09525,-19.70076 13.12893,-21.16836 l 1.87943,-2.66835 -3.25996,-0.70161 C 720.83631,667.52807 696.0761,638.2818 688.04312,606.65005 687.04445,602.71752 685.78318,599.5 685.24031,599.5 c -3.16319,0 -33.89773,43.89356 -48.28519,68.95853 -9.09072,15.8373 -18.33164,35.51232 -22.42539,47.74632 -9.87016,29.49656 -7.92477,55.36719 5.26358,69.99713 8.762,9.71975 20.7795,11.27866 34.53572,4.47997 z M 736,384.08847 c 17.50715,-1.85415 30.2537,-4.85382 34.19829,-8.04795 2.14748,-1.73893 2.20232,-2.09361 1.01185,-6.54465 -4.41228,-16.49703 -29.98668,-37.68521 -72.28241,-59.88539 l -12.57227,-6.59893 -8.42773,1.12489 c -11.76112,1.56982 -57.89964,1.56338 -71.65569,-0.01 l -11.22796,-1.28423 -11.77204,6.25761 C 553.5994,324.87277 535.51511,337.35826 522.86561,350.80476 515.43411,358.70449 509,368.94208 509,372.86692 c 0,5.9109 18.04073,10.29564 50,12.15232 20.00118,1.16197 164.41021,0.40258 177,-0.93077 z m -66.5,-110.1095 c 6.05,-0.56064 14.87702,-1.7209 19.61559,-2.57835 8.1376,-1.47251 8.8662,-1.81813 13.13277,-6.22981 18.67994,-19.31525 27.88735,-45.94447 24.83492,-71.82638 -2.20335,-18.6825 -10.27399,-36.86674 -22.58694,-50.89138 -15.54966,-17.7113 -42.2103,-30.36483 -64.11812,-30.43141 -8.50043,-0.0258 -23.04771,3.44832 -32.62765,7.79207 -13.78967,6.25254 -29.04842,19.03815 -37.66229,31.55799 -4.82766,7.01676 -10.82045,20.212 -13.229,29.1283 -3.18719,11.79882 -3.2038,32.73732 -0.0352,44.43317 4.02783,14.8676 11.10646,27.89952 21.37944,39.36002 5.6557,6.30948 9.13825,7.2349 37.79652,10.0437 8.28433,0.81195 43.41178,0.57695 53.5,-0.35792 z"
         id="path3" />
      <path
         style="fill:#161717"
         d="m 560,1151.3949 c -4.675,-0.1774 -23.8,-0.8093 -42.5,-1.4042 -97.19928,-3.092 -166.77119,-8.8035 -240.5,-19.7438 l -5.5,-0.8161 0.27085,-6.9654 c 0.42043,-10.812 6.03295,-52.4085 9.17285,-67.9834 6.50683,-32.276 21.54644,-52.0272 45.5563,-59.82817 C 336.17542,991.51022 354.71022,989 368.24634,989 h 13.04759 l -8.90534,-9.25 C 348.77185,955.21926 332.94311,933.45584 321.5142,909.80127 309.35979,884.64514 306.45532,872.11307 306.61151,845.5 c 0.15713,-26.77092 3.014,-40.66137 13.42914,-65.29402 12.20398,-28.86342 29.76204,-55.35757 78.23874,-118.05795 40.93231,-52.94238 54.68035,-73.20289 70.45128,-103.82415 15.76886,-30.61724 23.90886,-51.37844 31.76214,-81.00985 3.03402,-11.44771 8.21432,-30.92352 11.51179,-43.27957 3.29747,-12.35605 5.9954,-22.74694 5.9954,-23.09087 0,-0.34393 -2.48232,-1.18085 -5.51628,-1.85982 -12.97515,-2.90371 -24.98908,-11.43781 -30.32043,-21.53813 -2.3603,-4.47161 -2.65704,-6.12642 -2.6084,-14.54564 0.0454,-7.85645 0.4972,-10.55213 2.61147,-15.58147 9.2687,-22.04803 32.1224,-43.64707 68.5832,-64.81799 4.53726,-2.63456 8.50882,-5.20959 8.82569,-5.7223 0.31687,-0.5127 -1.74904,-3.4763 -4.59092,-6.58576 C 540.28157,264.20531 530.11729,243.00481 526.54424,220.97253 515.27478,151.48246 571.2182,85.043284 641,85.043284 c 42.97736,0 83.18389,25.626276 103.48327,65.956716 21.44359,42.60374 14.44995,94.36959 -17.4676,129.29248 -2.84188,3.10946 -4.90779,6.07306 -4.59092,6.58576 0.31687,0.51271 4.28843,3.08774 8.82569,5.7223 36.48205,21.18327 59.43215,42.88197 68.55613,64.81799 2.03275,4.88716 2.5456,7.84894 2.61147,15.08147 0.0722,7.92363 -0.25222,9.68052 -2.71228,14.69009 C 797.02715,392.64473 787.21653,403 784.72741,403 c -0.61128,0 -4.15212,1.2375 -7.86852,2.75 -5.61347,2.28457 -6.68445,3.0885 -6.32786,4.75 0.23608,1.1 2.26711,13.7 4.51341,28 4.286,27.28482 4.45388,32.66794 1.2575,40.32146 -3.04245,7.28495 -13.58242,21.13583 -35.6923,46.90428 -15.03632,17.52442 -22.89588,27.47798 -23.68869,30 -0.65255,2.07584 -1.39646,11.0137 -1.65312,19.86189 -0.56016,19.31085 0.41736,24.25699 7.69039,38.91237 5.84607,11.78 12.25452,20.12769 18.75973,24.43657 5.17872,3.43024 12.91932,6.06343 17.82423,6.06343 3.45498,0 2.35671,1.58413 13.91602,-20.07234 2.22299,-4.16478 8.3168,-15.51512 13.5418,-25.22296 l 9.5,-17.65062 6,0.013 6,0.013 40.43575,50.98261 c 64.69321,81.56716 86.37106,113.09273 100.69436,146.43738 10.83409,25.22178 13.63725,38.9601 13.77264,67.5 0.0921,19.40775 -0.0523,21.07357 -2.70947,31.26503 -8.97452,34.42123 -29.23364,66.8186 -64.08715,102.48497 l -8.06197,8.25 h 17.62855 c 18.25568,0 35.34493,2.08559 46.32729,5.65383 13.89577,4.51482 24.44245,12.66847 31.93408,24.68827 11.81186,18.9514 14.08598,28.7205 22.96622,98.6579 0.7333,5.775 1.0557,10.7761 0.7165,11.1136 -0.9437,0.9387 -60.4825,8.5789 -88.6168,11.3716 -41.99583,4.1686 -83.11926,6.7372 -153.5,9.5878 -24.67418,0.9994 -187.04448,2.0413 -206,1.3219 z m 198.5,-31.332 c 65.86768,-2.5071 116.61941,-5.5313 153,-9.1168 19.25214,-1.8975 62.71013,-7.0132 63.27339,-7.4483 0.64054,-0.4949 -3.92084,-29.4144 -6.34241,-40.2114 -3.2698,-14.579 -5.42512,-20.4201 -10.34191,-28.0273 -6.31444,-9.7697 -10.59892,-11.7719 -32.83456,-15.3446 -15.41578,-2.4769 -17.40848,-2.4002 -67.75451,2.6071 -25.21588,2.508 -53.21912,4.7478 -82.5,6.5988 -25.55383,1.6155 -214.64809,2.338 -251,0.9591 -46.58329,-1.767 -92.6448,-5.148 -138.5,-10.1661 l -19,-2.0793 -13,2.0418 c -22.46606,3.5286 -26.4456,5.4454 -33.1876,15.9848 -4.31827,6.7506 -6.66832,13.2549 -9.8055,27.1393 -2.32272,10.2798 -6.95526,39.9227 -6.32553,40.4761 0.17524,0.154 9.99363,1.4517 21.81863,2.8838 59.11946,7.1596 117.01793,11.1303 199,13.6476 18.975,0.5827 38.775,1.207 44,1.3875 19.43693,0.6713 163.46671,-0.3412 189.5,-1.3321 z M 748,999.93673 c 17.875,-0.59266 45.47508,-2.14518 61.33351,-3.45005 l 28.8335,-2.37249 5.6665,-4.17657 c 6.52188,-4.80705 42.59012,-41.06214 50.59121,-50.8533 8.86349,-10.8465 22.15599,-31.2939 27.48416,-42.27797 10.11989,-20.86221 13.72761,-36.89484 12.67028,-56.30635 -1.96762,-36.12356 -12.9218,-60.18923 -52.84669,-116.10097 -16.87549,-23.63283 -20.02147,-27.76502 -50.33921,-66.11986 -13.57325,-17.17146 -25.03676,-30.9995 -25.47446,-30.72899 -0.4377,0.27052 -3.22725,5.09489 -6.19901,10.72083 C 779.87615,675.83779 753.69391,720.70943 737.44428,745 699.82255,801.23843 670.47173,824.96171 638.5,824.97335 c -40.44494,0.0147 -67.2643,-41.75759 -59.09998,-92.05078 6.59549,-40.62898 28.99208,-82.65413 83.89571,-157.42257 22.00324,-29.96429 29.00252,-38.71157 54.54049,-68.16142 22.38765,-25.81697 31.16126,-37.53415 31.17284,-41.6314 0.005,-1.76395 -1.65186,-13.89692 -3.68189,-26.96215 l -3.69096,-23.75497 -96.05856,0.25497 -96.05855,0.25497 -1.81223,7 c -19.80431,76.4969 -37.28581,123.3237 -62.15823,166.5 -14.83331,25.74931 -27.52724,43.85551 -62.04574,88.5 -46.96282,60.73936 -61.03719,81.43741 -74.01557,108.84877 -10.74399,22.69216 -13.95064,37.89406 -13.2155,62.65123 0.41786,14.07198 0.883,17.81615 3.16094,25.44414 5.66932,18.98442 13.28671,33.40574 27.97311,52.95899 11.99926,15.97562 23.28739,28.48034 44.52377,49.32237 L 430.5,994.951 l 6,0.0309 c 3.3,0.017 14.1,0.6779 24,1.46872 16.67502,1.33201 53.51876,3.27936 73.5,3.88481 26.71657,0.8095 186.54159,0.5117 214,-0.39867 z M 643.56634,794.91208 C 666.84718,790.6436 694.1852,760.53193 732.45949,697 c 6.46119,-10.725 12.63907,-20.46951 13.72862,-21.65446 l 1.98101,-2.15446 -5.83456,-1.67495 c -9.06924,-2.60354 -18.17501,-8.19585 -25.94546,-15.93441 -12.37523,-12.32445 -23.95421,-32.70801 -28.00975,-49.30819 -2.04606,-8.37497 -3.03339,-9.56929 -5.2247,-6.32004 -0.91006,1.34941 -3.48976,4.60685 -5.73267,7.23874 -6.51132,7.64057 -24.64716,34.27252 -35.0533,51.47474 -16.02028,26.48285 -26.53744,49.15974 -31.45982,67.83303 -2.9249,11.09572 -3.67309,30.62127 -1.5235,39.75893 3.76404,16.00055 12.62753,26.37172 24.61464,28.8016 1.925,0.39021 3.52985,0.76122 3.56634,0.82447 0.0365,0.0633 2.73649,-0.37456 6,-0.97292 z M 724,384.98976 c 24.20976,-1.45603 41.37818,-4.74921 47.0455,-9.02408 2.17395,-1.63982 2.25109,-2.03239 1.13277,-5.76501 -1.91011,-6.37537 -8.55145,-15.38961 -17.76183,-24.10801 -12.83855,-12.15276 -28.68151,-22.64681 -56.63398,-37.51318 l -10.71754,-5.70007 -11.28246,1.05688 c -14.84693,1.39078 -53.8828,1.35661 -68.80643,-0.0602 l -11.8385,-1.12393 -12.6996,6.6827 c -28.92046,15.21833 -45.61943,26.7723 -59.15051,40.92605 C 514.42985,359.62606 509,368.10576 509,372.67329 c 0,5.80987 16.36415,10.32488 44.25936,12.21155 17.67641,1.19552 151.24232,1.27761 170.74064,0.10492 z M 676,273.54092 c 19.82945,-2.40832 21.83395,-3.06111 27.34238,-8.90428 10.24431,-10.86684 17.6889,-24.40452 21.83358,-39.70347 1.89702,-7.00232 2.27118,-10.80854 2.20522,-22.43317 -0.0925,-16.30188 -1.97354,-24.92096 -8.34977,-38.25941 -4.96875,-10.39413 -8.6288,-15.71626 -16.67076,-24.24116 C 691.74926,128.7508 678.6966,120.60409 663,115.43282 c -7.58613,-2.49926 -9.95144,-2.80356 -22,-2.83035 -12.19887,-0.0271 -14.31923,0.24287 -22,2.80125 -16.43184,5.47328 -27.87562,12.56754 -39.11633,24.24909 -23.50835,24.43031 -31.79179,58.93067 -21.69211,90.34719 2.92749,9.10639 8.1887,19.34194 13.9767,27.19133 9.24008,12.53093 11.70627,13.76613 32.50955,16.28264 14.81087,1.79163 56.79718,1.83104 71.32219,0.067 z"
         id="path2" />
    </g>
  </g>
</svg>
