<?xml version="1.0" encoding="UTF-8" standalone="no"?>
<svg
   width="640pt"
   height="640pt"
   viewBox="0 0 640 640"
   version="1.1"
   id="svg15"
   sodipodi:docname="bb.svg"
   inkscape:version="1.3.2 (091e20e, 2023-11-25, custom)"
   xmlns:inkscape="http://www.inkscape.org/namespaces/inkscape"
   xmlns:sodipodi="http://sodipodi.sourceforge.net/DTD/sodipodi-0.dtd"
   xmlns="http://www.w3.org/2000/svg"
   xmlns:svg="http://www.w3.org/2000/svg">
  <defs
     id="defs15" />
  <sodipodi:namedview
     id="namedview15"
     pagecolor="#ffffff"
     bordercolor="#000000"
     borderopacity="0.25"
     inkscape:showpageshadow="2"
     inkscape:pageopacity="0.0"
     inkscape:pagecheckerboard="0"
     inkscape:deskcolor="#d1d1d1"
     inkscape:document-units="pt"
     inkscape:zoom="0.23927002"
     inkscape:cx="-992.60242"
     inkscape:cy="863.04168"
     inkscape:window-width="2560"
     inkscape:window-height="1351"
     inkscape:window-x="1341"
     inkscape:window-y="712"
     inkscape:window-maximized="1"
     inkscape:current-layer="svg15" />
  <path
     fill="#4f5454"
     stroke="#4f5454"
     stroke-width="0.09375"
     opacity="1"
     d="m 452.42682,504.38024 c 3.52,-0.48 31.34264,3.73636 34.80264,4.34636 3.91,8.59 14.0793,50.00669 -1.99677,51.80831 -12.57,2.45 -24.76228,-0.82384 -37.41228,1.27616 -27.21,4.06 -61.3134,3.41174 -88.6634,6.40174 -21.79,2.52 -27.36368,1.45355 -49.15368,3.84355 -15.87,0.21 -48.33337,-4.21173 -64.19337,-4.75173 -26.12,-1.18 -58.91935,-2.64147 -84.86935,-6.00147 1.02,-8.93 -38.92403,-2.90896 -12.94511,-21.57563 -20.09745,9.35459 9.96818,-29.96125 13.13818,-32.18125 5.33,-3.91 37.01359,1.28082 42.89359,-1.52918 30.11,3.26 56.13563,3.51355 86.45563,3.37355 16.32,0.81 36.80584,-0.2 53.12584,-0.03 39.78,-0.76 69.19808,-1.05041 108.81808,-4.98041 z"
     id="path14"
     sodipodi:nodetypes="cccccccccccccc" />
  <path
     fill="#4f5454"
     stroke="#4f5454"
     stroke-width="0.09375"
     opacity="1"
     d="m 316.26996,146.93593 c 10.1735,-3.38879 21.58376,-0.67411 29.25376,-0.94411 9.7,8.24 19.10619,6.39125 28.27619,15.26125 3.99,3.86 13.65524,19.73931 15.30524,25.11931 l -19.9813,9.93022 c -6.44,0.7 -18.85671,0.2203 -25.33671,0.3003 -3.71,-0.01 2.47403,-0.23675 -1.18597,-1.05675 -1.57,-0.45 -17.80398,2.5232 -19.40398,2.2632 -22.9,-2.46 -78.75117,0.10879 -77.58728,-10.77848 -17.30216,-10.26732 31.61343,-31.89357 29.41104,-33.18277 9.41,-6.49 29.00697,-13.46676 41.24901,-6.91217 z"
     id="path7"
     sodipodi:nodetypes="ccccccccccc" />
  <path
     fill="#4f5454"
     stroke="#4f5454"
     stroke-width="0.09375"
     opacity="1"
     d="m 316.77479,50.274566 c 6.74,1.28 48.2402,6.090671 29.14929,10.780671 11.98428,1.185253 17.16247,11.819787 19.30247,20.799787 3.6,15.06 -1.36499,38.150656 -7.80499,52.040656 -1.35,1.79 -16.65405,10.39588 -17.13474,5.5784 -16.43885,7.95134 -32.81589,0.84659 -46.88589,-0.52341 -13.81792,1.51542 -23.14995,-23.50088 -25.11995,-33.14088 -2.28,-11.990003 15.29768,-36.128597 22.68768,-45.608597 7.02,-8.6 16.99613,-3.506627 25.80613,-9.926627 z"
     id="path3"
     sodipodi:nodetypes="ccccccccc" />
  <path
     fill="#4f5454"
     stroke="#4f5454"
     stroke-width="0.0945954"
     opacity="1"
     d="m 280.96543,196.09829 c 23.44413,-0.39234 50.82794,-0.70438 74.27206,-0.72559 14.33207,9.99699 14.75166,8.91454 21.85594,27.30151 1.9806,5.42914 16.28646,46.76065 5.51498,56.87133 -14.02557,8.49364 -18.36767,10.77175 -31.73664,20.21974 -13.15368,9.45858 -5.31503,18.69552 -39.18551,25.91795 12.26481,7.6045 -15.64667,14.37998 -17.08904,26.09717 -1.61462,11.13399 -9.2594,25.27683 0.18068,31.95721 8.58972,6.37289 19.93503,7.35904 30.26853,5.83209 10.62413,0.59381 14.52709,-9.11141 24.11788,-13.18326 26.30736,-11.90806 50.68506,-41.03495 74.73197,-56.82399 8.08808,-2.16691 39.60846,42.08596 43.34359,60.28207 1.80836,9.67065 23.64921,44.04196 1.11264,49.09809 -2.4542,12.13074 -5.46956,22.79679 -12.35856,32.97643 -8.46055,11.95047 -20.79241,15.93538 -30.72764,26.68762 -4.19798,4.36876 -4.21173,6.41826 -7.71005,11.39144 -10.08592,1.30427 -41.17602,1.20832 -51.305,2.07783 -30.8498,0.50898 -61.74265,2.02533 -92.60321,0.562 -14.41308,0.10604 -28.80463,-0.8483 -43.18542,-1.6648 -1.70071,-0.16965 -3.50908,-0.13785 -5.03757,-0.96494 -11.28074,-7.46507 -20.67776,-17.24176 -30.41923,-26.47767 -13.75648,-14.03941 -27.79281,-28.90593 -34.5957,-47.60041 -4.1011,-11.21882 -3.65978,-23.49801 -1.68995,-35.07735 l 0.60279,-0.49838 c 2.69101,-1.83445 4.69312,-4.43239 6.78135,-6.86066 7.31957,-8.67389 11.05097,-23.4762 18.47816,-32.06527 11.68977,-13.32897 14.97331,-24.91731 26.09259,-38.70223 15.17733,-19.37312 28.26924,-41.01954 38.58121,-63.29811 6.22162,-14.60142 10.12148,-25.13047 16.00943,-39.85914 -12.07394,-4.92668 14.09588,-7.58558 15.69972,-13.47068 z"
     id="path10"
     sodipodi:nodetypes="cccccccccccccccccccccccccccccc" />
  <path
     fill="#414444"
     stroke="#414444"
     stroke-width="0.09375"
     opacity="1"
     d="m 344.3275,310.26137 c 2.07,-5.22463 11.04008,3.62162 14.37008,4.98162 12.38,5.03 23.50649,5.74233 36.57649,5.48233 5.5,0.02 10.39773,-0.89167 15.89773,-1.06167 -6.89,5.17 -10.35306,15.4828 -16.78306,21.2528 -6.31,5.78 -12.71,15.67584 -19.81,20.47584 -10.07,7.15 -21.19116,10.28122 -32.45116,15.45122 -6.41,2.84 -11.11355,9.44584 -18.24355,8.78584 -4.48,-0.33 -27.27642,2.98213 -26.29174,-10.14072 -2.77,-4.55 -5.29987,-12.1204 -3.85987,-17.0504 2.61,-8.37 8.09295,-17.1994 14.10295,-23.3894 8.38,-8.41 20.49983,-22.0233 36.49213,-24.78746 z"
     id="path11"
     sodipodi:nodetypes="cccccccccccc" />
  <path
     fill="#181919"
     stroke="#181919"
     stroke-width="0.09375"
     opacity="1"
     d="m 275.16,62.16 c 8.82,-10.33 21.31,-17.33 34.64,-19.82 13.57,-2.47 27.7,1.3 39.2,8.65 12.97,8.38 22.69,21.83 26.08,36.94 3.93,15.75 0.29,32.99 -8.97,46.23 -2.15,3.12 -4.74,5.89 -7.15,8.8 13.78,7.89 28.05,16.61 36.65,30.41 4.18,6.49 5.76,15.66 0.97,22.26 -4.44,6.26 -12.31,8.4 -19.45,9.83 7.04,22.9 14.23,46.1 26.54,66.82 -3.16,2.62 -6.03,5.58 -9.33,8.01 -9.76,6.87 -19.32,14.02 -28.94,21.08 -1.94,1.42 -3.66,3.11 -5.23,4.92 7.46,1.79 15.19,1.77 22.82,1.58 15.09,-0.48 30.11,-2.06 45.14,-3.49 9.18,13.54 19.84,26.03 29,39.61 11.64,16.93 22.48,35.27 25.66,55.9 1.37,13.01 0.14,26.51 -5.31,38.52 -9.68,22.16 -27.22,39.52 -44.47,55.94 10.34,-0.31 20.68,0.37 31.02,0.16 9.67,0.87 20.35,2.67 27.21,10.24 3.88,4.43 6.82,9.75 8.78,15.29 3.64,14.68 4.96,29.79 6.82,44.77 -31.75,4.67 -63.74,7.9 -95.8,9.19 -23.01,1.07 -46.03,1.95 -69.08,2.04 -11.95,0.82 -25.04823,0.12147 -37.01823,0.24147 -9.63,-0.94 -18.21177,0.22853 -27.83177,-0.69147 -18.71,-0.25 -37.37,-1.09 -56.04,-2.09 -28.77,-1.37 -57.42,-4.56 -85.91,-8.69 1.86,-14.97 3.17,-30.08 6.82,-44.75 3.21,-8.8 8.58,-17.78 17.6,-21.57 14.11,-5.92 29.66,-3.51 44.52,-3.99 -17.43,-16.69 -35.28,-34.25 -44.89,-56.81 -5.41,-12.24 -6.39,-25.95 -4.87,-39.12 1.73,-12.01 6.58,-23.31 12.36,-33.88 19.11,-34.55 48.13,-62.43 66.76,-97.27 9.3,-16.4 14.95,-34.51 20.96,-52.29 0.9,-3.4 1.65,-6.84 2.81,-10.17 -6.74,-1.54 -14.05,-4.21 -17.68,-10.54 -4.04,-6.8 -1.89,-15.38 2.2,-21.63 8.66,-13.48 22.69,-22.05 36.29,-29.83 -10.08,-10.47 -16.85,-24.25 -17.62,-38.87 -0.78,-15.18 4.65,-30.57 14.74,-41.93 m 15.53,4.51 c -9.31,8.07 -15.01,20.01 -15.65,32.3 -0.54,12.91 4.74,26.03 14.3,34.77 3.08,1.77 6.9,1.64 10.33,2.37 14.07,1.37 28.39,1.52 42.38,-0.75 1.95,-0.57 4.52,-0.36 5.87,-2.15 13.17,-11.69 17.52,-31.89 11.08,-48.18 -3.42,-8.52 -9.01,-16.82 -17.19,-21.33 -5.18,-4.69 -12.32,-6.66 -19.06,-7.94 -11.61,-1.38 -23.34,3.41 -32.06,10.91 m 3.25,85.18 c -10.3,5.42 -20.76,10.84 -29.69,18.39 -5.05,4.43 -10.05,9.45 -12.09,16.03 2.72,3.03 7.03,3.47 10.79,4.27 11.9,1.85 23.99,1.78 36,1.9 14.27,-0.06 28.55,0.1 42.82,-0.08 3.66,0.82 7.45,-0.2 11.16,-0.19 6.48,-0.08 12.94,-0.57 19.38,-1.27 4.04,-1.14 9.58,-0.99 12.07,-4.82 -0.96,-4.75 -4.18,-8.57 -7.49,-11.92 -8.33,-8.5 -18.88,-14.3 -29.26,-19.88 -2.17,-1.11 -4.24,-2.45 -6.57,-3.19 -2.19,0.01 -4.33,0.41 -6.48,0.72 -7.67,0.27 -15.34,0.88 -23.02,0.39 -3.8,-0.21 -7.6,-0.26 -11.37,-0.76 -2.1,-0.2 -4.37,-0.89 -6.25,0.41 m -21.36,55.26 c -7.78,27.47 -17.32,54.74 -32.06,79.34 -14,21.69 -30.75,41.4 -45.72,62.41 -7.42,10.52 -14.53,21.36 -19.76,33.16 -1.72,4.06 -3.49,8.17 -4.23,12.55 l -0.56,0.47 c -1.83,10.92 -2.24,22.5 1.57,33.08 6.32,17.63 19.36,31.65 32.14,44.89 9.05,8.71 17.78,17.93 28.26,24.97 1.42,0.78 3.1,0.75 4.68,0.91 13.36,0.77 26.73,1.67 40.12,1.57 28.67,1.38 57.37,-0.05 86.03,-0.53 9.41,-0.82 18.91,-0.36 28.28,-1.59 5.21,-0.07 10.55,0.04 15.65,-1.08 3.32,-2.36 6.11,-5.4 9.15,-8.1 9.66,-9.02 19.29,-18.09 28.02,-28.03 9.22,-10.68 18.04,-22.33 21.99,-36.1 2.16,-7.13 2.09,-14.67 1.65,-22.03 -2.04,-13.79 -8.23,-26.56 -15.47,-38.34 -8.04,-12.82 -16.87,-25.18 -26.41,-36.91 -6.64,5.11 -13.62,9.77 -19.9,15.35 -15.28,12.48 -30.75,24.84 -47.45,35.38 -10.48,6.67 -21.72,12.25 -33.79,15.35 -9.6,1.44 -20.14,0.51 -28.12,-5.5 -8.77,-6.3 -12.77,-17.79 -11.27,-28.29 1.34,-11.05 7.25,-20.95 14.42,-29.23 9.99,-11.43 22,-20.88 34.22,-29.8 12.42,-8.91 25.19,-17.34 38.22,-25.35 3.89,-2.55 7.83,-5.02 11.77,-7.51 -9,-19.73 -16.46,-40.15 -22.27,-61.03 -3.52,0.2 -7.04,0.37 -10.56,0.43 -21.78,0.02 -43.58,-0.24 -65.36,0.13 l 0.05,-0.22 c -4.43,0.13 -8.87,-0.12 -13.29,-0.35 m 70.67,106.09 c -9.62,6.92 -19,14.27 -27.38,22.68 -6.01,6.19 -11.77,13.08 -14.38,21.45 -1.44,4.93 -1.77,10.67 1,15.22 2.34,3.98 6.94,6.1 11.42,6.43 7.13,0.66 14.05,-1.79 20.46,-4.63 11.26,-5.17 21.55,-12.18 31.62,-19.33 7.1,-4.8 13.5,-10.54 19.81,-16.32 6.43,-5.77 13.78,-10.34 20.67,-15.51 -5.5,0.17 -10.96,0.88 -16.46,0.86 -13.07,0.26 -26.69,1.21 -39.07,-3.82 -3.33,-1.36 -5.62,-4.22 -7.69,-7.03 M 179.43,509.6 c -5.31,0.94 -11.08,1.08 -15.74,4.09 -2.94,2.53 -4.78,6.14 -6.19,9.7 -3.03,9.22 -4.21,18.91 -5.57,28.48 3.67,0.24 7.29,0.9 10.95,1.26 25.95,3.36 52.1,4.96 78.22,6.14 15.86,0.54 30.9381,2.05264 46.8081,1.84264 1.72,0.42 4.2519,-0.0626 6.0319,-0.0826 18.7,-0.09 37.4,0.04 56.1,-0.07 6.94,-0.86 13.93,-0.32 20.89,-0.58 6.38,-0.78 12.83,0.02 19.21,-0.8 33.39,-0.95 66.77,-3.36 99.89,-7.77 -1.28,-9.25 -2.47,-18.58 -5.26,-27.53 -1.38,-3.9 -3.33,-7.82 -6.5,-10.57 -4.01,-2.62 -8.95,-3.06 -13.57,-3.71 -3.46,-0.61 -6.99,-1.3 -10.51,-0.82 -39.62,3.93 -79.39,6.07 -119.17,6.83 -16.32,-0.17 -32.65,0.84 -48.97,0.03 -30.32,0.14 -60.64,-2.33 -90.75,-5.59 -5.26,-0.5 -10.59,-2.02 -15.87,-0.85 z"
     id="path1"
     sodipodi:nodetypes="cccccccccccccccccccccccccccccccccccccccccccccccccccccccccccccccccccccccccccccccccccccccccccccccccccccccccccccccccccccccccccccccccccccccc" />
  <path
     fill="#707575"
     stroke="#707575"
     stroke-width="0.09375"
     opacity="1.00"
     d=" M 290.69 66.67 C 299.41 59.17 311.14 54.38 322.75 55.76 C 313.94 62.18 303.67 66.98 296.65 75.58 C 289.26 85.06 285.20 97.64 287.48 109.63 C 289.45 119.27 294.57 127.83 299.67 136.11 C 296.24 135.38 292.42 135.51 289.34 133.74 C 279.78 125.00 274.50 111.88 275.04 98.97 C 275.68 86.68 281.38 74.74 290.69 66.67 Z"
     id="path2" />
  <path
     fill="#414444"
     stroke="#414444"
     stroke-width="0.09375"
     opacity="1.00"
     d=" M 341.81 63.70 C 349.99 68.21 355.58 76.51 359.00 85.03 C 365.44 101.32 361.09 121.52 347.92 133.21 C 354.36 119.32 357.17 103.38 353.57 88.32 C 351.43 79.34 345.86 71.84 341.81 63.70 Z"
     id="path4" />
  <path
     fill="#707575"
     stroke="#707575"
     stroke-width="0.09375"
     opacity="1.00"
     d=" M 293.94 151.85 C 295.82 150.55 298.09 151.24 300.19 151.44 C 303.96 151.94 307.76 151.99 311.56 152.20 C 301.95 158.39 292.05 164.12 282.64 170.61 C 276.98 174.52 271.39 178.98 268.19 185.23 C 291.13 187.39 314.15 188.70 337.05 191.16 C 338.65 191.42 340.20 191.91 341.77 192.36 C 327.50 192.54 313.22 192.38 298.95 192.44 C 286.94 192.32 274.85 192.39 262.95 190.54 C 259.19 189.74 254.88 189.30 252.16 186.27 C 254.20 179.69 259.20 174.67 264.25 170.24 C 273.18 162.69 283.64 157.27 293.94 151.85 Z"
     id="path5" />
  <path
     fill="#414444"
     stroke="#414444"
     stroke-width="0.09375"
     opacity="1.00"
     d=" M 334.58 151.81 C 336.73 151.50 338.87 151.10 341.06 151.09 C 343.39 151.83 345.46 153.17 347.63 154.28 C 358.01 159.86 368.56 165.66 376.89 174.16 C 380.20 177.51 383.42 181.33 384.38 186.08 C 381.89 189.91 376.35 189.76 372.31 190.90 C 372.63 190.53 373.27 189.79 373.59 189.42 C 371.94 184.04 368.37 179.52 364.38 175.66 C 355.21 166.79 344.28 160.05 334.58 151.81 Z"
     id="path6" />
  <path
     fill="#707575"
     stroke="#707575"
     stroke-width="0.09375"
     opacity="1.00"
     d=" M 272.58 207.11 C 277.00 207.34 281.44 207.59 285.87 207.46 L 285.82 207.68 C 284.33 213.23 283.24 218.91 281.33 224.34 C 275.86 238.23 270.95 252.34 265.17 266.11 C 255.59 287.12 243.17 306.75 229.07 325.02 C 218.74 338.02 208.74 351.30 197.88 363.87 C 190.98 371.97 183.91 379.92 177.11 388.10 C 175.17 390.39 173.31 392.84 170.81 394.57 C 171.55 390.19 173.32 386.08 175.04 382.02 C 180.27 370.22 187.38 359.38 194.80 348.86 C 209.77 327.85 226.52 308.14 240.52 286.45 C 255.26 261.85 264.80 234.58 272.58 207.11 Z"
     id="path8" />
  <path
     fill="#414444"
     stroke="#414444"
     stroke-width="0.09375"
     opacity="1.00"
     d=" M 351.18 207.55 C 354.70 207.49 358.22 207.32 361.74 207.12 C 367.55 228.00 375.01 248.42 384.01 268.15 C 380.07 270.64 376.13 273.11 372.24 275.66 C 369.12 271.22 366.34 266.51 364.50 261.39 C 357.90 244.05 355.10 225.60 351.18 207.55 Z"
     id="path9" />
  <path
     fill="#414444"
     stroke="#414444"
     stroke-width="0.09375"
     opacity="1.00"
     d=" M 406.01 343.10 C 412.29 337.52 419.27 332.86 425.91 327.75 C 435.45 339.48 444.28 351.84 452.32 364.66 C 459.56 376.44 465.75 389.21 467.79 403.00 C 468.23 410.36 468.30 417.90 466.14 425.03 C 462.19 438.80 453.37 450.45 444.15 461.13 C 435.42 471.07 425.79 480.14 416.13 489.16 C 413.09 491.86 410.30 494.90 406.98 497.26 C 401.88 498.38 396.54 498.27 391.33 498.34 C 394.58 493.65 398.79 489.78 402.69 485.66 C 411.92 475.52 421.06 465.23 428.92 453.96 C 435.32 444.36 441.21 434.04 443.49 422.60 C 445.38 413.39 443.99 403.94 442.31 394.82 C 438.84 377.66 433.34 360.38 422.55 346.35 C 400.21 361.24 377.44 375.71 353.00 386.94 C 344.09 390.78 334.64 394.39 324.77 393.83 C 336.84 390.73 348.08 385.15 358.56 378.48 C 375.26 367.94 390.73 355.58 406.01 343.10 Z"
     id="path12" />
  <path
     fill="#707575"
     stroke="#707575"
     stroke-width="0.09375"
     opacity="1.00"
     d=" M 179.43 509.60 C 184.71 508.43 190.04 509.95 195.30 510.45 C 189.42 513.26 182.81 514.58 177.48 518.49 C 174.31 520.71 171.95 523.87 170.16 527.26 C 165.93 535.26 163.90 544.20 162.88 553.13 C 159.22 552.77 155.60 552.11 151.93 551.87 C 153.29 542.30 154.47 532.61 157.50 523.39 C 158.91 519.83 160.75 516.22 163.69 513.69 C 168.35 510.68 174.12 510.54 179.43 509.60 Z"
     id="path13" />
  <path
     fill="#414444"
     stroke="#414444"
     stroke-width="0.09375"
     opacity="1"
     d="m 464.7,510 c 4.62,0.65 9.56,1.09 13.57,3.71 3.17,2.75 5.12,6.67 6.5,10.57 2.79,8.95 3.98,18.28 5.26,27.53 -33.12,4.41 -66.5,6.82 -99.89,7.77 -6.38,0.82 -12.83,0.02 -19.21,0.8 -6.96,0.26 -13.95,-0.28 -20.89,0.58 -18.7,0.11 -37.4,-0.02 -56.1,0.07 -1.78,0.02 -4.3119,0.39874 -6.0319,-0.0213 21.79,-2.39 44.4719,-4.12874 66.2619,-6.64874 27.35,-2.99 54.49,-7.59 81.7,-11.65 12.65,-2.1 25.43,-3.43 38,-5.88 C 473,527.29 468.61,518.59 464.7,510 Z"
     id="path15"
     sodipodi:nodetypes="ccccccccccccc" />
</svg>
