<?xml version="1.0" encoding="UTF-8" standalone="no"?>
<!DOCTYPE svg PUBLIC "-//W3C//DTD SVG 1.1//EN" "http://www.w3.org/Graphics/SVG/1.1/DTD/svg11.dtd">
<svg xmlns="http://www.w3.org/2000/svg" version="1.1" viewBox="0.00 0.00 1280.00 1280.00">
<g stroke-width="5.00" fill="none" stroke-linecap="butt">
<path stroke="#343737" vector-effect="non-scaling-stroke" d="
  M 603.51 273.11
  Q 607.34 273.80 611.59 274.03
  C 616.18 274.26 620.49 274.91 624.25 274.98
  Q 630.02 275.07 654.41 275.03
  C 659.80 275.02 665.17 274.38 671.75 273.95
  Q 683.38 273.18 698.00 269.51"
/>
<path stroke="#2d2f2f" vector-effect="non-scaling-stroke" d="
  M 698.00 269.51
  Q 699.04 268.64 699.73 267.97
  Q 720.61 247.97 726.12 220.26
  C 726.90 216.33 726.96 213.89 727.54 210.45
  Q 728.12 207.04 728.02 203.04
  C 727.20 171.22 711.70 141.94 684.20 125.38"
/>
<path stroke="#343737" vector-effect="non-scaling-stroke" d="
  M 684.20 125.38
  Q 667.56 114.97 649.50 112.72"
/>
<path stroke="#444747" vector-effect="non-scaling-stroke" d="
  M 649.50 112.72
  Q 638.29 111.04 627.68 113.39
  Q 596.02 120.43 575.82 144.02
  Q 561.11 161.21 555.74 185.65
  C 554.95 189.24 554.99 191.79 554.42 195.36
  Q 553.90 198.60 553.97 202.66
  Q 554.66 241.08 582.28 268.35
  A 5.54 5.51 72.2 0 0 585.21 269.87
  L 603.51 273.11"
/>
<path stroke="#606565" vector-effect="non-scaling-stroke" d="
  M 649.50 112.72
  Q 636.28 121.38 623.98 129.51
  C 616.97 134.15 610.73 138.72 605.10 143.84
  C 585.39 161.74 573.72 193.49 578.86 219.69
  Q 581.60 233.69 588.80 247.71
  Q 596.39 262.52 603.51 273.11"
/>
<path stroke="#484c4c" vector-effect="non-scaling-stroke" d="
  M 684.20 125.38
  Q 692.63 138.08 699.91 150.58
  Q 714.79 176.14 714.23 206.47
  C 713.85 226.88 709.80 247.98 699.23 265.93
  Q 698.41 267.34 698.00 269.51"
/>
<path stroke="#343737" vector-effect="non-scaling-stroke" d="
  M 698.12 385.87
  Q 710.85 385.19 723.74 384.98
  C 727.50 384.92 730.85 384.20 734.46 384.11
  Q 737.90 384.01 742.50 383.39
  Q 747.51 382.71 752.49 381.93"
/>
<path stroke="#2d2f2f" vector-effect="non-scaling-stroke" d="
  M 752.49 381.93
  Q 759.32 380.82 765.82 378.58
  Q 769.19 377.42 771.85 375.25
  A 1.69 1.68 -11.1 0 0 772.39 374.45
  C 773.16 371.89 770.98 367.45 769.62 364.37
  Q 768.06 360.83 761.93 353.80
  Q 750.68 340.90 734.20 330.04
  Q 712.29 315.59 686.59 303.11
  A 1.23 1.23 0.0 0 0 685.96 303.00
  L 671.97 304.60"
/>
<path stroke="#343737" vector-effect="non-scaling-stroke" d="
  M 671.97 304.60
  Q 659.31 305.23 647.25 305.73
  Q 639.62 306.05 627.10 305.48"
/>
<path stroke="#444747" vector-effect="non-scaling-stroke" d="
  M 627.10 305.48
  L 595.64 303.05
  A 1.06 1.02 33.0 0 0 595.06 303.16
  C 575.79 312.78 557.15 322.93 540.00 335.49
  Q 525.76 345.92 515.66 359.13
  Q 511.03 365.19 509.07 372.12
  A 3.20 3.18 28.3 0 0 510.06 375.40
  Q 512.15 377.20 515.42 378.39
  C 523.87 381.47 532.10 382.51 542.21 383.76
  C 545.19 384.13 548.47 384.01 551.45 384.46
  Q 555.46 385.08 558.42 384.98
  Q 560.03 384.92 577.48 385.58
  Q 584.05 385.83 596.53 385.84
  Q 647.25 385.86 698.12 385.87"
/>
<path stroke="#606565" vector-effect="non-scaling-stroke" d="
  M 627.10 305.48
  Q 606.70 318.21 587.30 330.30
  Q 573.14 339.13 562.29 347.30
  C 553.04 354.27 545.67 361.37 540.45 371.36
  A 0.29 0.29 0.0 0 0 540.68 371.78
  Q 543.94 372.11 556.88 373.06
  Q 629.79 378.44 690.77 384.50
  Q 696.05 385.02 698.12 385.87"
/>
<path stroke="#484c4c" vector-effect="non-scaling-stroke" d="
  M 752.49 381.93
  Q 746.29 365.81 734.09 353.66
  Q 726.99 346.59 719.14 340.36
  Q 695.80 321.81 671.97 304.60"
/>
<path stroke="#343737" vector-effect="non-scaling-stroke" d="
  M 338.93 817.00
  Q 336.20 827.44 336.10 837.26
  Q 336.02 844.43 335.91 855.08
  A 5.12 4.62 42.1 0 0 336.01 856.06
  Q 336.53 858.54 336.83 861.14
  C 338.87 878.65 346.98 896.89 356.85 912.18
  Q 368.81 930.70 386.84 950.90
  Q 399.35 964.91 410.51 975.09
  C 417.29 981.27 424.44 988.94 429.24 993.57
  A 2.72 2.68 -11.8 0 0 430.14 994.15
  Q 432.40 995.03 433.51 994.99
  Q 443.37 994.56 450.99 995.62
  C 455.04 996.19 458.28 995.84 462.11 996.43
  Q 465.67 996.98 470.43 997.05
  C 475.35 997.12 479.58 998.03 483.97 998.00
  C 491.16 997.96 498.18 999.20 505.01 999.01
  C 511.70 998.81 522.02 1000.16 529.99 1000.00
  Q 534.38 999.91 554.83 1000.62
  Q 567.96 1001.07 579.68 1001.05
  Q 621.13 1000.98 690.99 1001.05
  C 709.26 1001.07 726.06 1000.07 744.00 999.99
  C 750.89 999.96 759.52 999.13 767.30 998.93"
/>
<path stroke="#2d2f2f" vector-effect="non-scaling-stroke" d="
  M 767.30 998.93
  Q 779.78 998.77 792.25 998.02
  Q 794.91 997.86 797.51 997.26
  A 7.69 7.57 -50.4 0 1 799.37 997.07
  Q 803.99 997.14 809.07 996.37
  C 812.45 995.85 816.04 996.34 819.05 995.75
  Q 821.66 995.24 826.49 995.03
  Q 830.85 994.85 837.36 993.87
  A 2.06 1.91 -63.8 0 0 838.20 993.55
  Q 844.62 989.20 846.30 987.80
  C 857.41 978.57 865.56 969.50 878.86 955.95
  Q 889.08 945.55 894.84 938.32
  Q 907.62 922.28 917.48 905.24
  Q 925.23 891.85 930.09 876.56
  Q 935.17 860.58 934.61 843.77
  Q 934.00 825.88 930.85 813.63
  Q 927.21 799.49 917.57 780.40
  Q 910.99 767.37 906.86 761.13
  Q 881.02 722.10 856.69 690.83
  C 856.27 690.30 856.05 689.47 855.60 688.90
  Q 851.96 684.33 806.52 627.12
  A 0.30 0.29 -49.3 0 0 806.03 627.16
  Q 788.40 659.75 768.01 695.78
  Q 749.91 727.78 729.31 757.30
  Q 712.38 781.55 694.38 799.13
  Q 683.57 809.69 668.76 817.93"
/>
<path stroke="#343737" vector-effect="non-scaling-stroke" d="
  M 668.76 817.93
  Q 661.76 821.32 656.73 822.75
  Q 630.56 830.20 609.45 817.16
  C 595.35 808.46 585.75 793.73 581.32 777.71
  C 570.40 738.30 586.30 696.70 605.42 662.39
  Q 624.25 628.60 648.76 595.00
  Q 665.05 572.67 677.21 556.19
  Q 690.20 538.58 702.89 524.14
  Q 721.46 503.02 729.10 493.90"
/>
<path stroke="#2d2f2f" vector-effect="non-scaling-stroke" d="
  M 729.10 493.90
  Q 736.71 485.20 743.09 476.82
  Q 746.08 472.90 748.69 468.22
  A 4.57 4.53 -35.1 0 0 749.21 465.31
  L 741.50 415.64
  A 0.69 0.69 0.0 0 0 740.82 415.06
  L 715.25 415.01"
/>
<path stroke="#343737" vector-effect="non-scaling-stroke" d="
  M 715.25 415.01
  L 573.73 415.01"
/>
<path stroke="#444747" vector-effect="non-scaling-stroke" d="
  M 573.73 415.01
  L 550.85 415.06
  A 0.84 0.84 0.0 0 0 550.11 415.50
  Q 549.23 417.18 548.77 419.03
  C 536.29 468.10 522.55 517.06 500.15 562.33
  Q 479.26 604.56 450.13 643.14
  Q 430.06 669.71 404.66 702.32
  C 393.64 716.46 382.48 731.84 372.28 747.02
  Q 357.89 768.44 347.65 790.66
  Q 342.02 802.87 338.93 817.00"
/>
<path stroke="#606565" vector-effect="non-scaling-stroke" d="
  M 573.73 415.01
  Q 567.87 442.80 560.60 470.07
  Q 549.72 510.87 532.15 549.64
  Q 520.67 574.98 504.13 602.85
  C 478.38 646.23 448.80 688.05 417.75 727.50
  Q 378.00 778.00 338.93 817.00"
/>
<path stroke="#484c4c" vector-effect="non-scaling-stroke" d="
  M 715.25 415.01
  Q 720.02 433.74 722.89 452.54
  Q 725.98 472.79 729.10 493.90"
/>
<path stroke="#484c4c" vector-effect="non-scaling-stroke" d="
  M 668.76 817.93
  Q 672.07 817.38 675.92 815.68
  C 694.33 807.54 709.70 795.55 724.01 781.75
  Q 747.26 759.33 767.85 732.34
  C 780.61 715.61 792.60 697.05 804.75 679.24
  A 0.39 0.38 -44.4 0 1 805.39 679.24
  Q 814.15 692.64 821.11 703.64
  Q 825.47 710.53 839.18 726.83
  Q 861.36 753.19 869.93 764.05
  C 878.65 775.11 886.73 787.66 889.15 800.99
  Q 889.28 801.67 890.60 813.08
  Q 891.28 818.95 890.81 823.28
  C 888.09 848.11 878.79 872.58 867.60 894.59
  Q 858.15 913.18 842.11 931.87
  Q 836.33 938.61 831.21 942.96
  Q 784.14 983.00 768.90 995.89
  Q 767.82 996.80 767.30 998.93"
/>
<path stroke="#2d2f2f" vector-effect="non-scaling-stroke" d="
  M 746.90 673.21
  Q 727.27 667.98 715.19 655.04
  Q 693.11 631.39 686.40 599.45
  A 1.30 1.30 0.0 0 0 684.04 599.01
  C 680.52 604.51 675.67 609.31 671.61 614.95
  Q 651.86 642.35 636.30 669.04
  Q 623.88 690.33 615.59 712.09
  C 608.76 730.04 605.05 751.46 610.52 769.98
  C 614.89 784.76 625.32 796.76 641.70 795.12
  C 651.71 794.12 661.83 787.69 669.40 780.88
  Q 678.92 772.31 684.29 766.02
  C 702.06 745.19 717.55 721.68 731.71 697.96
  Q 741.29 681.91 744.82 676.61
  C 745.49 675.62 746.27 674.77 747.10 673.95
  A 0.44 0.44 0.0 0 0 746.90 673.21"
/>
<path stroke="#444747" vector-effect="non-scaling-stroke" d="
  M 393.66 1021.26
  L 369.71 1018.33
  A 14.46 14.34 45.3 0 0 366.37 1018.30
  Q 355.37 1019.44 342.99 1021.73
  C 336.28 1022.97 327.94 1025.23 323.73 1030.99
  Q 315.30 1042.55 312.02 1056.56
  Q 306.78 1078.96 304.11 1103.19
  A 0.68 0.68 0.0 0 0 304.71 1103.95
  L 326.04 1106.37"
/>
<path stroke="#343737" vector-effect="non-scaling-stroke" d="
  M 326.04 1106.37
  Q 375.92 1112.44 425.50 1115.53
  C 450.56 1117.09 477.25 1118.77 503.99 1119.11
  C 506.32 1119.14 508.36 1119.82 511.02 1119.90
  Q 512.21 1119.94 533.90 1120.04
  C 537.67 1120.06 541.19 1120.91 545.18 1120.89
  Q 560.32 1120.83 575.46 1120.83"
/>
<path stroke="#2d2f2f" vector-effect="non-scaling-stroke" d="
  M 575.46 1120.83
  Q 577.56 1121.28 579.69 1121.31
  Q 632.86 1122.21 674.53 1122.07
  Q 686.70 1122.03 695.05 1121.68
  Q 712.91 1120.94 715.51 1120.94
  Q 726.28 1120.93 735.43 1120.91
  C 738.79 1120.90 742.33 1120.05 746.34 1120.04
  C 756.92 1120.02 764.77 1120.66 773.53 1119.21
  A 10.32 10.24 -49.0 0 1 775.28 1119.08
  Q 787.56 1119.32 796.50 1118.52
  C 803.90 1117.86 811.04 1118.21 818.02 1117.47
  C 824.06 1116.83 830.12 1117.31 835.00 1116.74
  Q 840.02 1116.16 848.68 1115.84
  Q 850.54 1115.78 874.55 1114.04
  Q 916.77 1110.98 954.00 1106.18
  C 960.99 1105.28 967.72 1104.14 974.12 1103.88
  A 0.94 0.93 -6.2 0 0 975.00 1102.79
  Q 974.17 1097.86 973.38 1091.55
  Q 971.26 1074.41 966.95 1057.05
  Q 964.62 1047.66 962.47 1043.12
  Q 959.27 1036.33 954.84 1030.65
  Q 951.80 1026.76 947.97 1025.24
  Q 937.51 1021.08 923.96 1020.01"
/>
<path stroke="#343737" vector-effect="non-scaling-stroke" d="
  M 923.96 1020.01
  Q 916.16 1018.25 908.19 1018.16
  C 904.43 1018.11 900.81 1019.04 897.43 1018.98
  C 892.99 1018.90 889.00 1020.19 883.87 1020.00
  Q 883.29 1019.98 878.42 1020.52
  Q 856.64 1022.92 855.57 1022.96
  C 851.11 1023.10 847.51 1024.09 842.84 1024.08
  A 9.41 9.37 39.1 0 0 840.96 1024.27
  C 836.67 1025.15 832.30 1024.80 828.07 1025.53
  Q 825.03 1026.04 819.94 1026.05
  A 11.58 11.50 39.5 0 0 817.80 1026.25
  C 812.73 1027.20 807.44 1026.83 802.40 1027.48
  Q 797.92 1028.07 794.79 1028.00
  C 789.33 1027.88 783.98 1028.97 778.24 1028.97
  C 770.63 1028.98 763.92 1030.00 756.26 1029.98
  C 746.30 1029.97 738.01 1030.87 727.50 1030.93
  C 691.72 1031.13 648.83 1031.88 614.25 1031.61
  Q 612.35 1031.60 610.50 1031.59
  Q 592.39 1031.56 576.63 1031.25
  C 560.01 1030.92 542.53 1031.44 528.13 1030.42
  Q 522.20 1030.00 514.87 1029.98
  C 506.78 1029.96 500.34 1028.89 492.86 1028.98
  C 487.06 1029.05 482.04 1028.02 475.88 1027.99
  Q 471.87 1027.97 467.67 1027.40
  C 463.25 1026.80 459.06 1027.14 454.41 1026.44
  C 450.29 1025.83 446.90 1026.16 442.80 1025.51
  C 438.59 1024.85 434.37 1025.02 429.82 1024.24
  A 13.67 13.26 49.2 0 0 427.69 1024.05
  Q 423.78 1024.01 421.93 1023.67
  C 417.57 1022.88 414.91 1023.15 410.58 1022.46
  Q 408.40 1022.10 404.65 1021.98
  Q 399.01 1021.79 393.66 1021.26"
/>
<path stroke="#484c4c" vector-effect="non-scaling-stroke" d="
  M 923.96 1020.01
  Q 933.02 1036.77 938.88 1054.85
  Q 941.86 1064.04 942.53 1073.73
  A 0.58 0.57 -6.5 0 1 942.04 1074.34
  Q 872.01 1084.45 793.41 1096.66
  Q 723.88 1107.46 655.74 1113.40
  C 644.65 1114.36 636.46 1115.63 627.82 1116.17
  Q 624.66 1116.36 606.90 1118.28
  C 595.82 1119.47 585.68 1119.69 575.46 1120.83"
/>
<path stroke="#606565" vector-effect="non-scaling-stroke" d="
  M 326.04 1106.37
  Q 327.94 1079.57 339.70 1055.49
  Q 347.66 1039.20 363.71 1031.72
  Q 377.21 1025.42 393.66 1021.26"
/>
</g>
<path fill="#181919" d="
  M 379.58 988.93
  A 0.40 0.40 0.0 0 0 379.86 988.25
  C 356.55 964.38 334.11 938.28 319.79 907.95
  Q 308.53 884.10 306.16 861.43
  Q 305.74 857.37 305.41 838.24
  A 1.68 1.65 -30.1 0 1 305.66 837.33
  Q 305.96 836.83 305.98 836.49
  Q 306.87 816.46 311.96 800.19
  Q 319.48 776.17 333.34 752.56
  C 361.41 704.75 397.36 663.99 431.58 617.34
  Q 465.20 571.51 486.49 518.98
  C 491.21 507.31 494.99 496.43 498.28 483.65
  Q 503.11 464.90 508.30 446.21
  Q 513.70 426.81 517.37 411.61
  A 0.70 0.69 27.6 0 0 517.15 410.92
  C 515.83 409.80 514.35 410.11 512.92 409.68
  Q 511.06 409.12 507.52 407.97
  Q 497.53 404.73 490.50 398.81
  Q 480.87 390.70 479.10 378.77
  Q 477.39 367.24 482.52 355.77
  C 490.20 338.59 505.52 323.20 520.34 312.08
  Q 537.82 298.98 558.31 288.08
  A 1.82 1.82 0.0 0 0 558.74 285.18
  Q 537.38 263.81 529.16 234.45
  Q 528.14 230.80 527.02 226.77
  A 3.83 3.56 -54.2 0 1 526.89 225.72
  C 526.94 223.76 525.80 222.22 525.86 220.40
  C 525.94 217.81 524.78 214.50 524.70 211.44
  Q 524.59 207.37 524.62 198.50
  Q 524.64 191.98 525.33 189.56
  C 525.99 187.25 525.57 184.64 526.59 182.24
  A 2.17 0.74 -61.0 0 0 526.86 180.73
  Q 526.74 180.42 527.33 178.09
  Q 528.78 172.36 530.03 168.26
  Q 535.72 149.64 546.97 134.24
  C 558.09 119.04 571.66 106.78 588.74 97.72
  Q 606.25 88.43 624.75 85.18
  C 632.41 83.83 638.69 84.21 646.61 84.12
  Q 650.09 84.09 655.35 84.88
  Q 673.78 87.66 691.78 96.96
  Q 709.45 106.10 722.89 119.82
  Q 745.49 142.90 753.67 173.93
  C 754.08 175.49 754.06 177.15 754.85 178.39
  A 0.89 0.82 -68.9 0 1 754.99 178.75
  L 757.19 192.31
  A 0.39 0.14 64.3 0 1 757.20 192.40
  Q 757.65 207.71 757.15 212.74
  Q 756.66 217.85 755.08 225.53
  Q 748.02 260.05 723.27 285.19
  A 1.85 1.84 -53.8 0 0 723.72 288.12
  Q 745.91 299.81 764.67 314.49
  Q 779.74 326.30 790.49 340.49
  C 796.52 348.45 801.86 358.15 802.87 367.86
  Q 803.22 371.29 803.05 375.68
  C 802.58 387.70 795.22 397.50 784.75 403.42
  A 0.98 0.95 24.0 0 1 784.45 403.53
  L 783.50 403.68
  A 1.56 1.21 -52.0 0 0 783.22 403.75
  L 771.10 408.62
  A 0.51 0.51 0.0 0 0 770.79 409.17
  Q 774.41 431.40 778.32 457.11
  Q 779.19 462.83 779.04 466.45
  Q 778.77 473.06 777.95 475.74
  Q 776.25 481.26 772.18 487.44
  Q 766.92 495.43 759.11 504.87
  Q 748.48 517.73 719.72 550.72
  Q 718.33 552.32 717.91 553.92
  Q 716.44 559.56 715.77 563.60
  Q 714.92 568.63 714.97 573.44
  C 715.04 581.32 714.55 586.35 715.70 592.48
  Q 719.94 615.08 735.48 632.80
  Q 745.75 644.51 761.65 644.78
  A 0.85 0.83 14.3 0 0 762.41 644.34
  L 795.85 582.56
  A 1.07 1.06 14.0 0 1 796.79 582.00
  L 808.44 582.00
  A 1.17 1.16 70.7 0 1 809.35 582.44
  Q 874.58 664.59 879.23 670.36
  Q 890.09 683.83 900.04 697.80
  Q 914.48 718.06 919.93 725.87
  Q 928.94 738.80 938.84 756.40
  C 952.79 781.23 962.92 807.53 963.99 835.97
  A 3.15 3.01 -60.8 0 0 964.31 837.21
  Q 964.33 837.24 964.34 837.26
  A 2.69 2.58 -58.3 0 1 964.59 838.43
  Q 964.51 844.44 964.25 853.86
  Q 963.99 863.45 962.98 869.11
  C 957.30 900.77 940.90 929.43 920.58 954.35
  Q 906.00 972.22 890.02 988.33
  A 0.37 0.37 0.0 0 0 890.28 988.97
  Q 901.65 989.08 915.09 988.93
  C 926.27 988.80 934.97 990.10 947.39 992.82
  Q 966.06 996.92 978.82 1010.89
  Q 980.29 1012.50 981.19 1013.81
  C 989.00 1025.18 994.36 1035.00 996.99 1047.99
  C 999.32 1059.52 1000.81 1066.78 1002.34 1077.73
  Q 1005.72 1102.02 1008.61 1128.84
  A 0.71 0.70 -7.8 0 1 1008.02 1129.61
  Q 954.29 1137.83 901.39 1142.58
  Q 845.03 1147.65 757.85 1150.40
  A 3.84 3.67 36.9 0 0 757.18 1150.48
  Q 755.61 1150.82 755.00 1150.82
  C 738.06 1151.03 728.88 1150.89 720.51 1151.60
  Q 716.97 1151.91 713.50 1151.91
  Q 681.25 1151.97 675.01 1152.43
  C 674.13 1152.50 673.02 1152.80 672.32 1152.80
  Q 640.22 1153.04 606.18 1152.79
  A 1.55 1.46 54.7 0 1 605.73 1152.70
  Q 604.32 1152.17 602.82 1152.16
  Q 567.20 1151.99 558.26 1151.69
  Q 557.71 1151.67 556.97 1151.44
  A 5.87 5.76 -35.7 0 0 555.35 1151.19
  Q 529.50 1150.95 523.75 1150.77
  Q 523.03 1150.75 522.00 1150.48
  A 2.71 2.70 53.3 0 0 521.39 1150.39
  Q 436.18 1147.73 380.48 1142.82
  Q 325.47 1137.97 271.08 1129.55
  A 0.80 0.80 0.0 0 1 270.41 1128.66
  Q 271.80 1117.49 274.02 1098.00
  Q 277.27 1069.50 282.90 1043.96
  C 284.87 1035.04 289.96 1025.89 294.96 1018.01
  Q 299.06 1011.55 304.13 1006.89
  C 316.39 995.62 331.30 992.09 347.52 989.84
  C 358.06 988.39 369.05 989.21 379.58 988.93
  Z
  M 603.51 273.11
  Q 607.34 273.80 611.59 274.03
  C 616.18 274.26 620.49 274.91 624.25 274.98
  Q 630.02 275.07 654.41 275.03
  C 659.80 275.02 665.17 274.38 671.75 273.95
  Q 683.38 273.18 698.00 269.51
  Q 699.04 268.64 699.73 267.97
  Q 720.61 247.97 726.12 220.26
  C 726.90 216.33 726.96 213.89 727.54 210.45
  Q 728.12 207.04 728.02 203.04
  C 727.20 171.22 711.70 141.94 684.20 125.38
  Q 667.56 114.97 649.50 112.72
  Q 638.29 111.04 627.68 113.39
  Q 596.02 120.43 575.82 144.02
  Q 561.11 161.21 555.74 185.65
  C 554.95 189.24 554.99 191.79 554.42 195.36
  Q 553.90 198.60 553.97 202.66
  Q 554.66 241.08 582.28 268.35
  A 5.54 5.51 72.2 0 0 585.21 269.87
  L 603.51 273.11
  Z
  M 698.12 385.87
  Q 710.85 385.19 723.74 384.98
  C 727.50 384.92 730.85 384.20 734.46 384.11
  Q 737.90 384.01 742.50 383.39
  Q 747.51 382.71 752.49 381.93
  Q 759.32 380.82 765.82 378.58
  Q 769.19 377.42 771.85 375.25
  A 1.69 1.68 -11.1 0 0 772.39 374.45
  C 773.16 371.89 770.98 367.45 769.62 364.37
  Q 768.06 360.83 761.93 353.80
  Q 750.68 340.90 734.20 330.04
  Q 712.29 315.59 686.59 303.11
  A 1.23 1.23 0.0 0 0 685.96 303.00
  L 671.97 304.60
  Q 659.31 305.23 647.25 305.73
  Q 639.62 306.05 627.10 305.48
  L 595.64 303.05
  A 1.06 1.02 33.0 0 0 595.06 303.16
  C 575.79 312.78 557.15 322.93 540.00 335.49
  Q 525.76 345.92 515.66 359.13
  Q 511.03 365.19 509.07 372.12
  A 3.20 3.18 28.3 0 0 510.06 375.40
  Q 512.15 377.20 515.42 378.39
  C 523.87 381.47 532.10 382.51 542.21 383.76
  C 545.19 384.13 548.47 384.01 551.45 384.46
  Q 555.46 385.08 558.42 384.98
  Q 560.03 384.92 577.48 385.58
  Q 584.05 385.83 596.53 385.84
  Q 647.25 385.86 698.12 385.87
  Z
  M 338.93 817.00
  Q 336.20 827.44 336.10 837.26
  Q 336.02 844.43 335.91 855.08
  A 5.12 4.62 42.1 0 0 336.01 856.06
  Q 336.53 858.54 336.83 861.14
  C 338.87 878.65 346.98 896.89 356.85 912.18
  Q 368.81 930.70 386.84 950.90
  Q 399.35 964.91 410.51 975.09
  C 417.29 981.27 424.44 988.94 429.24 993.57
  A 2.72 2.68 -11.8 0 0 430.14 994.15
  Q 432.40 995.03 433.51 994.99
  Q 443.37 994.56 450.99 995.62
  C 455.04 996.19 458.28 995.84 462.11 996.43
  Q 465.67 996.98 470.43 997.05
  C 475.35 997.12 479.58 998.03 483.97 998.00
  C 491.16 997.96 498.18 999.20 505.01 999.01
  C 511.70 998.81 522.02 1000.16 529.99 1000.00
  Q 534.38 999.91 554.83 1000.62
  Q 567.96 1001.07 579.68 1001.05
  Q 621.13 1000.98 690.99 1001.05
  C 709.26 1001.07 726.06 1000.07 744.00 999.99
  C 750.89 999.96 759.52 999.13 767.30 998.93
  Q 779.78 998.77 792.25 998.02
  Q 794.91 997.86 797.51 997.26
  A 7.69 7.57 -50.4 0 1 799.37 997.07
  Q 803.99 997.14 809.07 996.37
  C 812.45 995.85 816.04 996.34 819.05 995.75
  Q 821.66 995.24 826.49 995.03
  Q 830.85 994.85 837.36 993.87
  A 2.06 1.91 -63.8 0 0 838.20 993.55
  Q 844.62 989.20 846.30 987.80
  C 857.41 978.57 865.56 969.50 878.86 955.95
  Q 889.08 945.55 894.84 938.32
  Q 907.62 922.28 917.48 905.24
  Q 925.23 891.85 930.09 876.56
  Q 935.17 860.58 934.61 843.77
  Q 934.00 825.88 930.85 813.63
  Q 927.21 799.49 917.57 780.40
  Q 910.99 767.37 906.86 761.13
  Q 881.02 722.10 856.69 690.83
  C 856.27 690.30 856.05 689.47 855.60 688.90
  Q 851.96 684.33 806.52 627.12
  A 0.30 0.29 -49.3 0 0 806.03 627.16
  Q 788.40 659.75 768.01 695.78
  Q 749.91 727.78 729.31 757.30
  Q 712.38 781.55 694.38 799.13
  Q 683.57 809.69 668.76 817.93
  Q 661.76 821.32 656.73 822.75
  Q 630.56 830.20 609.45 817.16
  C 595.35 808.46 585.75 793.73 581.32 777.71
  C 570.40 738.30 586.30 696.70 605.42 662.39
  Q 624.25 628.60 648.76 595.00
  Q 665.05 572.67 677.21 556.19
  Q 690.20 538.58 702.89 524.14
  Q 721.46 503.02 729.10 493.90
  Q 736.71 485.20 743.09 476.82
  Q 746.08 472.90 748.69 468.22
  A 4.57 4.53 -35.1 0 0 749.21 465.31
  L 741.50 415.64
  A 0.69 0.69 0.0 0 0 740.82 415.06
  L 715.25 415.01
  L 573.73 415.01
  L 550.85 415.06
  A 0.84 0.84 0.0 0 0 550.11 415.50
  Q 549.23 417.18 548.77 419.03
  C 536.29 468.10 522.55 517.06 500.15 562.33
  Q 479.26 604.56 450.13 643.14
  Q 430.06 669.71 404.66 702.32
  C 393.64 716.46 382.48 731.84 372.28 747.02
  Q 357.89 768.44 347.65 790.66
  Q 342.02 802.87 338.93 817.00
  Z
  M 746.90 673.21
  Q 727.27 667.98 715.19 655.04
  Q 693.11 631.39 686.40 599.45
  A 1.30 1.30 0.0 0 0 684.04 599.01
  C 680.52 604.51 675.67 609.31 671.61 614.95
  Q 651.86 642.35 636.30 669.04
  Q 623.88 690.33 615.59 712.09
  C 608.76 730.04 605.05 751.46 610.52 769.98
  C 614.89 784.76 625.32 796.76 641.70 795.12
  C 651.71 794.12 661.83 787.69 669.40 780.88
  Q 678.92 772.31 684.29 766.02
  C 702.06 745.19 717.55 721.68 731.71 697.96
  Q 741.29 681.91 744.82 676.61
  C 745.49 675.62 746.27 674.77 747.10 673.95
  A 0.44 0.44 0.0 0 0 746.90 673.21
  Z
  M 393.66 1021.26
  L 369.71 1018.33
  A 14.46 14.34 45.3 0 0 366.37 1018.30
  Q 355.37 1019.44 342.99 1021.73
  C 336.28 1022.97 327.94 1025.23 323.73 1030.99
  Q 315.30 1042.55 312.02 1056.56
  Q 306.78 1078.96 304.11 1103.19
  A 0.68 0.68 0.0 0 0 304.71 1103.95
  L 326.04 1106.37
  Q 375.92 1112.44 425.50 1115.53
  C 450.56 1117.09 477.25 1118.77 503.99 1119.11
  C 506.32 1119.14 508.36 1119.82 511.02 1119.90
  Q 512.21 1119.94 533.90 1120.04
  C 537.67 1120.06 541.19 1120.91 545.18 1120.89
  Q 560.32 1120.83 575.46 1120.83
  Q 577.56 1121.28 579.69 1121.31
  Q 632.86 1122.21 674.53 1122.07
  Q 686.70 1122.03 695.05 1121.68
  Q 712.91 1120.94 715.51 1120.94
  Q 726.28 1120.93 735.43 1120.91
  C 738.79 1120.90 742.33 1120.05 746.34 1120.04
  C 756.92 1120.02 764.77 1120.66 773.53 1119.21
  A 10.32 10.24 -49.0 0 1 775.28 1119.08
  Q 787.56 1119.32 796.50 1118.52
  C 803.90 1117.86 811.04 1118.21 818.02 1117.47
  C 824.06 1116.83 830.12 1117.31 835.00 1116.74
  Q 840.02 1116.16 848.68 1115.84
  Q 850.54 1115.78 874.55 1114.04
  Q 916.77 1110.98 954.00 1106.18
  C 960.99 1105.28 967.72 1104.14 974.12 1103.88
  A 0.94 0.93 -6.2 0 0 975.00 1102.79
  Q 974.17 1097.86 973.38 1091.55
  Q 971.26 1074.41 966.95 1057.05
  Q 964.62 1047.66 962.47 1043.12
  Q 959.27 1036.33 954.84 1030.65
  Q 951.80 1026.76 947.97 1025.24
  Q 937.51 1021.08 923.96 1020.01
  Q 916.16 1018.25 908.19 1018.16
  C 904.43 1018.11 900.81 1019.04 897.43 1018.98
  C 892.99 1018.90 889.00 1020.19 883.87 1020.00
  Q 883.29 1019.98 878.42 1020.52
  Q 856.64 1022.92 855.57 1022.96
  C 851.11 1023.10 847.51 1024.09 842.84 1024.08
  A 9.41 9.37 39.1 0 0 840.96 1024.27
  C 836.67 1025.15 832.30 1024.80 828.07 1025.53
  Q 825.03 1026.04 819.94 1026.05
  A 11.58 11.50 39.5 0 0 817.80 1026.25
  C 812.73 1027.20 807.44 1026.83 802.40 1027.48
  Q 797.92 1028.07 794.79 1028.00
  C 789.33 1027.88 783.98 1028.97 778.24 1028.97
  C 770.63 1028.98 763.92 1030.00 756.26 1029.98
  C 746.30 1029.97 738.01 1030.87 727.50 1030.93
  C 691.72 1031.13 648.83 1031.88 614.25 1031.61
  Q 612.35 1031.60 610.50 1031.59
  Q 592.39 1031.56 576.63 1031.25
  C 560.01 1030.92 542.53 1031.44 528.13 1030.42
  Q 522.20 1030.00 514.87 1029.98
  C 506.78 1029.96 500.34 1028.89 492.86 1028.98
  C 487.06 1029.05 482.04 1028.02 475.88 1027.99
  Q 471.87 1027.97 467.67 1027.40
  C 463.25 1026.80 459.06 1027.14 454.41 1026.44
  C 450.29 1025.83 446.90 1026.16 442.80 1025.51
  C 438.59 1024.85 434.37 1025.02 429.82 1024.24
  A 13.67 13.26 49.2 0 0 427.69 1024.05
  Q 423.78 1024.01 421.93 1023.67
  C 417.57 1022.88 414.91 1023.15 410.58 1022.46
  Q 408.40 1022.10 404.65 1021.98
  Q 399.01 1021.79 393.66 1021.26
  Z"
/>
<path fill="#707575" d="
  M 649.50 112.72
  Q 636.28 121.38 623.98 129.51
  C 616.97 134.15 610.73 138.72 605.10 143.84
  C 585.39 161.74 573.72 193.49 578.86 219.69
  Q 581.60 233.69 588.80 247.71
  Q 596.39 262.52 603.51 273.11
  L 585.21 269.87
  A 5.54 5.51 72.2 0 1 582.28 268.35
  Q 554.66 241.08 553.97 202.66
  Q 553.90 198.60 554.42 195.36
  C 554.99 191.79 554.95 189.24 555.74 185.65
  Q 561.11 161.21 575.82 144.02
  Q 596.02 120.43 627.68 113.39
  Q 638.29 111.04 649.50 112.72
  Z"
/>
<path fill="#4f5454" d="
  M 684.20 125.38
  Q 692.63 138.08 699.91 150.58
  Q 714.79 176.14 714.23 206.47
  C 713.85 226.88 709.80 247.98 699.23 265.93
  Q 698.41 267.34 698.00 269.51
  Q 683.38 273.18 671.75 273.95
  C 665.17 274.38 659.80 275.02 654.41 275.03
  Q 630.02 275.07 624.25 274.98
  C 620.49 274.91 616.18 274.26 611.59 274.03
  Q 607.34 273.80 603.51 273.11
  Q 596.39 262.52 588.80 247.71
  Q 581.60 233.69 578.86 219.69
  C 573.72 193.49 585.39 161.74 605.10 143.84
  C 610.73 138.72 616.97 134.15 623.98 129.51
  Q 636.28 121.38 649.50 112.72
  Q 667.56 114.97 684.20 125.38
  Z"
/>
<path fill="#414444" d="
  M 698.00 269.51
  Q 698.41 267.34 699.23 265.93
  C 709.80 247.98 713.85 226.88 714.23 206.47
  Q 714.79 176.14 699.91 150.58
  Q 692.63 138.08 684.20 125.38
  C 711.70 141.94 727.20 171.22 728.02 203.04
  Q 728.12 207.04 727.54 210.45
  C 726.96 213.89 726.90 216.33 726.12 220.26
  Q 720.61 247.97 699.73 267.97
  Q 699.04 268.64 698.00 269.51
  Z"
/>
<path fill="#707575" d="
  M 627.10 305.48
  Q 606.70 318.21 587.30 330.30
  Q 573.14 339.13 562.29 347.30
  C 553.04 354.27 545.67 361.37 540.45 371.36
  A 0.29 0.29 0.0 0 0 540.68 371.78
  Q 543.94 372.11 556.88 373.06
  Q 629.79 378.44 690.77 384.50
  Q 696.05 385.02 698.12 385.87
  Q 647.25 385.86 596.53 385.84
  Q 584.05 385.83 577.48 385.58
  Q 560.03 384.92 558.42 384.98
  Q 555.46 385.08 551.45 384.46
  C 548.47 384.01 545.19 384.13 542.21 383.76
  C 532.10 382.51 523.87 381.47 515.42 378.39
  Q 512.15 377.20 510.06 375.40
  A 3.20 3.18 28.3 0 1 509.07 372.12
  Q 511.03 365.19 515.66 359.13
  Q 525.76 345.92 540.00 335.49
  C 557.15 322.93 575.79 312.78 595.06 303.16
  A 1.06 1.02 33.0 0 1 595.64 303.05
  L 627.10 305.48
  Z"
/>
<path fill="#414444" d="
  M 752.49 381.93
  Q 746.29 365.81 734.09 353.66
  Q 726.99 346.59 719.14 340.36
  Q 695.80 321.81 671.97 304.60
  L 685.96 303.00
  A 1.23 1.23 0.0 0 1 686.59 303.11
  Q 712.29 315.59 734.20 330.04
  Q 750.68 340.90 761.93 353.80
  Q 768.06 360.83 769.62 364.37
  C 770.98 367.45 773.16 371.89 772.39 374.45
  A 1.69 1.68 -11.1 0 1 771.85 375.25
  Q 769.19 377.42 765.82 378.58
  Q 759.32 380.82 752.49 381.93
  Z"
/>
<path fill="#4f5454" d="
  M 671.97 304.60
  Q 695.80 321.81 719.14 340.36
  Q 726.99 346.59 734.09 353.66
  Q 746.29 365.81 752.49 381.93
  Q 747.51 382.71 742.50 383.39
  Q 737.90 384.01 734.46 384.11
  C 730.85 384.20 727.50 384.92 723.74 384.98
  Q 710.85 385.19 698.12 385.87
  Q 696.05 385.02 690.77 384.50
  Q 629.79 378.44 556.88 373.06
  Q 543.94 372.11 540.68 371.78
  A 0.29 0.29 0.0 0 1 540.45 371.36
  C 545.67 361.37 553.04 354.27 562.29 347.30
  Q 573.14 339.13 587.30 330.30
  Q 606.70 318.21 627.10 305.48
  Q 639.62 306.05 647.25 305.73
  Q 659.31 305.23 671.97 304.60
  Z"
/>
<path fill="#707575" d="
  M 573.73 415.01
  Q 567.87 442.80 560.60 470.07
  Q 549.72 510.87 532.15 549.64
  Q 520.67 574.98 504.13 602.85
  C 478.38 646.23 448.80 688.05 417.75 727.50
  Q 378.00 778.00 338.93 817.00
  Q 342.02 802.87 347.65 790.66
  Q 357.89 768.44 372.28 747.02
  C 382.48 731.84 393.64 716.46 404.66 702.32
  Q 430.06 669.71 450.13 643.14
  Q 479.26 604.56 500.15 562.33
  C 522.55 517.06 536.29 468.10 548.77 419.03
  Q 549.23 417.18 550.11 415.50
  A 0.84 0.84 0.0 0 1 550.85 415.06
  L 573.73 415.01
  Z"
/>
<path fill="#4f5454" d="
  M 715.25 415.01
  Q 720.02 433.74 722.89 452.54
  Q 725.98 472.79 729.10 493.90
  Q 721.46 503.02 702.89 524.14
  Q 690.20 538.58 677.21 556.19
  Q 665.05 572.67 648.76 595.00
  Q 624.25 628.60 605.42 662.39
  C 586.30 696.70 570.40 738.30 581.32 777.71
  C 585.75 793.73 595.35 808.46 609.45 817.16
  Q 630.56 830.20 656.73 822.75
  Q 661.76 821.32 668.76 817.93
  Q 672.07 817.38 675.92 815.68
  C 694.33 807.54 709.70 795.55 724.01 781.75
  Q 747.26 759.33 767.85 732.34
  C 780.61 715.61 792.60 697.05 804.75 679.24
  A 0.39 0.38 -44.4 0 1 805.39 679.24
  Q 814.15 692.64 821.11 703.64
  Q 825.47 710.53 839.18 726.83
  Q 861.36 753.19 869.93 764.05
  C 878.65 775.11 886.73 787.66 889.15 800.99
  Q 889.28 801.67 890.60 813.08
  Q 891.28 818.95 890.81 823.28
  C 888.09 848.11 878.79 872.58 867.60 894.59
  Q 858.15 913.18 842.11 931.87
  Q 836.33 938.61 831.21 942.96
  Q 784.14 983.00 768.90 995.89
  Q 767.82 996.80 767.30 998.93
  C 759.52 999.13 750.89 999.96 744.00 999.99
  C 726.06 1000.07 709.26 1001.07 690.99 1001.05
  Q 621.13 1000.98 579.68 1001.05
  Q 567.96 1001.07 554.83 1000.62
  Q 534.38 999.91 529.99 1000.00
  C 522.02 1000.16 511.70 998.81 505.01 999.01
  C 498.18 999.20 491.16 997.96 483.97 998.00
  C 479.58 998.03 475.35 997.12 470.43 997.05
  Q 465.67 996.98 462.11 996.43
  C 458.28 995.84 455.04 996.19 450.99 995.62
  Q 443.37 994.56 433.51 994.99
  Q 432.40 995.03 430.14 994.15
  A 2.72 2.68 -11.8 0 1 429.24 993.57
  C 424.44 988.94 417.29 981.27 410.51 975.09
  Q 399.35 964.91 386.84 950.90
  Q 368.81 930.70 356.85 912.18
  C 346.98 896.89 338.87 878.65 336.83 861.14
  Q 336.53 858.54 336.01 856.06
  A 5.12 4.62 42.1 0 1 335.91 855.08
  Q 336.02 844.43 336.10 837.26
  Q 336.20 827.44 338.93 817.00
  Q 378.00 778.00 417.75 727.50
  C 448.80 688.05 478.38 646.23 504.13 602.85
  Q 520.67 574.98 532.15 549.64
  Q 549.72 510.87 560.60 470.07
  Q 567.87 442.80 573.73 415.01
  L 715.25 415.01
  Z"
/>
<path fill="#414444" d="
  M 729.10 493.90
  Q 725.98 472.79 722.89 452.54
  Q 720.02 433.74 715.25 415.01
  L 740.82 415.06
  A 0.69 0.69 0.0 0 1 741.50 415.64
  L 749.21 465.31
  A 4.57 4.53 -35.1 0 1 748.69 468.22
  Q 746.08 472.90 743.09 476.82
  Q 736.71 485.20 729.10 493.90
  Z"
/>
<path fill="#414444" d="
  M 747.10 673.95
  C 746.27 674.77 745.49 675.62 744.82 676.61
  Q 741.29 681.91 731.71 697.96
  C 717.55 721.68 702.06 745.19 684.29 766.02
  Q 678.92 772.31 669.40 780.88
  C 661.83 787.69 651.71 794.12 641.70 795.12
  C 625.32 796.76 614.89 784.76 610.52 769.98
  C 605.05 751.46 608.76 730.04 615.59 712.09
  Q 623.88 690.33 636.30 669.04
  Q 651.86 642.35 671.61 614.95
  C 675.67 609.31 680.52 604.51 684.04 599.01
  A 1.30 1.30 0.0 0 1 686.40 599.45
  Q 693.11 631.39 715.19 655.04
  Q 727.27 667.98 746.90 673.21
  A 0.44 0.44 0.0 0 1 747.10 673.95
  Z"
/>
<path fill="#414444" d="
  M 767.30 998.93
  Q 767.82 996.80 768.90 995.89
  Q 784.14 983.00 831.21 942.96
  Q 836.33 938.61 842.11 931.87
  Q 858.15 913.18 867.60 894.59
  C 878.79 872.58 888.09 848.11 890.81 823.28
  Q 891.28 818.95 890.60 813.08
  Q 889.28 801.67 889.15 800.99
  C 886.73 787.66 878.65 775.11 869.93 764.05
  Q 861.36 753.19 839.18 726.83
  Q 825.47 710.53 821.11 703.64
  Q 814.15 692.64 805.39 679.24
  A 0.39 0.38 -44.4 0 0 804.75 679.24
  C 792.60 697.05 780.61 715.61 767.85 732.34
  Q 747.26 759.33 724.01 781.75
  C 709.70 795.55 694.33 807.54 675.92 815.68
  Q 672.07 817.38 668.76 817.93
  Q 683.57 809.69 694.38 799.13
  Q 712.38 781.55 729.31 757.30
  Q 749.91 727.78 768.01 695.78
  Q 788.40 659.75 806.03 627.16
  A 0.30 0.29 -49.3 0 1 806.52 627.12
  Q 851.96 684.33 855.60 688.90
  C 856.05 689.47 856.27 690.30 856.69 690.83
  Q 881.02 722.10 906.86 761.13
  Q 910.99 767.37 917.57 780.40
  Q 927.21 799.49 930.85 813.63
  Q 934.00 825.88 934.61 843.77
  Q 935.17 860.58 930.09 876.56
  Q 925.23 891.85 917.48 905.24
  Q 907.62 922.28 894.84 938.32
  Q 889.08 945.55 878.86 955.95
  C 865.56 969.50 857.41 978.57 846.30 987.80
  Q 844.62 989.20 838.20 993.55
  A 2.06 1.91 -63.8 0 1 837.36 993.87
  Q 830.85 994.85 826.49 995.03
  Q 821.66 995.24 819.05 995.75
  C 816.04 996.34 812.45 995.85 809.07 996.37
  Q 803.99 997.14 799.37 997.07
  A 7.69 7.57 -50.4 0 0 797.51 997.26
  Q 794.91 997.86 792.25 998.02
  Q 779.78 998.77 767.30 998.93
  Z"
/>
<path fill="#4f5454" d="
  M 923.96 1020.01
  Q 933.02 1036.77 938.88 1054.85
  Q 941.86 1064.04 942.53 1073.73
  A 0.58 0.57 -6.5 0 1 942.04 1074.34
  Q 872.01 1084.45 793.41 1096.66
  Q 723.88 1107.46 655.74 1113.40
  C 644.65 1114.36 636.46 1115.63 627.82 1116.17
  Q 624.66 1116.36 606.90 1118.28
  C 595.82 1119.47 585.68 1119.69 575.46 1120.83
  Q 560.32 1120.83 545.18 1120.89
  C 541.19 1120.91 537.67 1120.06 533.90 1120.04
  Q 512.21 1119.94 511.02 1119.90
  C 508.36 1119.82 506.32 1119.14 503.99 1119.11
  C 477.25 1118.77 450.56 1117.09 425.50 1115.53
  Q 375.92 1112.44 326.04 1106.37
  Q 327.94 1079.57 339.70 1055.49
  Q 347.66 1039.20 363.71 1031.72
  Q 377.21 1025.42 393.66 1021.26
  Q 399.01 1021.79 404.65 1021.98
  Q 408.40 1022.10 410.58 1022.46
  C 414.91 1023.15 417.57 1022.88 421.93 1023.67
  Q 423.78 1024.01 427.69 1024.05
  A 13.67 13.26 49.2 0 1 429.82 1024.24
  C 434.37 1025.02 438.59 1024.85 442.80 1025.51
  C 446.90 1026.16 450.29 1025.83 454.41 1026.44
  C 459.06 1027.14 463.25 1026.80 467.67 1027.40
  Q 471.87 1027.97 475.88 1027.99
  C 482.04 1028.02 487.06 1029.05 492.86 1028.98
  C 500.34 1028.89 506.78 1029.96 514.87 1029.98
  Q 522.20 1030.00 528.13 1030.42
  C 542.53 1031.44 560.01 1030.92 576.63 1031.25
  Q 592.39 1031.56 610.50 1031.59
  Q 612.35 1031.60 614.25 1031.61
  C 648.83 1031.88 691.72 1031.13 727.50 1030.93
  C 738.01 1030.87 746.30 1029.97 756.26 1029.98
  C 763.92 1030.00 770.63 1028.98 778.24 1028.97
  C 783.98 1028.97 789.33 1027.88 794.79 1028.00
  Q 797.92 1028.07 802.40 1027.48
  C 807.44 1026.83 812.73 1027.20 817.80 1026.25
  A 11.58 11.50 39.5 0 1 819.94 1026.05
  Q 825.03 1026.04 828.07 1025.53
  C 832.30 1024.80 836.67 1025.15 840.96 1024.27
  A 9.41 9.37 39.1 0 1 842.84 1024.08
  C 847.51 1024.09 851.11 1023.10 855.57 1022.96
  Q 856.64 1022.92 878.42 1020.52
  Q 883.29 1019.98 883.87 1020.00
  C 889.00 1020.19 892.99 1018.90 897.43 1018.98
  C 900.81 1019.04 904.43 1018.11 908.19 1018.16
  Q 916.16 1018.25 923.96 1020.01
  Z"
/>
<path fill="#707575" d="
  M 393.66 1021.26
  Q 377.21 1025.42 363.71 1031.72
  Q 347.66 1039.20 339.70 1055.49
  Q 327.94 1079.57 326.04 1106.37
  L 304.71 1103.95
  A 0.68 0.68 0.0 0 1 304.11 1103.19
  Q 306.78 1078.96 312.02 1056.56
  Q 315.30 1042.55 323.73 1030.99
  C 327.94 1025.23 336.28 1022.97 342.99 1021.73
  Q 355.37 1019.44 366.37 1018.30
  A 14.46 14.34 45.3 0 1 369.71 1018.33
  L 393.66 1021.26
  Z"
/>
<path fill="#414444" d="
  M 575.46 1120.83
  C 585.68 1119.69 595.82 1119.47 606.90 1118.28
  Q 624.66 1116.36 627.82 1116.17
  C 636.46 1115.63 644.65 1114.36 655.74 1113.40
  Q 723.88 1107.46 793.41 1096.66
  Q 872.01 1084.45 942.04 1074.34
  A 0.58 0.57 -6.5 0 0 942.53 1073.73
  Q 941.86 1064.04 938.88 1054.85
  Q 933.02 1036.77 923.96 1020.01
  Q 937.51 1021.08 947.97 1025.24
  Q 951.80 1026.76 954.84 1030.65
  Q 959.27 1036.33 962.47 1043.12
  Q 964.62 1047.66 966.95 1057.05
  Q 971.26 1074.41 973.38 1091.55
  Q 974.17 1097.86 975.00 1102.79
  A 0.94 0.93 -6.2 0 1 974.12 1103.88
  C 967.72 1104.14 960.99 1105.28 954.00 1106.18
  Q 916.77 1110.98 874.55 1114.04
  Q 850.54 1115.78 848.68 1115.84
  Q 840.02 1116.16 835.00 1116.74
  C 830.12 1117.31 824.06 1116.83 818.02 1117.47
  C 811.04 1118.21 803.90 1117.86 796.50 1118.52
  Q 787.56 1119.32 775.28 1119.08
  A 10.32 10.24 -49.0 0 0 773.53 1119.21
  C 764.77 1120.66 756.92 1120.02 746.34 1120.04
  C 742.33 1120.05 738.79 1120.90 735.43 1120.91
  Q 726.28 1120.93 715.51 1120.94
  Q 712.91 1120.94 695.05 1121.68
  Q 686.70 1122.03 674.53 1122.07
  Q 632.86 1122.21 579.69 1121.31
  Q 577.56 1121.28 575.46 1120.83
  Z"
/>
</svg>
