<?xml version="1.0" encoding="UTF-8" standalone="no"?>
<!-- Created with Inkscape (http://www.inkscape.org/) -->

<svg
   version="1.1"
   id="svg1"
   width="1280"
   height="1280"
   viewBox="0 0 1280 1280"
   xmlns="http://www.w3.org/2000/svg"
   xmlns:svg="http://www.w3.org/2000/svg">
  <defs
     id="defs1" />
  <g
     id="g1">
    <g
       id="g2">
      <path
         style="fill:#6e7373"
         d="m 545.5,1153.9188 c -76.52461,-2.0928 -150.3288,-6.086 -193.5,-10.4696 -31.78135,-3.227 -86.4541,-10.57 -87.65709,-11.773 -1.02566,-1.0256 6.31078,-57.7089 9.55868,-73.8529 3.12205,-15.5185 6.20062,-23.5061 13.69225,-35.5259 11.44089,-18.3562 31.72818,-28.21996 58.15616,-28.27576 9.5833,-0.0202 10.25,-0.152 10.25,-2.02584 0,-1.99534 -14.58813,-58.3533 -19.54192,-75.4958 -5.82098,-20.14343 -27.22208,-99.66496 -37.5427,-139.5 -6.05609,-23.375 -11.71524,-44.75 -12.57588,-47.5 -1.5802,-5.04916 -10.47702,-39.54906 -14.95701,-58 -1.33543,-5.5 -4.2061,-15.85 -6.37927,-23 -28.90156,-95.08982 -42.70457,-147.27741 -51.97195,-196.5 -5.16267,-27.42094 -6.39021,-38.1315 -5.76428,-50.29466 0.6133,-11.9176 2.48026,-17.88178 7.39473,-23.62324 6.67889,-7.80278 15.61768,-10.4071 26.31443,-7.66672 21.59086,5.53132 51.2558,28.89432 139.02385,109.48998 48.89785,44.90193 74.28821,66.19363 89.71847,75.2356 14.97946,8.7778 21.99529,10.18276 26.01187,5.20904 2.2577,-2.7957 7.29465,-16.80794 7.24386,-20.15162 -0.015,-0.98486 -1.65204,-2.44745 -3.89671,-3.48139 -13.05087,-6.01146 -25.34465,-25.47376 -31.29614,-49.54493 -2.89257,-11.69915 -3.14978,-40.89538 -0.45498,-51.64443 5.62592,-22.44069 20.38227,-38.0582 44.5319,-47.13073 l 8.64173,-3.24652 0.29595,-6.00703 0.29595,-6.00702 -4.29595,-0.52507 C 514.43318,372.32248 508.9,371.82753 504.5,371.51139 c -4.4,-0.31614 -27.14668,-2.80321 -50.54818,-5.52683 -23.4015,-2.72361 -44.50209,-5.12802 -46.89021,-5.34313 -2.38811,-0.21511 -4.68448,-1.00993 -5.10304,-1.76627 -2.49785,-4.51358 -5.12858,-15.86354 -6.10145,-26.32391 -2.21391,-23.80437 0.6791,-76.41052 4.32606,-78.66446 3.14082,-1.94114 67.10726,-10.69666 116.81682,-15.98952 10.725,-1.14195 19.62341,-2.1969 19.77424,-2.34434 2.75059,-2.68874 18.47795,-95.4992 23.30927,-137.55293 2.21131,-19.24805 7.32589,-28.257469 19.23551,-33.883649 6.9327,-3.275051 15.14633,-5.226092 34.18098,-8.119245 17.65303,-2.683154 30.38696,-2.538524 50.34735,0.571839 28.59232,4.455449 38.24189,8.918482 43.94087,20.323155 3.35093,6.705804 3.6526,8.236927 9.18292,46.6079 5.63276,39.08172 15.86491,97.459 19.06128,108.75 0.58387,2.0625 1.68158,3.75 2.43935,3.75 1.34953,0 29.21072,2.97035 47.02823,5.01379 24.36367,2.7942 57.54594,7.35764 80.5,11.07086 4.125,0.6673 8.00148,1.60069 8.6144,2.07421 3.25168,2.51215 5.21946,31.22436 4.34107,63.34114 -0.6387,23.35316 -0.85941,25.54083 -3.3505,33.21008 -1.46672,4.51554 -3.0965,8.47567 -3.62174,8.80029 -1.65014,1.01984 -109.93677,13.36518 -118.23323,13.47931 -0.4125,0.006 -0.75,2.72444 -0.75,6.0417 0,4.84433 0.34442,6.15186 1.75,6.64349 25.76354,9.01134 38.37883,18.43698 46.12849,34.46535 6.37758,13.19056 7.54783,19.47652 7.51371,40.35978 -0.0245,14.97147 -0.39017,19.45909 -2.17355,26.67206 -5.97885,24.18186 -17.5265,42.50177 -30.96865,49.13063 -2.58131,1.27294 -4.25,2.7826 -4.25,3.84495 0,3.25527 4.9898,17.56967 7.0276,20.16031 2.94067,3.73847 5.0472,4.02403 12.13564,1.64511 18.23605,-6.12009 38.14647,-22.04196 111.83676,-89.43308 47.56083,-43.49525 74.50111,-66.67515 95.52194,-82.18881 31.48166,-23.23393 49.37826,-26.78018 61.81636,-12.24907 4.9145,5.74146 6.7814,11.70564 7.3947,23.62324 0.6259,12.16316 -0.6016,22.87372 -5.7643,50.29466 -9.2791,49.28494 -22.552,99.47872 -51.9613,196.5 -2.1673,7.15 -7.5285,26.95 -11.91382,44 -25.90111,100.70349 -47.63636,182.43594 -59.5687,224 C 932.41018,934.31606 918,990.03514 918,991.9958 c 0,1.88087 0.66148,2.00463 10.75,2.01121 18.35784,0.012 35.66601,5.63801 46.66059,15.16709 2.70083,2.3408 7.11359,7.6307 9.80614,11.7553 11.83387,18.1276 14.70426,28.7317 20.72667,76.5706 4.7795,37.9652 4.6327,34.2192 1.367,34.9032 -5.9524,1.2466 -56.07319,7.6239 -82.3104,10.473 -87.21616,9.4708 -256.67278,14.4016 -379.5,11.0426 z"
         id="path6" />
      <path
         style="fill:#4d5252"
         d="m 545.5,1153.9188 c -76.52461,-2.0928 -150.3288,-6.086 -193.5,-10.4696 -31.78135,-3.227 -86.4541,-10.57 -87.65709,-11.773 -1.02566,-1.0256 6.31078,-57.7089 9.55868,-73.8529 3.12205,-15.5185 6.20062,-23.5061 13.69225,-35.5259 11.44089,-18.3562 31.72818,-28.21996 58.15616,-28.27576 9.5833,-0.0202 10.25,-0.152 10.25,-2.02584 0,-1.99534 -14.58813,-58.3533 -19.54192,-75.4958 -5.82098,-20.14343 -27.22208,-99.66496 -37.5427,-139.5 -6.05609,-23.375 -11.71524,-44.75 -12.57588,-47.5 -1.5802,-5.04916 -10.47702,-39.54906 -14.95701,-58 -1.33543,-5.5 -4.2061,-15.85 -6.37927,-23 -28.90156,-95.08982 -42.70457,-147.27741 -51.97195,-196.5 -5.16267,-27.42094 -6.39021,-38.1315 -5.76428,-50.29466 0.6133,-11.9176 2.48026,-17.88178 7.39473,-23.62324 6.67889,-7.80278 15.61768,-10.4071 26.31443,-7.66672 21.59086,5.53132 51.2558,28.89432 139.02385,109.48998 48.89785,44.90193 74.28821,66.19363 89.71847,75.2356 14.97946,8.7778 21.99529,10.18276 26.01187,5.20904 2.2577,-2.7957 7.29465,-16.80794 7.24386,-20.15162 -0.015,-0.98486 -1.65204,-2.44745 -3.89671,-3.48139 -13.05087,-6.01146 -25.34465,-25.47376 -31.29614,-49.54493 -2.89257,-11.69915 -3.14978,-40.89538 -0.45498,-51.64443 5.62592,-22.44069 20.38227,-38.0582 44.5319,-47.13073 l 8.64173,-3.24652 0.29595,-6.00703 0.29595,-6.00702 -4.29595,-0.52507 C 514.43318,372.32248 508.9,371.82753 504.5,371.51139 c -4.4,-0.31614 -27.14668,-2.80321 -50.54818,-5.52683 -23.4015,-2.72361 -44.50209,-5.12802 -46.89021,-5.34313 -2.38811,-0.21511 -4.68448,-1.00993 -5.10304,-1.76627 -2.49785,-4.51358 -5.12858,-15.86354 -6.10145,-26.32391 -2.21391,-23.80437 0.6791,-76.41052 4.32606,-78.66446 3.14082,-1.94114 67.10726,-10.69666 116.81682,-15.98952 10.725,-1.14195 19.62341,-2.1969 19.77424,-2.34434 2.75059,-2.68874 18.47795,-95.4992 23.30927,-137.55293 2.21131,-19.24805 7.32589,-28.257469 19.23551,-33.883649 6.9327,-3.275051 15.14633,-5.226092 34.18098,-8.119245 17.65303,-2.683154 30.38696,-2.538524 50.34735,0.571839 28.59232,4.455449 38.24189,8.918482 43.94087,20.323155 3.35093,6.705804 3.6526,8.236927 9.18292,46.6079 5.63276,39.08172 15.86491,97.459 19.06128,108.75 0.58387,2.0625 1.68158,3.75 2.43935,3.75 1.34953,0 29.21072,2.97035 47.02823,5.01379 24.36367,2.7942 57.54594,7.35764 80.5,11.07086 4.125,0.6673 8.00148,1.60069 8.6144,2.07421 3.25168,2.51215 5.21946,31.22436 4.34107,63.34114 -0.6387,23.35316 -0.85941,25.54083 -3.3505,33.21008 -1.46672,4.51554 -3.0965,8.47567 -3.62174,8.80029 -1.65014,1.01984 -109.93677,13.36518 -118.23323,13.47931 -0.4125,0.006 -0.75,2.72444 -0.75,6.0417 0,4.84433 0.34442,6.15186 1.75,6.64349 25.76354,9.01134 38.37883,18.43698 46.12849,34.46535 6.37758,13.19056 7.54783,19.47652 7.51371,40.35978 -0.0245,14.97147 -0.39017,19.45909 -2.17355,26.67206 -5.97885,24.18186 -17.5265,42.50177 -30.96865,49.13063 -2.58131,1.27294 -4.25,2.7826 -4.25,3.84495 0,3.25527 4.9898,17.56967 7.0276,20.16031 2.94067,3.73847 5.0472,4.02403 12.13564,1.64511 18.23605,-6.12009 38.14647,-22.04196 111.83676,-89.43308 47.56083,-43.49525 74.50111,-66.67515 95.52194,-82.18881 31.48166,-23.23393 49.37826,-26.78018 61.81636,-12.24907 4.9145,5.74146 6.7814,11.70564 7.3947,23.62324 0.6259,12.16316 -0.6016,22.87372 -5.7643,50.29466 -9.2791,49.28494 -22.552,99.47872 -51.9613,196.5 -2.1673,7.15 -7.5285,26.95 -11.91382,44 -25.90111,100.70349 -47.63636,182.43594 -59.5687,224 C 932.41018,934.31606 918,990.03514 918,991.9958 c 0,1.88087 0.66148,2.00463 10.75,2.01121 18.35784,0.012 35.66601,5.63801 46.66059,15.16709 2.70083,2.3408 7.11359,7.6307 9.80614,11.7553 11.83387,18.1276 14.70426,28.7317 20.72667,76.5706 4.7795,37.9652 4.6327,34.2192 1.367,34.9032 -5.9524,1.2466 -56.07319,7.6239 -82.3104,10.473 -87.21616,9.4708 -256.67278,14.4016 -379.5,11.0426 z M 320.9581,1100.874 c 3.67297,-25.1196 12.99673,-47.1571 24.32479,-57.4938 7.1717,-6.544 12.96726,-9.5303 28.8445,-14.863 7.35493,-2.4703 12.69761,-4.5012 11.87261,-4.513 -0.825,-0.012 -7.11507,-0.6836 -13.97793,-1.4928 -11.71636,-1.3814 -13.2727,-1.3498 -25.5,0.5183 -21.68197,3.3125 -26.30399,5.471 -32.61114,15.2294 -4.91679,7.6072 -7.07211,13.4483 -10.34191,28.0273 -2.42328,10.8046 -6.98163,39.7093 -6.34241,40.2175 0.47684,0.379 15.12144,2.2 18.90835,2.3511 l 3.63496,0.145 z M 291.45617,619.40923 C 287.93441,593.46997 284.87578,575.63945 275.60437,527 c -9.08656,-47.66968 -13.86428,-74.78479 -13.39523,-76.02211 0.15998,-0.42198 7.94086,6.44793 17.29086,15.26647 60.80105,57.34505 110.88018,96.99101 143.31489,113.45756 20.38905,10.35118 34.86712,14.10252 57.18511,14.81696 l 13.5,0.43216 -7.33972,-1.42385 C 475.12395,591.38624 467.23817,588.47138 457.72456,583.01637 437.65454,571.50843 420.61225,557.64266 371.054,512.50038 299.47224,447.29703 280.98304,431.07499 261.15679,416.07883 252.69399,409.67776 239.25002,401 237.79598,401 c -2.28253,0 -0.0955,19.83486 5.23734,47.5 8.12472,42.14821 17.76514,79.92723 36.61819,143.5 11.71036,39.48752 13.47498,45.21098 13.8221,44.83134 0.16663,-0.18224 -0.74122,-8.02219 -2.01744,-17.42211 z M 552,507.50919 c 11.825,-0.79816 32.525,-1.78382 46,-2.19035 20.19209,-0.60918 23.35709,-0.88875 18,-1.58998 -29.8322,-3.90493 -58.64599,-10.11779 -72.32315,-15.59439 C 525.18673,480.73067 517,470.2589 517,454.01171 c 0,-14.26858 4.12581,-23.48735 15.88471,-35.49301 3.51159,-3.58529 6.0153,-6.5187 5.56379,-6.5187 -3.16721,0 -17.28451,4.89643 -23.72998,8.23049 -9.78867,5.06339 -14.07041,9.90846 -17.00865,19.24639 -4.72909,15.02937 -1.72093,42.34146 6.32644,57.43987 5.40158,10.13439 10.99345,13.48346 20.96369,12.55553 3.025,-0.28154 15.175,-1.16493 27,-1.96309 z M 455,302.50917 c 35.83481,-2.55604 133.27344,-11.9421 134.9906,-13.00336 0.55517,-0.34312 1.0094,-1.7776 1.0094,-3.18774 0,-1.41015 1.55926,-12.52109 3.46503,-24.69099 1.90576,-12.16989 4.61661,-31.35208 6.0241,-42.62708 1.40749,-11.275 3.43738,-26.575 4.51086,-34 4.16981,-28.84166 11.67424,-97.659101 10.75031,-98.58303 -0.6599,-0.6599 -20.25558,3.247898 -22.6129,4.509496 -1.54509,0.826905 -2.12317,2.532928 -2.64832,7.81567 -0.36949,3.716824 -1.26368,10.357864 -1.9871,14.757864 -0.72341,4.4 -2.51755,17 -3.98697,28 -4.31774,32.3224 -13.2441,82.53121 -18.31139,102.99748 l -4.70362,18.99749 -5,0.7154 c -2.75,0.39347 -23.32318,3.02299 -45.71817,5.84339 -22.39499,2.82039 -50.51999,6.7746 -62.5,8.78711 L 426.5,282.5 l -0.28383,10.75 -0.28383,10.75 4.28383,-0.0143 c 2.35611,-0.008 13.50883,-0.67231 24.78383,-1.47653 z"
         id="path5" />
      <path
         style="fill:#404343"
         d="m 545.5,1153.9188 c -76.52461,-2.0928 -150.3288,-6.086 -193.5,-10.4696 -31.78135,-3.227 -86.4541,-10.57 -87.65709,-11.773 -1.02566,-1.0256 6.31078,-57.7089 9.55868,-73.8529 3.12205,-15.5185 6.20062,-23.5061 13.69225,-35.5259 11.44089,-18.3562 31.72818,-28.21996 58.15616,-28.27576 9.5833,-0.0202 10.25,-0.152 10.25,-2.02584 0,-1.99534 -14.58813,-58.3533 -19.54192,-75.4958 -5.82098,-20.14343 -27.22208,-99.66496 -37.5427,-139.5 -6.05609,-23.375 -11.71524,-44.75 -12.57588,-47.5 -1.5802,-5.04916 -10.47702,-39.54906 -14.95701,-58 -1.33543,-5.5 -4.2061,-15.85 -6.37927,-23 -28.90156,-95.08982 -42.70457,-147.27741 -51.97195,-196.5 -5.16267,-27.42094 -6.39021,-38.1315 -5.76428,-50.29466 0.6133,-11.9176 2.48026,-17.88178 7.39473,-23.62324 6.67889,-7.80278 15.61768,-10.4071 26.31443,-7.66672 21.59086,5.53132 51.2558,28.89432 139.02385,109.48998 48.89785,44.90193 74.28821,66.19363 89.71847,75.2356 14.97946,8.7778 21.99529,10.18276 26.01187,5.20904 2.2577,-2.7957 7.29465,-16.80794 7.24386,-20.15162 -0.015,-0.98486 -1.65204,-2.44745 -3.89671,-3.48139 -13.05087,-6.01146 -25.34465,-25.47376 -31.29614,-49.54493 -2.89257,-11.69915 -3.14978,-40.89538 -0.45498,-51.64443 5.62592,-22.44069 20.38227,-38.0582 44.5319,-47.13073 l 8.64173,-3.24652 0.29595,-6.00703 0.29595,-6.00702 -4.29595,-0.52507 C 514.43318,372.32248 508.9,371.82753 504.5,371.51139 c -4.4,-0.31614 -27.14668,-2.80321 -50.54818,-5.52683 -23.4015,-2.72361 -44.50209,-5.12802 -46.89021,-5.34313 -2.38811,-0.21511 -4.68448,-1.00993 -5.10304,-1.76627 -2.49785,-4.51358 -5.12858,-15.86354 -6.10145,-26.32391 -2.21391,-23.80437 0.6791,-76.41052 4.32606,-78.66446 3.14082,-1.94114 67.10726,-10.69666 116.81682,-15.98952 10.725,-1.14195 19.62341,-2.1969 19.77424,-2.34434 2.75059,-2.68874 18.47795,-95.4992 23.30927,-137.55293 2.21131,-19.24805 7.32589,-28.257469 19.23551,-33.883649 6.9327,-3.275051 15.14633,-5.226092 34.18098,-8.119245 17.65303,-2.683154 30.38696,-2.538524 50.34735,0.571839 28.59232,4.455449 38.24189,8.918482 43.94087,20.323155 3.35093,6.705804 3.6526,8.236927 9.18292,46.6079 5.63276,39.08172 15.86491,97.459 19.06128,108.75 0.58387,2.0625 1.68158,3.75 2.43935,3.75 1.34953,0 29.21072,2.97035 47.02823,5.01379 24.36367,2.7942 57.54594,7.35764 80.5,11.07086 4.125,0.6673 8.00148,1.60069 8.6144,2.07421 3.25168,2.51215 5.21946,31.22436 4.34107,63.34114 -0.6387,23.35316 -0.85941,25.54083 -3.3505,33.21008 -1.46672,4.51554 -3.0965,8.47567 -3.62174,8.80029 -1.65014,1.01984 -109.93677,13.36518 -118.23323,13.47931 -0.4125,0.006 -0.75,2.72444 -0.75,6.0417 0,4.84433 0.34442,6.15186 1.75,6.64349 25.76354,9.01134 38.37883,18.43698 46.12849,34.46535 6.37758,13.19056 7.54783,19.47652 7.51371,40.35978 -0.0245,14.97147 -0.39017,19.45909 -2.17355,26.67206 -5.97885,24.18186 -17.5265,42.50177 -30.96865,49.13063 -2.58131,1.27294 -4.25,2.7826 -4.25,3.84495 0,3.25527 4.9898,17.56967 7.0276,20.16031 2.94067,3.73847 5.0472,4.02403 12.13564,1.64511 18.23605,-6.12009 38.14647,-22.04196 111.83676,-89.43308 47.56083,-43.49525 74.50111,-66.67515 95.52194,-82.18881 31.48166,-23.23393 49.37826,-26.78018 61.81636,-12.24907 4.9145,5.74146 6.7814,11.70564 7.3947,23.62324 0.6259,12.16316 -0.6016,22.87372 -5.7643,50.29466 -9.2791,49.28494 -22.552,99.47872 -51.9613,196.5 -2.1673,7.15 -7.5285,26.95 -11.91382,44 -25.90111,100.70349 -47.63636,182.43594 -59.5687,224 C 932.41018,934.31606 918,990.03514 918,991.9958 c 0,1.88087 0.66148,2.00463 10.75,2.01121 18.35784,0.012 35.66601,5.63801 46.66059,15.16709 2.70083,2.3408 7.11359,7.6307 9.80614,11.7553 11.83387,18.1276 14.70426,28.7317 20.72667,76.5706 4.7795,37.9652 4.6327,34.2192 1.367,34.9032 -5.9524,1.2466 -56.07319,7.6239 -82.3104,10.473 -87.21616,9.4708 -256.67278,14.4016 -379.5,11.0426 z M 561,1122.641 c 11.69164,0.5683 34.88671,-0.9751 93.5,-6.2213 56.4697,-5.0544 82.7696,-8.3988 168.5,-21.4275 32.175,-4.8897 71.1,-10.723 86.5,-12.9627 36.03026,-5.2403 32.485,-4.2622 31.83195,-8.7826 -3.2374,-22.4097 -11.79761,-35.6598 -29.9697,-46.3889 l -7.86225,-4.6421 -20,2.2961 c -70.62805,8.1081 -113.22567,10.3306 -213.5,11.1391 -133.75029,1.0784 -207.05749,-2.1072 -293.25359,-12.7435 l -16.7536,-2.0673 -13.2464,2.0362 c -22.64604,3.481 -26.66486,5.4023 -33.43401,15.9842 -4.31177,6.7404 -6.65957,13.2315 -9.81615,27.1393 -2.20346,9.7084 -6.88737,39.9917 -6.26772,40.5233 0.50147,0.4301 43.07317,5.4207 63.27147,7.4171 52.97441,5.236 160.57874,10.5122 180.5,8.8506 4.675,-0.3899 13.675,-0.4574 20,-0.15 z m 207.5,-119.5849 c 12.65,-0.6096 24.50863,-1.3506 26.35251,-1.6468 3.26134,-0.5237 3.63333,-1.1145 13.67877,-21.72384 5.67943,-11.65201 17.81609,-38.06046 26.97035,-58.68546 17.31675,-39.01552 84.70393,-199.51442 103.49565,-246.5 16.94642,-42.37169 28.31518,-68.26979 48.72685,-111 5.78001,-12.1 16.24957,-35.05 23.26567,-51 14.0327,-31.90093 13.7618,-30.98064 22.2233,-75.5 4.0827,-21.48124 5.7231,-36 4.0673,-36 -1.0117,0 -13.287,7.63833 -21.6953,13.5 -12.6217,8.79889 -36.92251,29.26326 -64.10114,53.98129 -6.05882,5.51029 -23.38382,21.27426 -38.5,35.03103 -48.64487,44.27023 -62.78518,56.46582 -78.98396,68.12127 -11.36176,8.17509 -24.934,15.84861 -32.46327,18.35419 -10.75467,3.57892 -26.45666,6.22768 -37.53673,6.33205 -10.12073,0.0953 -10.72957,-0.0241 -16.85564,-3.30609 -14.19166,-7.6031 -28.58282,-27.52887 -33.48358,-46.36083 -0.83689,-3.2159 -1.77804,-6.1035 -2.09144,-6.4169 -1.58068,-1.58069 -28.03326,-2.51976 -73.06934,-2.59397 -48.02345,-0.0791 -57.51847,0.28343 -92.5,3.53214 l -12.5,1.16087 -2.61171,10.58247 c -4.83445,19.5889 -12.53223,31.32038 -24.37775,37.15191 -5.60843,2.76102 -7.35964,3.13057 -14.83492,3.13057 -10.04268,0 -17.11499,-1.84386 -28.17562,-7.34581 -21.86472,-10.8763 -39.9331,-25.65817 -116.0402,-94.9334 -52.08536,-47.40982 -65.41632,-59.0397 -83.77953,-73.08892 C 252.56986,409.33158 239.66795,401 237.6152,401 c -1.48325,0 0.0815,19.20101 2.85217,35 5.24298,29.89609 14.56449,69.91659 25.02336,107.43406 8.21117,29.45461 26.02098,89.6726 28.07965,94.94201 0.83287,2.13183 5.28641,18.84469 9.89676,37.13967 4.61035,18.29498 9.29029,36.35075 10.39987,40.12393 1.10959,3.77318 5.90741,21.93533 10.66185,40.36033 11.36377,44.03838 31.95171,120.74951 39.98903,149 3.52072,12.375 10.07013,36.45 14.55425,53.5 4.48412,17.05 8.36077,31.71476 8.61477,32.58836 0.56995,1.96028 8.5353,3.2631 36.26218,5.9311 39.67058,3.81724 84.25217,6.44464 125.05091,7.36964 31.05378,0.7041 198.30413,-0.3116 219.5,-1.333 z m -213,-495.77249 c 30.60024,-2.18043 132.885,-2.47352 158.28813,-0.45356 l 16.28812,1.29517 5.71188,-3.89357 c 6.8963,-4.70095 11.2847,-10.21285 14.2907,-17.94934 3.10225,-7.9842 3.92892,-29.79002 1.49125,-39.33608 -3.7166,-14.55443 -9.51746,-21.44634 -23.9579,-28.464 -9.0008,-4.37414 -26.22161,-9.46987 -32.08925,-9.49537 -1.66261,-0.007 -7.29793,-0.90963 -12.52293,-2.00534 -8.47557,-1.77738 -13.38204,-1.99174 -45.5,-1.98785 -57.64561,0.007 -89.02882,2.87651 -110.97913,10.14744 -19.51806,6.46527 -26.84369,13.45507 -30.07378,28.69512 -4.30704,20.32131 2.67757,51.67803 13.80256,61.9653 3.54805,3.28088 7.31866,4.21941 14.75035,3.67146 3.575,-0.26358 17.3,-1.2488 30.5,-2.18938 z m 31,-132.31086 c 11.8869,-0.63531 39.74435,-0.95825 64.19402,-0.74417 l 43.19401,0.37821 -0.49438,-6.5534 c -0.27192,-3.60436 -1.17313,-14.36448 -2.0027,-23.91137 -0.82958,-9.54689 -1.32298,-17.54333 -1.09644,-17.76986 0.22653,-0.22653 9.14044,-1.28798 19.80868,-2.35878 10.66825,-1.0708 22.77181,-2.38566 26.89681,-2.9219 4.125,-0.53624 22.8,-2.37219 41.5,-4.07988 18.7,-1.70769 41.875,-3.8714 51.5,-4.80825 L 847.5,310.5 v -14 -14 l -21.78183,-3.65913 c -11.98001,-2.01251 -40.10501,-5.96672 -62.5,-8.78711 -22.39499,-2.8204 -42.94046,-5.45038 -45.65658,-5.84442 l -4.93842,-0.71643 -4.76097,-18.99646 C 705.24366,234.0484 700.64568,211.1 697.64447,193.5 c -3.00122,-17.6 -5.96817,-34.925 -6.59324,-38.5 -1.34378,-7.68562 -7.52555,-49.99898 -8.50593,-58.221895 -0.6609,-5.543313 -0.79709,-5.754474 -4.36374,-6.765771 -22.36157,-6.340454 -62.8009,-6.4397 -81.59681,-0.200255 -5.01743,1.665574 -5.09493,1.754117 -5.85391,6.687921 -0.42304,2.75 -2.79362,19.625 -5.26796,37.5 -6.18839,44.70597 -13.54711,86.78294 -19.23605,109.99129 l -4.7778,19.49129 -4.97451,0.72159 c -2.73599,0.39688 -23.2977,3.02919 -45.69269,5.84959 -22.39499,2.82039 -50.51999,6.7746 -62.5,8.78711 L 426.5,282.5 l -0.31301,12 c -0.17215,6.6 0.21116,16.98908 0.85181,23.08684 l 1.16481,11.08683 26.14819,3.23727 c 14.38151,1.7805 38.73563,5.00898 54.12027,7.1744 15.38464,2.16542 31.7306,4.22603 36.32436,4.57914 l 8.35228,0.64201 -0.60544,11.09675 c -0.33299,6.10322 -0.85362,13.49764 -1.15696,16.43206 l -0.55154,5.3353 7.33262,-0.53774 C 562.20032,376.3371 574.95,375.59005 586.5,374.97275 Z"
         id="path4" />
      <path
         style="fill:#2c2f2f"
         d="m 545.5,1153.9188 c -76.52461,-2.0928 -150.3288,-6.086 -193.5,-10.4696 -31.78135,-3.227 -86.4541,-10.57 -87.65709,-11.773 -1.02566,-1.0256 6.31078,-57.7089 9.55868,-73.8529 3.12205,-15.5185 6.20062,-23.5061 13.69225,-35.5259 11.44089,-18.3562 31.72818,-28.21996 58.15616,-28.27576 9.5833,-0.0202 10.25,-0.152 10.25,-2.02584 0,-1.99534 -14.58813,-58.3533 -19.54192,-75.4958 -5.82098,-20.14343 -27.22208,-99.66496 -37.5427,-139.5 -6.05609,-23.375 -11.71524,-44.75 -12.57588,-47.5 -1.5802,-5.04916 -10.47702,-39.54906 -14.95701,-58 -1.33543,-5.5 -4.2061,-15.85 -6.37927,-23 -28.90156,-95.08982 -42.70457,-147.27741 -51.97195,-196.5 -5.16267,-27.42094 -6.39021,-38.1315 -5.76428,-50.29466 0.6133,-11.9176 2.48026,-17.88178 7.39473,-23.62324 6.67889,-7.80278 15.61768,-10.4071 26.31443,-7.66672 21.59086,5.53132 51.2558,28.89432 139.02385,109.48998 48.89785,44.90193 74.28821,66.19363 89.71847,75.2356 14.97946,8.7778 21.99529,10.18276 26.01187,5.20904 2.2577,-2.7957 7.29465,-16.80794 7.24386,-20.15162 -0.015,-0.98486 -1.65204,-2.44745 -3.89671,-3.48139 -13.05087,-6.01146 -25.34465,-25.47376 -31.29614,-49.54493 -2.89257,-11.69915 -3.14978,-40.89538 -0.45498,-51.64443 5.62592,-22.44069 20.38227,-38.0582 44.5319,-47.13073 l 8.64173,-3.24652 0.29595,-6.00703 0.29595,-6.00702 -4.29595,-0.52507 C 514.43318,372.32248 508.9,371.82753 504.5,371.51139 c -4.4,-0.31614 -27.14668,-2.80321 -50.54818,-5.52683 -23.4015,-2.72361 -44.50209,-5.12802 -46.89021,-5.34313 -2.38811,-0.21511 -4.68448,-1.00993 -5.10304,-1.76627 -2.49785,-4.51358 -5.12858,-15.86354 -6.10145,-26.32391 -2.21391,-23.80437 0.6791,-76.41052 4.32606,-78.66446 3.14082,-1.94114 67.10726,-10.69666 116.81682,-15.98952 10.725,-1.14195 19.62341,-2.1969 19.77424,-2.34434 2.75059,-2.68874 18.47795,-95.4992 23.30927,-137.55293 2.21131,-19.24805 7.32589,-28.257469 19.23551,-33.883649 6.9327,-3.275051 15.14633,-5.226092 34.18098,-8.119245 17.65303,-2.683154 30.38696,-2.538524 50.34735,0.571839 28.59232,4.455449 38.24189,8.918482 43.94087,20.323155 3.35093,6.705804 3.6526,8.236927 9.18292,46.6079 5.63276,39.08172 15.86491,97.459 19.06128,108.75 0.58387,2.0625 1.68158,3.75 2.43935,3.75 1.34953,0 29.21072,2.97035 47.02823,5.01379 24.36367,2.7942 57.54594,7.35764 80.5,11.07086 4.125,0.6673 8.00148,1.60069 8.6144,2.07421 3.25168,2.51215 5.21946,31.22436 4.34107,63.34114 -0.6387,23.35316 -0.85941,25.54083 -3.3505,33.21008 -1.46672,4.51554 -3.0965,8.47567 -3.62174,8.80029 -1.65014,1.01984 -109.93677,13.36518 -118.23323,13.47931 -0.4125,0.006 -0.75,2.72444 -0.75,6.0417 0,4.84433 0.34442,6.15186 1.75,6.64349 25.76354,9.01134 38.37883,18.43698 46.12849,34.46535 6.37758,13.19056 7.54783,19.47652 7.51371,40.35978 -0.0245,14.97147 -0.39017,19.45909 -2.17355,26.67206 -5.97885,24.18186 -17.5265,42.50177 -30.96865,49.13063 -2.58131,1.27294 -4.25,2.7826 -4.25,3.84495 0,3.25527 4.9898,17.56967 7.0276,20.16031 2.94067,3.73847 5.0472,4.02403 12.13564,1.64511 18.23605,-6.12009 38.14647,-22.04196 111.83676,-89.43308 47.56083,-43.49525 74.50111,-66.67515 95.52194,-82.18881 31.48166,-23.23393 49.37826,-26.78018 61.81636,-12.24907 4.9145,5.74146 6.7814,11.70564 7.3947,23.62324 0.6259,12.16316 -0.6016,22.87372 -5.7643,50.29466 -9.2791,49.28494 -22.552,99.47872 -51.9613,196.5 -2.1673,7.15 -7.5285,26.95 -11.91382,44 -25.90111,100.70349 -47.63636,182.43594 -59.5687,224 C 932.41018,934.31606 918,990.03514 918,991.9958 c 0,1.88087 0.66148,2.00463 10.75,2.01121 18.35784,0.012 35.66601,5.63801 46.66059,15.16709 2.70083,2.3408 7.11359,7.6307 9.80614,11.7553 11.83387,18.1276 14.70426,28.7317 20.72667,76.5706 4.7795,37.9652 4.6327,34.2192 1.367,34.9032 -5.9524,1.2466 -56.07319,7.6239 -82.3104,10.473 -87.21616,9.4708 -256.67278,14.4016 -379.5,11.0426 z m 215,-30.8301 c 92.26244,-3.6442 138.95053,-6.944 194.5,-13.7467 11.825,-1.4482 21.62302,-2.7281 21.77339,-2.8442 0.64054,-0.4949 -3.92084,-29.4144 -6.34241,-40.2114 -3.2698,-14.579 -5.42512,-20.4201 -10.34191,-28.0273 -6.30399,-9.7535 -10.92523,-11.9135 -32.57418,-15.2252 l -12.98511,-1.9865 -31.51489,3.4151 c -70.36151,7.6247 -100.82954,9.3957 -181.26489,10.5365 -74.88768,1.0621 -181.88659,-0.1408 -218.75,-2.4592 -32.4181,-2.0388 -64.70684,-4.9289 -96.44232,-8.6322 -27.81639,-3.246 -32.00214,-3.188 -51.05768,0.7079 -11.64626,2.3811 -16.72474,5.4408 -21.45061,12.9237 -5.34181,8.4582 -7.27644,13.5792 -10.37429,27.4608 -2.17108,9.7287 -6.65213,37.0132 -6.66968,40.6107 -0.003,0.6109 2.35708,1.4063 5.24458,1.7675 70.80519,8.8581 126.68974,12.9254 214.75,15.6293 18.975,0.5827 38.775,1.2059 44,1.3849 20.00652,0.6856 174.73606,-0.3256 199.5,-1.3037 z M 771,1003.0835 c 37.20187,-2.0964 88.44402,-6.48814 107.16452,-9.1846 l 7.66452,-1.10398 3.02942,-11.14746 c 1.66618,-6.1311 6.24745,-23.29746 10.1806,-38.14746 3.93315,-14.85 8.71282,-32.4 10.62148,-39 5.31947,-18.39427 25.04979,-91.69068 35.80166,-133 5.29664,-20.35 12.5141,-48.025 16.03879,-61.5 3.5247,-13.475 8.85386,-33.95 11.84258,-45.5 2.98872,-11.55 10.39294,-37.43861 16.45383,-57.53025 23.0292,-76.34096 34.1023,-119.60533 43.8861,-171.46975 3.4973,-18.53881 5.2199,-34.5 3.7235,-34.5 -1.5122,0 -12.1201,6.45302 -19.1473,11.64774 -3.9822,2.94375 -7.5051,5.35226 -7.8286,5.35226 -2.5605,0 -38.85881,31.79635 -100.36394,87.91603 -63.49514,57.93542 -84.42101,74.28627 -106.2417,83.01407 -15.20398,6.08126 -27.28201,6.16528 -38.18087,0.26559 -10.14952,-5.49406 -18.443,-19.07763 -22.75974,-37.27734 l -2.27265,-9.58165 -18.0561,-1.6735 c -55.29804,-5.1252 -123.68983,-4.7806 -182.5877,0.92 l -6.5316,0.63218 -2.70935,10.64231 c -6.75175,26.5209 -18.43994,39.09455 -37.17524,39.99153 -10.19,0.48786 -16.85457,-1.00571 -28.15361,-6.30943 C 443.92594,576.46063 422.89429,559.63868 361,503.03765 c -12.375,-11.31667 -27,-24.56414 -32.5,-29.43881 -5.5,-4.87467 -10.45,-9.39596 -11,-10.0473 -2.46443,-2.91852 -37.1569,-32.75136 -48.73661,-41.90972 -7.05275,-5.578 -16.97223,-12.75948 -22.04329,-15.95884 l -9.2201,-5.81702 -0.29849,7.29872 c -0.71938,17.59059 11.68667,76.96521 29.3224,140.33532 6.94927,24.97067 22.95801,79.16813 27.16007,91.95019 1.43748,4.37261 6.77183,24.17261 11.85412,44 21.45039,83.68393 46.76526,179.14 57.46784,216.69692 3.23609,11.35591 8.88653,32.05591 12.55652,46 8.79172,33.40399 12.24449,45.99318 12.75408,46.50277 2.57785,2.57785 89.36349,9.62862 139.19971,11.30912 34.16827,1.1522 219.31529,0.4864 243.48375,-0.8755 z M 540.5,508.48771 c 30.1354,-3.38052 136.32657,-4.07166 179.5,-1.16825 14.025,0.94318 27.13682,1.96314 29.13738,2.26657 4.74626,0.7199 11.043,-1.02549 14.65044,-4.06094 11.71814,-9.86017 18.59378,-46.66949 12.40007,-66.38482 -2.86558,-9.12148 -8.40055,-15.05195 -18.68652,-20.02176 -15.01216,-7.25333 -37.80202,-11.36817 -75.36132,-13.60691 -61.48486,-3.66485 -125.74844,0.13503 -154.48313,9.13451 -16.75452,5.24738 -25.36036,11.88732 -29.72553,22.93508 -3.29543,8.34036 -3.39316,29.73932 -0.19416,42.51564 3.85711,15.40476 9.68914,25.35554 16.74418,28.56942 2.79113,1.27148 13.76372,1.19619 26.01859,-0.17854 z M 571,375.57079 c 1.925,-0.26028 23.525,-0.7581 48,-1.10625 40.28953,-0.5731 66.63401,0.0204 96.84335,2.18155 l 7.34335,0.52535 -0.56595,-7.33572 C 722.30948,365.80107 721.78369,358.3375 721.45233,353.25 L 720.84985,344 h 4.8706 c 2.67883,0 19.02511,-1.99146 36.32507,-4.42546 17.29997,-2.43401 43.21672,-5.88188 57.5928,-7.66193 l 26.13831,-3.23648 1.07538,-10.58806 c 0.59145,-5.82344 1.20421,-16.211 1.36168,-23.08346 L 848.5,282.50922 827,278.89725 c -11.825,-1.98659 -33.425,-5.08253 -48,-6.87987 -14.575,-1.79734 -35.46876,-4.44902 -46.43059,-5.89263 L 712.63883,263.5 l -0.80736,-3 c -8.45134,-31.4038 -23.43665,-115.8917 -27.93456,-157.49642 -0.50521,-4.673037 -1.1677,-9.2814 -1.4722,-10.240811 -0.69234,-2.181354 -7.39705,-4.119673 -21.89216,-6.328975 -18.61804,-2.837709 -51.40362,-1.024059 -66.19542,3.661835 -2.87764,0.911606 -3.22265,1.471026 -3.82568,6.203169 -7.76886,60.964242 -17.36221,118.907562 -24.3955,147.347472 l -4.90989,19.85373 -4.85303,0.64237 c -2.66917,0.35331 -23.30303,2.97096 -45.85303,5.817 -35.12474,4.4331 -79.12076,11.05559 -83.25,12.53117 -1.62301,0.57999 -1.69966,22.48342 -0.12706,36.31309 l 1.12293,9.87531 26.12707,3.23507 c 14.36988,1.77929 40.28157,5.22652 57.58154,7.66053 17.29996,2.434 33.65285,4.42546 36.33977,4.42546 h 4.88529 l -0.6184,8.75 c -0.34011,4.8125 -0.88325,12.30422 -1.20697,16.64827 l -0.58858,7.89827 8.3672,-0.62625 c 4.60197,-0.34443 9.94221,-0.83921 11.86721,-1.0995 z"
         id="path3" />
      <path
         style="fill:#161717"
         d="m 545.5,1153.9188 c -76.52461,-2.0928 -150.3288,-6.086 -193.5,-10.4696 -31.78135,-3.227 -86.4541,-10.57 -87.65709,-11.773 -1.02566,-1.0256 6.31078,-57.7089 9.55868,-73.8529 3.12205,-15.5185 6.20062,-23.5061 13.69225,-35.5259 11.44089,-18.3562 31.72818,-28.21996 58.15616,-28.27576 9.5833,-0.0202 10.25,-0.152 10.25,-2.02584 0,-1.99534 -14.58813,-58.3533 -19.54192,-75.4958 -5.82098,-20.14343 -27.22208,-99.66496 -37.5427,-139.5 -6.05609,-23.375 -11.71524,-44.75 -12.57588,-47.5 -1.5802,-5.04916 -10.47702,-39.54906 -14.95701,-58 -1.33543,-5.5 -4.2061,-15.85 -6.37927,-23 -28.90156,-95.08982 -42.70457,-147.27741 -51.97195,-196.5 -5.16267,-27.42094 -6.39021,-38.1315 -5.76428,-50.29466 0.6133,-11.9176 2.48026,-17.88178 7.39473,-23.62324 6.67889,-7.80278 15.61768,-10.4071 26.31443,-7.66672 21.59086,5.53132 51.2558,28.89432 139.02385,109.48998 48.89785,44.90193 74.28821,66.19363 89.71847,75.2356 14.97946,8.7778 21.99529,10.18276 26.01187,5.20904 2.2577,-2.7957 7.29465,-16.80794 7.24386,-20.15162 -0.015,-0.98486 -1.65204,-2.44745 -3.89671,-3.48139 -13.05087,-6.01146 -25.34465,-25.47376 -31.29614,-49.54493 -2.89257,-11.69915 -3.14978,-40.89538 -0.45498,-51.64443 5.62592,-22.44069 20.38227,-38.0582 44.5319,-47.13073 l 8.64173,-3.24652 0.29595,-6.00703 0.29595,-6.00702 -4.29595,-0.52507 C 514.43318,372.32248 508.9,371.82753 504.5,371.51139 c -4.4,-0.31614 -27.14668,-2.80321 -50.54818,-5.52683 -23.4015,-2.72361 -44.50209,-5.12802 -46.89021,-5.34313 -2.38811,-0.21511 -4.68448,-1.00993 -5.10304,-1.76627 -2.49785,-4.51358 -5.12858,-15.86354 -6.10145,-26.32391 -2.21391,-23.80437 0.6791,-76.41052 4.32606,-78.66446 3.14082,-1.94114 67.10726,-10.69666 116.81682,-15.98952 10.725,-1.14195 19.62341,-2.1969 19.77424,-2.34434 2.75059,-2.68874 18.47795,-95.4992 23.30927,-137.55293 2.21131,-19.24805 7.32589,-28.257469 19.23551,-33.883649 6.9327,-3.275051 15.14633,-5.226092 34.18098,-8.119245 17.65303,-2.683154 30.38696,-2.538524 50.34735,0.571839 28.59232,4.455449 38.24189,8.918482 43.94087,20.323155 3.35093,6.705804 3.6526,8.236927 9.18292,46.6079 5.63276,39.08172 15.86491,97.459 19.06128,108.75 0.58387,2.0625 1.68158,3.75 2.43935,3.75 1.34953,0 29.21072,2.97035 47.02823,5.01379 24.36367,2.7942 57.54594,7.35764 80.5,11.07086 4.125,0.6673 8.00148,1.60069 8.6144,2.07421 3.25168,2.51215 5.21946,31.22436 4.34107,63.34114 -0.6387,23.35316 -0.85941,25.54083 -3.3505,33.21008 -1.46672,4.51554 -3.0965,8.47567 -3.62174,8.80029 -1.65014,1.01984 -109.93677,13.36518 -118.23323,13.47931 -0.4125,0.006 -0.75,2.72444 -0.75,6.0417 0,4.84433 0.34442,6.15186 1.75,6.64349 25.76354,9.01134 38.37883,18.43698 46.12849,34.46535 6.37758,13.19056 7.54783,19.47652 7.51371,40.35978 -0.0245,14.97147 -0.39017,19.45909 -2.17355,26.67206 -5.97885,24.18186 -17.5265,42.50177 -30.96865,49.13063 -2.58131,1.27294 -4.25,2.7826 -4.25,3.84495 0,3.25527 4.9898,17.56967 7.0276,20.16031 2.94067,3.73847 5.0472,4.02403 12.13564,1.64511 18.23605,-6.12009 38.14647,-22.04196 111.83676,-89.43308 47.56083,-43.49525 74.50111,-66.67515 95.52194,-82.18881 31.48166,-23.23393 49.37826,-26.78018 61.81636,-12.24907 4.9145,5.74146 6.7814,11.70564 7.3947,23.62324 0.6259,12.16316 -0.6016,22.87372 -5.7643,50.29466 -9.2791,49.28494 -22.552,99.47872 -51.9613,196.5 -2.1673,7.15 -7.5285,26.95 -11.91382,44 -25.90111,100.70349 -47.63636,182.43594 -59.5687,224 C 932.41018,934.31606 918,990.03514 918,991.9958 c 0,1.88087 0.66148,2.00463 10.75,2.01121 18.35784,0.012 35.66601,5.63801 46.66059,15.16709 2.70083,2.3408 7.11359,7.6307 9.80614,11.7553 11.83387,18.1276 14.70426,28.7317 20.72667,76.5706 4.7795,37.9652 4.6327,34.2192 1.367,34.9032 -5.9524,1.2466 -56.07319,7.6239 -82.3104,10.473 -87.21616,9.4708 -256.67278,14.4016 -379.5,11.0426 z M 729,1124.0042 c 93.27389,-2.6635 154.94567,-6.3592 208.5,-12.4944 36.19979,-4.1471 39.5003,-4.6852 39.49741,-6.4399 -0.006,-3.7735 -5.09032,-33.5031 -7.36547,-43.0699 -2.9536,-12.4197 -4.43833,-16.1591 -9.76436,-24.5922 -5.89009,-9.3263 -12.77732,-12.1655 -37.36758,-15.404 -8.03606,-1.0584 -11.46341,-0.9081 -32,1.4034 -86.72173,9.7609 -126.83686,11.5891 -254,11.5762 -126.37498,-0.013 -166.66943,-1.8214 -248,-11.131 -24.8553,-2.8451 -27.79433,-2.9966 -37,-1.9078 -13.18125,1.5591 -22.97028,3.7764 -28.5,6.4555 -5.12729,2.4842 -11.57494,11.2553 -15.14303,20.5999 -3.55434,9.3086 -12.26738,55.937 -10.73527,57.4504 1.02415,1.0117 48.2287,6.4716 77.8783,9.0078 49.42913,4.2281 109.45474,7.1699 181,8.8704 31.0381,0.7378 143.16692,0.5275 173,-0.3244 z m 21,-120.0293 c 53.19474,-1.9443 132.14655,-8.43458 135.63926,-11.15019 0.62659,-0.48719 1.35174,-1.88455 1.61144,-3.10525 1.13344,-5.32776 12.28911,-47.56109 18.32691,-69.38228 19.12372,-69.11508 35.6713,-130.74569 47.4801,-176.83718 3.24098,-12.65 6.85833,-26.6 8.03857,-31 1.18023,-4.4 5.63507,-21.5 9.89965,-38 4.26457,-16.5 12.11905,-44.4 17.4544,-62 17.81467,-58.76625 31.01957,-107.33753 38.06137,-140 3.7208,-17.2585 8.3207,-41.89673 9.0876,-48.67508 0.3625,-3.20371 1.0509,-5.82492 1.5299,-5.82492 0.4789,0 0.8708,-4.06156 0.8708,-9.02568 v -9.02568 l -3.25,1.65824 c -1.7875,0.91203 -6.85,4.14568 -11.25,7.18588 -4.4,3.0402 -10.025,6.88613 -12.5,8.5465 -7.3025,4.89891 -49.40993,40.42013 -53.5,45.13178 -0.55,0.63358 -8.23029,7.64929 -17.06731,15.59046 -8.83702,7.94118 -25.93702,23.4464 -38,34.45606 -60.51177,55.22799 -82.41612,71.55999 -105.29664,78.50973 -10.15526,3.08457 -22.31819,2.51624 -29.95013,-1.39945 -11.40413,-5.85107 -18.91602,-17.46645 -23.81981,-36.83174 l -2.68346,-10.59709 -6.09132,-0.63967 c -29.72193,-3.1212 -42.05734,-3.74617 -83.93861,-4.2527 -46.45633,-0.56185 -71.37971,0.23405 -101.65272,3.24617 -7.975,0.7935 -14.78903,1.44373 -15.14228,1.44496 -0.35326,0.001 -1.42932,3.26473 -2.39125,7.25223 -4.2656,17.68221 -8.73902,26.88037 -16.76419,34.47025 -7.66145,7.24588 -14.57047,9.62285 -26.20228,9.01461 -23.21298,-1.21385 -49.2397,-18.54553 -107,-71.25328 -7.7,-7.02645 -23.45,-21.33759 -35,-31.80253 C 334.95,479.2141 321.225,466.72789 316,461.93192 286.86823,435.19218 256.40636,410.68561 242.87338,403.10157 l -5.62661,-3.15322 -0.59147,2.26178 c -1.97582,7.55553 7.32439,58.88351 19.34945,106.78987 7.10822,28.31832 31.65902,113.62281 37.98985,132 1.04209,3.025 5.96608,21.475 10.9422,41 4.97612,19.525 10.42521,40.675 12.10909,47 1.68388,6.325 8.42441,31.975 14.97895,57 11.20112,42.76541 20.12317,75.77284 36.7614,136 3.87451,14.025 9.34488,34.5 12.15637,45.5 7.52296,29.4337 5.39571,25.97626 16.83265,27.35814 32.42987,3.91837 93.86501,8.22406 135.22474,9.47726 25.56115,0.7745 193.58611,0.4954 217,-0.3605 z M 546,508.53837 c 51.7199,-3.22097 68.40966,-3.75613 102,-3.27062 31.37885,0.45354 71.01591,1.92266 85,3.15046 25.19289,2.21194 26.56645,2.01784 32.54433,-4.59895 4.53162,-5.01597 7.90281,-12.4772 10.71844,-23.72243 3.199,-12.77632 3.10127,-34.17528 -0.19416,-42.51564 -7.72283,-19.54563 -32.64474,-28.43025 -89.88904,-32.04532 -60.20512,-3.80204 -126.91879,-0.33378 -156.12015,8.11628 -18.18775,5.26302 -29.18062,13.56828 -32.63271,24.65444 -6.86722,22.05364 1.78414,61.88538 15.07329,69.39895 4.76978,2.69679 3.91237,2.67547 33.5,0.83283 z m 44.5,-133.54351 c 32.98339,-1.73552 81.48248,-1.10281 121.86072,1.58978 l 10.86071,0.72424 -0.75984,-13.40444 C 721.231,342.19545 720.80905,344.54212 726,344.22571 c 2.475,-0.15086 19.35,-2.28041 37.5,-4.73233 18.15,-2.45193 43.8,-5.83052 57,-7.50799 13.2,-1.67747 24.49439,-3.22016 25.09864,-3.4282 2.78081,-0.95741 4.84141,-45.09183 2.15136,-46.07839 -4.25182,-1.55934 -48.80365,-8.18344 -87.25,-12.9726 -24.75,-3.08304 -45.675,-5.80504 -46.5,-6.04889 -1.97742,-0.58449 -10.79255,-38.55976 -15.54267,-66.95731 -1.93199,-11.55 -4.16363,-24.6 -4.95919,-29 -0.79555,-4.4 -3.26719,-21.275 -5.49253,-37.5 -5.62682,-41.025346 -5.06422,-38.276617 -8.13374,-39.739653 -4.37407,-2.084833 -24.57049,-5.094215 -38.37187,-5.717628 -9.17554,-0.414463 -16.19745,-0.134963 -23.8687,0.950067 -11.73399,1.659671 -23.39946,4.108353 -25.33849,5.318765 -1.30492,0.814571 -1.44683,1.672978 -6.8096,41.188449 -5.39011,39.71689 -12.83692,82.74739 -18.72839,108.21968 -4.99463,21.59471 -5.37861,22.7461 -7.75482,23.25325 -1.375,0.29347 -22.3,3.02729 -46.5,6.07516 -37.99327,4.78507 -82.09977,11.406 -86.32052,12.95777 -1.04977,0.38595 -1.19391,3.40814 -0.70299,14.73982 0.53731,12.40278 2.22349,30.78764 2.88431,31.44845 0.12304,0.12305 13.0297,1.83023 28.68146,3.79376 15.65176,1.96352 39.92074,5.16976 53.93108,7.12499 14.01034,1.95522 29.08534,3.85469 33.5,4.22104 L 552.5,344.5 l -0.0936,3 c -0.0515,1.65 -0.42874,9.02906 -0.83832,16.39792 l -0.7447,13.39791 10.83832,-0.67692 C 567.62276,376.2466 580.6,375.51578 590.5,374.99486 Z"
         id="path2" />
    </g>
  </g>
</svg>
