<svg xmlns="http://www.w3.org/2000/svg" viewBox="0 0 1280 1280"><path fill="#6c7171" d="M474 1149.45c-57.36-2.56-96.97-5.4-139.5-10.04-22.35-2.44-64.06-7.83-69.89-9.03l-2.88-.6.68-9.14c1.74-23.29 8.41-65.65 12.32-78.14 2.83-9.06 3.67-10.88 10.1-21.88 8.42-14.4 21.84-22.79 43.17-26.99a317 317 0 0 1 18.25-3.12c5.65-.64 5.75-.7 5.76-3.83.06-14.14 2.3-54.9 3.53-64.4 2.98-22.93 8.13-40.16 17.92-59.95 15.13-30.61 23.98-41.16 98.92-117.98 39.2-40.18 47.3-49.28 57.96-65.16 6.7-9.98 16.6-29.73 19.6-39.06 2.74-8.58 7.46-30.06 6.76-30.77-.31-.3-7.23 1.03-15.38 2.98-13.87 3.31-20.99 4.74-63.32 12.7-20.07 3.78-25.75 5.6-38 12.23-8.76 4.73-11.1 6.73-30 25.73-11.27 11.32-22.7 22.03-25.4 23.78a55 55 0 0 1-23.02 8.24c-15.07 1.96-50.18.74-52.78-1.83-.39-.38.8-4.75 2.66-9.7 7.34-19.64 10.87-45.01 6.83-49.06-4.7-4.7-16.84-6.44-28.29-4.04-10.44 2.19-21.61 8.04-34.46 18.06-6.03 4.7-11.3 8.55-11.73 8.55s-7.68-6.86-16.12-15.25c-27.31-27.14-36.1-44.97-32.93-66.75 1.87-12.87 8.73-26.6 27.9-55.86 19.27-29.4 36.78-50 57.84-68.06 12.58-10.8 20.1-16.19 60.45-43.38 45.1-30.4 52.16-35.65 65.37-48.6 17.78-17.42 28.8-33.87 37.14-55.44 5.89-15.24 10.54-30.93 10.54-35.57 0-3.5-.37-3.88-9.41-9.78-10.47-6.82-10.16-6.06-6.74-16.31 1.38-4.13 3.86-12.1 7.66-24.5 6.41-20.97 8.92-28.35 11.62-34.2 1.58-3.42 2.87-6.54 2.87-6.92 0-2.48 20.32-31.79 24.76-35.71 1.6-1.42 2.51-1.6 4.03-.78 2.92 1.56 22.08 16.99 36.02 29 6.77 5.84 12.68 10.74 13.12 10.9.45.16 1.59-1.64 2.53-4 4.38-11.02 21.8-34.84 34.92-47.73 6.4-6.28 6.62-6.4 9.22-5 2.84 1.51 20.33 19.77 42.6 44.44a595 595 0 0 0 22.47 23.59l8.92 8.59 12.46 1.2c44.56 4.32 73.28 8.63 96.64 14.5 86.76 21.83 142.92 70 189.06 162.12 40.76 81.4 70.9 194.3 78.34 293.46 1.7 22.69.65 69.35-2 88.77-4.94 36.29-12.89 62.33-28.15 92.26-12.2 23.91-24.97 42.8-51.05 75.51-17.43 21.86-23.94 31.34-26.83 39.07-2.27 6.06-3.91 21.78-2.38 22.73.52.32 6.55 1.54 13.39 2.7 22.68 3.87 33.75 8.83 43.96 19.71 10.83 11.54 17.85 27.88 21.84 50.79 2.79 16.05 6.88 46.83 7.72 58.14l.68 9.14-2.88.58c-4 .8-28.73 4.2-47.89 6.6-55.37 6.93-124.54 11.69-189.5 13.04-64.8 1.35-263.6.98-298-.55"/><path fill="#4c5151" d="M474 1149.45c-57.36-2.56-96.97-5.4-139.5-10.04-22.35-2.44-64.06-7.83-69.89-9.03l-2.88-.6.68-9.14c1.74-23.29 8.41-65.65 12.32-78.14 2.83-9.06 3.67-10.88 10.1-21.88 8.42-14.4 21.84-22.79 43.17-26.99a317 317 0 0 1 18.25-3.12c5.65-.64 5.75-.7 5.76-3.83.06-14.14 2.3-54.9 3.53-64.4 2.98-22.93 8.13-40.16 17.92-59.95 15.13-30.61 23.98-41.16 98.92-117.98 39.2-40.18 47.3-49.28 57.96-65.16 6.7-9.98 16.6-29.73 19.6-39.06 2.74-8.58 7.46-30.06 6.76-30.77-.31-.3-7.23 1.03-15.38 2.98-13.87 3.31-20.99 4.74-63.32 12.7-20.07 3.78-25.75 5.6-38 12.23-8.76 4.73-11.1 6.73-30 25.73-11.27 11.32-22.7 22.03-25.4 23.78a55 55 0 0 1-23.02 8.24c-15.07 1.96-50.18.74-52.78-1.83-.39-.38.8-4.75 2.66-9.7 7.34-19.64 10.87-45.01 6.83-49.06-4.7-4.7-16.84-6.44-28.29-4.04-10.44 2.19-21.61 8.04-34.46 18.06-6.03 4.7-11.3 8.55-11.73 8.55s-7.68-6.86-16.12-15.25c-27.31-27.14-36.1-44.97-32.93-66.75 1.87-12.87 8.73-26.6 27.9-55.86 19.27-29.4 36.78-50 57.84-68.06 12.58-10.8 20.1-16.19 60.45-43.38 45.1-30.4 52.16-35.65 65.37-48.6 17.78-17.42 28.8-33.87 37.14-55.44 5.89-15.24 10.54-30.93 10.54-35.57 0-3.5-.37-3.88-9.41-9.78-10.47-6.82-10.16-6.06-6.74-16.31 1.38-4.13 3.86-12.1 7.66-24.5 6.41-20.97 8.92-28.35 11.62-34.2 1.58-3.42 2.87-6.54 2.87-6.92 0-2.48 20.32-31.79 24.76-35.71 1.6-1.42 2.51-1.6 4.03-.78 2.92 1.56 22.08 16.99 36.02 29 6.77 5.84 12.68 10.74 13.12 10.9.45.16 1.59-1.64 2.53-4 4.38-11.02 21.8-34.84 34.92-47.73 6.4-6.28 6.62-6.4 9.22-5 2.84 1.51 20.33 19.77 42.6 44.44a595 595 0 0 0 22.47 23.59l8.92 8.59 12.46 1.2c44.56 4.32 73.28 8.63 96.64 14.5 86.76 21.83 142.92 70 189.06 162.12 40.76 81.4 70.9 194.3 78.34 293.46 1.7 22.69.65 69.35-2 88.77-4.94 36.29-12.89 62.33-28.15 92.26-12.2 23.91-24.97 42.8-51.05 75.51-17.43 21.86-23.94 31.34-26.83 39.07-2.27 6.06-3.91 21.78-2.38 22.73.52.32 6.55 1.54 13.39 2.7 22.68 3.87 33.75 8.83 43.96 19.71 10.83 11.54 17.85 27.88 21.84 50.79 2.79 16.05 6.88 46.83 7.72 58.14l.68 9.14-2.88.58c-4 .8-28.73 4.2-47.89 6.6-55.37 6.93-124.54 11.69-189.5 13.04-64.8 1.35-263.6.98-298-.55m-153.44-46.2c4.85-28.18 12.25-46.64 23.3-58.1 6.59-6.84 13.42-10.56 30.48-16.61 14.82-5.25 14.21-5.56-12.36-6.26-21.33-.55-31.09.42-39.19 3.9-7.6 3.28-13.8 12.51-18.67 27.82-3.86 12.11-10.2 48.26-8.73 49.73.8.8 15.21 2.98 20.81 3.15 3.53.11 3.74-.06 4.36-3.63m86.72-140.5c.42-28.73.71-33.23 2.65-41.24 8.44-34.78 18.93-50.95 69.1-106.51 39.6-43.84 50.13-57.77 62.4-82.5 7.64-15.42 16.2-36.2 15.28-37.12-.2-.2-2.87 3.12-5.94 7.37-10.8 15.02-22.44 27.82-65.14 71.62-55.65 57.09-63.12 65.42-74.9 83.63-20.14 31.15-26.05 54.65-27.4 109.07l-.64 25.58 9.4 1c5.18.56 10.6 1.1 12.07 1.18l2.65.17ZM238 579.78c26.13-38.9 52.47-71.11 72.84-89.07 16.83-14.84 21.49-18.14 65-46.11 34.03-21.88 47.76-32.11 61.16-45.58 21.53-21.65 34.73-44.7 50.04-87.37l5.69-15.84 16.38-8.5c37.23-19.28 53.61-34.08 63.34-57.19 1.3-3.1 4.21-11.63 6.46-18.94 4.22-13.76 5.6-17.18 6.95-17.18.8 0 6.25 3.71 25.64 17.46 10.8 7.66 24.07 14.8 30 16.13 2.46.56-.07-2.38-14-16.2a779 779 0 0 1-29.95-31.64c-7.12-8.11-13.5-14.75-14.18-14.75-2.95 0-16.6 25.84-21.91 41.5-3.43 10.1-6.32 15.84-13.27 26.41-13.78 20.96-31.9 34.97-53.92 41.69-4.82 1.47-9.3 3.18-9.93 3.79s-2.15 4.71-3.35 9.11c-7.3 26.56-20.56 54.36-34.72 72.81-17.2 22.41-32.87 35.27-88.27 72.37-45.9 30.75-52.88 36.05-70.58 53.75-18.78 18.76-31.53 35.56-50.18 66.07-9.18 15-12.53 22.73-12.53 28.9 0 5.2 1.85 12.64 3.12 12.56.37-.02 4.94-6.4 10.17-14.18M484.58 245c2.37 0 1.6-1.78-1.58-3.66-1.65-.97-3-2.49-3-3.36 0-1.37 12.85-31.09 15.93-36.84 1.04-1.96 1.5-1.85 14.66 3.6 11.03 4.56 13.74 5.35 14.44 4.2 1.1-1.77-.96-4.1-7.53-8.52-2.75-1.85-9.47-7.2-14.94-11.9-5.47-4.68-10.5-8.52-11.2-8.52-1.59 0-6.82 11-12.36 26l-8.13 21.93a321 321 0 0 0-3.87 10.74c0 .9 13.7 7.17 14.83 6.78a10 10 0 0 1 2.75-.45"/><path fill="#454949" d="M474 1149.45c-57.36-2.56-96.97-5.4-139.5-10.04-22.35-2.44-64.06-7.83-69.89-9.03l-2.88-.6.68-9.14c1.74-23.29 8.41-65.65 12.32-78.14 2.83-9.06 3.67-10.88 10.1-21.88 8.42-14.4 21.84-22.79 43.17-26.99a317 317 0 0 1 18.25-3.12c5.65-.64 5.75-.7 5.76-3.83.06-14.14 2.3-54.9 3.53-64.4 2.98-22.93 8.13-40.16 17.92-59.95 15.13-30.61 23.98-41.16 98.92-117.98 39.2-40.18 47.3-49.28 57.96-65.16 6.7-9.98 16.6-29.73 19.6-39.06 2.74-8.58 7.46-30.06 6.76-30.77-.31-.3-7.23 1.03-15.38 2.98-13.87 3.31-20.99 4.74-63.32 12.7-20.07 3.78-25.75 5.6-38 12.23-8.76 4.73-11.1 6.73-30 25.73-11.27 11.32-22.7 22.03-25.4 23.78a55 55 0 0 1-23.02 8.24c-15.07 1.96-50.18.74-52.78-1.83-.39-.38.8-4.75 2.66-9.7 7.34-19.64 10.87-45.01 6.83-49.06-4.7-4.7-16.84-6.44-28.29-4.04-10.44 2.19-21.61 8.04-34.46 18.06-6.03 4.7-11.3 8.55-11.73 8.55s-7.68-6.86-16.12-15.25c-27.31-27.14-36.1-44.97-32.93-66.75 1.87-12.87 8.73-26.6 27.9-55.86 19.27-29.4 36.78-50 57.84-68.06 12.58-10.8 20.1-16.19 60.45-43.38 45.1-30.4 52.16-35.65 65.37-48.6 17.78-17.42 28.8-33.87 37.14-55.44 5.89-15.24 10.54-30.93 10.54-35.57 0-3.5-.37-3.88-9.41-9.78-10.47-6.82-10.16-6.06-6.74-16.31 1.38-4.13 3.86-12.1 7.66-24.5 6.41-20.97 8.92-28.35 11.62-34.2 1.58-3.42 2.87-6.54 2.87-6.92 0-2.48 20.32-31.79 24.76-35.71 1.6-1.42 2.51-1.6 4.03-.78 2.92 1.56 22.08 16.99 36.02 29 6.77 5.84 12.68 10.74 13.12 10.9.45.16 1.59-1.64 2.53-4 4.38-11.02 21.8-34.84 34.92-47.73 6.4-6.28 6.62-6.4 9.22-5 2.84 1.51 20.33 19.77 42.6 44.44a595 595 0 0 0 22.47 23.59l8.92 8.59 12.46 1.2c44.56 4.32 73.28 8.63 96.64 14.5 86.76 21.83 142.92 70 189.06 162.12 40.76 81.4 70.9 194.3 78.34 293.46 1.7 22.69.65 69.35-2 88.77-4.94 36.29-12.89 62.33-28.15 92.26-12.2 23.91-24.97 42.8-51.05 75.51-17.43 21.86-23.94 31.34-26.83 39.07-2.27 6.06-3.91 21.78-2.38 22.73.52.32 6.55 1.54 13.39 2.7 22.68 3.87 33.75 8.83 43.96 19.71 10.83 11.54 17.85 27.88 21.84 50.79 2.79 16.05 6.88 46.83 7.72 58.14l.68 9.14-2.88.58c-4 .8-28.73 4.2-47.89 6.6-55.37 6.93-124.54 11.69-189.5 13.04-64.8 1.35-263.6.98-298-.55m166.5-31.84c54.09-4.97 93.77-9.65 141-16.62 29.24-4.32 153.24-23.06 156.37-23.64l3.37-.62-.65-5.6c-1.32-11.22-14.35-44.25-18.95-48.03-2.11-1.73-12.38-1.2-44.64 2.33-74.73 8.18-128.92 10.55-241 10.54-76.97 0-132.65-1.2-161.5-3.48-38.22-3-85.06-7.72-89.5-9-5.08-1.46-27.67-2.28-40.04-1.45-23.26 1.56-28.82 4.68-36.51 20.46-4.82 9.9-7.2 18.82-10.96 40.97-2.8 16.57-3.03 20.4-1.24 21.04 1.64.59 41.67 4.96 68.25 7.46 31.94 3 73.36 5.6 127.5 8 10.18.44 41.23.7 69 .56 45.59-.22 53.32-.5 79.5-2.92M747 1003c31.1-1 59.63-2.5 68.35-3.6l4.85-.6-.69-14.15c-.8-16.8.7-26.14 6.02-37.14 7.4-15.34 15.36-25.26 46.9-58.5 40.7-42.88 51.85-57.17 65.48-83.9 16.63-32.63 23.12-62.24 27.2-124.16 4.97-75.3-14.34-203.36-41.82-277.44-2.45-6.6-8.63-20.77-13.74-31.5a5713 5713 0 0 1-13.49-28.5c-26.65-57.1-95.17-99.04-179.56-109.92-14.64-1.88-38.64-3.54-51.61-3.56-18.44-.03-16.67.83-35.43-17.3a707 707 0 0 1-31.09-32.38c-7.98-9-14.97-16.09-15.52-15.74-3.63 2.23-15.47 25.24-21.4 41.54-8.18 22.49-21.34 40.85-38.66 53.9-9.31 7.02-18.2 11.42-30.29 15.03-6.78 2.03-9.08 3.15-9.33 4.56-.18 1.03-2.8 9.37-5.83 18.53-8.92 27.01-21.25 50.3-36 68.03-15.73 18.88-32.94 32.54-83.84 66.56-49.06 32.79-62.9 43.74-80.43 63.7-15.32 17.42-38.56 51.46-48.46 70.97-3.5 6.88-4.02 8.79-4.02 14.55 0 5.67.48 7.5 3.34 12.58 3.53 6.3 11.17 16.36 15.4 20.31l2.54 2.36 5.81-3.5c9.58-5.76 15.73-8.55 25.01-11.36 7.74-2.33 10.57-2.66 23.31-2.71 15.6-.06 22.04 1.35 31.46 6.88 11.31 6.64 19.54 21.18 19.54 34.52 0 1.62.25 2.95.55 2.95s7.1-6.1 15.14-13.55c29.48-27.38 53.28-46.87 63.7-52.14 8.26-4.2 12.08-5.2 33.6-8.8 24.72-4.16 61.94-11.63 74.76-15.02 22.3-5.89 34.14-13.35 57.68-36.37 20.27-19.83 25.99-24.34 40.71-32.15 6.12-3.25 11.96-6.65 12.97-7.57 1.73-1.57 2-1.49 4.71 1.41 2.82 3.01 9.18 15.17 13.35 25.49 2.96 7.33 3.65 22.94 1.41 31.7-6.72 26.28-32.93 56.08-74.19 84.34l-11.1 7.6-1.77 7.28c-6.23 25.73-19.72 51.67-40.21 77.35-9.62 12.05-19.27 22.4-49.34 52.93-51.72 52.51-66.78 68.93-78.42 85.5-16.55 23.57-25.38 46.35-29.07 75.04-.8 6.3-1.77 23.65-2.13 38.55l-.66 27.1 5.4.63c34.15 4 96.26 8.43 134.41 9.56 39.54 1.18 189.1 1.25 224.5.1M273.68 572.87c-2.4-3.74-3.88-10.74-3.17-14.96 1.27-7.48 13.22-22.34 20.06-24.94 1.4-.53 4.54-.97 6.96-.97 3.54 0 5.13.64 8.1 3.24 6.42 5.64 8.93 13.9 5.95 19.56-3.99 7.59-21.97 18.81-31.92 19.94-3.89.43-4.65.2-5.98-1.87m237.03-199.34c-9.77-3.74-15.22-11.3-15.18-21.03.03-8.27 3.14-14.04 12.97-24.03 8.63-8.77 29.36-26.45 31-26.44 1.52.02 22.74 29.26 24.88 34.3 1.47 3.44 1.73 5.62 1.2 9.93-1.43 11.4-8.65 17.74-27.34 24-13.29 4.45-21.82 5.46-27.53 3.27M496 239.85c8.68-4.22 11.71-6.34 17.5-12.24 7.17-7.31 13.36-17.93 12.2-20.95-.32-.84-3.07-3.12-6.1-5.06-3.05-1.94-8.8-6.36-12.82-9.82-11.87-10.26-13.86-11.78-15.42-11.78-1.87 0-8.67 14.43-14.14 30-2.22 6.33-5.45 15.29-7.17 19.91s-2.77 8.77-2.33 9.2c.43.44 3.26 2.18 6.28 3.86 6.81 3.81 8.16 3.62 22-3.12"/><path fill="#3e4141" d="M474 1149.45c-57.36-2.56-96.97-5.4-139.5-10.04-22.35-2.44-64.06-7.83-69.89-9.03l-2.88-.6.68-9.14c1.74-23.29 8.41-65.65 12.32-78.14 2.83-9.06 3.67-10.88 10.1-21.88 8.42-14.4 21.84-22.79 43.17-26.99a317 317 0 0 1 18.25-3.12c5.65-.64 5.75-.7 5.76-3.83.06-14.14 2.3-54.9 3.53-64.4 2.98-22.93 8.13-40.16 17.92-59.95 15.13-30.61 23.98-41.16 98.92-117.98 39.2-40.18 47.3-49.28 57.96-65.16 6.7-9.98 16.6-29.73 19.6-39.06 2.74-8.58 7.46-30.06 6.76-30.77-.31-.3-7.23 1.03-15.38 2.98-13.87 3.31-20.99 4.74-63.32 12.7-20.07 3.78-25.75 5.6-38 12.23-8.76 4.73-11.1 6.73-30 25.73-11.27 11.32-22.7 22.03-25.4 23.78a55 55 0 0 1-23.02 8.24c-15.07 1.96-50.18.74-52.78-1.83-.39-.38.8-4.75 2.66-9.7 7.34-19.64 10.87-45.01 6.83-49.06-4.7-4.7-16.84-6.44-28.29-4.04-10.44 2.19-21.61 8.04-34.46 18.06-6.03 4.7-11.3 8.55-11.73 8.55s-7.68-6.86-16.12-15.25c-27.31-27.14-36.1-44.97-32.93-66.75 1.87-12.87 8.73-26.6 27.9-55.86 19.27-29.4 36.78-50 57.84-68.06 12.58-10.8 20.1-16.19 60.45-43.38 45.1-30.4 52.16-35.65 65.37-48.6 17.78-17.42 28.8-33.87 37.14-55.44 5.89-15.24 10.54-30.93 10.54-35.57 0-3.5-.37-3.88-9.41-9.78-10.47-6.82-10.16-6.06-6.74-16.31 1.38-4.13 3.86-12.1 7.66-24.5 6.41-20.97 8.92-28.35 11.62-34.2 1.58-3.42 2.87-6.54 2.87-6.92 0-2.48 20.32-31.79 24.76-35.71 1.6-1.42 2.51-1.6 4.03-.78 2.92 1.56 22.08 16.99 36.02 29 6.77 5.84 12.68 10.74 13.12 10.9.45.16 1.59-1.64 2.53-4 4.38-11.02 21.8-34.84 34.92-47.73 6.4-6.28 6.62-6.4 9.22-5 2.84 1.51 20.33 19.77 42.6 44.44a595 595 0 0 0 22.47 23.59l8.92 8.59 12.46 1.2c44.56 4.32 73.28 8.63 96.64 14.5 86.76 21.83 142.92 70 189.06 162.12 40.76 81.4 70.9 194.3 78.34 293.46 1.7 22.69.65 69.35-2 88.77-4.94 36.29-12.89 62.33-28.15 92.26-12.2 23.91-24.97 42.8-51.05 75.51-17.43 21.86-23.94 31.34-26.83 39.07-2.27 6.06-3.91 21.78-2.38 22.73.52.32 6.55 1.54 13.39 2.7 22.68 3.87 33.75 8.83 43.96 19.71 10.83 11.54 17.85 27.88 21.84 50.79 2.79 16.05 6.88 46.83 7.72 58.14l.68 9.14-2.88.58c-4 .8-28.73 4.2-47.89 6.6-55.37 6.93-124.54 11.69-189.5 13.04-64.8 1.35-263.6.98-298-.55m166.5-31.29c55.59-5.24 82.1-8.28 124-14.23 34.29-4.88 173.85-25.95 175.82-26.55 1.53-.47 1.72-1.23 1.18-4.72-1.81-11.6-8.95-31.5-15.76-43.94l-3.41-6.22-6.63-.3c-3.64-.16-21.83 1.3-40.41 3.24-60.56 6.31-89.87 8.18-150.07 9.56-80.18 1.84-208.3.55-248.22-2.5-28-2.13-70.46-6.22-88-8.47-22.1-2.84-29.32-3.18-44-2.1-17.87 1.32-23.25 2.97-29 8.92-8.6 8.9-13.63 22.93-18.47 51.65-2.83 16.83-3.1 21.35-1.28 22.02 1.93.7 62.08 7.21 82.25 8.9a2019 2019 0 0 0 183 7.15c48.42-.2 59.11-.54 79-2.4M753 1003c29.09-1.11 58.8-2.77 64.12-3.57l3.61-.55-.47-15.69c-1-33.02 5.2-44.18 51.9-93.32 42.74-44.97 53.3-58.63 67.92-87.86 11.29-22.57 17.2-44.04 21.36-77.52 4.16-33.53 4.87-47.15 4.26-81.87-.85-49.02-6.36-95.78-17.85-151.61-10.51-51.1-21.71-86.05-39.1-122-4.12-8.52-9.6-20-12.2-25.5-18.28-38.95-55.15-70.6-105.97-90.99-35.96-14.42-66.63-20.17-120-22.5-16.34-.71-23.5-1.39-25-2.37-4.88-3.23-31.12-29.5-45.94-46.01l-16.04-17.87-2.26 2.63c-5.67 6.59-13.98 23.07-19.42 38.5-12.49 35.44-38.2 61.22-70.3 70.48l-7.85 2.27-3.31 10.93c-5.5 18.15-9.45 28.16-17.13 43.4-9.63 19.1-18.1 30.82-33.32 46.05-15.43 15.44-25.6 23.1-72.75 54.8-20.46 13.76-40.02 27.16-43.48 29.78-17.6 13.36-32.02 27.45-46.47 45.4-14.36 17.83-39.21 57.42-41.94 66.8-3.34 11.5.71 21.3 15.7 37.93l4.55 5.07 6.94-4.4a100 100 0 0 1 28.11-12.07c9.66-2.37 29.81-2.34 37.83.06 18.99 5.67 29.19 16.94 31.82 35.17l1.21 8.43 11.49-10.64c16.56-15.33 36.1-32.48 46.48-40.78 20.94-16.76 24.96-18.54 52.05-23.08 25.54-4.28 62.4-11.65 75.95-15.18 24-6.26 35.44-13.47 61.4-38.74 18.86-18.35 26.6-24.35 40.1-31.08 4.12-2.06 8.7-4.59 10.16-5.62 3.52-2.49 4.86-1.8 8.59 4.41 9.46 15.78 14 31.8 12.66 44.72-2.92 28.18-30 61.31-74.83 91.55l-11.3 7.63-1.27 5.66c-4.02 17.98-15.04 42.93-26.78 60.6-13.33 20.09-24.24 32.44-67.22 76.06-37.09 37.65-51.65 52.97-61.36 64.52-21.6 25.68-34.2 49.96-39.64 76.3-3.03 14.7-4.04 26.44-4.7 54.78l-.61 26.6 4.9.64c30.83 4.02 95.29 8.48 144.4 10 24.88.76 199.17.5 221-.34M273.66 572.88c-2.64-4.04-3.84-11.49-2.6-16.08 2.05-7.64 9.42-17.22 16.89-21.97 10-6.36 21.06-1.27 24.02 11.05 1.44 6.03.04 9.77-5.75 15.39-4.73 4.57-20.52 12.55-26.47 13.36-4.04.55-4.72.36-6.1-1.75m239.48-198.95c-7.94-1.56-15.24-8.94-17.12-17.32-2.07-9.24 2.28-18.28 14.4-29.94 6.83-6.57 28.01-24.66 28.87-24.66.73 0 11.91 14.5 18.99 24.6 6.78 9.7 8.26 14.5 6.72 21.89-2.25 10.86-11.56 17.45-33.27 23.57-10.95 3.09-11.9 3.18-18.6 1.86m-23.35-130.97c10.95-4.39 17.91-8.93 25-16.32 5.91-6.15 11.18-15.04 11.2-18.9 0-.99-2.06-3.2-4.66-5-4.2-2.9-10.13-7.6-23.95-18.98-2.5-2.06-5.18-3.75-5.95-3.75-1.58 0-6.8 9.94-10.75 20.5-6.65 17.7-13.68 37.33-13.68 38.16 0 1.01 11.72 7.19 13.83 7.28.74.03 4.77-1.31 8.96-3"/><path fill="#2d2f2f" d="M474 1149.45c-57.36-2.56-96.97-5.4-139.5-10.04-22.35-2.44-64.06-7.83-69.89-9.03l-2.88-.6.68-9.14c1.74-23.29 8.41-65.65 12.32-78.14 2.83-9.06 3.67-10.88 10.1-21.88 8.42-14.4 21.84-22.79 43.17-26.99a317 317 0 0 1 18.25-3.12c5.65-.64 5.75-.7 5.76-3.83.06-14.14 2.3-54.9 3.53-64.4 2.98-22.93 8.13-40.16 17.92-59.95 15.13-30.61 23.98-41.16 98.92-117.98 39.2-40.18 47.3-49.28 57.96-65.16 6.7-9.98 16.6-29.73 19.6-39.06 2.74-8.58 7.46-30.06 6.76-30.77-.31-.3-7.23 1.03-15.38 2.98-13.87 3.31-20.99 4.74-63.32 12.7-20.07 3.78-25.75 5.6-38 12.23-8.76 4.73-11.1 6.73-30 25.73-11.27 11.32-22.7 22.03-25.4 23.78a55 55 0 0 1-23.02 8.24c-15.07 1.96-50.18.74-52.78-1.83-.39-.38.8-4.75 2.66-9.7 7.34-19.64 10.87-45.01 6.83-49.06-4.7-4.7-16.84-6.44-28.29-4.04-10.44 2.19-21.61 8.04-34.46 18.06-6.03 4.7-11.3 8.55-11.73 8.55s-7.68-6.86-16.12-15.25c-27.31-27.14-36.1-44.97-32.93-66.75 1.87-12.87 8.73-26.6 27.9-55.86 19.27-29.4 36.78-50 57.84-68.06 12.58-10.8 20.1-16.19 60.45-43.38 45.1-30.4 52.16-35.65 65.37-48.6 17.78-17.42 28.8-33.87 37.14-55.44 5.89-15.24 10.54-30.93 10.54-35.57 0-3.5-.37-3.88-9.41-9.78-10.47-6.82-10.16-6.06-6.74-16.31 1.38-4.13 3.86-12.1 7.66-24.5 6.41-20.97 8.92-28.35 11.62-34.2 1.58-3.42 2.87-6.54 2.87-6.92 0-2.48 20.32-31.79 24.76-35.71 1.6-1.42 2.51-1.6 4.03-.78 2.92 1.56 22.08 16.99 36.02 29 6.77 5.84 12.68 10.74 13.12 10.9.45.16 1.59-1.64 2.53-4 4.38-11.02 21.8-34.84 34.92-47.73 6.4-6.28 6.62-6.4 9.22-5 2.84 1.51 20.33 19.77 42.6 44.44a595 595 0 0 0 22.47 23.59l8.92 8.59 12.46 1.2c44.56 4.32 73.28 8.63 96.64 14.5 86.76 21.83 142.92 70 189.06 162.12 40.76 81.4 70.9 194.3 78.34 293.46 1.7 22.69.65 69.35-2 88.77-4.94 36.29-12.89 62.33-28.15 92.26-12.2 23.91-24.97 42.8-51.05 75.51-17.43 21.86-23.94 31.34-26.83 39.07-2.27 6.06-3.91 21.78-2.38 22.73.52.32 6.55 1.54 13.39 2.7 22.68 3.87 33.75 8.83 43.96 19.71 10.83 11.54 17.85 27.88 21.84 50.79 2.79 16.05 6.88 46.83 7.72 58.14l.68 9.14-2.88.58c-4 .8-28.73 4.2-47.89 6.6-55.37 6.93-124.54 11.69-189.5 13.04-64.8 1.35-263.6.98-298-.55m319.5-29.96c65.19-2.8 113.77-6.42 158.5-11.82l26.5-3.2-.26-5.98c-.15-3.3-1.17-11.16-2.27-17.49-6.02-34.46-12.89-49.72-24.68-54.77-12.76-5.48-30.66-5.81-72.79-1.35-49.82 5.27-79.13 7.51-119.5 9.12-31.9 1.28-217.29 1.26-249.2-.02-34.4-1.37-92.36-6.3-122.8-10.45-24.85-3.38-50.97-2.76-62.3 1.48-10.63 3.98-18.17 15.77-23.02 35.99-2.42 10.1-6.33 32.76-6.9 39.99l-.28 3.48 9.14 1.22c33.18 4.44 87.88 9.28 133.36 11.8 54.39 3.02 65.16 3.21 193 3.36 100.17.11 136.22-.19 163.5-1.36M725 1003.53c41.34-.52 77.9-2.35 111.5-5.6 25.26-2.43 55.84-5.93 56.35-6.44.2-.2.75-5.57 1.23-11.92.47-6.35 1.59-14.36 2.48-17.8 3.2-12.39 13.42-28.44 35-54.93 33.52-41.17 49.75-69 61.32-105.2 8.56-26.8 12.04-50.18 12.82-86.14 2.57-119.63-41.58-280.23-102-371-14.15-21.26-32.01-41.12-50.2-55.8-37.38-30.18-87.19-49.82-142.3-56.13-7.3-.83-24.63-2.03-38.5-2.66l-25.2-1.15-4.48-3.63c-8.9-7.2-24.64-23-41.75-41.88-9.6-10.59-17.76-19.25-18.13-19.25-1.2 0-10.95 16.28-15 25.07a242 242 0 0 0-7 17.17c-9.44 26.76-28.35 49.72-50.59 61.43-3.88 2.05-11.52 5.14-16.99 6.87l-9.94 3.15-3.74 12.4c-12.53 41.57-30.93 72-57.95 95.85-12.33 10.88-26.36 21.01-64.43 46.54-43.66 29.27-54.11 37.16-69.5 52.48-14.8 14.74-22.58 24.28-35.92 44.04-20.24 29.97-28.08 44.77-28.08 53.03 0 7.9 5.87 18.53 17.34 31.37l4.37 4.9 4.64-3.2c7.17-4.93 20.32-10.87 29.15-13.15 9.56-2.48 28.1-3 36.5-1.01 14.12 3.33 25.7 11.9 30.81 22.82 2.62 5.59 2.69 6.23 2.65 24.09l-.03 18.35 5.03-.65c11.93-1.54 11.66-1.35 33.04-22.97 22.13-22.37 27.67-26.6 47.99-36.61l12.53-6.18 29.24-5.33c75.74-13.83 89.79-18.56 110.03-37.05 19.5-17.82 29.17-29.37 46.87-55.92 6.96-10.44 13.82-20.08 15.25-21.41l2.59-2.43 2.38 2.24c1.31 1.23 3.9 5.22 5.75 8.87 2.74 5.4 3.37 7.78 3.37 12.78 0 5.31-.64 7.43-4.68 15.58-9.24 18.6-18.65 30.07-50.4 61.38l-19.26 19-1.69 12c-4.53 32.1-14.59 59.36-31.18 84.5-14 21.2-24.42 32.93-73.8 83-55.84 56.64-69.24 72.66-81.97 98-12.34 24.58-16.22 44.8-17.2 89.64l-.62 28.13 3.9.63c4.79.77 39.4 4.03 64.4 6.06 35.62 2.9 58.97 3.79 118 4.44 58.25.65 77.96.6 156-.37m-449.71-429.3c-2.12-1.4-4.29-8-4.29-13 0-6.56 3.76-13.8 10.97-21.12 6.28-6.38 11.18-8.67 16.65-7.78 10.51 1.7 16.86 15.3 11.32 24.26-2.8 4.53-7.85 8.24-17.94 13.2-8.78 4.3-14.6 5.85-16.71 4.45M508.5 372.1c-11.08-5.13-15.66-18.4-10.28-29.83 2.92-6.22 13.4-17.14 28.74-29.96l12.45-10.42 1.83 2.3c7.05 8.87 19.41 25.75 21.37 29.18 2.99 5.22 3.21 14.22.51 20.17-3.52 7.75-13.72 13.7-30.99 18.08-11.22 2.85-18.22 2.99-23.63.48m-11.83-132.09c7.94-3.88 11.83-6.52 16.63-11.29 6.16-6.12 12.7-16.64 12.7-20.44 0-2.1-2.26-4.37-8.5-8.57-2.2-1.48-8.5-6.52-14-11.2-6.43-5.48-10.71-8.43-12-8.26-1.38.17-3.04 2.4-5.38 7.25-3.31 6.86-19.11 49.01-19.12 51.01 0 .56 2.81 2.5 6.25 4.29 7.85 4.1 9.78 3.87 23.42-2.79"/><path fill="#151616" d="M474 1149.45c-57.36-2.56-96.97-5.4-139.5-10.04-22.35-2.44-64.06-7.83-69.89-9.03l-2.88-.6.68-9.14c1.74-23.29 8.41-65.65 12.32-78.14 2.83-9.06 3.67-10.88 10.1-21.88 8.42-14.4 21.84-22.79 43.17-26.99a317 317 0 0 1 18.25-3.12c5.65-.64 5.75-.7 5.76-3.83.06-14.14 2.3-54.9 3.53-64.4 2.98-22.93 8.13-40.16 17.92-59.95 15.13-30.61 23.98-41.16 98.92-117.98 39.2-40.18 47.3-49.28 57.96-65.16 6.7-9.98 16.6-29.73 19.6-39.06 2.74-8.58 7.46-30.06 6.76-30.77-.31-.3-7.23 1.03-15.38 2.98-13.87 3.31-20.99 4.74-63.32 12.7-20.07 3.78-25.75 5.6-38 12.23-8.76 4.73-11.1 6.73-30 25.73-11.27 11.32-22.7 22.03-25.4 23.78a55 55 0 0 1-23.02 8.24c-15.07 1.96-50.18.74-52.78-1.83-.39-.38.8-4.75 2.66-9.7 7.34-19.64 10.87-45.01 6.83-49.06-4.7-4.7-16.84-6.44-28.29-4.04-10.44 2.19-21.61 8.04-34.46 18.06-6.03 4.7-11.3 8.55-11.73 8.55s-7.68-6.86-16.12-15.25c-27.31-27.14-36.1-44.97-32.93-66.75 1.87-12.87 8.73-26.6 27.9-55.86 19.27-29.4 36.78-50 57.84-68.06 12.58-10.8 20.1-16.19 60.45-43.38 45.1-30.4 52.16-35.65 65.37-48.6 17.78-17.42 28.8-33.87 37.14-55.44 5.89-15.24 10.54-30.93 10.54-35.57 0-3.5-.37-3.88-9.41-9.78-10.47-6.82-10.16-6.06-6.74-16.31 1.38-4.13 3.86-12.1 7.66-24.5 6.41-20.97 8.92-28.35 11.62-34.2 1.58-3.42 2.87-6.54 2.87-6.92 0-2.48 20.32-31.79 24.76-35.71 1.6-1.42 2.51-1.6 4.03-.78 2.92 1.56 22.08 16.99 36.02 29 6.77 5.84 12.68 10.74 13.12 10.9.45.16 1.59-1.64 2.53-4 4.38-11.02 21.8-34.84 34.92-47.73 6.4-6.28 6.62-6.4 9.22-5 2.84 1.51 20.33 19.77 42.6 44.44a595 595 0 0 0 22.47 23.59l8.92 8.59 12.46 1.2c44.56 4.32 73.28 8.63 96.64 14.5 86.76 21.83 142.92 70 189.06 162.12 40.76 81.4 70.9 194.3 78.34 293.46 1.7 22.69.65 69.35-2 88.77-4.94 36.29-12.89 62.33-28.15 92.26-12.2 23.91-24.97 42.8-51.05 75.51-17.43 21.86-23.94 31.34-26.83 39.07-2.27 6.06-3.91 21.78-2.38 22.73.52.32 6.55 1.54 13.39 2.7 22.68 3.87 33.75 8.83 43.96 19.71 10.83 11.54 17.85 27.88 21.84 50.79 2.79 16.05 6.88 46.83 7.72 58.14l.68 9.14-2.88.58c-4 .8-28.73 4.2-47.89 6.6-55.37 6.93-124.54 11.69-189.5 13.04-64.8 1.35-263.6.98-298-.55m290-28.46c53.73-1.73 110.82-5.01 148.5-8.54 19.04-1.78 66.82-7.43 67.35-7.97.61-.61-5.65-37.28-7.94-46.5-2.42-9.76-7.45-20.86-11.83-26.1-4.02-4.83-10.1-7.53-21.31-9.5-11.83-2.07-27.2-1.47-65.27 2.55-77.96 8.23-120.5 10-240.5 10.01-119.17.01-162.5-2-239.5-11.1-22.44-2.65-28.2-3-42-2.53-23.39.78-31.28 2.97-37.35 10.33-7.71 9.35-12.2 22.29-16.59 47.86-3.2 18.64-3.98 25.5-2.9 25.5.5 0 7.86.87 16.37 1.93 54.94 6.86 126.76 12.07 192.5 13.97 40.02 1.16 225.32 1.22 260.47.1m-26.5-117c44.38-1.32 77.2-3.36 113.5-7.05 39.4-4 39.8-4.05 41.34-5.33.87-.72 1.73-5.65 2.46-14.11 1.14-13.26 2.9-20.05 7.48-29.02 4-7.81 16.89-25.63 33.03-45.63 45-55.75 63.08-97.13 69.86-159.85 1.8-16.7 1.51-59.8-.55-81.5-6.26-65.69-18.17-123-38.04-183-17.65-53.3-39.8-100.82-62.66-134.5-24.75-36.45-51.97-61.33-87.95-80.37-29.9-15.82-65.49-26.67-101.97-31.08-14.84-1.8-42.5-3.53-56.5-3.54l-10-.01-13-11.85c-7.15-6.52-14.16-13.16-15.58-14.75-19.8-22.26-34.34-37.96-35.39-38.2-3.06-.71-16.28 23.55-22.5 41.28a117 117 0 0 1-25.73 42.59 96 96 0 0 1-44 26.9l-8.09 2.34-3.2 11.1c-13.98 48.59-35.87 81.09-74.2 110.22-5.34 4.05-26.4 18.62-46.81 32.37-39.58 26.67-52.06 35.74-64 46.47-9.03 8.13-21.04 21.16-29.52 32.03-11.35 14.56-33.63 49.3-39.12 61-2.95 6.3-3.11 14.5-.41 21.6 2.03 5.35 10.42 17 16.38 22.75l3.47 3.35 8.35-4.93c17.43-10.3 30.73-13.8 49.23-13 22.3.97 36.2 8.84 43.38 24.52 2.3 5.03 2.6 6.96 2.66 17.68.05 6.62-.29 14.62-.74 17.78l-.82 5.75h4.89c2.69 0 7.21-.69 10.05-1.53 5.64-1.68 8.1-3.87 29.22-26 13.3-13.93 19.83-19.17 32.98-26.47 18.98-10.54 22.56-11.76 46.99-16.1 58.86-10.42 80.52-15.96 98.33-25.16 6.13-3.16 10.63-6.74 20.91-16.64 18.8-18.09 26.08-26.81 41.72-50.01 7.63-11.33 15.06-21.7 16.5-23.06 3.56-3.32 4.95-2.27 9.8 7.33 5.7 11.33 5.51 15.97-1.2 29.14-9.22 18.12-16.3 26.87-43.72 54.11l-25.29 25.11-1.49 9.89c-5.72 37.92-14.8 62.33-33.44 90.01-12.3 18.27-22.22 29.39-67.68 75.87-23.14 23.65-45.35 46.61-49.36 51.01-35.22 38.67-49.51 69.17-52.96 113-.56 7.15-1.15 22.9-1.32 35l-.29 22 22 2.18c53.35 5.28 82.95 7.24 125 8.25 47.67 1.15 170.04 1.18 208 .05M274.36 572.85c-1.74-2.22-3.36-7.9-3.35-11.76.03-11.86 17.78-30.6 27.2-28.7 6.86 1.36 13.71 9.78 13.77 16.9.05 6.64-6.26 13.06-19.4 19.72-8.95 4.54-16.44 6.11-18.22 3.84M508.02 371.3c-7.85-4.13-11.52-10.26-11.52-19.23.01-8.6 3-13.86 14-24.59 9.7-9.45 27.13-23.98 28.79-23.98 1.44 0 20.84 25.52 23.65 31.11 4.16 8.3 1.87 18.83-5.5 25.31-7.14 6.27-23.64 12.3-37.2 13.61-6.16.6-7.21.4-12.22-2.23m-10.3-131.34c8.15-4.03 12.16-6.74 16.45-11.09 6.3-6.39 13.39-19.25 12.25-22.2-.37-.98-3.34-3.58-6.6-5.79a203 203 0 0 1-14.62-11.55c-14.62-12.64-14.48-12.63-19.51-1.99-2.92 6.18-18.05 46.65-18.9 50.54-.16.77 2.13 2.87 5.21 4.77 7.6 4.69 11.66 4.27 25.71-2.69"/><path fill="#0d0f0f" d="M893.56 992.7c.38-.98.94-1.53 1.25-1.23.3.31 0 1.12-.69 1.8-.98.98-1.1.86-.56-.56M449 809.5c1.3-1.37 2.57-2.5 2.85-2.5.27 0-.56 1.13-1.85 2.5-1.3 1.38-2.57 2.5-2.85 2.5-.27 0 .56-1.12 1.85-2.5m143-216.88c0-.2.79-1 1.75-1.75 1.59-1.24 1.62-1.2.38.38-1.3 1.67-2.13 2.2-2.13 1.37m-83.5-221.2c-10.8-5.61-14.83-17.82-9.54-28.92 2.66-5.58 16.1-19.5 30.38-31.47 7.13-5.97 9.17-7.2 10.5-6.38 2.03 1.25 11.16 12.94 18.85 24.1 5.43 7.9 5.68 8.54 5.67 14.5-.02 7.44-2.67 13.36-7.67 17.17-12.01 9.17-39.61 15.47-48.19 11m-71.1-118.67-1.9-2.25 2.25 1.9c1.24 1.05 2.25 2.07 2.25 2.25 0 .8-.8.21-2.6-1.9m5.16-26.04c.38-.99.94-1.54 1.25-1.24.3.31 0 1.12-.69 1.8-.98.98-1.1.86-.56-.56M452.57 195a18 18 0 0 1 1.6-4c.64-1.04.72-.74.26 1a18 18 0 0 1-1.6 4c-.64 1.04-.72.74-.26-1m2.46-6.5a6 6 0 0 1 .97-2.5c.53-.82.97-1.05.97-.5a6 6 0 0 1-.97 2.5c-.53.83-.97 1.05-.97.5m72.87-15.65c-5.17-4.48-14.01-11.94-19.65-16.58s-10.25-8.69-10.25-9 .79.09 1.75.9 5.8 4.82 10.75 8.87c15.38 12.62 28.33 23.96 27.36 23.96-.31 0-4.8-3.67-9.96-8.15m-63.87-3.35c3.36-5.74 9.97-15.5 10.48-15.5.53 0-10.38 17.07-11.82 18.5-.56.55.05-.8 1.34-3M479.5 147c2.54-3.3 4.84-6 5.12-6 .27 0-1.58 2.7-4.12 6s-4.84 6-5.12 6c-.27 0 1.58-2.7 4.12-6m14.9-2.25-1.9-2.25 2.25 1.9c1.24 1.05 2.25 2.07 2.25 2.25 0 .8-.8.21-2.6-1.9"/></svg>