<?xml version="1.0" encoding="UTF-8"?>
<svg version="1.1" viewBox="0 0 1280 1280" width="1280" height="1280" xmlns="http://www.w3.org/2000/svg">
<path transform="translate(634,285)" d="m0 0 23 2 20 4 20 6 18 8 17 9 17 12 13 11 16 16 13 17 11 18 10 21 7 21 5 24 1 8v26l-4 24-6 21-8 19-12 23-10 15-8 11-11 12-7 8-9 10 1 6 7 8 7 6 18 11 27 14 36 17 24 11 25 12 17 9 12 8 10 9 5 9 1 10-3 8-6 7-14 7-20 5-30 4-39 3-67 3h-8l4 24 5 19 7 16 8 14 13 16 33 33 11 14 8 16 5 14 3 16 1 9v9l3-1 21-2 10-2 30-2h24l18 4 12 5 11 8 9 9 8 13 6 12 6 29 6 45 2 17-1 1-59 8-49 5-55 4-33 2-90 3-51 1h-84l-87-2-53-2-64-4-56-5-55-7-21-3-1-5 6-50 6-31 4-11 8-15 7-9 7-6 5-5 13-6 15-4 6-1h24l30 2 17 3 12 1 1-16 3-16 6-17 7-13 11-14 34-34 11-14 8-13 8-18 6-23 3-18v-3l-55-2-48-3-35-4-20-4-14-5-8-6-5-6-2-5v-10l4-9 10-10 14-9 23-12 29-14 33-15 33-16 17-9 15-10 9-8 4-7-1-4-11-11-7-8-10-11-12-16-14-25-8-17-8-24-5-25-1-10v-16l3-22 5-20 8-22 12-23 11-16 11-13 11-12 14-12 16-11 14-8 19-9 21-7 17-4 14-2z" fill="#181919"/>
<path transform="translate(622,313)" d="m0 0h23l18 3 15 4 19 7 17 9 12 8 11 9 12 11 7 8 10 13 9 15 9 19 6 19 4 19 1 9v15l-3 20-6 21-5 12-14 29-10 14-13 15-8 8-10 5-16 4-25 3-17 1h-66l-28-2-24-4-13-5-8-6-10-10-9-11-10-15-12-24-6-15-5-16-3-16-1-9v-13l3-21 4-14 7-19 11-21 10-14 11-13 11-11 17-13 17-10 17-8 19-6z" fill="#4E5353"/>
<path transform="translate(349,1022)" d="m0 0h13l66 7 50 4 51 2h216l51-2 39-3 60-6 18-2h12l24 4 10 4 7 8 6 11 4 13 5 26 2 15v5l-48 6-56 5-66 4-56 2-38 1h-164l-69-2-60-3-55-4-49-5-30-4 1-16 6-31 5-16 7-11 5-4 9-4z" fill="#4E5353"/>
<path transform="translate(547,799)" d="m0 0h176l3 22 4 19 8 23 10 19 10 14 12 14 32 32 9 13 5 12 3 11 2 17v5l-3 1-26 2-61 2h-186l-62-2-32-2-3-1 1-16 4-17 4-9 6-10 11-12 28-28 9-11 10-14 9-17 7-19 5-18z" fill="#4E5353"/>
<path transform="translate(550,638)" d="m0 0 12 1 34 3h78l45-4 5 13 7 10 10 10 16 11 25 14 35 17 33 15 33 16 15 8 3 2v2l-22 4-29 3-50 3-53 2h-234l-69-3-40-3-23-3-14-3v-2l26-14 28-13 39-18 29-14 22-12 17-12 9-8 9-13z" fill="#4E5353"/>
<path transform="translate(349,1022)" d="m0 0h13l66 7 50 4 51 2h216l51-2 39-3 60-6 18-2h12l24 4 10 4 7 8 4 7v3l-138 8-86 4-65 2h-146l-51-2-65-4-98-8-16-2 2-5 4-7 5-4 9-4z" fill="#6F7474"/>
<path transform="translate(622,313)" d="m0 0h15l-4 4-12 8-17 12-13 10-16 13-12 11-15 15-10 13-10 16-9 19-5 16-3 15-1 11v21l3 23 6 24 11 32 10 24 1 3-6-2-10-9-12-13-10-14-12-23-8-18-5-15-4-20-1-9v-13l3-21 4-14 7-19 11-21 10-14 11-13 11-11 17-13 17-10 17-8 19-6z" fill="#6F7474"/>
<path transform="translate(542,657)" d="m0 0 1 2-7 16-7 12-11 13-11 10-21 14-27 14-15 7 2 1 117 6 62 4 67 6 42 5v1h-221l-69-3-40-3-23-3-14-3v-2l26-14 28-13 39-18 29-14 22-12 17-12 9-8z" fill="#6F7474"/>
<path transform="translate(547,799)" d="m0 0h27l-3 24-5 26-7 24-8 19-9 15-10 13-9 10-22 22-8 7-9 11-5 11-3 13-1 7h-24l-3-1 1-16 4-17 4-9 6-10 11-12 28-28 9-11 10-14 9-17 7-19 5-18z" fill="#6F7474"/>
<path transform="translate(733,664)" d="m0 0 7 6 15 11 27 15 35 17 33 15 33 16 15 8 3 2v2l-22 4-29 3-50 3-26 1h-23v-1l48-7 24-5 11-3h3l-3-3-22-14-17-12-16-12-11-9-12-11-14-14-7-8z" fill="#414444"/>
<path transform="translate(739,867)" d="m0 0 3 4 8 14 12 16 12 13 28 28 9 13 5 12 3 11 2 17v5l-3 1-12 1h-13l-3-23-5-15-9-12-12-14-8-13-6-13-6-19-5-22z" fill="#414444"/>
<path transform="translate(747,363)" d="m0 0 5 5 9 10 10 15 11 21 8 24 4 19 1 9v15l-3 20-6 21-5 12-14 29-8 11-1-2 11-40 5-23 2-15v-34l-4-24-8-27-10-27-7-17z" fill="#414444"/>
</svg>
