<?xml version="1.0" encoding="UTF-8" standalone="no"?>
<svg
   width="640pt"
   height="640pt"
   viewBox="0 0 640 640"
   version="1.1"
   id="svg20"
   sodipodi:docname="bq.svg"
   inkscape:version="1.3.2 (091e20e, 2023-11-25, custom)"
   xmlns:inkscape="http://www.inkscape.org/namespaces/inkscape"
   xmlns:sodipodi="http://sodipodi.sourceforge.net/DTD/sodipodi-0.dtd"
   xmlns="http://www.w3.org/2000/svg"
   xmlns:svg="http://www.w3.org/2000/svg">
  <defs
     id="defs20" />
  <sodipodi:namedview
     id="namedview20"
     pagecolor="#ffffff"
     bordercolor="#000000"
     borderopacity="0.25"
     inkscape:showpageshadow="2"
     inkscape:pageopacity="0.0"
     inkscape:pagecheckerboard="0"
     inkscape:deskcolor="#d1d1d1"
     inkscape:document-units="pt"
     inkscape:zoom="0.33837891"
     inkscape:cx="-515.69408"
     inkscape:cy="521.60462"
     inkscape:window-width="2560"
     inkscape:window-height="1351"
     inkscape:window-x="1341"
     inkscape:window-y="712"
     inkscape:window-maximized="1"
     inkscape:current-layer="svg20" />
  <path
     fill="#4f5454"
     stroke="#4f5454"
     stroke-width="0.09375"
     opacity="1"
     d="m 184.85774,181.93773 c 2.56473,-8.17637 8.4006,-24.39124 10.66431,-32.65429 1.4333,5.75063 22.65448,13.89253 18.68727,19.43676 -11.97073,14.79705 -23.07481,42.3199 -26.25586,60.715 -3.74101,5.71348 -19.6371,7.40595 -26.1389,7.16305 -3.27615,-0.22845 -14.58366,-2.03436 -13.9487,-2.55076 13.18694,-0.2533 -49.068736,-12.62771 -44.86908,-25.62604 53.25259,1.18234 82.28388,-17.06246 81.86096,-26.48372 z"
     id="path9"
     sodipodi:nodetypes="cccccccc" />
  <path
     fill="#4f5454"
     stroke="#4f5454"
     stroke-width="0.09375"
     opacity="1"
     d="m 315.41414,49.037757 c 66.70881,15.443504 48.72935,48.529842 45.94473,70.654873 -4.23233,24.60357 -57.78911,24.47999 -75.47621,23.26996 -17.44467,-11.60957 -18.26209,-54.51558 -5.67091,-69.231143 8.08614,-9.707747 24.03145,-19.110459 35.20239,-24.69369 z"
     id="path3"
     sodipodi:nodetypes="ccccc" />
  <path
     fill="#4f5454"
     stroke="#4f5454"
     stroke-width="0.09375"
     opacity="1"
     d="m 303.8442,146.0586 c 42.33884,-9.94921 83.2002,-6.41774 108.86649,21.80494 15.88479,10.33021 40.39858,55.24259 18.58686,53.72505 -15.05867,9.17869 -48.23333,34.43518 -70.21198,30.51652 -18.31182,-8.62542 -23.22428,-12.4925 -47.11672,-13.60544 -22.21615,-2.23945 -32.58034,6.84554 -48.70864,15.30859 -17.41601,11.35039 -57.98935,-10.82781 -60.40471,-25.52041 -30.62984,-8.55635 -14.67497,-33.45997 3.99852,-51.53124 19.82907,-21.07725 64.84999,-25.2932 90.65902,-33.25807 z"
     id="path5"
     sodipodi:nodetypes="cccccccccc" />
  <path
     fill="#4f5454"
     stroke="#4f5454"
     stroke-width="0.09375"
     opacity="1"
     d="m 422.59567,160.85481 c 2.63437,-4.29466 27.21218,-17.22372 20.60651,-3.88567 7.67794,3.54644 13.5029,-5.73015 7.46692,20.03625 4.10986,8.10701 8.68696,14.85928 16.10025,19.41603 1.64451,14.56366 44.81436,3.98846 54.48861,12.19074 48.29093,-11.02655 -11.38595,17.4353 -15.54405,18.45671 -4.77589,2.17072 -7.19223,4.27742 -11.72714,6.70045 3.08917,1.66147 -15.58878,4.20042 -17.16142,4.91068 -7.10409,1.23536 -23.58792,-3.84538 -28.46906,-8.9322 -3.16118,-19.29907 -18.94403,-51.88053 -25.76062,-68.89299 z"
     id="path10"
     sodipodi:nodetypes="cccccccccc" />
  <path
     fill="#4f5454"
     stroke="#4f5454"
     stroke-width="0.09375"
     opacity="1"
     d="m 458.85463,505.65476 c 34.59283,-8.87499 55.14039,61.83853 27.90146,53.45193 -78.32719,11.48452 -190.65313,12.1387 -270.09939,5.1271 -17.83647,-1.11011 -62.51642,-0.48194 -80.27648,-2.46621 -0.41462,-21.28062 8.82724,-60.4345 33.14386,-54.81244 54.12425,6.23189 145.27788,0.76042 199.64023,1.53279 29.61756,0.81814 60.23934,-0.55255 89.69032,-2.83317 z"
     id="path19"
     sodipodi:nodetypes="ccccccc" />
  <path
     fill="#4f5454"
     stroke="#4f5454"
     stroke-width="0.09375"
     opacity="1"
     d="m 283.19476,249.57004 c 11.65204,-16.20902 36.5938,-57.92745 50.4704,-23.46753 9.18529,21.08867 32.96488,33.55127 52.16848,13.964 15.25276,-20.26412 16.7139,-40.23711 33.33965,-22.2591 52.21324,31.52121 94.15371,10.69949 118.81186,-0.91131 -5.74723,31.41733 -56.92496,106.32054 -72.98707,121.80348 -9.67103,26.01348 -16.25425,44.56513 -23.95893,81.50446 0.99044,36.15429 2.9988,42.85661 4.68635,78.82773 -71.29902,9.18803 -197.90455,13.67763 -245.05003,2.48959 -15.45095,0.049 -18.54605,-11.07462 -9.12974,-29.51993 7.47339,-41.28498 4.22886,-73.71205 -14.25104,-111.52801 -6.60278,-38.29707 -69.1915,-118.20857 -88.119507,-150.65315 26.819547,12.46349 108.197657,20.62437 131.702037,3.32463 22.29323,-8.59945 38.75244,68.66704 62.31754,36.42514 z"
     id="path16"
     sodipodi:nodetypes="cccccccccccccc" />
  <path
     fill="#181919"
     stroke="#181919"
     stroke-width="0.09375"
     opacity="1"
     d="m 277.3,59.29 c 12.25,-12.42 30.24,-19.62 47.72,-17.24 14.32,2.24 27.8,9.74 37.04,20.95 8.55,9.97 13.51,22.89 14.05,36 0.37,14.42 -5.07,28.7 -14.31,39.71 17.46,3 35.03,7.5 50.37,16.64 6.32,-4.06 12.22,-8.77 18.8,-12.41 4.5,-2.47 10.04,-4.04 15,-2 5.28,2 8.2,7.4 9.57,12.58 2.48,10.35 5.09,20.74 9.27,30.55 2.35,5.22 5.2,10.65 10.14,13.86 5.27,3.18 11.71,2.83 17.63,2.48 11.35,-1.24 22.53,-3.74 33.48,-6.95 7.17,-1.76 14.38,-4.4 21.87,-3.83 7.81,0.72 14.27,5.64 20.37,10.14 1.14,0.63 2.14,2.33 1,3.45 -23.72,32.47 -47.73,64.79 -69.54,98.6 -11.74,18.58 -23.19,37.41 -32.66,57.27 -6.85,14.5 -13.08,29.42 -16.85,45.04 -4.1,19.64 -3.08,39.93 -1.35,59.79 1.03,10.73 2.95,21.36 5.57,31.81 9.97,-1.05 20.47,-0.39 29.51,4.32 7.78,4.25 12.45,12.35 15.46,20.4 3.75,14.68 4.97,29.82 6.87,44.81 -36.89,5.56 -74.13,8.7 -111.41,9.87 -16.6,0.82 -33.25,0.16 -49.87,0.37 -31.36,0.01 -62.72,-0.01 -94.08,0.01 -40.56,-1.17 -81.13,-4.11 -121.28,-10.27 1.73,-13.42 2.92,-26.94 5.78,-40.19 1.16,-6.89 4.7,-13.14 8.85,-18.65 9.03,-10.52 24.28,-11.99 37.22,-10.57 4.15,-16.3 6.21,-33.08 6.83,-49.87 0.48,-13.34 0.4,-26.83 -2.21,-39.97 -2.01,-10.34 -5.77,-20.22 -9.62,-29.99 -12.2,-29.69 -29.01,-57.19 -46.64,-83.91 -20.04,-30.29 -41.7,-59.46 -63.12,-88.78 -1.22,-1.14 -0.25,-2.93 0.98,-3.57 6.33,-4.68 13.11,-9.8 21.3,-10.19 7.35,-0.22 14.38,2.31 21.43,4.05 10.76,3.17 21.77,5.57 32.92,6.81 5.9,0.35 12.31,0.7 17.59,-2.44 5.21,-3.36 8.11,-9.14 10.53,-14.64 3.87,-9.4 6.46,-19.27 8.77,-29.14 1.3,-5.16 3.92,-10.61 9.01,-12.93 4.85,-2.36 10.55,-1.07 15.11,1.35 6.87,3.67 12.97,8.59 19.5,12.81 15.36,-9.12 32.94,-13.68 50.41,-16.67 -8.97,-10.43 -14.24,-24 -14.44,-37.77 -0.01,-15.48 6.49,-30.76 17.43,-41.69 m 8.63,11.63 c -8.64,10.17 -13.59,24.34 -10.32,37.59 2.26,10.57 8.45,20.31 17.14,26.75 1.41,1.22 3.39,0.5 5.06,0.67 14.65,-1.98 29.46,-1.07 44.14,-0.04 3.28,-1.71 6.26,-4.4 8.1,-7.64 2.76,-2.14 4.48,-5.23 6.11,-8.24 4.4,-8.59 6.74,-18.74 4.29,-28.26 -2.61,-11.74 -9.66,-23.06 -20.35,-28.97 -3.21,-2.94 -7.61,-4.11 -11.56,-5.71 -15.34,-4.82 -32.31,2.17 -42.61,13.85 m 16.2,79.62 c -15.94,1.58 -31.95,3.55 -47.34,8.17 -11.95,3.48 -23.68,8.69 -33.03,17.08 -11.67,10.28 -18.01,25.22 -21.19,40.16 4.7,-1.97 9.15,-4.74 13.07,-7.96 4.6,-2.64 8.75,-6.87 14.37,-7.01 5.99,-0.23 10.96,4.21 13.96,8.99 5.63,9.58 11.07,19.32 17.76,28.22 3.37,4.4 7.08,8.83 12.17,11.32 3.71,-2.48 6.64,-5.86 9.28,-9.41 7.7,-10.55 14.79,-21.64 23.85,-31.11 3.5,-3.52 7.81,-7.04 13.03,-7.05 5.18,0.08 9.46,3.57 12.94,7.07 6.22,6.51 11.51,13.84 16.76,21.13 4.92,6.83 9.25,14.5 16.35,19.35 5.27,-2.57 9.06,-7.21 12.53,-11.78 6.51,-8.77 11.87,-18.31 17.37,-27.72 3.16,-5.11 8.7,-9.79 15.09,-8.92 5.44,0.63 9.26,4.91 13.94,7.27 l 0.16,0.51 c 3.97,2.58 7.94,5.21 12.16,7.4 -3.12,-17.21 -11.51,-34.26 -26.08,-44.54 -8.56,-5.95 -18.21,-10.75 -28.49,-12.74 -3.69,-2.06 -8.05,-2.41 -12.09,-3.49 -21.84,-4.45 -44.3,-6.55 -66.57,-4.94 m -106.84,4.78 0.33,1.31 c -2.26,8.25 -4.48,16.56 -7.04,24.72 -3.58,9.63 -7.64,19.63 -15.56,26.55 -6.5,5.82 -15.45,7.99 -24,7.98 -14.31,-0.04 -28.08,-4.45 -42.15,-6.37 8.95,4.75 18.29,8.71 27.35,13.23 5.94,2.47 11.47,6 17.78,7.51 5.22,1.4 10.53,2.74 15.97,2.75 5.54,-0.08 10.17,-3.51 14.88,-6.01 3.24,-20.07 8.76,-40.9 22.69,-56.37 1.73,-1.94 3.55,-3.8 5.42,-5.61 -5.15,-3.34 -9.86,-7.54 -15.67,-9.69 m 230.17,9.65 c 2.05,2.22 4.11,4.44 6.14,6.69 12.41,14.64 17.95,33.61 21.07,52.2 0.38,1.3 0.13,3.16 1.64,3.8 4.56,2.51 9.28,5.65 14.73,5.34 4.23,-0.18 8.45,-0.93 12.46,-2.28 3.28,-0.34 6.36,-1.69 9.39,-2.93 9.06,-4.25 18.12,-8.51 27.14,-12.84 3.2,-1.59 6.62,-2.78 9.48,-4.97 -10.88,1.26 -21.46,4.41 -32.37,5.49 -10.83,1.18 -22.96,0.35 -31.59,-7.05 -9.34,-7.76 -13.33,-19.6 -17.46,-30.58 -1.44,-6.85 -3.99,-13.43 -5.24,-20.33 -0.18,-0.51 -0.53,-1.53 -0.71,-2.04 -5.32,2.44 -10.03,5.99 -14.68,9.5 M 199.7,234.72 c -5.94,3.93 -12.22,7.31 -18.58,10.5 -7.02,3.42 -15.14,3.45 -22.69,2.12 -7.8,-1.4 -15.55,-3.49 -22.67,-7.04 -11.64,-5.18 -22.98,-11.03 -34.62,-16.19 30.68,42.73 61.5,85.82 84.37,133.37 0.05,2.87 2.2,5.23 3.16,7.87 5.28,9.99 8,21.03 10.88,31.89 4.09,16.23 4.46,33.13 3.77,49.77 -0.66,16.59 -2.59,33.15 -6.47,49.3 6.33,1.27 12.75,1.97 19.17,2.6 20.61,1.69 41.29,2.57 61.96,2.36 32.67,0 65.34,-0.01 98.01,0 9.31,0.13 18.62,-0.49 27.9,-1.13 9.11,-0.25 18.16,-1.42 27.24,-2.21 2.77,-0.19 5.5,-0.79 8.16,-1.57 -3.09,-16 -5.95,-32.11 -6.46,-48.43 -1.39,-23.33 3.2,-46.52 9.48,-68.88 1.66,-7 4.85,-13.48 7.74,-20.02 9.15,-20.15 20.25,-39.34 31.98,-58.08 2.39,-3.95 5.29,-7.61 7.13,-11.87 3.18,-3.24 5.17,-7.42 7.84,-11.06 8.23,-12.52 17.21,-24.54 25.47,-37.02 l 0.43,-0.14 c 3.71,-5.48 7.92,-10.61 11.35,-16.27 -14.32,5.88 -27.83,13.66 -42.29,19.2 -11.68,3.55 -24.89,6.95 -36.59,1.69 -6.54,-3.18 -12.91,-6.74 -19.02,-10.69 -6.71,-3.94 -13.42,-7.89 -19.94,-12.14 -2.98,-1.89 -5.63,-4.31 -8.92,-5.65 -6.27,11.03 -12.57,22.12 -20.4,32.15 -2.72,3.61 -6.18,6.57 -9.1,10.01 -4.38,2.39 -8.73,5.53 -13.95,5.48 -6.87,-0.32 -12.53,-4.98 -16.92,-9.9 -10.26,-11.89 -17.62,-26.17 -29.1,-37.03 -11.39,10.67 -18.68,24.77 -28.73,36.57 -4.28,4.88 -9.67,9.54 -16.37,10.3 -5.61,0.45 -10.57,-2.76 -14.83,-6.01 l -0.53,-0.07 c -12.6,-11.77 -20.53,-27.28 -29.42,-41.8 -9.11,6.58 -18.75,12.36 -28.44,18.02 m -38.79,278.05 c -4.56,1.65 -6.65,6.48 -8.57,10.55 -3.23,9.33 -4.45,19.21 -5.74,28.96 4.45,0.53 8.88,1.15 13.33,1.73 24.56,2.9 49.25,4.69 73.96,5.62 15.01,0.95 30.05,1.07 45.09,0.79 4.51,-0.18 11.41498,-0.30069 13.53,-0.41 1.80199,0.44732 18.90671,-0.098 7.45,0.5 40.72,-0.4 81.49,1.07 122.14,-1.9 22.46,-1.1 44.86,-3.28 67.12,-6.41 -0.71,-7.6 -2,-15.15 -3.73,-22.59 -1.29,-5.61 -3.46,-11.36 -7.75,-15.38 -4.6,-3.03 -10.34,-3.51 -15.7,-3.24 -3.74,0.29 -7.48,0.53 -11.22,0.76 -20.99,1.03 -41.82,4.18 -62.83,4.8 -40.31,-0.04 -80.63,-0.01 -120.94,-0.02 -10.71,-0.1 -21.44,0.34 -32.12,-0.7 -15.55,-0.77 -30.98,-3.34 -46.54,-3.72 -9.1,-0.45 -18.73,-2.94 -27.48,0.66 z"
     id="path1"
     sodipodi:nodetypes="ccccccccccccccccccccccccccccccccccccccccccccccccccccccccccccccccccccccccccccccccccccccccccccccccccccccccccccccccccccccccccccccccccccccccccccccccccccccccccccccccccccccccccccc" />
  <path
     fill="#707575"
     stroke="#707575"
     stroke-width="0.09375"
     opacity="1.00"
     d=" M 285.93 70.92 C 296.23 59.24 313.20 52.25 328.54 57.07 C 320.58 61.88 312.07 65.91 304.97 72.02 C 294.51 80.74 287.85 94.26 288.46 107.98 C 288.64 115.97 291.97 123.43 295.75 130.32 C 296.74 132.06 297.37 133.98 297.81 135.93 C 296.14 135.76 294.16 136.48 292.75 135.26 C 284.06 128.82 277.87 119.08 275.61 108.51 C 272.34 95.26 277.29 81.09 285.93 70.92 Z"
     id="path2" />
  <path
     fill="#414444"
     stroke="#414444"
     stroke-width="0.09375"
     opacity="1.00"
     d=" M 340.10 62.78 C 350.79 68.69 357.84 80.01 360.45 91.75 C 362.90 101.27 360.56 111.42 356.16 120.01 C 354.53 123.02 352.81 126.11 350.05 128.25 C 353.29 117.19 355.94 105.57 354.10 94.00 C 352.97 82.34 346.19 72.41 340.10 62.78 Z"
     id="path4" />
  <path
     fill="#707575"
     stroke="#707575"
     stroke-width="0.09375"
     opacity="1"
     d="m 254.79,158.71 c 15.39,-4.62 32.41299,-6.67658 48.35299,-8.25658 0.47,0.26 1.64376,-0.23165 2.11376,0.0284 -24.25,5.37 -50.10675,13.60823 -70.48675,28.34823 -9.92,7.06 -19.18,16.63 -21.13,29.16 -3.92,3.22 -8.37,5.99 -13.07,7.96 3.18,-14.94 9.52,-29.88 21.19,-40.16 9.35,-8.39 21.08,-13.6 33.03,-17.08 z"
     id="path6"
     sodipodi:nodetypes="ccccccccc" />
  <path
     fill="#707575"
     stroke="#707575"
     stroke-width="0.09375"
     opacity="1.00"
     d=" M 195.29 155.32 C 201.10 157.47 205.81 161.67 210.96 165.01 C 209.09 166.82 207.27 168.68 205.54 170.62 C 201.45 166.57 198.73 161.42 195.62 156.63 L 195.29 155.32 Z"
     id="path7" />
  <path
     fill="#414444"
     stroke="#414444"
     stroke-width="0.09375"
     opacity="1.00"
     d=" M 425.46 164.97 C 430.11 161.46 434.82 157.91 440.14 155.47 C 440.32 155.98 440.67 157.00 440.85 157.51 C 437.36 161.94 434.33 166.72 431.60 171.66 C 429.57 169.41 427.51 167.19 425.46 164.97 Z"
     id="path8" />
  <path
     fill="#414444"
     stroke="#414444"
     stroke-width="0.09375"
     opacity="1.00"
     d=" M 380.79 158.97 C 391.07 160.96 400.72 165.76 409.28 171.71 C 423.85 181.99 432.24 199.04 435.36 216.25 C 431.14 214.06 427.17 211.43 423.20 208.85 L 423.04 208.34 C 420.61 200.44 416.10 193.36 411.33 186.69 C 403.07 175.49 391.44 167.65 380.79 158.97 Z"
     id="path11" />
  <path
     fill="#414444"
     stroke="#414444"
     stroke-width="0.09375"
     opacity="1.00"
     d=" M 446.09 177.84 C 450.22 188.82 454.21 200.66 463.55 208.42 C 472.18 215.82 484.31 216.65 495.14 215.47 C 506.05 214.39 516.63 211.24 527.51 209.98 C 524.65 212.17 521.23 213.36 518.03 214.95 C 509.01 219.28 499.95 223.54 490.89 227.79 C 487.86 229.03 484.78 230.38 481.50 230.72 C 471.89 229.63 461.91 226.16 456.00 218.06 C 447.75 206.42 447.07 191.57 446.09 177.84 Z"
     id="path12" />
  <path
     fill="#707575"
     stroke="#707575"
     stroke-width="0.09375"
     opacity="1.00"
     d=" M 188.58 181.35 C 188.77 184.58 188.89 187.84 188.36 191.06 C 187.12 200.31 185.23 209.94 179.57 217.60 C 173.28 226.17 162.31 230.04 152.00 230.25 C 145.69 228.74 140.16 225.21 134.22 222.74 C 125.16 218.22 115.82 214.26 106.87 209.51 C 120.94 211.43 134.71 215.84 149.02 215.88 C 157.57 215.89 166.52 213.72 173.02 207.90 C 180.94 200.98 185.00 190.98 188.58 181.35 Z"
     id="path13" />
  <path
     fill="#707575"
     stroke="#707575"
     stroke-width="0.09375"
     opacity="1.00"
     d=" M 199.70 234.72 C 209.39 229.06 219.03 223.28 228.14 216.70 C 237.03 231.22 244.96 246.73 257.56 258.50 C 255.69 258.37 253.92 257.72 252.32 256.76 C 242.42 251.03 233.16 244.16 225.06 236.07 C 210.78 245.05 196.34 254.42 179.89 258.90 C 168.17 262.11 155.56 261.73 144.01 257.98 C 140.15 256.75 136.47 255.06 132.63 253.80 C 146.45 277.06 164.06 298.21 174.64 323.32 C 178.63 332.41 181.51 341.93 184.70 351.31 C 185.43 353.28 185.66 355.39 185.51 357.48 C 162.64 309.93 131.82 266.84 101.14 224.11 C 112.78 229.27 124.12 235.12 135.76 240.30 C 142.88 243.85 150.63 245.94 158.43 247.34 C 165.98 248.67 174.10 248.64 181.12 245.22 C 187.48 242.03 193.76 238.65 199.70 234.72 Z"
     id="path14" />
  <path
     fill="#414444"
     stroke="#414444"
     stroke-width="0.09375"
     opacity="1.00"
     d=" M 407.49 217.00 C 410.78 218.34 413.43 220.76 416.41 222.65 C 422.93 226.90 429.64 230.85 436.35 234.79 C 442.46 238.74 448.83 242.30 455.37 245.48 C 467.07 250.74 480.28 247.34 491.96 243.79 C 506.42 238.25 519.93 230.47 534.25 224.59 C 530.82 230.25 526.61 235.38 522.90 240.86 L 522.47 241.00 C 516.29 242.81 510.90 246.48 504.99 248.94 C 490.32 255.51 474.20 261.46 457.90 258.34 C 440.36 254.95 426.48 242.90 410.96 234.92 C 406.36 239.01 401.88 243.26 396.86 246.84 C 390.74 251.19 384.86 256.01 377.99 259.16 C 380.91 255.72 384.37 252.76 387.09 249.15 C 394.92 239.12 401.22 228.03 407.49 217.00 Z"
     id="path15" />
  <path
     fill="#414444"
     stroke="#414444"
     stroke-width="0.09375"
     opacity="1.00"
     d=" M 456.07 317.08 C 466.59 307.18 477.42 297.52 489.16 289.08 C 487.32 293.34 484.42 297.00 482.03 300.95 C 470.30 319.69 459.20 338.88 450.05 359.03 C 447.16 365.57 443.97 372.05 442.31 379.05 C 436.03 401.41 431.44 424.60 432.83 447.93 C 433.34 464.25 436.20 480.36 439.29 496.36 C 436.63 497.14 433.90 497.74 431.13 497.93 C 422.05 498.72 413.00 499.89 403.89 500.14 C 402.50 487.15 403.42 474.04 403.15 461.00 C 403.86 448.77 403.65 436.47 405.50 424.34 C 406.77 415.85 408.28 407.40 410.07 399.00 C 412.49 387.32 416.70 376.11 420.91 364.97 C 423.03 359.07 426.69 353.92 429.39 348.30 C 434.08 340.03 440.63 333.02 447.04 326.07 C 449.74 322.77 452.76 319.76 456.07 317.08 Z"
     id="path17" />
  <path
     fill="#707575"
     stroke="#707575"
     stroke-width="0.09375"
     opacity="1.00"
     d=" M 160.91 512.77 C 169.66 509.17 179.29 511.66 188.39 512.11 C 182.94 514.02 177.29 515.99 172.84 519.82 C 169.85 522.36 167.88 525.83 166.19 529.30 C 162.46 537.01 160.58 545.50 159.93 554.01 C 155.48 553.43 151.05 552.81 146.60 552.28 C 147.89 542.53 149.11 532.65 152.34 523.32 C 154.26 519.25 156.35 514.42 160.91 512.77 Z"
     id="path18" />
  <path
     fill="#414444"
     stroke="#414444"
     stroke-width="0.09375"
     opacity="1.00"
     d=" M 462.04 510.99 C 467.40 510.72 473.14 511.20 477.74 514.23 C 482.03 518.25 484.20 524.00 485.49 529.61 C 487.22 537.05 488.51 544.60 489.22 552.20 C 466.96 555.33 444.56 557.51 422.10 558.61 C 381.45 561.58 340.68 560.11 299.96 560.51 C 297.46 560.57 294.97 560.44 292.51 560.01 C 295.99 559.30 299.54 559.05 303.08 558.82 C 318.60 557.44 334.13 556.14 349.63 554.56 C 371.28 552.04 392.87 548.97 414.38 545.50 C 433.21 542.51 452.12 540.02 470.92 536.87 C 469.89 527.72 466.09 519.16 462.04 510.99 Z"
     id="path20" />
</svg>
