<?xml version="1.0" encoding="UTF-8" standalone="no"?>
<svg
   width="1280px"
   height="1280px"
   viewBox="0 0 1280 1280"
   version="1.1"
   id="svg4"
   xmlns="http://www.w3.org/2000/svg"
   xmlns:svg="http://www.w3.org/2000/svg">
  <defs
     id="defs4" />
  <g
     id="surface1">
    <path
       style=" stroke:none;fill-rule:nonzero;fill:rgb(42.352942%,44.313726%,44.313726%);fill-opacity:1;"
       d="M 547.769531 1151.332031 C 518.855469 1151.054688 496.855469 1150.601562 478.757812 1149.914062 C 419.058594 1147.636719 372.726562 1144.492188 332.410156 1139.976562 C 305.113281 1136.921875 261.382812 1130.914062 259.933594 1130.015625 C 259.167969 1129.542969 260.996094 1100.164062 262.941406 1081.761719 C 267.011719 1043.199219 278.957031 1015.890625 297.445312 1002.878906 C 308.628906 995.007812 322.085938 991 343.128906 989.265625 C 346.46875 988.992188 349.222656 988.738281 349.246094 988.703125 C 349.269531 988.667969 351.390625 982.015625 353.957031 973.921875 C 384.3125 878.203125 400.066406 818.214844 412.148438 752.320312 C 418.445312 717.988281 423.3125 683.742188 428.480469 637.441406 C 429.550781 627.847656 430.652344 618.445312 430.929688 616.539062 C 431.207031 614.636719 431.378906 613.03125 431.316406 612.96875 C 431.253906 612.90625 426.996094 610.847656 421.859375 608.390625 C 416.71875 605.933594 410.59375 602.875 408.246094 601.59375 C 386.609375 589.777344 375.296875 577.195312 368.789062 557.71875 C 366.367188 550.464844 365.964844 546.859375 365.410156 527.261719 L 365.105469 516.445312 L 359.914062 511.101562 C 340.195312 490.804688 333.757812 477.890625 329.222656 449.5 C 327.238281 437.078125 326.953125 431.597656 326.054688 388.886719 C 325.914062 382.132812 325.699219 377.808594 325.496094 377.605469 C 325.316406 377.425781 317.25 374.117188 307.574219 370.253906 L 289.976562 363.230469 L 289.949219 319.933594 C 289.917969 271.1875 290.128906 252.625 290.957031 229.859375 L 291.535156 214.117188 L 294.4375 213.613281 C 301.378906 212.40625 346.90625 207.53125 363.152344 206.253906 C 382.167969 204.765625 425.292969 204.761719 444.8125 206.253906 C 464.777344 207.777344 512.757812 212.789062 513.4375 213.417969 C 513.671875 213.640625 513.472656 223.207031 512.699219 248.480469 C 512.277344 262.417969 511.859375 271.390625 511.183594 281.121094 C 510.472656 291.320312 510.398438 314.808594 511.054688 320.160156 C 511.996094 327.796875 513.359375 333.824219 515.046875 337.816406 C 517.179688 342.871094 520.871094 348.28125 524.753906 352.058594 C 527.171875 354.410156 532.554688 358.222656 532.910156 357.839844 C 533.683594 357.007812 537.148438 345.09375 539.40625 335.476562 C 545.953125 307.621094 546.542969 298.71875 547.636719 210.878906 C 547.835938 194.953125 548.0625 181.851562 548.140625 181.769531 C 548.316406 181.585938 571.570312 178.253906 580.433594 177.140625 C 600.992188 174.5625 614.929688 173.898438 642.5625 174.191406 C 664.140625 174.414062 673.308594 174.960938 689.476562 176.980469 C 698.1875 178.066406 722.402344 181.527344 722.710938 181.726562 C 722.886719 181.839844 723.164062 195.058594 723.386719 214.078125 C 724.472656 306.539062 725.328125 316.484375 735.007812 349.039062 C 736.433594 353.835938 737.742188 357.761719 737.914062 357.761719 C 738.082031 357.761719 739.109375 357.296875 740.191406 356.726562 C 741.53125 356.023438 743.339844 354.523438 745.878906 352.007812 C 752.019531 345.921875 754.621094 341.875 756.691406 335.199219 C 760.371094 323.328125 761.25 308.78125 759.765625 284.480469 C 758.546875 264.53125 756.996094 213.964844 757.585938 213.445312 C 758.136719 212.960938 773.5625 211.167969 801.699219 208.324219 C 821.664062 206.304688 823.980469 206.167969 845.378906 205.710938 C 869.5 205.195312 902.59375 205.804688 918.128906 207.054688 C 931.640625 208.136719 977.652344 213.613281 978.246094 214.207031 C 978.394531 214.355469 979.480469 242.832031 979.921875 258.078125 C 980.464844 276.96875 980.679688 311.195312 980.421875 337.921875 L 980.175781 363.359375 L 962.203125 370.425781 L 944.226562 377.492188 L 944.011719 386.90625 C 943.035156 428.996094 942.578125 438.519531 941.003906 449.601562 C 939.273438 461.738281 935.464844 474.871094 931.121094 483.675781 C 926.21875 493.613281 921.378906 500.054688 910.570312 511.039062 L 905.371094 516.320312 L 905.023438 528.800781 C 904.65625 541.972656 904.453125 544.574219 903.363281 550.238281 C 901.898438 557.871094 897.976562 567.484375 893.59375 574.199219 C 884.441406 588.210938 871.085938 598.375 848.71875 608.335938 C 840.15625 612.148438 839.667969 612.546875 839.667969 615.746094 C 839.667969 625.285156 849.578125 701.550781 855.066406 734.238281 C 866.273438 801.011719 884.59375 874.628906 909.378906 952.480469 C 912.960938 963.730469 921.011719 988.242188 921.1875 988.433594 C 921.246094 988.496094 924.878906 988.957031 929.265625 989.457031 C 941.597656 990.863281 947.234375 991.898438 954.515625 994.101562 C 972.226562 999.453125 984.695312 1010.542969 993.707031 1028.960938 C 1001.78125 1045.453125 1005.980469 1065.035156 1008.742188 1099.039062 C 1009.605469 1109.703125 1010.359375 1122.484375 1010.359375 1126.5625 L 1010.359375 1129.867188 L 1008.675781 1130.230469 C 1003.460938 1131.351562 967.027344 1136.0625 940.707031 1139.019531 C 890.011719 1144.710938 845.636719 1147.71875 770.273438 1150.5625 C 763.191406 1150.832031 748.78125 1151.1875 738.25 1151.359375 C 716.222656 1151.710938 585.816406 1151.691406 547.769531 1151.332031 Z M 547.769531 1151.332031 "
       id="path1" />
    <path
       style=" stroke:none;fill-rule:nonzero;fill:rgb(29.411766%,31.37255%,31.37255%);fill-opacity:1;"
       d="M 547.769531 1151.332031 C 518.855469 1151.054688 496.855469 1150.601562 478.757812 1149.914062 C 419.058594 1147.636719 372.726562 1144.492188 332.410156 1139.976562 C 305.113281 1136.921875 261.382812 1130.914062 259.933594 1130.015625 C 259.167969 1129.542969 260.996094 1100.164062 262.941406 1081.761719 C 267.011719 1043.199219 278.957031 1015.890625 297.445312 1002.878906 C 308.628906 995.007812 322.085938 991 343.128906 989.265625 C 346.46875 988.992188 349.222656 988.738281 349.246094 988.703125 C 349.269531 988.667969 351.390625 982.015625 353.957031 973.921875 C 384.3125 878.203125 400.066406 818.214844 412.148438 752.320312 C 418.445312 717.988281 423.3125 683.742188 428.480469 637.441406 C 429.550781 627.847656 430.652344 618.445312 430.929688 616.539062 C 431.207031 614.636719 431.378906 613.03125 431.316406 612.96875 C 431.253906 612.90625 426.996094 610.847656 421.859375 608.390625 C 416.71875 605.933594 410.59375 602.875 408.246094 601.59375 C 386.609375 589.777344 375.296875 577.195312 368.789062 557.71875 C 366.367188 550.464844 365.964844 546.859375 365.410156 527.261719 L 365.105469 516.445312 L 359.914062 511.101562 C 340.195312 490.804688 333.757812 477.890625 329.222656 449.5 C 327.238281 437.078125 326.953125 431.597656 326.054688 388.886719 C 325.914062 382.132812 325.699219 377.808594 325.496094 377.605469 C 325.316406 377.425781 317.25 374.117188 307.574219 370.253906 L 289.976562 363.230469 L 289.949219 319.933594 C 289.917969 271.1875 290.128906 252.625 290.957031 229.859375 L 291.535156 214.117188 L 294.4375 213.613281 C 301.378906 212.40625 346.90625 207.53125 363.152344 206.253906 C 382.167969 204.765625 425.292969 204.761719 444.8125 206.253906 C 464.777344 207.777344 512.757812 212.789062 513.4375 213.417969 C 513.671875 213.640625 513.472656 223.207031 512.699219 248.480469 C 512.277344 262.417969 511.859375 271.390625 511.183594 281.121094 C 510.472656 291.320312 510.398438 314.808594 511.054688 320.160156 C 511.996094 327.796875 513.359375 333.824219 515.046875 337.816406 C 517.179688 342.871094 520.871094 348.28125 524.753906 352.058594 C 527.171875 354.410156 532.554688 358.222656 532.910156 357.839844 C 533.683594 357.007812 537.148438 345.09375 539.40625 335.476562 C 545.953125 307.621094 546.542969 298.71875 547.636719 210.878906 C 547.835938 194.953125 548.0625 181.851562 548.140625 181.769531 C 548.316406 181.585938 571.570312 178.253906 580.433594 177.140625 C 600.992188 174.5625 614.929688 173.898438 642.5625 174.191406 C 664.140625 174.414062 673.308594 174.960938 689.476562 176.980469 C 698.1875 178.066406 722.402344 181.527344 722.710938 181.726562 C 722.886719 181.839844 723.164062 195.058594 723.386719 214.078125 C 724.472656 306.539062 725.328125 316.484375 735.007812 349.039062 C 736.433594 353.835938 737.742188 357.761719 737.914062 357.761719 C 738.082031 357.761719 739.109375 357.296875 740.191406 356.726562 C 741.53125 356.023438 743.339844 354.523438 745.878906 352.007812 C 752.019531 345.921875 754.621094 341.875 756.691406 335.199219 C 760.371094 323.328125 761.25 308.78125 759.765625 284.480469 C 758.546875 264.53125 756.996094 213.964844 757.585938 213.445312 C 758.136719 212.960938 773.5625 211.167969 801.699219 208.324219 C 821.664062 206.304688 823.980469 206.167969 845.378906 205.710938 C 869.5 205.195312 902.59375 205.804688 918.128906 207.054688 C 931.640625 208.136719 977.652344 213.613281 978.246094 214.207031 C 978.394531 214.355469 979.480469 242.832031 979.921875 258.078125 C 980.464844 276.96875 980.679688 311.195312 980.421875 337.921875 L 980.175781 363.359375 L 962.203125 370.425781 L 944.226562 377.492188 L 944.011719 386.90625 C 943.035156 428.996094 942.578125 438.519531 941.003906 449.601562 C 939.273438 461.738281 935.464844 474.871094 931.121094 483.675781 C 926.21875 493.613281 921.378906 500.054688 910.570312 511.039062 L 905.371094 516.320312 L 905.023438 528.800781 C 904.65625 541.972656 904.453125 544.574219 903.363281 550.238281 C 901.898438 557.871094 897.976562 567.484375 893.59375 574.199219 C 884.441406 588.210938 871.085938 598.375 848.71875 608.335938 C 840.15625 612.148438 839.667969 612.546875 839.667969 615.746094 C 839.667969 625.285156 849.578125 701.550781 855.066406 734.238281 C 866.273438 801.011719 884.59375 874.628906 909.378906 952.480469 C 912.960938 963.730469 921.011719 988.242188 921.1875 988.433594 C 921.246094 988.496094 924.878906 988.957031 929.265625 989.457031 C 941.597656 990.863281 947.234375 991.898438 954.515625 994.101562 C 972.226562 999.453125 984.695312 1010.542969 993.707031 1028.960938 C 1001.78125 1045.453125 1005.980469 1065.035156 1008.742188 1099.039062 C 1009.605469 1109.703125 1010.359375 1122.484375 1010.359375 1126.5625 L 1010.359375 1129.867188 L 1008.675781 1130.230469 C 1003.460938 1131.351562 967.027344 1136.0625 940.707031 1139.019531 C 890.011719 1144.710938 845.636719 1147.71875 770.273438 1150.5625 C 763.191406 1150.832031 748.78125 1151.1875 738.25 1151.359375 C 716.222656 1151.710938 585.816406 1151.691406 547.769531 1151.332031 Z M 318.367188 1106.535156 C 319.378906 1105.992188 319.867188 1104.402344 320.742188 1098.800781 C 323.117188 1083.566406 326.851562 1071.707031 333.148438 1059.394531 C 341.78125 1042.5 351.214844 1035.628906 377.5625 1027.042969 C 382.046875 1025.578125 384.289062 1024.65625 384.289062 1024.273438 C 384.289062 1023.738281 382.640625 1023.351562 377.765625 1022.734375 C 369.824219 1021.730469 363.488281 1021.359375 354.347656 1021.359375 C 338.945312 1021.359375 328.351562 1023.078125 320.558594 1026.839844 C 314.429688 1029.796875 307.84375 1039.488281 303.976562 1051.238281 C 301.734375 1058.066406 299.003906 1070.605469 296.570312 1085.28125 C 295.027344 1094.59375 294.199219 1101.78125 294.523438 1103.027344 C 294.800781 1104.078125 297.792969 1104.78125 307.429688 1106.066406 C 313.660156 1106.894531 317.390625 1107.054688 318.367188 1106.535156 Z M 407.429688 992.71875 C 411.460938 984.234375 431.613281 920.144531 440.757812 886.71875 C 454.324219 837.144531 467.894531 774.507812 476.015625 724 C 479.910156 699.773438 482.402344 675.570312 483.144531 667.578125 C 483.648438 662.195312 483.632812 662.230469 483.820312 660.101562 C 484.078125 657.160156 485.421875 642.152344 487.386719 639.664062 C 493.089844 632.433594 499.933594 632.261719 502.890625 631.597656 C 524.882812 626.644531 534.445312 628.921875 562.101562 628.773438 L 575.550781 628.703125 L 552.253906 626.777344 C 518.957031 624.023438 575.566406 627.261719 562.421875 625.601562 C 554.605469 624.617188 493.855469 623.136719 487.085938 622.882812 C 485.410156 622.820312 479.9375 622.191406 474.917969 621.484375 C 464.613281 620.03125 463.199219 619.898438 462.773438 620.332031 C 462.347656 620.769531 458.066406 656.695312 457.988281 660.480469 C 457.953125 662.25 454.96875 685.996094 452.984375 700.320312 C 442.292969 777.371094 428.589844 840.046875 406.527344 912.800781 C 404.820312 918.433594 403.34375 923.328125 403.25 923.679688 C 403.15625 924.03125 402.972656 924.390625 402.847656 924.480469 C 402.71875 924.566406 401.578125 927.953125 400.3125 932 C 394.308594 951.1875 389.609375 965.644531 389.242188 966.078125 C 388.183594 967.332031 381.679688 988.851562 381.613281 991.320312 C 381.566406 993.039062 381.570312 993.042969 382.78125 993.46875 C 385.449219 994.40625 399.113281 996.382812 403.371094 996.445312 L 405.640625 996.480469 Z M 576.113281 597.488281 L 576.113281 596.578125 L 571.992188 596.371094 C 565.007812 596.015625 541.667969 593.582031 523.753906 591.335938 C 487.371094 586.777344 463.304688 581.222656 451.058594 574.5625 C 445.339844 571.453125 439.566406 566.507812 436.554688 562.140625 C 433.367188 557.519531 429.449219 548.566406 428.496094 543.710938 C 428.0625 541.515625 427.851562 541 427.34375 540.921875 C 425.496094 540.632812 412.867188 536.941406 405.96875 534.671875 C 400.40625 532.84375 397.929688 532.160156 397.691406 532.398438 C 397.28125 532.808594 397.75 536.835938 398.898438 542.796875 C 402.15625 559.722656 411.113281 570.023438 429.601562 578.089844 C 435.101562 580.492188 437.964844 581.53125 441.449219 582.394531 C 443.035156 582.789062 444.476562 583.226562 444.652344 583.363281 C 445.164062 583.769531 451.320312 585.488281 456.023438 586.535156 C 467.238281 589.035156 481.65625 591.535156 486.925781 591.894531 C 487.980469 591.96875 489.136719 592.152344 489.488281 592.308594 C 490.179688 592.613281 490.285156 592.625 500.535156 593.582031 C 513.972656 594.839844 528.972656 595.988281 544.730469 596.964844 C 549.21875 597.242188 555.921875 597.660156 559.621094 597.894531 C 563.320312 598.125 568.542969 598.335938 571.226562 598.359375 L 576.113281 598.398438 Z M 555.617188 527.363281 C 555.617188 526.898438 555.242188 526.6875 553.933594 526.425781 C 548.757812 525.375 525.960938 521.101562 508.542969 517.914062 C 487.46875 514.0625 482.265625 513.007812 475.253906 511.171875 C 455.429688 505.988281 439.65625 498.023438 416.496094 481.5 C 403.289062 472.078125 400.339844 469.238281 394.75 460.542969 C 390.351562 453.703125 386.351562 443.019531 384.421875 432.960938 C 383.546875 428.390625 383.492188 410.242188 384.269531 383.359375 C 384.640625 370.601562 385.035156 355.308594 385.148438 349.375 L 385.351562 338.59375 L 384.578125 338.265625 C 384.15625 338.089844 379.988281 336.445312 375.320312 334.613281 C 365.171875 330.632812 351.722656 325.136719 348.5 323.652344 L 346.179688 322.582031 L 346.179688 238.398438 L 344.851562 238.398438 C 342.875 238.398438 324.425781 240.316406 323.089844 240.660156 L 321.941406 240.957031 L 321.722656 252.71875 C 321.332031 274.109375 320.84375 334.839844 321.046875 337.121094 C 321.308594 340.066406 321.671875 341.164062 322.730469 342.15625 C 324.992188 344.292969 332.441406 347.382812 347.992188 352.636719 L 357.648438 355.902344 L 357.832031 359.472656 C 357.933594 361.433594 358.097656 368.222656 358.195312 374.558594 C 358.589844 399.636719 359.257812 418.96875 360.128906 430.238281 C 362.460938 460.511719 369.261719 478.191406 382.835938 489.269531 C 389.929688 495.058594 400.421875 500.257812 412.789062 504.105469 C 431.910156 510.058594 432.039062 510.089844 455.222656 514.082031 C 462.972656 515.417969 471.328125 516.871094 473.796875 517.316406 C 476.261719 517.761719 479.429688 518.324219 480.839844 518.566406 C 482.25 518.8125 484.628906 519.234375 486.125 519.507812 C 488.703125 519.976562 497.304688 521.308594 504.699219 522.378906 C 506.546875 522.648438 508.855469 522.933594 509.824219 523.015625 C 510.792969 523.09375 515.402344 523.664062 520.070312 524.28125 C 532.582031 525.933594 541.753906 527 546.808594 527.386719 C 549.277344 527.574219 552.15625 527.835938 553.214844 527.964844 C 555.417969 528.234375 555.617188 528.183594 555.617188 527.363281 Z M 555.617188 527.363281 "
       id="path2" />
    <path
       style=" stroke:none;fill-rule:nonzero;fill:rgb(24.313726%,25.490198%,25.490198%);fill-opacity:1;"
       d="M 547.769531 1151.332031 C 518.855469 1151.054688 496.855469 1150.601562 478.757812 1149.914062 C 419.058594 1147.636719 372.726562 1144.492188 332.410156 1139.976562 C 305.113281 1136.921875 261.382812 1130.914062 259.933594 1130.015625 C 259.167969 1129.542969 260.996094 1100.164062 262.941406 1081.761719 C 267.011719 1043.199219 278.957031 1015.890625 297.445312 1002.878906 C 308.628906 995.007812 322.085938 991 343.128906 989.265625 C 346.46875 988.992188 349.222656 988.738281 349.246094 988.703125 C 349.269531 988.667969 351.390625 982.015625 353.957031 973.921875 C 384.3125 878.203125 400.066406 818.214844 412.148438 752.320312 C 418.445312 717.988281 423.3125 683.742188 428.480469 637.441406 C 429.550781 627.847656 430.652344 618.445312 430.929688 616.539062 C 431.207031 614.636719 431.378906 613.03125 431.316406 612.96875 C 431.253906 612.90625 426.996094 610.847656 421.859375 608.390625 C 416.71875 605.933594 410.59375 602.875 408.246094 601.59375 C 386.609375 589.777344 375.296875 577.195312 368.789062 557.71875 C 366.367188 550.464844 365.964844 546.859375 365.410156 527.261719 L 365.105469 516.445312 L 359.914062 511.101562 C 340.195312 490.804688 333.757812 477.890625 329.222656 449.5 C 327.238281 437.078125 326.953125 431.597656 326.054688 388.886719 C 325.914062 382.132812 325.699219 377.808594 325.496094 377.605469 C 325.316406 377.425781 317.25 374.117188 307.574219 370.253906 L 289.976562 363.230469 L 289.949219 319.933594 C 289.917969 271.1875 290.128906 252.625 290.957031 229.859375 L 291.535156 214.117188 L 294.4375 213.613281 C 301.378906 212.40625 346.90625 207.53125 363.152344 206.253906 C 382.167969 204.765625 425.292969 204.761719 444.8125 206.253906 C 464.777344 207.777344 512.757812 212.789062 513.4375 213.417969 C 513.671875 213.640625 513.472656 223.207031 512.699219 248.480469 C 512.277344 262.417969 511.859375 271.390625 511.183594 281.121094 C 510.472656 291.320312 510.398438 314.808594 511.054688 320.160156 C 511.996094 327.796875 513.359375 333.824219 515.046875 337.816406 C 517.179688 342.871094 520.871094 348.28125 524.753906 352.058594 C 527.171875 354.410156 532.554688 358.222656 532.910156 357.839844 C 533.683594 357.007812 537.148438 345.09375 539.40625 335.476562 C 545.953125 307.621094 546.542969 298.71875 547.636719 210.878906 C 547.835938 194.953125 548.0625 181.851562 548.140625 181.769531 C 548.316406 181.585938 571.570312 178.253906 580.433594 177.140625 C 600.992188 174.5625 614.929688 173.898438 642.5625 174.191406 C 664.140625 174.414062 673.308594 174.960938 689.476562 176.980469 C 698.1875 178.066406 722.402344 181.527344 722.710938 181.726562 C 722.886719 181.839844 723.164062 195.058594 723.386719 214.078125 C 724.472656 306.539062 725.328125 316.484375 735.007812 349.039062 C 736.433594 353.835938 737.742188 357.761719 737.914062 357.761719 C 738.082031 357.761719 739.109375 357.296875 740.191406 356.726562 C 741.53125 356.023438 743.339844 354.523438 745.878906 352.007812 C 752.019531 345.921875 754.621094 341.875 756.691406 335.199219 C 760.371094 323.328125 761.25 308.78125 759.765625 284.480469 C 758.546875 264.53125 756.996094 213.964844 757.585938 213.445312 C 758.136719 212.960938 773.5625 211.167969 801.699219 208.324219 C 821.664062 206.304688 823.980469 206.167969 845.378906 205.710938 C 869.5 205.195312 902.59375 205.804688 918.128906 207.054688 C 931.640625 208.136719 977.652344 213.613281 978.246094 214.207031 C 978.394531 214.355469 979.480469 242.832031 979.921875 258.078125 C 980.464844 276.96875 980.679688 311.195312 980.421875 337.921875 L 980.175781 363.359375 L 962.203125 370.425781 L 944.226562 377.492188 L 944.011719 386.90625 C 943.035156 428.996094 942.578125 438.519531 941.003906 449.601562 C 939.273438 461.738281 935.464844 474.871094 931.121094 483.675781 C 926.21875 493.613281 921.378906 500.054688 910.570312 511.039062 L 905.371094 516.320312 L 905.023438 528.800781 C 904.65625 541.972656 904.453125 544.574219 903.363281 550.238281 C 901.898438 557.871094 897.976562 567.484375 893.59375 574.199219 C 884.441406 588.210938 871.085938 598.375 848.71875 608.335938 C 840.15625 612.148438 839.667969 612.546875 839.667969 615.746094 C 839.667969 625.285156 849.578125 701.550781 855.066406 734.238281 C 866.273438 801.011719 884.59375 874.628906 909.378906 952.480469 C 912.960938 963.730469 921.011719 988.242188 921.1875 988.433594 C 921.246094 988.496094 924.878906 988.957031 929.265625 989.457031 C 941.597656 990.863281 947.234375 991.898438 954.515625 994.101562 C 972.226562 999.453125 984.695312 1010.542969 993.707031 1028.960938 C 1001.78125 1045.453125 1005.980469 1065.035156 1008.742188 1099.039062 C 1009.605469 1109.703125 1010.359375 1122.484375 1010.359375 1126.5625 L 1010.359375 1129.867188 L 1008.675781 1130.230469 C 1003.460938 1131.351562 967.027344 1136.0625 940.707031 1139.019531 C 890.011719 1144.710938 845.636719 1147.71875 770.273438 1150.5625 C 763.191406 1150.832031 748.78125 1151.1875 738.25 1151.359375 C 716.222656 1151.710938 585.816406 1151.691406 547.769531 1151.332031 Z M 598.09375 1120.957031 C 604.730469 1120.582031 607.332031 1120.386719 625.910156 1118.871094 C 681.457031 1114.335938 715.121094 1110.648438 762.820312 1103.863281 C 779.804688 1101.449219 795.972656 1099.042969 845.753906 1091.527344 C 860.8125 1089.25 884.304688 1085.722656 897.953125 1083.679688 C 911.605469 1081.640625 926.796875 1079.332031 931.714844 1078.546875 C 936.632812 1077.761719 940.761719 1077.121094 940.886719 1077.121094 C 941.769531 1077.121094 941.359375 1073.421875 939.714844 1066.570312 C 937.222656 1056.15625 932.863281 1044.03125 927.886719 1033.679688 C 923.898438 1025.382812 921.746094 1022.386719 919.300781 1021.730469 C 917.429688 1021.226562 906.769531 1021.335938 900.675781 1021.921875 C 897.859375 1022.195312 891.445312 1022.914062 886.425781 1023.519531 C 851.875 1027.703125 813.21875 1031.09375 775.140625 1033.28125 C 768.800781 1033.644531 760.082031 1034.15625 755.765625 1034.417969 C 741.578125 1035.273438 713.941406 1035.570312 645.605469 1035.609375 C 580.738281 1035.644531 540.125 1035.304688 519.75 1034.550781 C 504.761719 1033.996094 466.523438 1031.472656 442.25 1029.433594 C 420.300781 1027.589844 403.5 1025.84375 383.808594 1023.371094 C 361.160156 1020.523438 344.574219 1020.472656 331.285156 1023.210938 C 324.699219 1024.566406 318.714844 1027.144531 315.832031 1029.867188 C 312.128906 1033.367188 306.664062 1042.742188 304.25 1049.730469 C 301.410156 1057.964844 297.949219 1074.460938 295.445312 1091.683594 C 293.601562 1104.371094 293.578125 1104.039062 296.4375 1104.582031 C 303.875 1106 351.375 1111.210938 372.597656 1112.9375 C 398.113281 1115.015625 403.027344 1115.367188 424.15625 1116.625 C 444.34375 1117.824219 454.320312 1118.355469 463.707031 1118.71875 C 468.375 1118.902344 478.96875 1119.332031 487.246094 1119.671875 C 505.753906 1120.4375 520.214844 1120.964844 525.515625 1121.066406 C 538.519531 1121.3125 593.230469 1121.230469 598.09375 1120.957031 Z M 645.492188 1002.707031 C 729.507812 988.929688 772.679688 982.289062 797.238281 979.375 C 809.894531 977.871094 813.070312 977.375 816.101562 976.417969 C 818.234375 975.746094 818.894531 975.359375 820.273438 973.96875 C 822.304688 971.925781 822.710938 970.738281 822.921875 966.238281 C 823.132812 961.730469 822.644531 957.496094 819.652344 937.921875 C 813.820312 899.761719 807.207031 850.304688 791.484375 727.324219 C 788.75 705.921875 786.441406 687.53125 786.355469 686.453125 C 786.273438 685.375 785.847656 681.648438 785.410156 678.167969 C 784.414062 670.261719 783.839844 664.878906 782.828125 653.992188 C 780.820312 632.300781 779.140625 631.105469 749.363281 630.097656 C 744.34375 629.929688 733.679688 629.695312 725.664062 629.574219 C 716.472656 629.4375 711.015625 629.238281 710.886719 629.035156 C 710.75 628.820312 707.269531 628.832031 700.320312 629.070312 C 684.214844 629.621094 626.816406 629.859375 606.855469 629.460938 C 566.652344 628.652344 531.972656 627.042969 520.070312 625.433594 C 513.1875 624.503906 497.007812 623.113281 492.851562 623.097656 C 488.203125 623.078125 481.277344 622.289062 468.671875 620.339844 C 464.011719 619.617188 462.796875 619.664062 462.449219 620.578125 C 461.835938 622.1875 457.546875 658.832031 457.816406 660.160156 C 458.046875 661.289062 454.726562 687.476562 451.511719 709.921875 C 441.914062 776.921875 429.101562 836.007812 410.4375 899.359375 C 405.136719 917.355469 403.089844 923.988281 402.683594 924.480469 C 402.464844 924.742188 401.253906 928.273438 399.988281 932.320312 C 394.175781 950.917969 389.292969 965.960938 388.921875 966.398438 C 388.128906 967.339844 381.59375 988.308594 381.199219 991.1875 C 380.898438 993.371094 381.742188 993.777344 389.09375 995.015625 C 396.671875 996.292969 402.351562 996.851562 405.566406 996.632812 C 407.542969 996.496094 411.480469 996.695312 417.914062 997.25 C 423.109375 997.699219 431.539062 998.425781 436.648438 998.867188 C 475.582031 1002.214844 502.4375 1003.445312 552.414062 1004.167969 C 565.359375 1004.355469 576.886719 1004.546875 578.035156 1004.589844 C 579.179688 1004.636719 591.953125 1004.703125 606.425781 1004.738281 L 632.734375 1004.800781 Z M 791.421875 718.648438 C 790.824219 715.070312 790.664062 714.636719 790.863281 717.121094 C 791.101562 720.148438 791.363281 721.609375 791.628906 721.445312 C 791.757812 721.363281 791.664062 720.105469 791.421875 718.648438 Z M 790.574219 713.6875 C 790.492188 713.375 790.421875 713.550781 790.414062 714.078125 C 790.410156 714.609375 790.476562 714.863281 790.5625 714.644531 C 790.652344 714.429688 790.65625 713.996094 790.574219 713.6875 Z M 790.25 711.621094 C 790.148438 711.363281 790.074219 711.441406 790.058594 711.8125 C 790.042969 712.152344 790.121094 712.339844 790.226562 712.234375 C 790.332031 712.128906 790.34375 711.851562 790.25 711.621094 Z M 669.941406 599.027344 C 691.039062 598.597656 699.082031 598.277344 699.886719 597.832031 C 700.238281 597.636719 704.992188 596.960938 710.453125 596.328125 C 741.800781 592.695312 759.242188 588.90625 779.304688 581.363281 C 800.207031 573.503906 817.664062 563.59375 832.464844 551.1875 C 836.625 547.695312 843.910156 541.089844 843.761719 540.941406 C 843.703125 540.882812 841.425781 541.394531 838.699219 542.078125 C 825.898438 545.28125 816.199219 546.925781 794.355469 549.59375 C 786.429688 550.566406 774.902344 552 768.738281 552.78125 C 728.28125 557.917969 692.914062 560.515625 652.792969 561.300781 C 606.722656 562.203125 551.640625 559.109375 501.015625 552.777344 C 474.953125 549.515625 453.695312 546.527344 446.253906 545.078125 C 432.527344 542.398438 415.261719 537.761719 402.433594 533.308594 C 400.171875 532.523438 398.101562 531.96875 397.828125 532.070312 C 397.132812 532.339844 397.433594 536.769531 398.527344 542.316406 C 401.179688 555.789062 407.230469 564.875 418.554688 572.386719 C 424.8125 576.539062 437.613281 582.132812 442.6875 582.933594 C 443.414062 583.046875 444.523438 583.40625 445.148438 583.730469 C 448.339844 585.378906 471.414062 590.265625 481.320312 591.386719 C 483.171875 591.597656 484.820312 591.894531 484.988281 592.042969 C 485.15625 592.195312 486.261719 592.320312 487.449219 592.320312 C 488.636719 592.320312 489.683594 592.441406 489.777344 592.59375 C 489.871094 592.742188 490.925781 592.957031 492.117188 593.070312 C 493.3125 593.183594 496.523438 593.492188 499.253906 593.757812 C 511.097656 594.902344 529.28125 596.304688 544.730469 597.261719 C 564.351562 598.480469 569.792969 598.738281 573.230469 598.609375 C 575.253906 598.53125 579.144531 598.613281 581.875 598.785156 C 595.957031 599.683594 632.757812 599.78125 669.941406 599.027344 Z M 714.535156 597.226562 C 714.316406 597.140625 713.957031 597.140625 713.734375 597.226562 C 713.515625 597.316406 713.695312 597.390625 714.136719 597.390625 C 714.574219 597.390625 714.757812 597.316406 714.535156 597.226562 Z M 652.488281 530.402344 C 669.503906 530.171875 683.824219 529.5 707.25 527.835938 C 719.699219 526.949219 721.566406 526.726562 727.746094 525.386719 C 739.816406 522.769531 759.625 515.839844 775.1875 508.792969 C 811.105469 492.527344 837.550781 471.863281 853.59375 447.53125 C 865.234375 429.882812 874.4375 407.148438 881.320312 379.050781 C 882.929688 372.484375 886.183594 354.003906 887.347656 344.800781 C 888.035156 339.378906 888.957031 329.777344 889.808594 319.199219 C 890.523438 310.300781 890.761719 287.820312 890.28125 275.054688 C 889.753906 261.238281 888.464844 235.851562 888.273438 235.660156 C 887.921875 235.308594 880.351562 234.882812 868.652344 234.550781 C 852.765625 234.101562 839.199219 234.609375 817.253906 236.472656 C 812.320312 236.890625 810.25 237.050781 804.761719 237.4375 C 802.210938 237.617188 799.6875 237.832031 799.160156 237.914062 C 798.632812 237.996094 796.179688 238.300781 793.714844 238.589844 C 791.25 238.878906 788.957031 239.261719 788.621094 239.4375 C 788.039062 239.742188 788.019531 240.097656 788.21875 247.636719 C 788.332031 251.972656 788.636719 259.335938 788.894531 264 C 790.238281 288.214844 790.582031 310.003906 789.773438 319.519531 C 788.058594 339.679688 783.773438 352.179688 774.132812 365.121094 C 769.648438 371.136719 766.125 374.625 759.398438 379.707031 C 757.433594 381.191406 754.558594 383.203125 753.007812 384.175781 C 751.453125 385.148438 750.105469 386.074219 750.007812 386.234375 C 749.554688 386.964844 742.074219 389.855469 735.566406 391.8125 C 731.085938 393.160156 718.359375 396.648438 715.542969 397.300781 C 713.519531 397.769531 713.472656 397.765625 712.691406 397.039062 C 712.058594 396.457031 711.832031 395.8125 711.589844 393.914062 C 711.003906 389.347656 708.007812 376.699219 702.601562 356 C 697.914062 338.054688 695.261719 322.859375 693.824219 305.761719 C 692.324219 287.957031 691.847656 275.210938 691.371094 240.480469 C 691.175781 226.046875 690.960938 214.183594 690.890625 214.113281 C 690.640625 213.847656 680.199219 211.457031 676.679688 210.855469 C 667.007812 209.203125 648.769531 208.453125 626.230469 208.785156 C 602.945312 209.125 595.632812 209.726562 586.359375 212.050781 C 584.511719 212.515625 582.320312 212.980469 581.492188 213.085938 L 579.984375 213.28125 L 579.8125 220.160156 C 579.714844 223.945312 579.488281 237.910156 579.308594 251.199219 C 578.820312 287.367188 577.59375 309.226562 575.277344 323.039062 C 572.945312 336.964844 568.980469 355.421875 568 356.921875 C 567.496094 357.699219 565.367188 364.988281 562.996094 374.078125 C 562.097656 377.511719 561.21875 380.578125 561.039062 380.894531 C 560.519531 381.816406 558.253906 391.636719 558.023438 393.96875 C 557.710938 397.144531 557.382812 397.347656 553.625 396.671875 C 545.175781 395.15625 526.644531 389.375 520.335938 386.289062 C 513.128906 382.761719 505.386719 377.089844 499.96875 371.371094 C 493.304688 364.332031 489.214844 357.519531 485.15625 346.699219 C 478.980469 330.234375 478.441406 318.347656 481 255.367188 C 481.332031 247.1875 481.558594 240.449219 481.5 240.390625 C 481.105469 239.996094 461.804688 238.054688 447.535156 236.972656 C 414.21875 234.445312 379.425781 234.925781 342.816406 238.421875 C 335.289062 239.136719 323.875 240.324219 322.921875 240.484375 L 321.917969 240.65625 L 321.714844 250.328125 C 321.300781 269.527344 320.753906 317.171875 320.835938 326.71875 C 320.9375 338.855469 321.136719 340.539062 322.660156 342.101562 C 324.996094 344.488281 331.078125 347.066406 347.941406 352.8125 L 357.546875 356.089844 L 357.765625 366.445312 C 358.757812 413.546875 359.222656 425.164062 360.617188 437.597656 C 363.902344 466.867188 371.625 482.386719 388.367188 493.367188 C 394.496094 497.386719 403.683594 501.496094 413.109375 504.425781 C 424.417969 507.941406 429.441406 509.449219 431.371094 509.90625 C 434.589844 510.667969 451.117188 513.636719 467.871094 516.460938 C 476.238281 517.875 484.308594 519.246094 485.804688 519.515625 C 489.753906 520.21875 508.953125 523.058594 513.824219 523.65625 C 516.113281 523.9375 523.320312 524.820312 529.835938 525.617188 C 543.039062 527.238281 555.371094 528.371094 555.617188 527.992188 C 555.839844 527.640625 558.617188 527.644531 563.300781 528 C 586.269531 529.742188 617.820312 530.925781 634.234375 530.667969 C 637.757812 530.609375 645.972656 530.492188 652.488281 530.402344 Z M 652.488281 530.402344 "
       id="path3" />
    <path
       style=" stroke:none;fill-rule:nonzero;fill:rgb(8.627451%,9.019608%,9.019608%);fill-opacity:1;"
       d="M 547.769531 1151.332031 C 518.855469 1151.054688 496.855469 1150.601562 478.757812 1149.914062 C 419.058594 1147.636719 372.726562 1144.492188 332.410156 1139.976562 C 305.113281 1136.921875 261.382812 1130.914062 259.933594 1130.015625 C 259.167969 1129.542969 260.996094 1100.164062 262.941406 1081.761719 C 267.011719 1043.199219 278.957031 1015.890625 297.445312 1002.878906 C 308.628906 995.007812 322.085938 991 343.128906 989.265625 C 346.46875 988.992188 349.222656 988.738281 349.246094 988.703125 C 349.269531 988.667969 351.390625 982.015625 353.957031 973.921875 C 384.3125 878.203125 400.066406 818.214844 412.148438 752.320312 C 418.445312 717.988281 423.3125 683.742188 428.480469 637.441406 C 429.550781 627.847656 430.652344 618.445312 430.929688 616.539062 C 431.207031 614.636719 431.378906 613.03125 431.316406 612.96875 C 431.253906 612.90625 426.996094 610.847656 421.859375 608.390625 C 416.71875 605.933594 410.59375 602.875 408.246094 601.59375 C 386.609375 589.777344 375.296875 577.195312 368.789062 557.71875 C 366.367188 550.464844 365.964844 546.859375 365.410156 527.261719 L 365.105469 516.445312 L 359.914062 511.101562 C 340.195312 490.804688 333.757812 477.890625 329.222656 449.5 C 327.238281 437.078125 326.953125 431.597656 326.054688 388.886719 C 325.914062 382.132812 325.699219 377.808594 325.496094 377.605469 C 325.316406 377.425781 317.25 374.117188 307.574219 370.253906 L 289.976562 363.230469 L 289.949219 319.933594 C 289.917969 271.1875 290.128906 252.625 290.957031 229.859375 L 291.535156 214.117188 L 294.4375 213.613281 C 301.378906 212.40625 346.90625 207.53125 363.152344 206.253906 C 382.167969 204.765625 425.292969 204.761719 444.8125 206.253906 C 464.777344 207.777344 512.757812 212.789062 513.4375 213.417969 C 513.671875 213.640625 513.472656 223.207031 512.699219 248.480469 C 512.277344 262.417969 511.859375 271.390625 511.183594 281.121094 C 510.472656 291.320312 510.398438 314.808594 511.054688 320.160156 C 511.996094 327.796875 513.359375 333.824219 515.046875 337.816406 C 517.179688 342.871094 520.871094 348.28125 524.753906 352.058594 C 527.171875 354.410156 532.554688 358.222656 532.910156 357.839844 C 533.683594 357.007812 537.148438 345.09375 539.40625 335.476562 C 545.953125 307.621094 546.542969 298.71875 547.636719 210.878906 C 547.835938 194.953125 548.0625 181.851562 548.140625 181.769531 C 548.316406 181.585938 571.570312 178.253906 580.433594 177.140625 C 600.992188 174.5625 614.929688 173.898438 642.5625 174.191406 C 664.140625 174.414062 673.308594 174.960938 689.476562 176.980469 C 698.1875 178.066406 722.402344 181.527344 722.710938 181.726562 C 722.886719 181.839844 723.164062 195.058594 723.386719 214.078125 C 724.472656 306.539062 725.328125 316.484375 735.007812 349.039062 C 736.433594 353.835938 737.742188 357.761719 737.914062 357.761719 C 738.082031 357.761719 739.109375 357.296875 740.191406 356.726562 C 741.53125 356.023438 743.339844 354.523438 745.878906 352.007812 C 752.019531 345.921875 754.621094 341.875 756.691406 335.199219 C 760.371094 323.328125 761.25 308.78125 759.765625 284.480469 C 758.546875 264.53125 756.996094 213.964844 757.585938 213.445312 C 758.136719 212.960938 773.5625 211.167969 801.699219 208.324219 C 821.664062 206.304688 823.980469 206.167969 845.378906 205.710938 C 869.5 205.195312 902.59375 205.804688 918.128906 207.054688 C 931.640625 208.136719 977.652344 213.613281 978.246094 214.207031 C 978.394531 214.355469 979.480469 242.832031 979.921875 258.078125 C 980.464844 276.96875 980.679688 311.195312 980.421875 337.921875 L 980.175781 363.359375 L 962.203125 370.425781 L 944.226562 377.492188 L 944.011719 386.90625 C 943.035156 428.996094 942.578125 438.519531 941.003906 449.601562 C 939.273438 461.738281 935.464844 474.871094 931.121094 483.675781 C 926.21875 493.613281 921.378906 500.054688 910.570312 511.039062 L 905.371094 516.320312 L 905.023438 528.800781 C 904.65625 541.972656 904.453125 544.574219 903.363281 550.238281 C 901.898438 557.871094 897.976562 567.484375 893.59375 574.199219 C 884.441406 588.210938 871.085938 598.375 848.71875 608.335938 C 840.15625 612.148438 839.667969 612.546875 839.667969 615.746094 C 839.667969 625.285156 849.578125 701.550781 855.066406 734.238281 C 866.273438 801.011719 884.59375 874.628906 909.378906 952.480469 C 912.960938 963.730469 921.011719 988.242188 921.1875 988.433594 C 921.246094 988.496094 924.878906 988.957031 929.265625 989.457031 C 941.597656 990.863281 947.234375 991.898438 954.515625 994.101562 C 972.226562 999.453125 984.695312 1010.542969 993.707031 1028.960938 C 1001.78125 1045.453125 1005.980469 1065.035156 1008.742188 1099.039062 C 1009.605469 1109.703125 1010.359375 1122.484375 1010.359375 1126.5625 L 1010.359375 1129.867188 L 1008.675781 1130.230469 C 1003.460938 1131.351562 967.027344 1136.0625 940.707031 1139.019531 C 890.011719 1144.710938 845.636719 1147.71875 770.273438 1150.5625 C 763.191406 1150.832031 748.78125 1151.1875 738.25 1151.359375 C 716.222656 1151.710938 585.816406 1151.691406 547.769531 1151.332031 Z M 733.511719 1121.28125 C 785.121094 1120.652344 859.683594 1116.769531 909 1112.144531 C 937.585938 1109.464844 974.3125 1105.0625 975.808594 1104.136719 C 977.214844 1103.269531 973.0625 1075.835938 969.003906 1059.199219 C 965.15625 1043.425781 959.105469 1032.289062 951.828125 1027.59375 C 945.671875 1023.617188 931.289062 1021.121094 914.566406 1021.121094 C 906.265625 1021.121094 900.640625 1021.523438 887.867188 1023.039062 C 846.222656 1027.972656 816.398438 1030.546875 785.871094 1031.835938 C 774.230469 1032.328125 767.996094 1032.78125 766.015625 1033.28125 C 763.730469 1033.855469 738.105469 1034.667969 705.328125 1035.199219 C 694.761719 1035.371094 663.707031 1035.511719 636.316406 1035.511719 C 556.238281 1035.515625 508.984375 1034.648438 503.898438 1033.085938 C 502.792969 1032.746094 499.867188 1032.503906 494.449219 1032.300781 C 475.183594 1031.585938 469.613281 1031.308594 459.542969 1030.558594 C 438.339844 1028.976562 415.746094 1026.789062 393.414062 1024.160156 C 371.160156 1021.539062 362.277344 1020.933594 350.34375 1021.226562 C 336.0625 1021.578125 326.121094 1023.285156 319.761719 1026.480469 C 312.410156 1030.175781 305.070312 1043.101562 300.910156 1059.679688 C 298.394531 1069.703125 293.019531 1102.867188 293.710938 1104.101562 C 294.023438 1104.660156 294.355469 1104.722656 302.367188 1105.742188 C 355.3125 1112.480469 410.292969 1116.820312 478.757812 1119.667969 C 508.332031 1120.898438 512.726562 1121.03125 530.957031 1121.257812 C 558.859375 1121.605469 705.496094 1121.621094 733.511719 1121.28125 Z M 670.742188 1004.960938 C 727.625 1004.671875 778.851562 1003.320312 804.125 1001.441406 C 836.84375 999.011719 871.234375 995.722656 884.445312 993.761719 C 888.632812 993.140625 889.261719 992.507812 888.660156 989.503906 C 888.460938 988.5 886.371094 981.777344 884.023438 974.558594 C 876.324219 950.933594 868.402344 926.292969 867.609375 923.519531 C 865.96875 917.777344 861.320312 901.964844 859.515625 896 C 858.480469 892.566406 857.03125 887.601562 856.296875 884.960938 C 855.5625 882.320312 854.382812 878.144531 853.675781 875.679688 C 850.621094 865.0625 841.421875 828.523438 839.539062 819.519531 C 838.746094 815.734375 837.597656 810.335938 836.988281 807.519531 C 835.761719 801.859375 830.578125 775.90625 828.324219 764.160156 C 826.476562 754.539062 825.109375 746.734375 824.453125 742.078125 C 824.164062 740.054688 822.867188 731.753906 821.566406 723.628906 C 820.265625 715.507812 818.976562 707.011719 818.699219 704.75 C 818.425781 702.488281 817.421875 694.953125 816.46875 688 C 815.515625 681.046875 814.652344 674.566406 814.554688 673.601562 C 814.453125 672.632812 813.652344 665.863281 812.773438 658.558594 C 811.894531 651.257812 810.742188 640.886719 810.210938 635.519531 C 808.703125 620.25 808.605469 619.839844 806.515625 619.839844 C 805.902344 619.839844 801.6875 620.351562 797.15625 620.976562 C 780.410156 623.285156 757.910156 625.589844 741.195312 626.707031 C 721.484375 628.027344 680.605469 629.734375 679.851562 629.269531 C 679.660156 629.148438 668.992188 629.238281 656.148438 629.464844 C 637.445312 629.796875 628.386719 629.804688 610.621094 629.492188 C 568.769531 628.757812 532.792969 627.144531 520.070312 625.4375 C 512.429688 624.410156 501.53125 623.46875 492.277344 623.035156 C 484.90625 622.6875 481.25 622.292969 471.714844 620.816406 C 468.457031 620.308594 465.046875 619.808594 464.140625 619.703125 L 462.496094 619.507812 L 462.152344 621.511719 C 461.410156 625.875 458.164062 653.777344 457.617188 660.480469 C 456.675781 672.023438 450.65625 714.738281 446.074219 742.367188 C 437.277344 795.414062 428.042969 836.816406 413.878906 886.71875 C 410.125 899.953125 402.867188 924.207031 402.535156 924.640625 C 402.402344 924.816406 401.253906 928.273438 399.988281 932.320312 C 394.113281 951.113281 389.292969 965.964844 388.921875 966.398438 C 388.128906 967.339844 381.59375 988.308594 381.199219 991.1875 C 380.972656 992.839844 381.554688 993.40625 384.140625 994.0625 C 389.09375 995.316406 400.761719 996.796875 405.742188 996.804688 C 409.027344 996.808594 411.976562 997.03125 435.046875 999.019531 C 474.785156 1002.445312 499.300781 1003.613281 550.492188 1004.519531 C 571.324219 1004.890625 630.65625 1005.386719 634.394531 1005.226562 C 635.539062 1005.175781 651.898438 1005.054688 670.742188 1004.960938 Z M 649.445312 599.683594 C 660.984375 599.511719 676.1875 599.207031 683.234375 599.003906 C 690.277344 598.804688 697.554688 598.605469 699.40625 598.566406 C 701.253906 598.527344 708.097656 598.113281 714.617188 597.648438 C 764.75 594.066406 787.425781 591.992188 799.398438 589.894531 C 818.3125 586.582031 835.070312 581.5625 846.417969 575.8125 C 857.578125 570.152344 863.363281 564.578125 867.816406 555.171875 C 870.976562 548.496094 872.554688 542.589844 872.871094 536.25 C 873.039062 532.796875 872.996094 532.148438 872.589844 531.992188 C 872.328125 531.890625 871.042969 532.230469 869.742188 532.746094 C 866.140625 534.175781 859.894531 536.113281 851.039062 538.550781 C 829.710938 544.421875 821.332031 546.015625 794.675781 549.277344 C 786.75 550.246094 775.222656 551.679688 769.058594 552.460938 C 728.535156 557.605469 693.214844 560.199219 652.949219 560.984375 C 606.535156 561.886719 551.4375 558.804688 500.695312 552.457031 C 490.378906 551.167969 468.367188 548.246094 459.703125 547.015625 C 440.890625 544.347656 421.535156 539.71875 402.773438 533.402344 C 400.171875 532.527344 397.902344 531.898438 397.730469 532.003906 C 396.914062 532.507812 397.890625 540.480469 399.546875 546.859375 C 403.375 561.621094 413.1875 571.492188 431.683594 579.207031 C 433.886719 580.125 437.273438 581.371094 439.210938 581.972656 C 441.148438 582.578125 444.316406 583.570312 446.253906 584.179688 C 454.125 586.648438 472.085938 590.34375 481.320312 591.386719 C 483.171875 591.597656 484.820312 591.894531 484.988281 592.042969 C 485.15625 592.195312 486.261719 592.320312 487.449219 592.320312 C 488.636719 592.320312 489.683594 592.441406 489.777344 592.59375 C 489.871094 592.742188 490.925781 592.957031 492.117188 593.070312 C 493.3125 593.183594 496.523438 593.492188 499.253906 593.757812 C 511.210938 594.914062 529.546875 596.324219 544.886719 597.269531 C 565.332031 598.53125 568.972656 598.71875 572.8125 598.71875 C 575.074219 598.71875 579.226562 598.878906 582.042969 599.070312 C 594.9375 599.957031 617.492188 600.160156 649.445312 599.683594 Z M 651.847656 530.726562 C 669.039062 530.496094 683.265625 529.835938 706.929688 528.160156 C 713.320312 527.707031 718.882812 527.46875 720.398438 527.578125 C 724.789062 527.894531 734.75 526.949219 754.804688 524.308594 C 773.570312 521.84375 779.675781 520.972656 787.308594 519.675781 C 791.363281 518.988281 797.992188 517.914062 802.042969 517.285156 C 806.09375 516.65625 811.207031 515.792969 813.410156 515.367188 C 815.613281 514.941406 820.007812 514.09375 823.175781 513.476562 C 832.617188 511.648438 848.316406 507.761719 857.121094 505.074219 C 869.398438 501.328125 880.117188 496.046875 887.195312 490.261719 C 890.425781 487.621094 895.582031 482.164062 897.5625 479.285156 C 901.785156 473.152344 904.453125 467.027344 906.597656 458.558594 C 910.902344 441.558594 912.445312 421.183594 913.519531 367.167969 L 913.738281 356.257812 L 922.738281 353.296875 C 933.144531 349.871094 939.96875 347.324219 943.546875 345.535156 C 946.539062 344.035156 949.039062 341.820312 949.554688 340.199219 C 949.789062 339.460938 949.980469 334.988281 950.078125 327.839844 C 950.273438 313.925781 949.550781 261.710938 949.160156 261.296875 C 949 261.128906 948.855469 258.464844 948.832031 255.375 C 948.8125 252.289062 948.703125 247.816406 948.59375 245.441406 L 948.390625 241.125 L 941.1875 240.109375 C 913.171875 236.15625 877.824219 233.871094 852.007812 234.339844 C 841.109375 234.535156 838.753906 234.667969 822.695312 235.984375 C 817.5 236.410156 811.089844 236.847656 808.445312 236.960938 C 801.730469 237.246094 790.652344 238.464844 788.988281 239.101562 C 788.457031 239.304688 788.019531 239.769531 787.898438 240.257812 C 787.640625 241.289062 787.957031 252.253906 788.574219 263.519531 C 789.925781 288.285156 790.269531 310.261719 789.453125 319.839844 C 788.019531 336.703125 784.535156 348.847656 778.304688 358.730469 C 774.265625 365.140625 769.550781 370.898438 765.164062 374.789062 C 761.972656 377.613281 755.804688 382.253906 752.621094 384.222656 C 751.269531 385.058594 750.019531 385.929688 749.84375 386.15625 C 749.351562 386.785156 744.234375 388.894531 739.59375 390.378906 C 730.886719 393.164062 714.832031 397.332031 714.015625 397.019531 C 713.324219 396.753906 711.878906 391.9375 710.003906 383.679688 C 709.105469 379.71875 707.359375 372.734375 706.125 368.160156 C 699.523438 343.683594 697.355469 333.546875 695.421875 318.078125 C 693.113281 299.613281 692.304688 283.507812 691.558594 240.980469 C 691.296875 226.117188 690.972656 213.855469 690.839844 213.734375 C 690.511719 213.433594 680.769531 211.324219 676.988281 210.730469 C 663.839844 208.679688 640.609375 207.613281 624.148438 208.304688 C 603.996094 209.152344 597.6875 209.523438 596.765625 209.914062 C 596.414062 210.0625 594.542969 210.425781 592.605469 210.726562 C 590.667969 211.023438 587.425781 211.683594 585.398438 212.191406 C 583.375 212.703125 581.269531 213.117188 580.726562 213.117188 L 579.734375 213.121094 L 579.515625 229.199219 C 578.957031 269.976562 577.667969 298.996094 575.613281 316.960938 C 574.585938 325.9375 572.613281 337.050781 570.191406 347.511719 C 569.070312 352.351562 568.761719 353.476562 566.390625 361.441406 C 564.644531 367.308594 561.382812 379.585938 561.382812 380.289062 C 561.382812 380.570312 561.25 380.800781 561.089844 380.800781 C 560.730469 380.800781 558.636719 389.335938 558.148438 392.800781 C 557.949219 394.207031 557.570312 395.699219 557.308594 396.117188 C 556.867188 396.824219 556.699219 396.859375 554.925781 396.660156 C 550.8125 396.195312 535.742188 391.949219 527.4375 388.914062 C 517.699219 385.355469 507.890625 378.953125 500.503906 371.324219 C 488.894531 359.332031 481.820312 341.738281 480.015625 320.367188 C 479.523438 314.511719 479.800781 289.175781 480.503906 275.679688 C 481.789062 251.0625 481.960938 247.316406 481.960938 243.941406 C 481.960938 240.460938 481.9375 240.328125 481.242188 240.167969 C 477.667969 239.363281 450.703125 236.910156 432.964844 235.777344 C 428.980469 235.523438 419.011719 235.382812 405.425781 235.390625 C 383.972656 235.402344 373.335938 235.75 357.386719 236.96875 C 351.597656 237.410156 321.734375 240.296875 321.648438 240.421875 C 321.628906 240.453125 321.4375 254.089844 321.222656 270.71875 C 320.738281 308.351562 320.71875 337.132812 321.175781 339.519531 C 321.445312 340.933594 321.746094 341.488281 322.714844 342.339844 C 325.457031 344.761719 331.117188 347.175781 345.859375 352.214844 C 357.074219 356.046875 357.019531 356.023438 357.203125 357.234375 C 357.484375 359.085938 357.695312 365.5 357.875 377.441406 C 358.6875 431.8125 361.035156 453.195312 367.960938 469.320312 C 374.277344 484.027344 385.445312 493.917969 403.984375 501.214844 C 408.28125 502.90625 410.640625 503.683594 423.539062 507.644531 C 431.863281 510.203125 434.382812 510.726562 456.824219 514.578125 C 471.832031 517.152344 484.085938 519.265625 487.40625 519.851562 C 496.597656 521.464844 529.976562 525.902344 543.769531 527.339844 C 549.761719 527.964844 555.433594 528.296875 555.609375 528.027344 C 555.699219 527.882812 558.441406 527.957031 561.703125 528.1875 C 589.617188 530.175781 617.6875 531.261719 633.914062 530.984375 C 637.085938 530.929688 645.15625 530.8125 651.847656 530.726562 Z M 724.308594 526.8125 C 724.707031 526.738281 725.28125 526.738281 725.589844 526.820312 C 725.894531 526.898438 725.566406 526.960938 724.863281 526.960938 C 724.160156 526.957031 723.910156 526.890625 724.308594 526.8125 Z M 728.3125 526.492188 C 728.796875 526.417969 729.519531 526.417969 729.910156 526.496094 C 730.304688 526.570312 729.90625 526.632812 729.027344 526.628906 C 728.144531 526.625 727.824219 526.5625 728.3125 526.492188 Z M 731.992188 526.171875 C 732.390625 526.097656 732.96875 526.101562 733.273438 526.179688 C 733.578125 526.261719 733.253906 526.324219 732.550781 526.320312 C 731.84375 526.316406 731.59375 526.25 731.992188 526.171875 Z M 735.195312 525.855469 C 735.59375 525.777344 736.167969 525.78125 736.476562 525.859375 C 736.78125 525.941406 736.457031 526.003906 735.75 526 C 735.046875 525.996094 734.796875 525.929688 735.195312 525.855469 Z M 738.558594 525.539062 C 738.871094 525.457031 739.304688 525.460938 739.519531 525.550781 C 739.738281 525.636719 739.484375 525.703125 738.953125 525.699219 C 738.425781 525.691406 738.25 525.621094 738.558594 525.539062 Z M 741.617188 525.222656 C 741.847656 525.128906 742.125 525.140625 742.230469 525.246094 C 742.335938 525.351562 742.148438 525.429688 741.808594 525.414062 C 741.4375 525.398438 741.359375 525.324219 741.617188 525.222656 Z M 741.617188 525.222656 "
       id="path4" />
  </g>
</svg>
