<?xml version="1.0" encoding="UTF-8"?>
<svg version="1.1" viewBox="0 0 1280 1280" width="1280" height="1280" xmlns="http://www.w3.org/2000/svg">
<path transform="translate(621,54)" d="m0 0h32l30 5 14 5 10 9 5 10 4 25 7 49 12 69 2 6v4h10l63 7 54 8 12 3 3 15 1 12v49l-2 16-5 14-1 1-86 10-18 2h-14v12l10 3 16 8 8 6 5 4 8 11 6 16 2 10v34l-3 15-7 19-6 10-7 9-8 6-6 3 4 16 4 7h7l11-4 16-10 14-11 11-9 15-13 12-11 8-7 13-12 24-22 10-9 13-12 8-7 10-9 10-8 11-9 13-11 16-12 16-10 10-5 7-2h13l9 5 6 7 4 11 1 8v12l-3 24-7 36-9 40-12 45-17 58-9 31-5 16-18 70-23 88-23 85-8 28-11 42-5 19h25l15 4 12 6 10 9 6 7 9 16 4 13 5 26 7 55-1 3-58 8-48 5-55 4-62 3-64 2-48 1h-76l-84-2-72-3-61-4-51-5-46-6-21-3-1-3 7-55 6-30 5-13 9-15 11-11 12-7 13-4 5-1h25l-14-54-8-29-6-21-21-78-19-73-10-37-6-23-7-28-6-19-18-61-12-44-9-36-9-44-4-25-1-10v-12l2-12 5-10 7-6 7-3h13l11 4 13 7 14 10 14 11 13 11 11 9 12 11 8 7 12 11 8 7 10 9 16 15 10 9 13 12 10 9 8 7 14 12 16 13 18 12 12 6 4 1h7l5-10 3-13-9-5-5-4-9-12-7-14-6-20-1-7v-34l4-16 7-14 9-10 9-7 16-8 9-3 2-12h-15l-104-12-5-14-2-13v-58l3-20 2-3 36-6 44-6 47-5h10l2-10 12-69 9-66 3-11 5-9 9-7 10-4 20-4z" fill="#30302F"/>
<path transform="translate(237,400)" d="m0 0 10 5 14 10 14 11 28 24 12 11 8 7 14 13 8 7 13 12 10 9 13 12 20 18 11 9 10 9 17 13 15 10 15 8 13 4h17l10-4 7-5 7-10 5-12 5-19 28-3 33-2h85l33 2 29 3 6 22 7 14 5 6 9 6 6 2 9 1 13-2 13-5 13-7 17-12 16-13 14-12 10-9 8-7 12-11 10-9 13-12 12-11 10-9 8-7 10-9 12-11 11-9 10-9 16-12 17-12 10-5v18h-2l-1 13-7 36-9 39-12 45-17 58-13 43-11 44-8 29-14 55-21 79-10 37-7 24-13 49-6 22-1 2-9 2-52 5-42 3-54 2h-184l-54-2-55-4-40-4-7-1-2-2-11-42-14-52-7-24-20-75-19-73-9-33-12-48-13-42-19-66-10-38-11-51-5-30z" fill="#E7E7E7"/>
<path transform="translate(355,1021)" d="m0 0h11l66 7 54 4 48 2h206l48-2 54-4 66-7h11l24 4 10 4 5 5 7 11 5 16 5 26 2 15v5l-48 6-56 5-50 3-77 3-38 1h-142l-69-2-65-3-56-4-49-5-30-4 1-13 4-24 5-20 6-12 5-7 10-5 20-4z" fill="#E7E7E7"/>
<path transform="translate(618,85)" d="m0 0h37l22 4 5 2 2 6 4 30 6 41 10 58 8 32v5l64 8 37 5 35 6 1 1v17l-2 26-1 3-112 15h-13l1 6 1 16v11h-13l-11-1-25-1h-74l-36 2h-13v-11l1-21-27-3-97-13-2-14-1-32 7-2 43-7 86-11 10-42 10-58 8-59 2-13 9-3z" fill="#E7E7E7"/>
<path transform="translate(607,404)" d="m0 0h60l45 3 23 4 20 6 11 6 7 7 4 9 2 10v18l-3 16-5 14-6 8-5 4-4 1-21-1-57-3h-82l-57 3-10 1h-12l-8-4-7-11-5-16-2-11v-20l3-12 5-8 8-7 16-7 22-5 12-2z" fill="#E7E7E7"/>
<path transform="translate(1022,485)" d="m0 0h1l-1 9-10 39-19 66-14 46-17 66-8 30-16 62-24 89-10 35-16 61-2 5-9 2-52 5-13 1h-14l2-6 17-35 13-29 18-41 13-30 17-41 55-132 13-33 15-35 15-33 16-34 12-26z" fill="#B7B7B7"/>
<path transform="translate(355,1021)" d="m0 0h11l66 7 54 4 48 2h206l48-2 54-4 66-7h11l24 4 10 4 5 5 7 11v2l-25 2-124 7-93 4-34 1-74 1h-59l-47-1-67-3-84-6-48-4-1-3 9-14 10-5 20-4z" fill="#FCFCFC"/>
<path transform="translate(237,400)" d="m0 0 10 5 14 10 14 11 28 24 12 11 8 7 14 13 8 7 13 12 10 9 13 12 20 18 11 9 10 9 17 13 15 10 15 8 13 4 5 1v2h-15l-19-3-21-7-23-12-18-12-19-14-14-11-13-11-11-9-10-9-11-9-7-7-8-7-13-12-17-16-5-5 3 21 12 64 10 55 6 43-1 4-8-25-19-65-13-49-11-51-5-30z" fill="#FCFCFC"/>
<path transform="translate(611,86)" d="m0 0h5v10l-7 63-9 69-9 61-4 2-73 7-57 5-31 2-1-22 7-2 43-7 86-11 10-42 10-58 8-59 2-13 9-3z" fill="#FDFDFD"/>
<path transform="translate(843,310)" d="m0 0h5l-1 16-1 3-112 15h-13l1 6 1 16v11h-13l-17-2-3-39v-10l2-1 67-7 74-7z" fill="#B7B7B7"/>
<path transform="translate(535,412)" d="m0 0 4 1-10 10-6 9-4 9-1 4v16l3 9 7 9 14 8 18 6 29 6 34 5v1l-66 3-28 2h-12l-8-4-7-11-5-16-2-11v-20l3-12 5-8 8-7 16-7z" fill="#FCFCFC"/>
<path transform="translate(675,405)" d="m0 0 25 1 19 2 24 5 16 6 9 6 6 7 4 11 1 6v18l-3 16-5 14-6 8-5 4-4 1-21-1-6-1 5-4 8-6 6-9 3-9 1-6v-20l-3-12-5-10-7-7-12-7-18-6-29-5z" fill="#B7B7B7"/>
<path transform="translate(594,537)" d="m0 0h38l-3 2-49 13-29 9-18 8-10 6 3-9 5-16 2-8 28-3z" fill="#FCFCFC"/>
<path transform="translate(720,540)" d="m0 0 21 2 6 22 7 14 5 6 9 6 6 2 15 1-4 2-13 2h-17l-11-4-9-7-6-10-5-16z" fill="#B7B7B7"/>
</svg>
