<?xml version="1.0" encoding="UTF-8" ?>
<!DOCTYPE svg PUBLIC "-//W3C//DTD SVG 1.1//EN" "http://www.w3.org/Graphics/SVG/1.1/DTD/svg11.dtd">
<svg width="640pt" height="640pt" viewBox="0 0 640 640" version="1.1" xmlns="http://www.w3.org/2000/svg">
<path fill="#afafaf" stroke="#afafaf" stroke-width="0.09375" opacity="1.00" d=" M 0.00 0.00 L 0.07 0.00 C 0.06 0.03 0.02 0.08 0.00 0.11 L 0.00 0.00 Z" />
<path fill="#30302f" stroke="#30302f" stroke-width="0.09375" opacity="1.00" d=" M 303.12 28.26 C 311.34 26.69 319.79 26.59 328.09 27.39 C 336.10 28.84 345.13 29.03 351.66 34.53 C 357.56 40.08 356.71 48.78 358.09 56.10 C 359.95 71.56 363.04 86.82 365.56 102.18 C 366.46 107.47 367.35 112.78 368.97 117.91 C 392.09 119.95 415.20 122.58 438.02 126.86 C 438.47 129.14 438.97 131.41 439.17 133.72 C 439.25 137.32 439.50 140.90 439.90 144.47 C 440.08 149.14 440.03 153.81 439.88 158.48 C 439.42 162.73 439.24 167.00 439.16 171.27 C 438.72 174.46 437.46 177.45 436.29 180.42 C 416.48 182.06 396.80 185.53 376.94 186.57 C 377.08 188.55 377.20 190.54 377.33 192.52 C 385.76 195.07 394.27 199.28 399.29 206.80 C 403.87 214.66 405.33 223.99 404.60 232.98 C 404.78 241.48 402.17 249.82 398.31 257.31 C 395.53 262.63 391.24 267.21 385.69 269.64 C 386.69 273.63 387.32 278.03 390.13 281.23 C 392.45 282.06 394.79 280.80 396.94 280.01 C 404.41 276.59 410.82 271.33 417.15 266.18 C 445.51 242.27 471.18 215.19 501.11 193.15 C 507.58 188.83 514.65 183.50 522.90 184.51 C 528.38 185.51 532.34 190.47 533.25 195.80 C 535.08 204.35 532.98 213.06 531.68 221.53 C 525.15 258.43 513.73 294.20 503.05 330.04 C 492.54 371.02 481.92 411.98 470.70 452.78 C 466.29 467.33 462.66 482.09 459.08 496.85 C 462.72 497.10 466.37 496.89 470.01 497.06 C 478.52 497.92 487.09 501.76 492.09 508.93 C 495.33 513.87 498.47 519.10 499.46 525.02 C 502.52 538.55 503.49 552.43 505.56 566.12 C 492.08 568.29 478.52 570.00 464.95 571.50 C 462.86 571.70 460.76 572.10 458.67 571.86 C 456.45 571.38 454.20 571.68 452.19 572.73 L 450.78 573.00 C 449.62 572.86 448.47 572.87 447.33 573.04 C 419.28 575.56 391.11 576.46 362.98 577.18 C 353.69 578.00 344.32 576.94 335.03 577.96 C 324.01 578.01 312.98 578.01 301.97 577.96 C 293.34 577.04 284.66 577.81 276.02 577.35 C 269.38 576.54 262.67 577.45 256.04 576.63 C 214.38 575.50 172.63 572.78 131.43 566.12 C 133.76 550.88 134.63 535.34 138.73 520.41 C 142.30 511.30 148.38 502.13 158.21 499.09 C 164.47 496.41 171.30 497.14 177.92 496.85 C 174.28 481.79 170.54 466.74 166.05 451.91 C 158.43 423.96 150.89 395.98 143.77 367.89 C 140.20 355.38 137.07 342.74 133.97 330.10 C 122.57 291.85 110.31 253.64 104.09 214.10 C 102.99 206.15 101.72 197.32 106.02 190.05 C 109.21 184.73 116.20 183.23 121.82 185.12 C 129.50 187.76 136.01 192.86 142.42 197.71 C 169.94 219.63 194.51 244.94 221.48 267.52 C 227.28 272.17 233.19 276.88 240.00 279.99 C 242.18 280.80 244.55 282.07 246.91 281.21 C 249.65 277.98 250.33 273.63 251.31 269.65 C 240.17 264.67 235.36 252.20 233.01 241.05 C 231.81 230.28 231.32 218.58 236.79 208.80 C 241.55 200.20 250.68 195.14 259.87 192.54 C 259.99 190.53 260.10 188.51 260.24 186.50 C 256.41 186.67 252.60 186.31 248.83 185.70 C 232.90 184.24 217.07 181.80 201.13 180.44 C 198.49 174.65 197.29 168.29 197.48 161.95 C 197.73 150.64 196.56 139.17 199.17 128.05 C 199.23 126.58 201.04 126.53 202.10 126.20 C 224.05 122.57 246.14 119.72 268.32 117.93 C 271.29 107.44 272.46 96.56 274.46 85.87 C 276.51 74.63 277.87 63.29 279.43 51.98 C 280.07 46.03 280.41 39.32 284.89 34.81 C 289.77 30.21 296.80 29.37 303.12 28.26 M 308.29 42.93 C 304.00 43.45 299.77 44.30 295.62 45.51 C 291.76 74.46 288.18 103.57 280.67 131.85 C 258.07 134.72 235.38 137.06 212.98 141.28 C 212.91 144.93 213.01 148.58 212.96 152.23 C 213.05 156.32 213.69 160.36 214.12 164.42 C 224.82 165.59 235.49 167.01 246.17 168.38 C 256.29 169.67 266.36 171.80 276.57 172.06 C 276.04 177.54 276.00 183.05 275.42 188.52 C 278.70 188.67 281.97 188.31 285.20 187.74 C 305.81 186.76 326.49 186.71 347.10 187.49 C 351.97 187.26 356.69 188.80 361.56 188.54 C 361.01 183.06 360.90 177.56 360.45 172.08 C 367.79 172.04 374.98 170.44 382.25 169.66 C 395.76 167.62 409.33 166.01 422.91 164.41 C 423.27 161.38 423.62 158.35 424.00 155.33 C 424.05 150.66 424.10 145.99 424.10 141.31 C 401.67 137.05 378.94 134.80 356.33 131.85 C 351.32 113.59 348.38 94.89 345.46 76.22 C 343.37 66.00 342.81 55.50 340.74 45.30 C 330.18 42.49 319.14 41.68 308.29 42.93 M 502.76 210.77 C 485.66 224.53 469.80 239.72 453.49 254.38 C 439.93 266.57 426.77 279.41 411.50 289.49 C 405.22 293.77 397.96 296.57 390.37 297.20 C 386.53 296.22 382.48 295.20 379.58 292.32 C 373.58 286.89 372.07 278.57 370.20 271.09 C 365.48 270.87 360.80 270.20 356.09 269.88 C 326.33 267.50 296.36 268.10 266.65 271.08 C 264.85 279.86 262.38 290.14 253.86 294.80 C 249.91 297.26 245.20 296.20 240.85 296.74 L 241.84 296.57 C 233.40 294.65 225.88 290.08 219.02 284.96 C 208.03 276.70 197.92 267.37 187.73 258.16 C 170.59 242.65 153.80 226.73 135.94 212.05 C 130.40 207.74 124.95 203.15 118.51 200.21 C 118.02 208.21 119.96 216.06 121.28 223.89 C 127.21 254.72 136.18 284.86 145.46 314.81 C 150.46 330.81 153.68 347.37 158.48 363.46 C 169.55 408.00 182.38 452.06 194.02 496.45 C 232.79 501.69 271.98 502.65 311.05 502.50 C 340.49 502.52 369.97 502.75 399.33 500.58 C 413.77 499.86 428.15 498.28 442.49 496.49 C 443.81 494.19 444.22 491.52 444.98 489.01 C 447.61 478.63 450.33 468.27 453.18 457.95 C 464.59 418.15 474.64 377.96 485.19 337.92 C 488.00 325.07 492.38 312.67 495.97 300.03 C 501.06 282.29 506.77 264.67 510.46 246.58 C 514.35 233.37 516.24 219.65 518.93 206.16 C 519.10 204.17 519.02 202.18 519.00 200.19 C 513.16 203.03 508.09 207.12 502.76 210.77 M 299.93 202.52 C 289.15 203.02 278.36 203.70 267.80 206.07 L 267.72 206.27 C 260.83 207.94 252.73 210.40 249.52 217.39 C 245.83 226.89 247.50 237.66 251.12 246.92 C 252.65 251.03 256.11 255.35 260.95 254.97 C 276.17 253.60 291.43 253.01 306.69 252.35 C 319.11 252.94 331.64 251.87 344.06 253.00 C 351.40 252.81 358.73 254.09 366.05 253.85 C 369.92 254.50 373.87 254.87 377.80 254.79 C 383.03 253.80 385.41 248.31 386.92 243.79 C 389.44 235.39 390.90 225.95 387.40 217.60 C 384.44 211.34 377.52 208.54 371.24 206.80 C 361.62 204.39 351.69 202.80 341.74 203.16 C 327.90 201.39 313.84 201.87 299.93 202.52 M 167.06 512.45 C 164.25 513.14 161.15 513.78 159.12 516.03 C 156.53 518.87 154.63 522.34 153.52 526.02 C 150.77 534.90 149.69 544.17 148.41 553.35 C 152.10 553.68 155.76 554.40 159.47 554.62 L 159.40 554.92 C 167.68 555.49 175.90 556.69 184.17 557.39 C 219.43 560.45 254.84 561.77 290.17 562.17 C 305.43 562.91 320.74 562.27 336.02 562.49 C 346.68 562.80 357.29 561.73 367.95 561.97 C 374.92 561.16 381.95 561.86 388.93 561.13 C 422.23 560.12 455.52 557.76 488.56 553.34 C 487.44 544.83 486.21 536.30 484.00 527.99 C 482.87 523.64 480.80 519.52 477.89 516.11 C 474.98 513.33 470.80 512.73 467.01 512.03 C 462.28 511.41 457.49 509.96 452.74 511.19 C 450.52 511.09 448.32 511.56 446.12 511.77 C 414.88 515.34 383.47 517.73 352.02 517.51 C 340.69 518.22 329.34 517.83 318.00 517.95 C 307.00 517.83 296.00 518.21 285.02 517.51 C 254.41 517.77 223.84 515.39 193.41 512.11 C 188.95 511.46 184.48 510.81 179.98 510.54 C 175.65 510.93 171.34 511.65 167.06 512.45 Z" />
<path fill="#e8e8e8" stroke="#e8e8e8" stroke-width="0.09375" opacity="1.00" d=" M 308.29 42.93 C 319.14 41.68 330.18 42.49 340.74 45.30 C 342.81 55.50 343.37 66.00 345.46 76.22 C 348.38 94.89 351.32 113.59 356.33 131.85 C 378.94 134.80 401.67 137.05 424.10 141.31 C 424.10 145.99 424.05 150.66 424.00 155.33 C 410.68 156.69 397.35 158.04 384.00 159.12 C 371.02 160.21 358.12 162.17 345.12 163.07 C 345.81 171.21 346.69 179.33 347.10 187.49 C 326.49 186.71 305.81 186.76 285.20 187.74 C 281.97 188.31 278.70 188.67 275.42 188.52 C 276.00 183.05 276.04 177.54 276.57 172.06 C 266.36 171.80 256.29 169.67 246.17 168.38 C 235.49 167.01 224.82 165.59 214.12 164.42 C 213.69 160.36 213.05 156.32 212.96 152.23 C 223.67 151.61 234.37 150.91 245.04 149.85 C 261.70 148.24 278.41 147.05 295.01 144.91 C 297.73 129.01 300.03 113.04 301.88 97.02 C 304.48 79.05 306.51 61.00 308.29 42.93 Z" />
<path fill="#ffffff" stroke="#ffffff" stroke-width="0.09375" opacity="1.00" d=" M 295.62 45.51 C 299.77 44.30 304.00 43.45 308.29 42.93 C 306.51 61.00 304.48 79.05 301.88 97.02 C 300.03 113.04 297.73 129.01 295.01 144.91 C 278.41 147.05 261.70 148.24 245.04 149.85 C 234.37 150.91 223.67 151.61 212.96 152.23 C 213.01 148.58 212.91 144.93 212.98 141.28 C 235.38 137.06 258.07 134.72 280.67 131.85 C 288.18 103.57 291.76 74.46 295.62 45.51 Z" />
<path fill="#363535" stroke="#363535" stroke-width="0.09375" opacity="0.70" d=" M 439.17 133.72 C 439.99 137.24 440.15 140.88 439.90 144.47 C 439.50 140.90 439.25 137.32 439.17 133.72 Z" />
<path fill="#afafaf" stroke="#afafaf" stroke-width="0.09375" opacity="1.00" d=" M 384.00 159.12 C 397.35 158.04 410.68 156.69 424.00 155.33 C 423.62 158.35 423.27 161.38 422.91 164.41 C 409.33 166.01 395.76 167.62 382.25 169.66 C 374.98 170.44 367.79 172.04 360.45 172.08 C 360.90 177.56 361.01 183.06 361.56 188.54 C 356.69 188.80 351.97 187.26 347.10 187.49 C 346.69 179.33 345.81 171.21 345.12 163.07 C 358.12 162.17 371.02 160.21 384.00 159.12 Z" />
<path fill="#3b3a39" stroke="#3b3a39" stroke-width="0.09375" opacity="0.77" d=" M 439.16 171.27 C 439.24 167.00 439.42 162.73 439.88 158.48 C 440.18 162.75 440.07 167.08 439.16 171.27 Z" />
<path fill="#e8e8e8" stroke="#e8e8e8" stroke-width="0.09375" opacity="1.00" d=" M 502.76 210.77 C 508.09 207.12 513.16 203.03 519.00 200.19 C 519.02 202.18 519.10 204.17 518.93 206.16 C 516.24 219.65 514.35 233.37 510.46 246.58 C 508.97 249.12 507.56 251.71 506.45 254.45 C 498.88 272.52 489.74 289.87 481.95 307.84 C 474.08 325.07 467.71 342.92 460.27 360.33 C 440.45 407.29 421.79 454.80 399.33 500.58 C 369.97 502.75 340.49 502.52 311.05 502.50 C 271.98 502.65 232.79 501.69 194.02 496.45 C 182.38 452.06 169.55 408.00 158.48 363.46 C 153.68 347.37 150.46 330.81 145.46 314.81 C 145.60 312.91 145.84 311.00 145.72 309.10 C 142.11 280.83 135.06 253.14 131.02 224.95 C 145.85 239.17 160.97 253.09 176.90 266.08 C 186.19 273.61 195.71 280.92 205.96 287.11 C 214.52 292.22 224.04 295.91 233.98 297.12 C 236.27 297.47 238.58 297.13 240.85 296.74 C 245.20 296.20 249.91 297.26 253.86 294.80 C 262.38 290.14 264.85 279.86 266.65 271.08 C 296.36 268.10 326.33 267.50 356.09 269.88 C 358.24 279.78 363.39 289.35 371.72 295.34 C 377.13 299.31 384.20 298.27 390.37 297.20 C 397.96 296.57 405.22 293.77 411.50 289.49 C 426.77 279.41 439.93 266.57 453.49 254.38 C 469.80 239.72 485.66 224.53 502.76 210.77 Z" />
<path fill="#ffffff" stroke="#ffffff" stroke-width="0.09375" opacity="1.00" d=" M 118.51 200.21 C 124.95 203.15 130.40 207.74 135.94 212.05 C 153.80 226.73 170.59 242.65 187.73 258.16 C 197.92 267.37 208.03 276.70 219.02 284.96 C 225.88 290.08 233.40 294.65 241.84 296.57 L 240.85 296.74 C 238.58 297.13 236.27 297.47 233.98 297.12 C 224.04 295.91 214.52 292.22 205.96 287.11 C 195.71 280.92 186.19 273.61 176.90 266.08 C 160.97 253.09 145.85 239.17 131.02 224.95 C 135.06 253.14 142.11 280.83 145.72 309.10 C 145.84 311.00 145.60 312.91 145.46 314.81 C 136.18 284.86 127.21 254.72 121.28 223.89 C 119.96 216.06 118.02 208.21 118.51 200.21 Z" />
<path fill="#e8e8e8" stroke="#e8e8e8" stroke-width="0.09375" opacity="1.00" d=" M 299.93 202.52 C 313.84 201.87 327.90 201.39 341.74 203.16 C 351.32 205.02 361.61 206.21 369.56 212.41 C 375.45 217.01 376.85 225.02 376.95 232.06 C 376.78 237.48 376.12 243.33 372.76 247.79 C 370.86 250.15 368.49 252.08 366.05 253.85 C 358.73 254.09 351.40 252.81 344.06 253.00 C 331.64 251.87 319.11 252.94 306.69 252.35 C 297.01 249.42 286.74 249.06 277.10 245.88 C 271.26 244.16 265.02 241.83 261.39 236.64 C 257.05 230.41 257.63 221.76 261.48 215.45 C 263.39 212.27 266.56 209.90 267.72 206.27 L 267.80 206.07 C 278.36 203.70 289.15 203.02 299.93 202.52 Z" />
<path fill="#afafaf" stroke="#afafaf" stroke-width="0.09375" opacity="1.00" d=" M 341.74 203.16 C 351.69 202.80 361.62 204.39 371.24 206.80 C 377.52 208.54 384.44 211.34 387.40 217.60 C 390.90 225.95 389.44 235.39 386.92 243.79 C 385.41 248.31 383.03 253.80 377.80 254.79 C 373.87 254.87 369.92 254.50 366.05 253.85 C 368.49 252.08 370.86 250.15 372.76 247.79 C 376.12 243.33 376.78 237.48 376.95 232.06 C 376.85 225.02 375.45 217.01 369.56 212.41 C 361.61 206.21 351.32 205.02 341.74 203.16 Z" />
<path fill="#ffffff" stroke="#ffffff" stroke-width="0.09375" opacity="1.00" d=" M 249.52 217.39 C 252.73 210.40 260.83 207.94 267.72 206.27 C 266.56 209.90 263.39 212.27 261.48 215.45 C 257.63 221.76 257.05 230.41 261.39 236.64 C 265.02 241.83 271.26 244.16 277.10 245.88 C 286.74 249.06 297.01 249.42 306.69 252.35 C 291.43 253.01 276.17 253.60 260.95 254.97 C 256.11 255.35 252.65 251.03 251.12 246.92 C 247.50 237.66 245.83 226.89 249.52 217.39 Z" />
<path fill="#afafaf" stroke="#afafaf" stroke-width="0.09375" opacity="1.00" d=" M 506.45 254.45 C 507.56 251.71 508.97 249.12 510.46 246.58 C 506.77 264.67 501.06 282.29 495.97 300.03 C 492.38 312.67 488.00 325.07 485.19 337.92 C 474.64 377.96 464.59 418.15 453.18 457.95 C 450.33 468.27 447.61 478.63 444.98 489.01 C 444.22 491.52 443.81 494.19 442.49 496.49 C 428.15 498.28 413.77 499.86 399.33 500.58 C 421.79 454.80 440.45 407.29 460.27 360.33 C 467.71 342.92 474.08 325.07 481.95 307.84 C 489.74 289.87 498.88 272.52 506.45 254.45 Z" />
<path fill="#afafaf" stroke="#afafaf" stroke-width="0.09375" opacity="1.00" d=" M 356.09 269.88 C 360.80 270.20 365.48 270.87 370.20 271.09 C 372.07 278.57 373.58 286.89 379.58 292.32 C 382.48 295.20 386.53 296.22 390.37 297.20 C 384.20 298.27 377.13 299.31 371.72 295.34 C 363.39 289.35 358.24 279.78 356.09 269.88 Z" />
<path fill="#ffffff" stroke="#ffffff" stroke-width="0.09375" opacity="1.00" d=" M 167.06 512.45 C 171.34 511.65 175.65 510.93 179.98 510.54 C 184.48 510.81 188.95 511.46 193.41 512.11 C 185.19 514.85 175.90 517.07 170.24 524.19 C 163.40 532.88 161.85 544.16 159.47 554.62 C 155.76 554.40 152.10 553.68 148.41 553.35 C 149.69 544.17 150.77 534.90 153.52 526.02 C 154.63 522.34 156.53 518.87 159.12 516.03 C 161.15 513.78 164.25 513.14 167.06 512.45 Z" />
<path fill="#e8e8e8" stroke="#e8e8e8" stroke-width="0.09375" opacity="1.00" d=" M 446.12 511.77 C 448.32 511.56 450.52 511.09 452.74 511.19 C 457.99 514.42 463.42 517.94 466.65 523.36 C 469.50 527.98 470.47 533.43 471.13 538.74 C 424.78 545.15 378.71 553.83 332.06 557.96 C 323.03 558.81 313.99 559.52 304.95 560.28 C 300.00 560.73 294.93 560.54 290.17 562.17 C 254.84 561.77 219.43 560.45 184.17 557.39 C 175.90 556.69 167.68 555.49 159.40 554.92 L 159.47 554.62 C 161.85 544.16 163.40 532.88 170.24 524.19 C 175.90 517.07 185.19 514.85 193.41 512.11 C 223.84 515.39 254.41 517.77 285.02 517.51 C 296.00 518.21 307.00 517.83 318.00 517.95 C 329.34 517.83 340.69 518.22 352.02 517.51 C 383.47 517.73 414.88 515.34 446.12 511.77 Z" />
<path fill="#afafaf" stroke="#afafaf" stroke-width="0.09375" opacity="1.00" d=" M 452.74 511.19 C 457.49 509.96 462.28 511.41 467.01 512.03 C 470.80 512.73 474.98 513.33 477.89 516.11 C 480.80 519.52 482.87 523.64 484.00 527.99 C 486.21 536.30 487.44 544.83 488.56 553.34 C 455.52 557.76 422.23 560.12 388.93 561.13 C 381.95 561.86 374.92 561.16 367.95 561.97 C 357.29 561.73 346.68 562.80 336.02 562.49 C 320.74 562.27 305.43 562.91 290.17 562.17 C 294.93 560.54 300.00 560.73 304.95 560.28 C 313.99 559.52 323.03 558.81 332.06 557.96 C 378.71 553.83 424.78 545.15 471.13 538.74 C 470.47 533.43 469.50 527.98 466.65 523.36 C 463.42 517.94 457.99 514.42 452.74 511.19 Z" />
<path fill="#3c3c3c" stroke="#3c3c3c" stroke-width="0.09375" opacity="0.65" d=" M 452.19 572.73 C 454.20 571.68 456.45 571.38 458.67 571.86 C 457.69 573.68 454.00 573.43 452.19 572.73 Z" />
<path fill="#3c3c3c" stroke="#3c3c3c" stroke-width="0.09375" opacity="0.35" d=" M 447.33 573.04 C 448.47 572.87 449.62 572.86 450.78 573.00 C 451.07 574.82 447.01 574.81 447.33 573.04 Z" />
</svg>
