<svg xmlns="http://www.w3.org/2000/svg" viewBox="0 0 640 640"><path fill="#353534" stroke="#353534" stroke-width=".09" d="M288.88 61.95c.93-.67 1.62-2.02 2.91-1.95 3.79 3.26 7.16 6.97 10.62 10.56 9.28 9.44 16.91 20.53 27.43 28.71 20.25 2.07 40.74 3.66 60.36 9.45 18.62 5.32 36.3 14.38 50.78 27.33 17.98 15.84 30.63 36.72 40.79 58.19 16.07 34.76 26.6 71.94 32.73 109.69 4.27 27.78 6.51 56.29 1.34 84.09a142.2 142.2 0 0 1-19.11 49.59c-6.61 10.82-14.57 20.72-22.61 30.49-3.58 4.22-7.1 8.56-9.64 13.5-2.02 4.06-2.14 8.68-1.99 13.12 8.75.9 18.13 1.95 25.38 7.43 5.57 3.94 8.64 10.33 11.5 16.32 4.48 15.2 5.2 31.16 7.67 46.73-36.44 5.77-73.28 8.71-110.13 9.98-19.26 1.02-38.57 1.05-57.87.99-10.35-.2-20.69.76-31.03.03-20-.15-40.02.28-60-.69-21.97-.94-43.96-.88-65.89-2.67-15.8-1.23-31.46-3.78-47.13-6.07a13.98 13.98 0 0 1-5.13-1.49c2.33-13.35 2.96-26.99 6.05-40.23 1.01-6.89 4.69-12.93 8.52-18.58 7.67-9.13 20.31-11.22 31.57-11.69.06-10.6-.38-21.22.95-31.76a94.89 94.89 0 0 1 11.87-37.14c11.27-19.38 27.95-34.73 43.58-50.51 14.45-14.62 30.32-28.8 39.07-47.8 3.37-7.18 5.3-14.94 6.63-22.73-14.82 4.19-30.05 6.61-45.19 9.24-5.3.76-9.94 3.64-14.58 6.1-8.08 4.39-13.21 12.24-19.45 18.69-3.87 4.1-8.81 7.25-14.32 8.57-6.38 1.8-13.06.84-19.59 1.11-4.08.22-8.09-.61-12.03-1.61 2.92-5.23 4.09-11.21 5.68-16.92.65-3.93 2.41-8.3.55-12.11-3.04-3.09-8.04-3.11-12.07-2.69-9.9 1.11-17.51 8.07-24.85 14.14-8.37-6.79-16.32-14.43-21.82-23.79a28.37 28.37 0 0 1-3-22c1.96-6.77 6.14-12.55 9.72-18.52 8.32-13.57 17.77-26.63 29.62-37.36 14.72-13.41 32.3-23.02 48.57-34.34 10.26-7.15 20.43-14.95 27.51-25.41 7.06-10.53 11.65-22.71 14.19-35.07-2.99-2.6-6.64-4.38-9.9-6.62 2.54-9.32 5.61-18.48 8.28-27.77 3.28-10.93 9.7-20.53 17.02-29.15l1.55-.3c8.83 6.31 16.96 13.55 25.06 20.76 4.4-10.65 11.51-19.95 19.83-27.84m2.73 19.52c-5.63 7.44-9.56 16.05-12.06 25.01-2.78 6.2-6.65 11.88-10.94 17.12a49.33 49.33 0 0 1-26.9 15.1c-3.63 14.27-9 28.34-17.79 40.28-10 13.76-24.31 23.42-38.29 32.71-14.59 9.83-30.23 18.58-42.5 31.41-11.92 11.58-20.51 25.98-28.95 40.16a14.36 14.36 0 0 0-.62 14.38 61.03 61.03 0 0 0 9.27 11.49c6.23-4.43 13.29-7.94 20.93-9.01 8.69-1.52 18.47-.07 25.37 5.75 4.81 4.24 6.21 10.77 6.52 16.9-1.08 3.29-.91 6.9-1.75 10.28 3.92.03 8.28-.06 11.42-2.76 6.83-5.84 11.52-13.82 18.81-19.17 5.43-4.32 11.84-7.05 17.99-10.13 2.45-1.32 5.23-1.64 7.94-2.05 14.95-2.75 30.05-4.93 44.66-9.25 5.71-1.84 11.46-4.1 16.13-7.95a272.39 272.39 0 0 0 18.16-18.76c5.63-7.14 9.63-15.38 15.19-22.57a37.1 37.1 0 0 0 1.91-1.62c3.03 2.81 4.48 6.72 6.19 10.37-.21 5.94-3.7 10.74-6.38 15.78-6.94 10.52-16.32 19.03-25.39 27.64-2.06 1.8-4.32 3.47-5.85 5.77a200.83 200.83 0 0 0-2.21 15.06l-.25.12c-2.52 12.45-7.73 24.27-14.72 34.83-14.21 19.87-32.74 36.01-49.61 53.52-14.18 14.39-28.39 30.34-33.34 50.47-3.96 14.43-2.66 29.45-3.37 44.2 4.11.35 8.2.93 12.3 1.43 5.21.31 10.38.93 15.57 1.39 23.27 2.38 46.65 2.36 70 3.14 39.12-.09 78.3.6 117.32-2.47 13.57-1.13 27.2-2.02 40.65-4.16-.14-4.66-.12-9.39 1.1-13.93 1.85-8.75 7.7-15.85 13.11-22.7 9.42-11.11 18.64-22.57 25.57-35.44 9.96-17.25 14.71-37.08 16.11-56.82.12-6.62 1.12-13.23.34-19.85-.6-15.58-2.08-31.2-5.14-46.51-2.15-15.14-6.02-30.01-10.05-44.74-6.24-21.84-14.1-43.28-24.42-63.54-9.84-19.31-22.62-37.66-40.2-50.68-12.29-9.14-26.57-15.36-41.36-19.14-19.05-5.02-38.77-6.42-58.32-8.11l-1.19-.91c-11.58-9.41-21.01-21.01-30.96-32.04m-58.59 38.1a48.02 48.02 0 0 1 6.88 3.72l3.35-.82c3.44-1.53 6.98-2.94 10.14-5.03a29.4 29.4 0 0 0 9.59-12.08c1.42-1.96-.78-3.14-1.93-4.21-5.17-3.9-10.2-7.98-15.35-11.89-6.47 9-7.75 20.5-12.68 30.31M158.94 514c-3.72 3.38-5.99 8.19-7.39 12.97a180.6 180.6 0 0 0-4.45 25.41c3.83.21 7.59 1.15 11.44 1.15l-.46.44c4.62.03 9.19.79 13.78 1.28 21.62 2.29 43.34 3.56 65.05 4.5 22.3.85 44.65 1.84 66.98.94 16.35.68 32.74.13 49.1.31 11.01.25 21.99-.6 32.99-.71 34.76-1.23 69.55-3.28 104.04-8.04a207.4 207.4 0 0 0-4.25-24.1c-1.26-5.04-3.52-10.03-7.14-13.79-5.39-3.06-11.77-4-17.89-3.88-5.97-.15-11.85 1.03-17.78 1.55a857.97 857.97 0 0 1-77.99 5.5c-37.33.16-74.69.65-112-.53a916.16 916.16 0 0 1-60.34-5.33c-4.52-.75-9.08-1.33-13.66-1.17-6.77-.18-14 .06-20.03 3.5Z"/><path fill="#fff" stroke="#fff" stroke-width=".09" d="M291.61 81.47c9.95 11.03 19.38 22.63 30.96 32.04-2.02-.02-4.08-.22-5.92-1.1-8.84-3.85-15.75-10.8-23.8-15.93-3.96 7.17-4.28 15.76-8.49 22.86-7.56 13.38-21.86 20.66-35.32 26.81-2.23.73-3.31 2.83-3.91 4.95-4.58 14.52-10.47 28.92-19.95 41-6.06 8.28-14.22 14.68-22.48 20.62-14.04 9.7-29.22 17.73-42.6 28.37-19.07 15.63-32.81 36.36-46.54 56.55a14.36 14.36 0 0 1 .62-14.38c8.44-14.18 17.03-28.58 28.95-40.16 12.27-12.83 27.91-21.58 42.5-31.41 13.98-9.29 28.29-18.95 38.29-32.71 8.79-11.94 14.16-26.01 17.79-40.28a49.33 49.33 0 0 0 26.9-15.1c4.29-5.24 8.16-10.92 10.94-17.12 2.5-8.96 6.43-17.57 12.06-25.01ZM233.02 119.57c4.93-9.81 6.21-21.31 12.68-30.31 5.15 3.91 10.18 7.99 15.35 11.89 1.15 1.07 3.35 2.25 1.93 4.21-5.01-1.62-9.59-4.37-14.72-5.63a544.28 544.28 0 0 0-8.57 19.3l3.56 3.44-3.35.82a48.02 48.02 0 0 0-6.88-3.72Z"/><path fill="#e8e8e8" stroke="#e8e8e8" stroke-width=".09" d="M284.36 119.34c4.21-7.1 4.53-15.69 8.49-22.86 8.05 5.13 14.96 12.08 23.8 15.93 1.84.88 3.9 1.08 5.92 1.1l1.19.91c19.55 1.69 39.27 3.09 58.32 8.11 14.79 3.78 29.07 10 41.36 19.14 17.58 13.02 30.36 31.37 40.2 50.68 10.32 20.26 18.18 41.7 24.42 63.54 4.03 14.73 7.9 29.6 10.05 44.74-5.44 16.85-11.67 33.44-17.29 50.23a204.4 204.4 0 0 1-27.87 54c-8.51 12.7-18.31 24.46-27.05 36.98-4.58 6.67-8.87 13.62-11.84 21.18-4.77 11.77-6.39 24.48-7.69 37.02-39.02 3.07-78.2 2.38-117.32 2.47-23.35-.78-46.73-.76-70-3.14-5.19-.46-10.36-1.08-15.57-1.39-.23-11.56-1.13-23.23.96-34.67 1.8-11.1 6.69-21.5 13.35-30.5 13.74-18.72 31.61-34 45.04-52.96 5.48-7.68 9.7-16.19 13.2-24.94.86-2.09 1.16-4.33 1.47-6.55 6.99-10.56 12.2-22.38 14.72-34.83l.25-.12c4.94-2.09 9.08-5.56 13.39-8.65 11.15-8.42 21.64-18.59 27.28-31.6 3.4-7.57 3.47-16.78-.84-24-1.71-3.65-3.16-7.56-6.19-10.37a37.1 37.1 0 0 1-1.91 1.62c-8.05 3.21-15.67 7.78-21.54 14.23-6.37 7.02-12.86 14.35-21.66 18.35-7.95 4.54-17.15 5.55-25.91 7.63-9.49 1.96-18.98 3.9-28.61 5.07a33.47 33.47 0 0 0-16.26 6.52c-9.36 6.84-17.75 14.87-26.35 22.62-2.77 2.61-5.71 5.06-8.22 7.94-.31-6.13-1.71-12.66-6.52-16.9-6.9-5.82-16.68-7.27-25.37-5.75-7.64 1.07-14.7 4.58-20.93 9.01a61.03 61.03 0 0 1-9.27-11.49c13.73-20.19 27.47-40.92 46.54-56.55 13.38-10.64 28.56-18.67 42.6-28.37 8.26-5.94 16.42-12.34 22.48-20.62 9.48-12.08 15.37-26.48 19.95-41 .6-2.12 1.68-4.22 3.91-4.95 13.46-6.15 27.76-13.43 35.32-26.81m-27.39 42.45c-3.86 3.62-8.22 7.58-9.01 13.1-.88 6.28 4.65 12.56 11.03 12.17 4.98-.32 9.82-1.83 14.41-3.75 2.56-1.25 5.52-2.27 7.09-4.83 2.91-3.43 2.76-8.76.5-12.48-3.59-5.1-7.64-9.87-11.17-15.02a884.4 884.4 0 0 0-12.85 10.81m-120.24 113.8c-2.42 3.52-1.09 7.97.45 11.55 6.19.33 11.36-3.64 16.25-6.86 6.13-4.66.67-15.6-6.59-14.18-4.57 1.45-7.58 5.65-10.11 9.49ZM248.26 99.73c5.13 1.26 9.71 4.01 14.72 5.63a29.4 29.4 0 0 1-9.59 12.08c-3.16 2.09-6.7 3.5-10.14 5.03l-3.56-3.44c2.71-6.5 5.61-12.91 8.57-19.3Z"/><path fill="#222" stroke="#222" stroke-width=".09" d="M256.97 161.79a884.4 884.4 0 0 1 12.85-10.81c3.53 5.15 7.58 9.92 11.17 15.02 2.26 3.72 2.41 9.05-.5 12.48-1.57 2.56-4.53 3.58-7.09 4.83-4.59 1.92-9.43 3.43-14.41 3.75-6.38.39-11.91-5.89-11.03-12.17.79-5.52 5.15-9.48 9.01-13.1Z"/><path fill="#afafaf" stroke="#afafaf" stroke-width=".09" d="M302.66 254.64c5.87-6.45 13.49-11.02 21.54-14.23-5.56 7.19-9.56 15.43-15.19 22.57a272.39 272.39 0 0 1-18.16 18.76c-4.67 3.85-10.42 6.11-16.13 7.95-14.61 4.32-29.71 6.5-44.66 9.25-2.71.41-5.49.73-7.94 2.05-6.15 3.08-12.56 5.81-17.99 10.13-7.29 5.35-11.98 13.33-18.81 19.17-3.14 2.7-7.5 2.79-11.42 2.76.84-3.38.67-6.99 1.75-10.28 2.51-2.88 5.45-5.33 8.22-7.94 8.6-7.75 16.99-15.78 26.35-22.62a33.47 33.47 0 0 1 16.26-6.52c9.63-1.17 19.12-3.11 28.61-5.07 8.76-2.08 17.96-3.09 25.91-7.63 8.8-4 15.29-11.33 21.66-18.35ZM332.3 249.16c4.31 7.22 4.24 16.43.84 24-5.64 13.01-16.13 23.18-27.28 31.6-4.31 3.09-8.45 6.56-13.39 8.65.55-5.04 1.28-10.08 2.21-15.06 1.53-2.3 3.79-3.97 5.85-5.77 9.07-8.61 18.45-17.12 25.39-27.64 2.68-5.04 6.17-9.84 6.38-15.78Z"/><path fill="#222" stroke="#222" stroke-width=".09" d="M136.73 275.59c2.53-3.84 5.54-8.04 10.11-9.49 7.26-1.42 12.72 9.52 6.59 14.18-4.89 3.22-10.06 7.19-16.25 6.86-1.54-3.58-2.87-8.03-.45-11.55Z"/><path fill="#afafaf" stroke="#afafaf" stroke-width=".09" d="M498.11 300.63c3.06 15.31 4.54 30.93 5.14 46.51.78 6.62-.22 13.23-.34 19.85-1.4 19.74-6.15 39.57-16.11 56.82-6.93 12.87-16.15 24.33-25.57 35.44-5.41 6.85-11.26 13.95-13.11 22.7-1.22 4.54-1.24 9.27-1.1 13.93-13.45 2.14-27.08 3.03-40.65 4.16 1.3-12.54 2.92-25.25 7.69-37.02 2.97-7.56 7.26-14.51 11.84-21.18 8.74-12.52 18.54-24.28 27.05-36.98a204.4 204.4 0 0 0 27.87-54c5.62-16.79 11.85-33.38 17.29-50.23Z"/><path fill="#fff" stroke="#fff" stroke-width=".09" d="M277.5 348.36c-.31 2.22-.61 4.46-1.47 6.55-3.5 8.75-7.72 17.26-13.2 24.94-13.43 18.96-31.3 34.24-45.04 52.96-6.66 9-11.55 19.4-13.35 30.5-2.09 11.44-1.19 23.11-.96 34.67-4.1-.5-8.19-1.08-12.3-1.43.71-14.75-.59-29.77 3.37-44.2 4.95-20.13 19.16-36.08 33.34-50.47 16.87-17.51 35.4-33.65 49.61-53.52ZM158.94 514c6.03-3.44 13.26-3.68 20.03-3.5 4.58-.16 9.14.42 13.66 1.17-5.73 3.16-12.5 4.08-17.8 8.06-7.53 5.37-10.66 14.7-12.93 23.26-1.13 3.47-.5 7.88-3.36 10.54-3.85 0-7.61-.94-11.44-1.15a180.6 180.6 0 0 1 4.45-25.41c1.4-4.78 3.67-9.59 7.39-12.97Z"/><path fill="#e8e8e8" stroke="#e8e8e8" stroke-width=".09" d="M442.96 512.03c5.93-.52 11.81-1.7 17.78-1.55 5.18 8.58 9.12 18.18 10.24 28.21-47.35 6.47-94.37 15.48-142.04 19.44-8.35.82-16.75 1.23-25.05 2.56-22.33.9-44.68-.09-66.98-.94-21.71-.94-43.43-2.21-65.05-4.5-4.59-.49-9.16-1.25-13.78-1.28l.46-.44c2.86-2.66 2.23-7.07 3.36-10.54 2.27-8.56 5.4-17.89 12.93-23.26 5.3-3.98 12.07-4.9 17.8-8.06a916.16 916.16 0 0 0 60.34 5.33c37.31 1.18 74.67.69 112 .53 26.06-.67 52.1-2.46 77.99-5.5Z"/><path fill="#afafaf" stroke="#afafaf" stroke-width=".09" d="M460.74 510.48c6.12-.12 12.5.82 17.89 3.88 3.62 3.76 5.88 8.75 7.14 13.79 1.93 7.94 3.27 16 4.25 24.1-34.49 4.76-69.28 6.81-104.04 8.04-11 .11-21.98.96-32.99.71-16.36-.18-32.75.37-49.1-.31 8.3-1.33 16.7-1.74 25.05-2.56 47.67-3.96 94.69-12.97 142.04-19.44-1.12-10.03-5.06-19.63-10.24-28.21Z"/></svg>