<svg xmlns="http://www.w3.org/2000/svg" viewBox="0 0 1280 1280"><path fill="#fdfef8" d="M474 1149.45c-57.36-2.56-96.97-5.4-139.5-10.04-22.35-2.44-64.06-7.83-69.89-9.03l-2.88-.6.68-9.14c1.74-23.29 8.41-65.65 12.32-78.14 2.83-9.06 3.67-10.88 10.1-21.88 8.42-14.4 21.84-22.79 43.17-26.99a317 317 0 0 1 18.25-3.12c5.65-.64 5.75-.7 5.76-3.83.06-14.14 2.3-54.9 3.53-64.4 2.98-22.93 8.13-40.16 17.92-59.95 15.13-30.61 23.98-41.16 98.92-117.98 39.2-40.18 47.3-49.28 57.96-65.16 6.7-9.98 16.6-29.73 19.6-39.06 2.74-8.58 7.46-30.06 6.76-30.77-.31-.3-7.23 1.03-15.38 2.98-13.87 3.31-20.99 4.74-63.32 12.7-20.07 3.78-25.75 5.6-38 12.23-8.76 4.73-11.1 6.73-30 25.73-11.27 11.32-22.7 22.03-25.4 23.78a55 55 0 0 1-23.02 8.24c-15.07 1.96-50.18.74-52.78-1.83-.39-.38.8-4.75 2.66-9.7 7.34-19.64 10.87-45.01 6.83-49.06-4.7-4.7-16.84-6.44-28.29-4.04-10.44 2.19-21.61 8.04-34.46 18.06-6.03 4.7-11.3 8.55-11.73 8.55s-7.68-6.86-16.12-15.25c-27.31-27.14-36.1-44.97-32.93-66.75 1.87-12.87 8.73-26.6 27.9-55.86 19.27-29.4 36.78-50 57.84-68.06 12.58-10.8 20.1-16.19 60.45-43.38 45.1-30.4 52.16-35.65 65.37-48.6 17.78-17.42 28.8-33.87 37.14-55.44 5.89-15.24 10.54-30.93 10.54-35.57 0-3.5-.37-3.88-9.41-9.78-10.47-6.82-10.16-6.06-6.74-16.31 1.38-4.13 3.86-12.1 7.66-24.5 6.41-20.97 8.92-28.35 11.62-34.2 1.58-3.42 2.87-6.54 2.87-6.92 0-2.48 20.32-31.79 24.76-35.71 1.6-1.42 2.51-1.6 4.03-.78 2.92 1.56 22.08 16.99 36.02 29 6.77 5.84 12.68 10.74 13.12 10.9.45.16 1.59-1.64 2.53-4 4.38-11.02 21.8-34.84 34.92-47.73 6.4-6.28 6.62-6.4 9.22-5 2.84 1.51 20.33 19.77 42.6 44.44a595 595 0 0 0 22.47 23.59l8.92 8.59 12.46 1.2c44.56 4.32 73.28 8.63 96.64 14.5 86.76 21.83 142.92 70 189.06 162.12 40.76 81.4 70.9 194.3 78.34 293.46 1.7 22.69.65 69.35-2 88.77-4.94 36.29-12.89 62.33-28.15 92.26-12.2 23.91-24.97 42.8-51.05 75.51-17.43 21.86-23.94 31.34-26.83 39.07-2.27 6.06-3.91 21.78-2.38 22.73.52.32 6.55 1.54 13.39 2.7 22.68 3.87 33.75 8.83 43.96 19.71 10.83 11.54 17.85 27.88 21.84 50.79 2.79 16.05 6.88 46.83 7.72 58.14l.68 9.14-2.88.58c-4 .8-28.73 4.2-47.89 6.6-55.37 6.93-124.54 11.69-189.5 13.04-64.8 1.35-263.6.98-298-.55"/><path fill="#e7e7e7" d="M474 1149.45c-57.36-2.56-96.97-5.4-139.5-10.04-22.35-2.44-64.06-7.83-69.89-9.03l-2.88-.6.68-9.14c1.74-23.29 8.41-65.65 12.32-78.14 2.83-9.06 3.67-10.88 10.1-21.88 8.42-14.4 21.84-22.79 43.17-26.99a317 317 0 0 1 18.25-3.12c5.65-.64 5.75-.7 5.76-3.83.06-14.14 2.3-54.9 3.53-64.4 2.98-22.93 8.13-40.16 17.92-59.95 15.13-30.61 23.98-41.16 98.92-117.98 39.2-40.18 47.3-49.28 57.96-65.16 6.7-9.98 16.6-29.73 19.6-39.06 2.74-8.58 7.46-30.06 6.76-30.77-.31-.3-7.23 1.03-15.38 2.98-13.87 3.31-20.99 4.74-63.32 12.7-20.07 3.78-25.75 5.6-38 12.23-8.76 4.73-11.1 6.73-30 25.73-11.27 11.32-22.7 22.03-25.4 23.78a55 55 0 0 1-23.02 8.24c-15.07 1.96-50.18.74-52.78-1.83-.39-.38.8-4.75 2.66-9.7 7.34-19.64 10.87-45.01 6.83-49.06-4.7-4.7-16.84-6.44-28.29-4.04-10.44 2.19-21.61 8.04-34.46 18.06-6.03 4.7-11.3 8.55-11.73 8.55s-7.68-6.86-16.12-15.25c-27.31-27.14-36.1-44.97-32.93-66.75 1.87-12.87 8.73-26.6 27.9-55.86 19.27-29.4 36.78-50 57.84-68.06 12.58-10.8 20.1-16.19 60.45-43.38 45.1-30.4 52.16-35.65 65.37-48.6 17.78-17.42 28.8-33.87 37.14-55.44 5.89-15.24 10.54-30.93 10.54-35.57 0-3.5-.37-3.88-9.41-9.78-10.47-6.82-10.16-6.06-6.74-16.31 1.38-4.13 3.86-12.1 7.66-24.5 6.41-20.97 8.92-28.35 11.62-34.2 1.58-3.42 2.87-6.54 2.87-6.92 0-2.48 20.32-31.79 24.76-35.71 1.6-1.42 2.51-1.6 4.03-.78 2.92 1.56 22.08 16.99 36.02 29 6.77 5.84 12.68 10.74 13.12 10.9.45.16 1.59-1.64 2.53-4 4.38-11.02 21.8-34.84 34.92-47.73 6.4-6.28 6.62-6.4 9.22-5 2.84 1.51 20.33 19.77 42.6 44.44a595 595 0 0 0 22.47 23.59l8.92 8.59 12.46 1.2c44.56 4.32 73.28 8.63 96.64 14.5 86.76 21.83 142.92 70 189.06 162.12 40.76 81.4 70.9 194.3 78.34 293.46 1.7 22.69.65 69.35-2 88.77-4.94 36.29-12.89 62.33-28.15 92.26-12.2 23.91-24.97 42.8-51.05 75.51-17.43 21.86-23.94 31.34-26.83 39.07-2.27 6.06-3.91 21.78-2.38 22.73.52.32 6.55 1.54 13.39 2.7 22.68 3.87 33.75 8.83 43.96 19.71 10.83 11.54 17.85 27.88 21.84 50.79 2.79 16.05 6.88 46.83 7.72 58.14l.68 9.14-2.88.58c-4 .8-28.73 4.2-47.89 6.6-55.37 6.93-124.54 11.69-189.5 13.04-64.8 1.35-263.6.98-298-.55m-151.41-54.22c6.25-31.87 17.71-51.18 35.42-59.67a196 196 0 0 1 18.36-7.18c9.42-3.14 10.7-3.81 8.68-4.56-4.07-1.5-24.96-2.46-38.55-1.76-17.18.88-24.59 2.97-30.14 8.53-5.2 5.2-11.48 18.08-14.23 29.2-2.82 11.39-7.33 38.65-6.94 41.98.3 2.63.63 2.77 8.81 3.88 4.68.63 10.27 1.08 12.44 1l3.94-.15zM407 971.61c0-27.06 1.12-40.18 4.59-53.93 7.93-31.39 18.78-47.9 65.53-99.68 42.7-47.3 52.45-60.1 65.29-85.63 5.76-11.47 14.79-34.1 14.4-36.12-.19-.93-3.43 2.67-7.97 8.84-11 14.96-20.63 25.46-65 70.91-45.55 46.68-53.23 54.93-63.35 68.1-28.67 37.3-37.47 68.53-37.49 133.01v15.61l8.25 1c4.54.54 9.94 1.05 12 1.13l3.75.15ZM264.3 544c15.48-20.35 24.4-30.8 37.15-43.51 18.44-18.4 26.46-24.35 73.73-54.78 30.62-19.71 42.96-28.5 55.14-39.27 16.42-14.52 30.38-33.56 41.72-56.92 5.97-12.3 9.24-20.45 18.93-47.25l2.26-6.23 16.53-8.54c36.62-18.92 52.25-32.73 62.23-54.98 1.68-3.75 4.9-12.93 7.15-20.42 4.55-15.12 5.38-17.11 7.15-17.08.66.01 5.94 3.44 11.71 7.62 23.28 16.83 38.22 25.36 44.44 25.36 2.35 0 .57-2.07-13.98-16.22a697 697 0 0 1-30.17-31.5c-7.42-8.4-14.12-15.28-14.9-15.28-3.12 0-15.18 22.62-21.93 41.14-4.75 13.03-9.71 22.1-18.47 33.72-13.67 18.14-30.13 29.4-52.74 36.08-4.3 1.28-7.25 2.69-7.25 3.48 0 .73-1.3 5.55-2.89 10.7-12.4 40.27-28.32 67.58-53.26 91.38-13.41 12.8-25.26 21.57-67.3 49.83-51.17 34.4-62.1 42.92-79.73 62.17-16.46 17.96-39.71 51.53-51 73.62-3.72 7.27-4.23 9.07-4.2 14.83 0 4.26.62 7.71 1.76 9.87l1.74 3.31 12.58-18.31A1021 1021 0 0 1 264.3 544m222-299.9c.46-.46-.75-1.83-2.73-3.05-1.96-1.22-3.57-2.4-3.57-2.65 0-.92 16.1-36.9 16.84-37.64.44-.44 6.31 1.49 13.06 4.28s13.01 4.93 13.92 4.76c3.68-.71 2.27-3.66-3.65-7.68-3.27-2.23-10.75-8.11-16.62-13.08s-11.32-9.04-12.1-9.04c-1.6 0-5.62 7.65-10.24 19.5-3.1 7.96-14.21 38.51-14.21 39.09 0 .16 2.81 1.9 6.25 3.88 6.15 3.52 10.6 4.08 13.04 1.64"/><path fill="#aeaeae" d="M474 1149.45c-57.36-2.56-96.97-5.4-139.5-10.04-22.35-2.44-64.06-7.83-69.89-9.03l-2.88-.6.68-9.14c1.74-23.29 8.41-65.65 12.32-78.14 2.83-9.06 3.67-10.88 10.1-21.88 8.42-14.4 21.84-22.79 43.17-26.99a317 317 0 0 1 18.25-3.12c5.65-.64 5.75-.7 5.76-3.83.06-14.14 2.3-54.9 3.53-64.4 2.98-22.93 8.13-40.16 17.92-59.95 15.13-30.61 23.98-41.16 98.92-117.98 39.2-40.18 47.3-49.28 57.96-65.16 6.7-9.98 16.6-29.73 19.6-39.06 2.74-8.58 7.46-30.06 6.76-30.77-.31-.3-7.23 1.03-15.38 2.98-13.87 3.31-20.99 4.74-63.32 12.7-20.07 3.78-25.75 5.6-38 12.23-8.76 4.73-11.1 6.73-30 25.73-11.27 11.32-22.7 22.03-25.4 23.78a55 55 0 0 1-23.02 8.24c-15.07 1.96-50.18.74-52.78-1.83-.39-.38.8-4.75 2.66-9.7 7.34-19.64 10.87-45.01 6.83-49.06-4.7-4.7-16.84-6.44-28.29-4.04-10.44 2.19-21.61 8.04-34.46 18.06-6.03 4.7-11.3 8.55-11.73 8.55s-7.68-6.86-16.12-15.25c-27.31-27.14-36.1-44.97-32.93-66.75 1.87-12.87 8.73-26.6 27.9-55.86 19.27-29.4 36.78-50 57.84-68.06 12.58-10.8 20.1-16.19 60.45-43.38 45.1-30.4 52.16-35.65 65.37-48.6 17.78-17.42 28.8-33.87 37.14-55.44 5.89-15.24 10.54-30.93 10.54-35.57 0-3.5-.37-3.88-9.41-9.78-10.47-6.82-10.16-6.06-6.74-16.31 1.38-4.13 3.86-12.1 7.66-24.5 6.41-20.97 8.92-28.35 11.62-34.2 1.58-3.42 2.87-6.54 2.87-6.92 0-2.48 20.32-31.79 24.76-35.71 1.6-1.42 2.51-1.6 4.03-.78 2.92 1.56 22.08 16.99 36.02 29 6.77 5.84 12.68 10.74 13.12 10.9.45.16 1.59-1.64 2.53-4 4.38-11.02 21.8-34.84 34.92-47.73 6.4-6.28 6.62-6.4 9.22-5 2.84 1.51 20.33 19.77 42.6 44.44a595 595 0 0 0 22.47 23.59l8.92 8.59 12.46 1.2c44.56 4.32 73.28 8.63 96.64 14.5 86.76 21.83 142.92 70 189.06 162.12 40.76 81.4 70.9 194.3 78.34 293.46 1.7 22.69.65 69.35-2 88.77-4.94 36.29-12.89 62.33-28.15 92.26-12.2 23.91-24.97 42.8-51.05 75.51-17.43 21.86-23.94 31.34-26.83 39.07-2.27 6.06-3.91 21.78-2.38 22.73.52.32 6.55 1.54 13.39 2.7 22.68 3.87 33.75 8.83 43.96 19.71 10.83 11.54 17.85 27.88 21.84 50.79 2.79 16.05 6.88 46.83 7.72 58.14l.68 9.14-2.88.58c-4 .8-28.73 4.2-47.89 6.6-55.37 6.93-124.54 11.69-189.5 13.04-64.8 1.35-263.6.98-298-.55m144.14-29.99c61.37-4.87 104.97-9.82 167.86-19.05 49.5-7.26 148.73-22.26 152.38-23.02 2.82-.6 2.87-.7 2.33-5.89-.8-7.7-7.9-28.1-13.79-39.55l-5.1-9.95h-6.28c-3.45 0-18.82 1.33-34.16 2.95-59.94 6.34-91.24 8.45-150.24 10.16-45.18 1.3-201.04.58-231.64-1.07-31.26-1.7-94.56-7.45-111.5-10.14a195 195 0 0 0-42.5-1.9c-23.28 1.58-28.88 4.48-36.34 18.8-5.07 9.76-7.45 18.24-11.19 39.98-3.28 19.09-3.57 23.07-1.72 23.73 2.1.75 53.85 6.29 78.77 8.42a2350 2350 0 0 0 98.98 6.08c14.03.57 27.98 1.17 31 1.33 3.03.16 25.37.37 49.64.48 32.15.13 49.41-.24 63.5-1.36m131.36-116.45c29.27-1.06 59.5-2.69 66.21-3.57l4.21-.55-.2-16.7c-.17-13.4.14-17.97 1.58-23.19 2.68-9.77 7.85-19.41 16.64-31.04 7.52-9.95 14.13-17.28 48.44-53.68 24-25.46 35.29-39.9 46.59-59.6 19.57-34.12 27.57-66.38 32.02-129.18 3.64-51.3-2.83-123.08-17.53-194.6-10.05-48.9-21.91-86.58-36.95-117.4-4.03-8.25-10-20.68-13.3-27.62-7.21-15.24-14.54-26.59-24.6-38.1-31.56-36.1-85.94-63.2-145.88-72.74-16.63-2.64-31.24-3.91-57.01-4.96-16.75-.68-22.32-1.24-24.12-2.42-4.91-3.22-31.53-29.88-46.34-46.41-8.5-9.49-15.9-16.97-16.46-16.63-3.82 2.36-15.05 24.2-21.32 41.44-12.74 35.05-37.26 59.64-68.81 68.99l-8.92 2.64-3.45 11.4c-7.94 26.21-18.74 49.48-31.07 66.91-8.86 12.52-28.8 32.39-43.73 43.58-6.6 4.95-26.85 18.94-45 31.1s-37.6 25.43-43.2 29.5c-29.05 21.01-51.33 46.03-75.74 85.03-13.98 22.35-16.95 28.76-16.97 36.69-.02 5 .54 7.69 2.32 11.1 2.98 5.72 8.3 13.07 14.24 19.65l4.66 5.16 5.2-3.5c7.57-5.1 18.33-9.97 27.49-12.43 9.91-2.67 31.1-3.2 39-.97 13.02 3.67 24.16 11.94 28.7 21.31 2.69 5.53 4.8 13.82 4.8 18.83 0 1.62.26 2.95.59 2.95s7.86-6.7 16.75-14.9c38.4-35.39 58.64-50.93 71.16-54.66 2.75-.82 13.1-2.85 23-4.51 9.9-1.67 26.1-4.62 36-6.56 60.76-11.94 68.52-15.62 101.14-48.07 16.82-16.74 25.82-23.57 41.03-31.17 4.5-2.24 8.46-4.54 8.81-5.1 2.65-4.3 8.54 3.19 15.96 20.27 4.06 9.33 4.77 12 5.27 19.68 1.22 18.87-5.4 35.34-22.78 56.6-11.84 14.5-34.6 33.94-56.07 47.88-7.46 4.85-7.67 5.1-8.86 10.5-4 18.13-13.98 41-25.77 59.04-13.45 20.57-23.96 32.6-64.26 73.5-36.93 37.5-56.6 58.18-65.8 69.23-21.61 25.93-33.42 48.86-39.11 75.95-3.14 14.98-4.06 25.43-4.74 54.42l-.63 26.6 10.4 1.16c36.93 4.13 88.02 7.73 128.41 9.05 35.5 1.15 196.81 1.22 228 .1M273.68 572.87c-2.37-3.7-3.9-10.83-3.19-14.78 1.39-7.57 11.32-20.42 18.7-24.18a22 22 0 0 1 8.4-1.91c4.17 0 5.14.46 8.94 4.27 8.3 8.3 8.2 16.98-.28 24.88-5.7 5.3-20.64 12.91-26.7 13.6-3.77.42-4.55.17-5.87-1.88m237.2-199.43c-9.6-2.96-16.9-14.18-15.46-23.76.99-6.58 6.13-14.5 15.07-23.2 9.76-9.5 27.15-23.98 28.8-23.98 1.26 0 12.65 14.48 20.66 26.25 5.9 8.68 6.97 13.58 4.7 21.4-2.88 9.88-12.22 16.2-32.2 21.82-11.96 3.36-14.8 3.55-21.57 1.47m-15.12-133.47c12.92-6.37 21.43-14 26.61-23.86 2-3.8 3.63-7.63 3.63-8.52s-1.81-2.84-4.03-4.35c-4.8-3.27-14.3-10.75-22.87-17.99-3.41-2.89-6.89-5.25-7.72-5.25-1.9 0-8.65 14.31-14.16 30a1477 1477 0 0 1-7.14 19.84c-1.7 4.58-2.83 8.75-2.51 9.27.31.51 3.13 2.27 6.25 3.9 7.1 3.71 8.68 3.5 21.94-3.04"/><path fill="#353838" d="M474 1149.45c-57.36-2.56-96.97-5.4-139.5-10.04-22.35-2.44-64.06-7.83-69.89-9.03l-2.88-.6.68-9.14c1.74-23.29 8.41-65.65 12.32-78.14 2.83-9.06 3.67-10.88 10.1-21.88 8.42-14.4 21.84-22.79 43.17-26.99a317 317 0 0 1 18.25-3.12c5.65-.64 5.75-.7 5.76-3.83.06-14.14 2.3-54.9 3.53-64.4 2.98-22.93 8.13-40.16 17.92-59.95 15.13-30.61 23.98-41.16 98.92-117.98 39.2-40.18 47.3-49.28 57.96-65.16 6.7-9.98 16.6-29.73 19.6-39.06 2.74-8.58 7.46-30.06 6.76-30.77-.31-.3-7.23 1.03-15.38 2.98-13.87 3.31-20.99 4.74-63.32 12.7-20.07 3.78-25.75 5.6-38 12.23-8.76 4.73-11.1 6.73-30 25.73-11.27 11.32-22.7 22.03-25.4 23.78a55 55 0 0 1-23.02 8.24c-15.07 1.96-50.18.74-52.78-1.83-.39-.38.8-4.75 2.66-9.7 7.34-19.64 10.87-45.01 6.83-49.06-4.7-4.7-16.84-6.44-28.29-4.04-10.44 2.19-21.61 8.04-34.46 18.06-6.03 4.7-11.3 8.55-11.73 8.55s-7.68-6.86-16.12-15.25c-27.31-27.14-36.1-44.97-32.93-66.75 1.87-12.87 8.73-26.6 27.9-55.86 19.27-29.4 36.78-50 57.84-68.06 12.58-10.8 20.1-16.19 60.45-43.38 45.1-30.4 52.16-35.65 65.37-48.6 17.78-17.42 28.8-33.87 37.14-55.44 5.89-15.24 10.54-30.93 10.54-35.57 0-3.5-.37-3.88-9.41-9.78-10.47-6.82-10.16-6.06-6.74-16.31 1.38-4.13 3.86-12.1 7.66-24.5 6.41-20.97 8.92-28.35 11.62-34.2 1.58-3.42 2.87-6.54 2.87-6.92 0-2.48 20.32-31.79 24.76-35.71 1.6-1.42 2.51-1.6 4.03-.78 2.92 1.56 22.08 16.99 36.02 29 6.77 5.84 12.68 10.74 13.12 10.9.45.16 1.59-1.64 2.53-4 4.38-11.02 21.8-34.84 34.92-47.73 6.4-6.28 6.62-6.4 9.22-5 2.84 1.51 20.33 19.77 42.6 44.44a595 595 0 0 0 22.47 23.59l8.92 8.59 12.46 1.2c44.56 4.32 73.28 8.63 96.64 14.5 86.76 21.83 142.92 70 189.06 162.12 40.76 81.4 70.9 194.3 78.34 293.46 1.7 22.69.65 69.35-2 88.77-4.94 36.29-12.89 62.33-28.15 92.26-12.2 23.91-24.97 42.8-51.05 75.51-17.43 21.86-23.94 31.34-26.83 39.07-2.27 6.06-3.91 21.78-2.38 22.73.52.32 6.55 1.54 13.39 2.7 22.68 3.87 33.75 8.83 43.96 19.71 10.83 11.54 17.85 27.88 21.84 50.79 2.79 16.05 6.88 46.83 7.72 58.14l.68 9.14-2.88.58c-4 .8-28.73 4.2-47.89 6.6-55.37 6.93-124.54 11.69-189.5 13.04-64.8 1.35-263.6.98-298-.55m318.5-29.94c71.54-3.11 112.78-6.19 161.5-12.05 27.88-3.35 25.36-2.4 24.53-9.26-3.83-31.58-11.02-56.55-19-66-9.23-10.91-29.77-12.77-81.03-7.33-84.82 9-111.86 10.12-244 10.1-96.56-.02-133.4-.7-162-3-26.74-2.14-58.51-5.17-74-7.05-32.88-3.99-37.98-4.28-53.62-3.07-18.15 1.4-23.9 3.28-29.9 9.78-5.14 5.59-10.07 16.06-12.87 27.37-2.2 8.87-6.7 34.6-7.28 41.5l-.33 3.98 9.14 1.22c43.09 5.73 104.43 10.66 171.36 13.76 42.08 1.95 273.01 1.98 317.5.05m-38-116.55c35.42-1.29 55.67-2.53 81.5-5 21.26-2.02 56.28-6 56.8-6.45.15-.14.71-5.53 1.24-11.98.52-6.45 1.67-14.49 2.54-17.87 3.27-12.65 12.6-27.1 37.69-58.28 21.74-27.04 32.86-43.63 43.69-65.21 18.71-37.3 26.63-72.2 27.73-122.17 2-90.4-23.22-208.55-64.43-302-20.07-45.5-42.06-80.28-67.26-106.38-28.78-29.8-64.06-50.65-108.45-64.1-26.27-7.94-52.55-11.8-92.86-13.6l-25.19-1.13-4.49-3.65c-8.94-7.26-25.64-24.03-42.23-42.39-9.31-10.31-17.24-18.75-17.62-18.75-1.18 0-10.88 16.09-14.7 24.38-2 4.33-5.16 12.1-7.03 17.24-4.02 11.12-7.29 17.75-12.72 25.88-7.6 11.36-14.96 19.69-23.02 26.07-10.19 8.05-19.47 12.96-32.13 16.97l-9.94 3.15-3.74 12.4c-12.53 41.57-30.93 72-57.95 95.85-12.52 11.05-26.71 21.32-64.44 46.6-18.7 12.53-38.04 25.79-42.99 29.46-30.18 22.43-52.32 48.48-79.29 93.28-11.32 18.82-13.12 25.68-9.32 35.68 2.03 5.32 8.3 14.43 15.45 22.44l4.37 4.9 4.64-3.2c7.17-4.93 20.33-10.87 29.15-13.15 9.66-2.5 28.18-3.02 36.5-1.03 14.06 3.36 25.78 12 30.6 22.52 2.24 4.88 4.75 19.1 3.89 21.97-.19.6-.63 5.54-.98 10.98l-.65 9.89 5.32-.7c12.28-1.58 11.86-1.28 33.32-23.03 20.34-20.61 25.4-24.72 40.5-32.86 15.46-8.34 21.38-10.33 40.5-13.67 78.73-13.74 98.2-19.97 117.64-37.64 18.16-16.53 30.03-30.48 45.83-53.88 8.16-12.1 16.01-23.1 17.44-24.42l2.59-2.43 2.38 2.24c1.31 1.23 3.9 5.22 5.75 8.87 2.74 5.4 3.37 7.78 3.37 12.78 0 5.32-.64 7.43-4.7 15.63-9.14 18.4-17.79 29.05-47.38 58.33l-22.23 22-1.68 12c-4.43 31.74-14.65 59.4-31.22 84.5-14.2 21.51-22.84 31.19-77.28 86.52-43.51 44.23-56.2 58.54-68.4 77.15-20.77 31.71-27.57 60.43-27.6 116.5l-.01 18.65 3.75.58c11.48 1.78 73.2 6.99 103.25 8.72 41.27 2.37 207.97 2.9 264.5.84M275.29 574.24c-2.12-1.41-4.29-8-4.29-13.01 0-6.59 3.94-14.17 11.06-21.3 6.2-6.2 11.17-8.48 16.56-7.6 10.51 1.7 16.86 15.3 11.32 24.26-2.85 4.63-8 8.42-17.94 13.23-8.82 4.27-14.63 5.8-16.71 4.42M508.5 372.1c-11.08-5.13-15.66-18.4-10.28-29.83 2.83-6.04 13.22-16.96 27.24-28.64a916 916 0 0 1 12.68-10.45c1.43-1.08 2.94.48 11.83 12.33 13.83 18.42 15 20.62 15 27.99-.03 14.3-9.16 22.11-32.84 28.12-11.22 2.85-18.22 2.99-23.63.48m-11.63-132.24c7.83-3.89 11.98-6.71 16.57-11.28 6.54-6.5 12.9-17.2 12.38-20.81-.2-1.34-2.48-3.71-5.82-6.04a289 289 0 0 1-15.77-12.53c-6.15-5.2-11.17-8.7-12.49-8.7-1.74 0-2.93 1.47-5.59 6.91-3.27 6.7-19.14 49.05-19.15 51.1 0 .56 2.81 2.5 6.25 4.29 7.89 4.13 9.91 3.87 23.62-2.94"/><path fill="#323535" d="M474 1149.45c-57.36-2.56-96.97-5.4-139.5-10.04-22.35-2.44-64.06-7.83-69.89-9.03l-2.88-.6.68-9.14c1.74-23.29 8.41-65.65 12.32-78.14 2.83-9.06 3.67-10.88 10.1-21.88 8.42-14.4 21.84-22.79 43.17-26.99a317 317 0 0 1 18.25-3.12c5.65-.64 5.75-.7 5.76-3.83.06-14.14 2.3-54.9 3.53-64.4 2.98-22.93 8.13-40.16 17.92-59.95 15.13-30.61 23.98-41.16 98.92-117.98 39.2-40.18 47.3-49.28 57.96-65.16 6.7-9.98 16.6-29.73 19.6-39.06 2.74-8.58 7.46-30.06 6.76-30.77-.31-.3-7.23 1.03-15.38 2.98-13.87 3.31-20.99 4.74-63.32 12.7-20.07 3.78-25.75 5.6-38 12.23-8.76 4.73-11.1 6.73-30 25.73-11.27 11.32-22.7 22.03-25.4 23.78a55 55 0 0 1-23.02 8.24c-15.07 1.96-50.18.74-52.78-1.83-.39-.38.8-4.75 2.66-9.7 7.34-19.64 10.87-45.01 6.83-49.06-4.7-4.7-16.84-6.44-28.29-4.04-10.44 2.19-21.61 8.04-34.46 18.06-6.03 4.7-11.3 8.55-11.73 8.55s-7.68-6.86-16.12-15.25c-27.31-27.14-36.1-44.97-32.93-66.75 1.87-12.87 8.73-26.6 27.9-55.86 19.27-29.4 36.78-50 57.84-68.06 12.58-10.8 20.1-16.19 60.45-43.38 45.1-30.4 52.16-35.65 65.37-48.6 17.78-17.42 28.8-33.87 37.14-55.44 5.89-15.24 10.54-30.93 10.54-35.57 0-3.5-.37-3.88-9.41-9.78-10.47-6.82-10.16-6.06-6.74-16.31 1.38-4.13 3.86-12.1 7.66-24.5 6.41-20.97 8.92-28.35 11.62-34.2 1.58-3.42 2.87-6.54 2.87-6.92 0-2.48 20.32-31.79 24.76-35.71 1.6-1.42 2.51-1.6 4.03-.78 2.92 1.56 22.08 16.99 36.02 29 6.77 5.84 12.68 10.74 13.12 10.9.45.16 1.59-1.64 2.53-4 4.38-11.02 21.8-34.84 34.92-47.73 6.4-6.28 6.62-6.4 9.22-5 2.84 1.51 20.33 19.77 42.6 44.44a595 595 0 0 0 22.47 23.59l8.92 8.59 12.46 1.2c44.56 4.32 73.28 8.63 96.64 14.5 86.76 21.83 142.92 70 189.06 162.12 40.76 81.4 70.9 194.3 78.34 293.46 1.7 22.69.65 69.35-2 88.77-4.94 36.29-12.89 62.33-28.15 92.26-12.2 23.91-24.97 42.8-51.05 75.51-17.43 21.86-23.94 31.34-26.83 39.07-2.27 6.06-3.91 21.78-2.38 22.73.52.32 6.55 1.54 13.39 2.7 22.68 3.87 33.75 8.83 43.96 19.71 10.83 11.54 17.85 27.88 21.84 50.79 2.79 16.05 6.88 46.83 7.72 58.14l.68 9.14-2.88.58c-4 .8-28.73 4.2-47.89 6.6-55.37 6.93-124.54 11.69-189.5 13.04-64.8 1.35-263.6.98-298-.55m319.5-29.95c72.32-3.08 127.75-7.5 179.5-14.32l5.5-.72-.22-5.48c-.6-14.7-7.6-46.58-12.4-56.43-6.13-12.57-11.89-16.94-25.88-19.63-10.22-1.97-31.1-1.3-62 1.98-84.13 8.94-112.15 10.1-244 10.07-100.6-.01-130.53-.64-167-3.49-24.52-1.91-67.35-6.17-80.5-8-24.08-3.34-50.54-2.68-61.8 1.53-10.06 3.76-17.73 15.18-22.53 33.49-2.12 8.12-6.78 34.7-7.35 42l-.32 3.98 9.5 1.27c46.2 6.17 104.84 10.67 190 14.57 3.58.16 64.55.38 135.5.48 100.52.15 136.73-.14 164-1.3m-60-116c31.94-.53 57.09-1.72 86-4.05 21-1.69 72.66-7.27 73.3-7.92.23-.23.8-5.58 1.27-11.89.47-6.3 1.38-13.65 2-16.3 2.88-12.09 14.75-31.4 31.76-51.72 47.08-56.2 67.6-99.17 75.73-158.62.9-6.53 1.82-22.75 2.14-37.5 2.55-119.1-41.43-279.78-101.28-370-20.1-30.3-45.91-55.9-73.77-73.17-14.52-9-37.75-19.74-55.65-25.7-32.79-10.94-60.75-15.3-110.5-17.2l-17-.64-4.48-3.65c-9.03-7.34-24.73-23.1-41.72-41.89-9.58-10.59-17.73-19.24-18.11-19.24-1.33.03-10.14 14.57-14.53 23.99a247 247 0 0 0-7.5 18.18c-9.53 27.04-29.1 50.6-51.54 62.04-3.37 1.72-10.6 4.55-16.06 6.3l-9.94 3.17-3.74 12.4c-12.38 41.08-30.4 71.1-56.9 94.88-12.58 11.28-26.43 21.32-65.44 47.44-43.3 29-54.04 37.12-69.53 52.55-14.8 14.74-22.59 24.28-35.93 44.04-20.24 29.97-28.08 44.77-28.08 53.03 0 7.9 5.87 18.53 17.34 31.37l4.37 4.9 4.64-3.2c7.17-4.93 20.32-10.87 29.15-13.15 9.56-2.48 28.1-3 36.5-1.01 14.12 3.33 25.7 11.9 30.81 22.82 2.62 5.59 2.69 6.23 2.65 24.09l-.03 18.35 5.03-.65c11.93-1.54 11.66-1.35 33.04-22.97 22.07-22.32 27.7-26.62 47.73-36.48 13.18-6.5 13.42-6.56 47.77-12.68 45.76-8.15 67.85-13.8 83.57-21.4 8.2-3.97 12-6.64 20.5-14.37 19.36-17.62 29.4-29.58 47.09-56.15 6.96-10.45 13.82-20.1 15.25-21.42l2.59-2.43 2.38 2.24c1.31 1.23 3.9 5.2 5.74 8.84 2.71 5.35 3.35 7.77 3.36 12.77.02 5.37-.6 7.42-4.69 15.66-9 18.17-23.77 35.95-53.33 64.24l-16.08 15.4-1.8 12.35c-4.76 32.78-14.68 59.69-31.3 84.85-14.03 21.27-24.28 32.77-74.79 84-54.8 55.57-67.51 70.75-80.32 95.81-12.95 25.36-16.85 45.22-17.85 90.83l-.62 28.13 3.9.62c11.47 1.81 72.75 7 102.9 8.71 38.49 2.19 156.8 2.87 244 1.4M275.29 574.24c-2.12-1.41-4.29-8-4.29-13.01 0-6.56 3.76-13.8 10.97-21.12 6.28-6.38 11.18-8.67 16.65-7.78 7.41 1.2 13.38 8.68 13.38 16.76 0 7.87-5.47 13.52-20 20.68-8.77 4.31-14.6 5.87-16.71 4.47M509.5 372.6c-8.28-3.62-13.44-11.35-13.48-20.2-.04-10.87 8.32-21.43 33.45-42.24l9.96-8.25 1.8 2.3c8.19 10.41 19.44 25.76 21.38 29.15 5.19 9.06 2.26 21.76-6.49 28.2-11.77 8.67-37.9 14.85-46.62 11.04m-12.94-132.55c8.06-3.93 11.93-6.55 16.74-11.34 6.16-6.12 12.7-16.64 12.7-20.44 0-2.1-2.26-4.37-8.5-8.57-2.2-1.48-8.5-6.52-14-11.2-6.43-5.48-10.71-8.43-12-8.26-1.37.17-3.04 2.37-5.3 6.99-3.23 6.6-19.2 49.29-19.18 51.26 0 .55 2.6 2.45 5.75 4.23 7.46 4.2 10.39 3.88 23.8-2.67"/><path fill="#2f2e2d" d="M474 1149.45c-57.36-2.56-96.97-5.4-139.5-10.04-22.35-2.44-64.06-7.83-69.89-9.03l-2.88-.6.68-9.14c1.74-23.29 8.41-65.65 12.32-78.14 2.83-9.06 3.67-10.88 10.1-21.88 8.42-14.4 21.84-22.79 43.17-26.99a317 317 0 0 1 18.25-3.12c5.65-.64 5.75-.7 5.76-3.83.06-14.14 2.3-54.9 3.53-64.4 2.98-22.93 8.13-40.16 17.92-59.95 15.13-30.61 23.98-41.16 98.92-117.98 39.2-40.18 47.3-49.28 57.96-65.16 6.7-9.98 16.6-29.73 19.6-39.06 2.74-8.58 7.46-30.06 6.76-30.77-.31-.3-7.23 1.03-15.38 2.98-13.87 3.31-20.99 4.74-63.32 12.7-20.07 3.78-25.75 5.6-38 12.23-8.76 4.73-11.1 6.73-30 25.73-11.27 11.32-22.7 22.03-25.4 23.78a55 55 0 0 1-23.02 8.24c-15.07 1.96-50.18.74-52.78-1.83-.39-.38.8-4.75 2.66-9.7 7.34-19.64 10.87-45.01 6.83-49.06-4.7-4.7-16.84-6.44-28.29-4.04-10.44 2.19-21.61 8.04-34.46 18.06-6.03 4.7-11.3 8.55-11.73 8.55s-7.68-6.86-16.12-15.25c-27.31-27.14-36.1-44.97-32.93-66.75 1.87-12.87 8.73-26.6 27.9-55.86 19.27-29.4 36.78-50 57.84-68.06 12.58-10.8 20.1-16.19 60.45-43.38 45.1-30.4 52.16-35.65 65.37-48.6 17.78-17.42 28.8-33.87 37.14-55.44 5.89-15.24 10.54-30.93 10.54-35.57 0-3.5-.37-3.88-9.41-9.78-10.47-6.82-10.16-6.06-6.74-16.31 1.38-4.13 3.86-12.1 7.66-24.5 6.41-20.97 8.92-28.35 11.62-34.2 1.58-3.42 2.87-6.54 2.87-6.92 0-2.48 20.32-31.79 24.76-35.71 1.6-1.42 2.51-1.6 4.03-.78 2.92 1.56 22.08 16.99 36.02 29 6.77 5.84 12.68 10.74 13.12 10.9.45.16 1.59-1.64 2.53-4 4.38-11.02 21.8-34.84 34.92-47.73 6.4-6.28 6.62-6.4 9.22-5 2.84 1.51 20.33 19.77 42.6 44.44a595 595 0 0 0 22.47 23.59l8.92 8.59 12.46 1.2c44.56 4.32 73.28 8.63 96.64 14.5 86.76 21.83 142.92 70 189.06 162.12 40.76 81.4 70.9 194.3 78.34 293.46 1.7 22.69.65 69.35-2 88.77-4.94 36.29-12.89 62.33-28.15 92.26-12.2 23.91-24.97 42.8-51.05 75.51-17.43 21.86-23.94 31.34-26.83 39.07-2.27 6.06-3.91 21.78-2.38 22.73.52.32 6.55 1.54 13.39 2.7 22.68 3.87 33.75 8.83 43.96 19.71 10.83 11.54 17.85 27.88 21.84 50.79 2.79 16.05 6.88 46.83 7.72 58.14l.68 9.14-2.88.58c-4 .8-28.73 4.2-47.89 6.6-55.37 6.93-124.54 11.69-189.5 13.04-64.8 1.35-263.6.98-298-.55m319.5-29.95c72.32-3.08 127.75-7.5 179.5-14.32l5.5-.72-.22-5.48c-.6-14.7-7.6-46.58-12.4-56.43-6.13-12.57-11.89-16.94-25.88-19.63-10.22-1.97-31.1-1.3-62 1.98-84.13 8.94-112.15 10.1-244 10.07-100.6-.01-130.53-.64-167-3.49-24.52-1.91-67.35-6.17-80.5-8-24.08-3.34-50.54-2.68-61.8 1.53-10.06 3.76-17.73 15.18-22.53 33.49-2.12 8.12-6.78 34.7-7.35 42l-.32 3.98 9.5 1.27c46.2 6.17 104.84 10.67 190 14.57 3.58.16 64.55.38 135.5.48 100.52.15 136.73-.14 164-1.3m-60-116c31.94-.53 57.09-1.72 86-4.05 21-1.69 72.66-7.27 73.3-7.92.23-.23.8-5.58 1.27-11.89.47-6.3 1.38-13.65 2-16.3 2.88-12.09 14.75-31.4 31.76-51.72 47.08-56.2 67.6-99.17 75.73-158.62.9-6.53 1.82-22.75 2.14-37.5 2.55-119.1-41.43-279.78-101.28-370-20.1-30.3-45.91-55.9-73.77-73.17-14.52-9-37.75-19.74-55.65-25.7-32.79-10.94-60.75-15.3-110.5-17.2l-17-.64-4.48-3.65c-9.03-7.34-24.73-23.1-41.72-41.89-9.58-10.59-17.73-19.24-18.11-19.24-1.33.03-10.14 14.57-14.53 23.99a247 247 0 0 0-7.5 18.18c-9.53 27.04-29.1 50.6-51.54 62.04-3.37 1.72-10.6 4.55-16.06 6.3l-9.94 3.17-3.74 12.4c-12.38 41.08-30.4 71.1-56.9 94.88-12.58 11.28-26.43 21.32-65.44 47.44-43.3 29-54.04 37.12-69.53 52.55-14.8 14.74-22.59 24.28-35.93 44.04-20.24 29.97-28.08 44.77-28.08 53.03 0 7.9 5.87 18.53 17.34 31.37l4.37 4.9 4.64-3.2c7.17-4.93 20.32-10.87 29.15-13.15 9.56-2.48 28.1-3 36.5-1.01 14.12 3.33 25.7 11.9 30.81 22.82 2.62 5.59 2.69 6.23 2.65 24.09l-.03 18.35 5.03-.65c11.93-1.54 11.66-1.35 33.04-22.97 22.07-22.32 27.7-26.62 47.73-36.48 13.18-6.5 13.42-6.56 47.77-12.68 45.76-8.15 67.85-13.8 83.57-21.4 8.2-3.97 12-6.64 20.5-14.37 19.36-17.62 29.4-29.58 47.09-56.15 6.96-10.45 13.82-20.1 15.25-21.42l2.59-2.43 2.38 2.24c1.31 1.23 3.9 5.2 5.74 8.84 2.71 5.35 3.35 7.77 3.36 12.77.02 5.37-.6 7.42-4.69 15.66-9 18.17-23.77 35.95-53.33 64.24l-16.08 15.4-1.8 12.35c-4.76 32.78-14.68 59.69-31.3 84.85-14.03 21.27-24.28 32.77-74.79 84-54.8 55.57-67.51 70.75-80.32 95.81-12.95 25.36-16.85 45.22-17.85 90.83l-.62 28.13 3.9.62c11.47 1.81 72.75 7 102.9 8.71 38.49 2.19 156.8 2.87 244 1.4M275.29 574.24c-2.12-1.41-4.29-8-4.29-13.01 0-6.56 3.76-13.8 10.97-21.12 6.28-6.38 11.18-8.67 16.65-7.78 7.41 1.2 13.38 8.68 13.38 16.76 0 7.87-5.47 13.52-20 20.68-8.77 4.31-14.6 5.87-16.71 4.47m232.96-202.27c-11.26-5.77-15.24-18.01-9.7-29.89q2.5-5.41 11.23-14.08c9.63-9.56 27.95-25 29.64-24.99 1.15.02 17.3 21.16 22.48 29.44a21.7 21.7 0 0 1-5.78 29.07c-8.04 5.84-24.16 11.23-36.12 12.09-6.4.45-8.12.21-11.75-1.64m-11.69-131.9c8.06-3.94 11.93-6.56 16.74-11.35 6.16-6.12 12.7-16.64 12.7-20.44 0-2.1-2.26-4.37-8.5-8.57-2.2-1.48-8.5-6.52-14-11.2-6.43-5.48-10.71-8.43-12-8.26-1.37.17-3.04 2.37-5.3 6.99-3.23 6.6-19.2 49.29-19.18 51.26 0 .55 2.6 2.45 5.75 4.23 7.46 4.2 10.39 3.88 23.8-2.67"/><path fill="#222221" d="M508.25 371.97c-11.26-5.77-15.24-18.01-9.7-29.89q2.5-5.41 11.23-14.08c9.63-9.56 27.95-25 29.64-24.99 1.15.02 17.3 21.16 22.48 29.44a21.7 21.7 0 0 1-5.78 29.07c-8.04 5.84-24.16 11.23-36.12 12.09-6.4.45-8.12.21-11.75-1.64"/><path fill="#302f2e" d="M582 122.28c-9.88 5.8-16.43 16.27-23.82 24.88-8.07 9.8-14.19 21.03-20.3 31.98-16.57-12.36-30.96-28.17-48.66-39.25-5.32-1.47-9.6 5.13-11.66 9.26a111 111 0 0 0-12.84 18.2c-6.41 8.36-8.64 18.81-12.96 28.28-5.19 18.18-11.62 36.1-16.38 54.35 1.72 6.99 10.5 8.8 15.56 12.84 5.83 5.61-.08 14.6-1.02 21.04-7.7 26.02-19.78 51.22-39.37 70.4-23.71 25-54.26 41.82-82.21 61.47-29.94 19.4-59.22 40.8-81.32 69.18-15.47 18.89-28.97 39.26-41.16 60.39-11.74 17.89-16.05 41.46-6.57 61.3a105 105 0 0 0 11.13 17.49c10.9 11.33 21.5 23.5 33.7 33.24 10.96-6.83 20.37-16.12 31.76-22.17 13.64-5.05 30.46-8.27 43.54-.01-.02 15.29-1.3 30.65-7.3 44.9-.61 4.3-4.15 9.54-2.88 13.67 16.55 4.02 34.1 3.07 51 1.94 18.14-1.7 32.93-13.41 44.65-26.54 16.57-17.8 35-36.53 60.03-40.96 30.22-6.75 61-10.88 90.97-18.61-.2 8.9-3.4 18.99-5.53 28.1-6.84 20.12-17.7 38.88-30.67 55.54-18.86 22.85-40.97 43.05-61.25 64.71-28.63 30.46-60.46 59.02-81.32 95.7-13.54 25.3-22.07 53.38-23.02 82.16-1.42 17.94-1.5 36.16-3.08 53.98-17.6 2.62-36.55 3.4-51.33 14.61-14.5 8.71-20.73 25.47-26.39 40.52-5.53 27.65-10.74 55.73-10.89 83.98 2.37 3.74 8.96 1.77 12.6 3.48a1733 1733 0 0 0 156.33 15.34c44.04 2.13 88.1 3.47 132.2 3.19 104.74-.27 209.64 1.78 314.22-5.27 44.44-3.94 89.2-7.17 133.01-15.68 3.84-4.85.12-12.21.25-17.86-3.89-28.07-4.73-57.46-16.83-83.55-6.92-13.3-17.19-25.32-31.64-30.53-10.45-5.55-22.3-5.46-33.6-7.58-7.82.44-3.27-8.74-4.03-13.61 2.23-17.01 15.6-29.56 24.7-43.29 10.11-13.46 21.42-25.73 30.6-39.84 8.06-10.36 14.3-21.75 20.77-33.18 20.54-36.08 31.33-77.07 34.44-118.3.34-33.7.94-67.58-2.38-101.16-4.16-30-8.81-59.95-15.84-89.42-6.16-28.78-14.66-57.06-23.46-85.12-12.56-36.14-26.63-71.78-45.12-105.35-17.28-32.74-39.11-63.73-67.3-87.9-11-11.04-24.45-19.63-37.52-28.1-20.27-11.16-41.36-20.86-63.78-26.8-39.29-12.07-80.6-13.94-121-19.81-27.18-22.83-47.9-52.35-74.55-75.7a5 5 0 0 0-2.48-.53m1.1 41.74c10.94 8.44 19.06 20.4 28.9 30.18a397 397 0 0 0 35.26 34.03c52.77 1.75 107.2 5.53 155.43 29.08 36.89 15.94 68.57 42.66 92.5 74.72 18.88 25.49 33.92 53.55 46.7 82.5 10.37 24.31 20.03 49.02 27.9 74.3 13.84 47.1 26.15 94.94 31.26 143.9 7.27 51.34 9.08 104.3-3.9 154.9-9.5 39.12-29.98 74.78-54.88 106.1-15.05 20.48-33.72 38.82-43.77 62.57-5.18 11.23-2.75 23.74-5.1 35.5-49.09 7.07-98.7 9.76-148.21 11.86-83 1.65-166.05 1.7-249.01-.9-37.35-2.54-74.8-4.83-111.93-9.4-3.65-3.96-.25-13.36-1.17-19.42.88-27.3-.5-55.48 9.86-81.36 7.43-21.7 20.16-41.48 35.07-58.76 4.2-2.2 4.81-7.62 8.9-10.33 33.4-34.85 68.44-68.21 100.2-104.59 22.59-25.69 39.22-56.7 46.57-90.27 3.06-10.52 3.42-22.08 6.4-32.28 26.64-27.31 58.41-52.24 72.68-88.85 3.94-9.61-3.36-19.24-8.24-27.03-3.42-4.48-7.08 3.34-9.4 5.4-14.62 20.22-26.92 42.36-45.27 59.65-14.65 15.23-31.4 30.2-52.9 34.12-25.52 8.05-52.2 11.23-78.32 16.66-14.04 1.39-27.26 6.22-39.46 13.2-24.31 10.93-39.8 33.38-59.33 50.4-6 5.3-14.22 5.92-21.8 6.7 1.73-18 5.3-40.25-9.69-53.9-12.88-12-32.11-14.56-49.06-12.14-16 1.84-30.23 9.87-43.95 17.48-10.04-10.92-23.53-23.64-20.71-40.03 3.49-17.24 16.16-30.65 24.78-45.5 17.67-28.54 41.4-53.11 68.06-73.36 28.68-20 58.48-38.37 86.55-59.24 21.76-15.95 40.89-35.96 54.57-59.27 10.59-20.07 18.3-41.52 25-63.12 18.28-5.57 36.8-13.14 50.1-27.47 15.37-15.55 24.66-35.62 31.95-55.92 4.82-10.43 9.57-21.84 17.47-30.1m-91.25 15.45c10.78 6.54 19.52 16.14 30.04 22.9 3.77 2.66 6.05 7.19 2.62 11.16-7.84 17-25 27.43-42.41 32.28-5.4-.56-12.91-2.5-15.07-7.9 5.28-16.27 10.87-32.58 17.77-48.24 2.12-3.16 3.48-8.46 7.05-10.2M360.19 1020.5c32.33 2.28 64.31 8.4 96.75 9.71 56.66 5.46 113.67 3.47 170.51 4.3 83.39.36 167.05.48 249.93-9.94 23.03-1.71 46.92-6.66 69.6-.27 15.6 4.97 22.15 22.3 25.16 36.94 3.03 14.27 7.2 28.77 6.05 43.5-75.18 9.79-150.96 15.52-226.8 15.1-94.36.41-188.74 1.38-283.09-.25a2096 2096 0 0 1-163.42-13.34c-3.03-1.26-8.85.14-10.66-2.68 2.45-18.73 4.64-37.87 11.1-55.73 3.82-11.45 11.74-23 24.66-24.61 9.92-1.96 20.1-2.79 30.2-2.73"/><path fill="#242423" d="M533.6 306.86c-12.72 10.89-26.89 21.24-35.38 36.01-6.73 12.76 3.07 31.67 18.22 30.72 14.44-.76 29.47-4.47 41.22-13.2 9.1-7.85 9.66-22.79 1.73-31.69a387 387 0 0 0-19.95-26.55z"/><path fill="#30302f" d="M576.19 126.57c-16.28 14.48-26.93 33.82-38.93 51.62-17.06-12.84-31.8-29-50.49-39.66-8.04 5.34-11.47 14.24-17.58 21.38-9.22 12.35-14.38 26.74-19.54 41.02-4.4 16.6-11.05 32.88-13.53 49.83 2.33 9.42 19.31 9.02 16.5 20.78-5.73 28.23-18.85 55.18-37.2 77.33-45.1 47.2-108.04 72.29-153.53 119.14a413 413 0 0 0-63.04 89.85c-6.45 16.5-6.52 36.48 1.67 52.39 10.71 17 25.79 30.95 40.56 44.35 8.42 4.59 14.99-7.01 21.65-10.32 14.83-12.5 37.2-17.47 55.18-9.59 1.2 14.44.05 30.28-5.76 43.78-1.25 4.06-2.1 9.22-3.28 13.87 4.95 4.56 14.06 3.25 20.53 4.53 23.12 1.4 48.95-.68 65.99-18.36 22.24-20.8 43.77-47.97 76.18-51.42 27.66-6.32 56.31-9.85 83.53-17.06-1.34 28.05-15.05 54.35-31.17 76.9-31.87 39.79-70.32 73.65-104.55 111.32-26.3 27.96-50.68 60.25-59.4 98.15-8.6 30.27-6.19 62.24-9.6 93.27-22.03 2.04-46.25 6.02-61.27 24.04-11.21 13.58-16.75 30.95-19.42 48.12-3.82 22.04-7.72 44.52-7.5 66.85 6.17 5.24 16.23 3.06 23.73 5.6a1699 1699 0 0 0 204.14 15.62c58.93 2.3 117.98.84 176.97 1.16 90.74-.57 181.7-.58 272-10.67 24.54-2.54 49.65-4.82 73.35-11.29-3.11-34.06-4.05-69.65-18.46-101.29-11.56-22.97-36.56-36.25-61.75-37.14-11.54 1.94-6.52-10.54-5.8-17.55 8.79-26.17 30.17-45.4 45.53-67.71 37.85-48.93 63.3-109.13 63.64-171.6.96-44.78.4-89.85-8.4-133.94-5.47-32.2-12.4-64.37-21.94-95.57-6.03-21.51-12.42-43.38-20.88-64.2-14.92-39.84-33.02-79-56.6-114.65-18.2-26.42-41.1-49.67-66.47-69.16-5.58-1.9-9.17-7.95-15.16-9.9-27.77-15.85-57.55-28.1-88.99-34.37-31.83-7.33-64.86-7.8-96.7-14.76-16.3-9.5-27.5-25.78-40.94-38.75-12.06-12.6-23.44-25.98-36.88-37.17zm6.37 38.3c22.41 20.2 41 44.54 64.44 63.76 54.4 2.43 110.72 6.08 160.07 31.5 47.38 21.4 84.3 60.88 109.36 105.79 45.96 81.48 71.34 173.24 84.11 265.5 4.88 41.97 6.92 84.7 1.84 126.74-6.6 56.3-36.18 106.6-71.72 149.55-15.74 21.38-36.39 42.85-36.57 71.15-.97 4.89.8 13.68-7.08 12.77-56.17 8.5-113.04 11.24-169.81 11.11-71.78.22-143.61 2.19-215.36-.42-39.7-2.61-79.6-4.24-119-9.94 1.54-41.59-.99-86.15 21.28-123.28 19.9-35.73 51.45-62.87 78.9-92.6 34.6-37.23 75.82-72.06 93.11-121.45 6.52-18.53 10.8-37.78 13.5-57.22 25.03-27.13 55.71-51.04 71.26-85.38 5.69-11.46.83-26.52-9.07-33.72-18.25 19.4-30.1 44.35-49.49 63-16.04 17.85-35.58 33.6-59.58 38.7-32.04 9.2-65.68 11.69-97.54 21.38-18.99 7.6-36.57 18.48-50.34 33.77-13.77 11.7-25.47 30.15-45.43 30.52-.98-16.57 4.6-35.72-7.45-49.58-10.45-13.64-28.56-17.85-44.97-16.15-19.07-1.3-35.88 8.6-51.94 17.42-10.12-12.6-25.55-27.94-18-45.56 12.04-26.4 29.22-50.33 47.6-72.67 32.09-37.8 76.78-60.95 116.21-89.9 31.42-20.48 58.8-48.03 74.51-82.45 7.86-15.82 13.11-32.73 18.6-49.46 25.66-6.64 49.37-21.68 63.5-44.5 14.27-21.33 19.37-47.99 35.06-68.38m-90.78 16.17c12.03 7.69 24.44 16.3 33.95 26.82-5.63 19.48-25.09 33.15-44.48 36.7-6.25.75-16.58-4.53-11.91-11.98 6.46-16.99 10.87-35.37 20.88-50.66.42-.37.92-.96 1.56-.88M356.8 1021.98c43.46 1.12 86.37 9.5 129.86 10.68 87.6 3.6 175.32 2.87 262.96 1.41 54.64-.63 108.83-8.22 163.31-11.35 17.39-.06 40.75-2.51 50.22 15.93 9.54 19.57 13.72 41.84 14.3 63.47-4.06 5.15-13.12 3.03-18.98 4.86-77.25 8.29-154.91 13.37-232.64 12.62-90.39.04-180.8 1.03-271.16-1.3-53.42-3.17-107.19-6.42-160-14.34 3.5-23.2 4.99-48.33 17.9-68.65 9.8-14.59 28.91-12.96 44.23-13.33"/><path fill="#30302f" d="M974.66 1109.94v26.47q6.46-.85 12.88-1.94a282 282 0 0 0 16.17-3.18c1.4-.24 2.81-.43 4.22-.67q2.17-.38 4.33-.83 0-.33-.03-.65c.06 0 .18-.01.15-.11q-.1-1.02-.17-2.04c.43-1.72.35-3.51.15-5.25-.33-2.64-1-5.23-1.26-7.88-.09-.8-.02-1.63-.16-2.43q-.1-.75-.16-1.48z"/><path fill="#30302f" d="M974.66 1109.94v26.48a328 328 0 0 0 28.9-5.09c1.37-.26 2.77-.44 4.15-.67q2.25-.4 4.5-.86c.1-.01.04-.14.05-.19.01-.15-.04-.3-.01-.44.05-.05.17-.04.13-.15-.03-.68-.14-1.35-.15-2.03.06-.44.18-.88.22-1.32q.15-1.77-.04-3.53c-.3-2.63-.94-5.21-1.25-7.85-.13-1-.08-2.03-.23-3.04q-.1-.66-.14-1.31z"/><path fill="#30302f" d="M974.66 1109.94v26.44c.01.11.22 0 .3.01a336 336 0 0 0 28.34-4.98c1.66-.36 3.36-.54 5.02-.85q1.95-.34 3.9-.76c.12-.05.01-.24.04-.35.01-.12-.08-.3.1-.33.09-.07 0-.24.01-.35-.04-.61-.13-1.22-.11-1.83.08-.57.2-1.13.23-1.7.13-1.76-.08-3.52-.38-5.24-.33-2-.76-4-.98-6.02-.08-.99-.07-1.98-.22-2.95l-.12-1.1z"/><path fill="#30302f" d="M974.66 1109.94v26.5c.7-.07 1.4-.2 2.1-.29a330 330 0 0 0 24.89-4.37q2-.47 4.02-.78 3.1-.47 6.17-1.11c.14-.05.3-.05.42-.13.06-.19-.05-.4.03-.6.05-.03.12-.06.1-.14-.03-.74-.16-1.47-.1-2.2.12-.77.25-1.53.24-2.3q.03-2-.32-3.95c-.34-2.17-.82-4.33-1.05-6.51-.1-1.11-.11-2.23-.27-3.33l-.1-.78z"/></svg>