<svg xmlns="http://www.w3.org/2000/svg" viewBox="0 0 640 640"><path fill="#353534" stroke="#353534" stroke-width=".09" d="M0 0h.06A.17.17 0 0 0 0 .06V0ZM241.83 151.87c17.9-22.71 46.21-36.86 75.15-37.23A98.64 98.64 0 0 1 379 139.12c18.83 16.36 31.07 40.11 33.26 64.98 1.3 19.15-4.98 38.18-14.77 54.46-6.09 11.24-15.39 20.21-24.02 29.48 1.43 3.71 4.14 7 7.79 8.7 11.59 5.38 23.31 10.48 34.69 16.3 6.52 3.56 13.51 6.96 18.25 12.89 3.07 3.77 3.37 9.68.21 13.5-3.97 4.99-10.55 6.53-16.47 7.87-14.2 2.83-28.71 3.49-43.13 4.38-4.1.55-8.23.57-12.35.47 1.93 21.36 3.41 42.9 8.55 63.79 2.63 10.51 6.55 21.03 13.74 29.32 6.33 7.48 14.58 12.91 22.57 18.44 5.03 3.47 9.98 7.38 13.16 12.72 4.01 6.37 4.86 14.18 4.18 21.54 7.68-.68 15.55.77 22.63 3.78 8.54 3.84 13.85 12.21 17.1 20.65 3.55 14.73 5.05 29.84 6.9 44.85a852.76 852.76 0 0 1-56.34 6.76c-14.31.32-28.61 1.01-42.92 1.48-25.03.35-50.06.16-75.08.18-14.98-.05-29.98.23-44.94-.55-11-.24-21.99-.94-32.99-1.06-19.19-1.47-38.29-3.98-57.32-6.83 1.86-14.98 3.36-30.07 6.9-44.78 3.31-8.72 8.9-17.33 17.84-21.03 6.9-2.72 14.47-4.14 21.9-3.45-.74-7.79.31-16.13 4.92-22.67 4.38-6.68 11.42-10.79 17.79-15.31 8.37-5.71 16.44-12.32 21.83-21.03 6.31-10.23 9.19-22.09 11.46-33.77 3.25-17.52 4.66-35.31 6.19-53.04-10.2.14-20.35-1.1-30.52-1.65-11.1-.99-22.39-1.83-33.01-5.42-5.25-1.77-10.76-6.01-10.64-12.07-.08-6.5 5.67-10.86 10.54-14.15 12.65-7.91 26.53-13.57 40-19.89 5.33-2 10.75-5.19 12.63-10.92-6.44-6.81-13.02-13.55-18.66-21.06-12.04-17.25-20.49-37.72-20.38-59.01a97.58 97.58 0 0 1 21.34-56.1m17.78 1.78a84.56 84.56 0 0 0-23.91 55.32 86.44 86.44 0 0 0 10.47 36.87c4.03 9.15 10.33 17.06 17.35 24.09 1.18 1.17 2.63 1.97 4.02 2.87a58.5 58.5 0 0 0 14.85 3.84c14.48 1.83 29.08 1.92 43.65 1.8 11.74-.78 23.76-.62 35.13-4.07 7.41-2.13 12.6-8.48 16.66-14.63 4.54-4.45 7.15-10.43 9.96-16.04 6.57-13.28 10.9-28.36 8.61-43.25-2.73-18.42-11.52-36.21-25.43-48.7-14-14.08-33.6-21.88-53.26-23.3a83.97 83.97 0 0 0-58.1 25.2m14.88 137.31c-2.47 9.95-10.59 17.82-20.01 21.41-13.13 6.29-26.82 11.58-39.22 19.29 17.26 4.23 35.13 3.25 52.72 4.32 27.62-.02 55.26.17 82.88-.1 4.61.2 9.29.33 13.89-.26 17.57-.52 35.38-.04 52.64-3.97-9.24-5.99-19.63-9.75-29.49-14.55-7.43-3.61-15.78-6.12-21.51-12.39a27.4 27.4 0 0 1-7.97-13.51c-3.67.48-7.34 1-11.02 1.39a339.54 339.54 0 0 1-62.15-.06c-3.6-.49-7.19-.95-10.76-1.57m11.22 60.53c-2.34 27.28-3.92 55.13-13.03 81.18a74.36 74.36 0 0 1-17.07 27c-5.86 5.56-12.37 10.35-19.04 14.88-4.26 2.98-8.87 5.91-11.56 10.5-2.26 4.44-1.8 9.66-1.08 14.43 3.21.3 6.43.64 9.66.62 3.44.58 6.95.43 10.44.46 6.67-.06 13.31.75 19.98.68 27.3 1.16 54.63.66 81.94.77 12.33-.83 24.71-.22 37.03-1.31 8.63.08 17.2-.92 25.81-1.28 1.8-6.86.76-15.41-5.57-19.63-11.62-8.53-24.29-16.22-32.94-28.05-7.54-10.05-11.84-22.09-14.7-34.22-5.14-21.67-6.48-43.97-8.68-66.06l-3.29.05c-12.28.09-24.58-.22-36.84.11-7.02-.27-14.04-.06-21.06-.13m-83.28 161.73c-4.54.39-9.43 1.15-13.04 4.16a28.32 28.32 0 0 0-5.97 10.73c-2.38 8.57-3.73 17.38-4.93 26.18 3.86.35 7.68 1.03 11.54 1.31l-.05.21c17.39 1.93 34.87 3.53 52.37 3.36 8.85 1.15 17.78.5 26.65 1.26 14.67.15 29.35.02 44.03.06 20.35-.21 40.73.51 61.07-.53 13.96-.14 27.9-1.09 41.86-1.56 12.77-.78 25.43-2.65 38.13-4.13a215.2 215.2 0 0 0-3.36-20.06c-1.23-6.18-3.3-12.54-7.82-17.12-3.57-2.63-8.13-3.14-12.39-3.72-18.79 1.14-37.58 2.45-56.39 3.27-9.02.87-18.09-.14-27.11.79-19.99.1-39.99.03-59.98.03-7.34-.65-14.71-.4-22.07-.46-15.97-.94-31.97-1.41-47.9-2.96-4.89-.17-9.76-.59-14.64-.82Z"/><path fill="#fff" stroke="#fff" stroke-width=".09" d="M259.61 153.65a83.97 83.97 0 0 1 58.1-25.2 70.27 70.27 0 0 1-6.33 4.94c-11.48 7.66-22.53 16-32.6 25.45-12.93 12.6-22.81 29.03-24.98 47.18-2.39 17.89 2.5 35.74 8.83 52.33 1.57 4.84 4.54 9.27 4.91 14.45-1.39-.9-2.84-1.7-4.02-2.87-7.02-7.03-13.32-14.94-17.35-24.09a86.44 86.44 0 0 1-10.47-36.87 84.56 84.56 0 0 1 23.91-55.32Z"/><path fill="#e8e8e8" stroke="#e8e8e8" stroke-width=".09" d="M317.71 128.45c19.66 1.42 39.26 9.22 53.26 23.3 5.11 12.93 10.81 25.73 13.89 39.36 3.5 14.4 2.79 29.6-.77 43.92-1.72 8.33-4.69 16.34-6.26 24.71-4.06 6.15-9.25 12.5-16.66 14.63-11.37 3.45-23.39 3.29-35.13 4.07-14.57.12-29.17.03-43.65-1.8a58.5 58.5 0 0 1-14.85-3.84c-.37-5.18-3.34-9.61-4.91-14.45-6.33-16.59-11.22-34.44-8.83-52.33 2.17-18.15 12.05-34.58 24.98-47.18 10.07-9.45 21.12-17.79 32.6-25.45 2.22-1.5 4.3-3.2 6.33-4.94Z"/><path fill="#afafaf" stroke="#afafaf" stroke-width=".09" d="M370.97 151.75c13.91 12.49 22.7 30.28 25.43 48.7 2.29 14.89-2.04 29.97-8.61 43.25-2.81 5.61-5.42 11.59-9.96 16.04 1.57-8.37 4.54-16.38 6.26-24.71 3.56-14.32 4.27-29.52.77-43.92-3.08-13.63-8.78-26.43-13.89-39.36Z"/><path fill="#fff" stroke="#fff" stroke-width=".09" d="M274.49 290.96c3.57.62 7.16 1.08 10.76 1.57-2.6 8.85-7.65 17.1-15.22 22.53a151.72 151.72 0 0 1-19.21 11.7c26 2.43 52.14 3.16 78.11 5.97 7.33.93 14.84.84 21.93 3.15-27.62.27-55.26.08-82.88.1-17.59-1.07-35.46-.09-52.72-4.32 12.4-7.71 26.09-13 39.22-19.29 9.42-3.59 17.54-11.46 20.01-21.41Z"/><path fill="#afafaf" stroke="#afafaf" stroke-width=".09" d="M347.4 292.59c3.68-.39 7.35-.91 11.02-1.39a27.4 27.4 0 0 0 7.97 13.51c5.73 6.27 14.08 8.78 21.51 12.39 9.86 4.8 20.25 8.56 29.49 14.55-17.26 3.93-35.07 3.45-52.64 3.97 9.44-.9 18.38-4.13 27.26-7.26-9.84-5.42-20.63-9.14-29.87-15.62-6.98-4.87-11.9-12.2-14.74-20.15Z"/><path fill="#e8e8e8" stroke="#e8e8e8" stroke-width=".09" d="M285.25 292.53a339.54 339.54 0 0 0 62.15.06c2.84 7.95 7.76 15.28 14.74 20.15 9.24 6.48 20.03 10.2 29.87 15.62-8.88 3.13-17.82 6.36-27.26 7.26-4.6.59-9.28.46-13.89.26-7.09-2.31-14.6-2.22-21.93-3.15-25.97-2.81-52.11-3.54-78.11-5.97a151.72 151.72 0 0 0 19.21-11.7c7.57-5.43 12.62-13.68 15.22-22.53Z"/><path fill="#fff" stroke="#fff" stroke-width=".09" d="M285.71 351.49c7.02.07 14.04-.14 21.06.13-2.68.88-5.55 1.45-7.94 2.98-2.08 19.79-3.36 39.74-7.03 59.34-3.21 16.97-7.61 34.53-18.57 48.32-6.34 8.4-14.86 14.81-23.67 20.4-3.51 2.38-7.31 4.53-10.13 7.76-2.26 2.61-2.25 6.25-2.8 9.48l-3.04.2c-3.23.02-6.45-.32-9.66-.62-.72-4.77-1.18-9.99 1.08-14.43 2.69-4.59 7.3-7.52 11.56-10.5 6.67-4.53 13.18-9.32 19.04-14.88a74.36 74.36 0 0 0 17.07-27c9.11-26.05 10.69-53.9 13.03-81.18Z"/><path fill="#e8e8e8" stroke="#e8e8e8" stroke-width=".09" d="M306.77 351.62c12.26-.33 24.56-.02 36.84-.11-1.22 26.13-3.24 52.85 3.3 78.47 4.27 17.02 13.62 32.04 21.89 47.31 1.9 3.97 4.49 8.08 4.15 12.65-.79 3.47-5.09 3.31-7.87 3.78-28.64 2.36-57.45 2.05-86.05 5.08-5.01.7-10.31.26-15.02 2.44-6.67.07-13.31-.74-19.98-.68-3.49-.03-7 .12-10.44-.46l3.04-.2c.55-3.23.54-6.87 2.8-9.48 2.82-3.23 6.62-5.38 10.13-7.76 8.81-5.59 17.33-12 23.67-20.4 10.96-13.79 15.36-31.35 18.57-48.32 3.67-19.6 4.95-39.55 7.03-59.34 2.39-1.53 5.26-2.1 7.94-2.98Z"/><path fill="#afafaf" stroke="#afafaf" stroke-width=".09" d="m343.61 351.51 3.29-.05c2.2 22.09 3.54 44.39 8.68 66.06 2.86 12.13 7.16 24.17 14.7 34.22 8.65 11.83 21.32 19.52 32.94 28.05 6.33 4.22 7.37 12.77 5.57 19.63-8.61.36-17.18 1.36-25.81 1.28-12.32 1.09-24.7.48-37.03 1.31-27.31-.11-54.64.39-81.94-.77 4.71-2.18 10.01-1.74 15.02-2.44 28.6-3.03 57.41-2.72 86.05-5.08 2.78-.47 7.08-.31 7.87-3.78.34-4.57-2.25-8.68-4.15-12.65-8.27-15.27-17.62-30.29-21.89-47.31-6.54-25.62-4.52-52.34-3.3-78.47Z"/><path fill="#fff" stroke="#fff" stroke-width=".09" d="M202.43 513.22c4.88.23 9.75.65 14.64.82-3.9 3.71-9.49 4.88-13.21 8.79-3.96 4.12-6.32 9.47-8.27 14.77a225.46 225.46 0 0 0-5.56 18c-3.86-.28-7.68-.96-11.54-1.31 1.2-8.8 2.55-17.61 4.93-26.18a28.32 28.32 0 0 1 5.97-10.73c3.61-3.01 8.5-3.77 13.04-4.16Z"/><path fill="#e8e8e8" stroke="#e8e8e8" stroke-width=".09" d="M217.07 514.04c15.93 1.55 31.93 2.02 47.9 2.96 7.36.06 14.73-.19 22.07.46 19.99 0 39.99.07 59.98-.03 9.02-.93 18.09.08 27.11-.79 18.81-.82 37.6-2.13 56.39-3.27 3.19 8.87 7.64 18.01 6.46 27.66-.66 4.55-5.85 5.64-9.6 6.38-18.95 3.2-38.22 3.46-57.37 4.53a13643.4 13643.4 0 0 0-101.05 5.36c-8.87.67-17.8.57-26.61 1.87-17.5.17-34.98-1.43-52.37-3.36l.05-.21c1.53-6.1 3.53-12.06 5.56-18 1.95-5.3 4.31-10.65 8.27-14.77 3.72-3.91 9.31-5.08 13.21-8.79Z"/><path fill="#afafaf" stroke="#afafaf" stroke-width=".09" d="M430.52 513.37c4.26.58 8.82 1.09 12.39 3.72 4.52 4.58 6.59 10.94 7.82 17.12a215.2 215.2 0 0 1 3.36 20.06c-12.7 1.48-25.36 3.35-38.13 4.13-13.96.47-27.9 1.42-41.86 1.56-20.34 1.04-40.72.32-61.07.53-14.68-.04-29.36.09-44.03-.06-8.87-.76-17.8-.11-26.65-1.26 8.81-1.3 17.74-1.2 26.61-1.87 33.68-1.88 67.36-3.73 101.05-5.36 19.15-1.07 38.42-1.33 57.37-4.53 3.75-.74 8.94-1.83 9.6-6.38 1.18-9.65-3.27-18.79-6.46-27.66Z"/></svg>