<?xml version="1.0" encoding="UTF-8" standalone="no"?>
<!DOCTYPE svg PUBLIC "-//W3C//DTD SVG 1.1//EN" "http://www.w3.org/Graphics/SVG/1.1/DTD/svg11.dtd">
<svg xmlns="http://www.w3.org/2000/svg" version="1.1" viewBox="0.00 0.00 1280.00 1280.00">
<g stroke-width="5.00" fill="none" stroke-linecap="butt">
<path stroke="#8c8c8b" vector-effect="non-scaling-stroke" d="
  M 532.34 583.18
  Q 543.11 588.19 556.45 590.28
  Q 577.50 593.59 594.28 593.66
  A 7.42 7.16 -36.2 0 1 596.10 593.91
  Q 597.80 594.37 599.18 594.40
  Q 603.51 594.49 643.21 594.54
  Q 660.89 594.56 672.27 593.90
  Q 687.80 592.99 701.26 591.52
  C 714.82 590.03 728.89 587.00 739.38 579.75
  Q 742.18 577.81 746.99 572.13
  Q 751.51 566.78 756.22 561.63"
/>
<path stroke="#706f6f" vector-effect="non-scaling-stroke" d="
  M 756.22 561.63
  Q 766.00 549.72 773.11 536.27
  Q 778.04 526.93 784.19 512.58
  Q 795.92 485.20 797.17 454.84
  A 7.77 7.31 43.3 0 0 797.07 453.20
  C 796.51 450.02 796.57 446.81 796.21 443.66
  Q 793.78 422.44 785.60 401.42
  C 782.69 393.94 777.38 383.38 774.29 377.95
  Q 762.90 357.95 744.34 340.56"
/>
<path stroke="#8c8c8b" vector-effect="non-scaling-stroke" d="
  M 744.34 340.56
  Q 742.62 338.85 740.59 337.19
  Q 737.55 334.71 734.53 332.29
  Q 694.86 300.51 644.07 295.67
  Q 638.08 295.10 632.50 295.75"
/>
<path stroke="#989797" vector-effect="non-scaling-stroke" d="
  M 632.50 295.75
  Q 624.59 295.04 615.74 296.26
  Q 587.11 300.20 561.75 312.93
  Q 541.03 323.34 526.81 336.34
  Q 514.87 347.26 509.63 353.39
  Q 475.93 392.81 469.63 444.09
  Q 468.88 450.23 468.93 454.91
  C 469.13 472.79 473.16 491.11 479.81 507.45
  C 489.26 530.64 499.87 551.47 516.85 569.15
  Q 517.15 569.46 522.73 576.02
  Q 525.29 579.02 532.34 583.18"
/>
<path stroke="#f4f4f4" vector-effect="non-scaling-stroke" d="
  M 632.50 295.75
  Q 602.69 315.32 575.63 337.15
  C 555.43 353.44 536.36 372.54 523.25 395.21
  Q 502.70 430.73 503.34 471.03
  Q 503.56 484.59 505.43 495.51
  Q 509.74 520.73 518.80 545.54
  Q 525.24 563.16 531.51 578.03
  Q 532.02 579.25 532.34 583.18"
/>
<path stroke="#cccccc" vector-effect="non-scaling-stroke" d="
  M 744.34 340.56
  Q 745.05 346.28 747.89 351.21
  A 8.39 8.20 -70.9 0 1 748.47 352.44
  Q 750.20 357.21 753.44 364.77
  Q 759.48 378.87 766.99 402.25
  Q 772.54 419.53 775.20 437.39
  C 775.64 440.35 775.59 442.98 776.30 445.92
  A 5.28 5.00 39.6 0 1 776.45 447.15
  Q 776.53 456.43 776.57 463.41
  C 776.66 477.15 774.17 491.33 771.30 504.09
  Q 765.42 530.13 756.63 557.74
  A 1.97 1.92 -42.0 0 0 756.57 558.69
  Q 756.82 560.01 756.22 561.63"
/>
<path stroke="#8c8c8b" vector-effect="non-scaling-stroke" d="
  M 714.29 710.30
  Q 717.22 710.34 720.15 709.75
  A 1.40 1.26 -48.1 0 1 720.43 709.72
  L 739.75 709.02"
/>
<path stroke="#706f6f" vector-effect="non-scaling-stroke" d="
  M 739.75 709.02
  Q 754.04 708.47 767.86 708.39
  C 771.18 708.37 774.16 707.58 777.69 707.55
  Q 787.44 707.48 791.87 707.37
  C 794.07 707.32 796.75 706.63 798.39 706.64
  Q 804.21 706.65 816.38 704.92
  Q 828.72 703.17 831.33 702.57
  C 833.56 702.05 835.13 701.38 837.32 701.60
  A 0.39 0.39 0.0 0 0 837.55 700.87
  Q 823.15 692.87 821.36 691.90
  Q 814.19 687.99 806.74 685.04
  C 804.12 684.00 800.88 681.47 797.47 680.05
  Q 785.03 674.84 771.50 668.55
  Q 769.22 667.49 767.00 666.43
  Q 757.08 661.71 751.29 659.19
  Q 747.63 657.59 745.17 656.16
  A 2.02 1.37 0.5 0 1 744.88 655.96
  L 735.20 647.38
  A 1.29 0.53 67.5 0 1 735.06 647.24
  Q 733.41 645.32 728.57 639.22
  Q 722.73 631.86 720.65 623.02
  C 720.42 622.01 720.58 621.46 720.48 620.89
  A 0.63 0.63 0.0 0 0 719.84 620.38
  Q 716.67 620.49 714.54 621.22
  A 4.68 4.63 -57.8 0 1 713.64 621.43
  L 697.32 623.65"
/>
<path stroke="#8c8c8b" vector-effect="non-scaling-stroke" d="
  M 697.32 623.65
  Q 693.03 623.05 688.02 624.35
  A 1.42 1.34 35.5 0 1 687.65 624.40
  L 674.55 624.65
  A 1.87 1.80 -60.1 0 0 673.65 624.91
  Q 673.41 625.06 673.38 625.08
  A 2.78 2.75 -61.4 0 1 671.87 625.53
  L 593.51 625.61
  A 0.52 0.50 65.7 0 1 593.16 625.47
  L 592.56 624.94
  A 1.22 1.16 -22.6 0 0 591.80 624.65
  L 579.11 624.44
  A 8.41 8.37 -38.4 0 1 577.43 624.25
  Q 571.89 623.06 566.80 623.60"
/>
<path stroke="#989797" vector-effect="non-scaling-stroke" d="
  M 566.80 623.60
  Q 563.49 622.48 560.44 622.38
  Q 557.93 622.30 557.04 622.02
  C 554.54 621.23 552.79 621.60 549.90 620.77
  Q 548.30 620.31 546.18 620.31
  A 0.53 0.52 -87.6 0 0 545.66 620.80
  Q 545.28 625.09 544.00 627.98
  Q 540.02 636.96 535.12 642.61
  Q 523.89 655.57 508.47 662.24
  C 498.96 666.35 487.28 672.01 480.28 675.15
  C 474.60 677.69 470.67 679.90 466.19 681.79
  C 453.13 687.30 440.26 694.26 428.20 701.22
  A 0.15 0.15 0.0 0 0 428.31 701.49
  C 430.37 701.08 431.70 701.94 433.63 702.33
  Q 455.84 706.73 477.96 707.46
  C 487.33 707.76 499.95 708.78 511.32 708.51
  A 6.24 5.95 50.8 0 1 513.08 708.73
  Q 515.19 709.29 517.28 709.33
  Q 536.99 709.64 545.47 709.56
  A 4.18 4.10 50.3 0 1 546.46 709.66
  Q 549.31 710.27 557.25 710.28
  Q 635.77 710.35 714.29 710.30"
/>
<path stroke="#f4f4f4" vector-effect="non-scaling-stroke" d="
  M 566.80 623.60
  Q 559.93 649.64 538.96 666.16
  Q 532.00 671.65 521.45 678.46
  Q 511.11 685.13 497.58 691.36
  A 0.18 0.18 0.0 0 0 497.64 691.71
  Q 527.83 694.30 552.01 695.89
  Q 556.45 696.18 557.43 696.27
  Q 565.30 696.94 573.48 697.27
  Q 579.41 697.51 580.66 697.67
  Q 583.63 698.03 587.85 698.05
  Q 591.10 698.07 596.73 698.71
  C 600.73 699.17 604.89 698.85 608.86 699.50
  Q 611.23 699.89 616.77 700.06
  Q 619.28 700.13 624.67 700.78
  Q 628.46 701.23 639.22 701.70
  Q 646.09 702.00 653.74 702.79
  Q 684.84 706.01 705.60 708.39
  Q 711.71 709.09 714.28 709.50
  Q 714.61 709.55 714.57 709.83
  Q 714.54 710.10 714.29 710.30"
/>
<path stroke="#cccccc" vector-effect="non-scaling-stroke" d="
  M 739.75 709.02
  Q 761.49 702.68 782.56 695.69
  Q 782.87 695.58 783.98 695.42
  Q 785.50 695.20 785.60 695.13
  A 0.25 0.25 0.0 0 0 785.52 694.67
  Q 784.74 694.49 769.49 686.84
  Q 766.78 685.48 753.48 679.30
  Q 740.28 673.15 729.50 665.99
  Q 725.26 663.17 718.30 657.20
  Q 716.50 655.66 715.47 654.28
  C 713.22 651.28 710.76 649.27 708.60 645.95
  Q 703.31 637.83 701.97 635.28
  Q 699.82 631.21 697.32 623.65"
/>
<path stroke="#989797" vector-effect="non-scaling-stroke" d="
  M 618.71 740.70
  Q 596.10 740.66 573.50 740.48
  Q 571.33 740.46 569.43 741.21
  A 1.06 1.06 0.0 0 0 568.76 742.10
  Q 566.96 763.40 564.62 782.46
  C 561.10 811.21 556.11 841.26 546.31 868.82
  C 538.89 889.70 528.14 907.85 512.75 923.25
  Q 500.64 935.35 487.88 944.39
  Q 476.59 952.39 464.83 960.59
  Q 459.36 964.40 455.51 968.44
  C 448.58 975.71 444.75 987.31 447.66 997.36
  A 2.65 2.63 83.3 0 0 450.05 999.26
  L 474.00 1000.54"
/>
<path stroke="#8c8c8b" vector-effect="non-scaling-stroke" d="
  M 474.00 1000.54
  Q 490.81 1001.81 507.20 1001.58
  A 4.30 4.06 50.8 0 1 508.27 1001.72
  Q 511.10 1002.50 513.31 1002.45
  Q 516.58 1002.37 525.64 1001.80"
/>
<path stroke="#706f6f" vector-effect="non-scaling-stroke" d="
  M 525.64 1001.80
  Q 532.04 1002.26 537.96 1002.42
  C 541.45 1002.52 545.45 1003.42 549.07 1003.42
  Q 636.18 1003.58 718.59 1003.42
  C 721.33 1003.41 723.81 1002.58 726.69 1002.57
  Q 744.10 1002.47 746.26 1002.47
  Q 751.26 1002.48 753.60 1002.12
  Q 757.26 1001.56 760.92 1001.52
  Q 769.92 1001.41 779.14 1001.37
  C 782.35 1001.36 785.20 1000.58 788.64 1000.55
  C 796.23 1000.48 801.39 999.59 808.46 999.40
  Q 811.65 999.31 817.86 998.42
  A 0.59 0.59 0.0 0 0 818.37 997.81
  C 818.28 995.61 819.68 992.75 819.33 989.86
  C 818.24 980.91 817.04 975.69 811.48 968.87
  C 809.61 966.58 807.31 965.07 804.31 962.69
  Q 801.02 960.07 798.65 958.46
  Q 785.31 949.39 774.48 941.37
  Q 765.29 934.56 759.36 928.64
  C 752.58 921.87 746.95 916.88 742.42 910.70
  Q 732.14 896.71 727.00 886.07
  C 716.06 863.43 709.88 836.92 705.29 809.51
  Q 702.11 790.53 700.51 774.74
  Q 700.00 769.73 699.69 769.10
  A 0.99 0.86 33.9 0 1 699.59 768.73
  L 699.33 763.02
  A 1.89 1.88 35.4 0 0 699.25 762.55
  C 698.10 758.77 698.76 754.55 697.87 750.62
  Q 697.09 747.21 697.53 742.05
  A 0.53 0.53 0.0 0 0 697.00 741.47
  L 684.20 741.50"
/>
<path stroke="#8c8c8b" vector-effect="non-scaling-stroke" d="
  M 684.20 741.50
  Q 653.86 741.42 623.50 741.54
  C 621.57 741.55 620.93 740.36 618.71 740.70"
/>
<path stroke="#cccccc" vector-effect="non-scaling-stroke" d="
  M 684.20 741.50
  Q 684.71 741.81 685.00 741.82
  A 0.74 0.74 0.0 0 1 685.65 742.90
  Q 684.50 745.12 684.50 747.26
  Q 684.49 754.08 684.35 760.86
  A 11.65 11.52 -38.9 0 1 684.11 763.00
  Q 683.66 765.14 683.66 765.75
  Q 683.52 785.45 683.67 791.00
  Q 683.70 792.08 684.21 794.27
  A 8.93 8.66 39.6 0 1 684.44 796.35
  Q 684.40 805.14 684.71 812.54
  C 684.77 814.00 685.49 816.08 685.46 817.92
  Q 685.42 820.15 686.05 825.69
  Q 687.74 840.65 690.34 853.44
  Q 694.75 875.06 703.44 895.56
  C 711.48 914.53 720.58 930.52 730.38 947.93
  Q 738.27 961.96 742.14 971.09
  C 744.13 975.77 746.10 980.95 745.45 984.90
  A 1.74 1.71 72.6 0 1 744.97 985.84
  L 740.94 989.85
  A 1.34 1.34 0.0 0 1 740.17 990.23
  C 734.76 991.02 732.52 991.55 729.02 991.62
  Q 727.59 991.65 725.56 992.06
  C 721.75 992.82 717.95 992.34 714.30 992.95
  C 709.77 993.70 707.05 993.47 701.24 993.62
  Q 700.03 993.65 694.28 994.17
  Q 690.84 994.49 685.50 994.50
  Q 667.07 994.53 599.22 994.45
  Q 584.95 994.44 570.82 995.67
  Q 555.13 997.04 539.49 998.95
  Q 532.55 999.79 525.64 1001.80"
/>
<path stroke="#f4f4f4" vector-effect="non-scaling-stroke" d="
  M 474.00 1000.54
  Q 473.40 991.51 480.00 984.51
  Q 484.21 980.04 488.76 977.01
  Q 499.03 970.15 505.79 965.79
  C 533.51 947.88 554.32 924.52 566.96 893.47
  Q 573.80 876.66 578.53 856.29
  Q 583.50 834.87 586.50 814.31
  Q 591.51 780.02 594.50 745.89
  A 0.73 0.72 -2.1 0 1 595.11 745.24
  L 618.30 741.55
  A 0.49 0.48 86.5 0 0 618.71 741.08
  L 618.71 740.70"
/>
<path stroke="#989797" vector-effect="non-scaling-stroke" d="
  M 438.00 1028.94
  L 429.47 1028.44
  A 1.39 1.32 -26.0 0 1 428.83 1028.24
  Q 428.11 1027.81 427.53 1027.79
  Q 413.77 1027.20 412.74 1027.09
  Q 396.08 1025.31 382.03 1033.03
  Q 379.31 1034.52 376.79 1038.01
  C 370.45 1046.79 367.20 1055.04 364.72 1066.36
  Q 360.01 1087.78 357.58 1107.35
  A 1.10 1.09 6.8 0 0 358.54 1108.56
  L 379.02 1110.95"
/>
<path stroke="#8c8c8b" vector-effect="non-scaling-stroke" d="
  M 379.02 1110.95
  Q 407.10 1114.85 443.25 1116.87
  Q 459.23 1117.77 463.56 1117.58
  C 465.15 1117.51 466.78 1118.14 468.50 1118.24
  Q 476.21 1118.67 483.75 1117.92"
/>
<path stroke="#706f6f" vector-effect="non-scaling-stroke" d="
  M 483.75 1117.92
  C 489.10 1118.02 494.86 1118.89 499.59 1119.00
  Q 509.38 1119.23 522.85 1119.65
  A 2.83 2.73 -34.7 0 1 523.59 1119.77
  Q 526.05 1120.49 529.25 1120.49
  Q 675.80 1120.51 733.25 1120.50
  Q 738.30 1120.50 740.27 1120.21
  C 749.43 1118.87 762.90 1119.82 774.42 1118.90
  C 781.65 1118.33 790.59 1118.85 799.50 1117.83
  Q 803.19 1117.41 815.81 1117.40
  C 817.90 1117.39 820.14 1116.61 822.40 1116.58
  Q 834.03 1116.43 834.73 1116.40
  A 16.83 16.63 -51.7 0 0 837.17 1116.10
  Q 839.96 1115.56 840.31 1115.56
  Q 847.77 1115.54 854.02 1114.74
  Q 854.69 1114.65 857.25 1114.37
  Q 877.82 1112.13 908.07 1108.33
  A 0.34 0.33 83.2 0 0 908.36 1107.95
  C 906.40 1091.38 903.46 1073.05 899.05 1057.62
  Q 896.19 1047.60 889.63 1038.17
  C 884.66 1031.03 877.66 1030.03 869.68 1027.81
  A 1.28 1.06 50.4 0 0 869.42 1027.76
  L 859.47 1026.48"
/>
<path stroke="#8c8c8b" vector-effect="non-scaling-stroke" d="
  M 859.47 1026.48
  Q 850.45 1027.94 840.41 1027.69
  A 1.48 1.43 -60.6 0 0 839.51 1027.96
  L 839.05 1028.28
  A 1.11 1.07 27.6 0 1 838.40 1028.47
  Q 832.72 1028.31 827.75 1028.86
  C 820.50 1029.65 815.71 1029.23 808.37 1030.16
  Q 804.62 1030.63 797.67 1030.59
  Q 796.57 1030.58 795.10 1031.15
  A 3.78 3.78 0.0 0 1 793.75 1031.42
  L 781.69 1031.62
  A 8.21 7.41 -47.9 0 0 780.33 1031.76
  C 779.05 1032.01 778.39 1032.36 776.65 1032.39
  Q 772.29 1032.47 763.26 1032.50
  Q 762.54 1032.50 760.95 1033.22
  A 2.43 2.37 -56.4 0 1 759.97 1033.43
  Q 744.06 1033.51 732.51 1033.68
  Q 731.96 1033.69 730.86 1034.30
  A 1.12 1.12 0.0 0 1 730.30 1034.45
  Q 634.84 1034.73 537.50 1034.46
  Q 534.80 1034.46 534.13 1033.84
  A 0.65 0.65 0.0 0 0 533.67 1033.65
  L 505.76 1033.43
  A 1.98 1.90 -29.5 0 1 504.90 1033.21
  Q 503.50 1032.46 501.74 1032.46
  Q 495.73 1032.46 487.43 1032.45
  A 0.93 0.91 -24.0 0 1 486.82 1032.22
  L 486.52 1031.95
  A 1.70 1.67 65.2 0 0 485.41 1031.53
  L 471.79 1031.53
  A 1.44 1.43 -31.2 0 1 471.13 1031.37
  Q 470.66 1031.12 470.54 1031.03
  A 1.92 1.91 -25.8 0 0 469.41 1030.64
  L 457.82 1030.42
  A 2.14 2.13 -28.5 0 1 456.73 1030.10
  Q 456.03 1029.67 455.50 1029.67
  Q 445.66 1029.57 438.00 1028.94"
/>
<path stroke="#cccccc" vector-effect="non-scaling-stroke" d="
  M 859.47 1026.48
  Q 868.97 1045.71 872.81 1066.32
  Q 873.61 1070.63 873.64 1073.74
  Q 873.68 1079.03 873.39 1081.22
  C 872.44 1088.44 865.40 1092.04 858.76 1093.29
  Q 844.31 1096.01 831.74 1097.42
  C 829.44 1097.68 826.88 1097.48 824.81 1098.02
  C 821.53 1098.86 817.38 1098.38 813.98 1099.00
  C 809.44 1099.83 804.05 1099.38 800.26 1099.96
  Q 795.27 1100.72 792.20 1100.52
  Q 789.34 1100.33 780.51 1101.26
  C 776.09 1101.72 768.35 1101.32 761.53 1102.30
  Q 759.77 1102.55 746.79 1102.67
  C 744.28 1102.70 741.88 1103.31 739.69 1103.39
  Q 735.82 1103.53 723.51 1103.68
  Q 722.95 1103.69 720.93 1104.21
  A 6.60 6.47 -51.9 0 1 719.41 1104.41
  L 703.89 1104.56
  A 3.22 2.83 34.7 0 0 703.19 1104.64
  C 695.10 1106.45 687.30 1104.84 681.92 1106.19
  A 6.87 6.32 34.4 0 1 680.61 1106.38
  L 646.92 1107.66
  A 0.76 0.70 -47.4 0 0 646.80 1107.67
  C 644.54 1107.95 643.04 1108.45 640.55 1108.45
  C 633.70 1108.44 628.60 1108.01 625.48 1109.04
  A 7.20 7.10 -54.3 0 1 623.37 1109.40
  Q 615.89 1109.48 611.33 1109.59
  C 608.91 1109.65 606.35 1110.48 603.52 1110.46
  Q 595.56 1110.40 589.47 1111.08
  C 582.08 1111.91 576.71 1111.30 569.48 1112.17
  Q 565.58 1112.64 557.89 1112.53
  A 25.27 25.15 41.3 0 0 554.01 1112.77
  C 551.91 1113.06 550.25 1113.48 547.79 1113.43
  C 539.17 1113.24 531.74 1114.65 523.50 1114.64
  Q 521.21 1114.64 515.52 1115.26
  Q 502.86 1116.64 499.78 1116.95
  Q 491.88 1117.74 483.75 1117.92"
/>
<path stroke="#f4f4f4" vector-effect="non-scaling-stroke" d="
  M 379.02 1110.95
  C 379.82 1108.82 380.97 1106.72 381.59 1104.67
  C 385.62 1091.24 390.06 1076.11 396.74 1061.52
  Q 403.00 1047.85 414.78 1039.80
  Q 418.06 1037.56 426.21 1033.99
  Q 431.81 1031.54 438.00 1028.94"
/>
</g>
<path fill="#302f2e" d="
  M 633.01 267.35
  C 670.52 267.35 707.86 279.06 738.77 299.32
  Q 773.11 321.82 795.85 356.12
  Q 823.53 397.88 827.93 450.23
  C 828.33 454.94 828.06 462.16 827.53 467.73
  Q 823.95 505.83 806.41 539.94
  Q 803.88 544.86 795.43 559.70
  Q 788.78 571.38 776.57 585.33
  Q 767.40 595.82 754.97 608.98
  Q 751.35 612.81 750.61 613.80
  A 1.03 1.00 55.9 0 0 750.45 614.69
  C 752.05 620.14 755.86 624.19 759.92 627.80
  Q 762.85 630.40 768.71 632.98
  Q 778.56 637.32 808.53 651.19
  Q 828.17 660.27 844.52 669.20
  Q 852.34 673.47 859.91 678.88
  C 866.87 683.86 874.47 690.82 875.92 699.66
  C 879.41 720.95 857.09 729.00 840.55 732.32
  Q 816.35 737.17 789.47 738.92
  Q 784.65 739.23 780.49 739.72
  C 776.49 740.20 772.32 739.65 768.52 740.40
  Q 765.37 741.02 758.52 740.99
  Q 754.87 740.98 748.51 741.64
  Q 742.08 742.30 728.75 741.91
  A 0.73 0.73 0.0 0 0 728.00 742.60
  Q 727.92 743.97 728.10 745.74
  Q 729.88 763.14 731.01 772.75
  Q 732.51 785.63 734.46 798.51
  C 737.78 820.49 742.15 841.72 749.91 862.04
  Q 759.78 887.90 779.82 906.18
  C 791.74 917.06 801.08 922.99 818.94 935.40
  Q 820.80 936.69 826.07 941.00
  Q 844.54 956.10 848.54 977.70
  Q 849.61 983.48 849.87 993.87
  A 1.41 1.41 0.0 0 1 849.52 994.85
  L 849.06 995.37
  A 0.40 0.40 0.0 0 0 849.33 996.03
  Q 850.74 996.11 851.08 995.73
  A 0.55 0.55 0.0 0 1 851.84 995.67
  Q 852.46 996.18 853.01 996.07
  Q 856.48 995.36 859.20 995.12
  A 3.98 3.80 50.2 0 1 860.68 995.29
  C 863.30 996.12 866.29 995.98 869.36 996.45
  C 882.95 998.53 893.82 1001.66 904.71 1009.36
  Q 905.58 1009.97 912.41 1016.51
  Q 916.02 1019.97 918.80 1024.57
  Q 924.19 1033.47 928.26 1042.51
  Q 928.95 1044.03 929.43 1046.28
  Q 936.00 1077.18 939.61 1108.26
  Q 941.66 1125.85 942.64 1133.76
  A 0.70 0.69 82.0 0 1 942.06 1134.54
  Q 895.69 1141.60 849.50 1146.28
  C 839.77 1147.26 830.59 1147.93 821.16 1148.15
  Q 807.32 1148.48 786.50 1149.38
  C 771.30 1150.04 746.21 1151.12 725.48 1151.01
  Q 709.74 1150.92 648.50 1151.16
  Q 640.73 1151.19 633.02 1151.19
  Q 625.30 1151.19 617.53 1151.16
  Q 556.29 1150.92 540.55 1151.01
  C 519.82 1151.12 494.73 1150.04 479.53 1149.38
  Q 458.71 1148.48 444.87 1148.15
  C 435.44 1147.93 426.26 1147.26 416.53 1146.28
  Q 370.34 1141.60 323.97 1134.54
  A 0.70 0.69 -82.0 0 1 323.39 1133.76
  Q 324.37 1125.85 326.42 1108.26
  Q 330.03 1077.18 336.60 1046.28
  Q 337.08 1044.03 337.77 1042.51
  Q 341.84 1033.47 347.23 1024.57
  Q 350.01 1019.97 353.62 1016.51
  Q 360.45 1009.97 361.32 1009.36
  C 372.21 1001.66 383.08 998.53 396.67 996.45
  C 399.74 995.98 402.73 996.12 405.35 995.29
  A 3.98 3.80 -50.2 0 1 406.83 995.12
  Q 409.55 995.36 413.02 996.07
  Q 413.57 996.18 414.19 995.67
  A 0.55 0.55 0.0 0 1 414.95 995.73
  Q 415.29 996.11 416.70 996.03
  A 0.40 0.40 0.0 0 0 416.97 995.37
  L 416.51 994.85
  A 1.41 1.41 0.0 0 1 416.16 993.87
  Q 416.42 983.48 417.49 977.70
  Q 421.49 956.10 439.96 941.00
  Q 445.23 936.69 447.09 935.40
  C 464.95 922.99 474.29 917.06 486.21 906.18
  Q 506.25 887.90 516.12 862.04
  C 523.88 841.72 528.25 820.49 531.57 798.51
  Q 533.52 785.63 535.02 772.75
  Q 536.15 763.14 537.93 745.74
  Q 538.11 743.97 538.03 742.60
  A 0.73 0.73 0.0 0 0 537.28 741.91
  Q 523.95 742.30 517.52 741.64
  Q 511.16 740.98 507.51 740.99
  Q 500.66 741.02 497.51 740.40
  C 493.71 739.65 489.54 740.20 485.54 739.72
  Q 481.38 739.23 476.56 738.92
  Q 449.68 737.17 425.48 732.32
  C 408.94 729.00 386.62 720.95 390.11 699.66
  C 391.55 690.82 399.15 683.86 406.11 678.88
  Q 413.68 673.47 421.50 669.20
  Q 437.85 660.27 457.49 651.19
  Q 487.46 637.32 497.31 632.98
  Q 503.17 630.40 506.10 627.80
  C 510.16 624.19 513.97 620.14 515.57 614.69
  A 1.03 1.00 -55.9 0 0 515.41 613.80
  Q 514.67 612.81 511.05 608.98
  Q 498.62 595.82 489.45 585.33
  Q 477.24 571.38 470.59 559.70
  Q 462.14 544.86 459.61 539.94
  Q 442.07 505.83 438.49 467.73
  C 437.96 462.16 437.69 454.94 438.09 450.23
  Q 442.49 397.88 470.17 356.12
  Q 492.91 321.82 527.25 299.32
  C 558.16 279.06 595.50 267.35 633.01 267.35
  Z
  M 532.34 583.18
  Q 543.11 588.19 556.45 590.28
  Q 577.50 593.59 594.28 593.66
  A 7.42 7.16 -36.2 0 1 596.10 593.91
  Q 597.80 594.37 599.18 594.40
  Q 603.51 594.49 643.21 594.54
  Q 660.89 594.56 672.27 593.90
  Q 687.80 592.99 701.26 591.52
  C 714.82 590.03 728.89 587.00 739.38 579.75
  Q 742.18 577.81 746.99 572.13
  Q 751.51 566.78 756.22 561.63
  Q 766.00 549.72 773.11 536.27
  Q 778.04 526.93 784.19 512.58
  Q 795.92 485.20 797.17 454.84
  A 7.77 7.31 43.3 0 0 797.07 453.20
  C 796.51 450.02 796.57 446.81 796.21 443.66
  Q 793.78 422.44 785.60 401.42
  C 782.69 393.94 777.38 383.38 774.29 377.95
  Q 762.90 357.95 744.34 340.56
  Q 742.62 338.85 740.59 337.19
  Q 737.55 334.71 734.53 332.29
  Q 694.86 300.51 644.07 295.67
  Q 638.08 295.10 632.50 295.75
  Q 624.59 295.04 615.74 296.26
  Q 587.11 300.20 561.75 312.93
  Q 541.03 323.34 526.81 336.34
  Q 514.87 347.26 509.63 353.39
  Q 475.93 392.81 469.63 444.09
  Q 468.88 450.23 468.93 454.91
  C 469.13 472.79 473.16 491.11 479.81 507.45
  C 489.26 530.64 499.87 551.47 516.85 569.15
  Q 517.15 569.46 522.73 576.02
  Q 525.29 579.02 532.34 583.18
  Z
  M 714.29 710.30
  Q 717.22 710.34 720.15 709.75
  A 1.40 1.26 -48.1 0 1 720.43 709.72
  L 739.75 709.02
  Q 754.04 708.47 767.86 708.39
  C 771.18 708.37 774.16 707.58 777.69 707.55
  Q 787.44 707.48 791.87 707.37
  C 794.07 707.32 796.75 706.63 798.39 706.64
  Q 804.21 706.65 816.38 704.92
  Q 828.72 703.17 831.33 702.57
  C 833.56 702.05 835.13 701.38 837.32 701.60
  A 0.39 0.39 0.0 0 0 837.55 700.87
  Q 823.15 692.87 821.36 691.90
  Q 814.19 687.99 806.74 685.04
  C 804.12 684.00 800.88 681.47 797.47 680.05
  Q 785.03 674.84 771.50 668.55
  Q 769.22 667.49 767.00 666.43
  Q 757.08 661.71 751.29 659.19
  Q 747.63 657.59 745.17 656.16
  A 2.02 1.37 0.5 0 1 744.88 655.96
  L 735.20 647.38
  A 1.29 0.53 67.5 0 1 735.06 647.24
  Q 733.41 645.32 728.57 639.22
  Q 722.73 631.86 720.65 623.02
  C 720.42 622.01 720.58 621.46 720.48 620.89
  A 0.63 0.63 0.0 0 0 719.84 620.38
  Q 716.67 620.49 714.54 621.22
  A 4.68 4.63 -57.8 0 1 713.64 621.43
  L 697.32 623.65
  Q 693.03 623.05 688.02 624.35
  A 1.42 1.34 35.5 0 1 687.65 624.40
  L 674.55 624.65
  A 1.87 1.80 -60.1 0 0 673.65 624.91
  Q 673.41 625.06 673.38 625.08
  A 2.78 2.75 -61.4 0 1 671.87 625.53
  L 593.51 625.61
  A 0.52 0.50 65.7 0 1 593.16 625.47
  L 592.56 624.94
  A 1.22 1.16 -22.6 0 0 591.80 624.65
  L 579.11 624.44
  A 8.41 8.37 -38.4 0 1 577.43 624.25
  Q 571.89 623.06 566.80 623.60
  Q 563.49 622.48 560.44 622.38
  Q 557.93 622.30 557.04 622.02
  C 554.54 621.23 552.79 621.60 549.90 620.77
  Q 548.30 620.31 546.18 620.31
  A 0.53 0.52 -87.6 0 0 545.66 620.80
  Q 545.28 625.09 544.00 627.98
  Q 540.02 636.96 535.12 642.61
  Q 523.89 655.57 508.47 662.24
  C 498.96 666.35 487.28 672.01 480.28 675.15
  C 474.60 677.69 470.67 679.90 466.19 681.79
  C 453.13 687.30 440.26 694.26 428.20 701.22
  A 0.15 0.15 0.0 0 0 428.31 701.49
  C 430.37 701.08 431.70 701.94 433.63 702.33
  Q 455.84 706.73 477.96 707.46
  C 487.33 707.76 499.95 708.78 511.32 708.51
  A 6.24 5.95 50.8 0 1 513.08 708.73
  Q 515.19 709.29 517.28 709.33
  Q 536.99 709.64 545.47 709.56
  A 4.18 4.10 50.3 0 1 546.46 709.66
  Q 549.31 710.27 557.25 710.28
  Q 635.77 710.35 714.29 710.30
  Z
  M 618.71 740.70
  Q 596.10 740.66 573.50 740.48
  Q 571.33 740.46 569.43 741.21
  A 1.06 1.06 0.0 0 0 568.76 742.10
  Q 566.96 763.40 564.62 782.46
  C 561.10 811.21 556.11 841.26 546.31 868.82
  C 538.89 889.70 528.14 907.85 512.75 923.25
  Q 500.64 935.35 487.88 944.39
  Q 476.59 952.39 464.83 960.59
  Q 459.36 964.40 455.51 968.44
  C 448.58 975.71 444.75 987.31 447.66 997.36
  A 2.65 2.63 83.3 0 0 450.05 999.26
  L 474.00 1000.54
  Q 490.81 1001.81 507.20 1001.58
  A 4.30 4.06 50.8 0 1 508.27 1001.72
  Q 511.10 1002.50 513.31 1002.45
  Q 516.58 1002.37 525.64 1001.80
  Q 532.04 1002.26 537.96 1002.42
  C 541.45 1002.52 545.45 1003.42 549.07 1003.42
  Q 636.18 1003.58 718.59 1003.42
  C 721.33 1003.41 723.81 1002.58 726.69 1002.57
  Q 744.10 1002.47 746.26 1002.47
  Q 751.26 1002.48 753.60 1002.12
  Q 757.26 1001.56 760.92 1001.52
  Q 769.92 1001.41 779.14 1001.37
  C 782.35 1001.36 785.20 1000.58 788.64 1000.55
  C 796.23 1000.48 801.39 999.59 808.46 999.40
  Q 811.65 999.31 817.86 998.42
  A 0.59 0.59 0.0 0 0 818.37 997.81
  C 818.28 995.61 819.68 992.75 819.33 989.86
  C 818.24 980.91 817.04 975.69 811.48 968.87
  C 809.61 966.58 807.31 965.07 804.31 962.69
  Q 801.02 960.07 798.65 958.46
  Q 785.31 949.39 774.48 941.37
  Q 765.29 934.56 759.36 928.64
  C 752.58 921.87 746.95 916.88 742.42 910.70
  Q 732.14 896.71 727.00 886.07
  C 716.06 863.43 709.88 836.92 705.29 809.51
  Q 702.11 790.53 700.51 774.74
  Q 700.00 769.73 699.69 769.10
  A 0.99 0.86 33.9 0 1 699.59 768.73
  L 699.33 763.02
  A 1.89 1.88 35.4 0 0 699.25 762.55
  C 698.10 758.77 698.76 754.55 697.87 750.62
  Q 697.09 747.21 697.53 742.05
  A 0.53 0.53 0.0 0 0 697.00 741.47
  L 684.20 741.50
  Q 653.86 741.42 623.50 741.54
  C 621.57 741.55 620.93 740.36 618.71 740.70
  Z
  M 438.00 1028.94
  L 429.47 1028.44
  A 1.39 1.32 -26.0 0 1 428.83 1028.24
  Q 428.11 1027.81 427.53 1027.79
  Q 413.77 1027.20 412.74 1027.09
  Q 396.08 1025.31 382.03 1033.03
  Q 379.31 1034.52 376.79 1038.01
  C 370.45 1046.79 367.20 1055.04 364.72 1066.36
  Q 360.01 1087.78 357.58 1107.35
  A 1.10 1.09 6.8 0 0 358.54 1108.56
  L 379.02 1110.95
  Q 407.10 1114.85 443.25 1116.87
  Q 459.23 1117.77 463.56 1117.58
  C 465.15 1117.51 466.78 1118.14 468.50 1118.24
  Q 476.21 1118.67 483.75 1117.92
  C 489.10 1118.02 494.86 1118.89 499.59 1119.00
  Q 509.38 1119.23 522.85 1119.65
  A 2.83 2.73 -34.7 0 1 523.59 1119.77
  Q 526.05 1120.49 529.25 1120.49
  Q 675.80 1120.51 733.25 1120.50
  Q 738.30 1120.50 740.27 1120.21
  C 749.43 1118.87 762.90 1119.82 774.42 1118.90
  C 781.65 1118.33 790.59 1118.85 799.50 1117.83
  Q 803.19 1117.41 815.81 1117.40
  C 817.90 1117.39 820.14 1116.61 822.40 1116.58
  Q 834.03 1116.43 834.73 1116.40
  A 16.83 16.63 -51.7 0 0 837.17 1116.10
  Q 839.96 1115.56 840.31 1115.56
  Q 847.77 1115.54 854.02 1114.74
  Q 854.69 1114.65 857.25 1114.37
  Q 877.82 1112.13 908.07 1108.33
  A 0.34 0.33 83.2 0 0 908.36 1107.95
  C 906.40 1091.38 903.46 1073.05 899.05 1057.62
  Q 896.19 1047.60 889.63 1038.17
  C 884.66 1031.03 877.66 1030.03 869.68 1027.81
  A 1.28 1.06 50.4 0 0 869.42 1027.76
  L 859.47 1026.48
  Q 850.45 1027.94 840.41 1027.69
  A 1.48 1.43 -60.6 0 0 839.51 1027.96
  L 839.05 1028.28
  A 1.11 1.07 27.6 0 1 838.40 1028.47
  Q 832.72 1028.31 827.75 1028.86
  C 820.50 1029.65 815.71 1029.23 808.37 1030.16
  Q 804.62 1030.63 797.67 1030.59
  Q 796.57 1030.58 795.10 1031.15
  A 3.78 3.78 0.0 0 1 793.75 1031.42
  L 781.69 1031.62
  A 8.21 7.41 -47.9 0 0 780.33 1031.76
  C 779.05 1032.01 778.39 1032.36 776.65 1032.39
  Q 772.29 1032.47 763.26 1032.50
  Q 762.54 1032.50 760.95 1033.22
  A 2.43 2.37 -56.4 0 1 759.97 1033.43
  Q 744.06 1033.51 732.51 1033.68
  Q 731.96 1033.69 730.86 1034.30
  A 1.12 1.12 0.0 0 1 730.30 1034.45
  Q 634.84 1034.73 537.50 1034.46
  Q 534.80 1034.46 534.13 1033.84
  A 0.65 0.65 0.0 0 0 533.67 1033.65
  L 505.76 1033.43
  A 1.98 1.90 -29.5 0 1 504.90 1033.21
  Q 503.50 1032.46 501.74 1032.46
  Q 495.73 1032.46 487.43 1032.45
  A 0.93 0.91 -24.0 0 1 486.82 1032.22
  L 486.52 1031.95
  A 1.70 1.67 65.2 0 0 485.41 1031.53
  L 471.79 1031.53
  A 1.44 1.43 -31.2 0 1 471.13 1031.37
  Q 470.66 1031.12 470.54 1031.03
  A 1.92 1.91 -25.8 0 0 469.41 1030.64
  L 457.82 1030.42
  A 2.14 2.13 -28.5 0 1 456.73 1030.10
  Q 456.03 1029.67 455.50 1029.67
  Q 445.66 1029.57 438.00 1028.94
  Z"
/>
<path fill="#ffffff" d="
  M 632.50 295.75
  Q 602.69 315.32 575.63 337.15
  C 555.43 353.44 536.36 372.54 523.25 395.21
  Q 502.70 430.73 503.34 471.03
  Q 503.56 484.59 505.43 495.51
  Q 509.74 520.73 518.80 545.54
  Q 525.24 563.16 531.51 578.03
  Q 532.02 579.25 532.34 583.18
  Q 525.29 579.02 522.73 576.02
  Q 517.15 569.46 516.85 569.15
  C 499.87 551.47 489.26 530.64 479.81 507.45
  C 473.16 491.11 469.13 472.79 468.93 454.91
  Q 468.88 450.23 469.63 444.09
  Q 475.93 392.81 509.63 353.39
  Q 514.87 347.26 526.81 336.34
  Q 541.03 323.34 561.75 312.93
  Q 587.11 300.20 615.74 296.26
  Q 624.59 295.04 632.50 295.75
  Z"
/>
<path fill="#e8e8e8" d="
  M 744.34 340.56
  Q 745.05 346.28 747.89 351.21
  A 8.39 8.20 -70.9 0 1 748.47 352.44
  Q 750.20 357.21 753.44 364.77
  Q 759.48 378.87 766.99 402.25
  Q 772.54 419.53 775.20 437.39
  C 775.64 440.35 775.59 442.98 776.30 445.92
  A 5.28 5.00 39.6 0 1 776.45 447.15
  Q 776.53 456.43 776.57 463.41
  C 776.66 477.15 774.17 491.33 771.30 504.09
  Q 765.42 530.13 756.63 557.74
  A 1.97 1.92 -42.0 0 0 756.57 558.69
  Q 756.82 560.01 756.22 561.63
  Q 751.51 566.78 746.99 572.13
  Q 742.18 577.81 739.38 579.75
  C 728.89 587.00 714.82 590.03 701.26 591.52
  Q 687.80 592.99 672.27 593.90
  Q 660.89 594.56 643.21 594.54
  Q 603.51 594.49 599.18 594.40
  Q 597.80 594.37 596.10 593.91
  A 7.42 7.16 -36.2 0 0 594.28 593.66
  Q 577.50 593.59 556.45 590.28
  Q 543.11 588.19 532.34 583.18
  Q 532.02 579.25 531.51 578.03
  Q 525.24 563.16 518.80 545.54
  Q 509.74 520.73 505.43 495.51
  Q 503.56 484.59 503.34 471.03
  Q 502.70 430.73 523.25 395.21
  C 536.36 372.54 555.43 353.44 575.63 337.15
  Q 602.69 315.32 632.50 295.75
  Q 638.08 295.10 644.07 295.67
  Q 694.86 300.51 734.53 332.29
  Q 737.55 334.71 740.59 337.19
  Q 742.62 338.85 744.34 340.56
  Z"
/>
<path fill="#afafaf" d="
  M 756.22 561.63
  Q 756.82 560.01 756.57 558.69
  A 1.97 1.92 -42.0 0 1 756.63 557.74
  Q 765.42 530.13 771.30 504.09
  C 774.17 491.33 776.66 477.15 776.57 463.41
  Q 776.53 456.43 776.45 447.15
  A 5.28 5.00 39.6 0 0 776.30 445.92
  C 775.59 442.98 775.64 440.35 775.20 437.39
  Q 772.54 419.53 766.99 402.25
  Q 759.48 378.87 753.44 364.77
  Q 750.20 357.21 748.47 352.44
  A 8.39 8.20 -70.9 0 0 747.89 351.21
  Q 745.05 346.28 744.34 340.56
  Q 762.90 357.95 774.29 377.95
  C 777.38 383.38 782.69 393.94 785.60 401.42
  Q 793.78 422.44 796.21 443.66
  C 796.57 446.81 796.51 450.02 797.07 453.20
  A 7.77 7.31 43.3 0 1 797.17 454.84
  Q 795.92 485.20 784.19 512.58
  Q 778.04 526.93 773.11 536.27
  Q 766.00 549.72 756.22 561.63
  Z"
/>
<path fill="#ffffff" d="
  M 566.80 623.60
  Q 559.93 649.64 538.96 666.16
  Q 532.00 671.65 521.45 678.46
  Q 511.11 685.13 497.58 691.36
  A 0.18 0.18 0.0 0 0 497.64 691.71
  Q 527.83 694.30 552.01 695.89
  Q 556.45 696.18 557.43 696.27
  Q 565.30 696.94 573.48 697.27
  Q 579.41 697.51 580.66 697.67
  Q 583.63 698.03 587.85 698.05
  Q 591.10 698.07 596.73 698.71
  C 600.73 699.17 604.89 698.85 608.86 699.50
  Q 611.23 699.89 616.77 700.06
  Q 619.28 700.13 624.67 700.78
  Q 628.46 701.23 639.22 701.70
  Q 646.09 702.00 653.74 702.79
  Q 684.84 706.01 705.60 708.39
  Q 711.71 709.09 714.28 709.50
  Q 714.61 709.55 714.57 709.83
  Q 714.54 710.10 714.29 710.30
  Q 635.77 710.35 557.25 710.28
  Q 549.31 710.27 546.46 709.66
  A 4.18 4.10 50.3 0 0 545.47 709.56
  Q 536.99 709.64 517.28 709.33
  Q 515.19 709.29 513.08 708.73
  A 6.24 5.95 50.8 0 0 511.32 708.51
  C 499.95 708.78 487.33 707.76 477.96 707.46
  Q 455.84 706.73 433.63 702.33
  C 431.70 701.94 430.37 701.08 428.31 701.49
  A 0.15 0.15 0.0 0 1 428.20 701.22
  C 440.26 694.26 453.13 687.30 466.19 681.79
  C 470.67 679.90 474.60 677.69 480.28 675.15
  C 487.28 672.01 498.96 666.35 508.47 662.24
  Q 523.89 655.57 535.12 642.61
  Q 540.02 636.96 544.00 627.98
  Q 545.28 625.09 545.66 620.80
  A 0.53 0.52 -87.6 0 1 546.18 620.31
  Q 548.30 620.31 549.90 620.77
  C 552.79 621.60 554.54 621.23 557.04 622.02
  Q 557.93 622.30 560.44 622.38
  Q 563.49 622.48 566.80 623.60
  Z"
/>
<path fill="#afafaf" d="
  M 739.75 709.02
  Q 761.49 702.68 782.56 695.69
  Q 782.87 695.58 783.98 695.42
  Q 785.50 695.20 785.60 695.13
  A 0.25 0.25 0.0 0 0 785.52 694.67
  Q 784.74 694.49 769.49 686.84
  Q 766.78 685.48 753.48 679.30
  Q 740.28 673.15 729.50 665.99
  Q 725.26 663.17 718.30 657.20
  Q 716.50 655.66 715.47 654.28
  C 713.22 651.28 710.76 649.27 708.60 645.95
  Q 703.31 637.83 701.97 635.28
  Q 699.82 631.21 697.32 623.65
  L 713.64 621.43
  A 4.68 4.63 -57.8 0 0 714.54 621.22
  Q 716.67 620.49 719.84 620.38
  A 0.63 0.63 0.0 0 1 720.48 620.89
  C 720.58 621.46 720.42 622.01 720.65 623.02
  Q 722.73 631.86 728.57 639.22
  Q 733.41 645.32 735.06 647.24
  A 1.29 0.53 67.5 0 0 735.20 647.38
  L 744.88 655.96
  A 2.02 1.37 0.5 0 0 745.17 656.16
  Q 747.63 657.59 751.29 659.19
  Q 757.08 661.71 767.00 666.43
  Q 769.22 667.49 771.50 668.55
  Q 785.03 674.84 797.47 680.05
  C 800.88 681.47 804.12 684.00 806.74 685.04
  Q 814.19 687.99 821.36 691.90
  Q 823.15 692.87 837.55 700.87
  A 0.39 0.39 0.0 0 1 837.32 701.60
  C 835.13 701.38 833.56 702.05 831.33 702.57
  Q 828.72 703.17 816.38 704.92
  Q 804.21 706.65 798.39 706.64
  C 796.75 706.63 794.07 707.32 791.87 707.37
  Q 787.44 707.48 777.69 707.55
  C 774.16 707.58 771.18 708.37 767.86 708.39
  Q 754.04 708.47 739.75 709.02
  Z"
/>
<path fill="#e8e8e8" d="
  M 697.32 623.65
  Q 699.82 631.21 701.97 635.28
  Q 703.31 637.83 708.60 645.95
  C 710.76 649.27 713.22 651.28 715.47 654.28
  Q 716.50 655.66 718.30 657.20
  Q 725.26 663.17 729.50 665.99
  Q 740.28 673.15 753.48 679.30
  Q 766.78 685.48 769.49 686.84
  Q 784.74 694.49 785.52 694.67
  A 0.25 0.25 0.0 0 1 785.60 695.13
  Q 785.50 695.20 783.98 695.42
  Q 782.87 695.58 782.56 695.69
  Q 761.49 702.68 739.75 709.02
  L 720.43 709.72
  A 1.40 1.26 -48.1 0 0 720.15 709.75
  Q 717.22 710.34 714.29 710.30
  Q 714.54 710.10 714.57 709.83
  Q 714.61 709.55 714.28 709.50
  Q 711.71 709.09 705.60 708.39
  Q 684.84 706.01 653.74 702.79
  Q 646.09 702.00 639.22 701.70
  Q 628.46 701.23 624.67 700.78
  Q 619.28 700.13 616.77 700.06
  Q 611.23 699.89 608.86 699.50
  C 604.89 698.85 600.73 699.17 596.73 698.71
  Q 591.10 698.07 587.85 698.05
  Q 583.63 698.03 580.66 697.67
  Q 579.41 697.51 573.48 697.27
  Q 565.30 696.94 557.43 696.27
  Q 556.45 696.18 552.01 695.89
  Q 527.83 694.30 497.64 691.71
  A 0.18 0.18 0.0 0 1 497.58 691.36
  Q 511.11 685.13 521.45 678.46
  Q 532.00 671.65 538.96 666.16
  Q 559.93 649.64 566.80 623.60
  Q 571.89 623.06 577.43 624.25
  A 8.41 8.37 -38.4 0 0 579.11 624.44
  L 591.80 624.65
  A 1.22 1.16 -22.6 0 1 592.56 624.94
  L 593.16 625.47
  A 0.52 0.50 65.7 0 0 593.51 625.61
  L 671.87 625.53
  A 2.78 2.75 -61.4 0 0 673.38 625.08
  Q 673.41 625.06 673.65 624.91
  A 1.87 1.80 -60.1 0 1 674.55 624.65
  L 687.65 624.40
  A 1.42 1.34 35.5 0 0 688.02 624.35
  Q 693.03 623.05 697.32 623.65
  Z"
/>
<path fill="#e8e8e8" d="
  M 684.20 741.50
  Q 684.71 741.81 685.00 741.82
  A 0.74 0.74 0.0 0 1 685.65 742.90
  Q 684.50 745.12 684.50 747.26
  Q 684.49 754.08 684.35 760.86
  A 11.65 11.52 -38.9 0 1 684.11 763.00
  Q 683.66 765.14 683.66 765.75
  Q 683.52 785.45 683.67 791.00
  Q 683.70 792.08 684.21 794.27
  A 8.93 8.66 39.6 0 1 684.44 796.35
  Q 684.40 805.14 684.71 812.54
  C 684.77 814.00 685.49 816.08 685.46 817.92
  Q 685.42 820.15 686.05 825.69
  Q 687.74 840.65 690.34 853.44
  Q 694.75 875.06 703.44 895.56
  C 711.48 914.53 720.58 930.52 730.38 947.93
  Q 738.27 961.96 742.14 971.09
  C 744.13 975.77 746.10 980.95 745.45 984.90
  A 1.74 1.71 72.6 0 1 744.97 985.84
  L 740.94 989.85
  A 1.34 1.34 0.0 0 1 740.17 990.23
  C 734.76 991.02 732.52 991.55 729.02 991.62
  Q 727.59 991.65 725.56 992.06
  C 721.75 992.82 717.95 992.34 714.30 992.95
  C 709.77 993.70 707.05 993.47 701.24 993.62
  Q 700.03 993.65 694.28 994.17
  Q 690.84 994.49 685.50 994.50
  Q 667.07 994.53 599.22 994.45
  Q 584.95 994.44 570.82 995.67
  Q 555.13 997.04 539.49 998.95
  Q 532.55 999.79 525.64 1001.80
  Q 516.58 1002.37 513.31 1002.45
  Q 511.10 1002.50 508.27 1001.72
  A 4.30 4.06 50.8 0 0 507.20 1001.58
  Q 490.81 1001.81 474.00 1000.54
  Q 473.40 991.51 480.00 984.51
  Q 484.21 980.04 488.76 977.01
  Q 499.03 970.15 505.79 965.79
  C 533.51 947.88 554.32 924.52 566.96 893.47
  Q 573.80 876.66 578.53 856.29
  Q 583.50 834.87 586.50 814.31
  Q 591.51 780.02 594.50 745.89
  A 0.73 0.72 -2.1 0 1 595.11 745.24
  L 618.30 741.55
  A 0.49 0.48 86.5 0 0 618.71 741.08
  L 618.71 740.70
  C 620.93 740.36 621.57 741.55 623.50 741.54
  Q 653.86 741.42 684.20 741.50
  Z"
/>
<path fill="#ffffff" d="
  M 618.71 740.70
  L 618.71 741.08
  A 0.49 0.48 86.5 0 1 618.30 741.55
  L 595.11 745.24
  A 0.73 0.72 -2.1 0 0 594.50 745.89
  Q 591.51 780.02 586.50 814.31
  Q 583.50 834.87 578.53 856.29
  Q 573.80 876.66 566.96 893.47
  C 554.32 924.52 533.51 947.88 505.79 965.79
  Q 499.03 970.15 488.76 977.01
  Q 484.21 980.04 480.00 984.51
  Q 473.40 991.51 474.00 1000.54
  L 450.05 999.26
  A 2.65 2.63 83.3 0 1 447.66 997.36
  C 444.75 987.31 448.58 975.71 455.51 968.44
  Q 459.36 964.40 464.83 960.59
  Q 476.59 952.39 487.88 944.39
  Q 500.64 935.35 512.75 923.25
  C 528.14 907.85 538.89 889.70 546.31 868.82
  C 556.11 841.26 561.10 811.21 564.62 782.46
  Q 566.96 763.40 568.76 742.10
  A 1.06 1.06 0.0 0 1 569.43 741.21
  Q 571.33 740.46 573.50 740.48
  Q 596.10 740.66 618.71 740.70
  Z"
/>
<path fill="#afafaf" d="
  M 525.64 1001.80
  Q 532.55 999.79 539.49 998.95
  Q 555.13 997.04 570.82 995.67
  Q 584.95 994.44 599.22 994.45
  Q 667.07 994.53 685.50 994.50
  Q 690.84 994.49 694.28 994.17
  Q 700.03 993.65 701.24 993.62
  C 707.05 993.47 709.77 993.70 714.30 992.95
  C 717.95 992.34 721.75 992.82 725.56 992.06
  Q 727.59 991.65 729.02 991.62
  C 732.52 991.55 734.76 991.02 740.17 990.23
  A 1.34 1.34 0.0 0 0 740.94 989.85
  L 744.97 985.84
  A 1.74 1.71 72.6 0 0 745.45 984.90
  C 746.10 980.95 744.13 975.77 742.14 971.09
  Q 738.27 961.96 730.38 947.93
  C 720.58 930.52 711.48 914.53 703.44 895.56
  Q 694.75 875.06 690.34 853.44
  Q 687.74 840.65 686.05 825.69
  Q 685.42 820.15 685.46 817.92
  C 685.49 816.08 684.77 814.00 684.71 812.54
  Q 684.40 805.14 684.44 796.35
  A 8.93 8.66 39.6 0 0 684.21 794.27
  Q 683.70 792.08 683.67 791.00
  Q 683.52 785.45 683.66 765.75
  Q 683.66 765.14 684.11 763.00
  A 11.65 11.52 -38.9 0 0 684.35 760.86
  Q 684.49 754.08 684.50 747.26
  Q 684.50 745.12 685.65 742.90
  A 0.74 0.74 0.0 0 0 685.00 741.82
  Q 684.71 741.81 684.20 741.50
  L 697.00 741.47
  A 0.53 0.53 0.0 0 1 697.53 742.05
  Q 697.09 747.21 697.87 750.62
  C 698.76 754.55 698.10 758.77 699.25 762.55
  A 1.89 1.88 35.4 0 1 699.33 763.02
  L 699.59 768.73
  A 0.99 0.86 33.9 0 0 699.69 769.10
  Q 700.00 769.73 700.51 774.74
  Q 702.11 790.53 705.29 809.51
  C 709.88 836.92 716.06 863.43 727.00 886.07
  Q 732.14 896.71 742.42 910.70
  C 746.95 916.88 752.58 921.87 759.36 928.64
  Q 765.29 934.56 774.48 941.37
  Q 785.31 949.39 798.65 958.46
  Q 801.02 960.07 804.31 962.69
  C 807.31 965.07 809.61 966.58 811.48 968.87
  C 817.04 975.69 818.24 980.91 819.33 989.86
  C 819.68 992.75 818.28 995.61 818.37 997.81
  A 0.59 0.59 0.0 0 1 817.86 998.42
  Q 811.65 999.31 808.46 999.40
  C 801.39 999.59 796.23 1000.48 788.64 1000.55
  C 785.20 1000.58 782.35 1001.36 779.14 1001.37
  Q 769.92 1001.41 760.92 1001.52
  Q 757.26 1001.56 753.60 1002.12
  Q 751.26 1002.48 746.26 1002.47
  Q 744.10 1002.47 726.69 1002.57
  C 723.81 1002.58 721.33 1003.41 718.59 1003.42
  Q 636.18 1003.58 549.07 1003.42
  C 545.45 1003.42 541.45 1002.52 537.96 1002.42
  Q 532.04 1002.26 525.64 1001.80
  Z"
/>
<path fill="#e8e8e8" d="
  M 859.47 1026.48
  Q 868.97 1045.71 872.81 1066.32
  Q 873.61 1070.63 873.64 1073.74
  Q 873.68 1079.03 873.39 1081.22
  C 872.44 1088.44 865.40 1092.04 858.76 1093.29
  Q 844.31 1096.01 831.74 1097.42
  C 829.44 1097.68 826.88 1097.48 824.81 1098.02
  C 821.53 1098.86 817.38 1098.38 813.98 1099.00
  C 809.44 1099.83 804.05 1099.38 800.26 1099.96
  Q 795.27 1100.72 792.20 1100.52
  Q 789.34 1100.33 780.51 1101.26
  C 776.09 1101.72 768.35 1101.32 761.53 1102.30
  Q 759.77 1102.55 746.79 1102.67
  C 744.28 1102.70 741.88 1103.31 739.69 1103.39
  Q 735.82 1103.53 723.51 1103.68
  Q 722.95 1103.69 720.93 1104.21
  A 6.60 6.47 -51.9 0 1 719.41 1104.41
  L 703.89 1104.56
  A 3.22 2.83 34.7 0 0 703.19 1104.64
  C 695.10 1106.45 687.30 1104.84 681.92 1106.19
  A 6.87 6.32 34.4 0 1 680.61 1106.38
  L 646.92 1107.66
  A 0.76 0.70 -47.4 0 0 646.80 1107.67
  C 644.54 1107.95 643.04 1108.45 640.55 1108.45
  C 633.70 1108.44 628.60 1108.01 625.48 1109.04
  A 7.20 7.10 -54.3 0 1 623.37 1109.40
  Q 615.89 1109.48 611.33 1109.59
  C 608.91 1109.65 606.35 1110.48 603.52 1110.46
  Q 595.56 1110.40 589.47 1111.08
  C 582.08 1111.91 576.71 1111.30 569.48 1112.17
  Q 565.58 1112.64 557.89 1112.53
  A 25.27 25.15 41.3 0 0 554.01 1112.77
  C 551.91 1113.06 550.25 1113.48 547.79 1113.43
  C 539.17 1113.24 531.74 1114.65 523.50 1114.64
  Q 521.21 1114.64 515.52 1115.26
  Q 502.86 1116.64 499.78 1116.95
  Q 491.88 1117.74 483.75 1117.92
  Q 476.21 1118.67 468.50 1118.24
  C 466.78 1118.14 465.15 1117.51 463.56 1117.58
  Q 459.23 1117.77 443.25 1116.87
  Q 407.10 1114.85 379.02 1110.95
  C 379.82 1108.82 380.97 1106.72 381.59 1104.67
  C 385.62 1091.24 390.06 1076.11 396.74 1061.52
  Q 403.00 1047.85 414.78 1039.80
  Q 418.06 1037.56 426.21 1033.99
  Q 431.81 1031.54 438.00 1028.94
  Q 445.66 1029.57 455.50 1029.67
  Q 456.03 1029.67 456.73 1030.10
  A 2.14 2.13 -28.5 0 0 457.82 1030.42
  L 469.41 1030.64
  A 1.92 1.91 -25.8 0 1 470.54 1031.03
  Q 470.66 1031.12 471.13 1031.37
  A 1.44 1.43 -31.2 0 0 471.79 1031.53
  L 485.41 1031.53
  A 1.70 1.67 65.2 0 1 486.52 1031.95
  L 486.82 1032.22
  A 0.93 0.91 -24.0 0 0 487.43 1032.45
  Q 495.73 1032.46 501.74 1032.46
  Q 503.50 1032.46 504.90 1033.21
  A 1.98 1.90 -29.5 0 0 505.76 1033.43
  L 533.67 1033.65
  A 0.65 0.65 0.0 0 1 534.13 1033.84
  Q 534.80 1034.46 537.50 1034.46
  Q 634.84 1034.73 730.30 1034.45
  A 1.12 1.12 0.0 0 0 730.86 1034.30
  Q 731.96 1033.69 732.51 1033.68
  Q 744.06 1033.51 759.97 1033.43
  A 2.43 2.37 -56.4 0 0 760.95 1033.22
  Q 762.54 1032.50 763.26 1032.50
  Q 772.29 1032.47 776.65 1032.39
  C 778.39 1032.36 779.05 1032.01 780.33 1031.76
  A 8.21 7.41 -47.9 0 1 781.69 1031.62
  L 793.75 1031.42
  A 3.78 3.78 0.0 0 0 795.10 1031.15
  Q 796.57 1030.58 797.67 1030.59
  Q 804.62 1030.63 808.37 1030.16
  C 815.71 1029.23 820.50 1029.65 827.75 1028.86
  Q 832.72 1028.31 838.40 1028.47
  A 1.11 1.07 27.6 0 0 839.05 1028.28
  L 839.51 1027.96
  A 1.48 1.43 -60.6 0 1 840.41 1027.69
  Q 850.45 1027.94 859.47 1026.48
  Z"
/>
<path fill="#afafaf" d="
  M 483.75 1117.92
  Q 491.88 1117.74 499.78 1116.95
  Q 502.86 1116.64 515.52 1115.26
  Q 521.21 1114.64 523.50 1114.64
  C 531.74 1114.65 539.17 1113.24 547.79 1113.43
  C 550.25 1113.48 551.91 1113.06 554.01 1112.77
  A 25.27 25.15 41.3 0 1 557.89 1112.53
  Q 565.58 1112.64 569.48 1112.17
  C 576.71 1111.30 582.08 1111.91 589.47 1111.08
  Q 595.56 1110.40 603.52 1110.46
  C 606.35 1110.48 608.91 1109.65 611.33 1109.59
  Q 615.89 1109.48 623.37 1109.40
  A 7.20 7.10 -54.3 0 0 625.48 1109.04
  C 628.60 1108.01 633.70 1108.44 640.55 1108.45
  C 643.04 1108.45 644.54 1107.95 646.80 1107.67
  A 0.76 0.70 -47.4 0 1 646.92 1107.66
  L 680.61 1106.38
  A 6.87 6.32 34.4 0 0 681.92 1106.19
  C 687.30 1104.84 695.10 1106.45 703.19 1104.64
  A 3.22 2.83 34.7 0 1 703.89 1104.56
  L 719.41 1104.41
  A 6.60 6.47 -51.9 0 0 720.93 1104.21
  Q 722.95 1103.69 723.51 1103.68
  Q 735.82 1103.53 739.69 1103.39
  C 741.88 1103.31 744.28 1102.70 746.79 1102.67
  Q 759.77 1102.55 761.53 1102.30
  C 768.35 1101.32 776.09 1101.72 780.51 1101.26
  Q 789.34 1100.33 792.20 1100.52
  Q 795.27 1100.72 800.26 1099.96
  C 804.05 1099.38 809.44 1099.83 813.98 1099.00
  C 817.38 1098.38 821.53 1098.86 824.81 1098.02
  C 826.88 1097.48 829.44 1097.68 831.74 1097.42
  Q 844.31 1096.01 858.76 1093.29
  C 865.40 1092.04 872.44 1088.44 873.39 1081.22
  Q 873.68 1079.03 873.64 1073.74
  Q 873.61 1070.63 872.81 1066.32
  Q 868.97 1045.71 859.47 1026.48
  L 869.42 1027.76
  A 1.28 1.06 50.4 0 1 869.68 1027.81
  C 877.66 1030.03 884.66 1031.03 889.63 1038.17
  Q 896.19 1047.60 899.05 1057.62
  C 903.46 1073.05 906.40 1091.38 908.36 1107.95
  A 0.34 0.33 83.2 0 1 908.07 1108.33
  Q 877.82 1112.13 857.25 1114.37
  Q 854.69 1114.65 854.02 1114.74
  Q 847.77 1115.54 840.31 1115.56
  Q 839.96 1115.56 837.17 1116.10
  A 16.83 16.63 -51.7 0 1 834.73 1116.40
  Q 834.03 1116.43 822.40 1116.58
  C 820.14 1116.61 817.90 1117.39 815.81 1117.40
  Q 803.19 1117.41 799.50 1117.83
  C 790.59 1118.85 781.65 1118.33 774.42 1118.90
  C 762.90 1119.82 749.43 1118.87 740.27 1120.21
  Q 738.30 1120.50 733.25 1120.50
  Q 675.80 1120.51 529.25 1120.49
  Q 526.05 1120.49 523.59 1119.77
  A 2.83 2.73 -34.7 0 0 522.85 1119.65
  Q 509.38 1119.23 499.59 1119.00
  C 494.86 1118.89 489.10 1118.02 483.75 1117.92
  Z"
/>
<path fill="#ffffff" d="
  M 438.00 1028.94
  Q 431.81 1031.54 426.21 1033.99
  Q 418.06 1037.56 414.78 1039.80
  Q 403.00 1047.85 396.74 1061.52
  C 390.06 1076.11 385.62 1091.24 381.59 1104.67
  C 380.97 1106.72 379.82 1108.82 379.02 1110.95
  L 358.54 1108.56
  A 1.10 1.09 6.8 0 1 357.58 1107.35
  Q 360.01 1087.78 364.72 1066.36
  C 367.20 1055.04 370.45 1046.79 376.79 1038.01
  Q 379.31 1034.52 382.03 1033.03
  Q 396.08 1025.31 412.74 1027.09
  Q 413.77 1027.20 427.53 1027.79
  Q 428.11 1027.81 428.83 1028.24
  A 1.39 1.32 -26.0 0 0 429.47 1028.44
  L 438.00 1028.94
  Z"
/>
</svg>
