<?xml version="1.0" encoding="UTF-8" ?>
<!DOCTYPE svg PUBLIC "-//W3C//DTD SVG 1.1//EN" "http://www.w3.org/Graphics/SVG/1.1/DTD/svg11.dtd">
<svg width="640pt" height="640pt" viewBox="0 0 640 640" version="1.1" xmlns="http://www.w3.org/2000/svg">
<path fill="#30302f" stroke="#30302f" stroke-width="0.09375" opacity="1.00" d=" M 273.54 90.66 C 282.70 89.56 291.76 87.65 300.98 87.13 C 316.01 86.24 331.17 86.31 346.09 88.43 C 351.20 89.35 356.37 89.87 361.50 90.72 C 360.41 108.88 361.82 127.05 361.86 145.22 C 361.96 147.63 362.36 150.02 362.79 152.39 C 363.88 161.41 365.87 170.30 368.82 178.89 C 373.51 176.24 376.87 171.68 378.17 166.48 C 380.62 157.20 379.52 147.50 379.00 138.05 C 378.33 127.48 378.19 116.88 378.17 106.29 C 396.73 104.29 415.32 101.99 434.03 102.08 C 452.53 102.13 470.90 104.54 489.24 106.69 C 489.01 110.14 489.02 113.60 489.24 117.05 C 490.71 138.60 489.99 160.21 490.03 181.79 C 483.94 184.21 477.83 186.57 471.75 189.01 C 471.85 204.21 472.54 219.75 468.43 234.54 C 465.85 244.02 459.57 251.95 452.34 258.39 C 453.23 268.15 452.49 278.61 446.99 287.03 C 440.85 296.85 429.99 302.08 419.64 306.30 C 422.34 332.49 425.62 358.65 430.69 384.50 C 437.91 421.78 448.67 458.27 460.58 494.29 C 470.22 494.63 480.62 496.17 488.10 502.81 C 497.23 510.75 500.87 522.97 502.67 534.53 C 504.24 544.71 504.69 555.01 505.25 565.28 C 483.14 568.23 461.02 571.24 438.75 572.70 C 416.21 574.40 393.61 575.20 371.03 575.96 C 342.69 576.05 314.35 575.98 286.02 576.00 C 261.39 576.27 236.78 575.03 212.21 573.93 C 185.32 572.92 158.58 569.67 131.95 565.91 C 131.31 565.76 130.02 565.47 129.38 565.32 C 130.00 552.35 130.53 539.27 133.48 526.58 C 135.84 516.77 140.45 506.84 148.95 500.91 C 156.29 495.73 165.52 494.68 174.24 494.24 C 182.76 467.93 190.99 441.50 197.50 414.61 C 206.25 379.04 211.63 342.71 215.12 306.28 C 205.24 302.28 195.01 297.38 188.70 288.42 C 182.52 279.85 181.30 268.77 182.43 258.53 C 177.81 254.11 173.27 249.48 170.16 243.84 C 165.23 235.11 163.87 224.95 163.20 215.10 C 162.82 206.43 162.54 197.74 163.01 189.06 C 156.78 186.53 150.50 184.14 144.25 181.68 C 144.25 166.78 144.19 151.88 144.27 136.99 C 144.74 126.87 145.16 116.75 145.50 106.62 C 163.61 104.63 181.73 102.16 199.99 102.08 C 218.99 101.94 237.88 104.27 256.73 106.29 C 256.50 115.85 256.62 125.43 255.99 134.98 C 255.59 145.66 253.87 156.65 256.86 167.12 C 258.23 172.09 261.58 176.38 266.11 178.86 C 269.24 169.50 271.55 159.83 272.25 149.97 C 273.65 130.23 272.81 110.42 273.54 90.66 M 289.37 106.99 C 289.40 115.67 289.64 124.36 289.02 133.03 C 289.18 149.68 287.49 166.49 282.54 182.44 C 280.85 187.72 279.85 193.19 278.76 198.62 C 270.26 196.97 261.52 194.91 254.39 189.75 C 246.33 183.94 241.56 174.57 240.21 164.86 C 238.12 150.00 240.85 135.04 240.64 120.13 C 218.20 117.19 195.42 116.52 172.90 118.95 C 168.85 119.29 164.82 120.00 160.75 120.04 C 160.18 129.67 160.64 139.35 160.43 149.00 C 160.67 156.26 159.27 163.54 160.46 170.77 C 166.04 174.51 172.73 175.81 178.95 178.12 C 178.88 186.76 178.78 195.41 179.06 204.05 C 179.96 215.64 179.76 228.00 185.72 238.40 C 191.11 247.35 201.59 251.13 211.21 253.59 C 238.18 260.49 266.15 263.31 293.94 264.82 C 307.86 265.37 321.86 266.17 335.76 264.81 C 353.52 264.63 371.27 262.76 388.87 260.35 C 406.05 256.72 424.46 255.98 440.04 247.10 C 448.40 242.50 452.36 233.14 453.67 224.11 C 455.91 208.84 455.90 193.34 455.75 177.96 C 461.03 176.32 466.42 174.90 471.37 172.39 C 472.36 171.67 474.11 171.39 474.16 169.88 C 475.06 162.96 474.13 155.96 474.00 149.01 C 473.99 139.37 474.00 129.73 474.00 120.09 C 462.62 119.25 451.28 117.58 439.85 117.56 C 424.65 117.18 409.43 118.17 394.36 120.13 C 394.19 131.78 395.84 143.37 395.52 155.03 C 395.56 166.26 392.83 178.46 384.39 186.44 C 377.02 194.08 366.26 196.65 356.21 198.64 C 355.06 193.23 354.08 187.76 352.38 182.48 C 347.84 167.44 345.87 151.70 345.97 136.00 C 345.32 126.37 345.61 116.71 345.59 107.06 C 336.67 104.33 327.24 103.93 317.97 103.99 C 308.39 103.91 298.63 104.27 289.37 106.99 M 198.33 266.03 C 199.04 270.22 199.43 274.62 201.60 278.37 C 204.86 284.25 210.89 288.00 217.11 290.14 C 227.29 293.71 238.05 295.82 248.81 296.45 C 275.32 298.90 302.11 300.62 328.79 299.82 C 342.55 299.84 356.32 298.78 370.07 297.84 C 380.43 296.89 390.90 296.67 401.13 294.53 C 410.38 292.65 420.05 290.51 427.76 284.73 C 433.52 280.38 435.74 272.97 436.07 266.03 C 428.90 268.79 421.44 270.74 413.95 272.37 C 408.53 273.36 403.05 274.74 397.51 274.23 L 397.47 274.79 C 380.40 276.95 363.29 279.07 346.09 279.89 C 333.06 280.28 320.00 281.55 306.97 280.55 C 291.92 280.33 276.88 279.24 261.90 277.77 C 251.93 276.83 242.07 274.98 232.08 274.18 C 226.64 273.70 221.36 272.23 215.96 271.47 L 215.84 271.26 C 209.97 269.63 204.13 267.91 198.33 266.03 M 231.05 309.84 C 226.75 350.06 221.05 390.27 210.65 429.43 C 204.74 452.01 197.53 474.23 190.25 496.41 C 194.54 496.96 198.84 497.49 203.13 498.03 C 211.77 498.68 220.40 499.62 229.05 500.17 C 238.35 501.23 247.72 500.85 257.05 501.57 C 264.34 502.30 271.67 501.85 278.98 502.08 C 287.97 502.77 297.00 502.37 306.01 502.48 C 316.80 502.30 327.64 502.80 338.41 502.25 C 347.62 502.94 356.81 501.80 366.03 502.00 C 375.35 502.19 384.62 500.71 393.95 501.00 C 410.71 500.10 427.41 498.21 444.10 496.48 C 443.33 492.35 441.67 488.47 440.43 484.48 C 436.62 472.65 432.84 460.80 429.38 448.86 C 415.85 403.65 408.38 356.87 403.79 309.97 C 402.20 310.16 400.62 310.36 399.04 310.54 C 395.00 311.02 391.01 311.87 386.94 311.96 C 367.10 314.86 346.94 314.31 326.95 315.36 C 310.36 315.70 293.80 314.78 277.22 314.32 C 270.86 313.56 264.14 314.51 257.99 312.71 C 253.24 312.17 248.46 312.03 243.70 311.67 C 239.46 311.22 235.25 310.54 231.05 309.84 M 158.14 514.26 C 155.07 517.62 152.81 521.74 151.38 526.05 C 148.89 534.63 147.63 543.50 146.45 552.34 C 150.90 552.74 155.30 553.52 159.74 553.98 C 187.06 557.32 214.56 558.97 242.04 560.00 C 262.60 560.87 283.21 561.42 303.80 560.73 C 324.88 561.30 345.98 560.87 367.06 560.98 C 374.36 560.22 381.70 560.78 389.00 560.09 C 422.09 559.15 455.15 556.64 487.99 552.42 C 487.21 546.28 486.46 540.13 485.16 534.08 C 483.98 528.63 482.89 522.97 479.71 518.27 C 476.16 511.37 467.33 510.85 460.52 510.48 C 457.07 510.53 453.61 510.37 450.18 510.65 C 428.11 513.72 405.86 515.84 383.59 516.63 C 369.43 517.91 355.18 517.14 340.99 517.91 C 321.66 517.71 302.31 518.29 283.00 517.50 C 252.83 517.65 222.71 515.18 192.74 511.96 C 185.66 510.15 178.29 510.37 171.05 510.55 C 166.62 511.09 161.91 511.69 158.14 514.26 Z" />
<path fill="#151514" stroke="#151514" stroke-width="0.09375" opacity="0.73" d=" M 361.50 90.72 C 361.88 104.79 362.12 118.88 362.00 132.96 C 361.80 139.46 362.91 145.90 362.79 152.39 C 362.36 150.02 361.96 147.63 361.86 145.22 C 361.82 127.05 360.41 108.88 361.50 90.72 Z" />
<path fill="#e8e8e8" stroke="#e8e8e8" stroke-width="0.09375" opacity="1.00" d=" M 289.37 106.99 C 298.63 104.27 308.39 103.91 317.97 103.99 C 327.24 103.93 336.67 104.33 345.59 107.06 C 345.61 116.71 345.32 126.37 345.97 136.00 C 345.87 151.70 347.84 167.44 352.38 182.48 C 354.08 187.76 355.06 193.23 356.21 198.64 C 366.26 196.65 377.02 194.08 384.39 186.44 C 392.83 178.46 395.56 166.26 395.52 155.03 C 395.84 143.37 394.19 131.78 394.36 120.13 C 409.43 118.17 424.65 117.18 439.85 117.56 C 447.07 131.67 447.22 148.04 445.66 163.46 C 443.79 181.75 438.44 200.28 427.09 215.03 C 416.07 228.74 401.10 238.58 385.62 246.57 C 369.48 253.89 352.36 258.68 335.76 264.81 C 321.86 266.17 307.86 265.37 293.94 264.82 C 266.15 263.31 238.18 260.49 211.21 253.59 C 203.24 240.23 191.57 227.46 191.50 211.02 C 191.68 198.07 191.94 185.11 192.46 172.17 C 192.35 171.28 192.74 169.94 191.71 169.46 C 185.96 166.12 179.21 164.88 173.47 161.53 C 172.34 159.98 172.85 157.80 172.64 155.99 C 172.87 143.65 172.41 131.29 172.90 118.95 C 195.42 116.52 218.20 117.19 240.64 120.13 C 240.85 135.04 238.12 150.00 240.21 164.86 C 241.56 174.57 246.33 183.94 254.39 189.75 C 261.52 194.91 270.26 196.97 278.76 198.62 C 279.85 193.19 280.85 187.72 282.54 182.44 C 287.49 166.49 289.18 149.68 289.02 133.03 C 289.64 124.36 289.40 115.67 289.37 106.99 Z" />
<path fill="#0a0a09" stroke="#0a0a09" stroke-width="0.09375" opacity="0.44" d=" M 489.24 106.69 C 490.27 116.08 489.60 125.57 490.60 134.98 C 490.94 150.59 490.63 166.21 490.82 181.82 L 490.03 181.79 C 489.99 160.21 490.71 138.60 489.24 117.05 C 489.02 113.60 489.01 110.14 489.24 106.69 Z" />
<path fill="#afafaf" stroke="#afafaf" stroke-width="0.09375" opacity="1.00" d=" M 439.85 117.56 C 451.28 117.58 462.62 119.25 474.00 120.09 C 474.00 129.73 473.99 139.37 474.00 149.01 C 474.13 155.96 475.06 162.96 474.16 169.88 C 474.11 171.39 472.36 171.67 471.37 172.39 C 466.42 174.90 461.03 176.32 455.75 177.96 C 455.90 193.34 455.91 208.84 453.67 224.11 C 452.36 233.14 448.40 242.50 440.04 247.10 C 424.46 255.98 406.05 256.72 388.87 260.35 C 371.27 262.76 353.52 264.63 335.76 264.81 C 352.36 258.68 369.48 253.89 385.62 246.57 C 401.10 238.58 416.07 228.74 427.09 215.03 C 438.44 200.28 443.79 181.75 445.66 163.46 C 447.22 148.04 447.07 131.67 439.85 117.56 Z" />
<path fill="#ffffff" stroke="#ffffff" stroke-width="0.09375" opacity="1.00" d=" M 160.75 120.04 C 164.82 120.00 168.85 119.29 172.90 118.95 C 172.41 131.29 172.87 143.65 172.64 155.99 C 172.85 157.80 172.34 159.98 173.47 161.53 C 179.21 164.88 185.96 166.12 191.71 169.46 C 192.74 169.94 192.35 171.28 192.46 172.17 C 191.94 185.11 191.68 198.07 191.50 211.02 C 191.57 227.46 203.24 240.23 211.21 253.59 C 201.59 251.13 191.11 247.35 185.72 238.40 C 179.76 228.00 179.96 215.64 179.06 204.05 C 178.78 195.41 178.88 186.76 178.95 178.12 C 172.73 175.81 166.04 174.51 160.46 170.77 C 159.27 163.54 160.67 156.26 160.43 149.00 C 160.64 139.35 160.18 129.67 160.75 120.04 Z" />
<path fill="#ffffff" stroke="#ffffff" stroke-width="0.09375" opacity="1.00" d=" M 198.33 266.03 C 204.13 267.91 209.97 269.63 215.84 271.26 L 215.96 271.47 C 218.76 276.98 224.22 280.35 229.04 283.92 C 235.39 288.49 242.67 291.59 248.81 296.45 C 238.05 295.82 227.29 293.71 217.11 290.14 C 210.89 288.00 204.86 284.25 201.60 278.37 C 199.43 274.62 199.04 270.22 198.33 266.03 Z" />
<path fill="#afafaf" stroke="#afafaf" stroke-width="0.09375" opacity="1.00" d=" M 413.95 272.37 C 421.44 270.74 428.90 268.79 436.07 266.03 C 435.74 272.97 433.52 280.38 427.76 284.73 C 420.05 290.51 410.38 292.65 401.13 294.53 C 390.90 296.67 380.43 296.89 370.07 297.84 C 356.32 298.78 342.55 299.84 328.79 299.82 C 332.42 298.75 336.04 297.61 339.73 296.76 C 359.62 291.81 378.79 284.32 397.39 275.79 C 397.41 275.54 397.45 275.04 397.47 274.79 L 397.51 274.23 C 403.05 274.74 408.53 273.36 413.95 272.37 Z" />
<path fill="#e8e8e8" stroke="#e8e8e8" stroke-width="0.09375" opacity="1.00" d=" M 215.96 271.47 C 221.36 272.23 226.64 273.70 232.08 274.18 C 242.07 274.98 251.93 276.83 261.90 277.77 C 276.88 279.24 291.92 280.33 306.97 280.55 C 320.00 281.55 333.06 280.28 346.09 279.89 C 363.29 279.07 380.40 276.95 397.47 274.79 C 397.45 275.04 397.41 275.54 397.39 275.79 C 378.79 284.32 359.62 291.81 339.73 296.76 C 336.04 297.61 332.42 298.75 328.79 299.82 C 302.11 300.62 275.32 298.90 248.81 296.45 C 242.67 291.59 235.39 288.49 229.04 283.92 C 224.22 280.35 218.76 276.98 215.96 271.47 Z" />
<path fill="#ffffff" stroke="#ffffff" stroke-width="0.09375" opacity="1.00" d=" M 231.05 309.84 C 235.25 310.54 239.46 311.22 243.70 311.67 C 242.10 333.14 239.58 354.55 235.53 375.71 C 230.50 402.37 224.71 428.93 217.00 454.96 C 212.80 469.45 208.01 483.76 203.13 498.03 C 198.84 497.49 194.54 496.96 190.25 496.41 C 197.53 474.23 204.74 452.01 210.65 429.43 C 221.05 390.27 226.75 350.06 231.05 309.84 Z" />
<path fill="#afafaf" stroke="#afafaf" stroke-width="0.09375" opacity="1.00" d=" M 399.04 310.54 C 400.62 310.36 402.20 310.16 403.79 309.97 C 408.38 356.87 415.85 403.65 429.38 448.86 C 432.84 460.80 436.62 472.65 440.43 484.48 C 441.67 488.47 443.33 492.35 444.10 496.48 C 427.41 498.21 410.71 500.10 393.95 501.00 C 384.62 500.71 375.35 502.19 366.03 502.00 C 356.81 501.80 347.62 502.94 338.41 502.25 C 366.81 487.99 388.71 461.27 396.47 430.38 C 401.04 411.99 402.23 392.93 402.00 374.04 C 402.22 352.84 400.46 331.68 399.04 310.54 Z" />
<path fill="#e8e8e8" stroke="#e8e8e8" stroke-width="0.09375" opacity="1.00" d=" M 386.94 311.96 C 391.01 311.87 395.00 311.02 399.04 310.54 C 400.46 331.68 402.22 352.84 402.00 374.04 C 402.23 392.93 401.04 411.99 396.47 430.38 C 388.71 461.27 366.81 487.99 338.41 502.25 C 327.64 502.80 316.80 502.30 306.01 502.48 C 297.00 502.37 287.97 502.77 278.98 502.08 C 271.67 501.85 264.34 502.30 257.05 501.57 C 247.72 500.85 238.35 501.23 229.05 500.17 C 220.40 499.62 211.77 498.68 203.13 498.03 C 208.01 483.76 212.80 469.45 217.00 454.96 C 224.71 428.93 230.50 402.37 235.53 375.71 C 239.58 354.55 242.10 333.14 243.70 311.67 C 248.46 312.03 253.24 312.17 257.99 312.71 C 264.14 314.51 270.86 313.56 277.22 314.32 C 293.80 314.78 310.36 315.70 326.95 315.36 C 346.94 314.31 367.10 314.86 386.94 311.96 Z" />
<path fill="#ffffff" stroke="#ffffff" stroke-width="0.09375" opacity="1.00" d=" M 158.14 514.26 C 161.91 511.69 166.62 511.09 171.05 510.55 C 178.29 510.37 185.66 510.15 192.74 511.96 C 184.54 515.11 174.92 516.94 169.37 524.42 C 163.35 533.02 160.42 543.59 159.74 553.98 C 155.30 553.52 150.90 552.74 146.45 552.34 C 147.63 543.50 148.89 534.63 151.38 526.05 C 152.81 521.74 155.07 517.62 158.14 514.26 Z" />
<path fill="#e8e8e8" stroke="#e8e8e8" stroke-width="0.09375" opacity="1.00" d=" M 383.59 516.63 C 405.86 515.84 428.11 513.72 450.18 510.65 C 453.61 510.37 457.07 510.53 460.52 510.48 C 465.24 519.27 469.65 528.69 470.41 538.77 C 424.25 545.03 378.41 553.78 331.97 557.87 C 322.57 558.75 313.14 559.35 303.80 560.73 C 283.21 561.42 262.60 560.87 242.04 560.00 C 214.56 558.97 187.06 557.32 159.74 553.98 C 160.42 543.59 163.35 533.02 169.37 524.42 C 174.92 516.94 184.54 515.11 192.74 511.96 C 222.71 515.18 252.83 517.65 283.00 517.50 C 302.31 518.29 321.66 517.71 340.99 517.91 C 355.18 517.14 369.43 517.91 383.59 516.63 Z" />
<path fill="#afafaf" stroke="#afafaf" stroke-width="0.09375" opacity="1.00" d=" M 460.52 510.48 C 467.33 510.85 476.16 511.37 479.71 518.27 C 482.89 522.97 483.98 528.63 485.16 534.08 C 486.46 540.13 487.21 546.28 487.99 552.42 C 455.15 556.64 422.09 559.15 389.00 560.09 C 381.70 560.78 374.36 560.22 367.06 560.98 C 345.98 560.87 324.88 561.30 303.80 560.73 C 313.14 559.35 322.57 558.75 331.97 557.87 C 378.41 553.78 424.25 545.03 470.41 538.77 C 469.65 528.69 465.24 519.27 460.52 510.48 Z" />
<path fill="#afafaf" stroke="#afafaf" stroke-width="0.09375" opacity="1.00" d=" M 131.95 565.91 C 158.58 569.67 185.32 572.92 212.21 573.93 C 197.11 573.92 182.04 572.39 167.04 570.78 C 155.32 569.35 143.54 568.13 131.95 565.91 Z" />
</svg>
