<svg xmlns="http://www.w3.org/2000/svg" fill="none" viewBox="0 0 512 512"><path fill="#00173C" d="M258.3 85c-3-11.6-5-27.1-2.4-44.2a5 5 0 0 0-4-5.7l-11.4-2c-2.6-.5-5 1.2-5.5 3.8-3 19.3-.8 36.8 2.8 50.5-30.7 8.9-41.7 41.2-53.7 76.4-7.5 22-15.3 45-28.6 64.2-30.8 44.4-51.5 82.6-51.5 122.5 0 88.5 62.7 138.9 150.9 139.5h1.7c88.2-.6 150.9-51 150.9-139.5 0-39.9-20.7-78-51.6-122.5-13.2-19.1-21-42.2-28.6-64.2-13.7-40.5-26.2-77.3-69-78.7Z"/><path fill="#FF9CAE" d="M274.5 111a4.8 4.8 0 1 0-7-6.7 28.8 28.8 0 0 1-15 7.3 52.6 52.6 0 0 1-15 .8 4.8 4.8 0 0 0-1 9.6c4.2.4 10.9.4 17.8-1a38.3 38.3 0 0 0 20.2-10Zm80.6 283.9a90.3 90.3 0 0 1-18.5 22.1 92.8 92.8 0 0 1-3.8 3.2c-2.7 2-5.8-2-3.7-4.8 37.6-50.2 11.9-127.2-.7-165l-1.7-5c-.2-1 1.2-1.6 1.8-.8a124.2 124.2 0 0 0 2 3c23.1 33.3 38.6 62 38.6 91.8 0 21.6-5 40.2-14 55.5Z"/><path fill="#FF385C" fill-rule="evenodd" d="m229.5 279.4-9.4-34c-2.6-.9-3.5 8-3.7 12.5.3 2.3.7 6.8-.5 6.8s-1.3 5.6-1 8.4a43.3 43.3 0 0 0-6.4 9.4 108 108 0 0 0-16.8 5.3c0 1-1 1.8-2.3 2.7l-1.9 1.5-5.2 5.2c-1.6-1.3-2.9 1.9-3.8 4.3l-.1.3c-.5 1.3-1 2.4-1.4 2.2-.8-.4-6.2 9.3-8.9 14.2.4.8-3.6 13.6-5.7 19.9-4.8 1.7-14.3 5.2-14.7 5.2l-1.4.3c-1.8.4-4.7 1.1-5.4.7-1.1-.5-1.6 2.7-1.6 4.8 0 1.4 6.2 1.6 10.6 1.7 2 .1 3.7.2 4 .4 1 .4 1.8-1.3 2.2-2.1.5.7 1.6 2 2 1.5.5-.4 4-.1 5.8 0 0 1.4.3 4.3 1.6 4.7-.3.4-.8 2 0 5.3 1 4.2 3.2 7.8 3.2 8.4 0 .4 3.5 4.3 5.2 6.2l1 .6v1l5.1 4.4c1 .9 1.4 1.4 1.2 1.4-.8 0-.3 4.9 0 7.3-.8 0-1.4 3.2-1.5 4.7-2.1 2.5-.9 7 0 9 3.3.8 4.5-.8 4.7-1.6a15 15 0 0 0 1.6-4.8c0-1.2 1-3 1.5-3.6.4-2 1.3-5.7 2.1-5.3 0-.8.2-2.5 1-2s2.4 1.5 3.2 1.5c.9 0 3.5 2.5 4.8 3.7 1 .5 3.6 1.5 5.7 1 1.4.6 4.4 1.6 5.3 1.6.8 0 1.7.7 2 1l8 .6c1 0 7.8 1.5 9.4 0 1.6-1.6 6.8 1 6.8-.5a59 59 0 0 0 16.8-8c1.4 0 3.9-.2 2.6.6-1.3.9 2 2.5 3.7 3.2-.4 2.9 3.3 8.5 5.2 11 3 1.9 8.3 4.3 5.8-1.6a75 75 0 0 1-3.7-21.5c-1.7 0 .4-4.5 1.6-6.8 2.1-1.2 6-4.2 5.2-6.3-.8-2 .7-3.6 1.6-4.2-.3-1.5-.8-4.5 0-3.6.9.8 1.8-3.5 2.1-5.8-1.7-.8-.3-4.9.5-6.8 2.1.8 5.8-1 7.4-2.1.4-2.1 10.3-4 15.2-4.7l1-4.7-23-1.6c0-3-1.4-5.8-2.1-6.8 3.3-2.5-.4-9.8-2.7-13.1.9-3.4-7.3-11.9-11.5-15.7-2.1-3.4-5.8-7-7.3-8.4a20 20 0 0 1-12.1-5.2c-3.4-3.8-9.8-4-12.6-3.7Zm-2 34.6c-1.8-.5-5.7-13.5-7.4-20 0 .3-1 2.4-2 4.8l-2.8 6.8c1.2 1.9-.2 6.3-1 9l-.5 2c0 .3-.7 1.5-1.5 3.3-2.5 5-6.9 14-3.8 14 3.4 0 10.2 1.4 13.1 2 5.5-.4 11.8-2.6 14.2-3.6-2.1-6-6.7-18-8.4-18.3Zm32.4 30.9c-2 1.2-5 .8-6.3.5 1.3 2 .6 5.8 0 7.3 1.7 2.1 1.8 5.4 1.6 6.8 1 .6 3.3 1.8 3.7 2.7.4.8 1.2-.7 1.6-1.6-.5-.9-.2-2.8 0-3.7 2-2.5 3.3-9 3.6-12-.5-.6-2-1.3-4.2 0Zm-68.7-36.2a92.7 92.7 0 0 1 14.7-10c.4 3-2 8.3-3.1 10.5-.4 2.1-1.4 6.4-2.7 6.9-1.2.4-1.2 4.3-1 6.2a22 22 0 0 0-3.2 11.6c-.4.4-5.4-.6-7.8-1-1 .4-11.6 3-10 .4 1.6-2.6 2-4.7 1.6-4.7-.4 0 1.2-3.5 2-5.2-.8-.8.8-2.5 1.6-3.2-1.2-2 2.3-5.7 4.2-7.3.6-.5 2-2 3.7-4.2Zm-13.1 40.4c2-.2 6.5-.7 7.3-1 1 0 3.6.3 5.3 0-1.4 1.8-4.1 6-3.7 7.2-1.2 2.1-3.3 6.6-2 7.9-.6 1.2-1.4 3.6-.7 4.2-1.7-1.1-5-3.3-4.6-3.7.4-.4-.6-4.3-1-6.3-.3-1.4-.5-4.3 0-4.7-.6-1-1.4-3.2-.6-3.6Zm57.7-51.4c4 2.6 12.2 7.9 12.6 7.9a49 49 0 0 1 14.2 18.3c1 .5 3.1 3 3.1 8.4h-1.4a74.6 74.6 0 0 0-15.9 1c-1-3.6-3.9-11.8-6.8-15.1.3-.6.5-2.5-1.6-5.8-2.6-4.2-6.8-13.1-4.2-14.7Zm-30.4 48.7c2.8-.1 8.6-.2 9.4 1 1.4-.6 4.7-1.6 6.8 0 2.1 1.8 12.4 0 17.3-1 .4 2.1 1.3 6.2 2.1 5.8-.5.5-.4 3.7 4.2 12 .2 2.7 1 7.9 2.7 7.9 1.6 0 .3 2.1-.6 3.1-1 1.3-4 4-7.3 4.8-4.2 1-10 2.6-12 3.6-1.7.9-9.5-.3-13.2-1l-.5 1c-2.1-1.7-6.8-4.9-9-3.6-1.8-1.8-6-5-6.7-3.7-1 1.6-3.2-4.7-2.1-4.2.8.4 1.4-6.8 1.5-10.5a209 209 0 0 0 6.3-12v-.4c0-.8-.3-2.3 1-2.8Z" clip-rule="evenodd"/></svg>