<svg xmlns="http://www.w3.org/2000/svg" width="512" height="512" fill="none"><path fill="#00173C" d="M258.283 85.091c-2.908-11.726-4.927-27.228-2.371-44.291.398-2.66-1.333-5.219-3.98-5.69l-11.435-2.035c-2.572-.458-5.05 1.228-5.456 3.81-3.049 19.346-.845 36.822 2.714 50.536-30.692 8.845-41.694 41.224-53.642 76.386-7.473 21.992-15.316 45.072-28.578 64.163l.011.003c-30.882 44.45-51.539 82.66-51.546 122.498 0 88.495 62.712 138.894 150.863 139.558v.025c.296 0 .579-.011.872-.014.119.001.237.004.354.006.172.004.343.008.517.008l-.003-.028c88.148-.66 150.863-51.062 150.863-139.559 0-39.835-20.657-78.046-51.539-122.497-13.265-19.091-21.109-42.174-28.582-64.168-13.762-40.5-26.27-77.31-69.062-78.71Z"/><path fill="#FF9CAE" d="M274.501 110.934a4.8 4.8 0 1 0-6.925-6.648c-3.651 3.803-9.203 6.113-15.165 7.319-5.904 1.194-11.626 1.185-14.945.832a4.8 4.8 0 0 0-1.015 9.546c4.201.447 10.911.437 17.863-.969 6.894-1.394 14.622-4.283 20.187-10.08ZM355.057 394.864a90.326 90.326 0 0 1-18.436 22.16v.005a92.828 92.828 0 0 1-3.803 3.143c-2.682 2.101-5.773-2.002-3.733-4.729 37.566-50.212 11.912-127.205-.682-164.999-.593-1.781-1.158-3.475-1.685-5.075-.23-.984 1.222-1.58 1.774-.735a124.207 124.207 0 0 0 1.997 2.972c23.146 33.262 38.571 61.963 38.571 91.801 0 21.613-4.991 40.201-14.003 55.457Z"/><path fill="#FF385C" fill-rule="evenodd" d="m229.504 279.392-9.442-34.047c-2.518-.838-3.497 8.032-3.672 12.571.35 2.27.734 6.81-.525 6.81s-1.224 5.587-1.049 8.38c-2.518 2.514-5.245 7.333-6.295 9.428-3.776.419-12.764 3.667-16.786 5.238 0 1.027-1.119 1.83-2.334 2.702-.645.462-1.316.944-1.862 1.489l-5.246 5.238c-1.635-1.307-2.862 1.867-3.809 4.315l-.106.273c-.524 1.351-.96 2.406-1.33 2.221-.84-.419-6.295 9.254-8.918 14.142.42.838-3.672 13.619-5.77 19.904-4.721 1.746-14.268 5.238-14.688 5.238-.15 0-.691.13-1.409.302-1.782.428-4.662 1.119-5.41.746-1.049-.524-1.574 2.619-1.574 4.714 0 1.414 6.212 1.635 10.573 1.79 2.102.075 3.774.135 4.115.305.839.419 1.749-1.222 2.098-2.095.525.698 1.679 1.99 2.099 1.571.419-.419 4.021-.174 5.77 0 0 1.397.314 4.295 1.573 4.714-.349.35-.839 1.886 0 5.238 1.05 4.191 3.148 7.857 3.148 8.381 0 .419 3.497 4.365 5.245 6.286l1.05.523v1.048l5.048 4.39c.941.895 1.443 1.372 1.246 1.372-.839 0-.349 4.888 0 7.333-.839 0-1.399 3.142-1.573 4.714-2.099 2.514-.875 6.984 0 8.904 3.357.838 4.546-.698 4.721-1.571.524-1.048 1.573-3.457 1.573-4.714 0-1.257 1.049-2.968 1.574-3.667.35-1.92 1.259-5.657 2.098-5.238 0-.873.21-2.514 1.049-2.095.7.524 2.308 1.572 3.148 1.572.839 0 3.497 2.444 4.721 3.666 1.049.524 3.672 1.467 5.77 1.048 1.399.523 4.406 1.571 5.246 1.571.839 0 1.748.698 2.098 1.048 2.273.174 7.029.523 7.868.523 1.049 0 7.869 1.572 9.442 0 1.574-1.571 6.82 1.048 6.82-.523 5.036-.838 13.289-5.588 16.786-7.857 1.399-.175 3.881-.315 2.623.524-1.259.838 1.923 2.444 3.671 3.142-.419 2.933 3.323 8.556 5.246 11 2.973 1.92 8.288 4.295 5.77-1.571-2.518-5.867-3.497-16.762-3.672-21.476-1.678 0 .35-4.539 1.574-6.809 2.098-1.222 6.085-4.191 5.246-6.286-.84-2.095.699-3.666 1.573-4.19-.349-1.571-.839-4.505 0-3.667.84.838 1.749-3.492 2.099-5.761-1.679-.838-.35-4.889.524-6.81 2.098.838 5.77-1.047 7.344-2.095.42-2.095 10.316-4.015 15.212-4.714l1.049-4.714-23.08-1.571c0-2.934-1.399-5.762-2.099-6.81 3.358-2.514-.349-9.777-2.622-13.094.839-3.353-7.344-11.873-11.541-15.714-2.098-3.352-5.77-6.984-7.344-8.381-2.622-.174-8.707-1.466-12.065-5.238-3.357-3.771-9.791-4.015-12.589-3.666Zm-2.098 34.57c-1.679-.419-5.596-13.444-7.344-19.904 0 .216-.884 2.3-1.932 4.77l-.001.002c-.983 2.318-2.111 4.977-2.788 6.751 1.15 1.914-.221 6.344-1.043 9-.303.979-.531 1.718-.531 2 0 .272-.635 1.565-1.502 3.331-2.478 5.046-6.852 13.954-3.744 13.954 3.358 0 10.142 1.397 13.115 2.095 5.455-.419 11.715-2.619 14.163-3.666-2.099-5.937-6.715-17.914-8.393-18.333Zm32.523 30.904c-2.099 1.257-5.071.873-6.295.523 1.259 2.096.524 5.762 0 7.334 1.678 2.095 1.748 5.412 1.573 6.809 1.05.524 3.253 1.781 3.672 2.619.42.838 1.224-.699 1.574-1.572-.42-.838-.175-2.793 0-3.666 2.098-2.514 3.322-9.079 3.672-12.047-.525-.524-2.098-1.257-4.196 0Zm-68.718-36.142c1.679-2.095 10.491-7.508 14.688-9.952.419 2.933-1.924 8.206-3.148 10.476-.349 2.095-1.364 6.39-2.623 6.809-1.258.419-1.223 4.365-1.049 6.286-2.518 3.352-3.147 9.079-3.147 11.523-.42.419-5.42-.524-7.868-1.048-1.05.524-11.541 3.143-9.967.524 1.574-2.619 2.098-4.714 1.574-4.714-.42 0 1.224-3.492 2.098-5.238-.839-.838.699-2.444 1.574-3.143-1.259-2.095 2.273-5.761 4.196-7.333.525-.523 1.993-2.095 3.672-4.19Zm-13.114 40.332c2.098-.175 6.504-.629 7.344-1.048 1.049.175 3.567.419 5.245 0-1.398 1.921-4.091 6.076-3.672 7.333-1.224 2.096-3.357 6.6-2.098 7.857-.51 1.189-1.318 3.633-.59 4.152-1.766-1.063-5.07-3.214-4.655-3.628.419-.419-.525-4.365-1.05-6.285-.174-1.397-.419-4.295 0-4.714-.524-1.048-1.363-3.248-.524-3.667Zm57.702-51.332c4.021 2.619 12.17 7.857 12.589 7.857.525 0 11.541 9.952 14.163 18.333 1.049.524 3.148 2.933 3.148 8.381-.375 0-.885.039-1.436.082-1.247.096-2.703.208-3.285-.082-.84-.419-8.743.523-12.59 1.047-1.049-3.666-3.882-11.838-6.819-15.19.35-.524.524-2.409-1.574-5.761-2.623-4.191-6.819-13.095-4.196-14.667Zm-30.425 48.713c2.798-.175 8.603-.21 9.442 1.048 1.399-.699 4.721-1.677 6.82 0 2.098 1.676 12.414 0 17.31-1.048.35 2.095 1.259 6.181 2.098 5.762-.524.524-.419 3.666 4.197 12.047.175 2.619.944 7.857 2.623 7.857 1.678 0 .349 2.095-.525 3.143-1.049 1.222-3.987 3.876-7.344 4.714-4.196 1.047-9.966 2.619-12.065 3.666-1.678.838-9.442-.349-13.114-1.047l-.524 1.047c-2.098-1.746-6.82-4.923-8.918-3.666-1.923-1.746-5.98-4.924-6.819-3.667-1.049 1.572-3.147-4.714-2.098-4.19.839.419 1.398-6.809 1.573-10.476 2.098-3.841 6.295-11.628 6.295-12.047 0-.082-.013-.202-.028-.348-.085-.792-.251-2.353 1.077-2.795Z" clip-rule="evenodd"/></svg>