<svg xmlns="http://www.w3.org/2000/svg" fill="none" viewBox="0 0 512 512"><path fill="#00173C" d="M388 402.5c-1.6-7.3-9-13-16.4-13h-22.9l-68.3-251.3c-.5-5.7-16.2-7.2-25.5-7.2s-25.1 1.5-25.6 7.2L161 389.5h-20.5a17 17 0 0 0-16.2 13l-15.9 66.3a15 15 0 0 0 14.6 18.4h265.3a15 15 0 0 0 14.6-18.3l-15-66.4Z"/><path fill="#FF9CAE" d="M255 449.5c-50 0-90.8-10.6-92.6-23.7.5-7 5.6-8.3 8.1-8 14.5 8.5 47 14.5 84.6 14.5 37.6 0 70-6 84.5-14.5 2.7-.3 8 1 8 8-1.8 13.1-42.6 23.7-92.6 23.7Zm-50.3-133.6c19.9 4.9 59.5 9.7 100.8-.2a6 6 0 0 0 4.3-7.5 6.5 6.5 0 0 0-8-4.5c-32.5 8.5-72.3 4-93.5-.4a7 7 0 0 0-8 4.8c-.9 3.4 1 7 4.4 7.8Zm32.6-119.5c9 1.2 22.7 2 35.6.1 3.5-.4 5.6-4 4.6-7.3-.8-3.1-4-5-7.3-4.6-11.2 1.7-22.8 1-30.5 0a6.5 6.5 0 0 0-7.1 4.5 5.8 5.8 0 0 0 4.7 7.3Z"/></svg>