<svg xmlns="http://www.w3.org/2000/svg" width="512" height="512" fill="none"><path fill="#00173C" d="M246.005 34a8 8 0 0 1 8-8h4a8 8 0 0 1 8 8v40.001h22.001a8 8 0 0 1 8 8v4a8 8 0 0 1-8 8h-22.001v13.701c22.614 3.673 41.262 19.165 49.4 39.931 54.335-23.589 114.128-10.58 139.014 32.524 21.782 37.728 10.226 87.087-24.911 122.457 2.612 7.532-.911 15.949-4.942 21.816-1.399 2.037-.772 4.968 1.319 6.284 7.91 4.98 12.585 12.181 14.876 20.617.396.102.778.202 1.147.3 3.508.937 5.564 4.117 5.467 7.748-.389 14.636-2.246 36.763-7.355 49.575-1.468 3.68-5.397 5.106-9.237 4.426-5.258 11.908-11.436 22.286-16.66 28.957a3.37 3.37 0 0 1-1.19.962c-8.827 24.888-32.579 42.712-60.493 42.712a63.9 63.9 0 0 1-40.104-14.073c-8.475 5.476-25.948 11.873-55.475 11.873h-2.2c-29.685 0-47.187-6.466-55.611-11.961a63.904 63.904 0 0 1-40.214 14.161c-27.98 0-51.777-17.908-60.555-42.888a3.404 3.404 0 0 1-.894-.802c-5.225-6.675-11.403-17.056-16.659-28.965-3.881.736-7.884-.68-9.369-4.402-5.109-12.812-6.965-34.939-7.355-49.575-.097-3.631 1.959-6.811 5.468-7.748.415-.111.849-.224 1.3-.339 2.296-8.423 6.972-15.613 14.876-20.585 2.09-1.315 2.707-4.24 1.308-6.277-4.023-5.855-7.54-14.249-4.958-21.77-35.173-35.373-46.749-84.759-24.957-122.503 24.862-43.062 84.564-56.088 138.858-32.592 8.24-20.956 27.187-36.527 50.106-39.978V94.002h-22.001a8 8 0 0 1-8-8v-4a8 8 0 0 1 8-8h22.001V34Z"/><path fill="#FFE7EB" d="M255.639 285.806c-7.537.192-15.861.49-24.613.905a5.118 5.118 0 0 0-4.864 5.342l.182 4.112c.18 4.092 3.676 7.237 7.767 7.045 7.339-.345 14.557-.537 21.528-.537 6.971 0 14.555.192 21.894.537 4.091.192 7.588-2.953 7.768-7.045l.181-4.112a5.117 5.117 0 0 0-4.864-5.342c-8.752-.415-17.443-.713-24.979-.905ZM163.555 302.409l-.533-5.144c-.288-2.777 1.697-5.278 4.47-5.601 10.684-1.244 21.976-2.276 33.228-3.115a4.385 4.385 0 0 1 4.692 3.999l.523 6.021c.315 3.625-2.364 6.818-5.985 7.172a912.785 912.785 0 0 0-28.102 3.206c-4.11.531-7.865-2.416-8.293-6.538ZM106.224 314.783c-6.062-7.92 7.577-13.924 29.848-18.366 4.333-.865 8.483 2.053 9.275 6.399l.81 4.448c.518 2.843-1.413 5.552-4.267 6.007-9.684 1.544-18.228 3.051-25.089 4.359-3.844.732-8.199.26-10.577-2.847ZM348.623 297.265l-.534 5.144c-.427 4.122-4.182 7.069-8.292 6.538a912.855 912.855 0 0 0-28.103-3.206c-3.621-.354-6.299-3.547-5.985-7.172l.523-6.021a4.386 4.386 0 0 1 4.692-3.999c11.252.839 22.544 1.871 33.228 3.115 2.774.323 4.759 2.824 4.471 5.601ZM405.421 314.783c6.062-7.92-7.578-13.924-29.848-18.366-4.333-.865-8.484 2.053-9.276 6.399l-.81 4.448c-.518 2.843 1.414 5.552 4.268 6.007 9.683 1.544 18.227 3.051 25.088 4.359 3.845.732 8.199.26 10.578-2.847ZM210.16 453.344c-27.448-53.799-75.176-47.885-98.573-37.016-1.719.799-3.778.282-4.74-1.352-.698-1.184-1.456-2.441-2.252-3.763-.688-1.141-1.405-2.33-2.137-3.562 14.7-3.377 31.855-6.541 46.796-8.731 10.86-1.592 18.947-11.231 18.05-22.171l-1.696-20.698c-.922-11.246-10.94-19.466-22.105-17.838-14.004 2.043-30.549 4.732-44.965 7.358 4.154-4.424 9.832-8.623 17.398-12.464 12.956-4.767 59.034-14.3 139.703-14.3 80.668 0 127.114 9.533 140.07 14.3 7.535 3.827 13.177 8.038 17.293 12.493-14.454-2.635-31.07-5.337-45.126-7.387-11.165-1.628-21.183 6.592-22.105 17.838l-1.696 20.698c-.897 10.94 7.19 20.579 18.051 22.171 15.01 2.2 32.254 5.384 47 8.778-.852 1.451-1.684 2.842-2.474 4.164l-.002.002-.001.002c-.649 1.085-1.27 2.123-1.851 3.11-.962 1.634-3.021 2.151-4.741 1.352-23.397-10.869-71.125-16.783-98.573 37.016-.725 1.421-1.867 2.636-3.334 3.266-7.201 3.09-23.129 7.767-42.511 7.767s-34.944-4.677-42.145-7.767c-1.466-.63-2.608-1.845-3.334-3.266Z"/><path fill="#FFE7EB" d="M88.478 393.075c-3.164-6.784-4.313-18.502-4.554-26.253-.06-1.922 1.213-3.606 3.385-4.102 8.589-1.963 29.878-5.115 45.836-7.106 6.912-.862 13.115 3.491 13.686 9.446l1.05 10.961c.555 5.793-4.452 10.898-11.176 11.741-14.117 1.77-31.427 4.742-41.657 7.479-2.622.702-5.552.018-6.57-2.166ZM422.901 393.075c3.164-6.784 4.313-18.502 4.554-26.253.06-1.922-1.213-3.606-3.385-4.102-8.589-1.963-29.878-5.115-45.836-7.106-6.912-.862-13.115 3.491-13.686 9.446l-1.05 10.961c-.555 5.793 4.452 10.898 11.176 11.741 14.117 1.77 31.427 4.742 41.657 7.479 2.622.702 5.552.018 6.57-2.166Z"/><path fill="#FF9CAE" d="M297.85 156.68c-17.267 10.383-31.484 23.627-42.12 38.344-10.848-15.01-25.421-28.489-43.157-38.962 6.194-17.513 22.898-30.06 42.532-30.06 19.864 0 36.729 12.843 42.745 30.678Z"/><path fill="#FF9CAE" fill-rule="evenodd" d="M256 269.673c70.85 0 139.207 9.729 162.589 21.807 27.891-29.45 36.739-69.635 18.911-100.513-22.803-39.496-80.615-48.809-129.127-20.801-26.929 15.548-45.332 39.328-52.476 64.166-7.143-24.838-25.546-48.618-52.475-64.166-48.512-28.008-106.325-18.695-129.128 20.801-17.808 30.845-8.998 70.977 18.822 100.419 23.551-12.034 92.218-21.713 162.884-21.713Zm169.532-25.342c-.975 5.887-10.324 2.745-11.003-3.184-1.141-9.969-4.243-19.722-9.469-28.773-11.368-19.69-30.639-32.339-52.628-36.886-2.381-.492-2.49-4.397-.06-4.456 28.654-.703 53.873 10.299 66.36 31.927 7.185 12.445 9.216 26.781 6.8 41.372Z" clip-rule="evenodd"/><path fill="#FF9CAE" d="M323.33 458.193c22.563-32.619 52.635-30.854 73.422-21.992-6.052 18.692-23.603 32.209-44.312 32.209a46.373 46.373 0 0 1-29.11-10.217ZM114.554 436.293c20.767-8.93 50.918-10.827 73.549 21.773a46.374 46.374 0 0 1-29.267 10.344c-20.674 0-38.202-13.472-44.282-32.117Z"/></svg>