<svg width="512" height="512" viewBox="0 0 512 512" fill="none" xmlns="http://www.w3.org/2000/svg">
<path d="M254.005 26C249.587 26 246.005 29.5818 246.005 34.0002V74.0011H224.004C219.586 74.0011 216.004 77.5829 216.004 82.0013V86.0014C216.004 90.4198 219.586 94.0016 224.004 94.0016H246.005V118.002C246.005 122.421 249.587 126.002 254.005 126.002H258.005C262.423 126.002 266.005 122.421 266.005 118.002V94.0016H288.006C292.424 94.0016 296.006 90.4198 296.006 86.0014V82.0013C296.006 77.5829 292.424 74.0011 288.006 74.0011H266.005V34.0002C266.005 29.5818 262.423 26 258.005 26H254.005Z" fill="#00173C"/>
<circle cx="255.638" cy="171.037" r="64.1682" fill="#00173C"/>
<circle cx="255.105" cy="171.103" r="45.1011" fill="#FF9CAE"/>
<path fill-rule="evenodd" clip-rule="evenodd" d="M255.73 316.343C223.685 350.482 163.831 355.713 112.645 326.161C54.697 292.704 29.8021 227.336 57.041 180.157C84.2798 132.978 153.338 121.854 211.286 155.31C229.605 165.886 244.62 179.652 255.73 195.024C266.84 179.652 281.855 165.886 300.174 155.31C358.122 121.854 427.18 132.978 454.419 180.157C481.658 227.336 456.763 292.704 398.815 326.161C347.629 355.713 287.775 350.482 255.73 316.343Z" fill="#00173C"/>
<path fill-rule="evenodd" clip-rule="evenodd" d="M120.844 313.195C169.356 341.203 227.168 331.89 249.971 292.394C252.459 288.085 254.428 283.594 255.897 278.976C257.367 283.594 259.335 288.085 261.824 292.394C284.627 331.89 342.439 341.203 390.951 313.195C439.462 285.187 460.303 230.463 437.5 190.967C414.697 151.471 356.885 142.158 308.373 170.166C281.444 185.714 263.041 209.494 255.897 234.331C248.754 209.494 230.351 185.714 203.422 170.166C154.91 142.158 97.0975 151.471 74.2943 190.967C51.4911 230.463 72.332 285.187 120.844 313.195Z" fill="#FF9CAE"/>
<path fill-rule="evenodd" clip-rule="evenodd" d="M120.844 313.195C169.356 341.203 227.168 331.89 249.971 292.394C252.459 288.085 254.428 283.594 255.897 278.976C257.367 283.594 259.335 288.085 261.824 292.394C284.627 331.89 342.439 341.203 390.951 313.195C439.462 285.187 460.303 230.463 437.5 190.967C414.697 151.471 356.885 142.158 308.373 170.166C281.444 185.714 263.041 209.494 255.897 234.331C248.754 209.494 230.351 185.714 203.422 170.166C154.91 142.158 97.0975 151.471 74.2943 190.967C51.4911 230.463 72.332 285.187 120.844 313.195Z" fill="#FF9CAE"/>
<circle cx="352.44" cy="421.843" r="64.1682" fill="#00173C"/>
<circle cx="352.44" cy="421.843" r="46.5678" fill="#FF9CAE"/>
<circle cx="158.836" cy="421.843" r="64.1682" fill="#00173C"/>
<circle cx="158.836" cy="421.843" r="46.5678" fill="#FF9CAE"/>
<path d="M90.0235 293.14C76.276 301.888 81.076 315.872 86.9556 324.43C88.3546 326.467 87.7388 329.392 85.6476 330.707C77.7435 335.679 73.0676 342.869 70.7717 351.292C70.3205 351.407 69.8869 351.52 69.4716 351.631C65.9629 352.568 63.907 355.748 64.0037 359.379C64.3935 374.015 66.25 396.142 71.3593 408.954C72.8439 412.676 76.8466 414.092 80.728 413.356C85.9839 425.265 92.1617 435.646 97.3867 442.321C98.5709 443.834 100.725 444.043 102.315 442.965C122.955 428.973 166.056 416.6 193.793 467.31C197.948 472.811 215.94 483.811 254.661 483.811H256.861C295.582 483.811 313.573 472.811 317.729 467.31C345.465 416.6 388.566 428.973 409.206 442.965C410.796 444.043 412.938 443.85 414.123 442.337C419.347 435.666 425.525 425.288 430.783 413.38C434.623 414.06 438.552 412.634 440.02 408.954C445.129 396.142 446.986 374.015 447.375 359.379C447.472 355.748 445.416 352.568 441.908 351.631C441.539 351.533 441.157 351.433 440.76 351.331C438.469 342.896 433.795 335.694 425.885 330.714C423.794 329.398 423.167 326.467 424.566 324.43C430.446 315.872 435.246 301.888 421.498 293.14C401.331 280.306 330.929 269.672 256.861 269.672H254.661C180.592 269.672 110.191 280.306 90.0235 293.14Z" fill="#00173C"/>
<path d="M255.639 285.806C248.103 285.998 239.778 286.296 231.026 286.711C228.21 286.845 226.038 289.236 226.162 292.053L226.344 296.165C226.524 300.257 230.02 303.402 234.111 303.21C241.45 302.865 248.668 302.673 255.639 302.673C262.61 302.673 270.195 302.865 277.533 303.21C281.624 303.402 285.121 300.257 285.301 296.165L285.482 292.053C285.606 289.236 283.435 286.845 280.618 286.711C271.866 286.296 263.175 285.998 255.639 285.806Z" fill="#FFE7EB"/>
<path d="M163.555 302.409L163.022 297.265C162.734 294.488 164.719 291.987 167.492 291.664C178.177 290.42 189.468 289.388 200.72 288.549C203.116 288.37 205.204 290.155 205.412 292.548L205.935 298.569C206.25 302.194 203.571 305.387 199.95 305.741C190.366 306.679 180.906 307.775 171.848 308.947C167.738 309.478 163.983 306.531 163.555 302.409Z" fill="#FFE7EB"/>
<path d="M106.224 314.783C100.162 306.863 113.801 300.859 136.072 296.417C140.405 295.552 144.555 298.47 145.347 302.816L146.157 307.264C146.675 310.107 144.744 312.816 141.89 313.271C132.206 314.815 123.663 316.322 116.801 317.63C112.957 318.362 108.602 317.89 106.224 314.783Z" fill="#FFE7EB"/>
<path d="M348.623 297.265L348.089 302.409C347.662 306.531 343.907 309.478 339.797 308.947C330.738 307.775 321.279 306.679 311.694 305.741C308.073 305.387 305.395 302.194 305.71 298.569L306.232 292.548C306.44 290.155 308.529 288.37 310.924 288.549C322.176 289.388 333.468 290.42 344.152 291.664C346.926 291.987 348.911 294.488 348.623 297.265Z" fill="#FFE7EB"/>
<path d="M405.421 314.783C411.483 306.863 397.843 300.859 375.573 296.417C371.24 295.552 367.09 298.47 366.298 302.816L365.487 307.264C364.969 310.107 366.901 312.816 369.755 313.271C379.438 314.815 387.982 316.322 394.843 317.63C398.688 318.362 403.042 317.89 405.421 314.783Z" fill="#FFE7EB"/>
<path d="M210.16 453.344C182.712 399.545 134.984 405.459 111.587 416.328C109.868 417.127 107.809 416.61 106.847 414.976C106.149 413.792 105.391 412.535 104.595 411.213C103.907 410.072 103.19 408.883 102.458 407.651C117.158 404.274 134.313 401.11 149.254 398.92C160.114 397.328 168.201 387.689 167.304 376.749L165.608 356.051C164.686 344.805 154.668 336.585 143.503 338.213C129.499 340.256 112.954 342.945 98.5376 345.571C102.692 341.147 108.371 336.948 115.936 333.107C128.892 328.34 174.97 318.807 255.639 318.807C336.307 318.807 382.753 328.34 395.709 333.107C403.244 336.934 408.886 341.145 413.002 345.6C398.548 342.965 381.932 340.263 367.876 338.213C356.711 336.585 346.693 344.805 345.772 356.051L344.075 376.749C343.178 387.689 351.265 397.328 362.126 398.92C377.136 401.12 394.38 404.304 409.126 407.698C408.274 409.149 407.442 410.54 406.652 411.862L406.65 411.864L406.649 411.866C406 412.951 405.379 413.989 404.798 414.976C403.836 416.61 401.777 417.127 400.058 416.328C376.66 405.459 328.932 399.545 301.484 453.344C300.759 454.765 299.617 455.98 298.15 456.61C290.949 459.7 275.021 464.377 255.639 464.377C236.257 464.377 220.695 459.7 213.494 456.61C212.028 455.98 210.886 454.765 210.16 453.344Z" fill="#FFE7EB"/>
<path d="M88.4778 393.075C85.3145 386.291 84.1651 374.573 83.9237 366.822C83.8639 364.9 85.1368 363.216 87.3091 362.72C95.898 360.757 117.187 357.605 133.145 355.614C140.058 354.752 146.26 359.105 146.831 365.06L147.881 376.021C148.436 381.814 143.43 386.919 136.705 387.762C122.588 389.532 105.278 392.504 95.0483 395.241C92.4257 395.943 89.4958 395.259 88.4778 393.075Z" fill="#FFE7EB"/>
<path d="M422.901 393.075C426.065 386.291 427.214 374.573 427.455 366.822C427.515 364.9 426.242 363.216 424.07 362.72C415.481 360.757 394.192 357.605 378.234 355.614C371.322 354.752 365.119 359.105 364.548 365.06L363.498 376.021C362.943 381.814 367.95 386.919 374.674 387.762C388.791 389.532 406.102 392.504 416.331 395.241C418.953 395.943 421.883 395.259 422.901 393.075Z" fill="#FFE7EB"/>
<path d="M414.529 241.147C415.208 247.075 424.557 250.218 425.532 244.331C427.948 229.74 425.917 215.404 418.732 202.959C406.245 181.331 381.026 170.329 352.372 171.032C349.942 171.091 350.052 174.995 352.432 175.488C374.421 180.035 393.692 192.684 405.06 212.374C410.286 221.425 413.388 231.178 414.529 241.147Z" fill="#00173C"/>
</svg>
