<svg xmlns="http://www.w3.org/2000/svg" fill="none" viewBox="0 0 512 512"><path fill="#00173c" d="M388.3 487.2a15 15 0 0 0 14.5-18.4l-15.7-66.3a17 17 0 0 0-16.2-13h-23l-68.2-251.3c-.6-5.7-16.3-7.2-25.6-7.2s-25 1.5-25.6 7.2l-68.3 251.3h-20.4c-7.5 0-14.8 5.7-16.3 13l-15.1 66.4a15 15 0 0 0 14.6 18.3z"/><path fill="#ff9cae" d="M243.3 144.8c3.6.7 13 1.8 22 0l10 36.8a110.6 110.6 0 0 1-42 0zM230 193.4 201.2 300c20 5 69 12 106.2 0l-29-106.5c-18.2 4-39.8 1.7-48.3 0Z"/><path fill="#ff9cae" fill-rule="evenodd" d="M310.7 312.2a221.5 221.5 0 0 1-112.8 0l-25.5 94.2-31.4-.2c-1.1 0-3.8 1.9-5.3 9.3l-10.3 46.8c-.5 2.7.9 8 10.3 8.3 9.3.4 83.3.2 119 0h.4c35.8.2 109.7.4 119.1 0 9.4-.3 10.7-5.6 10.3-8.3l-10.3-46.8c-1.6-7.4-4.2-9.3-5.4-9.3l-32.5.2zM161.6 423.8c1.8 13.1 42.6 23.7 92.6 23.7s90.8-10.6 92.6-23.7c0-7-5.3-8.3-8-8-14.5 8.5-47 14.5-84.5 14.5-37.7 0-70-6-84.6-14.5-2.5-.3-7.6 1-8.1 8" clip-rule="evenodd"/></svg>