<svg xmlns="http://www.w3.org/2000/svg" fill="none" viewBox="0 0 512 512"><path fill="#00173C" d="M328.5 488H131.2c-7.9 0-14.2-7-14.2-15.9V83.3c0-6.3 3-12 7.7-15.2l40-26.9A30.9 30.9 0 0 1 182 36h193.4c11.3 0 20.6 9.2 20.6 20.6V409a28 28 0 0 1-5.8 17.3l-37.8 49.4a30.2 30.2 0 0 1-23.8 12.3Z"/><path fill="#FF9CAE" d="M375 421.1c3.8-4.8 5.9-11 5.9-17.5V58c0-5.7-4.6-10.3-10.3-10.3h-179c-5.3 0-10.6 1.7-15 4.8l-36 25.8c-5 3.5-7.7 9-7.7 15.2v368c0 6 4.2 10.7 9.4 10.7h181c6.8 0 13.1-3.2 17.6-8.7l34.1-42.3Z"/><path fill="#00173C" d="M319.1 89.2h-168c-3.8 0-5.8-5.3-3.1-8.4 4.2-4.9 10.2-5 16.2-5H319c6.6 0 13-2.2 18.4-6.5l11-8.9C354 56 361.1 52 368 54.5l.9.4c3.7 1.3 4.8 5.3 1.7 7.9l-16.4 13c-10.5 10-12.5 17.2-12.5 28.3v343.3c0 6.2-2.1 11.8-7.2 14.1-3.5 1.7-7.5-1.3-7.5-5.6V98c0-4.9-3.5-8.8-7.9-8.8Z"/><path fill="#00173C" d="m183.4 60.3 5.2-3.3a15.4 15.4 0 0 1 8.4-2.5h45.2c4 0 5.6 5.2 2.3 7.5l-4.3 3a15.4 15.4 0 0 1-9 2.9h-45.6c-4.1 0-5.7-5.4-2.2-7.6Zm85.5-2.5-3.4 2.8a4.1 4.1 0 0 0 2.5 7.3h48.5c3.2 0 6.4-1 9-2.9l4.3-3a4.1 4.1 0 0 0-2.4-7.5h-49a15.4 15.4 0 0 0-9.5 3.3Z"/><path fill="#810F23" d="M211 298.3a36.7 36.7 0 0 1-4.3-5.6c-1.2-2-2-4.1-2.6-6.2a26.3 26.3 0 0 0-.7 3l-1 2.6-.8 2.2a7.5 7.5 0 0 1-1.8 2l2.7 2.5a10.4 10.4 0 0 1 1.6 2l1 2.2 2 3.8a81.4 81.4 0 0 1 4.7 9.6 55.3 55.3 0 0 1 2.7 9.3 55.8 55.8 0 0 1-5.3 3.6c-2 1-3.8 1.8-5.6 2.2a231.5 231.5 0 0 1-12 49.2c4.4 4 9.3 7.2 14.5 9.4a51.2 51.2 0 0 0 16.2 4l.2-87.8a31.4 31.4 0 0 1-6.2-3.3c-2-1.5-3.9-3-5.3-4.7Zm-20 56.1a360 360 0 0 0 5-23.3c-2-4.5-4.5-9-7.3-13.4a88 88 0 0 0-9.8-12.7 154 154 0 0 1-5.8 22 95 95 0 0 1-9 18.3 176.7 176.7 0 0 0 4.5 9.1 72.2 72.2 0 0 0 5 8 78 78 0 0 0 5.3 7 78.5 78.5 0 0 0 5.8 6.4c2.2-6.7 4.3-13.8 6.2-21.4Zm97-92.6c.6-1.3 1-2.8 1-4.5V250h10.4a174 174 0 0 0-4-14 364 364 0 0 0-4.7-13.6 100.5 100.5 0 0 0-12.5 46.1c1.5 0 3-.3 4.3-.7 1.1-.6 2.3-1.4 3.3-2.4a14.5 14.5 0 0 0 2.2-3.6Zm-5.5 30.7a8.6 8.6 0 0 0-4.3-1 96.6 96.6 0 0 0 1.8 13.3 109.2 109.2 0 0 0 2.9 12.4 89.1 89.1 0 0 0 3.8 11.2 89.7 89.7 0 0 0 4.9 10A175.7 175.7 0 0 0 296 325a188.2 188.2 0 0 0 3.6-14.4l-10.7-.5v-7.6a10 10 0 0 0-.9-4 14.5 14.5 0 0 0-2.2-3.5c-1-1-2.2-1.9-3.3-2.5Z"/><path fill="#810F23" d="M268.9 262.2a9.8 9.8 0 0 0 2.6 3.8 109 109 0 0 1 2.3-14.7 109.8 109.8 0 0 1 8-25.4c1.8-3.7 3.8-7 6-10a119.8 119.8 0 0 0-21-32.3 281.4 281.4 0 0 0-13.1 66.6l1.8-.2v60l-1.8-.2a236.7 236.7 0 0 0 2 18.3 211.7 211.7 0 0 0 3 17.3 164.4 164.4 0 0 0 3.7 15.9 184.8 184.8 0 0 0 4.5 14.4 124.8 124.8 0 0 0 11.8-14.7 107.5 107.5 0 0 0 9.1-16.7c-2.2-3-4.2-6.3-6-10a93 93 0 0 1-4.7-11.8 125.4 125.4 0 0 1-3.3-13.4c-1-4.7-1.8-9.7-2.3-14.9a9.8 9.8 0 0 0-2.6 3.8 10.3 10.3 0 0 0-1.1 4.7v7.3h-6.5v-60h6.5v7.6c0 1.4.3 3 1 4.6Zm-80.7-9.5a35.1 35.1 0 0 1 10.3-3 380.3 380.3 0 0 0-5.4-35.4 232.5 232.5 0 0 0-8.4-30.2c-3.9 4-7.5 8.5-11 13.5a98 98 0 0 0-9.5 16.5 91.1 91.1 0 0 1 9.6 19.8 135 135 0 0 1 5.5 24.1 33.8 33.8 0 0 1 9-5.3Zm-25.1 38a16.3 16.3 0 0 0-4.5-1 7 7 0 0 1 .5-3.6 7 7 0 0 1 2-2.7 6.6 6.6 0 0 1 3-1.8c1.1-.4 2.2-.6 3.4-.4 0-2.9.5-5.6 1.6-8.3.9-2.6 2.1-5 3.8-6.9a328.4 328.4 0 0 0-1.6-12.7 142.5 142.5 0 0 0-2.7-12 155.3 155.3 0 0 0-3.7-11 74.8 74.8 0 0 0-4.5-9.7 167 167 0 0 0-7.6 28.5 162.2 162.2 0 0 0-.2 61c1.8 9.7 4.2 19 7.4 27.9a92.2 92.2 0 0 0 12.2-39.7 9.4 9.4 0 0 0-2-3.3c-1-1-2.2-1.9-3.3-2.5a17.6 17.6 0 0 0-3.8-1.8Zm51.2-34.7a34 34 0 0 0 8.2 2.9l-.2-92.2a44.3 44.3 0 0 0-15.8 3.3c-5.2 2-10.1 4.8-14.7 8.5 2 4.9 3.7 10.2 5.3 15.8a373.4 373.4 0 0 1 4.3 17.4 307 307 0 0 1 3.1 18.7 403 403 0 0 1 2.2 20.3 43.7 43.7 0 0 0 7.6 5.3Zm16.5-89v92.6c2.5-.2 5.1-.6 7.8-1.4a27.5 27.5 0 0 0 7.1-3.8 236.8 236.8 0 0 1 2.2-21.1c1-6.9 2-13.4 3.4-19.6 1.2-6.4 2.6-12.4 4.2-18 1.5-5.9 3.2-11.3 5.1-16.3a56.2 56.2 0 0 0-14-8.7 52.4 52.4 0 0 0-15.8-3.8Zm17.6 163a273.1 273.1 0 0 1-2-19.7 43.1 43.1 0 0 1-7.6.3 37.7 37.7 0 0 1-8-1.4l-.2 84.9c5.5-.8 10.8-2.2 16-4.5a64.3 64.3 0 0 0 14.5-9c-2-4.8-3.7-9.9-5.2-15.2a201.6 201.6 0 0 1-4.2-17 227.5 227.5 0 0 1-3.3-18.5Zm45.6-35v11h22.3v-4.4h-8.9v-5.8h-4.7v5.8h-4V295H294Zm0-7.6v4.7h22.3v-4.7H294Z"/><path fill="#810F23" fill-rule="evenodd" d="M294 277.2v6.9h22.3v-7c0-.8-.1-1.7-.4-2.6a2.8 2.8 0 0 0-.7-1.1l-1.1-1.1a18.3 18.3 0 0 0-11.1-1.8 11.3 11.3 0 0 0-2.3.2 9.1 9.1 0 0 0-6 3.1c-.4 1-.7 2-.7 3.4Zm17.4 2.4H299v-1.3a3 3 0 0 1 1.4-2.7 24 24 0 0 1 9-.4c.8.2 1.3.6 1.4 1l.5 1 .2 1v1.4Z" clip-rule="evenodd"/><path fill="#810F23" d="M294 255.8V268h22.3v-12.4h-4.9v8H307v-7.4h-4.7v7.4h-3.6v-7.8H294Z"/></svg>