<svg xmlns="http://www.w3.org/2000/svg" xmlns:xlink="http://www.w3.org/1999/xlink" xml:space="preserve" width="100mm" height="100mm" viewBox="0 0 100 100"><defs><linearGradient id="a"><stop offset="0" stop-color="#fff"/><stop offset="1" stop-color="#999999ff"/></linearGradient><linearGradient id="c" x1="41.682" x2="61.967" y1="367.81" y2="367.81" gradientTransform="scale(1.3504 .74054)" gradientUnits="userSpaceOnUse"><stop offset="0" stop-color="#fff"/><stop offset="1" stop-color="#999999ff"/></linearGradient><linearGradient xlink:href="#a" id="b" x1="55.188" x2="84.777" y1="287.6" y2="287.6" gradientUnits="userSpaceOnUse"/></defs><g stroke="#000" stroke-width="1.088"><path fill="url(#b)" d="M62.417 286.36c-1.902 1.327-3.34 5.283-3.34 12.248 1.453 0 .736-2.452 10.906-2.477 10.168.025 9.452 2.477 10.905 2.477 0-6.964-1.438-10.921-3.34-12.248" transform="translate(-142.99 -735.477)scale(2.7577)"/><path fill="url(#b)" d="M64.391 285.03c-.998.013-1.73.29-1.762 1.088-.21 5.302 2.44 11.134 7.354 11.92 4.913-.786 7.564-6.618 7.353-11.92-.092-2.322-6.115-.237-7.353-.045-.813-.126-3.687-1.067-5.592-1.043z" transform="translate(-142.99 -735.477)scale(2.7577)"/><path fill="url(#b)" d="M64.943 284.76c-1.793-1.622-4.908-1.852-7.272-1.833l.007 2.65c4.898.162 5.904 1.69 12.304 1.908 6.4-.219 7.405-1.746 12.304-1.907l.007-2.65c-2.365-.02-5.48.21-7.272 1.832" transform="translate(-142.99 -735.477)scale(2.7577)"/><path fill="url(#c)" d="M59.979 272.99c-.768.024-1.608.56-2.906 1.7 6.404 4.558 3.324 12.278 12.885 12.097h.051c9.56.181 6.48-7.538 12.885-12.098-1.298-1.139-2.139-1.675-2.907-1.699-.767-.024-1.463.463-2.468 1.377-1.114-.515-2.052-.716-3.461 1.496 2.47.854 1.874 7.037-3.678 7.809a8 8 0 0 1-.396.045 8 8 0 0 1-.397-.045c-5.552-.772-6.148-6.955-3.678-7.809-1.41-2.212-2.347-2.01-3.46-1.496-1.006-.914-1.701-1.401-2.47-1.377z" transform="translate(-142.99 -735.477)scale(2.7577)"/></g></svg>