<svg xmlns="http://www.w3.org/2000/svg" xmlns:xlink="http://www.w3.org/1999/xlink" xml:space="preserve" width="100mm" height="100mm" viewBox="0 0 100 100"><defs><linearGradient id="a"><stop offset="0" stop-color="#fff"/><stop offset="1" stop-color="#999999ff"/></linearGradient><linearGradient xlink:href="#a" id="b" x1="299.8" x2="314.76" y1="122.2" y2="133.49" gradientUnits="userSpaceOnUse"/><linearGradient xlink:href="#a" id="c" x1="297.15" x2="316.33" y1="119.21" y2="133.65" gradientUnits="userSpaceOnUse"/></defs><path fill="#999999ff" stroke="#000" stroke-width="3.115" d="M38.338 26.492c-1.601-1.247-4.003-2.978-8.091-2.607 5.853 4.425 9.122 14.586 3.869 16.493l3.999.808c-1.337-.04 1.907.307.786-.058 3.13-2.083 4.414-9.491 4.713-14.343.397-6.457-2.056-11.964-3.572-12.736.047 2.787-.532 9.643-1.704 12.444z"/><path fill="#999999ff" stroke="#000" stroke-width="3.115" d="M49.898 25.12c3.377-.045 4.749.955 5.458 1.795 2.527-2.702 2.778-11.258 2.94-12.478 2.307 1.866 6.019 25.878-18.066 30.353 3.944-.689-4.477-.219-.358-3.299 7.627-4.309 11.774-6.57 12.492-9.5.579-2.363-.573-5.158-2.465-6.87z"/><path fill="url(#c)" fill-rule="evenodd" stroke="#000" stroke-width="1.396" d="M316.44 135.48c0-25.274-14.051-20.802-11.168-22.868 1.14-1.894 1.46-4.656.024-6.366-4.344 2.284-3.293 3.147-4.27 4.893l-1.99-.21c-1.5-3.131-1.284-4.097-3.982-4.8-.658.704-.264 5.927-.162 6.211-1.082 1.332-1.73 3.032-1.676 3.861.121 1.88 1.176 1.96-.376 6.042-.29 1.588-.373 3.893 1.903 4.822s2.762.425 6.314-2.456c2.048-1.213 3.365-.641 4.004-3.557.612.629-1.134 2.16-1.288 2.438.473 6.342-4.602 6.034-4.295 12.036z" clip-rule="evenodd" image-rendering="optimizeQuality" shape-rendering="geometricPrecision" transform="translate(-554.982 -179.613)scale(1.9781)"/><path stroke="#000" stroke-width="3.176" d="M24.468 67.717c1.715 1.04 5.412 1.226 7.086 4.924"/><path fill="#1f1a17" fill-opacity=".992" d="m44.038 49.077-3.684 2.248-1.108 4.67c1.318-.465 3.678-1.777 4.252-2.354.326-.952.614-3.895.54-4.564zm.153-.248-3.684 2.248-1.108 4.67c1.318-.465 3.678-1.777 4.252-2.354.326-.952.614-3.895.54-4.564" opacity=".99"/></svg>