<svg xmlns="http://www.w3.org/2000/svg" xmlns:xlink="http://www.w3.org/1999/xlink" xml:space="preserve" viewBox="0 0 377.95 377.95"><defs><linearGradient id="a"><stop offset="0" stop-color="#fad028"/><stop offset="1" stop-color="#856a02"/></linearGradient><linearGradient xlink:href="#a" id="b" x1="58.974" x2="283.09" y1="298.68" y2="294.14" gradientUnits="userSpaceOnUse"/><linearGradient xlink:href="#a" id="c" x1="158.89" x2="189.8" y1="95.14" y2="118.12" gradientUnits="userSpaceOnUse"/><linearGradient xlink:href="#a" id="d" x1="114.69" x2="369.48" y1="82.454" y2="82.454" gradientTransform="translate(-40.524 91.453)" gradientUnits="userSpaceOnUse"/></defs><g stroke="#000"><path fill="url(#b)" stroke-width="12.902" d="M145.03 200.05c-22.498 3.2968-82.45 60.495-83.37 61.368-13.297 12.61-16.31 17.105-28.373 41.76l34.482 13.223c9.0221-16.291 11.061-21.536 25.291-37.466l-17.01 22.494c47.076-34.497 35.655 7.0653 112.93 7.1774 77.275-.11212 65.853-41.675 112.93-7.1774l-17.01-22.494c14.23 15.93 16.269 21.175 25.291 37.466l34.482-13.223c-12.063-24.655-15.076-29.15-28.373-41.76-.92045-.87289-60.872-58.071-83.37-61.368" transform="translate(22.901 53.19) scale(.87882)"/><path fill="none" stroke-width="11.33854" d="M149.0644 296.6583c15.87412 6.44016 24.12712 8.5089 39.91512 8.50706 15.788.00176 24.041-2.0669 39.91425-8.50707"/><path fill="url(#c)" stroke-width="8.945" d="M188.19 45.646c-26.413 1.1243-44.145 16.11-44.145 39.393 0 23.447 20.128 38.452 44.145 39.021 24.017-.56928 44.145-15.574 44.145-39.021 0-23.282-17.731-38.268-44.145-39.393zm0 19.229c12.932.42285 22.033 8.6226 22.033 19.162 0 10.651-8.5599 21.376-22.033 21.715-13.473-.33864-22.033-11.064-22.033-21.715 0-10.539 9.1013-18.739 22.033-19.162z" transform="translate(-49.573 90.383) scale(1.2676)"/><path fill="none" stroke-width="11.33854" d="M150.0584 296.8803c15.53754 6.3036 23.77296 8.41918 38.9203 8.50433 15.14734-.08515 23.38276-2.20074 38.9203-8.50434"/><path fill="url(#d)" stroke-width="12.331" d="M131.97 36.834c-16.493 2.0872-35.306 10.56-42.988 22.397-15.056 4.6211-29.542 28.25-35.179 48.201-4.2337-9.8789-11.901-6.8918-17.012-7.7538-4.4758 14.895-10.439 66.559 6.3801 72.566.97958 2.9596-18.76-4.4661-26.875-11.861 4.996 13.025 7.4883 43.363 23.257 53.827 8.0202 2.8102 31.642 1.0335 29.334 8.7953-11.206-.90846-39.831-1.8362-45.978 3.837 9.5505 12.804 38.488 39.819 55.417 35.587 8.1192-3.9952 28.02-14.041 30.253-5.6767-9.7864 3.5426-35.568 2.0784-34.52 13.818 14.092 7.5789 44.743 27.715 57.966 10.98 9.022-10.555 24.737-10.887 35.113-12.197 3.0075-18.851-22.726-26.012-37.396-30.166 18.417-64.743-29.043-18.136-30.826-18.063-5.1933-8.8372 12.647-46.999-.98786-62.884-27.025 14.695-24.982 8.9795-23.693 7.1064 7.1837-9.101 29.189-14.302 29.788-37.766-9.3306-12.07-16.989-1.9842-15.718-7.3862-1.2426-9.82 24.493-21.82 11.438-33.96 28.27-6.3842 30.721-39.469 32.227-49.403zm96.838 0c16.493 2.0872 35.306 10.56 42.988 22.397 15.056 4.6211 29.542 28.25 35.179 48.201 4.2337-9.8789 11.901-6.8918 17.012-7.7538 4.4758 14.895 10.439 66.559-6.3801 72.566-.97958 2.9596 18.76-4.4661 26.875-11.861-4.996 13.025-7.4883 43.363-23.257 53.827-8.0202 2.8102-31.642 1.0335-29.334 8.7953 11.206-.90846 39.831-1.8362 45.978 3.837-9.5505 12.804-38.488 39.819-55.417 35.587-8.1192-3.9952-28.02-14.041-30.253-5.6767 9.7864 3.5426 35.568 2.0784 34.52 13.818-14.092 7.5789-44.743 27.715-57.966 10.98-9.022-10.555-24.737-10.887-35.113-12.197-3.0075-18.851 22.726-26.012 37.396-30.166-18.417-64.743 29.043-18.136 30.826-18.063 5.1933-8.8372-12.647-46.999.98787-62.884 27.025 14.695 24.982 8.9795 23.693 7.1064-7.1837-9.101-29.189-14.302-29.788-37.766 9.3306-12.07 16.989-1.9842 15.718-7.3862 1.2426-9.82-24.493-21.82-11.438-33.96-28.27-6.3842-30.721-39.469-32.227-49.403z" transform="translate(23.099 39.783) scale(.91955)"/></g></svg>