<?xml version="1.0" encoding="UTF-8" standalone="no"?>
<svg
   id="svg4"
   width="100mm"
   height="100mm"
   version="1.1"
   viewBox="0 0 377.95 377.95"
   xml:space="preserve"
   sodipodi:docname="bN.svg"
   inkscape:version="1.4 (e7c3feb100, 2024-10-09)"
   xmlns:inkscape="http://www.inkscape.org/namespaces/inkscape"
   xmlns:sodipodi="http://sodipodi.sourceforge.net/DTD/sodipodi-0.dtd"
   xmlns:xlink="http://www.w3.org/1999/xlink"
   xmlns="http://www.w3.org/2000/svg"
   xmlns:svg="http://www.w3.org/2000/svg"><sodipodi:namedview
     id="namedview1"
     pagecolor="#505050"
     bordercolor="#eeeeee"
     borderopacity="1"
     inkscape:showpageshadow="0"
     inkscape:pageopacity="0"
     inkscape:pagecheckerboard="0"
     inkscape:deskcolor="#505050"
     inkscape:document-units="mm"
     inkscape:zoom="3.6669379"
     inkscape:cx="201.12149"
     inkscape:cy="278.16124"
     inkscape:window-width="3840"
     inkscape:window-height="2160"
     inkscape:window-x="0"
     inkscape:window-y="0"
     inkscape:window-maximized="1"
     inkscape:current-layer="svg4" /><defs
     id="defs4"><linearGradient
       id="linearGradient23"><stop
         id="stop23"
         stop-color="#fad028"
         offset="0" /><stop
         id="stop24"
         stop-color="#856a02"
         offset="1" /></linearGradient><linearGradient
       id="linearGradient10"
       x1="130.16"
       x2="272.94"
       y1="194.17"
       y2="194.17"
       gradientTransform="translate(3.0483)"
       gradientUnits="userSpaceOnUse"
       xlink:href="#linearGradient23" /><linearGradient
       id="linearGradient11"
       x1="130.16"
       x2="272.94"
       y1="194.17"
       y2="194.17"
       gradientUnits="userSpaceOnUse"
       xlink:href="#linearGradient23" /><linearGradient
       id="linearGradient12"
       x1="128.76"
       x2="272.94"
       y1="194.17"
       y2="194.17"
       gradientUnits="userSpaceOnUse"
       xlink:href="#linearGradient23" /></defs><g
     id="g1"
     transform="matrix(1.0122 0 0 1.0122 -2.3214 -4.256)"
     stroke-width="11.202"><g
       id="g22"
       transform="matrix(1.2964 0 0 1.2964 -24.535 -15.119)"><path
         id="path16-1"
         d="m129.3 90.151-11.072-22.482s-6.8222 17.957-5.2459 33.809l-1.7348 19.275"
         fill="url(#linearGradient10)"
         fill-rule="evenodd"
         stroke="#000"
         stroke-width="8.6408" /><path
         id="path16"
         d="m113.17 106.41-5.2316-20.11c17.15 4.7586 15.759 2.5808 22.82 11.464l4.5354-17.818 13.833 15.187 0.44697-1.1945 2.1558 0.06428"
         fill="url(#linearGradient11)"
         fill-rule="evenodd"
         stroke="#000"
         stroke-width="8.6408" /><g
         id="g6"
         transform="matrix(1.1464 0 0 1.1464 -38.777 -37.767)"
         fill="url(#linearGradient11)"
         stroke-width="7.5372"><g
           id="g2"><path
             id="path5"
             d="m 240.61,269.5134 -0.7477,-18.09 c 11.376,2.107 13.105,5.3286 16.471,10.853 3.3598,-11.801 -2.0355,-21.177 -9.9386,-30.64 1.3684,-1.0684 17.987,-2.9357 25.054,-4.9251 -7.4089,-4.6204 -15.314,-8.8509 -20.59,-13.171 11.542,1.9525 15.453,-6.0633 22.764,-14.998 -12.551,-2.6791 -24.76,-8.2444 -33.407,-18.726 12.911,-4.5709 13.638,-15.216 27.12,-23.618 -16.286,-2.4988 -26.517,-10.761 -38.271,-16.83 8.2806,-4.5195 11.527,-10.889 28.23,-23.697 -27.731,0.96475 -52.057,-5.3835 -62.955,3.675 0.76118,-12.528 2.7269,-6.2968 17.068,-23.797 -13.844,0.47779 -31.65,0.10333 -46.507,8.96 l 4.3796,16.395 -3.6223,-13.149 -9.9362,-17.691 c -5.5603,7.4005 -10.054,18.601 -9.0611,28.952 -11.061,1.7939 -25.873,8.4801 -31.773,27.3 -5.8992,18.82 -43.572,38.955 -29.649,57.558 4.3976,-0.9023 12.17,-3.608 14.629,-3.7302 -0.54032,1.3314 -7.4132,4.9247 -11.177,7.8661 5.5159,9.8698 35.27,-7.6875 45.8,-7.4307 20.197,2.7615 34.283,-6.2529 35.842,-15.498 0.44812,0.52123 -0.80263,12.708 -9.6434,15.372 -3.1826,0.95927 -1.0365,17.172 -4.7558,24.317 -8.6631,14.705 -21.842,31.59891 -21.84275,44.83666 z"
             fill="url(#linearGradient12)"
             fill-rule="evenodd"
             stroke="#000000"
             stroke-width="7.5372"
             sodipodi:nodetypes="cccccccccccccccccccccccccccc" /></g><path
           id="path6"
           d="m239.91 269.34c-0.26265-63.906-0.81521-120.36-72.679-150.78"
           fill="url(#linearGradient11)"
           fill-rule="evenodd"
           stroke="#000"
           stroke-width="7.5372" /></g></g><path
       id="path13-9"
       d="m150.01 147.51-22.955 10.422-7.1847 26.291 22.854-9.9401z"
       fill="#1f1a17"
       fill-opacity=".99216"
       opacity=".99"
       stroke-width="11.202" /></g></svg>
