<?xml version="1.0" encoding="UTF-8"?>
<svg id="svg3" width="100mm" height="100mm" clip-rule="evenodd" fill-rule="evenodd" image-rendering="optimizeQuality" shape-rendering="geometricPrecision" version="1.1" viewBox="0 0 106.66 106.66" xmlns="http://www.w3.org/2000/svg" xmlns:xlink="http://www.w3.org/1999/xlink">
 <defs id="defs3">
  <linearGradient id="linearGradient4" x1="3.8534" x2="24.368" y1="14.167" y2="14.167" gradientUnits="userSpaceOnUse">
   <stop id="stop3" stop-color="#fad028" offset="0"/>
   <stop id="stop4" stop-color="#856a02" offset="1"/>
  </linearGradient>
 </defs>
 <path id="path4" transform="matrix(3.4206 0 0 3.4206 5.2172 4.8735)" d="m14.066 26.234h-7.3317v-3.6571h14.663v3.6571zm0-3.6566-7.3768 0.02422-2.3692-1.7418c-0.39971-0.12438 1.781 0.81625 3.5835-0.81557h12.325c1.8025 1.6318 3.9832 0.69119 3.5835 0.81557l-2.3692 1.7418zm0-2.5332h-4.7271v-2.6569h9.4542v2.6569zm0-2.6569h-6.2561c-0.75767-0.5834-1.5484-1.0809-2.306-1.6643-0.3831-0.30386 1.3736 0.88462 3.6431-0.83936h9.8381c2.2696 1.724 4.0263 0.53551 3.6431 0.83936-0.75767 0.5834-1.5484 1.0809-2.306 1.6643zm0-2.5045-3.1775-0.02885-0.01585-2.5664 3.1934-0.03029 3.1934 0.03029-0.01585 2.5664zm0-2.6261-4.7188-0.0058-2.3712-1.7552c-0.28452-0.21158 1.8275 0.80731 3.6664-0.72944l3.4236-0.069857 3.4236 0.069857c1.8389 1.5368 3.9509 0.51787 3.6664 0.72944l-2.3712 1.7552zm0-2.5622h-1.9928v-2.2074h3.9856v2.2074zm0.02867-7.7992c0-0.39268 0.0078 1.288 0.0078 1.9417l2.5516 2.0135c1.6077 0.69789 2.9032 0.010442 2.7051 0.18513l-1.8741 1.4875-3.4191-0.035087-3.4191 0.035087-1.8741-1.4875c-0.19816-0.17469 1.0974 0.51276 2.7051-0.18513l2.5516-2.0135c0-0.65366 0.0078-2.3344 0.0078-1.9417" fill="url(#linearGradient4)" stroke="#000" stroke-width=".93549" style="font-variation-settings:'wdth' 80, 'wght' 749"/>
</svg>
