<?xml version="1.0" encoding="UTF-8" standalone="no"?>
<svg
   xmlns:dc="http://purl.org/dc/elements/1.1/"
   xmlns:cc="http://creativecommons.org/ns#"
   xmlns:rdf="http://www.w3.org/1999/02/22-rdf-syntax-ns#"
   xmlns:svg="http://www.w3.org/2000/svg"
   xmlns="http://www.w3.org/2000/svg"
   xmlns:sodipodi="http://sodipodi.sourceforge.net/DTD/sodipodi-0.dtd"
   xmlns:inkscape="http://www.inkscape.org/namespaces/inkscape"
   width="60"
   height="60"
   version="1.1"
   id="svg52"
   sodipodi:docname="0HI.svg"
   inkscape:version="1.0.1 (3bc2e813f5, 2020-09-07)">
  <metadata
     id="metadata58">
    <rdf:RDF>
      <cc:Work
         rdf:about="">
        <dc:format>image/svg+xml</dc:format>
        <dc:type
           rdf:resource="http://purl.org/dc/dcmitype/StillImage" />
      </cc:Work>
    </rdf:RDF>
  </metadata>
  <defs
     id="defs56" />
  <sodipodi:namedview
     pagecolor="#ffffff"
     bordercolor="#666666"
     borderopacity="1"
     objecttolerance="10"
     gridtolerance="10"
     guidetolerance="10"
     inkscape:pageopacity="0"
     inkscape:pageshadow="2"
     inkscape:window-width="1366"
     inkscape:window-height="711"
     id="namedview54"
     showgrid="false"
     inkscape:zoom="9.1"
     inkscape:cx="30"
     inkscape:cy="30"
     inkscape:window-x="0"
     inkscape:window-y="0"
     inkscape:window-maximized="1"
     inkscape:current-layer="svg52" />
  <g
     opacity="0.99"
     id="g50"
     transform="translate(3.9219002)">
    <g
       stroke-width="1.044"
       id="g4">
      <path
         d="m -11.54,7.386 -13.14,4.634 -6.169,42.276 H 7.767 L 1.598,12.02 Z"
         fill="#fcc8dc"
         fill-opacity="0.992"
         stroke="#000000"
         transform="matrix(0.99098,0,0,0.92154,37.515,1.593)"
         id="path2" />
    </g>
    <path
       d="M 17.603,40.57 17.326,37.792"
       fill="none"
       stroke="#ffffe5"
       stroke-width="0.62703"
       id="path6" />
    <path
       d="M 20.817,37.986 H 31.043"
       fill="none"
       stroke="#ffffff"
       stroke-width="0.62703"
       id="path8" />
    <path
       d="m 30.533,37.317 a 4.63,5.75 0 0 0 -0.026,-0.146 4.63,5.75 0 0 0 -0.146,-0.547 4.63,5.75 0 0 0 -0.19,-0.524 4.63,5.75 0 0 0 -0.23,-0.498 4.63,5.75 0 0 0 -0.269,-0.468 4.63,5.75 0 0 0 -0.305,-0.432 4.63,5.75 0 0 0 -0.34,-0.391 4.63,5.75 0 0 0 -0.367,-0.348 4.63,5.75 0 0 0 -0.395,-0.3 4.63,5.75 0 0 0 -0.416,-0.25 4.63,5.75 0 0 0 -0.434,-0.197 4.63,5.75 0 0 0 -0.45,-0.143 4.63,5.75 0 0 0 -0.457,-0.086 4.63,5.75 0 0 0 -0.462,-0.028 4.63,5.75 0 0 0 -0.327,0.013 4.63,5.75 0 0 0 -0.46,0.07 4.63,5.75 0 0 0 -0.452,0.126 4.63,5.75 0 0 0 -0.438,0.18 4.63,5.75 0 0 0 -0.423,0.236 4.63,5.75 0 0 0 -0.401,0.286 4.63,5.75 0 0 0 -0.377,0.335 4.63,5.75 0 0 0 -0.347,0.379 4.63,5.75 0 0 0 -0.315,0.42 4.63,5.75 0 0 0 -0.28,0.458 4.63,5.75 0 0 0 -0.242,0.49 4.63,5.75 0 0 0 -0.202,0.518 4.63,5.75 0 0 0 -0.158,0.54 4.63,5.75 0 0 0 -0.064,0.307 z"
       stroke="#000000"
       stroke-width="0.575614"
       stroke-linecap="round"
       stroke-linejoin="round"
       id="path10" />
    <path
       d="M 15.492,22.038 V 38 h 2.453 a 8.369,8.369 0 0 1 0.042,-0.278 8.369,8.369 0 0 1 0.207,-0.81 8.369,8.369 0 0 1 0.287,-0.786 8.369,8.369 0 0 1 0.363,-0.753 8.369,8.369 0 0 1 0.438,-0.712 8.369,8.369 0 0 1 0.507,-0.667 8.369,8.369 0 0 1 0.569,-0.612 8.369,8.369 0 0 1 0.63,-0.552 8.369,8.369 0 0 1 0.68,-0.487 8.369,8.369 0 0 1 0.725,-0.416 8.369,8.369 0 0 1 0.763,-0.342 8.369,8.369 0 0 1 0.794,-0.263 8.369,8.369 0 0 1 0.817,-0.184 8.369,8.369 0 0 1 0.83,-0.1 8.369,8.369 0 0 1 0.592,-0.02 8.369,8.369 0 0 1 0.836,0.04 8.369,8.369 0 0 1 0.827,0.126 8.369,8.369 0 0 1 0.81,0.207 8.369,8.369 0 0 1 0.785,0.286 8.369,8.369 0 0 1 0.755,0.364 8.369,8.369 0 0 1 0.713,0.437 8.369,8.369 0 0 1 0.666,0.507 8.369,8.369 0 0 1 0.611,0.57 8.369,8.369 0 0 1 0.552,0.628 8.369,8.369 0 0 1 0.488,0.68 8.369,8.369 0 0 1 0.415,0.726 8.369,8.369 0 0 1 0.342,0.764 8.369,8.369 0 0 1 0.264,0.794 8.369,8.369 0 0 1 0.183,0.816 8.369,8.369 0 0 1 0.005,0.037 h 2.224 V 22.038 Z"
       stroke="#000000"
       stroke-linecap="round"
       stroke-linejoin="round"
       stroke-width="0.62703"
       id="path12" />
    <path
       d="m 35.65,39.043 h 2.51 l -0.572,-1.042 -0.467,-0.02 -1.545,0.002 c 0.031,0.266 0.054,0.533 0.068,0.802 z m -19.128,-1.047 -1.559,0.002 -0.541,-0.005 -0.536,1.06 h 2.566 c 0.002,-0.169 0.007,-0.336 0.016,-0.503 0.014,-0.185 0.032,-0.37 0.054,-0.554 z"
       stroke="#000000"
       stroke-width="0.512911"
       stroke-linejoin="round"
       id="path14" />
    <path
       d="m 35.635,40.76 2.542,-0.009 -0.004,-1.437 -2.47,0.002 a 5.73,7.35 0 0 1 0.01,0.297 5.73,7.35 0 0 1 -0.03,0.733 5.73,7.35 0 0 1 -0.048,0.413 z m -19.091,-1.513 -2.672,0.003 0.007,1.51 2.73,-0.01 a 5.644,7.519 0 0 1 -0.062,-0.68 5.644,7.519 0 0 1 -0.014,-0.532 5.644,7.519 0 0 1 0.01,-0.291 z"
       stroke="#000000"
       stroke-width="0.512911"
       id="path16" />
    <path
       d="m 21.5,37.889 a 4.566,9.441 0 0 0 -0.013,0.54 4.566,9.441 0 0 0 0.011,0.668 4.566,9.441 0 0 0 0.055,0.937 4.566,9.441 0 0 0 0.066,0.606 l 8.872,-0.046 a 4.566,9.441 0 0 0 0.035,-0.29 4.566,9.441 0 0 0 0.07,-0.932 4.566,9.441 0 0 0 0.022,-0.944 4.566,9.441 0 0 0 -0.01,-0.553 z"
       stroke="#000000"
       stroke-width="0.68409"
       id="path18" />
    <path
       d="m 15.483,22.038 c -1.673,-1.225 -1.775,-1.914 -2.387,-3.398 8.794,0.91 17.663,1.039 25.965,0 -0.599,1.966 -0.71,2.26 -2.337,3.398 z"
       stroke="#000000"
       stroke-linejoin="round"
       stroke-width="0.62703"
       id="path20" />
    <path
       d="m 26.078,30.38 a 8.369,8.369 0 0 0 -8.368,8.368 8.369,8.369 0 0 0 8.368,8.37 8.369,8.369 0 0 0 8.37,-8.37 8.369,8.369 0 0 0 -8.37,-8.368 z m 0,2.644 a 5.517,5.725 0 0 1 5.517,5.724 5.517,5.725 0 0 1 -5.517,5.724 5.517,5.725 0 0 1 -5.516,-5.724 5.517,5.725 0 0 1 5.516,-5.724 z"
       stroke="#000000"
       stroke-width="0.512911"
       stroke-linecap="round"
       stroke-linejoin="round"
       id="path22" />
    <path
       d="m 26.134,39.247 v 5.902"
       fill="none"
       stroke="#000000"
       stroke-width="0.62703"
       id="path24" />
    <path
       d="M 15.15,22.815 H 37.007"
       fill="#ffffff"
       stroke="#fcc7dc"
       stroke-width="0.911702"
       stroke-opacity="0.988"
       id="path26" />
    <path
       d="m 22.088,43.21 3.963,-4.019 4.142,4.143"
       fill="none"
       stroke="#000000"
       stroke-width="0.62703"
       id="path28" />
    <path
       d="m 13.562,39.323 h 3.07"
       fill="#ffffff"
       stroke="#fcc7dc"
       stroke-width="0.798209"
       stroke-opacity="0.988"
       id="path30" />
    <path
       d="m 21.235,39.323 h 9.694"
       fill="#ffffff"
       stroke="#fcc7dc"
       stroke-opacity="0.988"
       stroke-width="0.62703"
       id="path32" />
    <path
       d="m 35.57,39.323 h 2.903"
       fill="#ffffff"
       stroke="#fcc7dc"
       stroke-width="0.798209"
       stroke-opacity="0.988"
       id="path34" />
    <path
       d="M 26.106,40.824 V 33.178"
       fill="none"
       stroke="#fcc7dc"
       stroke-opacity="0.988"
       stroke-width="0.62703"
       id="path36" />
    <path
       d="M 27.534,40.697 22.187,35.134"
       fill="#ffffff"
       stroke="#fcc7dc"
       stroke-opacity="0.988"
       stroke-width="0.62703"
       id="path38" />
    <path
       d="m 24.479,40.804 5.534,-5.63"
       fill="none"
       stroke="#fcc7dc"
       stroke-opacity="0.988"
       stroke-width="0.62703"
       id="path40" />
    <path
       d="m 30.342,41.135 a 5.084,5.084 0 0 0 -0.94,-6.616 5.084,5.084 0 0 0 -6.682,0.03 5.084,5.084 0 0 0 -0.88,6.624"
       fill="none"
       stroke="#fcc7dc"
       stroke-linejoin="bevel"
       stroke-opacity="0.988"
       stroke-width="0.62703"
       id="path42" />
    <path
       d="M 21.265,37.88 H 30.88"
       fill="none"
       stroke="#fcc7dc"
       stroke-opacity="0.988"
       stroke-width="0.62703"
       id="path44" />
    <path
       d="m 34.863,41.1 a 9.042,9.042 0 0 0 -3.668,-9.6 9.042,9.042 0 0 0 -10.277,0.03 9.042,9.042 0 0 0 -3.611,9.621"
       fill="none"
       stroke="#fcc7dc"
       stroke-width="1.02582"
       stroke-linejoin="bevel"
       stroke-opacity="0.988"
       id="path46" />
    <path
       d="m 15.121,37.173 h 1.668 m 18.573,10e-4 h 1.668"
       fill="#ffffff"
       stroke="#fcc7dc"
       stroke-width="1.02582"
       stroke-opacity="0.988"
       id="path48" />
  </g>
</svg>
