<?xml version="1.0" encoding="UTF-8" standalone="no"?>
<svg
   xmlns:dc="http://purl.org/dc/elements/1.1/"
   xmlns:cc="http://creativecommons.org/ns#"
   xmlns:rdf="http://www.w3.org/1999/02/22-rdf-syntax-ns#"
   xmlns:svg="http://www.w3.org/2000/svg"
   xmlns="http://www.w3.org/2000/svg"
   xmlns:sodipodi="http://sodipodi.sourceforge.net/DTD/sodipodi-0.dtd"
   xmlns:inkscape="http://www.inkscape.org/namespaces/inkscape"
   width="60"
   height="60"
   version="1.1"
   id="svg26"
   sodipodi:docname="0KA.svg"
   inkscape:version="1.0.1 (3bc2e813f5, 2020-09-07)">
  <metadata
     id="metadata32">
    <rdf:RDF>
      <cc:Work
         rdf:about="">
        <dc:format>image/svg+xml</dc:format>
        <dc:type
           rdf:resource="http://purl.org/dc/dcmitype/StillImage" />
      </cc:Work>
    </rdf:RDF>
  </metadata>
  <defs
     id="defs30" />
  <sodipodi:namedview
     pagecolor="#ffffff"
     bordercolor="#666666"
     borderopacity="1"
     objecttolerance="10"
     gridtolerance="10"
     guidetolerance="10"
     inkscape:pageopacity="0"
     inkscape:pageshadow="2"
     inkscape:window-width="1366"
     inkscape:window-height="711"
     id="namedview28"
     showgrid="false"
     inkscape:zoom="9.1"
     inkscape:cx="30"
     inkscape:cy="30"
     inkscape:window-x="0"
     inkscape:window-y="0"
     inkscape:window-maximized="1"
     inkscape:current-layer="svg26" />
  <g
     opacity="0.99"
     id="g24"
     transform="translate(3.9215)">
    <path
       d="M 26.079,8.398 13.057,12.67 6.945,51.628 H 45.212 L 39.1,12.67 Z"
       fill="#fcc8dc"
       fill-opacity="0.992"
       stroke="#000000"
       stroke-width="0.99792"
       id="path2" />
    <g
       id="g22">
      <g
         stroke-width="0.6"
         id="g18">
        <path
           d="M 36.861,27.447 23.984,28.424"
           fill="none"
           stroke="#000000"
           stroke-width="0.959712"
           id="path4" />
        <path
           d="m 41.178,39.841 c -6.458,-0.453 -12.51,-0.065 -21.303,0 m 0.663,-4.71 c 3.798,-6.23 9.639,-4.196 13.71,-4.141 3.401,2.017 3.9,2.18 5.147,3.699 1.318,1.77 1.654,3 1.759,5.174 -6.571,2.368 -13.14,2.854 -21.003,0.453 -0.12,-1.93 0.168,-3.568 0.387,-5.185 z"
           stroke="#000000"
           stroke-width="0.540019"
           id="path6" />
        <g
           fill="none"
           stroke="#000000"
           stroke-width="1.615"
           id="g12">
          <path
             d="m 20.598,28.037 c -0.947,4.568 -1.184,8.753 -1.56,13.355 -0.722,3.424 -5.35,7.001 -8.004,6.258 1.09,-6.098 0.755,-15.032 4.14,-26.008 2.085,-0.294 4.227,-0.417 6.5,-0.653 0.757,0.04 1.316,0.192 1.84,0.541 0.705,0.996 2.231,4.28 2.859,5.896 l -0.3,3.36 c -1.48,0.606 -2.31,1.212 -3.413,1.819 z"
             stroke-width="0.600053"
             id="path8" />
          <path
             d="m 22.747,32.43 c -1.37,-2.957 -1.772,-4.412 -3.495,-7.218 -0.698,-0.86 -1.408,-1.704 -2.215,-2.401 -0.917,-0.297 -1.145,-0.663 -2.063,-0.353"
             stroke-width="0.600053"
             id="path10" />
        </g>
        <path
           d="m 33.948,30.993 1.537,-11.835 c 0.553,-3.203 -0.182,-4.927 -2.85,-4.43 -2.46,0.7 -4.018,3.041 -5.274,5.934 l -1.249,10.147 c 4.293,-0.408 5.71,-0.112 7.836,0.184 z"
           stroke="#000000"
           stroke-width="0.540019"
           id="path14" />
        <path
           d="m 40.772,36.391 c -0.185,0.073 -0.271,0.06 -0.644,-0.06 -4.78,-1.54 -9.151,-3.193 -19.446,-0.855 -0.096,0.021 -0.394,0.093 -0.565,0.074"
           fill="none"
           stroke="#fcc7dc"
           stroke-width="0.959712"
           stroke-opacity="0.988"
           id="path16" />
      </g>
      <path
         d="m 41.424,39.595 c -0.201,0.018 -0.635,-0.106 -0.723,-0.127 -6.479,-1.596 -12.851,-1.912 -20.21,0.43 -0.182,0.059 -0.545,0.066 -0.74,0.082 m 14.64,-9.793 c -3.697,-0.419 -5.571,-0.476 -8.06,-0.18 -0.319,0.039 -0.478,0.078 -0.571,0.067"
         fill="none"
         stroke="#fcc7dc"
         stroke-width="0.960194"
         stroke-opacity="0.988"
         id="path20" />
    </g>
  </g>
</svg>
