<?xml version="1.0" encoding="UTF-8" standalone="no"?>
<svg
   xmlns:dc="http://purl.org/dc/elements/1.1/"
   xmlns:cc="http://creativecommons.org/ns#"
   xmlns:rdf="http://www.w3.org/1999/02/22-rdf-syntax-ns#"
   xmlns:svg="http://www.w3.org/2000/svg"
   xmlns="http://www.w3.org/2000/svg"
   xmlns:sodipodi="http://sodipodi.sourceforge.net/DTD/sodipodi-0.dtd"
   xmlns:inkscape="http://www.inkscape.org/namespaces/inkscape"
   width="60"
   height="60"
   version="1.1"
   id="svg20"
   sodipodi:docname="0KE.svg"
   inkscape:version="1.0.1 (3bc2e813f5, 2020-09-07)">
  <metadata
     id="metadata26">
    <rdf:RDF>
      <cc:Work
         rdf:about="">
        <dc:format>image/svg+xml</dc:format>
        <dc:type
           rdf:resource="http://purl.org/dc/dcmitype/StillImage" />
      </cc:Work>
    </rdf:RDF>
  </metadata>
  <defs
     id="defs24" />
  <sodipodi:namedview
     pagecolor="#ffffff"
     bordercolor="#666666"
     borderopacity="1"
     objecttolerance="10"
     gridtolerance="10"
     guidetolerance="10"
     inkscape:pageopacity="0"
     inkscape:pageshadow="2"
     inkscape:window-width="1366"
     inkscape:window-height="711"
     id="namedview22"
     showgrid="false"
     inkscape:zoom="9.1"
     inkscape:cx="30"
     inkscape:cy="30"
     inkscape:window-x="0"
     inkscape:window-y="0"
     inkscape:window-maximized="1"
     inkscape:current-layer="svg20" />
  <g
     opacity="0.99"
     id="g18"
     transform="translate(3.921653)">
    <path
       d="m -11.427,7.439 -12.666,4.1 -6.756,42.757 H 7.992 L 1.245,11.592 Z"
       fill="#fee572"
       stroke="#000000"
       transform="matrix(0.91225,0,0,0.8621,36.504,3.4)"
       id="path2" />
    <g
       stroke-width="1.386"
       id="g12">
      <path
         d="m 19.241,13.838 c -0.744,1.403 -0.455,3.008 -0.455,4.55 -1.225,2.525 -2.055,4.466 -1.884,6.758 -1.593,1.775 -2.993,3.664 -3.9,5.85 -0.258,1.083 -0.482,2.166 -0.065,3.25 l 0.585,0.324 c 0.754,1.564 0.977,1.91 2.665,1.69 l 0.325,-1.625 0.455,-0.78 -0.325,2.08 0.455,1.105 c 2.585,-0.833 2.526,-2.224 3.882,-4.316 2.053,-0.948 2.944,-1.429 4.956,-2.183 l 0.91,-0.585 1.365,-2.275 -1.235,2.21 0.325,1.43 c 0,0 0.065,1.3 0,1.624 -0.137,2.095 -1.993,4.624 -3.495,5.916 -2.053,1.564 -2.45,3.017 -2.744,5.523 10.025,5.563 14.944,2.957 19.562,-0.13 a 33.426,33.426 0 0 0 -0.791,-3.55 C 38.722,36.982 38.516,34.63 38.348,28.201 38.038,23.488 33.213,16.9 27.078,17.212 L 24.05,12.538 c -1.274,1.135 -1.088,2.82 -1.3,4.42 l -0.974,-0.13 z"
         stroke="#000000"
         stroke-width="0.600031"
         id="path4" />
      <path
         d="m 26.82,29.858 c 0.698,-1.22 0.787,-3.241 0.717,-3.971"
         fill="none"
         stroke="#fee572"
         stroke-width="0.839857"
         id="path6" />
      <path
         d="m 20.9,22.246 c -1.536,-0.095 -1.407,0.692 -1.817,2.025 1.565,0.122 1.419,-0.665 1.817,-2.025 z"
         fill="#fee572"
         stroke="#fee572"
         stroke-width="0.899814"
         id="path8" />
      <path
         d="m 28.065,19.349 c 0.927,-0.529 2.767,0.508 3.439,1.075 2.224,1.878 4.751,4.312 4.791,7.445 0.612,4.866 0.384,11.653 2.23,15.75"
         fill="none"
         stroke="#fee572"
         stroke-width="1.31998"
         id="path10" />
    </g>
    <path
       d="m 16.572,36.452 1.712,-2.416"
       fill="none"
       stroke="#fee572"
       stroke-width="0.840064"
       id="path14" />
    <path
       d="m 14.128,33.058 c -0.416,-0.777 0.16,-0.966 1.092,-1.848"
       fill="none"
       stroke="#fee572"
       stroke-width="0.840438"
       id="path16" />
  </g>
</svg>
