<svg xmlns="http://www.w3.org/2000/svg" width="52.157" height="52.157"><g opacity=".99"><path d="M26.079 4.242l-11.234 3.73-5.88 37.94h34.228l-5.881-37.94z" fill="#fee572" stroke="#000" stroke-width=".87822"/><path d="M515.823 67.786l16.979-16.978 1.546 1.546-16.978 16.979z" stroke="#000" stroke-width=".769" transform="matrix(.66267 0 0 .64762 -321.881 -2.924)"/><g stroke="#000" stroke-width="4.938"><path d="M372.14 1585.471V1324.82h15v260.652z" stroke-width="5.276" transform="matrix(.09664 0 0 .09444 -10.608 -105.183)"/><g fill="none"><path d="M373.444 1325.142l-13.45-9.477 2.65-110.432 16.688-28.57 17.542 28.57 2.373 110.432-13.382 9.477z" stroke-width="7.914" transform="matrix(.09664 0 0 .09444 -10.608 -105.183)"/><path d="M379.551 1181.017v105.099l17.91 15.182M379.551 1286.116l-17.687 15.182" stroke-width="5.935" transform="matrix(.09664 0 0 .09444 -10.608 -105.183)"/></g></g><path d="M19.295 41.675H33.88v1.329H19.295z" stroke="#000" stroke-width=".467" transform="matrix(1.09107 0 0 1.06628 -2.93 -9.167)"/><path d="M26.079 27.018a9.169 8.96 0 00-9.17 8.96 9.169 8.96 0 009.17 8.961 9.169 8.96 0 009.168-8.96 9.169 8.96 0 00-9.168-8.96zm0 1.954a7.169 7.006 0 017.168 7.007 7.169 7.006 0 01-7.168 7.005 7.169 7.006 0 01-7.17-7.005 7.169 7.006 0 017.17-7.007z"/><path d="M517.37 50.808l16.978 16.978-1.546 1.547-16.979-16.979z" stroke="#000" stroke-width=".769" transform="matrix(.66267 0 0 .64762 -321.881 -2.924)"/></g></svg>