<?xml version="1.0" encoding="UTF-8" standalone="no"?>
<svg
   xmlns:dc="http://purl.org/dc/elements/1.1/"
   xmlns:cc="http://creativecommons.org/ns#"
   xmlns:rdf="http://www.w3.org/1999/02/22-rdf-syntax-ns#"
   xmlns:svg="http://www.w3.org/2000/svg"
   xmlns="http://www.w3.org/2000/svg"
   xmlns:sodipodi="http://sodipodi.sourceforge.net/DTD/sodipodi-0.dtd"
   xmlns:inkscape="http://www.inkscape.org/namespaces/inkscape"
   width="60"
   height="60"
   version="1.1"
   id="svg32"
   sodipodi:docname="0RY.svg"
   inkscape:version="1.0.1 (3bc2e813f5, 2020-09-07)">
  <metadata
     id="metadata38">
    <rdf:RDF>
      <cc:Work
         rdf:about="">
        <dc:format>image/svg+xml</dc:format>
        <dc:type
           rdf:resource="http://purl.org/dc/dcmitype/StillImage" />
      </cc:Work>
    </rdf:RDF>
  </metadata>
  <defs
     id="defs36" />
  <sodipodi:namedview
     pagecolor="#ffffff"
     bordercolor="#666666"
     borderopacity="1"
     objecttolerance="10"
     gridtolerance="10"
     guidetolerance="10"
     inkscape:pageopacity="0"
     inkscape:pageshadow="2"
     inkscape:window-width="1366"
     inkscape:window-height="711"
     id="namedview34"
     showgrid="false"
     inkscape:zoom="9.1"
     inkscape:cx="30"
     inkscape:cy="30"
     inkscape:window-x="0"
     inkscape:window-y="0"
     inkscape:window-maximized="1"
     inkscape:current-layer="svg32" />
  <g
     opacity="0.99"
     id="g30"
     transform="translate(3.9215)">
    <path
       d="M 26.079,8.398 13.057,12.67 6.945,51.628 H 45.212 L 39.1,12.67 Z"
       opacity="0.99"
       fill="#fcc8dc"
       fill-opacity="0.992"
       stroke="#000000"
       stroke-width="0.9978"
       id="path2" />
    <g
       stroke-width="0.8"
       fill="none"
       stroke="#ffffff"
       id="g6">
      <path
         d="m 26.85,19.626 c -0.35,1.48 0.9,3.056 2.782,3.554 -1.353,0.904 -1.803,1.806 -1.803,1.806 0.607,0.02 2.157,0.382 2.709,1.305 -0.256,0.084 -1.582,0.526 -1.78,1.343 m 1.143,0.15 c 5.197,-1.567 8.455,0.785 10.051,3.879 M 31.63,29.37 c 5.6,0.196 4.076,6.642 2.68,10.122 M 34.662,27.43 c 2.319,1.262 4.256,3.004 3.421,8.253 m -6.913,3.28 c -1.224,0.555 -1.855,5.25 -0.987,4.973 m 4.656,-13.155 c 1.957,7.638 -10.528,9.703 -8.711,17.281 m 5.678,-17.845 c 5.778,6.348 -10.899,8.88 -9.31,17.95 M 20.45,24.257 c 1.387,-1.872 2.615,-3.934 4.902,-4.726 m -2.469,6.771 c 1.752,-0.212 3.503,-0.324 5.255,-0.07 M 22.53,24.856 c 0.965,-1.206 2.883,-1.555 4.761,-1.94"
         stroke-width="0.550176"
         id="path4" />
    </g>
    <path
       d="m 14.49,30.57 c 4.678,0.157 11.499,6.11 13.119,2.962"
       fill="none"
       stroke="#ff0000"
       stroke-width="0.550176"
       id="path8" />
    <path
       d="m 25.145,28.413 c -3.473,0.892 -4.417,6.766 -7.332,9.177 -0.506,-0.253 -0.57,-0.82 -0.549,-1.995 l -1.945,-1.047 3.142,-0.4 -1.995,-1.097 2.644,-0.449 -1.097,-1.546 2.144,0.35 -0.1,-2.245 0.948,-0.499 v -1.496 l -0.499,-0.748 -0.798,0.1 0.05,0.698 -1.147,0.1 -0.1,0.848 -0.897,-0.3 -0.699,0.2 0.15,1.696 -1.446,-0.05 -0.05,2.743 c -0.327,-0.266 -0.79,-0.532 -1.646,-0.798 -0.265,1.563 -0.197,2.976 -0.2,4.538 l -2.344,-3.291 c 0.186,-0.452 0.693,-0.412 1.048,-1.447 -0.032,-0.722 -0.06,-1.442 -0.35,-2.294 1.761,-0.87 3.29,-2.434 4.788,-4.09 l 0.05,-3.441 c 0.628,-1.718 1.063,-2.648 1.603,-3.532 0.04,1.278 0.109,2.336 0.435,3.057 0.994,-1.057 0.019,-4.323 3.548,-6.158 -0.885,1.978 -2.538,4.053 -1.446,5.785 3.928,-4.87 8.018,-8.595 12.868,-6.883 -4.787,0.393 -8.326,3.161 -7.5,6.154 3.008,-3.36 6.696,-2.582 7.88,-2.005 -3.733,0.386 -5.26,1.817 -4.47,3.931 4.226,-1.214 7.46,-1.03 9.426,0.948 -2.367,-0.259 -5.81,-0.993 -5.9,0.393 16.565,7.31 -2.43,18.133 -2.728,19.557 -1.033,2.554 -0.447,3.523 -0.4,5.237 -5.418,2.619 -9.156,2.176 -11.97,0.05 -0.542,-7.647 6.246,-10.332 9.642,-11.931 3.72,-1.752 6.013,-8.536 0.556,-8.611 -0.463,0.976 -0.728,2.452 -0.471,4.332 -1.14,-3.35 -3.069,-4.328 -5.537,-3.69"
       fill="#ff0000"
       stroke="#ff0000"
       stroke-width="0.513039"
       id="path10" />
    <g
       stroke-width="0.8"
       id="g22">
      <path
         d="m 26.85,19.626 c -0.35,1.48 0.9,3.056 2.782,3.554 -1.353,0.904 -1.803,1.806 -1.803,1.806 0.607,0.02 2.157,0.382 2.709,1.305 -0.256,0.084 -1.582,0.526 -1.78,1.343"
         fill="none"
         stroke="#fdc8dc"
         stroke-width="0.740904"
         stroke-opacity="0.976"
         id="path12" />
      <g
         stroke="#ffffff"
         id="g18">
        <path
           d="m 29.901,27.784 c 5.197,-1.567 8.455,0.785 10.051,3.879 M 31.63,29.37 c 5.6,0.196 4.076,6.642 2.68,10.122"
           fill="none"
           stroke="#fdc8dc"
           stroke-width="0.740674"
           stroke-opacity="0.976"
           id="path14" />
        <path
           d="m 31.806,30.217 c 5.675,6.235 -10.311,8.788 -9.379,17.472 0.017,0.158 0.285,2.223 0.278,2.507"
           fill="none"
           stroke="#fdc8dc"
           stroke-width="0.740674"
           stroke-opacity="0.976"
           id="path16" />
      </g>
      <path
         d="m 22.883,26.302 c 1.752,-0.212 3.503,-0.324 5.255,-0.07 M 22.53,24.856 c 0.965,-1.206 2.883,-1.555 4.761,-1.94"
         fill="none"
         stroke="#fdc8dc"
         stroke-width="0.740674"
         stroke-opacity="0.976"
         id="path20" />
    </g>
    <path
       d="m 19.695,21.362 -1.529,1.172 v 1.784 c 0.772,-0.431 1.132,-0.853 1.427,-1.274 0.102,-0.628 0.22,-1.273 0.102,-1.682 z"
       fill="#fbc6da"
       fill-opacity="0.984"
       stroke="#fbc6da"
       stroke-width="0.740674"
       stroke-opacity="0.984"
       id="path24" />
    <path
       d="m 14.49,30.57 c 4.678,0.157 11.499,6.11 13.119,2.962"
       fill="none"
       stroke="#ff0000"
       stroke-width="0.57012"
       id="path26" />
    <path
       d="m 29.8,34.442 1.907,1.193 m -5.745,1.238 c 0.678,0.875 1.176,1.605 2.246,1.598 M 21.36,39.9 c 0.52,1.344 1.878,1.458 3.437,1.577 m -6.164,2.758 c 0.566,2.47 2.31,2.272 4,2.08"
       fill="none"
       stroke="#fdc8dc"
       stroke-width="0.740943"
       stroke-opacity="0.976"
       id="path28" />
  </g>
</svg>
