<svg xmlns="http://www.w3.org/2000/svg" viewBox="0 0 52.157 52.157"><g opacity=".99"><path d="m-11.042 6.57-12.944 4.222-6.863 43.504H8.766L1.903 10.793z" fill="#fee572" stroke="#000" transform="matrix(.84528 0 0 .84191 35.412 .468)"/><g fill="red" stroke="red" stroke-width="1.49" stroke-linejoin="round" paint-order="stroke fill markers"><path d="M-23.095 44.733c-4.133 8.932-4.333 7.65-13.39 13.799 8.913 3.135 18.7 2.896 26.779 0-9.057-6.15-9.439-5.165-13.39-13.8z" transform="matrix(.42154 0 0 .51308 35.814 -5.234)"/><path d="M-26.818 58.55c-.101 8.756-.37 15.837-11.545 21.428-5.232 2.786-6.963 4.476-7.615 9.333 6.785 1.493 14.837 2.21 22.883 2.179 8.046.031 16.097-.686 22.882-2.18-.651-4.856-2.382-6.546-7.615-9.332-11.174-5.591-11.443-12.672-11.545-21.428-1.24.02-2.481.02-3.722.02s-2.482 0-3.723-.02z" transform="matrix(.42154 0 0 .51308 35.814 -5.234)"/></g><g transform="translate(-336.639 -55.057) scale(.59667)" fill="#ffdf00" stroke="red"><path transform="matrix(.06853 0 0 .08094 589.047 105.58)" d="M89.878 104.455c71.228 71.229 31.757 135.825 52.51 165.382 28.87 49.947 71.082 59.605 129.342 59.37a77.788 77.788 0 0 0 3.413-.09 77.17 77.17 0 0 0 3.413.09c58.26.235 100.472-9.423 129.342-59.37 20.753-29.557-18.718-94.153 52.51-165.382-11.605-5.015-42.725 25.609-62.898 25.529-25.612-15.171-47.031 3.08-52.25 16.777 37.838-11.301 70.078 121.468-45.539 137.914-7.067 1.97-16.164 2.514-24.578 2.72-8.414-.206-17.511-.75-24.578-2.72-115.617-16.446-83.377-149.215-45.538-137.914-5.22-13.698-26.64-31.948-52.251-16.777-20.173.08-51.293-30.544-62.898-25.53z" stroke-width="14.177"/><ellipse cx="607.903" cy="124.96" rx="3.947" ry="3.818" stroke-width="1.056"/></g></g></svg>