<svg xmlns="http://www.w3.org/2000/svg" width="52.157" height="52.157"><g opacity=".99" stroke="#000"><path d="M-11.042 6.667l-12.954 4.22-6.853 43.409H8.766L1.91 10.888z" fill="#feec99" transform="matrix(.84528 0 0 -.84362 35.412 51.782)"/><g stroke-linejoin="round" stroke-width="1.461" paint-order="stroke fill markers"><path d="M-23.095 37.944c-2.135 9.081-4.333 14.438-13.39 20.588 8.913 3.135 18.7 2.896 26.779 0-9.057-6.15-11.255-11.507-13.39-20.588z" transform="matrix(.42997 0 0 -.52335 36.009 59.937)"/><path d="M-26.818 58.55c-.101 8.756-.37 15.837-11.545 21.428-5.232 2.786-6.963 4.476-7.615 9.333 6.785 1.493 14.837 2.21 22.883 2.179 8.046.031 16.097-.686 22.882-2.18-.651-4.856-2.382-6.546-7.615-9.332-11.174-5.591-11.443-12.672-11.545-21.428v0c-1.24.02-2.481.02-3.722.02s-2.482 0-3.723-.02z" transform="matrix(.42997 0 0 -.52335 36.009 59.937)"/></g></g></svg>