<?xml version="1.0" encoding="UTF-8" standalone="no"?>
<svg
   xmlns:dc="http://purl.org/dc/elements/1.1/"
   xmlns:cc="http://creativecommons.org/ns#"
   xmlns:rdf="http://www.w3.org/1999/02/22-rdf-syntax-ns#"
   xmlns:svg="http://www.w3.org/2000/svg"
   xmlns="http://www.w3.org/2000/svg"
   xmlns:sodipodi="http://sodipodi.sourceforge.net/DTD/sodipodi-0.dtd"
   xmlns:inkscape="http://www.inkscape.org/namespaces/inkscape"
   width="60"
   height="60"
   version="1.1"
   id="svg24"
   sodipodi:docname="1KY.svg"
   inkscape:version="1.0.1 (3bc2e813f5, 2020-09-07)">
  <metadata
     id="metadata30">
    <rdf:RDF>
      <cc:Work
         rdf:about="">
        <dc:format>image/svg+xml</dc:format>
        <dc:type
           rdf:resource="http://purl.org/dc/dcmitype/StillImage" />
      </cc:Work>
    </rdf:RDF>
  </metadata>
  <defs
     id="defs28" />
  <sodipodi:namedview
     pagecolor="#ffffff"
     bordercolor="#666666"
     borderopacity="1"
     objecttolerance="10"
     gridtolerance="10"
     guidetolerance="10"
     inkscape:pageopacity="0"
     inkscape:pageshadow="2"
     inkscape:window-width="1366"
     inkscape:window-height="711"
     id="namedview26"
     showgrid="false"
     inkscape:zoom="9.1"
     inkscape:cx="30"
     inkscape:cy="30"
     inkscape:window-x="0"
     inkscape:window-y="0"
     inkscape:window-maximized="1"
     inkscape:current-layer="svg24" />
  <g
     opacity="0.99"
     id="g22"
     transform="translate(3.9214986)">
    <path
       d="M 26.08,49.831 36.775,46.289 42.378,10.146 H 9.779 l 5.6,36.125 z"
       fill="#feec99"
       stroke="#000000"
       stroke-width="0.82341"
       id="path2" />
    <path
       d="m 515.823,67.786 16.979,-16.978 1.546,1.546 -16.978,16.979 z"
       stroke="#000000"
       stroke-width="0.769"
       transform="matrix(0.63112,0,0,-0.61678,-305.312,56.656)"
       id="path4" />
    <g
       stroke="#000000"
       stroke-width="4.938"
       id="g14">
      <path
         d="M 372.14,1585.471 V 1324.82 h 15 v 260.652 z"
         stroke-width="5.276"
         transform="matrix(0.09203,0,0,-0.08994,-8.861,154.046)"
         id="path6" />
      <g
         fill="none"
         id="g12">
        <path
           d="m 373.444,1325.142 -13.45,-9.477 2.65,-110.432 16.688,-28.57 17.542,28.57 2.373,110.432 -13.382,9.477 z"
           stroke-width="7.914"
           transform="matrix(0.09203,0,0,-0.08994,-8.861,154.046)"
           id="path8" />
        <path
           d="m 379.551,1181.017 v 105.099 l 17.91,15.182 m -17.91,-15.182 -17.687,15.182"
           stroke-width="5.935"
           transform="matrix(0.09203,0,0,-0.08994,-8.861,154.046)"
           id="path10" />
      </g>
    </g>
    <path
       d="M 19.295,41.675 H 33.88 v 1.329 H 19.295 Z"
       stroke="#000000"
       stroke-width="0.467"
       transform="matrix(1.03911,0,0,-1.0155,-1.548,62.602)"
       id="path16" />
    <path
       d="m 26.078,28.14 a 8.732,8.534 0 0 1 -8.732,-8.534 8.732,8.534 0 0 1 8.732,-8.534 8.732,8.534 0 0 1 8.733,8.534 8.732,8.534 0 0 1 -8.733,8.534 z m 0,-1.861 a 6.827,6.672 0 0 0 6.827,-6.673 6.827,6.672 0 0 0 -6.827,-6.672 6.827,6.672 0 0 0 -6.828,6.672 6.827,6.672 0 0 0 6.828,6.673 z"
       id="path18" />
    <path
       d="m 517.37,50.808 16.978,16.978 -1.546,1.547 -16.979,-16.979 z"
       stroke="#000000"
       stroke-width="0.769"
       transform="matrix(0.63112,0,0,-0.61678,-305.312,56.656)"
       id="path20" />
  </g>
</svg>
