<svg xmlns="http://www.w3.org/2000/svg" width="52.157" height="60"><g opacity=".99"><path d="M26.08 49.831l10.695-3.542 5.603-36.143H9.779l5.6 36.125z" fill="#feec99" stroke="#000" stroke-width=".82341"/><path d="M515.823 67.786l16.979-16.978 1.546 1.546-16.978 16.979z" stroke="#000" stroke-width=".769" transform="matrix(.63112 0 0 -.61678 -305.312 56.656)"/><g stroke="#000" stroke-width="4.938"><path d="M372.14 1585.471V1324.82h15v260.652z" stroke-width="5.276" transform="matrix(.09203 0 0 -.08994 -8.861 154.046)"/><g fill="none"><path d="M373.444 1325.142l-13.45-9.477 2.65-110.432 16.688-28.57 17.542 28.57 2.373 110.432-13.382 9.477z" stroke-width="7.914" transform="matrix(.09203 0 0 -.08994 -8.861 154.046)"/><path d="M379.551 1181.017v105.099l17.91 15.182M379.551 1286.116l-17.687 15.182" stroke-width="5.935" transform="matrix(.09203 0 0 -.08994 -8.861 154.046)"/></g></g><path d="M19.295 41.675H33.88v1.329H19.295z" stroke="#000" stroke-width=".467" transform="matrix(1.03911 0 0 -1.0155 -1.548 62.602)"/><path d="M26.078 28.14a8.732 8.534 0 0 1-8.732-8.534 8.732 8.534 0 0 1 8.732-8.534 8.732 8.534 0 0 1 8.733 8.534 8.732 8.534 0 0 1-8.733 8.534zm0-1.861a6.827 6.672 0 0 0 6.827-6.673 6.827 6.672 0 0 0-6.827-6.672 6.827 6.672 0 0 0-6.828 6.672 6.827 6.672 0 0 0 6.828 6.673z"/><path d="M517.37 50.808l16.978 16.978-1.546 1.547-16.979-16.979z" stroke="#000" stroke-width=".769" transform="matrix(.63112 0 0 -.61678 -305.312 56.656)"/></g></svg>