<svg xmlns="http://www.w3.org/2000/svg" width="52.157" height="52.157"><g opacity=".99"><path d="M-11.54 7.394l-12.768 4.282-6.541 42.62H7.766L1.225 11.675z" fill="#fdd3e3" fill-opacity=".992" stroke="#000" transform="matrix(-1.04056 0 0 -.9678 14.069 55.917)"/><g stroke="red"><g stroke-width="2.599"><path d="M23.039 34.396c-3.846-.29-2.173-.785-5.061-1.981l-3.952-2.013.457-2.966c-.381-3.702-2.02-6.159-4.047-9.118l-.942-.685c1.548-.722 2.077-1.158 2.155-1.602.497-.856 1.437-.97 2.318-1.292l-.694 3.4 4.132 4.858c-.529-2.922 1.073-3.422.546-6.33l-1.406-3.374 1.22-.353 1.606 2.395c.13 2.817.718 5.146 1.289 7.971 2.442-.474 2.999-2.077 5.492 1.467-1.2-2.654.158-4.979-.796-7.726-4.58-3.903-4.849-6.847-6.316-9.855 8.365-2.729 17.244 1.802 23.623-.587-.69.949-2.76 4.355-6.82 6.113 2.183.563 1.958 1.81 6.202.695-.98 1.495-5.92 7.084-7.305 5.7 2.165.155 3.893 1.508 6.511.417-3.014 3.755-5.138 3.357-7.61 4.391l3.124.15 3.161.153c-1.912 3.34-5.596 3.941-9.01 4.96 1.747.596 4.372.42 6.916.163-3.105 2.507-6.926 3.914-11.242 5.007" fill="red" stroke-width="1.197" stroke-linejoin="round"/><path d="M18.064 28.72c-.322-.51-.139-.902-1-2.323.393-.232.717-.028 1.144.443.658.78.67.886-.144 1.88z" fill="#fdd3e3" fill-opacity=".992" stroke="#fdd3e3" stroke-width="1.26" stroke-opacity=".992"/></g><path d="M13.98 30.426c-.198 1.693 4.69 4.504 5.018 6.693l-1.714 2.462 3.106-1.017c1.883.31 7.443 2.842 9.565 4.936.346.341.752 1.35.768 1.703.935-1.37 1.124-1.321 1.642-2.609-1.513-1.693-5.436-3.242-7.317-4.124-3.285-2.103-4.892-5.131-7.698-7.654z" fill="#fdd3e3" fill-opacity=".992" stroke-width=".819"/><path d="M20.122 30.855c1.267.893 2.614 3.91 3.825 5.216 1.204 1.3 1.718.488 3.563 1.422-.11.048-1.079-1.959-1.203-3.704-.071-.997.675-2.052.648-2.228-.306-2.056-4.02-2.216-4.745-2.955" fill="red" stroke-width="1.285"/><path d="M13.952 15.176l1.67.871-1.704.726" fill="red" stroke-width=".857"/><path d="M26.666 31.342c8.534-2.21 5.246-18.676 7.911-24.022.128-.257.138-.297.193-.672" fill="none" stroke="#fdd3e3" stroke-width="1.008" stroke-opacity=".992"/><path d="M24.681 22.118c.48.702 1.203 2.471 1.682 4.53m-6.473 4.12c1.513 1.454 2.086 2.596 2.068 4.22m.241-6.372c.274.066 3.91 2.083 4.467 2.726-.811 1.294.081 2.286 0 3.407" fill="none" stroke="#fdd3e3" stroke-width=".882" stroke-opacity=".992"/><path d="M17.224 13.517l-1.67.87 1.704.726" fill="red" stroke-width=".857"/></g><path d="M30.376 29.752c1.035.004 2.58-.123 3.615-.72m-1.268-4.277c2.431-.257 3.12-.425 4.43-1.003m-3.824-3.918c.903-.023 1.967-.05 4.391-.833m-3.937-5.528c1.388.19 2.246-.288 3.635-.681" fill="none" stroke="#fdd3e3" stroke-width=".882" stroke-opacity=".992"/></g></svg>