<svg xmlns="http://www.w3.org/2000/svg" viewBox="0 0 60 60"><defs><filter id="a" color-interpolation-filters="sRGB"><feFlood flood-opacity=".498" flood-color="#000" result="flood"/><feComposite in="flood" in2="SourceGraphic" operator="in" result="composite1"/><feGaussianBlur in="composite1" stdDeviation="1" result="blur"/><feOffset dx="5" dy="3" result="offset"/><feComposite in="SourceGraphic" in2="offset" result="composite2"/></filter></defs><g opacity=".99"><g filter="url(#a)" transform="matrix(.63001 0 0 .62999 -352.686 1.824)"><path d="m607.424 10-17.38 5.652-9.195 58.128L634 73.779l-9.197-58.126z" fill="#fee572"/><path d="M580.849 73.78v5.668H634v-5.67z" fill="#c3983c" fill-opacity=".992"/></g><path d="M33.444 42.141c-2.344-2.152-2.51-2.404-1.594-2.404 1.479 0 5.138 1.935 5.436 2.873.237.742-.39 1.998-.973 1.954-.139-.01-1.43-1.1-2.869-2.423zm-11.6 1.808c.178-.19 1.176-.806 2.22-1.37 1.262-.68 1.944-1.328 2.029-1.932.146-1.029.789-1.158 1.862-.373 1.002.733.51 2.125-1.032 2.923-1.31.678-5.604 1.313-5.08.752zm-.321-4.686c-1.87-1.47-1.338-1.909 2.009-1.657 3.418.258 3.757.002 3.128-2.362-.367-1.376-.732-1.526-2.412-.991-1.467.468-1.054-.272 1.11-1.985 1.11-.88 2.02-1.921 2.02-2.315 0-.82.82-.942 1.534-.229.67.671.605 1.539-.184 2.41-.633.701-.603.74.598.74.696 0 2.007-.297 2.914-.66 1.312-.525 1.855-.565 2.665-.196 1.164.53 1.084 1.403-.146 1.584-.473.07-.919.508-1.028 1.01a11.588 11.587 0 0 1-.512 1.653c-.3.719-.17.75 2.107.492 2.04-.23 2.58-.154 3.365.482 1.304 1.055.837 2.3-.718 1.913-.608-.15-2.76-.373-4.783-.495-3.398-.204-4.517-.077-9.143 1.036-1.253.3-1.689.227-2.525-.431zm10.035-2.254c.428-.692.761-3.435.39-3.204-.214.131-1.16.283-2.102.34-1.509.09-1.687.198-1.49.929.122.455.225 1.146.227 1.534.005.535.344.708 1.396.708.763 0 1.474-.139 1.578-.307zm-6.2-8.305c0-.107 1.002-.762 2.229-1.453 3.58-2.02 5.445-3.913 5.445-5.53 0-.751-.167-1.366-.371-1.366-.98 0-1.649.577-1.649 1.423 0 .514-.11 1.222-.245 1.572-.306.8-1.774.846-1.774.057 0-1.134-.85-1.08-2.247.147-1.475 1.296-2.902 1.585-3.73.758-.676-.676-.604-1.99.17-3.098.658-.94 1.615-1.011 3.99-.296 1.173.352 2.361-.696 2.016-1.782-.212-.67-.48-.813-1.147-.61-1.75.533-2.06.416-2.515-.958-.25-.757-.782-1.616-1.183-1.908-.647-.473-.657-.56-.084-.78 1.17-.448 2.098.017 2.508 1.252.37 1.118.497 1.187 1.515.826.887-.313 1.11-.642 1.105-1.628-.009-1.43-.321-1.998-1.307-2.362-1.37-.505-.737-1.142 1.011-1.015 1.363.098 1.739.291 1.831.94.1.69.36.794 1.67.67.925-.089 1.674.047 1.853.338.408.661-.532 1.19-2.124 1.198-.782.004-1.313.211-1.313.514 0 .35.538.465 1.74.368 1.206-.094 1.896.053 2.255.485.75.904.193 1.475-1.169 1.203-1.82-.363-3.194.11-2.957 1.019.17.652.408.711 1.68.421 1.763-.402 4.323.182 4.662 1.064.276.72-.624 1.172-1.751.878-.678-.178-.771 0-.716 1.361.106 2.684-3.072 5.122-8.085 6.204-.722.156-1.314.195-1.314.088zm.027-5.94c1.09-.584.973-1.198-.229-1.198-.555 0-1.01.076-1.01.17 0 .093-.11.456-.245.807-.282.736.347.83 1.484.22z" fill="#d0d0d0"/><path d="M33.738 42.404c-1.278-1.18-2.322-2.276-2.322-2.438 0-.16.59-.165 1.313-.01 3.056.658 5.36 2.794 4.34 4.023-.277.333-.616.596-.757.586-.138-.01-1.297-.983-2.574-2.162zm-11.433 1.158c.431-.327.96-.594 1.174-.594.815 0 3.14-2.117 2.93-2.666-.296-.767.756-.719 1.545.07.82.82.8 1.054-.17 2.097-.883.948-3.16 1.712-5.05 1.695-1.154-.009-1.174-.04-.428-.602zm-1.164-4.722c-.345-.494-.63-1.008-.63-1.144 0-.136 1.456-.163 3.232-.061 3.58.208 3.561.224 2.98-2.69-.244-1.211-.314-1.25-1.92-1.042l-1.665.217 1-.725c2.34-1.696 3.59-3.019 3.377-3.573-.273-.712.715-.781 1.397-.099.794.794.555 1.818-.626 2.684l-1.11.814 1.817-.204c.999-.111 2.5-.49 3.335-.842 1.2-.505 1.731-.543 2.524-.182 1.274.58 1.287 1.197.031 1.512-.566.142-1.072.638-1.21 1.182a17.681 17.68 0 0 1-.506 1.645c-.247.642-.047.685 2.148.456 1.833-.192 2.634-.104 3.3.36 1.854 1.3.773 2.357-1.8 1.76-2.412-.559-8.182-.439-10.65.224-3.118.837-4.28.77-5.024-.292zm10.885-3.167c.154-.904.214-1.688.137-1.742-.078-.054-1.092-.024-2.255.066-1.905.148-2.075.237-1.716.907.219.408.397 1.118.397 1.576 0 .702.253.835 1.58.835 1.532 0 1.587-.049 1.857-1.642zm-6.264-7.034c0-.083 1.045-.79 2.322-1.57 3.71-2.268 4.947-3.597 4.947-5.307 0-1.283-.111-1.449-.898-1.335-.7.1-.971.508-1.235 1.845-.376 1.914-1.081 2.196-2.013.808l-.612-.909-.952.859c-1.172 1.055-2.514 1.767-3.336 1.767-.852 0-1.572-1.491-1.281-2.652.367-1.46 1.65-1.977 3.52-1.417 1.941.581 3.285.013 3.096-1.309-.123-.87-.449-.948-2.504-.606-.584.098-.903-.28-1.347-1.588-.32-.945-.748-1.717-.952-1.717-.203 0-.37-.193-.37-.431 0-.236.499-.373 1.11-.302.826.094 1.215.442 1.514 1.351.37 1.123.496 1.193 1.515.832.887-.314 1.11-.643 1.105-1.629-.009-1.43-.321-1.998-1.307-2.362-1.291-.475-.764-1.146.798-1.017 1.014.085 1.64.39 1.919.933.314.615.739.778 1.776.678 1.604-.154 2.598.547 1.663 1.17-.332.222-1.194.318-1.915.212-1.091-.16-1.313-.062-1.313.583 0 .68.211.745 1.73.537 1.32-.18 1.864-.08 2.281.422.767.925.284 1.221-1.793 1.093-2.12-.13-2.613.098-2.356 1.084.165.627.53.705 2.59.557 2.466-.18 3.605.267 3.605 1.413 0 .413-.378.544-1.304.454-1.266-.123-1.301-.085-1.188 1.303.205 2.514-1.94 4.364-6.694 5.774-1.167.345-2.121.56-2.121.476zm.231-6.298c.758-.837.755-.84-.64-.707-.947.09-1.445.363-1.536.841-.189 1.002 1.228.915 2.176-.135z" fill="#b0b0b0"/><path d="M22.681 43.69c.416-.286 1.325-.888 2.02-1.337.694-.45 1.443-1.223 1.663-1.718.443-1.002.942-.99 1.588.036.89 1.41-.989 2.88-4.226 3.304-1.55.203-1.695.162-1.045-.285zm10.806-1.554c-1.192-1.117-2.086-2.113-1.986-2.214.1-.1 1.11.095 2.246.431 2.956.878 4.819 3.459 2.685 3.72-.463.057-1.65-.726-2.945-1.937zm-12.414-3.421c-.847-1.292-.581-1.553 1.118-1.096.742.198 2.123.283 3.066.189 1.85-.188 1.956-.401 1.46-2.892-.25-1.248-.31-1.28-1.919-1.054-1.435.203-1.555.165-.885-.277 1.876-1.235 3.89-3.307 3.697-3.805-.394-1.028.996-.542 1.48.517.434.958.372 1.145-.669 1.975l-1.149.917 1.97-.206c1.085-.114 2.533-.464 3.22-.78.92-.422 1.527-.465 2.321-.164 1.418.54 1.362 1.11-.14 1.44-.669.146-1.128.407-1.022.579.106.17-.021.877-.28 1.567-.26.69-.393 1.333-.291 1.43.1.094 1.092.032 2.202-.142 2.256-.352 4.241.339 4.241 1.474 0 .566-.371.605-2.929.312-3.848-.442-8.037-.265-10.86.456-3.151.805-3.86.737-4.631-.44zm10.896-2.309c.134-.5.246-1.339.25-1.864.003-.796-.15-.915-.904-.713-.5.134-1.495.246-2.211.25-1.244.004-1.284.054-.893 1.084.227.593.318 1.32.205 1.616-.152.395.258.536 1.552.536 1.481 0 1.796-.143 2-.909zm-6.207-7.766c0-.083.955-.697 2.123-1.365 3.35-1.917 5.04-3.65 5.29-5.431.208-1.468.169-1.534-.838-1.415-.843.102-1.143.445-1.497 1.71-.514 1.843-1.203 2.243-1.834 1.066-.599-1.117-1.07-1.051-2.7.38-1.559 1.368-2.226 1.49-3.14.576-.908-.907-.784-1.909.37-2.995.934-.876 1.117-.908 2.567-.429 2.402.793 3.804-.198 3.053-2.157-.218-.565-.362-.567-1.426-.016-1.471.76-1.865.53-2.205-1.285-.149-.787-.518-1.528-.823-1.644-.896-.343-.636-1.002.34-.861.746.106 1.24.711 2.197 2.682.187.384 2.509-1.225 2.38-1.648a27.024 27.023 0 0 1-.39-1.584c-.136-.615-.606-1.201-1.086-1.353-1.199-.381-.351-1.094 1.103-.927.701.08 1.306.463 1.528.969.289.655.72.832 1.98.808.947-.018 1.681.178 1.785.474.123.357-.371.505-1.676.505-1.62 0-1.85.109-1.85.86 0 .765.163.835 1.469.623 1.484-.24 2.972.237 2.972.954 0 .216-1.06.39-2.356.39-2.649 0-3.033.19-2.413 1.183.344.552.86.657 2.543.517 2.27-.188 3.841.372 3.841 1.37 0 .452-.349.583-1.312.49-1.263-.123-1.307-.077-1.178 1.206.17 1.718-.701 3.021-2.858 4.266-1.567.908-5.96 2.44-5.96 2.081zm.101-6.022c1.057-.801.86-1.119-.602-.977-.863.083-1.355.368-1.444.833-.162.854 1.003.936 2.046.144zm3.533-1.053c0-.222-.079-.403-.177-.403s-.29.181-.428.403c-.137.223-.057.404.178.404s.427-.18.427-.404z" fill="#8e8e8e"/><path d="M22.127 44.003c0-.098.913-.673 2.03-1.282 1.267-.688 2.116-1.455 2.263-2.035.192-.771.365-.862 1-.523.96.514.985 1.673.052 2.517-.89.806-5.345 1.909-5.345 1.323zm12.099-1.337c-.77-.834-1.764-1.72-2.206-1.972-1.418-.806-.375-1.006 1.664-.322 2.426.813 3.385 1.626 3.385 2.86 0 1.431-1.222 1.188-2.844-.566zm-12.89-3.812c-1.144-1.227-1.04-1.692.287-1.296.982.293 5.333.312 5.62.025.061-.06-.12-1.009-.399-2.108-.36-1.403-.685-1.95-1.1-1.84-2.47.655-2.617.559-.991-.652 2.145-1.597 3.166-2.79 2.842-3.315-.407-.66.454-.509 1.166.205.875.873.804 1.267-.433 2.413l-1.068.992 1.977-.258c1.087-.14 2.573-.497 3.303-.792.913-.37 1.635-.42 2.322-.158 1.317.5 1.263 1.052-.129 1.33-.7.141-1.148.503-1.185.96-.033.403-.183 1.228-.334 1.833l-.273 1.1 2.59-.242c2.117-.198 2.716-.118 3.276.444 1.285 1.284.845 1.572-1.838 1.202-3.501-.484-8.387-.296-11.19.43-3.082.8-3.466.775-4.444-.272zm10.416-1.764c.074-.062.239-.883.365-1.824.221-1.652.196-1.703-.74-1.453-.534.143-1.549.263-2.256.266-1.238.004-1.272.049-.93 1.24.196.679.26 1.48.145 1.782-.165.43.168.5 1.536.325.96-.122 1.807-.274 1.88-.336zm-3.365-10.046c3.26-1.965 5.048-3.912 5.048-5.5 0-1.116-.114-1.23-1.1-1.116-.895.104-1.183.423-1.544 1.72-.518 1.852-1.156 2.231-1.786 1.057-.598-1.117-1.069-1.051-2.699.38-1.559 1.368-2.226 1.49-3.14.576-.908-.907-.784-1.909.37-2.995.94-.883 1.109-.91 2.607-.416 1.395.46 1.733.443 2.62-.138.886-.581.96-.794.573-1.642-.382-.84-.574-.916-1.377-.55-1.307.596-2.074.18-2.398-1.296-.154-.697-.534-1.365-.846-1.484-.906-.348-.656-1.008.327-.866.693.1 1.835 1.497 2.16 2.646.014.05.618-.13 1.34-.402 1.223-.463 1.294-.59 1.047-1.912-.312-1.666-.855-2.424-1.736-2.424-.455 0-.513-.124-.201-.435.715-.718 2.712-.27 3.14.705.305.696.694.86 1.899.808 2.111-.096 2.145.71.038.863-1.428.103-1.717.265-1.717.961 0 .739.184.813 1.548.63 1.56-.208 2.894.22 2.894.93 0 .21-1.181.383-2.625.383s-2.625.093-2.625.208c0 .114.216.552.479.974.4.64.812.73 2.558.549 2.244-.232 3.828.319 3.828 1.33 0 .475-.303.553-1.38.352l-1.38-.26.208 1.553c.157 1.186.004 1.81-.65 2.64-.935 1.185-4.252 2.896-6.49 3.347-1.28.257-1.183.145 1.01-1.176zm-1.817-5.038c0-.19-.355-.439-.788-.553-1.073-.28-2.239.624-1.91 1.482.239.623.359.626 1.479.049.67-.348 1.219-.787 1.219-.977zm2.826-.262c0-.346-.184-.516-.41-.376-.226.14-.306.422-.178.63.347.56.588.455.588-.254z" fill="#6f6f6f"/><path d="M22.532 43.866c0-.16.865-.747 1.918-1.302 1.286-.677 1.96-1.308 2.047-1.917.11-.772.25-.844.933-.478 1.232.66.805 2.075-.86 2.855-1.642.768-4.04 1.268-4.038.843zm10.97-1.928-2.155-2.183 1.871.563c2.675.806 3.852 1.68 3.852 2.86 0 1.591-1.176 1.182-3.568-1.24zm-12.18-3.208c-1.175-1.251-.955-1.517.83-1.004.764.219 2.256.282 3.318.142 1.521-.202 1.887-.395 1.737-.91-.104-.359-.312-1.346-.463-2.192-.217-1.216-.41-1.48-.931-1.259-2.387 1.01-2.523.572-.329-1.07 1.682-1.258 2.293-1.96 2.158-2.477-.244-.933.238-.92 1.096.028.831.918.578 1.682-.866 2.608-1.099.706-1.097.706 1.323.44 1.333-.147 2.877-.486 3.432-.757 1.12-.544 2.879-.261 3.134.504.106.32-.286.493-1.115.493-.847 0-1.219.17-1.103.505.096.278-.066 1.196-.36 2.043l-.537 1.538 2.717-.268c2.432-.24 2.797-.18 3.478.574.701.775.707.862.081 1.103-.374.143-1.75.034-3.059-.244-2.65-.562-7.103-.296-10.593.633-2.804.746-2.848.742-3.949-.43zm10.593-1.982c.163-.244.3-1.04.302-1.77l.007-1.325-2.122.27c-1.165.148-2.135.292-2.154.316-.021.026.044.819.142 1.76l.18 1.716 1.673-.262c.921-.143 1.808-.46 1.971-.705zm-3.528-9.695c3.242-1.965 5.048-3.926 5.048-5.481 0-1.083-.133-1.218-1.207-1.218-1.096 0-1.23.148-1.466 1.624-.317 1.985-.917 2.436-1.69 1.272-.75-1.13-1.338-1.105-2.464.092-1.202 1.28-2.664 1.538-3.497.617-.801-.886-.464-2.186.777-2.999.72-.471 1.181-.496 2.393-.122 1.181.362 1.717.345 2.51-.08 1.138-.61 1.233-1.085.423-2.151-.462-.612-.71-.66-1.43-.273-1.206.644-1.897.276-2.217-1.18-.15-.681-.576-1.408-.947-1.617-.625-.35-.621-.399.036-.653.945-.364 1.914.489 1.914 1.682 0 1.107.085 1.13 1.89.477.816-.296 1.34-.76 1.34-1.186 0-1.33-.82-2.85-1.654-3.069-.637-.166-.709-.3-.297-.561 1.079-.684 2.362-.378 2.844.68.42.924.63 1.004 2.01.771 1.247-.21 1.54-.138 1.54.382 0 .475-.405.64-1.57.64-1.214 0-1.613.178-1.773.789-.183.703.038.801 2.041.91 1.347.07 2.315.32 2.414.623.123.372-.586.505-2.693.505-1.574 0-2.862.091-2.862.203 0 .11.344.544.765.963.59.592 1.16.72 2.523.571 2.065-.225 3.982.4 3.982 1.3 0 .51-.286.58-1.458.36-1.455-.273-1.455-.27-1.185.963.45 2.052-.667 3.608-3.544 4.942-1.373.633-3.041 1.276-3.707 1.423-.918.203-.624-.087 1.211-1.2zm-2.514-4.357 1.246-.885-1.159-.31c-1.326-.355-2.217.179-2.217 1.326 0 .993.605.957 2.13-.13zm3.73-1.461c-.32-.322-1.015.406-.768.806.167.27.375.23.59-.118.183-.294.263-.604.18-.69z" fill="#4f4f4f"/><path d="m33.502 41.936-2.155-2.18 1.87.562c2.605.785 3.834 1.793 3.846 3.155.012 1.284-1.362.692-3.562-1.537zm-9.318.907c.979-.513 1.962-1.336 2.183-1.828.53-1.177 1.616-.947 1.616.343 0 1.214-2.09 2.416-4.203 2.417h-1.376zm-2.51-3.78c-1.303-1.515-1.259-1.71.294-1.282 1.26.348 5.41.131 5.41-.282 0-.08-.2-1.075-.444-2.212-.337-1.568-.588-2.012-1.046-1.835-.333.127-1.087.332-1.678.456-1.022.211-1.034.197-.23-.306 2.168-1.357 3.902-3.118 3.667-3.728-.289-.754.178-.836.861-.15.791.79.558 1.814-.625 2.738l-1.112.866 2.221-.246c1.222-.137 2.785-.447 3.473-.691 1.329-.472 3.393-.173 3.393.49 0 .217-.509.396-1.132.396-1.035 0-1.167.173-1.55 2.036l-.415 2.037 2.658-.262c2.372-.233 2.743-.17 3.422.58.677.747.69.87.117 1.088-.354.136-1.569.05-2.7-.192-2.81-.604-5.723-.544-9.082.186-1.556.338-3.285.713-3.847.833-.69.148-1.223-.02-1.653-.52zm10.228-2.272c.17-.268.312-1.094.315-1.837l.007-1.349-2.122.284c-1.165.159-2.135.312-2.154.342-.021.03.046.847.146 1.815l.185 1.76 1.657-.264c.912-.146 1.796-.484 1.967-.751zm-4.524-8.898c0-.074.898-.715 1.994-1.426 2.629-1.704 4.063-3.454 4.063-4.957 0-1.118-.096-1.198-1.313-1.08-1.195.115-1.33.268-1.514 1.71-.112.871-.406 1.65-.657 1.733-.669.22-1.048-1.107-.503-1.763.53-.64.227-1.168-.435-.758a.51.51 0 0 0-.172.699c.152.246.027.345-.297.232-.309-.107-1.158.324-1.887.957-2.18 1.894-4.565 1.155-3.696-1.144.531-1.408 1.702-1.825 3.269-1.168 1.184.5 1.479.488 2.458-.091 1.243-.735 1.344-1.153.527-2.23-.463-.612-.71-.66-1.432-.273-1.09.582-2.021.257-2.021-.704 0-.402-.291-1.146-.646-1.654-.75-1.072-.434-1.645.565-1.019.378.237.742.985.81 1.661l.123 1.23 1.594-.625c1.291-.507 1.592-.827 1.592-1.687 0-1.317-1.03-2.846-1.94-2.88-.469-.017-.381-.146.282-.412 1.254-.502 2.357-.136 2.683.89.208.651.545.788 1.699.685.892-.08 1.507.065 1.613.376.12.348-.325.505-1.433.505-1.427 0-2.097.461-2.097 1.447 0 .092 1 .17 2.223.17 1.585 0 2.22.154 2.22.54 0 .39-.686.547-2.462.564-1.353.012-2.661.223-2.907.468-.325.325-.273.445.194.445.351 0 .73.345.839.766.18.685.368.72 1.819.332 1.937-.517 4.266.015 4.459 1.016.107.562-.116.632-1.356.43l-1.483-.24.276 1.26c.42 1.91-.748 3.519-3.578 4.935-2.11 1.053-3.473 1.47-3.473 1.06zm-1.366-5.257 1.102-.947-1.119-.282c-1.286-.322-2.252.287-2.252 1.42 0 1.032.94.952 2.268-.191z" fill="#2f2f2f"/><path d="M33.912 42.144c-2.287-2.132-2.289-2.22-.043-1.597 1.728.48 3.401 2.123 3.062 3.007-.356.93-.667.784-3.02-1.409zm-9.564.747c.889-.521 1.796-1.354 2.015-1.849.66-1.49 2.145-.935 1.65.617-.315.994-1.53 1.659-3.546 1.938l-1.734.241zm-2.743-3.868c-.378-.42-.69-.85-.69-.957 0-.107 1.348-.185 2.994-.17 1.647.013 3.121-.103 3.276-.257.39-.386-.6-4.363-1.086-4.363-.214 0-.758.197-1.206.437-1.564.837-1.124.104.717-1.194 1.02-.718 1.95-1.667 2.065-2.109.264-1.009 1.074-.781 1.242.348.082.558-.232 1.087-.905 1.528-1.645 1.077-.86 1.344 2.086.709 3.607-.775 5.04-.837 5.25-.224.108.314-.202.505-.817.505-.803 0-1.032.249-1.21 1.314-.123.72-.355 1.65-.519 2.065-.28.708-.124.737 2.5.472 2.51-.251 2.873-.194 3.548.551.686.758.693.853.085 1.087-.368.142-1.473.055-2.455-.193-3.212-.809-7.487-.5-13.159.949-.733.186-1.224.044-1.716-.5zm9.538-1.681c.788-.3 1.024-.721 1.152-2.064l.16-1.689-2.215.261c-1.219.143-2.24.3-2.272.349-.032.048.024.86.122 1.804.155 1.476.312 1.715 1.121 1.715.517 0 1.387-.17 1.932-.376zM29.2 26.658c2.764-1.88 4.107-3.436 4.322-5.011.18-1.312.158-1.332-1.266-1.212-1.355.113-1.455.217-1.572 1.635-.142 1.72-.526 1.873-1.716.685l-.828-.83-1.407 1.234c-2.296 2.017-4.251 1.476-3.629-1.006.331-1.315 1.191-1.63 3.081-1.125 1.137.303 1.771.266 2.563-.149 1.173-.615 1.31-1.228.515-2.316-.452-.618-.68-.658-1.446-.248-1.217.652-2.055.265-2.055-.948 0-.546-.265-1.257-.588-1.58-.754-.754-.34-1.179.64-.654.477.255.755.845.755 1.6 0 1.404-.035 1.394 1.805.517 1.013-.483 1.425-.944 1.425-1.596 0-1.306-.807-2.904-1.57-3.109-.358-.096.032-.195.864-.22 1.28-.04 1.514.082 1.514.796 0 .739.203.825 1.68.706 1.155-.094 1.738.037 1.866.416.144.422-.2.515-1.477.393-.915-.087-1.665-.032-1.665.123 0 .154-.106.557-.236.895-.192.497.177.641 1.886.74 1.368.08 2.188.324 2.308.685.14.422-.07.498-.837.306-1.262-.317-4.737.124-4.737.6 0 .193.253.35.56.35.307 0 .648.343.758.763.18.686.382.722 2 .35 1.388-.317 2.067-.283 2.949.146 1.72.837 1.76 1.574.07 1.3l-1.39-.226.043 1.642c.057 2.115-1.463 3.782-4.474 4.908-2.95 1.104-3.047 1.027-.712-.56zm-3.233-3.956c1.037-.815 1.064-.906.357-1.183-1.334-.524-2.137-.382-2.586.46-.903 1.684.45 2.123 2.229.722zm3.832-.935a.607.607 0 0 0-.605-.604c-.631 0-.801.476-.336.94.463.466.942.295.942-.336z" fill="#040404"/></g></svg>