<svg xmlns="http://www.w3.org/2000/svg" height="60" width="60"><defs><filter id="a" color-interpolation-filters="sRGB"><feFlood flood-opacity=".498" flood-color="#000" result="flood"/><feComposite in="flood" in2="SourceGraphic" operator="in" result="composite1"/><feGaussianBlur in="composite1" stdDeviation="1" result="blur"/><feOffset dx="5" dy="3" result="offset"/><feComposite in="SourceGraphic" in2="offset" result="composite2"/></filter><filter id="b" color-interpolation-filters="sRGB"><feGaussianBlur stdDeviation="5" result="result8"/><feComposite result="result6" in="SourceGraphic" operator="in" in2="result8"/><feComposite operator="in" result="result11" in2="result6"/><feFlood result="result10" flood-opacity="1" flood-color="#FFF"/><feBlend mode="multiply" in="result10" in2="result11" result="result12"/><feComposite result="fbSourceGraphic" operator="in" in2="SourceGraphic" in="result12"/><feFlood result="result6" flood-color="#4B659A"/><feComposite k3=".3" k2=".3" k1=".5" operator="arithmetic" result="result2" in="fbSourceGraphic" in2="result6"/><feColorMatrix result="fbSourceGraphicAlpha" in="result2" values="1 0 0 -1 0 1 0 1 -1 0 1 0 0 -1 0 -0.8 -1 0 3.9 -2.7"/><feGaussianBlur result="result0" in="fbSourceGraphicAlpha" stdDeviation=".5"/><feDiffuseLighting lighting-color="#fff" diffuseConstant=".7" surfaceScale="50" result="result13" in="result0"><feDistantLight elevation="20" azimuth="225"/></feDiffuseLighting><feSpecularLighting specularExponent="20" specularConstant=".7" surfaceScale="10" lighting-color="#fff" result="result1" in="result0"><feDistantLight elevation="45" azimuth="225"/></feSpecularLighting><feBlend mode="screen" result="result5" in2="SourceGraphic" in="result13"/><feComposite in="result1" k3="1" k2="1" operator="arithmetic" in2="result5" result="result9"/><feComposite in2="SourceGraphic" operator="in" result="fbSourceGraphic"/><feColorMatrix result="fbSourceGraphicAlpha" in="fbSourceGraphic" values="0 0 0 -1 0 0 0 0 -1 0 0 0 0 -1 0 0 0 0 1 0"/><feColorMatrix values="0.21 0.72 0.072 -0.3 0 0.21 0.72 0.072 -0.3 0 0.21 0.72 0.072 -0.3 0 0 0 0 1 0" in="fbSourceGraphic"/></filter></defs><g opacity=".99"><g filter="url(#a)" transform="matrix(.6 0 0 .6 -334.455 3.166)"><path d="M607.424 10l-17.38 5.652-9.195 58.128L634 73.779l-9.197-58.126z" fill="#fee572"/><path d="M580.849 73.78v5.668H634v-5.67z" fill="#c3983c" fill-opacity=".992"/></g><g transform="matrix(.9 0 0 .9 7.645 1.067)" filter="url(#b)"><path d="M28.483 44.997c-2.48-2.278-2.656-2.544-1.687-2.544 1.565 0 5.437 2.047 5.753 3.04.25.785-.413 2.114-1.03 2.068-.147-.011-1.513-1.165-3.036-2.564zM16.208 46.91c.188-.201 1.245-.853 2.35-1.45 1.335-.719 2.056-1.405 2.146-2.044.155-1.089.835-1.226 1.971-.395 1.06.776.54 2.249-1.092 3.093-1.387.718-5.93 1.39-5.375.796zm-.34-4.959c-1.979-1.556-1.415-2.02 2.126-1.753 3.617.273 3.976.002 3.31-2.5-.388-1.456-.774-1.615-2.552-1.049-1.552.496-1.115-.287 1.175-2.1 1.175-.931 2.137-2.033 2.137-2.45 0-.867.868-.997 1.623-.242.71.71.641 1.628-.194 2.551-.67.741-.638.782.632.782.737 0 2.124-.314 3.084-.698 1.388-.556 1.963-.598 2.82-.208 1.232.562 1.147 1.485-.155 1.677-.5.074-.972.537-1.087 1.068a12.262 12.262 0 01-.542 1.75c-.318.76-.18.793 2.23.52 2.158-.244 2.73-.163 3.56.51 1.38 1.117.886 2.434-.76 2.025-.643-.159-2.92-.395-5.061-.524-3.595-.216-4.78-.082-9.675 1.096-1.326.318-1.787.24-2.672-.456zm10.619-2.385c.453-.732.806-3.635.413-3.391-.227.139-1.227.3-2.224.36-1.597.095-1.785.21-1.578.983.13.482.239 1.213.241 1.624.005.566.364.749 1.477.749.808 0 1.56-.147 1.67-.325zm-6.56-8.789c0-.113 1.06-.806 2.358-1.537 3.789-2.138 5.762-4.141 5.762-5.852 0-.795-.177-1.446-.393-1.446-1.037 0-1.744.611-1.744 1.506 0 .544-.117 1.293-.26 1.664-.324.846-1.877.895-1.877.06 0-1.2-.9-1.142-2.378.155-1.561 1.372-3.07 1.678-3.947.803-.715-.716-.639-2.107.18-3.279.697-.994 1.709-1.07 4.222-.313 1.242.373 2.499-.737 2.134-1.886-.225-.708-.509-.86-1.214-.645-1.852.564-2.18.44-2.661-1.014-.265-.801-.828-1.71-1.252-2.019-.685-.501-.695-.593-.089-.825 1.237-.475 2.22.017 2.654 1.324.392 1.183.526 1.256 1.603.875.938-.332 1.174-.68 1.169-1.723-.009-1.514-.34-2.115-1.383-2.5-1.449-.534-.78-1.208 1.07-1.074 1.442.104 1.84.308 1.938.995.105.73.381.84 1.767.708.979-.093 1.771.051 1.96.358.432.7-.563 1.26-2.247 1.268-.828.004-1.39.224-1.39.544 0 .371.57.492 1.841.39 1.277-.1 2.007.056 2.387.513.793.956.204 1.561-1.237 1.273-1.925-.384-3.38.116-3.129 1.078.18.69.432.753 1.777.446 1.866-.426 4.575.192 4.934 1.126.292.762-.66 1.24-1.853.929-.717-.189-.816 0-.758 1.44.112 2.84-3.25 5.42-8.555 6.565-.764.165-1.39.207-1.39.093zm.028-6.286c1.154-.618 1.03-1.267-.242-1.267-.587 0-1.068.08-1.068.179 0 .099-.117.483-.26.855-.299.778.367.877 1.57.233z" fill="#d0d0d0"/><path d="M28.794 45.275c-1.352-1.248-2.457-2.408-2.457-2.58 0-.17.624-.175 1.389-.01 3.234.696 5.672 2.956 4.592 4.257-.292.352-.651.63-.8.62-.146-.01-1.373-1.04-2.724-2.288zM16.696 46.5c.456-.346 1.015-.628 1.242-.628.863 0 3.323-2.24 3.1-2.821-.312-.812.801-.761 1.636.074.867.867.847 1.115-.18 2.219-.935 1.003-3.344 1.812-5.345 1.794-1.22-.01-1.241-.042-.452-.638zm-1.232-4.997c-.365-.522-.666-1.066-.666-1.21 0-.144 1.54-.173 3.42-.065 3.787.22 3.768.237 3.152-2.846-.257-1.282-.331-1.324-2.03-1.103l-1.763.23 1.058-.767c2.477-1.795 3.8-3.195 3.574-3.782-.289-.753.757-.826 1.478-.104.84.84.588 1.924-.662 2.84l-1.175.861 1.923-.215c1.057-.118 2.646-.52 3.529-.892 1.269-.534 1.832-.574 2.671-.192 1.348.614 1.362 1.267.033 1.6-.599.15-1.135.675-1.28 1.251a18.71 18.71 0 01-.536 1.74c-.261.68-.05.725 2.273.483 1.94-.203 2.787-.11 3.492.382 1.962 1.374.818 2.493-1.904 1.861-2.553-.591-8.659-.464-11.27.238-3.3.885-4.53.814-5.317-.31zm11.519-3.351c.162-.957.226-1.786.144-1.843-.082-.057-1.155-.026-2.386.07-2.016.156-2.195.25-1.816.959.232.432.421 1.183.421 1.668 0 .743.267.884 1.671.884 1.622 0 1.68-.052 1.966-1.738zm-6.629-7.443c0-.088 1.106-.836 2.457-1.662 3.925-2.4 5.235-3.806 5.235-5.616 0-1.357-.118-1.533-.95-1.413-.74.107-1.028.538-1.307 1.953-.398 2.025-1.144 2.324-2.13.855l-.648-.962-1.007.909c-1.24 1.116-2.661 1.87-3.53 1.87-.902 0-1.664-1.578-1.356-2.806.388-1.546 1.746-2.093 3.724-1.5 2.055.615 3.477.014 3.277-1.385-.13-.92-.475-1.003-2.65-.641-.618.103-.955-.296-1.425-1.681-.338-1-.792-1.817-1.007-1.817-.215 0-.392-.204-.392-.456 0-.25.528-.395 1.175-.32.874.1 1.285.468 1.602 1.43.392 1.188.525 1.262 1.603.88.938-.332 1.174-.68 1.169-1.723-.009-1.514-.34-2.115-1.383-2.5-1.366-.503-.808-1.213.845-1.076 1.073.09 1.735.412 2.03.987.333.651.782.823 1.88.718 1.697-.163 2.749.579 1.759 1.238-.351.235-1.263.336-2.026.224-1.155-.169-1.39-.065-1.39.617 0 .72.224.789 1.832.568 1.396-.191 1.972-.084 2.413.447.812.979.3 1.292-1.897 1.157-2.243-.138-2.765.103-2.493 1.147.174.663.561.746 2.74.589 2.61-.19 3.815.283 3.815 1.495 0 .437-.4.576-1.38.481-1.34-.13-1.377-.09-1.257 1.379.217 2.66-2.052 4.618-7.084 6.11-1.234.365-2.244.593-2.244.504zm.245-6.665c.802-.886.798-.89-.678-.748-1.002.095-1.529.384-1.625.89-.2 1.06 1.299.968 2.303-.143z" fill="#b0b0b0"/><path d="M17.094 46.636c.44-.303 1.402-.94 2.137-1.415.735-.477 1.527-1.294 1.76-1.818.469-1.06.997-1.048 1.68.038.943 1.493-1.046 3.048-4.471 3.496-1.641.215-1.794.172-1.106-.301zm11.435-1.645c-1.262-1.182-2.208-2.236-2.102-2.342.105-.106 1.175.1 2.377.456 3.128.929 5.099 3.66 2.841 3.936-.49.06-1.747-.768-3.116-2.05zm-13.137-3.62c-.896-1.367-.615-1.643 1.183-1.16.785.21 2.247.3 3.245.2 1.957-.198 2.07-.424 1.544-3.06-.264-1.321-.327-1.355-2.03-1.115-1.519.215-1.646.174-.937-.293 1.986-1.307 4.116-3.5 3.913-4.027-.417-1.088 1.053-.574 1.565.547.46 1.014.394 1.212-.707 2.09l-1.216.97 2.085-.218c1.148-.12 2.68-.49 3.406-.824.974-.447 1.617-.493 2.457-.174 1.5.57 1.441 1.174-.148 1.523-.708.155-1.194.431-1.082.613.112.181-.022.928-.297 1.658-.275.73-.415 1.411-.307 1.513.106.1 1.156.034 2.33-.15 2.387-.372 4.488.359 4.488 1.56 0 .599-.393.64-3.099.33-4.072-.467-8.505-.28-11.493.483-3.334.852-4.084.78-4.9-.465zm11.53-2.443c.142-.529.26-1.417.264-1.973.004-.842-.157-.968-.956-.754-.528.142-1.582.26-2.34.264-1.316.005-1.358.057-.944 1.147.24.628.336 1.398.217 1.71-.161.418.272.568 1.642.568 1.567 0 1.9-.152 2.117-.962zm-6.568-8.218c0-.088 1.011-.738 2.247-1.445 3.544-2.028 5.332-3.863 5.597-5.747.22-1.554.179-1.623-.886-1.497-.892.107-1.21.47-1.585 1.809-.543 1.95-1.273 2.374-1.94 1.128-.634-1.182-1.132-1.112-2.857.402-1.65 1.448-2.356 1.578-3.323.61-.961-.96-.83-2.02.392-3.17.988-.927 1.182-.96 2.716-.453 2.542.839 4.025-.21 3.23-2.283-.23-.598-.383-.6-1.508-.017-1.557.804-1.974.561-2.334-1.36-.157-.833-.548-1.617-.871-1.74-.948-.363-.673-1.06.36-.911.79.113 1.313.753 2.325 2.838.198.407 2.655-1.296 2.518-1.743a28.596 28.596 0 01-.413-1.677c-.143-.65-.64-1.271-1.148-1.432-1.269-.403-.372-1.157 1.167-.98.742.084 1.382.49 1.617 1.025.305.693.762.88 2.094.855 1.003-.019 1.78.188 1.89.502.13.377-.393.534-1.774.534-1.714 0-1.958.115-1.958.911 0 .809.173.883 1.555.658 1.57-.254 3.145.251 3.145 1.01 0 .228-1.122.413-2.493.413-2.803 0-3.21.2-2.554 1.252.364.584.91.695 2.691.547 2.403-.199 4.065.393 4.065 1.449 0 .479-.369.617-1.388.518-1.337-.129-1.384-.081-1.247 1.277.18 1.818-.742 3.197-3.024 4.515-1.658.96-6.306 2.581-6.306 2.202zm.107-6.373c1.118-.848.91-1.184-.637-1.034-.913.088-1.434.39-1.528.882-.171.903 1.061.99 2.165.152zm3.739-1.114c0-.235-.084-.427-.188-.427s-.307.192-.453.427c-.145.236-.06.427.189.427s.452-.191.452-.427z" fill="#8e8e8e"/><path d="M16.508 46.967c0-.104.966-.712 2.148-1.356 1.34-.729 2.239-1.54 2.394-2.154.204-.816.387-.912 1.058-.553 1.016.544 1.043 1.77.056 2.663-.942.853-5.656 2.02-5.656 1.4zm12.802-1.415c-.815-.882-1.866-1.82-2.334-2.087-1.5-.852-.397-1.064 1.761-.34 2.567.86 3.582 1.72 3.582 3.027 0 1.514-1.293 1.256-3.01-.6zm-13.64-4.034c-1.21-1.298-1.1-1.79.304-1.371 1.039.31 5.644.33 5.948.026.064-.064-.127-1.067-.423-2.23-.38-1.485-.725-2.064-1.163-1.948-2.614.694-2.77.592-1.05-.69 2.27-1.69 3.351-2.952 3.008-3.508-.431-.698.48-.538 1.234.217.925.924.85 1.341-.459 2.554l-1.13 1.05 2.092-.273c1.15-.148 2.723-.526 3.495-.838.967-.392 1.73-.444 2.457-.168 1.394.53 1.337 1.114-.136 1.408-.74.149-1.215.532-1.254 1.015-.035.427-.194 1.3-.353 1.94l-.289 1.164 2.741-.256c2.24-.209 2.873-.124 3.466.47 1.36 1.359.894 1.664-1.945 1.272-3.705-.512-8.875-.313-11.84.455-3.262.846-3.669.82-4.703-.288zm11.023-1.866c.078-.066.252-.935.386-1.931.234-1.748.207-1.802-.784-1.537-.564.151-1.638.278-2.386.281-1.311.005-1.346.052-.984 1.312.207.719.275 1.567.153 1.886-.175.455.178.53 1.625.344 1.016-.129 1.912-.29 1.99-.355zm-3.561-10.631c3.45-2.08 5.341-4.14 5.341-5.82 0-1.181-.12-1.303-1.163-1.181-.948.11-1.252.447-1.634 1.82-.548 1.96-1.224 2.361-1.89 1.118-.633-1.182-1.131-1.112-2.856.402-1.65 1.448-2.356 1.578-3.323.61-.961-.96-.83-2.02.392-3.17.995-.934 1.173-.963 2.758-.44 1.476.488 1.834.469 2.772-.146.938-.615 1.017-.84.607-1.737-.404-.89-.607-.97-1.457-.582-1.383.63-2.195.19-2.538-1.372-.163-.737-.565-1.444-.895-1.57-.959-.368-.694-1.067.346-.917.734.106 1.942 1.585 2.286 2.8.015.054.654-.138 1.417-.425 1.295-.49 1.37-.625 1.109-2.023-.33-1.763-.905-2.566-1.837-2.566-.482 0-.543-.131-.213-.46.757-.76 2.87-.285 3.322.746.323.737.735.911 2.01.855 2.234-.101 2.27.752.04.914-1.511.109-1.816.28-1.816 1.017 0 .781.194.86 1.638.667 1.651-.221 3.062.232 3.062.983 0 .223-1.25.406-2.778.406s-2.777.098-2.777.22c0 .12.228.584.506 1.03.424.678.86.772 2.707.581 2.375-.245 4.051.338 4.051 1.408 0 .503-.321.585-1.46.372l-1.46-.275.219 1.644c.167 1.255.005 1.915-.687 2.793-.99 1.254-4.5 3.065-6.867 3.542-1.355.272-1.253.154 1.068-1.244zm-1.923-5.332c0-.201-.376-.464-.834-.585-1.135-.297-2.369.66-2.021 1.568.253.66.38.663 1.565.052.71-.368 1.29-.833 1.29-1.034zm2.991-.277c0-.366-.195-.546-.434-.398-.24.148-.324.447-.189.666.367.593.623.482.623-.268z" fill="#6f6f6f"/><path d="M16.936 46.822c.001-.17.915-.79 2.03-1.378 1.361-.716 2.074-1.384 2.166-2.028.116-.817.264-.893.987-.506 1.304.698.852 2.196-.91 3.021-1.737.813-4.274 1.342-4.273.892zm11.608-2.04l-2.28-2.31 1.98.596c2.83.852 4.076 1.778 4.076 3.027 0 1.683-1.244 1.25-3.776-1.314zm-12.889-3.395c-1.243-1.324-1.01-1.605.88-1.062.807.231 2.386.298 3.51.15 1.61-.214 1.997-.418 1.838-.963-.11-.38-.33-1.424-.49-2.32-.229-1.287-.434-1.565-.985-1.332-2.526 1.068-2.67.605-.348-1.132 1.78-1.332 2.426-2.074 2.283-2.621-.258-.988.252-.975 1.16.029.88.972.612 1.78-.916 2.76-1.163.747-1.161.747 1.4.465 1.41-.155 3.044-.514 3.631-.8 1.186-.576 3.047-.277 3.317.533.112.338-.303.522-1.18.522-.896 0-1.29.18-1.167.534.101.294-.07 1.266-.382 2.162l-.567 1.627 2.875-.283c2.573-.254 2.959-.19 3.68.607.742.82.748.912.086 1.167-.396.152-1.853.036-3.237-.258-2.804-.594-7.516-.313-11.21.67-2.967.79-3.013.785-4.178-.455zm11.21-2.097c.172-.258.317-1.1.32-1.873l.007-1.403-2.245.286c-1.233.157-2.26.309-2.28.335-.022.027.047.866.151 1.863l.19 1.815 1.77-.277c.975-.152 1.913-.488 2.086-.746zm-3.733-10.26c3.43-2.079 5.341-4.154 5.341-5.8 0-1.146-.14-1.289-1.277-1.289-1.16 0-1.302.157-1.551 1.719-.336 2.1-.97 2.578-1.788 1.346-.793-1.195-1.416-1.17-2.608.097-1.272 1.354-2.819 1.628-3.7.653-.848-.937-.491-2.313.822-3.173.762-.499 1.25-.525 2.532-.13 1.25.383 1.817.365 2.657-.085 1.204-.645 1.304-1.147.447-2.276-.489-.647-.751-.697-1.514-.288-1.275.681-2.007.292-2.345-1.25-.159-.72-.61-1.489-1.002-1.71-.662-.37-.658-.422.038-.691 1-.385 2.025.517 2.025 1.78 0 1.171.09 1.195 2 .504.864-.313 1.418-.803 1.418-1.255 0-1.407-.867-3.016-1.75-3.247-.674-.176-.75-.318-.315-.594 1.142-.724 2.5-.4 3.01.719.445.978.666 1.063 2.126.817 1.32-.223 1.63-.147 1.63.404 0 .502-.428.677-1.66.677-1.286 0-1.708.188-1.877.835-.194.744.04.848 2.16.962 1.425.076 2.449.34 2.554.66.13.394-.62.535-2.85.535-1.665 0-3.028.096-3.028.214 0 .117.364.576.809 1.02.624.626 1.227.762 2.67.604 2.185-.238 4.214.423 4.214 1.376 0 .539-.303.614-1.543.381-1.54-.289-1.54-.286-1.254 1.018.477 2.172-.706 3.819-3.75 5.23-1.453.67-3.218 1.35-3.923 1.506-.971.215-.66-.092 1.282-1.27zm-2.66-4.61l1.318-.937-1.226-.329c-1.404-.375-2.346.19-2.346 1.404 0 1.051.64 1.013 2.254-.137zm3.947-1.547c-.34-.34-1.075.43-.813.853.177.287.397.243.624-.124.194-.312.278-.64.19-.73z" fill="#4f4f4f"/><path d="M28.544 44.78l-2.28-2.308 1.979.596c2.756.83 4.057 1.897 4.07 3.338.012 1.359-1.442.733-3.77-1.626zm-9.86.96c1.036-.543 2.076-1.414 2.31-1.935.561-1.245 1.71-1.002 1.71.363 0 1.285-2.211 2.557-4.447 2.558h-1.456zm-2.655-4c-1.38-1.604-1.333-1.81.31-1.357 1.334.368 5.725.139 5.725-.299 0-.084-.212-1.137-.47-2.34-.356-1.66-.622-2.129-1.107-1.942-.352.134-1.15.351-1.775.482-1.082.224-1.094.209-.243-.323 2.294-1.436 4.128-3.3 3.88-3.945-.306-.798.188-.885.911-.16.837.836.59 1.92-.662 2.898l-1.176.917 2.35-.261c1.293-.145 2.947-.473 3.675-.731 1.406-.499 3.59-.183 3.59.518 0 .23-.538.42-1.197.42-1.096 0-1.235.183-1.64 2.154l-.44 2.156 2.813-.277c2.51-.247 2.903-.18 3.621.613.716.791.73.92.124 1.152-.375.144-1.66.052-2.857-.204-2.973-.639-6.056-.575-9.611.197-1.646.358-3.476.755-4.07.882-.73.156-1.295-.022-1.75-.55zm10.822-2.405c.181-.283.33-1.157.334-1.944l.007-1.427-2.245.3c-1.233.168-2.26.33-2.28.362-.022.032.049.897.155 1.921l.195 1.863 1.754-.28c.965-.155 1.9-.512 2.081-.795zm-4.787-9.416c0-.078.95-.757 2.11-1.509 2.782-1.803 4.3-3.655 4.3-5.246 0-1.183-.102-1.267-1.39-1.143-1.264.122-1.407.284-1.602 1.81-.118.922-.43 1.747-.695 1.834-.708.232-1.109-1.171-.533-1.866.562-.677.241-1.236-.46-.802a.54.54 0 00-.182.74c.161.26.029.365-.314.245-.327-.113-1.225.343-1.997 1.013-2.307 2.004-4.83 1.223-3.911-1.21.562-1.49 1.801-1.932 3.459-1.236 1.253.528 1.565.516 2.601-.097 1.316-.777 1.422-1.22.558-2.36-.49-.647-.752-.697-1.515-.288-1.153.616-2.139.272-2.139-.745 0-.426-.308-1.213-.684-1.751-.794-1.134-.459-1.74.598-1.078.4.251.786 1.042.857 1.758l.131 1.302 1.686-.662c1.367-.537 1.685-.875 1.685-1.785 0-1.394-1.09-3.012-2.053-3.048-.496-.018-.403-.155.299-.436 1.327-.531 2.494-.144 2.839.941.22.69.576.835 1.797.726.944-.084 1.595.068 1.707.398.127.368-.344.534-1.516.534-1.51 0-2.219.488-2.219 1.531 0 .098 1.058.18 2.352.18 1.678 0 2.35.163 2.35.571 0 .413-.726.579-2.606.597-1.432.013-2.816.236-3.076.496-.344.344-.289.471.205.471.372 0 .772.365.888.81.19.725.39.762 1.925.352 2.05-.548 4.514.015 4.718 1.075.114.594-.122.668-1.434.455l-1.57-.254.292 1.333c.445 2.021-.791 3.724-3.786 5.222-2.232 1.115-3.675 1.556-3.675 1.122zm-1.445-5.563l1.166-1.002-1.184-.298c-1.361-.341-2.383.303-2.383 1.502 0 1.092.994 1.008 2.4-.202z" fill="#2f2f2f"/><path d="M28.978 45c-2.42-2.256-2.422-2.35-.045-1.69 1.828.507 3.599 2.246 3.24 3.182-.377.984-.706.83-3.195-1.491zm-10.12.79c.94-.551 1.9-1.432 2.132-1.956.698-1.578 2.27-.99 1.747.653-.334 1.052-1.62 1.755-3.753 2.051l-1.835.255zm-2.903-4.093c-.4-.444-.73-.9-.73-1.013 0-.113 1.427-.195 3.168-.18 1.743.014 3.303-.108 3.467-.271.412-.409-.636-4.617-1.149-4.617-.227 0-.802.208-1.276.462-1.656.886-1.19.11.758-1.263 1.08-.76 2.063-1.765 2.185-2.232.28-1.068 1.137-.827 1.315.368.086.59-.246 1.15-.958 1.617-1.741 1.14-.911 1.422 2.207.75 3.817-.82 5.334-.885 5.556-.237.114.332-.214.535-.865.535-.85 0-1.092.263-1.28 1.39-.13.763-.376 1.747-.549 2.185-.296.749-.132.78 2.645.5 2.657-.266 3.04-.206 3.755.583.725.802.733.903.089 1.15-.389.15-1.558.058-2.597-.204-3.399-.856-7.923-.529-13.925 1.004-.776.197-1.295.047-1.816-.528zm10.093-1.779c.834-.318 1.084-.763 1.219-2.184l.17-1.787-2.344.276c-1.29.151-2.371.317-2.405.369-.033.051.026.91.13 1.909.163 1.562.33 1.815 1.186 1.815.547 0 1.467-.179 2.044-.398zm-2.055-11.306c2.925-1.989 4.346-3.636 4.574-5.303.19-1.388.167-1.409-1.34-1.282-1.434.12-1.54.23-1.664 1.73-.15 1.82-.556 1.982-1.815.725l-.877-.878-1.488 1.305c-2.43 2.135-4.499 1.562-3.84-1.064.35-1.392 1.26-1.725 3.26-1.191 1.203.321 1.874.282 2.712-.157 1.241-.651 1.386-1.3.545-2.451-.478-.654-.72-.696-1.53-.262-1.288.689-2.175.28-2.175-1.004 0-.578-.28-1.33-.622-1.672-.798-.798-.36-1.247.677-.692.505.27.799.894.799 1.694 0 1.485-.037 1.475 1.91.547 1.072-.512 1.508-1 1.508-1.689 0-1.382-.854-3.074-1.661-3.29-.379-.102.033-.207.914-.234 1.355-.041 1.602.088 1.602.843 0 .782.215.873 1.778.747 1.222-.099 1.839.039 1.974.44.153.447-.212.545-1.563.416-.968-.092-1.761-.034-1.761.13 0 .163-.113.59-.25.948-.203.525.187.678 1.995.783 1.448.084 2.316.342 2.443.725.147.446-.075.527-.886.323-1.335-.335-5.012.132-5.012.636 0 .203.267.37.592.37.325 0 .686.363.802.807.19.726.404.764 2.117.371 1.468-.336 2.187-.3 3.12.154 1.82.886 1.862 1.666.074 1.376l-1.47-.239.045 1.737c.06 2.238-1.548 4.002-4.734 5.194-3.122 1.168-3.225 1.087-.754-.593zm-3.421-4.186c1.097-.863 1.126-.959.378-1.252-1.412-.555-2.262-.404-2.737.486-.955 1.783.476 2.247 2.359.765zm4.055-.989a.642.642 0 00-.64-.64c-.668 0-.848.504-.356.996.49.492.997.311.997-.356z" fill="#040404"/></g></g></svg>