<svg xmlns="http://www.w3.org/2000/svg" viewBox="0 0 60 60"><defs><filter id="a" color-interpolation-filters="sRGB"><feFlood flood-opacity=".498" flood-color="#000" result="flood"/><feComposite in="flood" in2="SourceGraphic" operator="in" result="composite1"/><feGaussianBlur in="composite1" stdDeviation="1" result="blur"/><feOffset dx="5" dy="3" result="offset"/><feComposite in="SourceGraphic" in2="offset" result="composite2"/></filter></defs><g opacity=".99"><g filter="url(#a)" transform="matrix(.63001 0 0 .63 -148.11 1.223)"><path d="m282.71 8-20.035 6.138L252 77.687h61.417l-10.675-63.55z" fill="#fee572"/><path d="M252 77.687v5.668h61.417v-5.668z" fill="#c3983c" fill-opacity=".992"/></g><path d="M35.666 46.453c-.799-.848-1.856-1.487-2.726-1.65-1.982-.372-.922-.948 1.757-.956 2.023-.007 2.1-.046 2.094-1.106-.012-2.383-.374-2.898-2.04-2.898-1.75 0-1.793.061-.936 1.368.556.849.555 1.002-.014 1.569-.789.79-3.035 1.23-4.266.839-.87-.279-.822-.346.736-1.009 1.383-.589 1.63-.857 1.445-1.568-.176-.67-.432-.807-1.17-.621-3.014.756-4.444.72-5.295-.13-.466-.467-.937-.848-1.047-.848-.11 0-.203 1.304-.206 2.898-.006 2.836-.541 4.685-1.445 4.983-.473.156-2.765-3.398-2.416-3.747.11-.111.592.008 1.069.263.477.256.917.405.978.332.06-.071.221-1.252.358-2.621l.248-2.488-1.391.665c-.98.466-1.392.929-1.392 1.562 0 1.594-.73 2.95-1.589 2.95-.939 0-1.021-.817-.263-2.597.463-1.086.433-1.236-.318-1.608-.456-.227-.888-.837-.964-1.358-.111-.78-.007-.893.6-.643a17.44 17.44 0 0 0 1.463.51c1.003.287 3.87-.71 3.87-1.344 0-.39-.29-.352-1.165.15-1.005.577-1.3.594-2.177.125-1.544-.826-1.664-1.63-.244-1.63.99 0 1.187-.16 1.187-.97 0-.534-.292-1.262-.647-1.618-.826-.826-.477-1.177.84-.847.732.184 1.099.601 1.267 1.447.132.654.485 1.189.788 1.189.826 0 .671-1.918-.25-3.088-.44-.56-.799-1.173-.799-1.363 0-.582 1.765-.385 2.755.309.986.69 1.002 1.16.217 6.01l-.27 1.666 1.885.283c2.822.423 10.193-.39 9.531-1.05-.182-.183-1.09-.14-2.02.095-1.777.451-4.679.143-4.307-.457.12-.194 1.249-.566 2.51-.825 2.53-.52 4.489-1.39 4.489-1.99 0-.52-.064-.51-2.375.4-1.102.435-2.266.691-2.585.568-.32-.123-1.136.188-1.814.689-1.104.816-1.296.847-1.84.302-.561-.56-.445-1.946.162-1.95.142-.002.798-.44 1.457-.975l1.199-.972-1.399-1.208-1.4-1.209 2.112-.016c1.162-.009 2.763-.288 3.56-.621 1.302-.544 1.545-.541 2.41.025 1.422.932.925 1.538-1.578 1.919-1.978.301-2.25.457-2.431 1.4-.275 1.428-.097 1.513 1.543.73 1.753-.836 2.945-.85 4.09-.048 1.122.785 1.125 1.524.013 2.56-.736.686-.768.815-.2.815.371 0 .676.203.676.452 0 .298.605.383 1.782.251 1.9-.215 3.414.459 3.414 1.517 0 .431-.541.578-2.139.578h-2.138l.19 2.968c.105 1.634.075 3.433-.067 3.998-.373 1.483-1.778 1.335-3.372-.355zM24.904 28.205c-.857-.882-.584-1.032 2.384-1.307 2.148-.2 3.116-.487 3.798-1.127 1.147-1.077 1.208-2.318.114-2.318-.624 0-.8.267-.8 1.212 0 .713-.249 1.307-.604 1.444-.779.299-1.895-.619-1.62-1.334.116-.3-.515.036-1.403.75-1.3 1.043-1.745 1.21-2.29.855-.895-.581-.74-2.444.29-3.473.674-.674.951-.726 1.808-.336.992.452 2.22.287 2.22-.299 0-.163-.764-.618-1.699-1.011l-1.698-.716 1.698-.401c1.942-.46 2.209-.976.6-1.16-.655-.076-1.1-.37-1.1-.727 0-.766 5.593-1.562 6.264-.893.652.652.013 1.293-1.29 1.293-.647 0-1.176.202-1.176.45 0 .281.427.364 1.14.22 1.365-.272 2.263.4 1.6 1.198-.242.292-.857.53-1.366.53-.51 0-1.038.18-1.174.4-.146.237.32.4 1.147.4 1.25 0 2.655.81 2.649 1.527-.002.15-.26.766-.577 1.371-.523 1.003-.511 1.099.14 1.099.648 0 2.038 1.146 2.038 1.68 0 .12-1.485.325-3.298.454-1.814.13-4.198.348-5.297.485-1.386.171-2.152.09-2.498-.266zm1.537-4.198c.464-.558.434-.626-.218-.5-.414.08-.828.372-.92.646-.237.713.504.618 1.138-.146zm-4.179-5.05c4.13-4.26 5.98-6.926 5.339-7.698-.57-.686-.196-1.397.736-1.397 1.055 0 2.522 1.197 2.373 1.937-.093.456.923 1.353 3.276 2.891 4.19 2.74 6.116 4.511 5.935 5.456-.286 1.48-1.9.713-5.877-2.789-2.184-1.924-4.092-3.497-4.24-3.497-.146 0-1.63 1.451-3.3 3.225-2.567 2.73-5.945 5.17-7.155 5.17-.156 0 1.156-1.484 2.913-3.299z" fill="#cfcfcf"/><path d="M36.019 46.67c-.465-.654-1.577-1.431-2.526-1.767-1.802-.638-1.681-.696 1.704-.814 1.23-.043 1.415-.188 1.53-1.196.072-.632.024-1.575-.108-2.099-.213-.854-.452-.949-2.33-.93-2.016.02-2.059.043-1.19.648 1.786 1.247.874 2.847-1.832 3.21-2.042.274-2.496-.477-.655-1.085 1.194-.395 1.376-.604 1.153-1.331-.368-1.2-.228-1.17-2.922-.64-2.557.503-3.221.307-4.022-1.19-.298-.558.163-.634 3.92-.643 4.791-.012 7.577-.427 6.967-1.037-.257-.257-1.01-.237-2.18.057-1.175.296-2.257.323-3.157.08l-1.37-.367 1.8-.501c3.03-.842 5.176-1.663 5.43-2.077.477-.77-.21-.817-1.997-.134-.996.38-2.166.598-2.6.484-.476-.123-1.061.096-1.472.55-.757.836-2.356 1.01-2.792.305-.162-.261.546-1.223 1.675-2.277 1.687-1.573 1.845-1.846 1.155-1.989-.91-.189-1.799-.826-1.799-1.292 0-.173 1.124-.422 2.499-.551 5.306-.5 5.297-.501 5.297.36 0 .646-.364.846-1.939 1.072-2.239.32-2.067.2-2.424 1.683-.237.99-.175 1.119.444.917 3.633-1.183 4.022-1.224 5.078-.532 1.236.81 1.312 1.49.273 2.432-.756.684-.756.705.014 1.475.664.665.997.723 2.223.385 1.27-.35 2.926-.04 2.926.549 0 .084.12.466.266.847.24.625.027.672-2.158.474l-2.425-.22.36 1.256c.52 1.813.444 6.013-.12 6.577-.802.8-1.82.54-2.696-.689zm-13.914.487c-.274-.102-.499-.367-.499-.588 0-.222-.36-.861-.8-1.42-.904-1.15-1.045-1.895-.3-1.59l1.146.465c.537.216.691-.153.924-2.202.152-1.356.194-2.547.091-2.65-.103-.103-.744.1-1.423.451-.868.45-1.238.93-1.238 1.61 0 1.483-.842 3.008-1.662 3.008-.861 0-.925-.873-.189-2.598.463-1.086.433-1.236-.318-1.608-.456-.227-.885-.807-.955-1.29-.117-.816-.04-.848 1.11-.447 1.46.51 3.739.164 4.6-.698 1.083-1.083.655-1.352-.792-.5-1.318.778-1.465.789-2.398.178-1.318-.863-1.258-1.432.15-1.432 1.029 0 1.124-.11.947-1.1-.108-.604-.471-1.414-.806-1.798-.555-.637-.537-.7.19-.7.944 0 2.123 1.183 2.123 2.13 0 1.05 1.084.78 1.294-.322.12-.627-.067-1.22-.512-1.624-.386-.35-.794-.984-.905-1.41-.28-1.068 1.443-1.05 2.52.027.898.896.997 1.947.381 4-.23.768-.556 3.604-.723 6.302-.305 4.92-.754 6.252-1.956 5.806zm2.799-18.952c-.851-.875-.564-1.154 1.2-1.164 2.459-.013 4.798-.64 5.385-1.443.78-1.069.636-2.145-.29-2.145-.623 0-.798.267-.798 1.212 0 1.459-.979 1.98-1.93 1.027-.588-.587-.597-.715-.07-1.048.33-.208.4-.381.156-.386-.245-.002-1.119.53-1.943 1.185-1.22.969-1.643 1.112-2.284.769-.47-.252-.694-.665-.557-1.024.127-.33.231-.852.231-1.158 0-.963 1.824-1.898 2.743-1.406.438.235 1.08.318 1.425.185.967-.37.753-1.354-.294-1.354-.507 0-1.254-.243-1.66-.539-.67-.491-.589-.563.924-.804 1.653-.264 2.335-1.055.908-1.055-.413 0-.972-.269-1.244-.596-.66-.796-.147-.962 3.394-1.097 2.268-.087 2.799.007 2.799.493 0 .385-.467.645-1.3.725-.714.069-1.3.316-1.3.55 0 .26.473.33 1.215.181.898-.18 1.279-.078 1.458.39.285.742-.5 1.338-1.773 1.346-.493.003-.9.186-.9.406 0 .22.463.4 1.027.4 2.244 0 3.156 1.36 2.158 3.224-.341.637-.282.773.338.773.413 0 1.073.356 1.468.79.89.985.667 1.074-3.39 1.365-1.65.117-3.809.326-4.798.463-1.225.168-1.957.084-2.298-.266zm1.811-4.29c.115-.344-.077-.488-.533-.4-.391.076-.793.38-.891.676-.115.344.077.488.533.4.392-.076.793-.38.891-.676zm-4.271-5.119c4.3-4.426 5.859-6.69 5.175-7.514-.586-.706-.225-1.42.718-1.42 1.083 0 2.513 1.198 2.382 1.997-.087.527.864 1.377 3.48 3.108 4.129 2.735 6.01 4.551 5.66 5.464-.421 1.097-1.375.682-4.321-1.874-1.583-1.374-3.546-3.08-4.364-3.792l-1.486-1.292-2.256 2.569c-2.685 3.057-4.8 4.794-6.89 5.659-1.441.595-1.326.418 1.902-2.905z" fill="#b0b0b0"/><path d="M35.754 46.418c-.707-.784-1.824-1.505-2.597-1.676-1.248-.278-1.165-.318 1.041-.502 2.29-.19 2.404-.252 2.53-1.347.071-.632.023-1.575-.109-2.099-.216-.865-.446-.95-2.529-.94l-2.29.01 1.098.682c.605.375 1.1 1.009 1.1 1.409 0 .971-2.554 2.041-3.955 1.657-1.036-.283-1.032-.289.457-.882 1.528-.609 1.767-1.045 1.126-2.059-.305-.481-.707-.493-2.573-.075-2.45.548-3.498.251-4.283-1.216-.424-.792-.38-.826.69-.538 1.773.477 9.084.052 10.119-.587.772-.476.113-1.285-.706-.868-1.182.603-3.03.806-4.473.492l-1.4-.304 1.599-.46c.88-.253 2.343-.644 3.252-.868 1.605-.395 2.897-1.383 2.425-1.853-.127-.127-1.047.079-2.043.46-.996.38-2.166.598-2.6.484-.476-.123-1.061.096-1.472.55-.862.952-2.56 1.015-2.56.096 0-.364.764-1.385 1.699-2.27 1.496-1.417 1.603-1.63.9-1.78-.96-.206-1.8-.841-1.8-1.36 0-.21.34-.271.754-.14.414.132 1.538.033 2.498-.219.96-.252 2.375-.483 3.144-.512 1.15-.045 1.4.088 1.4.745 0 .598-.304.828-1.2.91-2.284.209-2.998.499-2.998 1.217 0 .392-.216.928-.48 1.191-.73.731.957.622 2.615-.17 1.534-.73 3.293-.394 4.027.768.328.52.232.862-.427 1.52-.834.835-.835.863-.09 1.61.602.6 1.091.705 2.365.502 1.235-.198 1.786-.093 2.394.458 1.338 1.21.954 1.52-1.565 1.257l-2.354-.246.346 1.488c.476 2.047.45 5.18-.05 6.112-.604 1.13-1.618.913-3.025-.646zm-14.149.182c0-.24-.379-.97-.843-1.621-1.017-1.43-.78-1.835.561-.957l.986.647.283-2.644c.156-1.454.195-2.734.085-2.842-.107-.11-.754.09-1.433.44-.946.49-1.238.91-1.238 1.785 0 1.548-1.349 3.221-2.046 2.536-.404-.398-.371-.773.172-1.912.821-1.724.826-1.79.09-1.79-.508 0-1.413-1.13-1.413-1.764 0-.12.77-.113 1.71.016 2.018.277 4.686-.664 4.686-1.652 0-.583-.08-.585-.889-.02-1.057.741-2.76.812-3.43.143-.778-.78-.552-1.158.62-1.035 1.006.105 1.088.013.964-1.084-.076-.66-.419-1.514-.762-1.898-.52-.584-.53-.7-.052-.7 1.047 0 2.35 1.225 2.35 2.208 0 .663.175.898.56.75.96-.368 1.082-1.861.224-2.774-1.693-1.802-.279-3.06 1.538-1.368 1.017.947 1.059 1.708.268 4.981-.319 1.32-.582 3.875-.586 5.678-.007 3.607-.543 5.315-1.67 5.315-.403 0-.734-.197-.734-.438zm3.39-18.613c-.716-.715-.646-.745 2.434-1.023 2.544-.23 3.31-.456 3.87-1.144.843-1.031.908-2.2.14-2.495-.773-.297-1.04.064-1.04 1.406 0 1.395-.998 1.892-1.93.961-.578-.58-.59-.716-.08-1.032.324-.2.478-.474.342-.61-.135-.135-.873.305-1.64.979-1.858 1.63-3.087 1.64-3.087.024 0-.665.355-1.554.794-1.993.661-.663.956-.72 1.773-.348 1.157.527 2.23.216 2.23-.645 0-.373-.36-.612-.923-.612-.507 0-1.254-.243-1.66-.539-.67-.491-.589-.563.924-.804 1.653-.264 2.335-1.056.908-1.056-.413 0-.961-.254-1.22-.566-.372-.449-.32-.608.252-.766 1.625-.453 5.154-.649 5.668-.315.826.538.159 1.248-1.174 1.248-.753 0-1.176.205-1.176.571 0 .447.266.496 1.22.222.957-.275 1.272-.216 1.458.268.279.728-.515 1.322-1.778 1.33-.495.004-.9.187-.9.407 0 .22.462.4 1.026.4 2.459 0 3.414 1.956 1.762 3.608l-.81.809 1.015-.255c1.067-.268 2.204.365 2.204 1.227 0 .337-1.123.58-3.498.757-1.924.144-4.143.365-4.932.491-1.077.173-1.618.047-2.172-.505zm1.72-4.072c.115-.344-.077-.488-.533-.4-.391.076-.793.38-.891.676-.115.344.077.488.533.4.392-.076.793-.38.891-.676zm-4.414-4.839c1.577-1.528 3.54-3.79 4.361-5.027 1.279-1.927 1.424-2.361 1.008-3.027-.395-.632-.376-.82.098-1.002.975-.375 2.832.758 2.832 1.727 0 .655.906 1.467 3.652 3.278 2.008 1.324 4.115 2.958 4.68 3.63 1.013 1.203 1.053 2.4.08 2.4-.272 0-2.456-1.707-4.853-3.793L29.8 13.47l-2.798 3.011c-2.788 3-5.867 5.369-6.983 5.371-.323.001.704-1.248 2.281-2.776z" fill="#909090"/><path d="M36.294 46.785c-.494-.58-1.616-1.384-2.496-1.79l-1.598-.737 2.298-.01 2.298-.008-.006-1.899c-.004-1.044-.138-2.099-.3-2.343-.31-.47-4.035-.164-7.846.645-1.598.34-2.13.302-2.898-.202-1.34-.877-1.28-1.906.08-1.389.67.255 2.362.245 4.898-.03 4.598-.496 5.373-.693 5.144-1.312-.094-.256-.418-.393-.72-.304-.303.09-1.7.247-3.104.35-3.198.236-3.004-.418.32-1.072 2.356-.464 4.504-1.697 3.941-2.261-.16-.16-1.113.022-2.12.406-1.005.385-2.192.604-2.636.488-.491-.128-1.11.09-1.578.558-.423.423-1.13.77-1.57.77-1.327 0-.933-1.358.8-2.75 1.731-1.392 2.013-2.047.88-2.047-.396 0-.942-.22-1.212-.492-.39-.389.074-.6 2.218-1.01a245.31 245.31 0 0 0 3.806-.751c.809-.174 1.163-.056 1.357.45.345.9-.479 1.39-2.352 1.397-1.31.006-1.564.168-2.032 1.306-.679 1.645-.182 1.837 2.3.89 1.512-.577 1.91-.595 2.863-.131 1.508.735 1.607 1.335.415 2.527-.708.708-.833 1.011-.417 1.011.327 0 .7.278.83.617.187.486.61.56 2.002.352 1.383-.208 1.933-.113 2.54.435 1.205 1.091.544 1.505-1.91 1.199-2.038-.255-2.184-.22-1.91.46.535 1.322.7 5.506.263 6.63-.537 1.383-1.397 1.399-2.548.047zm-15.265-1.383c-1.236-1.867-1.136-2.316.308-1.37l1 .655.283-2.64c.155-1.452.187-2.735.072-2.85-.117-.118-.745.062-1.395.399-.906.47-1.24.976-1.432 2.176-.28 1.746-1.238 2.847-1.901 2.184-.28-.28-.206-.9.235-1.955.423-1.013.5-1.595.22-1.688-.596-.198-1.61-1.257-1.61-1.679 0-.194.867-.25 1.927-.124 2.148.254 4.47-.628 4.47-1.698 0-.546-.096-.545-.89.01-1.057.741-2.76.812-3.43.143-.76-.761-.564-1.076.62-.995 1 .069 1.088-.035.964-1.124-.076-.66-.419-1.514-.762-1.898-.52-.584-.53-.7-.052-.7 1.062 0 2.35 1.224 2.35 2.235 0 .867.1.937.799.563 1.023-.548 1.023-1.776 0-2.799-1.777-1.776-.482-2.718 1.451-1.055l1.096.942-.674 3.066c-.37 1.687-.673 4.474-.673 6.194 0 3.35-.564 5.644-1.386 5.644-.278 0-.994-.736-1.59-1.636zm8.624-1.915c-.402-.259-.153-.483.934-.842 1.157-.381 1.44-.655 1.285-1.246-.271-1.037.227-1.241 1.261-.518 1.595 1.118.925 2.166-1.733 2.711-.66.136-1.446.088-1.747-.105zm-4.572-15.55c-.69-.764-.646-.783 2.31-.973 3.436-.22 4.726-.986 4.527-2.687-.175-1.496-1.516-1.631-1.524-.153-.009 1.728-.516 2.304-1.542 1.755-.954-.51-1.1-1.07-.35-1.338.275-.099.383-.304.241-.458-.141-.153-.885.271-1.651.945-1.767 1.551-3.088 1.636-3.088.197 0-2.009.663-2.618 2.708-2.488 1.509.095 1.889-.016 2.004-.583.088-.423-.097-.7-.466-.7-.336 0-1.108-.224-1.717-.499l-1.106-.5 1.584-.2c1.056-.133 1.625-.422 1.71-.868.092-.481-.083-.613-.624-.471-.413.107-.971-.07-1.242-.395-.41-.494-.306-.628.628-.806 3.417-.656 4.574-.707 5.149-.23.73.605.1 1.156-1.333 1.165-.511.004-.9.253-.9.58 0 .434.345.52 1.4.348 1.106-.18 1.4-.094 1.4.407 0 .408-.5.727-1.4.897-.838.157-1.4.495-1.4.844 0 .386.252.502.748.345.41-.13 1.22-.057 1.799.163 1.323.503 1.387 1.81.152 3.125l-.9.958 1.105-.278c1.158-.29 2.294.307 2.294 1.206 0 .341-1.155.575-3.698.747-2.033.138-4.241.357-4.905.487-.897.175-1.391.035-1.913-.543zm1.721-4.098c0-.212-.359-.386-.799-.386-.538 0-.8.267-.8.814 0 .69.123.748.8.386.44-.236.8-.601.8-.814zm-4.742-4.486c4.316-4.058 6.494-7.344 5.59-8.433-.734-.885.574-1.17 1.997-.434.86.445 1.13.819.965 1.337-.18.566.484 1.185 3.043 2.849 4.425 2.875 5.94 4.258 5.94 5.425 0 .533-.237.958-.535.958-.294 0-2.496-1.708-4.893-3.797l-4.358-3.797-3.202 3.345c-2.737 2.858-5.737 5.058-6.884 5.045-.174-.002.879-1.126 2.337-2.498z" fill="#6f6f6f"/><path d="M35.996 46.44c-.758-.784-1.923-1.583-2.588-1.776-1.05-.305-.906-.357 1.11-.387l2.318-.036-.12-2.299-.12-2.299-2.198.142c-1.21.078-3.5.366-5.092.641-2.43.42-3.022.409-3.698-.065-1.406-.985-1.021-1.662.694-1.221 2.137.547 9.495-.456 9.495-1.296 0-.338-.261-.53-.6-.438-.33.09-1.768.224-3.197.302-2.897.156-2.55-.192 1.228-1.231 2.416-.665 4.437-2.23 2.88-2.23-.447 0-1.492.283-2.322.63-.83.347-1.855.54-2.277.43-.447-.118-1.091.121-1.538.568-.954.954-2.369 1.018-2.369.108 0-.363.72-1.277 1.598-2.029.88-.753 1.6-1.496 1.6-1.65 0-.154-.584-.524-1.299-.821l-1.3-.54 2.298-.333c1.264-.182 2.676-.533 3.135-.78 1.032-.552 2.763-.17 2.763.608 0 .535-.81.785-3.598 1.112-.553.065-.952.344-.895.624.059.278-.077.847-.3 1.266-.58 1.082.129 1.364 1.563.623 1.227-.635 3.084-.8 4.196-.374.946.364.783 2.048-.252 2.602l-.885.473.885.328c.486.18.885.533.885.784 0 .318.56.375 1.823.185 1.912-.287 2.973.163 2.973 1.26 0 .471-.422.527-2.262.296-1.959-.244-2.23-.197-2.022.345.478 1.244.713 5.304.375 6.476-.479 1.664-1.275 1.664-2.887 0zm-14.438-.301a29.676 29.676 0 0 0-1.094-1.85l-.616-.951 1.23.635 1.228.636.245-1.483c.134-.817.247-2.144.25-2.95l.004-1.466-1.553.852c-.855.467-1.474 1.06-1.375 1.32.239.622-.922 3.358-1.426 3.358-.774 0-.86-.785-.244-2.258.557-1.333.559-1.53.018-1.833-.334-.187-.79-.684-1.016-1.105-.382-.715-.286-.75 1.523-.535 2.152.255 4.473-.625 4.473-1.696 0-.53-.161-.518-1.19.09-.907.536-1.445.613-2.265.323-1.46-.517-1.606-1.217-.248-1.197.995.015 1.09-.103.966-1.183-.076-.66-.327-1.428-.557-1.709-.608-.74-.107-1.026.876-.5.466.25.95.963 1.073 1.583.174.867.402 1.083.985.932 1.025-.27 1-2.12-.04-3.011-.95-.813-1.052-1.892-.182-1.892.757 0 2.586 1.769 2.566 2.48-.008.285-.275 1.598-.592 2.917-.32 1.32-.584 3.748-.588 5.396-.015 5.026-1.193 7.475-2.451 5.097zm8.843-3.271c1.038-.38 1.39-.737 1.364-1.388-.041-1.08 1.317-1.022 1.992.085.643 1.056-.672 1.883-2.933 1.845L29 43.38l1.399-.512zm-5.322-14.934c-.688-.76-.641-.78 2.295-.968 1.675-.108 3.288-.434 3.656-.74.924-.766 1.353-2.079.874-2.672-.725-.9-1.504-.563-1.504.65 0 1.586-.898 2.292-1.786 1.404-.53-.53-.563-.738-.153-.991.284-.176.415-.422.29-.548-.125-.124-.909.316-1.742.978-1.912 1.52-3.005 1.585-3.005.18 0-1.551.711-2.573 1.79-2.573.53 0 1.073.18 1.209.4.345.559 1.798-.26 1.798-1.014 0-.321-.325-.585-.723-.585-.398 0-1.072-.264-1.5-.588-.726-.549-.681-.587.725-.6 1.253-.01 1.499-.15 1.499-.854 0-.558-.19-.77-.561-.627-.31.118-.894-.036-1.3-.344s-.558-.566-.339-.575c.22-.009 1.543-.202 2.94-.428 1.905-.309 2.683-.292 3.117.067.704.586.053 1.135-1.36 1.144-.511.004-.9.253-.9.58 0 .434.345.52 1.4.348 1.967-.318 1.967.882 0 1.25-2.02.38-1.826 1.35.3 1.503 1.436.104 1.72.27 1.832 1.062.08.568-.234 1.34-.8 1.957l-.932 1.02.964-.238c1.117-.277 2.434.307 2.434 1.08 0 .39-1.039.595-3.897.77-2.144.13-4.353.348-4.908.482-.716.174-1.216.018-1.713-.53zm1.244-3.361c.705-.705.586-1.12-.32-1.12-.533 0-.8.267-.8.8 0 .907.415 1.024 1.12.32zm-3.81-5.617c3.007-2.949 5.489-6.198 5.489-7.187 0-.301-.216-.763-.48-1.027-.373-.374-.202-.48.77-.48 1.455 0 2.51.88 2.268 1.892-.123.52.452 1.06 2.178 2.04 3.944 2.242 6.857 4.734 6.857 5.867 0 .547-.227.994-.503.994-.278 0-2.478-1.72-4.89-3.82l-4.385-3.822-3.221 3.37c-2.679 2.802-5.72 5.072-6.798 5.072-.132 0 1.09-1.304 2.715-2.899z" fill="#4f4f4f"/><path d="M36.171 46.59c-.646-.687-1.713-1.49-2.373-1.783-1.196-.534-1.194-.536.866-.551 1.138-.01 2.131-.214 2.212-.457.081-.242.05-1.277-.067-2.298-.212-1.83-.236-1.857-1.613-1.799-.769.033-3.144.286-5.28.562-4.033.523-5.112.3-5.112-1.06 0-.434.2-.451 1-.087.757.344 2.125.33 5.603-.057 2.532-.282 4.687-.651 4.791-.82.422-.681-.894-1.216-1.977-.804-.591.224-1.917.396-2.948.381-2.153-.031-1.705-.333 2-1.354 2.301-.633 3.713-1.586 3.31-2.237-.12-.195-1.145.01-2.278.457-1.132.446-2.438.716-2.903.599-.543-.136-1.087.07-1.52.575-.37.434-1.034.788-1.477.788-1.126 0-1.037-1.354.14-2.125 2.008-1.316 2.873-2.672 1.704-2.672-.303 0-.774-.27-1.048-.6-.423-.51-.318-.6.705-.6.66 0 2.13-.3 3.265-.666 1.914-.618 2.112-.619 2.72-.009.86.86.664 1.001-1.903 1.371-2.06.297-2.17.374-2.442 1.704-.157.766-.206 1.472-.111 1.567.096.096.808-.128 1.582-.497 1.439-.686 3.217-.861 4.346-.429.949.365.782 2.048-.259 2.606l-.891.476.891.398c.49.22.892.57.892.781 0 .23.734.275 1.823.111 1.877-.282 2.973.162 2.973 1.202 0 .395-.542.466-2.213.294l-2.212-.229.315 1.757c.461 2.586.273 6.006-.353 6.403-.788.499-.88.461-2.158-.898zm-14.932-.984c-.925-1.567-.847-2.207.167-1.366.341.283.713.42.829.305.24-.24.89-5.901.677-5.901-.634 0-3.32 1.734-3.272 2.113.23 1.81-.718 3.848-1.55 3.334-.313-.193-.278-.73.122-1.86.538-1.526.52-1.628-.464-2.612-1.24-1.239-1.096-1.479.592-.995 1.75.503 4.865-.532 4.865-1.617 0-.927-.155-.94-1.41-.118-1.076.705-2.768.505-3.102-.365-.148-.387.12-.48.998-.352 1.176.173 1.195.149.912-1.174-.158-.743-.474-1.58-.7-1.86-.562-.698-.27-.863.812-.453.553.209.997.795 1.14 1.503.179.897.404 1.116.99.964 1.025-.27 1-2.12-.04-3.011-.972-.833-1.093-2.09-.167-1.735.348.134.793.243.99.243.197 0 .636.424.975.942.554.846.557 1.206.015 3.498-.331 1.406-.615 3.995-.63 5.754-.03 3.27-.63 5.82-1.434 6.082-.247.08-.84-.513-1.315-1.32zm9.16-2.698c.93-.354 1.444-.834 1.531-1.423.152-1.031 1.154-1.006 1.817.046.655 1.042-.174 1.6-2.624 1.767l-2.122.145zM25.18 27.891l-.976-.813 2.473-.013c3.006-.016 4.271-.458 5.148-1.797.54-.822.572-1.134.173-1.617-.817-.984-1.598-.713-1.598.553 0 1.32-.777 2.156-1.555 1.675-.329-.203-.427-.648-.26-1.176.367-1.153-.028-1.069-1.643.35-1.67 1.464-2.938 1.589-2.938.288 0-2.02 1.943-3.371 3.147-2.187.407.4.669.303 1.32-.495l.813-.995-1.176-.24c-2.144-.44-2.454-.95-.71-1.168 1.101-.138 1.636-.417 1.729-.9.103-.543-.142-.7-1.096-.7-.676 0-1.229-.152-1.229-.34 0-.396 5.167-1.324 5.664-1.018.668.414.305.901-.867 1.158-.667.147-1.2.524-1.2.85 0 .453.319.526 1.4.323 1.094-.205 1.4-.132 1.4.338 0 .368-.54.7-1.4.862-2.017.378-1.826 1.348.297 1.502 2.065.15 2.408 1.041 1.087 2.828l-.893 1.206.99-.247c1.09-.274 2.593.562 2.189 1.217-.139.223-1.92.509-3.96.635-2.038.125-4.077.342-4.53.48-.531.163-1.167-.035-1.799-.56zm1.378-3.589c.623-.69.626-.77.025-1-.869-.334-1.38.026-1.38.974 0 .98.484.989 1.355.026zm-3.694-5.545c2.785-2.904 5.138-6.103 5.138-6.988 0-.301-.216-.763-.48-1.027-.373-.374-.206-.48.751-.48 1.355 0 2.34.87 1.997 1.763-.15.39.634 1.082 2.453 2.163 4.24 2.522 6.872 4.782 6.872 5.902 0 .53-.148.965-.329.965-.427 0-2.412-1.55-6.274-4.897-1.712-1.484-3.256-2.698-3.43-2.698-.173 0-.587.386-.918.86-1.75 2.499-6.925 7.135-7.963 7.135-.223 0 .76-1.214 2.183-2.698z" fill="#2f2f2f"/><path d="M36.208 46.477c-.784-.784-1.917-1.563-2.518-1.732-.928-.26-.763-.335 1.107-.505l2.2-.2-.138-2.2c-.074-1.207-.205-2.267-.287-2.351-.084-.085-1.731.064-3.661.332-7.22 1.005-7.182 1.005-7.694.046-.449-.837-.41-.86.988-.596 1.519.284 10.196-.55 10.186-.98-.004-.135-.165-.496-.358-.8-.28-.445-.608-.465-1.652-.1-1.511.526-4.725.617-4.16.116.208-.184 1.409-.556 2.666-.825 2.6-.555 4.364-1.719 3.675-2.42-.316-.324-.947-.223-2.33.37-1.044.447-2.295.713-2.782.59-.591-.147-1.132.052-1.63.601-.408.452-.974.822-1.257.822-1.232 0-.907-.99.896-2.727 1.739-1.676 1.85-1.883 1.07-1.994-.478-.068-1.085-.383-1.348-.7-.403-.485-.22-.575 1.162-.575.902 0 2.365-.29 3.252-.645 1.29-.516 1.73-.547 2.207-.15 1.028.853.665 1.146-1.76 1.421-2.325.263-2.356.283-2.586 1.698-.127.787-.151 1.512-.053 1.61.098.098.953-.116 1.9-.479 2.667-1.018 4.693-.793 4.693.523 0 .382-.355 1.015-.789 1.408-.78.707-.779.72.224 1.508.797.628 1.353.741 2.63.536 1.648-.263 2.731.192 2.731 1.146 0 .34-.63.43-2.118.308l-2.119-.175.163 3.754c.134 3.057.049 3.852-.46 4.274-.529.44-.839.302-2.05-.909zm-14.931-1.07c-.925-1.62-.925-1.624-.066-1.164.475.254.954.371 1.063.26.244-.243.931-5.592.743-5.78-.074-.074-.871.242-1.773.7-1.375.702-1.637 1.03-1.637 2.053 0 1.352-.62 2.764-1.213 2.764-.572 0-.467-1.48.195-2.762.551-1.065.53-1.147-.4-1.57-.538-.247-.98-.712-.98-1.035 0-.481.22-.51 1.22-.162 1.833.639 4.776-.55 4.776-1.928v-.996l-1.054.829c-1.244.979-2.256 1.058-2.944.229-.42-.507-.335-.6.55-.6 1.169 0 1.17-.002.682-2.099-.197-.852-.197-1.499 0-1.499.552 0 1.663 1.92 1.377 2.382-.288.467.202.54 1.157.174.897-.345.782-1.985-.24-3.367-1.056-1.427-.778-1.847.741-1.116 1.03.497 1.125.723 1.078 2.536-.097 3.62-.974 11.968-1.356 12.883-.523 1.257-.855 1.13-1.92-.732zm9.423-2.562c.859-.374 1.3-.842 1.3-1.383 0-.98.89-1.074 1.636-.174.46.553.403.753-.395 1.399-.544.44-1.535.747-2.385.738l-1.455-.016zm-5.54-14.949-.954-.773 1.998.05c3.276.083 4.738-.377 5.545-1.744.836-1.415.62-2.375-.537-2.375-.574 0-.814.263-.818.9-.009 1.258-.601 2.057-1.321 1.781-.386-.148-.53-.537-.394-1.057.292-1.12-.056-1.04-1.88.425-2.353 1.892-3.904.608-2.043-1.691.67-.826.871-.875 1.818-.444 1.326.604 1.246.61 1.999-.143.784-.783.807-1.37.054-1.37-.315 0-1.08-.213-1.699-.474l-1.125-.474 1.596-.226c1.087-.153 1.637-.449 1.728-.924.103-.544-.142-.7-1.096-.7-.676 0-1.229-.146-1.229-.324 0-.39 4.787-1.239 5.497-.976.934.347.504.9-.7.9-.659 0-1.2.075-1.2.167 0 .092-.112.462-.25.823-.21.549-.005.636 1.256.532.944-.077 1.575.063 1.684.377.106.299-.168.5-.683.5-1.046 0-2.406.685-2.406 1.212 0 .212.684.387 1.52.387 2.573 0 3.194 1.32 1.444 3.069l-1.035 1.034 1.054-.2c.677-.13 1.369.06 1.934.531.88.735.88.736-.946.748-1.667.013-5.637.587-7.213 1.044-.354.104-1.073-.16-1.598-.585zm1.398-3.594c.64-.706.638-.765-.027-1.02-.746-.288-1.88.801-1.49 1.43.326.53.778.407 1.516-.41zm-3.474-5.748c3.31-3.412 5.511-6.66 4.919-7.252-.66-.66-.458-1.04.55-1.04 1.11 0 2.032.942 1.718 1.758-.149.387.894 1.278 3.253 2.78 3.947 2.513 6.07 4.337 6.07 5.21 0 1.628-1.067.971-6.91-4.252-1.415-1.264-2.719-2.298-2.896-2.298-.18 0-1.584 1.366-3.123 3.036-2.454 2.664-5.286 4.959-6.118 4.959-.152 0 .99-1.306 2.538-2.901z" fill="#030303"/></g></svg>