<svg xmlns="http://www.w3.org/2000/svg" viewBox="0 0 60 60"><defs><filter id="a" color-interpolation-filters="sRGB"><feFlood flood-opacity=".498" flood-color="#000" result="flood"/><feComposite in="flood" in2="SourceGraphic" operator="in" result="composite1"/><feGaussianBlur in="composite1" stdDeviation="1" result="blur"/><feOffset dx="5" dy="3" result="offset"/><feComposite in="SourceGraphic" in2="offset" result="composite2"/></filter></defs><g opacity=".99"><g transform="matrix(.63 0 0 .63 -200.133 -55.478)" filter="url(#a)"><path d="m365.291 98-20.033 6.137-10.675 63.55H396l-10.676-63.55z" fill="#fee572"/><path d="M334.583 167.687v5.668H396v-5.668z" fill="#c3983c" fill-opacity=".992"/></g><path d="M34.1 43.011c.445-.536.067-.589-2.063-.286-4.773.68-7.152.524-8.425-.554l-1.179-1 1.204-1.02c.662-.56 1.539-1.206 1.947-1.434.651-.364.642-.56-.07-1.576-.726-1.037-.732-1.25-.057-1.995.683-.753.633-.915-.51-1.663-2.045-1.34-1.541-1.846 1.483-1.492 2.576.303 2.75.256 2.75-.745 0-.746-.312-1.068-1.033-1.068-1.198 0-2.966-.853-2.966-1.431 0-.528 7.867-2.204 8.5-1.812 1.047.646.48 2.15-1.005 2.668-1.985.693-2.065 2.163-.096 1.769.931-.187 1.616-.022 2.042.49.777.937.326 1.814-.935 1.814-1.43 0-2.51.538-2.51 1.252 0 .408.593.617 1.624.57 1.143-.052 1.624.15 1.624.677 0 .414-.726.963-1.624 1.227-1.028.303-1.624.797-1.624 1.35 0 .71.532.897 2.873 1.02 2.521.132 2.893.284 3.03 1.246.112.796-.256 1.308-1.35 1.874-1.84.95-2.351.988-1.63.12zm-5.5-3.81.168-1.182-1.66 1.05c-2.226 1.41-2.355 2.064-.325 1.65 1.228-.25 1.69-.635 1.816-1.518zm.078-3.83c0-.527-.27-.698-.789-.5-.435.168-.998.304-1.25.304-.251 0-.458.224-.458.5s.561.5 1.25.5c.813 0 1.248-.28 1.248-.804zm-9.743-5.843c3.75-3.149 7.1-6.84 8.36-9.212l1.125-2.117-1.119-.785c-1.458-1.02-1.417-1.633.132-2.022.793-.199 1.724-.006 2.534.525 1.055.691 1.253 1.162 1.123 2.674-.158 1.825-.133 1.85 4.447 4.588 6.179 3.693 7.633 5.018 7.633 6.954 0 1.155-.228 1.544-.9 1.544-.898 0-4.531-2.948-9.423-7.644l-2.578-2.475-3.437 3.436c-2.958 2.957-8.616 6.738-9.965 6.658-.236-.014.695-.97 2.068-2.124z" fill="#fecece"/><path d="M24.057 42.663c-1.448-.897-1.048-2.379.913-3.384 1.577-.808 1.695-.996 1-1.572-.886-.736-1.05-2.312-.29-2.781.802-.495.58-1.156-.499-1.5-.55-.175-.999-.606-.999-.959 0-.471.672-.58 2.498-.404 2.29.221 2.498.153 2.498-.821 0-.741-.312-1.064-1.032-1.064-1.194 0-2.965-.853-2.965-1.428 0-.4 5.223-1.621 7.482-1.75 1.876-.106 1.905 1.45.045 2.412-2.02 1.045-2.099 2.47-.111 2.033.934-.206 1.619-.071 2.005.394.722.87-.067 1.657-1.92 1.914-.71.099-1.318.558-1.414 1.066-.138.72.063.836 1.03.594.777-.195 1.429-.028 1.844.471.545.657.44.85-.695 1.282-.734.28-1.546.508-1.802.508-.258 0-.468.438-.468.973 0 .82.409.996 2.572 1.124 3.07.18 4.354 1.453 2.705 2.68-1.173.869-2.486.96-1.975.134.239-.387.092-.482-.438-.279-1.65.634-9.108.9-9.984.357zm3.748-1.985c.6-.004.874-.403.874-1.268 0-1.224-.043-1.24-1.41-.533-.776.4-1.732 1.12-2.124 1.598-.65.793-.603.84.536.54.687-.182 1.642-.332 2.124-.337zm.874-5.057c0-.994-.4-1.144-1.708-.643-1.224.47-.931 1.438.46 1.519.917.053 1.248-.18 1.248-.876zm6.977-9.12-5.765-5.179L28.41 23.3c-1.493 1.993-6.22 5.835-8.863 7.2-2.815 1.456-2.3.378 1.224-2.57 3.528-2.948 7.37-7.76 7.395-9.257.008-.42-.48-1.186-1.083-1.703l-1.096-.938 1.147-.424c.737-.273 1.62-.196 2.47.216 1.052.508 1.325.994 1.33 2.375.002.955.177 2.006.386 2.333.21.328 2.105 1.549 4.212 2.712 5.151 2.843 7.734 5.203 7.538 6.888-.083.708-.488 1.346-.9 1.418-.412.07-3.344-2.2-6.514-5.049z" fill="#feb0b0"/><path d="M24.307 42.682c-1.67-.712-1.395-2.207.607-3.285 1.551-.835 1.655-1.018.999-1.742-.962-1.064-.932-2.435.063-2.817.65-.249.537-.514-.625-1.464l-1.419-1.16 2.623-.019c2.285-.015 2.623-.148 2.623-1.017 0-.647-.333-1-.943-1-.52 0-1.475-.442-2.123-.982l-1.181-.983 1.25-.023c.687-.012 2.45-.342 3.918-.733 1.467-.39 2.985-.589 3.373-.44 1.205.463.772 1.723-.796 2.315-1.852.699-2.181 2.626-.37 2.17.62-.155 1.44-.09 1.821.146 1.06.655.277 1.937-1.292 2.117-.896.102-1.464.5-1.578 1.102-.147.778.037.887 1.062.629.804-.202 1.46-.05 1.853.425.505.608.38.825-.725 1.245-.734.28-1.546.508-1.803.508-.256 0-.467.438-.467.973 0 .82.409.996 2.572 1.124 3.07.18 4.354 1.453 2.705 2.68-1.162.86-2.486.96-1.983.146.243-.395-.018-.482-.845-.282-2.485.602-8.237.829-9.319.367zm3.44-2.004c.721-.005 1.686-1.918 1.208-2.395-.308-.31-3.052 1.27-3.81 2.192-.65.793-.603.84.536.54.687-.182 1.616-.332 2.064-.337zm.931-5.057c0-.994-.4-1.144-1.707-.643-1.224.47-.931 1.438.46 1.519.917.053 1.248-.18 1.248-.876zm9.664-6.867a700.094 700.1 0 0 1-5.843-5.148l-2.426-2.172-3.822 3.748c-3.237 3.173-8.22 6.528-8.797 5.922-.092-.097 1.318-1.414 3.136-2.928 3.564-2.967 6.92-7.01 7.424-8.944.213-.816.048-1.395-.511-1.804-1.273-.931-.976-1.74.64-1.74 2.072 0 3.188 1.272 2.823 3.22-.287 1.529-.186 1.63 4.226 4.203 5.984 3.49 8.074 5.342 7.878 6.978-.082.694-.412 1.347-.73 1.452-.32.105-2.12-1.149-3.998-2.786z" fill="#fe8e8e"/><path d="M24.307 42.59c-.618-.315-1.124-.86-1.124-1.21 0-.637 2.024-2.466 3.143-2.839.407-.135.32-.472-.275-1.068-1.068-1.07-1.122-2.233-.12-2.617.94-.36.982-1.18.06-1.18-.378 0-.967-.337-1.31-.75-.538-.649-.28-.749 1.938-.749 2.226 0 2.56-.13 2.56-1 0-.646-.334-.998-.944-.998-.52 0-1.475-.443-2.123-.983l-1.181-.983 1.545-.017c.85-.01 2.614-.338 3.921-.732 1.308-.393 2.692-.595 3.077-.446 1.203.462.769 1.722-.798 2.314-1.832.692-2.118 2.467-.374 2.326 1.885-.153 2.373-.01 2.373.696 0 .373-.73.886-1.62 1.142-2.011.577-2.717 2.498-.736 2 .786-.197 1.456-.054 1.824.39.646.78.409 1-1.591 1.478-.997.238-1.375.639-1.375 1.457 0 1.009.204 1.107 1.944.943 3.462-.332 5.395 1.635 2.78 2.826-1.599.729-1.877.73-1.427.001.263-.425-.292-.484-2.094-.226-5.069.726-6.981.78-8.073.224zm4.493-2.243c.539-.333.47-2.174-.08-2.174-.82 0-3.516 1.73-3.787 2.43-.207.537.135.607 1.613.33 1.032-.194 2.046-.458 2.254-.586zm-.12-4.713c0-.779-.271-.99-1.12-.869-1.612.23-1.728 1.662-.146 1.794.977.08 1.265-.13 1.265-.925zm8.943-7.55c-2.266-2.01-4.91-4.345-5.877-5.193l-1.757-1.54-2.854 3.04c-2.648 2.82-6.845 5.813-9.199 6.553-.679.213-.518-.056.5-.838 4.888-3.763 9.744-9.546 9.744-11.605 0-.466-.338-.976-.75-1.133-1.342-.516-.847-1.68.714-1.68 2.07 0 3.13 1.22 2.763 3.18-.292 1.561-.22 1.63 4.953 4.706 5.48 3.258 7.455 5.117 7.207 6.785-.272 1.827-1.3 1.397-5.443-2.275z" fill="#fe6f6f"/><path d="M24.858 42.673c-.59-.238-1.231-.688-1.424-.998-.406-.66 1.1-2.503 2.045-2.503 1.06 0 1.318-.954.483-1.788-.987-.988-1.003-2.154-.031-2.528.94-.36.982-1.18.06-1.18-.378 0-.967-.337-1.31-.75-.538-.649-.28-.749 1.938-.749 2.226 0 2.56-.13 2.56-1 0-.646-.334-.998-.944-.998-.52 0-1.475-.443-2.123-.983l-1.181-.983 1.5-.023c.824-.012 2.659-.332 4.078-.709 1.858-.494 2.733-.535 3.123-.145.88.879.638 1.363-.956 1.918-2.233.778-2.062 2.424.25 2.424 2.37 0 2.288 1.19-.125 1.784-1.386.344-1.874.724-1.874 1.464 0 .965.123.994 2.436.578.241-.044.542.206.67.556.136.37-.41.859-1.312 1.173-1.116.39-1.544.853-1.544 1.678 0 1.042.18 1.118 2.124.91 1.461-.156 2.436.019 3.123.562.992.783.99.797-.207 1.81-.917.774-1.3.87-1.594.393-.31-.502-1.103-.506-3.925-.023-4.048.695-4.378.7-5.84.11zm3.942-2.326c.208-.129.378-.79.378-1.469v-1.234l-1.99 1.139c-2.79 1.597-3.092 2.609-.642 2.15 1.032-.194 2.046-.458 2.254-.586zm.286-4.797c.122-.64-.162-.876-1.059-.876-1.294 0-2.58 1.099-1.986 1.695.664.662 2.877.067 3.045-.82zm10.297-5.97a345.842 345.845 0 0 1-5.86-5.229l-3.4-3.105-3.345 3.394c-2.88 2.92-7.97 6.519-9.242 6.533-.221.002.903-1.083 2.498-2.413 3.739-3.12 6.35-6.034 7.604-8.494.994-1.948.994-1.968.022-2.848-1.355-1.226-1.226-1.73.442-1.73 2.05 0 3.403 1.633 2.674 3.23-.646 1.42-.227 1.797 5.547 4.996 4.402 2.437 6.977 4.844 6.76 6.32-.258 1.765-1.066 1.623-3.7-.653z" fill="#fe4f4f"/><path d="M25.343 42.832c-1.322-.27-2.365-1.426-1.926-2.136.176-.285.814-.782 1.417-1.103.997-.53 1.033-.507.401.26-.973 1.177-.449 1.473 1.911 1.074 1.838-.31 2.032-.485 2.032-1.811v-1.468l-1.623.84c-1.495.772-1.57.774-.939.012.587-.707.577-.826-.071-.826-.692 0-1.364-.98-1.364-1.986 0-.224.393-.556.876-.739.7-.267.75-.208.249.297-1.044 1.051-.707 1.5.998 1.335 1.24-.12 1.625-.393 1.625-1.156 0-.674-.285-.952-.875-.853-.48.081-.874-.087-.874-.375 0-.286-.294-.521-.654-.521-.36 0-1.09-.345-1.624-.766-.901-.712-.794-.756 1.528-.625 2.231.127 2.515.026 2.652-.937.121-.844-.17-1.149-1.339-1.406-.821-.18-1.737-.622-2.035-.98-.43-.52 0-.727 2.089-1.006 4.42-.593 6.022-.565 6.252.109.123.364-.441.864-1.328 1.173-2.272.793-2.134 2.439.206 2.439 1.22 0 1.748.227 1.748.75 0 .424-.448.75-1.032.75-1.58 0-2.965.927-2.965 1.984 0 .814.261.908 1.815.656 1.422-.231 1.766-.143 1.583.406-.128.386-.665.781-1.19.88-1.44.27-2.133 1.004-1.874 1.992.182.695.759.885 2.701.885 3.193 0 4.175.882 2.504 2.248-.879.718-1.306.824-1.575.39-.336-.546-3.052-.447-7.192.26-.56.095-1.51.075-2.107-.046zm-4.021-15.135c3.664-3.416 6.282-6.645 7.013-8.65.206-.568-.034-1.194-.666-1.735-1.375-1.178-1.237-1.624.498-1.624 1.924 0 3.352 1.924 2.547 3.43-.612 1.143-.205 1.497 5.71 4.963 4.574 2.68 6.133 4.046 6.53 5.723.735 3.112-2.307 1.287-9.585-5.752l-3.056-2.955-3.69 3.666c-2.03 2.017-4.926 4.316-6.439 5.11l-2.748 1.445z" fill="#fe2f2f"/><path d="M23.728 41.977c-.738-.892-.415-1.58 1.106-2.364.904-.464.988-.446.472.098-.927.98-.761 1.46.5 1.453 2.484-.015 3.372-.555 3.372-2.05 0-1.687-.1-1.717-1.89-.575-1.288.822-1.322.822-.672 0 .592-.747.575-.865-.124-.865-.447 0-.811-.224-.811-.5 0-.275.787-.5 1.75-.5 1.552 0 1.747-.146 1.747-1.307 0-1.062-.187-1.258-.998-1.046-.55.144-.999.056-.999-.192 0-.25-.295-.453-.655-.453-.36 0-1.09-.348-1.624-.772-.898-.714-.779-.749 1.585-.462 2.127.258 2.61.166 2.882-.54.432-1.127-.458-2.127-2.062-2.32-3.604-.428-.372-1.814 4.87-2.086 1.792-.095 1.9.808.203 1.685-2.115 1.094-1.967 2.687.254 2.72.937.015 1.797.307 1.914.651.125.37-.224.624-.864.624-1.644 0-3.007.924-3.007 2.04 0 .884.218.963 1.814.664 2.337-.438 2.141.796-.224 1.41-1.246.323-1.59.678-1.59 1.646 0 1.178.143 1.235 3 1.235 2.663 0 2.997.112 2.997 1 0 .55-.169 1.004-.375 1.01-.206.006-2.976.134-6.157.285-4.803.225-5.889.143-6.414-.49zm12.026-15.812-5.61-5.05-3.382 3.407c-1.86 1.874-4.606 4.048-6.104 4.83l-2.722 1.423 1.749-1.383c2.991-2.367 6.845-6.685 8.07-9.045l1.174-2.259-1.124-.762c-1.404-.95-1.443-1.638-.092-1.638 2.005 0 3.044.956 2.897 2.666-.075.878.026 1.859.225 2.18.198.323 2.364 1.732 4.812 3.132 5.932 3.395 8.996 6.911 6.453 7.405-.404.079-3.26-2.13-6.346-4.906z" fill="#fe0404"/></g></svg>