<svg xmlns="http://www.w3.org/2000/svg" viewBox="0 0 60 60"><defs><filter id="a" color-interpolation-filters="sRGB"><feFlood flood-opacity=".498" flood-color="#000" result="flood"/><feComposite in="flood" in2="SourceGraphic" operator="in" result="composite1"/><feGaussianBlur in="composite1" stdDeviation="1" result="blur"/><feOffset dx="5" dy="3" result="offset"/><feComposite in="SourceGraphic" in2="offset" result="composite2"/></filter></defs><g stroke-width="1.667"><g transform="matrix(.63 0 0 .63 -251.278 -54.733)" opacity=".99" filter="url(#a)"><path d="m446.472 98-19.256 5.892-10.271 61.433H476l-10.259-61.359z" fill="#fee572"/><path d="M416.945 165.325v5.668H476v-5.669z" fill="#c3983c" fill-opacity=".992"/></g><g opacity=".99"><path d="M26.892 42.727c-2.129-1.06-2.18-1.708-.131-1.708.865 0 1.573-.236 1.573-.524s-.348-.524-.774-.524c-.427 0-1.152-.575-1.612-1.277-1.455-2.222.583-4.2 4.743-4.603 1.051-.103 1.63-.48 1.757-1.148.199-1.044-.144-1.049-4.9-.055-2.149.448-3.95-.813-2.927-2.046.493-.595.897-.691 1.345-.32.378.314 1.922.397 3.776.203 1.993-.207 3.552-.105 4.274.28 1.176.63 1.537 2.363.611 2.934-.35.217-.343.666.018 1.342.673 1.257.045 2.575-1.975 4.142-1.302 1.01-1.329 1.093-.27.801 2.558-.703 4.303 1.134 2.648 2.79-.9.9-6.142.715-8.156-.287zm3.249-4.822c.958-1.06.727-2.131-.463-2.131-1.01 0-2.034 1.434-1.68 2.354.408 1.064 1.036.999 2.143-.223zM21.778 26.26c5.696-5.927 6.499-7.254 5.508-9.107-.878-1.639-.507-2.03 1.5-1.59 3.654.803 3.458 2.873-.711 7.48-3.549 3.922-6.335 6.176-9.005 7.29-1.88.783-1.699.511 2.708-4.073zm14.292-.61c-2.812-2.654-5.113-5.005-5.113-5.226 0-1.418 10.379 5.05 11.517 7.176.757 1.414.433 2.942-.618 2.902-.368-.015-2.972-2.197-5.786-4.852zm-8.785 3.411c0-.28.627-.92 1.392-1.423 1.219-.798 1.284-.973.524-1.397-.477-.267-.867-.71-.867-.984 0-.723 3.872-.613 4.617.13.915.916.77 2.407-.29 2.963-1.464.77-5.375 1.287-5.375.711z" fill="#fecfcf"/><path d="M27.479 42.886c-2.434-1.059-2.682-1.867-.575-1.867 2.463 0 2.843-.616.788-1.28-1.403-.454-1.748-.861-1.88-2.226-.187-1.93.73-2.626 4.247-3.226 1.501-.257 2.258-.672 2.379-1.306.164-.848-.165-.898-3.717-.577-3.255.295-3.948.219-4.208-.46-.387-1.008.927-2.278 1.462-1.414.237.385 1.524.462 3.85.233 3.092-.305 3.603-.222 4.452.716.783.865.848 1.268.357 2.187-.451.842-.452 1.308-.006 1.846.759.914.04 2.357-1.958 3.924-1.423 1.115-1.427 1.132-.186.863 2.58-.56 4.309 1.66 2.18 2.8-1.411.756-5.22.642-7.185-.213zm2.22-4.365c.317-.213.856-.918 1.198-1.567.544-1.032.494-1.18-.404-1.18-1.677 0-2.683.579-2.683 1.543 0 1.459.77 1.95 1.889 1.203zm-9.46-10.451c3.74-3.585 7.57-8.338 7.57-9.397 0-.41-.285-1.205-.635-1.765-.859-1.375-.343-1.738 1.715-1.205 2.347.609 3.015 1.78 2.046 3.59-1.633 3.05-7.237 8.422-10.563 10.126l-3.315 1.699zm19.373.749c-.865-.949-3.09-3.075-4.941-4.727-1.852-1.652-3.215-3.153-3.03-3.339.184-.184 1.681.347 3.327 1.18 3.747 1.896 8.22 6.03 7.965 7.36-.301 1.56-1.637 1.37-3.322-.474zm-12.327-.113c0-.137.766-.644 1.702-1.129 1.672-.864 1.681-.887.524-1.405-1.868-.833-1.37-1.488.999-1.313 4.54.337 3.452 4.096-1.185 4.096-1.122 0-2.04-.112-2.04-.249z" fill="#feafaf"/><path d="M28.006 43.073c-.9-.262-1.932-.83-2.292-1.265-.563-.677-.39-.789 1.214-.789 1.858 0 3.38-1.032 1.569-1.066-2.41-.042-3.628-2.736-1.982-4.383.84-.839 3.673-1.566 4.973-1.275.457.1.83-.321.943-1.07.186-1.23.162-1.235-3.468-.87-3.801.381-4.715.01-4.079-1.648.25-.65.472-.691 1.072-.193.52.431 1.794.516 4.066.274 2.904-.31 3.425-.227 4.256.692.795.878.84 1.217.286 2.103-.486.778-.506 1.241-.078 1.757.775.934-.215 2.775-2.254 4.184l-1.537 1.064 1.568-.26c1.61-.267 3.415.366 3.415 1.197 0 1.874-3.857 2.653-7.672 1.548zm2.628-5.444c1.114-1.7 1.078-1.855-.426-1.855-1.214 0-2.923 1.197-2.923 2.048 0 1.547 2.296 1.414 3.35-.193zm-9.263-10.64c2.025-1.948 4.41-4.69 5.296-6.093 1.52-2.404 1.566-2.624.793-3.802-.794-1.212-.775-1.252.587-1.252 1.851 0 3.434.882 3.434 1.915 0 2.815-10.473 12.772-13.433 12.772-.198 0 1.297-1.594 3.323-3.54zm14.832-1.473c-2.742-2.718-4.78-4.944-4.533-4.948 1.14-.014 7.104 3.624 9.16 5.589 2.28 2.18 2.77 3.986 1.136 4.199-.43.056-3.023-2.121-5.763-4.84zm-7.424 2.297c1.715-1.097 1.73-1.14.64-1.724-1.432-.766-.862-1.33 1.344-1.33 1.242 0 1.904.324 2.344 1.145.521.975.437 1.286-.565 2.099-.72.582-2.02.95-3.348.943l-2.17-.009z" fill="#fe8f8f"/><path d="M27.964 42.975c-.925-.355-1.975-.94-2.335-1.3-.52-.524-.288-.657 1.157-.664.996-.003 2.164-.236 2.597-.516.62-.4.497-.51-.574-.516-1.47-.01-3.098-1.439-3.098-2.723 0-1.362 1.74-2.45 4.197-2.626 2.023-.143 2.385-.344 2.535-1.405.174-1.228.146-1.234-3.48-.87-3.801.381-4.715.01-4.079-1.648.253-.656.47-.693 1.082-.184.53.439 1.733.524 3.883.275 2.767-.32 3.24-.236 4.252.777 1.061 1.061 1.08 1.2.274 2.091-.57.629-.674 1.073-.306 1.3 1.074.663.546 2.286-1.26 3.871l-1.821 1.6 2.172.16c2.26.166 2.823.7 2.04 1.937-.615.973-5.128 1.248-7.236.441zm2.7-5.22c1.155-1.648 1.03-1.981-.738-1.981-1.588 0-3.018 1.588-2.372 2.634.561.906 2.27.55 3.11-.652zm-9.593-10.363c1.911-1.725 4.336-4.434 5.389-6.02 1.854-2.792 1.886-2.925 1.047-4.207-.853-1.301-.844-1.323.539-1.323 1.84 0 3.436.88 3.436 1.894 0 2.077-6.479 8.947-11.016 11.682-3.196 1.927-2.983 1.212.605-2.026zm15.378-1.829c-2.877-2.73-5.028-4.973-4.779-4.982.83-.033 6.433 3.163 8.423 4.804 1.083.892 2.153 2.12 2.38 2.727.421 1.134.187 2.417-.442 2.417-.194 0-2.706-2.235-5.582-4.966zm-7.328 2.11c1.553-1.336 1.558-1.358.4-1.669-1.68-.451-.922-1.246 1.186-1.246 1.283 0 1.954.315 2.38 1.111.829 1.548-.317 2.574-3.238 2.899l-2.3.256 1.572-1.352z" fill="#fe6f6f"/><path d="M28.138 42.872c-3.156-1.125-3.544-1.852-.988-1.852 1.194 0 2.317-.236 2.496-.525.178-.288-.11-.524-.64-.524-1.424 0-3.295-1.49-3.295-2.623 0-1.462 2.026-2.623 4.576-2.623 2.062 0 2.244-.11 2.244-1.353 0-1.345-.023-1.352-3.787-1.18-3.04.139-3.818.018-3.947-.614-.131-.65.598-.786 4.18-.78 4.65.007 5.651.318 5.651 1.755 0 .502-.295 1.226-.655 1.608-.524.556-.524.743 0 .936 1.268.465.634 2.188-1.465 3.984l-2.12 1.815 2.315-.26c2.834-.32 3.722.609 1.951 2.042-1.4 1.133-3.689 1.201-6.516.194zm2.527-5.117c1.149-1.639 1.03-1.981-.693-1.981-1.711 0-2.953 1.17-2.5 2.354.45 1.173 2.258.963 3.193-.372zm-9.539-10.373c4.505-4.127 7.465-8.507 6.706-9.923-.777-1.454-.703-1.616.728-1.616 1.218 0 2.922 1.197 2.922 2.055 0 .739-2.99 4.557-5.656 7.222-2.33 2.328-6.747 5.409-7.758 5.409-.207 0 1.17-1.416 3.058-3.147zm15.338-1.872c-2.884-2.703-4.998-4.922-4.696-4.93.715-.023 8.036 4.48 9.5 5.84 1.384 1.289 1.85 2.854 1.043 3.513-.412.337-2.256-1.058-5.847-4.423zm-7.38 2.264c1.462-1.22 1.488-1.31.525-1.852-.942-.527-.948-.592-.093-.922 1.316-.508 3.366.123 3.762 1.159.5 1.303-.822 2.316-3.43 2.626l-2.3.271z" fill="#fe4e4e"/><path d="M28.164 42.908c-2.76-1.022-2.849-1.243-.664-1.652 2.036-.382 3.095-1.285 1.506-1.285-1.424 0-3.295-1.49-3.295-2.623 0-1.469 2.03-2.623 4.61-2.623 2.177 0 2.272-.064 2.113-1.442-.18-1.57-.32-1.596-4.745-.905-2.066.324-2.538.241-2.818-.49-.456-1.186.02-1.555 1.195-.926.627.337 1.932.343 3.709.02 1.87-.34 3.076-.319 3.797.067 1.194.64 1.38 2.076.401 3.112-.524.556-.524.743 0 .936 1.29.473.618 2.195-1.573 4.038l-2.23 1.874 2.423-.319c2.64-.348 3.43.18 2.393 1.598-.886 1.213-4.364 1.529-6.823.62zm2.5-5.152c1.15-1.641 1.03-1.982-.692-1.982-1.711 0-2.953 1.17-2.5 2.354.45 1.173 2.258.963 3.193-.372zM22.33 26.269c4.785-5.005 6.394-7.583 5.564-8.914-.334-.536-.61-1.096-.61-1.244 0-.651 2.091-.182 3.203.72l1.221.987-1.465 2.116c-1.991 2.873-7.533 8.127-9.779 9.27-1.6.815-1.36.44 1.866-2.935zm13.873-1.015c-2.742-2.587-4.511-4.538-3.935-4.335 1.983.697 7.345 4.037 8.787 5.471 1.481 1.475 1.953 3.633.786 3.591-.36-.011-2.898-2.139-5.638-4.727zm-7.118 2.466c1.454-1.164 1.482-1.26.532-1.792-.932-.52-.898-.59.45-.928 1.642-.412 3.636.927 3.173 2.132-.303.788-2.916 1.825-4.59 1.821-.997-.003-.956-.121.435-1.233z" fill="#fe2f2f"/><path d="M29.421 43.024c-2.518-.443-4.16-1.481-2.34-1.481.579 0 1.489-.318 2.023-.708.909-.664.874-.733-.553-1.09-2.97-.747-3.606-2.155-1.79-3.971.73-.73 1.748-1.05 3.348-1.05 1.813 0 2.353-.208 2.559-.99.527-2.021-.295-2.377-3.788-1.636-2.27.482-3.389.52-3.78.127-.897-.896-.018-1.79 1.146-1.167.673.36 1.764.362 3.353.006 3.894-.873 6.426.921 4.374 3.097-.524.556-.524.743 0 .935 1.29.474.617 2.196-1.573 4.022l-2.23 1.857 2.36-.109c2.032-.094 2.36.034 2.36.918 0 1.3-2.241 1.807-5.469 1.24zm1.33-5.02c.384-.505.705-1.213.714-1.574.017-.686-1.93-.883-3.35-.337-.836.32-1.129 1.83-.48 2.48.665.665 2.423.344 3.116-.57zm-8.09-12.077c4.728-4.964 6.087-7.205 5.213-8.603-.323-.519-.59-1.065-.59-1.212 0-.648 2.088-.185 3.188.707l1.206.975-1.898 2.586c-2.423 3.302-7.019 7.653-9.344 8.847-1.513.777-1.151.24 2.224-3.3zm13.542-.748-4.983-4.774 3.797 2.023c4.264 2.27 7.48 5.102 7.48 6.587 0 1.767-1.226 1.02-6.295-3.836zm-7.153 2.689c1.6-1.258 1.773-2.042.464-2.102-.572-.026-.366-.241.543-.573 1.683-.614 2.998.133 2.998 1.703 0 .663-.61 1.13-1.967 1.507-2.976.827-3.571.671-2.038-.535z" fill="#fe0404"/></g></g></svg>