<svg xmlns="http://www.w3.org/2000/svg" viewBox="0 0 60 60"><defs><filter id="a" color-interpolation-filters="sRGB"><feFlood flood-opacity=".498" flood-color="#000" result="flood"/><feComposite in="flood" in2="SourceGraphic" operator="in" result="composite1"/><feGaussianBlur in="composite1" stdDeviation="1" result="blur"/><feOffset dx="5" dy="3" result="offset"/><feComposite in="SourceGraphic" in2="offset" result="composite2"/></filter></defs><g opacity=".99"><g filter="url(#a)" transform="matrix(.63 0 0 .63 5.385 2.305)"><path d="M39.071 3.92 16.52 11.313 6 78.331h66.142l-10.52-67.018z" opacity=".99" fill="#fee572"/><path d="M6 78.331V84h66.142v-5.669z" fill="#c3983c" fill-opacity=".992"/></g><path d="M37.386 47c-.624-.78-1.95-1.797-2.945-2.258l-1.813-.837 2.848-.116 2.846-.115V42.17c0-.828-.102-2.017-.227-2.642-.212-1.062-.334-1.128-1.865-1.014-.9.068-2.026.205-2.502.305l-.863.182.977.976c.81.81.903 1.115.545 1.783-.55 1.03-1.942 1.556-4.117 1.556-2.31 0-2.539-.594-.492-1.276 1.706-.568 2.151-1.228 1.505-2.234-.297-.463-.698-.487-2.232-.136-2.243.513-3.519.127-4.149-1.257-.59-1.294-.227-1.599 1.198-1.008 1.18.488 2.898.399 8.59-.449 2.604-.387 3.344-.748 2.546-1.242-.165-.102-1.232.057-2.372.352-1.138.296-2.284.472-2.546.392a29.89 29.89 0 0 0-1.633-.402c-1.51-.334-.79-.809 2.14-1.41 2.487-.51 5.105-1.841 5.105-2.595 0-.74-.454-.652-2.748.54-1.559.807-2.188.957-2.687.639-.513-.327-.928-.175-1.947.715-1.052.92-1.438 1.055-2.062.721-1.23-.658-.906-1.578 1.295-3.674 1.818-1.732 1.963-1.982 1.227-2.107-.46-.078-1.241-.574-1.737-1.102l-.903-.961 2.13-.01c1.273-.004 2.826-.323 3.859-.792 1.914-.869 2.963-.73 3.61.478.616 1.152.035 1.534-2.712 1.783-2.28.208-2.373.258-2.344 1.285.016.588-.095 1.272-.248 1.519-.406.657 1.04.563 1.952-.128 1.594-1.205 5.67-.372 5.67 1.159 0 .295-.457 1.08-1.016 1.744-.805.957-.885 1.209-.38 1.209.35 0 .746.283.879.631.197.515.604.584 2.192.373 2.164-.287 3.43.4 3.43 1.86 0 .722-.18.76-2.526.519l-2.528-.259.368 1.282c.539 1.878.464 7.906-.104 8.474-.856.856-2.057.501-3.214-.949zm-17.818-1.21c-.704-1.213-1.191-2.296-1.082-2.404.168-.168.676.03 2.62 1.018.297.15.916-5.74.633-6.022-.103-.102-.875.127-1.717.508-1.364.62-1.536.856-1.575 2.153-.053 1.784-1.08 3.45-2.126 3.45-1.008 0-1.008-1.216 0-3.436.727-1.602.728-1.669.04-1.669-.832 0-1.385-.593-1.793-1.923-.261-.848-.199-.914.638-.67 2.358.682 3.495.69 5.214.033 1.283-.491 1.802-.907 1.802-1.448 0-.74-.03-.737-1.035.053-1.31 1.03-3.057 1.042-4.07.028-1.199-1.198-.988-1.644.632-1.34l1.418.266-.276-1.72c-.151-.947-.525-1.919-.829-2.158-.813-.641-.677-.938.43-.938.539 0 1.334.353 1.766.785.432.432.786 1.228.786 1.767 0 1.069.033 1.095.95.744.888-.341.792-2.435-.148-3.234-.423-.358-.888-1.157-1.036-1.775-.26-1.101-.242-1.117 1.064-.84 2.818.597 3.727 2.666 2.675 6.09-.232.754-.567 3.934-.746 7.066-.178 3.131-.547 6.18-.82 6.774-.811 1.77-1.94 1.388-3.415-1.156zm2.02-21.71c-1.139-.46-2.621-2.408-2.174-2.855.214-.214.965-.189 1.877.065.836.232 2.536.423 3.777.425l2.259.002v-3.57l-1.276.226c-.901.161-1.653-.005-2.553-.565-1.91-1.185-1.584-1.59 1.276-1.59h2.553v-1.397c0-.864-.156-1.301-.407-1.146-.788.487-3.484-.276-4.473-1.264-1.102-1.103-.998-1.92.165-1.298 1.134.607 6.684.466 9.027-.23 2.283-.678 3.935-.334 3.935.82 0 .737-1.172 1.249-3.563 1.56-1.729.226-1.789.278-1.624 1.403.205 1.397.624 1.728 1.538 1.216.729-.408 2.864.427 2.864 1.118 0 .531-1.513 1.265-1.994.967-.224-.138-.82-.147-1.323-.022-.704.177-.955.562-1.083 1.657l-.167 1.425 3.298-.267c3.627-.294 5.195.235 5.195 1.753 0 .74-.266.774-5.793.731-4.449-.036-6.19.101-7.51.588-1.9.701-2.594.746-3.823.25z" fill="#d0d0d0"/><path d="M37.435 46.87c-.704-.995-1.601-1.698-2.554-2.003-2.537-.81-2.353-1.159.615-1.159h2.826l-.005-1.865c-.01-3.347-.205-3.637-2.294-3.398-1.003.115-2.265.3-2.805.413l-.983.205 1.08.567c1.62.853 1.482 2.38-.281 3.116-1.515.633-3.655.737-4.475.218-.383-.243-.05-.5 1.178-.91 1.533-.511 1.718-.704 1.753-1.834.029-.947-.102-1.21-.526-1.046-1.143.438-3.627.694-4.533.468-.875-.22-2.12-2.081-1.684-2.517.11-.11.732.023 1.385.293 1.8.746 11.605-.396 11.286-1.313-.085-.246-.58-.4-1.098-.34l-2.99.341c-2.317.267-3.858-.075-2.86-.636.322-.181 1.714-.621 3.092-.979 2.79-.723 4.368-1.594 4.368-2.413 0-.744-.542-.684-2.407.267-.874.446-2.093.76-2.708.695-.747-.079-1.442.185-2.087.792-1.089 1.022-2.732 1.024-2.927.004-.07-.366.78-1.55 1.96-2.728 1.797-1.795 1.974-2.103 1.297-2.242-.874-.18-2.16-1.198-2.16-1.712 0-.182.88-.331 1.956-.331s2.665-.285 3.534-.632c1.764-.706 3.326-.497 3.708.498.378.984-.154 1.281-2.79 1.557l-2.391.25-.217 1.61c-.118.886-.156 1.67-.082 1.743.073.074.85-.232 1.726-.68 1.737-.886 3.6-1.044 4.792-.406.99.53.998 2.399.014 3.289-.731.661-.73.692.098 1.54.753.77 1.044.825 2.717.51 1.574-.298 1.998-.242 2.65.35.429.387.779 1.05.779 1.474 0 .712-.188.749-2.518.5l-2.517-.27.347 1.5c.48 2.067.456 7.082-.038 8.006-.668 1.245-2.026.913-3.232-.791zm-17.511-.832c-1.765-2.84-1.664-3.36.371-1.91l1.14.812.022-.91c.01-.502.152-2.103.314-3.561.162-1.459.198-2.644.078-2.634-.12.01-.923.408-1.787.883-1.377.76-1.583 1.056-1.664 2.4-.107 1.75-1.018 3.375-1.892 3.375-1 0-1.092-1.113-.258-3.12l.797-1.918-.907-.226c-.556-.141-1.071-.702-1.334-1.454-.407-1.165-.384-1.211.452-.943 2.022.648 3.55.654 5.219.016 1.222-.466 1.746-.89 1.746-1.413 0-.728-.032-.728-1.276.03-1.672 1.021-2.715.985-3.76-.127-1.15-1.226-1.092-1.348.618-1.296 1.41.043 1.468-.005 1.352-1.133-.068-.649-.471-1.664-.896-2.259l-.773-1.08h.993c1.27 0 2.565 1.289 2.565 2.553 0 .72.208.982.784.982.656 0 .786-.262.786-1.57 0-.865-.186-1.572-.413-1.572-.426 0-1.722-2.707-1.434-2.996.45-.45 3.257.95 3.78 1.884.525.937.514 1.41-.114 4.516-.384 1.908-.827 5.706-.985 8.44-.388 6.755-1.285 7.832-3.524 4.231zM21.166 23.7c-.687-.42-1.46-1.153-1.715-1.63-.455-.852-.43-.862 1.448-.612 2.848.38 2.954.387 4.76.32l1.668-.061V19.92c0-1.621-.086-1.788-.884-1.723-1.69.137-2.22-.021-3.317-.985l-1.1-.97 2.65-.012 2.65-.013v-1.32c0-1.284-.044-1.321-1.6-1.321-1.738 0-3.609-1.096-3.834-2.244-.112-.567-.004-.608.662-.252 1.144.612 7 .515 9.204-.154 1.856-.562 3.816-.303 3.816.508 0 .764-1.522 1.642-2.846 1.642-2.195 0-2.512.244-2.332 1.788.155 1.33.202 1.364 1.507 1.12.994-.187 1.545-.072 2.107.435 1.013.918.65 1.368-1.11 1.375-1.869.008-2.251.293-2.568 1.918l-.26 1.335 3.181-.246c3.564-.274 5.462.316 5.462 1.7 0 .728-.293.763-5.988.704-4.842-.049-6.28.066-7.51.6-1.943.842-2.519.827-4.05-.106z" fill="#b0b0b0"/><path d="M37.652 47.001c-.603-.78-1.98-1.83-3.06-2.334l-1.964-.914 2.848-.022 2.846-.023v-2.127c0-3.302-.08-3.389-2.885-3.111-2.321.23-4.445.879-2.967.907.792.014 1.926 1.246 1.926 2.09 0 .354-.347.828-.77 1.054-1.207.646-4.162.93-4.971.478-.629-.352-.468-.476 1.13-.879 1.758-.443 1.862-.542 1.862-1.787 0-1.282-.035-1.31-1.276-1.04-2.727.596-4.273.36-5.132-.782-.442-.59-.727-1.152-.632-1.247.096-.094.92.026 1.83.27 1.301.346 2.638.306 6.205-.183 2.5-.344 4.658-.736 4.793-.871.135-.135.05-.443-.19-.68-.317-.32-.774-.317-1.7.005-1.498.522-4.264.57-5.026.089-.586-.372.874-.961 3.535-1.43 1.814-.32 3.875-1.562 3.875-2.335 0-.799-.511-.75-2.427.227-1.005.513-2.065.756-2.819.644-.93-.136-1.375.036-1.936.75-.741.94-2.388 1.25-2.833.529-.442-.714.2-1.86 1.568-2.797.738-.506 1.497-1.269 1.687-1.694.284-.633.13-.884-.84-1.38-1.96-.998-1.77-1.587.511-1.587 1.106 0 2.645-.265 3.42-.589 1.837-.767 2.623-.743 3.392.108.957 1.056.316 1.572-2.332 1.87l-2.404.273-.218 1.616c-.118.888-.156 1.676-.083 1.75.074.073.85-.233 1.727-.681 1.752-.893 3.01-1.011 4.544-.43 1.242.473 1.386 2.294.263 3.311-.728.659-.724.694.177 1.594.822.823 1.097.882 2.56.553 1.92-.432 3.506.32 3.506 1.661 0 .763-.148.792-2.615.528-2.46-.263-2.597-.236-2.316.46.523 1.29.713 7.353.266 8.496-.588 1.504-1.75 1.375-3.075-.34zm-17.728-.964c-1.59-2.556-1.56-2.99.138-1.988 1.247.735 1.375.749 1.387.137.008-.371.172-1.909.366-3.417.194-1.51.298-2.797.231-2.865-.068-.067-.918.264-1.892.737-1.644.798-1.77.97-1.79 2.407-.024 1.723-.952 3.445-1.858 3.445-.992 0-1.063-1.027-.206-2.966.449-1.015.816-1.893.816-1.95 0-.056-.44-.214-.976-.35a1.674 1.674 0 0 1-1.225-1.237c-.314-1.253-.045-1.53.964-.99 1.88 1.007 6.064-.04 6.477-1.62.108-.411.078-.69-.067-.618a312.8 312.8 0 0 0-1.726.876c-1.626.828-3.054.505-3.78-.85-.343-.643-.23-.7 1.136-.57l1.517.144-.23-1.512c-.127-.832-.591-1.909-1.032-2.396l-.802-.883h.982c1.187 0 2.69 1.494 2.69 2.676 0 .58.24.858.741.858 1.18 0 1.32-2.52.199-3.573-.476-.448-.955-1.153-1.063-1.566-.303-1.158 1.864-1.01 3.085.212 1.129 1.128 1.194 2.162.345 5.436-.34 1.315-.746 4.812-.9 7.772-.376 7.195-1.238 8.334-3.527 4.652zM21.166 23.7c-.687-.42-1.445-1.125-1.682-1.568-.39-.73-.32-.807.735-.807.641 0 1.61.17 2.155.376.545.208 1.882.271 2.971.142l1.982-.235v-3.425h-1.55c-1.117 0-1.855-.282-2.65-1.012l-1.102-1.01 1.513.207c.833.115 2.027.106 2.651-.019.986-.197 1.138-.406 1.138-1.553 0-1.306-.026-1.325-1.745-1.325-1.28 0-2.04-.253-2.848-.949-1.382-1.19-1.069-1.536.974-1.077 1.453.326 3.197.22 9.549-.583 1.43-.182 1.856-.1 2.045.394.35.912-1.193 1.822-3.088 1.822-.889 0-1.698.083-1.799.184-.102.102-.111.813-.022 1.581.16 1.356.202 1.39 1.51 1.143.994-.187 1.545-.072 2.107.435 1.058.96.634 1.37-1.418 1.37-1.806 0-1.85.04-2.31 2.121l-.251 1.14 3.171-.244c2.003-.155 3.522-.085 4.124.189.991.452 1.54 1.336 1.187 1.909-.113.182-2.809.312-5.99.288-4.546-.034-6.153.097-7.504.614-2.158.827-2.328.822-3.853-.108z" fill="#909090"/><path d="M37.588 46.913c-.675-.851-1.934-1.831-2.798-2.177-.865-.346-1.573-.735-1.573-.865s1.105-.174 2.454-.1l2.455.134.117-2.656c.087-1.984-.022-2.71-.428-2.866-.3-.114-2.385.086-4.633.446-2.249.359-4.67.742-5.382.849-1.422.212-2.601-.551-2.957-1.917-.166-.63-.073-.73.45-.491 1.299.59 4.649.595 8.26.011 2.021-.327 3.747-.667 3.838-.758.09-.09.063-.43-.062-.756-.197-.51-.425-.52-1.678-.074-1.684.602-4.345.699-5.152.188-.41-.26-.096-.474 1.178-.806.955-.25 2.355-.613 3.11-.809 1.724-.446 3.143-1.425 3.143-2.165 0-.798-.9-.705-2.538.262-.917.54-1.827.767-2.619.65-.905-.132-1.448.057-2.134.742-1.08 1.08-2.337 1.199-2.699.254-.182-.476.314-1.215 1.725-2.568 1.09-1.045 1.978-2.026 1.973-2.18-.005-.153-.57-.544-1.257-.869-2.072-.979-1.785-1.484.95-1.667 1.36-.09 3.054-.412 3.761-.713 1.486-.633 2.641-.175 2.641 1.049 0 .611-.432.803-2.454 1.091-2.24.32-2.454.433-2.454 1.303 0 .524-.183 1.294-.406 1.712-.55 1.025.325 1.015 2.267-.026 3.64-1.95 6.94.396 4.168 2.964-.762.707-.872.964-.415.964.343 0 .88.366 1.196.814.509.728.732.77 2.083.395.832-.231 1.646-.421 1.808-.422.526-.004 1.866 1.553 1.866 2.169 0 .504-.415.557-2.618.331-2.47-.253-2.602-.225-2.322.48.5 1.26.728 6.556.345 8.014-.524 1.991-1.664 2.014-3.21.063zm-17.68-.9c-.687-1.107-1.15-2.113-1.027-2.236.122-.123.727.075 1.345.438l1.122.664.22-1.665c.121-.917.333-2.582.47-3.703l.25-2.036-1.994 1.054c-1.756.93-1.994 1.204-1.997 2.306-.005 2.51-1.388 4.394-2.445 3.336-.38-.38-.02-1.726 1.199-4.486.072-.163-.122-.297-.43-.297-.734 0-1.862-1.26-1.862-2.082 0-.532.18-.579 1.009-.265 2.874 1.094 6.846-.29 6.846-2.385 0-.192-.642.088-1.43.62-1.662 1.129-2.386 1.2-3.588.36-1.247-.874-1.079-1.353.478-1.353 1.337 0 1.347-.013 1.126-1.473-.123-.81-.585-1.87-1.026-2.356l-.802-.883h.872c1.162 0 2.8 1.69 2.8 2.89 0 1.448 1.416.923 1.729-.641.193-.964.04-1.427-.744-2.244-1.852-1.934-1.013-3.006 1.385-1.766 1.544.8 1.778 2.05.973 5.207-.37 1.453-.797 5.027-.948 7.942-.386 7.463-1.258 8.711-3.53 5.056zm8.814-3.056c-.123-.199.53-.615 1.45-.926 1.46-.494 1.657-.697 1.559-1.604-.088-.796.06-1.04.625-1.04 1.046 0 2.161 1.354 1.871 2.27-.376 1.183-4.915 2.254-5.505 1.3zm-7.09-19.1c-2.54-1.302-2.849-2.764-.491-2.328 1.465.27 6.223.332 6.39.083.034-.05-.016-.843-.112-1.76-.172-1.645-.198-1.67-1.682-1.67-1.062 0-1.835-.294-2.61-.994l-1.102-.993 1.827.246c2.697.366 3.475.002 3.475-1.624 0-1.332-.019-1.347-1.745-1.347-1.28 0-2.04-.253-2.848-.949-1.39-1.197-1.13-1.463.972-.99 1.53.343 3.108.23 9.533-.68.955-.136 1.55-.013 1.884.39.753.907-.874 1.836-3.217 1.836-1.802 0-1.908.056-1.685.883.13.486.239 1.213.242 1.615.005.625.208.693 1.41.467 1.464-.274 2.523.223 2.523 1.185 0 .34-.64.56-1.853.639-1.79.115-1.864.17-2.204 1.614-.193.822-.27 1.574-.172 1.673.099.099 1.56-.013 3.249-.247 2.808-.391 3.156-.363 4.086.333.56.416 1.017 1.004 1.017 1.305 0 .443-1.157.55-6.086.566-4.872.014-6.38.151-7.548.687-1.773.812-1.785.813-3.253.06z" fill="#6f6f6f"/><path d="M37.552 46.869c-.676-.854-1.84-1.773-2.586-2.043-2.003-.724-1.648-1.159.719-.88 2.65.311 2.972-.074 2.67-3.184l-.229-2.355-2.16.08c-1.188.043-3.794.38-5.792.748-3.43.633-3.673.632-4.378-.007-.411-.372-.841-1.032-.954-1.467-.164-.627-.07-.731.451-.5 1.328.585 3.89.647 7.567.179 4.184-.534 4.814-.772 4.463-1.688-.215-.561-.408-.568-1.83-.066-1.709.603-3.585.685-4.797.21-.594-.233-.343-.401 1.178-.791 3.28-.84 5.145-1.603 5.865-2.399.65-.718.65-.778.017-1.021-.385-.148-1.432.12-2.436.62-1.083.542-2.164.804-2.807.681-.763-.146-1.277.054-1.918.746-1.005 1.084-2.287 1.235-2.642.31-.165-.43.386-1.243 1.725-2.54 1.083-1.05 1.969-2.047 1.969-2.217 0-.17-.53-.543-1.179-.83-1.696-.75-1.462-1.115.91-1.411 1.15-.144 2.583-.518 3.187-.832 1.402-.727 2.357-.722 2.968.015.88 1.06.17 1.652-2.32 1.934-2.31.262-2.388.308-2.388 1.406 0 .624-.177 1.245-.393 1.378-.6.37-.468.982.212.982.332 0 1.33-.37 2.217-.822 3.502-1.787 6.625.56 3.993 3-.762.706-.872.964-.415.964.343 0 .893.383 1.221.851.55.785.72.815 2.169.381 1.663-.498 2.915-.107 3.36 1.052.374.975-.167 1.177-2.56.96l-2.37-.215.308 1.725c.496 2.778.364 7.231-.236 7.955-.818.985-1.44.782-2.778-.91zm-16.992.08a25.947 25.947 0 0 0-1.252-2.16c-.804-1.22-.326-1.421 1.122-.471.915.599.934.584 1.153-.884.123-.821.335-2.492.47-3.714l.25-2.22-2.004.96c-1.848.884-2.004 1.067-2.004 2.337 0 1.673-.98 3.696-1.79 3.696-.975 0-1.037-.933-.19-2.908.95-2.215.947-2.197.273-2.197-.693 0-1.828-1.27-1.828-2.046 0-.544.177-.55 1.62-.053 1.281.442 1.914.465 3.042.106 2.122-.67 3.192-1.463 3.192-2.362 0-.799-.006-.8-1.08-.043-1.712 1.206-2.772 1.396-3.848.691-1.343-.88-1.2-1.398.388-1.398 1.338 0 1.347-.013 1.124-1.473-.123-.81-.466-1.75-.76-2.092-.699-.808-.678-1.147.07-1.147.95 0 2.536 1.824 2.536 2.915 0 .775.147.933.687.733 1.564-.576 1.682-2.071.294-3.72-1.655-1.968-1.105-2.86 1.134-1.84 1.662.757 2.012 2.29 1.221 5.348-.378 1.458-.803 5.037-.947 7.952-.26 5.264-.717 7.069-1.786 7.069-.3 0-.79-.486-1.087-1.08zm8.395-3.963c-.387-.259-.066-.505 1.179-.9 1.521-.485 1.697-.663 1.597-1.621-.088-.832.054-1.077.625-1.077.796 0 2.04 1.151 2.04 1.888 0 1.152-4.272 2.494-5.44 1.71zm-7.33-19.123c-1.228-.607-2.383-2.047-1.97-2.459.129-.13 1.03-.024 2.003.236 2.3.616 6.2.218 5.885-.6-.119-.313-.217-1.082-.217-1.711 0-1.074-.098-1.146-1.548-1.146-1.07 0-1.889-.293-2.646-.945l-1.098-.944 2.646.212 2.646.213v-3.15l-2.036-.196c-1.49-.142-2.23-.434-2.759-1.086-.397-.492-.668-.946-.6-1.013.065-.066.868.07 1.784.302 1.225.311 2.518.294 4.895-.063 4.943-.743 6.332-.723 6.492.09.168.846-1.315 1.475-3.481 1.475-1.656 0-1.676.03-1.293 1.951.232 1.154.355 1.245 1.407 1.035 1.328-.266 2.66.31 2.66 1.15 0 .419-.474.575-1.744.575-1.972 0-2.005.03-2.397 2.122l-.287 1.526 2.508-.324c3.666-.472 4.642-.384 5.535.51 1.48 1.48.644 1.724-4.926 1.442-4.646-.234-5.415-.176-7.61.57-2.87.975-2.391.947-3.848.227z" fill="#4f4f4f"/><path d="M37.552 46.81c-.713-.887-1.847-1.852-2.52-2.146-1.222-.53-1.22-.533.99-.548 2.634-.019 2.781-.237 2.429-3.61l-.25-2.391-2.59.248c-1.424.138-3.954.537-5.62.888-2.813.592-3.102.591-4.026-.014-1.826-1.197-1.278-1.744 1.52-1.52 1.383.111 3.99-.008 5.793-.262 4.533-.643 4.723-.713 4.202-1.547-.397-.634-.593-.643-2.646-.108-1.976.515-4.829.387-4.25-.192.113-.113 1.49-.537 3.058-.94 3.061-.788 5.236-2.343 4.42-3.159-.31-.31-1.003-.138-2.501.62-1.34.68-2.434.978-3.098.845-.752-.151-1.276.054-1.962.765-1.053 1.094-2.114 1.095-2.325.001-.09-.474.493-1.31 1.666-2.387.992-.912 1.804-1.818 1.802-2.015-.001-.196-.576-.699-1.276-1.117l-1.274-.76 2.112-.283c1.163-.156 2.812-.598 3.667-.984 1.734-.781 2.86-.44 2.86.867 0 .54-.321.771-1.178.846-3.156.277-3.638.476-3.827 1.575-.102.589-.327 1.405-.501 1.815-.271.64-.182.715.631.523.522-.123 1.748-.53 2.726-.907 1.57-.605 1.912-.62 2.94-.127 1.56.747 1.673 1.763.35 3.143-.6.627-.888 1.14-.64 1.14s.813.39 1.257.864c.737.791.948.827 2.47.414 1.543-.417 1.732-.381 2.63.505 1.315 1.297.707 1.707-2.05 1.384l-2.262-.264.298 1.984c.422 2.813.25 7.223-.307 7.896-.75.903-1.333.68-2.718-1.043zm-16.992.138a25.795 25.795 0 0 0-1.252-2.16c-.799-1.213-.452-1.389.888-.45.494.345.986.54 1.093.434.242-.243.914-4.8.925-6.275l.007-1.086-1.964.996c-1.68.851-1.963 1.16-1.963 2.14 0 2.363-1.245 4.314-2.23 3.496-.385-.32-.326-.835.281-2.432.92-2.42.904-2.223.191-2.223-.606 0-2.028-1.842-1.686-2.184.108-.108.972.009 1.918.262 1.53.408 1.953.36 3.784-.428 1.635-.704 2.062-1.076 2.062-1.793v-.907l-1.756.981c-1.568.877-1.869.926-2.818.463-1.644-.8-1.623-1.498.043-1.498h1.425l-.265-1.474c-.144-.81-.534-1.783-.865-2.162-.786-.9-.447-1.196.82-.714 1.192.453 1.995 1.769 1.72 2.819-.226.865-.235.862 1.081.362 1.328-.505 1.338-2.056.026-3.616-1.66-1.973-1.105-2.86 1.148-1.833 1.496.68 1.909 2.444 1.181 5.046-.33 1.188-.739 4.723-.904 7.855-.299 5.632-.741 7.46-1.803 7.46-.3 0-.79-.485-1.088-1.079zm8.538-3.922c-.607-.153-.387-.345.982-.858 1.55-.58 1.749-.788 1.65-1.72-.087-.816.056-1.06.626-1.06.796 0 2.04 1.151 2.04 1.888 0 1.067-3.464 2.21-5.298 1.75zm-7.1-19.141c-1.328-.565-2.776-2.048-2.385-2.44.146-.146 1.12-.047 2.164.22 1.117.286 2.693.38 3.831.23l1.933-.257-.009-1.726c-.008-1.71-.023-1.728-1.383-1.73-1.127-.002-3.927-1.206-3.927-1.688 0-.071 1.074-.051 2.385.043 1.313.095 2.552.007 2.754-.195.203-.203.255-.932.118-1.62-.223-1.116-.397-1.252-1.595-1.252-1.588 0-3.465-.885-3.815-1.797-.193-.5-.093-.583.443-.359 1.388.577 4.334.659 6.997.195 5.278-.92 5.254-.92 5.524-.215.39 1.016-.34 1.438-2.894 1.67l-2.347.212.395 1.555c.375 1.476.456 1.543 1.633 1.322 1.374-.258 2.876.54 2.416 1.285-.153.248-1.034.451-1.956.451-1.668 0-1.682.012-2.083 1.768l-.405 1.767 1.418-.017c.78-.01 2.172-.163 3.092-.34 1.883-.365 4.218.485 4.218 1.535 0 .501-.816.57-5.498.46-4.678-.11-5.825-.014-7.686.643-1.86.654-2.362.696-3.339.28z" fill="#2f2f2f"/><path d="M37.651 46.797c-.818-.893-2.018-1.858-2.667-2.145-1.155-.51-1.134-.52 1.057-.536 1.23-.01 2.353-.206 2.497-.44.144-.232.14-1.558-.007-2.945l-.27-2.521-1.638.014c-1.453.012-5.162.593-8.764 1.371-.964.21-1.417.086-2.062-.558-1.099-1.1-1.073-1.748.057-1.366 1.512.512 11.46-.352 11.88-1.032.095-.152-.044-.564-.307-.915-.44-.587-.648-.588-2.587-.014-1.512.446-2.457.521-3.338.262-1.187-.35-1.132-.385 1.56-1.053 3.112-.773 5.261-1.903 5.261-2.766 0-1.029-.667-1.022-2.964.03-1.793.82-2.408.944-2.967.595-.581-.363-.914-.23-1.904.762-.662.66-1.421 1.127-1.69 1.037-1.095-.364-.661-1.547 1.25-3.408 2.209-2.152 2.447-2.777 1.058-2.777-.513 0-1.133-.24-1.377-.534-.36-.434-.053-.573 1.676-.752 1.164-.12 2.692-.516 3.394-.879.993-.514 1.483-.567 2.204-.238 1.904.869.941 1.987-1.756 2.039-1.99.037-2.612.398-2.656 1.543-.021.54-.173 1.29-.337 1.669-.236.546-.108.684.628.674.508-.006 1.268-.272 1.687-.588.42-.318 1.577-.577 2.573-.577 2.857 0 3.555 1.279 1.733 3.18-1.002 1.046-1.006 1.068-.196 1.324.452.144.822.522.822.84 0 .458.497.554 2.396.464 2.156-.103 2.459-.02 3.033.83l.638.945-2.679-.216-2.679-.214.265 1.76c.412 2.75.28 7.605-.222 8.212-.68.818-.976.696-2.601-1.077zm-17.496-.786c-.748-1.159-1.302-2.174-1.23-2.259.072-.082.596.155 1.166.529s1.178.529 1.351.347c.174-.182.44-1.875.594-3.763l.278-3.432-2 .879c-1.851.814-2.002.983-2.017 2.255-.018 1.707-.787 3.288-1.682 3.461-.85.164-.897-1.261-.088-2.676.772-1.35.724-1.868-.197-2.16-.771-.246-1.802-1.665-1.458-2.01.096-.097.95.027 1.896.274 1.484.387 1.995.341 3.686-.33 1.613-.643 1.987-.974 2.093-1.863l.13-1.083-1.355.838c-1.602.99-3.127 1.074-3.982.219-.866-.868-.787-.97.66-.857l1.276.1-.134-1.768c-.073-.971-.316-1.987-.538-2.259-.3-.362-.203-.49.38-.49 1.06 0 1.798.974 1.798 2.378 0 1.248.02 1.263 1.342.91 1.293-.347 1.234-2.676-.099-3.91-1.375-1.276-1.323-2.297.098-1.942 2.045.51 2.559 1.338 2.322 3.741-.117 1.19-.392 2.956-.612 3.929-.22.971-.41 3.357-.425 5.301-.03 3.973-.46 6.313-1.314 7.168-.51.51-.741.327-1.939-1.527zm9.528-3.62c2.098-.686 2.447-1.016 2.184-2.063-.291-1.162.482-1.255 1.765-.216 1.762 1.427-.023 2.847-3.484 2.77l-1.84-.042zm-9.11-19.515c-.658-.656-1.091-1.3-.964-1.427.129-.129 1.027-.01 1.998.26 1.115.312 2.564.394 3.939.222l2.173-.27v-1.74c0-1.774-.125-1.893-1.837-1.757-.47.037-1.443-.254-2.16-.645l-1.304-.711 2.64-.117 2.643-.115-.074-1.652-.072-1.65-1.875-.004c-1.531-.001-2.075-.204-2.962-1.1l-1.086-1.098 1.106.413c1.625.609 5.476.504 8.522-.23 2.801-.677 3.92-.558 3.92.417 0 .653-2.239 1.4-4.208 1.403-.83.002-1.213.17-1.113.493.083.27.263.999.4 1.619.224 1.018.373 1.108 1.515.923 1.37-.223 2.877.557 2.441 1.26-.142.231-1.024.42-1.96.42-1.532 0-1.727.107-1.959 1.08a41.82 41.82 0 0 1-.478 1.817c-.208.698-.022.722 3.52.456 3.524-.264 3.788-.23 4.604.586 1.317 1.318.482 1.524-5.15 1.273-4.026-.18-5.38-.096-6.974.424-2.856.935-3.868.828-5.245-.549z" fill="#020202"/></g></svg>