<?xml version="1.0" encoding="UTF-8" standalone="no"?>
<svg
   xmlns:dc="http://purl.org/dc/elements/1.1/"
   xmlns:cc="http://creativecommons.org/ns#"
   xmlns:rdf="http://www.w3.org/1999/02/22-rdf-syntax-ns#"
   xmlns:svg="http://www.w3.org/2000/svg"
   xmlns="http://www.w3.org/2000/svg"
   xmlns:sodipodi="http://sodipodi.sourceforge.net/DTD/sodipodi-0.dtd"
   xmlns:inkscape="http://www.inkscape.org/namespaces/inkscape"
   height="60"
   width="60"
   version="1.1"
   id="svg78"
   sodipodi:docname="1FU.svg"
   inkscape:version="1.0.1 (3bc2e813f5, 2020-09-07)">
  <metadata
     id="metadata82">
    <rdf:RDF>
      <cc:Work
         rdf:about="">
        <dc:format>image/svg+xml</dc:format>
        <dc:type
           rdf:resource="http://purl.org/dc/dcmitype/StillImage" />
      </cc:Work>
    </rdf:RDF>
  </metadata>
  <sodipodi:namedview
     pagecolor="#ffffff"
     bordercolor="#666666"
     borderopacity="1"
     objecttolerance="10"
     gridtolerance="10"
     guidetolerance="10"
     inkscape:pageopacity="0"
     inkscape:pageshadow="2"
     inkscape:window-width="1366"
     inkscape:window-height="711"
     id="namedview80"
     showgrid="false"
     inkscape:zoom="9.1"
     inkscape:cx="30"
     inkscape:cy="30"
     inkscape:window-x="0"
     inkscape:window-y="0"
     inkscape:window-maximized="1"
     inkscape:current-layer="svg78" />
  <defs
     id="defs52">
    <filter
       id="a"
       color-interpolation-filters="sRGB">
      <feFlood
         flood-opacity=".498"
         flood-color="#000"
         result="flood"
         id="feFlood2" />
      <feComposite
         in="flood"
         in2="SourceGraphic"
         operator="in"
         result="composite1"
         id="feComposite4" />
      <feGaussianBlur
         in="composite1"
         stdDeviation="1"
         result="blur"
         id="feGaussianBlur6" />
      <feOffset
         dx="5"
         dy="3"
         result="offset"
         id="feOffset8" />
      <feComposite
         in="SourceGraphic"
         in2="offset"
         result="composite2"
         id="feComposite10" />
    </filter>
    <filter
       id="b"
       color-interpolation-filters="sRGB">
      <feGaussianBlur
         stdDeviation="5"
         result="result8"
         id="feGaussianBlur13" />
      <feComposite
         result="result6"
         in="SourceGraphic"
         operator="in"
         in2="result8"
         id="feComposite15" />
      <feComposite
         operator="in"
         result="result11"
         in2="result6"
         id="feComposite17" />
      <feFlood
         result="result10"
         flood-opacity="1"
         flood-color="#FFF"
         id="feFlood19" />
      <feBlend
         mode="multiply"
         in="result10"
         in2="result11"
         result="result12"
         id="feBlend21" />
      <feComposite
         result="fbSourceGraphic"
         operator="in"
         in2="SourceGraphic"
         in="result12"
         id="feComposite23" />
      <feFlood
         result="result6"
         flood-color="#4B659A"
         id="feFlood25" />
      <feComposite
         k3=".3"
         k2=".3"
         k1=".5"
         operator="arithmetic"
         result="result2"
         in="fbSourceGraphic"
         in2="result6"
         id="feComposite27" />
      <feColorMatrix
         result="fbSourceGraphicAlpha"
         in="result2"
         values="1 0 0 -1 0 1 0 1 -1 0 1 0 0 -1 0 -0.8 -1 0 3.9 -2.7"
         id="feColorMatrix29" />
      <feGaussianBlur
         result="result0"
         in="fbSourceGraphicAlpha"
         stdDeviation=".5"
         id="feGaussianBlur31" />
      <feDiffuseLighting
         lighting-color="#fff"
         diffuseConstant=".7"
         surfaceScale="50"
         result="result13"
         in="result0"
         id="feDiffuseLighting35">
        <feDistantLight
           elevation="20"
           azimuth="225"
           id="feDistantLight33" />
      </feDiffuseLighting>
      <feSpecularLighting
         specularExponent="20"
         specularConstant=".7"
         surfaceScale="10"
         lighting-color="#fff"
         result="result1"
         in="result0"
         id="feSpecularLighting39">
        <feDistantLight
           elevation="45"
           azimuth="225"
           id="feDistantLight37" />
      </feSpecularLighting>
      <feBlend
         mode="screen"
         result="result5"
         in2="SourceGraphic"
         in="result13"
         id="feBlend41" />
      <feComposite
         in="result1"
         k3="1"
         k2="1"
         operator="arithmetic"
         in2="result5"
         result="result9"
         id="feComposite43" />
      <feComposite
         in2="SourceGraphic"
         operator="in"
         result="fbSourceGraphic"
         id="feComposite45" />
      <feColorMatrix
         result="fbSourceGraphicAlpha"
         in="fbSourceGraphic"
         values="0 0 0 -1 0 0 0 0 -1 0 0 0 0 -1 0 0 0 0 1 0"
         id="feColorMatrix47" />
      <feColorMatrix
         values="0.21 0.72 0.072 -0.3 0 0.21 0.72 0.072 -0.3 0 0.21 0.72 0.072 -0.3 0 0 0 0 1 0"
         in="fbSourceGraphic"
         id="feColorMatrix49" />
    </filter>
  </defs>
  <g
     opacity="0.99"
     id="g76"
     transform="translate(3.9212988)">
    <g
       filter="url(#a)"
       transform="matrix(0.6,0,0,0.6,-338.376,-106.932)"
       id="g58">
      <path
         d="M 624.768,252.585 634,194.441 h -53.151 l 9.207,58.137 17.368,5.642 z"
         fill="#feec99"
         id="path54" />
      <path
         d="m 590.056,256.357 v -3.78 l 17.368,5.643 17.344,-5.635 v 3.78 L 607.424,262 Z"
         fill="#c3983c"
         fill-opacity="0.992"
         id="path56" />
    </g>
    <g
       transform="matrix(-0.9,0,0,-0.9,48.433,55.499)"
       opacity="0.99"
       filter="url(#b)"
       id="g74">
      <path
         d="m 28.483,44.997 c -2.48,-2.278 -2.656,-2.544 -1.687,-2.544 1.565,0 5.437,2.047 5.753,3.04 0.25,0.785 -0.413,2.114 -1.03,2.068 -0.147,-0.011 -1.513,-1.165 -3.036,-2.564 z M 16.208,46.91 c 0.188,-0.201 1.245,-0.853 2.35,-1.45 1.335,-0.719 2.056,-1.405 2.146,-2.044 0.155,-1.089 0.835,-1.226 1.971,-0.395 1.06,0.776 0.54,2.249 -1.092,3.093 -1.387,0.718 -5.93,1.39 -5.375,0.796 z m -0.34,-4.959 c -1.979,-1.556 -1.415,-2.02 2.126,-1.753 3.617,0.273 3.976,0.002 3.31,-2.5 -0.388,-1.456 -0.774,-1.615 -2.552,-1.049 -1.552,0.496 -1.115,-0.287 1.175,-2.1 1.175,-0.931 2.137,-2.033 2.137,-2.45 0,-0.867 0.868,-0.997 1.623,-0.242 0.71,0.71 0.641,1.628 -0.194,2.551 -0.67,0.741 -0.638,0.782 0.632,0.782 0.737,0 2.124,-0.314 3.084,-0.698 1.388,-0.556 1.963,-0.598 2.82,-0.208 1.232,0.562 1.147,1.485 -0.155,1.677 -0.5,0.074 -0.972,0.537 -1.087,1.068 a 12.262,12.262 0 0 1 -0.542,1.75 c -0.318,0.76 -0.18,0.793 2.23,0.52 2.158,-0.244 2.73,-0.163 3.56,0.51 1.38,1.117 0.886,2.434 -0.76,2.025 -0.643,-0.159 -2.92,-0.395 -5.061,-0.524 -3.595,-0.216 -4.78,-0.082 -9.675,1.096 -1.326,0.318 -1.787,0.24 -2.672,-0.456 z m 10.619,-2.385 c 0.453,-0.732 0.806,-3.635 0.413,-3.391 -0.227,0.139 -1.227,0.3 -2.224,0.36 -1.597,0.095 -1.785,0.21 -1.578,0.983 0.13,0.482 0.239,1.213 0.241,1.624 0.005,0.566 0.364,0.749 1.477,0.749 0.808,0 1.56,-0.147 1.67,-0.325 z m -6.56,-8.789 c 0,-0.113 1.06,-0.806 2.358,-1.537 3.789,-2.138 5.762,-4.141 5.762,-5.852 0,-0.795 -0.177,-1.446 -0.393,-1.446 -1.037,0 -1.744,0.611 -1.744,1.506 0,0.544 -0.117,1.293 -0.26,1.664 -0.324,0.846 -1.877,0.895 -1.877,0.06 0,-1.2 -0.9,-1.142 -2.378,0.155 -1.561,1.372 -3.07,1.678 -3.947,0.803 -0.715,-0.716 -0.639,-2.107 0.18,-3.279 0.697,-0.994 1.709,-1.07 4.222,-0.313 1.242,0.373 2.499,-0.737 2.134,-1.886 -0.225,-0.708 -0.509,-0.86 -1.214,-0.645 -1.852,0.564 -2.18,0.44 -2.661,-1.014 -0.265,-0.801 -0.828,-1.71 -1.252,-2.019 -0.685,-0.501 -0.695,-0.593 -0.089,-0.825 1.237,-0.475 2.22,0.017 2.654,1.324 0.392,1.183 0.526,1.256 1.603,0.875 0.938,-0.332 1.174,-0.68 1.169,-1.723 -0.009,-1.514 -0.34,-2.115 -1.383,-2.5 -1.449,-0.534 -0.78,-1.208 1.07,-1.074 1.442,0.104 1.84,0.308 1.938,0.995 0.105,0.73 0.381,0.84 1.767,0.708 0.979,-0.093 1.771,0.051 1.96,0.358 0.432,0.7 -0.563,1.26 -2.247,1.268 -0.828,0.004 -1.39,0.224 -1.39,0.544 0,0.371 0.57,0.492 1.841,0.39 1.277,-0.1 2.007,0.056 2.387,0.513 0.793,0.956 0.204,1.561 -1.237,1.273 -1.925,-0.384 -3.38,0.116 -3.129,1.078 0.18,0.69 0.432,0.753 1.777,0.446 1.866,-0.426 4.575,0.192 4.934,1.126 0.292,0.762 -0.66,1.24 -1.853,0.929 -0.717,-0.189 -0.816,0 -0.758,1.44 0.112,2.84 -3.25,5.42 -8.555,6.565 -0.764,0.165 -1.39,0.207 -1.39,0.093 z m 0.028,-6.286 c 1.154,-0.618 1.03,-1.267 -0.242,-1.267 -0.587,0 -1.068,0.08 -1.068,0.179 0,0.099 -0.117,0.483 -0.26,0.855 -0.299,0.778 0.367,0.877 1.57,0.233 z"
         fill="#d0d0d0"
         id="path60" />
      <path
         d="m 28.794,45.275 c -1.352,-1.248 -2.457,-2.408 -2.457,-2.58 0,-0.17 0.624,-0.175 1.389,-0.01 3.234,0.696 5.672,2.956 4.592,4.257 -0.292,0.352 -0.651,0.63 -0.8,0.62 -0.146,-0.01 -1.373,-1.04 -2.724,-2.288 z M 16.696,46.5 c 0.456,-0.346 1.015,-0.628 1.242,-0.628 0.863,0 3.323,-2.24 3.1,-2.821 -0.312,-0.812 0.801,-0.761 1.636,0.074 0.867,0.867 0.847,1.115 -0.18,2.219 -0.935,1.003 -3.344,1.812 -5.345,1.794 -1.22,-0.01 -1.241,-0.042 -0.452,-0.638 z m -1.232,-4.997 c -0.365,-0.522 -0.666,-1.066 -0.666,-1.21 0,-0.144 1.54,-0.173 3.42,-0.065 3.787,0.22 3.768,0.237 3.152,-2.846 -0.257,-1.282 -0.331,-1.324 -2.03,-1.103 l -1.763,0.23 1.058,-0.767 c 2.477,-1.795 3.8,-3.195 3.574,-3.782 -0.289,-0.753 0.757,-0.826 1.478,-0.104 0.84,0.84 0.588,1.924 -0.662,2.84 l -1.175,0.861 1.923,-0.215 c 1.057,-0.118 2.646,-0.52 3.529,-0.892 1.269,-0.534 1.832,-0.574 2.671,-0.192 1.348,0.614 1.362,1.267 0.033,1.6 -0.599,0.15 -1.135,0.675 -1.28,1.251 a 18.71,18.71 0 0 1 -0.536,1.74 c -0.261,0.68 -0.05,0.725 2.273,0.483 1.94,-0.203 2.787,-0.11 3.492,0.382 1.962,1.374 0.818,2.493 -1.904,1.861 -2.553,-0.591 -8.659,-0.464 -11.27,0.238 -3.3,0.885 -4.53,0.814 -5.317,-0.31 z m 11.519,-3.351 c 0.162,-0.957 0.226,-1.786 0.144,-1.843 -0.082,-0.057 -1.155,-0.026 -2.386,0.07 -2.016,0.156 -2.195,0.25 -1.816,0.959 0.232,0.432 0.421,1.183 0.421,1.668 0,0.743 0.267,0.884 1.671,0.884 1.622,0 1.68,-0.052 1.966,-1.738 z m -6.629,-7.443 c 0,-0.088 1.106,-0.836 2.457,-1.662 3.925,-2.4 5.235,-3.806 5.235,-5.616 0,-1.357 -0.118,-1.533 -0.95,-1.413 -0.74,0.107 -1.028,0.538 -1.307,1.953 -0.398,2.025 -1.144,2.324 -2.13,0.855 l -0.648,-0.962 -1.007,0.909 c -1.24,1.116 -2.661,1.87 -3.53,1.87 -0.902,0 -1.664,-1.578 -1.356,-2.806 0.388,-1.546 1.746,-2.093 3.724,-1.5 2.055,0.615 3.477,0.014 3.277,-1.385 -0.13,-0.92 -0.475,-1.003 -2.65,-0.641 -0.618,0.103 -0.955,-0.296 -1.425,-1.681 -0.338,-1 -0.792,-1.817 -1.007,-1.817 -0.215,0 -0.392,-0.204 -0.392,-0.456 0,-0.25 0.528,-0.395 1.175,-0.32 0.874,0.1 1.285,0.468 1.602,1.43 0.392,1.188 0.525,1.262 1.603,0.88 0.938,-0.332 1.174,-0.68 1.169,-1.723 -0.009,-1.514 -0.34,-2.115 -1.383,-2.5 -1.366,-0.503 -0.808,-1.213 0.845,-1.076 1.073,0.09 1.735,0.412 2.03,0.987 0.333,0.651 0.782,0.823 1.88,0.718 1.697,-0.163 2.749,0.579 1.759,1.238 -0.351,0.235 -1.263,0.336 -2.026,0.224 -1.155,-0.169 -1.39,-0.065 -1.39,0.617 0,0.72 0.224,0.789 1.832,0.568 1.396,-0.191 1.972,-0.084 2.413,0.447 0.812,0.979 0.3,1.292 -1.897,1.157 -2.243,-0.138 -2.765,0.103 -2.493,1.147 0.174,0.663 0.561,0.746 2.74,0.589 2.61,-0.19 3.815,0.283 3.815,1.495 0,0.437 -0.4,0.576 -1.38,0.481 -1.34,-0.13 -1.377,-0.09 -1.257,1.379 0.217,2.66 -2.052,4.618 -7.084,6.11 -1.234,0.365 -2.244,0.593 -2.244,0.504 z m 0.245,-6.665 c 0.802,-0.886 0.798,-0.89 -0.678,-0.748 -1.002,0.095 -1.529,0.384 -1.625,0.89 -0.2,1.06 1.299,0.968 2.303,-0.143 z"
         fill="#b0b0b0"
         id="path62" />
      <path
         d="m 17.094,46.636 c 0.44,-0.303 1.402,-0.94 2.137,-1.415 0.735,-0.477 1.527,-1.294 1.76,-1.818 0.469,-1.06 0.997,-1.048 1.68,0.038 0.943,1.493 -1.046,3.048 -4.471,3.496 -1.641,0.215 -1.794,0.172 -1.106,-0.301 z m 11.435,-1.645 c -1.262,-1.182 -2.208,-2.236 -2.102,-2.342 0.105,-0.106 1.175,0.1 2.377,0.456 3.128,0.929 5.099,3.66 2.841,3.936 -0.49,0.06 -1.747,-0.768 -3.116,-2.05 z m -13.137,-3.62 c -0.896,-1.367 -0.615,-1.643 1.183,-1.16 0.785,0.21 2.247,0.3 3.245,0.2 1.957,-0.198 2.07,-0.424 1.544,-3.06 -0.264,-1.321 -0.327,-1.355 -2.03,-1.115 -1.519,0.215 -1.646,0.174 -0.937,-0.293 1.986,-1.307 4.116,-3.5 3.913,-4.027 -0.417,-1.088 1.053,-0.574 1.565,0.547 0.46,1.014 0.394,1.212 -0.707,2.09 l -1.216,0.97 2.085,-0.218 c 1.148,-0.12 2.68,-0.49 3.406,-0.824 0.974,-0.447 1.617,-0.493 2.457,-0.174 1.5,0.57 1.441,1.174 -0.148,1.523 -0.708,0.155 -1.194,0.431 -1.082,0.613 0.112,0.181 -0.022,0.928 -0.297,1.658 -0.275,0.73 -0.415,1.411 -0.307,1.513 0.106,0.1 1.156,0.034 2.33,-0.15 2.387,-0.372 4.488,0.359 4.488,1.56 0,0.599 -0.393,0.64 -3.099,0.33 -4.072,-0.467 -8.505,-0.28 -11.493,0.483 -3.334,0.852 -4.084,0.78 -4.9,-0.465 z m 11.53,-2.443 c 0.142,-0.529 0.26,-1.417 0.264,-1.973 0.004,-0.842 -0.157,-0.968 -0.956,-0.754 -0.528,0.142 -1.582,0.26 -2.34,0.264 -1.316,0.005 -1.358,0.057 -0.944,1.147 0.24,0.628 0.336,1.398 0.217,1.71 -0.161,0.418 0.272,0.568 1.642,0.568 1.567,0 1.9,-0.152 2.117,-0.962 z M 20.354,30.71 c 0,-0.088 1.011,-0.738 2.247,-1.445 3.544,-2.028 5.332,-3.863 5.597,-5.747 0.22,-1.554 0.179,-1.623 -0.886,-1.497 -0.892,0.107 -1.21,0.47 -1.585,1.809 -0.543,1.95 -1.273,2.374 -1.94,1.128 -0.634,-1.182 -1.132,-1.112 -2.857,0.402 -1.65,1.448 -2.356,1.578 -3.323,0.61 -0.961,-0.96 -0.83,-2.02 0.392,-3.17 0.988,-0.927 1.182,-0.96 2.716,-0.453 2.542,0.839 4.025,-0.21 3.23,-2.283 -0.23,-0.598 -0.383,-0.6 -1.508,-0.017 -1.557,0.804 -1.974,0.561 -2.334,-1.36 -0.157,-0.833 -0.548,-1.617 -0.871,-1.74 -0.948,-0.363 -0.673,-1.06 0.36,-0.911 0.79,0.113 1.313,0.753 2.325,2.838 0.198,0.407 2.655,-1.296 2.518,-1.743 a 28.596,28.596 0 0 1 -0.413,-1.677 c -0.143,-0.65 -0.64,-1.271 -1.148,-1.432 -1.269,-0.403 -0.372,-1.157 1.167,-0.98 0.742,0.084 1.382,0.49 1.617,1.025 0.305,0.693 0.762,0.88 2.094,0.855 1.003,-0.019 1.78,0.188 1.89,0.502 0.13,0.377 -0.393,0.534 -1.774,0.534 -1.714,0 -1.958,0.115 -1.958,0.911 0,0.809 0.173,0.883 1.555,0.658 1.57,-0.254 3.145,0.251 3.145,1.01 0,0.228 -1.122,0.413 -2.493,0.413 -2.803,0 -3.21,0.2 -2.554,1.252 0.364,0.584 0.91,0.695 2.691,0.547 2.403,-0.199 4.065,0.393 4.065,1.449 0,0.479 -0.369,0.617 -1.388,0.518 -1.337,-0.129 -1.384,-0.081 -1.247,1.277 0.18,1.818 -0.742,3.197 -3.024,4.515 -1.658,0.96 -6.306,2.581 -6.306,2.202 z m 0.107,-6.373 c 1.118,-0.848 0.91,-1.184 -0.637,-1.034 -0.913,0.088 -1.434,0.39 -1.528,0.882 -0.171,0.903 1.061,0.99 2.165,0.152 z M 24.2,23.223 c 0,-0.235 -0.084,-0.427 -0.188,-0.427 -0.104,0 -0.307,0.192 -0.453,0.427 -0.145,0.236 -0.06,0.427 0.189,0.427 0.249,0 0.452,-0.191 0.452,-0.427 z"
         fill="#8e8e8e"
         id="path64" />
      <path
         d="m 16.508,46.967 c 0,-0.104 0.966,-0.712 2.148,-1.356 1.34,-0.729 2.239,-1.54 2.394,-2.154 0.204,-0.816 0.387,-0.912 1.058,-0.553 1.016,0.544 1.043,1.77 0.056,2.663 -0.942,0.853 -5.656,2.02 -5.656,1.4 z M 29.31,45.552 c -0.815,-0.882 -1.866,-1.82 -2.334,-2.087 -1.5,-0.852 -0.397,-1.064 1.761,-0.34 2.567,0.86 3.582,1.72 3.582,3.027 0,1.514 -1.293,1.256 -3.01,-0.6 z M 15.67,41.518 c -1.21,-1.298 -1.1,-1.79 0.304,-1.371 1.039,0.31 5.644,0.33 5.948,0.026 0.064,-0.064 -0.127,-1.067 -0.423,-2.23 -0.38,-1.485 -0.725,-2.064 -1.163,-1.948 -2.614,0.694 -2.77,0.592 -1.05,-0.69 2.27,-1.69 3.351,-2.952 3.008,-3.508 -0.431,-0.698 0.48,-0.538 1.234,0.217 0.925,0.924 0.85,1.341 -0.459,2.554 l -1.13,1.05 2.092,-0.273 c 1.15,-0.148 2.723,-0.526 3.495,-0.838 0.967,-0.392 1.73,-0.444 2.457,-0.168 1.394,0.53 1.337,1.114 -0.136,1.408 -0.74,0.149 -1.215,0.532 -1.254,1.015 -0.035,0.427 -0.194,1.3 -0.353,1.94 l -0.289,1.164 2.741,-0.256 c 2.24,-0.209 2.873,-0.124 3.466,0.47 1.36,1.359 0.894,1.664 -1.945,1.272 -3.705,-0.512 -8.875,-0.313 -11.84,0.455 -3.262,0.846 -3.669,0.82 -4.703,-0.288 z m 11.023,-1.866 c 0.078,-0.066 0.252,-0.935 0.386,-1.931 0.234,-1.748 0.207,-1.802 -0.784,-1.537 -0.564,0.151 -1.638,0.278 -2.386,0.281 -1.311,0.005 -1.346,0.052 -0.984,1.312 0.207,0.719 0.275,1.567 0.153,1.886 -0.175,0.455 0.178,0.53 1.625,0.344 1.016,-0.129 1.912,-0.29 1.99,-0.355 z M 23.132,29.021 c 3.45,-2.08 5.341,-4.14 5.341,-5.82 0,-1.181 -0.12,-1.303 -1.163,-1.181 -0.948,0.11 -1.252,0.447 -1.634,1.82 -0.548,1.96 -1.224,2.361 -1.89,1.118 -0.633,-1.182 -1.131,-1.112 -2.856,0.402 -1.65,1.448 -2.356,1.578 -3.323,0.61 -0.961,-0.96 -0.83,-2.02 0.392,-3.17 0.995,-0.934 1.173,-0.963 2.758,-0.44 1.476,0.488 1.834,0.469 2.772,-0.146 0.938,-0.615 1.017,-0.84 0.607,-1.737 -0.404,-0.89 -0.607,-0.97 -1.457,-0.582 -1.383,0.63 -2.195,0.19 -2.538,-1.372 -0.163,-0.737 -0.565,-1.444 -0.895,-1.57 -0.959,-0.368 -0.694,-1.067 0.346,-0.917 0.734,0.106 1.942,1.585 2.286,2.8 0.015,0.054 0.654,-0.138 1.417,-0.425 1.295,-0.49 1.37,-0.625 1.109,-2.023 -0.33,-1.763 -0.905,-2.566 -1.837,-2.566 -0.482,0 -0.543,-0.131 -0.213,-0.46 0.757,-0.76 2.87,-0.285 3.322,0.746 0.323,0.737 0.735,0.911 2.01,0.855 2.234,-0.101 2.27,0.752 0.04,0.914 -1.511,0.109 -1.816,0.28 -1.816,1.017 0,0.781 0.194,0.86 1.638,0.667 1.651,-0.221 3.062,0.232 3.062,0.983 0,0.223 -1.25,0.406 -2.778,0.406 -1.528,0 -2.777,0.098 -2.777,0.22 0,0.12 0.228,0.584 0.506,1.03 0.424,0.678 0.86,0.772 2.707,0.581 2.375,-0.245 4.051,0.338 4.051,1.408 0,0.503 -0.321,0.585 -1.46,0.372 l -1.46,-0.275 0.219,1.644 c 0.167,1.255 0.005,1.915 -0.687,2.793 -0.99,1.254 -4.5,3.065 -6.867,3.542 -1.355,0.272 -1.253,0.154 1.068,-1.244 z m -1.923,-5.332 c 0,-0.201 -0.376,-0.464 -0.834,-0.585 -1.135,-0.297 -2.369,0.66 -2.021,1.568 0.253,0.66 0.38,0.663 1.565,0.052 0.71,-0.368 1.29,-0.833 1.29,-1.034 z M 24.2,23.412 c 0,-0.366 -0.195,-0.546 -0.434,-0.398 -0.24,0.148 -0.324,0.447 -0.189,0.666 0.367,0.593 0.623,0.482 0.623,-0.268 z"
         fill="#6f6f6f"
         id="path66" />
      <path
         d="m 16.936,46.822 c 0.001,-0.17 0.915,-0.79 2.03,-1.378 1.361,-0.716 2.074,-1.384 2.166,-2.028 0.116,-0.817 0.264,-0.893 0.987,-0.506 1.304,0.698 0.852,2.196 -0.91,3.021 -1.737,0.813 -4.274,1.342 -4.273,0.892 z m 11.608,-2.04 -2.28,-2.31 1.98,0.596 c 2.83,0.852 4.076,1.778 4.076,3.027 0,1.683 -1.244,1.25 -3.776,-1.314 z M 15.655,41.387 c -1.243,-1.324 -1.01,-1.605 0.88,-1.062 0.807,0.231 2.386,0.298 3.51,0.15 1.61,-0.214 1.997,-0.418 1.838,-0.963 -0.11,-0.38 -0.33,-1.424 -0.49,-2.32 -0.229,-1.287 -0.434,-1.565 -0.985,-1.332 -2.526,1.068 -2.67,0.605 -0.348,-1.132 1.78,-1.332 2.426,-2.074 2.283,-2.621 -0.258,-0.988 0.252,-0.975 1.16,0.029 0.88,0.972 0.612,1.78 -0.916,2.76 -1.163,0.747 -1.161,0.747 1.4,0.465 1.41,-0.155 3.044,-0.514 3.631,-0.8 1.186,-0.576 3.047,-0.277 3.317,0.533 0.112,0.338 -0.303,0.522 -1.18,0.522 -0.896,0 -1.29,0.18 -1.167,0.534 0.101,0.294 -0.07,1.266 -0.382,2.162 l -0.567,1.627 2.875,-0.283 c 2.573,-0.254 2.959,-0.19 3.68,0.607 0.742,0.82 0.748,0.912 0.086,1.167 -0.396,0.152 -1.853,0.036 -3.237,-0.258 -2.804,-0.594 -7.516,-0.313 -11.21,0.67 -2.967,0.79 -3.013,0.785 -4.178,-0.455 z m 11.21,-2.097 c 0.172,-0.258 0.317,-1.1 0.32,-1.873 l 0.007,-1.403 -2.245,0.286 c -1.233,0.157 -2.26,0.309 -2.28,0.335 -0.022,0.027 0.047,0.866 0.151,1.863 l 0.19,1.815 1.77,-0.277 c 0.975,-0.152 1.913,-0.488 2.086,-0.746 z M 23.132,29.03 c 3.43,-2.079 5.341,-4.154 5.341,-5.8 0,-1.146 -0.14,-1.289 -1.277,-1.289 -1.16,0 -1.302,0.157 -1.551,1.719 -0.336,2.1 -0.97,2.578 -1.788,1.346 -0.793,-1.195 -1.416,-1.17 -2.608,0.097 -1.272,1.354 -2.819,1.628 -3.7,0.653 -0.848,-0.937 -0.491,-2.313 0.822,-3.173 0.762,-0.499 1.25,-0.525 2.532,-0.13 1.25,0.383 1.817,0.365 2.657,-0.085 1.204,-0.645 1.304,-1.147 0.447,-2.276 -0.489,-0.647 -0.751,-0.697 -1.514,-0.288 -1.275,0.681 -2.007,0.292 -2.345,-1.25 -0.159,-0.72 -0.61,-1.489 -1.002,-1.71 -0.662,-0.37 -0.658,-0.422 0.038,-0.691 1,-0.385 2.025,0.517 2.025,1.78 0,1.171 0.09,1.195 2,0.504 0.864,-0.313 1.418,-0.803 1.418,-1.255 0,-1.407 -0.867,-3.016 -1.75,-3.247 -0.674,-0.176 -0.75,-0.318 -0.315,-0.594 1.142,-0.724 2.5,-0.4 3.01,0.719 0.445,0.978 0.666,1.063 2.126,0.817 1.32,-0.223 1.63,-0.147 1.63,0.404 0,0.502 -0.428,0.677 -1.66,0.677 -1.286,0 -1.708,0.188 -1.877,0.835 -0.194,0.744 0.04,0.848 2.16,0.962 1.425,0.076 2.449,0.34 2.554,0.66 0.13,0.394 -0.62,0.535 -2.85,0.535 -1.665,0 -3.028,0.096 -3.028,0.214 0,0.117 0.364,0.576 0.809,1.02 0.624,0.626 1.227,0.762 2.67,0.604 2.185,-0.238 4.214,0.423 4.214,1.376 0,0.539 -0.303,0.614 -1.543,0.381 -1.54,-0.289 -1.54,-0.286 -1.254,1.018 0.477,2.172 -0.706,3.819 -3.75,5.23 -1.453,0.67 -3.218,1.35 -3.923,1.506 -0.971,0.215 -0.66,-0.092 1.282,-1.27 z m -2.66,-4.61 1.318,-0.937 -1.226,-0.329 c -1.404,-0.375 -2.346,0.19 -2.346,1.404 0,1.051 0.64,1.013 2.254,-0.137 z m 3.947,-1.547 c -0.34,-0.34 -1.075,0.43 -0.813,0.853 0.177,0.287 0.397,0.243 0.624,-0.124 0.194,-0.312 0.278,-0.64 0.19,-0.73 z"
         fill="#4f4f4f"
         id="path68" />
      <path
         d="m 28.544,44.78 -2.28,-2.308 1.979,0.596 c 2.756,0.83 4.057,1.897 4.07,3.338 0.012,1.359 -1.442,0.733 -3.77,-1.626 z m -9.86,0.96 c 1.036,-0.543 2.076,-1.414 2.31,-1.935 0.561,-1.245 1.71,-1.002 1.71,0.363 0,1.285 -2.211,2.557 -4.447,2.558 h -1.456 z m -2.655,-4 c -1.38,-1.604 -1.333,-1.81 0.31,-1.357 1.334,0.368 5.725,0.139 5.725,-0.299 0,-0.084 -0.212,-1.137 -0.47,-2.34 -0.356,-1.66 -0.622,-2.129 -1.107,-1.942 -0.352,0.134 -1.15,0.351 -1.775,0.482 -1.082,0.224 -1.094,0.209 -0.243,-0.323 2.294,-1.436 4.128,-3.3 3.88,-3.945 -0.306,-0.798 0.188,-0.885 0.911,-0.16 0.837,0.836 0.59,1.92 -0.662,2.898 l -1.176,0.917 2.35,-0.261 c 1.293,-0.145 2.947,-0.473 3.675,-0.731 1.406,-0.499 3.59,-0.183 3.59,0.518 0,0.23 -0.538,0.42 -1.197,0.42 -1.096,0 -1.235,0.183 -1.64,2.154 l -0.44,2.156 2.813,-0.277 c 2.51,-0.247 2.903,-0.18 3.621,0.613 0.716,0.791 0.73,0.92 0.124,1.152 -0.375,0.144 -1.66,0.052 -2.857,-0.204 -2.973,-0.639 -6.056,-0.575 -9.611,0.197 -1.646,0.358 -3.476,0.755 -4.07,0.882 -0.73,0.156 -1.295,-0.022 -1.75,-0.55 z m 10.822,-2.405 c 0.181,-0.283 0.33,-1.157 0.334,-1.944 l 0.007,-1.427 -2.245,0.3 c -1.233,0.168 -2.26,0.33 -2.28,0.362 -0.022,0.032 0.049,0.897 0.155,1.921 l 0.195,1.863 1.754,-0.28 c 0.965,-0.155 1.9,-0.512 2.081,-0.795 z m -4.787,-9.416 c 0,-0.078 0.95,-0.757 2.11,-1.509 2.782,-1.803 4.3,-3.655 4.3,-5.246 0,-1.183 -0.102,-1.267 -1.39,-1.143 -1.264,0.122 -1.407,0.284 -1.602,1.81 -0.118,0.922 -0.43,1.747 -0.695,1.834 -0.708,0.232 -1.109,-1.171 -0.533,-1.866 0.562,-0.677 0.241,-1.236 -0.46,-0.802 a 0.54,0.54 0 0 0 -0.182,0.74 c 0.161,0.26 0.029,0.365 -0.314,0.245 -0.327,-0.113 -1.225,0.343 -1.997,1.013 -2.307,2.004 -4.83,1.223 -3.911,-1.21 0.562,-1.49 1.801,-1.932 3.459,-1.236 1.253,0.528 1.565,0.516 2.601,-0.097 1.316,-0.777 1.422,-1.22 0.558,-2.36 -0.49,-0.647 -0.752,-0.697 -1.515,-0.288 -1.153,0.616 -2.139,0.272 -2.139,-0.745 0,-0.426 -0.308,-1.213 -0.684,-1.751 -0.794,-1.134 -0.459,-1.74 0.598,-1.078 0.4,0.251 0.786,1.042 0.857,1.758 l 0.131,1.302 1.686,-0.662 c 1.367,-0.537 1.685,-0.875 1.685,-1.785 0,-1.394 -1.09,-3.012 -2.053,-3.048 -0.496,-0.018 -0.403,-0.155 0.299,-0.436 1.327,-0.531 2.494,-0.144 2.839,0.941 0.22,0.69 0.576,0.835 1.797,0.726 0.944,-0.084 1.595,0.068 1.707,0.398 0.127,0.368 -0.344,0.534 -1.516,0.534 -1.51,0 -2.219,0.488 -2.219,1.531 0,0.098 1.058,0.18 2.352,0.18 1.678,0 2.35,0.163 2.35,0.571 0,0.413 -0.726,0.579 -2.606,0.597 -1.432,0.013 -2.816,0.236 -3.076,0.496 -0.344,0.344 -0.289,0.471 0.205,0.471 0.372,0 0.772,0.365 0.888,0.81 0.19,0.725 0.39,0.762 1.925,0.352 2.05,-0.548 4.514,0.015 4.718,1.075 0.114,0.594 -0.122,0.668 -1.434,0.455 l -1.57,-0.254 0.292,1.333 c 0.445,2.021 -0.791,3.724 -3.786,5.222 -2.232,1.115 -3.675,1.556 -3.675,1.122 z m -1.445,-5.563 1.166,-1.002 -1.184,-0.298 c -1.361,-0.341 -2.383,0.303 -2.383,1.502 0,1.092 0.994,1.008 2.4,-0.202 z"
         fill="#2f2f2f"
         id="path70" />
      <path
         d="m 28.978,45 c -2.42,-2.256 -2.422,-2.35 -0.045,-1.69 1.828,0.507 3.599,2.246 3.24,3.182 -0.377,0.984 -0.706,0.83 -3.195,-1.491 z m -10.12,0.79 c 0.94,-0.551 1.9,-1.432 2.132,-1.956 0.698,-1.578 2.27,-0.99 1.747,0.653 -0.334,1.052 -1.62,1.755 -3.753,2.051 l -1.835,0.255 z m -2.903,-4.093 c -0.4,-0.444 -0.73,-0.9 -0.73,-1.013 0,-0.113 1.427,-0.195 3.168,-0.18 1.743,0.014 3.303,-0.108 3.467,-0.271 0.412,-0.409 -0.636,-4.617 -1.149,-4.617 -0.227,0 -0.802,0.208 -1.276,0.462 -1.656,0.886 -1.19,0.11 0.758,-1.263 1.08,-0.76 2.063,-1.765 2.185,-2.232 0.28,-1.068 1.137,-0.827 1.315,0.368 0.086,0.59 -0.246,1.15 -0.958,1.617 -1.741,1.14 -0.911,1.422 2.207,0.75 3.817,-0.82 5.334,-0.885 5.556,-0.237 0.114,0.332 -0.214,0.535 -0.865,0.535 -0.85,0 -1.092,0.263 -1.28,1.39 -0.13,0.763 -0.376,1.747 -0.549,2.185 -0.296,0.749 -0.132,0.78 2.645,0.5 2.657,-0.266 3.04,-0.206 3.755,0.583 0.725,0.802 0.733,0.903 0.089,1.15 -0.389,0.15 -1.558,0.058 -2.597,-0.204 -3.399,-0.856 -7.923,-0.529 -13.925,1.004 -0.776,0.197 -1.295,0.047 -1.816,-0.528 z m 10.093,-1.779 c 0.834,-0.318 1.084,-0.763 1.219,-2.184 l 0.17,-1.787 -2.344,0.276 c -1.29,0.151 -2.371,0.317 -2.405,0.369 -0.033,0.051 0.026,0.91 0.13,1.909 0.163,1.562 0.33,1.815 1.186,1.815 0.547,0 1.467,-0.179 2.044,-0.398 z M 23.993,28.612 c 2.925,-1.989 4.346,-3.636 4.574,-5.303 0.19,-1.388 0.167,-1.409 -1.34,-1.282 -1.434,0.12 -1.54,0.23 -1.664,1.73 -0.15,1.82 -0.556,1.982 -1.815,0.725 l -0.877,-0.878 -1.488,1.305 c -2.43,2.135 -4.499,1.562 -3.84,-1.064 0.35,-1.392 1.26,-1.725 3.26,-1.191 1.203,0.321 1.874,0.282 2.712,-0.157 1.241,-0.651 1.386,-1.3 0.545,-2.451 -0.478,-0.654 -0.72,-0.696 -1.53,-0.262 -1.288,0.689 -2.175,0.28 -2.175,-1.004 0,-0.578 -0.28,-1.33 -0.622,-1.672 -0.798,-0.798 -0.36,-1.247 0.677,-0.692 0.505,0.27 0.799,0.894 0.799,1.694 0,1.485 -0.037,1.475 1.91,0.547 1.072,-0.512 1.508,-1 1.508,-1.689 0,-1.382 -0.854,-3.074 -1.661,-3.29 -0.379,-0.102 0.033,-0.207 0.914,-0.234 1.355,-0.041 1.602,0.088 1.602,0.843 0,0.782 0.215,0.873 1.778,0.747 1.222,-0.099 1.839,0.039 1.974,0.44 0.153,0.447 -0.212,0.545 -1.563,0.416 -0.968,-0.092 -1.761,-0.034 -1.761,0.13 0,0.163 -0.113,0.59 -0.25,0.948 -0.203,0.525 0.187,0.678 1.995,0.783 1.448,0.084 2.316,0.342 2.443,0.725 0.147,0.446 -0.075,0.527 -0.886,0.323 -1.335,-0.335 -5.012,0.132 -5.012,0.636 0,0.203 0.267,0.37 0.592,0.37 0.325,0 0.686,0.363 0.802,0.807 0.19,0.726 0.404,0.764 2.117,0.371 1.468,-0.336 2.187,-0.3 3.12,0.154 1.82,0.886 1.862,1.666 0.074,1.376 l -1.47,-0.239 0.045,1.737 c 0.06,2.238 -1.548,4.002 -4.734,5.194 -3.122,1.168 -3.225,1.087 -0.754,-0.593 z m -3.421,-4.186 c 1.097,-0.863 1.126,-0.959 0.378,-1.252 -1.412,-0.555 -2.262,-0.404 -2.737,0.486 -0.955,1.783 0.476,2.247 2.359,0.765 z m 4.055,-0.989 a 0.642,0.642 0 0 0 -0.64,-0.64 c -0.668,0 -0.848,0.504 -0.356,0.996 0.49,0.492 0.997,0.311 0.997,-0.356 z"
         fill="#040404"
         id="path72" />
    </g>
  </g>
</svg>
