<svg xmlns="http://www.w3.org/2000/svg" viewBox="0 0 60 60"><defs><filter id="a" color-interpolation-filters="sRGB"><feFlood flood-opacity=".498" flood-color="#000" result="flood"/><feComposite in="flood" in2="SourceGraphic" operator="in" result="composite1"/><feGaussianBlur in="composite1" stdDeviation="1" result="blur"/><feOffset dx="5" dy="3" result="offset"/><feComposite in="SourceGraphic" in2="offset" result="composite2"/></filter></defs><g opacity=".99"><g filter="url(#a)" transform="matrix(.63 0 0 .62998 5.385 -169.645)"><path d="m39.028 352.22 22.856-7.654 10.258-66.757H6l10.264 66.786z" fill="#feec99"/><path d="M16.264 348.374v-3.78l22.764 7.626 22.856-7.654v3.78L39.028 356z" fill="#c3983c" fill-opacity=".992"/></g><g opacity=".99"><path d="M22.613 10.024c.624.78 1.95 1.797 2.945 2.258l1.813.837-2.848.116-2.846.115v1.504c0 .828.102 2.017.227 2.642.212 1.062.334 1.128 1.865 1.014.9-.068 2.026-.206 2.502-.305l.863-.181-.977-.977c-.81-.81-.903-1.115-.545-1.783.55-1.03 1.942-1.556 4.117-1.556 2.31 0 2.539.594.492 1.276-1.706.568-2.151 1.228-1.505 2.234.297.463.698.486 2.232.136 2.243-.513 3.519-.127 4.149 1.257.59 1.293.227 1.599-1.198 1.008-1.18-.489-2.898-.399-8.59.449-2.604.387-3.344.748-2.546 1.242.165.102 1.232-.057 2.372-.352 1.138-.296 2.284-.472 2.546-.392a29.89 29.89 90 0 0 1.633.401c1.51.335.79.81-2.14 1.41-2.487.51-5.105 1.842-5.105 2.596 0 .74.454.65 2.748-.538 1.559-.81 2.188-.96 2.687-.641.513.327.928.175 1.947-.715 1.052-.92 1.438-1.055 2.062-.721 1.23.658.906 1.578-1.295 3.675-1.818 1.73-1.963 1.98-1.227 2.105.46.078 1.241.574 1.737 1.103l.903.96-2.13.01c-1.273.005-2.826.323-3.859.792-1.914.87-2.963.73-3.61-.477-.616-1.153-.035-1.535 2.712-1.783 2.28-.208 2.373-.258 2.344-1.285-.016-.588.095-1.272.248-1.519.406-.658-1.04-.563-1.952.127-1.594 1.205-5.67.373-5.67-1.158 0-.295.457-1.08 1.016-1.744.805-.958.885-1.21.38-1.21-.35 0-.746-.283-.879-.63-.197-.515-.604-.584-2.192-.374-2.164.288-3.43-.4-3.43-1.858 0-.723.18-.761 2.526-.52l2.528.258-.368-1.281c-.539-1.878-.464-7.906.104-8.474.856-.856 2.057-.501 3.214.949zm17.818 1.21c.704 1.213 1.191 2.296 1.082 2.404-.168.167-.676-.03-2.62-1.018-.297-.15-.916 5.74-.633 6.022.103.102.875-.127 1.717-.509 1.364-.619 1.536-.855 1.575-2.152.053-1.784 1.08-3.45 2.126-3.45 1.008 0 1.008 1.216 0 3.436-.727 1.602-.728 1.668-.038 1.668.831 0 1.383.594 1.792 1.923.261.85.199.915-.64.671-2.356-.682-3.494-.69-5.213-.034-1.283.49-1.801.908-1.801 1.449 0 .739.03.737 1.035-.053 1.31-1.03 3.056-1.042 4.07-.028 1.198 1.198.987 1.644-.633 1.34l-1.418-.266.276 1.72c.151.947.525 1.918.829 2.157.813.642.677.939-.428.939-.54 0-1.336-.354-1.767-.785-.433-.432-.787-1.228-.787-1.768 0-1.068-.033-1.095-.95-.743-.888.34-.792 2.435.149 3.233.422.359.888 1.157 1.035 1.775.262 1.102.242 1.117-1.063.841-2.82-.597-3.727-2.667-2.676-6.09.232-.754.567-3.934.746-7.066.179-3.131.548-6.18.82-6.774.812-1.77 1.94-1.388 3.415 1.156zm-2.02 21.71c1.139.46 2.621 2.407 2.174 2.854-.214.214-.965.189-1.877-.064-.836-.233-2.536-.424-3.777-.426l-2.259-.001v3.57l1.276-.227c.901-.16 1.653.006 2.553.565 1.91 1.185 1.584 1.59-1.276 1.59h-2.553v1.398c0 .864.156 1.301.407 1.145.788-.486 3.484.276 4.473 1.266 1.102 1.102.998 1.919-.165 1.297-1.134-.607-6.684-.467-9.027.229-2.283.678-3.935.334-3.935-.82 0-.737 1.172-1.249 3.563-1.56 1.729-.225 1.789-.277 1.624-1.403-.205-1.397-.624-1.727-1.538-1.215-.729.407-2.864-.426-2.864-1.119 0-.531 1.513-1.264 1.994-.967.224.138.82.149 1.323.022.704-.177.955-.561 1.083-1.656l.167-1.427-3.298.269c-3.627.294-5.195-.235-5.195-1.752 0-.742.266-.775 5.793-.732 4.449.035 6.19-.1 7.51-.588 1.9-.7 2.594-.747 3.823-.249zm-15.994 5.36c.456.32.83.776.83 1.013 0 .237.456 1.03 1.014 1.76l1.014 1.33-1.113-.266c-1.535-.369-2.147-.719-3.184-1.828-1.44-1.54-.255-3.195 1.439-2.009z" fill="#d0d0d0"/><path d="M22.564 10.154c.704.995 1.601 1.698 2.554 2.002 2.537.811 2.353 1.16-.615 1.16h-2.826l.005 1.865c.01 3.347.205 3.637 2.295 3.398 1.002-.115 2.264-.301 2.805-.413l.982-.205-1.08-.567c-1.62-.853-1.482-2.38.281-3.116 1.515-.633 3.655-.737 4.476-.218.383.242.05.5-1.179.91-1.532.51-1.718.704-1.753 1.834-.028.947.103 1.21.526 1.046 1.143-.439 3.628-.695 4.533-.468.875.22 2.12 2.081 1.684 2.517-.109.11-.732-.023-1.385-.293-1.8-.746-11.605.396-11.286 1.313.086.246.58.399 1.098.34l2.99-.342c2.318-.266 3.859.077 2.862.636-.324.182-1.716.622-3.094.98-2.79.722-4.368 1.594-4.368 2.413 0 .744.542.684 2.407-.268.875-.446 2.094-.758 2.71-.694.745.078 1.44-.185 2.085-.792 1.09-1.023 2.733-1.024 2.927-.003.07.366-.78 1.549-1.96 2.727-1.797 1.796-1.974 2.104-1.297 2.243.874.18 2.16 1.197 2.16 1.71 0 .183-.88.333-1.956.333-1.075 0-2.665.283-3.534.631-1.763.706-3.326.497-3.707-.497-.378-.985.154-1.282 2.788-1.557l2.393-.25.216-1.611c.119-.885.156-1.67.083-1.744-.074-.072-.85.234-1.727.68-1.737.886-3.6 1.044-4.79.407-.991-.529-.999-2.398-.015-3.288.73-.662.729-.693-.098-1.54-.754-.772-1.045-.827-2.718-.51-1.574.298-1.998.242-2.65-.35-.428-.387-.779-1.05-.779-1.474 0-.712.188-.75 2.518-.5l2.517.27-.347-1.501c-.48-2.066-.455-7.082.04-8.005.666-1.246 2.024-.914 3.23.79zm17.511.832c1.765 2.84 1.664 3.36-.371 1.91l-1.14-.812-.022.91c-.01.501-.152 2.103-.314 3.561-.162 1.458-.197 2.643-.078 2.634.12-.01.923-.408 1.787-.884 1.377-.76 1.583-1.055 1.665-2.4.107-1.75 1.017-3.374 1.891-3.374 1 0 1.092 1.113.258 3.12l-.796 1.917.907.227c.555.14 1.07.701 1.332 1.454.407 1.165.385 1.211-.45.943-2.023-.649-3.552-.654-5.22-.016-1.22.465-1.746.89-1.746 1.413 0 .728.032.728 1.276-.03 1.672-1.022 2.716-.986 3.76.127 1.15 1.225 1.092 1.348-.618 1.296-1.41-.043-1.468.005-1.352 1.133.068.648.471 1.663.896 2.259l.773 1.079h-.993c-1.27 0-2.565-1.288-2.565-2.553 0-.72-.208-.981-.784-.981-.655 0-.786.261-.786 1.57 0 .865.186 1.572.413 1.572.426 0 1.722 2.707 1.434 2.995-.45.45-3.257-.948-3.78-1.883-.525-.938-.514-1.41.114-4.516.384-1.908.828-5.706.985-8.44.389-6.755 1.285-7.832 3.524-4.231zm-1.242 22.338c.687.42 1.46 1.153 1.715 1.63.455.852.43.862-1.448.611-2.848-.38-2.954-.387-4.76-.32l-1.668.062v1.795c0 1.622.086 1.789.884 1.724 1.69-.137 2.22.02 3.317.984l1.1.97-2.65.012-2.65.012v1.322c0 1.283.044 1.32 1.6 1.32 1.738 0 3.609 1.095 3.834 2.244.111.567.004.609-.662.252-1.144-.612-7-.515-9.204.153-1.856.564-3.816.303-3.816-.507 0-.764 1.522-1.641 2.846-1.641 2.195 0 2.512-.244 2.332-1.788-.155-1.33-.202-1.366-1.507-1.121-.994.187-1.545.073-2.107-.435-1.013-.917-.65-1.368 1.11-1.375 1.869-.007 2.251-.294 2.568-1.918l.26-1.334-3.181.245c-3.564.274-5.462-.316-5.462-1.7 0-.728.293-.762 5.988-.705 4.842.05 6.28-.065 7.51-.598 1.943-.844 2.519-.829 4.05.106zm-15.6 6.276c.434.85.968 1.655 1.187 1.79 1.03.637.235.927-1.06.387-1.97-.822-2.861-1.696-2.861-2.8 0-.718.213-.921.973-.921.738 0 1.165.374 1.761 1.544z" fill="#b0b0b0"/><path d="M22.347 10.023c.603.78 1.98 1.83 3.06 2.334l1.964.914-2.848.022-2.846.023v2.127c0 3.302.08 3.389 2.885 3.111 2.321-.23 4.445-.879 2.967-.907-.792-.014-1.926-1.246-1.926-2.09 0-.354.347-.828.77-1.054 1.207-.647 4.162-.931 4.971-.478.629.352.468.476-1.13.879-1.758.443-1.862.542-1.862 1.786 0 1.283.035 1.311 1.276 1.04 2.727-.595 4.273-.36 5.132.782.442.591.727 1.152.632 1.248-.096.094-.92-.026-1.83-.27-1.301-.346-2.638-.307-6.205.183-2.5.344-4.658.736-4.793.871-.135.135-.05.442.19.68.317.319.774.317 1.7-.005 1.498-.523 4.264-.571 5.026-.089.586.371-.874.961-3.535 1.43-1.814.318-3.875 1.56-3.875 2.334 0 .798.511.751 2.427-.227 1.005-.512 2.065-.754 2.819-.643.93.136 1.375-.036 1.936-.75.741-.942 2.388-1.25 2.833-.529.442.713-.2 1.86-1.568 2.796-.738.506-1.497 1.268-1.687 1.694-.284.634-.13.885.84 1.38 1.96.998 1.77 1.588-.511 1.588-1.106 0-2.645.264-3.42.588-1.837.768-2.623.743-3.392-.107-.957-1.058-.316-1.573 2.332-1.871l2.404-.273.218-1.616c.118-.889.156-1.676.083-1.749-.074-.073-.85.233-1.727.68-1.752.894-3.01 1.013-4.544.43-1.242-.473-1.386-2.294-.263-3.31.728-.66.724-.694-.177-1.595-.822-.822-1.097-.881-2.56-.552-1.92.43-3.506-.32-3.506-1.662 0-.762.148-.792 2.615-.528 2.46.264 2.597.236 2.316-.46-.523-1.29-.713-7.352-.266-8.495.588-1.504 1.75-1.375 3.075.34zm17.728.964c1.59 2.556 1.56 2.99-.138 1.988-1.247-.735-1.375-.749-1.387-.137-.007.371-.172 1.909-.366 3.417-.194 1.509-.298 2.797-.231 2.865.068.067.918-.265 1.892-.737 1.644-.799 1.77-.97 1.79-2.407.024-1.724.952-3.445 1.858-3.445.992 0 1.063 1.027.206 2.966-.449 1.015-.816 1.893-.816 1.95 0 .056.44.214.976.35a1.674 1.674 90 0 1 1.225 1.237c.314 1.253.045 1.529-.964.99-1.88-1.007-6.064.04-6.477 1.62-.108.411-.078.69.067.618.145-.072.922-.466 1.726-.876 1.626-.828 3.054-.505 3.78.85.343.643.23.7-1.136.57l-1.517-.144.23 1.512c.127.831.591 1.909 1.032 2.395l.802.884h-.982c-1.187 0-2.69-1.494-2.69-2.676 0-.58-.24-.858-.741-.858-1.18 0-1.32 2.52-.199 3.573.476.448.955 1.152 1.063 1.565.303 1.159-1.864 1.01-3.085-.211-1.129-1.129-1.194-2.162-.345-5.437.34-1.314.746-4.812.9-7.771.376-7.195 1.238-8.334 3.527-4.652zm-1.242 22.337c.687.42 1.445 1.125 1.682 1.569.39.73.32.807-.735.807-.641 0-1.61-.17-2.155-.376-.545-.208-1.882-.272-2.971-.142l-1.982.234v3.426h1.55c1.117 0 1.855.281 2.65 1.01l1.102 1.012-1.513-.208c-.833-.114-2.027-.106-2.651.019-.986.198-1.138.406-1.138 1.554 0 1.306.026 1.324 1.745 1.324 1.28 0 2.04.254 2.848.95 1.382 1.19 1.069 1.536-.974 1.076-1.453-.326-3.197-.22-9.549.584-1.43.18-1.856.099-2.045-.395-.35-.911 1.193-1.821 3.088-1.821.889 0 1.698-.084 1.799-.185.102-.102.111-.812.022-1.58-.16-1.357-.202-1.39-1.51-1.144-.994.187-1.545.073-2.107-.435-1.058-.959-.634-1.37 1.418-1.37 1.806 0 1.85-.04 2.31-2.12l.251-1.14-3.171.244c-2.003.155-3.522.085-4.124-.19-.991-.451-1.54-1.336-1.187-1.908.113-.183 2.809-.312 5.99-.288 4.546.034 6.153-.098 7.504-.615 2.158-.827 2.328-.822 3.853.108zm-15.757 5.984c.362.715.93 1.61 1.261 1.988.55.626.533.687-.185.687-1.35 0-3.457-1.686-3.457-2.764 0-1.582 1.563-1.524 2.382.089z" fill="#909090"/><path d="M22.411 10.11c.675.852 1.934 1.832 2.798 2.178.865.346 1.573.735 1.573.864s-1.105.175-2.454.102l-2.455-.135-.117 2.656c-.087 1.984.022 2.71.428 2.866.3.114 2.385-.086 4.633-.446 2.249-.36 4.67-.742 5.382-.849 1.422-.212 2.601.551 2.957 1.917.166.63.073.73-.45.491-1.299-.59-4.649-.595-8.26-.011-2.021.326-3.747.667-3.838.758-.09.09-.063.43.062.756.197.51.425.52 1.678.072 1.684-.6 4.345-.697 5.152-.187.41.26.096.475-1.178.806l-3.11.81c-1.724.446-3.143 1.424-3.143 2.165 0 .798.9.704 2.538-.263.917-.54 1.827-.766 2.619-.65.905.133 1.448-.056 2.134-.742 1.08-1.08 2.337-1.198 2.699-.253.182.476-.314 1.215-1.725 2.568-1.09 1.044-1.978 2.025-1.973 2.179.005.154.57.545 1.257.87 2.072.978 1.785 1.484-.95 1.666-1.36.09-3.054.411-3.761.714-1.486.633-2.641.174-2.641-1.05 0-.61.432-.803 2.454-1.09 2.24-.32 2.454-.434 2.454-1.303 0-.524.183-1.295.406-1.712.55-1.026-.325-1.015-2.267.025-3.64 1.95-6.94-.396-4.168-2.964.762-.706.872-.963.415-.963-.343 0-.88-.367-1.196-.815-.509-.727-.732-.77-2.083-.395-.832.23-1.646.422-1.808.423-.526.004-1.866-1.553-1.866-2.169 0-.505.415-.557 2.618-.332 2.47.254 2.602.226 2.322-.48-.5-1.258-.728-6.556-.345-8.013.524-1.991 1.664-2.015 3.21-.063zm17.68.9c.688 1.108 1.15 2.114 1.027 2.237-.122.123-.727-.075-1.345-.439l-1.122-.663-.22 1.665c-.121.917-.333 2.582-.47 3.703l-.25 2.036 1.994-1.055c1.756-.93 1.994-1.203 1.997-2.305.006-2.51 1.388-4.394 2.445-3.336.38.38.02 1.726-1.199 4.486-.072.163.122.296.43.296.734 0 1.862 1.261 1.862 2.083 0 .532-.18.579-1.009.265-2.874-1.095-6.846.29-6.846 2.385 0 .192.642-.088 1.43-.62 1.662-1.13 2.386-1.201 3.588-.36 1.247.874 1.079 1.352-.478 1.352-1.337 0-1.347.013-1.126 1.473.123.81.585 1.87 1.026 2.356l.802.884h-.872c-1.162 0-2.8-1.69-2.8-2.89 0-1.449-1.416-.923-1.729.64-.193.965-.04 1.428.744 2.245 1.852 1.934 1.013 3.005-1.385 1.765-1.544-.8-1.778-2.05-.973-5.207.37-1.452.797-5.026.948-7.941.386-7.463 1.258-8.71 3.53-5.056zm-8.814 3.057c.123.199-.53.614-1.45.926-1.46.494-1.657.697-1.559 1.604.088.796-.06 1.04-.625 1.04-1.046 0-2.161-1.354-1.871-2.27.376-1.183 4.915-2.254 5.505-1.3zm7.09 19.1c2.54 1.301 2.849 2.763.491 2.328-1.465-.27-6.223-.333-6.39-.084-.034.05.016.843.112 1.761.172 1.644.199 1.67 1.682 1.67 1.062 0 1.835.294 2.61.993l1.102.993-1.826-.246c-2.698-.365-3.476-.001-3.476 1.624 0 1.332.019 1.347 1.745 1.347 1.28 0 2.04.254 2.848.95 1.39 1.196 1.13 1.462-.972.99-1.53-.344-3.108-.231-9.533.68-.955.135-1.55.012-1.884-.39-.753-.908.874-1.836 3.217-1.836 1.802 0 1.908-.056 1.685-.884-.13-.486-.239-1.212-.242-1.615-.004-.625-.208-.693-1.41-.467-1.464.274-2.523-.223-2.523-1.185 0-.34.64-.56 1.853-.639 1.79-.115 1.864-.17 2.204-1.614.193-.822.27-1.574.172-1.672-.099-.1-1.56.012-3.249.246-2.808.39-3.156.363-4.086-.332-.56-.417-1.017-1.005-1.017-1.306 0-.442 1.157-.55 6.087-.565 4.87-.015 6.379-.152 7.547-.687 1.773-.813 1.785-.813 3.253-.06zm-15.442 5.942c.26.609.822 1.505 1.252 1.99.776.882.776.884-.018.884-1.356 0-3.464-1.682-3.464-2.764 0-1.483 1.612-1.562 2.23-.11z" fill="#6f6f6f"/><path d="M22.447 10.155c.676.854 1.84 1.773 2.586 2.043 2.003.724 1.648 1.159-.719.88-2.65-.311-2.972.074-2.67 3.183l.229 2.356 2.16-.08c1.188-.044 3.794-.38 5.792-.748 3.43-.633 3.673-.632 4.378.007.411.371.841 1.032.954 1.467.164.626.07.73-.451.5-1.328-.586-3.89-.647-7.567-.179-4.184.534-4.815.771-4.463 1.687.215.561.408.569 1.83.066 1.709-.602 3.585-.684 4.797-.209.594.233.343.4-1.178.79-3.28.841-5.145 1.604-5.865 2.4-.65.718-.65.778-.017 1.02.385.148 1.432-.12 2.436-.62 1.083-.541 2.164-.804 2.807-.681.763.145 1.277-.054 1.918-.745 1.005-1.085 2.287-1.236 2.642-.31.165.43-.386 1.242-1.725 2.54-1.083 1.048-1.969 2.046-1.969 2.215 0 .17.53.545 1.179.832 1.696.75 1.462 1.115-.91 1.41-1.15.144-2.583.518-3.187.831-1.402.728-2.357.723-2.968-.014-.88-1.06-.17-1.652 2.32-1.933 2.31-.262 2.388-.308 2.388-1.406 0-.624.177-1.245.393-1.378.6-.37.468-.983-.212-.983-.332 0-1.33.371-2.217.824-3.502 1.786-6.625-.562-3.993-3.002.762-.706.872-.963.415-.963-.343 0-.893-.383-1.221-.851-.55-.785-.72-.816-2.169-.381-1.663.498-2.915.106-3.36-1.053-.374-.974.167-1.177 2.56-.96l2.37.215-.308-1.724c-.496-2.78-.364-7.231.236-7.955.818-.986 1.44-.783 2.778.909zm16.992-.08a25.794 25.795 90 0 0 1.252 2.16c.804 1.22.326 1.421-1.122.471-.915-.599-.934-.585-1.153.884a120.76 120.76 0 0 0-.47 3.714l-.25 2.22 2.004-.96c1.848-.884 2.004-1.067 2.004-2.338 0-1.672.98-3.695 1.79-3.695.975 0 1.037.933.19 2.908-.95 2.214-.947 2.196-.273 2.196.693 0 1.828 1.271 1.828 2.047 0 .544-.177.55-1.62.053-1.281-.442-1.914-.465-3.042-.107-2.122.671-3.192 1.464-3.192 2.363 0 .798.005.8 1.08.042 1.712-1.205 2.772-1.395 3.848-.69 1.343.88 1.2 1.398-.388 1.398-1.338 0-1.347.012-1.124 1.472.123.81.466 1.751.76 2.093.699.808.678 1.147-.07 1.147-.95 0-2.536-1.823-2.536-2.915 0-.775-.147-.933-.687-.734-1.564.577-1.682 2.072-.294 3.72 1.655 1.968 1.105 2.861-1.134 1.841-1.662-.757-2.012-2.29-1.221-5.348.378-1.458.803-5.037.947-7.952.26-5.264.717-7.069 1.786-7.069.3 0 .79.486 1.087 1.08zm-8.395 3.963c.387.259.066.505-1.179.9-1.521.485-1.697.663-1.597 1.621.088.832-.054 1.077-.625 1.077-.796 0-2.04-1.152-2.04-1.888 0-1.152 4.272-2.494 5.44-1.71zm7.33 19.123c1.228.606 2.383 2.046 1.97 2.458-.129.13-1.03.024-2.003-.236-2.3-.615-6.2-.217-5.885.602.119.31.217 1.08.217 1.71 0 1.073.098 1.147 1.548 1.147 1.07 0 1.889.292 2.646.944l1.098.944-2.646-.213-2.646-.212v3.15l2.036.195c1.49.142 2.23.434 2.759 1.087.397.49.668.945.6 1.013-.065.066-.868-.07-1.784-.303-1.225-.31-2.518-.294-4.895.063-4.943.743-6.332.723-6.492-.09-.168-.846 1.315-1.474 3.481-1.474 1.656 0 1.676-.032 1.293-1.952-.232-1.154-.355-1.244-1.407-1.034-1.328.265-2.66-.311-2.66-1.15 0-.42.474-.576 1.744-.576 1.972 0 2.005-.03 2.397-2.122l.287-1.526-2.508.324c-3.666.474-4.642.384-5.535-.509-1.48-1.48-.644-1.725 4.926-1.443 4.646.234 5.415.177 7.61-.57 2.87-.975 2.391-.947 3.848-.227zM22.65 38.82c.142.445.728 1.368 1.302 2.05l1.045 1.242-1.147-.288c-1.841-.462-3.413-1.772-3.276-2.731.165-1.158 1.73-1.364 2.076-.274z" fill="#4f4f4f"/><path d="M22.447 10.215c.713.886 1.847 1.85 2.52 2.145 1.222.53 1.22.533-.99.548-2.634.019-2.781.237-2.429 3.61l.25 2.391 2.59-.248c1.424-.138 3.954-.537 5.62-.889 2.813-.591 3.102-.59 4.026.015 1.826 1.197 1.278 1.744-1.52 1.52-1.383-.111-3.99.007-5.793.262-4.533.642-4.723.712-4.202 1.547.397.634.593.642 2.646.108 1.976-.515 4.829-.387 4.252.191-.115.114-1.492.538-3.06.942-3.061.787-5.236 2.341-4.42 3.158.31.31 1.003.138 2.501-.621 1.34-.679 2.434-.977 3.098-.844.752.151 1.276-.054 1.962-.765 1.053-1.095 2.114-1.096 2.324-.001.091.474-.492 1.31-1.665 2.387-.992.912-1.804 1.818-1.802 2.014.001.197.576.7 1.276 1.117l1.274.76-2.112.284c-1.163.155-2.812.598-3.667.983-1.734.782-2.86.44-2.86-.866 0-.54.321-.771 1.178-.846 3.156-.278 3.638-.476 3.827-1.575.102-.59.327-1.406.501-1.816.271-.64.182-.714-.631-.522-.522.123-1.748.53-2.726.907-1.57.605-1.912.619-2.94.127-1.56-.747-1.673-1.764-.35-3.143.6-.627.888-1.14.64-1.14s-.813-.39-1.257-.865c-.737-.79-.948-.827-2.47-.414-1.543.418-1.732.382-2.63-.504-1.315-1.297-.707-1.707 2.05-1.385l2.262.265-.298-1.984c-.422-2.813-.25-7.223.307-7.896.75-.903 1.333-.68 2.718 1.043zm16.992-.14a25.794 25.795 90 0 0 1.252 2.16c.799 1.214.452 1.39-.888.452-.494-.346-.986-.542-1.093-.435-.242.243-.914 4.8-.925 6.275l-.007 1.085 1.963-.995c1.68-.851 1.963-1.16 1.963-2.141 0-2.362 1.245-4.313 2.23-3.495.386.32.327.835-.281 2.432-.92 2.419-.903 2.222-.19 2.222.606 0 2.028 1.843 1.686 2.185-.109.108-.972-.01-1.918-.262-1.53-.409-1.954-.36-3.784.428-1.635.704-2.062 1.075-2.062 1.793v.906l1.756-.98c1.567-.877 1.868-.927 2.818-.464 1.643.8 1.623 1.5-.043 1.5h-1.425l.265 1.472c.144.81.534 1.784.865 2.163.786.9.446 1.196-.82.714-1.193-.454-1.996-1.769-1.72-2.819.226-.866.235-.863-1.082-.362-1.327.505-1.338 2.055-.025 3.616 1.66 1.973 1.105 2.86-1.149 1.833-1.495-.68-1.909-2.445-1.18-5.046.33-1.188.738-4.723.904-7.855.299-5.632.741-7.46 1.803-7.46.3 0 .79.485 1.087 1.079zm-8.538 3.923c.607.153.387.345-.982.858-1.55.58-1.749.788-1.65 1.72.087.816-.056 1.06-.626 1.06-.796 0-2.04-1.152-2.04-1.888 0-1.068 3.464-2.21 5.298-1.75zm7.1 19.14c1.328.566 2.776 2.049 2.385 2.44-.146.146-1.12.047-2.164-.22-1.117-.286-2.693-.38-3.831-.23l-1.933.257.009 1.726c.01 1.71.023 1.728 1.383 1.73 1.127.003 3.928 1.207 3.928 1.688 0 .071-1.074.052-2.386-.043-1.312-.094-2.552-.007-2.754.196-.202.203-.255.931-.118 1.62.223 1.115.397 1.251 1.595 1.251 1.588 0 3.465.885 3.816 1.797.192.5.093.583-.444.359-1.387-.577-4.333-.659-6.996-.195-5.278.92-5.254.92-5.524.216-.39-1.017.34-1.439 2.893-1.67l2.347-.213-.395-1.554c-.374-1.476-.456-1.543-1.632-1.322-1.375.258-2.877-.54-2.417-1.285.154-.249 1.035-.452 1.957-.452 1.667 0 1.681-.011 2.083-1.767l.404-1.767-1.418.017c-.78.01-2.172.162-3.092.34-1.882.365-4.217-.486-4.217-1.536 0-.5.816-.57 5.498-.46 4.678.11 5.824.014 7.686-.642 1.859-.654 2.36-.697 3.338-.28zM23.239 39.87c.673.998 1.142 1.896 1.042 1.998-.102.1-.823-.121-1.603-.492-1.531-.727-2.368-1.867-2.024-2.762.397-1.034 1.353-.569 2.585 1.257z" fill="#2f2f2f"/><path d="M22.348 10.227c.818.893 2.018 1.858 2.667 2.145 1.155.51 1.135.52-1.057.536-1.23.008-2.353.206-2.497.44-.144.232-.14 1.557.008 2.945l.27 2.52 1.638-.013c1.452-.013 5.16-.593 8.764-1.372.964-.208 1.417-.085 2.061.559 1.1 1.1 1.073 1.748-.057 1.365-1.512-.51-11.46.353-11.878 1.032-.095.153.042.565.306.916.44.587.648.588 2.586.014 1.512-.447 2.457-.521 3.339-.262 1.186.348 1.132.385-1.56 1.053-3.113.772-5.261 1.902-5.261 2.766 0 1.028.667 1.022 2.963-.03 1.793-.82 2.41-.944 2.968-.595.58.362.914.23 1.904-.762.66-.66 1.42-1.127 1.69-1.038 1.095.365.661 1.547-1.25 3.409-2.21 2.152-2.448 2.776-1.059 2.776.514 0 1.134.24 1.377.534.362.435.053.574-1.675.752-1.165.12-2.693.516-3.394.88-.994.513-1.483.566-2.205.237-1.904-.868-.94-1.986 1.756-2.038 1.991-.038 2.612-.399 2.657-1.543.021-.54.172-1.291.337-1.669.236-.546.107-.685-.628-.675-.51.007-1.269.272-1.687.589-.42.318-1.578.576-2.573.576-2.858 0-3.555-1.278-1.734-3.18 1.003-1.045 1.006-1.067.197-1.323-.453-.144-.822-.522-.822-.84 0-.458-.498-.554-2.396-.464-2.157.103-2.459.019-3.033-.831l-.64-.944 2.68.215 2.68.215-.265-1.76c-.412-2.75-.28-7.605.222-8.212.68-.818.976-.696 2.6 1.077zm17.496.786c.748 1.159 1.302 2.174 1.23 2.259-.072.082-.596-.155-1.166-.529s-1.178-.529-1.351-.347c-.174.182-.44 1.875-.594 3.762l-.278 3.433 2-.88c1.851-.813 2.002-.982 2.017-2.254.018-1.708.787-3.288 1.682-3.461.85-.164.897 1.261.088 2.676-.772 1.35-.724 1.868.197 2.16.771.246 1.802 1.665 1.458 2.01-.096.096-.95-.027-1.896-.274-1.484-.388-1.995-.341-3.686.33-1.613.642-1.987.974-2.093 1.862l-.13 1.083 1.355-.837c1.602-.99 3.127-1.074 3.982-.22.866.868.787.971-.66.858l-1.276-.1.134 1.768c.073.971.316 1.987.538 2.258.3.363.203.49-.38.49-1.06 0-1.798-.975-1.798-2.377 0-1.248-.02-1.263-1.342-.91-1.293.347-1.234 2.675.099 3.91 1.375 1.275 1.323 2.297-.098 1.941-2.046-.51-2.559-1.338-2.322-3.742.117-1.188.392-2.955.612-3.927.22-.971.41-3.358.425-5.301.03-3.973.46-6.313 1.314-7.168.51-.51.741-.327 1.939 1.527zm-9.528 3.62c-2.098.686-2.447 1.016-2.184 2.063.291 1.162-.482 1.255-1.765.216-1.762-1.427.023-2.847 3.484-2.77l1.84.041zm9.11 19.514c.658.657 1.091 1.3.964 1.428-.129.128-1.027.01-1.998-.26-1.115-.313-2.564-.395-3.939-.223l-2.173.271v1.739c0 1.775.125 1.894 1.837 1.758.47-.037 1.443.253 2.16.644l1.304.712-2.64.116-2.643.115.074 1.652.072 1.651 1.875.003c1.531.002 2.075.205 2.962 1.1l1.086 1.099-1.106-.414c-1.625-.609-5.476-.504-8.522.231-2.801.676-3.92.557-3.92-.417 0-.653 2.239-1.4 4.208-1.404.83 0 1.213-.17 1.113-.493a27.46 27.46 0 0 1-.4-1.619c-.224-1.017-.373-1.107-1.515-.922-1.37.222-2.877-.557-2.441-1.261.142-.23 1.024-.42 1.96-.42 1.532 0 1.727-.107 1.959-1.08a42.184 42.185 90 0 1 .478-1.816c.208-.698.022-.722-3.52-.457-3.524.265-3.788.23-4.604-.586-1.317-1.316-.482-1.523 5.15-1.273 4.026.18 5.38.098 6.974-.424 2.856-.934 3.868-.828 5.245.55zm-16.84 4.792c.292.487.83 1.37 1.195 1.964.754 1.228.64 1.301-.85.53-1.5-.776-2.569-2.065-2.295-2.774.337-.88 1.334-.737 1.95.28z" fill="#020202"/></g></g></svg>