<svg xmlns="http://www.w3.org/2000/svg" viewBox="0 0 60 60"><defs><filter id="a" color-interpolation-filters="sRGB"><feFlood flood-opacity=".498" flood-color="#000" result="flood"/><feComposite in="flood" in2="SourceGraphic" operator="in" result="composite1"/><feGaussianBlur in="composite1" stdDeviation="1" result="blur"/><feOffset dx="5" dy="3" result="offset"/><feComposite in="SourceGraphic" in2="offset" result="composite2"/></filter></defs><g opacity=".99"><g filter="url(#a)" transform="matrix(.62999 0 0 .63 -45.53 -113.696)"><path d="m119.89 262.22 21.701-7.117 10.189-64.931H88l10.176 64.814z" fill="#feec99"/><path d="M98.176 258.766v-3.78l21.714 7.234 21.701-7.117v3.78L119.89 266z" fill="#c3983c" fill-opacity=".992"/></g><g opacity=".99"><path d="M30.539 9.33c.132.8.242 1.959.244 2.575l.004 1.12 2.161-.255c1.189-.14 2.78-.513 3.537-.83 2.184-.912 4.628-.751 5.758.378 1.55 1.55 1.25 1.835-1.666 1.574-3.59-.322-3.82-.11-3.223 2.961.264 1.354.838 3.043 1.273 3.754l.794 1.293-1.894-.108c-3.914-.221-6.365.016-6.606.64-.354.925.004 1.018 1.928.503 1.452-.388 1.96-.379 2.766.053 1.746.934 1.193 1.462-1.705 1.625-1.482.084-2.818.278-2.97.43-.154.153-.038.758.257 1.346.294.587.599 1.199.677 1.358.17.349-1.93.39-2.8.056-.363-.14-.613-.691-.613-1.357 0-1.177-.77-1.48-1.917-.755-.825.521-2.709-.601-2.73-1.627-.003-.16 1.128-.291 2.514-.291 2.306 0 2.521-.07 2.521-.817 0-.65-.179-.776-.872-.61-1.915.454-5.294.716-6.07.47-.452-.144-1.099-.797-1.437-1.454-.578-1.115-.568-1.282.155-2.59.425-.767.89-1.954 1.035-2.635l.262-1.24-2.048-.117c-1.78-.103-2.128-.26-2.644-1.194-.896-1.622-.123-1.827 3.79-1.004 1.854.39 4.373.712 5.6.716l2.23.007V12.09c0-1.427.775-4.213 1.172-4.213.152 0 .385.656.517 1.455zm1.023 5.525c-.442.287-.288.378.647.382 1.62.009 2.456.354 2.456 1.017 0 .339-.423.54-1.131.54-1.279 0-2.359.34-2.359.74 0 .147.57.201 1.268.12.913-.107 1.468.072 1.981.64.708.781.696.79-1.268 1.051-1.09.145-1.98.436-1.98.646 0 .326 4.202.074 4.567-.273.06-.058-.111-1.263-.38-2.677l-.487-2.573-1.366.006c-.751.003-1.627.175-1.948.381zm-8.139 2.7c-.25 1.483-.343 2.88-.206 3.1.268.434 4.004.558 5.018.169 1.26-.484.598-.993-.95-.732-1.688.286-2.7-.205-2.702-1.31 0-.502.41-.63 2.001-.63 1.338 0 2.06-.175 2.179-.526.131-.389-.062-.456-.74-.26-.506.146-1.21.346-1.567.445-.704.195-2.361-1.315-2.03-1.851.112-.18 1.153-.329 2.313-.329 1.16 0 2.11-.174 2.11-.388 0-.218-1.087-.388-2.486-.388h-2.485zm8.706 11.933c1.185 1.278 1.258 1.791.21 1.458-.731-.232-.776-.07-.776 2.765 0 3.22.263 3.32 1.3.5.684-1.863 1.948-3.268 3.988-4.431 1.665-.95 2.457-.57 2.392 1.149-.055 1.463-.266 1.654-1.01.91-.602-.603-2.294.606-3.335 2.384l-.736 1.257 1.593-.814c1.797-.915 2.643-.996 4.215-.395 1.053.402 1.065.436.34.97-.415.303-1.124.552-1.579.552-.453 0-1.728.268-2.833.596-2.01.597-2.443 1.22-1.682 2.42.252.397.541.378 1.448-.095.623-.325 1.656-.59 2.296-.591h1.163l-1.163.718c-1.898 1.172-2.644 2.223-2.364 3.333.2.802.106.986-.505.986-1.807 0-2.55-1.212-1.63-2.664.22-.345.1-.767-.345-1.212-.374-.374-.766-.92-.87-1.213-.3-.844-.73-.153-.957 1.535-.22 1.645.529 3.941 1.286 3.941.538 0 2.478 1.497 2.478 1.913 0 .168-1.02.399-2.265.512-1.244.112-2.816.49-3.492.84-1.502.777-2.97.243-2.654-.968.178-.68.129-.692-.63-.16-.973.681-2.434.756-2.811.146-.388-.626.586-1.107 2.256-1.113 1.346-.006 1.454-.09 1.454-1.138 0-1.95-.344-2.358-1.98-2.358-1.252 0-1.51.133-1.51.776 0 .897.008.9 1.364.385 1.383-.526 1.956-.106 1.12.818-.793.876-2.86.857-3.17-.03-.113-.325-.562-.988-.998-1.471-.725-.808-.74-.934-.174-1.5.916-.915 4.372-.828 5.68.144.838.624 1.046 1.126 1.141 2.759.065 1.098.19 1.996.278 1.996.088 0 .778-.294 1.533-.655l1.372-.654-1.21-.509c-1.195-.502-1.207-.533-.95-2.59l.26-2.082-1.475.046-1.476.047.124-1.79c.237-3.423-1.237-5.302-3.865-4.93-.844.119-.903.282-.799 2.196.072 1.356-.028 1.981-.292 1.819-.22-.137-.402-.487-.402-.778 0-.29-.449-1.063-.999-1.716s-.94-1.49-.869-1.862c.297-1.541 3.807-2.16 6.314-1.112 1.67.698 2.533 2.353 2.533 4.857 0 1.543.133 1.958.625 1.958.532 0 .609-.472.52-3.198-.167-5.15-.09-5.719.778-5.719.418 0 1.203.479 1.745 1.062zm-7.06 5.014c.907.247.859.794-.097 1.097-1.007.319-2.412-.13-2.22-.712.161-.494 1.25-.674 2.316-.385zm1.065 2.397c0 .56-1.58 1.607-2.424 1.607-.626 0-1.384-.991-1.016-1.329.425-.39 3.44-.633 3.44-.278z" fill="#cfcfcf"/><path d="M30.125 8.134c.153.249.388 1.484.52 2.745l.24 2.293 2.023-.318c1.113-.174 2.77-.58 3.683-.902 2.55-.9 4.52-.766 5.672.386.535.535.873 1.136.75 1.334-.126.204-1.403.262-2.92.135-2.284-.191-2.734-.128-2.942.416-.35.913.594 5.56 1.238 6.095.297.246.54.689.54.983 0 .637-1.6.716-2.207.11-.306-.306-.642-.306-1.215 0-.436.233-1.675.424-2.756.424-1.705 0-1.964.102-1.964.775 0 .895.326.941 2.361.333 1.246-.375 1.64-.342 2.48.21 1.407.92.884 1.396-1.536 1.396-1.143 0-2.354.106-2.691.235-.776.298-.794 1.459-.032 2.092.927.769.681 1.162-.728 1.162-1.524 0-2.363-.81-2.056-1.986.205-.78.115-.813-1.569-.582-1.37.188-1.952.096-2.497-.398-1.17-1.06-.836-1.3 1.81-1.3 2.262 0 2.52-.078 2.52-.774 0-.902-.112-.914-3.366-.347-3.209.558-4.08.304-4.91-1.434-.582-1.22-.6-1.504-.131-2.047.58-.673 1.427-2.925 1.427-3.791 0-.361-.532-.524-1.715-.524-1.394 0-1.869-.193-2.521-1.021-.442-.562-.804-1.173-.804-1.357 0-.511 2.038-.401 4.522.246 1.228.32 3.417.582 4.866.582h2.632l.03-1.26c.041-1.768.901-4.466 1.246-3.911zm1.05 6.721c0 .214.59.388 1.31.388 1.409 0 2.711 1.001 1.739 1.336-.291.1-1.039.234-1.662.296-.623.062-1.205.33-1.292.594-.113.345.18.414 1.036.242 1.14-.227 2.359.313 2.359 1.045 0 .174-.786.435-1.746.578-1.171.176-1.744.452-1.744.842 0 .33.227.49.533.374.291-.112 1.339-.325 2.325-.473 2.002-.3 1.975-.234 1.33-3.356l-.466-2.253h-1.86c-1.024 0-1.862.175-1.862.387zm-7.61 1.455c-.152.799-.29 2.152-.307 3.005l-.031 1.55h2.682c1.914 0 2.732-.15 2.857-.526.138-.415-.166-.469-1.435-.255-1.684.285-2.747-.181-2.747-1.205 0-.388.58-.534 2.132-.534 1.645 0 2.133-.135 2.133-.586 0-.467-.316-.536-1.55-.339-1.646.263-2.715-.25-2.715-1.303 0-.428.283-.527 1.066-.373 1.289.254 3.2-.072 3.2-.546 0-.188-1.128-.343-2.504-.343h-2.503zm8.04 12.78c1.508 1.817 1.54 1.918.628 1.886-.808-.027-.871.155-.979 2.819-.085 2.116.008 2.81.36 2.691.581-.193.997-.942 1.283-2.312.309-1.477 1.836-3.144 3.868-4.223 1.262-.669 1.87-.811 2.173-.508.597.596.047 2.577-.643 2.312-.886-.34-2.433.595-3.296 1.993-.446.72-.745 1.374-.667 1.453.079.08.84-.185 1.692-.589 1.87-.884 2.898-.939 3.897-.208.984.718.727.917-1.796 1.387-3.888.724-4.875 1.496-3.894 3.044.273.43.539.413 1.526-.098.657-.34 1.585-.618 2.06-.618.75 0 .644.189-.792 1.419-1.431 1.224-1.627 1.572-1.432 2.545.206 1.036.144 1.117-.797 1.005-1.4-.168-2.027-1.226-1.36-2.294.443-.71.41-.913-.253-1.531-.422-.392-.837-.928-.925-1.19-.087-.264-.367-.35-.621-.194-.559.346-.622 3.973-.074 4.311.657.406.428 1.357-.328 1.357-1.352 0-2.026-1.243-1.753-3.232l.248-1.81-1.169.234c-1.483.296-1.705-.076-1.782-2.999-.076-2.846-1.047-3.938-3.328-3.747-1.384.117-1.387.121-1.363 1.958.014 1.013-.027 1.842-.09 1.842-.061 0-.468-.698-.904-1.551-.435-.853-.962-1.55-1.17-1.55-.21 0-.38-.359-.38-.796 0-.913 2.025-1.933 3.767-1.897 3.284.066 5.15 2.058 5.15 5.497 0 1.365.148 1.847.569 1.847.46 0 .59-.834.678-4.356.09-3.584.218-4.379.716-4.474.332-.064.863.196 1.18.577zm-6.536 5.412c.966.262.838.778-.26 1.054-1.138.286-2.25-.084-2.053-.683.158-.481 1.257-.657 2.313-.37zm1.065 2.427c0 .59-2.186 1.607-2.882 1.34-.643-.247-.8-.77-.316-1.046.76-.433 3.198-.657 3.198-.294zm1.301 3.692c.82.76 1.026 1.305 1.026 2.714 0 .97.175 1.763.389 1.763.215 0 1.04-.349 1.836-.775 1.806-.968 2.082-.966 3.345.027 1.43 1.126 1.284 1.42-.733 1.46-.965.02-2.563.393-3.55.83-1.694.75-1.838.757-2.525.135-.4-.362-.646-.87-.547-1.13.132-.342-.107-.323-.859.07-1.463.762-2.483.705-2.325-.132.094-.493.572-.71 1.74-.796 1.788-.131 2.163-.624 1.724-2.273-.252-.952-.505-1.115-1.878-1.217-1.514-.112-1.6-.058-1.868 1.164-.28 1.275-.283 1.275-.632.31-.193-.532-.649-1.197-1.014-1.477-.621-.476-.616-.544.09-1.066.425-.316 1.62-.558 2.754-.558 1.587 0 2.214.197 3.027.951zm-1.634 2.552c-1.027.855-1.816.973-2.214.33-.364-.589.563-1.109 1.967-1.1l1.162.007-.916.763z" fill="#b0b0b0"/><path d="M30.539 9.718c.132.8.242 1.923.244 2.496.004.985.083 1.03 1.459.815.799-.124 2.325-.48 3.392-.79 3.448-1.005 5.312-1.037 6.3-.11 1.518 1.423 1.151 1.924-1.226 1.679-1.153-.12-2.527-.109-3.052.022l-.953.24.571 2.816c.315 1.549.816 3.091 1.114 3.428.914 1.032.675 1.645-.525 1.347-1.103-.273-1.795-.282-3.78-.053a37.15 37.15 0 0 1-2.23.18c-.792.035-1.066.246-1.066.822 0 .895.326.941 2.361.333 1.246-.375 1.64-.342 2.48.21 1.426.933.928 1.318-1.712 1.318-1.266 0-2.488.115-2.715.255-.592.367-.51 1.61.15 2.269.703.704.388 1.043-.969 1.043-1.378 0-2.023-.815-1.69-2.138.225-.903.16-1.02-.469-.83-2.368.706-2.916.714-3.645.054-1.11-1.004-.605-1.351 1.968-1.351 2.045 0 2.303-.087 2.303-.775 0-.907-.264-.927-3.839-.314-2.995.513-3.486.33-4.533-1.695-.516-.997-.498-1.191.198-2.16.421-.586.882-1.72 1.024-2.52l.257-1.454h-1.76c-1.445 0-1.905-.184-2.574-1.036-1.215-1.544-.52-1.956 2.215-1.316 1.224.288 3.73.602 5.57.699l3.342.176.266-1.878c.51-3.61 1.106-4.307 1.524-1.782zm.709 4.973c-.875.273-.141.846.844.657 1.079-.206 2.703.534 2.367 1.078-.126.203-.916.368-1.756.368-1.088 0-1.528.165-1.528.573 0 .428.291.513 1.162.339 1.097-.22 2.328.327 2.328 1.032 0 .165-.815.45-1.81.631-.996.184-1.889.57-1.985.86-.14.42.168.464 1.519.217.932-.17 2.086-.32 2.567-.333 1.01-.027 1.028-.186.404-3.475l-.466-2.463-1.569.179c-.862.097-1.798.25-2.077.337zm-7.608 1.037c-.904 4.293-.917 4.566-.228 5.05 1.012.71 5.437.397 5.437-.386 0-.47-.3-.549-1.412-.368-1.571.255-2.853-.244-2.853-1.11 0-.432.518-.569 2.132-.569 1.69 0 2.133-.127 2.133-.616 0-.504-.283-.567-1.565-.35-1.645.277-2.7-.204-2.7-1.23 0-.42.321-.493 1.323-.305 1.438.27 2.942-.05 2.942-.627 0-.199-1.131-.362-2.514-.362-2.291 0-2.528.077-2.695.873zm8.305 13.745.859 1.086-.815.123c-.744.113-.814.376-.814 3.034 0 2.552.083 2.893.673 2.78.431-.084.753-.626.898-1.517.31-1.91 1.59-3.573 3.705-4.812 1.508-.884 1.87-.965 2.315-.52.746.745.294 2.23-.606 1.995-.386-.102-1.165.12-1.731.49-1.017.666-2.382 2.785-2.025 3.142.102.102.928-.194 1.834-.656 1.277-.651 1.913-.766 2.818-.506 1.952.56 1.618 1.154-.93 1.655-3.499.689-4.29 1.131-4.155 2.325.146 1.3-.554 1.634-1.05.502-.213-.485-.65-.833-.97-.772-.76.144-1.002 3.221-.348 4.441.644 1.206.145 1.587-1.128.862-.954-.543-1.034-.768-.92-2.602l.124-2.008-1.143.229c-1.455.29-1.68-.092-1.757-3.005-.076-2.845-1.047-3.937-3.328-3.746-1.329.111-1.397.191-1.62 1.86-.128.961-.259 1.466-.29 1.124-.033-.342-.504-1.102-1.048-1.69-.545-.587-.935-1.354-.867-1.704.175-.913 2.838-1.681 4.804-1.386 2.785.418 4.03 2.151 4.03 5.609 0 1.512.117 1.856.57 1.683.444-.17.593-1.17.68-4.54.09-3.638.208-4.339.742-4.441.35-.068 1.021.367 1.493.964zm-7.07 5.043c1.17.224 1.104.746-.135 1.057-1.043.262-2.252-.375-1.873-.987.217-.353.492-.362 2.008-.07zm1.09 2.48c.274.444-1.151 1.123-2.357 1.123-1.535 0-.973-.923.73-1.2.79-.129 1.522-.094 1.628.076zm11.496 1.953c-1.423.91-2.637 2.86-2.02 3.242.692.427.409.968-.505.968-1.04 0-1.823-.667-1.823-1.556 0-1.29 3.151-3.496 4.97-3.478.42.005.199.298-.622.824zm-10.745 1.169c1.296.709 1.745 1.56 1.745 3.31 0 .918.17 1.67.377 1.67.208 0 1.167-.383 2.132-.852l1.754-.853 1.042.78c1.598 1.193 1.457 1.498-.742 1.607-1.114.054-2.677.423-3.477.818-1.25.619-1.56.645-2.209.192-.65-.456-.7-.721-.366-1.93.72-2.61-.314-4.168-2.493-3.751-.727.139-1.144.513-1.31 1.176-.225.898-.274.915-.626.245-.21-.4-.665-.956-1.012-1.236-.577-.465-.566-.557.122-1.066.882-.654 3.948-.72 5.063-.11zm-.194 2.45c0 .103-.411.456-.914.785-1.11.727-2.45.398-1.762-.433.406-.488 2.676-.786 2.676-.35zm0 2.483c0 .188-.532.562-1.185.831-.913.379-1.289.386-1.644.031s-.327-.544.119-.825c.732-.463 2.711-.49 2.711-.036z" fill="#8f8f8f"/><path d="M30.095 8.475c.153.154.393 1.302.534 2.552l.258 2.27 1.598-.243c.879-.134 2.645-.566 3.924-.96 1.28-.396 2.783-.72 3.34-.723 1.026-.005 3.057 1.3 3.057 1.962 0 .197-1.298.359-2.884.359-1.587 0-2.97.136-3.072.303-.32.518.906 5.634 1.508 6.3.946 1.045.718 1.668-.495 1.358-1.25-.32-3.126-.318-5.427 0-1.335.186-1.649.382-1.649 1.032 0 .72.15.772 1.455.513 2.186-.433 3.223-.343 3.908.343.34.341.451.632.246.648-.207.016-1.365.085-2.576.153-1.21.07-2.388.243-2.617.383-.593.368-.513 1.61.147 2.27.704.704.389 1.043-.968 1.043-1.358 0-2.022-.817-1.702-2.095.288-1.148.219-1.17-1.81-.561-1.607.482-2.674.036-2.674-1.118 0-.448.3-.52 1.334-.327 1.863.35 3.32-.08 3.32-.981 0-.87-.933-.942-3.904-.304-2.425.52-3.547.12-4.425-1.578-.573-1.108-.561-1.248.186-2.258.438-.593.902-1.727 1.03-2.52l.234-1.44h-1.767c-1.445 0-1.912-.185-2.566-1.015-1.404-1.787-.459-2.103 3.325-1.118 1.228.32 3.497.582 5.042.582h2.808l.23-1.454c.388-2.466.763-3.668 1.052-3.376zm1.176 6.207c-1.051.323-.463 1.006.656.76 1.115-.244 3.035.408 2.57.874-.13.129-.959.332-1.843.454-.885.12-1.69.463-1.79.762-.14.422.097.487 1.066.293 1.238-.247 2.735.237 2.735.885 0 .185-.873.458-1.94.605-1.324.182-1.938.446-1.938.835 0 .46.352.515 1.842.284 1.013-.156 2.147-.265 2.52-.241.817.05.86-.728.215-3.852l-.464-2.246-1.571.22c-.865.12-1.79.285-2.057.367zM23.19 17.57c-.402 2.194-.382 2.612.157 3.22.458.518.978.647 1.995.5.756-.11 1.854-.207 2.44-.216.722-.009 1.067-.219 1.067-.645 0-.517-.275-.587-1.523-.388-1.117.18-1.685.08-2.132-.365-1.033-1.033-.694-1.33 1.522-1.33 1.69 0 2.133-.127 2.133-.616 0-.504-.283-.567-1.565-.35-1.62.273-2.7-.201-2.7-1.186 0-.381.524-.451 2.132-.286 1.829.188 2.133.127 2.133-.433s-.375-.637-2.599-.539l-2.599.114zm8.6 11.894c.991 1.066.997 1.099.202 1.22-.752.113-.817.369-.817 3.211 0 2.97.03 3.073.776 2.674.426-.228.775-.764.775-1.192 0-1.494 1.498-3.658 3.432-4.956 2.154-1.445 2.772-1.356 2.772.403 0 .932-.11 1.097-.506.769-.371-.31-.827-.225-1.726.323-1.153.7-2.694 2.959-2.294 3.36.102.1.928-.195 1.834-.657 1.277-.651 1.913-.766 2.818-.506 1.895.544 1.601 1.123-.796 1.576-3.827.724-4.484 1.099-4.285 2.454.135.914.037 1.146-.441 1.055-.338-.064-.67-.507-.738-.984-.104-.728-.245-.803-.872-.467-.571.305-.749.818-.749 2.157 0 .966.189 2.11.42 2.54.585 1.095.113 1.384-1.12.686-.963-.545-1.034-.753-.907-2.659.132-2.006.11-2.06-.779-1.837-1.42.355-1.765-.129-1.949-2.73-.22-3.087-.96-3.987-3.286-3.987H21.87l-.015 1.84-.015 1.843-.55-1.266c-.303-.696-.82-1.37-1.149-1.495-.879-.338-.727-1.601.256-2.128 1.293-.691 4.758-.57 5.947.21 1.294.848 2.117 2.808 2.117 5.042 0 1.375.12 1.698.57 1.526.443-.17.592-1.167.678-4.511.121-4.78.425-5.293 2.08-3.514zm-7.303 5.08c1.12.18 1.121.707.003.999-.983.257-2.312-.674-1.39-.974.283-.092.907-.104 1.387-.026zm1.067 3.007c-.827.642-2.714.634-2.714-.013 0-.212.784-.432 1.744-.488 1.644-.095 1.7-.066.97.501zm11.737 1.505c-1.75 1.233-2.499 2.449-1.887 3.061.674.673.497 1.043-.498 1.043-.507 0-1.153-.278-1.435-.618-1.032-1.243 1.318-3.807 3.908-4.265l1.357-.24-1.445 1.019zm-10.575 1.083c1.28.734 1.72 1.577 1.733 3.313.007.906.168 1.647.357 1.647.19 0 1.08-.328 1.975-.73 1.81-.81 2.732-.716 3.725.381.642.71.62.736-.57.736-.679 0-2.3.36-3.6.797-3.205 1.08-3.58.885-3.256-1.703.212-1.702.128-2.22-.483-2.975-.65-.802-.9-.869-2.04-.542-.884.254-1.385.68-1.567 1.332-.147.528-.285.74-.306.474-.021-.265-.381-.827-.8-1.246-.685-.685-.702-.821-.167-1.356.708-.708 3.848-.788 5-.128zm-.386 2.632c-.451.73-1.576 1.122-2.154.75-.487-.313-.485-.411.02-.742.761-.5 2.442-.507 2.134-.008zm.192 2.23c0 .673-2.302 1.44-2.806.936-.585-.585-.276-.827 1.401-1.099.838-.136 1.405-.07 1.405.163z" fill="#6f6f6f"/><path d="M30.128 8.529c.107.174.32 1.328.474 2.563l.279 2.246 1.795-.256c.988-.14 2.748-.584 3.914-.985 1.165-.403 2.581-.731 3.146-.731 1.038 0 3.07 1.302 3.07 1.966 0 .198-1.298.36-2.884.36-1.587 0-2.974.144-3.082.32-.326.527.826 5.37 1.535 6.453.804 1.227.549 1.562-.882 1.153-1.126-.321-3.794-.288-5.64.071-.749.146-1.066.444-1.066 1.003 0 .71.156.765 1.455.516 2.089-.401 3.287-.287 3.949.374.512.513.404.58-.959.583a22.867 22.868 0 0 0-3.026.25c-1.347.223-1.473.344-1.315 1.257.096.555.305 1.315.465 1.687.225.527.102.68-.552.68-1.608 0-2.342-.684-2.09-1.947.257-1.282-.381-1.529-1.878-.727-.986.527-2.64-.112-2.64-1.02 0-.484.276-.556 1.355-.353 1.911.36 3.298-.063 3.298-1.002 0-.916-1.22-1.009-4.21-.319-1.667.385-2.085.357-2.932-.199-1.416-.927-1.618-2.243-.652-4.24 1.156-2.387 1.074-3.258-.338-3.569-.635-.139-1.305-.16-1.488-.046-.55.34-2.011-.912-2.011-1.722 0-.914.535-.937 3.55-.156 1.39.36 3.491.553 5.29.485l2.985-.113.24-2.244c.243-2.255.485-2.925.845-2.338zm1.58 5.939c-.557 0-.92.228-.92.579 0 .427.408.563 1.564.517 2.19-.085 2.887.709.91 1.04-2.127.354-2.475.495-2.475.998 0 .28.46.373 1.26.251 1.27-.192 2.618.242 2.618.844 0 .178-.873.44-1.94.58-1.409.188-1.938.427-1.938.877 0 .5.281.573 1.455.379.799-.133 1.933-.242 2.52-.245 1.25-.005 1.32-.475.594-3.986-.463-2.241-.494-2.28-1.6-2.06-.62.124-1.541.226-2.048.226zm-8.574 2.978c-.485 2.833-.364 3.477.715 3.82 1.326.42 5-.229 5-.884 0-.46-.331-.544-1.527-.383-1.142.152-1.68.036-2.133-.464-.925-1.024-.776-1.142 1.594-1.267 1.463-.078 2.258-.3 2.379-.66.144-.44-.18-.496-1.675-.292-1.872.257-2.903-.129-2.903-1.086 0-.33.617-.418 2.083-.296 1.29.107 2.183.009 2.348-.259.507-.819-.099-1.013-2.768-.888l-2.678.126-.434 2.532zm8.655 12.017c.992 1.066.998 1.099.203 1.22-.752.113-.817.369-.817 3.211 0 2.97.03 3.073.776 2.674.426-.228.775-.77.775-1.202 0-2.168 3.5-5.776 5.602-5.776.415 0 .602.375.602 1.21 0 .951-.109 1.12-.506.792-.71-.59-2.77.724-3.575 2.28-.346.67-.557 1.29-.467 1.38.09.09.943-.183 1.894-.604 1.244-.55 2.053-.68 2.871-.461 1.76.47 1.36.98-1.158 1.478-3.58.706-4.216 1.1-4.013 2.481.133.91.036 1.142-.442 1.05-.338-.062-.67-.507-.738-.984-.138-.963-.141-.965-1.008-.633-.462.177-.613.792-.613 2.497 0 1.245.177 2.372.394 2.505.618.382.045.959-.697.701-1.201-.416-1.528-1.217-1.332-3.263.184-1.909.16-1.968-.61-1.556-1.472.79-2.02.174-2.02-2.271 0-2.555-.875-4.057-2.55-4.377-1.92-.368-2.489.04-2.502 1.794-.01 1.382-.07 1.495-.44.827-.236-.427-.76-1.14-1.163-1.588-1.437-1.591-.233-2.468 3.404-2.477 3.255-.01 4.794 1.896 4.8 5.938.001 1.017.156 1.437.487 1.326.333-.11.545-1.528.678-4.557.215-4.88.518-5.385 2.165-3.615zm-6.43 5.509c0 .417-1.174.756-1.842.531-.919-.309-.48-.873.68-.873.64 0 1.163.154 1.163.342zm.171 2.553c-.844.637-2.338.776-2.666.247-.28-.454.703-.816 2.214-.816 1.143 0 1.167.03.452.569zm11.967 1.353c-1.768 1.077-2.681 2.56-2.047 3.323.269.324.384.693.257.82-.391.392-2.226-.239-2.459-.846-.351-.915.953-2.508 2.707-3.304 2.118-.962 3.123-.957 1.541.007zm-11.363 1.065c1.486.544 2.327 1.801 2.327 3.478 0 1.827.33 2.015 1.94 1.096 1.363-.78 2.86-.711 3.93.18l.915.763-1.273.013c-.7.007-2.336.371-3.637.81-3.175 1.07-3.569.876-3.23-1.585.425-3.09-1.083-4.662-3.323-3.464-.413.221-.75.68-.75 1.022 0 .447-.217.345-.775-.365-.426-.543-.776-1.157-.776-1.365 0-.714 3.198-1.114 4.652-.583zm-.17 3.035c-.832.628-2.155.766-2.155.223 0-.44.979-.82 2.067-.805.822.013.824.025.088.582zm.383 2.09c-.458.741-2.215 1.284-2.672.827-.533-.533-.324-.68 1.45-1.01 1.13-.211 1.438-.165 1.222.184z" fill="#4f4f4f"/><path d="M30.136 9.04c.113.32.32 1.427.457 2.462l.254 1.882 1.76-.264c.968-.145 2.81-.6 4.092-1.009 1.282-.41 2.721-.745 3.198-.745.891 0 2.91 1.347 2.91 1.942 0 .183-1.302.309-2.891.278-1.591-.03-2.999.051-3.13.181-.396.397.638 5.074 1.431 6.469.882 1.552.736 1.816-.722 1.316-1.031-.353-2.637-.317-5.447.121-1.003.156-1.26.38-1.26 1.095 0 .86.07.882 1.696.51 1.78-.407 3.731-.144 3.731.502 0 .21-.676.38-1.502.38s-2.048.11-2.714.243c-1.012.203-1.212.422-1.212 1.334 0 .602.178 1.201.394 1.336.568.35.074.965-.776.965-1.099 0-1.87-.985-1.656-2.11.212-1.11-.501-1.32-1.913-.564-.94.503-2.64-.095-2.64-.929 0-.393.56-.477 2.326-.35 2.323.17 2.327.167 2.327-.902v-1.07l-2.424.304c-3.642.462-4.623.38-5.217-.433-.905-1.237-1.033-2.45-.337-3.219.355-.391.75-1.36.879-2.155.278-1.711-.173-2.128-2.312-2.137-1.18-.004-1.547-.192-1.904-.976-.243-.534-.333-1.08-.2-1.214.134-.134 1.376.042 2.76.39 1.385.347 4.008.632 5.83.632h3.312l.027-1.648c.033-1.968.551-3.522.873-2.617zm1.33 5.423c-.373.003-.679.267-.679.586 0 .431.453.582 1.745.582 2.256 0 2.256.651 0 .99-2.27.34-2.352 1.247-.127 1.41 1.713.126 2.617 1.085 1.032 1.095-1.553.01-2.65.449-2.65 1.062 0 .478.34.542 1.8.342.989-.135 2.221-.247 2.74-.247.706 0 .896-.168.76-.677-.098-.374-.4-1.788-.668-3.143L34.929 14l-1.392.23c-.766.126-1.697.232-2.071.234zm-6.464.392H23.58l-.444 2.59c-.645 3.767-.34 4.172 2.917 3.869 2.319-.217 3.404-.75 2.967-1.456-.09-.148-.768-.133-1.504.033-.946.213-1.571.138-2.135-.257-1.066-.747-1.02-1.438.077-1.152 1.394.366 3.78-.153 3.78-.821 0-.469-.342-.538-1.727-.347-1.342.183-1.877.087-2.4-.433-.636-.633-.56-.674 1.437-.788 2.232-.125 2.958-.488 2.492-1.243-.175-.283-.734-.37-1.448-.227-.641.127-1.806.233-2.589.233zm6.782 14.602c.996 1.07 1.003 1.105.208 1.225-.75.114-.817.37-.817 3.163 0 2.787.06 3.023.73 2.847.498-.13.81-.674.973-1.698.268-1.668 2.043-3.954 3.764-4.843 1.72-.89 2.288-.728 2.288.649 0 .973-.103 1.125-.525.775-1.018-.844-4.924 2.775-3.995 3.704.167.168.831.003 1.474-.366 1.247-.715 3.286-.875 4.153-.326.684.434.252.665-1.883 1.01-.96.156-2.331.524-3.05.82-1.15.473-1.283.675-1.13 1.717.135.922.039 1.155-.44 1.063-.338-.064-.67-.508-.738-.985-.138-.963-.141-.965-1.008-.633-.754.29-.872 4.39-.148 5.115.362.362.236.465-.567.465-1.376 0-1.877-1.007-1.448-2.911.406-1.8.2-2.264-.772-1.744-1.32.708-1.916.099-1.834-1.874.107-2.577-.674-4.197-2.275-4.726-2.084-.688-2.872-.227-2.886 1.685-.01 1.397-.071 1.515-.44.847-.236-.427-.798-1.184-1.248-1.681l-.82-.906.916-.742c.62-.503 1.519-.743 2.785-.743 3.775 0 5.063 1.259 5.15 5.03.054 2.367.133 2.51 1.154 2.118.47-.18.536-.92.369-4.174-.17-3.316-.102-4.04.416-4.47.53-.44.767-.354 1.643.589zm-6.424 5.56c0 .213-.524.388-1.164.388-.64 0-1.163-.175-1.163-.388 0-.213.523-.387 1.163-.387s1.164.174 1.164.387zm-.17 2.514c-.913.712-2.285.781-2.062.103.087-.266.756-.531 1.486-.588 1.252-.098 1.284-.072.574.485zm11.895 1.558c-1.66 1.353-2.223 2.406-1.653 3.092.553.666-.091 1.122-1.123.795-2.307-.733-.332-3.726 3.07-4.651.893-.244.87-.183-.294.764zm-10.682.972c1.305.526 2.136 2.085 2.003 3.757-.131 1.636.234 1.747 2.264.689 1.285-.67 2.218-.72 3.244-.17 1.221.653.871 1.026-1.188 1.27-1.066.126-2.547.52-3.292.872-2.12 1.006-2.557.607-2.278-2.067.191-1.83.11-2.392-.42-2.922-1.112-1.111-3.703-.574-3.703.766 0 .43-.259.29-.844-.453-.819-1.042-.823-1.09-.12-1.603.808-.591 3.035-.662 4.334-.139zm-.485 2.893c-.835.63-2.11.783-2.11.25 0-.348 1.292-.805 2.304-.815.397-.004.341.16-.194.565zm.046 2.35c-.82.62-2.543.776-2.543.23 0-.186.545-.448 1.211-.581 1.826-.366 2.162-.277 1.332.35z" fill="#2e2e2e"/><path d="M30.158 9.249c.133.347.244 1.182.248 1.858.012 2.564.862 2.688 6.734.983 3.026-.88 4.48-.665 5.249.772.386.721.271.755-2.464.697-1.577-.033-2.992.063-3.142.213-.449.447.61 5.458 1.387 6.565.848 1.208.639 1.58-.62 1.102-.502-.191-1.836-.256-2.965-.145-3.532.349-3.798.458-3.798 1.559 0 .786.144.949.661.75 1.695-.65 3.833-.683 4.345-.065.463.557.319.624-1.372.628-2.915.01-3.634.308-3.634 1.514 0 .572.19 1.23.422 1.461.604.605-.158.979-1.373.674-.815-.205-.988-.478-.988-1.563 0-1.071-.148-1.316-.8-1.316-.44 0-1.153.189-1.583.419-.613.328-.943.274-1.526-.254-.408-.37-.743-.776-.744-.903 0-.127 1.091-.231 2.424-.231 2.327 0 2.424-.039 2.424-.97 0-.738-.185-.949-.776-.886-.426.046-2.11.201-3.743.344l-2.967.26-.664-1.282c-.607-1.174-.611-1.37-.053-2.314.335-.567.77-1.748.966-2.623.412-1.829.185-2.028-2.302-2.028-1.254 0-1.607-.175-1.97-.97-.243-.535-.33-1.085-.191-1.224.138-.138 1.344.043 2.68.4 1.335.36 3.911.691 5.722.739l3.294.086.243-2.244c.265-2.442.5-2.984.876-2.006zm2.083 5.08c-2.133.352-1.921 1.302.29 1.302 2.255 0 2.255.61 0 .95-1.274.19-1.744.437-1.745.915 0 .499.348.655 1.455.655 1.546 0 2.373.685 1.066.883-1.988.3-2.52.534-2.52 1.108 0 .534.363.581 2.617.342 1.44-.152 2.68-.337 2.758-.412.077-.073-.152-1.452-.512-3.063-.703-3.163-.666-3.133-3.408-2.68zm-6.731.384-1.982.238-.48 2.679c-.595 3.34-.303 3.817 2.333 3.817 2.266 0 3.856-.552 3.856-1.34 0-.468-.344-.536-1.74-.345-1.146.157-1.939.072-2.326-.249-.843-.7-.723-1.263.205-.97 1.27.404 3.86-.176 3.86-.864 0-.479-.345-.56-1.729-.403-1.363.153-1.868.041-2.386-.53-.636-.704-.578-.728 1.729-.728 2.128 0 2.387-.083 2.387-.775 0-.86-.452-.924-3.727-.53zm6.187 14.81c.764.844.822 1.266.157 1.132-.35-.07-.516.806-.598 3.15-.1 2.863-.04 3.218.516 3.005.347-.133.702-.242.792-.242.09 0 .162-.356.162-.79 0-1.412 1.534-3.845 3.17-5.031 2.149-1.556 3.034-1.532 3.034.083 0 .964-.104 1.137-.466.775-.652-.652-.867-.599-2.233.55-1.209 1.017-2.561 3.16-2.214 3.507.102.101.893-.176 1.757-.618 1.673-.853 3.37-1.022 4.308-.43.66.418.897.322-3.268 1.325-2.925.705-3.403 1.1-3.048 2.519.172.682.092.88-.307.747-.296-.097-.595-.556-.663-1.02-.138-.934-.144-.938-1.008-.606-.754.29-.872 4.39-.148 5.115.362.362.297.464-.29.46-1.554-.013-1.843-.545-1.554-2.86.225-1.803.17-2.175-.315-2.175-.323 0-.684.158-.803.351-.12.193-.581.257-1.026.14-.684-.178-.77-.411-.565-1.508.41-2.182-.404-4.347-1.9-5.06-.79-.378-1.692-.52-2.307-.365-.889.222-1.01.45-1.013 1.894l-.001 1.64-.588-1.126c-.324-.62-.89-1.35-1.257-1.624-.618-.458-.621-.548-.046-1.133.757-.769 3.272-1.155 5.184-.797 1.944.366 2.91 2.024 2.913 4.998.001 2.118.055 2.249.874 2.132.841-.12.867-.247.745-3.561-.188-5.07.382-6.372 2.006-4.577zm-6.725 5.494c0 .213-.437.388-.97.388-.533 0-.97-.175-.97-.388 0-.213.437-.387.97-.387.533 0 .97.174.97.387zm.216 2.532c-.828.628-2.154.767-2.154.227 0-.357 1.325-.815 2.325-.802.441.005.401.143-.17.576zm11.054 2.287c-1.024 1.057-1.237 1.533-1.038 2.327.279 1.106-.043 1.251-1.083.49-1.039-.759-.635-2.235.892-3.26 2.045-1.375 2.747-1.123 1.23.443zm-9.813.393c1.496.674 2.146 2.119 1.795 3.99-.24 1.286-.208 1.338.67 1.066a15.483 15.483 0 0 0 1.971-.817c1.429-.727 2.393-.669 3.172.191.631.698.584.732-1.226.907-1.035.099-2.468.472-3.184.83s-1.616.55-2.001.428c-.605-.192-.668-.524-.466-2.45.187-1.791.104-2.356-.424-2.884-1.18-1.18-3.695-.745-3.715.645-.012.817-.018.818-.452.055-.241-.426-.627-.9-.857-1.05-.696-.458.3-1.127 1.953-1.312.85-.096 2.048.079 2.764.4zm-.632 2.67c-.578.704-1.989.889-1.989.26 0-.213.131-.39.291-.392.16-.003.727-.121 1.26-.261.871-.23.915-.19.438.393zm.167 2.365c-.836.677-2.543.826-2.543.222 0-.214.305-.39.678-.393.374-.003 1.115-.103 1.648-.223.936-.21.943-.196.217.394z" fill="#010101"/></g></g></svg>