<svg width="136" height="136" xmlns="http://www.w3.org/2000/svg"><defs><filter style="color-interpolation-filters:sRGB" id="a" x="-.039" y="-.035" width="1.114" height="1.102"><feFlood flood-opacity=".498" flood-color="#000" result="flood"/><feComposite in="flood" in2="SourceGraphic" operator="in" result="composite1"/><feGaussianBlur in="composite1" stdDeviation=".8" result="blur"/><feOffset dx="2" dy="2" result="offset"/><feComposite in="SourceGraphic" in2="offset" result="fbSourceGraphic"/><feColorMatrix result="fbSourceGraphicAlpha" in="fbSourceGraphic" values="0 0 0 -1 0 0 0 0 -1 0 0 0 0 -1 0 0 0 0 1 0"/><feFlood flood-opacity=".498" flood-color="#000" result="flood"/><feComposite in2="fbSourceGraphic" in="flood" operator="in" result="composite1"/><feGaussianBlur in="composite1" stdDeviation=".8" result="blur"/><feOffset dx="2" dy="2" result="offset"/><feComposite in2="offset" in="fbSourceGraphic" result="composite2"/></filter></defs><g style="filter:url(#a)"><path style="fill:#c9983f;fill-opacity:1;stroke:#000;stroke-width:.3;stroke-miterlimit:4;stroke-dasharray:none" d="m29.243 268.275 4.017 28.59H4.185l4.018-28.59 10.52-3.66z" transform="matrix(3.93802 0 0 3.93802 -5.731 -1037.514)"/><g style="fill:none;fill-opacity:1;fill-rule:evenodd;stroke:#000;stroke-width:1.5;stroke-linecap:round;stroke-linejoin:round;stroke-miterlimit:4;stroke-dasharray:none;stroke-opacity:1"><path d="M22.5 11.63V6" style="fill:none;stroke:#000;stroke-linejoin:miter" transform="translate(16.226 18.198) scale(2.30324)"/><path d="M22.5 25s4.5-7.5 3-10.5c0 0-1-2.5-3-2.5s-3 2.5-3 2.5c-1.5 3 3 10.5 3 10.5" style="fill:#000;fill-opacity:1;stroke-linecap:butt;stroke-linejoin:miter" transform="translate(16.226 18.198) scale(2.30324)"/><path d="M11.5 37c5.5 3.5 15.5 3.5 21 0v-7s9-4.5 6-10.5c-4-6.5-13.5-3.5-16 4V27v-3.5c-3.5-7.5-13-10.5-16-4-3 6 5 10 5 10z" style="fill:#000;stroke:#000" transform="translate(16.226 18.198) scale(2.30324)"/><path d="M20 8h5" style="fill:none;stroke:#000;stroke-linejoin:miter" transform="translate(16.226 18.198) scale(2.30324)"/><path d="M32 29.5s8.5-4 6.03-9.65C34.15 14 25 18 22.5 24.5l.01 2.1-.01-2.1C20 18 9.906 14 6.997 19.85c-2.497 5.65 4.853 9 4.853 9" style="fill:none;stroke:#fff" transform="translate(16.226 18.198) scale(2.30324)"/><path d="M11.5 30c5.5-3 15.5-3 21 0m-21 3.5c5.5-3 15.5-3 21 0m-21 3.5c5.5-3 15.5-3 21 0" style="fill:none;stroke:#fff" transform="translate(16.226 18.198) scale(2.30324)"/></g></g></svg>