<svg width="136" height="136" xmlns="http://www.w3.org/2000/svg"><defs><filter style="color-interpolation-filters:sRGB" id="a" x="-.041" y="-.036" width="1.118" height="1.104"><feFlood flood-opacity=".498" flood-color="#000" result="flood"/><feComposite in="flood" in2="SourceGraphic" operator="in" result="composite1"/><feGaussianBlur in="composite1" stdDeviation=".8" result="blur"/><feOffset dx="2" dy="2" result="offset"/><feComposite in="SourceGraphic" in2="offset" result="fbSourceGraphic"/><feColorMatrix result="fbSourceGraphicAlpha" in="fbSourceGraphic" values="0 0 0 -1 0 0 0 0 -1 0 0 0 0 -1 0 0 0 0 1 0"/><feFlood flood-opacity=".498" flood-color="#000" result="flood"/><feComposite in2="fbSourceGraphic" in="flood" operator="in" result="composite1"/><feGaussianBlur in="composite1" stdDeviation=".8" result="blur"/><feOffset dx="2" dy="2" result="offset"/><feComposite in2="offset" in="fbSourceGraphic" result="composite2"/></filter></defs><g style="filter:url(#a)"><path transform="matrix(-3.9895 0 0 -3.9895 123.255 131.544)" style="fill:#c9983f;fill-opacity:1;stroke:#000;stroke-width:.3;stroke-miterlimit:4;stroke-dasharray:none" d="M23.855 27.358 13.85 31 3.845 27.358 0 0h27.7z"/><g style="opacity:1;fill-opacity:1;fill-rule:evenodd;stroke:#000;stroke-width:1.5;stroke-linecap:round;stroke-linejoin:round;stroke-miterlimit:4;stroke-dasharray:none;stroke-opacity:1"><path d="M9.1 39.961h26.924V36.1H9.1Z" style="fill:#ce0101;stroke:#ce0101;stroke-width:1.69937134;stroke-linecap:butt" transform="matrix(2.61797 0 0 2.61797 8.934 10.227)"/><path d="m12.5 32 1.5-2.5h17l1.5 2.5zM12 36v-4h21v4z" style="fill:#ce0101;stroke:#ce0101;stroke-linecap:butt" transform="matrix(2.61797 0 0 2.61797 8.934 10.227)"/><path d="M14 29.5v-13h17v13z" style="fill:#ce0101;stroke:#ce0101;stroke-linecap:butt;stroke-linejoin:miter" transform="matrix(2.61797 0 0 2.61797 8.934 10.227)"/><path d="M14 16.5 11 14h23l-3 2.5zM11 14V9h4v3.717h5V9h5v3.717h5V9h4v5z" style="fill:#ce0101;stroke:#ce0101;stroke-linecap:butt" transform="matrix(2.61797 0 0 2.61797 8.934 10.227)"/><path d="M12.525 34.063h19.95M15.08 16.5h14.84" style="fill:none;stroke:#fff;stroke-width:1;stroke-linejoin:miter" transform="matrix(2.61797 0 0 2.61797 8.934 10.227)"/></g></g></svg>