<svg xmlns="http://www.w3.org/2000/svg" viewBox="0 0 60 60"><defs><filter id="a" color-interpolation-filters="sRGB"><feFlood flood-opacity=".498" flood-color="#000" result="flood"/><feComposite in="flood" in2="SourceGraphic" operator="in" result="composite1"/><feGaussianBlur in="composite1" stdDeviation="2.5" result="blur"/><feOffset dx="2" dy="2" result="offset"/><feComposite in="SourceGraphic" in2="offset" result="composite2"/></filter></defs><path d="M52.961 30c0 12.68-10.28 22.96-22.962 22.96-12.68 0-22.96-10.28-22.96-22.96 0-12.681 10.28-22.96 22.96-22.96 12.682 0 22.962 10.278 22.962 22.96z" fill="#fff" stroke="#000" stroke-width=".471" filter="url(#a)" transform="translate(-4.762 -4.762) scale(1.15873)"/><g stroke-width="1.918"><path d="M55.516 30c0 14.149-11.471 25.619-25.62 25.619-14.15 0-25.619-11.47-25.619-25.62 0-14.148 11.47-25.619 25.62-25.619 14.148 0 25.62 11.471 25.62 25.62z" fill="#86cfd0"/><path d="M42.707 42.81c0 7.074-5.736 12.809-12.81 12.809-7.075 0-12.811-5.735-12.811-12.81S22.822 30 29.896 30c7.075 0 12.81 5.736 12.81 12.81z" fill="#fff"/><path d="m33.75 38.78 8.464 2.917-2.89-8.468m.015-7.867 2.912-8.469-8.47 2.893-3.946-8.083-3.936 8.08-8.478-2.927 2.922 8.482m-.001 7.866-2.908 8.468 8.463-2.9" fill="#877ea6"/><path d="M40.11 29.276a10.273 10.273 0 1 1-20.547 0 10.273 10.273 0 0 1 20.547 0z" fill="#fff" stroke="#877ea6" stroke-width="1.334"/><path d="m37.204 32.405 6.187-3.036-6.176-3.015 2.24-6.515-6.513 2.225-3.036-6.217-3.029 6.215-6.521-2.251 2.248 6.523-6.202 3.026 6.2 3.026m4.274 4.283 3.031 6.187 3.01-6.18" fill="#273567"/><path d="M37.809 29.364a7.903 7.903 0 1 1-15.805 0 7.901 7.901 0 0 1 7.902-7.9 7.901 7.901 0 0 1 7.903 7.9z" fill="#fff" stroke="#273567" stroke-width="1.334"/><path d="M34.833 29.363a4.928 4.928 0 1 1-9.854.003 4.928 4.928 0 0 1 9.854-.003z" fill="#273567"/><path d="M27.854 29.907v-.354h1.267v1.11a2.209 2.209 0 0 1-.6.347c-.207.08-.418.118-.636.118a1.692 1.692 0 0 1-.8-.188 1.24 1.24 0 0 1-.54-.544 1.718 1.718 0 0 1-.183-.799c0-.29.06-.562.182-.814a1.21 1.21 0 0 1 .523-.561c.229-.123.49-.184.788-.184.216 0 .41.034.585.104a.98.98 0 0 1 .41.293c.099.125.173.288.225.49l-.355.096a1.1 1.1 0 0 0-.167-.359.68.68 0 0 0-.285-.208 1.046 1.046 0 0 0-.41-.08c-.181 0-.337.029-.469.084a.88.88 0 0 0-.318.217 1.04 1.04 0 0 0-.188.297 1.563 1.563 0 0 0-.115.602c0 .267.047.49.137.671a.895.895 0 0 0 .4.4c.176.087.361.13.558.13.172 0 .339-.033.5-.099.163-.066.287-.135.372-.212v-.557zm1.92 1.172v-2.987h.397v2.987zm1.09 0v-2.987h.405l1.57 2.345v-2.345h.381v2.987h-.407l-1.57-2.345v2.345z" fill="#fff"/><path d="M56.606 30c0 14.692-11.912 26.605-26.607 26.605-14.693 0-26.605-11.912-26.605-26.606C3.394 15.307 15.306 3.395 30 3.395s26.607 11.912 26.607 26.604z" fill="none" stroke="#2c2c2b" stroke-width=".346"/></g></svg>