<svg xmlns="http://www.w3.org/2000/svg" viewBox="0 0 60 60"><defs><filter id="a" color-interpolation-filters="sRGB"><feFlood flood-opacity=".498" flood-color="#000" result="flood"/><feComposite in="flood" in2="SourceGraphic" operator="in" result="composite1"/><feGaussianBlur in="composite1" stdDeviation="2.5" result="blur"/><feOffset dx="2" dy="2" result="offset"/><feComposite in="SourceGraphic" in2="offset" result="composite2"/></filter></defs><path d="M52.961 30c0 12.68-10.28 22.96-22.962 22.96-12.68 0-22.96-10.28-22.96-22.96 0-12.681 10.28-22.96 22.96-22.96 12.682 0 22.962 10.278 22.962 22.96z" fill="#fff" stroke="#000" stroke-width=".471" filter="url(#a)" transform="translate(-4.762 -4.762) scale(1.15873)"/><g stroke-width="1.918"><path d="M55.62 30c0 14.149-11.471 25.619-25.62 25.619-14.149 0-25.62-11.47-25.62-25.62C4.38 15.851 15.851 4.38 30 4.38c14.149 0 25.619 11.471 25.619 25.62z" fill="#86cfd0"/><path d="M42.81 42.81c0 7.074-5.735 12.809-12.81 12.809-7.076 0-12.811-5.735-12.811-12.81S22.924 30 29.999 30c7.076 0 12.811 5.736 12.811 12.81z" fill="#fff"/><path d="M56.605 30c0 14.692-11.912 26.605-26.606 26.605-14.693 0-26.604-11.912-26.604-26.606 0-14.692 11.91-26.604 26.604-26.604 14.693 0 26.606 11.912 26.606 26.604z" fill="none" stroke="#2c2c2b" stroke-width=".346"/><path d="M40.273 30.178a10.272 10.272 0 1 1-20.545 0 10.27 10.27 0 0 1 10.273-10.27 10.272 10.272 0 0 1 10.272 10.27z" fill="#fff" stroke="#877ea6" stroke-width="1.334"/><path d="m26.979 37.494 3.03 6.187L33.02 37.5" fill="#273567"/><path d="M27.498 23.593v-9.214h-2.94l5.443-5.883 5.441 5.883h-2.94v9.214z" fill="#877ea6"/><path d="M22.212 30.065a7.69 7.69 0 0 1 7.69-7.69 7.692 7.692 0 1 1-7.69 7.69z" fill="#fff" stroke="#2c2c2b" stroke-width=".666"/><path d="M37.885 30.178A7.882 7.882 0 0 1 30 38.063a7.88 7.88 0 0 1-7.883-7.885A7.88 7.88 0 0 1 30 22.295a7.882 7.882 0 0 1 7.884 7.883z" fill="#2c2c2b"/><path d="m37.308 33.23 6.187-3.036-6.176-3.015 2.239-6.514-6.513 2.224-3.036-6.217-3.03 6.215-6.52-2.251 2.249 6.523-6.202 3.027 6.2 3.024" fill="#273567"/><path d="M37.911 30.19a7.901 7.901 0 0 1-7.902 7.902 7.902 7.902 0 1 1 0-15.804 7.9 7.9 0 0 1 7.902 7.903z" fill="#fff" stroke="#273567" stroke-width="1.334"/><path d="M34.937 30.188a4.927 4.927 0 1 1-9.854.003 4.927 4.927 0 0 1 9.854-.003z" fill="#273567"/><path d="M25.943 31.904v-2.987h.396v1.479l1.483-1.479h.538l-1.255 1.211 1.31 1.776h-.522l-1.066-1.508-.488.471v1.037zm3.64 0V30.64l-1.151-1.722h.475l.59.904c.11.168.213.336.307.504.091-.156.2-.333.326-.53l.58-.878h.46l-1.19 1.722v1.265zm2.531-2.41a1.008 1.008 0 0 1 .72-.288.949.949 0 0 1 .892.57c.081.182.123.394.123.637 0 .385-.096.681-.289.89a.95.95 0 0 1-.732.314.948.948 0 0 1-.727-.312c-.193-.206-.29-.49-.29-.849 0-.45.101-.77.302-.963zm-.539 1.7c.114.234.282.42.502.556.221.136.472.203.753.203.259 0 .5-.06.723-.185.225-.12.398-.302.52-.541.121-.24.182-.51.182-.814 0-.299-.058-.565-.173-.8a1.289 1.289 0 0 0-.506-.552 1.423 1.423 0 0 0-.745-.197c-.42 0-.762.139-1.029.42-.265.28-.397.668-.397 1.164 0 .263.057.51.17.746z" fill="#fff"/></g></svg>