<svg xmlns="http://www.w3.org/2000/svg" width="60" height="60"><defs><filter id="a" color-interpolation-filters="sRGB"><feFlood flood-opacity=".498" flood-color="#000" result="flood"/><feComposite in="flood" in2="SourceGraphic" operator="in" result="composite1"/><feGaussianBlur in="composite1" stdDeviation="2.5" result="blur"/><feOffset dx="2" dy="2" result="offset"/><feComposite in="SourceGraphic" in2="offset" result="composite2"/></filter></defs><path d="M52.961 30c0 12.68-10.28 22.96-22.962 22.96-12.68 0-22.96-10.28-22.96-22.96 0-12.681 10.28-22.96 22.96-22.96 12.682 0 22.962 10.278 22.962 22.96z" fill="#fff" stroke="#000" stroke-width=".471" filter="url(#a)" transform="matrix(1.15873 0 0 1.15873 -4.762 -4.762)"/><path d="M42.81 42.81c0 7.075-5.736 12.81-12.811 12.81-7.074 0-12.81-5.736-12.81-12.81C17.19 35.735 22.925 30 30 30c7.075 0 12.81 5.735 12.81 12.81z" fill="#86cfd0"/><path d="M30.013 9.811l-4.526 9.292-9.752-3.367 3.36 9.755-9.27 4.522 9.27 4.525-3.345 9.739 9.732-3.337 4.53 9.249 4.501-9.239 9.735 3.352-3.324-9.737 9.25-4.538-9.232-4.508 3.349-9.74-9.74 3.328z" fill="#273567"/><path d="M41.813 30c0 6.524-5.292 11.812-11.813 11.812-6.526 0-11.813-5.288-11.813-11.812 0-6.525 5.287-11.813 11.813-11.813 6.521 0 11.813 5.288 11.813 11.813z" fill="#fff" stroke="#2c2c2b" stroke-width=".997"/><path d="M40.122 29.999A10.12 10.12 0 0 1 30.001 40.12 10.12 10.12 0 0 1 19.878 30 10.118 10.118 0 0 1 30 19.879a10.118 10.118 0 0 1 10.121 10.12z" fill="#ff8f00"/><path d="M56.606 30c0 14.693-11.912 26.604-26.607 26.604C15.306 56.604 3.394 44.693 3.394 30 3.394 15.306 15.306 3.396 30 3.396c14.695 0 26.607 11.909 26.607 26.604z" fill="none" stroke="#2c2c2b" stroke-width=".346"/><path d="M25.299 28.8a2.016 2.016 0 0 1 1.441-.576c.393 0 .748.1 1.063.3.316.2.556.48.72.842.163.363.245.787.245 1.274 0 .768-.19 1.361-.574 1.78-.383.418-.872.626-1.466.626-.583 0-1.066-.206-1.453-.62-.386-.414-.58-.981-.58-1.7 0-.9.2-1.542.603-1.926zm-1.078 3.402c.23.469.564.84 1.006 1.11.442.273.943.409 1.505.409.518 0 1-.124 1.449-.369a2.516 2.516 0 0 0 1.037-1.087c.243-.477.365-1.02.365-1.624 0-.598-.116-1.132-.348-1.604a2.579 2.579 0 0 0-1.01-1.103 2.848 2.848 0 0 0-1.49-.394c-.84 0-1.526.28-2.057.841-.533.561-.797 1.336-.797 2.328 0 .525.113 1.022.342 1.493zm6.42 1.421v-5.975h.794v2.455h3.096v-2.455h.792v5.975h-.792V30.81h-3.096v2.814z" fill="#fff"/><g stroke-width="1.918"><path d="M522.01 31.935c0 14.693-11.911 26.604-26.604 26.604-14.694 0-26.604-11.911-26.604-26.604 0-14.694 11.91-26.604 26.604-26.604 14.693 0 26.604 11.91 26.604 26.604z" fill="none" stroke="#2c2c2b" stroke-width=".34646027"/><path d="M508.216 44.745c0 7.075-5.736 12.81-12.81 12.81-7.075 0-12.81-5.736-12.81-12.81 0-7.075 5.735-12.81 12.81-12.81 7.074 0 12.81 5.736 12.81 12.81z" fill="#86cfd0"/><path d="M499.543 25.833l-3.946-8.083-3.936 8.08" fill="#273567"/><path d="M487.714 32.038a7.692 7.692 0 1 1 15.382.001 7.692 7.692 0 0 1-15.382 0z" fill="#fff" stroke="#273567" stroke-width="1.33369823"/><path d="M490.478 32.038a4.927 4.927 0 1 1 9.854.001 4.927 4.927 0 0 1-9.854 0z" fill="#273567"/><path d="M492.911 33.65v-2.987h2.021v.352h-1.624v.923h1.406v.354h-1.406v1.358zm4.493-2.987h.396v1.725c0 .3-.034.537-.102.714a.871.871 0 0 1-.369.43c-.177.112-.41.167-.697.167-.28 0-.51-.05-.688-.145a.827.827 0 0 1-.382-.417c-.076-.185-.113-.433-.113-.749v-1.725h.396v1.72c0 .26.023.451.072.573a.547.547 0 0 0 .25.285.866.866 0 0 0 .429.1c.292 0 .498-.067.622-.197.124-.133.186-.386.186-.76z" fill="#fff"/></g><g stroke-width="1.918"><path d="M520.994 98.603c0 14.149-11.471 25.62-25.62 25.62-14.149 0-25.619-11.471-25.619-25.62 0-14.148 11.47-25.62 25.62-25.62 14.148 0 25.62 11.472 25.62 25.62z" fill="#86cfd0"/><path d="M508.184 111.413c0 7.075-5.735 12.81-12.81 12.81-7.074 0-12.81-5.735-12.81-12.81s5.736-12.81 12.81-12.81c7.075 0 12.81 5.735 12.81 12.81z" fill="#fff"/><path d="M502.683 101.651l6.187-3.037-6.176-3.014 2.24-6.515-6.514 2.226-3.035-6.218-3.029 6.215-6.521-2.252 2.248 6.525-6.202 3.025 6.2 3.026m4.273 4.282l3.031 6.188 3.01-6.18" fill="#fff" stroke="#273567" stroke-width="1.33369823"/><path d="M503.287 98.61a7.901 7.901 0 1 1-15.803 0 7.901 7.901 0 1 1 15.803 0z" fill="#fff" stroke="#2c2c2b" stroke-width=".66626975"/><path d="M499.513 92.386l-3.946-8.082-3.936 8.08" fill="#273567"/><path d="M487.683 98.592a7.691 7.691 0 1 1 15.382 0 7.691 7.691 0 0 1-15.382 0z" fill="#fff" stroke="#273567" stroke-width="1.33369823"/><path d="M490.448 98.592a4.926 4.926 0 0 1 4.927-4.927 4.927 4.927 0 1 1-4.927 4.927z" fill="#273567"/><path d="M493.483 100.355V97.72h-.983v-.353h2.363v.353h-.984v2.635zm2.302-2.412a1.008 1.008 0 0 1 .72-.287.985.985 0 0 1 .532.148c.158.101.279.241.36.423.082.18.123.393.123.636 0 .385-.095.68-.288.89a.95.95 0 0 1-.732.313.949.949 0 0 1-.727-.31c-.193-.207-.29-.49-.29-.851 0-.448.1-.77.302-.962zm-.538 1.701c.113.234.28.42.502.556.22.136.472.203.753.203.259 0 .5-.06.723-.185.224-.122.398-.301.52-.541a1.761 1.761 0 0 0 .182-.814c0-.299-.058-.566-.173-.8a1.289 1.289 0 0 0-.507-.552 1.422 1.422 0 0 0-.744-.198c-.42 0-.763.141-1.029.42-.266.281-.398.67-.398 1.165 0 .263.058.51.171.746z" fill="#fff"/><path d="M522.01 98.846c0 14.693-11.911 26.605-26.604 26.605-14.694 0-26.604-11.911-26.604-26.605 0-14.693 11.91-26.604 26.604-26.604 14.693 0 26.604 11.911 26.604 26.604z" fill="none" stroke="#2c2c2b" stroke-width=".34646027"/></g><g stroke-width="1.918"><path d="M342.72 31.935c0 14.693-11.913 26.604-26.607 26.604-14.693 0-26.605-11.911-26.605-26.604 0-14.694 11.912-26.604 26.605-26.604 14.694 0 26.607 11.91 26.607 26.604z" fill="none" stroke="#2c2c2b" stroke-width=".34646027"/><path d="M328.924 44.745c0 7.075-5.736 12.81-12.811 12.81-7.074 0-12.81-5.736-12.81-12.81 0-7.075 5.736-12.81 12.81-12.81 7.075 0 12.81 5.735 12.81 12.81z" fill="#86cfd0"/><path d="M325.617 29.171l2.912-8.47-8.47 2.896-3.946-8.085-3.936 8.081-8.479-2.927 2.923 8.482m13.405 13.441l8.466 2.916-2.891-8.467m-18.982-.023l-2.908 8.468 8.463-2.903" fill="#273567" stroke-width="1.825"/><path d="M326.386 33.087a10.273 10.273 0 1 1-20.546-.003 10.273 10.273 0 0 1 20.546.003z" fill="#fff" stroke="#273567" stroke-width="1.33369823"/><path d="M323.997 33.087a7.882 7.882 0 0 1-7.884 7.884 7.88 7.88 0 0 1-7.882-7.884 7.88 7.88 0 0 1 7.882-7.883 7.88 7.88 0 0 1 7.884 7.883z" fill="#273567"/><path d="M313.252 33.555v-.467h1.684v1.475a2.981 2.981 0 0 1-.801.465 2.388 2.388 0 0 1-1.913-.095 1.657 1.657 0 0 1-.724-.727 2.283 2.283 0 0 1-.245-1.061c0-.388.081-.749.243-1.086.163-.336.394-.584.7-.747a2.198 2.198 0 0 1 1.05-.244c.288 0 .547.047.78.14.233.093.415.224.547.391.132.167.233.385.301.653l-.489.13a1.496 1.496 0 0 0-.22-.476.915.915 0 0 0-.379-.278 1.38 1.38 0 0 0-.544-.104 1.6 1.6 0 0 0-.622.11 1.159 1.159 0 0 0-.422.29 1.37 1.37 0 0 0-.25.393c-.102.246-.151.514-.151.802 0 .355.06.653.182.891.121.239.297.417.53.533.232.116.478.174.74.174.227 0 .448-.044.665-.132a1.727 1.727 0 0 0 .49-.284v-.746zm2.556 1.564v-3.987h.533v3.987zm1.447 0v-3.987h.545l2.095 3.13v-3.13h.51v3.987h-.545l-2.095-3.13v3.13z" fill="#fff"/></g><g stroke-width="1.918"><path d="M233.015 31.935c0 14.693-11.913 26.604-26.607 26.604-14.693 0-26.605-11.911-26.605-26.604 0-14.694 11.912-26.604 26.605-26.604 14.694 0 26.607 11.91 26.607 26.604z" fill="none" stroke="#2c2c2b" stroke-width=".34646027"/><path d="M219.219 44.745c0 7.075-5.736 12.81-12.811 12.81-7.074 0-12.81-5.736-12.81-12.81 0-7.075 5.736-12.81 12.81-12.81 7.075 0 12.81 5.735 12.81 12.81z" fill="#86cfd0"/><path d="M209.204 25.178l6.522-6.522-2.08-2.079 8.014-.306-.312 8.007-2.08-2.079-6.52 6.522zm-5.686 12.772l-6.52 6.521 2.079 2.079-8.007.312.305-8.014 2.078 2.08 6.523-6.523zm-3.564-8.823l-6.515-6.515-2.08 2.08-.311-8.01 8.007.314-2.08 2.078 6.516 6.516zm12.908 5.833l6.515 6.516 2.08-2.08.31 8.008-8.007-.312 2.08-2.078-6.516-6.517z" fill="#273567"/><path d="M213.409 24.517a10.272 10.272 0 0 1 0 14.526 10.271 10.271 0 0 1-14.528.002 10.27 10.27 0 0 1 0-14.527 10.272 10.272 0 0 1 14.527-.001z" fill="#fff" stroke="#273567" stroke-width="1.33369823"/><path d="M212.55 25.374v12.812h-12.81V25.374z" fill="#273567"/><path d="M200.705 33.331v-2.987h.396v1.477l1.484-1.477h.537l-1.255 1.21 1.31 1.776h-.522l-1.066-1.507-.487.47v1.037zm2.472 0l1.143-2.987h.433l1.223 2.986h-.451l-.343-.906h-1.257l-.328.906zm.858-1.228h1.022l-.313-.827a10.872 10.872 0 0 1-.216-.623 4.029 4.029 0 0 1-.165.574zm2.235 1.228v-2.987h.396v1.477l1.483-1.477h.538l-1.255 1.21 1.31 1.776h-.522l-1.066-1.507-.488.47v1.037zm4.759-1.266c0 .374-.062.628-.186.759-.124.13-.33.197-.62.197a.867.867 0 0 1-.432-.1.554.554 0 0 1-.249-.284c-.047-.123-.072-.313-.072-.572v-1.72h-.396v1.723c0 .317.037.567.114.749a.827.827 0 0 0 .382.418c.177.096.406.145.686.145.29 0 .521-.056.7-.166a.877.877 0 0 0 .367-.432c.069-.175.102-.414.102-.714v-1.724h-.396z" fill="#fff"/></g><g stroke-width="1.918"><path d="M178.352 31.935c0 14.693-11.911 26.604-26.604 26.604-14.695 0-26.605-11.911-26.605-26.604 0-14.694 11.911-26.604 26.604-26.604s26.604 11.91 26.604 26.604z" fill="none" stroke="#2c2c2b" stroke-width=".34646027"/><path d="M164.558 44.745c0 7.075-5.736 12.81-12.811 12.81-7.074 0-12.81-5.736-12.81-12.81 0-7.075 5.736-12.81 12.81-12.81 7.075 0 12.81 5.736 12.81 12.81z" fill="#86cfd0"/><path d="M158.173 29.74h9.224V26.8l5.88 5.45-5.881 5.443v-2.941h-9.224zm-12.851 5.012h-9.224v2.94l-5.881-5.442 5.882-5.45v2.94h9.224zm3.804-8.927V16.61h-2.941l5.443-5.882 5.442 5.882h-2.94v9.215zm5.003 13.251v9.214h2.941l-5.442 5.883-5.443-5.883h2.94v-9.214z" fill="#273567"/><path d="M161.9 32.247a10.272 10.272 0 0 1-10.272 10.27 10.272 10.272 0 1 1 0-20.542A10.272 10.272 0 0 1 161.9 32.247z" fill="#fff" stroke="#273567" stroke-width="1.33369823"/><path d="M151.628 23.188l9.059 9.059-9.06 9.057-9.058-9.057z" fill="#273567"/><path d="M145.389 33.653v-2.988h.395v1.228h1.548v-1.228h.396v2.988h-.396v-1.406h-1.548v1.406zm3.066 0v-2.988h.396v2.988zm1.122-.425a.94.94 0 0 0 .428.356c.181.079.406.118.677.118.212 0 .403-.04.572-.116a.904.904 0 0 0 .391-.329.815.815 0 0 0 .136-.448.735.735 0 0 0-.124-.424.904.904 0 0 0-.386-.304 4.01 4.01 0 0 0-.658-.191c-.318-.072-.515-.144-.591-.212a.344.344 0 0 1-.115-.266.394.394 0 0 1 .162-.316c.109-.088.282-.132.52-.132.226 0 .399.049.515.143.116.096.184.236.205.422l.38-.026a.907.907 0 0 0-.146-.47.841.841 0 0 0-.388-.315 1.476 1.476 0 0 0-.583-.106c-.2 0-.381.033-.545.102a.791.791 0 0 0-.373.299.767.767 0 0 0-.127.424c0 .138.035.262.104.372.07.11.176.205.318.279.11.058.3.12.572.187a5.2 5.2 0 0 1 .527.146.621.621 0 0 1 .27.176.38.38 0 0 1 .084.243.424.424 0 0 1-.086.257.543.543 0 0 1-.255.186 1.076 1.076 0 0 1-.396.066 1.123 1.123 0 0 1-.456-.088.669.669 0 0 1-.299-.232.842.842 0 0 1-.122-.37l-.375.033a1.002 1.002 0 0 0 .164.536zm2.764.425v-2.988h.398v1.228h1.548v-1.228h.396v2.988h-.396v-1.406h-1.548v1.406zm3.857-2.103c.07-.19.125-.38.165-.574.05.164.12.372.215.623l.313.827h-1.02zm-.766 2.103l.326-.907h1.259l.343.907h.45l-1.222-2.988h-.433l-1.143 2.988z" fill="#fff"/></g><path d="M288.052 31.935c0 14.693-11.912 26.604-26.606 26.604S234.84 46.628 234.84 31.935c0-14.694 11.912-26.604 26.605-26.604 14.695 0 26.607 11.91 26.607 26.604z" fill="none" stroke="#2c2c2b" stroke-width=".346"/><path d="M274.256 44.745c0 7.075-5.736 12.81-12.81 12.81-7.075 0-12.81-5.736-12.81-12.81 0-7.075 5.735-12.81 12.81-12.81 7.074 0 12.81 5.735 12.81 12.81z" fill="#86cfd0"/><path d="M270.944 36.715l8.045-3.947-8.028-3.92 2.911-8.469-8.469 2.895-3.945-8.085-3.937 8.08-8.48-2.926 2.923 8.48-8.061 3.934 8.06 3.933m5.555 5.567l3.94 8.044 3.913-8.034" fill="#273567" stroke-width="1.825"/><path d="M271.718 32.746a10.272 10.272 0 0 1-10.272 10.27 10.27 10.27 0 0 1-10.272-10.27 10.272 10.272 0 1 1 20.544 0z" fill="#fff" stroke="#273567" stroke-width="1.333"/><path d="M269.329 32.744a7.882 7.882 0 0 1-7.883 7.884 7.882 7.882 0 0 1-7.884-7.884 7.88 7.88 0 0 1 7.884-7.882 7.88 7.88 0 0 1 7.883 7.882z" fill="#273567"/><path d="M257.224 34.699V30.71h.533v1.976l1.97-1.976h.712l-1.67 1.623 1.745 2.363h-.695l-1.417-2.007-.647.629v1.378zm3.818 0V30.71h.533v3.986zm1.447 0V30.71h.546l2.093 3.131v-3.13h.51v3.985h-.544L263 31.567v3.13z" fill="#fff"/><g stroke-width="1.918"><path d="M341.63 98.846c0 14.15-11.471 25.62-25.62 25.62-14.15 0-25.619-11.47-25.619-25.62 0-14.148 11.47-25.62 25.62-25.62 14.148 0 25.62 11.472 25.62 25.62z" fill="#86cfd0"/><path d="M328.82 111.656c0 7.075-5.735 12.81-12.81 12.81-7.074 0-12.81-5.735-12.81-12.81 0-7.076 5.736-12.81 12.81-12.81 7.075 0 12.81 5.736 12.81 12.81z" fill="#fff"/><path d="M319.864 107.627l8.464 2.916-2.89-8.468m.015-7.866l2.912-8.47-8.47 2.894-3.946-8.083-3.936 8.08-8.478-2.928 2.922 8.482m-.001 7.867l-2.908 8.468 8.463-2.9" fill="#877ea6"/><path d="M326.224 98.123a10.273 10.273 0 1 1-20.547-.001 10.273 10.273 0 0 1 20.547 0z" fill="#fff" stroke="#877ea6" stroke-width="1.33369823"/><path d="M323.318 101.251l6.187-3.035-6.176-3.015 2.24-6.516-6.513 2.226-3.036-6.218-3.029 6.216-6.521-2.252 2.248 6.524-6.202 3.025 6.2 3.027m4.274 4.283l3.031 6.186 3.01-6.18" fill="#273567"/><path d="M323.923 98.21a7.903 7.903 0 1 1-15.805 0 7.901 7.901 0 0 1 7.902-7.9 7.901 7.901 0 0 1 7.903 7.9z" fill="#fff" stroke="#273567" stroke-width="1.33369823"/><path d="M320.947 98.21a4.928 4.928 0 1 1-9.854.002 4.928 4.928 0 0 1 9.854-.002z" fill="#273567"/><path d="M313.968 98.753V98.4h1.267v1.109a2.209 2.209 0 0 1-.6.347c-.207.08-.418.119-.636.119a1.692 1.692 0 0 1-.8-.188 1.24 1.24 0 0 1-.54-.545 1.718 1.718 0 0 1-.183-.798c0-.29.06-.562.182-.815.121-.251.295-.438.523-.56.229-.123.49-.185.788-.185.216 0 .41.035.585.104.174.071.31.168.41.294.099.125.173.287.225.489l-.355.097a1.1 1.1 0 0 0-.167-.36.68.68 0 0 0-.285-.208 1.046 1.046 0 0 0-.41-.079c-.181 0-.337.028-.469.084a.88.88 0 0 0-.318.216 1.04 1.04 0 0 0-.188.297 1.563 1.563 0 0 0-.115.603c0 .266.047.49.137.67a.895.895 0 0 0 .4.4c.176.087.361.131.558.131.172 0 .339-.033.5-.1.163-.065.287-.135.372-.211v-.558zm1.92 1.173v-2.987h.397v2.987zm1.09 0v-2.987h.405l1.57 2.345v-2.345h.381v2.987h-.407l-1.57-2.345v2.345z" fill="#fff"/><path d="M342.72 98.846c0 14.693-11.912 26.605-26.607 26.605-14.693 0-26.605-11.911-26.605-26.605 0-14.693 11.912-26.604 26.605-26.604 14.694 0 26.607 11.911 26.607 26.604z" fill="none" stroke="#2c2c2b" stroke-width=".34646027"/></g><g stroke-width="1.918"><path d="M397.344 31.935c0 14.693-11.912 26.604-26.606 26.604s-26.606-11.911-26.606-26.604c0-14.694 11.912-26.604 26.605-26.604 14.694 0 26.607 11.91 26.607 26.604z" fill="none" stroke="#2c2c2b" stroke-width=".34646027"/><path d="M383.548 44.745c0 7.075-5.736 12.81-12.81 12.81-7.075 0-12.81-5.736-12.81-12.81 0-7.075 5.735-12.81 12.81-12.81 7.074 0 12.81 5.735 12.81 12.81z" fill="#86cfd0"/><path d="M361.698 15.053l6.214 3.81v-7.625z" fill="#273567"/><path d="M368.237 11.585V25.35h5.003V11.585z" fill="none" stroke="#273567" stroke-width="1.33369823"/><path d="M379.802 15.053l-6.217 3.81v-7.625z" fill="#273567"/><path d="M381.01 32.277a10.273 10.273 0 1 1-20.545-.002 10.273 10.273 0 0 1 20.545.002z" fill="#fff" stroke="#273567" stroke-width="1.33369823"/><path d="M378.62 32.277a7.882 7.882 0 0 1-7.882 7.884 7.88 7.88 0 0 1-7.883-7.884 7.88 7.88 0 0 1 7.883-7.883 7.88 7.88 0 0 1 7.883 7.883z" fill="#273567"/><path d="M366.669 34.41v-3.986h.533V32.4l1.97-1.976h.712l-1.67 1.622 1.745 2.364h-.695l-1.416-2.008-.646.63v1.378zm3.742 0v-3.986h2.868v.467h-2.336v1.227h2.183v.467h-2.183v1.358h2.433v.467zm3.786 0v-3.986h.533v3.986z" fill="#fff"/></g><g stroke-width="1.918"><path d="M460.084 31.935c0 14.693-11.911 26.604-26.605 26.604-14.693 0-26.604-11.911-26.604-26.604 0-14.694 11.911-26.604 26.604-26.604s26.605 11.91 26.605 26.604z" fill="none" stroke="#2c2c2b" stroke-width=".34646027"/><path d="M446.29 44.745c0 7.075-5.736 12.81-12.811 12.81-7.074 0-12.81-5.736-12.81-12.81 0-7.075 5.736-12.81 12.81-12.81 7.075 0 12.81 5.735 12.81 12.81z" fill="#86cfd0"/><path d="M430.977 26.285V17.07h-2.94l5.442-5.882 5.442 5.882h-2.94v9.215z" fill="#273567"/><path d="M443.752 32.87a10.273 10.273 0 0 1-20.545 0 10.27 10.27 0 0 1 10.272-10.27c5.672 0 10.273 4.597 10.273 10.27z" fill="#fff" stroke="#273567" stroke-width="1.33369823"/><path d="M441.362 32.87a7.882 7.882 0 0 1-7.884 7.884 7.88 7.88 0 0 1-7.882-7.884 7.88 7.88 0 0 1 7.882-7.883 7.882 7.882 0 0 1 7.884 7.883z" fill="#273567"/><path d="M428.454 35.003v-3.986h.533v1.976l1.97-1.977h.712l-1.67 1.622 1.746 2.365h-.696l-1.416-2.008-.648.628v1.38zm4.85 0v-1.688l-1.532-2.299h.637l.777 1.212c.15.221.287.446.415.673.125-.208.27-.442.44-.704l.768-1.18h.613l-1.586 2.298v1.688zm3.372-3.213c.266-.255.586-.382.957-.382a1.264 1.264 0 0 1 1.184.759c.108.24.162.523.162.846 0 .51-.127.905-.382 1.183s-.58.417-.973.417a1.263 1.263 0 0 1-.964-.414c-.256-.274-.385-.651-.385-1.13 0-.596.133-1.023.4-1.278zm-.717 2.267c.15.312.374.56.668.741.295.181.626.27 1 .27a1.97 1.97 0 0 0 .963-.245c.298-.163.527-.405.69-.723.162-.318.243-.68.243-1.083 0-.398-.078-.754-.23-1.068a1.72 1.72 0 0 0-.673-.734 1.892 1.892 0 0 0-.99-.263c-.559 0-1.014.186-1.369.56-.353.373-.528.891-.528 1.552 0 .35.075.68.226.993z" fill="#fff"/></g><g stroke-width="1.918"><path d="M396.253 98.846c0 14.15-11.471 25.62-25.62 25.62-14.147 0-25.619-11.47-25.619-25.62 0-14.148 11.472-25.62 25.62-25.62 14.148 0 25.62 11.472 25.62 25.62z" fill="#86cfd0"/><path d="M383.445 111.656c0 7.075-5.736 12.81-12.811 12.81-7.074 0-12.81-5.735-12.81-12.81 0-7.076 5.736-12.81 12.81-12.81 7.075 0 12.81 5.736 12.81 12.81z" fill="#fff"/><path d="M361.586 81.307l6.215 3.81v-7.624z" fill="#877ea6"/><path d="M368.13 77.84v13.764h5.003V77.84z" fill="none" stroke="#877ea6" stroke-width="1.33369823"/><path d="M362.942 98.657a7.69 7.69 0 1 1 15.381-.002 7.691 7.691 0 0 1-15.382.002z" fill="#fff" stroke="#2c2c2b" stroke-width=".66626975"/><path d="M379.686 81.307l-6.216 3.81v-7.624z" fill="#877ea6"/><path d="M380.907 98.533a10.272 10.272 0 0 1-10.272 10.271 10.272 10.272 0 0 1 0-20.544 10.273 10.273 0 0 1 10.272 10.273z" fill="#fff" stroke="#877ea6" stroke-width="1.33369823"/><path d="M378.519 98.532a7.882 7.882 0 0 1-7.884 7.884 7.88 7.88 0 0 1-7.883-7.884 7.88 7.88 0 0 1 7.883-7.882 7.88 7.88 0 0 1 7.884 7.882z" fill="#2c2c2b"/><path d="M377.942 101.622l6.187-3.037-6.176-3.015 2.24-6.514-6.514 2.225-3.035-6.218-3.029 6.215-6.521-2.251 2.248 6.525-6.202 3.025 6.2 3.024m4.273 4.283l3.031 6.188 3.01-6.18" fill="#273567"/><path d="M378.546 98.582a7.901 7.901 0 0 1-7.902 7.901 7.902 7.902 0 1 1 0-15.804 7.901 7.901 0 0 1 7.903 7.903z" fill="#fff" stroke="#273567" stroke-width="1.33369823"/><path d="M375.57 98.58a4.923 4.923 0 0 1-4.925 4.927 4.926 4.926 0 1 1 0-9.851 4.923 4.923 0 0 1 4.925 4.925z" fill="#273567"/><path d="M367.878 100.297V99.26l.488-.472 1.066 1.509h.522l-1.31-1.776 1.255-1.212h-.536l-1.485 1.478v-1.478h-.396v2.988zm2.419 0v-2.988h2.15v.354h-1.753v.912h1.64v.353h-1.64v1.015h1.825v.354zm2.836 0v-2.988h.396v2.988z" fill="#fff"/><path d="M397.344 98.846c0 14.693-11.912 26.605-26.607 26.605-14.693 0-26.605-11.911-26.605-26.605 0-14.693 11.912-26.604 26.605-26.604 14.694 0 26.607 11.911 26.607 26.604z" fill="none" stroke="#2c2c2b" stroke-width=".34646027"/></g><g stroke-width="1.918"><path d="M232.059 98.61c0 14.15-11.472 25.62-25.62 25.62-14.15 0-25.62-11.47-25.62-25.62 0-14.147 11.47-25.619 25.62-25.619 14.148 0 25.62 11.472 25.62 25.62z" fill="#86cfd0"/><path d="M219.249 111.422c0 7.074-5.736 12.81-12.81 12.81-7.075 0-12.81-5.736-12.81-12.81 0-7.076 5.735-12.811 12.81-12.811 7.074 0 12.81 5.735 12.81 12.81z" fill="#fff"/><path d="M197.166 94.753l-8.065 3.925 8.065 3.931m13.45-13.415l-3.931-8.048-3.943 8.035m13.407 13.454l8.049-3.925-8.033-3.943" fill="#fff" stroke="#273567" stroke-width="1.33369823"/><path d="M202.727 108.173l3.931 8.045 3.933-8.037" fill="none" stroke="#273567" stroke-width="1.33369823"/><path d="M213.928 91.417a10.272 10.272 0 0 1-.001 14.527 10.271 10.271 0 0 1-14.527 0 10.273 10.273 0 0 1 14.528-14.527z" fill="#273567"/><path d="M209.444 92.022l6.522-6.521-2.079-2.079 8.013-.306-.31 8.007-2.082-2.079-6.52 6.522zm-5.685 12.773l-6.52 6.52 2.079 2.08-8.007.312.305-8.014 2.078 2.08 6.522-6.522zm-3.564-8.823l-6.516-6.515-2.08 2.08-.311-8.008 8.006.31-2.077 2.081 6.514 6.515zm12.907 5.833l6.515 6.516 2.08-2.079.312 8.007-8.01-.31 2.08-2.08-6.514-6.516z" fill="#273567"/><path d="M213.649 91.362c4.012 4.011 4.009 10.516 0 14.527a10.27 10.27 0 0 1-14.527 0 10.27 10.27 0 0 1 0-14.526c4.011-4.01 10.515-4.013 14.527 0z" fill="#fff" stroke="#273567" stroke-width="1.33369823"/><path d="M212.79 92.22v12.81h-12.81V92.22z" fill="#273567"/><path d="M203.504 97.292h.461v2.015c0 .35-.04.63-.12.834a1.02 1.02 0 0 1-.428.504c-.207.129-.478.194-.816.194-.325 0-.593-.057-.801-.17a.964.964 0 0 1-.444-.488c-.09-.213-.133-.504-.133-.874v-2.016h.46v2.013c0 .3.029.525.085.668a.64.64 0 0 0 .29.333c.138.076.306.116.504.116.338 0 .58-.077.725-.232.144-.153.217-.449.217-.885zm1.21 3.487V97.29h.692l.828 2.468c.077.23.132.4.167.516.04-.128.102-.313.185-.56l.838-2.423h.62v3.488h-.445v-2.918l-1.015 2.917h-.416l-1.008-2.971v2.97zm5.072-2.455c.08-.22.143-.442.19-.668.056.192.14.433.253.726l.36.968h-1.182zm-.893 2.455l.377-1.055h1.463l.404 1.055h.525l-1.422-3.488h-.504l-1.33 3.488z" fill="#fff"/><path d="M233.015 98.846c0 14.693-11.913 26.605-26.607 26.605-14.693 0-26.605-11.911-26.605-26.605 0-14.693 11.912-26.604 26.605-26.604 14.694 0 26.607 11.911 26.607 26.604z" fill="none" stroke="#2c2c2b" stroke-width=".34646027"/></g><g stroke-width="1.918"><path d="M177.397 98.61c0 14.15-11.472 25.62-25.62 25.62-14.148 0-25.62-11.47-25.62-25.62 0-14.147 11.472-25.619 25.62-25.619 14.148 0 25.62 11.472 25.62 25.62z" fill="#86cfd0"/><path d="M164.587 111.422c0 7.074-5.736 12.81-12.81 12.81-7.074 0-12.81-5.736-12.81-12.81 0-7.076 5.736-12.811 12.81-12.811 7.074 0 12.81 5.735 12.81 12.81z" fill="#fff"/><g stroke="#273567" stroke-width="1.825"><path d="M147.942 89.118l-8.479-2.927 2.923 8.482m18.996.025l2.912-8.47-8.47 2.894m-.032 18.994l8.465 2.915-2.891-8.468m-18.982-.023l-2.908 8.468 8.463-2.902" stroke-width="1.33369823" fill="#fff"/><path d="M162.151 98.612a10.273 10.273 0 1 1-20.545-.001 10.273 10.273 0 0 1 20.545 0z" fill="none" stroke-width="1.33369823"/></g><path d="M158.202 95.902h9.223V92.96l5.881 5.45-5.881 5.443v-2.942H158.2zm-12.851 5.01h-9.221v2.942l-5.883-5.444 5.883-5.45v2.942h9.22zm3.804-8.927v-9.214h-2.94l5.442-5.883 5.442 5.883h-2.94v9.214zm5.003 13.252v9.215h2.941l-5.442 5.883-5.442-5.883h2.941v-9.215z" fill="#273567"/><path d="M161.929 98.407a10.273 10.273 0 1 1-20.546-.001 10.273 10.273 0 0 1 20.546 0z" fill="#fff" stroke="#273567" stroke-width="1.33369823"/><path d="M151.658 89.349l9.057 9.058-9.058 9.059-9.057-9.06z" fill="#273567"/><path d="M147.631 97.315h1.102c.258 0 .446.052.566.159a.52.52 0 0 1 .178.406.563.563 0 0 1-.093.312.524.524 0 0 1-.269.209 1.49 1.49 0 0 1-.493.065h-.99zm0 3.101v-1.547h.534c.12 0 .205.005.258.016a.669.669 0 0 1 .21.093 1.054 1.054 0 0 1 .233.232c.088.112.198.272.334.48l.461.726h.576l-.602-.948a2.406 2.406 0 0 0-.383-.463 1.225 1.225 0 0 0-.278-.174c.335-.046.582-.155.742-.325a.878.878 0 0 0 .24-.625.99.99 0 0 0-.145-.526.775.775 0 0 0-.387-.332c-.163-.062-.399-.092-.71-.092h-1.545v3.485zm3.942 0v-1.477l-1.342-2.01h.555l.69 1.055c.125.197.243.394.354.59.106-.185.233-.39.384-.616l.674-1.029h.538l-1.39 2.01v1.477zm4.55-1.476c0 .438-.073.733-.216.887-.145.154-.387.232-.726.232a1.015 1.015 0 0 1-.504-.117.647.647 0 0 1-.29-.332c-.055-.143-.084-.367-.084-.67v-2.01h-.461v2.014c0 .37.044.66.133.874a.969.969 0 0 0 .444.49c.209.111.475.168.803.168.336 0 .608-.065.815-.193a1.022 1.022 0 0 0 .428-.504c.081-.207.12-.485.12-.835V96.93h-.462z" fill="#fff"/><path d="M178.352 98.846c0 14.693-11.911 26.605-26.604 26.605-14.695 0-26.605-11.911-26.605-26.605 0-14.693 11.911-26.604 26.604-26.604s26.604 11.911 26.604 26.604z" fill="none" stroke="#2c2c2b" stroke-width=".34646027"/></g><g stroke-width="1.918"><path d="M459.1 98.846c0 14.15-11.472 25.62-25.621 25.62-14.148 0-25.62-11.47-25.62-25.62 0-14.148 11.472-25.62 25.62-25.62 14.15 0 25.62 11.472 25.62 25.62z" fill="#86cfd0"/><path d="M446.29 111.656c0 7.075-5.736 12.81-12.811 12.81s-12.811-5.735-12.811-12.81c0-7.076 5.736-12.81 12.81-12.81 7.076 0 12.812 5.736 12.812 12.81z" fill="#fff"/><path d="M460.084 98.846c0 14.693-11.911 26.605-26.605 26.605s-26.604-11.911-26.604-26.605c0-14.693 11.91-26.604 26.604-26.604 14.693 0 26.605 11.911 26.605 26.604z" fill="none" stroke="#2c2c2b" stroke-width=".34646027"/><path d="M443.752 99.024a10.272 10.272 0 1 1-20.544 0 10.27 10.27 0 0 1 10.272-10.27 10.272 10.272 0 0 1 10.272 10.27z" fill="#fff" stroke="#877ea6" stroke-width="1.33369823"/><path d="M430.458 106.34l3.031 6.187 3.01-6.18" fill="#273567"/><path d="M430.977 92.44v-9.215h-2.94l5.443-5.883 5.441 5.883h-2.94v9.214z" fill="#877ea6"/><path d="M425.691 98.912a7.69 7.69 0 0 1 7.69-7.69 7.692 7.692 0 1 1-7.69 7.69z" fill="#fff" stroke="#2c2c2b" stroke-width=".66626975"/><path d="M441.364 99.024a7.882 7.882 0 0 1-7.884 7.886 7.88 7.88 0 0 1-7.883-7.886 7.88 7.88 0 0 1 7.883-7.882 7.882 7.882 0 0 1 7.884 7.882z" fill="#2c2c2b"/><path d="M440.787 102.076l6.188-3.035-6.176-3.015 2.238-6.515-6.513 2.225-3.036-6.218-3.029 6.216-6.52-2.252 2.248 6.524-6.201 3.026 6.199 3.025" fill="#273567"/><path d="M441.39 99.036a7.901 7.901 0 0 1-7.902 7.902 7.902 7.902 0 1 1 0-15.803 7.9 7.9 0 0 1 7.903 7.902z" fill="#fff" stroke="#273567" stroke-width="1.33369823"/><path d="M438.416 99.035a4.927 4.927 0 1 1-9.854.002 4.927 4.927 0 0 1 9.854-.002z" fill="#273567"/><path d="M429.422 100.75v-2.986h.397v1.478l1.483-1.478h.537l-1.255 1.21 1.31 1.777h-.522l-1.066-1.509-.487.472v1.037zm3.64 0v-1.264l-1.15-1.722h.474l.59.903c.111.168.213.337.307.505.092-.157.2-.333.327-.53l.58-.878h.46l-1.19 1.722v1.265zm2.532-2.41a1.008 1.008 0 0 1 .72-.288.949.949 0 0 1 .891.571c.081.181.123.393.123.637 0 .384-.096.68-.288.89a.95.95 0 0 1-.733.314.948.948 0 0 1-.726-.312c-.194-.206-.29-.49-.29-.85 0-.45.101-.77.301-.962zm-.54 1.7c.114.235.282.421.503.557.22.135.471.203.753.203.258 0 .5-.06.723-.186.225-.12.397-.301.519-.541.122-.24.183-.51.183-.813 0-.3-.058-.566-.174-.801a1.289 1.289 0 0 0-.505-.552 1.423 1.423 0 0 0-.745-.197c-.42 0-.763.14-1.03.42-.264.28-.397.668-.397 1.164 0 .263.057.51.17.747z" fill="#fff"/></g></svg>