<svg xmlns="http://www.w3.org/2000/svg" viewBox="0 0 60 60"><defs><filter id="a" color-interpolation-filters="sRGB"><feFlood flood-opacity=".498" flood-color="#000" result="flood"/><feComposite in="flood" in2="SourceGraphic" operator="in" result="composite1"/><feGaussianBlur in="composite1" stdDeviation="2.5" result="blur"/><feOffset dx="2" dy="2" result="offset"/><feComposite in="SourceGraphic" in2="offset" result="composite2"/></filter></defs><path d="M52.961 30c0 12.68-10.28 22.96-22.962 22.96-12.68 0-22.96-10.28-22.96-22.96 0-12.681 10.28-22.96 22.96-22.96 12.682 0 22.962 10.278 22.962 22.96z" fill="#fff" stroke="#000" stroke-width=".471" filter="url(#a)" transform="translate(-4.762 -4.762) scale(1.15873)"/><g stroke-width="1.918"><path d="M55.649 29.764c0 14.15-11.471 25.62-25.62 25.62-14.148 0-25.619-11.47-25.619-25.62 0-14.148 11.471-25.62 25.62-25.62 14.148 0 25.619 11.472 25.619 25.62z" fill="#86cfd0"/><path d="M42.84 42.575c0 7.074-5.736 12.81-12.81 12.81-7.074 0-12.81-5.736-12.81-12.81 0-7.075 5.736-12.81 12.81-12.81 7.074 0 12.81 5.735 12.81 12.81z" fill="#fff"/><g stroke="#273567" stroke-width="1.334"><path d="m26.194 20.272-8.478-2.927 2.922 8.482m18.996.024 2.912-8.47-8.47 2.894m-.031 18.994 8.464 2.916-2.891-8.468m-18.981-.024-2.909 8.468 8.464-2.901" fill="#fff"/><path d="M40.404 29.765a10.273 10.273 0 1 1-20.546 0 10.273 10.273 0 0 1 20.546 0z" fill="none"/></g><path d="M36.455 27.055h9.222v-2.94l5.882 5.449-5.882 5.443v-2.942h-9.223zm-12.852 5.01h-9.22v2.942l-5.884-5.443 5.883-5.45v2.941h9.221zm3.804-8.926v-9.215h-2.94l5.442-5.882 5.443 5.882H32.41v9.215zm5.004 13.252v9.214h2.94l-5.442 5.883-5.441-5.883h2.94v-9.214z" fill="#273567"/><path d="M40.181 29.56a10.273 10.273 0 1 1-20.545 0 10.273 10.273 0 0 1 20.545 0z" fill="#fff" stroke="#273567" stroke-width="1.334"/><path d="m29.91 20.502 9.058 9.058-9.059 9.06-9.057-9.06z" fill="#273567"/><path d="M25.884 28.469h1.102c.258 0 .446.052.565.158a.52.52 0 0 1 .178.406.563.563 0 0 1-.092.313.524.524 0 0 1-.269.208 1.49 1.49 0 0 1-.494.065h-.99zm0 3.1v-1.546h.534c.12 0 .205.004.257.016a.669.669 0 0 1 .21.093 1.054 1.054 0 0 1 .234.231c.088.113.198.273.334.481l.46.725h.577l-.603-.947a2.406 2.406 0 0 0-.382-.464 1.225 1.225 0 0 0-.278-.174c.334-.046.581-.155.741-.324a.878.878 0 0 0 .24-.626.99.99 0 0 0-.145-.526.775.775 0 0 0-.387-.331c-.162-.063-.398-.093-.709-.093h-1.546v3.485zm3.942 0v-1.477l-1.342-2.01h.555l.69 1.055c.124.197.243.394.354.59.105-.184.233-.39.383-.615l.675-1.03h.537l-1.39 2.01v1.477zm4.55-1.476c0 .438-.073.734-.217.888-.145.154-.387.232-.725.232a1.015 1.015 0 0 1-.504-.117.647.647 0 0 1-.29-.333c-.055-.143-.084-.366-.084-.67v-2.01h-.462v2.015c0 .37.044.66.134.874a.969.969 0 0 0 .443.489c.209.112.476.169.803.169.336 0 .609-.065.815-.194a1.022 1.022 0 0 0 .429-.504c.08-.206.12-.484.12-.834v-2.015h-.462z" fill="#fff"/><path d="M56.605 30c0 14.692-11.912 26.605-26.604 26.605-14.695 0-26.606-11.912-26.606-26.606 0-14.692 11.912-26.604 26.604-26.604 14.693 0 26.605 11.912 26.605 26.604z" fill="none" stroke="#2c2c2b" stroke-width=".346"/></g></svg>