<svg xmlns="http://www.w3.org/2000/svg" viewBox="0 0 60 60"><defs><filter id="a" color-interpolation-filters="sRGB"><feFlood flood-opacity=".498" flood-color="#000" result="flood"/><feComposite in="flood" in2="SourceGraphic" operator="in" result="composite1"/><feGaussianBlur in="composite1" stdDeviation="2.5" result="blur"/><feOffset dx="2" dy="2" result="offset"/><feComposite in="SourceGraphic" in2="offset" result="composite2"/></filter></defs><path d="M52.961 30c0 12.68-10.28 22.96-22.962 22.96-12.68 0-22.96-10.28-22.96-22.96 0-12.681 10.28-22.96 22.96-22.96 12.682 0 22.962 10.278 22.962 22.96z" fill="#fff" stroke="#000" stroke-width=".471" filter="url(#a)" transform="translate(-4.762 -4.762) scale(1.15873)"/><g stroke-width="1.918"><path d="M3.394 30C3.394 15.307 15.306 3.396 30 3.396S56.606 15.307 56.606 30c0 14.694-11.912 26.604-26.605 26.604-14.694 0-26.607-11.91-26.607-26.604z" fill="none" stroke="#2c2c2b" stroke-width=".346"/><path d="M17.19 17.19c0-7.075 5.736-12.81 12.81-12.81 7.075 0 12.81 5.736 12.81 12.81C42.81 24.265 37.076 30 30 30c-7.074 0-12.81-5.735-12.81-12.81z" fill="#86cfd0"/><path d="m39.04 46.882-6.214-3.81v7.625z" fill="#273567"/><path d="M32.5 50.35V36.586h-5.002V50.35z" fill="none" stroke="#273567" stroke-width="1.334"/><path d="m20.936 46.882 6.217-3.81v7.625z" fill="#273567"/><path d="M19.728 29.658a10.273 10.273 0 1 1 20.545.002 10.273 10.273 0 0 1-20.545-.002z" fill="#fff" stroke="#273567" stroke-width="1.334"/><path d="M22.117 29.658A7.882 7.882 0 0 1 30 21.774a7.88 7.88 0 0 1 7.883 7.884A7.88 7.88 0 0 1 30 37.541a7.88 7.88 0 0 1-7.883-7.883z" fill="#273567"/><path d="M34.07 27.525v3.986h-.534v-1.976l-1.97 1.976h-.712l1.67-1.622-1.745-2.364h.695l1.416 2.008.646-.63v-1.378zm-3.743 0v3.986h-2.868v-.467h2.336v-1.227h-2.183v-.467h2.183v-1.358h-2.433v-.467zm-3.786 0v3.986h-.533v-3.986z" fill="#fff"/></g></svg>