<svg xmlns="http://www.w3.org/2000/svg" viewBox="0 0 60 60"><defs><filter id="a" color-interpolation-filters="sRGB"><feFlood flood-opacity=".498" flood-color="#000" result="flood"/><feComposite in="flood" in2="SourceGraphic" operator="in" result="composite1"/><feGaussianBlur in="composite1" stdDeviation="2.5" result="blur"/><feOffset dx="2" dy="2" result="offset"/><feComposite in="SourceGraphic" in2="offset" result="composite2"/></filter></defs><path d="M52.961 30c0 12.68-10.28 22.96-22.962 22.96-12.68 0-22.96-10.28-22.96-22.96 0-12.681 10.28-22.96 22.96-22.96 12.682 0 22.962 10.278 22.962 22.96z" fill="#fff" stroke="#000" stroke-width=".471" filter="url(#a)" transform="translate(-4.762 -4.762) scale(1.15873)"/><g stroke-width="1.918"><path d="M3.395 30c0-14.693 11.912-26.604 26.606-26.604 14.692 0 26.604 11.911 26.604 26.604 0 14.694-11.912 26.604-26.604 26.604-14.693 0-26.606-11.91-26.606-26.604z" fill="none" stroke="#2c2c2b" stroke-width=".346"/><path d="M17.19 17.19c0-7.075 5.735-12.81 12.81-12.81s12.81 5.736 12.81 12.81C42.81 24.265 37.075 30 30 30s-12.81-5.735-12.81-12.81z" fill="#86cfd0"/><path d="M32.502 35.65v9.215h2.941l-5.442 5.882-5.443-5.882h2.94V35.65z" fill="#273567"/><path d="M19.727 29.065a10.273 10.273 0 0 1 20.546 0A10.27 10.27 0 0 1 30 39.335c-5.672 0-10.274-4.597-10.274-10.27z" fill="#fff" stroke="#273567" stroke-width="1.334"/><path d="M22.118 29.065a7.882 7.882 0 0 1 7.884-7.884 7.88 7.88 0 0 1 7.881 7.884 7.88 7.88 0 0 1-7.881 7.883 7.882 7.882 0 0 1-7.884-7.883z" fill="#273567"/><path d="M35.026 26.932v3.986h-.533v-1.976l-1.97 1.977h-.712l1.67-1.622-1.747-2.365h.696l1.416 2.008.648-.628v-1.38zm-4.85 0v1.688l1.531 2.299h-.637l-.776-1.212a9.158 9.158 0 0 1-.415-.673 26.33 26.33 0 0 1-.44.704l-.769 1.18h-.613l1.587-2.298v-1.688zm-3.372 3.213a1.337 1.337 0 0 1-.957.382 1.264 1.264 0 0 1-1.185-.759 2.06 2.06 0 0 1-.162-.846c0-.51.128-.905.382-1.183.255-.278.58-.417.974-.417a1.263 1.263 0 0 1 .964.414c.256.274.385.651.385 1.13 0 .596-.134 1.023-.401 1.278zm.717-2.267a1.746 1.746 0 0 0-.669-.741 1.866 1.866 0 0 0-1-.27 1.97 1.97 0 0 0-.963.245 1.653 1.653 0 0 0-.689.723 2.347 2.347 0 0 0-.243 1.083c0 .398.077.754.23 1.068a1.72 1.72 0 0 0 .672.734 1.892 1.892 0 0 0 .99.263c.56 0 1.015-.186 1.37-.56.353-.373.528-.891.528-1.552 0-.35-.075-.68-.226-.993z" fill="#fff"/></g></svg>