<svg xmlns="http://www.w3.org/2000/svg" width="60" height="60"><defs><filter id="a" color-interpolation-filters="sRGB"><feFlood flood-opacity=".498" flood-color="#000" result="flood"/><feComposite in="flood" in2="SourceGraphic" operator="in" result="composite1"/><feGaussianBlur in="composite1" stdDeviation="2.5" result="blur"/><feOffset dx="2" dy="2" result="offset"/><feComposite in="SourceGraphic" in2="offset" result="composite2"/></filter></defs><path d="M52.961 30c0 12.68-10.28 22.96-22.962 22.96-12.68 0-22.96-10.28-22.96-22.96 0-12.681 10.28-22.96 22.96-22.96 12.682 0 22.962 10.278 22.962 22.96z" fill="#fff" stroke="#000" stroke-width=".471" filter="url(#a)" transform="translate(-4.762 -4.762) scale(1.15873)"/><g stroke-width="1.918"><path d="M454.366 176.518c0-14.692 11.912-26.604 26.605-26.604 14.694 0 26.604 11.912 26.604 26.604 0 14.694-11.91 26.605-26.604 26.605-14.693 0-26.605-11.91-26.605-26.605z" fill="none" stroke="#2c2c2b" stroke-width=".346"/><path d="M468.161 163.709c0-7.076 5.736-12.81 12.81-12.81 7.075 0 12.81 5.736 12.81 12.81 0 7.075-5.735 12.81-12.81 12.81-7.074 0-12.81-5.736-12.81-12.81z" fill="#86cfd0"/><path d="M476.834 182.62l3.946 8.083 3.936-8.08" fill="#273567"/><path d="M488.662 176.415a7.692 7.692 0 11-15.382-.001 7.692 7.692 0 0115.382 0z" fill="#fff" stroke="#273567" stroke-width="1.334"/><path d="M485.899 176.415a4.927 4.927 0 11-9.854-.001 4.927 4.927 0 019.854 0z" fill="#273567"/><path d="M483.466 174.803v2.988h-2.021v-.353h1.624v-.923h-1.406v-.354h1.406v-1.358zm-4.493 2.988h-.396v-1.726c0-.3.034-.536.102-.714a.871.871 0 01.368-.43c.178-.112.41-.166.698-.166.28 0 .51.048.688.145a.827.827 0 01.381.417c.077.184.114.432.114.748v1.726h-.396v-1.721c0-.26-.023-.45-.072-.573a.547.547 0 00-.25-.285.866.866 0 00-.43-.1c-.291 0-.497.067-.621.198-.124.132-.186.386-.186.76z" fill="#fff"/></g><g stroke-width="1.918"><path d="M455.383 243.674c0-14.15 11.471-25.62 25.62-25.62 14.148 0 25.619 11.47 25.619 25.62 0 14.148-11.47 25.62-25.62 25.62-14.148 0-25.62-11.472-25.62-25.62z" fill="#86cfd0"/><path d="M468.192 230.863c0-7.074 5.736-12.809 12.81-12.809 7.075 0 12.811 5.735 12.811 12.809 0 7.075-5.736 12.81-12.81 12.81-7.075 0-12.81-5.735-12.81-12.81z" fill="#fff"/><path d="M473.694 240.625l-6.188 3.037 6.176 3.014-2.24 6.516 6.515-2.226 3.035 6.217 3.029-6.215 6.52 2.252-2.247-6.524 6.202-3.026-6.2-3.025m-4.273-4.283l-3.031-6.187-3.01 6.18" fill="#fff" stroke="#273567" stroke-width="1.334"/><path d="M473.09 243.666a7.901 7.901 0 1115.803 0 7.901 7.901 0 11-15.803 0z" fill="#fff" stroke="#2c2c2b" stroke-width=".666"/><path d="M476.864 249.89l3.946 8.082 3.936-8.08" fill="#273567"/><path d="M488.694 243.684a7.691 7.691 0 11-15.382 0 7.691 7.691 0 0115.382 0z" fill="#fff" stroke="#273567" stroke-width="1.334"/><path d="M485.929 243.684a4.926 4.926 0 01-4.927 4.927 4.927 4.927 0 114.927-4.927z" fill="#273567"/><path d="M482.894 241.922v2.635h.983v.352h-2.363v-.352h.984v-2.635zm-2.302 2.411a1.008 1.008 0 01-.72.287.985.985 0 01-.533-.148.947.947 0 01-.359-.423 1.524 1.524 0 01-.123-.636c0-.385.095-.68.288-.89a.95.95 0 01.732-.313.949.949 0 01.727.31c.193.207.29.49.29.851 0 .449-.1.77-.302.962zm.538-1.701a1.308 1.308 0 00-.502-.556 1.408 1.408 0 00-.753-.203c-.259 0-.5.06-.723.185a1.235 1.235 0 00-.52.542 1.761 1.761 0 00-.183.813c0 .299.058.567.174.8a1.289 1.289 0 00.507.552 1.422 1.422 0 00.744.198c.42 0 .763-.141 1.028-.42.267-.28.4-.669.4-1.165 0-.263-.059-.51-.172-.746z" fill="#fff"/><path d="M454.366 243.43c0-14.692 11.912-26.605 26.605-26.605 14.694 0 26.604 11.912 26.604 26.605s-11.91 26.605-26.604 26.605c-14.693 0-26.605-11.912-26.605-26.605z" fill="none" stroke="#2c2c2b" stroke-width=".346"/></g><g stroke-width="1.918"><path d="M4.38 30C4.38 15.852 15.851 4.382 30 4.382c14.149 0 25.62 11.47 25.62 25.62C55.62 44.149 44.149 55.62 30 55.62 15.852 55.62 4.382 44.149 4.382 30z" fill="#86cfd0"/><path d="M17.19 17.19c0-7.074 5.735-12.809 12.81-12.809 7.076 0 12.811 5.735 12.811 12.81S37.076 30 30.001 30c-7.076 0-12.811-5.736-12.811-12.81z" fill="#fff"/><path d="M3.395 30c0-14.692 11.912-26.605 26.606-26.605 14.693 0 26.604 11.912 26.604 26.606 0 14.692-11.91 26.604-26.604 26.604-14.693 0-26.606-11.912-26.606-26.604z" fill="none" stroke="#2c2c2b" stroke-width=".346"/><path d="M19.727 29.822a10.272 10.272 0 1120.545 0 10.27 10.27 0 01-10.273 10.27 10.272 10.272 0 01-10.272-10.27z" fill="#fff" stroke="#877ea6" stroke-width="1.334"/><path d="M33.021 22.506l-3.03-6.187L26.98 22.5" fill="#273567"/><path d="M32.502 36.407v9.214h2.94l-5.443 5.883-5.441-5.883h2.94v-9.214z" fill="#877ea6"/><path d="M37.788 29.935a7.69 7.69 0 01-7.69 7.69 7.692 7.692 0 117.69-7.69z" fill="#fff" stroke="#2c2c2b" stroke-width=".666"/><path d="M22.115 29.822A7.882 7.882 0 0130 21.937a7.88 7.88 0 017.883 7.885A7.88 7.88 0 0130 37.705a7.882 7.882 0 01-7.884-7.883z" fill="#2c2c2b"/><path d="M22.692 26.77l-6.187 3.036 6.176 3.015-2.239 6.514 6.513-2.224 3.036 6.217 3.03-6.215 6.52 2.251-2.249-6.523 6.202-3.027-6.2-3.024" fill="#273567"/><path d="M22.089 29.81a7.901 7.901 0 017.902-7.902 7.902 7.902 0 110 15.804 7.9 7.9 0 01-7.902-7.903z" fill="#fff" stroke="#273567" stroke-width="1.334"/><path d="M25.063 29.812a4.927 4.927 0 119.854-.003 4.927 4.927 0 01-9.854.003z" fill="#273567"/><path d="M34.057 28.096v2.987h-.396v-1.479l-1.483 1.479h-.538l1.255-1.211-1.31-1.776h.522l1.066 1.508.488-.471v-1.037zm-3.64 0v1.265l1.151 1.722h-.475l-.59-.904a7.825 7.825 0 01-.307-.504c-.091.156-.2.333-.326.53l-.58.878h-.46l1.19-1.722v-1.265zm-2.531 2.41a1.008 1.008 0 01-.72.288.949.949 0 01-.892-.57 1.542 1.542 0 01-.123-.637c0-.385.096-.681.289-.89a.95.95 0 01.732-.314.948.948 0 01.727.312c.193.206.29.49.29.849 0 .45-.101.77-.302.963zm.539-1.7a1.316 1.316 0 00-.502-.556 1.41 1.41 0 00-.753-.203c-.259 0-.5.06-.723.185-.225.12-.398.302-.52.541a1.77 1.77 0 00-.182.814c0 .299.058.565.173.8a1.289 1.289 0 00.506.552 1.423 1.423 0 00.745.197c.42 0 .762-.139 1.029-.42.265-.28.397-.668.397-1.164 0-.263-.057-.51-.17-.746z" fill="#fff"/></g></svg>