<svg clip-rule="evenodd" fill-rule="evenodd" height="50mm" image-rendering="optimizeQuality" shape-rendering="geometricPrecision" text-rendering="geometricPrecision" viewBox="0 0 50 50" width="50mm" xmlns="http://www.w3.org/2000/svg"><linearGradient id="a" gradientUnits="userSpaceOnUse" x1="21.253" x2="77.641" y1="37.592" y2="37.469"><stop offset="0" stop-color="#fff"/><stop offset="1" stop-color="#fff" stop-opacity="0"/></linearGradient><path d="M26.178 9.395c2.6.17 5.004.838 7.222 2.015 2.21 1.169 4.098 2.676 5.656 4.513 1.092 1.287 2.117 2.845 3.082 4.665a28.684 28.684 0 0 1 2.32 5.774 36.511 36.511 0 0 1 1.253 7.46c.177 2.599.262 5.012.262 7.23v5.402H15.468c-.153 0-.22-.407-.212-1.21.009-.814.06-1.466.16-1.965.06-.398.221-.957.467-1.685.254-.728.66-1.609 1.244-2.65.263-.534.89-1.304 1.88-2.32.999-1.016 2.133-2.201 3.429-3.539.745-.762 1.32-1.719 1.744-2.879.423-1.151.601-2.201.533-3.15a8.37 8.37 0 0 1-2.006 1.22c-3.505 1.253-6.045 3.073-7.612 5.452-.118.153-.49.822-1.117 2.015-.33.627-.618 1.059-.847 1.287-.313.314-.77.491-1.363.525-.923.043-1.643-.398-2.16-1.346-.693.203-1.312.288-1.862.254-.923-.347-1.592-.72-2.006-1.117-.847-.847-1.389-1.685-1.651-2.532a9.43 9.43 0 0 1-.381-2.726c0-1.389.855-3.226 2.582-5.512 2.015-2.625 3.09-4.631 3.217-6.003 0-.593.06-1.261.178-2.007a4.198 4.198 0 0 1 .618-1.49c.22-.33.364-.558.432-.677.076-.127.212-.313.415-.559.144-.203.27-.355.372-.457.093-.11.22-.254.373-.44.178-.212.406-.457.694-.745a18.06 18.06 0 0 1-1.067-7.46c3.285 1.169 6.054 3.015 8.28 5.53.551-1.872 1.626-3.387 3.226-4.539 1.321.923 2.371 2.15 3.15 3.666z" fill="#1f1a17"/><path d="M15.688 17.786l.542-.28c.5-.194.652-.559.474-1.092-.195-.491-.576-.66-1.143-.491-1.947.711-3.294 2.015-4.039 3.92-.118.542.076.914.593 1.118.516.16.864-.017 1.041-.55.136-.28.229-.466.297-.543.186.144.423.246.72.297 1.007.16 1.6-.28 1.76-1.338a1.498 1.498 0 0 0-.245-1.041zM11.573 34.55c.06-.153.17-.373.322-.67.28-.693.415-1.108.415-1.244-.026-.457-.271-.694-.72-.694-.33 0-.711.474-1.16 1.414a.97.97 0 0 1-.296.347c-.449.466-.381.855.194 1.168.534.314.94.212 1.245-.321zm14.63-9.204c1.16-1.524 1.728-3.217 1.71-5.08-.067-.55-.38-.82-.94-.82-.761 0-1.057.279-.897.837.051.915-.033 1.668-.27 2.261-.382.94-.805 1.643-1.262 2.108-.254.5-.102.864.449 1.092.525.246.931.119 1.21-.398zM19.726 13.24a6.798 6.798 0 0 1 .051-1.93c-.99.194-1.922.66-2.802 1.388-.525.28-.652.67-.373 1.169.28.508.67.592 1.169.245.347-.186.669-.355.956-.508.288-.16.618-.28 1-.364zm23.25 31.454c-.017 0 0-.449.042-1.346.131-3.108.096-6.221.076-9.33a26.837 26.837 0 0 0-.889-6.613c-.84-3.31-2.124-6.485-4.072-9.297-2.634-3.845-6.814-6.033-11.286-6.976.126.766.033 1.54.076 2.311a25.82 25.82 0 0 1 4.538 2.032c4.241 2.555 6.414 7.276 7.197 11.93 1.272 6.154.453 11.557.813 17.289zM9.439 30.139c.475-.34.525-.729.144-1.194-.398-.381-.83-.415-1.312-.102-1.007.66-1.55 1.533-1.617 2.608.017.542.347.804.974.77.592-.05.88-.355.863-.922.136-.525.449-.915.948-1.16z" fill="url(#a)"/></svg>