<?xml version="1.0" encoding="UTF-8" standalone="no"?>
<!-- Created with Inkscape (http://www.inkscape.org/) -->

<svg
   xmlns:dc="http://purl.org/dc/elements/1.1/"
   xmlns:cc="http://creativecommons.org/ns#"
   xmlns:rdf="http://www.w3.org/1999/02/22-rdf-syntax-ns#"
   xmlns:svg="http://www.w3.org/2000/svg"
   xmlns="http://www.w3.org/2000/svg"
   version="1.1"
   width="182.5313"
   height="210.0938"
   id="svg2"
   style="font-size:12px;font-style:normal;font-weight:normal;fill:#000000;fill-opacity:1;stroke:#000000;stroke-width:1;stroke-linecap:square;stroke-linejoin:miter;stroke-miterlimit:10;stroke-opacity:1;stroke-dasharray:none;stroke-dashoffset:0;font-family:Dialog">
  <metadata
     id="metadata13">
    <rdf:RDF>
      <cc:Work
         rdf:about="">
        <dc:format>image/svg+xml</dc:format>
        <dc:type
           rdf:resource="http://purl.org/dc/dcmitype/StillImage" />
        <dc:title></dc:title>
      </cc:Work>
    </rdf:RDF>
  </metadata>
  <defs
     id="genericDefs" />
  <g
     transform="translate(-37.8281,-125.1562)"
     id="g5">
    <g
       id="g7">
      <path
         d="m 139.7812,236.6719 39.0938,42.75 q 10.5469,-8.2969 14.3438,-16.7344 l 12.7968,0 Q 202.5,279.1406 189.4219,289.4062 L 211.3594,315 q 8.7187,0.4219 9,9.4219 -0.8438,5.9062 -5.0625,8.2969 -4.2188,2.3906 -10.2657,2.5312 -9.9843,-0.5625 -10.5468,-11.6719 l -22.0782,-23.625 q -14.4843,7.875 -27.2812,9 l -5.4844,-9.2812 q 14.3438,-2.3907 23.625,-9.2813 l -34.3125,-40.7812 -34.0312,40.7812 q 9.2812,6.8906 23.4843,9.2813 l -5.3437,9.2812 q -12.9375,-1.125 -27.5625,-9 l -21.9375,23.625 q -0.1406,10.125 -9,11.6719 -5.625,0 -10.8984,-2.0391 -5.2735,-2.039 -5.836,-7.1015 0.1407,-10.6875 9,-11.1094 L 68.7656,289.4062 Q 55.6875,279.1406 52.0312,262.6875 l 12.9376,0 q 3.7968,8.4375 14.3437,16.7344 l 39.0937,-42.75 -76.0781,-90.5625 -4.5,-20.9532 91.125,99.8438 91.4063,-99.8438 -4.6406,20.9532 -75.9376,90.5625 z"
         id="path9"
         style="stroke:none" />
    </g>
  </g>
</svg>
