<svg xmlns="http://www.w3.org/2000/svg" viewBox="0 0 16.933 16.933"><defs><linearGradient id="c"><stop offset="0" stop-opacity=".2"/></linearGradient><linearGradient id="b" gradientTransform="scale(.07)"><stop offset="0" stop-color="#8c8c8c"/></linearGradient><linearGradient id="a" gradientTransform="matrix(.07 0 0 .07 -53.975 2.117)"><stop offset="0" stop-color="#595959"/></linearGradient><linearGradient id="k" x1="76.2" x2="84.667" y1="12.965" y2="12.965" gradientUnits="userSpaceOnUse" href="#a"/><linearGradient id="e" x1="20.637" x2="31.221" y1="8.202" y2="8.202" gradientUnits="userSpaceOnUse" href="#a"/><linearGradient id="l" x1="82.285" x2="84.667" y1="12.832" y2="12.832" gradientUnits="userSpaceOnUse" href="#b"/><linearGradient id="j" x1="19.05" x2="22.225" y1="5.821" y2="5.821" gradientUnits="userSpaceOnUse" href="#b"/><linearGradient id="i" x1="29.633" x2="32.808" y1="5.821" y2="5.821" gradientUnits="userSpaceOnUse" href="#b"/><linearGradient id="h" x1="26.458" x2="29.633" y1="3.44" y2="3.44" gradientUnits="userSpaceOnUse" href="#b"/><linearGradient id="g" x1="22.225" x2="25.4" y1="3.44" y2="3.44" gradientUnits="userSpaceOnUse" href="#b"/><linearGradient id="f" x1="26.988" x2="30.427" y1="9.79" y2="9.79" gradientUnits="userSpaceOnUse" href="#b"/><linearGradient id="d" x1="4.233" x2="103.049" y1="24.342" y2="24.342" gradientTransform="matrix(1 0 0 1.25 .794 -3.043)" gradientUnits="userSpaceOnUse" href="#c"/></defs><path fill="url(#d)" d="M5.027 14.8167c0 .9921 2.646 1.3229 4.2334 1.3229s4.2333-.3308 4.2333-1.323-2.7788-1.3229-4.2333-1.3229-4.2333.3308-4.2333 1.323" class="UnoptimicedTransforms" style="font-variation-settings:normal;-inkscape-stroke:none" transform="matrix(1.215 0 0 1 -2.405 0)"/><g transform="matrix(-1 0 0 1 34.396 0)"><path fill="url(#e)" d="m22.7541 12.9646-2.1166-7.1438c3.175 2.9104 3.175 1.323 3.175-2.3812 2.1166 2.6458 2.1166 2.6458 4.2333 0 0 3.7042-.013 5.3096 3.175 2.3812l-2.1167 7.1438" style="font-variation-settings:normal"/><path fill="url(#f)" d="m29.1041 12.9646-2.1166.2646s1.0583-2.6459 1.0583-6.8792c.7938 1.0583 2.3813 1.0583 2.3813 1.0583s-1.5875 3.7042-1.323 5.5563" style="font-variation-settings:normal"/><path fill="none" stroke="#000" stroke-linejoin="round" stroke-width="1.058" d="m22.225 11.1125-1.5875-5.2917c3.175 2.9105 3.175 1.323 3.175-2.3812 2.1166 3.4396 2.1166 3.4396 4.2333 0 0 3.7042-.013 5.3096 3.175 2.3812l-1.5875 5.2917" style="font-variation-settings:normal"/><circle cx="23.813" cy="3.44" r="1.058" fill="url(#g)" stroke="#000" stroke-linejoin="round" stroke-width="1.058" style="font-variation-settings:normal"/><circle cx="28.046" cy="3.44" r="1.058" fill="url(#h)" stroke="#000" stroke-linejoin="round" stroke-width="1.058" style="font-variation-settings:normal"/><circle cx="31.221" cy="5.821" r="1.058" fill="url(#i)" stroke="#000" stroke-linejoin="round" stroke-width="1.058" style="font-variation-settings:normal"/><circle cx="20.637" cy="5.821" r="1.058" fill="url(#j)" stroke="#000" stroke-linejoin="round" stroke-width="1.058" style="font-variation-settings:normal"/><path fill="url(#k)" d="M76.4646 11.1125s-.2646 2.1167-.2646 3.175c1.5875.5292 4.2334.5292 4.2334.5292s2.6458 0 4.2333-.5292c0-1.0583-.2646-3.175-.2646-3.175-1.3229.5292-3.9687.5292-3.9687.5292s-2.6459 0-3.9688-.5292" transform="translate(-54.504)"/><path fill="url(#l)" d="m83.873 11.1125.7937 3.175-1.852.2646-.5293-2.9104z" style="font-variation-settings:normal" transform="translate(-54.504)"/><path fill="none" stroke="#000" stroke-linecap="round" stroke-linejoin="round" stroke-width="1.058" d="M22.225 11.1125s-.5292 2.1167-.5291 3.175c1.5875.5292 4.2333.5292 4.2333.5292s2.6458 0 4.2333-.5292c0-1.0583-.5292-3.175-.5292-3.175-1.323.5292-3.7042.5292-3.7042.5292s-2.3812 0-3.7041-.5292"/><path fill="none" stroke="#000" stroke-linejoin="round" stroke-width="1.058" d="M29.8979 12.7c-1.323.5292-3.9688.5292-3.9688.5292s-2.6458 0-3.9687-.5292"/></g></svg>