<svg xmlns="http://www.w3.org/2000/svg" viewBox="0 0 16.933 16.933"><path d="M5.027 14.817c0 .992 2.646 1.323 4.233 1.323s4.234-.331 4.234-1.323c0-.993-2.78-1.323-4.234-1.323s-4.233.33-4.233 1.323" class="UnoptimicedTransforms" style="font-variation-settings:normal;-inkscape-stroke:none" transform="matrix(1.215 0 0 1 -2.405 0)"/><path fill="#595959" d="m41.275 12.965.53-6.35h5.29l.53 6.35" style="font-variation-settings:normal;-inkscape-stroke:none" transform="matrix(-1 0 0 1 52.917 0)"/><path fill="#8c8c8c" d="m9.525 6.88.53 6.35 1.587-.265-.53-6.35z" style="font-variation-settings:normal;-inkscape-stroke:none" transform="matrix(-1 0 0 1 16.933 0)"/><path fill="none" stroke="#000" stroke-linejoin="round" stroke-miterlimit="2.4" stroke-width="1.058" d="m41.275 12.7.53-5.027m5.29 0 .53 5.027" style="font-variation-settings:normal;-inkscape-stroke:none" transform="matrix(-1 0 0 1 52.917 0)"/><path fill="#595959" d="M12.435 12.7s.265.53.265 1.588c-1.588.529-4.234.529-4.234.529s-2.646 0-4.233-.53c0-1.058.265-1.587.265-1.587 1.323.53 3.968.53 3.968.53s2.646 0 3.97-.53"/><path fill="#8c8c8c" d="m12.435 12.7.265 1.588-1.852.264-.265-1.323z" style="font-variation-settings:normal;-inkscape-stroke:none" transform="matrix(-1 0 0 1 16.933 0)"/><path fill="none" stroke="#000" stroke-linecap="round" stroke-linejoin="round" stroke-width="1.058" d="M12.435 12.7s.265.53.265 1.588c-1.587.529-4.233.529-4.233.529s-2.646 0-4.234-.53c0-1.058.265-1.587.265-1.587 1.323.53 3.969.53 3.969.53s2.646 0 3.968-.53"/><path fill="#595959" d="M11.641 3.969s.794 2.381.794 3.44c-1.587.529-3.969 0-3.969 0s-2.38.529-3.968 0c0-1.059.529-3.44.529-3.44 1.323.529 3.44.264 3.44.264s1.851.265 3.174-.264"/><path fill="#8c8c8c" d="m11.906 5.292.265 2.116-.794.794-.53-4.233h.795" style="font-variation-settings:normal;-inkscape-stroke:none" transform="matrix(-1 0 0 1 16.933 0)"/><path fill="none" stroke="#000" stroke-linecap="round" stroke-linejoin="round" stroke-width="1.058" d="M12.17 3.969s.266 2.381.265 3.44c-1.322.529-3.968.529-3.968.529s-2.646 0-3.969-.53c0-1.058.264-3.44.264-3.44z"/><path fill="none" stroke="#000" stroke-linejoin="round" stroke-width="1.058" d="m7.144 3.704-.147 2.381m2.634-2.38.147 2.38" class="UnoptimicedTransforms" style="font-variation-settings:normal" transform="matrix(-1 0 0 1 16.854 .007)"/></svg>