<svg xmlns="http://www.w3.org/2000/svg" viewBox="0 0 16.933 16.933"><defs><linearGradient id="c"><stop offset="0" stop-opacity=".2"/></linearGradient><linearGradient id="b" gradientTransform="scale(.07)"><stop offset="0" stop-color="#8c8c8c"/></linearGradient><linearGradient id="a" gradientTransform="matrix(.07 0 0 .07 -53.975 2.117)"><stop offset="0" stop-color="#595959"/></linearGradient><linearGradient id="i" x1="4.498" x2="12.435" y1="5.806" y2="5.806" gradientUnits="userSpaceOnUse" href="#a"/><linearGradient id="g" x1="4.233" x2="12.7" y1="13.758" y2="13.758" gradientUnits="userSpaceOnUse" href="#a"/><linearGradient id="e" x1="41.275" x2="47.625" y1="9.79" y2="9.79" gradientUnits="userSpaceOnUse" href="#a"/><linearGradient id="j" x1="10.848" x2="12.171" y1="6.085" y2="6.085" gradientUnits="userSpaceOnUse" href="#b"/><linearGradient id="h" x1="10.583" x2="12.7" y1="13.626" y2="13.626" gradientUnits="userSpaceOnUse" href="#b"/><linearGradient id="f" x1="9.525" x2="11.642" y1="9.922" y2="9.922" gradientUnits="userSpaceOnUse" href="#b"/><linearGradient id="d" x1="4.233" x2="103.049" y1="24.342" y2="24.342" gradientTransform="matrix(1 0 0 1.25 .794 -3.043)" gradientUnits="userSpaceOnUse" href="#c"/></defs><path fill="url(#d)" d="M5.027 14.8167c0 .9921 2.646 1.3229 4.2334 1.3229s4.2333-.3308 4.2333-1.323-2.7788-1.3229-4.2333-1.3229-4.2333.3308-4.2333 1.323" class="UnoptimicedTransforms" style="font-variation-settings:normal;-inkscape-stroke:none" transform="matrix(1.215 0 0 1 -2.405 0)"/><path fill="url(#e)" d="m41.275 12.9646.5292-6.35h5.2916l.5292 6.35" style="font-variation-settings:normal;-inkscape-stroke:none" transform="matrix(-1 0 0 1 52.917 0)"/><path fill="url(#f)" d="m9.525 6.8792.5291 6.35 1.5875-.2646-.5291-6.35z" style="font-variation-settings:normal;-inkscape-stroke:none" transform="matrix(-1 0 0 1 16.933 0)"/><path fill="none" stroke="#000" stroke-linejoin="round" stroke-miterlimit="2.4" stroke-width="1.058" d="m41.275 12.7.5292-5.027m5.2916 0 .5292 5.027" style="font-variation-settings:normal;-inkscape-stroke:none" transform="matrix(-1 0 0 1 52.917 0)"/><path fill="url(#g)" d="M4.4979 12.7s-.2646.5292-.2646 1.5875c1.5875.5292 4.2334.5292 4.2334.5292s2.6458 0 4.2333-.5292c0-1.0583-.2646-1.5875-.2646-1.5875-1.323.5292-3.9687.5292-3.9687.5292s-2.6459 0-3.9688-.5292" transform="matrix(-1 0 0 1 16.933 0)"/><path fill="url(#h)" d="m12.4354 12.7.2646 1.5875-1.8521.2646-.2646-1.323z" style="font-variation-settings:normal;-inkscape-stroke:none" transform="matrix(-1 0 0 1 16.933 0)"/><path fill="none" stroke="#000" stroke-linecap="round" stroke-linejoin="round" stroke-width="1.058" d="M12.4355 12.7s.2646.5292.2645 1.5875c-1.5875.5292-4.2333.5292-4.2333.5292s-2.6458 0-4.2333-.5292c0-1.0583.2646-1.5875.2646-1.5875 1.3229.5292 3.9687.5292 3.9687.5292s2.6459 0 3.9688-.5292"/><path fill="url(#i)" d="M5.2916 3.9688S4.498 6.35 4.498 7.4083c1.5875.5292 3.9688 0 3.9688 0s2.3812.5292 3.9687 0c0-1.0583-.5292-3.4395-.5292-3.4395-1.3229.5291-3.4396.2645-3.4396.2645s-1.852.2646-3.175-.2645" transform="matrix(-1 0 0 1 16.933 0)"/><path fill="url(#j)" d="m11.9062 5.2917.2646 2.1166-.7937.7938-.5292-4.2334h.7937" style="font-variation-settings:normal;-inkscape-stroke:none" transform="matrix(-1 0 0 1 16.933 0)"/><path fill="none" stroke="#000" stroke-linecap="round" stroke-linejoin="round" stroke-width="1.058" d="M12.1708 3.9688s.2647 2.3812.2647 3.4395c-1.323.5292-3.9688.5292-3.9688.5292s-2.6458 0-3.9687-.5292c0-1.0583.2645-3.4396.2645-3.4396z"/><path fill="none" stroke="#000" stroke-linejoin="round" stroke-width="1.058" d="m7.1437 3.7042-.1466 2.3812m2.6342-2.3812.1466 2.3812" class="UnoptimicedTransforms" style="font-variation-settings:normal" transform="matrix(-1 0 0 1 16.854 .007)"/></svg>