<svg xmlns="http://www.w3.org/2000/svg" viewBox="0 0 16.933 16.933"><path d="M5.027 14.817c0 .992 2.646 1.323 4.233 1.323s4.234-.331 4.234-1.323c0-.993-2.78-1.323-4.234-1.323s-4.233.33-4.233 1.323" class="UnoptimicedTransforms" style="font-variation-settings:normal;-inkscape-stroke:none" transform="matrix(1.215 0 0 1 -2.405 0)"/><g transform="translate(-17.462)"><path fill="#a6a6a6" stroke="#000" stroke-linecap="round" stroke-linejoin="round" stroke-width="1.058" d="M25.93 1.323v3.44" style="font-variation-settings:normal"/><ellipse cx="25.929" cy="7.144" fill="#fff" stroke="#000" stroke-linecap="round" stroke-linejoin="round" stroke-width="1.058" rx="2.117" ry="2.91" style="font-variation-settings:normal"/><path fill="#fff" stroke="#000" stroke-linecap="round" stroke-linejoin="round" stroke-width="1.058" d="M94.72 11.113s-2.116-1.059-2.116-3.175c0-1.059 1.001-2.117 2.117-2.117 2.116 0 3.704 1.587 3.704 5.556" style="font-variation-settings:normal" transform="translate(-72.496)"/><path fill="#fff" d="M21.96 11.113s-.264 2.116-.264 3.175c1.587.529 4.233.529 4.233.529s2.646 0 4.234-.53c0-1.058-.265-3.174-.265-3.174-1.323.529-3.969.529-3.969.529s-2.646 0-3.969-.53"/><path fill="#ccc" d="m29.369 11.113.793 3.175-1.852.264-.529-2.91z" style="font-variation-settings:normal;-inkscape-stroke:none"/><path fill="#fff" d="M29.633 11.113s2.117-1.059 2.117-3.175c0-1.059-1.001-2.117-2.117-2.117-2.116 0-3.704 1.587-3.704 5.556" style="font-variation-settings:normal"/><path fill="#ccc" d="M30.162 6.35c0 2.646-.793 3.704-2.116 4.763 2.116 0 3.704-1.853 3.704-3.175 0-.882-1.588-1.588-1.588-1.588" style="font-variation-settings:normal"/><path fill="none" stroke="#000" stroke-linecap="round" stroke-linejoin="round" stroke-width="1.058" d="M22.225 11.113s-.53 2.116-.53 3.175c1.588.529 4.234.529 4.234.529s2.646 0 4.234-.53c0-1.058-.53-3.174-.53-3.174-1.323.529-3.704.529-3.704.529s-2.381 0-3.704-.53"/><path fill="#a6a6a6" stroke="#000" stroke-linecap="round" stroke-linejoin="round" stroke-width="1.058" d="M24.87 2.381h2.117" style="font-variation-settings:normal"/><path fill="none" stroke="#000" stroke-linejoin="round" stroke-width="1.058" d="M29.898 12.7c-1.323.53-3.969.53-3.969.53s-2.646 0-3.969-.53"/><path fill="none" stroke="#000" stroke-linecap="round" stroke-linejoin="round" stroke-width="1.058" d="M29.633 11.113s2.117-1.059 2.117-3.175c0-1.059-1.001-2.117-2.117-2.117-2.116 0-3.704 1.587-3.704 5.556" style="font-variation-settings:normal"/></g></svg>