<svg xmlns="http://www.w3.org/2000/svg" viewBox="0 0 16.933 16.933"><defs><linearGradient id="a"><stop offset="0" stop-color="#fff"/></linearGradient><linearGradient id="b" gradientTransform="translate(0 2.117)"><stop offset="0" stop-color="#ccc"/></linearGradient><linearGradient id="c"><stop offset="0" stop-opacity=".2"/></linearGradient><linearGradient id="i" x1="25.929" x2="31.75" y1="8.599" y2="8.599" gradientUnits="userSpaceOnUse" href="#a"/><linearGradient id="g" x1="21.696" x2="30.163" y1="12.965" y2="12.965" gradientUnits="userSpaceOnUse" href="#a"/><linearGradient id="f" x1="92.075" x2="98.954" y1="8.599" y2="8.599" gradientUnits="userSpaceOnUse" href="#a"/><linearGradient id="e" x1="23.283" x2="28.575" y1="7.144" y2="7.144" gradientUnits="userSpaceOnUse" href="#a"/><linearGradient id="j" gradientTransform="translate(0 2.117)" gradientUnits="userSpaceOnUse" href="#b"/><linearGradient id="h" gradientTransform="translate(0 2.117)" gradientUnits="userSpaceOnUse" href="#b"/><linearGradient id="d" x1="4.233" x2="103.049" y1="24.342" y2="24.342" gradientTransform="matrix(1 0 0 1.25 .794 -3.043)" gradientUnits="userSpaceOnUse" href="#c"/></defs><path fill="url(#d)" d="M5.027 14.8167c0 .9921 2.646 1.3229 4.2334 1.3229s4.2333-.3308 4.2333-1.323-2.7788-1.3229-4.2333-1.3229-4.2333.3308-4.2333 1.323" class="UnoptimicedTransforms" style="font-variation-settings:normal;-inkscape-stroke:none" transform="matrix(1.215 0 0 1 -2.405 0)"/><g transform="translate(-17.462)"><path fill="#a6a6a6" stroke="#000" stroke-linecap="round" stroke-linejoin="round" stroke-width="1.058" d="M25.9291 1.323v3.4395" style="font-variation-settings:normal"/><ellipse cx="25.929" cy="7.144" fill="url(#e)" stroke="#000" stroke-linecap="round" stroke-linejoin="round" stroke-width="1.058" rx="2.117" ry="2.91" style="font-variation-settings:normal"/><path fill="url(#f)" stroke="#000" stroke-linecap="round" stroke-linejoin="round" stroke-width="1.058" d="M94.7208 11.1125s-2.1166-1.0583-2.1166-3.175c0-1.0583 1.001-2.1167 2.1166-2.1167 2.1167 0 3.7042 1.5875 3.7042 5.5563" style="font-variation-settings:normal" transform="translate(-72.496)"/><path fill="url(#g)" d="M21.9604 11.1125s-.2646 2.1167-.2646 3.175c1.5875.5292 4.2334.5292 4.2334.5292s2.6458 0 4.2333-.5292c0-1.0583-.2646-3.175-.2646-3.175-1.323.5292-3.9687.5292-3.9687.5292s-2.6459 0-3.9688-.5292"/><path fill="url(#h)" d="m29.3687 11.1125.7938 3.175-1.852.2646-.5293-2.9104z" style="font-variation-settings:normal;-inkscape-stroke:none"/><path fill="url(#i)" d="M29.6333 11.1125s2.1167-1.0583 2.1167-3.175c0-1.0583-1.001-2.1167-2.1167-2.1167-2.1167 0-3.7042 1.5875-3.7042 5.5563" style="font-variation-settings:normal"/><path fill="url(#j)" d="M30.1625 6.35c0 2.6458-.7938 3.7042-2.1167 4.7625 2.1167 0 3.7042-1.852 3.7042-3.175 0-.882-1.5876-1.5875-1.5876-1.5875" style="font-variation-settings:normal"/><path fill="none" stroke="#000" stroke-linecap="round" stroke-linejoin="round" stroke-width="1.058" d="M22.225 11.1125s-.5292 2.1167-.5292 3.175c1.5875.5292 4.2334.5292 4.2334.5292s2.6458 0 4.2333-.5292c0-1.0583-.5292-3.175-.5292-3.175-1.323.5292-3.7042.5292-3.7042.5292s-2.3812 0-3.7042-.5292"/><path fill="#a6a6a6" stroke="#000" stroke-linecap="round" stroke-linejoin="round" stroke-width="1.058" d="M24.8708 2.3813h2.1167" style="font-variation-settings:normal"/><path fill="none" stroke="#000" stroke-linejoin="round" stroke-width="1.058" d="M29.8979 12.7c-1.323.5292-3.9688.5292-3.9688.5292s-2.6458 0-3.9687-.5292"/><path fill="none" stroke="#000" stroke-linecap="round" stroke-linejoin="round" stroke-width="1.058" d="M29.6333 11.1125s2.1167-1.0583 2.1167-3.175c0-1.0583-1.001-2.1167-2.1167-2.1167-2.1167 0-3.7042 1.5875-3.7042 5.5563" style="font-variation-settings:normal"/></g></svg>