<svg xmlns="http://www.w3.org/2000/svg" viewBox="0 0 16.933 16.933"><defs><linearGradient id="a"><stop offset="0" stop-color="#fff"/></linearGradient><linearGradient id="b" gradientTransform="translate(0 2.117)"><stop offset="0" stop-color="#ccc"/></linearGradient><linearGradient id="c"><stop offset="0" stop-opacity=".2"/></linearGradient><linearGradient id="e" x1="4.085" x2="13.229" y1="8.864" y2="8.864" gradientUnits="userSpaceOnUse" href="#a"/><linearGradient id="f" gradientTransform="translate(0 2.117)" gradientUnits="userSpaceOnUse" href="#b"/><linearGradient id="d" x1="4.233" x2="103.049" y1="24.342" y2="24.342" gradientTransform="matrix(1 0 0 1.25 .794 -3.043)" gradientUnits="userSpaceOnUse" href="#c"/></defs><path fill="url(#d)" d="M5.027 14.8167c0 .9922 2.646 1.3229 4.2334 1.3229 1.5875 0 4.2333-.3307 4.2333-1.323 0-.9921-2.7787-1.3229-4.2333-1.3229s-4.2333.3308-4.2333 1.323" class="UnoptimicedTransforms" style="font-variation-settings:normal;-inkscape-stroke:none" transform="matrix(1.094 0 0 1 -1.265 0)"/><path fill="url(#e)" d="M4.7625 14.2875c1.5875.5292 3.7042.5292 3.7042.5292s2.1166 0 3.7041-.5292c-.7937-2.3813 1.0584-3.9688 1.0584-6.35 0-3.9688-4.7625-5.027-4.7625-5.027v1.3228s-3.9688 2.9104-4.2334 3.175-.1183.5571 0 .7938c.2646.5291.5292.7937.7938 1.0583q.3968.3969.7937 0c.2646-.2646.7938-.5292 1.0584-.5292.2645 0 1.0583.2646 1.3229.2646s1.3229-.2646 1.852-.7937C8.7313 9.525 7.9376 9.525 7.1438 10.054c-.7937.5292-2.3812 2.1167-2.3812 4.2334"/><path fill="url(#f)" d="m-6.0854 12.7.2645 1.5875-2.3812.5292c-.5292-3.9688 2.9104-4.2334 2.9104-6.8792.7938.7937-.7937 4.7625-.7937 4.7625" style="font-variation-settings:normal;-inkscape-stroke:none" transform="translate(17.992)"/><path fill="none" stroke="#000" stroke-linecap="round" stroke-linejoin="round" stroke-width="1.058" d="M4.7625 14.2875c1.5875.5292 3.7042.5292 3.7042.5292s2.1166 0 3.7041-.5292c-.7937-2.3813 1.0584-3.9688 1.0584-6.35 0-3.9688-4.7625-5.027-4.7625-5.027v1.3228s-3.9688 2.9104-4.2334 3.175-.1183.5571 0 .7938c.2646.5291.5292.7937.7938 1.0583q.3968.3969.7937 0c.2646-.2646.7938-.5292 1.0584-.5292.2645 0 1.0583.2646 1.3229.2646s1.3229-.2646 1.852-.7937C8.7313 9.525 7.9376 9.525 7.1438 10.054c-.7937.5292-2.3812 2.1167-2.3812 4.2334"/><circle cx="8.731" cy="6.085" r=".529"/><path fill="none" stroke="#000" stroke-linejoin="round" stroke-width="1.058" d="M11.9062 12.7c-1.3229.5292-3.4395.5292-3.4395.5292s-2.1167 0-3.4396-.5292"/></svg>