<svg xmlns="http://www.w3.org/2000/svg" id="Layer_2" data-name="Layer 2" viewBox="0 0 72 72"><defs><style>.cls-2{fill:#f4c38e}</style></defs><g id="Lichess"><path d="M55.96 26.96c-2.17-1.02-4.67-1.85-7.43-2.47.71-.99 1.13-2.2 1.13-3.5v-4.13c0-3.17-2.48-5.78-5.6-5.99v-.37c0-3.31-2.69-6-6-6h-4.13c-3.31 0-6 2.69-6 6v.37c-3.12.21-5.6 2.81-5.6 5.99v4.13c0 1.31.42 2.52 1.13 3.5-2.76.62-5.26 1.45-7.43 2.47-3 1.41-4.58 4.78-3.76 8l4.72 18.42-1.58 1.52c-.16.15-.3.31-.44.48a6.31 6.31 0 0 0-1.51 4.1v2.85c0 2.85 2.32 5.17 5.17 5.17h34.72c2.85 0 5.17-2.32 5.17-5.17v-2.85c0-1.49-.54-2.94-1.51-4.1-.14-.18-.29-.35-.44-.48l-1.58-1.52 4.72-18.42c.83-3.22-.75-6.58-3.75-7.99Z" style="fill:#1a1a1a"/><path d="M33.93 8.5h4.13c1.1 0 2 .9 2 2v17.32h-8.13V10.5c0-1.1.9-2 2-2Z" class="cls-2"/><rect width="8.13" height="19.32" x="31.93" y="9.26" class="cls-2" rx="2" ry="2" transform="rotate(90 36 18.93)"/><path d="M54.26 30.58c-4.45-2.1-10.98-3.42-18.26-3.42s-13.8 1.32-18.26 3.42c-1.27.6-1.93 2.02-1.58 3.38l5.3 20.68-3.27 3.14c-.05.05-.09.11-.13.16-.37.43-.59.97-.59 1.54v2.85c0 .65.53 1.17 1.17 1.17h34.71c.65 0 1.17-.53 1.17-1.17v-2.85c0-.57-.22-1.11-.59-1.54-.05-.05-.08-.11-.13-.16l-3.27-3.14 5.3-20.68c.35-1.36-.31-2.78-1.58-3.38Z" style="fill:#fff2d4"/><path d="M36 49.35c-6.16 0-11.94-1.53-16.97-4.21l2.44 9.51h29.07l2.44-9.51c-5.03 2.68-10.81 4.21-16.97 4.21Z" style="fill:#ffdfb5"/><path d="M17.47 62.33c0 .65.53 1.17 1.17 1.17h34.71c.65 0 1.17-.53 1.17-1.17v-2.85c0-.57-.22-1.11-.59-1.54H18.06c-.37.43-.59.97-.59 1.54v2.85Z" class="cls-2"/></g></svg>