<svg xmlns="http://www.w3.org/2000/svg" viewBox="0 0 60 60"><defs><filter id="a" color-interpolation-filters="sRGB"><feFlood flood-color="#000" flood-opacity=".498" result="flood"/><feComposite in="flood" in2="SourceGraphic" operator="in" result="composite1"/><feGaussianBlur in="composite1" result="blur" stdDeviation="1"/><feOffset dx="5" dy="3" result="offset"/><feComposite in="SourceGraphic" in2="offset" result="composite2"/></filter></defs><g opacity=".99"><g fill-opacity=".992" filter="url(#a)" transform="matrix(.6 0 0 .6 -189.175 2.272)"><path fill="#e5e5e5" d="m365.292 8.535-20.027 6.098-10.682 63.589H396L385.331 14.71z"/><path fill="#787878" d="M334.583 78.222v5.668H396v-5.668z"/></g><path fill="#e6e6e6" fill-opacity=".984" stroke="#000" stroke-width=".891" d="M282.83 136.555c.204-5.885-.111-10.125-2.838-12.313 3.375-1.142 3.844-3.428 4.194-4.471.35 1.043.82 3.33 4.194 4.471-2.726 2.188-3.042 6.428-2.838 12.313-.479.154-.912.23-1.356.233a4.4 4.4 0 0 1-1.356-.233z" opacity=".99" transform="matrix(.73724 0 0 .74356 -179.448 -74.672)"/><path stroke="#000" stroke-width=".84" d="M24.846 26.278c2.365-4.651 8.267-4.771 10.458 0-2.395.978-2.252 1.214-5.215 1.2s-1.768.177-5.243-1.2z"/><g stroke="#000"><path stroke-width=".84" d="M21.147 38.804c6.16 2.507 12.115 2.587 17.845 0l-3.366-9.553c-3.366 1.338-7.688 1.617-11.06-.076z"/><path stroke-width="13.49" d="m166.796 305.119-54.464 95.975-8.754-6.962-40.59 61.712-7.283-9.989c-17.703 21.022-27.021 32.762-44.724 53.784 14.216 20.56 44.13 49.69 71.96 55.397 13.294-25.846 83.135-195.794 102.034-237.34M380.21 305.12l54.464 95.975 8.754-6.962 40.59 61.712 7.283-9.989c17.702 21.022 27.021 32.762 44.724 53.784-14.216 20.56-44.13 49.69-71.961 55.397-13.293-25.846-83.134-195.794-102.034-237.34" transform="matrix(.0573 0 0 .06768 14.33 7.575)"/><path fill="none" stroke="#e6e6e6" stroke-opacity=".984" stroke-width=".84" d="M24.34 31.406c3.573 1.823 7.891 1.874 11.376-.026"/><path fill="#e6e6e6" fill-opacity=".984" stroke-width="9.635" d="M97.159 111.627c-2.764 121.396 18.343 216.749 177.984 218.95 159.641-2.201 180.748-97.554 177.985-218.95-11.066 132.287-51.513 167.404-177.985 175.038-126.471-7.634-166.92-42.75-177.984-175.038z" transform="matrix(.0573 0 0 .06768 14.33 7.575)"/></g><path fill="none" stroke="#e6e6e6" stroke-opacity=".984" stroke-width=".84" d="M20.821 33.653c.19.092.244.16.32.213l1.871 1.492m16.16-1.69c-1.322.631-1.612.843-2.418 1.265m-18.629 2.272 3.607 2.256m20.206-2.256-3.606 2.256m-16.884-.081 3.786-10.121m9.76-.035 3.553 10.255"/></g></svg>