<svg xmlns="http://www.w3.org/2000/svg" width="52.157" height="60"><defs><filter id="a" color-interpolation-filters="sRGB"><feFlood flood-opacity=".498" flood-color="#000" result="flood"/><feComposite in="flood" in2="SourceGraphic" operator="in" result="composite1"/><feGaussianBlur in="composite1" stdDeviation="1" result="blur"/><feOffset dx="5" dy="3" result="offset"/><feComposite in="SourceGraphic" in2="offset" result="composite2"/></filter></defs><g opacity=".99"><g transform="matrix(.6 0 0 .6 -94.015 1.885)" filter="url(#a)"><path d="M200.156 8l-21.702 7.118-10.187 64.931h63.779l-10.189-64.93z" fill="#fcc8dc" fill-opacity=".992"/><path d="M168.267 80.05v5.668h63.779v-5.67z" fill="#dc7ea2" fill-opacity=".992"/></g><g stroke-width=".6"><path d="M36.861 25.733l-12.877.978" fill="none" stroke="#000" stroke-width=".9597122"/><path d="M41.178 38.128c-6.458-.454-12.51-.065-21.303 0m.663-4.71c3.798-6.231 9.639-4.197 13.71-4.142 3.401 2.017 3.9 2.18 5.147 3.7 1.318 1.77 1.654 3 1.759 5.173-6.571 2.368-13.14 2.854-21.003.453-.12-1.93.168-3.568.387-5.185z" stroke="#000" stroke-width=".5400186"/><g fill="none" stroke="#000" stroke-width="1.615"><path d="M20.598 26.324c-.947 4.567-1.184 8.752-1.56 13.355-.722 3.423-5.35 7-8.004 6.257 1.09-6.097.755-15.031 4.14-26.007 2.085-.295 4.227-.417 6.5-.653.757.039 1.316.191 1.84.54.705.996 2.231 4.281 2.859 5.896l-.3 3.36c-1.48.606-2.31 1.213-3.413 1.819z" stroke-width=".60005325"/><path d="M22.747 30.716c-1.37-2.957-1.772-4.411-3.495-7.218-.698-.86-1.408-1.703-2.215-2.4-.917-.298-1.145-.664-2.063-.353" stroke-width=".60005325"/></g><path d="M33.948 29.28l1.537-11.836c.553-3.203-.182-4.926-2.85-4.43-2.46.7-4.018 3.042-5.274 5.934l-1.249 10.147c4.293-.408 5.71-.112 7.836.184z" stroke="#000" stroke-width=".5400186"/><path d="M40.772 34.677c-.185.074-.271.06-.644-.06-4.78-1.54-9.151-3.192-19.446-.855-.096.022-.394.093-.565.074" fill="none" stroke="#fcc7dc" stroke-width=".9597122" stroke-opacity=".988"/></g><path d="M41.424 37.882c-.201.017-.635-.106-.723-.128-6.479-1.596-12.851-1.912-20.21.431-.182.058-.545.065-.74.081M34.391 28.473c-3.697-.418-5.571-.476-8.06-.179-.319.038-.478.077-.571.066" fill="none" stroke="#fcc7dc" stroke-width=".9601935" stroke-opacity=".988"/></g></svg>