<?xml version="1.0" encoding="UTF-8" standalone="no"?>
<svg
   xmlns:dc="http://purl.org/dc/elements/1.1/"
   xmlns:cc="http://creativecommons.org/ns#"
   xmlns:rdf="http://www.w3.org/1999/02/22-rdf-syntax-ns#"
   xmlns:svg="http://www.w3.org/2000/svg"
   xmlns="http://www.w3.org/2000/svg"
   xmlns:sodipodi="http://sodipodi.sourceforge.net/DTD/sodipodi-0.dtd"
   xmlns:inkscape="http://www.inkscape.org/namespaces/inkscape"
   width="60"
   height="60"
   version="1.1"
   id="svg45"
   sodipodi:docname="0NK.svg"
   inkscape:version="1.0.1 (3bc2e813f5, 2020-09-07)">
  <metadata
     id="metadata49">
    <rdf:RDF>
      <cc:Work
         rdf:about="">
        <dc:format>image/svg+xml</dc:format>
        <dc:type
           rdf:resource="http://purl.org/dc/dcmitype/StillImage" />
      </cc:Work>
    </rdf:RDF>
  </metadata>
  <sodipodi:namedview
     pagecolor="#ffffff"
     bordercolor="#666666"
     borderopacity="1"
     objecttolerance="10"
     gridtolerance="10"
     guidetolerance="10"
     inkscape:pageopacity="0"
     inkscape:pageshadow="2"
     inkscape:window-width="1366"
     inkscape:window-height="711"
     id="namedview47"
     showgrid="false"
     inkscape:zoom="9.1"
     inkscape:cx="30"
     inkscape:cy="30"
     inkscape:window-x="0"
     inkscape:window-y="0"
     inkscape:window-maximized="1"
     inkscape:current-layer="svg45" />
  <defs
     id="defs13">
    <filter
       id="a"
       color-interpolation-filters="sRGB">
      <feFlood
         flood-opacity=".498"
         flood-color="#000"
         result="flood"
         id="feFlood2" />
      <feComposite
         in="flood"
         in2="SourceGraphic"
         operator="in"
         result="composite1"
         id="feComposite4" />
      <feGaussianBlur
         in="composite1"
         stdDeviation="1"
         result="blur"
         id="feGaussianBlur6" />
      <feOffset
         dx="5"
         dy="3"
         result="offset"
         id="feOffset8" />
      <feComposite
         in="SourceGraphic"
         in2="offset"
         result="composite2"
         id="feComposite10" />
    </filter>
  </defs>
  <g
     opacity="0.99"
     id="g43"
     transform="translate(3.9214985)">
    <g
       transform="matrix(0.6,0,0,0.6,-241.805,-50.698)"
       filter="url(#a)"
       id="g19">
      <path
         d="m 446.472,98 -19.256,5.892 -10.271,61.433 H 476 l -10.259,-61.359 z"
         fill="#fee572"
         id="path15" />
      <path
         d="m 416.945,165.325 v 5.668 H 476 v -5.669 z"
         fill="#c3983c"
         fill-opacity="0.992"
         id="path17" />
    </g>
    <g
       opacity="0.99"
       id="g41">
      <g
         stroke-width="1.386"
         id="g29">
        <path
           d="m 19.37,12.42 c -0.73,1.378 -0.447,2.955 -0.447,4.469 -1.204,2.48 -2.019,4.388 -1.851,6.64 -1.565,1.743 -2.94,3.6 -3.831,5.747 -0.254,1.064 -0.474,2.128 -0.064,3.192 l 0.574,0.32 c 0.741,1.536 0.96,1.876 2.618,1.66 0.914,-2.832 0.79,-0.976 0.894,0.766 2.54,-0.818 2.482,-2.185 3.815,-4.24 2.016,-0.932 2.891,-1.404 4.869,-2.145 l 0.894,-0.575 1.34,-2.235 -1.213,2.171 0.32,1.405 c 0,0 0.063,1.277 0,1.596 -0.135,2.058 -1.958,4.543 -3.434,5.813 -2.017,1.536 -2.406,2.963 -2.696,5.425 9.85,5.466 14.682,2.906 19.219,-0.128 A 32.84,32.84 0 0 0 39.6,38.813 C 38.51,35.157 38.306,32.846 38.142,26.53 37.838,21.9 33.097,15.427 27.07,15.734 l -2.975,-4.592 c -1.252,1.115 -1.07,2.77 -1.277,4.342 L 21.86,15.357 Z"
           fill="#ff0000"
           stroke="#ff0000"
           stroke-width="0.659816"
           id="path21" />
        <path
           d="M 26.816,28.158 C 27.502,26.96 27.59,24.974 27.52,24.257"
           fill="none"
           stroke="#fee572"
           stroke-width="0.840181"
           id="path23" />
        <path
           d="m 21.223,20.858 c -2.099,0.563 -1.774,1.123 -2.335,2.164 1.733,0.135 2.622,-0.883 2.335,-2.164 z"
           fill="#fee572"
           stroke="#fee572"
           stroke-width="0.899998"
           id="path25" />
        <path
           d="m 28.039,17.833 c 0.91,-0.52 2.72,0.5 3.379,1.057 2.184,1.845 4.668,4.236 4.707,7.314 0.6,4.78 0.377,11.449 2.19,15.474"
           fill="none"
           stroke="#fee572"
           stroke-width="1.32009"
           id="path27" />
      </g>
      <path
         d="m 16.748,34.636 1.681,-2.374"
         fill="none"
         stroke="#fee572"
         stroke-width="0.840361"
         id="path31" />
      <path
         d="m 14.347,31.302 c -0.409,-0.764 0.156,-0.949 1.072,-1.816"
         fill="none"
         stroke="#fee572"
         stroke-width="0.840378"
         id="path33" />
      <path
         d="m 14.548,26.574 3.95,2.303 c 2.275,-3.764 2.286,-3.7 4.549,-6.87 -0.7,-1.73 -3.11,-2.572 -4.988,-3.593 l 0.813,-1.933 c 1.89,1.181 4.242,1.81 5.447,3.827 1.4,-1.684 2.298,-3.38 3.224,-4.734 0.802,0.098 1.445,0.103 2.391,0.513 -2.595,3.772 -5.947,7.453 -10.074,13.702 l 1.218,1.185 -0.854,1.56 -1.91,-1.934 -4.55,-2.467 c 0.185,-0.481 0.43,-0.993 0.784,-1.559 z"
         fill="#ffdf00"
         fill-opacity="0.992"
         stroke="#ff0000"
         stroke-width="0.36"
         stroke-opacity="0.992"
         id="path35" />
      <path
         d="m 21.008,41.007 c 0.33,0.075 1.105,0.41 1.262,0.497 5.709,3.157 11.554,3.743 16.444,0.098 0.208,-0.155 1.507,-0.808 1.722,-0.869"
         fill="none"
         stroke="#ffdf00"
         stroke-width="1.8"
         stroke-opacity="0.992"
         id="path37" />
      <path
         d="m 20.346,31.411 c 0.308,0.216 0.255,0.335 0.297,0.437 1.53,3.673 4.23,5.488 5.914,5.899 6.626,-0.028 8.262,-4.139 11.372,-7.149 0.128,-0.124 0.459,-0.402 0.658,-0.41"
         fill="none"
         stroke="#ffdf00"
         stroke-width="1.2"
         stroke-opacity="0.992"
         id="path39" />
    </g>
  </g>
</svg>
