<svg xmlns="http://www.w3.org/2000/svg" viewBox="0 0 60 60"><defs><filter id="a" width="1.166" height="1.107" x="-.041" y="-.033" color-interpolation-filters="sRGB"><feFlood flood-color="#000" flood-opacity=".498" result="flood"/><feComposite in="flood" in2="SourceGraphic" operator="in" result="composite1"/><feGaussianBlur in="composite1" result="blur" stdDeviation="1"/><feOffset dx="5" dy="3" result="offset"/><feComposite in="SourceGraphic" in2="offset" result="composite2"/></filter></defs><g opacity=".99"><g filter="url(#a)" transform="matrix(.6 0 0 .6 -237.884 -50.698)"><path fill="#fee572" d="m446.472 98-19.256 5.892-10.271 61.433H476l-10.259-61.359z"/><path fill="#c3983c" fill-opacity=".992" d="M416.945 165.325v5.668H476v-5.669z"/></g><g opacity=".99"><g stroke-width="1.386"><path fill="red" stroke="red" stroke-width=".66" d="M23.291 12.42c-.73 1.378-.447 2.955-.447 4.469-1.204 2.48-2.019 4.388-1.85 6.64-1.566 1.743-2.94 3.6-3.832 5.747-.254 1.064-.474 2.128-.064 3.192l.574.32c.741 1.536.96 1.876 2.618 1.66.914-2.832.79-.976.894.766 2.54-.818 2.482-2.185 3.815-4.24 2.016-.932 2.891-1.404 4.87-2.145l.893-.575 1.34-2.235-1.213 2.171.32 1.405s.063 1.277 0 1.596c-.135 2.058-1.958 4.543-3.434 5.813-2.017 1.536-2.406 2.963-2.696 5.425 9.85 5.466 14.682 2.906 19.22-.128a33 33 0 0 0-.778-3.488c-1.09-3.656-1.294-5.967-1.458-12.283-.304-4.63-5.045-11.103-11.072-10.796l-2.975-4.592c-1.252 1.115-1.07 2.77-1.277 4.342l-.958-.127z"/><path fill="none" stroke="#fee572" stroke-width=".84" d="M30.737 28.158c.686-1.198.774-3.184.704-3.901"/><path fill="#fee572" stroke="#fee572" stroke-width=".9" d="M25.144 20.858c-2.099.563-1.774 1.123-2.335 2.164 1.733.135 2.622-.883 2.335-2.164z"/><path fill="none" stroke="#fee572" stroke-width="1.32" d="M31.96 17.833c.91-.52 2.72.5 3.38 1.057 2.183 1.845 4.667 4.236 4.706 7.314.6 4.78.377 11.449 2.19 15.474"/></g><path fill="none" stroke="#fee572" stroke-width=".84" d="m20.67 34.636 1.68-2.374m-4.082-.96c-.409-.764.156-.949 1.072-1.816"/><path fill="#ffdf00" fill-opacity=".992" stroke="red" stroke-opacity=".992" stroke-width=".36" d="m18.47 26.574 3.95 2.303c2.274-3.764 2.285-3.7 4.548-6.87-.7-1.73-3.11-2.572-4.988-3.593l.813-1.933c1.89 1.181 4.242 1.81 5.447 3.827 1.4-1.684 2.298-3.38 3.224-4.734.802.098 1.445.103 2.391.513-2.595 3.772-5.947 7.453-10.074 13.702L25 30.974l-.854 1.56-1.91-1.934-4.55-2.467c.185-.481.43-.993.784-1.559z" style="fill:#fee572;fill-opacity:.99215686"/><path fill="none" stroke="#ffdf00" stroke-opacity=".992" stroke-width="1.8" d="M24.93 41.007c.33.075 1.104.41 1.261.497 5.71 3.157 11.554 3.743 16.444.098.208-.155 1.507-.808 1.722-.869" style="stroke:#fee572;stroke-opacity:.99215686"/><path fill="none" stroke="#ffdf00" stroke-opacity=".992" stroke-width="1.2" d="M24.267 31.411c.308.216.255.335.297.437 1.53 3.673 4.23 5.488 5.914 5.899 6.626-.028 8.262-4.139 11.372-7.149.128-.124.46-.402.658-.41" style="stroke:#fee572;stroke-opacity:.99215686"/></g></g></svg>