<?xml version="1.0" encoding="UTF-8" standalone="no"?>
<svg
   xmlns:dc="http://purl.org/dc/elements/1.1/"
   xmlns:cc="http://creativecommons.org/ns#"
   xmlns:rdf="http://www.w3.org/1999/02/22-rdf-syntax-ns#"
   xmlns:svg="http://www.w3.org/2000/svg"
   xmlns="http://www.w3.org/2000/svg"
   xmlns:sodipodi="http://sodipodi.sourceforge.net/DTD/sodipodi-0.dtd"
   xmlns:inkscape="http://www.inkscape.org/namespaces/inkscape"
   width="60"
   height="60"
   version="1.1"
   id="svg75"
   sodipodi:docname="0NY.svg"
   inkscape:version="1.0.1 (3bc2e813f5, 2020-09-07)">
  <metadata
     id="metadata79">
    <rdf:RDF>
      <cc:Work
         rdf:about="">
        <dc:format>image/svg+xml</dc:format>
        <dc:type
           rdf:resource="http://purl.org/dc/dcmitype/StillImage" />
      </cc:Work>
    </rdf:RDF>
  </metadata>
  <sodipodi:namedview
     pagecolor="#ffffff"
     bordercolor="#666666"
     borderopacity="1"
     objecttolerance="10"
     gridtolerance="10"
     guidetolerance="10"
     inkscape:pageopacity="0"
     inkscape:pageshadow="2"
     inkscape:window-width="1366"
     inkscape:window-height="711"
     id="namedview77"
     showgrid="false"
     inkscape:zoom="9.1"
     inkscape:cx="30"
     inkscape:cy="30"
     inkscape:window-x="0"
     inkscape:window-y="0"
     inkscape:window-maximized="1"
     inkscape:current-layer="svg75" />
  <defs
     id="defs13">
    <filter
       id="a"
       color-interpolation-filters="sRGB">
      <feFlood
         flood-opacity=".498"
         flood-color="#000"
         result="flood"
         id="feFlood2" />
      <feComposite
         in="flood"
         in2="SourceGraphic"
         operator="in"
         result="composite1"
         id="feComposite4" />
      <feGaussianBlur
         in="composite1"
         stdDeviation="1"
         result="blur"
         id="feGaussianBlur6" />
      <feOffset
         dx="5"
         dy="3"
         result="offset"
         id="feOffset8" />
      <feComposite
         in="SourceGraphic"
         in2="offset"
         result="composite2"
         id="feComposite10" />
    </filter>
  </defs>
  <g
     opacity="0.99"
     id="g73"
     transform="translate(3.9212988)">
    <g
       transform="matrix(0.6,0,0,0.6,-290.022,-50.343)"
       filter="url(#a)"
       id="g19">
      <path
         d="m 526.836,98 -17.831,5.92 -9.336,60.222 H 554 l -9.335,-60.223 z"
         fill="#fee572"
         id="path15" />
      <path
         d="m 499.67,164.142 v 5.668 H 554 v -5.669 z"
         fill="#c3983c"
         fill-opacity="0.992"
         id="path17" />
    </g>
    <g
       opacity="0.99"
       id="g71">
      <path
         d="m 372.14,1666.57 v -346.55 h 15 v 346.55 z"
         fill="#ff0000"
         stroke="#ff0000"
         transform="matrix(-0.06612,0,0,0.04829,51.222,-42.334)"
         stroke-width="4.938"
         id="path21" />
      <g
         stroke="#ff0000"
         stroke-width="4.938"
         id="g27">
        <path
           d="m 373.444,1325.142 -13.45,-8.57 2.65,-111.341 16.688,-28.568 17.542,27.755 2.373,111.247 -13.382,9.224 z"
           fill="#ffdf00"
           stroke-width="7.525"
           transform="matrix(-0.04665,0,0,0.03407,43.831,-22.904)"
           id="path23" />
        <path
           d="m 379.551,1181.017 v 105.099 l 16.535,13.127 m -16.535,-13.127 -16.317,14.496"
           fill="none"
           stroke-width="6.02"
           transform="matrix(-0.04665,0,0,0.03407,43.831,-22.904)"
           id="path25" />
      </g>
      <path
         d="m 26.123,22.913 a 7.759,7.759 0 0 1 7.759,7.76 7.759,7.759 0 0 1 -7.76,7.759 7.759,7.759 0 0 1 -7.759,-7.76 7.759,7.759 0 0 1 7.76,-7.759 z m 0,1.692 a 6.067,6.067 0 0 0 -6.067,6.068 6.067,6.067 0 0 0 6.067,6.066 6.067,6.067 0 0 0 6.067,-6.066 6.067,6.067 0 0 0 -6.067,-6.068 z"
         fill="#ff0000"
         id="path29" />
      <path
         d="m 372.14,1666.57 v -346.55 h 15 v 346.55 z"
         fill="#ff0000"
         stroke="#ff0000"
         stroke-width="6.371"
         transform="matrix(-0.06612,0,0,-0.04829,51.222,103.733)"
         id="path31" />
      <g
         stroke="#ff0000"
         stroke-width="4.938"
         id="g37">
        <path
           d="m 373.444,1325.142 -13.45,-8.57 2.65,-111.341 16.688,-28.568 17.542,27.755 2.373,111.247 -13.382,9.224 z"
           fill="#ffdf00"
           stroke-width="7.525"
           transform="matrix(-0.04665,0,0,-0.03407,43.83,84.303)"
           id="path33" />
        <path
           d="m 379.551,1181.017 v 105.099 l 16.535,13.127 m -16.535,-13.127 -16.317,14.496"
           fill="none"
           stroke-width="6.02"
           transform="matrix(-0.04665,0,0,-0.03407,43.83,84.303)"
           id="path35" />
      </g>
      <path
         d="m 372.14,1666.57 v -346.55 h 15 v 346.55 z"
         fill="#ff0000"
         stroke="#ff0000"
         stroke-width="6.371"
         transform="matrix(-0.04675308,0.04675472,0.03414678,0.03414559,-7.5115172,-38.702551)"
         id="path39" />
      <path
         d="m 372.14,1666.57 v -346.55 h 15 v 346.55 z"
         fill="#ff0000"
         stroke="#ff0000"
         stroke-width="6.371"
         transform="matrix(0.04675308,0.04675472,-0.03414678,0.03414559,60.011719,-38.70353)"
         id="path41" />
      <path
         d="m 372.14,1666.57 v -346.55 h 15 v 346.55 z"
         fill="#ff0000"
         stroke="#ff0000"
         transform="matrix(0,-0.06612,-0.04829,0,98.646,55.772)"
         stroke-width="4.938"
         id="path43" />
      <g
         stroke="#ff0000"
         stroke-width="4.938"
         id="g49">
        <path
           d="m 373.444,1325.142 -13.45,-8.57 2.65,-111.341 16.688,-28.568 17.542,27.755 2.373,111.247 -13.382,9.224 z"
           fill="#ffdf00"
           stroke-width="7.525"
           transform="matrix(0,-0.04665,-0.03407,0,79.749,48.381)"
           id="path45" />
        <path
           d="m 379.551,1181.017 v 105.099 l 16.535,13.127 m -16.535,-13.127 -16.317,14.496"
           fill="none"
           stroke-width="6.02"
           transform="matrix(0,-0.04665,-0.03407,0,79.749,48.381)"
           id="path47" />
      </g>
      <path
         d="m 372.14,1666.57 v -346.55 h 15 v 346.55 z"
         fill="#ff0000"
         stroke="#ff0000"
         stroke-width="5.575"
         transform="matrix(0,-0.06612,0.04829,0,-46.437,55.772)"
         id="path51" />
      <g
         stroke="#ff0000"
         stroke-width="4.938"
         id="g57">
        <path
           d="m 373.444,1325.142 -13.45,-8.57 2.65,-111.341 16.688,-28.568 17.542,27.755 2.373,111.247 -13.382,9.224 z"
           fill="#ffdf00"
           stroke-width="7.525"
           transform="matrix(0,-0.04665,0.03407,0,-27.592,48.381)"
           id="path53" />
        <path
           d="m 379.551,1181.017 v 105.099 l 16.535,13.127 m -16.535,-13.127 -16.317,14.496"
           fill="none"
           stroke-width="6.02"
           transform="matrix(0,-0.04665,0.03407,0,-27.592,48.381)"
           id="path55" />
      </g>
      <g
         stroke="#ff0000"
         stroke-width="4.938"
         id="g63">
        <path
           d="m 373.444,1325.142 -13.45,-8.57 2.65,-111.341 16.688,-28.568 17.542,27.755 2.373,111.247 -13.382,9.224 z"
           fill="#ffdf00"
           stroke-width="7.525"
           transform="matrix(0.03298596,-0.03298711,0.02409155,0.02409071,-24.327531,5.0375953)"
           id="path59" />
        <path
           d="m 379.551,1181.017 v 105.099 l 16.535,13.127 m -16.535,-13.127 -16.317,14.496"
           fill="none"
           stroke-width="6.02"
           transform="matrix(0.03298596,-0.03298711,0.02409155,0.02409071,-24.327531,5.0375953)"
           id="path61" />
      </g>
      <g
         stroke="#ff0000"
         stroke-width="4.938"
         id="g69">
        <path
           d="m 373.444,1325.142 -13.45,-8.57 2.65,-111.341 16.688,-28.568 17.542,27.755 2.373,111.247 -13.382,9.224 z"
           fill="#ffdf00"
           stroke-width="7.525"
           transform="matrix(-0.03299,-0.03299,-0.02409,0.02409,76.833,5.037)"
           id="path65" />
        <path
           d="m 379.551,1181.017 v 105.099 l 16.535,13.127 m -16.535,-13.127 -16.317,14.496"
           fill="none"
           stroke-width="6.02"
           transform="matrix(-0.03299,-0.03299,-0.02409,0.02409,76.833,5.037)"
           id="path67" />
      </g>
    </g>
  </g>
</svg>
