<svg xmlns="http://www.w3.org/2000/svg" viewBox="0 0 60 60"><defs><filter id="a" width="1.18" height="1.109" x="-.044" y="-.033" color-interpolation-filters="sRGB"><feFlood flood-color="#000" flood-opacity=".498" result="flood"/><feComposite in="flood" in2="SourceGraphic" operator="in" result="composite1"/><feGaussianBlur in="composite1" result="blur" stdDeviation="1"/><feOffset dx="5" dy="3" result="offset"/><feComposite in="SourceGraphic" in2="offset" result="composite2"/></filter></defs><g opacity=".99"><g filter="url(#a)" transform="matrix(.6 0 0 .6 -286.1 -50.343)"><path fill="#fee572" d="m526.836 98-17.831 5.92-9.336 60.222H554l-9.335-60.223z"/><path fill="#c3983c" fill-opacity=".992" d="M499.67 164.142v5.668H554v-5.669z"/></g><g opacity=".99"><path fill="red" stroke="red" stroke-width="4.938" d="M372.14 1666.57v-346.55h15v346.55z" transform="matrix(-.06281 0 0 .04588 53.886 -37.994)"/><g stroke="red" stroke-width="4.938"><path fill="#ffdf00" stroke-width="7.525" d="m373.444 1325.142-13.45-8.57 2.65-111.341 16.688-28.568 17.542 27.755 2.373 111.247-13.382 9.224z" style="fill:#fee572;fill-opacity:.99215686" transform="matrix(-.04432 0 0 .03237 46.864 -19.536)"/><path fill="none" stroke-width="6.02" d="M379.551 1181.017v105.099l16.535 13.127m-16.535-13.127-16.317 14.496" transform="matrix(-.04432 0 0 .03237 46.864 -19.536)"/></g><path fill="red" d="M30.042 23.99a7.37 7.37 0 0 1 7.372 7.372 7.37 7.37 0 0 1-7.372 7.371 7.37 7.37 0 0 1-7.372-7.372 7.37 7.37 0 0 1 7.372-7.37m0 1.608a5.764 5.764 0 0 0-5.764 5.764 5.764 5.764 0 0 0 5.764 5.763 5.764 5.764 0 0 0 5.763-5.763 5.764 5.764 0 0 0-5.763-5.764"/><path fill="red" stroke="red" stroke-width="6.371" d="M372.14 1666.57v-346.55h15v346.55z" transform="matrix(-.06281 0 0 -.04588 53.886 100.77)"/><g stroke="red" stroke-width="4.938"><path fill="#ffdf00" stroke-width="7.525" d="m373.444 1325.142-13.45-8.57 2.65-111.341 16.688-28.568 17.542 27.755 2.373 111.247-13.382 9.224z" style="fill:#fee572;fill-opacity:.99215686" transform="matrix(-.04432 0 0 -.03237 46.863 82.31)"/><path fill="none" stroke-width="6.02" d="M379.551 1181.017v105.099l16.535 13.127m-16.535-13.127-16.317 14.496" transform="matrix(-.04432 0 0 -.03237 46.863 82.31)"/></g><path fill="red" stroke="red" stroke-width="6.371" d="M372.14 1666.57v-346.55h15v346.55z" transform="matrix(-.04441 .0444 .03244 .03245 -1.91 -34.543)"/><path fill="red" stroke="red" stroke-width="6.371" d="M372.14 1666.57v-346.55h15v346.55z" transform="matrix(.04441 .0444 -.03244 .03245 62.23 -34.539)"/><path fill="red" stroke="red" stroke-width="4.938" d="M372.14 1666.57v-346.55h15v346.55z" transform="matrix(0 -.06281 -.04588 0 98.939 55.206)"/><g stroke="red" stroke-width="4.938"><path fill="#ffdf00" stroke-width="7.525" d="m373.444 1325.142-13.45-8.57 2.65-111.341 16.688-28.568 17.542 27.755 2.373 111.247-13.382 9.224z" style="fill:#fee572;fill-opacity:.99215686" transform="matrix(0 -.04432 -.03237 0 80.986 48.185)"/><path fill="none" stroke-width="6.02" d="M379.551 1181.017v105.099l16.535 13.127m-16.535-13.127-16.317 14.496" transform="matrix(0 -.04432 -.03237 0 80.986 48.185)"/></g><path fill="red" stroke="red" stroke-width="5.575" d="M372.14 1666.57v-346.55h15v346.55z" transform="matrix(0 -.06281 .04588 0 -38.89 55.206)"/><g stroke="red" stroke-width="4.938"><path fill="#ffdf00" stroke-width="7.525" d="m373.444 1325.142-13.45-8.57 2.65-111.341 16.688-28.568 17.542 27.755 2.373 111.247-13.382 9.224z" style="fill:#fee572;fill-opacity:.99215686" transform="matrix(0 -.04432 .03237 0 -20.986 48.185)"/><path fill="none" stroke-width="6.02" d="M379.551 1181.017v105.099l16.535 13.127m-16.535-13.127-16.317 14.496" transform="matrix(0 -.04432 .03237 0 -20.986 48.185)"/></g><g stroke="red" stroke-width="4.938"><path fill="#ffdf00" stroke-width="7.525" d="m373.444 1325.142-13.45-8.57 2.65-111.341 16.688-28.568 17.542 27.755 2.373 111.247-13.382 9.224z" style="fill:#fee572;fill-opacity:.99215686" transform="rotate(-44.997 -.48 25.094)scale(.04432 .03238)"/><path fill="none" stroke-width="6.02" d="M379.551 1181.017v105.099l16.535 13.127m-16.535-13.127-16.317 14.496" transform="rotate(-44.997 -.48 25.094)scale(.04432 .03238)"/></g><g stroke="red" stroke-width="4.938"><path fill="#ffdf00" stroke-width="7.525" d="m373.444 1325.142-13.45-8.57 2.65-111.341 16.688-28.568 17.542 27.755 2.373 111.247-13.382 9.224z" style="fill:#fee572;fill-opacity:.99215686" transform="matrix(-.03134 -.03134 -.02289 .02289 78.216 7.008)"/><path fill="none" stroke-width="6.02" d="M379.551 1181.017v105.099l16.535 13.127m-16.535-13.127-16.317 14.496" transform="matrix(-.03134 -.03134 -.02289 .02289 78.216 7.008)"/></g></g></g></svg>