<svg xmlns="http://www.w3.org/2000/svg" width="52.157" height="60"><defs><filter id="a" color-interpolation-filters="sRGB"><feFlood flood-opacity=".498" flood-color="#000" result="flood"/><feComposite in="flood" in2="SourceGraphic" operator="in" result="composite1"/><feGaussianBlur in="composite1" stdDeviation="1" result="blur"/><feOffset dx="5" dy="3" result="offset"/><feComposite in="SourceGraphic" in2="offset" result="composite2"/></filter></defs><g opacity=".99"><g transform="matrix(.6 0 0 .6 -45.855 -52.115)" filter="url(#a)" fill-opacity=".992"><path d="M119.89 98l-21.702 7.118L88 170.049h63.78l-10.19-64.93z" opacity=".99" fill="#fcc8dc"/><path d="M88 170.05v5.668h63.78v-5.67z" fill="#dc7ea2"/></g><g stroke-width=".8" fill="none" stroke="#fff"><path d="M26.85 17.912c-.35 1.48.9 3.057 2.782 3.554-1.353.905-1.803 1.807-1.803 1.807.607.019 2.157.382 2.709 1.304-.256.084-1.582.526-1.78 1.344M29.901 26.07c5.197-1.566 8.455.785 10.051 3.88M31.63 27.657c5.6.195 4.076 6.641 2.68 10.122M34.662 25.717c2.319 1.261 4.256 3.004 3.421 8.253M31.17 37.25c-1.224.554-1.855 5.249-.987 4.972M34.839 29.068c1.957 7.637-10.528 9.702-8.711 17.28M31.806 28.503c5.778 6.348-10.899 8.88-9.31 17.951M20.45 22.543c1.387-1.872 2.615-3.934 4.902-4.726M22.883 24.589c1.752-.213 3.503-.325 5.255-.07M22.53 23.143c.965-1.207 2.883-1.556 4.761-1.94" stroke-width=".550176"/></g><path d="M14.49 28.856c4.678.157 11.499 6.11 13.119 2.962" fill="none" stroke="red" stroke-width=".550176"/><path d="M25.145 26.7c-3.473.892-4.417 6.766-7.332 9.176-.506-.253-.57-.82-.549-1.995l-1.945-1.047 3.142-.4-1.995-1.096 2.644-.45-1.097-1.545 2.144.349-.1-2.245.948-.498v-1.497l-.499-.748-.798.1.05.698-1.147.1-.1.848-.897-.3-.699.2.15 1.696-1.446-.05-.05 2.743c-.327-.266-.79-.532-1.646-.798-.265 1.563-.197 2.976-.2 4.539l-2.344-3.292c.186-.452.693-.412 1.048-1.446-.032-.722-.06-1.443-.35-2.295 1.761-.869 3.29-2.433 4.788-4.09l.05-3.44c.628-1.719 1.063-2.649 1.603-3.533.04 1.278.109 2.336.435 3.058.994-1.058.019-4.324 3.548-6.16-.885 1.98-2.538 4.055-1.446 5.786 3.928-4.87 8.018-8.594 12.868-6.882-4.787.392-8.326 3.16-7.5 6.154 3.008-3.36 6.696-2.582 7.88-2.005-3.733.385-5.26 1.816-4.47 3.93 4.226-1.213 7.46-1.029 9.426.948-2.367-.259-5.81-.992-5.9.393 16.565 7.31-2.43 18.134-2.728 19.557-1.033 2.554-.447 3.523-.4 5.237-5.418 2.619-9.156 2.177-11.97.05-.542-7.647 6.246-10.332 9.642-11.93 3.72-1.752 6.013-8.536.556-8.612-.463.977-.728 2.452-.471 4.332-1.14-3.35-3.069-4.327-5.537-3.69" fill="red" stroke="red" stroke-width=".51303912"/><g stroke-width=".8"><path d="M26.85 17.912c-.35 1.48.9 3.057 2.782 3.554-1.353.905-1.803 1.807-1.803 1.807.607.019 2.157.382 2.709 1.304-.256.084-1.582.526-1.78 1.344" fill="none" stroke="#fdc8dc" stroke-width=".7409036800000001" stroke-opacity=".976"/><g stroke="#fff"><path d="M29.901 26.07c5.197-1.566 8.455.785 10.051 3.88M31.63 27.657c5.6.195 4.076 6.641 2.68 10.122" fill="none" stroke="#fdc8dc" stroke-width=".7406744399999999" stroke-opacity=".976"/><path d="M31.806 28.503c5.675 6.235-10.311 8.789-9.379 17.472.017.158.285 2.223.278 2.507" fill="none" stroke="#fdc8dc" stroke-width=".7406744399999999" stroke-opacity=".976"/></g><path d="M22.883 24.589c1.752-.213 3.503-.325 5.255-.07M22.53 23.143c.965-1.207 2.883-1.556 4.761-1.94" fill="none" stroke="#fdc8dc" stroke-width=".7406744399999999" stroke-opacity=".976"/></g><path d="M19.695 19.649l-1.529 1.172v1.783c.772-.43 1.132-.853 1.427-1.274.102-.628.22-1.272.102-1.681z" fill="#fbc6da" fill-opacity=".984" stroke="#fbc6da" stroke-width=".7406744399999999" stroke-opacity=".984"/><path d="M14.49 28.856c4.678.157 11.499 6.11 13.119 2.962" fill="none" stroke="red" stroke-width=".57011988"/><path d="M29.8 32.728l1.907 1.194M25.962 35.159c.678.875 1.176 1.606 2.246 1.598M21.36 38.187c.52 1.344 1.878 1.458 3.437 1.576M18.633 42.521c.566 2.47 2.31 2.272 4 2.08" fill="none" stroke="#fdc8dc" stroke-width=".740943" stroke-opacity=".976"/></g></svg>