<?xml version="1.0" encoding="UTF-8" standalone="no"?>
<svg
   xmlns:dc="http://purl.org/dc/elements/1.1/"
   xmlns:cc="http://creativecommons.org/ns#"
   xmlns:rdf="http://www.w3.org/1999/02/22-rdf-syntax-ns#"
   xmlns:svg="http://www.w3.org/2000/svg"
   xmlns="http://www.w3.org/2000/svg"
   xmlns:sodipodi="http://sodipodi.sourceforge.net/DTD/sodipodi-0.dtd"
   xmlns:inkscape="http://www.inkscape.org/namespaces/inkscape"
   width="60"
   height="60"
   version="1.1"
   id="svg49"
   sodipodi:docname="0RY.svg"
   inkscape:version="1.0.1 (3bc2e813f5, 2020-09-07)">
  <metadata
     id="metadata53">
    <rdf:RDF>
      <cc:Work
         rdf:about="">
        <dc:format>image/svg+xml</dc:format>
        <dc:type
           rdf:resource="http://purl.org/dc/dcmitype/StillImage" />
      </cc:Work>
    </rdf:RDF>
  </metadata>
  <sodipodi:namedview
     pagecolor="#ffffff"
     bordercolor="#666666"
     borderopacity="1"
     objecttolerance="10"
     gridtolerance="10"
     guidetolerance="10"
     inkscape:pageopacity="0"
     inkscape:pageshadow="2"
     inkscape:window-width="1366"
     inkscape:window-height="711"
     id="namedview51"
     showgrid="false"
     inkscape:zoom="9.1"
     inkscape:cx="30"
     inkscape:cy="30"
     inkscape:window-x="0"
     inkscape:window-y="0"
     inkscape:window-maximized="1"
     inkscape:current-layer="svg49" />
  <defs
     id="defs13">
    <filter
       id="a"
       color-interpolation-filters="sRGB">
      <feFlood
         flood-opacity=".498"
         flood-color="#000"
         result="flood"
         id="feFlood2" />
      <feComposite
         in="flood"
         in2="SourceGraphic"
         operator="in"
         result="composite1"
         id="feComposite4" />
      <feGaussianBlur
         in="composite1"
         stdDeviation="1"
         result="blur"
         id="feGaussianBlur6" />
      <feOffset
         dx="5"
         dy="3"
         result="offset"
         id="feOffset8" />
      <feComposite
         in="SourceGraphic"
         in2="offset"
         result="composite2"
         id="feComposite10" />
    </filter>
  </defs>
  <g
     opacity="0.99"
     id="g47"
     transform="translate(3.9209992)">
    <g
       transform="matrix(0.6,0,0,0.6,-45.855,-52.115)"
       filter="url(#a)"
       fill-opacity="0.992"
       id="g19">
      <path
         d="M 119.89,98 98.188,105.118 88,170.049 h 63.78 l -10.19,-64.93 z"
         opacity="0.99"
         fill="#fcc8dc"
         id="path15" />
      <path
         d="m 88,170.05 v 5.668 h 63.78 v -5.67 z"
         fill="#dc7ea2"
         id="path17" />
    </g>
    <g
       stroke-width="0.8"
       fill="none"
       stroke="#ffffff"
       id="g23">
      <path
         d="m 26.85,17.912 c -0.35,1.48 0.9,3.057 2.782,3.554 -1.353,0.905 -1.803,1.807 -1.803,1.807 0.607,0.019 2.157,0.382 2.709,1.304 -0.256,0.084 -1.582,0.526 -1.78,1.344 m 1.143,0.149 c 5.197,-1.566 8.455,0.785 10.051,3.88 M 31.63,27.657 c 5.6,0.195 4.076,6.641 2.68,10.122 m 0.352,-12.062 c 2.319,1.261 4.256,3.004 3.421,8.253 m -6.913,3.28 c -1.224,0.554 -1.855,5.249 -0.987,4.972 m 4.656,-13.154 c 1.957,7.637 -10.528,9.702 -8.711,17.28 m 5.678,-17.845 c 5.778,6.348 -10.899,8.88 -9.31,17.951 M 20.45,22.543 c 1.387,-1.872 2.615,-3.934 4.902,-4.726 m -2.469,6.772 c 1.752,-0.213 3.503,-0.325 5.255,-0.07 M 22.53,23.143 c 0.965,-1.207 2.883,-1.556 4.761,-1.94"
         stroke-width="0.550176"
         id="path21" />
    </g>
    <path
       d="m 14.49,28.856 c 4.678,0.157 11.499,6.11 13.119,2.962"
       fill="none"
       stroke="#ff0000"
       stroke-width="0.550176"
       id="path25" />
    <path
       d="m 25.145,26.7 c -3.473,0.892 -4.417,6.766 -7.332,9.176 -0.506,-0.253 -0.57,-0.82 -0.549,-1.995 l -1.945,-1.047 3.142,-0.4 -1.995,-1.096 2.644,-0.45 -1.097,-1.545 2.144,0.349 -0.1,-2.245 0.948,-0.498 v -1.497 l -0.499,-0.748 -0.798,0.1 0.05,0.698 -1.147,0.1 -0.1,0.848 -0.897,-0.3 -0.699,0.2 0.15,1.696 -1.446,-0.05 -0.05,2.743 c -0.327,-0.266 -0.79,-0.532 -1.646,-0.798 -0.265,1.563 -0.197,2.976 -0.2,4.539 l -2.344,-3.292 c 0.186,-0.452 0.693,-0.412 1.048,-1.446 -0.032,-0.722 -0.06,-1.443 -0.35,-2.295 1.761,-0.869 3.29,-2.433 4.788,-4.09 l 0.05,-3.44 c 0.628,-1.719 1.063,-2.649 1.603,-3.533 0.04,1.278 0.109,2.336 0.435,3.058 0.994,-1.058 0.019,-4.324 3.548,-6.16 -0.885,1.98 -2.538,4.055 -1.446,5.786 3.928,-4.87 8.018,-8.594 12.868,-6.882 -4.787,0.392 -8.326,3.16 -7.5,6.154 3.008,-3.36 6.696,-2.582 7.88,-2.005 -3.733,0.385 -5.26,1.816 -4.47,3.93 4.226,-1.213 7.46,-1.029 9.426,0.948 -2.367,-0.259 -5.81,-0.992 -5.9,0.393 16.565,7.31 -2.43,18.134 -2.728,19.557 -1.033,2.554 -0.447,3.523 -0.4,5.237 -5.418,2.619 -9.156,2.177 -11.97,0.05 -0.542,-7.647 6.246,-10.332 9.642,-11.93 3.72,-1.752 6.013,-8.536 0.556,-8.612 -0.463,0.977 -0.728,2.452 -0.471,4.332 -1.14,-3.35 -3.069,-4.327 -5.537,-3.69"
       fill="#ff0000"
       stroke="#ff0000"
       stroke-width="0.513039"
       id="path27" />
    <g
       stroke-width="0.8"
       id="g39">
      <path
         d="m 26.85,17.912 c -0.35,1.48 0.9,3.057 2.782,3.554 -1.353,0.905 -1.803,1.807 -1.803,1.807 0.607,0.019 2.157,0.382 2.709,1.304 -0.256,0.084 -1.582,0.526 -1.78,1.344"
         fill="none"
         stroke="#fdc8dc"
         stroke-width="0.740904"
         stroke-opacity="0.976"
         id="path29" />
      <g
         stroke="#ffffff"
         id="g35">
        <path
           d="m 29.901,26.07 c 5.197,-1.566 8.455,0.785 10.051,3.88 M 31.63,27.657 c 5.6,0.195 4.076,6.641 2.68,10.122"
           fill="none"
           stroke="#fdc8dc"
           stroke-width="0.740674"
           stroke-opacity="0.976"
           id="path31" />
        <path
           d="m 31.806,28.503 c 5.675,6.235 -10.311,8.789 -9.379,17.472 0.017,0.158 0.285,2.223 0.278,2.507"
           fill="none"
           stroke="#fdc8dc"
           stroke-width="0.740674"
           stroke-opacity="0.976"
           id="path33" />
      </g>
      <path
         d="m 22.883,24.589 c 1.752,-0.213 3.503,-0.325 5.255,-0.07 M 22.53,23.143 c 0.965,-1.207 2.883,-1.556 4.761,-1.94"
         fill="none"
         stroke="#fdc8dc"
         stroke-width="0.740674"
         stroke-opacity="0.976"
         id="path37" />
    </g>
    <path
       d="m 19.695,19.649 -1.529,1.172 v 1.783 c 0.772,-0.43 1.132,-0.853 1.427,-1.274 0.102,-0.628 0.22,-1.272 0.102,-1.681 z"
       fill="#fbc6da"
       fill-opacity="0.984"
       stroke="#fbc6da"
       stroke-width="0.740674"
       stroke-opacity="0.984"
       id="path41" />
    <path
       d="m 14.49,28.856 c 4.678,0.157 11.499,6.11 13.119,2.962"
       fill="none"
       stroke="#ff0000"
       stroke-width="0.57012"
       id="path43" />
    <path
       d="m 29.8,32.728 1.907,1.194 m -5.745,1.237 c 0.678,0.875 1.176,1.606 2.246,1.598 m -6.848,1.43 c 0.52,1.344 1.878,1.458 3.437,1.576 m -6.164,2.758 c 0.566,2.47 2.31,2.272 4,2.08"
       fill="none"
       stroke="#fdc8dc"
       stroke-width="0.740943"
       stroke-opacity="0.976"
       id="path45" />
  </g>
</svg>
