<svg xmlns="http://www.w3.org/2000/svg" viewBox="0 0 60 60"><defs><filter id="a" color-interpolation-filters="sRGB"><feFlood flood-color="#000" flood-opacity=".498" result="flood"/><feComposite in="flood" in2="SourceGraphic" operator="in" result="composite1"/><feGaussianBlur in="composite1" result="blur" stdDeviation="1"/><feOffset dx="5" dy="3" result="offset"/><feComposite in="SourceGraphic" in2="offset" result="composite2"/></filter></defs><g fill-opacity=".992" filter="url(#a)" opacity=".99" transform="matrix(.6 0 0 .6 -41.934 -52.115)"><path fill="#fcc8dc" d="m119.89 98-21.702 7.118L88 170.049h63.78l-10.19-64.93z" opacity=".99"/><path fill="#dc7ea2" d="M88 170.05v5.668h63.78v-5.67z"/></g><path d="M20.83 11.773a1.5 1.5 0 0 0-.255.003.5.5 0 0 0-.189.05c.472.576 4.187 3.217 2.155 3.947-.024.008-.04.018-.064.027-.812-.037-1.642-.86-1.731-.942-.122-.11-.405-.147-.732-.133-.978.04-2.34.817-.852 1.13 1.357.472 2.46.713 3.27 1.294l.003-.008c.578.599 1.781 1.688 2.382 2.218l1.004.958c.305.261.84.694 1.406 1.011.287.162.58.291.828.356.244.064.418.065.557.02a.84.84 0 0 0-.039-.383c-.092-.312-.313-.736-.559-1.145a23 23 0 0 0-.71-1.09 13 13 0 0 1-.224-.334s-3.991-1.048-2.703-2.637c2.137-2.635-2.11-4.252-3.547-4.34zm18.387 0v.002c-1.438.088-5.684 1.705-3.547 4.34 1.289 1.59-2.703 2.637-2.703 2.637-.05.08-.127.192-.223.334-.195.284-.465.68-.711 1.09s-.467.833-.559 1.145a.84.84 0 0 0-.039.383c.14.045.313.044.557-.02a3.7 3.7 0 0 0 .829-.356c.565-.317 1.1-.75 1.405-1.011l1.004-.958c.601-.53 1.805-1.619 2.382-2.217l.004.007c.81-.58 1.912-.822 3.269-1.294 1.488-.313.126-1.09-.852-1.13-.326-.014-.61.023-.731.133-.09.082-.92.905-1.732.942-.023-.009-.04-.019-.064-.027-2.032-.73 1.683-3.371 2.155-3.947a.5.5 0 0 0-.189-.05 1.5 1.5 0 0 0-.255-.003m-18.719 7.48c-.67 1.48-.952 2.283.938 4.467-1.246-.299-2.6-2.806-3.17-3.32-.977 2.472.246 3.557 1.758 4.346-1.475.314-2.354-.391-3.834-.84.824 1.506 1.842 3.807 4.334 2.736-.925 1.272-2.539 1.857-3.918 2.675 1.418.268 2.896.972 4.105-.27-.628 1.146-1.65 2.125-2.653 3.11q.623-.083 1.222-.21c.641-.71 1.385-1.18 2.122-1.514.007-.392.113-.801.22-1.16.063-.214.082-.246.131-.384-.182-.047-.333-.058-.542-.19a1.07 1.07 0 0 1-.438-.532c-.088-.242-.085-.523-.002-.829l.455-1.665c.135-.496.564-.737.995-.968.34-.182.681-.313.993-.44a33 33 0 0 1-.13-1.135zm19.003 0-2.589 3.88q-.054.569-.128 1.133c.312.126.653.257.993.44.43.23.86.47.995.967l.455 1.665c.083.306.087.587 0 .829a1.07 1.07 0 0 1-.44.531c-.209.132-.359.144-.54.19.049.139.068.171.131.385.107.359.213.768.22 1.16.736.334 1.48.805 2.122 1.514q.6.128 1.224.21c-1.003-.985-2.028-1.964-2.655-3.11 1.21 1.242 2.689.538 4.106.27-1.379-.818-2.994-1.403-3.92-2.675 2.493 1.07 3.51-1.23 4.334-2.736-1.48.449-2.357 1.154-3.831.84 1.512-.789 2.735-1.874 1.757-4.347-.57.515-1.925 3.022-3.172 3.32 1.89-2.183 1.608-2.985.938-4.467zm-8.18.298c-.236.006-.47.015-.496.018q-.008 0-.018-.002l-.808.14-.806-.14q-.01.002-.02.002a13 13 0 0 0-.444-.016c.033.053.059.087.092.14.265.443.512.88.654 1.362.072.245.125.41.062.76.003-.014.01-.024.011-.04-.006.073-.012.083-.013.085.004-.02-.001-.026.002-.044-.154.926-.979.97-1.717.775h-.003a4.4 4.4 0 0 1-1.05-.445c-.662-.372-1.227-.835-1.556-1.116l-.02-.017-.995-.95-.068-.061-.03.064v.002c-.463 1.228-.296 2.794-.09 4.39l.038.295-.277.114c-.355.144-.814.324-1.184.522s-.6.447-.612.487l-.454 1.666c-.054.198-.04.303-.018.36.02.059.052.095.126.142.12.076.34.13.566.192.368-.003.782-.023 1.215.017.53.049 1.098.206 1.508.667l.042.048.024.058c.16.378.26.784.356 1.177h-.625c-.294-.009-3.471-.071-5.374 2.431-.72.946-1.408 1.644-2.197 2.005-.346.157-.499.297-.787.335-.177.023-.494-.09-.758-.161l.247.641c.86.295 1.559.15 2.225-.284.691-.45 1.331-1.205 1.953-2.016.81-1.065 2.116-1.559 3.207-1.799.926-.204 1.475-.19 1.69-.19l.693-.026q.069.159.143.273c.09.135.18.195.288.238a30 30 0 0 1 3.925-.606l.031-.004.033.004c1.024.084 2.5.286 3.923.606a.58.58 0 0 0 .288-.238q.075-.114.143-.273l.694.025c.216.001.765-.013 1.691.191 1.09.24 2.396.734 3.207 1.8.622.81 1.262 1.565 1.953 2.015.666.433 1.364.579 2.225.284l.247-.641c-.264.071-.58.184-.758.16-.288-.037-.441-.177-.787-.334-.789-.36-1.477-1.06-2.197-2.005-1.903-2.502-5.08-2.44-5.374-2.431h-.626c.094-.393.194-.8.355-1.177l.026-.058.042-.048c.413-.465.998-.635 1.555-.706.517-.065 1.024-.05 1.435-.056.12-.035.229-.07.299-.114.074-.047.105-.083.126-.141s.036-.163-.018-.361l-.454-1.666c-.011-.04-.244-.289-.614-.487s-.829-.378-1.184-.522l-.275-.114.037-.295c.205-1.597.373-3.164-.092-4.392l-.014-.033-.033.03-.995.95-.02.017c-.329.281-.894.744-1.556 1.116a4.4 4.4 0 0 1-1.05.445h-.002c-.739.195-1.565.152-1.719-.777.004.019 0 .026.004.046 0-.002-.007-.012-.013-.084q.004.019.01.038c-.063-.35-.009-.514.063-.759.142-.481.389-.92.654-1.361.034-.055.06-.089.094-.143zm-5.207 3.298c.638.091.894.95 2.86 2.366-.503.827-1.216 1.18-2.473.976-1.18-.424-2.327-1.138-1.603-2.618.272-.45.58-.66.912-.716.112-.02.302.08.304-.008m7.771 0a1 1 0 0 1 .303.008c.331.056.64.266.912.716.724 1.48-.424 2.194-1.603 2.618-1.257.204-1.969-.15-2.472-.976 1.967-1.415 2.223-2.275 2.86-2.366m-5.773 5.833c.619.135.89 1.025 1.319 1.574l-.786-.581-.977-.107c.065-.422-.344-.76.444-.886m3.774 0c.788.127.38.464.446.886l-.977.107-.786.58c.428-.548.698-1.438 1.317-1.573m5.561.26a7 7 0 0 0-.71.04c-.45.057-.802.196-1.034.434-.032.083-.058.188-.086.286a8.5 8.5 0 0 1 2.151.407 5 5 0 0 0-.132-.616c-.091-.307-.152-.456-.189-.551m-14.919.066c-.043.117-.084.215-.164.485-.064.213-.089.413-.12.612a8.5 8.5 0 0 1 2.139-.403c-.028-.097-.054-.202-.086-.284-.232-.24-.543-.355-.96-.394a8 8 0 0 0-.809-.016m2.476 2.62c-.238.003-.83.02-1.67.205-.205.045-.418.11-.631.176.105.182.209.365.337.53-.007-.009.273.186.52.293s.47.181.47.181l.225.075.034.235c.52 3.42 1.22 4.675 2.084 7.232.1.157.227.296.364.427l.54 7.214.761-5.42 1.021 4.814.944-4.715.938 4.704 1.028-4.884.762 5.536.533-7.253a2.3 2.3 0 0 0 .361-.421c.864-2.557 1.563-3.813 2.084-7.234l.036-.235.224-.075s.224-.074.47-.181c.248-.107.525-.301.52-.293.127-.165.23-.35.336-.532a8.2 8.2 0 0 0-2.301-.38c-.036.071-.063.146-.106.212a1.4 1.4 0 0 1-.739.58c.036 3.703-.023 3.322-.95 6.819l-.04.146-.126.08c-.834.538-1.925.8-3.02.8s-2.198-.267-3.043-.867l-.114-.08-.034-.136c-.926-3.513-1.037-3.126-.955-6.756l-.01-.002a1.4 1.4 0 0 1-.747-.584c-.043-.066-.07-.14-.106-.211m4.995.19a30 30 0 0 0-3.265.47l.55 2.94.762-1.473 1.02 1.13.944-1.073.938 1.067 1.028-1.17.762 1.54.545-2.956a30 30 0 0 0-3.284-.474zm.01 4.952-.937.903-.889-.856-.4 2.12a4.7 4.7 0 0 0 2.23.554c.81 0 1.592-.201 2.221-.515l-.405-2.151-.88.848z" style="fill:#ff0202;fill-opacity:1;stroke:none;stroke-width:.938161px;stroke-linecap:butt;stroke-linejoin:miter;stroke-opacity:1"/></svg>