<svg xmlns="http://www.w3.org/2000/svg" width="60" height="60"><defs><filter id="a" color-interpolation-filters="sRGB"><feFlood flood-opacity=".498" flood-color="#000" result="flood"/><feComposite in="flood" in2="SourceGraphic" operator="in" result="composite1"/><feGaussianBlur in="composite1" stdDeviation="1" result="blur"/><feOffset dx="5" dy="3" result="offset"/><feComposite in="SourceGraphic" in2="offset" result="composite2"/></filter></defs><g opacity=".99"><g transform="matrix(.6 0 0 .6 -334.455 -50.834)" filter="url(#a)"><path d="M607.424 100l-17.367 5.643-9.208 58.137 53.151-.001-9.208-58.136z" fill="#fee572"/><path d="M580.849 163.78v5.668H634v-5.67z" fill="#c3983c" fill-opacity=".992"/></g><g fill="red" stroke="red" stroke-width="1.49" stroke-linejoin="round" paint-order="stroke fill markers"><path d="M-23.095 44.733c-4.133 8.932-4.333 7.65-13.39 13.799 8.913 3.135 18.7 2.896 26.779 0-9.057-6.15-9.439-5.165-13.39-13.8z" transform="matrix(.40147 0 0 .48865 39.271 -1.533)"/><path d="M-26.818 58.55c-.101 8.756-.37 15.837-11.545 21.428-5.232 2.786-6.963 4.476-7.615 9.333 6.785 1.493 14.837 2.21 22.883 2.179 8.046.031 16.097-.686 22.882-2.18-.651-4.856-2.382-6.546-7.615-9.332-11.174-5.591-11.443-12.672-11.545-21.428v0c-1.24.02-2.481.02-3.722.02s-2.482 0-3.723-.02z" transform="matrix(.40147 0 0 .48865 39.271 -1.533)"/></g><g transform="translate(-315.445 -48.983) scale(.56826)" fill="#ffdf00" stroke="red"><path transform="matrix(.06853 0 0 .08094 589.047 105.58)" d="M89.878 104.455c71.228 71.229 31.757 135.825 52.51 165.382 28.87 49.947 71.082 59.605 129.342 59.37a77.788 77.788 0 003.413-.09 77.17 77.17 0 003.413.09c58.26.235 100.472-9.423 129.342-59.37 20.753-29.557-18.718-94.153 52.51-165.382-11.605-5.015-42.725 25.609-62.898 25.529-25.612-15.171-47.031 3.08-52.25 16.777 37.838-11.301 70.078 121.468-45.539 137.914-7.067 1.97-16.164 2.514-24.578 2.72-8.414-.206-17.511-.75-24.578-2.72-115.617-16.446-83.377-149.215-45.538-137.914-5.22-13.698-26.64-31.948-52.251-16.777-20.173.08-51.293-30.544-62.898-25.53z" stroke-width="14.177"/><ellipse cx="607.903" cy="124.96" rx="3.947" ry="3.818" stroke-width="1.056"/></g></g></svg>