<svg xmlns="http://www.w3.org/2000/svg" viewBox="0 0 60 60"><defs><filter id="a" color-interpolation-filters="sRGB"><feFlood flood-color="#000" flood-opacity=".498" result="flood"/><feComposite in="flood" in2="SourceGraphic" operator="in" result="composite1"/><feGaussianBlur in="composite1" result="blur" stdDeviation="1"/><feOffset dx="5" dy="3" result="offset"/><feComposite in="SourceGraphic" in2="offset" result="composite2"/></filter></defs><g opacity=".99"><g filter="url(#a)" transform="matrix(.6 0 0 .6 -189.175 -105.922)"><path fill="#ececec" fill-opacity=".992" d="m365.291 259.49 20.403-6.081L396 189.803h-61.417l10.685 63.606z"/><path fill="url(#linearGradient29775)" d="m363.944 259.87 1.242 1.66 18.681-5.935-.863-1.63z" transform="matrix(1.10013 0 0 1.05073 -34.8 -13.593)"/><path fill="#8b8b8b" fill-opacity=".992" d="M345.268 257.189v-3.78l20.023 6.081 20.403-6.081v3.78l-20.403 6.08z"/></g><path fill="#ededed" fill-opacity=".984" stroke="#000" stroke-width=".891" d="M282.83 136.555c.204-5.885-.111-10.125-2.838-12.313 3.375-1.142 3.844-3.428 4.194-4.471.35 1.043.82 3.33 4.194 4.471-2.726 2.188-3.042 6.428-2.838 12.313-.479.154-.912.23-1.356.233a4.4 4.4 0 0 1-1.356-.233z" opacity=".99" transform="matrix(.73724 0 0 -.74356 -179.448 131.837)"/><path stroke="#000" stroke-width=".84" d="M24.846 30.888c2.365 4.65 8.267 4.77 10.458 0-2.395-.978-2.252-1.214-5.215-1.2-2.963.013-1.768-.177-5.243 1.2z"/><g stroke="#000"><path stroke-width=".84" d="M21.147 18.361c6.16-2.507 12.115-2.586 17.845 0l-3.366 9.553c-3.366-1.338-7.688-1.617-11.06.076z"/><path stroke-width="13.49" d="m166.796 305.119-54.464 95.975-8.754-6.962-40.59 61.712-7.283-9.989c-17.703 21.022-27.021 32.762-44.724 53.784 14.216 20.56 44.13 49.69 71.96 55.397 13.294-25.846 83.135-195.794 102.034-237.34M380.21 305.12l54.464 95.975 8.754-6.962 40.59 61.712 7.283-9.989c17.702 21.022 27.021 32.762 44.724 53.784-14.216 20.56-44.13 49.69-71.961 55.397-13.293-25.846-83.134-195.794-102.034-237.34" transform="matrix(.0573 0 0 -.06768 14.33 49.59)"/><path fill="none" stroke="#ececec" stroke-opacity=".988" stroke-width=".84" d="M24.34 25.76c3.573-1.824 7.891-1.874 11.376.026"/><path fill="#ededed" fill-opacity=".984" stroke-width="9.635" d="M97.159 111.627c-2.764 121.396 18.343 216.749 177.984 218.95 159.641-2.201 180.748-97.554 177.985-218.95-11.066 132.287-51.513 167.404-177.985 175.038-126.471-7.634-166.92-42.75-177.984-175.038z" transform="matrix(.0573 0 0 -.06768 14.33 49.59)"/></g><path fill="none" stroke="#ececec" stroke-opacity=".988" stroke-width=".84" d="M20.821 23.513c.19-.092.244-.161.32-.214l1.871-1.491m16.16 1.69c-1.322-.632-1.612-.844-2.418-1.266M18.125 19.96l3.607-2.256m20.206 2.257-3.606-2.257m-16.884.081 3.786 10.121m9.76.035 3.553-10.255"/></g></svg>