<svg xmlns="http://www.w3.org/2000/svg" viewBox="0 0 60 60"><defs><filter id="a" color-interpolation-filters="sRGB"><feFlood flood-color="#000" flood-opacity=".498" result="flood"/><feComposite in="flood" in2="SourceGraphic" operator="in" result="composite1"/><feGaussianBlur in="composite1" result="blur" stdDeviation="1"/><feOffset dx="5" dy="3" result="offset"/><feComposite in="SourceGraphic" in2="offset" result="composite2"/></filter></defs><g opacity=".99"><g fill-opacity=".992" filter="url(#a)" transform="matrix(.6 0 0 .6 -41.934 -106.851)"><path fill="#fdd3e3" d="m119.89 262.22 21.701-7.117 10.189-64.931H88l10.176 64.814z"/><path fill="#de7ea3" d="M98.176 258.766v-3.78l21.714 7.234 21.701-7.117v3.78L119.89 266z"/></g><path fill="none" stroke="#ffffe5" stroke-width=".627" d="m21.519 16.745-.277 2.778"/><path fill="none" stroke="#fff" stroke-width=".627" d="M24.733 19.329h10.226"/><path stroke="#000" stroke-linecap="round" stroke-linejoin="round" stroke-width=".576" d="M34.449 19.998a4.63 5.75 0 0 1-.026.146 4.63 5.75 0 0 1-.146.546 4.63 5.75 0 0 1-.19.524 4.63 5.75 0 0 1-.23.499 4.63 5.75 0 0 1-.269.468 4.63 5.75 0 0 1-.305.432 4.63 5.75 0 0 1-.34.391 4.63 5.75 0 0 1-.367.348 4.63 5.75 0 0 1-.395.3 4.63 5.75 0 0 1-.416.25 4.63 5.75 0 0 1-.435.197 4.63 5.75 0 0 1-.449.143 4.63 5.75 0 0 1-.457.086 4.63 5.75 0 0 1-.462.028 4.63 5.75 0 0 1-.327-.013 4.63 5.75 0 0 1-.46-.07 4.63 5.75 0 0 1-.452-.126 4.63 5.75 0 0 1-.438-.18 4.63 5.75 0 0 1-.423-.236 4.63 5.75 0 0 1-.402-.286 4.63 5.75 0 0 1-.376-.335 4.63 5.75 0 0 1-.347-.379 4.63 5.75 0 0 1-.315-.42 4.63 5.75 0 0 1-.281-.458 4.63 5.75 0 0 1-.241-.49 4.63 5.75 0 0 1-.202-.518 4.63 5.75 0 0 1-.158-.54 4.63 5.75 0 0 1-.064-.307z"/><path stroke="#000" stroke-linecap="round" stroke-linejoin="round" stroke-width=".627" d="M19.408 35.277V19.315h2.453a8 8 0 0 0 .042.278 8 8 0 0 0 .207.81 8 8 0 0 0 .287.785 8 8 0 0 0 .363.754 8 8 0 0 0 .438.712 8 8 0 0 0 .507.667 8 8 0 0 0 .569.612 8 8 0 0 0 .63.552 8 8 0 0 0 .68.486 8 8 0 0 0 .725.417 8 8 0 0 0 .763.342 8 8 0 0 0 .794.263 8 8 0 0 0 .817.184 8 8 0 0 0 .83.1 8 8 0 0 0 .592.02 8 8 0 0 0 .836-.04 8 8 0 0 0 .827-.126 8 8 0 0 0 .81-.207 8 8 0 0 0 .785-.286 8 8 0 0 0 .755-.364 8 8 0 0 0 .713-.437 8 8 0 0 0 .666-.507 8 8 0 0 0 .61-.57 8 8 0 0 0 .553-.628 8 8 0 0 0 .488-.68 8 8 0 0 0 .415-.726 8 8 0 0 0 .342-.764 8 8 0 0 0 .264-.794 8 8 0 0 0 .183-.817l.005-.036h2.224v15.962z"/><path stroke="#000" stroke-linejoin="round" stroke-width=".513" d="M39.566 18.271h2.51l-.572 1.043-.467.02-1.545-.002q.047-.399.068-.802.005-.129.006-.259zm-19.128 1.047h-1.559l-.541.004-.536-1.06h2.566q.003.252.015.503.021.278.055.554z"/><path stroke="#000" stroke-width=".513" d="m39.551 16.555 2.542.009L42.089 18l-2.47-.002a5.73 7.35 0 0 0 .01-.297 5.73 7.35 0 0 0-.03-.734 5.73 7.35 0 0 0-.048-.413zM20.46 18.068l-2.672-.003.007-1.51 2.73.01a5.644 7.519 0 0 0-.062.68 5.644 7.519 0 0 0-.014.532 5.644 7.519 0 0 0 .01.291z"/><path stroke="#000" stroke-width=".684" d="M25.416 19.426a4.566 9.441 0 0 1-.013-.54 4.566 9.441 0 0 1 .011-.668 4.566 9.441 0 0 1 .055-.937 4.566 9.441 0 0 1 .066-.606l8.872.046a4.566 9.441 0 0 1 .035.29 4.566 9.441 0 0 1 .07.932 4.566 9.441 0 0 1 .022.944 4.566 9.441 0 0 1-.01.553z"/><path stroke="#000" stroke-linejoin="round" stroke-width=".627" d="M19.399 35.277c-1.673 1.225-1.775 1.913-2.387 3.398 8.794-.91 17.663-1.039 25.965 0-.599-1.966-.71-2.26-2.337-3.398z"/><path stroke="#000" stroke-linecap="round" stroke-linejoin="round" stroke-width=".513" d="M29.994 26.935a8.37 8.37 0 0 1-8.368-8.368 8.37 8.37 0 0 1 8.368-8.37 8.37 8.37 0 0 1 8.37 8.37 8.37 8.37 0 0 1-8.37 8.368m0-2.644a5.517 5.725 0 0 0 5.517-5.724 5.517 5.725 0 0 0-5.517-5.724 5.517 5.725 0 0 0-5.516 5.724 5.517 5.725 0 0 0 5.516 5.724"/><path fill="none" stroke="#000" stroke-width=".627" d="M30.05 18.068v-5.902"/><path fill="#fff" stroke="#fcd2e3" stroke-opacity=".988" stroke-width=".912" d="M19.066 34.5h21.857"/><path fill="none" stroke="#000" stroke-width=".627" d="m26.004 14.105 3.963 4.019 4.142-4.143"/><path fill="#fff" stroke="#fcd2e3" stroke-opacity=".988" stroke-width=".798" d="M17.478 17.992h3.07"/><path fill="#fff" stroke="#fcd2e3" stroke-opacity=".988" stroke-width=".627" d="M25.151 17.992h9.694"/><path fill="#fff" stroke="#fcd2e3" stroke-opacity=".988" stroke-width=".798" d="M39.485 17.992h2.904"/><path fill="none" stroke="#fcd2e3" stroke-opacity=".988" stroke-width=".627" d="M30.021 16.491v7.646"/><path fill="#fff" stroke="#fcd2e3" stroke-opacity=".988" stroke-width=".627" d="m31.451 16.617-5.348 5.564"/><path fill="none" stroke="#fcd2e3" stroke-opacity=".988" stroke-width=".627" d="m28.395 16.51 5.534 5.632"/><path fill="none" stroke="#fcd2e3" stroke-linejoin="bevel" stroke-opacity=".988" stroke-width=".627" d="M34.257 16.18a5.084 5.084 0 0 1-.938 6.616 5.084 5.084 0 0 1-6.683-.03 5.084 5.084 0 0 1-.88-6.624"/><path fill="none" stroke="#fcd2e3" stroke-opacity=".988" stroke-width=".627" d="M25.181 19.436h9.615"/><path fill="none" stroke="#fcd2e3" stroke-linejoin="bevel" stroke-opacity=".988" stroke-width="1.026" d="M38.779 16.216a9.04 9.04 0 0 1-3.668 9.6 9.04 9.04 0 0 1-10.277-.031 9.04 9.04 0 0 1-3.611-9.621"/><path fill="#fff" stroke="#fcd2e3" stroke-opacity=".988" stroke-width="1.026" d="M19.037 20.141h1.668m18.573 0h1.668"/></g></svg>