<?xml version="1.0" encoding="UTF-8" standalone="no"?>
<svg
   xmlns:dc="http://purl.org/dc/elements/1.1/"
   xmlns:cc="http://creativecommons.org/ns#"
   xmlns:rdf="http://www.w3.org/1999/02/22-rdf-syntax-ns#"
   xmlns:svg="http://www.w3.org/2000/svg"
   xmlns="http://www.w3.org/2000/svg"
   xmlns:sodipodi="http://sodipodi.sourceforge.net/DTD/sodipodi-0.dtd"
   xmlns:inkscape="http://www.inkscape.org/namespaces/inkscape"
   width="60"
   height="60"
   version="1.1"
   id="svg37"
   sodipodi:docname="1KE.svg"
   inkscape:version="1.0.1 (3bc2e813f5, 2020-09-07)">
  <metadata
     id="metadata41">
    <rdf:RDF>
      <cc:Work
         rdf:about="">
        <dc:format>image/svg+xml</dc:format>
        <dc:type
           rdf:resource="http://purl.org/dc/dcmitype/StillImage" />
      </cc:Work>
    </rdf:RDF>
  </metadata>
  <sodipodi:namedview
     pagecolor="#ffffff"
     bordercolor="#666666"
     borderopacity="1"
     objecttolerance="10"
     gridtolerance="10"
     guidetolerance="10"
     inkscape:pageopacity="0"
     inkscape:pageshadow="2"
     inkscape:window-width="1366"
     inkscape:window-height="711"
     id="namedview39"
     showgrid="false"
     inkscape:zoom="9.1"
     inkscape:cx="30"
     inkscape:cy="30"
     inkscape:window-x="0"
     inkscape:window-y="0"
     inkscape:window-maximized="1"
     inkscape:current-layer="svg37" />
  <defs
     id="defs13">
    <filter
       id="a"
       color-interpolation-filters="sRGB">
      <feFlood
         flood-opacity=".498"
         flood-color="#000"
         result="flood"
         id="feFlood2" />
      <feComposite
         in="flood"
         in2="SourceGraphic"
         operator="in"
         result="composite1"
         id="feComposite4" />
      <feGaussianBlur
         in="composite1"
         stdDeviation="1"
         result="blur"
         id="feGaussianBlur6" />
      <feOffset
         dx="5"
         dy="3"
         result="offset"
         id="feOffset8" />
      <feComposite
         in="SourceGraphic"
         in2="offset"
         result="composite2"
         id="feComposite10" />
    </filter>
  </defs>
  <g
     opacity="0.99"
     id="g35"
     transform="translate(3.9214985)">
    <g
       transform="matrix(0.6,0,0,0.6,-241.805,-107.069)"
       filter="url(#a)"
       id="g19">
      <path
         d="m 446.47,260.22 19.26,-5.911 10.27,-61.413 h -59.055 l 10.266,61.384 z"
         fill="#feec99"
         id="path15" />
      <path
         d="m 427.21,258.06 v -3.78 l 19.26,5.94 19.26,-5.911 v 3.78 L 446.47,264 Z"
         fill="#c3983c"
         fill-opacity="0.992"
         id="path17" />
    </g>
    <g
       stroke-width="1.386"
       id="g29">
      <path
         d="m 32.916,45.04 c 0.744,-1.404 0.455,-3.01 0.455,-4.55 1.225,-2.526 2.055,-4.467 1.885,-6.76 1.592,-1.773 2.992,-3.663 3.899,-5.848 0.259,-1.083 0.482,-2.167 0.065,-3.25 l -0.585,-0.325 c -0.754,-1.563 -0.977,-1.91 -2.665,-1.69 l -0.324,1.625 -0.455,0.78 0.325,-2.08 -0.455,-1.104 c -2.585,0.832 -2.527,2.223 -3.883,4.316 -2.053,0.948 -2.943,1.428 -4.956,2.183 l -0.91,0.585 -1.365,2.274 1.235,-2.21 -0.325,-1.43 c 0,0 -0.065,-1.3 0,-1.624 0.137,-2.095 1.993,-4.624 3.495,-5.916 2.053,-1.564 2.45,-3.017 2.744,-5.522 -10.025,-5.564 -14.944,-2.958 -19.562,0.13 0.202,1.149 0.359,1.967 0.791,3.55 1.11,3.722 1.317,6.073 1.484,12.502 0.31,4.714 5.135,11.302 11.27,10.989 l 3.028,4.674 c 1.275,-1.135 1.088,-2.82 1.3,-4.42 l 0.974,0.13 z"
         stroke="#000000"
         stroke-width="0.600031"
         id="path21" />
      <path
         d="m 25.338,29.02 c -0.7,1.22 -0.788,3.24 -0.718,3.97"
         fill="none"
         stroke="#feec99"
         stroke-width="0.839857"
         id="path23" />
      <path
         d="m 31.257,36.631 c 1.536,0.095 1.408,-0.692 1.817,-2.025 -1.565,-0.122 -1.418,0.665 -1.817,2.025 z"
         fill="#feec99"
         stroke="#feec99"
         stroke-width="0.899814"
         id="path25" />
      <path
         d="M 24.092,39.529 C 23.166,40.057 21.325,39.02 20.653,38.453 18.43,36.575 15.903,34.141 15.862,31.008 15.25,26.142 15.479,19.355 13.632,15.258"
         fill="none"
         stroke="#feec99"
         stroke-width="1.31998"
         id="path27" />
    </g>
    <path
       d="m 35.585,22.425 -1.712,2.417"
       fill="none"
       stroke="#feec99"
       stroke-width="0.840064"
       id="path31" />
    <path
       d="m 38.029,25.82 c 0.416,0.777 -0.16,0.965 -1.091,1.847"
       fill="none"
       stroke="#feec99"
       stroke-width="0.840438"
       id="path33" />
  </g>
</svg>
