<?xml version="1.0" encoding="UTF-8" standalone="no"?>
<svg
   xmlns:dc="http://purl.org/dc/elements/1.1/"
   xmlns:cc="http://creativecommons.org/ns#"
   xmlns:rdf="http://www.w3.org/1999/02/22-rdf-syntax-ns#"
   xmlns:svg="http://www.w3.org/2000/svg"
   xmlns="http://www.w3.org/2000/svg"
   xmlns:sodipodi="http://sodipodi.sourceforge.net/DTD/sodipodi-0.dtd"
   xmlns:inkscape="http://www.inkscape.org/namespaces/inkscape"
   width="60"
   height="60"
   version="1.1"
   id="svg49"
   sodipodi:docname="1KI.svg"
   inkscape:version="1.0.1 (3bc2e813f5, 2020-09-07)">
  <metadata
     id="metadata53">
    <rdf:RDF>
      <cc:Work
         rdf:about="">
        <dc:format>image/svg+xml</dc:format>
        <dc:type
           rdf:resource="http://purl.org/dc/dcmitype/StillImage" />
      </cc:Work>
    </rdf:RDF>
  </metadata>
  <sodipodi:namedview
     pagecolor="#ffffff"
     bordercolor="#666666"
     borderopacity="1"
     objecttolerance="10"
     gridtolerance="10"
     guidetolerance="10"
     inkscape:pageopacity="0"
     inkscape:pageshadow="2"
     inkscape:window-width="1366"
     inkscape:window-height="711"
     id="namedview51"
     showgrid="false"
     inkscape:zoom="9.1"
     inkscape:cx="30"
     inkscape:cy="30"
     inkscape:window-x="0"
     inkscape:window-y="0"
     inkscape:window-maximized="1"
     inkscape:current-layer="svg49" />
  <defs
     id="defs13">
    <filter
       id="a"
       color-interpolation-filters="sRGB">
      <feFlood
         flood-opacity=".498"
         flood-color="#000"
         result="flood"
         id="feFlood2" />
      <feComposite
         in="flood"
         in2="SourceGraphic"
         operator="in"
         result="composite1"
         id="feComposite4" />
      <feGaussianBlur
         in="composite1"
         stdDeviation="1"
         result="blur"
         id="feGaussianBlur6" />
      <feOffset
         dx="5"
         dy="3"
         result="offset"
         id="feOffset8" />
      <feComposite
         in="SourceGraphic"
         in2="offset"
         result="composite2"
         id="feComposite10" />
    </filter>
  </defs>
  <g
     opacity="0.99"
     id="g47"
     transform="translate(3.9218998)">
    <g
       transform="matrix(0.6,0,0,0.6,-143.547,-106.36)"
       filter="url(#a)"
       id="g19">
      <path
         d="m 282.71,260.22 20.087,-6.18 10.62,-63.506 H 252 l 10.623,63.505 z"
         fill="#fcc900"
         fill-opacity="0.992"
         id="path15" />
      <path
         d="m 262.623,257.819 v -3.78 l 20.087,6.181 20.087,-6.18 v 3.78 L 282.71,264 Z"
         fill="#9c7b00"
         fill-opacity="0.976"
         id="path17" />
    </g>
    <g
       transform="matrix(-0.81616,0,0,-0.806,225.675,98.304)"
       id="g45">
      <g
         stroke="#000000"
         stroke-width="1.2"
         id="g31">
        <path
           transform="matrix(0.06853,0,0,0.08094,225.686,60.013)"
           d="m 89.878,104.459 c 71.228,71.229 31.757,135.82 52.51,165.378 28.87,49.947 71.082,59.605 129.342,59.37 a 78.591,78.591 0 0 0 3.413,-0.09 c 1.14,0.055 2.278,0.084 3.413,0.09 58.26,0.235 100.472,-9.423 129.342,-59.37 20.753,-29.557 -18.718,-94.15 52.51,-165.378 -11.605,-5.015 -42.725,25.605 -62.898,25.525 -25.612,-15.171 -47.031,3.08 -52.25,16.777 37.838,-11.301 70.078,121.468 -45.539,137.914 -7.067,1.97 -16.164,2.514 -24.578,2.72 -8.414,-0.206 -17.511,-0.75 -24.578,-2.72 -115.617,-16.446 -83.377,-149.215 -45.538,-137.914 -5.22,-13.698 -26.64,-31.948 -52.251,-16.777 -20.173,0.08 -51.293,-30.54 -62.898,-25.525 z"
           fill="#fcc800"
           fill-opacity="0.988"
           stroke-width="9.933"
           id="path21" />
        <path
           d="m 141.488,275.714 c -28.03,-24.447 -35.67,-22.506 -73.48,-17.843 l -35.66,52.997 c 60.802,-7.142 122.974,2.29 115.3,107.58 7.77,-26.63 28.133,-63.418 39.832,-101.833 m 220.385,-40.901 c 28.03,-24.447 35.67,-22.506 73.479,-17.843 l 35.66,52.997 c -60.801,-7.142 -122.974,2.29 -115.3,107.58 -7.77,-26.63 -28.132,-63.418 -39.83,-101.833"
           transform="matrix(0.06853,0,0,0.08094,225.73,59.991)"
           stroke-width="15.892"
           id="path23" />
        <path
           d="m 128.121,339.223 -29.443,64.098 c -3.406,-2.033 6.609,9.49 -6.592,1.008 -14.055,23.338 -19.002,29.833 -33.969,54.715 21.968,17.086 24.659,18.31 46.106,25.56 13.293,-25.846 25.739,-42.373 44.639,-83.918 m 270.022,-61.463 29.443,64.098 c 3.407,-2.033 -6.608,9.49 6.593,1.008 14.054,23.338 19.002,29.833 33.968,54.715 -21.968,17.086 -24.658,18.31 -46.106,25.56 -13.292,-25.846 -25.738,-42.373 -44.638,-83.918"
           transform="matrix(0.06853,0,0,0.08094,225.709,60.013)"
           stroke-width="15.892"
           id="path25" />
        <path
           d="m 233.88,97.288 c 7.362,3.092 14.48,3.19 21.327,0 l -4.023,-11.781 c -5.552,2.376 -8.767,2.099 -13.5,0.437 z"
           stroke-width="1.184"
           id="path27" />
        <path
           d="m 237.463,88.704 c 4.81,1.655 8.506,2.056 13.826,-0.031"
           stroke="#fcc800"
           stroke-width="1.11"
           stroke-opacity="0.988"
           fill="none"
           id="path29" />
      </g>
      <path
         d="m 233.664,87.938 c 0.302,0.137 0.414,0.39 0.467,0.478 1.928,3.26 1.51,3.297 1.895,4.828 m 19.295,-5.088 c -0.305,0.131 -0.422,0.381 -0.476,0.469 -1.994,3.22 -1.576,3.266 -1.992,4.79"
         stroke="#fcc800"
         stroke-width="0.814"
         stroke-opacity="0.988"
         fill="none"
         id="path33" />
      <path
         d="m 234.519,98.23 4.29,-12.357 m 11.058,0 4.574,12.42 m -22.848,-6.045 c 0.18,0.09 0.406,0.383 0.61,0.575 l 3.094,2.919 m 22.05,-3.494 c -0.18,0.09 -0.406,0.383 -0.61,0.575 l -3.093,2.919"
         stroke="#fcc800"
         stroke-width="1.036"
         stroke-opacity="0.988"
         fill="none"
         id="path35" />
      <path
         d="m 239.024,80.489 c 3.438,-2.881 8.3,-2.42 11.037,0.134 -2.365,3.351 -9.494,2.307 -11.037,-0.134 z"
         stroke="#000000"
         stroke-width="1.036"
         id="path37" />
      <ellipse
         cx="244.541"
         cy="79.184998"
         rx="3.767"
         ry="3.8180001"
         fill="#fcc800"
         fill-opacity="0.988"
         stroke="#000000"
         stroke-width="0.74"
         id="ellipse39" />
      <path
         d="m 240.198,99.645 -1.37,5.82 -0.91,-0.363 -0.998,3.086 c 4.989,2.097 11.131,1.98 15.25,0 l -0.997,-3.086 -0.854,0.363 -1.37,-5.82"
         stroke="#000000"
         stroke-width="1.036"
         id="path41" />
      <path
         d="m 239.476,100.175 c 0.152,0.039 0.216,0.036 0.302,0.06 3.05,0.835 6.736,0.845 9.676,0.113 0.05,-0.013 0.088,-0.002 0.245,-0.039 m -11.183,3.982 c 0.156,0.037 0.198,0.045 0.26,0.066 3.28,1.12 8.768,0.875 11.585,-0.009 0.079,-0.024 0.125,-0.026 0.27,-0.06"
         stroke="#fcc800"
         stroke-width="1.036"
         stroke-opacity="0.988"
         fill="none"
         id="path43" />
    </g>
  </g>
</svg>
