<?xml version="1.0" encoding="UTF-8" standalone="no"?>
<svg
   xmlns:dc="http://purl.org/dc/elements/1.1/"
   xmlns:cc="http://creativecommons.org/ns#"
   xmlns:rdf="http://www.w3.org/1999/02/22-rdf-syntax-ns#"
   xmlns:svg="http://www.w3.org/2000/svg"
   xmlns="http://www.w3.org/2000/svg"
   xmlns:sodipodi="http://sodipodi.sourceforge.net/DTD/sodipodi-0.dtd"
   xmlns:inkscape="http://www.inkscape.org/namespaces/inkscape"
   width="60"
   height="60"
   version="1.1"
   id="svg45"
   sodipodi:docname="1NK.svg"
   inkscape:version="1.0.1 (3bc2e813f5, 2020-09-07)">
  <metadata
     id="metadata49">
    <rdf:RDF>
      <cc:Work
         rdf:about="">
        <dc:format>image/svg+xml</dc:format>
        <dc:type
           rdf:resource="http://purl.org/dc/dcmitype/StillImage" />
      </cc:Work>
    </rdf:RDF>
  </metadata>
  <sodipodi:namedview
     pagecolor="#ffffff"
     bordercolor="#666666"
     borderopacity="1"
     objecttolerance="10"
     gridtolerance="10"
     guidetolerance="10"
     inkscape:pageopacity="0"
     inkscape:pageshadow="2"
     inkscape:window-width="1366"
     inkscape:window-height="711"
     id="namedview47"
     showgrid="false"
     inkscape:zoom="9.1"
     inkscape:cx="30"
     inkscape:cy="30"
     inkscape:window-x="0"
     inkscape:window-y="0"
     inkscape:window-maximized="1"
     inkscape:current-layer="svg45" />
  <defs
     id="defs13">
    <filter
       id="a"
       color-interpolation-filters="sRGB">
      <feFlood
         flood-opacity=".498"
         flood-color="#000"
         result="flood"
         id="feFlood2" />
      <feComposite
         in="flood"
         in2="SourceGraphic"
         operator="in"
         result="composite1"
         id="feComposite4" />
      <feGaussianBlur
         in="composite1"
         stdDeviation="1"
         result="blur"
         id="feGaussianBlur6" />
      <feOffset
         dx="5"
         dy="3"
         result="offset"
         id="feOffset8" />
      <feComposite
         in="SourceGraphic"
         in2="offset"
         result="composite2"
         id="feComposite10" />
    </filter>
  </defs>
  <g
     opacity="0.99"
     id="g43"
     transform="translate(3.9214985)">
    <g
       transform="matrix(0.6,0,0,0.6,-241.805,-161.069)"
       filter="url(#a)"
       id="g21">
      <g
         stroke-width="1.014"
         id="g17">
        <path
           d="M 446.472,350.22 465.729,344.309 476,282.896 h -59.055 l 10.266,61.384 z"
           fill="#feec99"
           id="path15" />
      </g>
      <path
         d="m 427.21,348.06 v -3.78 l 19.262,5.94 19.257,-5.911 v 3.78 L 446.472,354 Z"
         fill="#c3983c"
         fill-opacity="0.992"
         id="path19" />
    </g>
    <g
       stroke-width="1.386"
       id="g31">
      <path
         d="m 32.787,44.746 c 0.731,-1.379 0.447,-2.955 0.447,-4.47 1.204,-2.48 2.02,-4.388 1.852,-6.64 1.564,-1.743 2.94,-3.599 3.831,-5.746 0.254,-1.064 0.474,-2.129 0.064,-3.193 l -0.575,-0.319 c -0.74,-1.536 -0.96,-1.876 -2.618,-1.66 -0.913,2.831 -0.79,0.976 -0.894,-0.766 -2.54,0.818 -2.482,2.184 -3.814,4.24 -2.017,0.931 -2.892,1.403 -4.87,2.145 l -0.893,0.574 -1.34,2.235 1.212,-2.17 -0.319,-1.405 c 0,0 -0.064,-1.277 0,-1.597 0.135,-2.058 1.958,-4.543 3.433,-5.812 C 30.321,18.625 30.71,17.198 31,14.737 21.15,9.27 16.318,11.831 11.78,14.864 a 32.84,32.84 0 0 0 0.778,3.488 c 1.09,3.657 1.293,5.967 1.457,12.283 0.305,4.63 5.046,11.103 11.073,10.796 l 2.974,4.592 c 1.253,-1.115 1.07,-2.77 1.277,-4.342 l 0.958,0.128 z"
         fill="#ff0000"
         stroke="#ff0000"
         stroke-width="0.659816"
         id="path23" />
      <path
         d="m 25.342,29.008 c -0.687,1.198 -0.774,3.184 -0.705,3.901"
         fill="none"
         stroke="#feec99"
         stroke-width="0.840181"
         id="path25" />
      <path
         d="m 30.934,36.308 c 2.1,-0.563 1.774,-1.124 2.335,-2.164 -1.732,-0.135 -2.622,0.883 -2.335,2.164 z"
         fill="#feec99"
         stroke="#feec99"
         stroke-width="0.899998"
         id="path27" />
      <path
         d="m 24.119,39.332 c -0.91,0.52 -2.72,-0.5 -3.38,-1.056 -2.184,-1.846 -4.667,-4.237 -4.706,-7.314 -0.601,-4.781 -0.377,-11.449 -2.19,-15.475"
         fill="none"
         stroke="#feec99"
         stroke-width="1.32009"
         id="path29" />
    </g>
    <path
       d="m 35.41,22.53 -1.682,2.373"
       fill="none"
       stroke="#feec99"
       stroke-width="0.840361"
       id="path33" />
    <path
       d="m 37.81,25.864 c 0.41,0.763 -0.156,0.949 -1.072,1.815"
       fill="none"
       stroke="#feec99"
       stroke-width="0.840378"
       id="path35" />
    <path
       d="m 37.61,30.592 -3.951,-2.303 c -2.275,3.764 -2.285,3.7 -4.548,6.87 0.7,1.73 3.109,2.571 4.988,3.593 l -0.814,1.932 c -1.89,-1.18 -4.241,-1.81 -5.447,-3.827 -1.4,1.684 -2.297,3.38 -3.224,4.734 -0.801,-0.098 -1.444,-0.102 -2.39,-0.513 2.594,-3.771 5.946,-7.452 10.074,-13.701 l -1.218,-1.185 0.853,-1.56 1.91,1.933 4.551,2.467 a 9.041,9.041 0 0 1 -0.785,1.56 z"
       fill="#ffdf00"
       fill-opacity="0.992"
       stroke="#ff0000"
       stroke-width="0.360187"
       stroke-opacity="0.992"
       id="path37" />
    <path
       d="m 31.15,16.158 c -0.33,-0.074 -1.106,-0.41 -1.263,-0.496 -5.708,-3.157 -11.554,-3.743 -16.444,-0.099 -0.208,0.155 -1.507,0.81 -1.722,0.87"
       fill="none"
       stroke="#ffdf00"
       stroke-width="1.79994"
       stroke-opacity="0.992"
       id="path39" />
    <path
       d="m 31.812,25.754 c -0.308,-0.215 -0.255,-0.334 -0.298,-0.436 -1.53,-3.674 -4.229,-5.489 -5.914,-5.899 -6.626,0.028 -8.262,4.138 -11.371,7.148 -0.128,0.124 -0.46,0.403 -0.658,0.41"
       fill="none"
       stroke="#ffdf00"
       stroke-width="1.19963"
       stroke-opacity="0.992"
       id="path41" />
  </g>
</svg>
