<svg xmlns="http://www.w3.org/2000/svg" viewBox="0 0 60 60"><defs><filter id="a" width="1.18" height="1.112" x="-.044" y="-.034" color-interpolation-filters="sRGB"><feFlood flood-color="#000" flood-opacity=".498" result="flood"/><feComposite in="flood" in2="SourceGraphic" operator="in" result="composite1"/><feGaussianBlur in="composite1" result="blur" stdDeviation="1"/><feOffset dx="5" dy="3" result="offset"/><feComposite in="SourceGraphic" in2="offset" result="composite2"/></filter></defs><g opacity=".99"><g filter="url(#a)" transform="matrix(.6 0 0 .6 -286.101 -161.266)"><path fill="#feec99" d="m526.835 349.958 18.943-7.01L554 283.815h-54.33l8.221 59.13z"/><path fill="#c3983c" fill-opacity=".992" d="M507.891 346.726v-3.78l18.944 7.012 18.943-7.01v3.779l-18.943 7.01z"/></g><path fill="red" stroke="red" stroke-width="4.938" d="M372.14 1666.57v-346.55h15v346.55z" transform="matrix(-.06281 0 0 -.04588 53.886 97.066)"/><g stroke="red" stroke-width="4.938"><path fill="#ffdf00" stroke-width="7.525" d="m373.444 1325.142-13.45-8.57 2.65-111.341 16.688-28.568 17.542 27.755 2.373 111.247-13.382 9.224z" style="fill:#feec99;fill-opacity:.99215686" transform="matrix(-.04432 0 0 -.03237 46.865 78.607)"/><path fill="none" stroke-width="6.02" d="M379.551 1181.017v105.099l16.535 13.127m-16.535-13.127-16.317 14.496" transform="matrix(-.04432 0 0 -.03237 46.865 78.607)"/></g><path fill="red" d="M30.042 35.08a7.37 7.37 0 0 0 7.371-7.371 7.37 7.37 0 0 0-7.372-7.372 7.37 7.37 0 0 0-7.37 7.372 7.37 7.37 0 0 0 7.371 7.372zm0-1.607a5.764 5.764 0 0 1-5.763-5.764 5.764 5.764 0 0 1 5.763-5.763 5.764 5.764 0 0 1 5.764 5.763 5.764 5.764 0 0 1-5.764 5.764"/><path fill="red" stroke="red" stroke-width="6.371" d="M372.14 1666.57v-346.55h15v346.55z" transform="matrix(-.06281 0 0 .04588 53.886 -41.698)"/><g stroke="red" stroke-width="4.938"><path fill="#ffdf00" stroke-width="7.525" d="m373.444 1325.142-13.45-8.57 2.65-111.341 16.688-28.568 17.542 27.755 2.373 111.247-13.382 9.224z" style="fill:#feec99;fill-opacity:.99215686" transform="matrix(-.04432 0 0 .03237 46.864 -23.24)"/><path fill="none" stroke-width="6.02" d="M379.551 1181.017v105.099l16.535 13.127m-16.535-13.127-16.317 14.496" transform="matrix(-.04432 0 0 .03237 46.864 -23.24)"/></g><path fill="red" stroke="red" stroke-width="6.371" d="M372.14 1666.57v-346.55h15v346.55z" transform="matrix(-.04441 -.0444 .03244 -.03245 -1.908 93.613)"/><path fill="red" stroke="red" stroke-width="6.371" d="M372.14 1666.57v-346.55h15v346.55z" transform="matrix(.04441 -.0444 -.03243 -.03243 62.232 93.6)"/><path fill="red" stroke="red" stroke-width="4.938" d="M372.14 1666.57v-346.55h15v346.55z" transform="matrix(0 .06281 -.04588 0 98.94 3.864)"/><g stroke="red" stroke-width="4.938"><path fill="#ffdf00" stroke-width="7.525" d="m373.444 1325.142-13.45-8.57 2.65-111.341 16.688-28.568 17.542 27.755 2.373 111.247-13.382 9.224z" style="fill:#feec99;fill-opacity:.99215686" transform="matrix(0 .04432 -.03237 0 80.987 10.885)"/><path fill="none" stroke-width="6.02" d="M379.551 1181.017v105.099l16.535 13.127m-16.535-13.127-16.317 14.496" transform="matrix(0 .04432 -.03237 0 80.987 10.885)"/></g><path fill="red" stroke="red" stroke-width="5.575" d="M372.14 1666.57v-346.55h15v346.55z" transform="matrix(0 .06281 .04588 0 -38.89 3.864)"/><g stroke="red" stroke-width="4.938"><path fill="#ffdf00" stroke-width="7.525" d="m373.444 1325.142-13.45-8.57 2.65-111.341 16.688-28.568 17.542 27.755 2.373 111.247-13.382 9.224z" style="fill:#feec99;fill-opacity:.99215686" transform="matrix(0 .04432 .03237 0 -20.987 10.885)"/><path fill="none" stroke-width="6.02" d="M379.551 1181.017v105.099l16.535 13.127m-16.535-13.127-16.317 14.496" transform="matrix(0 .04432 .03237 0 -20.987 10.885)"/></g><g stroke="red" stroke-width="4.938"><path fill="#ffdf00" stroke-width="7.525" d="m373.444 1325.142-13.45-8.57 2.65-111.341 16.688-28.568 17.542 27.755 2.373 111.247-13.382 9.224z" style="fill:#feec99;fill-opacity:.99215686" transform="rotate(44.997 -71.788 4.438)scale(.04432 -.03238)"/><path fill="none" stroke-width="6.02" d="M379.551 1181.017v105.099l16.535 13.127m-16.535-13.127-16.317 14.496" transform="rotate(44.997 -71.788 4.438)scale(.04432 -.03238)"/></g><g stroke="red" stroke-width="4.938"><path fill="#ffdf00" stroke-width="7.525" d="m373.444 1325.142-13.45-8.57 2.65-111.341 16.688-28.568 17.542 27.755 2.373 111.247-13.382 9.224z" style="fill:#feec99;fill-opacity:.99215686" transform="matrix(-.03134 .03133 -.0229 -.0229 78.211 52.066)"/><path fill="none" stroke-width="6.02" d="M379.551 1181.017v105.099l16.535 13.127m-16.535-13.127-16.317 14.496" transform="matrix(-.03134 .03133 -.0229 -.0229 78.211 52.066)"/></g></g></svg>