<svg xmlns="http://www.w3.org/2000/svg" viewBox="0 0 60 60"><defs><filter id="a" style="color-interpolation-filters:sRGB"><feFlood flood-color="#000" flood-opacity=".498" result="flood"/><feComposite in="flood" in2="SourceGraphic" operator="in" result="composite1"/><feGaussianBlur in="composite1" result="blur" stdDeviation="1"/><feOffset dx="5" dy="3" result="offset"/><feComposite in="SourceGraphic" in2="offset" result="composite2"/></filter></defs><g style="opacity:.99;filter:url(#a)" transform="matrix(.6 0 0 .6 6.557 -106.143)"><g style="opacity:1"><g style="stroke-width:.990099"><g style="fill:url(#linearGradient23783);fill-opacity:1;stroke-width:.990099" transform="matrix(1.70262 0 0 1.52988 -178.755 141.918)"><g style="fill:url(#linearGradient23781);fill-opacity:1;stroke-width:.990099"><path d="m-36.754-31.01-13.424 5.004-6.024 43.635h38.847l-6.028-43.654z" style="fill:#f9f9f9;fill-opacity:.992157;stroke-width:.990099" transform="rotate(180 45.578 23.813)"/></g></g></g></g><path d="M16.264 258.374v-3.78l22.764 7.626 22.856-7.654v3.78L39.028 266Z" style="opacity:1;fill:#b2b2b2;fill-opacity:.992157;stroke:none;stroke-width:1.58881px;stroke-linecap:butt;stroke-linejoin:miter;stroke-opacity:1"/></g><path d="M28.506 37.551v-8.699h-6.269l-1-2.666h7.27v-9.822H16.468l-1-3.086H44.53l-1 3.086h-11.9v9.822h7.458l-1 2.666H31.63v8.7h8.533l1 3.086H18.925l1-3.087z" style="font-style:normal;font-variant:normal;font-weight:400;font-stretch:normal;font-size:29.072px;line-height:1.25;font-family:MingLiU_HKSCS-ExtB;-inkscape-font-specification:MingLiU_HKSCS-ExtB;letter-spacing:0;word-spacing:0;display:inline;opacity:.99;fill:#000;fill-opacity:1;stroke:#000;stroke-width:.514;stroke-linejoin:round;stroke-miterlimit:4;stroke-dasharray:none;stroke-opacity:1"/></svg>