<?xml version="1.0" encoding="UTF-8"?>
<svg width="50mm" height="50mm" clip-rule="evenodd" fill-rule="evenodd" image-rendering="optimizeQuality" shape-rendering="geometricPrecision" text-rendering="geometricPrecision" version="1.1" viewBox="0 0 50 50" xmlns="http://www.w3.org/2000/svg" xmlns:cc="http://creativecommons.org/ns#" xmlns:dc="http://purl.org/dc/elements/1.1/" xmlns:rdf="http://www.w3.org/1999/02/22-rdf-syntax-ns#">
 <metadata>
  <rdf:RDF>
   <cc:Work rdf:about="">
    <dc:format>image/svg+xml</dc:format>
    <dc:type rdf:resource="http://purl.org/dc/dcmitype/StillImage"/>
    <dc:title/>
   </cc:Work>
  </rdf:RDF>
 </metadata>
 <g transform="translate(362.93 -244.92)">
  <g transform="translate(-11.697 64.904)">
   <path d="m-332.31 214.01c-4.5485 1.2233-3.3717 2.1101-2.8608 3.2784 0.33465 0.9812-8.0988 3.364-4.5077 7.1231h26.9c3.591-3.7591-4.8429-6.1419-4.5082-7.1231 0.51085-1.1682 1.6876-2.055-2.8608-3.2784z" fill="#561a0e" stroke="#1f0905" stroke-linejoin="round" stroke-width="1.2"/>
   <path d="m-327.94 214.03c9.8421 0.32247 8.3995 4.7431-3.688 4.7093 6.0677 0.72665 17.39-0.0874 14.085 5.671h4.7625c3.591-3.7591-4.8424-6.1419-4.5077-7.1231 0.50308-1.1505 1.4066-1.8932-2.1726-3.2179" fill="#070705" opacity=".4"/>
  </g>
  <g transform="translate(-884.41 832.28)">
   <g transform="matrix(1.0439 0 0 1 -24.319 -.0382)" stroke-width=".97874">
    <path transform="matrix(.25345 0 0 .26458 870.51 -832.24)" d="m-1315 952.07s-0.4281 0.0112-1.0352 0.16016c-1.6222 0.0227-0.013 2.9816-1.6331 3.0115l-7.0954 6.7971s6.1973 5.4768 6.1973 7.8867-4.1973 5.8867-4.1973 5.8867v42.855l8.6973 7.3438 13.934-3.1524-5.3633-7.8437 19.07-20.348c16.235 47.064-40.882 25.641-30.719 59.584h78.643s-8.6562-8.681-2.6719-22.522c15.896-40.165 7.144-60.269-9.8945-70.203-15.398-8.9781-39.512-9.6396-63.785-9.3086-0.01-0.0113-0.1465-0.14453-0.1465-0.14453z" fill="#561a0e" stroke="#1f0905" stroke-linejoin="round" stroke-width="4.5354"/>
    <path d="m537.14-572.34a1.2586 1.2422 0 0 0 1.2586 1.2422 1.2586 1.2422 0 0 0 1.2586-1.2422 1.2586 1.2422 0 0 0-1.2586-1.2422 1.2586 1.2422 0 0 0-1.2586 1.2422zm4.0886-1.2421-2.8301-1.1e-4" fill="none" stroke="#1f0905" stroke-linejoin="round" stroke-width=".78299" style="paint-order:stroke fill markers"/>
    <g>
     <ellipse transform="scale(-1,1)" cx="-536.63" cy="-563.62" rx=".67614" ry=".64197" fill="#1f0905" style="paint-order:stroke fill markers"/>
     <ellipse transform="scale(-1,1)" cx="-538.38" cy="-572.34" rx=".35712" ry=".37535" fill="#1f0905" style="paint-order:stroke fill markers"/>
     <path d="m553.8-553.3h-3e-3 2.7915s-2.1948-2.2969-0.67806-5.9588c5.9968-15.142-0.94925-21.142-14.352-21.233v-2.4e-4c-1.386-0.01-2.8405 0.0443-4.3574 0.15761 0.0354 0.0381 1.2871 1.1298 1.5983 1.5529 0.0358-3e-3 0.0701-5e-3 0.10567-7e-3l2.0924 2.3628s-1.1479-1.8919 0.1795-2.2228c21.969-1.0368 14.095 25.524 2.1653 25.289 0.49793 0 0.97338 7e-3 1.4264 0.0212" opacity=".4"/>
     <path d="m538.63-576.19c2.9237-2.9087-2.1392-5.5425-2.1392-5.5425l0.0736 4.4752" fill="#561a0e" stroke="#1f0905" stroke-linejoin="round" stroke-width=".88087"/>
    </g>
    <path d="m544.44-569.07c0.0348-0.16719 4.7716-4.1982 0.8117-6.3517" clip-rule="evenodd" fill="none" image-rendering="optimizeQuality" shape-rendering="geometricPrecision" stroke="#1f0905" stroke-linecap="round" stroke-linejoin="round" stroke-width="1.1745"/>
    <path d="m538.64-561.06 0.019-1.9325" clip-rule="evenodd" fill="#f6f1a7" fill-rule="evenodd" image-rendering="optimizeQuality" shape-rendering="geometricPrecision" stroke="#1f0905" stroke-linejoin="round" stroke-width=".783"/>
   </g>
  </g>
 </g>
</svg>
