<svg xmlns="http://www.w3.org/2000/svg" xmlns:xlink="http://www.w3.org/1999/xlink" fill-rule="evenodd" clip-rule="evenodd" image-rendering="optimizeQuality" shape-rendering="geometricPrecision" text-rendering="geometricPrecision" viewBox="0 0 50 50"><defs><linearGradient id="a"><stop offset="0" stop-color="#c23014"/><stop offset="1" stop-color="#171717"/></linearGradient><linearGradient xlink:href="#a" id="b" x1="-144.63" x2="-118.08" y1="495" y2="495" gradientTransform="matrix(.93894 0 0 .97636 148.33 -447.95)" gradientUnits="userSpaceOnUse"/><linearGradient xlink:href="#a" id="c" x1="1247.8" x2="1265.1" y1="1156.6" y2="1156.6" gradientTransform="matrix(.99908 0 0 1.0007 -1230.3 -1137)" gradientUnits="userSpaceOnUse"/></defs><path fill="url(#b)" stroke="#000" stroke-linejoin="round" stroke-width="1.2" d="M22.1 26.3c-.93 11.62-9 8.67-9 18.1h23.8c0-9.43-8.07-6.48-9-18.1H25z"/><path d="M23.92 26.3c.93 11.62 9 8.67 9 18.1h3.98c0-9.43-8.07-6.48-9-18.1H25z" opacity=".2"/><path fill="#fff" d="M13.75 43.78c.02-7.22 6.58-6.13 8.6-14.76.06 8.34-7.06 7.44-8.6 14.76z" opacity=".25"/><path fill="url(#c)" stroke="#000" stroke-linejoin="round" stroke-width="1.2" d="M25 12.6c-3.42 0-6.2 2.63-6.2 5.87a5.79 5.79 0 0 0 2.73 4.86l-4.57 5.04h16.08l-4.57-5.04a5.8 5.8 0 0 0 2.73-4.86c0-3.24-2.78-5.87-6.2-5.87z"/><path fill="#fff" d="M22.9 13.56c-.84.21-5.47 2.94-2.57 7.82 0 0-1.15-4.16 2.58-7.82z" opacity=".25"/><path d="M25 12.6a6.5 6.5 0 0 0-1.5.17c2.7.64 4.69 2.95 4.69 5.7a5.8 5.8 0 0 1-2.73 4.86l4.58 5.04h3l-4.57-5.04a5.79 5.79 0 0 0 2.73-4.86c0-3.24-2.78-5.87-6.2-5.87z" opacity=".2"/></svg>