<?xml version="1.0" encoding="UTF-8"?>
<svg width="50mm" height="50mm" clip-rule="evenodd" fill-rule="evenodd" image-rendering="optimizeQuality" shape-rendering="geometricPrecision" text-rendering="geometricPrecision" version="1.1" viewBox="0 0 50 50" xmlns="http://www.w3.org/2000/svg" xmlns:cc="http://creativecommons.org/ns#" xmlns:dc="http://purl.org/dc/elements/1.1/" xmlns:rdf="http://www.w3.org/1999/02/22-rdf-syntax-ns#">
 <metadata>
  <rdf:RDF>
   <cc:Work rdf:about="">
    <dc:format>image/svg+xml</dc:format>
    <dc:type rdf:resource="http://purl.org/dc/dcmitype/StillImage"/>
    <dc:title/>
   </cc:Work>
  </rdf:RDF>
 </metadata>
 <g transform="translate(-628.47 535.95)">
  <g transform="translate(308.92 53.254)">
   <ellipse cx="344.34" cy="-581.47" rx="3.0636" ry="2.7423" fill="#f6f1a7" stroke="#6d6a41" stroke-linecap="round" stroke-linejoin="round" stroke-width="1.2" style="paint-order:normal"/>
   <path d="m344.34-584.22a3.0636 2.7423 0 0 0-1.0604 0.17156 3.0636 2.7423 0 0 1 2.0071 2.5709 3.0636 2.7423 0 0 1-2.003 2.5709 3.0636 2.7423 0 0 0 1.0563 0.17158 3.0636 2.7423 0 0 0 3.0634-2.7425 3.0636 2.7423 0 0 0-3.0634-2.7425z" fill="#6d6a41" style="paint-order:normal"/>
   <path d="m344.34-579.88c-4.6925 8e-5 -8.7362 1.9029-9.6718 4.5512 0.018-0.0719 7e-3 -0.0361-2e-3 -1e-3l-1.1529-0.4744c-4.0436 1.9626-2.3461 5.8736-2.3461 5.8736 4.8973 7.905 6.3779 14.726 6.3779 14.726h0.92604c-4.5484 1.2233-3.3717 2.1101-2.8608 3.2783 0.33465 0.98118-8.0988 3.3635-4.5077 7.1226h26.9c3.591-3.7591-4.8429-6.1419-4.5083-7.1231 0.51086-1.1683 1.6876-2.0545-2.8608-3.2778h0.50178s1.4806-6.8212 6.3779-14.726c0 0 1.6975-3.9109-2.3461-5.8736l-1.1379 0.53745c-0.0108-0.0405-0.0229-0.082-3e-3 1e-3 -0.89093-2.6764-4.9544-4.6121-9.6862-4.6142z" fill="#561a0e" stroke="#1f0905" stroke-linecap="round" stroke-linejoin="round" stroke-width="1.2" style="paint-order:normal"/>
   <path d="m355.17-575.8 5.3e-4 1e-3 -1.2671 0.0615c0.26334 0.90107 0.47233 2.0028 0.18293 2.637l2.2536-0.0527c3.8009 0.51835-7.8505 16.572-12.963 17.954 10.504 1.5023 8.3998 4.1772-4.2101 4.1419 6.0678 0.72663 17.39 0.44119 14.086 6.1996h4.7625c3.591-3.7591-4.8424-6.1414-4.5077-7.1226 0.51086-1.1683 1.4446-1.9147-2.3322-3.2784h-0.0232c0.0706-0.3171 1.5845-6.952 6.364-14.667 0 0 0.0833-0.1992 0.16896-0.51884 0.0379-0.1415 0.0751-0.30266 0.10697-0.48885 1.1e-4 0 0 5e-5 0-3e-3 0.0161-0.0936 0.0304-0.19225 0.0424-0.29507 5e-3 -0.0467 8e-3 -0.0958 0.0124-0.14419 7e-3 -0.0781 0.0126-0.15714 0.016-0.23927 3e-3 -0.0453 3e-3 -0.0906 3e-3 -0.13692 3e-3 -0.1002 4e-4 -0.20243-5e-3 -0.30697-3e-3 -0.0333-3e-3 -0.0656-6e-3 -0.0992-0.0116-0.16428-0.0332-0.33215-0.0656-0.50331-0.0153-0.0807-0.0331-0.16182-0.0537-0.24342-0.0103-0.0403-0.0209-0.0804-0.0326-0.12091-0.0288-0.1006-0.0603-0.20117-0.0982-0.30232-0.0109-0.0293-0.0243-0.0585-0.0362-0.0878-0.0333-0.0826-0.0705-0.1651-0.11059-0.24752-0.0175-0.0358-0.0345-0.0713-0.0532-0.10697-0.0547-0.10419-0.11412-0.20817-0.18087-0.31109-0.0951-0.14664-0.20243-0.29184-0.32454-0.43411-0.0116-0.0135-0.0238-0.0268-0.0357-0.0403-0.0536-0.0609-0.10997-0.12113-0.16897-0.18087-0.0138-0.014-0.0273-0.028-0.0414-0.0419-0.0663-0.0654-0.13565-0.13004-0.20876-0.19378-5e-3 -4e-3 -9e-3 -8e-3 -0.0134-0.0124 0 0-3e-3 -3e-3 -4e-3 -3e-3 -0.0799-0.0689-0.16386-0.1369-0.25218-0.2036-0.019-0.0143-0.0395-0.0281-0.0589-0.0424-0.0705-0.0517-0.14325-0.10276-0.21913-0.15295-0.0271-0.018-0.0549-0.0355-0.0827-0.0532-0.0732-0.0466-0.14912-0.0923-0.22736-0.13745-0.0281-0.0161-0.0555-0.0326-0.0842-0.0486-0.10697-0.0595-0.21707-0.11824-0.33333-0.17467zm-21.653 1e-3c-3.1489 1.5284-2.8164 4.2303-2.5151 5.3547 0.29615-0.97129 1.0049-1.9759 2.5151-2.7089l1.0842 0.0527c-0.2894-0.63428-0.0799-1.736 0.18347-2.637zm4.5873 0.061s0.20854 2.0159-0.55033 2.8722c-0.75888 0.85635-1.9153 1.0022-2.8034 0-7e-3 -8e-3 -0.013-0.0183-0.0202-0.0269-0.27027 0.98819-0.44495 2.1479 0.0202 2.6727 0.88813 1.0022 2.0446 0.85635 2.8034 0 0.75887-0.85632 0.55033-2.8716 0.55033-2.8716h3.8132c-0.20402-1.1824 0.62944-2.6464 0.62944-2.6464zm8.0362 0s0.83343 1.464 0.62941 2.6464h3.8132s-0.20851 2.0153 0.55036 2.8716c0.75888 0.85635 1.9153 1.0022 2.8034 0 0.46514-0.5249 0.29099-1.6849 0.0207-2.6732-7e-3 9e-3 -0.013 0.0188-0.0207 0.0274-0.88813 1.0022-2.0446 0.85635-2.8034 0-0.75887-0.85632-0.55036-2.8722-0.55036-2.8722zm-3.9212 3.3595c-0.45905 1.1781-0.92631 3.4055 2.1244 3.4055 3.0506 0 2.584-2.2274 2.1249-3.4055-0.3425 0.44923-0.98888 0.75964-2.1249 0.75964-1.136 0-1.7819-0.31043-2.1244-0.75964z" fill="#1f0905"/>
  </g>
  <path d="m647.39-501.95h12.413" fill="none" stroke="#1f0905" stroke-width="1.2"/>
 </g>
</svg>
