<?xml version="1.0" encoding="UTF-8"?>
<svg width="50mm" height="50mm" clip-rule="evenodd" fill-rule="evenodd" image-rendering="optimizeQuality" shape-rendering="geometricPrecision" text-rendering="geometricPrecision" version="1.1" viewBox="0 0 50 50" xmlns="http://www.w3.org/2000/svg" xmlns:cc="http://creativecommons.org/ns#" xmlns:dc="http://purl.org/dc/elements/1.1/" xmlns:rdf="http://www.w3.org/1999/02/22-rdf-syntax-ns#">
 <metadata>
  <rdf:RDF>
   <cc:Work rdf:about="">
    <dc:format>image/svg+xml</dc:format>
    <dc:type rdf:resource="http://purl.org/dc/dcmitype/StillImage"/>
    <dc:title/>
   </cc:Work>
  </rdf:RDF>
 </metadata>
 <g transform="translate(566.44 -262.22)">
  <g transform="matrix(.846 0 0 1 -1051.2 849.52)" stroke-width="1.0872">
   <g transform="translate(311.29 1.603)" stroke-width="1.0872">
    <ellipse cx="290.99" cy="-580.51" rx="2.4291" ry="2.0156" fill="#a32811" stroke="#282828" stroke-linecap="round" stroke-linejoin="round" stroke-width="1.3047" style="paint-order:normal"/>
    <path d="m290.99-582.53a2.4291 2.0156 0 0 0-0.85055 0.1287 2.4291 2.0156 0 0 1 1.5829 1.8867 2.4291 2.0156 0 0 1-1.579 1.8867 2.4291 2.0156 0 0 0 0.84667 0.1292 2.4291 2.0156 0 0 0 2.429-2.0159 2.4291 2.0156 0 0 0-2.429-2.0154z" opacity=".4" style="paint-order:normal"/>
    <path d="m286.33-554.12s-14.088-23.466 4.9432-23.845c19.031 0.37849 4.9432 23.845 4.9432 23.845z" fill="#f0f0f0" stroke="#282828" stroke-linejoin="round" stroke-width="1.3047"/>
    <path d="m290.99-577.97c-0.55801 0.0111-1.0852 0.0439-1.5875 0.0935 15.68-0.53235 8.4198 20.833-0.19935 23.752l7.0166-7.8e-4c8.6615-16.161 6.5583-23.187-5.2298-23.844z" opacity=".4"/>
   </g>
  </g>
  <g transform="translate(-188.5 -13.574)">
   <path d="m-342.29 320.19c0.51797-1.0054 1.7112-5.6681-2.9007-6.7209h-15.507c-4.6119 1.0528-3.4187 5.7155-2.9007 6.7209z" fill="#f0f0f0" stroke="#282828" stroke-linejoin="round" stroke-width="1.2"/>
   <path d="m-354.9 313.44c9.9794 0.27756 8.5166 6.7319-3.7394 6.7027h16.128c0.51011-0.99018 1.4262-5.5289-2.2029-6.6689" opacity=".4"/>
  </g>
  <rect x="-549.17" y="297" width="15.465" height="2.8957" ry="1.4479" fill="#f0f0f0" stroke="#282828" stroke-linecap="round" stroke-linejoin="round" stroke-width="1.2" style="paint-order:normal"/>
 </g>
</svg>
