<svg xmlns="http://www.w3.org/2000/svg" xmlns:xlink="http://www.w3.org/1999/xlink" width="50mm" height="50mm" fill-rule="evenodd" clip-rule="evenodd" image-rendering="optimizeQuality" shape-rendering="geometricPrecision" text-rendering="geometricPrecision" viewBox="0 0 50 50"><defs><linearGradient xlink:href="#a" id="b" x1="-523.92" x2="-501.54" y1="113.91" y2="113.91" gradientTransform="matrix(1.1144 0 0 1.1133 595.36 -102.86)" gradientUnits="userSpaceOnUse"/><linearGradient xlink:href="#a" id="c" x1="-69.739" x2="-42.888" y1="523.66" y2="523.66" gradientTransform="translate(81.39 -483.23)" gradientUnits="userSpaceOnUse"/><linearGradient id="a"><stop offset="0" stop-color="#f2e7da" style="stop-color:#fbf6dc"/><stop offset="1" stop-color="#bba38a" style="stop-color:#aa9445"/></linearGradient></defs><path d="M14.978 8.725s-.126.003-.305.047c-.479.007-.004.879-.482.887l-2.092.309s1.827 3.836 1.827 4.546c0 .71-1.237 1.733-1.237 1.733v12.094l2.564 2.164 4.109-.929-1.582-2.31 5.623-4.9c2.667 12.989-10.494 4.92-9.057 17.005h21.46c.005-.227-1.718-2.69-.787-7.182 3.413-21.949-3.9-24.57-19.998-23.42a18.138 18.138 0 0 0-.043-.042z" style="fill:url(#b);stroke-linejoin:round;stroke-width:1.2;stroke:#323232"/><path d="M14.91 17.622a1.464 1.383 0 0 0 1.464 1.383 1.464 1.383 0 0 0 1.464-1.383 1.464 1.383 0 0 0-1.464-1.383 1.464 1.383 0 0 0-1.464 1.383zm4.756-1.383h-3.292" style="fill:none;opacity:.4;paint-order:stroke fill markers;stroke-linejoin:round;stroke-width:.8;stroke:#000"/><ellipse cx="-14.309" cy="27.333" rx=".787" ry=".715" style="fill:#000;opacity:.4;paint-order:stroke fill markers" transform="scale(-1 1)"/><ellipse cx="-16.346" cy="17.632" rx=".415" ry=".418" style="fill:#000;opacity:.4;paint-order:stroke fill markers" transform="scale(-1 1)"/><path d="M35.807 38.823c.065.012-1.708-1.844-.789-6.634C37.52 14.244 34.875 8.466 20.05 8.551a64.995 64.995 0 0 0-5.069.175c.041.043 1.497 1.258 1.86 1.73l.122-.009 2.435 2.63s-1.336-2.106.208-2.474c21.364-3.203 15.787 28.43 2.52 28.154" style="fill:#000;opacity:.15"/><path d="M17.166 13.338c3.401-3.238-2.489-6.17-2.489-6.17l.086 4.982" style="fill:#e9e0ba;stroke-linejoin:round;stroke-width:1.2;stroke:#323232"/><path d="m16.645 30.19.022-2.151" style="clip-rule:evenodd;fill-rule:evenodd;fill:#f6f1a7;image-rendering:optimizeQuality;opacity:.4;shape-rendering:geometricPrecision;stroke-linejoin:round;stroke-width:.8;stroke:#000"/><path d="M25.076 36.457s-8.578.048-10.983 1.62c-1.623 1.06-2.006 3.65-1.785 6.323h25.536c.22-2.672-.162-5.264-1.785-6.324-2.404-1.57-10.983-1.619-10.983-1.619z" style="clip-rule:evenodd;fill-rule:evenodd;fill:url(#c);image-rendering:optimizeQuality;shape-rendering:geometricPrecision;stroke-linejoin:round;stroke-width:1.2;stroke:#323232"/><path d="M25.076 36.457s-8.578.048-10.983 1.619c-1.623 1.06-2.005 2.593-1.785 5.265h.084c.228-1.38.75-2.527 1.701-3.148 2.405-1.571 10.983-1.62 10.983-1.62s8.579.049 10.983 1.62c.95.62 1.473 1.769 1.7 3.148h.085c.22-2.672-.162-4.205-1.785-5.265-2.405-1.571-10.983-1.619-10.983-1.619z" style="clip-rule:evenodd;fill-rule:evenodd;fill:#000;image-rendering:optimizeQuality;opacity:.15;shape-rendering:geometricPrecision"/><path d="M22.921 14.92c7.739 3.863-5.122 12.364-5.14 12.345l1.58 2.31-4.108.929.339-2.868c.017-.003 12.535-8.583 7.329-12.716" style="fill:#000;opacity:.15;stroke-width:.26458px;stroke:#000"/><path d="m13.301 28.081.008-11.576c1.933-1.653 1.367-2.23-.302-6.04 2.888 4.268 3.04 3.651 1.104 6.478zM14.919 37.016c-.202-6.963 10.544-3.125 9.412-12.978 2.115 9.645-8.713 7.491-9.412 12.978z" style="fill:#fff"/></svg>