<svg xmlns="http://www.w3.org/2000/svg" xmlns:xlink="http://www.w3.org/1999/xlink" fill-rule="evenodd" clip-rule="evenodd" image-rendering="optimizeQuality" shape-rendering="geometricPrecision" text-rendering="geometricPrecision" viewBox="0 0 50 50"><defs><linearGradient id="a"><stop offset="0" stop-color="#fbf6dc"/><stop offset="1" stop-color="#aa9445"/></linearGradient><linearGradient xlink:href="#a" id="b" x1="-144.63" x2="-118.08" y1="495" y2="495" gradientTransform="matrix(.93894 0 0 .97636 148.33 -447.95)" gradientUnits="userSpaceOnUse"/><linearGradient xlink:href="#a" id="c" x1="1247.8" x2="1265.1" y1="1156.6" y2="1156.6" gradientTransform="matrix(.99908 0 0 1.0007 -1230.3 -1137)" gradientUnits="userSpaceOnUse"/></defs><path fill="url(#b)" stroke="#323232" stroke-linejoin="round" stroke-width="1.2" d="M22.106 26.305c-.932 11.619-9.006 8.663-9.006 18.094h23.8c0-9.431-8.075-6.475-9.007-18.094H25z"/><path d="M23.919 26.305c.932 11.619 9.006 8.663 9.006 18.094H36.9c0-9.431-8.075-6.476-9.006-18.094H25z" opacity=".15"/><path fill="#fff" d="M13.748 43.78c.02-7.22 6.582-6.13 8.602-14.757.06 8.34-7.056 7.432-8.602 14.757z"/><path fill="url(#c)" stroke="#323232" stroke-linejoin="round" stroke-width="1.2" d="M25 12.599c-3.423 0-6.198 2.628-6.198 5.87 0 1.95 1.023 3.77 2.728 4.862l-4.574 5.04h16.088l-4.572-5.04c1.704-1.091 2.727-2.913 2.727-4.862 0-3.242-2.775-5.87-6.198-5.87z"/><path fill="#fff" d="M22.907 13.556c-.846.217-5.48 2.941-2.58 7.82 0 0-1.146-4.158 2.58-7.82z"/><path d="M25 12.6a6.51 6.51 0 0 0-1.503.175c2.696.636 4.693 2.945 4.693 5.695 0 1.95-1.022 3.77-2.726 4.862l4.573 5.035h3.008l-4.574-5.035c1.705-1.091 2.727-2.913 2.727-4.862 0-3.242-2.774-5.87-6.197-5.87z" opacity=".15"/></svg>