<svg width="50mm" height="50mm" clip-rule="evenodd" fill-rule="evenodd" image-rendering="optimizeQuality" shape-rendering="geometricPrecision" text-rendering="geometricPrecision" version="1.1" viewBox="0 0 50 50" xmlns="http://www.w3.org/2000/svg" xmlns:xlink="http://www.w3.org/1999/xlink">
 <defs>
  <linearGradient id="linearGradient3935">
   <stop stop-color="#f2e7da" style="stop-color:#fbf6dc" offset="0"/>
   <stop stop-color="#bba38a" style="stop-color:#aa9445" offset="1"/>
  </linearGradient>
  <linearGradient id="linearGradient4103-5" x1="362.07" x2="371.04" y1="-82.569" y2="-82.569" gradientTransform="matrix(.87923 -1.2728e-6 1.3135e-6 .85197 -297.28 78.005)" gradientUnits="userSpaceOnUse" xlink:href="#linearGradient3935"/>
  <linearGradient id="linearGradient3454-0" x1="-491.54" x2="-471.01" y1="249.26" y2="249.26" gradientTransform="matrix(1.0387 0 0 .99256 524.95 -231.03)" gradientUnits="userSpaceOnUse" xlink:href="#linearGradient3935"/>
  <linearGradient id="linearGradient4107-8" x1="-1890.6" x2="-1767.4" y1="1054.4" y2="1054.4" gradientTransform="matrix(.29405 0 0 .26262 562.83 -250.81)" gradientUnits="userSpaceOnUse" xlink:href="#linearGradient3935"/>
  <linearGradient id="linearGradient3976" x1="-20.75" x2="6.1016" y1="544.53" y2="544.53" gradientTransform="translate(32.324 -504.1)" gradientUnits="userSpaceOnUse" xlink:href="#linearGradient3935"/>
 </defs>
 <path d="m25.002 4.6774a2.9811 3.417 90 0 0-3.4168 2.9811 2.9811 3.417 90 0 0 3.4168 2.9811 2.9811 3.417 90 0 0 3.4172-2.9811 2.9811 3.417 90 0 0-3.4172-2.9811z" style="clip-rule:evenodd;fill-rule:evenodd;fill:url(#linearGradient4103-5);image-rendering:optimizeQuality;paint-order:normal;shape-rendering:geometricPrecision;stroke-linecap:round;stroke-linejoin:round;stroke-width:1.1999;stroke:#323232"/>
 <path d="m25.002 10.639c-6.7998 0-10.027 6.9599-10.027 11.468h20.13c1.95e-4 -4.5083-3.303-11.468-10.103-11.468z" style="fill:url(#linearGradient3454-0);paint-order:normal;stroke-linecap:round;stroke-linejoin:round;stroke-width:1.2;stroke:#323232"/>
 <path d="m16.397 17.927c1.0445-2.7132 3.6636-6.7967 8.6501-6.6965-1.1297-0.17004-7.6526 3.6293-8.6501 6.6965z" style="clip-rule:evenodd;fill-rule:evenodd;fill:#ffffff;image-rendering:optimizeQuality;shape-rendering:geometricPrecision"/>
 <path d="m24.874 4.5895s0.04772 0.23997-9.8e-5 9.74e-5c2.5915 1.1374 1.9239 4.3051 0.63596 6.0177 7.6846 3.8326 3.9148 11.115 3.9145 11.114h2.8224c1.7935 1.5682 5.8116-5.1351-5.6105-11.115 3.927-3.0481 0.46436-6.1915-1.7624-6.0174z" style="clip-rule:evenodd;fill-rule:evenodd;image-rendering:optimizeQuality;opacity:.15;shape-rendering:geometricPrecision"/>
 <path d="m25 14.657c-3.4463 1.6054-4.2196 3.8693-5.5338 6.8065-5.4383-4.8474-11.901-4.0849-11.901-4.0849 10.547 11.903 9.2026 21.195 9.2026 21.195h16.464s-1.344-9.2929 9.2027-21.195c0 0-6.4627-0.76255-11.901 4.0849-1.3142-2.9371-2.0876-5.2011-5.5338-6.8065z" style="fill:url(#linearGradient4107-8);stroke-linejoin:round;stroke-width:1.2;stroke:#323232"/>
 <path d="m40.566 17.38c-11.59 10.231-7.4774 17.283-16.618 21.194h9.2845s-1.344-9.2929 9.2027-21.195c-1.2229-0.08181-0.61444-0.04869-1.8692 0z" style="fill:#111111;opacity:.15"/>
 <path d="m24.796 5.326c-0.61239-0.18221-3.7787 1.0906-2.1351 3.6375-0.40573-1.4551 0.43728-3.2714 2.1351-3.6375z" style="clip-rule:evenodd;fill-rule:evenodd;fill:#ffffff;image-rendering:optimizeQuality;shape-rendering:geometricPrecision"/>
 <path d="m8.8741 17.955c3.7148 4.3195 7.1375 10.199 8.0686 15.288-0.36746-5.5033-3.9718-12.467-7.2399-15.232-0.43339-0.092519-0.8287-0.056485-0.8287-0.056485z" style="clip-rule:evenodd;fill-rule:evenodd;fill:#ffffff;image-rendering:optimizeQuality;shape-rendering:geometricPrecision"/>
 <path d="m20.081 21.702c1.027-2.684 5.547-5.7938 4.8929-6.3643-1.6806 0.59173-3.9909 3.11-4.8929 6.3643z" style="fill:#ffffff"/>
 <path d="m30.878 21.951c1.5824 0.61812 3.6983-2.7285 8.6454-3.8667-1.2277-0.10528-5.953 1.2886-8.6454 3.8667z" style="fill:#ffffff"/>
 <path d="m25 36.457s-8.5779 0.048-10.983 1.6192c-1.6227 1.0602-2.0055 3.6514-1.7847 6.3237h25.536c0.2207-2.6723-0.1622-5.2636-1.7849-6.3237-2.4047-1.5711-10.983-1.6192-10.983-1.6192z" style="clip-rule:evenodd;fill-rule:evenodd;fill:url(#linearGradient3976);image-rendering:optimizeQuality;shape-rendering:geometricPrecision;stroke-linejoin:round;stroke-width:1.2;stroke:#323232"/>
 <path d="m25 36.457s-8.5782 0.048-10.983 1.619c-1.6227 1.0602-2.0054 2.593-1.7846 5.2653h0.084c0.2276-1.3798 0.7503-2.5277 1.7006-3.1486 2.405-1.5711 10.983-1.619 10.983-1.619s8.5785 0.048 10.983 1.619c0.9503 0.6208 1.4729 1.7687 1.7006 3.1486h0.084c0.2207-2.6723-0.1619-4.2052-1.7846-5.2653-2.4047-1.5711-10.983-1.619-10.983-1.619z" style="clip-rule:evenodd;fill-rule:evenodd;fill:#000000;image-rendering:optimizeQuality;opacity:.15;shape-rendering:geometricPrecision"/>
</svg>
