<svg xmlns="http://www.w3.org/2000/svg" xmlns:xlink="http://www.w3.org/1999/xlink" fill-rule="evenodd" clip-rule="evenodd" image-rendering="optimizeQuality" shape-rendering="geometricPrecision" text-rendering="geometricPrecision" viewBox="0 0 50 50"><defs><linearGradient id="a"><stop offset="0" stop-color="#fbf6dc"/><stop offset="1" stop-color="#aa9445"/></linearGradient><linearGradient xlink:href="#a" id="b" x1="362.07" x2="371.04" y1="-82.569" y2="-82.569" gradientTransform="matrix(.87923 0 0 .85197 -297.28 78.005)" gradientUnits="userSpaceOnUse"/><linearGradient xlink:href="#a" id="c" x1="-491.54" x2="-471.01" y1="249.26" y2="249.26" gradientTransform="matrix(1.0387 0 0 .99256 524.95 -231.03)" gradientUnits="userSpaceOnUse"/><linearGradient xlink:href="#a" id="d" x1="-1890.6" x2="-1767.4" y1="1054.4" y2="1054.4" gradientTransform="matrix(.29405 0 0 .26262 562.83 -250.81)" gradientUnits="userSpaceOnUse"/><linearGradient xlink:href="#a" id="e" x1="-20.75" x2="6.102" y1="544.53" y2="544.53" gradientTransform="translate(32.324 -504.1)" gradientUnits="userSpaceOnUse"/></defs><path fill="url(#b)" stroke="#323232" stroke-linecap="round" stroke-linejoin="round" stroke-width="1.2" d="M25.002 4.677a2.981 3.417 90 0 0-3.417 2.982 2.981 3.417 90 0 0 3.417 2.98 2.981 3.417 90 0 0 3.417-2.98 2.981 3.417 90 0 0-3.417-2.982z"/><path fill="url(#c)" stroke="#323232" stroke-linecap="round" stroke-linejoin="round" stroke-width="1.2" d="M25.002 10.639c-6.8 0-10.027 6.96-10.027 11.468h20.13c0-4.508-3.303-11.468-10.103-11.468z"/><path fill="#fff" d="M16.397 17.927c1.044-2.713 3.664-6.797 8.65-6.697-1.13-.17-7.652 3.63-8.65 6.697z"/><path d="M24.874 4.59s.048.24 0 0c2.591 1.137 1.924 4.305.636 6.017 7.684 3.833 3.915 11.115 3.914 11.114h2.823c1.793 1.568 5.811-5.135-5.61-11.115 3.926-3.048.464-6.191-1.763-6.017z" opacity=".15"/><path fill="url(#d)" stroke="#323232" stroke-linejoin="round" stroke-width="1.2" d="M25 14.657c-3.446 1.605-4.22 3.87-5.534 6.806-5.438-4.847-11.9-4.084-11.9-4.084 10.546 11.903 9.202 21.195 9.202 21.195h16.464s-1.344-9.293 9.203-21.195c0 0-6.463-.763-11.902 4.084-1.314-2.937-2.087-5.2-5.533-6.806z"/><path fill="#111" d="M40.566 17.38c-11.59 10.231-7.477 17.283-16.618 21.194h9.285s-1.344-9.293 9.202-21.195c-1.223-.082-.614-.049-1.869 0z" opacity=".15"/><path fill="#fff" d="M24.796 5.326c-.612-.182-3.779 1.09-2.135 3.638-.406-1.456.437-3.272 2.135-3.638zM8.874 17.955c3.715 4.32 7.138 10.199 8.069 15.288-.368-5.503-3.972-12.467-7.24-15.232-.434-.093-.829-.056-.829-.056zM20.081 21.702c1.027-2.684 5.547-5.794 4.893-6.364-1.68.591-3.991 3.11-4.893 6.364zm10.797.249c1.582.618 3.698-2.728 8.645-3.867-1.227-.105-5.953 1.289-8.645 3.867z"/><path fill="url(#e)" stroke="#323232" stroke-linejoin="round" stroke-width="1.2" d="M25 36.457s-8.578.048-10.983 1.62c-1.623 1.06-2.006 3.65-1.785 6.323h25.536c.221-2.672-.162-5.264-1.785-6.324C33.58 36.506 25 36.457 25 36.457z"/><path d="M25 36.457s-8.578.048-10.983 1.619c-1.623 1.06-2.005 2.593-1.785 5.265h.084c.228-1.38.75-2.527 1.701-3.148C16.422 38.622 25 38.573 25 38.573s8.579.049 10.983 1.62c.95.62 1.473 1.768 1.7 3.148h.085c.22-2.672-.162-4.205-1.785-5.265C33.578 36.505 25 36.457 25 36.457z" opacity=".15"/></svg>