<?xml version="1.0" encoding="UTF-8"?>
<svg width="50mm" height="50mm" clip-rule="evenodd" fill-rule="evenodd" image-rendering="optimizeQuality" shape-rendering="geometricPrecision" text-rendering="geometricPrecision" version="1.1" viewBox="0 0 50 50" xmlns="http://www.w3.org/2000/svg" xmlns:cc="http://creativecommons.org/ns#" xmlns:dc="http://purl.org/dc/elements/1.1/" xmlns:rdf="http://www.w3.org/1999/02/22-rdf-syntax-ns#">
 <metadata>
  <rdf:RDF>
   <cc:Work rdf:about="">
    <dc:format>image/svg+xml</dc:format>
    <dc:type rdf:resource="http://purl.org/dc/dcmitype/StillImage"/>
    <dc:title/>
   </cc:Work>
  </rdf:RDF>
 </metadata>
 <g transform="translate(505.61 -261.15)">
  <path d="m-487.05 281.53h12.874m-15.371-8.2932v8.2931l2.4971 2e-5v2.9104h1.717l-1.436 13.494h12.312l-1.4357-13.494h1.7166v-2.9104l2.4971-2e-5v-8.2931h-3.6802v2.3861h-3.0984v-2.3861h-4.3106v2.3861h-3.0989v-2.3861z" fill="#f0f0f0" stroke="#282828" stroke-width="1.2"/>
  <path d="m-474.03 273.23v7.7313l-13.016 1e-5c3.467 0.83031 9.2545 0.45353 9.8508 3.4726l-9.8508 2e-5c12.874-2e-5 7.8195 5.4615 8.8081 13.495l3.7846-4.3e-4 -1.4358-13.494h1.7168v-3.4727h2.0121v-7.7313z" fill="#070705" opacity=".2"/>
  <g fill="#f0f0f0" stroke="#282828">
   <path d="m-485.33 284.44h9.44" stroke-width="1.2"/>
   <path d="m-469.95 307.55c0.51797-1.0054 1.7112-5.6681-2.9007-6.7209h-15.507c-4.6119 1.0528-3.4187 5.7155-2.9007 6.7209z" stroke-linejoin="round" stroke-width="1.2"/>
   <rect x="-488.34" y="297.93" width="15.465" height="2.8957" ry="1.4479" stroke-linecap="round" stroke-linejoin="round" stroke-width="1.2" style="paint-order:normal"/>
  </g>
  <path d="m-488.36 300.83c-3.3815 0.77195-3.6394 3.4807-3.3336 5.2694 0.26847-1.346 1.1495-2.6542 3.3336-3.1528h15.507c2.1842 0.4986 3.0652 1.8068 3.3337 3.1528 0.30574-1.7888 0.0478-4.4975-3.3337-5.2694z" opacity=".2"/>
 </g>
</svg>
