<svg xmlns="http://www.w3.org/2000/svg" viewBox="0 0 100 100"><linearGradient id="a" x1="19.181" x2="80.829" y1="52" y2="52" gradientTransform="matrix(1 0 0 -1 0 102)" gradientUnits="userSpaceOnUse"><stop offset="0" stop-color="#f9da9c"/><stop offset=".043" stop-color="#fbe0a1"/><stop offset=".067" stop-color="#fce6a6"/><stop offset=".145" stop-color="#f4d593"/><stop offset=".193" stop-color="#f5d797"/><stop offset=".243" stop-color="#f7dda4"/><stop offset=".263" stop-color="#f9e1ab"/><stop offset=".329" stop-color="#f7dfa8"/><stop offset=".383" stop-color="#f2d89e"/><stop offset=".398" stop-color="#efd599"/><stop offset=".461" stop-color="#f2d795"/><stop offset=".462" stop-color="#f2d795"/><stop offset=".527" stop-color="#f2d795"/><stop offset=".538" stop-color="#f2d795"/><stop offset=".538" stop-color="#f2d795"/><stop offset=".615" stop-color="#efda9c"/><stop offset=".735" stop-color="#f6e5ad"/><stop offset=".773" stop-color="#f9e9b4"/><stop offset=".822" stop-color="#f7e1a6"/><stop offset=".887" stop-color="#f5db9b"/><stop offset=".956" stop-color="#f4d997"/><stop offset=".967" stop-color="#f4da9c"/><stop offset="1" stop-color="#f4db9e"/></linearGradient><path fill="url(#a)" stroke="#63451a" stroke-miterlimit="10" stroke-width=".954" d="M77.6 15.4 50 5.8l-27.6 9.6-10.6 72.1v6.7h76.4v-6.7z"/><path fill="#63451a" fill-opacity=".75" d="M12.3 87.5h75.4v6.2H12.3z"/><g style="font-size:40px;white-space:pre"><path d="M62.997 43.666q.12.68-.32 1.04t-1 .68q-.32.16-.64.36-.28.2-.48.44-.2 1.24-.44 2.92-.2 1.64-.28 3.4-.04.84.08 1.68l.32 1.68q.16.68.28 1.32.12.64.16 1.28v.2q.16 2.2.12 4.4 0 2.16-.84 3.88-.4.6-1.12.64-.68.04-1.48-.24-.8-.28-1.56-.72-.76-.4-1.28-.76-.16-.08-.24-.32-.04-.24-.2-.32-.64-.32-1.4-.52-.72-.16-1.32-.44-.52-.28-1-.64-.44-.4-1-.68-.64-.32-1.28-.52-.6-.24-1.32-.4l.04-.04q.12-.16 0-.2 2.08.52 4.4.72 2.32.16 4.88.44.64-1.56.8-3.44.16-1.88 0-3.84-.12-2-.32-3.92-.12-1.04-.2-2.04-.08-1.04-.12-1.96v-1.2q0-.72-.04-1.32 0-.64-.24-1.24-1-.12-2.12-.04-1.08.08-2.12.16-.44.08-.84.12-.4 0-.8.04.32.68.36 1.56.08.88.12 1.68v.8q.04.36.08.64.84-.36 1.8-.2 1 .16 1.76.64.8.44 1.04 1-.6.4-1.44.48-.84.08-1.72.16-.84.04-1.6.44l-.08 2.24q0 1.12-.08 1.72.88-.28 1.88-.12 1.04.12 1.96.56.92.44 1.36 1.16-.64.16-1.88.24-1.24.08-2.48.24-1.24.16-1.96.56-.68-.28-1.68-.2-.96.08-2.04.24-1.12.16-2.24.24-1.08.08-1.84-.28-.36 1.4-.88 2.92-.48 1.52-1.24 2.84-.72 1.36-1.8 2.24-.68.28-1.32.24-.6 0-1.12-.12 1.52-2.4 2.6-5.6 1.12-3.24 1.52-6.8.4-3.6-.32-7.08-.56-.68-1.2-1.32-.6-.68-.92-1.6.44-.08.52-.44.12-.36.48-.48.36.28.68.24.36-.04.6.4 1.16-.44 2.8-.6 1.64-.2 3.2-.28 1.56-.12 2.48-.28.12-.64.36-1.28.24-.68.56-1.36.4-1 .76-2 .36-1.04.28-2-.72-.04-1.8 0-1.04.04-2 .16-.92.12-1.36.36-1.6 1.8-3.52 3.2-1.88 1.4-3.76 2.92l-.4.32q-.16.16-.32.28-.64.6-1.32 1-.64.4-2 .36-.28-.2-.52-.48-.2-.32-.48-.56 2.8-2.08 5.2-4.48 2.4-2.44 4.72-4.92-.08-.08-.24-.16-.12-.08-.28-.16-.44-.28-.92-.64-.48-.36-.44-1.04h.4q.28-.04.64-.04.88-.08 2.08-.08 1.2-.04 2.12.28.92.28 1.08 1.2 1.52.16 2.68.08 1.2-.08 1.8-1.16 2.24-.28 3.96.56 1.72.84 3.08 1.96-.16.4-.72.68-.52.28-1.04.12-.04.32-.56.52-.48.2-1.08.36-.56.16-.92.44-.52 1.4-1.2 2.68-.68 1.24-1.4 2.48.56.08 1.64-.04 1.08-.12 1.84-.24.4-.04.56-.08.56-.08 1-.36.48-.28 1-.32.76-.08 1.76.2 1 .24 1.96.68.96.44 1.6.96.64.48.72.92zm-15.36 5.72v-.56q0-1.28-.12-2.44-.12-1.2-1-1.76-.4.2-1.28.32-.88.08-1.76.2-.84.12-1.16.48-.36.72-.36 1.36 0 .6.08 1.24.08.36.12.8.04.4 0 .84.76.08 1.44 0 .72-.08 1.44-.2.6-.12 1.24-.2.64-.08 1.36-.08zm-.16 2.2q-1.2.16-2.6.32-1.4.16-2.72.12.04.6-.04 1.2-.08.56-.2 1.12-.08.48-.16.92-.04.44-.04.84.8.04 1.52-.04t1.44-.2q.64-.08 1.28-.12.64-.08 1.36-.08.12-.96.16-1.88.04-.92 0-2.2z" aria-label="่ง" style="-inkscape-font-specification:&quot;Yuji Boku&quot;" transform="matrix(1.45787 0 0 1.45787 -19.358 -18.55)"/></g></svg>