<svg xmlns="http://www.w3.org/2000/svg" xml:space="preserve" id="svg8" version="1.1" viewBox="0 0 100 100"><style id="style2">.st2{fill:#fff}</style><linearGradient id="SVGID_1_" x1="23.313" x2="76.671" y1="52" y2="52" gradientTransform="matrix(1 0 0 -1 0 102)" gradientUnits="userSpaceOnUse"><stop id="stop4" offset="0" stop-color="#f9da9c"/><stop id="stop6" offset=".043" stop-color="#fbe0a1"/><stop id="stop8" offset=".067" stop-color="#fce6a6"/><stop id="stop10" offset=".145" stop-color="#f4d593"/><stop id="stop12" offset=".193" stop-color="#f5d797"/><stop id="stop14" offset=".243" stop-color="#f7dda4"/><stop id="stop16" offset=".263" stop-color="#f9e1ab"/><stop id="stop18" offset=".329" stop-color="#f7dfa8"/><stop id="stop20" offset=".383" stop-color="#f2d89e"/><stop id="stop22" offset=".398" stop-color="#efd599"/><stop id="stop24" offset=".461" stop-color="#f2d795"/><stop id="stop26" offset=".462" stop-color="#f2d795"/><stop id="stop28" offset=".527" stop-color="#f2d795"/><stop id="stop30" offset=".538" stop-color="#f2d795"/><stop id="stop32" offset=".538" stop-color="#f2d795"/><stop id="stop34" offset=".615" stop-color="#efda9c"/><stop id="stop36" offset=".735" stop-color="#f6e5ad"/><stop id="stop38" offset=".773" stop-color="#f9e9b4"/><stop id="stop40" offset=".822" stop-color="#f7e1a6"/><stop id="stop42" offset=".887" stop-color="#f5db9b"/><stop id="stop44" offset=".956" stop-color="#f4d997"/><stop id="stop46" offset=".967" stop-color="#f4da9c"/><stop id="stop48" offset="1" stop-color="#f4db9e"/></linearGradient><path id="path51" fill="url(#SVGID_1_)" stroke="#63451a" stroke-miterlimit="10" stroke-width=".922" d="M74.5 17.5 50 8.6l-24.5 8.9-9.4 66.6v7.3h67.8v-7.3z"/><path id="path53" fill="#63451a" fill-opacity=".75" d="M16.6 84.1h66.8v6.8H16.6z"/><g id="text280" aria-label="猪" style="font-size:52.8953px;stroke-width:1.32238;fill:#a00"><path id="path506" d="M73.897 48.956q-1.957.212-4.496.37-2.539.106-5.237.212-2.697.053-5.29.265-.898 1.005-1.48 1.904-.53.9-1.534 1.64 1.322.158 2.75.105 1.428-.105 2.645-.476 1.27-.423 1.904-1.11 2.486-.053 4.285.634 1.851.635 3.544 1.428.317.16.635.318.317.106.634.264.053.952-.529 1.323-.582.317-1.322.529-.053.053-.106.053-.793 1.745-.952 4.02-.159 2.274-.159 4.707-.053 1.957-.158 3.967-.053 1.958-.476 3.703-.265-.106-.582-.159-.265-.053-.582-.105-.582-.053-1.11-.212-.53-.159-.689-.9-2.38-.158-4.707 0-2.328.16-4.814.424h-.37q-.159.053-.37.053-.53.053-.74.317-.16.318-.53.476-1.428.265-2.274-.529-.847-.793-1.481-1.692-.212-.265-.37-.476-.16-.265-.37-.476.105-.318.37-.424.317-.158.317-.529-.212-.74-.159-1.48.106-.741.212-1.429.106-.317.158-.687.053-.37.053-.688 0-.582-.211-1.164-.159-.634-.794-1.163.106-.318.476-.318.37-.053.582-.264v-1.428q-1.11.528-2.063 1.692-.952 1.111-2.115 2.116-1.164.952-3.016 1.164-.476 2.803-1.428 5.183-.952 2.328-2.75 3.915-1.693.053-2.857-.688-1.163-.74-2.274-1.64-.635-.582-1.322-1.11-.688-.53-1.534-.9-.477-.582-.688-1.428-.212-.846-.529-1.534-.212-.423-.476-.635l-.265-.211q.582-.053.953.317.423.318.793.74l.529.635q.317.265.688.424.423.211 1.216.423.846.211 1.693.317.846.053 1.375-.106.794-.264 1.322-1.11.582-.9.953-2.222.476-1.64.634-3.597.212-2.01.265-3.808.053-1.746-.106-3.333-.106-1.64-.264-3.12-.106-.635-.16-1.27l-.105-1.27q-1.005.794-1.798 2.01-.794 1.164-1.429 1.746-.476.423-.899 1.005-.423.582-.317 1.217-.74.158-1.587 1.057-.793.9-1.693 2.116-.846 1.217-1.851 2.328-1.005 1.11-2.169 1.692-.529-.264-1.163-.37-.635-.106-1.058-.476-.159-.264-.053-.529.158-.264.37-.529.212-.211.37-.476.159-.264.159-.529 3.332-3.12 5.977-6.506 2.645-3.385 5.025-7.564-.158-.9 0-1.375.159-.53.318-.9l.158-.317-.423-1.164q-.211-.581-.582-1.005-.846.582-2.221 1.64-1.323 1.058-2.804 1.957-1.48.847-2.697.847-.847 0-1.481-.582-.582-.582-.847-1.904.37 0 .635.052.317.053.317.476 1.799-1.163 3.438-2.433 1.693-1.27 3.174-2.75-.635-.9-1.534-1.534-.846-.635-1.692-1.323-.794-.687-1.323-1.745l.582.211q.635.16 1.217.424 1.163.529 2.168 1.163 1.058.582 2.222 1.111 1.058-.423 1.693-1.164.634-.74 1.322-1.48-.106-.16-.264-.265l-.212-.318q-.529-.529-.9-1.057-.37-.53-.158-1.27.9.265 1.375.212.53-.053 1.005-.212.318-.106.688-.159.37-.105.952-.105.265.264.582.529.317.211.688.476.793.529 1.428 1.163.634.582.37 1.746-1.534.793-2.856 1.798-1.323.952-2.54 2.063.265.847 1.006 1.375.793.477 1.534 1.005.793.477 1.058 1.376.158.529.158 1.11v1.058q-.053.688-.053 1.376 0 .687.37 1.375-.052 1.798.054 3.861.158 2.063.317 4.18.159 2.22.264 4.284.159 2.01.053 3.65 1.376-.9 2.804-2.54 1.48-1.64 3.068-2.803-.106-.476-.424-.688-.317-.264-.687-.423-.37-.159-.635-.37-.264-.265-.159-.846 0-.16.688-.212.423-.053.846-.159.476-.105.635-.582 1.11.265 1.957-.211.847-.53 1.481-1.428.635-.952 1.058-1.799-1.322-.053-2.592.423-1.216.424-1.957 1.164-2.221.37-4.126-.582-1.851-1.005-2.38-2.38 1.64-.952 4.073-1.164 2.433-.211 4.813-.264.9-.053 1.693-.053.794-.053 1.534-.106.582-1.058.476-2.116-.106-1.11-.317-2.115l-.106-.318q0-.211-.053-.423-1.375-.159-2.539.106-1.11.211-2.116.423-.423.106-.793.212-.37.105-.74.158-1.429-.687-2.222-2.01L45.175 38.8h.423q.476 0 .635-.423.846-.106 1.64.106l1.692.423q1.217.37 2.54.635 1.374.212 2.961-.317-.211-2.963-.846-5.343-.582-2.38-1.27-4.496.794-1.058 1.482-.688.74.318 1.48.953.212.158.424.37.264.211.529.37.211.159.423.265l.423.105q.37.106.529.265.159.106-.053.423l.582.317q.582.318.9 1.27-.424 1.428-.583 2.539-.105 1.11-.158 2.803 1.692.582 2.644-.317.953-.952 1.323-2.01-.688-.846-.847-2.116-.105-1.27.37-1.904 1.588.211 3.016 1.164 1.428.899 1.798 2.274.37 1.322-.582 2.698.476.423 1.111.687.635.212 1.217.53.582.264.846.898-.317.794-1.534.953-1.164.105-2.221.105h-1.005q-.953 1.481-2.116 2.75-1.111 1.27-1.957 2.857.264-.053.634-.053h.847q1.216 0 2.539-.105 1.375-.106 1.851-.74 1.322 0 2.803.37 1.481.317 2.645.951 1.217.635 1.587 1.587zM64.43 69.268q.106-2.486.053-4.496 0-2.063-.212-4.179-.159-2.116-.635-4.707-1.322-.635-2.909-.424-1.534.16-3.174.53-.899.158-1.85.37-.9.158-1.746.158-.318.794-.37 1.693 0 .9.105 1.851v.847q.053.37.053.793 3.12-.582 5.554-.529 2.486.053 4.179 2.063-1.428.476-3.068.582-1.64.106-3.333.211-1.692.053-3.28.582-.158.423-.158.794.053.37.106.793.106.476.106 1.058.053.529-.106 1.217.9.634 2.327.634 1.429 0 3.068-.105 1.428-.106 2.804-.106 1.428-.053 2.486.37zm-4.126-27.4-.476.053q-.423 0-1.005.159-.212 1.11-.317 2.222l-.106 1.11q.053-.053.158-.211.318-.37.794-1.005.529-.635.846-1.27.318-.687.106-1.058z" style="-inkscape-font-specification:&quot;Yuji Boku&quot;;fill:#a00"/></g></svg>