<svg xmlns="http://www.w3.org/2000/svg" viewBox="0 0 100 100"><linearGradient id="a" x1="19.181" x2="80.829" y1="52" y2="52" gradientTransform="matrix(1 0 0 -1 0 102)" gradientUnits="userSpaceOnUse"><stop offset="0" stop-color="#f9da9c"/><stop offset=".043" stop-color="#fbe0a1"/><stop offset=".067" stop-color="#fce6a6"/><stop offset=".145" stop-color="#f4d593"/><stop offset=".193" stop-color="#f5d797"/><stop offset=".243" stop-color="#f7dda4"/><stop offset=".263" stop-color="#f9e1ab"/><stop offset=".329" stop-color="#f7dfa8"/><stop offset=".383" stop-color="#f2d89e"/><stop offset=".398" stop-color="#efd599"/><stop offset=".461" stop-color="#f2d795"/><stop offset=".462" stop-color="#f2d795"/><stop offset=".527" stop-color="#f2d795"/><stop offset=".538" stop-color="#f2d795"/><stop offset=".538" stop-color="#f2d795"/><stop offset=".615" stop-color="#efda9c"/><stop offset=".735" stop-color="#f6e5ad"/><stop offset=".773" stop-color="#f9e9b4"/><stop offset=".822" stop-color="#f7e1a6"/><stop offset=".887" stop-color="#f5db9b"/><stop offset=".956" stop-color="#f4d997"/><stop offset=".967" stop-color="#f4da9c"/><stop offset="1" stop-color="#f4db9e"/></linearGradient><path fill="url(#a)" stroke="#63451a" stroke-miterlimit="10" stroke-width=".954" d="M77.6 15.4 50 5.8l-27.6 9.6-10.6 72.1v6.7h76.4v-6.7z"/><path fill="#63451a" fill-opacity=".75" d="M12.3 87.5h75.4v6.2H12.3z"/><g style="font-size:40px;white-space:pre"><path d="M66.117 51.866q-.48.6-1.52 1.2-1.04.56-2.32.76-.4 1.44-.6 3.12-.2 1.64-.48 3.28-.28 1.64-.8 3.04-.52 1.4-1.52 2.32-.44.4-1.2.84-.72.44-1.52.76t-1.44.36q-1.24.08-2.12-.4-.88-.48-1.68-1.08l-.72-.48q-.36-.24-.72-.44-.64-1.04-1.52-1.92-.84-.92-2.04-1.4.84-.28 1.76-.08t1.88.52q.84.28 1.68.48.84.2 1.64.12.84-.12 1.52-.68t1.28-1.24q.64-.72 1.24-1.12.04.28-.36.68-.36.4-.76.76l-.44.44q-.16.16-.16.24.76-.36 1.36-1.04.64-.68.8-1.64.04-.16-.04-.32-.04-.2-.12-.4-.08-.16-.12-.32-.04-.16-.04-.32.04-.52.12-1.04l.24-1.12q.24-1.12.4-2.28.16-1.16-.16-2.36-3.2-.2-6.48.12-3.28.28-6.72.68-.84.08-1.72.2-.84.12-1.72.2 0 .24-.36.44-.32.2-.68.36-.36.12-.48.24-.76-.56-1.28-1.36-.52-.84-1.2-1.48.28-1 .44-2.44.16-1.44.24-3 .08-1.6.08-3.08.04-1.52 0-2.68-.04-1.12-.4-1.84-.36-.72-1.28-1-.04-.2-.12-.36-.08-.2-.2-.36-.16-.28-.28-.56-.08-.32.12-.68.32-.08.52 0 .2.04.36.12.16.08.32.12.16.04.36.04.16-.04.16-.4 0-.32.12-.36 2.36-.16 4.76-.6 2.4-.44 4.96-.6 1.64-.12 3.52-.12 1.88 0 3.48-.24.64-.08 1.52 0 .92.08 1.76.36.88.28 1.44.76.6.48.6 1.2-.92.08-1.96.08h-2.08q-1.44-.04-2.84 0-1.4 0-2.52.24l.16.4.24.4q.32.52.56 1.16.24.6 0 1.52h.52q.84 0 1.56-.04.72-.04 1.12-.44 1.44.16 2.52.72 1.12.52 1.52 1.4-1.68.68-3.56.8-1.88.12-4 .24-.24.72-.24 1.2t.08 1.08v.16q2.48-.64 4.56-.16 2.12.48 3 1.68-.2.36-.48.36-.28 0-.6-.04-.16-.04-.32-.04h-.32q-1.4.16-2.84.4-1.44.2-2.84.2-.28.2-.32.64-.04.44 0 .96V48.546q.52.04 1.04.04.52-.04 1.08-.08.92-.04 1.92-.04 1.04 0 2.28.2 1.04-.56 2.12-.56 1.12 0 2.24.36 1.48.48 2.8 1.44 1.36.92 2.24 1.96zm-30.36 9.64q-.64.2-1.12.08-.48-.12-.88-.4-.72-.56-1.28-1.44-.52-.88-1.2-1.4.32-.52.2-1.16-.08-.64-.28-1.28-.16-.56-.28-1.04-.08-.48.2-.76 1.4.72 2.64 1.6 1.24.88 1.88 2.28.64 1.36.12 3.52zm11.56-22.48q.08-1.04-.04-1.92-.12-.88-.28-1.72-1.04.12-2.24.2-1.16.08-2.16.36-1 .28-1.6 1 .32.36.4 1.2.12.84-.08 1.32 1.04.08 1.84 0t1.56-.2q.6-.12 1.24-.16.64-.08 1.36-.08zm-.16 5.12q.08-.4.04-.76v-.8q-.04-.28-.04-.56v-.6q-1.08-.04-1.92.08-.84.08-1.68.24-.52.08-1.08.16-.52.08-1.16.12-.04.16-.12.64-.08.48-.08 1.04.04.52.2.88 1.52-.16 2.8-.28 1.32-.12 3.04-.16zm.16 4.68q.04-.44 0-.76 0-.36-.08-.68-.04-.24-.08-.52v-.6q-.84-.04-1.56.12-.68.12-1.36.28-.68.2-1.4.36-.72.12-1.56.04.08.28.04.6l-.08.64q-.04.32-.08.68-.04.32 0 .6 1.48-.12 2.96-.2 1.48-.08 3.2-.56zm-5.52 8.96q.36 1.2-.2 2.52-1.52-.08-2.32-1.08-.8-1-1.2-2.44-.36-1.48-.64-2.84 1.28.48 2.6 1.48 1.36.96 1.76 2.36zm11.24.84q-1.36.16-2.12-.64-.72-.84-1.32-1.8-.24-.36-.44-.68-.2-.36-.44-.64.04-.56-.04-1.04-.04-.52-.12-.92 1.52.52 2.8 1.32 1.28.76 1.68 2.08.16.48.16 1.08.04.56-.16 1.24zm-5.6-1.56q.16.52.16 1.08t-.28 1.24q-1.2-.04-2.2-.84-.96-.8-1.48-2.12-.52-1.36-.32-2.92.64.32 1.48.8.84.48 1.6 1.16.76.68 1.04 1.6z" aria-label="ждг" style="-inkscape-font-specification:&quot;Yuji Boku&quot;" transform="matrix(1.45787 0 0 1.45787 -19.358 -18.55)"/></g></svg>