<?xml version="1.0" encoding="UTF-8" standalone="no"?>
<svg
   version="1.1"
   id="svg8"
   viewBox="0 0 100 100"
   xml:space="preserve"
   sodipodi:docname="0L.svg"
   inkscape:version="1.2.1 (9c6d41e410, 2022-07-14)"
   xmlns:inkscape="http://www.inkscape.org/namespaces/inkscape"
   xmlns:sodipodi="http://sodipodi.sourceforge.net/DTD/sodipodi-0.dtd"
   xmlns="http://www.w3.org/2000/svg"
   xmlns:svg="http://www.w3.org/2000/svg"><defs
     id="defs66" /><sodipodi:namedview
     id="namedview64"
     pagecolor="#ffffff"
     bordercolor="#666666"
     borderopacity="1.0"
     inkscape:showpageshadow="2"
     inkscape:pageopacity="0.0"
     inkscape:pagecheckerboard="0"
     inkscape:deskcolor="#d1d1d1"
     showgrid="false"
     inkscape:zoom="3.425563"
     inkscape:cx="75.899932"
     inkscape:cy="51.378416"
     inkscape:window-width="1366"
     inkscape:window-height="711"
     inkscape:window-x="0"
     inkscape:window-y="0"
     inkscape:window-maximized="1"
     inkscape:current-layer="svg8" /><style
     id="style2">.st2{fill:#fff}</style><linearGradient
     id="SVGID_1_"
     gradientUnits="userSpaceOnUse"
     x1="23.313"
     y1="52"
     x2="76.671"
     y2="52"
     gradientTransform="matrix(1 0 0 -1 0 102)"><stop
       offset="0"
       stop-color="#f9da9c"
       id="stop4" /><stop
       offset=".043"
       stop-color="#fbe0a1"
       id="stop6" /><stop
       offset=".067"
       stop-color="#fce6a6"
       id="stop8" /><stop
       offset=".145"
       stop-color="#f4d593"
       id="stop10" /><stop
       offset=".193"
       stop-color="#f5d797"
       id="stop12" /><stop
       offset=".243"
       stop-color="#f7dda4"
       id="stop14" /><stop
       offset=".263"
       stop-color="#f9e1ab"
       id="stop16" /><stop
       offset=".329"
       stop-color="#f7dfa8"
       id="stop18" /><stop
       offset=".383"
       stop-color="#f2d89e"
       id="stop20" /><stop
       offset=".398"
       stop-color="#efd599"
       id="stop22" /><stop
       offset=".461"
       stop-color="#f2d795"
       id="stop24" /><stop
       offset=".462"
       stop-color="#f2d795"
       id="stop26" /><stop
       offset=".527"
       stop-color="#f2d795"
       id="stop28" /><stop
       offset=".538"
       stop-color="#f2d795"
       id="stop30" /><stop
       offset=".538"
       stop-color="#f2d795"
       id="stop32" /><stop
       offset=".615"
       stop-color="#efda9c"
       id="stop34" /><stop
       offset=".735"
       stop-color="#f6e5ad"
       id="stop36" /><stop
       offset=".773"
       stop-color="#f9e9b4"
       id="stop38" /><stop
       offset=".822"
       stop-color="#f7e1a6"
       id="stop40" /><stop
       offset=".887"
       stop-color="#f5db9b"
       id="stop42" /><stop
       offset=".956"
       stop-color="#f4d997"
       id="stop44" /><stop
       offset=".967"
       stop-color="#f4da9c"
       id="stop46" /><stop
       offset="1"
       stop-color="#f4db9e"
       id="stop48" /></linearGradient><path
     fill="url(#SVGID_1_)"
     stroke="#63451a"
     stroke-width=".922"
     stroke-miterlimit="10"
     d="M74.5 17.5 50 8.6l-24.5 8.9-9.4 66.6v7.3h67.8v-7.3z"
     id="path51" /><path
     fill="#63451a"
     fill-opacity=".75"
     d="M16.6 84.1h66.8v6.8H16.6z"
     id="path53" /><g
     aria-label="	香"
     id="text280"
     style="font-size:52.8953px;stroke-width:1.32238"><path
       d="m 75.431017,60.804857 q -2.59187,1.639755 -5.659797,1.375278 -3.067928,-0.264476 -5.342426,-1.904231 -1.110801,1.163697 -1.586859,2.962137 -0.476058,1.79844 -0.740534,3.861357 -0.211581,2.010022 -0.634744,3.861357 -0.423162,1.904231 -1.428173,3.173718 -0.476058,-0.211581 -0.846325,-0.211581 -0.317372,0.05289 -0.846325,0.158686 -0.0529,0.0529 -0.10579,0.0529 -0.476058,-0.370267 -1.005011,-0.740534 -0.476058,-0.317372 -0.89922,-0.793429 -0.89922,0.0529 -1.851336,0 -0.89922,0 -1.904231,0 -1.851335,-0.0529 -3.702671,0 -1.851335,0.0529 -3.332404,0.581848 -0.317372,0.105791 -0.740534,0.581848 -0.370267,0.476058 -0.687639,0.528953 -0.370267,0.0529 -1.322382,-0.423162 -0.952116,-0.476058 -1.851336,-1.216592 -0.89922,-0.687639 -1.216592,-1.163697 0.317372,-0.211581 0.89922,-0.158686 -0.528953,-1.375277 -0.687639,-3.015032 -0.10579,-1.639754 -0.158686,-3.332404 -0.10579,-2.327393 -0.423162,-4.39031 -0.264477,-2.115812 -1.639754,-3.173718 -1.481069,1.163697 -3.279509,2.433184 -1.79844,1.269487 -3.543985,2.062917 -1.428173,0.687639 -2.856347,0.740534 -1.428173,0 -3.702671,-0.370267 6.135855,-3.438195 11.055118,-7.987191 4.972159,-4.548996 9.626945,-9.415364 -1.428173,0 -3.173718,0.158686 -1.69265,0.105791 -3.279509,0.528953 -1.533963,0.370268 -2.538974,1.163697 -2.010022,-0.581848 -3.755566,-1.69265 -1.745545,-1.110801 -1.904231,-3.173718 2.115812,0.264477 5.183739,0.158686 3.067928,-0.10579 6.294541,-0.476058 3.279509,-0.370267 5.924274,-0.793429 -0.264477,-1.428173 -0.211581,-2.644765 0.05289,-1.216592 -0.528953,-2.274498 -2.221603,0.687639 -4.231624,1.057906 -2.010022,0.317372 -3.649776,-0.687639 0.317372,-0.528953 -0.211581,-0.687639 -0.476058,-0.158686 -1.057906,0.158686 0.10579,-0.317372 0.793429,-0.687639 0.740534,-0.370267 1.586859,-0.528953 0.846325,-0.211581 1.322383,0.05289 -0.264477,-0.211581 0.158686,-0.528953 0.476057,-0.317372 1.269487,-0.634743 0.793429,-0.317372 1.533964,-0.581849 0.264476,-0.10579 0.476057,-0.158686 0.211581,-0.10579 0.370267,-0.158685 1.904231,-0.740535 3.596881,-1.216592 1.69265,-0.476058 3.173718,-1.216592 -0.105791,-0.211582 -0.264477,-0.317372 -0.158685,-0.158686 -0.317371,-0.264477 -0.264477,-0.211581 -0.476058,-0.476057 -0.211581,-0.264477 -0.211581,-0.79343 v 0 q 1.375278,-0.10579 2.962137,-0.158686 1.639754,-0.05289 3.067927,0.211581 1.428173,0.264477 2.274498,1.057906 0.89922,0.740535 0.846325,2.274498 -1.322383,0.952116 -3.226613,1.428174 -1.851336,0.423162 -3.543986,0.687638 -1.639754,0.264477 -2.380288,0.687639 0.317372,0.687639 0.740534,1.269488 0.423162,0.581848 0.846325,1.163696 -0.105791,0.846325 -0.211581,1.745545 -0.105791,0.846325 -0.317372,1.639755 1.005011,0.528953 2.115812,0.476057 1.110801,-0.05289 2.380288,-0.264476 1.110802,-0.158686 2.327394,-0.211581 1.269487,-0.105791 2.538974,0.211581 0.105791,-0.317372 0.264477,-0.528953 0.158686,-0.211581 0.264476,-0.423163 1.375278,0.0529 2.962137,0.476058 1.639754,0.423163 3.067928,1.269487 1.428173,0.846325 2.062916,2.221603 -1.90423,0.05289 -3.49109,0.05289 -1.586859,-0.05289 -3.067927,-0.10579 -2.221603,-0.0529 -4.496101,-0.0529 -2.274498,0 -5.236635,0.264477 2.538975,2.274498 5.289531,4.707682 2.803451,2.433184 5.659797,3.914252 1.904231,0.952116 4.072938,2.062917 2.168708,1.110801 4.020043,2.69766 1.904231,1.533964 2.750556,3.861357 z M 57.816881,57.419558 q -4.020043,-0.105791 -7.722714,0.158686 -3.649776,0.264476 -7.246656,1.163697 0.370267,0.528953 0.370267,1.163696 0.05289,0.634744 0,1.269487 0,0.476058 0,0.952116 0,0.423162 0.158686,0.740534 2.750556,-0.211581 4.972158,-0.370267 2.221603,-0.211581 4.548996,-0.740534 1.057906,0.581848 2.168708,1.110801 1.110801,0.528953 2.010021,1.269487 -2.062917,0.634744 -4.39031,0.79343 -2.327393,0.10579 -4.654787,0.264476 -2.274498,0.158686 -4.284519,0.899221 0.105791,1.216591 0.105791,1.745544 0.05289,0.528953 0.10579,1.005011 0.0529,0.423163 0.317372,1.375278 1.533964,0 2.962137,-0.05289 1.428173,-0.105791 2.803451,-0.211581 1.851335,-0.158686 3.543985,-0.211582 1.745545,-0.10579 3.332404,0.0529 0.581848,-2.803451 1.005011,-6.135855 0.476058,-3.3853 -0.105791,-6.241646 z m 1.322383,-3.332404 q -1.586859,-2.168707 -3.279509,-4.284519 -1.639754,-2.168708 -3.914252,-3.649776 -0.264477,1.745545 -0.317372,3.279508 0,1.481069 -0.0529,3.226614 0,0.528953 0,1.057906 0,0.528953 0,1.110801 1.269487,-0.211581 2.962137,-0.211581 1.692649,-0.05289 2.380288,0.370267 0.105791,-0.317372 0.89922,-0.476058 0.79343,-0.211581 1.322383,-0.423162 z m -11.002223,0.89922 v -0.05289 q 0.05289,-0.89922 0.05289,-2.221603 0,-1.322382 -0.05289,-2.644765 0,-1.375278 -0.158686,-2.380289 h -0.581848 q -0.952116,1.322383 -2.486079,2.59187 -1.533964,1.269488 -3.015033,2.59187 -1.428173,1.322383 -2.168707,2.856346 2.062917,-0.158686 4.39031,-0.370267 2.380289,-0.264476 4.020043,-0.370267 z"
       style="-inkscape-font-specification:'Yuji Boku'"
       id="path400" /></g></svg>
