<svg xmlns="http://www.w3.org/2000/svg" xml:space="preserve" id="svg8" version="1.1" viewBox="0 0 100 100"><defs id="defs37"><path id="rect349" d="M20.394 25.062h64.939v52.264H20.394z"/></defs><style id="style2">.st5{fill:#fff}</style><linearGradient id="SVGID_1_" x1="27.382" x2="76.327" y1="-846" y2="-846" gradientTransform="matrix(1 0 0 -1 0 -796)" gradientUnits="userSpaceOnUse"><stop id="stop4" offset="0" stop-color="#f9da9c"/><stop id="stop6" offset=".043" stop-color="#fbe0a1"/><stop id="stop8" offset=".067" stop-color="#fce6a6"/><stop id="stop10" offset=".145" stop-color="#f4d593"/><stop id="stop12" offset=".193" stop-color="#f5d797"/><stop id="stop14" offset=".243" stop-color="#f7dda4"/><stop id="stop16" offset=".263" stop-color="#f9e1ab"/><stop id="stop18" offset=".329" stop-color="#f7dfa8"/><stop id="stop20" offset=".383" stop-color="#f2d89e"/><stop id="stop22" offset=".398" stop-color="#efd599"/><stop id="stop24" offset=".461" stop-color="#f2d795"/><stop id="stop26" offset=".462" stop-color="#f2d795"/><stop id="stop28" offset=".527" stop-color="#f2d795"/><stop id="stop30" offset=".538" stop-color="#f2d795"/><stop id="stop32" offset=".538" stop-color="#f2d795"/><stop id="stop34" offset=".615" stop-color="#efda9c"/><stop id="stop36" offset=".735" stop-color="#f6e5ad"/><stop id="stop38" offset=".773" stop-color="#f9e9b4"/><stop id="stop40" offset=".822" stop-color="#f7e1a6"/><stop id="stop42" offset=".887" stop-color="#f5db9b"/><stop id="stop44" offset=".956" stop-color="#f4d997"/><stop id="stop46" offset=".967" stop-color="#f4da9c"/><stop id="stop48" offset="1" stop-color="#f4db9e"/></linearGradient><path id="path51" fill="url(#SVGID_1_)" stroke="#63451a" stroke-miterlimit="10" stroke-width=".944" d="M72.6 21.1 50 12.9l-22.6 8.2-8.7 61v5h62.6v-5z"/><path id="path53" fill="#63451a" d="M19.2 82.1h61.6v4.5H19.2z" opacity=".75"/><g id="text347" aria-label="歩" style="font-size:40px;white-space:pre" transform="translate(-1.196 -10.264) scale(1.25627)"><path id="path353" d="M57.193 45.383q0 .08.04.28t.04.36q0 .12-.2.2-1.48.28-2.88.72-1.36-.32-3.16-.28-1.76 0-3.68.08-1.2.08-2.4.12-1.2.04-2.36 0 .2.36.48.56.32.2.68.4-.4 1-.56 2.04-.12 1.04-.12 2.08v.88q.04.4.04.84.08 1.4 0 2.72-.04 1.32-.64 2.56.56-.24.68-.76t.16-.92q.72-.44 1.52-1.52t1.44-2.16q-.04-.2-.12-.32-.08-.16-.2-.28-.16-.2-.28-.44-.08-.24.16-.6 1.64-.08 3.04.76 1.44.8 1.72 2.08-1.24 1.28-2.44 2.68-1.16 1.36-2.48 2.64-1.32 1.24-3 2.16-.8 1-2 1.92-1.16.88-2.68 1.48-.52.28-1.08.6-.52.32-1.04.68-1.64 1-3.36 1.84-1.72.84-3.76.64.04-.16.28-.16h.28q-.08-.04-.2-.12-.28-.12-.52-.24-.24-.08-.56-.04 0-.24-.28-.32-.12-.04-.24-.16-.08-.08-.08-.32.76-.08 1.4-.48l1.36-.8q.72-.4 1.52-.48-.12.28-.44.4-.32.16-.56.32.28.16.48.04.24-.12.52-.28.2-.16.48-.32.28-.16.68-.16.04-.16-.12-.36-.12-.12-.04-.2.08-.04.2-.12l.24-.16q.44-.28.84-.48.4-.24.44.04.2-.08.56-.24.4-.2.12-.44 1.32-1.28 2.88-2.28 1.6-1.04 2.92-2.28.2 0 .08.16-.04.08-.04.12 0 .04.28 0 .12-.04.12-.24v-.16q-1.56.08-2.68-.68-1.08-.76-1.8-1.92-.68-1.2-1.04-2.32.96.4 1.92.6 1 .2 2.12.16.68-1.68.52-3.92-.12-2.28-.68-4.28-1.92.12-3.72.24-1.76.12-3.28.52-1.52.4-2.72 1.36-.76-.6-1.72-1.16-.92-.56-1.68-1.24-.72-.68-.96-1.56.36-.08.6 0 .28.04.52.12.32.12.6.16.28.04.6-.2.32.08.4.36.12.28.48.32.76-.84 2.56-.72l-.32-1.68-.32-1.76q-.96-.56-1.6-1.44-.64-.88-1.16-1.88.48-.16 1.48 0 1.04.16 2.08.56 1.04.36 1.48.92.44.56.56 1.32.12.72.16 1.52 0 .48.04.96t.16.88q.92.2 1.76.16.84-.08 1.72-.2.52-.08 1.08-.12.56-.08 1.16-.08.28-.6.32-1.28.04-.72.04-1.44-.04-.36-.04-.72t.04-.72q-.4-.16-1-.52-.56-.36-.88-.84.64-.04 1.04-.08.44-.04.84-.08 0-.32-.04-.56-.04-.24-.12-.48-.08-.24-.16-.52-.04-.28 0-.64-.8-.8-1.56-1.68-.76-.92-.96-2.04.28.04.48 0 .24-.04.44-.08.16-.04.32-.04.16-.04.36-.04.8 0 1.48.4.68.36 1.32.76.64.36 1.24.44.6.76.56 1.56 0 .8-.2 1.84l-.08.4q-.04.16-.08.36 2.16-.52 4.52-.48 2.4 0 4.24 1.16-.84.88-2.28 1.2-1.4.28-3.08.4-1.68.08-3.36.48-.12.76-.2 1.56-.04.8-.32 1.36h1.76q1.6.04 3.44-.04 1.84-.08 3.08-.76 1.84.2 3.52.6 1.68.36 2.84 1.24zm-21.8 7.84q-.84.32-1.72 1.12-.84.8-1.68 1.68-.8.88-1.56 1.44-.28.24-.76.48t-.68.24q-.8.04-1.08-.48-.24-.56-.24-1.32v-.64q.04-.36.08-.68.04-.52.04-1 .04-.48 0-.88.36 0 .84-.56 1.32.24 2.12-.24.8-.52 1.52-1.16.44-.4.88-.76.48-.36 1.04-.56.44.32.56.96.16.6.24 1.24.12.64.4 1.12zm20.48.92q.32.84.04 1.56-.24.72-.56 1.08-1.84-.48-3.2-1.64-1.32-1.16-2.52-2.56-1.16-1.44-2.56-2.6v-.44q2.84.08 5.2 1.28 2.4 1.2 3.6 3.32zm-22.88 12.44q-.92.2-1.28.72.36-.16.72-.28.4-.12.56-.44zm5.8-4.68q-.24.04-.6.28-.32.24-.08.44.16-.2.36-.32.24-.12.32-.4z" style="-inkscape-font-specification:&quot;Yuji Boku&quot;"/></g></svg>