<?xml version="1.0" encoding="UTF-8" standalone="no"?>
<svg
   version="1.1"
   id="svg8"
   viewBox="0 0 100 100"
   xml:space="preserve"
   sodipodi:docname="0_PAWN.svg"
   inkscape:version="1.2.1 (9c6d41e410, 2022-07-14)"
   xmlns:inkscape="http://www.inkscape.org/namespaces/inkscape"
   xmlns:sodipodi="http://sodipodi.sourceforge.net/DTD/sodipodi-0.dtd"
   xmlns="http://www.w3.org/2000/svg"
   xmlns:svg="http://www.w3.org/2000/svg"><defs
     id="defs37"><rect
       x="20.393507"
       y="25.061749"
       width="64.939307"
       height="52.264221"
       id="rect349" /></defs><sodipodi:namedview
     id="namedview35"
     pagecolor="#ffffff"
     bordercolor="#666666"
     borderopacity="1.0"
     inkscape:showpageshadow="2"
     inkscape:pageopacity="0.0"
     inkscape:pagecheckerboard="0"
     inkscape:deskcolor="#d1d1d1"
     showgrid="false"
     inkscape:zoom="4.0161567"
     inkscape:cx="94.617822"
     inkscape:cy="27.38937"
     inkscape:window-width="1366"
     inkscape:window-height="711"
     inkscape:window-x="0"
     inkscape:window-y="0"
     inkscape:window-maximized="1"
     inkscape:current-layer="svg8" /><style
     id="style2">.st5{fill:#fff}</style><linearGradient
     id="SVGID_1_"
     gradientUnits="userSpaceOnUse"
     x1="27.382"
     y1="-846"
     x2="76.327"
     y2="-846"
     gradientTransform="matrix(1 0 0 -1 0 -796)"><stop
       offset="0"
       stop-color="#f9da9c"
       id="stop4" /><stop
       offset=".043"
       stop-color="#fbe0a1"
       id="stop6" /><stop
       offset=".067"
       stop-color="#fce6a6"
       id="stop8" /><stop
       offset=".145"
       stop-color="#f4d593"
       id="stop10" /><stop
       offset=".193"
       stop-color="#f5d797"
       id="stop12" /><stop
       offset=".243"
       stop-color="#f7dda4"
       id="stop14" /><stop
       offset=".263"
       stop-color="#f9e1ab"
       id="stop16" /><stop
       offset=".329"
       stop-color="#f7dfa8"
       id="stop18" /><stop
       offset=".383"
       stop-color="#f2d89e"
       id="stop20" /><stop
       offset=".398"
       stop-color="#efd599"
       id="stop22" /><stop
       offset=".461"
       stop-color="#f2d795"
       id="stop24" /><stop
       offset=".462"
       stop-color="#f2d795"
       id="stop26" /><stop
       offset=".527"
       stop-color="#f2d795"
       id="stop28" /><stop
       offset=".538"
       stop-color="#f2d795"
       id="stop30" /><stop
       offset=".538"
       stop-color="#f2d795"
       id="stop32" /><stop
       offset=".615"
       stop-color="#efda9c"
       id="stop34" /><stop
       offset=".735"
       stop-color="#f6e5ad"
       id="stop36" /><stop
       offset=".773"
       stop-color="#f9e9b4"
       id="stop38" /><stop
       offset=".822"
       stop-color="#f7e1a6"
       id="stop40" /><stop
       offset=".887"
       stop-color="#f5db9b"
       id="stop42" /><stop
       offset=".956"
       stop-color="#f4d997"
       id="stop44" /><stop
       offset=".967"
       stop-color="#f4da9c"
       id="stop46" /><stop
       offset="1"
       stop-color="#f4db9e"
       id="stop48" /></linearGradient><path
     fill="url(#SVGID_1_)"
     stroke="#63451a"
     stroke-width=".944"
     stroke-miterlimit="10"
     d="M72.6 21.1 50 12.9l-22.6 8.2-8.7 61v5h62.6v-5z"
     id="path51" /><path
     opacity=".75"
     fill="#63451a"
     d="M19.2 82.1h61.6v4.5H19.2z"
     id="path53" /><g
     aria-label="歩"
     transform="matrix(1.2562717,0,0,1.2562717,-1.1958389,-10.264016)"
     id="text347"
     style="font-size:40px;white-space:pre"><path
       d="m 57.192578,45.3825 q 0,0.08 0.04,0.28 0.04,0.2 0.04,0.36 0,0.12 -0.2,0.2 -1.48,0.28 -2.88,0.72 -1.36,-0.32 -3.16,-0.28 -1.76,0 -3.68,0.08 -1.2,0.08 -2.4,0.12 -1.2,0.04 -2.36,0 0.2,0.36 0.48,0.56 0.32,0.2 0.68,0.4 -0.4,1 -0.56,2.04 -0.12,1.04 -0.12,2.08 0,0.44 0,0.88 0.04,0.4 0.04,0.84 0.08,1.4 0,2.72 -0.04,1.32 -0.64,2.56 0.56,-0.24 0.68,-0.76 0.12,-0.52 0.16,-0.92 0.72,-0.44 1.52,-1.52 0.8,-1.08 1.44,-2.16 -0.04,-0.2 -0.12,-0.32 -0.08,-0.16 -0.2,-0.28 -0.16,-0.2 -0.28,-0.44 -0.08,-0.24 0.16,-0.6 1.64,-0.08 3.04,0.76 1.44,0.8 1.72,2.08 -1.24,1.28 -2.44,2.68 -1.16,1.36 -2.48,2.64 -1.32,1.24 -3,2.16 -0.8,1 -2,1.92 -1.16,0.88 -2.68,1.48 -0.52,0.28 -1.08,0.6 -0.52,0.32 -1.04,0.68 -1.64,1 -3.36,1.84 -1.72,0.84 -3.76,0.64 0.04,-0.16 0.28,-0.16 0.28,0 0.28,0 -0.08,-0.04 -0.2,-0.12 -0.28,-0.12 -0.52,-0.24 -0.24,-0.08 -0.56,-0.04 0,-0.24 -0.28,-0.32 -0.12,-0.04 -0.24,-0.16 -0.08,-0.08 -0.08,-0.32 0.76,-0.08 1.4,-0.48 0.68,-0.4 1.36,-0.8 0.72,-0.4 1.52,-0.48 -0.12,0.28 -0.44,0.4 -0.32,0.16 -0.56,0.32 0.28,0.16 0.48,0.04 0.24,-0.12 0.52,-0.28 0.2,-0.16 0.48,-0.32 0.28,-0.16 0.68,-0.16 0.04,-0.16 -0.12,-0.36 -0.12,-0.12 -0.04,-0.2 0.08,-0.04 0.2,-0.12 0.12,-0.08 0.24,-0.16 0.44,-0.28 0.84,-0.48 0.4,-0.24 0.44,0.04 0.2,-0.08 0.56,-0.24 0.4,-0.2 0.12,-0.44 1.32,-1.28 2.88,-2.28 1.6,-1.04 2.92,-2.28 0.2,0 0.08,0.16 -0.04,0.08 -0.04,0.12 0,0.04 0.28,0 0.12,-0.04 0.12,-0.24 0,-0.12 0,-0.16 -1.56,0.08 -2.68,-0.68 -1.08,-0.76 -1.8,-1.92 -0.68,-1.2 -1.04,-2.32 0.96,0.4 1.92,0.6 1,0.2 2.12,0.16 0.68,-1.68 0.52,-3.92 -0.12,-2.28 -0.68,-4.28 -1.92,0.12 -3.72,0.24 -1.76,0.12 -3.28,0.52 -1.52,0.4 -2.72,1.36 -0.76,-0.6 -1.72,-1.16 -0.92,-0.56 -1.68,-1.24 -0.72,-0.68 -0.96,-1.56 0.36,-0.08 0.6,0 0.28,0.04 0.52,0.12 0.32,0.12 0.6,0.16 0.28,0.04 0.6,-0.2 0.32,0.08 0.4,0.36 0.12,0.28 0.48,0.32 0.76,-0.84 2.56,-0.72 -0.16,-0.84 -0.32,-1.68 -0.16,-0.88 -0.32,-1.76 -0.96,-0.56 -1.6,-1.44 -0.64,-0.88 -1.16,-1.88 0.48,-0.16 1.48,0 1.04,0.16 2.08,0.56 1.04,0.36 1.48,0.92 0.44,0.56 0.56,1.32 0.12,0.72 0.16,1.52 0,0.48 0.04,0.96 0.04,0.48 0.16,0.88 0.92,0.2 1.76,0.16 0.84,-0.08 1.72,-0.2 0.52,-0.08 1.08,-0.12 0.56,-0.08 1.16,-0.08 0.28,-0.6 0.32,-1.28 0.04,-0.72 0.04,-1.44 -0.04,-0.36 -0.04,-0.72 0,-0.36 0.04,-0.72 -0.4,-0.16 -1,-0.52 -0.56,-0.36 -0.88,-0.84 0.64,-0.04 1.04,-0.08 0.44,-0.04 0.84,-0.08 0,-0.32 -0.04,-0.56 -0.04,-0.24 -0.12,-0.48 -0.08,-0.24 -0.16,-0.52 -0.04,-0.28 0,-0.64 -0.8,-0.8 -1.56,-1.68 -0.76,-0.92 -0.96,-2.04 0.28,0.04 0.48,0 0.24,-0.04 0.44,-0.08 0.16,-0.04 0.32,-0.04 0.16,-0.04 0.36,-0.04 0.8,0 1.48,0.4 0.68,0.36 1.32,0.76 0.64,0.36 1.24,0.44 0.6,0.76 0.56,1.56 0,0.8 -0.2,1.84 -0.04,0.2 -0.08,0.4 -0.04,0.16 -0.08,0.36 2.16,-0.52 4.52,-0.48 2.4,0 4.24,1.16 -0.84,0.88 -2.28,1.2 -1.4,0.28 -3.08,0.4 -1.68,0.08 -3.36,0.48 -0.12,0.76 -0.2,1.56 -0.04,0.8 -0.32,1.36 0.36,0 0.8,0 0.48,0 0.96,0 1.6,0.04 3.44,-0.04 1.84,-0.08 3.08,-0.76 1.84,0.2 3.52,0.6 1.68,0.36 2.84,1.24 z m -21.8,7.84 q -0.84,0.32 -1.72,1.12 -0.84,0.8 -1.68,1.68 -0.8,0.88 -1.56,1.44 -0.28,0.24 -0.76,0.48 -0.48,0.24 -0.68,0.24 -0.8,0.04 -1.08,-0.48 -0.24,-0.56 -0.24,-1.32 0,-0.32 0,-0.64 0.04,-0.36 0.08,-0.68 0.04,-0.52 0.04,-1 0.04,-0.48 0,-0.88 0.36,0 0.84,-0.56 1.32,0.24 2.12,-0.24 0.8,-0.52 1.52,-1.16 0.44,-0.4 0.88,-0.76 0.48,-0.36 1.04,-0.56 0.44,0.32 0.56,0.96 0.16,0.6 0.24,1.24 0.12,0.64 0.4,1.12 z m 20.48,0.92 q 0.32,0.84 0.04,1.56 -0.24,0.72 -0.56,1.08 -1.84,-0.48 -3.2,-1.64 -1.32,-1.16 -2.52,-2.56 -1.16,-1.44 -2.56,-2.6 v -0.44 q 2.84,0.08 5.2,1.28 2.4,1.2 3.6,3.32 z m -22.88,12.44 q -0.92,0.2 -1.28,0.72 0.36,-0.16 0.72,-0.28 0.4,-0.12 0.56,-0.44 z m 5.8,-4.68 q -0.24,0.04 -0.6,0.28 -0.32,0.24 -0.08,0.44 0.16,-0.2 0.36,-0.32 0.24,-0.12 0.32,-0.4 z"
       style="-inkscape-font-specification:'Yuji Boku'"
       id="path353" /></g></svg>
