<svg xmlns="http://www.w3.org/2000/svg" xml:space="preserve" id="svg8" version="1.1" viewBox="0 0 100 100"><style id="style2">.st2{fill:#fff}</style><linearGradient id="SVGID_1_" x1="23.313" x2="76.671" y1="52" y2="52" gradientTransform="matrix(1 0 0 -1 0 102)" gradientUnits="userSpaceOnUse"><stop id="stop4" offset="0" stop-color="#f9da9c"/><stop id="stop6" offset=".043" stop-color="#fbe0a1"/><stop id="stop8" offset=".067" stop-color="#fce6a6"/><stop id="stop10" offset=".145" stop-color="#f4d593"/><stop id="stop12" offset=".193" stop-color="#f5d797"/><stop id="stop14" offset=".243" stop-color="#f7dda4"/><stop id="stop16" offset=".263" stop-color="#f9e1ab"/><stop id="stop18" offset=".329" stop-color="#f7dfa8"/><stop id="stop20" offset=".383" stop-color="#f2d89e"/><stop id="stop22" offset=".398" stop-color="#efd599"/><stop id="stop24" offset=".461" stop-color="#f2d795"/><stop id="stop26" offset=".462" stop-color="#f2d795"/><stop id="stop28" offset=".527" stop-color="#f2d795"/><stop id="stop30" offset=".538" stop-color="#f2d795"/><stop id="stop32" offset=".538" stop-color="#f2d795"/><stop id="stop34" offset=".615" stop-color="#efda9c"/><stop id="stop36" offset=".735" stop-color="#f6e5ad"/><stop id="stop38" offset=".773" stop-color="#f9e9b4"/><stop id="stop40" offset=".822" stop-color="#f7e1a6"/><stop id="stop42" offset=".887" stop-color="#f5db9b"/><stop id="stop44" offset=".956" stop-color="#f4d997"/><stop id="stop46" offset=".967" stop-color="#f4da9c"/><stop id="stop48" offset="1" stop-color="#f4db9e"/></linearGradient><path id="path51" fill="url(#SVGID_1_)" stroke="#63451a" stroke-miterlimit="10" stroke-width=".922" d="M74.5 17.5 50 8.6l-24.5 8.9-9.4 66.6v7.3h67.8v-7.3z"/><path id="path53" fill="#63451a" fill-opacity=".75" d="M16.6 84.1h66.8v6.8H16.6z"/><g id="text280" aria-label="銀" style="font-size:52.8953px;stroke-width:1.32238"><path id="path766" d="M76.986 70.485q-1.164 1.745-3.068 1.851-1.904.106-4.126-.582-1.058-2.063-2.486-3.914-1.375-1.904-2.433-3.174-2.38 1.799-4.443 3.597-2.063 1.746-4.232 3.174-.212.37-.37.635-.106.264-.318.529-1.534.053-2.539-.582-1.005-.582-1.692-1.481-.635-.952-1.111-1.799l-.317-.423q-.106-.264-.212-.423.476-.582 1.11-.529.688 0 1.323.423.53-5.025.635-9.733.106-4.76.159-8.992V46.26q.052-.212-.16-.318-.21-.053-.21-.211-.054-2.804-.424-5.343t-.9-4.337q-.105-.106-.316-.37-.424-.53-.847-1.164-.37-.635-.158-1.428.793-.212 1.48 0 .741.159 1.482.423l1.27.423q.687.159 1.374.106 1.693-.159 4.073-.529 2.434-.423 4.867-.476 1.64-1.058 3.068-.952 1.48.053 2.75.846 1.27.74 2.275 1.904 1.005 1.111 1.692 2.17-.476.58-1.005.687-.476.053-.899.317-.688.476-1.216 2.063-.53 1.587-.847 3.597-.264 1.957-.423 3.65-.106 1.692-.106 2.38-.053.529-.317.952-.212.423-.53.793.847.053 1.8.265 1.004.212 1.798.846.846.635 1.216 1.957-1.057 1.111-2.644 1.746-1.587.582-3.386 1.058-1.745.423-3.28 1.058 1.059 1.48 2.593 2.592 1.587 1.058 3.28 2.01 1.692.952 3.173 2.01 1.481 1.005 2.486 2.327 1.005 1.322 1.11 3.174zM50.379 39.118q-2.38-.37-4.072-1.428-1.64-1.058-2.857-3.068-.582.053-1.005.423-.423.317-.687.582-.635 1.428-1.693 3.226-1.058 1.746-2.116 3.386-1.058 1.64-1.745 2.75 1.005-.053 2.38-.264 1.428-.212 2.697-.635 1.323-.476 1.905-1.27 1.64.212 2.909.847 1.322.582 2.222 1.64-1.323.687-2.54 1.11-1.163.37-2.962.53.635 1.322.582 2.644 0 1.27-.105 2.328 2.01-.794 3.279-.635 1.27.106 1.957.687.74.582 1.058 1.27-1.164 1.005-2.856 1.322-1.64.318-3.386.794 0 .899-.105 2.645-.106 1.692-.212 3.702-.106 1.957-.212 3.703-.052 1.745-.105 2.698 2.486-.741 4.337-.318 1.851.37 2.804 1.799-1.693 1.057-3.65 1.27-1.957.21-3.915.316-1.957.16-3.65 1.005-.793.37-1.427 1.058-.582.74-1.323 1.005-.793.318-1.798-.211-.952-.476-1.852-1.375-.899-.9-1.534-1.852-.634-1.005-.687-1.692.582-.318 1.058-.212.476.106.952.317l.529.212q.264.106.582.159 1.322.158 3.12-.16 1.799-.37 2.963-.634.264-.106.37-.106.159-1.692.211-3.967.106-2.327.106-4.602v-4.02q-.582 0-1.216.106l-1.27.106q-1.745.264-3.438.264-1.693-.053-2.804-1.587.582-.74 1.64-1.057 1.111-.318 2.38-.424 1.323-.158 2.54-.317 1.216-.159 2.062-.529-.052-1.534-.37-2.592-.264-1.11-.793-1.957-.9.317-1.693.053-.74-.264-1.322-.529-.159-.106-.37-.159-.16-.105-.318-.158-.106.211-.793 1.11-.688.9-1.64 2.17-.952 1.216-1.957 2.432-1.005 1.217-1.799 2.063-.793.847-1.11.952-.847.212-1.852.053-1.005-.211-1.587-1.058.476-.529 1.323-1.322.846-.793 1.534-1.587.687-.846.687-1.375.476-.265 1.428-1.534 1.005-1.323 2.222-3.227 1.27-1.904 2.539-4.02 1.322-2.116 2.433-4.073 1.164-2.01 1.904-3.438.794-1.481.953-1.957-.37-1.005-1.111-1.534-.74-.582-1.376-1.27 2.487-1.375 4.708-.687 2.222.688 3.174 3.12 1.164.53 2.486 1.482 1.322.899 2.274 2.274 1.005 1.376 1.005 3.227zm15.657 3.12v-1.322q.053-1.375 0-2.803 0-1.481-.264-2.328-2.645.212-5.395.582-2.698.37-4.55.9.16.846.371 2.327.212 1.428.106 2.803 1.11 0 2.116-.158 1.005-.159 1.957-.318 1.64-.317 3.015-.37 1.428-.106 2.644.688zm-3.49 19.307-2.857-4.443q-1.428-2.221-3.491-3.702-.053 1.48-.159 3.544-.106 2.01-.264 4.073-.106 2.062-.265 3.702-.105 1.64-.158 2.38 1.322-.687 2.856-1.692 1.534-1.058 2.75-2.063 1.217-1.058 1.587-1.799zm3.49-17.402q-2.433.529-4.972.846-2.539.265-4.654.582 0 .53-.053 1.428v1.693q0 .846-.106 1.322 1.587.053 3.385-.053 1.799-.105 3.438-.317 1.64-.212 2.75-.37 0-.159.054-.423.106-1.27.158-2.222.053-.952 0-2.486zM50.644 59.64q-.053 1.005-.74 2.222-.688 1.216-1.535 2.327-.846 1.058-1.375 1.693-.37-.423-.74-.37-.318 0-.74.158-.265.106-.583.212-.317.106-.74.106l.211-.53q.106-.317.212-.581.793-1.957 1.428-3.967.688-2.01.529-3.597-.159-.476-.37-.846-.159-.424-.37-.847.37-.74 1.11-.423.794.265 1.64 1.11.9.847 1.481 1.8.582.951.582 1.533zm-13.171 8.093q-1.375-.211-2.486-1.11-1.058-.9-1.798-1.64.052-.847-.16-1.746-.158-.9-.422-1.745-.265-.847-.424-1.64-.158-.846-.052-1.481.846 0 1.904.582 1.11.581 2.01 1.48.9.9 1.058 1.958.053.211-.159.529-.159.264-.159.423 0 .476.053 1.005.106.476.265 1.058.158.529.264 1.164.106.581.106 1.163zm30.15-15.657q-1.957.318-4.39.53-2.433.158-4.284.317.899.687 2.01 1.85 1.11 1.165 1.798 1.64 1.058-.528 2.327-1.375 1.27-.846 2.116-1.27.53-.21.582-.687.106-.529-.159-1.005z" style="-inkscape-font-specification:&quot;Yuji Boku&quot;"/></g></svg>