<svg xmlns="http://www.w3.org/2000/svg" viewBox="0 0 100 100"><linearGradient id="a" x1="19.181" x2="80.829" y1="52" y2="52" gradientTransform="matrix(1 0 0 -1 0 102)" gradientUnits="userSpaceOnUse"><stop offset="0" stop-color="#f9da9c"/><stop offset=".043" stop-color="#fbe0a1"/><stop offset=".067" stop-color="#fce6a6"/><stop offset=".145" stop-color="#f4d593"/><stop offset=".193" stop-color="#f5d797"/><stop offset=".243" stop-color="#f7dda4"/><stop offset=".263" stop-color="#f9e1ab"/><stop offset=".329" stop-color="#f7dfa8"/><stop offset=".383" stop-color="#f2d89e"/><stop offset=".398" stop-color="#efd599"/><stop offset=".461" stop-color="#f2d795"/><stop offset=".462" stop-color="#f2d795"/><stop offset=".527" stop-color="#f2d795"/><stop offset=".538" stop-color="#f2d795"/><stop offset=".538" stop-color="#f2d795"/><stop offset=".615" stop-color="#efda9c"/><stop offset=".735" stop-color="#f6e5ad"/><stop offset=".773" stop-color="#f9e9b4"/><stop offset=".822" stop-color="#f7e1a6"/><stop offset=".887" stop-color="#f5db9b"/><stop offset=".956" stop-color="#f4d997"/><stop offset=".967" stop-color="#f4da9c"/><stop offset="1" stop-color="#f4db9e"/></linearGradient><path fill="url(#a)" stroke="#63451a" stroke-miterlimit="10" stroke-width=".954" d="M77.6 15.4 50 5.8l-27.6 9.6-10.6 72.1v6.7h76.4v-6.7z"/><path fill="#63451a" fill-opacity=".75" d="M12.3 87.5h75.4v6.2H12.3z"/><g style="font-size:40px;white-space:pre"><path d="M64.997 62.106q-.64.72-1.72.88-1.04.16-1.72 0-1.76-.44-4.24-.6-2.44-.16-5.32-.12-2.88 0-5.92.2-.96.04-2.36.2-1.36.12-2.68.36-1.32.2-2.2.6l-.48.24q-.2.12-.36.28-.44.28-.88.44-.44.16-1.2-.12-1.24-.84-2.52-1.68-1.24-.88-2-2.32.6-.24 1.12-.16.56.08 1.12.24l.72.16q.36.08.76.08 2.16-.08 5.2-.48 3.08-.4 6.16-.56.04-.88 0-2.6 0-1.72-.04-3.44 0-1-.04-1.88v-1.52q-1.36.16-2.76.24-1.4.08-2.72.4-.16.04-.32.12l-.32.16q-.32.16-.6.28-.28.12-.6 0-.88-.32-1.72-1-.84-.68-1.48-1.4l-.96-1.08q1.08-.16 2.28-.16h2.56q1.56.04 3.24.04 1.68-.04 3.44-.28v-2.48q0-1.08-.08-2.08-.04-1.04-.2-2.04-.12-1-.4-2.12-.64.08-1.28.12h-1.32q-.76 0-1.6.04-.8 0-1.68.16-.2.04-.44.12-.24.08-.44.16-.44.16-.92.28-.44.08-.84-.12-.96-.52-1.8-1.52-.8-1.04-1.56-1.96-.12-.56-.08-.92.08-.4.48-.32 1.44.36 2.6.72 1.2.32 2.36.48 1 .12 2.64.12 1.64 0 3.56-.08 1.96-.12 3.96-.28 2-.16 3.72-.32 1.72-.2 2.88-.36.16 0 .28-.12l.2-.2q.2-.2.28-.2 1.8.16 3.24.76 1.44.6 1.84 2.32-1.32.28-2.64.36-1.32.08-2.76.12-1.4.04-3.12.2-1.68.12-3.44.24-.04 2.2-.12 4.56-.04 2.32-.16 4.04h1.92q1.12-.04 2.08-.2 1-.16 1.44-.52 1.4.28 2.68.72 1.28.44 2.16 1.36.28.4.2.76-.04.36-.76.36-2.32-.08-4.96-.04-2.6.04-4.8.36 0 1.36-.04 3.12l-.08 3.4q-.04 1.64-.12 2.88 1.28.04 2.4.12 1.12.08 2.24.08t2.12-.24q1-.24 1.88-.92 1.24.32 2.6.72 1.36.36 2.56 1t1.88 1.84zm-7.6-8.2q.44 1.12.48 2.16.04 1.04-.84 1.76-1.28-.6-2.36-1.8-1.04-1.24-1.84-2.52t-1.32-2.08q1.28-.12 2.2.36.96.44 1.84 1.04l.88.56q.48.28.96.52z" aria-label="玉" style="-inkscape-font-specification:&quot;Yuji Boku&quot;" transform="matrix(1.6681 0 0 1.6681 -29.993 -29.954)"/></g></svg>