<svg xmlns="http://www.w3.org/2000/svg" xml:space="preserve" id="svg8" version="1.1" viewBox="0 0 100 100"><style id="style2">.st2{fill:#fff}</style><linearGradient id="SVGID_1_" x1="23.313" x2="76.671" y1="52" y2="52" gradientTransform="matrix(1 0 0 -1 0 102)" gradientUnits="userSpaceOnUse"><stop id="stop4" offset="0" stop-color="#f9da9c"/><stop id="stop6" offset=".043" stop-color="#fbe0a1"/><stop id="stop8" offset=".067" stop-color="#fce6a6"/><stop id="stop10" offset=".145" stop-color="#f4d593"/><stop id="stop12" offset=".193" stop-color="#f5d797"/><stop id="stop14" offset=".243" stop-color="#f7dda4"/><stop id="stop16" offset=".263" stop-color="#f9e1ab"/><stop id="stop18" offset=".329" stop-color="#f7dfa8"/><stop id="stop20" offset=".383" stop-color="#f2d89e"/><stop id="stop22" offset=".398" stop-color="#efd599"/><stop id="stop24" offset=".461" stop-color="#f2d795"/><stop id="stop26" offset=".462" stop-color="#f2d795"/><stop id="stop28" offset=".527" stop-color="#f2d795"/><stop id="stop30" offset=".538" stop-color="#f2d795"/><stop id="stop32" offset=".538" stop-color="#f2d795"/><stop id="stop34" offset=".615" stop-color="#efda9c"/><stop id="stop36" offset=".735" stop-color="#f6e5ad"/><stop id="stop38" offset=".773" stop-color="#f9e9b4"/><stop id="stop40" offset=".822" stop-color="#f7e1a6"/><stop id="stop42" offset=".887" stop-color="#f5db9b"/><stop id="stop44" offset=".956" stop-color="#f4d997"/><stop id="stop46" offset=".967" stop-color="#f4da9c"/><stop id="stop48" offset="1" stop-color="#f4db9e"/></linearGradient><path id="path51" fill="url(#SVGID_1_)" stroke="#63451a" stroke-miterlimit="10" stroke-width=".922" d="M74.5 17.5 50 8.6l-24.5 8.9-9.4 66.6v7.3h67.8v-7.3z"/><path id="path53" fill="#63451a" fill-opacity=".75" d="M16.6 84.1h66.8v6.8H16.6z"/><g id="text280" aria-label="鯨" style="font-size:52.8953px;fill:#a00;stroke-width:1.32238"><path id="path315" d="M74.606 47q-.582.317-1.111.37H72.119q-.37.581-.793 1.428-.37.846-.9 1.428.16 1.904-.475 3.65-.582 1.692-1.058 2.856l-.053.053q-.793.423-1.693.476-.899.053-1.957.053-.37 0-.793.053h-.9q-.052.264-.052.582.053.317.053.634.052.582.052 1.164t-.37 1.005q.212.265.265.635.105.317.264.635-.106 1.005-.053 2.221.106 1.217.212 2.486.211 2.433.158 4.814 0 2.433-1.428 3.967-2.327-.582-4.337-1.587-2.01-.952-3.703-2.275-.158-.634-.846-1.375-.635-.74-1.27-1.11-.264.793-.634 1.533-.37.688-1.005.847-1.005-.37-1.534-1.164-.53-.846-.9-1.851-.317-1.058-.846-2.063.635-.423 1.164-1.111.582-.688.793-1.164.37-.793.476-1.692.106-.9.318-1.746.211-.846.952-1.428 1.48.688 2.063 2.169.634 1.428.476 3.173-.106 1.693-.9 3.227 2.54 1.798 6.454 1.798.317-.529.529-1.851.211-1.322.264-2.962.053-1.64-.106-3.227-.105-1.64-.476-2.75-.37-1.111-1.005-1.323-.37 0-.581.159-.16.106-.318.317-.211.212-.37.318-.9-.318-1.957-1.058-1.058-.794-1.799-1.746-.158-.634-.105-1.428l.105-1.693q.106-1.692-.053-3.12-.105-1.428-1.428-1.534.212-.37.053-.688-.106-.37-.264-.688-.212-.317-.37-.634-.106-.37.105-.74-1.322.052-1.904.898-.582.794-.74 2.063-.16 1.27-.212 2.75 0 1.006-.106 2.064-.053 1.005-.264 1.957-.265 1.164-.53 2.91-.264 1.692-.37 3.067-1.163.106-2.115-.053-.953-.159-1.058-1.48-1.852.528-3.862.687-2.01.106-3.967.317-1.904.212-3.438 1.058-1.058-.212-1.587-1.005-.529-.846-1.27-1.428-.105-.74-.052-1.693.053-1.005.158-2.116.106-1.534.16-3.12.052-1.587-.213-2.804-.264-1.27-1.11-1.851-.53-.37-1.164-.265-.635.053-1.322-.634.158-.212.37-.318.211-.159.37-.264.423-.212.688-.476.264-.318.158-1.005 2.963-.582 5.449-1.111 2.486-.582 5.078-.582.899-1.957 1.375-4.285.476-2.327 1.481-4.125-.582.053-1.11 0-.53-.053-1.006-.106t-.952-.053q-.423-.053-.846 0-.9.159-2.063 1.217-1.164 1.057-2.328 2.327-1.11 1.217-2.01 2.063-.105.106-.264.211l-.265.265q-1.057 1.005-2.38 1.904-1.322.846-2.803.212-.159-.423-.37-.847-.16-.476-.37-.846 2.115-1.322 3.543-2.645 1.428-1.375 2.75-2.962 1.376-1.64 3.174-3.703-.052-.74-.529-1.057-.476-.318-.899-.635 1.27-.74 2.698-.9 1.481-.158 2.698.424 1.27.582 1.745 2.168.476.106 1.322 0 .847-.105 1.006-.74 2.221-.053 3.86.846 1.64.847 3.069 2.116-.159.688-.9.9-.74.21-1.533.264-.794 0-1.164.317-.582 1.799-1.481 3.333-.846 1.48-1.323 3.438.053.211.265.211.264 0 .529-.053.476-.052.635 0 1.163-.74 2.01-.634.899.053 1.957.423.476.159 1.005.317.582.159 1.216.265.106.582.476.899.37.264.741.582.37.317.423.952 2.222-.265 4.655-.476 2.433-.212 4.655-.318 2.221-.158 3.755-.211.265-.53.688-.74 1.851.21 3.597.581 1.745.37 2.909 1.27l-.212.37q.477.212 1.429.529.952.317 1.058 1.322zm.846-7.3q-1.904.793-4.02.952-2.063.106-4.232.159-.846 0-1.692.052-.794 0-1.64.053-.635.053-1.375.053-.688-.053-1.429-.053-1.216-.053-2.433-.053-1.164 0-2.221.318-.37.106-.741.317-.317.159-.635.37-.423.265-.846.477-.423.158-.793.158-1.217-.106-2.222-.793-1.005-.688-1.851-1.534-.847-.847-1.64-1.375.37-.053.793-.212.423-.159.635-.37 1.428.158 2.962.105 1.534-.052 3.12-.158 1.218-.053 2.381-.106 1.217-.106 2.328-.053-.053-.423-.053-.846.053-.423.053-.847.053-.687 0-1.322 0-.635-.16-1.164-.951-.793-2.062-1.428-1.11-.635-2.274-1.48.793-.741 2.062-1.006 1.323-.264 2.645.053 1.375.264 2.328 1.11 1.005.794 1.216 2.222-.687.635-.899 1.905-.159 1.27-.264 2.539.74.158 1.428.105.687-.052 1.375-.158.476-.053.9-.106.475-.053 1.004-.053.159-.159.106-.423v-.212q.053-.158.264-.317 1.111-.053 2.54.211 1.48.265 2.856.794 1.428.476 2.327 1.217.212.211.318.476.105.264-.16.423zm-9.204 6.03q-.37 0-.74.053h-.794q-1.851 0-3.861.211-2.01.159-3.703.952.159 1.058.159 2.17 0 1.057-.053 2.168-.053.899-.106 1.851 0 .9.053 1.851 2.169.265 3.967.053 1.851-.211 3.385-.476.424-.053.635-.105.476-1.27.635-2.857.211-1.587.264-3.174.053-1.586.16-2.697zm9.31 25.548q-.212.318-.476.265-.212 0-.424-.106l-.317-.106q-.159 0-.212.317-2.38-2.168-3.967-5.606-1.534-3.491-2.38-6.877.159.106.529.318 1.64.899 3.28 1.957t2.856 2.433q1.216 1.375 1.587 3.174.37 1.798-.476 4.231zM44.773 44.46q-.9-.264-1.481-.211-.53 0-1.111.158-.318.053-.688.16-.37.052-.846.105.317.74.317 1.481.053.74.053 1.587v1.799q.793.21 1.164.898.423.635 1.163.953-.634.105-1.216.317-.582.159-1.27.264-.053 1.323-.158 2.645-.053 1.27-.212 2.75.846-.105 1.904-.158 1.111-.106 2.01 0v-.106q.265-2.909.423-6.136.16-3.28-.052-6.506zM32.13 75.67q-1.481-.424-2.275-1.164-.74-.74-1.851-1.64.317-2.38-.265-4.655-.529-2.274-1.11-4.231l-.106-.318-.106-.317q2.01.264 3.12 1.534 1.164 1.216 1.693 3.015.582 1.798.74 3.808.16 2.063.16 3.968zm5.5-3.703q-.899-.212-1.533-.794-.582-.581-1.058-1.216-.476-.688-1.164-1.164.053-1.322-.211-2.38-.212-1.058-.476-2.01-.106-.37-.212-.688-.053-.37-.159-.74 1.852.264 3.015 1.692 1.164 1.428 1.64 3.386.476 1.957.159 3.914zm.16-14.6q-.054-.475-.054-.951V54.034q0-.74-.105-1.534-1.005.053-1.852.37-.846.318-1.904.37v2.751q0 1.111.212 1.958.264-.106.687-.106.424-.053.847-.053l1.163-.106q.582-.053 1.005-.317zm-.318-7.299v-.74q0-.423.053-.847v-1.587q.053-.846-.053-1.64-.846-.052-1.534.107-.688.158-1.322.317l-.635.211-.635.106q.265.53.265 1.217.053.635.105 1.322v1.058q.053.476.16.846.898-.105 1.798-.158.952-.053 1.798-.212zm5.13 19.624q-1.11-.105-2.01-1.216-.845-1.111-1.692-1.957.318-1.005-.106-2.116-.37-1.111-.793-1.799 1.322-.158 2.592.9 1.322 1.005 1.957 2.697.688 1.64.053 3.491zm3.915-2.063q-1.216-.211-1.957-.952-.688-.74-1.428-1.48.053-1.059-.106-1.905-.106-.9-.582-1.428.74-.265 1.64.211.9.477 1.64 1.429.74.899 1.005 2.01.264 1.058-.212 2.115z" style="-inkscape-font-specification:&quot;Yuji Boku&quot;"/></g></svg>