<?xml version="1.0" encoding="UTF-8" standalone="no"?>
<svg
   version="1.1"
   id="svg8"
   viewBox="0 0 100 100"
   xml:space="preserve"
   sodipodi:docname="1_COPPER.svg"
   inkscape:version="1.2.1 (9c6d41e410, 2022-07-14, custom)"
   xmlns:inkscape="http://www.inkscape.org/namespaces/inkscape"
   xmlns:sodipodi="http://sodipodi.sourceforge.net/DTD/sodipodi-0.dtd"
   xmlns="http://www.w3.org/2000/svg"
   xmlns:svg="http://www.w3.org/2000/svg"><defs
     id="defs66"><linearGradient
       id="a"
       gradientUnits="userSpaceOnUse"
       x1="20.649"
       y1="48.75"
       x2="79.115997"
       y2="48.75"
       gradientTransform="matrix(1,0,0,-1,0,102)"><stop
         offset="0"
         stop-color="#f9da9c"
         id="stop2" /><stop
         offset=".043"
         stop-color="#fbe0a1"
         id="stop4-7" /><stop
         offset=".067"
         stop-color="#fce6a6"
         id="stop6-4" /><stop
         offset=".145"
         stop-color="#f4d593"
         id="stop8-5" /><stop
         offset=".193"
         stop-color="#f5d797"
         id="stop10-2" /><stop
         offset=".243"
         stop-color="#f7dda4"
         id="stop12-5" /><stop
         offset=".263"
         stop-color="#f9e1ab"
         id="stop14-4" /><stop
         offset=".329"
         stop-color="#f7dfa8"
         id="stop16-7" /><stop
         offset=".383"
         stop-color="#f2d89e"
         id="stop18-4" /><stop
         offset=".398"
         stop-color="#efd599"
         id="stop20-4" /><stop
         offset=".461"
         stop-color="#f2d795"
         id="stop22-3" /><stop
         offset=".462"
         stop-color="#f2d795"
         id="stop24-0" /><stop
         offset=".527"
         stop-color="#f2d795"
         id="stop26-7" /><stop
         offset=".538"
         stop-color="#f2d795"
         id="stop28-8" /><stop
         offset=".538"
         stop-color="#f2d795"
         id="stop30-6" /><stop
         offset=".615"
         stop-color="#efda9c"
         id="stop32-8" /><stop
         offset=".735"
         stop-color="#f6e5ad"
         id="stop34-8" /><stop
         offset=".773"
         stop-color="#f9e9b4"
         id="stop36-4" /><stop
         offset=".822"
         stop-color="#f7e1a6"
         id="stop38-3" /><stop
         offset=".887"
         stop-color="#f5db9b"
         id="stop40-1" /><stop
         offset=".956"
         stop-color="#f4d997"
         id="stop42-4" /><stop
         offset=".967"
         stop-color="#f4da9c"
         id="stop44-9" /><stop
         offset="1"
         stop-color="#f4db9e"
         id="stop46-2" /></linearGradient></defs><sodipodi:namedview
     id="namedview64"
     pagecolor="#ffffff"
     bordercolor="#666666"
     borderopacity="1.0"
     inkscape:showpageshadow="2"
     inkscape:pageopacity="0.0"
     inkscape:pagecheckerboard="0"
     inkscape:deskcolor="#d1d1d1"
     showgrid="false"
     inkscape:zoom="2.2125051"
     inkscape:cx="108.9263"
     inkscape:cy="71.864241"
     inkscape:window-width="1366"
     inkscape:window-height="711"
     inkscape:window-x="0"
     inkscape:window-y="0"
     inkscape:window-maximized="1"
     inkscape:current-layer="svg8" /><style
     id="style2">.st2{fill:#fff}</style><linearGradient
     id="SVGID_1_"
     gradientUnits="userSpaceOnUse"
     x1="23.313"
     y1="52"
     x2="76.671"
     y2="52"
     gradientTransform="matrix(-1,0,0,1,100,-2.0294749)"><stop
       offset="0"
       stop-color="#f9da9c"
       id="stop4" /><stop
       offset=".043"
       stop-color="#fbe0a1"
       id="stop6" /><stop
       offset=".067"
       stop-color="#fce6a6"
       id="stop8" /><stop
       offset=".145"
       stop-color="#f4d593"
       id="stop10" /><stop
       offset=".193"
       stop-color="#f5d797"
       id="stop12" /><stop
       offset=".243"
       stop-color="#f7dda4"
       id="stop14" /><stop
       offset=".263"
       stop-color="#f9e1ab"
       id="stop16" /><stop
       offset=".329"
       stop-color="#f7dfa8"
       id="stop18" /><stop
       offset=".383"
       stop-color="#f2d89e"
       id="stop20" /><stop
       offset=".398"
       stop-color="#efd599"
       id="stop22" /><stop
       offset=".461"
       stop-color="#f2d795"
       id="stop24" /><stop
       offset=".462"
       stop-color="#f2d795"
       id="stop26" /><stop
       offset=".527"
       stop-color="#f2d795"
       id="stop28" /><stop
       offset=".538"
       stop-color="#f2d795"
       id="stop30" /><stop
       offset=".538"
       stop-color="#f2d795"
       id="stop32" /><stop
       offset=".615"
       stop-color="#efda9c"
       id="stop34" /><stop
       offset=".735"
       stop-color="#f6e5ad"
       id="stop36" /><stop
       offset=".773"
       stop-color="#f9e9b4"
       id="stop38" /><stop
       offset=".822"
       stop-color="#f7e1a6"
       id="stop40" /><stop
       offset=".887"
       stop-color="#f5db9b"
       id="stop42" /><stop
       offset=".956"
       stop-color="#f4d997"
       id="stop44" /><stop
       offset=".967"
       stop-color="#f4da9c"
       id="stop46" /><stop
       offset="1"
       stop-color="#f4db9e"
       id="stop48" /></linearGradient><g
     id="g223"
     transform="translate(0.02460136,2.5410789)"><path
       fill="url(#a)"
       stroke="#63451a"
       stroke-miterlimit="10"
       d="m 16.1,12.9 v 5.7 l 9.4,66.2 24.5,8.8 24.5,-8.8 9.4,-66.2 v -5.7 z"
       id="path49"
       style="fill:url(#a)" /><path
       fill="#63451a"
       fill-opacity="0.75"
       d="M 74,79.1 50,87.9 26,79.1 16.6,13.3 v 5.2 l 9.4,66 24,8.6 24,-8.7 9.4,-65.9 v -5.2 z"
       id="path51-0" /></g><g
     aria-label="銅"
     id="text280"
     style="font-size:52.8953px;stroke-width:1.32238"><path
       d="m 24.177882,61.011324 q 0.158686,-0.899221 0.952116,-1.163697 0.793429,-0.211581 1.692649,-0.317372 0.846325,-0.05289 1.269488,-0.423162 0.211581,-3.067928 0.158686,-6.664808 -0.105791,-3.543986 -0.211582,-7.193761 -0.10579,-2.909242 -0.158686,-5.818484 -0.0529,-2.856346 0,-5.501111 0,-0.528953 0,-1.057906 -0.0529,-0.528953 -0.10579,-1.005011 -0.105791,-0.846325 -0.105791,-1.639754 -0.05289,-0.740534 0.158686,-1.481069 0.158686,-0.687639 0.581848,-1.269487 0.370268,-0.634743 0.423163,-1.322382 0.528953,-0.105791 0.952115,-0.317372 0.423163,-0.264477 0.89922,-0.476058 2.48608,0.740534 4.178729,2.115812 1.639755,1.322383 3.3853,2.644765 -0.370268,0.317372 0.264476,1.005011 0.634744,0.687639 1.110801,1.005011 -0.793429,0.10579 -1.481068,-0.0529 -0.687639,-0.10579 -1.375278,-0.264476 -0.846325,-0.158686 -1.79844,-0.317372 -0.952116,-0.10579 -2.168708,0.158686 -0.528953,1.110801 -0.687638,3.067928 -0.211582,2.010021 -0.158686,4.178728 0,2.221603 0.0529,4.125834 0.05289,1.163697 0.105791,2.062917 0,0.89922 -0.0529,1.375278 0,0 0.264477,-0.264477 0.211581,-0.264476 0.423162,-0.370267 0.476058,-0.264477 1.005011,-0.423163 0.528953,-0.10579 1.057906,-0.423162 -0.05289,-1.110801 0.0529,-2.115812 0.105791,-0.952115 0.211581,-1.851336 0.105791,-0.952115 0.211582,-1.79844 0.0529,-0.846325 -0.0529,-1.639754 0.423163,-0.264477 0.528953,-0.89922 0.105791,-0.634744 0.158686,-1.322383 0.0529,-0.687639 0.317372,-1.163696 1.322383,0.05289 2.433184,0 1.057906,-0.0529 2.062917,-0.105791 0.634743,-0.0529 1.269487,-0.105791 0.634744,-0.05289 1.375278,-0.05289 0.317372,0.05289 0.423162,-0.105791 0.0529,-0.158686 0.105791,-0.370267 0.05289,-0.317372 0.158686,-0.423162 1.110801,0.687639 1.745545,1.481068 0.634743,0.79343 1.692649,1.639755 0,0.317371 -0.05289,0.317371 -0.105791,0.0529 -0.264476,-0.05289 -0.264477,-0.158686 -0.370268,-0.10579 0.105791,0.740534 0.105791,1.533963 -0.05289,0.846325 -0.105791,1.745545 -0.05289,0.952116 -0.05289,1.957126 -0.05289,1.005011 0.105791,2.010022 0.05289,0.528953 0.264476,1.005011 0.211581,0.476057 0.476058,0.952115 0.370267,0.740534 0.634744,1.481069 0.211581,0.793429 -0.105791,1.533963 -1.851336,-0.05289 -4.548996,0.0529 -2.69766,0.10579 -5.342425,0.952115 -1.110802,-0.370267 -2.221603,-0.634744 -1.110801,-0.211581 -2.010022,-0.740534 -0.952115,-0.476058 -1.428173,-1.692649 -0.423162,0.264476 -0.423162,1.00501 -0.0529,0.79343 0.05289,1.533964 0,0.264477 0.0529,0.528953 0,0.264477 0,0.476058 0.0529,2.486079 0.105791,5.025053 0.05289,2.538975 0.317372,4.919263 0.0529,0.528954 0.10579,1.110802 0.0529,0.634743 0.581849,0.952115 -0.423163,0.423163 -0.476058,1.110802 0.89922,-0.105791 1.957126,-0.158686 1.057906,0 2.168708,0 2.168707,-0.0529 4.548996,-0.211582 2.327393,-0.10579 4.4961,-0.581848 2.168708,-0.423162 3.861357,-1.428173 -0.05289,-0.423162 -0.264476,-0.687639 -0.264477,-0.264476 -0.423163,-0.634744 -0.10579,-3.59688 -0.05289,-7.193761 0.05289,-3.543985 0.105791,-6.717703 0.05289,-1.375278 0.10579,-2.69766 0,-1.269488 0,-2.433184 0,-0.740534 0,-1.428173 -0.05289,-0.687639 -0.05289,-1.375278 -0.05289,-1.639755 -0.05289,-3.279509 0,-1.639754 0.211581,-3.385299 0,-0.211581 0.05289,-0.476058 0,-0.211581 0.05289,-0.423162 0.105791,-0.846325 0.211582,-1.639755 0.05289,-0.846325 0,-1.904231 0,-0.370267 0.317371,-0.370267 1.057907,0 1.533964,0.687639 0.423163,0.687639 0.740534,1.533964 0.158686,0.528953 0.423163,1.005011 0.211581,0.528953 0.581848,0.846325 0.105791,0.687638 0.317372,1.216592 0.158686,0.581848 0.370267,1.163696 0,0.528953 -0.317372,0.634744 -0.317371,0.158686 -0.528953,0.476057 -0.05289,1.428174 -0.158686,2.962137 -0.10579,1.586859 -0.211581,3.226614 -0.370267,4.654786 -0.528953,9.785631 -0.158686,5.130844 0.79343,9.78563 0.158686,0.79343 0.581848,1.481069 0.370267,0.740534 0.79343,1.428173 0.10579,-0.158686 0.10579,-0.423162 -0.05289,-0.264477 -0.158686,-0.581849 -0.05289,-0.317371 -0.10579,-0.634743 -0.0529,-0.317372 0,-0.581849 1.216592,-0.317371 2.010021,0.0529 0.79343,0.423162 1.322383,1.163696 0.528953,0.79343 1.00501,1.639755 0.211582,0.423162 0.476058,0.793429 0.211581,0.423163 0.476058,0.740534 1.586859,-1.957126 3.067927,-4.284519 1.481069,-2.274498 2.697661,-3.914252 0.211581,-0.317372 0.581848,-1.005011 0.317372,-0.634744 0.581848,-1.005011 -0.423162,-0.264476 -0.846324,-0.264476 -0.423163,0.05289 -0.846325,0.10579 -0.370267,0.0529 -0.740535,0.105791 -0.423162,0.05289 -0.793429,-0.105791 -0.158686,0.476058 -0.846325,0.581849 -0.740534,0.10579 -1.481068,0.211581 -0.740535,0.158686 -0.89922,0.687639 -1.481069,-0.581849 -2.538975,-1.110802 -1.057906,-0.528953 -2.274498,-1.428173 0.581848,-0.634743 1.428173,-0.846325 0.846325,-0.211581 1.79844,-0.370267 0.899221,-0.10579 1.851336,-0.687639 -0.264476,-0.476057 -0.317372,-1.163696 -0.05289,-0.687639 -0.05289,-1.481069 0,-0.581848 0,-1.110801 -0.05289,-0.528953 -0.158686,-1.057906 -1.481068,0.105791 -2.909242,-0.476058 -1.481068,-0.528953 -2.062916,-1.851335 1.110801,-0.423163 2.433184,-0.634744 1.269487,-0.158686 2.486079,-0.528953 0.317372,-1.163697 0.370267,-2.69766 0,-1.533964 0,-3.120823 -0.05289,-1.481069 0,-2.909242 0,-1.428173 0.264476,-2.59187 -1.745545,0 -3.808461,-0.528953 -2.062917,-0.476057 -3.226614,-1.586859 1.057906,-0.687639 2.59187,-0.952115 1.481068,-0.264477 3.226613,-0.370267 1.745545,-0.105791 3.438195,-0.317372 1.639754,-0.264477 3.015032,-0.89922 0.0529,-0.370267 0.317372,-0.528953 0.211581,-0.211581 0.317372,-0.581848 1.216592,-0.158686 2.221603,0.581848 0.952115,0.740534 1.851335,1.745545 0.528953,0.528953 1.057906,1.005011 0.476058,0.528953 1.057906,0.846324 -0.89922,0.634744 -1.692649,0.528953 -0.846325,-0.05289 -1.69265,-0.687639 -1.533964,0.158686 -2.909242,0.476058 -1.375278,0.370267 -2.909241,0.528953 -0.158686,1.79844 -0.0529,4.020043 0.0529,2.274498 0.158686,4.39031 0.0529,0.846325 0.105791,1.586859 0.05289,0.79343 0.05289,1.481069 1.322383,0 2.274498,-0.423163 0.89922,-0.370267 1.639754,-0.952115 1.322383,0.264476 2.010022,1.163696 0.687639,0.899221 1.269487,1.957127 -1.692649,0.740534 -3.649776,0.952115 -2.010021,0.264477 -3.649775,0.634744 0.10579,0.423162 0.10579,0.952115 0,0.528953 0.05289,1.110801 0,1.057907 0.105791,2.010022 0.105791,0.952115 0.79343,1.269487 0.89922,-0.423162 1.692649,-0.10579 0.740534,0.317371 1.375278,0.687638 0.370267,0.211582 0.528953,0.317372 1.163697,-0.846325 1.745545,-2.062916 0.528953,-1.163697 1.79844,-2.380289 0.370267,-0.370267 0.846325,-0.740534 0.476058,-0.317372 1.005011,-0.476058 0,0 0.528953,0.211581 0.476058,0.264477 1.005011,0.740534 0.528953,0.528953 0.528953,1.322383 -1.216592,0.634744 -2.168708,1.375278 -0.952115,0.793429 -1.904231,2.909241 0,0 -0.05289,-0.211581 -0.10579,-0.158686 -0.264476,-0.158686 -0.211582,0.89922 -0.740535,1.375278 -0.581848,0.528953 -0.793429,1.586859 -0.05289,0.264477 0.158686,0.211581 0.211581,-0.05289 0.211581,-0.05289 -0.211581,0.370267 -0.476058,0.423163 -0.264476,0.10579 -0.476057,0.264476 -0.264477,0.158686 -0.423163,0.846325 0.264477,0.158686 0.264477,0.423162 -0.0529,0.317372 -0.0529,0.317372 -0.05289,0.581848 -0.687639,0.952116 -0.687639,0.423162 -1.00501,0.89922 -0.105791,0.10579 0.0529,0.10579 0.370267,-0.10579 0.264476,0.264477 -0.10579,0.317372 -0.476057,0.89922 -0.423163,0.581848 -0.952116,1.269487 -0.89922,1.216592 -1.79844,2.644765 -0.952115,1.428173 -0.793429,2.433184 0.10579,0.634744 0.634743,0.952116 0.476058,0.370267 0.952116,0.687638 0.423162,0.370268 0.476057,0.952116 -1.322382,0.89922 -2.856346,0.687639 -1.533964,-0.211581 -2.803451,-1.269487 -1.322383,-1.005011 -1.851336,-2.697661 -1.216591,-0.423162 -1.957126,-1.375278 -0.793429,-0.952115 -1.322382,-2.115812 -0.158686,0.0529 -0.581849,0.264477 -0.317371,0.211581 -0.634743,0.317372 -0.370267,0.158686 -0.687639,-0.158686 -0.317372,0.05289 -0.105791,0.317372 0.211581,0.211581 -0.05289,0.211581 -4.760577,1.216592 -9.150887,1.322382 -4.443206,0.158686 -8.727725,0.370267 -0.317372,-0.05289 -0.370267,0.0529 -0.0529,0.10579 -0.0529,0.211581 0,0.264476 -0.105791,0.264476 -1.904231,-0.476057 -3.808462,-1.00501 -1.957126,-0.476058 -3.59688,-1.428173 -1.639755,-0.952116 -2.697661,-2.803451 z M 38.72409,45.830372 q 1.481069,0.317372 2.909242,0.105791 1.428173,-0.211582 2.380288,-0.687639 -0.158685,-0.952116 -0.317371,-2.644766 -0.158686,-1.639754 -0.211582,-3.279508 -0.05289,-1.639755 0.105791,-2.59187 -0.89922,-0.05289 -1.586859,0 -0.740534,0.05289 -1.375278,0.105791 -0.476058,0.05289 -0.89922,0.05289 -0.476058,0.05289 -0.89922,0.05289 -0.05289,2.380289 -0.05289,4.760577 -0.0529,2.433184 -0.0529,4.125834 z m -4.178729,8.569039 q -0.10579,-0.158686 -0.0529,-0.370267 0.0529,-0.158686 0.211581,-0.158686 1.481069,-0.158686 3.543986,-0.264477 2.010021,-0.10579 3.967147,-0.264476 1.904231,-0.105791 3.067928,-0.317372 0.211581,0.211581 0.528953,0.423162 0.317372,0.211582 0.687639,0.423163 0.793429,0.476057 1.481068,1.005011 0.634744,0.581848 0.370267,1.269487 -1.005011,0.158686 -2.538974,0.158686 -1.533964,0.05289 -3.226614,0.158686 -1.692649,0.10579 -3.067927,0.476057 l -0.211581,0.581849 Q 37.930656,57.414443 36.608273,56.515223 35.285891,55.668898 34.545356,54.399411 Z M 54.539786,38.583716 q -0.0529,-1.533964 0.634743,-3.173719 0.687639,-1.586859 1.69265,-2.327393 0.370267,-0.264476 0.687639,-0.158686 0.317372,0.158686 0.634743,0.317372 0.211582,0.158686 0.423163,0.264477 0.211581,0.10579 0.476058,0.10579 -0.105791,0.634744 -0.264477,1.216592 -0.158686,0.634744 -0.317372,1.269487 -0.370267,1.428174 -0.634743,2.909242 -0.317372,1.481068 -0.0529,3.120823 -1.745545,-0.0529 -2.486079,-1.110802 -0.740534,-1.057906 -0.793429,-2.433183 z m 11.055118,-5.395321 q 0.264476,-0.740534 0.793429,-0.687639 0.476058,0.05289 0.89922,-0.476058 v 0.740534 q 0.89922,0.370267 1.533964,1.639755 0.581848,1.269487 0.846325,2.909241 0.264476,1.639755 0.211581,3.015033 -2.380289,-0.634744 -3.226613,-2.48608 -0.89922,-1.79844 -1.057906,-4.654786 z"
       style="-inkscape-font-specification:'Yuji Boku'"
       id="path713" /></g></svg>
