<?xml version="1.0" encoding="UTF-8" standalone="no"?>
<svg
   viewBox="0 0 100 100"
   version="1.1"
   id="svg59"
   sodipodi:docname="1_KIRIN.svg"
   inkscape:version="1.2.1 (9c6d41e410, 2022-07-14, custom)"
   xmlns:inkscape="http://www.inkscape.org/namespaces/inkscape"
   xmlns:sodipodi="http://sodipodi.sourceforge.net/DTD/sodipodi-0.dtd"
   xmlns="http://www.w3.org/2000/svg"
   xmlns:svg="http://www.w3.org/2000/svg">
  <defs
     id="defs63">
    <rect
       x="27.957776"
       y="23.506444"
       width="41.300701"
       height="49.691509"
       id="rect477" />
    <linearGradient
       id="a-7"
       gradientUnits="userSpaceOnUse"
       x1="16.913"
       y1="-845.70001"
       x2="82.089996"
       y2="-845.70001"
       gradientTransform="matrix(1,0,0,-1,0,-796)">
      <stop
         offset="0"
         stop-color="#f9da9c"
         id="stop9121" />
      <stop
         offset=".043"
         stop-color="#fbe0a1"
         id="stop9123" />
      <stop
         offset=".067"
         stop-color="#fce6a6"
         id="stop9125" />
      <stop
         offset=".145"
         stop-color="#f4d593"
         id="stop9127" />
      <stop
         offset=".193"
         stop-color="#f5d797"
         id="stop9129" />
      <stop
         offset=".243"
         stop-color="#f7dda4"
         id="stop9131" />
      <stop
         offset=".263"
         stop-color="#f9e1ab"
         id="stop9133" />
      <stop
         offset=".329"
         stop-color="#f7dfa8"
         id="stop9135" />
      <stop
         offset=".383"
         stop-color="#f2d89e"
         id="stop9137" />
      <stop
         offset=".398"
         stop-color="#efd599"
         id="stop9139" />
      <stop
         offset=".461"
         stop-color="#f2d795"
         id="stop9141" />
      <stop
         offset=".462"
         stop-color="#f2d795"
         id="stop9143" />
      <stop
         offset=".527"
         stop-color="#f2d795"
         id="stop9145" />
      <stop
         offset=".538"
         stop-color="#f2d795"
         id="stop9147" />
      <stop
         offset=".538"
         stop-color="#f2d795"
         id="stop9149" />
      <stop
         offset=".615"
         stop-color="#efda9c"
         id="stop9151" />
      <stop
         offset=".735"
         stop-color="#f6e5ad"
         id="stop9153" />
      <stop
         offset=".773"
         stop-color="#f9e9b4"
         id="stop9155" />
      <stop
         offset=".822"
         stop-color="#f7e1a6"
         id="stop9157" />
      <stop
         offset=".887"
         stop-color="#f5db9b"
         id="stop9159" />
      <stop
         offset=".956"
         stop-color="#f4d997"
         id="stop9161" />
      <stop
         offset=".967"
         stop-color="#f4da9c"
         id="stop9163" />
      <stop
         offset="1"
         stop-color="#f4db9e"
         id="stop9165" />
    </linearGradient>
  </defs>
  <sodipodi:namedview
     id="namedview61"
     pagecolor="#ffffff"
     bordercolor="#666666"
     borderopacity="1.0"
     inkscape:showpageshadow="2"
     inkscape:pageopacity="0.0"
     inkscape:pagecheckerboard="0"
     inkscape:deskcolor="#d1d1d1"
     showgrid="false"
     inkscape:zoom="3.9226045"
     inkscape:cx="92.285623"
     inkscape:cy="63.733165"
     inkscape:window-width="1366"
     inkscape:window-height="711"
     inkscape:window-x="0"
     inkscape:window-y="0"
     inkscape:window-maximized="1"
     inkscape:current-layer="svg59" />
  <linearGradient
     id="a"
     gradientUnits="userSpaceOnUse"
     x1="19.181"
     y1="52"
     x2="80.829"
     y2="52"
     gradientTransform="matrix(-1,0,0,1,100,-2.0280308)">
    <stop
       offset="0"
       stop-color="#f9da9c"
       id="stop2" />
    <stop
       offset=".043"
       stop-color="#fbe0a1"
       id="stop4" />
    <stop
       offset=".067"
       stop-color="#fce6a6"
       id="stop6" />
    <stop
       offset=".145"
       stop-color="#f4d593"
       id="stop8" />
    <stop
       offset=".193"
       stop-color="#f5d797"
       id="stop10" />
    <stop
       offset=".243"
       stop-color="#f7dda4"
       id="stop12" />
    <stop
       offset=".263"
       stop-color="#f9e1ab"
       id="stop14" />
    <stop
       offset=".329"
       stop-color="#f7dfa8"
       id="stop16" />
    <stop
       offset=".383"
       stop-color="#f2d89e"
       id="stop18" />
    <stop
       offset=".398"
       stop-color="#efd599"
       id="stop20" />
    <stop
       offset=".461"
       stop-color="#f2d795"
       id="stop22" />
    <stop
       offset=".462"
       stop-color="#f2d795"
       id="stop24" />
    <stop
       offset=".527"
       stop-color="#f2d795"
       id="stop26" />
    <stop
       offset=".538"
       stop-color="#f2d795"
       id="stop28" />
    <stop
       offset=".538"
       stop-color="#f2d795"
       id="stop30" />
    <stop
       offset=".615"
       stop-color="#efda9c"
       id="stop32" />
    <stop
       offset=".735"
       stop-color="#f6e5ad"
       id="stop34" />
    <stop
       offset=".773"
       stop-color="#f9e9b4"
       id="stop36" />
    <stop
       offset=".822"
       stop-color="#f7e1a6"
       id="stop38" />
    <stop
       offset=".887"
       stop-color="#f5db9b"
       id="stop40" />
    <stop
       offset=".956"
       stop-color="#f4d997"
       id="stop42" />
    <stop
       offset=".967"
       stop-color="#f4da9c"
       id="stop44" />
    <stop
       offset="1"
       stop-color="#f4db9e"
       id="stop46" />
  </linearGradient>
  <g
     id="g9723"
     transform="translate(0.05672895,3.1281084)">
    <path
       fill="url(#a)"
       stroke="#63451a"
       stroke-width="1.01"
       stroke-miterlimit="10"
       d="m 11.5,5.5 v 5.2 L 22,84.2 49.5,93.9 77,84.2 87.5,10.7 V 5.5 Z"
       id="path9168"
       style="fill:url(#a-7)" />
    <path
       fill="#63451a"
       fill-opacity="0.75"
       d="m 76.5,78.7 -27,9.7 -27,-9.7 L 12,6.5 v 4.7 l 10.5,72.7 27,9.6 27,-9.6 L 87,11.2 V 6.5 Z"
       id="path9170" />
  </g>
  <g
     aria-label="麒"
     transform="matrix(1.4578694,0,0,1.4578694,-19.558678,-20.521775)"
     id="text475"
     style="font-size:40px;white-space:pre">
    <path
       d="m 27.553083,36.836418 q 1.72,-0.32 3.32,-0.36 1.6,-0.04 3.2,0 0.24,0 0.48,0 0.2,0.04 0.44,0.04 1.68,0.04 3.44,0.04 1.72,0.04 3.64,-0.24 -0.32,-0.48 -0.92,-0.64 -0.6,-0.16 -0.8,-0.8 1.16,-1.56 2.24,-3.24 1.04,-1.64 2.36,-3.04 0.12,0.12 0.24,0.16 0.08,0 0.2,0 0.16,-0.04 0.24,0 -0.08,-0.52 0.24,-0.6 0.52,0.28 1.04,0.56 0.48,0.24 0.68,0.88 -1.4,0.8 -2.32,2.04 -0.96,1.24 -1.68,2.72 0.08,0.44 0.4,0.6 0.28,0.2 0.4,0.56 0.88,-0.48 1.72,-0.24 0.8,0.28 1.48,0.68 0.2,0.08 0.4,0.16 0.2,0.12 0.36,0.2 -0.08,0.08 -0.08,0.24 -0.04,0.2 -0.04,0.36 0.44,0.08 0.8,0 0.32,-0.08 0.64,-0.2 0.32,-0.12 0.72,-0.24 0.36,-0.08 0.84,-0.04 0,-0.32 0.04,-0.68 0,-0.32 0,-0.64 0.04,-0.84 0.08,-1.72 0,-0.84 -0.2,-1.52 -0.76,0.32 -1.36,0.48 -0.6,0.2 -1.12,0.2 -0.64,0 -1.2,-0.32 -0.56,-0.28 -1.16,-1 0.52,-0.76 1.76,-1.12 1.24,-0.4 2.6,-0.36 1.36,0 2.28,0.48 0.64,0.8 0.64,2.24 0,1.44 -0.12,3.16 -0.04,0.6 -0.08,1.16 -0.04,0.6 -0.04,1.2 0.72,-0.12 1.68,-0.68 0.92,-0.52 2.08,-0.56 0.36,-0.64 0.44,-1.6 0.08,-0.92 0.56,-1.48 -0.12,-0.12 -0.32,-0.08 -0.2,0.08 -0.4,0.2 -0.12,0.04 -0.28,0.08 -0.16,0.08 -0.28,0.12 -0.76,0.08 -1.44,-0.04 -0.72,-0.12 -0.96,-0.8 0.64,-1.2 1.72,-2 1.04,-0.8 1.92,-1.76 1.08,0.2 2.08,0.92 1,0.76 1.88,1.52 -0.2,0.2 -0.44,0.16 -0.24,0 -0.52,-0.08 -0.24,-0.04 -0.48,-0.08 -0.24,0 -0.4,0.16 -0.12,1.24 -0.4,2.8 -0.32,1.6 -0.32,3.08 0,0.96 0.2,1.76 0.2,0.84 0.76,1.32 0.52,-1.04 0.76,-2.4 0.24,-1.32 0.56,-2.52 0.32,-1.2 1.08,-1.88 0.16,-0.12 0.04,-0.24 -0.12,-0.16 -0.04,-0.32 0.68,-0.64 1.08,-1.12 0.4,-0.48 0.8,-0.96 0.36,-0.48 1.04,-1.2 0.28,0.08 0.4,0.04 0.12,0 0.24,-0.04 0.12,-0.04 0.24,-0.04 0.12,-0.04 0.4,0 0.04,0.12 -0.04,0.28 -0.08,0.2 0.08,0.32 -1.12,1.24 -1.64,2.44 -0.52,1.2 -0.84,2.36 -0.36,1.16 -0.92,2.28 -0.08,0.16 -0.36,0.88 -0.32,0.72 -0.4,1.08 -0.72,2.56 -1.04,5.48 -0.32,2.92 -0.24,6.28 0.52,1.2 1.56,2.16 1,1 1.52,1.88 -1.08,0 -2.76,0.16 -1.68,0.2 -3.48,0.44 -1.8,0.24 -3.16,0.48 -0.2,0.56 -0.36,1.36 -0.2,0.8 0,1.28 0.2,0.64 1,1 0.76,0.36 1.56,0.68 0.8,0.36 1.12,0.88 -0.96,0.4 -2.12,0.56 -1.2,0.16 -2.28,-0.12 -1.08,-0.28 -1.64,-1.2 -0.08,-0.68 0.12,-1.44 0.2,-0.76 0.44,-1.48 0.08,-0.28 0.16,-0.56 0.08,-0.28 0.16,-0.52 -0.24,0 -0.44,0 -0.24,0.04 -0.48,0.04 -1.08,0.04 -2.24,0.04 -1.16,0 -2.12,-0.24 -0.8,-0.16 -1.36,-0.6 -0.6,-0.4 -0.84,-1.16 0.68,-0.28 1.48,-0.28 0.8,0 1.6,0.04 0.76,0.04 1.44,0.04 0.68,0 1.24,-0.2 -0.08,-0.28 -0.16,-0.52 -0.12,-0.24 -0.2,-0.44 -0.24,-0.56 -0.36,-1.08 -0.12,-0.52 0.12,-1.32 -0.12,-0.04 -0.56,-0.08 -0.44,0 -0.84,0.16 -0.4,0.16 -0.4,0.68 -1.68,-0.32 -2.92,-1.16 -1.28,-0.8 -2.24,-1.96 0.36,-0.16 1.08,-0.36 0.72,-0.16 1.4,-0.28 0.16,-1.68 0.28,-3.32 0.12,-1.6 0.96,-2.72 0.32,0.04 0.76,-0.04 0.4,-0.04 0.84,-0.12 0.4,-0.08 0.8,-0.16 0.4,-0.04 0.72,-0.04 -0.16,-0.48 -0.12,-1.32 0,-0.84 0.08,-1.68 0,-0.16 0,-0.24 -1.24,0.68 -2,0.48 -0.76,-0.2 -1.48,-0.6 -0.2,-0.08 -0.28,-0.12 -0.64,-0.32 -1.44,-0.52 -0.8,-0.2 -2,0.16 0.4,1.4 0.4,2.88 -0.04,1.48 -0.2,3.12 0,0.08 -0.04,0.28 -0.12,1.52 -0.2,3.16 -0.12,1.68 0.08,3.48 0.52,-0.16 1,-0.08 0.44,0.08 0.88,0.32 0.76,0.44 1.32,1.2 0.56,0.76 0.88,1.28 -0.48,0.4 -1,0.36 -0.52,-0.04 -1.04,-0.24 -0.04,0 -0.12,-0.04 -0.44,-0.16 -0.88,-0.28 -0.44,-0.08 -0.88,0 0,0.2 0,0.4 -0.04,0.2 -0.08,0.4 -0.04,0.6 -0.04,1.2 -0.04,0.64 0.16,1.24 0.16,0.52 0.56,0.88 0.36,0.4 0.72,0.8 0.32,0.4 0.36,0.92 0,0.16 -0.04,0.28 -0.08,0.12 -0.16,0.24 -0.08,0.16 -0.16,0.32 -0.08,0.2 -0.04,0.48 -0.52,-0.28 -1.48,-0.72 -0.96,-0.4 -1.84,-1.12 -0.88,-0.72 -1.16,-1.88 0.36,-0.76 0.44,-1.6 0.04,-0.84 0.04,-1.28 0,-0.04 0,-0.08 -1.4,0.12 -2.6,0.2 -1.2,0.12 -2.64,0.32 0.04,0.52 0.04,1.2 -0.04,0.68 -0.04,1.44 -0.04,0.64 -0.04,1.28 0,0.64 0,1.24 0.28,0.68 0.64,1.24 0.36,0.6 0.44,1.52 -0.44,0.28 -0.76,0 -0.32,-0.28 -0.6,-0.56 -0.08,-0.12 -0.12,-0.16 -1.24,-0.2 -2,-0.96 -0.76,-0.76 -1.68,-1.32 0.16,-0.16 0.12,-0.24 -0.08,-0.08 -0.16,-0.16 -0.04,-0.04 -0.08,-0.04 0.12,-0.56 0.56,-1.64 0.4,-1.08 0.52,-2.28 -0.48,-0.24 -1.24,-0.44 -0.76,-0.2 -1.4,-0.56 -0.68,-0.32 -0.76,-0.92 -0.28,0.12 -0.36,0.04 -0.12,-0.04 -0.2,-0.16 -0.16,-0.16 -0.36,-0.16 -0.12,-0.32 0,-0.44 0.08,-0.08 0.24,-0.16 0.28,-0.08 0.28,-0.28 0.84,0.32 1.88,0.32 1.04,0 1.76,-0.08 0.32,-0.48 0.4,-1.16 0.04,-0.68 0.08,-1.36 0,-0.16 0,-0.32 0,-0.12 0,-0.24 0.04,-0.96 0.04,-2 -0.04,-1 -0.04,-2.04 -0.04,-1.72 -0.04,-3.36 0,-1.64 0.16,-3.04 -0.2,-0.28 -0.76,-0.24 -0.6,0.04 -0.52,0.56 -1.04,-0.16 -2.36,-0.64 -1.32,-0.48 -1.84,-0.92 0.08,-0.2 0.04,-0.32 -0.08,-0.12 -0.2,-0.2 -0.2,-0.2 -0.12,-0.36 z m 8.04,5 q 0.2,0.32 0.24,0.92 0.04,0.6 0.04,1.36 0,0.64 0.04,1.32 0.04,0.72 0.16,1.4 1.44,-0.16 2.6,-0.28 1.12,-0.08 2.72,-0.24 -0.04,-0.36 0,-0.8 0.04,-0.4 0.04,-0.8 0.04,-0.32 0.08,-0.64 0,-0.32 0,-0.56 -0.08,0 -0.28,0.04 -1,0.08 -2.04,0.08 -1.08,0 -1.92,-0.32 -0.88,-0.32 -1.28,-1.2 1.48,-0.16 2.96,-0.32 1.48,-0.12 2.64,-0.36 -0.04,-0.36 0,-0.68 0,-0.28 0,-0.52 0.04,-0.44 0.04,-0.88 -0.04,-0.4 -0.2,-0.84 -1.52,0.08 -2.84,0.12 -1.36,0.04 -2.76,0.12 -0.04,0.28 0,0.6 0,0.32 0,0.64 0.04,0.6 0,1.12 -0.04,0.56 -0.24,0.72 z m -5.12,-11.8 q 0,-0.2 0,-0.4 -0.04,-0.2 -0.04,-0.4 -0.08,-0.8 0,-1.64 0.04,-0.84 0.88,-1.24 1.08,0.52 1.84,1.6 0.76,1.04 1.32,2.28 0.76,1.68 1.36,3.4 0.56,1.76 1.4,2.76 -0.88,-0.08 -1.56,-0.56 -0.72,-0.44 -1.28,-1.04 -0.56,-0.56 -1,-1 -0.2,-0.16 -0.4,-0.36 -0.2,-0.16 -0.4,-0.32 -0.72,-0.6 -1.28,-1.28 -0.6,-0.64 -0.44,-1.68 -0.04,-0.12 -0.32,-0.12 -0.04,0 -0.08,0 z m 5.44,17.24 q 0,0.44 0.04,0.84 0.04,0.44 0.04,0.84 0.08,0.88 0.12,1.72 0,0.84 -0.12,1.6 1.52,-0.04 2.56,-0.16 1.04,-0.12 2.68,-0.36 -0.04,-0.52 0,-1 0,-0.48 0,-0.92 0.04,-0.48 0.04,-0.92 0,-0.4 -0.08,-0.72 -0.92,0.48 -1.88,0.48 -1.04,0 -1.92,-0.44 -0.92,-0.4 -1.48,-0.96 z m 20.96,1.12 q 0.44,-0.2 0.8,-0.16 0.36,0.04 0.68,0.12 0.2,0.04 0.44,0.08 0.2,0.08 0.44,0.04 0.24,-1.24 0.32,-2.24 0.04,-1 0.4,-2.16 -0.52,0.08 -0.88,-0.04 -0.36,-0.08 -0.72,-0.24 -0.28,-0.12 -0.6,-0.24 -0.36,-0.08 -0.8,-0.04 -0.16,0.76 -0.12,1.92 0,1.16 0,2.08 0.04,0.28 0.04,0.48 0,0.24 0,0.4 z m -3.64,-9.64 q -0.08,0.68 -0.12,1.6 -0.04,0.96 0.28,1.48 0.32,-0.04 0.68,-0.04 0.36,0 0.72,0 0.6,0.04 1.16,0 0.52,0 0.96,-0.16 0,0 0,-0.04 0,-0.2 0.08,-0.4 0.04,-0.2 0.44,-0.32 -0.32,-0.4 -0.28,-0.8 0,-0.4 0.04,-0.76 0.08,-0.24 0.08,-0.36 -0.04,0 -0.16,0.04 -1.24,0.32 -2.2,0.4 -1,0.12 -1.68,-0.64 z m -3.68,10.76 q 0.32,-0.04 0.8,-0.08 0.48,-0.04 0.92,-0.24 0.08,-0.36 0.12,-0.8 0,-0.44 0,-0.92 0.04,-0.8 0.12,-1.68 0.04,-0.84 0.36,-1.6 -0.12,0 -0.28,0.04 -0.16,0.04 -0.28,0.04 -0.4,0.08 -0.76,0.12 -0.4,0.04 -0.68,-0.16 -0.04,0.12 -0.04,0.24 -0.04,0.12 -0.08,0.2 -0.28,1.24 -0.4,2.24 -0.12,1.04 0.2,2.6 z m 7.24,1.2 q 0.04,0.92 0.16,1.88 0.08,1 0.52,1.52 0.76,0.08 1.32,-0.08 0.56,-0.16 1.08,-0.36 0.12,-0.04 0.24,-0.12 0.12,-0.04 0.24,-0.08 -0.32,-0.56 -0.88,-0.88 -0.56,-0.32 -0.84,-0.88 0.04,-0.12 0.08,-0.24 0,-0.08 0.04,-0.16 0.04,-0.24 0.08,-0.44 0,-0.16 -0.08,-0.48 -0.36,0 -0.96,0.12 -0.6,0.16 -1,0.2 z m -3.56,-1.52 q 0.84,0 1.56,-0.32 0.04,-1.36 0.12,-2.64 0.08,-1.24 0.32,-2.4 -0.56,0 -1,0.04 -0.48,0.08 -0.8,0.32 0.12,0.92 0.08,1.72 -0.04,0.8 -0.12,1.68 -0.04,0.36 -0.08,0.76 -0.04,0.4 -0.08,0.84 z m -0.24,2.04 q 0,0.28 0,0.56 0,0.32 0,0.6 0,0.68 0.04,1.32 0.04,0.64 0.28,1.04 0.48,0.04 0.88,-0.04 0.4,-0.04 0.8,-0.12 0.2,-0.04 0.44,-0.08 0.24,-0.04 0.48,-0.08 -0.08,-0.12 -0.16,-0.24 -0.08,-0.12 -0.16,-0.24 -0.4,-0.56 -0.64,-1.2 -0.28,-0.64 0,-1.68 -0.44,-0.04 -0.8,0 -0.4,0.04 -0.76,0.12 -0.28,0.04 -0.4,0.04 z m 6,-9.8 q 0.24,0.48 0.52,0.88 0.28,0.44 0.68,0.72 0,-0.32 0.04,-0.68 0.04,-0.32 0.12,-0.6 0.08,-0.36 0.08,-0.48 -0.32,0.08 -0.72,0.08 -0.44,0.04 -0.72,0.08 z"
       style="-inkscape-font-specification:'Yuji Boku'"
       id="path2686" />
  </g>
</svg>
