<svg xmlns="http://www.w3.org/2000/svg" xml:space="preserve" id="svg8" version="1.1" viewBox="0 0 100 100"><defs id="defs66"><linearGradient id="a" x1="20.649" x2="79.116" y1="48.75" y2="48.75" gradientTransform="matrix(1 0 0 -1 0 102)" gradientUnits="userSpaceOnUse"><stop id="stop2" offset="0" stop-color="#f9da9c"/><stop id="stop4-9" offset=".043" stop-color="#fbe0a1"/><stop id="stop6-2" offset=".067" stop-color="#fce6a6"/><stop id="stop8-2" offset=".145" stop-color="#f4d593"/><stop id="stop10-4" offset=".193" stop-color="#f5d797"/><stop id="stop12-7" offset=".243" stop-color="#f7dda4"/><stop id="stop14-7" offset=".263" stop-color="#f9e1ab"/><stop id="stop16-5" offset=".329" stop-color="#f7dfa8"/><stop id="stop18-4" offset=".383" stop-color="#f2d89e"/><stop id="stop20-8" offset=".398" stop-color="#efd599"/><stop id="stop22-1" offset=".461" stop-color="#f2d795"/><stop id="stop24-2" offset=".462" stop-color="#f2d795"/><stop id="stop26-8" offset=".527" stop-color="#f2d795"/><stop id="stop28-9" offset=".538" stop-color="#f2d795"/><stop id="stop30-3" offset=".538" stop-color="#f2d795"/><stop id="stop32-6" offset=".615" stop-color="#efda9c"/><stop id="stop34-8" offset=".735" stop-color="#f6e5ad"/><stop id="stop36-0" offset=".773" stop-color="#f9e9b4"/><stop id="stop38-2" offset=".822" stop-color="#f7e1a6"/><stop id="stop40-1" offset=".887" stop-color="#f5db9b"/><stop id="stop42-0" offset=".956" stop-color="#f4d997"/><stop id="stop44-5" offset=".967" stop-color="#f4da9c"/><stop id="stop46-1" offset="1" stop-color="#f4db9e"/></linearGradient><path id="rect1577" d="M24.413 28.529h75.861v68.28H24.413z"/></defs><style id="style2">.st2{fill:#fff}</style><linearGradient id="SVGID_1_" x1="23.313" x2="76.671" y1="52" y2="52" gradientTransform="matrix(-1 0 0 1 100 -2.03)" gradientUnits="userSpaceOnUse"><stop id="stop4" offset="0" stop-color="#f9da9c"/><stop id="stop6" offset=".043" stop-color="#fbe0a1"/><stop id="stop8" offset=".067" stop-color="#fce6a6"/><stop id="stop10" offset=".145" stop-color="#f4d593"/><stop id="stop12" offset=".193" stop-color="#f5d797"/><stop id="stop14" offset=".243" stop-color="#f7dda4"/><stop id="stop16" offset=".263" stop-color="#f9e1ab"/><stop id="stop18" offset=".329" stop-color="#f7dfa8"/><stop id="stop20" offset=".383" stop-color="#f2d89e"/><stop id="stop22" offset=".398" stop-color="#efd599"/><stop id="stop24" offset=".461" stop-color="#f2d795"/><stop id="stop26" offset=".462" stop-color="#f2d795"/><stop id="stop28" offset=".527" stop-color="#f2d795"/><stop id="stop30" offset=".538" stop-color="#f2d795"/><stop id="stop32" offset=".538" stop-color="#f2d795"/><stop id="stop34" offset=".615" stop-color="#efda9c"/><stop id="stop36" offset=".735" stop-color="#f6e5ad"/><stop id="stop38" offset=".773" stop-color="#f9e9b4"/><stop id="stop40" offset=".822" stop-color="#f7e1a6"/><stop id="stop42" offset=".887" stop-color="#f5db9b"/><stop id="stop44" offset=".956" stop-color="#f4d997"/><stop id="stop46" offset=".967" stop-color="#f4da9c"/><stop id="stop48" offset="1" stop-color="#f4db9e"/></linearGradient><g id="g223" transform="translate(-.008 1.951)"><path id="path49" fill="url(#a)" stroke="#63451a" stroke-miterlimit="10" d="M16.1 12.9v5.7l9.4 66.2L50 93.6l24.5-8.8 9.4-66.2v-5.7z" style="fill:url(#a)"/><path id="path51-1" fill="#63451a" fill-opacity=".75" d="m74 79.1-24 8.8-24-8.8-9.4-65.8v5.2l9.4 66 24 8.6 24-8.7 9.4-65.9v-5.2z"/></g><g id="text1575" aria-label="飛" style="font-size:53.3333px;white-space:pre;fill:#a00" transform="translate(-.457 -10.605)"><path id="path1704" d="M24.607 39.158q.694-1.494 2.187-2.187 1.44-.693 3.147-.853 2.453-.214 5.066.32 2.56.533 4.267 1.226 2.453 1.814 4.107 4.64 1.653 2.88 1.866 6.667.054.587 0 1.173-.053.64-.106 1.227-.054 1.013-.054 2.027-.053 1.013.267 2.026.853.107 1.92.054 1.013 0 1.973-.054.267 0 .534-.053h.533q.213-3.36.213-6.293-.053-2.934-.16-6.134-.053-1.706-.106-3.573-.054-1.867-.054-3.947 0-.16.267-.213.373-.053.32-.373 1.653-.267 2.453.746.8 1.014 1.334 2.134.213.426.426.8.214.373.427.64-.693 1.973-.907 4.32-.266 2.4-.266 4.693-.054 2.347 0 4.267V54.944q1.013.107 2.506-.16 1.494-.213 2.614-.48.053-1.92.48-4.266.373-2.347 1.12-4.694.746-2.346 1.813-4.32 1.067-1.973 2.507-3.146 1.173-.96 2.826-1.28 1.654-.32 3.36.426-.48.907-1.28 1.547-.8.64-1.653 1.28-.907.693-1.547 1.6-1.653 2.293-2.346 5.28-.747 2.987-1.174 6.347.854 0 1.76-.16.854-.107 1.76-.32l1.6-.32q.8-.16 1.547-.16 1.227-.054 2.293.426 1.067.48 1.814 1.92.106.374-.054.534-.213.16-.426.266-.214.107-.32.214-.16.106-.214.32-2.453-.054-5.28.266-2.88.374-4.8 1.227.054 1.013.16 2.133.054 1.174.32 2.027.267.853 1.014.96.266.053.746-.267.427-.32 1.014-.746.48-.374 1.066-.8.534-.374 1.12-.694.907-.48 1.92-.586 1.014-.054 1.974.693-2.72 1.867-4.854 4.267-2.186 2.4-3.893 5.173.053.907.427 1.44.373.533.426 1.387-1.546.48-2.986.16-1.494-.32-2.454-1.28-.96-.907-1.013-2.4 1.067-.907 2.187-1.974l1.866-1.866q-2.4-.747-2.986-2.614-.32-.96-.267-2.186.053-1.174.267-2.614-1.174.16-2.56.267-1.44.107-2.4.213 0 4.107.266 7.947.267 3.893 1.654 7.04 0 .32-.107.48-.107.16-.213.267-.267.32-.32.533 1.6.32 3.04 0 1.386-.32 2.666-.693.32-.107.587-.214l.533-.106q1.387 1.12 2.347 2.4.96 1.28 1.227 2.88-1.174.373-2.4.16-1.227-.16-2.507-.427-.853-.213-1.653-.373-.854-.16-1.707-.16-1.653-.054-3.36.16-1.707.213-3.467.48-1.28.213-2.56.373t-2.56.267q-.213.426-.32.8-.16.426-.48.746-1.653-.426-3.36-.8-1.76-.373-3.306-1.013-1.547-.587-2.507-1.867.48-1.013 1.653-1.76 1.12-.746 2.24-.8 1.067-.906 2.08-1.76.96-.853 1.387-2.24.373-1.333-.107-2.826-.48-1.494-1.493-2.774-1.067-1.333-2.507-2.24-1.493-.906-2.933-.906-1.547 0-2.613 1.066-.16.694.16 1.174t.586.746q.054.107.107.16-.373.32-1.28-.053-.96-.373-1.173-1.067-1.174-.64-2.4-1.226-1.227-.587-2.027-1.547-.107-1.707.907-2.667.96-.96 2.453-1.28 1.813-.426 4-.053 2.133.373 3.36 1.173l-.427-.48q-.48-.48-1.013-1.173-.533-.693-.693-1.333.426-.96 1.226-1.174.8-.213 1.654-.373.8-.16 1.44-1.013 1.013-1.387 1.013-3.307.053-1.813-.587-3.68-.693-1.813-1.386-2.88-1.067-.693-2.4-.96-1.387-.267-2.614.053-1.013.267-1.76.907-.8.64-1.066 1.653-.054.587.053 1.12.053.587.107 1.12.053.16.053.214-1.173-.054-1.867-.587-.746-.48-1.386-1.067-.694-.533-1.707-.746-.587-1.174-1.333-2.4-.8-1.227-.854-2.72zM40.021 58.73q1.973 1.547 3.626 3.787 1.6 2.293 2.454 5.066.533 1.76.693 3.68.107 1.974-.32 3.947 2.453.267 4.693.053 2.24-.213 4.214-.96-1.654-.533-3.094-1.333-1.44-.747-2.293-1.813-.853-1.014-.747-2.454.054-.853.587-1.706.533-.854.64-1.92.16-1.28.107-2.88-.054-1.6-.107-2.72v-.534q-.053-.213-.053-.373-1.494-.373-2.72.053-1.227.427-1.867 1.174-1.12.266-2.453-.054-1.387-.266-2.347-.64l-1.013-.373zm-8.267 13.973q-.267-1.013.32-1.546.587-.48 1.653-.747 1.654-.427 3.734-.427 2.026.054 3.413.16h.16q-1.067 1.227-2.347 2.187-1.28 1.013-2.133 2.4-.96.16-1.973-.107-1.067-.266-1.867-.8-.8-.48-.96-1.12zm-.533-21.653q.906-1.013 2.613-1.387 1.653-.373 3.36-.746.16.053.373.16l.32.213q.374.267.8.48.427.213 1.014.053.053.48-.32.8-.374.32-.907.587-.107.107-.267.213l-.32.214q-.426.32-.693.746-.32.427-.16 1.067-1.173.8-2.4.587-1.28-.16-2.24-.96-.96-.8-1.173-2.027zm3.946 13.44q2.134-.107 3.734 1.28 1.546 1.387 2.133 3.2l-.373.32q-1.494.267-3.04-.32-1.6-.587-2.4-1.653-.48-.64-.48-1.44-.054-.747.426-1.387zm-.48-18.453q-.64-.854-.533-1.814.107-.906 1.493-1.6.107.107.427.32 1.28 1.12 2.453 2.4 1.12 1.334.907 3.147-1.28 0-2.667-.747-1.386-.693-2.08-1.706z" style="-inkscape-font-specification:&quot;Yuji Boku&quot;;fill:#a00"/></g></svg>