<?xml version="1.0" encoding="UTF-8" standalone="no"?>
<svg
   viewBox="0 0 100 100"
   version="1.1"
   id="svg59"
   sodipodi:docname="1_ROOK.svg"
   inkscape:version="1.2.1 (9c6d41e410, 2022-07-14, custom)"
   xmlns:inkscape="http://www.inkscape.org/namespaces/inkscape"
   xmlns:sodipodi="http://sodipodi.sourceforge.net/DTD/sodipodi-0.dtd"
   xmlns="http://www.w3.org/2000/svg"
   xmlns:svg="http://www.w3.org/2000/svg">
  <defs
     id="defs63">
    <rect
       x="27.957776"
       y="23.506444"
       width="41.300701"
       height="49.691509"
       id="rect477" />
    <linearGradient
       id="a-7"
       gradientUnits="userSpaceOnUse"
       x1="16.913"
       y1="-845.70001"
       x2="82.089996"
       y2="-845.70001"
       gradientTransform="matrix(1,0,0,-1,0,-796)">
      <stop
         offset="0"
         stop-color="#f9da9c"
         id="stop9121" />
      <stop
         offset=".043"
         stop-color="#fbe0a1"
         id="stop9123" />
      <stop
         offset=".067"
         stop-color="#fce6a6"
         id="stop9125" />
      <stop
         offset=".145"
         stop-color="#f4d593"
         id="stop9127" />
      <stop
         offset=".193"
         stop-color="#f5d797"
         id="stop9129" />
      <stop
         offset=".243"
         stop-color="#f7dda4"
         id="stop9131" />
      <stop
         offset=".263"
         stop-color="#f9e1ab"
         id="stop9133" />
      <stop
         offset=".329"
         stop-color="#f7dfa8"
         id="stop9135" />
      <stop
         offset=".383"
         stop-color="#f2d89e"
         id="stop9137" />
      <stop
         offset=".398"
         stop-color="#efd599"
         id="stop9139" />
      <stop
         offset=".461"
         stop-color="#f2d795"
         id="stop9141" />
      <stop
         offset=".462"
         stop-color="#f2d795"
         id="stop9143" />
      <stop
         offset=".527"
         stop-color="#f2d795"
         id="stop9145" />
      <stop
         offset=".538"
         stop-color="#f2d795"
         id="stop9147" />
      <stop
         offset=".538"
         stop-color="#f2d795"
         id="stop9149" />
      <stop
         offset=".615"
         stop-color="#efda9c"
         id="stop9151" />
      <stop
         offset=".735"
         stop-color="#f6e5ad"
         id="stop9153" />
      <stop
         offset=".773"
         stop-color="#f9e9b4"
         id="stop9155" />
      <stop
         offset=".822"
         stop-color="#f7e1a6"
         id="stop9157" />
      <stop
         offset=".887"
         stop-color="#f5db9b"
         id="stop9159" />
      <stop
         offset=".956"
         stop-color="#f4d997"
         id="stop9161" />
      <stop
         offset=".967"
         stop-color="#f4da9c"
         id="stop9163" />
      <stop
         offset="1"
         stop-color="#f4db9e"
         id="stop9165" />
    </linearGradient>
  </defs>
  <sodipodi:namedview
     id="namedview61"
     pagecolor="#ffffff"
     bordercolor="#666666"
     borderopacity="1.0"
     inkscape:showpageshadow="2"
     inkscape:pageopacity="0.0"
     inkscape:pagecheckerboard="0"
     inkscape:deskcolor="#d1d1d1"
     showgrid="false"
     inkscape:zoom="3.9226045"
     inkscape:cx="58.634512"
     inkscape:cy="52.771061"
     inkscape:window-width="1366"
     inkscape:window-height="711"
     inkscape:window-x="0"
     inkscape:window-y="0"
     inkscape:window-maximized="1"
     inkscape:current-layer="svg59" />
  <linearGradient
     id="a"
     gradientUnits="userSpaceOnUse"
     x1="19.181"
     y1="52"
     x2="80.829"
     y2="52"
     gradientTransform="matrix(-1,0,0,1,100,-2.0280308)">
    <stop
       offset="0"
       stop-color="#f9da9c"
       id="stop2" />
    <stop
       offset=".043"
       stop-color="#fbe0a1"
       id="stop4" />
    <stop
       offset=".067"
       stop-color="#fce6a6"
       id="stop6" />
    <stop
       offset=".145"
       stop-color="#f4d593"
       id="stop8" />
    <stop
       offset=".193"
       stop-color="#f5d797"
       id="stop10" />
    <stop
       offset=".243"
       stop-color="#f7dda4"
       id="stop12" />
    <stop
       offset=".263"
       stop-color="#f9e1ab"
       id="stop14" />
    <stop
       offset=".329"
       stop-color="#f7dfa8"
       id="stop16" />
    <stop
       offset=".383"
       stop-color="#f2d89e"
       id="stop18" />
    <stop
       offset=".398"
       stop-color="#efd599"
       id="stop20" />
    <stop
       offset=".461"
       stop-color="#f2d795"
       id="stop22" />
    <stop
       offset=".462"
       stop-color="#f2d795"
       id="stop24" />
    <stop
       offset=".527"
       stop-color="#f2d795"
       id="stop26" />
    <stop
       offset=".538"
       stop-color="#f2d795"
       id="stop28" />
    <stop
       offset=".538"
       stop-color="#f2d795"
       id="stop30" />
    <stop
       offset=".615"
       stop-color="#efda9c"
       id="stop32" />
    <stop
       offset=".735"
       stop-color="#f6e5ad"
       id="stop34" />
    <stop
       offset=".773"
       stop-color="#f9e9b4"
       id="stop36" />
    <stop
       offset=".822"
       stop-color="#f7e1a6"
       id="stop38" />
    <stop
       offset=".887"
       stop-color="#f5db9b"
       id="stop40" />
    <stop
       offset=".956"
       stop-color="#f4d997"
       id="stop42" />
    <stop
       offset=".967"
       stop-color="#f4da9c"
       id="stop44" />
    <stop
       offset="1"
       stop-color="#f4db9e"
       id="stop46" />
  </linearGradient>
  <g
     id="g9723"
     transform="translate(1.2649212,3.0990694)">
    <path
       fill="url(#a)"
       stroke="#63451a"
       stroke-width="1.01"
       stroke-miterlimit="10"
       d="m 11.5,5.5 v 5.2 L 22,84.2 49.5,93.9 77,84.2 87.5,10.7 V 5.5 Z"
       id="path9168"
       style="fill:url(#a-7)" />
    <path
       fill="#63451a"
       fill-opacity="0.75"
       d="m 76.5,78.7 -27,9.7 -27,-9.7 L 12,6.5 v 4.7 l 10.5,72.7 27,9.6 27,-9.6 L 87,11.2 V 6.5 Z"
       id="path9170" />
  </g>
  <g
     aria-label="飛"
     transform="matrix(1.4578694,0,0,1.4578694,-18.802811,-19.931746)"
     id="text475"
     style="font-size:40px;white-space:pre">
    <path
       d="m 28.273083,30.396418 q 0.52,-1.12 1.64,-1.64 1.08,-0.52 2.36,-0.64 1.84,-0.16 3.8,0.24 1.92,0.4 3.2,0.92 1.84,1.36 3.08,3.48 1.24,2.16 1.4,5 0.04,0.44 0,0.88 -0.04,0.48 -0.08,0.92 -0.04,0.76 -0.04,1.52 -0.04,0.76 0.2,1.52 0.64,0.08 1.44,0.04 0.76,0 1.48,-0.04 0.2,0 0.4,-0.04 0.2,0 0.4,0 0.16,-2.52 0.16,-4.72 -0.04,-2.2 -0.12,-4.6 -0.04,-1.28 -0.08,-2.68 -0.04,-1.4 -0.04,-2.96 0,-0.12 0.2,-0.16 0.28,-0.04 0.24,-0.28 1.24,-0.2 1.84,0.56 0.6,0.76 1,1.6 0.16,0.32 0.32,0.6 0.16,0.28 0.32,0.48 -0.52,1.48 -0.68,3.24 -0.2,1.8 -0.2,3.52 -0.04,1.76 0,3.2 0,0.56 0,1 0,0.48 0,0.88 0.76,0.08 1.88,-0.12 1.12,-0.16 1.96,-0.36 0.04,-1.44 0.36,-3.2 0.28,-1.76 0.84,-3.52 0.56,-1.76 1.36,-3.24 0.8,-1.48 1.88,-2.36 0.88,-0.72 2.12,-0.96 1.24,-0.24 2.52,0.32 -0.36,0.68 -0.96,1.16 -0.6,0.48 -1.24,0.96 -0.68,0.52 -1.16,1.2 -1.24,1.72 -1.76,3.96 -0.56,2.24 -0.88,4.76 0.64,0 1.32,-0.12 0.64,-0.08 1.32,-0.24 0.6,-0.12 1.2,-0.24 0.6,-0.12 1.16,-0.12 0.92,-0.04 1.72,0.32 0.8,0.36 1.36,1.44 0.08,0.28 -0.04,0.4 -0.16,0.12 -0.32,0.2 -0.16,0.08 -0.24,0.16 -0.12,0.08 -0.16,0.24 -1.84,-0.04 -3.96,0.2 -2.16,0.28 -3.6,0.92 0.04,0.76 0.12,1.6 0.04,0.88 0.24,1.52 0.2,0.64 0.76,0.72 0.2,0.04 0.56,-0.2 0.32,-0.24 0.76,-0.56 0.36,-0.28 0.8,-0.6 0.4,-0.28 0.84,-0.52 0.68,-0.36 1.44,-0.44 0.76,-0.04 1.48,0.52 -2.04,1.4 -3.64,3.2 -1.64,1.8 -2.92,3.88 0.04,0.68 0.32,1.08 0.28,0.4 0.32,1.04 -1.16,0.36 -2.24,0.12 -1.12,-0.24 -1.84,-0.96 -0.72,-0.68 -0.76,-1.8 0.8,-0.68 1.64,-1.48 0.8,-0.8 1.4,-1.4 -1.8,-0.56 -2.24,-1.96 -0.24,-0.72 -0.2,-1.64 0.04,-0.88 0.2,-1.96 -0.88,0.12 -1.92,0.2 -1.08,0.08 -1.8,0.16 0,3.08 0.2,5.96 0.2,2.92 1.24,5.28 0,0.24 -0.08,0.36 -0.08,0.12 -0.16,0.2 -0.2,0.24 -0.24,0.4 1.2,0.24 2.28,0 1.04,-0.24 2,-0.52 0.24,-0.08 0.44,-0.16 0.2,-0.04 0.4,-0.08 1.04,0.84 1.76,1.8 0.72,0.96 0.92,2.16 -0.88,0.28 -1.8,0.12 -0.92,-0.12 -1.88,-0.32 -0.64,-0.16 -1.24,-0.28 -0.64,-0.12 -1.28,-0.12 -1.24,-0.04 -2.52,0.12 -1.28,0.16 -2.6,0.36 -0.96,0.16 -1.92,0.28 -0.96,0.12 -1.92,0.2 -0.16,0.32 -0.24,0.6 -0.12,0.32 -0.36,0.56 -1.24,-0.32 -2.52,-0.6 -1.32,-0.28 -2.48,-0.76 -1.16,-0.44 -1.88,-1.4 0.36,-0.76 1.24,-1.32 0.84,-0.56 1.68,-0.6 0.8,-0.68 1.56,-1.32 0.72,-0.64 1.04,-1.68 0.28,-1 -0.08,-2.12 -0.36,-1.12 -1.12,-2.08 -0.8,-1 -1.88,-1.68 -1.12,-0.68 -2.2,-0.68 -1.16,0 -1.96,0.8 -0.12,0.52 0.12,0.88 0.24,0.36 0.44,0.56 0.04,0.08 0.08,0.12 -0.28,0.24 -0.96,-0.04 -0.72,-0.28 -0.88,-0.8 -0.88,-0.48 -1.8,-0.92 -0.92,-0.44 -1.52,-1.16 -0.08,-1.28 0.68,-2 0.72,-0.72 1.84,-0.96 1.36,-0.32 3,-0.04 1.6,0.28 2.52,0.88 0,0 -0.32,-0.36 -0.36,-0.36 -0.76,-0.88 -0.4,-0.52 -0.52,-1 0.32,-0.72 0.92,-0.88 0.6,-0.16 1.24,-0.28 0.6,-0.12 1.08,-0.76 0.76,-1.04 0.76,-2.48 0.04,-1.36 -0.44,-2.76 -0.52,-1.36 -1.04,-2.16 -0.8,-0.52 -1.8,-0.72 -1.04,-0.2 -1.96,0.04 -0.76,0.2 -1.32,0.68 -0.6,0.48 -0.8,1.24 -0.04,0.44 0.04,0.84 0.04,0.44 0.08,0.84 0.04,0.12 0.04,0.16 -0.88,-0.04 -1.4,-0.44 -0.56,-0.36 -1.04,-0.8 -0.52,-0.4 -1.28,-0.56 -0.44,-0.88 -1,-1.8 -0.6,-0.92 -0.64,-2.04 z m 11.56,14.68 q 1.48,1.16 2.72,2.84 1.2,1.72 1.84,3.8 0.4,1.32 0.52,2.76 0.08,1.48 -0.24,2.96 1.84,0.2 3.52,0.04 1.68,-0.16 3.16,-0.72 -1.24,-0.4 -2.32,-1 -1.08,-0.56 -1.72,-1.36 -0.64,-0.76 -0.56,-1.84 0.04,-0.64 0.44,-1.28 0.4,-0.64 0.48,-1.44 0.12,-0.96 0.08,-2.16 -0.04,-1.2 -0.08,-2.04 0,-0.2 0,-0.4 -0.04,-0.16 -0.04,-0.28 -1.12,-0.28 -2.04,0.04 -0.92,0.32 -1.4,0.88 -0.84,0.2 -1.84,-0.04 -1.04,-0.2 -1.76,-0.48 -0.76,-0.28 -0.76,-0.28 z m -6.2,10.48 q -0.2,-0.76 0.24,-1.16 0.44,-0.36 1.24,-0.56 1.24,-0.32 2.8,-0.32 1.52,0.04 2.56,0.12 0.08,0 0.12,0 -0.8,0.92 -1.76,1.64 -0.96,0.76 -1.6,1.8 -0.72,0.12 -1.48,-0.08 -0.8,-0.2 -1.4,-0.6 -0.6,-0.36 -0.72,-0.84 z m -0.4,-16.24 q 0.68,-0.76 1.96,-1.04 1.24,-0.28 2.52,-0.56 0.12,0.04 0.28,0.12 0.12,0.08 0.24,0.16 0.28,0.2 0.6,0.36 0.32,0.16 0.76,0.04 0.04,0.36 -0.24,0.6 -0.28,0.24 -0.68,0.44 -0.08,0.08 -0.2,0.16 -0.12,0.08 -0.24,0.16 -0.32,0.24 -0.52,0.56 -0.24,0.32 -0.12,0.8 -0.88,0.6 -1.8,0.44 -0.96,-0.12 -1.68,-0.72 -0.72,-0.6 -0.88,-1.52 z m 2.96,10.08 q 1.6,-0.08 2.8,0.96 1.16,1.04 1.6,2.4 l -0.28,0.24 q -1.12,0.2 -2.28,-0.24 -1.2,-0.44 -1.8,-1.24 -0.36,-0.48 -0.36,-1.08 -0.04,-0.56 0.32,-1.04 z m -0.36,-13.84 q -0.48,-0.64 -0.4,-1.36 0.08,-0.68 1.12,-1.2 0.08,0.08 0.32,0.24 0.96,0.84 1.84,1.8 0.84,1 0.68,2.36 -0.96,0 -2,-0.56 -1.04,-0.52 -1.56,-1.28 z"
       style="-inkscape-font-specification:'Yuji Boku'"
       id="path2083" />
  </g>
</svg>
