<?xml version="1.0" encoding="UTF-8" standalone="no"?>
<svg
   version="1.1"
   id="svg8"
   viewBox="0 0 100 100"
   xml:space="preserve"
   sodipodi:docname="1_SIDEMOVER.svg"
   inkscape:version="1.2.1 (9c6d41e410, 2022-07-14, custom)"
   xmlns:inkscape="http://www.inkscape.org/namespaces/inkscape"
   xmlns:sodipodi="http://sodipodi.sourceforge.net/DTD/sodipodi-0.dtd"
   xmlns="http://www.w3.org/2000/svg"
   xmlns:svg="http://www.w3.org/2000/svg"><defs
     id="defs66"><linearGradient
       id="a"
       gradientUnits="userSpaceOnUse"
       x1="20.649"
       y1="48.75"
       x2="79.115997"
       y2="48.75"
       gradientTransform="matrix(1,0,0,-1,0,102)"><stop
         offset="0"
         stop-color="#f9da9c"
         id="stop2" /><stop
         offset=".043"
         stop-color="#fbe0a1"
         id="stop4-0" /><stop
         offset=".067"
         stop-color="#fce6a6"
         id="stop6-0" /><stop
         offset=".145"
         stop-color="#f4d593"
         id="stop8-4" /><stop
         offset=".193"
         stop-color="#f5d797"
         id="stop10-6" /><stop
         offset=".243"
         stop-color="#f7dda4"
         id="stop12-2" /><stop
         offset=".263"
         stop-color="#f9e1ab"
         id="stop14-6" /><stop
         offset=".329"
         stop-color="#f7dfa8"
         id="stop16-7" /><stop
         offset=".383"
         stop-color="#f2d89e"
         id="stop18-5" /><stop
         offset=".398"
         stop-color="#efd599"
         id="stop20-6" /><stop
         offset=".461"
         stop-color="#f2d795"
         id="stop22-9" /><stop
         offset=".462"
         stop-color="#f2d795"
         id="stop24-8" /><stop
         offset=".527"
         stop-color="#f2d795"
         id="stop26-7" /><stop
         offset=".538"
         stop-color="#f2d795"
         id="stop28-2" /><stop
         offset=".538"
         stop-color="#f2d795"
         id="stop30-8" /><stop
         offset=".615"
         stop-color="#efda9c"
         id="stop32-2" /><stop
         offset=".735"
         stop-color="#f6e5ad"
         id="stop34-9" /><stop
         offset=".773"
         stop-color="#f9e9b4"
         id="stop36-9" /><stop
         offset=".822"
         stop-color="#f7e1a6"
         id="stop38-6" /><stop
         offset=".887"
         stop-color="#f5db9b"
         id="stop40-0" /><stop
         offset=".956"
         stop-color="#f4d997"
         id="stop42-2" /><stop
         offset=".967"
         stop-color="#f4da9c"
         id="stop44-7" /><stop
         offset="1"
         stop-color="#f4db9e"
         id="stop46-6" /></linearGradient></defs><sodipodi:namedview
     id="namedview64"
     pagecolor="#ffffff"
     bordercolor="#666666"
     borderopacity="1.0"
     inkscape:showpageshadow="2"
     inkscape:pageopacity="0.0"
     inkscape:pagecheckerboard="0"
     inkscape:deskcolor="#d1d1d1"
     showgrid="false"
     inkscape:zoom="0.84964144"
     inkscape:cx="138.88211"
     inkscape:cy="211.85407"
     inkscape:window-width="1366"
     inkscape:window-height="711"
     inkscape:window-x="0"
     inkscape:window-y="0"
     inkscape:window-maximized="1"
     inkscape:current-layer="svg8" /><style
     id="style2">.st2{fill:#fff}</style><linearGradient
     id="SVGID_1_"
     gradientUnits="userSpaceOnUse"
     x1="23.313"
     y1="52"
     x2="76.671"
     y2="52"
     gradientTransform="matrix(-1,0,0,1,100,-2.0294749)"><stop
       offset="0"
       stop-color="#f9da9c"
       id="stop4" /><stop
       offset=".043"
       stop-color="#fbe0a1"
       id="stop6" /><stop
       offset=".067"
       stop-color="#fce6a6"
       id="stop8" /><stop
       offset=".145"
       stop-color="#f4d593"
       id="stop10" /><stop
       offset=".193"
       stop-color="#f5d797"
       id="stop12" /><stop
       offset=".243"
       stop-color="#f7dda4"
       id="stop14" /><stop
       offset=".263"
       stop-color="#f9e1ab"
       id="stop16" /><stop
       offset=".329"
       stop-color="#f7dfa8"
       id="stop18" /><stop
       offset=".383"
       stop-color="#f2d89e"
       id="stop20" /><stop
       offset=".398"
       stop-color="#efd599"
       id="stop22" /><stop
       offset=".461"
       stop-color="#f2d795"
       id="stop24" /><stop
       offset=".462"
       stop-color="#f2d795"
       id="stop26" /><stop
       offset=".527"
       stop-color="#f2d795"
       id="stop28" /><stop
       offset=".538"
       stop-color="#f2d795"
       id="stop30" /><stop
       offset=".538"
       stop-color="#f2d795"
       id="stop32" /><stop
       offset=".615"
       stop-color="#efda9c"
       id="stop34" /><stop
       offset=".735"
       stop-color="#f6e5ad"
       id="stop36" /><stop
       offset=".773"
       stop-color="#f9e9b4"
       id="stop38" /><stop
       offset=".822"
       stop-color="#f7e1a6"
       id="stop40" /><stop
       offset=".887"
       stop-color="#f5db9b"
       id="stop42" /><stop
       offset=".956"
       stop-color="#f4d997"
       id="stop44" /><stop
       offset=".967"
       stop-color="#f4da9c"
       id="stop46" /><stop
       offset="1"
       stop-color="#f4db9e"
       id="stop48" /></linearGradient><g
     id="g223"
     transform="translate(0.00168386,2.5362124)"><path
       fill="url(#a)"
       stroke="#63451a"
       stroke-miterlimit="10"
       d="m 16.1,12.9 v 5.7 l 9.4,66.2 24.5,8.8 24.5,-8.8 9.4,-66.2 v -5.7 z"
       id="path49"
       style="fill:url(#a)" /><path
       fill="#63451a"
       fill-opacity="0.75"
       d="M 74,79.1 50,87.9 26,79.1 16.6,13.3 v 5.2 l 9.4,66 24,8.6 24,-8.7 9.4,-65.9 v -5.2 z"
       id="path51-1" /></g><g
     aria-label=" цик"
     id="text280"
     style="font-size:52.8953px;stroke-width:1.32238"><path
       d="m 24.198716,55.404525 q 0,-0.158686 0.105791,-0.423162 0.05289,-0.105791 0.10579,-0.264477 0,-0.158686 -0.0529,-0.370267 1.639754,-0.10579 3.332404,-0.05289 1.639754,0.05289 3.332404,0.105791 2.433184,0.10579 4.866368,0.10579 2.433184,0.05289 4.866368,-0.370267 -0.105791,-0.476058 -0.264477,-0.89922 -0.211581,-0.370267 -0.264476,-0.846325 -0.423163,-0.10579 -0.846325,-0.10579 -0.476058,0.05289 -1.005011,0.05289 -0.423162,0.05289 -0.89922,0.05289 -0.476058,0.05289 -1.005011,0 -0.264476,0.581848 -0.634744,0.687639 -0.423162,0.105791 -0.846324,0.0529 -0.264477,0 -0.528953,0 -0.264477,0.0529 -0.528953,0.158686 -1.586859,-0.476057 -3.067928,-0.846325 -1.533964,-0.370267 -2.644765,-1.057906 -1.110801,-0.687639 -1.481068,-2.115812 1.692649,-0.158686 2.538974,-1.163696 0.846325,-1.005011 1.216592,-2.48608 0.317372,-1.481068 0.528953,-3.120822 0.158686,-1.639755 0.528953,-3.173718 0.370267,-1.481069 1.322383,-2.538975 0.317371,-0.158686 0.317371,0.211581 0,0.317372 0.211582,0.317372 0.264476,-0.370267 1.00501,-0.370267 0.740535,0.05289 1.428173,0.105791 0.317372,0.05289 0.581849,0.05289 0.264476,0.05289 0.423162,0.05289 -1.904231,-1.163696 -3.914252,-2.909241 -2.062917,-1.69265 -3.438195,-3.861357 -1.375278,-2.168708 -1.216592,-4.813473 0.317372,0.211581 0.528953,0.158686 0.211582,-0.105791 0.423163,-0.264477 0.10579,-0.10579 0.264476,-0.158685 0.105791,-0.105791 0.317372,-0.105791 1.110801,0 1.957126,0.79343 0.846325,0.793429 1.533964,1.79844 0.634744,1.005011 1.322383,1.639754 0.370267,1.639754 1.163696,2.856346 0.79343,1.269488 1.586859,2.433184 0.79343,1.163697 1.322383,2.433184 0.846325,0 1.904231,-0.10579 1.057906,-0.0529 2.168707,-0.211582 0.581848,-0.0529 1.163697,-0.10579 0.528953,-0.0529 1.057906,-0.105791 -0.158686,-0.581848 -0.528953,-0.89922 -0.423163,-0.317372 -0.476058,-1.057906 0.952115,-0.634744 1.745545,-1.586859 0.740534,-0.952115 1.481068,-1.957126 0.846325,-1.163697 1.798441,-2.221603 0.89922,-1.057906 2.115812,-1.69265 1.216592,-0.634743 2.909241,-0.423162 -0.05289,0.211581 0.0529,0.317372 0.10579,0.10579 0.211581,0.211581 0.264476,0.158686 0.264476,0.370267 -1.533963,1.533964 -3.067927,2.962137 -1.586859,1.428173 -2.750556,3.332404 0.317372,0.423163 0.89922,0.581848 0.528953,0.211582 0.846325,0.634744 -0.158686,0.476058 -0.476058,0.79343 -0.370267,0.370267 -1.057906,0.264476 0.687639,0.211581 1.322383,0.740534 0.634744,0.581849 1.216592,1.216592 0.05289,0.740534 0.05289,1.428173 0,0.740535 0,1.428174 0,2.750555 0.317372,5.077949 0.317372,2.327393 2.168707,3.59688 -0.158686,0.05289 -0.10579,0.211581 0,0.158686 0.10579,0.158686 -1.481068,0.89922 -3.226613,1.163697 -1.79844,0.264476 -3.596881,0.423162 -1.79844,0.158686 -3.385299,0.687639 0.05289,0.158686 0.264477,0.476058 0.10579,0.158686 0.211581,0.423162 0.10579,0.264477 0.05289,0.687639 2.327393,-0.10579 4.020043,-0.528953 1.639754,-0.423162 3.49109,-1.216592 1.481068,0.317372 2.856346,1.057906 1.322383,0.740534 2.062917,2.115812 -0.105791,0 -0.105791,0.105791 0,0.105791 -0.05289,0.211581 -0.952115,-0.0529 -1.957126,0.05289 -1.057906,0.158686 -2.168707,0.370268 -1.005011,0.158685 -2.062917,0.264476 -1.057906,0.158686 -2.168708,0.211581 v 4.178729 q 1.745545,-0.423162 2.856347,0.264477 1.057906,0.687639 2.168707,1.745545 0.158686,0.158685 0.264477,0.264476 0.158686,0.264477 0.0529,0.423163 -0.105791,0.211581 -0.211581,0.370267 -0.105791,0.10579 -0.105791,0.158686 0,0.10579 0.264477,0.10579 -0.423163,0.264477 -1.057906,0.264477 -0.634744,0 -1.375278,-0.0529 -0.687639,0 -1.322383,-0.05289 -0.687639,0 -1.216592,0.211581 -0.10579,1.163697 0.423163,1.904231 0.476057,0.79343 1.057906,1.481069 0.528953,0.581848 1.00501,1.216591 0.423163,0.634744 0.423163,1.533964 -2.962137,0.370267 -4.707682,-1.057906 -1.79844,-1.428173 -1.586859,-4.39031 -1.533964,-0.317372 -3.649776,-0.10579 -2.115812,0.211581 -3.861357,0.634743 -0.317372,2.221603 0.264477,3.543985 0.528953,1.375278 1.216592,2.538975 0.211581,0.317372 0.423162,0.634744 0.158686,0.317371 0.317372,0.687638 -1.216592,0.158686 -2.59187,-0.264476 -1.375278,-0.423162 -2.433184,-1.375278 -1.110801,-0.89922 -1.481068,-2.221603 -0.370268,-1.322382 0.370267,-2.856346 -1.110802,-0.264476 -2.327394,-0.634744 -1.269487,-0.370267 -2.274498,-1.057906 -1.00501,-0.687638 -1.375277,-1.957126 0.634743,-0.317372 1.851335,-0.317372 1.216592,0 2.486079,0 1.216592,0 1.957127,-0.370267 0.370267,-1.163696 0.89922,-2.486079 0.476057,-1.322382 0.476057,-2.115812 -0.10579,-0.211581 -0.370267,-0.211581 -0.264476,0 -0.581848,0.05289 -0.211581,0 -0.370267,0 -0.211581,0.05289 -0.370267,0 -1.322383,0.79343 -2.697661,0.687639 -1.428173,-0.10579 -2.750555,-0.687639 -1.375278,-0.528953 -2.538975,-1.163696 -0.423162,-0.211582 -0.793429,-0.423163 -0.423163,-0.158686 -0.79343,-0.317372 z m 28.669254,2.962137 q 0.423162,-0.846325 1.322382,-1.216592 0.89922,-0.370267 1.904231,-0.581848 1.005011,-0.211581 1.904231,-0.634744 0.317372,-0.846324 0.264476,-1.904231 -0.05289,-1.00501 -0.211581,-1.957126 -0.05289,-0.370267 -0.05289,-0.528953 -0.264477,-0.317372 -0.581848,-0.634743 -0.370267,-0.317372 -0.687639,-0.634744 -1.163697,-1.163697 -2.221603,-2.486079 -1.057906,-1.269487 -0.793429,-2.909242 1.057906,-0.10579 1.957126,0.370267 0.89922,0.528953 1.745545,1.110802 0.317371,0.211581 0.634743,0.423162 0.317372,0.211581 0.634744,0.370267 0.158686,-1.428173 0.158686,-2.69766 -0.0529,-1.269487 -0.105791,-2.59187 0,-0.211581 0,-0.423162 -0.05289,-0.211582 -0.05289,-0.423163 -0.05289,-0.89922 -0.158686,-1.851335 -0.105791,-0.89922 -0.211581,-1.851336 -0.211581,-2.010021 -0.317372,-4.020043 -0.158686,-2.010021 0.158686,-3.755566 0.264476,-1.798441 1.375278,-3.120823 0.528953,0.105791 0.846325,0.211581 0.264476,0.05289 1.00501,0.158686 1.322383,1.586859 2.803451,2.803451 1.481069,1.163697 2.750556,2.486079 1.269487,1.375278 2.115812,3.49109 -2.909242,-1.851335 -6.823494,-2.486079 -0.211581,-0.0529 -0.264476,0.264476 -0.0529,0.264477 -0.211582,0.264477 0,1.745545 0,3.120823 0,1.375278 -0.05289,2.538974 0,1.957126 0,3.808462 0,1.851336 0.05289,4.601891 2.59187,-1.957126 4.813473,-4.601891 2.221603,-2.644765 3.702671,-4.707682 1.428173,-0.476058 2.168707,-1.269487 0.687639,-0.740534 1.428173,-1.375278 0.687639,0 1.269488,0.158686 0.581848,0.158686 1.110801,0.370267 0.105791,0.211581 0.105791,0.370267 0,0.158686 -0.0529,0.317372 -0.05289,0.264477 0.105791,0.528953 -2.538975,1.375278 -4.072938,3.279509 -1.533964,1.904231 -3.438195,3.914252 0,0.370267 0.317372,0.158686 -0.952115,1.481068 -2.168707,3.015032 -1.269488,1.533964 -2.433184,3.173718 -1.163697,1.69265 -1.851336,3.649776 0.846325,0.264477 2.115812,0 1.216592,-0.264476 2.168708,-0.687639 1.00501,-0.423162 1.692649,-0.264476 0.634744,0.211581 1.375278,0.634743 0.211581,0.105791 0.476058,0.264477 0.264476,0.158686 0.528953,0.264476 0.264476,0.846325 1.110801,1.798441 0.846325,1.00501 0.952116,2.380288 -0.0529,0.158686 -0.105791,0.105791 -0.105791,0 -0.105791,-0.105791 -0.211581,-0.211581 -0.317371,-0.158686 -0.158686,0.105791 -0.317372,0.211581 -0.105791,0.158686 -0.264477,0.264477 -0.158686,0.105791 -0.423162,0.05289 -1.005011,-0.528953 -2.59187,-0.846325 -1.639754,-0.317371 -3.438195,-0.264476 -1.851335,0.105791 -3.385299,0.740534 -0.211581,-0.05289 -0.264476,0.264477 -0.0529,0.264476 -0.211582,0.264476 0.211582,1.639755 0.317372,3.332404 0.0529,1.69265 0.528953,3.015032 0.370267,1.057906 1.110802,1.851336 0.740534,0.846325 1.375277,1.745545 0.581849,0.89922 0.740535,2.168707 -0.476058,-0.05289 -0.423163,-0.10579 0,0 0.105791,0.476057 -0.528953,-0.10579 -1.110802,-0.10579 -0.581848,0 -1.110801,0.264476 -0.05289,-0.05289 -0.211581,-0.10579 -1.481069,-0.740535 -2.962137,-1.69265 -1.481068,-0.89922 -2.274498,-2.274498 -0.793429,-1.375278 -0.211581,-3.49109 0.05289,-0.211581 -0.158686,-0.317372 -0.158686,-0.10579 -0.158686,-0.211581 0.264477,-0.423162 0.264477,-0.793429 0,-0.370268 -0.0529,-0.79343 -0.05289,-0.317372 -0.10579,-0.687639 -0.0529,-0.317372 0.05289,-0.687639 -1.322383,-0.528953 -2.433184,-1.163696 -1.163697,-0.581849 -2.168707,-1.639755 z M 34.936462,48.898403 q 0.105791,0.89922 0.952116,1.163697 0.846325,0.264476 2.010021,0.211581 1.110802,0 2.168708,-0.158686 0.370267,-0.846325 0.528953,-1.745545 0.10579,-0.89922 0,-1.957126 -0.846325,0.05289 -1.904231,-0.211581 -1.057906,-0.264477 -1.904231,-0.740534 -0.846325,-0.423163 -1.005011,-1.110802 1.163697,-0.528953 2.433184,-0.528953 1.216592,0.0529 2.538975,-0.211581 0.264476,-1.163697 0.423162,-2.274498 0.105791,-1.110801 -0.264477,-2.115812 -0.581848,-0.105791 -1.110801,-0.05289 -0.581848,0.10579 -1.110801,0.158686 -0.634744,0.158685 -1.163697,0.158685 -0.581848,0.0529 -1.057906,-0.264476 -0.423162,0.634744 -0.740534,1.851336 -0.370267,1.269487 -0.581848,2.750555 -0.211582,1.481069 -0.264477,2.803451 -0.05289,1.375278 0.0529,2.274498 z m 3.067928,12.959349 q 0.89922,0.105791 1.904231,0 0.952115,-0.10579 1.904231,-0.211581 0.793429,-0.105791 1.586859,-0.211581 0.793429,-0.105791 1.586859,-0.105791 0.05289,-1.057906 0.158686,-1.957126 0.05289,-0.89922 0.05289,-2.433184 -2.010022,0.05289 -3.49109,0.105791 -1.533964,0.05289 -3.173718,0.10579 -0.264477,1.057906 -0.423163,2.380289 -0.211581,1.375278 -0.10579,2.327393 z m 5.659797,-22.639189 q 0.105791,0.793429 0.105791,1.322383 0,0.581848 -0.0529,1.057906 0,0.476057 0,0.89922 0,0.423162 0.105791,0.952115 0.740534,-0.10579 1.481069,-0.10579 0.740534,0 1.375277,0 0.476058,0 0.952116,0 0.423162,0 0.793429,-0.0529 0,-0.423162 0,-1.005011 0,-0.528953 0,-1.057906 0,-0.476057 0,-0.89922 0,-0.370267 0,-0.581848 -0.10579,0.211581 -0.317371,-0.211581 -0.0529,-0.158686 -0.158686,-0.317372 -0.105791,-0.158686 -0.211582,-0.158686 -0.370267,0.105791 -0.793429,0.105791 -0.476058,0 -1.057906,0 -0.528953,0 -1.057906,0 -0.581849,0 -1.163697,0.05289 z m 0,10.526165 q 1.322383,-0.05289 2.538975,-0.264476 1.163696,-0.211582 2.062916,-0.740535 0.158686,-0.423162 0.158686,-0.846325 -0.0529,-0.370267 -0.10579,-0.793429 0,-0.317372 -0.0529,-0.687639 -0.05289,-0.317372 0,-0.687639 -1.375277,-0.211581 -2.486079,-0.211581 -1.163696,0.05289 -1.957126,0.423162 -0.105791,0.846325 -0.105791,1.745545 0,0.89922 -0.05289,2.062917 z"
       style="-inkscape-font-specification:'Yuji Boku'"
       id="path192" /></g></svg>
