<svg xmlns="http://www.w3.org/2000/svg" viewBox="0 0 100 100"><defs><linearGradient id="b" x1="16.913" x2="82.09" y1="-845.7" y2="-845.7" gradientTransform="matrix(1 0 0 -1 0 -796)" gradientUnits="userSpaceOnUse"><stop offset="0" stop-color="#f9da9c"/><stop offset=".043" stop-color="#fbe0a1"/><stop offset=".067" stop-color="#fce6a6"/><stop offset=".145" stop-color="#f4d593"/><stop offset=".193" stop-color="#f5d797"/><stop offset=".243" stop-color="#f7dda4"/><stop offset=".263" stop-color="#f9e1ab"/><stop offset=".329" stop-color="#f7dfa8"/><stop offset=".383" stop-color="#f2d89e"/><stop offset=".398" stop-color="#efd599"/><stop offset=".461" stop-color="#f2d795"/><stop offset=".462" stop-color="#f2d795"/><stop offset=".527" stop-color="#f2d795"/><stop offset=".538" stop-color="#f2d795"/><stop offset=".538" stop-color="#f2d795"/><stop offset=".615" stop-color="#efda9c"/><stop offset=".735" stop-color="#f6e5ad"/><stop offset=".773" stop-color="#f9e9b4"/><stop offset=".822" stop-color="#f7e1a6"/><stop offset=".887" stop-color="#f5db9b"/><stop offset=".956" stop-color="#f4d997"/><stop offset=".967" stop-color="#f4da9c"/><stop offset="1" stop-color="#f4db9e"/></linearGradient></defs><linearGradient id="a" x1="19.181" x2="80.829" y1="52" y2="52" gradientTransform="matrix(-1 0 0 1 100 -2.028)" gradientUnits="userSpaceOnUse"><stop offset="0" stop-color="#f9da9c"/><stop offset=".043" stop-color="#fbe0a1"/><stop offset=".067" stop-color="#fce6a6"/><stop offset=".145" stop-color="#f4d593"/><stop offset=".193" stop-color="#f5d797"/><stop offset=".243" stop-color="#f7dda4"/><stop offset=".263" stop-color="#f9e1ab"/><stop offset=".329" stop-color="#f7dfa8"/><stop offset=".383" stop-color="#f2d89e"/><stop offset=".398" stop-color="#efd599"/><stop offset=".461" stop-color="#f2d795"/><stop offset=".462" stop-color="#f2d795"/><stop offset=".527" stop-color="#f2d795"/><stop offset=".538" stop-color="#f2d795"/><stop offset=".538" stop-color="#f2d795"/><stop offset=".615" stop-color="#efda9c"/><stop offset=".735" stop-color="#f6e5ad"/><stop offset=".773" stop-color="#f9e9b4"/><stop offset=".822" stop-color="#f7e1a6"/><stop offset=".887" stop-color="#f5db9b"/><stop offset=".956" stop-color="#f4d997"/><stop offset=".967" stop-color="#f4da9c"/><stop offset="1" stop-color="#f4db9e"/></linearGradient><path fill="url(#a)" stroke="#63451a" stroke-miterlimit="10" stroke-width="1.01" d="M11.5 5.5v5.2L22 84.2l27.5 9.7L77 84.2l10.5-73.5V5.5Z" style="fill:url(#b)" transform="translate(.664 2.732)"/><path fill="#63451a" fill-opacity=".75" d="m77.164 81.432-27 9.7-27-9.7-10.5-72.2v4.7l10.5 72.7 27 9.6 27-9.6 10.5-72.7v-4.7Z"/><g style="font-size:40px;white-space:pre"><path d="M31.073 52.716q-.32-.88.56-1.44.88-.56 2.04-1.04.6-.28 1.16-.56.56-.28.96-.6 1.32-.56 2.44-.64 1.12-.08 1.6.24-.56 1.08-.96 2.08-.44 1-.64 2 1.32 0 3.08-.12 1.72-.12 3.6-.28l2.56-.24 2.48-.16q.4-.04.8-.04h.72q1.56-.04 2.96-.24 1.4-.2 2.2-1.2-.48-1.36-.44-3.04 0-1.68.32-3.48t.8-3.52q.44-1.68.84-3.12.04-.16.12-.36l.08-.32q.36-.76.72-1.56t.76-1.04q.04-1.04.64-2.08.6-1 1.44-1.92.84-.92 1.68-1.72.84-.28 1.52-.04.68.24.64.72-.56.24-1.2 1.08-.68.84-1.36 1.96-.76 1.64-1.6 3.84-.84 2.2-1.48 4.68-.64 2.48-.76 4.92-.12 1.68.24 2.76.36 1.12 1.08 1.96.72.88 1.76 1.8-.4.24-.4.56-.04.36-.12.72-.08.4-.52.6-.08.08-.36.12-.32.04-.44.04-.8.16-1.96.12-1.2 0-2.52-.08-1.68-.12-3.4-.16-1.72 0-3.04.32v.44q-.04.24-.04.48-.08.8-.04 1.76t.56 1.76q-.16.16-.6.16-.32 1.32.24 1.96.52.68 1.24 1.2l.72.56q.32.28.56.68-.24.64-.6.64-.4.04-.84-.08-.4-.08-.88-.12-.48-.04-1 .28-.08-.04-.28-.12-.96-.48-1.72-1-.8-.48-1.08-1.32-.32-.84.16-2.24-.64-.12-1.32-.08l-1.36.16q-1.16.16-2.32.12-1.16-.04-2.16-1 .52-1.04 1.72-1.2 1.2-.16 2.52-.16.76 0 1.52-.04.72 0 1.28-.24.56-.2.88-.72.28-.48.24-1.4-1.16-.2-2.48-.12-1.36.08-2.6.16-.48.08-.92.08-.44.04-.84.08h-.72q-.72 0-1.24.12t-.6.88q-2.2 0-3.76-.8-1.6-.76-2.84-2.4zm-1.84-22.68q.88-1.36 2.44-1.92 1.56-.56 3.44-.56 1.88-.04 3.8.28 1.92.28 3.56.64.4.48 1.12.72.72.24 1.4.52.64.24.96.72.16.28.44.8.24.52.44 1.04t.24.72q.04.48-.04.92-.08.44-.16.92-.16.52-.24 1.08-.08.6 0 1.24.04.28.16.52l.16.48q.2.4.28.8.08.4-.28.96-.32.16-.92.2l-.6.04q1.92.24 3.32.72 1.36.52 2.04 2.24-.28.4-.32.96-.04.6.04 1.04.84-.52 1.92-.36 1.08.16 2 .76.88.64 1.28 1.4-.48.52-1.28.52-.84.04-1.8 0l-1.04-.08q-.56-.04-1.08.04-.48 1.24.04 1.96.48.76 1.12 1.32.2.2.4.36.16.16.32.36-.8.48-1.84.44-1.08-.04-2.04-.52-.96-.48-1.44-1.36-.52-.88-.2-2.12l-.96.08-.96.08q-1.28.16-2.6.2-1.32.04-2.56-.28-1.28-.32-2.36-1.28.32-.56 1.04-.64.68-.08 1.6-.08.36.04.76.04.36 0 .72-.04 1.68-.08 3.04-.24 1.32-.16 2.72-.4.08-.52.12-1.08.04-.52 0-1.2-1-.4-2.08-.36-1.12.08-2.24.2-1.08.12-2.12.16-1.08.04-2.04-.32t-1.72-1.44q2-.72 3.8-.84 1.8-.08 4.04-.24-.88-.56-1.2-1.48-.32-.92-.32-2t.08-2.12q.04-.76.08-1.48 0-.68-.16-1.16-.84-.6-2.28-.92-1.44-.28-2.96-.16-1.52.12-2.52.68-.64.2-.84.56-.2.36-.36.88v.88q-.16-.16-.2-.32-.08-.12-.28-.12v.64q0 .72.04 1.44t.32 1.64q-2.28-.88-3.4-2.8t-1.84-4.28zm20 8.4q.08-.08.48-.8l.92-1.56q.52-.84.92-1.52.36-.64.4-.72.6-.88 1.44-2.08.84-1.2 1.84-2.2 1-1.04 2.12-1.32.52.08 1.36.12.8.04 1.24 0-.72.92-1.44 1.72-.72.76-2.04 1.72 0 .08.12.08.12.04.2.08-1.16 1.64-2.28 3.28-1.12 1.64-1.92 3.6.04.72.48 1.08.44.36.76.88-.6.48-1.64.44-1.04 0-1.96-.4-.96-.36-1.32-1-.4-.64.32-1.4z" aria-label="虎" style="-inkscape-font-specification:&quot;Yuji Boku&quot;" transform="matrix(1.45787 0 0 1.45787 -19.268 -21)"/></g></svg>