<?xml version="1.0" encoding="UTF-8" standalone="no"?>
<svg
   version="1.1"
   id="svg8"
   viewBox="0 0 100 100"
   xml:space="preserve"
   sodipodi:docname="1_PROMOTEDVERTICALMOVER.svg"
   inkscape:version="1.2.1 (9c6d41e410, 2022-07-14, custom)"
   xmlns:inkscape="http://www.inkscape.org/namespaces/inkscape"
   xmlns:sodipodi="http://sodipodi.sourceforge.net/DTD/sodipodi-0.dtd"
   xmlns="http://www.w3.org/2000/svg"
   xmlns:svg="http://www.w3.org/2000/svg"><defs
     id="defs66"><linearGradient
       id="a"
       gradientUnits="userSpaceOnUse"
       x1="20.649"
       y1="48.75"
       x2="79.115997"
       y2="48.75"
       gradientTransform="matrix(1,0,0,-1,0,102)"><stop
         offset="0"
         stop-color="#f9da9c"
         id="stop2" /><stop
         offset=".043"
         stop-color="#fbe0a1"
         id="stop4-8" /><stop
         offset=".067"
         stop-color="#fce6a6"
         id="stop6-1" /><stop
         offset=".145"
         stop-color="#f4d593"
         id="stop8-3" /><stop
         offset=".193"
         stop-color="#f5d797"
         id="stop10-1" /><stop
         offset=".243"
         stop-color="#f7dda4"
         id="stop12-1" /><stop
         offset=".263"
         stop-color="#f9e1ab"
         id="stop14-0" /><stop
         offset=".329"
         stop-color="#f7dfa8"
         id="stop16-3" /><stop
         offset=".383"
         stop-color="#f2d89e"
         id="stop18-4" /><stop
         offset=".398"
         stop-color="#efd599"
         id="stop20-0" /><stop
         offset=".461"
         stop-color="#f2d795"
         id="stop22-3" /><stop
         offset=".462"
         stop-color="#f2d795"
         id="stop24-9" /><stop
         offset=".527"
         stop-color="#f2d795"
         id="stop26-1" /><stop
         offset=".538"
         stop-color="#f2d795"
         id="stop28-9" /><stop
         offset=".538"
         stop-color="#f2d795"
         id="stop30-6" /><stop
         offset=".615"
         stop-color="#efda9c"
         id="stop32-9" /><stop
         offset=".735"
         stop-color="#f6e5ad"
         id="stop34-3" /><stop
         offset=".773"
         stop-color="#f9e9b4"
         id="stop36-3" /><stop
         offset=".822"
         stop-color="#f7e1a6"
         id="stop38-8" /><stop
         offset=".887"
         stop-color="#f5db9b"
         id="stop40-0" /><stop
         offset=".956"
         stop-color="#f4d997"
         id="stop42-5" /><stop
         offset=".967"
         stop-color="#f4da9c"
         id="stop44-6" /><stop
         offset="1"
         stop-color="#f4db9e"
         id="stop46-6" /></linearGradient></defs><sodipodi:namedview
     id="namedview64"
     pagecolor="#ffffff"
     bordercolor="#666666"
     borderopacity="1.0"
     inkscape:showpageshadow="2"
     inkscape:pageopacity="0.0"
     inkscape:pagecheckerboard="0"
     inkscape:deskcolor="#d1d1d1"
     showgrid="false"
     inkscape:zoom="3.6630687"
     inkscape:cx="46.136181"
     inkscape:cy="30.302462"
     inkscape:window-width="1366"
     inkscape:window-height="711"
     inkscape:window-x="0"
     inkscape:window-y="0"
     inkscape:window-maximized="1"
     inkscape:current-layer="svg8" /><style
     id="style2">.st2{fill:#fff}</style><linearGradient
     id="SVGID_1_"
     gradientUnits="userSpaceOnUse"
     x1="23.313"
     y1="52"
     x2="76.671"
     y2="52"
     gradientTransform="matrix(-1,0,0,1,100,-2.0294749)"><stop
       offset="0"
       stop-color="#f9da9c"
       id="stop4" /><stop
       offset=".043"
       stop-color="#fbe0a1"
       id="stop6" /><stop
       offset=".067"
       stop-color="#fce6a6"
       id="stop8" /><stop
       offset=".145"
       stop-color="#f4d593"
       id="stop10" /><stop
       offset=".193"
       stop-color="#f5d797"
       id="stop12" /><stop
       offset=".243"
       stop-color="#f7dda4"
       id="stop14" /><stop
       offset=".263"
       stop-color="#f9e1ab"
       id="stop16" /><stop
       offset=".329"
       stop-color="#f7dfa8"
       id="stop18" /><stop
       offset=".383"
       stop-color="#f2d89e"
       id="stop20" /><stop
       offset=".398"
       stop-color="#efd599"
       id="stop22" /><stop
       offset=".461"
       stop-color="#f2d795"
       id="stop24" /><stop
       offset=".462"
       stop-color="#f2d795"
       id="stop26" /><stop
       offset=".527"
       stop-color="#f2d795"
       id="stop28" /><stop
       offset=".538"
       stop-color="#f2d795"
       id="stop30" /><stop
       offset=".538"
       stop-color="#f2d795"
       id="stop32" /><stop
       offset=".615"
       stop-color="#efda9c"
       id="stop34" /><stop
       offset=".735"
       stop-color="#f6e5ad"
       id="stop36" /><stop
       offset=".773"
       stop-color="#f9e9b4"
       id="stop38" /><stop
       offset=".822"
       stop-color="#f7e1a6"
       id="stop40" /><stop
       offset=".887"
       stop-color="#f5db9b"
       id="stop42" /><stop
       offset=".956"
       stop-color="#f4d997"
       id="stop44" /><stop
       offset=".967"
       stop-color="#f4da9c"
       id="stop46" /><stop
       offset="1"
       stop-color="#f4db9e"
       id="stop48" /></linearGradient><g
     id="g223"
     transform="translate(-0.10745865,2.2145363)"><path
       fill="url(#a)"
       stroke="#63451a"
       stroke-miterlimit="10"
       d="m 16.1,12.9 v 5.7 l 9.4,66.2 24.5,8.8 24.5,-8.8 9.4,-66.2 v -5.7 z"
       id="path49"
       style="fill:url(#a)" /><path
       fill="#63451a"
       fill-opacity="0.75"
       d="M 74,79.1 50,87.9 26,79.1 16.6,13.3 v 5.2 l 9.4,66 24,8.6 24,-8.7 9.4,-65.9 v -5.2 z"
       id="path51-4" /></g><g
     aria-label=" 竪"
     id="text280"
     style="font-size:52.8953px;stroke-width:1.32238;fill:#aa0000"><path
       d="m 27.055062,47.893392 q 0.105791,-0.687638 0.79343,-1.216591 0.634744,-0.528953 1.586859,-0.846325 1.533964,-0.528953 3.438195,-0.581849 1.90423,0 3.120822,0.528953 0.158686,0.264477 0.105791,0.581849 -0.105791,0.317372 -0.105791,0.317372 0.370268,-0.158686 0.528953,-0.105791 0.158686,0.105791 0.264477,0.264476 0.105791,0.158686 0.264476,0.264477 0.158686,0.105791 0.528953,0.05289 0.528953,1.269487 1.216592,2.062917 0.634744,0.79343 1.322383,1.428173 0.634744,0.634744 1.163697,1.481069 0.687639,-0.370267 1.216592,-0.740535 0.528953,-0.370267 1.00501,-0.793429 1.005011,-0.79343 2.115812,-1.428173 1.110802,-0.581849 3.120823,-0.528953 0,-0.370267 -0.740534,-0.846325 -0.79343,-0.423163 -1.269487,-0.740534 -0.158686,-0.89922 0.05289,-1.428174 0.211581,-0.528953 0.528953,-0.952115 0.105791,-0.158686 0.211581,-0.370267 0.105791,-0.158686 0.211581,-0.370267 -0.476057,0.05289 -0.952115,0.10579 -0.528953,0.0529 -1.005011,0.105791 -2.221602,0.211581 -4.284519,0.317372 -2.062917,0.10579 -3.702671,-0.370267 -1.216592,-0.317372 -2.168708,-1.005011 -0.952115,-0.687639 -1.533963,-1.957126 2.591869,-0.05289 4.443205,-0.211581 1.851335,-0.158686 1.851335,-0.158686 -0.528953,-0.370267 -0.793429,-1.005011 -0.317372,-0.581848 -0.846325,-0.952115 0.211581,-0.687639 0.370267,-1.216592 0.105791,-0.476058 0.952116,-0.79343 0.687639,-1.533964 1.00501,-2.856346 0.317372,-1.269487 1.110802,-2.644765 -0.581849,-0.105791 -1.216592,-0.158686 -0.687639,0 -1.375278,0 -0.423162,0 -0.79343,0 -0.423162,0 -0.846324,-0.0529 -0.740535,0.740535 -1.639755,0.899221 -0.89922,0.211581 -1.851335,0.05289 -1.69265,-0.264477 -3.3853,-1.322383 -1.692649,-1.00501 -2.69766,-1.692649 0,-0.264477 -0.05289,-0.476058 -0.105791,-0.264477 -0.211582,-0.423162 -0.10579,-0.264477 -0.158685,-0.476058 -0.0529,-0.211581 0.05289,-0.423163 2.062917,-0.317371 3.861357,-0.10579 1.745545,0.211581 3.543985,0.528953 1.269487,0.211581 2.59187,0.423162 1.322382,0.158686 2.856346,0.211581 5.765588,0.158686 11.37249,-0.370267 5.554007,-0.581848 9.891421,-1.79844 0.317372,-0.211581 0.581849,-0.581848 0.211581,-0.370267 0.581848,-0.581849 1.79844,0.105791 2.962137,0.952116 1.110801,0.846325 2.062917,1.904231 0.89922,1.057906 2.168707,1.79844 0,0.476058 -0.211581,0.687639 -0.264477,0.264476 -0.634744,0.423162 -0.211581,-0.158686 -0.423162,0.0529 -0.211581,0.211581 -0.423162,0.158686 -1.269488,-1.005011 -3.596881,-0.899221 -2.380289,0.105791 -4.760577,0.423163 -0.79343,0.10579 -1.481069,0.158686 -0.740534,0.10579 -1.428173,0.158686 0.0529,1.057906 0.158686,2.69766 0.105791,1.639754 0.370267,3.279509 0.264477,1.692649 0.952116,2.644765 2.380288,0.10579 3.861357,1.216592 1.481068,1.163696 2.433184,3.120823 -0.528953,0.264476 -1.005011,0.158686 -0.476058,-0.105791 -0.952116,-0.264477 -0.264476,-0.105791 -0.528953,-0.211581 -0.264476,-0.05289 -0.528953,-0.105791 -1.586859,-0.211581 -3.279508,-0.10579 -1.745545,0.158686 -3.596881,0.423162 -1.057906,0.105791 -2.115812,0.211581 -1.110801,0.158686 -2.221603,0.211581 0,0.264477 0.0529,0.423163 0,0.211581 0.05289,0.370267 0.05289,0.264476 0.105791,0.528953 0.05289,0.264476 0,0.634744 1.110801,-0.158686 2.274498,-0.211582 1.163696,-0.05289 2.380288,-0.05289 2.062917,-0.05289 4.125834,-0.264476 2.062916,-0.158686 3.861357,-0.952116 0.317372,-0.158686 0.581848,-0.10579 0.211581,0.05289 0.370267,0.158685 0.264477,0.0529 0.476058,0.0529 0.211581,0 0.528953,-0.370267 0.634744,0.581848 1.533964,0.952115 0.89922,0.370267 1.639754,0.79343 0.740534,0.476057 0.952115,1.375277 0.0529,0.317372 -0.05289,0.79343 -0.158686,0.528953 -0.317372,1.110801 -0.211581,0.740535 -0.423162,1.481069 -0.211581,0.793429 -0.211581,1.533964 0,1.110801 0.687639,1.79844 -0.264477,0.10579 -0.476058,-0.0529 -0.211581,-0.10579 -0.211581,-0.10579 0.05289,0.740534 0,1.428173 -0.0529,0.740534 -0.158686,1.428173 0,0.528953 -0.05289,1.005011 -0.0529,0.476058 -0.0529,0.89922 0,0.740534 0.211581,1.322383 0.211582,0.581848 0.79343,0.952115 -0.89922,0.634744 -0.89922,1.269487 0,0.634744 0.423162,1.269488 0.528953,0.740534 1.428173,1.375277 0.846325,0.634744 1.481069,1.057906 -0.317372,0.634744 -0.528953,1.005011 -0.211581,0.370267 -0.634744,1.005011 -2.168707,0.581848 -4.39031,0.846325 -2.274498,0.264476 -5.236635,0.581848 -1.745545,0.211581 -3.332404,0.158686 -1.639754,0 -2.644765,0.370267 -0.264476,0.105791 -0.423162,0.317372 -0.158686,0.211581 -0.423163,0.264476 -1.375278,0.105791 -2.644765,-0.687639 -1.269487,-0.740534 -2.010021,-1.481068 0.370267,-0.952115 1.533964,-1.163697 1.163696,-0.211581 2.486079,-0.264476 0.317372,0 0.634743,-0.05289 0.264477,0 0.581849,0 0,-0.634744 0.158686,-1.375278 0.10579,-0.740535 0.528953,-1.375278 0.317371,-0.370267 0.793429,-0.687639 0.423163,-0.264477 0.846325,-0.423163 -0.528953,-0.317371 -0.89922,-0.264476 -0.370267,0.105791 -0.687639,0.317372 -0.370267,0.264476 -0.687639,0.581848 -0.370267,0.317372 -0.846325,0.370267 -0.846325,0.105791 -1.586859,-0.158686 -0.793429,-0.211581 -1.481068,-0.687639 -0.952116,-0.687639 -1.745545,-1.533963 -0.79343,-0.79343 -1.481069,-1.375278 0.105791,-0.740534 0.846325,-0.952116 0.687639,-0.158686 1.428173,-0.370267 0.370267,-1.216592 0.634744,-3.067927 0.211581,-1.798441 0.740534,-3.332404 0.89922,-0.317372 1.639754,-0.264477 0.687639,0.105791 1.586859,0.317372 0.158686,0.05289 0.317372,0.05289 0.158686,0.0529 0.317372,0.105791 -0.105791,-0.952115 0.211581,-1.904231 0.264477,-0.952115 0.581849,-1.639754 0.317371,-0.634744 0.317371,-0.634744 -0.793429,0.476058 -1.586859,0.264477 -0.793429,-0.211582 -1.586859,-0.581849 -0.264476,-0.10579 -0.528953,-0.264476 -0.317372,-0.105791 -0.581848,-0.158686 -0.158686,0 0,0.370267 0.05289,0.105791 0.105791,0.264476 0.05289,0.211582 -0.0529,0.423163 -0.423162,0.105791 -0.89922,0.105791 -0.476058,0 -1.057906,-0.211582 0.05289,0.581849 0.528953,0.634744 0.476058,0.105791 0.740534,0.423162 -2.327393,1.216592 -4.654786,2.644765 -2.380289,1.428174 -3.596881,3.226614 1.216592,1.639754 2.59187,3.120823 1.322383,1.533963 2.69766,3.015032 -0.793429,0.476058 -1.533963,0.317372 -0.79343,-0.105791 -1.533964,-0.581849 -1.110801,-0.687639 -2.274498,-1.745545 -1.163697,-1.00501 -2.327393,-1.322382 -0.687639,0.581848 -1.322383,1.639754 -0.634743,1.057906 -1.005011,2.274498 -0.370267,1.269487 -0.264476,2.327393 0.952115,0.211582 2.168707,0.0529 1.163697,-0.158686 2.380289,-0.370267 0.952115,-0.158686 1.904231,-0.317372 0.89922,-0.105791 1.79844,-0.105791 1.269487,0 2.380289,0.423163 1.057906,0.476057 1.745545,1.692649 -0.634744,0.846325 -1.957127,0.952116 -1.375278,0.158686 -3.067927,0.158686 -0.740534,0 -1.481069,0 -0.793429,0 -1.586859,0.05289 -1.269487,0.105791 -2.274498,0.317372 -1.00501,0.211581 -2.433184,0.211581 -0.687638,0.793429 -1.428173,1.110801 -0.740534,0.317372 -1.481068,0.264477 -1.428173,-0.0529 -2.856346,-0.952116 -1.481069,-0.89922 -2.59187,-1.745545 -0.370267,-0.846324 -0.158686,-1.428173 0.158686,-0.528953 0.687639,-0.793429 0.581848,-0.317372 1.481068,-0.370267 0.846325,0 1.639755,0.10579 1.163696,-1.79844 2.274498,-3.808462 1.057906,-1.957126 2.062916,-3.967147 -0.89922,-0.846325 -2.168707,-1.639755 -1.269487,-0.740534 -2.69766,-1.428173 -0.687639,-0.317371 -1.428174,-0.476057 -0.793429,-0.105791 -1.269487,-0.528953 -0.158686,-0.105791 -0.158686,-0.370267 0,-0.264477 -0.211581,-0.528954 -0.370267,-0.370267 -0.952115,-0.793429 -0.581849,-0.370267 -1.057906,-0.79343 -0.423163,-0.370267 -0.634744,-0.793429 -0.211581,-0.370267 -0.105791,-0.952116 z M 44.98657,40.593841 q 2.803451,0.423162 6.082959,0.158686 3.226614,-0.211581 6.030065,-0.952116 -0.105791,-0.158686 -0.211581,-0.317372 -0.158686,-0.10579 -0.317372,-0.264476 -0.740534,-0.89922 -1.481069,-2.010021 -0.793429,-1.057907 -1.269487,-2.538975 -0.528953,-1.428173 -0.370267,-3.385299 -1.851336,-0.211582 -3.702671,-0.158686 -1.851336,0.10579 -3.649776,0.211581 -0.476058,1.163697 -0.89922,2.962137 -0.476058,1.79844 -0.634744,3.543985 -0.158686,1.79844 0.423163,2.750556 z m 10.790641,19.35968 q 1.533964,0.105791 2.856347,-0.10579 1.269487,-0.158686 2.486079,-0.370267 1.110801,-0.211582 2.221602,-0.370268 1.110802,-0.158685 2.274498,0 -0.05289,-0.581848 -0.05289,-1.163696 0,-0.528953 0.05289,-1.005011 0,-0.687639 0,-1.322382 0,-0.581849 -0.158685,-1.216592 -2.750556,0.10579 -4.972159,0.317371 -2.221603,0.211582 -4.496101,0.899221 -0.423162,0.846324 -0.528953,2.168707 -0.10579,1.322382 0.317372,2.168707 z m 3.015032,-11.47828 q 0.158686,0.740534 0.211582,1.533964 0.05289,0.846324 0.05289,1.692649 0.846325,0.476058 1.79844,0.423163 0.89922,-0.0529 1.851336,-0.211582 0.687639,-0.10579 1.375278,-0.211581 0.687639,-0.05289 1.322382,0.158686 0.105791,-0.581848 0.105791,-1.057906 0,-0.423162 -0.05289,-0.89922 -0.0529,-0.423162 -0.0529,-0.89922 0,-0.423163 0.0529,-0.952116 -1.533964,-0.10579 -3.438195,-0.05289 -1.904231,0.05289 -3.226614,0.476058 z m 0.264477,14.07015 q -0.211581,0.740534 -0.158686,1.322383 0.05289,0.634743 0.158686,1.269487 0,0.264476 0.05289,0.581848 0.0529,0.317372 0.0529,0.634744 1.216592,0.264476 2.909241,0 1.69265,-0.264477 2.909242,-0.740534 0,-0.211582 0.10579,-0.528953 0.0529,-0.264477 0.158686,-0.581849 0.158686,-0.581848 0.264477,-1.163696 0.10579,-0.581849 -0.105791,-1.005011 -0.89922,-0.211581 -1.79844,-0.158686 -0.952115,0.05289 -1.957126,0.158686 -0.634744,0.10579 -1.269487,0.158686 -0.687639,0.05289 -1.322383,0.05289 z"
       style="-inkscape-font-specification:'Yuji Boku';fill:#aa0000"
       id="path261" /></g></svg>
