<?xml version="1.0" encoding="UTF-8" standalone="no"?>
<svg
   version="1.1"
   id="svg8"
   viewBox="0 0 100 100"
   xml:space="preserve"
   sodipodi:docname="1_WHITEHORSE.svg"
   inkscape:version="1.2.1 (9c6d41e410, 2022-07-14, custom)"
   xmlns:inkscape="http://www.inkscape.org/namespaces/inkscape"
   xmlns:sodipodi="http://sodipodi.sourceforge.net/DTD/sodipodi-0.dtd"
   xmlns="http://www.w3.org/2000/svg"
   xmlns:svg="http://www.w3.org/2000/svg"><defs
     id="defs66"><linearGradient
       id="a"
       gradientUnits="userSpaceOnUse"
       x1="20.649"
       y1="48.75"
       x2="79.115997"
       y2="48.75"
       gradientTransform="matrix(1,0,0,-1,0,102)"><stop
         offset="0"
         stop-color="#f9da9c"
         id="stop2" /><stop
         offset=".043"
         stop-color="#fbe0a1"
         id="stop4-9" /><stop
         offset=".067"
         stop-color="#fce6a6"
         id="stop6-4" /><stop
         offset=".145"
         stop-color="#f4d593"
         id="stop8-2" /><stop
         offset=".193"
         stop-color="#f5d797"
         id="stop10-2" /><stop
         offset=".243"
         stop-color="#f7dda4"
         id="stop12-6" /><stop
         offset=".263"
         stop-color="#f9e1ab"
         id="stop14-4" /><stop
         offset=".329"
         stop-color="#f7dfa8"
         id="stop16-1" /><stop
         offset=".383"
         stop-color="#f2d89e"
         id="stop18-2" /><stop
         offset=".398"
         stop-color="#efd599"
         id="stop20-8" /><stop
         offset=".461"
         stop-color="#f2d795"
         id="stop22-8" /><stop
         offset=".462"
         stop-color="#f2d795"
         id="stop24-9" /><stop
         offset=".527"
         stop-color="#f2d795"
         id="stop26-2" /><stop
         offset=".538"
         stop-color="#f2d795"
         id="stop28-8" /><stop
         offset=".538"
         stop-color="#f2d795"
         id="stop30-8" /><stop
         offset=".615"
         stop-color="#efda9c"
         id="stop32-8" /><stop
         offset=".735"
         stop-color="#f6e5ad"
         id="stop34-6" /><stop
         offset=".773"
         stop-color="#f9e9b4"
         id="stop36-8" /><stop
         offset=".822"
         stop-color="#f7e1a6"
         id="stop38-3" /><stop
         offset=".887"
         stop-color="#f5db9b"
         id="stop40-8" /><stop
         offset=".956"
         stop-color="#f4d997"
         id="stop42-3" /><stop
         offset=".967"
         stop-color="#f4da9c"
         id="stop44-3" /><stop
         offset="1"
         stop-color="#f4db9e"
         id="stop46-3" /></linearGradient></defs><sodipodi:namedview
     id="namedview64"
     pagecolor="#ffffff"
     bordercolor="#666666"
     borderopacity="1.0"
     inkscape:showpageshadow="2"
     inkscape:pageopacity="0.0"
     inkscape:pagecheckerboard="0"
     inkscape:deskcolor="#d1d1d1"
     showgrid="false"
     inkscape:zoom="2.4746223"
     inkscape:cx="89.71066"
     inkscape:cy="63.444025"
     inkscape:window-width="1366"
     inkscape:window-height="711"
     inkscape:window-x="0"
     inkscape:window-y="0"
     inkscape:window-maximized="1"
     inkscape:current-layer="svg8" /><style
     id="style2">.st2{fill:#fff}</style><linearGradient
     id="SVGID_1_"
     gradientUnits="userSpaceOnUse"
     x1="23.313"
     y1="52"
     x2="76.671"
     y2="52"
     gradientTransform="matrix(-1,0,0,1,100,-2.0294749)"><stop
       offset="0"
       stop-color="#f9da9c"
       id="stop4" /><stop
       offset=".043"
       stop-color="#fbe0a1"
       id="stop6" /><stop
       offset=".067"
       stop-color="#fce6a6"
       id="stop8" /><stop
       offset=".145"
       stop-color="#f4d593"
       id="stop10" /><stop
       offset=".193"
       stop-color="#f5d797"
       id="stop12" /><stop
       offset=".243"
       stop-color="#f7dda4"
       id="stop14" /><stop
       offset=".263"
       stop-color="#f9e1ab"
       id="stop16" /><stop
       offset=".329"
       stop-color="#f7dfa8"
       id="stop18" /><stop
       offset=".383"
       stop-color="#f2d89e"
       id="stop20" /><stop
       offset=".398"
       stop-color="#efd599"
       id="stop22" /><stop
       offset=".461"
       stop-color="#f2d795"
       id="stop24" /><stop
       offset=".462"
       stop-color="#f2d795"
       id="stop26" /><stop
       offset=".527"
       stop-color="#f2d795"
       id="stop28" /><stop
       offset=".538"
       stop-color="#f2d795"
       id="stop30" /><stop
       offset=".538"
       stop-color="#f2d795"
       id="stop32" /><stop
       offset=".615"
       stop-color="#efda9c"
       id="stop34" /><stop
       offset=".735"
       stop-color="#f6e5ad"
       id="stop36" /><stop
       offset=".773"
       stop-color="#f9e9b4"
       id="stop38" /><stop
       offset=".822"
       stop-color="#f7e1a6"
       id="stop40" /><stop
       offset=".887"
       stop-color="#f5db9b"
       id="stop42" /><stop
       offset=".956"
       stop-color="#f4d997"
       id="stop44" /><stop
       offset=".967"
       stop-color="#f4da9c"
       id="stop46" /><stop
       offset="1"
       stop-color="#f4db9e"
       id="stop48" /></linearGradient><g
     id="g223"
     transform="translate(-0.0518946,1.0660612)"><path
       fill="url(#a)"
       stroke="#63451a"
       stroke-miterlimit="10"
       d="m 16.1,12.9 v 5.7 l 9.4,66.2 24.5,8.8 24.5,-8.8 9.4,-66.2 v -5.7 z"
       id="path49"
       style="fill:url(#a)" /><path
       fill="#63451a"
       fill-opacity="0.75"
       d="M 74,79.1 50,87.9 26,79.1 16.6,13.3 v 5.2 l 9.4,66 24,8.6 24,-8.7 9.4,-65.9 v -5.2 z"
       id="path51-8" /></g><g
     aria-label="駒"
     id="text280"
     style="font-size:52.8953px;fill:#aa0000;stroke-width:1.32238"><path
       d="m 48.721302,48.475137 q -0.10579,-0.740534 0.423163,-1.269487 0.528953,-0.528953 1.110801,-0.952116 0.476058,-1.639754 0.634744,-3.59688 0.10579,-1.957126 0.211581,-4.020043 0.105791,-2.909242 0.423162,-5.765588 0.264477,-2.803451 1.533964,-4.813473 0.423163,-0.687638 1.110801,-1.269487 0.634744,-0.634743 1.269488,-1.00501 1.639754,0.423162 3.279508,0.89922 1.586859,0.423162 2.856347,1.322382 1.269487,0.846325 1.79844,2.486079 0.687639,0.423163 1.269487,0.899221 0.528953,0.528953 1.057906,1.057906 -0.581848,-0.158686 -1.163696,-0.370268 -0.581849,-0.158685 -1.163697,-0.370267 -1.586859,-0.528953 -3.015032,-0.89922 -1.428173,-0.370267 -2.380289,0.0529 -1.057906,0.476058 -1.692649,1.904231 -0.687639,1.428174 -1.005011,3.3853 -0.370267,1.957126 -0.423163,4.072938 -0.10579,2.115812 0.0529,3.967148 0.158686,1.851335 0.423162,3.015032 2.221603,-0.0529 3.914252,-0.370267 1.639755,-0.264477 3.120823,-0.740535 1.481069,-0.476057 3.279509,-1.216592 0.793429,0.581849 1.79844,0.899221 1.005011,0.370267 1.428173,1.375277 -0.634743,2.697661 -0.846324,5.554007 -0.211582,2.909242 -0.158686,5.554007 0.05289,2.69766 0.211581,4.654786 0.740534,0.740535 1.533964,1.428174 0.740534,0.740534 1.322382,1.586859 0,0.05289 0.0529,0.10579 0.105791,0.264477 0.105791,0.423163 0,0.211581 -0.317372,0.370267 -1.481068,0.10579 -2.962137,0.370267 -1.533963,0.317372 -3.120823,0.687639 -2.433183,0.528953 -4.866367,0.89922 -2.486079,0.370267 -4.866368,0.158686 -2.433184,-0.211581 -4.654787,-1.533964 0.528953,-0.740534 1.586859,-0.846325 1.005011,-0.10579 2.221603,-0.10579 0.687639,0 1.375278,-0.0529 0.687639,0 1.322383,-0.10579 -0.370268,-0.581849 -0.317372,-1.69265 0,-1.110801 0.10579,-2.274498 -1.163696,0.05289 -2.538974,-0.317372 -1.375278,-0.370267 -2.380289,-0.846325 -0.264476,-0.264476 -0.264476,-0.634743 0,-0.317372 0.264476,-0.423163 1.481069,-0.370267 2.750556,-0.476057 1.269487,-0.105791 2.168707,-0.211582 -0.05289,-0.687638 -0.05289,-1.586859 0,-0.846324 0.105791,-1.375277 -1.322383,-0.105791 -2.856347,-0.317372 -1.586859,-0.211581 -2.433184,-0.79343 0.264477,-0.846325 1.269488,-1.110801 0.952115,-0.264477 2.115812,-0.370267 1.110801,-0.105791 1.904231,-0.476058 0.05289,-0.740534 0.158686,-1.69265 0.05289,-0.952115 0.158685,-1.851335 -1.745545,0.423162 -4.125833,0.05289 -2.433184,-0.370267 -4.125834,-1.428173 z m -25.231059,9.838526 q 0.952116,-0.264476 1.798441,-0.423162 0.793429,-0.105791 1.639754,-0.211581 0.476058,-0.423163 0.528953,-1.216592 0.05289,-0.740535 0,-1.586859 0,-0.158686 0,-0.370268 0,-0.158686 0,-0.317371 0,-1.216592 0,-2.538975 0,-1.322382 -0.0529,-2.750556 -0.0529,-3.332404 0,-6.876389 0.0529,-3.49109 0.581848,-6.664808 0.476058,-3.173718 1.745545,-5.659797 1.269487,-2.433184 3.649776,-3.649776 1.322382,0.158686 2.644765,0.634744 1.269487,0.423162 2.221603,0.89922 1.110801,0.528953 1.586859,1.110801 0.476057,0.581848 0.89922,1.163697 0.370267,0.634743 1.163696,1.163696 0.740535,0.581849 2.380289,1.110802 -0.476058,0 -1.057906,-0.105791 -0.581848,-0.10579 -1.269487,-0.158686 -1.375278,-0.264476 -2.909242,-0.423162 -1.533964,-0.105791 -2.750556,0.211581 -0.952115,0.264477 -1.79844,1.375278 -0.89922,1.110801 -1.533964,2.59187 -0.687639,1.481068 -0.846324,2.750555 -0.158686,1.110802 -0.211582,3.226614 -0.10579,2.168707 -0.10579,4.760577 0,2.644765 0.10579,5.183739 0.0529,2.59187 0.211582,4.548996 0.158685,2.010022 0.423162,2.803451 1.110801,0.0529 2.644765,-0.10579 1.533964,-0.158686 3.173718,-0.423163 1.79844,-0.264476 3.649776,-0.476057 1.79844,-0.211581 3.385299,-0.158686 0.634744,-0.528953 1.163697,-1.322383 0.476058,-0.740534 1.057906,-1.481068 0.528953,-0.687639 1.481068,-1.005011 0.370268,0.158686 0.846325,0.105791 0.476058,0 1.057906,-0.0529 0.158686,-0.0529 0.370267,-0.10579 0.158686,0 0.317372,0 -1.851335,3.332404 -3.385299,6.453227 -1.533964,3.173718 -2.168707,5.977169 0.264476,0.687639 0.846324,1.00501 0.528953,0.370268 1.005011,0.79343 0.476058,0.423162 0.634744,1.216592 -2.010022,0.423162 -3.967148,0.05289 -1.957126,-0.317372 -2.962137,-1.692649 -0.10579,-1.481069 0.528953,-3.067928 0.581849,-1.533964 1.216592,-2.750556 0.105791,-0.264476 0.264477,-0.528953 0.10579,-0.264476 0.211581,-0.476057 -2.168707,0.0529 -4.39031,0.158686 -2.221603,0.10579 -4.178729,0.528953 -1.957126,0.476057 -3.226613,1.428173 -1.481069,-0.211582 -3.173719,-0.634744 -1.745544,-0.370267 -3.226613,-1.322382 -1.481068,-0.899221 -2.221603,-2.697661 z m 8.78062,-8.251667 q 0.846325,-0.634744 1.745545,-1.005011 0.846325,-0.370267 1.375278,-1.322382 0,-1.163697 0.264477,-2.803451 0.264476,-1.586859 0.634743,-3.226614 0.317372,-1.639754 0.740535,-2.962137 1.322382,0.687639 3.279508,0.528953 1.957127,-0.158685 4.178729,-0.528953 -0.10579,-0.476057 0.0529,-0.846324 0.158685,-0.370267 0.423162,-0.634744 1.216592,0.528953 2.010021,1.428173 0.740535,0.89922 1.322383,2.115812 -0.158686,0.846325 -0.264477,2.274498 -0.10579,1.428173 0,2.962137 0.0529,1.586859 0.423163,2.856346 0.370267,1.322383 1.163696,1.904231 -1.216591,0.740534 -2.856346,0.952116 -1.692649,0.264476 -3.438194,0.370267 -1.745545,0.158686 -3.120823,0.528953 L 39.358838,53.3944 q -2.115812,0.105791 -4.178729,-0.740534 -2.062917,-0.846325 -2.909242,-2.59187 z m 7.299552,0.158686 q 0.476058,-0.105791 1.481069,-0.264477 0.952115,-0.10579 2.010021,-0.370267 1.057906,-0.211581 1.851336,-0.634743 -0.0529,-1.057906 -0.105791,-2.697661 -0.05289,-1.586859 -0.105791,-3.015032 -0.05289,-1.375278 0,-1.904231 -0.211581,0 -0.476057,0 -0.264477,0.0529 -0.528953,0.105791 -0.89922,0.10579 -1.904231,0.158686 -1.057906,0.10579 -1.904231,0 -0.264477,1.692649 -0.423162,4.125833 -0.158686,2.486079 0.10579,4.496101 z M 70.24969,33.770243 q 1.904231,0.423163 2.856346,1.533964 0.952116,1.110801 1.322383,2.750556 0.370267,1.692649 0.687639,3.649775 0.05289,0.528953 -0.317372,0.740535 -0.423162,0.264476 -0.687639,0.158685 Q 73.370513,41.91612 72.735769,41.12269 72.04813,40.329261 71.096015,39.800307 70.619957,38.319239 70.355481,36.73238 70.091004,35.145521 70.24969,33.770243 Z M 59.935106,61.857648 q 0,0.158686 0,0.476058 -0.05289,0.687639 0.0529,1.533964 0.05289,0.846325 0.528953,1.79844 1.00501,0.211581 2.115812,-0.158686 1.057906,-0.317372 1.904231,-0.687639 0.05289,-0.740534 0.10579,-1.375278 0,-0.634743 0,-1.216592 0,-0.317371 0,-0.634743 0,-0.317372 0,-0.581848 -1.057906,0.158685 -2.486079,0.370267 -1.428173,0.264476 -2.221603,0.476057 z M 59.723525,49.374357 q 0,0.89922 0.05289,1.851336 0,1.00501 0.0529,1.851335 1.216592,0 2.644765,-0.317372 1.428173,-0.317371 2.221602,-0.423162 0,-0.476058 0,-0.952115 0,-0.423163 0,-0.846325 0,-0.581849 0,-1.110802 0,-0.476057 0.0529,-0.846324 -1.057906,0.158686 -2.486079,0.423162 -1.428174,0.317372 -2.538975,0.370267 z m 5.18374,-13.065139 q 1.322382,-0.264477 2.433184,0.634743 1.057906,0.89922 1.639754,2.433184 0.581848,1.586859 0.476058,3.226613 -2.274498,-0.264476 -3.332404,-2.168707 -1.110802,-1.904231 -1.216592,-4.125833 z m -5.18374,19.624157 q 0,0.634743 0,1.481068 0,0.89922 0.105791,1.69265 0.687639,-0.211582 2.221602,-0.423163 1.533964,-0.211581 2.59187,-0.476057 0,-0.317372 0,-0.79343 0,-0.423162 0,-0.89922 0.05289,-0.370267 0.05289,-0.740534 0,-0.317372 0,-0.687639 -1.057906,0.10579 -2.486079,0.423162 -1.428173,0.317372 -2.486079,0.423163 z m 1.057906,-18.777833 q 1.322383,0.105791 2.327393,1.005011 0.952116,0.89922 1.322383,2.221603 0.370267,1.322382 0,2.69766 -1.057906,-0.476058 -2.062917,-1.269487 -1.005011,-0.79343 -1.533964,-1.957126 -0.528953,-1.163697 -0.05289,-2.697661 z M 56.972969,37.6316 q 1.322383,0.158686 2.168708,1.163697 0.793429,1.057906 1.110801,2.486079 0.317372,1.428173 0.158686,2.644765 -1.110801,-0.476058 -2.168707,-1.586859 -1.057906,-1.057906 -1.533964,-2.380289 -0.476058,-1.269487 0.264476,-2.327393 z"
       style="-inkscape-font-specification:'Yuji Boku'"
       id="path1197" /></g></svg>
