<?xml version="1.0" encoding="UTF-8" standalone="no"?>
<svg
   xmlns:dc="http://purl.org/dc/elements/1.1/"
   xmlns:cc="http://creativecommons.org/ns#"
   xmlns:rdf="http://www.w3.org/1999/02/22-rdf-syntax-ns#"
   xmlns:svg="http://www.w3.org/2000/svg"
   xmlns="http://www.w3.org/2000/svg"
   xmlns:sodipodi="http://sodipodi.sourceforge.net/DTD/sodipodi-0.dtd"
   xmlns:inkscape="http://www.inkscape.org/namespaces/inkscape"
   width="52.101"
   height="60"
   version="1.1"
   id="svg5250"
   sodipodi:docname="0KA.svg"
   inkscape:version="0.92.4 (5da689c313, 2019-01-14)"
   inkscape:export-filename="D:\Pictures\Chess Variants\Shogi\pieces\Kanji\Hybrid\0HI.png"
   inkscape:export-xdpi="198.53"
   inkscape:export-ydpi="198.53">
  <metadata
     id="metadata5256">
    <rdf:RDF>
      <cc:Work
         rdf:about="">
        <dc:format>image/svg+xml</dc:format>
        <dc:type
           rdf:resource="http://purl.org/dc/dcmitype/StillImage" />
        <dc:title />
      </cc:Work>
    </rdf:RDF>
  </metadata>
  <defs
     id="defs5254" />
  <sodipodi:namedview
     pagecolor="#ffffff"
     bordercolor="#666666"
     borderopacity="1"
     objecttolerance="10"
     gridtolerance="10"
     guidetolerance="10"
     inkscape:pageopacity="0"
     inkscape:pageshadow="2"
     inkscape:window-width="1920"
     inkscape:window-height="1017"
     id="namedview5252"
     showgrid="false"
     inkscape:zoom="7.8666665"
     inkscape:cx="2.6470045"
     inkscape:cy="8.2903397"
     inkscape:window-x="1912"
     inkscape:window-y="-8"
     inkscape:window-maximized="1"
     inkscape:current-layer="svg5250" />
  <!--
Created by Hari Seldon and modified by orangain, licensed under Creative Commons Attribution-Share Alike 3.0 Unported.
See: https://creativecommons.org/licenses/by-sa/3.0/deed.en

Original file is available at: https://commons.wikimedia.org/wiki/File:Shogi_hisha(svg).svg
-->
  <filter
     id="drop-shadow">
    <feGaussianBlur
       in="SourceAlpha"
       result="blur"
       stdDeviation="2"
       id="feGaussianBlur5225" />
    <feOffset
       result="offsetBlur"
       dx="2"
       dy="2"
       id="feOffset5227" />
    <feBlend
       in="SourceGraphic"
       in2="offsetBlur"
       mode="normal"
       id="feBlend5229" />
  </filter>
  <g
     filter="url(#drop-shadow)"
     transform="translate(5 5)"
     id="g5248"
     style="fill:#ffcdf4;fill-opacity:1">
    <path
       d="M 18.495,1.628 C 15.039,2.557 11.518,3.326 8.168,4.576 L 0.946,49.122 40.856466,49.12156 33.863,4.583 21.028,0.983 Z"
       id="path5232"
       style="fill:#ffcdf4;fill-opacity:1"
       inkscape:connector-curvature="0"
       sodipodi:nodetypes="ccccccc" />
  </g>
  <path
     style="opacity:0.92;fill:#ffffff;stroke:none;stroke-width:1px;stroke-linecap:butt;stroke-linejoin:miter;stroke-opacity:1"
     d="M 6.5594775,50.14627 5.946,54.122 9.4641312,54.152239 39.24094,11.640944 38.863,9.583 36.276919,8.7604617 Z"
     id="path7520"
     inkscape:connector-curvature="0"
     sodipodi:nodetypes="ccccccc" />
  <path
     sodipodi:nodetypes="ccccccc"
     inkscape:connector-curvature="0"
     id="path10009"
     d="m 45.280844,50.075711 0.575622,4.045849 -3.289597,0.02368 L 12.79006,11.633944 13.168,9.576 15.754081,8.7534617 Z"
     style="opacity:0.92;fill:#ffffff;stroke:none;stroke-width:1px;stroke-linecap:butt;stroke-linejoin:miter;stroke-opacity:1" />
  <g
     transform="translate(0.30693164,-0.70317427)"
     aria-label="角"
     style="font-style:normal;font-variant:normal;font-weight:normal;font-stretch:normal;font-size:26.66666603px;line-height:1.25;font-family:KaiTi;-inkscape-font-specification:KaiTi;letter-spacing:0px;word-spacing:0px;fill:#000000;fill-opacity:1;stroke:none;stroke-width:1;stroke-miterlimit:4;stroke-dasharray:none"
     id="text6451">
    <path
       inkscape:connector-curvature="0"
       d="m 23.867525,18.750001 q 1.166667,0 3.354167,-0.4375 2.333333,-0.4375 3.062499,-0.729167 0.875,-0.4375 1.895834,-0.145833 1.020833,0.291667 2.1875,1.166667 1.3125,0.729166 -0.729167,1.3125 -2.041667,0.583333 -7,5.541666 3.645833,-0.729167 4.375,-1.166667 0.875,-0.4375 1.895833,-0.145833 1.020834,0.291667 2.479167,1.166667 1.458333,0.875 0.875,1.604166 -0.4375,0.729167 -0.583333,3.0625 0,2.333333 0.291666,7.145833 0.4375,4.666667 0.291667,6.5625 -0.145833,1.75 -1.604167,2.916667 -1.458333,1.3125 -1.895833,0 -0.4375,-1.3125 -2.041667,-2.770834 -1.604166,-1.458333 0.145834,-0.875 1.895833,0.4375 2.479166,0.291667 0.729167,-0.291667 0.583334,-4.520833 -0.145834,-4.229167 -0.4375,-7.583333 -0.145834,-3.354167 -0.4375,-4.229167 -0.291667,-1.020833 -1.3125,-1.020833 -0.875,-0.145833 -5.979167,0.729167 1.3125,0.875 1.020834,1.604166 -0.145834,0.583334 -0.145834,2.333333 l 2.333333,-0.583333 q 1.166667,-0.291666 1.75,0.291667 0.729167,0.583333 -0.583333,1.020833 -1.3125,0.4375 -3.5,0.875 V 35.8125 q 1.75,-0.291666 2.770833,-0.4375 1.166667,-0.291666 2.041667,0.291667 0.875,0.583333 -0.583333,1.020833 -1.458334,0.291667 -4.229167,0.875 0.145834,2.770833 -0.145833,5.395833 -0.145833,2.479167 -0.729167,2.625 -0.583333,0.145834 -0.729166,-2.041666 0,-2.333334 -0.145834,-5.6875 -1.604166,0.291667 -2.479166,0.4375 -0.875,0.145833 -2.041667,-0.583333 -1.166667,-0.729167 0,-0.875 1.3125,-0.145834 4.520833,-0.729167 v -3.5 q -2.916666,0.4375 -3.791666,-0.145833 -0.875,-0.583334 0.145833,-0.729167 1.020833,-0.291667 3.645833,-0.875 0,-3.208333 -0.729166,-3.9375 l -4.375,0.583334 q -0.291667,5.833333 -0.729167,8.895833 -0.4375,2.916666 -1.3125,5.541666 -0.875,2.479167 -3.645833,3.791667 -2.625,1.458333 -0.583333,-0.583334 2.041666,-1.895833 2.916666,-4.958333 0.875,-3.0625 1.020834,-7.4375 0.291666,-4.374999 -0.291667,-5.395833 -0.583333,-1.166666 0.291667,-1.020833 0.875,0.145833 1.749999,0.145833 0.875,0 5.6875,-0.729166 2.333334,-2.916667 3.645834,-4.375 1.312499,-1.458333 0.874999,-1.75 -0.4375,-0.4375 -1.458333,-0.145833 -0.875,0.145833 -2.1875,0.4375 -1.166666,0.145833 -2.625,-0.4375 -3.645833,3.937499 -6.708333,5.541666 -3.0625,1.458333 -0.875,-0.291667 2.1875,-1.75 3.9375,-3.791666 1.75,-2.1875 2.1875,-3.208333 0.583333,-1.166667 0.4375,-2.1875 0,-1.020834 1.166667,-0.583334 1.166666,0.4375 1.895833,1.020834 0.875,0.583333 0.145833,1.166666 -0.583333,0.583334 -1.458333,1.604167 z"
       style="font-size:37.33333206px;stroke:#000000;stroke-width:1;stroke-miterlimit:4;stroke-dasharray:none;stroke-opacity:1"
       id="path6471" />
  </g>
</svg>
