<?xml version="1.0" encoding="UTF-8" standalone="no"?>
<svg
   xmlns:dc="http://purl.org/dc/elements/1.1/"
   xmlns:cc="http://creativecommons.org/ns#"
   xmlns:rdf="http://www.w3.org/1999/02/22-rdf-syntax-ns#"
   xmlns:svg="http://www.w3.org/2000/svg"
   xmlns="http://www.w3.org/2000/svg"
   xmlns:sodipodi="http://sodipodi.sourceforge.net/DTD/sodipodi-0.dtd"
   xmlns:inkscape="http://www.inkscape.org/namespaces/inkscape"
   width="52.172"
   height="60"
   version="1.1"
   id="svg2225"
   sodipodi:docname="0KY.svg"
   inkscape:version="0.92.4 (5da689c313, 2019-01-14)">
  <metadata
     id="metadata2231">
    <rdf:RDF>
      <cc:Work
         rdf:about="">
        <dc:format>image/svg+xml</dc:format>
        <dc:type
           rdf:resource="http://purl.org/dc/dcmitype/StillImage" />
        <dc:title />
      </cc:Work>
    </rdf:RDF>
  </metadata>
  <defs
     id="defs2229" />
  <sodipodi:namedview
     pagecolor="#ffffff"
     bordercolor="#666666"
     borderopacity="1"
     objecttolerance="10"
     gridtolerance="10"
     guidetolerance="10"
     inkscape:pageopacity="0"
     inkscape:pageshadow="2"
     inkscape:window-width="958"
     inkscape:window-height="1008"
     id="namedview2227"
     showgrid="false"
     inkscape:zoom="0.98333334"
     inkscape:cx="-31.778996"
     inkscape:cy="203.1599"
     inkscape:window-x="2873"
     inkscape:window-y="0"
     inkscape:window-maximized="0"
     inkscape:current-layer="svg2225" />
  <!--
Created by Hari Seldon and modified by orangain, licensed under Creative Commons Attribution-Share Alike 3.0 Unported.
See: https://creativecommons.org/licenses/by-sa/3.0/deed.en

Original file is available at: https://commons.wikimedia.org/wiki/File:Shogi_keima(svg).svg
-->
  <filter
     id="drop-shadow">
    <feGaussianBlur
       in="SourceAlpha"
       result="blur"
       stdDeviation="2"
       id="feGaussianBlur2200" />
    <feOffset
       result="offsetBlur"
       dx="2"
       dy="2"
       id="feOffset2202" />
    <feBlend
       in="SourceGraphic"
       in2="offsetBlur"
       mode="normal"
       id="feBlend2204" />
  </filter>
  <g
     filter="url(#drop-shadow)"
     transform="translate(5 5)"
     id="g2223">
    <path
       d="M7.635 4.498l-6.729 44.856 40.488 -0.236 -6.846 -44.502 -14.047 -3.895z"
       fill="#FEEC99"
       id="path2207" />
  </g>
  <path
     style="fill:#ffffff;stroke:none;stroke-width:1px;stroke-linecap:butt;stroke-linejoin:miter;stroke-opacity:1;opacity:1"
     d="m 25.501,5.721 -2.849613,0.8864458 -0.08989,15.8200162 5.84262,-2.516821 0,-13.3930817 z"
     id="path12754"
     inkscape:connector-curvature="0"
     sodipodi:nodetypes="cccccc" />
  <g
     aria-label="香"
     style="font-style:normal;font-variant:normal;font-weight:normal;font-stretch:normal;font-size:26.66666603px;line-height:1.25;font-family:KaiTi;-inkscape-font-specification:KaiTi;letter-spacing:0px;word-spacing:0px;fill:#000000;fill-opacity:1;stroke:none;stroke-width:0.99999994;stroke-miterlimit:4;stroke-dasharray:none"
     id="text2778-5">
    <path
       d="m 33.416421,25.459874 q 0.778646,0 1.523437,0.440104 0.778646,0.40625 1.117188,0.981771 0,0.236979 -0.473958,0.40625 l -6.33073,0.236979 q -0.880208,0.06771 -1.997396,0.270833 3.48698,2.708334 5.450521,3.588542 1.963542,0.880209 7.684896,2.606771 0.203125,0.101563 0.304688,0.203125 0.101562,0.101563 0.135417,0.101563 -0.135417,0.203125 -2.065105,0.57552 -1.895833,0.338542 -2.776041,0.338542 -1.151042,0 -2.843751,-1.21875 -1.658854,-1.21875 -3.791666,-3.25 -2.098959,-2.065104 -2.776042,-2.606771 -0.06771,0.541667 -0.06771,1.658854 0,1.184896 0.03385,1.963542 0,2.809896 -0.643229,2.809896 -0.473959,0 -0.710938,-0.846354 l -0.236979,-0.744792 q 0.236979,-1.388021 0.236979,-4.367188 -4.299479,5.789063 -9.546875,7.820313 -1.388021,0.507813 -2.132813,0.507813 -0.440104,0 -0.643229,-0.203125 0.06771,-0.03385 0.744792,-0.440105 0.710937,-0.40625 0.98177,-0.541666 0.270834,-0.169271 1.015625,-0.609375 0.778646,-0.473959 1.184896,-0.744792 0.440105,-0.304687 1.184896,-0.8125 0.744792,-0.507812 1.21875,-0.880208 0.473959,-0.40625 1.117188,-0.981771 0.677083,-0.575521 1.151042,-1.083334 0.473958,-0.507812 0.98177,-1.117187 0.507813,-0.609375 0.880209,-1.21875 -1.861979,0.169271 -3.48698,0.643229 -1.591145,0.440104 -1.929687,0.440104 h -0.101563 q -1.083333,0 -1.794271,-0.880208 0,-0.236979 0.406251,-0.304688 l 8.700521,-1.21875 q 0,-2.505208 -0.575521,-3.588541 -0.507813,0.06771 -2.369792,0.541666 l -0.8125,0.169271 -1.151042,0.169271 v -0.372396 q 3.013021,-1.117188 4.671875,-1.963542 1.692709,-0.846354 2.166667,-1.320312 0.473959,-0.507813 0.507813,-1.015625 l 0.101562,-0.135417 q 0.880209,0 2.03125,0.744792 1.184896,0.710937 1.184896,1.049479 0,0.304687 -0.440104,0.40625 -0.40625,0.06771 -1.726563,0.372396 -1.320312,0.270833 -2.809895,0.947916 1.049479,0.541667 1.184895,0.744792 l 0.203125,0.40625 0.03385,0.236979 q -0.609375,1.117188 -0.64323,2.26823 1.997396,-0.304688 4.401042,-0.744792 l 2.065104,-0.440104 h 0.169271 z M 20.281004,35.649978 q 0.236979,0 0.710937,0.236979 0.507813,0.23698 0.643229,0.372396 4.604167,-0.507812 7.651042,-1.929687 1.963542,0.575521 2.911459,1.861979 -0.03385,0.135417 -0.372396,0.710938 -0.304688,0.541666 -0.304688,0.846354 l 0.304688,5.315104 q 0,3.690104 -1.557292,4.841146 l -0.473958,-0.06771 -1.895834,-2.911459 q -3.486979,0.03385 -6.026041,0.541667 -0.203125,0.778646 -0.677084,1.151042 -0.473958,-0.203125 -0.778646,-0.880209 -0.304687,-0.643229 -0.304687,-1.286458 0,-0.135417 0.338541,-1.184896 0.338542,-1.083333 0.338542,-2.572917 0,-3.182291 -0.914062,-4.773437 0.101562,-0.270834 0.40625,-0.270834 z m 9.377604,3.927084 q 0,-1.929688 -0.101562,-2.640625 -0.06771,-0.710938 -0.304688,-0.880209 -0.203125,-0.203125 -0.8125,-0.203125 -0.372396,0.03385 -2.505208,0.575521 -2.132813,0.507813 -3.622396,0.778646 l -0.101563,0.236979 v 2.809896 l 3.182292,-0.914062 q 0.575521,-0.169271 0.981771,-0.169271 0.947917,0 1.591146,0.677083 0,0.372396 -0.135417,0.507813 l -5.28125,0.744791 q -0.270833,0 -0.40625,0.03385 0,2.505209 -0.03385,3.216146 l 4.130208,-0.846354 q 0.744792,-0.06771 0.981771,-0.06771 1.015625,0 1.726563,0.914062 0.710937,-0.06771 0.710937,-4.773437 z"
       style="font-style:normal;font-variant:normal;font-weight:normal;font-stretch:normal;font-size:34.66666794px;font-family:'cwTeX Q Kai';-inkscape-font-specification:'cwTeX Q Kai';stroke:#000000;stroke-width:0.99999994;stroke-miterlimit:4;stroke-dasharray:none;stroke-opacity:1"
       id="path3442" />
  </g>
</svg>
