<svg xmlns="http://www.w3.org/2000/svg" viewBox="0 0 60 60"><filter id="a"><feGaussianBlur in="SourceAlpha" result="blur" stdDeviation="2"/><feOffset result="offsetBlur" dx="2" dy="2"/><feBlend in="SourceGraphic" in2="offsetBlur"/></filter><g filter="url(#a)" transform="translate(9.007 5)" fill="#ffeda5"><path d="M20.915 1.05c-4.162 1.262-8.667 2.126-12.838 3.608l-7.051 44.45H40.96L34.17 4.945 20.915 1.049z"/></g><path d="m45.708 26.24.734 5.092-4.944-2.122zM29.922 6.05l-2.698.698 2.726 4.74 2.534-4.747zM17.084 9.658l-.448 2.92 4 1.04-1.077-4.735zm26.093.287.448 2.92-3.788.97.84-4.64zM14.4 26.472l-.785 5.042 4.873-2.193zm13.031 27.606 5.138.042-2.811-5.341zm-16.711-4.26-.687 4.29 3.922.005 1.062-5.572zm38.636.292.611 3.998-3.571-.052-1.343-5.318z" fill="#fff"/><g style="line-height:1.25;-inkscape-font-specification:KaiTi"><path style="-inkscape-font-specification:'cwTeX Q Kai'" d="M24.45 23.967c-1.723 0-4.416-.63-5.25-1.463 0-.194 1.5-.12 1.666-.204.194-.083.611-.153 1.25-.208.667-.084 1.43-.167 2.292-.25.889-.084 2.222-.278 4-.584 1.777-.305 3.694-.694 5.75-1.166a5.693 5.693 0 0 1 1.458-.167c1.222 0 2.153.375 2.792 1.125.027.278-.028.5-.167.667-.139.138-.458.277-.958.416-.5.111-1.028.209-1.584.292-.527.055-1.375.18-2.541.375-1.167.194-2.306.403-3.417.625.694.361 1.042.917 1.042 1.667l-.209 2.25-.125 4.041v.042l4.004-.58c.167-.027 1.309-.253 1.587-.253 1.083 0 1.875.347 2.375 1.041-.028.39-.542.722-1.542 1s-3.243.5-4.465.667c-1.223.139-1.861.222-1.917.25l-.125.208-.25 8.209c3.25-.223 5.93-.473 8.042-.75l3.583-.625h.292c.805 0 1.652.43 2.541 1.291.917.834 1.375 1.472 1.375 1.917-.11.194-.389.292-.833.292-.417 0-2.236-.153-5.458-.459l-2.667-.166c-2.306 0-5.528.194-9.667.583-4.139.389-6.357.784-7.857 1.256l-1.875.542a.682.682 0 0 0-.166.042h-.167c-.556 0-1.153-.209-1.792-.625-.639-.417-1.11-.89-1.416-1.417 0-.306.083-.528.25-.667l.19.036c1.611.3 3.833-.167 6.583-.5 2.75-.334 5-.5 6.75-.5h.167l.125-8.25-3.75.25c-1.222-.028-2.917-.234-3.528-.9 0-.306.18-.473.541-.5l2.654-.267 4.041-.542v-6.083c0-.806-.264-1.514-.791-2.125-1 .111-1.945.167-2.834.167z" font-size="42.667" font-family="cwTeX Q Kai" stroke="#000" aria-label="王" font-weight="400" letter-spacing="0" word-spacing="0"/></g></svg>