<svg xmlns="http://www.w3.org/2000/svg" width="60" height="60"><filter id="a"><feGaussianBlur in="SourceAlpha" result="blur" stdDeviation="2"/><feOffset result="offsetBlur" dx="2" dy="2"/><feBlend in="SourceGraphic" in2="offsetBlur"/></filter><g filter="url(#a)" transform="translate(9.099 5)" fill="#ffd5f6"><path d="M18.495 1.628c-3.456.929-6.977 1.698-10.327 2.948L.946 49.122h39.91L33.863 4.583 21.028.983z"/></g><path d="M10.658 50.146l-.613 3.976 3.518.03L43.34 11.641l-.378-2.058-2.586-.823z" fill="#fff"/><path d="M49.38 50.076l.575 4.046-3.29.023L16.89 11.634l.378-2.058 2.586-.823zM45.014 22.803l2.441 15.339-6.111-8.999z" fill="#fff"/><g style="line-height:1.25;-inkscape-font-specification:KaiTi"><path d="M39.935 28.98c.632 0 1.227.182 1.786.546.584.34 1.021.778 1.313 1.313 0 .146-.182.425-.547.838-2.52 4.83-3.738 9.004-7.438 12.36-.705.656-1.324 1.069-1.859 1.239-.219-.024-.425-.219-.62-.583-.194-.34-.522-.875-.984-1.605a12.34 12.34 0 00-1.714-2.114v-.183c.195 0 .51.061.948.183.462.097.875.206 1.24.328.364.097.57.158.62.182.704-.097 1.93-.352 2.955-1.485 1.99-2.357 3.148-5.397 3.899-8.212 0-.535-.158-.888-.474-1.058-.292-.194-.814-.291-1.568-.291-.559 0-1.507.06-2.844.182h-.328c-3.791.34-7.692 1.13-11.703 2.37-.51-.268-.9-.608-1.166-1.021.631-3.573.947-6.55.947-8.932 0-1.75-.121-3.063-.364-3.938 0-.073-.122-.304-.365-.693-.243-.413-.364-.729-.364-.948 0-.243.097-.425.291-.546.462 0 1.155.28 2.078.838l.438.255c2.455-.121 5.031-.474 7.73-1.057l2.916-.73.656-.072h.146a.596.596 0 01.146-.037c.729 0 1.264.231 1.604.693.024.268-.085.45-.328.547-.243.097-.754.207-1.531.328a9.41 9.41 0 00-.584.073l-4.265.875c.486.267.729.778.729 1.531a.997.997 0 01-.037.22v.218l-.11.948 1.897-.438a1.984 1.984 0 011.349.219c.316.146.486.304.51.474l-.255.255-3.5.875c-.122.85-.182 1.787-.182 2.807l2.442-.62h.183a.596.596 0 01.145-.036c.487 0 .912.158 1.276.474.05.316-.133.56-.546.73-.414.17-1.021.315-1.823.437-.802.121-1.361.23-1.677.328l-.11 2.88 5.031-.656a12.75 12.75 0 011.094-.037l2.88-.255zM24.003 30.4c.121.219.498.328 1.13.328.632 0 1.446-.097 2.443-.291 1.02-.195 1.616-.292 1.786-.292v-2.698l-2.297.11-.984-.292c-.122-.073-.207-.207-.255-.401.218-.098.74-.207 1.567-.328.85-.122 1.507-.243 1.969-.365v-2.807c-.559.121-1.009.182-1.349.182-1.02 0-1.616-.255-1.786-.766.17-.073 1.215-.303 3.135-.692-.122-1.702-.292-2.759-.51-3.172-1.97.17-3.318.255-4.047.255-.486.9-.79 3.403-.912 7.51v.62c0 1.847.037 2.88.11 3.1zm7.51 2.37c.753.51 1.264.875 1.531 1.094.268.194.535.474.802.838.268.365.426.766.474 1.203-.194.778-.461 1.167-.802 1.167-.194 0-.437-.121-.729-.365-.267-.267-.595-.74-.984-1.421-.365-.705-.669-1.544-.912-2.516zm-2.661 3.646c0 .68-.195 1.094-.584 1.24-.534 0-1.033-.475-1.495-1.422-.437-.948-.656-1.69-.656-2.224.024-.025.085-.037.182-.037.365 0 .875.255 1.532.766.68.486 1.02 1.045 1.02 1.677zm-5.178 2.37c-.388-.073-.74-.462-1.057-1.167-.291-.705-.437-1.385-.437-2.042 0-.316.06-.57.182-.765.559 0 1.033.389 1.422 1.166.389.778.583 1.507.583 2.188-.194.291-.425.498-.693.62zM18.57 33.9c.243 0 .45.365.62 1.094.195.705.292 1.385.292 2.042 0 .948-.134 1.798-.401 2.552-.268.753-.717 1.13-1.35 1.13-.51-.56-.765-1.191-.765-1.896 0-.437.097-.924.292-1.458l.802-2.334c0-.024.024-.158.073-.4.048-.268.097-.45.146-.548.073-.121.17-.182.291-.182z" style="-inkscape-font-specification:'cwTeX Q Kai'" font-size="37.333" font-family="cwTeX Q Kai" fill="#fd0000" stroke="#fd0000" aria-label="ждг" font-weight="400" letter-spacing="0" word-spacing="0"/></g><path d="M30.127 5.983l-2.698.698 2.725 4.74 2.535-4.747zM15.143 23.26L13.011 35.58l5.682-6.327zM27.064 54.074l6.218.043-3.32-5.405z" fill="#fff"/></svg>