<svg xmlns="http://www.w3.org/2000/svg" width="60" height="60"><filter id="a"><feGaussianBlur in="SourceAlpha" result="blur" stdDeviation="2"/><feOffset result="offsetBlur" dx="2" dy="2"/><feBlend in="SourceGraphic" in2="offsetBlur"/></filter><g filter="url(#a)" transform="translate(8.64 5)"><path d="M33.933 45.424L41.108.942H1.61l6.628 44.475 12.835 3.6z" fill="#ffd5f6"/></g><path d="M49.182 9.854l.614-3.976-3.518-.03L16.5 48.359l.378 2.058 2.586.823z" opacity=".983" fill="#fff"/><path d="M10.798 9.97l-.547-4.028 2.991.003 29.71 42.421-.378 2.058-2.65.727zM14.827 37.197L12.639 21.89l5.858 8.967z" opacity=".983" fill="#fff"/><g style="line-height:1.25;-inkscape-font-specification:KaiTi"><path d="M20.065 31.336a3.214 3.214 0 01-1.786-.547c-.584-.34-1.021-.778-1.313-1.312 0-.146.182-.426.547-.839 2.52-4.83 3.738-9.003 7.438-12.359.705-.656 1.324-1.07 1.859-1.24.219.025.425.22.62.584.194.34.522.875.984 1.604a12.34 12.34 0 001.714 2.115v.182c-.195 0-.51-.06-.948-.182a11.308 11.308 0 01-1.24-.329c-.364-.097-.57-.157-.62-.182-.704.097-1.93.353-2.955 1.486-1.99 2.356-3.148 5.396-3.899 8.212 0 .535.158.887.474 1.057.292.195.814.292 1.568.292.559 0 1.507-.061 2.844-.183h.328c3.791-.34 7.692-1.13 11.703-2.37.51.268.9.608 1.166 1.022-.631 3.572-.947 6.55-.947 8.932 0 1.75.121 3.062.364 3.937 0 .073.122.304.365.693.243.413.364.73.364.948a.602.602 0 01-.291.547c-.462 0-1.155-.28-2.078-.839l-.438-.255c-2.455.122-5.031.474-7.73 1.057l-2.916.73-.656.072h-.146a.596.596 0 01-.146.037c-.729 0-1.264-.231-1.604-.693-.024-.267.085-.45.328-.547.243-.097.754-.206 1.531-.328a9.41 9.41 0 00.584-.073l4.265-.875c-.486-.267-.729-.778-.729-1.531 0-.049.012-.122.037-.219v-.218l.11-.948-1.897.437a1.984 1.984 0 01-1.349-.219c-.316-.145-.486-.303-.51-.474l.255-.255 3.5-.875c.122-.85.182-1.786.182-2.807l-2.442.62h-.183a.596.596 0 01-.145.036c-.487 0-.912-.158-1.276-.474-.05-.316.133-.559.546-.729.414-.17 1.021-.316 1.823-.437.802-.122 1.361-.231 1.677-.329l.11-2.88-5.031.656a12.75 12.75 0 01-1.094.037l-2.88.255zm15.932-1.422c-.121-.219-.498-.328-1.13-.328-.632 0-1.446.097-2.443.292-1.02.194-1.616.291-1.786.291v2.698l2.297-.109.984.292c.122.073.207.206.255.4-.218.098-.74.207-1.567.329-.85.121-1.507.243-1.969.364v2.808c.559-.122 1.009-.183 1.349-.183 1.02 0 1.616.256 1.786.766-.17.073-1.215.304-3.135.693.122 1.701.292 2.758.51 3.172 1.97-.17 3.318-.256 4.047-.256.486-.899.79-3.402.912-7.51v-.62c0-1.847-.037-2.88-.11-3.099zm-7.51-2.37c-.753-.51-1.264-.875-1.531-1.093-.268-.195-.535-.474-.802-.839a2.464 2.464 0 01-.474-1.203c.194-.778.461-1.167.802-1.167.194 0 .437.122.729.365.267.267.595.741.984 1.422.365.705.669 1.543.912 2.515zm2.661-3.645c0-.681.195-1.094.584-1.24.534 0 1.033.474 1.495 1.422.437.948.656 1.69.656 2.224-.024.024-.085.036-.182.036-.365 0-.875-.255-1.532-.765-.68-.486-1.02-1.045-1.02-1.677zm5.178-2.37c.388.073.74.462 1.057 1.166.291.705.437 1.386.437 2.042 0 .316-.06.571-.182.766-.559 0-1.033-.39-1.422-1.167-.389-.778-.583-1.507-.583-2.187.194-.292.425-.499.693-.62zm5.104 4.885c-.243 0-.45-.364-.62-1.094a7.668 7.668 0 01-.292-2.041c0-.948.134-1.799.401-2.552.268-.754.717-1.13 1.35-1.13.51.559.765 1.19.765 1.895 0 .438-.097.924-.292 1.459l-.802 2.333c0 .024-.024.158-.073.401-.048.267-.097.45-.146.547-.073.121-.17.182-.291.182z" style="-inkscape-font-specification:'cwTeX Q Kai'" font-size="37.333" font-family="cwTeX Q Kai" fill="#fd0000" stroke="#fd0000" aria-label="ждг" font-weight="400" letter-spacing="0" word-spacing="0"/></g><path d="M29.714 54.017l2.602-.73-2.63-4.708-2.534 4.747zM44.697 36.74L46.83 24.42l-5.681 6.327zM32.776 5.926l-6.217-.043 3.319 5.405z" opacity=".983" fill="#fff"/></svg>