<svg xmlns="http://www.w3.org/2000/svg" viewBox="0 0 68 68"><path d="m23.91 54.38.32 2.88q1.16 0 2.18-.06 1.02-.06 2.11-.2v-2.94q-2.05 0-4.6.32zm19.97 0q-.96 0-2.11-.12-1.09-.2-1.98-.2v3.08q.96 0 1.85.06.9.06 1.99.06zm-23.68-4.6q.7-.39 1.73-.77 1.02-.45 2.75-.96 2.3-.77 4.35-1.15 2.12-.39 3.65-.52V35Q31.4 29.04 30 23.8q-1.4-5.25-3.9-6.01-2.88-.77-6.72-.45-3.78.32-5 .9-1.34.7-3.38 2.62Q9 22.7 8.23 25q-.83 2.43-1.08 4.35l-.32 3.14q0 2.5 1.08 7.1.64 2.3 1.73 3.97 1.15 1.66 3.33 3.39 1.92 1.66 3.71 2.18 1.8.44 3.52.64zm13.9-21.44q.58-2.7 1.22-5.12.7-2.5 1.66-4.42 0-.64-.58-1.8-.5-.95-1.15-1.78-.57-.84-1.02-1.8-1.6 2.18-2.3 3.59-.58 1.02-.71 1.47-.06.45-.06.83 1.72 3.52 2.94 9.03zm16.26 24.19q.5 5.5 1.28 12.16h-35.6q.39-3.33.7-6.47.33-3.13.71-5.7-1.54-.31-3.07-.95-1.54-.7-3.4-2.11-2.55-2.12-3.9-4.16-1.34-2.05-2.11-4.93-1.22-4.74-1.22-8 .07-1.35.32-3.52.32-2.18 1.41-4.93.9-2.88 3.46-5.25t4.22-3.07q1.47-.77 5.95-1.22 4.48-.44 7.75.45 1.53.64 1.98 1.22.77-1.35 1.8-2.82l2.04-2.88V9.26h-2.94V6.2h2.94V3.31h2.95V6.2h2.75v3.07h-2.75v1.1q.9 1.34 1.85 2.8 1.03 1.42 1.8 2.76.44-.32.89-.58.51-.25.96-.5 3.33-.9 7.74-.46 4.48.45 6.15 1.22 1.47.7 4.03 3.07 2.56 2.37 3.65 5.25.9 2.75 1.21 4.93.32 2.17.32 3.52.13 3.2-1.21 8-.77 2.88-2.11 4.93-1.28 2.04-3.9 4.16-1.93 1.53-3.53 2.24-1.6.64-3.13.83zm-16.13-.32-1.73 1.73-1.47 1.53q.19.39 1.47 1.73 1.34 1.28 1.73 1.47.06-.19 1.34-1.47l1.73-1.73q-.38-.19-1.73-1.53-1.28-1.35-1.34-1.73zm1.21-5.83q1.6 0 4.16.26t3.84.83l2.05 1.03q1.15.57 2.3 1.28 1.73-.13 3.46-.58 1.8-.51 3.9-2.24 3.91-3.26 4.93-7.36 1.22-4.54 1.1-7.1 0-1.22-.26-3.14-.26-1.92-1.16-4.35-.83-2.3-2.88-4.16-2.04-1.92-3.26-2.63-1.34-.57-5-.9-3.64-.31-6.52.46-2.56.76-3.97 6.01-1.34 5.25-2.69 11.2zm-16.32-.19-2.17-.9q-2.11-.89-3.01-2.3-1.34-1.28-2.62-4.16-1.1-2.43-1.22-6.33-.26-2.05.51-4.74.77-2.69 1.6-3.84 1.92-2.69 5.89-3.4 2.05-.18 4.16-.06 2.18.07 2.88.84.38.44 1.02 2.5t1.28 4.47q.7 2.43 1.22 4.74.51 2.24.64 3.07.32 1.73.26 3.71-.07 1.92-.07 3.52zm30.02.32-10.3-2.75q0-1.6-.13-3.52-.07-1.98.32-3.9.06-.84.57-3.08t1.16-4.6q.64-2.44 1.28-4.42.7-2.05 1.08-2.5.7-.76 2.88-.9 2.24-.18 4.23.14 4.1.5 5.82 3.39.77 1.15 1.54 3.84.83 2.69.64 4.8-.2 3.84-1.22 6.14-.51 1.41-1.34 2.56-.83 1.15-1.28 1.73-.96 1.28-3.14 2.18zM22.06 58.03l-.58-3.07-2.17.64-.2 3.4zm23.55-.13 3.07.9-.32-3.2-2.11-.64z"/><path fill="#fff" fill-rule="evenodd" d="M19.28 57.29v-1.63l1.04-.29a5.72 5.72 0 0 1 1.09-.24c.14.13.54 2.76.44 2.86-.06.06-.57.26-1.12.43l-1.23.4c-.17.07-.22-.31-.22-1.53zm5.01-.26c-.04-.14-.12-.75-.19-1.36-.09-.89-.05-1.14.16-1.22.14-.06 1.17-.16 2.28-.23l2.01-.13v1.38a4.4 4.4 0 0 1-.14 1.47c-.08.05-1.02.14-2.09.22-1.58.1-1.96.08-2.02-.13zm8.2.01-1.45-1.47 1.52-1.53c.84-.84 1.57-1.51 1.62-1.49.05.03.75.73 1.54 1.55l1.45 1.51-1.44 1.45c-.8.8-1.53 1.45-1.63 1.45-.1 0-.83-.66-1.62-1.47zm8.1.06-.77-.07V54.1l1.32.12a46.88 46.88 0 0 1 2.02.24c.7.1.7.11.6.76-.07.36-.12.96-.12 1.34v.68l-1.14-.03a38.58 38.58 0 0 1-1.9-.1zm6.36 1.18c-.95-.27-1.3-.45-1.23-.62.05-.14.2-.78.31-1.43.17-.93.28-1.16.5-1.1 1.8.51 1.84.53 1.84.93 0 .22.05.9.12 1.51.06.63.04 1.11-.05 1.1-.09 0-.76-.18-1.49-.39zM46 48.75c-2.91-1.64-4.43-2.06-8.59-2.34l-1.95-.13V35.1l.82-3.52c2.3-9.8 3.24-12.28 5.08-13.32.9-.52 1.25-.6 3.4-.83 1.88-.2 5.16.02 7.33.47 1.62.33 2.75 1.08 4.92 3.25 1.84 1.85 2.49 2.97 3.25 5.66a22.9 22.9 0 0 1-.53 13.65 13.48 13.48 0 0 1-3.4 5.28c-2.16 2.15-3.75 3.12-5.82 3.58-2.44.54-2.6.52-4.5-.56zm4.82-2.88a8.78 8.78 0 0 0 4.23-3.25c1.9-2.5 2.78-4.93 3.14-8.6.24-2.42.06-4.01-.74-6.45-.94-2.89-2.07-4.56-3.72-5.53-1.71-1-5.73-1.58-8.24-1.19-1.7.27-2.3.59-2.73 1.43-.9 1.75-3.2 10.23-3.76 13.78-.2 1.25-.27 2.75-.23 4.8l.05 2.97 4.91 1.33c2.7.73 5.07 1.33 5.27 1.33s1.02-.27 1.81-.62zM18.19 49.4c-.95-.2-2.14-.55-2.64-.78-1.94-.9-5-3.7-6.16-5.63-1.14-1.9-2.18-5.88-2.41-9.2-.19-2.78.7-7.75 1.78-9.89.87-1.75 3.23-4.17 5.18-5.32 2.01-1.2 8.77-1.64 11.93-.78.4.1 1.08.52 1.52.93 1.52 1.4 2.34 3.7 4.24 11.92l.92 3.97v11.7l-.68.1c-4.1.62-8.75 1.88-10.81 2.93a4.8 4.8 0 0 1-1 .42c-.08 0-.92-.18-1.87-.37zm6.24-4.6c2.69-.75 4.93-1.4 4.99-1.46.21-.21.26-4.83.06-6.29-.42-3.1-2.9-12.68-3.86-14.92a2.11 2.11 0 0 0-1.23-1.3c-.76-.37-1.1-.41-3.48-.41-2.9 0-3.99.2-5.76 1.03-2.35 1.1-3.76 3.12-4.7 6.79-.44 1.67-.47 2.02-.37 4.36.06 1.6.24 3.11.47 4.06.68 2.82 3.13 6.8 4.83 7.86.98.6 3.74 1.79 3.97 1.7.1-.04 2.4-.68 5.08-1.43zm9.5-17.38a49.49 49.49 0 0 0-1.95-6.27c-.53-1.32-.7-2-.65-2.46.1-.7 1.22-2.83 2.24-4.24l.64-.88.6.97 1.14 1.88c1.05 1.7 1.08 2.04.35 3.85a54.72 54.72 0 0 0-1.97 6.7l-.26 1.08z"/></svg>