<svg height="68" width="68" xmlns="http://www.w3.org/2000/svg"><path d="m23.914 54.384.32 2.88q1.152 0 2.176-.064 1.024-.064 2.112-.192v-2.944q-2.048 0-4.608.32zm19.968 0q-.96 0-2.112-.128-1.088-.192-1.984-.192v3.072q.96 0 1.856.064.896.064 1.984.064zm-23.68-4.608q.704-.384 1.728-.768 1.024-.448 2.752-.96 2.304-.768 4.352-1.152 2.112-.384 3.648-.512v-11.392q-1.28-5.952-2.688-11.2-1.408-5.248-3.904-6.016-2.88-.768-6.72-.448-3.776.32-4.992.896-1.344.704-3.392 2.624-1.984 1.856-2.752 4.16-.832 2.432-1.088 4.352-.192 1.92-.32 3.136 0 2.496 1.088 7.104.64 2.304 1.728 3.968 1.152 1.664 3.328 3.392 1.92 1.664 3.712 2.176 1.792.448 3.52.64zm13.888-21.44q.576-2.688 1.216-5.12.704-2.496 1.664-4.416 0-.64-.576-1.792-.512-.96-1.152-1.792-.576-.832-1.024-1.792-1.6 2.176-2.304 3.584-.576 1.024-.704 1.472-.064.448-.064.832 1.728 3.52 2.944 9.024zm16.256 24.192q.512 5.504 1.28 12.16h-35.584q.384-3.328.704-6.464.32-3.136.704-5.696-1.536-.32-3.072-.96-1.536-.704-3.392-2.112-2.56-2.112-3.904-4.16-1.344-2.048-2.112-4.928-1.216-4.736-1.216-8 .064-1.344.32-3.52.32-2.176 1.408-4.928.896-2.88 3.456-5.248 2.56-2.368 4.224-3.072 1.472-.768 5.952-1.216 4.48-.448 7.744.448 1.536.64 1.984 1.216.768-1.344 1.792-2.816 1.088-1.536 2.048-2.88v-1.088h-2.944v-3.072h2.944v-2.88h2.944v2.88h2.752v3.072h-2.752v1.088q.896 1.344 1.856 2.816 1.024 1.408 1.792 2.752.448-.32.896-.576.512-.256.96-.512 3.328-.896 7.744-.448 4.48.448 6.144 1.216 1.472.704 4.032 3.072 2.56 2.368 3.648 5.248.896 2.752 1.216 4.928.32 2.176.32 3.52.128 3.2-1.216 8-.768 2.88-2.112 4.928-1.28 2.048-3.904 4.16-1.92 1.536-3.52 2.24-1.6.64-3.136.832zm-16.128-.32-1.728 1.728q-1.28 1.344-1.472 1.536.192.384 1.472 1.728 1.344 1.28 1.728 1.472.064-.192 1.344-1.472l1.728-1.728q-.384-.192-1.728-1.536-1.28-1.344-1.344-1.728zm1.216-5.824q1.6 0 4.16.256t3.84.832l2.048 1.024q1.152.576 2.304 1.28 1.728-.128 3.456-.576 1.792-.512 3.904-2.24 3.904-3.264 4.928-7.36 1.216-4.544 1.088-7.104 0-1.216-.256-3.136-.256-1.92-1.152-4.352-.832-2.304-2.88-4.16-2.048-1.92-3.264-2.624-1.344-.576-4.992-.896-3.648-.32-6.528.448-2.56.768-3.968 6.016-1.344 5.248-2.688 11.2zm-16.32-.192-2.176-.896q-2.112-.896-3.008-2.304-1.344-1.28-2.624-4.16-1.088-2.432-1.216-6.336-.256-2.048.512-4.736.768-2.688 1.6-3.84 1.92-2.688 5.888-3.392 2.048-.192 4.16-.064 2.176.064 2.88.832.384.448 1.024 2.496t1.28 4.48q.704 2.432 1.216 4.736.512 2.24.64 3.072.32 1.728.256 3.712-.064 1.92-.064 3.52zm30.016.32-10.304-2.752q0-1.6-.128-3.52-.064-1.984.32-3.904.064-.832.576-3.072t1.152-4.608q.64-2.432 1.28-4.416.704-2.048 1.088-2.496.704-.768 2.88-.896 2.24-.192 4.224.128 4.096.512 5.824 3.392.768 1.152 1.536 3.84.832 2.688.64 4.8-.192 3.84-1.216 6.144-.512 1.408-1.344 2.56-.832 1.152-1.28 1.728-.96 1.28-3.136 2.176zm-27.072 11.52-.576-3.072-2.176.64-.192 3.392zm23.552-.128 3.072.896-.32-3.2-2.112-.64z"/><path d="m19.277 57.286v-1.626l1.043-.29c.573-.16 1.063-.27 1.089-.244.137.137.544 2.765.443 2.86-.066.064-.57.26-1.12.436-.55.177-1.103.36-1.228.406-.17.063-.227-.318-.227-1.542zm5.018-.252c-.044-.139-.13-.754-.192-1.366-.089-.886-.057-1.136.155-1.217.146-.056 1.172-.16 2.28-.23l2.012-.127v1.379c0 .758-.063 1.417-.14 1.465-.078.048-1.017.145-2.088.217-1.583.106-1.962.084-2.027-.121zm8.187.007-1.443-1.468 1.525-1.533c.839-.843 1.567-1.512 1.62-1.486.05.025.743.723 1.538 1.551l1.446 1.505-1.441 1.45c-.793.797-1.523 1.45-1.622 1.45-.1 0-.83-.661-1.623-1.469zm8.113.062-.773-.07v-2.933l1.319.124a46.88 46.88 0 0 1 2.02.232c.69.105.699.117.592.762-.06.36-.11.963-.11 1.338l-.002.681-1.137-.031a38.583 38.583 0 0 1 -1.909-.102zm6.355 1.179c-.953-.271-1.299-.447-1.23-.626.053-.138.193-.78.313-1.428.17-.927.278-1.16.503-1.096 1.798.511 1.832.529 1.832.925 0 .22.052.902.117 1.516.065.625.045 1.11-.046 1.102-.089-.009-.759-.186-1.488-.393zm-.946-9.528c-2.917-1.647-4.438-2.06-8.59-2.339l-1.955-.131v-11.19l.824-3.52c2.294-9.8 3.239-12.283 5.072-13.327.903-.515 1.252-.599 3.409-.824 1.872-.195 5.16.014 7.326.465 1.616.337 2.747 1.086 4.917 3.255 1.844 1.844 2.489 2.965 3.253 5.659 1.222 4.31 1.041 8.943-.533 13.652-.636 1.903-1.783 3.688-3.392 5.28-2.168 2.144-3.756 3.118-5.83 3.577-2.434.538-2.596.518-4.5-.557zm4.811-2.881c2.104-.919 2.966-1.58 4.23-3.248 1.898-2.506 2.788-4.94 3.148-8.613.236-2.41.052-4.006-.743-6.44-.945-2.89-2.07-4.56-3.724-5.53-1.708-1.001-5.724-1.58-8.24-1.187-1.694.264-2.301.582-2.73 1.43-.887 1.748-3.196 10.226-3.754 13.78-.195 1.242-.268 2.741-.232 4.79l.052 2.98 4.91 1.325c2.7.729 5.072 1.33 5.272 1.335s1.015-.275 1.811-.622zm-32.629 3.523c-.95-.199-2.136-.55-2.636-.78-1.941-.893-5.003-3.69-6.164-5.63-1.14-1.905-2.18-5.88-2.407-9.204-.189-2.775.705-7.742 1.776-9.877.879-1.75 3.235-4.17 5.184-5.325 2.013-1.192 8.77-1.637 11.934-.784.39.105 1.074.526 1.52.937 1.517 1.399 2.336 3.7 4.239 11.92l.918 3.964v11.694l-.682.104c-4.102.63-8.748 1.89-10.812 2.933-.472.239-.922.428-1 .421-.079-.007-.92-.175-1.87-.373zm6.247-4.604c2.686-.744 4.93-1.398 4.985-1.454.212-.212.258-4.829.062-6.285-.416-3.097-2.898-12.678-3.865-14.927-.306-.71-.537-.955-1.221-1.291-.762-.375-1.102-.416-3.48-.416-2.906 0-3.993.194-5.768 1.028-2.35 1.103-3.752 3.126-4.703 6.791-.434 1.673-.463 2.018-.367 4.362.066 1.593.243 3.114.473 4.065.683 2.82 3.133 6.802 4.83 7.851.976.603 3.74 1.79 3.968 1.705.112-.041 2.4-.684 5.086-1.429zm9.496-17.374c-.342-1.59-1.282-4.613-1.95-6.272-.53-1.318-.708-1.995-.648-2.46.09-.694 1.219-2.829 2.242-4.237l.638-.878.59.97 1.148 1.877c1.046 1.706 1.076 2.038.351 3.857-.589 1.478-1.344 4.037-1.975 6.689l-.26 1.09z" fill="#fff" fill-rule="evenodd"/></svg>