<svg xmlns="http://www.w3.org/2000/svg" viewBox="0 0 68 68"><path d="m30.29 35.31 3.52 3.71 3.71-3.7-3.71-3.53zm18.17-10.3 2.44 19.52 2.81 6.01v12.93H14.16V50.54l2.62-6.01L19.22 25l-4.93-10.75 3.07-9.73H26v8.32h3.71V4.53h8.77v8.32h3.65V4.53h8.64l3.07 9.73zM19.1 46.38l-1.41 3.08H50l-1.54-3.08zM46.3 23.6H21.7l.58 2.94h23.68z"/><path fill="#fff" fill-rule="evenodd" d="M22.13 25.46c-.1-.57-.24-1.23-.29-1.45l-.08-.41h24.37v.61c0 .34-.06 1-.12 1.45l-.12.85H22.33zM32 37.08l-1.67-1.78 1.71-1.7 1.71-1.71.5.44a73.02 73.02 0 0 1 1.83 1.71l1.32 1.28-1.77 1.78a24.1 24.1 0 0 1-1.86 1.76c-.06 0-.85-.8-1.77-1.78zM18.2 48.46l.66-1.45.23-.5h29.4l.73 1.45.73 1.46H17.77z"/></svg>