<svg xmlns="http://www.w3.org/2000/svg" viewBox="0 0 68 68"><path d="M27.98 55.47q-2.75-.06-4.54-.06-1.8-.07-1.92-.26-.83-.77-.9-1.85-.06-1.1.77-1.8.07-.12 1.09-1.53 1.02-1.47 2.43-3.59-2.43-3.07-4.6-6.01-2.18-3.01-2.63-3.52-1.4-1.22-1.4-3.01 0-1.86 1.4-3.26.38-.39 2.3-2.95 1.99-2.56 4.23-5.57 2.3-3 4.22-5.56 1.99-2.63 2.24-2.88.26-.26.39-.45-.7-.77-1.48-1.47-.7-.7-.83-.96-2.05-1.8 0-3.59.2-.32 1.73-1.79 1.6-1.47 1.86-1.86 1.72-1.66 3.32 0l1.86 1.86q1.47 1.47 1.86 1.8 1.79 1.78 0 3.58l-1.03.96q-.77.7-1.4 1.47.06 0 .06.13.06.06.25.06.45.51 2.37 3.14 1.92 2.56 4.1 5.56 2.24 3.01 4.1 5.57 1.91 2.56 2.3 2.95 1.34 1.4 1.34 3.26 0 1.8-1.34 3-.45.52-2.56 3.4-2.05 2.82-4.35 5.89 1.6 2.11 2.68 3.71 1.16 1.54 1.35 1.66 1.73 1.8-.2 3.65-.12.2-2.1.26-1.93 0-4.8.06-.2 1.41-.13 1.41.32.32 2.17.32l4.1-.13q2.24-.07 4.29-.06 2.1-.07 2.94.19 2.11.7 2.94 3.26.84 2.5 1.41 4.87H40.78q-1.34 0-2.56-.07-1.15-.12-2.36-.7-1.16-.58-1.48-.83-.32-.32-.38-.7 0 .38-.26.7-.25.25-1.4.83-1.35.58-2.56.7-1.22.07-2.37.07H10.13q.7-2.37 1.66-4.87 1.03-2.56 3.14-3.26.77-.26 2.75-.2 2.05 0 4.16.07l3.9.13q1.8 0 2.12-.32.32-.2.19-.38-.07-.26-.07-1.03zm6.92-.13q0 3.97 1.08 5.06.58.83.58.96t.51.45q2.05.77 3.52.77h13.25q-.13-.32-.38-1.28t-1.16-1.35q-.7-.19-2.81-.13-2.05 0-4.35.13-2.3.07-4.3.07-1.91-.07-2.36-.52-1.09-.9-1.09-1.92 0-1.08.13-2.24zm-1.8 1.92q0-1.92-.06-1.92h-2.56q.06 1.16.06 2.18 0 .96-1.15 1.98-.45.45-2.37.52-1.92 0-4.22-.07-2.3-.13-4.42-.13-2.1-.06-2.81.13-.83.39-1.15 1.35-.32.96-.39 1.28h13.38q1.6 0 3.52-.77.57-.32.51-.45 0-.13.7-.96.96-1.22.96-3.14zm2.44-22.2v11.07h-2.95V35.06h-3.52V32.1h3.52v-4.29h2.95v4.3h3.52v2.94zm-6.92 11.32q-1.98 2.95-3.52 4.87l-1.53 1.92q.06.13 3.39.19t7.3.06q3.96 0 7.3-.06 3.38-.06 3.51-.2-.13-.06-1.79-2.04-1.6-1.98-3.71-5 2.62-3.64 5.25-7.22 2.68-3.59 3.2-4.16 1.08-.84 0-1.99-.52-.45-2.44-3-1.92-2.63-4.16-5.57-2.17-3.01-4.1-5.57-1.85-2.63-2.23-3.14-.45-.45-.96-.45-.7 0-1.03.45-.5.51-2.5 3.14-1.91 2.56-4.22 5.57-2.24 2.94-4.16 5.56-1.92 2.56-2.36 3.01-1.28 1.15 0 1.99.38.57 3.13 4.22 2.82 3.65 5.63 7.42zM34 5.62q-.26.38-1.6 1.72l-1.47 1.54q.19.38 1.47 1.73 1.34 1.28 1.6 1.47l1.54-1.47 1.72-1.73q-.38-.2-1.72-1.54Q34.19 6 34 5.62z"/><path fill="#fff" fill-rule="evenodd" d="M14.23 62.05c.31-1.03.63-1.59 1.06-1.87.41-.27 1.13-.3 6.88-.24 7.2.07 7.16.08 7.99-1.25.35-.57.42-.9.4-2l-.03-1.32h2.56L33 57.14c-.09 1.85-.18 2.12-1.12 3.53-1.11 1.67-1.8 1.78-10.54 1.79H14.1zm24.9.32A43.32 43.32 0 0 0 37.9 62c-.96-.26-1.1-.37-1.7-1.33a7.03 7.03 0 0 1-1.16-4.09v-1.22h2.36v1.4c0 1.63.34 2.37 1.31 2.9.55.3 1.11.33 7.07.27l6.47-.06.5.42c.26.24.6.82.74 1.3l.26.86-7.22-.02c-3.97 0-7.3-.04-7.4-.08zM24.8 53.23c-.57-.04-1.05-.12-1.05-.17s.48-.68 1.07-1.4a69.44 69.44 0 0 0 3.68-5.06c.12-.24-.75-1.5-4.02-5.82-2.3-3.03-4.42-5.82-4.72-6.18-.3-.37-.55-.76-.55-.87 0-.1.27-.5.6-.87.34-.38 1.62-2.04 2.86-3.69a710.68 710.68 0 0 1 9.93-13.02c.43-.51.93-.97 1.12-1.02.79-.2 1.33.36 4.69 4.95 5.1 6.97 8.46 11.45 9.31 12.42.75.86.97 1.61.56 1.87-.2.12-6.1 7.98-7.87 10.48-.52.74-.81 1.32-.73 1.46.44.76 2.55 3.57 3.77 5.02.78.93 1.37 1.75 1.3 1.82-.13.13-18.23.2-19.95.08zm10.73-12.56.05-5.5h3.45V32.1h-3.46v-4.36H32.5v4.36h-3.45v3.1h3.45v5.42c0 2.98.06 5.48.13 5.55.07.07.75.1 1.5.08l1.37-.06zm-3.12-30.22L31 9.01l.91-1.05c.5-.58 1.19-1.3 1.52-1.6l.6-.55 1.58 1.6 1.57 1.6-1.54 1.4c-.85.78-1.6 1.43-1.67 1.46s-.77-.6-1.55-1.4z"/></svg>