<svg height="68" width="68" xmlns="http://www.w3.org/2000/svg"><path d="m27.984 55.472q-2.752-.064-4.544-.064-1.792-.064-1.92-.256-.832-.768-.896-1.856-.064-1.088.768-1.792.064-.128 1.088-1.536 1.024-1.472 2.432-3.584-2.432-3.072-4.608-6.016-2.176-3.008-2.624-3.52-1.408-1.216-1.408-3.008 0-1.856 1.408-3.264.384-.384 2.304-2.944 1.984-2.56 4.224-5.568 2.304-3.008 4.224-5.568 1.984-2.624 2.24-2.88.256-.256.384-.448-.704-.768-1.472-1.472-.704-.704-.832-.96-2.048-1.792 0-3.584.192-.32 1.728-1.792 1.6-1.472 1.856-1.856 1.728-1.664 3.328 0l1.856 1.856q1.472 1.472 1.856 1.792 1.792 1.792 0 3.584-.256.256-1.024.96t-1.408 1.472q.064 0 .064.128.064.064.256.064.448.512 2.368 3.136 1.92 2.56 4.096 5.568 2.24 3.008 4.096 5.568 1.92 2.56 2.304 2.944 1.344 1.408 1.344 3.264 0 1.792-1.344 3.008-.448.512-2.56 3.392-2.048 2.816-4.352 5.888 1.6 2.112 2.688 3.712 1.152 1.536 1.344 1.664 1.728 1.792-.192 3.648-.128.192-2.112.256-1.92 0-4.8.064-.192 1.408-.128 1.408.32.32 2.176.32 1.856-.064 4.096-.128t4.288-.064q2.112-.064 2.944.192 2.112.704 2.944 3.264.832 2.496 1.408 4.864h-17.088q-1.344 0-2.56-.064-1.152-.128-2.368-.704-1.152-.576-1.472-.832-.32-.32-.384-.704 0 .384-.256.704-.256.256-1.408.832-1.344.576-2.56.704-1.216.064-2.368.064h-17.28q.704-2.368 1.664-4.864 1.024-2.56 3.136-3.264.768-.256 2.752-.192 2.048 0 4.16.064 2.176.064 3.904.128 1.792 0 2.112-.32.32-.192.192-.384-.064-.256-.064-1.024zm6.912-.128q0 3.968 1.088 5.056.576.832.576.96t.512.448q2.048.768 3.52.768h13.248q-.128-.32-.384-1.28t-1.152-1.344q-.704-.192-2.816-.128-2.048 0-4.352.128-2.304.064-4.288.064-1.92-.064-2.368-.512-1.088-.896-1.088-1.92 0-1.088.128-2.24zm-1.792 1.92q0-1.92-.064-1.92h-2.56q.064 1.152.064 2.176 0 .96-1.152 1.984-.448.448-2.368.512-1.92 0-4.224-.064-2.304-.128-4.416-.128-2.112-.064-2.816.128-.832.384-1.152 1.344-.32.96-.384 1.28h13.376q1.6 0 3.52-.768.576-.32.512-.448 0-.128.704-.96.96-1.216.96-3.136zm2.432-22.208v11.072h-2.944v-11.072h-3.52v-2.944h3.52v-4.288h2.944v4.288h3.52v2.944zm-6.912 11.328q-1.984 2.944-3.52 4.864-1.472 1.856-1.536 1.92.064.128 3.392.192t7.296.064q3.968 0 7.296-.064 3.392-.064 3.52-.192-.128-.064-1.792-2.048-1.6-1.984-3.712-4.992 2.624-3.648 5.248-7.232 2.688-3.584 3.2-4.16 1.088-.832 0-1.984-.512-.448-2.432-3.008-1.92-2.624-4.16-5.568-2.176-3.008-4.096-5.568-1.856-2.624-2.24-3.136-.448-.448-.96-.448-.704 0-1.024.448-.512.512-2.496 3.136-1.92 2.56-4.224 5.568-2.24 2.944-4.16 5.568-1.92 2.56-2.368 3.008-1.28 1.152 0 1.984.384.576 3.136 4.224 2.816 3.648 5.632 7.424zm5.376-40.768q-.256.384-1.6 1.728-1.28 1.344-1.472 1.536.192.384 1.472 1.728 1.344 1.28 1.6 1.472.192-.192 1.536-1.472l1.728-1.728q-.384-.192-1.728-1.536-1.344-1.344-1.536-1.728z"/><path d="m14.228 62.048c.313-1.024.632-1.585 1.059-1.865.414-.272 1.132-.297 6.879-.242 7.21.07 7.164.076 7.99-1.252.355-.572.422-.907.398-2.005l-.028-1.318h2.56l-.086 1.775c-.089 1.846-.176 2.121-1.12 3.533-1.113 1.665-1.8 1.78-10.537 1.782l-7.24.001zm24.9.317a43.32 43.32 0 0 0 -1.225-.353c-.959-.267-1.095-.374-1.71-1.332-.813-1.27-1.151-2.467-1.154-4.087l-.002-1.227h2.363v1.41c.001 1.627.336 2.368 1.31 2.9.55.3 1.114.322 7.07.265l6.472-.06.489.424c.269.234.605.813.747 1.288l.258.864-7.219-.014c-3.97-.008-7.3-.043-7.4-.078zm-14.318-9.125c-.575-.04-1.046-.117-1.046-.17s.48-.684 1.067-1.402c1.035-1.267 3.345-4.446 3.675-5.058.127-.236-.75-1.508-4.014-5.819-2.298-3.033-4.424-5.817-4.726-6.185-.3-.369-.547-.757-.547-.863 0-.107.273-.501.606-.876.334-.376 1.618-2.033 2.853-3.683 4.068-5.432 9.132-12.074 9.929-13.022.43-.513.936-.972 1.123-1.021.787-.206 1.325.362 4.689 4.952 5.102 6.963 8.462 11.444 9.311 12.42.749.861.972 1.61.557 1.867-.198.123-6.092 7.978-7.865 10.482-.525.741-.813 1.315-.732 1.455.44.76 2.548 3.57 3.766 5.02.784.935 1.372 1.753 1.306 1.819-.129.13-18.233.205-19.952.084zm10.73-12.556.048-5.5h3.449v-3.091h-3.455v-4.363h-3.091v4.363h-3.454v3.091h3.454v5.425c0 2.983.058 5.482.129 5.552.07.07.745.105 1.5.076l1.371-.053zm-3.124-30.222-1.416-1.457.912-1.047c.501-.575 1.185-1.294 1.519-1.597l.607-.55 1.571 1.6 1.572 1.6-1.54 1.405c-.848.772-1.6 1.427-1.673 1.454s-.77-.607-1.55-1.408z" fill="#fff" fill-rule="evenodd"/></svg>