<svg xmlns="http://www.w3.org/2000/svg" viewBox="0 0 68 68"><path d="M39.6 57.14q-3.53 3.52-3.85 3.7-1.6 1.48-3.39 0-.38-.18-3.84-3.83l-4.48.25-3.97 4.36h27.84l-4.03-4.16zm6.01-5.06q-.96-.58-1.86-1.02-.9-.45-1.53-.84-1.28-.57-4.1-.76-2.75-.2-3.77-.26-.96.06-3.4.38-2.36.32-5.37 1.22-3.14 1.15-3.84 1.54l2.05 2.04 4.73-.32 3.84-4.03q1.73-1.6 3.4 0l4.03 4.03 3.9.32zm-25.4 2.88-.33 2.5 1.73-1.41zm0-5.18q.7-.39 1.72-.77 1.02-.45 2.75-.96 2.3-.77 4.35-1.15 2.12-.39 3.65-.52L32.55 35Q31.4 29.04 30 23.8q-1.4-5.25-3.9-6.01-2.88-.77-6.72-.45-3.78.32-5 .9-1.34.7-3.38 2.62Q9 22.7 8.23 25q-.83 2.43-1.08 4.35l-.32 3.14q0 2.5 1.08 7.1.64 2.3 1.73 3.97 1.15 1.66 3.33 3.39 1.92 1.66 3.71 2.18 1.8.44 3.52.64zm13.88-21.44q.58-2.7 1.22-5.12.7-2.5 1.66-4.42 0-.64-.58-1.8-.5-.95-1.15-1.78-.57-.84-1.02-1.8-1.6 2.18-2.3 3.59-.58 1.02-.71 1.47-.06.45-.06.83 1.72 3.52 2.94 9.03zm16.26 24.19 1.28 12.16H16.04l1.41-12.16q-1.54-.32-3.07-.96-1.54-.7-3.4-2.11-2.55-2.12-3.9-4.16-1.34-2.05-2.11-4.93-1.22-4.74-1.22-8 .07-1.35.32-3.52.32-2.18 1.41-4.93.9-2.88 3.46-5.25t4.22-3.07q1.47-.77 5.95-1.22 4.48-.44 7.75.45 1.53.64 1.98 1.22.77-1.35 1.8-2.82l2.04-2.88V9.26h-2.94V6.2h2.94V3.31h2.95V6.2h2.75v3.07h-2.75v1.1q.9 1.34 1.85 2.8 1.03 1.42 1.8 2.76.44-.32.89-.58.51-.25.96-.5 3.33-.9 7.74-.46 4.48.45 6.15 1.22 1.47.7 4.03 3.07 2.56 2.37 3.65 5.25.9 2.75 1.21 4.93.32 2.17.32 3.52.13 3.2-1.21 8-.77 2.88-2.11 4.93-1.28 2.04-3.9 4.16-1.93 1.53-3.53 2.24-1.6.64-3.13.83zm-16.13-.32-3.2 3.26 3.2 3.2 3.07-3.2zm13.25 2.3-1.54 1.22 1.86 1.73zm-12.04-8.13q1.6 0 4.16.26t3.84.83l2.05 1.03q1.15.57 2.3 1.28 1.73-.13 3.46-.58 1.8-.51 3.9-2.24 3.91-3.26 4.93-7.36 1.22-4.54 1.1-7.1 0-1.22-.26-3.14-.26-1.92-1.16-4.35-.83-2.3-2.88-4.16-2.04-1.92-3.26-2.63-1.34-.57-5-.9-3.64-.31-6.52.46-2.56.76-3.97 6.01-1.34 5.25-2.5 11.2z"/><path fill="#fff" fill-rule="evenodd" d="M22.03 59.55a68.95 68.95 0 0 1 2.04-2.15c.08-.06 1.1-.16 2.27-.21l2.12-.1 2 1.95c1.1 1.08 2.2 2.1 2.45 2.26.42.28.03.3-6.16.3h-6.6zm-1.97-2.96c.07-.4.12-.9.12-1.14v-.41l.65.48c.7.54.67.68-.34 1.4l-.54.38zM32.6 57l-1.5-1.5 1.6-1.58 1.59-1.58 1.48 1.6 1.5 1.6-1.5 1.49c-.82.81-1.53 1.48-1.58 1.48s-.77-.68-1.59-1.5zm2.8 4.2c.29-.2 1.35-1.2 2.35-2.18l1.83-1.8 2.08.13 2.08.12 1.79 1.75c.98.96 1.87 1.89 1.96 2.06.16.3-.19.32-6.22.32h-6.4zm11.39-4.74-.75-.77.7-.5.7-.5.13 1.19c.07.66.09 1.23.05 1.27s-.42-.27-.83-.69zm-5.64-2.3-1.32-.13-2.36-2.33-2.36-2.34 2.13.13c2.93.16 4.31.5 6.18 1.46.88.46 1.71.9 1.85 1 .2.13.07.39-.64 1.26-.99 1.22-.85 1.18-3.48.94zm-18.38-.8-.97-.98 1.34-.56a28.4 28.4 0 0 1 4.5-1.49c1.25-.32 4.6-.9 5.2-.91.1 0-.84 1.03-2.1 2.3L28.47 54l-1.82.15c-2.97.25-2.8.28-3.88-.8zM18.2 49.4c-.95-.2-2.14-.55-2.64-.78-1.94-.9-5-3.7-6.16-5.63-1.14-1.9-2.18-5.88-2.41-9.2-.19-2.78.7-7.75 1.78-9.88.87-1.75 3.23-4.17 5.18-5.33 2.02-1.2 8.74-1.63 11.96-.78 1.13.3 2.45 1.76 3.18 3.52.67 1.6 1.83 6.04 2.82 10.8l.65 3.13V46.3l-.68.1c-4.1.64-8.75 1.9-10.81 2.94a4.8 4.8 0 0 1-1 .42c-.08 0-.92-.18-1.87-.37zm27.8-.65c-2.91-1.64-4.44-2.06-8.58-2.33l-1.94-.13.1-5.67.1-5.66.71-3.36c1.96-9.23 3.1-12.29 4.97-13.35.9-.52 1.25-.6 3.4-.83 1.88-.2 5.16.02 7.33.47 1.62.33 2.75 1.08 4.92 3.25 1.84 1.85 2.49 2.97 3.25 5.66a22.9 22.9 0 0 1-.53 13.65 13.48 13.48 0 0 1-3.4 5.28c-2.16 2.15-3.75 3.12-5.82 3.58-2.44.54-2.6.52-4.5-.56zM33.93 27.42a49.49 49.49 0 0 0-1.95-6.27c-.53-1.32-.7-2-.65-2.46.1-.7 1.22-2.83 2.24-4.24l.64-.88.6.97 1.14 1.88c1.05 1.7 1.08 2.04.35 3.86a54.72 54.72 0 0 0-1.97 6.68l-.26 1.1z"/></svg>