<svg xmlns="http://www.w3.org/2000/svg" viewBox="0 0 68 68"><path d="M24.85 39.73q-.39.7.19 1.28.58.57-.2 1.47-.7 1.02-2.62 2.75-1.85 1.73-3.2 2.3-2.17 1.29-4.48.2-1.15-.58-2.88-2.24-1.66-1.67-2.3-2.69-.77-1.02-.58-1.73.2-.7.07-1.66 0-.77-.39-1.09-.38-.38.39-2.5.77-1.92 3.26-6.33 2.5-4.42 3.2-6.53.7-1.92-.25-1.73-.9.13-.52-.9.39-1.15 1.41-3.07 1.03-1.98 1.86-2.94.9-.9 1.85-.7 1.03.12 1.8-1.16.7-1.21 1.34-3.77.7-2.56 1.47-4.67.96 1.98 2.05 3.77 1.09 1.8 2.24 2.24 2.88-1.09 6.91-.51 5.76.77 8.51 2.3 2.76 1.48 6.6 6.21 1.47 1.86 2.36 3.97.9 2.05 1.6 4.48.7 2.43 1.1 5.57.44 3.13.63 5.63 0 2.69-.19 5-.13 2.23 0 4.54v3.77q0 1.41.51 3.78.32 1.98 1.28 4.41.96 2.44 1.8 4.8h-40.2q-.83-1.66-.57-3.64 0-1.28.32-3.14t1.02-3.52q.58-1.47 1.54-2.82.96-1.4 2.04-2.68 2.05-3.2 3.84-5.12 1.54-1.73 3.27-3.2 1.79-1.48 3.33-3.4 1.34-2.1 1.66-3.7.2-.97-.06-2.63-.2-1.73-.52-1.67-.25.13-1.02 2.37t-1.47 3.01q-.7 1.09-1.54 1.54-.77.38-1.34.76-.77.39-1.22.39-.38 0-.96.38-.7.51-1.66 1.35-.9.76-1.28 1.47zm2.62 7.49-3.84 5.24 8.45.64 3.84-4.03q1.92-1.92 3.9 0l4.1 4.16 9.4-.64q0-3.26.26-7.74.32-4.55.2-6.98-.13-2.5-.52-5.44-.32-3-1.02-5.18-1.28-4.29-3.65-7.43-1.4-1.53-2.62-2.75-1.15-1.21-2.95-2.62-2.1-.9-3.96-1.6-1.8-.7-3.9-.83-3.91-.45-6.6.57-2.11-.77-2.69-1.66-.51-.9-.83-1.86 0 2.75-1.4 4.48-.71.83-2 1.22-1.2.32-1.98 1.21-.83.96-1.66 2.5-.77 1.47-1.15 2.43-.2 1.09.64 1.09.83-.06.13 1.86-.7 1.98-3.27 6.52-2.5 4.48-3.2 6.4-.77 1.99-.32 1.92.51-.06.51.52 0 .57-.32 1.08-.25.45.32 1.1.58.82 2.12 2.3 1.53 1.4 2.36 1.85.77.45.96.45.2-.06 1.16-.64.76-.38 2.56-1.92t2.36-2.37q.7-.9.07-1.28-.58-.45-.2-1.15.39-.77 1.6-1.92 1.22-1.22 1.93-1.8.76-.57 1.28-.5.57 0 1.15-.39t1.09-.51q.5-.2 1.08-.9.45-.64 1.1-1.98.7-1.4 1.08-2.5.2-.9.45-1.66.32-.83 0-1.54-.51-.76-2.11-1.66-1.6-.9-1.41-1.28.06-.32 1.79-.32t2.82.77q.76.77 1.79 2.5t1.4 3.07q1.1 3.2.52 5.37-.51 2.3-2.37 4.48-1.28 1.99-3 3.59t-3.46 3.32q-1.41 1.41-1.99 2.44zm-5.05 8.5q-.39 1.35-.64 3.02t.32 2.81h33.2l-1.66-5.7-9.73.65-4.1 4.1q-1.98 1.72-3.9 0l-3.97-4.3zm15.55-4.34-3.4 3.39 3.4 3.52 3.39-3.52zm-15.23-28.3q.64.26 1.02.33.45.06.32.77 0 .25-.58.44-.5.13-.96.32-.44.26-1.08.45-.58.2-.77.32-1.09.32-1.54-.19-.25-.26-.25-1.22.06-.32.44-.83.45-.51.9-.51 1.73 0 2.5.13zm-10.3 14.28q.57 0 1.34.2.76.18.96.57 0 .51-.84 1.47-.83.9-1.21.7 0-.19.13-.57.12-.39.06-.77 0-.96-.45-1.6z"/><g fill="#fff" fill-rule="evenodd"><path d="M22 61.13c-.27-.69-.22-2.15.12-3.85l.3-1.5 1.2.1c1.91.15 6.95.45 7.65.45.59 0 .81.2 2.73 2.3 1.36 1.49 2.34 2.4 2.82 2.63.72.33.65.33-6.96.34h-7.69zm16.9.16c.36-.17 1.67-1.3 2.92-2.52l2.27-2.21 4.7-.3c2.6-.17 4.74-.28 4.78-.24.06.06.6 1.84 1.4 4.63l.28.95h-8.49c-8.1 0-8.46-.02-7.85-.31zm-2.63-4.78-1.63-1.64 1.68-1.68L38 51.51l1.63 1.63 1.63 1.62-1.51 1.64a17.3 17.3 0 0 1-1.68 1.69c-.1.03-.9-.68-1.8-1.58z"/><path d="M41.89 51.14c-2.68-2.88-3.76-3.45-5.15-2.73a22 22 0 0 0-2.58 2.47l-2.08 2.2-4.08-.3a97.38 97.38 0 0 1-4.15-.37c-.03-.03.94-1.43 2.16-3.11a49.32 49.32 0 0 1 5.61-6.52c5.6-5.7 7.13-8.3 6.87-11.63-.23-2.92-2.3-7.42-4.03-8.74-.72-.55-2.38-.88-3.58-.72-1.34.19-1.19.58.71 1.85 2.03 1.35 2.2 1.68 1.76 3.31a24.19 24.19 0 0 1-2.13 5.11c-.5.84-.8 1.11-1.86 1.68a6.1 6.1 0 0 1-1.72.68c-.62.01-1.31.47-2.8 1.85-1.3 1.18-2.3 2.53-2.3 3.08 0 .17.13.4.28.53.71.6 0 1.66-2.55 3.79-.93.78-2.11 1.64-2.61 1.91l-.92.5-.69-.36a20.63 20.63 0 0 1-4.22-3.68c-.78-.98-.86-1.28-.55-2.08.22-.58.07-1.17-.3-1.17a.27.27 0 0 1-.25-.27c0-.8 1.64-4.28 4.37-9.27 1.73-3.16 2.74-5.48 2.78-6.35.03-.63-.03-.73-.43-.83-.71-.18-.66-.86.2-2.58 1.5-2.98 2.4-3.99 4.18-4.61a5.97 5.97 0 0 0 1.37-.73c.72-.54 1.65-2.39 1.81-3.59l.12-.87.36.69c.53 1 1.01 1.46 2.06 1.95.93.44.94.44 2 .13.82-.23 1.74-.3 3.72-.28 3.12.02 4.2.24 7.44 1.52a10.2 10.2 0 0 1 3.75 2.15c2.84 2.42 5.34 5.58 6.47 8.16 2.34 5.36 3.12 11.52 2.62 20.9-.15 2.89-.28 5.8-.28 6.46v1.22l-.59.1c-.32.05-2.02.17-3.77.28s-3.6.23-4.11.29l-.93.1zM13.98 39.5c.93-1.01.96-1.47.12-1.83a3.76 3.76 0 0 0-1.2-.26c-.51 0-.53.02-.33.4.12.23.21.88.2 1.46 0 1.3.2 1.33 1.2.23zm8.2-14.32c1.71-.7 1.91-.82 1.91-1.23 0-.6-.94-.91-2.87-.96-1.36-.04-1.45-.01-1.87.47-.6.69-.61 1.8-.04 2.21.57.4.73.37 2.87-.5z"/></g></svg>