<svg xmlns="http://www.w3.org/2000/svg" width="100" height="100" viewBox="0 0 26.458 26.458"><g stroke-width=".997" stroke="#000"><path transform="matrix(-.7001 0 0 -.70074 22.925 24.089)" fill="#fff7b7" stroke-width=".754" d="M27.7 0l-3.845 27.358L13.85 31 3.845 27.358 0 0z"/><g stroke-width=".565" font-weight="400" font-size="26.458" font-family="IPAMincho" letter-spacing="0" word-spacing="0"><g style="line-height:125%;-inkscape-font-specification:IPAMincho"><path style="-inkscape-font-specification:UnGungseo" d="M-20.208 335.956c1.164-1.658 1.746-2.92 1.746-3.784 0-.14.044-.293.026-.434 0-.16.035-.3.106-.424.088-.123.22-.185.397-.185.37 0 .837.203 1.402.609.564.405.847.784.847 1.137 0 .124-.256.441-.768.953l-.529.661c-.106.194-.435.546-.912 1.075-1.605 2.214-3.125 1.982-2.315.392z" font-family="UnGungseo" transform="matrix(-.13241 .60792 -.60738 -.13253 218.661 74.42)" aria-label="銀"/></g><g style="line-height:125%;-inkscape-font-specification:IPAMincho"><path style="-inkscape-font-specification:UnGungseo" d="M-23.199 339.331c.865-.6 1.879-1.729 3.043-3.387 1.164-1.658 1.746-2.919 1.746-3.783 0-.141-.008-.282-.026-.423 0-.16.035-.3.106-.424.088-.123.22-.185.397-.185.37 0 .837.203 1.402.609.564.405.847.784.847 1.137 0 .124-.256.441-.768.953.37.158.803.317 1.297.476.511.159.987.406 1.428.74.441.336.662.706.662 1.112 0 .353-.168.53-.503.53-.264 0-.829-.345-1.693-1.033-.847-.688-1.42-1.076-1.72-1.164-.106.194-.397.556-.873 1.085-1.693 1.887-3.457 3.22-5.292 3.995zm15.637 8.096c-.282.247-.547.468-.794.662a11.81 11.81 0 00-.714.608l-.635.635a8.367 8.367 0 00-.608.688c-.194.265-.38.547-.556.847-.07.176-.238.45-.503.82-.264.388-.494.582-.688.582-.229 0-.626-.3-1.19-.9-.547-.581-.82-.987-.82-1.216 0-.16.246-.37.74-.635.512-.283.785-.45.82-.503.036-.141.053-.503.053-1.085l.027-4.895c0-.37.009-.917.026-1.64.018-.741.027-1.297.027-1.667v-3.837c0-.546-.124-1.11-.37-1.693-.248-.582-.371-.917-.371-1.005 0-.318.3-.477.9-.477.158 0 .396.053.714.16.317.105.547.158.688.158.37 0 .882-.062 1.534-.185.653-.141 1.147-.291 1.482-.45.035-.018.22-.124.556-.318.335-.194.582-.29.74-.29.353 0 .838.255 1.456.767.635.511.952.943.952 1.296 0 .141-.14.441-.423.9-.176.335-.432 1.032-.767 2.09-.318 1.058-.477 1.755-.477 2.09 0 .265.203.556.609.873.406.3.803.6 1.19.9.406.282.61.538.61.767 0 .247-.31.556-.927.926-.6.37-.997.591-1.19.662-.124.088-.389.264-.794.529-.388.264-.732.485-1.032.661a4.414 4.414 0 01-.847.37c.088.124.256.283.503.53.247.212.706.69.724.708 6.192 6.335 1.685 4.422-.354 2.017a2.742 2.742 0 01-.29-.45zm.503-11.641c.106-.512.159-1.156.159-1.932 0-.335-.186-.503-.556-.503-.406 0-.952.106-1.64.318-.67.212-1.13.335-1.376.37l-.027 2.567a34.92 34.92 0 001.165-.476c.3-.124.617-.212.952-.265.353-.053.794-.08 1.323-.08zm-.132 1.137l-3.281.53-.159 2.778c1.446-.653 2.558-.98 3.334-.98zm-11.272 5.821c-1.517.582-2.407.873-2.672.873-.247 0-.564-.061-.952-.185-.37-.141-.556-.309-.556-.503l.053-.158.106-.08a43.7 43.7 0 002.275-.45c1.058-.246 1.623-.423 1.693-.529.053-.088.08-.405.08-.952 0-.194-.053-.503-.159-.926-.106-.441-.22-.662-.344-.662a.839.839 0 00-.238.053 1.134 1.134 0 01-.212.027c-.158 0-.423-.07-.793-.212-.37-.141-.556-.273-.556-.397 0-.035.009-.062.026-.08.036-.035.724-.264 2.064-.687 1.358-.441 2.09-.662 2.196-.662.194 0 .468.08.82.238.353.142.53.292.53.45 0 .194-.256.362-.768.503-.511.141-.908.212-1.19.212.194.176.335.326.423.45.088.105.132.308.132.608 0 .176-.026.441-.079.794-.053.335-.08.573-.08.714.67-.388 1.138-.582 1.403-.582.23 0 .503.097.82.291.318.176.476.37.476.582 0 .194-.361.362-1.084.503-.724.141-1.262.212-1.614.212 0 .917-.018 2.31-.053 4.18.494-.74.838-1.455 1.032-2.143.123-.141.246-.212.37-.212.265 0 .608.115 1.032.344.44.212.661.432.661.662 0 .105-.132.247-.397.423l-.423.264-2.275 2.117-.08 1.376c.106-.035.538-.185 1.297-.45.758-.282 1.296-.423 1.614-.423.035 0 .088.017.158.053.018.017.027.044.027.08 0 .017-.097.123-.291.317-.476.335-1.006.661-1.588.979-.582.3-1.243.617-1.984.952-.723.335-1.279.6-1.667.794-.282.141-.829.458-1.64.952h-.053c-.212.018-.503-.194-.873-.635-.37-.423-.556-.75-.556-.979 0-.052.009-.088.027-.105.088-.177.3-.265.635-.265.44 0 1.04-.115 1.799-.344.776-.23 1.305-.37 1.587-.423a717.81 717.81 0 00-.08-2.17 621.28 621.28 0 00-.052-2.593 96.908 96.908 0 01-.027-2.196zm9.79 1.323c1.887-1.605 2.805-2.743 2.752-3.413v-.132l-.08-.159h-.08c-.458 0-1.313.159-2.566.476-1.234.3-1.913.459-2.037.476 0 .071-.009.177-.026.318v.291c0 .194.264.547.793 1.058.53.512.944.873 1.244 1.085zm-2.117-1.058l-.37 5.503a70.496 70.496 0 002.99-1.773c-.67-.811-1.544-2.055-2.62-3.73zm-11.985 2.513h.132c.6 0 1.296.186 2.09.556.812.353 1.217.785 1.217 1.296 0 .441-.211.662-.635.662-.3 0-.846-.344-1.64-1.032-.794-.688-1.19-1.164-1.19-1.429v-.026z" font-family="UnGungseo" transform="matrix(.62164 0 0 .6222 21.22 -198.008)" aria-label="銀"/></g></g></g></svg>