<svg xmlns="http://www.w3.org/2000/svg" viewBox="0 0 26.458 26.458"><g stroke-width="1.264"><path transform="matrix(-.7464 0 0 -.74792 23.567 24.84)" fill="#fff7b7" stroke="#000" stroke-width=".669" d="M3.845 27.358 0 0h27.7l-3.845 27.358L13.85 31z"/><path d="M6.022 21.244c-.367-.247-.647-.598-.647-.81 0-.344.182-.382 2.283-.489 1.256-.063 2.786-.182 3.4-.263l1.12-.148-.12-1.146c-.066-.631-.12-1.66-.12-2.287v-1.14l-1.128.127c-1.249.142-2.486-.218-2.486-.723 0-.35.396-.468 1.61-.478.52-.005 1.183-.061 1.474-.125l.53-.117v-1.672c0-.919-.094-1.941-.209-2.272-.198-.568-.26-.6-1.189-.6-1.097 0-2.278-.494-2.37-.99-.054-.288.15-.324 1.806-.315a14.7 14.7 0 0 0 5.18-.878c1.262-.45 2.869-.082 2.869.658 0 .203-.15.448-.333.546-.264.14-3.236.595-3.91.597-.085 0-.021.19.14.422.241.344.272.769.172 2.31-.118 1.798-.107 1.883.24 1.778 1.843-.563 3.546-.383 3.655.386.082.58-.354.754-2.294.912l-1.665.136v4.658l1.38-.17c2.564-.316 3.773-.263 4.657.203.787.416 1.19 1.103.913 1.554-.174.282-1.085.25-2.86-.098-2.053-.402-6.756-.095-9.117.596-1.346.394-2.229.346-2.981-.162zM18.5 18.026c-.773-.433-2.377-1.911-2.377-2.191 0-.239.174-.266.998-.155 1.758.237 2.616.79 2.616 1.686 0 .291-.495.889-.727.878-.071-.002-.3-.101-.51-.218z"/></g></svg>