<svg xmlns="http://www.w3.org/2000/svg" viewBox="0 0 26.458 26.458"><g stroke-width="1.345"><path transform="matrix(-.70127 0 0 -.7023 22.942 24.123)" fill="#fff7b7" stroke="#000" stroke-width=".712" d="M13.85 31 3.845 27.358 0 0h27.7l-3.845 27.358z"/><path d="M7.726 20.688c-.303-.15-.55-.37-.55-.49 0-.254.531-.348 2.707-.481.884-.054 1.855-.143 2.158-.197l.55-.099v-1.167c0-.642-.063-1.168-.139-1.168-.076 0-.568.08-1.093.177-.787.146-1.047.13-1.47-.089-.282-.146-.514-.375-.514-.51 0-.19.34-.253 1.566-.291l1.565-.05-.04-.592a13.649 13.649 0 0 0-.135-1.144c-.108-.633-.27-.665-1.79-.35-.754.156-1.121.154-1.66-.007-1.164-.35-.836-.87.55-.873.389 0 1.22-.05 1.848-.11l1.142-.107v-2.001l-.99.112c-1.04.117-1.717-.082-1.717-.507 0-.326.387-.436 1.537-.436h1.001v-.805c0-.515-.127-1.012-.351-1.38-.281-.462-.306-.605-.127-.72.252-.163 1.027-.042 1.663.26.397.188.42.268.37 1.325l-.05 1.125.88-.233c.751-.199.966-.198 1.448.004.6.25.746.657.299.829-.147.057-.794.103-1.438.103h-1.171v.932c0 .513.003.99.006 1.06.008.161 1.404.07 2.247-.15.768-.198 1.724.056 1.976.527.24.45-.056.511-2.508.516-2.1.003-2.136.01-1.747.309.363.28.386.385.276 1.267-.066.529-.092.96-.058.96.034-.002.473-.112.976-.246.793-.211.99-.212 1.494-.001.401.168.562.334.522.542-.049.255-.278.307-1.522.349l-1.465.048-.056 1.195c-.031.657-.043 1.208-.026 1.224.016.016.945-.037 2.063-.118 1.823-.132 2.1-.115 2.677.167.427.21.644.43.644.655 0 .397-.157.403-2.31.096-1.711-.244-4.426-.039-6.681.504-1.63.392-1.836.395-2.557.036z" fill="#fd0301"/></g></svg>