<svg xmlns="http://www.w3.org/2000/svg" width="100" height="100" viewBox="0 0 26.458 26.458"><g stroke-width=".94"><path transform="matrix(-.7464 0 0 -.74725 23.567 24.82)" fill="#fff7b7" stroke="#000" stroke-width=".669" d="M0 0h27.7l-3.845 27.358L13.85 31 3.845 27.358z"/><path d="M6.03 20.272c-.368-.248-.647-.597-.647-.81 0-.343.182-.382 2.283-.488 1.255-.063 2.786-.182 3.4-.263l1.119-.148-.12-1.145c-.066-.63-.12-1.658-.12-2.285v-1.14l-1.128.129c-1.248.141-2.486-.219-2.486-.723 0-.35.396-.468 1.61-.478.52-.004 1.184-.06 1.475-.125l.53-.116v-1.67c0-.92-.094-1.94-.21-2.27-.197-.569-.26-.6-1.188-.6-1.097-.001-2.278-.494-2.37-.99-.054-.288.15-.323 1.806-.315 1.832.01 3.472-.268 5.18-.877 1.262-.45 2.869-.082 2.869.658 0 .202-.15.447-.333.545-.265.141-3.237.595-3.91.597-.085 0-.022.19.14.422.24.343.272.768.171 2.307-.117 1.797-.106 1.882.24 1.776 1.844-.561 3.546-.381 3.656.386.082.58-.354.754-2.295.912l-1.664.135v4.654l1.38-.17c2.564-.315 3.772-.262 4.656.204.787.415 1.191 1.102.914 1.552-.174.281-1.085.25-2.86-.097-2.053-.403-6.756-.096-9.118.595-1.346.393-2.228.345-2.98-.162z"/></g></svg>