<?xml version="1.0" encoding="UTF-8" standalone="no"?>
<svg
   xmlns:dc="http://purl.org/dc/elements/1.1/"
   xmlns:cc="http://creativecommons.org/ns#"
   xmlns:rdf="http://www.w3.org/1999/02/22-rdf-syntax-ns#"
   xmlns:svg="http://www.w3.org/2000/svg"
   xmlns="http://www.w3.org/2000/svg"
   xmlns:sodipodi="http://sodipodi.sourceforge.net/DTD/sodipodi-0.dtd"
   xmlns:inkscape="http://www.inkscape.org/namespaces/inkscape"
   width="100"
   height="100"
   viewBox="0 0 26.458333 26.458334"
   version="1.1"
   id="svg8"
   inkscape:version="1.0.1 (3bc2e813f5, 2020-09-07)"
   sodipodi:docname="0OU.svg">
  <defs
     id="defs2" />
  <sodipodi:namedview
     id="base"
     pagecolor="#ffffff"
     bordercolor="#666666"
     borderopacity="1.0"
     inkscape:pageopacity="0.0"
     inkscape:pageshadow="2"
     inkscape:zoom="1.4"
     inkscape:cx="-70.551375"
     inkscape:cy="79.836628"
     inkscape:document-units="mm"
     inkscape:current-layer="layer1"
     showgrid="false"
     units="px"
     inkscape:window-width="1366"
     inkscape:window-height="711"
     inkscape:window-x="0"
     inkscape:window-y="0"
     inkscape:window-maximized="1"
     inkscape:lockguides="true"
     inkscape:snap-object-midpoints="true"
     showguides="false"
     inkscape:snap-global="true"
     inkscape:document-rotation="0" />
  <metadata
     id="metadata5">
    <rdf:RDF>
      <cc:Work
         rdf:about="">
        <dc:format>image/svg+xml</dc:format>
        <dc:type
           rdf:resource="http://purl.org/dc/dcmitype/StillImage" />
        <dc:title />
      </cc:Work>
    </rdf:RDF>
  </metadata>
  <g
     inkscape:label="Layer 1"
     inkscape:groupmode="layer"
     id="layer1"
     transform="translate(0,-261.01665)">
    <g
       id="g834"
       transform="matrix(1.0643651,0,0,1.0639986,-0.85149645,-17.551861)"
       style="stroke-width:0.939689">
      <polygon
         id="shogi_trapezoid"
         points="0,0 27.7,0 23.855018,27.358471 13.85,31 3.844982,27.358471 "
         style="fill:#fff7b7;fill-opacity:1;stroke:#000000;stroke-width:0.669009;stroke-miterlimit:4;stroke-dasharray:none"
         transform="matrix(-0.70127195,0,0,-0.70230794,22.941783,285.13961)" />
      <path
         inkscape:connector-curvature="0"
         id="path9329"
         d="m 6.4648462,280.86558 c -0.3448123,-0.23271 -0.6072476,-0.56144 -0.6072476,-0.76065 0,-0.32293 0.1705241,-0.35946 2.1445676,-0.45934 1.179511,-0.0596 2.6173428,-0.17094 3.1951798,-0.24723 l 1.050606,-0.1387 -0.112357,-1.07663 c -0.06178,-0.59213 -0.112364,-1.55845 -0.112364,-2.14735 v -1.07074 l -1.060091,0.12012 c -1.1731098,0.13292 -2.3354758,-0.20507 -2.3354758,-0.67911 0,-0.32921 0.371824,-0.4397 1.5128558,-0.4495 0.488052,-0.004 1.111313,-0.0569 1.385034,-0.11708 l 0.497677,-0.10947 v -1.56988 c 0,-0.86343 -0.08829,-1.82351 -0.196199,-2.13351 -0.185807,-0.53379 -0.244966,-0.56366 -1.116963,-0.56391 -1.0308838,-3.2e-4 -2.1405141,-0.46379 -2.2272755,-0.93029 -0.050171,-0.26985 0.1410997,-0.30313 1.6972615,-0.29523 1.72115,0.009 3.262214,-0.25237 4.866292,-0.82451 1.186077,-0.42306 2.695731,-0.0767 2.695731,0.61847 0,0.18995 -0.140734,0.42044 -0.312756,0.51219 -0.24823,0.13242 -3.040629,0.55896 -3.673761,0.56118 -0.0793,2.8e-4 -0.0197,0.1785 0.132466,0.39606 0.225721,0.32272 0.255293,0.72192 0.160617,2.16876 -0.110514,1.68885 -0.09981,1.76829 0.224948,1.66935 1.732688,-0.52782 3.332059,-0.35884 3.434657,0.3629 0.07752,0.54534 -0.332359,0.70824 -2.155417,0.85661 l -1.563747,0.12727 v 2.18695 2.18695 l 1.295676,-0.15943 c 2.409965,-0.29656 3.545095,-0.24699 4.375636,0.19107 0.739306,0.38993 1.119074,1.03543 0.858031,1.45843 -0.16341,0.2648 -1.01924,0.23576 -2.686992,-0.0912 -1.928888,-0.37813 -6.347585,-0.0895 -8.5660298,0.55944 -1.2645345,0.36992 -2.0939081,0.32491 -2.80056,-0.15201 z"
         style="fill:#000000;stroke-width:0.226108"
         sodipodi:nodetypes="csccccsccscccscccccscccccsccccsccscc" />
    </g>
  </g>
</svg>
