<?xml version="1.0" encoding="UTF-8" standalone="no"?>
<svg
   xmlns:dc="http://purl.org/dc/elements/1.1/"
   xmlns:cc="http://creativecommons.org/ns#"
   xmlns:rdf="http://www.w3.org/1999/02/22-rdf-syntax-ns#"
   xmlns:svg="http://www.w3.org/2000/svg"
   xmlns="http://www.w3.org/2000/svg"
   xmlns:sodipodi="http://sodipodi.sourceforge.net/DTD/sodipodi-0.dtd"
   xmlns:inkscape="http://www.inkscape.org/namespaces/inkscape"
   width="100"
   height="100"
   viewBox="0 0 26.458333 26.458334"
   version="1.1"
   id="svg8"
   inkscape:version="1.0.1 (3bc2e813f5, 2020-09-07)"
   sodipodi:docname="0UM.svg">
  <defs
     id="defs2" />
  <sodipodi:namedview
     id="base"
     pagecolor="#ffffff"
     bordercolor="#666666"
     borderopacity="1.0"
     inkscape:pageopacity="0.0"
     inkscape:pageshadow="2"
     inkscape:zoom="1.4142136"
     inkscape:cx="-76.202508"
     inkscape:cy="46.485422"
     inkscape:document-units="mm"
     inkscape:current-layer="layer1"
     showgrid="false"
     units="px"
     inkscape:window-width="1362"
     inkscape:window-height="709"
     inkscape:window-x="0"
     inkscape:window-y="0"
     inkscape:window-maximized="0"
     inkscape:lockguides="true"
     inkscape:snap-object-midpoints="true"
     showguides="false"
     inkscape:snap-global="true"
     inkscape:document-rotation="0" />
  <metadata
     id="metadata5">
    <rdf:RDF>
      <cc:Work
         rdf:about="">
        <dc:format>image/svg+xml</dc:format>
        <dc:type
           rdf:resource="http://purl.org/dc/dcmitype/StillImage" />
        <dc:title />
      </cc:Work>
    </rdf:RDF>
  </metadata>
  <g
     inkscape:label="Layer 1"
     inkscape:groupmode="layer"
     id="layer1"
     transform="translate(0,-261.01665)">
    <g
       id="g5563"
       transform="matrix(0.66365018,0,0,0.6644452,1.2888673,88.90381)"
       style="stroke-width:1.27969">
      <polygon
         transform="matrix(-1.11111,0,0,-1.11111,33.38054,296.17683)"
         style="fill:#fff7b7;fill-opacity:1;stroke:#000000;stroke-width:0.677171;stroke-miterlimit:4;stroke-dasharray:none"
         points="27.7,0 23.855018,27.358471 13.85,31 3.844982,27.358471 0,0 "
         id="shogi_trapezoid" />
      <path
         style="fill:#fd0301;stroke-width:0.359013"
         d="m 21.98486,291.4795 c -0.262796,-0.42433 -0.856744,-1.17991 -1.319884,-1.67908 -0.46314,-0.49916 -0.773001,-0.97664 -0.68858,-1.06106 0.08442,-0.0844 0.747958,0.006 1.474526,0.19983 1.271493,0.34008 1.340776,0.32727 1.847533,-0.34166 0.713373,-0.94166 1.665818,-3.48671 1.87443,-5.0087 l 0.170849,-1.24649 -2.919864,0.17076 c -3.627764,0.21217 -7.017951,0.85382 -8.447244,1.59881 l -1.08914,0.5677 -0.689518,-0.74401 c -0.786634,-0.84878 -0.865682,-1.624 -0.284821,-2.7932 0.245042,-0.49323 0.481676,-2.20968 0.599827,-4.35089 0.167293,-3.03182 0.123795,-3.72307 -0.304928,-4.84566 -0.275032,-0.72017 -0.423945,-1.3855 -0.330921,-1.47852 0.09302,-0.093 0.681913,0.036 1.308638,0.28679 1.564672,0.62606 2.194403,0.58289 5.870063,-0.40244 2.712696,-0.72718 3.32034,-0.80723 3.997778,-0.52663 0.461246,0.19106 0.798862,0.54512 0.798862,0.83777 0,0.40971 -0.309206,0.54045 -1.613139,0.68208 -2.098649,0.22795 -3.103134,0.46331 -2.665185,0.62449 0.192875,0.071 0.350682,0.54859 0.350682,1.06134 v 0.93227 l 0.979237,-0.30053 c 0.712175,-0.21858 1.171245,-0.21305 1.683275,0.0202 1.246701,0.56804 0.850217,1.08334 -1.11951,1.45499 l -1.823547,0.34408 v 1.06416 1.06416 l 0.952053,-0.29219 c 1.212775,-0.37222 2.483772,-0.0807 2.363,0.54189 -0.09264,0.47755 -0.769443,0.75828 -2.543552,1.05501 -1.031922,0.17259 -1.052047,0.19986 -1.052047,1.4257 0,1.17902 0.04366,1.24912 0.771501,1.23861 0.725997,-0.01 3.737032,-0.55204 5.489885,-0.98741 0.657008,-0.16319 0.953555,-0.0387 1.753411,0.73665 1.065792,1.03301 1.152745,1.39075 0.560429,2.30573 -0.221233,0.34174 -0.93245,2.04631 -1.580484,3.78794 -1.665349,4.47572 -3.22085,5.91879 -4.373615,4.05747 z m -4.92174,-10.76476 c 0.08277,-1.27705 0.07233,-1.29455 -0.701364,-1.1753 -2.059842,0.31747 -2.04785,0.30862 -2.04785,1.51045 v 1.1322 l 1.332594,-0.0855 1.332593,-0.0855 z m -0.574983,-2.38731 c 0.517203,-0.1386 0.631228,-0.36596 0.631228,-1.25862 0,-1.0167 -0.05467,-1.08947 -0.818693,-1.08947 -1.410508,0 -1.706219,0.24832 -1.706219,1.43274 0,0.94673 0.08406,1.09167 0.631227,1.08834 0.347177,-0.002 0.915282,-0.08 1.262457,-0.17299 z m 0,-3.64709 c 0.436735,-0.11705 0.631228,-0.38087 0.631228,-0.85625 0,-1.18936 -0.440243,-1.69295 -1.361749,-1.5577 -0.757128,0.11112 -0.839257,0.23106 -0.928753,1.35634 -0.105382,1.32502 0.121581,1.46969 1.659274,1.05761 z m -8.704164,16.1302 c -0.837557,-0.46872 -0.624663,-2.11842 0.428063,-3.31703 0.501476,-0.57098 1.054775,-1.28063 1.229553,-1.57701 0.477055,-0.80897 0.785246,-0.26631 0.777025,1.36817 -0.01171,2.32763 -1.283811,4.16991 -2.434641,3.52587 z m 5.428535,-1.32616 c -0.163691,-0.30586 -0.476627,-1.32345 -0.695412,-2.2613 -0.328957,-1.41011 -0.333003,-1.70518 -0.02338,-1.70518 0.610014,0 2.025814,1.34525 2.327945,2.21195 0.518404,1.4871 -0.91553,3.05057 -1.609153,1.75453 z m 3.919529,-1.79225 c -0.809056,-1.86634 -0.986503,-3.01587 -0.465542,-3.01587 0.649269,0 2.33237,1.58967 2.534101,2.39342 0.228434,0.91016 -0.262406,1.81477 -0.984693,1.81477 -0.398946,0 -0.720189,-0.35339 -1.083866,-1.19232 z m 4.56855,-0.34553 c -0.582807,-0.40822 -1.965538,-3.13517 -1.716168,-3.38454 0.287473,-0.28747 1.596715,0.20405 2.313868,0.86869 0.497017,0.46062 0.712541,0.95233 0.712541,1.62565 0,1.10009 -0.512989,1.44861 -1.310241,0.8902 z"
         id="path10730"
         inkscape:connector-curvature="0" />
    </g>
  </g>
</svg>
