<svg xmlns="http://www.w3.org/2000/svg" viewBox="0 0 26.458 26.458"><g stroke-width="1.28"><path transform="matrix(.73739 0 0 .73827 3.016 1.778)" fill="#fff7b7" stroke="#000" stroke-width=".677" d="M3.845 27.358 0 0h27.7l-3.845 27.358L13.85 31z"/><path d="M9.739 5.457c.261.627.948 1.086 1.572 1.493.286.184.205.218-.55.227-1.168.014-1.365.291-1.372 1.94-.005 1.207.023 1.301.417 1.4.399.1 1.92.022 3.742-.193a37.44 37.44 0 0 1 1.44-.14c.674-.047.674-.046 1.33-1.558.242-.556.756-1.318 1.143-1.695.744-.725 1.666-1.289 1.834-1.121-.966 1.014-1.708 2.498-2.126 3.643-.185.371-.27 3.473-.114 4.17.253 1.13.327 1.221.91 1.123.31-.052.725-.155.925-.23.199-.073-.29.555-1.087 1.396-2.101 2.22-2.064 2.158-2.114 3.445-.029.737-.03.74-.652.638-.766-.124-1.49-.58-1.49-.937 0-.148.164-.431.363-.63.2-.2.301-.372.226-.382-.427-.06-1.301.09-1.888.325-.651.26-.696.253-1.325-.228-.99-.756-1.105-1.09-.502-1.46 1.468-.898 1.884-1.192 1.801-1.275-.05-.05-.608.047-1.239.216-1.842.493-1.965.506-2.442.25-.698-.373-.801-.728-.502-1.722.198-.658.262-1.773.25-4.296-.016-3.023.02-3.472.321-3.989.39-.667.794-.814 1.129-.41zm4.694 5.465-.795.11.063.78.062.782.753-.054c.804-.057 1.197-.488 1.202-1.319.003-.442-.088-.463-1.285-.299zm-3.899.395-.97-.08.003 1.374c.004 1.958.083 2.16.876 2.226.364.03.926-.026 1.25-.125.482-.148.588-.272.588-.694 0-.473-.042-.505-.525-.399-.553.122-1.83-.298-1.83-.602 0-.253.413-.366.96-.261.265.05.688.04.939-.022.403-.102.456-.21.456-.934 0-.78-.018-.809-.388-.61-.219.117-.813.172-1.358.127zm3.693 1.97c-.604.1-.679.17-.679.64 0 .506.027.523.637.409.734-.138 1.717.198 1.717.588 0 .199-.238.25-1.03.217-1.024-.041-1.034-.037-1.81.847-.43.489-.782.993-.782 1.12 0 .21.723.348 1.177.226.1-.027.398-.069.662-.093.264-.024 1.018-.475 1.675-1.002 1.183-.95 1.417-1.256.957-1.256-.444 0-1.03-.726-1.03-1.276 0-.59-.176-.639-1.494-.42z"/></g></svg>