<svg xmlns="http://www.w3.org/2000/svg" width="100" height="100" viewBox="0 0 26.458 26.458"><g stroke-width="1.28"><path transform="matrix(.73739 0 0 .73827 3.016 1.778)" fill="#fff7b7" stroke="#000" stroke-width=".677" d="M13.85 31L3.845 27.358 0 0h27.7l-3.845 27.358z"/><path d="M10.34 5.024c.886.211 1.692.764 2.08 1.425.32.546.359.913.36 3.45 0 2.176.058 2.91.248 3.138.408.493 0 .686-.77.363-.914-.382-2.244-.09-2.539.558-.392.86-.284 1.008.638.872 1.868-.275 1.702-.417 1.835 1.576.065.97.207 1.995.315 2.278.24.625.03.897-.574.745-.808-.203-1.259-.72-1.214-1.389l.042-.613-.86.083c-.933.09-1.783-.211-1.473-.522.098-.098.694-.22 1.323-.27 1.105-.09 1.147-.11 1.25-.627.059-.294.064-.577.012-.63-.052-.051-.516.05-1.032.225-1.034.352-1.299.288-2.025-.49l-.42-.449.748-.894c.886-1.06 1.178-1.238 2.029-1.238.766 0 1.32-.266 1.32-.632 0-.222-.175-.248-1.03-.15-1 .112-1.788-.081-1.788-.44 0-.084.627-.208 1.392-.276 1.289-.114 1.398-.155 1.474-.55.08-.423.073-.425-1.012-.314-1.044.107-1.854-.084-1.854-.437 0-.077.654-.213 1.454-.302 1.335-.149 1.458-.195 1.511-.576.059-.413.058-.413-1.409-.295-1.166.094-1.54.065-1.82-.145-.541-.405-.203-.545 1.554-.643 1.512-.084 1.62-.116 1.673-.488.098-.688-.802-1.4-1.952-1.544-1.761-.22-2.11.062-2.337 1.898-.057.46-.168.838-.247.838-.078 0-.242-.377-.364-.838-.123-.46-.42-1.133-.66-1.494-.524-.786-.444-1.107.314-1.259.74-.148 3.1-.113 3.809.056zm5.918.928c.363.4.66.747.66.773 0 .026-.257.073-.572.103-.559.054-.574.078-.626.981-.059 1.023-.055 1.025 1.101.733l.764-.192.184-1.243c.188-1.266.385-1.675.709-1.474.329.204.385 1.572.152 3.74-.125 1.176-.169 2.363-.095 2.637.175.656.097.704-.706.438-.603-.199-.754-.183-1.403.148-.4.204-.87.372-1.044.372-.489 0-1.33-.862-1.18-1.21.069-.159.201-1.48.294-2.935.236-3.707.544-4.209 1.762-2.87zm.191 3.432l-.94.297v.916c0 1.133.233 1.368 1.166 1.175.53-.11.697-.234.743-.554.052-.365.006-.4-.4-.297-.465.117-1.157-.13-1.157-.412 0-.085.397-.208.881-.275.827-.114.88-.153.88-.634 0-.602.032-.596-1.173-.216zm3.193 3.821c.489.358.208.59-.882.726-.54.067-.953.176-.92.24.034.066.228.476.431.913.203.436.54.895.748 1.02.506.302.306.567-.429.567-.328 0-1.232.2-2.007.446-1.437.454-2.107.45-2.495-.02-.162-.195-.101-.283.3-.436.446-.169.468-.211.196-.364-.334-.187-.416-.773-.132-.949.295-.182.197-.44-.168-.44-.567 0-1.259-.396-1.203-.688.042-.215.344-.275 1.46-.291 1.036-.015 1.76-.144 2.743-.49 1.51-.534 1.896-.572 2.358-.234zM15.87 15.04c-.345 1.243-.293 1.341.644 1.212 1.023-.14 1.264-.347.895-.767a2.3 2.3 0 01-.395-.71c-.081-.267-.258-.397-.54-.397-.336 0-.458.134-.604.662zm1.19 3.479l.826.79-.617.002c-.863.005-1.761-.575-1.761-1.139 0-.692.605-.557 1.551.347z" fill="#fd0000"/></g></svg>