<?xml version="1.0" encoding="UTF-8" standalone="no"?>
<svg
   xmlns:dc="http://purl.org/dc/elements/1.1/"
   xmlns:cc="http://creativecommons.org/ns#"
   xmlns:rdf="http://www.w3.org/1999/02/22-rdf-syntax-ns#"
   xmlns:svg="http://www.w3.org/2000/svg"
   xmlns="http://www.w3.org/2000/svg"
   xmlns:sodipodi="http://sodipodi.sourceforge.net/DTD/sodipodi-0.dtd"
   xmlns:inkscape="http://www.inkscape.org/namespaces/inkscape"
   width="100"
   height="100"
   viewBox="0 0 26.458333 26.458334"
   version="1.1"
   id="svg8"
   inkscape:version="1.0.1 (3bc2e813f5, 2020-09-07)"
   sodipodi:docname="1TO.svg">
  <defs
     id="defs2" />
  <sodipodi:namedview
     id="base"
     pagecolor="#ffffff"
     bordercolor="#666666"
     borderopacity="1.0"
     inkscape:pageopacity="0.0"
     inkscape:pageshadow="2"
     inkscape:zoom="1.4"
     inkscape:cx="234.713"
     inkscape:cy="56.055298"
     inkscape:document-units="mm"
     inkscape:current-layer="layer1"
     showgrid="false"
     units="px"
     inkscape:window-width="1366"
     inkscape:window-height="711"
     inkscape:window-x="0"
     inkscape:window-y="0"
     inkscape:window-maximized="1"
     inkscape:lockguides="true"
     inkscape:snap-object-midpoints="true"
     showguides="false"
     inkscape:snap-global="true"
     inkscape:document-rotation="0" />
  <metadata
     id="metadata5">
    <rdf:RDF>
      <cc:Work
         rdf:about="">
        <dc:format>image/svg+xml</dc:format>
        <dc:type
           rdf:resource="http://purl.org/dc/dcmitype/StillImage" />
        <dc:title></dc:title>
      </cc:Work>
    </rdf:RDF>
  </metadata>
  <g
     inkscape:label="Layer 1"
     inkscape:groupmode="layer"
     id="layer1"
     transform="translate(0,-261.01665)">
    <g
       id="g5169"
       transform="matrix(-0.7427185,0,0,-0.74381573,24.837194,483.68586)"
       style="stroke-width:1.34541">
      <polygon
         transform="matrix(-0.94419614,0,0,-0.94419614,28.706224,296.221)"
         style="fill:#fff7b7;fill-opacity:1;stroke:#000000;stroke-width:0.711947;stroke-miterlimit:4;stroke-dasharray:none"
         points="27.7,0 23.855018,27.358471 13.85,31 3.844982,27.358471 0,0 "
         id="shogi_trapezoid" />
      <path
         sodipodi:nodetypes="ccccccccsccsscsscc"
         style="fill:#fe0000;stroke:#ff0000;stroke-width:0.285825"
         d="m 15.251579,291.09924 c -2.420973,-0.22418 -3.945043,-0.79984 -4.796475,-1.81171 -1.5249946,-1.81235 -0.232474,-4.71922 3.152617,-7.09023 0.544581,-0.38143 0.559378,-0.46881 0.272379,-1.60858 -0.16692,-0.66288 -0.407054,-2.11803 -0.53365,-3.23366 -0.207433,-1.82811 -0.30693,-2.09131 -1.007551,-2.66528 -0.427565,-0.35028 -0.694846,-0.7194 -0.593967,-0.8203 0.304684,-0.30468 1.950194,-0.18888 2.623259,0.18461 0.620687,0.34442 0.630992,0.40164 0.630992,3.5023 0,1.73368 0.06887,3.22158 0.152999,3.30643 0.08416,0.0849 1.046423,-0.30263 2.138396,-0.86107 2.447724,-1.25178 4.144727,-1.35908 4.144727,-0.26207 0,0.61742 -0.347404,0.82382 -2.52397,1.49956 -2.268521,0.70429 -5.407356,2.24059 -6.560929,3.21126 -1.172413,0.98651 -1.90035,2.69372 -1.529913,3.58805 0.541193,1.30655 1.014844,1.42232 5.81927,1.42232 4.347745,0 4.418178,0.009 4.495368,0.5508 -0.170345,1.75005 -4.86153,1.1758 -5.883552,1.08757 z"
         id="path9498"
         inkscape:connector-curvature="0" />
    </g>
  </g>
</svg>
