<svg xmlns="http://www.w3.org/2000/svg" viewBox="0 0 26.458 26.458"><g stroke-width="1.345"><path transform="matrix(.70127 0 0 .7023 3.517 2.335)" fill="#fff7b7" stroke="#000" stroke-width=".712" d="m27.7 0-3.845 27.358L13.85 31 3.845 27.358 0 0z"/><path d="M15.252 291.1c-2.421-.225-3.945-.8-4.797-1.812-1.525-1.813-.232-4.72 3.153-7.09.544-.382.56-.47.272-1.61-.167-.662-.407-2.117-.534-3.233-.207-1.828-.306-2.091-1.007-2.665-.428-.35-.695-.72-.594-.82.305-.305 1.95-.19 2.623.184.62.345.631.402.631 3.502 0 1.734.07 3.222.153 3.307.084.085 1.047-.303 2.139-.861 2.447-1.252 4.144-1.36 4.144-.262 0 .617-.347.824-2.524 1.5-2.268.704-5.407 2.24-6.56 3.21-1.173.987-1.9 2.694-1.53 3.589.54 1.306 1.014 1.422 5.819 1.422 4.348 0 4.418.009 4.495.55-.17 1.75-4.861 1.176-5.883 1.088z" fill="#fe0000" stroke="red" stroke-width=".286" transform="matrix(-.74272 0 0 -.74382 24.837 222.67)"/></g></svg>