<svg xmlns="http://www.w3.org/2000/svg" viewBox="0 0 26.458 26.458"><path fill="#fff7b7" stroke="#000" stroke-width=".5" d="m20.246 4.91 2.696 19.213H3.517L6.213 4.909l7.016-2.557Z"/><path fill="#fe0000" stroke="red" stroke-width=".213" d="M12.949 20.316c-1.798-.167-2.93-.595-3.563-1.348-1.133-1.348-.172-3.51 2.342-5.273.404-.285.416-.35.202-1.198-.124-.492-.302-1.575-.397-2.405-.153-1.36-.227-1.555-.748-1.982-.317-.26-.516-.536-.44-.61.226-.227 1.448-.141 1.947.137.46.256.47.299.47 2.605 0 1.29.051 2.396.113 2.46.062.063.777-.226 1.588-.64 1.818-.932 3.078-1.013 3.078-.196 0 .46-.258.613-1.874 1.116-1.685.524-4.016 1.666-4.873 2.388-.87.734-1.41 2.003-1.136 2.67.401.97.753 1.057 4.322 1.057 3.23 0 3.281.007 3.338.409-.126 1.302-3.61.875-4.369.81z" style="fill:#000;stroke:#000;stroke-opacity:1"/></svg>