<?xml version="1.0" encoding="utf-8"?>
<!-- Generator: Adobe Illustrator 23.0.1, SVG Export Plug-In . SVG Version: 6.00 Build 0)  -->
<svg version="1.1"
	 id="svg8" xmlns:cc="http://creativecommons.org/ns#" xmlns:dc="http://purl.org/dc/elements/1.1/" xmlns:inkscape="http://www.inkscape.org/namespaces/inkscape" xmlns:rdf="http://www.w3.org/1999/02/22-rdf-syntax-ns#" xmlns:sodipodi="http://sodipodi.sourceforge.net/DTD/sodipodi-0.dtd" xmlns:svg="http://www.w3.org/2000/svg"
	 xmlns="http://www.w3.org/2000/svg" xmlns:xlink="http://www.w3.org/1999/xlink" x="0px" y="0px" width="100px" height="100px"
	 viewBox="0 0 100 100" style="enable-background:new 0 0 100 100;" xml:space="preserve">
<style type="text/css">
	.st0{fill:url(#SVGID_1_);stroke:#996633;stroke-width:0.9219;stroke-miterlimit:10;}
	.st1{fill:#9E7328;fill-opacity:0.65;}
	.st2{fill:#FFFFFF;}
</style>
<sodipodi:namedview  bordercolor="#666666" borderopacity="1.0" id="base" inkscape:current-layer="layer1" inkscape:cx="60.10394" inkscape:cy="-27.710034" inkscape:document-rotation="0" inkscape:document-units="mm" inkscape:lockguides="true" inkscape:pageopacity="0.0" inkscape:pageshadow="2" inkscape:snap-global="true" inkscape:snap-object-midpoints="true" inkscape:window-height="709" inkscape:window-maximized="0" inkscape:window-width="1362" inkscape:window-x="0" inkscape:window-y="0" inkscape:zoom="1.4" pagecolor="#ffffff" showgrid="false" showguides="false" units="px">
	</sodipodi:namedview>
<g>
	<linearGradient id="SVGID_1_" gradientUnits="userSpaceOnUse" x1="23.3129" y1="50" x2="76.6713" y2="50">
		<stop  offset="0" style="stop-color:#F9DA9C"/>
		<stop  offset="4.306258e-02" style="stop-color:#FBE0A1"/>
		<stop  offset="6.657223e-02" style="stop-color:#FCE6A6"/>
		<stop  offset="0.1449" style="stop-color:#F4D593"/>
		<stop  offset="0.1928" style="stop-color:#F5D797"/>
		<stop  offset="0.2428" style="stop-color:#F7DDA4"/>
		<stop  offset="0.2629" style="stop-color:#F9E1AB"/>
		<stop  offset="0.3285" style="stop-color:#F7DFA8"/>
		<stop  offset="0.3826" style="stop-color:#F2D89E"/>
		<stop  offset="0.3983" style="stop-color:#EFD599"/>
		<stop  offset="0.4612" style="stop-color:#F2D795"/>
		<stop  offset="0.4621" style="stop-color:#F2D795"/>
		<stop  offset="0.527" style="stop-color:#F2D795"/>
		<stop  offset="0.5377" style="stop-color:#F2D795"/>
		<stop  offset="0.5379" style="stop-color:#F2D795"/>
		<stop  offset="0.6149" style="stop-color:#EFDA9C"/>
		<stop  offset="0.7347" style="stop-color:#F6E5AD"/>
		<stop  offset="0.7731" style="stop-color:#F9E9B4"/>
		<stop  offset="0.8215" style="stop-color:#F7E1A6"/>
		<stop  offset="0.8873" style="stop-color:#F5DB9B"/>
		<stop  offset="0.9561" style="stop-color:#F4D997"/>
		<stop  offset="0.9674" style="stop-color:#F4DA9C"/>
		<stop  offset="1" style="stop-color:#F4DB9E"/>
	</linearGradient>
	<polygon class="st0" points="74.5,17.5 50,8.6 25.5,17.5 16.1,84.1 16.1,91.4 83.9,91.4 83.9,84.1 	"/>
	<rect x="16.6" y="84.1" class="st1" width="66.8" height="6.8"/>
	<g>
		<path d="M53.5,34.1c-1.1,0.2-2.1,0.5-3,0.5c-1,0-3.6-0.3-4.3-1.9c-0.7-2.3-3.4-4.3-5.9-3.9c-0.1,0-0.2,0.2-0.1,0.3
			c0.2,0.3,0.3,0.6,0.5,0.7c1.8,1.7,1.7,3.4,0.3,5.6c-4.1,6.3-8.7,12-14.2,16.6c-1.5,1.2-3,2.4-4.4,3.5c-0.1,0.1-0.1,0.3,0.1,0.3
			c1,0.1,1.9-0.1,2.8-0.4c3.8-1.1,6.1-3.1,8.9-6.2c0.4-0.6,1.1-1.6,1.4-1.6c0.6,0,3,0.6,3.4,1.6c1.1,1.8,0.9,2.7-0.8,3.9
			c-0.8,0.6-2.2,1.1-4.3,1.7c-2.3,0.5-3.2,0.6-5.5,0.5c-0.1,0-0.2,0.2-0.1,0.3c4.1,3.5,7.9,2.2,11.7,0.1c0.1,0,0.2,0,0.2,0.1
			c0.5,2.3,0.2,2.7-0.8,4.1c-2.5,3.1-4.1-0.3-6-0.9c-0.1,0-0.2,0.1-0.2,0.2c0.4,2.4,2.6,5.3,3.9,5.3c1.2,0,2.8-2.9,3.6-5.3
			c-0.2,1.2-0.3,6.7-0.9,7.5c-2.9,3.8-6.7,4-10.7,2.7c-0.1,0-0.2,0.1-0.2,0.2c1.7,3.4,6.2,5.4,9.2,3.3c1.7-1,3.2-2.3,4.9-3.4
			c3.6-2.7,7.3-5.4,11.1-8.3c0.1-0.1,0.2,0,0.2,0.1c0.1,0.7,0.2,1.5,0.2,2.1c0.2,2.3,0.3,4.7,0.5,7c0.2,2.2,1.8,3.5,3.4,2.9
			c1.6-0.6,5.3-9.8,6.7-13c0-0.1,0.2-0.1,0.2,0c2.7,2.6,5.1,4.9,7.4,7.2c1,1,1.7,0.8,2.1-0.5c0.8-2.8-0.3-5.9-2.7-7.3
			c-2.8-1.6-5.5-3-8.5-4.8c-0.1-0.1-0.1-0.2,0-0.3c0.6-0.6,0.8-0.9,1.4-1.2c2.1-1.6,4.3-3,6.4-4.6c2.5-1.9,1.6-5.6-1-6.3
			c-0.6-0.1-1.8-0.5-1.8-0.5c0-0.4,1.8-4.4,2-7.4c0.7-6.9,0.1-6.9-5.4-5.4c-0.6,0.2-2.4,0.6-3.4,0.9c-3.2,0.7-9,1.2-9.3,1.2
			c-0.4,0-0.6,0.5-0.3,0.7C52.5,32.8,53,33.4,53.5,34.1 M54.2,57.4c0,0.7-0.5,1.9-1,2.2c-2.6,1.6-5.3,2.9-8,4.4
			c-0.1,0-0.2,0-0.2-0.1c-0.2-0.9-0.4-2.2-0.2-2.9v-0.1c0.1-0.1,0.7-0.6,1.8-1.4c0.9-0.6,1.9-1.1,2.8-1.9c2.4-2.2,2-3,1-6
			c0-0.1,0-0.2,0.1-0.2c0.6,0,1.5-0.2,1.8-0.6c0.4-0.6,0.5-1.2,0.4-2c-0.1-1-1-0.9-1.6-0.9c-1.1,0-3.5,0.7-5.2,1.6
			c-0.6,0.4-1.8,0.7-2.1,0.7c-0.2,0-1.2-0.9-2-1.9c-0.1-0.1,0-0.2,0.1-0.3c2.3-0.8,4.4-1.7,6.7-2.4c0.4-0.1,1.2-0.6,1.6-0.8
			c0.9-0.6,1.1-1.8,0.9-2.5c-0.3-0.8-1.6-1-2.2-0.9c-1.7,0.4-3.2,1.4-4.9,1.9c-1.7,0.6-3.1,1-5.1,1.1c-0.1,0-0.2-0.2-0.1-0.3
			c1.1-1.8,2.4-3.6,3.5-5.3C43,37.4,44,36.3,45,35c0.1-0.1,0.1-0.1,0.2,0c1,0.9,2.1,1.9,3.1,2.9c2.5,2.3,2.5,2.4,5,0.1
			c0.1-0.1,0.2,0,0.3,0.1c0.2,1.2,0.5,2.3,0.6,3.4C54.2,46.9,54.2,52.1,54.2,57.4z M44.6,53.8c0.3-0.9,2.9-1.9,3.5-1.9
			c0.1,0,0.1,0.1,0.1,0.2c0,0.4,0,1.7,0,2.1c-0.1,1.1-2.3,5.1-3.6,5.7C44.7,58.6,44.4,54.4,44.6,53.8z M54.1,34.4
			c4.3,0.6,13-1.8,13-1.6c-0.1,2.4-0.6,3.8-0.8,3.9c-0.2,0.2-9,1.6-9.3,1.2C56.1,37.4,55.7,35.9,54.1,34.4 M65.6,40.3
			c0,0.5-0.6,3.8-1.2,3.9c-1.8,0.5-5,0.8-6.9,0.9c-0.2-1.4-0.3-3.4-0.1-3.6C57.6,41.3,65.6,39.8,65.6,40.3z M59.3,65.8
			c-0.5,0.5-1.2,0.1-1.4-0.6c0-0.6-0.1-1-0.1-1.4c-0.1-5.1-0.2-8.3-0.4-13.2c0-1.5,0.4-2.2,1.7-2.4c1.2-0.1,2.5-0.2,3.7-0.3
			c3.2-0.3,3.6-0.2,4.8-3.7c0.1-0.2,0.5-1.4,0.6-1.6c0.1-0.1,0.5,0.3,0.6,0.5c0,0,1,1.4-0.9,3.3c-2.5,2.4-5,4.6-7.7,6.7
			c-1.7,1.4-1.8,2.4-0.1,3.6c0.7,0.6,1.5,1.1,2.3,1.7c0.6,0.4,1.4,0.7,1.8,0.9c0.2,0.1,0.3,0.3,0.2,0.5C64,60.7,60.4,64.6,59.3,65.8
			z"/>
		<path class="st2" d="M63,30.7c0,0.2-5.7,1.2-6.2,1.2c-1.7,0.2-3.5,0.3-3.3,0.1c0.2-0.2,1.4-0.2,3.3-0.5C57.2,31.5,63,30.5,63,30.7
			z"/>
		<path class="st2" d="M70.8,45.1c0,0.6-1.8,1.9-2.2,1.9c-0.5,0,1.2-1.4,1-2c-0.2-0.7-0.1-1.4,0.4-1.4S70.8,44.4,70.8,45.1z"/>
		<path class="st2" d="M60.3,66.7c-0.1,0.4-0.7,1.7-1.3,1.7c-0.6,0-0.7-0.2-0.7-0.6s1.1-1.6,1.7-1.8C60.4,65.8,60.4,66.3,60.3,66.7z
			"/>
		<ellipse transform="matrix(0.9743 -0.2254 0.2254 0.9743 -8.4677 11.8683)" class="st2" cx="47.7" cy="43" rx="1.3" ry="0.6"/>
		<path class="st2" d="M37.8,70.1c-0.3,0.3-2.8,1.7-3.2,1.4c-0.6-0.3-0.5-0.6-0.1-0.7c0.8-0.3,2.8-1,3.4-1.4
			C38.2,69.2,38,69.9,37.8,70.1z"/>
	</g>
</g>
</svg>
