<svg version="1.1" id="svg8" xmlns="http://www.w3.org/2000/svg" viewBox="0 0 100 100" xml:space="preserve"><style>.st2{fill:#fff}</style><linearGradient id="SVGID_1_" gradientUnits="userSpaceOnUse" x1="23.313" y1="52" x2="76.671" y2="52" gradientTransform="matrix(1 0 0 -1 0 102)"><stop offset="0" stop-color="#f9da9c"/><stop offset=".043" stop-color="#fbe0a1"/><stop offset=".067" stop-color="#fce6a6"/><stop offset=".145" stop-color="#f4d593"/><stop offset=".193" stop-color="#f5d797"/><stop offset=".243" stop-color="#f7dda4"/><stop offset=".263" stop-color="#f9e1ab"/><stop offset=".329" stop-color="#f7dfa8"/><stop offset=".383" stop-color="#f2d89e"/><stop offset=".398" stop-color="#efd599"/><stop offset=".461" stop-color="#f2d795"/><stop offset=".462" stop-color="#f2d795"/><stop offset=".527" stop-color="#f2d795"/><stop offset=".538" stop-color="#f2d795"/><stop offset=".538" stop-color="#f2d795"/><stop offset=".615" stop-color="#efda9c"/><stop offset=".735" stop-color="#f6e5ad"/><stop offset=".773" stop-color="#f9e9b4"/><stop offset=".822" stop-color="#f7e1a6"/><stop offset=".887" stop-color="#f5db9b"/><stop offset=".956" stop-color="#f4d997"/><stop offset=".967" stop-color="#f4da9c"/><stop offset="1" stop-color="#f4db9e"/></linearGradient><path fill="url(#SVGID_1_)" stroke="#63451a" stroke-width=".922" stroke-miterlimit="10" d="M74.5 17.5 50 8.6l-24.5 8.9-9.4 66.6v7.3h67.8v-7.3z"/><path fill="#63451a" fill-opacity=".75" d="M16.6 84.1h66.8v6.8H16.6z"/><path d="M53.5 34.1c-1.1.2-2.1.5-3 .5-1 0-3.6-.3-4.3-1.9-.7-2.3-3.4-4.3-5.9-3.9-.1 0-.2.2-.1.3.2.3.3.6.5.7 1.8 1.7 1.7 3.4.3 5.6-4.1 6.3-8.7 12-14.2 16.6-1.5 1.2-3 2.4-4.4 3.5-.1.1-.1.3.1.3 1 .1 1.9-.1 2.8-.4 3.8-1.1 6.1-3.1 8.9-6.2.4-.6 1.1-1.6 1.4-1.6.6 0 3 .6 3.4 1.6 1.1 1.8.9 2.7-.8 3.9-.8.6-2.2 1.1-4.3 1.7-2.3.5-3.2.6-5.5.5-.1 0-.2.2-.1.3 4.1 3.5 7.9 2.2 11.7.1.1 0 .2 0 .2.1.5 2.3.2 2.7-.8 4.1-2.5 3.1-4.1-.3-6-.9-.1 0-.2.1-.2.2.4 2.4 2.6 5.3 3.9 5.3 1.2 0 2.8-2.9 3.6-5.3-.2 1.2-.3 6.7-.9 7.5-2.9 3.8-6.7 4-10.7 2.7-.1 0-.2.1-.2.2 1.7 3.4 6.2 5.4 9.2 3.3 1.7-1 3.2-2.3 4.9-3.4 3.6-2.7 7.3-5.4 11.1-8.3.1-.1.2 0 .2.1.1.7.2 1.5.2 2.1.2 2.3.3 4.7.5 7 .2 2.2 1.8 3.5 3.4 2.9 1.6-.6 5.3-9.8 6.7-13 0-.1.2-.1.2 0 2.7 2.6 5.1 4.9 7.4 7.2 1 1 1.7.8 2.1-.5.8-2.8-.3-5.9-2.7-7.3-2.8-1.6-5.5-3-8.5-4.8-.1-.1-.1-.2 0-.3.6-.6.8-.9 1.4-1.2 2.1-1.6 4.3-3 6.4-4.6 2.5-1.9 1.6-5.6-1-6.3-.6-.1-1.8-.5-1.8-.5 0-.4 1.8-4.4 2-7.4.7-6.9.1-6.9-5.4-5.4-.6.2-2.4.6-3.4.9-3.2.7-9 1.2-9.3 1.2-.4 0-.6.5-.3.7.3.8.8 1.4 1.3 2.1m.7 23.3c0 .7-.5 1.9-1 2.2-2.6 1.6-5.3 2.9-8 4.4-.1 0-.2 0-.2-.1-.2-.9-.4-2.2-.2-2.9v-.1c.1-.1.7-.6 1.8-1.4.9-.6 1.9-1.1 2.8-1.9 2.4-2.2 2-3 1-6 0-.1 0-.2.1-.2.6 0 1.5-.2 1.8-.6.4-.6.5-1.2.4-2-.1-1-1-.9-1.6-.9-1.1 0-3.5.7-5.2 1.6-.6.4-1.8.7-2.1.7-.2 0-1.2-.9-2-1.9-.1-.1 0-.2.1-.3 2.3-.8 4.4-1.7 6.7-2.4.4-.1 1.2-.6 1.6-.8.9-.6 1.1-1.8.9-2.5-.3-.8-1.6-1-2.2-.9-1.7.4-3.2 1.4-4.9 1.9-1.7.6-3.1 1-5.1 1.1-.1 0-.2-.2-.1-.3 1.1-1.8 2.4-3.6 3.5-5.3.7-1.4 1.7-2.5 2.7-3.8.1-.1.1-.1.2 0 1 .9 2.1 1.9 3.1 2.9 2.5 2.3 2.5 2.4 5 .1.1-.1.2 0 .3.1.2 1.2.5 2.3.6 3.4v15.9zm-9.6-3.6c.3-.9 2.9-1.9 3.5-1.9.1 0 .1.1.1.2v2.1c-.1 1.1-2.3 5.1-3.6 5.7.1-1.3-.2-5.5 0-6.1zm9.5-19.4c4.3.6 13-1.8 13-1.6-.1 2.4-.6 3.8-.8 3.9-.2.2-9 1.6-9.3 1.2-.9-.5-1.3-2-2.9-3.5m11.5 5.9c0 .5-.6 3.8-1.2 3.9-1.8.5-5 .8-6.9.9-.2-1.4-.3-3.4-.1-3.6.2-.2 8.2-1.7 8.2-1.2zm-6.3 25.5c-.5.5-1.2.1-1.4-.6 0-.6-.1-1-.1-1.4-.1-5.1-.2-8.3-.4-13.2 0-1.5.4-2.2 1.7-2.4 1.2-.1 2.5-.2 3.7-.3 3.2-.3 3.6-.2 4.8-3.7.1-.2.5-1.4.6-1.6.1-.1.5.3.6.5 0 0 1 1.4-.9 3.3-2.5 2.4-5 4.6-7.7 6.7-1.7 1.4-1.8 2.4-.1 3.6.7.6 1.5 1.1 2.3 1.7.6.4 1.4.7 1.8.9.2.1.3.3.2.5-.4.9-4 4.8-5.1 6z"/><path class="st2" d="M63 30.7c0 .2-5.7 1.2-6.2 1.2-1.7.2-3.5.3-3.3.1s1.4-.2 3.3-.5c.4 0 6.2-1 6.2-.8zm7.8 14.4c0 .6-1.8 1.9-2.2 1.9-.5 0 1.2-1.4 1-2-.2-.7-.1-1.4.4-1.4s.8.8.8 1.5zM60.3 66.7c-.1.4-.7 1.7-1.3 1.7s-.7-.2-.7-.6 1.1-1.6 1.7-1.8c.4-.2.4.3.3.7z"/><ellipse transform="rotate(-13.026 47.697 43.01)" class="st2" cx="47.7" cy="43" rx="1.3" ry=".6"/><path class="st2" d="M37.8 70.1c-.3.3-2.8 1.7-3.2 1.4-.6-.3-.5-.6-.1-.7.8-.3 2.8-1 3.4-1.4.3-.2.1.5-.1.7z"/></svg>