<svg xmlns="http://www.w3.org/2000/svg" viewBox="0 0 100 100"><linearGradient id="a" gradientUnits="userSpaceOnUse" x1="23.713" y1="972" x2="76.15" y2="972" gradientTransform="translate(0 -922)"><stop offset="0" stop-color="#f9da9c"/><stop offset=".043" stop-color="#fbe0a1"/><stop offset=".067" stop-color="#fce6a6"/><stop offset=".145" stop-color="#f4d593"/><stop offset=".193" stop-color="#f5d797"/><stop offset=".243" stop-color="#f7dda4"/><stop offset=".263" stop-color="#f9e1ab"/><stop offset=".329" stop-color="#f7dfa8"/><stop offset=".383" stop-color="#f2d89e"/><stop offset=".398" stop-color="#efd599"/><stop offset=".461" stop-color="#f2d795"/><stop offset=".462" stop-color="#f2d795"/><stop offset=".527" stop-color="#f2d795"/><stop offset=".538" stop-color="#f2d795"/><stop offset=".538" stop-color="#f2d795"/><stop offset=".615" stop-color="#efda9c"/><stop offset=".735" stop-color="#f6e5ad"/><stop offset=".773" stop-color="#f9e9b4"/><stop offset=".822" stop-color="#f7e1a6"/><stop offset=".887" stop-color="#f5db9b"/><stop offset=".956" stop-color="#f4d997"/><stop offset=".967" stop-color="#f4da9c"/><stop offset="1" stop-color="#f4db9e"/></linearGradient><path fill="url(#a)" stroke="#63451a" stroke-width=".924" stroke-miterlimit="10" d="M73.5 19.4 50 11l-23.5 8.4-9 63V89h65v-6.6z"/><path fill="#63451a" fill-opacity=".75" d="M18 82.4h64v6H18z"/><path d="M29 46.3c-.1-.2 0-.5.3-.5.8.1 1.9.4 2.5.5 2.5 1.1 5.9-.6 9-2.3.5-.3 1.4-1.1 1.4-1.7.1-3.5.3-6.1-1.7-9.2-1.2-1.6-2.6-2.7-2.7-3.5-.1-.3.1-.5.3-.5.6-.2 2.2-.3 3.4 0 1.6.4 2.9 1.1 3.6 2.1.9 1.5.8 3.8.5 6.6-.1 1.1-.1 2.3-.2 3.5 0 .2.2.4.3.4 1.2-.4 2.1-.8 3-.7 1 .1 2.1.7 2.8 1.6.8.9.2 1.6-.8 1.9-1.2.3-4.1 1.5-5 1.7-.1 0-.2.2-.2.4 0 .5-.1 2-.2 2.6 0 .7.3.9.8 1.2.7.4 1.2 0 1.4.4.4.5.2 1.5-.3 2.2-.2.3-.5.6-.8 1-.1.1-.1.4 0 .5.9 1 1.9 2 2.8 3 .8.9 1.8 2.1.7 3.5s-2.1.5-2.9-.8l-.4-.7c-.2-.3-.4-.1-.4.2 0 1.4-.1 3.6-.1 4.5 0 .3.2.5.3.5.6.2 1.7.5 2.4.5 1.4 0 2.9-.5 4.4-.7 1.2-.2 2.5-.6 3.3-1 .3-.2.6-.6.6-1.1 0-.8-.1-2.1-.2-3.4 0-.4-.3-.6-.6-.5-3.1.7-5.2-.1-6.8-3.6-.1-.2.1-.5.3-.5 1.5.1 2.9.4 4.3.3.8-.1 1.4-.2 1.9-.2.3 0 .4-.3.4-.5 0-.6 0-1.7-.2-2.7 0-.2-.2-.3-.3-.3-4.3 1.9-6.4 1.3-8.2-2.7-.1-.2 0-.5.2-.5.7 0 1.3-.1 1.9-.1 1.4-.2 5-.7 6.2-.9.2 0 .3-.3.3-.5V44c-.3-.8-.3-1.8-.3-2.3 0-.2-.2-.3-.3-.3-.3.1-.9.3-1.4.4-2.1.5-3.5-1.2-4.9-3.4-.2-.2 0-.5.3-.5 1.4.2 2.5.4 3.6.5.8 0 1.9-.2 2.4-.3.1 0 .2-.2.2-.3 0-.7.1-2.7-.6-4-.8-1.7-2.5-3.9-3.6-5.5-.1-.1-.3-.5.1-.5 0 0 4.1-.2 6.3 2 .8.7.9 5.5 1 6.9 0 .2.2.4.3.3.6-.3 1.9-.8 2.5-1 1-.5 2.1-.6 3.1-.8 1.1-.2 2.9 2.9 2.5 4.1-.2.5-.8.8-1.2.9-1.3.2-2.5.2-3.8.4-.9.1-2.4.4-3 .5-.2 0-.3.2-.3.5 0 .7.1 2.2.3 3.8 0 .3.3.5.4.4 1.2-.5 3-1.3 4.1-1.7 1.9-.9 3.2.3 4.4 1.8.3.5.5 1.5.3 1.9-.2.5-.8.7-1.4.8-1.7.3-3.5.4-5.2.5-.7.1-1.7.4-2.1.5-.2.1-.3.2-.3.4 0 .5 0 1.7.1 2.6 0 .4.3.6.7.5.8-.4 1.8-.8 2.4-1.1 2-1 3.4.3 4.6 2.2.3.5.3 1.4.1 1.9-.2.4-.8.5-1.3.6-1.5.2-3 .2-4.6.6-.2.1-.8.2-1.3.3-.1 0-.2.2-.2.3.1.9.2 3.6.3 4 0 .3.2.4.4.4.4-.1 1.1-.3 1.9-.5 2.7-.5 5.3-1.1 7.9 1.2 1.3 1.1 1.4 2.9 1.8 4.1.1.5-.2 1-.5.8-4.8-3.3-12.3-1-17.2 0-1.6.4-3.1 1.1-4.7 1.1-1.1 0-2.5-1.1-3.7-2.2-.3-.2-.5 0-.5.4 0 1 0 2.5-.1 3.5-.2 2-.4 3.5-1.7 3.9-2.7.8-6-4.2-7.6-6.6-.2-.3-.7-1.1-1.2-1.9-.2-.3.1-.5.3-.5 2 1.3 3.8 2.2 5.8 3.1.2.1.3-.1.3-.3.2-3.6.3-6.9.4-10.6 0-.3-.3-.5-.4-.3-2.5 2.2-4.5 4-6.5 5.8-2.4 2-4.8 4.1-7.8 4.5-1 .1-2.1-.3-3.1-.5-.2 0-.3-.2-.3-.5 0-.2.1-.4.2-.5.3-.2.4-.4.7-.5 6.7-1.7 11.6-7.2 16.3-12.9.7-.8.4-2.8.6-4.4v-.7c0-.2-.2-.4-.3-.3-.3.1-3.3 2.1-5.2 2.6-2.9 1.3-5.3 0-7.3-3.8z"/><path d="M40.3 29.8c0 .3-.4.4-.9.3s-.8-.4-.8-.5c0-.3.5-.4.9-.3.6.2.8.2.8.5zm14.1-1.3c0 .2-.4.2-.8.1-.5-.1-.8-.2-.8-.4s.4-.3.8-.2c.4 0 .8.3.8.5zm-21.3 19c0 .4-.6.5-1.2.5-.6-.1-1.1-.5-1.1-.8s.5-.3 1.1-.2c.6.1 1.3.2 1.2.5zm35 14.7c0 .5-.8.8-1.9.8s-1.9-.3-1.9-.7.8-.5 1.9-.5c1 0 1.9 0 1.9.4z" fill="#fff"/></svg>