<svg xmlns="http://www.w3.org/2000/svg" viewBox="0 0 100 100"><linearGradient id="a" gradientUnits="userSpaceOnUse" x1="16.2" y1="52" x2="83.8" y2="52" gradientTransform="matrix(1 0 0 -1 0 102)"><stop offset="0" stop-color="#f9da9c"/><stop offset=".043" stop-color="#fbe0a1"/><stop offset=".067" stop-color="#fce6a6"/><stop offset=".145" stop-color="#f4d593"/><stop offset=".193" stop-color="#f5d797"/><stop offset=".243" stop-color="#f7dda4"/><stop offset=".263" stop-color="#f9e1ab"/><stop offset=".329" stop-color="#f7dfa8"/><stop offset=".383" stop-color="#f2d89e"/><stop offset=".398" stop-color="#efd599"/><stop offset=".461" stop-color="#f2d795"/><stop offset=".462" stop-color="#f2d795"/><stop offset=".527" stop-color="#f2d795"/><stop offset=".538" stop-color="#f2d795"/><stop offset=".538" stop-color="#f2d795"/><stop offset=".615" stop-color="#efda9c"/><stop offset=".735" stop-color="#f6e5ad"/><stop offset=".773" stop-color="#f9e9b4"/><stop offset=".822" stop-color="#f7e1a6"/><stop offset=".887" stop-color="#f5db9b"/><stop offset=".956" stop-color="#f4d997"/><stop offset=".967" stop-color="#f4da9c"/><stop offset="1" stop-color="#f4db9e"/></linearGradient><path fill="url(#a)" stroke="#63451a" stroke-width=".92" stroke-miterlimit="10" d="M74.4 17.5 50 8.7l-24.4 8.8L16.2 84v7.3h67.6V84z"/><path fill="#63451a" fill-opacity=".75" d="M16.7 84h66.7v6.8H16.7z"/><path d="M55.5 44.8c.4 0 1 .3 1.3.6.1.1.1.2.1.2.7 1.8 0 2.2-1.3 2.3-2.2.2-5.3.5-7.5.6.9 3.6.1 3.8 4.6 3.2 1.9-.2 3.9-.2 5.8-.2.7 0 1.5.1 1.9.6.6.7 1.5 1.9 1.4 2.8-.2 1.9-6.2-.3-7.3 0 3.8 1.9 3.4 5.4 2 6.6-1.6 1.3-3.4 2.2-5.1 3.4-.4.3-1.2.8-.6 1.7h.8c3.5-.1 7-.3 10.5-.3 2.4 0 4.5.9 5.6 3.7.3.6.4 1.7.1 2.1s-1.2.6-1.7.3c-4.2-2.7-8.7-2.1-13.1-1.8-5 .5-10 1.8-15 2.9-3.7.7-7.3-1.4-8.1-5.1 2 .3 4.1 1 6.2.8 3-.3 5.9-1.1 8.8-1.9.3-.1.6-.5.8-.9s.4-.8.4-1.2c.1-1.4-.1-2.9-.3-5-1.1 1.7-1.8 2.9-2.5 4.1-1.3 2-3.3 2.2-4.8.6-1.8-2-2.9-4.3-3.3-8 1.1 1.2 2 2 2.8 2.9 2.4 2.4 2.6 2.5 5.3.6 1-.6 2.5-2.3 2.6-2.8.1-.6-.1-2-.1-2s-7.8 3-9.7.8c-.7-.8-1.1-1.8-1.7-2.8 3.5.6 6.9.6 10.4-.6l.9-.3c.2-.1.4-.3.3-.6l-.5-3.2s-3.8.3-5-1.2c-.1-.1-.3-.5-.7 0-1.8 2-7.8 7.1-8.9 7.7-2 1.2-4.1 1.5-6.5.6 8.2-5.8 18.8-15.1 21.6-23 .9-1.5.1-2.6-.6-3.8-1.1-1.9-1.2-2.6-1.5-3.5-.2-.6.4-1.1.8-.7 1.8 1.4 3.8 2.7 5.5 4.2.6.6 1.1 2.1.8 2.9-.1.5-.4 1.2-.4 1.4.1.1.8.8 1.2 1.3 6.3 6.5 13 12.1 21 14.8.9.3 3.9 2.1 2.3 2.3C63.8 56 58.2 46 56.7 44.6c-1.8-1.8-3.4-3.6-5.2-5.3-3.3-3.1-2.2-3.1-5.3.5-1.4 1.6-2.5 3.5-3.9 5.3-.1.1 0 .3.1.3 1.2.1 11.6-.7 13.1-.6zm-4.9 19.3s2.5-3.2 2.8-4.3c.3-.8.4-3.1.3-4.8-1.1-.2-2.6 0-3.6 0-.2 0-.4.2-.3.5.2 1.2.5 6.8.8 8.6z"/><path d="M48.2 29.1c-.2.3-.8.1-1.4-.5-.6-.6-1-1.2-.8-1.6.2-.3.6.1 1.2.6.7.7 1.1 1.2 1 1.5zm-5.1 32.8c0 .4-1.4 1.4-2.1 1.5-.8 0-1.8-1-1.9-1.4 0-.4 1.1.4 1.9.4s2.1-.9 2.1-.5zm22.3 6.5c0 .4-.9.6-1.6.4-.8-.2-3.3-.7-3.3-1.1s2.4-.3 3.2-.2c.8.2 1.7.6 1.7.9z" fill="#fff"/></svg>