<?xml version="1.0" encoding="utf-8"?>
<!-- Generator: Adobe Illustrator 23.0.1, SVG Export Plug-In . SVG Version: 6.00 Build 0)  -->
<svg version="1.1"
	 id="svg8" xmlns:cc="http://creativecommons.org/ns#" xmlns:dc="http://purl.org/dc/elements/1.1/" xmlns:inkscape="http://www.inkscape.org/namespaces/inkscape" xmlns:rdf="http://www.w3.org/1999/02/22-rdf-syntax-ns#" xmlns:sodipodi="http://sodipodi.sourceforge.net/DTD/sodipodi-0.dtd" xmlns:svg="http://www.w3.org/2000/svg"
	 xmlns="http://www.w3.org/2000/svg" xmlns:xlink="http://www.w3.org/1999/xlink" x="0px" y="0px" width="100px" height="100px"
	 viewBox="0 0 100 100" style="enable-background:new 0 0 100 100;" xml:space="preserve">
<style type="text/css">
	.st0{fill:url(#SVGID_1_);stroke:#996633;stroke-width:0.9243;stroke-miterlimit:10;}
	.st1{fill:#9E7328;fill-opacity:0.65;}
	.st2{fill:#FFFFFF;}
</style>
<sodipodi:namedview  bordercolor="#666666" borderopacity="1.0" id="base" inkscape:current-layer="layer1" inkscape:cx="-123.11701" inkscape:cy="63.337945" inkscape:document-rotation="0" inkscape:document-units="mm" inkscape:lockguides="true" inkscape:pageopacity="0.0" inkscape:pageshadow="2" inkscape:snap-global="true" inkscape:snap-object-midpoints="true" inkscape:window-height="709" inkscape:window-maximized="0" inkscape:window-width="1362" inkscape:window-x="0" inkscape:window-y="0" inkscape:zoom="1.4" pagecolor="#ffffff" showgrid="false" showguides="false" units="px">
	</sodipodi:namedview>
<g>
	<g>
		
			<linearGradient id="SVGID_1_" gradientUnits="userSpaceOnUse" x1="23.7133" y1="52" x2="76.1503" y2="52" gradientTransform="matrix(1 0 0 -1 0 102)">
			<stop  offset="0" style="stop-color:#F9DA9C"/>
			<stop  offset="4.306258e-02" style="stop-color:#FBE0A1"/>
			<stop  offset="6.657223e-02" style="stop-color:#FCE6A6"/>
			<stop  offset="0.1449" style="stop-color:#F4D593"/>
			<stop  offset="0.1928" style="stop-color:#F5D797"/>
			<stop  offset="0.2428" style="stop-color:#F7DDA4"/>
			<stop  offset="0.2629" style="stop-color:#F9E1AB"/>
			<stop  offset="0.3285" style="stop-color:#F7DFA8"/>
			<stop  offset="0.3826" style="stop-color:#F2D89E"/>
			<stop  offset="0.3983" style="stop-color:#EFD599"/>
			<stop  offset="0.4612" style="stop-color:#F2D795"/>
			<stop  offset="0.4621" style="stop-color:#F2D795"/>
			<stop  offset="0.527" style="stop-color:#F2D795"/>
			<stop  offset="0.5377" style="stop-color:#F2D795"/>
			<stop  offset="0.5379" style="stop-color:#F2D795"/>
			<stop  offset="0.6149" style="stop-color:#EFDA9C"/>
			<stop  offset="0.7347" style="stop-color:#F6E5AD"/>
			<stop  offset="0.7731" style="stop-color:#F9E9B4"/>
			<stop  offset="0.8215" style="stop-color:#F7E1A6"/>
			<stop  offset="0.8873" style="stop-color:#F5DB9B"/>
			<stop  offset="0.9561" style="stop-color:#F4D997"/>
			<stop  offset="0.9674" style="stop-color:#F4DA9C"/>
			<stop  offset="1" style="stop-color:#F4DB9E"/>
		</linearGradient>
		<polygon class="st0" points="73.5,19.4 50,11 26.5,19.4 17.5,82.4 17.5,89 82.5,89 82.5,82.4 		"/>
		<rect x="18" y="82.4" class="st1" width="64" height="6"/>
	</g>
	<g>
		<path d="M45.7,72.6c-0.2,0-0.4-0.1-0.6-0.2c-1.8-1-2.2-2.1-2.8-4.1c-0.7-2.6-1.2-5.2-1.9-7.7c-0.5-2.1-0.4-1.9,1.1-1.4
			c0,0,0,0,0.1,0c0.4,0.1,1,0.3,1.4,0.3c0.3,0.1,0.4,0.3,0.5,0.5c0.2,0.3,1,2.7,1.5,3.9c0.2,0.4,0.5,0.6,0.9,0.5
			c0.3-0.1,0.9-0.2,1.3-0.3c1.6-0.5,5.7-0.3,6,0.2c0.7,0.6,0.6,0.8,0.6,1.3c0,1.2-4.8,1.1-5.6,1c-1.2-0.1-2.3-0.5-2.6-0.7
			c-0.1-0.1-0.2,0-0.2,0.2c-0.1,1.2,0.3,2.8,0.8,3.6c0.1,0.1,0.1,0.2,0.3,0.2s0.2,0,0.3,0c2.7-0.1,5.3-0.3,8.1-0.5
			c0.3,0,0.6-0.3,0.9-0.5c0.3-0.3,0.4-0.6,0.5-0.9c0.4-1.8,0.7-3.6,0.9-5.4c0.2-1.2-0.2-1.5-1.3-1.4c-2.3,0.3-4.7,0.3-7.1,0.5
			c-1.6,0.1-2.9-0.4-4-1.5c-0.6-0.5-0.3-1.5,0.5-1.5c4.5-0.2,8.8-0.9,12.9-1.8c1.4-0.2,2.9,1.5,2.8,3c-0.5,4-1.1,7.8-1.9,11.8
			c-0.3,1.8-1.7,1.6-3,1.6C53.6,73.2,47.2,72.8,45.7,72.6z"/>
		<path d="M48.9,51.5c0.3,0,0-1.4,0-1.7c-0.1-0.8-0.3-2.2-0.3-3.1c0-0.3-0.3-0.5-0.6-0.4c-0.6,0.2-1.6,0.4-2.1,0.6
			c-2.1,0.5-2.1,0.5-0.9,2.8c0.6,1.3,0.9,2.6-0.3,3.8c-4,4.3-9.4,12.2-16.7,13c-1.6,0.2-2.2-0.9-1.6-2.2c0.5-1.2,2.1-3.9,3.3-5.6
			c0.3-0.4,0.9-0.2,0.9,0.3l-0.3,2.6c0,0.8,0.3,0.6,0.7,0.4c4.1-3.4,8.5-7.7,10.8-13.2c0.2-0.3-0.1-0.8-0.5-0.7
			c-3.7,1-7.1,1.6-9.8-1.8c-0.3-0.3,0-0.8,0.3-0.8c3.4,0,10.3-0.9,14.9-2.1c0.7-0.2,1.2-0.5,1.5-0.9c0.4-0.5,0.6-1.3,0.5-2.2
			c0-0.5-0.1-1.1,0-1.7c0-0.3,0.3-0.5,0.5-0.4c0.7,0.3,1.5,0.5,2.1,0.8c0.1,0.1,0.2,0.2,0.3,0.3c0.2,0.8,0.5,1.5,0.7,2.1
			c0.1,0.3,0.3,0.5,0.6,0.5c2.1,0.3,7.1-0.8,8.6-0.7c0.9,0,3.9-0.3,4.2,2.9c0.1,0.7-0.3,1.4-0.9,1.5c-2.1,0.5-6.8-0.3-9.1-0.3
			c-0.9,0-2.1,0.1-2.6,0.2c-0.2,0-0.3,0.3-0.3,0.4c0,0.6,0,1.7,0,2.9c0,2.1,0.1,6.9-3,7.6c-0.2,0.1-0.4-0.1-0.5-0.3
			c-0.7-1.1-1.7-3.5-2.6-5.4c-0.1-0.2,0.1-0.4,0.3-0.3C47.6,50.6,48.4,51.4,48.9,51.5z"/>
		<path d="M51,27.2c-0.1-0.3,0.2-0.7,0.4-0.5c1.9,0.9,4.2,1.9,5.9,2.9c1.8,1.1,1.7,3.7-0.2,4.6c-4.7,2.1-13.8,3.7-17.6,4.1
			c-0.4,0-0.6-0.6-0.2-0.9c0.7-0.3,1.4-0.7,2.1-1c3.2-1.4,6.3-2.8,9.5-4.1c1.5-0.6,1.9-1.3,1.1-2.8C51.8,29,51.3,28,51,27.2z"/>
		<path d="M54.5,51.2c-0.4-0.3-0.3-1,0.3-0.9c2.9,0.3,8.1,1.1,10.9,1.6c1.9,0.3,3.9,0.9,5.7,1.6c2.2,0.9,3.1,2.8,2.2,5
			c-0.2,0.4-1,0.9-1.4,0.8C67.8,57.4,58.2,53.2,54.5,51.2z"/>
		<path class="st2" d="M55.7,29.5c1,0.3,1.8,0.9,1.7,1.4c-0.1,0.3-0.7,0-1.7-0.3s-1.8-1.2-1.7-1.5C54,28.6,54.7,29.1,55.7,29.5z"/>
		<path class="st2" d="M31.8,62c0.6-0.6,1.3-0.9,1.5-0.7c0.3,0.3-0.3,0.6-0.9,1.2c-0.6,0.6-1.5,0.9-1.6,0.6
			C30.6,62.8,31.2,62.6,31.8,62z"/>
		<path class="st2" d="M66.5,52.8c0.9,0.1,1.5,0.4,1.5,0.8c0,0.3-0.6,0.2-1.4,0.1c-0.9-0.2-1.6-0.7-1.6-1
			C65,52.3,65.6,52.7,66.5,52.8z"/>
	</g>
</g>
</svg>
