<svg version="1.1" id="svg8" xmlns="http://www.w3.org/2000/svg" viewBox="0 0 100 100" xml:space="preserve"><style>.st2{fill:#c30}</style><linearGradient id="SVGID_1_" gradientUnits="userSpaceOnUse" x1="19.181" y1="972" x2="80.829" y2="972" gradientTransform="translate(0 -922)"><stop offset="0" stop-color="#f9da9c"/><stop offset=".043" stop-color="#fbe0a1"/><stop offset=".067" stop-color="#fce6a6"/><stop offset=".145" stop-color="#f4d593"/><stop offset=".193" stop-color="#f5d797"/><stop offset=".243" stop-color="#f7dda4"/><stop offset=".263" stop-color="#f9e1ab"/><stop offset=".329" stop-color="#f7dfa8"/><stop offset=".383" stop-color="#f2d89e"/><stop offset=".398" stop-color="#efd599"/><stop offset=".461" stop-color="#f2d795"/><stop offset=".462" stop-color="#f2d795"/><stop offset=".527" stop-color="#f2d795"/><stop offset=".538" stop-color="#f2d795"/><stop offset=".538" stop-color="#f2d795"/><stop offset=".615" stop-color="#efda9c"/><stop offset=".735" stop-color="#f6e5ad"/><stop offset=".773" stop-color="#f9e9b4"/><stop offset=".822" stop-color="#f7e1a6"/><stop offset=".887" stop-color="#f5db9b"/><stop offset=".956" stop-color="#f4d997"/><stop offset=".967" stop-color="#f4da9c"/><stop offset="1" stop-color="#f4db9e"/></linearGradient><path fill="url(#SVGID_1_)" stroke="#63451a" stroke-width=".954" stroke-miterlimit="10" d="M77.6 15.4 50 5.8l-27.6 9.6-10.6 72.1v6.7h76.4v-6.7z"/><path fill="#63451a" fill-opacity=".75" d="M12.3 87.5h75.4v6.2H12.3z"/><path class="st2" d="M29.9 66.6c-3 2.7-6.9 1.7-9.1-2.4 1.1.2 1.9.3 2.9.4 3.8.4 6.3-2.6 9-4.7 3.3-2.5 6.5-5.2 9.7-7.8 1.4-1.2 2.8-1.8 4.2.3 1.7-2.6 3.5-4.7 4.7-7.4.9-1.9 1.1-4.4 1.3-6.5.3-2.6.3-5.1.2-7.7-.1-1.1-.7-2.3-1.4-3.2-1.2-1.6-2.4-3.1-3.6-4.6-.3-.4 0-1 .5-.8 2 .9 4.1 1.8 6.1 2.7.2.1.5.2.6.3 1.5.9 2.6 2.3 2.1 4.5-.6 3.6-.6 7.2-1.1 10.8 0 .2.3.3.4.1.8-1.9 1.5-4 2.3-5.9.4-.7.8-1.5 1.5-1.9 1.8-1.5 1.8-1.5.2-3.5l-1.7-1.7c-.2-.2 0-.6.3-.6 2.5.8 5.1 1.4 7.5 2.4 1.1.5.6 3-.8 3.6-.6.3-1.4.4-2.1.6-.6.2-1.3.3-1.9.5 1.6 3.1 1.5 3.4-1 5.6-1.7 1.6-3.1 3.3-4.9 5.1-.1.1 0 .3.1.3.3 0 .6.1.7.2 2.2.4 2.9 2 2.5 4.5-.8 4.8-1.5 9.7-.8 14.6 0 .3.1.5.4 1.4 1.4-2.1 3.2-4.6 4.3-6.6.2-.4-1-.9-1.6-1.5-2.8-2.7-2.2-3.8-.5-5.9 1.6-1.8 1.4-3.1 0-4.5-.6-.5-1.1-.9-1.6-1.6 1.9-.8 6.4.8 7 2.7.3.7.3 1.4-.6 2.8-3.1 3.7-3 2.6.1 6.2 1.6 1.9 1.5 2.7-.1 4.5-1.7 2.1-3.3 4.2-5.2 6.6 3.9.8 7.3.7 10.1-2.3.5-.5.6-1.4.4-2.1-1.5-3.8-3.2-11.7-2.5-13.8 1.4 3.1 2.9 6.2 3.9 8.9.9 2.3 2.2 3.9 4 5 1.7 1.1 1.8 2.6.2 3.9-3.2 2.6-6.8 4.4-10.8 4.4-2.4 0-5.4-.6-7.7-1.1-.6-.1-.5-.2-1.5.5-3.7 3-9.5 4-10.2 3.3 3.7-1.6 6.9-4.2 8.8-5.8.5-.4.7-.7.6-1.7-.2-5.5-.1-11.9-.2-17.5 0-.7 0-3-.1-4 0-.1-.2-.1-.2 0-.3 1.3-.8 3.5-.9 4.5-.9 4.4-2.8 7.8-5.2 11.2-.6.9-.8 2.4-1.1 3.7-.6 2.7-1.1 5.3-1.8 8-.4 1.4-1.4 1.9-2.6.9-1.4-1.1-3-2.6-4.4-3.7-.2-.1-.4-.1-.5.1-.8 1.6-1.5 3.8-2.4 5.2-.7 1.3-1.4 1.2-2.2-.1-1-1.6-.7-3.1 0-4.5 1.7-3.5 5.3-10.6 6.5-13.1.1-.2-.1-.5-.3-.4-2.3 1.6-7.8 6.2-10.5 8.6zM42 59.1c-.7 1.2-3 8.7-2.9 9.2s.6.8 1.7 1.3c.6.2 1.1.6 1.7.7.3.1.7.2.9 0 .8-.7 1.5-3.2 1.3-4.8 0-.5-.5-.6-.7-.3-1.9 2.8-3.6 3.3-4 1.1-.3-1.5 2.5-6.8 2.5-6.9.3-.5-.2-.5-.5-.3zm10.1-9.3c0-.1-.1-.2 0 0-1.6 2-2.6 4.5-4.1 6.6-1.3 1.7-.8 3.3 0 5.5 1.5-4.5 2.8-8.2 4.1-12.1z"/><path class="st2" d="M41.1 47.1c-5.3 5.9-8.9 6-10.9 3.3 3-.7 6.5-2.6 8.6-5.2.1-.1 0-.3-.2-.3-2.3 1.2-11.2 5.2-12.9-1l.1-.1c5.5 2 10-1.7 14.8-3.8.9-.4 1.8-1.1 2.7-1.1.7 0 1.6.6 2.4 1-.4.9-.6 1.9-1.2 2.7-.3.4-.8.6-1.3.9-.2.1-.2.4 0 .5 1.1.7 4.4 2.3.6 5.4-2.5 2.6-3 2.8-5.8 4.9-.5.4-3.5 2.1-4.2 2 1.9-3 5.8-5.5 7.6-8.9-.1-.3-.3-.4-.3-.3zM35 39.9c1.3-1.3 2.6-2.5 4-3.8 2-1.9 2.2-2 .5-4.2-.4-.5-1.7-2-2.6-3-.2-.2 0-.6.2-.5 2 .4 4.9 1.9 6.5 2.8 2 1.2 2.2 2.4.6 4.3-2.5 2.9-5.5 4.3-8.9 4.9-.4.1-.6-.3-.3-.5z"/><path d="M54.8 26.6c-.2.4-1 .3-1.9-.3-.9-.6-1.5-1.2-1.4-1.6.2-.4.8 0 1.8.5.9.5 1.7 1 1.5 1.4zm17.1 40.1c.2.3-.6 1.7-1.6 2.3-.8.6-2.7 1-2.9.6-.2-.3 1.4-1 2.2-1.6.9-.6 2-1.7 2.3-1.3zM34.6 44.1c.1.3-1.2 1.1-2.2 1.4-1 .3-2.8.2-2.9-.1s1.6-.5 2.6-.7c1.1-.3 2.4-.9 2.5-.6z" fill="#fff"/></svg>