<?xml version="1.0" encoding="utf-8"?>
<!-- Generator: Adobe Illustrator 23.0.1, SVG Export Plug-In . SVG Version: 6.00 Build 0)  -->
<svg version="1.1"
	 id="svg8" xmlns:cc="http://creativecommons.org/ns#" xmlns:dc="http://purl.org/dc/elements/1.1/" xmlns:inkscape="http://www.inkscape.org/namespaces/inkscape" xmlns:rdf="http://www.w3.org/1999/02/22-rdf-syntax-ns#" xmlns:sodipodi="http://sodipodi.sourceforge.net/DTD/sodipodi-0.dtd" xmlns:svg="http://www.w3.org/2000/svg"
	 xmlns="http://www.w3.org/2000/svg" xmlns:xlink="http://www.w3.org/1999/xlink" x="0px" y="0px" width="100px" height="100px"
	 viewBox="0 0 100 100" style="enable-background:new 0 0 100 100;" xml:space="preserve">
<style type="text/css">
	.st0{fill:url(#SVGID_1_);stroke:#996633;stroke-width:0.9437;stroke-miterlimit:10;}
	.st1{opacity:0.65;fill:#9E7328;enable-background:new    ;}
	.st2{fill:#CC3300;}
	.st3{fill:#FFFFFF;}
</style>
<sodipodi:namedview  bordercolor="#666666" borderopacity="1.0" id="base" inkscape:current-layer="layer1" inkscape:cx="97.213" inkscape:cy="56.055298" inkscape:document-rotation="0" inkscape:document-units="mm" inkscape:lockguides="true" inkscape:pageopacity="0.0" inkscape:pageshadow="2" inkscape:snap-global="true" inkscape:snap-object-midpoints="true" inkscape:window-height="709" inkscape:window-maximized="0" inkscape:window-width="1362" inkscape:window-x="0" inkscape:window-y="0" inkscape:zoom="1.4" pagecolor="#ffffff" showgrid="false" showguides="false" units="px">
	</sodipodi:namedview>
<g>
	
		<linearGradient id="SVGID_1_" gradientUnits="userSpaceOnUse" x1="27.3823" y1="-846" x2="76.327" y2="-846" gradientTransform="matrix(1 0 0 -1 0 -796)">
		<stop  offset="0" style="stop-color:#F9DA9C"/>
		<stop  offset="4.306258e-02" style="stop-color:#FBE0A1"/>
		<stop  offset="6.657223e-02" style="stop-color:#FCE6A6"/>
		<stop  offset="0.1449" style="stop-color:#F4D593"/>
		<stop  offset="0.1928" style="stop-color:#F5D797"/>
		<stop  offset="0.2428" style="stop-color:#F7DDA4"/>
		<stop  offset="0.2629" style="stop-color:#F9E1AB"/>
		<stop  offset="0.3285" style="stop-color:#F7DFA8"/>
		<stop  offset="0.3826" style="stop-color:#F2D89E"/>
		<stop  offset="0.3983" style="stop-color:#EFD599"/>
		<stop  offset="0.4612" style="stop-color:#F2D795"/>
		<stop  offset="0.4621" style="stop-color:#F2D795"/>
		<stop  offset="0.527" style="stop-color:#F2D795"/>
		<stop  offset="0.5377" style="stop-color:#F2D795"/>
		<stop  offset="0.5379" style="stop-color:#F2D795"/>
		<stop  offset="0.6149" style="stop-color:#EFDA9C"/>
		<stop  offset="0.7347" style="stop-color:#F6E5AD"/>
		<stop  offset="0.7731" style="stop-color:#F9E9B4"/>
		<stop  offset="0.8215" style="stop-color:#F7E1A6"/>
		<stop  offset="0.8873" style="stop-color:#F5DB9B"/>
		<stop  offset="0.9561" style="stop-color:#F4D997"/>
		<stop  offset="0.9674" style="stop-color:#F4DA9C"/>
		<stop  offset="1" style="stop-color:#F4DB9E"/>
	</linearGradient>
	<polygon class="st0" points="72.6,21.1 50,12.9 27.4,21.1 18.7,82.1 18.7,87.1 81.3,87.1 81.3,82.1 	"/>
	<rect x="19.2" y="82.1" class="st1" width="61.6" height="4.5"/>
	<g>
		<path class="st2" d="M41.2,29.4c2.2,0.8,4.6,1.4,6.7,2.3c2.1,1,2.5,2.6,2,5c-0.4,2.2-0.7,4.5-0.7,6.8c0,1.7,1.3,2.5,2.7,1.7
			c2-1,3.8-2.2,6.3-1.2c1.3,0.5,1.5,1.1,0.3,1.9c-1.3,0.9-2.6,1.6-3.8,2.6c-4.4,3.2-7.7,7.3-9.2,12.6c-0.9,3,0.9,5.5,4.1,5.5
			c1.7,0,3.5-0.3,5.2-0.1c1.2,0.1,2.3,0.5,3.2,1.4c0.4,0.4,0.9,1.2,0.9,1.9c-0.1,0.3-0.3,0.9-1.5,0.8c-7.4-0.5-18.3-0.3-14.8-11.3
			c1.4-4.1,5.5-10.4,5.8-10.8c0.2-0.2,0.2-0.5-0.1-0.7s-0.8-0.4-1-0.6c-2.6-1.9-1.5-4.7-1.7-7.3c-0.1-1.2,0.3-2.6-0.1-3.7
			c-0.3-1-1-2-1.7-2.9c-0.9-1.2-2-2.2-3.1-3.3C40.5,29.7,40.8,29.2,41.2,29.4z"/>
		<path class="st3" d="M46.7,32.6c-0.3,0-3-0.4-3.1-1c-0.2-0.5,0-0.7,0.4-0.6c0.9,0.3,2.6,0.8,3.2,1.1
			C47.7,32.1,47.2,32.5,46.7,32.6z"/>
		<path class="st3" d="M42.7,64.5c-0.1-0.3-0.3-3.1,0.3-3.2c0.5-0.3,0.7-0.2,0.7,0.3c0,1-0.2,2.6-0.3,3.4
			C43.2,65.2,42.8,64.8,42.7,64.5z"/>
	</g>
</g>
</svg>
