<svg xmlns="http://www.w3.org/2000/svg" viewBox="0 0 100 100"><linearGradient id="a" gradientUnits="userSpaceOnUse" x1="16.913" y1="-845.7" x2="82.09" y2="-845.7" gradientTransform="matrix(1 0 0 -1 0 -796)"><stop offset="0" stop-color="#f9da9c"/><stop offset=".043" stop-color="#fbe0a1"/><stop offset=".067" stop-color="#fce6a6"/><stop offset=".145" stop-color="#f4d593"/><stop offset=".193" stop-color="#f5d797"/><stop offset=".243" stop-color="#f7dda4"/><stop offset=".263" stop-color="#f9e1ab"/><stop offset=".329" stop-color="#f7dfa8"/><stop offset=".383" stop-color="#f2d89e"/><stop offset=".398" stop-color="#efd599"/><stop offset=".461" stop-color="#f2d795"/><stop offset=".462" stop-color="#f2d795"/><stop offset=".527" stop-color="#f2d795"/><stop offset=".538" stop-color="#f2d795"/><stop offset=".538" stop-color="#f2d795"/><stop offset=".615" stop-color="#efda9c"/><stop offset=".735" stop-color="#f6e5ad"/><stop offset=".773" stop-color="#f9e9b4"/><stop offset=".822" stop-color="#f7e1a6"/><stop offset=".887" stop-color="#f5db9b"/><stop offset=".956" stop-color="#f4d997"/><stop offset=".967" stop-color="#f4da9c"/><stop offset="1" stop-color="#f4db9e"/></linearGradient><path fill="url(#a)" stroke="#63451a" stroke-width="1.01" stroke-miterlimit="10" d="M11.5 5.5v5.2L22 84.2l27.5 9.7L77 84.2l10.5-73.5V5.5z"/><path fill="#63451a" fill-opacity=".75" d="m76.5 78.7-27 9.7-27-9.7L12 6.5v4.7l10.5 72.7 27 9.6 27-9.6L87 11.2V6.5z"/><path d="M56.9 31.5c-.2.3-.6.3-.8.1-.7-.6-1.3-1.1-1.9-1.7-1.1-1-2-1.3-2.1 1-.1 3.3-.3 6.6-.4 9.9 3.5-.4 5.9-2.7 6.6-6.4 1.7-8.8 6-14.5 12.9-16.9 1.9-.7 4-.8 6-.6 1 .1 2.1 1 3.1 2.1-4 .5-7.9 1.2-11.3 3.9-3.3 2.6-5.9 6-7.3 10.7-.2.6.3 1 .8.5 2-1.8 3.9-3.6 5.8-5.5 2-1.9 3.7-1.7 5.3.7 2.2 3.2 3.4 6.9 3.4 11.2-1.6-2.2-3.1-4.4-4.7-6.6-.5-.6-1.5-1.3-1.8-1-1 .8-2.5 1-2.4 3.4.2 4.8.3 9.7 3.5 13.2.5.5.8 1.2.8 2.4-2.1-1.1-4.3-2-6.1-3.7-.9-.9-1.1-3.4-1.4-5.2-.2-1.8-.1-3.6-.1-5.4-4.2 1.4-4.7 7-3 11.8.8 2 1.7 3.8 3.3 5.8.2.3-.1.6-.4.5-2.1-1-4.5-1.8-6.2-3.4-2.6-2.4-1.2-6.2-1.5-9.5-2.1.4-4.1 1.1-4.9 1.6-1.8 1-.6 7.2.1 9.7.3.9 2.5 4.6 2.9 5.6-2.1 0-5.9-1.8-6.5-2.8-.7-1.1-.6-3.6-.5-5.9 0-.4 0-.8.1-1.1.1-3.5.1-3.5-2.4-2.6-1.9.7-3.3-.8-3.4-3.6-.1-2.5-.1-5.2 0-7.7.1-4.5-2.2-9.4-5.5-10.3-3.1-1.4-6.5-1.7-9.1-1.3-.9.1-1.7.8-1.3 2.7.7 3.4.9 6.4 1.4 9.9.1.8-.2 1.2-.2 1.2-2-4.4-4.5-8.6-7.5-12.3-.8-1.4-.3-3.4 1.2-4.3 6.2-3.8 17-.9 21.8 5.4 2.7 3.7 3 7.9 2.9 12.6 0 1.1-1 3.5.9 3.5 1.8 0 1.3-2.2 1.3-3.7.1-4.3 0-8.7.3-13 .1-1.3.8-3.4 1.7-3.8.8-.3 2.3.9 3 2 1.4 1.9 2.5 4.1 3.8 6.2.1.1 0 .4-.2.7z"/><path d="M61.2 68c-6.3-3.7-12.3-.9-18.3-.1-2.3.3-4.3.8-5.5-2.9-1.3 1.7-1.9 2.9-.5 4.6.8 1 1.5 2.4 2 4-2.2-1.2-4.4-2.4-6.6-3.7-1.9-1.1-1.9-2.7-.2-4.3 1.4-1.3 2.9-2.6 4.4-3.9-.8-1.3-1.7-2.4-2.1-3.8-.1-.4-.1-.8 0-1.3.2-.9 1.3-1.4 2.2-.9.2.1.4.3.6.5.8 1.2 1.3 2.7 2.3 4.7 1.4-3 1.5-5.5.7-8-1.4-4-4.6-7.3-8.1-6.9-.5.1-1.1 1.3-1.1 2.1 0 2 .4 5 .7 7.2 0 .3-.7-.1-.9-.4-1.4-2.7-2.9-4.4-5.5-7.3-1.5-1.9-1.4-3.6.5-4.6 6-3.4 15.3 1.2 17.3 9.1.7 2.6.3 5.8 0 8.7-.2 2.1 0 2.6 1.7 2.3 2.9-.7 5.8-1.1 8.7-1.4 3.3-.5 6.8 2.2 7.7 6.3z"/><path d="M39.9 42.8c.3.3-.1.8-.5.7-1.9-.6-4.3-2.4-4.3-3.4.1-1.5 1.4-4.3 2.1-5 .1-.1.1-.4 0-.5-1.1-.7-2.1-1.7-2.7-2.8-.5-.8-.7-2.5-.2-3.3.8-1.3 1.9-1 2.7.2.7.8 1.2 1.8 1.9 2.6 2.4 3 2.3 2.9.7 6.7-.4.9-.8 2.1-.6 3.2.2.5.5 1.2.9 1.6z"/><path d="M21.5 22.7c.5-.8 2.1-1.2 2.6-1 .6.3 1.2.8.9.8-.6.1-2.3.4-3.3 1.5-.4.3-.5-.6-.2-1.3zm3.8 21.6c.6-.7 1.7-1 2.3-.7.5.4.6.8.2.8-.6 0-1.1.5-2.4 1.2-.5.3-.6-.8-.1-1.3zm43.4-15.1c.6-.7 1.7-1 2.3-.7.5.4.6.8.2.8-.6 0-1.1.5-2.4 1.2-.5.3-.6-.8-.1-1.3z" fill="#fff"/></svg>