<svg version="1.1" id="svg8" xmlns="http://www.w3.org/2000/svg" viewBox="0 0 100 100" xml:space="preserve"><style>.st2{fill:#fff}</style><linearGradient id="polygon52_1_" gradientUnits="userSpaceOnUse" x1="17.242" y1="-846" x2="82.762" y2="-846" gradientTransform="matrix(1 0 0 -1 0 -796)"><stop offset="0" stop-color="#f9da9c"/><stop offset=".043" stop-color="#fbe0a1"/><stop offset=".067" stop-color="#fce6a6"/><stop offset=".145" stop-color="#f4d593"/><stop offset=".193" stop-color="#f5d797"/><stop offset=".243" stop-color="#f7dda4"/><stop offset=".263" stop-color="#f9e1ab"/><stop offset=".329" stop-color="#f7dfa8"/><stop offset=".383" stop-color="#f2d89e"/><stop offset=".398" stop-color="#efd599"/><stop offset=".461" stop-color="#f2d795"/><stop offset=".462" stop-color="#f2d795"/><stop offset=".527" stop-color="#f2d795"/><stop offset=".538" stop-color="#f2d795"/><stop offset=".538" stop-color="#f2d795"/><stop offset=".615" stop-color="#efda9c"/><stop offset=".735" stop-color="#f6e5ad"/><stop offset=".773" stop-color="#f9e9b4"/><stop offset=".822" stop-color="#f7e1a6"/><stop offset=".887" stop-color="#f5db9b"/><stop offset=".956" stop-color="#f4d997"/><stop offset=".967" stop-color="#f4da9c"/><stop offset="1" stop-color="#f4db9e"/></linearGradient><path id="polygon52" d="M11.8 5.8V11l10.6 73.5L50 94.2l27.6-9.7L88.2 11V5.8H11.8z" fill="url(#polygon52_1_)" stroke="#63451a" stroke-width="1.01" stroke-miterlimit="10"/><path id="polygon54" d="M77.1 84.1 87.7 11V6.3L77.1 78.9 50 88.6l-27.1-9.7L12.3 6.3V11l10.6 73.1L50 93.7l27.1-9.6z" fill="#63451a" fill-opacity=".75"/><g id="g60"><path id="path56" d="M44 22.8c-2.1-1.8-3.3-3-5.1-3.9-1.4-.8-2.3 1.1-2.3 3v4.7c0 .9.2.8 4.4.5 1.7-.1 3.6-.4 4.2-.5.1 0 .3-.2.3-.4 0-.8.1-3.3.3-5.7.3-4.3 2.4-6.7 5.9-8.5.1 0 .2 0 .1.1-.2 2.5-.4 4.5-.6 6.4-.3 2.7-.5 5.8-.5 6.8 0 .2.1.4.3.4h5.9c.2 0 .4-.2.5-.5.2-.8 1.1-5.6 3.1-6.3.9-.3 1.8.1 2.1.8.5 1 .5 1.9.4 2.9-.4 3.9-1.4 7.7-1.4 11.4.1 5 1 10.1 1.6 15.1 0 .2.1.4.1.7.1.5-.4 1-.8.7-.5-.4-3.9-4.2-4.4-4.2-.3 0 2.1 3.2 2.2 3.7.2.8 0 1-.2 1.2-.5.4-1.4.4-2 .2-5.4-.8-10.6.8-15.9 1.9-2.5.5-5.1.8-7.6.8-2.4 0-4-2.4-3.9-5.5.1-4.8.2-9.6.3-14.5.1-5.3.1-10.6 0-15.9 0-2.3.5-4.2 2.2-4.7 1.4-.5 3.5-.4 4.7.4 2 1.3 4.5 3.9 6.6 7.5.6.9 0 1.9-.5 1.4zm-7.3 17.4c-.1-.1-.2-.1-.2.1 0 2.6-.2 4.2.1 5.8.1.8 1.2 2 1.7 2 2.5-.3 4.9-1 7.4-1.6.2 0 .3-.2.4-.3l.1-.2c.1-.2 0-.5-.1-.7-.3-.9-.9-2.8-1.1-3.4 0-.1-.1-.2-.3-.2-2.4.4-6.1 1.8-8-1.5zm.2-3.3c0 .3.1.5.3.6.1 0 .2.1.3.1 1.2-.2 5.6-1.1 6.8-1.3.2 0 .3-.2.3-.4l.2-4.1c0-.2-.1-.4-.3-.4-1.3.2-5.7.9-7.5.9-.1 0-.1.1-.1.1v4.5zm16.5-6.1c-.6 0-1.9 0-2.4.1-.1 0-.3.1-.3.3-.1.5-.3 3.6-.3 4 0 .2.1.3.2.4 1 .1 5.7.7 6.1.8.2.1.3-.2.4-.4.1-.5.2-4.2.2-4.7 0-.2-.1-.3-.2-.3-.5-.1-3.7-.2-3.7-.2zM56.8 46c.1 0 .2-.1.2-.2 0-1.5-.4-3.6-.5-4.4 0-.2-.1-.3-.3-.3-.6 0-2.4-.2-3.6-.3-1.1-.1-2-.1-2.3 0-.1 0-.2.1-.2.2v1.8c.1 1 .1 1.7.3 2.5.1.4 1.3.4 2.3.4 1.3.1 2.6.1 4.1.3z"/><path id="path58" d="M78.3 49.3c.3.3.3 1-.1 1.1-8.4 1.5-19.5 10.7-23.7 17.2-1.1 2.1-1.8 2.1-.2 4.2.7.9 1.1 2.1 1.4 3.4.1.5-.2.9-.6.8-3.3-1.1-6.7-1.7-8.5-6-.2-.5-.9-.8-1.4-.8-3.2-.2-6.4.1-9.5-.4-1.5-.2-3.5-1-4.2-2.9-.4-.9-.1-2.4.4-2.9.7-.7 1.9-1 2.9-1.1 2.8-.1 5.2-1.1 7.3-3.6 2.8-3.4 6-6.2 10.3-6.1h.2c.4.1.6.7.3 1.1-2.1 2.4-4.1 4.5-6.1 6.8-.7.8-1.3 1.7-1.9 2.6-.2.3-.1.8.2 1 1 .6 2 1.3 3 1.4s2.2-.6 3.1-1.3c4.9-4.9 14.1-14.1 22.4-15.5 1.5-.2 3.1-.4 4.7 1z"/></g><path id="path64" class="st2" d="M33.1 63.5c.1-.2 2.4-.6 3.1-.5.6 0 1.6.6 1.6 1 0 .6-3.4.4-4 .5-.5-.2-.9-.5-.7-1z"/><path id="path66" class="st2" d="M32.5 16.5c.5-1.5 3.1-2 4-1.9.8.2 1.1.5 1.1.9 0 .5-1.6.5-2.7.9-.9.4-1.4 1.1-1.7 1.1-.7.2-1.1 0-.7-1z"/></svg>