<?xml version="1.0" encoding="utf-8"?>
<!-- Generator: Adobe Illustrator 23.0.1, SVG Export Plug-In . SVG Version: 6.00 Build 0)  -->
<svg version="1.1"
	 id="svg8" xmlns:cc="http://creativecommons.org/ns#" xmlns:dc="http://purl.org/dc/elements/1.1/" xmlns:inkscape="http://www.inkscape.org/namespaces/inkscape" xmlns:rdf="http://www.w3.org/1999/02/22-rdf-syntax-ns#" xmlns:sodipodi="http://sodipodi.sourceforge.net/DTD/sodipodi-0.dtd" xmlns:svg="http://www.w3.org/2000/svg"
	 xmlns="http://www.w3.org/2000/svg" xmlns:xlink="http://www.w3.org/1999/xlink" x="0px" y="0px" width="100px" height="100px"
	 viewBox="0 0 100 100" style="enable-background:new 0 0 100 100;" xml:space="preserve">
<style type="text/css">
	.st0{fill:url(#SVGID_1_);stroke:#996633;stroke-miterlimit:10;}
	.st1{fill:#9E7328;fill-opacity:0.65;}
	.st2{fill:#CC3300;}
	.st3{fill:#FFFFFF;}
</style>
<sodipodi:namedview  bordercolor="#666666" borderopacity="1.0" id="base" inkscape:current-layer="layer1" inkscape:cx="182.81743" inkscape:cy="53.533748" inkscape:document-rotation="0" inkscape:document-units="mm" inkscape:lockguides="true" inkscape:pageopacity="0.0" inkscape:pageshadow="2" inkscape:snap-global="true" inkscape:snap-object-midpoints="true" inkscape:window-height="711" inkscape:window-maximized="1" inkscape:window-width="1366" inkscape:window-x="0" inkscape:window-y="0" inkscape:zoom="0.98994949" pagecolor="#ffffff" showgrid="false" showguides="false" units="px">
	</sodipodi:namedview>
<g>
	<g>
		<linearGradient id="SVGID_1_" gradientUnits="userSpaceOnUse" x1="22.7747" y1="52.8329" x2="77.6185" y2="52.8329">
			<stop  offset="0" style="stop-color:#F9DA9C"/>
			<stop  offset="4.306258e-02" style="stop-color:#FBE0A1"/>
			<stop  offset="6.657223e-02" style="stop-color:#FCE6A6"/>
			<stop  offset="0.1449" style="stop-color:#F4D593"/>
			<stop  offset="0.1928" style="stop-color:#F5D797"/>
			<stop  offset="0.2428" style="stop-color:#F7DDA4"/>
			<stop  offset="0.2629" style="stop-color:#F9E1AB"/>
			<stop  offset="0.3285" style="stop-color:#F7DFA8"/>
			<stop  offset="0.3826" style="stop-color:#F2D89E"/>
			<stop  offset="0.3983" style="stop-color:#EFD599"/>
			<stop  offset="0.4612" style="stop-color:#F2D795"/>
			<stop  offset="0.4621" style="stop-color:#F2D795"/>
			<stop  offset="0.527" style="stop-color:#F2D795"/>
			<stop  offset="0.5377" style="stop-color:#F2D795"/>
			<stop  offset="0.5379" style="stop-color:#F2D795"/>
			<stop  offset="0.6149" style="stop-color:#EFDA9C"/>
			<stop  offset="0.7347" style="stop-color:#F6E5AD"/>
			<stop  offset="0.7731" style="stop-color:#F9E9B4"/>
			<stop  offset="0.8215" style="stop-color:#F7E1A6"/>
			<stop  offset="0.8873" style="stop-color:#F5DB9B"/>
			<stop  offset="0.9561" style="stop-color:#F4D997"/>
			<stop  offset="0.9674" style="stop-color:#F4DA9C"/>
			<stop  offset="1" style="stop-color:#F4DB9E"/>
		</linearGradient>
		<polygon class="st0" points="17.5,14.3 17.5,20 26.5,83 50,91.4 73.5,83 82.5,20 82.5,14.3 		"/>
		<polygon class="st1" points="73,77.5 50,85.7 27,77.5 18,14.8 18,19.9 27,82.6 50,90.8 73,82.6 82,19.9 82,14.8 		"/>
	</g>
	<g>
		<g>
			<path class="st2" d="M48.5,68.1c-0.4-0.5-0.3-0.9-0.3-1.3c1.1-2.5-0.7-3.6-1.9-4.8c-2.5-2.5-5.2-4.7-8-6.8
				c-2.8-2.3-10.5-5.4-10.6-5.5c-0.4-0.3-0.4-0.6,0.1-0.7c0.2-0.1,5.8-0.5,8.2,0.3c2.3,0.8,4.5,2.6,6.3,4.5c2.5,2.5,4.7,5.2,7,7.9
				c0.7,0.8,1.2,0.7,1.7-0.2c1.8-2.8,3.5-5.5,5.3-8.3c3.3-5.2,6.5-10.3,9.9-15.4c1.1-1.6,3.5-5.5,5.3-4.6c0.1,0,0.2,0.1,0.2,0.2
				c1,1.7,0.8,4.7,0.7,6.6v0.2c-0.1,0.5-0.7,0.6-0.8,0.2c-0.3-0.8-0.7-1.8-1-2.4c-0.2-0.3-0.6-0.3-0.8-0.1c-1.9,2.4-3.5,4.6-5.1,6.8
				C60.6,51,56.4,57.5,53,64.3c-1,2-1.1,3.6,0.3,5.3c0.3,0.3,0.6,0.6,0.8,1c0.3,0.4-0.1,0.8-0.5,0.8C51.6,70.8,49.9,69.7,48.5,68.1z
				"/>
			<path class="st2" d="M49.5,30.1c-1.9,0-3.4,0.2-4.8-0.1c-1.7-0.3-1.6-1.2-1.5-1.6c0.3-0.9,1.4-1.4,1.7-1.6c2.4-1.3,3.9-1.9,6.3-3
				c1.1-0.4,3.6,0.1,3.6,0.1l0,0c-2,0.5-3.5,1.7-4.6,2.5c-0.1,0.1-0.1,0.3,0.1,0.3c1.5,0.2,2.3,0.9,2.5,1.8c0.3,1-0.3,3-0.5,4.4
				c1,0.3,2.2,0.6,3.3,1.4c1.5,1,1.7,2.5,0.4,3.7c-1.8,1.8-3.7,3.1-6.1,3.8c-0.4,0.1-0.8,1.3-0.9,1.8c8.1-3.1,10.7-3,12.1,0.3
				c-1.4,0-2.7-0.3-4,0.1c-2.1,0.5-4.1,1.3-6.3,1.9c-1.3,0.4-2.6,0.8-3.9,1c-1.4,0.2-2.3-0.9-1.9-2.4c0.3-0.9,0.8-1.9,1.4-3
				c-0.6-0.3-1.5-0.8-1.7-2c-0.2-0.7-0.1-1.9,0.3-2.7c0.9-1.9,2.2-3.5,3.3-5.2C48.6,31.4,48.9,30.9,49.5,30.1z M54.2,36.3
				c-0.9-0.6-1.6-0.9-2.3-0.9S50.2,38,50,39l0,0C51.4,38.2,52.6,37.4,54.2,36.3z"/>
			<path class="st2" d="M54.2,50c0.3,0.3,0.2,0.8-0.3,0.9c-2.1,0.5-4.1,0.5-5.6,0.8c-1.2,0.2-4.4,0-4.1-1c0.1-0.4,0.3-0.8,0.8-1
				c2.5-0.8,4.6-1.4,7.2-0.8C52.7,49,53.7,49.5,54.2,50z"/>
		</g>
		<path class="st3" d="M33.7,49.4c0.5,0,2.9,0.7,3,1c0,0.3-2.2-0.4-2.9-0.4c-0.4,0-1.1,0.1-1.3-0.3C32.6,49.4,33.1,49.3,33.7,49.4z"
			/>
		<path class="st3" d="M46.5,49.8c0.5-0.1,0.9-0.1,1,0.1c0.2,0.3-0.4,0.2-0.9,0.5c-0.3,0.2-1.1,0.5-1.3,0.2
			C45.1,50.2,45.9,49.9,46.5,49.8z"/>
		<path class="st3" d="M45,27.4c0.5-0.2,0.8-0.4,1-0.2c0.3,0.2-0.3,0.3-0.7,0.7c-0.2,0.3-0.9,0.8-1.2,0.6
			C43.8,28.2,44.5,27.7,45,27.4z"/>
	</g>
</g>
</svg>
