<svg version="1.1" id="svg8" xmlns="http://www.w3.org/2000/svg" viewBox="0 0 100 100" xml:space="preserve"><style>.st3{fill:#fff}</style><linearGradient id="SVGID_1_" gradientUnits="userSpaceOnUse" x1="22.775" y1="974.85" x2="77.618" y2="974.85" gradientTransform="translate(0 -922)"><stop offset="0" stop-color="#f9da9c"/><stop offset=".043" stop-color="#fbe0a1"/><stop offset=".067" stop-color="#fce6a6"/><stop offset=".145" stop-color="#f4d593"/><stop offset=".193" stop-color="#f5d797"/><stop offset=".243" stop-color="#f7dda4"/><stop offset=".263" stop-color="#f9e1ab"/><stop offset=".329" stop-color="#f7dfa8"/><stop offset=".383" stop-color="#f2d89e"/><stop offset=".398" stop-color="#efd599"/><stop offset=".461" stop-color="#f2d795"/><stop offset=".462" stop-color="#f2d795"/><stop offset=".527" stop-color="#f2d795"/><stop offset=".538" stop-color="#f2d795"/><stop offset=".538" stop-color="#f2d795"/><stop offset=".615" stop-color="#efda9c"/><stop offset=".735" stop-color="#f6e5ad"/><stop offset=".773" stop-color="#f9e9b4"/><stop offset=".822" stop-color="#f7e1a6"/><stop offset=".887" stop-color="#f5db9b"/><stop offset=".956" stop-color="#f4d997"/><stop offset=".967" stop-color="#f4da9c"/><stop offset="1" stop-color="#f4db9e"/></linearGradient><path fill="url(#SVGID_1_)" stroke="#63451a" stroke-miterlimit="10" d="M17.5 14.3V20l9 63L50 91.4 73.5 83l9-63v-5.7z"/><path fill="#63451a" fill-opacity=".75" d="m73 77.5-23 8.2-23-8.2-9-62.7v5.1l9 62.7 23 8.2 23-8.2 9-62.7v-5.1z"/><path d="M51.7 60.5c2 .3 2.4.8 1.5 2.7-.7 1.4-1.6 2.7-2.5 3.9-.7.9-1 1.4 0 2.3s2.4 2.7 3 3.6c.1.1-.1.3-.2.2-2-1.2-4.2-2.3-6-3.6-.9-.6-.8-1.8.1-2.7.4-.5 1.1-1.3 1.7-1.9.1-.1 0-.3-.2-.3-1 0-2.3-.1-3.1-.3-1.3-.4-1.4-1.2-.3-2.2 1.4-1.3 2.9-2.4 4.5-3.8-4.3.5-3.9-4.1-4-4.3 0-.2-.2-.3-.3-.3-5.3 1.4-11.7 1.7-12.3-1.4 0-.2-.1-.3-.1-.4-.1-.9.7-1.7 1.6-1.5.1 0 .1 0 .2.1 2.8 1.1 8.1 1.2 10.5.7.3-.1.4-.3.5-.5.1-1.1.3-5.7.2-6.7 0-.1-.1-.2-.2-.3-.3 0-.6-.1-.8-.2-2.1-.9-2.6-2-1.3-3.9 1.9-2.8 3.9-5.5 5.9-8.2.3-.4.6-.8 1-1.3.2-.2 0-.4-.3-.3-1.7.3-3.2.8-4.7 1-4.9.4-3.8-2-3-2.9.1-.1 3.6-3.6 9.5-4.4.3 0 2.5-.2 3.1 0 .3.1.3.4 0 .5-1.6.4-3 1-3.8 1.8-.1.1 0 .3.1.3.3 0 .6.1.8.1 1.8.2 2.7 1.3 2.2 3.1-.1.3-.8 1.7-1.1 2.3-.1.2 0 .4.2.5s.4.3.9.6c1.3 1 2.5 2 3.7 3.1s1 2.7-.4 3.5c-1.7 1-8.3 3.7-8.9 4-.2.1-.3.3-.3.5-.1 1.2.5 4.6.7 5.6.1.3.3.3.4.3 5-2.7 10.1-5.7 13.7-9.8.2-.3.4-.3.8-.5.9-.3 1.4.6 1.7 1.6.1.3-.1 1-.2 1.2-1.4 2.5-2.7 4.7-4.4 7-3.5 3.7-6.9 7.4-10.1 11.2zm9.4-15c.2-.3-.2-.6-.4-.3-2.6 2.5-9.7 6.4-11 7.2-.2.1-.3.2-.3.3-.1.8-.2 3.1.4 4.6.1.2.2.3.3.7 4.5-3.2 8.1-8 11-12.5zM49.8 40c-.1.3.2.5.3.3 1.3-.6 2.7-1.2 3.9-1.9 1.9-1.1 1.9-1.4-.2-2.4-.6-.3-1.8-.5-2-.2-.7 1.2-1.3 2.8-2 4.2z" fill="#c30"/><ellipse transform="rotate(-54.417 45.243 40.398)" class="st3" cx="45.2" cy="40.4" rx="1" ry=".5"/><ellipse transform="rotate(-49.022 62.728 42.5)" class="st3" cx="62.7" cy="42.5" rx="1.6" ry=".5"/></svg>