<svg xmlns="http://www.w3.org/2000/svg" viewBox="0 0 100 100"><linearGradient id="a" gradientUnits="userSpaceOnUse" x1="17.242" y1="52" x2="82.762" y2="52" gradientTransform="matrix(1 0 0 -1 0 102)"><stop offset="0" stop-color="#f9da9c"/><stop offset=".043" stop-color="#fbe0a1"/><stop offset=".067" stop-color="#fce6a6"/><stop offset=".145" stop-color="#f4d593"/><stop offset=".193" stop-color="#f5d797"/><stop offset=".243" stop-color="#f7dda4"/><stop offset=".263" stop-color="#f9e1ab"/><stop offset=".329" stop-color="#f7dfa8"/><stop offset=".383" stop-color="#f2d89e"/><stop offset=".398" stop-color="#efd599"/><stop offset=".461" stop-color="#f2d795"/><stop offset=".462" stop-color="#f2d795"/><stop offset=".527" stop-color="#f2d795"/><stop offset=".538" stop-color="#f2d795"/><stop offset=".538" stop-color="#f2d795"/><stop offset=".615" stop-color="#efda9c"/><stop offset=".735" stop-color="#f6e5ad"/><stop offset=".773" stop-color="#f9e9b4"/><stop offset=".822" stop-color="#f7e1a6"/><stop offset=".887" stop-color="#f5db9b"/><stop offset=".956" stop-color="#f4d997"/><stop offset=".967" stop-color="#f4da9c"/><stop offset="1" stop-color="#f4db9e"/></linearGradient><path fill="url(#a)" stroke="#63451a" stroke-width="1.01" stroke-miterlimit="10" d="M11.8 5.8V11l10.6 73.5L50 94.2l27.6-9.7L88.2 11V5.8z"/><path fill="#63451a" fill-opacity=".75" d="M77.1 78.9 50 88.6l-27.1-9.7L12.3 6.3V11l10.6 73.1L50 93.7l27.1-9.6L87.7 11V6.3z"/><path d="M48.6 58.1c1.8-.2 1.8-.7.3-2.1-2.4-2.3-3.5-2.7-3-7.3.1-.6-.3-1.1-1.2-.8-1.9.6-5.7.9-7.6 1.1-2 .2-4.1-2.6-5-5.6-.5-1.7 2-1.8 3-1.8 2.5.1 7.9-.3 9.9-.4.4 0 .8-.8.8-1.3v-7.7c0-.6-.3-1.6-.8-1.6-3.3-.1-11.2.3-15.5 0-2.7-.2-7.7-2.2-8.5-6.2-.2-.9.1-2.5.3-3.6.1-.4.4-.7.9-.7.4.1 1.1.2 1.4.3 2.9 1 5.8 2.5 8.7 3 8.8 1.4 17.5-.2 26.2-3 3.6-1.2 7.4-2.2 11-3.1 3.4-.9 8.4 4 9.5 9.3.1.4-.3.7-.6.6-5.2-2.4-10.4-2.5-15.3-1.1-3.2.9-6.2 2.3-9.4 3-1.7.5-1.7.8-1.6 2.8.1 2.1-.1 5.1-.2 7.3 0 .5.4.9.8.8 5.6-.5 11.7-.7 13.5 7 .1.4-.3.7-.5.5-6.1-3.2-11.5-1.5-13.5-1-.3.1-.5.4-.5.7-.1 3.2 1.2 7.7 1.8 9 .1.3.4.5.5.4 1-.3 3.3-.9 4.5-1 3.5-.3 6 2.3 8 6.4.2.4.3 1 .3 1.6 0 .5-.3 1.1-.7 1.2-.3.1-.6.2-.8.1-5.8-3.2-11.6-1.6-17.4-.2-4.1 1-8.1 2.3-12.1 3.3-2.8.8-5.8-1.2-6.5-4.4-.3-1-.2-2.4.1-3.4.1-.5 1.2-.5 1.7-.5 5.7-.3 17.4-1.6 17.5-1.6z"/><path d="M31.5 61.2c.3-.5 1.2-.6 4.9-.8s7-1.1 6.9-.6c-.1.5-12.4 2.5-11.8 1.4zm1.9-17.3c0-.3-.6-1.4 1.5-1.6.9-.1 2.5 1 2.5 1.2.1.8-4.1 1-4 .4zM30 24.2c.9.4-.9.9-4.1.5-.9-.1-3.2-2.7-3-3 .3-.6 5.5 1.7 7.1 2.5z" fill="#fff"/></svg>