<svg xmlns="http://www.w3.org/2000/svg" viewBox="0 0 100 100"><linearGradient id="a" gradientUnits="userSpaceOnUse" x1="23.796" y1="973.95" x2="76.297" y2="973.95" gradientTransform="translate(0 -922)"><stop offset="0" stop-color="#f9da9c"/><stop offset=".043" stop-color="#fbe0a1"/><stop offset=".067" stop-color="#fce6a6"/><stop offset=".145" stop-color="#f4d593"/><stop offset=".193" stop-color="#f5d797"/><stop offset=".243" stop-color="#f7dda4"/><stop offset=".263" stop-color="#f9e1ab"/><stop offset=".329" stop-color="#f7dfa8"/><stop offset=".383" stop-color="#f2d89e"/><stop offset=".398" stop-color="#efd599"/><stop offset=".461" stop-color="#f2d795"/><stop offset=".462" stop-color="#f2d795"/><stop offset=".527" stop-color="#f2d795"/><stop offset=".538" stop-color="#f2d795"/><stop offset=".538" stop-color="#f2d795"/><stop offset=".615" stop-color="#efda9c"/><stop offset=".735" stop-color="#f6e5ad"/><stop offset=".773" stop-color="#f9e9b4"/><stop offset=".822" stop-color="#f7e1a6"/><stop offset=".887" stop-color="#f5db9b"/><stop offset=".956" stop-color="#f4d997"/><stop offset=".967" stop-color="#f4da9c"/><stop offset="1" stop-color="#f4db9e"/></linearGradient><path fill="url(#a)" stroke="#63451a" d="M18.8 15.7v5.8l8.7 58.6L50 88.2l22.5-8.1 8.7-58.6v-5.8z"/><path opacity=".75" fill="#63451a" d="m72.1 76.3-22.1 8-22.1-8-8.6-60.1v5.2l8.6 58.3L50 87.6l22.1-7.9 8.6-58.3v-5.3z"/><path d="M57.8 70.6c-2.2-.8-4.6-1.4-6.7-2.3-2.1-1-2.5-2.6-2-5 .4-2.2.7-4.5.7-6.8 0-1.7-1.3-2.5-2.7-1.7-2 1-3.8 2.2-6.3 1.2-1.3-.5-1.5-1.1-.3-1.9 1.3-.9 2.6-1.6 3.8-2.6 4.4-3.2 7.7-7.3 9.2-12.6.9-3-.9-5.5-4.1-5.5-1.7 0-3.5.3-5.2.1-1.2-.1-2.3-.5-3.2-1.4-.4-.4-.9-1.2-.9-1.9.1-.3.3-.9 1.5-.8 7.4.5 18.3.3 14.8 11.3-1.4 4.1-5.5 10.4-5.8 10.8-.2.2-.2.5.1.7s.8.4 1 .6c2.6 1.9 1.5 4.7 1.7 7.3.1 1.2-.3 2.6.1 3.7.3 1 1 2 1.7 2.9.9 1.2 2 2.2 3.1 3.3.2.3-.1.8-.5.6z" fill="#c30"/><path d="M49.6 65.7c-.1-.3-.1-3 .5-3.2.5-.3.7-.1.7.3-.1.9-.3 2.7-.5 3.3-.3.4-.5.1-.7-.4zM42.7 30c.3-.1 2.9 0 3.2.5s.1.7-.3.7c-1-.1-2.6-.4-3.4-.5-.2-.3.2-.6.5-.7z" fill="#fff"/></svg>