<svg xmlns="http://www.w3.org/2000/svg" viewBox="0 0 100 100"><linearGradient id="a" gradientUnits="userSpaceOnUse" x1="17.242" y1="972" x2="82.762" y2="972" gradientTransform="translate(0 -922)"><stop offset="0" stop-color="#f9da9c"/><stop offset=".043" stop-color="#fbe0a1"/><stop offset=".067" stop-color="#fce6a6"/><stop offset=".145" stop-color="#f4d593"/><stop offset=".193" stop-color="#f5d797"/><stop offset=".243" stop-color="#f7dda4"/><stop offset=".263" stop-color="#f9e1ab"/><stop offset=".329" stop-color="#f7dfa8"/><stop offset=".383" stop-color="#f2d89e"/><stop offset=".398" stop-color="#efd599"/><stop offset=".461" stop-color="#f2d795"/><stop offset=".462" stop-color="#f2d795"/><stop offset=".527" stop-color="#f2d795"/><stop offset=".538" stop-color="#f2d795"/><stop offset=".538" stop-color="#f2d795"/><stop offset=".615" stop-color="#efda9c"/><stop offset=".735" stop-color="#f6e5ad"/><stop offset=".773" stop-color="#f9e9b4"/><stop offset=".822" stop-color="#f7e1a6"/><stop offset=".887" stop-color="#f5db9b"/><stop offset=".956" stop-color="#f4d997"/><stop offset=".967" stop-color="#f4da9c"/><stop offset="1" stop-color="#f4db9e"/></linearGradient><path fill="url(#a)" stroke="#63451a" stroke-width="1.01" stroke-miterlimit="10" d="M11.8 5.8V11l10.6 73.5L50 94.2l27.6-9.7L88.2 11V5.8z"/><path fill="#63451a" fill-opacity=".75" d="M77.1 78.9 50 88.6l-27.1-9.7L12.3 6.3V11l10.6 73.1L50 93.7l27.1-9.6L87.7 11V6.3z"/><path d="M58.9 27.2c-5.1-2.9-10.3-2.9-15.3 0-5 3-8.7 7.5-10.8 13.5-1.2 3.5-.5 5 2.7 5.8 2.9.7 5.6.1 8.6-1.2 1.9-.8 3.8-2.2 5.8-2.9 1.6-.7 2.5-.1 3 .7.5.7.4 2.5-.1 3.5-.8 1.9-2.4 4.1-3.5 6-.2.2-.1.6.2.7 2.9 1.6 2.5 3.3-.4 5.8-1.5 1.3-5.4 4.2-6.9 5.5 0 0 4.1-1.5 4.8-1.8 5.4-1.7 10.7-3.9 16.3-4.8 4.3-.7 8.3 2.6 10.1 7 .1.3-.2.6-.4.4-7-5.3-13.2-2.6-19.6-.6-3.9 1.2-7.7 3-11.6 4.2-1.3.4-2.9.4-4.3.1-1-.2-2.2-.9-2.5-1.7-.3-.8-.3-1.6 1.2-2.9 2.8-2.6 6.2-5.2 9.4-7.7.2-.1.2-.4 0-.5-5-3.2-.2-5 1.4-7.5.1-.1 0-.3-.2-.2-2.4.9-4.3 2-7 2.4-4.1.7-6.5.3-9.4-.8s-4.3-4.1-3.7-7.4c2-10.7 12-23.4 24.8-22.9 3.5.1 7.3 1.3 10.4 3.1 3.1 1.9 3.6 6.9.5 8.5-3.9 2-8.1 1.8-12.4.3-1.2-.6-2.5-1.2-1.7-3 .6-1.6 1.2-2 3-1.6 2.3.5 5 .7 7.4.7.4-.1.4-.6.2-.7z" fill="#c30"/><path d="M62.6 58.7c.4-.2 3.5-.5 3.8.2.4.6.2.9-.3.9-1-.1-3.2-.4-4-.3-.4-.1 0-.7.5-.8zM30.9 34.5c.2-.7 2.7-5.3 3.6-5.5 1.2-.1 1.1.4.7.8-1.1 1.3-3.3 4.5-4 5.8-.4.6-.6-.4-.3-1.1z" fill="#fff"/></svg>