<svg xmlns="http://www.w3.org/2000/svg" preserveAspectRatio="xMidYMid" version="1.0" viewBox="0 0 160 160"><path fill="#fff" d="M79.21 25.08c-2.51-.53-3.63 2.05-2.95 4.12.5 2.37.56 6.21-2.77 6.2-3.03.83-6.71-.29-9.43 1.4-1.74 2.79 1.89 4.67 4.25 4.67 2.7.26 7.41.36 7.2 4.23.29 2.6-.18 6.81 2.69 8.06a3.1 3.1 0 0 0 4.45-2.74c.75-2.83.73-7.55 4.62-7.79 2.29-.16 6.02.52 6.23-2.8.75-3.69-3.8-4.77-6.59-4.57-2.16-.07-4.3-1.76-3.48-4.11.44-2.36.77-6.74-2.76-6.66-.48-.03-.97-.02-1.46-.01zm4.08 33.76c-9.5.27-19.16-.37-28.54 1.3-1.25 1.27.4 3.7.32 5.3 1.64 6.74 2.84 13.8 5.58 20.17 11.66.66 23.48.43 35.1.29 2.14-8.85 5.4-17.95 4.56-27.1l-17.02.04zM81.3 89.86c-8.78.35-17.86-.01-26.36 2.55-1.57.27-1.55 3.06.4 2.36 15.11.96 30.33 1.1 45.43.03 2.12-1.42-.44-5.02-2.74-4.47-5.56-.51-11.15-.49-16.73-.47zm-1.89 9.7c-5.2.54-10.96-.66-15.8 1.67-2.12 2.81-.86 6.9-2.76 9.93-.46 1.8-2.57 3.86-2.26 5.59 11.86.24 23.74-.8 35.6-1.16-.14-5.31-.27-11.1-1.5-16.33l-13.28.3zm7.84 19.34c-10.15.25-20.42.09-30.46 1.64-5.67 2.38-5.74 9.68-6.36 14.9-.63 2.31 2.1 2.32 3.53 1.67 13.68-2.92 27.82-1.83 41.7-2.6 3.88-.44 8.24.33 11.87-1.1.58-3.24-2.76-5.82-4.4-8.27-2.12-2-3.79-5.15-6.35-6.26l-9.53.02zm1.74 19.5c-12.17.39-24.5.42-36.47 2.8-2 .64.62 1.67 1.55 1.4 17.34 1.37 34.8 1.36 52.18.74 1.88.16 2.66-1.73.84-2.63-4.41-3.04-10.29-1.81-15.33-2.31h-2.77z"/><path fill="#fff" d="M87.06 138.35c-11.64.39-23.47.3-34.88 2.78-1.64 1 1.5 1.57 2.25 1.58 15.67 1.42 31.46.9 47.19.95 2.04-.37 6.04.65 6.75-1.94-4.33-4.46-11.39-2.9-16.98-3.38-1.44-.01-2.89 0-4.33.01zm-2.49-19.59c-9.58.39-19.38-.06-28.78 2.06-4.6 3.1-5.26 9.5-5.41 14.63-.97 4.04 4.15 1.04 6.31 1.28 16.18-1.96 32.57-1.17 48.8-2.57 1.84 0 3.05-2 1.75-3.47-2.6-4.6-6.33-8.46-10.08-12.1l-12.59.17zm-5.35-19.24c-5.15.46-10.8-.71-15.62 1.5-2.3 2.6-1.14 6.65-2.86 9.63-.44 1.9-2.5 3.9-2.16 5.79 8.48 1.14 17.15-.05 25.69-.23 3.24-.43 6.94.04 9.95-1.05.13-5.27-.16-10.78-1.42-15.84l-13.58.2zm3.05-9.79c-9.1.4-18.55-.2-27.33 2.55-1.76.82-.48 3.17 1.28 2.67 14.33.8 28.76 1.07 43.09.19 2.29.44 2.98-2.13 1.67-3.58-3.97-2.62-9.28-1.37-13.79-1.83h-4.92zm-.61-30.89c-8.9.31-18-.54-26.75 1.22-1.65 1.08.23 3.74.06 5.31 1.62 6.94 2.72 14.22 5.8 20.65 11.67-.08 23.43.15 35.03-.11 2.8-8.73 4.8-18 4.67-27.1l-18.81.03zm-1.64-33.71c-3.66-.83-4.2 1.7-3.9 4.82-.06 2.05-.08 5.54-3.02 5.35-2.93.61-7.06-.77-9.25 1.77-1.3 3.28 2.98 4.75 5.5 4.7 2.78-.11 6.01 1.3 5.96 4.54.76 2.42-.26 7.2 3.28 7.58 2.35.7 4.35-.91 4.37-3.32.5-2.88 1.23-7.1 5.03-7.02 2.5-.02 6.4-.82 5.6-4.24-.53-4.2-5.9-2.94-8.68-4.45-2.86-2.38.77-7.5-2.59-9.5-.73-.26-1.53-.24-2.3-.23z"/><path fill="gray" d="M79.21 25.08c-2.51-.53-3.63 2.05-2.95 4.12.5 2.37.56 6.21-2.77 6.2-3.03.83-6.71-.29-9.43 1.4-1.74 2.79 1.89 4.67 4.25 4.67 2.7.26 7.41.36 7.2 4.23.29 2.6-.18 6.81 2.69 8.06a3.1 3.1 0 0 0 4.45-2.74c.75-2.83.73-7.55 4.62-7.79 2.29-.16 6.02.52 6.23-2.8.75-3.69-3.8-4.77-6.59-4.57-2.16-.07-4.3-1.76-3.48-4.11.44-2.36.77-6.74-2.76-6.66-.48-.03-.97-.02-1.46-.01z"/><path fill="gray" d="M79.17 24.56a3.45 3.45 0 0 0-3.19 4.5c.4 2.32.2 5.97-2.95 5.95-2.9.83-7.1-.68-9.26 1.91-1.23 2.58 1.11 4.9 3.7 4.75 2.76.52 7.66.24 7.6 4.28.14 3.24.74 8.5 5 8.64 4.68-1.64 1.88-9.33 6.7-10.76 2.6-.09 7.26-.07 7.08-3.83.03-4.1-4.88-4.79-8.01-4.77-3.09-1.28-1.6-5.79-2.2-8.3.73-2.38-2.88-2.19-4.47-2.37zm4.12 34.28c-9.5.27-19.16-.37-28.54 1.3-1.25 1.27.4 3.7.32 5.3 1.64 6.74 2.84 13.8 5.58 20.17 11.66.66 23.48.43 35.1.29 2.14-8.85 5.4-17.95 4.56-27.1l-17.02.04z"/><path fill="gray" d="M90.66 58.27c-11.95.24-24 .17-35.87 1.47-2.35 1.7.26 5 .22 7.25 1.62 6.36 2.95 12.9 5.33 18.99 11.94.27 24.07 1.2 35.91-.23 1.87-8.63 4.94-17.38 4.36-26.3-1.39-2.3-5.22-.6-7.38-1.19h-2.57zM81.3 89.86c-8.78.35-17.86-.01-26.36 2.55-1.57.27-1.55 3.06.4 2.36 15.11.96 30.33 1.1 45.43.03 2.12-1.42-.44-5.02-2.74-4.47-5.56-.51-11.15-.49-16.73-.47z"/><path d="M73.15 20.8c-.97.28-1.79 2.61-1.79 5.22 0 4.12-.27 4.53-5.63 5.22-7.7.96-8.79 2.33-7.28 9.47 1.1 5.22 1.65 5.9 5.36 6.18 2.33 0 4.94.28 5.9.28.83.14 1.65 1.65 1.65 3.57 0 3.3-.41 3.43-8.38 3.43-14.7 0-15.65 1.92-10.7 21.01l2.88 11.26-2.89 1.93c-4.8 3.15-2.74 12.5 2.61 12.5 4.67 0 3.43 7-3.02 16.75-5.63 8.24-5.9 9.06-5.77 18.67 0 7 .55 10.44 1.92 11.26 1.1.7 14.7 1.24 30.5 1.1 15.65 0 29.1.42 29.93.96 2.6 1.65 5.5-2.2 5.5-7.55 0-9.34-1.66-13.73-7.97-20.73-5.36-6.05-6.32-7.97-6.87-14.29-.55-7.28-.55-7.28 3.3-7.82 5.35-.55 6.45-7.28 1.78-10.85-3.02-2.2-3.02-2.61-1.37-8.93 2.6-9.34 3.43-22.52 1.65-24.3-.69-.7-4.81-1.24-9.07-1.1-7.28.13-7.55.13-7.55-3.44 0-3.3.41-3.43 5.22-3.02l5.08.41.41-7.83.41-7.69-5.49-.96c-5.22-.82-5.5-1.1-4.67-5.08.55-2.75.14-4.53-1.1-5.35-2.06-1.24-11.67-1.51-14.55-.28Zm10.3 9.61c-.42 5.09-.28 5.22 4.8 5.63 4.4.42 5.08.97 5.08 3.85s-.68 3.3-4.67 3.3c-4.4 0-4.8.27-5.63 5.63-.82 4.67-1.37 5.49-3.84 5.08-2.47-.28-3.16-1.51-3.44-6.18-.4-5.77-.4-5.77-6.17-6.18-4.67-.28-5.77-.96-5.77-3.16 0-2.06.82-2.75 3.43-2.47 1.92.13 4.8 0 6.6-.41 2.74-.55 3.15-1.24 2.6-5.36-.69-4.53-.41-4.8 3.43-4.8 3.71 0 3.99.27 3.58 5.07zM100.2 64.2c0 2.74-.96 8.79-2.34 13.32l-2.2 8.24h-35l-1.51-4.53a100 100 0 0 1-2.75-10.72c-.82-3.43-1.78-7.27-2.33-8.51-.69-1.92.55-2.34 8.65-2.75 5.08-.13 15.65-.4 23.48-.4l14 .13zm.96 27.74c.41 1.23.55 2.47.28 2.74-1.38 1.24-47.1.96-47.66-.4-.82-2.76 7.7-4.13 26.92-4.27 16.48-.13 19.77.14 20.46 1.93zm-7.42 15.51c.42 4.26.7 7.83.55 7.97-.13.14-8.37.55-18.26.82l-17.85.7 2.47-4.95c1.5-2.75 2.33-6.32 2.06-7.97-.69-3.84.82-4.26 17.03-4.26h13.18zm8.1 16.35c2.75 2.88 5.23 6.45 5.77 7.96.83 2.61.14 2.75-22.24 2.89-12.64.13-25.55.82-28.7 1.64l-5.9 1.38v-4.8c0-2.48.95-6.46 2.05-8.66 2.2-4.4 3.43-4.53 32.27-5.22l11.81-.27zm1.8 15.38c2.19.41 4.25 1.78 4.52 2.88.28 1.79-3.43 2.06-27.46 1.65-15.38-.28-28.43-.96-28.98-1.65-2.47-2.33 42.71-4.94 51.91-2.88z"/><path fill="gray" d="M90.74 89.74c-11.3.46-22.79-.42-33.95 1.68-1.16.24-4.66 1.73-2.76 3.1 7.07 1.7 14.54.64 21.76 1.05 8.29-.16 16.68.36 24.9-.49 2.65-1.59-.21-5.45-2.7-5.2-2.4-.21-4.83-.14-7.25-.14Zm-11.33 9.82c-5.2.54-10.96-.66-15.8 1.67-2.12 2.81-.86 6.9-2.76 9.93-.46 1.8-2.57 3.86-2.26 5.59 11.86.24 23.74-.8 35.6-1.16-.14-5.31-.27-11.1-1.5-16.33l-13.28.3z"/><path fill="gray" d="M87.84 98.92c-8.04.48-16.31 0-24.2 1.66-2.44 2.74-1.41 7.07-3.16 10.24-.45 2.16-2.6 4.52-2.41 6.43 12.14-.2 24.4-.54 36.44-1.73-.01-5.31-.28-10.87-1.47-16.03-1.46-.97-3.57-.4-5.2-.57zm-.59 19.98c-10.15.25-20.42.09-30.46 1.64-5.67 2.38-5.74 9.68-6.36 14.9-.63 2.31 2.1 2.32 3.53 1.67 13.68-2.92 27.82-1.83 41.7-2.6 3.88-.44 8.24.33 11.87-1.1.58-3.24-2.76-5.82-4.4-8.27-2.12-2-3.79-5.15-6.35-6.26l-9.53.02z"/><path fill="gray" d="M78.83 118.8c-7.4.58-15.02.04-22.3 1.6-5.8 2.48-5.83 9.82-6.4 15.17-.63 1.77 1.07 3.05 2.66 2.16 17.77-3.42 36.08-1.77 53.99-3.6 2.56-1.6-.24-4.98-1.35-6.68-2.5-3.34-5.43-6.35-8.31-9.32l-18.29.67zm10.16 19.6c-12.17.39-24.5.42-36.47 2.8-2 .64.62 1.67 1.55 1.4 17.34 1.37 34.8 1.36 52.18.74 1.88.16 2.66-1.73.84-2.63-4.41-3.04-10.29-1.81-15.33-2.31h-2.77z"/><path fill="gray" d="M87 138.25c-11.49.38-23.2.16-34.45 2.8-1.92.53-.1 2.16 1.15 1.86a480.15 480.15 0 0 0 50.7 1.12c1.58.13 5.25-.88 3.47-3.02-3.4-3.4-8.94-2.24-13.29-2.73-2.53-.05-5.06-.04-7.58-.03z"/></svg>