<svg xmlns="http://www.w3.org/2000/svg" preserveAspectRatio="xMidYMid" version="1.0" viewBox="0 0 160 160"><path fill="#fff" d="M76.66 54.74c-9-.02-15.88 9-14.92 17.69.58 5.35 2.79 11.07 7.13 14.42 4.82 1.5 10.31.99 15.06-.62 8.3-3.49 10.9-14.42 7.11-22.14-2.16-6.12-8-9.68-14.38-9.35zm11.82 35.47c-9.4.3-18.97.02-28.2 1.9-2.24.63-2.5 4.25.05 4.57 6.83 1.38 13.98.35 20.93.6 5.37-.43 11.2.57 16.24-1.68 2.68-2.13-.9-5.35-3.35-5.24-1.88-.2-3.78-.14-5.67-.15zM69.1 101.46c-2.11 3.43-2.39 7.63-5 10.84-4.21 6.34-9.29 12.4-10.84 20.07-.59 3.34-3.32 7.98.3 10.52 4.1 2.66 9.38 1.08 13.97 1.65 11.89-.04 23.82.42 35.68-.43 2.3-.08 4.04-1.97 3.52-4.3-.37-9.13-4.72-17.56-10.71-24.27-2.87-3.62-4.73-7.89-6.68-11.99-3.54-2.88-8.66-1.7-12.87-2.22-2.43.13-5.06-.57-7.38.13z"/><path fill="#7f7f7f" d="M76.87 55.53c-8.57.2-15.72 8.63-14.15 17.15.6 5.17 2.66 11.2 7.46 13.84 6.85 1.45 15.13.17 19.17-6.18 6.71-9.08-.4-25.8-12.48-24.81Zm10.97 35.39c-9.02.5-18.25.23-27.11 2.06-1.85.26-2.1 2.83-.03 2.85 8.1 1.72 16.52.43 24.73.55 4.05-.55 8.86.33 12.43-1.92-.5-3.26-5.3-3.8-8.03-3.57-.67 0-1.33.02-2 .03zm-14.7 10.98c-4.74-.58-4.99 5.42-6.99 8.3-4.73 8.22-11.6 15.6-12.78 25.43-.88 2.59-1.37 6.36 1.97 7.37 6.98 1.28 14.3.32 21.4.66 9.14-.24 18.41.4 27.5-.62 2.45-1.57 1.19-5.44 1.11-7.88-1.55-9.52-8.51-16.57-13.45-24.41-2-3.08-2.77-8.32-7.46-8.2-3.75-.38-7.52-.7-11.3-.65z"/><path fill="#7f7f7f" d="M76.43 55.42c-8.88.09-15.76 9.47-13.8 18 .47 6.3 4.14 14.29 11.53 13.92 7.72.7 16.8-3.9 17.7-12.25.21-4.6-.01-10.06-3.06-13.74-1.08-.87-1.32-3.13-3.2-3.53-1.12.47-.8-1.49-2.23-1.43-2.21-.8-4.6-1-6.94-.97z"/><path fill="#7f7f7f" d="M75.74 55.74c-8.56-.48-14.39 8.93-13.32 16.76.23 5.66 2.88 12.36 8.46 14.57 7.66 1.66 17.37-1.08 20.18-9.1 2.76-7.88-.19-18.49-8.22-21.94-2.33-.45-4.74-.24-7.1-.29zm-.06 40.86c-.98.32-4.28-.5-4.2.55 3.5.12 7.04.23 10.52-.05-1.07-1.02-4.72-.2-6.32-.5z"/><path fill="#7f7f7f" d="M86.35 90.73c-8.68.37-17.57.22-26.08 2.03-2.26.88-.83 3.9 1.31 3.6 6.47.65 13.17 1.58 19.6.65 1.62-1.48 5.04-.33 7.26-.68 2.94-.39 7.43.82 9.36-2.05.1-3.62-4.98-3.27-7.41-3.5a95.65 95.65 0 0 0-4.04-.05z"/><path fill="#7f7f7f" d="M83 90.65c-7.67.4-15.67.01-23.04 2.38-2.75 1.01.05 3.38 1.78 3.4 10.88 1.56 22.07.99 32.95-.34 2.22.17 4.6-2.65 2.05-4.15-4.06-1.94-9.35-1.02-13.73-1.29zm-6.53 11.45c-2.07.35-5.1-.51-6.74.65-2.86 4.6-4.67 9.88-8.15 14.18-1.52 1.64-2.2 4.35-3.74 5.7-1.04.13-.09 1.64-1.26 2.13-2.36 5.08-4.33 10.91-3.68 16.58 2.04 3.46 7.21 2.25 10.57 2.72 12.86.01 25.78.34 38.62-.53 2.41-.35 5.32-2.17 4.15-5-.97-4.98-1.88-10.66-5.23-14.58-.41-.3.34-1.58-.96-1.47-1.66-4.05-5.38-7.12-7.39-11.08-2.48-3.26-3.2-9.25-8.41-9.12-2.59-.22-5.19-.16-7.78-.17z"/><path fill="#7f7f7f" d="M73.94 101.78c-2.24-.1-5.8-.02-5.74 2.98-4.78 11.57-15.5 20.9-15.59 34.17-.62 3.24 2.42 4.97 5.25 4.97 14.6.6 29.32.86 43.91-.24 2.4-.03 5.29-1.12 4.61-4.09-.24-10.9-7.63-19.43-13.35-28.04-2.28-2.66-2.9-7.07-6.1-8.82-4.25-.92-8.66-.94-12.99-.93Z"/><path fill="#7f7f7f" d="M69.36 102.16c-4.66 11.2-13.8 20.35-16.4 32.4-.57 3.1-1.27 8.31 2.96 9.05 10.16 1.46 20.56.47 30.8.6 6.12-.43 12.57.3 18.5-1.16 2.77-3.56.26-8.6-.52-12.47-3.52-9.46-10.84-16.88-15.3-25.85-3.46-4.29-9.94-2-14.63-2.66-1.79.08-3.67-.14-5.4.1zm19.21-11.49c-9.51.49-19.34-.4-28.62 2.07-2.62 1.05-.33 4.17 1.8 3.9 10.73 1.15 21.63.46 32.38-.24 1.88 0 5.22-2.35 2.9-4.14-2.17-2.29-5.69-1.37-8.46-1.6z"/><path d="M69.4 52.04c-10.84 4.87-15.54 16.57-10.68 27.44l3.23 7.31-3.88 1.79c-5.83 2.6-5.34 9.58.97 12.01 2.75.98 4.86 2.76 4.86 3.9 0 .97-2.92 5.2-6.48 9.42-7.44 8.6-10.2 16.4-9.38 27.44l.48 7.95 30.27.5c29.13.48 30.42.32 32.2-2.77 3.57-6.66-1.94-24.84-9.87-33.12-6.47-6.82-7.6-12.5-2.91-14.62 5.34-2.43 5.02-9.09-.65-11.85-4.37-2.11-4.37-2.27-2.1-6.82 4.85-9.42 1.13-22.24-7.93-27.76-5.83-3.58-11.17-3.74-18.13-.82zm17 6.34c3.55 3.08 6.47 11.2 5.5 16.07-1.46 7.96-7.45 12.67-15.86 12.67-6.48 0-7.61-.5-10.52-5.36-6-9.9-3.08-21.6 6.47-25.33 4.53-1.79 10.84-.98 14.4 1.95zm9.7 33.44c5.35 3.41-.64 5.04-18.6 5.04-15.06 0-18.46-.49-18.46-2.44 0-1.78 2.91-2.43 12.63-2.92 6.8-.16 14.72-.65 17.31-.81 2.75-.16 5.83.32 7.12 1.13zm-6.15 15.27c.65 2.43 3.73 7.3 6.96 10.88 5.5 6 9.07 14.93 9.07 22.24 0 3.74-.16 3.74-26.7 3.74-29.95 0-28.17.97-24.93-12.83.8-3.9 4.04-9.9 7.12-13.48 3.07-3.57 5.99-8.77 6.47-11.36 1.14-4.71 1.3-4.71 11-4.23 9.23.5 9.88.82 11.01 5.04z"/></svg>