<?xml version="1.0" encoding="UTF-8" standalone="no"?>
<svg
   version="1.0"
   width="160pt"
   height="159.99998pt"
   viewBox="0 0 159.99999 159.99998"
   preserveAspectRatio="xMidYMid"
   id="svg144"
   xmlns="http://www.w3.org/2000/svg"
   xmlns:svg="http://www.w3.org/2000/svg">
  <defs
     id="defs144" />
  <metadata
     id="metadata1">
Created by potrace 1.16, written by Peter Selinger 2001-2019
</metadata>
  <rect
     style="display:inline;fill:none;stroke-width:1.95838"
     id="rect1-5"
     width="160"
     height="160"
     x="0"
     y="0" />
  <g
     id="g1"
     transform="matrix(1.0833333,0,0,1.0833333,-6.6666637,-1.3872031)">
    <path
       style="fill:#ffffff;stroke:none;stroke-width:0.431629"
       d="m 66.283801,29.251474 c -2.107023,1.008023 -1.690719,4.119446 -2.34867,6.040271 -0.729347,2.906346 -0.483119,6.393599 -2.292181,8.820583 -3.691506,-2.322709 -5.394536,-6.728291 -8.139955,-10.030156 -0.534486,-1.240251 -2.88375,-3.505281 -3.618584,-1.258806 0.246215,5.208973 2.683822,10.106607 4.749613,14.82461 0.846758,2.00745 2.296627,4.395406 4.865091,3.811215 11.860031,-0.660168 23.588731,-1.764249 35.465276,-1.701111 3.620165,0.130141 7.484599,-1.252454 9.033879,-4.788385 1.98262,-3.721792 4.36309,-7.549521 4.85413,-11.791406 -0.94461,-2.152336 -2.98344,0.581583 -3.95125,1.391839 -2.51093,2.128267 -4.37023,5.250759 -7.166569,6.90607 -1.758384,-2.975822 -1.637756,-6.787807 -3.243119,-9.774049 -2.097874,0.313867 -1.975408,3.608583 -3.098126,5.187148 -1.2066,2.387279 -2.205446,5.212892 -4.286779,6.950734 -3.538836,-3.46936 -3.361774,-8.937495 -4.978083,-13.333292 -1.636175,-1.771696 -3.26758,1.176409 -3.799512,2.537503 -1.724098,3.635612 -2.224826,8.311478 -5.556382,10.854806 -1.460869,-0.185077 -1.242399,-2.614224 -1.85297,-3.651991 -1.229033,-3.616314 -1.712557,-7.762586 -4.011968,-10.867455 -0.184712,-0.114465 -0.40979,-0.157319 -0.623841,-0.128114 z"
       id="path67" />
    <path
       style="fill:#ffffff;stroke:none;stroke-width:0.431629"
       d="m 86.193553,52.551028 c -10.011224,0.05162 -20.115749,0.384573 -30.049374,1.043809 -0.911842,2.498609 0.0496,5.748391 -0.10487,8.541394 0.523607,5.722228 0.36887,12.227589 4.124095,16.948187 2.111091,2.044601 5.420849,0.234998 7.969961,0.432481 11.016557,-0.943668 22.125159,-1.166139 33.136825,-2.233178 1.78353,-2.453202 2.24014,-5.802083 3.37884,-8.630899 1.16771,-4.441137 1.7502,-9.353839 0.45355,-13.815505 -1.42926,-3.237471 -5.708606,-1.775007 -8.423145,-2.243138 -3.494943,-0.05919 -6.990602,-0.06068 -10.485923,-0.04324 z"
       id="path68" />
    <path
       style="fill:#ffffff;stroke:none;stroke-width:0.431629"
       d="m 92.979063,80.819368 c -11.229256,0.316259 -22.566518,0.563974 -33.626618,2.669037 -1.892985,-0.02487 -2.936414,2.660361 -0.863258,3.317299 4.771789,0.899896 9.781158,0.222308 14.637438,0.420764 8.923818,-0.206659 17.907613,0.103924 26.789713,-0.763875 2.169712,-0.163779 4.683312,-3.013473 2.341072,-4.717571 -2.75685,-1.402866 -6.282996,-0.704535 -9.278347,-0.925654 z"
       id="path69" />
    <path
       style="fill:#ffffff;stroke:none;stroke-width:0.431629"
       d="m 68.575143,90.383502 c -0.340976,4.826955 -0.301758,9.912248 -0.01514,14.731968 2.450945,0.97823 5.653603,0.0506 8.393346,0.2033 6.259755,-0.38532 12.574201,-0.30095 18.792494,-1.14674 1.514561,-1.47892 -0.116627,-4.221272 0.05568,-6.197924 -0.478186,-2.560275 -0.345855,-5.349655 -1.299943,-7.742354 -8.398414,-0.308759 -16.880643,-0.04216 -25.311018,-0.131493 l -0.392101,0.180468 z"
       id="path70" />
    <path
       style="fill:#ffffff;stroke:none;stroke-width:0.431629"
       d="m 81.554378,106.72135 c -4.987313,0.37204 -10.582008,-0.77609 -15.085947,1.8985 -3.899597,3.45799 -6.123694,8.42631 -8.359452,13.04245 -0.909869,1.65088 -0.585542,4.01669 1.545265,4.4183 5.697808,1.44677 11.733416,0.67072 17.564839,1.03646 9.916624,0.0108 19.851506,0.54046 29.758427,0.24158 2.34932,-0.49276 0.52135,-3.34624 0.39844,-4.80686 -1.34193,-5.68949 -3.85235,-11.72599 -8.991391,-14.93935 -5.375413,-1.5979 -11.301733,-0.58863 -16.830181,-0.89108 z"
       id="path71" />
    <path
       style="fill:#ffffff;stroke:none;stroke-width:0.431629"
       d="m 71.654728,128.29102 c -4.437354,0.28185 -9.141573,-0.40317 -13.40412,1.02174 -1.9583,0.85124 -3.37864,4.13401 -0.859881,5.24784 3.317123,1.14008 7.062254,0.26795 10.529357,0.59739 12.343541,-0.1046 24.720449,0.28992 37.040926,-0.5544 1.78406,0.27896 4.18878,-1.76728 2.38153,-3.32995 -4.67416,-2.53126 -10.321832,-2.03295 -15.469856,-2.55503 -6.73367,-0.32261 -13.476827,-0.44927 -20.217956,-0.42759 z"
       id="path72" />
    <path
       style="fill:#808080;stroke-width:0.246533"
       d="m 56.883913,50.174981 c -1.676395,-1.799399 -5.876737,-12.327641 -6.3542,-15.926931 -0.129694,-0.977676 -0.08073,-1.302859 0.235732,-1.565497 0.585526,-0.485944 0.978938,-0.04605 4.160147,4.651653 1.519738,2.244203 3.293063,4.717617 3.940721,5.496474 2.895951,3.4826 4.133925,2.593951 5.124658,-3.678607 1.270318,-8.042674 1.563034,-9.198298 2.329902,-9.198298 0.67148,0 1.986287,3.298878 3.448304,8.651865 0.753463,2.758707 1.535682,5.268797 1.738264,5.577977 0.607679,0.927434 1.605884,0.743843 2.759333,-0.507501 1.193081,-1.294337 2.192883,-3.3357 3.393138,-6.927978 1.397085,-4.181391 2.815088,-6.646295 3.558975,-6.186548 0.555855,0.343541 0.98757,1.62324 1.244138,3.687953 0.304275,2.448596 1.203885,5.492472 2.27193,7.687216 0.73227,1.504731 1.739542,2.809004 2.169367,2.809004 0.541395,0 2.088473,-1.700677 3.065678,-3.370038 0.58194,-0.994131 1.76019,-3.48776 2.618332,-5.541396 1.189553,-2.846737 1.605765,-3.622811 1.751798,-3.266388 0.105352,0.257124 0.577815,2.15371 1.049917,4.214637 0.472103,2.060925 1.087628,4.196519 1.367835,4.745763 0.793868,1.55612 1.256273,1.387722 3.827628,-1.39395 4.15968,-4.499904 6.92937,-7.222218 7.3479,-7.222218 0.97355,0 0.13597,2.550774 -2.79287,8.505393 -2.00674,4.079929 -3.43106,5.996869 -5.03137,6.771564 -1.449527,0.701708 -3.883465,1.009686 -6.54985,0.828785 -2.673113,-0.181357 -13.221608,0.28919 -20.708781,0.923777 -3.18644,0.270071 -7.964786,0.55937 -10.618544,0.642887 -4.795882,0.15093 -4.828175,0.148457 -5.348082,-0.409598 z"
       id="path1" />
    <path
       style="fill:#808080;stroke-width:0.246533"
       d="M 61.278636,79.085175 C 59.64246,78.23379 58.013553,74.150416 57.200552,68.862152 56.978419,67.417264 56.74338,63.743195 56.656738,60.361421 l -0.152594,-5.955991 1.331903,-0.144813 c 5.956287,-0.647607 24.532785,-1.209737 36.093075,-1.092187 7.547848,0.07675 8.206828,0.118346 9.121728,0.575792 1.2529,0.626453 1.77688,1.678234 2.09838,4.212087 0.30906,2.435932 -0.0296,6.075603 -0.87577,9.411308 -0.61665,2.430966 -2.92198,8.872928 -3.32021,9.27792 -0.11913,0.121155 -4.85461,0.473243 -10.52329,0.78243 -19.193762,1.046888 -24.987245,1.457903 -27.564013,1.95549 -0.473721,0.09148 -1.044342,-0.01575 -1.587311,-0.298282 z"
       id="path2" />
    <path
       style="fill:#808080;stroke-width:0.246533"
       d="m 64.591679,86.66448 c -5.796574,-0.173205 -6.625583,-0.34179 -6.486455,-1.319063 0.206812,-1.452705 4.026609,-2.132572 17.580448,-3.12906 16.74258,-1.230922 25.922758,-1.048042 26.769048,0.533258 0.32177,0.601237 -0.28557,2.020492 -1.09028,2.54775 -0.34,0.22278 -1.31999,0.504337 -2.17775,0.625687 C 95.13,86.496967 74.082089,86.948055 64.591679,86.66448 Z"
       id="path3" />
    <path
       style="fill:#808080;stroke-width:0.246533"
       d="m 69.269805,104.6033 c -0.06897,-0.17974 -0.09583,-3.37606 -0.0597,-7.102948 l 0.0657,-6.77616 12.368205,-0.0639 12.368205,-0.0639 0.142755,0.680235 c 0.368985,1.758143 1.145212,7.728533 1.287907,9.905883 l 0.159075,2.42757 -1.699282,0.15645 c -2.906408,0.2676 -10.08855,0.61362 -15.751665,0.75888 -2.983065,0.0765 -6.173452,0.19886 -7.08977,0.27189 -1.252445,0.0998 -1.697165,0.0517 -1.791434,-0.19399 z"
       id="path4" />
    <path
       style="fill:#808080;stroke-width:0.246533"
       d="m 65.824345,126.33355 c -8.857875,-0.47545 -9.235302,-1.30449 -4.429445,-9.72951 3.12419,-5.47694 4.378902,-7.02903 6.482458,-8.01882 2.241691,-1.0548 4.270222,-1.25103 14.388507,-1.39193 9.380505,-0.13062 12.72189,0.0219 15.10347,0.68928 1.304392,0.36554 3.988985,2.97314 5.689845,5.52665 1.6914,2.53932 2.67562,5.02412 3.59383,9.07317 0.40529,1.78723 0.79428,3.44365 0.86441,3.68094 0.12074,0.40851 -0.89168,0.42941 -19.05705,0.39345 -10.55151,-0.0209 -20.73772,-0.12135 -22.636025,-0.22323 z"
       id="path5" />
    <path
       style="fill:#808080;stroke-width:0.246533"
       d="m 65.331279,134.70052 c -6.508898,-0.1617 -7.769707,-0.35683 -8.386367,-1.29797 -0.824202,-1.25789 0.487118,-3.25554 2.524466,-3.84573 1.727842,-0.50053 12.601843,-0.73779 22.464304,-0.49015 18.603528,0.46713 25.431498,1.39531 25.431498,3.4571 0,0.65557 -0.85794,1.13699 -2.58471,1.45038 -3.41061,0.61897 -26.590743,1.04578 -39.449191,0.72637 z"
       id="path6" />
    <path
       style="fill:#808080;stroke-width:0.246533"
       d="m 57.04153,50.452168 c -1.793091,-1.431291 -6.625506,-13.62404 -6.625506,-16.716927 0,-1.169423 0.462375,-1.611749 1.199054,-1.147063 0.215839,0.136147 1.749449,2.229151 3.408022,4.65112 4.64887,6.788615 6.06779,8.185296 7.238905,7.125452 0.700026,-0.633515 1.148311,-2.348445 1.962611,-7.508048 0.701835,-4.446986 1.277508,-6.750867 1.761607,-7.050057 0.819607,-0.506545 2.021432,2.097475 3.665795,7.942757 1.55373,5.523105 1.892558,6.446719 2.480386,6.761315 1.405496,0.752198 3.477098,-2.224135 5.371013,-7.716694 1.008998,-2.926209 2.026088,-5.16614 2.686163,-5.915749 1.01637,-1.154225 2.09118,0.239952 2.371102,3.075652 0.411,4.163433 3.04647,10.545303 4.354823,10.545303 0.584617,0 2.297858,-1.977996 3.306278,-3.817221 0.447284,-0.815782 1.509667,-3.124274 2.360857,-5.129981 0.851183,-2.005707 1.625745,-3.558865 1.721242,-3.451463 0.0955,0.107401 0.588571,1.970314 1.095713,4.139806 0.50715,2.169491 1.126365,4.416024 1.37604,4.992296 0.82872,1.912739 1.010588,1.788041 7.284045,-4.994306 2.9009,-3.136211 3.84657,-3.869861 4.34533,-3.371103 0.40755,0.407556 -0.39367,2.78164 -2.3552,6.978648 -2.6407,5.650205 -4.10398,7.658299 -6.327163,8.682957 -1.028557,0.47406 -1.738155,0.52407 -9.738052,0.68631 -4.745768,0.09625 -10.18182,0.29667 -12.08013,0.445388 -1.898302,0.148717 -5.503849,0.432082 -8.012324,0.629699 -2.508473,0.197618 -6.280431,0.431132 -8.382126,0.518921 -3.636216,0.151887 -3.852605,0.134598 -4.468485,-0.357012 z"
       id="path7" />
    <path
       style="fill:#808080;stroke-width:0.246533"
       d="M 56.789581,50.26134 C 54.681877,47.974254 50.287159,36.486857 50.46364,33.725899 c 0.0689,-1.077899 0.130658,-1.183526 0.691984,-1.183526 0.517864,0 1.119872,0.708977 3.768062,4.437596 3.811875,5.367076 5.655203,7.51926 6.440181,7.51926 1.251528,0 1.679213,-1.209587 2.868803,-8.113598 0.86284,-5.007652 1.179141,-6.15271 1.806766,-6.540768 0.885638,-0.547587 1.893301,1.732802 4.13091,9.348441 0.678158,2.30809 1.394777,4.446141 1.592487,4.751226 1.186196,1.830407 3.422859,-1.022527 5.653412,-7.211094 1.441702,-3.999943 2.49228,-6.007708 3.242032,-6.195886 0.858098,-0.215368 1.461248,0.580852 1.798823,2.374623 0.699465,3.716812 1.01328,4.978231 1.725975,6.937776 0.95055,2.613506 2.04201,4.402747 2.685735,4.402747 0.516982,0 1.911457,-1.431267 2.81352,-2.887759 0.317985,-0.513427 1.449292,-2.851444 2.514022,-5.195593 1.064723,-2.344148 2.019908,-4.174657 2.122628,-4.067796 0.102727,0.10686 0.69132,2.177437 1.307992,4.601282 1.271258,4.996681 1.607408,5.728698 2.439998,5.313556 0.30045,-0.149813 2.5432,-2.318022 4.98388,-4.818244 3.19193,-3.269809 4.5933,-4.543984 4.99229,-4.539181 0.43273,0.0052 0.5547,0.149034 0.5547,0.654078 0,1.379976 -3.60197,9.349021 -5.55702,12.294437 -1.17755,1.77404 -2.80939,2.99075 -4.427573,3.301213 -0.677962,0.130074 -5.448375,0.358085 -10.60092,0.50669 -5.152545,0.148606 -12.086287,0.489269 -15.408321,0.757029 -3.322034,0.267761 -8.09245,0.55665 -10.600924,0.641975 l -4.560863,0.155138 z"
       id="path8" />
    <path
       style="fill:#808080;stroke-width:0.246533"
       d="m 56.552768,50.114102 c -2.394274,-3.242338 -6.263286,-13.64313 -6.089836,-16.370874 0.0697,-1.096195 0.130076,-1.200855 0.692692,-1.200855 0.487873,0 0.938435,0.436763 2.161742,2.095532 0.849975,1.152542 2.538375,3.438533 3.751998,5.07998 1.213624,1.641447 2.656697,3.391094 3.206829,3.888105 1.74,1.571986 2.301748,0.802633 3.343119,-4.578641 1.372484,-7.0923 1.675264,-8.386253 2.079032,-8.884885 1.022368,-1.262572 1.886886,0.379871 4.321227,8.209632 0.903609,2.906347 1.757409,5.422942 1.897333,5.592434 0.452975,0.54869 1.355451,0.340753 2.037124,-0.469369 0.897149,-1.066201 2.104327,-3.524849 3.573937,-7.279019 0.680505,-1.738387 1.576695,-3.749916 1.99152,-4.470066 0.65139,-1.130833 0.844815,-1.298905 1.418602,-1.232665 0.91272,0.105366 1.362675,1.122363 2.15298,4.866143 0.994155,4.709506 2.721023,8.646609 3.79251,8.646609 1.006868,0 2.557628,-2.275109 4.93293,-7.23704 1.277985,-2.66968 2.40924,-4.768311 2.513903,-4.663623 0.104662,0.104686 0.69759,2.058926 1.317622,4.342754 1.15545,4.255988 1.664505,5.585644 2.138453,5.585644 0.148485,0 2.403645,-2.107858 5.011465,-4.684129 4.96465,-4.904584 5.79989,-5.470495 5.79989,-3.929681 0,1.594925 -4.18606,10.619642 -5.9715,12.873944 -1.12195,1.416586 -2.50955,2.33258 -3.96948,2.62039 -0.701955,0.138381 -5.824807,0.426585 -11.38413,0.640453 -5.559322,0.213868 -12.326659,0.545957 -15.038524,0.737975 -2.711864,0.192017 -6.483821,0.411831 -8.382126,0.488473 -1.898305,0.07664 -4.142106,0.195023 -4.986226,0.263069 l -1.534763,0.12372 z"
       id="path9" />
    <path
       style="fill:#808080;stroke-width:0.246533"
       d="M 60.813199,78.888772 C 59.11588,77.46057 57.651511,73.273346 56.977124,67.919877 56.780693,66.360555 56.583101,62.644068 56.538031,59.661017 l -0.08194,-5.423729 3.697997,-0.285926 c 6.685834,-0.516944 18.549987,-0.876455 30.077044,-0.911403 12.656658,-0.03837 13.069088,0.0059 14.085338,1.513954 1.39909,2.076113 1.42099,7.505204 0.0524,12.996164 -0.3553,1.425571 -2.9992,9.035663 -3.26618,9.401288 -0.0133,0.01815 -4.461718,0.272647 -9.885448,0.565522 -13.992577,0.755588 -21.598362,1.2315 -24.160246,1.51176 -5.531881,0.60516 -5.353635,0.609158 -6.243812,-0.139875 z"
       id="path10" />
    <path
       style="fill:#808080;stroke-width:0.246533"
       d="m 60.746629,78.966907 c -1.461396,-1.3674 -2.772954,-4.6869 -3.549122,-8.982672 -0.371296,-2.05497 -1.095462,-15.475083 -0.848388,-15.722157 0.752678,-0.752679 39.415186,-1.769199 44.581431,-1.172142 3.56638,0.412161 4.20572,1.280018 4.40123,5.974371 0.17079,4.100292 -0.3448,6.967185 -2.30196,12.8001 -0.88719,2.644068 -1.6965,4.8924 -1.79848,4.996298 -0.10198,0.10389 -6.945398,0.576937 -15.207608,1.051215 -8.262202,0.47427 -16.187061,0.97689 -17.610789,1.116937 -1.423729,0.140048 -3.587057,0.318165 -4.807396,0.395813 -2.106233,0.134025 -2.251273,0.110805 -2.858918,-0.457763 z"
       id="path11" />
    <path
       style="fill:#808080;stroke-width:0.246533"
       d="m 60.78257,86.642407 c -1.798371,-0.14685 -2.402988,-0.290197 -2.650231,-0.62832 -1.396755,-1.910175 1.970943,-2.715817 15.827599,-3.786375 20.041702,-1.548412 28.721102,-1.278165 28.721102,0.894285 0,0.898118 -0.65976,2.001255 -1.43742,2.403398 -0.98533,0.509535 -4.613178,0.843397 -12.245163,1.126897 -7.571797,0.281265 -24.723985,0.275258 -28.215887,-0.0099 z"
       id="path12" />
    <path
       style="fill:#808080;stroke-width:0.246533"
       d="m 60.102373,86.67618 c -1.727402,-0.213795 -2.290355,-0.557798 -2.290355,-1.399575 0,-1.255868 2.38595,-1.843755 10.847458,-2.672753 9.189594,-0.90033 15.114481,-1.215142 23.174116,-1.231335 7.744853,-0.01552 8.335578,0.01448 9.491518,0.48273 1.1257,0.455978 1.23914,0.57603 1.30715,1.383383 0.0558,0.662212 -0.0856,1.074322 -0.56343,1.642185 -0.75864,0.901597 -1.82666,1.169535 -6.16744,1.547287 -3.551955,0.309098 -33.622343,0.517486 -35.799017,0.248078 z"
       id="path13" />
    <path
       style="fill:#808080;stroke-width:0.246533"
       d="m 59.489036,86.68638 c -1.16456,-0.24873 -1.677018,-0.679725 -1.677018,-1.41042 0,-1.15788 1.964742,-1.779908 7.642527,-2.419598 9.976007,-1.12395 20.952437,-1.713532 29.36761,-1.577445 5.118682,0.08278 5.873665,0.147503 6.749485,0.578565 0.84566,0.416213 0.99675,0.612135 1.06062,1.37529 0.0562,0.67107 -0.0847,1.079078 -0.57269,1.659053 -1.34194,1.5948 -3.69959,1.777702 -24.401638,1.893075 -9.491523,0.05288 -17.667527,0.0086 -18.168896,-0.09852 z"
       id="path14" />
    <path
       style="fill:#808080;stroke-width:0.246533"
       d="m 69.152542,97.780537 v -7.179615 h 12.53382 12.53382 l 0.528863,3.636368 c 0.836302,5.750362 1.123965,9.21888 0.782092,9.43017 -0.47679,0.29467 -9.989497,0.81127 -20.769966,1.12794 l -5.608629,0.16475 z"
       id="path15" />
    <path
       style="fill:#808080;stroke-width:0.246533"
       d="M 69.152542,97.853895 V 90.600922 H 81.70614 94.259745 l 0.137122,0.67797 c 0.740595,3.661583 1.585245,12.233118 1.22727,12.454348 -0.364927,0.22554 -7.127872,0.64361 -14.761275,0.9125 -3.932197,0.13851 -8.175651,0.29893 -9.429888,0.35648 l -2.280432,0.10464 z"
       id="path16" />
    <path
       style="fill:#808080;stroke-width:0.246533"
       d="m 73.590139,126.57939 c -12.321752,-0.20273 -14.11562,-0.44891 -15.187107,-2.08421 -0.583017,-0.88979 -0.289006,-2.03157 1.300362,-5.04988 2.62054,-4.97657 4.380726,-7.75108 5.88869,-9.28209 2.504969,-2.54326 4.675473,-2.9684 16.380178,-3.20842 7.980248,-0.16365 12.90954,0.0983 15.326925,0.81456 2.416035,0.71585 6.315473,5.33679 7.998273,9.4782 0.60774,1.49566 2.31131,8.24297 2.31331,9.16231 7.5e-4,0.40558 -0.71171,0.42863 -11.894285,0.38464 -6.54237,-0.0257 -16.499228,-0.12253 -22.126346,-0.21511 z"
       id="path17" />
    <path
       style="fill:#808080;stroke-width:0.246533"
       d="m 70.015408,126.58576 c -8.82188,-0.21868 -10.912477,-0.59574 -11.725449,-2.11479 -0.463074,-0.86526 -0.122846,-2.18819 1.260794,-4.9024 3.562834,-6.98902 6.276324,-10.46716 8.917569,-11.43051 2.494357,-0.90977 5.400855,-1.11887 15.72274,-1.13112 13.00119,-0.0155 13.56918,0.0966 16.560518,3.26761 1.92756,2.04331 2.80322,3.28127 3.9583,5.59602 0.90258,1.80874 2.56062,7.50985 2.81932,9.69416 l 0.15119,1.27657 -15.381025,-0.0422 C 83.8398,126.7758 73.812019,126.67989 70.015408,126.58577 Z"
       id="path18" />
    <path
       style="fill:#808080;stroke-width:0.246533"
       d="m 60.709324,134.73496 c -1.186143,-0.11551 -2.572892,-0.41341 -3.081664,-0.66201 -0.878531,-0.42927 -0.924291,-0.5104 -0.910138,-1.61361 0.04294,-3.34662 2.835458,-3.8101 21.433483,-3.55734 17.313517,0.23529 26.383225,1.02641 28.627755,2.49709 0.48067,0.31494 0.59873,0.5753 0.53927,1.18928 -0.0683,0.70552 -0.20502,0.82884 -1.33426,1.20367 -0.72409,0.24035 -2.86937,0.53231 -5.05393,0.6878 -4.710915,0.33532 -37.275765,0.54188 -40.220516,0.25512 z"
       id="path19" />
    <path
       style="fill:#808080;stroke-width:0.246533"
       d="m 59.785952,134.68759 c -2.219463,-0.31671 -3.062842,-0.84756 -3.158964,-1.98837 -0.107132,-1.27147 0.496331,-2.26839 1.733005,-2.8629 1.935829,-0.93064 5.573937,-1.10727 19.415704,-0.94266 15.71634,0.18693 22.728083,0.6242 26.859303,1.67502 2.09754,0.53355 2.73018,0.99113 2.73018,1.97476 0,1.51569 -2.33284,1.91155 -12.942993,2.1963 -10.24827,0.27503 -32.579081,0.24141 -34.636235,-0.0521 z"
       id="path20" />
    <path
       d="m 63.831747,20.648036 c -0.81085,0.945993 -1.891985,4.189396 -2.432552,7.162516 -1.48656,7.838224 -1.621702,7.838224 -6.892231,2.702836 -9.324785,-9.324785 -11.757337,-5.270531 -6.486807,10.405918 2.97312,8.513933 3.783971,13.108755 3.513687,19.325277 -0.270284,4.865105 0.270284,10.541061 1.621702,14.054748 1.081134,3.243403 1.621701,7.703082 1.216276,9.730209 -0.675709,3.378545 -0.135142,4.054254 4.459679,6.216523 7.432799,3.378545 7.567941,7.297657 0.675709,19.730707 -5.540814,10.27077 -9.730209,25.67694 -7.432799,27.97435 1.756844,1.75684 56.894699,2.56769 58.651539,0.81085 1.89199,-1.89199 1.75685,-15.54131 -0.27028,-21.21726 -0.81085,-2.5677 -3.2434,-6.89224 -5.54082,-9.73021 -2.16226,-2.83798 -4.18939,-7.4328 -4.59482,-10.541063 -0.675706,-4.865105 -0.405422,-5.811098 3.78397,-9.189643 3.91912,-3.243403 4.32454,-4.189396 3.10827,-6.892232 -0.946,-2.29741 -0.67571,-5.135388 1.35141,-11.216769 2.5677,-7.703083 2.5677,-8.378792 0.40543,-14.460173 -2.29741,-6.351664 -2.29741,-6.351664 1.75684,-15.271023 4.32454,-9.595068 5.13539,-14.325031 2.43255,-14.595314 -3.78397,-0.405426 -5.94623,0.540567 -9.45992,3.78397 l -3.64883,3.513687 -0.810851,-3.919112 c -1.48656,-6.75709 -2.027127,-7.567941 -4.324538,-7.027374 -1.216276,0.270284 -3.108261,2.97312 -4.324537,6.081381 -1.081135,3.243403 -2.432553,5.811097 -2.837978,5.811097 -0.405425,0 -2.027127,-3.108261 -3.648829,-6.757089 -3.78397,-8.649076 -6.351664,-8.649076 -8.513933,-0.405426 -1.48656,6.081381 -1.756843,6.351665 -3.513687,3.919112 -1.081134,-1.486559 -1.891985,-3.378545 -1.891985,-4.054254 0,-0.81085 -1.216276,-2.837977 -2.432552,-4.594821 -2.027127,-2.567694 -2.702836,-2.837978 -3.919113,-1.351418 z m 5.135389,14.865598 c 0.810851,3.243403 1.756843,6.621948 2.027127,7.432799 1.081134,4.054254 4.324537,1.216276 6.486806,-5.675956 1.216276,-4.189395 2.837978,-7.162515 3.648829,-6.757089 0.675709,0.540567 1.216276,1.621701 1.216276,2.432552 0,4.189396 2.97312,11.757336 4.594821,11.757336 0.945993,0 3.108262,-2.837977 4.594821,-6.351664 l 2.702836,-6.486806 0.945993,4.054253 c 1.891985,8.378792 2.027127,8.378792 7.162515,2.297411 6.21652,-7.027373 7.56794,-7.297657 4.59482,-0.540567 -4.8651,10.811344 -5.94624,11.757336 -13.919604,11.351911 -4.054254,-0.135142 -13.243896,0.270284 -20.541553,0.945993 -7.432799,0.675709 -14.189889,0.945992 -15.135882,0.675709 -1.891985,-0.810851 -7.973366,-16.757584 -6.75709,-17.838718 0.810851,-0.810851 0.540568,-1.216276 5.94624,6.892232 5.135388,7.567941 6.621947,7.027373 7.838224,-2.837978 0.405425,-3.919112 1.216276,-7.027373 1.891985,-7.027373 0.675709,0 1.756843,2.567694 2.702836,5.675955 z m 35.542294,19.460419 c 1.48656,3.783971 0.81085,10.405919 -1.35142,16.217016 l -2.16227,5.675956 -17.027864,0.945992 c -9.459926,0.405426 -18.514427,1.081135 -20.27127,1.48656 -2.567695,0.540567 -3.378545,-0.270283 -5.000247,-4.054254 -1.081134,-2.702836 -2.027127,-8.378791 -2.027127,-12.838471 v -8.108508 l 7.838224,-0.540567 c 4.189396,-0.270284 14.730457,-0.540567 23.379532,-0.675709 13.379042,-0.270284 15.946732,0 16.622442,1.891985 z m -1.89199,28.109495 c 0,1.081134 -0.81085,2.162268 -1.89198,2.567694 -2.973121,1.216276 -41.21825,1.621701 -42.299384,0.540567 -1.756844,-1.891985 1.216276,-2.702836 12.703329,-3.648829 21.622688,-1.756843 31.488035,-1.621701 31.488035,0.540568 z m -7.567937,13.919605 c 0.405426,3.378547 0.675709,6.351667 0.540567,6.621947 -0.270283,0.13514 -6.216522,0.54057 -13.379038,0.81085 l -12.973613,0.40543 v -7.162518 -7.027374 h 12.433046 12.433046 z m 3.648829,11.487057 c 4.189398,3.64882 6.486808,7.4328 7.703078,12.70333 l 1.21628,5.54081 -24.730949,-0.13514 c -28.379777,-0.13514 -27.433785,0.40542 -20.811837,-11.21677 4.594821,-7.97337 4.865105,-8.10851 22.433539,-8.37879 7.973366,-0.13515 12.838471,0.40542 14.189889,1.48656 z m -1.48656,21.21726 c 7.703078,0.67571 10.135638,1.35142 10.135638,2.83798 0,1.75684 -3.78397,2.02712 -25.27152,2.29741 -23.784956,0.13514 -25.406658,0 -25.406658,-2.29741 0,-1.48656 1.216277,-2.70284 3.108261,-3.10826 4.45968,-0.81086 25.812084,-0.67571 37.434279,0.27028 z"
       id="path26"
       style="fill:#000000;stroke:none;stroke-width:0.135142" />
  </g>
</svg>
