<svg xmlns="http://www.w3.org/2000/svg" preserveAspectRatio="xMidYMid" version="1.0" viewBox="0 0 160 160"><path d="M69.4 52.04c-10.84 4.87-15.54 16.57-10.68 27.44l3.23 7.31-3.88 1.79c-5.83 2.6-5.34 9.58.97 12.01 2.75.98 4.86 2.76 4.86 3.9 0 .97-2.92 5.2-6.48 9.42-7.44 8.6-10.2 16.4-9.38 27.44l.48 7.95 30.27.5c29.13.48 30.42.32 32.2-2.77 3.57-6.66-1.94-24.84-9.87-33.12-6.47-6.82-7.6-12.5-2.91-14.62 5.34-2.43 5.02-9.09-.65-11.85-4.37-2.11-4.37-2.27-2.1-6.82 4.85-9.42 1.13-22.24-7.93-27.76-5.83-3.58-11.17-3.74-18.13-.82zm17 6.34c3.55 3.08 6.47 11.2 5.5 16.07-1.46 7.96-7.45 12.67-15.86 12.67-6.48 0-7.61-.5-10.52-5.36-6-9.9-3.08-21.6 6.47-25.33 4.53-1.79 10.84-.98 14.4 1.95zm9.7 33.44c5.35 3.41-.64 5.04-18.6 5.04-15.06 0-18.46-.49-18.46-2.44 0-1.78 2.91-2.43 12.63-2.92 6.8-.16 14.72-.65 17.31-.81 2.75-.16 5.83.32 7.12 1.13zm-6.15 15.27c.65 2.43 3.73 7.3 6.96 10.88 5.5 6 9.07 14.93 9.07 22.24 0 3.74-.16 3.74-26.7 3.74-29.95 0-28.17.97-24.93-12.83.8-3.9 4.04-9.9 7.12-13.48 3.07-3.57 5.99-8.77 6.47-11.36 1.14-4.71 1.3-4.71 11-4.23 9.23.5 9.88.82 11.01 5.04z"/><path fill="#fff" d="M77.11 55.48c-8.05-.03-15.02 7.5-14.61 15.5a20.72 20.72 0 0 0 6 14.52c3.3 2.46 7.83 1.67 11.62 1.08 6.48-.92 11.53-6.82 11.72-13.32.25-5.8-1.9-12.17-6.72-15.66a15.43 15.43 0 0 0-8.02-2.1z"/><path fill="#fff" d="M76.16 55.56c-6.61.13-12.35 5.9-13.48 12.25a20.59 20.59 0 0 0 5.5 17.43c3.4 2.84 8.29 1.9 12.3 1.3 7.27-1.08 12.32-8.74 11.4-15.86-.45-6.4-4.2-13.77-11.12-14.86a25.79 25.79 0 0 0-4.6-.26z"/><path fill="#fff" d="M77.1 55.4c-7.94-.13-14.8 7.1-14.65 14.97-.27 5.91 2.22 12.08 6.82 15.85 2.95 1.35 6.45.82 9.6.66a14.25 14.25 0 0 0 12.87-11.76c1.2-6.92-1.62-15.12-8.08-18.49a16.75 16.75 0 0 0-6.56-1.23zm11.83 35.42c-9.12.39-18.32.3-27.35 1.74-1.37-.04-3.51 1.68-1.9 2.86 4.28 1.86 9.18 1.12 13.72 1.38 7.41-.24 14.98.37 22.27-1.26 1.04-.14 3.17-1.1 1.93-2.38-2.16-2.64-5.62-2.36-8.67-2.34z"/><path fill="#fff" d="M88.68 90.75c-8.97.35-18 .4-26.9 1.74-1.32 0-3.7 1.38-2.32 2.83 3.88 2.01 8.55 1.23 12.77 1.57 8-.04 16.15.33 24-1.48 1.26-.1 2.37-1.49 1.14-2.5-2.1-2.57-5.76-2.05-8.69-2.16z"/><path fill="#fff" d="M88.82 90.83c-9.36.23-18.85 0-28.06 1.88-1.44.13-2.63 2.31-.85 2.95 4.79 1.9 10.13.84 15.16 1.15 7.08-.26 14.32.32 21.27-1.26 1.51-.19 2.12-2.1.86-3.02-2.19-2.26-5.58-1.56-8.38-1.7zm-14.89 11.13c-2.19-.15-5.04.26-5.6 2.82-1.5 5.78-5.07 10.68-8.69 15.34-4.14 5.66-6.04 12.58-7.05 19.43-.14 3.33 3.94 4.04 6.48 4.1 14.04.3 28.11.41 42.15-.08 1.92-.1 4.93-.55 4.72-3.12-.02-8.84-4.24-17.24-10.03-23.74-2.94-3.52-5.4-7.44-6.78-11.83-1.44-2.88-5.3-2.17-7.94-2.68a87.57 87.57 0 0 0-7.26-.24z"/><path fill="#fff" d="M74.42 101.95c-2.33-.09-5.68.03-6.21 2.93-2.67 9.82-11.62 16.45-13.96 26.42-.71 3.23-2.02 6.64-1.38 9.95 2.18 3.1 6.64 2.27 9.9 2.49 13.27.02 26.57.31 39.84-.32 1.59.04 3.55-.69 3.33-2.62.19-9.35-4.54-17.99-10.51-24.88-2.92-3.45-4.85-7.5-6.65-11.6-1.88-2.35-5.43-1.77-8.1-2.22a89.87 89.87 0 0 0-6.26-.15z"/><path fill="#fff" d="M74.87 101.93c-2.2.17-5.59-.48-6.4 2.3-2.46 7.49-7.72 13.46-11.53 20.22-2.4 4.83-4.15 10.19-4.25 15.61-.06 2.79 2.98 3.4 5.14 3.7 14.5.1 29.02.24 43.53-.19 1.7-.12 4.84-.18 4.62-2.64.25-9.53-4.75-18.27-10.68-25.4-2.87-3.4-4.65-7.5-6.53-11.46-2.54-2.33-6.47-1.69-9.63-2.1a92.25 92.25 0 0 0-4.27-.04z"/></svg>