<svg xmlns="http://www.w3.org/2000/svg" preserveAspectRatio="xMidYMid" version="1.0" viewBox="0 0 160 160"><path fill="#fff" d="M65.14 30.3c-2.28 1.1-1.83 4.46-2.54 6.55-.8 3.14-.53 6.92-2.49 9.55-4-2.52-5.84-7.29-8.82-10.86-.57-1.35-3.12-3.8-3.92-1.37.27 5.64 2.91 10.95 5.15 16.06.92 2.18 2.49 4.76 5.27 4.13 12.85-.71 25.56-1.91 38.42-1.84 3.92.14 8.11-1.36 9.79-5.19 2.15-4.03 4.72-8.18 5.26-12.77-1.03-2.34-3.24.63-4.28 1.5-2.72 2.3-4.74 5.7-7.77 7.49-1.9-3.23-1.77-7.36-3.51-10.6-2.27.35-2.14 3.92-3.36 5.63-1.3 2.58-2.39 5.64-4.64 7.53-3.83-3.76-3.64-9.69-5.4-14.45-1.77-1.92-3.53 1.28-4.11 2.75-1.87 3.94-2.41 9-6.02 11.76-1.58-.2-1.35-2.83-2-3.96-1.34-3.91-1.86-8.4-4.35-11.77-.2-.12-.45-.17-.68-.14zm21.57 25.24c-10.85.06-21.8.42-32.55 1.13-1 2.71.05 6.23-.12 9.26.57 6.2.4 13.24 4.47 18.36 2.29 2.21 5.87.25 8.63.47 11.94-1.03 23.97-1.27 35.9-2.42 1.93-2.66 2.43-6.29 3.66-9.35 1.27-4.81 1.9-10.14.5-14.97-1.55-3.5-6.19-1.92-9.13-2.43-3.79-.06-7.57-.07-11.36-.05zm7.35 30.63c-12.16.34-24.45.6-36.43 2.89-2.05-.03-3.18 2.88-.93 3.6 5.17.97 10.6.23 15.85.45 9.67-.23 19.4.11 29.03-.83 2.35-.18 5.07-3.26 2.53-5.11-2.98-1.52-6.8-.76-10.05-1zM67.62 96.53a125 125 0 0 0-.01 15.96c2.65 1.06 6.12.05 9.09.22 6.78-.42 13.62-.33 20.36-1.24 1.64-1.6-.13-4.58.06-6.72-.52-2.77-.38-5.8-1.41-8.39-9.1-.33-18.29-.04-27.42-.14l-.42.2zm14.06 17.7c-5.4.4-11.46-.84-16.34 2.05-4.22 3.75-6.63 9.13-9.06 14.13-.98 1.8-.63 4.36 1.68 4.79 6.17 1.57 12.71.73 19.03 1.12 10.74.01 21.5.59 32.24.26 2.54-.53.56-3.62.43-5.2-1.46-6.17-4.18-12.7-9.74-16.19-5.83-1.73-12.25-.63-18.24-.96zM70.96 137.6c-4.8.3-9.9-.44-14.52 1.1-2.12.92-3.66 4.48-.93 5.69 3.59 1.23 7.65.29 11.4.64 13.38-.1 26.78.32 40.13-.6 1.93.3 4.54-1.91 2.58-3.6-5.06-2.75-11.18-2.2-16.76-2.77-7.3-.35-14.6-.49-21.9-.47z"/><path d="M62.48 20.98c-.87 1.03-2.05 4.54-2.63 7.76-1.61 8.5-1.76 8.5-7.47 2.93-10.1-10.1-12.73-5.71-7.02 11.27 3.22 9.23 4.1 14.2 3.8 20.94-.3 5.27.3 11.42 1.76 15.22 1.17 3.52 1.76 8.35 1.32 10.54-.74 3.66-.15 4.4 4.83 6.74 8.05 3.66 8.2 7.9.73 21.37-6 11.13-10.54 27.82-8.05 30.31 1.9 1.9 61.63 2.78 63.54.88 2.05-2.05 1.9-16.84-.3-22.99-.87-2.78-3.51-7.46-6-10.54-2.34-3.07-4.54-8.05-4.98-11.42-.73-5.27-.44-6.3 4.1-9.95 4.25-3.52 4.69-4.54 3.37-7.47-1.02-2.49-.73-5.56 1.46-12.15 2.79-8.35 2.79-9.08.44-15.67-2.49-6.88-2.49-6.88 1.9-16.54 4.7-10.4 5.57-15.52 2.64-15.81-4.1-.44-6.44.58-10.25 4.1l-3.95 3.8-.88-4.24c-1.6-7.32-2.2-8.2-4.68-7.61-1.32.29-3.37 3.22-4.69 6.58-1.17 3.52-2.63 6.3-3.07 6.3-.44 0-2.2-3.37-3.96-7.32-4.1-9.37-6.88-9.37-9.22-.44-1.6 6.59-1.9 6.88-3.8 4.25-1.18-1.62-2.05-3.66-2.05-4.4 0-.88-1.32-3.07-2.64-4.97-2.2-2.79-2.93-3.08-4.25-1.47zm5.57 16.1c.88 3.52 1.9 7.18 2.2 8.06 1.17 4.39 4.68 1.32 7.02-6.15 1.32-4.54 3.08-7.76 3.95-7.32a3.83 3.83 0 0 1 1.32 2.63c0 4.54 3.22 12.74 4.98 12.74 1.02 0 3.37-3.07 4.98-6.88l2.93-7.03 1.02 4.4c2.05 9.07 2.2 9.07 7.76 2.48 6.73-7.6 8.2-7.9 4.98-.58-5.27 11.71-6.44 12.74-15.08 12.3-4.4-.15-14.35.29-22.26 1.02-8.05.73-15.37 1.03-16.4.73-2.04-.88-8.63-18.15-7.31-19.32.88-.88.58-1.32 6.44 7.46 5.56 8.2 7.17 7.62 8.49-3.07.44-4.25 1.32-7.61 2.05-7.61.73 0 1.9 2.78 2.93 6.15zm38.5 21.09c1.61 4.1.88 11.27-1.46 17.57l-2.34 6.15L84.3 82.9c-10.25.44-20.06 1.17-21.96 1.61-2.78.59-3.66-.3-5.42-4.4-1.17-2.92-2.2-9.07-2.2-13.9v-8.78l8.5-.59c4.53-.3 15.95-.59 25.32-.73 14.5-.3 17.28 0 18.01 2.05zm-2.05 30.45c0 1.17-.88 2.34-2.05 2.78-3.22 1.32-44.65 1.76-45.82.59-1.9-2.05 1.32-2.93 13.76-3.96 23.42-1.9 34.11-1.75 34.11.59zm-8.2 15.08c.44 3.66.74 6.88.59 7.17-.3.15-6.74.59-14.5.88l-14.05.44V96.82h26.94zm3.96 12.44c4.54 3.96 7.02 8.06 8.34 13.77l1.32 6-26.8-.15c-30.74-.14-29.71.44-22.54-12.15 4.98-8.64 5.27-8.78 24.3-9.08 8.64-.14 13.91.44 15.38 1.61zm-1.61 22.99c8.34.73 10.98 1.46 10.98 3.07 0 1.9-4.1 2.2-27.38 2.5-25.77.14-27.52 0-27.52-2.5 0-1.6 1.31-2.92 3.36-3.36 4.83-.88 27.97-.74 40.56.29z"/></svg>