<?xml version="1.0" encoding="UTF-8" standalone="no"?>
<svg
   version="1.0"
   width="160pt"
   height="160pt"
   viewBox="0 0 160 160"
   preserveAspectRatio="xMidYMid"
   id="svg144"
   xmlns="http://www.w3.org/2000/svg"
   xmlns:svg="http://www.w3.org/2000/svg">
  <defs
     id="defs144" />
  <metadata
     id="metadata1">
Created by potrace 1.16, written by Peter Selinger 2001-2019
</metadata>
  <rect
     style="display:inline;fill:none;stroke-width:1.95838"
     id="rect1"
     width="160"
     height="160"
     x="0"
     y="0" />
  <path
     style="fill:#ffffff;stroke-width:0.435142"
     d="m 103.03872,26.179099 c -1.86341,-0.30954 -4.090965,0.592693 -3.904388,2.806329 -0.225915,2.828277 -0.181567,5.670657 -0.285562,8.504829 -5.200403,-0.275957 -10.590938,0.545864 -15.69828,-0.503983 -1.328332,-2.614178 -0.157163,-6.174905 -2.084775,-8.476783 -2.525393,-0.849418 -5.806838,-1.368328 -8.167425,0.125784 -1.13814,2.290991 0.606039,5.476044 -1.179645,7.464566 -4.886084,1.706914 -10.321189,1.44496 -15.478137,1.60339 -1.782253,-0.431076 -0.410225,-3.979699 -0.866908,-5.790788 -0.197841,-1.275999 0.387502,-3.847026 -1.682778,-3.672366 -2.0542,0.05933 -4.792398,-0.40336 -6.37076,1.134601 -0.841551,4.150592 -0.454271,8.645514 0.822691,12.676928 2.532189,3.304003 7.463775,2.218081 11.068091,2.208859 16.492791,-0.950022 33.120981,-1.91576 49.466876,-3.773502 0.3207,-4.222554 0.45768,-8.621081 -0.38415,-12.790815 -0.78255,-2.083187 -3.58976,-1.352516 -5.25485,-1.517049 z"
     id="path29" />
  <path
     style="fill:#ffffff;stroke-width:0.435142"
     d="m 101.34829,44.793345 c -12.538675,0.660319 -24.989935,2.478576 -37.548875,2.93758 -2.973559,0.458837 -6.263356,-0.0643 -9.080229,1.007599 -1.398706,1.385395 1.0145,3.02836 1.789014,4.037818 1.85004,2.257039 4.637059,3.188686 7.492766,2.949076 10.953048,0.0981 21.974091,-0.304179 32.817419,-1.906263 4.129725,-0.51665 7.721145,-3.941246 8.543925,-7.955802 -0.24542,-1.716786 -2.97028,-0.816051 -4.01402,-1.070008 z"
     id="path30" />
  <path
     style="fill:#ffffff;stroke-width:0.435142"
     d="m 89.415015,58.853041 c -9.367688,0.233596 -18.763145,0.469555 -28.078601,1.536597 -0.305085,14.481168 -0.04322,29.176269 -0.130883,43.739482 12.397131,-0.52486 25.113446,-0.40918 37.630489,-0.4156 0.04575,-12.435303 -0.303323,-25.139605 -1.062263,-37.655506 -0.252195,-2.43165 -0.231667,-5.070932 -1.40241,-7.245767 -2.318782,0.0136 -4.637557,0.02719 -6.956332,0.04079 z"
     id="path32" />
  <path
     style="fill:#ffffff;stroke-width:0.435142"
     d="m 59.280535,105.65042 c -5.668766,6.99086 -11.906496,14.36528 -13.591408,23.46796 -0.548883,1.70182 0.507907,3.53571 2.404333,3.47519 12.531354,0.91957 25.129722,0.0441 37.680215,-0.12655 9.38949,-0.46186 18.887455,-0.30334 28.197995,-1.53414 0.44304,-2.97409 -1.07074,-6.05327 -1.76397,-8.94465 -1.73059,-5.68287 -5.56431,-10.55936 -9.55399,-14.79186 -14.429763,-0.90799 -28.951206,-0.9112 -43.373175,-1.54595 z"
     id="path33" />
  <path
     style="fill:#ffffff;stroke-width:0.435142"
     d="m 59.187897,105.55013 c -5.482085,7.07521 -11.949866,14.29538 -13.517468,23.40847 -0.550487,1.8121 0.569733,3.76593 2.57686,3.72166 12.008266,1.22609 24.107788,0.0235 36.146371,-0.0724 9.660442,-0.45889 19.41223,-0.34102 29.00944,-1.45236 1.67589,-1.3519 0.0844,-3.95902 -0.036,-5.68164 -1.56088,-7.17893 -5.86427,-13.42208 -10.88674,-18.62176 -14.427855,-0.37928 -28.888243,-0.91524 -43.292448,-1.30203 z"
     id="path34" />
  <path
     style="fill:#ffffff;stroke-width:0.435142"
     d="m 58.842842,105.69207 c -5.267007,7.11265 -11.735949,14.2303 -13.173263,23.27842 -0.529136,1.80438 0.55471,3.77952 2.560713,3.77521 10.539897,0.89462 21.163832,0.16728 31.731438,0.10928 11.142375,-0.42786 22.3654,-0.29345 33.43967,-1.60509 1.6871,-1.36864 0.18578,-4.028 0.0341,-5.76865 -1.57532,-7.25298 -5.84612,-13.74964 -11.20083,-18.76506 -14.456493,-0.35158 -28.951202,-1.14451 -43.39188,-1.02411 z"
     id="path35" />
  <path
     style="fill:#ffffff;stroke-width:0.435142"
     d="m 58.817346,105.59008 c -5.133947,6.95952 -11.429492,13.90287 -13.180063,22.65716 -0.605914,2.07196 0.453287,4.67316 2.864123,4.70498 14.998125,0.5909 30.033666,-0.17805 45.038114,-0.48529 6.78466,-0.34801 13.74073,-0.21219 20.39986,-1.25953 0.48967,-4.71081 -1.335,-9.3839 -3.20408,-13.61775 -2.355,-4.04849 -5.10887,-7.97347 -8.6901,-11.02135 -14.4077,-0.34807 -28.814387,-0.979 -43.227854,-0.97822 z"
     id="path36" />
  <path
     style="fill:#ffffff;stroke-width:0.435142"
     d="m 58.717909,105.51104 c -5.11534,7.22332 -11.668597,14.27082 -13.196211,23.29883 -0.560199,1.98174 0.622315,4.11657 2.806331,4.13725 17.78229,0.58125 35.593041,-0.15724 53.372191,-0.703 3.9555,-0.38349 8.16146,0.0622 11.95785,-1.14891 1.22797,-3.1858 -0.46215,-6.79181 -1.39075,-9.88741 -2.05348,-5.59913 -5.60294,-10.55534 -9.93061,-14.60805 -14.52593,-0.63103 -29.105233,-0.93572 -43.618801,-1.08871 z"
     id="path37" />
  <path
     style="fill:#ffffff;stroke-width:0.435142"
     d="m 61.480894,105.51784 c -1.611915,-0.0579 -3.480645,-0.31332 -4.109323,1.60173 -4.977078,7.00413 -11.301035,14.11132 -12.023249,23.06627 0.03227,2.99776 3.778611,3.01611 5.921045,2.9136 19.829797,0.14041 39.685158,-0.11978 59.482083,-1.30987 1.47681,-0.0379 3.6962,-0.33442 3.35705,-2.36014 -0.20107,-7.4691 -4.36354,-14.27157 -8.87321,-19.9802 -1.43611,-1.72414 -2.78648,-3.77597 -5.363588,-3.07245 -12.793095,-0.41846 -25.589423,-0.85316 -38.390808,-0.85894 z"
     id="path38" />
  <path
     style="fill:#ffffff;stroke-width:0.435142"
     d="m 87.09822,58.748505 c -8.588513,0.438764 -17.255735,0.391629 -25.774555,1.606288 -0.275382,14.51121 -0.03904,29.202534 -0.118134,43.782827 11.445723,-0.0849 23.151221,-0.58149 34.704326,-0.42383 3.924953,1.24884 3.212805,-2.24034 3.05838,-4.938805 -0.435907,-12.72234 -0.08346,-25.538261 -1.752952,-38.177974 0.21546,-3.389197 -3.398048,-1.732198 -5.47272,-1.991261 -1.548113,0.04759 -3.096233,0.09517 -4.644345,0.142755 z"
     id="path39" />
  <path
     style="fill:#ffffff;stroke-width:0.435142"
     d="m 92.675182,58.507137 c -10.328505,0.320014 -20.727196,0.445911 -30.979266,1.73972 -0.686156,5.933134 -0.318471,12.172188 -0.532956,18.212233 0.03121,8.56686 -0.319089,17.299327 -0.02372,25.76097 12.458728,-0.26422 25.037758,-0.17837 37.42397,-0.64592 0.850853,-5.383713 0.07516,-10.982545 0.202193,-16.43929 -0.404753,-9.067605 0.0949,-18.293365 -1.683548,-27.230498 -0.347287,-2.207268 -2.937915,-1.11558 -4.40667,-1.397215 z"
     id="path40" />
  <path
     style="fill:#ffffff;stroke-width:0.435142"
     d="m 92.473762,58.371154 c -10.354327,0.327906 -20.733305,0.710309 -31.042161,1.703176 -0.587919,14.600538 -0.500996,29.356487 -0.801444,44.01569 12.153824,0.20554 24.578888,-0.0251 36.833296,-0.3408 2.118487,0.38452 1.091767,-2.57649 1.444807,-3.71061 0.03315,-12.857005 0.01665,-25.779197 -1.38192,-38.568764 -0.257145,-1.367539 -0.595605,-3.452243 -2.513115,-3.068095 -0.845685,-0.04555 -1.692967,-0.03853 -2.539462,-0.0306 z"
     id="path41" />
  <path
     style="fill:#ffffff;stroke-width:0.435142"
     d="m 101.15197,44.696458 c -13.74622,0.854454 -27.437355,2.50217 -41.198682,3.204228 -1.726448,0.588235 -4.612551,-0.554276 -5.643748,1.36392 -0.009,2.365834 2.560882,3.948899 4.212045,5.308399 3.991399,2.097611 8.780785,0.945802 13.105999,1.233836 9.206426,-0.356966 18.580106,-0.375534 27.579836,-2.515466 2.88236,-1.475417 5.96061,-4.213472 6.15489,-7.630294 -0.60573,-1.441316 -3.03057,-0.767786 -4.21034,-0.964623 z"
     id="path42" />
  <path
     style="fill:#ffffff;stroke-width:0.435142"
     d="m 101.42818,44.704106 c -14.500555,0.750091 -28.944691,2.379851 -43.435755,3.312247 -1.286198,0.06952 -4.184565,-0.01151 -3.665037,2.068394 1.858584,3.657011 5.830995,6.277808 10.037177,5.693399 11.50854,-0.232268 23.19816,0.114507 34.518202,-2.250503 3.060833,-1.443579 6.098053,-4.313972 6.518643,-7.801971 -0.23855,-1.601091 -2.98568,-0.761277 -3.97323,-1.021566 z"
     id="path43" />
  <path
     style="fill:#ffffff;stroke-width:0.435142"
     d="m 100.52815,44.699857 c -14.310745,0.748119 -28.578626,2.217712 -42.868352,3.275468 -1.274881,0.09838 -4.577936,0.426773 -3.33666,2.451927 1.984708,2.682122 4.634909,5.681887 8.339101,5.265056 11.393551,0.314137 22.901503,0.162011 34.172428,-1.656846 3.948723,-0.736957 7.741563,-3.859975 8.593933,-7.835553 0.0489,-2.272888 -3.63205,-1.219078 -4.90045,-1.500052 z"
     id="path44" />
  <path
     style="fill:#ffffff;stroke-width:0.435142"
     d="m 103.51805,25.916483 c -2.15508,-0.17377 -4.86305,0.891716 -4.585993,3.498139 -0.216855,2.580586 -0.271905,5.171765 -0.415597,7.756927 -5.05929,-0.0081 -10.480905,0.934924 -15.337072,-0.591522 -1.38018,-2.611192 0.06712,-6.63395 -2.701801,-8.442786 -2.284522,-0.585729 -5.057197,-0.861773 -7.223194,0.200573 -1.789654,2.206318 0.553585,6.265685 -2.366938,7.831717 -4.480643,1.501281 -9.37819,1.256424 -14.054597,1.44821 -2.282924,-0.564231 -0.964045,-3.720088 -1.345418,-5.359352 -0.190083,-1.406488 0.455072,-4.368891 -1.856961,-4.081204 -2.103679,0.183858 -5.028467,-0.384579 -6.51864,1.420163 -0.506628,3.814316 -0.19452,7.859495 0.644215,11.624768 1.463845,3.647326 6.29606,3.35202 9.528094,3.234673 16.944184,-0.969288 33.915357,-1.921465 50.783892,-3.801291 2.07308,-0.920356 0.27747,-4.883031 0.77933,-7.018505 -0.37146,-2.396456 0.86682,-6.522924 -2.35981,-7.366956 -0.96111,-0.282644 -1.97142,-0.363639 -2.96951,-0.353554 z"
     id="path45" />
  <path
     style="fill:#ffffff;stroke-width:0.435142"
     d="m 103.07186,25.966627 c -2.14088,-0.3275 -4.306415,1.05504 -4.204393,3.378304 -0.296145,2.558751 -0.296092,5.140978 -0.450442,7.710184 -4.838108,-0.297956 -9.852135,0.590923 -14.596823,-0.512483 -2.487457,-2.015007 -0.140257,-6.683639 -3.309465,-8.356098 -2.330152,-0.649917 -5.222527,-0.945218 -7.397426,0.274514 -1.682163,2.157724 0.520204,6.115286 -2.482522,7.531707 -4.550847,1.537976 -9.594229,1.331534 -14.308714,1.36492 -0.995718,-2.820658 -0.0801,-6.241749 -1.44481,-8.95187 -2.402067,-0.646009 -5.419328,-0.585228 -7.539355,0.849039 -1.191882,2.331239 -0.113742,5.265891 -0.292362,7.790922 0.04339,2.818358 0.749226,6.805328 4.210345,7.147558 8.422822,0.844239 16.903297,-0.502929 25.333672,-0.800178 10.571985,-0.86578 21.24984,-1.189458 31.732045,-2.749804 1.26861,-1.868847 0.25659,-4.597647 0.61287,-6.730262 -0.12173,-2.635237 0.76598,-6.719988 -2.55996,-7.758628 -1.07786,-0.262655 -2.20371,-0.177943 -3.30266,-0.187825 z"
     id="path46" />
  <path
     style="fill:#ffffff;stroke-width:0.435142"
     d="m 102.98092,25.970876 c -2.06177,-0.320923 -4.198158,0.962836 -4.112605,3.222776 -0.422828,2.439552 -0.05662,5.233781 -0.81759,7.492611 -4.56507,0.177175 -9.3477,0.800105 -13.856573,-0.217571 -2.516197,-1.618115 -1.017427,-5.36309 -2.65845,-7.630294 -1.253475,-1.660896 -3.851865,-1.228485 -5.692552,-1.339423 -2.442554,-0.07053 -4.082254,2.138195 -3.748743,4.463284 0.342693,1.875718 -0.502485,3.955224 -2.59142,4.211522 -4.173093,0.981331 -8.63997,1.454836 -12.882601,0.860937 -1.559529,-1.91513 -0.415439,-4.869723 -1.13885,-7.150958 -0.05698,-2.502698 -3.230817,-1.848048 -4.881757,-1.804312 -2.195228,-0.149768 -4.191402,1.522722 -3.894208,3.815198 0.25649,3.580488 -0.262089,7.708217 1.83493,10.824972 3.159365,2.847979 7.907744,1.505647 11.751531,1.703487 15.776778,-0.825537 31.574365,-1.791388 47.272338,-3.546894 2.34584,-0.105619 1.14049,-3.167891 1.45671,-4.630189 -0.33486,-3.061582 0.40138,-6.528108 -1.04792,-9.33347 -1.18079,-1.402905 -3.41478,-0.766456 -4.99224,-0.941676 z"
     id="path47" />
  <path
     d="m 93.19877,20.612565 c -0.499467,0.665956 -0.499467,3.662758 0,6.65956 0.832445,4.162224 0.499467,5.494136 -1.498401,5.494136 -1.498401,0 -2.830313,-2.330846 -3.496269,-5.993603 L 87.038677,20.945543 76.71636,21.777988 c -5.660626,0.499467 -10.488806,0.832445 -10.655295,0.998934 -0.332978,0 -0.499467,2.164357 -0.499467,4.99467 0,2.663823 -0.665956,4.994669 -1.66489,4.994669 -0.832445,0 -1.66489,-2.164357 -1.66489,-4.82818 0,-2.830313 -0.499467,-5.327648 -1.165423,-5.660626 -0.832445,-0.499467 -5.827115,-0.332978 -11.321251,0.332978 l -9.98934,0.998934 0.665956,10.655295 c 0.499467,9.98934 0.998934,11.154762 7.824983,18.313789 l 7.325515,7.658494 V 81.714024 103.1911 l -6.49307,6.99254 c -7.159027,7.82498 -10.988274,18.31379 -9.323384,25.8058 0.998934,4.4952 1.331912,4.66169 6.326582,3.16329 2.996802,-0.83245 19.978679,-1.49841 37.95949,-1.33192 17.980814,0.16649 33.464284,-0.16649 34.629714,-0.83244 4.82818,-2.9968 0.16648,-20.64464 -7.82499,-29.13557 l -5.66062,-5.99361 -0.99894,-21.1441 -0.83244,-21.144101 6.32658,-8.657428 c 5.82711,-8.15796 6.16009,-9.323383 5.32765,-17.814322 -0.49947,-4.994669 -1.66489,-9.82285 -2.49734,-10.655295 -1.83138,-1.831379 -17.814319,-3.32978 -19.31272,-1.831379 z m 15.64997,12.819652 v 7.159027 l -11.154767,0.998934 c -6.326582,0.665956 -19.81219,1.66489 -29.968018,2.164357 -20.644635,1.331911 -19.978679,1.4984 -20.811124,-9.323384 -0.499467,-5.327648 0,-5.827115 4.162225,-6.326581 3.995735,-0.499467 4.495202,0 4.495202,4.661691 v 5.161159 l 8.823917,-0.499467 c 8.324449,-0.499467 8.657427,-0.665956 8.15796,-5.161159 -0.499467,-3.995736 0,-4.495202 4.495203,-4.495202 4.661692,0 5.161159,0.499466 5.161159,4.994669 0,4.828181 0.166489,4.99467 8.324449,4.99467 h 8.32445 v -5.827115 c 0,-5.327647 0.332978,-5.827114 4.994674,-5.827114 4.82818,0 4.99467,0.332978 4.99467,7.325515 z m -3.32978,12.486674 c 0,0.832445 -1.33192,2.996802 -2.83032,4.99467 -2.66382,2.996802 -5.494134,3.496269 -22.6425,4.495203 -17.481344,0.998934 -19.81219,0.832445 -22.808992,-1.831379 -1.831379,-1.66489 -3.32978,-3.662758 -3.32978,-4.495203 0,-0.665956 4.99467,-1.331912 11.321252,-1.498401 6.160092,-0.166489 15.649965,-0.832445 21.144102,-1.498401 14.817518,-1.831378 19.146238,-1.831378 19.146238,-0.166489 z m -6.992542,35.129177 0.332978,22.476012 -18.813256,0.16649 -18.979745,0.33298 0.166489,-21.976548 0.166489,-21.810057 15.816454,-0.998934 c 8.657428,-0.499467 16.981877,-0.832445 18.313789,-0.832445 1.997868,0.166489 2.497335,4.162224 2.996802,22.642502 z m 8.657432,31.466422 c 2.66382,2.9968 5.16115,8.15796 5.82711,11.65423 0.66596,3.32978 1.33191,6.32658 1.33191,6.82605 0.16649,0.49946 -15.150496,1.16542 -34.29673,1.66489 -32.298864,0.83244 -34.463221,0.66595 -34.463221,-2.16436 0,-4.66169 3.995736,-13.15263 9.156894,-19.14624 l 4.661692,-5.66062 21.643569,0.66595 21.477076,0.49947 z"
     id="path31"
     style="stroke-width:0.166489" />
</svg>
