<svg xmlns="http://www.w3.org/2000/svg" viewBox="0 0 512 512" ><path d="M260.22 58.28c-33.15 0-60.763 22.89-68 53.782h136c-7.24-30.89-34.85-53.78-68-53.78zM146.06 130.75v194.188H381.22V130.75H146.06zm117.063 24.125c32.075 0 58.28 26.207 58.28 58.28 0 32.075-26.206 58.282-58.28 58.282s-58.28-26.207-58.28-58.28c0-32.076 26.206-58.282 58.28-58.282zm-135.75 40.22c-37.902 8.577-67.593 37.596-77.094 75.124-3.368.833-6.668 2.127-9.81 3.936-18.16 10.452-24.47 33.907-13.97 52.03l16.156-9.342c-5.428-9.37-2.296-21.078 7.125-26.5l.157-.063c9.396-5.302 21.1-2.135 26.5 7.19 5.43 9.374 2.3 21.043-7.124 26.467l9.312 16.188c18.16-10.453 24.466-33.905 13.97-52.03-1.42-2.454-3.09-4.682-4.94-6.69 5.013-20.46 20.205-36.686 39.72-44v-42.31zm272.53 3.25v44.624c13.927 8.56 24.357 22.155 28.345 38.436-1.848 2.007-3.517 4.235-4.938 6.688-10.497 18.126-4.19 41.578 13.97 52.03l9.312-16.187c-9.425-5.424-12.555-17.093-7.125-26.468 5.427-9.375 17.234-12.55 26.655-7.126 9.42 5.422 12.553 17.13 7.125 26.5l16.156 9.344c10.5-18.125 4.19-41.58-13.97-52.032-3.142-1.81-6.442-3.103-9.81-3.937-8.527-33.68-33.33-60.522-65.72-71.876zm-224.28 145.28v33.125c5.605-1.6 11.743-2.5 18.438-2.5 8.152 0 15.475 1.222 22 3.406v-34.03h-40.438zm141.688 0v33.47c6.063-1.826 12.78-2.845 20.187-2.845 7.424 0 14.164 1.085 20.25 3.03v-33.655h-40.438zm-123.25 49.313c-21.565 0-31.638 9.323-38.75 23.375-5.676 11.21-8.255 25.565-9.438 38.718h96.438c-1.052-13.284-3.285-27.65-8.75-38.81-6.833-13.953-16.734-23.283-39.5-23.283zm143.437 0c-22.766 0-32.668 9.33-39.5 23.28-5.466 11.162-7.698 25.528-8.75 38.813h96.438c-1.183-13.152-3.763-27.506-9.438-38.717-7.113-14.052-17.186-23.375-38.75-23.375z" fill="#ffffff"></path></svg>