<svg xmlns="http://www.w3.org/2000/svg" viewBox="3890 1350 1330 1330"><path fill="#565252" d="M4180 2500v-100h186l38-162c21-90 40-168 43-174 2-6-30-54-72-107-41-54-75-102-75-108s21-38 47-71l47-61 26 31 27 32 32-45 32-45-20-29c-12-16-21-32-21-36 0-10 92-125 99-125 3 1 37 42 76 93 38 50 99 128 133 174l64 82-78 101-78 101 32 137c18 75 37 154 43 175l10 37h179v200h-770z"/><path fill="#444242" d="M4950 2500v-100h-179l-10-37c-6-21-25-100-43-175l-32-137 77-100c42-55 77-101 77-103s-54-1-119 2l-119 5-72 93c-39 50-74 92-78 92s-8 11-8 25c-1 14 2 25 6 25 5 0 38 18 74 41l64 40 7 97c9 134 8 132 61 132h44v200h250zm-422-699c18-22 32-43 32-48 0-4-10-21-23-37l-23-29-36 49-36 48 21 28c11 15 24 28 27 28 4 0 21-18 38-39z"/><path fill="#565252" d="M4700 2500v-100h-44c-53 0-52 2-61-132l-7-97-64-40c-36-23-69-41-73-41-7 0-20 46-63 223l-21 87h-187v200h520zm-168-555 73-95h112c62 0 113-3 112-7 0-9-31-50-157-208-50-64-92-121-92-126 0-20-18-5-63 56l-48 64 45 58c25 32 46 62 46 66 0 11-61 87-70 87-4 0-26-27-50-60-24-32-46-57-51-55-4 3-26 33-49 66l-41 61 47 61c27 34 60 77 74 94 14 18 28 33 32 33s40-43 80-95z"/><path fill="none" stroke="#000" stroke-width="24" d="M4180 2500v-100h186l38-162c21-90 40-168 43-174 2-6-30-54-72-107-41-54-75-102-75-108s21-38 47-71l47-61 26 31 27 32 32-45 32-45-20-29c-12-16-21-32-21-36 0-10 92-125 99-125 3 1 37 42 76 93 38 50 99 128 133 174l64 82-78 101-78 101 32 137c18 75 37 154 43 175l10 37h179v200h-770z"/></svg>