<svg xmlns="http://www.w3.org/2000/svg" height="133" viewBox="535 1350 1333 1333" width="133"><path d="M820 2500v-99l87-3 87-3 56-182 57-182-30-28c-62-58-82-147-51-221 52-126 211-166 311-79 91 80 96 207 12 290l-39 39 58 182 58 181 82 3 82 3v199H820z" fill="#565252"/><path d="M1590 2500v-99l-82-3-82-3-58-181-58-182 39-39c38-38 61-91 61-144 0-30-19-89-29-89-3 0-65 59-136 130-84 84-135 128-145 125-17-6-22-10 77 68l60 48 12 117c16 154 15 152 57 152h34v200h250z" fill="#444242"/><path d="M1340 2500v-100h-34c-42 0-41 2-57-152l-12-117-64-51-63-51-10 26c-6 15-10 31-10 38 0 11-24 87-75 237l-23 65-86 3-86 3v199h520zm-91-614l133-134-41-40c-55-53-117-68-190-47-113 34-170 176-115 287 13 25 59 68 73 68 3 0 66-60 140-134z" fill="#565252"/><path d="M820 2500v-99l87-3 87-3 56-182 57-182-30-28c-62-58-82-147-51-221 52-126 211-166 311-79 91 80 96 207 12 290l-39 39 58 182 58 181 82 3 82 3v199H820z" fill="none" stroke="#000" stroke-width="24"/></svg>