<svg height="133" viewBox="1670 1350 1333 1333" width="133" xmlns="http://www.w3.org/2000/svg"><path d="m2710 2500v-99l-62-3-63-3-22-210c-30-287-33-256 37-299l60-38-2-161-3-162-57-3-58-3v101h-109l-3-47-3-48h-190l-3 48-3 47h-109v-101l-57 3-58 3-3 163-2 162 46 28c25 15 52 32 60 37 12 9 11 39-6 215-11 113-23 220-26 238l-5 32h-129v200h770z" fill="#f8f8f8"/><g fill="#d3d3d3"><path d="m1940 2500v-100h129l5-32c3-18 15-125 26-238 17-176 18-206 6-215-8-5-35-22-60-37l-46-28 2-162 3-163 58-3 57-3v51c0 49 1 50 30 50h30v230h238l237 1-54 34c-30 19-57 38-60 42-3 5-12 9-18 10-7 2-65 35-128 74l-115 71-1 51c-1 29-4 99-8 157l-6 105-37 3-38 3v199h-250z"/><path d="m2232 1573 3-48 50-3 50-3-3 51-4 50h-99z"/></g><path d="m2190 2501v-100l38-3 37-3 6-105c4-58 7-128 8-157l1-51 122-76c68-41 126-72 130-68 3 4 9 39 13 77 4 39 8 86 10 105 7 68 14 146 19 203 3 32 8 63 11 68 4 5 33 9 66 9h59v200h-520zm-10-766v-115h149l3-47 3-48h90l3 48 3 47h109v-101l58 3 57 3 3 163 2 162h-480z" fill="#f8f8f8"/><path d="m2710 2500v-99l-62-3-63-3-22-210c-30-287-33-256 37-299l60-38-2-161-3-162-57-3-58-3v101h-109l-3-47-3-48h-190l-3 48-3 47h-109v-101l-57 3-58 3-3 163-2 162 46 28c25 15 52 32 60 37 12 9 11 39-6 215-11 113-23 220-26 238l-5 32h-129v200h770z" fill="none" stroke="#000" stroke-width="24"/></svg>