<?xml version="1.0" encoding="UTF-8" standalone="no"?>
<svg
   xmlns:dc="http://purl.org/dc/elements/1.1/"
   xmlns:cc="http://creativecommons.org/ns#"
   xmlns:rdf="http://www.w3.org/1999/02/22-rdf-syntax-ns#"
   xmlns:svg="http://www.w3.org/2000/svg"
   xmlns="http://www.w3.org/2000/svg"
   xmlns:xlink="http://www.w3.org/1999/xlink"
   id="svg261"
   version="1.1"
   width="1000"
   height="600">
  <metadata
     id="metadata267">
    <rdf:RDF>
      <cc:Work
         rdf:about="">
        <dc:format>image/svg+xml</dc:format>
        <dc:type
           rdf:resource="http://purl.org/dc/dcmitype/StillImage" />
        <dc:title></dc:title>
      </cc:Work>
    </rdf:RDF>
  </metadata>
  <defs
     id="defs265" />
  <g
     id="g259"
     transform="scale(1.6666667)">
    <path
       id="path2"
       stroke-width=".632456"
       fill-rule="evenodd"
       fill="#d90f19"
       d="m0 0h600v360h-600z" />
    <path
       id="path4"
       stroke-width=".61101"
       fill-rule="evenodd"
       fill="#171696"
       d="m0 36h600v288h-600z" />
    <g
       id="g14"
       transform="matrix(.5 0 0 .5 92.785141 29.188568)">
      <circle
         id="circle6"
         stroke-width=".890906"
         r="210"
         fill="#fff"
         cy="301.62286"
         cx="414.42972" />
      <path
         id="path8"
         transform="matrix(.9333432 0 0 .9333432 -4.86471 22.640354)"
         stroke-width=".6108"
         stroke="#000"
         fill="#ad7d5a"
         d="m332.1288 384.9684c-.366 1.5864-.97439 3.7848-1.22161 6.59519 0 .60962-.60839 3.9072 1.22161 4.0272 1.344.12236 1.71-3.41998 1.71-3.41998s-1.22401 3.9072.3648 4.39679c2.1984.4836 2.44079-4.27439 2.44079-4.27439-.24479 1.34398-1.71 4.76399.3672 5.12399 2.19602.36959 2.80801-4.6392 2.80801-4.6392s-1.8312 5.00879.3648 5.12999c2.076.12 2.076-4.88399 2.076-4.88399s-1.10041 5.9844 1.83 5.49601c1.584-.2448 1.9536-2.322 2.3196-3.54241.48719-1.8288 1.5864-4.1484.24479-7.9344-.97439-2.80799-.60839-3.54001-.60839-3.54001s-3.42001 2.56442-6.1044 4.272c-1.22401.73201-7.8168-2.80799-7.8168-2.80799zm35.65201-5.25599c-.60962-.36842-.48722 2.1984-.73202 3.41519-.12235 1.22401.246 3.9084 4.3968 3.666 4.026-.3684 8.058-1.22161 10.62002-.61199 2.56559.73199 6.34799.85439 8.42639.85439 2.076 0 3.41999-.2424 4.392-.612.85679-.36239 2.68799.492 3.54.492.85679 0 2.1984-1.34401 2.076-2.1996-.12235-1.5888-1.584-1.5888-3.6636-1.7088-1.9536-.2436-4.63799-.612-5.9796-1.09919-1.34401-.48962-3.7848-1.8324-6.83759-2.44202 0 0-5.85961.24602-7.07761.24602-1.22401 0-8.4264.3636-9.16079 0z" />
      <path
         id="path10"
         transform="matrix(.9333432 0 0 .9333432 -4.86471 22.640354)"
         stroke-width=".611"
         stroke="#060"
         fill="none"
         d="m348.12499 388.38801-.245-5.61601 2.32001 1.956.61-4.27499c.97599-.24401 2.56499 1.711 2.56499 1.711l-.246-4.27201 3.54 3.906s-.244-3.29799.974-5.25c0 0 2.68501 2.32001 2.68501 5.00601 0 2.324 2.31999-3.297 2.31999-3.297.612 1.95599 1.95401 6.228 1.95401 6.228l1.58399-2.32201 1.34401 4.881 2.92799-4.272 2.32 5.007 5.25-.36899.61301 2.932 2.318-2.564 3.053 1.953s2.563-.732 3.90699-.732c1.34401 0 2.93001 1.708 2.93001 1.708s.97499-1.70401 1.954-2.316c.97501-.61201 2.31999.97399 2.68199 1.951l1.95601-3.54001s2.565 2.566 2.92799 3.54001c0 0 .36701-2.928.978-3.907.612-.975 1.58401.368 2.32 1.589l1.586-5.25s1.709.362 2.92801 2.318c1.34399 1.951 1.34399-2.93301 1.34399-2.93301s2.928 3.91 3.66501 6.59401m73.499-.97701s.974-2.682 2.32-4.02699c0 0 2.56299 3.05499 2.56299 4.029 0 0 .73201-.36601 2.076-1.34l1.95301 1.95 2.321-1.58401 2.198 1.95301 4.03-1.709 1.584 1.708 6.224-.73001 2.324.974 2.196-2.80399 2.076 2.19399 3.295-3.293s1.586 1.33801 1.953 2.318c0 0 2.686-1.34399 3.297-2.318 0 0 2.562-.97699 2.92801.60601 0 0 1.58399-1.22201 1.46399-2.56301-.12401-1.342 1.83-.365 2.44001 1.346 0 0 .73299-2.688 2.68899-2.934 0 0 1.34 1.589.972 4.52 0 0 2.93-2.318 4.27401-2.564 0 0 .61199 3.294-.365 6.228 0 0 3.05299-5.008 3.66299-3.29799.24401.975.976 4.275.24401 6.59199l2.686-1.709.97599 3.3 2.92799-.61199m-137.177 9.943s2.19801-3.66001 3.54001-4.63901c0 0 2.92799 2.322 3.90599 5.251 0 0 .368-1.95199 1.34401-3.65999 0 0 3.662 1.70399 4.27201 4.02799 0 0 1.34399-2.321 2.31999-2.92799.976-.73701 1.954 2.55999 1.954 4.51499 0 0 2.32-2.444 3.66401-2.565 0 0 2.56298 1.22 3.295 5.496 0 0 2.44399-2.32 3.29599-1.956 0 0 2.93 1.956 2.196 4.64-.364 1.46401 2.932-1.70599 6.96001-2.684l3.53999 2.684s3.29601-4.394 4.272-5.862c0 0 2.688.97601 2.688 2.566 0 0 1.222-4.64399 2.196-5.128.976-.61 2.31901 1.464 2.31901 2.80801 0 0 .36699-3.54001 2.32199-4.274 0 0 1.953 1.34099 1.953 2.68799 0 0 2.076-4.029 3.663-5.00999" />
      <path
         id="path12"
         stroke-width=".933343"
         fill="#5ac800"
         d="m320.05539 385.13966-.22867-5.24166 2.16536 1.82562.56934-3.99004c.91094-.23054 2.39402 1.59695 2.39402 1.59695l-.2296-3.99191 3.30403 3.64844s-.22773-3.07817.90908-4.90286c0 0 2.50603 2.16723 2.50603 4.67325 0 2.17003 2.16535-3.07816 2.16535-3.07816.57121 1.82562 1.82376 5.81286 1.82376 5.81286l1.47841-2.16536 1.25442 4.55752 2.73657-3.98911 2.16161 4.67512 4.90005-.34441.57121 2.73283 2.16349-2.39122 2.84949 1.82282s2.39403-.68321 3.64751-.68321c1.25442 0 2.7347 1.59788 2.7347 1.59788s.91-1.59788 1.82281-2.17282c.90908-.56561 2.16724.91467 2.50416 1.82562l1.82563-3.30404s2.39215 2.39496 2.73282 3.30404c0 0 .34067-2.73283.91095-3.64657.57121-.91095 1.47842.34347 2.16535 1.48308l1.47748-4.90005s1.5979.3388 2.73471 2.16535c1.2516 1.82189 1.2516-2.73283 1.2516-2.73283s2.73283 3.64564 3.41605 6.15074c0 0-18.8666 6.4774-32.17235 4.70685-15.6615-2.08509-28.5603-5.04752-28.5603-5.04752m129.3427-.56841s.91002-2.50883 2.16722-3.76324c0 0 2.39123 2.8523 2.39123 3.76324 0 0 .68134-.3416 1.93762-1.25441l1.82188 1.82188 2.16724-1.47841 2.05241 1.82002 3.75764-1.59602 1.48028 1.59602 5.811-.68041 2.16535.91001 2.05149-2.62083 1.93762 2.04962 3.07537-3.07723s1.48028 1.25255 1.82282 2.16722c0 0 2.50696-1.25068 3.07723-2.16722 0 0 2.39309-.91001 2.73284.57121 0 0 1.4812-1.14242 1.3692-2.39216-.11386-1.25255 1.70802-.34347 2.27829 1.25068 0 0 .68321-2.50416 2.50416-2.73283 0 0 1.25255 1.47655.91095 4.21871 0 0 2.73282-2.17096 3.98725-2.39683 0 0 .57119 3.0763-.34067 5.81473 0 0 2.84855-4.67511 3.41976-3.07816.22867.91001.91187 3.98724.22867 6.15073l2.50509-1.59415.90908 3.07816 2.73282-.5712s-16.17576 2.47802-31.41633 1.02481c-15.24149-1.45322-29.54218-6.83581-29.54031-6.83581m-11.26544 11.31399c.74013-.45734-5.09047 11.99346-19.22967 12.65613-19.67116.92121-36.48719-8.89289-36.48719-8.89289s2.05242-3.4179 3.30402-4.33165c0 0 2.73284 2.16723 3.64565 4.89912 0 0 .34347-1.82282 1.25441-3.41604 0 0 3.41883 1.59042 3.98724 3.75951 0 0 1.25442-2.16536 2.16723-2.73283.91-.68694 1.82374 2.38936 1.82374 4.21685 0 0 2.1635-2.28296 3.41791-2.39683 0 0 2.39402 1.14055 3.07724 5.12966 0 0 2.27922-2.16349 3.07537-1.82562 0 0 2.73468 1.82562 2.04961 4.33071-.34067 1.37015 2.73469-1.59042 6.49607-2.50416l3.30403 2.50416s3.07537-4.09924 3.98724-5.47126c0 0 2.50884.91468 2.50884 2.39683 0 0 1.14054-4.33165 2.04961-4.78619.91095-.56934 2.16349 1.36642 2.16349 2.6227 0 0 .34441-3.30591 2.16723-3.98911 0 0 1.82375 1.25161 1.82375 2.50882-.004-.002 1.93295-3.76324 3.41603-4.67791z" />
    </g>
    <g
       id="g257"
       transform="matrix(.5 0 0 .5 92.788032 29.188568)">
      <g
         id="g247"
         transform="matrix(.9333432 0 0 .9333432 -4.86471 22.640354)">
        <path
           id="path16"
           fill="#6f6"
           d="m489.86 148.818s-1.464-.122-2.808-1.1l2.808 1.096" />
        <g
           id="g24"
           fill="none">
          <path
             id="path18"
             stroke-width=".6108"
             stroke="#060"
             d="m489.862 148.818s-1.464-.122-2.808-1.1" />
          <path
             id="path20"
             d="m458.24 172.992 1.588.978 1.708.244s1.832 1.708 3.908 3.297c1.584 1.344 1.584-.243 1.584-.243l.978 3.907h1.342s-.369 2.56-.369 3.903l2.32-1.956 2.682 2.322s1.953-1.707 2.93-1.707c.976 0 1.342-.98 1.342-.98h.12c-6.468-3.047-9.276-6.227-7.324-9.524 3.174-5.491 8.424-1.952 10.133-1.22l23.684 12.696s1.587-.972.486-1.951c-1.224-.976-1.71-3.417-1.341-4.392.363-.977 3.048 3.051 4.394 3.416 1.344.367 4.395.857 4.395.857l-.123-1.224s3.906 2.688 3.906 4.032c0 0 2.808-1.467 1.831-2.323-.974-.852 4.272 2.078 4.638 3.666l1.1-1.228c-.12 0 .37-3.907 1.713-5.738 1.222-1.83 2.563-2.32 2.563-2.32s1.222-2.076 2.441-2.076c0 0-1.22-.852-1.707-1.829-.61-.975-2.076-1.464-2.076-1.464s1.83-1.341 2.32-1.956c.488-.732.976-.852.976-.852s-2.808-2.32-4.76-2.688c0 0-.12-3.171-2.562-3.415h1.099s-1.83-3.416-3.54-3.54c0 0 1.1-1.222 2.076-1.34 0 0-2.076-2.688-4.884-1.71l1.836-.732s-1.344-1.467-5.496-.735c0 0 .365-1.704-1.464-3.051 0 0-1.587.12-1.587 1.346 0 0-1.464-1.346-3.296-1.346-1.83 0 .61 1.952.61 1.952s-2.44-1.584-3.906-1.1c0 0 .608-2.804-.976-4.271 0 0-1.832.974-2.322 2.198l-.488-1.224s-2.44 2.934-2.928 2.076c-.369-.483-.732-2.56-.732-2.56l-1.464 2.198.243-3.055s-1.707.978-3.05 4.154c0 0-1.711 1.584-1.711 3.05 0 0-1.34-1.584-2.561 0-1.1 1.71 0 1.344 0 1.344s-.49.609-1.71.855l.247.975s-1.589-.852-2.808-.486l.608 1.462s-3.174.246-3.296-2.316c0 0-2.684-1.344-3.052.12 0 0-2.198 0-1.953 1.22 0 0-.612-1.221-1.711-1.464-1.22-.368-.244 1.584-.244 1.584s-.364-1.464-1.829-2.198c-1.464-.606-.246 1.344-.246 1.344s-1.951-1.586-.972-2.808c0 0-1.832 1.71-.977 3.3l-1.224.852s-.608-.606-.488-1.1c.12-.491-2.076 1.465-2.076 1.465s-1.344-3.174 0-3.174c.12 0-2.32-.123-2.684 2.688-.368 2.682 0 0 0 0s-1.59.12-3.053.605c-1.59.492 1.097 1.59 1.097 1.59s-2.319-.49-3.663.24l.856 1.1s-.855-.852-2.928-.12c-2.2.61.487.977.487.977s-2.196-.487-3.294 0c-1.1.49.362 1.344.362 1.344s-4.026-1.222-4.638-.855c-.608.368 1.344 2.322 1.344 2.322s-2.44.609-2.928 2.441l2.196.856s-.974.487-1.464 1.461c-.486.98 1.464.492 1.464.492s-2.684 1.952-2.684 3.418c0 0 1.956.607 3.418-.856 1.466-1.461.49-.974.49-.974l.12.974s2.807-1.219 2.807-1.952c0-.608-.483.976-.483.976l2.808-1.464 1.83 1.22" />
          <path
             id="path22"
             d="m455.92 134.894-.611-2.68s3.297 0 6.228.732l1.099-2.564s2.928 1.342 3.908 2.316c0 0 5.736-1.464 7.446-.852l-.732 2.686s5.25.364 6.958.976c1.586.61-.732 1.956-.732 1.956s5.982.73 8.544 2.316c2.688 1.586 2.688 2.932 1.344 3.3l3.295 5.248s-5.25.61-6.228 1.956c-.975 1.342-1.953-1.346-1.953-1.346l-.975 3.664s-3.295-1.712-4.64-2.932c0 0-1.591 1.956-.612 2.932 0 0-4.272 0-5.985-3.91 0 0-2.563-.364-2.563 1.956 0 0-2.931-3.296-3.663-4.276l-3.298.98s-.978-1.344-2.196-1.712c-1.344-.243-.368 1.712-.368 1.712l-1.956-2.321-1.95-2.323s-1.713 2.32-3.056 2.32c-1.224 0-1.224-1.59-.979-2.689.365-.974-3.907-1.22-4.272 0 0 0-1.224-4.88 3.294-6.228l4.644-1.221" />
        </g>
        <g
           id="g46"
           stroke-width=".6108">
          <g
             id="g30"
             stroke="#000"
             fill="#d67c59">
            <path
               id="path26"
               d="m486.317 150.404s.732-1.71 2.076-.732c1.221.975 1.584 5.25 1.584 5.25l-1.953.975s1.1-1.584-1.707-5.493zm-11.1 38.34s.975-1.341-.366-4.275l1.952-.61s.732 2.319-.245 4.887h-1.344m33.819-6.722-4.638 2.81 2.32 1.099 5.615-3.298-3.3-.612m-62.145 18.193c-1.224.978-1.344 2.688-2.076 3.663-.607.975-2.441 2.316-2.562 3.783-.245 1.464-.366 2.441.243 4.397.729 1.951 3.783 10.62 2.562 17.217-1.344 6.591-.852 9.4-.363 10.38.485.975 1.952 3.66 2.808 3.66 1.952-.244 1.098-.852 1.829-2.076 1.83-3.174 0-27.717-.856-34.554-.608-5.252-3.054-10.016-3.294-10.5-.244-.615-.732-2.2-1.1-3.178-1.83-4.397-4.028-8.178-4.028-17.34 0 0-5.984 1.344-11.11-10.258-2.685-5.86-6.593-5.25-11.231-7.2l2.076-1.347s3.907 1.956 5.86 1.956c1.954 0 1.345-3.907 1.345-3.907l1.953-1.956v8.55c0 3.908 5.371 9.28 8.544 10.867 1.956.974 4.52-3.054 3.91-6.96-.612-3.906 0-9.156 0-9.156l2.685 1.584s-.976 1.71-.732 2.688c.364.978 1.707-.977 2.684-1.956 0 0 .243.246 1.221.246 0 0-1.953 3.294-2.928 5.006-.974 1.589-.974 7.817-.974 10.137s.854 7.69.854 9.398c0 1.224 2.316 6.228 4.152 9.283.609 1.22 2.074 4.392 2.074 4.392 1.464 2.321 1.584 3.909 2.442 5.865.487.974 1.344 3.783 1.953 8.67.245 1.219.488 5.86.857 8.91.364 2.93 2.808.612 5.734-1.464 2.93-2.196 2.93-7.448 2.93-7.448s2.321-1.956 1.954-.855c-.245 1.221 1.224 2.442 1.224 2.442-1.831 4.15-.732 3.662 1.098 3.54 1.83-.247 8.177-5.007 8.177-5.007.855-.246 4.64-.246 4.03 0-.733.368-1.71 2.199-1.71 2.199l4.151-.49c-1.464 1.1-6.96 4.272-8.178 5.007-1.344.856-7.932 4.032-10.742 5.128-2.808 1.22-8.304 3.908-8.547 6.716-.122 2.81.366 10.38 0 12.82-.243 2.44-1.221 13.31-1.221 13.31h-13.063s2.564-9.525-.124-12.088c-2.563-2.688-8.546-10.504-12.452-13.192-3.909-2.562 2.562-.606 2.562-.606v-2.688l5.982 7.208s10.376-9.159 0-21.612c-3.296-3.909-6.593-9.89-9.156-10.504-2.685-.732-4.029-1.344-8.547 0-4.639 1.342-15.749 1.342-20.388-5.986l3.909-.61 3.292-1.343s-1.341 4.64 7.936 4.64c9.156 0 10.5 0 9.768-8.547l2.684-1.344 1.956 1.956s-1.344 4.64-.612 6.592c.612 1.953 3.909 3.298 6.472 5.25 1.1.856 1.954.978 2.686.978 1.098-.122 1.341-.122 2.808-1.588 2.196-2.442 1.707-2.32 3.906-4.272 0 0 1.099-1.71 1.344-1.956l1.344 3.543z" />
            <path
               id="path28"
               d="m448.84 193.748c.487-.484 1.465-2.32 2.32-3.907 1.464-2.44 3.176-3.906 5.127-6.96 1.829-2.808 2.563-6.957 1.829-9.888l1.708.978.125 4.64s2.321-1.957 3.298-2.441l.974.486s-7.325 7.572-14.162 19.783l-1.222-2.685zm-64.211-25.392c.977 1.704 1.956 5.007 4.884 7.569l1.953-.61s-4.516-5.25-4.516-7.568l-2.321.608m11.472-2.939s.61 6.228-.975 8.548l1.953-.972s1.341-4.274.974-6.596l-1.953-.975zm64.344-19.656s-.369 8.79 1.344 14.164l2.316-.73s-.364-1.592 1.587-2.324c1.956-.61 6.593-2.562 8.912-4.518l-.73-1.951s-3.54 2.808-5.25 3.54c-1.586.612-2.563 1.341-3.907.978-1.344-.369-2.928-2.568-1.954-7.575zm25.872 41.028s-.609 6.228-.243 8.916l2.076.489s-.486-7.449.852-8.06l-2.685-1.343m9.288 4.642s-2.32 4.03-5.004 4.397l4.272-.855s1.224-.61 3.054-2.562l-2.323-.978" />
          </g>
          <g
             id="g38"
             stroke="#030"
             fill="#338a00">
            <path
               id="path32"
               d="m458.249 172.988 1.584.972 1.71.249s1.829 1.709 3.906 3.294c1.584 1.344 1.584-.244 1.584-.244l.975 3.907h1.344s-.367 2.564-.367 3.908l2.321-1.956 2.686 2.32s1.953-1.708 2.928-1.708 1.344-.975 1.344-.975h.123c-6.471-3.055-9.276-6.228-7.325-9.525 3.176-5.494 8.424-1.956 10.132-1.22l23.684 12.696s1.587-.975.488-1.956c-1.224-.972-1.712-3.416-1.344-4.392.366-.976 3.051 3.05 4.392 3.417 1.344.368 4.394.858 4.394.858l-.122-1.222s3.907 2.685 3.907 4.03c0 0 2.808-1.464 1.83-2.321-.975-.852 4.275 2.078 4.64 3.667l1.098-1.224c-.123 0 .367-3.908 1.709-5.74 1.224-1.828 2.564-2.319 2.564-2.319s1.224-2.076 2.441-2.076c0 0-1.224-.852-1.71-1.83-.61-.98-2.076-1.466-2.076-1.466s1.831-1.342 2.322-1.954c.487-.73.977-.857.977-.857s-2.808-2.316-4.764-2.68c0 0-.12-3.178-2.562-3.42h1.1s-1.83-3.42-3.54-3.54c0 0 1.098-1.221 2.075-1.345 0 0-2.076-2.684-4.881-1.707l1.83-.73s-1.344-1.464-5.492-.732c0 0 .365-1.709-1.464-3.054 0 0-1.586.12-1.586 1.342 0 0-1.464-1.342-3.295-1.342s.61 1.956.61 1.956-2.441-1.59-3.908-1.1c0 0 .61-2.808-.977-4.276 0 0-1.827.978-2.32 2.199l-.486-1.22s-2.442 2.93-2.928 2.075c-.366-.487-.732-2.562-.732-2.562l-1.462 2.199.242-3.056s-1.708.978-3.051 4.15c0 0-1.709 1.589-1.709 3.05 0 0-1.344-1.584-2.564 0-1.1 1.71 0 1.347 0 1.347s-.49.606-1.71.852l.244.974s-1.586-.852-2.808-.485l.609 1.464s-3.174.245-3.294-2.316c0 0-2.686-1.346-3.053.12l-1.954 1.222s-.612-1.222-1.71-1.464c-1.224-.367-.244 1.584-.244 1.584s-.364-1.464-1.83-2.198c-1.463-.606-.243 1.346-.243 1.346s-1.953-1.589-.974-2.808c0 0-1.83 1.709-.976 3.298l-1.221.852s-.612-.609-.492-1.098c.126-.49-2.074 1.464-2.074 1.464s-1.344-3.173 0-3.173c.122 0-2.32-.123-2.684 2.688 0 0-1.587.12-3.053.606-1.584.49 1.1 1.589 1.1 1.589s-2.32-.49-3.663.244l.855 1.1s-.855-.856-2.93-.125c-2.199.61.487.977.487.977s-2.196-.488-3.295 0c-1.1.49.366 1.344.366 1.344s-4.03-1.222-4.64-.852c-.609.363 1.343 2.32 1.343 2.32s-2.442.609-2.928 2.441l2.196.852s-.972.487-1.464 1.467c-.484.976 1.464.486 1.464.486s-2.683 1.956-2.683 3.42c0 0 1.953.608 3.418-.855 1.464-1.464.487-.977.487-.977l.124.978s2.808-1.219 2.808-1.95c0-.613-.486.971-.486.971l2.808-1.464 1.83 1.224v-.003z" />
            <path
               id="path34"
               d="m455.92 134.9-.611-2.685 6.228.728 1.097-2.562s2.928 1.342 3.907 2.316c0 0 5.736-1.464 7.448-.852l-.732 2.688s5.249.363 6.96.972c1.587.612-.732 1.956-.732 1.956s5.982.732 8.548 2.32c2.685 1.584 2.685 2.93 1.344 3.294l3.293 5.25s-5.248.61-6.225 1.951c-.977 1.344-1.953-1.34-1.953-1.34l-.977 3.662s-3.295-1.711-4.638-2.93c0 0-1.584 1.956-.61 2.93l-5.983-3.907s-2.566-.366-2.566 1.956c0 0-2.928-3.3-3.66-4.277l-3.3.978s-.972-1.34-2.196-1.71c-1.344-.24-.366 1.711-.366 1.711l-1.953-2.32-1.954-2.315s-1.71 2.316-3.053 2.316c-1.224 0-1.224-1.584-.976-2.685.366-.977-3.908-1.219-4.272 0 0 0-1.224-4.884 3.294-6.225l4.638-1.222zm-23.675 16.728-2.076 1.956-1.222-.612-2.44 2.686-.489-1.468-1.344 2.199-2.074-.732-.976 1.587-1.83-.367s-1.587 1.468-2.565 1.833c-.974.247 0-2.196 0-2.196s-1.464 2.442-2.563 2.442c-.974 0-.608-1.1-.608-1.1s-.61 1.584-1.83 1.83c-1.1.124-.612-1.219-.612-1.219l-1.956 1.464v-1.221l-.852-.365s.486-2.199 1.344-2.686c.852-.49-.856-1.951-.856-1.951l.852-.978s-2.442-.61-2.442-.12c0 0 1.224-3.295 2.928-3.912l.125-3.66s1.709-1.464 3.295-1.589c1.708-.245-.487-2.808-.487-2.808l3.906-2.316.487-2.808 5.982.484 1.222-2.562 4.764 1.219 4.026-2.076 2.928 3.42 4.395.367s-.12 3.05-.12 3.907c0 0 5.247 1.584 5.859 2.076 0 0-.977 3.174-.977 3.784 0 0 3.665-.978 4.764-.732 0 0 .367 3.42.486 4.272 0 0 6.225 1.956 6.593 3.055 0 0-1.344.852-2.076 1.951 0 0 .732 3.788.732 5.007l-.489.732s-1.831-1.709-3.296-1.953l-1.224 2.685-2.196-1.464-1.342.122s-1.099-1.344-1.956-1.344l-.122-1.22-1.709 1.098s-2.686-1.344-2.686-2.199c0-.732.123-1.956.123-1.956l-2.808 1.956s-.61-1.464-.486-2.076c.122-.61-1.1 1.467-1.1 1.467s-1.466-2.566-1.343-3.055l-.368 2.076s-2.928-.972-3.294-2.928v-.004z" />
            <path
               id="path36"
               d="m393.173 163.592s5.129 2.568 5.129 3.788c0 0 1.344-2.688.61-3.665l1.955 1.344s.606-2.44-.125-3.175c-.612-.61 4.392-2.682 5.492.612 0 0 3.054-3.174-2.808-5.862 0 0-.485-1.953 3.054-1.464 0 0-.244-1.222-1.1-1.71h3.42s-2.076-1.71-5.128-2.198c-2.928-.49-1.1-.852-1.222-1.468-.245-.61 0-2.808 0-2.808s-1.709-.61-3.053.122l.489-.612s-3.176-.852-4.392-.12c0 0-1.833-.732-1.588-2.688 0 0-1.831-.12-2.683 1.83 0 0-1.71 1.956-4.029 1.956-.486 0-2.196-.98-2.196-.98l-1.467 3.42-2.319-.12.732 1.341s-3.54-.972-4.64 0c0 0 1.344 2.079.976 3.54 0 0-2.808.492-3.418.98-.732.483.976.851.976.851s-3.174.977-3.909 1.956l1.224.972-1.466 1.959 1.224.24s-2.076.612-3.174.979c-1.098.365 1.953.612 1.953.612l-1.464 1.34 2.321.364s-1.83 4.886-1.953 7.207c0 0 2.808-3.42 3.54-3.662l-2.196 3.662s4.152-1.341 4.518-1.956c.363-.732.73-1.341.73-1.341l.123 2.076s1.587-2.199 1.831-3.054c.124-.852 2.563.855 2.563.855v-1.224s2.199.732 2.928.857c.856.12.977-.367.977-.367l2.076-.244-.368 1.707s1.464-.975 1.828-1.953c.245-.978.976 0 .976 0l.974-3.907h2.074zm-16.728 17.34 1.953 4.03c-1.586.12-3.907 1.951-3.907 1.951.365 6.718-1.341 6.35-1.341 6.35.483 1.222-.312 3.487-.312 3.487l9.711-5.805.124-.61 11.477-5.375.363.61 3.298-1.83 2.32 6.102-2.319 1.344c.124 2.076 2.564 5.741 2.564 5.741l3.053-.73 3.295-1.223s.124 1.83.124 1.224c0-.492 3.538-1.71 3.538-1.71l1.586 1.587c1.224-.12 3.418-3.055 3.418-3.055l2.564.98s.854-1.465.854-2.564c0-.977 3.174-.977 3.174-.977l2.199 1.584 2.808-2.316s.854 1.709 1.953 1.951c1.224.123 4.272 2.441 4.272 1.956 0-.487 1.344-3.175 1.344-3.175l5.127 2.076c-.73-2.32-2.439-5.127-2.439-5.127s2.439-1.95 1.953-2.44c-.487-.49-1.954 0-1.954 0l1.464-2.93h-1.953l.608-.73-3.173-1.342 1.708-3.42c-.732-.858-9.156-2.568-9.156-2.568l1.953-1.83s-.976-1.464-1.953-1.464-6.105.124-6.348-.362c-.125-.49-2.2-2.324-2.2-2.324l-3.175 2.324-1.584-.49-2.808 1.1s0 1.586-.37.487c-.363-.98-2.928-3.54-2.928-3.54-.487.852-3.783 4.759-3.783 4.759s-.489 2.078-1.588.61c-1.224-1.464-3.785-3.05-4.152-1.83-.366 1.345-2.683 2.563-3.175 2.2-.485-.37-3.173-.123-3.418.609-.122.852-3.052 3.05-3.052 3.05-1.832-.852-4.764-.362-4.764-.362s-.852 1.341-.972 2.44l-5.982 1.585h.004v-.004zm55.188 49.452v-2.565l2.928 1.953 1.71-1.956 2.196 2.196 1.344-2.196v3.544l3.296-2.928 1.951.852v-2.808s2.322-3.908 1.344-4.638l1.954-.61s-3.296-3.297-4.272-3.91c-.976-.731-2.32-.731-2.32-.731s-2.564-2.568-4.272-3.297c-1.587-.61-2.568.73-2.568.73s-.974-1.95-2.683-2.318c-1.584-.364-1.584 1.344-1.584 1.344s-1.224-1.224-2.808-1.833c-1.586-.728-.488 1.464-.488 1.464l-5.616-1.704.73 1.704-5.247-1.337.607 1.953-3.66-.615-.245 1.593-5.25.974.977 1.708-3.297-1.344v2.322l-3.663 1.341 1.344 1.224s-4.884 2.32-5.862 3.052c-.974.608 1.956 1.95 1.956 1.95l-5.251-.732 1.954 1.711-4.64 4.276 3.296 2.32-1.954 2.929 4.884.974 1.952 3.296 4.029-.732v3.66l5.86-4.636s4.275 3.784 4.64 2.685c.243-.975.243-4.272.243-4.272h2.076v-3.295l1.584 1.342 2.688-3.91 3.538 4.886 2.684-6.225 3.908.61zm23.928-14.772-.61-5.616-1.707 1.71.728-5.25-2.682-.49.974-5.126-1.952-.979.485-2.44 1.956-1.465 3.54-3.42 8.175.128.976-2.688 5.862.978c.974 1.099 4.026-2.199 4.026-2.199h1.224l1.344 2.561s4.272-.612 6.224.732l-2.32 3.174 4.272.365 2.928.612 3.054-.978 3.908-.247.976 1.587h3.663l-1.221 1.464 4.761 2.196-.974.98s2.684.975 4.638.975h.975s.976 2.316-.368 3.294c0 0 1.344 3.298 4.272 3.91 2.93.61 2.93.61 3.296 1.34.369.612 0 3.91-3.295 3.91v3.3s-2.563 2.318-2.928 3.292l-1.956-1.344s-1.704 1.956-1.704 3.3c0 0-4.275-5.62-5.863-5.865-1.709-.364-1.344 3.176-1.344 3.176l-4.637-3.907-.612 2.684-3.906-3.294-2.32 1.582-4.153-4.272-4.027.492 1.584-2.078h-4.881l-.975-4.272-.732 3.54-2.928-1.952-3.785 4.15s-.487-.492-1.099-2.443c-.608-1.954-2.32 2.318-2.32 2.318l-1.343-3.05-1.584 3.05s-1.344-2.318-2.688-3.05c-1.22-.61-2.561 3.66-2.926 5.616zm.732 12.816.243-1.95 6.958-2.689 5.862-2.196 2.928-1.344 1.344 2.32 1.708-3.294 2.685 3.416 1.467-1.831 2.318 1.708h1.954l.366 2.568s4.884.363 5.248-.61c.368-.978.976 3.294.976 3.294l4.638.61.977 5.25s2.316 4.886 1.586 6.84c-.612 2.076-2.565-2.565-2.565-2.565s-.365 3.663-.732 4.64c-.243.974-6.225-.977-6.225-.977l-2.564 4.884s-2.685-3.908-3.906-3.908c-1.344 0-1.344 3.908-1.344 3.908s-3.907-4.64-5.616-6.596c-1.588-1.95-1.956 1.956-1.956 1.956s-2.562-4.275-2.562-5.496c0-1.341-2.321-2.688-2.321-2.688s-4.032 4.642-6.962 5.865c0 0 .367-2.932-.609-3.909-.974-.978-3.907 1.952-3.907 1.952s-2.076-4.518 0-9.159z" />
          </g>
          <g
             id="g44"
             stroke="#004b00"
             fill="none">
            <path
               id="path40"
               d="m488.525 155.648.612 2.442s2.196-.49 3.662-.366c0 0-.366 1.953-.854 2.808 0 0 2.928-.487 4.272.365l-.61 1.464 3.42 1.467-3.175 2.563s5.124 1.829 6.104 3.297c0 0-3.295 2.319-3.784 2.199-.488-.247-.123.972.732 2.072l-2.808-.12s1.098 2.565.974 3.54c-.122.976-4.64.73-4.64.73m17.575-6.585s.854-4.884-.485-6.105c0 0 3.173 2.688 5.248 2.808 2.198.125-.124-4.03-.124-4.03s3.053 1.587 4.518 1.953c1.464.244-1.1-3.053-1.1-3.053s.853-1.589 3.295-.123m-56.76-19.41s.12-1.099-.37-1.708c-2.928-4.03 3.054 3.054 4.272 3.297m5.614-.005s1.953 1.464 2.93 1.464c.976 0-.61-3.908-1.099-4.394-.487-.49 3.54 1.584 5.006 1.831 1.464.365 1.708-2.44 1.708-2.44s4.518.731 5.496 1.343m-31.381-.852s-.366-2.563-.486-3.662m-30.27 15.878c-.245-.49 1.224-2.688.612-3.664 0 0 .852.734 1.707.856.732.12.485-2.81.485-2.81l.978.365s2.565-1.224 2.076-2.2c-.492-.974 1.708 1.464 1.708 1.464s1.466-1.464 1.466-2.073c0-.617 1.707 1.461 1.707 1.461s1.83-.367 1.83-1.464c0-1.098 2.32.365 2.32.365s.976-1.342.856-2.198m-24.661 12.214s1.097-2.562-.124-4.272m-29.54 12.324c.123-1.219.732-4.516.123-5.006-.61-.484 1.224.49 2.686.856m11.59-.482c-1.463-1.467-2.32-2.198-4.636-2.198m-20.143 10.37c.367-.852.975-2.928.61-4.15m31.25 64.714 1.586-3.297 1.954 4.638 1.341-2.93.488.977 2.928-3.174 3.176 4.762m50.915-20.632 2.076-4.15 2.808 1.465 1.344-4.029 2.928 1.832 1.709-3.785 3.296.852.242-2.685s2.32 1.34 2.93 2.316c.73.98 0-3.292 0-3.292l2.684 1.219s1.954-1.956-.732-3.054" />
            <path
               id="path42"
               d="m479.489 203.888 2.928 4.275 2.44-2.808 2.199 4.759 2.808-1.709 4.027 2.32 1.83-1.464 4.396 3.175 1.831-3.782 3.906 1.22 2.562-4.392m-105.475-11.482s1.71-2.934 1.099-4.276c-.732-1.344 3.54 2.32 3.54 2.32s.974-2.931.365-4.272c-.732-1.344 4.884 3.908 4.884 3.908s.978-4.517 0-5.496c-.977-.978 5.372 1.344 5.372 1.344s2.566-.73 1.588-2.076c-.977-1.342 4.272 1.952 4.272 1.952s1.22-3.293 0-4.518c-1.344-1.34 3.906 1.589 3.906 1.589l-1.953-3.543 4.272.244-.364-3.907m37.843 56.403 2.808-1.344 2.442 2.444 2.684-4.272 3.295 3.172.489-3.172 3.54 1.467.732-1.958 3.906 2.08.365-2.932 1.952.612.367-1.956" />
          </g>
        </g>
        <path
           id="path48"
           fill="#9dc9e2"
           d="m403.913 372.632a87.295 87.295 0 0 1 -7.449-16.236l52.863-46.524 52.865 46.398c-1.832 5.37-4.275 11.112-7.692 16.608l-.42.676a515.6 515.6 0 0 1 -3.976-1.531s-1.709 1.587-3.048 1.707c-1.831.246-3.42-1.584-3.42-1.584s-2.32 1.953-4.638 1.584c-2.32-.24-3.298-1.708-3.298-1.708s-2.44 1.953-4.152 1.587c-1.584-.372-2.684-1.47-2.684-1.47s-1.464 1.836-3.54 1.47c-1.952-.372-3.784-1.47-3.784-1.47s-3.048 1.34-5.004 1.587c-1.952.37-3.663-1.71-3.663-1.71s-2.563 1.71-3.54 1.71c-.976 0-4.638-1.71-4.638-1.71s-3.786 1.222-5.128 1.222c-1.224 0-5.004-1.584-5.004-1.584s-3.54.972-5.126.972c-1.711 0-4.152-.972-4.152-.972s-2.925 1.342-4.516.972a16.536 16.536 0 0 1 -3.053-.972s-3.174 1.342-5.25.972c-1.953-.362-4.272-1.704-4.272-1.704s-.367.976-4.152 1.704h-.123" />
        <g
           id="g114"
           stroke="#000">
          <path
             id="path50"
             stroke-width=".8544"
             fill="#fff"
             d="m449.333 256.388v53.48l-52.864 46.768c-5.124-14.896-5.491-28.204-5.491-33.942v-66.304h58.356" />
          <path
             id="path52"
             stroke-width=".8544"
             fill="#ffe682"
             d="m449.333 256.388v53.48l52.74 46.768c5.126-14.896 5.493-28.204 5.493-33.942v-66.304h-58.233" />
          <g
             id="g68"
             stroke-width=".6108">
            <path
               id="path54"
               fill="#d67c59"
               d="m415.229 361.52c3.974 2.154 2.628 1.476 10.866 4.392 6.715 2.325 14.526 3.42 25.879 3.42 9.934 0 15.526-.788 18.672-1.656 3.264-.936 4.036-2.253 4.036-2.253l-8.178 8.304s-32.873 1.773-38.825-2.076c-2.316-1.224-7.324-5.25-12.45-10.133z" />
            <path
               id="path56"
               stroke-linecap="round"
               fill="none"
               d="m463.457 346.016s10.5 5.981 0 17.46m-47.244-1.344 15.138-14.412-1.71 19.294m7.932 1.44826v-31.97426m25.884 32.232v-34.188m-13.068 34.8v-36.75" />
            <path
               id="path58"
               stroke-linejoin="round"
               fill="#d90f19"
               d="m437.573 338.204-6.838 2.199 6.838.732v-2.932m12.816-5.015-7.2 2.688 7.2.244zm13.068 1.956-7.203 2.688 7.203.364v-3.055zm4.272 15.516c-.366-1.466 4.274-1.341 4.274-1.341s1.344 4.88 0 7.932l-3.906-.732s.367-3.294-.367-5.86z" />
            <g
               id="g66"
               fill="#fff">
              <path
                 id="path60"
                 stroke-linejoin="round"
                 d="m418.529 360.176 12.82-12.456-.613 7.45s-6.59 4.272-6.59 7.325l-5.616-2.32m6.827 2.57s1.344-3.908 5.004-5.86l-.365 7.814-4.637-1.956zm18.444-21.613s5.247-.732 9.156 0c0 0-.612 5.25 0 6.226 0 0-7.204-1.71-10.132.974 0 0-.977-4.884.977-7.2zm-11.112 1.344s5.25-.732 9.156 0c0 0-.976 5.864-.367 6.84 0 0-5.862-3.3-8.79-.615 0 0-1.955-4.026 0-6.225z" />
              <path
                 id="path62"
                 stroke-linejoin="round"
                 stroke-linecap="round"
                 d="m432.317 349.304s5.249-.61 9.156 0c0 0-.61 5.25 0 6.228 0 0-6.837-1.587-9.768.976 0 0-1.344-4.884.612-7.204zm10.5-.972s7.57-.972 11.474-.363c0 0-1.586 4.272.369 7.202 0 0-8.18-2.198-11.232.364-.003 0-2.564-4.884-.612-7.204zm-11.1 8.184 10.13.732s-.974 7.448-.366 8.424c0 0-8.177-1.956-9.768.73 0 0-2.685-6.835 0-9.888h.004zm11.472 0s8.786-.612 12.818 0c0 0-2.323 5.62.245 10.5 0 0-11.478-3.292-13.068-.612 0 0-2.68-6.836 0-9.888zm13.428-15.384s5.247-.732 9.156 0c0 0-.609 5.25 0 6.226 0 0-7.203-1.71-10.13.974-.003 0-.98-4.884.974-7.2zm0 7.2s5.247-.61 9.156 0c0 0-.609 5.25 0 6.228 0 0-7.203-1.587-10.13.977 0 0-.98-4.884.974-7.203zm.612 7.572s5.247-.728 9.276 0c0 0-1.344 8.18-.732 9.156 0 0-5.976-2.808-8.788-.362 0 0-1.706-6.47.245-8.794z" />
              <path
                 id="path64"
                 d="m468.089 356.516s1.706 6.225 3.905 6.96l-2.928 3.54s-3.54-2.564-3.908-5.49c0 0 2.319-2.689 2.93-5.008z" />
            </g>
          </g>
          <g
             id="g80"
             stroke-width=".61">
            <path
               id="path70"
               stroke="none"
               fill="#006ac8"
               d="m494.26 373.364c-8.423 14.044-22.218 27.228-44.925 35.408-23.076-8.3-37.113-22.097-45.416-36.02l.122-.122c3.784-.736 4.152-1.709 4.152-1.709s2.319 1.344 4.272 1.71c2.076.364 5.249-.977 5.249-.977s1.344.612 3.052.978c1.584.364 4.516-.976 4.516-.976s2.441.978 4.15.978c1.586 0 5.128-.977 5.128-.977s3.783 1.584 5.004 1.584c1.344 0 5.126-1.22 5.126-1.22s3.664 1.71 4.64 1.71c.974 0 3.54-1.712 3.54-1.712s1.707 2.076 3.66 1.711c1.955-.244 5.006-1.586 5.006-1.586s1.83 1.1 3.784 1.464c2.074.368 3.54-1.464 3.54-1.464s1.098 1.1 2.685 1.464c1.709.368 4.15-1.586 4.15-1.586s.975 1.466 3.297 1.708c2.32.368 4.64-1.584 4.64-1.584s1.583 1.83 3.416 1.584c1.344-.122 3.05-1.708 3.05-1.708s3.052.974 4.15 1.344" />
            <path
               id="path72"
               stroke-width=".6108"
               fill="none"
               d="m492.185 376.544c-1.83.125-2.076-1.099-2.076-1.099s-2.436 2.079-4.76 1.711c-2.44-.363-3.54-1.952-3.54-1.952s-2.564 2.076-4.274 1.708c-1.707-.244-2.928-1.467-2.928-1.467s-1.584 1.836-3.662 1.468c-2.076-.244-3.909-1.467-3.909-1.467s-3.295 1.348-5.372 1.712c-2.076.368-3.784-1.953-3.784-1.953s-4.761 1.588-5.736 1.588c-1.1 0-4.52-1.589-4.52-1.589s-2.318 1.466-3.66 1.466c-1.464 0-5.372-1.71-5.372-1.71s-3.665.978-5.374.978c-1.71 0-4.272-.979-4.272-.979s-3.175 1.344-4.884.98c-1.709-.369-3.053-.98-3.053-.98s-3.417 1.344-5.492.98c-2.076-.369-4.518-1.71-4.518-1.71s-.365.853-4.392 1.71h-.125" />
            <g
               id="g78"
               stroke-width=".732"
               fill="#006ac8">
              <path
                 id="path74"
                 d="m416.369 381.524s-.341.798-3.525 1.5c-.068-.004-.864.188-.864.188.294-.053.533-.096.789-.15a14.796 14.796 0 0 1 -.9.3c3.6 5.2 8.993 9.921 14.612 13.707 5.621 3.787 12.08 8.307 23.076 11.532 11.562-4.514 14.647-6.231 22.204-11.292 7.556-5.52 11.493-8.958 15.708-14.62-3.3 1.874-2.826 1.895-4.536 1.65-1.71-.363-2.964-1.612-2.964-1.612s-1.56 1.86-3.636 1.613c-2.076-.363-3.9-1.612-3.9-1.612s-2.712 1.844-5.4 1.724c-2.076-.124-3.789-1.95-3.789-1.95s-4.764 1.575-5.738 1.575c-1.1 0-4.5-1.576-4.5-1.576s-2.333 1.462-3.674 1.462c-1.464 0-5.364-1.725-5.364-1.725s-3.653.976-5.362.976c-1.71 0-4.274-.974-4.274-.974s-3.046 1.341-4.876.975c-1.711-.363-3.076-.974-3.076-.974s-3.402 1.341-5.475.975c-2.076-.363-4.536-1.687-4.536-1.687z" />
              <path
                 id="path76"
                 d="m449.56 408.608c11.944-4.971 14.1-6.324 21.325-10.74-1.26.034-4.924-1.15-3.598-1.527 0 0-1.469 1.323-2.933 1.323-1.344 0-5.25-1.704-5.25-1.704s-3.66.972-5.37.972-4.273-.972-4.273-.972-3.175 1.34-4.884.972c-1.71-.362-3.053-.972-3.053-.972s-3.54 1.34-5.492.972c-2.076-.362-4.52-1.707-4.52-1.707s-3.004 1.593-4.89 1.776c5.772 4.227 11.846 8.354 22.939 11.607z" />
            </g>
          </g>
          <g
             id="g112"
             stroke-width=".509">
            <path
               id="path82"
               transform="matrix(2.1428345 0 0 2.1428345 -193.61108 -86.803537)"
               stroke-width=".285043"
               fill="#d67c59"
               d="m277.04492 162.28125c-.39527-.01-.86871.22201-1.59765.88281-1.15035 1.03835-1.56437 2.10873-.0547 3.40235l7.47851 6.80078c1.09202 1.06168 2.6195 1.25597 3.25977 1.80664l7.60156 7.77344c.95808.8274 1.41681 1.41408.875 2.12109-.6006 1.16295.0425 1.32.17969 1.35547 1.04049.2338.47521-.41706.60937-.75391.17972-.71085.95689-1.3249 1.50891-1.62215.35888-.14005.5557-.0661.64542.12606.32789.13137.67437-.35891.19138-.87695-.41581-.57868-1.06569.36136-1.79883.14062 0 0-1.1058-.68531-1.4082-1.17578-.64541-.71821-1.47674-1.36204-1.95508-1.97852-.50681-.5712-2.41269-3.09237-5.31446-5.99414-.8344-.5446-.64484-2.6048-1.24218-3.24414-.0504-.44614-5.80156-6.13831-7.85352-8.19726-.4144-.30521-.72973-.55649-1.125-.56641z" />
            <path
               id="path84"
               stroke-width=".6"
               fill="none"
               d="m400.829 267.5 16.75 16.55" />
            <path
               id="path86"
               stroke-width=".6852"
               fill="#e8e8e6"
               d="m423.509 275.06c.259-.498.825-1.767 1.424-3.152.237-.547 4.743-7.733 6.989-7.944 0 0 14.012 10.194 14.023 10.328.048.55-6.078 9.712-6.612 9.016 0 0-16.416-6.892-15.823-8.248z" />
            <path
               id="path88"
               stroke="none"
               fill="#ccb8c8"
               d="m432.437 277.46c-1.92-1.49-5.09-2.943-7.65-4.65l-1.152 2.4c.926 1.036 12.585 6.456 14.5 7.5 0 0-2.22-2.546-5.7-5.25z" />
            <path
               id="path90"
               stroke-width=".48"
               fill="none"
               d="m424.78 272.504c1.5 1.05 4.35 2.85 6.15 3.9 3.45 2.4 5.634 5.044 8.1 6.45" />
            <g
               id="g102"
               stroke-width=".6108">
              <path
                 id="path92"
                 fill="#d67c59"
                 d="m396.389 316.172 31.904-39.484c.6-.548 3.557-.576 3.958 2.481l-30.216 41.18c.002 0-3.44-.341-5.645-4.177z" />
              <path
                 id="path94"
                 fill="#d67c59"
                 d="m503.333 316.604c-1.1.858-2.968 1.08-2.968 1.08-2.073-2.442-3.786-5.006-6.715-8.179l-31.866-39.193 3.295-3.174 28.689 33.576c.854.854 5.863 6.108 10.624 12.33.003.002.418 2.438-1.06 3.564z" />
              <path
                 id="path96"
                 fill="#e8e8e6"
                 d="m472.649 275.312-5.129-6.105s-3.906.486-4.637 2.564c0 0-2.808 4.64-10.256 5.129 0 0 2.073 8.669 10.742 13.308 0 0 3.175-8.916 6.226-10.502 0 0 3.173-2.321 3.053-4.392z" />
              <path
                 id="path98"
                 fill="#d67c59"
                 d="m459.833 302.42c-.732-.246-1.464 0-2.565.612-.974.612-2.196.364-2.076-.858.124-1.099 0-.974 1.344-1.828 1.956-1.1 4.518-1.224 6.105-.612l-2.808 2.688m34.788-34.682c-.245-.852-.486-1.704.366-2.804.854-.977.854-2.688-1.224-1.834-2.076.857-2.808 3.176-1.097 6.717l1.951-2.08z" />
              <path
                 id="path100"
                 fill="#e8e8e6"
                 d="m459.1 303.152 36.138-35.898 8.91 9.525s-1.83-.736-2.564-.249c-.61.49.732 2.321.732 2.321s-1.708-.61-2.44-.122c-.855.486 0 2.563 0 2.563s-1.464-1.098-2.199-.612c-.608.492 0 2.808 0 2.808s-1.952-.608-2.438-.122c-.49.49 0 2.565 0 2.565s-1.956-.977-2.93 0c-.975.975.487 2.321.487 2.321s-2.441-.978-3.418.486c-.976 1.466.122 2.808.122 2.808s-1.952-.974-2.44-.49c-.488.49 0 2.808 0 2.808s-1.708-.976-2.807.248c-1.1 1.344.122 2.442.122 2.442s-1.584-.98-2.443-.492c-.856.492.244 2.808.244 2.808s-1.584-1.1-2.685 0c-1.099 1.224 0 2.44 0 2.44s-1.344-1.221-2.685 0c-1.224 1.344 0 2.688 0 2.688s-1.952-.976-2.684 0c-.854.972.243 2.321.243 2.321s-1.464-.855-2.44-.372c-.972.492 0 2.688 0 2.688s-1.464-1.587-2.073-.73c-.732.853.122 2.929.122 2.929s-1.344-1.588-2.076-.73c-.854.732.487 2.564.487 2.564s-2.44-1.099-1.83-1.099z" />
            </g>
            <path
               id="path104"
               stroke="none"
               fill="#4d4d4d"
               d="m493.157 270.188-2.808 2.808.61 9.648s.611-2.808 1.463-.858c0 0 .246-2.318.856-1.95-.492-.248-.122-9.649-.12-9.649m-5.245 5.245-2.076 1.952.732 9.648s.612-3.663 1.464-.732c0 0-.123-2.441-.123-3.298.003.612.003-7.57.003-7.57m-21.852 21.624-1.954 2.073.49 5.863s.61-3.784 1.464-.857c0 0-.245-2.436-.245-3.295 0 .612.245-3.786.245-3.786" />
            <g
               id="g110"
               stroke-width="1.0992"
               stroke="#4d4d4d"
               fill="none">
              <path
                 id="path106"
                 d="m463.613 272.876c1.344 1.344 5.129 6.225 5.129 6.225m-3.413-3.537c-.243.735-.729 2.808-1.828 3.908m2.428-3.428c-.123.488-.123 2.076-1.828 3.665m2.44-2.92c-.245.851-.366 1.463-.975 2.075m1.347-1.344c0 .61-.364.732-.486 1.1m-4.026-3.428c-.487.486-4.03 2.806-5.982 3.54m4.998-2.196c-.487.49-2.686 2.199-3.907 2.688m3.547-1.224c-.732.492-1.954 1.71-2.928 2.076m2.196-.612c-.487.61-1.222 1.1-1.83 1.467" />
              <path
                 id="path108"
                 stroke-linecap="square"
                 fill="none"
                 d="m439.133 280.808c.398-.735 1.092-2.179 2-3.5 1.152-1.676 1.648-1.96 2.251-2.55" />
            </g>
          </g>
        </g>
        <g
           id="g124"
           stroke-width=".6108">
          <path
             id="path116"
             stroke="#060"
             fill="#358b03"
             d="m321.269 379.232c1.831.852 0-5.984.608-8.547.732-2.686 5.982 6.593 8.549 7.817 2.686 1.341 19.044-6.474 19.044-6.474l3.907-7.325 2.076 5.98s4.516-5.25 5.86-7.202 0 3.909-1.344 5.861c-1.344 1.956 3.907 2.688 3.295 6.594-.612 3.91 5.249-2.686 5.249-2.686l15.138 1.344s2.56-9.16 6.59-14.41l1.222 5.865 6.225-6.348c6.96 18.317 21.612 38.22 51.642 49.085 28.2-10.256 42.73-28.452 50.296-45.792l8.424 8.676s6.594-1.958 7.814-2.688c1.342-.612 15.504 5.008 15.504 5.008s2.564.976 3.908 1.956c1.341.974.364-4.276.364-4.276s7.204 1.342 6.592 5.25c0 0 1.588-3.662 2.932-4.272 1.344-.612 4.515 3.296 5.25 4.638.61 1.224 16.116 3.175 18.312 4.518 0 0 1.71 1.956 1.71 3.298 0 0 3.297-.368 5.862-.368 0 0-1.954.972-1.954 3.052 0 1.956-.977 3.544-2.93 4.517-1.954.978 0 1.707 2.564 1.956 2.686.363 0 3.66-5.25 5.618 0 0-1.222 2.928.977 3.903 0 0-4.52.37-5.25-.975 0 0-1.584 3.052-1.584 4.64 0 0-4.884-1.59-6.228-2.32 0 0-1.954 1.95-.612 2.928 0 0-8.909-.975-10.62-4.272 0 0-3.175.975-2.565 2.076 0 0-6.225-4.272-8.178-4.272l-1.344 2.192s-4.272-2.562-5.616-2.562c-1.224 0-.244 1.953-.244 1.953l-5.98-3.664-2.318 3.664s-4.884-2.322-6.226-3.296c-1.224-.976-1.584 1.952-2.563 2.316 0 0-1.954-2.682-4.64-2.316 0 0-.975 3.294-.609 4.272 0 0-7.57-1.586-8.911-1.956-1.344-.364-.61 1.588 0 2.933 0 0-5.616-1.587-6.838-2.568l-.366 2.568s-4.635-.368-5.613-1.344l-2.93 4.026h-4.273l-.975 3.54s-7.38132-2.71434-8.05942-.86019c-.61 1.34-.48658 3.17919-.48658 3.17919l-6.06389-.40595-1.85992 3.26944s-8.19019-3.13306-10.14319-1.91306c0 0-3.87282 2.46038-5.58282 3.07038-2.1612-2.18179-3.79901-2.95902-5.89318-3.65281-2.15205-.33866-6.836 2.56-8.547 1.584 0 0 0-2.323-1.34-2.932-1.224-.612-3.54-.612-4.52.978 0 0-.972-1.344-2.683-3.908-1.586-2.688-3.908.244-3.908.244l-.366-3.176-4.518-.368c-2.686-.366-3.295-2.688-3.295-2.688s-6.958.732-7.935.37l1.708-1.59s-9.521 1.957-11.472 1.225c-2.076-.61 2.196-3.298 2.196-3.298s-8.791-2.193-10.5-2.562c-1.584-.366-11.11 1.582-12.454 1.582s-1.953-2.199-1.953-2.199-2.322 1.956-4.275 2.568c0 0-1.586-3.906-.608-4.274 0 0-6.226 1.71-6.593 3.3 0 0-1.584-2.564-1.344-3.664 0 0-2.928 4.64-4.272 5.616-1.344.977-.245-2.32-.245-2.32s-3.66 4.638-5.004 5.006v-3.298s-10.5 5.616-13.428 4.887c0 0 0-2.325.975-2.932l-6.593-.367c-1.584-.242-3.54-.972-5.248-1.342-1.584-.246 2.321-1.952 5.007-1.221 0 0-7.325-2.686-9.525-1.344 0 0-.977-2.685 2.928-3.664 0 0-5.006-4.881-7.937-4.517 0 0 3.3-1.952 5.985-.978 0 0-3.053-8.299-5.007-9.276 0 0 6.96-1.221 8.913-.24z" />
          <g
             id="g122"
             stroke="#000">
            <path
               id="path118"
               fill="#d67c59"
               d="m311.129 236 88.877-46.032c.426-2.38-.924-4.248-2.319-6.108-25.416 12.466-48.547 27.592-76.79 36.756-1.587.612-15.627 6.47-22.83 15.142-2.285 2.29-2.453 5.669-2.453 5.669s.175 3.876.99 4.923c0 0 .212 1.065 1.54 1.916-.015 0 .82.408 1.399.201.644.12 1.694.113 3.16-2.454 1.467-2.444 6.229-8.059 8.425-10.015z" />
            <path
               id="path120"
               fill="#e8e8e6"
               d="m382.673 190.46 11.474-5.496s3.909 2.93 3.54 6.228c0 0 .856 7.569 10.258 12.819 0 0-7.938 9.888-21.852 10.745 0 0 1.596-13.052-1.332-16.839 0 0-.489.468-.276-.18.415-1.27-.283-5.625-2.064-6.584-.219-.12.14-.475.252-.694z" />
          </g>
        </g>
        <path
           id="path126"
           stroke-width=".977"
           stroke="#4d4b4d"
           fill="none"
           d="m396.1 192.044c-2.44.977-10.376 5.127-10.376 5.127m6.597-2.69c-.124 1.22-.856 4.151 0 6.227m-1.104-5.856c0 .61-.976 2.808.123 5.74m-1.335-5.128c-.245 1.224-.487 1.956 0 3.3m-.984-2.568c-.244.732 0 1.1 0 1.584m7.2-1.956c.365.975 3.662 6.104 5.616 8.18m-5.124-5.864c.368.977 2.198 4.518 3.54 5.864m-3.78-3.788c.487 1.222 1.464 3.42 2.44 4.64m-2.44-2.192c.245.978.732 2.199 1.464 3.056" />
        <g
           id="g211"
           stroke-width=".509"
           stroke="#000">
          <path
             id="path128"
             transform="matrix(2.1428345 0 0 2.1428345 -193.61108 -86.803537)"
             stroke-width=".285043"
             fill="#d67c59"
             d="m312.52734 119.35352c-.75828.0912-1.44186.6095-2.21093 1.91992-1.34402 2.57042-1.01708 3.9726 3.04297 5.73242h.002l15.23437 7.46094c3.05344 1.48401 4.15252.11036 5.875.85937l30.06836 15.31641c2.5793 1.12748 4.02335 1.48805 3.65235 2.82226-.0507 1.72042.557 1.95664.97524 2.03774.64822.27124 1.14985.42447 1.28647-.32481.099-.14854-.0816-.38941-.27343-.70507-.19187-.31567-.39521-.7067-.34571-1.15235.0495-.44564.0858-.65542.23438-.89062.14855-.2352.40914-.49439.9043-1.03907.24758-.27233.48107-.3924.70312-.41406.22205-.0217.43361.0543.63477.17188.27742.16218.51938.3504.76757.52539 1.00235-.0807.10943-1.50373-.58593-2.04492-1.51295-.70888-1.68562.90033-3.2793.73047 0 0-2.84879-1.08166-3.875-1.82227-1.88909-1.02854-4.52728-2.24876-5.12695-2.91797-1.91989-.36027-16.37029-8.48872-24.55664-12.56836-.87828-.73454-1.35675-3.45327-3.08203-4.36328-.50681-.73361-11.58918-5.79384-17.38477-8.69141-1.06798-.39853-1.90187-.73381-2.66016-.64257z" />
          <g
             id="g177"
             transform="scale(1.2)"
             fill="#ffa54b">
            <path
               id="path130"
               transform="translate(.004 -.003)"
               fill-opacity=".98995"
               fill="#ad7c59"
               d="m309.73 165.12c-.203.61-.712.203-.712.408-.405 2.135-.305 3.253-.813 4.475-.712 1.424-3.256 2.748-3.154 2.645-2.033.61-4.474 3.054-8.44.814-.205-.1-.407-.306-.61-.508 0 0 1.116 4.17-2.95 6.204-1.425.713-15.77 8.244-15.77 8.244s-1.527 2.748-.51 6.512c.103.61.305 1.118-.305 1.526-.916.71-2.646 2.748-3.662 6.004 0 0-3.053-1.324-3.053-3.256 0-1.934 1.22-2.95 1.526-4.378.304-1.32 1.117-4.68.712-5.698-.406-1.12-2.238-1.526-2.95-1.933-.61-.41-1.425.405-1.322 1.32.103 1.02.813.813 1.628 1.02 0 0-.916 1.93-.813 3.355l-9.257 4.783s1.22 1.626 1.627 2.34c.405.712 1.32 10.175 4.07 14.653 2.746 4.478 3.662 3.257 4.272 3.867.508.508 1.32 1.32 2.034 1.934.712.51 3.865.812 4.477-.915.712-1.63 1.22-2.647 3.154-4.174 1.933-1.523 5.9-5.39 5.9-7.122 0 0 2.34 6.716 2.033 12.313 0 0 8.546 1.732 16.177 1.933 7.632.105 11.497-1.524 11.497-1.524s1.018-6.41.608-7.632c0 0 1.22 4.172 2.137 5.596 1.018 1.727 2.135 5.288 4.373 5.493 2.137.1 3.97-2.135 4.17-3.05v-6.717h8.648c0-.1 3.867 1.424 5.087 1.22 1.22-.102 1.933-1.22.813-1.628l-.405-.303c1.117 0 2.543.71 2.543.71h4.27c.104-.102 0-.41-.102-.51-.305-1.22-2.544-2.24-4.17-2.95-1.63-.608-3.46-1.323-4.68-1.423-1.933-.206-3.257-.1-6.207.408-.814.1-3.866.405-5.8 1.32-.51.307-1.02.407-.813-.915.306-1.426.204-7.835-1.32-10.583-1.12-1.932-1.018-3.562-.814-5.188.104-1.63.204-7.226 0-8.855-.306-1.627-2.544-3.867-6.61-4.375-3.867-.51-7.124-3.664-7.326-6.207-.305-2.542.408-7.223.814-9.257" />
            <g
               id="g148"
               fill="none">
              <path
                 id="path132"
                 transform="translate(.004 -.003)"
                 fill="#b68a6a"
                 d="m292.44 153.63c-.712 3.253-.712 6.104-.61 9.257.103 2.135 1.12 4.577 2.035 6.715.61 1.426 1.425 3.052 2.746 3.867 3.563 2.34 6.92-.204 8.853-1.018.916-.308 2.34-1.626 2.747-2.442.508-1.22.303-2.135.812-4.475-.103.1.813-.408.712-.408.916-1.526.712-2.034 1.22-3.054.51-1.018-.608-2.136-1.83-1.93.608-1.934 1.018-4.073.404-5.905-.202-.608.51-2.235-.608-1.832-4.58 1.832-9.97 1.426-14.854 1.426-.406 0-.712-.815-1.32-.71-.104 0-.205.303-.308.505" />
              <path
                 id="path134"
                 fill="#000"
                 d="m292.034 155.347c-.508-.406-.61-1.32 0-3.256.712-1.928 0-2.033 1.12-3.152 1.12-1.12.813-1.63 1.525-1.932.71-.206 2.848-.206 3.56-.508.61-.308 1.526-.714 2.948-.916 1.526-.308 4.58-.206 6.003.608 1.527.812 2.545 2.85 3.46 3.56 1.02.71 1.63 3.662 1.427 7.94-.307 4.27-1.12 3.457-1.12 3.457s-1.222-2.034-2.238-.308c0 0 0-1.627.203-2.85.102-1.218-.61-3.457.102-4.984 0 0-5.8 1.832-8.75 1.73-3.052-.203-7.323-.917-7.527-1.627l-.714 2.237" />
              <path
                 id="path136"
                 stroke="#fff"
                 fill="#fff"
                 d="m294.984 151.797c-.305-.61-1.832-2.85-.61-3.56 1.12-.613.407 2.744 1.936 3.457 0 0-.51 1.526-1.32.102z" />
              <path
                 id="path138"
                 d="m298.344 160.137c-.508 1.732-.712 2.138-.916 3.156m10.586 1.624c.204.61.404.303.914.405m.406-3.965c.51-.61 1.22-.303.813 1.223" />
              <path
                 id="path140"
                 d="m292.444 157.697c.916.303 1.832.608 2.748 1.02 1.526.61.61 2.845.204 4.27-.204.715-1.02 1.934-.61 2.547.51.81 1.12.303 2.036.403 0-.303.61-.508.813-.508.712-.1 1.12.507 1.627.307.61-.308.51-1.224.306-1.73m-.104-4.479c.102-.403 1.018-.81 1.526-.915 2.136-.405 3.66-.712 5.393.51m-5.699 11.085c-1.73.408-3.56.71-5.188-.206m-.002-.804c.813-.408 1.12-.816 2.137-.308 0-.102 1.12-.406 1.12-.406.813 0 1.323.304 2.137.812m-5.494.302c.916-.306 3.358-.306 5.394.102" />
              <g
                 id="g146"
                 stroke-width=".305">
                <path
                   id="path142"
                   stroke-width=".303709"
                   stroke-linejoin="round"
                   stroke-linecap="round"
                   fill="#fff"
                   d="m292.344 160.137c.713-.1 1.526-.916 3.154.306 1.12.712-1.832 1.426-1.322 1.324-1.32.202-1.73-.508-1.828-1.122 0-.202-.204-.508 0-.508zm8.34.81c.712-1.426 1.832-1.12 2.85-.816 1.018.307.712.106 1.628.614-1.12.203-.814.303-1.63.71-.915.408-1.728.61-2.34.206-.204-.206-.712-.508-.712-.916 0 .1.102.203.204.203z" />
                <path
                   id="path144"
                   fill="#000"
                   d="m293.764 161.357c.406 0 .712-.406.712-.814 0-.508-.306-.916-.712-.916-.507 0-.812.408-.812.916 0 .408.303.814.812.814zm8.65.2c.405 0 .712-.403.712-.916 0-.507-.407-.81-.813-.81-.405 0-.712.303-.712.81 0 .515.408.917.814.917z" />
              </g>
            </g>
            <g
               id="a">
              <g
                 id="g156"
                 fill="none">
                <path
                   id="path150"
                   d="m345.854 213.657c-.608-.714-1.018-1.02-1.83-1.324-.61-.303-1.424-.71-2.036-1.016-.712-.408-1.73-.508-2.34-.916m.406 2.646c-.306-.203-.508-.304-.812-.51-.306-.1-.712-.1-1.02-.203-.102 0-.102-.204-.203-.204-.916-.102-1.832-.51-2.44-1.32m-62.775-9.363c.914.71 3.152 2.24 3.356 5.19.204 1.525 1.02 3.05 1.02 3.05m-13.126-7.83c.51 1.727.61 7.425 6.003 13.43m-4.983-21.37c-.408 1.12-.916 2.137.202 2.95m14.448 10.69c1.12-2.545 4.578-2.342 4.578-4.782" />
                <path
                   id="path152"
                   d="m284.814 207.247c-.306-2.85-.916-4.475-.405-8.647.202-1.223.404-5.9 0-8.14 0 0 1.628 7.832-3.663 9.362m34.388 12.515c0-3.97.916-6.21.916-6.21 1.22-5.592-1.12-7.73-.203-9.154.812-1.22 2.035-3.766.407-8.854 0 0 2.847 10.483-4.478 10.483-7.425 0-7.12-2.748-7.12-2.748" />
                <path
                   id="path154"
                   d="m284.404 190.457c0 2.135 0 8.447 9.055 8.447 2.745 0 5.697-1.933 7.323-3.256m2.242-2.751c-.306-1.934-.306-4.375-.306-6.92m-13.634-3.45c2.44-.308 4.376-.61 8.955-.61m.305-6.32c.51 2.24-.304 5.8 3.866 6.31m4.374-7.12c-.61 1.63-.61 3.256-.814 4.375m.204 2.755c1.73 0 4.985-1.12 9.054-.306m1.426 22.786c.813 1.63 1.018 3.765 3.56 6.207m-31.74-11.397c.204 1.324-1.73 5.698-.306 9.262 1.322 3.558 1.12 7.63-1.12 11.088m6.616-19.02c-.813 1.626-2.238 3.256-2.544 4.68m6.604-1.63c0 1.018-2.744 8.75-4.68 10.886 0 0 3.56 1.424 3.05 6.614m7.33-21.06c0 1.324-.204 1.63.916 2.44m2.444 0c1.32 1.628 5.492 6.514 4.576 9.26m-7.326-6.51c.306 1.018.306 6.31-.61 8.955m-2.13-.205c-1.12 0-2.746.814-3.052 2.747m8.742-3.057c1.118-.306 3.355 1.626 3.355 7.123m15.675-10.273c-2.136.61-3.052 1.732-2.44 1.12-1.12.915-2.138 1.525-2.138 1.525" />
              </g>
              <path
                 id="path158"
                 stroke-width=".305"
                 fill="#000"
                 d="m289.794 197.987c.608 0 1.118-.408 1.118-.916 0-.41-.507-.815-1.118-.815-.51 0-1.02.405-1.02.816 0 .506.508.917 1.02.917zm23.1.31c.51 0 1.02-.405 1.02-.916 0-.504-.508-.81-1.02-.81-.607 0-1.118.306-1.118.81 0 .512.51.917 1.118.917z" />
              <path
                 id="path160"
                 fill="#e8e8e6"
                 d="m280.544 239.807c1.22-7.937 4.985-14.55 5.086-15.162 0 0 3.865.816 10.58 1.424 6.612.71 8.444.407 11.496.2 2.95-.302 6.815-.81 6.815-.81s1.222 2.44 1.323 4.883c.305 5.188 2.236 27.677 2.44 33.68 0 0 .813 3.56.813 12.31 0 9.568 2.645 29 2.645 39.382l-2.644.51s-14.446 1.12-14.446-.814c0-2.134-.813-27.065 1.322-42.125 0 0-.508-2.95-1.322-5.496-.813-2.443-4.375-10.074-4.375-11.7 0 0-5.695 16.073-6 18.825-.305 2.543-1.12 38.357-1.63 41.312 0 0-8.24 6.308-9.36 6.92-1.117.51-9.053-3.36-9.257-4.375-.306-1.118.814-13.23 4.578-33.176 1.425-7.123.61-8.44.61-10.375 0-1.933.103-27.473 1.322-35.41z" />
              <path
                 id="path162"
                 fill="none"
                 d="m294.274 274.917c-.61 2.24-1.628 4.375-3.56 5.803m-2.75-53.633c-.304 1.322-2.238 7.325-7.122 10.887m14.242-9.767c-1.12 3.562-5.493 22.693-6.31 45.383m-.3 7.127c-.204 2.135-1.322 18.012-1.628 20.756m-.812 3.054c-.51 1.117-2.746 10.375-2.746 18.62m32.246-35.92c-.204 1.933-1.02 15.668 3.56 27.98m-18.51-85.98c-.305 2.237-.813 16.688-.813 17.806 0 1.117 1.63 2.747 2.442 3.054 0 0-1.628.51-1.933 6.003m-4.076-12.923c-.308 1.727-1.934 8.547-3.054 11.295m13.124-25.435s4.884 1.018 5.188 0c0 0 1.628 29.512 3.866 45.89m-11.184-42.13c0 1.934-.61 16.485-.61 16.485m2.44 2.135s1.93 2.745 1.425 4.066m-17.805-28.076c1.63.508 3.053.812 3.053.812m5.187 1.628c-.307.814-.61 4.58-.61 4.58m8.75 38.87c.61.814 1.425 1.936.814 4.377" />
              <path
                 id="path164"
                 fill="#d67c59"
                 d="m284.914 224.447s0-3.256 1.22-4.886c0 0 3.457.715 8.342 1.223 4.984.508 8.95.916 12.615.508 3.664-.405 7.43-1.32 7.43-1.32s1.016 4.783.505 5.495c0 0-3.968.814-8.34 1.016-4.478.304-11.903-.407-14.446-.81-3.36-.41-6.31-1.02-7.326-1.223z" />
              <path
                 id="path166"
                 fill="#fff"
                 d="m288.064 224.847.608-4.883 1.02.1-.204 5.088zm22.08-4.07.103 5.496 1.22-.206-.1-5.597zm-15.67 0-.406 5.29h.713l.713-5.29z" />
              <path
                 id="path168"
                 stroke-width=".509"
                 stroke="#000"
                 fill="#653024"
                 d="m276.774 320.80699c-.305 1.322-.812 3.154-1.018 5.496 0 .508-.507 3.256 1.018 3.356 1.12.102 1.425-2.85 1.425-2.85s-1.02 3.256.304 3.664c1.832.403 2.034-3.562 2.034-3.562-.204 1.12-1.425 3.97.306 4.27 1.83.308 2.34-3.866 2.34-3.866s-1.526 4.174.304 4.275c1.73.1 1.73-4.07 1.73-4.07s-.917 4.987 1.525 4.58c1.32-.204 1.628-1.935 1.933-2.952.406-1.524 1.322-3.457.204-6.612-.812-2.34-.507-2.95-.507-2.95s-2.85 2.137-5.087 3.56c-1.02.61-6.514-2.34-6.514-2.34zm29.71-4.38c-.508-.307-.406 1.832-.61 2.846-.102 1.02.205 3.257 3.664 3.055 3.355-.307 6.715-1.018 8.85-.51 2.138.61 5.29.712 7.022.712 1.73 0 2.85-.202 3.66-.51.714-.302 2.24.41 2.95.41.714 0 1.832-1.12 1.73-1.833-.102-1.324-1.32-1.324-3.053-1.424-1.628-.203-3.865-.51-4.983-.916-1.12-.408-3.154-1.527-5.698-2.035 0 0-4.883.205-5.898.205-1.02 0-7.022.303-7.634 0z" />
            </g>
            <g
               id="g175"
               stroke-linecap="round"
               fill="#ad7c59">
              <path
                 id="path171"
                 stroke-linejoin="round"
                 d="m255.714 189.847c-.507.306-1.12-2.035.406-2.95 0 0 .406-1.932 2.035-2.137 0 0 1.32-1.832 3.257-1.626 0 0 2.235-1.525 3.05-1.324.813.102 2.85 2.136 2.95 2.85.205.71 0 1.933-.51 2.442-.61.608-1.018-.102-1.12-.916 0 0 .408 1.524-.812 2.135-1.22.715-1.12.207-1.22-.61 0 0-.307 1.63-1.12 1.833-.813.305-1.32-.408-1.934-.408 0 0 1.02.816.307 1.426-.713.51-1.526.304-2.036-.1-.51-.51-1.12-1.833-3.257-.61z" />
              <path
                 id="path173"
                 d="m265.684 186.087c-.51-1.63-2.137-3.054-4.07-2.848m2.24 4.368c-.306-.408-.408-.816-.712-1.22-.916-1.528-2.85-1.424-4.477-1.832m2.439 4.582c-.61-.406-.813-1.222-1.425-1.524-1.02-.408-2.035-.916-3.256-.714" />
            </g>
          </g>
          <g
             id="g209"
             transform="matrix(1.2 0 0 1.2 .005 -.004)">
            <path
               id="path179"
               fill="#653024"
               d="m439.14 165.12c.712-.306.51.61.61.916.306 1.32.306 2.748.813 3.967.608 1.12.812 1.526 1.83 2.035 1.627.916 6.407 3.562 9.767 1.424.204-.1.508-.306.712-.508 0 0-1.22 4.172 2.95 6.207 1.32.71 15.668 8.242 15.668 8.242s1.525 2.748.61 6.512c-.205.61-.406 1.118.203 1.526 1.02.71 2.644 2.748 3.766 6.004 0 0 2.946-1.324 2.946-3.256 0-1.934-1.22-2.95-1.525-4.375-.2-1.324-1.016-4.682-.607-5.698.405-1.118 2.135-1.526 2.847-1.936.714-.41 1.526.405 1.322 1.32-.102 1.02-.812.817-1.628 1.02 0 0 1.02 1.93.814 3.355l9.358 4.783s-1.22 1.63-1.628 2.34c-.51.715-1.425 10.175-4.17 14.653-2.75 4.478-3.664 3.257-4.172 3.867-.61.508-1.424 1.324-2.137 1.934-.61.51-3.765.815-4.477-.915-.712-1.628-1.22-2.647-3.153-4.174-1.934-1.523-5.9-5.39-5.9-7.122 0 0-2.34 6.72-2.035 12.313 0 0-8.443 1.732-16.176 1.937-7.632.102-11.498-1.528-11.498-1.528s-1.018-6.41-.61-7.632c0 0-1.22 4.172-2.033 5.596-1.12 1.727-2.237 5.29-4.376 5.493-2.236.104-3.968-2.135-4.27-3.05v-6.717h-8.647c0-.1-3.766 1.424-5.087 1.223-1.22-.105-1.832-1.223-.813-1.63l.407-.304c-1.12 0-2.544.71-2.544.71h-4.272c0-.102.103-.41.103-.51.308-1.218 2.546-2.24 4.273-2.95 1.628-.608 3.356-1.323 4.578-1.423 1.934-.203 3.257-.1 6.207.408.812.1 3.967.408 5.798 1.322.508.304 1.118.405.813-.915-.305-1.426-1.22-5.598.307-8.346 1.018-1.933.916-3.56.813-5.19-.204-1.728-1.118-5.597-1.118-7.324 0-5.7 4.375-8.04 8.24-9.262 4.272-1.32 7.12-2.748 6.92-5.288-.104-2.646.608-7.02.202-9.058" />
            <g
               id="g195"
               fill="none">
              <path
                 id="path181"
                 fill="#653024"
                 d="m456.34 153.63c.916 3.356 1.12 4.17 1.12 5.29 0 1.22-.51 1.425-.104 2.75.713 2.44-.712 5.087-2.44 7.936-.814 1.32-1.425 3.052-2.747 3.866-3.357 2.135-7.428-.408-9.564-1.327-1.117-.505-1.73-1.32-2.033-2.135-.407-1.22-.51-2.34-.813-3.967 0-.306.103-1.22-.61-.916-1.22-1.424-1.017-2.034-1.523-3.05-.51-1.022.916-2.14 2.034-1.935-.61-1.933-.915-4.072-.305-5.904.204-.608-.508-2.235.51-1.832 4.577 1.832 9.97 1.426 14.854 1.426.403 0 .71-.812 1.32-.71.097 0 .2.305.3.508" />
              <path
                 id="path183"
                 fill="#000"
                 d="m456.75 155.35c.508-.406.204-2.34-.306-4.375-.203-1.017-1.018-1.424-2.136-2.542-1.12-1.122-1.525-1.122-2.236-1.424-.61-.207-2.034-.207-2.746-.51-.61-.307-2.238-.104-3.766.102-2.036.304-3.153.202-4.68 1.018-1.525.814-2.745 1.73-3.255 3.256-.406 1.118-1.12 2.542-.814 6.817.205 4.272 1.02 3.458 1.02 3.458s1.12-1.627 1.832-.61c0 0-.103-2.24-.305-3.56-.103-1.222 0-2.748.51-4.58 0 0 4.678 1.732 9.053 1.732 3.053 0 7.02-.306 7.123-1.017l.71 2.235z" />
              <path
                 id="path185"
                 d="m450.44 160.14c.61 1.732.104 1.222.408 2.34m-10.278 2.03c0 .812-.61.61-1.02.61" />
              <path
                 id="path187"
                 d="m456.85 158.82c-.916-.713-2.645-.204-3.46.102-1.525.71-.712 2.24-.204 3.664.204.71 1.02 1.727.51 2.44-.406.813-.712.41-1.628.51.104-.307-.812 0-1.117 0-.61-.1-.915.404-1.425.203-.608-.305-.508-1.22-.306-1.73m.1-4.479c0-.403-1.32-.81-2.745-.915-2.238-.102-2.442.104-4.172 1.322m11.497 8.953c-.405-.608-1.018-.916-2.137-.405 0-.204-1.524-.406-1.524-.406-.813 0-1.322.302-2.137.71m5.588.611c-.916-.61-3.256-.2-5.596-.2m.206.81c1.73.512 3.46.816 5.188 0" />
              <g
                 id="g193"
                 stroke-width=".305">
                <path
                   id="path189"
                   stroke-linejoin="round"
                   stroke-linecap="round"
                   fill="#fff"
                   d="m456.44 160.14c-.712-.1-1.018-.916-3.153.306-1.12.61 1.832 1.426 1.425 1.324 1.22.202 1.628-.508 1.73-1.122-.002-.203.202-.508-.002-.508zm-8.34.81c0-.816-1.83-1.12-2.847-.816-1.02.306-.61.105-1.526.613 1.02.203.712.303 1.526.71.914.408 1.12.814 2.34.206.305-.105.71-.508.812-.916-.1.1-.202.203-.305.203z" />
                <path
                   id="path191"
                   fill="#000"
                   d="m455.12 161.36a.802.802 0 0 1 -.813-.814c0-.508.307-.916.813-.916.405 0 .712.408.712.916 0 .408-.307.814-.712.814zm-8.75.2c-.406 0-.712-.403-.712-.916 0-.508.403-.81.812-.81.41 0 .712.302.712.81 0 .514-.303.916-.812.916z" />
              </g>
            </g>
            <use
               id="use197"
               xlink:href="#a"
               width="100%"
               transform="matrix(-1 0 0 1 748.816 0)"
               height="100%"
               fill="#d67c59" />
            <g
               id="g207"
               fill="#653024">
              <path
                 id="path199"
                 stroke-linecap="round"
                 d="m491.64 193.51c.508.206 1.934-2.033.508-3.05 0 0-.508-1.933-2.136-2.035 0 0-1.322-1.933-3.257-1.63 0 0-2.136-1.524-2.948-1.42-.916.2-2.95 2.236-3.053 2.95-.102.608 0 1.83.508 2.44.61.51 1.02-.104 1.12-1.02 0 0-.406 1.53.812 2.24 1.22.71 1.12.1 1.22-.71 0 0 .307 1.626 1.12 1.932.813.303 1.322-.408 1.935-.408 0 0-1.02.814-.306 1.323.713.61 1.525.303 2.035-.104.61-.405.305-1.728 2.44-.51z" />
              <path
                 id="path201"
                 stroke-linejoin="round"
                 stroke-linecap="round"
                 d="m482.49 189.75c.506-1.73 2.235-3.153 4.067-2.85m-2.137 4.38c.203-.41.305-.816.61-1.224.915-1.524 2.948-1.524 4.576-1.832m-2.546 4.476c.61-.408.814-1.118 1.426-1.42 1.018-.513 2.136-.917 3.256-.715" />
              <path
                 id="path203"
                 stroke="none"
                 d="m482.31 186.77c-.896.716-1.837 1.798-1.906 2.28-.103.61-.008 1.828.5 2.44.55.46.95-.018 1.095-.782-.06.463-.072 1.465.843 2 1.22.71 1.118.095 1.22-.72 0 0 .31 1.636 1.124 1.94.813.305 1.325-.407 1.938-.407 0 0-1.026.805-.312 1.313.712.61 1.522.31 2.03-.094.61-.41.3-1.723 2.44-.5.266.105.803-.453 1.03-1.157l-7.688-5.53z" />
              <path
                 id="path205"
                 d="m480.68 188.19c-1.502 2.582.5 4.132 1.164 2.62-.193 2.385 1.606 2.29 2.285 1.537.657 2.512 1.83 1.395 2.908 1.164-1.223 2.29 1.48 1.61 2.12 1.082.924-1.362 1.356-.277 2.036-.416l1.164-1.247m-7.977-5.7c-1.686.896-2.512 2.137-2.535 3.7m4.865-2.2c-1.687.896-2.512 2.137-2.535 3.7m5.405-1.75c-1.687.897-1.765 1.722-2.493 2.826" />
            </g>
          </g>
        </g>
        <g
           id="g217"
           fill="#ffe682">
          <path
             id="path213"
             d="m449.333 452.372c27.47.246 43.709-9.768 52.62-15.752 20.876-14.04 25.272-14.528 28.692-14.287 3.907.372 9.64 1.712 9.888 5.132.366 5.251-8.18 7.57-13.065 7.57-5.004 0-18.07-3.298-18.07-3.298l-3.42 2.323c2.32 1.1 29.058 10.01 34.185 1.588 5.247-8.548 10.5-22.348 10.5-22.348s-5.86-10.5-18.926-10.5c-13.185 0-26.004 8.304-34.548 14.526-8.549 6.228-19.29 14.775-47.861 14.775-28.567 0-39.432-8.547-47.976-14.775-8.544-6.225-21.366-14.527-34.428-14.527-13.183 0-19.044 10.5-19.044 10.5s5.248 13.8 10.498 22.348c5.126 8.421 31.866-.49 34.182-1.589l-3.296-2.323s-13.184 3.297-18.07 3.297c-5.006 0-13.552-2.318-13.185-7.568.245-3.42 5.981-4.764 9.888-5.131 3.42-.24 7.815.248 28.69 14.287 8.916 5.983 25.154 15.63 52.745 15.752" />
          <path
             id="path215"
             d="m405.137 420.008s0-2.325-.37-5.74c-.487-4.396-3.05-5.495-5.124-4.883-1.344.482-4.028 3.785-4.028 3.785v.123a38.836 38.836 0 0 0 -3.786-2.32c.977-1.1 6.593-4.517 7.935-4.517 1.224 0 18.07 6.836 23.439 11.474 1.344 1.224 2.322 8.794 1.586 11.232-9.033-2.318-14.892-5.736-19.656-9.034v-.122m-8.06 17.102s-3.664 3.66-3.784 10.378c-.123 7.936 5.616 8.304 9.401 8.18 4.518-.124 8.178-2.685 8.058-11.11 0 0-7.45-3.177-13.676-7.449m96.337-17.099s.123-2.325.49-5.74c.483-4.396 2.927-5.495 5.003-4.883 1.344.482 4.028 3.785 4.028 3.785v.123a38.654 38.654 0 0 1 3.782-2.32c-.974-1.1-6.588-4.517-7.812-4.517-1.342 0-18.188 6.836-23.56 11.474-1.225 1.224-2.2 8.794-1.587 11.232 9.156-2.318 14.892-5.736 19.656-9.034v-.122m8.052 17.102s3.663 3.66 3.785 10.378c.244 7.936-5.619 8.304-9.4 8.18-4.52-.124-8.058-2.685-8.058-11.11 0 0 7.448-3.177 13.675-7.449" />
        </g>
        <path
           id="path219"
           fill="#171696"
           d="m389.14 431.732s-13.064 3.298-17.946 3.298c-5.004 0-13.552-2.316-13.185-7.57.246-3.42 5.983-4.76 9.89-5.126 2.929-.248 6.715.12 21.243 9.398m120.263 0s13.062 3.298 18.07 3.298c4.883 0 13.427-2.316 13.061-7.57-.242-3.42-5.98-4.76-9.888-5.126-2.931-.248-6.716.12-21.243 9.398m-104.268-11.604c-1.344-.976-2.686-1.956-3.91-2.928-1.83-1.346-3.662-2.568-5.616-3.908 0 0 2.685-3.42 4.027-3.787 2.076-.732 4.638.363 5.124 4.76.369 3.42.369 5.866.369 5.866m-8.91 34.437c2.323 1.344 4.884 1.224 6.473 1.1 4.518-.123 8.179-2.686 8.058-11.11 0 0 5.613 2.808 14.772 5.006 0 0 1.464 1.83 1.707 5.492.37 3.056-1.709 6.348-4.148 6.108 0 0-12.821-2.321-20.632-3.66-4.519-.855-6.228-2.933-6.228-2.933m97.186-34.443c1.341-.976 2.685-1.956 4.026-2.928 1.71-1.346 3.54-2.568 5.493-3.908 0 0-2.684-3.42-4.027-3.787-2.076-.732-4.518.363-5.004 4.76-.368 3.418-.49 5.865-.49 5.865m8.906 34.438c-2.32 1.344-4.884 1.224-6.472 1.1-4.517-.123-8.057-2.686-8.057-11.11 0 0-5.616 2.808-14.652 5.006 0 0-1.584 1.83-1.83 5.492-.243 3.056 1.833 6.348 4.152 6.108 0 0 12.94-2.321 20.632-3.66 4.518-.855 6.226-2.933 6.226-2.933" />
        <g
           id="g237"
           stroke-width=".8544"
           stroke="#000"
           fill="none">
          <path
             id="path221"
             d="m449.333 452.372c27.471.244 43.709-9.771 52.62-15.752 20.876-14.04 25.272-14.527 28.69-14.285 3.908.366 9.647 1.71 9.887 5.128.369 5.249-8.178 7.567-13.064 7.567-5.004 0-18.068-3.292-18.068-3.292l-3.418 2.321c2.32 1.1 29.054 10.012 34.182 1.584 5.25-8.546 10.498-22.344 10.498-22.344s-5.86-10.503-18.924-10.503c-13.184 0-26.004 8.306-34.55 14.532-8.545 6.228-19.285 14.774-47.857 14.774-28.568 0-39.432-8.548-47.976-14.774-8.546-6.226-21.368-14.532-34.428-14.532-13.184 0-19.044 10.504-19.044 10.504s5.247 13.797 10.498 22.344c5.127 8.424 31.866-.486 34.183-1.584l-3.294-2.322s-13.188 3.292-18.068 3.292c-5.008 0-13.553-2.314-13.188-7.568.246-3.42 5.982-4.762 9.89-5.13 3.416-.242 7.812.247 28.688 14.286 8.916 5.985 25.152 15.632 52.743 15.752z" />
          <path
             id="path223"
             d="m389.14 431.732s-13.065 3.298-17.944 3.298c-5.006 0-13.552-2.32-13.188-7.57.246-3.42 5.983-4.764 9.89-5.126 2.928-.248 6.714.12 21.243 9.398zm120.253 0s13.064 3.298 18.07 3.298c4.883 0 13.427-2.32 13.063-7.57-.245-3.42-5.98-4.764-9.886-5.126-2.93-.248-6.718.122-21.242 9.398zm-104.256-11.604c-1.344-.976-2.686-1.956-3.91-2.928-1.827-1.346-3.66-2.568-5.616-3.908 0 0 2.688-3.42 4.029-3.787 2.076-.732 4.638.363 5.124 4.764.372 3.413.372 5.86.372 5.86z" />
          <path
             id="path225"
             d="m405.137 420.008s0-2.323-.37-5.74c-.485-4.396-3.05-5.495-5.124-4.883-1.344.487-4.032 3.785-4.032 3.785v.123a39.852 39.852 0 0 0 -3.783-2.32c.976-1.1 6.592-4.517 7.936-4.517 1.224 0 18.069 6.836 23.44 11.478 1.344 1.224 2.32 8.79 1.586 11.234-9.036-2.326-14.895-5.743-19.66-9.036m-8.057 16.976s-3.66 3.66-3.783 10.378c-.123 7.932 5.616 8.302 9.4 8.18 4.518-.124 8.177-2.685 8.06-11.115 0 0-7.448-3.175-13.675-7.449z" />
          <path
             id="path227"
             d="m400.133 438.932s-2.928 3.052-3.417 8.058c-.244 3.909 2.319 6.104 5.616 5.86 4.638-.24 6.472-6.59 4.272-10.132z" />
          <path
             id="path229"
             d="m396.22 454.568c2.322 1.344 4.882 1.222 6.471 1.1 4.518-.125 8.177-2.688 8.06-11.112 0 0 5.617 2.808 14.773 5.006 0 0 1.466 1.83 1.707 5.496.369 3.052-1.707 6.348-4.147 6.103 0 0-12.822-2.32-20.633-3.66-4.521-.858-6.23-2.931-6.23-2.931zm97.189-34.44c1.344-.976 2.685-1.956 4.028-2.928 1.711-1.346 3.54-2.568 5.496-3.908 0 0-2.685-3.42-4.03-3.787-2.075-.732-4.517.363-5.003 4.764a112.291 112.291 0 0 0 -.488 5.86h-.002z" />
          <path
             id="path231"
             d="m493.409 420.008s.123-2.323.49-5.74c.485-4.396 2.927-5.495 5.003-4.883 1.344.487 4.028 3.785 4.028 3.785v.123a39.852 39.852 0 0 1 3.784-2.32c-.976-1.1-6.591-4.517-7.814-4.517-1.344 0-18.188 6.836-23.56 11.478-1.225 1.224-2.2 8.79-1.587 11.234 9.156-2.326 14.892-5.743 19.656-9.036m8.052 16.976s3.663 3.66 3.785 10.378c.244 7.932-5.619 8.302-9.402 8.18-4.517-.124-8.056-2.685-8.056-11.115 0 0 7.446-3.175 13.673-7.449z" />
          <path
             id="path233"
             d="m498.413 438.932s2.93 3.052 3.42 8.058c.367 3.909-2.323 6.104-5.619 5.86-4.638-.24-6.348-6.59-4.272-10.132z" />
          <path
             id="path235"
             d="m502.313 454.568c-2.32 1.344-4.884 1.222-6.472 1.1-4.515-.125-8.054-2.688-8.054-11.112 0 0-5.619 2.808-14.65 5.006 0 0-1.586 1.83-1.831 5.496-.244 3.052 1.831 6.348 4.152 6.103 0 0 12.94-2.32 20.628-3.66 4.52-.858 6.228-2.931 6.228-2.931z" />
        </g>
        <path
           id="path239"
           stroke-width=".854"
           stroke="#fff"
           fill="none"
           d="m424.553 451.76s4.028 2.934-.855 6.596m-11.23-8.552 12.332 5.374m-10.267-2.566 9.031 3.905m-5.851-6.22 6.836 3.056m49.564-1.593s-4.152 2.934.732 6.596m11.232-8.552-12.331 5.374m10.375-2.566-9.033 3.905m5.745-6.22-6.715 3.056" />
        <g
           id="g245"
           stroke="#000">
          <path
             id="path241"
             stroke-width=".84"
             d="m376.277 414.2c.175.284.288.58.342.884.045.31.033.656-.036 1.038-.175.907-.66 1.586-1.449 2.054-.792.466-1.7.594-2.704.402a4.6 4.6 0 0 1 -1.36-.482 5.436 5.436 0 0 1 -1.109-.744c-.134.16-.276.312-.417.471-.196-.036-.392-.074-.586-.111.188-1.182.374-2.364.57-3.545.192.036.392.072.594.114.036.458.112.873.209 1.257.092.384.252.748.462 1.11.2.33.453.618.768.851.305.232.684.396 1.134.478.338.067.64.078.915.036.264-.04.498-.12.678-.252.184-.132.341-.298.461-.5.115-.197.198-.431.252-.722a2.136 2.136 0 0 0 -.132-1.217c-.163-.403-.473-.735-.9-1.008a63.561 63.561 0 0 0 -1.014-.627 14.18 14.18 0 0 1 -.984-.631c-.535-.372-.933-.792-1.172-1.288-.245-.482-.309-1.064-.178-1.747a2.556 2.556 0 0 1 .453-1.044c.224-.316.512-.564.861-.777a3.156 3.156 0 0 1 1.122-.405c.414-.066.833-.06 1.252.02.477.089.9.246 1.251.463.348.22.668.447.941.705l.396-.432c.197.036.389.072.588.113l-.591 3.424c-.197-.04-.396-.075-.597-.115a14.045 14.045 0 0 0 -.144-1.193 4.446 4.446 0 0 0 -.344-1.071 2.429 2.429 0 0 0 -.643-.821c-.267-.226-.628-.376-1.073-.462a1.722 1.722 0 0 0 -1.275.22c-.381.24-.618.558-.698.984-.084.441-.046.83.11 1.164.152.338.413.632.78.9.324.24.653.446.976.638.32.192.624.384.924.588.268.178.532.372.772.588.232.211.436.444.592.692m14.979 2.1a4.508 4.508 0 0 0 -.581-.218 1.758 1.758 0 0 0 -.696-.106c-.204.017-.416.168-.643.444a7.092 7.092 0 0 0 -.715 1.092c-.732 1.328-1.47 2.657-2.201 3.988-.281.506-.631.888-1.054 1.146-.42.26-.876.408-1.356.456-.474.05-.924.012-1.368-.092a5.204 5.204 0 0 1 -1.18-.46c-.556-.307-1.02-.648-1.376-1.036-.356-.393-.624-.787-.776-1.197a2.782 2.782 0 0 1 -.195-1.215 2.59 2.59 0 0 1 .324-1.108l2.994-5.424a1.13 1.13 0 0 0 .136-.426c.002-.123-.054-.276-.156-.444a1.872 1.872 0 0 0 -.336-.382c-.154-.125-.274-.226-.384-.295l.252-.46c1.296.714 2.582 1.426 3.876 2.136l-.254.456a3.88 3.88 0 0 0 -.492-.192 2.416 2.416 0 0 0 -.465-.132c-.176-.026-.324 0-.438.1-.12.096-.216.206-.294.348-.932 1.692-1.867 3.38-2.798 5.071a4.166 4.166 0 0 0 -.336.816c-.101.3-.13.612-.099.932.036.336.168.648.376.96.211.312.574.609 1.082.888.476.264.924.416 1.332.447.406.024.772-.024 1.096-.168a2.484 2.484 0 0 0 .78-.522 3.168 3.168 0 0 0 .534-.706l2.076-3.764c.264-.48.449-.89.544-1.236.1-.342.103-.588.024-.763-.088-.196-.257-.396-.483-.597a4.435 4.435 0 0 0 -.554-.44l.252-.456c1.268.696 2.534 1.395 3.804 2.096l-.252.461m5.388 9.326c.162.334.257.7.264 1.088.006.39-.106.794-.346 1.212-.24.42-.542.732-.912.94a2.73 2.73 0 0 1 -1.17.347 3.672 3.672 0 0 1 -1.233-.114 5.04 5.04 0 0 1 -1.224-.498l-4.359-2.51.264-.456c.108.055.264.12.484.204.216.089.377.137.482.151a.674.674 0 0 0 .427-.08.89.89 0 0 0 .305-.336c1.253-2.172 2.506-4.352 3.759-6.526a1.176 1.176 0 0 0 .15-.425.696.696 0 0 0 -.142-.439 2.098 2.098 0 0 0 -.35-.398c-.144-.125-.26-.226-.366-.296.084-.15.175-.302.261-.452 1.414.812 2.83 1.627 4.248 2.446.329.19.624.4.892.636.259.24.48.516.66.832.168.298.269.624.278.972.012.35-.078.714-.288 1.08a2.256 2.256 0 0 1 -.668.744 2.106 2.106 0 0 1 -.864.364c-.3.06-.606.066-.928.036a4.156 4.156 0 0 1 -.993-.208l-.036.06c.25.186.507.417.777.702.269.294.484.6.631.924zm-.783-2.272c.272-.094.495-.226.682-.408a3.49 3.49 0 0 0 .54-.72c.284-.5.372-.972.26-1.416-.108-.452-.468-.84-1.063-1.184-.135-.076-.312-.177-.523-.292-.216-.12-.396-.214-.53-.284l-2.016 3.495c.273.156.542.312.818.468.358.207.684.336.989.393.307.053.588.042.845-.054zm-.764 3.416a2.028 2.028 0 0 0 .216-1.636c-.164-.56-.59-1.028-1.274-1.423a43.119 43.119 0 0 0 -.701-.396c-.192-.102-.339-.176-.437-.228-.617 1.073-1.228 2.136-1.843 3.202a.776.776 0 0 0 -.024.797c.141.264.408.506.806.732.64.372 1.242.476 1.798.3.557-.18 1.039-.62 1.458-1.347zm23.639 5.396a4.32 4.32 0 0 0 -.6-.158 1.788 1.788 0 0 0 -.701-.036c-.2.036-.396.209-.598.506a7.332 7.332 0 0 0 -.602 1.158l-1.793 4.188c-.228.532-.54.948-.932 1.248a3.216 3.216 0 0 1 -1.305.588 4.032 4.032 0 0 1 -1.37.039 5.126 5.126 0 0 1 -1.224-.336c-.58-.25-1.075-.546-1.47-.897-.394-.356-.696-.72-.893-1.113a2.782 2.782 0 0 1 -.312-1.188 2.602 2.602 0 0 1 .21-1.14l2.44-5.693a1.128 1.128 0 0 0 .096-.432.888.888 0 0 0 -.198-.428 1.997 1.997 0 0 0 -.376-.348c-.164-.108-.293-.198-.408-.256.069-.16.136-.324.204-.48l4.068 1.742c-.072.159-.138.32-.209.478a4.314 4.314 0 0 0 -.507-.144 2.885 2.885 0 0 0 -.475-.084c-.18-.012-.324.031-.428.14a1.192 1.192 0 0 0 -.256.377c-.76 1.774-1.52 3.547-2.278 5.323a4.24 4.24 0 0 0 -.26.84 2.226 2.226 0 0 0 0 .942c.07.33.229.627.469.917.242.288.63.55 1.166.777.502.218.965.321 1.375.312.402-.016.764-.099 1.068-.276.288-.166.54-.36.729-.594.188-.23.345-.485.462-.756.564-1.32 1.128-2.633 1.692-3.95.216-.505.357-.93.42-1.282.06-.354.043-.598-.055-.762-.108-.188-.293-.369-.54-.546a4.652 4.652 0 0 0 -.593-.384l.204-.478 3.991 1.709a15.44 15.44 0 0 0 -.209.476m11.482 13.49c-1.5-.433-3.005-.87-4.506-1.304l.144-.504c.168.041.379.084.645.132.26.041.452.054.564.034a1.013 1.013 0 0 0 .418-.22.89.89 0 0 0 .228-.403l2.117-7.324a1.723 1.723 0 0 0 -.11-.03c-1.971 2.536-3.988 5.034-5.962 7.572-.118-.033-.234-.07-.358-.103-.24-3.24-.543-6.475-.783-9.711a.89.89 0 0 0 -.094-.027c-.578 2.004-1.16 4.005-1.736 6.012-.168.576-.258 1.024-.27 1.356-.018.327.038.574.148.751.076.132.27.285.576.474.303.189.504.294.604.33l-.146.503-4.119-1.188c.048-.171.099-.34.147-.506.222.04.462.074.714.089.252.02.453-.002.616-.075.204-.087.375-.248.524-.511.139-.256.302-.703.487-1.344l1.488-5.153c.086-.297.12-.548.104-.76a1.186 1.186 0 0 0 -.175-.551 1.534 1.534 0 0 0 -.466-.44 2.549 2.549 0 0 0 -.612-.294l.144-.504 3.473 1.005c.228 2.803.519 5.604.744 8.408 1.426-1.875 2.892-3.723 4.32-5.6.16-.208.312-.425.449-.666a3.54 3.54 0 0 0 .25-.477c1.107.32 2.22.641 3.324.963l-.144.501a4.822 4.822 0 0 0 -.528-.081 2.982 2.982 0 0 0 -.49-.028.55.55 0 0 0 -.413.192 1.171 1.171 0 0 0 -.21.406l-2.1 7.26a.989.989 0 0 0 -.036.44c.027.13.108.258.245.393.074.074.216.16.425.261.211.108.374.177.504.223-.05.162-.1.332-.149.5m10.913-3.314c.276.246.507.546.663.903s.216.773.154 1.248a2.52 2.52 0 0 1 -.476 1.221 2.868 2.868 0 0 1 -.944.774 3.808 3.808 0 0 1 -1.185.375c-.437.06-.876.068-1.323.012-1.663-.209-3.324-.42-4.987-.627l.065-.522c.12.008.292.008.528 0 .23-.002.402-.02.504-.048a.653.653 0 0 0 .362-.24.902.902 0 0 0 .153-.424c.312-2.49.624-4.98.938-7.473a1.212 1.212 0 0 0 -.024-.45.712.712 0 0 0 -.303-.351 2.076 2.076 0 0 0 -.477-.23c-.183-.06-.326-.111-.451-.133l.065-.52 4.866.613c.374.048.727.128 1.071.246.33.12.64.285.927.51.267.208.492.472.636.788.144.32.195.686.144 1.106a2.17 2.17 0 0 1 -.978 1.618c-.255.172-.54.293-.843.391a4.26 4.26 0 0 1 -.996.195l-.012.066c.3.076.627.188.99.348.354.162.671.36.932.602zm-1.601-1.792c.212-.19.372-.401.475-.64a3.46 3.46 0 0 0 .216-.876c.072-.569-.03-1.032-.307-1.404-.276-.374-.752-.592-1.438-.678a34.08 34.08 0 0 0 -.591-.07l-.61-.057c-.168 1.334-.333 2.669-.504 4.002.316.038.627.077.936.117a3.2 3.2 0 0 0 1.07-.021c.298-.067.549-.19.752-.375zm.617 3.447c.075-.615-.072-1.14-.432-1.593-.37-.453-.943-.72-1.725-.819-.32-.04-.584-.072-.801-.093-.221-.024-.382-.036-.496-.045-.156 1.227-.307 2.446-.46 3.669a.782.782 0 0 0 .287.744c.232.187.576.308 1.028.364.734.096 1.326-.04 1.77-.42.446-.384.722-.976.828-1.804zm14.292 3.301h-2.865c-.624-.99-1.206-1.821-1.707-2.544-.513-.716-1.075-1.437-1.67-2.204h-1.087v3.324c0 .168.032.324.082.448.054.132.174.234.354.304.088.036.246.064.47.096.226.028.416.045.57.052v.526h-4.488v-.526c.118-.007.29-.028.525-.052.225-.024.381-.06.471-.096a.64.64 0 0 0 .327-.28.928.928 0 0 0 .096-.473v-7.577c0-.168-.022-.324-.072-.46-.054-.13-.168-.232-.354-.3a2.784 2.784 0 0 0 -.486-.124 3.789 3.789 0 0 0 -.508-.069v-.524h4.902c.448 0 .868.04 1.266.132.396.098.748.24 1.068.444.306.2.56.446.74.768.183.317.277.7.277 1.152 0 .408-.063.758-.185 1.07a2.216 2.216 0 0 1 -.556.804c-.22.22-.495.389-.807.549-.312.156-.66.285-1.038.398.516.689.962 1.256 1.308 1.726.338.468.776 1.03 1.272 1.704a3.156 3.156 0 0 0 1.124 1c.125.071.292.112.485.146.197.036.36.054.487.06-.002.172-.002.348-.002.524zm-3.936-7.807c0-.632-.192-1.128-.552-1.512-.364-.372-.89-.554-1.564-.554h-1.272v4.49h.98c.688 0 1.27-.207 1.721-.65.452-.442.69-1.025.69-1.773zm16.164 7.027-4.404.336c-.012-.176-.024-.352-.039-.528.388-.05.706-.123.963-.22.246-.095.368-.191.36-.3-.004-.045-.018-.095-.028-.162a.58.58 0 0 0 -.056-.168c-.346-.759-.71-1.512-1.059-2.273l-3.716.28c-.114.357-.206.66-.268.925-.068.267-.132.506-.183.726a4.477 4.477 0 0 0 -.096.525c-.012.137-.022.245-.012.327.012.196.18.33.504.42.321.088.677.12 1.075.112l.04.526-3.988.302c-.012-.175-.024-.351-.04-.525a2.496 2.496 0 0 0 .478-.123 1.55 1.55 0 0 0 .464-.224c.192-.151.332-.3.432-.458a2.34 2.34 0 0 0 .274-.62c.42-1.352.92-2.864 1.426-4.551.506-1.684.99-3.18 1.384-4.495l.598-.044c1.382 2.925 2.825 5.818 4.212 8.739.089.187.188.332.288.447.108.114.244.219.424.315.12.062.27.108.46.137.189.036.341.048.468.044.016.18.03.358.041.533zm-4.582-3.95c-.627-1.308-1.284-2.61-1.915-3.924-.413 1.392-.858 2.776-1.274 4.166zm19.642-8.266-.535.144c-.207-.35-.528-.686-.96-1.032-.435-.343-.81-.492-1.116-.46a7.36 7.36 0 0 0 -.54.102c-.21.051-.44.108-.705.177l-1.716.468c.367 1.354.732 2.71 1.1 4.06.39-.108.785-.216 1.177-.322.352-.096.628-.204.804-.336a1.344 1.344 0 0 0 .408-.473c.068-.135.116-.324.134-.567a2.94 2.94 0 0 0 -.034-.748l.54-.147c.363 1.33.723 2.654 1.08 3.978-.176.048-.36.096-.54.147a3.58 3.58 0 0 0 -.34-.674c-.164-.24-.308-.408-.436-.5a1.092 1.092 0 0 0 -.636-.221 2.856 2.856 0 0 0 -.823.124l-1.176.32.944 3.482a.919.919 0 0 0 .214.396c.092.106.228.168.408.206.084.02.252.012.504-.012.25-.012.444-.045.567-.072l.137.507-4.44 1.205-.138-.508c.144-.046.334-.118.567-.206.228-.09.381-.152.446-.208a.636.636 0 0 0 .24-.36 1.01 1.01 0 0 0 -.02-.466l-1.98-7.296a1.373 1.373 0 0 0 -.192-.4c-.084-.102-.226-.166-.414-.2a3.036 3.036 0 0 0 -.562-.025 2.952 2.952 0 0 0 -.554.06l-.137-.509c2.68-.726 5.364-1.452 8.035-2.178l.686 2.54m11.835-.896c.389.968.768 1.938 1.157 2.904l-7.476 3.61-.228-.474c.105-.06.252-.15.45-.276.187-.118.318-.216.378-.288a.634.634 0 0 0 .177-.4.972.972 0 0 0 -.12-.463c-1.086-2.251-2.172-4.503-3.261-6.756a1.169 1.169 0 0 0 -.268-.363.636.636 0 0 0 -.446-.125 1.992 1.992 0 0 0 -.51.048 2.412 2.412 0 0 0 -.504.132c-.072-.156-.153-.318-.226-.474l4.034-1.949.228.475a3.572 3.572 0 0 0 -.452.298 2.734 2.734 0 0 0 -.384.321.514.514 0 0 0 -.18.423c0 .156.04.307.113.452l3.06 6.34c.139.288.26.509.372.654a.66.66 0 0 0 .389.28c.135.037.315.013.532-.071.219-.072.51-.196.876-.376.168-.078.333-.17.514-.264.178-.091.336-.198.485-.296.144-.108.269-.216.381-.327a.736.736 0 0 0 .207-.314c.08-.295.158-.702.199-1.242.036-.528.055-.945.024-1.248.16-.075.32-.153.478-.228m5.593-10.383a5.232 5.232 0 0 1 1.832.942 6.428 6.428 0 0 1 1.498 1.752c.425.72.684 1.436.804 2.156.117.72.074 1.407-.084 2.067a4.937 4.937 0 0 1 -.837 1.764 4.88 4.88 0 0 1 -1.492 1.329c-.636.374-1.288.612-1.97.686-.685.072-1.335.034-1.969-.166a5.058 5.058 0 0 1 -1.796-.96 6.283 6.283 0 0 1 -1.444-1.683 6.21 6.21 0 0 1 -.813-2.175 5.44 5.44 0 0 1 .074-2.056 4.956 4.956 0 0 1 .852-1.782c.4-.543.892-.976 1.478-1.323.61-.36 1.25-.588 1.912-.674a4.806 4.806 0 0 1 1.956.12zm2.816 6.969a4.915 4.915 0 0 0 -.246-1.625 8.62 8.62 0 0 0 -.799-1.726 9.017 9.017 0 0 0 -1.188-1.6 4.912 4.912 0 0 0 -1.325-.999 2.988 2.988 0 0 0 -1.39-.318c-.467.002-.944.15-1.403.42-.51.303-.884.675-1.1 1.128a3.257 3.257 0 0 0 -.332 1.455c.01.501.1 1.028.294 1.59.192.565.448 1.122.774 1.675a9.24 9.24 0 0 0 1.14 1.554c.396.426.84.756 1.298.998.459.24.916.345 1.396.352.475 0 .96-.136 1.452-.425a2.885 2.885 0 0 0 1.054-1.056c.237-.432.372-.91.375-1.423zm13.168-7.149c-.777.552-1.56 1.107-2.338 1.656-1.075-.446-2.036-.786-2.86-1.083-.835-.295-1.715-.552-2.633-.834-.3.21-.593.42-.892.629l1.922 2.712c.096.134.216.237.324.316.126.077.279.084.465.042.096-.02.237-.088.441-.194.204-.104.36-.2.492-.288l.305.43c-1.22.867-2.44 1.73-3.66 2.595-.102-.138-.204-.285-.306-.426.096-.074.225-.188.4-.344a1.956 1.956 0 0 0 .329-.354.61.61 0 0 0 .1-.415.93.93 0 0 0 -.188-.44c-1.464-2.061-2.924-4.125-4.382-6.183a1.32 1.32 0 0 0 -.324-.328c-.12-.079-.273-.098-.459-.044a3.838 3.838 0 0 0 -.924.42l-.306-.43c1.332-.944 2.664-1.886 3.996-2.832a5.7 5.7 0 0 1 1.109-.621 3.386 3.386 0 0 1 1.128-.26 2.196 2.196 0 0 1 1.044.195c.34.152.636.415.894.78.238.333.396.656.468.984.08.324.084.644.018.974-.054.305-.18.598-.344.912a6.003 6.003 0 0 1 -.62.924c.824.267 1.515.468 2.07.65.544.188 1.23.392 2.022.657a3.132 3.132 0 0 0 1.496.164c.144-.016.3-.079.48-.162.182-.08.326-.168.432-.232.098.144.204.288.302.432zm-7.722-4.092c-.369-.518-.816-.813-1.327-.914-.516-.091-1.05.06-1.6.45l-1.04.737a6879 6879 0 0 0 2.6 3.667l.804-.57c.562-.396.912-.906 1.022-1.524.113-.624-.028-1.24-.46-1.846zm16.47-2.508c.291.987.584 1.978.882 2.964l-8.27 3.066c-.06-.162-.124-.328-.183-.492.14-.06.324-.146.54-.268.22-.118.365-.197.424-.26a.732.732 0 0 0 .212-.385.922.922 0 0 0 -.068-.456c-.876-2.355-1.745-4.706-2.621-7.064a1.22 1.22 0 0 0 -.228-.378c-.096-.096-.24-.144-.43-.163-.146-.015-.336 0-.56.03a2.676 2.676 0 0 0 -.545.105c-.06-.162-.125-.329-.182-.492l7.706-2.86.876 2.37c-.175.068-.354.133-.524.197-.222-.324-.572-.612-1.02-.892-.465-.288-.838-.387-1.134-.32-.15.033-.327.078-.528.148-.212.072-.438.148-.699.244-.522.192-1.041.386-1.562.58.48 1.298.967 2.603 1.447 3.9.374-.138.744-.277 1.126-.417.355-.132.612-.26.756-.396a1.096 1.096 0 0 0 .31-.49 1.884 1.884 0 0 0 .066-.64 3.595 3.595 0 0 0 -.092-.683c.174-.064.35-.128.528-.195.475 1.284.95 2.568 1.428 3.852-.178.069-.356.132-.528.196a3.965 3.965 0 0 0 -.41-.654c-.173-.21-.324-.36-.46-.438a1.086 1.086 0 0 0 -.622-.168 2.611 2.611 0 0 0 -.765.188l-1.128.418c.367.986.728 1.968 1.095 2.952.11.294.219.516.324.675a.678.678 0 0 0 .387.296c.151.048.343.036.559-.017.222-.06.528-.156.914-.298.156-.06.356-.132.612-.225.252-.094.466-.177.627-.27.168-.087.348-.188.518-.306.17-.125.283-.234.324-.348.136-.3.243-.724.307-1.26.065-.537.104-.922.084-1.152.168-.066.334-.128.507-.192m8.88-7.274a5.112 5.112 0 0 1 1.32 1.584c.345.653.58 1.378.687 2.2a6.084 6.084 0 0 1 -.104 2.297 5.209 5.209 0 0 1 -.884 1.872c-.39.528-.888.95-1.46 1.29-.577.338-1.2.545-1.89.636-.738.098-1.429.06-2.08-.14-.657-.197-1.248-.488-1.752-.92a5.122 5.122 0 0 1 -1.272-1.584 6.084 6.084 0 0 1 -.675-2.117c-.111-.846-.072-1.616.102-2.318a5.41 5.41 0 0 1 .881-1.862 4.972 4.972 0 0 1 3.36-1.944 5.08 5.08 0 0 1 2.022.127 4.84 4.84 0 0 1 1.745.88zm-.136 7.515a4.932 4.932 0 0 0 .415-1.594 9.1 9.1 0 0 0 -.067-1.9 8.729 8.729 0 0 0 -.468-1.936 4.823 4.823 0 0 0 -.818-1.438 3.024 3.024 0 0 0 -1.156-.836c-.437-.18-.927-.233-1.454-.165-.594.078-1.084.274-1.462.608a3.204 3.204 0 0 0 -.876 1.208c-.18.463-.312.984-.348 1.576a8.698 8.698 0 0 0 .053 1.844c.091.698.244 1.325.444 1.874.192.549.478 1.023.806 1.425.32.405.7.675 1.14.872.438.187.944.252 1.506.175a2.862 2.862 0 0 0 1.378-.555 2.976 2.976 0 0 0 .907-1.162z" />
          <path
             id="path243"
             stroke-width="1.22"
             fill="none"
             d="m408.99488 256.388h80.63736m6.59907 0h11.33769v66.3c0 13.186-1.83 65.693-58.236 86.086-56.525-20.393-58.356-72.895-58.356-86.086v-66.3h11.41801" />
        </g>
      </g>
      <path
         id="path249"
         transform="matrix(2 0 0 2 -185.5703 -58.377138)"
         stroke-width=".298"
         stroke="#075400"
         fill="#338a00"
         d="m296.44336 79.71875c-2.04154.01676-4.29993.996374-6.61914 3.484375v.002c5.5793-1.638014 8.04173 2.062892 10.36914 4.423828-6.90155.01219-13.62552.785174-20.09375 2.234375-2.15786-4.770729-9.78717-10.576722-15.71289-1.789062 5.39837-2.550208 8.43419.985664 11.16016 2.929687-5.58395 1.55522-10.95238 3.625157-16.05665 6.150391-.0181-.03703-.0301-.08533-.0488-.121094-2.22603-4.254178-13.81184-9.444496-16.53907 2.298828 5.70912-5.923203 11.38788.627096 14.77539-1.257812-5.19512 2.714654-10.10047 5.907814-14.65625 9.523444-.0238-.0298-.0443-.071-.0684-.0996-3.09496-3.67831-15.53754-6.27399-15.65234 5.77734 4.20553-6.86612 10.97556-2.03267 13.97266-4.25391-4.87661 4.06712-9.32681 8.62666-13.27539 13.60352-.0709-.0783-.13894-.17618-.21094-.24609-3.45057-3.35211-16.09205-4.69624-14.99023 7.30468 3.58823-7.44667 11.12709-2.85703 13.70312-5.82226-.39322.45257-.59898 1.02293-.70898 1.66211-3.63745 4.9741-6.79015 10.32358-9.38672 15.98242-4.25829-2.27915-16.73962-.16631-12.41211 11.07031l.002.002c1.42055-8.13361 9.93275-5.74227 11.60156-9.2871-.0174.037-.0215.0777-.0371.11523-2.56231 5.93523-4.51835 12.19204-5.79297 18.69336-5.2471.12788-13.80328 5.09422-7.59765 13.89062-.44333-5.93341 4.00287-7.45509 6.81445-9.27929-.62162 4.32474-.94726 8.74392-.94726 13.24023 0 1.33362.0338 2.65864.0898 3.97852-4.73647 2.05819-10.95529 10.6687-1.13672 16.02929-2.77816-4.69448-.24213-7.864 1.52344-10.56836.59356 5.84048 1.73769 11.51688 3.36914 16.98438-4.43426 2.85482-8.95713 10.83893.36719 15.52539-2.97327-4.6527-.45703-7.92735 1.21484-10.71094 2.01946 5.61388 4.56728 10.97541 7.58399 16.02539-3.55678 3.844-5.90797 13.27962 4.69726 15.0586-4.32545-3.64626-2.74321-7.60781-1.99609-10.79492 3.49783 5.18917 7.51343 9.99959 11.96484 14.36718-3.35104 3.99941-5.19994 13.74955 5.60938 14.82422-5.20627-3.82032-2.75258-8.58562-2.5586-11.96094 5.23422 4.69234 11.00596 8.7963 17.21289 12.20704-.94177 5.15951 1.85628 13.95332 11.69532 10.35937-5.32214-.98442-6.1181-4.87491-7.00196-7.95312 6.08053 2.90086 12.52662 5.15695 19.25196 6.67773-.092 5.2248 3.45263 12.56629 12.44531 8.57812-5.47186-.63645-6.47453-4.5851-7.58789-7.61914 5.06536.86153 10.26991 1.31641 15.58008 1.31641 1.00989 0 2.01353-.0225 3.01562-.0547 1.13998 5.1157 7.21087 12.18833 14.86914 5.00782-5.8092 1.29516-7.97766-2.77662-10.1875-5.2754 6.96013-.57504 13.70167-1.92083 20.13867-3.95507 3.15945 4.20395 10.83436 7.9874 15.30664-.97266-4.34963 2.79088-7.54216.8089-10.24023-.79687 5.36044-2.04642 10.48268-4.57389 15.31055-7.53711 3.94338 3.2135 15.02795 4.60294 14.86523-6.75196-2.87778 4.95904-7.17915 4.02447-10.49414 3.89258 5.31358-3.68989 10.2192-7.92257 14.64062-12.61914 4.64157 2.48229 14.20464 2.49097 13.56641-8.03516-2.64243 5.07775-6.97514 4.34892-10.29101 4.36524 4.14927-4.90347 7.79771-10.24461 10.86328-15.94531 5.16559.87897 14.60613-2.41487 10.125-12.24219h-.002c-.62626 5.53746-4.73864 6.48464-7.81054 7.63086 2.83687-6.06824 5.0336-12.49408 6.50195-19.19336 5.15975-1.11815 12.29855-7.10382 5.125-14.72852 1.05675 4.81625-1.65139 7.0906-4.04883 8.98243.70461-4.59603 1.07031-9.30313 1.07031-14.09571 0-.65874-.0116-1.31525-.0254-1.9707 5.02559-1.6053 11.57581-8.28838 3.64649-15.17774 1.72781 5.26643-1.57027 7.82058-3.88672 10.11524-.39819-5.28166-1.24585-10.43882-2.49609-15.43555 4.43435-2.64217 9.49014-11.95653-.92579-16.03906 3.56772 4.58374.95526 8.20947-.41601 11.22266-1.67756-5.42729-3.84642-10.63897-6.44727-15.5879 3.74588-3.63357 6.59287-13.18575-4.07812-15.32421 4.24931 3.81929 2.46411 7.76935 1.625 10.94726-2.8263-4.73311-6.06215-9.19436-9.66211-13.33008 1.98432-4.86042 1.06734-14.0015-9.28906-12.51367 4.37774 1.80071 4.87866 5.06851 5.08789 8-3.66727-3.6877-7.64108-7.06813-11.88477-10.09765 1.43027-4.951096-1.16377-15.05934-11.57226-11.160164v.002c5.51726.973303 6.21469 5.091512 7.16796 8.205074-5.18002-3.266947-10.70729-6.031103-16.51367-8.228511.87689-5.088949-2.73779-14.768958-12.65234-9.878906 6.17208.463288 6.87732 5.359645 8.36523 8.376953-7.49136-2.417864-15.39734-3.910124-23.58789-4.328125-.7964-3.4796-4.21857-8.066041-8.69531-8.029297zm3.91602 10.205078c.45842 0 .9143.01076 1.37109.01758-3.10236 1.860472-5.77183 7.983808-12.44336 6.275391 7.18692 8.119211 15.0761-1.138883 15.94727-6.160156 8.03411.428524 15.78659 1.912336 23.125 4.310547-3.46908 1.06258-7.90475 4.994431-13.15821 1.30664 3.75901 9.9795 14.21029 4.41366 17.00977.05078 6.33307 2.395191 12.32472 5.48217 17.88281 9.17187-3.61839.20194-8.8235 4.64006-14.07813.10352 2.71536 10.23726 13.56057 5.86218 16.86329 1.82031 4.88113 3.51106 9.39365 7.50009 13.47461 11.89649.20265.56514.49324 1.05482.96093 1.41406-3.12156-2.39589-10.46127 2.92586-15.25586-3.49414.45644 11.20611 13.37316 8.33916 16.71094 4.78516 3.71113 4.33397 7.01641 9.02416 9.85938 14.01367-3.14455-1.78886-10.01552-.7068-12.05274-7.36719-3.25728 10.35274 8.90778 12.19886 13.64649 10.29102 2.71086 5.19657 4.92919 10.69128 6.59375 16.42187-2.95282-2.09047-9.44115-2.45767-10.23633-9.125-4.89667 9.34346 5.95562 13.33738 11.16992 12.59961 1.38763 5.61136 2.25099 11.42877 2.53125 17.40039-1.15734-3.4624-8.77845-5.74975-7.09766-13.0332-8.27383 7.62068 2.28295 15.48688 7.18164 15.71093.009.53843.0195 1.0765.0195 1.61719 0 5.76773-.54828 11.40545-1.58399 16.8711-.20099.36891-.33942.75589-.36133 1.18164.20067-3.90885-8.38908-6.8545-5.81445-14.42579-8.98871 6.74984.67697 15.61194 5.53516 16.34376-1.59438 7.04375-4.01604 13.77087-7.1543 20.08007-.21219-3.59259-5.35816-8.56713-1.02734-14.19922-10.37996 3.43059-4.75903 14.32549-.42774 17.01172-3.25782 6.0083-7.18275 11.5991-11.66992 16.6836 1.17393-3.40784-1.94387-9.95431 4.17969-13.71289-11.19579-.48329-9.52451 12.29882-6.28907 16.02343-4.67053 4.93735-9.89433 9.34423-15.57226 13.125.7743-3.51724-1.27654-9.54592 4.58789-12.78906-10.34803-.91804-10.16852 10.05654-7.64844 14.74414-5.26232 3.20561-10.88144 5.88126-16.78125 7.96485-.5433-.12849-1.07542-.15087-1.60156.0156 3.75764-1.18908 3.51131-10.20449 11.55859-10.47656-9.6419-6.0448-14.61173 6.42133-13.43945 11.07031.0402.15916.1153.32867.17578.49414-6.47298 2.0056-13.2599 3.29525-20.26758 3.78906 3.24055-1.61734 6.32367-7.62177 12.89453-5.46679-6.86345-8.9021-15.77804.83369-16.44726 5.64648-.95391.0299-1.90991.0508-2.87109.0508-5.77449 0-11.42094-.54785-16.89258-1.58594-.30201-.34601-.65004-.62464-1.08203-.79687 3.6601 1.45975 9.25723-5.64476 15.63476-.76758-3.55044-10.75491-15.38582-4.28707-17.46484.0371-.12382.25747-.22792.54678-.31641.85547-7.66865-1.74967-14.96236-4.48003-21.74609-8.04883-.0125-.006-.0206-.0174-.0332-.0234 3.55371 1.70196 9.61913-5.01165 15.6504.28321-2.79444-10.90313-14.90084-5.3792-17.37305-1.21094-5.67746-3.14999-10.97867-6.89288-15.81836-11.15039 3.54332.68935 8.87107.14411 11.19531 5.6875 2.21038-10.6445-10.13575-11.2627-14.63672-8.87891-4.89708-4.78033-9.25524-10.10933-12.96484-15.89648 3.09169 1.88476 10.19692.36561 12.50195 7.11914 2.96008-10.57572-9.58968-11.94333-14.13281-9.77734-3.42323-5.771-6.22004-11.95621-8.29688-18.46485 1.26695 3.66017 10.21743 3.55822 10.41993 11.49024 6.168-9.50372-6.31051-14.5436-11.01758-13.43555-1.75996-5.98295-2.91997-12.22347-3.40039-18.6543 2.48145 2.62146 9.31907 3.64507 9.25586 10.58203 6.0342-8.63365-4.15908-13.95104-9.43555-13.89843-.0442-1.15875-.0742-2.32065-.0742-3.49024 0-4.72263.36618-9.36076 1.06641-13.88672 1.30654 3.35752 6.50629 7.21267 3.46875 13.20703 9.61695-5.30463 1.92133-15.05957-2.83008-16.82617.97937-4.97253 2.36763-9.79783 4.12891-14.43945 1.14162 3.17125 2.68541 6.96834-.66016 10.81836 9.48503-2.52056 6.45918-11.81571 2.73047-15.82031 2.14005-4.75144 4.67867-9.28293 7.57617-13.55274.2146 3.16833.26387 6.77909-3.63672 9.3418 9.57901.11957 9.45049-9.16233 7.1211-14.12695 3.32345-4.2664 7.02522-8.22216 11.05078-11.82422-.15206 3.46777.17817 7.9144-4.63672 10.42968 9.69472 1.09188 10.35846-8.51993 8.41211-13.6289 3.64704-2.92053 7.52392-5.56588 11.60351-7.89844-.89382 3.34798-1.55392 7.72627-6.77539 9.14648 9.22035 3.13328 11.95505-6.08921 11.16992-11.496088 5.38117-2.692158 11.07017-4.858468 17-6.4375-2.72207 2.376684-4.43078 8.700668-11.2207 8.054688 8.58732 7.07723 15.02817-3.988911 14.77539-8.925781 6.33544-1.41219 12.92154-2.16211 19.6836-2.16211z" />
      <path
         id="path251"
         transform="matrix(.9333432 0 0 .9333432 -4.86471 22.640354)"
         stroke-width=".6108"
         stroke="#000"
         fill="#ad7d5a"
         d="m332.1288 384.9684c-.366 1.5864-.97439 3.7848-1.22161 6.59519 0 .60962-.60839 3.9072 1.22161 4.0272 1.344.12236 1.71-3.41998 1.71-3.41998s-1.22401 3.9072.3648 4.39679c2.1984.4836 2.44079-4.27439 2.44079-4.27439-.24479 1.34398-1.71 4.76399.3672 5.12399 2.19602.36959 2.80801-4.6392 2.80801-4.6392s-1.8312 5.00879.3648 5.12999c2.076.12 2.076-4.88399 2.076-4.88399s-1.10041 5.9844 1.83 5.49601c1.584-.2448 1.9536-2.322 2.3196-3.54241.48719-1.8288 1.5864-4.1484.24479-7.9344-.97439-2.80799-.60839-3.54001-.60839-3.54001s-3.42001 2.56442-6.1044 4.272c-1.22401.73201-7.8168-2.80799-7.8168-2.80799zm35.65201-5.25599c-.60962-.36842-.48722 2.1984-.73202 3.41519-.12235 1.22401.246 3.9084 4.3968 3.666 4.026-.3684 8.058-1.22161 10.62002-.61199 2.56559.73199 6.34799.85439 8.42639.85439 2.076 0 3.41999-.2424 4.392-.612.85679-.36239 2.68799.492 3.54.492.85679 0 2.1984-1.34401 2.076-2.1996-.12235-1.5888-1.584-1.5888-3.6636-1.7088-1.9536-.2436-4.63799-.612-5.9796-1.09919-1.34401-.48962-3.7848-1.8324-6.83759-2.44202 0 0-5.85961.24602-7.07761.24602-1.22401 0-8.4264.3636-9.16079 0z" />
      <path
         id="path253"
         transform="matrix(.9333432 0 0 .9333432 -4.86471 22.640354)"
         stroke-width=".611"
         stroke="#060"
         fill="none"
         d="m348.12499 388.38801-.245-5.61601 2.32001 1.956.61-4.27499c.97599-.24401 2.56499 1.711 2.56499 1.711l-.246-4.27201 3.54 3.906s-.244-3.29799.974-5.25c0 0 2.68501 2.32001 2.68501 5.00601 0 2.324 2.31999-3.297 2.31999-3.297.612 1.95599 1.95401 6.228 1.95401 6.228l1.58399-2.32201 1.34401 4.881 2.92799-4.272 2.32 5.007 5.25-.36899.61301 2.932 2.318-2.564 3.053 1.953s2.563-.732 3.90699-.732c1.34401 0 2.93001 1.708 2.93001 1.708s.97499-1.70401 1.954-2.316c.97501-.61201 2.31999.97399 2.68199 1.951l1.95601-3.54001s2.565 2.566 2.92799 3.54001c0 0 .36701-2.928.978-3.907.612-.975 1.58401.368 2.32 1.589l1.586-5.25s1.709.362 2.92801 2.318c1.34399 1.951 1.34399-2.93301 1.34399-2.93301s2.928 3.91 3.66501 6.59401m73.499-.97701s.974-2.682 2.32-4.02699c0 0 2.56299 3.05499 2.56299 4.029 0 0 .73201-.36601 2.076-1.34l1.95301 1.95 2.321-1.58401 2.198 1.95301 4.03-1.709 1.584 1.708 6.224-.73001 2.324.974 2.196-2.80399 2.076 2.19399 3.295-3.293s1.586 1.33801 1.953 2.318c0 0 2.686-1.34399 3.297-2.318 0 0 2.562-.97699 2.92801.60601 0 0 1.58399-1.22201 1.46399-2.56301-.12401-1.342 1.83-.365 2.44001 1.346 0 0 .73299-2.688 2.68899-2.934 0 0 1.34 1.589.972 4.52 0 0 2.93-2.318 4.27401-2.564 0 0 .61199 3.294-.365 6.228 0 0 3.05299-5.008 3.66299-3.29799.24401.975.976 4.275.24401 6.59199l2.686-1.709.97599 3.3 2.92799-.61199m-137.177 9.943s2.19801-3.66001 3.54001-4.63901c0 0 2.92799 2.322 3.90599 5.251 0 0 .368-1.95199 1.34401-3.65999 0 0 3.662 1.70399 4.27201 4.02799 0 0 1.34399-2.321 2.31999-2.92799.976-.73701 1.954 2.55999 1.954 4.51499 0 0 2.32-2.444 3.66401-2.565 0 0 2.56298 1.22 3.295 5.496 0 0 2.44399-2.32 3.29599-1.956 0 0 2.93 1.956 2.196 4.64-.364 1.46401 2.932-1.70599 6.96001-2.684l3.53999 2.684s3.29601-4.394 4.272-5.862c0 0 2.688.97601 2.688 2.566 0 0 1.222-4.64399 2.196-5.128.976-.61 2.31901 1.464 2.31901 2.80801 0 0 .36699-3.54001 2.32199-4.274 0 0 1.953 1.34099 1.953 2.68799 0 0 2.076-4.029 3.663-5.00999" />
      <path
         id="path255"
         stroke-width=".933343"
         fill="#5ac800"
         d="m320.05539 385.13966-.22867-5.24166 2.16536 1.82562.56934-3.99004c.91094-.23054 2.39402 1.59695 2.39402 1.59695l-.2296-3.99191 3.30403 3.64844s-.22773-3.07817.90908-4.90286c0 0 2.50603 2.16723 2.50603 4.67325 0 2.17003 2.16535-3.07816 2.16535-3.07816.57121 1.82562 1.82376 5.81286 1.82376 5.81286l1.47841-2.16536 1.25442 4.55752 2.73657-3.98911 2.16161 4.67512 4.90005-.34441.57121 2.73283 2.16349-2.39122 2.84949 1.82282s2.39403-.68321 3.64751-.68321c1.25442 0 2.7347 1.59788 2.7347 1.59788s.91-1.59788 1.82281-2.17282c.90908-.56561 2.16724.91467 2.50416 1.82562l1.82563-3.30404s2.39215 2.39496 2.73282 3.30404c0 0 .34067-2.73283.91095-3.64657.57121-.91095 1.47842.34347 2.16535 1.48308l1.47748-4.90005s1.5979.3388 2.73471 2.16535c1.2516 1.82189 1.2516-2.73283 1.2516-2.73283s2.73283 3.64564 3.41605 6.15074c0 0-18.8666 6.4774-32.17235 4.70685-15.6615-2.08509-28.5603-5.04752-28.5603-5.04752m129.3427-.56841s.91002-2.50883 2.16722-3.76324c0 0 2.39123 2.8523 2.39123 3.76324 0 0 .68134-.3416 1.93762-1.25441l1.82188 1.82188 2.16724-1.47841 2.05241 1.82002 3.75764-1.59602 1.48028 1.59602 5.811-.68041 2.16535.91001 2.05149-2.62083 1.93762 2.04962 3.07537-3.07723s1.48028 1.25255 1.82282 2.16722c0 0 2.50696-1.25068 3.07723-2.16722 0 0 2.39309-.91001 2.73284.57121 0 0 1.4812-1.14242 1.3692-2.39216-.11386-1.25255 1.70802-.34347 2.27829 1.25068 0 0 .68321-2.50416 2.50416-2.73283 0 0 1.25255 1.47655.91095 4.21871 0 0 2.73282-2.17096 3.98725-2.39683 0 0 .57119 3.0763-.34067 5.81473 0 0 2.84855-4.67511 3.41976-3.07816.22867.91001.91187 3.98724.22867 6.15073l2.50509-1.59415.90908 3.07816 2.73282-.5712s-16.17576 2.47802-31.41633 1.02481c-15.24149-1.45322-29.54218-6.83581-29.54031-6.83581m-11.26544 11.31399c.74013-.45734-5.09047 11.99346-19.22967 12.65613-19.67116.92121-36.48719-8.89289-36.48719-8.89289s2.05242-3.4179 3.30402-4.33165c0 0 2.73284 2.16723 3.64565 4.89912 0 0 .34347-1.82282 1.25441-3.41604 0 0 3.41883 1.59042 3.98724 3.75951 0 0 1.25442-2.16536 2.16723-2.73283.91-.68694 1.82374 2.38936 1.82374 4.21685 0 0 2.1635-2.28296 3.41791-2.39683 0 0 2.39402 1.14055 3.07724 5.12966 0 0 2.27922-2.16349 3.07537-1.82562 0 0 2.73468 1.82562 2.04961 4.33071-.34067 1.37015 2.73469-1.59042 6.49607-2.50416l3.30403 2.50416s3.07537-4.09924 3.98724-5.47126c0 0 2.50884.91468 2.50884 2.39683 0 0 1.14054-4.33165 2.04961-4.78619.91095-.56934 2.16349 1.36642 2.16349 2.6227 0 0 .34441-3.30591 2.16723-3.98911 0 0 1.82375 1.25161 1.82375 2.50882-.004-.002 1.93295-3.76324 3.41603-4.67791z" />
    </g>
  </g>
</svg>
