<svg xmlns="http://www.w3.org/2000/svg" xmlns:xlink="http://www.w3.org/1999/xlink" viewBox="0 0 1000 600"><path fill="#d90f19" d="M0 0h1000v600H0z"/><path fill="#171696" d="M0 60h1000v480H0z"/><g transform="scale(1.6666667) matrix(.5 0 0 .5 92.785141 29.188568)"><circle cx="414.43" cy="301.62" r="210" fill="#fff"/><path fill="#ad7d5a" stroke="#000" stroke-width=".57" d="M305.13 381.95c-.35 1.48-.91 3.53-1.14 6.15 0 .57-.57 3.65 1.14 3.76 1.25.12 1.6-3.19 1.6-3.19s-1.15 3.65.33 4.1c2.05.46 2.28-3.99 2.28-3.99-.23 1.26-1.6 4.45.34 4.79 2.05.34 2.62-4.33 2.62-4.33s-1.7 4.67.34 4.79c1.94.1 1.94-4.56 1.94-4.56s-1.03 5.58 1.71 5.13c1.48-.23 1.82-2.17 2.16-3.31.46-1.7 1.49-3.87.23-7.4-.9-2.63-.56-3.31-.56-3.31s-3.2 2.4-5.7 3.99c-1.14.68-7.3-2.62-7.3-2.62zm33.27-4.9c-.57-.35-.45 2.04-.68 3.18-.12 1.14.23 3.65 4.1 3.42 3.76-.34 7.52-1.14 9.91-.57 2.4.68 5.93.8 7.87.8 1.94 0 3.19-.23 4.1-.57.8-.34 2.5.46 3.3.46.8 0 2.05-1.26 1.94-2.06-.11-1.48-1.48-1.48-3.42-1.6-1.82-.22-4.33-.56-5.58-1.02-1.26-.46-3.53-1.7-6.38-2.28 0 0-5.47.23-6.6.23-1.15 0-7.87.34-8.56 0z"/><path fill="none" stroke="#060" stroke-width=".57" d="m320.06 385.14-.23-5.24 2.16 1.82.57-3.99c.91-.22 2.4 1.6 2.4 1.6l-.23-3.99 3.3 3.65s-.23-3.08.9-4.9c0 0 2.51 2.16 2.51 4.67 0 2.17 2.17-3.08 2.17-3.08l1.82 5.82 1.48-2.17 1.26 4.56 2.73-4 2.17 4.68 4.9-.34.57 2.73 2.16-2.39 2.85 1.82s2.4-.68 3.65-.68 2.73 1.6 2.73 1.6.91-1.6 1.83-2.17c.9-.57 2.16.91 2.5 1.82l1.82-3.3s2.4 2.4 2.74 3.3c0 0 .34-2.73.91-3.64.57-.91 1.48.34 2.17 1.48l1.48-4.9s1.59.34 2.73 2.16c1.25 1.82 1.25-2.73 1.25-2.73s2.74 3.65 3.42 6.15m68.6-.91s.91-2.5 2.17-3.76c0 0 2.4 2.85 2.4 3.76 0 0 .67-.34 1.93-1.25l1.82 1.82 2.17-1.48 2.05 1.82 3.76-1.6 1.48 1.6 5.8-.68 2.18.91 2.05-2.62 1.93 2.05 3.08-3.07s1.48 1.25 1.82 2.16c0 0 2.5-1.25 3.08-2.16 0 0 2.4-.91 2.73.56 0 0 1.48-1.14 1.37-2.39-.12-1.25 1.7-.34 2.28 1.26 0 0 .68-2.51 2.5-2.74 0 0 1.26 1.48.91 4.22 0 0 2.74-2.17 4-2.4 0 0 .56 3.08-.35 5.82 0 0 2.85-4.68 3.42-3.08.23.91.91 3.99.23 6.15l2.5-1.6.92 3.09 2.73-.57m-128.03 9.28s2.05-3.42 3.3-4.33c0 0 2.73 2.16 3.65 4.9 0 0 .34-1.82 1.25-3.42 0 0 3.42 1.6 3.99 3.76 0 0 1.25-2.17 2.16-2.73.91-.69 1.83 2.39 1.83 4.21 0 0 2.16-2.28 3.42-2.4 0 0 2.39 1.15 3.07 5.14 0 0 2.28-2.17 3.08-1.83 0 0 2.73 1.83 2.05 4.33-.34 1.37 2.73-1.59 6.5-2.5l3.3 2.5s3.07-4.1 3.98-5.47c0 0 2.51.91 2.51 2.4 0 0 1.14-4.34 2.05-4.79.91-.57 2.17 1.37 2.17 2.62 0 0 .34-3.3 2.16-3.99 0 0 1.83 1.25 1.83 2.51 0 0 1.94-3.76 3.42-4.68"/><path fill="#5ac800" d="m320.06 385.14-.23-5.24 2.16 1.82.57-3.99c.91-.23 2.4 1.6 2.4 1.6l-.23-4 3.3 3.66s-.23-3.08.9-4.9c0 0 2.51 2.16 2.51 4.67 0 2.17 2.17-3.08 2.17-3.08l1.82 5.81 1.48-2.16 1.26 4.55 2.73-3.98 2.17 4.67 4.9-.34.57 2.73 2.16-2.4 2.85 1.83s2.4-.68 3.65-.68 2.73 1.6 2.73 1.6.91-1.6 1.82-2.18c.91-.56 2.17.92 2.5 1.83l1.83-3.3s2.4 2.39 2.74 3.3c0 0 .34-2.74.9-3.65.58-.91 1.49.34 2.17 1.48l1.48-4.9s1.6.34 2.74 2.17c1.25 1.82 1.25-2.73 1.25-2.73s2.73 3.64 3.41 6.15c0 0-18.86 6.47-32.17 4.7a347.29 347.29 0 0 1-28.56-5.04m129.34-.57s.91-2.51 2.17-3.76c0 0 2.4 2.85 2.4 3.76 0 0 .67-.34 1.93-1.26l1.82 1.83 2.17-1.48 2.05 1.82 3.76-1.6 1.48 1.6 5.81-.68 2.17.9 2.05-2.61 1.93 2.05 3.08-3.08s1.48 1.25 1.82 2.17c0 0 2.5-1.25 3.08-2.17 0 0 2.4-.91 2.73.57 0 0 1.48-1.14 1.37-2.4-.11-1.24 1.71-.34 2.28 1.26 0 0 .68-2.5 2.5-2.73 0 0 1.26 1.47.92 4.21 0 0 2.73-2.17 3.98-2.4 0 0 .57 3.08-.34 5.82 0 0 2.85-4.67 3.42-3.08.23.91.91 4 .23 6.15l2.5-1.59.91 3.08 2.74-.57s-16.18 2.48-31.42 1.02c-15.24-1.45-29.54-6.83-29.54-6.83m-11.27 11.31c.75-.46-5.09 12-19.22 12.66-19.68.92-36.5-8.9-36.5-8.9s2.06-3.41 3.31-4.33c0 0 2.73 2.17 3.65 4.9 0 0 .34-1.82 1.25-3.41 0 0 3.42 1.59 3.99 3.75 0 0 1.25-2.16 2.17-2.73.9-.69 1.82 2.4 1.82 4.22 0 0 2.16-2.28 3.42-2.4 0 0 2.4 1.14 3.08 5.13 0 0 2.27-2.16 3.07-1.82 0 0 2.74 1.82 2.05 4.33-.34 1.37 2.74-1.6 6.5-2.5l3.3 2.5s3.08-4.1 3.99-5.47c0 0 2.5.91 2.5 2.4 0 0 1.15-4.34 2.06-4.8.9-.56 2.16 1.37 2.16 2.63 0 0 .34-3.3 2.17-3.99 0 0 1.82 1.25 1.82 2.5 0 0 1.93-3.75 3.42-4.67z"/></g><path fill="#6f6" d="M531.6 183.26s-1.14-.1-2.18-.85l2.18.85"/><g fill="none"><path stroke="#060" stroke-width=".47" d="M531.6 183.26s-1.14-.1-2.18-.85"/><path d="m507 202.07 1.24.76 1.33.19s1.42 1.32 3.04 2.56c1.23 1.05 1.23-.19 1.23-.19l.76 3.04h1.05s-.3 2-.3 3.04l1.81-1.53 2.09 1.81s1.52-1.33 2.28-1.33c.76 0 1.04-.76 1.04-.76h.1c-5.04-2.37-7.22-4.84-5.7-7.4 2.47-4.28 6.55-1.53 7.88-.96l18.42 9.88s1.23-.76.38-1.52c-.95-.76-1.33-2.66-1.04-3.41.28-.76 2.37 2.37 3.41 2.65 1.05.29 3.42.67 3.42.67l-.1-.95s3.04 2.09 3.04 3.13c0 0 2.19-1.14 1.43-1.8-.76-.67 3.32 1.61 3.6 2.85l.86-.96c-.1 0 .29-3.04 1.33-4.46.95-1.42 2-1.8 2-1.8s.95-1.62 1.9-1.62c0 0-.95-.66-1.33-1.42-.48-.76-1.62-1.14-1.62-1.14s1.43-1.04 1.8-1.52c.39-.57.77-.67.77-.67s-2.19-1.8-3.7-2.09c0 0-.1-2.46-2-2.65h.86s-1.43-2.66-2.76-2.76c0 0 .86-.95 1.62-1.04 0 0-1.62-2.09-3.8-1.33l1.43-.57s-1.05-1.14-4.28-.57c0 0 .29-1.32-1.14-2.37 0 0-1.23.1-1.23 1.05 0 0-1.14-1.05-2.56-1.05-1.43 0 .47 1.52.47 1.52s-1.9-1.24-3.04-.86c0 0 .47-2.18-.76-3.32 0 0-1.42.76-1.8 1.7l-.38-.94s-1.9 2.28-2.28 1.61a7.9 7.9 0 0 1-.57-1.99l-1.14 1.71.2-2.38s-1.34.76-2.38 3.23c0 0-1.33 1.24-1.33 2.38 0 0-1.04-1.24-2 0-.85 1.33 0 1.04 0 1.04s-.38.48-1.32.67l.19.76s-1.24-.67-2.19-.38l.48 1.13s-2.47.2-2.57-1.8c0 0-2.08-1.04-2.37.1 0 0-1.71 0-1.52.95 0 0-.48-.95-1.33-1.14-.95-.29-.19 1.23-.19 1.23s-.28-1.14-1.42-1.71c-1.14-.47-.2 1.04-.2 1.04s-1.51-1.23-.75-2.18c0 0-1.42 1.33-.76 2.57l-.95.66s-.47-.47-.38-.86c.1-.38-1.62 1.14-1.62 1.14s-1.04-2.46 0-2.46c.1 0-1.8-.1-2.08 2.09-.29 2.08 0 0 0 0s-1.24.09-2.38.47c-1.23.38.86 1.23.86 1.23s-1.8-.38-2.85.19l.66.86s-.66-.67-2.28-.1c-1.7.48.38.76.38.76s-1.7-.38-2.56 0c-.85.38.28 1.05.28 1.05s-3.13-.95-3.6-.67c-.48.29 1.04 1.8 1.04 1.8s-1.9.48-2.28 1.9l1.71.67s-.76.38-1.14 1.14c-.38.76 1.14.38 1.14.38s-2.09 1.52-2.09 2.66c0 0 1.53.47 2.66-.67 1.14-1.13.38-.75.38-.75l.1.75s2.18-.94 2.18-1.51c0-.48-.38.76-.38.76l2.19-1.14 1.42.95"/><path d="m505.2 172.43-.47-2.08s2.56 0 4.84.57l.85-2s2.28 1.05 3.04 1.8c0 0 4.47-1.13 5.8-.66l-.57 2.1s4.08.27 5.4.75c1.24.48-.56 1.52-.56 1.52s4.65.57 6.64 1.8c2.1 1.24 2.1 2.28 1.05 2.57l2.56 4.08s-4.08.48-4.84 1.52c-.76 1.05-1.52-1.04-1.52-1.04l-.76 2.85s-2.56-1.34-3.6-2.28c0 0-1.25 1.52-.48 2.28 0 0-3.33 0-4.66-3.04 0 0-2-.29-2 1.52 0 0-2.27-2.57-2.84-3.33l-2.57.76s-.76-1.04-1.7-1.33c-1.05-.19-.3 1.33-.3 1.33l-1.51-1.8-1.52-1.8s-1.33 1.8-2.38 1.8c-.95 0-.95-1.24-.76-2.1.29-.75-3.04-.95-3.32 0 0 0-.95-3.8 2.56-4.84l3.61-.95"/></g><g stroke-width=".47"><g fill="#d67c59" stroke="#000"><path d="M528.84 184.5s.57-1.33 1.62-.57c.95.76 1.23 4.08 1.23 4.08l-1.52.76s.86-1.23-1.33-4.27zm-8.63 29.82s.76-1.05-.28-3.33l1.51-.47s.57 1.8-.19 3.8h-1.04m26.3-5.23-3.6 2.19 1.8.85 4.37-2.56-2.57-.48m-48.34 14.15c-.95.76-1.04 2.09-1.61 2.85-.47.76-1.9 1.8-2 2.94a6.21 6.21 0 0 0 .2 3.42c.56 1.52 2.94 8.26 1.99 13.4-1.05 5.12-.66 7.3-.28 8.07.37.75 1.51 2.84 2.18 2.84 1.52-.19.85-.66 1.42-1.61 1.43-2.47 0-21.56-.66-26.88a26.37 26.37 0 0 0-2.57-8.16c-.19-.48-.56-1.72-.85-2.48-1.42-3.42-3.13-6.36-3.13-13.48 0 0-4.66 1.04-8.65-7.98-2.08-4.56-5.12-4.09-8.73-5.6l1.61-1.05s3.04 1.52 4.56 1.52c1.52 0 1.05-3.04 1.05-3.04l1.52-1.52v6.65c0 3.04 4.17 7.22 6.64 8.45 1.52.76 3.52-2.37 3.04-5.41-.47-3.04 0-7.12 0-7.12l2.1 1.23s-.77 1.33-.58 2.1c.29.75 1.33-.77 2.09-1.53 0 0 .19.2.95.2 0 0-1.52 2.55-2.28 3.89-.75 1.23-.75 6.08-.75 7.88s.66 5.98.66 7.3c0 .96 1.8 4.85 3.23 7.23.47.95 1.61 3.42 1.61 3.42 1.14 1.8 1.23 3.04 1.9 4.56.38.75 1.05 2.94 1.52 6.74.2.95.38 4.56.67 6.93.28 2.28 2.18.48 4.46-1.14 2.28-1.7 2.28-5.8 2.28-5.8s1.8-1.51 1.52-.66c-.2.95.95 1.9.95 1.9-1.43 3.23-.57 2.85.85 2.76 1.42-.2 6.36-3.9 6.36-3.9.67-.19 3.61-.19 3.14 0-.57.29-1.33 1.71-1.33 1.71l3.22-.38c-1.13.86-5.4 3.32-6.36 3.9a87.87 87.87 0 0 1-8.35 3.98c-2.19.95-6.46 3.04-6.65 5.23-.1 2.18.29 8.07 0 9.97-.19 1.9-.95 10.35-.95 10.35H494s2-7.4-.1-9.4c-1.99-2.1-6.64-8.17-9.68-10.26-3.04-2 2-.47 2-.47v-2.1l4.64 5.61s8.08-7.12 0-16.8c-2.56-3.05-5.12-7.7-7.12-8.18-2.08-.57-3.13-1.04-6.64 0-3.61 1.05-12.25 1.05-15.86-4.65l3.04-.48 2.56-1.04s-1.04 3.6 6.17 3.6c7.12 0 8.17 0 7.6-6.64l2.09-1.04 1.52 1.52s-1.05 3.6-.48 5.12c.48 1.52 3.04 2.57 5.04 4.09.85.66 1.52.76 2.08.76.86-.1 1.05-.1 2.19-1.24 1.7-1.9 1.33-1.8 3.04-3.32 0 0 .85-1.33 1.04-1.52l1.05 2.75z"/><path d="M499.7 218.2c.37-.37 1.13-1.8 1.8-3.03 1.14-1.9 2.47-3.04 3.99-5.41a10.71 10.71 0 0 0 1.42-7.7l1.33.77.1 3.6s1.8-1.52 2.56-1.9l.76.39s-5.7 5.88-11.02 15.38l-.95-2.09zm-49.95-19.74c.76 1.32 1.52 3.9 3.8 5.89l1.52-.48s-3.51-4.08-3.51-5.88l-1.8.47m8.91-2.29s.48 4.85-.75 6.65l1.52-.75s1.04-3.33.75-5.13l-1.52-.76zm50.05-15.29s-.29 6.84 1.05 11.02l1.8-.57s-.29-1.23 1.23-1.8c1.52-.48 5.13-2 6.93-3.52l-.56-1.52s-2.76 2.19-4.09 2.76c-1.23.47-2 1.04-3.04.76-1.04-.29-2.27-2-1.52-5.9zm20.12 31.92s-.47 4.84-.19 6.93l1.62.38s-.38-5.8.66-6.27l-2.09-1.04m7.23 3.6s-1.8 3.14-3.9 3.43l3.33-.67s.95-.47 2.37-1.99l-1.8-.76"/></g><g fill="#338a00" stroke="#030"><path d="m507.01 202.06 1.23.76 1.33.2s1.43 1.32 3.04 2.55c1.23 1.05 1.23-.19 1.23-.19l.76 3.04h1.05s-.29 2-.29 3.04l1.8-1.52 2.1 1.8s1.52-1.32 2.27-1.32 1.05-.76 1.05-.76h.1c-5.04-2.38-7.22-4.85-5.7-7.41 2.47-4.27 6.55-1.52 7.88-.95l18.42 9.88s1.23-.76.38-1.53c-.95-.75-1.33-2.65-1.05-3.41.29-.76 2.38 2.37 3.42 2.66 1.05.28 3.42.66 3.42.66l-.1-.95s3.04 2.1 3.04 3.14c0 0 2.19-1.14 1.42-1.8-.75-.67 3.33 1.6 3.61 2.84l.86-.95c-.1 0 .28-3.04 1.33-4.46.95-1.42 2-1.8 2-1.8s.94-1.62 1.89-1.62c0 0-.95-.66-1.33-1.42-.47-.77-1.61-1.14-1.61-1.14s1.42-1.05 1.8-1.52c.38-.57.76-.67.76-.67s-2.18-1.8-3.7-2.08c0 0-.1-2.48-2-2.66h.86s-1.42-2.66-2.75-2.76c0 0 .85-.95 1.6-1.04 0 0-1.6-2.1-3.79-1.33l1.43-.57s-1.05-1.14-4.28-.57c0 0 .29-1.33-1.13-2.37 0 0-1.24.09-1.24 1.04 0 0-1.14-1.04-2.56-1.04s.47 1.52.47 1.52-1.9-1.24-3.04-.86c0 0 .48-2.18-.76-3.32 0 0-1.42.76-1.8 1.7l-.38-.94s-1.9 2.28-2.28 1.61c-.28-.38-.56-2-.56-2l-1.14 1.72.19-2.38s-1.33.76-2.38 3.23c0 0-1.33 1.24-1.33 2.37 0 0-1.04-1.23-1.99 0-.86 1.33 0 1.05 0 1.05s-.38.47-1.33.66l.19.76s-1.23-.66-2.18-.38l.47 1.14s-2.47.2-2.56-1.8c0 0-2.1-1.05-2.38.1l-1.52.94s-.47-.95-1.33-1.13c-.95-.29-.19 1.23-.19 1.23s-.28-1.14-1.42-1.71c-1.14-.47-.19 1.04-.19 1.04s-1.52-1.23-.76-2.18c0 0-1.42 1.33-.76 2.57l-.95.66s-.47-.48-.38-.86c.1-.38-1.61 1.14-1.61 1.14s-1.05-2.46 0-2.46c.1 0-1.8-.1-2.09 2.09 0 0-1.23.09-2.37.47-1.24.38.85 1.23.85 1.23s-1.8-.38-2.85.2l.67.85s-.67-.67-2.28-.1c-1.71.48.38.76.38.76s-1.71-.38-2.56 0c-.86.38.28 1.05.28 1.05s-3.13-.95-3.6-.67c-.48.29 1.04 1.8 1.04 1.8s-1.9.48-2.28 1.9l1.7.67s-.75.38-1.13 1.14c-.38.76 1.14.38 1.14.38s-2.1 1.52-2.1 2.66c0 0 1.53.47 2.67-.67 1.14-1.14.38-.76.38-.76l.1.76s2.18-.94 2.18-1.51c0-.48-.38.75-.38.75l2.18-1.14 1.43.96z"/><path d="m505.2 172.44-.47-2.09 4.84.57.85-2s2.28 1.05 3.04 1.8c0 0 4.46-1.13 5.8-.66l-.57 2.1s4.08.27 5.4.75c1.24.47-.56 1.52-.56 1.52s4.65.57 6.65 1.8c2.09 1.24 2.09 2.28 1.04 2.57l2.56 4.08s-4.08.47-4.84 1.52c-.76 1.04-1.52-1.05-1.52-1.05l-.76 2.85s-2.56-1.33-3.6-2.28c0 0-1.24 1.53-.48 2.28l-4.65-3.04s-2-.28-2 1.53c0 0-2.27-2.57-2.84-3.33l-2.57.76s-.76-1.04-1.7-1.33c-1.05-.19-.3 1.33-.3 1.33l-1.51-1.8-1.52-1.8s-1.33 1.8-2.38 1.8c-.95 0-.95-1.24-.76-2.1.29-.75-3.04-.94-3.32 0 0 0-.95-3.79 2.56-4.83l3.61-.95zm-18.41 13-1.62 1.53-.95-.48-1.9 2.1-.38-1.15-1.04 1.71-1.61-.57-.76 1.24-1.43-.29s-1.23 1.14-2 1.43c-.75.19 0-1.71 0-1.71s-1.13 1.9-1.99 1.9c-.75 0-.47-.86-.47-.86s-.47 1.23-1.42 1.43c-.86.1-.48-.95-.48-.95l-1.52 1.14v-.95l-.66-.29s.38-1.7 1.04-2.09c.67-.38-.66-1.51-.66-1.51l.66-.76s-1.9-.48-1.9-.1c0 0 .95-2.56 2.28-3.04l.1-2.85s1.32-1.14 2.56-1.23c1.33-.2-.38-2.19-.38-2.19l3.04-1.8.38-2.18 4.65.37.95-1.99 3.7.95 3.14-1.61 2.27 2.66 3.42.28s-.1 2.37-.1 3.04c0 0 4.09 1.23 4.57 1.61 0 0-.76 2.47-.76 2.95 0 0 2.85-.76 3.7-.57 0 0 .29 2.66.38 3.32 0 0 4.84 1.52 5.13 2.38 0 0-1.05.66-1.62 1.51 0 0 .57 2.95.57 3.9l-.38.57s-1.42-1.33-2.56-1.52l-.95 2.09-1.71-1.14-1.05.1s-.85-1.05-1.52-1.05l-.1-.95-1.32.85s-2.1-1.04-2.1-1.7c0-.58.1-1.53.1-1.53l-2.18 1.52s-.47-1.14-.38-1.61c.1-.48-.85 1.14-.85 1.14s-1.14-2-1.05-2.38l-.28 1.62s-2.28-.76-2.57-2.28z"/><path d="M456.4 194.75s3.99 2 3.99 2.95c0 0 1.04-2.09.47-2.85l1.52 1.05s.47-1.9-.1-2.47c-.47-.48 3.42-2.09 4.28.47 0 0 2.37-2.47-2.19-4.56 0 0-.38-1.52 2.38-1.14 0 0-.2-.95-.86-1.33h2.66s-1.61-1.33-3.99-1.7c-2.27-.39-.85-.67-.95-1.15-.19-.47 0-2.18 0-2.18s-1.33-.48-2.37.1l.38-.48s-2.47-.67-3.42-.1c0 0-1.42-.57-1.23-2.09 0 0-1.43-.09-2.09 1.43 0 0-1.33 1.52-3.13 1.52-.38 0-1.71-.76-1.71-.76l-1.14 2.66-1.8-.1.56 1.05s-2.75-.76-3.6 0c0 0 1.04 1.61.75 2.75 0 0-2.18.38-2.65.76-.57.38.75.66.75.66s-2.46.76-3.04 1.52l.96.76-1.14 1.52.95.19s-1.62.48-2.47.76c-.85.29 1.52.48 1.52.48l-1.14 1.04 1.8.28s-1.42 3.8-1.51 5.6c0 0 2.18-2.65 2.75-2.84l-1.7 2.85s3.22-1.04 3.5-1.52c.29-.57.57-1.05.57-1.05l.1 1.62s1.23-1.71 1.42-2.38c.1-.66 2 .67 2 .67v-.95s1.7.57 2.27.66c.67.1.76-.28.76-.28l1.62-.2-.29 1.34s1.14-.76 1.42-1.52c.2-.76.76 0 .76 0l.76-3.04h1.61zm-13.01 13.5 1.52 3.13c-1.24.09-3.04 1.51-3.04 1.51.28 5.23-1.05 4.94-1.05 4.94.38.95-.24 2.71-.24 2.71l7.55-4.51.1-.48 8.93-4.18.28.48 2.56-1.43 1.8 4.75-1.8 1.05c.1 1.61 2 4.46 2 4.46l2.37-.57 2.57-.95s.1 1.43.1.95c0-.38 2.75-1.33 2.75-1.33l1.23 1.24c.95-.1 2.66-2.38 2.66-2.38l2 .77s.66-1.14.66-2c0-.76 2.46-.76 2.46-.76l1.71 1.23 2.19-1.8s.66 1.33 1.52 1.52c.95.1 3.32 1.9 3.32 1.52 0-.38 1.05-2.47 1.05-2.47l3.98 1.62c-.56-1.8-1.9-4-1.9-4s1.9-1.5 1.53-1.89c-.38-.38-1.52 0-1.52 0l1.13-2.28h-1.51l.47-.57-2.47-1.04 1.33-2.66c-.57-.67-7.12-2-7.12-2l1.52-1.42s-.76-1.14-1.52-1.14-4.75.1-4.94-.28c-.1-.38-1.71-1.8-1.71-1.8l-2.47 1.8-1.23-.38-2.19.85s0 1.24-.28.38c-.29-.76-2.28-2.75-2.28-2.75-.38.66-2.94 3.7-2.94 3.7s-.38 1.62-1.24.47c-.95-1.13-2.94-2.37-3.23-1.42-.28 1.05-2.09 2-2.47 1.71-.38-.29-2.47-.1-2.66.48-.1.66-2.37 2.37-2.37 2.37-1.43-.66-3.7-.28-3.7-.28s-.67 1.04-.76 1.9l-4.65 1.23zm42.92 38.45v-2l2.28 1.53 1.33-1.52 1.7 1.7 1.05-1.7v2.75l2.57-2.27 1.51.66v-2.19s1.8-3.04 1.05-3.6l1.52-.48s-2.57-2.56-3.32-3.04c-.76-.57-1.8-.57-1.8-.57s-2-2-3.33-2.56c-1.24-.48-2 .57-2 .57s-.76-1.52-2.09-1.8c-1.23-.29-1.23 1.04-1.23 1.04s-.95-.95-2.18-1.43c-1.24-.56-.38 1.14-.38 1.14l-4.37-1.32.57 1.32-4.08-1.04.47 1.52-2.85-.48-.19 1.24-4.08.76.76 1.33-2.57-1.05v1.8l-2.85 1.05 1.05.95s-3.8 1.8-4.56 2.38c-.76.47 1.52 1.51 1.52 1.51l-4.08-.57 1.52 1.34-3.61 3.32 2.56 1.8-1.52 2.28 3.8.76 1.52 2.56 3.13-.56v2.84l4.56-3.6s3.33 2.94 3.61 2.08c.19-.75.19-3.32.19-3.32h1.61v-2.56l1.24 1.04 2.09-3.04 2.75 3.8 2.09-4.84 3.04.47zm18.61-11.49-.47-4.36-1.33 1.33.57-4.09-2.09-.38.76-3.98-1.52-.77.38-1.9 1.52-1.13 2.75-2.66 6.36.1.76-2.1 4.56.77c.76.85 3.13-1.71 3.13-1.71h.95l1.05 1.99s3.32-.48 4.84.57l-1.8 2.47 3.32.28 2.27.48 2.38-.77 3.04-.19.76 1.24h2.85l-.95 1.14 3.7 1.7-.76.77s2.09.75 3.61.75h.76s.76 1.8-.29 2.57c0 0 1.05 2.56 3.32 3.04 2.28.47 2.28.47 2.57 1.04.28.48 0 3.04-2.56 3.04v2.57s-2 1.8-2.28 2.56l-1.52-1.05s-1.33 1.52-1.33 2.57c0 0-3.32-4.37-4.56-4.56-1.33-.29-1.04 2.47-1.04 2.47l-3.61-3.04-.48 2.09-3.04-2.57-1.8 1.24-3.23-3.33-3.13.39 1.23-1.62h-3.8l-.75-3.32-.57 2.75-2.28-1.52-2.95 3.23s-.37-.38-.85-1.9c-.47-1.52-1.8 1.8-1.8 1.8l-1.05-2.37-1.23 2.37s-1.05-1.8-2.1-2.37c-.94-.47-1.98 2.85-2.27 4.37zm.57 9.97.19-1.51 5.41-2.1 4.56-1.7 2.28-1.05 1.04 1.8 1.33-2.56 2.1 2.66 1.13-1.42 1.8 1.32h1.52l.29 2s3.8.28 4.08-.47c.29-.76.76 2.56.76 2.56l3.6.47.77 4.09s1.8 3.8 1.23 5.32c-.47 1.61-2-2-2-2s-.28 2.85-.56 3.61c-.2.76-4.85-.76-4.85-.76l-1.99 3.8s-2.09-3.04-3.04-3.04c-1.04 0-1.04 3.04-1.04 3.04s-3.04-3.6-4.37-5.13c-1.24-1.52-1.52 1.52-1.52 1.52s-2-3.32-2-4.27c0-1.05-1.8-2.1-1.8-2.1s-3.14 3.62-5.41 4.57c0 0 .28-2.28-.48-3.04-.76-.76-3.04 1.52-3.04 1.52s-1.61-3.52 0-7.13z"/></g><g fill="none" stroke="#004b00"><path d="m530.56 188.58.48 1.9s1.7-.39 2.84-.29c0 0-.28 1.52-.66 2.18 0 0 2.28-.37 3.32.29l-.47 1.14 2.66 1.14-2.47 2s3.98 1.41 4.75 2.56c0 0-2.57 1.8-2.95 1.7-.38-.19-.1.76.57 1.62l-2.18-.1s.85 2 .76 2.76c-.1.76-3.61.57-3.61.57m13.67-5.13s.66-3.8-.38-4.74c0 0 2.47 2.09 4.08 2.18 1.71.1-.1-3.14-.1-3.14s2.38 1.24 3.52 1.52c1.14.2-.86-2.37-.86-2.37s.67-1.24 2.57-.1m-44.15-15.1s.1-.85-.29-1.32c-2.28-3.14 2.38 2.37 3.32 2.56m4.37 0s1.52 1.14 2.28 1.14c.76 0-.47-3.04-.85-3.42-.38-.38 2.75 1.23 3.89 1.42 1.14.29 1.33-1.9 1.33-1.9s3.51.57 4.27 1.05m-24.4-.66s-.29-2-.38-2.85m-23.55 12.35c-.19-.38.95-2.1.48-2.85 0 0 .66.57 1.33.67.57.09.37-2.19.37-2.19l.76.28s2-.95 1.62-1.7c-.38-.76 1.33 1.13 1.33 1.13s1.14-1.14 1.14-1.61c0-.48 1.33 1.14 1.33 1.14s1.42-.29 1.42-1.14c0-.86 1.8.28 1.8.28s.76-1.04.67-1.7m-19.18 9.5s.85-2-.1-3.33m-22.97 9.58c.1-.94.57-3.5.1-3.89-.48-.38.94.38 2.08.67m9.02-.38c-1.14-1.14-1.8-1.7-3.61-1.7m-15.67 8.06c.29-.67.76-2.28.48-3.23m24.3 50.33 1.24-2.56 1.52 3.6 1.04-2.27.38.76 2.28-2.47 2.47 3.7m39.6-16.05 1.61-3.22 2.19 1.14 1.04-3.14 2.28 1.43 1.33-2.95 2.56.67.19-2.1s1.8 1.05 2.28 1.8c.57.77 0-2.55 0-2.55l2.09.95s1.52-1.52-.57-2.38"/><path d="m523.53 226.1 2.28 3.32 1.9-2.18 1.7 3.7 2.2-1.33 3.12 1.8 1.43-1.14 3.42 2.47 1.42-2.94 3.04.95 2-3.41m-82.05-8.93s1.33-2.29.86-3.33c-.57-1.05 2.75 1.8 2.75 1.8s.76-2.28.29-3.32c-.57-1.04 3.8 3.04 3.8 3.04s.76-3.51 0-4.27c-.76-.76 4.17 1.04 4.17 1.04s2-.57 1.24-1.61c-.76-1.05 3.32 1.51 3.32 1.51s.95-2.56 0-3.5c-1.04-1.05 3.04 1.23 3.04 1.23l-1.52-2.76 3.32.2-.28-3.05m29.43 43.87 2.19-1.04 1.9 1.9 2.08-3.33 2.57 2.47.38-2.47 2.75 1.15.57-1.53 3.04 1.62.28-2.28 1.52.48.29-1.53"/></g></g><path fill="#9dc9e2" d="M464.75 357.34a67.9 67.9 0 0 1-5.8-12.63l41.12-36.18 41.12 36.09a62.83 62.83 0 0 1-5.98 12.91l-.33.53a401.03 401.03 0 0 1-3.1-1.2s-1.32 1.24-2.36 1.34c-1.43.19-2.66-1.24-2.66-1.24s-1.8 1.52-3.6 1.24c-1.81-.19-2.57-1.33-2.57-1.33s-1.9 1.52-3.23 1.23c-1.24-.29-2.1-1.14-2.1-1.14s-1.13 1.43-2.74 1.14c-1.52-.29-2.95-1.14-2.95-1.14s-2.37 1.04-3.89 1.23c-1.52.3-2.85-1.33-2.85-1.33s-2 1.33-2.75 1.33c-.76 0-3.61-1.33-3.61-1.33s-2.94.95-3.99.95c-.95 0-3.89-1.23-3.89-1.23s-2.75.76-3.99.76c-1.33 0-3.23-.76-3.23-.76s-2.27 1.05-3.5.76a12.86 12.86 0 0 1-2.38-.76s-2.47 1.05-4.09.76c-1.52-.28-3.32-1.33-3.32-1.33s-.29.76-3.23 1.33h-.1"/><g stroke="#000"><path fill="#fff" stroke-width=".66" d="M500.08 266.93v41.6l-41.12 36.37a81.87 81.87 0 0 1-4.27-26.4v-51.57h45.39"/><path fill="#ffe682" stroke-width=".66" d="M500.08 266.93v41.6l41.02 36.37a81.84 81.84 0 0 0 4.27-26.4v-51.57h-45.3"/><g stroke-width=".47"><path fill="#d67c59" d="M473.55 348.7c3.1 1.68 2.05 1.15 8.45 3.42 5.23 1.8 11.3 2.66 20.13 2.66 7.73 0 12.08-.62 14.52-1.3 2.54-.72 3.14-1.74 3.14-1.74l-6.36 6.45s-25.57 1.38-30.2-1.61c-1.8-.95-5.7-4.08-9.68-7.88z"/><path fill="none" stroke-linecap="round" d="M511.06 336.64s8.17 4.65 0 13.58m-36.74-1.04 11.77-11.21-1.33 15m6.17 1.13v-24.87m20.13 25.07v-26.6m-10.16 27.08v-28.59"/><path fill="#d90f19" stroke-linejoin="round" d="m490.93 330.56-5.32 1.72 5.32.56v-2.28m9.97-3.9-5.6 2.1 5.6.18zm10.16 1.52-5.6 2.1 5.6.28v-2.38zm3.33 12.07c-.29-1.14 3.32-1.04 3.32-1.04s1.05 3.8 0 6.17l-3.04-.57s.29-2.56-.28-4.56z"/><g fill="#fff"><path stroke-linejoin="round" d="m476.12 347.65 9.97-9.68-.48 5.8s-5.12 3.31-5.12 5.69l-4.37-1.8m5.31 2s1.04-3.05 3.9-4.57l-.3 6.08-3.6-1.52zm14.35-16.82s4.08-.57 7.12 0c0 0-.48 4.09 0 4.84 0 0-5.6-1.33-7.88.76 0 0-.76-3.8.76-5.6zm-8.65 1.05s4.09-.57 7.12 0c0 0-.76 4.56-.28 5.32 0 0-4.56-2.57-6.84-.48 0 0-1.52-3.13 0-4.84z"/><path stroke-linecap="round" stroke-linejoin="round" d="M486.84 339.2s4.09-.48 7.12 0c0 0-.47 4.08 0 4.84 0 0-5.31-1.23-7.6.76 0 0-1.04-3.8.48-5.6zm8.17-.76s5.89-.75 8.92-.28c0 0-1.23 3.32.3 5.6 0 0-6.37-1.7-8.75.28 0 0-1.99-3.8-.47-5.6zm-8.63 6.37 7.88.57s-.76 5.79-.29 6.55c0 0-6.36-1.52-7.6.57 0 0-2.09-5.32 0-7.7h0zm8.92 0s6.83-.48 9.97 0c0 0-1.8 4.37.19 8.16 0 0-8.93-2.56-10.16-.47 0 0-2.09-5.32 0-7.7zm10.44-11.97s4.08-.57 7.12 0c0 0-.47 4.09 0 4.84 0 0-5.6-1.33-7.87.76 0 0-.77-3.8.75-5.6zm0 5.6s4.08-.47 7.12 0c0 0-.47 4.09 0 4.85 0 0-5.6-1.24-7.87.76 0 0-.77-3.8.75-5.6zm.48 5.9s4.08-.57 7.21 0c0 0-1.04 6.35-.57 7.11 0 0-4.64-2.18-6.83-.28 0 0-1.33-5.03.19-6.84z"/><path d="M514.67 344.8s1.32 4.85 3.03 5.42l-2.27 2.75s-2.76-1.99-3.04-4.27c0 0 1.8-2.09 2.28-3.9z"/></g></g><g stroke-width=".61"><path fill="#006ac8" stroke="none" d="M535.02 357.91c-6.55 10.93-17.28 21.18-34.94 27.54-17.95-6.45-28.87-17.19-35.32-28.01l.09-.1c2.94-.57 3.23-1.33 3.23-1.33s1.8 1.05 3.32 1.33c1.62.28 4.08-.76 4.08-.76s1.05.48 2.38.76c1.23.29 3.51-.76 3.51-.76s1.9.76 3.23.76c1.23 0 3.99-.76 3.99-.76s2.94 1.24 3.89 1.24c1.04 0 3.99-.95 3.99-.95s2.85 1.33 3.6 1.33c.76 0 2.76-1.33 2.76-1.33s1.33 1.61 2.85 1.33c1.52-.2 3.89-1.24 3.89-1.24s1.42.86 2.94 1.14c1.62.29 2.76-1.14 2.76-1.14s.85.86 2.08 1.14c1.33.29 3.23-1.23 3.23-1.23s.76 1.14 2.57 1.33c1.8.28 3.6-1.24 3.6-1.24s1.24 1.43 2.66 1.24c1.05-.1 2.37-1.33 2.37-1.33l3.23 1.04"/><path fill="none" stroke-width=".47" d="M533.4 360.39c-1.42.1-1.6-.86-1.6-.86s-1.9 1.62-3.71 1.33a4.2 4.2 0 0 1-2.75-1.52s-2 1.62-3.33 1.33c-1.32-.19-2.27-1.14-2.27-1.14s-1.24 1.43-2.85 1.14c-1.62-.19-3.04-1.14-3.04-1.14s-2.57 1.05-4.18 1.33c-1.62.29-2.94-1.52-2.94-1.52s-3.7 1.24-4.47 1.24c-.85 0-3.51-1.24-3.51-1.24s-1.8 1.14-2.85 1.14c-1.14 0-4.18-1.33-4.18-1.33s-2.85.76-4.18.76c-1.33 0-3.32-.76-3.32-.76s-2.47 1.05-3.8.76c-1.33-.28-2.37-.76-2.37-.76s-2.66 1.05-4.27.76c-1.62-.28-3.52-1.33-3.52-1.33s-.28.67-3.41 1.33h-.1"/><g fill="#006ac8" stroke-width=".57"><path d="M474.44 364.26s-.27.62-2.74 1.17c-.06 0-.67.14-.67.14.22-.04.41-.07.6-.12a11.5 11.5 0 0 1-.7.24c2.8 4.04 7 7.71 11.37 10.66 4.38 2.94 9.4 6.46 17.95 8.97 9-3.51 11.4-4.85 17.27-8.78 5.88-4.3 8.94-6.97 12.22-11.38-2.57 1.46-2.2 1.48-3.53 1.29a5.2 5.2 0 0 1-2.3-1.26s-1.22 1.45-2.83 1.26c-1.62-.28-3.04-1.25-3.04-1.25s-2.1 1.43-4.2 1.34c-1.61-.1-2.94-1.52-2.94-1.52s-3.7 1.22-4.47 1.22c-.85 0-3.5-1.22-3.5-1.22s-1.81 1.14-2.85 1.14c-1.14 0-4.18-1.35-4.18-1.35s-2.84.76-4.17.76-3.32-.75-3.32-.75-2.37 1.04-3.8.75c-1.32-.28-2.38-.75-2.38-.75s-2.65 1.04-4.26.75c-1.62-.28-3.53-1.3-3.53-1.3z"/><path d="M500.25 385.32c9.3-3.86 10.97-4.91 16.6-8.35-.99.03-3.84-.9-2.8-1.19 0 0-1.15 1.03-2.29 1.03-1.04 0-4.08-1.32-4.08-1.32s-2.85.75-4.18.75-3.32-.75-3.32-.75-2.47 1.04-3.8.75c-1.33-.28-2.38-.75-2.38-.75s-2.75 1.04-4.27.75c-1.61-.28-3.51-1.32-3.51-1.32s-2.34 1.23-3.8 1.38c4.48 3.28 9.2 6.5 17.84 9.02z"/></g></g><g stroke-width=".51"><path fill="#d67c59" stroke-width=".48" d="M461.75 270.47c-.66-.02-1.45.37-2.67 1.47-1.91 1.73-2.6 3.51-.09 5.67l12.47 11.34c1.82 1.76 4.36 2.09 5.43 3l12.67 12.96c1.6 1.38 2.36 2.36 1.46 3.54-1 1.94.07 2.2.3 2.26 1.73.39.79-.7 1.01-1.26.3-1.18 1.6-2.2 2.52-2.7.6-.24.92-.11 1.07.2.55.23 1.13-.6.32-1.46-.7-.96-1.77.6-3 .24 0 0-1.84-1.14-2.34-1.96-1.08-1.2-2.46-2.27-3.26-3.3-.85-.95-4.02-5.15-8.86-9.99-1.39-.9-1.07-4.34-2.07-5.4-.08-.75-9.67-10.24-13.09-13.67-.69-.5-1.21-.92-1.87-.94z"/><path fill="none" stroke-width=".47" d="m462.35 275.57 13.03 12.87"/><path fill="#e8e8e6" stroke-width=".54" d="M480 281.45c.2-.38.63-1.37 1.1-2.45.18-.42 3.69-6.01 5.44-6.18 0 0 10.9 7.93 10.9 8.04.04.42-4.72 7.55-5.14 7 0 0-12.77-5.35-12.3-6.4z"/><path fill="#ccb8c8" stroke="none" d="M486.94 283.32c-1.5-1.16-3.96-2.29-5.95-3.62l-.9 1.87c.72.8 9.79 5.02 11.28 5.83 0 0-1.73-1.98-4.44-4.08z"/><path fill="none" stroke-width=".37" d="M480.98 279.46c1.17.82 3.38 2.22 4.78 3.04 2.69 1.86 4.39 3.92 6.3 5.01"/><g stroke-width=".47"><path fill="#d67c59" d="m458.9 313.43 24.81-30.71c.47-.43 2.77-.45 3.08 1.93l-23.5 32.03s-2.68-.27-4.4-3.25zm83.18.33a5.5 5.5 0 0 1-2.31.84c-1.61-1.9-2.95-3.89-5.22-6.36l-24.79-30.48 2.56-2.47 22.32 26.12c.66.66 4.56 4.75 8.26 9.59 0 0 .33 1.9-.82 2.77z"/><path fill="#e8e8e6" d="m518.21 281.65-3.99-4.75s-3.03.38-3.6 2c0 0-2.19 3.6-7.98 3.98 0 0 1.61 6.75 8.35 10.35 0 0 2.47-6.93 4.85-8.16 0 0 2.47-1.8 2.37-3.42z"/><path fill="#d67c59" d="M508.24 302.73c-.56-.19-1.13 0-2 .48-.75.47-1.7.28-1.6-.67.1-.85 0-.76 1.04-1.42a6.08 6.08 0 0 1 4.75-.48l-2.19 2.1m27.06-26.98c-.19-.66-.38-1.33.29-2.18.66-.76.66-2.1-.96-1.43-1.61.67-2.18 2.47-.85 5.23l1.52-1.62z"/><path fill="#e8e8e6" d="m507.67 303.3 28.11-27.92 6.93 7.4s-1.42-.56-2-.18c-.47.38.58 1.8.58 1.8s-1.33-.47-1.9-.1c-.67.38 0 2 0 2s-1.14-.85-1.71-.48c-.47.39 0 2.19 0 2.19s-1.52-.48-1.9-.1c-.38.38 0 2 0 2s-1.52-.76-2.28 0c-.75.76.38 1.8.38 1.8s-1.9-.76-2.66.38c-.75 1.14.1 2.18.1 2.18s-1.52-.75-1.9-.38c-.38.38 0 2.19 0 2.19s-1.33-.76-2.18.2c-.86 1.04.1 1.89.1 1.89s-1.24-.76-1.9-.38c-.67.38.18 2.18.18 2.18s-1.23-.85-2.09 0c-.85.95 0 1.9 0 1.9s-1.04-.95-2.08 0c-.96 1.04 0 2.09 0 2.09s-1.52-.76-2.1 0c-.66.76.2 1.8.2 1.8s-1.14-.66-1.9-.28 0 2.09 0 2.09-1.14-1.24-1.61-.57c-.57.66.1 2.28.1 2.28s-1.05-1.24-1.62-.57c-.67.57.38 2 .38 2s-1.9-.86-1.43-.86z"/></g><path fill="#4d4d4d" stroke="none" d="m534.16 277.66-2.18 2.19.47 7.5s.48-2.18 1.14-.67c0 0 .2-1.8.67-1.51-.39-.2-.1-7.5-.1-7.5m-4.08 4.07-1.61 1.52.57 7.5s.48-2.84 1.14-.57c0 0-.1-1.9-.1-2.56v-5.89m-17 16.82-1.51 1.61.38 4.56s.47-2.94 1.14-.66c0 0-.2-1.9-.2-2.57 0 .48.2-2.94.2-2.94"/><g fill="none" stroke="#4d4d4d" stroke-width=".86"><path d="M511.18 279.75a89.53 89.53 0 0 1 4 4.85m-2.66-2.76c-.19.58-.57 2.19-1.42 3.04m1.89-2.66c-.1.38-.1 1.61-1.43 2.85m1.9-2.27c-.19.66-.28 1.14-.76 1.61m1.05-1.04c0 .47-.28.57-.38.85m-3.13-2.66c-.38.37-3.13 2.18-4.65 2.75m3.89-1.71a14.6 14.6 0 0 1-3.04 2.1m2.76-.96c-.57.38-1.52 1.33-2.28 1.61m1.7-.47c-.37.47-.94.85-1.42 1.14"/><path stroke-linecap="square" d="M492.14 285.92c.31-.57.85-1.7 1.56-2.72.9-1.3 1.28-1.52 1.75-1.98"/></g></g></g><g stroke-width=".47"><path fill="#358b03" stroke="#060" d="M400.47 362.48c1.43.66 0-4.66.47-6.65.57-2.1 4.66 5.13 6.65 6.08 2.1 1.04 14.82-5.04 14.82-5.04l3.03-5.7 1.62 4.66s3.51-4.09 4.56-5.6 0 3.04-1.05 4.55c-1.04 1.52 3.04 2.1 2.56 5.13-.47 3.04 4.09-2.09 4.09-2.09l11.77 1.05s2-7.13 5.13-11.2l.95 4.55 4.84-4.94c5.41 14.25 16.8 29.73 40.17 38.18 21.93-7.97 33.23-22.13 39.11-35.61l6.56 6.74s5.13-1.52 6.07-2.09c1.05-.47 12.06 3.9 12.06 3.9s2 .76 3.04 1.52c1.05.76.29-3.33.29-3.33s5.6 1.05 5.12 4.09c0 0 1.24-2.85 2.28-3.33 1.05-.47 3.52 2.57 4.09 3.61.47.95 12.53 2.47 14.24 3.52 0 0 1.33 1.52 1.33 2.56 0 0 2.56-.28 4.56-.28 0 0-1.52.75-1.52 2.37 0 1.52-.76 2.76-2.28 3.51-1.52.76 0 1.33 2 1.52 2.08.29 0 2.85-4.09 4.37 0 0-.95 2.28.76 3.04 0 0-3.51.29-4.08-.76 0 0-1.23 2.37-1.23 3.61 0 0-3.8-1.24-4.85-1.8 0 0-1.52 1.51-.47 2.27 0 0-6.93-.76-8.26-3.32 0 0-2.47.76-2 1.61 0 0-4.84-3.32-6.36-3.32l-1.05 1.7s-3.32-1.99-4.36-1.99c-.96 0-.2 1.52-.2 1.52l-4.64-2.85-1.8 2.85s-3.8-1.8-4.85-2.56c-.95-.76-1.23 1.52-2 1.8 0 0-1.51-2.09-3.6-1.8 0 0-.76 2.56-.48 3.32 0 0-5.88-1.23-6.93-1.52-1.04-.28-.47 1.24 0 2.28 0 0-4.36-1.23-5.32-2l-.28 2s-3.6-.28-4.37-1.04l-2.27 3.13h-3.33l-.76 2.75s-5.74-2.11-6.26-.67c-.48 1.04-.38 2.48-.38 2.48l-4.72-.32-1.45 2.54s-6.37-2.43-7.89-1.49c0 0-3 1.92-4.34 2.4a10.24 10.24 0 0 0-4.58-2.85c-1.68-.26-5.32 2-6.65 1.23 0 0 0-1.8-1.04-2.28-.95-.47-2.75-.47-3.52.76 0 0-.75-1.04-2.08-3.04-1.24-2.09-3.04.2-3.04.2l-.29-2.48-3.51-.28c-2.1-.29-2.56-2.1-2.56-2.1s-5.42.58-6.18.3l1.33-1.24s-7.4 1.52-8.92.95c-1.62-.47 1.7-2.56 1.7-2.56s-6.83-1.71-8.16-2c-1.23-.28-8.64 1.23-9.69 1.23s-1.52-1.7-1.52-1.7-1.8 1.51-3.32 1.99c0 0-1.23-3.04-.47-3.32 0 0-4.85 1.33-5.13 2.56 0 0-1.23-2-1.05-2.85 0 0-2.27 3.61-3.32 4.37-1.04.76-.19-1.8-.19-1.8s-2.85 3.6-3.9 3.89v-2.57s-8.16 4.37-10.44 3.8c0 0 0-1.8.76-2.27l-5.13-.29c-1.23-.19-2.75-.76-4.08-1.04-1.23-.2 1.8-1.52 3.9-.95 0 0-5.7-2.1-7.41-1.05 0 0-.76-2.09 2.28-2.85 0 0-3.9-3.8-6.18-3.51 0 0 2.57-1.52 4.66-.76 0 0-2.38-6.46-3.9-7.22 0 0 5.42-.95 6.94-.18z"/><g stroke="#000"><path fill="#d67c59" d="m392.58 251.07 69.13-35.8c.33-1.85-.72-3.3-1.8-4.75-19.77 9.7-37.76 21.46-59.73 28.59-1.23.47-12.15 5.03-17.75 11.77a7.43 7.43 0 0 0-1.91 4.41s.13 3.02.77 3.83c0 0 .16.83 1.2 1.5-.02 0 .63.31 1.08.15.5.1 1.32.09 2.46-1.91a51.05 51.05 0 0 1 6.55-7.79z"/><path fill="#e8e8e6" d="m448.23 215.65 8.92-4.27s3.05 2.28 2.76 4.84c0 0 .66 5.89 7.98 9.97 0 0-6.18 7.7-17 8.36 0 0 1.24-10.15-1.04-13.1 0 0-.38.37-.21-.14.32-.99-.22-4.37-1.6-5.12-.18-.1.1-.37.2-.54z"/></g></g><path fill="none" stroke="#4d4b4d" stroke-width=".76" d="M458.67 216.88c-1.9.76-8.07 4-8.07 4m5.13-2.1c-.1.95-.66 3.23 0 4.84m-.85-4.55c0 .47-.76 2.18.1 4.46m-1.05-3.99c-.19.96-.38 1.53 0 2.57m-.76-2c-.2.57 0 .86 0 1.24m5.6-1.53c.28.76 2.85 4.75 4.37 6.37m-3.99-4.56c.29.75 1.71 3.5 2.75 4.56m-2.94-2.95c.38.95 1.14 2.66 1.9 3.6m-1.9-1.7c.2.76.57 1.71 1.14 2.38"/><g stroke="#000" stroke-width=".51"><path fill="#d67c59" stroke-width=".48" d="M520.88 198.92c-1.26.15-2.4 1.02-3.68 3.2-2.24 4.29-1.7 6.62 5.07 9.56l25.4 12.43c5.08 2.47 6.92.19 9.79 1.43l50.11 25.53c4.3 1.88 6.7 2.48 6.09 4.7-.09 2.87.93 3.27 1.62 3.4 1.08.45 1.92.7 2.15-.54.16-.25-.14-.65-.46-1.18a3.08 3.08 0 0 1-.58-1.92c.09-.74.15-1.09.4-1.48.24-.4.68-.82 1.5-1.73.42-.46.8-.66 1.17-.7.37-.03.73.1 1.06.3.46.26.87.58 1.28.87 1.67-.13.18-2.5-.97-3.4-2.53-1.19-2.81 1.5-5.47 1.2 0 0-4.75-1.8-6.46-3.03-3.15-1.71-7.54-3.75-8.54-4.86-3.2-.6-27.29-14.15-40.93-20.95-1.47-1.22-2.26-5.75-5.14-7.27-.84-1.22-19.31-9.66-28.97-14.49-1.78-.66-3.17-1.22-4.44-1.07z"/><g fill="#ffa54b" transform="scale(1.6666667) matrix(.5 0 0 .5 92.788032 29.188568) matrix(.9333432 0 0 .9333432 -4.86471 22.640354) scale(1.2)"><path fill="#ad7c59" fill-opacity=".99" d="M309.73 165.12c-.2.6-.7.2-.7.4-.41 2.14-.31 3.26-.82 4.48-.71 1.42-3.26 2.75-3.15 2.65-2.04.6-4.48 3.05-8.44.8-.21-.1-.41-.3-.61-.5 0 0 1.11 4.17-2.95 6.2-1.43.72-15.77 8.25-15.77 8.25s-1.53 2.75-.51 6.51c.1.61.3 1.12-.31 1.53-.92.7-2.65 2.75-3.66 6 0 0-3.05-1.32-3.05-3.25 0-1.94 1.22-2.95 1.52-4.38.3-1.32 1.12-4.68.71-5.7-.4-1.12-2.23-1.53-2.95-1.93-.6-.41-1.42.4-1.32 1.32.1 1.02.81.8 1.63 1.02 0 0-.92 1.93-.81 3.35l-9.26 4.78s1.22 1.63 1.63 2.34c.4.72 1.32 10.18 4.07 14.66 2.74 4.47 3.66 3.25 4.27 3.86.5.51 1.32 1.32 2.03 1.94.71.5 3.87.81 4.48-.92a8.92 8.92 0 0 1 3.15-4.17c1.94-1.52 5.9-5.4 5.9-7.12 0 0 2.34 6.71 2.04 12.31 0 0 8.54 1.73 16.17 1.93 7.64.1 11.5-1.52 11.5-1.52s1.02-6.41.6-7.63c0 0 1.23 4.17 2.15 5.6 1.01 1.72 2.13 5.28 4.37 5.49 2.14.1 3.97-2.14 4.17-3.05v-6.72h8.65c0-.1 3.86 1.42 5.08 1.22 1.22-.1 1.94-1.22.82-1.63l-.4-.3c1.1 0 2.53.7 2.53.7h4.27c.1-.1 0-.4-.1-.5-.3-1.22-2.54-2.24-4.17-2.95-1.63-.61-3.46-1.33-4.68-1.43-1.93-.2-3.25-.1-6.2.41-.82.1-3.87.4-5.8 1.32-.51.31-1.02.41-.82-.91.3-1.43.2-7.84-1.32-10.59-1.12-1.93-1.02-3.56-.81-5.18.1-1.63.2-7.23 0-8.86-.3-1.63-2.55-3.87-6.61-4.37-3.87-.51-7.13-3.67-7.33-6.21-.3-2.54.41-7.22.82-9.26"/><g fill="none"><path fill="#b68a6a" d="M292.44 153.63c-.7 3.25-.7 6.1-.6 9.25.1 2.14 1.11 4.58 2.03 6.72.6 1.43 1.42 3.05 2.75 3.87 3.56 2.34 6.92-.2 8.85-1.02a6.4 6.4 0 0 0 2.74-2.44c.51-1.22.3-2.14.82-4.48-.1.1.81-.4.7-.4.93-1.53.72-2.04 1.23-3.06.5-1.02-.6-2.14-1.83-1.93.6-1.93 1.02-4.07.4-5.9-.2-.61.51-2.24-.6-1.84-4.58 1.83-9.97 1.43-14.86 1.43-.4 0-.71-.82-1.32-.71-.1 0-.2.3-.3.5"/><path fill="#000" d="M292.03 155.35c-.5-.4-.6-1.32 0-3.26.72-1.93 0-2.03 1.12-3.15s.82-1.63 1.53-1.93c.7-.2 2.85-.2 3.56-.51a9.3 9.3 0 0 1 2.95-.92c1.52-.3 4.58-.2 6 .61 1.53.81 2.54 2.85 3.46 3.56 1.02.71 1.63 3.66 1.43 7.94-.31 4.27-1.12 3.46-1.12 3.46s-1.23-2.04-2.24-.31c0 0 0-1.63.2-2.85.1-1.22-.6-3.46.1-4.98 0 0-5.8 1.83-8.75 1.73-3.05-.2-7.32-.92-7.52-1.63l-.72 2.24"/><path fill="#fff" stroke="#fff" d="M294.98 151.8c-.3-.61-1.83-2.85-.6-3.56 1.11-.62.4 2.74 1.93 3.45 0 0-.51 1.53-1.32.1z"/><path d="M298.34 160.14c-.5 1.73-.7 2.14-.91 3.15m10.58 1.63c.2.6.4.3.92.4m.4-3.96c.51-.61 1.22-.3.82 1.22"/><path d="M292.44 157.7c.92.3 1.84.6 2.75 1.02 1.53.6.61 2.84.2 4.27-.2.71-1.01 1.93-.6 2.54.5.81 1.12.3 2.03.4 0-.3.61-.5.82-.5.7-.1 1.12.5 1.62.3.61-.3.51-1.22.3-1.72m-.1-4.48c.1-.4 1.02-.81 1.53-.92 2.14-.4 3.66-.71 5.4.51m-5.7 11.09c-1.74.4-3.57.7-5.2-.2m0-.81c.82-.41 1.12-.82 2.14-.31 0-.1 1.12-.4 1.12-.4.81 0 1.32.3 2.14.8m-5.5.3c.92-.3 3.36-.3 5.4.1"/><g stroke-width=".3"><path fill="#fff" stroke-linecap="round" stroke-linejoin="round" d="M292.34 160.14c.72-.1 1.53-.92 3.16.3 1.12.72-1.83 1.43-1.32 1.33-1.32.2-1.73-.51-1.83-1.12 0-.2-.2-.51 0-.51zm8.34.8c.72-1.42 1.84-1.11 2.85-.8 1.02.3.72.1 1.63.6-1.12.2-.81.3-1.63.71-.91.41-1.73.62-2.34.21-.2-.2-.71-.5-.71-.91 0 .1.1.2.2.2z"/><path fill="#000" d="M293.76 161.36c.41 0 .72-.4.72-.82 0-.5-.31-.91-.72-.91-.5 0-.8.4-.8.91 0 .41.3.82.8.82zm8.65.2c.4 0 .72-.4.72-.92a.8.8 0 0 0-.82-.8c-.4 0-.7.3-.7.8 0 .52.4.92.8.92z"/></g></g><g id="a"><g fill="none"><path d="M345.85 213.66a3.85 3.85 0 0 0-1.83-1.33l-2.03-1.01c-.71-.41-1.73-.51-2.34-.92m.4 2.65c-.3-.2-.5-.3-.8-.51-.31-.1-.72-.1-1.03-.2-.1 0-.1-.21-.2-.21a3.48 3.48 0 0 1-2.44-1.32m-62.78-9.36c.92.7 3.16 2.24 3.36 5.19a10.4 10.4 0 0 0 1.02 3.05m-13.13-7.83c.51 1.72.61 7.42 6 13.43m-4.98-21.37c-.4 1.12-.91 2.13.2 2.95m14.45 10.69c1.12-2.55 4.58-2.35 4.58-4.79"/><path d="M284.81 207.25c-.3-2.85-.91-4.48-.4-8.65.2-1.22.4-5.9 0-8.14 0 0 1.63 7.83-3.66 9.36m34.38 12.52c0-3.97.92-6.21.92-6.21 1.22-5.6-1.12-7.73-.2-9.16.8-1.22 2.03-3.76.4-8.85 0 0 2.85 10.48-4.47 10.48-7.43 0-7.12-2.75-7.12-2.75"/><path d="M284.4 190.46c0 2.13 0 8.44 9.06 8.44 2.74 0 5.7-1.93 7.32-3.25m2.24-2.75c-.3-1.94-.3-4.38-.3-6.92m-13.64-3.45c2.44-.31 4.38-.61 8.96-.61m.3-6.32c.51 2.24-.3 5.8 3.87 6.3m4.37-7.11c-.6 1.63-.6 3.25-.81 4.37m.2 2.76c1.73 0 4.99-1.12 9.06-.3m1.42 22.78c.82 1.63 1.02 3.76 3.56 6.2m-31.74-11.4c.2 1.33-1.73 5.7-.3 9.27a12.31 12.31 0 0 1-1.12 11.09m6.61-19.02c-.8 1.62-2.23 3.25-2.54 4.68m6.6-1.63c0 1.01-2.74 8.75-4.68 10.88 0 0 3.56 1.43 3.05 6.62m7.33-21.06c0 1.32-.2 1.63.92 2.44m2.44 0c1.32 1.62 5.5 6.51 4.58 9.26m-7.33-6.51c.31 1.01.31 6.3-.6 8.95m-2.14-.2c-1.12 0-2.74.81-3.05 2.74m8.74-3.05c1.12-.3 3.36 1.62 3.36 7.12m15.67-10.27c-2.13.6-3.05 1.73-2.44 1.12-1.12.91-2.13 1.52-2.13 1.52"/></g><path fill="#000" stroke-width=".3" d="M289.8 197.99c.6 0 1.11-.41 1.11-.92 0-.4-.5-.81-1.12-.81-.5 0-1.02.4-1.02.81 0 .5.51.92 1.02.92zm23.1.3c.5 0 1.01-.4 1.01-.9 0-.51-.5-.82-1.02-.82-.6 0-1.11.3-1.11.81s.5.92 1.11.92z"/><path fill="#e8e8e6" d="M280.54 239.8c1.22-7.93 4.99-14.54 5.09-15.16 0 0 3.87.82 10.58 1.43 6.61.7 8.44.4 11.5.2 2.95-.3 6.81-.81 6.81-.81s1.22 2.44 1.32 4.88c.3 5.19 2.24 27.68 2.44 33.68 0 0 .82 3.56.82 12.31 0 9.57 2.64 29 2.64 39.38l-2.64.51s-14.45 1.12-14.45-.81c0-2.13-.81-27.07 1.32-42.13 0 0-.5-2.95-1.32-5.5-.81-2.43-4.37-10.06-4.37-11.7 0 0-5.7 16.08-6 18.83-.3 2.55-1.12 38.36-1.63 41.32 0 0-8.24 6.3-9.36 6.92-1.12.5-9.06-3.36-9.26-4.38-.3-1.12.81-13.23 4.58-33.17 1.42-7.13.6-8.44.6-10.38 0-1.93.11-27.47 1.33-35.41z"/><path fill="none" d="M294.27 274.92c-.6 2.24-1.62 4.37-3.56 5.8m-2.75-53.63c-.3 1.32-2.23 7.32-7.12 10.88m14.24-9.76c-1.12 3.56-5.49 22.69-6.3 45.38m-.3 7.13c-.21 2.13-1.33 18-1.63 20.75m-.82 3.06c-.5 1.11-2.74 10.37-2.74 18.62m32.24-35.92c-.2 1.93-1.02 15.66 3.56 27.98m-18.5-85.98c-.31 2.23-.82 16.68-.82 17.8 0 1.12 1.63 2.75 2.44 3.06 0 0-1.62.5-1.93 6m-4.08-12.92c-.3 1.72-1.93 8.54-3.05 11.3m13.12-25.44s4.89 1.01 5.2 0c0 0 1.62 29.5 3.86 45.89m-11.19-42.13c0 1.93-.6 16.48-.6 16.48m2.43 2.14s1.93 2.74 1.43 4.06m-17.8-28.07c1.62.5 3.05.8 3.05.8m5.18 1.64c-.3.81-.6 4.58-.6 4.58m8.74 38.87c.61.81 1.43 1.93.82 4.37"/><path fill="#d67c59" d="M284.91 224.45s0-3.26 1.22-4.89c0 0 3.46.72 8.35 1.22 4.98.51 8.95.92 12.61.51 3.67-.4 7.43-1.32 7.43-1.32s1.02 4.79.5 5.5c0 0-3.96.81-8.33 1.01-4.48.3-11.9-.4-14.45-.8-3.36-.42-6.31-1.03-7.33-1.23z"/><path fill="#fff" d="m288.06 224.85.61-4.89 1.02.1-.2 5.1zm22.08-4.07.1 5.5 1.23-.21-.1-5.6zm-15.67 0-.4 5.29h.71l.71-5.3z"/><path fill="#653024" d="M276.77 320.8c-.3 1.33-.8 3.16-1.01 5.5 0 .51-.51 3.26 1.01 3.36 1.12.1 1.43-2.85 1.43-2.85s-1.02 3.25.3 3.66c1.83.4 2.04-3.56 2.04-3.56-.2 1.12-1.43 3.97.3 4.27 1.83.3 2.34-3.87 2.34-3.87s-1.52 4.18.3 4.28c1.74.1 1.74-4.07 1.74-4.07s-.92 4.99 1.52 4.58c1.32-.2 1.63-1.94 1.93-2.95.41-1.53 1.33-3.46.2-6.61-.8-2.34-.5-2.95-.5-2.95s-2.85 2.13-5.09 3.56c-1.02.6-6.5-2.34-6.5-2.34zm29.71-4.37c-.5-.31-.4 1.83-.6 2.84-.1 1.02.2 3.26 3.66 3.06 3.35-.3 6.71-1.02 8.85-.51 2.14.6 5.29.71 7.02.71 1.73 0 2.85-.2 3.66-.51.71-.3 2.24.41 2.95.41s1.83-1.12 1.73-1.83c-.1-1.33-1.32-1.33-3.05-1.43a28.7 28.7 0 0 1-4.99-.91c-1.12-.41-3.15-1.53-5.7-2.04 0 0-4.88.2-5.9.2-1.01 0-7.01.31-7.63 0z"/></g><g fill="#ad7c59" stroke-linecap="round"><path stroke-linejoin="round" d="M255.71 189.85c-.5.3-1.12-2.04.41-2.95 0 0 .4-1.93 2.04-2.14 0 0 1.32-1.83 3.25-1.63 0 0 2.24-1.52 3.05-1.32.82.1 2.85 2.14 2.95 2.85.2.71 0 1.93-.5 2.44-.62.61-1.03-.1-1.13-.91 0 0 .41 1.52-.81 2.13-1.22.72-1.12.2-1.22-.6 0 0-.3 1.62-1.12 1.82-.81.3-1.32-.4-1.93-.4 0 0 1.02.81.3 1.42-.71.51-1.52.3-2.03-.1-.51-.5-1.12-1.83-3.26-.6z"/><path d="M265.68 186.09c-.5-1.63-2.13-3.06-4.07-2.85m2.24 4.37c-.3-.41-.4-.82-.7-1.22-.92-1.53-2.86-1.43-4.48-1.84m2.43 4.59c-.6-.4-.8-1.23-1.42-1.53-1.02-.4-2.04-.91-3.26-.71"/></g></g><g transform="scale(1.6666667) matrix(.5 0 0 .5 92.788032 29.188568) matrix(.9333432 0 0 .9333432 -4.86471 22.640354) matrix(1.2 0 0 1.2 .005 -.004)"><path fill="#653024" d="M439.14 165.12c.71-.3.51.61.61.92.3 1.32.3 2.74.81 3.96.61 1.12.81 1.53 1.83 2.04 1.63.91 6.41 3.56 9.77 1.42.2-.1.5-.3.71-.5 0 0-1.22 4.17 2.95 6.2 1.32.71 15.67 8.24 15.67 8.24s1.52 2.75.61 6.51c-.2.61-.4 1.12.2 1.53 1.02.71 2.65 2.75 3.77 6 0 0 2.94-1.32 2.94-3.25 0-1.94-1.22-2.95-1.52-4.38-.2-1.32-1.02-4.68-.6-5.7.4-1.11 2.13-1.52 2.84-1.93.71-.41 1.53.4 1.32 1.32-.1 1.02-.81.82-1.63 1.02 0 0 1.02 1.93.82 3.35l9.36 4.79s-1.22 1.63-1.63 2.34c-.51.71-1.43 10.17-4.17 14.65-2.75 4.48-3.67 3.26-4.17 3.87-.61.5-1.43 1.32-2.14 1.93-.61.51-3.77.82-4.48-.91a8.93 8.93 0 0 0-3.15-4.18c-1.94-1.52-5.9-5.39-5.9-7.12 0 0-2.34 6.72-2.04 12.31 0 0-8.44 1.74-16.17 1.94-7.63.1-11.5-1.53-11.5-1.53s-1.02-6.4-.61-7.63c0 0-1.22 4.17-2.03 5.6-1.12 1.72-2.24 5.29-4.38 5.49-2.24.1-3.97-2.14-4.27-3.05v-6.72h-8.65c0-.1-3.76 1.43-5.08 1.23-1.22-.1-1.83-1.23-.82-1.63l.41-.3c-1.12 0-2.54.7-2.54.7H402c0-.1.1-.4.1-.5.3-1.23 2.54-2.25 4.27-2.96 1.63-.6 3.36-1.32 4.58-1.42 1.93-.2 3.26-.1 6.2.4.82.1 3.97.41 5.8 1.33.51.3 1.12.4.82-.92-.3-1.42-1.22-5.6.3-8.34 1.02-1.94.92-3.56.82-5.2-.2-1.72-1.12-5.59-1.12-7.32 0-5.7 4.37-8.04 8.24-9.26 4.27-1.32 7.12-2.75 6.92-5.29-.1-2.64.6-7.02.2-9.05"/><g fill="none"><path fill="#653024" d="M456.34 153.63c.92 3.36 1.12 4.17 1.12 5.29 0 1.22-.51 1.43-.1 2.75.7 2.44-.72 5.09-2.44 7.94-.82 1.32-1.43 3.05-2.75 3.86-3.36 2.14-7.43-.4-9.57-1.32a3.73 3.73 0 0 1-2.03-2.14c-.4-1.22-.5-2.34-.81-3.97 0-.3.1-1.22-.61-.91-1.22-1.43-1.02-2.04-1.52-3.05-.51-1.03.91-2.14 2.03-1.94-.61-1.93-.92-4.07-.3-5.9.2-.61-.51-2.24.5-1.83 4.58 1.83 9.97 1.42 14.86 1.42.4 0 .7-.81 1.32-.7.1 0 .2.3.3.5"/><path fill="#000" d="M456.75 155.35c.5-.4.2-2.34-.3-4.38-.2-1.01-1.02-1.42-2.14-2.54s-1.53-1.12-2.24-1.42c-.6-.2-2.03-.2-2.74-.51-.61-.3-2.24-.1-3.77.1-2.04.3-3.15.2-4.68 1.02-1.52.81-2.75 1.73-3.25 3.25-.41 1.12-1.12 2.55-.82 6.82.2 4.27 1.02 3.46 1.02 3.46s1.12-1.63 1.83-.61c0 0-.1-2.24-.3-3.56-.1-1.22 0-2.75.5-4.58 0 0 4.69 1.73 9.06 1.73 3.05 0 7.02-.3 7.12-1.02l.71 2.24z"/><path d="M450.44 160.14c.61 1.73.1 1.22.4 2.34m-10.27 2.03c0 .81-.61.61-1.02.61"/><path d="M456.85 158.82c-.92-.71-2.65-.2-3.46.1-1.52.71-.71 2.24-.2 3.67.2.7 1.02 1.72.5 2.44-.4.8-.7.4-1.62.5.1-.3-.81 0-1.12 0-.6-.1-.91.41-1.42.2-.61-.3-.51-1.21-.31-1.72m.1-4.48c0-.4-1.32-.81-2.74-.92-2.24-.1-2.45.1-4.18 1.33m11.5 8.95c-.4-.6-1.02-.92-2.14-.4 0-.2-1.52-.41-1.52-.41-.81 0-1.32.3-2.14.7m5.59.62c-.92-.61-3.26-.2-5.6-.2m.21.81c1.73.51 3.46.82 5.19 0"/><g stroke-width=".3"><path fill="#fff" stroke-linecap="round" stroke-linejoin="round" d="M456.44 160.14c-.71-.1-1.02-.92-3.15.3-1.12.62 1.83 1.43 1.42 1.33 1.22.2 1.63-.5 1.73-1.12 0-.2.2-.51 0-.51zm-8.34.81c0-.82-1.83-1.12-2.85-.82-1.02.31-.6.1-1.52.62 1.02.2.7.3 1.52.7.92.42 1.12.82 2.34.21.3-.1.71-.5.82-.91-.1.1-.2.2-.31.2z"/><path fill="#000" d="M455.12 161.36a.8.8 0 0 1-.81-.81c0-.51.3-.92.81-.92.4 0 .71.4.71.92 0 .4-.3.81-.71.81zm-8.75.2c-.4 0-.71-.4-.71-.92 0-.5.4-.8.81-.8.41 0 .71.3.71.8 0 .52-.3.92-.81.92z"/></g></g><use xlink:href="#a" width="100%" height="100%" fill="#d67c59" transform="matrix(-1 0 0 1 748.816 0)"/><g fill="#653024"><path stroke-linecap="round" d="M491.64 193.51c.5.2 1.93-2.03.5-3.05 0 0-.5-1.93-2.13-2.04 0 0-1.32-1.93-3.26-1.63 0 0-2.13-1.52-2.94-1.42-.92.2-2.95 2.24-3.06 2.95-.1.61 0 1.83.51 2.44.61.51 1.02-.1 1.12-1.02 0 0-.4 1.53.81 2.24 1.22.71 1.12.1 1.22-.7 0 0 .31 1.62 1.12 1.93.82.3 1.33-.41 1.94-.41 0 0-1.02.81-.3 1.32.7.61 1.52.3 2.03-.1.6-.4.3-1.73 2.44-.51z"/><path stroke-linecap="round" stroke-linejoin="round" d="M482.49 189.75c.5-1.73 2.23-3.15 4.07-2.85m-2.14 4.38c.2-.41.3-.82.61-1.22.92-1.53 2.95-1.53 4.58-1.84m-2.55 4.48c.61-.4.81-1.12 1.43-1.42a5.28 5.28 0 0 1 3.25-.71"/><path stroke="none" d="M482.31 186.77c-.9.72-1.84 1.8-1.9 2.28-.1.61-.01 1.83.5 2.44.54.46.94-.02 1.09-.78-.06.46-.07 1.46.84 2 1.22.7 1.12.1 1.22-.72 0 0 .31 1.63 1.13 1.94.8.3 1.32-.4 1.93-.4 0 0-1.02.8-.3 1.3.7.61 1.51.31 2.02-.09.61-.41.3-1.72 2.44-.5.27.1.8-.45 1.03-1.16l-7.69-5.53z"/><path d="M480.68 188.19c-1.5 2.58.5 4.13 1.16 2.62-.19 2.38 1.61 2.29 2.29 1.54.66 2.5 1.83 1.4 2.9 1.16-1.22 2.3 1.49 1.61 2.13 1.08.92-1.36 1.35-.27 2.03-.41l1.17-1.25m-7.98-5.7c-1.69.9-2.51 2.14-2.53 3.7m4.86-2.2c-1.69.9-2.51 2.14-2.53 3.7m5.4-1.75c-1.69.9-1.76 1.72-2.5 2.83"/></g></g></g><g fill="#ffe682"><path d="M500.08 419.36c21.36.2 34-7.6 40.92-12.25 16.24-10.92 19.66-11.3 22.32-11.11 3.04.29 7.5 1.33 7.7 4 .28 4.08-6.37 5.88-10.17 5.88-3.9 0-14.05-2.57-14.05-2.57l-2.66 1.81c1.8.86 22.6 7.79 26.58 1.24 4.09-6.65 8.17-17.39 8.17-17.39s-4.56-8.16-14.72-8.16c-10.25 0-20.23 6.46-26.87 11.3-6.65 4.84-15 11.49-37.23 11.49-22.22 0-30.67-6.65-37.31-11.5-6.65-4.84-16.62-11.3-26.78-11.3-10.25 0-14.81 8.17-14.81 8.17s4.08 10.74 8.16 17.38c4 6.55 24.79-.38 26.59-1.23l-2.56-1.8s-10.26 2.56-14.06 2.56c-3.9 0-10.54-1.8-10.25-5.89.19-2.66 4.65-3.7 7.69-4 2.66-.18 6.08.2 22.31 11.12 6.94 4.66 19.57 12.16 41.03 12.25"/><path d="M465.7 394.2s0-1.82-.29-4.47c-.37-3.42-2.37-4.28-3.98-3.8-1.05.37-3.13 2.94-3.13 2.94v.1a30.2 30.2 0 0 0-2.95-1.8c.76-.86 5.13-3.52 6.17-3.52.96 0 14.06 5.32 18.23 8.92 1.05.96 1.81 6.84 1.24 8.74a45.13 45.13 0 0 1-15.29-7.03v-.1m-6.27 13.31s-2.85 2.85-2.94 8.07c-.1 6.18 4.37 6.46 7.3 6.37 3.52-.1 6.37-2.1 6.28-8.65 0 0-5.8-2.47-10.64-5.79m74.93-13.3s.1-1.8.38-4.46c.38-3.42 2.28-4.28 3.9-3.8 1.04.37 3.12 2.94 3.12 2.94v.1a30.06 30.06 0 0 1 2.95-1.8c-.76-.86-5.13-3.52-6.08-3.52-1.04 0-14.15 5.32-18.32 8.92-.96.96-1.72 6.84-1.24 8.74a44.25 44.25 0 0 0 15.29-7.03v-.1m6.26 13.31s2.85 2.85 2.95 8.07c.19 6.18-4.37 6.46-7.32 6.37-3.51-.1-6.26-2.1-6.26-8.65 0 0 5.79-2.47 10.63-5.79"/></g><path fill="#171696" d="M453.26 403.31s-10.16 2.56-13.96 2.56c-3.89 0-10.54-1.8-10.25-5.88.19-2.66 4.65-3.7 7.69-3.99 2.28-.2 5.22.1 16.52 7.31m93.54 0s10.16 2.56 14.06 2.56c3.8 0 10.44-1.8 10.15-5.88-.18-2.66-4.65-3.7-7.69-3.99-2.28-.2-5.22.1-16.52 7.31m-81.1-9.03a90 90 0 0 1-3.04-2.27c-1.42-1.05-2.85-2-4.37-3.04 0 0 2.1-2.66 3.14-2.95 1.61-.57 3.6.28 3.98 3.7.29 2.66.29 4.57.29 4.57m-6.93 26.78c1.8 1.05 3.8.95 5.03.86 3.52-.1 6.36-2.1 6.27-8.64 0 0 4.37 2.18 11.49 3.89 0 0 1.14 1.42 1.33 4.27.28 2.38-1.33 4.94-3.23 4.75 0 0-9.97-1.8-16.05-2.85-3.51-.66-4.84-2.28-4.84-2.28m75.59-26.79 3.13-2.27c1.33-1.05 2.75-2 4.27-3.04 0 0-2.08-2.66-3.13-2.95-1.61-.57-3.51.28-3.9 3.7-.28 2.66-.37 4.57-.37 4.57m6.92 26.78c-1.8 1.05-3.8.95-5.03.86-3.51-.1-6.27-2.1-6.27-8.64 0 0-4.36 2.18-11.4 3.89 0 0-1.22 1.42-1.42 4.27-.18 2.38 1.43 4.94 3.23 4.75 0 0 10.07-1.8 16.05-2.85 3.52-.66 4.84-2.28 4.84-2.28"/><g fill="none" stroke="#000" stroke-width=".66"><path d="M500.08 419.36c21.36.2 34-7.6 40.92-12.25 16.24-10.92 19.66-11.3 22.32-11.1 3.04.28 7.5 1.32 7.69 3.98.29 4.08-6.36 5.88-10.16 5.88-3.9 0-14.05-2.56-14.05-2.56l-2.66 1.81c1.8.86 22.6 7.79 26.58 1.23 4.09-6.65 8.17-17.38 8.17-17.38s-4.56-8.17-14.72-8.17c-10.25 0-20.23 6.46-26.87 11.3-6.65 4.85-15 11.5-37.23 11.5-22.22 0-30.67-6.65-37.31-11.5-6.65-4.84-16.62-11.3-26.78-11.3-10.25 0-14.81 8.17-14.81 8.17s4.08 10.73 8.16 17.38c4 6.55 24.79-.38 26.6-1.23l-2.57-1.8s-10.26 2.55-14.05 2.55c-3.9 0-10.54-1.8-10.26-5.88.2-2.66 4.65-3.7 7.7-4 2.65-.18 6.07.2 22.3 11.12 6.94 4.66 19.57 12.16 41.03 12.25z"/><path d="M453.26 403.31s-10.16 2.56-13.96 2.56c-3.89 0-10.54-1.8-10.25-5.88.19-2.66 4.65-3.7 7.69-3.99 2.28-.2 5.22.1 16.52 7.31zm93.53 0s10.16 2.56 14.06 2.56c3.8 0 10.44-1.8 10.16-5.88-.2-2.66-4.65-3.7-7.7-3.99-2.27-.2-5.22.1-16.51 7.31zm-81.09-9.03a90 90 0 0 1-3.04-2.27c-1.42-1.05-2.85-2-4.37-3.04 0 0 2.1-2.66 3.14-2.95 1.61-.57 3.6.28 3.98 3.7.3 2.66.3 4.57.3 4.57z"/><path d="M465.7 394.2s0-1.82-.29-4.47c-.37-3.42-2.37-4.28-3.98-3.8-1.05.38-3.14 2.94-3.14 2.94v.1a31 31 0 0 0-2.94-1.8c.76-.86 5.13-3.52 6.17-3.52.96 0 14.06 5.32 18.23 8.93 1.05.95 1.8 6.83 1.24 8.74a45.33 45.33 0 0 1-15.3-7.03m-6.26 13.2s-2.85 2.85-2.94 8.07c-.1 6.17 4.37 6.46 7.3 6.37 3.52-.1 6.37-2.1 6.28-8.65 0 0-5.8-2.47-10.64-5.8z"/><path d="M461.81 408.91s-2.28 2.37-2.66 6.27c-.19 3.04 1.8 4.74 4.37 4.55 3.6-.18 5.03-5.12 3.32-7.88z"/><path d="M458.77 421.07c1.8 1.05 3.8.95 5.03.86 3.51-.1 6.36-2.1 6.27-8.65 0 0 4.37 2.19 11.49 3.9 0 0 1.14 1.42 1.33 4.27.28 2.38-1.33 4.94-3.23 4.75 0 0-9.97-1.8-16.05-2.85-3.51-.66-4.84-2.28-4.84-2.28zm75.59-26.79 3.13-2.27c1.33-1.05 2.76-2 4.28-3.04 0 0-2.1-2.66-3.14-2.95-1.61-.57-3.51.28-3.89 3.7a87.34 87.34 0 0 0-.38 4.57z"/><path d="M534.36 394.2s.1-1.82.38-4.47c.38-3.42 2.28-4.28 3.9-3.8 1.04.38 3.12 2.94 3.12 2.94v.1a31 31 0 0 1 2.95-1.8c-.76-.86-5.13-3.52-6.08-3.52-1.05 0-14.15 5.32-18.32 8.93-.96.95-1.72 6.83-1.24 8.74a44.44 44.44 0 0 0 15.29-7.03m6.26 13.2s2.85 2.85 2.95 8.07c.19 6.17-4.37 6.46-7.32 6.37-3.51-.1-6.26-2.1-6.26-8.65 0 0 5.79-2.47 10.63-5.8z"/><path d="M538.25 408.91s2.28 2.37 2.66 6.27c.29 3.04-1.8 4.74-4.37 4.55-3.6-.18-4.94-5.12-3.32-7.88z"/><path d="M541.28 421.07c-1.8 1.05-3.8.95-5.03.86-3.51-.1-6.26-2.1-6.26-8.65 0 0-4.37 2.19-11.4 3.9 0 0-1.23 1.42-1.42 4.27-.2 2.38 1.42 4.94 3.23 4.75 0 0 10.06-1.8 16.04-2.85 3.52-.66 4.85-2.28 4.85-2.28z"/></g><path fill="none" stroke="#fff" stroke-width=".66" d="M480.8 418.89s3.14 2.28-.66 5.13m-8.74-6.65 9.6 4.18m-7.99-2 7.02 3.04m-4.55-4.84 5.32 2.38m38.55-1.24s-3.23 2.28.57 5.13m8.74-6.65-9.6 4.18m8.08-2-7.03 3.04m4.47-4.84-5.22 2.38"/><g stroke="#000"><path stroke-width=".65" d="M443.26 389.67a1.98 1.98 0 0 1 .23 1.5 2.3 2.3 0 0 1-1.12 1.6 2.9 2.9 0 0 1-2.1.3 3.58 3.58 0 0 1-1.06-.37 4.23 4.23 0 0 1-.87-.57l-.32.36-.46-.08.45-2.76.46.09c.03.35.09.68.16.97.07.3.2.59.36.87.16.25.35.48.6.66.23.18.53.3.88.37.26.05.5.06.71.03a1.19 1.19 0 0 0 .89-.59c.09-.15.15-.33.2-.56a1.66 1.66 0 0 0-.1-.94 1.7 1.7 0 0 0-.7-.79 49.44 49.44 0 0 0-.8-.49 11.03 11.03 0 0 1-.76-.49 2.64 2.64 0 0 1-.91-1c-.2-.37-.25-.83-.14-1.36a1.99 1.99 0 0 1 .35-.8c.17-.25.4-.45.67-.61a2.45 2.45 0 0 1 .87-.32 2.94 2.94 0 0 1 1.95.38c.27.17.52.35.73.55l.3-.34.47.09-.46 2.66-.47-.09a10.92 10.92 0 0 0-.11-.93 3.46 3.46 0 0 0-.27-.83 1.89 1.89 0 0 0-.5-.64 1.8 1.8 0 0 0-.83-.36 1.34 1.34 0 0 0-1 .17c-.3.19-.48.44-.54.77-.06.34-.03.64.09.9.12.27.32.5.6.7.26.2.51.35.76.5a14.91 14.91 0 0 1 1.32.92c.18.16.34.34.46.53m11.65 1.64a3.5 3.5 0 0 0-.45-.17 1.37 1.37 0 0 0-.54-.09c-.16.02-.32.14-.5.35a5.52 5.52 0 0 0-.56.85l-1.7 3.1a2.34 2.34 0 0 1-1.88 1.25c-.37.04-.72 0-1.07-.07a4.05 4.05 0 0 1-.91-.36c-.44-.24-.8-.5-1.07-.8a2.8 2.8 0 0 1-.6-.94 2.16 2.16 0 0 1-.16-.94 2.01 2.01 0 0 1 .25-.87l2.33-4.21a.88.88 0 0 0 .1-.34.7.7 0 0 0-.11-.34 1.46 1.46 0 0 0-.27-.3c-.12-.1-.2-.17-.3-.23l.2-.36 3.02 1.67-.2.35a3.02 3.02 0 0 0-.38-.15 1.88 1.88 0 0 0-.37-.1c-.13-.02-.25 0-.34.08a.88.88 0 0 0-.22.27l-2.18 3.94a3.24 3.24 0 0 0-.26.64c-.08.23-.1.47-.08.72.03.26.13.5.3.75.16.24.44.47.83.69.38.2.72.32 1.04.35.32.01.6-.02.85-.13a1.93 1.93 0 0 0 .61-.41 2.46 2.46 0 0 0 .42-.55l1.61-2.93c.2-.37.35-.69.42-.96.08-.26.08-.46.02-.6-.07-.14-.2-.3-.37-.46a3.45 3.45 0 0 0-.43-.34l.2-.35 2.95 1.63-.2.36m4.2 7.25a1.83 1.83 0 0 1-.06 1.79c-.2.32-.43.57-.72.73a2.12 2.12 0 0 1-.9.27 2.86 2.86 0 0 1-.97-.09 3.92 3.92 0 0 1-.95-.39l-3.39-1.95.2-.35a4.15 4.15 0 0 0 .76.27.52.52 0 0 0 .33-.06.7.7 0 0 0 .24-.26l2.92-5.08a.91.91 0 0 0 .12-.33.54.54 0 0 0-.11-.34 1.63 1.63 0 0 0-.28-.3c-.1-.1-.2-.18-.28-.24l.2-.35 3.3 1.9c.26.15.5.31.7.5.2.18.37.4.51.64.13.24.21.49.22.76 0 .27-.06.55-.22.84a1.75 1.75 0 0 1-.52.58 1.64 1.64 0 0 1-.68.28c-.23.05-.47.05-.72.03a3.23 3.23 0 0 1-.77-.16l-.03.04a4.28 4.28 0 0 1 1.1 1.27zm-.61-1.77c.2-.07.38-.17.53-.32a2.71 2.71 0 0 0 .42-.56c.22-.38.29-.75.2-1.1-.09-.35-.37-.65-.83-.92l-.4-.22-.42-.23-1.57 2.72.64.37c.28.16.53.26.77.3.24.04.46.03.66-.04zm-.6 2.66a1.58 1.58 0 0 0 .17-1.27c-.13-.44-.46-.8-1-1.11a33.54 33.54 0 0 0-.54-.3l-.34-.19-1.43 2.5a.6.6 0 0 0-.02.61c.11.21.32.4.63.57.5.3.96.37 1.4.24.43-.14.8-.49 1.13-1.05zm18.39 4.2a3.36 3.36 0 0 0-.47-.13 1.4 1.4 0 0 0-.54-.03c-.16.03-.31.17-.47.4a5.7 5.7 0 0 0-.47.9l-1.4 3.26c-.17.41-.41.73-.72.97a2.5 2.5 0 0 1-1.01.45 3.14 3.14 0 0 1-1.07.03 3.99 3.99 0 0 1-.95-.26c-.45-.2-.84-.42-1.14-.7a3 3 0 0 1-.7-.86 2.16 2.16 0 0 1-.24-.92 2.02 2.02 0 0 1 .16-.9l1.9-4.42a.88.88 0 0 0 .08-.33.7.7 0 0 0-.16-.34 1.55 1.55 0 0 0-.3-.27l-.3-.2.15-.37 3.16 1.35-.16.38a3.36 3.36 0 0 0-.4-.12 2.24 2.24 0 0 0-.36-.06c-.14-.01-.25.02-.33.1a.93.93 0 0 0-.2.3l-1.78 4.14a3.3 3.3 0 0 0-.2.65 1.73 1.73 0 0 0 0 .74c.06.25.18.48.37.71.18.22.49.43.9.6.4.17.75.25 1.07.25.32-.02.6-.08.83-.22a2 2 0 0 0 .57-.46c.15-.18.27-.38.36-.59l1.32-3.07c.16-.4.27-.72.32-1 .05-.27.04-.46-.04-.59a1.44 1.44 0 0 0-.42-.42 3.62 3.62 0 0 0-.46-.3l.16-.37 3.1 1.32a12 12 0 0 0-.16.37m8.93 10.5-3.5-1.02.1-.39.5.1c.21.04.36.05.45.03a.79.79 0 0 0 .32-.17.7.7 0 0 0 .18-.31l1.65-5.7a1.34 1.34 0 0 0-.09-.02c-1.53 1.97-3.1 3.91-4.64 5.89l-.27-.08c-.2-2.53-.43-5.04-.61-7.56a.7.7 0 0 0-.08-.02l-1.35 4.68c-.13.44-.2.8-.2 1.05a1 1 0 0 0 .1.59c.07.1.22.22.46.36.23.15.39.23.47.26l-.12.4-3.2-.93.11-.4c.18.04.36.06.56.07.2.02.35 0 .48-.05.16-.07.29-.2.4-.4.11-.2.24-.55.38-1.05l1.16-4c.07-.24.1-.43.08-.6a.92.92 0 0 0-.13-.42 1.2 1.2 0 0 0-.37-.35 1.98 1.98 0 0 0-.47-.23l.1-.39 2.71.78c.18 2.18.4 4.36.58 6.54 1.1-1.45 2.25-2.9 3.36-4.35.12-.16.24-.33.35-.52a2.75 2.75 0 0 0 .2-.37l2.58.75-.11.39a3.75 3.75 0 0 0-.41-.07 2.32 2.32 0 0 0-.39-.02.43.43 0 0 0-.32.15.91.91 0 0 0-.16.32l-1.63 5.64a.77.77 0 0 0-.03.35c.02.1.08.2.19.3a3.24 3.24 0 0 0 .72.38l-.11.39m8.48-2.58a1.8 1.8 0 0 1 .64 1.67 1.96 1.96 0 0 1-.37.95 2.23 2.23 0 0 1-.74.6 2.96 2.96 0 0 1-.92.3c-.34.04-.68.05-1.03 0l-3.87-.48.05-.4a4.4 4.4 0 0 0 .8-.04.5.5 0 0 0 .28-.2.7.7 0 0 0 .12-.32l.73-5.81a.94.94 0 0 0-.02-.35.55.55 0 0 0-.24-.28 1.61 1.61 0 0 0-.37-.18l-.35-.1.05-.4 3.79.47c.29.04.56.1.83.2.26.09.5.22.72.4.2.15.38.36.5.6.1.25.15.54.1.86a1.69 1.69 0 0 1-.75 1.26c-.2.14-.42.23-.66.3a3.31 3.31 0 0 1-.77.16l-.01.05c.23.06.49.15.77.27.27.13.52.28.72.47zm-1.24-1.4c.16-.14.29-.3.37-.5a2.7 2.7 0 0 0 .17-.67c.05-.45-.03-.8-.24-1.1-.22-.29-.59-.45-1.12-.52a26.5 26.5 0 0 0-.46-.06l-.48-.04c-.13 1.04-.25 2.08-.39 3.11l.73.1a2.49 2.49 0 0 0 .83-.02c.23-.06.43-.15.59-.3zm.48 2.69a1.6 1.6 0 0 0-.34-1.24c-.29-.35-.73-.56-1.34-.64l-.62-.07-.39-.04-.36 2.86a.6.6 0 0 0 .23.58c.18.14.45.24.8.28.57.07 1.03-.03 1.37-.33.35-.3.57-.76.65-1.4zm11.11 2.57h-2.22c-.49-.77-.94-1.42-1.33-1.98-.4-.56-.84-1.12-1.3-1.72h-.85v2.59c0 .13.03.25.07.35.04.1.13.18.27.23.07.03.2.05.37.08l.44.04v.4H496v-.4l.41-.04c.17-.02.3-.05.37-.08a.5.5 0 0 0 .25-.22.72.72 0 0 0 .08-.36v-5.9a.95.95 0 0 0-.06-.35c-.04-.1-.13-.18-.28-.24a2.17 2.17 0 0 0-.37-.1 2.95 2.95 0 0 0-.4-.05v-.4h3.81c.35 0 .68.03.99.1.3.07.58.18.83.34a1.72 1.72 0 0 1 .79 1.5c0 .31-.05.59-.14.83a1.72 1.72 0 0 1-.44.62c-.17.17-.38.3-.62.43-.25.12-.52.22-.81.31l1.02 1.34c.26.37.6.8.98 1.33a2.45 2.45 0 0 0 .88.78 2.9 2.9 0 0 0 .76.16v.4zm-3.06-6.08c0-.49-.15-.87-.43-1.17-.28-.3-.69-.43-1.21-.43h-1v3.49h.77c.54 0 .99-.16 1.34-.5.35-.35.54-.8.54-1.39zm12.58 5.47-3.43.26-.03-.41c.3-.04.55-.1.75-.17.19-.08.28-.15.28-.24l-.02-.12a.45.45 0 0 0-.05-.13l-.82-1.77-2.9.22-.2.72-.14.56a3.48 3.48 0 0 0-.08.41v.25c0 .16.13.26.39.33.25.07.52.1.83.09l.03.4-3.1.24-.03-.4a1.94 1.94 0 0 0 .37-.1 1.2 1.2 0 0 0 .36-.18c.15-.11.26-.23.34-.35a1.82 1.82 0 0 0 .21-.48c.33-1.06.72-2.23 1.11-3.54l1.08-3.5.46-.03c1.08 2.27 2.2 4.52 3.28 6.8a2 2 0 0 0 .22.34c.09.09.2.17.33.25.1.04.21.08.36.1.15.03.27.04.36.04l.04.41zm-3.57-3.07c-.49-1.02-1-2.03-1.49-3.06-.32 1.09-.67 2.16-.99 3.24zm15.28-6.43-.42.1a3.08 3.08 0 0 0-.74-.8c-.34-.26-.63-.38-.87-.35a5.72 5.72 0 0 0-.42.08l-.55.14-1.34.36.86 3.16.92-.25c.27-.08.48-.16.62-.26a1.05 1.05 0 0 0 .32-.37c.05-.1.09-.25.1-.44a2.29 2.29 0 0 0-.02-.59l.42-.1.84 3.08-.42.12a2.78 2.78 0 0 0-.27-.53 1.6 1.6 0 0 0-.34-.38.85.85 0 0 0-.5-.18 2.22 2.22 0 0 0-.63.1l-.92.25.74 2.7a.71.71 0 0 0 .16.32.6.6 0 0 0 .32.16c.07.01.2 0 .4-.01.19-.01.34-.04.43-.06l.11.4-3.45.93-.11-.4.44-.15c.18-.07.3-.12.35-.17a.5.5 0 0 0 .18-.28.79.79 0 0 0-.01-.36l-1.54-5.67a1.07 1.07 0 0 0-.15-.31.57.57 0 0 0-.32-.16 2.36 2.36 0 0 0-.44-.02 2.3 2.3 0 0 0-.43.05l-.1-.4 6.24-1.7.54 1.98m9.2-.7.9 2.27-5.81 2.8-.18-.37a9.21 9.21 0 0 0 .64-.43.5.5 0 0 0 .14-.31.76.76 0 0 0-.1-.37l-2.53-5.25a.9.9 0 0 0-.2-.28.5.5 0 0 0-.35-.1 1.55 1.55 0 0 0-.4.04 1.88 1.88 0 0 0-.4.1l-.17-.37 3.14-1.51.18.37a2.78 2.78 0 0 0-.36.23 2.13 2.13 0 0 0-.3.25.4.4 0 0 0-.13.33c0 .12.03.23.08.35l2.38 4.93c.11.22.2.4.3.5a.51.51 0 0 0 .3.23c.1.02.24 0 .41-.06.17-.06.4-.15.68-.3.13-.05.26-.12.4-.2a2.83 2.83 0 0 0 .67-.48.57.57 0 0 0 .17-.25 6.34 6.34 0 0 0 .17-1.94l.37-.17m4.35-8.08a4.07 4.07 0 0 1 1.43.74 5 5 0 0 1 1.16 1.36c.33.56.53 1.12.63 1.68.09.56.05 1.09-.07 1.6a3.84 3.84 0 0 1-.65 1.38 3.8 3.8 0 0 1-1.16 1.03 3.82 3.82 0 0 1-3.06.4 3.93 3.93 0 0 1-1.4-.74 4.89 4.89 0 0 1-1.12-1.31 4.83 4.83 0 0 1-.64-1.7 4.23 4.23 0 0 1 .06-1.6 3.85 3.85 0 0 1 .66-1.38 3.9 3.9 0 0 1 2.64-1.55 3.74 3.74 0 0 1 1.52.1zm2.2 5.42a3.82 3.82 0 0 0-.2-1.26 6.7 6.7 0 0 0-.62-1.34 7.01 7.01 0 0 0-.93-1.25 3.82 3.82 0 0 0-1.03-.77 2.32 2.32 0 0 0-1.08-.25c-.36 0-.73.12-1.09.33-.4.23-.69.52-.85.87a2.53 2.53 0 0 0-.26 1.13c0 .4.08.8.23 1.24.15.44.34.87.6 1.3a7.19 7.19 0 0 0 .88 1.21c.31.33.66.6 1.01.78a2.21 2.21 0 0 0 2.22-.06 2.24 2.24 0 0 0 .82-.82c.18-.34.29-.7.3-1.1zm10.23-5.56-1.82 1.3c-.83-.36-1.58-.62-2.22-.85-.65-.23-1.33-.43-2.05-.65l-.7.49 1.5 2.1c.08.11.17.2.26.25.1.06.21.07.36.04l.34-.15c.16-.08.28-.16.38-.23l.24.34-2.85 2.02-.23-.34.3-.26a1.52 1.52 0 0 0 .26-.28.47.47 0 0 0 .08-.32.72.72 0 0 0-.15-.34l-3.4-4.81a1.03 1.03 0 0 0-.26-.26c-.09-.06-.2-.07-.35-.03a2.99 2.99 0 0 0-.72.32l-.24-.33 3.1-2.2a4.43 4.43 0 0 1 .87-.49 2.63 2.63 0 0 1 .88-.2 1.7 1.7 0 0 1 .81.15c.26.12.5.33.7.61.18.26.3.51.36.77.06.25.06.5.01.75-.04.24-.14.47-.26.71a4.67 4.67 0 0 1-.49.72l1.61.5 1.58.52a2.44 2.44 0 0 0 1.16.13 2.54 2.54 0 0 0 .71-.31l.23.34zm-6-3.18c-.29-.4-.64-.63-1.04-.71-.4-.07-.81.05-1.24.35l-.8.57a5350.39 5350.39 0 0 0 2.01 2.86l.63-.45c.44-.3.7-.7.8-1.18a1.9 1.9 0 0 0-.36-1.44zm12.8-1.95.7 2.3-6.44 2.39-.14-.38a4.27 4.27 0 0 0 .75-.41.57.57 0 0 0 .16-.3.72.72 0 0 0-.05-.36l-2.04-5.5a.95.95 0 0 0-.18-.29c-.07-.07-.18-.1-.33-.12-.11-.01-.26 0-.44.02a2.08 2.08 0 0 0-.42.08l-.14-.38 6-2.22.67 1.84-.4.15a2.63 2.63 0 0 0-.8-.7c-.36-.22-.65-.3-.88-.24l-.41.11-.54.2-1.22.45 1.13 3.03.87-.33c.28-.1.48-.2.6-.3a.85.85 0 0 0 .23-.38 1.47 1.47 0 0 0 .05-.5 2.8 2.8 0 0 0-.07-.53l.41-.16 1.11 3-.4.15a3.08 3.08 0 0 0-.33-.5 1.47 1.47 0 0 0-.35-.35.84.84 0 0 0-.49-.13 2.03 2.03 0 0 0-.6.15l-.87.32.85 2.3c.09.23.17.4.25.53a.53.53 0 0 0 .3.23c.12.03.27.02.44-.02.17-.04.41-.12.71-.23l.48-.17a3.42 3.42 0 0 0 .89-.45c.13-.1.22-.18.25-.27a5.32 5.32 0 0 0 .3-1.88l.4-.15m6.9-5.66a3.98 3.98 0 0 1 1.03 1.24 5 5 0 0 1 .53 1.7 4.73 4.73 0 0 1-.08 1.8 4.05 4.05 0 0 1-.68 1.45 3.8 3.8 0 0 1-2.6 1.5 3.76 3.76 0 0 1-2.99-.83 3.98 3.98 0 0 1-.99-1.23 4.73 4.73 0 0 1-.52-1.65 4.83 4.83 0 0 1 .08-1.8 4.2 4.2 0 0 1 .68-1.45 3.87 3.87 0 0 1 2.61-1.5 3.95 3.95 0 0 1 1.58.09 3.76 3.76 0 0 1 1.35.68zm-.1 5.85a3.84 3.84 0 0 0 .32-1.24 7.08 7.08 0 0 0-.05-1.48 6.79 6.79 0 0 0-.37-1.5 3.75 3.75 0 0 0-.63-1.12 2.35 2.35 0 0 0-.9-.65 2.2 2.2 0 0 0-1.13-.13 2.1 2.1 0 0 0-1.14.47 2.5 2.5 0 0 0-.68.94c-.14.36-.24.77-.27 1.23a6.77 6.77 0 0 0 .04 1.43c.07.54.19 1.03.35 1.46.15.43.37.8.62 1.1a2.14 2.14 0 0 0 2.06.82 2.23 2.23 0 0 0 1.07-.43 2.31 2.31 0 0 0 .7-.9z"/><path fill="none" stroke-width=".95" d="M468.7 266.93h62.72m5.13 0h8.82v51.57c0 10.25-1.42 51.1-45.3 66.95-43.96-15.86-45.38-56.7-45.38-66.95v-51.57h8.88"/></g><path fill="#338a00" stroke="#075400" stroke-width=".5" d="M494.08 132.86c-3.4.03-7.17 1.67-11.03 5.81 9.3-2.72 13.4 3.44 17.28 7.38-11.5.02-22.71 1.3-33.5 3.72-3.59-7.95-16.3-17.63-26.18-2.98 9-4.25 14.06 1.64 18.6 4.88-9.3 2.6-18.25 6.05-26.76 10.25l-.08-.2c-3.71-7.09-23.02-15.74-27.57 3.83 9.52-9.87 18.98 1.05 24.63-2.1a154.1 154.1 0 0 0-24.43 15.88l-.11-.17c-5.16-6.13-25.9-10.45-26.1 9.63 7.02-11.44 18.3-3.39 23.3-7.09A154.86 154.86 0 0 0 380 204.38c-.12-.14-.23-.3-.35-.42-5.75-5.58-26.82-7.82-24.98 12.18 5.98-12.41 18.54-4.76 22.83-9.7-.65.75-1 1.7-1.18 2.77a153.77 153.77 0 0 0-15.64 26.63c-7.1-3.8-27.9-.27-20.69 18.45 2.37-13.55 16.56-9.56 19.34-15.47-.03.06-.03.13-.06.2a152.68 152.68 0 0 0-9.66 31.15c-8.74.2-23 8.49-12.66 23.15-.74-9.9 6.67-12.43 11.36-15.47a155.01 155.01 0 0 0-1.43 28.7c-7.9 3.43-18.26 17.78-1.9 26.72-4.62-7.83-.4-13.11 2.54-17.62 1 9.74 2.9 19.2 5.62 28.3-7.4 4.77-14.93 18.07.61 25.88-4.95-7.75-.76-13.2 2.03-17.85 3.36 9.36 7.6 18.3 12.64 26.71-5.93 6.4-9.85 22.13 7.83 25.1-7.21-6.08-4.58-12.68-3.33-18a154.7 154.7 0 0 0 19.94 23.95c-5.59 6.67-8.67 22.92 9.35 24.71-8.68-6.37-4.59-14.3-4.27-19.93a154.34 154.34 0 0 0 28.7 20.34c-1.58 8.6 3.09 23.26 19.48 17.27-8.87-1.64-10.2-8.13-11.67-13.26a152.72 152.72 0 0 0 32.1 11.13c-.16 8.7 5.75 20.94 20.73 14.3-9.12-1.06-10.79-7.64-12.64-12.7a154.76 154.76 0 0 0 30.99 2.1c1.9 8.53 12.02 20.32 24.78 8.35-9.68 2.16-13.3-4.63-16.98-8.8 11.6-.95 22.84-3.2 33.57-6.59 5.26 7.01 18.05 13.32 25.5-1.62-7.24 4.65-12.56 1.35-17.06-1.33a153.28 153.28 0 0 0 25.52-12.56c6.57 5.36 25.05 7.67 24.77-11.25-4.8 8.26-11.96 6.7-17.49 6.49a154.73 154.73 0 0 0 24.4-21.04c7.74 4.14 23.68 4.16 22.62-13.39-4.4 8.47-11.63 7.25-17.16 7.28 6.92-8.17 13-17.08 18.1-26.58 8.62 1.47 24.35-4.02 16.88-20.4-1.04 9.23-7.9 10.8-13.02 12.72a152.7 152.7 0 0 0 10.84-32c8.6-1.86 20.5-11.83 8.54-24.54 1.76 8.03-2.75 11.82-6.75 14.97a154.95 154.95 0 0 0 1.75-26.78c8.37-2.67 19.29-13.81 6.07-25.3 2.88 8.79-2.61 13.04-6.48 16.87-.66-8.8-2.07-17.4-4.16-25.73 7.4-4.4 15.82-19.93-1.54-26.73 5.95 7.64 1.6 13.68-.7 18.7a152.9 152.9 0 0 0-10.74-25.98c6.25-6.05 11-21.97-6.8-25.54 7.09 6.37 4.11 12.95 2.71 18.25a154.43 154.43 0 0 0-16.1-22.22c3.3-8.1 1.78-23.33-15.48-20.85 7.3 3 8.13 8.44 8.48 13.33a154.73 154.73 0 0 0-19.8-16.83c2.37-8.25-1.95-25.1-19.3-18.6 9.2 1.63 10.36 8.49 11.95 13.68a153.31 153.31 0 0 0-27.52-13.72c1.46-8.48-4.57-24.61-21.09-16.46 10.29.77 11.46 8.93 13.94 13.96a153.28 153.28 0 0 0-39.31-7.21c-1.33-5.8-7.03-13.45-14.5-13.39zm6.52 17.01c.77 0 1.53.02 2.29.03-5.17 3.1-9.62 13.3-20.74 10.46 11.98 13.53 25.13-1.9 26.58-10.27 13.39.72 26.31 3.2 38.54 7.19-5.78 1.77-13.17 8.32-21.93 2.18 6.27 16.63 23.68 7.35 28.35.08 10.55 4 20.54 9.14 29.8 15.29-6.03.33-14.7 7.73-23.46.17 4.53 17.06 22.6 9.77 28.1 3.03a150.8 150.8 0 0 1 22.46 19.83c.34.94.83 1.76 1.6 2.36-5.2-4-17.43 4.87-25.42-5.83.76 18.68 22.29 13.9 27.85 7.98a150.36 150.36 0 0 1 16.43 23.36c-5.24-2.99-16.69-1.18-20.08-12.28-5.43 17.25 14.84 20.33 22.74 17.15a149.07 149.07 0 0 1 10.99 27.37c-4.92-3.49-15.74-4.1-17.06-15.21-8.16 15.57 9.92 22.23 18.61 21a150.01 150.01 0 0 1 4.22 29c-1.93-5.77-14.63-9.58-11.83-21.72-13.79 12.7 3.8 25.81 11.97 26.18a150.9 150.9 0 0 1-2.6 30.81 4.57 4.57 0 0 0-.6 1.98c.33-6.52-13.99-11.43-9.7-24.05-14.98 11.25 1.13 26.02 9.23 27.24A148.95 148.95 0 0 1 635 366.67c-.35-5.99-8.93-14.28-1.7-23.67-17.3 5.72-7.94 23.88-.72 28.36a150.33 150.33 0 0 1-19.45 27.8c1.96-5.68-3.24-16.59 6.97-22.85-18.66-.8-15.88 20.5-10.49 26.7a150.73 150.73 0 0 1-25.95 21.88c1.3-5.86-2.13-15.91 7.65-21.32-17.25-1.53-16.95 16.77-12.75 24.58a149.35 149.35 0 0 1-27.97 13.27c-.9-.21-1.8-.25-2.67.03 6.26-1.98 5.85-17 19.27-17.46-16.07-10.08-24.36 10.7-22.4 18.45.06.26.19.55.29.82a149.56 149.56 0 0 1-33.78 6.32c5.4-2.7 10.54-12.7 21.5-9.11-11.45-14.84-26.3 1.38-27.42 9.4a150.93 150.93 0 0 1-32.94-2.56 4.7 4.7 0 0 0-1.8-1.32c6.1 2.43 15.42-9.4 26.05-1.28-5.91-17.92-25.64-7.14-29.1.06-.21.43-.38.91-.53 1.43a149 149 0 0 1-36.24-13.42c-.03 0-.04-.03-.06-.04 5.92 2.84 16.03-8.35 26.08.48-4.65-18.18-24.83-8.97-28.95-2.02a150.36 150.36 0 0 1-26.37-18.59c5.91 1.15 14.79.24 18.66 9.48 3.69-17.74-16.89-18.77-24.4-14.8a150.67 150.67 0 0 1-21.6-26.49c5.15 3.14 17 .61 20.84 11.87 4.93-17.63-15.99-19.9-23.56-16.3a149.23 149.23 0 0 1-13.83-30.77c2.12 6.1 17.03 5.93 17.37 19.15 10.28-15.84-10.52-24.24-18.36-22.4a149.57 149.57 0 0 1-5.67-31.09c4.14 4.37 15.53 6.08 15.43 17.64 10.05-14.39-6.93-23.25-15.73-23.16a151.3 151.3 0 0 1 1.65-28.96c2.18 5.59 10.85 12.02 5.79 22 16.03-8.84 3.2-25.1-4.72-28.04a148.94 148.94 0 0 1 6.88-24.06c1.9 5.28 4.48 11.61-1.1 18.03 15.81-4.2 10.77-19.7 4.55-26.37a150.1 150.1 0 0 1 12.63-22.59c.36 5.28.44 11.3-6.06 15.57 15.96.2 15.75-15.27 11.87-23.54 5.54-7.11 11.7-13.7 18.41-19.71-.25 5.78.3 13.19-7.72 17.38 16.15 1.82 17.26-14.2 14.02-22.71a150.29 150.29 0 0 1 19.34-13.17c-1.5 5.58-2.6 12.88-11.3 15.25 15.37 5.22 19.93-10.15 18.62-19.16a149 149 0 0 1 28.33-10.73c-4.53 3.96-7.38 14.5-18.7 13.42 14.31 11.8 25.05-6.65 24.63-14.87a150.64 150.64 0 0 1 32.8-3.6z"/><path fill="#ad7d5a" stroke="#000" stroke-width=".47" d="M408.92 366.94c-.29 1.23-.76 2.94-.95 5.13 0 .47-.48 3.04.95 3.13 1.04.1 1.33-2.66 1.33-2.66s-.95 3.04.28 3.42c1.71.38 1.9-3.33 1.9-3.33-.19 1.05-1.33 3.71.29 3.99 1.7.29 2.18-3.6 2.18-3.6s-1.42 3.89.28 3.98c1.62.1 1.62-3.8 1.62-3.8s-.86 4.66 1.42 4.28c1.23-.2 1.52-1.8 1.8-2.76.38-1.42 1.24-3.22.2-6.17-.76-2.18-.48-2.75-.48-2.75s-2.66 2-4.75 3.32c-.95.57-6.07-2.18-6.07-2.18zm27.73-4.09c-.48-.29-.38 1.7-.57 2.66-.1.95.19 3.04 3.42 2.85 3.13-.29 6.27-.95 8.26-.48 2 .57 4.94.67 6.55.67a9.6 9.6 0 0 0 3.42-.48c.66-.28 2.09.38 2.75.38.67 0 1.71-1.04 1.62-1.7-.1-1.24-1.24-1.24-2.85-1.34a27.18 27.18 0 0 1-4.65-.85c-1.05-.38-2.95-1.43-5.32-1.9 0 0-4.56.19-5.5.19-.96 0-6.56.28-7.13 0z"/><path fill="none" stroke="#060" stroke-width=".47" d="m421.36 369.6-.2-4.37 1.81 1.52.48-3.32c.76-.2 2 1.33 2 1.33l-.2-3.33 2.75 3.04s-.18-2.56.76-4.08c0 0 2.1 1.8 2.1 3.9 0 1.8 1.8-2.57 1.8-2.57l1.52 4.84 1.23-1.8 1.04 3.8 2.28-3.33 1.8 3.9 4.09-.3.47 2.29 1.8-2 2.38 1.52s2-.57 3.04-.57c1.05 0 2.28 1.33 2.28 1.33s.76-1.32 1.52-1.8 1.8.76 2.09 1.52l1.52-2.76s2 2 2.27 2.76c0 0 .29-2.28.76-3.04.48-.76 1.24.28 1.8 1.23l1.24-4.08s1.33.28 2.28 1.8c1.05 1.52 1.05-2.28 1.05-2.28s2.27 3.04 2.85 5.13m57.16-.76s.76-2.08 1.8-3.13c0 0 2 2.38 2 3.13 0 0 .57-.28 1.62-1.04l1.51 1.52 1.81-1.23 1.7 1.51 3.14-1.32 1.24 1.32 4.84-.56 1.8.75 1.71-2.18 1.62 1.7 2.56-2.55s1.23 1.04 1.52 1.8c0 0 2.09-1.04 2.56-1.8 0 0 2-.76 2.28.47 0 0 1.23-.95 1.14-2-.1-1.04 1.42-.28 1.9 1.05 0 0 .57-2.09 2.09-2.28 0 0 1.04 1.24.75 3.52 0 0 2.28-1.8 3.33-2 0 0 .47 2.56-.29 4.85 0 0 2.38-3.9 2.85-2.57.2.76.76 3.33.2 5.13l2.08-1.33.76 2.57 2.28-.48m-106.7 7.73s1.71-2.84 2.76-3.6c0 0 2.28 1.8 3.04 4.08 0 0 .28-1.52 1.04-2.85 0 0 2.85 1.33 3.32 3.14 0 0 1.05-1.81 1.8-2.28.77-.58 1.53 1.99 1.53 3.5 0 0 1.8-1.9 2.85-1.99 0 0 2 .95 2.56 4.28 0 0 1.9-1.8 2.56-1.52 0 0 2.28 1.52 1.71 3.6-.28 1.15 2.28-1.32 5.42-2.08l2.75 2.09s2.56-3.42 3.32-4.56c0 0 2.1.76 2.1 2 0 0 .94-3.62 1.7-4 .76-.47 1.8 1.14 1.8 2.19 0 0 .29-2.75 1.81-3.33 0 0 1.52 1.05 1.52 2.1 0 0 1.61-3.14 2.85-3.9"/><path fill="#5ac800" d="m421.36 369.6-.2-4.37 1.81 1.52.48-3.32c.76-.2 2 1.33 2 1.33l-.2-3.33 2.75 3.04s-.18-2.56.76-4.09c0 0 2.1 1.81 2.1 3.9 0 1.8 1.8-2.57 1.8-2.57l1.52 4.85 1.23-1.8 1.04 3.8 2.28-3.33 1.8 3.9 4.09-.3.47 2.28 1.8-1.99 2.38 1.52s2-.57 3.04-.57c1.05 0 2.28 1.33 2.28 1.33s.76-1.33 1.52-1.8c.76-.48 1.8.75 2.09 1.51l1.52-2.75s1.99 2 2.27 2.75c0 0 .29-2.27.76-3.04.48-.76 1.24.29 1.8 1.24l1.24-4.08s1.33.28 2.28 1.8c1.04 1.52 1.04-2.28 1.04-2.28s2.28 3.04 2.85 5.13c0 0-15.72 5.4-26.81 3.92-13.05-1.74-23.8-4.2-23.8-4.2m107.78-.48s.76-2.09 1.8-3.13c0 0 2 2.37 2 3.13 0 0 .57-.28 1.62-1.04l1.51 1.51 1.81-1.23 1.71 1.52 3.13-1.33 1.24 1.33 4.84-.57 1.8.76 1.71-2.18 1.62 1.7 2.56-2.56s1.23 1.04 1.52 1.8c0 0 2.09-1.04 2.56-1.8 0 0 2-.76 2.28.48 0 0 1.23-.96 1.14-2-.1-1.04 1.42-.28 1.9 1.04 0 0 .57-2.08 2.09-2.27 0 0 1.04 1.23.76 3.51 0 0 2.27-1.8 3.32-2 0 0 .47 2.57-.29 4.85 0 0 2.38-3.9 2.85-2.56.2.75.76 3.32.2 5.12l2.08-1.33.76 2.57 2.28-.48s-13.48 2.07-26.18.86-24.62-5.7-24.62-5.7m-9.39 9.43c.62-.38-4.24 10-16.02 10.54-16.4.77-30.4-7.4-30.4-7.4s1.7-2.85 2.75-3.62c0 0 2.27 1.81 3.03 4.09 0 0 .29-1.52 1.05-2.85 0 0 2.85 1.33 3.32 3.13 0 0 1.05-1.8 1.8-2.27.77-.58 1.53 1.99 1.53 3.51 0 0 1.8-1.9 2.85-2 0 0 1.99.95 2.56 4.28 0 0 1.9-1.8 2.56-1.52 0 0 2.28 1.52 1.71 3.6-.28 1.15 2.28-1.32 5.41-2.08l2.76 2.08s2.56-3.41 3.32-4.55c0 0 2.1.76 2.1 2 0 0 .94-3.62 1.7-4 .76-.47 1.8 1.14 1.8 2.19 0 0 .29-2.75 1.8-3.32 0 0 1.53 1.04 1.53 2.09 0 0 1.6-3.14 2.84-3.9z"/></svg>