<?xml version="1.0" encoding="utf-8"?>
<svg width="640" height="480px" viewBox="0 0 640 480" xmlns="http://www.w3.org/2000/svg">
  <path fill="#fff" d="M -40 0 L 679.998 0 L 679.998 480 L -40 480 L -40 0 Z"/>
  <path fill="#003082" d="M -40 0 L 679.998 0 L 679.998 120.001 L -40 120.001 L -40 0 Z"/>
  <path fill="#ffce00" d="M -40 359.999 L 679.998 359.999 L 679.998 480 L -40 480 L -40 359.999 Z M 80.001 11.162 L 111.741 108.84 L 28.638 48.479 L 131.36 48.479 L 48.261 108.84 L 80.001 11.162 Z"/>
  <path fill="#289728" d="M -40 239.998 L 679.998 239.998 L 679.998 359.999 L -40 359.999 L -40 239.998 Z"/>
  <path fill="#d21034" d="M 260 0 L 379.997 0 L 379.997 480 L 260 480 L 260 0 Z"/>
</svg>
