<svg xmlns="http://www.w3.org/2000/svg" viewBox="0 0 640 480"><path fill="#334166" d="M0 0h640v480H0z"/><path fill="#fff" d="M250 104.8a41.3 41.3 0 0 1-4 4.7A535.6 535.6 0 0 1 129 70l1.2-.7 1.1-.7c2.3-1.4 4.5-2.8 6.7-3.8a6 6 0 0 0 1.8-.9l1.8-1 8-4.1 1.6-.7 1.5-.7c2-1 4-1.8 5.7-2.5l2-.8c1.6-.3 3-1 4.7-1.7l1.5-.6a380.5 380.5 0 0 1 104.8-26.5l13.4-1.4c1.3-.5 3-.5 4.4-.5 1.6 0 3.1 0 4.7-.2l4.7-.2c1.8-.5 4-.5 5.8-.5H319c15.6 0 31.2 1 46 2.8.8.5 1.3.5 2.2.5l12.5 1.3 1.8.2c1.1 0 2.2.2 3-.2l4.5.8 4.5.7 6.7 1.3 3.6.7 3.5.7a200.5 200.5 0 0 0 7.2 1.4c2.2 1 4.4 1.4 6.6 1.9 1.2.2 2.3.6 3.4 1l3.3.9 3.8 1.1 3.8 1.2 5.4 1.4a95 95 0 0 1 11.4 3.7l1 .5a326 326 0 0 1 62 28.3l.7.5c.3.1.5.2.7.5l.7.4.6.5a355.6 355.6 0 0 1-117.3 39l-1-2.5C394.4 97.3 381.5 64 302.2 71l-12.5-31.2-13 4.7L280 76s-24.6 10.7-32.6 16.3c.4 3.2 1.8 8.8 2.7 12.5Zm-27.8 31a452.1 452.1 0 0 0-28.9 33.2C117 156.9 72 143.5 50.6 135.6l1.3-2c.5-.5 1-1 1.4-1.8l1.3-1.6 1.3-1.6 2.7-3 2.7-3c.4-1 1.3-2 2.2-2.9l3-2.8 2.8-2.7 2.7-2.8 3.3-3c1.2-1.1 2.3-2.2 3.4-3l1.8-2c9.8-8.8 20-16.2 29.9-22.7.2 0 .3-.2.4-.3.1 0 .2-.2.5-.2l4-2.8c16.5 8 62.9 28.8 122.6 41-2.8 3.4-8.9 10-15.7 17.4Zm183 42c89.7-5 162.4-24.1 190-34.3l-1.1-1.4-1.1-1.4-.7-1c-.2-.3-.4-.7-.7-.9l-6.6-8.4-.5-.4c-2.2-2.8-4.5-5.1-7.1-8l-2.3-2.3-5.3-5.5c-1.4-1.4-2.7-2.8-4-3.8l-2.3-2-2.2-2.2-2-1.8-2-1.9a142 142 0 0 0-8.5-7l-.4-.4c-6.3-5.1-12.5-9.8-18.8-13.5-15.6 8.8-57.5 29.3-126.2 40 7.1 18.1 1.8 56.3 1.8 56.3Zm-111.5 14s-37 19.1-53.5 48.9H10c0-2.3 0-4.2.4-5.6v-.4a649.7 649.7 0 0 1 1.4-10.8v-.4l.8-4 1-5.3c.4-.5.4-1 .4-1.4.5-2.8.9-5.6 1.8-8.4v-1l1.3-4.3 1.4-4.5A169.9 169.9 0 0 1 39.9 150l.4-.7.5-.7.4-.7c.1-.4.4-.9 1-1.2 38.7 13 101.6 28 153 35 23 38.9 45.3 19.8 57.1 9.6l2.1-1.8c14.7 1 39.3 2.3 39.3 2.3Zm99.4 48.9H630c0-1.9 0-4.2-.4-6-1-14.5-4-29.4-9.4-44.3v-.4c-1-2.8-2.2-6-3.6-8.8l-.4-1-.5-1-1.2-2.6-2.3-4.8-1.4-2.8c-.6-1.6-1.5-3-2.4-4.6a70.9 70.9 0 0 1-3.4-6c-.4-.5-.4-1-.4-1l-2.4.7c-20.4 6.3-88.5 27-198.8 33.3-1.2 6.2-2.8 12.7-4.3 19.2a227.9 227.9 0 0 0-6 30.1ZM10 253.3h223c-4.9 9.7-8.9 32-8 43.2C112.4 307 58.7 325.1 38.3 332l-3.8 1.3c-.4 0-.4-.5-.4-.5a109 109 0 0 1-2.9-5.6l-2-3.7-1.4-2.8c-1.3-2.3-2.6-5.1-4-7.9l-.4-.7c-.1-.2-.2-.5-.5-.7l-1.8-4.9c-.5-1.6-1-3.2-1.7-4.9v-.4L18 297l-1.9-6v-.5l-2.6-9.3-.3-1-.2-.9-.6-3.7-.7-3.7c-.5-1.4-1-3.3-1-4.7l-.1-2.8c-.1-1-.3-1.8-.3-2.8 0-1.1 0-2.2-.2-3.2L10 255v-1.8Zm381.8 0a67.9 67.9 0 0 0 12 44.2 922.5 922.5 0 0 1 196.3 38.8l1 .3.7.2.5.2a210 210 0 0 0 16.6-32.6c0-.4 0-.4.4-.9.9-2.3 1.8-4.6 2.2-7 .3-.5.4-1 .5-1.6l.4-1.6c.5-1.9 1-3.8 1.8-5.6a77.2 77.2 0 0 1 1.3-5.1 8 8 0 0 0 .5-2.1l.4-2.1c1-3.3 1.4-6.5 1.8-9.8v-1c.5-3.2 1-6.9 1-10.2v-4.6c-7.7.5-228.5.5-237.4.5Zm15.2 81c8.5-9.9 4-23.8 4-23.8 78.5 6 157 28.6 180.7 35.5l4.4 1.2c-.2.5-.6.9-.9 1.2-.3.3-.7.7-.9 1.2a8.3 8.3 0 0 1-2.2 3.2l-2.7 3.3-2.7 3.2-2.6 2.8-2.5 2.8-2.5 2.8-4 4.2-4 4.2c-.9.7-1.6 1.5-2.4 2.3l-2.5 2.3a44.7 44.7 0 0 1-4.4 4.2l-2 1.9c-.7.6-1.4 1.1-2 1.8a45.5 45.5 0 0 1-7.2 6l-1.3 1.5c-6.3 5.1-13 9.8-19.7 14l-1 .6-1.2.7-2.7 1.4-8.5-3.5a516.4 516.4 0 0 0-157.8-41.6c7.7-11.3 33.3-14.9 45.2-16.6l4.3-.6v-12.6H231.2v12.6s37.5.5 46.9 16.3c-101.3 8.8-154 42.8-160.6 47.4-1.3-.4-2.7-1.4-4-2.3l-1.8-1.2-1.8-1.1-8-5.6-1.1-.7-1.1-.7c-2.7-1.9-5.4-3.7-8-6-1-1-1.4-1.4-2.3-2a534 534 0 0 0-3.8-3.2l-3.8-3.2-1.1-1-1.1-.9c-2.2-1.8-5-4.2-7.2-6.5-.3-.6-.8-1-1.2-1.4l-.5-.5c-2.7-2.3-5.4-5-7.6-7.4l-1-1c-2.6-2.7-5.3-5.5-7.5-8.3-1.9-2-3.5-4.1-5-6.2a153 153 0 0 0-4-5l-4-5.6c12.1-4.6 80-27.9 184.7-35.8 1 12.1 4.5 25.6 4.5 25.6H407Zm-53.1 43.6a20 20 0 0 0 8 20 36 36 0 0 0 17.9 6.6c4.4.4 8.9.9 14.7.9l8.4-.2c3.4-.1 7.3-.3 13.4-.3V457c16.6-3.7 33.5-9.3 50-15.3 0 0 .4 0 .4-.5 2-1 4.2-1.7 6.3-2.5l6.2-2.6h.5c8.5-3.7 16.5-7.4 23.6-11.6l.7-.4c.5-.3.9-.6 1.6-.6l2-.9 2-1c-1.8-.9-67.8-35.3-155.7-43.7Zm-223.7 45a18 18 0 0 1-2-1.2c26.8-19.1 80.7-40.5 154.3-45.6.5 3.2 1.4 15.8-8 22.3-5.4 3.7-16 5.6-26.8 6-14.7 1-29.8 0-29.8 0v53.1l-1.6-.4-1.6-.5-4.9-1.4c-2.2-.6-4.4-1.2-6.4-1.9l-4.7-1.4-.7-.2c-.2-.1-.4-.3-.7-.3a344 344 0 0 1-63.3-26.5l-.8-.3c-.4-.2-.7-.3-1-.6l-2-1.2Z"/></svg>