<svg xmlns="http://www.w3.org/2000/svg" viewBox="0 0 640 480"><path fill="#fff" d="M0 0h640v480H0z"/><path fill="red" d="M272 0h96v480h-96zM0 192h640v96H0zm147 181c1-17 4-31 4-31l-15 1-15-1s3 14 4 31c-17-1-31-4-31-4l1 15-1 15s14-3 31-4c-1 17-4 31-4 31l15-1 15 1s-3-14-4-31c17 1 31 4 31 4l-1-15 1-15s-14 3-31 4zM515 85c1-17 4-31 4-31l-15 1-15-1s3 14 4 31c-17-1-31-4-31-4l1 15-1 15s14-3 31-4c-1 17-4 31-4 31l15-1 15 1s-3-14-4-31c17 1 31 4 31 4l-1-15 1-15s-14 3-31 4zm-368 0c1-17 4-31 4-31l-15 1-15-1s3 14 4 31c-17-1-31-4-31-4l1 15-1 15s14-3 31-4c-1 17-4 31-4 31l15-1 15 1s-3-14-4-31c17 1 31 4 31 4l-1-15 1-15s-14 3-31 4zm368 288c1-17 4-31 4-31l-15 1-15-1s3 14 4 31c-17-1-31-4-31-4l1 15-1 15s14-3 31-4c-1 17-4 31-4 31l15-1 15 1s-3-14-4-31c17 1 31 4 31 4l-1-15 1-15s-14 3-31 4z"/></svg>