<svg xmlns="http://www.w3.org/2000/svg" viewBox="0 0 640 480"><g fill="#fff"><path fill="#199d00" d="M-40 0h720v480H-40z"/><path d="M141.4 136c-.7 11.3-1.9 31 7.8 33 11.5 1.2 5.1-19.5 9.4-23.2.7-1.9 2.1-1.9 2.2.4v17.6c0 5.6 3.8 7.3 6.6 8.4 3-.2 5 0 6.2 2.8l1.5 30.3s6.9 2 7.3-17c.3-11.2-2.3-20.5-.8-22.6 0-2.2 2.8-2.3 4.7-1.3 3 2.1 4.3 4.7 9 3.8 7.1-2 11.4-5.5 11.5-11a44 44 0 0 0-3.2-15.5c.3-1-1.3-3.5-1-4.4 1.2 2 3.2 1.8 3.6 0-1.2-4-3.1-7.8-6.1-9.4-2.5-2.3-6.3-1.9-7.5 2.8-.8 5.3 1.9 11.6 5.7 16.9.9 2 2 5.3 1.5 8.3-2 1.2-4.1.7-5.9-1.1 0 0-5.6-4.2-5.6-5.3 1.5-9.5.3-10.7-.6-13.4-.5-3.6-2.3-4.8-3.7-7.3-1.4-1.5-3.3-1.5-4.3 0-2.5 4.3-1.3 13.6.5 17.8 1.3 3.9 3.3 6.3 2.4 6.3-.8 2.2-2.4 1.6-3.6-1a62.4 62.4 0 0 1-2-16.2c-.4-4.4-1-13.5-4-16-1.6-2.2-4.1-1.1-5 1a77.3 77.3 0 0 0 .2 12.5c1.9 7 2.6 13.1 3.5 20.2.3 9.4-5.4 4.1-5.2-.7a42.2 42.2 0 0 0-.3-18.2c-.9-2.4-2-3-4.3-2.6-1.7 0-6.3 5-7.7 13.4 0 0-1 4.3-1.5 8.2-.7 4.3-3.5 7.5-5.6-.6-1.7-5.9-2.8-20.2-5.6-16.9zm31.4 46-30 14.5c.3-6.8 14.2-19.1 23.7-19.2 6.1 0 4.6 2.3 6.2 4.8zm-5.3 9.4c-15.8 40.8 37 46.5 43 1.7.5-1.8 2.7-3.6 3-.6-1.1 40.6-40.8 43.3-47.5 30.5a39.3 39.3 0 0 1-2.4-13.7c-1-8-5.1-4.8-5.8 3-.6 4.4-.5 5.7-.5 9.9 2.1 32 53.2 18.3 61.5-8.2 4.4-14.6-.7-25.4 1.6-25.4 5.1 5.5 12.2.8 13.8-1.1.7-1 2.4-1.6 3.5-.4 4 2.8 10.9 1.5 12.4-3.4.8-5 1.5-10 1.7-15.2-3.3 1-5.7 1.6-6 3l-.6 4.3c-.3 1.4-3 1.4-3.2-.4-1.2-5.6-6.3-6.3-9.4 2.3-2 1.7-5.7 2.1-6-.4.4-5.8-2-6.6-6.6-3.9l-4.5-33.9c1.8 0 3.7 1.4 5.5-.8-1.9-6.1-6-18.5-8.4-19.4-1-1.4-2-.5-3.5-.1-2.4.7-4.7 2.8-4 6.9 2.9 17.6 4.7 31 7.7 48.7.4 2-1.3 4.7-3.5 4.4-3.8-2.5-4.7-7.6-11.3-7.4-4.7 0-10 5.1-10.6 10-.8 4-1 8.1 0 11.5 3.3 4 7.3 3.6 10.7 2.7 2.8-1.2 5.2-4 6.2-3.3.7.8.1 10.2-13.4 17.3-8.2 3.8-14.7 4.5-18.2-2.2-2.1-4.2.2-20-5.2-16.4zm67.2-41.4c3-1.1 18-18.4 18-18.4l-2.2-1.8c-.8-.7-.7-1.5 0-2.1 3.8-2.3 2.6-7 .7-9.2a9 9 0 0 0-8.2 0c-2.6 2.6-3.2 6.7-1 9 1.9 1 3.8 3 2.5 4.2-6.2 6.6-23 18-21 18.3.4.6 10.8.6 11 0zm-91 61c-5.6 9-6 22.3-3 26.4 1.7 1.8 4.5 2.7 6.4 2 3.6-1.5 5.2-8.7 4.3-11.2-1.2-1.9-2.1-2.2-3.3-.7-2.5 5-3.5 1.6-3.8-1.2a65.6 65.6 0 0 1 .8-14.2c.6-4 0-2.8-1.3-1.2zm241-14.4c-5.4-11.8-13-23.4-15.3-27.8a522.8 522.8 0 0 0-23.2-33.8c-5.9-7 9.5 3-2-11l-8.3-7c-1.8-1.3-6.3-3.8-7 .2-.5 3.5-.3 5.4.3 8.3.5 2 3.3 5.2 4.7 7a529.7 529.7 0 0 1 50.4 81.2c2.4-1.3 1.9-15.1.5-17.1zM361 235.8c-1.1 1.2 2.6 6.4 7.5 6.4 8-1 15.2-5.5 21.7-17.5a31 31 0 0 0 5-13.3 297.2 297.2 0 0 0-5.4-67.9c-.3-1.8 0-4 .1-4.7.6-.6 2.4 0 3.3-1.6 1.4-1.4-3.7-13-6.5-17.5-1-2-1.4-3.4-3.1.2a25.3 25.3 0 0 0-2.8 12.8c3.8 26.7 5 50 7.5 76.7.2 2.7-.1 6.4-2 8a75.2 75.2 0 0 1-25.3 18.4zm109.2-.1c-5.8 3.4-5.8 7.2-1.1 7.3 8-1 17.6-1.6 24.2-11.5a38.4 38.4 0 0 0 3.9-15 284 284 0 0 0-4.4-67c-.2-1.8-1-6.3-.8-6.8.6-1.3 3.2 0 4.2-1.4 1.3-1.4-6.9-12-9.8-16.4-1-2-1.3-3.4-3 .2a21 21 0 0 0-1.8 12.7c4.3 29 7.5 50.8 8.2 76.5-.4 2.4-.5 3.8-1.6 6.9-2.5 3.1-5.4 7.3-8 9.2-2.6 2-8.2 3.8-10 5.3zm4.3-26V192a31.9 31.9 0 0 0-2.9-12.7c-1.7-3.8-.7-6.9-1.5-11s-.6-10.3-1.7-15.1c-.4-1.9-1.3-8-1-8.6.4-1.3 2.2 0 3.2-1.5 1.3-1.4-4.7-17-7.7-21.3-1-2-3.1-1.3-5.5 1.9-2.3 2.1-1.5 6.9-.5 11.5 5.7 30.3 10.1 57.7 9.2 86.5-.4 2.5 8.4-7.3 8.4-11.9zm-42.8-37.5c-3.7-.2-11.3-7.2-13.5-11.2a7.5 7.5 0 0 1 .3-6.1c1.4-1 3.5-1.9 5.1-1 0 0 1.6 2.3 1.3 2.6 1.9 1 2.8.4 3-.4.1-1.4-.6-2.3-.6-3.8.9-4.3 5.7-5 7.6-2.2 1.3 1.7 1.8 5.2 2 7.5 0 1.2-2-.2-3.2 0-1 .4-1.3 1.7-1.4 2.8l-.6 11.7zm-67.4 45c1-9.2-.3-25.6-.4-31a447.2 447.2 0 0 0-3.5-41.8c-1.1-7.9 3.2.8 2.6-3.8-1.4-7.8-5.7-13.1-10.8-20.1-1.6-2.4-1.6-2.8-4.2.5-2.8 6.3-.3 10.7.4 15.7 3.7 16.1 5.8 31 6.9 45.6a368.8 368.8 0 0 1 .3 46c2.8 0 7.2-4.4 8.8-11zM487 202.5c-6.5-10.9-16.1-22.5-18.8-27a616.9 616.9 0 0 0-27.4-35.3c-8-8.5 3.8-1.4-1.4-8-4.5-4.8-5.7-6.4-9.5-9.3-1.9-1.2-3-3.6-3.8.5a77.8 77.8 0 0 0-.2 10.5c0 1.6 1.7 4.7 3.2 6.5 19.4 24 40.7 48.3 57.8 79 2.4-1.2 1.6-15 0-16.9z"/><path fill="#1ba400" d="M195 182.5c-.5.9-1.6 2-1.2 3 .7.9 1.3 1.2 2.4 1.2 1 0 2.6.2 2.9-.3.5-.7.9-1.9.5-3.1-1.1-2.8-4.1-1.7-4.7-.8z"/><path d="M412 339.8c8.7.4 14.3.5 22 1.4l9-1c9.8-1 10.2 14.2 10.2 14.2 0 8.9-3.4 9.4-7.9 10.3-2.5.4-3.7-1.5-5.1-3.4a13.1 13.1 0 0 1-6.6.4c-3.6-.2-7.2-.2-10.8-.5-3.7-.3-5.8.5-9.6.1-.8 1.2-1.9 3-4.1 2.4-2-.2-4.3-5.6-3.6-9.8 1.4-3 1-2 1-3.3-35.3-1-70.8-2.5-105.3-2-27 0-53.7 1.2-80.4 2.3-14.2-.2-25.1-2.4-32.6-13.4.7 0 36.4 2 46.8 1.3 19.2-.2 36.8-1.8 56.4-2.3 38.6.6 77 .6 115.6 3.3-3.8-2.5-3.8-8.4 1.9-9.9.4-.4.7 3 1.6 2.8 4.6-.3 2.5 6 1.6 7.1zm-155.2-213c-5.8 16.7 3.4 35.1 9.8 33.3 4.6 1.9 7.5-7 9.3-16.5 1.4-2.7 2.4-3 3-1.6-.1 12.8 1 15.7 4.3 19.5 7.3 5.7 13.4.8 13.8.3l5.7-5.7c1.3-1.4 3-1.4 4.7-.3 1.8 1.6 1.5 4.3 5.3 6.2 3.2 1.3 9.8.4 11.4-2.3 2-3.7 2.6-5 3.6-6.2 1.5-2 4-1.2 4-.5-.3 1.1-1.8 2.2-.7 4.2 1.8 1.3 2.2.5 3.3.2 3.7-1.9 6.5-10 6.5-10 .1-3-1.6-2.7-2.7-2l-3 2c-1.8.3-5.3 1.5-7-1.2-1.8-3.2-1.8-7.8-3.1-11.1 0-.2-2.5-5.2-.2-5.4 1.1.1 3.4.8 3.8-1.2 1.1-2-2.4-7.5-5-10.3-2.1-2.3-5.1-2.6-8-.2-2 2-1.8 4-2.2 6a9.2 9.2 0 0 0 2 8c2 4 5.6 9.2 4.4 16.5 0 0-2.1 3.4-5.9 3-1.6-.4-4.1-1-5.4-11.2-1-7.5.2-18.1-3-23.1-1.3-3.1-2-6-5-.9-.7 2.1-4 5.2-1.6 11.5a33.8 33.8 0 0 1 1.9 17.8c-1.4 2-1.7 2.7-3.5 4.7-2.4 2.8-5.1 2-7.2 1-1.9-1.2-3.4-1.9-4.3-6 .2-6.6.5-17.4-.7-19.7-1.8-3.5-4.7-2.2-5.9-1.1a44.7 44.7 0 0 0-10.8 22c-1.6 5.5-3.4 3.9-4.6 1.7-3-2.8-3.3-25-7-21.4zm17.6 36.4c2.8-1.9 1.5-3.2 5.5.8a67.5 67.5 0 0 1 8.6 29.3c-.2 2.4 1.5 4 2.3 3.4.4-5.6 14.2-13.5 26.9-14.6 1.8-.5.9-4.2 1.2-6-.8-7 4-13.4 10.5-14 9 1.4 12 6.2 12.2 13.4-1 14-15.7 16.4-23.9 17.5-1.2.5-1.7 1 0 1.7l34.4.2 1.7 1c.2.9-.5.1-1.8 2.4a27.7 27.7 0 0 0-3.5 10.8 167 167 0 0 1-31.5 6c-3.8 2-5.6 4.5-4.9 7.3 1.3 3 9.6 6.3 9.6 6.3 1.6 1 3.4 3.3-.5 8.1-16.7-.7-29.7-7.9-34.2-17.9-1.3-1-2.8 0-3.8 1.3a52 52 0 0 1-24 20 16 16 0 0 1-16.6-5.3c-2.2-2.5-2.1-5.2-2.8-5.8-3.7 1.6-34.6 14.7-30.7 8.6 7.5-8 20.6-14 32-21.9.9-2.7 2.4-11.7 6.9-14.6.3 0-.7 5.2-.6 7.5 0 1.9-.2 2.5.2 2 .9-.4 14.7-11.4 16-14.8 1.3-1.8.2-6.7.2-6.9-2.6-6.8-6.2-7.3-7.6-10.7-1.2-4.4-.6-9.5 2-11 2.2-2 4.8-1.7 7.3.5 2.8 2.5 5.3 7.5 6 11.2-.4 1.4-3.7-1-4.7-.3a15 15 0 0 1 3.5 7.3c1.9 7.7 1.3 10.7-.6 15.7-6.1 13-14 16.8-21 21.7-.1 0-.2 3.3 2.3 5 1 1 4.6 1.5 8.8 0a51 51 0 0 0 21-21.8 47.8 47.8 0 0 0-2.3-20.8c-2.8-6.3-6-15.2-6-15.4 0-3.9.3-5.2 2-7.2zM184.6 127c4 2 11.5 1 11-5.3l-.1-3c-.8-1.8-3-1.3-3.5.5-.2.7.3 1.7-.3 2-.3.4-1.5.2-1.5-1.6 0-.5-.4-1.1-.7-1.5-.2-.2-.4-.2-.8-.2-.6 0-.6.1-.9.6l-.3 1.5c0 .7-.3.8-.7 1-.6 0-.5 0-1-.3-.1-.2-.4-.3-.4-.9l-.3-1.5c-.2-.3-.6-.5-1-.5-2.1 0-2.3 2.5-2.1 3.4-.2.2-.3 4.6 2.6 5.8zm115.8 49c4 1.8 13.4.8 11-5.3l-.1-3c-.9-1.9-3-1.4-3.5.6-.2.5.3 1.6-.4 1.9-.2.3-1.6.1-1.5-1.5a3 3 0 0 0-.6-1.6c-.3-.1-.4-.2-1-.2-.4 0-.4.2-.7.6l-.3 1.5c0 .6-.4.8-.8 1-.5 0-.4 0-.8-.3-.3-.3-.5-.4-.5-.9l-.3-1.5-1-.5c-2.1 0-2.3 2.4-2.2 3.4-.1.1-.2 4.6 2.8 5.8zm67.5-20.3c4 1.9 11.4 1 11-5.2l-.1-3c-.9-2-3-1.4-3.5.4-.2.7.3 1.7-.4 2.1-.2.3-1.6 0-1.5-1.7 0-.6-.3-1.1-.6-1.5-.3-.2-.4-.2-1-.2-.4 0-.4.2-.7.7l-.3 1.4c0 .6-.4 1-.8 1l-.8-.3c-.3-.2-.5-.3-.5-.8s-.1-1.2-.3-1.6c-.2-.3-.6-.4-1-.5-2.1 0-2.3 2.5-2.2 3.4-.1.2-.2 4.6 2.8 5.8zm35 51c-6.9 7.7-3.9 20.6-2.3 23.4 2.3 4.5 4 7.4 8.5 9.6 4 3 7.2 1.1 8.9-1 4-4.1 4-15 6-17 1.3-4 4.7-3.3 6.3-1.5a15.5 15.5 0 0 0 5.8 5c3.7 3.3 8.2 4 12.7 1 3-1.9 5-4 6.8-8.4 1.8-5.3.9-29.6.4-44l-4-20.2c0-.2-.4-9.6-.8-11.8 0-.9-.3-1.2.6-1 1 .9 1.1.9 1.9 1.1 1 .2 1.9-1.6 1.2-3l-9.4-17.5c-.7-.7-1.8-1.5-3 .2a6.8 6.8 0 0 0-2.2 5.2c.3 4 1 8.3 1.2 12.4l3.8 21.2c1.2 15 1.4 27.4 2.7 42.5-.2 6.3-2.2 11.9-4 12.7 0 0-2.9 1.6-4.8-.2-1.4-.5-6.9-9.2-6.9-9.2-2.8-2.6-4.7-2-6.6 0-5.7 5.4-8.1 15.3-12 22.3-.9 1.6-3.7 2.8-6.7-.1-7.7-10.6-3.2-25.6-4.1-21.8zm-33.2-88c3.6 1.5 6 8.7 5.2 12.3-.7 4.2-2.6 8.9-3.9 8.3-1.5-.6 1-4.3-.5-8.2-.7-2.7-5.6-7.3-5-8.7-1-2.9 2-4.2 4.2-3.7zm44.6 92.2c.7-8.6-.6-13.8-.7-18.9s-5.8-43.7-6.9-47.4c-1.4-7.3 5.4-1 4.6-5.3-2.3-5.2-8-13-9.8-17.6-1.2-1.9-.7-3.8-3.1-.5a39.7 39.7 0 0 0-2.2 18c5.8 30.3 11.7 55.4 10.8 84.2 2.8 0 6-6.3 7.3-12.5zm60.4-80c3.3 1.7 5.1 10.7 4.8 13.2-.7 4.7-2.4 9.7-3.6 9-1.4-.5.3-6.8-.4-8.8-.7-2.8-5.1-7.9-4.7-9.4-.9-3.2 2-4.5 3.9-4zM235 194.7c3 1.2 5 7.8 4.7 9.7-.8 3.4-2.4 7.2-3.6 6.6-1.2-.3.3-5-.3-6.5-.3-3.5-4.6-5.4-4.5-6.9-.7-2.8 1.9-3.3 3.8-2.9z"/><path fill="#1b9d00" d="M309.6 204.6c4 .2 5.9 3.3 2.2 4.7-3.7 1.2-7.2 2.2-7.3 7.4 1.4 7.6-1.8 5-3.7 4-2.3-1.7-8.6-5.6-9.6-14 0-2 1.5-3.8 4-3.8 3.8 1 9.4 1.1 14.4 1.7z"/><path d="M152.6 116.6c4.5 1.3 4.7 8 4.5 10-.7 3.6-2.3 7.5-3.4 7-1.3-.5 0-5.3-.7-6.8-.6-2.1-4.5-6-4-7.2-1-2.3 1.8-3.4 3.6-3zm89.9 31.5c-3.6 1.9-5 7.5-2.8 10.9 2.1 2.8 5.3 1.8 5.7 1.8 3.4.4 5.5-6.5 5.5-6.5s.1-1.9-4 1.8c-1.7.3-1.8-.4-2.3-1.3a8.4 8.4 0 0 1 .5-5.4c.7-1.7-.7-2.4-2.6-1.3zm26.2-34.1c-1.9 1.2-5.3 4.9-5.4 9-.1 2.3-.6 2.3 1 3.8 1.1 1.6 2.2 1.5 4.4.3a4.8 4.8 0 0 0 2.2-3.2c.5-2.6-2.8 1.3-3.2-1.7-.8-2.8 1.4-3.9 3.5-6.5 0-1.9 0-3.1-2.6-1.7zm21 3.8a55.8 55.8 0 0 0-1.5 10.4c-.5 2.6 2.8 3.7 4.2.3 2.3-6 2.3-8.7 2.5-11.2-.7-4-3.4-4-5.2.5zm133.1 67.7 18.8-13.5c1.9-.6 1.4 6.8.6 6.7a73 73 0 0 1-19.4 13.4c-1 .7-1.8-5 0-6.6zm16.6-.2c3.3 1.6 4.6 11.1 4.3 13.6 0 5.1-3.1 9-4.4 8.5-1.4-.7.1-6.3-.5-8.3-.8-2.8-3.5-8-3-9.4-1-3.2 1.7-5 3.7-4.4zM330.7 226a24.4 24.4 0 0 1 5.2-4.6c2-.9 3.6.8 3.5.7.3 1.9-1.1 3.5-.6 5.9.3 1 .6 2 2.4 1.7 2.9-2.4 5.6-2.5 8.4-2.6 2.4 0 2.5 3.9 1 3.9-5.4 1.1-7.7 2.6-11.6 4-1.8 1.2-3.3-.3-3.3-.3s-1-1-.4-3.5c.2-1.9-.6-3-2.3-2.8-1 .7-2.2 1.1-2.8-.3-.3-1-.4-1.5.5-2zm128 5c.8 1 1.4 2 0 3.7l-3.5 3c-.6.9-1 2.6 1 3 3.3 1 11.2-4.2 11.2-4.3 1.3-.9 1-2.8.7-2.8-.7-.8-2.4-.3-3.5-.4-.6 0-2.4-.2-1.5-2a10.7 10.7 0 0 0 1.5-2.6c.4-1.2 0-2-2-2.6-1.9-.3-2.7-.2-4.9 0-1.1.2-1.5.8-1.8 2.2.1 2.1 1.4 2 2.9 2.8z"/><path fill="#259f00" d="M331.3 177.8c-.4 1-2.1 1-3.7 0s-2.5-2.4-2-3.2 2.2-.9 3.8 0 2.4 2.4 2 3.2zM248 127.6c-1 .3-2.2-.6-2.8-1.9s-.3-2.4.7-2.7 2.1.7 2.8 1.9.2 2.5-.8 2.8z"/><path fill="#209000" d="M413 351.6c8.8.3 17 0 25.8.4 1.6 1.4.4 4.7-.6 4.5l-7.3-.3c0-2.8-7.2-2.3-7 .1-3.9.5-7.3 0-11.3-.2-1.1-1.4-1-4 .4-4.5z"/></g></svg>