<svg xmlns="http://www.w3.org/2000/svg" viewBox="0 0 640 480"><path fill="#198a00" d="M-80 0h720v480H-80z"/><path fill="#ef7d00" d="M555.5 172.5H640V480h-84.5z"/><path d="M471.2 172.3h84.3v307.5h-84.3z"/><path fill="#de2010" d="M385 172.5h86.2V480h-86.3z"/><g fill="#ef7d00" stroke="#000"><path stroke-linejoin="round" stroke-width=".9" d="M583.4 61.5s31.9-13.6 34.9-16.4c1.4 1.7-12.8 18.7-40.3 25 25-5.8 46.3-24.3 50.7-23.8 1.2.3.9 18.1-56.3 33.6C612 69.6 635 50.4 634.7 52.5c.2.5-4 15-38.6 26.3 9.7-2.2 36-18.1 35.6-15 .9 1.2-25.3 34.8-72.7 23.9 37.9 9.8 62.3-14 65.8-13.5.8.1-7 20.7-54.5 22 22.7-2.4 16.2-.1 16.2-.1s-13.4 10.5-29.8 3.4c12.8 3.4 14.2 3.6 14.5 4.7-.9 1.5-11.3 3.5-21.5-2 8.2 3.5 15.5 4 15.6 5.2-.1.4-5.3 3.4-10 1.3-4.5-2.1-47.1-28.3-47.1-28.3l72.6-20 2.6 1zM498 132.4c-6.4 0-6.6 5.6-6.6 5.6s-.5.5-.2 3.2l1.6-2.4c.8 0 3.7.9 8.3-2.7-4.3 4.4-1.7 6-1.7 6s-1 3.5 2.2 4.2c-1-1.5-.4-2.7-.4-2.7s4.5-.4 4.3-5.9c0 5 2.8 6.2 2.8 6.2s0 2.7 2.9 3c-1.5-1.4-1.2-3.6-1.2-3.6s3.7-2.8.6-7.5c1.9-1 3.5-4.2 3.5-4.2s-2.6-1.1-3.9-2c-.5-1.3 0-8 0-8l-1.6-8.7-4.5 13.6c.1-2 .2 5.9-6.1 5.9z"/><path stroke-linejoin="round" stroke-width=".9" d="M529.6 112.8c.1 0 4.7 5.2 9.2 5 1.7-1.5-3.4-4.5-3.4-5.2 1.9 1.7 9.4 8.2 14.4 5.9 1.9-2.8-3.5-2.3-9.5-10 4.2 2.9 14.7 9 19.6 6.6 2-2.2-11-9.3-15.3-14.7l-11.3-5.7-15.2 12.5 11.6 5.6z"/><path stroke-linecap="round" stroke-linejoin="round" stroke-width=".9" d="M512.4 70.1s5.2-3 25.9-1.5c2.2.3 14-4 17.9-5.3 6-1.1 25.3-5.3 30.4-9.2 3.7-.5-1 6.6-5.7 8.4-4.8 2.2-22.6 8.4-29 7.5 7.7.1 3.4 6.3-9.1 3.4 6 3.4 3.7 4 3.7 4s-10.6.5-13.4-2c7.1 2.8 4.1 3.8 4.1 3.8s-7.2.7-10.5-1c5.1 1.7 2.5 2.6 2.5 2.6s-4.2.8-7.7-.5c-3.6-1.3-8.8-10-9-10z"/><path stroke-linejoin="round" stroke-width=".9" d="m520.7 115.7.7 13.7-.7 1.1c-.3.4-9.7-1.5-8.5 5.6 0 3 0 3.8 2 5.4-.4-2-.3-3.3-.3-3.3s2.7 1.6 5.3-2.8c-1.8 4.3-.6 5.9-.1 6 .3.7-.8 4.2 2.8 4.1-1.4-1.3-.8-3.2-.8-3.2s3.8-.6 2.5-7.2c1.3-1.3 1.8 0 1.8 0s.4 4 3.7 3c1.4 1-.3 3-.3 3s2.4 0 3.1-1.8c.7-2 1.5-5.6-2.3-7.1-.5-1.4 1.5-1.5 1.5-1.5s2.4.8 3.1 2 .5-3.1-2.6-3.7c-3.7 0-4-.8-4-1l-.9-12.8-6 .5z"/><path stroke-linecap="round" stroke-linejoin="round" d="M533.7 127.3c0-.6-6.4-9.3-4.7-10.3 1.6.3 4.2 4.2 6.5 3-.7-1.6-2.7-.7-4.8-4.7-2.3-4.5-2.5-11.1-10.3-18.4 5 7.7 16.3 12.2 16.9 10s-10-10.7-9.5-12.8c2 4.2 12.5 13.5 20.2 12.8.6-1.9-6.3-5.5-8-8.8-5-3.4-18.2-14.8-18.4-17.4a31.2 31.2 0 0 0-9.3-10 4.7 4.7 0 0 1-.7-1.5c-3-7 .9-9.4 3.2-9.7 2-.2 2.5 0 3.8-.6l-4.8-1.9c2.2 1.6 7.5.2 6.4 4.7 2.3-1 7.4-7-5.7-8.3-4.3-4.8-21.9-7.6-26.3 13.7.4.3.6.6 1.7 1.3-5.6-2.6-20.5-4.6-25.9-5.6-14.6-4.1-29.7-14.2-31-13-2 1 8.7 10.9 8.2 11a246.6 246.6 0 0 0-25.8-12.7c-5.6-2-11.2-7-11.7-6-2.1 4.2 8.9 14.9 11 16.1 2 1.2 18 8.7 17.7 8.8-24.1-11-28-13-29.4-14.2-2.2-.5-7.3-7.5-8.7-7-.9.7.7 11.8 12.3 16.8 1.8 1.3 24.7 9.5 24.5 10.2L404 61.5c-5-1.9-11.2-8.8-12.3-8-1.2.7 2.8 8.2 7.8 10.5 2.8 1.2 13 6.2 22.2 9.4l-24.9-9.8c-3.7-2.1-5.4-4.7-6-4.2-1 .6 1.3 11.7 27.9 17.9.6.3 9.3-2 8.9-1.7a106.2 106.2 0 0 1-14.8 2.6c-.3.7 1.6 4.7 15.3 4 1.7-.2 11.3-3.5 10.4-2.9a163.1 163.1 0 0 1-13.8 4.6c-.9 0-5.3.6-5.5 1-.2.7 3.3 3.5 10.6 3.9 6.6.4 19-4 18.8-3.7-.4.3-12 4.3-12.3 4.5-.5.3-4.7.5-4.9.9-.4.8 6.2 7 25.4.3-1.9 2.7-11.2 4.5-11.2 5 0 .3 2 2.3 5.3 3 1.6.4 3.9.3 6 0a24 24 0 0 0 12.4-6.7c.6 1.4-12.3 8-11.7 8.5 2.8 2.6 12-.3 12.6-.7.7-.2 17.8-10 17.8-11.2.3 1.5-22.2 13.8-21.9 14.2 1.4 2.3 9 0 9.4-.3l10.1-5.5c.3 0-11 6.6-10.1 7.7-.5 4.4 17.8-3 19.2-4 .6-.4-8.8 4.2-8.8 6.4 3 5.1 12.8 3.5 14.3 2.4.8-.6-1 3.7-.4 3.4a15 15 0 0 0 2.9-4c-.2 1.4-1.4 3.7-2 6.3-.6 2.5-.8 5.5-1.6 8.6-.2 1.4 6-2.7 5-12.3.6 5-1.8 14.4-1.2 15 1.3.9 5-4.7 5.3-8.6 1 2 3.3 6 5.2 6.9-.1-3 0-2.8-.9-5.6.6-3.9.7-9.1.8-15.1 5.2 10 7.4 14.3 5.9 22 1.6.6 4-5.4 3.8-8.4a12.5 12.5 0 0 0 10.8 9.5z"/><path stroke-linecap="round" stroke-linejoin="round" d="M446.3 63.5s-3.6 2.7-8 2.5c1 4.5 10.3 1 10.3 1s-4.4 5-7.6 5.8c1.8 1.5 10 1 11.2.2 1.3-.8 3.8-4 3.8-4s-8.3 9.7-9.4 9.6c-.3 1 8.5.7 10.3-1 1.9-1.7 6.6-4.1 6.6-4.1s-12.2 8.4-12.7 8.4c4.5 1.2 13.6-1.5 19.4-5-8.6 5.7-9.4 6.7-13.8 8.7 4 .8 6 3.5 19-2.3 7.6-3.5 11.9-10 11.9-10A76.6 76.6 0 0 1 467 90c-.4 1 8.8 4.9 20.6-7.4"/><path stroke-linecap="round" d="M510 90s1 3.8 4 6.6 3.5 5.6 3.5 5.6m-9-36.6s1 3.5 4.4 5.7a32 32 0 0 1 8.7 10c.4 1.4 2.3 11.8 2.1 13m-35.4-23.5c.2 1.4-4.7 7.8 2 15.4-6.1 7.5-6.1 8.4-6.1 8.4s3.5 1.9 9.6-3.4c10 12.4 6.7 18 6.7 18"/><path stroke-linecap="round" stroke-linejoin="round" d="M499.7 100.5s-1-1.3.7-6.3c1.5 1.9 3.2 2.2 3.9 2.8.7.9 8.4 2 8.8 7"/><path d="M508.7 54c0-.5-1.6-3.8-7.4.3 3.1.2 6.1 2 7.4-.4z"/><path stroke-linejoin="round" d="M563.2 69c.3 0 17 3.7 22.7 1.9-7.1 9.5-21.5 3-21.5 3 7 2.1 7.4 2 9.6 4 .8 1.9-13 1-17.3-1.6 12.4 4 12.7 3.8 13 5.2.6 2.1-20.4-.6-22.1-3.3 5.6 4.3 8.6 5.1 11.7 7.1-3.8 1.7-10.8 3.4-23.6-5.7C552.5 95 567.8 94 570.2 96.8c-5.9 8.7-28.7-5.2-39.2-12.2s23 17 26 16.6c-1.5 2.3-12.5.2-13.3-1"/><path stroke-linecap="round" d="M567.5 85c-1.8.3-7.8.3-8.6.1"/><path stroke-linecap="round" stroke-linejoin="round" d="M441.3 61s12.8 6.7 18.2 6.2a9.4 9.4 0 0 1-3.5 1.9c1.3.6 5 2.5 10.7 1.3l-3.1 2.8s4.8 1.9 10.3-1a43.5 43.5 0 0 0-2.6 3.5l3.8.3"/></g></svg>