<svg xmlns="http://www.w3.org/2000/svg" width="52.157" height="60"><defs><filter id="a" width="1.29" height="1.241" x="-.12" y="-.1"><feGaussianBlur in="SourceAlpha" result="blur" stdDeviation="2"/><feOffset dx="2" dy="2" result="offsetBlur"/><feBlend in="SourceGraphic" in2="offsetBlur"/></filter></defs><g style="display:inline"><g style="display:inline"><g style="fill:#ffd5e5;fill-opacity:1;filter:url(#a)" transform="translate(36.018 -.358)"><path d="M-10.96 6.237c-4.319 1-8.69 2.088-12.838 3.608-1.492 6.331-2.103 12.88-3.191 19.306-1.285 8.332-2.439 16.689-3.86 24.997 4.847.345 10 .05 14.963.147H9.085C8.5 48.64 7.367 42.774 6.583 37.035c-1.462-8.96-2.486-18.011-4.288-26.902-.885-1.094-2.799-.958-4.037-1.565-3.053-.81-6.099-1.875-9.218-2.332z" style="fill:#feec99;fill-opacity:1"/></g></g><g style="opacity:.5"><g style="display:inline;opacity:1;stroke:#000;stroke-width:4.93827;stroke-miterlimit:4;stroke-dasharray:none;stroke-opacity:1"><g style="stroke:#000;stroke-width:4.93827;stroke-miterlimit:4;stroke-dasharray:none;stroke-opacity:1"><path d="M372.14 1585.471v-265.45h15v265.45z" style="fill:#c83737;fill-opacity:1;stroke:#c83737;stroke-width:4.93827;stroke-linecap:butt;stroke-linejoin:miter;stroke-miterlimit:4;stroke-dasharray:none;stroke-opacity:1" transform="matrix(.09641 0 0 .09641 -11.467 -102.955)"/></g><g style="stroke:#000;stroke-width:4.93827;stroke-miterlimit:4;stroke-dasharray:none;stroke-opacity:1"><path d="m373.444 1325.142-13.45-8.57 2.65-111.341 16.688-28.568 17.542 27.755 2.373 111.247-13.382 9.224z" style="display:inline;opacity:1;fill:#e6e6e6;fill-opacity:1;stroke:#c83737;stroke-width:8.6937;stroke-linecap:butt;stroke-linejoin:miter;stroke-miterlimit:4;stroke-dasharray:none;stroke-opacity:1" transform="matrix(.09641 0 0 .09641 -11.467 -102.955)"/><path d="M379.551 1181.017v105.099l16.535 13.127M379.551 1286.116l-16.317 14.496" style="fill:none;stroke:#c83737;stroke-width:4.51621;stroke-linecap:butt;stroke-linejoin:miter;stroke-miterlimit:4;stroke-dasharray:none;stroke-opacity:1" transform="matrix(.09641 0 0 .09641 -11.467 -102.955)"/></g></g><path d="M19.295 41.675H33.88v1.329H19.295Z" style="display:inline;opacity:1;fill:#c83737;fill-opacity:1;stroke:#c83737;stroke-width:.437382;stroke-linecap:butt;stroke-linejoin:miter;stroke-miterlimit:4;stroke-dasharray:none;stroke-opacity:1" transform="matrix(1.08857 0 0 1.08857 -3.806 -4.932)"/><path d="M26.587 33.936a8.403 8.403 0 0 0-8.404 8.403 8.403 8.403 0 0 0 8.404 8.404 8.403 8.403 0 0 0 8.403-8.404 8.403 8.403 0 0 0-8.403-8.403zm0 1.832a6.57 6.57 0 0 1 6.57 6.571 6.57 6.57 0 0 1-6.57 6.57 6.57 6.57 0 0 1-6.571-6.57 6.57 6.57 0 0 1 6.571-6.57z" style="opacity:1;fill:#c83737;fill-opacity:1;stroke:none;stroke-width:.444943;stroke-linecap:square;stroke-linejoin:miter;stroke-miterlimit:4;stroke-dasharray:none;stroke-opacity:1;paint-order:normal" transform="matrix(1.08857 0 0 1.08857 -3.806 -4.932)"/><path d="M20.453 44.131 30.765 33.82l.94.94L21.391 45.07Z" style="display:inline;opacity:1;fill:#c83737;fill-opacity:1;stroke:#c83737;stroke-width:.437382;stroke-linecap:butt;stroke-linejoin:miter;stroke-miterlimit:4;stroke-dasharray:none;stroke-opacity:1" transform="matrix(1.08857 0 0 1.08857 -3.252 -1.78)"/><path d="M21.392 33.82 31.704 44.13l-.94.94-10.311-10.312Z" style="display:inline;opacity:1;fill:#c83737;fill-opacity:1;stroke:#c83737;stroke-width:.437382;stroke-linecap:butt;stroke-linejoin:miter;stroke-miterlimit:4;stroke-dasharray:none;stroke-opacity:1" transform="matrix(1.08857 0 0 1.08857 -3.252 -1.78)"/></g><g style="display:inline;stroke:#000;stroke-width:1.31294;stroke-miterlimit:4;stroke-dasharray:none;paint-order:stroke fill markers"><g style="stroke:#000;stroke-width:1.31294;stroke-miterlimit:4;stroke-dasharray:none"><path d="M-23.356 44.733c-4.132 8.932-4.332 7.65-13.39 13.799 8.914 3.135 18.701 2.896 26.78 0-9.058-6.15-9.44-5.165-13.39-13.8z" style="fill:#000;stroke:#000;stroke-width:1.31294;stroke-linecap:butt;stroke-linejoin:round;stroke-miterlimit:4;stroke-dasharray:none;stroke-opacity:1;paint-order:stroke fill markers" transform="matrix(.46731 0 0 .5688 35.929 -1.13)"/><path d="M-26.818 58.55c-.101 8.756-.37 15.837-11.545 21.428-5.232 2.786-6.963 4.476-7.615 9.333 6.785 1.493 14.837 2.21 22.883 2.179 8.046.031 16.097-.686 22.882-2.18-.651-4.856-2.382-6.546-7.615-9.332-11.174-5.591-11.443-12.672-11.545-21.428-1.24.02-2.481.02-3.722.02s-2.482 0-3.723-.02z" style="fill:#000;stroke:#000;stroke-width:1.31294;stroke-linecap:butt;stroke-linejoin:round;stroke-miterlimit:4;stroke-dasharray:none;stroke-opacity:1;paint-order:stroke fill markers" transform="matrix(.46731 0 0 .5688 35.929 -1.13)"/></g></g><g transform="matrix(.66146 0 0 .66146 -376.969 -56.363)"><path d="M89.878 104.459c71.228 71.229 31.757 135.82 52.51 165.378 28.87 49.947 71.082 59.605 129.342 59.37a65.84 65.84 0 0 0 3.413-.105c1.143.065 2.28.1 3.413.104 58.26.236 100.472-9.422 129.342-59.369 20.753-29.557-18.718-94.15 52.51-165.378-11.605-5.015-42.725 25.605-62.898 25.525-25.612-15.171-47.031 3.08-52.25 16.777 37.838-11.301 70.078 121.468-45.539 137.914-7.067 1.97-16.164 2.514-24.578 2.72-8.414-.206-17.511-.75-24.578-2.72-115.617-16.446-83.377-149.215-45.538-137.914-5.22-13.698-26.64-31.948-52.251-16.777-20.173.08-51.293-30.54-62.898-25.525z" class="UnoptimicedTransforms" style="display:inline;fill:#fd5;fill-opacity:1;stroke:#000;stroke-width:13.4266;stroke-linecap:butt;stroke-linejoin:miter;stroke-miterlimit:4;stroke-dasharray:none;stroke-opacity:1" transform="matrix(.06853 0 0 .08094 589.02 105.58)"/><ellipse cx="608" cy="124.96" rx="3.947" ry="3.818" style="display:inline;opacity:1;fill:#fd5;fill-opacity:1;stroke:#000;stroke-width:1;stroke-linecap:butt;stroke-linejoin:miter;stroke-miterlimit:4;stroke-dasharray:none;stroke-opacity:1;paint-order:normal"/></g></g></svg>