<svg xmlns="http://www.w3.org/2000/svg" xmlns:x="http://www.w3.org/1999/xlink" shape-rendering="crispEdges" viewBox="0 0 8 8"><g id="g"><g id="f"><g id="e"><g id="d"><path id="a" fill="#dcdcdc" d="M0 0h1v1H0z" style="stroke:#939393;stroke-width:.012"/><use x:href="#a" x="1" y="1" href="#a"/><path id="b" fill="#c9c9c9" d="M0 1h1v1H0z" style="stroke:#939393;stroke-width:.012"/><use x:href="#b" x="1" y="-1" href="#b"/><path id="c" d="M1 .714 1.714 0h.022L1 .737ZM1 .31 1.309 0h.022L1 .33Zm0-.136L1.174 0h.022L1 .195Zm0 .27L1.444 0h.022L1 .465Zm0 .137L1.579 0H1.6L1 .602Zm0 .268L1.849 0h.022L1 .872Zm.952.15H1.93L2 .932v.022zM1 .062V.039L1.039 0h.022zM1.796 1 2 .796V.82L1.819 1ZM1.66 1 2 .662v.022L1.685 1Zm-.135 0L2 .526v.023l-.451.45Zm-.138 0L2 .389V.41L1.41 1Zm-.135 0L2 .253v.022L1.275 1Zm-.135 0L2 .119V.14L1.14 1ZM1 .984 1.984 0Q2 0 2 .003L1.006 1Q1 1 1 .984z" style="fill:#939393;stroke:#939393;stroke-width:.01;stroke-linejoin:miter" transform="scale(.85)" transform-origin="1.5 0.5"/><use x:href="#c" x="-1" y="1" href="#c"/></g><use x:href="#d" x="2" href="#d"/></g><use x:href="#e" x="4" href="#e"/></g><use x:href="#f" y="2" href="#f"/></g><use x:href="#g" y="4" href="#g"/></svg>