<svg xmlns="http://www.w3.org/2000/svg" viewBox="0 0 177 177"><filter id="a"><feGaussianBlur stdDeviation="2" result="blur" in="SourceAlpha"/><feOffset dy="2" dx="2" result="offsetBlur"/><feBlend in2="offsetBlur" in="SourceGraphic"/></filter><path filter="url(#a)" fill="#feec99" d="M7.89 4.577.927 49.314l40.251.118L34.45 4.458 21.348.681z" transform="translate(25.097 13.022) scale(3.0157)"/><path fill="#cfcfcf" d="M86.554 148.125c-.486-2.421-.88-5.91-.88-7.75 0-4.321-4.636-4.454-17.051-.489-11.707 3.74-18.32 2.347-19.838-4.182-.383-1.644 1.668-1.942 11.143-1.635l11.61.38-2.134-6.043c-1.17-3.32-3.7-8.848-5.619-12.28-4.469-7.998-4.409-9.255.392-8.091 8.29 2.011 21.496.35 21.496-2.705 0-1.354-1.495-1.668-5.437-1.137-5.79.775-11.996-1.556-11.122-4.183.329-.983 3.559-1.442 8.544-1.212 6.824.316 8.015.006 8.015-2.087 0-1.351-.998-3.559-2.22-4.907-2.032-2.247-1.974-2.527.706-3.377 5.076-1.61 8.562.422 8.562 4.997 0 4.387 1.342 5.02 5.7 2.69 3.266-1.75 8.395.934 8.395 4.393 0 1.88-1.224 2.157-7.047 1.599-6.026-.582-7.048-.323-7.048 1.779 0 2.208 1.074 2.358 10.504 1.478l10.506-.986 2.13 5.096c1.975 4.726 1.93 5.428-.634 9.63-1.52 2.49-2.765 5.916-2.768 7.608-.006 3.326 3.794 5.292 7.488 3.875 3.079-1.182 10.374 6.053 8.245 8.182-1.095 1.091-4.445.838-11.84-.905-5.67-1.336-13.468-2.232-17.325-1.984-6.3.395-7.05.799-7.392 3.965-1.417 13.158-3.447 16.46-5.081 8.281zm-5.287-16.209c2.422-.486 4.403-1.478 4.403-2.21 0-.73-1.266-.926-2.816-.435-3.779 1.2-8.46-.413-8.46-2.913 0-1.297 1.487-2.02 4.147-2.02 2.28 0 4.536-.634 5.015-1.409.507-.817-.865-1.411-3.266-1.411-4.976 0-8.637-3.414-5.111-4.765 1.245-.482 3.763-.875 5.59-.875 1.831 0 3.72-.633 4.199-1.408 1.007-1.628-.7-1.728-8.233-.482l-5.416.895 1.055 6.49c.58 3.568 1.092 7.6 1.134 8.957.09 2.693 1.14 2.91 7.76 1.586zm26.285-5.112c.432-1.743.92-6.025 1.083-9.514.265-5.709-.04-6.39-3.061-6.816-4.623-.654-12.853 1.02-12.853 2.615 0 .724 1.9.932 4.222.467 4.493-.898 8.462 1.267 8.462 4.614 0 1.388-2 1.94-7.048 1.94-3.962 0-7.047.645-7.047 1.474 0 .92 1.854 1.125 4.948.543 5.25-.983 9.147.959 9.147 4.563 0 1.52-1.167 1.785-4.816 1.1-2.65-.497-5.98-.226-7.4.6-2.051 1.189-.911 1.508 5.494 1.545 7.223.036 8.164-.296 8.866-3.13zM96.95 83.444c0-.856-2.11-1.094-5.286-.593-2.908.458-7.03.165-9.162-.652-2.443-.938-3.878-.98-3.878-.114 0 .756-.926 1.375-2.06 1.375-1.243 0-2.666-2.374-3.589-5.99-2.76-10.808-4.433-13.962-6.885-13.012-4.668 1.81-14.249 3.09-14.249 1.906 0-.676.712-1.228 1.58-1.228.866 0 5.308-2.267 9.868-5.036 5.503-3.344 8.287-5.95 8.287-7.75 0-3.106 1.487-3.49 3.95-1.029 2.573 2.576 2.021 6.373-1.251 8.668-2.774 1.942-2.796 2.107-.347 2.883 1.43.452 5.45.268 8.933-.417 3.486-.681 5.386-1.327 4.222-1.438-1.164-.109-3.257-1.764-4.647-3.68-2.467-3.389-2.461-3.48.352-3.48 2.108 0 2.886-.913 2.886-3.39 0-3.117-.434-3.331-5.437-2.659-5.437.73-11.48-1.306-11.48-3.866 0-.748 2.804-1.36 6.23-1.36 6.785 0 10.687-1.053 10.687-2.88 0-.645-2.222-.811-4.933-.371-2.714.44-4.934.504-4.934.142s2.548-3.342 5.663-6.617c4.228-4.442 6.373-5.73 8.457-5.066 4.161 1.318 3.256 9.153-1.056 9.153-1.761 0-1.818.38-.332 2.17 1.357 1.638 3.29 1.943 7.935 1.246 4.05-.606 6.854-.325 8.241.824 3.607 2.994 2.353 4.056-5.298 4.496-7.171.413-7.404.558-7.47 4.656-.04 2.325-.558 5.655-1.152 7.4-.995 2.905-.654 3.17 4.038 3.17 8.233 0 10.573 1.997 10.573 9.002 0 8.54-2.479 14.964-5.775 14.964-1.475 0-2.684-.642-2.684-1.426zm2.069-10.81c.513-2.733.603-5.296.199-5.7-1.134-1.134-22.003 1.115-22.003 2.373 0 .612.362 2.937.809 5.166.805 4.05.817 4.053 10.434 3.589l9.629-.462zm-18.631 1.435c-3.333-1.345-1.75-2.766 5.012-4.5 7.141-1.83 11.55-1.106 11.55 1.897 0 2.901-11.387 4.693-16.562 2.603zm25.452-13.01C99.365 56.37 93.3 49.201 95.254 48.55c.733-.241 4.36 1.167 8.067 3.136 3.704 1.97 7.491 3.583 8.42 3.583 2.79 0 6.49 5.051 5.53 7.548-1.311 3.417-5.09 2.835-11.432-1.758z"/><path fill="#b0b0b0" d="M86.289 144.28c-1.116-9.861.253-9.535-17.974-4.26-9.858 2.852-13.468 2.626-17.168-1.074-4.548-4.545-2.54-5.444 12.334-5.507 14.973-.066 22.192-1.173 22.192-3.405 0-.712-2.33-1.493-5.178-1.734-6.912-.585-8.079-3.962-1.366-3.962 2.733 0 5.36-.634 5.839-1.409.515-.835-1.104-1.411-3.975-1.411-2.663 0-5.618-.935-6.565-2.075-1.457-1.752-.823-2.22 4.086-3.004 3.197-.512 6.152-1.477 6.568-2.153.878-1.423-2.252-1.538-9.445-.35l-5.102.845 1.293 5.754c.712 3.163 1.104 7.376.875 9.357-.344 2.944-1.448 1.535-5.986-7.668-6.445-13.068-6.698-14.262-2.895-13.622 3.965.666 16.432.265 19.385-.625 1.357-.41 2.466-1.682 2.466-2.828 0-1.626-1.11-1.873-5.048-1.134-4.96.929-11.87-1.327-11.87-3.878 0-.643 3.81-1.17 8.46-1.17 9.004 0 10.177-1.204 6.987-7.163-1.125-2.102-.986-2.934.594-3.54 3.48-1.333 7.925 2.017 7.925 5.974 0 3.402.317 3.573 5.04 2.684 3.145-.588 5.792-.317 7.047.724 3.559 2.955 2.162 4.14-4.888 4.14-4.765 0-7.145.64-7.69 2.069-1.243 3.233.829 3.619 10.416 1.93 8.48-1.496 9.026-1.417 11.468 1.598 3.092 3.815 3.227 6.72.567 12.157-1.097 2.252-2.207 5.678-2.466 7.617-.429 3.251.024 3.559 5.85 3.975 7.126.507 9.895 2.201 9.895 6.064 0 3.176-1.216 3.233-11.28.534-4.26-1.146-11.634-2.09-16.38-2.099l-8.631-.015-.685 7.13c-1.058 11.025-3.528 11.833-4.695 1.537zm21.502-14.867c.147-.115.464-4.319.705-9.337l.434-9.128-4.1-.468c-5.61-.639-13.52.98-13.52 2.769 0 .929 2.035 1.128 5.534.537 4.653-.788 5.772-.486 7.047 1.896 2.187 4.09 1.894 4.856-1.514 3.963-3.872-1.01-11.067.401-11.067 2.174 0 .794 2.246.977 5.398.447 4.029-.682 5.865-.347 7.247 1.318 2.512 3.027 1.115 4.026-5.827 4.161-3.227.067-6.098.805-6.381 1.647-.347 1.028 2.144 1.318 7.63.88 4.478-.355 8.263-.741 8.414-.856zm-10.233-46.11c-.567-.91-2.937-1.243-5.7-.796-2.602.422-6.583.241-8.841-.41-2.687-.77-4.666-.622-5.718.434-2.16 2.16-3.797-.573-4.952-8.275-1.342-8.957-3.254-10.848-9.219-9.129-10.015 2.886-10.552 1.409-1.414-3.899 6.315-3.664 9.297-6.29 9.608-8.456.506-3.528 1.71-3.942 4.2-1.45 2.606 2.605 2.015 6.38-1.372 8.751-2.693 1.888-2.78 2.253-.714 3.046 1.29.494 6.369.199 11.284-.655 18.194-3.17 21.502-1.405 20.242 10.79-.986 9.554-4.644 14.518-7.404 10.052zm1.602-10.434c.488-2.603.54-5.296.111-5.987-.69-1.115-20.5.567-21.873 1.861-.286.272-.132 2.582.347 5.136l.869 4.647 9.83-.464 9.832-.468.884-4.728zm-18.773 1.2c-.971-.392-1.764-1.4-1.764-2.238 0-.841.392-1.137.865-.663.477.476 3.281-.103 6.234-1.282 4.318-1.728 5.989-1.815 8.552-.446 3.067 1.643 3.088 1.773.543 3.634-2.554 1.87-10.848 2.442-14.43.995zm24.608-13.86c-5.847-4.464-10.519-10.142-9.219-11.2.26-.212 5.112 1.748 10.784 4.351 8.794 4.032 10.253 5.196 9.867 7.886-.687 4.816-4.18 4.5-11.429-1.037zm-22.25-3.001-3.417-3.7 3.173.977c2.807.862 3.172.482 3.172-3.323 0-4.244-.075-4.286-5.995-3.475-4.943.676-6.466.302-8.676-2.14l-2.684-2.965h8.68c7.062 0 8.675-.422 8.675-2.286 0-1.87.386-1.966 2.1-.543 1.417 1.173 4.21 1.427 8.546.778 4.246-.636 7.135-.392 8.47.715 3.668 3.043 2.133 4.156-5.726 4.156h-7.75v6.061c0 5.425-1.819 9.442-4.267 9.442-.483 0-2.42-1.661-4.3-3.697zm-5.79-18.173c-.483-.482 1.945-3.477 5.395-6.655 5.73-5.287 6.46-5.588 8.513-3.538 4.053 4.056.597 7.651-9.876 10.28-1.734.435-3.546.396-4.029-.087z"/><path fill="#8f8f8f" d="m86.313 143.336-.974-7.786-5.121.914c-2.814.503-7.654 1.779-10.757 2.834-8.013 2.72-15.305 2.473-18.106-.62-3.655-4.042-2.895-4.603 5.772-4.271 12.47.473 28.546-1.689 28.546-3.842 0-1.068-2.065-2.009-4.963-2.265-5.55-.488-6.783-3.028-1.789-3.679 6.583-.86 7.449-2.207 1.93-3.007-7.62-1.103-8.14-4.023-.923-5.175 3.158-.506 5.745-1.706 5.745-2.672 0-1.317-1.61-1.45-6.501-.536-3.574.666-7.172.799-7.992.292-.947-.585-1.146-.02-.546 1.541.519 1.357 1.36 6.001 1.87 10.317.678 5.775.488 7.587-.709 6.846-.896-.555-1.628-1.762-1.634-2.684 0-.926-2.111-5.866-4.687-10.978l-4.683-9.297 11.046-.145c11.955-.153 13.836-.705 13.836-4.053 0-1.725-1.016-2-4.789-1.29-4.75.89-12.129-1.318-12.129-3.631 0-.652 3.81-1.183 8.46-1.183 9.031 0 10.177-1.197 6.944-7.237-1.387-2.594-1.124-2.787 3.173-2.374 3.969.38 4.753 1.059 5.142 4.464.431 3.77.76 3.953 5.392 3.085 3.046-.573 5.703-.287 6.942.742 3.649 3.027 2.102 4.14-5.745 4.14-6.815 0-7.75.34-7.75 2.817 0 3.284.974 3.377 11.96 1.173 7.829-1.571 8.323-1.502 10.808 1.568 3.115 3.848 3.305 7.54.603 11.758-1.1 1.72-2.21 5.024-2.466 7.35-.453 4.086-.254 4.246 5.847 4.68 7.126.507 9.895 2.201 9.895 6.064 0 3.167-.046 3.167-9.868.534-4.264-1.146-12.033-2.09-17.268-2.099l-9.514-.015-.018 4.581c-.025 5.775-1.376 10.923-2.865 10.923-.628 0-1.58-3.504-2.114-7.784zm21.556-14.023c.193-.15.513-4.342.706-9.318l.355-9.047-5.503-.453c-6.716-.548-12.117.676-12.117 2.75 0 .987 1.719 1.216 4.795.64 3.45-.648 5.428-.262 7.062 1.366 2.835 2.835 1.517 5.266-2.21 4.083-3.55-1.124-9.647.35-9.647 2.335 0 .974 1.963 1.176 5.534.573 4.698-.794 5.766-.495 7.095 1.99 1.75 3.266 1.72 3.281-6.637 2.95-4.63-.182-5.992.27-5.992 1.996 0 1.885 1.266 2.09 8.106 1.32 4.457-.503 8.263-1.034 8.453-1.185zM97.585 83.541c-.738-.73-4.68-1.523-8.76-1.761-10.426-.61-9.928-3.167.714-3.673 7.923-.377 8.882-.754 9.639-3.764 1.426-5.687.16-8.528-3.682-8.254-1.915.139-6.846.456-10.963.706l-7.479.452.432 7.615c.6 10.546-2.328 11.098-4.617.868-2.555-11.41-3.749-12.626-10.54-10.741-9.41 2.611-10.124 1.694-2.117-2.72 9.813-5.408 12.786-8.143 11.761-10.821-.69-1.797-.332-1.882 2.208-.522 4.113 2.202 3.866 6.843-.465 8.815-3.124 1.424-3.254 1.776-1.2 3.278 1.785 1.306 4.213 1.267 10.899-.166 11.92-2.563 16.918-2.4 19.659.634 2.877 3.175 2.998 10.015.29 16.496-2.102 5.03-3.457 5.865-5.782 3.558zm-16.031-9.85c-1.523-.964-.679-1.82 3.513-3.573 4.379-1.83 6.243-1.975 9.038-.7 3.417 1.557 3.438 1.662.8 3.595-3.058 2.232-10.308 2.603-13.351.679zm24.557-12.855c-5.54-4.186-10.48-9.56-10.54-11.472-.018-.53 4.566 1.161 10.187 3.767 8.384 3.881 10.22 5.32 10.22 7.997 0 4.699-3.399 4.6-9.867-.292zM83.776 58.33c-2.9-3.209-2.988-4.635-.22-3.57 1.602.614 2.117-.257 2.117-3.586 0-4.34-.075-4.385-5.633-3.499-3.652.588-6.375.284-7.75-.86-3.767-3.123-2.292-4.233 5.63-4.233 6.212 0 7.75-.452 7.75-2.286 0-1.879.383-1.972 2.123-.528 1.363 1.134 4.096 1.448 7.642.88 6.375-1.018 9.97-.014 9.97 2.79 0 1.418-1.96 1.96-7.048 1.96H91.31v6.062c0 5.45-1.816 9.445-4.292 9.445-.5 0-1.96-1.158-3.242-2.575zM77.98 38.45c-.895-1.447 8.842-9.963 11.397-9.963 2.913 0 4.07 4.119 1.773 6.326-2.46 2.37-12.28 5.082-13.17 3.637z"/><path fill="#707070" d="m86.436 143.367-.965-7.75-5.892.889c-3.24.488-8.028 1.758-10.643 2.82-6.788 2.753-14.768 2.46-17.581-.649-3.565-3.941-2.832-4.924 2.955-3.95 7.494 1.266 31.363-2.042 31.363-4.349 0-1.125-1.84-1.81-4.852-1.81-2.666 0-5.202-.57-5.63-1.263-.95-1.538 2.458-2.967 7.072-2.967 1.875 0 3.407-.794 3.407-1.762.003-1.085-1.966-1.76-5.15-1.76-7.314 0-7.75-3.234-.592-4.377 3.529-.564 5.745-1.676 5.745-2.88 0-1.327-1.031-1.71-3.172-1.182-1.746.428-5.263.914-7.814 1.086-3.872.253-4.526.772-3.944 3.124 2.065 8.336 2.509 14.798 1.013 14.798-.875 0-1.59-.905-1.59-2.011 0-1.107-2.195-6.222-4.876-11.363l-4.873-9.355 5.226.335c2.877.184 8.559.226 12.63.09 6.529-.22 7.4-.6 7.4-3.248 0-2.696-.555-2.91-5.491-2.12-4.33.694-6.194.272-8.812-1.981l-3.317-2.86 4.933.251c10.77.55 12.687.036 12.687-3.398 0-1.786-.793-4.05-1.764-5.037-1.417-1.444-.805-1.704 3.173-1.339 4.246.392 4.997 1.014 5.392 4.467.431 3.77.76 3.956 5.392 3.088 3.046-.573 5.703-.287 6.942.742 3.649 3.027 2.102 4.14-5.745 4.14-6.978 0-7.75.302-7.75 3.01 0 2.804.455 2.937 6.695 1.92 12.877-2.092 14.897-1.775 17.044 2.66 1.701 3.514 1.683 4.672-.126 8.466-1.152 2.415-2.549 6.453-3.1 8.968l-1.005 4.575h7.111c5.787 0 7.404.555 8.7 2.97 2.486 4.65-.12 5.77-7.919 3.402-3.83-1.16-11.562-2.12-17.183-2.126-9.822-.015-10.22.115-10.22 3.333 0 5.135-1.635 12.156-2.835 12.156-.588 0-1.505-3.49-2.039-7.75zm21.168-13.879c1.74-4.614 2.825-16.104 1.652-17.548-2.05-2.527-16.782-1.71-17.672.983-.506 1.538.44 1.8 4.24 1.185 5.299-.86 7.684 0 8.414 3.034.335 1.405-1.245 1.984-5.757 2.102-3.863.1-6.463.887-6.864 2.075-.503 1.502.582 1.707 5.058.953 4.882-.827 5.925-.543 7.267 1.96 1.487 2.78 1.213 2.925-5.533 2.925-5.594 0-7.1.483-7.1 2.277 0 1.948 1.17 2.132 8.107 1.273 4.457-.552 8.142-1.101 8.188-1.219zm-9.247-45.844c0-.806-3.944-1.647-8.808-1.88-11.406-.542-11.412-3.114-.01-3.657 7.923-.377 8.882-.754 9.639-3.764 1.372-5.464.172-8.513-3.306-8.401l-11.399.352-8.248.25 1.164 7.365c.688 4.349.63 7.901-.141 8.673-1.376 1.375-2.383-.663-5.851-11.81-2.132-6.845-2.47-6.975-13.212-5.024l-5.64 1.026 4.193-2.31c13.926-7.67 16.462-9.82 15.26-12.944-.966-2.524.289-2.388 3.003.326 3.196 3.197 2.726 6.068-1.306 7.904-3.242 1.478-3.323 1.74-1.055 3.327 1.96 1.372 4.81 1.275 13.962-.468 10.664-2.032 11.77-2.02 15.154.2 4.11 2.692 4.702 8.018 1.81 16.314-1.587 4.554-5.209 7.696-5.209 4.524zm-16.866-9.991c-1.644-1.04-1.213-1.64 2.114-2.938 5.307-2.071 10.301-2.14 12.27-.169 3.08 3.08-9.97 5.9-14.384 3.107zm27.415-11.122c-5.48-3.342-13.736-11.593-12.669-12.657.453-.453 2.86.211 5.347 1.478 2.491 1.266 6.936 3.386 9.886 4.713 4.005 1.803 5.25 3.136 4.933 5.278-.582 3.932-2.497 4.237-7.497 1.188zm-25.35-4.442c-2.292-2.537-2.316-2.82-.217-2.82 1.67 0 2.334-1.246 2.334-4.385 0-4.246-.16-4.358-4.915-3.468-4.94.929-10.591-.926-10.591-3.474 0-.748 3.489-1.357 7.75-1.357 6.276 0 7.756-.446 7.756-2.337 0-2.156.196-2.153 2.621.042 2.135 1.93 3.369 2.087 6.64.844 4.868-1.851 10.471-.684 10.471 2.18 0 1.566-1.761 2.088-7.048 2.088H91.31v6.061c0 5.446-1.816 9.442-4.292 9.442-.5 0-2.056-1.266-3.462-2.816zm-1.583-24.49c5.91-5.532 8.939-6.382 10.278-2.89 1.275 3.32-2.28 5.99-9.397 7.05l-6.345.948z"/><path fill="#4e4e4e" d="m86.494 142.552-.95-7.162-5.908.995c-3.251.552-8.375 1.87-11.39 2.935-7.609 2.683-14.102 2.436-16.888-.643-3.643-4.026-2.814-4.91 3.634-3.878 8.067 1.29 30.681-1.942 30.681-4.388 0-1.16-1.794-1.842-4.852-1.842-6.996 0-7.6-2.6-.853-3.68 3.6-.573 5.705-1.658 5.705-2.94 0-1.387-.892-1.749-2.82-1.134-3.19 1.013-8.458-.286-8.458-2.087 0-.654 2.539-1.62 5.639-2.14 3.36-.57 5.64-1.732 5.64-2.878 0-1.49-1.68-1.737-7.401-1.088-4.071.458-7.63 1.028-7.913 1.266-.28.238.253 3.619 1.188 7.515 2.726 11.366 1.085 10.983-5.136-1.2-5.558-10.878-5.675-11.37-2.72-11.37 1.7 0 3.782.688 4.623 1.533 1.104 1.104 1.797 1.104 2.479 0 .522-.845 4.083-1.532 7.913-1.532 6.025 0 6.966-.38 6.966-2.82 0-2.434-.94-2.82-6.875-2.82-4.699 0-7.488-.741-8.812-2.346-1.764-2.138-1.436-2.265 3.703-1.447 7.862 1.248 11.984-.073 11.984-3.842 0-1.692-.793-3.885-1.764-4.87-1.417-1.445-.805-1.705 3.173-1.34 4.427.407 4.94.887 4.985 4.684.03 2.325.512 4.116 1.08 3.98 7.68-1.83 9.81-1.905 11.61-.41 3.7 3.07 2.186 4.183-5.694 4.183-6.981 0-7.75.302-7.75 3.016 0 2.783.51 2.943 6.695 2.105 3.679-.5 8.39-1.288 10.458-1.75 3.197-.714 4.12-.156 6.104 3.68 2.216 4.282 2.186 4.864-.594 11.327-4.436 10.313-4.108 11.221 4.068 11.221 5.579 0 7.307.58 8.522 2.85 2.458 4.593.492 5.489-7.418 3.384-4.072-1.086-11.915-1.979-17.437-1.988l-10.036-.015-.935 7.048c-.513 3.875-1.466 7.048-2.117 7.048-.649 0-1.605-3.224-2.13-7.163zm18.344-11.996c2.307-.621 3.278-2.551 4.427-8.79 1.026-5.58 1.023-8.553-.012-9.826-2.05-2.527-16.78-1.71-17.669.983-.51 1.538.446 1.8 4.304 1.176 4.635-.754 8.109.736 8.109 3.474 0 .619-2.856 1.128-6.345 1.128-4.925 0-6.342.513-6.342 2.298 0 1.84.983 2.141 4.924 1.499 3.54-.573 5.591-.133 7.31 1.577 2.241 2.232 1.94 2.404-4.921 2.805-5.248.304-7.313 1.001-7.313 2.467 0 2.129 7.578 2.804 13.528 1.206zm-6.48-47.096c0-.781-3.731-1.409-8.375-1.409-10.98 0-12.229-2.36-1.864-3.522 11.59-1.3 11.65-1.339 11.65-7.901v-5.875l-6.541.896c-3.598.492-9.032.896-12.075.896-4.608 0-5.416.413-4.82 2.466 1.382 4.732 1.445 12.34.11 13.01-.74.374-2.293-2.798-3.457-7.047-2.976-10.872-3.679-11.665-9.424-10.586-2.68.501-5.938 1.258-7.237 1.683-1.303.422 1.912-1.87 7.147-5.096 5.232-3.227 9.514-6.78 9.514-7.901 0-2.727 2.301-2.594 3.372.196 1.423 3.709 1.016 4.644-2.916 6.703-3.583 1.88-3.634 2.051-1.032 3.444 1.967 1.056 6.032.863 14.361-.672 10.748-1.981 11.894-1.96 15.29.265 3.41 2.232 3.603 2.913 2.723 9.557-.522 3.932-1.568 8.311-2.328 9.729-1.472 2.753-4.099 3.498-4.099 1.164zm-16.21-9.81c-2.62-1.074-2.54-1.267 1.149-2.72 5.61-2.211 12.244-2.003 12.244.385 0 3.215-7.886 4.59-13.393 2.335zm26.78-11.168C104.216 59.54 94.343 49.63 96.125 49.63c.627 0 5.534 2.035 10.908 4.523 7.729 3.586 9.68 5.106 9.354 7.292-.573 3.842-2.533 4.117-7.458 1.037zm-24.847-3.92c-1.508-1.827-1.544-2.473-.172-2.934.971-.329 1.764-2.515 1.764-4.861 0-4.114-.18-4.235-4.915-3.348-4.94.926-10.591-.929-10.591-3.477 0-.748 3.489-1.357 7.75-1.357 6.276 0 7.756-.446 7.756-2.337 0-2.108.266-2.09 2.78.187 2.39 2.159 3.378 2.274 6.946.796 4.75-1.97 10.006-.839 10.006 2.15 0 1.484-1.87 2.02-7.048 2.02H91.31v5.028c0 5.229-2.057 10.476-4.105 10.476-.654 0-2.06-1.055-3.124-2.343zM82.245 33.42c5.235-4.94 8.202-6.058 9.692-3.649 2.232 3.61-4.84 8.583-12.214 8.583-2.192 0-1.713-.941 2.522-4.934z"/><path fill="#2f2f2f" d="M87.06 144.425c-.033-8-1.402-9.288-8.615-8.1-3.39.558-8.302 1.897-10.917 2.97-8.061 3.318-14.623 2.353-17.238-2.539-1.393-2.6-1.116-2.702 4.925-1.794 8.522 1.278 30.458-1.97 30.458-4.509 0-1.209-1.74-1.884-4.852-1.884-6.936 0-7.476-2.395-.793-3.526 3.637-.612 5.645-1.7 5.645-3.055 0-1.577-1.004-1.882-4.004-1.224-2.64.582-4.57.202-5.661-1.116-1.366-1.643-.666-2.147 4.005-2.895 3.73-.597 5.66-1.637 5.66-3.052 0-1.77-1.3-1.981-7.4-1.203-4.071.522-7.615 1.128-7.877 1.348-.263.22.271 3.99 1.179 8.378.91 4.387 1.366 8.269 1.01 8.624-.356.353-2.961-4.23-5.79-10.187s-4.816-11.158-4.415-11.559c.398-.4 2.214-.048 4.035.781 1.996.911 4.092 1.008 5.29.25 1.091-.693 4.68-1.266 7.976-1.278 5.045-.018 5.992-.468 5.992-2.84 0-2.435-.94-2.82-6.875-2.82-4.63 0-7.497-.748-8.78-2.292-1.721-2.078-1.344-2.202 3.997-1.297 7.774 1.315 11.658-.012 11.658-3.978 0-1.731-.763-3.908-1.691-4.837-1.318-1.318-.926-1.689 1.76-1.67 5.405.032 7.266 1.866 6.201 6.103-1.025 4.101.473 4.756 5.15 2.253 3.378-1.81 7.745-.619 8.912 2.427.697 1.816.115 2.096-3.04 1.475-6.405-1.264-11.655.344-11.655 3.568 0 2.557.654 2.753 6.695 2.011 3.685-.455 8.416-1.24 10.524-1.746 3.363-.805 4.11-.317 6.207 4.083 2.186 4.584 2.201 5.287.153 8.408-1.227 1.87-2.662 5.718-3.196 8.543l-.962 5.14h6.282c4.294 0 7.02.813 8.612 2.578 3.453 3.814 2.868 4.867-2.246 4.029-17.22-2.82-28.013-4.023-29.835-3.324-1.296.498-2.485 3.577-3.064 7.929-1.1 8.299-3.39 9.52-3.42 1.827zm22.287-21.75c2.08-11.181 1.1-12.433-9.753-12.433-6.276 0-8.284.492-8.284 2.033 0 1.378 1.9 2.174 5.88 2.467 8.414.62 8.9 3.96.582 3.96-5.036 0-6.462.506-6.462 2.297 0 1.825.983 2.141 4.768 1.526 4.445-.724 7.919.814 7.919 3.504 0 .622-2.856 1.128-6.342 1.128-4.699 0-6.345.55-6.345 2.114 0 1.638 1.851 2.114 8.208 2.114h8.21zm-10.99-39.258c0-.753-3.329-1.375-7.4-1.387-11.91-.036-12.72-2.33-1.23-3.486l10.042-1.007V64.75l-6.541.899c-3.598.492-8.942.896-11.882.896h-5.338l.8 7.753c1.043 10.106-1.421 10.178-3.674.109-2.11-9.428-3.963-11.113-10.965-9.967l-5.395.883 7.593-4.55c4.174-2.503 7.902-5.73 8.279-7.172.533-2.05 1.11-2.268 2.626-1.01 2.105 1.75 2.654 5.498.802 5.498-.627 0-2.328.865-3.778 1.93-2.555 1.866-2.546 1.975.325 3.513 2.26 1.206 5.459 1.07 13.411-.573 11.713-2.425 17.09-1.387 18.667 3.589 1.273 4.001-1.84 16.505-4.342 17.467-1.098.422-2 .15-2-.598zm-16.116-9.68c-3.63-1.42-1.266-2.76 6.837-3.87 5.217-.714 6.46-.476 6.46 1.243 0 1.258-1.804 2.491-4.403 3.013-5.133 1.025-5.308 1.016-8.894-.386zm20.091-17.005c-4.122-3.848-6.864-6.976-6.089-6.955 3.661.103 19.783 9.27 20.19 11.481.941 5.085-6.284 2.766-14.1-4.523zM84.322 58.2c-.844-1.58-.91-2.895-.15-3.17.708-.256 1.749-2.306 2.307-4.556l1.016-4.09-6.122.821c-6.092.817-11.206-.673-11.206-3.263 0-.748 3.784-1.357 8.413-1.357 7.416 0 8.306-.296 7.513-2.47-.824-2.262-.652-2.25 2.071.139 2.534 2.225 3.673 2.373 7.775 1.02 5.419-1.79 9.47-.818 9.47 2.273 0 1.447-1.38 1.993-4.585 1.818-9.143-.5-9.514-.301-9.514 5.064 0 5.353-2.07 10.476-4.228 10.476-.724 0-1.96-1.215-2.76-2.705zm-1.894-24.78c2.715-2.714 5.754-4.933 6.756-4.933 2.228 0 3.625 3.211 2.322 5.325-1.161 1.876-7.865 4.542-11.424 4.542-2.062 0-1.586-1.001 2.346-4.934z"/><path fill="#030303" d="M87.079 141.958c0-5.98-.22-6.342-3.872-6.348-2.133 0-8.435 1.345-14.002 2.998-11.032 3.269-16.412 2.829-18.746-1.535-1.384-2.585-1.07-2.69 5.51-1.912 3.836.452 12.087.03 18.338-.941 9.18-1.43 11.366-2.24 11.366-4.222 0-1.828-.862-2.286-3.398-1.8-1.87.358-4.482.045-5.803-.694-1.924-1.077-1.251-1.529 3.4-2.27 3.932-.631 5.801-1.641 5.801-3.137 0-1.695-.935-2.006-4.004-1.333-2.745.603-4.575.196-5.812-1.297-1.55-1.867-1.296-2.177 1.773-2.177 5.142 0 8.043-1.387 8.043-3.851 0-1.644-1.019-1.936-4.406-1.258-2.424.483-5.995.88-7.937.88-3.83 0-3.748-1.055-1.061 14.096.654 3.688-.537 2.087-4.723-6.342-3.082-6.203-5.344-11.535-5.027-11.852.313-.316 1.96.046 3.66.806 1.9.847 6.053.91 10.81.166 8.932-1.403 10.093-1.943 10.093-4.708 0-1.487-1.816-2.033-6.78-2.033-3.727 0-7.955-.859-9.394-1.912-2.291-1.676-1.507-1.893 6.427-1.76 8.203.135 9.026-.112 8.881-2.67-.09-1.553-.633-3.929-1.21-5.286-.792-1.873-.37-2.467 1.75-2.467 3.785 0 6.02 3.004 5.036 6.767-.923 3.529 1.93 4.171 6.83 1.547 2.374-1.266 3.442-.995 5.9 1.508l2.997 3.061-5.163-.935c-6.698-1.218-11.046.22-11.046 3.65 0 3.075 5.126 3.597 14.306 1.465 6.029-1.402 7.573-.697 9.485 4.33 1.103 2.908.817 4.886-1.321 9.078-1.505 2.952-2.736 6.815-2.736 8.591 0 2.865.682 3.227 6.125 3.227 4.144 0 6.88.833 8.456 2.576 4.684 5.175 2.452 5.44-14.58 1.743-3.49-.757-9.334-1.406-12.99-1.439l-6.649-.06-.935 7.045c-1.164 8.775-3.39 9.237-3.39.705zm22.506-20.036c1.502-8.631 1.42-9.635-.914-11.378-1.604-1.198-4.403-1.617-7.494-1.122-2.714.434-6.043.796-7.4.805-1.448.01-2.467 1.086-2.467 2.603 0 2.117 1.07 2.566 5.85 2.466 3.507-.072 6.092.585 6.46 1.641.431 1.242-1.294 1.764-5.85 1.764-5.399 0-6.46.437-6.46 2.67 0 2.312.645 2.526 4.825 1.582 3.013-.678 5.395-.518 6.342.432 2.437 2.433 1.764 3.902-1.653 3.606-6.381-.549-9.514.202-9.514 2.28 0 1.64 1.863 2.114 8.314 2.114h8.311zm-11.225-39.4c0-.649-3.124-.96-6.945-.694-3.818.263-8.1-.193-9.514-1.016-2.609-1.517-2.018-1.613 13.637-2.244 3.052-.12 3.634-.95 4.333-6.152.447-3.305.32-6.315-.28-6.686-.6-.37-6.14-.25-12.316.263l-11.228.935.781 7.563c.947 9.168-1.7 10.477-3.181 1.568-.546-3.293-1.882-7.72-2.965-9.84-1.936-3.779-1.906-3.827 1.508-2.527 2.277.865 7.033.724 13.767-.404 12.738-2.141 16.381-1.647 18.257 2.467 1.725 3.784-1.264 16.408-4.11 17.358-.96.32-1.747.054-1.744-.591zm-14.116-9.023-3.504-.92 4.134-1.67c4.75-1.919 9.5-1.569 10.263.753.642 1.951-6.11 3.088-10.893 1.837zM64.34 60.879c4.162-2.444 7.883-5.67 8.275-7.172.561-2.138 1.134-2.377 2.657-1.116 1.068.887 1.942 2.162 1.942 2.835 0 1.978-10.244 7.859-15.543 8.917-4.562.91-4.381.673 2.67-3.468zm41.629-1.147c-5.76-4.186-9.81-8.414-8.866-9.258 1.339-1.212 18.896 8.622 19.318 10.823.721 3.737-4.158 3.007-10.452-1.565zm-21.3-1.52c-1.357-2.168-1.285-2.847.362-3.48 1.128-.431 2.05-2.473 2.05-4.535 0-3.61-.238-3.725-6.317-3.04-4.132.464-6.825.1-7.787-1.062-1.137-1.369.293-1.99 6.336-2.744 4.295-.537 7.443-1.565 6.997-2.283-.44-.718-.133-1.306.687-1.306.824 0 1.493.634 1.493 1.412 0 1.84 5.078 1.809 8.553-.052 1.89-1.013 3.588-.995 5.545.052 4.533 2.427 3.363 4.457-1.993 3.453-7.192-1.348-10.431.111-9.62 4.342.66 3.46-1.984 11.936-3.724 11.936-.495 0-1.66-1.209-2.582-2.693zm-2.46-24.514c4.595-5.522 9.1-6.792 9.1-2.564 0 3.411-2.34 5.23-8.398 6.53l-4.873 1.043 4.17-5.006z"/></svg>