<svg xmlns="http://www.w3.org/2000/svg" viewBox="0 0 177 177"><filter id="a"><feGaussianBlur stdDeviation="2" result="blur" in="SourceAlpha"/><feOffset dy="2" dx="2" result="offsetBlur"/><feBlend in2="offsetBlur" in="SourceGraphic"/></filter><path filter="url(#a)" fill="#feec99" d="M34.481 45.608 41.225.888.585.71l7.454 44.898 12.6 3.727z" transform="translate(25.468 13.036) scale(3.01925)"/><path fill="#d0d0d0" d="M76.82 34.11c8.704 7.998 9.323 8.931 5.92 8.931-5.492 0-19.088-7.186-20.196-10.673-.875-2.753 1.45-7.421 3.614-7.258.52.04 5.314 4.088 10.661 9zm43.093-6.711c-.658.706-4.372 2.995-8.251 5.087-4.686 2.527-7.216 4.936-7.533 7.18-.544 3.822-2.932 4.302-6.92 1.386-3.723-2.724-1.897-7.896 3.834-10.86 4.87-2.519 20.818-4.877 18.87-2.793zm1.196 17.409c6.944 5.464 4.966 7.095-7.467 6.156-12.696-.96-13.958-.01-11.62 8.774 1.364 5.114 2.716 5.673 8.96 3.683 5.45-1.739 3.913 1.009-4.124 7.376-4.127 3.267-7.503 7.135-7.503 8.596 0 3.046-3.05 3.502-5.7.855-2.494-2.494-2.25-5.719.682-8.959 2.355-2.602 2.24-2.744-2.22-2.744-2.587 0-7.457 1.102-10.826 2.452-4.873 1.95-6.89 2.098-9.9.727-4.327-1.971-4.028-5.211.543-5.887 1.757-.26 3.412-1.884 3.817-3.75.392-1.812 1.25-4.574 1.902-6.141 1.117-2.672.634-2.784-7.83-1.824-7.574.854-9.58.568-12.499-1.796-4.84-3.92-3.107-8.542 2.67-7.108 2.258.559 10.256 1.389 17.77 1.842 12.62.758 16.778.287 33.967-3.85 4.653-1.117 6.274-.842 9.378 1.6zM83.827 53.18c-1.591 2.572-2.829 12.762-1.45 11.908.795-.49 4.306-1.057 7.806-1.268 5.61-.33 6.268-.737 5.54-3.448-.453-1.691-.836-4.257-.845-5.704-.019-1.986-1.278-2.626-5.185-2.626-2.838 0-5.48.513-5.866 1.138zm23.03 30.857c0 .398-3.725 2.829-8.278 5.398-13.303 7.506-20.229 14.538-20.229 20.543 0 2.793.622 5.075 1.38 5.075 3.638 0 6.123-2.143 6.123-5.286 0-1.908.41-4.538.912-5.843 1.138-2.967 6.59-3.14 6.59-.21 0 4.217 3.159 4.012 8.35-.544 5.479-4.816 10.778-5.89 13.854-2.817 2.512 2.512 2.244 7.397-.634 11.51-2.445 3.49-5.996 3.755-14.818 1.101-4.363-1.31-8.774 2.585-7.494 6.618.791 2.488 1.787 3.02 4.263 2.265 6.5-1.978 7.654-1.54 9.342 3.562.93 2.811 2.907 6 4.396 7.087 2.403 1.76 2.44 2.083.31 2.898-4.34 1.667-7.795-.06-9.317-4.65-1.376-4.154-1.844-4.408-5.627-3.07-3.291 1.165-4.122 2.388-4.104 6.047.03 5.314 1.193 7.425 4.855 8.774 5.088 1.878 2.736 4.245-3.753 3.774-5.066-.365-6.46-1.08-6.808-3.493-.368-2.56-1.338-2.95-6.202-2.485-3.435.326-6.22-.18-6.883-1.259-1.516-2.454 1.977-4.423 7.892-4.45 2.904-.015 4.876-.785 4.876-1.911 0-1.302-1.999-1.727-6.461-1.371-4.484.356-7.047-.193-8.382-1.8-2.783-3.354-.715-5.48 4.345-4.468 6.757 1.35 11.866-.408 10.984-3.783-.634-2.421-1.516-2.645-6.238-1.567-6.551 1.497-16.062-.673-17.321-3.952-1.027-2.675 2.319-4.354 6.506-3.261 2.515.661 2.863 0 2.66-5.054-.395-9.976 11.407-19.034 30.036-23.052 2.68-.58 4.876-.725 4.876-.326zm-.099 22.07c-4.052 2.168-3.617 4.448.849 4.448 2.062 0 3.75-.284 3.75-.628 0-.347.41-1.697.911-3.001 1.051-2.733-1.286-3.08-5.51-.822z"/><path fill="#b0b0b0" d="M75.726 33.135c4.747 4.381 8.626 8.454 8.626 9.055 0 .598-2.192.616-4.876.04-11.352-2.446-19.912-10.381-16.122-14.946 1.026-1.238 2.288-2.216 2.807-2.177.514.036 4.822 3.65 9.565 8.031zm42.472-4.3c-1.6 1.214-3.562 2.205-4.36 2.205-3.028 0-11.663 7.862-10.88 9.903 1.092 2.85-2.815 2.672-5.747-.26-3.043-3.043-2.974-3.916.634-7.79 3.282-3.52 11.74-6.361 18.765-6.298 4.281.037 4.357.145 1.588 2.24zm4.327 17.543c1.283 1.832 2.337 3.743 2.337 4.25 0 .505-5.405.605-12.005.224-13.297-.77-13.23-.83-11.065 9.994.9 4.502 1.162 4.646 7.125 3.87l6.19-.806-3.714 2.694c-8.696 6.3-13.34 11.216-12.548 13.278 1.014 2.642-2.657 2.899-5.19.366-2.95-2.95-2.062-6.758 2.325-9.973l4.127-3.022-6.751.754c-3.714.414-9.29 1.824-12.391 3.131-4.454 1.875-6.431 2.017-9.378.674-4.731-2.153-4.78-4.448-.115-5.616 2.102-.528 3.986-2.37 4.493-4.393.483-1.914 1.328-4.665 1.884-6.111.915-2.385.172-2.542-7.983-1.69-6.811.712-9.782.386-12.258-1.344-6.887-4.825-2.871-8.753 6.685-6.534 8.964 2.077 30.397 1.63 39.564-.833 11.588-3.11 15.905-2.86 18.668 1.087zm-40.44 11.766c-.568 3.357-.794 6.268-.507 6.47.29.2 4.058.09 8.378-.245 7.077-.55 7.705-.881 6.377-3.37-.815-1.515-1.48-4.154-1.48-5.857 0-2.605-.936-3.1-5.866-3.1-5.694 0-5.9.18-6.902 6.102zm23.272 26.128c0 .308-3.882 2.935-8.626 5.836-13.78 8.424-18.378 13.36-18.378 19.716 0 4.764.414 5.38 3.333 4.96 2.597-.374 3.611-1.89 4.59-6.856 1.398-7.107 4.015-8.158 7.481-3.001l2.27 3.375 3.54-3.188c4.353-3.919 9.341-6.564 12.39-6.564 3.168 0 5.843 5.538 4.762 9.849-1.362 5.429-6.13 7.349-13.074 5.269-7.216-2.162-12.206-.052-11.506 4.86.459 3.231 1.667 3.521 9.305 2.25 2.168-.362 3.352 1.039 5 5.903 1.19 3.508 2.781 6.376 3.539 6.376.755 0 1.374.719 1.374 1.6 0 .879-1.854 1.39-4.125 1.127-3.067-.354-4.51-1.643-5.625-5.024-1.376-4.17-1.841-4.427-5.627-3.086-3.291 1.165-4.122 2.388-4.104 6.047.03 5.314 1.193 7.425 4.855 8.774 4.795 1.77 2.838 4.264-2.968 3.78-3.765-.313-6.09-1.446-7.125-3.466-1.168-2.285-2.744-2.886-6.6-2.518-5.957.571-9.65-2.032-6.174-4.347 1.231-.825 4.432-1.178 7.113-.785 4.055.591 4.876.226 4.876-2.168 0-2.524-.785-2.769-6.431-1.993-4.9.67-6.923.296-8.469-1.57-2.853-3.436-1.05-4.535 6.66-4.06 7.875.482 9.707-.363 8.75-4.028-.61-2.328-1.968-2.621-9.616-2.069-9.167.665-13.396-.993-13.396-5.247 0-1.534 1.407-2.023 4.845-1.69 4.707.455 4.834.316 4.415-4.84-.764-9.34 7.203-16.214 24.87-21.45 4.332-1.283 7.876-2.083 7.876-1.772zm-.86 23.4c-2.814 3.11-2.802 3.121 2.382 2.626 3.517-.332 5.365-1.346 5.703-3.122.704-3.723-4.559-3.4-8.085.498z"/><path fill="#8e8e8e" d="M116.803 28.359c-1.543 1.062-4.921 3.297-7.503 4.966-2.581 1.673-5.362 4.544-6.177 6.383-1.648 3.72-3.502 3.678-5.903-.133-3.309-5.244 3.675-10.703 15.7-12.273 5.761-.755 6.299-.607 3.883 1.057zM76.656 34.13c4.433 4.152 7.754 7.85 7.382 8.225-.37.371-4.127-.35-8.348-1.603-10.98-3.261-17.898-12.847-9.972-13.816 1.72-.212 6.135 2.696 10.938 7.194zm46.122 12.709c3.146 4.8 2.16 5.77-4.154 4.076-2.757-.74-7.886-1.057-11.392-.704-6.872.694-7.27 1.489-5.42 10.743.928 4.637 1.148 4.758 7.126 3.915 5.332-.754 5.779-.612 3.291 1.027-6.974 4.59-14.45 12.288-13.737 14.14 1.464 3.819-3.699 2.013-5.495-1.921-1.619-3.56-1.383-4.257 2.481-7.34l4.27-3.406-7.322.767c-4.028.423-9.408 1.721-11.956 2.893-3.421 1.57-5.677 1.73-8.626.61-5.266-2.002-5.06-4.122.519-5.347 2.485-.544 4.194-1.513 3.798-2.15-.392-.637.079-3.258 1.045-5.821.966-2.567 1.455-4.955 1.078-5.311-.375-.353-4.058-.12-8.182.525-8.379 1.305-15.755-1.259-15.755-5.477 0-2.101 1.38-2.246 10.878-1.16 14.297 1.64 29.86.985 40.35-1.693 11.705-2.992 14.338-2.741 17.203 1.63zM82.3 55.417a33.028 33.028 0 0 0-.927 6.926c-.015 2.956.55 3.4 3.355 2.648 1.857-.498 5.555-.915 8.215-.927 4.623-.018 4.77-.199 3.315-4.027-.839-2.204-1.18-4.907-.76-6.003.564-1.467-.955-1.992-5.767-1.992-5.501 0-6.67.531-7.43 3.375zm23.058 28.852c0 .308-3.55 2.59-7.889 5.073-12.442 7.119-18.72 13.562-19.65 20.177-.77 5.456-.627 5.697 3.11 5.254 3.135-.375 4.252-1.652 5.565-6.35 1.908-6.847 4.472-8.336 6.815-3.961 2.222 4.151 3.973 3.904 10.026-1.41 5.791-5.084 8.273-5.54 11.667-2.144 3.375 3.376 2.916 7.095-1.377 11.13-3.466 3.257-4.148 3.372-9.535 1.593-8.922-2.946-14.13.737-11.337 8.013.803 2.099 1.344 2.105 5.293.06 5.465-2.822 6.929-1.97 8.194 4.774.55 2.926 1.923 5.676 3.058 6.108 3.328 1.277 2.362 3.723-1.265 3.2-2.771-.398-4.61-2.644-8.16-9.963-.695-1.428-9.324 4.55-8.841 6.12.314 1.027.966 3.675 1.45 5.888.5 2.28 2.249 4.462 4.03 5.027 4.453 1.413 1.304 4.06-4.097 3.442-2.606-.296-4.852-1.721-5.676-3.602-1.072-2.434-2.675-3.089-7.352-3.001-3.524.066-6.25-.659-6.634-1.764-.458-1.322 1.377-1.875 6.226-1.875 6.018 0 6.875-.401 6.875-3.197 0-2.838-.61-3.098-5.462-2.31-5.513.894-11.041-.881-11.041-3.547 0-.797 3.94-1.45 8.753-1.45 9.842 0 11.273-.7 8.967-4.393-1.277-2.05-3.195-2.44-9.447-1.92-8.436.698-14.272-1.38-14.272-5.087 0-1.682 1.295-2.168 4.873-1.82 4.695.452 4.858.286 4.378-4.484-.635-6.38 2.605-11.223 10.615-15.852 5.821-3.366 22.14-9.06 22.14-7.729zm-.374 22.373c-3.925 2.977-3.194 4.157 2.234 3.632 3.207-.311 5.036-1.368 5.365-3.098.601-3.17-3.725-3.475-7.599-.534zm-13.128 3.913c0 .824.296 1.497.661 1.497.363 0 1.078-.673 1.589-1.497.51-.828.211-1.5-.662-1.5-.875 0-1.588.672-1.588 1.5z"/><path fill="#6f6f6f" d="M118.86 27.196c0 .363-3.391 2.5-7.54 4.759-4.704 2.56-7.862 5.404-8.405 7.563-.719 2.865-1.359 3.2-3.714 1.941-3.569-1.911-3.662-6.216-.2-9.35 3.31-2.992 19.858-7.09 19.858-4.913zm-44.945 4.967c2.862 3.095 6.552 6.392 8.194 7.328 5.266 2.989 1.395 3.734-6.183 1.192-9.01-3.019-12.575-6.035-12.575-10.627 0-5.314 4.54-4.409 10.567 2.107zm47.885 14.16c4.248 4.56 3.865 6.286-1.066 4.816-3.647-1.087-19.815-1.16-20.88-.09-.227.223.443 3.743 1.485 7.825 1.331 5.214 2.545 7.246 4.082 6.842 9.178-2.437 9.722-2.08 3.686 2.418-7.97 5.94-11.766 10.368-10.561 12.319 1.516 2.451-1.682 1.89-4.333-.761-3.245-3.246-2.983-4.71 1.613-8.967l3.97-3.684-7.346.954c-4.04.523-9.562 1.848-12.273 2.944-3.394 1.377-6.075 1.558-8.626.589-4.891-1.86-4.692-3.91.48-4.943 2.6-.522 4.263-1.865 4.402-3.562.124-1.5.682-4.565 1.238-6.815l1.014-4.085-9.622.9c-7.865.734-10.084.435-12.168-1.649-4.773-4.77-3.14-5.842 6.83-4.465 13.007 1.796 31.156 1.096 41.563-1.6 11.455-2.968 12.883-2.88 16.515 1.014zm-38.698 6.552c-.274.232-.884 3.282-1.355 6.781-.821 6.135-.725 6.326 2.753 5.396 1.981-.532 5.752-.976 8.376-.988 4.604-.018 4.725-.18 3.454-4.607-.725-2.521-.963-5.501-.535-6.621.613-1.594-.625-1.857-5.706-1.208-3.566.453-6.712 1.018-6.987 1.247zm12.503 37.324c-12.113 7.3-18.752 14.535-18.752 20.431 0 4.149.42 4.574 4.085 4.149 3.327-.387 4.393-1.57 5.736-6.389 1.923-6.884 4.297-8.29 6.634-3.928 2.222 4.151 3.973 3.904 10.026-1.41 5.791-5.084 8.273-5.54 11.667-2.144 3.375 3.376 2.916 7.095-1.377 11.13-3.49 3.281-4.118 3.38-9.683 1.545-5.18-1.712-6.437-1.645-9.73.513-3.292 2.16-3.57 2.947-2.132 6.1 1.419 3.121 2.131 3.405 5.117 2.043 4.855-2.21 7.705-.67 8.91 4.816.57 2.587 1.984 5.07 3.143 5.513 3.364 1.292 2.437 3.744-1.217 3.219-2.575-.372-6.817-5.565-8.025-9.831-.054-.19-2.294.483-4.975 1.491-4.547 1.718-4.807 2.195-3.892 7.102 1.156 6.19 3.176 9.01 6.449 9.01 1.69 0 1.905.461.749 1.617-2.66 2.663-10.076.997-11.664-2.62-1.135-2.588-2.581-3.2-7.059-3.001-7.84.353-7.97-2.642-.139-3.21 5.305-.383 6.377-.984 6.377-3.572 0-2.741-.682-3.019-5.752-2.34-5.797.776-10.748-.815-10.748-3.45 0-.786 4.387-1.426 9.752-1.426 5.362 0 9.75-.347 9.75-.773 0-.422-.801-2.05-1.776-3.614-1.492-2.385-3.02-2.714-9.505-2.044-8.339.86-14.223-1.186-14.223-4.942 0-1.766 1.129-2.053 5.126-1.304l5.127.963-.77-5.77c-.586-4.408-.018-6.724 2.412-9.807 3.473-4.402 15.797-10.76 24.11-12.433 4.754-.957 4.398-.543-3.75 4.366zm6.751 18.72c0 .706 1.32 1.63 2.929 2.052 3.985 1.042 8.315-2.318 7.095-5.504-.89-2.315-1.337-2.328-5.495-.18-2.49 1.288-4.529 2.922-4.529 3.628zm-10.5.972c0 1.286.685 1.917 1.524 1.397s1.135-1.57.661-2.34c-1.286-2.08-2.186-1.69-2.186.943z"/><path fill="#4f4f4f" d="M117.356 27.704c-.003.594-3.21 2.771-7.126 4.836-4.779 2.515-7.282 4.861-7.602 7.123-.408 2.868-.927 3.134-3.466 1.775-4.577-2.452-2.992-7.711 3.194-10.607 6.1-2.853 15.006-4.71 15-3.13zm-40.751 7.164 8.004 8.107-6.95-2.092c-9.934-2.99-14.311-6.241-14.311-10.628 0-5.909 4.368-4.387 13.257 4.613zm45.25 11.917c4.362 4.647 3.544 5.634-3.092 3.729-2.832-.812-8.376-1.048-12.319-.525-5.652.748-7.013 1.464-6.455 3.378.39 1.335 1.163 5 1.721 8.143.803 4.52 1.525 5.498 3.457 4.68 8.87-3.75 9.372-2.126 1.223 3.973-6.25 4.677-8.517 7.283-8.016 9.203.906 3.466-.885 3.42-4.073-.103-3.089-3.412-2.147-6.25 3.215-9.692 4.085-2.62 4.08-2.62-4.912-1.63-4.952.544-10.688 1.806-12.75 2.808-4.164 2.023-10.694.972-11.642-1.872-.396-1.187 1.062-1.833 4.139-1.833 3.149 0 4.529-.634 4.1-1.872-.356-1.032.245-4.447 1.34-7.59l1.99-5.712-10.093.993c-9.034.89-10.386.664-12.92-2.132-2.605-2.877-2.626-3.203-.301-4.097 1.392-.534 6.506-.127 11.364.906 9.843 2.086 26.385 1.099 39.356-2.355 10.416-2.772 10.576-2.754 14.668 1.6zm-39.353 7.361c-.607.906-1.114 3.865-1.127 6.576l-.024 4.927 7.88-1.005c4.33-.552 7.935-1.084 8.008-1.177.075-.094-.166-3.038-.532-6.54l-.664-6.37-6.22.971c-3.42.535-6.714 1.712-7.321 2.618zM95.605 90.17c-12.044 7.297-18.752 14.583-18.752 20.362 0 4.021.495 4.522 4.483 4.522 4.073 0 4.571-.55 5.447-6.032 1.177-7.376 3.403-9.052 6.277-4.725 2.784 4.194 4.97 4.109 9.154-.341 4.469-4.756 9.897-5.716 12.992-2.295 2.977 3.291 1.724 8.122-2.886 11.141-2.675 1.751-4.387 1.842-8.889.459-4.39-1.347-6.38-1.283-9.33.296-4.226 2.264-4.577 4.028-1.57 7.992 1.719 2.27 2.64 2.445 5.317 1.011 4.475-2.394 7.047-1.026 8.234 4.387.556 2.527 2.138 5.227 3.517 6.003 2.322 1.3 2.31 1.482-.135 2.427-3.509 1.35-7.108-1.815-7.108-6.253 0-4.11-.317-4.19-7.02-1.766-3.034 1.099-4.981 2.82-4.981 4.405 0 4.94 3.046 10.588 6.144 11.4 2.367.62 2.633 1.118 1.108 2.084-4.01 2.542-8.777 1.404-10.567-2.521-1.564-3.436-2.34-3.735-7.467-2.868-4.632.782-5.722.513-5.722-1.42 0-1.763 1.504-2.379 5.828-2.379 4.516 0 5.996-.658 6.59-2.928.683-2.615-.138-2.98-7.58-3.379-5.007-.266-8.6-1.195-8.968-2.319-.459-1.382 2.174-1.875 10.006-1.875 5.845 0 10.628-.338 10.628-.751s-1.277-2.023-2.838-3.584c-2.192-2.195-4.309-2.675-9.375-2.12-7.672.837-14.794-1.485-14.794-4.83 0-1.89 1.065-2.156 5.416-1.338 5.405 1.014 5.41 1.005 4.405-3.575-1.676-7.623 2.476-13.405 13.164-18.357 5.103-2.358 11.298-4.74 13.774-5.29 3.409-.754 2.319.323-4.502 4.457zm9.339 16.18-4.629 3.294 4.306 1.153c4.927 1.317 8.236-.664 8.236-4.927 0-3.693-2.246-3.557-7.913.48zm-13.859 5.435c1.193 1.192 3.774-1.51 2.857-2.996-.622-1.008-1.395-.854-2.192.435-.68 1.096-.976 2.25-.665 2.564z"/><path fill="#2f2f2f" d="m76.605 34.871 8.004 8.104-6.947-2.092c-9.677-2.911-14.245-6.658-14.29-11.718-.043-4.77 5.063-2.573 13.233 5.706zm34.613-3.366c-3.635 1.905-7.286 4.96-8.11 6.79-1.969 4.372-6.002 3.517-6.002-1.274 0-4.51 7.765-8.976 15.612-8.98l5.112-.002zm9.323 14.042c4.846 5.628 4.68 6.353-1.087 4.762-4.683-1.293-20.099-.486-20.099 1.05 0 .296.743 3.992 1.649 8.216 1.25 5.827 2.186 7.472 3.888 6.817 1.235-.47 4.037-1.232 6.23-1.69 3.797-.789 3.84-.734.854 1.132-8.056 5.042-14.493 11.588-13.62 13.849 1.072 2.802-.662 3.107-3.2.565-2.938-2.938-2.072-6.74 2.324-10.175l4.127-3.222-8.251.918c-4.538.507-10.344 1.66-12.901 2.566-4.937 1.751-12.606.643-12.606-1.817 0-.81 1.893-1.474 4.206-1.474 3.847 0 4.336-.646 5.755-7.566l1.549-7.57-9.88.976c-8.81.867-10.19.634-12.71-2.153-2.515-2.777-2.564-3.23-.435-4.045 1.316-.505 5.827-.182 10.03.718 10.437 2.24 21.261 2.017 33.743-.694a7529.211 7529.211 0 0 1 14.287-3.095c2.56-.55 4.547.075 6.147 1.932zM82.547 53.99c-.634.993-1.16 4.061-1.172 6.824l-.024 5.012 7.88-1.057c4.33-.586 7.935-1.154 8.008-1.268.075-.112-.173-3.15-.547-6.745l-.682-6.54-6.16.984c-3.387.544-6.672 1.797-7.306 2.79zm16.808 33.058c0 .272-3.333 2.657-7.406 5.296-9.77 6.331-15.096 12.831-15.096 18.42 0 4.152.356 4.447 4.876 4.01 4.438-.426 4.942-.997 5.625-6.353.413-3.236 1.51-6.135 2.44-6.44 2.487-.815 3.894 4.112 1.871 6.552-1.972 2.376-.845 4.339 1.615 2.817a1.896 1.896 0 0 0 .64-2.597c-.567-.918-.102-1.283 1.102-.863 1.148.398 4.3-1.202 7.011-3.557 8.1-7.035 16.96-4.293 13.732 4.248-1.975 5.23-6.326 6.784-12.144 4.339-4.399-1.851-5.495-1.812-9.133.341-4.62 2.73-4.99 4.287-1.96 8.288 1.722 2.27 2.642 2.445 5.32 1.011 4.046-2.165 7.51-.957 7.51 2.615 0 1.494 1.08 4.257 2.403 6.147 2.786 3.98 1.609 6.105-2.102 3.783-1.404-.881-2.76-3.656-3.01-6.171l-.459-4.571-5.918 2.325c-4.8 1.884-5.917 3.07-5.917 6.265 0 4.894 3.828 10.576 7.21 10.703 1.742.063 1.413.543-1.051 1.53-4.659 1.863-8.756.505-9.967-3.306-.77-2.424-2.022-2.928-6.31-2.548-3.312.296-5.597-.238-5.993-1.398-.444-1.292 1.208-1.875 5.323-1.875 5.305 0 7.79-1.712 7.79-5.374 0-.344-3.714-.628-8.255-.628-5.894 0-8.252-.574-8.252-2.008 0-1.449 2.549-2.032 9.149-2.095 5.027-.045 9.888-.83 10.8-1.742 1.207-1.208 1.014-1.655-.72-1.655-1.306 0-2.71-1.28-3.118-2.84-.664-2.546-1.368-2.676-6.757-1.239-7.195 1.924-15.848-.051-16.564-3.774-.401-2.083.43-2.343 5.033-1.597l5.514.894-1.027-4.68c-1.56-7.098 2.778-13.076 13.294-18.333 7.835-3.916 12.901-5.465 12.901-3.94zm5.072 19.528-4.094 3.52 4.158 1.045c4.78 1.2 8.366-1.062 8.366-5.271 0-3.835-3.49-3.542-8.427.706z"/><path fill="#040404" d="M75.08 34.098c8.496 7.923 8.506 8.255.16 5.936-6.419-1.781-12.635-7.886-11.376-11.171 1.325-3.454 2.479-2.917 11.216 5.235zm35.528-2.771c-3.3 1.935-6.667 5.027-7.482 6.868-2.452 5.54-7.968 3.476-6.135-2.294 1.171-3.693 5.685-6.16 13.176-7.201l6.443-.894zM120.8 45.698c1.407 1.558 2.56 3.155 2.56 3.554 0 .398-5.006.685-11.12.634-6.117-.051-11.594.377-12.17.951-1.447 1.434 2.234 16.207 4.033 16.207.797 0 2.814-.727 4.48-1.621 5.813-3.11 4.177-.386-2.662 4.435-3.79 2.67-7.24 6.196-7.669 7.835-.981 3.75-3.994 2.905-4.616-1.292-.302-2.068.863-4.034 3.363-5.676 6.111-4 3.197-4.994-7.75-2.636-13.4 2.883-18.726 3.11-19.505.833-.401-1.165.75-1.878 3.035-1.878 2.983 0 3.834-.92 4.498-4.876.453-2.68 1.317-6.135 1.924-7.675 1.038-2.626.465-2.735-9.285-1.757-9.33.936-10.673.728-13.185-2.044-2.545-2.814-2.572-3.17-.31-4.04 1.364-.525 5.47-.199 9.117.719 11.933 3.004 27.817 1.857 48.885-3.524 2.727-.694 4.547-.166 6.377 1.854zm-35.434 6.244c-2.929 1.117-3.804 2.678-4.278 7.669l-.598 6.27 8.23-.965c4.53-.532 8.324-1.114 8.442-1.295.115-.182-.09-3.195-.456-6.703-.573-5.486-1.156-6.374-4.163-6.374-1.92 0-5.151.628-7.177 1.398zm7.216 39.691c-10.272 6.984-15.26 12.766-16.06 18.62-.664 4.873-.585 4.945 4.705 4.502 5.036-.423 5.404-.81 5.842-6.078.528-6.389 1.953-6.957 6.37-2.542l3.08 3.082 5.223-4.583c8.536-7.494 15.797-5.483 13.484 3.738-1.229 4.885-4.426 6.053-11.443 4.181-4.227-1.129-6.582-.993-9.522.55-4.36 2.286-4.867 4.565-1.915 8.605 1.68 2.294 2.528 2.442 5.369.92 4.522-2.418 7.638-.98 7.638 3.524 0 2.03.985 4.671 2.183 5.87 2.802 2.801 1.262 4.378-2.376 2.43-1.772-.948-2.805-3.14-2.805-5.948 0-5.214.13-5.178-6.703-1.92-3.765 1.796-5.298 3.514-5.298 5.93 0 4.852 3 10.794 5.833 11.551 1.328.357-.115.725-3.21.822-4.758.145-5.624-.311-5.624-2.96 0-2.747-.755-3.067-6.241-2.623-4.29.347-6.455-.136-6.932-1.546-.535-1.57.745-1.914 5.489-1.461 3.4.326 6.183.12 6.183-.453s.396-2.071.879-3.33c.71-1.842-.659-2.38-7.008-2.748-5.081-.296-8.13-1.201-8.575-2.545-.516-1.567.263-1.85 3.11-1.135 4.686 1.177 17.596-.462 17.596-2.234 0-.713-.936-1.299-2.077-1.299s-2.41-1.274-2.817-2.832c-.664-2.548-1.419-2.68-7.433-1.304-5.154 1.18-7.675 1.057-10.951-.54-6.389-3.11-6.537-5.849-.263-4.831l5.163.839-.16-6.099c-.208-7.856 5.435-14.048 16.621-18.233 10.96-4.1 11.322-3.816 2.648 2.083zm12.01 14.698c-3.852 3.031-3.955 3.366-1.328 4.396 4.958 1.947 7.94 1.419 9.61-1.706 3.352-6.259-1.672-7.89-8.282-2.687zm-14.238 3.472a2.255 2.255 0 0 0 2.249 2.25c2.343 0 2.977-1.773 1.25-3.5-1.724-1.727-3.502-1.093-3.502 1.25z"/></svg>