<?xml version="1.0" encoding="UTF-8" standalone="no"?>
<!-- Created with Inkscape (http://www.inkscape.org/) -->

<svg
   width="46.486263mm"
   height="46.486259mm"
   viewBox="0 0 46.486263 46.48626"
   version="1.1"
   id="svg1"
   sodipodi:docname="bK.svg"
   inkscape:version="1.4.3 (0d15f75042, 2025-12-25)"
   xmlns:inkscape="http://www.inkscape.org/namespaces/inkscape"
   xmlns:sodipodi="http://sodipodi.sourceforge.net/DTD/sodipodi-0.dtd"
   xmlns:xlink="http://www.w3.org/1999/xlink"
   xmlns="http://www.w3.org/2000/svg"
   xmlns:svg="http://www.w3.org/2000/svg">
  <sodipodi:namedview
     id="namedview1"
     pagecolor="#ffffff"
     bordercolor="#000000"
     borderopacity="0.25"
     inkscape:showpageshadow="2"
     inkscape:pageopacity="0.0"
     inkscape:pagecheckerboard="0"
     inkscape:deskcolor="#d1d1d1"
     inkscape:document-units="mm"
     inkscape:zoom="2.4502536"
     inkscape:cx="111.6211"
     inkscape:cy="91.215048"
     inkscape:window-width="1920"
     inkscape:window-height="988"
     inkscape:window-x="0"
     inkscape:window-y="0"
     inkscape:window-maximized="1"
     inkscape:current-layer="svg1" />
  <defs
     id="defs1">
    <linearGradient
       id="linearGradient358">
      <stop
         style="stop-color:#454f54;stop-opacity:1;"
         offset="0"
         id="stop357" />
      <stop
         style="stop-color:#110d26;stop-opacity:1;"
         offset="1"
         id="stop358" />
    </linearGradient>
    <linearGradient
       xlink:href="#linearGradient358"
       id="linearGradient96"
       x1="33.437416"
       y1="70.27404"
       x2="79.923676"
       y2="116.76029"
       gradientUnits="userSpaceOnUse" />
    <filter
       style="color-interpolation-filters:sRGB"
       id="filter611"
       x="-0.033380412"
       y="-0.031621299"
       width="1.0806693"
       height="1.0764181">
      <feFlood
         result="flood"
         in="SourceGraphic"
         flood-opacity="1.000000"
         flood-color="rgb(0,0,0)"
         id="feFlood609" />
      <feGaussianBlur
         result="blur"
         in="SourceGraphic"
         stdDeviation="0.500000"
         id="feGaussianBlur609" />
      <feOffset
         result="offset"
         in="blur"
         dx="0.500000"
         dy="0.500000"
         id="feOffset609" />
      <feComposite
         result="comp1"
         operator="out"
         in="flood"
         in2="offset"
         id="feComposite610" />
      <feComposite
         result="comp2"
         operator="atop"
         in="comp1"
         in2="SourceGraphic"
         id="feComposite611" />
    </filter>
  </defs>
  <g
     id="g665"
     transform="translate(-33.38977,-70.300485)">
    <path
       id="path661"
       style="color:#000000;font-variation-settings:normal;fill:none;stroke:#ffffff;stroke-width:2;stroke-linecap:round;stroke-linejoin:miter;stroke-miterlimit:4;stroke-dasharray:none;stroke-dashoffset:0;stroke-opacity:0.5;paint-order:stroke markers fill;stop-color:#000000"
       d="m 56.632719,73.984115 a 3.4765904,3.4765904 0 0 0 -3.476274,3.47679 3.4765904,3.4765904 0 0 0 1.472778,2.831352 c -0.563163,0.285066 -1.001498,0.66907 -1.43247,1.044897 -0.06616,0.05769 -0.130913,0.117997 -0.195854,0.177767 -1.16995,-0.455881 -2.394407,-0.733246 -3.626652,-0.808736 -1.710866,-0.104811 -3.434501,0.174585 -5.041036,0.882633 -3.213072,1.416098 -5.675623,4.923573 -5.675623,9.322429 0,3.24785 1.541211,6.518243 4.150135,9.576163 1.244118,1.45821 2.75762,2.85409 4.527889,4.10155 a 7.2344021,7.2344021 0 0 0 -6.130375,7.13755 v 0.20671 h 30.854964 v -0.20671 a 7.2344021,7.2344021 0 0 0 -7.234184,-7.23418 h -3.840592 l 7.570597,-2.02882 c 0.689984,-0.64002 1.326226,-1.301 1.902209,-1.9761 2.608924,-3.05792 4.148584,-6.328313 4.148584,-9.576163 0,-4.398856 -2.461,-7.906331 -5.674072,-9.322429 -1.606535,-0.708048 -3.33017,-0.987444 -5.041036,-0.882633 -1.232365,0.0755 -2.456597,0.352774 -3.626652,0.808736 -0.06491,-0.05974 -0.129213,-0.120104 -0.195337,-0.177767 -0.430852,-0.375723 -0.869517,-0.759854 -1.432987,-1.044897 a 3.4765904,3.4765904 0 0 0 1.472778,-2.831352 3.4765904,3.4765904 0 0 0 -3.47679,-3.47679 z m -5.17e-4,12.495361 c 0.208279,0.243456 0.388836,0.397062 0.609265,0.744141 0.80802,1.27227 1.48053,3.098361 1.48053,4.828129 0,1.737438 -0.960138,4.730295 -2.089795,7.687386 -1.129521,-2.956845 -2.088245,-5.950109 -2.088245,-7.687386 0,-1.729768 0.67251,-3.555859 1.48053,-4.828129 0.220146,-0.346633 0.399647,-0.500841 0.607715,-0.744141 z m -8.230505,0.24753 c 0.372047,-0.01533 0.759922,0.0092 1.149283,0.06615 -0.609806,1.570017 -1.006657,3.343019 -1.006657,5.258594 0,2.214924 0.486248,4.563187 1.184424,6.819738 -0.901512,-0.732469 -1.693368,-1.501222 -2.356445,-2.278414 -1.913142,-2.242383 -2.71508,-4.591353 -2.71508,-5.681823 0,-2.479816 0.841078,-3.278725 2.095996,-3.831808 0.470596,-0.207405 1.039092,-0.327318 1.648479,-0.352433 z m 16.462561,0 c 0.609384,0.02511 1.177882,0.145028 1.648478,0.352433 1.254921,0.553083 2.093929,1.351992 2.093929,3.831808 0,1.09047 -0.799871,3.43944 -2.713013,5.681823 -0.663135,0.777261 -1.454832,1.545887 -2.356445,2.278414 0.698176,-2.256551 1.184424,-4.604814 1.184424,-6.819738 0,-1.915596 -0.39684,-3.688564 -1.006657,-5.258594 0.38939,-0.057 0.777207,-0.08148 1.149284,-0.06615 z" />
    <path
       id="path50"
       style="color:#000000;font-variation-settings:normal;opacity:1;fill:url(#linearGradient96);stroke:none;stroke-width:1;stroke-linecap:round;stroke-linejoin:miter;stroke-miterlimit:4;stroke-dasharray:none;stroke-dashoffset:0;stroke-opacity:0.459816;paint-order:stroke markers fill;filter:url(#filter611);stop-color:#000000;stop-opacity:1"
       d="m 56.680365,73.957645 a 3.4765904,3.4765904 0 0 0 -3.476274,3.47679 3.4765904,3.4765904 0 0 0 1.472778,2.831352 c -0.563163,0.285066 -1.001498,0.66907 -1.43247,1.044897 -0.06616,0.05769 -0.130913,0.117997 -0.195854,0.177767 -1.16995,-0.455881 -2.394407,-0.733246 -3.626652,-0.808736 -1.710866,-0.104811 -3.434501,0.174585 -5.041036,0.882633 -3.213072,1.416098 -5.675623,4.923573 -5.675623,9.322429 0,3.24785 1.541211,6.518243 4.150135,9.576163 1.244118,1.45821 2.75762,2.85409 4.527889,4.10155 a 7.2344021,7.2344021 0 0 0 -6.130375,7.13755 v 0.20671 h 30.854964 v -0.20671 a 7.2344021,7.2344021 0 0 0 -7.234184,-7.23418 h -3.840592 l 7.570597,-2.02882 c 0.689984,-0.64002 1.326226,-1.301 1.902209,-1.9761 2.608924,-3.05792 4.148584,-6.328313 4.148584,-9.576163 0,-4.398856 -2.461,-7.906331 -5.674072,-9.322429 -1.606535,-0.708048 -3.33017,-0.987444 -5.041036,-0.882633 -1.232365,0.0755 -2.456597,0.352774 -3.626652,0.808736 -0.06491,-0.05974 -0.129213,-0.120104 -0.195337,-0.177767 -0.430852,-0.375723 -0.869517,-0.759854 -1.432987,-1.044897 a 3.4765904,3.4765904 0 0 0 1.472778,-2.831352 3.4765904,3.4765904 0 0 0 -3.47679,-3.47679 z m -5.17e-4,12.495361 c 0.208279,0.243456 0.388836,0.397062 0.609265,0.744141 0.80802,1.27227 1.48053,3.098361 1.48053,4.828129 0,1.737438 -0.960138,4.730295 -2.089795,7.687386 -1.129521,-2.956845 -2.088245,-5.950109 -2.088245,-7.687386 0,-1.729768 0.67251,-3.555859 1.48053,-4.828129 0.220146,-0.346633 0.399647,-0.500841 0.607715,-0.744141 z m -8.230505,0.24753 c 0.372047,-0.01533 0.759922,0.0092 1.149283,0.06615 -0.609806,1.570017 -1.006657,3.343019 -1.006657,5.258594 0,2.214924 0.486248,4.563187 1.184424,6.819738 -0.901512,-0.732469 -1.693368,-1.501222 -2.356445,-2.278414 -1.913142,-2.242383 -2.71508,-4.591353 -2.71508,-5.681823 0,-2.479816 0.841078,-3.278725 2.095996,-3.831808 0.470596,-0.207405 1.039092,-0.327318 1.648479,-0.352433 z m 16.462561,0 c 0.609384,0.02511 1.177882,0.145028 1.648478,0.352433 1.254921,0.553083 2.093929,1.351992 2.093929,3.831808 0,1.09047 -0.799871,3.43944 -2.713013,5.681823 -0.663135,0.777261 -1.454832,1.545887 -2.356445,2.278414 0.698176,-2.256551 1.184424,-4.604814 1.184424,-6.819738 0,-1.915596 -0.39684,-3.688564 -1.006657,-5.258594 0.38939,-0.057 0.777207,-0.08148 1.149284,-0.06615 z"
       transform="translate(-0.04764576,0.02647)" />
  </g>
</svg>
