<svg xmlns="http://www.w3.org/2000/svg" width="10mm" height="10mm" viewBox="0 0 10 10"><g style="fill:#fff;fill-opacity:1"><g style="fill:#fff;fill-opacity:1;stroke-width:.09651081;stroke-miterlimit:4;stroke-dasharray:none"><path d="M6.542 294.178c1.078 0 1.125.858 1.125 1.495H2.069c0-.65.046-1.495 1.124-1.495z" style="fill:#000;fill-opacity:1;stroke:none;stroke-width:.38604325;stroke-linecap:butt;stroke-linejoin:miter;stroke-miterlimit:4;stroke-dasharray:none;stroke-opacity:1" transform="matrix(1.07361 0 0 1 -.233 -286.97)"/><path d="M4.48 287.937v.468h-.537v.727h.537c0 .563-.142.46-.533.694-2.418-.94-3.734 1.985-.939 3.968l3.715-.013c2.848-1.97 1.504-4.894-.913-3.94-.46-.245-.545-.107-.545-.709h.548v-.727h-.548v-.468zm1.929 2.955c.644.063.894.844-.79 1.96v-1.563c.312-.305.497-.425.79-.397zm-2.962.008c.272.01.402.134.675.401v1.562c-1.683-1.115-1.433-1.897-.789-1.959a.85.85 0 0 1 .114-.004z" style="fill:#000;fill-opacity:1;stroke:none;stroke-width:.36596447;stroke-linecap:butt;stroke-linejoin:miter;stroke-miterlimit:4;stroke-dasharray:none;stroke-opacity:1" transform="matrix(1.07361 0 0 1 -.233 -286.97)"/></g></g></svg>