<svg xmlns="http://www.w3.org/2000/svg" width="10mm" height="10mm" viewBox="0 0 10 10"><g style="fill:#fff;fill-opacity:1"><g style="fill:#fff;fill-opacity:1;stroke-width:.09651081;stroke-miterlimit:4;stroke-dasharray:none"><path d="M6.542 294.178c1.078 0 1.125.858 1.125 1.495H2.069c0-.65.046-1.495 1.124-1.495z" style="fill:#fff;fill-opacity:1;stroke:#000;stroke-width:.38604325;stroke-linecap:butt;stroke-linejoin:miter;stroke-miterlimit:4;stroke-dasharray:none;stroke-opacity:1" transform="matrix(1.07361 0 0 1 -.233 -286.97)"/><path d="M15.014 3.873a3.016 3.016 0 0 0-3.018 3.016 3.016 3.016 0 0 0 1.91 2.804l-.373 8.116-3.984-6.524a3.016 3.016 0 0 0 .53-1.709 3.016 3.016 0 0 0-3.017-3.015 3.016 3.016 0 0 0-3.015 3.015 3.016 3.016 0 0 0 2.504 2.97l4.773 14.69h15.147l4.76-14.6a3.016 3.016 0 0 0 2.595-2.982 3.016 3.016 0 0 0-3.015-3.015 3.016 3.016 0 0 0-3.016 3.015 3.016 3.016 0 0 0 .455 1.584l-4.072 6.57-.319-8.128a3.016 3.016 0 0 0 1.875-2.791 3.016 3.016 0 0 0-3.015-3.016 3.016 3.016 0 0 0-3.016 3.016 3.016 3.016 0 0 0 .854 2.103l-1.702 8.817-1.625-8.88a3.016 3.016 0 0 0 .8-2.04 3.016 3.016 0 0 0-3.016-3.016z" style="fill:#fff;fill-opacity:1;stroke:#000;stroke-width:1.51181102;stroke-linecap:butt;stroke-linejoin:miter;stroke-opacity:1;stroke-miterlimit:4;stroke-dasharray:none" transform="matrix(.26458 0 0 .26458 0 0)"/></g></g></svg>