<svg xmlns="http://www.w3.org/2000/svg" viewBox="0 0 60 60"><defs><filter id="a"><feGaussianBlur in="SourceAlpha" result="blur" stdDeviation="2"/><feOffset result="offsetBlur" dx="2" dy="2"/><feBlend in="SourceGraphic" in2="offsetBlur"/></filter></defs><g transform="translate(40.742 .122) scale(.98716)" fill="#dcdcdc" filter="url(#a)"><path d="M-10.96 6.237l-12.838 3.608-7.051 44.45H9.085l-6.79-44.163c-4.418-1.297-8.839-2.6-13.255-3.895z" fill="#cdbc68"/></g><g stroke="#000"><path d="M282.83 136.555c.204-5.885-.282-11.142-3.009-13.33 2.021-.873 3.212-2.979 4.365-4.578 1.154 1.6 2.344 3.705 4.365 4.579-2.727 2.187-3.213 7.444-3.009 13.33v0a4.466 4.466 0 01-1.356.232 4.436 4.436 0 01-1.356-.233z" transform="matrix(.78388 0 0 .7906 -192.76 -80.52)"/><path transform="matrix(.06092 0 0 .07196 13.338 6.93)" d="M97.159 111.627c-2.764 121.39 19.614 224.192 177.984 219.075 158.37 5.117 180.748-97.685 177.985-219.075-11.066 132.287-51.513 167.404-177.985 175.038-126.471-7.634-166.92-42.75-177.984-175.038z" fill="#ccbb67" stroke-width="10.741"/><path transform="matrix(.06092 0 0 .07196 13.338 6.93)" d="M166.796 305.119l-54.464 95.975-8.754-6.962-40.59 61.712-7.283-9.989c-17.703 21.022-27.021 32.762-44.724 53.784 14.216 20.56 44.13 49.69 71.96 55.397 13.294-25.846 83.135-195.794 102.034-237.34M380.21 305.12l54.464 95.975 8.754-6.962 40.59 61.712 7.283-9.989c17.702 21.022 27.021 32.762 44.724 53.784-14.216 20.56-44.13 49.69-71.961 55.397-13.293-25.846-83.134-195.794-102.034-237.34" stroke-width="13.427"/><path d="M20.594 40.135c6.55 2.666 12.882 2.75 18.974 0L35.99 29.978c-3.579 1.423-8.174 1.72-11.76-.08z" stroke-width=".876"/><path d="M23.982 32.269c3.8 1.939 8.391 1.992 12.096-.028" fill="none" stroke="#ccbb67" stroke-width=".889"/></g><path d="M20.241 34.658c.2.098.26.171.34.227l1.99 1.586m17.181-1.797c-1.405.671-1.713.897-2.57 1.346m-19.808 2.415l3.835 2.4m21.485-2.4l-3.835 2.4m-17.951-.087l4.025-10.762m10.377-.037l3.779 10.904" fill="none" stroke="#ccbb67" stroke-width=".889"/><path d="M24.21 25.718c5.22-4.653 7.145-4.266 12.108.076-2.547 1.04-2.739.918-5.955 1.495-2.972-.606-2.459-.107-6.153-1.571z" stroke="#000" stroke-width=".889"/></svg>