<svg xmlns="http://www.w3.org/2000/svg" viewBox="0 0 60 60"><defs><filter id="a"><feGaussianBlur in="SourceAlpha" result="blur" stdDeviation="2"/><feOffset result="offsetBlur" dx="2" dy="2"/><feBlend in="SourceGraphic" in2="offsetBlur"/></filter></defs><g transform="matrix(1.05 0 0 1.05 41.426 -1.78)" fill="#fdc9dd" filter="url(#a)"><path d="M-10.96 6.237l-12.838 3.608-7.051 44.45H9.085c-2.303-14.885-4.076-30.55-6.79-44.163z" fill="#cdbc68"/></g><g opacity=".99"><path d="M20.656 44.09l-.306-3.064" fill="none" stroke="#ffffe5" stroke-width=".691"/><path d="M24.2 41.24h11.273" fill="none" stroke="#fff" stroke-width=".691"/><path d="M34.911 40.503a5.104 6.34 0 00-.029-.162 5.104 6.34 0 00-.16-.602 5.104 6.34 0 00-.21-.578 5.104 6.34 0 00-.253-.549 5.104 6.34 0 00-.297-.517 5.104 6.34 0 00-.336-.476 5.104 6.34 0 00-.374-.43 5.104 6.34 0 00-.406-.385 5.104 6.34 0 00-.435-.33 5.104 6.34 0 00-.459-.276 5.104 6.34 0 00-.479-.217 5.104 6.34 0 00-.495-.157 5.104 6.34 0 00-.504-.095 5.104 6.34 0 00-.51-.031 5.104 6.34 0 00-.36.015 5.104 6.34 0 00-.507.077 5.104 6.34 0 00-.498.138 5.104 6.34 0 00-.484.2 5.104 6.34 0 00-.466.259 5.104 6.34 0 00-.443.316 5.104 6.34 0 00-.414.369 5.104 6.34 0 00-.383.417 5.104 6.34 0 00-.348.464 5.104 6.34 0 00-.31.505 5.104 6.34 0 00-.266.54 5.104 6.34 0 00-.222.57 5.104 6.34 0 00-.174.596 5.104 6.34 0 00-.07.339z" stroke="#000" stroke-width=".635" stroke-linecap="round" stroke-linejoin="round"/><path d="M18.329 23.657v17.599h2.704a9.227 9.227 0 01.046-.307 9.227 9.227 0 01.228-.892 9.227 9.227 0 01.316-.867 9.227 9.227 0 01.401-.83 9.227 9.227 0 01.482-.786 9.227 9.227 0 01.56-.735 9.227 9.227 0 01.627-.675 9.227 9.227 0 01.694-.609 9.227 9.227 0 01.75-.536 9.227 9.227 0 01.8-.459 9.227 9.227 0 01.841-.376 9.227 9.227 0 01.875-.29 9.227 9.227 0 01.9-.203 9.227 9.227 0 01.916-.111 9.227 9.227 0 01.652-.023 9.227 9.227 0 01.923.046 9.227 9.227 0 01.911.138 9.227 9.227 0 01.894.228 9.227 9.227 0 01.865.316 9.227 9.227 0 01.832.4 9.227 9.227 0 01.786.483 9.227 9.227 0 01.734.559 9.227 9.227 0 01.674.628 9.227 9.227 0 01.609.692 9.227 9.227 0 01.537.751 9.227 9.227 0 01.458.8 9.227 9.227 0 01.377.842 9.227 9.227 0 01.291.875 9.227 9.227 0 01.202.9 9.227 9.227 0 01.005.04h2.452V23.658z" stroke="#000" stroke-linecap="round" stroke-linejoin="round" stroke-width=".691"/><path d="M40.552 42.406h2.768l-.63-1.149-.515-.022-1.704.002c.034.293.06.588.075.884l.006.285zm-21.088-1.154l-1.719.001-.596-.005-.592 1.168h2.83c.002-.185.007-.37.017-.554.015-.204.035-.408.06-.61z" stroke="#000" stroke-width=".565" stroke-linejoin="round"/><path d="M40.536 44.298l2.802-.01-.003-1.583-2.723.002a6.318 8.102 0 01.01.327 6.318 8.102 0 01-.032.809 6.318 8.102 0 01-.054.455zM19.488 42.63l-2.946.004.008 1.664 3.01-.011a6.222 8.29 0 01-.068-.75 6.222 8.29 0 01-.016-.586 6.222 8.29 0 01.012-.321z" stroke="#000" stroke-width=".565"/><path d="M24.953 41.133a5.033 10.409 0 00-.015.595 5.033 10.409 0 00.012.737 5.033 10.409 0 00.06 1.033 5.033 10.409 0 00.073.668l9.782-.051a5.033 10.409 0 00.039-.318 5.033 10.409 0 00.076-1.03 5.033 10.409 0 00.025-1.04 5.033 10.409 0 00-.01-.61z" stroke="#000" stroke-width=".754"/><path d="M18.319 23.658c-1.845-1.351-1.957-2.11-2.632-3.747 9.695 1.003 19.473 1.145 28.626 0-.66 2.167-.782 2.492-2.577 3.747z" stroke="#000" stroke-linejoin="round" stroke-width=".691"/><path d="M30 32.854a9.227 9.227 0 00-9.227 9.226A9.227 9.227 0 0030 51.307a9.227 9.227 0 009.228-9.227A9.227 9.227 0 0030 32.854zm0 2.915a6.082 6.311 0 016.082 6.311 6.082 6.311 0 01-6.083 6.311 6.082 6.311 0 01-6.08-6.31 6.082 6.311 0 016.08-6.312z" stroke="#000" stroke-width=".565" stroke-linecap="round" stroke-linejoin="round"/><path d="M30.06 42.63v6.508" fill="none" stroke="#000" stroke-width=".691"/><path d="M17.952 24.514h24.096" fill="#fff" stroke="#ccbb67" stroke-width="1.005"/><path d="M25.6 47l4.37-4.43 4.567 4.567" fill="none" stroke="#000" stroke-width=".691"/><path d="M16.2 42.714h3.386" fill="#fff" stroke="#ccbb67" stroke-width=".88"/><path d="M24.66 42.714h10.688" fill="#fff" stroke="#ccbb67" stroke-width=".691"/><path d="M40.464 42.714h3.2" fill="#fff" stroke="#ccbb67" stroke-width=".88"/><path d="M30.03 44.369v-8.43" fill="none" stroke="#ccbb67" stroke-width=".691"/><path d="M31.605 44.23l-5.895-6.135" fill="#fff" stroke="#ccbb67" stroke-width=".691"/><path d="M28.236 44.347l6.102-6.208" fill="none" stroke="#ccbb67" stroke-width=".691"/><path d="M34.7 44.712a5.605 5.605 0 00-1.035-7.295 5.605 5.605 0 00-7.368.033 5.605 5.605 0 00-.97 7.304" fill="none" stroke="#ccbb67" stroke-linejoin="bevel" stroke-width=".691"/><path d="M24.693 41.123h10.6" fill="none" stroke="#ccbb67" stroke-width=".691"/><path d="M39.685 44.673a9.97 9.97 0 00-4.044-10.584 9.97 9.97 0 00-11.33.034 9.97 9.97 0 00-3.982 10.607" fill="none" stroke="#ccbb67" stroke-width="1.131" stroke-linejoin="bevel"/><path d="M17.92 40.344h1.838m20.477.001h1.839" fill="#fff" stroke="#ccbb67" stroke-width="1.131"/></g></svg>