<svg xmlns="http://www.w3.org/2000/svg" viewBox="0 0 60 60"><defs><filter id="a"><feGaussianBlur in="SourceAlpha" result="blur" stdDeviation="2"/><feOffset result="offsetBlur" dx="2" dy="2"/><feBlend in="SourceGraphic" in2="offsetBlur"/></filter></defs><g transform="translate(40.733 .148) scale(.98631)" fill="#f0c000" filter="url(#a)"><path d="m-10.96 6.237-12.838 3.608-7.051 44.45H9.085l-6.79-44.163z" fill="#cdbc68"/></g><g transform="matrix(.8776 0 0 .86667 -184.43 -44.674)"><g stroke="#000" stroke-width="1.2"><path d="M89.878 104.459c71.228 71.229 31.757 135.82 52.51 165.378 28.87 49.947 71.082 59.605 129.342 59.37a65.84 65.84 0 0 0 3.413-.105c1.143.065 2.28.1 3.413.104 58.26.236 100.472-9.422 129.342-59.369 20.753-29.557-18.718-94.15 52.51-165.378-11.605-5.015-42.725 25.605-62.898 25.525-25.612-15.171-47.031 3.08-52.25 16.777 37.838-11.301 70.078 121.468-45.539 137.914-7.067 1.97-16.164 2.514-24.578 2.72-8.414-.206-17.511-.75-24.578-2.72-115.617-16.446-83.377-149.215-45.538-137.914-5.22-13.698-26.64-31.948-52.251-16.777-20.173.08-51.293-30.54-62.898-25.525z" transform="matrix(.06853 0 0 .08094 225.709 60.013)" fill="#cdbc68" stroke-width="8.056"/><path transform="matrix(.06853 0 0 .08094 225.73 59.991)" d="M141.488 275.714c-28.03-24.447-35.67-22.506-73.48-17.843l-35.66 52.997c60.802-7.142 122.974 2.29 115.3 107.58 7.77-26.63 28.133-63.418 39.832-101.833m220.385-40.901c28.03-24.447 35.67-22.506 73.479-17.843l35.66 52.997c-60.801-7.142-122.974 2.29-115.3 107.58-7.77-26.63-28.132-63.418-39.83-101.833" stroke-width="16.112"/><path transform="matrix(.06853 0 0 .08094 225.709 60.013)" d="m128.121 339.223-29.443 64.098c-3.406-2.033 6.609 9.49-6.592 1.008-14.055 23.338-19.002 29.833-33.969 54.715 21.968 17.086 24.659 18.31 46.106 25.56 13.293-25.846 25.739-42.373 44.639-83.918m270.022-61.463 29.443 64.098c3.407-2.033-6.608 9.49 6.593 1.008 14.054 23.338 19.002 29.833 33.968 54.715-21.968 17.086-24.658 18.31-46.106 25.56-13.292-25.846-25.738-42.373-44.638-83.918" stroke-width="16.112"/><path d="M233.88 97.288c7.362 3.092 14.48 3.19 21.327 0l-4.023-11.781c-5.552 2.376-8.767 2.099-13.5.437z"/><path d="M237.463 88.704c4.81 1.655 8.506 2.056 13.826-.031" fill="none" stroke="#cdbc68"/></g><path d="M233.664 87.938c.302.137.414.39.467.478 1.928 3.26 1.51 3.297 1.895 4.828m19.295-5.088c-.305.131-.422.381-.476.469-1.994 3.22-1.576 3.266-1.992 4.79" fill="none" stroke="#cdbc68" stroke-width=".7"/><path d="m234.519 98.23 4.06-12.61m11.288.253 4.574 12.42" fill="none" stroke="#cdbc68"/><path d="M231.593 92.248c.18.09.406.383.61.575l3.094 2.919m22.05-3.494c-.18.09-.406.383-.61.575l-3.093 2.919" fill="none" stroke="#cdbc68" stroke-width=".998"/><path d="M239.024 80.489c3.438-2.881 8.3-2.42 11.037.134-2.365 3.351-9.494 2.307-11.037-.134z" stroke="#000"/><ellipse ry="3.818" rx="3.947" cy="79.253" cx="244.601" fill="#cdbc68" stroke="#000" stroke-width=".604"/><path d="m240.019 99.645-1.37 5.82-.911-.363-.997 3.086c4.988 2.097 11.13 1.98 15.249 0l-.997-3.086-.854.363-1.37-5.82" stroke="#000"/><path d="M239.37 100.175c.152.039.143.036.229.06 3.05.835 6.735.845 9.675.113.05-.013.015-.002.171-.039m-11.035 3.982c.156.037.124.045.187.066 3.28 1.12 8.768.875 11.584-.009.08-.024.052-.026.198-.06" fill="none" stroke="#cdbc68" stroke-width=".998"/></g></svg>