<svg xmlns="http://www.w3.org/2000/svg" viewBox="0 0 60 60"><defs><filter id="a"><feGaussianBlur in="SourceAlpha" result="blur" stdDeviation="2"/><feOffset result="offsetBlur" dx="2" dy="2"/><feBlend in="SourceGraphic" in2="offsetBlur"/></filter></defs><path d="m26.007 8.117-11.691 3.286-6.422 40.48h36.369l-6.184-40.219z" transform="matrix(1.05 0 0 1.05 2.618 -1.5)" fill="#cdbc68" filter="url(#a)"/><g stroke="#000" stroke-width="4.938"><path d="M29.24 50.907V24.034h1.52v26.873z" stroke-width=".5"/><path d="m29.373 24.553-1.362-.868.269-11.272 1.689-2.892 1.776 2.81.24 11.262-1.355.934z" fill="#cdbc68" stroke-width=".88"/><path d="M29.991 9.962v10.64l1.674 1.329m-1.674-1.329-1.652 1.467" fill="none" stroke-width=".457"/></g><path d="M21.666 40.96h16.668v1.519H21.666z" stroke="#000" stroke-width=".499"/><path d="M30 32.115a9.605 9.605 0 0 0-9.605 9.605A9.605 9.605 0 0 0 30 51.325a9.605 9.605 0 0 0 9.605-9.605A9.605 9.605 0 0 0 30 32.115zm0 2.094a7.51 7.51 0 0 1 7.51 7.51A7.51 7.51 0 0 1 30 49.23a7.51 7.51 0 0 1-7.51-7.51A7.51 7.51 0 0 1 30 34.21z"/><path d="M23.57 47.076 35.356 35.29l1.074 1.073L24.644 48.15z" stroke="#000" stroke-width=".499"/><path d="M24.644 35.29 36.43 47.076l-1.074 1.074L23.57 36.363z" stroke="#000" stroke-width=".499"/></svg>