<svg xmlns="http://www.w3.org/2000/svg" width="60" height="60"><defs><filter id="a"><feGaussianBlur in="SourceAlpha" result="blur" stdDeviation="2"/><feOffset result="offsetBlur" dx="2" dy="2"/><feBlend in="SourceGraphic" in2="offsetBlur"/></filter></defs><g style="display:inline"><g style="display:inline;fill:#fecb00;fill-opacity:1;filter:url(#a)" transform="matrix(1.03094 0 0 1.03094 -102.587 -25.906)"><g style="fill:#fecb00;fill-opacity:1"><path style="fill:#fdeb98;fill-opacity:1" d="m-37.3-31.01-13.408 4.26-6.837 44.558h40.19l-6.535-44.862-13.138-3.935a.885.885 0 0 0-.271-.021z" transform="rotate(180 45.578 23.813)"/></g></g><g style="font-style:normal;font-variant:normal;font-weight:400;font-stretch:normal;font-size:29.072px;line-height:1.25;font-family:PMingLiU;-inkscape-font-specification:PMingLiU;letter-spacing:0;word-spacing:0;display:inline;opacity:.99;fill:#000;fill-opacity:1;stroke:#000;stroke-width:.423169;stroke-miterlimit:4;stroke-dasharray:none;stroke-opacity:1" aria-label="王"><path style="font-style:normal;font-variant:normal;font-weight:400;font-stretch:normal;font-family:MingLiU_HKSCS-ExtB;-inkscape-font-specification:MingLiU_HKSCS-ExtB;fill:#000;fill-opacity:1;stroke:#000;stroke-width:.453165;stroke-linejoin:round;stroke-miterlimit:4;stroke-dasharray:none;stroke-opacity:1" d="M41.364 42.419v8.086h5.242l.837 2.478h-6.079v9.13H51.43l.836 2.869H27.964l.836-2.87h9.952v-9.13h-6.237l.836-2.477h5.401v-8.086h-7.136l-.836-2.87h18.597l-.836 2.87z" transform="matrix(-1.19582 0 0 -1.07583 77.97 84.194)"/></g></g></svg>