<?xml version="1.0" encoding="UTF-8"?>
<svg id="Layer_2" data-name="Layer 2" xmlns="http://www.w3.org/2000/svg" viewBox="0 0 141.73 141.73">
  <defs>
    <style>
      .cls-1 {
        stroke-width: 3.04px;
      }

      .cls-1, .cls-2, .cls-3, .cls-4, .cls-5 {
        stroke: #1e1e1e;
        stroke-linejoin: round;
      }

      .cls-1, .cls-2, .cls-4, .cls-5 {
        fill: none;
      }

      .cls-2 {
        stroke-width: 3.06px;
      }

      .cls-6 {
        fill-rule: evenodd;
      }

      .cls-6, .cls-7, .cls-8, .cls-9 {
        stroke-width: 0px;
      }

      .cls-6, .cls-9 {
        fill: #000;
        isolation: isolate;
        opacity: .18;
      }

      .cls-3, .cls-8 {
        fill: #5f5955;
      }

      .cls-3, .cls-5 {
        stroke-width: 3.16px;
      }

      .cls-4 {
        stroke-width: 1.59px;
      }

      .cls-7 {
        fill: #fff;
        opacity: .25;
      }
    </style>
  </defs>
  <g>
    <path class="cls-8" d="M80.37,63.85l14.33-17.99c.27-.34.79-.33,1.04.02,8.21,11.23,12.06,28.79-3.92,50.73-.12.17-.32.27-.53.27h-40.71c-.21,0-.41-.1-.53-.27-27.28-37.45,3.2-62.13,14.56-64.36.53-.1.74-.75.35-1.13l-.03-.03c-.38-.36-.73-.77-1.04-1.2-1.02-1.43-1.63-3.2-1.63-5.1,0-4.83,3.89-8.74,8.68-8.74s8.68,3.91,8.68,8.74c0,1.9-.6,3.66-1.63,5.1-.31.44-.66.84-1.04,1.2h0c-.38.38-.18,1.03.35,1.11,3.2.48,7.51,2.43,12.23,6.87.25.24.27.63.06.9l-15.33,18.63c-.23.27-.19.68.08.91l5.1,4.42c.28.24.71.2.94-.09Z"/>
    <path class="cls-3" d="M75.58,32.16h.03"/>
    <circle class="cls-7" cx="66.55" cy="20.03" r="1.94"/>
    <path class="cls-7" d="M64.54,32.31c3.99-4.38-13.01,3.52-18.98,16.3-3.12,6.69-6.83,15.09-6.67,21.95.15,6.26,9.59,24.21,8.17,20.12-11.88-34.14,10.71-50.94,17.48-58.37Z"/>
    <path class="cls-6" d="M93.34,94.1c-2.26,2.35-4.42,2.75-7.77,2.85-10.52-.55-21.11,0-21.11,0l-14.68-1.11c36.74-1.81,40.02-3.22,47.45-8.85l-3.88,7.12Z"/>
    <path class="cls-6" d="M64.48,33.64c12.08-1.1,11.61-.6,13.95-6.09l-.49,6.32c-.82,2.86-7.67,3.51-10.17,2.34-1.39-.65-3.3-2.57-3.3-2.57Z"/>
    <path class="cls-5" d="M75.58,32.16h.03"/>
    <path class="cls-6" d="M65.91,31.81c11.23-4.37,10.93-3.76,11.65-9.64l1.27,6.17c0,2.96-6.36,5.46-9.07,5.03-1.5-.24-3.85-1.55-3.85-1.55Z"/>
    <g>
      <path class="cls-1" d="M81.58,62.26l13.02-16.33c.26-.33.78-.33,1.03.01,8.22,11.23,12.07,28.8-3.92,50.74-.12.17-.32.27-.53.27h-40.72c-.21,0-.41-.1-.53-.27-27.3-37.47,3.23-62.16,14.57-64.36.53-.1.73-.74.34-1.11l-.04-.04c-.38-.36-.73-.77-1.04-1.2-1.02-1.43-1.63-3.2-1.63-5.1,0-4.83,3.89-8.74,8.68-8.74s8.68,3.91,8.68,8.74c0,1.9-.6,3.66-1.63,5.1-.31.44-.66.84-1.04,1.2h-.01c-.38.38-.18,1.03.35,1.11,3.2.47,7.52,2.42,12.25,6.88.25.23.27.62.06.88l-13.72,16.68c-1.12,1.36-.95,3.38.38,4.53l1.58,1.37c1.16,1,2.92.84,3.87-.36Z"/>
      <path class="cls-2" d="M64.84,31.21c4.29,3.71,9.71,1.78,11.99-.04"/>
    </g>
  </g>
  <g>
    <path class="cls-8" d="M46.92,95h-2.57s0,.04,0,.04c0,0-1.16.22-2.07.89-.91.67-.65,2.61-.65,2.61,0,0-1.31.72-2.91,1.95-1.76,1.34-3.86,3.27-4.98,5.5-2.14,4.25,1.65,7.93,1.65,7.93,0,0-3.86,1.46-3.83,5.05.03,3.58,1.38,5.39,3.45,6.03h71.79c2.07-.63,3.42-2.44,3.45-6.02.02-3.59-3.84-5.05-3.84-5.05,0,0,3.79-3.68,1.66-7.93-1.11-2.22-3.22-4.16-4.98-5.5-1.6-1.23-2.91-1.95-2.91-1.95,0,0,.26-1.94-.65-2.61-.91-.67-2.07-.89-2.07-.89,0,0,0-.01,0-.04h-2.58"/>
    <line class="cls-8" x1="106.31" y1="113.94" x2="35.3" y2="113.93"/>
    <path class="cls-7" d="M32.79,119.16c.04,3.47,1.8,5.23,4.49,5.85.02,0,.04,0,.06.01-1.1-1.01-1.74-2.56-1.76-4.79-.04-3.64,4.81-5.12,4.81-5.12,0,0-4.75-3.73-2.08-8.04,1.4-2.26,4.05-4.21,6.25-5.58,2.01-1.24,3.66-1.98,3.66-1.98,0,0-.33-1.96.81-2.64,1.13-.68,2.6-.91,2.6-.91,0,0,0,0,0-.04h-3.67s1.49.04,1.49.04c0,0-3.02.22-4.2.87-1.18.65-.84,2.52-.84,2.52,0,0-1.71.71-3.8,1.89-2.29,1.3-3.97,3-5.42,5.15-2.78,4.11,2.59,7.86,2.59,7.86,0,0-5.04,1.41-5,4.89Z"/>
    <line class="cls-4" x1="106.34" y1="113.94" x2="35.33" y2="113.93"/>
    <path class="cls-9" d="M110.18,119.55c-.04,3.63-.19,5.48-3.13,6.13-.02,0-9.26,0-5.76,0,1.19-1.06,4.41-2.74,4.43-5.07.04-3.8-4.34-6.13-4.34-6.13,0,0,7.26-3.59,4.34-8.09-1.53-2.36-1.33-2.58-3.72-4-2.19-1.29-4.8-3.37-4.8-3.37,0,0,.36-2.05-.88-2.76-1.23-.71-2.83-.95-2.83-.95,0,0-3.8,0-3.81-.03h7.79s-1.62.03-1.62.03c0,0,1.94-.25,3.23.43,1.28.67,1.5,2.26,1.5,2.26,0,0,.4,1.53,2.67,2.76,2.49,1.36,4.33,2.77,5.91,5.02,3.03,4.3-4.41,8.64-4.41,8.64,0,0,5.48,1.48,5.44,5.11Z"/>
    <path class="cls-1" d="M46.87,95h-2.57s0,.04,0,.04c0,0-1.16.22-2.07.89-.91.67-.65,2.61-.65,2.61,0,0-1.31.72-2.91,1.95-1.76,1.34-3.86,3.27-4.98,5.5-2.14,4.25,1.65,7.93,1.65,7.93,0,0-3.86,1.46-3.83,5.05.03,3.58,1.38,5.39,3.45,6.03h71.79c2.07-.63,3.42-2.44,3.45-6.02.02-3.59-3.84-5.05-3.84-5.05,0,0,3.79-3.68,1.66-7.93-1.11-2.22-3.22-4.16-4.98-5.5-1.6-1.23-2.91-1.95-2.91-1.95,0,0,.26-1.94-.65-2.61-.91-.67-2.07-.89-2.07-.89,0,0,0-.01,0-.04h-50.52Z"/>
  </g>
</svg>