<?xml version="1.0" encoding="UTF-8"?>
<svg id="Layer_2" data-name="Layer 2" xmlns="http://www.w3.org/2000/svg" viewBox="0 0 141.73 141.73">
  <defs>
    <style>
      .cls-1 {
        stroke-width: 3.06px;
      }

      .cls-1, .cls-2, .cls-3 {
        fill: none;
        stroke: #1e1e1e;
        stroke-linejoin: round;
      }

      .cls-4 {
        fill-rule: evenodd;
      }

      .cls-4, .cls-5, .cls-6, .cls-7, .cls-8 {
        stroke-width: 0px;
      }

      .cls-4, .cls-8 {
        fill: #000;
        isolation: isolate;
        opacity: .18;
      }

      .cls-2 {
        stroke-width: 1.51px;
      }

      .cls-5 {
        fill: #f0f0f0;
      }

      .cls-6 {
        fill: #5f5955;
      }

      .cls-3 {
        stroke-width: 2.9px;
      }

      .cls-7 {
        fill: #fff;
      }
    </style>
  </defs>
  <path class="cls-5" d="M41.3,83.35l-8.26-17.92s-3.01-3.73,1.97-5.2c3.06-.9,13.62,3.32,20.26,1.53,4.2-1.13,7.44-2.01,7.59-2.11.39-.27.92-5.47.92-5.47l-3.15-1.73s4.22-9.85,4.79-10.86c.04-.03.06-.05.06-.07,0-.03-.02,0-.06.07-.57.47-4.85,2.36-7.88,3.67-1.74.75-3.07,1.32-3.07,1.32,0,0-6.29-11.73.4-20.39,1.67.7,3.42,1.44,5.01,2.12,3.26,1.4,5.87,2.54,5.87,2.54l-4.84-10.08-.4-.85s4.37-2.94,10.49-2.9c6.12-.03,10.48,2.9,10.48,2.9l-.4.85-4.84,10.08s2.61-1.15,5.88-2.55c1.59-.68,3.33-1.42,5.01-2.12,6.69,8.66.39,20.39.39,20.39,0,0-1.33-.56-3.06-1.32-3.04-1.31-7.32-3.21-7.88-3.67-.04-.07-.06-.1-.06-.07,0,.02.02.04.06.07.57,1,4.79,10.86,4.79,10.86l-3.15,1.73s.52,5.2.91,5.47c.15.1,3.39.98,7.6,2.11,6.65,1.78,16.85-2.43,19.9-1.53,4.98,1.47,1.97,5.2,1.97,5.2l-7.9,17.92-2.53,6.02-2.51,6.71-3.19,8.54h-42.91l-3.19-8.54-2.51-6.71-2.53-6.02Z"/>
  <path class="cls-7" d="M32.26,60.88s10.66,23.41,18.02,42.06c.32.8,3.18,1.13,2.76,0-6.12-16.78-17.92-43.63-17.92-43.63l-2.87,1.57Z"/>
  <path class="cls-7" d="M53.19,38.11s.94-8.69,4.98-11.33c.11-.07-2.85-.55-2.96-.4-1.66,2.2-2.02,4.56-2.02,4.56v7.16Z"/>
  <path class="cls-7" d="M82.65,19.83s-12.79-7.58-20.16,4.48c-.32.52.49.81-1.04-1.51-6.87-10.37,18.33-3.99,18.33-3.99l2.87,1.01Z"/>
  <path class="cls-4" d="M94.48,97.07c-2.05,2.17-2.29,2.01-5.32,2.1-9.52-.51-19.1,0-19.1,0l-13.29-1.02c33.25-1.66,34.71-4.5,41.42-9.68l-3.72,8.6Z"/>
  <path class="cls-4" d="M66.42,61.35c12.23-3.07,11.99-1.47,13.58-7.18l.43,6.21c-.42,2.91-5.48,4.76-9,3.84-1.52-.4-5.01-2.88-5.01-2.88Z"/>
  <path class="cls-4" d="M65.22,53.06c12.23-3.07,11.99-1.47,13.58-7.18l2.39,4.53c-.42,2.91-7.74,5.26-11.26,4.34-1.52-.4-4.7-1.69-4.7-1.69Z"/>
  <path class="cls-4" d="M79.8,41.25c5.23.69,8.87.77,10.46-4.94l-.95,4.53c-.42,2.91-1.23,3.43-4.75,2.52-1.52-.4-4.77-2.11-4.77-2.11Z"/>
  <path class="cls-4" d="M66.47,54.68c12.27-2.83,11.94-1.72,13.84-5.75l.07,4.27c-.58,2.03-7.54,3.66-10.21,3.32-1.48-.19-3.71-1.83-3.71-1.83Z"/>
  <path class="cls-1" d="M41.42,82.43l-8.26-17.92s-3.01-3.73,1.97-5.2c3.06-.9,13.62,3.32,20.26,1.53,4.2-1.13,7.44-2.01,7.59-2.11.39-.27.92-5.47.92-5.47l-3.15-1.73s4.22-9.85,4.79-10.86c.04-.03.06-.05.06-.07,0-.03-.02,0-.06.07-.57.47-4.85,2.36-7.88,3.67-1.74.75-3.07,1.32-3.07,1.32,0,0-6.29-11.73.4-20.39,1.67.7,3.42,1.44,5.01,2.12,3.26,1.4,5.87,2.54,5.87,2.54l-4.84-10.08-.4-.85s4.37-2.94,10.49-2.9c6.12-.03,10.48,2.9,10.48,2.9l-.4.85-4.84,10.08s2.61-1.15,5.88-2.55c1.59-.68,3.33-1.42,5.01-2.12,6.69,8.66.39,20.39.39,20.39,0,0-1.33-.56-3.06-1.32-3.04-1.31-7.32-3.21-7.88-3.67-.04-.07-.06-.1-.06-.07,0,.02.02.04.06.07.57,1,4.79,10.86,4.79,10.86l-3.15,1.73s.52,5.2.91,5.47c.15.1,3.39.98,7.6,2.11,6.65,1.78,16.85-2.43,19.9-1.53,4.98,1.47,1.97,5.2,1.97,5.2l-7.9,17.92-2.53,6.02-2.51,6.71-3.19,8.54h-42.91l-3.19-8.54-2.51-6.71-2.53-6.02Z"/>
  <path class="cls-1" d="M65.54,40.68l-4.52,9.74-.4.85s4.37,2.94,10.49,2.9c6.12.03,10.48-2.9,10.48-2.9l-.4-.85-4.57-9.81"/>
  <path class="cls-1" d="M62.98,58.74s7.46,5.45,16.25,0"/>
  <path class="cls-5" d="M50.45,99.46h-2.21s0,.03,0,.03c0,0-1,.19-1.78.78-.78.58-.55,2.27-.55,2.27,0,0-1.12.63-2.5,1.7-1.5,1.17-3.31,2.85-4.26,4.79-1.83,3.7,1.42,6.91,1.42,6.91,0,0-3.31,1.27-3.28,4.4.03,3.12,1.18,4.7,2.95,5.26h61.54c1.77-.55,2.93-2.12,2.95-5.25.02-3.13-3.29-4.4-3.29-4.4,0,0,3.25-3.21,1.42-6.91-.96-1.94-2.76-3.63-4.27-4.79-1.37-1.07-2.49-1.7-2.49-1.7,0,0,.22-1.69-.55-2.27-.78-.58-1.78-.78-1.78-.78,0,0,0-.01,0-.03h-2.21"/>
  <line class="cls-6" x1="101.36" y1="115.97" x2="40.49" y2="115.96"/>
  <path class="cls-7" d="M38.34,120.51c.03,3.03,1.54,4.55,3.85,5.1.02,0,.03,0,.05.01-.94-.88-1.49-2.23-1.51-4.18-.03-3.17,4.12-4.46,4.12-4.46,0,0-4.08-3.25-1.78-7,1.2-1.97,3.47-3.67,5.36-4.86,1.72-1.08,3.13-1.72,3.13-1.72,0,0-.28-1.71.7-2.3.97-.59,2.23-.79,2.23-.79,0,0,0,0,0-.03h-3.14s1.28.03,1.28.03c0,0-2.59.19-3.6.76-1.01.56-.72,2.2-.72,2.2,0,0-1.46.62-3.25,1.65-1.96,1.13-3.4,2.61-4.65,4.49-2.39,3.58,2.22,6.85,2.22,6.85,0,0-4.32,1.23-4.28,4.26Z"/>
  <path class="cls-8" d="M104.68,120.35c-.04,3.12-.2,4.71-3.21,5.27-.02,0-9.5,0-5.91,0,1.23-.91,4.53-2.35,4.55-4.36.04-3.27-4.46-5.27-4.46-5.27,0,0,7.44-3.09,4.46-6.96-1.57-2.03-1.36-2.22-3.82-3.44-2.25-1.11-4.93-2.89-4.93-2.89,0,0,.37-1.76-.91-2.37-1.27-.61-2.9-.82-2.9-.82,0,0-3.9,0-3.91-.03h8s-1.66.03-1.66.03c0,0,1.99-.22,3.31.37,1.32.58,1.53,1.94,1.53,1.94,0,0,.41,1.31,2.74,2.38,2.56,1.17,4.44,2.38,6.07,4.32,3.11,3.7-4.53,7.43-4.53,7.43,0,0,5.62,1.27,5.58,4.4Z"/>
  <line class="cls-2" x1="101.39" y1="115.97" x2="40.51" y2="115.96"/>
  <path class="cls-3" d="M50.4,99.46h-2.21s0,.03,0,.03c0,0-1,.19-1.78.78-.78.58-.55,2.27-.55,2.27,0,0-1.12.63-2.5,1.7-1.5,1.17-3.31,2.85-4.26,4.79-1.83,3.7,1.42,6.91,1.42,6.91,0,0-3.31,1.27-3.28,4.4.03,3.12,1.18,4.7,2.95,5.26h61.54c1.77-.55,2.93-2.12,2.95-5.25.02-3.13-3.29-4.4-3.29-4.4,0,0,3.25-3.21,1.42-6.91-.96-1.94-2.76-3.63-4.27-4.79-1.37-1.07-2.49-1.7-2.49-1.7,0,0,.22-1.69-.55-2.27-.78-.58-1.78-.78-1.78-.78,0,0,0-.01,0-.03h-43.3Z"/>
</svg>