<?xml version="1.0" encoding="UTF-8"?>
<svg id="Layer_2" data-name="Layer 2" xmlns="http://www.w3.org/2000/svg" viewBox="0 0 141.73 141.73">
  <defs>
    <style>
      .cls-1 {
        fill-rule: evenodd;
      }

      .cls-1, .cls-2, .cls-3, .cls-4, .cls-5 {
        stroke-width: 0px;
      }

      .cls-1, .cls-5 {
        fill: #000;
        isolation: isolate;
        opacity: .18;
      }

      .cls-6 {
        stroke-width: 2.99px;
      }

      .cls-6, .cls-7 {
        fill: none;
        stroke: #1e1e1e;
        stroke-linejoin: round;
      }

      .cls-2 {
        fill: #f0f0f0;
      }

      .cls-7 {
        stroke-width: 1.56px;
      }

      .cls-3 {
        fill: #5f5955;
      }

      .cls-4 {
        fill: #fff;
      }
    </style>
  </defs>
  <g>
    <path class="cls-2" d="M42.63,76.92c-3.82-11.88-10.21-25.7-17.22-36.24,0,0,2.8.07,7.47.01,0,0,1.01,5.63,3.95,5.82,2.98.2,3.43-4.11,3.43-4.11h6.12l1.97,1.24h.99s5.77-7.96,15.36-7.94c-2.88-1.91-4.78-5.19-4.78-8.91,0-5.9,4.78-10.68,10.68-10.68.1,0,.2,0,.31.01.1-.01.2-.01.31-.01,5.9,0,10.68,4.78,10.68,10.68,0,3.72-1.9,7-4.78,8.91,9.59-.02,14.58,6.35,14.58,6.35h.99l2.75.35h6.12s.44,4.31,3.43,4.11c2.94-.19,3.95-5.82,3.95-5.82,4.66.06,7.47-.01,7.47-.01-7.02,10.53-13.4,24.36-17.22,36.24l-2.96,11.38c-.71,3.85-.94,7.14-.55,9.55h-49.5c.38-2.41.16-5.7-.55-9.55l-2.96-11.38Z"/>
    <path class="cls-3" d="M64.69,35.71s6.07,3.58,12.41,0h-.03"/>
  </g>
  <path class="cls-4" d="M27.85,41.13s17.21,29.4,18.29,56.73c.05,1.16,2.41,1.53,2.8,0,4.32-17.07-17.35-56.73-17.35-56.73h-3.74Z"/>
  <circle class="cls-4" cx="67.06" cy="19.99" r="2.37"/>
  <path class="cls-1" d="M95.89,95.52c-2.07,2.16-2.32,2.01-5.39,2.1-9.64-.51-19.35,0-19.35,0l-13.46-1.02c33.68-1.66,31.47-4.49,38.27-9.65l-.07,8.57Z"/>
  <path class="cls-2" d="M48.94,97.85h-2.36s0,.04,0,.04c0,0-1.07.2-1.9.82-.83.61-.59,2.39-.59,2.39,0,0-1.2.66-2.67,1.79-1.61,1.23-3.54,3-4.56,5.04-1.96,3.89,1.51,7.27,1.51,7.27,0,0-3.53,1.34-3.51,4.63.03,3.29,1.27,4.95,3.16,5.53h65.81c1.89-.57,3.14-2.23,3.16-5.52.02-3.29-3.52-4.63-3.52-4.63,0,0,3.48-3.38,1.52-7.27-1.02-2.04-2.95-3.82-4.57-5.04-1.47-1.13-2.67-1.79-2.67-1.79,0,0,.24-1.78-.59-2.39-.83-.61-1.9-.82-1.9-.82,0,0,0-.01,0-.04h-2.36"/>
  <line class="cls-3" x1="103.39" y1="115.21" x2="38.29" y2="115.2"/>
  <path class="cls-4" d="M35.99,120c.03,3.18,1.65,4.79,4.12,5.36.02,0,.04,0,.06.01-1.01-.93-1.6-2.35-1.61-4.39-.03-3.34,4.41-4.69,4.41-4.69,0,0-4.36-3.42-1.91-7.37,1.29-2.07,3.71-3.86,5.73-5.11,1.84-1.13,3.35-1.81,3.35-1.81,0,0-.3-1.8.74-2.42,1.04-.62,2.38-.83,2.38-.83,0,0,0,0,0-.03h-3.36s1.37.03,1.37.03c0,0-2.77.2-3.85.8-1.08.59-.77,2.31-.77,2.31,0,0-1.57.65-3.48,1.73-2.1,1.19-3.64,2.75-4.97,4.72-2.55,3.77,2.38,7.21,2.38,7.21,0,0-4.62,1.3-4.58,4.49Z"/>
  <line class="cls-7" x1="103.42" y1="115.21" x2="38.31" y2="115.2"/>
  <path class="cls-6" d="M48.89,97.85h-2.36s0,.04,0,.04c0,0-1.07.2-1.9.82-.83.61-.59,2.39-.59,2.39,0,0-1.2.66-2.67,1.79-1.61,1.23-3.54,3-4.56,5.04-1.96,3.89,1.51,7.27,1.51,7.27,0,0-3.53,1.34-3.51,4.63.03,3.29,1.27,4.95,3.16,5.53h65.81c1.89-.57,3.14-2.23,3.16-5.52.02-3.29-3.52-4.63-3.52-4.63,0,0,3.48-3.38,1.52-7.27-1.02-2.04-2.95-3.82-4.57-5.04-1.47-1.13-2.67-1.79-2.67-1.79,0,0,.24-1.78-.59-2.39-.83-.61-1.9-.82-1.9-.82,0,0,0-.01,0-.04h-46.31Z"/>
  <path class="cls-1" d="M64.73,36.51c12.72-1.06,12.22.38,14.71-4.66l-.54,5.8c-.87,2.62-8.09,3.25-10.71,2.18-1.46-.59-3.46-3.32-3.46-3.32Z"/>
  <path class="cls-1" d="M87.79,48.69c-.19-4.62-.07-8.38-6.3-11.18l7.33.91c3.28,1.04,3.57,6.12,2.05,8.67-.84,1.41-3.07,1.6-3.07,1.6Z"/>
  <path class="cls-6" d="M66.33,43.8s-1.01,5.76,4.6,5.69c5.23-.06,4.38-5.7,4.38-5.7h3.87s6.12,0,6.12,0c0,0,.44,4.31,3.43,4.11,2.94-.19,3.95-5.82,3.95-5.82h2.7s6.12-.01,6.12-.01c0,0,.44,4.31,3.43,4.11,2.94-.19,3.95-5.82,3.95-5.82,4.66.06,7.47-.01,7.47-.01-7.02,10.53-13.4,24.36-17.22,36.24l-2.96,11.38c-.71,3.85-.94,7.14-.55,9.55h-49.5c.38-2.41.16-5.7-.55-9.55l-2.96-11.38c-3.82-11.88-10.21-25.7-17.22-36.24,0,0,2.8.07,7.47.01,0,0,1.01,5.63,3.95,5.82,2.98.2,3.43-4.11,3.43-4.11h8.72s1.01,5.63,3.95,5.82c2.98.2,3.43-4.11,3.43-4.11l8.17.03h1.87Z"/>
  <path class="cls-5" d="M106.17,119.97c-.04,3.34-.18,5.05-2.88,5.64-.02,0-8.53,0-5.31,0,1.1-.97,4.07-2.52,4.09-4.67.04-3.5-4-5.65-4-5.65,0,0,6.69-3.31,4-7.45-1.41-2.17-1.22-2.38-3.43-3.69-2.02-1.19-4.43-3.1-4.43-3.1,0,0,.33-1.89-.81-2.54-1.14-.65-2.61-.87-2.61-.87,0,0-3.51,0-3.51-.03h7.18s-1.49.03-1.49.03c0,0,1.79-.23,2.98.4,1.18.62,1.38,2.08,1.38,2.08,0,0,.37,1.41,2.46,2.55,2.3,1.25,3.99,2.55,5.45,4.63,2.79,3.96-4.07,7.96-4.07,7.96,0,0,5.05,1.36,5.01,4.71Z"/>
  <path class="cls-1" d="M67.08,35.2c12.51-4.89,12.17-4.2,12.94-10.89l1.47,7.03c.02,3.36-7.06,6.16-10.09,5.65-1.68-.28-4.32-1.8-4.32-1.8Z"/>
  <g>
    <path class="cls-6" d="M49.69,42.05s5.41-6.36,15-6.34c-2.88-1.91-4.78-5.19-4.78-8.91,0-5.9,4.78-10.68,10.68-10.68.1,0,.2,0,.31.01.1-.01.2-.01.31-.01,5.9,0,10.68,4.78,10.68,10.68,0,3.72-1.9,7-4.78,8.91,9.59-.02,15.57,6.35,15.57,6.35"/>
    <path class="cls-6" d="M64.69,35.71s6.07,3.58,12.41,0h-.03"/>
  </g>
</svg>