<svg xmlns="http://www.w3.org/2000/svg" id="Layer_2" data-name="Layer 2" viewBox="0 0 141.73 141.73"><defs><style>.cls-1{fill-rule:evenodd}.cls-1,.cls-2,.cls-3,.cls-4{stroke-width:0}.cls-1{fill:#000;isolation:isolate;opacity:.18}.cls-6{stroke-width:2.99px;fill:none;stroke:#1e1e1e;stroke-linejoin:round}.cls-2{fill:#f0f0f0}.cls-3{fill:#5f5955}.cls-4{fill:#fff}</style></defs><path d="M42.63 76.92c-3.82-11.88-10.21-25.7-17.22-36.24 0 0 2.8.07 7.47.01 0 0 1.01 5.63 3.95 5.82 2.98.2 3.43-4.11 3.43-4.11h6.12l1.97 1.24h.99s5.77-7.96 15.36-7.94a10.68 10.68 0 0 1-4.78-8.91 10.68 10.68 0 0 1 10.99-10.67l.31-.01a10.68 10.68 0 0 1 5.9 19.59c9.59-.02 14.58 6.35 14.58 6.35h.99l2.75.35h6.12s.44 4.31 3.43 4.11c2.94-.19 3.95-5.82 3.95-5.82 4.66.06 7.47-.01 7.47-.01-7.02 10.53-13.4 24.36-17.22 36.24L96.23 88.3c-.71 3.85-.94 7.14-.55 9.55h-49.5c.38-2.41.16-5.7-.55-9.55l-2.96-11.38Z" class="cls-2"/><path d="M64.69 35.71s6.07 3.58 12.41 0h-.03" class="cls-3"/><path d="M27.85 41.13s17.21 29.4 18.29 56.73c.05 1.16 2.41 1.53 2.8 0 4.32-17.07-17.35-56.73-17.35-56.73z" class="cls-4"/><circle cx="67.06" cy="19.99" r="2.37" class="cls-4"/><path d="M95.89 95.52c-2.07 2.16-2.32 2.01-5.39 2.1-9.64-.51-19.35 0-19.35 0L57.69 96.6c33.68-1.66 31.47-4.49 38.27-9.65z" class="cls-1"/><path d="M48.94 97.85h-2.36v.04s-1.07.2-1.9.82c-.83.61-.59 2.39-.59 2.39s-1.2.66-2.67 1.79c-1.61 1.23-3.54 3-4.56 5.04-1.96 3.89 1.51 7.27 1.51 7.27s-3.53 1.34-3.51 4.63c.03 3.29 1.27 4.95 3.16 5.53h65.81c1.89-.57 3.14-2.23 3.16-5.52s-3.52-4.63-3.52-4.63 3.48-3.38 1.52-7.27c-1.02-2.04-2.95-3.82-4.57-5.04-1.47-1.13-2.67-1.79-2.67-1.79s.24-1.78-.59-2.39-1.9-.82-1.9-.82v-.04H92.9" class="cls-2"/><path d="m103.39 115.21-65.1-.01" class="cls-3"/><path d="M35.99 120c.03 3.18 1.65 4.79 4.12 5.36l.06.01c-1.01-.93-1.6-2.35-1.61-4.39-.03-3.34 4.41-4.69 4.41-4.69s-4.36-3.42-1.91-7.37c1.29-2.07 3.71-3.86 5.73-5.11 1.84-1.13 3.35-1.81 3.35-1.81s-.3-1.8.74-2.42 2.38-.83 2.38-.83v-.03H49.9l1.37.03s-2.77.2-3.85.8c-1.08.59-.77 2.31-.77 2.31s-1.57.65-3.48 1.73a14.5 14.5 0 0 0-4.97 4.72c-2.55 3.77 2.38 7.21 2.38 7.21s-4.62 1.3-4.58 4.49Z" class="cls-4"/><path fill="none" stroke="#1e1e1e" stroke-linejoin="round" stroke-width="1.56" d="m103.42 115.21-65.11-.01"/><path d="M48.89 97.85h-2.36v.04s-1.07.2-1.9.82c-.83.61-.59 2.39-.59 2.39s-1.2.66-2.67 1.79c-1.61 1.23-3.54 3-4.56 5.04-1.96 3.89 1.51 7.27 1.51 7.27s-3.53 1.34-3.51 4.63c.03 3.29 1.27 4.95 3.16 5.53h65.81c1.89-.57 3.14-2.23 3.16-5.52s-3.52-4.63-3.52-4.63 3.48-3.38 1.52-7.27c-1.02-2.04-2.95-3.82-4.57-5.04-1.47-1.13-2.67-1.79-2.67-1.79s.24-1.78-.59-2.39-1.9-.82-1.9-.82v-.04H48.9Z" class="cls-6"/><path d="M64.73 36.51c12.72-1.06 12.22.38 14.71-4.66l-.54 5.8c-.87 2.62-8.09 3.25-10.71 2.18-1.46-.59-3.46-3.32-3.46-3.32m23.06 12.18c-.19-4.62-.07-8.38-6.3-11.18l7.33.91c3.28 1.04 3.57 6.12 2.05 8.67-.84 1.41-3.07 1.6-3.07 1.6Z" class="cls-1"/><path d="M66.33 43.8s-1.01 5.76 4.6 5.69c5.23-.06 4.38-5.7 4.38-5.7h9.99s.44 4.31 3.43 4.11c2.94-.19 3.95-5.82 3.95-5.82h2.7l6.12-.01s.44 4.31 3.43 4.11c2.94-.19 3.95-5.82 3.95-5.82 4.66.06 7.47-.01 7.47-.01-7.02 10.53-13.4 24.36-17.22 36.24l-2.96 11.38c-.71 3.85-.94 7.14-.55 9.55h-49.5c.38-2.41.16-5.7-.55-9.55l-2.96-11.38c-3.82-11.88-10.21-25.7-17.22-36.24 0 0 2.8.07 7.47.01 0 0 1.01 5.63 3.95 5.82 2.98.2 3.43-4.11 3.43-4.11h8.72s1.01 5.63 3.95 5.82c2.98.2 3.43-4.11 3.43-4.11l8.17.03h1.87Z" class="cls-6"/><path stroke-width="0" d="M106.17 119.97c-.04 3.34-.18 5.05-2.88 5.64h-5.31c1.1-.97 4.07-2.52 4.09-4.67.04-3.5-4-5.65-4-5.65s6.69-3.31 4-7.45c-1.41-2.17-1.22-2.38-3.43-3.69-2.02-1.19-4.43-3.1-4.43-3.1s.33-1.89-.81-2.54-2.61-.87-2.61-.87-3.51 0-3.51-.03h7.18l-1.49.03s1.79-.23 2.98.4c1.18.62 1.38 2.08 1.38 2.08s.37 1.41 2.46 2.55a14.7 14.7 0 0 1 5.45 4.63c2.79 3.96-4.07 7.96-4.07 7.96s5.05 1.36 5.01 4.71Z" opacity=".18" style="isolation:isolate"/><path d="M67.08 35.2c12.51-4.89 12.17-4.2 12.94-10.89l1.47 7.03c.02 3.36-7.06 6.16-10.09 5.65-1.68-.28-4.32-1.8-4.32-1.8Z" class="cls-1"/><path d="M49.69 42.05s5.41-6.36 15-6.34a10.68 10.68 0 0 1-4.78-8.91A10.68 10.68 0 0 1 70.9 16.13l.31-.01a10.68 10.68 0 0 1 5.9 19.59 22.76 22.76 0 0 1 15.57 6.35" class="cls-6"/><path d="M64.69 35.71s6.07 3.58 12.41 0h-.03" class="cls-6"/></svg>