<svg xmlns="http://www.w3.org/2000/svg" id="Layer_2" data-name="Layer 2" viewBox="0 0 141.73 141.73"><defs><style>.cls-1{fill-rule:evenodd}.cls-1,.cls-2,.cls-4{stroke-width:0}.cls-1{fill:#000;isolation:isolate;opacity:.18}.cls-7{stroke:#1e1e1e;stroke-linejoin:round;fill:none;stroke-width:3px}.cls-2{fill:#f0f0f0}.cls-4{fill:#fff}</style></defs><path d="m97.05 90.03-52.36-.01" style="stroke:#1e1e1e;stroke-linejoin:round;fill:none;stroke-width:2.92px"/><path d="M46.23 94.07h-2.65l-.01.04s-1.2.23-2.13.92-.66 2.69-.66 2.69-1.34.75-3 2.02c-1.81 1.38-3.97 3.38-5.12 5.68-2.2 4.38 1.7 8.19 1.7 8.19s-3.97 1.51-3.94 5.21 1.42 5.57 3.55 6.23h73.85c2.13-.65 3.52-2.52 3.55-6.22.03-3.71-3.95-5.21-3.95-5.21s3.9-3.8 1.7-8.19c-1.15-2.3-3.31-4.3-5.12-5.68-1.65-1.27-2.99-2.02-2.99-2.02s.26-2-.66-2.69c-.93-.69-2.13-.92-2.13-.92s0-.02-.01-.04h-2.65" class="cls-2"/><path d="m107.33 113.63-73.05-.01" style="stroke-width:0;fill:#5f5955"/><path d="M31.7 119.01c.04 3.59 1.85 5.4 4.62 6.04.02 0 .04 0 .06.01-1.13-1.05-1.79-2.64-1.81-4.95-.04-3.76 4.95-5.28 4.95-5.28s-4.89-3.85-2.14-8.3c1.44-2.33 4.16-4.35 6.43-5.76 2.07-1.28 3.76-2.04 3.76-2.04s-.34-2.03.83-2.73 2.67-.94 2.67-.94v-.04H47.3l1.53.04s-3.11.22-4.33.9c-1.21.67-.87 2.6-.87 2.6s-1.76.73-3.9 1.95c-2.36 1.34-4.08 3.09-5.58 5.32-2.86 4.25 2.67 8.12 2.67 8.12s-5.18 1.46-5.14 5.05Z" class="cls-4"/><path d="M109.79 119.52c-.04 3.98-.19 6.01-3.12 6.72h-5.75c1.19-1.16 4.41-3 4.42-5.56.04-4.17-4.34-6.72-4.34-6.72s7.24-3.94 4.34-8.87c-1.52-2.58-1.32-2.83-3.72-4.39-2.19-1.42-4.8-3.69-4.8-3.69s.36-2.25-.88-3.03c-1.23-.78-2.82-1.04-2.82-1.04s-3.8 0-3.81-.03h7.78l-1.62.03s1.94-.27 3.22.48c1.28.74 1.49 2.48 1.49 2.48s.4 1.67 2.67 3.03c2.49 1.49 4.32 3.04 5.9 5.51 3.02 4.71-4.4 9.48-4.4 9.48s5.47 1.62 5.43 5.61Z" style="stroke-width:0;fill:#000;isolation:isolate;opacity:.18"/><path d="m107.36 113.63-73.05-.01" style="stroke-width:1.52px;stroke:#1e1e1e;stroke-linejoin:round;fill:none"/><path d="M46.18 94.07h-2.65l-.01.04s-1.2.23-2.13.92-.66 2.69-.66 2.69-1.34.75-3 2.02c-1.81 1.38-3.97 3.38-5.12 5.68-2.2 4.38 1.7 8.19 1.7 8.19s-3.97 1.51-3.94 5.21 1.42 5.57 3.55 6.23h73.85c2.13-.65 3.52-2.52 3.55-6.22.03-3.71-3.95-5.21-3.95-5.21s3.9-3.8 1.7-8.19c-1.15-2.3-3.31-4.3-5.12-5.68-1.65-1.27-2.99-2.02-2.99-2.02s.26-2-.66-2.69c-.93-.69-2.13-.92-2.13-.92s0-.02-.01-.04H46.19Z" style="stroke:#1e1e1e;stroke-linejoin:round;fill:none;stroke-width:2.89px"/><path d="M69.89 64.88v.13c0-.13 0-.28.01-.43v-.17c-.01.06-.02.11-.02.17v.3Zm.1-.64c0 .06-.01.12-.01.17 0-.06.01-.12.02-.17h-.17.17Zm-.09.64v.13c0-.13 0-.28.01-.43h-.01z" style="stroke:#1e1e1e;stroke-linejoin:round;stroke-width:4.22px;fill:#5f5955"/><path d="M52.51 53.06v-2.78c4.82.36 14.77.35 44 .32l.02 4.68c-8.16 7.22-44.02-2.22-44.02-2.22" class="cls-1"/><path d="m44.45 95.38 52.16-1.26V51.43H44.45z" class="cls-2"/><path d="M50.96 52.51v42.87h-4.93l.75-43.99z" class="cls-4"/><path d="M47.05 52.95v-3.08c5.5.4 16.85.38 50.21.32v5.2c-9.3 8.02-50.21-2.43-50.21-2.43Z" class="cls-1"/><path d="m44.54 94.16 51.95.01.04-42.74H44.66z" class="cls-7"/><path d="M96.89 51.23c1.05 0 2.36-.27 3.5-.71.51-.21 1.03-.46 1.53-.79.16-.11.33-.22.48-.35.18-.15.36-.3.52-.46.13-.12.25-.25.36-.38a6.7 6.7 0 0 0 .72-1.06c.18-.33.33-.7.46-1.1 0-2.16-.08-24.1 0-24.01 0 0 0-.02-.02-.03-.13-.12-.89-.74-1.83-1.32-.93-.57-4.43-1.97-5.27-1.95v8.08h-8.86v-9.99c-3.49-1.3-8.77-1.66-13.38-1.42V26.9h-8.5V15.74c-4.61-.23-9.1.13-12.59 1.42v9.74h-9.12v-7.83c-.85-.02-4.86 1.38-5.8 1.95-.94.58-1.7 1.2-1.83 1.32-.01.02-.02.02-.02.03.08-.09 0 21.85 0 24.01.03.1.06.2.1.3.07.19.15.37.23.55.04.09.09.18.13.26.12.22.26.43.39.63.11.15.22.3.34.43.12.14.23.26.36.38.16.16.34.31.52.46 1.58 1.23 3.73 1.81 5.51 1.85h52.06Z" style="stroke:#1e1e1e;stroke-linejoin:round;fill:#f0f0f0;stroke-width:2.89px"/><path d="M39.36 20.64h4.09v29.77h-4.09z" class="cls-4"/><path d="m54.41 50.97-.05-1.41c5.48-.3 43.02 1.23 49.88-7l.23 5.15c-9.14 4.48-50.06 3.26-50.06 3.26" class="cls-1"/><path d="M96.89 51.05c1.05 0 2.36-.27 3.5-.71.51-.21 1.03-.46 1.53-.79.16-.11.33-.22.48-.35.18-.15.36-.3.52-.46.13-.12.25-.25.36-.38a6.7 6.7 0 0 0 .72-1.06c.18-.33.33-.7.46-1.1 0-2.16-.08-24.1 0-24.01 0 0 0-.02-.02-.03-.13-.12-.89-.74-1.83-1.32-.93-.57-4.43-1.97-5.27-1.95v8.08h-8.86v-9.99c-3.49-1.3-8.77-1.66-13.38-1.42v11.16h-8.5V15.56c-4.61-.23-9.1.13-12.59 1.42v9.99h-9.12v-8.08c-.85-.02-4.86 1.38-5.8 1.95-.94.58-1.7 1.2-1.83 1.32-.01.02-.02.02-.02.03.08-.09 0 21.85 0 24.01.03.1.06.2.1.3.07.19.15.37.23.55.04.09.09.18.13.26.12.22.26.43.39.63.11.15.22.3.34.43.12.14.23.26.36.38.16.16.34.31.52.46 1.58 1.23 3.73 1.81 5.51 1.85h52.06Z" class="cls-7"/></svg>