<svg xmlns="http://www.w3.org/2000/svg" width="300" height="300" viewBox="0 0 300 300"><path d="M208.843 997.63q0 1.025-.385 1.794-.384.77-1.666 1.28-1.28.514-3.588.77-2.307.257-6.152.257-3.332 0-5.51-.256-2.05-.256-3.332-.77-1.282-.64-2.05-1.665-.64-1.026-1.154-2.564l-15.25-39.087q-2.692-6.665-5.64-12.175-2.818-5.64-6.79-9.612-3.974-4.1-9.356-6.28-5.383-2.306-12.944-2.306h-14.738v70.613q0 1.025-.64 1.794-.513.77-1.794 1.28-1.154.386-3.332.642-2.05.385-5.255.385-3.204 0-5.382-.384-2.05-.256-3.332-.64-1.282-.513-1.794-1.282-.514-.77-.514-1.794V844.102q0-4.998 2.563-6.92 2.69-2.05 5.638-2.05h35.242q6.28 0 10.38.383 4.23.257 7.562.64 9.61 1.667 16.916 5.256 7.433 3.59 12.43 9.1 5 5.51 7.434 12.687 2.563 7.048 2.563 15.634 0 8.33-2.307 14.995-2.18 6.536-6.408 11.662-4.23 4.998-10.124 8.715-5.895 3.716-13.2 6.28 4.1 1.793 7.433 4.613 3.33 2.69 6.15 6.536 2.948 3.845 5.51 8.843 2.564 4.998 5.127 11.278l14.866 36.524q1.794 4.614 2.307 6.536.513 1.794.513 2.82zM175.65 881.138q0-9.74-4.356-16.404-4.358-6.792-14.61-9.74-3.204-.896-7.305-1.28-3.973-.385-10.51-.385H120.29v55.874h21.53q8.715 0 14.994-2.05 6.408-2.18 10.637-5.896 4.228-3.844 6.15-8.97 2.05-5.127 2.05-11.15z" style="line-height:125%;-inkscape-font-specification:'Calibri, Normal';text-align:start" font-family="Calibri" transform="matrix(1.01097 0 0 .98915 -4.27 -754.383)" font-weight="400" font-size="262.458" letter-spacing="0" word-spacing="0" stroke="#000" stroke-width="10" stroke-linejoin="bevel"/></svg>