<svg xmlns="http://www.w3.org/2000/svg" width="300" height="300" viewBox="0 0 300 300"><path d="M204.33 233.53q0 1.025-.512 1.922-.385.77-1.666 1.282-1.282.512-3.46.77-2.18.383-5.64.383-4.485 0-7.304-.384-2.82-.385-4.23-1.41-1.41-1.025-2.306-2.307L118.21 150.87v82.916q0 .897-.513 1.794-.512.77-1.794 1.282-1.28.384-3.46.64-2.05.385-5.254.385-3.077 0-5.256-.384-2.18-.257-3.46-.64-1.282-.514-1.794-1.283-.513-.897-.513-1.794V74.616q0-1.024.513-1.793.512-.77 1.794-1.154 1.28-.513 3.46-.77 2.18-.384 5.255-.384 3.202 0 5.253.384 2.18.257 3.46.77 1.282.384 1.794 1.153.513.77.513 1.794v73.69l58.695-73.69q.77-1.154 1.794-1.922 1.025-.77 2.434-1.154 1.538-.512 3.59-.768 2.177-.256 5.51-.256 3.33 0 5.382.384 2.05.257 3.204.77 1.28.512 1.666 1.28.512.77.512 1.667 0 1.666-.897 3.332-.768 1.665-3.074 4.612l-54.98 65.744 59.21 78.688q2.177 3.332 2.562 4.613.512 1.154.512 1.923z" style="line-height:125%;-inkscape-font-specification:'Calibri, Normal';text-align:start" font-weight="400" font-size="262.462" font-family="Calibri" letter-spacing="0" word-spacing="0" fill="#c8c8c8" stroke="#000" stroke-width="5" stroke-linejoin="round"/></svg>