<svg height="300" viewBox="0 0 300 300" width="300" xmlns="http://www.w3.org/2000/svg"><path d="M214.231 227.858q0 2.563-.897 4.358-.77 1.794-2.179 2.947-1.281 1.154-2.947 1.666-1.666.513-3.332.513h-7.049q-3.332 0-5.895-.64-2.435-.77-4.742-2.564-2.178-1.922-4.485-5.126-2.179-3.204-4.87-8.202l-52.288-94.323q-4.1-7.305-8.33-15.25-4.1-8.074-7.69-15.635h-.255q.256 9.227.384 18.839.128 9.611.128 19.095v100.09q0 .896-.512 1.794-.513.768-1.795 1.281-1.153.385-3.203.64-1.923.385-4.999.385-3.075 0-5.126-.384-1.922-.256-3.076-.64-1.153-.514-1.666-1.282-.512-.898-.512-1.795V80.608q0-5.127 2.82-7.305 2.819-2.179 6.15-2.179h10.51q3.716 0 6.151.641 2.563.64 4.485 2.179 2.05 1.41 3.845 4.1 1.922 2.564 4.101 6.537l40.24 72.792q3.717 6.664 7.178 13.072 3.46 6.28 6.664 12.43 3.204 6.152 6.28 12.176 3.203 5.895 6.279 11.918h.128q-.256-10.124-.384-21.017V74.84q0-.897.512-1.666.513-.77 1.666-1.282 1.282-.64 3.204-.897 2.05-.256 5.255-.256 2.819 0 4.87.256 2.05.256 3.203.897 1.154.513 1.666 1.282.513.769.513 1.666z" fill="#c8c8c8" stroke="#000" stroke-linejoin="round" stroke-width="5"/></svg>