<svg height="300" viewBox="0 0 300 300" width="300" xmlns="http://www.w3.org/2000/svg"><path d="m245.091 248.51q0 2.948-.384 4.87-.257 2.05-.897 3.076-.641 1.153-1.41 1.538-.77.384-1.538.384-2.563 0-8.33-2.178-5.639-2.05-13.072-6.152-7.433-3.973-15.891-9.74-8.459-5.767-16.404-13.456-6.28 3.845-15.891 6.664-9.612 2.82-22.3 2.82-18.71 0-32.423-5.511-13.584-5.51-22.555-16.148-8.843-10.637-13.2-26.4-4.358-15.891-4.358-36.396 0-19.736 4.742-35.627 4.742-16.02 14.225-27.169 9.484-11.278 23.71-17.301 14.225-6.152 33.192-6.152 17.813 0 31.27 5.511 13.584 5.51 22.683 16.148 9.227 10.509 13.84 26.015 4.614 15.507 4.614 35.628 0 10.38-1.281 19.864-1.154 9.483-3.845 17.941-2.563 8.459-6.536 15.635-3.973 7.177-9.355 12.944 9.355 7.69 16.404 12.047 7.048 4.229 11.662 6.408 4.614 2.178 7.177 3.075 2.563 1.026 3.844 2.179 1.282 1.281 1.795 3.46.512 2.307.512 6.023zm-43.573-98.039q0-14.097-2.563-26.143-2.435-12.047-8.33-20.89-5.767-8.97-15.507-13.969-9.74-4.998-24.093-4.998t-24.093 5.383q-9.74 5.254-15.892 14.353-6.023 8.971-8.714 20.89-2.563 11.918-2.563 25.246 0 14.61 2.435 26.913 2.435 12.175 8.202 21.146 5.767 8.97 15.378 13.969 9.74 4.87 24.35 4.87 14.481 0 24.35-5.383 9.867-5.383 15.89-14.482 6.024-9.227 8.587-21.273 2.563-12.175 2.563-25.632z" fill="#c8c8c8" stroke="#000" stroke-linejoin="round" stroke-width="5"/></svg>