<svg height="300" viewBox="0 0 300 300" width="300" xmlns="http://www.w3.org/2000/svg"><path d="M208.843 997.63q0 1.025-.385 1.794-.384.769-1.666 1.281-1.281.513-3.588.77-2.307.256-6.152.256-3.332 0-5.51-.257-2.05-.256-3.332-.769-1.282-.64-2.05-1.666-.641-1.025-1.154-2.563l-15.25-39.087q-2.692-6.664-5.639-12.174-2.82-5.639-6.792-9.612-3.973-4.1-9.355-6.28-5.383-2.306-12.944-2.306h-14.738v70.613q0 1.025-.64 1.794-.513.769-1.794 1.281-1.154.385-3.332.641-2.05.385-5.255.385-3.204 0-5.382-.385-2.05-.256-3.332-.64-1.282-.513-1.794-1.282-.513-.77-.513-1.794V844.102q0-4.998 2.563-6.92 2.691-2.051 5.639-2.051h35.242q6.28 0 10.38.384 4.23.257 7.562.641 9.611 1.666 16.916 5.255 7.433 3.588 12.43 9.098 4.999 5.511 7.434 12.688 2.563 7.048 2.563 15.634 0 8.33-2.307 14.994-2.179 6.536-6.408 11.662-4.229 4.998-10.124 8.715-5.895 3.716-13.2 6.28 4.101 1.793 7.433 4.613 3.332 2.691 6.152 6.536 2.947 3.844 5.51 8.842 2.563 4.998 5.126 11.278l14.866 36.523q1.794 4.614 2.307 6.536.513 1.794.513 2.82zM175.65 881.138q0-9.74-4.357-16.404-4.358-6.792-14.61-9.74-3.204-.896-7.305-1.28-3.972-.385-10.508-.385h-18.583v55.875h21.53q8.715 0 14.994-2.05 6.408-2.18 10.637-5.896 4.229-3.844 6.151-8.97 2.05-5.127 2.05-11.15z" fill="#c8c8c8" stroke="#000" stroke-linejoin="round" stroke-width="5" transform="matrix(1.01097 0 0 .98915 -4.269 -754.383)"/></svg>