<?xml version="1.0" encoding="UTF-8" standalone="no"?>
<!-- Created with Inkscape (http://www.inkscape.org/) -->

<svg
   width="135.60197mm"
   height="135.4687mm"
   viewBox="0 0 135.60197 135.4687"
   version="1.1"
   id="svg1"
   xml:space="preserve"
   xmlns:inkscape="http://www.inkscape.org/namespaces/inkscape"
   xmlns:sodipodi="http://sodipodi.sourceforge.net/DTD/sodipodi-0.dtd"
   xmlns="http://www.w3.org/2000/svg"
   xmlns:svg="http://www.w3.org/2000/svg"><sodipodi:namedview
     id="namedview1"
     pagecolor="#ffffff"
     bordercolor="#666666"
     borderopacity="1.0"
     inkscape:showpageshadow="2"
     inkscape:pageopacity="0.0"
     inkscape:pagecheckerboard="0"
     inkscape:deskcolor="#d1d1d1"
     inkscape:document-units="mm" /><defs
     id="defs1" /><g
     inkscape:label="Слой 1"
     inkscape:groupmode="layer"
     id="layer1"
     transform="translate(-37.199014,-71.109754)"><ellipse
       style="opacity:0.948097;fill:#ffffff;fill-rule:evenodd;stroke:#000000;stroke-width:0.048032;paint-order:markers stroke fill"
       id="path19"
       cx="105"
       cy="138.8441"
       rx="67.77697"
       ry="67.498177"
       inkscape:export-filename="an.svg"
       inkscape:export-xdpi="46.828232"
       inkscape:export-ydpi="46.828232" /><g
       id="g1"
       transform="matrix(0.5,0,0,0.5,58.404274,74.331901)"><path
         style="fill:#d8d8d8;fill-opacity:1"
         d="m 85.133956,264.3349 c -0.582084,-0.0555 -2.533896,-0.22905 -4.337362,-0.38559 -11.569893,-1.00429 -25.660277,-4.27953 -36.276178,-8.43221 l -1.984375,-0.77624 -0.06706,-37.32584 -0.06706,-37.32585 H 4.983529 -32.434867 l -0.847134,-2.18281 c -2.336895,-6.02149 -4.895342,-14.89525 -6.31935,-21.91815 -1.699312,-8.38063 -2.393188,-14.80714 -2.582763,-23.92091 -0.26566,-12.77153 0.924102,-23.63655 3.925829,-35.851042 0.962353,-3.915965 4.290015,-14.446949 5.371626,-16.999478 l 0.42043,-0.992187 H 4.9687605 42.403749 V 40.789604 3.3546147 l 0.992188,-0.4160728 c 2.240419,-0.9395176 10.424719,-3.62755699 14.047404,-4.613709 7.176939,-1.9536757 15.344722,-3.4556255 23.32499,-4.2891643 4.400762,-0.4596594 20.734839,-0.4627623 25.003119,-0.00475 12.7371,1.3667682 23.33169,3.7732073 34.52218,7.8413179 l 3.84241,1.3968389 0.067,37.4768466 0.0671,37.476846 37.33187,0.06706 37.33188,0.06706 0.50887,1.322917 c 4.33636,11.273433 7.20742,23.220895 8.61526,35.851035 0.58033,5.20628 0.66054,20.9049 0.13249,25.92917 -1.35033,12.84789 -4.37457,25.81369 -8.50103,36.44635 l -0.84713,2.18281 h -37.2861 -37.28611 l -0.0671,37.33607 -0.067,37.33607 -3.14894,1.17079 c -7.16268,2.66313 -16.75771,5.2629 -24.23811,6.56731 -7.94787,1.38592 -12.48648,1.7721 -21.825452,1.85704 -4.802187,0.0437 -9.207499,0.034 -9.789582,-0.0215 z M 62.716925,167.06085 c 3.134961,-2.25225 5.224584,-3.5886 5.423959,-3.46871 0.178377,0.10727 2.50689,1.78956 5.174473,3.73842 2.667583,1.94886 4.898176,3.49535 4.956872,3.43666 0.0587,-0.0587 -0.767849,-2.86594 -1.836767,-6.23832 l -1.943489,-6.13159 5.271556,-3.7723 5.271557,-3.7723 -6.562269,-0.13229 -6.562269,-0.13229 -0.845006,-2.64583 c -0.464754,-1.45521 -1.367538,-4.31271 -2.006187,-6.35 l -1.16118,-3.70417 -2.119538,6.35 -2.119537,6.35 -6.573758,0.13229 -6.573758,0.13229 5.200288,3.70417 c 2.860158,2.03729 5.200434,3.82323 5.200613,3.96875 1.78e-4,0.14552 -0.874189,3.03004 -1.943039,6.41005 -1.06885,3.38001 -1.810341,6.06525 -1.647759,5.96719 0.162582,-0.0981 2.590439,-1.82696 5.395238,-3.84202 z m 64.715295,-2.11907 c -1.06915,-3.38336 -1.94262,-6.27063 -1.94103,-6.41615 0.002,-0.14552 2.34871,-1.93146 5.21584,-3.96875 l 5.21296,-3.70417 -6.5858,-0.13229 -6.5858,-0.13229 -2.11642,-6.35 c -1.16403,-3.4925 -2.15601,-6.23094 -2.2044,-6.08542 -0.0484,0.14553 -0.95415,3.00303 -2.0128,6.35 l -1.92482,6.08542 -6.54897,0.13229 -6.54897,0.13229 5.26167,3.77259 5.26166,3.77258 -1.9434,6.13131 c -1.06887,3.37222 -1.89295,6.18175 -1.83129,6.24341 0.0617,0.0616 2.29224,-1.4838 4.95687,-3.43436 2.66462,-1.95055 4.99171,-3.63587 5.17131,-3.74516 0.20381,-0.12403 2.3389,1.2481 5.68076,3.65077 2.94482,2.11722 5.37049,3.84949 5.39038,3.84949 0.0199,0 -0.83859,-2.76821 -1.90775,-6.15156 z M 28.597811,133.21423 c 2.718318,-2.06133 5.06193,-3.74804 5.208025,-3.74827 0.146096,-2.2e-4 2.562469,1.70081 5.369718,3.78006 2.807249,2.07925 5.154308,3.73024 5.215686,3.66886 0.06138,-0.0614 -0.717885,-2.7658 -1.731696,-6.00983 -1.013812,-3.24402 -1.839917,-6.03603 -1.835789,-6.20445 0.0041,-0.16842 2.344736,-1.97309 5.201353,-4.01038 l 5.193847,-3.70417 -6.568611,-0.13229 -6.568612,-0.13229 -2.116422,-6.35 c -1.164032,-3.4925 -2.178295,-6.17141 -2.253918,-5.95313 -0.07562,0.21828 -0.985773,3.07578 -2.022556,6.35 l -1.885061,5.95313 -6.58503,0.13229 -6.585031,0.13229 5.202524,3.70417 c 2.861389,2.03729 5.206834,3.84292 5.212102,4.01251 0.0053,0.16959 -0.823861,2.93947 -1.842506,6.1553 -1.018646,3.21583 -1.852084,5.90481 -1.852084,5.97551 0,0.31714 0.589522,-0.0897 5.244061,-3.61931 z m 118.677589,-4e-4 c 2.78335,-2.06155 5.18016,-3.74809 5.32626,-3.74787 0.14609,2.3e-4 2.50574,1.6991 5.24365,3.77528 2.73791,2.07618 5.03168,3.72121 5.09726,3.65563 0.0656,-0.0656 -0.71601,-2.77733 -1.73688,-6.02611 -1.02086,-3.24878 -1.8536,-6.03502 -1.85053,-6.19163 0.003,-0.15661 2.35141,-1.95162 5.21854,-3.98891 l 5.21296,-3.70417 -6.59793,-0.13229 -6.59792,-0.13229 -1.87829,-5.95313 c -1.03306,-3.27422 -1.9403,-6.13172 -2.0161,-6.35 -0.0758,-0.21828 -1.0902,2.46063 -2.25424,5.95313 l -2.11642,6.35 -6.56861,0.13229 -6.56861,0.13229 5.19385,3.70417 c 2.85661,2.03729 5.19722,3.84731 5.20135,4.02226 0.004,0.17496 -0.7702,2.79433 -1.72072,5.82084 -0.95053,3.0265 -1.79199,5.71109 -1.86991,5.96575 -0.0779,0.25466 -0.0599,0.46302 0.04,0.46302 0.0999,0 2.45896,-1.68672 5.2423,-3.74826 z M 87.944875,116.23209 c 2.710172,-1.98642 5.020598,-3.61167 5.134279,-3.61167 0.171536,0 7.163416,4.90493 10.078006,7.06991 l 0.8253,0.61303 -1.94978,-6.15141 c -1.07237,-3.38328 -1.94977,-6.28243 -1.94977,-6.44255 0,-0.16011 2.39068,-2.0079 5.31261,-4.10619 l 5.31261,-3.815077 -6.70716,-0.07049 -6.70717,-0.07049 -2.113742,-6.359171 -2.113742,-6.359171 -1.979186,6.359177 -1.979187,6.359176 -6.706927,0.07048 -6.706928,0.07048 5.315246,3.806646 c 2.923386,2.09366 5.314033,3.93913 5.312549,4.10105 -0.0015,0.16191 -0.877663,3.06323 -1.947066,6.44738 -1.069402,3.38415 -1.812329,6.05119 -1.650948,5.92677 0.161381,-0.12442 2.510834,-1.85148 5.221006,-3.83789 z"
         id="path18" /><path
         style="fill:#d1d1d1;fill-opacity:1"
         d="m 85.001664,264.3276 c -16.053961,-1.39352 -28.101633,-4.0477 -41.142706,-9.06399 l -1.322917,-0.50886 -0.06706,-37.33279 -0.06706,-37.33279 H 4.9874582 -32.427009 l -0.836833,-2.18281 c -7.823344,-20.40657 -10.679926,-43.46944 -8.053584,-65.02135 1.3336,-10.9436 4.246872,-22.718799 8.0352,-32.477605 l 0.847359,-2.182812 H 4.9835322 42.401931 l 0.06706,-37.46452 0.06705,-37.4645203 2.38125,-0.9013444 c 12.056636,-4.5636464 24.667147,-7.3761685 37.967706,-8.467937 6.361308,-0.5221642 18.191603,-0.385257 24.341663,0.2816963 11.2693,1.2221156 23.45059,4.0758462 33.76044,7.9091104 l 3.14894,1.170795 0.067,37.46836 0.0671,37.46836 h 37.28574 37.28574 l 1.04727,2.711979 c 4.54321,11.764987 7.62152,26.090228 8.53694,39.727538 0.38581,5.74745 0.18621,16.68586 -0.40361,22.11881 -1.36134,12.5396 -4.6287,25.89646 -9.01259,36.84323 -0.17537,0.4379 -2.20756,0.46302 -37.46246,0.46302 h -37.27703 l -0.0671,37.33223 -0.067,37.33223 -2.38125,0.90364 c -10.48951,3.98058 -22.62796,6.85962 -34.52813,8.1895 -3.63143,0.40583 -19.207042,0.7428 -22.224996,0.48083 z m -21.86942,-97.53461 4.721204,-3.41009 0.967338,0.6789 c 0.532035,0.3734 2.872337,2.0893 5.20067,3.81311 2.328333,1.72381 4.264023,3.06108 4.301534,2.97171 0.03751,-0.0894 -0.766162,-2.81603 -1.785938,-6.05925 -1.019776,-3.24323 -1.85077,-6.03842 -1.846655,-6.21155 0.0041,-0.17312 2.336803,-1.98165 5.183751,-4.01894 2.846948,-2.03729 5.230898,-3.79191 5.297667,-3.89915 0.06677,-0.10725 -2.117091,-0.1814 -4.853022,-0.16479 -2.735931,0.0166 -5.755747,0.0151 -6.710703,-0.003 l -1.736282,-0.0336 -1.956442,-6.21592 c -1.076043,-3.41876 -2.035118,-6.12743 -2.131279,-6.01927 -0.09616,0.10816 -1.036296,2.81602 -2.08919,6.01748 -1.052893,3.20146 -2.013566,5.92635 -2.134827,6.05531 -0.121261,0.12896 -3.145813,0.22847 -6.721226,0.22115 -3.575413,-0.007 -6.444286,0.078 -6.375274,0.1897 0.06901,0.11166 2.421207,1.84741 5.227099,3.85721 2.805892,2.0098 5.150463,3.69339 5.210158,3.74131 0.120627,0.0968 0.162832,-0.0461 -2.199123,7.44592 -1.668019,5.29087 -1.682821,5.36417 -0.991975,4.91268 0.385721,-0.25208 2.825853,-1.99287 5.422515,-3.86842 z m 55.129366,-3.19291 c 0.19546,-0.12045 2.29934,1.22437 5.42396,3.46705 2.80755,2.01512 5.24283,3.74583 5.41173,3.84604 0.1689,0.1002 -0.0981,-1.09819 -0.59339,-2.66309 -2.66218,-8.4118 -3.10008,-9.86416 -2.99913,-9.94704 0.0607,-0.0499 2.3979,-1.72095 5.19372,-3.71353 2.79581,-1.99259 5.14613,-3.72456 5.22294,-3.84884 0.0768,-0.12428 -2.8309,-0.20944 -6.46157,-0.18925 l -6.60123,0.0367 -0.64247,-1.85208 c -0.35336,-1.01865 -1.27107,-3.75709 -2.03935,-6.08542 -0.76829,-2.32833 -1.47567,-4.32606 -1.57197,-4.43939 -0.0963,-0.11333 -1.05075,2.59534 -2.12099,6.01927 -1.70061,5.4406 -2.01482,6.22839 -2.49269,6.24961 -0.30074,0.0134 -3.31104,0.0311 -6.68956,0.0395 -3.37852,0.008 -6.09596,0.0909 -6.03876,0.18351 0.0572,0.0926 2.43449,1.8281 5.28287,3.85678 2.84837,2.02867 5.17886,3.83298 5.17886,4.00959 0,0.1766 -0.83344,2.9717 -1.85208,6.21133 -1.01865,3.23963 -1.85209,5.98221 -1.85209,6.09463 0,0.11241 2.23242,-1.43428 4.96094,-3.4371 2.72852,-2.00282 5.10463,-3.73004 5.28026,-3.83828 z m -89.706695,-30.32729 5.228055,-3.95389 1.201536,0.86431 c 0.660844,0.47537 3.07677,2.25502 5.368723,3.95479 2.291953,1.69977 4.167187,2.98327 4.167187,2.85222 0,-0.13105 -0.833437,-2.89058 -1.852083,-6.1323 -1.018646,-3.24172 -1.845864,-6.02218 -1.838263,-6.17879 0.0076,-0.15661 2.358273,-1.95162 5.223716,-3.98891 l 5.209895,-3.70417 -6.590939,-0.13229 -6.590938,-0.13229 -2.138506,-6.40512 -2.138506,-6.40512 -2.008665,6.40512 -2.008665,6.40512 -6.588488,0.13229 -6.588489,0.13229 5.209896,3.70417 c 2.865443,2.03729 5.216115,3.82555 5.223716,3.9739 0.0076,0.14836 -0.862863,3.03563 -1.934364,6.41615 -1.071501,3.38052 -1.910988,6.1464 -1.865528,6.1464 0.04546,0 2.43528,-1.77925 5.31071,-3.95388 z m 124.307825,-3.74248 c 6.60506,4.99897 9.98391,7.46249 10.08988,7.35652 0.0734,-0.0734 -0.7153,-2.82331 -1.75262,-6.11095 -1.03733,-3.28763 -1.81158,-6.098 -1.72056,-6.24527 0.091,-0.14727 2.49542,-1.93273 5.34312,-3.96769 l 5.17764,-3.69993 -6.6882,-0.0708 -6.6882,-0.0708 -1.89146,-5.95313 c -1.04031,-3.27422 -1.95497,-6.13172 -2.0326,-6.35 -0.0776,-0.21828 -1.09352,2.46063 -2.25756,5.95313 l -2.11642,6.35 -6.58195,0.13229 -6.58195,0.13229 5.20099,3.70417 c 2.86054,2.03729 5.20715,3.83625 5.21469,3.99768 0.008,0.16144 -0.81973,2.92124 -1.83838,6.1329 -1.01864,3.21166 -1.85208,5.96421 -1.85208,6.11677 0,0.15255 2.40897,-1.4975 5.35326,-3.66678 3.02921,-2.23185 5.47011,-3.85573 5.6224,-3.74048 z M 87.951025,116.2409 c 2.713555,-1.99126 5.014082,-3.62048 5.112281,-3.62048 0.136529,0 9.038464,6.2474 10.626484,7.4577 0.16478,0.12558 -0.57671,-2.54282 -1.64776,-5.92979 -1.07104,-3.38696 -1.94999,-6.28467 -1.95323,-6.43934 -0.003,-0.15468 2.39424,-2.00015 5.32774,-4.10104 l 5.33362,-3.819817 -6.72818,-0.07049 -6.72818,-0.07049 -2.117252,-6.369733 -2.117253,-6.369733 -1.978295,6.366449 -1.978295,6.366449 -6.722685,0.07377 -6.722685,0.07377 5.333623,3.819815 c 2.933492,2.10089 5.330974,3.94636 5.327736,4.10104 -0.0032,0.15467 -0.882193,3.05238 -1.953235,6.43934 -1.071042,3.38697 -1.812534,6.05798 -1.64776,5.93558 0.164775,-0.12239 2.519771,-1.85175 5.233326,-3.84301 z"
         id="path17" /><path
         style="fill:#cacaca;fill-opacity:1"
         d="m 83.546456,264.21709 c -13.080512,-1.05035 -27.223758,-4.18134 -38.430728,-8.50768 l -2.711979,-1.04694 V 217.37582 180.08917 H 4.9883704 -32.427009 l -0.786118,-2.05864 c -2.652303,-6.94567 -5.449011,-16.92707 -6.799532,-24.2674 -2.732447,-14.85135 -2.960354,-30.52825 -0.659666,-45.37604 1.442916,-9.312044 4.199872,-19.748684 7.39115,-27.979685 l 0.846308,-2.182812 H 4.9835322 42.401931 l 0.06706,-37.477759 0.06705,-37.4777582 3.842403,-1.3968389 c 11.160939,-4.0573658 21.983599,-6.5041128 34.65447,-7.8345549 4.419604,-0.4640587 20.188836,-0.4639075 24.606246,2.359e-4 12.76006,1.3407172 25.24405,4.2284187 36.11563,8.353992 l 2.38125,0.9036428 0.067,37.4645203 0.0671,37.46452 h 37.2861 37.28611 l 0.84631,2.182812 c 3.19128,8.231001 5.94823,18.667641 7.39115,27.979685 1.49841,9.67022 1.97081,21.61388 1.21914,30.82396 -1.1019,13.50141 -3.95969,26.33509 -8.55771,38.43072 l -0.93035,2.4474 h -37.27037 -37.27038 l -0.0671,37.33795 -0.067,37.33796 -2.77813,1.02912 c -11.1314,4.12348 -22.67773,6.7978 -35.32187,8.18111 -3.4496,0.3774 -18.751953,0.54191 -22.489584,0.24178 z M 63.140121,166.80243 c 4.447311,-3.1974 4.762602,-3.37709 5.291667,-3.01584 0.309422,0.21128 2.646179,1.92607 5.192793,3.81064 2.546615,1.88456 4.662807,3.34435 4.70265,3.24397 0.03984,-0.10038 -0.763829,-2.84384 -1.785938,-6.09658 -1.022108,-3.25274 -1.856089,-6.04221 -1.853291,-6.19882 0.0028,-0.15662 2.272934,-1.8921 5.044746,-3.85663 2.771813,-1.96453 5.165353,-3.7207 5.318977,-3.9026 0.222313,-0.26324 -1.092705,-0.33073 -6.443687,-0.33073 H 71.885035 L 69.93612,144.2346 c -1.071902,-3.42169 -2.019957,-6.15185 -2.106789,-6.06703 -0.08683,0.0848 -1.06068,2.85462 -2.164109,6.1551 l -2.006235,6.00088 -6.797652,0.13229 -6.797652,0.13229 5.28781,3.77884 c 2.908296,2.07836 5.352242,3.88308 5.430992,4.0105 0.112602,0.1822 -2.12227,7.71474 -3.565096,12.01601 l -0.253377,0.75536 0.723514,-0.47321 c 0.397933,-0.26027 2.851601,-2.00321 5.452595,-3.8732 z m 50.833419,-0.0679 c 1.60073,-1.17699 3.28278,-2.40189 3.73789,-2.72199 l 0.82747,-0.58202 4.80404,3.43439 c 6.0635,4.33477 6.1528,4.39339 5.98778,3.93104 -0.0715,-0.20026 -0.96895,-3.02782 -1.99441,-6.28347 -1.28225,-4.07094 -1.78257,-6.01802 -1.60222,-6.23532 0.14423,-0.17379 2.59177,-1.97492 5.43898,-4.00252 l 5.17675,-3.68655 -6.8007,-0.13229 -6.8007,-0.13229 -2.11041,-6.33195 -2.11042,-6.33194 -2.00172,6.39809 -2.00172,6.39809 -6.7576,0.01 -6.7576,0.01 0.79375,0.65162 c 0.43657,0.35839 2.845,2.11028 5.35208,3.89309 2.50708,1.7828 4.56091,3.37355 4.56406,3.53499 0.003,0.16143 -0.8277,2.92124 -1.84634,6.1329 -1.01865,3.21166 -1.85209,5.9706 -1.85209,6.13097 0,0.16037 0.68461,-0.2114 1.52136,-0.82615 0.83674,-0.61476 2.83104,-2.08074 4.43177,-3.25772 z M 28.335546,133.48104 c 2.717044,-2.0601 5.061431,-3.83781 5.20975,-3.95047 0.153435,-0.11655 2.576017,1.49792 5.620469,3.74563 2.942939,2.17276 5.39491,3.95047 5.448825,3.95047 0.05392,0 -0.779676,-2.7682 -1.852423,-6.15156 -1.072748,-3.38336 -1.900121,-6.28349 -1.838607,-6.44474 0.06151,-0.16124 2.447116,-1.96786 5.301338,-4.0147 2.854223,-2.04684 5.087024,-3.78486 4.961781,-3.86226 -0.125243,-0.0774 -3.112408,-0.13345 -6.638145,-0.12455 -3.525736,0.009 -6.44639,-0.0261 -6.490342,-0.0779 -0.04395,-0.0518 -1.021835,-2.93048 -2.173072,-6.39719 l -2.093159,-6.3031 -1.977959,6.36674 -1.97796,6.36673 -2.248958,0.0263 c -1.236927,0.0145 -4.243255,0.0177 -6.680729,0.007 -2.437474,-0.0105 -4.425805,0.0681 -4.418513,0.17467 0.0073,0.10658 2.276928,1.80112 5.043636,3.76565 2.766707,1.96453 5.1486,3.7111 5.293094,3.88127 0.180137,0.21214 -0.355123,2.27048 -1.702885,6.54843 -1.081081,3.43148 -1.91174,6.23905 -1.84591,6.23905 0.06583,0 2.342726,-1.68553 5.059769,-3.74563 z m 121.870664,-2.38023 c 1.31807,-0.96814 2.51555,-1.6698 2.66108,-1.55925 6.41384,4.87252 10.16873,7.68511 10.25983,7.68511 0.0636,0 -0.75964,-2.7682 -1.82947,-6.15156 -1.06983,-3.38336 -1.89632,-6.28397 -1.83663,-6.44581 0.0597,-0.16183 2.43407,-1.94777 5.27639,-3.96875 2.84232,-2.02097 5.17408,-3.75445 5.18168,-3.85216 0.008,-0.0977 -2.96693,-0.17135 -6.61007,-0.16364 -3.64313,0.008 -6.65757,-0.0314 -6.69874,-0.0869 -0.0412,-0.0555 -0.95924,-2.93011 -2.04016,-6.38798 l -1.96529,-6.28704 -2.08781,6.28704 c -1.14829,3.45787 -2.12309,6.3287 -2.16621,6.37963 -0.0431,0.0509 -3.06292,0.0938 -6.71066,0.0954 -3.64773,0.002 -6.62629,0.079 -6.61901,0.172 0.007,0.0931 2.27853,1.77653 5.04723,3.74106 2.7687,1.96453 5.15187,3.71264 5.29595,3.88468 0.17961,0.21446 -0.32576,2.18372 -1.60764,6.26447 -1.02828,3.27343 -1.8696,6.07896 -1.8696,6.23452 0,0.15557 1.33259,-0.69892 2.96132,-1.89885 1.62872,-1.19993 4.03974,-2.9738 5.35781,-3.94193 z M 87.976704,116.27228 c 2.727678,-2.00852 5.021854,-3.65186 5.098169,-3.65186 0.07632,0 2.428485,1.64271 5.227043,3.65047 2.798554,2.00776 5.222864,3.73238 5.387344,3.8325 0.16448,0.10012 -0.4605,-2.2272 -1.38885,-5.17182 -0.92835,-2.94462 -1.82705,-5.80416 -1.99713,-6.35453 -0.18632,-0.60296 -0.21269,-1.08575 -0.0663,-1.2147 0.13357,-0.11772 2.5576,-1.87007 5.38674,-3.89412 l 5.14388,-3.680087 -6.70957,-0.132291 -6.709569,-0.132292 -2.116429,-6.35 c -1.164036,-3.4925 -2.177072,-6.171406 -2.251192,-5.953124 -0.07412,0.218281 -0.981581,3.075781 -2.016582,6.349999 l -1.881821,5.953125 -6.733781,0.132292 -6.733781,0.132291 5.288732,3.789357 c 2.908803,2.08415 5.325961,3.89248 5.371464,4.01851 0.06747,0.18687 -1.592021,5.64017 -3.523913,11.58007 -0.267622,0.82284 -0.281525,1.07934 -0.05094,0.93987 0.174419,-0.1055 2.548862,-1.83515 5.27654,-3.84366 z"
         id="path16" /><path
         style="fill:#c3c3c3;fill-opacity:1"
         d="m 83.546456,264.1868 c -12.642493,-0.91309 -27.42776,-4.20611 -38.959894,-8.67729 L 42.403749,254.6632 V 217.37619 180.08917 H 4.9918137 -32.420122 l -1.189912,-3.24114 c -7.991,-21.76631 -10.473772,-44.43975 -7.308243,-66.74115 1.388277,-9.78052 4.199022,-20.686307 7.654435,-29.699475 l 0.836833,-2.182812 H 4.9883704 42.403749 V 40.805284 3.3859762 l 2.182813,-0.8463079 c 8.279432,-3.21005567 19.636479,-6.1931763 28.641144,-7.5230816 8.846275,-1.3065125 20.622983,-1.8049438 28.717054,-1.2154059 13.99253,1.0191559 28.24831,4.1222918 40.14076,8.7376618 l 2.18281,0.8471336 V 40.805284 78.224593 h 37.27794 c 35.25577,0 37.288,0.02512 37.46337,0.46302 9.64138,24.074967 12.14082,51.586837 6.99808,77.029657 -1.44292,7.13858 -3.42378,14.12401 -5.99208,21.13076 l -1.18802,3.24114 h -37.27965 -37.27964 v 37.28702 37.28701 l -2.18281,0.84571 c -11.76309,4.55749 -26.22472,7.72626 -39.75365,8.71066 -4.318339,0.31422 -14.220237,0.29694 -18.785414,-0.0328 z m -20.99239,-96.92106 c 3.242294,-2.32004 5.459796,-3.74176 5.630128,-3.60968 1.112642,0.86278 10.205041,7.43728 10.285606,7.43728 0.0558,0 -0.773424,-2.76365 -1.842717,-6.14143 -1.069293,-3.37779 -1.938216,-6.26506 -1.930941,-6.41615 0.0073,-0.15109 2.278527,-1.88206 5.047227,-3.84659 2.7687,-1.96453 5.158576,-3.7207 5.310836,-3.9026 0.220285,-0.26317 -1.095887,-0.33073 -6.443066,-0.33073 h -6.719901 l -1.971398,-6.33415 c -1.084269,-3.48379 -2.007963,-6.29759 -2.052653,-6.2529 -0.04469,0.0447 -1.010118,2.86529 -2.145396,6.26801 l -2.064142,6.18675 -6.807161,0.13229 -6.807162,0.13229 5.311741,3.80109 c 2.921458,2.0906 5.368268,3.89255 5.437355,4.00433 0.09392,0.15197 -2.192388,7.77297 -3.710724,12.36906 -0.06009,0.1819 -0.05694,0.33073 0.007,0.33073 0.06394,0 2.523357,-1.72242 5.465371,-3.8276 z m 50.758014,-0.009 c 2.54661,-1.85825 4.763,-3.48291 4.92529,-3.61036 0.19052,-0.14961 2.19272,1.13466 5.64998,3.62406 2.94519,2.12068 5.38977,3.81859 5.43239,3.77313 0.0426,-0.0455 -0.79879,-2.8694 -1.86982,-6.27542 -1.07103,-3.40601 -1.89186,-6.28249 -1.82407,-6.39217 0.0678,-0.10969 2.51823,-1.90685 5.44544,-3.99371 l 5.3222,-3.79428 -6.82182,-0.13229 -6.82183,-0.13229 -2.06414,-6.18675 c -1.13528,-3.40272 -2.1037,-6.22632 -2.15206,-6.27468 -0.0483,-0.0483 -0.97059,2.76545 -2.0494,6.2529 l -1.96148,6.34082 h -6.72316 c -5.35255,0 -6.66565,0.0674 -6.44111,0.33073 0.15512,0.1819 2.54559,1.93807 5.31216,3.9026 2.76656,1.96453 5.03547,3.68818 5.04202,3.83032 0.007,0.14215 -0.82153,2.89989 -1.84017,6.12833 -1.9432,6.15864 -2.07091,6.6832 -1.52136,6.249 0.1819,-0.14372 2.41432,-1.78169 4.96094,-3.63994 z m -84.713031,-33.96409 5.231972,-3.93389 5.278552,3.92402 c 2.903203,2.15821 5.352906,3.92845 5.443784,3.93388 0.09088,0.005 -0.710598,-2.75833 -1.781058,-6.14169 -1.07046,-3.38336 -1.900979,-6.27879 -1.845598,-6.4343 0.05538,-0.1555 2.430125,-1.94144 5.277209,-3.96875 2.847085,-2.02731 5.180828,-3.77531 5.186095,-3.88445 0.0053,-0.10914 -2.998573,-0.19844 -6.675202,-0.19844 h -6.684778 l -2.119417,-6.37624 -2.119417,-6.37624 -1.985643,6.3101 -1.985643,6.31009 -6.836281,0.13229 -6.836281,0.1323 5.322194,3.79428 c 2.927207,2.08685 5.386138,3.89774 5.464291,4.0242 0.116074,0.18781 -1.731435,6.39659 -3.440505,11.56224 -0.20462,0.61847 -0.316734,1.12448 -0.249142,1.12448 0.06759,0 2.477283,-1.77025 5.354868,-3.93388 z m 118.700421,-0.007 5.2801,-3.92453 5.2594,3.95451 c 2.89267,2.17498 5.29092,3.91494 5.32944,3.86657 0.0385,-0.0484 -0.80268,-2.82637 -1.86935,-6.17335 -1.06668,-3.34697 -1.89312,-6.21537 -1.83655,-6.37421 0.0566,-0.15883 2.50918,-2.0043 5.45025,-4.10104 l 5.34739,-3.81224 -6.84164,-0.1323 -6.84164,-0.13229 -1.98034,-6.30992 -1.98034,-6.30993 -2.11794,6.3718 -2.11794,6.3718 -6.83488,0.0704 -6.83488,0.0704 5.31146,3.80108 c 2.9213,2.0906 5.37402,3.90231 5.45048,4.02603 0.11542,0.18675 -3.40664,11.85591 -3.76668,12.47966 -0.33497,0.5803 0.794,-0.17505 5.59366,-3.74248 z M 87.990251,116.27728 c 2.73513,-2.01127 5.027306,-3.65686 5.093726,-3.65686 0.06642,0 2.412492,1.64488 5.213495,3.65528 2.800998,2.0104 5.232848,3.73845 5.404108,3.84011 0.18671,0.11084 0.0707,-0.58457 -0.28983,-1.73705 -2.83444,-9.06104 -3.36867,-10.83261 -3.28841,-10.90476 0.0505,-0.0454 2.51395,-1.82106 5.47427,-3.94586 l 5.3824,-3.863265 -6.81569,-0.07066 -6.81569,-0.07066 -2.116539,-6.35 c -1.164096,-3.4925 -2.178412,-6.171406 -2.254035,-5.953124 -0.07562,0.218281 -0.985826,3.075781 -2.022673,6.349999 l -1.885176,5.953125 -6.820667,0.07066 -6.820666,0.07066 5.381707,3.848645 c 2.959939,2.11676 5.414672,3.94003 5.454962,4.05171 0.05505,0.1526 -2.998054,10.16899 -3.783048,12.41112 -0.165201,0.47186 -0.154882,0.46493 5.507756,-3.69907 z"
         id="path15" /><path
         style="fill:#bdbdbd;fill-opacity:1"
         d="M 85.663122,264.31811 C 74.664796,263.44329 68.332638,262.4496 59.469374,260.20762 55.075574,259.0962 48.364981,256.97851 44.586562,255.511 l -2.182813,-0.8478 V 217.37619 180.08917 H 4.9918137 -32.420122 l -1.197584,-3.25192 c -10.320495,-28.02431 -11.383046,-57.83912 -3.072267,-86.206684 0.897825,-3.064588 3.100335,-9.501904 4.086249,-11.942953 0.176866,-0.437907 2.216079,-0.46302 37.5972412,-0.46302 H 42.403749 V 40.805284 3.3859762 l 2.182813,-0.8477915 c 10.783579,-4.1882786 23.484741,-7.130622 36.710935,-8.5044327 5.014417,-0.5208497 20.227583,-0.4387239 25.400003,0.1371177 12.65905,1.4093253 24.41563,4.2029739 35.52031,8.4404914 l 2.05052,0.7824736 V 40.809214 78.224593 h 37.27129 37.27128 l 0.93387,2.447395 c 11.73797,30.761792 11.83718,64.784012 0.28043,96.165262 l -1.19758,3.25192 h -37.27965 -37.27964 v 37.28309 37.28309 l -2.05864,0.78611 c -12.33255,4.70936 -26.35227,7.79557 -39.87782,8.77846 -3.353499,0.24369 -14.047501,0.30669 -16.668748,0.0982 z m -23.08527,-97.05658 5.320426,-3.83181 0.812631,0.60987 c 2.6894,2.01836 9.651928,7.05375 9.753366,7.05375 0.06654,0 -0.754851,-2.76821 -1.825311,-6.15156 -1.07046,-3.38336 -1.898708,-6.28472 -1.84055,-6.44746 0.05816,-0.16274 2.497373,-2.00821 5.420479,-4.10104 l 5.314738,-3.80515 -6.814421,-0.0706 -6.81442,-0.0706 -1.972272,-6.33562 c -1.08475,-3.48458 -2.011493,-6.29639 -2.059429,-6.24845 -0.04794,0.0479 -1.01602,2.87119 -2.151298,6.27391 l -2.064142,6.18675 -6.814343,0.13229 -6.814342,0.13229 5.327796,3.81545 c 2.930288,2.09849 5.377921,3.89654 5.439184,3.99567 0.0871,0.14093 -1.649193,5.84594 -3.682214,12.09878 -0.106456,0.32742 -0.117675,0.59531 -0.02493,0.59531 0.09274,0 2.562818,-1.72432 5.489053,-3.83181 z m 49.900468,0.61639 c 2.4231,-1.76847 4.77272,-3.49386 5.22138,-3.83418 l 0.81574,-0.61877 5.36236,3.85174 c 2.9493,2.11845 5.40354,3.81056 5.45387,3.76023 0.0503,-0.0503 -0.78937,-2.87676 -1.866,-6.28095 -1.07663,-3.4042 -1.90997,-6.26638 -1.85186,-6.36039 0.0581,-0.094 2.5071,-1.88917 5.4422,-3.98921 l 5.33655,-3.81826 -6.82136,-0.13229 -6.82136,-0.13229 -2.06414,-6.18675 c -1.13528,-3.40272 -2.10189,-6.22451 -2.14803,-6.27065 -0.0461,-0.0461 -0.97288,2.76451 -2.05943,6.24588 l -1.97554,6.32977 -6.79814,0.0732 -6.79814,0.0732 5.39606,3.83646 c 2.96783,2.11005 5.39926,3.95552 5.40319,4.10104 0.004,0.14552 -0.86824,3.03279 -1.93815,6.41615 -1.0699,3.38335 -1.88893,6.15156 -1.82006,6.15156 0.0689,0 2.10776,-1.44694 4.53086,-3.21542 z M 39.339431,133.44047 c 3.035359,2.2518 5.459609,3.93559 5.387224,3.74175 -0.242502,-0.64937 -3.910405,-12.37304 -3.910405,-12.49877 0,-0.0683 2.450158,-1.88763 5.444796,-4.04305 l 5.444797,-3.91893 -6.823112,-0.1323 -6.823112,-0.13229 -2.108066,-6.3419 c -1.159436,-3.48804 -2.168724,-6.16694 -2.242861,-5.95312 -0.07414,0.21383 -0.98308,3.06768 -2.019872,6.3419 l -1.885075,5.95312 -6.822908,0.13229 -6.822908,0.1323 5.335535,3.82443 c 2.934544,2.10343 5.388016,3.90934 5.45216,4.01313 0.06414,0.10379 -0.722149,2.84764 -1.747316,6.09744 -1.025168,3.24981 -1.930841,6.12878 -2.012609,6.39772 -0.08371,0.27532 2.207315,-1.30187 5.243116,-3.60946 l 5.391782,-4.09843 z m 112.777699,-3.63043 c 0.53309,-0.33079 0.9333,-0.0848 5.77849,3.55091 2.86315,2.14847 5.23868,3.86741 5.27896,3.81987 0.0403,-0.0475 -0.73757,-2.64628 -1.72855,-5.77498 -0.99099,-3.1287 -1.8685,-5.94904 -1.95004,-6.26743 -0.12912,-0.50421 0.55666,-1.08443 5.31624,-4.49791 l 5.46449,-3.91903 -6.84294,-0.1323 -6.84294,-0.13229 -1.8783,-5.95312 c -1.03307,-3.27422 -1.94162,-6.13172 -2.01902,-6.35 -0.0774,-0.21828 -1.08435,2.46062 -2.2377,5.95312 l -2.097,6.35 -6.83907,0.13229 -6.83908,0.1323 5.32219,3.79428 c 2.92721,2.08685 5.38296,3.8926 5.45723,4.01277 0.10934,0.17691 -0.93526,3.68036 -3.73067,12.51218 -0.0832,0.26303 2.0758,-1.16669 4.83223,-3.19989 2.74049,-2.02145 5.24046,-3.8353 5.55548,-4.03077 z M 87.813193,116.43562 c 2.201185,-1.63149 4.303016,-3.16347 4.670735,-3.40441 0.664615,-0.43547 0.696586,-0.41787 5.390554,2.96769 2.597088,1.87318 5.043998,3.61588 5.437578,3.87267 l 0.71561,0.46691 -0.21679,-0.75017 c -0.11923,-0.4126 -1.02247,-3.29331 -2.00719,-6.40159 -1.07482,-3.39265 -1.68674,-5.71912 -1.53104,-5.82083 0.14265,-0.0932 2.58235,-1.8363 5.42155,-3.87359 l 5.16218,-3.704167 -6.75398,-0.132291 -6.753974,-0.132292 -2.116437,-6.35 c -1.16404,-3.4925 -2.180836,-6.171406 -2.259547,-5.953124 -0.07871,0.218281 -0.994119,3.075781 -2.03424,6.349999 l -1.891129,5.953125 -6.738893,0.132292 -6.738894,0.132291 4.914627,3.518107 c 2.703044,1.93496 5.133496,3.68218 5.401004,3.88271 0.463937,0.34777 0.404358,0.62491 -1.29136,6.00689 -0.977755,3.10326 -1.875836,5.97987 -1.995735,6.39247 l -0.217998,0.75017 0.715607,-0.46826 c 0.393585,-0.25754 2.516577,-1.80311 4.717762,-3.4346 z"
         id="path14" /><path
         style="fill:#b6b6b6;fill-opacity:1"
         d="m 86.059997,264.31538 c -15.448407,-1.0824 -28.555769,-3.87091 -41.473435,-8.8232 l -2.182813,-0.83683 V 217.37226 180.08917 H 5.000861 -32.402028 l -1.36724,-3.73174 c -11.327569,-30.91737 -11.271776,-63.68818 0.161552,-94.891692 l 1.187594,-3.241145 H 4.9918137 42.403749 V 40.809214 3.3938347 l 2.182813,-0.8368333 c 22.421136,-8.5956785 47.547941,-11.1092183 71.239058,-7.1263423 8.49702,1.4284921 18.32395,4.09918748 26.32435,7.1542512 l 2.11836,0.8089244 V 40.809214 78.224593 h 37.27964 37.27965 l 1.18802,3.241145 c 11.43864,31.206582 11.48141,63.926032 0.12417,94.985412 l -1.33029,3.63802 h -37.2706 -37.27059 v 37.28309 37.28309 l -2.05052,0.78124 c -12.57035,4.78927 -26.62324,7.85545 -40.23772,8.7794 -3.677892,0.2496 -12.950016,0.30749 -15.920093,0.0994 z m -9.405759,-99.4024 c -1.093964,-3.45232 -1.927247,-6.37691 -1.851738,-6.49908 0.07551,-0.12218 2.523362,-1.93296 5.439676,-4.02395 l 5.302387,-3.80182 -6.813492,-0.13229 -6.813493,-0.13229 -1.924838,-6.08542 c -1.058661,-3.34698 -1.964545,-6.20448 -2.013075,-6.35 -0.04853,-0.14552 -0.362756,0.56886 -0.698281,1.5875 -0.335525,1.01865 -1.320431,3.90393 -2.188681,6.41174 l -1.578636,4.55965 -6.746373,0.0705 -6.746374,0.0706 5.461584,3.92742 c 4.843481,3.48295 5.440151,3.99199 5.272197,4.49792 -1.292634,3.89384 -3.752796,11.94995 -3.67348,12.02927 0.05681,0.0568 2.396333,-1.54567 5.198935,-3.56108 2.802602,-2.0154 5.221605,-3.74188 5.375562,-3.83662 0.153957,-0.0947 2.661172,1.58524 5.571588,3.73328 2.910417,2.14805 5.319542,3.88441 5.353613,3.85858 0.03407,-0.0258 -0.833116,-2.8716 -1.927081,-6.32392 z m 41.999412,-1.29381 c 0.11909,0.0366 2.54753,1.74333 5.39653,3.79286 2.849,2.04952 5.22272,3.68368 5.27493,3.63147 0.0729,-0.0729 -2.20154,-7.5167 -3.67754,-12.03576 -0.16756,-0.51302 0.41412,-1.00635 5.30344,-4.49792 l 5.49163,-3.92169 -6.84711,-0.13229 -6.84711,-0.13229 -2.11643,-6.35 c -1.16404,-3.4925 -2.17708,-6.17141 -2.2512,-5.95313 -0.0741,0.21828 -0.98159,3.07578 -2.01659,6.35 l -1.88183,5.95313 -6.80454,0.13229 -6.80453,0.13229 5.28675,3.78491 c 2.90772,2.0817 5.35481,3.89502 5.43798,4.02959 0.0832,0.13458 -0.67138,2.83668 -1.67678,6.00468 -1.00541,3.16799 -1.91339,6.03242 -2.01775,6.36539 -0.13963,0.44553 1.22611,-0.42782 5.17195,-3.30729 2.94892,-2.15198 5.45912,-3.88279 5.5782,-3.84624 z M 33.827586,129.55945 c 0.132984,0.003 2.623039,1.77272 5.533455,3.93243 2.910417,2.15972 5.318471,3.90637 5.351233,3.88145 0.03276,-0.0249 -0.830442,-2.87854 -1.918229,-6.34139 -1.087788,-3.46284 -1.977795,-6.3352 -1.977795,-6.38302 0,-0.0478 2.453355,-1.85105 5.4519,-4.00719 l 5.4519,-3.92026 -6.819144,-0.1323 -6.819144,-0.13229 -2.116436,-6.35 c -1.164041,-3.4925 -2.181461,-6.1714 -2.260934,-5.95312 -0.07947,0.21828 -0.990977,3.07578 -2.025562,6.35 l -1.881065,5.95312 -6.833498,0.13229 -6.833497,0.1323 5.47402,3.92586 c 4.127487,2.96016 5.439788,4.03404 5.33486,4.36563 -1.844595,5.82912 -3.850483,12.2759 -3.850483,12.37519 0,0.0713 2.361742,-1.66233 5.248315,-3.85241 2.886573,-2.19009 5.35712,-3.97942 5.490104,-3.97629 z m 116.201814,1.7412 c 1.34958,-0.98923 2.59974,-1.74169 2.77813,-1.67213 0.17839,0.0696 2.61629,1.86679 5.41757,3.99386 2.80127,2.12706 5.09323,3.82044 5.09323,3.76306 0,-0.0574 -0.83558,-2.76571 -1.85684,-6.01852 -1.02126,-3.25281 -1.91952,-6.11397 -1.99614,-6.35814 -0.10573,-0.33691 1.18452,-1.3893 5.35232,-4.36562 l 5.49164,-3.92169 -6.84458,-0.1323 -6.84458,-0.13229 -1.89162,-5.95312 c -1.04039,-3.27422 -1.95423,-6.13172 -2.03077,-6.35 -0.0765,-0.21828 -1.09155,2.46062 -2.25559,5.95312 l -2.11644,6.35 -6.81914,0.13229 -6.81915,0.1323 5.46186,3.92742 c 4.07567,2.93067 5.42829,4.03863 5.32962,4.36562 -0.0727,0.24101 -0.91444,2.93852 -1.87047,5.99445 -0.95603,3.05594 -1.80521,5.77474 -1.88707,6.04179 -0.0916,0.29895 1.0046,-0.36701 2.8527,-1.73298 1.65085,-1.22018 4.10574,-3.02788 5.45532,-4.01712 z M 87.576448,116.63727 c 2.731212,-2.01083 5.101036,-3.73584 5.266274,-3.83335 0.165765,-0.0978 2.702296,1.54448 5.658761,3.6638 2.947077,2.1126 5.394927,3.80448 5.439667,3.75975 0.0447,-0.0447 -0.81629,-2.92152 -1.91339,-6.39285 -1.20077,-3.79934 -1.89044,-6.37652 -1.73272,-6.47483 0.14411,-0.0898 2.58196,-1.8302 5.41745,-3.86749 l 5.15544,-3.704167 -6.75975,-0.132291 -6.759754,-0.132292 -2.0999,-6.30039 c -1.154946,-3.465215 -2.152888,-6.247404 -2.21765,-6.182641 -0.06476,0.06476 -0.991237,2.899937 -2.058834,6.30039 l -1.941084,6.182641 -6.755625,0.132292 -6.755625,0.132291 5.181383,3.704167 c 2.849761,2.03729 5.289133,3.77584 5.420826,3.86344 0.179262,0.11924 -2.783722,10.23006 -3.690131,12.59213 -0.07291,0.19001 -0.06251,0.34547 0.02313,0.34547 0.08563,0 2.390324,-1.64523 5.121536,-3.65607 z"
         id="path13" /><path
         style="fill:#afafaf;fill-opacity:1"
         d="m 84.342959,264.20079 c -13.202381,-0.89017 -27.236466,-3.95883 -39.491814,-8.63517 l -2.447396,-0.93387 V 217.36046 180.08917 H 4.9948971 -32.413955 l -1.587933,-4.43177 c -11.065411,-30.88253 -10.930334,-63.35169 0.391854,-94.191662 l 1.189912,-3.241145 H 4.9918137 42.403749 V 40.81436 c 0,-35.3817642 0.02511,-37.4202861 0.463021,-37.5956594 16.596897,-6.6466192 35.557904,-10.0285126 53.644268,-9.5680149 15.600312,0.3972003 29.629922,3.0949904 44.516142,8.5601233 l 3.24115,1.1899121 V 40.812657 78.224593 h 37.27795 37.27796 l 1.19604,3.266256 c 2.78627,7.609068 5.06265,15.89396 6.37231,23.192071 4.3553,24.27015 2.28574,48.11615 -6.21719,71.63594 l -1.36305,3.77031 h -37.27201 -37.27201 v 37.27964 37.27965 l -3.24115,1.18991 c -18.41131,6.75929 -37.87467,9.63065 -56.684221,8.36242 z M 67.473776,163.77731 c 0.39315,-0.25903 1.25343,0.27994 5.75393,3.60489 2.910417,2.1502 5.317177,3.88893 5.348357,3.86385 0.03118,-0.0251 -0.829029,-2.88389 -1.911573,-6.3529 -1.082544,-3.46902 -1.917252,-6.38984 -1.854906,-6.49071 0.06234,-0.10088 2.510864,-1.90037 5.441152,-3.99886 l 5.327796,-3.81545 -6.8225,-0.13229 -6.8225,-0.13229 -1.980525,-6.28885 c -1.089289,-3.45886 -2.063151,-6.1973 -2.164138,-6.08541 -0.100986,0.11188 -1.100691,2.96964 -2.221566,6.35056 l -2.037953,6.14714 -6.78198,0.0706 -6.781979,0.0706 5.466533,3.90396 5.466532,3.90396 -0.346356,1.12312 c -0.190497,0.61772 -1.077587,3.45288 -1.971313,6.30035 -0.893725,2.84748 -1.624955,5.25478 -1.624955,5.34956 0,0.0948 2.262528,-1.46106 5.02784,-3.45743 2.765312,-1.99637 5.235859,-3.76683 5.490104,-3.93434 z m 48.635454,1.47811 2.40027,-1.76971 5.35783,3.82887 c 2.94681,2.10588 5.40659,3.78011 5.46618,3.72052 0.0886,-0.0886 -3.1486,-10.66797 -3.71609,-12.14441 -0.1259,-0.32754 1.13158,-1.35755 5.32972,-4.36562 l 5.49449,-3.93694 -6.78174,-0.0706 -6.78175,-0.0706 -2.03795,-6.14714 c -1.12087,-3.38092 -2.12215,-6.24025 -2.22507,-6.35406 -0.10291,-0.11382 -1.07719,2.62462 -2.16507,6.08541 l -1.97796,6.29235 -6.81421,0.13229 -6.81421,0.13229 5.30447,3.7896 c 2.91745,2.08428 5.36372,3.88547 5.43614,4.00265 0.0724,0.11717 -0.70329,2.8767 -1.7238,6.13227 -1.02051,3.25558 -1.92281,6.13782 -2.0051,6.40498 -0.14143,0.45912 1.19325,-0.45649 8.25385,-5.66221 z M 33.837269,129.55945 c 0.127658,0.003 2.613356,1.77272 5.523772,3.93243 2.910417,2.15972 5.325801,3.89904 5.367521,3.86516 0.04172,-0.0339 -0.765784,-2.7262 -1.794452,-5.98296 -1.028668,-3.25675 -1.929433,-6.11524 -2.0017,-6.35221 -0.09697,-0.31798 1.304848,-1.4616 5.35127,-4.36562 l 5.482664,-3.93478 -6.842291,-0.1323 -6.842291,-0.13229 -2.0999,-6.30039 c -1.154945,-3.46521 -2.148343,-6.25195 -2.207551,-6.19274 -0.05921,0.0592 -0.981232,2.89439 -2.048944,6.30039 l -1.941293,6.19274 -6.838126,0.13229 -6.838126,0.1323 5.489205,3.93947 c 3.019063,2.16672 5.440095,4.07172 5.38007,4.23334 -0.266193,0.71674 -3.88793,12.33197 -3.88793,12.46893 0,0.0841 2.366099,-1.63868 5.257998,-3.82831 2.891899,-2.18963 5.362446,-3.97858 5.490104,-3.97545 z m 115.229001,2.4643 c 1.83851,-1.3585 3.43447,-2.46999 3.54658,-2.46999 0.11211,0 2.5794,1.80064 5.48286,4.00143 3.08101,2.33537 5.21822,3.79504 5.13299,3.50573 -0.30098,-1.02167 -3.69094,-11.88468 -3.796,-12.16416 -0.0603,-0.16026 2.36626,-2.06526 5.39222,-4.23334 l 5.50176,-3.94195 -6.8449,-0.1323 -6.84491,-0.13229 -1.95788,-6.20259 c -1.07683,-3.41143 -2.00188,-6.24661 -2.05567,-6.3004 -0.0538,-0.0538 -1.04274,2.73739 -2.19769,6.2026 l -2.0999,6.30039 -6.83082,0.13229 -6.83081,0.1323 5.47402,3.92586 c 4.12748,2.96016 5.43979,4.03404 5.33486,4.36563 -1.82798,5.77661 -3.85049,12.27532 -3.85049,12.37237 0,0.12458 0.75879,-0.42196 7.44378,-5.36158 z M 87.707307,116.54508 c 2.796116,-2.06155 5.218006,-3.74827 5.381978,-3.74827 0.163971,0 2.649184,1.69544 5.522695,3.76763 2.87351,2.0722 5.26861,3.72359 5.32244,3.66976 0.0538,-0.0538 -0.79815,-2.93821 -1.89328,-6.40972 -1.33126,-4.22001 -1.89563,-6.37089 -1.70292,-6.48999 0.15852,-0.098 2.59707,-1.83598 5.41898,-3.86225 l 5.13076,-3.684107 -6.70525,-0.07057 -6.705244,-0.07057 -0.405119,-1.120053 c -0.222815,-0.61603 -1.13071,-3.313951 -2.017545,-5.995381 -0.886835,-2.68143 -1.710227,-5.050088 -1.829761,-5.263683 -0.234699,-0.419383 -0.226072,-0.443104 -2.795736,7.687172 l -1.482931,4.691912 -6.703131,0.07059 -6.703132,0.07059 5.155165,3.70417 c 2.835341,2.03729 5.268807,3.77503 5.407703,3.86163 0.189717,0.1183 -2.646769,9.83561 -3.680478,12.60868 -0.06781,0.1819 -0.05033,0.33073 0.03884,0.33073 0.08917,0 2.449854,-1.68672 5.24597,-3.74826 z"
         id="path12" /><path
         style="fill:#a8a8a8;fill-opacity:1"
         d="M 86.589164,264.31806 C 70.809445,263.24801 58.001828,260.56118 44.851145,255.5621 l -2.447396,-0.93035 V 217.36046 180.08917 H 5.0173075 -32.369135 l -1.006929,-2.71198 c -11.59731,-31.2352 -11.73924,-64.45698 -0.407493,-95.382285 l 1.381529,-3.770312 H 5.000861 42.403749 V 40.822773 3.4209524 l 1.521355,-0.594007 C 44.761848,2.5002415 47.172864,1.6430083 49.282916,0.92198259 79.164187,-9.2887439 110.91919,-8.8426486 141.02718,2.210809 l 3.24115,1.1899121 V 40.812657 78.224593 h 37.27059 37.2706 l 1.37958,3.76542 c 10.85516,29.627977 11.18126,61.523177 0.9353,91.478097 -0.96939,2.83409 -1.93335,5.48323 -2.14214,5.88697 l -0.37961,0.73409 h -37.16716 -37.16716 v 37.27964 37.27965 l -3.25193,1.19758 c -15.66285,5.76815 -32.49258,8.75391 -48.469596,8.59898 -2.621858,-0.0254 -5.302796,-0.0826 -5.95764,-0.12696 z M 72.415784,166.8063 c 2.483849,1.82243 4.903042,3.60622 5.375984,3.96397 0.472943,0.35775 0.859896,0.58905 0.859896,0.51399 0,-0.0751 -0.835576,-2.79787 -1.856835,-6.05068 -1.021259,-3.25281 -1.918707,-6.11139 -1.994328,-6.3524 -0.103211,-0.32895 1.224354,-1.41746 5.32436,-4.36563 l 5.461853,-3.92742 -6.822443,-0.13229 -6.822444,-0.13229 -1.539876,-4.89479 c -0.846932,-2.69214 -1.730377,-5.53178 -1.963212,-6.31031 -0.232835,-0.77853 -0.515619,-1.31431 -0.628409,-1.19063 -0.11279,0.12369 -1.122152,2.99111 -2.243027,6.37203 l -2.037953,6.14714 -6.792488,0.0706 -6.792488,0.0706 5.475559,3.91887 c 3.018757,2.16053 5.424888,4.05996 5.362628,4.23333 -0.389365,1.08423 -3.826729,12.22057 -3.826729,12.3978 0,0.11958 2.462369,-1.5517 5.471931,-3.71396 l 5.471931,-3.93138 z m 41.462416,0.0994 c 2.42141,-1.77136 4.51803,-3.22067 4.65914,-3.22067 0.14112,0 2.65457,1.72606 5.58545,3.83568 2.93088,2.10963 5.32887,3.72368 5.32887,3.5868 0,-0.19416 -3.3366,-10.9716 -3.82876,-12.36715 -0.061,-0.17295 2.3531,-2.07795 5.36466,-4.23333 l 5.47556,-3.91887 -6.79249,-0.0706 -6.79249,-0.0706 -2.03795,-6.14714 c -1.12087,-3.38092 -2.13024,-6.24834 -2.24303,-6.37203 -0.11279,-0.12368 -0.39557,0.4121 -0.62841,1.19063 -0.23283,0.77853 -1.11628,3.61817 -1.96321,6.31031 l -1.53987,4.89479 -6.81534,0.13229 -6.81534,0.13229 5.45509,3.92635 c 4.10703,2.95607 5.42074,4.0349 5.31608,4.36562 -1.94306,6.1403 -3.85033,12.27915 -3.85033,12.39289 0,0.0813 0.38695,-0.1435 0.8599,-0.49945 0.47294,-0.35596 2.84105,-2.0965 5.26247,-3.86787 z M 28.870927,133.17116 c 2.662907,-2.01225 4.98146,-3.6001 5.15234,-3.52854 0.17088,0.0716 2.63241,1.85591 5.470066,3.96525 2.837656,2.10934 5.196408,3.79906 5.24167,3.75493 0.06414,-0.0625 -3.359873,-11.18833 -3.836478,-12.46604 -0.05978,-0.16026 2.367104,-2.06526 5.393072,-4.23334 l 5.50176,-3.94195 -6.855087,-0.1323 -6.855087,-0.13229 -2.064142,-6.18675 c -1.135278,-3.40271 -2.115444,-6.23805 -2.178146,-6.30075 -0.120918,-0.12092 -0.334552,0.51206 -2.672674,7.91899 l -1.481079,4.6919 -6.804716,0.0706 -6.804717,0.0706 5.500817,3.94845 c 3.836074,2.75351 5.456352,4.06433 5.353893,4.33133 -0.296786,0.77341 -3.843252,12.15577 -3.843252,12.33489 0,0.21684 -0.362095,0.47768 5.78176,-4.16498 z m 119.005923,-0.26374 c 2.49401,-1.84451 4.61037,-3.35366 4.70302,-3.35366 0.0926,0 2.5467,1.78819 5.45345,3.97376 2.90675,2.18556 5.28501,3.90325 5.28501,3.81708 0,-0.14905 -3.63035,-11.78853 -3.87868,-12.43567 -0.0651,-0.16977 2.35848,-2.08141 5.38584,-4.24807 l 5.50429,-3.93939 -6.8031,-0.0706 -6.80311,-0.0706 -1.61408,-5.08878 c -0.88775,-2.79883 -1.79731,-5.66204 -2.02125,-6.36269 -0.22394,-0.70066 -0.45857,-1.22251 -0.5214,-1.15967 -0.0628,0.0628 -1.04311,2.89828 -2.17839,6.30099 l -2.06414,6.18675 -6.85664,0.13229 -6.85663,0.1323 5.50428,3.93941 c 3.02736,2.16668 5.45099,4.07832 5.38584,4.24808 -0.27515,0.71705 -3.87867,12.29501 -3.87867,12.46203 0,0.10069 0.38696,-0.10785 0.8599,-0.46342 0.47294,-0.35556 2.90045,-2.15563 5.39446,-4.00015 z m -60.147319,-16.3607 c 2.792537,-2.06064 5.199605,-3.74735 5.349039,-3.74826 0.149434,-9.1e-4 2.627609,1.69729 5.507056,3.77376 2.879444,2.07648 5.284204,3.72657 5.343904,3.66687 0.0597,-0.0597 -0.7688,-2.89965 -1.84111,-6.311 -1.07231,-3.41135 -1.90261,-6.28051 -1.84511,-6.37592 0.0575,-0.0954 2.47854,-1.88134 5.3801,-3.96875 l 5.27555,-3.795287 -6.7104,-0.07057 -6.710405,-0.07057 -2.181283,-6.544012 -2.181283,-6.544012 -0.73487,2.248958 c -0.404178,1.236927 -1.343643,4.181728 -2.0877,6.544001 l -1.352829,4.295043 -6.740986,0.07058 -6.740985,0.07058 5.176475,3.686549 c 2.847062,2.0276 5.280555,3.81354 5.407763,3.96875 0.139807,0.17058 -0.54354,2.73352 -1.727669,6.47973 -1.077427,3.40864 -1.958957,6.23638 -1.958957,6.28386 0,0.26278 0.743871,-0.2439 5.3737,-3.6603 z"
         id="path11" /><path
         style="fill:#a1a1a1;fill-opacity:1"
         d="m 86.721455,264.33837 c -16.630254,-1.21519 -28.401796,-3.70723 -42.399476,-8.97599 l -1.91823,-0.72202 v -37.3711 -37.37109 l -35.2557268,-0.0177 c -19.3906502,-0.01 -36.2275702,-0.0263 -37.4153792,-0.0368 l -2.159652,-0.0191 -0.781514,-2.05052 c -2.301567,-6.0388 -4.93241,-15.14443 -6.249362,-21.62969 -4.994987,-24.59758 -2.990049,-50.71777 5.691577,-74.149475 l 1.39693,-3.770312 H 5.0171855 42.403749 V 40.816688 3.4088029 l 1.91823,-0.722025 c 12.187625,-4.5874452 24.077959,-7.3374764 37.372393,-8.6435973 5.158886,-0.5068383 19.339868,-0.4257354 24.606248,0.1407262 12.32636,1.3258456 23.63209,3.9374271 34.71578,8.0192103 l 3.25193,1.197584 V 40.812657 78.224593 h 37.27539 c 35.27069,0 37.28291,0.0249 37.41526,0.46302 0.0769,0.254662 0.75582,2.129896 1.50865,4.167188 2.74544,7.429739 5.51964,18.498499 6.73081,26.855209 1.68984,11.65943 1.78174,24.68561 0.25945,36.77708 -1.22548,9.73399 -4.30661,22.033 -7.83336,31.26863 l -0.79003,2.06887 -1.23361,0.0198 c -0.67848,0.0109 -17.45587,0.0262 -37.28309,0.0339 l -36.04947,0.014 v 37.37805 37.37805 l -3.24115,1.19092 c -11.15712,4.09954 -22.66934,6.75987 -34.59427,7.99429 -3.8207,0.3955 -16.694756,0.72513 -19.711455,0.5047 z m -23.711891,-97.3269 c 2.383667,-1.70772 4.492356,-3.16573 4.685976,-3.24003 0.193619,-0.0743 2.707102,1.59343 5.585516,3.70607 2.878414,2.11263 5.271601,3.80303 5.318194,3.75644 0.0663,-0.0663 -3.34921,-11.17214 -3.839855,-12.48563 -0.06296,-0.16856 2.360008,-2.07356 5.384385,-4.23333 l 5.498867,-3.92686 -6.844001,-0.13229 -6.844001,-0.13229 -1.283972,-4.10104 c -0.706185,-2.25558 -1.591692,-5.09604 -1.967794,-6.31214 -0.376102,-1.2161 -0.776927,-2.10907 -0.890722,-1.98437 -0.113795,0.12469 -1.123979,2.99293 -2.244854,6.37385 l -2.037953,6.14714 -6.792488,0.0706 -6.792488,0.0706 5.463093,3.93474 5.463094,3.93475 -0.35598,1.09234 c -1.650837,5.06567 -3.558749,11.24512 -3.558749,11.52627 0,0.21983 0.311178,0.10849 0.859896,-0.30766 0.472943,-0.35869 2.810169,-2.04939 5.193836,-3.7571 z m 50.343146,0.28584 c 2.71449,-1.98677 5.04106,-3.61231 5.17017,-3.61231 0.12911,0 2.61113,1.71013 5.51561,3.80028 2.90449,2.09015 5.31678,3.70887 5.36065,3.59715 0.0657,-0.16726 -2.07389,-7.21487 -3.50112,-11.53247 l -0.36109,-1.09234 5.4631,-3.93475 5.46309,-3.93474 -6.79249,-0.0706 -6.79249,-0.0706 -2.03795,-6.14714 c -1.12087,-3.38092 -2.13106,-6.24916 -2.24485,-6.37385 -0.1138,-0.1247 -0.51462,0.76827 -0.89073,1.98437 -0.3761,1.2161 -1.2616,4.05656 -1.96779,6.31214 l -1.28397,4.10104 -6.82771,0.13229 -6.82771,0.13229 5.48103,3.93089 c 3.01456,2.16199 5.4302,4.06699 5.36809,4.23334 -0.30675,0.8215 -3.89072,12.31978 -3.89072,12.48243 0,0.10336 0.14883,0.0725 0.33073,-0.0686 0.1819,-0.1411 2.55167,-1.88209 5.26615,-3.86886 z M 28.69389,133.3018 c 2.718796,-2.06142 5.010627,-3.74804 5.092958,-3.74804 0.08233,0 2.560831,1.77586 5.507777,3.94635 2.946945,2.17049 5.39666,3.90793 5.443811,3.86097 0.07088,-0.0706 -3.32912,-11.14136 -3.792647,-12.3493 -0.09707,-0.25296 1.619523,-1.64169 5.353894,-4.33133 l 5.496774,-3.95898 -6.856637,-0.1323 -6.856637,-0.13229 -2.064142,-6.18675 c -1.135278,-3.40271 -2.118296,-6.2409 -2.184483,-6.30709 -0.06619,-0.0662 -0.791638,2.00347 -1.612111,4.59925 -0.820473,2.59578 -1.732535,5.46373 -2.026805,6.37324 l -0.535035,1.65364 h -6.740918 c -3.707505,0 -6.682385,0.0947 -6.610844,0.21047 0.07154,0.11575 2.509929,1.9165 5.41864,4.00166 2.908711,2.08516 5.243987,3.92522 5.189503,4.08902 -0.81888,2.46185 -3.827821,12.21382 -3.827821,12.40596 0,0.16642 0.118856,0.16881 0.330729,0.007 0.181901,-0.13921 2.555199,-1.93973 5.273994,-4.00115 z m 118.70754,-0.0261 c 2.81461,-2.06799 5.2554,-3.69914 5.42396,-3.62479 0.16856,0.0744 2.56774,1.85984 5.3315,3.96776 2.76376,2.10792 5.06561,3.792 5.11521,3.74239 0.0496,-0.0496 -0.65093,-2.45163 -1.55674,-5.33782 -0.90582,-2.8862 -1.79805,-5.73726 -1.98274,-6.33568 l -0.3358,-1.08803 5.46648,-3.93905 5.46648,-3.93904 -6.80307,-0.0706 -6.80307,-0.0706 -1.34928,-4.29503 c -2.28158,-7.26274 -2.68796,-8.43568 -2.86223,-8.26141 -0.0925,0.0925 -1.07888,2.92781 -2.19189,6.30064 l -2.02367,6.1324 -6.84277,0.13229 -6.84276,0.1323 5.02708,3.62039 c 2.7649,1.99122 5.23109,3.77715 5.48044,3.96875 0.42005,0.32276 0.30828,0.8048 -1.52135,6.56091 -1.08609,3.4169 -1.97472,6.31874 -1.97472,6.44854 0,0.12979 0.14883,0.11891 0.33073,-0.0242 0.1819,-0.14309 2.6336,-1.95216 5.44821,-4.02015 z M 87.908791,116.4645 c 2.890983,-2.13318 5.273764,-3.71579 5.423958,-3.60253 2.502331,1.88704 10.521291,7.4526 10.610021,7.36388 0.0661,-0.0661 -0.76123,-2.9057 -1.83851,-6.3102 -1.07729,-3.40451 -1.9148,-6.26547 -1.86114,-6.35768 0.0537,-0.0922 2.48773,-1.87815 5.40904,-3.96875 l 5.31147,-3.801087 -6.74274,-0.07057 -6.742735,-0.07057 -2.164738,-6.49443 c -1.190605,-3.571936 -2.203482,-6.455685 -2.250836,-6.40833 -0.04735,0.04735 -0.815033,2.406292 -1.705952,5.242084 -0.890919,2.835792 -1.801191,5.71954 -2.022827,6.408329 l -0.402975,1.252344 -6.738487,0.07057 -6.738487,0.07057 5.303143,3.7957 c 2.916728,2.08763 5.348949,3.87356 5.404935,3.96874 0.05599,0.0952 -0.709119,2.71938 -1.700235,5.83154 -2.08107,6.53469 -2.186088,6.91342 -1.912469,6.89708 0.111913,-0.007 2.523717,-1.72419 5.359564,-3.81669 z"
         id="path10" /><path
         style="fill:#9a9a9a;fill-opacity:1"
         d="m 84.737081,264.18874 c -12.8862,-0.81516 -26.122715,-3.62966 -38.695311,-8.22784 l -3.638021,-1.33054 V 217.22748 179.82459 H 4.9918137 -32.420122 l -1.197584,-3.25193 c -9.956321,-27.03543 -11.216429,-55.39334 -3.705912,-83.39911 1.009208,-3.76321 3.074415,-10.064031 4.241206,-12.939664 l 0.741374,-1.827165 36.6447895,0.0277 C 24.458386,78.449651 41.275963,78.399211 41.676145,78.322334 L 42.403749,78.18255 V 40.791634 3.4007211 L 45.644895,2.210809 C 76.719744,-9.1976079 109.70576,-9.2442864 140.60444,2.0764316 l 3.66389,1.3423841 V 40.921949 78.425081 l 36.57864,0.01178 c 20.11826,0.0065 36.89564,0.0209 37.28309,0.03205 0.63318,0.01822 0.78925,0.241082 1.54276,2.203079 6.43718,16.761037 9.68911,36.99508 8.74904,54.43802 -0.80924,15.01543 -3.42478,27.92405 -8.40333,41.47343 l -1.19091,3.24115 h -37.27965 -37.27964 v 37.40289 37.40288 l -3.63802,1.33029 c -18.04486,6.59832 -37.16401,9.41287 -55.893229,8.22809 z M 62.205722,167.62097 c 2.860633,-2.05532 5.339154,-3.79031 5.507823,-3.85553 0.16867,-0.0652 2.668411,1.60705 5.554981,3.71617 2.88657,2.10911 5.287458,3.7956 5.335306,3.74775 0.07244,-0.0724 -3.32482,-11.13508 -3.798898,-12.37051 -0.107096,-0.27909 1.434442,-1.5262 5.353894,-4.33133 l 5.504294,-3.93939 -6.803108,-0.0706 -6.803108,-0.0706 -1.613736,-5.08879 c -0.887556,-2.79883 -1.824681,-5.74362 -2.082501,-6.54399 l -0.468763,-1.45521 -2.182758,6.54844 -2.182758,6.54844 h -6.740477 c -3.978635,0 -6.679546,0.0986 -6.591769,0.24061 0.08179,0.13234 2.512869,1.92626 5.4024,3.98649 l 5.253692,3.74588 -2.047941,6.46455 c -1.126368,3.5555 -1.991643,6.46455 -1.922833,6.46455 0.06881,0 2.465627,-1.68163 5.32626,-3.73695 z m 51.689298,-0.685 c 2.43067,-1.78803 4.51426,-3.25074 4.63021,-3.25046 0.11594,2.8e-4 2.59206,1.71458 5.50247,3.80955 2.91042,2.09498 5.32028,3.67233 5.35524,3.50523 0.035,-0.16711 -0.81091,-3.06447 -1.87973,-6.43859 l -1.9433,-6.13477 5.25237,-3.74493 c 2.8888,-2.05971 5.31928,-3.85321 5.40107,-3.98555 0.0878,-0.14202 -2.61313,-0.24061 -6.59177,-0.24061 h -6.74048 l -2.18275,-6.54844 -2.18276,-6.54844 -0.47008,1.45521 c -0.25854,0.80037 -1.19756,3.74517 -2.08672,6.544 l -1.61664,5.08879 -6.78802,0.0706 -6.78803,0.0706 5.49244,3.94199 c 3.88679,2.7896 5.44875,4.0558 5.34302,4.33133 -0.30154,0.78581 -3.84573,12.16226 -3.84573,12.34437 0,0.22696 0.48001,-0.10689 6.13919,-4.26985 z M 29.246592,132.91234 c 2.440698,-1.84722 4.487644,-3.35858 4.548769,-3.35858 0.06112,0 2.527032,1.77801 5.479793,3.95115 2.952762,2.17313 5.410318,3.90948 5.461236,3.85857 0.05092,-0.0509 -0.648545,-2.45402 -1.554361,-5.34021 -0.905817,-2.8862 -1.797903,-5.73677 -1.982414,-6.3346 l -0.335474,-1.08697 5.271126,-3.77245 c 2.899119,-2.07485 5.336151,-3.87767 5.415627,-4.00627 0.08221,-0.13302 -2.761156,-0.23381 -6.595939,-0.23381 h -6.740441 l -2.079184,-6.23755 c -1.143551,-3.43065 -2.185651,-6.23493 -2.315778,-6.23172 -0.130126,0.003 -0.639075,1.29206 -1.130997,2.86411 -0.491921,1.57206 -1.372848,4.37634 -1.957613,6.23173 l -1.06321,3.37343 H 22.88217 c -5.902864,0 -6.735164,0.0495 -6.398136,0.38023 0.213084,0.20912 2.649613,2.00177 5.414508,3.98366 3.620927,2.5955 5.001242,3.72879 4.9347,4.05155 -0.05081,0.24646 -0.914014,3.04443 -1.918229,6.21771 -1.004215,3.17329 -1.825846,5.89609 -1.825846,6.05068 0,0.15458 0.386953,-0.008 0.859896,-0.36051 0.472943,-0.35287 2.856831,-2.15294 5.297529,-4.00015 z m 118.662848,0.0227 c 2.51193,-1.85968 4.61924,-3.38124 4.68291,-3.38124 0.0637,0 2.47329,1.78336 5.35472,3.96303 2.88143,2.17967 5.2702,3.87191 5.30837,3.76053 0.0382,-0.11138 -0.75656,-2.83105 -1.76607,-6.04372 -1.00952,-3.21266 -1.87419,-6.02928 -1.92149,-6.25915 -0.0583,-0.28321 1.53457,-1.57959 4.94107,-4.02139 2.7649,-1.98189 5.20143,-3.77454 5.41451,-3.98366 0.33703,-0.33077 -0.49481,-0.38023 -6.39457,-0.38023 h -6.782 l -0.53317,-1.65364 c -0.29325,-0.90951 -1.205,-3.78174 -2.02613,-6.38274 -0.82112,-2.601 -1.58806,-4.62506 -1.70431,-4.49792 -0.11625,0.12715 -1.1291,2.99938 -2.25079,6.38274 l -2.03943,6.15156 h -6.74048 c -3.70727,0 -6.67945,0.0988 -6.60485,0.21945 0.0746,0.1207 2.51276,1.92201 5.41815,4.00292 2.9054,2.0809 5.23562,3.91692 5.17829,4.08003 -0.44697,1.27154 -3.82168,12.22708 -3.82168,12.40657 0,0.27338 0.38759,0.004 6.28695,-4.36314 z m -57.234814,-18.49979 2.396157,-1.7571 0.794086,0.5592 c 0.436747,0.30756 2.907445,2.0816 5.49044,3.94229 2.582991,1.8607 4.696351,3.2525 4.696351,3.09289 0,-0.28862 -3.6775,-12.11927 -3.87364,-12.46163 -0.0565,-0.0986 2.34901,-1.94411 5.3456,-4.10104 l 5.44835,-3.921687 -6.74691,-0.07057 -6.746905,-0.07057 -2.164738,-6.49443 c -1.190605,-3.571936 -2.210324,-6.448843 -2.26604,-6.393126 -0.09685,0.09685 -4.076963,12.580587 -4.076963,12.787514 0,0.05498 -3.046705,0.131735 -6.770455,0.170572 l -6.770455,0.07061 5.327526,3.815447 c 2.930139,2.09849 5.364021,3.88443 5.408627,3.96875 0.04461,0.0843 -0.791642,2.89174 -1.858327,6.23872 -1.066686,3.34698 -1.942145,6.23374 -1.945464,6.41503 -0.0033,0.18128 1.326559,-0.65216 2.955285,-1.85209 1.628725,-1.19993 4.03959,-2.97238 5.357475,-3.93878 z"
         id="path9" /><path
         style="fill:#939393;fill-opacity:1"
         d="m 85.2534,264.2124 c -12.969267,-0.78229 -26.694571,-3.66244 -39.079338,-8.20051 l -3.770313,-1.38153 V 217.22748 179.82459 H 4.9935003 -32.416749 l -1.239322,-3.37344 c -4.888554,-13.30666 -7.638215,-27.02225 -8.348573,-41.64354 -0.253997,-5.22803 -0.233162,-7.14849 0.15603,-14.38198 0.667879,-12.41311 3.875552,-27.289776 8.514539,-39.489058 l 0.930665,-2.447396 H 5.0001695 42.403749 V 40.953996 3.4188157 L 46.067642,2.0764316 C 76.700083,-9.1467428 109.40938,-9.1985119 140.16037,1.9275108 l 4.10796,1.4862999 V 40.951493 78.489176 h 37.27129 37.27128 l 0.93067,2.447396 c 9.34532,24.575668 11.27497,51.961298 5.48935,77.905278 -1.35836,6.09123 -3.94844,14.62533 -6.22767,20.51972 -0.16934,0.43793 -2.19878,0.46302 -37.45698,0.46302 h -37.27794 v 37.43854 c 0,20.59119 -0.0425,37.43854 -0.0944,37.43854 -0.052,0 -1.87287,0.64744 -4.0465,1.43875 -17.41545,6.34015 -36.65801,9.17074 -54.87399,8.07198 z M 62.393181,167.52146 c 2.944658,-2.11005 5.425847,-3.83646 5.513752,-3.83646 0.08791,0 2.50297,1.72519 5.366809,3.83374 2.863839,2.10855 5.255335,3.78538 5.314435,3.72628 0.0591,-0.0591 -0.633667,-2.46889 -1.539484,-5.35509 -0.905817,-2.8862 -1.798048,-5.73725 -1.982737,-6.33567 l -0.335797,-1.08804 5.466482,-3.93904 5.466481,-3.93905 -6.795424,-0.0706 -6.795424,-0.0706 -1.490354,-4.69193 c -0.819695,-2.58055 -1.74411,-5.49588 -2.054255,-6.47849 -0.310144,-0.98261 -0.645173,-1.69699 -0.744507,-1.5875 -0.09933,0.10949 -1.115066,3.02488 -2.257183,6.47865 l -2.076575,6.27958 -6.809968,0.0704 -6.809967,0.0704 5.167484,3.69894 c 2.842117,2.03441 5.305397,3.78417 5.473957,3.88834 0.367102,0.22688 0.320083,0.40859 -2.024753,7.8247 -0.931722,2.9468 -1.629433,5.35781 -1.550469,5.35781 0.07896,0 2.552838,-1.72641 5.497497,-3.83646 z m 50.993529,-0.18479 c 2.73318,-2.00842 5.04189,-3.65167 5.13047,-3.65167 0.0886,0 2.59048,1.74085 5.55977,3.86856 2.9693,2.1277 5.43543,3.82434 5.4803,3.77031 0.0449,-0.054 -0.83324,-2.97363 -1.95136,-6.48799 l -2.03294,-6.38975 5.52241,-3.929 5.52241,-3.929 -6.83725,-0.0704 -6.83724,-0.0704 -2.0861,-6.27956 c -1.14735,-3.45376 -2.15892,-6.36832 -2.24792,-6.47679 -0.16211,-0.19756 -0.39261,0.47179 -2.91372,8.46101 l -1.35535,4.29505 -6.79791,0.0706 -6.79791,0.0706 4.99436,3.57188 c 2.74689,1.96453 5.21196,3.75046 5.47792,3.96875 0.46234,0.37945 0.39702,0.66905 -1.48863,6.59944 -1.0847,3.41141 -1.97219,6.3057 -1.97219,6.43176 0,0.31348 0.017,0.30195 5.63088,-3.82329 z M 28.513125,133.51592 c 2.619375,-1.98297 4.899643,-3.68547 5.067263,-3.78334 0.171388,-0.10008 2.658967,1.56444 5.684173,3.80346 2.958677,2.18978 5.414885,3.875 5.458242,3.74493 0.04336,-0.13007 -0.746542,-2.84464 -1.755332,-6.03237 -1.00879,-3.18774 -1.875736,-5.99461 -1.926547,-6.2375 -0.06597,-0.31538 1.396982,-1.50672 5.117757,-4.16757 2.865577,-2.04927 5.283619,-3.84484 5.373427,-3.99015 0.10707,-0.17324 -2.15736,-0.26421 -6.57719,-0.26421 h -6.740477 l -2.166212,-6.49885 c -1.191417,-3.57437 -2.212166,-6.4529 -2.268332,-6.39674 -0.05617,0.0562 -0.883061,2.5937 -1.837547,5.63896 -0.954485,3.04526 -1.857228,5.92184 -2.006095,6.39238 l -0.270668,0.85554 -6.85893,0.0705 -6.858931,0.0705 5.525482,3.94238 5.525482,3.94238 -0.358483,1.0847 c -1.138314,3.44432 -3.55104,11.28074 -3.55104,11.53362 0,0.39954 -0.02785,0.41858 5.423958,-3.70863 z m 118.665615,1e-4 c 2.69214,-1.98081 5.03046,-3.68155 5.19628,-3.77941 0.16881,-0.0996 2.61337,1.56951 5.55478,3.79277 2.88931,2.18388 5.28985,3.86103 5.33453,3.72698 0.0666,-0.19981 -2.00533,-7.05198 -3.49771,-11.56738 l -0.35914,-1.08665 5.53847,-3.94043 5.53848,-3.94043 -6.89034,-0.0705 c -3.78969,-0.0388 -6.89035,-0.11162 -6.89035,-0.16183 0,-0.19563 -3.98944,-12.70881 -4.081,-12.80037 -0.0535,-0.0535 -1.07141,2.82526 -2.26202,6.39724 l -2.16477,6.4945 -6.84515,0.0705 -6.84515,0.0705 5.51409,3.94546 c 5.29068,3.7856 5.50483,3.97321 5.28533,4.63021 -0.82212,2.46083 -3.68258,11.75686 -3.68258,11.96782 0,0.34274 -0.0573,0.38144 5.55625,-3.74894 z M 86.589164,117.47231 c 1.964531,-1.4456 4.23102,-3.1136 5.036641,-3.70666 l 1.464766,-1.07831 5.4144,3.90645 c 2.977919,2.14855 5.444469,3.7706 5.481229,3.60456 0.0367,-0.16604 -0.81024,-3.07257 -1.88221,-6.45896 l -1.94904,-6.15708 5.38794,-3.86083 c 2.96337,-2.12346 5.38794,-3.964437 5.38794,-4.091061 0,-0.126625 -3.05568,-0.262003 -6.79039,-0.30084 l -6.79039,-0.07061 -2.064244,-6.186752 c -1.135334,-3.402713 -2.115545,-6.238053 -2.178247,-6.300755 -0.120929,-0.120929 -0.334291,0.511271 -2.674095,7.923444 l -1.4825,4.696354 h -6.73715 c -3.811914,0 -6.73715,0.103308 -6.73715,0.237931 0,0.130861 2.425676,1.970349 5.390391,4.087749 l 5.39039,3.84982 -1.94811,6.16485 c -2.025584,6.41002 -2.188782,7.07679 -1.622775,6.63009 0.181901,-0.14356 1.938073,-1.44379 3.902604,-2.88939 z"
         id="path8" /><path
         style="fill:#29a5d1;fill-opacity:1"
         d="m 85.423173,264.20251 c -12.873571,-0.73582 -27.098801,-3.71178 -39.260431,-8.2134 l -3.758993,-1.39139 V 217.21115 179.82459 H 5.0011572 -32.401435 l -1.138472,-3.10886 c -3.904999,-10.66348 -6.532763,-21.79126 -7.802349,-33.04056 -0.858028,-7.60265 -0.924743,-20.46831 -0.14457,-27.87975 1.30444,-12.39184 4.406015,-25.244286 8.891071,-36.843223 0.169344,-0.437945 2.205074,-0.463021 37.5892722,-0.463021 H 42.403749 V 40.969933 3.4506899 l 3.671045,-1.3672035 c 26.208018,-9.7606268 55.572446,-11.0863634 82.700296,-3.733729 5.79699,1.57119444 14.34472,4.4284266 15.16251,5.0683396 0.2618,0.2048594 0.33073,8.054434 0.33073,37.664936 v 37.406143 h 37.27794 c 35.2582,0 37.28764,0.02509 37.45698,0.463021 4.90126,12.675304 8.08603,26.608173 9.14735,40.018223 0.31249,3.94836 0.38906,15.39958 0.12595,18.83677 -1.07082,13.98931 -3.64494,25.97085 -8.38754,39.04084 l -1.08008,2.97656 h -37.2703 -37.2703 v 37.32081 37.3208 l -1.42592,0.63061 c -2.71736,1.20175 -11.02054,3.82409 -16.2985,5.14746 -13.77148,3.45299 -27.254095,4.75081 -41.120737,3.95824 z M 62.627104,167.3949 c 3.183197,-2.28994 5.314841,-3.65817 5.51378,-3.53911 0.178377,0.10675 2.583307,1.84801 5.344287,3.86947 2.760981,2.02145 5.05882,3.55881 5.106309,3.41634 0.06731,-0.20193 -2.075305,-7.2813 -3.624987,-11.97725 -0.216379,-0.65569 0.0043,-0.84863 5.296001,-4.63021 l 5.521788,-3.94601 -6.846974,-0.0705 -6.846975,-0.0705 -1.104841,-3.50139 c -0.607663,-1.92576 -1.5316,-4.84567 -2.053193,-6.48868 -0.521593,-1.643 -1.034165,-2.89316 -1.13905,-2.77812 -0.104884,0.11504 -1.125157,3.03497 -2.267274,6.48874 l -2.076575,6.27958 -6.849704,0.0704 -6.849705,0.0704 5.347108,3.81225 c 2.940909,2.09673 5.399673,3.94923 5.46392,4.11665 0.08714,0.22709 -2.712761,9.59184 -3.749137,12.53962 -0.217515,0.61868 0.444978,0.20152 5.815222,-3.66175 z m 50.948326,-0.13345 c 2.40177,-1.763 4.51427,-3.29508 4.69444,-3.40462 0.20504,-0.12466 2.27041,1.19923 5.52069,3.53871 5.37667,3.87001 6.02339,4.27802 5.80302,3.66111 -0.89672,-2.51036 -3.82528,-12.3359 -3.7417,-12.5537 0.0613,-0.15968 2.51761,-2.00584 5.45851,-4.10257 l 5.34711,-3.81225 -6.8497,-0.0704 -6.84971,-0.0704 -2.07657,-6.27958 c -1.14212,-3.45377 -2.16727,-6.37859 -2.27813,-6.49959 -0.11085,-0.12101 -0.64167,1.18868 -1.1796,2.91041 -0.53792,1.72174 -1.45248,4.64652 -2.03234,6.49951 l -1.05431,3.36908 -6.83681,0.0705 -6.83681,0.0705 5.49958,3.9463 5.49958,3.9463 -0.35072,1.08078 c -1.68341,5.18752 -3.55613,11.25778 -3.55613,11.52686 0,0.41979 0.32859,0.20371 5.8196,-3.82692 z m -85.135941,-33.635 c 2.659875,-1.99241 4.964715,-3.72162 5.121868,-3.84268 0.176363,-0.13587 2.331446,1.29709 5.630308,3.74368 2.939518,2.1801 5.443582,3.96381 5.564587,3.96381 0.121006,0 -0.693201,-2.88961 -1.809349,-6.42134 l -2.029359,-6.42134 5.515237,-3.96356 5.515238,-3.96355 -6.86824,-0.0705 -6.868239,-0.0705 -2.171789,-6.51559 c -1.336377,-4.00926 -2.24809,-6.37388 -2.370145,-6.14721 -0.109095,0.20261 -1.066082,3.13464 -2.126637,6.51564 l -1.928282,6.14725 -6.85842,0.0704 -6.858421,0.0705 5.526048,3.95743 5.526048,3.95743 -2.037144,6.44597 c -1.32492,4.19234 -1.909935,6.39716 -1.673294,6.30635 0.200117,-0.0768 2.540111,-1.76978 5.199985,-3.7622 z m 118.769971,-0.0942 c 3.22732,-2.38272 5.4739,-3.8733 5.64241,-3.74369 2.94788,2.2673 10.04536,7.49622 10.31594,7.60005 0.23616,0.0906 -0.35299,-2.12269 -1.68014,-6.31198 l -2.04382,-6.45154 5.53902,-3.9518 5.53902,-3.95179 -6.86907,-0.0705 -6.86907,-0.0705 -1.92438,-6.14724 c -1.05841,-3.38099 -2.01336,-6.31302 -2.12211,-6.51563 -0.1214,-0.22617 -1.03607,2.14673 -2.36952,6.14721 l -2.17179,6.51559 -6.87432,0.0705 -6.87432,0.0705 5.52387,3.95482 5.52387,3.95483 -2.03702,6.43007 c -1.12036,3.53653 -1.94116,6.43007 -1.824,6.43007 0.11716,0 2.62611,-1.78157 5.57543,-3.95904 z M 87.515205,116.82319 c 2.764896,-2.04613 5.176567,-3.78226 5.35927,-3.85807 0.182702,-0.0758 2.776866,1.61684 5.764808,3.76146 2.987947,2.14461 5.470497,3.85424 5.516777,3.79917 0.0463,-0.0551 -0.78595,-2.83856 -1.84941,-6.18553 -1.06347,-3.34698 -1.93617,-6.26401 -1.93934,-6.4823 -0.003,-0.21828 2.42559,-2.12328 5.39726,-4.23333 2.97166,-2.11005 5.40928,-3.925754 5.41693,-4.034894 0.008,-0.109141 -3.07181,-0.198438 -6.84325,-0.198438 h -6.857155 l -2.039428,-6.151562 c -1.121686,-3.383359 -2.134541,-6.255591 -2.250789,-6.382738 -0.116247,-0.127147 -0.883188,1.896915 -1.704312,4.497916 -0.821124,2.601001 -1.73288,5.473233 -2.026124,6.382738 l -0.533172,1.653646 h -6.857594 c -3.771677,0 -6.851597,0.0893 -6.844267,0.198438 0.0073,0.10914 2.447271,1.924844 5.42209,4.034894 2.974819,2.11005 5.409603,3.99168 5.41063,4.1814 0.0015,0.27278 -2.497181,8.39641 -3.698435,12.02433 -0.132506,0.40018 -0.157816,0.72434 -0.05625,0.72035 0.101571,-0.004 2.446862,-1.68136 5.211757,-3.72748 z"
         id="path7" /><path
         style="fill:#858585;fill-opacity:1"
         d="M 85.530831,264.21912 C 71.594885,263.30207 58.055756,260.4379 45.512603,255.75336 l -3.108854,-1.16108 v -37.38385 -37.38384 h 50.762306 50.762305 l 0.12124,1.52135 c 0.0967,1.21311 0.0783,68.04854 -0.0199,72.20809 l -0.026,1.10132 -2.06887,0.79002 c -8.48365,3.2396 -19.09097,6.0182 -28.36846,7.43114 -8.38291,1.27671 -20.337246,1.84919 -28.035579,1.34261 z M 42.403749,40.97032 V 3.4514648 l 3.770313,-1.3969295 c 29.90966,-11.081757 63.342068,-11.1729211 93.543588,-0.2550762 1.93552,0.6996879 3.71138,1.3797534 3.94636,1.5112567 0.38988,0.2181859 0.4299,3.4871971 0.45759,37.3780492 0.0167,20.426424 -0.0157,37.287781 -0.0721,37.469682 -0.0815,0.263078 -10.48776,0.330729 -50.874101,0.330729 h -50.77169 z"
         id="path6" /><path
         style="fill:#7f7f7f;fill-opacity:1"
         d="m 85.927706,264.22382 c -9.755846,-0.60291 -19.158788,-2.13759 -28.450396,-4.64347 -3.647478,-0.9837 -10.374667,-3.18371 -13.159353,-4.30354 l -1.781916,-0.71657 v -37.30168 -37.30168 l 50.733852,-0.0668 50.733847,-0.0668 v 37.41606 37.41606 l -2.06887,0.79002 c -9.23711,3.52732 -21.54244,6.60984 -31.26862,7.83287 -7.81373,0.98254 -17.901371,1.36812 -24.738544,0.94558 z M 42.403749,40.838151 V 3.4517087 l 2.711979,-1.0080584 c 23.53314,-8.7474054 48.225793,-11.0004439 72.429682,-6.6087216 7.32986,1.3299806 17.63886,4.19106674 24.38946,6.7688792 l 2.06887,0.7900268 V 40.809214 78.224593 H 93.203747 42.403749 Z"
         id="path5" /><path
         style="fill:#787878;fill-opacity:1"
         d="m 86.32458,264.21719 c -9.013543,-0.48829 -17.904473,-1.85574 -26.722915,-4.11004 -4.680973,-1.19662 -11.996374,-3.50838 -15.2781,-4.82808 l -1.787524,-0.71882 -0.06706,-37.23554 -0.06706,-37.23554 h 50.800912 50.800907 v 37.27964 37.27965 l -3.24114,1.18803 c -17.67265,6.47783 -36.38552,9.35866 -54.438018,8.3807 z M 42.468983,40.856763 42.536041,3.4889324 44.388124,2.7421407 c 5.630508,-2.27031705 16.153445,-5.2726696 23.294346,-6.6462278 8.496268,-1.6342642 16.336241,-2.3546349 25.653568,-2.3571614 16.677042,-0.00452 31.541722,2.6514253 47.426562,8.4739421 l 3.24114,1.1880275 V 40.812657 78.224593 H 93.202835 42.401925 Z"
         id="path4" /><path
         style="fill:#717171;fill-opacity:1"
         d="m 86.837051,264.21061 c -13.681499,-0.62242 -28.993577,-3.79563 -41.721323,-8.64616 l -2.447395,-0.9327 v -37.27129 -37.27129 h 50.667705 50.667702 v 37.27964 37.27965 l -3.24114,1.19049 c -13.5167,4.96477 -27.13137,7.70423 -41.66569,8.38371 -5.971744,0.27918 -5.855872,0.27929 -12.259859,-0.0121 z M 42.668333,40.805063 V 3.3855334 L 44.189687,2.8063816 C 75.94008,-9.2804148 110.15982,-9.3220563 142.08552,2.6872535 l 1.91822,0.7215694 V 40.816708 78.224593 H 93.336038 42.668333 Z"
         id="path3" /><path
         style="fill:#6a6a6a;fill-opacity:1"
         d="m 87.11833,264.20926 c -13.828938,-0.63583 -28.047791,-3.52037 -41.164988,-8.35103 l -3.285009,-1.20977 v -37.27965 -37.27964 h 50.667705 50.667702 v 37.27796 37.27796 l -3.37343,1.23534 c -10.44471,3.82483 -21.66995,6.46397 -32.67838,7.68295 -3.4572,0.38283 -13.561651,0.95587 -15.541933,0.88142 -0.509323,-0.0191 -2.890573,-0.12514 -5.291667,-0.23554 z M 42.668333,40.812657 V 3.4007211 l 3.241145,-1.1880275 c 6.658001,-2.44046057 13.076729,-4.2938411 19.389675,-5.5986867 25.349224,-5.2395227 51.024527,-3.3462858 75.331157,5.5547427 l 3.37343,1.2353448 V 40.814344 78.224593 H 93.336038 42.668333 Z"
         id="path2" /><path
         style="fill:#be3530;fill-opacity:1"
         d="m 87.91208,264.20253 c -14.18667,-0.5538 -28.205872,-3.3298 -41.601224,-8.23761 l -3.642523,-1.33456 v -37.27059 -37.2706 h 50.667705 50.667702 v 37.25415 37.25415 l -2.57968,0.9499 c -13.56321,4.99429 -28.38287,8.08474 -41.02238,8.55469 -1.994332,0.0742 -4.519027,0.17009 -5.610433,0.21318 -1.091406,0.0431 -4.187031,-0.008 -6.879167,-0.11271 z M 42.668333,40.821704 V 3.4188157 l 3.727642,-1.365741 c 13.308367,-4.8759459 27.688602,-7.7128215 41.516105,-8.1901323 18.40336,-0.6352644 34.47646,1.861321 51.92448,8.0652679 l 4.16718,1.4817162 V 40.81726 78.224593 H 93.336038 42.668333 Z"
         id="path1" /></g></g></svg>
