<?xml version="1.0" encoding="UTF-8" standalone="no"?>
<svg
   id="Layer_1"
   data-name="Layer 1"
   viewBox="0 0 960 960"
   version="1.1"
   sodipodi:docname="al.svg"
   inkscape:version="1.4 (86a8ad7, 2024-10-11)"
   xmlns:inkscape="http://www.inkscape.org/namespaces/inkscape"
   xmlns:sodipodi="http://sodipodi.sourceforge.net/DTD/sodipodi-0.dtd"
   xmlns="http://www.w3.org/2000/svg"
   xmlns:svg="http://www.w3.org/2000/svg">
  <sodipodi:namedview
     id="namedview2"
     pagecolor="#ffffff"
     bordercolor="#666666"
     borderopacity="1.0"
     inkscape:showpageshadow="2"
     inkscape:pageopacity="0.0"
     inkscape:pagecheckerboard="0"
     inkscape:deskcolor="#d1d1d1"
     inkscape:zoom="0.42447917"
     inkscape:cx="237.93865"
     inkscape:cy="594.84663"
     inkscape:window-width="1920"
     inkscape:window-height="1017"
     inkscape:window-x="-8"
     inkscape:window-y="-8"
     inkscape:window-maximized="1"
     inkscape:current-layer="Layer_1" />
  <defs
     id="defs1">
    <style
       id="style1">
      .cls-1 {
        fill: #eb2627;
      }

      .cls-1, .cls-2, .cls-3 {
        stroke-width: 0px;
      }

      .cls-2 {
        fill: #fff;
      }

      .cls-4 {
        mask: url(#mask);
      }

      .cls-3 {
        fill: #020303;
      }
    </style>
    <mask
       id="mask"
       x="4.68"
       y="4.77"
       width="950.55"
       height="950.55"
       maskUnits="userSpaceOnUse">
      <g
         id="a">
        <circle
           class="cls-2"
           cx="479.96"
           cy="480.04"
           r="475.27"
           id="circle1" />
      </g>
    </mask>
  </defs>
  <g
     class="cls-4"
     mask="url(#mask)"
     id="g1">
    <path
       class="cls-1"
       d="M4.68,4.77h950.55v950.55H4.68V4.77Z"
       id="path1" />
  </g>
  <g
     id="g2">
    <path
       id="al-a"
       class="cls-3"
       d="M388.32,241.29c-8.78,0-23.48,2.86-23.29,9.55-24.82-4.01-27.3,6.11-25.77,15.27,2.29-3.63,5.15-5.73,7.45-5.92,3.25-.57,6.68.57,10.31,2.67,3.42,2.15,6.51,4.78,9.16,7.83-8.78,2.1-15.65.76-22.53-.38-3.88-.83-7.58-2.38-10.88-4.58-2.86-1.91-3.82-3.82-8.21-8.21-5.15-5.35-10.69-3.82-8.97,4.39,4.01,7.64,10.69,11.07,19.09,12.6,4.01.57,10.12,1.91,16.99,1.91s14.51-.95,18.71,0c-2.48,1.53-5.35,4.39-11.07,5.35-5.73,1.15-14.32-3.44-19.66-4.58.57,4.39,6.3,8.59,17.37,10.88,18.33,3.82,33.41,6.87,43.53,12.41,8,4.46,15.07,10.43,20.81,17.56,8.97,10.5,9.55,18.71,9.93,20.62,1.91,16.8-4.01,26.35-15.08,29.4-5.35,1.34-15.27-1.34-18.71-5.54-3.82-4.2-7.06-11.45-6.11-22.91.95-4.2,5.92-15.85,1.72-18.14-19.91-10.94-40.5-20.57-61.66-28.83-4.77-1.91-8.59,4.58-10.12,7.25-28.55-3.98-53.79-20.6-68.73-45.25-8.02-14.51-21.57,0-19.28,13.94,3.63,15.27,15.27,26.35,29.4,34.36,14.32,7.83,32.45,15.65,50.59,15.27,9.93,1.91,9.74,14.51-1.91,16.99-23.1,0-41.62-.38-58.99-17.18-13.17-12.03-20.43,2.29-16.8,10.31,6.49,25.01,42.19,32.07,78.27,24.05,14.13-2.29,5.73,12.6,1.91,12.79-15.27,10.88-42.19,21.38-66.06,0-10.88-8.4-18.33-1.53-14.13,10.5,10.5,31.5,50.97,24.82,78.66,9.55,7.06-4.01,13.55,5.15,4.96,12.22-34.55,24.05-51.74,24.44-67.39,15.27-19.47-7.83-21,13.75-9.55,21,12.79,7.64,45.44,1.91,69.49-13.36,10.31-7.64,10.69,4.39,4.2,9.16-28.45,24.63-39.71,31.12-69.3,27.11-14.7-1.15-14.51,16.99-3.05,24.05,15.85,9.74,46.77-6.3,70.64-26.35,10.12-5.35,11.84,3.44,6.87,13.94-10.57,14.95-24.94,26.82-41.62,34.36-13.36,5.15-25.96,4.39-34.94,1.34-11.07-3.82-12.41,7.64-6.3,17.95,3.63,6.3,18.71,8.21,35.13,2.48,16.42-5.73,33.98-19.47,46.01-35.32,10.5-9.35,9.35,3.05,4.39,11.84-24.05,38.18-46.2,52.31-75.41,50.02-12.79-2.29-15.85,7.64-7.64,17.18,14.51,11.84,32.45,11.45,48.49-.38,13.94-13.36,40.86-42.76,54.98-58.42,9.93-7.83,13.17,0,10.12,16.04-2.67,9.16-9.16,19.09-27.3,25.96-12.41,7.06-3.05,16.8,6.11,17.18,5.15,0,15.46-6.11,23.48-14.89,10.31-11.84,11.07-19.66,16.8-37.99,5.35-8.78,15.08-4.58,15.08,4.58-4.77,18.33-8.59,21.57-18.14,29.02-8.97,8.59,6.3,11.45,11.45,7.83,14.89-9.93,20.24-22.91,25.2-34.75,3.82-8.4,14.13-4.39,9.16,9.55-11.45,33.22-30.55,46.2-63.57,53.07-3.25.57-5.35,2.48-4.2,6.3l13.36,13.36c-20.43,6.11-37.04,9.55-57.66,15.27l-28.25-18.71c-2.48-6.11-3.82-15.65-18.71-8.97-9.93-4.58-14.7-2.86-20.24,1.91,8.02,0,11.45,2.29,14.7,5.92,4.2,10.88,13.75,12.03,23.48,8.97,6.3,5.15,9.55,9.35,16.04,14.7l-31.88-.95c-11.45-12.03-20.24-11.45-28.25-1.91-6.3.95-8.78.95-12.98,8.4,6.49-2.67,10.69-3.44,13.55-.57,12.03,7.06,19.85,5.54,25.77,0l33.41,2.1c-4.2,3.82-9.93,5.73-14.32,9.16-17.18-4.96-26.35,1.91-29.4,15.85-2.41,5.59-3.21,11.74-2.29,17.75,1.53-5.73,4.39-10.5,9.35-13.36,15.27,3.82,21-2.48,21.95-11.65,7.64-6.11,18.71-7.45,26.15-13.55,8.78,2.67,12.98,4.39,21.76,7.25,3.05,9.55,10.12,13.17,21.57,10.69,13.36.38,11.07,6.11,12.22,10.5,3.82-6.3,3.63-12.6-4.77-18.33-3.05-8.21-9.93-12.03-18.71-7.25-8.4-2.29-10.5-5.73-18.9-8.21,21-6.68,35.89-8.21,56.89-14.89l14.7,12.98c2.86,1.72,5.54,2.1,7.25,0,13.17-19.09,19.09-35.7,31.12-48.3,4.77-5.35,10.69-12.22,17.18-13.94,3.25-.95,7.25-.38,9.93,2.48,2.48,2.67,4.58,7.83,3.82,15.65-1.34,10.88-4.01,14.51-7.06,21-3.25,6.68-6.87,10.69-10.88,15.85-7.64,10.12-17.95,16.04-24.05,20.05-12.22,7.83-17.18,4.39-26.73,3.82-12.22,1.34-15.27,7.25-5.35,15.46,9.16,4.96,17.56,5.54,24.44,4.2,5.73-1.15,12.6-8.59,17.56-12.6,5.35-6.3,14.51,1.15,8.21,8.59-11.26,13.36-22.34,22.15-36.27,21.95-14.7,1.91-11.84,10.12-2.29,14.13,17.56,7.06,33.22-6.3,41.24-15.27,6.11-6.68,10.5-6.87,9.55,3.63-6.3,18.9-14.51,26.15-28.25,27.11-11.07-1.15-11.26,7.64-3.05,13.36,18.33,12.6,31.69-9.16,37.99-22.15,4.39-11.84,11.26-6.3,12.03,3.44,0,13.17-5.73,23.67-21.57,37.04,12.03,19.28,26.15,38.95,38.18,58.23l36.65-408.55-36.65-64.34c-3.82-3.44-16.8-18.71-20.05-21-1.34-1.15-1.91-1.91-.19-2.67s5.73-1.53,8.59-1.91c-7.64-7.83-14.51-10.31-29.21-14.51,3.63-1.53,7.06-.76,17.75-1.15-6.56-8.81-15.5-15.57-25.77-19.47,8.02-5.73,9.55-6.11,17.56-12.79-12.65-.98-25.14-3.41-37.23-7.25-7.22-3.43-14.96-5.62-22.91-6.49h-.19ZM389.85,257.32c7.25,0,11.65,2.48,11.65,5.54s-4.39,5.54-11.65,5.54-11.84-2.86-11.84-5.73c0-3.05,4.58-5.35,11.84-5.35" />
    <path
       id="al-a-2"
       data-name="al-a"
       class="cls-3"
       d="M571.59,241.29c8.78,0,23.48,2.86,23.29,9.55,24.82-4.01,27.3,6.11,25.77,15.27-2.29-3.63-5.15-5.73-7.45-5.92-3.25-.57-6.68.57-10.31,2.67-3.42,2.15-6.51,4.78-9.16,7.83,8.78,2.1,15.65.76,22.53-.38,3.88-.83,7.58-2.38,10.88-4.58,2.86-1.91,3.82-3.82,8.21-8.21,5.15-5.35,10.69-3.82,8.97,4.39-4.01,7.64-10.69,11.07-19.09,12.6-4.01.57-10.12,1.91-16.99,1.91s-14.51-.95-18.71,0c2.48,1.53,5.35,4.39,11.07,5.35,5.73,1.15,14.32-3.44,19.66-4.58-.57,4.39-6.3,8.59-17.37,10.88-18.33,3.82-33.41,6.87-43.53,12.41-8,4.46-15.07,10.43-20.81,17.56-8.97,10.5-9.55,18.71-9.93,20.62-1.91,16.8,4.01,26.35,15.08,29.4,5.35,1.34,15.27-1.34,18.71-5.54,3.82-4.2,7.06-11.45,6.11-22.91-.95-4.2-5.92-15.85-1.72-18.14,19.91-10.94,40.5-20.57,61.66-28.83,4.77-1.91,8.59,4.58,10.12,7.25,28.55-3.98,53.79-20.6,68.73-45.25,8.02-14.51,21.57,0,19.28,13.94-3.63,15.27-15.27,26.35-29.4,34.36-14.32,7.83-32.45,15.65-50.59,15.27-9.93,1.91-9.74,14.51,1.91,16.99,23.1,0,41.62-.38,58.99-17.18,13.17-12.03,20.43,2.29,16.8,10.31-6.49,25.01-42.19,32.07-78.27,24.05-14.13-2.29-5.73,12.6-1.91,12.79,15.27,10.88,42.19,21.38,66.06,0,10.88-8.4,18.33-1.53,14.13,10.5-10.5,31.5-50.97,24.82-78.66,9.55-7.06-4.01-13.55,5.15-4.96,12.22,34.55,24.05,51.74,24.44,67.39,15.27,19.47-7.83,21,13.75,9.55,21-12.79,7.64-45.44,1.91-69.49-13.36-10.31-7.64-10.69,4.39-4.2,9.16,28.45,24.63,39.71,31.12,69.3,27.11,14.7-1.15,14.51,16.99,3.05,24.05-15.85,9.74-46.77-6.3-70.64-26.35-10.12-5.35-11.84,3.44-6.87,13.94,10.57,14.95,24.94,26.82,41.62,34.36,13.36,5.15,25.96,4.39,34.94,1.34,11.07-3.82,12.41,7.64,6.3,17.95-3.63,6.3-18.71,8.21-35.13,2.48-16.42-5.73-33.98-19.47-46.01-35.32-10.5-9.35-9.35,3.05-4.39,11.84,24.05,38.18,46.2,52.31,75.41,50.02,12.79-2.29,15.85,7.64,7.64,17.18-14.51,11.84-32.45,11.45-48.49-.38-13.94-13.36-40.86-42.76-54.98-58.42-9.93-7.83-13.17,0-10.12,16.04,2.67,9.16,9.16,19.09,27.3,25.96,12.41,7.06,3.05,16.8-6.11,17.18-5.15,0-15.46-6.11-23.48-14.89-10.31-11.84-11.07-19.66-16.8-37.99-5.35-8.78-15.08-4.58-15.08,4.58,4.77,18.33,8.59,21.57,18.14,29.02,8.97,8.59-6.3,11.45-11.45,7.83-14.89-9.93-20.24-22.91-25.2-34.75-3.82-8.4-14.13-4.39-9.16,9.55,11.45,33.22,30.55,46.2,63.57,53.07,3.25.57,5.35,2.48,4.2,6.3l-13.36,13.36c20.43,6.11,37.04,9.55,57.66,15.27l28.25-18.71c2.48-6.11,3.82-15.65,18.71-8.97,9.93-4.58,14.7-2.86,20.24,1.91-8.02,0-11.45,2.29-14.7,5.92-4.2,10.88-13.75,12.03-23.48,8.97-6.3,5.15-9.55,9.35-16.04,14.7l31.88-.95c11.45-12.03,20.24-11.45,28.25-1.91,6.3.95,8.78.95,12.98,8.4-6.49-2.67-10.69-3.44-13.55-.57-12.03,7.06-19.85,5.54-25.77,0l-33.41,2.1c4.2,3.82,9.93,5.73,14.32,9.16,17.18-4.96,26.35,1.91,29.4,15.85,2.41,5.59,3.21,11.74,2.29,17.75-1.53-5.73-4.39-10.5-9.35-13.36-15.27,3.82-21-2.48-21.95-11.65-7.64-6.11-18.71-7.45-26.15-13.55-8.78,2.67-12.98,4.39-21.76,7.25-3.05,9.55-10.12,13.17-21.57,10.69-13.36.38-11.07,6.11-12.22,10.5-3.82-6.3-3.63-12.6,4.77-18.33,3.05-8.21,9.93-12.03,18.71-7.25,8.4-2.29,10.5-5.73,18.9-8.21-21-6.68-35.89-8.21-56.89-14.89l-14.7,12.98c-2.86,1.72-5.54,2.1-7.25,0-13.17-19.09-19.09-35.7-31.12-48.3-4.77-5.35-10.69-12.22-17.18-13.94-3.25-.95-7.25-.38-9.93,2.48-2.48,2.67-4.58,7.83-3.82,15.65,1.34,10.88,4.01,14.51,7.06,21,3.25,6.68,6.87,10.69,10.88,15.85,7.64,10.12,17.95,16.04,24.05,20.05,12.22,7.83,17.18,4.39,26.73,3.82,12.22,1.34,15.27,7.25,5.35,15.46-9.16,4.96-17.56,5.54-24.44,4.2-5.73-1.15-12.6-8.59-17.56-12.6-5.35-6.3-14.51,1.15-8.21,8.59,11.26,13.36,22.34,22.15,36.27,21.95,14.7,1.91,11.84,10.12,2.29,14.13-17.56,7.06-33.22-6.3-41.24-15.27-6.11-6.68-10.5-6.87-9.55,3.63,6.3,18.9,14.51,26.15,28.25,27.11,11.07-1.15,11.26,7.64,3.05,13.36-18.33,12.6-31.69-9.16-37.99-22.15-4.39-11.84-11.26-6.3-12.03,3.44,0,13.17,5.73,23.67,21.57,37.04-12.03,19.28-26.15,38.95-38.18,58.23l-36.65-408.55,36.65-64.34c3.82-3.44,16.8-18.71,20.05-21,1.34-1.15,1.91-1.91.19-2.67s-5.73-1.53-8.59-1.91c7.64-7.83,14.51-10.31,29.21-14.51-3.63-1.53-7.06-.76-17.75-1.15,6.56-8.81,15.5-15.57,25.77-19.47-8.02-5.73-9.55-6.11-17.56-12.79,12.65-.98,25.14-3.41,37.23-7.25,7.22-3.43,14.96-5.62,22.91-6.49h.19ZM570.07,257.32c-7.25,0-11.65,2.48-11.65,5.54s4.39,5.54,11.65,5.54,11.84-2.86,11.84-5.73c0-3.05-4.58-5.35-11.84-5.35" />
  </g>
</svg>
