<?xml version="1.0" encoding="UTF-8" standalone="no"?>
<svg
   id="Layer_1"
   data-name="Layer 1"
   viewBox="0 0 960 960"
   version="1.1"
   sodipodi:docname="ar.svg"
   inkscape:version="1.4 (86a8ad7, 2024-10-11)"
   xmlns:inkscape="http://www.inkscape.org/namespaces/inkscape"
   xmlns:sodipodi="http://sodipodi.sourceforge.net/DTD/sodipodi-0.dtd"
   xmlns="http://www.w3.org/2000/svg"
   xmlns:svg="http://www.w3.org/2000/svg">
  <sodipodi:namedview
     id="namedview6"
     pagecolor="#ffffff"
     bordercolor="#666666"
     borderopacity="1.0"
     inkscape:showpageshadow="2"
     inkscape:pageopacity="0.0"
     inkscape:pagecheckerboard="0"
     inkscape:deskcolor="#d1d1d1"
     inkscape:zoom="0.42447917"
     inkscape:cx="548.90798"
     inkscape:cy="321.57055"
     inkscape:window-width="1920"
     inkscape:window-height="1017"
     inkscape:window-x="-8"
     inkscape:window-y="-8"
     inkscape:window-maximized="1"
     inkscape:current-layer="Layer_1" />
  <defs
     id="defs1">
    <style
       id="style1">
      .cls-1 {
        fill: #fff;
      }

      .cls-1, .cls-2, .cls-3, .cls-4 {
        stroke-width: 0px;
      }

      .cls-5 {
        stroke-miterlimit: 3.84;
        stroke-width: 1.06px;
      }

      .cls-5, .cls-6, .cls-7, .cls-8, .cls-9 {
        fill: #f3b31b;
        stroke: #84381c;
      }

      .cls-2 {
        fill: #84381c;
      }

      .cls-3 {
        fill: #eeedee;
      }

      .cls-6 {
        stroke-miterlimit: 3.84;
      }

      .cls-6, .cls-9 {
        stroke-width: 1.06px;
      }

      .cls-7 {
        stroke-width: 1.4px;
      }

      .cls-10 {
        mask: url(#mask);
      }

      .cls-8 {
        stroke-miterlimit: 3.84;
        stroke-width: 1.06px;
      }

      .cls-4 {
        fill: #75abdc;
      }

      .cls-9 {
        stroke-miterlimit: 3.84;
      }
    </style>
    <mask
       id="mask"
       x="0"
       y=".09"
       width="959.91"
       height="959.91"
       maskUnits="userSpaceOnUse">
      <g
         id="a">
        <circle
           class="cls-1"
           cx="479.96"
           cy="480.04"
           r="479.96"
           id="circle1" />
      </g>
    </mask>
  </defs>
  <g
     class="cls-10"
     mask="url(#mask)"
     id="g3">
    <g
       id="g2">
      <path
         class="cls-4"
         d="M0,.09h959.91v271.29l-45,208.67,45,208.67v271.29H0v-271.29l48.75-208.67L0,271.38V.09Z"
         id="path1" />
      <path
         class="cls-3"
         d="M0,271.38h959.91v417.34H0v-417.34Z"
         id="path2" />
    </g>
  </g>
  <g
     id="g6">
    <g
       id="ar-c">
      <path
         id="ar-a"
         class="cls-5"
         d="M468.56,485.39l64.89,141.17s1.14,2.73,2.96,2.05c1.82-.91.68-3.64.68-3.64l-53.96-145.72M481.54,534.34c-.91,21.4,12.3,33.24,10.7,52.37-1.82,19.35,8.65,30.06,11.38,37.57,2.28,7.51-2.73,11.84-.68,12.98,2.28,1.14,6.83-4.78,5.46-15.48-1.59-10.47-9.56-13.66-7.74-37.11,1.82-23.45-9.56-28.92-6.83-50.09" />
      <path
         id="ar-a-2"
         data-name="ar-a"
         class="cls-9"
         d="M467.98,482.37l5.93,155.26s0,2.96,1.95,3.03c2.03-.14,2.03-3.1,2.03-3.1l5.91-155.28M461.24,532.57c-9.03,19.43-1.36,35.42-10.15,52.48-9.09,17.18-3.51,31.08-3.86,39.07-.77,7.81-7.06,9.89-5.6,11.73,1.67,1.92,8.14-1.8,10.97-12.21,2.54-10.29-3.61-16.28,7.05-37.25,10.66-20.97,2.23-30.38,12.86-48.89" />
      <path
         id="ar-a-3"
         data-name="ar-a"
         class="cls-8"
         d="M468.6,479.37l-53.94,145.71s-1.13,2.74.64,3.54c1.93.64,3.06-2.09,3.06-2.09l64.88-141.2M443.16,523.16c-15.78,14.49-14.81,32.2-29.46,44.6-14.97,12.4-15.13,27.37-18.52,34.62-3.7,6.92-10.3,6.44-9.66,8.69.81,2.42,8.21,1.45,14.81-7.08,6.28-8.53,2.9-16.42,20.77-31.72,17.87-15.3,13.69-27.21,30.59-40.25" />
      <path
         id="ar-a-4"
         data-name="ar-a"
         class="cls-6"
         d="M470.32,476.83l-105.59,113.98s-2.09,2.1-.76,3.52c1.54,1.33,3.63-.76,3.63-.76l113.98-105.62M430.06,507.55c-20.12,7.35-26.01,24.08-44.29,29.93-18.58,5.72-24.46,19.5-30.35,24.9-6.07,4.98-11.98,2.01-12.25,4.34-.18,2.54,7.03,4.48,16.4-.88,9.07-5.48,8.96-14.06,31.33-21.36,22.36-7.29,23.06-19.9,43.67-25.48" />
      <path
         id="ar-b"
         class="cls-2"
         d="M485.63,537.98c1.14,20.49,12.75,29.6,10.47,48.5,5.01-14.8-7.06-26.41-6.38-48.27M472.2,484.02l44.4,97-37.11-99.96" />
      <path
         id="ar-b-2"
         data-name="ar-b"
         class="cls-2"
         d="M463.63,537.5c-6.79,19.37.45,32.23-8.88,48.82,10.29-11.76,3.59-27.1,12.58-47.04M471.87,482.51l3.9,106.61,3.96-106.55" />
      <path
         id="ar-b-3"
         data-name="ar-b"
         class="cls-2"
         d="M443.48,528.64c-13.69,15.3-11.91,29.95-26.89,41.7,14.01-6.92,13.69-23.67,29.62-38.64M472.14,480.98l-37.19,99.98,44.44-96.92" />
      <path
         id="ar-b-4"
         data-name="ar-b"
         class="cls-2"
         d="M428.26,512.73c-18.5,8.89-22.47,23.11-40.8,28.24,15.59-1.04,21.7-16.63,42.16-24.36M472.98,479.67l-72.62,78.14,78.15-72.54" />
    </g>
    <g
       id="ar-c-2"
       data-name="ar-c">
      <path
         id="ar-a-5"
         data-name="ar-a"
         class="cls-5"
         d="M472.88,475.14l-141.17,64.89s-2.73,1.14-2.05,2.96c.91,1.82,3.64.68,3.64.68l145.72-53.96M423.93,488.12c-21.4-.91-33.24,12.3-52.37,10.7-19.35-1.82-30.06,8.65-37.57,11.38-7.51,2.28-11.84-2.73-12.98-.68-1.14,2.28,4.78,6.83,15.48,5.46,10.47-1.59,13.66-9.56,37.11-7.74,23.45,1.82,28.92-9.56,50.09-6.83" />
      <path
         id="ar-a-6"
         data-name="ar-a"
         class="cls-9"
         d="M475.9,474.56l-155.26,5.93s-2.96,0-3.03,1.95c.14,2.03,3.1,2.03,3.1,2.03l155.28,5.91M425.7,467.82c-19.43-9.03-35.42-1.36-52.48-10.15-17.18-9.09-31.08-3.51-39.07-3.86-7.81-.77-9.89-7.06-11.73-5.6-1.92,1.67,1.8,8.14,12.21,10.97,10.29,2.54,16.28-3.61,37.25,7.05,20.97,10.66,30.38,2.23,48.89,12.86" />
      <path
         id="ar-a-7"
         data-name="ar-a"
         class="cls-8"
         d="M478.9,475.18l-145.71-53.94s-2.74-1.13-3.54.64c-.64,1.93,2.09,3.06,2.09,3.06l141.2,64.88M435.11,449.74c-14.49-15.78-32.2-14.81-44.6-29.46-12.4-14.97-27.37-15.13-34.62-18.52-6.92-3.7-6.44-10.3-8.69-9.66-2.42.81-1.45,8.21,7.08,14.81,8.53,6.28,16.42,2.9,31.72,20.77,15.3,17.87,27.21,13.69,40.25,30.59" />
      <path
         id="ar-a-8"
         data-name="ar-a"
         class="cls-9"
         d="M481.44,476.9l-113.98-105.59s-2.1-2.09-3.52-.76c-1.33,1.54.76,3.63.76,3.63l105.62,113.98M450.72,436.64c-7.35-20.12-24.08-26.01-29.93-44.29-5.72-18.58-19.5-24.46-24.9-30.35-4.98-6.07-2.01-11.98-4.34-12.25-2.54-.18-4.48,7.03.88,16.4,5.48,9.07,14.06,8.96,21.36,31.33,7.29,22.36,19.9,23.06,25.48,43.67" />
      <path
         id="ar-b-5"
         data-name="ar-b"
         class="cls-2"
         d="M420.29,492.22c-20.49,1.14-29.6,12.75-48.5,10.47,14.8,5.01,26.41-7.06,48.27-6.38M474.25,478.78l-97,44.4,99.96-37.11" />
      <path
         id="ar-b-6"
         data-name="ar-b"
         class="cls-2"
         d="M420.77,470.21c-19.37-6.79-32.23.45-48.82-8.88,11.76,10.29,27.1,3.59,47.04,12.58M475.77,478.45l-106.61,3.9,106.55,3.96" />
      <path
         id="ar-b-7"
         data-name="ar-b"
         class="cls-2"
         d="M429.64,450.07c-15.3-13.69-29.95-11.91-41.7-26.89,6.92,14.01,23.67,13.69,38.64,29.62M477.29,478.72l-99.98-37.19,96.92,44.44" />
      <path
         id="ar-b-8"
         data-name="ar-b"
         class="cls-2"
         d="M445.54,434.85c-8.89-18.5-23.11-22.47-28.24-40.8,1.04,15.59,16.63,21.7,24.36,42.16M478.6,479.56l-78.14-72.62,72.54,78.15" />
    </g>
    <g
       id="ar-c-3"
       data-name="ar-c">
      <path
         id="ar-a-9"
         data-name="ar-a"
         class="cls-5"
         d="M483.13,479.47l-64.89-141.17s-1.14-2.73-2.96-2.05c-1.82.91-.68,3.64-.68,3.64l53.96,145.72M470.15,430.51c.91-21.4-12.3-33.24-10.7-52.37,1.82-19.35-8.65-30.06-11.38-37.57-2.28-7.51,2.73-11.84.68-12.98-2.28-1.14-6.83,4.78-5.46,15.48,1.59,10.47,9.56,13.66,7.74,37.11-1.82,23.45,9.56,28.92,6.83,50.09" />
      <path
         id="ar-a-10"
         data-name="ar-a"
         class="cls-9"
         d="M483.71,482.48l-5.93-155.26s0-2.96-1.95-3.03c-2.03.14-2.03,3.1-2.03,3.1l-5.91,155.28M490.45,432.29c9.03-19.43,1.36-35.42,10.15-52.48,9.09-17.18,3.51-31.08,3.86-39.07.77-7.81,7.06-9.89,5.6-11.73-1.67-1.92-8.14,1.8-10.97,12.21-2.54,10.29,3.61,16.28-7.05,37.25-10.66,20.97-2.23,30.38-12.86,48.89" />
      <path
         id="ar-a-11"
         data-name="ar-a"
         class="cls-8"
         d="M483.09,485.49l53.94-145.71s1.13-2.74-.64-3.54c-1.93-.64-3.06,2.09-3.06,2.09l-64.88,141.2M508.53,441.69c15.78-14.49,14.81-32.2,29.46-44.6,14.97-12.4,15.13-27.37,18.52-34.62,3.7-6.92,10.3-6.44,9.66-8.69-.81-2.42-8.21-1.45-14.81,7.08-6.28,8.53-2.9,16.42-20.77,31.72-17.87,15.3-13.69,27.21-30.59,40.25" />
      <path
         id="ar-a-12"
         data-name="ar-a"
         class="cls-6"
         d="M481.37,488.03l105.59-113.98s2.09-2.1.76-3.52c-1.54-1.33-3.63.76-3.63.76l-113.98,105.62M521.63,457.3c20.12-7.35,26.01-24.08,44.29-29.93,18.58-5.72,24.46-19.5,30.35-24.9,6.07-4.98,11.98-2.01,12.25-4.34.18-2.54-7.03-4.48-16.4.88-9.07,5.48-8.96,14.06-31.33,21.36-22.36,7.29-23.06,19.9-43.67,25.48" />
      <path
         id="ar-b-9"
         data-name="ar-b"
         class="cls-2"
         d="M466.05,426.87c-1.14-20.49-12.75-29.6-10.47-48.5-5.01,14.8,7.06,26.41,6.38,48.27M479.49,480.83l-44.4-97,37.11,99.96" />
      <path
         id="ar-b-10"
         data-name="ar-b"
         class="cls-2"
         d="M488.06,427.35c6.79-19.37-.45-32.23,8.88-48.82-10.29,11.76-3.59,27.1-12.58,47.04M479.82,482.35l-3.9-106.61-3.96,106.55" />
      <path
         id="ar-b-11"
         data-name="ar-b"
         class="cls-2"
         d="M508.21,436.22c13.69-15.3,11.91-29.95,26.89-41.7-14.01,6.92-13.69,23.67-29.62,38.64M479.55,483.88l37.19-99.98-44.44,96.92" />
      <path
         id="ar-b-12"
         data-name="ar-b"
         class="cls-2"
         d="M523.43,452.12c18.5-8.89,22.47-23.11,40.8-28.24-15.59,1.04-21.7,16.63-42.16,24.36M478.71,485.18l72.62-78.14-78.15,72.54" />
    </g>
    <g
       id="ar-c-4"
       data-name="ar-c">
      <path
         id="ar-a-13"
         data-name="ar-a"
         class="cls-5"
         d="M478.8,489.71l141.17-64.89s2.73-1.14,2.05-2.96c-.91-1.82-3.64-.68-3.64-.68l-145.72,53.96M527.76,476.74c21.4.91,33.24-12.3,52.37-10.7,19.35,1.82,30.06-8.65,37.57-11.38,7.51-2.28,11.84,2.73,12.98.68,1.14-2.28-4.78-6.83-15.48-5.46-10.47,1.59-13.66,9.56-37.11,7.74-23.45-1.82-28.92,9.56-50.09,6.83" />
      <path
         id="ar-a-14"
         data-name="ar-a"
         class="cls-6"
         d="M475.79,490.29l155.26-5.93s2.96,0,3.03-1.95c-.14-2.03-3.1-2.03-3.1-2.03l-155.28-5.91M525.98,497.04c19.43,9.03,35.42,1.36,52.48,10.15,17.18,9.09,31.08,3.51,39.07,3.86,7.81.77,9.89,7.06,11.73,5.6,1.92-1.67-1.8-8.14-12.21-10.97-10.29-2.54-16.28,3.61-37.25-7.05-20.97-10.66-30.38-2.23-48.89-12.86" />
      <path
         id="ar-a-15"
         data-name="ar-a"
         class="cls-8"
         d="M472.78,489.67l145.71,53.94s2.74,1.13,3.54-.64c.64-1.93-2.09-3.06-2.09-3.06l-141.2-64.88M516.58,515.11c14.49,15.78,32.2,14.81,44.6,29.46,12.4,14.97,27.37,15.13,34.62,18.52,6.92,3.7,6.44,10.3,8.69,9.66,2.42-.81,1.45-8.21-7.08-14.81-8.53-6.28-16.42-2.9-31.72-20.77-15.3-17.87-27.21-13.69-40.25-30.59" />
      <path
         id="ar-a-16"
         data-name="ar-a"
         class="cls-9"
         d="M470.25,487.95l113.98,105.59s2.1,2.09,3.52.76c1.33-1.54-.76-3.63-.76-3.63l-105.62-113.98M500.97,528.21c7.35,20.12,24.08,26.01,29.93,44.29,5.72,18.58,19.5,24.46,24.9,30.35,4.98,6.07,2.01,11.98,4.34,12.25,2.54.18,4.48-7.03-.88-16.4-5.48-9.07-14.06-8.96-21.36-31.33-7.29-22.36-19.9-23.06-25.48-43.67" />
      <path
         id="ar-b-13"
         data-name="ar-b"
         class="cls-2"
         d="M531.4,472.64c20.49-1.14,29.6-12.75,48.5-10.47-14.8-5.01-26.41,7.06-48.27,6.38M477.44,486.07l97-44.4-99.96,37.11" />
      <path
         id="ar-b-14"
         data-name="ar-b"
         class="cls-2"
         d="M530.92,494.64c19.37,6.79,32.23-.45,48.82,8.88-11.76-10.29-27.1-3.59-47.04-12.58M475.92,486.4l106.61-3.9-106.55-3.96" />
      <path
         id="ar-b-15"
         data-name="ar-b"
         class="cls-2"
         d="M522.05,514.79c15.3,13.69,29.95,11.91,41.7,26.89-6.92-14.01-23.67-13.69-38.64-29.62M474.39,486.13l99.98,37.19-96.92-44.44" />
      <path
         id="ar-b-16"
         data-name="ar-b"
         class="cls-2"
         d="M506.15,530.01c8.89,18.5,23.11,22.47,28.24,40.8-1.04-15.59-16.63-21.7-24.36-42.16M473.09,485.29l78.14,72.62-72.54-78.15" />
    </g>
    <circle
       class="cls-7"
       cx="475.84"
       cy="482.43"
       r="63.33"
       id="circle3" />
    <path
       id="ar-h"
       class="cls-2"
       d="M497.19,468.91c-4.03,0-8.3,1.9-10.67,5.69,4.74,4.51,15.65,4.74,23.01-.47-3.14-3.33-7.52-5.22-12.1-5.22h-.24ZM497.19,469.86c4.27,0,8.3,1.9,8.78,3.79-4.74,5.46-12.57,4.74-17.55.95,2.37-3.32,5.69-4.74,9.01-4.74h-.24Z" />
    <path
       id="ar-d"
       class="cls-2"
       d="M498.14,465.82c-6.4,0-7.83,1.42-10.67,4.03-2.85,2.37-4.51,1.9-4.74,2.37-.71.47,0,1.9.71,1.42,1.19-.47,3.08-1.42,5.93-3.79,2.85-2.37,5.93-2.37,8.78-2.37,8.78,0,13.52,7.12,14.47,6.64,1.19-.47-4.74-8.3-14.47-8.3" />
    <path
       id="ar-e"
       class="cls-2"
       d="M515.69,468.91c-11.15-9.72-25.38-11.38-33.21-4.03-1.8,2.37-3.02,5.13-3.56,8.06-.95,5.69.71,11.62,4.98,17.79l-1.9.95c-3.79-7.35-5.22-14.94-3.79-22.29l1.42-5.46c10.67-8.78,25.38-9.49,36.05,4.74v.24Z" />
    <circle
       id="ar-f"
       class="cls-2"
       cx="497.19"
       cy="473.65"
       r="4.27" />
    <path
       id="ar-g"
       class="cls-2"
       d="M509.76,476.5c-8.3,6.4-16.6,5.93-21.35,3.08-4.74-3.08-4.74-4.03-3.79-4.03s1.9.95,5.69,3.08c4.03,1.9,9.72,1.9,19.45-2.13" />
    <path
       class="cls-2"
       d="M466.36,491.2c-2.29.54-3.72,2.84-3.17,5.14.54,2.29,2.84,3.72,5.14,3.17.9-.21,1.71-.72,2.31-1.43,1.56.97,3.38,1.47,5.22,1.42h.47c1.42,0,3.79-.24,5.46-1.42.71,1.19,2.13,1.66,3.56,1.66,2.36.2,4.43-1.56,4.63-3.91.2-2.36-1.56-4.43-3.91-4.63h0c1.19.47,1.9,1.42,1.9,2.85,0,1.57-1.28,2.84-2.85,2.84-1.57,0-2.84-1.27-2.84-2.84-1.15,2.39-3.52,3.94-6.17,4.03-2.56-.18-4.82-1.72-5.93-4.03,0,1.66-1.42,2.85-3.08,2.85-1.42,0-2.85-1.42-2.85-2.85s.71-2.37,1.9-2.85h.24ZM471.1,504.01c-4.98,0-7.12,4.74-11.38,7.35,2.37-.95,4.27-2.85,7.83-4.74,3.32-1.9,6.17.47,8.3.47,1.9,0,4.74-2.37,8.3-.47,3.32,1.9,5.46,3.79,7.83,4.74-4.51-2.85-6.4-7.12-11.38-7.12-.95,0-2.85.47-4.74,1.42l-4.74-1.66Z"
       id="path3" />
    <path
       class="cls-2"
       d="M469.2,509.94c-1.9,0-4.27.47-8.06,1.42,8.78-1.9,10.67,1.19,14.71,1.19,3.79,0,5.93-3.08,14.47-1.19-9.49-2.85-11.62-.95-14.47-.95-1.9,0-3.32-.71-6.64-.47"
       id="path4" />
    <path
       class="cls-2"
       d="M461.61,511.36h-1.9c10.2,1.19,5.46,7.12,16.13,7.12s5.93-5.93,16.13-7.12c-10.67-.95-7.35,5.46-16.13,5.46-8.3,0-5.69-5.46-14.23-5.46"
       id="path5" />
    <path
       class="cls-2"
       d="M484.62,527.25c0-4.85-3.94-8.77-8.79-8.76-4.84,0-8.76,3.93-8.76,8.76,1.13-4.85,5.98-7.86,10.83-6.72,3.34.78,5.94,3.39,6.72,6.72"
       id="path6" />
    <path
       id="ar-e-2"
       data-name="ar-e"
       class="cls-2"
       d="M436.47,468.91c11.15-9.72,25.38-11.38,33.21-4.03,1.8,2.37,3.02,5.13,3.56,8.06.95,5.69-.71,11.62-4.98,17.79l1.9.95c3.79-7.35,5.22-14.94,3.79-22.29l-1.42-5.46c-10.67-8.78-25.38-9.49-36.05,4.74v.24Z" />
    <path
       id="ar-d-2"
       data-name="ar-d"
       class="cls-2"
       d="M454.02,465.82c6.4,0,7.83,1.42,10.67,4.03,2.85,2.37,4.51,1.9,4.74,2.37.71.47,0,1.9-.71,1.42-1.19-.47-3.08-1.42-5.93-3.79-2.85-2.37-5.93-2.37-8.78-2.37-8.78,0-13.52,7.12-14.47,6.64-1.19-.47,4.74-8.3,14.47-8.3" />
    <path
       id="ar-h-2"
       data-name="ar-h"
       class="cls-2"
       d="M453.55,468.91c-4.03,0-8.3,1.9-10.67,5.69,4.74,4.51,15.65,4.74,23.01-.47-3.14-3.33-7.52-5.22-12.1-5.22h-.24ZM453.55,469.86c4.27,0,8.3,1.9,8.78,3.79-4.74,5.46-12.57,4.74-17.55.95,2.37-3.32,5.69-4.74,9.01-4.74h-.24Z" />
    <circle
       id="ar-f-2"
       data-name="ar-f"
       class="cls-2"
       cx="454.26"
       cy="473.65"
       r="4.27" />
    <path
       id="ar-g-2"
       data-name="ar-g"
       class="cls-2"
       d="M442.4,476.5c8.3,6.4,16.6,5.93,21.35,3.08,4.74-3.08,4.74-4.03,3.79-4.03s-1.9.95-5.69,3.08c-4.03,1.9-9.72,1.9-19.45-2.13" />
  </g>
</svg>
