<?xml version="1.0" encoding="UTF-8" standalone="no"?>
<svg
   id="Layer_1"
   data-name="Layer 1"
   viewBox="0 0 960 960"
   version="1.1"
   sodipodi:docname="bb.svg"
   inkscape:version="1.4 (86a8ad7, 2024-10-11)"
   xmlns:inkscape="http://www.inkscape.org/namespaces/inkscape"
   xmlns:sodipodi="http://sodipodi.sourceforge.net/DTD/sodipodi-0.dtd"
   xmlns="http://www.w3.org/2000/svg"
   xmlns:svg="http://www.w3.org/2000/svg">
  <sodipodi:namedview
     id="namedview4"
     pagecolor="#ffffff"
     bordercolor="#666666"
     borderopacity="1.0"
     inkscape:showpageshadow="2"
     inkscape:pageopacity="0.0"
     inkscape:pagecheckerboard="0"
     inkscape:deskcolor="#d1d1d1"
     inkscape:zoom="0.42447917"
     inkscape:cx="200.2454"
     inkscape:cy="451.1411"
     inkscape:window-width="1920"
     inkscape:window-height="1017"
     inkscape:window-x="-8"
     inkscape:window-y="-8"
     inkscape:window-maximized="1"
     inkscape:current-layer="Layer_1" />
  <defs
     id="defs1">
    <style
       id="style1">
      .cls-1 {
        fill: #ffda44;
      }

      .cls-1, .cls-2, .cls-3, .cls-4 {
        stroke-width: 0px;
      }

      .cls-2 {
        fill: #00267f;
      }

      .cls-3 {
        fill: #000001;
      }

      .cls-4 {
        fill: #fff;
      }

      .cls-5 {
        mask: url(#mask);
      }
    </style>
    <mask
       id="mask"
       x=".11"
       y=".09"
       width="959.91"
       height="959.91"
       maskUnits="userSpaceOnUse">
      <g
         id="a">
        <circle
           class="cls-4"
           cx="480.07"
           cy="480.04"
           r="479.96"
           id="circle1" />
      </g>
    </mask>
  </defs>
  <g
     class="cls-5"
     mask="url(#mask)"
     id="g4">
    <g
       id="g3">
      <path
         class="cls-2"
         d="M.11.09h271.48l211.67,68.81L688.92.09h271.1v959.91h-271.1l-204.17-71.43-213.17,71.43H.11V.09Z"
         id="path1" />
      <path
         class="cls-1"
         d="M271.59.09h417.34v959.91h-417.34V.09Z"
         id="path2" />
      <g
         id="g2">
        <path
           id="bb-a"
           class="cls-3"
           d="M480.35,252.61c-15.13,41.53-30.8,84.98-64.08,118.25,13.01-4.02,26.53-6.15,40.15-6.33v174.91l-49.5,7.43c-1.93,0-2.48-2.75-2.48-6.6-5.14-50.19-15.93-99.64-32.18-147.4-1.1-6.33-19.8-31.08-5.5-26.68,1.93,0,21.18,8.25,18.15,4.4-27.63-27.87-63.32-46.34-102.03-52.8-3.3-.83-5.5.83-2.48,4.68,49.5,76.18,91.03,166.11,90.75,272.81,19.25,0,66-11.28,85.25-11.28v123.48h24.2l5.5-344.86-5.78-110Z" />
        <path
           id="bb-a-2"
           data-name="bb-a"
           class="cls-3"
           d="M480.35,252.61c15.13,41.53,30.8,84.98,64.08,118.25-13.01-4.02-26.53-6.15-40.15-6.33v174.91l49.5,7.43c1.93,0,2.48-2.75,2.48-6.6,5.14-50.19,15.93-99.64,32.18-147.4,1.1-6.33,19.8-31.08,5.5-26.68-1.93,0-21.18,8.25-18.15,4.4,27.63-27.87,63.32-46.34,102.03-52.8,3.3-.83,5.5.83,2.48,4.68-49.5,76.18-91.03,166.11-90.75,272.81-19.25,0-66-11.28-85.25-11.28v123.48h-24.2l-5.5-344.86,5.78-110Z" />
      </g>
    </g>
  </g>
</svg>
