<?xml version="1.0" encoding="UTF-8" standalone="no"?>
<svg
   id="Layer_1"
   data-name="Layer 1"
   viewBox="0 0 960 960"
   version="1.1"
   sodipodi:docname="br.svg"
   inkscape:version="1.4 (86a8ad7, 2024-10-11)"
   xmlns:inkscape="http://www.inkscape.org/namespaces/inkscape"
   xmlns:sodipodi="http://sodipodi.sourceforge.net/DTD/sodipodi-0.dtd"
   xmlns="http://www.w3.org/2000/svg"
   xmlns:svg="http://www.w3.org/2000/svg">
  <sodipodi:namedview
     id="namedview27"
     pagecolor="#ffffff"
     bordercolor="#666666"
     borderopacity="1.0"
     inkscape:showpageshadow="2"
     inkscape:pageopacity="0.0"
     inkscape:pagecheckerboard="0"
     inkscape:deskcolor="#d1d1d1"
     inkscape:zoom="0.42447917"
     inkscape:cx="268.56442"
     inkscape:cy="524.17178"
     inkscape:window-width="1920"
     inkscape:window-height="1017"
     inkscape:window-x="-8"
     inkscape:window-y="-8"
     inkscape:window-maximized="1"
     inkscape:current-layer="Layer_1" />
  <defs
     id="defs1">
    <style
       id="style1">
      .cls-1 {
        fill: #ffffef;
      }

      .cls-1, .cls-2, .cls-3, .cls-4, .cls-5, .cls-6, .cls-7, .cls-8 {
        stroke-width: 0px;
      }

      .cls-1, .cls-2, .cls-6 {
        fill-rule: evenodd;
      }

      .cls-2 {
        fill: #2b49a3;
      }

      .cls-3 {
        fill: #f8e509;
      }

      .cls-4 {
        fill: #229e45;
      }

      .cls-5, .cls-6 {
        fill: #fff;
      }

      .cls-7 {
        fill: #309e3a;
      }

      .cls-9 {
        mask: url(#mask);
      }

      .cls-8 {
        fill: #f7ffff;
      }
    </style>
    <mask
       id="mask"
       x="-.37"
       y="-.14"
       width="960.37"
       height="960.37"
       maskUnits="userSpaceOnUse">
      <g
         id="a">
        <circle
           class="cls-5"
           cx="479.81"
           cy="480.04"
           r="480.19"
           id="circle1" />
      </g>
    </mask>
  </defs>
  <g
     class="cls-9"
     mask="url(#mask)"
     id="g27">
    <g
       id="g26">
      <path
         class="cls-4"
         d="M-.37-.14h960.37v960.37H-.37V-.14Z"
         id="path1" />
      <path
         class="cls-3"
         d="M479.81,187.81l396.72,292.24-396.72,292.24L83.1,480.04,479.81,187.81Z"
         id="path2" />
      <g
         id="g25">
        <path
           class="cls-2"
           d="M653.41,474.66c2.98,95.88-72.33,176.01-168.21,178.99-95.88,2.98-176.01-72.33-178.99-168.21-.12-3.71-.11-7.42.01-11.13,3.17-95.87,83.46-171.01,179.33-167.84,91.55,3.03,165.01,76.64,167.85,168.2"
           id="path3" />
        <path
           class="cls-1"
           d="M422.55,578.65l-5.36-3.22-5.54,2.86,1.25-6.25-4.29-4.47,6.08-.71,2.86-5.72,2.68,5.9,6.08,1.07-4.65,4.29M539.05,608.13l-5.36-3.22-5.72,2.86,1.25-6.25-4.29-4.47,6.25-.71,2.86-5.72,2.5,5.9,6.08,1.07-4.47,4.29M488.84,560.96l-4.65-2.68-4.82,2.32,1.07-5.36-3.57-3.93,5.18-.54,2.5-4.82,2.14,5,5.36.89-3.93,3.57M606.42,543.99l-4.65-2.68-4.65,2.32,1.07-5.18-3.57-3.75,5.18-.71,2.32-4.65,2.32,4.82,5.18.89-3.93,3.57M486.7,508.78l-5.36-3.22-5.54,2.86,1.25-6.25-4.29-4.47,6.08-.71,2.86-5.54,2.68,5.72,6.08,1.07-4.65,4.29M343.39,455l-5.36-3.22-5.36,2.86,1.07-6.25-4.29-4.47,6.25-.71,2.86-5.72,2.5,5.9,6.08,1.07-4.47,4.29M360.72,526.47l-5.36-3.04-5.54,2.68,1.25-6.08-4.29-4.65,6.08-.71,2.86-5.36,2.68,5.54,6.08,1.25-4.65,4.11M539.59,428.55l-4.65-2.68-5,2.32,1.07-5.36-3.57-4.11,5.36-.54,2.5-5,2.32,5.18,5.36.89-4.11,3.75M529.94,475.19l-4.29-2.32-3.75,1.79.71-4.29-2.86-3.04,4.29-.54,1.97-3.93,1.79,4.11,4.29.71-3.22,2.86M335.17,539.34l-3.57-2.14-3.75,1.79.71-4.11-2.86-3.04,4.29-.36,1.79-3.57,1.79,3.57,4.11.89-3.04,2.86M607.31,555.78l-3.04-1.43-3.04,1.25.71-3.04-2.32-2.32,3.4-.36,1.61-2.68,1.25,2.86,3.4.54-2.5,2.14"
           id="path4" />
        <path
           class="cls-1"
           d="M335.35,539.52l-3.57-2.14-3.75,1.79.89-4.11-3.04-3.04,4.11-.36,1.97-3.57,1.79,3.57,4.11.89-3.04,2.86"
           id="path5" />
        <path
           class="cls-1"
           d="M335.35,539.52l-3.57-2.14-3.75,1.79.89-4.11-3.04-3.04,4.11-.36,1.97-3.57,1.79,3.57,4.11.89-3.04,2.86M392.35,539.52l-3.57-2.14-3.57,1.79.71-4.11-2.86-3.04,4.11-.36,1.79-3.75,1.79,3.75,4.11.89-3.04,2.86M385.2,558.64l-3.57-2.14-3.57,1.79.71-4.11-2.86-3.04,4.11-.54,1.79-3.57,1.79,3.57,4.11.89-3.04,2.86M503.85,523.97l-3.57-2.14-3.75,1.79.71-4.11-2.86-3.04,4.11-.36,1.97-3.75,1.79,3.75,3.93.71-3.04,2.86M469.01,523.97l-3.57-2.14-3.75,1.79.89-4.11-2.86-3.04,4.11-.36,1.79-3.75,1.79,3.75,4.11.71-3.04,2.86M374.66,511.82l-2.14-1.25-2.32,1.07.36-2.68-1.79-1.79,2.68-.36,1.25-2.32.89,2.5,2.68.36-1.79,1.79M602.84,571.15l-3.57-1.97-3.75,1.79.89-4.11-2.86-3.04,4.11-.54,1.79-3.57,1.79,3.57,4.11.89-3.04,2.86M573.72,574.9l-2.86-1.79-3.04,1.79.71-3.57-2.5-2.5,3.57-.36,1.43-3.04,1.43,3.04,3.57.71-2.68,2.32M587.65,574.72l-2.86-1.79-2.86,1.61.54-3.22-2.14-2.32,3.22-.36,1.43-2.86,1.25,2.86,3.22.54-2.32,2.32M626.79,540.41l-2.68-1.61-2.86,1.43.71-3.04-2.14-2.32,3.04-.36,1.43-2.68,1.25,2.86,3.04.54-2.32,2.14M573.9,594.2l-3.57-1.97-3.57,1.79.89-3.93-2.86-2.68,3.93-.54,1.97-3.4,1.79,3.57,3.75.71-2.86,2.5M574.07,609.74l-3.22-1.79-3.22,1.61.71-3.93-2.5-2.68,3.57-.54,1.79-3.4,1.43,3.57,3.57.71-2.68,2.5M547.63,574.72l-2.68-1.61-2.86,1.43.71-3.22-2.14-2.14,3.04-.36,1.43-2.86,1.25,2.86,3.04.54-2.32,2.14M522.97,574.72l-2.68-1.61-2.86,1.43.71-3.22-2.14-2.14,3.04-.36,1.43-2.86,1.25,2.86,3.04.54-2.14,2.14M480.98,537.91l-2.68-1.61-2.86,1.43.71-3.04-2.14-2.32,3.04-.36,1.43-2.68,1.25,2.86,3.04.54-2.32,1.97M485.63,612.42l-2.32-1.25-2.32,1.25.54-2.68-1.79-1.79,2.5-.54,1.25-2.32,1.07,2.5,2.68.36-1.97,1.79M422.37,491.81l-5.36-3.04-5.54,2.68,1.25-6.08-4.29-4.65,6.08-.71,2.86-5.54,2.68,5.72,6.08,1.07-4.65,4.29"
           id="path6" />
        <path
           class="cls-6"
           d="M641.97,537.2c3.36-8.76,5.99-17.79,7.86-26.98-92.2-81.12-195.12-122.76-325.21-114.18-4.66,9.11-8.49,18.62-11.44,28.41,120.76-12.2,240.84,28.92,328.78,112.57v.18Z"
           id="path7" />
        <path
           class="cls-7"
           d="M600.52,491.45l3.22,1.79c-.5.99-.63,2.14-.36,3.22.18.71.89,1.61,1.79,2.14,1.07.71,1.97,1.07,2.86,1.07.71,0,1.43-.54,1.79-1.07.18-.36.36-.71.18-1.25l-.54-1.43-2.14-2.32c-1.14-1.16-2-2.57-2.5-4.11-.65-2.4.57-4.92,2.86-5.9.95-.42,2.01-.55,3.04-.36,1.29.28,2.51.83,3.57,1.61,1.55,1.09,2.78,2.57,3.57,4.29.44,1.6.11,3.32-.89,4.65l-3.22-1.97c.36-.89.54-1.79.36-2.5-.18-.54-.89-1.25-1.79-1.79-.89-.71-1.79-.89-2.5-.89-.42.01-.81.21-1.07.54-.25.37-.32.83-.18,1.25,0,.71.89,1.79,2.14,3.04l2.68,3.57c.99,1.82.86,4.04-.36,5.72-.62.89-1.49,1.57-2.5,1.97-1.06.49-2.25.61-3.4.36-1.36-.35-2.63-.95-3.75-1.79-1.69-1.01-2.96-2.6-3.57-4.47-.54-1.61-.36-3.4.71-5.36M584.8,481.27l3.57,1.79c-.42.89-.54,1.89-.36,2.86.18.89.89,1.79,1.79,2.32,1.07.71,1.97.89,2.86.71.71,0,1.43-.36,1.79-1.07.17-.33.23-.7.18-1.07,0-.54-.18-.89-.71-1.43l-2.14-2.32c-1.18-1.09-2.09-2.44-2.68-3.93-.48-1.44-.28-3.01.54-4.29.53-.79,1.27-1.41,2.14-1.79.96-.41,2.01-.54,3.04-.36,1.07,0,2.14.54,3.57,1.43,1.79,1.25,3.22,2.5,3.57,4.11.54,1.55.34,3.26-.54,4.65l-3.4-1.97c.54-.89.54-1.79.36-2.32-.36-.71-.89-1.25-1.79-1.79-.77-.59-1.71-.91-2.68-.89-.45.05-.85.32-1.07.71-.19.39-.19.86,0,1.25,0,.54.89,1.61,2.14,3.04,1.43,1.25,2.32,2.5,2.86,3.22,1.12,1.82,1.05,4.14-.18,5.9-1.24,1.89-3.48,2.87-5.72,2.5-1.4-.27-2.74-.82-3.93-1.61-1.71-.95-3.04-2.47-3.75-4.29-.51-1.79-.32-3.71.54-5.36M565.5,475.91l10.01-16.08,11.97,7.15-1.79,2.86-8.58-5.36-2.32,3.57,8.22,5-1.79,2.86-8.04-5-2.68,4.47,8.93,5.36-1.61,2.86-12.33-7.68ZM537.27,452.86l1.61-2.86,7.15,3.93-3.4,6.61c-2.9.64-5.93.26-8.58-1.07-1.6-.83-2.95-2.06-3.93-3.57-.94-1.36-1.44-2.99-1.43-4.65,0-1.79.54-3.4,1.43-5,.82-1.65,2.05-3.06,3.57-4.11,1.25-1.07,3.04-1.61,4.82-1.61,1.25,0,2.86.54,4.47,1.25,1.76.83,3.2,2.21,4.11,3.93.71,1.43.89,3.04.54,4.82l-3.75-1.07c.2-.91.07-1.86-.36-2.68-.48-.88-1.23-1.57-2.14-1.97-1.28-.79-2.85-.99-4.29-.54-1.25.54-2.5,1.79-3.57,3.57-.87,1.64-1.18,3.52-.89,5.36.36,1.43,1.25,2.5,2.86,3.22l2.32.71h2.32l1.07-2.14-3.93-2.14ZM414.33,422.48l2.86-18.94,5.72.89,1.43,13.4,5.36-12.51,5.54.89-2.68,18.94-3.57-.54,2.14-14.83-5.9,14.29-3.57-.54-1.61-15.55-2.14,15.01-3.57-.54ZM395.21,420.16l1.79-18.94,13.94,1.25-.18,3.22-10.36-.89-.36,4.11,9.47.89-.18,3.22-9.47-.89-.54,5.36,10.54.89-.36,3.22-14.29-1.43Z"
           id="path8" />
        <g
           id="g10">
          <path
             class="cls-7"
             d="M331.6,408.18c0-1.79.36-3.57.89-4.82l1.79-2.5,2.68-1.79c1.32-.45,2.72-.64,4.11-.54,2.51-.02,4.91,1.02,6.61,2.86,1.79,1.79,2.32,4.11,2.32,7.15,0,3.22-1.07,5.54-2.68,7.15-1.81,1.75-4.28,2.66-6.79,2.5-2.48.06-4.88-.91-6.61-2.68-1.79-1.93-2.64-4.54-2.32-7.15v-.18Z"
             id="path9" />
          <path
             class="cls-8"
             d="M335.53,408.18c0,2.14.36,3.93,1.43,5,.89,1.25,2.14,1.79,3.57,1.79,1.48.03,2.9-.55,3.93-1.61.89-1.07,1.43-2.68,1.61-4.82,0-2.32-.36-3.93-1.43-5-.88-1.08-2.18-1.74-3.57-1.79-1.79,0-3.04.54-3.93,1.61-1.07,1.07-1.61,2.68-1.79,4.82h.18Z"
             id="path10" />
        </g>
        <g
           id="g12">
          <path
             class="cls-7"
             d="M354.11,418.19l.18-19.12h8.04c2.14,0,3.57.36,4.47.71s1.79.89,2.14,1.79.89,1.79.89,3.04c0,1.43-.54,2.5-1.25,3.57-.89.89-2.14,1.43-3.93,1.79.89.36,1.61.89,2.14,1.43l2.14,3.22,2.32,3.57h-4.65l-2.68-4.11c-.65-1-1.37-1.95-2.14-2.86-.3-.32-.67-.56-1.07-.71-.57-.21-1.18-.33-1.79-.36h-.89v8.04h-3.93Z"
             id="path11" />
          <path
             class="cls-5"
             d="M358.04,407.11h2.86c1.19.15,2.39.15,3.57,0l.89-.89c.36-.36.54-.89.54-1.43,0-.71-.18-1.25-.54-1.61-.38-.4-.88-.65-1.43-.71h-5.72l-.18,4.65Z"
             id="path12" />
        </g>
        <g
           id="g14">
          <path
             class="cls-7"
             d="M375.91,399.97l6.97.36c1.21.02,2.41.2,3.57.54,1.02.38,1.93,1,2.68,1.79.83.99,1.44,2.15,1.79,3.4.36,1.25.36,2.68.36,4.47.11,2.77-1,5.45-3.04,7.33-.71.54-1.61,1.07-2.68,1.43h-3.57l-7.15-.18,1.07-19.12Z"
             id="path13" />
          <path
             class="cls-5"
             d="M379.49,403.36l-.54,12.51,2.86.36h2.32l1.61-.89c.54-.36.71-.89,1.07-1.79l.54-3.57-.18-3.22c-.36-.89-.54-1.43-1.07-1.79-.48-.53-1.1-.9-1.79-1.07-1-.21-2.02-.33-3.04-.36l-1.79-.18Z"
             id="path14" />
        </g>
        <g
           id="g16">
          <path
             class="cls-7"
             d="M469.37,434.09l4.47-18.58,5.9,1.43c2.32.54,3.75,1.07,4.47,1.43.89.54,1.79,1.25,2.14,2.32.54,1.25.54,2.5.18,3.93-.32,1.88-1.61,3.44-3.4,4.11-.61.3-1.28.48-1.97.54-1.33-.12-2.65-.35-3.93-.71l-2.5-.54-1.79,6.97-3.57-.89Z"
             id="path15" />
          <path
             class="cls-5"
             d="M476.69,419.62l-1.25,5.36,2.14.36c1.43.36,2.5.54,3.04.36,1.01-.1,1.86-.81,2.14-1.79l-.18-1.97c-.31-.58-.82-1.02-1.43-1.25l-2.68-.71-1.79-.36Z"
             id="path16" />
        </g>
        <g
           id="g18">
          <path
             class="cls-7"
             d="M487.05,439.45l6.25-18.05,7.68,2.68c1.39.39,2.72,1,3.93,1.79.71.71,1.25,1.61,1.61,2.68s0,1.97-.36,3.04c-.36,1.43-1.25,2.32-2.32,2.86-1.24.72-2.72.92-4.11.54l1.43,2.14,1.07,3.57.89,4.29-4.29-1.43-1.25-4.82c-.28-1.15-.64-2.29-1.07-3.4-.15-.41-.4-.77-.71-1.07-.54-.39-1.15-.7-1.79-.89l-.71-.18-2.68,7.5-3.57-1.25Z"
             id="path17" />
          <path
             class="cls-5"
             d="M494.2,430.34l2.68.89,3.4.89c.54,0,.89,0,1.25-.36l.89-1.25v-1.79c-.23-.47-.6-.84-1.07-1.07l-2.68-.89-2.86-1.07-1.61,4.65Z"
             id="path18" />
        </g>
        <g
           id="g20">
          <path
             class="cls-7"
             d="M509.39,438.74c.45-1.63,1.25-3.16,2.32-4.47.54-.89,1.43-1.43,2.32-1.97.88-.49,1.86-.79,2.86-.89,1.25,0,2.68,0,4.11.54,2.45.61,4.53,2.24,5.72,4.47,1.07,2.14,1.25,4.82.18,7.68-.6,2.6-2.2,4.85-4.47,6.25-2.23,1.11-4.82,1.24-7.15.36-2.45-.61-4.53-2.24-5.72-4.47-1.05-2.38-1.11-5.08-.18-7.5"
             id="path19" />
          <path
             class="cls-5"
             d="M513.14,439.81c-.54,1.97-.54,3.57,0,5,.71,1.43,1.79,2.32,3.22,2.86,1.43.36,2.68.18,3.93-.54,1.25-.71,2.32-2.14,3.04-4.29.54-2.14.54-3.75,0-5.18-.61-1.34-1.79-2.32-3.22-2.68-1.38-.45-2.89-.25-4.11.54-1.25.71-2.14,2.14-2.86,4.29"
             id="path20" />
        </g>
        <g
           id="g22">
          <path
             class="cls-7"
             d="M546.56,465.36l8.76-16.98,7.15,3.57c1.79,1.07,3.04,1.79,3.57,2.5.71.89,1.07,1.79,1.25,2.68s0,2.14-.71,3.04c-.54,1.25-1.43,2.14-2.68,2.68-1.25.36-2.5.36-4.11-.18.54.71.89,1.61,1.07,2.32l.54,3.75.36,4.47-4.11-2.14-.54-5-.54-3.57c-.15-.41-.4-.77-.71-1.07-.48-.44-1.02-.8-1.61-1.07l-.71-.36-3.57,7.15-3.4-1.79Z"
             id="path21" />
          <path
             class="cls-5"
             d="M554.96,457.32l2.5,1.25,3.22,1.43c.54,0,.89,0,1.25-.36.99-.51,1.55-1.58,1.43-2.68-.19-.53-.57-.98-1.07-1.25-.76-.5-1.53-.98-2.32-1.43l-2.68-1.25-2.32,4.29Z"
             id="path22" />
        </g>
        <g
           id="g24">
          <path
             class="cls-7"
             d="M617.14,500.21c1.07-1.79,2.14-2.86,3.57-3.57.87-.58,1.84-1,2.86-1.25.94-.18,1.91-.18,2.86,0,1.25.18,2.68.71,3.93,1.79,2.13,1.3,3.63,3.44,4.11,5.9.26,2.6-.44,5.21-1.97,7.33-1.37,2.33-3.63,4.01-6.25,4.65-2.45.46-4.97-.13-6.97-1.61-2.13-1.3-3.63-3.44-4.11-5.9-.4-2.58.24-5.22,1.79-7.33h.18Z"
             id="path23" />
          <path
             class="cls-5"
             d="M620.35,502.17c-1.07,1.79-1.61,3.57-1.43,5,.25,1.46,1.09,2.75,2.32,3.57,1.15.8,2.58,1.06,3.93.71,1.43-.36,2.86-1.43,4.11-3.4,1.25-1.79,1.79-3.4,1.43-4.82,0-1.43-.89-2.5-2.14-3.57s-2.68-1.07-4.11-.71c-1.43.36-2.68,1.43-3.93,3.22h-.18Z"
             id="path24" />
        </g>
        <path
           class="cls-7"
           d="M447.74,426.41l3.04-13.58,10.01,2.32-.54,2.32-7.15-1.79-.71,3.04,6.61,1.61-.54,2.32-6.61-1.79-.89,3.75,7.5,1.79-.54,2.32-10.19-2.32Z"
           id="path25" />
      </g>
    </g>
  </g>
</svg>
