<?xml version="1.0" encoding="UTF-8" standalone="no"?>
<svg
   id="Layer_1"
   data-name="Layer 1"
   viewBox="0 0 960 960"
   version="1.1"
   sodipodi:docname="bn.svg"
   inkscape:version="1.4 (86a8ad7, 2024-10-11)"
   xmlns:inkscape="http://www.inkscape.org/namespaces/inkscape"
   xmlns:sodipodi="http://sodipodi.sourceforge.net/DTD/sodipodi-0.dtd"
   xmlns="http://www.w3.org/2000/svg"
   xmlns:svg="http://www.w3.org/2000/svg">
  <sodipodi:namedview
     id="namedview35"
     pagecolor="#ffffff"
     bordercolor="#666666"
     borderopacity="1.0"
     inkscape:showpageshadow="2"
     inkscape:pageopacity="0.0"
     inkscape:pagecheckerboard="0"
     inkscape:deskcolor="#d1d1d1"
     inkscape:zoom="0.3001521"
     inkscape:cx="646.33898"
     inkscape:cy="324.83531"
     inkscape:window-width="1920"
     inkscape:window-height="1017"
     inkscape:window-x="-8"
     inkscape:window-y="-8"
     inkscape:window-maximized="1"
     inkscape:current-layer="Layer_1" />
  <defs
     id="defs1">
    <style
       id="style1">
      .cls-1 {
        fill: #ffda44;
      }

      .cls-1, .cls-2, .cls-3, .cls-4, .cls-5, .cls-6 {
        stroke-width: 0px;
      }

      .cls-2 {
        fill: #cf1126;
      }

      .cls-3 {
        fill: #000001;
      }

      .cls-4 {
        fill: #fff;
      }

      .cls-5 {
        fill: #eee;
      }

      .cls-7 {
        mask: url(#mask);
      }

      .cls-6 {
        fill: #f7e017;
      }
    </style>
    <mask
       id="mask"
       x="2.86"
       y=".09"
       width="959.91"
       height="959.91"
       maskUnits="userSpaceOnUse">
      <g
         id="a">
        <circle
           class="cls-4"
           cx="482.81"
           cy="480.04"
           r="479.96"
           id="circle1" />
      </g>
    </mask>
  </defs>
  <g
     class="cls-7"
     mask="url(#mask)"
     id="g4">
    <g
       id="g3">
      <path
         class="cls-1"
         d="M2.86.09h959.91v612.51l-36.18,143.42,36.18,145.67v58.31H2.86V347.31l40.12-143.42L2.86,58.21V.09Z"
         id="path1" />
      <path
         class="cls-5"
         d="M2.86,58.21v219.73l959.91,554.39v-219.73L2.86,58.21Z"
         id="path2" />
      <path
         class="cls-3"
         d="M2.86,202.94v144.36l959.91,554.57v-144.36L2.86,202.94Z"
         id="path3" />
    </g>
  </g>
  <g
     id="g35">
    <g
       id="g28">
      <path
         class="cls-2"
         d="M451.74,708.66c-20.94-2.31-41.08-9.33-58.93-20.52-2.86-1.91-5.49-3.58-5.96-3.58s-.72,2.27-.72,4.89c0,7.63-3.1,11.45-10.74,13.48-7.4,1.91-18.61-1.91-27.67-9.54-8.6-7.36-18.63-12.84-29.46-16.1-11.28-2.69-23.16-1.16-33.4,4.29-1.01.71-2.14,1.24-3.34,1.55-1.31,0-1.19-8.23.24-10.74,1.79-3.58,6.08-6.92,11.21-8.71,2.62-.95,4.77-2.15,4.77-2.74,0-.48-.95-2.39-2.03-4.29-3.46-6.08-2.03-11.93,4.06-16.58,6.2-4.77,16.7-5.49,25.88-2.03,1.55.66,3.15,1.22,4.77,1.67,1.19,0,.48-1.79-2.86-6.68-3.82-5.61-4.65-8.35-4.17-15.15.68-8.6,7.51-15.43,16.1-16.1,6.92-.48,11.21,1.91,21.47,11.57,27.55,27.73,63.74,45.24,102.58,49.62,9.9,1.19,29.58.6,41.15-1.19,36.65-6.12,70.64-23.07,97.57-48.67,7.63-7.16,11.21-9.07,17.53-9.07,5.37,0,9.18,1.67,13.12,5.96,3.58,3.94,4.77,7.63,4.29,13.72-.24,3.82-.83,5.61-3.1,9.42-3.34,5.37-2.74,5.96,3.82,3.34,9.07-3.58,20.16-1.91,26.12,3.82,5.25,5.01,5.73,10.02,1.67,16.7-1.55,2.5-2.74,4.77-2.74,5.25,0,.72,1.19.95,6.56,1.91,7.16,1.19,11.33,6.44,11.33,14.55,0,2.39-.36,4.41-.72,4.41s-3.1-1.07-5.96-2.27c-8.35-3.46-13.12-4.29-22.9-4.17-7.4,0-9.9.36-15.03,2.03-8.59,2.99-16.49,7.65-23.26,13.72-7.63,6.8-12.41,8.95-19.8,8.83-6.92,0-11.57-2.03-14.08-5.96-1.31-2.15-1.55-3.34-1.19-8.11.24-3.1.12-5.61,0-5.61-.36,0-2.98,1.67-5.96,3.7-6.81,4.88-14.23,8.85-22.07,11.81-31.39,11.37-64.99,15.33-98.17,11.57"
         id="path4" />
      <path
         class="cls-2"
         d="M464.38,655.58c-46.68-4.29-89.24-28.51-116.78-66.44-29.11-39.6-38.17-91.97-29.34-139.8,4.77-21.83,14.31-43.66,30.42-59.16-13.28,27.55-16.93,58.76-10.38,88.63,10.74,59.4,60.83,109.62,120.83,118.33,23.86,6.8,48.31-.48,70.97-7.75,50.1-17.65,88.27-65.13,92.8-118.21,3.94-28.63-.36-58.57-13.36-84.69,7.4,3.94,16.7,19.32,22.19,29.58,19.09,36.98,19.92,81.23,8.71,120.71-15.27,50.22-53.68,94.23-104.37,110.22-23.13,7.23-47.39,10.14-71.57,8.59h-.12Z"
         id="path5" />
      <g
         id="bn-a">
        <path
           class="cls-2"
           d="M232.62,589.62c-2.98-.48-6.32,2.5-5.13,5.61,2.15,3.1,5.96,4.77,9.3,6.2,8.8,3.44,18.25,4.9,27.67,4.29,6.92,0,13.78-1.21,20.28-3.58,3.58-1.19,8.11-2.39,9.54-6.44,1.55-2.5-1.19-5.13-3.7-4.65-3.58.83-7.16,2.39-10.74,3.46-7.87,2.23-16.07,3.03-24.21,2.39-5.93-.86-11.71-2.55-17.18-5.01-1.91-.83-3.7-2.03-5.84-2.27"
           id="path6" />
        <path
           class="cls-2"
           d="M235.96,577.21c-2.98-.48-5.61,3.1-4.41,5.96,2.39,3.34,6.32,5.13,10.02,6.68,6.45,2.53,13.35,3.71,20.28,3.46h1.79c5.89.03,11.73-1.11,17.18-3.34,3.22-1.31,7.28-2.62,8.71-6.2,1.07-2.03.24-4.89-2.39-5.13-2.15,0-4.17,1.43-6.32,2.03-7.77,3.21-16.19,4.52-24.57,3.82-5.25-.6-10.14-2.5-14.91-4.77-1.79-.83-3.34-2.15-5.37-2.39v-.12Z"
           id="path7" />
        <path
           class="cls-2"
           d="M240.13,565.4c-2.62-.36-4.41,2.62-3.94,4.89.36,2.15,2.15,3.58,3.7,4.77,6.49,4.5,14.3,6.72,22.19,6.32h1.91c4.96-.04,9.85-1.18,14.31-3.34,2.98-1.19,6.44-2.74,7.51-6.2.48-1.55.72-3.82-1.07-4.77-1.91-.95-3.7.6-5.37,1.19-5.71,3-12.04,4.59-18.49,4.65-5.53-.22-10.91-1.86-15.63-4.77-1.79-.83-3.22-2.39-5.13-2.74"
           id="path8" />
        <path
           class="cls-2"
           d="M196.24,390.17c-3.82,3.94-.83,11.09-1.19,16.1,2.15,15.75,4.65,31.61,10.5,46.52,7.16,14.31,22.43,22.07,31.61,34.83,3.34,6.08,2.15,13.48,2.86,20.28.48,18.25.36,36.62,0,54.87,8.35,4.29,17.3,8.35,26.84,6.8,5.61-1.31,16.1-2.15,17.3-7.75l-1.19-94.83c-3.22-9.66-13.12-14.67-20.4-20.87-6.08-6-11.74-12.42-16.94-19.2-3.1-5.37-15.39-7.16-10.97,1.91,2.62,7.99,9.18,13.84,10.85,22.19.36,4.65,5.96,13.12,1.19,15.75-2.94-5.18-7.39-9.35-12.76-11.93-5.25-3.94-13.96-5.61-15.86-12.52-1.72-9.84-6.28-18.96-13.12-26.24,1.79-8.83,0-19.92-7.63-25.65l-1.07-.24Z"
           id="path9" />
        <path
           class="cls-2"
           d="M208.04,391.96c-3.58.6-3.34,5.01-1.79,7.4,1.77,5.13,2.22,10.63,1.31,15.98,6.54,7.28,10.92,16.25,12.64,25.88,0,3.58,3.82,4.77,6.32,6.56,5.84,3.7,12.29,6.44,17.53,11.09,1.07,1.19,1.91,2.39,1.19,0-.83-3.1-1.19-6.44-3.58-8.71-3.34-3.58-7.4-6.68-12.17-7.63-.36-5.01-2.74-9.54-4.89-13.84-2.39-4.17-4.89-8.59-8.95-11.21,0-7.28,0-14.91-3.1-21.71-.95-1.67-2.39-3.7-4.53-3.82"
           id="path10" />
        <path
           class="cls-2"
           d="M217.94,394.83c-2.39.72-1.91,3.82-1.19,5.61,1.04,5.18,1.44,10.47,1.19,15.75,4.65,3.58,7.4,8.83,10.02,13.84,1.67,3.34,3.1,6.92,3.7,10.62,3.7,1.19,6.92,3.58,9.78,5.96-1.19-3.34-3.58-5.96-5.37-9.18s-3.58-6.68-4.41-10.38c-3.58-3.7-5.49-9.07-4.77-14.31.24-5.61-1.55-11.45-5.37-15.75-.95-.95-2.15-2.03-3.58-2.15"
           id="path11" />
        <path
           class="cls-2"
           d="M229.28,396.5c-1.43.24-2.15,1.43-2.86,2.5-.36,1.07.95,2.15,1.19,3.34,1.56,3.94,2.13,8.2,1.67,12.41-.12,2.98.95,5.96,2.39,8.35.55-1.88,2.22-3.22,4.17-3.34.6,0,1.67.24,1.19-.83-.48-5.73-1.31-11.45-3.34-16.7-.59-2.07-1.74-3.93-3.34-5.37-.24-.24-.72-.48-1.19-.36h.12Z"
           id="path12" />
      </g>
      <g
         id="bn-a-2"
         data-name="bn-a">
        <path
           class="cls-2"
           d="M728.83,589.62c2.98-.48,6.32,2.5,5.13,5.61-2.15,3.1-5.96,4.77-9.3,6.2-8.8,3.44-18.25,4.9-27.67,4.29-6.92,0-13.78-1.21-20.28-3.58-3.58-1.19-8.11-2.39-9.54-6.44-1.55-2.5,1.19-5.13,3.7-4.65,3.58.83,7.16,2.39,10.74,3.46,7.87,2.23,16.07,3.03,24.21,2.39,5.93-.86,11.71-2.55,17.18-5.01,1.91-.83,3.7-2.03,5.84-2.27"
           id="path13" />
        <path
           class="cls-2"
           d="M725.49,577.21c2.98-.48,5.61,3.1,4.41,5.96-2.39,3.34-6.32,5.13-10.02,6.68-6.45,2.53-13.35,3.71-20.28,3.46h-1.79c-5.89.03-11.73-1.11-17.18-3.34-3.22-1.31-7.28-2.62-8.71-6.2-1.07-2.03-.24-4.89,2.39-5.13,2.15,0,4.17,1.43,6.32,2.03,7.77,3.21,16.19,4.52,24.57,3.82,5.25-.6,10.14-2.5,14.91-4.77,1.79-.83,3.34-2.15,5.37-2.39v-.12Z"
           id="path14" />
        <path
           class="cls-2"
           d="M721.32,565.4c2.62-.36,4.41,2.62,3.94,4.89-.36,2.15-2.15,3.58-3.7,4.77-6.49,4.5-14.3,6.72-22.19,6.32h-1.91c-4.96-.04-9.85-1.18-14.31-3.34-2.98-1.19-6.44-2.74-7.51-6.2-.48-1.55-.72-3.82,1.07-4.77,1.91-.95,3.7.6,5.37,1.19,5.71,3,12.04,4.59,18.49,4.65,5.53-.22,10.91-1.86,15.63-4.77,1.79-.83,3.22-2.39,5.13-2.74"
           id="path15" />
        <path
           class="cls-2"
           d="M765.22,390.17c3.82,3.94.83,11.09,1.19,16.1-2.15,15.75-4.65,31.61-10.5,46.52-7.16,14.31-22.43,22.07-31.61,34.83-3.34,6.08-2.15,13.48-2.86,20.28-.48,18.25-.36,36.62,0,54.87-8.35,4.29-17.3,8.35-26.84,6.8-5.61-1.31-16.1-2.15-17.3-7.75l1.19-94.83c3.22-9.66,13.12-14.67,20.4-20.87,6.08-6,11.74-12.42,16.94-19.2,3.1-5.37,15.39-7.16,10.97,1.91-2.62,7.99-9.18,13.84-10.85,22.19-.36,4.65-5.96,13.12-1.19,15.75,2.94-5.18,7.39-9.35,12.76-11.93,5.25-3.94,13.96-5.61,15.86-12.52,1.72-9.84,6.28-18.96,13.12-26.24-1.79-8.83,0-19.92,7.63-25.65l1.07-.24Z"
           id="path16" />
        <path
           class="cls-2"
           d="M753.41,391.96c3.58.6,3.34,5.01,1.79,7.4-1.77,5.13-2.22,10.63-1.31,15.98-6.54,7.28-10.92,16.25-12.64,25.88,0,3.58-3.82,4.77-6.32,6.56-5.84,3.7-12.29,6.44-17.53,11.09-1.07,1.19-1.91,2.39-1.19,0,.83-3.1,1.19-6.44,3.58-8.71,3.34-3.58,7.4-6.68,12.17-7.63.36-5.01,2.74-9.54,4.89-13.84,2.39-4.17,4.89-8.59,8.95-11.21,0-7.28,0-14.91,3.1-21.71.95-1.67,2.39-3.7,4.53-3.82"
           id="path17" />
        <path
           class="cls-2"
           d="M743.51,394.83c2.39.72,1.91,3.82,1.19,5.61-1.04,5.18-1.44,10.47-1.19,15.75-4.65,3.58-7.4,8.83-10.02,13.84-1.67,3.34-3.1,6.92-3.7,10.62-3.7,1.19-6.92,3.58-9.78,5.96,1.19-3.34,3.58-5.96,5.37-9.18s3.58-6.68,4.41-10.38c3.58-3.7,5.49-9.07,4.77-14.31-.24-5.61,1.55-11.45,5.37-15.75.95-.95,2.15-2.03,3.58-2.15"
           id="path18" />
        <path
           class="cls-2"
           d="M732.17,396.5c1.43.24,2.15,1.43,2.86,2.5.36,1.07-.95,2.15-1.19,3.34-1.56,3.94-2.13,8.2-1.67,12.41.12,2.98-.95,5.96-2.39,8.35-.55-1.88-2.22-3.22-4.17-3.34-.6,0-1.67.24-1.19-.83.48-5.73,1.31-11.45,3.34-16.7.59-2.07,1.74-3.93,3.34-5.37.24-.24.72-.48,1.19-.36h-.12Z"
           id="path19" />
      </g>
      <path
         class="cls-2"
         d="M475.6,596.89c-16.45-1.78-30.37-12.95-35.67-28.63.36-2.62,3.58,1.43,5.13,1.79,2.91,1.73,6.17,2.79,9.54,3.1,4.17,1.79,6.8,5.96,10.85,8.23,1.91,1.43,8.59,4.29,7.28-.36-1.55-2.39-2.62-5.49-1.19-8.35,2.15-4.89,5.61-9.18,9.18-13.36,2.5-.83,4.29,4.29,6.08,5.96,2.5,3.94,5.61,8.71,4.06,13.48-1.43,1.79-2.39,7.16,1.55,5.49,4.77-2.15,8.71-5.73,12.64-9.07,3.58-2.39,7.99-2.5,11.57-4.77,1.79-.36,5.25-3.7,5.96-1.91-2.14,5.33-5.12,10.29-8.83,14.67-5.74,6.81-13.67,11.41-22.43,13-5.25.95-10.5,1.19-15.75.72"
         id="path20" />
      <path
         class="cls-2"
         d="M494.44,578.05c.36-3.22-.36-6.44-2.03-9.54-2.5-5.01-5.96-9.54-9.54-14.19-3.34-1.91-5.13,4.41-7.28,6.2-3.46,5.13-7.75,10.38-7.99,16.7-1.91,2.98-5.49-2.39-7.04-4.17-3.18-4.09-4.86-9.14-4.77-14.31-.29-8.4,1.17-16.77,4.29-24.57,2.39-6.68,6.08-13.12,5.73-20.28.24-5.61-.83-11.57-5.25-15.27-4.29-3.34,2.74-4.06,4.89-2.39,3.82.36,5.84,6.56,9.3,5.01,1.31-3.22,1.67-7.16,4.53-9.66,2.74-3.82,5.61,1.55,6.56,4.17,2.03,2.15,0,7.75,3.1,7.87,3.82-2.74,6.56-7.16,11.45-8.23,2.03-1.19,5.37,0,2.74,2.15-3.58,3.46-6.68,7.63-7.4,12.76-1.07,6.32.48,12.76,3.22,18.37,5.37,11.21,9.54,23.86,6.8,36.38-1.19,5.49-5.01,10.26-9.54,13.48-.6.36-1.55.36-1.79-.48"
         id="path21" />
      <path
         class="cls-2"
         d="M488.72,493.83c-1.61-3.23-3.88-6.07-6.68-8.35-2.86,0-4.65,3.58-6.56,5.49-1.31,2.5-2.98,6.68-6.32,3.46-5.37-3.1-6.2-9.9-6.2-15.51-.36-9.07,3.34-17.53,6.56-25.77,2.03-5.13,1.55-10.97.24-16.22-1.55-5.96-6.44-10.26-10.14-15.03.24-1.79,5.01-.83,6.8-.48,4.06,1.07,6.44,4.53,9.42,7.16,2.15-.72,1.19-5.01,2.27-7.04,0-2.86,3.82-6.56,5.37-2.5,2.39,2.62,0,7.75,2.98,9.3,2.86-1.07,4.29-4.17,6.92-5.61,2.79-1.8,6.31-2.03,9.3-.6,1.07,2.62-3.1,4.77-4.29,7.16-4.84,6.03-6.52,14-4.53,21.47,1.67,5.96,4.53,11.33,5.61,17.3,1.29,6.8,1.08,13.8-.6,20.52-1.07,4.06-4.53,6.68-8.11,8.35-.95-.83-1.43-2.03-2.03-3.1"
         id="path22" />
      <path
         class="cls-2"
         d="M470.71,419.04c-4.06-2.98-5.37-5.73-5.37-11.33,0-2.74.6-4.29,2.39-6.92,2.86-3.82,2.39-5.01-1.55-3.94-6.32,1.79-9.3.24-9.54-5.13,0-2.62.48-3.7,3.94-7.99,2.86-3.34,3.94-5.13,3.34-5.73-.6-.48-3.94,2.39-10.74,9.3-4.26,4.5-8.81,8.72-13.6,12.64-11.69,7.87-22.9,9.07-28.03,2.98-2.62-3.1-2.5-4.77.48-6.68,1.9-1.28,3.66-2.76,5.25-4.41,5.85-5.34,12.29-9.98,19.2-13.84,4.29-2.15,5.25-3.58,2.5-3.58-3.58,0-14.91,7.4-23.62,15.27-2.5,2.39-6.2,5.01-8.11,5.96-5.31,1.94-11.05,2.35-16.58,1.19-2.62-.83-7.51-5.37-7.51-7.04,0-.36,1.19-1.31,2.39-2.15,1.94-1.1,3.78-2.38,5.49-3.82,6.92-5.96,20.04-12.29,30.42-14.55,3.34-.6,2.03-2.39-1.67-2.15-10.95,2.09-21.2,6.89-29.82,13.96-9.9,8.23-24.81,7.4-29.58-1.55-.83-1.55-1.43-2.98-1.19-3.22,8.45-2.13,16.62-5.26,24.33-9.3,6.65-3.92,13.97-6.55,21.59-7.75,3.34-.6,3.58-2.27.36-2.62-4.29-.48-10.74,1.67-22.07,7.16-14.67,7.28-18.85,8.59-26.48,8.11-7.16-.48-11.09-2.27-16.7-7.63-3.82-3.58-9.07-12.52-8.11-13.6,6.19,1.3,12.52,1.82,18.85,1.55,9.9,0,12.64-.24,17.89-1.79,10.25-3.25,19.92-8.12,28.63-14.43,12.28-10.39,27.81-16.13,43.9-16.22,14.79,0,24.1,3.34,32.45,11.81,2.86,2.86,5.25,4.65,5.61,4.29s.72-5.37.83-11.09c0,0,4.41-.48,5.37.83,0,9.18,0,10.02,1.43,10.02.83,0,1.79-.95,2.39-2.39,1.19-2.98,5.96-7.16,10.97-9.78,10.74-5.37,29.46-5.61,44.49-.36,7.19,2.73,13.91,6.55,19.92,11.33,8.78,6.17,18.43,11,28.63,14.31,8.11,2.39,22.66,2.98,29.94,1.19,2.13-.49,4.28-.89,6.44-1.19,2.74,0-1.91,9.07-7.4,14.43-10.02,9.78-23.02,9.66-41.27-.12-11.45-6.2-25.05-9.54-25.05-6.2,0,.72.72,1.19,1.79,1.19,3.94,0,11.57,2.62,22.31,7.75,6.74,3.89,14.14,6.52,21.83,7.75,2.74,0,2.86,1.79.24,5.61-2.74,4.06-7.4,5.96-13.96,5.96s-9.9-1.31-15.51-5.96c-9.54-7.87-32.92-16.7-32.09-11.93.24.83,1.31,1.43,3.82,1.79,10.07,2.19,19.51,6.68,27.55,13.12l7.04,5.13c1.31.72,1.31.95.24,2.98-1.67,3.34-6.2,5.84-10.97,6.32-6.2.72-11.69-1.19-17.3-5.96-11.93-9.9-23.02-17.06-26.6-17.06-2.98,0-1.67,1.67,3.58,4.41,6.79,3.6,13.12,8,18.85,13.12,2.39,2.27,5.13,4.41,5.96,4.89,2.27,1.19,2.15,2.86-.24,5.96-2.39,3.1-6.44,4.53-11.57,3.94-10.26-1.07-18.37-5.96-31.01-19.09-3.01-3.36-6.28-6.47-9.78-9.3-1.67,0-.6,2.27,2.62,5.96,4.06,4.41,4.77,6.92,3.22,10.74-1.31,3.1-3.58,3.94-8.11,2.62-4.77-1.19-5.49,0-2.39,3.7,4.53,5.84,3.94,12.76-1.79,17.65-1.18,1.14-2.56,2.07-4.06,2.74-.48,0-1.67-1.19-2.74-2.86-3.58-5.49-6.8-5.49-10.38,0-.75,1.22-1.55,2.41-2.39,3.58-1.21-.86-2.4-1.73-3.58-2.62"
         id="path23" />
      <path
         class="cls-2"
         d="M488.72,307.03l-6.2,4.77-5.49-4.06v33.16h11.69v-33.88Z"
         id="path24" />
      <path
         class="cls-2"
         d="M450.79,272.8c-1.08,13.41-4.73,26.49-10.74,38.53l13.24-12.29,9.18,10.97,10.02-11.21,10.14,9.54,9.78-9.9,10.14,11.93,8.83-9.78,15.03,10.74c-5.49-11.93-12.76-22.19-11.93-39.12-14.43,10.74-48.91,12.64-63.7.48v.12Z"
         id="path25" />
      <path
         class="cls-2"
         d="M477.15,264.81c-5.37,0-10.97.12-15.98,1.19-3.32.53-6.49,1.75-9.3,3.58.36,10.26,48.91,14.43,61.91.24-2.93-2.03-6.27-3.37-9.78-3.94-4.77-.95-10.26-.95-15.39-1.19v8.47h-11.45v-8.35Z"
         id="path26" />
      <path
         class="cls-2"
         d="M486.57,212.8h-7.51v58.93h7.63l-.12-58.93Z"
         id="path27" />
      <path
         class="cls-2"
         d="M486.57,214.23l-2.86,28.27,28.99,14.19-14.67-19.68,20.04-6.56-31.49-16.22ZM483.35,206.96c-4.41,0-7.63,1.67-7.63,3.58s3.22,3.58,7.63,3.58,7.63-1.67,7.63-3.58-3.22-3.58-7.63-3.58"
         id="path28" />
    </g>
    <g
       id="g34">
      <path
         class="cls-6"
         d="M469.99,701.75c4.86-1.68,7.55-4.53,9.39-10.06.8-2.11,1.36-4.31,1.68-6.54-.5-1.68-2.68-1.68-4.86.34-1.68,1.17-1.68,1.85-1.34,4.53,1.17,6.71-1.17,8.39-13.92,9.73-1.17,0-4.86,0-8.05-.5-6.04-.67-8.05,0-5.87,1.68,1.12.77,2.37,1.34,3.69,1.68,3.35.84,15.77.34,19.29-1.01v.17ZM496.33,700.58c.67-.67,3.02-1.68,5.37-2.52,3.02-1.01,4.7-2.01,5.87-4.03,3.69-5.54,3.02-10.23-2.35-16.77-3.02-3.35-4.36-3.35-6.71.67q-2.01,3.35,1.01,4.19c1.68.34,3.02,1.68,3.86,3.02,3.19,5.54,2.18,8.89-2.52,8.89-4.36,0-5.54.67-6.71,3.35-.48,1.13-.82,2.31-1.01,3.52,0,1.17,1.68,1.01,3.19-.34M487.6,694.2c.84-2.18,1.17-6.04,1.01-14.09,0-6.21-.17-11.41-.5-11.74-.67-.5-4.19,1.68-4.7,3.19-.17.84.17,2.52.84,3.86,1.17,2.18,1.34,4.19,1.01,12.58-.5,10.57.17,12.25,2.35,6.21"
         id="path29" />
      <path
         class="cls-6"
         d="M467.48,689.34c.5-2.01,1.01-6.04,1.17-9.06.34-2.85.84-6.71,1.34-8.39,1.34-4.03,0-5.03-3.35-2.68l-2.35,1.68.5,5.87c.5,5.37-.34,15.26-1.68,19.12-.17,1.17.34.84,1.68-.67,1.31-1.8,2.23-3.86,2.68-6.04v.17ZM449.53,692.19c4.36-3.69,3.86-10.06,4.86-15.1,0-3.35,2.18-7.38.67-10.23-4.03.67-6.71,4.53-4.53,8.39.17,4.53,0,9.39-2.18,13.42-1.85,2.52-7.88,1.68-7.55-1.85,1.51-5.54-5.03-2.85-7.72-1.34-2.01,1.34-6.21,1.51-4.7-2.01-1.01-4.7-6.88-1.68-10.06-1.68-3.02,0-.34-6.21-4.7-5.03-8.05-.84-17.11,0-24.15-5.03-4.03-1.85-3.35-6.71-1.34-10.06,2.68-4.36,3.35-9.9,7.38-13.25,4.03-3.86-3.69-2.18-5.54-.84-3.86,2.01-.34,7.55-3.35,10.57-2.01,3.35-4.53,7.55-8.72,7.05-6.37-1.17-10.06-7.05-14.43-10.9-3.86-.84-1.68,6.21.34,7.72,3.97,2.94,8.47,5.11,13.25,6.37,4.7-.84,4.86,5.37,8.89,6.37,7.38,3.35,15.6,4.36,23.48,4.86,3.35.17,1.51,5.87,5.7,4.7,2.35.67,7.55-.84,7.72,1.85-3.35,4.19,3.35,4.19,6.04,3.35,3.35-.5,7.38-1.68,8.39,2.68,2.68,3.02,7.72,2.52,10.9.84l1.34-.84Z"
         id="path30" />
      <path
         class="cls-6"
         d="M378.4,655.96c1.17-1.68,3.19-5.03,4.36-7.55.91-2.21,2.1-4.29,3.52-6.21,2.18-2.35,1.01-3.69-2.52-2.85-1.68.34-2.52,1.01-2.68,2.52-1.01,5.03-2.85,10.23-4.53,12.58-3.02,4.36-3.02,4.53-1.68,4.53.5,0,2.01-1.34,3.35-3.02h.17ZM333.45,627.94c-3.35,0-3.35,2.18-.17,3.35,1.51.5,2.85,1.68,3.86,4.03,3.35,6.21,5.03,7.38,13.42,8.05l5.54.5.17,3.35c.17,1.68.67,3.35,1.01,3.35.5,0,2.52-1.01,4.7-2.01,3.86-2.01,7.72-6.71,7.72-9.56,0-1.85-3.35-4.03-6.04-4.03-2.09.31-4.06,1.18-5.7,2.52-6.04,4.36-12.41,3.35-15.94-2.18-2.85-4.7-5.87-7.38-8.55-7.38M362.64,639.69c1.68,0,2.01,1.17,1.17,3.35-.67,1.68-2.68,1.68-3.35,0-.5-1.68.5-3.35,2.18-3.35M588.92,632.31c-2.18,0-2.85.5-4.19,2.68-2.35,3.35-2.52,10.57-.34,13.08,1.17,1.68,1.34,1.68,4.19.5,3.86-1.68,4.53-1.51,4.36.5,0,5.37-7.55,15.43-15.43,20.97-1.61.89-3.04,2.09-4.19,3.52-.67,1.68,2.35,1.17,5.87-.67,5.03-2.52,11.41-9.06,14.09-14.26,2.01-4.19,2.35-5.54,2.68-12.75,0-6.71,0-8.55-1.17-10.9-1.17-2.52-1.68-2.68-4.86-2.68h-1.01ZM589.26,637c1.68,0,1.85.34,2.01,2.68.17,2.01,0,3.19-1.17,4.19q-1.68,1.34-3.02-.67c-1.68-2.85-.67-6.21,2.18-6.21M553.02,687.83c6-2.5,10.88-7.09,13.75-12.92.88-1.78,1.61-3.63,2.18-5.54,0-1.01-3.35-2.52-5.54-2.52s-2.35-1.51-1.68-5.37c1.01-3.86,0-8.55-1.68-8.55-.67,0-1.68.84-2.35,1.85-1.17,1.68-1.17,2.52-.34,5.03,1.17,3.35.17,6.21-3.02,8.39-1.68,1.17-2.52,2.52-2.52,3.69,0,1.01.17,1.85.34,1.85l3.86-1.85,3.35-2.01,2.18,1.68c1.01.84,2.01,2.35,2.01,3.19,0,4.19-12.08,11.41-20.46,12.08-4.36.34-5.03,0-6.71-1.34-1.17-1.34-1.68-2.35-1.34-3.86l1.01-4.53c.84-3.69-.84-3.19-3.52,1.17-2.35,3.35-3.02,7.38-1.68,9.39,1.01,1.68,7.88,3.19,12.75,2.85,3.02-.17,6.21-1.01,9.39-2.68M599.49,661.83c4.36-4.36,6.37-9.73,6.37-17.95v-6.21l3.52-1.68c4.7-2.18,9.23-6.71,9.23-9.06,0-2.68-1.17-2.52-3.19.34-1.51,2.01-3.35,3.19-10.74,6.54-1.85.84-2.01,1.34-2.35,9.06-.5,8.89-1.68,12.08-6.71,18.28-3.02,3.52-3.19,4.03-1.01,4.03.84,0,3.02-1.34,5.03-3.35h-.17ZM551.68,656.8c.5-1.17-2.01-2.01-3.02-1.01-.5.5-.5,1.17-.17,1.68.67,1.17,2.85.84,3.35-.5l-.17-.17ZM617.6,639.85c.5-1.34-2.01-2.18-3.02-1.17-.5.5-.5,1.34-.17,1.68.67,1.17,2.85.84,3.35-.5h-.17ZM538.26,593.56c-1.68.84-2.52,2.68-3.69,4.19-.84.5-.17,1.01.34,1.68,3.02,3.19,4.19,7.55,5.7,11.74,1.34,4.7,3.19,9.9,1.68,14.93-.67,1.85-2.18,3.86-4.36,3.35-3.69-.34-7.21-1.17-10.74-1.17s-5.87,3.02-9.06,2.68c-2.18.17-2.01-4.19-4.03-3.02-1.01,2.35-.5,4.86-.67,7.38.5.34,1.51,0,2.01,0h6.71c.34,2.35.17,5.03,1.85,6.71,2.35.84,4.86,0,6.88-.84,2.35-1.01,2.68-3.86,3.35-5.87.67-2.35,3.69-1.68,5.54-2.68,4.32-1.49,7.13-5.67,6.88-10.23-.17-6.88-2.85-13.42-4.86-19.79-1.01-2.85-1.68-5.7-2.85-8.55,0-.17-.34-.5-.67-.34v-.17ZM527.53,632.64c2.35,0,3.35,2.85,3.02,4.86-1.01,2.68-4.36,1.01-5.03-1.01-1.17-1.68-.34-4.03,2.01-3.86"
         id="path31" />
      <path
         class="cls-6"
         d="M437.79,610.33c-1.27.01-2.5.42-3.52,1.17-6.37,4.53-8.05,9.73-3.69,11.74,3.19,1.51,2.35,3.35-2.68,5.87-7.05,3.35-13.42,3.02-25.16-1.85-3.02-1.34-3.86-.84-3.19,1.85.67,2.68,3.19,4.03,9.06,5.54,6.54,1.34,14.26,1.01,19.29-1.17,2.95-1.48,5.57-3.54,7.72-6.04l3.86-4.19,4.53.5c5.54.67,5.7.84,5.7,3.35,0,2.18,0,2.35,5.2,2.68l8.39.5c2.35,0,3.69.5,4.36,1.68,1.01,1.17,1.68,1.34,10.06.5,7.72-.67,9.39-.67,12.92.67,2.52.84,5.2,1.17,7.38.84,6.04-.67,14.26-5.54,15.43-9.23.17-.34,2.35-1.17,4.86-1.68,6.04-1.17,6.37-2.52.67-3.19-2.8-.38-5.56-1.06-8.22-2.01-1.98-.81-4.07-1.31-6.21-1.51-3.02,0-6.04,1.85-6.04,3.86,0,1.34.5,1.51,4.19,1.17,3.35-.5,4.36-.34,6.04,1.17,1.34,1.01,2.01,2.01,1.68,2.35-.67,1.34-7.72,4.53-10.9,5.03-1.81.38-3.7.14-5.37-.67-2.85-1.34-6.88-1.68-7.72-.5-.17.67-1.17.34-2.35-.84l-1.68-1.68-4.36,1.68c-4.36,1.68-5.87,1.68-5.87-.34,0-1.01-1.17-1.01-7.55-.67-7.05.5-7.72.34-9.06-1.01-1.17-1.34-1.17-1.85-.34-3.35.84-1.17.84-1.68,0-2.52-.67-.67-1.68-.67-4.36,0-6.88,1.85-8.89.84-8.89-4.53,0-3.35-1.85-5.2-4.19-5.2M436.11,615.36c.34,0,.5,0,1.01.67.67.5,1.01,1.68.67,2.35-.5,1.68-3.52,1.51-4.19-.17-.17-.84,0-1.68,1.01-2.35l1.51-.5Z"
         id="path32" />
      <path
         class="cls-6"
         d="M423.69,620.23c4.03-2.68,4.03-2.35,4.53-9.9.5-5.03.5-5.54-1.01-5.54-2.01,0-3.19,2.18-3.19,6.54,0,2.68-.34,4.03-1.68,5.54-3.69,3.35-12.41,1.85-13.42-2.52-.34-1.51,0-2.85,1.85-5.37,3.86-5.37,3.02-6.71-1.68-2.68-3.35,2.85-3.86,2.85-3.19.5.5-2.18-.67-3.19-3.35-2.52-1.17.34-1.85,1.17-2.18,2.85s-1.17,2.52-2.35,2.68c-2.18.67-5.7-1.34-5.7-3.19,0-1.17,5.37-7.72,12.25-15.1,1.83-1.65,3.46-3.51,4.86-5.54,0-.34-1.51-.67-3.19-.67-2.52,0-3.02.34-3.02,1.51,0,.67-3.52,5.37-7.88,10.06-8.89,10.06-9.56,12.25-5.03,14.76,3.59,2.16,8.11,2.03,11.57-.34l2.85-2.01v3.69c0,4.53.84,6.04,4.53,8.05,4.56,2.29,10,1.97,14.26-.84h.17ZM610.39,558.33c-3.35,2.01-.84,6.21-.34,8.89-1.34,3.69-6.04,4.7-9.56,5.54-5.03.67-8.55,5.03-10.4,9.39-1.01,2.85-3.52,7.21-6.21,2.85-2.35-2.35-6.71-4.19-9.39-1.51-2.18,2.01-2.68,5.03-3.52,7.72-1.17-2.01-1.68-5.03-4.36-5.7-4.19.5-2.68,5.87-.84,8.05,1.85,2.52,3.52,5.87,1.68,8.89-1.34,3.69-6.71,6.04-10.06,3.02-2.85-1.68-.84-7.21-3.69-7.55-1.51,1.17-1.68,6.88-3.86,3.69-1.68-2.68-.84-6.37-2.85-8.72-2.35.34-4.36,4.36-3.52,6.71,2.9,4.47,4.84,9.5,5.7,14.76.84,2.18,0,6.21,1.85,7.05,1.34-3.35,0-7.05,1.17-10.4,3.02-.34,6.71,1.01,9.9.34,4.7-.67,8.39-4.53,9.9-8.72.5-3.35,0-6.37-.17-9.56,3.69.5,7.55.5,11.07,1.68,1.68,2.68-.5,6.54-1.01,9.39-1.85,6.04-6.71,10.4-11.24,14.43-1.85,1.17-2.18,4.19.67,2.68,6.21-2.68,10.74-8.39,13.42-14.43,2.01-4.53.34-9.73,1.68-14.43,1.85-3.69,6.37-2.85,9.73-2.85,3.35-.17,6.37-4.19,5.03-7.55-1.01-3.86,3.19-5.7,5.87-7.05,3.69-1.85,6.71-5.7,6.37-10.06-.17-2.18,0-6.37-3.02-6.54M597.14,580.64c4.03,1.17-.67,8.72-2.85,3.86-.5-1.68,1.01-3.86,2.85-3.86M578.69,586.18c5.2-.34,3.35,7.21-1.01,3.86-2.35-1.17-1.68-4.03,1.01-3.86M391.32,615.36c.17-.84-.17-1.34-.84-1.34-1.51,0-2.35,1.34-1.68,2.35.67,1.17,2.35.5,2.52-1.01M452.04,608.65c0-1.17-.5-1.68-1.34-1.34-2.01.34-2.35,2.85-.34,2.85,1.17,0,1.68-.5,1.68-1.68v.17ZM377.06,572.25c-2.52-.5-4.03,1.51-4.86,3.35-1.68,3.19-4.03,6.21-7.21,7.88-2.35.67-5.03-.34-6.88-1.51-2.52-1.17-1.85-4.03-3.02-6.04-1.68-1.34-4.7.5-4.7,2.68-.17,2.85,2.52,4.53,4.7,5.54,1.85,1.17,4.53,1.85,5.37,4.19,0,2.01.67,4.19,3.19,3.35,2.68,0,3.35,3.35,2.18,5.37-1.23,2.19-1.7,4.73-1.34,7.21,1.34,1.17,2.68-1.68,3.69-2.68l1.85-2.52c4.7.34,9.56.84,14.26.67,3.35,0,6.37-2.18,8.39-4.53,3.19-3.35,5.7-7.05,9.23-9.73,2.52-.67,1.17-5.37-1.51-4.03-2.35,1.01-3.02,3.52-4.7,5.2-2.68,3.35-5.54,6.71-9.06,9.39-2.52,1.01-5.37.67-8.05,0-1.01-.84,2.18-1.68,2.68-2.68,1.51-1.68,3.35-3.02,4.03-5.03-.84-1.68-3.35-1.85-5.03-1.85-4.53.5-7.88,4.19-12.25,4.53-3.35,0-1.68-3.52,0-4.7,2.85-3.52,6.04-6.88,9.23-10.4.84-1.01,4.03-2.01,2.01-3.35-.67-.34-1.51-.34-2.18-.34M379.24,590.03c2.18,1.17-1.51,3.35-3.02,3.02-2.01.5-2.01-1.51-.34-1.85,1.01-.5,2.18-1.17,3.35-1.17M372.37,594.73c1.17,0,3.86,1.17,1.34,1.85-1.68,1.34-3.69-1.34-1.34-1.85"
         id="path33" />
      <path
         class="cls-6"
         d="M426.04,597.75c0-1.68-3.02-1.51-3.35.34-.17,1.01,0,1.34,1.68,1.17.84-.17,1.68-.84,1.68-1.51M559.73,586.01c.34-1.68-2.01-2.68-3.19-1.68-1.17,1.34,0,3.52,1.68,3.35.67-.34,1.34-1.01,1.51-1.68M351.73,569.57c2.01-1.68,2.01-1.85,1.17-5.87-1.34-5.54-1.17-6.21.84-6.71,2.68-.67,9.56,3.02,11.07,5.87q1.17,2.35-.84,4.19c-2.18,2.01-2.18,4.36,0,4.36,1.68,0,6.71-4.7,6.71-6.37,0-2.18-5.54-7.72-9.73-9.73-2.63-1.19-5.5-1.76-8.39-1.68-5.54,0-6.21,1.17-4.86,7.55,1.68,7.38-.5,8.39-6.71,2.85-4.32-3.92-6.55-9.63-6.04-15.43,0-7.38,2.85-11.07,9.06-11.74,4.36-.67,4.19-1.68,0-2.35-6.54-1.01-11.74,3.35-13.92,10.74-2.18,8.39,3.02,18.62,12.08,23.82,4.86,2.85,6.71,2.85,9.56.5M600.83,560.34c.5-.5.84-1.68.84-2.52s1.01-2.85,2.01-4.19c.85-1,1.53-2.13,2.01-3.35,0-1.51-2.52-1.34-4.36,0-2.01,1.68-3.35,1.68-3.35.17,0-.34.84-1.17,2.01-1.68,2.85-1.34,3.02-2.68.67-3.86-3.19-1.34-6.21,1.17-6.54,5.37-.17,2.85,0,3.35,2.18,4.53,2.01,1.17,2.35,1.85,2.01,3.35-.5,3.02.67,4.03,2.52,2.18M624.31,557.66c1.68-1.51,3.02-3.35,3.02-3.86s1.51-2.01,3.35-3.35c5.03-3.69,6.21-7.38,3.86-13.25-.84-2.18-3.69-5.37-9.73-10.9-2.92-2.88-6.13-5.47-9.56-7.72-1.68,0-1.51,6.21.17,6.71,3.19,1.01,5.03,2.35,9.73,6.71,5.7,5.03,8.22,9.73,6.71,12.25-1.17,2.52-3.02,1.68-8.05-3.35-2.52-2.85-5.03-5.03-5.54-5.03-.67,0-1.01.84-1.01,2.35,0,1.68.84,3.35,3.35,6.21,4.19,4.7,4.7,7.38,1.68,9.9-1.34.84-2.35,1.68-2.68,1.68-4.06-6.94-9.48-12.98-15.94-17.78-.84,0-1.17.67-1.17,2.52,0,2.18.5,3.02,2.18,3.86,2.01,1.01,7.38,6.37,12.58,12.75,1.51,1.68,3.02,3.35,3.35,3.35.17,0,1.85-1.34,3.52-3.02h.17ZM634.71,527.8c-.67-2.18-15.1-16.77-16.44-16.77-.84,0-1.01.84-.84,3.19,0,2.85.5,3.35,2.35,3.69,1.34.5,5.03,3.35,8.39,6.71,3.35,3.35,6.37,5.7,6.71,5.54l-.17-2.35ZM549.17,693.36c.46,1.03-.06,2.2-1.17,2.63-1.11.43-2.39-.06-2.85-1.08-.22-.5-.22-1.05,0-1.55-.33-1.07.34-2.18,1.5-2.49,1.16-.31,2.36.31,2.7,1.38.11.36.11.74,0,1.11h-.17ZM556.88,690.85c0,1.11-.98,2.01-2.18,2.01s-2.18-.9-2.18-2.01.98-2.01,2.18-2.01,2.18.9,2.18,2.01h0"
         id="path34" />
    </g>
  </g>
</svg>
