<?xml version="1.0" encoding="UTF-8" standalone="no"?>
<svg
   id="Layer_1"
   data-name="Layer 1"
   viewBox="0 0 960 960"
   version="1.1"
   sodipodi:docname="kh.svg"
   inkscape:version="1.4 (86a8ad7, 2024-10-11)"
   xmlns:inkscape="http://www.inkscape.org/namespaces/inkscape"
   xmlns:sodipodi="http://sodipodi.sourceforge.net/DTD/sodipodi-0.dtd"
   xmlns="http://www.w3.org/2000/svg"
   xmlns:svg="http://www.w3.org/2000/svg">
  <sodipodi:namedview
     id="namedview67"
     pagecolor="#ffffff"
     bordercolor="#666666"
     borderopacity="1.0"
     inkscape:showpageshadow="2"
     inkscape:pageopacity="0.0"
     inkscape:pagecheckerboard="0"
     inkscape:deskcolor="#d1d1d1"
     inkscape:zoom="0.60030419"
     inkscape:cx="421.45299"
     inkscape:cy="482.2555"
     inkscape:window-width="1920"
     inkscape:window-height="1017"
     inkscape:window-x="-8"
     inkscape:window-y="-8"
     inkscape:window-maximized="1"
     inkscape:current-layer="Layer_1" />
  <defs
     id="defs1">
    <style
       id="style1">
      .cls-1 {
        fill: #032ea1;
      }

      .cls-1, .cls-2, .cls-3 {
        stroke-width: 0px;
      }

      .cls-4 {
        stroke-width: 1.02px;
      }

      .cls-4, .cls-5 {
        fill: none;
      }

      .cls-4, .cls-5, .cls-6 {
        stroke-miterlimit: 5.12;
      }

      .cls-4, .cls-5, .cls-6, .cls-7, .cls-8 {
        stroke: #000;
      }

      .cls-5, .cls-6, .cls-7 {
        stroke-width: 1.28px;
      }

      .cls-6, .cls-7, .cls-3, .cls-8 {
        fill: #fff;
      }

      .cls-7, .cls-8 {
        stroke-linejoin: bevel;
      }

      .cls-2 {
        fill: #e00025;
      }

      .cls-8 {
        stroke-width: 1.15px;
      }

      .cls-9 {
        mask: url(#mask);
      }
    </style>
    <mask
       id="mask"
       x=".11"
       y=".09"
       width="959.91"
       height="959.91"
       maskUnits="userSpaceOnUse">
      <g
         id="a">
        <circle
           class="cls-3"
           cx="480.07"
           cy="480.04"
           r="479.96"
           id="circle1" />
      </g>
    </mask>
  </defs>
  <g
     class="cls-9"
     mask="url(#mask)"
     id="g3">
    <g
       id="g2">
      <path
         class="cls-1"
         d="M.11.09h959.91v250.66l-73.12,227.98,73.12,230.98v250.29H.11v-250.29l64.12-231.54L.11,250.75V.09Z"
         id="path1" />
      <path
         class="cls-2"
         d="M.11,250.75h959.91v458.96H.11V250.75Z"
         id="path2" />
    </g>
  </g>
  <g
     id="g67">
    <g
       id="g7">
      <path
         class="cls-7"
         d="M344.84,447.88h273.09v105.11h-273.09v-105.11Z"
         id="path3" />
      <path
         class="cls-7"
         d="M604.01,505.71h8.4v39.6h-8.4v-39.6ZM344.84,486.28h273.09v12h-273.09v-12ZM344.84,469.48h273.09v11.04h-273.09v-11.04Z"
         id="path4" />
      <path
         class="cls-8"
         d="M344.84,453.16h273.09v10.32h-273.09v-10.32Z"
         id="path5" />
      <path
         class="cls-7"
         d="M416.83,505.71h8.64v39.6h-8.64v-39.6ZM534.42,505.71h8.64v39.6h-8.64v-39.6ZM347.24,505.71h8.4v39.6h-8.4v-39.6ZM364.04,505.71h8.4v39.6h-8.4v-39.6ZM382.03,505.71h8.4v39.6h-8.4v-39.6ZM400.03,505.71h8.4v39.6h-8.4v-39.6ZM550.74,505.71h8.64v39.6h-8.64v-39.6ZM568.74,505.71h8.64v39.6h-8.64v-39.6ZM586.74,505.71h8.64v39.6h-8.64v-39.6Z"
         id="path6" />
      <path
         class="cls-6"
         d="M238.05,558.27c5.02-2.73,8.8-7.28,10.56-12.72h463.4c1.76,5.43,5.54,9.99,10.56,12.72H238.05Z"
         id="path7" />
    </g>
    <path
       class="cls-6"
       d="M474.43,287.81s-.24-9.84,5.52-10.08c5.52,0,5.28,10.08,5.28,10.08h-10.8ZM444.43,418.6v-13.2c0-6.72-6.72-7.2-6.72-12,0,0-.96-7.2.96-10.56,2.64,9.6,7.2,7.92,7.2,3.84,0-3.36-2.4-6.72-7.92-15.12-1.92-2.64-.72-11.04,1.68-14.16.96,7.2,2.16,10.8,5.28,10.8,1.92,0,3.36-1.2,3.36-4.8,0-4.8-3.12-7.2-4.8-11.52-1.69-4.39-.66-9.36,2.64-12.72,1.2,7.2.96,10.08,4.08,10.08,6.48-2.16,0-11.52-1.44-13.92-1.44-2.64,2.4-8.16,2.4-8.16,1.92,6.48,2.4,6.96,4.8,6.24,2.88-.72,2.4-4.8-.96-8.16-2.16-2.4-1.92-5.52.48-7.92,2.4,4.56,5.28,4.32,5.52,1.44l-1.92-10.56h41.76l-2.16,10.32c-.48,2.88,3.36,3.6,5.76-1.2,2.4,2.4,2.64,5.76.48,7.92-3.36,3.36-3.84,7.44-.96,8.16,2.4.72,2.88,0,4.8-6.24,0,0,3.6,3.6,2.4,8.16-1.44,2.4-7.92,12-1.44,13.92,3.12,0,2.88-2.88,4.08-10.08,3.21,3.41,4.15,8.37,2.4,12.72-1.44,4.32-4.8,6.72-4.8,11.52,0,3.6,1.68,4.8,3.6,4.8,3.12,0,4.32-3.36,5.28-10.8,2.4,3.12,3.6,11.52,1.68,14.4-5.52,8.16-8.16,11.52-8.16,14.88,0,4.08,4.8,5.76,7.2-3.84,2.16,3.36,1.2,10.56,1.2,10.56,0,4.8-6.48,5.28-6.72,12v13.2h-71.03ZM461.71,308.21l-.96-7.44h38.16l-.96,7.44h-36.24ZM464.11,300.53l-.48-6h32.4l-.72,6h-31.2ZM469.63,294.29l-.72-6.24h21.6l-.24,6.24h-20.64ZM548.82,558.27c-4.8-1.68-12-6.96-12-12v-58.31l6.24-8.16h-126.23l6,8.16v58.31c0,5.04-4.8,10.32-9.6,12h135.59Z"
       id="path8" />
    <path
       class="cls-7"
       d="M438.91,505.71h8.64v39.6h-8.64v-39.6ZM511.86,505.71h8.64v39.6h-8.64v-39.6Z"
       id="path9" />
    <path
       class="cls-6"
       d="M414.43,413.56v66.23h129.59v-66.23c-3.04,1.11-5.36,3.61-6.24,6.72v28.32h-116.87v-28.32s-1.44-4.8-6.72-6.72h.24Z"
       id="path10" />
    <path
       class="cls-6"
       d="M526.26,558.27c-4.32-1.68-13.44-6.96-13.44-12v-65.27c.96-3.6,5.76-5.76,8.88-8.16h-85.67c4.08,2.4,8.64,4.08,10.32,8.16v65.27c0,5.04-7.2,10.32-11.52,12h91.43Z"
       id="path11" />
    <path
       class="cls-6"
       d="M537.78,473.56v-47.04h-11.76v-4.56h-93.11v4.8h-12v46.8h116.87ZM508.02,558.27c-4.32-1.68-10.32-6.96-10.32-12v-55.67l3.36-5.04h-42.48l3.6,4.8v55.91c0,5.04-6.24,10.32-10.32,12h56.15Z"
       id="path12" />
    <path
       class="cls-6"
       d="M468.91,485.56h21.6v72.71h-21.6v-72.71Z"
       id="path13" />
    <path
       class="cls-7"
       d="M501.78,469.48c0-4.8,13.92-5.04,21.12-9.12h-86.39c7.2,4.08,20.88,4.32,20.88,9.12l2.88,9.36,36,1.44,5.52-10.8Z"
       id="path14" />
    <path
       class="cls-6"
       d="M518.58,418.6c0-11.76.48-16.08,4.08-16.08v36.96c-8.88,3.36-15.12,14.4-15.12,14.4h-55.67s-6.24-11.04-15.12-14.4v-37.2c4.32,0,4.32,4.8,4.32,16.08l77.51.24ZM522.66,413.8c0-13.44,11.76-14.88,11.76-14.88v12c-4.56-.24-6.72,3.84-6.72,9.6s3.6,6,3.6,6v34.08h-8.64v-46.8Z"
       id="path15" />
    <path
       class="cls-6"
       d="M436.75,413.8c0-13.44-11.76-14.88-11.76-14.88v12c4.56-.24,6.72,3.84,6.72,9.6s-3.6,6-3.6,6v34.08h8.64v-46.8Z"
       id="path16" />
    <g
       id="g18">
      <path
         class="cls-4"
         d="M459.55,320.93h41.28M454.75,333.89h50.4M449.95,349.49h59.75M444.91,368.45h70.79M443.23,390.04h72.95"
         id="path17" />
      <path
         class="cls-5"
         d="M421.15,461.08h116.63M458.11,461.08h43.2v15.84h-43.2v-15.84Z"
         id="path18" />
    </g>
    <path
       class="cls-6"
       d="M452.83,425.56c7.2,8.64,6.24,23.28,6.24,31.92h41.76c0-8.64-.96-23.28,6.24-31.92h-54.24ZM476.11,327.17l-5.76-3.12v-8.4c2.4.72,4.8.96,5.28,4.8.72-5.52,2.4-5.04,4.56-7.2,2.4,2.16,3.6,1.68,4.56,7.2,0-3.84,2.88-4.08,5.04-4.8v8.4l-5.52,2.88-8.16.24Z"
       id="path19" />
    <path
       class="cls-6"
       d="M475.63,340.85l-9.6-6.72v-7.44c3.6.72,7.2,1.2,7.68,5.28.96-6,3.12-8.88,6.48-11.28,3.12,2.4,5.28,5.28,6.48,11.28.24-4.08,4.08-4.56,7.2-5.28v7.68l-9.36,6.48h-8.88Z"
       id="path20" />
    <path
       class="cls-6"
       d="M474.91,362.21l-10.8-9.6v-11.28c3.84.96,8.16,1.44,8.64,7.44,1.2-8.4,3.6-12.96,7.2-16.32,3.84,3.36,6.24,7.92,7.68,16.32.48-6,4.8-6.48,8.64-7.44v11.28l-11.04,9.6h-10.32ZM495.06,374.93l-9.6,13.68h-11.28l-9.84-13.68h30.72ZM458.59,397.72c4.8,2.64,6.72,8.16,7.2,18.24h27.84c.48-10.08,2.4-15.6,7.2-18.24h-42.24Z"
       id="path21" />
    <path
       class="cls-7"
       d="M501.3,374.69v-13.44c-4.2.89-7.64,3.89-9.12,7.92,0-4.8-6-15.12-12.48-20.4-6.48,5.76-12.72,15.36-12.48,20.16-1.2-3.6-4.32-6.48-9.12-7.68v13.68l43.2-.24Z"
       id="path22" />
    <path
       class="cls-7"
       d="M503.22,397.72v-13.44c-5.04,1.44-8.4,4.08-9.84,7.92,0-4.8-6.48-15.12-13.68-20.4-7.2,6-13.92,15.36-13.68,20.4-1.2-3.6-4.8-6.48-9.84-7.92v13.68l47.04-.24Z"
       id="path23" />
    <path
       class="cls-7"
       d="M508.98,425.8v-15.84c-5,1.56-9.31,4.78-12.24,9.12,0-8.4-9.6-21.6-17.04-25.68-7.68,4.32-17.04,17.76-17.04,25.68-3-4.37-7.4-7.59-12.48-9.12v15.84h58.79Z"
       id="path24" />
    <path
       class="cls-7"
       d="M505.62,461.08v-16.32c-5.76,2.16-7.2,7.44-9.12,11.28.72-16.56-9.12-34.08-16.8-38.64-7.68,4.56-17.76,22.56-16.8,38.4-1.92-3.36-3.6-8.88-9.12-11.04v16.08l51.84.24Z"
       id="path25" />
    <path
       class="cls-6"
       d="M501.78,485.56v-16.32c-6,1.44-6.24,3.6-8.16,7.2.72-9.84-6.24-21.12-13.92-25.44-7.68,4.32-14.4,15.6-13.92,25.44-1.92-3.6-2.16-5.76-8.16-7.2v16.32h44.16Z"
       id="path26" />
    <g
       id="kh-a">
      <path
         class="cls-6"
         d="M248.85,545.55v-48.96c-1.68-6.24-7.2-12-11.04-12.96v-43.2l8.88,4.8,10.32,45.36v55.19l-8.16-.24Z"
         id="path27" />
      <path
         class="cls-6"
         d="M248.85,545.79v-49.2c-1.68-6.24-7.2-12-11.04-12.96v-46.08c6,0,8.88,7.68,8.88,7.68l10.32,45.36v54.96l-8.16.24Z"
         id="path28" />
      <path
         class="cls-6"
         d="M242.37,558.27c4.08-1.68,10.08-6.96,10.08-12v-61.43l-2.88-4.8h104.87l-4.08,4.8v61.43c.36,5.18,3.48,9.76,8.16,12h-116.15Z"
         id="path29" />
      <path
         class="cls-6"
         d="M337.16,558.27c-4.08-1.68-10.08-6.96-10.08-12v-58.31l8.64-8.16h-71.03l8.64,8.16v58.31c0,5.04-6,10.32-10.08,12h73.91Z"
         id="path30" />
      <path
         class="cls-6"
         d="M327.32,558.27c-4.08-1.68-10.32-6.96-10.32-12v-52.8l5.76-7.92h-45.12l5.76,7.92v52.8c0,5.04-6,10.32-10.32,12h54.24Z"
         id="path31" />
      <path
         class="cls-6"
         d="M289.64,485.56h21.36v72.95h-21.6l.24-72.95Z"
         id="path32" />
      <path
         class="cls-7"
         d="M260.13,505.71h8.64v39.6h-8.64v-39.6ZM334.04,505.71h8.4v39.6h-8.64l.24-39.6ZM252.69,439h10.56v40.8h-10.56v-40.8ZM252.69,431.32h10.32v7.68h-10.32v-7.68ZM338.12,447.88h14.64v31.2h-14.64v-31.2Z"
         id="path33" />
      <path
         class="cls-6"
         d="M263.01,479.32v-69.59c2.88,0,3.36,10.32,10.08,10.32,3.6,0,3.36-4.32,1.2-7.68-1.68-3.12-3.84-7.2-.96-15.12,2.16,6,7.44,7.92,6.48,4.32-1.68-6.48-6.72-7.68-2.88-17.52,1.2,8.16,6.48,7.92,5.28,3.12-1.44-5.52-4.56-7.92-.72-15.6,2.16,8.88,4.8,8.4,4.8,2.88,0-8.16,0-16.8,10.08-19.92,0,0,.72-7.2,4.56-7.2,3.6,0,4.32,7.2,4.32,7.2,10.32,3.12,10.08,12,10.08,19.92,0,5.52,2.64,6,4.8-2.88,3.84,7.68.72,10.08-.72,15.6-1.2,4.8,4.08,5.04,5.28-3.12,3.84,9.84-1.2,11.04-2.88,17.52-.96,3.6,4.32,1.68,6.48-4.32,2.88,7.92.72,12-.96,15.12-1.92,3.36-2.4,7.68,1.2,7.68,6.72,0,7.2-10.08,10.08-10.08v69.35h-75.59ZM246.45,426.76v53.04h6v-53.04c-2.16-1.2-4.08-1.2-6,0Z"
         id="path34" />
      <path
         class="cls-6"
         d="M246.93,461.08c7.44,3.84,14.88,8.4,16.8,18.72h-16.8v-18.72ZM350.6,445.24v34.56h4.8v-34.56c-1.44-.72-3.6-.96-4.8,0Z"
         id="path35" />
      <path
         class="cls-6"
         d="M355.4,461.08c-7.44,3.6-14.88,7.92-16.8,18.48h16.8v-18.48ZM305.96,380.21l4.32-3.6v-4.8c-1.44,0-2.4.72-3.6,2.4-.94-3.11-3.11-5.71-6-7.2-2.93,1.38-5.19,3.89-6.24,6.96-1.2-1.68-1.92-1.92-3.6-2.4v4.8l4.32,3.84h10.8Z"
         id="path36" />
      <path
         class="cls-6"
         d="M308.36,391.96l1.92-4.56v-6c-1.44,0-2.4.72-3.6,2.4-.94-3.11-3.11-5.71-6-7.2-2.93,1.38-5.19,3.89-6.24,6.96-1.2-1.68-1.92-1.92-3.6-2.16v6l1.92,4.56h15.6Z"
         id="path37" />
      <path
         class="cls-6"
         d="M308.84,407.8l6.24-7.92v-7.68c-2.4,0-3.6,1.2-5.28,3.84-1.68-5.52-4.8-6.48-9.12-9.12-4.56,2.4-7.68,3.6-9.12,8.88-1.92-2.64-3.12-3.36-5.52-3.6v7.68l6.48,7.92h16.32Z"
         id="path38" />
      <path
         class="cls-6"
         d="M310.52,423.4s7.68-6.48,7.92-10.08v-8.4c-2.88.24-5.52.96-7.68,4.56-1.92-6.96-4.8-8.88-10.08-12-5.52,3.12-8.4,5.04-10.08,12-2.4-3.6-4.8-4.32-7.92-4.8v8.64c2.02,3.81,4.7,7.22,7.92,10.08h19.92Z"
         id="path39" />
      <path
         class="cls-6"
         d="M313.64,452.2s10.56-11.28,10.8-15.84v-12.96c-3.84.48-7.68,3.12-10.56,8.64-2.4-10.8-6.24-18.24-13.2-23.52-7.2,5.28-11.04,12.72-13.44,23.52-2.88-5.52-6.48-8.16-10.32-8.64v12.96c.72,4.56,10.56,15.84,10.56,15.84h26.16Z"
         id="path40" />
      <path
         class="cls-6"
         d="M313.64,469.24s8.88-8.88,10.8-12.72v-12.96c-3.84.48-7.68,3.12-10.56,8.4-1.3-8.82-6.04-16.76-13.2-22.08-7.2,5.28-11.04,11.28-13.44,22.08-2.88-5.28-6.48-7.92-10.32-8.4v12.96c2.4,3.84,10.56,12.72,10.56,12.72h26.16Z"
         id="path41" />
      <path
         class="cls-6"
         d="M317.24,479.32c-2.4-11.28-4.8-19.68-17.04-28.08-12.48,8.4-14.64,16.8-17.28,28.08h34.32Z"
         id="path42" />
      <path
         class="cls-6"
         d="M323.72,485.56v-16.32c-5.76,2.4-10.8,5.52-12.72,9.12-1.92-9.12-6-12.96-11.04-18.48-5.04,5.52-8.4,9.6-10.56,18.48-1.92-3.6-6.96-6.96-12.48-9.12v16.32h46.8Z"
         id="path43" />
    </g>
    <g
       id="kh-a-2"
       data-name="kh-a">
      <path
         class="cls-6"
         d="M711.28,545.55v-48.96c1.68-6.24,7.2-12,11.04-12.96v-43.2l-8.88,4.8-10.32,45.36v55.19l8.16-.24Z"
         id="path44" />
      <path
         class="cls-6"
         d="M711.28,545.79v-49.2c1.68-6.24,7.2-12,11.04-12.96v-46.08c-6,0-8.88,7.68-8.88,7.68l-10.32,45.36v54.96l8.16.24Z"
         id="path45" />
      <path
         class="cls-6"
         d="M717.76,558.27c-4.08-1.68-10.08-6.96-10.08-12v-61.43l2.88-4.8h-104.87l4.08,4.8v61.43c-.36,5.18-3.48,9.76-8.16,12h116.15Z"
         id="path46" />
      <path
         class="cls-6"
         d="M622.97,558.27c4.08-1.68,10.08-6.96,10.08-12v-58.31l-8.64-8.16h71.03l-8.64,8.16v58.31c0,5.04,6,10.32,10.08,12h-73.91Z"
         id="path47" />
      <path
         class="cls-6"
         d="M632.81,558.27c4.08-1.68,10.32-6.96,10.32-12v-52.8l-5.76-7.92h45.12l-5.76,7.92v52.8c0,5.04,6,10.32,10.32,12h-54.24Z"
         id="path48" />
      <path
         class="cls-6"
         d="M670.49,485.56h-21.36v72.95h21.6l-.24-72.95Z"
         id="path49" />
      <path
         class="cls-7"
         d="M700.01,505.71h-8.64v39.6h8.64v-39.6ZM626.09,505.71h-8.4v39.6h8.64l-.24-39.6ZM707.45,439h-10.56v40.8h10.56v-40.8ZM707.45,431.32h-10.32v7.68h10.32v-7.68ZM622.01,447.88h-14.64v31.2h14.64v-31.2Z"
         id="path50" />
      <path
         class="cls-6"
         d="M697.13,479.32v-69.59c-2.88,0-3.36,10.32-10.08,10.32-3.6,0-3.36-4.32-1.2-7.68,1.68-3.12,3.84-7.2.96-15.12-2.16,6-7.44,7.92-6.48,4.32,1.68-6.48,6.72-7.68,2.88-17.52-1.2,8.16-6.48,7.92-5.28,3.12,1.44-5.52,4.56-7.92.72-15.6-2.16,8.88-4.8,8.4-4.8,2.88,0-8.16,0-16.8-10.08-19.92,0,0-.72-7.2-4.56-7.2-3.6,0-4.32,7.2-4.32,7.2-10.32,3.12-10.08,12-10.08,19.92,0,5.52-2.64,6-4.8-2.88-3.84,7.68-.72,10.08.72,15.6,1.2,4.8-4.08,5.04-5.28-3.12-3.84,9.84,1.2,11.04,2.88,17.52.96,3.6-4.32,1.68-6.48-4.32-2.88,7.92-.72,12,.96,15.12,1.92,3.36,2.4,7.68-1.2,7.68-6.72,0-7.2-10.08-10.08-10.08v69.35h75.59ZM713.68,426.76v53.04h-6v-53.04c2.16-1.2,4.08-1.2,6,0Z"
         id="path51" />
      <path
         class="cls-6"
         d="M713.2,461.08c-7.44,3.84-14.88,8.4-16.8,18.72h16.8v-18.72ZM609.53,445.24v34.56h-4.8v-34.56c1.44-.72,3.6-.96,4.8,0Z"
         id="path52" />
      <path
         class="cls-6"
         d="M604.73,461.08c7.44,3.6,14.88,7.92,16.8,18.48h-16.8v-18.48ZM654.17,380.21l-4.32-3.6v-4.8c1.44,0,2.4.72,3.6,2.4.94-3.11,3.11-5.71,6-7.2,2.93,1.38,5.19,3.89,6.24,6.96,1.2-1.68,1.92-1.92,3.6-2.4v4.8l-4.32,3.84h-10.8Z"
         id="path53" />
      <path
         class="cls-6"
         d="M651.77,391.96l-1.92-4.56v-6c1.44,0,2.4.72,3.6,2.4.94-3.11,3.11-5.71,6-7.2,2.93,1.38,5.19,3.89,6.24,6.96,1.2-1.68,1.92-1.92,3.6-2.16v6l-1.92,4.56h-15.6Z"
         id="path54" />
      <path
         class="cls-6"
         d="M651.29,407.8l-6.24-7.92v-7.68c2.4,0,3.6,1.2,5.28,3.84,1.68-5.52,4.8-6.48,9.12-9.12,4.56,2.4,7.68,3.6,9.12,8.88,1.92-2.64,3.12-3.36,5.52-3.6v7.68l-6.48,7.92h-16.32Z"
         id="path55" />
      <path
         class="cls-6"
         d="M649.61,423.4s-7.68-6.48-7.92-10.08v-8.4c2.88.24,5.52.96,7.68,4.56,1.92-6.96,4.8-8.88,10.08-12,5.52,3.12,8.4,5.04,10.08,12,2.4-3.6,4.8-4.32,7.92-4.8v8.64c-2.02,3.81-4.7,7.22-7.92,10.08h-19.92Z"
         id="path56" />
      <path
         class="cls-6"
         d="M646.49,452.2s-10.56-11.28-10.8-15.84v-12.96c3.84.48,7.68,3.12,10.56,8.64,2.4-10.8,6.24-18.24,13.2-23.52,7.2,5.28,11.04,12.72,13.44,23.52,2.88-5.52,6.48-8.16,10.32-8.64v12.96c-.72,4.56-10.56,15.84-10.56,15.84h-26.16Z"
         id="path57" />
      <path
         class="cls-6"
         d="M646.49,469.24s-8.88-8.88-10.8-12.72v-12.96c3.84.48,7.68,3.12,10.56,8.4,1.3-8.82,6.04-16.76,13.2-22.08,7.2,5.28,11.04,11.28,13.44,22.08,2.88-5.28,6.48-7.92,10.32-8.4v12.96c-2.4,3.84-10.56,12.72-10.56,12.72h-26.16Z"
         id="path58" />
      <path
         class="cls-6"
         d="M642.89,479.32c2.4-11.28,4.8-19.68,17.04-28.08,12.48,8.4,14.64,16.8,17.28,28.08h-34.32Z"
         id="path59" />
      <path
         class="cls-6"
         d="M636.41,485.56v-16.32c5.76,2.4,10.8,5.52,12.72,9.12,1.92-9.12,6-12.96,11.04-18.48,5.04,5.52,8.4,9.6,10.56,18.48,1.92-3.6,6.96-6.96,12.48-9.12v16.32h-46.8Z"
         id="path60" />
    </g>
    <path
       class="cls-6"
       d="M185.73,617.78h588.67v30H185.73v-30ZM170.13,647.78h619.86v30H170.13v-30ZM216.69,572.67h526.51v19.44H216.69v-19.44Z"
       id="path61" />
    <path
       class="cls-6"
       d="M201.33,592.11h557.71v25.44H201.33v-25.44ZM225.81,557.79h508.75v14.88H225.81v-14.88Z"
       id="path62" />
    <path
       class="cls-6"
       d="M281,557.79h38.4v119.99h-38.4v-119.99Z"
       id="path63" />
    <path
       class="cls-6"
       d="M289.64,557.79h21.36v119.99h-21.6l.24-119.99ZM460.03,557.79h38.4v119.99h-38.4v-119.99Z"
       id="path64" />
    <path
       class="cls-6"
       d="M468.91,557.79h21.6v119.99h-21.6v-119.99ZM640.49,557.79h38.4v119.99h-38.4v-119.99Z"
       id="path65" />
    <path
       class="cls-6"
       d="M648.89,557.79h21.6v119.99h-21.6v-119.99Z"
       id="path66" />
    <path
       class="cls-5"
       d="M248.85,545.55h463.16M289.16,662.66h22.08M289.16,647.54h22.08M289.16,632.66h22.08M289.16,617.54h22.08M289.16,602.67h22.08M289.16,587.55h22.08M289.16,572.67h22.08M469.15,662.66h20.64M469.15,647.54h20.64M469.15,632.66h20.64M469.15,617.54h20.64M469.15,602.67h20.64M469.15,587.55h20.64M469.15,572.67h20.64M648.65,662.66h22.08M648.65,647.54h22.08M648.65,632.66h22.08M648.65,617.54h22.08M648.65,602.67h22.08M648.65,587.55h22.08M648.65,572.67h22.08"
       id="path67" />
  </g>
</svg>
