<?xml version="1.0" encoding="UTF-8" standalone="no"?>
<svg
   id="Layer_1"
   data-name="Layer 1"
   viewBox="0 0 960 960"
   version="1.1"
   sodipodi:docname="ky.svg"
   inkscape:version="1.4 (86a8ad7, 2024-10-11)"
   xmlns:inkscape="http://www.inkscape.org/namespaces/inkscape"
   xmlns:sodipodi="http://sodipodi.sourceforge.net/DTD/sodipodi-0.dtd"
   xmlns="http://www.w3.org/2000/svg"
   xmlns:svg="http://www.w3.org/2000/svg">
  <sodipodi:namedview
     id="namedview91"
     pagecolor="#ffffff"
     bordercolor="#666666"
     borderopacity="1.0"
     inkscape:showpageshadow="2"
     inkscape:pageopacity="0.0"
     inkscape:pagecheckerboard="0"
     inkscape:deskcolor="#d1d1d1"
     inkscape:zoom="0.42447917"
     inkscape:cx="471.16564"
     inkscape:cy="486.47853"
     inkscape:window-width="1920"
     inkscape:window-height="1017"
     inkscape:window-x="-8"
     inkscape:window-y="-8"
     inkscape:window-maximized="1"
     inkscape:current-layer="Layer_1" />
  <defs
     id="defs1">
    <style
       id="style1">
      .cls-1, .cls-2, .cls-3, .cls-4, .cls-5, .cls-6, .cls-7, .cls-8, .cls-9 {
        stroke: #fff;
        stroke-linejoin: round;
        stroke-width: 6.99px;
      }

      .cls-1, .cls-10, .cls-11 {
        fill: none;
      }

      .cls-2, .cls-12, .cls-13 {
        fill: #c8102e;
      }

      .cls-14, .cls-10, .cls-11, .cls-12, .cls-15, .cls-16, .cls-17, .cls-18, .cls-19, .cls-20, .cls-21 {
        stroke: #000;
        stroke-miterlimit: 2.91;
      }

      .cls-14, .cls-10, .cls-12, .cls-15, .cls-16, .cls-17, .cls-18, .cls-20, .cls-21 {
        stroke-width: 1.02px;
      }

      .cls-14, .cls-4 {
        fill: #059334;
      }

      .cls-11, .cls-19 {
        stroke-width: .44px;
      }

      .cls-3, .cls-21 {
        fill: #fcea83;
      }

      .cls-15, .cls-22, .cls-6 {
        fill: #073163;
      }

      .cls-23 {
        fill: #006;
      }

      .cls-23, .cls-24, .cls-25, .cls-26, .cls-27, .cls-28, .cls-22, .cls-29, .cls-30, .cls-13, .cls-31, .cls-32 {
        stroke-width: 0px;
      }

      .cls-25, .cls-17, .cls-19 {
        fill: #f9d050;
      }

      .cls-16, .cls-27, .cls-5 {
        fill: #000001;
      }

      .cls-26, .cls-20, .cls-8 {
        fill: #00493d;
      }

      .cls-28, .cls-18, .cls-7 {
        fill: #fff;
      }

      .cls-29 {
        fill: #eee;
      }

      .cls-30 {
        fill: #d80027;
      }

      .cls-31 {
        fill: #024919;
      }

      .cls-33 {
        mask: url(#mask);
      }

      .cls-32 {
        fill: #0b50a0;
      }
    </style>
    <mask
       id="mask"
       x="-.37"
       y="-.14"
       width="960.37"
       height="960.37"
       maskUnits="userSpaceOnUse">
      <g
         id="a">
        <circle
           class="cls-28"
           cx="479.81"
           cy="480.04"
           r="480.19"
           id="circle1" />
      </g>
    </mask>
  </defs>
  <g
     class="cls-33"
     mask="url(#mask)"
     id="g4">
    <g
       id="g3">
      <path
         class="cls-23"
         d="M479.81-.14h480.19v960.37H-.37v-480.19L479.81-.14Z"
         id="path1" />
      <path
         class="cls-29"
         d="M-.37-.14v60.02l60.02,60.02L-.37,179.93v300.12h60.02l60.02-60.02,60.02,60.02h60.02v-155.69l155.69,155.69h84.41l-15.01-30.01,15.01-28.14v-26.26l-155.69-155.69h155.69v-60.02l-60.02-60.02,60.02-60.02V-.14H179.7l-60.02,60.02L59.65-.14H-.37Z"
         id="path2" />
      <path
         class="cls-30"
         d="M59.65-.14v60.02H-.37v120.05h60.02v300.12h120.05V179.93h300.12V59.88H179.7V-.14H59.65ZM239.72,239.95l240.09,240.09v-58.15l-181.95-181.95h-58.15Z"
         id="path3" />
    </g>
  </g>
  <g
     id="g91">
    <g
       id="g34">
      <path
         id="ky-a"
         class="cls-7"
         d="M811.02,358.11v127.51c0,110.58-52.29,148.53-122.32,178.56-70.03-30.03-122.87-67.99-122.87-178.56v-127.64h245.19v.14Z" />
      <g
         id="ky-b">
        <path
           class="cls-3"
           d="M489.8,653.81c3.96,10.38,32.08,24.16,64.85,6.55,22.25-12.56,36.59-30.03,50.37-61.43,3.82-7.92,5.87-17.75-3.28-23.62-7.24-5.32-19.11-11.19-24.3-16.38-2.59-2.73-5.19-4.64-7.1-6.55,1.37,1.37,2.59,2.59,3.82,4.51,13.11,15.7-.55,38.63-15.02,52.42-10.51,9.83-29.35,33.99-56.93,11.06-5.87-5.19-19.66,16.38-12.29,33.45h-.14ZM887.61,653.81c-4.64,10.38-32.76,24.16-64.85,6.55-22.12-12.56-36.59-30.03-50.92-61.43-3.28-7.92-5.32-17.75,3.82-23.62,7.24-5.32,19.11-11.19,24.3-16.38,2.59-2.73,4.51-4.64,7.1-6.55-1.37,1.37-2.59,2.59-3.82,4.51-13.11,15.7.55,38.63,14.33,52.42,10.51,9.83,30.03,33.99,57.61,11.06,5.87-5.19,18.98,16.38,12.29,33.45h.14Z"
           id="path4" />
        <path
           class="cls-3"
           d="M688.7,710.05c52.29,0,132.83-23.62,176.11-106.07,7.1-13.65,0-20.89-8.6-25.39-9.72-4.9-18.58-11.35-26.21-19.11,10.51,10.51,8.46,17.75,1.37,29.49-33.45,55.7-79.18,83.82-142.66,83.82s-109.21-28.12-142.66-83.82c-7.1-11.74-9.15-18.98.68-29.35-7.52,7.86-16.4,14.28-26.21,18.98-8.46,4.51-15.7,11.74-8.46,25.39,43.14,82.46,124.23,106.07,176.65,106.07Z"
           id="path5" />
      </g>
      <path
         id="ky-c"
         class="cls-2"
         d="M567.61,599.47c-1.37-6.55-9.69-3.96-12.29,3.96-3.53-4.53-6.64-9.37-9.28-14.47-7.78-11.74-9.15-19.66,2.05-30.72,5.19-5.19,15.7-11.19,22.8-4.64,15.02,12.42,7.24,32.76-3.28,45.87ZM809.11,599.47c1.37-6.55,10.51-3.96,13.11,3.96,3.28-4.64,6.55-9.15,9.15-14.47,7.78-11.74,9.15-19.66-2.73-30.72-4.51-5.19-15.02-11.19-22.8-4.64-14.47,12.42-7.24,32.76,3.28,45.87ZM489.8,653.81c-6.55-9.83-11.74-35.49-13.11-41.91-1.91-5.87-2.59-11.19,4.64-13.65,7.24-2.73,13.65,6.42,16.93,14.33,3.28,7.78,8.6,19.52,14.47,33.99-14.47-8.46-26.21-2.73-22.93,7.24h0ZM887.61,653.81c5.87-9.83,11.06-35.49,13.11-41.91,1.37-5.87,2.59-11.19-4.64-13.65-7.24-2.73-13.65,6.42-16.93,14.33-3.28,7.78-8.6,19.52-14.47,33.99,14.47-8.46,25.53-2.73,22.94,7.24h0Z" />
      <g
         id="ky-d">
        <path
           class="cls-7"
           d="M638.33,357.43c-8.46,1.91-14.33,2.59-22.25-4.64-5.19-5.19-3.96-14.33,1.37-17.75,5.87-3.82,11.06-6.42,18.29-4.51,7.24,2.05,26.21,19.66,21.57,20.34-4.64,0-11.74,4.51-18.98,6.55ZM658.53,326.03c2.73-2.05,6.01-3.28,14.47-4.1,7.92-.55,13.65-.55,15.7,5.46,2.73,7.1,4.64,15.56,9.83,19.52-3.28,1.91-19.66,3.96-25.53.68-7.78-3.96-9.83-19.11-14.33-21.57h-.14ZM714.91,326.71c2.59-2.05,5.87-2.05,14.33-1.37s11.74,1.37,13.65,7.24c2.05,6.55,0,15.02,4.1,20.89-4.1,1.37-17.06,1.37-21.71-3.28-7.1-5.19-6.55-20.34-10.38-23.62v.14Z"
           id="path6" />
        <path
           class="cls-6"
           d="M754.09,330.53c-5.87-1.37-9.83-1.91-12.29,0,3.14,3.96.55,19.66,7.1,24.85,4.51,3.28,16.38,4.1,18.98-3.28,3.28-6.55,3.28-16.38-13.65-21.57h-.14ZM686.79,323.98c1.91-1.91,5.87-2.59,13.65-2.59,8.6,0,13.65,1.37,16.38,6.55,2.73,6.55,1.91,15.02,6.55,20.34-1.91,2.59-19.66,2.59-24.85-1.37-7.24-4.64-7.92-19.66-11.74-22.93ZM631.23,329.85c0-3.28,4.51-3.82,16.38-4.51,11.6-1.37,12.29-.68,16.25,7.78,1.91,4.64,4.51,12.42,9.83,15.02-14.47,3.41-19.11,5.32-26.89.68-5.68-3.55-10.38-8.48-13.65-14.33-.68-1.91-.68-3.96-2.05-4.64h.14Z"
           id="path7" />
      </g>
      <g
         id="ky-e">
        <path
           class="cls-4"
           d="M632.46,271.69c-4.64,0-8.46-1.91-11.19-5.19-4.51-6.01-16.93-8.6-22.25-3.28-1.91,1.37-4.51,1.37-6.42,1.91-3.28,0-7.24,3.28-6.01,9.83,2.73-2.05,3.28,0,5.32,0,1.37-.68.68.68.68,1.91,0,3.28,7.1,9.83,13.65,9.15,7.24,0,10.51,2.73,11.74,4.1,2.05,1.77.68,1.23,2.05,4.51,1.91,1.91,2.59,2.59-.68,5.19-5.62,4.68-6.37,13.03-1.69,18.65.51.61,1.08,1.18,1.69,1.69,8.46,6.42,30.03,16.38,54.33-2.73,23.48-18.29,60.07-7.78,62.8-1.37,3.28,6.69,4.51,10.51,5.19,13.79.68,2.73,3.96,5.32,8.6,4.64,4.51,0,9.69,1.91,12.29,3.96,3.41,1.91,7.92,1.37,6.69-4.64-2.73-18.29-13.79-20.89-15.02-29.35,6.42.55,10.92.55,13.65-2.05,1.91-2.59,4.51-7.24,7.24-8.46,1.91-1.37,1.91-2.73-.68-2.05-3.28.68-5.19,2.05-11.19,1.37-30.03-3.28-114.4-26.21-130.78-21.57h0Z"
           id="path8" />
        <path
           class="cls-5"
           d="M765.97,293.94c-4.99,3.52-9.25,7.97-12.56,13.11-6.42,8.46-26.07,16.93-50.37,16.93s-37.82-3.82-48.33-12.29c-4.49-3.59-9.34-6.7-14.47-9.28-7.1-3.28-8.46-10.51-6.55-16.38-1.91,3.28-3.14,6.55-7.1,5.87-2.73,0-7.92,0-6.55,2.73-.68-1.37-.68-3.28-1.37-4.1l-1.37-1.23c2.05,1.37,6.69-2.59,9.97-2.59,2.59.68,5.87-2.59,5.19-6.55l-1.91-8.46c5.19-2.73,73.86,9.83,87.64,11.06,13.65.68,52.97,6.55,47.78,11.19h0Z"
           id="path9" />
        <path
           class="cls-4"
           d="M641.6,269.1c6.55-6.55,14.33-9.83,22.25-7.92h1.91c4.1-3.28,13.11-3.96,18.43-1.37h2.59c7.78-2.59,22.8,0,28.12,5.32l1.91,1.37c17.75-1.37,28.12,6.42,40.55,18.98,1.37,1.37,3.28,3.82,6.55,4.51,3.96.68,4.64,2.73,1.37,4.64-5.25,3.25-9.87,7.41-13.65,12.29-6.01,7.92-24.98,15.84-48.6,15.84s-36.59-4.1-47.1-11.88c-5.87-4.51-10.38-7.1-13.65-9.15-3.96-1.37-9.15-6.55-7.24-11.74,1.37-5.19-1.91-11.74-4.51-18.29,1.91-1.37,7.1-3.28,9.69-1.91l1.37-.68Z"
           id="path10" />
        <g
           id="g12">
          <path
             class="cls-8"
             d="M757.37,285.48c-12.29-12.56-22.8-20.34-40.55-19.11,0,.68,0,2.73-.68,4.1,12.37,5.55,23.33,13.81,32.08,24.16,2.73-2.73,7.24-5.87,9.15-9.15ZM714.91,265.14c-5.32-5.19-20.34-7.92-28.12-5.19,0,2.59,0,6.55-1.37,9.15,4.64,1.91,8.46,6.55,12.42,11.06,2.73-.68,9.15-2.59,12.42-3.28,1.96-3.74,3.51-7.67,4.64-11.74ZM684.2,259.82c-5.32-2.59-14.47-1.91-18.43,1.37-1.37,2.73-1.91,7.92-1.91,10.51,2.73,0,6.55,1.91,7.78,3.28,4.1-1.37,9.28-3.96,11.19-5.87.68-2.73,1.91-6.55,1.37-9.15v-.14ZM641.6,269.1c6.55-6.55,14.33-9.83,22.25-7.92-1.37,2.05-1.91,5.87-1.91,9.83-7.24-.68-16.38,1.37-20.34,3.96v-5.87Z"
             id="path11" />
          <path
             class="cls-8"
             d="M745.63,295.86c-8.22-9.74-18.47-17.56-30.03-22.93,0,.68-1.37,3.28-2.05,5.32,3.96,5.87,11.74,18.98,15.02,26.21,3.28-1.37,12.42-5.32,17.06-8.6h0ZM695.94,310.33c1.13-8.92,1.77-17.9,1.91-26.89,3.28-.68,9.83-2.59,12.42-3.28,3.28,5.32,11.19,19.11,14.47,25.53-7.92,1.91-21.02,5.19-28.81,4.64ZM673,278.93c3.28-1.37,7.92-4.1,11.06-6.55,2.73,1.91,7.92,6.55,9.83,9.15,0,5.87-1.91,22.93-2.59,28.67-5.19,0-13.65-1.23-18.29-3.82.68-9.83,1.37-20.89,0-27.44h0ZM640.24,286.71c.68-1.37,1.37-5.87,1.37-7.78,5.19-3.28,18.29-6.55,28.12-1.37.68,6.55,0,22.93-.68,26.89-8.76-7.12-18.39-13.09-28.67-17.75h-.14Z"
             id="path12" />
        </g>
        <g
           id="g14">
          <path
             class="cls-27"
             d="M607.61,274.83c-1.37,0-2.05-3.82-4.64-3.82-.68,0-2.59.68-3.28,0,0,1.37.68,2.73,1.37,3.28.68,1.91,3.96.68,6.55.68v-.14Z"
             id="path13" />
          <path
             class="cls-1"
             d="M607.61,286.03c7.78,0,9.15-9.83,13.11-10.38M612.11,286.71c5.87,2.73,10.51-11.06,15.02-10.51M600.37,269.78c1.91,0,3.28-2.73,6.55.55,1.37,1.37,3.28,2.05,4.64,2.05M610.2,279.47c-2.73,4.1-7.24,6.55-9.83,5.32M599.01,263.23c-1.91,1.37-3.14,3.82-4.51,5.87M592.59,272.92v3.28"
             id="path14" />
        </g>
      </g>
      <g
         id="ky-f">
        <path
           class="cls-9"
           d="M662.63,263.23c-13.79-10.51-30.17-20.34-45.19-22.25,15.67,10.45,30.54,22.04,44.5,34.68"
           id="path15" />
        <path
           class="cls-9"
           d="M670.41,253.4c-16.38-11.19-35.36-23.62-53.65-24.85,17.12,9.92,32.37,22.77,45.05,37.95M691.3,235.11c7.39-16.8,18.34-31.8,32.08-43.96-6.55,13.79-13.65,41.91-17.06,53.11"
           id="path16" />
        <path
           class="cls-9"
           d="M705.77,231.83c6.33-15.38,18.22-27.81,33.31-34.81-11.34,14.14-19.78,30.38-24.85,47.78"
           id="path17" />
        <path
           class="cls-9"
           d="M711.64,244.8c12.53-19.19,30.5-34.2,51.6-43.14-16.38,16.38-40.55,46.42-46.42,58.29M720.78,259.27c11.74-6.55,35.36-17.06,52.29-13.65-10.38,3.82-41.77,18.16-55.56,31.4"
           id="path18" />
        <path
           class="cls-9"
           d="M718.19,254.63c11.06-11.74,31.4-29.35,52.97-36.59-15.7,15.02-49.15,49.15-53.65,54.33M686.79,247.53c-7.92-24.3-19.66-47.1-37.27-54.33,14.03,20.05,23.78,42.78,28.67,66.76M671.64,246.85c-12.97-15.7-30.72-31.4-50.92-34.68,19.8,12.96,35.44,31.35,45.05,52.97"
           id="path19" />
        <path
           class="cls-9"
           d="M679.01,246.16c-16.38-29.49-28.94-34.68-36.04-40.55,5.87,11.06,20.2,40.55,28.67,52.97"
           id="path20" />
        <path
           class="cls-1"
           d="M646.24,244.25c9.34,5.87,17.34,13.64,23.48,22.8"
           id="path21" />
        <path
           class="cls-9"
           d="M646.24,257.9c3.82,3.28,11.06,7.24,17.61,13.11M724.06,267.73c6.55-5.19,20.89-13.65,28.12-16.38M719.42,263.23c6.55-8.6,19.66-20.34,24.3-24.3M737.71,222.55c-8.8,9.86-17.09,20.16-24.85,30.85M720.78,216.68c-6.2,9.16-11.67,18.8-16.38,28.81M669.04,218.04c3.96,10.51,11.19,28.12,13.65,35.36M663.17,229.1c2.73,4.1,7.92,13.11,9.83,19.66"
           id="path22" />
      </g>
      <g
         id="ky-g">
        <path
           class="cls-9"
           d="M685.42,225.82c0-5.87,3.96-12.29,7.92-12.29,4.51,0,7.78,7.78,7.78,12.29,0,5.32-3.96,9.83-7.78,9.83-4.1,0-7.92-3.82-7.92-9.83Z"
           id="path23" />
        <path
           class="cls-9"
           d="M676.96,231.15c.68-6.55,5.19-11.74,9.15-11.19,3.96.68,5.87,8.6,5.19,13.11-.68,5.19-5.19,9.15-8.46,8.46-3.28,0-6.55-4.51-5.87-10.38ZM694.57,233.06c-1.37-5.87,1.37-12.29,5.32-13.11,3.82-.55,7.78,5.87,8.46,11.19,1.37,5.19-2.05,10.38-5.32,10.38-3.14.68-7.78-2.59-8.46-8.46Z"
           id="path24" />
        <path
           class="cls-9"
           d="M684.74,238.25c0-6.42,3.96-12.29,7.92-12.29,4.51,0,7.78,7.1,7.78,12.29s-3.82,9.83-7.78,9.83-7.92-3.82-7.92-9.83Z"
           id="path25" />
        <path
           class="cls-9"
           d="M673,241.52c0-5.87,4.64-12.29,8.46-12.29,4.1,0,7.92,7.78,7.92,12.29,0,5.32-4.64,9.83-7.92,9.83-3.82,0-8.46-3.82-8.46-9.83ZM697.17,238.93c0-5.87,4.1-12.29,7.92-12.29,4.51,0,7.78,7.78,7.78,12.29,0,5.32-3.82,9.83-7.78,9.83s-7.92-3.96-7.92-9.83Z"
           id="path26" />
        <path
           class="cls-9"
           d="M694.57,244.25c0-6.55,4.64-12.42,8.46-12.42,4.1,0,7.92,7.1,7.92,12.29s-3.96,9.97-7.92,9.97-8.46-4.1-8.46-9.83Z"
           id="path27" />
        <path
           class="cls-9"
           d="M684.2,250.12c0-6.55,3.82-12.42,7.78-12.42,4.64,0,7.92,7.78,7.92,12.29,0,5.46-4.1,9.97-7.92,9.97s-7.92-4.1-7.92-9.83h.14ZM667.81,250.12c0-6.55,3.28-12.42,6.55-12.42s5.87,7.78,5.87,12.29c0,5.46-3.28,9.97-5.87,9.97-3.28,0-6.55-4.1-6.55-9.83ZM704.4,248.89c0-6.01,3.28-11.88,6.55-11.88s6.55,7.24,6.55,11.74c0,5.87-3.96,9.83-6.55,9.83-3.28,0-6.55-3.96-6.55-9.83v.14Z"
           id="path28" />
        <path
           class="cls-9"
           d="M708.36,259.82c1.37-6.42,5.19-11.74,7.78-10.92,2.73.55,3.28,8.33,2.05,12.97-.68,5.87-4.64,9.15-7.24,8.46-2.73-.55-3.96-5.19-2.73-10.38l.14-.14Z"
           id="path29" />
        <path
           class="cls-9"
           d="M695.94,257.9c.68-5.87,4.51-11.74,7.78-11.06,3.96,0,5.87,7.78,5.32,12.29-.68,6.01-4.1,9.97-7.24,9.28-3.28,0-6.55-4.64-5.87-10.51h0ZM677.64,259.82c-2.05-6.42-6.01-10.92-8.6-10.38-2.59.68-3.28,8.46-1.91,13.11,1.37,5.19,5.19,8.46,7.78,7.78,2.05-.55,4.1-5.19,2.73-10.38v-.14Z"
           id="path30" />
        <path
           class="cls-9"
           d="M673,258.59c0-5.87,3.28-11.74,6.55-11.74,3.96,0,6.55,7.24,6.55,11.74,0,5.87-3.28,9.83-6.55,9.83-2.73,0-6.55-3.96-6.55-9.83Z"
           id="path31" />
        <path
           class="cls-9"
           d="M682.83,261.18c0-6.55,3.96-12.29,7.78-12.29,4.64,0,7.92,7.1,7.92,12.29s-3.96,9.83-7.92,9.83-7.78-3.96-7.78-9.83ZM686.11,189.24c-1.37,5.19-5.87,9.83-2.73,17.06-5.73-2.05-10.92-2.73-15.56,2.59,5.87-.68,11.06,1.37,13.65,5.19-5.19-.68-7.78,2.05-9.15,5.32,4.64-1.37,9.15-2.73,11.19-2.05-2.05,2.05-5.32,5.19-5.87,7.92,3.82-3.28,8.46-2.73,11.06-4.64-1.91,4.64,1.91,9.15,5.19,13.65-.55-6.42,3.28-10.92,1.37-14.33,5.87,1.37,6.55,6.55,15.02,6.55-3.28-1.91-5.19-8.46-9.15-8.46,1.91-.68,9.83-1.37,11.19,0-1.37-2.73-6.01-5.19-8.6-5.19,2.73-2.73,7.24-7.92,10.51-9.28-4.64.68-11.74,1.37-14.33,5.32,6.42-5.32,5.19-15.02,12.29-16.38-3.82-.68-9.69,1.91-14.33,6.55,2.05-3.96,2.05-9.15,4.64-10.51-5.32,1.37-11.19,7.92-13.11,11.19-.28-3.71-1.4-7.3-3.28-10.51h0Z"
           id="path32" />
        <path
           class="cls-9"
           d="M689.38,199.75c0,1.91,0,5.87-.68,7.1M697.85,199.07c-1.37,1.37-3.96,5.87-3.96,9.83"
           id="path33" />
        <path
           class="cls-1"
           d="M701.81,206.85c-2.25,1.34-3.91,3.49-4.64,6.01"
           id="path34" />
      </g>
    </g>
    <g
       id="g41">
      <g
         id="ky-b-2"
         data-name="ky-b">
        <path
           class="cls-21"
           d="M489.8,653.81c3.96,10.38,32.08,24.16,64.85,6.55,22.25-12.56,36.59-30.03,50.37-61.43,3.82-7.92,5.87-17.75-3.28-23.62-7.24-5.32-19.11-11.19-24.3-16.38-2.59-2.73-5.19-4.64-7.1-6.55,1.37,1.37,2.59,2.59,3.82,4.51,13.11,15.7-.55,38.63-15.02,52.42-10.51,9.83-29.35,33.99-56.93,11.06-5.87-5.19-19.66,16.38-12.29,33.45h-.14ZM887.61,653.81c-4.64,10.38-32.76,24.16-64.85,6.55-22.12-12.56-36.59-30.03-50.92-61.43-3.28-7.92-5.32-17.75,3.82-23.62,7.24-5.32,19.11-11.19,24.3-16.38,2.59-2.73,4.51-4.64,7.1-6.55-1.37,1.37-2.59,2.59-3.82,4.51-13.11,15.7.55,38.63,14.33,52.42,10.51,9.83,30.03,33.99,57.61,11.06,5.87-5.19,18.98,16.38,12.29,33.45h.14Z"
           id="path35" />
        <path
           class="cls-21"
           d="M688.7,710.05c52.29,0,132.83-23.62,176.11-106.07,7.1-13.65,0-20.89-8.6-25.39-9.72-4.9-18.58-11.35-26.21-19.11,10.51,10.51,8.46,17.75,1.37,29.49-33.45,55.7-79.18,83.82-142.66,83.82s-109.21-28.12-142.66-83.82c-7.1-11.74-9.15-18.98.68-29.35-7.52,7.86-16.4,14.28-26.21,18.98-8.46,4.51-15.7,11.74-8.46,25.39,43.14,82.46,124.23,106.07,176.65,106.07Z"
           id="path36" />
      </g>
      <path
         id="ky-c-2"
         data-name="ky-c"
         class="cls-12"
         d="M567.61,599.47c-1.37-6.55-9.69-3.96-12.29,3.96-3.53-4.53-6.64-9.37-9.28-14.47-7.78-11.74-9.15-19.66,2.05-30.72,5.19-5.19,15.7-11.19,22.8-4.64,15.02,12.42,7.24,32.76-3.28,45.87ZM809.11,599.47c1.37-6.55,10.51-3.96,13.11,3.96,3.28-4.64,6.55-9.15,9.15-14.47,7.78-11.74,9.15-19.66-2.73-30.72-4.51-5.19-15.02-11.19-22.8-4.64-14.47,12.42-7.24,32.76,3.28,45.87ZM489.8,653.81c-6.55-9.83-11.74-35.49-13.11-41.91-1.91-5.87-2.59-11.19,4.64-13.65,7.24-2.73,13.65,6.42,16.93,14.33,3.28,7.78,8.6,19.52,14.47,33.99-14.47-8.46-26.21-2.73-22.93,7.24h0ZM887.61,653.81c5.87-9.83,11.06-35.49,13.11-41.91,1.37-5.87,2.59-11.19-4.64-13.65-7.24-2.73-13.65,6.42-16.93,14.33-3.28,7.78-8.6,19.52-14.47,33.99,14.47-8.46,25.53-2.73,22.94,7.24h0Z" />
      <g
         id="g40">
        <path
           class="cls-26"
           d="M527.75,594.83l-5.19,2.73c-1.37.55-1.37,1.91-1.37,2.59h-.68l-2.59-5.87h.68c0,.55.68,1.37,1.91.55l11.19-5.87c1.37-.68,1.37-1.37.68-1.91l.55-.68,3.28,6.55h-.55c-.68-.68-1.37-1.37-2.73-.68l-4.51,2.73,1.91,3.82,5.32-1.91c1.37-.68.55-2.05.55-2.73h.68l2.73,6.01c-.68-.68-1.37-1.37-2.73-.68l-11.06,5.87c-1.37.68-1.37,1.37-.68,1.91l-.68.68-3.28-5.87.68-.68c.68.68,1.37,1.37,2.73.68l5.19-2.73-2.05-4.51ZM538.94,603.43c1.37-.68,1.37-1.37.55-2.73h.68l6.55,9.83-4.51,3.28v-.55c2.59-2.05,2.59-4.64,1.91-5.32s-1.37-1.37-1.37-1.91c-.55,0-.55-.68-1.91.68l-4.64,3.28c.68.55,1.37,2.59,4.64.55h.68l-7.24,5.32v-.68c3.28-2.73,1.91-4.64,1.37-5.19l-4.64,3.28c-1.37.55-1.37,1.37-1.37,1.91.68,0,.68.68,1.37,1.37.68,1.37,2.73,2.59,5.87,1.37l.68.55-5.19,1.91-6.55-10.38h.68c.55.55,1.37,1.37,2.59.55l9.83-7.1ZM549.32,628.28l-4.51,3.82c-.68.68-.68,2.05,0,2.73h-.68l-4.64-4.64.68-.68c.68.68,1.37,1.37,2.73,0l8.46-8.46c1.37-.68,1.37-1.37.55-2.73l4.64,5.46c-.68-.82-1.91-.82-2.73,0l-3.82,3.82,3.28,3.28,3.96-3.28c1.37-1.37.68-1.91,0-2.73l.68-.55,4.51,5.19h-.68c-.55,0-1.37-.55-2.59.68l-8.46,7.92c-1.37,1.37-1.37,1.91-.68,2.59v.68l-4.51-5.32c.55,0,1.91.68,2.59,0l4.51-4.51-3.28-3.28ZM559.15,642.06l2.05,1.91,2.59-5.87s-2.05.55-5.32,2.59v1.91l-1.37-1.37c-.55.68-1.23.68-1.91,1.37-1.91,1.37-1.37,2.05-.55,2.73v.55l-3.28-3.28h.55l2.73-.68,12.97-7.1.68.55s-.68.68-6.55,13.79c0,1.37-.55,1.91,0,3.28l-5.19-4.51.68-.68c.68,1.37,1.91,1.37,2.59,0,0-.68.68-2.05.68-2.73l-2.05-1.91.68-.68v.14ZM564.33,655.03l.68-.68c.68.68,1.37.68,2.73,0l8.46-11.06-.68-.68c-1.37-.68-3.28-.68-5.19,1.37v-.68l2.59-3.28,9.83,7.24-3.28,3.82h-.68c1.91-1.91,1.37-4.51,0-5.19v-.68l-8.46,11.19c-1.37.68-.68,1.91,0,2.59h-.68l-5.32-3.96Z"
           id="path37" />
        <path
           class="cls-26"
           d="M581.4,657.63l-3.28,4.64c-.68,1.37,0,1.91.68,2.73l-.68.55-5.19-3.96v-.68c1.37.68,1.91.68,2.59-.55l7.24-9.83c.55-1.37,0-2.05-.68-2.73l.68-.55,5.19,3.82v.68c-1.37-.68-1.91-.68-2.73.68l-3.14,4.64,3.96,2.59,3.28-4.64c.55-1.37,0-1.91-.68-2.59l.68-.68,5.19,3.96v.68c-.68-.68-1.91-.68-2.73.68l-6.42,10.38c-1.37.68-.68,1.37,0,2.05v.55l-5.87-3.82h.68c.55,0,1.37,0,1.91-.68l3.28-5.19-3.96-2.73ZM594.5,676.06l.68-.68c.68.68,1.91.68,2.59-.68l5.19-11.06c.68-1.37,0-2.05-.68-2.73l11.19,5.32-2.73,5.19-.55-.68c1.91-2.59,0-5.19-.68-5.87-.68,0-1.37-.68-1.91-.68q-.68,0-1.37,1.37c-.68.68-2.59,4.51-2.59,4.51.68.68,1.91,2.05,4.64-1.37h.55l-3.82,7.92-.68-.55c1.91-4.1-.68-4.64-1.37-4.64l-2.59,5.19c-.68,1.37,0,2.05.68,2.05v.68l-6.55-3.28ZM613.48,685.2c-1.91-1.37-1.91-5.32,0-9.15,1.37-4.1,3.96-7.24,6.55-6.01,1.91.68,1.37,4.64,0,8.6-2.05,4.51-4.64,7.1-6.55,6.55h-.68c4.64,1.91,7.92-.68,9.83-5.32,1.91-3.82,1.37-8.46-2.73-10.38-3.82-2.05-7.78.55-9.69,5.19-1.91,4.64-1.37,9.15,2.73,10.51h.55ZM633.68,686.43l2.73-7.78c.55-1.37,0-2.05-.68-2.73l3.28.68v.68c-.68,0-1.37,0-2.05,1.37l-2.59,7.78c-1.37,3.28-3.28,5.87-7.1,4.64-2.73-.68-4.64-3.96-3.28-7.24l3.28-8.46c.55-1.37,0-2.05-.68-2.73v-.55l5.87,2.59v.68c-.68-.68-1.91-.68-1.91.68l-3.41,8.33c-.68,2.59-.68,5.19,1.37,5.87,1.91.68,3.82-.68,5.05-3.96l.14.14ZM639.69,677.97q0-.68-.68-.68l4.51.68,4.1,12.42,1.91-7.92c.55-1.37,0-1.91-.68-2.59l3.82.68-.55.68c-.68,0-1.37,0-2.05,1.37l-3.28,14.33h-.55l-5.32-15.7-3.28,10.51c0,1.91.68,1.91,1.37,2.59v.68l-3.96-1.37v-.68c.68.68,1.91,0,1.91-1.37l3.28-11.74-.55-1.91ZM661.94,691.07c-1.37,5.87-4.1,7.24-5.32,7.24h-1.37s-.55-.68,0-1.37l2.05-13.11c.68-.68.68-1.37,1.37-.68h1.37c1.23,0,2.46,2.73,1.91,7.92l1.91.68c1.37-6.55-1.37-9.28-4.64-9.83-2.59-.68-6.55-1.37-6.55-1.37v.68c.68.68,2.05.68,1.37,2.73l-1.91,11.6c-.68,1.37-1.37,2.05-2.05,2.05h-.55l6.42,1.37c3.28.55,6.55,0,7.92-7.24l-1.91-.68ZM667.81,685.75c0-1.37-1.37-1.91-2.05-1.91v-.68l11.88,1.37-.68,5.19c0-3.28-2.05-4.51-3.28-4.51-.68-.68-1.37-.68-2.05-.68q-.55,0-.55,1.91l-.68,5.32c.68,0,2.59.55,3.96-3.28l-.68,8.46h-.68c0-3.96-1.91-3.96-2.73-3.96l-.55,5.87q0,1.37.68,1.37l1.37.68c1.91,0,3.82-.68,5.19-4.64h.68l-1.37,5.19-12.42-1.37c1.37,0,1.91-.55,2.73-1.77l1.23-12.56ZM689.38,693.67c0,5.87-2.05,7.78-3.96,7.78q-.68-.55-1.37-.55l-.55-.68.68-13.65q0-.82.55-.82h1.37c1.37,0,3.28,2.05,3.28,7.92h2.59c0-6.55-3.28-8.46-6.55-8.46-2.73-.68-6.55-.68-6.55-.68v.68c.68,0,2.05.55,2.05,1.91l-.68,12.42c0,1.37-.68,1.91-1.37,1.91v.68h5.87c3.28,0,6.55-1.37,7.24-8.46h-2.73.14ZM708.36,698.86c0,1.37.68,1.37,1.91,1.37v.68l-7.24.55c.68-.55,2.05-1.37,2.05-2.59l-1.37-12.29c-.68-1.37-1.37-1.37-2.59-1.37v-.68l7.24-.68c-.68.68-2.05,1.37-1.37,2.73l1.37,12.29ZM714.91,700.22v-.68c.68,0,1.37-.68,1.37-1.91l-2.73-13.65h-.68c-1.37.55-2.59,1.77-1.91,4.51h-.68l-.68-4.64,11.88-1.91.55,4.51h-.55c0-2.59-2.05-3.28-4.1-3.28h-.55l2.73,13.65c0,1.37.55,2.05,1.91,2.05v.68l-6.55.68ZM743.04,687.12l-2.73-7.78c0-1.37-1.23-1.37-1.91-1.37v-.68l3.28-1.37v.68q-.68.68-.68,2.05l2.73,8.46c.55,2.73.55,6.55-3.28,7.92-2.73.55-5.87-.68-6.55-4.64l-2.73-8.46c-.55-1.37-1.23-1.37-1.91-1.37l-.68-.68,6.55-1.91v.68c-.55.68-1.37,1.37-.55,2.59l1.91,8.46c.68,2.73,2.73,3.96,4.51,3.96,2.05-.68,2.73-3.28,2.05-6.55M750.27,682.47c3.14-1.37,2.59-3.14,1.91-5.19-.68-1.91-1.91-3.28-3.28-2.59-.68,0-1.37.68-.68,1.37l2.59,7.1,1.37,5.32c.68,1.37,1.91,1.37,2.73.55v.68l-6.01,2.73-.68-.68c1.37-.68,1.37-1.37,1.37-2.73l-4.64-11.06c-.68-1.91-1.37-1.37-2.59-1.37v-.55l6.55-2.73c2.73-.55,5.19,0,6.55,2.73.68,3.28-.68,5.19-3.28,6.55-.68,0-1.37.55-1.37.55l-.55-.68Z"
           id="path38" />
        <path
           class="cls-26"
           d="M766.52,684.38c-1.91.82-4.51-1.91-6.55-6.42-1.91-3.96-1.91-7.92,0-8.46,2.05-.68,4.64,1.91,6.55,5.87,2.05,3.96,2.05,7.78,0,9.15,4.1-1.37,5.32-5.87,3.28-10.51-1.91-3.96-5.87-6.55-9.83-5.19-3.77,1.89-5.3,6.49-3.41,10.26.04.08.09.17.13.25,2.05,4.51,6.01,7.1,9.83,5.19v-.14ZM767.2,666.23h-1.23l3.82-2.73,11.88,6.55-4.1-7.1c-.55-1.37-1.91-1.37-2.46-1.37v-.68l3.28-1.37c-.68.82-1.37,1.37,0,2.73l6.55,13.11-.68.68-14.47-7.92,5.32,9.83c.55,1.37,1.91,1.37,2.59.68v.68l-3.28,1.91v-.68c.68-.68.68-1.37,0-2.59l-5.19-10.51-2.05-1.23ZM796.69,668.14v-.68c0-.68.68-1.37,0-2.59l-7.92-11.06h-.68c-1.37.55-1.91,3.28,0,5.19l-.55.68-2.73-4.64,9.83-6.55,2.73,4.1c-2.05-2.05-4.1-2.05-5.32-1.37l-.68.55,7.92,11.19c.68,1.37,1.91,1.37,2.73.68v.55l-5.32,3.96Z"
           id="path39" />
        <path
           class="cls-26"
           d="M803.92,652.44l3.82,4.64c.68.55,2.05.55,2.73,0v.55l-5.32,4.64v-.68c.68-.68.68-1.37,0-2.59l-7.78-9.83c-.68-1.37-1.37-.68-2.73-.68l5.32-4.51v.68c0,.55-.68,1.37,0,2.59l3.28,3.82,3.82-2.59-3.14-4.51c-.68-1.37-2.05-.68-2.73-.68l5.32-4.64v.68c-.68.68-.68,1.37,0,2.73l7.78,9.69c.68.68,1.37.68,2.05,0l.55.68-5.19,4.64-.68-.68c.68-.68,1.37-1.37.68-2.73l-3.96-4.51-3.82,3.28ZM809.79,638.65c-.68-.55-2.05-.55-2.73,0v-.55l8.6-7.92,3.96,3.96h-.68c-2.05-2.73-4.64-1.37-5.87-.68,0,.68-.68.68-1.37,1.37,0,0,0,.55.68,1.91l3.96,3.96c.55-.68,2.59-2.05,0-5.32h.55l5.32,6.01v.55c-3.28-3.28-4.64-1.37-5.32-.55l4.1,3.82c.55,1.37,1.23,1.37,1.23,1.37l1.91-1.91c.68-.68,1.37-2.73,0-6.55h.68l2.59,4.51-8.46,8.46-.68-.55c.68-.68,1.37-1.37,0-2.73l-8.46-9.15ZM825.49,620.36c-.68.68-.68,2.05.55,2.73,1.37,1.23,2.73,1.23,5.32,0,1.37-.68,3.82-1.37,5.87.55,3.28,3.28,1.91,5.87,1.37,7.24-.68.68-2.05,1.37-2.73,1.91q-.68,0-.68.68v.68l-4.51-3.96h.68c2.59,1.37,5.19,1.91,6.55,0,1.37-1.37,0-2.73-.68-3.28-1.37-1.37-2.73-1.37-4.64,0-1.91.68-4.51.68-6.55-.68-2.59-2.59-2.59-4.51-1.37-6.55l2.73-1.91q.68,0,0-1.37l4.64,3.28h-.68c-3.28-1.37-5.32-.55-5.87.68M831.36,615.17c-1.37-.68-2.05,0-2.73.68h-.55l7.24-10.51,4.51,3.28-.68.68c-1.69-1.45-4.18-1.45-5.87,0,0,.68-.68,1.37-.68,1.91-.55,0-.55.68.68,1.37.68.68,4.64,3.28,4.64,3.28.68-.68,1.91-2.05-.68-4.64v-.68l6.55,5.32c-3.96-2.05-4.64,0-5.19.55l4.51,3.28c1.37.68,1.91.68,1.91.68,0-.68.68-1.37,1.37-1.91.68-1.37,1.37-3.28-1.37-5.87l.68-.68,3.28,3.96-6.55,9.83h-.68c.68-1.37.68-2.05-.55-3.28l-9.83-7.24ZM848.97,603.43l-1.91,3.28c-2.73-2.73-3.96-4.64-3.96-4.64l7.24,1.37c.68,0,1.91.55,2.59.55,1.91.68,1.37,1.37.68,2.73h.68l3.28-6.01c-1.37,1.37-2.05.68-3.28.68-13.79-2.59-15.02-3.28-15.02-3.28v.68l10.38,11.74c.68.68.68,2.05.68,2.73h.68l1.91-3.28-.68-.68c-.68,1.37-1.37,1.91-2.59,0l-1.37-1.37,2.05-4.51h-1.37ZM845.01,588.96c-.55.68-.55,2.05,1.37,2.73,1.91.55,2.73,0,4.64-1.37s3.82-2.73,6.42-1.37c4.1,2.05,3.28,5.32,2.73,6.55l-2.05,2.73v1.23l-5.19-2.73c3.28.68,5.87,0,6.55-1.91.68-1.37-.68-2.59-1.37-3.28-1.37-.55-2.59,0-4.51,1.37-2.05,1.91-4.1,2.73-6.55,1.37-2.73-1.37-3.96-3.28-2.73-5.32,0-1.37,1.37-1.91,2.05-2.59q0-.68-.68-1.37v-.55l5.32,2.59h-.68c-3.28-.68-5.32.68-5.32,1.91"
           id="path40" />
      </g>
    </g>
    <g
       id="g70">
      <g
         id="ky-d-2"
         data-name="ky-d">
        <path
           class="cls-18"
           d="M638.33,357.43c-8.46,1.91-14.33,2.59-22.25-4.64-5.19-5.19-3.96-14.33,1.37-17.75,5.87-3.82,11.06-6.42,18.29-4.51,7.24,2.05,26.21,19.66,21.57,20.34-4.64,0-11.74,4.51-18.98,6.55ZM658.53,326.03c2.73-2.05,6.01-3.28,14.47-4.1,7.92-.55,13.65-.55,15.7,5.46,2.73,7.1,4.64,15.56,9.83,19.52-3.28,1.91-19.66,3.96-25.53.68-7.78-3.96-9.83-19.11-14.33-21.57h-.14ZM714.91,326.71c2.59-2.05,5.87-2.05,14.33-1.37s11.74,1.37,13.65,7.24c2.05,6.55,0,15.02,4.1,20.89-4.1,1.37-17.06,1.37-21.71-3.28-7.1-5.19-6.55-20.34-10.38-23.62v.14Z"
           id="path41" />
        <path
           class="cls-15"
           d="M754.09,330.53c-5.87-1.37-9.83-1.91-12.29,0,3.14,3.96.55,19.66,7.1,24.85,4.51,3.28,16.38,4.1,18.98-3.28,3.28-6.55,3.28-16.38-13.65-21.57h-.14ZM686.79,323.98c1.91-1.91,5.87-2.59,13.65-2.59,8.6,0,13.65,1.37,16.38,6.55,2.73,6.55,1.91,15.02,6.55,20.34-1.91,2.59-19.66,2.59-24.85-1.37-7.24-4.64-7.92-19.66-11.74-22.93ZM631.23,329.85c0-3.28,4.51-3.82,16.38-4.51,11.6-1.37,12.29-.68,16.25,7.78,1.91,4.64,4.51,12.42,9.83,15.02-14.47,3.41-19.11,5.32-26.89.68-5.68-3.55-10.38-8.48-13.65-14.33-.68-1.91-.68-3.96-2.05-4.64h.14Z"
           id="path42" />
      </g>
      <g
         id="g62">
        <g
           id="ky-f-2"
           data-name="ky-f">
          <path
             class="cls-19"
             d="M662.63,263.23c-13.79-10.51-30.17-20.34-45.19-22.25,15.67,10.45,30.54,22.04,44.5,34.68"
             id="path43" />
          <path
             class="cls-19"
             d="M670.41,253.4c-16.38-11.19-35.36-23.62-53.65-24.85,17.12,9.92,32.37,22.77,45.05,37.95M691.3,235.11c7.39-16.8,18.34-31.8,32.08-43.96-6.55,13.79-13.65,41.91-17.06,53.11"
             id="path44" />
          <path
             class="cls-19"
             d="M705.77,231.83c6.33-15.38,18.22-27.81,33.31-34.81-11.34,14.14-19.78,30.38-24.85,47.78"
             id="path45" />
          <path
             class="cls-19"
             d="M711.64,244.8c12.53-19.19,30.5-34.2,51.6-43.14-16.38,16.38-40.55,46.42-46.42,58.29M720.78,259.27c11.74-6.55,35.36-17.06,52.29-13.65-10.38,3.82-41.77,18.16-55.56,31.4"
             id="path46" />
          <path
             class="cls-19"
             d="M718.19,254.63c11.06-11.74,31.4-29.35,52.97-36.59-15.7,15.02-49.15,49.15-53.65,54.33M686.79,247.53c-7.92-24.3-19.66-47.1-37.27-54.33,14.03,20.05,23.78,42.78,28.67,66.76M671.64,246.85c-12.97-15.7-30.72-31.4-50.92-34.68,19.8,12.96,35.44,31.35,45.05,52.97"
             id="path47" />
          <path
             class="cls-19"
             d="M679.01,246.16c-16.38-29.49-28.94-34.68-36.04-40.55,5.87,11.06,20.2,40.55,28.67,52.97"
             id="path48" />
          <path
             class="cls-11"
             d="M646.24,244.25c9.34,5.87,17.34,13.64,23.48,22.8"
             id="path49" />
          <path
             class="cls-19"
             d="M646.24,257.9c3.82,3.28,11.06,7.24,17.61,13.11M724.06,267.73c6.55-5.19,20.89-13.65,28.12-16.38M719.42,263.23c6.55-8.6,19.66-20.34,24.3-24.3M737.71,222.55c-8.8,9.86-17.09,20.16-24.85,30.85M720.78,216.68c-6.2,9.16-11.67,18.8-16.38,28.81M669.04,218.04c3.96,10.51,11.19,28.12,13.65,35.36M663.17,229.1c2.73,4.1,7.92,13.11,9.83,19.66"
             id="path50" />
        </g>
        <g
           id="ky-g-2"
           data-name="ky-g">
          <path
             class="cls-19"
             d="M685.42,225.82c0-5.87,3.96-12.29,7.92-12.29,4.51,0,7.78,7.78,7.78,12.29,0,5.32-3.96,9.83-7.78,9.83-4.1,0-7.92-3.82-7.92-9.83Z"
             id="path51" />
          <path
             class="cls-19"
             d="M676.96,231.15c.68-6.55,5.19-11.74,9.15-11.19,3.96.68,5.87,8.6,5.19,13.11-.68,5.19-5.19,9.15-8.46,8.46-3.28,0-6.55-4.51-5.87-10.38ZM694.57,233.06c-1.37-5.87,1.37-12.29,5.32-13.11,3.82-.55,7.78,5.87,8.46,11.19,1.37,5.19-2.05,10.38-5.32,10.38-3.14.68-7.78-2.59-8.46-8.46Z"
             id="path52" />
          <path
             class="cls-19"
             d="M684.74,238.25c0-6.42,3.96-12.29,7.92-12.29,4.51,0,7.78,7.1,7.78,12.29s-3.82,9.83-7.78,9.83-7.92-3.82-7.92-9.83Z"
             id="path53" />
          <path
             class="cls-19"
             d="M673,241.52c0-5.87,4.64-12.29,8.46-12.29,4.1,0,7.92,7.78,7.92,12.29,0,5.32-4.64,9.83-7.92,9.83-3.82,0-8.46-3.82-8.46-9.83ZM697.17,238.93c0-5.87,4.1-12.29,7.92-12.29,4.51,0,7.78,7.78,7.78,12.29,0,5.32-3.82,9.83-7.78,9.83s-7.92-3.96-7.92-9.83Z"
             id="path54" />
          <path
             class="cls-19"
             d="M694.57,244.25c0-6.55,4.64-12.42,8.46-12.42,4.1,0,7.92,7.1,7.92,12.29s-3.96,9.97-7.92,9.97-8.46-4.1-8.46-9.83Z"
             id="path55" />
          <path
             class="cls-19"
             d="M684.2,250.12c0-6.55,3.82-12.42,7.78-12.42,4.64,0,7.92,7.78,7.92,12.29,0,5.46-4.1,9.97-7.92,9.97s-7.92-4.1-7.92-9.83h.14ZM667.81,250.12c0-6.55,3.28-12.42,6.55-12.42s5.87,7.78,5.87,12.29c0,5.46-3.28,9.97-5.87,9.97-3.28,0-6.55-4.1-6.55-9.83ZM704.4,248.89c0-6.01,3.28-11.88,6.55-11.88s6.55,7.24,6.55,11.74c0,5.87-3.96,9.83-6.55,9.83-3.28,0-6.55-3.96-6.55-9.83v.14Z"
             id="path56" />
          <path
             class="cls-19"
             d="M708.36,259.82c1.37-6.42,5.19-11.74,7.78-10.92,2.73.55,3.28,8.33,2.05,12.97-.68,5.87-4.64,9.15-7.24,8.46-2.73-.55-3.96-5.19-2.73-10.38l.14-.14Z"
             id="path57" />
          <path
             class="cls-19"
             d="M695.94,257.9c.68-5.87,4.51-11.74,7.78-11.06,3.96,0,5.87,7.78,5.32,12.29-.68,6.01-4.1,9.97-7.24,9.28-3.28,0-6.55-4.64-5.87-10.51h0ZM677.64,259.82c-2.05-6.42-6.01-10.92-8.6-10.38-2.59.68-3.28,8.46-1.91,13.11,1.37,5.19,5.19,8.46,7.78,7.78,2.05-.55,4.1-5.19,2.73-10.38v-.14Z"
             id="path58" />
          <path
             class="cls-19"
             d="M673,258.59c0-5.87,3.28-11.74,6.55-11.74,3.96,0,6.55,7.24,6.55,11.74,0,5.87-3.28,9.83-6.55,9.83-2.73,0-6.55-3.96-6.55-9.83Z"
             id="path59" />
          <path
             class="cls-19"
             d="M682.83,261.18c0-6.55,3.96-12.29,7.78-12.29,4.64,0,7.92,7.1,7.92,12.29s-3.96,9.83-7.92,9.83-7.78-3.96-7.78-9.83ZM686.11,189.24c-1.37,5.19-5.87,9.83-2.73,17.06-5.73-2.05-10.92-2.73-15.56,2.59,5.87-.68,11.06,1.37,13.65,5.19-5.19-.68-7.78,2.05-9.15,5.32,4.64-1.37,9.15-2.73,11.19-2.05-2.05,2.05-5.32,5.19-5.87,7.92,3.82-3.28,8.46-2.73,11.06-4.64-1.91,4.64,1.91,9.15,5.19,13.65-.55-6.42,3.28-10.92,1.37-14.33,5.87,1.37,6.55,6.55,15.02,6.55-3.28-1.91-5.19-8.46-9.15-8.46,1.91-.68,9.83-1.37,11.19,0-1.37-2.73-6.01-5.19-8.6-5.19,2.73-2.73,7.24-7.92,10.51-9.28-4.64.68-11.74,1.37-14.33,5.32,6.42-5.32,5.19-15.02,12.29-16.38-3.82-.68-9.69,1.91-14.33,6.55,2.05-3.96,2.05-9.15,4.64-10.51-5.32,1.37-11.19,7.92-13.11,11.19-.28-3.71-1.4-7.3-3.28-10.51h0Z"
             id="path60" />
          <path
             class="cls-19"
             d="M689.38,199.75c0,1.91,0,5.87-.68,7.1M697.85,199.07c-1.37,1.37-3.96,5.87-3.96,9.83"
             id="path61" />
          <path
             class="cls-11"
             d="M701.81,206.85c-2.25,1.34-3.91,3.49-4.64,6.01"
             id="path62" />
        </g>
      </g>
      <g
         id="ky-e-2"
         data-name="ky-e">
        <path
           class="cls-14"
           d="M632.46,271.69c-4.64,0-8.46-1.91-11.19-5.19-4.51-6.01-16.93-8.6-22.25-3.28-1.91,1.37-4.51,1.37-6.42,1.91-3.28,0-7.24,3.28-6.01,9.83,2.73-2.05,3.28,0,5.32,0,1.37-.68.68.68.68,1.91,0,3.28,7.1,9.83,13.65,9.15,7.24,0,10.51,2.73,11.74,4.1,2.05,1.77.68,1.23,2.05,4.51,1.91,1.91,2.59,2.59-.68,5.19-5.62,4.68-6.37,13.03-1.69,18.65.51.61,1.08,1.18,1.69,1.69,8.46,6.42,30.03,16.38,54.33-2.73,23.48-18.29,60.07-7.78,62.8-1.37,3.28,6.69,4.51,10.51,5.19,13.79.68,2.73,3.96,5.32,8.6,4.64,4.51,0,9.69,1.91,12.29,3.96,3.41,1.91,7.92,1.37,6.69-4.64-2.73-18.29-13.79-20.89-15.02-29.35,6.42.55,10.92.55,13.65-2.05,1.91-2.59,4.51-7.24,7.24-8.46,1.91-1.37,1.91-2.73-.68-2.05-3.28.68-5.19,2.05-11.19,1.37-30.03-3.28-114.4-26.21-130.78-21.57h0Z"
           id="path63" />
        <path
           class="cls-16"
           d="M765.97,293.94c-4.99,3.52-9.25,7.97-12.56,13.11-6.42,8.46-26.07,16.93-50.37,16.93s-37.82-3.82-48.33-12.29c-4.49-3.59-9.34-6.7-14.47-9.28-7.1-3.28-8.46-10.51-6.55-16.38-1.91,3.28-3.14,6.55-7.1,5.87-2.73,0-7.92,0-6.55,2.73-.68-1.37-.68-3.28-1.37-4.1l-1.37-1.23c2.05,1.37,6.69-2.59,9.97-2.59,2.59.68,5.87-2.59,5.19-6.55l-1.91-8.46c5.19-2.73,73.86,9.83,87.64,11.06,13.65.68,52.97,6.55,47.78,11.19h0Z"
           id="path64" />
        <path
           class="cls-14"
           d="M641.6,269.1c6.55-6.55,14.33-9.83,22.25-7.92h1.91c4.1-3.28,13.11-3.96,18.43-1.37h2.59c7.78-2.59,22.8,0,28.12,5.32l1.91,1.37c17.75-1.37,28.12,6.42,40.55,18.98,1.37,1.37,3.28,3.82,6.55,4.51,3.96.68,4.64,2.73,1.37,4.64-5.25,3.25-9.87,7.41-13.65,12.29-6.01,7.92-24.98,15.84-48.6,15.84s-36.59-4.1-47.1-11.88c-5.87-4.51-10.38-7.1-13.65-9.15-3.96-1.37-9.15-6.55-7.24-11.74,1.37-5.19-1.91-11.74-4.51-18.29,1.91-1.37,7.1-3.28,9.69-1.91l1.37-.68Z"
           id="path65" />
        <g
           id="g67">
          <path
             class="cls-20"
             d="M757.37,285.48c-12.29-12.56-22.8-20.34-40.55-19.11,0,.68,0,2.73-.68,4.1,12.37,5.55,23.33,13.81,32.08,24.16,2.73-2.73,7.24-5.87,9.15-9.15ZM714.91,265.14c-5.32-5.19-20.34-7.92-28.12-5.19,0,2.59,0,6.55-1.37,9.15,4.64,1.91,8.46,6.55,12.42,11.06,2.73-.68,9.15-2.59,12.42-3.28,1.96-3.74,3.51-7.67,4.64-11.74ZM684.2,259.82c-5.32-2.59-14.47-1.91-18.43,1.37-1.37,2.73-1.91,7.92-1.91,10.51,2.73,0,6.55,1.91,7.78,3.28,4.1-1.37,9.28-3.96,11.19-5.87.68-2.73,1.91-6.55,1.37-9.15v-.14ZM641.6,269.1c6.55-6.55,14.33-9.83,22.25-7.92-1.37,2.05-1.91,5.87-1.91,9.83-7.24-.68-16.38,1.37-20.34,3.96v-5.87Z"
             id="path66" />
          <path
             class="cls-20"
             d="M745.63,295.86c-8.22-9.74-18.47-17.56-30.03-22.93,0,.68-1.37,3.28-2.05,5.32,3.96,5.87,11.74,18.98,15.02,26.21,3.28-1.37,12.42-5.32,17.06-8.6h0ZM695.94,310.33c1.13-8.92,1.77-17.9,1.91-26.89,3.28-.68,9.83-2.59,12.42-3.28,3.28,5.32,11.19,19.11,14.47,25.53-7.92,1.91-21.02,5.19-28.81,4.64ZM673,278.93c3.28-1.37,7.92-4.1,11.06-6.55,2.73,1.91,7.92,6.55,9.83,9.15,0,5.87-1.91,22.93-2.59,28.67-5.19,0-13.65-1.23-18.29-3.82.68-9.83,1.37-20.89,0-27.44h0ZM640.24,286.71c.68-1.37,1.37-5.87,1.37-7.78,5.19-3.28,18.29-6.55,28.12-1.37.68,6.55,0,22.93-.68,26.89-8.76-7.12-18.39-13.09-28.67-17.75h-.14Z"
             id="path67" />
        </g>
        <g
           id="g69">
          <path
             class="cls-27"
             d="M607.61,274.83c-1.37,0-2.05-3.82-4.64-3.82-.68,0-2.59.68-3.28,0,0,1.37.68,2.73,1.37,3.28.68,1.91,3.96.68,6.55.68v-.14Z"
             id="path68" />
          <path
             class="cls-10"
             d="M607.61,286.03c7.78,0,9.15-9.83,13.11-10.38M612.11,286.71c5.87,2.73,10.51-11.06,15.02-10.51M600.37,269.78c1.91,0,3.28-2.73,6.55.55,1.37,1.37,3.28,2.05,4.64,2.05M610.2,279.47c-2.73,4.1-7.24,6.55-9.83,5.32M599.01,263.23c-1.91,1.37-3.14,3.82-4.51,5.87M592.59,272.92v3.28"
             id="path69" />
        </g>
      </g>
    </g>
    <g
       id="g90">
      <path
         id="ky-a-2"
         data-name="ky-a"
         class="cls-28"
         d="M811.02,358.11v127.51c0,110.58-52.29,148.53-122.32,178.56-70.03-30.03-122.87-67.99-122.87-178.56v-127.64h245.19v.14Z" />
      <path
         class="cls-13"
         d="M688.7,465.96c5.87,0,15.02-5.19,22.93-13.11,8.46-9.15,22.93-12.29,37.95,0,15.02,12.42,24.16,7.24,32.08,0,7.78-7.1,14.33-9.83,29.35-9.83v-84.91h-245.32v85.05c15.02,0,21.57,2.73,29.49,9.83,7.78,7.24,16.93,12.42,32.08,0,15.7-12.29,29.35-9.15,38.5,0,7.24,7.92,16.38,13.11,22.93,13.11v-.14Z"
         id="path70" />
      <path
         class="cls-32"
         d="M688.7,531.49c7.92,0,23.62-8.6,27.44-10.51,14.47-8.6,24.85-.68,33.45,3.28,9.15,3.82,26.07,8.46,36.59,0,10.51-8.6,16.38-7.92,23.62-7.92,1.37-9.83,1.37-19.66,1.37-30.72v-7.92c-9.28-1.91-13.79.68-23.62,9.28-9.83,8.46-21.02,6.55-35.49,1.37-13.65-6.01-27.3-16.38-41.09,0-5.72,6.39-13.7,10.31-22.25,10.92-9.83,0-18.29-6.42-22.25-10.92-14.33-16.38-27.44-6.01-41.23,0-14.33,5.19-26.21,7.1-35.9-1.37-9.15-8.6-13.79-11.19-23.62-9.28v7.92c0,11.06.68,20.89,1.91,30.72,7.24,0,12.56-.68,22.93,7.92,10.51,8.46,28.12,3.82,36.72,0,9.15-3.96,19.52-11.88,33.99-3.28,3.96,1.91,18.98,10.38,27.44,10.38v.14ZM688.7,559.61c11.34-.61,22.35-3.99,32.08-9.83,13.11-7.24,22.25-4.1,35.36,2.59,13.65,6.55,24.85,4.51,32.76,0,3.82-2.73,7.1-7.92,15.56-5.87-3.82,16.38-9.83,30.72-16.93,42.46-11.27,3.73-23.56,2.8-34.13-2.59-13.65-6.55-30.72-10.51-39.86-4.64-7.42,4.83-16,7.56-24.85,7.92-7.24,0-16.38-2.73-24.85-7.92-9.15-5.87-26.21-1.91-39.86,4.64-10.55,5.44-22.85,6.42-34.13,2.73-7.1-11.88-12.97-26.35-16.93-42.59,8.46-2.05,11.74,3.28,15.7,5.87,9.96,5.62,22.13,5.62,32.08,0,13.65-6.55,22.8-9.83,35.9-2.73,9.72,5.89,20.73,9.31,32.08,9.97M688.7,664.18c25.3-9.81,48.93-23.48,70.03-40.55-5.32-1.91-8.46-.68-13.11-3.96-4.64-3.28-18.29-4.51-30.03,2.05-16.58,9.67-37.07,9.67-53.65,0-11.88-6.55-25.53-5.32-30.03-2.05-4.64,3.28-7.92,2.05-13.24,4.1,21.02,17.15,44.67,30.79,70.03,40.41"
         id="path71" />
      <g
         id="g83">
        <path
           class="cls-17"
           d="M671.64,390.05c.68,1.37-.55,4.64,0,5.87,1.37,2.73,1.37,4.1,3.28,5.32h4.64c14.33,0,31.4-5.87,45.73-5.87s22.25,4.51,30.03,4.51c4.64,0,8.6-3.28,8.6-6.55s-5.19-5.19-16.38-5.19c-15.7,0-24.16,3.96-37.27,3.96-19.66,0-22.93-7.24-22.93-10.51s3.28-7.78,13.79-7.78c3.28,0,5.87-.68,7.24-2.05.68-1.37,2.59-3.96,6.55-5.87,4.51-2.73,13.65,0,18.29-3.28,0,2.73-3.96,6.55-7.24,7.92,6.55-2.05,13.65-2.05,15.02,3.28-3.28-2.05-8.46-.68-10.38,0-2.73.55-3.96,1.37-6.55,1.91,2.59-.68,3.96,4.51,7.78,4.51-3.82,3.28-10.38,3.28-16.93.68-2.05-.68-7.24-2.59-10.51-2.59-6.55,0-10.51,1.37-10.51,3.96,0,3.28,4.1,5.19,15.7,5.19s18.43-3.28,36.04-3.28c-1.37-1.91.68-3.96-1.91-5.87,6.55,0,13.65,1.91,16.38,6.55-.68-4.64,3.14-8.46,1.91-12.42,3.96.68,7.24,4.51,7.78,7.78,0-1.91,2.73-1.91,2.73-3.82,3.74,2.02,5.81,6.17,5.19,10.38,1.91-3.28,3.96-1.91,5.19-5.87,1.37,2.73.68,10.51-3.96,13.11,4.1-2.73,9.83-2.73,13.79,1.91-3.96-.55-5.87,1.37-7.78,2.05-9.53,4.87-20.17,7.13-30.85,6.55-10.38-.68-11.74-2.73-18.29-2.73,3.96.68,11.74,8.6,19.11,8.6,4.51,0,7.78,0,9.69-.68,1.91-.68,5.19,0,7.78,1.37,2.05,1.91,6.01,3.82,8.6,3.28-.68,2.59-2.05,3.82-3.96,4.51,3.28,2.05,1.37,3.28,4.64,5.87-1.37,0-2.73,1.37-4.64.68,1.91,1.91,1.91,4.64,3.96,5.87-.68,0-2.73.68-3.96,0,1.91,2.73,0,5.87,1.91,7.24,2.05,2.73-1.91,5.87-5.19,3.28.68,1.91-1.37,3.96-3.28,3.28s-3.28-2.73-2.73-3.28q0-.68.82-1.37c-1.37,2.05-3.96,2.05-5.32,1.37-.55-.68-1.37-1.37-1.37-1.91-4.51,1.37-6.42-2.73-5.73-4.64.55-1.91,4.51-2.73,5.87-1.91,1.37.55,2.59,1.37,3.96,0,1.37-.68,1.91-2.05,1.91-3.28,0-2.05-1.91-7.92-10.51-7.24-9.83.68-25.53-1.91-33.31-4.64-.68-.55-1.37-.55-2.05-1.37,0,2.73-2.59,4.1-2.59,6.69,0,3.28,1.37,5.87,5.32,7.1-2.05,3.28-5.32,2.73-6.55.68,0,2.05-2.73,3.28-2.73,5.87-.55-1.37-1.37-1.91-1.91-3.28-1.91,4.64-7.24,7.24-9.83,6.01-3.28,2.59-7.1,1.91-8.46-.68-1.91,1.37-4.64,1.37-5.87,0,0,1.91-1.37,1.37-2.05,3.96,0,1.37-2.59,1.91-3.82,1.37-1.37-.82-2.05-3.41-.68-4.64-1.91,1.37-3.96,1.37-5.19,0,0-1.37,0-3.28,1.37-4.1h1.23c-1.37-.55-3.28,0-4.64-.55-1.37-1.37-1.37-2.73-.68-3.96.68-.68,2.73-1.91,4.1-.68l.55.68c0-1.37.68-2.59,1.37-2.59,1.37-.68,3.14-.68,5.19,1.37,1.37,1.91,2.59,1.91,6.55,1.37,3.28,0,8.46-3.41,12.29-6.69-10.92-1.91-4.51-9.15-1.23-11.74-2.59-.68-6.55-.68-9.15.68-13.65,7.24-28.12,15.7-37.27,13.11.13,1.37.6,2.68,1.37,3.82-2.05,0-6.01,0-7.24-1.91-.68,1.37-1.91,4.64-.68,7.24-1.37-1.37-5.19-2.73-7.24-3.28,1.37,1.37,0,3.96.68,5.87-1.91-1.91-5.19-3.28-6.55-1.91s-3.96,1.91-5.87,1.37c-1.27,1.8-3.09,3.14-5.19,3.82,0-1.37,0-3.28-.68-3.96-.68,2.05-2.73,4.64-5.19,5.87,0-1.37,0-3.28-.68-4.51,0,2.59-5.19,3.96-5.87,5.87.68-1.91.68-3.96.68-5.19-1.46,2.35-3.84,3.98-6.55,4.51.55-1.37,1.37-2.73.55-3.96-.55,2.73-4.51,4.1-7.78,3.28,0,1.37-2.73,3.28-5.87,1.37-2.05-.68-3.28-2.73-2.05-3.96-2.59,0-5.19-2.59-3.82-4.51,0-.68.55-1.37.55-2.05-1.91-1.37-2.59-3.96-.55-5.87.55-.68,2.59-.68,3.82-.68,0-5.19,4.64-5.19,6.55-1.37,1.37,2.05,5.32,5.32,8.6,4.64,1.37,0,1.91-.68,3.28-.68,5.87-1.94,11.4-4.8,16.38-8.46.55-1.91.55-3.28.55-4.51-2.59,1.37-5.19,2.59-6.55,4.51v-1.91c-1.91,0-5.19-.68-6.55-.68.68-.68,1.37-3.96,2.73-4.64-3.28.68-6.55,0-9.28-.55,1.37-1.37,1.37-3.28,2.05-5.32-1.37.68-4.64-.55-7.24,0,.68-1.91,1.37-4.51,3.28-5.19-2.73.68-5.87,0-9.15-1.37,2.73,0,3.96-3.28,5.87-3.28-5.19,0-6.55-2.59-9.15-3.82,1.91.55,3.28-1.37,5.19-1.37-1.91-.68-5.19-3.96-3.82-5.87-.68.68-1.37,1.91-2.73,2.73-1.37.55-3.82,0-5.87-2.05-1.37-2.73-.68-5.87,2.05-6.55-1.73-.11-3.04-1.6-2.93-3.34.05-.75.36-1.45.88-1.99.68-1.37,3.28-3.14,4.64-1.37l1.91,2.73c-.68-1.37-.68-3.96-.68-5.87.68-1.91,2.05-1.91,4.1-2.73,1.77,0,3.14,2.05,3.14,4.1,0,1.91.68,3.14,1.37,5.87l.55-2.73c0-2.59,3.28-1.91,5.32-1.37,1.91.82,2.59,4.64,0,6.69-1.37,1.37-.68,3.28.68,4.51,4.51,7.24,12.29,13.11,18.98,13.79,0-2.73,1.37-5.19,3.28-7.24,0-1.37.55-3.28,1.37-4.51.55-3.96,2.46-5.87,5.05-4.64-.55-.68-1.37-1.37-1.37-1.91-1.91-2.05-3.82-5.32-2.46-7.92,1.37-2.59,5.19-1.91,6.55-.55-.68-4.1,3.82-7.24,3.82-9.28.68,2.05,2.05,4.64,1.37,6.55.68-2.59,5.19-5.87,8.46-7.1-1.37,1.91,2.73,5.19,2.05,7.1,1.37-3.28,6.55-5.19,10.38-5.19-1.37,1.37-1.37,3.96-1.37,5.19,2.05,0,5.46-.55,6.69-2.59,0,2.73-1.37,5.32-2.73,6.55.68-.68,3.28-.68,5.32-.68-2.05,2.05-1.37,4.1-3.28,5.32,2.59-1.37,5.87-1.37,6.55,1.37,1.37,1.91-.68,5.19-2.05,7.1-1.37.68-2.59,1.91-3.28,1.91h0Z"
           id="path72" />
        <g
           id="g81">
          <path
             class="cls-10"
             d="M631.23,397.97c-4.64,1.91-6.01,6.55-6.69,9.15"
             id="path73" />
          <path
             class="cls-10"
             d="M630.54,402.48c-6.55,4.1-9.28,7.24-7.92,14.47M633.68,422.27c4.1-1.37,6.55-2.73,9.83-8.6"
             id="path74" />
          <path
             class="cls-10"
             d="M641.6,416.26c-1.37,2.73,0,7.24-1.91,9.15,3.57-1.77,6.02-5.2,6.55-9.15"
             id="path75" />
          <path
             class="cls-10"
             d="M642.97,423.5c2.59-1.37,6.55-5.32,8.46-9.83-.68,1.91,0,5.19-1.37,7.24,3.28-3.28,4.64-5.32,5.32-8.6l.55,2.73c1.37-1.37,2.73-2.73,2.73-5.32M658.53,411.62v3.28c2.73-1.91,3.41-4.51,3.41-7.78"
             id="path76" />
          <path
             class="cls-10"
             d="M661.26,411.08c3.96-2.73,4.51-6.55,4.51-12.42M665.77,405.21c2.73-2.05,3.28-3.28,3.28-9.28M660.58,378.31c-1.37,0-2.73.68-2.73,2.73,0,1.23-1.91,3.14-1.91,5.19-.55,2.59-1.91,3.28-3.82,2.59q-2.05-1.37-2.05-3.28c0-2.73,3.28-3.28,3.28-5.87.68-1.37,1.37-3.28,2.05-3.28-3.28,1.91-7.92.55-8.6-3.28"
             id="path77" />
          <path
             class="cls-10"
             d="M666.45,380.22c-1.37.68-2.73-1.37-4.51-.55-.68,0-2.73.55-3.28,0"
             id="path78" />
          <path
             class="cls-10"
             d="M657.3,383.5c.68.68,3.96,2.05,7.24.68-2.73.68-4.64-2.59-2.05-4.51M651.43,376.95c-2.73,0-4.64,2.05-3.96,4.1.68,1.91,3.28,1.91,5.19.55M646.79,409.71c.68-.68,1.37-1.91,1.37-2.73,1.37,0,2.73-.55,3.28-1.23,2.59,0,4.51-1.91,5.19-3.82,1.37,0,2.05-3.28,2.73-4.64.55.68,1.91,0,2.59-2.73,1.37.82,3.28,0,3.82-1.91M639.01,388.14c0,.68-1.37,1.91-2.73,2.73.68,1.23,0,4.51-1.23,5.05.68,1.37,0,3.28-.68,4.64,0,.68.68,2.73.68,3.28M641.6,375.04c-1.37,3.28-.68,7.24,1.91,7.92"
             id="path79" />
          <path
             class="cls-10"
             d="M642.97,385.41c-.68,3.41-.68,7.92-1.37,9.97-.68,1.37-1.91,5.87,3.28,7.1,5.87,1.37,9.15.68,12.42-9.15M667.13,418.86c0,.68-.68,2.05-1.91,2.05M671.64,417.63c0,1.37-1.37,3.28-1.91,3.82M676.28,416.26c0,1.37,0,3.28-1.37,3.96M636.41,375.72c.55,0,1.37,1.37,1.91,2.59-1.91-1.37-3.96,1.91-2.73,3.96M634.37,386.78l-2.59,2.05M632.46,392.65c-.68,0-1.37.68-1.91.68M601.06,380.91q0-.68.68-1.37M595.19,379q-.68,0-1.37-.68M595.73,388.14h1.37M593.14,384.18c-1.04-1.03-2.38-1.7-3.82-1.91M629.18,408.48c-4.64,3.82-6.55,7.1-7.24,11.74M633.68,411.62c-1.16,2.43-2.95,4.51-5.19,6.01M608.29,431.28c-4.43,1.43-9.27.72-13.11-1.91-.68-.68-1.37-.68-2.05-1.37M627.81,422.27c-.55,2.46-1.37,5.73-2.59,6.42,5.32-2.73,9.83-6.55,10.51-12.42M589.86,434.56c2.05-.68,4.1.68,5.32-.68M703.72,412.99c1.37.68,3.28,1.37,3.96,1.91.68-1.37,3.28-3.28,5.19-3.82M657.3,426.78c-.68-2.73.68-5.87,4.64-7.24M631.77,437.83c.68-1.37.68-3.28,1.37-4.51M602.97,439.88c-.68,1.37-1.91,2.59-1.91,3.82M593.14,441.11s0-.68.68-.68c1.37-.55,3.28-1.91,3.96-3.28M682.15,431.96c-1.37.68-1.91,0-2.59-.68M681.47,435.24s-.55.68-1.37.68M684.74,438.52c-.68.68-1.37,1.37-1.91,1.37M703.72,439.88c1.37-.68,2.05-2.05,2.73-4.64M695.25,439.2c1.91-.68,3.28-2.05,5.19-3.96M713.55,433.88c0-1.37,0-2.59.68-3.82M762.01,439.88c-1.37-1.37-1.37-3.28.68-4.64,1.37-.68,1.91-1.37,3.28-1.91"
             id="path80" />
          <path
             class="cls-10"
             d="M722.01,416.81c-10.38-4.51-9.69-10.38-18.29-9.69M768.56,437.29c.68.55,0,2.59,0,3.14M774.43,437.29c-.68,1.91-.68,2.59-.68,4.51M724.06,375.72h-5.46M669.04,397.97c0,1.37,2.05,3.96,7.24,3.96-.68,0-1.37-.68-1.37-.68M671.64,390.05c-.55.68-1.37,0-1.37,0-1.23-1.37.82-3.82,2.73-5.19-1.91.68-3.28.68-4.64.68-1.37,3.96-5.19,5.87-7.78,3.28-.68,2.59-3.96,5.87-6.55,5.19-2.73-1.37-3.28-3.28-2.73-5.19-3.14,3.82-7.1,1.37-8.33,0-.68-1.37,0-4.64,1.37-8.6"
             id="path81" />
        </g>
        <path
           class="cls-24"
           d="M713.55,414.9c-1.91,1.37-3.96,0-5.87,2.05-1.37,1.37.68,1.91,1.91,1.91-.55,2.05-.55,2.73,2.73,2.73-1.37,1.91,2.59,2.59,1.91,5.19,1.68-1.74,2.21-4.29,1.37-6.55-.68-2.05-4.1-3.28-2.05-5.32"
           id="path82" />
        <path
           class="cls-22"
           d="M654.03,394.01c-2.73-1.37-3.28-3.28-2.73-5.19-.55,1.37-1.77,1.91-3.14,1.91-2.73,5.87-5.87,11.19-9.83,11.19-4.64.55-3.96,5.19-.68,5.19,7.24,1.37,10.51-1.37,16.38-13.11M589.32,378.31c1.91-1.91.55-3.96-.68-4.51-2.05-.68-5.87,0-7.92,3.14,2.05-.55,4.1-.55,4.64.68.68,1.37,1.91,2.73,3.96.68M592.59,366.57c4.51,0,5.87.68,6.42,2.59.68,1.37-.55,3.28-1.91,3.28-1.91,0-3.96-1.37-3.28-1.91.68-1.37.68-3.28-1.37-4.1l.14.14ZM605.56,376.95c3.28.68,4.64-1.37,2.73-3.82-.68-2.05-2.73-3.28-6.01-2.73,3.28,2.05,0,5.32,3.28,6.55M581.4,388.14c1.21,2.4,3.99,3.56,6.55,2.73,1.91-.82,2.73-2.73,1.91-4.1-1.37-1.91-3.28-2.59-3.82,0-1.37,2.73-3.28,2.05-4.64,1.37M591.23,428.01c-1.37-2.59-5.19-2.59-8.46,0,1.37-.68,3.82,0,4.51,1.37s2.05,1.37,2.73,1.37c.55-.68,1.91-1.37,1.23-2.73M596.42,424.18c0-3.28-4.51-4.1-7.1-2.73,1.37,0,3.28,1.37,3.28,2.73.55,1.37,1.91,1.91,2.59,1.91,1.37-.68,1.91-1.37,1.37-1.91h-.14ZM589.86,435.92c-3.82-.68-5.87,3.96-5.87,7.1.68-1.91,2.73-3.14,4.64-2.59,1.91,0,2.59-.55,2.59-1.91.68-1.37,0-1.91-1.37-2.73v.14ZM590.55,446.98c1.37.68,2.73-.68,3.28-2.59,0-1.37,2.73-1.37,3.28-.68,1.37.68,1.37,3.28-.68,4.64-1.37.68-4.51,1.37-5.87-1.37M681.47,427.32c-1.37-.55-4.51-1.91-7.1,0,1.91-.55,3.28.68,3.82,2.05,0,1.37,2.05,1.91,2.73.68.55-.68,1.37-2.05.55-2.73M675.6,431.96c-2.59-1.37-5.87,1.91-6.55,4.64,1.33-1.09,2.94-1.8,4.64-2.05,1.37.68,2.59,0,2.59-1.37.68-.55.68-1.23-.68-1.23M679.01,437.29c-2.05,0-4.64,2.59-4.64,5.19.55-1.37,1.91-2.05,3.28-1.37,1.37,0,3.28-.68,3.28-1.91,0-1.37-.68-2.05-2.05-2.05l.14.14ZM684.74,442.48c-1.37-.68-3.28,0-3.28,1.91s0,3.96-.55,4.64c1.37-1.37,2.59-2.05,3.82-2.73.68-.55,1.37-2.59,0-3.82M758.73,436.61c-1.37-1.37-3.28-.68-3.96.55-.68,1.37-1.37,4.64,0,7.24,0-1.37,1.37-3.28,2.73-3.28,1.91-.68,2.46-3.28,1.23-4.51M762.69,439.2c-2.73,1.37-2.73,5.87-.68,8.46,0-1.37.68-3.28,1.91-3.96,2.05,0,2.73-2.59,2.05-3.82-1.37-1.37-2.73-.68-3.28-.68M770.48,441.79c-1.37-.68-2.73.68-2.73,1.91-.55,2.05.82,4.64,2.73,5.87,0-1.37.68-2.59,1.37-3.28,1.91-1.37,1.37-3.82-1.37-4.51M776.35,441.11c-1.37,0-2.59,1.91-1.37,3.96.68,1.37,2.05,1.91,4.64,1.37-.68,0-1.91-2.05-1.37-2.73.68-1.37,0-2.59-1.91-2.59"
           id="path83" />
      </g>
      <g
         id="ky-h">
        <path
           class="cls-25"
           d="M594.5,563.43l32.76-100.75,32.76,100.75-85.87-62.12h106.21l-85.87,62.12Z"
           id="path84" />
        <path
           class="cls-31"
           d="M601.06,554.28l67.99-49.69h-83.69l67.3,49.69-25.39-79.73-26.21,79.73Z"
           id="path85" />
      </g>
      <g
         id="ky-h-2"
         data-name="ky-h">
        <path
           class="cls-25"
           d="M717.51,563.43l32.76-100.75,32.76,100.75-85.87-62.12h106.21l-85.87,62.12Z"
           id="path86" />
        <path
           class="cls-31"
           d="M724.06,554.28l67.99-49.69h-83.69l67.3,49.69-25.39-79.73-26.21,79.73Z"
           id="path87" />
      </g>
      <g
         id="ky-h-3"
         data-name="ky-h">
        <path
           class="cls-25"
           d="M655.94,634.69l32.76-100.75,32.76,100.75-85.87-62.12h106.21l-85.87,62.12Z"
           id="path88" />
        <path
           class="cls-31"
           d="M662.49,625.55l67.99-49.69h-83.69l67.3,49.69-25.39-79.73-26.21,79.73Z"
           id="path89" />
      </g>
      <path
         class="cls-10"
         d="M811.02,358.11v127.51c0,110.58-52.29,148.53-122.32,178.56-70.03-30.03-122.87-67.99-122.87-178.56v-127.64h245.19v.14Z"
         id="path90" />
    </g>
  </g>
</svg>
