<svg xmlns="http://www.w3.org/2000/svg" id="Layer_1" data-name="Layer 1" viewBox="0 0 960 960"><defs id="defs1"><style id="style1">.cls-1{stroke-width:3.9px}.cls-1,.cls-12,.cls-2,.cls-3,.cls-4,.cls-6,.cls-7,.cls-9{fill-rule:evenodd}.cls-1,.cls-14,.cls-18,.cls-19,.cls-21,.cls-4,.cls-6,.cls-7,.cls-9{stroke:#000}.cls-1{fill:#ff0}.cls-2{fill:#ffe700}.cls-12,.cls-2,.cls-23,.cls-27,.cls-28,.cls-3{stroke-width:0}.cls-14,.cls-9{stroke-width:2.5px}.cls-12{fill:#108c00}.cls-14,.cls-18,.cls-19,.cls-21,.cls-4,.cls-6,.cls-7{fill:#009200}.cls-21,.cls-4{stroke-width:2.1px}.cls-6{stroke-width:2.9px}.cls-19,.cls-7{stroke-width:1.5px}.cls-27{fill:#eee}.cls-9{fill:#804bff}.cls-18{stroke-width:1.6px}.cls-28{fill:#ffd600}</style><mask id="mask" width="959.91" height="959.91" x=".11" y=".09" maskUnits="userSpaceOnUse"><g id="a"><circle id="circle1" cx="480.07" cy="480.04" r="479.96" style="stroke-width:0;fill:#fff"/></g></mask></defs><g id="g8" style="mask:url(#mask)"><g id="g7"><path id="path1" d="M.11.09h389.96l89.99 59.99 90-59.99h389.96v389.96l-59.99 89.99 59.99 89.99v389.96H570.06L480.07 900l-89.99 59.99H.11V570.03l59.99-89.99L.11 390.05z" style="stroke-width:0;fill:#108c00"/><path id="path2" d="M960.02 450.05v59.99l-479.96 59.99L.11 510.04v-59.99l479.96-59.99 479.96 59.99Z" style="stroke-width:0;fill:#333"/><path id="path3" d="M960.02 390.05v59.99H.11v-59.99z" class="cls-28"/><path id="path4" d="M450.07.09h59.99l59.99 479.96-59.99 479.96h-59.99l-59.99-479.96z" style="stroke-width:0;fill:#000001"/><path id="path5" d="M390.07.09h59.99V960h-59.99z" class="cls-28"/><path id="path6" d="M510.06.09h59.99V960h-59.99z" class="cls-27"/><path id="path7" d="M960.02 510.04v59.99H.11v-59.99z" class="cls-27"/></g></g><g id="g97"><path id="path8" d="M480.07 703.83c-131.5 0-238.1-107.07-238.1-239.15s106.6-239.15 238.1-239.15 238.1 107.07 238.1 239.15-106.6 239.15-238.1 239.15" style="fill-rule:evenodd;stroke-width:0;fill:#e72910"/><g id="g11"><path id="path9" d="m467.54 257.02 9.74-27.83 8.87 27.31s29.74.87 29.74.35-23.48 17.91-23.48 17.91l10.61 30.61c-.35-.87-25.74-18.96-25.74-18.96s-25.74 18.09-25.22 18.09 9.74-29.57 9.74-29.57l-23.13-17.57 28.87-.52v.17Z" class="cls-3"/><path id="path10" d="m468.93 258.24 8.17-23.83 7.65 23.65s25.91.7 25.91.35-20.35 15.65-20.35 15.65l9.04 26.44c-.35-.87-22.26-16.35-22.26-16.35s-22.26 15.65-21.91 15.65 8.7-25.74 8.7-25.74l-20.18-15.31 25.05-.35.17-.17Z" class="cls-2"/><path id="path11" d="m472.41 262.24 4.87-13.91 4.52 13.74s14.78.35 14.78 0-11.65 9.04-11.65 9.04l5.22 15.31c-.17-.52-12.87-9.39-12.87-9.39l-12.52 9.04c.35 0 4.87-14.78 4.87-14.78l-11.48-8.7z" class="cls-12"/></g><g id="g14"><path id="path12" d="m652.6 387.11 9.74-27.83 8.7 27.31s29.92 1.04 29.92.52-23.48 17.91-23.48 17.91l10.44 30.61c-.35-.87-25.57-18.96-25.57-18.96s-25.74 18.09-25.22 18.09 9.74-29.57 9.74-29.57l-23.13-17.74 28.87-.52v.17Z" class="cls-3"/><path id="path13" d="m653.82 388.51 8.52-24.18 7.65 23.83s25.74.7 25.74.35-20.35 15.65-20.35 15.65l9.22 26.26c-.35-.7-22.26-16.35-22.26-16.35s-22.26 15.65-21.91 15.65 8.52-25.74 8.52-25.74l-20-15.13 24.87-.35Z" class="cls-2"/><path id="path14" d="m657.47 392.51 4.87-13.91 4.35 13.57 14.96.35-11.83 8.87s5.57 15.65 5.22 15.31c0-.52-12.7-9.39-12.7-9.39l-12.7 8.87 4.87-14.78-11.48-8.7 14.44-.17Z" class="cls-12"/></g><g id="g17"><path id="path15" d="m598.68 593.74 9.74-27.83 8.7 27.48s29.92.87 29.92.52-23.48 17.91-23.48 17.91L634 642.26c-.35-.87-25.57-18.78-25.57-18.78s-25.74 17.91-25.39 17.91 9.91-29.57 9.91-29.57l-23.13-17.39 28.87-.7Z" class="cls-3"/><path id="path16" d="m599.9 595.13 8.52-24 7.65 23.65s25.74.87 25.74.35-20.35 15.65-20.35 15.65l9.22 26.44c-.35-.87-22.26-16.35-22.26-16.35s-22.26 15.65-21.91 15.65 8.52-25.74 8.52-25.74l-20-15.13z" class="cls-2"/><path id="path17" d="m603.55 599.13 4.87-13.91 4.35 13.74s14.96.52 14.96.17-11.83 9.04-11.83 9.04l5.22 15.13c0-.35-12.7-9.39-12.7-9.39l-12.7 9.04 4.87-14.78-11.48-8.7 14.44-.35Z" class="cls-12"/></g><g id="g20"><path id="path18" d="m340.06 593.74 9.74-27.83 8.7 27.48s29.74.87 29.74.52-23.48 17.91-23.48 17.91l10.78 30.44c-.52-.87-25.74-18.78-25.74-18.78s-25.74 17.91-25.39 17.91 9.91-29.57 9.91-29.57l-23.13-17.39 28.87-.7Z" class="cls-3"/><path id="path19" d="m341.45 595.13 8.35-24 7.65 23.65s25.74.87 25.74.35-20.35 15.65-20.35 15.65l9.22 26.44c-.35-.87-22.26-16.35-22.26-16.35s-22.26 15.65-21.91 15.65 8.52-25.74 8.52-25.74l-20-15.13 25.05-.52Z" class="cls-2"/><path id="path20" d="m344.93 599.13 4.87-13.91 4.35 13.74s14.96.52 14.96.17-11.83 9.04-11.83 9.04l5.22 15.13c0-.35-12.7-9.39-12.7-9.39l-12.7 9.04 4.87-14.78-11.48-8.7 14.44-.35Z" class="cls-12"/></g><g id="g23"><path id="path21" d="m292.75 381.72 9.74-27.83 8.87 27.48s29.74.87 29.74.35-23.48 18.09-23.48 18.09l10.61 30.44c-.52-.87-25.74-18.78-25.74-18.78s-25.74 17.74-25.22 17.74 9.74-29.57 9.74-29.57l-23.13-17.39 28.87-.52Z" class="cls-3"/><path id="path22" d="m294.14 383.11 8.35-24 7.83 23.65s25.57.87 25.57.35-20.35 15.65-20.35 15.65l9.22 26.44c-.35-.87-22.26-16.35-22.26-16.35s-22.26 15.65-21.74 15.65 8.35-25.74 8.35-25.74l-20-15.13 25.05-.52Z" class="cls-2"/><path id="path23" d="m297.62 387.11 4.87-13.91 4.52 13.74 14.78.17-11.65 9.04 5.22 15.13c-.17-.35-12.87-9.39-12.87-9.39l-12.52 9.04c.35 0 4.87-14.78 4.87-14.78l-11.48-8.7 14.26-.35Z" class="cls-12"/></g><g id="g26"><path id="path24" d="m596.42 321.54-9.74 27.83-8.7-27.31s-29.92-.87-29.92-.52 23.48-17.91 23.48-17.91l-10.44-30.44c.35.87 25.57 18.78 25.57 18.78s25.74-17.91 25.22-17.91-9.74 29.57-9.74 29.57l23.13 17.39-28.87.52Z" class="cls-3"/><path id="path25" d="M595.2 320.15c0 .52-8.7 24.18-8.7 24.18l-7.48-23.65s-25.74-.87-25.74-.52 20.35-15.48 20.35-15.48l-9.22-26.44c.35.87 22.26 16.35 22.26 16.35s22.26-15.65 21.91-15.65-8.52 25.74-8.52 25.74l20 15.13-24.87.35Z" class="cls-2"/><path id="path26" d="m591.55 316.15-4.87 13.91-4.35-13.57s-14.96-.52-14.96-.17 11.83-9.04 11.83-9.04l-5.22-15.13c0 .35 12.7 9.39 12.7 9.39l12.7-9.04c-.35 0-5.04 14.78-5.04 14.78l11.65 8.7-14.44.35v-.17Z" class="cls-12"/></g><g id="g29"><path id="path27" d="m670.69 523.65-9.74 27.83-8.7-27.48s-29.92-.87-29.92-.35 23.48-17.91 23.48-17.91l-10.44-30.61c.35.87 25.57 18.78 25.57 18.78S686.68 476 686.16 476s-9.74 29.57-9.74 29.57l23.31 17.57-29.05.52Z" class="cls-3"/><path id="path28" d="m669.47 522.25-8.52 24-7.65-23.65s-25.74-.7-25.74-.35 20.35-15.65 20.35-15.65l-9.22-26.44c.35.87 22.26 16.35 22.26 16.35s22.26-15.65 21.91-15.65-8.52 25.74-8.52 25.74l20 15.31-24.87.35Z" class="cls-2"/><path id="path29" d="m665.82 518.25-4.87 13.91-4.35-13.74s-14.96-.35-14.96 0 11.83-9.04 11.83-9.04l-5.22-15.31c0 .52 12.7 9.39 12.7 9.39l12.7-9.04c-.35 0-5.04 14.96-5.04 14.96l11.65 8.7z" class="cls-12"/></g><g id="g32"><path id="path30" d="m486.5 671.48-9.74 27.83-8.7-27.48s-29.92-.87-29.92-.52 23.48-17.91 23.48-17.91l-10.44-30.44c.35.87 25.57 18.78 25.57 18.78s25.74-17.91 25.22-17.91-9.74 29.57-9.74 29.57l23.13 17.57-28.87.52Z" class="cls-3"/><path id="path31" d="m485.28 669.92-8.52 24.35-7.65-23.83s-25.74-.87-25.74-.35 20.35-15.65 20.35-15.65L454.5 628c.35.87 22.26 16.35 22.26 16.35s22.26-15.65 21.91-15.65-8.52 25.74-8.52 25.74l20 15.13-24.87.52z" class="cls-2"/><path id="path32" d="M481.63 666.09 476.76 680l-4.35-13.74s-14.96-.52-14.96-.17 11.83-9.04 11.83-9.04l-5.22-15.13c0 .35 12.7 9.39 12.7 9.39l12.7-9.04-4.87 14.78 11.48 8.7-14.44.35Z" class="cls-12"/></g><g id="g35"><path id="path33" d="m313.62 523.65-9.91 27.83-8.7-27.48s-29.92-.87-29.92-.35 23.48-17.91 23.48-17.91l-10.44-30.61c.35.87 25.57 18.78 25.57 18.78l25.57-17.74-9.91 29.57 23.13 17.57-28.87.52v-.17Z" class="cls-3"/><path id="path34" d="m312.23 522.25-8.52 24-7.65-23.65s-25.74-.7-25.74-.35 20.35-15.65 20.35-15.65l-9.22-26.44c.35.87 22.26 16.35 22.26 16.35s22.26-15.65 21.91-15.65-8.52 25.74-8.52 25.74l20 15.31-24.87.35Z" class="cls-2"/><path id="path35" d="m308.58 518.25-4.87 13.91-4.35-13.74s-14.96-.35-14.96 0 11.83-9.04 11.83-9.04l-5.22-15.31c0 .52 12.7 9.39 12.7 9.39l12.7-9.04-4.87 14.96 11.48 8.7z" class="cls-12"/></g><g id="g38"><path id="path36" d="m377.45 324.5-9.74 27.83-9.04-27.31s-29.57-.87-29.57-.52 23.48-17.91 23.48-17.91l-10.61-30.44c.35.87 25.57 18.78 25.57 18.78s25.74-17.91 25.39-17.91-9.74 29.57-9.74 29.57l22.96 17.39z" class="cls-3"/><path id="path37" d="m376.06 323.11-8.52 24.35-7.65-23.83s-25.74-.87-25.74-.35 20.35-15.65 20.35-15.65l-9.22-26.44c.35.87 22.26 16.35 22.26 16.35s22.26-15.65 21.91-15.65-8.35 25.74-8.35 25.74l19.83 15.13-24.87.52z" class="cls-2"/><path id="path38" d="m372.41 319.28-4.87 13.91-4.35-13.74s-14.78-.52-14.78-.17 11.65-9.04 11.65-9.04l-5.22-15.13c0 .35 12.7 9.39 12.7 9.39l12.7-9.04-4.87 14.78 11.48 8.7-14.44.35Z" class="cls-12"/></g><g id="g96"><g id="g40"><ellipse id="ellipse38" cx="514.64" cy="523.45" class="cls-14" rx="12.84" ry="63.05" transform="rotate(-4.07 514.275 523.098)"/><ellipse id="ellipse39" cx="527.53" cy="523.3" class="cls-14" rx="13.59" ry="63.05" transform="rotate(-4.17 526.927 522.786)"/><ellipse id="ellipse40" cx="521.54" cy="526.76" class="cls-14" rx="10.88" ry="69.67" transform="rotate(-4.01 521.523 526.762)"/></g><g id="g44"><path id="path40" d="M421.35 556.58c10.93-.49 6.2-6.35 11.72-9.47s13.35-1.07 15.71 2.82c2.33 3.89.44 7.72 3.5 7.77 3.02.04 85.44-3.63 88.41-.38 3 3.25 3.46 9.69.39 12.19s-107.29 3.96-110.89 1.32c-3.59-2.6-8.85-13.63-8.84-14.25Z" style="fill-rule:evenodd;stroke:#000;stroke-width:2.5px;fill:#a95600"/><path id="path41" d="M479.75 564.89c-.22 8.29 12.01 5.92 12.15 12.85-.38 7.33-20.47.45-20.63-12.96.86-13.42 20.53-20.04 20.78-12.36.15 6.35-12.11 4.19-12.33 12.48h.03Z" class="cls-1"/><path id="path42" d="M486.96 565.07c-.22 8.29 12.01 5.92 12.15 12.85-.38 7.33-20.47.45-20.63-12.96.86-13.42 20.53-20.04 20.78-12.36.15 6.35-12.11 4.19-12.33 12.48h.03Z" class="cls-1"/><path id="path43" d="M494.71 564.71c-.22 8.29 12.01 5.92 12.15 12.85-.38 7.33-20.47.45-20.63-12.96.86-13.42 20.53-20.04 20.78-12.36.15 6.35-12.11 4.19-12.33 12.48h.03Z" class="cls-1"/><path id="path44" d="M501.92 564.71c-.22 8.29 12.01 5.92 12.15 12.85-.38 7.33-20.47.45-20.63-12.96.86-13.42 20.53-20.04 20.78-12.36.15 6.35-12.11 4.19-12.33 12.48h.03Z" class="cls-1"/><ellipse id="ellipse44" cx="536.82" cy="562.97" rx="7.07" ry="6.9" style="stroke:#000;stroke-width:.4px;fill:#a95600" transform="rotate(-81.64 536.865 562.971)"/></g><g id="g52"><ellipse id="ellipse45" cx="494.9" cy="539.53" class="cls-14" rx="6.22" ry="13.68" transform="rotate(-5.54 494.72 539.367)"/><ellipse id="ellipse46" cx="484.3" cy="538.61" class="cls-14" rx="6.22" ry="13.68" transform="rotate(-5.54 484.2 538.443)"/><ellipse id="ellipse47" cx="476.77" cy="525.07" class="cls-14" rx="6.22" ry="13.68" transform="rotate(-5.54 476.67 524.924)"/><ellipse id="ellipse48" cx="487.81" cy="524.33" class="cls-14" rx="6" ry="15.12" transform="rotate(-5.52 487.953 524.494)"/><ellipse id="ellipse49" cx="502.57" cy="525.26" class="cls-14" rx="6" ry="14.16" transform="rotate(-5.6 502.773 525.497)"/><ellipse id="ellipse50" cx="494.46" cy="520.29" class="cls-14" rx="6" ry="14.16" transform="rotate(-5.6 494.615 520.487)"/><ellipse id="ellipse51" cx="484.32" cy="513.17" class="cls-14" rx="6" ry="14.16" transform="rotate(-5.6 484.512 513.332)"/><ellipse id="ellipse52" cx="474.85" cy="509.06" class="cls-14" rx="6" ry="14.16" transform="rotate(-5.6 475.077 509.283)"/></g><path id="path52" d="M464.62 391.54s-20.79 18.16-18.08 67.25c3.06 49.39 46.86 72.57 46.86 72.57s11.02-14.05 9.41-53.68c-3.57-58.06-24.35-83.63-24.35-83.63l-13.81-2.5h-.03Z" class="cls-9"/><g id="g60"><ellipse id="ellipse53" cx="512.04" cy="541.47" class="cls-14" rx="13.68" ry="6.22" transform="rotate(-85.24 512.025 541.474)"/><ellipse id="ellipse54" cx="501.77" cy="538.68" class="cls-14" rx="13.68" ry="6.22" transform="rotate(-85.24 501.76 538.681)"/><ellipse id="ellipse55" cx="496.78" cy="524.01" class="cls-14" rx="13.68" ry="6.22" transform="rotate(-85.24 496.771 524.005)"/><ellipse id="ellipse56" cx="507.78" cy="525.25" class="cls-14" rx="15.12" ry="6" transform="rotate(-85.22 507.791 525.254)"/><ellipse id="ellipse57" cx="522.14" cy="528.81" class="cls-14" rx="14.16" ry="6" transform="rotate(-85.3 522.156 528.81)"/><ellipse id="ellipse58" cx="515.05" cy="522.47" class="cls-14" rx="14.16" ry="6" transform="rotate(-85.3 515.064 522.468)"/><ellipse id="ellipse59" cx="506.34" cy="513.65" class="cls-14" rx="14.16" ry="6" transform="rotate(-85.3 506.357 513.654)"/><ellipse id="ellipse60" cx="497.76" cy="507.92" class="cls-14" rx="14.16" ry="6" transform="rotate(-85.3 497.775 507.916)"/></g><ellipse id="ellipse61" cx="508.51" cy="476.68" rx="17.64" ry="54.19" style="stroke:#000;fill:#c90000" transform="rotate(-23.68 508.447 476.66)"/><g id="g74"><ellipse id="ellipse62" cx="495.38" cy="425.45" class="cls-19" rx="6.81" ry="7.69" transform="rotate(-89 495.376 425.445)"/><ellipse id="ellipse63" cx="501.42" cy="415.64" class="cls-18" rx="6.81" ry="6.89" transform="rotate(-89 501.419 415.641)"/><ellipse id="ellipse64" cx="492.05" cy="415.48" class="cls-18" rx="6.81" ry="6.89" transform="rotate(-89 492.05 415.476)"/><ellipse id="ellipse65" cx="493.96" cy="408.44" class="cls-18" rx="6.39" ry="7.2" transform="rotate(-89 493.961 408.442)"/><ellipse id="ellipse66" cx="493.2" cy="400.32" class="cls-18" rx="6.39" ry="7.2" transform="rotate(-89 493.2 400.323)"/><ellipse id="ellipse67" cx="483.13" cy="410.28" class="cls-18" rx="6.81" ry="6.89" transform="rotate(-89 483.132 410.272)"/><ellipse id="ellipse68" cx="485.09" cy="401.41" class="cls-18" rx="6.67" ry="6.89" transform="rotate(-89 485.092 401.407)"/><ellipse id="ellipse69" cx="473.81" cy="401.64" class="cls-19" rx="6.81" ry="7.69" transform="rotate(-89 473.81 401.642)"/><ellipse id="ellipse70" cx="487.97" cy="390.32" class="cls-18" rx="6.39" ry="7.2" transform="rotate(-89 487.972 390.315)"/><ellipse id="ellipse71" cx="478.41" cy="391.56" class="cls-18" rx="6.67" ry="6.89" transform="rotate(-89 478.413 391.553)"/><ellipse id="ellipse72" cx="463.63" cy="402.01" class="cls-18" rx="6.81" ry="6.89" transform="rotate(-89 463.633 402.003)"/><ellipse id="ellipse73" cx="466.07" cy="396.93" class="cls-18" rx="6.67" ry="6.89" transform="rotate(-89 466.066 396.932)"/><ellipse id="ellipse74" cx="469.05" cy="391.39" class="cls-18" rx="6.67" ry="6.89" transform="rotate(-89 469.05 391.393)"/></g><g id="g87"><ellipse id="ellipse75" cx="513.41" cy="467.22" class="cls-14" rx="22.42" ry="64.5" transform="rotate(-23.81 513.516 467.286)"/><ellipse id="ellipse76" cx="531.83" cy="477.65" class="cls-14" rx="4.34" ry="13.52" transform="rotate(-23.97 531.8 477.635)"/><path id="path76" d="M529.78 477.6c18.33 22.24 15.96 36.4 14.02 48.36-5.77-13.79-8.81-22.47-27.14-44.71s-9.17-37.86-7.92-46.12c2.75 7.15 2.71 20.23 21.04 42.47Z" class="cls-7"/><path id="path77" d="M531.43 495.57c18.33 22.24 15.96 36.4 14.02 48.36-5.77-13.79-8.81-22.47-27.14-44.71s-9.17-37.86-7.92-46.12c2.75 7.15 2.71 20.23 21.04 42.47Z" class="cls-7"/><path id="path78" d="M532.1 510.04c18.79 21.84 16.71 36.05 15.02 48.05-6.05-13.67-9.27-22.28-28.06-44.12s-9.96-37.65-8.87-45.94c2.9 7.09 3.13 20.17 21.92 42.01Z" class="cls-7"/><ellipse id="ellipse78" cx="519.18" cy="456.71" rx="7.9" ry="24.08" style="stroke:#000;fill:#009200;stroke-width:1.4px" transform="rotate(-25.07 519.233 456.727)"/><ellipse id="ellipse79" cx="511.9" cy="469.21" class="cls-18" rx="6.9" ry="19.78" transform="rotate(-24.39 511.812 469.157)"/><ellipse id="ellipse80" cx="503.08" cy="477.43" class="cls-18" rx="6.89" ry="19.78" transform="rotate(-23.2 503.1 477.438)"/><ellipse id="ellipse81" cx="510.46" cy="447.12" class="cls-21" rx="5.51" ry="15.13" transform="rotate(-28.07 510.479 447.128)"/><ellipse id="ellipse82" cx="502.85" cy="452.82" class="cls-21" rx="5.54" ry="15.08" transform="rotate(-24.44 502.947 452.885)"/><path id="path82" d="M497.09 444.01c5.41 13.2 7.59 25.07 4.86 26.51s-9.32-8.11-14.73-21.31" class="cls-4"/><ellipse id="ellipse83" cx="501.99" cy="437.3" class="cls-21" rx="5.54" ry="15.08" transform="rotate(-24.44 502.105 437.354)"/><ellipse id="ellipse84" cx="493.24" cy="441.56" class="cls-21" rx="5.54" ry="15.07" transform="rotate(-23.22 493.254 441.57)"/><path id="path84" d="M487.94 426.3c5.27 8.93 8.11 17.27 6.33 18.62s-7.5-4.79-12.76-13.72" class="cls-6"/><path id="path85" d="M491.58 420.36c5.27 8.93 8.11 17.27 6.33 18.62-1.78 1.36-7.5-4.79-12.76-13.72" class="cls-6"/><path id="path86" d="M507.77 421.44c7.33 12.18 11.27 23.57 8.78 25.42s-10.44-6.54-17.76-18.72" class="cls-4"/><path id="path87" d="M497.14 414.86c5.29 9.83 8.15 19.02 6.37 20.51s-7.51-5.29-12.79-15.12" style="fill-rule:evenodd;stroke:#000;fill:#009200;stroke-width:2.7px"/></g><g id="g91"><path id="path88" d="M496.43 401.2c-3.52 3.57-.07 10.22 3.15 12.6 3.6 3.29 23.92 24.69 38.23 6.58-11.47-.19-32.91-27.12-41.38-19.18Z" class="cls-9"/><path id="path89" d="M493.91 390.57c-3.52 3.57-.07 10.22 3.15 12.6 3.6 3.29 23.92 24.69 38.23 6.58-11.47-.19-32.91-27.12-41.38-19.18Z" class="cls-9"/><path id="path90" d="M490.67 380.48c-3.52 3.57-.07 10.22 3.15 12.6 3.6 3.29 23.92 24.69 38.23 6.58-11.47-.19-32.91-27.12-41.38-19.18Z" class="cls-9"/><path id="path91" d="M483.64 368.95c-3.52 3.57-.07 10.22 3.15 12.6 3.6 3.29 23.92 24.69 38.23 6.58-11.47-.19-32.91-27.12-41.38-19.18Z" class="cls-9"/></g><g id="g95"><path id="path92" d="M458.39 357.3c7.29-5.33 20.71-6.9 31.14-1.57 8.71 4.27 23.14 21.53 34.02 25.63-5.83 1.29-12.04.5-17.22-2.19-9.71 6.93-13.14 7.93-23.05 9.3-13.7 1.89-25.09-1.68-29.02-8.77-4.11-6.69-2.33-17.42 4.14-22.4Z" class="cls-9"/><ellipse id="ellipse92" cx="473.33" cy="367.68" rx="3.62" ry="6.27" style="stroke:#000;fill:red;stroke-width:2.5px" transform="rotate(-89 473.332 367.677)"/><ellipse id="ellipse93" cx="454.88" cy="382.9" rx="8.75" ry="5.33" style="stroke:#000;fill:#ff0;stroke-width:2.5px" transform="rotate(-20.35 454.998 382.967)"/><ellipse id="ellipse94" cx="473.13" cy="367.66" class="cls-23" rx="1.93" ry="2.24" transform="rotate(-89 473.135 367.654)"/><path id="path94" d="M459.74 372.02c.58 2.77-1.46 6.56-5.91 7.95-4.55 1.94-7.98 6.26-9.94 13.31-6.99-15.93-2.61-22.76 4.71-24.47 6.32-2.1 10.12-1.88 11.14 3.21Z" style="fill-rule:evenodd;stroke:#000;fill:#ff0;stroke-width:6.6px"/><ellipse id="ellipse95" cx="453.09" cy="373.07" class="cls-23" rx="1.59" ry="1.61" transform="rotate(-10.26 453.312 373.234)"/></g></g></g></svg>