<svg xmlns="http://www.w3.org/2000/svg" id="Layer_1" data-name="Layer 1" viewBox="0 0 960 960"><defs id="defs1"><style id="style1">.cls-12,.cls-5,.cls-7,.cls-9{stroke:#c09300}.cls-7{stroke-miterlimit:3.41}.cls-5,.cls-9{stroke-width:1.11px}.cls-9{fill:none}.cls-12,.cls-13,.cls-5{fill:#fff}.cls-5{stroke-linecap:round}.cls-12,.cls-5,.cls-9{stroke-linejoin:round}.cls-13,.cls-15{stroke-width:0}.cls-15,.cls-7{fill:#c09300}.cls-7{stroke-width:.26px}.cls-12{stroke-width:1.02px}</style><mask id="mask" width="959.91" height="959.91" x=".11" y=".09" maskUnits="userSpaceOnUse"><g id="a"><circle id="circle1" cx="480.07" cy="480.04" r="479.96" class="cls-13"/></g></mask></defs><g id="g4" style="mask:url(#mask)"><g id="g3"><path id="path1" d="m.11 270.06 479.96-59.99 479.96 59.99v419.96l-479.96 59.99L.11 690.02z" style="stroke-width:0;fill:#eee"/><path id="path2" d="M.11.09h959.91v269.98H.11z" style="stroke-width:0;fill:#ce1126"/><path id="path3" d="M.11 690.02h959.91V960H.11z" style="fill:#000001;stroke-width:0"/></g></g><g id="g27"><path id="path4" d="m481.75 488.65 143.89 133.6-10.29-242.62c-1.47-36.76-33.4-28.36-56.72-15.12-23.32 15.12-50.42 15.12-78.56 5.25-28.36 9.87-55.25 9.87-78.56-5.25-23.11-13.23-55.25-21.64-56.72 15.12L334.5 622.25l147.26-133.6Z" style="stroke:#c09300;stroke-width:1.11px;fill:#fff;stroke-linejoin:round"/><path id="eg-a" d="m361.38 371.23-10.08 235.9-16.81 15.12 10.29-242.62a50.142 50.142 0 0 1 16.6-8.4m20.17 16.8-8.4 197.46-16.81 17.23 10.08-227.92c3.36 3.36 13.23 11.55 15.12 13.23m18.28 15.12-6.51 164.69-13.65 13.23 8.4-187.8c3.36 3.15 10.08 7.98 11.76 9.87m19.96 8.42-6.51 140.32-13.23 10.71 6.51-156.08c3.36 1.47 9.87 5.04 13.23 5.04m18.48.01-4.83 117.01-13.65 13.23 5.25-128.77c3.15 0 11.76 0 13.23-1.47" class="cls-15"/><path id="eg-a-2" d="m598.75 371.23 10.08 235.9 16.81 15.12-10.29-242.62a50.142 50.142 0 0 0-16.6-8.4m-20.16 16.8 8.4 197.46 16.81 17.23-10.08-227.92c-3.36 3.36-13.23 11.55-15.12 13.23m-18.29 15.12 6.51 164.69 13.65 13.23-8.4-187.8c-3.36 3.15-10.08 7.98-11.76 9.87m-19.96 8.42 6.51 140.32 13.23 10.71-6.51-156.08c-3.36 1.47-9.87 5.04-13.23 5.04m-18.48.01 4.83 117.01 13.65 13.23-5.25-128.77c-3.15 0-11.76 0-13.23-1.47" class="cls-15" data-name="eg-a"/><path id="path5" d="m486.79 515.12 20.17 92.01-6.72 6.72-6.93-5.25-11.34-81.93 4.83 81.93-6.72 8.4-6.51-8.4 4.83-81.93-11.55 81.93-6.93 5.25-6.72-6.72 20.17-91.8h13.44v-.21Z" style="stroke:#c09300;stroke-miterlimit:3.41;stroke-width:.94px;fill:#c09300"/><g id="eg-b"><path id="path6" d="M434.9 474.79 394.78 617l55.25 8.4 23.32-106.92-38.44-43.69Z" class="cls-12"/><path id="path7" d="m421.67 523.52 4.83 11.55 26.05-24.79" class="cls-9"/><path id="path8" d="m439.73 494.11 5.46 51.05 16.6-21.85m-6.72 8.4 9.03 31.51m3.57-11.55-18.28 27.73m5.68 27.73-5.88-27.73-5.04-28.15-12.39 16.6-5.25-19.12-17.23 17.65 8.61 31.93 12.18-19.75 6.51 20.17 12.6-19.33" class="cls-9"/><path id="path9" d="m406.54 613.85 11.13-15.75 7.14 24.16 10.08-16.81 6.51 20.17" class="cls-9"/></g><g id="eg-b-2" data-name="eg-b"><path id="path10" d="M525.23 474.79 565.35 617l-55.25 8.4-23.32-106.92 38.44-43.69Z" class="cls-12"/><path id="path11" d="m538.46 523.52-4.83 11.55-26.05-24.79" class="cls-9"/><path id="path12" d="m520.4 494.11-5.46 51.05-16.6-21.85m6.72 8.4-9.03 31.51m-3.57-11.55 18.28 27.73m-5.68 27.73 5.88-27.73 5.04-28.15 12.39 16.6 5.25-19.12 17.23 17.65-8.61 31.93-12.18-19.75-6.51 20.17-12.6-19.33" class="cls-9"/><path id="path13" d="m553.59 613.85-11.13-15.75-7.14 24.16-10.08-16.81-6.51 20.17" class="cls-9"/></g><g id="g20"><path id="path14" d="M480.07 680.65c42.01 0 81.93-3.36 105.45-9.87 9.87-1.89 9.87-6.93 9.87-13.65 10.08-3.36 5.04-15.12 11.97-15.12-7.14 2.1-8.4-11.55-16.81-9.87 0-11.76-11.97-13.23-21.85-9.87-19.96 6.51-55.25 8.19-88.65 8.19-33.61-1.68-68.48-1.68-88.65-8.4-9.87-3.15-21.64-1.68-21.64 10.08-8.4-1.68-9.87 11.76-16.81 9.87 6.93 0 1.68 11.97 11.76 15.12 0 6.72 0 11.76 10.08 13.65 23.11 6.51 63.44 9.87 105.24 9.87" style="stroke:#c09300;fill:#fff;stroke-linecap:round;stroke-linejoin:round;stroke-width:2.05px"/><path id="path15" d="M423.14 617c13.44 1.89 28.57 3.36 40.33 1.89 6.72 0 11.55 11.55-1.89 13.23-11.55 1.47-30.04 0-39.91-1.68-12.99-2.27-25.89-5.08-38.65-8.4-11.76-5.04-3.36-14.7 3.36-13.44 11.99 3.84 24.29 6.65 36.76 8.4m113.85 0c-13.44 1.89-28.57 3.36-39.91 1.89-7.14 0-11.97 11.55 1.47 13.23 11.76 1.47 30.04 0 39.91-1.68 8.4-1.68 26.89-4.83 38.65-8.4 11.76-5.04 3.36-14.7-3.36-13.44-11.99 3.84-24.29 6.65-36.76 8.4" class="cls-5"/><path id="path16" d="M381.34 610.49c-10.08-1.89-14.7 9.87-11.55 16.6 1.47-3.36 8.4-3.36 9.87-6.72 1.89-5.04-1.47-5.04 1.89-9.87h-.21Zm40.33 30.88c0-6.72 6.51-5.88 6.51-12.6 0-3.15-1.68-8.4-5.04-8.4-3.62.21-6.51 3.1-6.72 6.72-1.47 6.51 5.25 7.56 5.25 14.28m47.68-19.12c9.87 0 8.82 13.23 4.2 19.96 0-4.83-8.4-6.72-8.4-10.08 0-5.04 7.56-5.04 4.2-9.87m109.24-11.77c10.29-1.89 15.12 9.87 11.76 16.6-1.47-3.36-8.4-3.36-9.87-6.72-1.89-5.04 1.47-5.04-1.89-9.87m-39.71 30.66c0-6.72-6.72-5.88-6.72-12.6 0-3.15 1.68-8.4 5.04-8.4 3.62.21 6.51 3.1 6.72 6.72 1.47 6.51-5.25 7.56-5.25 14.28zm-48.31-18.91c-9.87 0-8.82 13.23-4.2 19.96 0-4.83 8.4-6.72 8.4-10.08 0-5.04-7.56-5.04-4.2-9.87" class="cls-5"/><path id="path17" d="M384.91 613.85c3.36 0 8.4 1.47 9.87 3.36zm16.59 5.04c1.68 0 8.4 1.47 11.55 3.36zm60.08 6.72c-3.15 0-9.87 0-11.55 1.47l11.55-1.68zm-18.28 0c-1.89-1.89-8.4-1.89-11.76 0zm131.93-11.76c-3.56.04-7.02 1.22-9.87 3.36zm-16.39 5.04c-2.1 0-8.4 1.47-11.76 3.36zm-60.29 6.72c3.15 0 9.87 0 11.76 1.47l-11.76-1.68zm18.28 0c1.89-1.89 8.4-1.89 11.76 0z" style="stroke:#c09300;fill:#fff;stroke-linecap:round;stroke-linejoin:round;stroke-width:.77px"/><g id="g19"><path id="path18" d="M381.97 640.32c-1.05-.21-1.68-1.26-1.26-2.1.21-1.47 1.26-2.1 2.1-1.68.84 0 1.89 1.26 1.89 1.68l-.84 1.47-.42.21c0 .42-.84.42-1.47.42m115.53 8.19c-.42 0-1.26-1.05-1.26-1.47 0-.84 1.26-2.1 2.1-2.1l1.68.84c.63.63.63 1.89-.21 2.52-.42.42-1.68.42-2.31 0zm.63 5.25c-.84-.42-1.05-.84-1.26-1.68 0-1.05 0-1.26 1.05-1.89l.84-.42.84.42c.84.42 1.47.84 1.47 1.68 0 .63-.63 1.26-1.47 1.68-.63.42-.84.42-1.47 0z" class="cls-15"/><path id="path19" d="M391.42 630.66c-.84 0-1.89.84-2.52 1.26-1.26.21-2.94 1.05-4.2 0-1.26-.21-2.94 0-3.15 1.68.21 1.47 2.1 2.1 3.36 1.26.84-1.05 3.15-1.89 3.57 0-1.05 1.68-.84 3.57-1.68 5.04 0 1.05-.63 1.89-1.05 2.73-1.05 0-2.1 0-2.94.63-1.32 0-2.57.62-3.36 1.68-.84 1.26-1.68 2.52-1.89 4.2.21 1.26 2.1 1.68 3.36 1.89l4.2 1.26 6.72 1.89c3.36 1.05 6.72 1.47 10.08 2.31l1.05.21c1.47.42 2.1-1.05 2.1-2.1l2.1-7.56c.42-1.05 1.05-3.15-.84-2.73-1.05.63-2.1 1.68-3.36 1.68-1.89 0-.84 2.1 0 2.73 0 1.26-.42 2.73-1.05 3.78-1.26.63-2.52 0-3.78-.42-1.05 0-3.57-.63-2.52-2.1l1.05-3.78c.63-1.26.63-2.73 1.05-4.2-.84-1.47-2.1.63-3.15.84-.84.42-3.36.63-2.1 2.1 1.26.84.42 2.31 0 3.57 0 1.47-1.68 2.1-2.94 1.47-1.26 0-3.15-1.05-2.1-2.31l1.05-3.78 1.47-4.2c0-1.47.63-2.52 1.26-3.78 0-1.47 1.05-2.73 1.05-4.2 0-.63-.42-.84-.84-.84zm-7.77 15.33c.19-.11.44-.11.63 0q.63.63 0 1.26l-.63.42c-1.05 0-1.26-.21-1.26-.63 0-.21 0-.42.63-.63.26-.18.54-.33.84-.42zm-2.1 10.5c-1.05-.84-.84-1.47.63-2.73.84-.42 1.05-.42 1.89.21 1.26 1.05 1.26 1.68 0 2.73-.42.42-.63.42-1.05.42-.63 0-.84 0-1.47-.42zm6.3 2.1c-.98-.3-1.53-1.33-1.26-2.31.42-.84.63-1.05 1.89-1.05 1.47 0 1.68.21 1.89 1.47 0 .84 0 1.05-.63 1.47-.47.38-1.09.53-1.68.42zm187.38 0c-.42-.21-.63-.42-.63-1.05 0-.84.42-1.47 1.68-1.89 1.26-.63 2.1-.63 2.52.42.63 1.26.63 1.68-.21 2.52-.42.63-.63.63-1.68.63s-1.26 0-1.68-.42zm-178.56 2.52c-.84 0-1.26-.84-1.26-1.68 0-.63 0-.84.42-1.26l1.26-.42 1.26.21q1.575 1.26.63 2.52c-.63.84-1.26.84-2.52.63zm45.79 2.11-.42-.63c0-1.26 0-2.31.42-3.57.21-1.05 0-2.1.42-3.15l.84-5.88c0-1.05 0-2.1.42-2.94.21-1.68 0-3.15.42-4.62 0-.63.63-2.1 1.26-1.26.84 1.26 1.89 2.1 2.94 3.15.84.63 0 1.47-.63 1.68-.84.21-1.05 1.26-1.05 2.1l-.42 2.52c0 1.47 0 2.73-.42 4.2l-.21 3.78-.42 2.52c0 .84 0 1.89-.84 2.31-.63.42-1.68.42-2.1-.21zm62.39-20.59-2.73 2.52c-1.26 1.05 1.05 1.47 1.26 2.31.42 1.26.42 2.52.42 3.78.42 1.26.63 2.31.42 3.57 0 1.47-1.68 1.05-2.52 1.89-1.05.42-1.47 1.47-2.1 2.1-.5 1.05-.79 2.2-.84 3.36 0 1.05-.63 2.1 0 2.94l.21.42h1.05l3.15-.21c2.52-.42 5.25-.42 7.77-.63l4.62-.42c1.26.21 1.89-1.05 1.89-2.1-.84-1.47-.21-2.94-.84-4.2-.42-1.68-.21-3.15-.42-4.62 0-1.26-1.47-1.68-2.1-.84-.84.84-2.1 1.05-2.52 1.89-.63 1.26 1.26 1.26 1.68 2.1l.21 3.15c.21 1.26-1.05 1.26-2.1 1.47-1.05.42-2.52.63-3.15-.63-.42-1.05-.42-2.1-.42-3.15 0-2.1-.63-3.78-.63-5.67 0-2.1-.63-4.41-.63-6.72 0-1.05-.21-2.52-1.68-2.31m-1.26 17.22h.63v1.68l-.63.21q-.42.135-.84.21-.21 0-.42 0c-.42-.42-.42-1.05.21-1.68zm-63.02-19.32c-.63 0-1.68 1.47-2.52 1.26-1.89.21-1.68 2.1-.21 2.73v1.68c.21 1.68-.84 3.15-.63 4.83 0 1.68-.63 3.57-.63 5.46-.63 1.89-.63 3.78-.84 5.67-.21 1.68-1.47 1.05-2.52.63v-2.1c.21-1.89-1.05-2.31-2.52-2.52-1.47 0-2.1-1.05-1.68-2.31.63-.84 2.1-.63 3.15-.63 2.1.42 1.89-2.31.84-3.36-.84-1.26-2.52-2.1-2.94-3.36 0-1.68-1.05-3.57-2.52-4.41-2.31-.21-4.2 1.68-4.83 3.78-1.05 0-2.1.42-2.94.84-1.47.42-3.57 2.94-1.47 3.99 1.05.21 4.62 1.05 2.94 2.52-.84 1.68-2.52 1.68-3.99 1.26-1.47 0-3.15-.84-3.15-2.52-.21-1.68-.21-3.36-.84-4.83-.42-1.68-2.31-1.26-2.52.42-1.47 1.05-1.26 2.94-.21 4.2.63 1.47 0 3.36-.63 4.62-.42 2.1-2.52 2.1-3.99 2.52-.63.42-3.36 0-2.31 1.47 1.58.73 3.34.95 5.04.63 1.68 0 3.15-1.47 4.2-2.94 1.05-1.05 2.94-.42 4.62-.42 1.47 0 3.15 1.05 4.83.21.42-1.05 2.52-3.15 3.15-1.05 0 1.89 1.47 2.73 3.15 2.52 1.89 0 1.05 1.26 1.05 2.52 0 1.89 1.47 2.94 3.15 3.78h1.68c1.47-.63 3.15-1.26 3.78-2.94.63-1.47.63-3.15 1.05-4.62.42-2.31.84-4.83.84-7.14.63-2.1.42-4.41.84-6.72l.63-4.83c0-1.05-.42-1.05-1.05-.84m-14.07 8.61c.21 0 .42.42.42 1.05 0 .84.42 1.47 1.05 1.68v.63l-1.68.42c-1.05 0-1.89-.42-2.52-1.05l-.42-.42.63-.42 1.05-1.05c.63-.63 1.05-.84 1.47-.84m138.64-16.59c-1.21.09-2.41.3-3.57.63-2.1 0-3.15 2.1-1.05 3.36 1.26 3.15 3.15-.84 5.25-.42 2.94.42 3.15 3.78 3.78 6.3 0 2.31.84 4.62 1.47 6.93 2.1 2.31-1.47 3.78-2.94 2.1-1.26-1.47-4.2-3.15-5.67-1.26-1.89.84-2.1 3.36-3.57 4.2-2.52.63-2.73-2.52-4.2-3.78-1.26-1.89-3.57-2.1-5.46-2.52-.84-1.89-.42-5.04-2.1-6.3-1.68.63-4.62 3.57-2.1 5.04 2.1 2.1-1.05 2.94-2.1 4.2-1.68 1.89-2.1 4.2-2.1 6.3-2.73 1.47-3.15-1.68-3.57-3.57 0-2.31-2.1-1.68-3.57-.84-2.1.84-2.94 2.73-4.2 4.2v4.2c.42 1.89 2.52 1.05 3.78.84 2.1-.84 2.94 1.47 1.26 2.73-1.26 1.26-4.62.63-4.2 2.94h3.36c2.1-.63 4.62-2.31 4.83-4.83.42-2.1 3.57-1.89 5.25-2.31 2.1-.63 4.83-.84 5.46 2.1 1.47 1.47 4.62 3.15 6.3 1.05 1.63-1.03 2.53-2.91 2.31-4.83-.21-1.68 2.73-1.68 3.57-.63 1.05 1.68 4.41 1.26 6.09 0 1.68-1.05 2.1-3.36 4.62-3.36l11.34-3.15c2.94-.63-.42-2.52-1.26-3.78-2.1-1.05-4.2 3.57-6.72 1.26-2.1-1.47-1.89-4.2-2.52-6.51-.63-2.94-.42-6.3-2.52-8.4-1.26-1.47-3.36-1.89-5.25-1.89m-14.28 19.95c.21 0 .63 0 1.05.42.84.42 1.47 1.26 1.47 2.1q0 .42-.63.63l-1.05.42c-.42 0-1.47-.63-1.47-1.05v-.84q-.42-.84 0-1.26zm13.65.84c.84 0 1.26 0 1.68.63.21.84 0 1.26-.84 1.68l-1.05.42-.84-.63c-.42-.21-.63-.42-.63-.84 0-.63.84-1.26 1.68-1.47zm-18.9 0c.42 0 .63 0 .84.42.42.42.63.63.63 1.26v1.26c0 .63 0 .42-1.26.42s-1.47 0-1.47-1.26c0-.84 0-1.05.63-1.47.21-.42.63-.42.84-.42zm-11.35 3.15c.4.12.72.44.84.84 0 .63 0 1.05-.42 1.26-.63.21-1.68.42-2.1 0q0-.105 0-.21-.63-.315 0-.63v-.21l.42-.63c.27-.42.79-.6 1.26-.42m19.33 2.52 1.05.21v1.26h-2.52l-.21-.42c0-.42 0-.63.42-.84zm-35.92 10.09c-.21 0-.63-.21-.21-.42.21-.63 1.05-.84 1.68-1.26 1.14-.44 2.16-1.16 2.94-2.1 0-.84.84-1.26.84-2.1l-.21-2.94c-.28-.88-.88-1.63-1.68-2.1-.63-.21-1.47-.42-1.68-1.26 0-.63.63-1.26.84-1.89l1.26-2.52c.63-.63 1.47 0 1.68.42l1.05 2.1c.63.63 1.05 1.26 1.26 2.1.42.84.84 1.47.84 2.1l.42 2.73c0 1.05 0 2.31-.42 3.36l-1.26 1.68c-.63.63-1.26 1.26-2.1 1.47-.63.21-1.05.84-1.89.84h-3.15zm-14.5.84c-.42-.42-.63-.63-.63-1.26s0-.63.63-1.26c.84-.84 1.26-.84 2.94 0 1.47.84 2.1.84 2.1.21.21-.42 1.05-1.05 2.1-1.05.39.01.76.16 1.05.42.42.42.63.63.63 1.47q0 1.05-.63 1.68-.63.42-1.47.42c-.76-.04-1.43-.54-1.68-1.26 0-.42 0-.63-.42-.21l-.42.21c-.42 0-1.26.63-1.68 1.05l-1.05.21q-.84 0-1.47-.63m-41.59-18.7c-1.47 0-2.94 1.26-3.15 2.73.42 1.47 1.68 3.15.84 4.62.63 2.1-1.68 2.94-3.15 1.89-.84-2.1-1.26-4.2-2.73-6.3-1.68-.42-2.31 2.31-3.57 3.36.63 1.47 2.31 2.94 2.52 4.83.42 2.1-.84 4.2-2.31 5.04-1.47 1.47-3.57 1.05-5.25 1.26-2.1 1.26 1.47 1.68 2.52 1.68 2.1.21 4.41 0 6.3-1.68 1.47-.63 1.26-3.57 3.15-3.78l10.08.63c1.68.42 4.41-.21 5.67 1.05 0 2.1 2.1 3.78 3.99 4.62 1.05.42 2.1-1.05 3.15-1.26 2.1-.63 1.47-3.15 2.73-4.2h10.5c.42 0 .63-1.05 1.26-1.47l-.42-3.99c-.63-1.68 0-3.78-1.05-5.25-1.89-.42-3.36 1.05-5.04 1.26-2.1.84-3.57 2.73-3.78 4.83-1.05 1.89-2.94-.42-2.1-2.1l-.21-2.1c-1.05-1.05-2.94-.63-4.41-.84l-6.3-.42c-2.1 0-3.99.21-5.67-.21-2.1 0-2.1-2.1-2.1-3.78-.42-.32-.94-.47-1.47-.42m4.2 7.77 2.1.21h2.73c2.1.42 4.2.42 6.3.42.42 0 .84.42 1.26.84v4.2c0 .63 0 1.47-.42 1.68q-.165.255-.42.42c-.62-.11-1.16-.5-1.47-1.05v-2.94c-.42-.35-.93-.57-1.47-.63l-5.46-.21-4.2-.21c-.63-.21-1.47 0-1.89-.84-.42-.42.21-1.26.84-1.47.66-.3 1.38-.44 2.1-.42m23.74.63c.21 0 .42 0 .42.63l.42 1.05c0 .21 0 .42-.42.42-1.05.42-2.1.42-2.52 0 0-.21 0-1.05.42-1.26z" class="cls-15"/></g></g><path id="path20" d="M480.07 540.75c68.48-52.52 62.6-129.82 62.6-129.82l-5.25.42c-14.49 0-48.74-8.4-56.72-18.7-8.4 9.45-43.69 18.91-57.98 18.91l-5.25-.63s-6.09 77.09 62.6 129.82Z" style="stroke:#c09300;stroke-miterlimit:3.41;fill:#fff;stroke-width:.94px"/><path id="path21" d="M537.2 416.39h-1.68c-13.02 0-43.27-6.51-55.04-16.6-12.18 9.24-43.06 16.81-55.88 16.81q-.855-.03-1.68-.21c.11 13.28 1.95 26.48 5.46 39.28 8.43 30.85 26.54 58.17 51.68 77.93 25.15-19.84 43.26-47.23 51.68-78.14 3.49-12.73 5.33-25.87 5.46-39.07Z" style="stroke:#c09300;stroke-miterlimit:3.41;fill:#fff;stroke-width:.77px"/><path id="path22" d="M457.8 410.09c-11.28 3.67-23.01 5.79-34.87 6.3l.21 8.61c.72 10.3 2.48 20.51 5.25 30.46 5.65 20.66 15.68 39.86 29.41 56.3zm43.27 0v103.35c14.39-16.81 24.87-36.62 30.67-57.98 2.77-9.95 4.53-20.16 5.25-30.46l.21-8.4h-1.68c-7.98 0-21.85-2.52-34.45-6.72z" class="cls-15"/><g id="g26"><path id="path23" d="M505.9 384.88c1.47.21-1.89-7.35-1.89-7.35 3.78 3.78 17.65 4.83 17.65 4.83-8.4-3.78-16.81-31.72-15.75-54.2.84-22.27-3.15-31.09-6.3-34.45-4.2-4.2-17.86-7.98-26.68-8.4-5.25-.21-4.2 3.78-4.2 3.78-9.45-2.31-18.91-3.36-23.11-.42-3.78 2.52-4.62 15.75-1.68 13.44 6.93-5.67 13.02-.42 17.23 5.67 3.78 5.25 3.57 20.38-1.89 38.23-4.84 13.5-11.94 26.07-21.01 37.18 8.4 0 20.17-7.35 20.17-7.35l-2.73 11.55c8.82-4.2 15.75-10.71 15.75-10.71l8.4 8.82c2.73-3.78 8.4-8.82 8.4-8.82s6.93 7.35 17.65 8.4v-.21Z" style="stroke:#c09300;stroke-miterlimit:3.41;fill:#fff;stroke-width:1.02px"/><path id="path24" d="M471.87 331.52s-4.62 34.45-13.44 44.11m21.01-45.16s-2.1 35.08-7.98 46.21m14.49-44.74s0 38.23 2.1 44.74m6.3-42.85s1.68 32.14 9.66 43.69" style="stroke:#c09300;stroke-miterlimit:3.41;stroke-width:1.11px;fill:none"/><path id="path25" d="M463.26 314.72c-.19-2.44-.9-4.8-2.1-6.93-4.2-6.3-10.29-11.34-17.23-5.67 0 0 2.31-7.35 7.56-7.56 3.78-.21 12.81 2.94 20.8 16.39 0 0-5.88-1.26-7.35 0-2.52 2.1-1.47 3.78-1.47 3.78h-.21Z" class="cls-7"/><path id="path26" d="M443.09 293.08c.63-2.1 1.47-3.78 2.73-4.41 4.2-2.94 13.44-2.1 22.9.42 0 0-.84-3.99 4.2-3.78 8.82.42 22.27 4.2 26.47 8.4 1.35 1.48 2.41 3.19 3.15 5.04-2.1-2.94-7.98-2.73-9.45-2.52-2.1.21-3.57 0-6.51.84-1.47.42-3.57.84-4.83 1.68-.84.84-1.68 3.36-2.94 3.36-2.1 0-2.1-.42-2.73-1.05-.63-1.05-1.05-2.31-1.89-2.1-2.1.21-5.88-1.47-10.5-5.25-4.83-3.78-6.72-4.62-12.6-4.2-6.3.42-7.98 3.99-7.98 3.99v-.42Z" class="cls-7"/><circle id="circle26" cx="477.55" cy="296.02" r="2.52" class="cls-13"/></g></g></svg>