<?xml version="1.0" encoding="UTF-8" standalone="no"?>
<!-- Created with Inkscape (http://www.inkscape.org/) -->

<svg
   width="135.60199mm"
   height="135.04439mm"
   viewBox="0 0 135.60199 135.04439"
   version="1.1"
   id="svg1"
   xml:space="preserve"
   xmlns="http://www.w3.org/2000/svg"
   xmlns:svg="http://www.w3.org/2000/svg"><defs
     id="defs1"><clipPath
       clipPathUnits="userSpaceOnUse"
       id="clipPath2"><path
         d="M 0,841.89 H 595.28 V 0 H 0 Z"
         transform="translate(-456.61331,-370.91601)"
         id="path2" /></clipPath><clipPath
       clipPathUnits="userSpaceOnUse"
       id="clipPath4"><path
         d="M 0,841.89 H 595.28 V 0 H 0 Z"
         transform="translate(-475.94921,-337.46881)"
         id="path4" /></clipPath><clipPath
       clipPathUnits="userSpaceOnUse"
       id="clipPath6"><path
         d="M 0,841.89 H 595.28 V 0 H 0 Z"
         transform="translate(-526.31842,-324.05471)"
         id="path6" /></clipPath><clipPath
       clipPathUnits="userSpaceOnUse"
       id="clipPath8"><path
         d="M 0,841.89 H 595.28 V 0 H 0 Z"
         transform="translate(-472.97071,-321.32231)"
         id="path8" /></clipPath><clipPath
       clipPathUnits="userSpaceOnUse"
       id="clipPath10"><path
         d="M 0,841.89 H 595.28 V 0 H 0 Z"
         transform="translate(-394.39061,-301.70511)"
         id="path10" /></clipPath><clipPath
       clipPathUnits="userSpaceOnUse"
       id="clipPath12"><path
         d="M 0,841.89 H 595.28 V 0 H 0 Z"
         transform="translate(-499.32811,-285.1348)"
         id="path12" /></clipPath><clipPath
       clipPathUnits="userSpaceOnUse"
       id="clipPath14"><path
         d="M 0,841.89 H 595.28 V 0 H 0 Z"
         transform="translate(-433.80661,-277.627)"
         id="path14" /></clipPath></defs><g
     id="layer1"
     transform="translate(-37.199014,-71.321908)"><ellipse
       style="opacity:0.948097;fill:#ffffff;fill-rule:evenodd;stroke:#000000;stroke-width:0.048032;paint-order:markers stroke fill"
       id="path19"
       cx="105"
       cy="138.8441"
       rx="67.77697"
       ry="67.498177" /><g
       id="g1"
       transform="matrix(2.649668,0,0,2.6052421,109.727,-136.09471)"><path
         id="path1"
         d="m 0,0 c -15.363,0 -29.791,-3.229 -42.627,-10.093 7.52,-3.746 17.647,-6.803 26.272,-8.618 0.335,0.33 0.63,0.644 0.908,0.996 -0.17,0.787 -0.535,2.027 -0.649,2.69 1.772,1.212 7.34,3.461 7.34,3.461 l -0.726,6.779 2.921,1.045 2.756,-6.721 c 19.041,1.624 21.024,-6.722 22.135,-9.168 9.44,1.393 19.027,4.393 26.26,8.416 C 34.264,-5.145 18.424,0 0,0"
         style="fill:#374785;fill-opacity:1;fill-rule:evenodd;stroke:none"
         transform="matrix(0.35277776,0,0,-0.35277776,-1.8574076,89.048989)"
         clip-path="url(#clipPath2)" /><path
         id="path3"
         d="M 0,0 C 20.076,1.092 36.414,5.196 42.623,7.363 38.854,12.527 32.871,17.543 27.994,20.574 24.508,18.666 15.066,14.264 -0.309,11.923 1.16,8.209 0,0 0,0 m -79.734,9.046 c 5.004,-1.592 15.097,-4.485 32.218,-7.083 1.455,2.213 8.332,8.916 9.995,10.859 -13.422,2.569 -23.78,7.065 -27.526,8.762 -4.93,-2.932 -10.539,-7.39 -14.687,-12.538"
         style="fill:#374785;fill-opacity:1;fill-rule:evenodd;stroke:none"
         transform="matrix(0.35277776,0,0,-0.35277776,4.9638681,100.84842)"
         clip-path="url(#clipPath4)" /><path
         id="path5"
         d="M 0,0 C -0.076,5.772 -2.104,12.21 -5.781,17.946 -9.559,16.877 -25.084,12.069 -50.93,10.657 -51.533,7.074 -52.807,3.096 -53.076,0 -50.766,0.01 -4.1,0 0,0 m -138.994,0 h 51.627 c 3.693,6.396 12.049,10.502 12.049,10.502 0,0 -5.545,0.33 -8.807,0.484 -2.506,-2.011 -7.801,-7.17 -13.281,1.715 -11.643,1.431 -25.678,4.631 -34.44,7.475 -5.316,-7.373 -6.957,-14.53 -7.148,-20.176"
         style="fill:#374785;fill-opacity:1;fill-rule:evenodd;stroke:none"
         transform="matrix(0.35277776,0,0,-0.35277776,22.733004,105.58062)"
         clip-path="url(#clipPath6)" /><path
         id="path7"
         d="M 0,0 C 1.914,0.006 51.719,0.006 53.33,0 52.973,-7.867 49.813,-14.146 47.246,-18 44.012,-17.072 27.773,-11.811 2.732,-9.542 1.547,-7.981 -0.406,-4.268 0,0 M -85.629,0.012 C -83.438,0.038 -35.639,0 -35.639,0 c -1.107,-2.141 -2.041,-6.875 -1.818,-9.374 -27.051,-2.372 -38.912,-6.696 -42.703,-7.856 -2.781,4.553 -5.129,10.111 -5.469,17.242"
         style="fill:#374785;fill-opacity:1;fill-rule:evenodd;stroke:none"
         transform="matrix(0.35277776,0,0,-0.35277776,3.9131204,106.54455)"
         clip-path="url(#clipPath8)" /><path
         id="path9"
         d="m 0,0 c 2.734,1.031 17.928,5.988 41.369,7.703 0.168,-2.553 1.006,-5.492 1.006,-5.492 0,0 38.258,0.021 39.521,0.006 1.973,2.166 0.94,5.125 0.94,5.125 18.9,-1.483 37.887,-6.937 41.285,-8.136 -3.748,-5.018 -9.676,-10.259 -15.975,-13.956 -5.246,2.019 -18.992,8.219 -37.341,9.701 1.992,2.817 9.314,3.473 11.101,3.736 l 0.01,2.668 -39.551,0.01 0.01,-2.689 c 0,0 8.496,-0.102 10.547,-3.531 C 30.1,-6.764 18.264,-14.18 16.859,-15.096 10.35,-11.253 4.135,-5.94 0,0"
         style="fill:#374785;fill-opacity:1;fill-rule:evenodd;stroke:none"
         transform="matrix(0.35277776,0,0,-0.35277776,-23.808193,113.46506)"
         clip-path="url(#clipPath10)" /><path
         id="path11"
         d="M 0,0 C -5.926,-3.233 -13.652,-6.066 -20.838,-7.671 V 3.557 c -2.541,-0.03 -3.346,-0.087 -4.928,-0.082 -3.492,0.013 -5.607,0.339 -7.341,1.58 -1.868,1.335 -2.028,3.352 -1.809,4.303 C -15.008,7.541 0,0 0,0"
         style="fill:#374785;fill-opacity:1;fill-rule:evenodd;stroke:none"
         transform="matrix(0.35277776,0,0,-0.35277776,13.211425,119.31069)"
         clip-path="url(#clipPath12)" /><path
         id="path13"
         d="m 0,0 c -7.479,1.75 -14.445,4.467 -19.98,7.517 5.976,4.073 18.111,8.633 34.511,9.669 0.184,-0.622 0.354,-3.393 -1.763,-4.768 C 9.904,10.563 0,11.152 0,11.152 Z"
         style="fill:#374785;fill-opacity:1;fill-rule:evenodd;stroke:none"
         transform="matrix(0.35277776,0,0,-0.35277776,-9.9031036,121.95928)"
         clip-path="url(#clipPath14)" /></g></g></svg>
