<?xml version="1.0" encoding="UTF-8" standalone="no"?>
<svg
   id="Layer_1"
   data-name="Layer 1"
   viewBox="0 0 960 960"
   version="1.1"
   sodipodi:docname="gq.svg"
   inkscape:version="1.4 (86a8ad7, 2024-10-11)"
   xmlns:inkscape="http://www.inkscape.org/namespaces/inkscape"
   xmlns:sodipodi="http://sodipodi.sourceforge.net/DTD/sodipodi-0.dtd"
   xmlns="http://www.w3.org/2000/svg"
   xmlns:svg="http://www.w3.org/2000/svg">
  <sodipodi:namedview
     id="namedview17"
     pagecolor="#ffffff"
     bordercolor="#666666"
     borderopacity="1.0"
     inkscape:showpageshadow="2"
     inkscape:pageopacity="0.0"
     inkscape:pagecheckerboard="0"
     inkscape:deskcolor="#d1d1d1"
     inkscape:zoom="0.60030419"
     inkscape:cx="711.30604"
     inkscape:cy="530.56434"
     inkscape:window-width="1920"
     inkscape:window-height="1017"
     inkscape:window-x="-8"
     inkscape:window-y="-8"
     inkscape:window-maximized="1"
     inkscape:current-layer="Layer_1" />
  <defs
     id="defs1">
    <style
       id="style1">
      .cls-1 {
        fill: #3e9a00;
      }

      .cls-1, .cls-2, .cls-3, .cls-4, .cls-5, .cls-6 {
        stroke-width: 0px;
      }

      .cls-7 {
        fill: none;
      }

      .cls-7, .cls-8, .cls-9, .cls-10, .cls-11, .cls-12, .cls-13 {
        stroke: #000;
      }

      .cls-7, .cls-8, .cls-9, .cls-11 {
        stroke-width: .2px;
      }

      .cls-2 {
        fill: #e32118;
      }

      .cls-8 {
        fill: #009a3b;
      }

      .cls-4, .cls-10, .cls-12 {
        fill: #fff;
      }

      .cls-9 {
        fill: #a36629;
      }

      .cls-5 {
        fill: #eee;
      }

      .cls-10, .cls-13 {
        stroke-width: .8px;
      }

      .cls-6 {
        fill: #0073ce;
      }

      .cls-11 {
        fill: #73452b;
      }

      .cls-14 {
        mask: url(#mask);
      }

      .cls-13 {
        fill: gold;
      }
    </style>
    <mask
       id="mask"
       x=".11"
       y=".09"
       width="959.91"
       height="959.91"
       maskUnits="userSpaceOnUse">
      <g
         id="a">
        <circle
           class="cls-4"
           cx="480.07"
           cy="480.04"
           r="479.96"
           id="circle1" />
      </g>
    </mask>
  </defs>
  <g
     class="cls-14"
     mask="url(#mask)"
     id="g5">
    <g
       id="g4">
      <path
         class="cls-5"
         d="M77.54,228.63l882.48,84.55v333.72l-877.79,86.8-4.69-505.08Z"
         id="path1" />
      <path
         class="cls-1"
         d="M.11.09h959.91v313.1H208.22L.11.09Z"
         id="path2" />
      <path
         class="cls-2"
         d="M208.22,646.9h751.81v313.1H.11l208.11-313.1Z"
         id="path3" />
      <path
         class="cls-6"
         d="M.11.09v959.91l479.96-479.96L.11.09Z"
         id="path4" />
    </g>
  </g>
  <g
     id="g17">
    <path
       class="cls-12"
       d="M549.27,388.65h153.17v160.49c0,54-70.31,12.37-76.31,41.25-10.5-29.62-76.49,13.12-76.49-44.43l-.37-157.3Z"
       id="path5" />
    <path
       class="cls-11"
       d="M636.83,564.69s-1.87,2.06-5.62.56c-3.56-1.69-3.94-102.93-3.94-102.93,8.06-8.81,14.44-11.44,14.44-11.44l4.69,3.75c-18,9.37-16.31,22.5-14.81,45.37.56,8.44.56,19.12,2.44,29.62,2.81,13.12,8.44,24.37,8.81,32.81.37,5.25-6,2.44-6,2.44v-.19Z"
       id="path6" />
    <path
       class="cls-11"
       d="M624.45,448.45h7.31c-6.19,58.12-.94,92.43-.94,109.12,0,5.62,3.19,7.5,2.81,7.5-7.12,8.06-10.87-.37-10.87-.37l1.69-116.24Z"
       id="path7" />
    <path
       class="cls-9"
       d="M613.2,564.69c-6.75,3.37-7.5-3-7.12-3.75,14.81-30,21.19-96.18,7.5-103.3l.94-6.37c5.06,1.5,9.94,8.25,9.94,8.25,1.87,74.06,0,104.43-1.12,105.74-7.31,7.5-10.12-1.31-10.5-2.06"
       id="path8" />
    <path
       class="cls-7"
       d="M613.02,563.57c-1.31-6.37,10.31-22.87,9.37-39.93M632.51,537.69c3.56,9.94,5.25,18.75,4.31,27.19"
       id="path9" />
    <path
       class="cls-8"
       d="M648.08,421.27q2.44-2.81,6.75-2.81c.75-6,10.87-6,11.62,1.5,8.06-1.5,9.56,3.19,6.37,8.06,7.5-1.87,14.44,0,12.37,8.81,13.69,3.75,8.44,13.12,2.44,15-.75,6.19-6.37,8.25-14.06,5.62-9.37,6.94-15,4.5-19.5-2.25-10.87,1.5-11.62-.75-16.31-6.75-8.44,3.56-10.12,3.56-17.25-.94-.37,5.62-2.44,4.12-6,3.75.37,7.12-2.44,10.31-8.81,7.87,4.69,10.12-7.5,14.44-13.69,6-5.62.37-6-1.12-8.81-3.19-2.25,8.06-11.25,6.94-12.75,2.44-11.25-1.69-9.94-7.5-.75-8.06.75-6.37,6.37-5.06,9.94-4.31.37-3.94,2.81-3.19,4.87-2.44-1.31-2.81-.37-4.31,3.19-5.25-5.25-6.75-1.87-9.19,3.19-11.62-2.81-6.37,1.87-6,5.62-6.37-.37-6.75,1.5-7.87,8.81-8.81-.94-2.25.37-4.31,4.31-4.31-2.44-6.75.75-8.44,8.06-7.12,1.12-9.94,22.5-5.25,20.62,8.25,6.19.94,8.06,2.06,9.75,6.94h0Z"
       id="path10" />
    <path
       class="cls-7"
       d="M605.33,417.71c1.5.75,3.56,0,3.94,4.31,3.19-5.62,7.12-2.44,7.12,3.94M638.51,414.33c-1.69,2.44-7.5,2.44-6.94,8.81-1.87-2.81-5.81-3.56-7.5-.75M648.08,421.27c0,1.5-.37,6.37-1.87,8.81M672.82,428.02c.37.37-5.62,0-8.44,1.87M687.63,452.02c-1.5-.75-4.87-2.81-7.12.37,0-1.69,0-6-4.5-6M673.76,457.64c0-4.12-.94-5.25-1.87-6.37M660.64,452.02c-3.37-2.44-6.56,1.12-6.56,3.19M637.2,448.45c0-1.69-1.12-4.87,1.69-6M591.64,465.14c.75-3.94,3.75-3.94,3.19-6-.37-3.19-3.94-6-8.44-1.5M594.83,459.14c2.44-.75,4.87-.37,5.62.94M588.08,444.33c1.69-1.5,5.62-1.12,8.06,0M596.14,434.95c1.87,0,5.62-.94,6.75,2.62,4.31-6.75,7.5-6,8.44-4.31M619.2,432.33c3.19-1.12,8.81,2.06,12,7.5,1.69-4.12,4.12-3.37,6.56-3.75M652.76,439.83c5.25-2.25,8.44,2.62,10.12,4.5,2.44-3.19,4.31-3.19,6.75-3.19M604.39,449.58c1.31-1.87,4.12-2.44,6-1.12-.37-3.75,2.06-5.25,3.75-4.5"
       id="path11" />
    <path
       class="cls-13"
       d="M620.89,366.34l-8.81.37-4.31,7.87-4.87-7.5-8.81.37,3.94-8.06-4.69-7.5,9.19-.37,3.94-7.87,4.87,7.5,8.81-.37-4.12,7.87,4.87,7.69ZM583.39,369.15l-9,2.25-2.25,8.44-6.37-6.37-8.44,2.06,2.25-8.44-5.81-6.56,8.25-2.06,2.44-8.62,6.37,6.37,8.81-1.87-2.81,8.44,6.56,6.37ZM546.84,376.65l-7.87,3.94-.56,9-7.5-4.87-8.06,3.75.75-8.81-7.5-4.87,8.06-4.12.75-8.81,7.12,4.87,8.06-3.75-.37,8.81,7.12,4.87ZM632.51,366.34l8.81.37,3.94,7.87,4.87-7.5,8.81.37-4.12-8.06,4.87-7.5-8.81-.37-4.5-7.87-4.69,7.5-8.81-.37,3.94,7.87-4.31,7.69ZM670.01,369.15l8.44,2.25,2.44,8.44,6.37-6.37,8.44,2.06-2.44-8.44,6.37-6.56-8.81-2.06-2.44-8.62-6.37,6.37-8.25-1.87,2.25,8.44-6,6.37ZM706.01,376.65l8.06,3.94.37,9,7.5-4.87,8.06,3.75-.37-8.81,7.12-4.87-7.87-4.12-.37-8.81-7.5,4.87-8.25-3.75.94,8.81-7.69,4.87Z"
       id="path12" />
    <g
       id="g16">
      <path
         class="cls-10"
         d="M716.88,545.94l9.94,14.44,9.37-13.69-6.56-11.44-12.75,10.69ZM653.14,587.94l.94,14.44s3.94,0,7.5-1.12c3.37-1.31,6.19-3.75,6.19-3.75l-.56-7.5-14.06-2.06ZM599.71,587.94l-.94,14.06s-3.56,0-7.12-.75c-2.14-.61-4.16-1.56-6-2.81l-3.94-9.75,18-.75ZM535.21,545.94l-10.31,14.44-11.25-18.37,8.44-8.81,13.12,12.75Z"
         id="path13" />
      <path
         class="cls-10"
         d="M585.27,616.81c0,13.5,82.49,13.5,82.49,0v-19.12c0,9.94-82.49,7.87-82.49,0v19.12Z"
         id="path14" />
      <path
         class="cls-10"
         d="M511.78,572.38c7.12,36.75,73.49,37.5,73.49,37.5v-12.19c-1.5-4.87,1.12-6.56,12-8.06,4.5-.37,2.44-6.75,2.44-6.75,0,0-28.87,5.06-49.31-2.81-27.56-11.25-31.5-32.81-31.5-32.81,0,0-1.87,16.87-7.31,25.12h.19ZM740.88,572.38c-6.75,36.75-73.12,37.5-73.12,37.5v-12.19c1.12-4.87-1.87-6.56-12.56-8.06-4.31-.37-1.87-6.75-1.87-6.75,0,0,28.68,5.06,49.12-2.81,27.19-11.25,30.37-32.81,30.37-32.81,0,0,2.81,16.87,8.06,25.12Z"
         id="path15" />
      <path
         class="cls-10"
         d="M516.84,558.32c-18.37-9.94-3.94-20.25-2.44-49.87,2.81,18,23.25,25.5,20.81,37.12-8.44.37-12.37-12.37-16.31,1.69l-2.06,11.06ZM735.63,558.32c18.37-10.31,3.19-20.25,1.69-49.87-2.81,18-22.87,25.5-20.62,37.12,8.25.37,12.19-12.37,16.12,1.69l2.81,10.69v.37Z"
         id="path16" />
    </g>
    <path
       class="cls-3"
       d="M528.09,572l1.87,1.5-4.31,4.87c-1.87,1.87-2.25,3.19-.94,4.31,1.5,1.5,2.62.94,4.12-.75l4.87-5.06,1.5,1.5-4.69,5.62c-2.62,3-5.06,2.25-7.12.37-1.87-1.5-2.81-3.94,0-6.94l4.69-5.44ZM536.15,578.75l1.87,1.31-.37,9.37,4.5-6.75,1.87,1.31-6.37,10.31-2.44-1.12.37-9.56-4.31,6.75-1.87-1.12,6.75-10.5ZM539.71,595.63l5.62-11.25,1.87,1.12-5.06,10.87-2.44-.75ZM548.52,586.07l-4.5,11.44,4.5,1.69c4.12,1.5,6-.37,7.31-3.75,1.31-3.75.75-6.19-3.37-7.87l-3.94-1.5ZM550.02,588.88c4.12,1.31,4.5,3,3.37,5.62-1.12,2.81-2.25,3.75-6.19,1.87l2.81-7.5ZM561.65,590.38l-7.12,10.87,2.81.75,1.5-2.81,4.87,1.12.37,2.81,2.81.37-2.81-12.75-2.44-.37ZM562.4,593.19l.94,4.87-3.19-.37,2.25-4.5ZM568.58,591.31l-.56,12.56h4.69c4.5,0,5.62-2.25,5.81-6,0-3.75-1.31-6-5.62-6.19l-4.31-.37ZM570.83,593.56c4.5,0,5.25,1.5,5.06,4.5,0,3-.75,4.31-5.25,3.75l.19-8.25ZM610.39,608.75v12.75h2.81v-4.69s2.44,0,4.5-.37c1.5-.37,2.62-1.5,2.62-3.94s-1.31-3.75-3.75-3.75h-6.19ZM613.2,610.63l2.81.19c2.44,0,1.87,3.56,0,3.56h-2.81v-3.75ZM624.83,608.75l-5.25,12.75h2.81l1.31-3.19h5.25l1.12,3.19h2.81l-5.25-12.75h-2.81ZM626.14,611.56l1.87,4.87h-3.56l1.69-4.87ZM632.89,619.06l6.75-8.25h-6v-1.87h9.56v1.87l-7.12,8.44h7.12v2.44h-10.31v-2.62ZM673.2,594.31l2.44-.37,1.12,7.31c.56,2.44-.75,4.31-2.44,4.87-2.06.75-4.69,0-5.06-3.37l1.87-.37c.56,2.06,1.5,2.25,2.44,1.87.75-.19,1.12-1.5.94-2.62l-1.31-7.31ZM677.32,593.75l2.25-.56,1.12,6c.56,2.62,1.31,3.75,3,3.37,1.87-.37,2.25-1.5,1.87-3.75l-1.5-6.37,2.44-.37,1.5,6.56c.94,3.75-.94,5.62-3.75,6-2.44.37-4.87-.19-5.62-3.94l-1.31-6.94ZM689.7,599.19l1.87-.75c1.12,1.87,2.62,1.69,3.75,1.12,1.69-.75,1.87-2.25,1.12-2.62-1.31-.75-3.94.19-5.62-.37-1.69-.56-2.44-1.69-2.44-3.19.19-1.87,1.87-2.81,3.75-3.37s3.75-.37,5.06,1.87l-2.25.94c-.94-1.31-1.87-1.31-2.81-.94-.75.37-1.87,1.12-1.31,2.25.56.75,3.56.19,5.06.19,1.69,0,3,1.31,3.19,2.81.19,2.06-.56,3.19-3,4.31-3.19,1.12-5.81-.19-6.37-2.25M700.38,589.25l-3.19,1.5-.75-1.87,8.81-3.75.75,1.69-3.19,1.5,3.75,8.81-2.06,1.31-4.12-9.19ZM705.63,584.75l1.87-1.12,5.62,10.31-1.87,1.31-5.62-10.5ZM719.32,585.5l2.25-.75c.93,2.53-.36,5.33-2.88,6.26-.58.21-1.19.31-1.8.3-6,0-6.75-6.75-5.62-9,1.5-3.75,6-3.56,8.06-1.5l-2.06,1.5c-1.31-1.5-4.12-.56-4.31.94-.35,2.38.86,4.71,3,5.81,1.87.94,4.69-1.31,3.37-3.56M718.01,577.25l1.87-1.69,7.5,9.56-2.06,1.69-7.31-9.56ZM725.51,571.25l-1.87,1.5,4.5,12,1.87-1.87-1.12-2.44,3.56-3.19,2.44,1.12,1.87-1.5-11.25-5.62ZM726.44,574.07l3.94,1.87-2.25,2.44-1.69-4.31Z"
       id="path17" />
  </g>
</svg>
