<svg xmlns="http://www.w3.org/2000/svg" id="Layer_1" data-name="Layer 1" viewBox="0 0 960 960"><defs id="defs1"><style id="style1">.cls-7{fill:none}.cls-10,.cls-11,.cls-7{stroke:#000}.cls-11,.cls-7{stroke-width:.2px}.cls-10{fill:#fff;stroke-width:.8px}.cls-11{fill:#73452b}</style><mask id="mask" width="959.91" height="959.91" x=".11" y=".09" maskUnits="userSpaceOnUse"><g id="a"><circle id="circle1" cx="480.07" cy="480.04" r="479.96" style="stroke-width:0;fill:#fff"/></g></mask></defs><g id="g5" style="mask:url(#mask)"><g id="g4"><path id="path1" d="m77.54 228.63 882.48 84.55V646.9L82.23 733.7l-4.69-505.08Z" style="stroke-width:0;fill:#eee"/><path id="path2" d="M.11.09h959.91v313.1h-751.8z" style="fill:#3e9a00;stroke-width:0"/><path id="path3" d="M208.22 646.9h751.81V960H.11z" style="stroke-width:0;fill:#e32118"/><path id="path4" d="M.11.09V960l479.96-479.96z" style="stroke-width:0;fill:#0073ce"/></g></g><g id="g17"><path id="path5" d="M549.27 388.65h153.17v160.49c0 54-70.31 12.37-76.31 41.25-10.5-29.62-76.49 13.12-76.49-44.43l-.37-157.3Z" style="stroke:#000;fill:#fff"/><path id="path6" d="M636.83 564.69s-1.87 2.06-5.62.56c-3.56-1.69-3.94-102.93-3.94-102.93 8.06-8.81 14.44-11.44 14.44-11.44l4.69 3.75c-18 9.37-16.31 22.5-14.81 45.37.56 8.44.56 19.12 2.44 29.62 2.81 13.12 8.44 24.37 8.81 32.81.37 5.25-6 2.44-6 2.44v-.19Z" class="cls-11"/><path id="path7" d="M624.45 448.45h7.31c-6.19 58.12-.94 92.43-.94 109.12 0 5.62 3.19 7.5 2.81 7.5-7.12 8.06-10.87-.37-10.87-.37l1.69-116.24Z" class="cls-11"/><path id="path8" d="M613.2 564.69c-6.75 3.37-7.5-3-7.12-3.75 14.81-30 21.19-96.18 7.5-103.3l.94-6.37c5.06 1.5 9.94 8.25 9.94 8.25 1.87 74.06 0 104.43-1.12 105.74-7.31 7.5-10.12-1.31-10.5-2.06" style="stroke:#000;stroke-width:.2px;fill:#a36629"/><path id="path9" d="M613.02 563.57c-1.31-6.37 10.31-22.87 9.37-39.93m10.12 14.05c3.56 9.94 5.25 18.75 4.31 27.19" class="cls-7"/><path id="path10" d="M648.08 421.27q2.44-2.81 6.75-2.81c.75-6 10.87-6 11.62 1.5 8.06-1.5 9.56 3.19 6.37 8.06 7.5-1.87 14.44 0 12.37 8.81 13.69 3.75 8.44 13.12 2.44 15-.75 6.19-6.37 8.25-14.06 5.62-9.37 6.94-15 4.5-19.5-2.25-10.87 1.5-11.62-.75-16.31-6.75-8.44 3.56-10.12 3.56-17.25-.94-.37 5.62-2.44 4.12-6 3.75.37 7.12-2.44 10.31-8.81 7.87 4.69 10.12-7.5 14.44-13.69 6-5.62.37-6-1.12-8.81-3.19-2.25 8.06-11.25 6.94-12.75 2.44-11.25-1.69-9.94-7.5-.75-8.06.75-6.37 6.37-5.06 9.94-4.31.37-3.94 2.81-3.19 4.87-2.44-1.31-2.81-.37-4.31 3.19-5.25-5.25-6.75-1.87-9.19 3.19-11.62-2.81-6.37 1.87-6 5.62-6.37-.37-6.75 1.5-7.87 8.81-8.81-.94-2.25.37-4.31 4.31-4.31-2.44-6.75.75-8.44 8.06-7.12 1.12-9.94 22.5-5.25 20.62 8.25 6.19.94 8.06 2.06 9.75 6.94Z" style="stroke:#000;stroke-width:.2px;fill:#009a3b"/><path id="path11" d="M605.33 417.71c1.5.75 3.56 0 3.94 4.31 3.19-5.62 7.12-2.44 7.12 3.94m22.12-11.63c-1.69 2.44-7.5 2.44-6.94 8.81-1.87-2.81-5.81-3.56-7.5-.75m24.01-1.12c0 1.5-.37 6.37-1.87 8.81m26.61-2.06c.37.37-5.62 0-8.44 1.87m23.25 22.13c-1.5-.75-4.87-2.81-7.12.37 0-1.69 0-6-4.5-6m-2.25 11.25c0-4.12-.94-5.25-1.87-6.37m-11.25.75c-3.37-2.44-6.56 1.12-6.56 3.19m-16.88-6.76c0-1.69-1.12-4.87 1.69-6m-47.25 22.69c.75-3.94 3.75-3.94 3.19-6-.37-3.19-3.94-6-8.44-1.5m8.44 1.5c2.44-.75 4.87-.37 5.62.94m-12.37-15.75c1.69-1.5 5.62-1.12 8.06 0m0-9.38c1.87 0 5.62-.94 6.75 2.62 4.31-6.75 7.5-6 8.44-4.31m7.87-.93c3.19-1.12 8.81 2.06 12 7.5 1.69-4.12 4.12-3.37 6.56-3.75m15 3.75c5.25-2.25 8.44 2.62 10.12 4.5 2.44-3.19 4.31-3.19 6.75-3.19m-65.24 8.44c1.31-1.87 4.12-2.44 6-1.12-.37-3.75 2.06-5.25 3.75-4.5" class="cls-7"/><path id="path12" d="m620.89 366.34-8.81.37-4.31 7.87-4.87-7.5-8.81.37 3.94-8.06-4.69-7.5 9.19-.37 3.94-7.87 4.87 7.5 8.81-.37-4.12 7.87 4.87 7.69Zm-37.5 2.81-9 2.25-2.25 8.44-6.37-6.37-8.44 2.06 2.25-8.44-5.81-6.56 8.25-2.06 2.44-8.62 6.37 6.37 8.81-1.87-2.81 8.44 6.56 6.37Zm-36.55 7.5-7.87 3.94-.56 9-7.5-4.87-8.06 3.75.75-8.81-7.5-4.87 8.06-4.12.75-8.81 7.12 4.87 8.06-3.75-.37 8.81 7.12 4.87Zm85.67-10.31 8.81.37 3.94 7.87 4.87-7.5 8.81.37-4.12-8.06 4.87-7.5-8.81-.37-4.5-7.87-4.69 7.5-8.81-.37 3.94 7.87zm37.5 2.81 8.44 2.25 2.44 8.44 6.37-6.37 8.44 2.06-2.44-8.44 6.37-6.56-8.81-2.06-2.44-8.62-6.37 6.37-8.25-1.87 2.25 8.44-6 6.37Zm36 7.5 8.06 3.94.37 9 7.5-4.87 8.06 3.75-.37-8.81 7.12-4.87-7.87-4.12-.37-8.81-7.5 4.87-8.25-3.75.94 8.81-7.69 4.87Z" style="stroke:#000;stroke-width:.8px;fill:gold"/><g id="g16"><path id="path13" d="m716.88 545.94 9.94 14.44 9.37-13.69-6.56-11.44zm-63.74 42 .94 14.44s3.94 0 7.5-1.12c3.37-1.31 6.19-3.75 6.19-3.75l-.56-7.5-14.06-2.06Zm-53.43 0-.94 14.06s-3.56 0-7.12-.75c-2.14-.61-4.16-1.56-6-2.81l-3.94-9.75zm-64.5-42-10.31 14.44-11.25-18.37 8.44-8.81 13.12 12.75Z" class="cls-10"/><path id="path14" d="M585.27 616.81c0 13.5 82.49 13.5 82.49 0v-19.12c0 9.94-82.49 7.87-82.49 0z" class="cls-10"/><path id="path15" d="M511.78 572.38c7.12 36.75 73.49 37.5 73.49 37.5v-12.19c-1.5-4.87 1.12-6.56 12-8.06 4.5-.37 2.44-6.75 2.44-6.75s-28.87 5.06-49.31-2.81c-27.56-11.25-31.5-32.81-31.5-32.81s-1.87 16.87-7.31 25.12zm229.1 0c-6.75 36.75-73.12 37.5-73.12 37.5v-12.19c1.12-4.87-1.87-6.56-12.56-8.06-4.31-.37-1.87-6.75-1.87-6.75s28.68 5.06 49.12-2.81c27.19-11.25 30.37-32.81 30.37-32.81s2.81 16.87 8.06 25.12Z" class="cls-10"/><path id="path16" d="M516.84 558.32c-18.37-9.94-3.94-20.25-2.44-49.87 2.81 18 23.25 25.5 20.81 37.12-8.44.37-12.37-12.37-16.31 1.69zm218.79 0c18.37-10.31 3.19-20.25 1.69-49.87-2.81 18-22.87 25.5-20.62 37.12 8.25.37 12.19-12.37 16.12 1.69l2.81 10.69z" class="cls-10"/></g><path id="path17" d="m528.09 572 1.87 1.5-4.31 4.87c-1.87 1.87-2.25 3.19-.94 4.31 1.5 1.5 2.62.94 4.12-.75l4.87-5.06 1.5 1.5-4.69 5.62c-2.62 3-5.06 2.25-7.12.37-1.87-1.5-2.81-3.94 0-6.94l4.69-5.44Zm8.06 6.75 1.87 1.31-.37 9.37 4.5-6.75 1.87 1.31-6.37 10.31-2.44-1.12.37-9.56-4.31 6.75-1.87-1.12zm3.56 16.88 5.62-11.25 1.87 1.12-5.06 10.87-2.44-.75Zm8.81-9.56-4.5 11.44 4.5 1.69c4.12 1.5 6-.37 7.31-3.75 1.31-3.75.75-6.19-3.37-7.87l-3.94-1.5Zm1.5 2.81c4.12 1.31 4.5 3 3.37 5.62-1.12 2.81-2.25 3.75-6.19 1.87l2.81-7.5Zm11.63 1.5-7.12 10.87 2.81.75 1.5-2.81 4.87 1.12.37 2.81 2.81.37-2.81-12.75-2.44-.37Zm.75 2.81.94 4.87-3.19-.37zm6.18-1.88-.56 12.56h4.69c4.5 0 5.62-2.25 5.81-6 0-3.75-1.31-6-5.62-6.19l-4.31-.37Zm2.25 2.25c4.5 0 5.25 1.5 5.06 4.5 0 3-.75 4.31-5.25 3.75zm39.56 15.19v12.75h2.81v-4.69s2.44 0 4.5-.37c1.5-.37 2.62-1.5 2.62-3.94s-1.31-3.75-3.75-3.75h-6.19Zm2.81 1.88 2.81.19c2.44 0 1.87 3.56 0 3.56h-2.81zm11.63-1.88-5.25 12.75h2.81l1.31-3.19h5.25l1.12 3.19h2.81l-5.25-12.75h-2.81Zm1.31 2.81 1.87 4.87h-3.56zm6.75 7.5 6.75-8.25h-6v-1.87h9.56v1.87l-7.12 8.44h7.12v2.44h-10.31v-2.62Zm40.31-24.75 2.44-.37 1.12 7.31c.56 2.44-.75 4.31-2.44 4.87-2.06.75-4.69 0-5.06-3.37l1.87-.37c.56 2.06 1.5 2.25 2.44 1.87.75-.19 1.12-1.5.94-2.62l-1.31-7.31Zm4.12-.56 2.25-.56 1.12 6c.56 2.62 1.31 3.75 3 3.37 1.87-.37 2.25-1.5 1.87-3.75l-1.5-6.37 2.44-.37 1.5 6.56c.94 3.75-.94 5.62-3.75 6-2.44.37-4.87-.19-5.62-3.94zm12.38 5.44 1.87-.75c1.12 1.87 2.62 1.69 3.75 1.12 1.69-.75 1.87-2.25 1.12-2.62-1.31-.75-3.94.19-5.62-.37-1.69-.56-2.44-1.69-2.44-3.19.19-1.87 1.87-2.81 3.75-3.37s3.75-.37 5.06 1.87l-2.25.94c-.94-1.31-1.87-1.31-2.81-.94-.75.37-1.87 1.12-1.31 2.25.56.75 3.56.19 5.06.19 1.69 0 3 1.31 3.19 2.81.19 2.06-.56 3.19-3 4.31-3.19 1.12-5.81-.19-6.37-2.25m10.68-9.94-3.19 1.5-.75-1.87 8.81-3.75.75 1.69-3.19 1.5 3.75 8.81-2.06 1.31zm5.25-4.5 1.87-1.12 5.62 10.31-1.87 1.31zm13.69.75 2.25-.75c.93 2.53-.36 5.33-2.88 6.26-.58.21-1.19.31-1.8.3-6 0-6.75-6.75-5.62-9 1.5-3.75 6-3.56 8.06-1.5l-2.06 1.5c-1.31-1.5-4.12-.56-4.31.94-.35 2.38.86 4.71 3 5.81 1.87.94 4.69-1.31 3.37-3.56m-1.32-8.25 1.87-1.69 7.5 9.56-2.06 1.69zm7.5-6-1.87 1.5 4.5 12 1.87-1.87-1.12-2.44 3.56-3.19 2.44 1.12 1.87-1.5zm.93 2.82 3.94 1.87-2.25 2.44z" style="stroke-width:0"/></g></svg>