<svg xmlns="http://www.w3.org/2000/svg" id="Layer_1" data-name="Layer 1" viewBox="0 0 960 960"><defs id="defs1"><style id="style1">.cls-1,.cls-10,.cls-2,.cls-3,.cls-5,.cls-6,.cls-7,.cls-8,.cls-9{stroke:#000}.cls-1,.cls-10,.cls-12,.cls-15,.cls-17,.cls-2,.cls-3,.cls-6,.cls-7,.cls-8,.cls-9{stroke-miterlimit:6.83;stroke-width:.34px}.cls-1,.cls-15{fill:#d20014}.cls-17,.cls-2{fill:#016a16}.cls-3,.cls-6,.cls-7{fill:#f1b517}.cls-3,.cls-7{fill-rule:evenodd}.cls-21{stroke-width:0}.cls-21,.cls-5,.cls-8{fill:#fff}.cls-5{stroke-width:.3px}.cls-12{stroke:#0a328c}.cls-10,.cls-12{fill:#0a328c}.cls-15{stroke:#d20014}.cls-17{stroke:#fff}.cls-17,.cls-7{stroke-linecap:round}.cls-9{fill:#503200}</style><mask id="mask" width="959.91" height="959.91" x=".11" y=".09" maskUnits="userSpaceOnUse"><g id="a"><circle id="circle1" cx="480.07" cy="480.04" r="479.96" class="cls-21"/></g></mask></defs><g id="g3" style="mask:url(#mask)"><g id="g2"><path id="path1" d="m.11 480.04 477.71-78.37 482.21 78.37V960H.11z" style="stroke-width:0;fill:#d21034"/><path id="path2" d="M.11.09h959.91v479.96H.11z" style="fill:#00209f;stroke-width:0"/></g></g><g id="g145"><path id="path3" d="M301.77 338.33h356.4v283.62h-356.4z" class="cls-21"/><path id="path4" d="m551.65 543.43-72.78 2.21-72.34.66s-37.05 13.89-52.27 16.98-13.23 7.94-24.92 10.59c-9.48 2.21-10.59 2.87-16.1 3.09-3.31.22-7.28 2.87-11.47 5.73v39.26h356.4v-37.49c-3.68-1.88-7.52-3.43-11.47-4.63-5.07-1.76-8.82-3.75-18.08-5.95-11.69-2.65-9.7-7.5-24.92-10.59s-52.05-19.85-52.05-19.85Z" style="fill:#016a16;stroke-width:.3px;stroke:#016a16"/><g id="g52"><g id="ht-a"><path id="path5" d="M459.2 455.89h5.27l9.79 40.27-2.26 12.8z" class="cls-6"/><path id="path6" d="m453.55 428.79 3.76 31.24h3.76l-7.53-30.86v-.38Z" class="cls-8"/><path id="path7" d="m463.72 497.67-16.19-43.29 6.02-.38 18.82 52.7-8.66-9.03Z" class="cls-6"/><path id="path8" d="m440 429.55 6.78 30.11h5.27l-12.04-30.11Z" class="cls-8"/><path id="path9" d="m449.41 482.62-9.41-20.7 3.76-.75 17.69 33.88-12.04-12.42Z" class="cls-6"/><path id="path10" d="m427.2 438.2 10.92 28.61h5.27l-15.81-28.61z" class="cls-8"/><path id="path11" d="m450.92 485.63-43.29-47.05c-13.55 10.54-10.92 30.11-10.92 30.11l48.93 38.39 5.27-21.45Z" class="cls-10"/><path id="path12" d="m475.76 511.22-31.99-32.37c-13.55.75-3.01 20.7-2.26 23.34l33.88 28.98.38-19.95Z" class="cls-1"/><path id="path13" d="m472.75 505.95-65.87-70.76-2.63 1.88 70.01 77.54zm-69.64-75.28-1.51-1.88v-3.39l-13.55-8.66 6.02 13.93 4.89.75 1.13 1.51 3.01-2.26Z" class="cls-6"/><path id="path14" d="M395.96 435.57c2.77-3.44 6.23-6.26 10.16-8.28l3.76 5.65-8.28 6.78-5.65-3.76v-.38Z" class="cls-6"/><path id="path15" d="m388.81 447.61 2.26 3.76c1.51-.38 15.06-13.17 15.06-13.17h10.16l2.63-3.39c-7.53-7.53-13.93 1.13-13.93 1.13l-16.19 11.67Z" class="cls-12"/><path id="path16" d="M397.09 454.01c0-3.76 6.78-12.04 7.53-12.42 4.89 1.51 9.41 4.52 14.68-6.78-4.52 5.27-13.17 0-13.17 0l-3.76 3.01v1.51l-11.29 10.54 6.02 4.14Z" class="cls-15"/><path id="path17" d="m432.1 498.05-54.2-42.91c-9.41 9.41-1.51 38.39-1.51 38.39l52.7 28.61 2.63-24.09z" class="cls-10"/><path id="path18" d="m476.89 533.06-44.79-36.13c-15.06 2.26-3.01 24.47-2.26 27.1l47.05 25.6v-16.56Z" class="cls-1"/><path id="path19" d="m475.01 525.53-96.36-72.27-1.88 2.26 100.88 79.04-2.63-9.03Zm-100.88-76.04-1.51-1.51-.75-3.01-15.06-6.4 8.66 12.42h4.89l1.51 1.51z" class="cls-6"/><path id="path20" d="M368.11 455.52c2.15-3.84 5.11-7.18 8.66-9.79l4.52 4.89-6.78 7.9-6.4-3.01Z" class="cls-6"/><path id="path21" d="M363.22 467.56v4.14c1.51-.75 13.93-13.93 13.93-13.93l9.41-1.88 2.26-3.01c-6.78-7.9-13.93 2.63-13.93 2.63l-11.67 12.04Z" class="cls-12"/><path id="path22" d="M370.74 474.71c-.75-3.76 4.52-14.3 5.27-15.06 6.02 1.88 11.29 4.52 13.17-7.53-3.76 6.02-13.17 1.51-13.17 1.51l-3.01 3.76v1.88l-9.41 12.42 7.15 3.01Z" class="cls-15"/><path id="path23" d="M427.96 524.4c-23.26-13.09-46.47-26.26-69.63-39.52-4.89 8.66-.38 20.7 1.88 22.58 0 5.65-2.26 8.66 2.63 20.7 1.51 7.53 4.89 14.68 10.16 18.82 6.02 24.09 30.86 25.97 40.27 6.02l14.68-28.61Z" class="cls-10"/><path id="path24" d="m473.5 549.99-47.05-27.48c-15.06 1.88 0 30.11 1.13 32.75l45.92 16.19V550Z" class="cls-1"/><path id="path25" d="m465.6 539.83-106.52-56.46-1.88 2.26 112.92 62.86zm-111.79-59.47-1.88-1.13-1.13-3.01-15.43-3.76 10.16 10.92 4.52-.75 2.26 1.13 1.51-3.39Z" class="cls-6"/><path id="path26" d="M348.91 487.13c1.51-3.76 3.01-7.15 6.78-11.29l5.27 4.14-5.27 9.03z" class="cls-6"/><path id="path27" d="m344.77 499.93 2.26 4.52 11.29-17.31 9.41-3.39 1.88-3.76c-7.53-6.78-13.17 5.27-13.17 5.27l-11.67 14.68Z" class="cls-12"/><path id="path28" d="M354.94 505.95c-.75-3.76 1.88-15.81 2.63-16.19 5.65 1.88 10.54 2.26 12.04-9.79-3.76 5.65-12.42 3.76-12.42 3.76l-2.63 3.76.38 1.51-7.53 15.06 7.53 1.88Z" class="cls-15"/></g><g id="ht-a-2" data-name="ht-a"><path id="path29" d="M500.23 455.89h-5.27l-9.79 40.27 2.26 12.8z" class="cls-6"/><path id="path30" d="m505.87 428.79-3.76 31.24h-3.76l7.53-30.86v-.38Z" class="cls-8"/><path id="path31" d="m495.71 497.67 16.19-43.29-6.02-.38-18.82 52.7 8.66-9.03Z" class="cls-6"/><path id="path32" d="m519.42 429.55-6.78 30.11h-5.27l12.04-30.11Z" class="cls-8"/><path id="path33" d="m510.01 482.62 9.41-20.7-3.76-.75-17.69 33.88 12.04-12.42Z" class="cls-6"/><path id="path34" d="m532.22 438.2-10.92 28.61h-5.27l15.81-28.61z" class="cls-8"/><path id="path35" d="m508.51 485.63 43.29-47.05c13.55 10.54 10.92 30.11 10.92 30.11l-48.93 38.39-5.27-21.45Z" class="cls-10"/><path id="path36" d="m483.66 511.22 31.99-32.37c13.55.75 3.01 20.7 2.26 23.34l-33.88 28.98-.38-19.95Z" class="cls-1"/><path id="path37" d="m486.68 505.95 65.87-70.76 2.63 1.88-70.01 77.54zm69.63-75.28 1.51-1.88v-3.39l13.55-8.66-6.02 13.93-4.89.75-1.13 1.51-3.01-2.26Z" class="cls-6"/><path id="path38" d="M563.46 435.57c-2.77-3.44-6.23-6.26-10.16-8.28l-3.76 5.65 8.28 6.78 5.65-3.76v-.38Z" class="cls-6"/><path id="path39" d="m570.61 447.61-2.26 3.76c-1.51-.38-15.06-13.17-15.06-13.17h-10.16l-2.63-3.39c7.53-7.53 13.93 1.13 13.93 1.13l16.19 11.67Z" class="cls-12"/><path id="path40" d="M562.33 454.01c0-3.76-6.78-12.04-7.53-12.42-4.89 1.51-9.41 4.52-14.68-6.78 4.52 5.27 13.17 0 13.17 0l3.76 3.01v1.51l11.29 10.54-6.02 4.14Z" class="cls-15"/><path id="path41" d="m527.33 498.05 54.2-42.91c9.41 9.41 1.51 38.39 1.51 38.39l-52.7 28.61-2.63-24.09z" class="cls-10"/><path id="path42" d="m482.54 533.06 44.79-36.13c15.06 2.26 3.01 24.47 2.26 27.1l-47.05 25.6v-16.56Z" class="cls-1"/><path id="path43" d="m484.42 525.53 96.36-72.27 1.88 2.26-100.88 79.04 2.63-9.03Zm100.87-76.04 1.51-1.51.75-3.01 15.06-6.4-8.66 12.42h-4.89l-1.51 1.51z" class="cls-6"/><path id="path44" d="M591.32 455.52c-2.15-3.84-5.11-7.18-8.66-9.79l-4.52 4.89 6.78 7.9 6.4-3.01Z" class="cls-6"/><path id="path45" d="M596.21 467.56v4.14c-1.51-.75-13.93-13.93-13.93-13.93l-9.41-1.88-2.26-3.01c6.78-7.9 13.93 2.63 13.93 2.63l11.67 12.04Z" class="cls-12"/><path id="path46" d="M588.68 474.71c.75-3.76-4.52-14.3-5.27-15.06-6.02 1.88-11.29 4.52-13.17-7.53 3.76 6.02 13.17 1.51 13.17 1.51l3.01 3.76v1.88l9.41 12.42-7.15 3.01Z" class="cls-15"/><path id="path47" d="M531.47 524.4c23.26-13.09 46.47-26.26 69.63-39.52 4.89 8.66.38 20.7-1.88 22.58 0 5.65 2.26 8.66-2.63 20.7-1.51 7.53-4.89 14.68-10.16 18.82-6.02 24.09-30.86 25.97-40.27 6.02l-14.68-28.61Z" class="cls-10"/><path id="path48" d="m485.92 549.99 47.05-27.48c15.06 1.88 0 30.11-1.13 32.75l-45.92 16.19V550Z" class="cls-1"/><path id="path49" d="m493.83 539.83 106.52-56.46 1.88 2.26-112.92 62.86zm111.79-59.47 1.88-1.13 1.13-3.01 15.43-3.76-10.16 10.92-4.52-.75-2.26 1.13-1.51-3.39Z" class="cls-6"/><path id="path50" d="M610.51 487.13c-1.51-3.76-3.01-7.15-6.78-11.29l-5.27 4.14 5.27 9.03z" class="cls-6"/><path id="path51" d="m614.65 499.93-2.26 4.52-11.29-17.31-9.41-3.39-1.88-3.76c7.53-6.78 13.17 5.27 13.17 5.27l11.67 14.68Z" class="cls-12"/><path id="path52" d="M604.49 505.95c.75-3.76-1.88-15.81-2.63-16.19-5.65 1.88-10.54 2.26-12.04-9.79 3.76 5.65 12.42 3.76 12.42 3.76l2.63 3.76-.38 1.51 7.53 15.06-7.53 1.88Z" class="cls-15"/></g></g><g id="g73"><path id="path53" d="m475.38 388.52-1.88 33.88h10.92l-1.51-33.88 11.29-1.13-1.13-13.55-28.23 1.13v12.04z" style="stroke-miterlimit:6.83;stroke-width:.34px;fill:#016a16;stroke:#016a16"/><g id="ht-b"><path id="path54" d="M479.15 374.59c-29.36-29.36-52.32-15.06-57.59-10.92 3.76.75 6.78-1.51 8.66-1.88l-3.76 4.52s9.41-3.76 10.54-3.76c-1.51 1.13-3.01 3.76-3.01 3.76.75 0 6.02-4.14 6.78-4.14-1.51 1.51-1.88 5.65-1.88 5.65l4.52-1.88c1.13.75-.38 2.26.38 2.26 7.53-.75 17.69 6.4 18.82 8.66" class="cls-2"/><path id="path55" d="M472 379.86c-3.01-6.78-58.72-18.82-70.01 1.13 4.52 1.13 8.66-3.76 8.66-3.76v4.52l7.15-6.02-2.63 6.02 5.65-4.89v4.89l7.53-7.53-1.13 4.14 6.4-2.63-.75 3.76" class="cls-2"/><path id="path56" d="M469.36 380.99c-14.3-9.41-36.13-3.01-36.13-3.01-14.3 7.53-21.83 6.4-23.34 21.08 1.13-.38 4.89-5.27 4.89-5.27l3.01 5.65.75-7.9 2.26 6.4 3.76-10.54.75 7.15 5.27-7.15 2.26 2.26 2.26-5.65 2.26 3.76s3.76-2.26 5.65-1.13l3.76-4.52 1.13 3.39 3.76-3.76 1.13 2.63 3.39-3.01v2.26h11.29" class="cls-2"/><path id="path57" d="M466.35 382.49c-10.16 0-38.77 10.92-45.92 21.83 1.59-.84 3.22-1.59 4.89-2.26l1.13 4.52 1.88-4.52.38 3.76c1.13-3.01 2.26-3.01 4.52-.38l.75-4.14 1.13 3.76 1.88-4.14s1.13 4.52 1.88 4.52c0 0 3.01-8.28 4.52-8.66l.38 5.27 1.88-5.27 1.88 3.76v-5.27l2.26 3.76s.75-3.76 2.26-4.52l3.01 2.63 12.8-9.41" class="cls-2"/><path id="path58" d="M468.23 385.13c-13.17 4.89-25.22 23.34-24.09 30.86 5.65-7.53 4.52-6.4 7.15 2.26 0 0 .75-7.53 1.88-8.28l1.88 5.27.38-7.15h1.88l-.38-4.14 2.63 1.88c-.75-2.63-1.13-3.39 1.51-5.65 0 0-3.76.38-.75-5.65l2.63 2.26s-.75-2.63 0-3.76l9.79-3.01" class="cls-2"/><path id="path59" d="m469.36 386.26-4.89 9.79 2.63.75-6.02 4.14 4.89-.38s-7.53 2.63-8.28 10.16l7.53-3.76s-6.4 6.78-7.53 10.92l4.89-3.76s-4.52 4.52-3.76 11.29l3.39-3.76c-.75 8.66-.75 9.41 3.01 15.81 0 0-.75-9.79 0-11.29l8.66 9.03-4.52-12.42s5.27 7.53 8.28 7.15l-6.78-10.16 6.78 5.27-7.53-11.29 6.78 2.26s-4.89-6.4-4.52-10.54l4.89 5.27s-1.88-5.65-1.51-7.53l2.63.38-4.89-5.27 3.39-.75-.38-3.76 2.26-.38v-4.14m-4.13-.02c-8.28 11.29-4.14 28.23-9.03 37.26" class="cls-2"/></g><g id="ht-b-2" data-name="ht-b"><path id="path60" d="M480.28 374.59c29.36-29.36 52.32-15.06 57.59-10.92-3.76.75-6.78-1.51-8.66-1.88l3.76 4.52s-9.41-3.76-10.54-3.76c1.51 1.13 3.01 3.76 3.01 3.76-.75 0-6.02-4.14-6.78-4.14 1.51 1.51 1.88 5.65 1.88 5.65l-4.52-1.88c-1.13.75.38 2.26-.38 2.26-7.53-.75-17.69 6.4-18.82 8.66" class="cls-2"/><path id="path61" d="M487.43 379.86c3.01-6.78 58.72-18.82 70.01 1.13-4.52 1.13-8.66-3.76-8.66-3.76v4.52l-7.15-6.02 2.63 6.02-5.65-4.89v4.89l-7.53-7.53 1.13 4.14-6.4-2.63.75 3.76" class="cls-2"/><path id="path62" d="M490.06 380.99c14.3-9.41 36.13-3.01 36.13-3.01 14.3 7.53 21.83 6.4 23.34 21.08-1.13-.38-4.89-5.27-4.89-5.27l-3.01 5.65-.75-7.9-2.26 6.4-3.76-10.54-.75 7.15-5.27-7.15-2.26 2.26-2.26-5.65-2.26 3.76s-3.76-2.26-5.65-1.13l-3.76-4.52-1.13 3.39-3.76-3.76-1.13 2.63-3.39-3.01v2.26h-11.29" class="cls-2"/><path id="path63" d="M493.07 382.49c10.16 0 38.77 10.92 45.92 21.83-1.59-.84-3.22-1.59-4.89-2.26l-1.13 4.52-1.88-4.52-.38 3.76c-1.13-3.01-2.26-3.01-4.52-.38l-.75-4.14-1.13 3.76-1.88-4.14s-1.13 4.52-1.88 4.52c0 0-3.01-8.28-4.52-8.66l-.38 5.27-1.88-5.27-1.88 3.76v-5.27l-2.26 3.76s-.75-3.76-2.26-4.52l-3.01 2.63-12.8-9.41" class="cls-2"/><path id="path64" d="M491.19 385.13c13.17 4.89 25.22 23.34 24.09 30.86-5.65-7.53-4.52-6.4-7.15 2.26 0 0-.75-7.53-1.88-8.28l-1.88 5.27-.38-7.15h-1.88l.38-4.14-2.63 1.88c.75-2.63 1.13-3.39-1.51-5.65 0 0 3.76.38.75-5.65l-2.63 2.26s.75-2.63 0-3.76l-9.79-3.01" class="cls-2"/><path id="path65" d="m490.06 386.26 4.89 9.79-2.63.75 6.02 4.14-4.89-.38s7.53 2.63 8.28 10.16l-7.53-3.76s6.4 6.78 7.53 10.92l-4.89-3.76s4.52 4.52 3.76 11.29l-3.39-3.76c.75 8.66.75 9.41-3.01 15.81 0 0 .75-9.79 0-11.29l-8.66 9.03 4.52-12.42s-5.27 7.53-8.28 7.15l6.78-10.16-6.78 5.27 7.53-11.29-6.78 2.26s4.89-6.4 4.52-10.54l-4.89 5.27s1.88-5.65 1.51-7.53l-2.63.38 4.89-5.27-3.39-.75.38-3.76-2.26-.38v-4.14m4.13-.02c8.28 11.29 4.14 28.23 9.03 37.26" class="cls-2"/></g><path id="path66" d="M483.66 542.47s4.14-37.64 4.14-53.45c0-12.8-3.01-40.65-3.01-40.65h-12.42s-1.88 27.85-1.51 40.65c0 15.81 4.14 53.45 4.14 53.45z" class="cls-6"/><path id="path67" d="M471.24 450.25h15.06l-1.88-10.16H473.5z" class="cls-6"/><path id="path68" d="M472.37 441.97h13.17l-2.63-10.16h-8.28z" class="cls-6"/><path id="path69" d="M473.13 434.06h11.29l-2.26-10.16h-7.15z" class="cls-6"/><path id="path70" d="M482.54 422.77h-7.53l-1.13 3.76h9.41zm1.5 111.79h-9.79m10.54-7.53H473.5m12.8-7.52H472m15.05-7.91h-15.06m15.06-8.28h-15.43m15.81-7.53h-16.56m16.56-6.4h-17.31m17.31-8.28h-17.31m16.93-7.9h-16.94m16.19-8.28h-15.43m14.68-7.53h-13.93" class="cls-6"/><path id="path71" d="M479.9 363.67c-3.01-1.13-8.66-4.89-7.15-7.15l2.63-4.52c3.76-8.28 0-5.27 0-7.53-.75-3.01 14.3-.75 14.3 4.89 0 1.88-1.13.75-.75 9.79l-3.01 5.65c-2.16.28-4.36.02-6.4-.75z" class="cls-12"/><path id="path72" d="m481.41 386.26-3.76-3.39 1.13-26.72 3.76 1.13-1.13 28.61v.38Z" class="cls-6"/><path id="path73" d="M486.3 364.8c2.26-1.51 3.76-5.65 2.26-7.9-3.76-4.89-6.4-3.01-12.8-5.27-1.13 1.51-3.76 3.76-3.39 6.02 8.66 3.76 5.27.75 8.28 1.13 1.51 0 2.26 1.88 5.65 5.65v.38Z" class="cls-15"/></g><g id="g140"><path id="ht-c" d="M436.61 519.13c-.75-1.88-3.76-3.39-7.53-3.39s-6.4 1.51-7.53 3.39c-.13-.49-.13-1.01 0-1.51 0-2.63 3.39-4.52 7.53-4.52 4.52 0 7.9 1.88 7.9 4.52.13.49.13 1.01 0 1.51h-.38Z" class="cls-17"/><path id="path74" d="M436.24 524.77c0 4.52-3.39 8.66-7.15 8.66s-6.78-3.76-6.78-9.03v-4.52h13.93z" class="cls-17"/><ellipse id="ellipse74" cx="429.09" cy="518.38" class="cls-21" rx="6.78" ry="3.39"/><path id="path75" d="m427.58 521.76-1.13-12.04h5.27l-.75 12.42h-3.39z" style="stroke-miterlimit:6.83;stroke-width:.34px;fill:#016a16;stroke:#f1b517"/><path id="ht-c-2" d="M436.61 518.38c-.75 1.88-3.76 3.39-7.53 3.39s-6.4-1.51-7.53-3.39c-.13.49-.13 1.01 0 1.51 0 2.63 3.39 4.52 7.53 4.52 4.52 0 7.9-1.88 7.9-4.52.13-.49.13-1.01 0-1.51h-.38Z" class="cls-17" data-name="ht-c"/><g id="ht-d"><path id="path76" d="m464.84 566.18-26.35-8.28-11.67-19.95-41.03-1.88 1.51 15.06 35.01 6.4 3.01 6.02 40.27 11.29z" class="cls-6"/><path id="path77" d="m437.37 571.83-42.16-62.11-1.88 1.88 41.4 61.73 2.63-1.51Z" class="cls-9"/><path id="path78" d="m399.35 512.35-4.52-7.53c-1.13-1.51-2.26-1.88-4.14-.75-1.88.75-1.51 2.63-.75 4.14l3.76 7.15z" class="cls-8"/><path id="path79" d="m442.26 533.43-84.69-8.66-2.26 12.42 84.31 8.66 2.63-12.42Z" class="cls-6"/><path id="path80" d="m355.69 521.76-1.88 16.94h3.76l2.26-15.43zm14.3 2.64-.75 15.43h2.26l1.88-13.17zm57.59 6.77-2.26 14.3h4.14l1.88-14.3zm12.42.38-2.63 16.56 4.52.75 1.51-8.66c0 1.88 1.88 3.01 3.76 3.01 2.26 0 3.76-1.88 3.76-3.76 0-2.26-1.51-3.76-3.76-3.76-1.61-.13-3.12.78-3.76 2.26l1.13-6.02-4.52-.38Zm-30.11 2.63-12.04 13.17 1.51 1.51 15.06-10.16-4.52-4.52Zm-27.85 32.75 11.67-13.17-1.13-1.51-15.06 10.16zm30.48-3.39-13.93-10.92-1.51 1.13 11.29 14.3 4.14-4.52Zm-35-25.21 14.68 10.54 1.51-1.13-11.29-14.3-4.89 4.89Zm15.81-8.66 1.51 17.31h1.88l4.52-16.94-7.9-.38Zm4.51 41.4-1.13-16.94h-2.26l-2.63 17.31 6.02-.38Zm19.2-22.58L398.97 550v1.88l18.07 2.26zm-42.91 5.64 17.69-2.63v-1.51l-18.07-1.88v6.02z" class="cls-6"/><ellipse id="ellipse80" cx="395.96" cy="550.37" class="cls-6" rx="4.89" ry="4.52"/><path id="path81" d="M421.18 550.37c0 13.17-11.29 24.47-25.22 24.47-13.72.21-25.01-10.74-25.22-24.46q0 0 0 0c0-13.55 11.29-24.47 25.22-24.47 13.72-.21 25.01 10.74 25.22 24.46q0 0 0 0Zm-4.89 0c-.21 11.02-9.3 19.78-20.32 19.57q0 0 0 0c-11.02.21-20.11-8.55-20.32-19.57 0-.13 0-.25 0-.38.41-10.87 9.45-19.41 20.33-19.2 11.02-.21 20.12 8.55 20.33 19.57q0 0 0 0h0Z" class="cls-7"/><path id="path82" d="m380.15 537.95-3.76-3.01m31.99 0 3.76-3.76m3.77 34.62-4.14-3.39m-31.62 7.16 3.76-3.76m81.69-39.91 4.14 22.58-3.39 1.51-3.76-23.71z" class="cls-6"/><path id="path83" d="M463.34 523.27c-1.88-1.13-4.52.38-9.03-4.89-7.15 6.4 0 7.53.75 13.93 1.88.75 3.39-5.27 8.66-5.65l8.66-.75-1.88-2.63h-7.15Z" class="cls-8"/><path id="path84" d="m466.35 527.41-.75-6.4c-1.13-2.63-3.76-.38-3.76.75l.75 6.4z" class="cls-8"/><path id="path85" d="M445.27 545.85v6.02c-2.26.75-1.88 2.26-1.88 4.52v17.69c-.38 1.51-2.63 1.51-3.76 2.26-1.13 1.13-.75 3.01 3.76 3.76l3.76.38c5.65-1.13 6.78-3.01 3.76-3.76-1.13-.75-3.39-1.51-3.76-2.26v-4.52h3.76c.75 0 2.63-2.26 2.63-4.14v-9.41c0-5.27-3.76-6.02-5.27-5.65v-4.89h-3.01Zm6.02 10.17c0-1.51-2.26-3.01-3.01-3.01s-2.63 1.88-2.63 3.39v3.76c0 1.51 1.13 6.02 3.39 6.4.75 0 2.26-1.51 2.26-3.01v-7.53Z" class="cls-3"/><path id="path86" d="M420.81 564.3c-2.63-.75-2.63 4.52-2.63 4.52h3.76c1.88.75 3.01 3.01 2.26 4.52-1.13.75-8.28-1.88-8.66 0 1.13 7.15 10.92 9.79 14.3 6.78 3.39-3.39 4.14-11.29-6.78-13.93l-2.26-1.88Zm2.25 2.26-1.13 2.26" class="cls-8"/><path id="path87" d="m348.16 566.93-3.76-15.06m7.9 14.31-5.65-11.67m15.06 8.66-12.42-6.78m18.07 5.27-23.34-10.16" class="cls-6"/><path id="path88" d="m330.09 540.58-9.79.38c-.75.38 1.88 3.39 1.51 4.14-2.26 4.14-16.56 3.76-17.69 3.01-1.88-1.88 13.17-3.01 13.55-3.76 0-1.51-2.26-4.52-1.88-6.4 0-2.63 6.4-3.76 6.4-3.76l7.9 6.4Z" class="cls-15"/><path id="path89" d="m341.38 548.11-18.82-15.81s-1.13-.75-1.88 0 0 1.51 0 1.51l20.33 16.56.38-1.88v-.38Z" class="cls-9"/><path id="path90" d="m360.2 563.92-15.81-13.55-1.13-3.76-3.01 2.26c-1.13.75-2.26 3.01-2.26 3.01h4.14l13.55 12.8 4.14-.75h.38Z" class="cls-6"/><circle id="circle90" cx="414.03" cy="582.36" r="2.63" class="cls-6"/><circle id="circle91" cx="406.88" cy="577.09" r="2.63" class="cls-6"/><circle id="circle92" cx="397.47" cy="580.48" r="2.63" class="cls-6"/><circle id="circle93" cx="382.79" cy="583.49" r="2.63" class="cls-6"/><circle id="circle94" cx="376.39" cy="584.25" r="2.63" class="cls-6"/><circle id="circle95" cx="369.99" cy="584.25" r="2.63" class="cls-6"/><circle id="circle96" cx="363.97" cy="584.25" r="2.63" class="cls-6"/><circle id="circle97" cx="366.98" cy="579.35" r="2.63" class="cls-6"/><circle id="circle98" cx="373" cy="579.73" r="2.63" class="cls-6"/><circle id="circle99" cx="378.65" cy="578.98" r="2.63" class="cls-6"/><circle id="circle100" cx="376.01" cy="574.46" r="2.63" class="cls-6"/><circle id="circle101" cx="369.99" cy="574.08" r="2.63" class="cls-6"/><path id="path101" d="M429.09 585.75c0-1.13-3.01-.75-3.01-2.26s4.52 0 4.89 1.13c2.63-2.26 3.76-.75 5.27 0 2.26-3.01 4.89-3.01 7.53-.75 1.51-1.51 5.27-1.13 6.4.75 2.63-2.26 4.89-1.88 6.4 0 .75-1.13 1.88-1.13 2.63 0 1.13-2.63 4.52-1.88 6.02 0 1.13-1.51 2.63-.38 4.14.38 1.13-.75 3.01-.75 3.01 0 0 1.51-2.26 1.13-2.26 2.26 0 .75 1.51 0 1.51 1.51 0 1.13-2.26 1.51-2.63 0-1.13 1.51-4.14.75-4.52-.75-1.1 1.25-3 1.37-4.25.27q-.135-.12-.27-.27c-1.13.75-2.63.75-3.01 0-1.88 1.88-5.27 1.51-6.4-.75h-1.13c-1.37 1.56-3.75 1.71-5.31.33-.12-.1-.23-.22-.33-.33-3.39 2.26-5.27 1.51-7.15 0-1.88 2.63-5.27 2.63-5.65 0-1.51 1.13-4.52 1.51-4.52 0 0-.75 2.63-.38 2.63-1.51Zm6.02.38c0 .75-.75 1.13-1.51 1.13s-1.51-.38-1.51-1.13.38-.75 1.51-.75 1.51.38 1.51.75Zm7.15-.75c0 .75-1.13 1.13-2.26 1.13s-1.88-.38-1.88-1.13c0-.38.75-1.13 1.88-1.13s1.88.75 1.88 1.13zm13.17.75c0 .75-.75 1.13-1.88 1.13s-1.51-.38-1.51-1.13c0-.38.75-1.13 1.51-1.13s1.88.38 1.88 1.13Zm-7.15 0c0 .75-.75 1.13-1.88 1.13s-1.51-.38-1.51-1.51c0-.75.75-1.51 1.51-1.51s1.88.75 1.88 1.51zm15.06 0c0 .38-.38 1.13-1.13 1.13-1.13 0-1.88-.75-1.88-1.51s.75-1.13 1.88-1.13c.75 0 1.51.38 1.51 1.13zm-4.52 0c0 .75 0 1.13-.75 1.13s-1.13-.38-1.13-1.13.38-.75 1.13-.75zm9.04.37c0 .75 0 1.51-1.13 1.51-.38 0-1.13-.75-1.13-1.51s.75-1.13 1.13-1.13c.75 0 1.13.38 1.13 1.13Z" class="cls-3"/></g><g id="ht-d-2" data-name="ht-d"><path id="path102" d="m494.58 566.18 26.35-8.28 11.67-19.95 41.03-1.88-1.51 15.06-35.01 6.4-3.01 6.02-40.27 11.29z" class="cls-6"/><path id="path103" d="m522.06 571.83 42.16-62.11 1.88 1.88-41.4 61.73-2.63-1.51Z" class="cls-9"/><path id="path104" d="m560.07 512.35 4.52-7.53c1.13-1.51 2.26-1.88 4.14-.75 1.88.75 1.51 2.63.75 4.14l-3.76 7.15z" class="cls-8"/><path id="path105" d="m517.16 533.43 84.69-8.66 2.26 12.42-84.31 8.66-2.63-12.42Z" class="cls-6"/><path id="path106" d="m603.74 521.76 1.88 16.94h-3.76l-2.26-15.43zm-14.31 2.64.75 15.43h-2.26l-1.88-13.17zm-57.59 6.77 2.26 14.3h-4.14l-1.88-14.3zm-12.42.38 2.63 16.56-4.52.75-1.51-8.66c0 1.88-1.88 3.01-3.76 3.01-2.26 0-3.76-1.88-3.76-3.76 0-2.26 1.51-3.76 3.76-3.76 1.61-.13 3.12.78 3.76 2.26l-1.13-6.02 4.52-.38Zm30.11 2.63 12.04 13.17-1.51 1.51L545 538.7l4.52-4.52Zm27.86 32.75-11.67-13.17 1.13-1.51 15.06 10.16zm-30.49-3.39 13.93-10.92 1.51 1.13-11.29 14.3-4.14-4.52Zm35.01-25.21-14.68 10.54-1.51-1.13 11.29-14.3 4.89 4.89Zm-15.81-8.66-1.51 17.31h-1.88l-4.52-16.94 7.9-.38Zm-4.52 41.4 1.13-16.94h2.26l2.63 17.31-6.02-.38Zm-19.2-22.58 18.07 1.51v1.88l-18.07 2.26zm42.91 5.64-17.69-2.63v-1.51l18.07-1.88v6.02z" class="cls-6"/><ellipse id="ellipse106" cx="563.46" cy="550.37" class="cls-6" rx="4.89" ry="4.52"/><path id="path107" d="M538.24 550.37c0 13.17 11.29 24.47 25.22 24.47 13.72.21 25.01-10.74 25.22-24.46q0 0 0 0c0-13.55-11.29-24.47-25.22-24.47-13.72-.21-25.01 10.74-25.22 24.46q0 0 0 0Zm4.9 0c.21 11.02 9.3 19.78 20.32 19.57q0 0 0 0c11.02.21 20.11-8.55 20.32-19.57 0-.13 0-.25 0-.38-.41-10.87-9.45-19.41-20.33-19.2-11.02-.21-20.12 8.55-20.33 19.57q0 0 0 0h0Z" class="cls-7"/><path id="path108" d="m579.27 537.95 3.76-3.01m-31.99 0-3.76-3.76m-3.77 34.62 4.14-3.39m31.62 7.16-3.76-3.76m-81.68-39.91-4.14 22.58 3.39 1.51 3.76-23.71z" class="cls-6"/><path id="path109" d="M496.09 523.27c1.88-1.13 4.52.38 9.03-4.89 7.15 6.4 0 7.53-.75 13.93-1.88.75-3.39-5.27-8.66-5.65l-8.66-.75 1.88-2.63h7.15Z" class="cls-8"/><path id="path110" d="m493.07 527.41.75-6.4c1.13-2.63 3.76-.38 3.76.75l-.75 6.4z" class="cls-8"/><path id="path111" d="M514.15 545.85v6.02c2.26.75 1.88 2.26 1.88 4.52v17.69c.38 1.51 2.63 1.51 3.76 2.26 1.13 1.13.75 3.01-3.76 3.76l-3.76.38c-5.65-1.13-6.78-3.01-3.76-3.76 1.13-.75 3.39-1.51 3.76-2.26v-4.52h-3.76c-.75 0-2.63-2.26-2.63-4.14v-9.41c0-5.27 3.76-6.02 5.27-5.65v-4.89h3.01Zm-6.02 10.17c0-1.51 2.26-3.01 3.01-3.01s2.63 1.88 2.63 3.39v3.76c0 1.51-1.13 6.02-3.39 6.4-.75 0-2.26-1.51-2.26-3.01v-7.53Z" class="cls-3"/><path id="path112" d="M538.62 564.3c2.63-.75 2.63 4.52 2.63 4.52h-3.76c-1.88.75-3.01 3.01-2.26 4.52 1.13.75 8.28-1.88 8.66 0-1.13 7.15-10.92 9.79-14.3 6.78-3.39-3.39-4.14-11.29 6.78-13.93l2.26-1.88Zm-2.26 2.26 1.13 2.26" class="cls-8"/><path id="path113" d="m611.26 566.93 3.76-15.06m-7.9 14.31 5.65-11.67m-15.06 8.66 12.42-6.78m-18.06 5.27 23.34-10.16" class="cls-6"/><path id="path114" d="m629.33 540.58 9.79.38c.75.38-1.88 3.39-1.51 4.14 2.26 4.14 16.56 3.76 17.69 3.01 1.88-1.88-13.17-3.01-13.55-3.76 0-1.51 2.26-4.52 1.88-6.4 0-2.63-6.4-3.76-6.4-3.76l-7.9 6.4Z" class="cls-15"/><path id="path115" d="m618.04 548.11 18.82-15.81s1.13-.75 1.88 0 0 1.51 0 1.51l-20.33 16.56-.38-1.88v-.38Z" class="cls-9"/><path id="path116" d="m599.22 563.92 15.81-13.55 1.13-3.76 3.01 2.26c1.13.75 2.26 3.01 2.26 3.01h-4.14l-13.55 12.8-4.14-.75h-.38Z" class="cls-6"/><circle id="circle116" cx="545.39" cy="582.36" r="2.63" class="cls-6"/><circle id="circle117" cx="552.55" cy="577.09" r="2.63" class="cls-6"/><circle id="circle118" cx="561.96" cy="580.48" r="2.63" class="cls-6"/><circle id="circle119" cx="576.64" cy="583.49" r="2.63" class="cls-6"/><circle id="circle120" cx="583.03" cy="584.25" r="2.63" class="cls-6"/><circle id="circle121" cx="589.43" cy="584.25" r="2.63" class="cls-6"/><circle id="circle122" cx="595.46" cy="584.25" r="2.63" class="cls-6"/><circle id="circle123" cx="592.44" cy="579.35" r="2.63" class="cls-6"/><circle id="circle124" cx="586.42" cy="579.73" r="2.63" class="cls-6"/><circle id="circle125" cx="580.78" cy="578.98" r="2.63" class="cls-6"/><circle id="circle126" cx="583.41" cy="574.46" r="2.63" class="cls-6"/><circle id="circle127" cx="589.43" cy="574.08" r="2.63" class="cls-6"/><path id="path127" d="M530.34 585.75c0-1.13 3.01-.75 3.01-2.26s-4.52 0-4.89 1.13c-2.63-2.26-3.76-.75-5.27 0-2.26-3.01-4.89-3.01-7.53-.75-1.51-1.51-5.27-1.13-6.4.75-2.63-2.26-4.89-1.88-6.4 0-.75-1.13-1.88-1.13-2.63 0-1.13-2.63-4.52-1.88-6.02 0-1.13-1.51-2.63-.38-4.14.38-1.13-.75-3.01-.75-3.01 0 0 1.51 2.26 1.13 2.26 2.26 0 .75-1.51 0-1.51 1.51 0 1.13 2.26 1.51 2.63 0 1.13 1.51 4.14.75 4.52-.75 1.1 1.25 3 1.37 4.25.27q.135-.12.27-.27c1.13.75 2.63.75 3.01 0 1.88 1.88 5.27 1.51 6.4-.75h1.13c1.37 1.56 3.75 1.71 5.31.33.12-.1.23-.22.33-.33 3.39 2.26 5.27 1.51 7.15 0 1.88 2.63 5.27 2.63 5.65 0 1.51 1.13 4.52 1.51 4.52 0 0-.75-2.63-.38-2.63-1.51Zm-6.02.38c0 .75.75 1.13 1.51 1.13s1.51-.38 1.51-1.13-.38-.75-1.51-.75-1.51.38-1.51.75Zm-7.16-.75c0 .75 1.13 1.13 2.26 1.13s1.88-.38 1.88-1.13c0-.38-.75-1.13-1.88-1.13s-1.88.75-1.88 1.13zm-13.17.75c0 .75.75 1.13 1.88 1.13s1.51-.38 1.51-1.13c0-.38-.75-1.13-1.51-1.13s-1.88.38-1.88 1.13Zm7.15 0c0 .75.75 1.13 1.88 1.13s1.51-.38 1.51-1.51c0-.75-.75-1.51-1.51-1.51s-1.88.75-1.88 1.51zm-15.05 0c0 .38.38 1.13 1.13 1.13 1.13 0 1.88-.75 1.88-1.51s-.75-1.13-1.88-1.13c-.75 0-1.51.38-1.51 1.13zm4.51 0c0 .75 0 1.13.75 1.13s1.13-.38 1.13-1.13-.38-.75-1.13-.75zm-9.03.37c0 .75 0 1.51 1.13 1.51.38 0 1.13-.75 1.13-1.51s-.75-1.13-1.13-1.13c-.75 0-1.13.38-1.13 1.13Z" class="cls-3"/></g><path id="path128" d="M479.15 539.45c-9.41 0-16.94 3.76-16.94 7.9 0 .75 0 1.51.75 2.26 1.88 2.26 8.66 3.76 16.56 3.76s13.55-1.13 15.81-3.39c.75-.75 1.13-1.51 1.13-2.63 0-4.14-7.53-7.53-17.31-7.53v-.38Z" class="cls-12"/><path id="path129" d="M496.46 548.11v26.35c0 3.39-7.53 5.65-16.94 5.65s-17.31-2.26-17.31-5.65v-26.35c0 3.01 7.53 5.65 16.94 5.65s17.31-2.63 17.31-5.65Z" class="cls-6"/><path id="path130" d="M462.21 548.11v3.76l8.28 26.35 6.78-20.33 7.53 20.7 4.89-19.57 6.78 13.17v-7.15l-6.02-12.8c-.74.28-1.5.53-2.26.75l-3.76 14.3-5.65-13.55c-.88.02-1.76.02-2.63 0l-5.65 13.55-6.02-16.56c-1.51-.75-2.26-1.88-2.26-2.63Z" class="cls-15"/><path id="path131" d="M496.46 569.57v4.89c0 3.39-7.53 5.65-16.94 5.65s-17.31-2.26-17.31-5.65v-4.89c0 3.39 7.53 5.65 16.94 5.65s17.31-2.26 17.31-5.65Z" class="cls-12"/><path id="path132" d="m486.3 574.46-4.14.75v4.89l4.52-.38-.38-5.27Zm-18.07-.38v4.89l4.14.75v-4.89c-1.39-.16-2.78-.42-4.14-.75Zm-6.02-4.51v4.89c0 1.13.75 1.88 1.88 2.63v-4.89c-1.13-.75-1.88-1.51-1.88-2.63Zm34.25.75c0 .75-1.51 1.88-3.01 2.63v4.89c1.88-.75 3.01-1.88 3.01-3.39v-4.14Z" class="cls-6"/><path id="path133" d="M496.46 548.11v26.35c0 3.39-7.53 5.65-16.94 5.65s-17.31-2.26-17.31-5.65v-26.35" style="stroke:#000;stroke-miterlimit:6.83;stroke-width:.34px;fill:none"/><path id="path134" d="M492.7 546.23c0 1.88-6.02 3.76-13.17 3.76-7.53 0-13.55-1.88-13.55-3.76s6.02-3.39 13.17-3.39c7.53 0 13.55 1.51 13.55 3.76v-.38Z" style="stroke-miterlimit:6.83;stroke-width:.34px;fill:#fff;stroke:#fff"/><path id="path135" d="m475.01 548.86.75 4.52h3.76l.38-4.52zm15.43-1.12-3.76.75.38 4.52 3.76-.75zm-20.33-7.53-2.63 1.13.38 3.76 2.26-.75v-4.14Zm9.04-1.13h-1.13l.75 4.52h2.26l.75-4.52c-.88-.03-1.76-.03-2.63 0Zm10.16 1.5-.38 3.76 2.63 1.13v-3.76c-.73-.42-1.48-.8-2.26-1.13Zm-24.47 10.54.75-4.89-3.76-1.88V550l3.01 1.13Zm31.62-1.13v-4.89l-3.01 1.13zM531.47 518c3.01 0 7.53 3.76 7.9 9.41 0 3.76-6.4 3.76-6.4 3.76 0 1.88-3.76 3.39-6.78 3.76-3.01 0 .75-5.65.75-5.65-1.88-4.89.75-10.16.75-10.16l3.76-1.13Z" class="cls-6"/><path id="path136" d="M526.95 529.29h3.01s0 1.13.75 1.13 1.13-1.51 1.13-1.51h4.52" class="cls-6"/><path id="path137" d="M532.97 521.39c2.63-1.88.38-5.65-1.51-5.65h-3.76c-2.26 0-5.27 2.26-4.89 3.76 0 1.88 1.51 2.63 3.01 2.26.75 0 2.26-2.26 3.01-2.26 1.13 0 3.76 2.26 4.14 1.88Z" style="stroke-miterlimit:6.83;stroke-width:.34px;fill:#d20014;stroke:#f1b517"/><path id="path138" d="M345.15 573.71c-2.26.38-2.63 3.01-1.88 5.65-9.79 2.63-18.82 6.4-27.85 9.03-.38-1.88 4.52-6.78 4.52-6.78 1.13.38 2.26 3.39 2.26 3.39 0-6.02 6.02-9.79 6.02-9.79-3.76-.75-13.93 3.76-15.06 5.27 0 0 3.76-.75 4.52 0 0 0-8.28 8.66-8.66 11.29 1.51 2.63 15.06 4.89 15.06 4.89 0 .75-3.76 3.76-3.76 3.76 5.65.75 13.93-3.01 16.19-5.27 0 0-6.4-.75-11.29-4.89 0 0 .75 2.63 0 3.76 0 0-7.53-2.26-8.66-3.76 0 0 18.82-4.52 27.85-7.53.38 1.88 2.26 4.89 4.52 4.14 1.13-.38.75-3.01 0-5.27.62.55 1.43.82 2.26.75 1.51 0 2.63-1.13 2.63-2.63s-1.13-2.63-2.63-2.63c-1.17.06-2.2.8-2.63 1.88-.38-1.88-1.51-5.27-3.01-4.89l-.38-.38Zm7.53 6.02c0 .75-.75 1.13-1.51 1.13-.59.21-1.23-.1-1.44-.69-.05-.14-.07-.29-.06-.44 0-.75.75-1.51 1.51-1.51s1.13.75 1.13 1.51h.38Z" class="cls-3"/><path id="path139" d="M641.75 585.38c.75-1.51 0-8.28 0-8.28-1.88 0-3.76 2.63-3.76 2.63 1.88-6.02-3.01-15.06-3.01-15.06 3.39.38 14.68 11.29 15.06 13.55 0 0-4.89-1.88-5.65-1.51 1.13 5.65 4.89 8.28 6.4 11.29 0 0-6.4 1.13-6.02 6.78h-4.14c-1.51-1.88.38-4.89.38-4.89l-28.98-12.04c-1.88-.75-6.02-3.01-5.27-5.27.38-1.88 7.53 1.13 9.03 1.88l25.97 10.92Z" class="cls-6"/><path id="path140" d="m613.9 580.11 3.76-6.02c1.13-1.88-1.51-3.76-3.39-1.51l-3.76 5.65c-1.51 3.39 1.88 4.14 3.76 1.88h-.38Z" class="cls-6"/></g><g id="g144"><path id="path141" d="m409.84 594.6-.22-6.62-8.38.22-.44 7.5z" class="cls-5"/><path id="path142" d="m349.19 604.31-11.03-6.18c45.65 4.19 55.14-11.91 66.16-12.79 6.62-.44 7.72 7.5-5.29 3.75l3.31 8.38s-32.64 18.31-64.4 11.03l11.03-4.41zm199.59-9.71v-6.62h10.37l.44 7.5-11.03-.88z" class="cls-5"/><path id="path143" d="m611.42 602.54 10.59-5.73c-52.49 1.76-40.58-8.6-66.83-11.47-6.62-.66-11.91 8.16 5.29 3.75l-3.31 8.38h8.16c17.39 10.54 38.23 13.78 58 9.04l-11.91-3.97Z" class="cls-5"/><path id="path144" d="M398.81 589.09V601s29.11 11.03 80.94 11.03S560.69 601 560.69 601v-11.91s-22.05 10.15-80.94 10.15-80.94-10.15-80.94-10.15Z" class="cls-5"/></g><path id="path145" d="m403 601.22 2.65-8.82 1.1.44-2.21 7.5 4.41 1.32-.22 1.1L403 601zm8.6-3.97v-1.76l.44-1.32 1.32.22-.44 1.54-.66 1.54zm12.35-.66 1.32.44-1.1 5.07c0 .88-.44 1.54-.88 2.21l-1.32.88c-.72.19-1.48.19-2.21 0-.8-.09-1.56-.39-2.21-.88-.35-.36-.58-.82-.66-1.32v-2.21l1.1-5.29 1.32.22-1.1 5.07c-.22.88-.22 1.54 0 1.76 0 .44 0 .88.44 1.1l1.1.44h2.21c.44-.44.66-1.1.88-2.21l1.1-5.29Zm1.33 9.48 1.54-8.82h1.32l3.75 7.94 1.1-7.06 1.1.22-1.54 8.82h-1.1l-3.75-7.94-1.1 7.06h-1.32zm9.7 1.54 1.32-8.82h1.1l-1.32 8.82zm3.53-3.97c.06-1.26.62-2.45 1.54-3.31.99-.79 2.28-1.11 3.53-.88.88 0 1.54.22 2.21.66.66.66 1.1 1.1 1.32 1.98.22.66.44 1.54.22 2.43-.12.79-.42 1.55-.88 2.21-.44.88-1.1 1.32-1.76 1.54-.69.32-1.45.47-2.21.44-.8-.09-1.56-.39-2.21-.88-.88-.44-1.32-1.1-1.54-1.98-.24-.71-.32-1.46-.22-2.21m1.32 0c-.22 1.32 0 2.21.44 2.87.66.66 1.32 1.1 2.21 1.1s1.76 0 2.43-.66 1.1-1.32 1.1-2.65c.15-.65.15-1.33 0-1.98-.22-.54-.61-1.01-1.1-1.32-.44-.36-.98-.59-1.54-.66-.88 0-1.54 0-2.21.66-.88.44-1.32 1.54-1.32 2.87v-.22Zm8.6 5.52.66-9.04h1.32l4.41 7.5.44-7.06h1.32l-.88 9.26h-1.1l-4.41-7.72-.66 7.06zm13.24.88.22-9.04 6.62.22-.22 1.1h-5.07v2.65h4.41l-.22 1.1H463v3.97h-1.32Zm6.61.22 3.97-8.82h1.32l3.75 9.04h-1.54l-1.1-2.87h-3.53l-1.1 2.87h-1.32l-.44-.22Zm2.87-3.53h3.31l-.88-2.43q-.375-.975-.66-1.98c0 .66-.44 1.1-.66 1.76l-1.1 2.65Zm7.28 3.75v-9.04h1.32v9.04zm5.73 0v-7.94h-3.09v-1.1h7.28v.88h-3.09l.22 8.16zm9.27-.22-.44-9.04h1.32l.22 7.94 4.63-.22v1.1h-5.73zm6.39-.22 2.87-9.26h1.32l4.41 8.6h-1.32l-1.32-2.65-3.97.44-.66 2.65h-1.32v.22Zm2.21-3.97h3.31l-1.1-2.65c-.32-.58-.61-1.16-.88-1.76-.1.6-.25 1.19-.44 1.76l-.88 2.65Zm11.02 2.87-.88-8.82 6.18-.88v1.1l-4.85.66.22 2.65 4.41-.44v1.1l-4.19.44.44 3.97-1.1.22h-.22Zm7.06-5.08c-.22-1.54 0-2.87.66-3.75.74-1 1.86-1.64 3.09-1.76.76-.05 1.52.11 2.21.44.88 0 1.54.66 1.98 1.32.97 1.43 1.21 3.22.66 4.85-.25.71-.72 1.32-1.32 1.76-.66.44-1.54.88-2.21.88-.81.16-1.65.08-2.43-.22-.72-.34-1.34-.87-1.76-1.54-.46-.65-.77-1.41-.88-2.21v.22Zm1.1-.22c.22 1.1.66 1.98 1.32 2.21.66.66 1.54.88 2.43.88s1.76-.66 2.21-1.32c.44-.66.66-1.54.44-2.87-.09-.63-.32-1.23-.66-1.76-.32-.49-.78-.88-1.32-1.1-.55-.24-1.17-.32-1.76-.22-.86.05-1.66.44-2.21 1.1-.44.66-.44 1.76-.22 3.09h-.22Zm9.93 3.09-1.76-8.82 4.19-.88h1.98c.44 0 .88.22 1.1.66q.66.33.66 1.32c.05.55-.11 1.1-.44 1.54-.22.44-.88.88-1.76 1.1l.88.44 1.32.88 1.98 2.21-1.54.22-1.54-1.54c-.35-.38-.72-.75-1.1-1.1-.2-.18-.42-.33-.66-.44a1.83 1.83 0 0 0-.66 0h-2.21l.88 4.19h-1.32zm.22-5.29 2.65-.44c.66 0 1.1 0 1.32-.44.47-.27.73-.79.66-1.32-.02-.46-.27-.87-.66-1.1h-1.54l-2.87.44.44 2.87Zm14.78-.88h1.32c0 .88-.22 1.76-.88 2.43-.44.66-1.32 1.1-2.21 1.32-.79.23-1.63.23-2.43 0-.82-.27-1.52-.82-1.98-1.54-.44-.67-.74-1.42-.88-2.21v-2.43c0-.88.44-1.54 1.1-1.98.64-.49 1.4-.8 2.21-.88.72-.21 1.49-.21 2.21 0 .88.44 1.54.88 1.98 1.76l-1.1.44c-.32-.49-.78-.88-1.32-1.1-.5-.15-1.04-.15-1.54 0-.88 0-1.32.22-1.76.66-.42.41-.65.96-.66 1.54-.11 1.24.2 2.49.88 3.53.44.66.88.88 1.32 1.1.66 0 1.1.22 1.76 0 .66 0 1.1-.22 1.54-.88.44-.44.66-1.1.44-1.76m3.53 2.2-2.43-8.6 6.62-1.76v1.1l-5.29 1.54.88 2.65 4.85-1.32.44.88-5.07 1.32.88 3.09 5.51-1.54.44 1.1-6.84 1.54Z" style="stroke-width:0;fill:#000001"/></g></svg>