<?xml version="1.0" encoding="UTF-8" standalone="no"?>
<svg
   id="Layer_1"
   data-name="Layer 1"
   viewBox="0 0 960 960"
   version="1.1"
   sodipodi:docname="iq.svg"
   inkscape:version="1.4 (86a8ad7, 2024-10-11)"
   xmlns:inkscape="http://www.inkscape.org/namespaces/inkscape"
   xmlns:sodipodi="http://sodipodi.sourceforge.net/DTD/sodipodi-0.dtd"
   xmlns="http://www.w3.org/2000/svg"
   xmlns:svg="http://www.w3.org/2000/svg">
  <sodipodi:namedview
     id="namedview5"
     pagecolor="#ffffff"
     bordercolor="#666666"
     borderopacity="1.0"
     inkscape:showpageshadow="2"
     inkscape:pageopacity="0.0"
     inkscape:pagecheckerboard="0"
     inkscape:deskcolor="#d1d1d1"
     inkscape:zoom="0.42447917"
     inkscape:cx="2.3558282"
     inkscape:cy="373.39877"
     inkscape:window-width="1920"
     inkscape:window-height="1017"
     inkscape:window-x="-8"
     inkscape:window-y="-8"
     inkscape:window-maximized="1"
     inkscape:current-layer="Layer_1" />
  <defs
     id="defs1">
    <style
       id="style1">
      .cls-1 {
        fill: #000001;
      }

      .cls-1, .cls-2, .cls-3, .cls-4, .cls-5 {
        stroke-width: 0px;
      }

      .cls-2 {
        fill: #fff;
      }

      .cls-3 {
        fill: #ce1126;
      }

      .cls-4 {
        fill: #eee;
      }

      .cls-5 {
        fill: #007a3d;
      }

      .cls-6 {
        mask: url(#mask);
      }
    </style>
    <mask
       id="mask"
       x=".11"
       y=".09"
       width="959.91"
       height="959.91"
       maskUnits="userSpaceOnUse">
      <g
         id="a">
        <circle
           class="cls-2"
           cx="480.07"
           cy="480.04"
           r="479.96"
           id="circle1" />
      </g>
    </mask>
  </defs>
  <g
     class="cls-6"
     mask="url(#mask)"
     id="g4">
    <g
       id="g3">
      <path
         class="cls-4"
         d="M.11,313.18l475.83-36.18,484.08,36.18v333.72l-477.89,60.56L.11,646.9v-333.72Z"
         id="path1" />
      <path
         class="cls-3"
         d="M.11.09h959.91v313.1H.11V.09Z"
         id="path2" />
      <path
         class="cls-1"
         d="M.11,646.9h959.91v313.1H.11v-313.1Z"
         id="path3" />
    </g>
  </g>
  <g
     id="g5">
    <path
       class="cls-5"
       d="M646.06,406.14c-2.16-1.04-4.13-2.44-5.81-4.15-1.25-2.08-.42-2.08,4.98-.83,9.55,2.91,15.77,1.66,22-3.32l5.4-4.57,6.23,2.91c3.74,2.08,7.47,3.32,8.3,2.91,2.91-.83,8.72-8.3,8.3-10.79,0-2.91,2.49-2.08,4.15,1.25,2.49,6.64-1.25,14.53-8.3,16.19-2.91.83-5.81.42-10.79-1.25-5.81-2.08-7.06-2.08-9.96,0-7.11,5.37-16.72,6.02-24.49,1.66M670.14,384.14c-2.81-5.08-4.24-10.8-4.15-16.6.42-2.49,1.25-3.32,3.32-2.49,4.15,1.25,4.98,4.15,4.15,12.45,0,7.47-1.25,9.55-3.32,6.64M389.56,376.25c-.42,5.4,9.96,19.09,14.53,21.58-3.32,1.25-7.06.83-9.96,2.08-16.6,16.6-76.37,74.71-87.16,88.82,32.37.83,68.07-.42,98.37-1.66,0-22,20.75-23.24,34.86-31.13,7.06,11.21,24.9,10.38,27.39,27.39v73.05H191.59c-4.12,21.85-25.17,36.22-47.02,32.11-1.36-.26-2.7-.58-4.03-.98,8.3-8.3,22.41-11.62,27.39-23.66,4.15-26.56-8.3-42.75-16.6-58.11,10.44-3.35,20.26-8.4,29.05-14.94-9.55,29.05,25.73,26.15,51.47,25.32.83-9.96.42-21.58-7.06-23.24,9.55-3.74,11.21-4.98,27.39-18.26v39.84l191.34-.42c0-12.45,3.32-32.79-6.64-32.79-9.13,0,0,25.73-7.47,25.73h-148.17v-24.9c6.23-6.64,5.4-6.23,48.15-48.98,4.15-4.15,34.45-31.54,60.6-56.86h-.42ZM759.37,375.01c10.38,5.81,18.68,13.28,31.13,16.6-1.25,5.4-6.23,7.47-7.47,12.87v112.06c14.11,2.91,17.43-5.4,24.07-9.55,1.66,17.85,13.28,35.28,12.45,49.81h-60.18v-181.79ZM678.85,435.19s22-18.68,22-19.51v97.54h15.77l-.42-109.16c6.23-6.64,19.09-15.77,22-22.41v174.32h-138.63c-2.08-36.11-2.49-73.46,39.84-65.58v-14.53c-1.25-2.49-3.74.42-4.15-2.91,6.64-6.64,8.72-8.3,26.98-24.07l.42,64.33h16.19v-78.03ZM626.56,512.39c2.91,4.15,13.28,4.15,12.45-3.32-1.25-6.23-14.53-4.15-12.45,3.32"
       id="path4" />
    <circle
       class="cls-5"
       cx="224.79"
       cy="577.14"
       r="8.3"
       id="circle4" />
    <path
       class="cls-5"
       d="M486.27,375.42c10.38,5.4,18.68,13.28,31.54,16.6-1.66,4.98-6.23,7.06-7.47,12.45v112.06c14.11,2.91,17.02-4.98,23.66-9.55,2.08,17.85,13.28,35.69,12.87,49.81h-60.6v-181.38Z"
       id="path5" />
  </g>
</svg>
