<?xml version="1.0" encoding="UTF-8" standalone="no"?>
<svg
   id="Layer_1"
   data-name="Layer 1"
   viewBox="0 0 960 960"
   version="1.1"
   sodipodi:docname="vi.svg"
   inkscape:version="1.4 (86a8ad7, 2024-10-11)"
   xmlns:inkscape="http://www.inkscape.org/namespaces/inkscape"
   xmlns:sodipodi="http://sodipodi.sourceforge.net/DTD/sodipodi-0.dtd"
   xmlns="http://www.w3.org/2000/svg"
   xmlns:svg="http://www.w3.org/2000/svg">
  <sodipodi:namedview
     id="namedview26"
     pagecolor="#ffffff"
     bordercolor="#666666"
     borderopacity="1.0"
     inkscape:showpageshadow="2"
     inkscape:pageopacity="0.0"
     inkscape:pagecheckerboard="0"
     inkscape:deskcolor="#d1d1d1"
     inkscape:zoom="0.42447917"
     inkscape:cx="341.59509"
     inkscape:cy="705.57055"
     inkscape:window-width="1920"
     inkscape:window-height="1017"
     inkscape:window-x="-8"
     inkscape:window-y="-8"
     inkscape:window-maximized="1"
     inkscape:current-layer="Layer_1" />
  <defs
     id="defs1">
    <style
       id="style1">
      .cls-1, .cls-2, .cls-3, .cls-4, .cls-5, .cls-6, .cls-7, .cls-8, .cls-9, .cls-10, .cls-11 {
        stroke: #010002;
      }

      .cls-1, .cls-2, .cls-3, .cls-4, .cls-5, .cls-8, .cls-10 {
        stroke-miterlimit: 10;
      }

      .cls-1, .cls-2, .cls-4, .cls-5, .cls-7, .cls-8, .cls-11 {
        stroke-width: 1.2px;
      }

      .cls-1, .cls-9, .cls-10 {
        fill: #f4c53d;
      }

      .cls-2 {
        fill: #162667;
      }

      .cls-3, .cls-5, .cls-6 {
        fill: none;
      }

      .cls-3, .cls-6, .cls-9, .cls-10 {
        stroke-width: 1.2px;
      }

      .cls-4 {
        fill: #0081c6;
      }

      .cls-12, .cls-13 {
        stroke-width: 0px;
      }

      .cls-12, .cls-11 {
        fill: #fff;
      }

      .cls-6, .cls-9 {
        stroke-miterlimit: 1.2;
      }

      .cls-13 {
        fill: #eee;
      }

      .cls-7 {
        fill: #a60032;
      }

      .cls-8 {
        fill: #369443;
      }

      .cls-14 {
        mask: url(#mask);
      }
    </style>
    <mask
       id="mask"
       x=".46"
       y=".09"
       width="959.91"
       height="959.91"
       maskUnits="userSpaceOnUse">
      <g
         id="a">
        <circle
           class="cls-12"
           cx="480.42"
           cy="480.04"
           r="479.96"
           id="circle1" />
      </g>
    </mask>
  </defs>
  <g
     class="cls-14"
     mask="url(#mask)"
     id="g1">
    <path
       class="cls-13"
       d="M.46.09h959.91v959.91H.46V.09Z"
       id="path1" />
  </g>
  <g
     id="g26">
    <path
       class="cls-8"
       d="M317.13,631.21s-.71-5.17,8.74-8.91c9.45-3.57,10.16-17.29,8.38-26.39,0,0-4.99,8.74-11.05,11.59,0,0-9.81,5.17-10.34,14.98,0,0,0,3.57-.71,6.24-.36,1.6-4.81-12.12,3.57-22.46,8.38-10.52,10.7-19.08,4.1-35.66,0,0-.71,9.98-7.31,15.87-6.77,5.71-7.49,6.24-7.49,19.97,0,0,0,4.81-2.32,6.42,0,0-5.35-7.67-6.6-12.48-1.43-5.17-1.96-7.13,3.92-13.01,0,0,18.9-12.3,5.35-39.22,0,0-.53,9.45-7.13,14.8-6.42,5.35-5.88,9.09-6.24,18.54-.36,9.45-1.07,8.91-1.78,10.16,0,0-11.94-22.11-2.67-33.87,9.27-11.77,14.44-14.26,4.28-36.19,0,0,.36,11.23-7.84,16.76s-6.24,18.72-6.24,18.72c0,0,.53,4.81-1.25,8.38,0,0-11.59-22.64-.53-34.76,9.45-10.34,10.16-17.65,4.99-32.27,0,0-.53,6.77-5.7,10.52-5.35,3.57-9.27,7.13-8.38,21.39,0,0,.36,9.81-.89,12.48,0,0-4.81-8.91-6.24-14.8-1.25-5.88-1.78-9.27,1.78-15.15,3.57-5.88,17.83-22.82.71-47.07,0,0-.53,7.84-4.81,14.98-4.28,7.13-2.32,15.51-1.43,21.93,1.07,6.42-2.14,12.66-2.14,12.66,0,0-7.31-13.55-5.88-29.06,1.78-15.51-4.64-28.52-19.08-37.44,0,0-10.34,24.07,3.92,36.37,0,0,12.12,12.12,15.15,26.74,0,0-9.27-1.07-17.47-17.29-8.38-16.05-25.67-13.55-26.74-13.73,0,0,2.67,24.96,29.24,32.09,0,0,17.11,3.03,20.15,15.51,0,0,2.85,8.56,4.1,13.19,0,0-5.35-2.14-10.34-9.45-4.99-7.49-4.28-8.38-21.04-9.98,0,0-6.77-.71-10.34-5.53,0,0,7.13,26.56,25.14,26.39,0,0,16.58-1.78,25.85,19.97l-4.28-2.85c-2.32-1.78-8.56-4.81-20.68-3.21s-15.51-.71-18.54-1.78c0,0,12.3,22.64,29.59,16.05,17.29-6.77,25.67,17.47,25.85,18.01,0,0-2.32-1.78-5.35-4.81-3.03-3.03-9.45-6.6-21.39-2.85,0,0-8.74,3.39-17.47.71,0,0,8.38,16.22,28.17,13.55,19.61-2.85,24.78,14.62,24.78,14.62l-4.46-3.03c-1.78-1.43-8.56-5.35-22.82-1.07-14.26,4.28-19.43-.71-19.43-.71,0,0,8.02,14.44,23.18,16.05,0,0,8.38,0,12.12-1.25,7.1-3.01,15.34-.54,19.61,5.88,0,0-1.78.36-4.64-.89,0,0-10.16-3.57-17.83,2.85,0,0-6.77,7.13-16.58,5.71,0,0,12.48,12.12,32.63,1.78,0,0,6.77-4.81,11.59-1.07,4.99,3.74,16.58-3.57,16.58-3.57h0Z"
       id="path2" />
    <g
       id="g6">
      <path
         class="cls-1"
         d="M428.2,329.92s-2.32-20.86,14.26-22.82c17.11-1.96,25.67,1.6,25.67,1.6l7.67,15.15-2.67,10.34-10.7,4.81s1.78-15.69-12.48-16.05c-3.57,0-5.88,1.43-11.59.53-5.88-1.07-8.91,5.35-10.16,6.24v.18Z"
         id="path3" />
      <path
         class="cls-1"
         d="M544.44,381.09c-2.5,3.21-12.3,4.28-12.3,4.28,0,0,10.16,7.67,14.44,18.9,4.46,11.05-117.31,0-117.31,0,0,0,5.35-3.74,8.91-10.7,0,0-5.35,1.78-10.88-3.57,0,0,4.1,1.43,9.27-6.6,0,0,7.84-9.98,13.37-12.66,0,0-2.67,1.6-8.74-1.78,0,0,10.7-1.43,14.26-19.43,0,0,.71-3.92,4.81-9.81,3.92-5.7,3.03,1.25,10.52-7.67,0,0,3.39-6.42.36-10.16-3.03-3.74-6.06-2.5-12.3-6.24s-8.91-5.7-6.77-11.41,7.49-4.81,8.38-4.81c.71,0,1.25-4.99,7.84-8.38,8.94-2.65,18.42-2.83,27.46-.53,2.67,1.6,13.55,4.81,19.79,20.68,6.42,16.05-1.78,22.11,15.69,46.35,0,0-7.13,1.43-11.41,0,0,0,8.91,16.05,24.6,23.53h0Z"
         id="path4" />
      <path
         class="cls-5"
         d="M469.03,313.52c-13.91-.71-8.56-14.08-8.56-14.08"
         id="path5" />
      <path
         class="cls-1"
         d="M493.45,315.3s-2.5-1.25-4.46-3.92c-3.03-3.92-9.63-5.7-13.19-2.14,0,0-3.57,4.1-6.77,4.28,0,0,3.57,1.07,6.06,3.39,2.5,2.32,5.17,3.92,8.91,3.57,3.57-.71,4.28-2.67,5.88-3.74,1.78-1.25,3.57-1.43,3.57-1.43h0Z"
         id="path6" />
    </g>
    <path
       class="cls-8"
       d="M314.99,661.88s-.36-8.91,11.05-9.81l33.52,46.71s-1.25,3.03-16.4,2.67c0,0-1.78,0-2.5,1.78-1.25,2.85-25.67-41.36-25.67-41.36h0Z"
       id="path7" />
    <g
       id="vi-a">
      <path
         class="cls-10"
         d="M351.82,607.58s-10.71,18.38-23.66,18.68c0,0-22.27-2.71-28.56,3.11-4.4,4.06-8.89,7.41-10.74,17.78-1.8,10.37,3.54,12.6,4.81,13.06,0,0,.99,7.41,8.31,5.48,0,0,.43,7.73,13.36,4.02,12.95-3.71,18.32-2.53,20.83-15.42,2.56-12.9,4.9-12.69,7.19-14.24,3.09-2.08,8.91-4.04,13.23-6.53,3.86-2.23,18.72-9.79,23.79-10.37,5.07-.6,3.95-17.65,3.95-17.65h-13.1l-6.33-9.34-13.08,11.42ZM393.05,515.38s-13.1,10.67-24.09,0c0,0-4.42,5.33-13.31,3.78-8.85-1.57-10.33-6.23-11.17-8.89,0,0-7.69,4.47-14.17.92-6.44-3.52-6.44-8.87-6.44-8.87,0,0-11.27,2.23-17.05-5.41-5.78-7.62-2.25-15.18.86-16.08,0,0-12.17,3.2-15.5-7.26-1.82-4.79-.4-10.2,3.52-13.48,0,0-25.64-.13-36.16-8.16,0,0-8.74-5.5-3.52-11.27,0,0-23.08-3.69-28.86-12.88,0,0-2.53-2.53-1.7-6.98,0,0,.15-2.51,2.68-2.66,0,0-26.32-4.08-33.93-12.75,0,0-3.65-3.99-1.83-9.34,0,0,.39-1.4,1.01-2.36,0,0-23.96-5.05-35.77-15.72,0,0-6.83-6.08-3.31-14.24,0,0-40.05-10.95-30.77-28.6,0,0-18.72-6.08-12.8-22.98,0,0-15.48-7.86-8.74-20.31,6.46-11.92,26.32,2.08,49.82,8.59,0,0,63.64,20.01,94.97,25.34l89.02,132.55,51.94,20.01,5.28,37.06Z"
         id="path8" />
      <path
         class="cls-10"
         d="M393.67,417.77s-8.35-6.27-23.23,1.1c0,0-5,3.46-8.95-.32-3.2-3.05-3.32-8.12-.27-11.32.36-.38.76-.72,1.19-1.02,11.1-8.22,15.2-32.9-1.67-43.14,0,0-24.48-14.52-114.3-37.36,0,0-7.52-2.1-11.55-1.1-3.98,1.02-7.08,4.13-8.07,8.12,0,0-4.04,11.44,9.49,17.99,0,0,6.1,2.79,12.39,4.6,0,0-6.91-1.5-9.88,5.33-2.79,6.53,1.29,13.21,13.96,17.5,0,0,3.44,1.33,8.31,2.51,0,0-10.84,3.11-5.63,11.87,0,0,4.64,9.19,21.04,10.82,0,0-12.24,1.33-3.61,12.97,0,0,3.8,6.38,15.76,8.74,0,0-9.06.3-4.51,8.44,4.6,8.16,15.35,12.75,25.96,13.51,0,0,5.73.3,9.75-.6,0,0-10.09,5.05-4.17,13.48,0,0,4.36,6.01,15.27,5.71,0,0-2.81,9.45,5.17,13.01,6.23,2.79,11.4-1.67,11.4-1.67,0,0-2.1,10.11,6.98,13.68,0,0,4.53,2.34,11.29,0,0,0,5.15,11.57,23.53,3.44,18.38-8.09,4.34-76.25,4.34-76.25v-.02ZM394.75,522.85s-2.68,14.47-24.05,32.68c0,0-16.49,14.54-16.08,31.28.43,17.07-2.94,18.98-9.43,24.76,0,0,13.38,1.05,19.84-7.86,0,0-.28,14.82-2.25,16.17,0,0,4.21.26,10.29-6.38,0,0,3.65-3.86,7.04-5.35,0,0-3.95,10.24-.86,19.73,0,0,.99-3.71,6.21-5.35,0,0,9.45-1.93,13.1-15.57,0,0,2.38-9.02,17.18-17.05,0,0,16.75-6.31,16.32-14.56-.43-8.27-37.28-52.52-37.28-52.52h-.02Z"
         id="path9" />
      <path
         class="cls-9"
         d="M472.39,709.42s-3.84,16.92-17.18,15.57c0,0-9.43-.9-8.72-16.62,0,0-13.94,7.43-16.19-10.95,0,0-12.67,2.94-12.52-14.24,0,0-11.81,2.06-10.41-13.21,0,0-12.82,3.44-12.82-10.95,0,0-29.98-4.98,32.51-61.97l55.74,33.2-10.41,79.17Z"
         id="path10" />
      <path
         class="cls-10"
         d="M478.59,633.43s-9.3,8.25-15.91-4.08c0,0-9.02-.43-10.41-7.26,0,0-7.32-.73-8.74-7.71,0,0-9.98-1.03-9.71-9.47,0,0-18.17-1.42,0-21.99,18.17-20.57,48.98,34.14,48.98,34.14l-4.21,16.36ZM488.94,628.32c9.02,0,19.22,56.26,16.58,90.16-.97,12.3-7.56,22.35-16.58,22.35s-15.59-10.05-16.53-22.35c-2.66-33.9,7.54-90.16,16.53-90.16"
         id="path11" />
      <ellipse
         class="cls-10"
         cx="488.94"
         cy="627.89"
         rx="12.45"
         ry="18.47"
         id="ellipse11" />
      <path
         class="cls-6"
         d="M446.49,708.37s1.42-29.78,27.23-72.49M430.3,697.42s-4.02-17.2,32.38-68.07c0,0-4.23-12.13,8.72-19.93M417.79,683.18s-1.14-18.62,34.48-61.09c0,0-3.16-10.95,9.75-19.71M407.37,669.98s1.33-18.81,36.16-55.59c0,0-1.72-11.25,10.74-18.23M394.57,659.03s2.51-21.49,39.25-54.11c0,0-1.27-8.46,10.97-17.05"
         id="path12" />
      <path
         class="cls-3"
         d="M110.76,312.14s28.84,16.71,118.72,33.41M123.55,335.12s78.09,25.47,114.47,28.6M154.3,363.72s45.82,14.39,99.48,23.47M193.4,393.7s51.75,12.43,76.48,14.49M228.14,418.13s43.78,9.13,54.86,10.22M256.01,440.66s31.95,4.85,44.66,4.6M295.69,460.07s12.93-.6,19.13-1.63M307.65,480.83s10.99-2.96,17.46-7.11M323.84,502.32s8.46-3.26,12.54-12.15M344.48,510.27s6.53-5.86,6.96-12.39M368.96,515.38s-2.45-2.13-.77-11.32M365.8,490.58s-1.29-2.62-.86-6.79M319.64,358.98s14.77,5.93,19.69,14.09c4.94,8.16,1.7,16.08,0,20.61-.84,2.3-11.25,22.37.99,36.91M319.83,446.35s.09-.06,5.28-1.72M288.65,425s8.8,1.76,17.46,1.85M276.48,403.27s10.35,1.05,20.08.9M261.08,380.6s14.92,2.96,22.93,3.11M248.69,355.3s18.4,5.24,32.08,7.11M311.18,373.23s-13.23,12.3,2.68,23.73c0,0-6.61,10.37,6.61,21.19M316.95,423.26s-1.98,19.8,22.25,19.8c0,0-4.66,17.63,18.72,17.05,0,0,2.66,14.09,19.54,11.25M340.29,626.28s-3.84.86-12.15,0M304.78,636.65s-11.68-1.78-11.12,23.58M311.82,642.43s-10.56-1.33-9.88,23.28M413.75,583.14s-5.07,1.03-8.59,5.05c-3.5,3.99-10.26,3.24-10.26,3.24,0,0,3.65-2.96,4.94-10.37,1.25-7.41,5.35-9.64,5.35-9.64M393.09,564.42s-5.07,1.03-8.59,5.02c-3.52,4.02-10.29,3.26-10.29,3.26,0,0,3.65-2.96,4.94-10.37,1.27-7.41,5.35-9.64,5.35-9.64M389.59,593.17s-4.42.92-7.49,4.4c-3.07,3.5-8.98,2.86-8.98,2.86,0,0,3.22-2.58,4.29-9.06,1.12-6.46,4.68-8.42,4.68-8.42"
         id="path13" />
    </g>
    <g
       id="vi-a-2"
       data-name="vi-a">
      <path
         class="cls-10"
         d="M622.6,607.58s10.71,18.38,23.66,18.68c0,0,22.27-2.71,28.56,3.11,4.4,4.06,8.89,7.41,10.74,17.78,1.8,10.37-3.54,12.6-4.81,13.06,0,0-.99,7.41-8.31,5.48,0,0-.43,7.73-13.36,4.02-12.95-3.71-18.32-2.53-20.83-15.42-2.56-12.9-4.9-12.69-7.19-14.24-3.09-2.08-8.91-4.04-13.23-6.53-3.86-2.23-18.72-9.79-23.79-10.37-5.07-.6-3.95-17.65-3.95-17.65h13.1l6.33-9.34,13.08,11.42ZM581.38,515.38s13.1,10.67,24.09,0c0,0,4.42,5.33,13.31,3.78,8.85-1.57,10.33-6.23,11.17-8.89,0,0,7.69,4.47,14.17.92,6.44-3.52,6.44-8.87,6.44-8.87,0,0,11.27,2.23,17.05-5.41,5.78-7.62,2.25-15.18-.86-16.08,0,0,12.17,3.2,15.5-7.26,1.82-4.79.4-10.2-3.52-13.48,0,0,25.64-.13,36.16-8.16,0,0,8.74-5.5,3.52-11.27,0,0,23.08-3.69,28.86-12.88,0,0,2.53-2.53,1.7-6.98,0,0-.15-2.51-2.68-2.66,0,0,26.32-4.08,33.93-12.75,0,0,3.65-3.99,1.83-9.34,0,0-.39-1.4-1.01-2.36,0,0,23.96-5.05,35.77-15.72,0,0,6.83-6.08,3.31-14.24,0,0,40.05-10.95,30.77-28.6,0,0,18.72-6.08,12.8-22.98,0,0,15.48-7.86,8.74-20.31-6.46-11.92-26.32,2.08-49.82,8.59,0,0-63.64,20.01-94.97,25.34l-89.02,132.55-51.94,20.01-5.28,37.06Z"
         id="path14" />
      <path
         class="cls-10"
         d="M580.75,417.77s8.35-6.27,23.23,1.1c0,0,5,3.46,8.95-.32,3.2-3.05,3.32-8.12.27-11.32-.36-.38-.76-.72-1.19-1.02-11.1-8.22-15.2-32.9,1.67-43.14,0,0,24.48-14.52,114.3-37.36,0,0,7.52-2.1,11.55-1.1,3.98,1.02,7.08,4.13,8.07,8.12,0,0,4.04,11.44-9.49,17.99,0,0-6.1,2.79-12.39,4.6,0,0,6.91-1.5,9.88,5.33,2.79,6.53-1.29,13.21-13.96,17.5,0,0-3.44,1.33-8.31,2.51,0,0,10.84,3.11,5.63,11.87,0,0-4.64,9.19-21.04,10.82,0,0,12.24,1.33,3.61,12.97,0,0-3.8,6.38-15.76,8.74,0,0,9.06.3,4.51,8.44-4.6,8.16-15.35,12.75-25.96,13.51,0,0-5.73.3-9.75-.6,0,0,10.09,5.05,4.17,13.48,0,0-4.36,6.01-15.27,5.71,0,0,2.81,9.45-5.17,13.01-6.23,2.79-11.4-1.67-11.4-1.67,0,0,2.1,10.11-6.98,13.68,0,0-4.53,2.34-11.29,0,0,0-5.15,11.57-23.53,3.44-18.38-8.09-4.34-76.25-4.34-76.25v-.02ZM579.68,522.85s2.68,14.47,24.05,32.68c0,0,16.49,14.54,16.08,31.28-.43,17.07,2.94,18.98,9.43,24.76,0,0-13.38,1.05-19.84-7.86,0,0,.28,14.82,2.25,16.17,0,0-4.21.26-10.29-6.38,0,0-3.65-3.86-7.04-5.35,0,0,3.95,10.24.86,19.73,0,0-.99-3.71-6.21-5.35,0,0-9.45-1.93-13.1-15.57,0,0-2.38-9.02-17.18-17.05,0,0-16.75-6.31-16.32-14.56.43-8.27,37.28-52.52,37.28-52.52h.02Z"
         id="path15" />
      <path
         class="cls-9"
         d="M502.04,709.42s3.84,16.92,17.18,15.57c0,0,9.43-.9,8.72-16.62,0,0,13.94,7.43,16.19-10.95,0,0,12.67,2.94,12.52-14.24,0,0,11.81,2.06,10.41-13.21,0,0,12.82,3.44,12.82-10.95,0,0,29.98-4.98-32.51-61.97l-55.74,33.2,10.41,79.17Z"
         id="path16" />
      <path
         class="cls-10"
         d="M495.83,633.43s9.3,8.25,15.91-4.08c0,0,9.02-.43,10.41-7.26,0,0,7.32-.73,8.74-7.71,0,0,9.98-1.03,9.71-9.47,0,0,18.17-1.42,0-21.99-18.17-20.57-48.98,34.14-48.98,34.14l4.21,16.36ZM485.48,628.32c-9.02,0-19.22,56.26-16.58,90.16.97,12.3,7.56,22.35,16.58,22.35s15.59-10.05,16.53-22.35c2.66-33.9-7.54-90.16-16.53-90.16"
         id="path17" />
      <ellipse
         class="cls-10"
         cx="485.48"
         cy="627.89"
         rx="12.45"
         ry="18.47"
         id="ellipse17" />
      <path
         class="cls-6"
         d="M527.93,708.37s-1.42-29.78-27.23-72.49M544.12,697.42s4.02-17.2-32.38-68.07c0,0,4.23-12.13-8.72-19.93M556.64,683.18s1.14-18.62-34.48-61.09c0,0,3.16-10.95-9.75-19.71M567.05,669.98s-1.33-18.81-36.16-55.59c0,0,1.72-11.25-10.74-18.23M579.85,659.03s-2.51-21.49-39.25-54.11c0,0,1.27-8.46-10.97-17.05"
         id="path18" />
      <path
         class="cls-3"
         d="M863.67,312.14s-28.84,16.71-118.72,33.41M850.87,335.12s-78.09,25.47-114.47,28.6M820.13,363.72s-45.82,14.39-99.48,23.47M781.02,393.7s-51.75,12.43-76.48,14.49M746.28,418.13s-43.78,9.13-54.86,10.22M718.41,440.66s-31.95,4.85-44.66,4.6M678.73,460.07s-12.93-.6-19.13-1.63M666.77,480.83s-10.99-2.96-17.46-7.11M650.58,502.32s-8.46-3.26-12.54-12.15M629.95,510.27s-6.53-5.86-6.96-12.39M605.47,515.38s2.45-2.13.77-11.32M608.62,490.58s1.29-2.62.86-6.79M654.79,358.98s-14.77,5.93-19.69,14.09c-4.94,8.16-1.7,16.08,0,20.61.84,2.3,11.25,22.37-.99,36.91M654.6,446.35s-.09-.06-5.28-1.72M685.77,425s-8.8,1.76-17.46,1.85M697.95,403.27s-10.35,1.05-20.08.9M713.34,380.6s-14.92,2.96-22.93,3.11M725.73,355.3s-18.4,5.24-32.08,7.11M663.25,373.23s13.23,12.3-2.68,23.73c0,0,6.61,10.37-6.61,21.19M657.47,423.26s1.98,19.8-22.25,19.8c0,0,4.66,17.63-18.72,17.05,0,0-2.66,14.09-19.54,11.25M634.13,626.28s3.84.86,12.15,0M669.65,636.65s11.68-1.78,11.12,23.58M662.61,642.43s10.56-1.33,9.88,23.28M560.68,583.14s5.07,1.03,8.59,5.05c3.5,3.99,10.26,3.24,10.26,3.24,0,0-3.65-2.96-4.94-10.37-1.25-7.41-5.35-9.64-5.35-9.64M581.33,564.42s5.07,1.03,8.59,5.02c3.52,4.02,10.29,3.26,10.29,3.26,0,0-3.65-2.96-4.94-10.37-1.27-7.41-5.35-9.64-5.35-9.64M584.83,593.17s4.42.92,7.49,4.4c3.07,3.5,8.98,2.86,8.98,2.86,0,0-3.22-2.58-4.29-9.06-1.12-6.46-4.68-8.42-4.68-8.42"
         id="path19" />
    </g>
    <path
       class="cls-4"
       d="M702.58,554.02l-12.3-7.13-20.32,88.25-8.38-6.06,19.79-84.51-13.91.36,32.98-60.26,2.14,69.53v-.18ZM750.71,577.91l-7.67-12.48-61.33,72.56-6.6-7.49,61.15-71.31-12.48-6.77,55.98-36.9-29.06,62.4Z"
       id="path20" />
    <path
       class="cls-4"
       d="M738.41,537.44l-10.16-10.34-54.91,105.54-8.38-4.99,55.27-105.19-13.55-3.57,46.53-49.21-14.8,67.75ZM659.79,664.91l-4.1,16.76,11.23,11.23-16.05,67.03-14.08-18.9-20.86,9.81,16.05-67.21,14.62-4.1,3.74-16.76s4.46-1.78,9.45,2.14Z"
       id="path21" />
    <path
       class="cls-4"
       d="M663.53,653.68l-8.02,15.15,8.02,13.91-31.91,60.62-8.91-22.29-22.64,3.74,31.91-60.62h15.15l7.84-14.98s5.71,0,8.56,4.46h0Z"
       id="path22" />
    <path
       class="cls-4"
       d="M664.96,658.13l-21.57,27.46,4.99,15.33-44.04,51.52-4.1-23.71-22.82-1.78,44.04-51.52,14.8,3.57,22.82-28.88s6.24,3.03,5.88,8.02h0ZM119.06,593.95c5.17-2.14,8.91-4.1,8.91-9.63,0-1.25-.71-4.1-2.32-8.56l-34.41-105.36c-1.17-3.9-2.6-7.71-4.28-11.41-1.6-3.03-4.64-4.28-8.74-5.88h43.86c-4.81,2.14-9.09,3.92-8.91,8.91,0,2.14.36,4.81,1.43,8.38l26.56,82.37,26.39-82.54c1.07-3.57,1.78-6.24,1.78-8.2-.18-5.35-4.81-7.13-9.27-9.09h42.61c-3.92,1.6-7.13,2.67-8.74,5.88-.71,1.43-2.32,4.99-4.28,11.41l-34.41,105.19c-1.03,2.9-1.8,5.88-2.32,8.91,0,0-1.6,6.6,8.91,9.45l-42.79.18ZM853.94,583.26v-119.45c.06-1.61-.31-3.21-1.07-4.64-.53-1.25-3.57-4.28-7.84-6.06h39.58c-3.15,1.12-5.89,3.17-7.84,5.88-.78,1.48-1.15,3.14-1.07,4.81v119.45c0,1.96.36,3.57,1.07,4.81.71,1.07,3.57,3.92,7.84,5.88h-39.58c4.28-1.78,7.13-4.81,7.84-5.88.71-1.25,1.07-2.85,1.07-4.99v.18Z"
       id="path23" />
    <path
       class="cls-11"
       d="M489,623.73s105.54-46.89,105.9-155.1h-211.98c.36,108.22,106.08,155.1,106.08,155.1Z"
       id="path24" />
    <path
       class="cls-7"
       d="M399.32,468.62v69.17s8.02,16.05,16.22,26.21v-95.38h-16.22ZM431.95,468.62v114.1s10.16,9.98,16.22,14.8v-128.9h-16.22ZM464.39,468.62v140.84s11.77,7.67,16.4,10.16v-151h-16.4ZM578.49,468.62v69.17s-8.02,16.05-16.22,26.21v-95.38h16.22ZM545.87,468.62v114.1s-10.16,9.98-16.05,14.8v-128.9h16.05ZM513.42,468.62v140.84s-11.77,7.67-16.4,10.16v-151h16.4Z"
       id="path25" />
    <path
       class="cls-2"
       d="M594.89,389.82s-51.88,27.1-105.9-2.14c-54.2,29.24-106.08,2.14-106.08,2.14v78.8h211.98v-78.8Z"
       id="path26" />
  </g>
</svg>
