<?xml version="1.0" encoding="UTF-8" standalone="no"?>
<svg
   id="Layer_1"
   data-name="Layer 1"
   viewBox="0 0 960 960"
   version="1.1"
   sodipodi:docname="kg.svg"
   inkscape:version="1.4 (86a8ad7, 2024-10-11)"
   xmlns:inkscape="http://www.inkscape.org/namespaces/inkscape"
   xmlns:sodipodi="http://sodipodi.sourceforge.net/DTD/sodipodi-0.dtd"
   xmlns="http://www.w3.org/2000/svg"
   xmlns:svg="http://www.w3.org/2000/svg">
  <sodipodi:namedview
     id="namedview6"
     pagecolor="#ffffff"
     bordercolor="#666666"
     borderopacity="1.0"
     inkscape:showpageshadow="2"
     inkscape:pageopacity="0.0"
     inkscape:pagecheckerboard="0"
     inkscape:deskcolor="#d1d1d1"
     inkscape:zoom="0.42447917"
     inkscape:cx="355.73006"
     inkscape:cy="571.28834"
     inkscape:window-width="1920"
     inkscape:window-height="1017"
     inkscape:window-x="-8"
     inkscape:window-y="-8"
     inkscape:window-maximized="1"
     inkscape:current-layer="Layer_1" />
  <defs
     id="defs1">
    <style
       id="style1">
      .cls-1, .cls-2 {
        fill: red;
      }

      .cls-1, .cls-2, .cls-3, .cls-4, .cls-5 {
        stroke-width: 0px;
      }

      .cls-1, .cls-5 {
        fill-rule: evenodd;
      }

      .cls-3 {
        fill: none;
      }

      .cls-4 {
        fill: #fff;
      }

      .cls-6 {
        mask: url(#mask);
      }

      .cls-5 {
        fill: #ff0;
      }
    </style>
    <mask
       id="mask"
       x=".11"
       y=".09"
       width="959.91"
       height="959.91"
       maskUnits="userSpaceOnUse">
      <g
         id="a">
        <circle
           class="cls-4"
           cx="480.07"
           cy="480.04"
           r="479.96"
           id="circle1" />
      </g>
    </mask>
  </defs>
  <g
     class="cls-6"
     mask="url(#mask)"
     id="g1">
    <path
       class="cls-2"
       d="M.11.09h959.91v959.91H.11V.09Z"
       id="path1" />
  </g>
  <g
     id="g6">
    <polygon
       class="cls-3"
       points="27.6 101.1 760.3 101.1 760.3 873.61 27.77 873.61 27.6 101.1"
       id="polygon1" />
    <path
       class="cls-5"
       d="M258.07,483.19c19.54-25.05,60.02-.56,93.11-18.56-39.25,2.23-60.55-19.86-91.52-16.7,32.03-20.78,59.31,6.68,95.22-4.45-47.52-4.08-45.41-26.54-88.53-29.69,38.37-17.26,57.2,17.81,94.87,9.83-44.35-10.76-50.16-38.23-83.07-44.16,48.05-7.61,44.88,22.27,92.05,25.98-47.87-21.53-35.2-40.45-75.33-56.78,44.88-1.11,41.89,31.55,87.12,40.08-38.72-25.98-33.97-49.73-66-68.29,38.02.74,41.71,41.75,80.43,54.37-34.5-28.76-25.52-53.26-55.26-79.05,37.66,9.28,32.21,44.72,71.46,67.17-29.04-33.96-17.95-58.45-43.3-86.47,36.26,12.43,22.53,46.02,60.19,77.94-21.65-37.48-8.27-61.42-29.57-93.15,33.79,18.56,17.42,52.7,48.75,86.84-14.78-38.41,0-62.35-15.14-96.49,28.86,22.82,11.79,59.38,35.02,94.45-8.45-48.25,11.26-56.23,5.1-98.35,21.82,28.39-2.64,56.78,14.08,98.35-1.76-47.32,22-58.45,17.78-96.49,21.82,34.14-12.14,63.83,2.11,100.39,3.52-45.09,31.68-56.6,32.21-91.67,17.07,32.1-20.24,55.3-14.08,97.98,12.14-47.13,42.06-52.89,45.76-84.62,10.21,37.11-30.62,54.56-28.16,95.75,12.14-41.75,49.46-46.76,57.2-77.57,4.58,39.34-32.21,46.39-42.42,89.81,19.36-35.26,53.15-38.41,68.29-66.43-1.23,38.97-42.77,43.98-55.44,80.54,23.94-30.99,53.86-25.61,77.79-53.07-2.46,35.26-44.7,33.22-67.23,69.59,26.05-25.24,65.12-17.63,85.01-39.34-1.06,30.99-52.8,28.76-77.44,56.41,30.27-17.26,68.47-7.05,90.64-23.38-4.22,27.28-58.79,21.15-85.19,42.31,36.08-10.58,63.89,5.57,93.28-6.12-14.26,26.54-63.89,9.83-90.29,27.09,31.33-5.57,64.59,14.29,93.11,7.98-9.33,22.82-63.71-1.48-93.28,12.99,35.2-.56,58.08,23.2,90.47,21.53-17.6,20.78-65.47-7.79-93.28-2.97,33.97,7.42,59.84,37.11,85.71,38.6-21.12,17.07-60.72-21.9-92.93-16.89,33.09,9.28,60.9,48.99,79.91,49.92-20.42,14.85-60.9-33.96-88.53-32.29,33.44,16.14,48.93,56.6,71.11,62.35-27.28,9.28-54.21-43.98-83.6-45.83,33.97,22.64,35.9,57.15,62.13,72.37-27.46,7.42-47.17-52.89-76.21-57.9,27.98,21.53,32.03,67.73,50.69,82.39-28.16,1.48-38.19-61.42-66.88-70.51,24.64,21.71,18.66,68.66,37.66,88.89-29.04-6.31-25.34-61.24-55.79-79.79,21.82,29.32,10.56,70.7,24.99,94.08-28.51-12.06-16.02-61.24-43.3-89.07,14.78,31.17-1.06,67.36,10.56,97.42-25.87-13.36-8.45-71.44-28.34-94.64,9.15,36-7.74,65.69-.88,97.79-26.58-32.47,4.05-64.95-19.01-98.35,5.98,38.23-19.18,64.58-15.14,96.49-21.12-25.98,11.26-67.73-5.1-100.39,3.52,37.3-29.04,69.96-26.75,93.52-17.07-30.06,19.01-65.69,9.33-100.02-2.11,35.63-34.85,54.93-41.01,87.22-11.09-35.63,27.98-61.42,24.64-96.49-11.26,33.4-42.94,46.76-54.21,79.05-9.15-35.63,37.14-54.56,38.37-92.04-14.26,35.26-52.27,42.87-64.77,69.77-4.75-35.26,48.4-51.22,50.34-84.8-17.07,32.29-58.61,33.4-73.04,59.2-2.11-35.26,53.86-39.71,62.66-76.64-17.07,27.46-62.66,24.12-81.49,46.39,2.99-32.85,63.36-34.89,73.04-64.21-22.53,22.82-64.24,13.36-88,31.55,13.2-32.29,70.05-25.42,82.72-48.8-24.99,13.92-69.52.56-91.52,14.29,20.06-30.43,64.24-12.25,89.23-33.4-40.66,6.31-65.12-10.76-93.28-2.78h.18Z"
       id="path2" />
    <path
       class="cls-5"
       d="M616.41,475.58c3.37,196.85-274.16,207.12-283.89,10.53-3.36-196.88,274.16-207.07,283.89-10.53"
       id="path3" />
    <path
       class="cls-1"
       d="M598.1,475.95c-2.77,170.99-244.01,170.97-246.76,0,2.77-171.11,244.18-171.08,246.93,0h-.18Z"
       id="path4" />
    <path
       class="cls-5"
       d="M581.03,476.13c-2.38,146.97-209.72,146.94-212.08,0,2.38-146.96,209.72-146.94,212.08,0"
       id="path5" />
    <path
       class="cls-1"
       d="M384.79,402.84c29.39-.56,65.83,2.23,89.94,22.64,25.83-17.05,56.25-24.67,86.59-21.71l15.84,30.43c-22.88-2.41-45.23.93-71.63,12.25,32.58,25.34,51.11,66.09,49.46,108.74-3.87,5.2-9.86,10.76-13.73,15.77,5.63-42.87-15.84-90.93-47.17-116.16,25.34,38.78,40.48,73.48,36.26,121.55l-14.43,9.46c6.69-42.31-2.64-91.85-32.38-120.62,22.95,35.77,31.44,79.71,23.58,122.1-4.58,1.48-11.62,5.57-16.37,7.05,11.36-40.09,5.71-83.4-15.49-118.76-20.8,35.12-26.25,77.99-14.96,117.65l-15.14-4.64c-8.1-45.46,3.17-96.49,22.7-123.22-19.89,12.25-38.72,64.39-33.44,117.65l-13.38-6.49c-6.51-39.71,10.56-91.48,35.2-121.36-27.81,18.56-50.51,63.83-46.46,112.64-4.22-3.9-8.27-5.94-12.5-9.83-4.93-42.68,18.48-85.55,45.76-111.34-22.54-10.07-47.04-14.33-71.46-12.43,4.35-9.91,8.98-21.42,13.2-31.36Z"
       id="path6" />
  </g>
</svg>
