<?xml version="1.0" encoding="UTF-8" standalone="no"?>
<svg
   id="Layer_1"
   data-name="Layer 1"
   viewBox="0 0 960 960"
   version="1.1"
   sodipodi:docname="xk.svg"
   inkscape:version="1.4 (86a8ad7, 2024-10-11)"
   xmlns:inkscape="http://www.inkscape.org/namespaces/inkscape"
   xmlns:sodipodi="http://sodipodi.sourceforge.net/DTD/sodipodi-0.dtd"
   xmlns="http://www.w3.org/2000/svg"
   xmlns:svg="http://www.w3.org/2000/svg">
  <sodipodi:namedview
     id="namedview3"
     pagecolor="#ffffff"
     bordercolor="#666666"
     borderopacity="1.0"
     inkscape:showpageshadow="2"
     inkscape:pageopacity="0.0"
     inkscape:pagecheckerboard="0"
     inkscape:deskcolor="#d1d1d1"
     inkscape:zoom="0.42447917"
     inkscape:cx="-2.3558282"
     inkscape:cy="408.7362"
     inkscape:window-width="1920"
     inkscape:window-height="1017"
     inkscape:window-x="-8"
     inkscape:window-y="-8"
     inkscape:window-maximized="1"
     inkscape:current-layer="Layer_1" />
  <defs
     id="defs1">
    <style
       id="style1">
      .cls-1 {
        fill: #244aa5;
      }

      .cls-1, .cls-2, .cls-3 {
        stroke-width: 0px;
      }

      .cls-2 {
        fill: #d0a650;
      }

      .cls-3 {
        fill: #fff;
      }

      .cls-4 {
        mask: url(#mask);
      }
    </style>
    <mask
       id="mask"
       x=".46"
       y=".09"
       width="959.91"
       height="959.91"
       maskUnits="userSpaceOnUse">
      <g
         id="a">
        <circle
           class="cls-3"
           cx="480.42"
           cy="480.04"
           r="479.96"
           id="circle1" />
      </g>
    </mask>
  </defs>
  <g
     class="cls-4"
     mask="url(#mask)"
     id="g1">
    <path
       class="cls-1"
       d="M.46.09h959.91v959.91H.46V.09Z"
       id="path1" />
  </g>
  <g
     id="g3">
    <path
       class="cls-2"
       d="M367.84,483.66l2.73-1.47,3.35-1.05s1.68-.84,2.52-.84,2.73,1.05,3.14,1.89c.63.84,3.56,2.1,3.56,2.1,0,0,2.1.84,2.31,0,.42-.42,1.26-1.05,2.1-1.05s1.26-.84,1.26-1.47.42-1.47,1.05-2.31c.63-.84,2.1-1.26,2.1-1.26,0,0,2.1-.84,2.1-2.1s2.31-2.1,3.56-2.1c1.05-.21,0-.84,2.73-.42,2.94.21,3.35-.63,3.56-1.47,0-1.05,0-1.89,1.89-1.68,1.68.21,2.73.21,2.73-.84,0-.84,1.68-1.47-1.26-2.1-2.94-1.05-2.73-.42-2.94-1.68-.21-1.47,0-1.26-2.1-1.47-2.1,0-.84-1.05-1.05-2.1,0-1.05-.63-1.47-1.05-2.1-.42-.84-1.47-.84-1.47-1.68,0-1.05,0-1.68-1.26-1.68s-1.47,0-1.47-.84c0-1.05.21-1.89,1.26-1.89s1.68-.84,1.47-1.89v-3.14l1.26-1.68,4.82-4.19c.42-.63,1.89-1.26,2.52,0,.63,1.47,1.05,1.89,1.68,2.52.42.63,2.1,0,2.52-.42.42-.84.42-3.14,1.47-4.61,1.05-1.26,1.68-2.1,1.89-2.94s.63-2.1,1.89-2.1,1.89-1.47,1.89-2.31.42-1.89,2.1-2.1c1.26,0,2.1-1.05,2.52.21.42,1.47.84,1.47,1.89,1.89.84.42,2.1,1.05,2.94.42s1.05-1.68,2.1-1.05,1.89,0,2.1-1.26l.42-3.14s.21-.84,2.1-.84.42-1.05,1.26-1.68c1.05-.84,1.05-1.47,2.1-1.05,1.26.42,3.14-.42,2.1-1.47-.84-1.26-2.94-2.94-1.89-4.19,1.26-1.26,1.68-3.56.63-3.77-1.26-.21-2.94.21-3.14-1.05s-.63-2.1.63-2.52c1.47,0,3.98,0,4.61-.84s3.14-1.05,3.14-2.94c0-2.1.63-2.1.84-3.35.21-1.05.21-3.35-.63-4.4-1.03-1.02-1.94-2.14-2.73-3.35-.52-1.01-1.43-1.77-2.52-2.1-1.47-.42-2.73-.63-2.73-1.68,0-1.26,1.05,0,1.05-2.73s-2.1-3.35-2.1-3.35l-2.73-1.68s-5.03-1.26-6.29-1.26-2.94-1.47-1.47-2.31c1.68-1.05,2.1-2.52,1.47-3.77s-1.05-2.1-3.14-2.73-2.73-1.05-1.89-2.31c1.05-1.26,1.26-2.1,2.52-1.26,1.05.84,2.94,1.26,4.61.42,1.47-.63,2.1-1.26,2.94-.42.63.63,1.68,1.47,2.94.42,1.05-1.26,3.14-1.26,4.19-.84,1.05.63,3.35.42,4.19,0,.63-.42,2.1-1.68,2.1-2.31s1.05-2.1,2.1-2.52c.84-.63,2.1-2.31,3.14-2.31s1.26-1.05,1.26-1.89.84-2.1,1.05-2.52c0-.63,2.1-1.47,3.35-.21,1.47,1.05,3.14,1.47,3.14,1.47h2.94c1.05-.42,2.31-.84,3.77,0,1.26,1.05,3.35,1.05,3.35,1.05l.21-2.1c0-.84.42-2.1-.21-2.52-.84-.63-1.89-1.26-.21-2.52,1.47-1.05,1.47-.84,2.94-.84l3.77.21c1.26,0,3.14,1.05,3.14,2.1s.84,1.89,1.68,2.31c1.05.63,2.1,1.05,1.89,2.1-.42.84-.42,1.47.63,1.47,1.26-.21,1.68.42,1.68,1.26s.21,1.47,1.47,1.89,1.68,1.05,1.68,2.1l.21,2.1c.21.84,1.68,2.31,1.68,2.31,0,0,2.1,2.52-.63,1.26s-3.35-1.68-4.19-1.47c-1.05,0-1.68.63-1.68.63l-2.1.42c-1.26,0-2.1,2.1-.63,2.31,1.68.42,2.1.63,2.1,2.1s-.42.84-1.26,1.68c-.84.84-1.47.42-2.73.42-1.47,0-1.68,1.05-1.68,2.1s.42.84,1.05,1.68c.63,1.05,1.68,1.05,2.52.21,1.05-.84,1.89-1.47,2.31.21.42,1.68,1.47,1.68,2.52,1.68,1.26,0,1.68,0,2.52-.63,1.05-.42,2.1,0,2.52,1.47,0,1.47,1.05,1.68,2.1,2.1.84.63,1.47,1.05,1.68,1.89.21.84.84,1.26,1.68.63,1.05-.42,2.52-.84,3.14,0l1.68,2.1v1.68l3.77,1.26.42,1.68c0,.84.63,1.05,1.47.84h2.73s1.47-.63,1.47-1.68.63-1.26,1.47-1.26c1.05,0,3.14.63,3.77-.42s2.31-1.47,3.56-.84l5.03,1.89s-.42,0,.63,2.1c1.26,1.68,3.35,1.68,3.35,1.68l.63,2.31c.42.63,2.1,1.05,3.14.42.84-.84,2.1-1.68,3.35-1.68s2.1,0,2.1-.63-1.26-1.26-1.26-2.52c0-1.05,1.26-1.05,1.47-2.1,0-1.05,1.26,0,2.1.63.63.42,1.68,1.47,1.68,2.1s1.68,3.14,2.52,3.56c1.05.42,3.56.63,4.19-.42.84-.84,2.73-1.26,2.73,1.05-.21,2.1-.63,2.1.63,2.94,1.47.84,1.68,3.35.42,3.98-1.05.63-1.47.84-1.47,2.1s-.42,2.73.42,3.35c1.05.84,1.68,1.26,1.68,2.1s1.05,3.98,1.05,3.98c0,0,.63,3.14.42,3.77s-.42,2.1,1.26,1.89c1.68-.21,2.1-.21,2.1,1.26s.63,2.1-.42,2.52c-.84.42-1.47,2.1-.63,2.73,1.05.21,1.89.84,2.1,1.47,0,.84,1.68,2.1,2.73,1.26.84-.63,1.05-1.05,1.89-1.26.84,0,1.26-.63.63-1.47-.84-1.05-1.05-1.89-.21-2.52.84-.42,1.05-2.1,1.05-2.1,0,0,1.26-1.68,2.52,0,1.47,1.47,1.68.84,2.52.84,1.05,0,1.47,1.05,1.47,1.89s2.1.63,2.1,2.1l.21,4.82s0,2.1,1.26,2.73c1.05.84.84.84.21,1.89-.42.84-.21,2.1-.21,2.94s.21,1.05-.63,1.89c-1.05.63-1.47,1.47-.84,2.52.63,1.26.42,1.89,2.1,3.14,1.47,1.26,1.26,1.89,1.26,2.73s1.47,2.1,1.47,2.94c0,1.05,1.26,2.1,2.1,2.1s2.1,1.89,2.1,2.73l.42,3.35s-.21.42.84.42c1.26,0,2.1,1.26,2.31,0,.42-1.47,1.68-1.68,2.31-2.1.84-.42,2.52-1.05,3.14-.63.84.63,1.89.63,2.52.63h4.61s.84,0,1.47,1.47c.63,1.47,2.31,2.94,1.47,3.77-1.05.63-1.05,2.1,0,2.1,1.26,0,2.52,0,2.52.84,0,1.05,0,1.68,1.05,1.05s1.68-.63,2.1,0c.21.84,1.05.84,2.1,1.26.84.63,1.26.21,1.89-.42.63-.84,2.94-1.47,2.94-1.47,0,0,3.14-.63,4.19-.42l2.73,1.05s.84,1.89.42,2.94c-.42,1.05-.84.84-.42,2.52.42,1.68-.42,1.89-1.05,1.68-.84-.21-1.68-.21-1.68,1.26s-.84,1.68-.84,2.94,0,1.05-.63,1.68c-.84.42-1.05,1.47,0,1.68,1.26,0,.84,1.26.84,2.1v2.1s0,1.05-1.26,1.05c-1.47,0-2.52,0-2.73.84s-1.68,2.1-.42,3.14c1.47.84,1.05,1.47.21,1.68-.84.42-1.26,2.1,0,2.73,1.68.63,1.47,1.05.63,1.89-1.05.63-2.94,1.26-2.94,2.1,0,1.26-.42,1.26-1.68,1.47s-1.68,1.47-.21,3.35c1.26,1.89,1.68,1.47,2.73,1.47.84,0,.84-1.47.84-1.47h4.19c1.05,0,2.52,0,3.14-.42.84-.42,2.94-1.47,2.94.21s.42,1.47,1.47,2.1c.84.84,1.05.21,2.1,1.26.63,1.05.84.21,1.26-1.05.63-1.26,1.89-2.52,2.73-1.05s1.05,1.05,2.1,1.05c1.26,0,1.68.63,1.68,1.47s1.26.84,2.52.63,1.47.84,2.1,1.68.84.84,1.68.84c.63,0,1.47,0,2.1-.84.63-.63,1.26-1.68,2.1-.42s2.31.84,2.73-.42c.42-1.26,2.1-2.31,3.14-.84.84,1.26,1.68,1.26,2.73,1.47.84.21,2.31.21,2.94,1.05.63,1.05,2.52,2.52,1.05,3.56-1.26,1.05-2.94,2.52-1.68,2.73,1.26.42,2.1.84,2.73,1.68.84.84,3.35,1.26,4.4,1.47,1.26,0,2.1.42,3.56-.84,1.26-1.05,2.73-1.05,2.52.42-.21,1.47.63,3.14.63,3.14,0,0,.84,2.1.84,3.14,0,.84,0,1.05,1.68,2.1,1.68,1.05,1.47,1.89,2.94.84,1.26-1.26,1.68-1.68,1.68-2.52v-2.94s2.1-.42,2.73-.84,3.98-2.1,4.61-1.47,1.89.42,2.52,0h3.14c.84,0,2.1,0,3.77-1.26,1.47-1.26,1.47-.84,2.52,0s.84,2.1.42,2.73c-.63.63,0,2.1,1.26,2.1,1.47,0,1.68.84,1.68,1.89l.42,2.73c.21.84.21,1.05,2.31,1.68,2.1.42,1.89,1.68,2.1,2.73.42.84.42,1.47-.63,1.47-1.26,0-1.68.63-1.68,1.47-.21.84-2.1,1.26-2.1,1.26l-1.68-.42s-1.26,0-1.68.84c-.63.63-1.89,2.1-1.05,3.35s.84,2.1,0,2.52c-.84.63-1.26,3.14-2.1,2.73s-1.68,0-2.31.42c-.84.42-.63,2.94.84,3.77,1.68,1.05,2.1,2.1,2.1,2.1l1.68,2.73-1.05,1.47c-.42.84-1.47,2.73-.42,3.14s.63,2.1-.42,2.1c-1.26,0-2.52-.42-2.73,1.05-.21,1.47-.84,1.05-2.1.84-1.05,0-4.19-.84-4.82.63-.63,1.47-.84,2.1-2.1,1.68-1.47,0-1.05,2.1-.63,3.14.42.84,1.89,2.1,1.89,2.1,0,0,1.05.84,1.05,2.73s-.84,1.68-1.47.42-2.31-1.05-2.52.21c-.21,1.47-.42,3.56-1.89,3.56-1.26,0-1.89.42-2.52,1.26-.42.63-1.47,1.89-1.47,2.52s-.21,1.47-1.26,1.68c-.84,0-1.05,2.1-1.05,2.1,0,0-2.31.42-2.52,1.26s0,2.31-1.89,2.52c-1.89.21-2.94,1.47-3.56,2.31-.63,1.05-.84,1.68,0,2.52.84.84,1.26,3.77,2.1,4.19,1.26.63,2.1.84,1.68,2.1,0,1.68-1.26,2.73.21,2.73,1.68,0,2.52.42,2.1,1.68q-.63,1.26-1.89,1.89c-1.05.63-1.68.63-1.68,2.1s.42,1.26-.63,1.89c-1.05.42-1.05,1.26-1.05,2.1,0,1.26-.21.84-1.47,2.1s-2.73,1.26-3.77.84c-.84-.21-1.05-.21-1.26-1.26-.21-1.26-2.1-1.26-2.94-1.05-1.05.21-2.31,1.26-2.31,1.26,0,0-1.68,1.05-1.05,2.1.84.84.42,2.1-.84,2.1-1.47,0-4.61,1.47-5.45,0-1.05-1.89-3.77-2.94-4.19-.63-.42,2.1,1.26,1.89,1.05,4.19-.21,2.1-.63,2.1-1.47,2.73-.63.63-.63,1.26-.84,2.1s-.42,2.94.84,3.56c1.47.84,2.1,2.73,2.1,3.77s0,2.1,1.26,2.1c1.47,0,2.52,0,2.73-1.47.21-1.26,2.94-1.89,3.14.63.21,2.52,0,3.77,1.26,4.82.84,1.05,1.68,2.52,2.52,3.14s2.1,5.03,2.1,5.03c-2.1.42-2.52,2.94-3.77,3.35-.63.21-1.26,0-2.1.42-.42.42-.42,1.05-1.05,1.47-1.47.63-1.05-1.68-2.94-.84-1.47.63-1.68,2.52-3.77,1.68-1.26-.42-2.1-4.82-2.31-5.87,0-.63-1.47-2.52-1.89-3.14-1.26-2.1-3.77,0-4.61-.63-1.47-.84-.84-2.52-2.73-2.52-4.19-.42-1.26,2.31-2.94,2.94-3.14,1.26-3.14-2.94-5.66-1.05-.84.63,1.47,1.26.84,2.52-.42.84-2.94,2.52-2.73,3.77.21,1.68,2.1,2.1,2.52,3.56,1.47,3.56-.84,6.29-4.61,3.35-2.1-1.68-2.31-4.61-5.45-4.4-.84,0-1.05.63-1.89.84-.63,0-1.26-.63-2.1-.42-1.05.42,0,1.26-.21,1.89l-1.89,1.68c-.84,1.05-.63,2.1-1.89,3.14-1.05.63-1.89.21-2.94,1.47-1.26,1.26-1.47,3.14-2.94,4.4-.84.63-1.26-1.89-2.1,0-.42,0-.42.21-.63.42v1.26c2.1,4.19-2.1,5.45-3.56,8.39-.63,1.05,1.05,2.1.42,2.94-.42.84-2.31,2.52-2.52,2.94,0,.42-.21,1.26-.63,1.68s-1.47,0-1.68.63c0,.63,1.26,1.26,1.68,1.68s-.21,1.05,0,1.26c2.1,2.1.84,1.47,1.89,3.35,0,.42.84,0,1.05.63s-.42.63-.21,1.26l1.68,2.31c0,.63-3.14,2.1-3.77,2.1-1.89,0,1.68-3.77-1.47-3.77-1.26,0-1.26,2.94-1.68,3.35h-1.68c-1.89,0-3.14,2.31-3.98,2.52h-2.31c-.84,0-1.68.84-2.52.84-.42,0-.63-.42-1.05-.63l-3.35-1.05c-.63,0-1.68.84-2.1.42-.42-.21.63-1.47-.84-2.1l-1.26-2.94c.42-1.68,1.05-3.56.84-5.24-.42-2.1-3.14-3.56-4.19-5.03-.42-1.05-.84-4.19-2.1-4.82-1.23-.96-2.23-2.17-2.94-3.56,0-.42.42-1.05,0-1.68s-1.47-.84-1.68-1.68c-.21-.84,0-3.14-.84-3.56-.84-.63-6.92-1.26-8.39-1.47-.63,0-1.26,0-1.89-.63l-.84-1.05-1.89.21h-1.47c-2.1,1.26-2.31,2.94-4.19,4.19-1.89,1.68-3.77,1.47-5.66,3.14-1.26,1.05-2.1,3.56-3.14,4.61-.42.63-1.26,0-1.47.21l-3.35,3.14s0,.63-.42.84l-2.1.42h-2.1c-.84.42-.84,1.47-4.19,2.1l-.63.42-1.26,1.05h-1.26c-.84,0-1.47.63-2.1.84-1.89,0-4.61-.84-5.87-.21-.84.21-3.14,2.73-4.19,2.94h-1.26c-.42,0-1.05,2.94-1.26,3.56l-4.19,3.56-1.05,1.68c-.42.42-1.05.84-1.68.84-.84,0-2.1-.63-2.73-.84-1.47,0-5.66-.42-6.92,0-1.26,0-.84,3.98-4.19,4.19l-5.66.84s-1.26-.84-2.52-.42c-.42,0-1.68,1.47-1.68,2.1v.63l.21.63c-.63,1.05-2.31,2.1-2.94,3.35l-.42.63c-.42.42-2.73,1.26-2.94,1.68-.63,1.26,1.47,2.52,1.26,3.14-.42,1.68-2.94,3.35-3.56,5.03-.21.63.84,2.73.63,3.56,0,2.1-.84,4.82-.84,6.92l.42,2.73,1.26.84c.21.42,2.94,5.45,2.94,6.08.42,3.56-4.82,2.31-1.68,6.08l1.26,1.68,4.82,3.77c0,.63-3.35,1.26-3.77,1.68-1.68,1.68-2.94,4.4-4.4,6.08-1.05.84-1.89,0-2.94,2.1-.42.84,0,2.73-.63,3.35-.84.84-1.47-.42-2.1,0-.42,0-.63,1.26-.84,1.47-1.05.63-8.81,4.82-9.43,4.4-.42,0-.84-1.47-.84-1.89-.21-.63-.57-1.21-1.05-1.68-2.1-1.68-5.03-2.1-6.92,0-.63.63-.63,1.47-1.26,2.1l-3.35,2.52s-.63.84-1.05.63c-.63,0-2.52-2.1-3.14-2.73-.84-1.05-3.35-3.56-3.56-4.61,0-4.19-3.14-8.18-4.4-12.16h2.1c2.1-1.26,1.47-5.03,5.24-3.56.63-.63.42-1.26,1.47-1.89.42,0,1.05-.42,1.05-.63,1.47-2.1,2.94-9.64,1.68-11.74-1.26-1.68-2.52-1.68-3.56-4.61v-2.52c0-.84-1.47-5.03-1.68-5.45-.21-.21-1.05-.63-1.05-1.05,0-.21-.42-4.82-.21-5.24-1.26-3.56-5.87-5.87-6.08-6.29l-1.68-2.94c-.63-1.05-.63-1.68-1.05-2.73,0-.42-.84-.84-.84-1.47,0-.84,2.52-2.94,2.52-4.4,0-.63-1.68-2.1-1.47-3.14.42-.84,2.1-2.94,2.1-4.19s-2.73-4.19-3.14-5.66c0-.84,1.05-1.47.84-1.89l-3.56-3.77c-.21-.63,1.05-1.26,0-2.1-.84-1.05,0-.63-.21-1.47l-1.68-2.52-2.73-9.64c-.42-.63-1.05-1.05-1.26-1.68l-.84-2.1s-2.73-.84-3.14-1.68c-.42-.63-.42-2.52-1.26-3.56-.21-.63-.84-.42-1.26-.84l-.42-1.05c-.84-1.05-2.31,0-3.35-4.19l-4.19-2.94-.42-.63c-1.05-.42-2.52-.42-3.35-1.26l-3.35-.21-.84-1.26c-1.26-.42-3.56-.21-4.61-1.26-1.05-.84-1.26-4.61-2.73-4.19h-.84c-1.05-1.47-4.61-1.68-6.29-2.52-.42-.21-1.68,0-1.68-.42l.21-2.1-2.1-2.31c-1.26-.42-.63-.63-1.68-1.05-2.31-.21-2.52,0-4.19,1.68l-1.68.63c-.84.42-1.05,2.1-2.1,1.26l-1.05-.84c-.63-.63-1.05-.21-1.26-1.26-2.1-1.05-7.55,2.52-8.81,0-1.05-.63-1.68,0-2.52-.63-.42-.42,1.05-5.03-2.94-6.71l2.94-2.1v-1.68c0-.63.42-2.1.21-2.73l-.84-1.68c-.42-.63,0-1.26-.42-2.1l-1.26-.63c-1.05-.84-2.1-1.26-2.94-2.31l-.63-.84c-.63-.42-3.14-1.26-2.94-2.31,0-.42.42-.42.63-.84,0-.42,0-1.05.42-1.47,1.05-1.47,3.56-.84,3.14-3.56,0-1.26-1.05-2.31-1.26-3.77l-.84-1.05c-2.52-.21-2.1-2.73-2.94-3.35-2.73-1.68-4.61-.63-1.68-4.19.42-1.05-2.52-2.94-3.14-3.35-1.05-1.05-.42-3.14-.84-4.19-.21-.63-2.1-1.47-2.52-2.1l-.84-1.68v-.42c.63-.42.42-1.05,0-1.68,0-.42-.84-.21-1.05-.42-2.52-2.1-5.24-3.14-8.39-4.19-.84-.42-.42-1.05-1.26-1.47l-4.82-2.1c-.63,0-.84-1.89-1.26-2.31-.39-.64-.88-1.21-1.47-1.68,0-1.68-1.05-1.89-2.1-2.73l-.42-1.05,1.05-3.56c.21-.63,1.05-1.26,1.05-2.1l-.84-3.77c-1.26-3.35-2.73-2.94-2.1-7.55.21-1.05,0-1.47.63-2.31l.42-.63,2.1-1.47c.63-.84,1.05-3.14,2.1-3.77.42-.63,2.52-1.68,2.73-2.1.42-.42.84-1.47.63-2.1h-2.1c-.21,0-1.05-.84-1.89-.84l-.42-.84-.42-.42-2.1-.63c-1.05-.42-2.1-.42-3.14-1.05-1.47-.84-3.14-3.35-4.82-3.56-2.1-.42-3.35,0-5.24,0-1.26.21-1.26-.42-2.1-.84-1.47-.42-.42.84-3.56-.21-.42-.42,0-1.47.21-1.89-.42,0-1.05.21-1.68,0-2.52-.63-1.68-2.94-2.1-4.19-.42-.63-1.47-.42-2.1-.42v-.63c.63-.63-.84-2.31-.84-2.52,0-.63,3.14-1.05,3.56-1.05.21-.42-.21-.84-.21-1.26l.63-2.94-2.1-2.1c.21-.21.84-.63.84-1.05,1.47-4.19,3.77-.84,5.87-4.61l1.05-2.1h.42l1.26.42c.21-.42.84-.63,1.26-.84l.84.21c3.77-.84,2.94-2.1,5.03-3.77.63-.42,2.31-.42,3.14-.84.84.42,2.1,1.68,3.56,2.31,1.05.42,4.82,1.26,5.45,1.68.84.42,1.05,1.47,1.89,1.89,2.1,1.05.84-.84,2.94-.42,2.1.42,3.77,2.1,5.87,2.94h1.47c.63,0,4.19-.84,4.4-.63l1.47.63c.42,0,.84-1.05,1.05-1.05,1.47.21,1.68.84,3.56.63,0,0,1.05-5.45,2.1-5.66.42,0,1.89,1.26,2.1,1.47.84,0,0-1.26,0-1.26,0-.42-1.26-3.77-1.05-4.19,0,0,.84.42,1.26,0,1.26,0,2.52-.42,3.35-1.26l1.89-2.52c0-.42-.42-1.47-.21-1.68l1.47-1.05c.63-.63.84-1.68,1.68-2.1,3.56-.42,4.61-3.14,7.76-3.56h1.05l.63,1.05c.21.21,2.1,1.47,2.73,1.47l.63-.63c.63,0,2.31-1.05,2.52-1.68,0,0-.42-.42,0-.84,0-.21,2.1-2.1,2.52-2.1h2.31l1.05,1.05h1.89c.42,0,.63-.84,1.05-1.05l.21.21Z"
       id="path2" />
    <path
       class="cls-3"
       d="M533.67,229.57l27.04,83.23-70.86-51.36h87.42l-70.65,51.36,27.04-83.23ZM638.91,248.23l27.04,83.23-70.86-51.36h87.63l-70.86,51.15,27.04-83.02ZM739.33,284.7l27.25,83.23-70.86-51.36h87.42l-70.86,51.36,27.04-83.23ZM426.75,229.57l-27.25,83.23,70.86-51.36h-87.42l70.86,51.36-27.25-83.23h.21ZM321.5,248.23l-27.25,83.23,70.86-51.36h-87.42l70.65,51.15-27.25-83.23.42.21ZM221.5,284.7l27.04,83.23-70.86-51.36h87.42l-70.65,51.36,27.04-83.23Z"
       id="path3" />
  </g>
</svg>
