<svg xmlns="http://www.w3.org/2000/svg" viewBox="0 0 512 512"><mask id="a"><circle cx="256" cy="256" r="256" fill="#fff"/></mask><g mask="url(#a)"><path fill="#333" d="M0 144.7l257-22.4 255 22.4v222.6l-254.9 31L0 367.3z"/><path fill="#d80027" d="M0 0h512v144.7H0z"/><path fill="#496e2d" d="M0 367.3h512V512H0z"/><g fill="#eee"><path d="M315.6 209.3l21 29 34-11-21 29 21 28.8-34-11-21 29v-36l-34-11 34-11z"/><path d="M258.3 328.4a72.3 72.3 0 1 1 34.4-136 89 89 0 1 0 0 127.3 72 72 0 0 1-34.4 8.7z"/></g></g></svg>