<?xml version="1.0" encoding="UTF-8" standalone="no"?>
<svg
   id="Layer_1"
   data-name="Layer 1"
   viewBox="0 0 960 960"
   version="1.1"
   sodipodi:docname="li.svg"
   inkscape:version="1.4 (86a8ad7, 2024-10-11)"
   xmlns:inkscape="http://www.inkscape.org/namespaces/inkscape"
   xmlns:sodipodi="http://sodipodi.sourceforge.net/DTD/sodipodi-0.dtd"
   xmlns="http://www.w3.org/2000/svg"
   xmlns:svg="http://www.w3.org/2000/svg">
  <sodipodi:namedview
     id="namedview41"
     pagecolor="#ffffff"
     bordercolor="#666666"
     borderopacity="1.0"
     inkscape:showpageshadow="2"
     inkscape:pageopacity="0.0"
     inkscape:pagecheckerboard="0"
     inkscape:deskcolor="#d1d1d1"
     inkscape:zoom="0.42447917"
     inkscape:cx="-51.828221"
     inkscape:cy="269.74233"
     inkscape:window-width="1920"
     inkscape:window-height="1017"
     inkscape:window-x="-8"
     inkscape:window-y="-8"
     inkscape:window-maximized="1"
     inkscape:current-layer="Layer_1" />
  <defs
     id="defs1">
    <style
       id="style1">
      .cls-1 {
        stroke-width: 1.71px;
      }

      .cls-1, .cls-2, .cls-3, .cls-4 {
        stroke: #000;
        stroke-linecap: round;
        stroke-linejoin: round;
      }

      .cls-1, .cls-4, .cls-5 {
        fill: #ffd83d;
      }

      .cls-2, .cls-6 {
        fill: #000001;
      }

      .cls-2, .cls-3, .cls-4 {
        stroke-width: 1.28px;
      }

      .cls-6, .cls-7, .cls-8, .cls-9, .cls-5 {
        stroke-width: 0px;
      }

      .cls-7 {
        fill: #fff;
      }

      .cls-3 {
        fill: none;
      }

      .cls-8 {
        fill: #ce1126;
      }

      .cls-9 {
        fill: #002b7f;
      }

      .cls-10 {
        mask: url(#mask);
      }
    </style>
    <mask
       id="mask"
       x="-.14"
       y=".09"
       width="959.91"
       height="959.91"
       maskUnits="userSpaceOnUse">
      <g
         id="a">
        <circle
           class="cls-7"
           cx="479.81"
           cy="480.04"
           r="479.96"
           id="circle1" />
      </g>
    </mask>
  </defs>
  <g
     class="cls-10"
     mask="url(#mask)"
     id="g3">
    <g
       id="g2">
      <path
         class="cls-8"
         d="M-.14,480.04l478.46-74.24,481.46,74.24v479.96H-.14v-479.96Z"
         id="path1" />
      <path
         class="cls-9"
         d="M-.14.09h959.91v479.96H-.14V.09Z"
         id="path2" />
    </g>
  </g>
  <g
     id="g41">
    <g
       id="li-a">
      <path
         class="cls-5"
         d="M246.09,258.28l-3.04,99.99h-101.43c-12.48-24.32-22.72-44.8-22.72-72.79,0-23.36,18.4-41.92,44.8-41.92,28,0,58.87,9.44,82.39,14.72"
         id="path3" />
      <g
         id="g5">
        <path
           class="cls-4"
           d="M131.07,262.92v57.59M139.06,257v76.79M147.38,253v91.51M155.38,251.08v71.83M163.54,250.76v72.47M171.7,248.04v75.19M179.86,248.04v75.19M188.02,248.84v75.19M196.18,249.64v75.03M204.34,254.28v75.19M212.34,255.08v84.63M220.66,255.08v75.19M228.66,255.08v75.19"
           id="path4" />
        <path
           class="cls-2"
           d="M182.1,251.4c17.28,2.72,55.03,20.48,50.72,44.32-6.08,33.92-25.92,20.32-52.16,15.52l-19.84,6.56c-7.2,7.2-17.6,13.92-24.64,5.12h-11.84v46.08h130.23v-111.19l-72.47-6.4Z"
           id="path5" />
      </g>
      <circle
         class="cls-1"
         cx="240.34"
         cy="243.4"
         r="7.84"
         id="circle5" />
      <circle
         class="cls-1"
         cx="222.58"
         cy="239.08"
         r="7.84"
         id="circle6" />
      <circle
         class="cls-1"
         cx="204.5"
         cy="234.6"
         r="7.84"
         id="circle7" />
      <circle
         class="cls-1"
         cx="186.42"
         cy="231.56"
         r="7.84"
         id="circle8" />
      <circle
         class="cls-1"
         cx="168.34"
         cy="229.8"
         r="7.84"
         id="circle9" />
      <circle
         class="cls-1"
         cx="150.74"
         cy="230.76"
         r="7.84"
         id="circle10" />
      <circle
         class="cls-1"
         cx="133.79"
         cy="236.52"
         r="7.84"
         id="circle11" />
      <circle
         class="cls-1"
         cx="119.55"
         cy="247.08"
         r="7.84"
         id="circle12" />
      <circle
         class="cls-1"
         cx="109.47"
         cy="261.64"
         r="7.84"
         transform="translate(-166.33 327.78) rotate(-80.78)"
         id="circle13" />
      <circle
         class="cls-1"
         cx="104.51"
         cy="278.92"
         r="7.84"
         id="circle14" />
      <circle
         class="cls-1"
         cx="104.67"
         cy="296.67"
         r="7.84"
         id="circle15" />
      <circle
         class="cls-1"
         cx="108.19"
         cy="314.11"
         r="7.84"
         id="circle16" />
      <path
         class="cls-1"
         d="M243.85,253.8l-.8,10.4c-19.68-3.2-47.52-14.08-73.59-14.08-24,0-42.56,9.6-42.56,33.92s10.08,45.6,23.52,67.67l-13.92,6.4c-12.48-24-22.88-44.8-22.88-72.63,0-23.36,18.4-46.4,50.08-46.4,28,0,56.63,9.6,80.15,14.72"
         id="path16" />
    </g>
    <g
       id="li-a-2"
       data-name="li-a">
      <path
         class="cls-5"
         d="M264.01,258.28l3.04,99.99h101.43c12.48-24.32,22.72-44.8,22.72-72.79,0-23.36-18.4-41.92-44.8-41.92-28,0-58.87,9.44-82.39,14.72"
         id="path17" />
      <g
         id="g19">
        <path
           class="cls-4"
           d="M379.04,262.92v57.59M371.04,257v76.79M362.72,253v91.51M354.72,251.08v71.83M346.56,250.76v72.47M338.41,248.04v75.19M330.25,248.04v75.19M322.09,248.84v75.19M313.93,249.64v75.03M305.77,254.28v75.19M297.77,255.08v84.63M289.45,255.08v75.19M281.45,255.08v75.19"
           id="path18" />
        <path
           class="cls-2"
           d="M328.01,251.4c-17.28,2.72-55.03,20.48-50.72,44.32,6.08,33.92,25.92,20.32,52.16,15.52l19.84,6.56c7.2,7.2,17.6,13.92,24.64,5.12h11.84v46.08h-130.23v-111.19l72.47-6.4Z"
           id="path19" />
      </g>
      <circle
         class="cls-1"
         cx="269.77"
         cy="243.4"
         r="7.84"
         id="circle19" />
      <circle
         class="cls-1"
         cx="287.53"
         cy="239.08"
         r="7.84"
         id="circle20" />
      <circle
         class="cls-1"
         cx="305.61"
         cy="234.6"
         r="7.84"
         id="circle21" />
      <circle
         class="cls-1"
         cx="323.69"
         cy="231.56"
         r="7.84"
         id="circle22" />
      <circle
         class="cls-1"
         cx="341.77"
         cy="229.8"
         r="7.84"
         id="circle23" />
      <circle
         class="cls-1"
         cx="359.36"
         cy="230.76"
         r="7.84"
         id="circle24" />
      <circle
         class="cls-1"
         cx="376.32"
         cy="236.52"
         r="7.84"
         id="circle25" />
      <circle
         class="cls-1"
         cx="390.56"
         cy="247.08"
         r="7.84"
         id="circle26" />
      <circle
         class="cls-1"
         cx="400.64"
         cy="261.64"
         r="7.84"
         transform="translate(-36.74 67.55) rotate(-9.22)"
         id="circle27" />
      <circle
         class="cls-1"
         cx="405.6"
         cy="278.92"
         r="7.84"
         id="circle28" />
      <circle
         class="cls-1"
         cx="405.44"
         cy="296.67"
         r="7.84"
         id="circle29" />
      <circle
         class="cls-1"
         cx="401.92"
         cy="314.11"
         r="7.84"
         id="circle30" />
      <path
         class="cls-1"
         d="M266.25,253.8l.8,10.4c19.68-3.2,47.52-14.08,73.59-14.08,24,0,42.56,9.6,42.56,33.92s-10.08,45.6-23.52,67.67l13.92,6.4c12.48-24,22.88-44.8,22.88-72.63,0-23.36-18.4-46.4-50.08-46.4-28,0-56.63,9.6-80.15,14.72"
         id="path30" />
    </g>
    <path
       class="cls-1"
       d="M255.05,147.57l-8.32,15.52,8.32,15.36,8.16-15.36-8.16-15.68v.16ZM255.05,186.6l-8.32,15.36,8.32,15.52,8-15.68-8-15.2ZM225.62,182.6l12.96,8.16,12.96-8.16-12.8-8.32-13.12,8.32ZM258.41,182.6l12.96,8.16,13.12-8.16-13.12-8.32-12.96,8.32Z"
       id="path31" />
    <circle
       class="cls-1"
       cx="255.05"
       cy="182.76"
       r="6.24"
       id="circle31" />
    <circle
       class="cls-1"
       cx="255.05"
       cy="222.6"
       r="16.8"
       id="circle32" />
    <path
       class="cls-3"
       d="M250.73,206.44v10.56c-3.97.19-7.92.62-11.84,1.28M271.21,218.28c-3.97-.67-7.98-1.1-12-1.28v-10.56M238.74,226.76c5.39-.93,10.85-1.42,16.32-1.44,5.44,0,10.88.48,16,1.44"
       id="path32" />
    <path
       class="cls-1"
       d="M238.74,250.92c-1.6,27.2-4.8,55.19-15.52,75.35l17.28-7.04c6.08-22.88,7.36-52.47,9.12-66.55l-10.88-1.76ZM271.37,250.92l-11.04,1.76c1.92,14.08,3.2,43.68,9.12,66.55l17.28,7.04c-10.56-20.16-13.76-48-15.36-75.35"
       id="path33" />
    <path
       class="cls-1"
       d="M255.05,310.11c-20.8,0-36,9.6-36.8,34.56-5.12-8.96-26.4-36.8-46.4-33.12-11.84,2.24-22.4,18.72-20.48,37.44-9.92-28.16-38.56-32.8-59.67-16,18.72,15.2,27.04,60.47,42.72,79.99h241.1c15.68-19.52,24-64.79,42.72-79.99-20.96-16.8-49.76-12.16-59.51,16,1.6-18.72-8.8-35.2-20.8-37.44-19.84-3.68-41.12,24.16-46.24,33.12-.8-24.8-16-34.56-36.8-34.56h.16Z"
       id="path34" />
    <g
       id="g40">
      <path
         class="cls-2"
         d="M375.2,412.98c0,8.96-53.75,18.72-120.15,18.72s-120.31-9.6-120.31-18.72,53.91-13.6,120.31-13.6,120.15,4.8,120.15,13.6"
         id="path35" />
      <circle
         class="cls-4"
         cx="255.05"
         cy="245.64"
         r="5.6"
         id="circle35" />
      <circle
         class="cls-4"
         cx="255.05"
         cy="257.8"
         r="5.92"
         id="circle36" />
      <circle
         class="cls-4"
         cx="255.05"
         cy="270.92"
         r="6.56"
         id="circle37" />
      <circle
         class="cls-4"
         cx="255.05"
         cy="285.47"
         r="7.52"
         id="circle38" />
      <circle
         class="cls-4"
         cx="255.05"
         cy="301.63"
         r="8.16"
         id="circle39" />
      <path
         class="cls-6"
         d="M251.85,317.31c-.96,0-1.76.8-1.6,2.24l.96,6.88c.32,2.4,1.6,1.6,2.08,0,.32-1.92.16-3.2.32-6.56,0-1.76-.96-2.56-1.92-2.56h.16ZM258.25,317.31c-.96,0-1.76.8-1.76,2.56,0,3.36,0,4.64.32,6.4.32,1.92,1.6,2.56,2.08,0l.8-6.72c.32-1.6-.64-2.24-1.44-2.24M245.93,318.27c-.88,0-1.6.72-1.6,1.6,0,1.6.48,3.68.64,6.08.32,2.4,2.08,1.6,2.24,0,0-1.28.32-3.52,0-6.24,0-.96-.32-1.44-.96-1.6-.11-.01-.21-.01-.32,0v.16ZM263.69,318.27c-.48,0-.96.48-1.12,1.6-.09,2.03.02,4.07.32,6.08,0,1.6,1.92,2.4,2.08,0,0-2.4.64-4.32.64-5.92,0-.96-.8-1.6-1.6-1.76-.11-.01-.21-.01-.32,0M239.06,320.99c-.8.16-1.6,1.12-1.28,2.08.48,2.08.96,4.32.96,6.4,0,1.76,1.44,1.12,1.6,0,.12-2.13.18-4.27.16-6.4,0-1.6-.8-2.24-1.6-2.08h.16ZM270.41,320.99c-.48.16-.96.8-.96,2.08l.32,6.4c0,1.12,1.6,1.76,1.6,0,0-2.08.32-4.32.8-6.4.32-.96-.48-1.92-1.12-2.08-.16-.04-.32-.04-.48,0h-.16ZM176.02,321.31c-.96,0-1.6,1.12-.96,2.4.96,2.24,2.08,3.52,3.04,5.76.8,2.08,2.24.8,1.76-.64l-2.24-5.92c-.48-1.12-1.12-1.6-1.6-1.6M334.09,321.31c-.64,0-1.12.48-1.6,1.6-1.44,3.04-1.92,4.48-2.4,5.92-.32,1.6.96,2.72,1.92.64l2.88-5.76c.64-1.28,0-2.4-.8-2.4M182.42,321.31c-.8.32-1.12,1.12-.8,2.08.96,1.92,2.08,4,2.88,6.08.64,1.76,2.24,1.28,1.6-.32l-1.6-5.92c-.64-1.6-1.6-2.08-2.08-1.92M327.21,321.31c-.64.16-1.28.8-1.6,1.92-1.12,3.2-1.28,4.16-1.76,5.92-.64,1.6.96,2.08,1.6.32l2.88-6.08c.32-.96,0-1.76-.64-2.08-.16-.04-.32-.04-.48,0M190.42,322.91c-.96.16-1.6,1.44-.96,3.04.64,1.92,1.6,3.68,2.56,5.92s2.4,1.76,2.08.32c-.48-1.44-.8-3.68-1.92-7.2-.48-1.6-1.12-2.24-1.76-2.08M319.69,322.91c-.64,0-1.44.48-1.92,2.08-.96,3.52-1.6,5.76-1.76,7.2-.48,1.6,1.12,1.92,1.92-.32.96-2.24,1.92-4,2.56-5.92.64-1.6,0-2.88-.8-3.04M170.58,324.03c-.96,0-1.6,1.6-1.12,2.72.8,1.6,1.44,2.24,2.24,4.16.96,1.92,1.92.48,1.6-.8-.48-1.28-.96-2.72-1.28-4.48-.32-1.28-.96-1.6-1.6-1.6h.16ZM339.53,324.03c-.64,0-1.12.32-1.6,1.6l-1.12,4.48c-.32,1.28.64,2.72,1.6.8.8-1.92,1.28-2.4,2.24-4.16.48-1.12-.32-2.56-1.12-2.72M232.34,328.51c-1.12,0-2.08,1.28-1.6,2.4.32,1.92,1.28,3.52,1.76,5.92.64,2.08,2.08,1.12,1.92-.32-.12-2.15-.38-4.29-.8-6.4-.32-1.12-.8-1.6-1.44-1.6h.16ZM277.77,328.51c-.48,0-1.12.48-1.28,1.6-.47,2.11-.79,4.25-.96,6.4,0,1.44,1.44,2.4,1.92.32l1.92-5.92c.32-1.12-.64-2.4-1.6-2.4M255.05,330.43c-1.28,0-1.44,1.6-1.44,2.72-.1,3.64-1.21,7.19-3.2,10.24-1.6,1.92-3.68,1.44-5.6.32-1.86-1.01-3.63-2.19-5.28-3.52-2.24-1.6-3.84-.64-1.28,3.04,7.36,10.56,15.36,19.52,15.36,36.8,0,2.08.48,2.72,1.44,2.72s1.28-.64,1.28-2.88c0-17.12,8-26.08,15.36-36.8,2.56-3.52.96-4.48-1.12-2.88-1.64,1.34-3.41,2.52-5.28,3.52-2.08,1.12-4.16,1.6-5.6-.32-1.99-3.05-3.1-6.6-3.2-10.24-.16-1.12-.32-2.72-1.6-2.72h.16ZM198.58,327.87c-.11-.02-.21-.02-.32,0-.48.16-.64.64-.48,1.6l1.76,6.24c.48,1.6,2.24,1.12,1.92-.8l-.96-4.96c-.32-1.28-1.28-2.08-1.92-2.08M311.53,327.87c-.8,0-1.6.8-1.92,2.08-.64,2.24-.64,2.88-.96,4.8-.48,2.08,1.44,2.4,1.76.96l1.92-6.4c0-.8-.16-1.28-.64-1.44-.11-.02-.21-.02-.32,0h.16ZM164.98,328.51c-.96,0-1.6,1.28-.64,2.88.96,1.92,2.72,4.16,3.52,5.6.8,1.28,2.24.32,1.28-1.28-.96-1.6-1.28-3.68-2.56-6.08-.22-.69-.87-1.15-1.6-1.12M344.97,328.51c-.48,0-1.12.32-1.6,1.12-1.12,2.4-1.6,4.32-2.4,6.08-.96,1.6.32,2.56,1.12,1.28.8-1.44,2.56-3.68,3.52-5.6.96-1.6.32-2.88-.64-2.88M114.27,333.79c-.96,0-1.28,1.92-.32,3.2,1.24,1.57,2.64,3.02,4.16,4.32,1.28,1.28,1.6-.32.96-1.6l-2.88-4.32c-.8-1.12-1.44-1.6-1.92-1.6M395.68,333.79c-.48,0-1.12.48-1.76,1.6l-3.04,4.32c-.64,1.28-.32,2.88,1.12,1.6,1.53-1.3,2.92-2.75,4.16-4.32.96-1.28.64-3.2-.48-3.2M122.43,335.39c-.96,0-1.6.64-.8,2.08l3.04,6.08c.8,1.6,3.2,2.08,2.24-.32l-2.08-6.08c-.48-1.12-1.6-1.6-2.4-1.6v-.16ZM387.68,335.39c-.96,0-2.08.64-2.56,1.76l-1.92,6.08c-.96,2.4,1.44,1.92,2.24.32s2.08-4,2.88-6.08c.8-1.44.16-2.08-.64-2.08M106.75,336.03c-1.28,0-1.28,1.12-.16,1.92,1.44,1.12,3.2,2.24,4.8,3.68,2.08,1.6,2.72,0,1.6-1.28-.96-1.28-1.92-2.56-4.64-4-.64-.32-1.12-.32-1.6-.32M403.2,336.03c-.32,0-.96,0-1.6.32-2.56,1.44-3.68,2.72-4.8,4-.96,1.44-.16,2.88,1.76,1.28,1.6-1.44,3.52-2.56,4.8-3.68,1.28-.8,1.12-1.92,0-1.92h-.16ZM227.86,337.15c-.8,0-1.28.8-1.12,1.92l1.6,5.76c.32,1.76,2.4,1.76,2.08,0-.32-1.6-.48-3.68-1.12-6.24-.16-.96-.64-1.44-1.28-1.6-.05,0-.11,0-.16,0v.16ZM281.93,337.15c-.48,0-.96.48-1.28,1.6-.64,2.4-.8,4.48-1.12,6.24-.32,1.6,1.76,1.6,2.08-.16l1.6-5.76c.32-1.12-.32-1.92-.96-1.92-.11-.02-.21-.02-.32,0M179.54,333.95c-.48,0-.8,1.12-.32,2.72,1.7,4.61,2.56,9.49,2.56,14.4-.48,1.92-1.6,2.08-3.04,1.6-1.57-.77-3.07-1.68-4.48-2.72-1.28-.8-2.72.16-.8,1.76,9.6,8,16.48,17.12,19.2,28.16.32,2.24,1.76,2.56,1.44,0-2.24-13.92-2.72-25.44.64-32.48,1.28-2.72,0-5.28-1.92-.96-1.44,2.88-3.52,4-5.28,1.6-2.5-3.9-4.64-8.03-6.4-12.32-.32-1.12-.8-1.6-1.28-1.76-.05,0-.11,0-.16,0h-.16ZM330.09,333.95c-.48,0-.96.64-1.28,1.6-1.12,3.2-4.64,9.92-6.4,12.48s-3.84,1.28-5.12-1.6c-2.08-4.32-3.2-1.76-2.08.96,3.36,7.04,2.88,18.56.8,32.48-.48,2.56.96,2.24,1.6,0,2.96-11.24,9.61-21.15,18.88-28.16,1.92-1.6.48-2.56-.8-1.6-1.42.93-2.92,1.73-4.48,2.4-1.6.64-2.56.48-3.04-1.6-.32-1.92.32-6.24,2.72-14.4.32-1.28,0-2.4-.48-2.56-.1-.04-.22-.04-.32,0M130.91,337.79c-.8,0-1.6.64-1.12,1.92.64,2.24,1.92,4.48,2.4,5.76.48,1.44,1.92.8,1.6-1.12l-.8-4.96c0-.96-1.12-1.6-2.08-1.6M379.04,337.79c-.96,0-1.92.64-2.08,1.6l-.64,4.96c-.32,1.92,1.12,2.56,1.6,1.12.32-1.28,1.6-3.52,2.24-5.76.48-1.28-.16-1.92-1.12-1.92M160.98,335.07c-.96-.16-1.12,2.4-.32,3.52l4.48,4.96c1.28,1.6,2.08.16,1.28-1.12l-4.16-6.08c-.48-.8-.96-1.28-1.28-1.28M348.96,335.07c-.32,0-.8.48-1.28,1.28l-4.16,6.08c-.8,1.28,0,2.72,1.44,1.12l4.32-4.96c.8-1.12.8-3.68-.32-3.52M137.78,341.47c-.64,0-1.12.32-.8,1.6.32,1.92.8,3.2,1.28,4.96.48,1.6,1.6,1.44,1.6-.16l-.48-5.12c-.14-.79-.8-1.38-1.6-1.44v.16ZM372.16,341.47c-.77-.02-1.45.52-1.6,1.28l-.48,5.12c0,1.6,1.28,1.92,1.6.16l1.44-4.8c.32-1.44-.32-1.92-.96-1.92v.16ZM158.74,343.71c-.96,0-1.76,1.12-.64,2.56,1.76,2.4,3.84,4,4.64,4.8.64.96,2.4.64,1.28-1.12l-3.68-5.6c-.32-.64-.96-.8-1.6-.64M350.72,343.71c-.32,0-.8.16-.96.64l-3.84,5.6c-1.12,1.76.64,2.08,1.44,1.28.64-.96,2.72-2.56,4.64-4.96,1.12-1.6.16-2.56-.8-2.56-.11-.01-.21-.01-.32,0h-.16ZM125.63,350.27c-.64,0-.96.64,0,2.08,2.47,3,4.27,6.49,5.28,10.24.16,2.24-.8,2.24-1.76,2.24-3.04,0-4.48-2.24-7.04-2.88-2.72-.48-3.2.8-1.28,2.24,9.17,5.8,17.15,13.29,23.52,22.08,1.6,3.04,3.68,4,2.56,1.28-3.11-6.24-4.44-13.21-3.84-20.16.8-4.48,1.92-7.36,1.76-9.92,0-2.4-1.6-2.24-2.08,0l-1.6,4.48c-.64.8-2.88,1.28-4.8-1.44-2.72-3.34-5.72-6.44-8.96-9.28-.48-.48-1.12-.8-1.6-.96h-.16ZM384.32,350.27c-.48,0-1.12.32-1.76.96-3.18,2.84-6.13,5.95-8.8,9.28-2.08,2.72-4.32,2.24-4.8,1.6-.73-1.47-1.27-3.03-1.6-4.64-.64-2.24-2.08-2.4-2.24,0,0,2.56.96,5.44,1.76,9.92s0,11.52-3.68,20.16c-1.28,2.72.96,1.6,2.56-1.28,6.31-8.78,14.24-16.28,23.36-22.08,1.92-1.44,1.6-2.72-1.12-2.24-2.72.64-4.16,2.88-7.04,2.88-.96,0-2.08,0-1.92-2.24.16-2.08,2.88-7.04,5.28-10.24.96-1.6.8-2.08,0-2.08"
         id="path39" />
      <path
         class="cls-4"
         d="M140.02,402.9l3.2,9.76M146.42,400.98l2.88,9.92M153.46,399.7l1.92,10.24M159.86,398.58l2.08,10.08M168.02,397.78l1.6,10.24M176.82,397.78l1.76,10.08M185.46,394.9l1.28,10.24M193.46,395.38l1.28,10.24M201.3,394.42l1.28,10.24M208.98,393.46l.8,10.4M217.46,393.46l.64,10.4M225.14,392.98l.48,10.4M233.46,392.5l.48,10.24M243.05,392.18l.48,10.4M369.92,402.9l-3.2,9.76M363.52,400.98l-2.72,9.92M356.64,399.7l-1.92,10.24M350.24,398.58l-2.08,10.08M341.77,397.78l-1.6,10.24M333.13,397.78l-1.76,10.24M324.65,394.9l-1.28,10.24M316.49,395.38l-1.28,10.24M308.81,394.42l-1.44,10.24M300.97,393.46l-.8,10.4M292.49,393.46l-.64,10.4M284.97,392.98l-.48,10.4M276.49,392.5l-.32,10.24M266.89,392.18l-.32,10.4M255.05,391.38v11.52"
         id="path40" />
    </g>
  </g>
</svg>
