<svg xmlns="http://www.w3.org/2000/svg" id="Layer_1" data-name="Layer 1" viewBox="0 0 960 960"><defs id="defs1"><style id="style1">.cls-2{fill-rule:evenodd;stroke-width:0;fill:#f31509}</style><mask id="mask" width="959.91" height="959.91" x="-.14" y=".09" maskUnits="userSpaceOnUse"><g id="a"><circle id="circle1" cx="479.81" cy="480.04" r="479.96" style="stroke-width:0;fill:#fff"/></g></mask></defs><g id="g4" style="mask:url(#mask)"><g id="g3"><path id="path1" d="M-.14 313.18 475.69 277l484.08 36.18V646.9l-477.89 60.56L-.14 646.9z" style="stroke-width:0;fill:#f41408"/><path id="path2" d="M-.14.09h959.91v313.1H-.14z" style="stroke-width:0;fill:#000001"/><path id="path3" d="M-.14 646.9h959.91V960H-.14z" style="stroke-width:0;fill:#21873b"/></g></g><path id="path4" d="M299.81 284.23c40.38-98.32 152.82-145.3 251.15-104.93 48 18.89 85.97 56.91 104.8 104.93zm-47.04 12.81c-31.98-2.45-63.68-7.7-94.74-15.68-7.32-2.61-7.71-7.06-6.79-10.45 1.56-4.6 6.43-7.18 11.11-5.88 10.32 2.61 52.14 13.72 90.56 32.01h-.13ZM478.31 125.6c-7.58-41.81-9.54-87.94-8.75-95.65.65-7.84 4.97-9.15 8.49-9.15 4.79.34 8.51 4.34 8.49 9.15 0 10.72-.26 53.97-8.23 95.65m20.91 1.04c-2.98-31.98-3.2-64.16-.65-96.17 1.44-7.71 5.75-8.75 9.28-8.36 3.53.26 8.23 4.31 7.71 9.93-.91 10.45-4.83 53.58-16.33 94.61m18.8 2.6c-.52-42.6 5.23-88.33 7.45-95.91 1.96-7.58 6.4-8.23 9.93-7.58 4.66 1.16 7.62 5.73 6.79 10.45-1.83 10.45-9.28 53.05-24.17 92.91zm20 4.32c3.27-42.34 13.07-87.42 15.68-94.74s7.19-7.58 10.58-6.66c4.53 1.55 7.1 6.34 5.88 10.98-2.74 10.32-13.85 52.14-32.15 90.42m19.61 6.27c5.25-31.65 13.25-62.78 23.91-93.04 3.4-7.06 7.84-6.93 11.24-5.75 4.45 1.97 6.57 7.08 4.83 11.63-3.66 9.93-18.56 50.57-40.12 87.16h.13Zm18.29 7.71c10.45-41.29 27.96-83.89 32.01-90.69 3.92-6.79 8.36-6.27 11.5-4.7 4.17 2.3 5.87 7.42 3.92 11.76-4.57 9.8-22.74 49-47.43 83.63m18.03 9.41c10.73-30.26 24.02-59.55 39.72-87.55 4.44-6.4 8.89-5.49 12.02-3.66 3.91 2.75 5.05 8.04 2.61 12.15-5.23 9.15-26.79 46.65-54.36 79.06m17 10.84c13.29-29.21 29.12-57.19 47.3-83.63 4.97-6.01 9.28-4.7 12.15-2.61 3.68 3.03 4.42 8.37 1.7 12.28-6.14 8.75-30.84 44.17-61.15 73.96m15.94 12.42c20.91-37.11 48.87-73.7 54.49-79.32 5.49-5.49 9.67-3.92 12.41-1.57 2.61 2.35 4.18 8.23.52 12.54-6.79 8.1-34.5 41.29-67.43 68.34m15.04 13.73c18.15-26.46 38.57-51.29 61.02-74.22 6.01-4.97 10.06-3.01 12.54-.52 3.18 3.66 2.95 9.16-.52 12.54-22.48 22.88-46.97 43.7-73.18 62.2h.13Zm13.59 15.02c27.05-32.8 61.02-64.03 67.43-68.47 6.53-4.44 10.19-2.09 12.54.52 2.83 3.9 2.15 9.34-1.57 12.41-24.47 20.76-50.7 39.34-78.4 55.54m11.76 15.42c22.43-22.99 46.83-43.98 72.91-62.72 6.79-3.92 10.45-1.18 12.41 1.83 2.09 2.87 2.09 8.89-2.61 12.15-26.04 18.65-53.67 34.96-82.58 48.74zm10.72 16.73c24.32-20.97 50.42-39.77 78.01-56.19 7.06-3.27 10.45-.26 12.28 2.74 1.7 3.01 1.31 9.15-3.66 12.02-9.15 5.23-46.52 27.18-86.64 41.42m9.94 19.09c26.18-18.58 53.89-34.88 82.85-48.74 7.32-2.61 10.45.65 11.89 3.92 1.67 4.47-.37 9.48-4.7 11.5-28.97 13.73-59.1 24.88-90.03 33.32m7.57 18.42c27.59-16.35 56.58-30.22 86.64-41.42 7.58-1.96 10.45 1.57 11.63 4.83 1.31 3.27-.39 9.15-5.75 11.11-30.02 11.23-60.98 19.75-92.52 25.48m6.01 19.6a549.989 549.989 0 0 1 90.16-33.71c7.58-1.31 10.06 2.35 10.98 5.88.85 4.65-1.98 9.18-6.53 10.45-10.45 2.87-52.14 13.98-94.61 17.25zM457.93 126.25c-8.61-30.83-14.51-62.36-17.64-94.21 0-7.84 4.05-9.54 7.58-9.93 4.86-.08 8.93 3.65 9.28 8.49 1.05 10.45 4.83 53.58.78 95.91zm-20.13 2.61c-11.28-30.02-19.89-60.98-25.74-92.52-.65-7.84 3.27-9.93 6.66-10.58 4.84-.55 9.26 2.78 10.06 7.58 1.83 10.45 9.41 53.05 9.02 95.52m-19.99 4.45a550.0339 550.0339 0 0 1-33.84-90.03c-1.31-7.71 2.48-10.19 5.88-11.11 4.69-.84 9.24 2.06 10.45 6.66 2.87 10.32 14.11 52.01 17.51 94.48m-18.82 5.88c-16.27-27.66-30.09-56.69-41.29-86.77-1.96-7.58 1.57-10.45 4.83-11.63 4.64-1.31 9.5 1.21 11.11 5.75 3.66 10.06 18.42 50.57 25.35 92.65m-18.29 7.44a548.857 548.857 0 0 1-48.74-82.71c-2.61-7.45.52-10.45 3.79-11.89 4.51-1.76 9.61.31 11.63 4.7 4.44 9.67 22.61 48.87 33.19 90.16zm-18.56 9.67c-20.9-24.4-39.61-50.59-55.93-78.27-3.27-7.06-.39-10.45 2.61-12.15 4.34-2.16 9.62-.56 12.02 3.66 5.36 9.15 27.05 46.65 41.29 86.77m-16.97 10.71c-22.91-22.53-43.81-47.01-62.46-73.18-3.92-6.79-1.31-10.45 1.7-12.41 4.16-2.39 9.45-1.26 12.28 2.61 6.14 8.75 30.84 44.17 48.48 82.98m-15.81 11.76c-24.75-20.43-47.67-42.99-68.47-67.43-4.44-6.4-2.09-10.19.65-12.41 3.9-2.83 9.34-2.15 12.41 1.57 6.79 8.1 34.5 41.29 55.4 78.4v-.13Zm-15.42 13.98c-26.48-18.18-51.31-38.64-74.22-61.15-4.97-6.01-3.01-10.06-.52-12.54 3.66-3.18 9.16-2.95 12.54.52 7.58 7.58 38.16 38.03 62.2 73.18M300.6 207c-27.89-15.87-54.35-34.14-79.06-54.62-5.49-5.49-3.79-9.67-1.44-12.41 3.37-3.39 8.77-3.62 12.41-.52 8.23 6.79 41.16 34.63 68.08 67.56m-12.67 16.33a550.152 550.152 0 0 1-83.63-47.43c-6.01-5.1-4.7-9.41-2.61-12.28 3.04-3.76 8.48-4.5 12.41-1.7 26.34 18.29 51.05 38.84 73.83 61.42m-11.37 17.5c-30.28-10.62-59.58-23.86-87.55-39.59-6.53-4.57-5.62-8.89-3.79-12.02 2.71-3.96 8.01-5.16 12.15-2.74 9.28 5.23 46.78 26.79 79.19 54.36m-9.54 17.89c-41.16-10.45-83.89-27.96-90.69-31.88-6.66-3.92-6.27-8.36-4.7-11.5 2.35-4.19 7.51-5.89 11.89-3.92 9.67 4.44 48.87 22.74 83.63 47.3zm-7.57 18.03c-31.67-5.33-62.81-13.46-93.04-24.3-7.06-3.27-6.93-7.84-5.75-11.11 1.31-3.27 6.27-6.79 11.63-4.83 9.93 3.66 50.57 18.56 87.16 40.25" class="cls-2"/><path id="path5" d="M252.9 297.04c-42.47-3.27-87.55-12.94-94.87-15.68-7.32-2.61-7.71-7.06-6.79-10.45 1.56-4.6 6.43-7.18 11.11-5.88 10.32 2.61 52.14 13.72 90.56 32.01" class="cls-2"/><path id="path6" d="M135.04 285.15h689.55v25.22H135.04z" style="fill-rule:evenodd;stroke-width:0"/></svg>