<?xml version="1.0" encoding="UTF-8" standalone="no"?>
<svg
   id="Layer_1"
   data-name="Layer 1"
   viewBox="0 0 960 960"
   version="1.1"
   sodipodi:docname="md.svg"
   inkscape:version="1.4 (86a8ad7, 2024-10-11)"
   xmlns:inkscape="http://www.inkscape.org/namespaces/inkscape"
   xmlns:sodipodi="http://sodipodi.sourceforge.net/DTD/sodipodi-0.dtd"
   xmlns="http://www.w3.org/2000/svg"
   xmlns:svg="http://www.w3.org/2000/svg">
  <sodipodi:namedview
     id="namedview55"
     pagecolor="#ffffff"
     bordercolor="#666666"
     borderopacity="1.0"
     inkscape:showpageshadow="2"
     inkscape:pageopacity="0.0"
     inkscape:pagecheckerboard="0"
     inkscape:deskcolor="#d1d1d1"
     inkscape:zoom="0.42447917"
     inkscape:cx="-30.625767"
     inkscape:cy="298.01227"
     inkscape:window-width="1920"
     inkscape:window-height="1017"
     inkscape:window-x="-8"
     inkscape:window-y="-8"
     inkscape:window-maximized="1"
     inkscape:current-layer="Layer_1" />
  <defs
     id="defs1">
    <style
       id="style1">
      .cls-1 {
        fill: #564dff;
      }

      .cls-1, .cls-2, .cls-3, .cls-4, .cls-5, .cls-6, .cls-7, .cls-8, .cls-9, .cls-10 {
        stroke-width: 0px;
      }

      .cls-1, .cls-2, .cls-11, .cls-4, .cls-5, .cls-12, .cls-13, .cls-9, .cls-14, .cls-15, .cls-10, .cls-16 {
        fill-rule: evenodd;
      }

      .cls-2 {
        fill: #da4500;
      }

      .cls-3 {
        fill: #ffde00;
      }

      .cls-11, .cls-12, .cls-13, .cls-17, .cls-14, .cls-15, .cls-18, .cls-19, .cls-16 {
        stroke: #000;
      }

      .cls-11, .cls-12, .cls-16 {
        fill: #ff0;
      }

      .cls-11, .cls-17 {
        stroke-width: .6px;
      }

      .cls-4 {
        fill: red;
      }

      .cls-12 {
        stroke-width: 3px;
      }

      .cls-13 {
        fill: #a77b3b;
      }

      .cls-13, .cls-19 {
        stroke-width: 3.1px;
      }

      .cls-20 {
        stroke: #ff0;
        stroke-width: 2.5px;
      }

      .cls-20, .cls-17, .cls-18, .cls-19 {
        fill: none;
      }

      .cls-6 {
        fill: #00319c;
      }

      .cls-7 {
        fill: #fff;
      }

      .cls-8 {
        fill: #de2110;
      }

      .cls-9 {
        fill: #008f00;
      }

      .cls-14 {
        fill: #008500;
        stroke-width: .9px;
      }

      .cls-15 {
        fill: #ff1900;
      }

      .cls-18 {
        stroke-width: .3px;
      }

      .cls-21 {
        mask: url(#mask);
      }

      .cls-10 {
        fill: #cac9c7;
      }
    </style>
    <mask
       id="mask"
       x="3.26"
       y="-.54"
       width="954.86"
       height="959.91"
       maskUnits="userSpaceOnUse">
      <g
         id="a">
        <circle
           class="cls-7"
           cx="480.69"
           cy="476.89"
           r="477.43"
           id="circle1" />
      </g>
    </mask>
  </defs>
  <g
     class="cls-21"
     mask="url(#mask)"
     id="g4">
    <g
       id="g3">
      <path
         class="cls-6"
         d="M3.26-.54h269.86l67.14,474.82-67.14,480.04H3.26V-.54Z"
         id="path1" />
      <path
         class="cls-8"
         d="M688.26-.54h269.86v954.86h-269.86l-55.39-479.86L688.26-.54Z"
         id="path2" />
      <path
         class="cls-3"
         d="M265.6,4.51h415.14v954.86h-415.14V4.51Z"
         id="path3" />
    </g>
  </g>
  <path
     class="cls-15"
     d="M564.94,649.44l47.9,69.11c2.71,3.91,5.34,7.7,1.37,10.22-4.09,2.59-2.8,12.7-.09,16.6,5.34,7.7,12.02,9.09,15.99,6.58l36.33-22.99c3.97-2.51,5.24-8.94-.1-16.64-3.01-3.87-11.94-8.99-15.92-6.47-4.09,2.59-6.72-1.21-9.35-5.01l-48.05-69.33"
     id="path4" />
  <path
     class="cls-13"
     d="M583.5,600.55c21.39,24.3,28.83,52.15,16.64,61.96-12.19,9.8-39.64-1.97-61.03-26.27-21.39-24.3-28.73-52.24-16.54-62.04s39.55,1.87,61.03,26.27l-.1.08Z"
     id="path5" />
  <path
     class="cls-15"
     d="M370.36,621.14l-42.29,72.37c-2.39,4.09-4.71,8.07-8.87,5.85-4.28-2.28-13.09,3.45-15.48,7.54-4.71,8.07-2.94,14.38,1.22,16.6l38.05,20.3c4.16,2.22,10.71.35,15.43-7.72,2.22-4.33,2.88-14.26-1.29-16.48-4.28-2.28-1.96-6.26.37-10.24l42.42-72.6"
     id="path6" />
  <path
     class="cls-13"
     d="M506.98,570.81h-38.54c-1.36,1.3-12.26,70.27-24.1,96.81-14.43,32.27-57.88,60.77-57.88,60.77,0,0,25.87,7.81,33.77,13.01,1.91-.52,43.3-9.24,48.21-59.86,4.77,50.62-29.01,73.65-29.01,73.65,0,0,48.34,13.79,48.34,46.19,0-32.27,48.21-46.19,48.21-46.19,0,0-24.24-23.03-29.01-73.78,9.53,50.75,46.3,59.47,48.34,59.86,7.76-5.07,33.64-13.01,33.64-13.01,0,0-43.3-28.24-57.74-60.64-11.85-26.42-22.88-95.64-24.1-96.81h-.14Z"
     id="path7" />
  <path
     class="cls-13"
     d="M342.85,340.12l72.45,23.03c25.88-1.64,46.49-21.34,48.21-46.06.82-51.27-19.34-69.23-24.1-69.23l9.53-9.11-14.3-14.05s4.9-23.94,53.11-23.03c48.21.91,48.21,23.03,48.21,46.06s-24.1,23.16-24.1,69.23c1.78,24.75,22.44,44.43,48.34,46.06l72.31-23.03v230.84h-289.65v-230.71Z"
     id="path8" />
  <g
     id="g10">
    <path
       class="cls-17"
       d="M453.79,349.32l4.81,13.87,4.84-13.87,4.81,13.87,9.65-13.87,4.71,14.61,4.94-14.61,7.12,14.61,7.35-14.61,4.81,13.87,4.84-13.87"
       id="path9" />
    <path
       class="cls-18"
       d="M473.17,298.61l-9.67,50.75M477.93,298.61v50.75M487.6,298.61v50.75M497.27,298.61l4.77,50.75M506.94,298.61l4.77,50.75"
       id="path10" />
  </g>
  <g
     id="g17">
    <path
       class="cls-13"
       d="M294.64,201.8c-48.21,23.03-48.21,69.23-48.21,92.26,1.63,20.95,0,461.04,0,461.04,0,0,3.13-26.03,24.1-46.06l23.97-23.03,24.1-23.03c17.7-15.35,24.1-46.19,24.1-69.23v-322.71s0-23.16-48.21-69.23h.14Z"
       id="path11" />
    <path
       class="cls-19"
       d="M342.85,294.14c-.54,0-24.1-23.03-24.1-23.03l-24.1,23.03-24.1-23.03-24.1,23.03"
       id="path12" />
    <path
       class="cls-19"
       d="M342.85,317.03c-.54,0-24.1,23.03-24.1,23.03l-24.1-23.03-24.1,23.03-24.1-23.03"
       id="path13" />
    <path
       class="cls-19"
       d="M342.85,386.05c-.54,0-24.1-23.03-24.1-23.03l-24.1,23.03-24.1-23.03-24.1,23.03"
       id="path14" />
    <path
       class="cls-19"
       d="M318.47,271.1l.27,392.02"
       id="path15" />
    <path
       class="cls-19"
       d="M294.64,294.25l.27,391.06"
       id="path16" />
    <path
       class="cls-19"
       d="M270.57,271.1l.27,438.08"
       id="path17" />
  </g>
  <g
     id="g24">
    <path
       class="cls-13"
       d="M680.78,201.8c48.21,23.03,48.21,69.23,48.21,92.26-1.63,20.95,0,461.04,0,461.04,0,0-3.13-26.03-24.1-46.06l-23.97-23.03-24.1-23.03c-17.7-15.35-24.1-46.19-24.1-69.23v-322.71s0-23.16,48.21-69.23h-.14Z"
       id="path18" />
    <path
       class="cls-19"
       d="M632.58,294.14c.54,0,24.1-23.03,24.1-23.03l24.1,23.03,24.1-23.03,24.1,23.03"
       id="path19" />
    <path
       class="cls-19"
       d="M632.58,317.03c.54,0,24.1,23.03,24.1,23.03l24.1-23.03,24.1,23.03,24.1-23.03"
       id="path20" />
    <path
       class="cls-19"
       d="M632.58,386.05c.54,0,24.1-23.03,24.1-23.03l24.1,23.03,24.1-23.03,24.1,23.03"
       id="path21" />
    <path
       class="cls-19"
       d="M656.95,271.1l-.27,392.02"
       id="path22" />
    <path
       class="cls-19"
       d="M680.78,294.25l-.27,391.06"
       id="path23" />
    <path
       class="cls-19"
       d="M704.85,271.1l-.27,438.08"
       id="path24" />
  </g>
  <path
     class="cls-13"
     d="M424.3,614.75c-12.78,29.31-35.27,48.41-49.98,42.55-14.71-5.86-16.35-34.56-3.57-63.87,12.78-29.31,35.4-48.36,50.1-42.5,14.71,5.86,16.4,34.44,3.57,63.87l-.13-.05Z"
     id="path25" />
  <path
     class="cls-4"
     d="M343.04,363.21h289.34v138.35h-289.34v-138.35Z"
     id="path26" />
  <path
     class="cls-1"
     d="M343.04,501.56h289.34v68.81c0,46.2-72.21,46.2-144.67,92.39-72.46-46.2-144.67-46.2-144.67-92.39v-68.81Z"
     id="path27" />
  <path
     class="cls-20"
     d="M342.85,363.15h289.51v207.68c0,46.06-72.31,46.06-144.76,92.26-72.31-46.19-144.76-46.19-144.76-92.39v-207.55Z"
     id="path28" />
  <path
     class="cls-12"
     d="M434.64,372.56s-48.23,33.91-48.23,66.36,50.62,43.32,50.62,43.32c0,0-16.87,0-16.87,43.26,0,21.69,50.62,10.88,50.62,21.69s-.67,36.97,0,54.14c0,10.82-33.75,0-33.75,10.82,0,5.38,25.36,32.45,50.71,32.45s50.62-27.07,50.62-32.45c0-10.82-33.75,0-33.75-10.82v-54.14c0-10.82,50.62,0,50.62-21.69,0-43.26-16.87-43.26-16.87-43.26,0,0,50.71-10.82,50.71-43.32s-48.33-66.36-48.33-66.36c0,0,27.17,44.73,27.17,66.36,0,10.82-12.68,32.51-46.42,32.51,0,0-8.58-10.88-16.87,0,0,0-9.72-10.88-16.87,0-2.48,3.67-6.86-10.88-16.97,0-4.19,2.87-7.63-10.88-16.87,0-16.87,0-50.62-10.88-50.62-32.51s31.36-66.36,31.36-66.36h0Z"
     id="path29" />
  <path
     class="cls-12"
     d="M435.53,566.29c-3.43,2.2,4.38,37.46,6.67,38.98,3.43,2.14,23.74,2.14,27.07,0,2.38-1.53,0-34.64-3.34-36.78-3.43-2.2-28.03-3.67-30.5-2.2h.1Z"
     id="path30" />
  <path
     class="cls-12"
     d="M539.9,566.29c3.43,2.2-4.38,37.46-6.67,38.98-3.43,2.14-23.74,2.14-27.07,0-2.38-1.53,0-34.64,3.34-36.78,3.43-2.2,28.03-3.67,30.5-2.2h-.1Z"
     id="path31" />
  <path
     class="cls-12"
     d="M470.28,553.31c0,6.73-7.85,12.19-17.53,12.19s-17.53-5.46-17.53-12.19,7.85-12.19,17.53-12.19,17.53,5.46,17.53,12.19Z"
     id="path32" />
  <path
     class="cls-12"
     d="M540.06,553.31c0,6.73-7.85,12.19-17.53,12.19s-17.53-5.46-17.53-12.19,7.85-12.19,17.53-12.19,17.53,5.46,17.53,12.19Z"
     id="path33" />
  <path
     class="cls-5"
     d="M518.11,623.86c0,2.92-3.89,5.35-8.51,5.35s-8.27-2.43-8.27-5.35,3.65-5.35,8.27-5.35,8.51,2.43,8.51,5.35M474.34,623.86c0,2.92-3.89,5.35-8.51,5.35s-8.51-2.43-8.51-5.35,3.89-5.35,8.51-5.35,8.27,2.43,8.27,5.35h.24Z"
     id="path34" />
  <path
     class="cls-16"
     d="M487.69,450.92l-10.36-13.08-17.01,2.16,2.39-16.25-13.68-9.78,13.68-9.9-2.39-16.25,17.01,2.29,10.36-13.08,10.36,13.08,16.87-2.29-2.26,16.25,13.55,9.9-13.55,9.9,2.26,16.12-17.01-2.16-10.23,13.08Z"
     id="path35" />
  <path
     class="cls-16"
     d="M559.91,501.48l29.01,13.92,29.01-13.92-29.01-13.79-29.01,13.79Z"
     id="path36" />
  <path
     class="cls-16"
     d="M352.51,501.48l29.01,13.92,29.01-13.92-29.01-13.79-29.01,13.79Z"
     id="path37" />
  <path
     class="cls-16"
     d="M605.02,584.12c-8.88-5.63-23.84-2.82-32.22,1.78-8.38,4.6-16.77,9.2-17.9,25.88-9.63-16.02-2.05-30.84,10.71-37.84,13.99-6.57,30.92-2.16,39.48,10.3l-.07-.11Z"
     id="path38" />
  <path
     class="cls-16"
     d="M405.77,556.84c0,5.07-4.3,9.17-9.6,9.17s-9.6-4.11-9.6-9.17h0c0-5.07,4.3-9.17,9.6-9.17s9.6,4.11,9.6,9.17Z"
     id="path39" />
  <path
     class="cls-16"
     d="M396.04,589.18c0,5.07-4.3,9.17-9.6,9.17s-9.6-4.11-9.6-9.17h0c0-5.07,4.3-9.17,9.6-9.17s9.6,4.11,9.6,9.17Z"
     id="path40" />
  <path
     class="cls-16"
     d="M391.18,570.7c0,5.07-4.3,9.17-9.6,9.17s-9.6-4.11-9.6-9.17h0c0-5.07,4.3-9.17,9.6-9.17s9.6,4.11,9.6,9.17Z"
     id="path41" />
  <path
     class="cls-16"
     d="M415.25,589.18c0,5.07-4.3,9.17-9.6,9.17s-9.6-4.11-9.6-9.17h0c0-5.07,4.3-9.17,9.6-9.17s9.6,4.11,9.6,9.17Z"
     id="path42" />
  <path
     class="cls-16"
     d="M420.12,570.7c0,5.07-4.3,9.17-9.6,9.17s-9.6-4.11-9.6-9.17h0c0-5.07,4.3-9.17,9.6-9.17s9.6,4.11,9.6,9.17Z"
     id="path43" />
  <path
     class="cls-16"
     d="M405.77,575.32c0,5.07-4.3,9.17-9.6,9.17s-9.6-4.11-9.6-9.17h0c0-5.07,4.3-9.17,9.6-9.17s9.6,4.11,9.6,9.17Z"
     id="path44" />
  <g
     id="g48">
    <path
       class="cls-2"
       d="M441.03,254.28c-24.31,0-27.48,3.65-38.42,7.29,0-10.46,26.99-22.86,51.3-22.86,0,7.78-6.32,15.32-12.89,15.32v.24Z"
       id="path45" />
    <path
       class="cls-10"
       d="M478.23,229.48c0,5.11-4.38,9.24-9.73,9.24s-9.73-4.13-9.73-9.24,4.38-9.24,9.73-9.24,9.73,4.13,9.73,9.24"
       id="path46" />
    <path
       class="cls-16"
       d="M376.62,197.24v13.79h24.1v69.1h14.57v-69.1h24.1v-13.79h-24.1v-18.48h-14.71v18.48h-23.97Z"
       id="path47" />
    <path
       class="cls-2"
       d="M453.92,238.72c-19.61-1.08-39.24,1.56-57.87,7.78,0-14.35,16.53-30.88,44.98-30.88,6.56,0,12.89,15.32,12.89,23.1"
       id="path48" />
  </g>
  <g
     id="g51">
    <path
       class="cls-14"
       d="M203.03,483.48c-6.95-14.97-6.78-19.75,5.57-2.62l148.82,282.14-4.56,1.29-149.76-280.75-.08-.06Z"
       id="path49" />
    <path
       class="cls-9"
       d="M303.89,669.09c1.7-20.91-36.47-43.52-38.17-42.06-1.46,1.46,2.43,13.62,9.73,19.94-14.1-7.05-28.69-11.43-29.18-8.27-.97,4.13,21.88,14.1,23.83,17.99,0,2.67-17.02,2.43-16.53,5.11.24,2.92,47.9,26.75,50.33,7.29M265.72,608.3c1.46-20.91-36.71-43.77-38.42-42.06-1.46,1.46,2.43,13.62,9.73,19.94-13.86-7.29-28.45-11.67-28.93-8.51-.97,4.13,21.88,14.1,23.59,17.99.24,2.92-16.78,2.43-16.29,5.35.24,2.67,47.9,26.75,50.33,7.29M236.54,552.86c1.46-20.91-36.96-43.52-38.42-42.06s2.43,13.62,9.73,19.94c-14.1-7.29-28.69-11.43-28.93-8.27-1.22,4.13,21.88,14.1,23.59,17.99.24,2.67-16.78,2.43-16.53,5.11.49,2.67,47.9,26.75,50.33,7.29h.24ZM207.37,493.05c1.7-20.91-36.47-43.77-38.17-42.06-1.46,1.46,2.43,13.62,9.73,19.94-14.1-7.29-28.69-11.67-28.93-8.51-1.22,4.13,21.64,14.1,23.59,17.99.24,2.92-16.78,2.43-16.53,5.35.24,2.43,47.9,26.75,50.33,7.29"
       id="path50" />
    <path
       class="cls-9"
       d="M217.34,490.13c18.72-11.18,15.07-53.98,12.89-54.22-2.19-.49-10.21,9.73-11.18,19.21-2.43-15.07-7.29-28.93-9.73-27.23-4.38,1.7.73,25.04-1.46,28.93-2.19,1.7-12.16-11.43-14.1-9.73-2.19,1.95,5.84,52.76,23.59,43.04M244.08,542.89c21.64-4.86,33.07-46.2,31.37-47.17-1.95-.97-13.13,6.08-17.26,14.59,3.16-14.83,3.16-29.42,0-28.93-4.38.24-8.02,23.83-11.18,26.75-2.67,1.22-7.29-14.59-9.97-13.37-2.67.97-12.89,51.55,7.29,48.14h-.24ZM276.42,596.63c19.45-9.73,19.94-52.52,17.75-53.01-2.19-.49-10.94,9-12.89,18.24-.97-15.08-4.38-29.18-7.29-27.96-4.38,1.22-1.7,25.04-4.13,28.69-2.43,1.46-10.7-12.64-13.13-10.94-2.43,1.7.97,53.25,19.45,44.98h.24ZM310.95,667.14c20.42-7.78,25.53-50.57,23.34-51.06-1.95-.97-11.91,7.54-14.59,16.53.73-15.08-1.46-29.42-4.38-28.45-4.62.97-4.13,24.8-7.05,28.2-2.43,1.46-9.48-13.37-11.91-12.16-2.43,1.7-4.86,53.01,14.59,46.68v.24Z"
       id="path51" />
  </g>
  <path
     class="cls-15"
     d="M356.03,740.17c-5.18,8.86-21.55,9.66-36.77,1.54s-23.1-21.86-17.92-30.72c5.18-8.86,21.67-9.6,36.77-1.54,15.1,8.06,23.1,21.86,17.92,30.72Z"
     id="path52" />
  <g
     id="g54">
    <path
       class="cls-11"
       d="M748.9,443.32l2.56-6.61,6.9,2.17,2.56-6.61,6.9,2.17-2.53,6.52,7.1,2.24-2.6,6.71-7.1-2.24-6.39,16.49-6.9-2.17,6.39-16.49-6.9-2.17ZM734.08,501.56l6.9,2.17-74.16,191.41-6.9-2.17,74.16-191.41Z"
       id="path53" />
    <path
       class="cls-11"
       d="M657.63,688.6l14,4.41-20.46,52.81-14-4.41,20.46-52.81ZM739.95,466.42l21,6.61c13.9,4.38-17.62,35.21-17.62,35.21l-13.9-4.38s-3.48-41.85,10.52-37.44ZM759.25,466.85c-1.08,2.79-5.01,4.07-8.85,2.86-3.85-1.21-6.13-4.44-5.09-7.14,1.05-2.7,5.01-4.07,8.85-2.86,3.85,1.21,6.13,4.44,5.05,7.23l.04-.09Z"
       id="path54" />
  </g>
  <path
     class="cls-15"
     d="M669.05,716.23c5.87,8.46-.9,22.73-15.44,31.93-14.53,9.2-30.93,9.58-36.79,1.12s1.02-22.81,15.44-31.93c14.42-9.13,30.93-9.58,36.79-1.12Z"
     id="path55" />
</svg>
