<?xml version="1.0" encoding="UTF-8" standalone="no"?>
<svg
   id="Layer_1"
   data-name="Layer 1"
   viewBox="0 0 960 960"
   version="1.1"
   sodipodi:docname="me.svg"
   inkscape:version="1.4 (86a8ad7, 2024-10-11)"
   xmlns:inkscape="http://www.inkscape.org/namespaces/inkscape"
   xmlns:sodipodi="http://sodipodi.sourceforge.net/DTD/sodipodi-0.dtd"
   xmlns="http://www.w3.org/2000/svg"
   xmlns:svg="http://www.w3.org/2000/svg">
  <sodipodi:namedview
     id="namedview94"
     pagecolor="#ffffff"
     bordercolor="#666666"
     borderopacity="1.0"
     inkscape:showpageshadow="2"
     inkscape:pageopacity="0.0"
     inkscape:pagecheckerboard="0"
     inkscape:deskcolor="#d1d1d1"
     inkscape:zoom="0.42447917"
     inkscape:cx="-54.184049"
     inkscape:cy="460.56442"
     inkscape:window-width="1920"
     inkscape:window-height="1017"
     inkscape:window-x="-8"
     inkscape:window-y="-8"
     inkscape:window-maximized="1"
     inkscape:current-layer="Layer_1" />
  <defs
     id="defs1">
    <style
       id="style1">
      .cls-1 {
        fill: #b96b29;
      }

      .cls-1, .cls-2, .cls-3, .cls-4, .cls-5, .cls-6, .cls-7, .cls-8 {
        stroke-width: 0px;
      }

      .cls-2 {
        fill: #ffda44;
      }

      .cls-3 {
        fill: #1d5e91;
      }

      .cls-4 {
        fill: #fff;
      }

      .cls-5 {
        fill: #d4af3a;
      }

      .cls-6 {
        fill: #6d8c3e;
      }

      .cls-7 {
        fill: #c40308;
      }

      .cls-9 {
        mask: url(#mask);
      }

      .cls-8 {
        fill: #c52126;
      }
    </style>
    <mask
       id="mask"
       x="-.37"
       y="-.14"
       width="960.37"
       height="960.37"
       maskUnits="userSpaceOnUse">
      <g
         id="a">
        <circle
           class="cls-4"
           cx="479.81"
           cy="480.04"
           r="480.19"
           id="circle1" />
      </g>
    </mask>
  </defs>
  <g
     class="cls-9"
     mask="url(#mask)"
     id="g3">
    <g
       id="g2">
      <path
         class="cls-2"
         d="M-.37-.14h960.37v83.47l-81.78,393.34,81.78,400.09v83.47H-.37v-83.47l87.41-397.65L-.37,83.33V-.14Z"
         id="path1" />
      <path
         class="cls-7"
         d="M-.37,83.33h960.37v793.43H-.37V83.33Z"
         id="path2" />
    </g>
  </g>
  <g
     id="g94">
    <path
       class="cls-1"
       d="M695.67,457.13c5.63-1.5,25.32-7.32,39.02-18.38,13.69-11.25,16.51-20.07,17.63-24.95s1.5-8.63-1.88-6c-3.75,2.81-14.44,11.25-21.76,15.38-5.7,3.03-11.75,5.36-18.01,6.94-3.75,1.13-7.13,1.88-3.19.38,3.75-1.5,16.13-5.81,25.7-15.38,9.57-9.75,17.26-24.01,17.44-33.01,0-8.82-.56-8.07-3.38-5.81-2.81,2.06-12.94,14.63-18.76,19.32-6.13,4.98-12.59,9.56-19.32,13.69-4.5,2.63-10.88,5.63-1.88-.38,9-6.19,25.89-20.63,32.83-39.39s5.63-30.01,5.63-31.89c-.19-1.88-1.88-5.63-3.38-2.06-1.5,3.38-12.94,26.26-22.13,36.01-9,9.75-6.94,7.88-9,9.38-1.88,1.5-5.63,4.31-.94-1.13,4.31-5.63,13.51-18.19,18.19-30.95,3.8-10.41,5.89-21.37,6.19-32.45,0-7.32-3-17.26-4.5-20.26-1.31-3-2.81-5.25-3.19-1.88s-7.88,25.89-11.82,36.76c-3.54,9-8.01,17.61-13.32,25.7-1.5,2.25-5.63,7.13-1.31-1.13,8.05-17.36,12.82-36.05,14.07-55.15,1.66-14.16-.14-28.52-5.25-41.83-3-6.19-5.81-8.44-5.81-8.44,0,0,.56,15.57-4.13,38.08-4.69,22.51-11.44,34.14-11.44,34.14,0,0-2.81,3.38-.94-2.06,1.31-3.75,4.13-11.63,5.25-25.13,1.31-14.07,1.5-30.2-2.63-43.89-4.5-15.01-12.19-22.51-12.19-22.51-2.25,21.38-1.88,48.77-9.75,71.28-1.31-1.31-3.38-3.75-4.13,1.31-2.49,13.55-7.18,26.6-13.88,38.64-9.75,17.63-13.69,19.88-13.69,19.88l-3-6.57c-1.31-2.44-1.88-3.75-3.75-.38-1.5,3.19-6.94,15.57-18.76,29.26-11.82,13.51-18.38,20.26-18.01,30.39.38,10.32,5.63,15.57,12.94,20.07,7.13,4.69,8.44,7.32,7.32,12.75-1.13,5.63-7.5,7.5-13.13,7.69s-12.57-.19-15.01,1.13c-2.44,1.5-2.63,5.06-5.25,7.5-2.44,2.63-3.56,3.94-5.81,4.31l-1.88.38c-.75-27.01,9.75-39.02,9.75-39.02l-29.07-34.33-4.5,2.06c-.21-.46-.46-.9-.75-1.31-3.65-4.34-5.53-9.9-5.25-15.57,1.5.19,4.31,1.31,7.13.75,2.63-.56.56-3.19-.19-5.63-1.34-6.36-1.46-12.91-.38-19.32,0,0,4.31,4.5,6.94,4.5s2.44-2.63,2.81-5.63c.54-4.85,2.65-9.39,6-12.94,0,0,4.69,3.19,9.94,3.19s12.57-1.31,18.19-6.75c5.63-5.63,5.63-6.75,5.63-6.75,0,0,10.5,3.75,18.76,4.13,7.88.38,16.51-.94,20.63-9.38,4.13-8.63-1.13-16.51-2.06-17.82s-3.75-2.44-3.75,0,.19,8.82-4.69,12-8.63,3-13.32,1.5c-8.45-3.07-17.68-3.27-26.26-.56.38-.38,6.38-6.57,12.38-8.44s9.57.75,11.63,3c1.88,2.44,3.75,6.38,5.25.75,1.69-5.63.75-12-1.88-16.13-3.31-4.55-8.88-6.87-14.44-6-5.81.56-8.07,1.5-8.07,1.5,0,0-3-8.63-10.69-10.13-9.38-1.88-19.7,1.5-27.76,6,0,0-6.38,1.5-12.75-.38-3.94-1.26-7.67-3.09-11.07-5.44.74-2.32,1.49-4.63,2.25-6.94l3.75-1.31c1.88-.75,1.5-1.5,1.88-3,.19-1.69-3.75-4.5-3.75-4.5,0,0-.56-4.88,5.81-8.07l5.63-2.81s3.75.56,5.44-.38c1.5-1.13,1.5-1.88,1.5-1.88,0,0,2.81-.94,3.75-2.63,1.13-1.88,1.31-4.13.56-6.19-.75-1.88-1.88-2.44-.75-3.38,1.23-1.29,2.01-2.93,2.25-4.69v-1.88s2.25-.94,2.06-4.31c0-3.19-1.88-4.5-3-4.88l-1.69-.19s0-2.06-1.88-4.69c-1.69-2.63-2.81-3.75-2.81-3.75,0,0,1.31-.94.56-3.19-.52-1.85-1.93-3.33-3.75-3.94-1.31-.56-3,0-3,0l-7.5-4.31-2.81-1.5s0-2.06-.94-3.19c-.75-1.13-2.81-1.69-3.75-1.69-1.13,0-2.25.56-2.25.56,0,0-8.44-2.06-12-2.63s-3.75-.94-3.75-.94c0,0-7.5-3.56-10.32-4.13l-3.75-.94s3-3.75,3.19-7.88c.02-4.13-2.11-7.97-5.63-10.13l-3.19-1.5v-3l5.63.56.38-9-5.63.75.94-5.63h-11.63l.94,5.44-5.63-.38.56,9,5.63-.75-.38,3.38s-2.06.38-3.94,1.69c-3.44,1.94-5.53,5.62-5.44,9.57.25,2.88,1.21,5.66,2.81,8.07l-3.75.75c-2.81.56-10.5,4.13-10.5,4.13,0,0,0,.38-3.75.94l-11.82,2.63s-1.13-.56-2.25-.56c-.94,0-3,.56-3.75,1.69-.94,1.13-.94,3.19-.94,3.19l-3,1.5-7.5,4.31s-1.5-.56-3,0c-1.83.61-3.23,2.09-3.75,3.94-.56,2.25.56,3.19.56,3.19,0,0-1.13,1.13-2.81,3.75s-1.88,4.69-1.88,4.69l-1.69.19c-.94.38-2.81,1.69-2.81,4.88-.19,3.38,1.88,4.13,1.88,4.13l.19,1.88c0,1.88,1.13,3.94,2.06,4.88,1.13.94,0,1.31-.56,3.38-.77,2.02-.64,4.28.38,6.19,1.13,1.69,3.75,2.63,3.75,2.63,0,0,0,.75,1.69,1.88,1.5.94,5.25.38,5.25.38,0,0-.75-.56,5.63,2.63,6.38,3.38,5.81,8.25,5.81,8.25,0,0-3.75,2.81-3.75,4.5.38,1.5,0,2.25,1.88,3l3.75,1.31,2.25,6.94c-2.44,1.69-6.57,4.31-10.88,5.63-6.38,1.88-12.75.19-12.75.19-8.28-5.15-18.09-7.27-27.76-6-7.69,1.5-10.88,10.13-10.88,10.13,0,0-2.06-.94-8.07-1.5-5.5-.79-10.98,1.52-14.26,6-2.78,4.9-3.46,10.72-1.88,16.13,1.5,5.63,3.19,1.88,5.25-.75,1.88-2.25,5.63-4.88,11.63-3,4.61,1.93,8.76,4.8,12.19,8.44,0,0-.94-.75-7.5-1.69-7.5-.94-13.88.75-18.76,2.25-4.5,1.5-8.25,1.69-13.13-1.5-5.06-3.19-4.88-9.57-4.88-12s-2.63-1.31-3.56,0-6.19,9.19-2.06,17.63,12.75,9.94,20.63,9.38c8.25-.38,18.76-4.13,18.76-4.13,0,0,0,1.5,5.63,6.94,5.63,5.44,12.75,6.75,18.01,6.75s9.94-3.19,9.94-3.19c3.46,3.57,5.63,8.19,6.19,13.13.38,2.81,0,5.63,2.81,5.63s6.75-4.69,6.75-4.69l.75,4.5c.38,3.19-.19,12.19-.94,14.63-.75,2.63-2.81,5.25,0,5.63,2.44.75,5.44-.38,6.94-.56.27,5.67-1.6,11.23-5.25,15.57-.29.42-.54.86-.75,1.31-1.45-.66-2.89-1.34-4.31-2.06l-29.45,34.33s10.5,12,9.94,39.2v-.19c-.75-.1-1.5-.23-2.25-.38-2.25-.38-3.38-1.88-5.81-4.31s-2.63-6-5.25-7.5c-2.44-1.5-9.38-.94-15.01-1.13-5.63,0-12-2.06-13.13-7.5-.94-5.63.19-8.25,7.5-12.94,7.13-4.5,12.38-9.75,12.75-20.07.38-10.13-6.19-16.88-18.01-30.39-11.82-13.69-17.26-26.07-18.76-29.26-1.88-3.19-2.44-1.88-3.75.38l-3,6.57s-3.75-2.25-13.51-19.88c-6.79-12.08-11.55-25.2-14.07-38.83-.75-4.88-2.63-2.44-4.13-1.13-7.88-22.51-7.5-50.08-9.57-71.28,0,0-7.88,7.5-12.38,22.51-3.58,14.34-4.47,29.22-2.63,43.89,1.13,13.51,3.94,21.57,5.25,25.13,1.88,5.44-.94,2.06-.94,2.06,0,0-6.75-11.82-11.25-34.14-4.88-22.51-4.31-38.08-4.31-38.08,0,0-2.63,2.25-5.81,8.44-5.11,13.31-6.91,27.67-5.25,41.83,1.13,22.88,9.57,46.89,14.07,55.15s.38,3.38-1.31.94c-1.5-2.25-9.38-14.63-13.32-25.51-4.4-12.08-8.28-24.35-11.63-36.76-.56-3.38-1.88-1.13-3.38,1.88s-4.5,13.13-4.5,20.26c.3,11.08,2.39,22.04,6.19,32.45,4.64,11.13,10.82,21.55,18.38,30.95,4.31,5.63.94,2.63-1.13,1.13s0,.19-9-9.38c-8.73-11.12-16.16-23.2-22.13-36.01-1.5-3.56-3.19.19-3.19,2.25-.19,1.88-1.5,12.94,5.44,31.7,7.02,16.01,18.47,29.68,33.01,39.39,9,6,2.44,3-2.06.38-6.8-4.13-13.31-8.7-19.51-13.69-5.63-4.69-15.76-17.26-18.57-19.32-2.81-2.25-3.38-3-3.19,6,0,8.82,7.5,23.07,17.26,32.64,9.38,9.75,21.95,14.07,25.7,15.57s.75.75-3.19-.38c-6.26-1.58-12.3-3.91-18.01-6.94-7.32-4.13-18.01-12.57-21.57-15.38-3.56-2.63-3,1.13-1.88,6,.94,4.69,3.75,13.69,17.44,24.95,13.88,11.25,33.39,16.88,39.02,18.38,5.63,1.69,1.69,1.69,1.69,1.69l-13.69-2.81c-11.25-2.63-28.7-11.63-33.39-14.63-4.69-2.81-5.25-3.94-4.69,2.25s7.32,19.32,17.82,25.51c10.77,5.23,22.4,8.47,34.33,9.57,4.88.38,3.75.94,1.5,1.13-13.18.3-26.3-1.93-38.64-6.57-.36-1.3-.67-2.62-.94-3.94-.38-2.44-1.69-1.88-2.44-1.5-.75.56-1.13.94-3.75,2.25s-2.81-.19-2.81-1.13l-.75-5.81c0-1.88-.94-1.88-2.25-1.31l-9.38,3.75c-1.88,1.13,0,2.81,1.13,4.88.92,1.76,1.86,3.51,2.81,5.25l-7.13,1.88c-1.88.38-1.31,1.69-.75,2.81l3.75,9.19c.75,1.88,2.25.75,2.25.75l5.63-3.38,1.88,7.5c-.19,0-2.63.56-5.44,2.44s-1.88,4.5,1.31,5.44c3.38.94,7.13,2.63,11.44,10.5,4.31,7.69,5.44,21.76,8.07,43.89,2.63,22.13,16.88,33.39,18.76,34.7,1.88,1.5.75,2.63.75,2.63,0,0-1.88,2.81-1.13,6.94.82,3.43,3.27,6.24,6.57,7.5,1.88.75,1.5,2.81,1.5,2.81,0,0-1.13,4.69,0,13.13.94,8.82,7.88,18.57,9.94,20.26,1.88,1.5,1.88,2.44,1.88,3.19-.38.56-1.69,0-3.94,1.88-2.44,1.88-5.06,4.31-6.75,7.5-1.69,3-1.13,4.69-.56,8.82.56,4.31,6.75,8.07,6.75,8.07,0,0-1.13.19-1.5,3.38-.19,3,1.88,6.38,4.88,8.63,2.63,2.25,7.88,3.38,7.88,3.38l.75,4.5c.38,1.88,3.75,3.75,6,4.88s6.57.56,8.25-.38c1.88-.75,3.19.19,4.13,1.88,1.13,1.88.75,8.82.75,11.63s-1.69,5.63-.75,7.13c1.13,1.31,3.75.38,6.38-1.13s3.19-.38,5.63,1.13,6.19,3,7.13,2.81c.94,0,.56-2.63.56-4.69,0-2.25.38-6.94,1.31-7.5.38-.38,4.5-.75,7.5-1.88,1.69-.75,3.38-1.31,3.75-2.81,0-1.31-2.06-1.31-6.75-3.75-4.5-2.44-5.25-3.75-8.25-5.63-2.81-1.88-1.5-2.63-1.5-3.56,0-.75,1.31-1.88,1.88-2.81.56-1.13.38-3.75.38-3.75l3.38-3.56c1.13-1.31,2.63-3.19,4.13-4.5,1.5-1.13,3.75-7.13,5.44-9.19,1.5-1.88,4.88-3.94,6.94-6.57s7.5-6.94,10.88-9c3.19-2.25,11.82-6.19,11.82-6.19,0,0-.19,5.06,1.88,7.5,2.44,2.63,5.25-1.88,15.01-8.82,9.75-6.94,17.44-9.38,17.44-9.38l4.69,6.57c2.63,3.19,5.06-.19,17.07-16.88,9.38-13.13,22.13-25.13,27.01-29.64l2.63,1.13-.75,2.25c-1.13,3.38-2.81,5.63-5.25,10.5-2.25,4.69-6,5.81-10.13,12.38-3.36,5.19-5.13,11.26-5.06,17.44-.38,6.75,3.38,8.07,3.38,8.07,0,0-6.19,6-7.88,10.32-1.88,4.5-2.81,13.51-2.81,13.51,0,0-.94.38-3.19,4.88-2.25,4.69-6.19,5.25-12,11.25-5.81,5.63-12.38,8.25-15.38,9.94-3,1.88-2.25,3.75-1.31,6,.75,2.25,4.88,4.69,9.75,6.38,4.88,1.88,6.57,1.13,9.75,1.13,3.38-.19.75,2.44-.56,3.75-1.5,1.5-3.19,6.19-3,11.63.38,5.44,4.31,4.13,9.38,3.38,4.88-.94,10.69-3.38,10.69-3.38l-.56,1.5c-.56,1.5-.75,2.63-.75,6.94s.56,6.38,1.88,7.5,3.75-1.31,5.63-1.88c1.69-.56,4.69-2.25,9.19-3.19,4.31-1.13,6-3,6-3,0,0-1.13,1.31-1.31,4.5-.3,3.39-.11,6.8.56,10.13,1.03,3.34,2.98,6.33,5.63,8.63,3,2.81,3.75,1.5,6-1.88,2.25-3.56,6.75-7.88,6.75-7.88l3.38,10.88c3,9.75,12.94,17.82,12.94,17.82,0,0,9.94-8.07,12.94-17.82l3.38-11.07s4.5,4.5,6.75,7.88c2.25,3.56,2.81,4.69,5.81,1.88,2.62-2.24,4.56-5.16,5.63-8.44.75-2.63.94-7.13.75-10.13-.38-3.19-1.5-4.5-1.5-4.5,0,0,1.69,1.88,6.19,3,4.31.94,7.5,2.63,9.19,3.19,1.88.56,4.31,3,5.63,1.88,1.13-1.13,1.88-3.19,1.88-7.5.18-2.35-.14-4.72-.94-6.94l-.56-1.5s5.81,2.44,10.88,3.38c4.88.75,9,1.88,9.38-3.38.17-4.09-.87-8.14-3-11.63-1.5-1.31-4.13-3.94-.75-3.75,3.38,0,5.06.75,9.75-1.13,4.88-1.88,9-4.13,9.94-6.38.75-2.44,1.69-4.13-1.5-6-3-1.88-9.38-4.31-15.19-10.13-5.81-5.63-9.94-6.38-12.19-11.07-2.06-4.5-3-4.88-3-4.88,0,0-1.13-9-2.81-13.51-1.88-4.31-7.88-10.32-7.88-10.32,0,0,3.75-1.31,3.38-8.07-.56-6.57-1.13-11.07-5.25-17.44-4.13-6.57-7.69-7.5-10.13-12.38s-4.13-7.13-5.25-10.5c-.17-.75-.36-1.5-.56-2.25,1.18-.51,2.37-1.01,3.56-1.5,4.69,4.5,17.44,16.51,27.01,29.82,12,16.69,14.26,20.07,16.88,16.88,2.81-3.38,4.88-6.57,4.88-6.57,0,0,7.5,2.44,17.26,9.38s12.75,11.25,15.01,9c1.13-1.5,1.31-3.75,1.5-5.25l12.19,3.75c3.79,1.39,7.55,2.89,11.25,4.5,8.63,3.75,9.57,5.63,16.32,10.88,6.94,5.44,16.51,4.88,25.7,2.06,9.19-2.81,33.39-10.88,43.14-15.01,9.94-4.31,16.88-7.88,17.82-9.94,1.23-2.99,1.99-6.15,2.25-9.38,0-1.88-2.25-4.88-3-5.44-.56-.38-.38-1.88,0-3.19,0-1.31-.56-4.88-2.06-6.57-1.5-1.88-1.31-2.25-1.13-7.13-.13-11.36-6.67-21.67-16.88-26.64,0,0-.38-1.31-1.13-1.88-.75-.75-2.25-1.31-2.25-1.31v-7.13c0-1.13.75-1.13,1.31-.75.75.38,1.88,1.88,3.56,2.25,1.5.38,2.63-.75,3-2.63.19-1.88,1.69-5.63,2.25-7.5.56-1.88,0-2.06-.94-2.25-.75-.38-3.19-.56-4.31-.75q-1.13-.38-.94-1.13l2.25-3.75c1.5-2.44,0-2.44-1.31-3-3.21-1.08-6.46-2.02-9.75-2.81-1.88-.19-2.25,1.31-2.25,1.88v5.63c.19,1.13-.94.75-1.69.38l-3.38-2.25c-1.31-.94-2.25,0-2.63,1.31l-2.44,8.63c-.56,1.88-.38,3,.38,3.38h5.63c1.88,0,.94.94.94.94l-2.81,4.69c-.56,1.31-1.88,1.5-3.38,1.5h-4.13s-10.69.38-18.38,6.19c-4.89,3.34-8.78,7.94-11.25,13.32-1.13,2.81-2.44,2.25-3.75,3.19-1.13,1.13-4.5,4.69-4.5,6.75,0,2.25.75,3.38-2.63,5.63s-6.19,11.82-1.5,16.88c4.5,4.88,6.38,9.75,7.69,12.19s0,3.38-1.13,3.38c-7.78-5.41-15.41-11.04-22.88-16.88-4.5-3.19-1.31-2.81-1.31-2.81,0,0,1.13,0,3.75-.94,2.81-1.13,3.19-2.63.56-3.38-2.63-.94-7.88-3.75-9.38-5.25-1.13-1.31-1.88-2.81.75-4.31,2.63-1.31,8.44-5.06,3.75-6.38l-14.26-3.38c-4.5-1.31-4.88-2.63-4.88-2.63l2.81-4.13s2.44-3.38-.38-3.75-9.38-1.31-15.57-3.75c-11.1-4.38-19.46-13.78-22.51-25.32v-.19c2.44,4.5,7.69,12.94,15.76,13.13,10.88.38,12.19-3,9.57-6.57-2.44-3.75-5.25-6.94-6-7.88-.75-1.13-.94-2.63,1.88,0,3,2.81,8.44,12,24.76,10.88,16.51-1.13,16.51-4.31,16.51-5.25,0-3.19-3.38-3.75-5.44-5.63-.94-.94-1.5-2.44,1.88-1.31,3.19,1.31,11.25,2.81,22.51.38,4.31-.94,15.94-6,16.88-11.82,0,0-7.13-.38-12.38-2.63-5.06-2.25-8.25-3.94-2.81-3,5.63,1.13,16.13,3.38,25.51.19,5.44-1.88,12.57-6.19,12.57-14.26,0,0-10.13-2.25-13.88-3.56s-5.25-2.25-5.25-2.25c0,0,14.63,4.5,27.76-2.06,13.13-6.75,13.69-15.94,13.69-18.01s-.38-2.81-.38-2.81c0,0-12,3-20.82,2.81-9,0-11.82-.75-11.82-.75,0,0,25.13-.75,37.51-8.44,12.75-7.69,13.51-22.88,13.51-22.88,0,0-14.26,5.06-23.26,6.19-5.54.7-11.12.95-16.69.75-2.06,0-3.38-.75,1.5-1.13,4.88,0,23.82-3.38,34.51-9.38,9.05-5.89,15.4-15.13,17.63-25.7.75-6.19,0-5.06-4.69-2.25-14.49,8.51-30.36,14.42-46.89,17.44,0,0-4.5-.19,1.13-1.88l.56.19ZM245.31,486.02l-5.06,2.81-2.63-5.25c-.38-1.31-.19-1.88.56-1.88l4.31-.75h.75l2.06,5.06ZM398.93,576.05c-4.43,6.3-10.54,11.24-17.63,14.26-6,2.63-12.75,3.38-15.38,3.75-2.81.56-.56,3.75-.56,3.75l3,4.31s-.38,1.13-4.88,2.44c-4.5,1.31-9.75,2.25-14.44,3.56-4.5,1.13,1.31,4.88,3.75,6.38,2.81,1.31,2.06,2.81.75,4.31-2.78,2.16-5.88,3.87-9.19,5.06-2.63.94-2.25,2.25.38,3.38,2.63,1.13,9.94,2.44,9.94,2.44l-4.69,3.75c-4.31,3.19-12.19,5.63-17.26,5.63-5.06.38-13.13.75-23.63.19l-11.25-.56-1.13-8.63c-1.03-5.54-3.13-10.83-6.19-15.57l-7.5-9.94.56-3c.38-1.88,0-3.56-.94-6.57-1.31-3.19-7.32-7.69-7.32-7.69l-.19-6.57c0-3.19-2.25-15.38-4.13-21.2-1.88-5.63-11.25-20.82-15.57-28.14-6.24-12.16-9.22-25.73-8.63-39.39l.94-2.44c1.92,2.47,4.27,4.56,6.94,6.19,12.57,7.5,37.51,8.44,37.51,8.44,0,0-2.63.75-11.44.75s-21.01-2.81-21.01-2.81c0,0-.38.56-.38,2.81s.56,11.25,13.69,18.01c13.13,6.57,27.76,1.88,27.76,1.88,0,0-1.31,1.13-4.88,2.44-4.57,1.39-9.2,2.58-13.88,3.56,0,8.07,6.94,12.38,12.38,14.26,9.38,3.19,20.07.94,25.51,0,5.44-1.13,2.44.56-2.81,2.81-5.06,2.25-12.57,2.63-12.57,2.63,1.13,5.81,12.75,10.88,17.26,11.82,11.07,2.44,19.13.94,22.51-.38,3.38-1.13,2.63.38,1.69,1.31-1.88,1.88-5.44,2.44-5.44,5.63,0,.94,0,4.13,16.51,5.25s21.95-8.07,24.76-10.69c2.81-2.81,2.63-1.31,1.88-.19-.56.94-3.56,4.31-6,7.88-2.44,3.56-1.31,6.94,9.75,6.57,8.07-.19,13.13-8.82,15.57-13.13l.56.75c-1.37,3.59-2.93,7.09-4.69,10.5v.19ZM531.74,219.29l-2.25-4.13s6.19,2.81,9.94,7.13c3.75,4.13,3.56,6.38,4.13,8.44.56,1.88,0,5.63-.56,9.38-.56,3.38-.56,5.63,0,6.94l1.5,1.88s-2.81.56-5.44,1.69c-2.44.94-5.81,1.88-7.69.38-1.88-1.69-2.44-2.63-1.31-3.75,1.13-.94,5.63-2.25,6.19-9.75s-3-15.38-4.5-18.19M497.97,239.92c1.31-3.75,1.88-7.13.75-14.44-.75-6.19-1.88-11.44-2.25-18.19,0,0,4.5,1.13,11.25,7.13,6.38,6,7.88,12.19,7.88,15.01,0,3.19-1.5,6.94-1.88,9.75s.94,5.63.94,5.63c0,0-2.44.94-4.69,2.44s-3.75,2.44-6.94,2.25c-3.38,0-5.25-1.69-7.32-2.63-1.88-1.13-3.19-1.31-3.19-1.31,0,0,3.75-2.06,5.25-5.63h.19ZM465.71,214.41c3.13-3.24,6.99-5.69,11.25-7.13-.38,6.75-1.5,12-2.44,18.19-1.13,7.5-.56,10.88.94,14.44,1.31,3.56,5.25,5.63,5.25,5.63l-3.19,1.31c-1.88.94-3.75,2.44-7.32,2.63-3.19.19-4.69-.75-6.94-2.25s-4.69-2.44-4.69-2.44c0,0,1.13-2.63.94-5.63-.19-2.81-1.88-6.57-1.88-9.57s1.5-9.38,8.07-15.19M442.08,251.17c-1.88,1.5-5.25.56-7.88-.38-2.63-1.13-5.44-1.88-5.44-1.88l1.5-1.88c.56-1.13.56-3.38,0-6.75-.56-3.75-.94-7.5-.56-9.38.56-2.06.56-4.31,4.31-8.44,3.75-4.31,9.75-7.13,9.75-7.13l-2.06,3.94c-1.5,2.81-5.06,10.5-4.5,18.19.56,7.5,5.06,8.82,6.19,9.75,1.13,1.13.75,2.25-1.13,3.75l-.19.19ZM529.86,314.39c-6.57,3.75-10.32,2.81-9.94,5.63.19,2.44,6,4.5,6,4.5,0,0-6,6.38-10.5,9.38-4.69,2.81-10.13,4.69-10.13,4.69,0,0-1.88.19-.75,3.19.77,2.3,2.29,4.29,4.31,5.63l2.25,1.13s-8.07,8.63-11.63,11.44c-2.53,2.07-5.38,3.71-8.44,4.88-3,1.31-1.5,6-.75,8.07.8,2.34,2.4,4.33,4.5,5.63,1.5.38,1.88,1.31.19,4.31l-8.25,11.25-8.25-11.25c-1.88-3-1.31-3.94,0-4.5,1.5-.38,3.94-3.19,4.69-5.44.56-1.88,2.06-6.75-.75-8.07-3.06-1.16-5.91-2.81-8.44-4.88-3.75-2.81-11.82-11.25-11.82-11.25l2.25-1.31c2.1-1.31,3.68-3.29,4.5-5.63.94-3-.94-3.19-.94-3.19,0,0-5.25-1.88-9.94-4.69-4.69-3-10.69-9.38-10.69-9.38,0,0,5.81-1.88,6.19-4.69.19-2.63-3.38-1.88-9.94-5.44s-8.63-8.07-8.63-8.07c0,0,7.5-2.44,11.25-10.13,1.16-2.19,1.68-4.66,1.5-7.13h.38c12,4.13,26.07,5.63,38.64,5.63s26.64-1.5,38.64-5.63h.38c-.19,2.06,0,4.5,1.5,7.13,3.75,7.5,11.25,10.13,11.25,10.13,0,0-2.25,4.5-8.63,8.07"
       id="path3" />
    <path
       class="cls-5"
       d="M569.25,460.51c0-20.45,9.38-33.2,9.38-33.2l-25.7-29.26c-24.2,9.38-46.52,9.94-66.21,0-19.88,9.94-42.02,9.38-66.4,0l-25.51,29.45s9.38,12.75,9.38,33.2-3.75,35.64-6.19,45.39c-2.25,9.75-4.13,28.14,1.13,41.27,5.06,13.13,10.69,24.76,33.39,34.14,22.51,9.57,34.51,14.44,42.39,21.01,7.88,6.75,11.82,12,11.82,12,0,0,3.94-5.44,11.82-12,7.88-6.38,19.7-11.25,42.39-21.01,22.51-9.38,28.14-21.01,33.58-34.14,5.25-13.13,3.19-31.51.94-41.27s-6.19-24.95-6.19-45.39v-.19Z"
       id="path4" />
    <path
       class="cls-1"
       d="M561.18,468.76c-1.48-12.69,1.36-25.51,8.07-36.39l-21.95-25.51c-16.88,9.38-40.14,8.07-60.59-1.31-20.26,9.38-43.7,10.69-60.4,1.31l-22.13,25.51s11.25,17.07,8.07,36.58c-3.19,19.32-10.13,50.27-8.44,62.65,1.88,12.57,10.69,27.2,19.7,34.7,9.73,7.58,20.63,13.53,32.26,17.63,8.44,3.33,16.34,7.88,23.45,13.51,4.5,3.38,7.5,6.38,7.5,6.38,0,0,2.81-3,7.32-6.38,4.31-3.38,13.69-10.13,23.26-13.51,11.68-4.04,22.64-9.93,32.45-17.44,10.18-9.15,17.04-21.42,19.51-34.89,1.88-12.57-5.06-43.14-8.25-62.65l.19-.19Z"
       id="path5" />
    <path
       class="cls-3"
       d="M559.12,471.2c-1.81-12.97.35-26.17,6.19-37.89l-19.7-21.95c-16.51,8.63-36.76,6.38-58.9-1.31-21.95,7.5-42.2,9.94-58.9,1.31l-19.7,21.95s9.38,16.88,6.38,37.89c-3.19,21.01-8.07,44.83-7.13,58.71,0,.94,0,1.88.38,3h17.82s1.13-1.31,3-2.06c2.06-.94,2.63-1.5,2.63-1.5,0,0,.38-3.75,2.63-4.31,2.06-.75,3-.75,3.94-.75s1.5-.19,2.63-1.31,3.75-3.75,5.06-7.32,1.88-5.06,1.88-7.5.94-6,.94-6c0,0-.38-1.13-2.25-.56-1.88.75-2.06-1.13-2.25-3-.19-1.88,0-5.44.94-7.13l1.5-2.25-.75-3s-11.44,2.44-13.51-6.57c-1.88-8.82-2.25-13.13-2.63-14.07-.19-.94-.56-1.31-2.06-1.31s-4.69-.94-7.13-5.63c-2.25-4.5-2.44-6.38-1.88-8.25.75-1.88,1.88-1.13,2.44-.56.38.56,3.38,5.06,4.69,3.75,1.13-1.13.56-1.13-1.13-4.69-1.88-3.38-1.13-4.5-.94-6.19,0-1.88-.56-4.13-.56-5.06s.94-1.69,1.88-1.13c1,.43,1.9,1.07,2.63,1.88.38.38.56,1.31,1.69.75.94-.56.38-3.75.38-4.69,0-1.13,1.13-1.88,2.63-1.13,1.35.78,2.2,2.2,2.25,3.75,0,1.13,0,2.06.75,2.06.56,0,1.31-1.69,1.31-2.81s.75-2.81,1.88-1.31,1.31,3.38.94,5.63.38,1.13-.38,4.88-1.13,5.63-.94,8.44c0,2.81,0,4.5,1.5,7.88,1.5,3.75,2.63,7.69,5.25,7.88h3.38s3-5.63,5.25-7.13c2.25-1.31,5.63-1.5,7.88-1.88,2.25,0,3.19-.75,3.19-1.31s-.75-.75-3.56-1.13c-2.63-.38-5.06-1.13-5.06-3.19s.38-3.94-1.31-4.13c-1.88,0-6.38-1.5-7.88-4.5-1.69-2.81-1.31-3.56-1.13-5.06.19-1.69,2.25-4.88,3.75-1.88s2.06,3.38,3.19,4.13c1.13.56,2.63.75,1.88-1.31-.71-1.52-1.03-3.2-.94-4.88,0-1.5,1.13-2.25,2.44-2.44l6.75-1.88,2.06-.56s.19-1.31,2.63-2.06c1.93-.65,3.96-.97,6-.94,1.88,0,3,.38,5.44-.75,1.73-.92,3.67-1.37,5.63-1.31,1.43.11,2.8.63,3.94,1.5,1.13.75.75,1.88.75,2.81s.19,1.5,1.88,1.5c1.5,0,3,0,4.5.75s3.75,1.31,2.25,3c-1.31,1.5-1.31,3.38-2.25,3.38-.75,0-.75.75-1.13,1.31s-.56,1.13.38,1.69c.94.56.94,1.13,2.25,2.44s3.38,2.44,1.31,4.5c-1.88,1.88-5.63,3.75-5.63,3.75,0,0-1.88.75.38,2.25,2.44,1.13,3.38,3.94,4.31,4.5l2.25,1.5c.56.19.38,2.25.38,2.25l-2.81,1.5c-1.88.56-3.56,1.31-5.25,1.31-1.5,0-2.44,0-1.88,1.5l2.25,4.13.75,2.44s2.63.56,4.88.56c2.44,0,3.56,0,8.63-.56s6.75-.75,11.82,0c5.06.38,5.81.19,7.13.75l2.63,1.13s7.13,0,11.25-.94c3.75-.94,4.69-3.38,4.13-4.69s-.56-3.38-7.32-4.31-9.57-.56-15.01-1.69c-5.44-.94-13.88-3.75-15.38-10.5-1.5-6.75,3.94-9.75,6.75-11.07s8.63-3.38,11.44-4.5c4.18-1.6,8.7-2.12,13.13-1.5,5.25.75,8.44,2.25,10.5.94,1.88-1.31,3.75-.38,3.38,1.69-.38,1.88-2.44,5.63-8.44,7.5s-13.13,2.06-17.07.94c-3.94-.94-6.94-2.44-9.38-1.69-2.25.94-4.88,3.75-2.44,7.5,2.63,3.38,15.76,4.5,19.32,4.88,3.56.38,16.51-.56,20.26,5.81,3.75,6.57.75,13.69-3.75,15.38-3.63,1.45-7.4,2.52-11.25,3.19l-3.38.38s1.5,3.56,1.5,4.88c0,1.5-.19,4.13,1.5,5.25s3.75,1.88,6.57,1.5,6.19,1.5,6.38,4.13c0,2.44.94,5.81,1.13,10.88.38,4.88,0,9,0,9,0,0,0,1.88-.75,3.75l-4.13,8.82h19.13c.1-1,.16-2,.19-3,.94-14.07-3.94-37.89-7.13-58.9l.19.19Z"
       id="path6" />
    <path
       class="cls-6"
       d="M409.81,542.1c3.75,10.88,11.63,21.57,23.45,28.7,16.32,9.94,23.26,8.63,38.83,18.76,15.38,9.94,14.44,11.63,14.63,11.63s-.75-1.88,14.63-11.82c15.57-9.94,22.51-8.63,38.83-18.57,10.84-6.58,19.06-16.73,23.26-28.7h-153.62Z"
       id="path7" />
    <path
       class="cls-5"
       d="M423.32,459.38c1.88,1.88,3,2.44,5.63,2.06,2.81-.19,3.38,1.88,3.75,3.75.56,2.25.56,7.32,2.63,11.82,1.88,4.69,8.25,4.88,8.25,4.88.19-2.25,1.13-5.25,1.88-7.5.38-.56,1.13-2.63-1.13-2.63s-2.25-.94-3.75-3.19c-2.07-3.7-3.59-7.68-4.5-11.82-.75-3.75.56-9.38,1.13-11.44s.75-3.56,0-3.75c-.75-.56-2.25,0-2.25,0,0,0,.56,1.69,0,1.88-.75.38-1.31-.94-1.88-2.25-.38-1.31-.94-1.13-1.88-.94-.94,0-.94.94-.19,1.88.56.94.19,2.63.19,2.63l-2.81-1.88c-.75-.38-2.81.38-3,1.5,0,1.13.75,3.75,2.63,5.44,1.88,1.5,1.88,4.5,1.13,5.81-.56,1.5-3.19,1.31-3.75.56-.55-.62-1.5-.68-2.12-.13-.05.04-.09.09-.13.13-.75.94-1.5,1.31.19,3.19M422.38,454.5l-1.5-1.31-1.13-1.5v1.69c0,1.13,1.13,2.25,1.13,2.25l1.5-1.13ZM426.13,441.75c.94-.38,1.5-.56.94-1.5-.75-.94-1.31-1.88-1.88-2.25h-1.13l.75,2.63c.19,1.13.56,1.5,1.31,1.13M431.01,437.81c0,.75,0,1.13.75.75s1.13-1.31.75-2.06c-.38-.75-1.31-1.31-1.31-1.31l-.56-.38.38,3ZM437.95,438.94l-.38-1.88s0,.94-.38,1.69c-.56.56-.38.38,0,.94.56.56.56,0,.75-.75M448.83,485.83c1.31,3.19,4.69-1.88,7.88-5.63,3.19-4.13,3-1.13,2.63,2.25-.21,3.08.51,6.15,2.06,8.82,1.31,2.25,2.44.94,2.81-.56.56-1.5.94-4.88,1.88-6.38,1.31-1.69,2.25-.19,2.44,1.13.56,2.28,1.66,4.41,3.19,6.19,1.69,1.88,2.44-.56,2.81-2.81l1.69-6.94c.38-1.31,1.88-.19,1.88-.19l3.19,3c1.88,1.88,2.25-1.13,2.44-2.63.19-1.69-.38-5.06.38-5.63.56-.56,2.25.75,5.06,2.06,2.81,1.31,2.63-1.31,2.25-2.63-.69-2.56-2.05-4.89-3.94-6.75-2.25-1.88-2.63-4.13-1.88-5.06.75-.94,3.38,0,5.06-.38,1.69,0,2.44-.38,3.75-.56s1.31-1.5,1.31-1.5c0,0-.94-1.5-2.81-3.19s-2.81-2.81-5.06-3.38c-2.06-.38-5.06,0-5.06,0l-.38-.56c-.38-.56-.94-.56-1.31,0l-2.44,2.25c-.75.75-1.31,1.13-1.88.75-.56-.19.56-.94.56-.94,0,0,1.13-.94,2.06-3,1.13-2.06,1.31-4.13.56-5.06s-3.19,0-4.31,0c-1.31,0-2.06.19-2.25-.38,0-.75,1.31-.38,2.81-.56,1.69-.19,2.63-2.06,3.19-3.75.38-1.5.94-1.31,1.88-.38s1.88.75,1.88,0l2.06-3.75c1.13-1.5,1.88-3.75.56-5.06-1.13-1.5-3.94-1.31-5.06-.38-1.13.94-1.88,1.88-2.25,4.13-.19,2.44-.94,1.13-.94.38s-.94-1.88-.56-2.81c.56-.94,0-1.88,0-1.88,0,0,0-2.06-2.25-2.63-2.34-.23-4.7.03-6.94.75-2.25.56-1.88,2.44-1.88,2.44l-3.38.19c-1.88.19-3.75.94-5.63,1.5-1.69.38-2.25.56-2.25,1.31l.38,2.25s1.31,0,1.88.38c.94.56.56,1.31-.38,1.5-.75.38-1.13.38-1.13,1.5s.38,1.31,1.31,1.31c.75,0,2.63,0,4.69.94,1.88.94,2.63,2.81,2.44,3.75-.38,1.13-3.19,2.44-4.69,2.44s-1.88.38-1.88,1.31,1.88.94,1.88.94l5.06.38c3.56.56,4.13,1.13,5.63,2.63,1.5,1.31.38,1.69-.38,1.88-.75.56-1.88,1.5-3,1.88-1.13.56-1.88,1.31-3,1.5-.94.19-3.75,0-8.44,1.88s-6.38,8.44-6.38,8.44l2.81-1.5,7.5-3.94c2.44-1.5,2.44.75,1.13,3s1.13,1.88,1.88,1.13,1.69-1.31,4.13-2.63c2.44-1.13,1.5.75,1.5.75,0,0-.75,1.5-.94,5.06-.19,3.38,3.56,0,5.06-2.06,1.88-2.25,2.44,0,1.31,2.44-1.31,2.63-3.75,4.5-5.06,4.5s-2.44-1.31-2.63-2.25c0-.75.56-3.38-.38-3.94-.75-.75-3.19,0-5.06,1.13s-2.06.19-2.63-.75c-.38-.94.75-1.31.38-1.88-.56-.56-1.5,0-2.25.38l-5.63,2.81c-3.19,1.88-3,2.63-3,5.06s.56,3,1.88,6.19l.19-.19Z"
       id="path8" />
    <path
       class="cls-5"
       d="M480.15,433.31l1.88-.94,3-.56c1.5,0,1.13-.94.94-1.69-.38-.56-.94-.94-2.81-.94s-3,.94-3.94,1.31c-1.13.56-2.44.75-2.44.75l.94,1.31c.75,1.13,1.88,1.31,2.44.75M487.66,440.81l1.69-.38,2.44-1.13c1.31-.56,1.88-.75,2.63-2.06.75-1.5-.94-1.5-3-2.06-2.25-.56-3.19,0-3.56.94,0,.75,0,1.88-.94,3.38s0,1.31.75,1.31M487.09,442.69c-2.06,0-4.5,3.19-5.44,3.75-.75.56-.38,1.13-.38,1.13-.04,2.02.42,4.01,1.31,5.81h1.5c1.13,0,1.88-.56,3.19-1.31,1.1-.81,2.39-1.33,3.75-1.5,1.54-.26,3.01-.83,4.31-1.69,1.88-.94-.94-2.63-3-4.31-1.44-1.28-3.33-1.95-5.25-1.88M458.96,450c1.88-.19,2.63-1.13,2.63-1.88,0-1.13-.94-1.88-3-1.88-5.25.56-10.32-1.31-11.25-6.57,0,0-1.88,3.19,1.5,6.94,3.19,3.56,8.63,3.56,10.32,3.38h-.19ZM441.33,531.97l.94.94h8.07c1.31-.38,1.31-1.69,1.31-2.44,0-1.13.94-3.94,1.88-9.38,1.31-5.25,3.19-9,3.94-11.25.75-2.06-.75-2.81-1.31-4.13s-1.5-3.75-1.69-4.88c-.19-1.31-2.06-1.13-3.19-.94-.94,0-1.13,1.88-1.31,3.19,0,1.69-.94,6.38-1.69,10.32-.75,4.13-5.25,9.38-6.57,10.69-1.31,1.13-2.25,1.69-3.19,1.69s-2.81,0-3.75.56-1.88,1.88-1.88,3.19c0,1.13,1.88,1.88,1.88,1.88l1.88-1.69c.56-.75,1.88-.75,3.19-1.13,1.31-.19,1.31.38.94.94-.56.56-.38.75.56,2.44M429.13,531.6c-.56,0-1.13.75-1.31,1.31h5.25c-.07-.48-.27-.93-.56-1.31-.56-.75-2.25-.38-3.38,0"
       id="path9" />
    <path
       class="cls-5"
       d="M436.07,531.41c-.66.38-1.23.89-1.69,1.5h5.63c.19-.56.38-1.31-.38-1.88-1.31-.94-2.63,0-3.38.38h-.19ZM484.84,529.16c-.56,0-1.13.56-1.88,1.13-.94.56-1.31,1.5-1.31,2.25-.04.12-.04.25,0,.38h2.44c.07-.12.07-.26,0-.38,0-.75.38-1.31,1.31-2.25,1.13-.75,0-1.13-.38-1.13h-.19ZM489.53,531.6c0-.75-.19-1.31-.75-1.31s-1.5,1.13-2.25,1.5l-.94,1.13h3.75l.19-1.31Z"
       id="path10" />
    <path
       class="cls-5"
       d="M511.1,505.71c1.88-1.13,1.5-1.5,1.69-2.81,0-1.31,0-1.69-.56-2.06-.75-.56-3.38-1.69-5.63-1.69s-6.75.56-8.63,1.88c-1.69.94-2.44,5.25-2.44,7.5,0,1.88.38,2.25.94,2.25s1.69-1.5,1.69-1.5l3.56,5.06c1.31,1.88.75,2.81,0,4.31-.56,1.5-2.63,5.63-4.5,6.57s-3,0-5.25-.19c-1.88-.38-3.19.19-4.31,1.5-1.31,1.13,0,2.06.56,2.06.75,0,1.88,0,2.63.94.56.75,0,2.44,0,3.38h10.32c1.69-.75,3-3.19,3.38-4.5.56-1.5,2.81-3.56,3.75-4.5,1.31-1.13,1.31-1.88,1.31-3.94.03-1.78-.42-3.53-1.31-5.06-.94-1.58-1.4-3.41-1.31-5.25.19-1.31,2.44-2.81,4.13-3.94"
       id="path11" />
    <path
       class="cls-5"
       d="M494.22,480.01c.94,1.5.56,1.88-.94,2.25-1.5.19-3.19.56-5.63.38s-2.06,0-2.25,1.31c.03,1.92-.5,3.81-1.5,5.44-1.5,1.88-3.19.94-4.13.38-1.13-.75-1.69-.56-1.88.75l-2.25,4.13c-1.13,1.88-1.88,1.88-2.63,1.88-.75-.38-1.5-1.5-2.25-1.5s-2.06-1.69-3.19-3.56c-1.13-1.88-1.88.19-2.63,1.88s-1.5,2.81-3,2.63-3.19-3-3.94-4.69c-.94-1.88-1.5-3.38-2.63-3.19-1.31,0-3.56,2.63-4.88,3.38-1.5.75-1.88.56-2.44-.38-.75-.94-1.5.38-2.44,2.44-.75,2.06,0,3.94,1.31,4.5,1.13.56,3.38-1.13,5.06-2.06,1.5-1.13,2.25-.75,3.75-.75,1.69,0,1.5,2.63,2.25,6.38.75,3.94,3,4.5,3,4.5,0,0,.75.56,2.44-2.25,1.88-3,1.88-6,3.75-6,1.69,0,1.88.38,3.38,2.81,1.88,2.25,3.19,3.94,4.13,2.25.94-1.88,1.88-4.31,3-5.25.94-.94,1.88-1.13.94.56-1.13,1.69-1.88,3.38.75,2.81,2.25-.75,11.25-4.5,15.01-5.25l9.38-.94,8.25-.56q1.88,0,2.06-1.5c0-1.31-.94-.94-4.5-.94-3.75,0-6.19.38-8.63.75-2.63.38-3.75.38-3.38-.38.56-.56,1.31-1.13,4.13-1.5,3.99-.45,7.99-.7,12-.75,3.19,0,2.06.75,1.88,3-.19,1.88.19,5.06.38,6.94s.38,2.63,1.88,5.25c1.88,2.81,7.5,4.5,9.38,5.25,1.69.94,1.31,0,1.31-1.5,0-1.69,1.31-1.69,2.81-.75,1.5.75,3.75,1.5,5.63,1.88,1.88.56,1.88.94,1.88,1.88l.56,4.69c.19,1.88,0,2.44-.75,3.75l-3.94,4.5s-1.5,0-4.69.75-4.13,2.25-4.5,3.56c-.38,1.31.56,1.69.75,2.06v1.69h.75c.33-.65.71-1.28,1.13-1.88,1.13-1.31,3.75-1.69,5.63-.75,1.31.56,1.31,1.88,1.13,2.63h7.32l3.75-7.88c.94-1.69,1.31-2.81,1.31-5.25,0-2.25.38-11.63,0-12-.56-.56,0-2.06,0-4.69-.19-2.63,0-4.5-4.88-5.06-4.69-.38-6.19-2.44-7.88-4.13-1.69-1.5-1.13-5.25-2.44-9.75-1.31-4.69-4.5-5.25-10.13-6.38-4.62-1.02-9.36-1.34-14.07-.94-4.13.38-9.38,1.13-12.38.75-2.81-.38-2.25.56-1.31,2.25v.19Z"
       id="path12" />
    <path
       class="cls-5"
       d="M521.42,531.78c-.46.29-.84.67-1.13,1.13h4.88c.1-.53-.04-1.08-.38-1.5-.75-.94-2.25-.38-3.38.38M530.24,531.6c-.73.27-1.37.72-1.88,1.31h5.06v-.56c0-.75-1.69-1.69-3.19-.75M407.94,534.41l1.13,4.69h155.31c.46-1.54.83-3.11,1.13-4.69h-157.56ZM512.6,460.13c5.06,3.38,20.63,3.56,27.95,4.88,7.32,1.5,6.75,7.13,4.5,10.13-2.25,2.81-12.57,3.19-14.44,3.38,1.13.75,2.63,3,2.63,3l4.13-.38c4.38-.16,8.62-1.59,12.19-4.13,3.75-3.19,3.56-8.07.19-11.44-3.19-3.38-8.63-3.75-14.26-4.31l-15.94-2.06c-6.19-1.13-9.19-3.75-9.19-7.13,0-3.75,3.38-5.63,5.63-6.19,2.63-.75,6.38-1.88,9.94-.56,3.38,1.31,7.5,1.5,14.26.56,6.75-.75,8.25-5.63,8.25-5.63,0,0-.75.56-4.31.56-3.38,0-5.81-1.31-12.19-1.5-6.19,0-8.44,2.25-11.25,3.19-3,1.13-10.88,1.88-13.13,6.94-2.44,5.06.19,7.5,5.25,10.69h-.19Z"
       id="path13" />
    <ellipse
       class="cls-1"
       cx="471.9"
       cy="436.87"
       rx="3"
       ry="2.81"
       id="ellipse13" />
    <path
       class="cls-1"
       d="M534.74,441.94c-3.75-.38-9,.56-9,.56,0,0,1.13.75,2.44.75,1.13,0,3.56-.19,7.32.56,3.75.56,6.57-1.13,6.57-1.13l-7.32-.75Z"
       id="path14" />
    <path
       class="cls-3"
       d="M497.97,514.15c-.94-1.5-1.31-1.31-2.25-.38-1.13.94-2.25-2.25-2.44-4.31l.75-8.25s-5.25.94-8.07,1.88-5.63,1.31-7.88,1.88-3.56,1.13-4.69.75c-1.92-.29-3.87-.41-5.81-.38-2.06,0-1.88.38-3.94,2.44-2.06,1.88-2.63,3.19-4.31,6.94-1.5,3.75-2.06,7.32-2.63,12-.38,3-.94,5.06-1.31,6.19h24.38l.94-2.63c.62-1.16,1.61-2.08,2.81-2.63,1.13-.56,1.88-.56,2.25-1.5.56-1.13,1.88-1.88,3-2.63,1.31-.56,3.56-.19,5.63.38,1.88.56,2.63-.94,3.19-1.69l1.88-3.19c1.13-1.5.38-2.63.38-2.63,0,0-.94-.75-1.88-2.25M536.99,514.9c-.38-1.5-.19-1.69-.94-1.88-.94,0-2.25-.38-3.56-.94-1.13-.56-1.13,2.81-1.13,2.81,0,0-2.81.19-6,0-3.19-.56-7.13-3.38-8.44-4.31-1.31-1.13-2.81-3.19-2.81-3.19l-1.88,1.5c-1.13.56-1.88,2.63-1.88,4.69-.19,1.88,2.25,4.5,2.44,6.57.19,1.88-2.25,6.19-3.38,7.69-.75,1.13-1.88,3.75-2.44,5.06h11.63l1.31-1.88c1.13-1.31,3.19-1.69,3.19-1.69l.56-1.5c.38-1.13,1.69-2.44,4.5-3.56,3-1.13,6.38-1.31,6.38-1.31,0,0,1.5-1.13,2.44-2.81,1.13-1.5.38-3.75,0-5.25"
       id="path15" />
    <path
       class="cls-5"
       d="M439.07,644.33c2.25.75,6.38-.75,8.44-3.38,1.88-2.44,2.63-6.19,4.13-8.44l2.63-3.75s-.38,3.75-2.25,8.44c-1.65,4.36-2.29,9.05-1.88,13.69.94,5.25,4.5,6.19,6.57,5.63,1.5-.75,3.75-3.19,6-6.75l1.88-3.75c1.31-2.81,2.63-7.13,3.19-6.94,1.31.19.56,3.19,0,5.25-1.13,4.13-3,10.13-3.19,13.69-.19,3.75.19,10.32,3.75,10.69,3.75.19,5.63-3,7.69-10.5s2.44-9.75,3.38-9.75.94,5.06.94,7.32c.02,5.11,1.1,10.16,3.19,14.82,1.88,1.5,3.19,1.31,3.19,1.31,0,0,1.5.19,3.19-1.31,1.88-1.69,3.19-12.57,3.19-14.82s0-7.32.94-7.32,1.31,2.44,3.38,9.75c1.88,7.5,3.75,10.69,7.5,10.5,3.75-.38,4.13-6.94,3.94-10.5,0-3.75-2.06-9.75-3.19-13.88-.94-3.94.56-3.75,3.19,1.5l2.63,5.06c1.88,3,3.75,4.88,5.25,5.63,2.06.56,5.63-.38,6.57-5.63.75-5.63-3.19-21.01-3.19-21.01l1.69,2.63c1.5,2.25,2.25,6,4.13,8.44,2.06,2.63,6.19,4.13,8.44,3.38s2.44-4.69.75-12c-1.5-7.5-8.07-11.44-12.75-17.26-4.31-5.44-7.5-15.01-8.07-16.32-5.89,2.77-11.23,6.58-15.76,11.25l-11.82,12.38s-1.88-2.44-11.63-12.57c-4.59-4.69-9.99-8.5-15.94-11.25-.38,1.31-4.5,10.5-8.82,15.76-2.06,2.81-5.06,4.88-7.32,7.5-2.37,3.08-3.97,6.68-4.69,10.5-1.69,7.13-1.31,11.25.94,12h-.19Z"
       id="path16" />
    <path
       class="cls-5"
       d="M438.89,669.09l4.31-3.75s1.88-1.88,1.5,1.5c-.56,3.19-1.69,9.94-.94,12.75.75,3,1.13,5.63,4.69,3.38s4.31-3.56,6-5.25c1.88-1.88,3.75-2.63,3.19.19-.38,2.81-1.88,7.13-1.13,12.94.56,5.63,3.38,6.57,7.13,1.69,2.73-3.68,5.05-7.64,6.94-11.82,1.13-2.44,3.38-4.5,3.38,0,0,9.57,2.25,23.63,12.75,27.2,10.69-3.75,12.75-17.63,12.75-27.2,0-4.5,2.25-2.44,3.38,0,1.89,4.17,4.22,8.13,6.94,11.82,3.75,4.88,6.57,3.94,7.13-1.88.75-5.63-.56-9.94-1.13-12.75-.38-2.81,1.5-1.88,3.19-.19,1.69,1.88,2.63,3,6.19,5.25,3.56,2.06,3.75-.38,4.5-3.38.75-2.81-.38-9.38-.94-12.75-.38-3.38,1.69-1.5,1.69-1.5l4.13,3.75c2.81,2.44,6.75,2.63,6.75,2.63,0,0,1.88-9.94-2.44-15.94l-5.63-8.07s-2.44,0-4.13-.75c-1.88-.75-3.75-2.06-3.75-2.06v5.63l6.38,6.19c1.31,1.5,3.75,3.94,0,1.69-2.13-1.54-4.19-3.17-6.19-4.88,0,0-.75,5.06-2.25,6.38-1.5,1.31-3.56,1.5-4.31,1.13l-.94-.38-.19,1.88s3.19,6,3.75,8.44c.19,2.25-.38,2.06-1.88-.94-1.5-3.19-4.31-7.13-5.63-9.38-1.31-1.88-3.19-3.38-3-.75.19,2.81-.94,7.69-1.88,9.38l-1.5,2.63,2.25,8.25c.19,1.13,0,2.63-1.13.94-1.13-1.5-4.13-8.44-4.13-8.44,0,0-4.31,0-5.63-1.31-1.13-1.13-3-5.81-3-5.81,0,0-1.69,5.81-3,7.69-1.5,1.88-4.88,3.75-4.88,3.75l-.38,12.19c-.19,1.88-.38,2.63-1.13,2.63s-.75-.75-1.13-2.63l-.38-12s-3.38-1.88-4.69-3.75c-1.5-1.88-3.19-7.88-3.19-7.88,0,0-1.88,4.69-3,5.81-1.31,1.13-5.63,1.31-5.63,1.31,0,0-3,6.94-4.13,8.44-1.13,1.88-1.31.19-.94-1.13,0-1.13,2.06-8.07,2.06-8.07l-1.5-2.44c-1.24-2.97-1.88-6.16-1.88-9.38.19-2.81-1.88-1.5-3,.75-1.31,2.06-4.13,6-5.63,9.19-1.31,3-2.06,3.19-1.69.94.56-2.44,3.75-8.44,3.75-8.44l-.38-1.88-.75.38c-.94.38-3,0-4.5-1.13-1.31-1.31-2.06-6.38-2.06-6.38l-6.38,4.88c-3.75,2.25-1.13,0,0-1.69,2.06-2.13,4.19-4.19,6.38-6.19v-5.63s-1.88,1.31-3.75,1.88c-1.32.51-2.71.82-4.13.94l-5.63,8.07c-4.13,6-2.44,15.94-2.44,15.94,0,0,3.94,0,6.75-2.63M490.47,736.05c-2.81-3.19-3.75-4.69-3.75-4.69,0,0-.75,1.5-3.56,4.69-2.63,3.19-9,8.07-9,8.07.61,9.11,5.21,17.48,12.57,22.88,4.13-2.63,6.57-6.19,9.19-9.94,3-4.5,3.56-12.94,3.56-12.94,0,0-6.38-4.88-9-8.07"
       id="path17" />
    <path
       class="cls-1"
       d="M485.41,746.37c.19,1.88,0,6.75,1.31,6.75,1.13,0,.94-4.88,1.31-6.75l.19-6.57h-3.19s0,4.5.38,6.57"
       id="path18" />
    <path
       class="cls-5"
       d="M486.72,287.56c-10.78.33-21.55-1.06-31.89-4.13l-7.88,1.88c12.71,4.7,26.22,6.87,39.77,6.38,17.44-.19,27.57-1.88,39.58-6.57l-7.88-1.69c-10.34,3.06-21.11,4.46-31.89,4.13h.19ZM527.8,278.19c-2.4-1.83-4.91-3.52-7.5-5.06-1.31-.75-.19-2.63,0-3.38,2.95-1.52,6.11-2.59,9.38-3.19,3-.75,2.63-1.5,2.63-1.5,0,0-1.88-2.06-13.51-3.38s-32.07-.94-32.07-.94c0,0-20.63-.38-32.07.94-11.63,1.31-13.51,3.38-13.51,3.38,0,0-.56.75,2.63,1.5,3.19.94,9,2.44,9.38,3.19,0,.75,1.13,2.63,0,3.38-2.63,1.49-5.14,3.18-7.5,5.06-.94.75-.94,1.88.38,1.88q1.5,0,5.63-.75c23.24-4.39,47.1-4.39,70.34,0,3.75.94,3.94.94,5.44.75,1.31,0,1.31-1.13.38-1.88"
       id="path19" />
    <path
       class="cls-5"
       d="M514.48,283.06c-7.88-.94-13.13-1.88-27.76-1.88s-19.88.94-27.76,1.88c4.88,1.88,13.13,3,27.76,3s22.88-.94,27.76-3M478.09,168.64l6.57-.75-.38,5.63,6-.38-.56-5.44,6.57.94.38-5.25-6.94.56,1.13-5.63h-7.5l1.31,5.63-6.57-.56v5.25ZM497.6,182.15h-8.25v-6.94c-.8-.15-1.62-.21-2.44-.19-.69-.06-1.38-.06-2.06,0v7.13h-8.44c-.41,1.27-.54,2.61-.38,3.94h21.95v-1.13c-.06-.96-.25-1.9-.56-2.81h.19Z"
       id="path20" />
    <path
       class="cls-3"
       d="M486.91,194.9c4.88,0,9-2.81,10.5-6.75h-21.01c1.5,3.94,5.63,6.75,10.5,6.75M491.41,175.77v4.88h5.63c-1.22-2.26-3.22-3.99-5.63-4.88M482.4,175.77c-2.33.94-4.26,2.66-5.44,4.88h5.63l-.19-4.88Z"
       id="path21" />
    <path
       class="cls-1"
       d="M493.28,264.87l-6.57-3-6.57,3.38c-2.44,1.13-2.06.75-2.81,2.63-.75,1.5,0,2.25,1.13,2.63l8.25,4.31,9.19-4.31c1.69-.75,1.31-1.69.94-3-.56-1.13-1.5-1.69-3.75-2.63h.19Z"
       id="path22" />
    <path
       class="cls-5"
       d="M494.03,266.93l-7.5-3.38-6.94,3.38,7.32,3.75,7.13-3.75ZM486.53,238.79s-.56,2.63-1.31,3.75c-.75.94-1.31,1.88-1.13,3.38.19,1.31,1.69,2.06,2.63,2.06.75,0,2.25-.75,2.63-2.06,0-1.31-.38-2.44-1.31-3.38-.75-1.13-1.31-3.75-1.31-3.75h-.19Z"
       id="path23" />
    <path
       class="cls-5"
       d="M486.72,249.3c.73,0,1.31.59,1.31,1.31s-.59,1.31-1.31,1.31-1.31-.59-1.31-1.31.59-1.31,1.31-1.31Z"
       id="path24" />
    <path
       class="cls-5"
       d="M481.84,243.67s2.44-2.63,3.19-4.31l1.69-3,1.5,3c.94,1.69,3.19,4.31,3.19,4.31,0,0,3.38-1.88,5.25-8.07,1.88-6.38-.56-13.13-1.31-20.26-.71-6.48-1.21-12.99-1.5-19.51-2.16,1.29-4.61,2-7.13,2.06-2.51-.06-4.97-.77-7.13-2.06,0,0-.75,12.38-1.69,19.51-.75,7.32-3.19,13.88-1.31,20.26,1.88,6.38,5.25,8.07,5.25,8.07"
       id="path25" />
    <ellipse
       class="cls-1"
       cx="486.72"
       cy="229.42"
       rx="5.63"
       ry="5.44"
       id="ellipse25" />
    <ellipse
       class="cls-1"
       cx="486.72"
       cy="216.47"
       rx="5.44"
       ry="5.25"
       id="ellipse26" />
    <ellipse
       class="cls-1"
       cx="486.72"
       cy="204.28"
       rx="5.25"
       ry="5.06"
       id="ellipse27" />
    <circle
       class="cls-5"
       cx="486.72"
       cy="228.48"
       r="3"
       id="circle27" />
    <ellipse
       class="cls-5"
       cx="486.72"
       cy="215.54"
       rx="3"
       ry="2.81"
       id="ellipse28" />
    <ellipse
       class="cls-5"
       cx="486.72"
       cy="203.34"
       rx="2.63"
       ry="2.44"
       id="ellipse29" />
    <path
       class="cls-1"
       d="M486.53,657.27c.38,0,.38-.94.38-2.63l.75-8.07c.38-2.25-.56-2.25-1.31-1.88-.56,0-.94,1.88-.94,2.81l.38,8.25c0,1.31.38,1.31.75,1.5"
       id="path29" />
    <path
       class="cls-5"
       d="M427.45,703.23c2.63-1.5,4.88-3.19,10.5-7.13,3.22-1.96,5.92-4.66,7.88-7.88h-1.88c-1.31,0-2.25-1.5-2.25-3.19,0-1.5,0-4.5.38-8.25s-.56-6.57-.56-6.57c0,0-2.44,2.25-6.19,4.31-3.75,1.88-5.25.94-5.25.94l-.94-3.75-3.75,7.5c-2.25,3.75-8.44,8.25-12.75,11.63-3.95,3.18-8.3,5.83-12.94,7.88-3.56,1.31-1.5,3-1.5,3,0,0,3.75,3.75,13.13,5.25,9.38,1.88,13.69-1.88,16.13-3.75"
       id="path30" />
    <path
       class="cls-5"
       d="M460.27,699.66c-3.38-.38-5.44-1.5-6-5.25-.38-2.25,0-11.25,0-11.25l-2.25,2.25c-1.31,1.69-4.13,1.88-4.13,1.88,0,0-.38,1.31-1.69,3.38-1.45,2.64-3.5,4.89-6,6.57-3.24,1.95-6.37,4.08-9.38,6.38-2.62,2.32-5.44,4.39-8.44,6.19-3.63,1.93-6.24,5.36-7.13,9.38-1.13,4.69-.38,6.19,3.38,6,3.75-.38,4.13,0,10.13-1.5s14.44-8.25,20.63-12.19c6.38-3.75,10.88-11.82,10.88-11.82"
       id="path31" />
    <path
       class="cls-5"
       d="M476.78,705.1s-2.44-3.19-3.38-6.75l-2.81-10.88-2.81,6.57c-1.88,4.31-5.63,5.44-5.63,5.44,0,0,0,1.88-2.81,5.44-3.18,3.76-6.98,6.93-11.25,9.38-5.04,2.59-9.5,6.16-13.13,10.5-3,4.31-3.19,8.82-1.88,10.69,1.5,1.88,3.56-.38,6.38-1.88,2.81-1.31,11.07-2.63,22.51-8.63,11.25-6,14.82-19.88,14.82-19.88"
       id="path32" />
    <path
       class="cls-5"
       d="M481.65,730.42c3.19-4.69,3.75-15.94,3.75-15.94l-2.81-1.88-4.31-5.81-3.75,7.5c-1.93,3.33-4.48,6.25-7.5,8.63-4.13,3.94-9.75,7.69-12.19,11.82-2.44,4.31-1.13,12.57.38,15.19,1.69,2.81,3.75,1.88,6.19-.38l7.32-6.38c4.13-3.56,9.94-8.07,13.13-12.75h-.19Z"
       id="path33" />
    <path
       class="cls-1"
       d="M444.7,635.7c1.29-3.32,3-6.47,5.06-9.38.95-1.49,1.77-3.06,2.44-4.69,0,0-3.94,3.75-5.63,6.38-1.46,2.45-2.53,5.11-3.19,7.88-.75,2.81-.38,3.19,1.31,0v-.19ZM460.65,638.7c.34-1.24.65-2.5.94-3.75,0,0,.75-2.25.38-2.44-.38,0-1.88,1.5-3.19,5.06-1.13,3.75-2.81,9-2.44,9.38.19,0,3.75-6,4.31-8.25M473.21,648.83l.75-1.88s1.31-3.94,1.31-4.88-.38-1.88-1.5.38c-1.13,2.06-1.13,4.13-1.31,5.06-.38.94-1.5,4.13-1.13,4.5.38.19,1.13-1.69,1.88-3.19M434.2,687.09l-1.69-.94-2.44,2.81c-1.31,1.5-3,2.25-4.13,3.75-1.4,1.87-3.19,3.4-5.25,4.5-2.63,1.31-3.75,1.88-3.19,2.06.56.56,2.25-.56,2.25-.56,0,0,.75,0,3.94-1.88,3.19-1.88,3.75-3,5.81-4.69,2.06-1.88,4.69-5.06,4.69-5.06M447.89,703.41c1.31-1.31,2.44-2.25,1.88-2.81-.75-.75-1.5-.75-2.63.19l-5.63,5.25-4.13,3.19c-1.31,1.13-4.5,2.81-6,3.56-1.5.94,0,.94,0,.94l2.44-.94,4.88-2.06,3.38-2.06c2.08-1.59,4.02-3.35,5.81-5.25M463.65,714.29c1.13-2.06,0-1.5-1.88-.75-1.5.56-5.25,4.69-7.5,6.19s-4.13,2.25-5.81,3.19c-1.88.94-1.88,1.31-1.88,1.88,0,.38.94.38,1.69,0l3.38-1.88,1.88-.38c1.13,0,2.63-1.31,4.88-3.19,2.25-1.88,4.31-3.19,5.25-5.06M471.15,728.74c-3,1.69-7.69,5.44-9,7.88-1.31,2.63-2.06,4.31-1.69,4.88.38.38,1.88-.56,2.44-1.5.56-1.13,1.88-2.63,1.88-2.63,0,0,4.69-4.69,6.38-5.63,2.3-1.58,4.17-3.7,5.44-6.19.56-1.88,0-2.81,0-2.81,0,0-2.81,4.31-5.63,6h.19Z"
       id="path34" />
    <path
       class="cls-8"
       d="M396.68,324.89c-10.94-5.95-23.86-7.03-35.64-3-4.31,1.13-7.88,1.31-11.25.38-5.25-1.31-9.38-6-10.69-11.82,0,0-4.88,6.19,0,12.75,2.02,3.01,5.1,5.16,8.63,6,10.32,1.88,20.26-4.31,28.7-4.88,8.25-.38,14.63,4.69,14.63,4.69,0,0,1.88,1.69,4.69,0,2.63-1.5,3.38-2.81.94-4.31v.19Z"
       id="path35" />
    <path
       class="cls-5"
       d="M367.23,620.13l-2.44-.38c-1.8-.4-3.56-.97-5.25-1.69-.94-.38-2.25-.38-3.19.56s-8.25,5.44-8.25,5.44h12.19c4.13,0,6.94-4.13,6.94-4.13v.19Z"
       id="path36" />
    <path
       class="cls-5"
       d="M401.37,618.07v-1.31l-1.5-3.38s-1.88,1.13-3.75,3c-2.44,2.44-4.88,6-6,7.5-2.06,2.44-4.88,4.88-2.44.75s3.19-6,5.06-8.63c1.88-2.81,3.38-3.94,3.19-4.13l-6.94-1.13c-5.06-.56-8.25-2.63-10.5-3.94l-6.57-3.75s-8.63,3.75-11.82,4.5c-3.38.94-5.25,1.31-2.06,2.81,3.19,1.69,5.81,2.06,7.5,3,1.31,1.13,6.19,2.63,9,2.63,3,0,7.88,0,6,1.88-1.88,2.25-4.13,6.19-6.19,12-1.55,4.46-2.32,9.16-2.25,13.88l.38,5.06s3.56-3.94,13.13-9.94c9.38-6,13.13-8.07,14.82-8.82,1.88-.75,2.63-.75,2.25-3l-1.31-9Z"
       id="path37" />
    <path
       class="cls-5"
       d="M437.95,588.99l-1.88-.75c-.12-.01-.25-.01-.38,0-1.13.75-6.94,4.5-9.38,8.44s-4.69,4.13-2.06,0c1.77-3.06,3.98-5.84,6.57-8.25l1.88-1.88c-5.09-2.42-9.99-5.24-14.63-8.44-.56,1.31-1.88,3.75-3.19,5.06-1.88,2.06-6.57,3.94-6.57,3.94,0,0,3.75-3.75,4.88-6.57l1.5-4.88c-3.5-2.72-6.71-5.8-9.57-9.19-1.52,5.53-4.35,10.62-8.25,14.82-7.5,8.44-22.51,12.57-22.51,12.57,0,0-5.25.56-.94,1.88,4.13.94,7.13,2.81,15.57,1.5,8.25-1.5,8.82-1.88,9.94-2.25,1.13-.19,4.13,0,0,1.5s-13.88,3-17.44,2.63c-3.75-.19-8.82-1.13-3.56,1.88s7.5,3.75,10.69,3.75c3.38,0,4.69,1.13,7.88,1.13s3.94-.56,6.19-1.13c2.25-.38,3.75.38,3.75,1.31s-3,3.38-3,9.38.56,10.32,1.13,12c.56,1.88,1.88,4.69,2.81,6.38.94,1.88,1.31,3.38,2.06,0,.94-3.75,3-8.82,3.75-12.38.75-3.38,1.31-3.56,1.5-5.44.38-1.69,2.25-3,1.5.19-.94,3.42-1.82,6.86-2.63,10.32-.75,2.81-2.25,8.25.38,3.94,2.81-4.13,12.75-15.57,14.44-17.44,1.88-1.88,3-3.94,4.31-5.63,1.13-1.69,4.69-3.75,6.38-6.38,1.5-2.25,6-6.57,7.88-8.07l-9-4.13v.19ZM298.77,330.71c.19,6.19,7.13,18.01,10.88,24.38,3.94,6.19,5.06,8.63,4.31,9-.56.56-2.25-2.81-4.31-5.63l-9.75-14.26c-3.56-4.88-8.63-16.88-9.38-17.82-.56-1.13-.94-1.88-2.63-.38-1.88,1.31-5.06,14.26-1.13,23.07,4.13,9,10.13,15.38,12.57,18.38,2.63,3.19,6,7.88,5.44,8.44-.56.38-1.5-.94-4.5-4.13-4-4.13-7.88-8.39-11.63-12.75-2.81-3.86-5.32-7.94-7.5-12.19-.56-.94-1.31-.75-1.88-.19-.94,1.13-2.63,3.75-1.88,10.69.94,9.75,6.19,15.38,10.69,20.45,4.5,4.88,9,9,8.44,9.75-.75.56-5.44-3.56-8.63-6.57-3.19-3.19-11.25-10.69-12.75-12.94-1.88-2.06-4.31-1.13-4.13,7.5,0,8.25,9.38,16.88,13.13,21.57,4.13,4.69,8.82,7.5,8.44,8.44s-4.31-1.5-6.75-3.19c-2.63-1.88-12-7.88-13.88-9.38-1.88-1.13-2.81,1.31-.56,9.38,2.44,8.07,9.38,14.44,13.51,17.44,4.31,3,10.88,6.57,10.5,7.5s-3.19-.19-7.13-2.06c-3.75-1.88-8.44-3.75-11.82-4.69s-3.38,1.5-3.38,1.5c0,0-.75,6.94,4.31,12.38,4.14,4.65,9.78,7.7,15.94,8.63,5.25.94,6.19,1.13,6,1.88,0,.94-.75.94-1.88.94-1.31,0-6.19.56-10.69.56s-6.94,1.13-6.94,3.19c0,1.88-.19,4.69,6.57,9.19,6.94,4.5,14.44,5.25,17.82,5.81,3.19.75,3.19.94,2.63,1.88-.75.94-2.25.94-7.32,1.5-5.06.38-8.07,2.44-8.82,3.75-.75,1.5.38,5.44,4.5,8.25s9.57,3.75,17.63,3.19c8.07-.56,9.94-.56,10.32.75.19,1.31-2.44,1.69-6.38,2.44-4.13.56-7.13.56-9.38,2.44s-.56,5.63,3.19,8.63c3.94,2.81,13.51,2.81,17.63,2.44,3.94-.19,10.13-1.69,10.5-.56.38,1.13-2.81,2.63-7.13,4.13-4.13,1.5-5.25,2.44-6,4.13-.94,1.88-.19,3.38,4.69,5.25,5.06,1.88,12.19,1.88,15.94,0,3.75-1.5,5.81-2.25,6.57-1.5.56.56,0,1.31-.94,2.25-2.26,2.16-5.04,3.71-8.07,4.5-4.13,1.13-4.69,1.13-6,4.5-1.5,3.38,2.25,6,9.75,6.19,7.5.38,17.44-2.63,20.63-4.5s4.5-2.25,5.06-1.69c.56.75.38,1.13-1.31,2.25-1.5,1.31-6.57,4.88-9.19,5.63-2.63.56-2.81,2.44-2.81,4.31,0,1.69-.75,5.25,6,6.75,6.75,1.69,14.63.38,21.76-4.69,1.74-1.08,3.27-2.48,4.5-4.13-.56-6.94-.19-11.63.56-15.94-2.32-.26-4.59-.83-6.75-1.69-4.13-1.5-5.63-5.25-6.57-7.5-.94-1.88-2.44-1.88-3.94-1.31-1.69.56-3.19,1.31-5.63,1.13-4.1-.43-7.87-2.45-10.5-5.63-3.38-4.13-2.81-8.07-3-10.13,0-1.88-3.19-.56-4.88-.56s-6.19-.56-10.5-3.56-4.31-6.94-4.69-8.63c-.38-1.5-2.25-2.63-3.56-3.19-1.31-.56-3.38-1.13-6.38-3.38s-3.94-7.13-4.13-8.82c0-1.5-1.88-1.88-7.88-4.88s-5.63-9.38-5.25-12c.19-2.63,3-4.69,3-5.63s-1.88-1.13-3.94-2.44c-1.88-1.13-7.13-3.19-7.32-10.69,0-7.5,4.88-8.25,4.88-8.25l-3-1.69c-1.88-1.13-7.5-4.88-7.5-9.38s2.06-6.38,3.56-7.5c1.5-1.13,5.63-2.06,5.63-2.06,0,0-2.63-1.88-3.75-5.25s-1.5-7.69,1.13-10.88c2.44-3,6.75-3,9-3s4.31,1.31,5.06.56.94-1.13.19-3-.94-6-.38-7.5c.75-1.5.94-4.31,6.57-6.19s11.82,1.88,13.69,3,1.13-1.5,1.13-3.38-3.75-6.57-8.25-13.13c-9.48-14.38-16.34-30.32-20.26-47.08-.75-3.38-1.88-1.88-1.88-1.88,0,0-1.5.56-4.5,8.44-2.62,6.68-3.77,13.84-3.38,21.01"
       id="path38" />
    <path
       class="cls-5"
       d="M399.68,467.82c-4.66-.49-8.82-3.13-11.25-7.13-3.56-5.06-8.63-6.19-17.63-6-9,0-13.13-4.13-15.38-10.32-2.25-6.38.38-13.32,9.38-17.82,9.38-4.5,13.32-9.57,13.69-17.26.38-7.88-9.19-17.44-18.57-28.32s-16.88-26.26-16.88-26.26c0,0-2.81,3.56-2.81,7.13,0,3.75,1.5,7.5,0,8.44-1.31,1.13-1.88-1.5-7.5-3.75s-9.94-2.81-13.32,1.13,0,10.88,3.19,14.07c3,3.38,5.63,5.63,4.69,6.94-.75,1.31-5.63-1.88-6.94-3-1.69-.94-5.25-4.88-10.69-4.5-5.25.56-7.13,2.06-7.5,6.57-.75,4.5,4.69,8.63,8.07,10.32,3.56,1.69,4.88,3.19,3.94,3.75-.75.94-1.69,0-3.19-.38-1.5-.56-5.81-.94-8.63,0-2.81,1.13-7.32,4.88-3.19,9.38,4.13,4.88,12.75,6.57,14.63,6.94,1.69.38,2.44-.19,2.63,1.13.19,1.5-3.56,1.5-8.25,1.69-4.69,0-6,4.5-5.25,8.07.56,3.38,8.44,7.13,12.75,7.88s5.63,0,6.19,1.31c.38,1.13-.56,1.69-3,2.25-2.44.75-7.13,1.31-7.88,5.06-.94,3.75-1.13,5.63,2.63,8.82,3.56,3.38,9.38,2.81,11.25,2.44,1.69-.38,3.75-2.25,5.44-.56,1.69,1.88-1.5,3.19-4.5,5.25-3,1.88-2.81,6,2.25,8.82,3.71,1.93,8.04,2.27,12,.94,2.06-.56,4.88-3.75,6.19-1.88,1.5,2.06-4.31,2.81-6.75,5.63-2.25,3-1.5,7.88,3.38,10.88,4.88,2.81,12.75.75,14.07-.38,1.5-1.31,3.19-1.88,4.13-.75,1.13,1.13-.38,3.75-1.5,6.19-.94,2.44-2.81,9.38,4.31,12.38,7.32,2.63,13.88-3.56,15.01-4.69,1.31-1.31,2.44-1.5,3.38-.94,1.13.56.56,1.5-.19,2.81-2.03,3.43-.94,7.84,2.44,9.94,2.76,1.82,6.13,2.49,9.38,1.88,1.13-3.94,2.44-8.25,3.75-14.26h-.94c-.75,0-.75.94-.75,1.31,0,.56,0,.75-.56.75s-.56.38-1.5,1.13c-.94.56-1.88,1.31-2.25.94s1.88-1.5,2.44-2.25c.75-.75,1.88-1.88,1.88-2.81.19-.94.56-1.31,1.88-2.44l.94-.94c.75-4.13,1.69-8.82,2.44-14.44.43-3.67.68-7.37.75-11.07h-2.25ZM252.44,359.97c7.5,15.57,18.57,24.38,18.57,24.38,0,0-1.5-3.94-2.06-6.57-.75-2.63-.19-5.63-.19-5.63,0,0-2.81-3.75-7.69-11.25-5.06-7.88-7.88-19.32-7.88-19.32,0,0,4.69,11.44,8.44,17.44,2.35,3.94,4.98,7.7,7.88,11.25,0,0,1.5-5.63,2.44-5.63,1.13-.38,1.88.38,2.81,1.69.94,1.13,1.69.94,1.69.94l-3.19-5.63c-.94-1.31-2.25-2.81-3-4.31-3-4.5-9.19-13.13-12.38-21.76-3.19-8.63-10.13-30.2-11.25-36.58-1.13-6.38-2.44-3-3.75,1.88-1.93,6.89-2.51,14.09-1.69,21.2,1.37,13.22,5.18,26.07,11.25,37.89M262.38,401.98c2.35,1.73,4.72,3.41,7.13,5.06l-1.13-3.56-.56-5.63-5.81-5.06c-4.14-3.62-7.91-7.64-11.25-12-5.63-7.13-1.13-2.81,3.75,2.44s13.88,12.75,13.88,12.75v-1.88c0-1.5.56-2.63,1.31-3.75.94-1.13.56-1.13-4.69-5.06-14.9-13.77-26.83-30.42-35.08-48.96,0,0-3,17.82,7.88,37.51,10.88,19.7,21.57,26.07,24.38,28.14h.19ZM319.4,514.53c6-2.25,4.31-8.07,4.31-8.25l-6.94,2.44c-3.38,1.31-11.63,3.75-15.01,3.75-3.19,0-3.19-.38-3.38-.75,0-.56,2.63,0,7.32-.94s12.94-5.25,14.44-6.19c1.31-.94,1.13-1.13-.94-1.31-1.71-.17-3.34-.82-4.69-1.88-.75-.56-3,.38-8.44,1.69-14.1,3.64-28.82,4.15-43.14,1.5-1.13-.38-2.63.38,1.5,7.32,4.13,6.94,18.76,10.69,28.89,10.5,9.94,0,20.07-5.63,26.07-7.69v-.19ZM292.58,500.27c10.32,0,14.26-3,14.26-3,0,0,0-.56-1.31-2.63-1.5-2.06-1.13-5.63-1.13-5.63l-6.94.94c-4.31.75-9.38,1.31-15.01.38-5.44-1.13-3-1.69,1.31-1.13,4.5.56,13.13-1.13,15.76-1.88,2.63-1.13,1.5-1.88-.38-2.63-1.88-.56-6.75-3.75-6.75-3.75,0,0-12.75,1.5-24.38.19-11.82-1.31-19.13-4.31-21.57-4.69s-2.25.56-2.25.56c0,0-.75,1.13,3.38,7.5,4.66,6.15,11.27,10.52,18.76,12.38,8.57,2.28,17.4,3.41,26.26,3.38M289.95,475.89l-1.13-2.63c-.56-2.25,1.13-3.75,1.13-3.75,0,0-2.44-.75-10.13-1.88-7.69-.75-8.25-1.5-13.13-2.44-4.5-1.13-7.69-2.44-7.69-3s1.5.19,4.5,1.31c2.63.94,14.63,2.25,19.7,3s7.88,1.13,8.63.75c.94-.56,4.13-1.31,4.13-1.31l-4.88-1.13c-2.28-.43-4.46-1.32-6.38-2.63-1.5-.94-1.88-1.13-8.25-1.88s-11.44-2.81-22.88-6.94c-11.25-4.13-19.88-9-22.13-10.88-2.44-1.88-2.25-.56-1.5,1.88.56,2.25.56,5.25,6.19,12,5.63,6.75,8.63,9.57,23.07,15.01,14.44,5.25,30.76,4.5,30.76,4.5M247.19,440.62c9.32,6.35,19.86,10.7,30.95,12.75.56-.75-.75-3.75,0-5.63.75-2.25,2.06-2.25,5.06-2.44,3.19,0,1.13-.75.38-.75l-6-1.5c-5.06-1.31-10.32-1.88-17.26-4.69-7.13-2.63-9.38-4.69-9-5.06,0-.56,3.19,1.69,9.75,4.13s14.07,3.38,18.19,4.31.56-.94-1.31-2.06-4.69-5.44-4.69-5.44c0,0-4.69-.75-12.19-3-7.5-2.25-13.69-4.88-19.88-8.44-2.25-1.13-4.31-2.81-6.57-4.31l-10.32-7.5c-2.44-1.88-1.88-.38-1.5.75.38,1.13,2.06,6.57,6.19,12.38,3.94,5.63,5.25,7.5,18.19,16.51M244.94,415.3c12.75,9.94,23.45,13.13,25.32,13.88s1.88-.19,1.31-1.31c-.38-1.13-.56-4.5-.56-4.5l-9.38-5.63c-5.25-2.81-10.69-6.75-14.44-9.38-3.75-2.44-1.5-2.25-.38-1.31s6.38,3.75,11.25,7.13l13.13,7.69s0-1.69,1.13-2.63c1.13-1.13,3.75-.75,3.75-.75l-2.06-2.63c-.94-1.31-5.06-2.63-9.75-4.88-6.82-3.85-13.23-8.37-19.13-13.51-6.19-5.25-18.19-18.38-18.94-19.32-.94-1.13-1.31-.94-1.5.38,0,1.31-.56,2.25.75,8.25s6.94,18.57,19.51,28.51M289.58,320.95l4.13,7.13c.98,1.54,1.92,3.1,2.81,4.69v-2.81c-.37-2.3-.37-4.64,0-6.94.19-1.69.56-3.19.38-4.5,0-1.69-.56-3-.75-3.75-.38-1.88-2.25-9.19-3.19-14.44-1.09-6.32-1.65-12.72-1.69-19.13,0-6.57.94-3.19.94,0s.38,8.07,1.5,15.57c.94,7.5,4.13,18.76,4.13,18.76,0,0,0-1.69,1.13-4.13.94-2.63,2.44-5.44,3.75-8.44s.75-3.75.75-3.75c0,0-4.5-21.2-5.63-31.14s-3-36.39-3-36.39c-6.57,6.57-11.25,23.63-12.19,39.95-.56,12.19,1.31,23.45,1.88,28.14.59,7.28,2.3,14.43,5.06,21.2M275.32,354.34c0-4.88,1.31-8.44,4.31-9.38,0,0-2.63-4.88-5.06-11.82-1.69-5.01-2.95-10.16-3.75-15.38-1.69-11.25-3-23.07.38-3.75,3.38,19.13,7.5,25.89,7.5,25.89l4.88,8.07c-.67-3.27-.86-6.62-.56-9.94,0-3.75.56-9,1.88-13.13,0,0-6-11.82-9.75-26.07-4.23-14.7-6.38-29.91-6.38-45.21,0,0-6.19,4.5-8.25,27.76-1.24,18.3,1.18,36.67,7.13,54.02,2.33,6.32,4.84,12.57,7.5,18.76l.19.19ZM341.72,531.6l-3.75-2.44c-2.81-1.88-1.88-7.5-1.88-7.5l-3,2.06c-2.25,1.5-4.5,3.19-7.5,4.31l-5.81,2.63c-1.88.56-1.5,0,0-.94,1.69-.94,2.06-1.5,6-3,3.75-1.5,11.44-8.25,11.44-8.25l-4.88-.19c-3.19-.19-7.32-1.88-7.32-1.88,0,0-3.19,3-15.94,8.44-12.75,5.63-23.63,6.94-23.63,6.94,0,0,1.31,6.57,7.5,8.82,5.06,2.06,12.19,3.56,25.89.19,8.08-1.89,15.85-4.92,23.07-9l-.19-.19ZM358.61,544.73c1.13-5.44-1.88-9.19-1.88-9.19l-2.63,2.06c-1.88,1.88-4.88,5.06-10.13,7.69-5.44,2.81-7.5,2.63-2.25-.19s12.94-10.69,12.94-10.69l-2.06-.75c-1.88-.75-5.63.56-19.88,9.19-14.44,8.63-22.88,9-22.88,9,0,0,6.38,7.69,23.82,7.13,17.63-.56,23.82-8.82,24.95-14.26M391.62,538.35s-1.88,2.81-4.5,4.5c-2.63,1.88-9.38,2.81-9.38,2.81l-1.88,2.44c-1.89,3.14-4.37,5.88-7.32,8.07-3,2.25-7.88,3.75-8.07,3.19-.38-.56,2.81-1.88,5.63-3.75,3.19-1.69,5.63-5.06,7.88-7.5,1.88-2.25-.94-1.88-.94-1.88h-6.94c-3.38-.38-2.81,0-3.75,1.5-.94,1.69-2.25,3.19-4.88,6l-8.82,10.13c-1.88,2.44-.38,3-.38,3,0,0,.75,1.5,8.63,2.44,4.69.38,9.94,0,15.38-3.38,3.93-2.47,7.47-5.5,10.5-9,9.38-10.13,8.82-18.57,8.82-18.57M395.75,559.54l-2.81,3.56s1.31-4.13,2.44-6.19l1.88-2.63c-1.36-3.02-2.43-6.16-3.19-9.38-.94,2.81-3.56,10.88-6.94,16.13-3.94,6.57-7.5,8.82-5.25,10.5,2.44,1.88,6.94,2.25,12-.38,3.84-1.93,6.45-5.67,6.94-9.94-.88-1.4-1.7-2.84-2.44-4.31-.56.38-1.5,1.13-2.44,2.63h-.19Z"
       id="path39" />
    <ellipse
       class="cls-5"
       cx="394.62"
       cy="302.19"
       rx="3.56"
       ry="3.38"
       id="ellipse39" />
    <path
       class="cls-5"
       d="M387.3,296c3.19,0,4.88-1.69,8.44-1.31,6.04,1.23,11.82,3.52,17.07,6.75,6.17,2.85,13.13,3.44,19.7,1.69,1.88-.56,3.75-1.88,5.63-2.81,8.63-4.69,6.57-14.26,6.57-14.26-6.16,4.58-13.71,6.9-21.38,6.57l1.88,1.5c1.13,1.31,3.38,2.81,2.63,3.38-.75.56-3.75-2.44-6.38-4.31-3.93-2.94-8.39-5.11-13.13-6.38-6.38-1.88-13.88-2.06-18.76.56-5.06,2.81-5.44,6.19-4.69,7.5.38.94,1.31,1.13,2.25,1.13h.19ZM479.59,365.41c-1.5-.38-4.13-.94-7.5-4.13-4.48-4.29-8.68-8.86-12.57-13.69-.94-1.88-.56-3.38,1.88-4.31,2.25-.94,3.75-3.75,3.75-3.75,0,0-5.06-2.06-8.44-4.5s-11.25-9.75-12.38-11.44c-1.13-1.88-.56-2.06.94-2.63,1.88-.56,2.06-1.88,2.06-1.88,0,0-3.75-2.06-7.13-4.88-2.78-2.4-5.48-4.9-8.07-7.5-5.06,2.25-13.13,1.31-17.44.56-7.69-1.31-13.32-4.5-13.32-4.5l-1.31,3.56c-.94,2.44-4.5,3.75-8.07,1.31-3.75-2.25-2.81-7.5-2.81-7.5,0,0-2.81-1.69-8.82-3.75-5.81-2.25-10.69-2.63-15.38-.38-4.88,2.25-7.13,8.82-7.13,13.69s2.63,3,3,2.25c.56-.75,1.88-4.31,7.69-5.25,6.19-.94,11.63,1.88,18.38,7.5,6.94,5.63,8.44,6.19,11.82,9.75,3.56,3.56.75,5.63-5.06,7.5-6,1.88-13.51-1.88-13.88-1.88-1.13.56,2.63,5.81,7.69,7.88,5.06,1.88,11.63.56,16.69-1.31,3.38-1.5,4.13,0,5.06.94,5.63,6,6.94,11.25,7.88,18.19,2.74-.97,4.74-3.33,5.25-6.19.19-1.13.56-3.56,2.44-1.88,1.88,1.88,3.56,11.82,3.56,16.32s-1.5,10.69-1.5,10.69l1.5-.19c.75,0,2.44-1.13,4.69-2.25,2.06-1.31,2.25,0,2.25,2.63,0,2.44.75,7.13,4.13,15.57,3.19,8.25,8.07,11.07,8.07,11.07,0,0,.94-1.69,1.88-5.06.94-3.19,1.88-9.75,1.88-15.38s-1.69-17.63-1.69-17.63c0,0,6.94,8.25,14.07,10.32s14.26.94,17.26-2.63c3-3.38.19-4.88-1.31-5.25"
       id="path40" />
    <path
       class="cls-5"
       d="M432.7,387.16s-2.25,4.69-3.38,6.38c-1.13,1.88-1.69,1.88-1.69,1.88,0,0,2.25,1.88,5.25,3l6,1.5s-3.56-4.88-4.69-8.25l-1.5-4.5ZM475.65,384.35l-1.88-4.31c-5.65.44-11.31-.73-16.32-3.38,0,0,3.38,6.75,6.57,9,3.38,2.44,3.75,2.44,3.75,2.44,0,0-3.19.56-7.5-3.75-4.5-4.31-6.57-9.38-6.57-9.38,0,0,1.13,11.63-.75,18.76l-2.06,7.88s9.38,1.88,19.7-1.13,11.25-3.75,11.25-3.75c0,0,1.13-.38-.56-2.63-2.2-3.05-4.08-6.32-5.63-9.75"
       id="path41" />
    <path
       class="cls-1"
       d="M456.71,358.84l-3.56-4.5s-1.13,1.13,0,2.63,5.44,5.63,8.44,7.5c1.94,1.05,4.03,1.81,6.19,2.25v-.56s-7.88-3.75-11.07-7.32M443.95,383.04l-.75-16.88c0-1.88-1.31-1.5-1.31-1.5l-1.5.75,3,21.2c.38,2.25,1.5,2.06,2.06,1.88-1.13-.38-1.31-4.88-1.5-5.63v.19ZM424.44,320.01c-1.13-1.13-3.75-1.88-1.31.94,2.63,2.81,6,6.38,6.94,9.38s1.5,6.57,0,5.63c-1.88-.56-3-.56-4.69-2.06-1.88-1.5-5.25-3.94-6.57-4.31-1.31-.56-3.75,0-1.88,2.06,2.37,2.59,5.01,4.91,7.88,6.94l7.88,5.44,3.94,2.63s-1.88-12-5.06-17.07c-2.02-3.38-4.41-6.53-7.13-9.38v-.19ZM360.48,518.65c-2.44,1.88-5.63,2.63-5.63,2.63,0,0-1.5,0-1.5.38s1.88,0,3.56-.19c1.88-.38,4.31-2.25,5.25-2.81.94-.75,2.25-1.5,1.88-2.81-.56-1.13-1.31.94-3.75,2.81h.19ZM381.11,529.72l-4.5,3.75-2.63,1.13c-1.31.56-1.69,1.31-1.69,1.31,0,0,.38.38,1.88,0s5.44-3.38,6.75-4.69c1.31-1.13,1.88-1.5,1.31-1.88-.38-.56-.75-.19-1.13.38M297.27,380.79c.75.94,1.69,2.06,1.88,1.88.56-.56,0-.94-.94-2.06l-1.5-1.88-2.25-3c-.75-.75-2.06-1.31-.56.75l3.38,4.31ZM290.89,394.67l2.81,2.63c.94,1.13,1.69,2.25,2.25,1.88.56-.75-1.5-1.88-2.44-3.19-.81-1.06-1.76-2-2.81-2.81-.84-.57-1.71-1.07-2.63-1.5l2.81,3ZM293.33,417.18c1.5,1.88,3.75,2.25,4.13,1.5.38-.56,0-1.13-1.5-1.88-2.66-1.43-5.18-3.13-7.5-5.06-.56-.75-1.5-1.31-1.88-1.13,0,.19,2.25,3,3,3.38.75.38,2.06,1.69,3.75,3.19M297.83,435.37c0-.75,0-1.13-1.13-1.13l-3.19-.38s-2.63-.94-2.81-.56c0,.56,2.25,1.5,3.19,1.88.99,0,1.96.26,2.81.75.56.38,1.13,0,1.13-.56M299.71,454.88c-2.63,0-5.06-.56-5.25-.19s1.31,1.13,2.63,1.5c1.5.56,4.13.75,6,.75s2.06-.19,1.88-1.13c0-.94-2.25-.94-5.06-.94h-.19ZM321.84,476.45c-.38-.56-1.31,0-3,0-1.5.56-4.13.94-5.63.94-1.56-.08-3.13-.14-4.69-.19l-1.88.38c0,.56,2.44.38,6,.75,3.38.38,5.63-.38,7.5-.56,1.5-.19,2.25-.94,1.88-1.31h-.19ZM331.03,491.64c-1.88.75-3,.75-4.31.75l-4.5.56s-1.5.38-1.31.94c.38.56.75,0,2.06-.19h4.69c2.25,0,3.75-.75,5.06-1.13,1.5-.19,3-.94,2.25-1.88-.75-.94-2.25.19-3.94.94M348.85,503.27l-4.88,3.56-2.25,1.31c-1.5.75-1.31,1.13-1.13,1.5s1.13-.56,1.88-.94c.94-.38,3.75-2.25,5.06-3.38,1.5-1.13,3.19-1.88,3-2.81-.38-.94-.75-.38-1.88.75h.19ZM319.22,353.59l3.38,4.69c3,3.75,1.5,0,.75-.94s-5.25-7.32-6.94-9c-1.5-1.88-1.69-.94-.94.19l3.75,5.06ZM312.84,373.28c.38-.38-.56-.94-2.44-3-1.76-2.24-3.51-4.49-5.25-6.75,0,0-.94-2.06-1.31-1.88-.19.19,1.31,3.56,2.63,4.88,1.5,1.5,3.38,4.31,4.31,5.44.94,1.13,1.5,1.88,1.88,1.31h.19ZM321.28,410.24c0-1.13-3.56-.94-5.06-1.31l-4.31-.94s-3.38-.56-3.38,0c0,.38.56.75,2.44,1.13l6.57,1.5c2.06.19,3.75.75,3.75-.38M312.84,390.17l4.88,3.56c1.31.56,2.25,1.5,3,.75.56-.75-.56-1.31-2.63-2.06-1.88-.94-2.81-1.88-2.81-1.88l-2.25-.94c-.94-.56-2.63-1.13-.19.56M332.53,377.04l-2.63-1.88s-1.88-1.5-1.88-.94c-.56.56,1.88,2.06,2.81,3.19,1.13.94,3.19,3.75,4.13,3.19s-.94-2.25-2.44-3.56M319.59,428.62l-3.19.75c-1.13.38-1.31.94.94.94s3.19-.56,5.63-.94c2.06-.56,2.81-.75,2.44-1.5-.38-.75-1.5-.38-2.44-.19l-3.38.94ZM323.15,447.38c-.19.19,1.5,0,2.63-.56l5.06-2.06c1.5-.38,1.5-.75,1.5-1.5,0-.94-1.5-.19-3.38.38s-4.13,2.44-4.13,2.44l-1.69,1.31ZM347.16,458.63c1.5-1.13,1.88-1.88,1.31-2.44-.56-.38-1.13-.38-2.44.75l-3.75,2.81-2.44,1.13c-1.13.56-2.25,1.31-1.88,1.88.38.38,2.44,0,3.56-1.13.94-.75,3.75-2.06,5.63-3.19v.19ZM358.42,473.64c.56-.75,2.63-1.5,3.56-2.06.94-.75,1.5-2.63.75-3-.75-.19-1.13.94-2.81,2.06l-6.94,4.69-1.31.56c-1.5.56-.94,1.13.38.94s1.88-.19,3.56-1.31c1.5-1.31,2.25-1.5,2.81-1.88M375.3,487.7c1.31-.56,3.38-2.44,4.31-3.38s2.25-2.06,1.5-2.63-1.5,0-2.63,1.31c-1.31.94-4.31,4.13-4.31,4.13l-2.06,1.5c-1.69,1.31,0,1.13.56.56.75-.56,1.13-.94,2.44-1.5h.19Z"
       id="path42" />
    <path
       class="cls-5"
       d="M442.26,267.87l-5.06,4.13,6.19,2.63,6.75-4.69-7.88-2.06Z"
       id="path43" />
    <ellipse
       class="cls-1"
       cx="464.96"
       cy="269.18"
       rx="6.38"
       ry="6.19"
       id="ellipse43" />
    <ellipse
       class="cls-5"
       cx="464.96"
       cy="267.68"
       rx="3.94"
       ry="3.75"
       id="ellipse44" />
    <path
       class="cls-5"
       d="M451.64,247.8c1.69.56,3.75.38,3.75.38,0,0,.75-3-.94-4.31-1.5-1.5-3-2.44-3.75-3.38l-1.31-1.13v3.94c-.19,1.5.56,3.75,2.25,4.5"
       id="path44" />
    <circle
       class="cls-5"
       cx="455.02"
       cy="250.8"
       r="1.13"
       id="circle44" />
    <path
       class="cls-5"
       d="M446.2,249.67l-1.5,1.88s1.31,0,2.25.75c1.13.75,2.63,1.5,3.75,1.31,1.03-.08,1.8-.99,1.72-2.02,0-.08-.02-.16-.03-.23-.38-.94-.94-1.88-3-2.44-2.06-.75-2.63,0-3.19.75"
       id="path45" />
    <path
       class="cls-5"
       d="M450.7,257.18c-3.94.38-9.38-4.13-9.38-4.13-.56,3.75-2.63,5.63-6.19,6.19h.38s3.19,1.88,6.94,2.25c1.69.38,3.19,0,5.06-.38,2.09-.28,4.12-.92,6-1.88,2.44-1.5,1.69-5.44,1.69-5.44,0,0-.38,3-4.5,3.38M434.95,253.24c-1.69-.75-4.13-1.88-5.25-1.88-.94,0-2.44-.38-2.25,1.5.38,1.88,2.25,2.81,4.13,3,1.88,0,3-.75,4.13-1.31,1.13-.56.94-.75-.75-1.31M422.38,246.3c-1.88-1.31-3.56-1.69-3.56-1.69,0,0-1.13,3.19-.38,5.06s1.88,2.44,3.75,2.44c1.69,0,4.31-.94,3.56-2.25-.79-1.52-1.95-2.81-3.38-3.75v.19Z"
       id="path46" />
    <ellipse
       class="cls-5"
       cx="423.88"
       cy="255.11"
       rx="1.5"
       ry=".94"
       id="ellipse46" />
    <path
       class="cls-5"
       d="M427.82,239.55c-1.13-5.44-.94-11.25,4.13-18.57,5.06-7.5,13.88-10.32,13.88-10.32l3-3.56c2.81-3,8.44-6.75,8.44-6.75l-10.32,2.81v.19c.1,2.48-1.83,4.58-4.31,4.69-.06,0-.13,0-.19,0-.93.03-1.85-.23-2.63-.75-3.75,1.46-7.28,3.42-10.5,5.81.38.75.75,1.5.75,2.44.11,2.48-1.82,4.58-4.31,4.69-.13,0-.26,0-.38,0-.75,0-1.31-.19-1.88-.56-.26.31-.51.62-.75.94-1.28,2.4-2.35,4.91-3.19,7.5,1.21.94,1.91,2.4,1.88,3.94,0,2.63-1.69,4.69-3.75,4.69-.2.99-.2,2.01,0,3,0,1.5.56,2.44,3.19,3.19s6.19,5.25,6.19,5.25c.19,0,2.06-3.38.75-8.63"
       id="path47" />
    <path
       class="cls-5"
       d="M443.95,205.41c.94-.75,1.13-1.88.38-2.63-.75-.75-2.25-.56-3.19.19s-1.13,1.88-.38,2.63c.75.75,2.25.56,3.19-.19M427.07,216.85c.94-.94,1.13-2.44.38-3.38-.94-.75-2.44-.75-3.56.38-1.13.94-1.31,2.44-.38,3.19.75.94,2.44.75,3.56,0v-.19Z"
       id="path48" />
    <circle
       class="cls-5"
       cx="416.94"
       cy="231.29"
       r="2.63"
       id="circle48" />
    <path
       class="cls-5"
       d="M473.4,194.9c-1.5.38-3.94,1.13-7.69,3.19,2.63,0,4.69,1.69,4.69,3.75s-2.44,4.5-4.88,4.5c-2.41,0-4.4-1.9-4.5-4.31,0-.56,0-1.13.38-1.5l-3.56,2.25c-8.25,5.63-10.32,8.44-14.44,15.94-4.13,7.69-5.63,16.13-3.75,21.01,1.88,5.06,8.25,6,8.44,6,0,0-.75-.75-.94-1.69l.56-3.19v-4.13s1.5-.19,2.44.75l2.81,3.38,3.19,3s1.31-1.88,1.31-4.13-1.5-4.69-1.88-8.63c-.19-3.75,1.88-10.88,5.63-16.13,3.66-4.36,8.12-7.99,13.13-10.69,1.55-.61,2.59-2.09,2.63-3.75l.56-3.75c0-2.44-1.88-2.25-4.13-1.88"
       id="path49" />
    <path
       class="cls-5"
       d="M465.15,203.91c1.5,0,2.81-1.31,2.81-2.63,0-1.13-1.13-2.06-2.63-2.06s-2.63.94-2.63,2.06c0,1.31.94,2.63,2.44,2.63M477.53,252.68c1.88.75,4.13.38,5.25-.38s1.5-2.44,0-3.56c-1.19-.9-2.79-1.04-4.13-.38l-3.75,2.63s.56.94,2.63,1.69"
       id="path50" />
    <path
       class="cls-5"
       d="M483.9,254.93c-.75,1.13-1.31,1.88-3.56,1.88s-4.69,0-6-1.5c-.98-1.07-1.8-2.27-2.44-3.56h-2.63s-.75,3.56-1.88,4.5-5.06,1.13-6.75,0c-1.69-1.5-3.19-3-3.56-2.81-.19.19,0,1.5,1.88,3s2.81,2.44,5.63,2.44h15.94s3.38.19,4.31-1.88c.94-1.88.94-3,.38-3.56-.38-.38-.56.38-1.31,1.5"
       id="path51" />
    <path
       class="cls-5"
       d="M459.52,252.3c2.44,1.31,3.75.38,4.69-.56l.94-1.69s-2.25-.75-3.38-1.5c-.94-.56-1.88-1.13-2.81-1.13l-1.31.38s-.38,3,1.88,4.5"
       id="path52" />
    <circle
       class="cls-1"
       cx="448.08"
       cy="228.67"
       r="5.25"
       id="circle52" />
    <path
       class="cls-1"
       d="M457.27,210.28c-2.06-1.31-5.25-.75-6.94,1.31-1.88,2.25-1.5,5.06.75,6.57,2.06,1.31,5.25.75,6.94-1.31,1.88-2.25,1.31-5.06-.75-6.57"
       id="path53" />
    <circle
       class="cls-5"
       cx="447.89"
       cy="227.92"
       r="3"
       id="circle53" />
    <path
       class="cls-5"
       d="M455.02,210.85c-1.31-.38-3,.38-3.75,1.5-.75,1.31,0,2.63,1.88,3,3.38.56,4.88-3.75,1.88-4.5M373.61,623.13s-8.07,3.75-10.69,4.5l-3.38.75s-5.63,5.06-9.57,7.5c-4.34,2.67-9.2,4.39-14.26,5.06-6.57.56-24.2.38-32.07,0-7.88,0-12.75,1.88-16.32,5.63-3.38,3.75-4.13,9.38,0,13.51,4.5,4.31,9.38,2.06,10.88-.38,1.69-2.63.75-6,0-7.5-.56-1.5,1.5-1.88,3.75-2.06,7.39-.11,14.71,1.49,21.38,4.69,2.63,1.31,1.13,1.5-.75,1.13-2.38-.54-4.7-1.29-6.94-2.25-2.58-1.02-5.3-1.66-8.07-1.88-1.88,0-1.31,1.13-.75,1.88l1.88,3.19-.75,3.75.94,1.88,1.69-2.81c.38-1.13,0-3,.38-3.75.38-1.13,1.88-1.13,3.38.38,1.83,1.97,3.01,4.46,3.38,7.13.75,3.75-.56,6.57-.56,6.57,0,0,1.69,1.31,1.88,2.25.38.94-.38,4.5-.38,4.5,0,0,1.13.75,2.25-1.31,1-2.31,1.82-4.69,2.44-7.13.38-1.31,1.13-3.75,2.81-1.88,1.32,1.47,2.34,3.19,3,5.06l.38,1.88s3.56-3.38,4.69-5.44c1.94-2.99,4.35-5.65,7.13-7.88,3.38-2.81,9.38-8.44,12.19-10.32l12.75-7.5c2.25-1.31,2.63-1.31,3-5.25.56-3.94,2.44-7.5,3.38-10.13l.94-3.75ZM242.12,475.51c0-.56-1.5-3-1.88-4.13-.19-1.31-1.5-.56-1.5-.56,0,0-2.63,1.5-4.5,2.06-1.88.56-2.25-.19-2.44-1.13l-.94-6.38c-.38-2.25-.75-2.06-1.69-1.88l-4.88,1.88c-1.69.94-1.13,1.69-.56,2.63l3.38,6.38c.94,1.31,0,1.88-.94,2.44l-4.5,1.31c-1.88.75-1.88,1.13-1.69,1.88l2.25,4.69c.75,1.13,1.5.38,1.5.38,0,0,2.06-1.88,3.75-2.81,1.88-.94,2.06-.56,2.63.75l2.81,9.75c.38,1.31,1.13,1.13,2.06.75l3.38-.94c.94-.38,1.31-2.44,1.31-2.44l-4.88-9c-1.13-1.88,0-2.25.75-2.25l5.06-.94c1.88-.56,1.5-1.88,1.5-2.44M286.77,668.71c-.38-1.69,0-3.38-1.31-4.69-1.67-1.7-2.96-3.75-3.75-6-.38-2.06.75-3.19.56-4.31-.19-1.31-1.88-1.31-3.56,0-1.5,1.31-3.75,2.63-3.75,6.38s1.5,8.44,6.75,9.94c5.44,1.69,5.25.56,5.06-1.31M292.02,666.84s-.94-.56-1.5.38-.38,1.5.94,3.75,2.25,2.81,3.94,3.75c1.69.94.56-.94.38-1.69-.19-.56,0-1.31-.56-1.88-.38-.38-.56-1.13-.56-2.63s-2.63-1.5-2.63-1.5v-.19Z"
       id="path54" />
    <path
       class="cls-5"
       d="M298.58,685.03c1.13-1.5,1.88-1.88,4.31-3s6.94-1.69,8.44-1.88c1.5,0,4.88-3,4.31-6s-2.63-4.13-4.69-4.5c-1.88-.56-3.56-.56-4.13.38-.9,1.33-2.22,2.33-3.75,2.81-2.25.75-2.44,1.5-3.75,1.88s-.38,1.13-1.5,2.06-2.63,0-4.31-.38c-1.69-.56-1.88-.94-3.75-.94l-6.75-.38h-1.31c-1.13,0-1.31,0-1.88,1.31-.38,1.13.19,4.13,1.5,5.63,1.13,1.5,5.06,2.25,7.5,3,2.03.65,4.09,1.15,6.19,1.5,2.44.38,2.63,0,3.75-1.5h-.19ZM322.97,687.47c2.06-1.31.94-3.75.38-5.25-.38-1.5-3.38-1.88-4.88-1.88s-2.25,0-3.19.75c-.75.56-1.88,1.69-3.94,2.44-2.25.56-3.94,1.5-6.94,2.63-3,1.13-3.94,3.19-5.25,4.13-1.31.75-3.75,0-3.75,0,0,0-1.88-.56-2.44,0-.56.38,0,1.5,1.13,2.81s3.56,1.13,6.19,1.88c2.63.94,3,.19,4.13-.38.94-.75,1.88-2.25,3.56-3.38,1.88-1.13,5.63-1.31,7.5-1.5,2.06-.19,5.63-.75,7.5-2.25M322.97,678.28c.94.94,1.88,1.88,2.81.56.75-1.31,1.88-3.94,1.13-5.63l-1.88-3-2.25,5.81c-.75,1.31-.56,1.5.19,2.25M314.9,664.4c0-2.63-1.88-5.63-1.88-5.63,0,0-.56,2.25-1.69,4.31-.61,1.16-1.36,2.23-2.25,3.19l3.75.75c.94,0,2.06,0,2.06-2.63M299.9,670.02c2.81-.56,4.31-1.88,5.63-2.81.94-.94,1.88-3.75.94-5.06-.75-1.5-2.81-3-3.75-3h-1.31s-.94,2.63-1.88,3.94c-1.13,1.31-2.44,2.25-2.44,3.94,0,1.88,0,3.56,2.81,3M305.52,657.27c0-1.31-.38-2.81-1.31-3.75l-1.5-1.5-.38,3.19-.38,1.31,1.5,1.13c.75.19,1.88.94,1.88-.38h.19ZM271.01,585.8l1.88-11.82c-1.31-11.82-7.5-23.07-12.38-30.95-4.91-8.34-8.99-17.13-12.19-26.26-2.16-6.49-3.42-13.24-3.75-20.07,0-4.69,1.88-7.13,1.88-7.13,0,0,.94-1.13,0-1.88-.56-.94-1.88,0-3.19,1.13-1.35,1.53-2.37,3.32-3,5.25l-.56,2.25s-2.63-.56-6.57-.38c-4.13.38-6,.75-6.19,1.5,0,.94.56,1.69,3.56,2.81s4.69,1.88,6.19,3.75c1.5,1.5,5.25,10.32,6.38,14.44,1.99,8.03,3.5,16.17,4.5,24.38,1.26,9.93,4.05,19.61,8.25,28.7,1.31,3,8.82,17.07,15.19,14.26M278.51,606.63c-2.81,1.5-2.81,12.75-1.5,18.76,1.13,5.63,6.94,12.94,8.63,15.01,1.88,1.88,2.06,1.88,3,1.31l1.31-.56s2.44-.75,4.31-2.25c1.88-1.31,1.13-4.88.75-8.07-.19-3.19-2.63-9.38-7.13-16.88s-6.75-8.82-9.38-7.32M281.33,597.62c0-3.75-3.19-6.38-6.75-6.38-1.88,0-3.19.38-4.13,1.13-3.75,3.38-1.5,11.82,3.75,11.82,1.88,0,4.31-.38,5.63-1.88,1.31-.94,1.69-3,1.69-4.69h-.19ZM334.41,703.04c-4.29-1.65-8.01-4.52-10.69-8.25q-.56-1.5-2.63-.94c-1.88.75-5.06.75-7.13.75-2.25,0,.19,2.63,1.88,4.88,1.31,2.44.94,10.13.94,10.13l-.38,1.88c-.38,1.13,0,1.88.56,2.25.56.19.94-.38,2.44-2.06,1.5-1.88,4.31-6.57,4.31-6.57l3,.56c2.44.56,6.19.38,8.25-.19,1.88-.75.94-2.06-.38-2.44h-.19Z"
       id="path55" />
    <path
       class="cls-5"
       d="M325.03,709.04c-.94,0-1.5-.19-1.88.56-.56.56-.94,1.88-1.31,2.63-.19.75,0,1.31.56,1.88l1.31,1.13s.94.94,1.88,1.31c.75.38.94-.94.94-1.88l.56-3.75c0-1.13-.94-1.69-1.88-1.88h-.19Z"
       id="path56" />
    <path
       class="cls-3"
       d="M716.68,633.45c-2.63-.56-3.75-1.69-3.75-1.69,0,0-.94,0-1.88,1.5-.75,1.5-3.94,3.75-3.94,3.75,0,0-4.5,1.13-5.25,4.13-.56,3.19,1.69,4.31,3.75,3.75,2.25-.19,7.5-1.31,9.75-4.13,2.25-2.63,2.63-4.31,3.19-5.25.38-1.13.56-1.5-1.88-2.06M723.81,608.69c-1.88-6.94-6.19-15.57-14.82-19.88l-4.13,15.01c-.94,3.75-.94,3.56,1.88,4.13l13.13,3.19c1.88.56,4.88,1.88,3.75-2.63l.19.19ZM682.54,602.12c2.25.38,1.88-.38,2.63-3.19l4.31-16.32s-9-.38-16.88,3.38c-8.07,3.75-11.44,10.88-11.44,10.88,0,0,1.88.94,7.5,2.06l13.88,3.19ZM661.54,620.88l-4.31-.94s1.88,7.88,5.25,12.19,7.13,6.38,14.07,6.57c6.94,0,12.19-3.75,13.13-6.75.52-1.84,1.27-3.61,2.25-5.25,0,0-12.57-1.69-17.82-2.81-5.06-1.31-9.38-2.44-12.57-3"
       id="path57" />
    <path
       class="cls-5"
       d="M659.29,616l30.95,6.19c2.25.38,3.94.94,4.69.38.56-.75.94-1.13,3.19-1.88,2.25-.94,2.06-3.19,2.06-3.19l.94-4.31c0-2.25,1.31-2.81,3.75,0,2.63,2.44,3.19,6.38,3.75,9.94.38,3.75,6.19,4.69,8.44,5.06,2.44.38,3.38-.38,4.69-2.44,1.32-2.97,2.14-6.14,2.44-9.38.38-2.63,0-2.44-2.81-3.19l-18.57-4.31c-2.25-.56-1.88-2.06-1.5-3.75l5.63-18.57c-4.71-2.51-9.88-4.05-15.19-4.5,0,0-3.75,17.26-4.69,19.88-.75,2.63-2.44,2.63-5.06,2.25-7.52-1.68-15.02-3.43-22.51-5.25l-1.88,3.75c-1.29,3.35-1.99,6.91-2.06,10.5,0,2.25.75,2.25,3.75,2.81"
       id="path58" />
    <path
       class="cls-5"
       d="M727.37,631.57c-2.63-1.69-4.5-2.25-6,1.13-1.31,3.19-1.5,7.88-4.88,11.25-3.38,3.19-8.25,6.75-13.13,6.38-4.69-.38-7.5-1.5-6.38-6.94,1.13-5.63,8.44-7.32,10.32-10.13,1.79-2.73,1.22-6.38-1.31-8.44-2.63-2.25-6.19-2.63-7.32-1.88-2.49,1.85-4.39,4.39-5.44,7.32-1.5,4.13-2.44,7.5-5.63,10.13-5.23,3.5-11.62,4.85-17.82,3.75-6.38-1.5-8.82-3.38-11.25-9.75-2.25-6.38-5.06-16.88-6.38-18.01-1.31-1.13-3-1.88-5.63,0-2.81,1.88-3,4.88-3.38,7.13-.38,2.25,0,4.88,2.81,8.25,2.63,3.38,5.63,6.57,6.57,10.13,1.13,3.38,4.13,8.63-.19,8.82-4.31.19-6.38.38-9.57-2.81-3.38-3.19-16.32-12-19.88-15.01l-5.06-3.75c-6,0-12-2.44-18.01-6.57,0,0,3.56,8.82,4.13,12.19.75,3.19.56,5.06.56,5.06l18.19,9.38c7.01,3.51,13.89,7.26,20.63,11.25,5.06,3.38,9.38,8.07,18.19,6.19,9-1.88,27.2-7.32,33.01-9,5.81-1.88,21.95-5.63,27.95-9.94,6-4.13,6.57-3.75,7.5-7.88,1.13-4.13,0-6.38-2.63-8.07v-.19ZM692.86,569.67l4.5-.56c3-.38,1.88,2.63,1.31,3.75-.38,1.13-1.31,3.38-2.63,5.44-1.31,2.06.38,2.44,1.31,2.81l4.5,1.13c2.44.56,1.88-1.13,2.06-2.06,0-.94.19-5.63.56-7.5,0-1.88,1.88-1.31,2.44-.94l3.38,1.88c1.13.56,1.88,0,1.88-.75l1.5-4.13c.56-1.88-.56-1.5-1.88-1.5h-4.88c-1.88,0-.75-1.88-.75-1.88l2.63-4.31c1.13-1.88.75-2.06-.38-2.44l-5.63-1.31c-.94-.38-1.5,0-1.5.56v5.44c0,1.31-.19,2.06-1.88,2.06-1.88,0-2.81-.94-4.31-2.44-1.31-1.5-1.88-.94-2.06-.38l-1.5,6.19c-.38,1.31.38,1.13,1.31.94M702.61,613.38s-.19,3.38-.56,4.5c-.38,1.31-1.13,3,.19,3.56,1.5.56,2.81,1.13,3.75.75.75,0,.38-1.88,0-3.19-.5-1.65-1.33-3.18-2.44-4.5l-.94-1.13ZM723.62,627.07c.38,1.13,1.5,1.5,2.06,1.69.75.19,1.88.19,1.88-1.13s0-3-.94-4.5c-1.13-1.31-1.69-2.44-2.25-.38-.75,2.25-1.31,3.38-.75,4.31M650.28,613.19l2.81.75s0-3.19.56-5.63c.38-2.25,1.31-3.75.56-3.75-.94,0-1.31.75-1.88,1.69-.75.94-2.44,1.13-3,3.94-.56,2.63.38,2.81.94,3"
       id="path59" />
    <circle
       class="cls-1"
       cx="664.54"
       cy="607.38"
       r="4.69"
       id="circle59" />
    <circle
       class="cls-1"
       cx="677.67"
       cy="610.56"
       r="4.69"
       id="circle60" />
    <circle
       class="cls-1"
       cx="716.12"
       cy="618.82"
       r="4.69"
       id="circle61" />
    <circle
       class="cls-1"
       cx="690.99"
       cy="613.75"
       r="4.69"
       id="circle62" />
    <circle
       class="cls-1"
       cx="694.36"
       cy="602.31"
       r="4.69"
       id="circle63" />
    <circle
       class="cls-1"
       cx="697.74"
       cy="590.87"
       r="4.69"
       id="circle64" />
    <circle
       class="cls-5"
       cx="664.91"
       cy="607"
       r="2.25"
       id="circle65" />
    <circle
       class="cls-5"
       cx="678.04"
       cy="610.19"
       r="2.44"
       id="circle66" />
    <circle
       class="cls-5"
       cx="716.5"
       cy="618.25"
       r="2.44"
       id="circle67" />
    <circle
       class="cls-5"
       cx="691.36"
       cy="613.38"
       r="2.44"
       id="circle68" />
    <circle
       class="cls-5"
       cx="694.74"
       cy="601.75"
       r="2.44"
       id="circle69" />
    <circle
       class="cls-5"
       cx="698.11"
       cy="590.31"
       r="2.44"
       id="circle70" />
    <path
       class="cls-5"
       d="M545.8,703.23c-2.63-1.5-4.69-3.19-10.5-7.13-5.63-3.75-7.69-7.88-7.69-7.88h1.88c1.13,0,2.06-1.5,2.25-3.19,0-1.5,0-4.5-.56-8.25-.38-3.75.56-6.57.56-6.57,0,0,2.44,2.25,6.19,4.31,3.75,1.88,5.25.94,5.25.94l.94-3.75,3.75,7.5c2.44,3.75,8.44,8.25,12.94,11.63,4.31,3.19,9.19,6.75,12.75,7.88,3.75,1.31,1.5,3,1.5,3,0,0-3.75,3.75-12.94,5.25-9.38,1.88-13.88-1.88-16.32-3.75"
       id="path70" />
    <path
       class="cls-5"
       d="M512.98,699.66c3.38-.38,5.63-1.5,6.19-5.25.38-2.25-.19-11.25-.19-11.25l2.25,2.25c1.31,1.69,4.13,1.88,4.13,1.88,0,0,.38,1.31,1.88,3.38,1.45,2.64,3.5,4.89,6,6.57,3.24,1.95,6.37,4.08,9.38,6.38,2.62,2.32,5.44,4.39,8.44,6.19,3.63,1.93,6.24,5.36,7.13,9.38,1.13,4.69.19,6.19-3.56,6-3.75-.38-3.94,0-9.94-1.5-6-1.5-14.63-8.25-20.63-12.19-6.38-3.75-10.88-11.82-10.88-11.82h-.19Z"
       id="path71" />
    <path
       class="cls-5"
       d="M496.47,705.1s2.63-3.19,3.56-6.75l2.63-10.88,2.81,6.57c2.06,4.31,5.63,5.44,5.63,5.44,0,0,0,1.88,3,5.44,3.18,3.76,6.98,6.93,11.25,9.38,4.31,2.63,9.94,6.19,12.94,10.5s3.38,8.82,1.88,10.69-3.38-.38-6.38-1.88c-2.81-1.31-11.07-2.63-22.32-8.63-11.25-6-15.01-19.88-15.01-19.88"
       id="path72" />
    <path
       class="cls-5"
       d="M491.6,730.42c-3-4.69-3.56-15.94-3.56-15.94l2.63-1.88c1.5-1.5,4.5-5.81,4.5-5.81l3.75,7.5c2.06,3.56,3,4.88,7.32,8.63,4.13,3.94,9.94,7.69,12.38,11.82,2.44,4.31,1.13,12.57-.56,15.19-1.5,2.81-3.75,1.88-6.19-.38l-7.13-6.38c-4.31-3.56-9.94-8.07-13.13-12.75"
       id="path73" />
    <path
       class="cls-1"
       d="M528.73,635.7c-1.88-3.38-3.56-7.5-5.06-9.38-1.01-1.48-1.89-3.05-2.63-4.69,0,0,4.13,3.75,5.63,6.38,1.52,2.44,2.66,5.1,3.38,7.88.56,2.81.38,3.19-1.31,0v-.19ZM512.79,638.7c-.4-1.24-.77-2.49-1.13-3.75,0,0-.56-2.25-.19-2.44.38,0,1.88,1.5,3.19,5.06,1.13,3.75,2.81,9,2.44,9.38-.38,0-3.75-6-4.31-8.25M499.85,648.83l-.75-1.88s-1.13-3.94-1.13-4.88.38-1.88,1.31.38c1.13,2.06,1.31,4.13,1.5,5.06.19.94,1.5,4.13,1.13,4.5-.38.19-1.31-1.69-1.88-3.19h-.19ZM539.05,687.09l1.69-.94,2.44,2.81c1.5,1.5,3,2.25,4.13,3.75,1.45,1.89,3.31,3.43,5.44,4.5,2.63,1.31,3.56,1.88,3,2.06-.38.56-2.25-.56-2.25-.56,0,0-.75,0-3.75-1.88s-3.94-3-6-4.69l-4.69-5.06ZM525.36,703.41c-1.13-1.31-2.44-2.25-1.88-2.81.75-.75,1.69-.75,2.81.19l5.63,5.25c1.31,1.31,2.63,1.88,3.94,3.19,1.5,1.13,4.5,2.81,6,3.56,1.69.94.19.94.19.94l-2.44-.94-4.88-2.06-3.38-2.06c-2.14-1.58-4.15-3.34-6-5.25M509.6,714.29c-.94-2.06,0-1.5,1.88-.75,1.69.56,5.44,4.69,7.5,6.19,2.25,1.5,4.13,2.25,6,3.19s1.88,1.31,1.88,1.88c-.19.38-.94.38-1.88,0l-3.19-1.88-2.06-.38c-1.13,0-2.44-1.31-4.88-3.19-2.25-1.88-4.13-3.19-5.25-5.06M502.29,728.74c2.81,1.69,7.5,5.44,8.82,7.88,1.31,2.63,2.25,4.31,1.88,4.88-.56.38-1.88-.56-2.44-1.5-.56-1.13-1.88-2.63-1.88-2.63,0,0-4.88-4.69-6.57-5.63-2.23-1.6-4.04-3.73-5.25-6.19-.75-1.88-.19-2.81-.19-2.81,0,0,3,4.31,5.63,6"
       id="path74" />
    <path
       class="cls-8"
       d="M576.75,324.89c10.94-5.95,23.86-7.03,35.64-3,4.31,1.13,7.69,1.31,11.25.38,5.46-1.63,9.53-6.2,10.5-11.82,0,0,4.88,6.19,0,12.75-2.02,3.01-5.1,5.16-8.63,6-10.13,1.88-20.26-4.31-28.7-4.88-8.07-.38-14.44,4.69-14.44,4.69,0,0-1.88,1.69-4.69,0-2.81-1.5-3.56-2.81-.94-4.31v.19Z"
       id="path75" />
    <path
       class="cls-5"
       d="M606.01,620.13l2.44-.38c1.5-.19,4.5-1.13,5.25-1.69.94-.38,2.44-.38,3.19.56.94.94,8.25,5.44,8.25,5.44h-12c-4.31,0-7.13-4.13-7.13-4.13v.19Z"
       id="path76" />
    <path
       class="cls-5"
       d="M571.88,618.07v-1.31l1.69-3.38s1.88,1.13,3.75,3c2.25,2.44,4.88,6,6,7.5,1.88,2.44,4.88,4.88,2.44.75s-3.19-6-5.25-8.63c-1.88-2.81-3.38-3.94-3.19-4.13l6.94-1.13c5.06-.56,8.25-2.63,10.5-3.94l6.57-3.75s8.63,3.75,12,4.5c3.19.94,5.06,1.31,1.88,2.81-3,1.69-5.63,2.06-7.32,3-2.82,1.58-5.96,2.48-9.19,2.63-2.81,0-7.88,0-5.81,1.88,1.88,2.25,4.13,6.19,6.19,12,1.55,4.46,2.32,9.16,2.25,13.88l-.38,5.06s-3.75-3.94-13.13-9.94c-9.38-6-13.13-8.07-15.01-8.82-1.69-.75-2.63-.75-2.25-3l1.31-9Z"
       id="path77" />
    <path
       class="cls-5"
       d="M535.49,588.99l1.88-.75h.38c1.13.75,6.94,4.5,9.38,8.44,2.25,3.75,4.5,4.13,1.88,0-1.71-3.05-3.86-5.83-6.38-8.25-.67-.65-1.36-1.27-2.06-1.88,4.69-2.25,9.75-4.88,14.63-8.44.75,1.31,1.88,3.75,3.38,5.06,1.88,2.06,6.38,3.94,6.38,3.94,0,0-3.56-3.75-4.69-6.57-.94-1.88-1.31-3.75-1.69-4.88,3.57-2.71,6.84-5.79,9.75-9.19,1.52,5.53,4.35,10.62,8.25,14.82,7.5,8.44,22.51,12.57,22.51,12.57,0,0,5.25.56.94,1.88-4.31.94-7.32,2.81-15.57,1.5-8.25-1.5-8.82-1.88-9.94-2.25-1.13-.19-4.13,0,0,1.5s13.69,3,17.44,2.63c3.75-.19,8.82-1.13,3.38,1.88-5.25,2.63-7.5,3.75-10.69,3.75s-4.5,1.13-7.69,1.13-3.94-.56-6.19-1.13c-2.25-.38-3.75.38-3.75,1.31s3,3.38,2.81,9.38c.09,4.03-.29,8.06-1.13,12-.56,1.88-1.88,4.69-2.81,6.38-.75,1.88-1.13,3.38-1.88,0-1.13-3.75-3-8.82-3.75-12.38-.94-3.38-1.31-3.56-1.69-5.44-.38-1.69-2.25-3-1.31.19l2.63,10.32c.56,2.81,2.25,8.25-.56,3.94-2.63-4.13-12.75-15.57-14.44-17.44-1.69-1.88-3-3.94-4.13-5.63-1.31-1.69-4.69-3.75-6.38-6.38-2.35-2.94-4.99-5.64-7.88-8.07l9-3.94ZM674.67,330.71c-.38,6.19-7.13,18.01-11.07,24.38-3.75,6.19-4.88,8.63-4.31,9,.75.56,2.25-2.81,4.5-5.63s6.19-9.38,9.75-14.26c3.38-4.88,8.44-16.88,9.38-17.82.56-1.13.75-1.88,2.44-.38,1.88,1.31,5.25,14.26,1.13,23.07-3.94,9-9.94,15.38-12.57,18.38-2.63,3.19-5.81,7.88-5.44,8.44.56.38,1.5-.94,4.69-4.13,3.94-4.14,7.76-8.39,11.44-12.75,2.63-3.19,6.38-9.75,7.69-12.19.56-.94,1.13-.75,1.5-.19,1.31,1.13,3,3.75,2.25,10.69-1.13,9.75-6.19,15.38-10.69,20.45-4.69,4.88-9.19,9-8.44,9.75.56.56,5.25-3.56,8.44-6.57,3.38-3.19,11.25-10.69,12.94-12.94,1.88-2.06,4.31-1.13,4.13,7.5,0,8.25-9.38,16.88-13.32,21.57s-8.82,7.5-8.44,8.44c.56.94,4.31-1.5,6.94-3.19,2.44-1.88,12-7.88,13.88-9.38,1.88-1.13,2.81,1.31.38,9.38-2.44,8.07-9.38,14.44-13.51,17.44s-10.88,6.57-10.5,7.5c.56.94,3.19-.19,7.13-2.06,3.75-1.88,8.63-3.75,12-4.69s3.38,1.5,3.38,1.5c0,0,.56,6.94-4.31,12.38-4.14,4.65-9.78,7.7-15.94,8.63-5.44.94-6.19,1.13-6,1.88,0,.94.56.94,1.88.94,1.13,0,6.19.56,10.69.56s6.94,1.13,6.94,3.19c0,1.88,0,4.69-6.75,9.19-6.75,4.5-14.44,5.25-17.63,5.81-3.19.75-3.38.94-2.63,1.88.56.94,2.06.94,7.13,1.5,5.06.38,8.25,2.44,8.82,3.75.75,1.5-.38,5.44-4.5,8.25-4.13,2.81-9.38,3.75-17.44,3.19s-10.13-.56-10.32.75c-.38,1.31,2.44,1.69,6.38,2.44,3.94.56,7.13.56,9.38,2.44s.56,5.63-3.38,8.63c-3.75,2.81-13.51,2.81-17.44,2.44-4.13-.19-10.32-1.69-10.69-.56s3,2.63,7.13,4.13c4.13,1.5,5.25,2.44,6.19,4.13.75,1.88,0,3.38-4.88,5.25s-12.19,1.88-15.94,0c-3.75-1.5-5.63-2.25-6.38-1.5-.75.56,0,1.31.75,2.25s4.13,3.38,8.25,4.5c4.13,1.13,4.5,1.13,6,4.5,1.5,3.38-2.25,6-9.75,6.19-7.13.09-14.19-1.45-20.63-4.5-3.38-1.88-4.5-2.25-5.06-1.69-.56.75-.38,1.13,1.13,2.25,1.69,1.31,6.75,4.88,9.38,5.63,2.44.56,2.63,2.44,2.63,4.31,0,1.69.75,5.25-6,6.75-6.75,1.69-14.63.38-21.76-4.69-1.74-1.08-3.27-2.48-4.5-4.13.56-6.94.38-11.63-.56-15.94,1.5,0,4.13-.56,6.94-1.69,3.94-1.5,5.63-5.25,6.57-7.5.94-1.88,2.25-1.88,3.75-1.31,1.88.56,3.38,1.31,5.63,1.13,4.1-.43,7.87-2.45,10.5-5.63,3.56-4.13,2.81-8.07,3-10.13,0-1.88,3.38-.56,4.88-.56,1.69,0,6.38-.56,10.69-3.56,4.31-3,4.31-6.94,4.69-8.63.38-1.5,2.06-2.63,3.38-3.19,1.31-.56,3.56-1.13,6.38-3.38,3-2.44,4.13-7.13,4.31-8.82,0-1.5,1.88-1.88,7.88-4.88,6-3,5.44-9.38,5.25-12-.38-2.63-3.19-4.69-3.19-5.63s1.88-1.13,4.13-2.44c1.88-1.13,6.94-3.19,7.13-10.69,0-7.5-4.88-8.25-4.88-8.25l3-1.69c2.06-1.13,7.5-4.88,7.5-9.38s-1.88-6.38-3.38-7.5-5.63-2.06-5.63-2.06c0,0,2.63-1.88,3.75-5.25.94-3.38,1.31-7.69-1.13-10.88-2.63-3-6.75-3-9.19-3s-4.13,1.31-5.06.56c-.75-.75-.94-1.13,0-3s.94-6,0-7.5c-.56-1.5-.56-4.31-6.38-6.19-5.63-1.88-11.82,1.88-13.69,3s-1.13-1.5-1.13-3.38,3.94-6.57,8.44-13.13c9.37-14.41,16.17-30.34,20.07-47.08.75-3.38,2.06-1.88,2.06-1.88,0,0,1.31.56,4.5,8.44,2.62,6.68,3.77,13.84,3.38,21.01"
       id="path78" />
    <path
       class="cls-5"
       d="M573.56,467.82c4.66-.49,8.82-3.13,11.25-7.13,3.75-5.06,8.82-6.19,17.82-6,8.82,0,13.13-4.13,15.19-10.32,2.25-6.38-.19-13.32-9.38-17.82-9.19-4.5-13.32-9.57-13.69-17.26-.38-7.88,9.19-17.44,18.76-28.32,9.38-10.88,16.88-26.26,16.88-26.26,0,0,2.63,3.56,2.63,7.13,0,3.75-1.31,7.5,0,8.44,1.5,1.13,1.88-1.5,7.5-3.75,5.63-2.63,9.94-2.81,13.51,1.13s0,10.88-3.19,14.07c-3.19,3.38-5.63,5.63-4.88,6.94.94,1.31,5.63-1.88,7.13-3,1.5-.94,5.25-4.88,10.5-4.5,5.44.56,7.32,2.06,7.69,6.57.56,4.5-4.69,8.63-8.25,10.32-3.38,1.69-4.69,3.19-3.75,3.75.75.94,1.5,0,3.19-.38,1.5-.56,5.63-.94,8.63,0,2.63,1.13,7.13,4.88,3,9.38-4.13,4.88-12.75,6.57-14.44,6.94-1.88.38-2.63-.19-2.81,1.13,0,1.5,3.75,1.5,8.25,1.69,4.69,0,6,4.5,5.44,8.07-.75,3.38-8.44,7.13-12.75,7.88s-5.81,0-6.19,1.31c-.38,1.13.38,1.69,2.81,2.25s7.13,1.31,8.07,5.06c.75,3.75.94,5.63-2.63,8.82-3.75,3.38-9.38,2.81-11.25,2.44s-3.75-2.25-5.63-.56c-1.69,1.88,1.69,3.19,4.69,5.25,2.81,1.88,2.63,6-2.25,8.82-3.76,1.98-8.17,2.32-12.19.94-1.88-.56-4.88-3.75-6.19-1.88-1.31,2.06,4.31,2.81,6.75,5.63,2.44,3,1.5,7.88-3.38,10.88-4.69,2.81-12.75.75-14.07-.38-1.31-1.31-3-1.88-4.13-.75-.94,1.13.56,3.75,1.5,6.19,1.13,2.44,3,9.38-4.31,12.38-7.13,2.63-13.69-3.56-15.01-4.69-1.13-1.31-2.44-1.5-3.38-.94-1.13.56-.56,1.5.38,2.81,2.03,3.43.94,7.84-2.44,9.94-2.76,1.82-6.13,2.49-9.38,1.88-1.13-3.94-2.63-8.25-3.94-14.26h.94c.75,0,.94.94.94,1.31,0,.56-.19.75.38.75s.75.38,1.5,1.13c.94.56,1.88,1.31,2.25.94.56-.38-1.88-1.5-2.44-2.25-.56-.75-1.88-1.88-1.88-2.81s-.56-1.31-1.88-2.44c-.29-.28-.54-.59-.75-.94-.99-4.78-1.81-9.6-2.44-14.44-.49-3.67-.8-7.36-.94-11.07h2.25ZM721.18,359.97c-7.69,15.57-18.76,24.38-18.76,24.38l2.25-6.57c.56-2.63,0-5.63,0-5.63l7.88-11.25c5.06-7.88,7.69-19.32,7.69-19.32,0,0-4.69,11.44-8.25,17.44-3.75,6.19-7.88,11.25-7.88,11.25,0,0-1.5-5.63-2.63-5.63-.94-.38-1.88.38-2.63,1.69-.94,1.13-1.88.94-1.88.94l3.38-5.63,3-4.31c2.81-4.5,9-13.13,12.19-21.76s10.13-30.2,11.25-36.58c1.31-6.38,2.44-3,3.75,1.88,1.92,6.89,2.56,14.08,1.88,21.2-1.37,13.22-5.18,26.07-11.25,37.89M711.24,401.98l-7.13,5.06,1.13-3.56.56-5.63,5.63-5.06c2.44-2.06,5.44-4.69,11.25-12,5.81-7.13,1.13-2.81-3.75,2.44-4.34,4.48-8.91,8.74-13.69,12.75v-1.88c-.07-1.38-.59-2.7-1.5-3.75-.94-1.13-.38-1.13,4.69-5.06,15.19-13.51,27.17-30.23,35.08-48.96,0,0,3,17.82-7.88,37.51-10.88,19.7-21.57,26.07-24.38,28.14M654.03,514.53c-5.81-2.25-4.31-8.07-4.31-8.25l7.13,2.44c3.38,1.31,11.63,3.75,15.01,3.75,3.19,0,3.19-.38,3.19-.75,0-.56-2.44,0-7.13-.94s-13.13-5.25-14.44-6.19c-1.5-.94-1.31-1.13.75-1.31,2.25-.19,3.94-1.13,4.69-1.88.94-.56,3,.38,8.44,1.69,14.1,3.63,28.82,4.14,43.14,1.5,1.13-.38,2.63.38-1.5,7.32-4.13,6.94-18.76,10.69-28.7,10.5-10.13,0-20.26-5.63-26.26-7.69v-.19ZM680.86,500.27c-10.32,0-14.26-3-14.26-3,0,0,0-.56,1.5-2.63s1.13-5.63,1.13-5.63l6.75.94c4.31.75,9.38,1.31,15.01.38s3.19-1.69-1.31-1.13c-4.5.56-12.94-1.13-15.57-1.88-2.81-1.13-1.69-1.88.19-2.63,1.88-.56,6.94-3.75,6.94-3.75,0,0,12.57,1.5,24.38.19,11.63-1.31,19.13-4.31,21.57-4.69,2.25-.38,2.25.56,2.25.56,0,0,.56,1.13-3.38,7.5-4.66,6.15-11.27,10.52-18.76,12.38-8.57,2.28-17.4,3.41-26.26,3.38h-.19ZM683.67,475.89l.94-2.63c.75-2.25-1.13-3.75-1.13-3.75,0,0,2.44-.75,10.13-1.88,7.88-.75,8.25-1.5,13.13-2.44,4.69-1.13,7.88-2.44,7.69-3,0-.56-1.5.19-4.31,1.31-2.81.94-14.82,2.25-19.88,3-4.88.75-7.69,1.13-8.63.75-.94-.56-3.94-1.31-3.94-1.31l4.69-1.13c2.28-.43,4.46-1.32,6.38-2.63,1.5-.94,1.88-1.13,8.25-1.88s11.44-2.81,22.88-6.94c11.25-4.13,19.88-9,22.32-10.88,2.25-1.88,2.06-.56,1.5,1.88-.75,2.25-.56,5.25-6.38,12-5.63,6.75-8.44,9.57-23.07,15.01-14.63,5.44-30.57,4.5-30.57,4.5M726.44,440.62c-9.32,6.35-19.86,10.7-30.95,12.75-.75-.75.75-3.75,0-5.63-.75-2.25-2.06-2.25-5.25-2.44-3,0-1.13-.75-.38-.75s.94,0,6-1.5c5.06-1.31,10.32-1.88,17.44-4.69,6.94-2.63,9.19-4.69,9-5.06-.19-.56-3.38,1.69-9.75,4.13-6.57,2.44-14.26,3.38-18.38,4.31-4.13.94-.56-.94,1.5-2.06,1.88-1.13,4.69-5.44,4.69-5.44,0,0,4.5-.75,12-3,7.5-2.25,13.69-4.88,20.07-8.44,2.06-1.13,4.31-2.81,6.38-4.31l10.32-7.5c2.63-1.88,1.88-.38,1.5.75-.19,1.13-1.88,6.57-6,12.38-4.13,5.63-5.44,7.5-18.19,16.51M728.5,415.3c-12.57,9.94-23.45,13.13-25.32,13.88s-1.69-.19-1.31-1.31c.38-1.13.56-4.5.56-4.5l9.57-5.63c5.06-2.81,10.69-6.75,14.26-9.38,3.75-2.44,1.5-2.25.38-1.31-1.13.94-6.19,3.75-11.25,7.13l-13.13,7.69s0-1.69-1.13-2.63c-.94-1.13-3.75-.75-3.75-.75l2.25-2.63c.75-1.31,4.88-2.63,9.57-4.88,6.88-3.84,13.35-8.36,19.32-13.51,6.19-5.25,18.19-18.38,18.76-19.32.94-1.13,1.5-.94,1.5.38s.56,2.25-.75,8.25c-1.31,6-6.94,18.57-19.51,28.51M683.67,321.14l-4.13,7.13c-1.88,2.81-2.63,4.69-2.63,4.69,0,0-.38-.94,0-2.81,0-1.69.38-4.13,0-6.94l-.56-4.5c0-1.69.56-3,.94-3.75l3-14.44c.94-5.06,1.88-12.57,1.88-19.13s-1.13-3.19-1.13,0-.38,8.07-1.31,15.57-4.13,18.76-4.13,18.76c0,0-.19-1.69-1.31-4.13-.94-2.63-2.44-5.44-3.75-8.44s-.75-3.75-.75-3.75c0,0,4.5-21.2,5.63-31.14s3-36.39,3-36.39c6.57,6.57,11.25,23.63,12.19,39.95.75,12.19-1.31,23.45-1.88,28.14-1.13,9-2.63,16.13-5.06,21.2M698.11,354.53c-.19-4.88-1.31-8.44-4.5-9.38,0,0,2.81-4.88,5.06-11.82,1.87-4.96,3.13-10.12,3.75-15.38,1.88-11.25,3-23.07-.38-3.75-1.08,8.98-3.61,17.72-7.5,25.89l-4.88,8.07c.75-3.75.94-6,.75-9.94-.16-4.43-.79-8.83-1.88-13.13,0,0,6-11.82,9.75-26.07,4.22-14.7,6.36-29.91,6.38-45.21,0,0,6,4.5,8.07,27.76,1.22,18.3-1.21,36.66-7.13,54.02-3,8.44-7.5,18.76-7.5,18.76v.19ZM631.52,531.78l3.75-2.44c3-1.88,2.06-7.5,2.06-7.5,3.35,2.26,6.79,4.39,10.32,6.38l6.19,2.44c1.88.56,1.31,0-.19-.94-1.5-.94-1.88-1.5-5.81-3-3.75-1.5-11.63-8.25-11.63-8.25l5.06-.19c3.19-.19,7.13-1.88,7.13-1.88,0,0,3.19,3,15.94,8.44,12.94,5.63,23.82,6.94,23.82,6.94,0,0-1.5,6.57-7.5,8.82-5.25,2.06-12.19,3.56-25.89.19-8.14-1.87-15.98-4.9-23.26-9M614.64,544.91c-.94-5.44,2.06-9.19,2.06-9.19l2.63,2.06c1.88,1.88,4.69,5.06,10.13,7.69,5.25,2.81,7.32,2.63,2.06-.19s-12.75-10.69-12.75-10.69l1.88-.75c2.06-.75,5.63.56,20.07,9.19,6.84,4.71,14.67,7.79,22.88,9,0,0-6.57,7.69-24.01,7.13-17.44-.56-23.82-8.82-24.95-14.26M581.63,538.54s1.88,2.81,4.5,4.5c2.63,1.88,9.38,2.81,9.38,2.81l1.88,2.44c1.31,1.88,4.31,6,7.32,8.07,3,2.25,7.88,3.75,8.25,3.19.19-.56-2.81-1.88-5.81-3.75-3-1.69-5.63-5.06-7.69-7.5-1.88-2.25.75-1.88.75-1.88h7.13c3.38-.38,2.63,0,3.75,1.5.75,1.69,2.25,3.19,4.69,6l8.82,10.13c1.88,2.44.56,3,.56,3,0,0-.94,1.5-8.82,2.44-4.69.38-9.94,0-15.38-3.38-3.93-2.47-7.47-5.5-10.5-9-9.38-10.13-8.82-18.57-8.82-18.57M577.5,559.73l3,3.56s-1.31-4.13-2.63-6.19c-.53-.9-1.09-1.77-1.69-2.63,1.36-3.02,2.43-6.16,3.19-9.38.75,2.81,3.38,10.88,6.75,16.13,4.13,6.57,7.5,8.82,5.25,10.5-2.25,1.88-6.75,2.25-11.82-.38-5.06-2.44-6.38-6.57-7.13-9.94.88-1.4,1.7-2.84,2.44-4.31.56.38,1.5,1.13,2.63,2.63"
       id="path79" />
    <ellipse
       class="cls-5"
       cx="578.63"
       cy="302.19"
       rx="3.56"
       ry="3.38"
       id="ellipse79" />
    <path
       class="cls-5"
       d="M586.13,296c-3.19,0-5.06-1.69-8.63-1.31-5.98,1.25-11.69,3.54-16.88,6.75-6.17,2.85-13.13,3.44-19.7,1.69-1.88-.56-3.75-1.88-5.63-2.81-8.63-4.69-6.57-14.26-6.57-14.26,6.11,4.54,13.59,6.86,21.2,6.57l-1.88,1.5c-1.13,1.31-3.38,2.81-2.63,3.38s3.75-2.44,6.38-4.31c3.93-2.94,8.39-5.11,13.13-6.38,6.57-1.88,13.88-2.06,18.76.56,5.06,2.81,5.63,6.19,4.88,7.5-.38.94-1.31,1.13-2.44,1.13M493.66,365.41c1.5-.38,4.13-.94,7.5-4.13,4.54-4.29,8.8-8.86,12.75-13.69.94-1.88.56-3.38-1.88-4.31-2.25-.94-3.94-3.75-3.94-3.75,0,0,5.06-2.06,8.44-4.5,3.56-2.63,11.44-9.75,12.57-11.44,1.13-1.88.56-2.06-1.13-2.63-1.69-.56-1.88-1.88-1.88-1.88,0,0,3.56-2.06,6.94-4.88,2.78-2.4,5.48-4.9,8.07-7.5,5.25,2.25,13.13,1.31,17.63.56,7.69-1.31,13.32-4.5,13.32-4.5l1.31,3.56c.94,2.44,4.5,3.75,8.07,1.31,3.56-2.25,2.63-7.5,2.63-7.5,0,0,3-1.69,8.82-3.75,6-2.25,10.69-2.63,15.57-.38,4.69,2.25,7.13,8.82,7.13,13.69s-2.63,3-3.19,2.25c-.56-.75-1.69-4.31-7.69-5.25s-11.44,1.88-18.38,7.5c-6.94,5.63-8.44,6.19-11.82,9.75s-.75,5.63,5.25,7.5c5.81,1.88,13.51-1.88,13.69-1.88,1.13.56-2.63,5.81-7.5,7.88-5.25,1.88-11.82.56-16.88-1.31-3.38-1.5-3.94,0-4.88.94-5.63,6-7.13,11.25-8.07,18.19-2.74-.97-4.74-3.33-5.25-6.19,0-1.13-.56-3.56-2.44-1.88s-3.38,11.82-3.38,16.32,1.31,10.69,1.31,10.69l-1.31-.19c-.94,0-2.44-1.13-4.69-2.25-2.25-1.31-2.44,0-2.44,2.63,0,2.44-.75,7.13-4.13,15.57-3.19,8.25-8.07,11.07-8.07,11.07,0,0-.94-1.69-1.88-5.06-.94-3.19-1.69-9.75-1.69-15.38s1.5-17.63,1.5-17.63c0,0-6.75,8.25-13.88,10.32-7.13,2.06-14.26.94-17.26-2.63-3-3.38-.38-4.88,1.13-5.25"
       id="path80" />
    <path
       class="cls-5"
       d="M540.74,387.16s2.06,4.69,3.19,6.38c1.31,1.88,1.88,1.88,1.88,1.88,0,0-2.25,1.88-5.44,3l-6,1.5s3.75-4.88,4.88-8.25l1.5-4.5ZM497.78,384.35l1.69-4.31c5.65.44,11.31-.73,16.32-3.38,0,0-3.38,6.75-6.57,9-3.38,2.44-3.75,2.44-3.75,2.44,0,0,3.19.56,7.69-3.75,4.31-4.31,6.38-9.38,6.38-9.38,0,0-.94,11.63.75,18.76l2.25,7.88s-9.38,1.88-19.7-1.13c-10.5-3-11.25-3.75-11.25-3.75,0,0-1.31-.38.38-2.63,2.26-3.05,4.21-6.31,5.81-9.75"
       id="path81" />
    <path
       class="cls-1"
       d="M516.73,358.84l3.38-4.5s1.13,1.13.19,2.63c-.94,1.69-5.63,5.63-8.63,7.5-1.95,1.03-4.03,1.78-6.19,2.25v-.56s7.88-3.75,11.25-7.32M529.3,383.04l.75-16.88c0-1.88,1.31-1.5,1.31-1.5l1.69.75-3.19,21.2c-.19,2.25-1.31,2.06-1.88,1.88,1.13-.38,1.31-4.88,1.31-5.63v.19ZM548.8,320.01c1.31-1.13,3.94-1.88,1.31.94-2.44,2.81-5.81,6.38-6.94,9.38-.94,3-1.5,6.57,0,5.63,1.88-.56,3-.56,4.88-2.06s5.06-3.94,6.57-4.31c1.31-.56,3.75,0,1.88,2.06-2.43,2.6-5.14,4.92-8.07,6.94l-7.88,5.44c-1.22.91-2.47,1.79-3.75,2.63,0,0,1.69-12,4.88-17.07,2.02-3.38,4.41-6.53,7.13-9.38v-.19ZM612.95,518.65c2.44,1.88,5.63,2.63,5.63,2.63,0,0,1.31,0,1.31.38s-1.69,0-3.56-.38c-1.88-.19-4.31-2.06-5.06-2.81-.94-.56-2.25-1.5-1.88-2.63s1.13.94,3.56,2.81M592.32,529.72c1.43,1.27,2.94,2.46,4.5,3.56l2.44,1.31c1.31.56,1.88,1.31,1.88,1.31h-1.88c-1.5-.19-5.63-3.38-6.75-4.69-1.5-1.13-1.88-1.5-1.5-1.88.56-.56.75-.19,1.31.38M676.17,380.6c-.75.94-1.88,2.06-2.06,1.88-.56-.56,0-.94.94-2.25l1.69-1.69s1.31-2.25,2.06-3c.94-.75,2.06-1.31.56.56l-3.38,4.5h.19ZM682.36,394.48l-2.44,3c-.94,1.13-1.88,2.25-2.25,1.88-.56-.75,1.5-1.88,2.25-3.19.81-1.06,1.76-2,2.81-2.81.83-.63,1.71-1.2,2.63-1.69l-2.81,3.19-.19-.38ZM680.11,416.99c-1.69,1.88-3.94,2.25-4.31,1.5-.38-.56.19-1.13,1.5-1.88,2.66-1.44,5.18-3.13,7.5-5.06.75-.75,1.5-1.31,1.88-1.13.19.19-2.25,2.81-3,3.38-.75.38-1.88,1.69-3.75,3.19h.19ZM675.42,435.18c0-.75,0-1.13,1.31-1.13l3-.38s2.63-.94,2.81-.56c.19.56-2.06,1.5-3.19,1.88-.94,0-2.25.38-2.81.75-.56.19-1.13,0-1.13-.56M673.54,454.69c2.81,0,5.25-.75,5.44-.19,0,.38-1.31.94-2.81,1.5s-4.13.75-5.81.75c-1.88,0-2.25-.38-2.06-1.31,0-.75,2.44-.75,5.25-.75M651.41,476.26c.38-.38,1.5,0,3,.38,1.69.38,4.13.75,5.63.75l4.69-.19,1.88.38c0,.38-2.44.38-5.81.75-3.56.38-5.81-.38-7.5-.56-1.69-.19-2.25-.94-1.88-1.5M642.22,491.64c1.45.48,2.97.73,4.5.75l4.31.56s1.5.19,1.31.75c-.19.56-.75,0-1.88,0h-4.88c-2.25-.19-3.75-.94-5.06-1.13s-3-.94-2.25-1.88,2.25.19,3.94.94M624.58,503.09c2.17,1.88,4.49,3.57,6.94,5.06,1.5.75,1.5.94,1.31,1.5-.38.38-1.31-.56-2.06-.94-1.79-.97-3.49-2.1-5.06-3.38-1.31-1.13-3.19-2.06-2.81-3,.38-.75.56,0,1.69.94v-.19ZM654.03,353.59l-3.38,4.5c-3,3.75-1.31.38-.56-.75l6.75-9c1.5-1.88,1.88-.94.94.19l-3.75,5.06ZM660.6,373.28c-.56-.56.56-.94,2.25-3.19l5.25-6.57s.94-2.06,1.31-1.88-1.13,3.56-2.63,4.88c-1.5,1.5-3.19,4.13-4.31,5.44-.94,1.13-1.5,1.88-1.88,1.31M651.97,410.24c0-1.13,3.56-.94,5.06-1.31l4.5-.94s3.19-.56,3.38,0c0,.19-.75.75-2.63.94-1.88.38-4.5,1.31-6.57,1.5-1.88.38-3.75.75-3.75-.19M660.6,390.17c-2.44,1.88-3.75,2.81-5.06,3.38-1.31.75-2.25,1.88-2.81.94-.75-.75.56-1.31,2.44-2.25l3-1.5,2.06-1.13c.94-.56,2.63-1.31.38.56M640.72,377.04l2.63-1.88s1.88-1.5,2.06-.94c.38.56-1.88,2.06-3,3-1.13,1.13-3,3.75-4.13,3.38-.94-.56,1.13-2.25,2.44-3.56M653.85,428.62l3,.75c1.31.38,1.31.94-.94.94s-3.19-.56-5.44-.94c-2.25-.56-3-.75-2.63-1.5.38-.75,1.5-.56,2.44-.19l3.56.94ZM650.09,447.19c.19.38-1.5,0-2.63-.38-1.13-.56-3.56-1.88-5.06-2.06-1.31-.56-1.31-.75-1.31-1.5,0-.94,1.5-.19,3.38.38s4.13,2.44,4.13,2.44c0,0,1.5.75,1.69,1.13h-.19ZM626.27,458.44c-1.88-.94-1.88-1.88-1.5-2.25.56-.56,1.13-.38,2.44.75l3.75,2.81,2.44,1.13c.94.56,2.25,1.31,1.88,1.88-.19.38-2.25,0-3.38-1.13l-5.63-3.19ZM615.02,473.45l-3.75-1.88c-.75-.75-1.31-2.63-.56-3,.56-.19,1.13.94,2.63,1.88,1.5,1.31,6.94,4.88,6.94,4.88l1.5.56c1.5.56.75,1.13-.38.94-1.31-.19-2.25-.19-3.75-1.31-1.31-1.31-2.06-1.5-2.63-2.06M598.14,487.7c-1.31-.56-3.38-2.44-4.5-3.38-.94-.94-2.25-2.06-1.5-2.63.75-.56,1.69,0,2.81,1.13l4.13,4.31s.56,0,2.06,1.5c1.88,1.31,0,1.13-.56.56s-.94-.94-2.44-1.5"
       id="path82" />
    <path
       class="cls-5"
       d="M529.86,274.62l-6.75-4.69,8.07-2.06,5.06,4.13-6.38,2.63Z"
       id="path83" />
    <ellipse
       class="cls-1"
       cx="508.29"
       cy="269.18"
       rx="6.38"
       ry="6.19"
       id="ellipse83" />
    <ellipse
       class="cls-5"
       cx="508.29"
       cy="267.68"
       rx="3.94"
       ry="3.75"
       id="ellipse84" />
    <path
       class="cls-5"
       d="M521.79,247.8c-1.88.56-3.75.38-3.75.38,0,0-.75-3,.75-4.31l3.94-3.38,1.13-1.13.19,3.94c0,1.5-.56,3.75-2.25,4.5"
       id="path84" />
    <circle
       class="cls-5"
       cx="518.23"
       cy="250.8"
       r="1.13"
       id="circle84" />
    <path
       class="cls-5"
       d="M527.05,249.67l1.69,1.88s-1.31,0-2.44.75c-1.13.75-2.44,1.5-3.75,1.31-1.02-.18-1.7-1.16-1.52-2.18,0-.02,0-.05.01-.07.19-.94.94-1.88,3-2.44,1.88-.75,2.63,0,3,.75"
       id="path85" />
    <path
       class="cls-5"
       d="M522.54,257.18c4.13.38,9.38-4.13,9.38-4.13.56,3.75,2.81,5.63,6.19,6.19h-.38s-3.19,1.88-6.94,2.25c-1.69.38-3.19,0-4.88-.38-2.08-.32-4.11-.96-6-1.88-2.44-1.5-1.88-5.44-1.88-5.44,0,0,.56,3,4.5,3.38M538.3,253.24c1.88-.75,4.13-1.88,5.25-1.88.94,0,2.44-.38,2.25,1.5-.19,1.88-2.25,2.81-4.13,3-1.88,0-3-.75-4.13-1.31s-.94-.75.75-1.31M551.06,246.3c1.88-1.31,3.38-1.69,3.38-1.69,0,0,1.13,3.19.56,5.06s-2.06,2.44-3.75,2.44c-1.88,0-4.31-.94-3.75-2.25.94-1.31,1.88-2.25,3.56-3.75v.19Z"
       id="path86" />
    <ellipse
       class="cls-5"
       cx="549.37"
       cy="255.11"
       rx="1.5"
       ry=".94"
       id="ellipse86" />
    <path
       class="cls-5"
       d="M545.43,239.55c1.13-5.44.94-11.25-4.13-18.57-5.06-7.5-13.69-10.32-13.69-10.32l-3.19-3.56c-2.61-2.49-5.43-4.75-8.44-6.75l10.32,2.81v.19c-.1,2.48,1.83,4.58,4.31,4.69.06,0,.13,0,.19,0,.93.03,1.85-.23,2.63-.75,2.06.38,8.82,4.31,10.69,5.81-.47.73-.73,1.57-.75,2.44-.1,2.48,1.83,4.58,4.31,4.69.06,0,.13,0,.19,0,.73.02,1.44-.18,2.06-.56l.56.94c1.34,2.4,2.47,4.91,3.38,7.5-1.21.94-1.91,2.4-1.88,3.94,0,2.63,1.5,4.69,3.75,4.69v3c0,1.5-.75,2.44-3.38,3.19s-6.19,5.25-6.19,5.25c-.19,0-1.88-3.38-.75-8.63"
       id="path87" />
    <path
       class="cls-5"
       d="M529.48,205.41c-.94-.75-1.13-1.88-.38-2.63s2.06-.56,3,.19,1.13,1.88.38,2.63-2.06.56-3-.19M546.37,216.85c-1.13-.94-1.31-2.44-.38-3.38.75-.75,2.25-.75,3.38.38,1.13.94,1.31,2.44.38,3.19-.75.94-2.25.75-3.38,0v-.19Z"
       id="path88" />
    <circle
       class="cls-5"
       cx="556.5"
       cy="231.29"
       r="2.63"
       id="circle88" />
    <path
       class="cls-5"
       d="M499.85,194.9c1.5.38,3.94,1.13,7.69,3.19-2.63,0-4.69,1.69-4.69,3.75s2.44,4.5,5.06,4.5,4.31-2.25,4.31-4.31c0-.56,0-1.13-.38-1.5l3.75,2.25c8.25,5.63,10.13,8.44,14.26,15.94,4.13,7.69,5.63,16.13,3.75,21.01-1.69,5.06-8.25,6-8.25,6,0,0,.75-.75.75-1.69l-.38-3.19c-.38-1.88,0-4.13,0-4.13,0,0-1.69-.19-2.44.75l-3,3.38-3,3s-1.31-1.88-1.31-4.13,1.5-4.69,1.88-8.63c.19-3.75-1.88-10.88-5.63-16.13-3.66-4.36-8.12-7.99-13.13-10.69-1.63-.54-2.75-2.04-2.81-3.75l-.38-3.75c-.19-2.44,1.88-2.25,4.13-1.88h-.19Z"
       id="path89" />
    <path
       class="cls-5"
       d="M508.29,203.91c-1.5,0-2.81-1.31-2.81-2.63,0-1.13,1.13-2.06,2.63-2.06s2.63.94,2.63,2.06c0,1.31-.94,2.63-2.44,2.63M495.91,252.68c-1.72.66-3.64.53-5.25-.38-1.13-.75-1.5-2.44-.19-3.56,1.23-.98,2.93-1.12,4.31-.38l3.75,2.63s-.56.94-2.63,1.69"
       id="path90" />
    <path
       class="cls-5"
       d="M489.53,254.93c.75,1.13,1.13,1.88,3.38,1.88s4.69,0,6.19-1.5c.98-1.07,1.8-2.27,2.44-3.56h2.44s.94,3.56,1.88,4.5c1.31.94,5.06,1.13,6.75,0,1.88-1.5,3.19-3,3.56-2.81.19.19,0,1.5-1.88,3s-2.81,2.44-5.63,2.44h-15.94s-3.19.19-4.13-1.88c-.94-1.88-.94-3-.56-3.56.38-.38.75.38,1.5,1.5"
       id="path91" />
    <path
       class="cls-5"
       d="M513.73,252.3c-2.44,1.31-3.75.38-4.5-.56l-1.13-1.69s2.25-.75,3.38-1.5c1.13-.56,1.88-1.13,3-1.13l1.13.38s.56,3-1.88,4.5"
       id="path92" />
    <circle
       class="cls-1"
       cx="525.36"
       cy="228.67"
       r="5.25"
       id="circle92" />
    <path
       class="cls-1"
       d="M515.98,210.28c2.38-1.35,5.39-.8,7.13,1.31,1.69,2.25,1.31,5.06-.75,6.57-2.33,1.25-5.22.7-6.94-1.31-1.88-2.25-1.5-5.06.56-6.57"
       id="path93" />
    <circle
       class="cls-5"
       cx="525.55"
       cy="227.92"
       r="3"
       id="circle93" />
    <path
       class="cls-5"
       d="M518.23,210.85c1.5-.38,3.19.38,3.75,1.5.75,1.31,0,2.63-1.88,3-3.38.56-4.88-3.75-1.88-4.5"
       id="path94" />
  </g>
</svg>
