<svg xmlns="http://www.w3.org/2000/svg" id="Layer_1" data-name="Layer 1" viewBox="0 0 960 960"><defs id="defs1"><style id="style1">.cls-1{fill:#ffe700;stroke-width:0;fill-rule:evenodd}</style><mask id="mask" width="959.91" height="959.91" x="-.14" y=".09" maskUnits="userSpaceOnUse"><g id="a"><circle id="circle1" cx="479.81" cy="480.04" r="479.96" style="stroke-width:0;fill:#fff"/></g></mask></defs><g id="g5" style="mask:url(#mask)"><g id="g4"><path id="path1" d="m-.14 753.58 301.1-444.52L753.35.09h88.3L959.76 118.2v88.68L656.6 636.03 206.64 960h-88.68L-.14 841.89v-88.3Z" style="stroke-width:0;fill:#eee"/><path id="path2" d="M-.14 960h118.11l841.8-841.8V.09H841.66L-.14 841.89z" style="stroke-width:0;fill:#c70000"/><path id="path3" d="M-.14.09v753.49L753.35.09z" style="stroke-width:0;fill:#3662a2"/><path id="path4" d="M959.77 960V206.88L206.65 960z" style="stroke-width:0;fill:#38a100"/></g></g><g id="g7"><path id="path5" d="m337.33 390.33-43.31-26.25-25.12 44.25-24.37-44.62-44.06 25.87 1.12-50.81-50.62.37 26.25-43.5-44.25-25.12 44.62-24.37-25.87-44.06 50.62 1.12-.19-50.81 43.5 26.25 25.12-44.25 24.37 44.43 44.43-25.5-1.12 50.62 50.62-.19-26.25 43.5 44.25 24.94-44.62 24.56 25.69 43.87-50.62-.94-.19 50.62Z" class="cls-1"/><path id="path6" d="M363.2 271.47c0 51-41.81 92.43-93.37 92.43s-93.18-41.43-93.18-92.62 41.81-92.43 93.37-92.43 93.18 41.25 93.18 92.43z" style="stroke-width:0;fill-rule:evenodd;fill:#3662a2"/><path id="path7" d="M342.95 271.47c2.04 40.33-28.99 74.68-69.32 76.73-40.33 2.04-74.68-28.99-76.73-69.32-.12-2.47-.12-4.94 0-7.4 2.04-40.33 36.4-71.37 76.73-69.32 37.47 1.9 67.42 31.85 69.32 69.32" class="cls-1"/></g></svg>