<svg xmlns="http://www.w3.org/2000/svg" xmlns:xlink="http://www.w3.org/1999/xlink" id="Layer_1" data-name="Layer 1" viewBox="0 0 960 960"><defs id="defs10"><linearGradient id="linear-gradient" x1="754.71" x2="758.9" y1="443.62" y2="456.19" gradientTransform="matrix(.85 0 0 -.85 -170.55 838.65)" gradientUnits="userSpaceOnUse"><stop id="stop1" offset="0" stop-color="#510000"/><stop id="stop2" offset=".3" stop-color="#8a0000"/><stop id="stop3" offset="1" stop-color="#a00"/></linearGradient><linearGradient id="linear-gradient-2" x1="754.51" x2="757.81" y1="440.8" y2="449.61" gradientTransform="matrix(.85 0 0 -.85 -170.55 838.65)" gradientUnits="userSpaceOnUse"><stop id="stop4" offset="0" stop-color="#ff2a2a"/><stop id="stop5" offset="1" stop-color="red"/></linearGradient><linearGradient id="linear-gradient-3" x1="633.64" x2="1052.2" y1="371.54" y2="371.54" gradientTransform="matrix(.85 0 0 -.85 -170.55 838.65)" gradientUnits="userSpaceOnUse"><stop id="stop6" offset="0" stop-color="#025"/><stop id="stop7" offset=".5" stop-color="#04a"/><stop id="stop8" offset="1" stop-color="#025"/></linearGradient><linearGradient xlink:href="#linear-gradient-3" id="linear-gradient-4" y1="372.86" y2="372.86" gradientTransform="matrix(.85 0 0 -.85 -170.55 837.71)"/><linearGradient xlink:href="#linear-gradient-3" id="linear-gradient-5" y1="374.19" y2="374.19" gradientTransform="matrix(.85 0 0 -.85 -170.55 836.77)"/><linearGradient xlink:href="#linear-gradient-3" id="linear-gradient-6" y1="375.51" y2="375.51" gradientTransform="matrix(.85 0 0 -.85 -170.55 835.83)"/><linearGradient xlink:href="#linear-gradient-3" id="linear-gradient-7" y1="376.84" y2="376.84" gradientTransform="matrix(.85 0 0 -.85 -170.55 834.9)"/><linearGradient xlink:href="#linear-gradient-3" id="linear-gradient-8" y1="378.16" y2="378.16" gradientTransform="matrix(.85 0 0 -.85 -170.55 833.96)"/><linearGradient xlink:href="#linear-gradient-3" id="linear-gradient-9" y1="379.61" y2="379.61" gradientTransform="matrix(.85 0 0 -.85 -170.55 832.93)"/><linearGradient xlink:href="#linear-gradient-3" id="linear-gradient-10" y1="380.93" y2="380.93" gradientTransform="matrix(.85 0 0 -.85 -170.55 831.99)"/><linearGradient xlink:href="#linear-gradient-3" id="linear-gradient-11" y1="382.26" y2="382.26" gradientTransform="matrix(.85 0 0 -.85 -170.55 831.06)"/><linearGradient xlink:href="#linear-gradient-3" id="linear-gradient-12" x1="633.64" x2="1052.2" y1="398.54" y2="398.54"/><linearGradient xlink:href="#linear-gradient-3" id="linear-gradient-13" x1="633.64" x2="1052.2" y1="392.68" y2="392.68"/><linearGradient id="linear-gradient-14" x1="818.78" x2="818.78" y1="394.35" y2="381.34" gradientTransform="matrix(.85 0 0 -.85 -170.55 838.65)" gradientUnits="userSpaceOnUse"><stop id="stop9" offset="0" stop-color="#f5f549"/><stop id="stop10" offset="1" stop-color="#97c924"/></linearGradient><linearGradient xlink:href="#linear-gradient-14" id="linear-gradient-15" x1="800.36" x2="800.36" gradientTransform="matrix(.85 0 0 -.85 -183.61 838.65)"/><linearGradient xlink:href="#linear-gradient-14" id="linear-gradient-16" x1="755.97" x2="755.97" y1="394.35" y2="381.34"/><linearGradient xlink:href="#linear-gradient-14" id="linear-gradient-17" x1="713.43" x2="713.43" y1="394.35" y2="381.34"/><linearGradient xlink:href="#linear-gradient-14" id="linear-gradient-18" x1="694.89" x2="694.89" y1="394.35" y2="381.34" gradientTransform="matrix(.85 0 0 -.85 -183.69 838.65)"/><linearGradient xlink:href="#linear-gradient-3" id="linear-gradient-19" x1="141.11" x2="198.64" y1="-1290.75" y2="-1290.75" gradientTransform="matrix(3.8 0 0 -.19 -173.5 282.01)"/><linearGradient xlink:href="#linear-gradient-3" id="linear-gradient-20" x1="68.54" x2="98.95" y1="-3712.91" y2="-3712.91" gradientTransform="matrix(7.79 0 0 -.09 -177.49 199.65)"/><linearGradient xlink:href="#linear-gradient-3" id="linear-gradient-21" x1="68.54" x2="98.95" y1="-3698.63" y2="-3698.63" gradientTransform="matrix(7.79 0 0 -.09 -177.49 198.55)"/><linearGradient xlink:href="#linear-gradient-3" id="linear-gradient-22" x1="68.54" x2="98.95" y1="-3684.35" y2="-3684.35" gradientTransform="matrix(7.79 0 0 -.09 -177.49 197.44)"/><linearGradient xlink:href="#linear-gradient-3" id="linear-gradient-23" x1="68.54" x2="98.95" y1="-3670.06" y2="-3670.06" gradientTransform="matrix(7.79 0 0 -.09 -177.49 196.33)"/><linearGradient xlink:href="#linear-gradient-3" id="linear-gradient-24" x1="68.54" x2="98.95" y1="-3655.78" y2="-3655.78" gradientTransform="matrix(7.79 0 0 -.09 -177.49 195.22)"/><linearGradient xlink:href="#linear-gradient-3" id="linear-gradient-25" x1="68.54" x2="98.95" y1="-3641.5" y2="-3641.5" gradientTransform="matrix(7.79 0 0 -.09 -177.49 194.11)"/><linearGradient xlink:href="#linear-gradient-3" id="linear-gradient-26" x1="68.54" x2="98.95" y1="-3628.32" y2="-3628.32" gradientTransform="matrix(7.79 0 0 -.09 -177.49 193.08)"/><linearGradient xlink:href="#linear-gradient-3" id="linear-gradient-27" x1="68.54" x2="98.95" y1="-3614.03" y2="-3614.03" gradientTransform="matrix(7.79 0 0 -.09 -177.49 191.97)"/><linearGradient xlink:href="#linear-gradient-3" id="linear-gradient-28" x1="68.54" x2="98.95" y1="-3599.75" y2="-3599.75" gradientTransform="matrix(7.79 0 0 -.09 -177.49 190.87)"/><clipPath id="clippath"><path id="polygon1" d="M474.54 341.71 354.73 549.16h239.61z" style="stroke-width:0;fill:none"/></clipPath><style id="style1">.cls-1{stroke-miterlimit:3.41;stroke-width:.09px}.cls-1,.cls-10,.cls-11,.cls-14,.cls-16,.cls-18,.cls-21,.cls-22,.cls-28,.cls-32,.cls-33,.cls-5{fill:#17c0eb;isolation:isolate;opacity:.6;stroke:#17c0eb}.cls-37,.cls-43,.cls-44,.cls-50,.cls-57,.cls-61,.cls-64,.cls-70{stroke-width:0}.cls-37{fill:#9ecb34}.cls-5{stroke-miterlimit:3.41;stroke-width:.09px}.cls-43{fill:#ede71f}.cls-44{fill:#97c924}.cls-50{fill:red}.cls-10{stroke-miterlimit:3.41;stroke-width:.09px}.cls-57{fill:#fff}.cls-11{stroke-miterlimit:3.41;stroke-width:.09px}.cls-61{fill:#c8a400}.cls-64{fill:#c6cb24}.cls-14,.cls-16{stroke-miterlimit:3.41;stroke-width:.09px}.cls-70{fill:#93bc30}.cls-18,.cls-21,.cls-22,.cls-28,.cls-32,.cls-33{stroke-miterlimit:3.41;stroke-width:.09px}</style><mask id="mask" width="959.91" height="959.91" x="-.14" y=".09" maskUnits="userSpaceOnUse"><g id="a"><circle id="circle1" cx="479.81" cy="480.04" r="479.96" class="cls-57"/></g></mask></defs><g id="g12" style="mask:url(#mask)"><g id="g11"><path id="path10" d="M-.14.09h959.91v271.29L882.15 480.8l77.62 207.92v271.29H-.14V688.72l77.81-202.29L-.14 271.38z" style="stroke-width:0;fill:#0067c6"/><path id="path11" d="M-.14 271.38h959.91v417.34H-.14z" style="stroke-width:0;fill:#eee"/></g></g><g id="g155"><path id="path12" d="m305.34 478.82 18.73 1.32.22-2.87-7.49-.44.66-8.82 7.93-5.73v-3.53l-8.16 5.95c-.22-1.98-1.32-3.97-3.31-4.63-1.76-.66-3.75-.88-5.29.44-1.76 1.32-2.2 3.97-2.42 5.95l-.88 12.34Zm2.87-2.43.66-9.26c.22-1.54.44-3.31 1.76-4.41.96-.75 2.34-.58 3.09.37.22.28.37.6.43.95 1.1 2.2.66 4.85.44 7.27l-.44 5.51-5.95-.44Zm-.45-26.45 18.29 4.41 4.41-17.85-2.87-.66-3.53 15.43-5.51-1.54 3.09-13.67-2.42-.66-3.31 13.67-4.85-1.1 3.31-14.55-2.64-.66-3.97 17.19Zm6.62-24.46 17.63 6.17 1.1-2.64-7.05-2.2 2.87-8.16c.44-2.2.88-4.85-.44-6.83-1.06-1.51-2.79-2.41-4.63-2.42-2.2 0-3.75 1.54-4.63 3.31-1.32 2.42-2.2 5.29-3.09 7.93l-1.76 4.85Zm3.52-1.77 2.87-7.93c.44-1.54 1.32-3.09 2.87-3.53 1.32-.44 2.87.66 2.87 2.2.44 2.2-.66 4.85-1.54 7.05l-1.32 4.41-5.73-2.2Zm6.4-20.94 9.92 5.73c1.98 1.1 4.41 1.76 6.39.44 2.64-1.32 4.41-4.41 5.73-6.83.88-2.2 1.76-5.07.44-7.49-1.54-2.2-4.19-3.31-6.39-4.85l-6.61-3.75-1.1 2.2c3.09 2.2 6.39 3.97 9.48 5.73 1.54.88 2.87 2.64 2.42 4.41-.37 2.17-1.28 4.22-2.64 5.95-1.1 1.54-2.87 2.64-4.63 2.2-2.2-.22-3.53-1.54-5.29-2.42l-6.61-3.75-1.1 2.42Zm13.44-22.04 14.99 11.24 6.83-9.04c1.32-1.98 2.64-4.41 1.76-6.61-.82-1.99-2.7-3.36-4.85-3.53-.88 0-2.2.44-2.64.88.44-2.2-1.1-3.97-2.87-4.41-2.2-.88-4.41.66-5.95 2.2-1.76 1.76-3.31 3.97-4.85 5.95l-2.42 3.31Zm3.75-.66 5.29-6.61c.88-1.1 2.2-2.2 3.53-1.54s1.54 2.2.88 3.09c-.88 2.2-2.2 3.53-3.53 5.29l-2.2 2.87-3.97-3.09Zm6.17 4.41 5.29-6.61c1.1-1.1 2.2-2.42 3.75-2.2 1.32.44 2.2 1.76 1.98 3.09-.88 2.42-2.64 4.41-4.19 6.61l-2.2 2.87-4.63-3.53v-.22Zm7.05-23.8 12.78 13.67 11.02-10.58-1.76-1.76-8.82 8.38h-.44l-11.02-11.68-1.76 1.98Zm16.53-14.55 11.46 14.99 2.2-1.76-11.46-14.99zm16.75-11.46c-1.73 1.1-3.22 2.52-4.41 4.19-2.3 2.85-2.48 6.87-.44 9.92.91 1.49 2.2 2.71 3.75 3.53 1.54.66 3.09 1.1 4.85.88 4.5-.84 8.48-3.46 11.02-7.27.86-1.7 1.09-3.65.66-5.51l-2.64 1.1c.66 3.75-1.76 5.51-4.41 7.27-4.41 2.42-8.38 2.2-11.02-1.54-2.42-4.41.44-7.93 3.97-10.36 2.64-1.54 5.07-2.64 7.49-1.1l2.2-1.76c-1.42-.99-3.13-1.45-4.85-1.32-1.98 0-3.97.66-6.17 2.2v-.22Zm22.26-11.02-1.98 20.94 3.09-1.1.44-6.61 9.7-3.75 4.85 4.41 2.87-1.32-15.87-13.89-3.09 1.32Zm2.65 2.2 6.17 5.29-7.05 2.87zm38.57-13.88 1.32 18.73 10.14-.66c2.64-.22 5.51-.88 7.27-3.09 2.08-2.78 2.73-6.37 1.76-9.7-1.02-2.92-3.56-5.03-6.61-5.51-2.64-.66-5.51-.22-8.6 0l-5.29.22Zm2.87 2.42 8.16-.44c1.58-.08 3.14.39 4.41 1.32 1.9 1.35 2.92 3.63 2.64 5.95-.14 2.64-1.9 4.91-4.41 5.73l-4.41.66-5.51.22zm23.36-3.53-1.1 18.73 18.29 1.1v-2.64l-15.43-.88.44-5.73 13.89.88.22-2.64-13.89-.88v-5.07l15.21.88v-2.64l-17.63-1.1Zm49.15 7.94-6.61 17.63 2.2.66 5.51-13.89v-.66l.44.88 6.61 18.51 3.09 1.32 6.61-17.63-2.2-.88-5.51 13.89v.66l-.44-.66-6.61-18.73zm25.35 10.8-8.82 16.75-2.2-1.32 8.38-16.75zm14.1 8.37c-1.67-1.15-3.54-1.98-5.51-2.42-3.57-.93-7.33.59-9.26 3.75-.98 1.36-1.59 2.96-1.76 4.63 0 1.76.44 3.53 1.32 5.07 1.28 1.8 2.94 3.3 4.85 4.41 2.2 1.54 4.19 2.2 6.17 2.42 2.2 0 3.75-.44 5.51-1.54l-2.2-2.2c-3.09 2.2-5.73.88-8.38-.88-4.19-2.64-5.73-6.61-3.31-10.36 2.87-4.41 7.49-3.31 11.02-.88 2.64 1.54 4.63 3.53 4.41 6.39l2.2 1.1c.38-1.72.15-3.51-.66-5.07-1.08-1.81-2.6-3.33-4.41-4.41m17.87 13.22-19.62 7.93 2.2 2.2 6.17-2.42 7.93 6.61-1.54 6.61 2.2 1.98 5.07-20.72-2.2-2.2h-.22Zm-.66 3.53-2.2 7.93-5.51-4.85 7.71-3.09Zm14.98 9.69-14.55 11.9 1.76 2.2 5.73-4.63 5.73 6.83-1.76 9.48 2.2 2.87 1.76-10.14c1.76 1.32 4.19 2.2 5.95.88 1.76-.66 3.31-2.2 3.31-4.19.22-2.64-1.54-4.63-3.09-6.61l-7.05-8.6Zm-.44 3.75c2.2 2.64 4.41 5.07 6.17 7.71.88 1.32 2.2 3.09.88 4.63-.66 1.32-2.64 1.32-3.75.44-2.2-1.54-3.75-3.97-5.73-5.95l-2.2-2.87 4.63-3.97Zm22.26 26.23-21.16.88 1.76 2.87 6.61-.44 5.07 8.82-3.75 5.73 1.76 2.64 11.46-17.63-1.54-2.87h-.22Zm-1.76 2.86-4.41 6.83-3.75-6.61zm13.89 22.04c-1.1-3.31-3.09-6.61-6.17-8.16-3.62-1.77-7.97-.86-10.58 2.2-2.2 2.64-2.2 6.17-1.76 9.26.65 3.7 2.33 7.14 4.85 9.92l-1.32.44.88 2.42 8.82-3.09-3.53-9.48-1.98.66 2.64 7.05-3.09 1.1a16.549 16.549 0 0 1-4.85-8.82c-.66-2.64-.66-5.73 1.32-7.49 2.2-2.2 5.95-3.09 8.82-1.1 2.33 2.07 3.89 4.86 4.41 7.93.66 1.98.66 4.41-.88 5.95-.44.22 0 .66.22 1.1l.88 1.1c1.58-1.29 2.48-3.25 2.42-5.29 0-1.98-.44-3.97-1.1-5.73m5.51 14.8-10.58 1.98c-1.98.44-3.31.88-4.41 1.76-.88.88-1.54 1.98-1.98 3.53-.3 1.91-.22 3.85.22 5.73.44 2.2 1.1 3.97 2.2 5.29.66 1.32 1.76 2.2 2.87 2.64 1.32.22 2.87.44 4.85 0l10.36-2.2-.44-2.64-10.14 2.2c-4.63.66-6.17-1.76-7.05-5.73-.88-4.41-.22-7.05 4.41-7.93l10.14-2.2-.44-2.42Zm5.73 31.96-19.4-8.38v3.09l6.17 2.64.66 10.14-5.51 3.53.22 3.09 18.07-11.02-.22-3.09Zm-2.87 1.76-7.05 4.41-.66-7.71 7.71 3.31Zm-320.91 46.95-2.64.66 2.87 11.46 2.87-.66-3.09-11.46Zm309.45 0 2.64.66-2.87 11.46-2.87-.66 3.09-11.46Zm-280.36 48.05-20.94 2.42 1.76 2.64 6.61-.66 5.51 8.6-3.09 5.73 1.76 2.64 10.14-18.73-1.76-2.64Zm-1.54 3.09-3.97 7.27-4.41-6.39zm9.7 8.59-13.44 12.34 1.76 2.2 11.24-10.8-5.95 16.31 2.2 2.2 16.09-4.85-11.02 10.36 1.76 1.76L373 591.65l-2.64-3.09-16.31 5.07 6.17-16.09-3.09-3.09Zm19.39 19.84-11.24 14.99 14.55 11.02 1.54-2.2-12.34-9.26 3.53-4.41 11.02 8.16 1.76-2.2-11.24-8.38 3.09-3.97 11.9 9.04 1.54-2.2-14.11-10.58Zm18.52 13.44-8.82 16.53 2.2 1.32 3.53-6.61 8.16 4.41 1.76 9.48 3.09 1.54-1.98-9.92c2.2.66 4.41.22 5.95-1.32 1.1-1.32 1.98-3.31 1.32-5.07-.66-2.42-3.09-3.75-5.07-4.85zm1.1 3.75 8.6 4.41c1.1 1.1 2.87 2.2 2.64 3.97 0 1.54-1.76 2.2-3.09 2.2-2.87-.66-5.07-2.2-7.49-3.53l-3.53-1.76zm20.06 7.27-7.05 17.63 2.64.88 7.05-17.41zm16.97 5.96c-1.91-.67-3.93-.97-5.95-.88-3.66.04-6.87 2.45-7.93 5.95-.6 1.62-.75 3.37-.44 5.07.44 1.76 1.32 3.31 2.64 4.41 1.65 1.5 3.6 2.63 5.73 3.31 2.42.88 4.63.88 6.61.66 1.94-.41 3.66-1.5 4.85-3.09l-2.42-1.32c-2.64 2.87-5.51 2.2-8.6 1.32-4.63-1.76-7.05-5.07-5.73-9.48 1.54-4.85 6.17-4.85 10.36-3.53 2.87.88 5.29 2.2 5.73 5.07l2.64.22c-.22-1.68-.99-3.23-2.2-4.41a12.804 12.804 0 0 0-5.29-3.31m18.95 4.41-12.34 16.97 3.09.44 3.75-5.29 10.14 1.54 2.2 6.17 3.09.44-6.83-19.84-3.09-.66v.22Zm1.1 3.09 2.64 7.71-7.49-1.1zm42.98-3.09c-2.04.35-3.98 1.1-5.73 2.2-3.15 1.83-4.75 5.48-3.97 9.04.34 1.63 1.1 3.15 2.2 4.41 1.1 1.54 2.64 2.2 4.41 2.87 1.76.44 3.97.44 6.61 0 2.2-.42 4.25-1.41 5.95-2.87 1.5-1.22 2.52-2.94 2.87-4.85h-3.09c-.66 3.75-3.53 4.41-6.61 5.29-5.07.88-8.82-.88-9.7-5.29-.88-5.07 3.09-7.49 7.27-8.38 2.87-.66 5.73-.66 7.27 1.54l2.64-.88c-.96-1.37-2.36-2.38-3.97-2.87-2.15-.65-4.43-.73-6.61-.22h.44Zm12.57-2.2 5.29 18.07 17.63-5.29-.88-2.64-14.77 4.41-1.76-5.29 13.44-4.19-.66-2.42-13.44 3.97-1.54-4.85 14.33-4.41-.66-2.42-16.97 5.07Zm20.27-6.61 7.93 17.19 2.2-1.1-6.61-14.11 18.29 8.38h1.32l2.2-1.32-7.71-16.97-2.2 1.1 6.39 14.11-18.73-8.6-3.09 1.32Zm20.72-9.48 1.54 2.2 6.61-4.41.22-.22 8.82 13.44 2.2-1.54-8.6-13.22v-.44l6.83-4.41-1.32-2.2-16.31 10.8Zm18.96-13.22 12.78 14.11 1.98-1.98-5.07-5.29 6.61-6.17 9.7 1.1 2.42-2.2-10.14-1.32c1.32-1.76 1.76-4.41.66-6.17-.88-1.54-2.42-2.87-4.41-2.87-2.64 0-4.41 1.76-6.61 3.53l-7.93 7.27Zm3.75.22 7.27-6.61c1.1-.88 3.09-2.2 4.63-1.1 1.32.88 1.32 2.64.44 3.97-1.32 2.2-3.53 3.97-5.51 5.95l-2.64 2.2zm18.07-22.04 8.38 19.62 2.2-2.42-2.87-6.17 6.61-7.93 6.39 1.54 1.98-2.64-20.72-4.41-1.98 2.42Zm3.3.88 8.16 1.54-4.85 5.95zm4.85-11.46 15.87 10.36 8.16-12.78-2.2-1.54-6.61 10.14v.44l-.44-.22-13.22-8.82-1.54 2.42Z" class="cls-61"/><g id="g154" style="clip-path:url(#clippath)"><g id="g153"><path id="path13" d="m474.54 341.71-59.25 102.5-28.96 50.22h176.42l-27.65-47.77z" class="cls-57"/><g id="ni-e"><g id="ni-d"><path id="path14" d="m474.54 341.71-4.51 7.52 4.51 103.44 4.51-103.44z" style="fill:#17c0eb;isolation:isolate;opacity:.6;stroke:#17c0eb;stroke-miterlimit:3.41;stroke-width:.09px"/><path id="path15" d="M474.54 437.82h-.19l.19 5.64.19-5.64z" class="cls-57"/></g><g id="ni-d-2" data-name="ni-d"><path id="path16" d="m580.25 418.51-8.55-1.97-96.99 36.26 99.78-27.67z" class="cls-16"/><path id="path17" d="m488.85 448.21-.06-.18-5.31 1.92 5.42-1.56-.06-.18Z" class="cls-57"/></g><g id="ni-d-3" data-name="ni-d"><path id="path18" d="m539.87 542.79-.77-8.74-64.46-81.04 57.15 86.34 8.07 3.43Z" class="cls-10"/><path id="path19" d="m483.38 465.04.15-.11-3.47-4.45 3.16 4.68.15-.11Z" class="cls-57"/></g><g id="ni-d-4" data-name="ni-d"><path id="path20" d="m409.2 542.79 8.07-3.43 57.15-86.34-64.46 81.04-.77 8.74Z" class="cls-10"/><path id="path21" d="m465.69 465.04.15.11 3.16-4.68-3.47 4.45.15.11Z" class="cls-57"/></g><g id="ni-d-5" data-name="ni-d"><path id="path22" d="m368.82 418.51 5.76 6.62 99.78 27.67-96.99-36.26z" class="cls-16"/><path id="path23" d="m460.23 448.21-.06.18 5.42 1.56-5.31-1.92-.06.18Z" class="cls-57"/></g></g><g id="ni-e-2" data-name="ni-e"><g id="ni-d-6" data-name="ni-d"><path id="path24" d="m490.01 342.79-5.52 6.82-9.93 103.07 18.87-101.81z" style="fill:#17c0eb;isolation:isolate;opacity:.6;stroke:#17c0eb;stroke-miterlimit:3.41;stroke-width:.09px"/><path id="path25" d="m476.63 437.96-.19-.03-.6 5.61.97-5.56-.19-.03Z" class="cls-57"/></g><g id="ni-d-7" data-name="ni-d"><path id="path26" d="m584 433.56-8.19-3.14-101.09 22.41 102.66-13.52 6.63-5.75Z" class="cls-22"/><path id="path27" d="m489.35 450.25-.03-.19-5.52 1.17 5.59-.79-.03-.19Z" class="cls-57"/></g><g id="ni-d-8" data-name="ni-d"><path id="path28" d="m526.72 551.01.45-8.76-52.55-89.22 44.58 93.46z" style="fill:#17c0eb;isolation:isolate;opacity:.6;stroke:#17c0eb;stroke-miterlimit:3.41;stroke-width:.09px"/><path id="path29" d="m481.6 466.15.17-.09-2.82-4.89 2.48 5.07z" class="cls-57"/></g><g id="ni-d-9" data-name="ni-d"><path id="path30" d="m397.32 532.82 8.47-2.28 68.61-77.55-75.11 71.28-1.98 8.55Z" style="fill:#17c0eb;isolation:isolate;opacity:.6;stroke:#17c0eb;stroke-miterlimit:3.41;stroke-width:.09px"/><path id="path31" d="m464.08 463.69.14.13 3.78-4.19-4.05 3.93.14.13Z" class="cls-57"/></g><g id="ni-d-10" data-name="ni-d"><path id="path32" d="m374.63 404.14 4.78 7.36 94.95 41.29-91-49.4-8.74.76Z" class="cls-22"/><path id="path33" d="m461.01 446.27-.08.17 5.15 2.3-4.99-2.64z" class="cls-57"/></g></g><g id="ni-e-3" data-name="ni-e"><g id="ni-d-11" data-name="ni-d"><path id="path34" d="m505.18 346.01-6.41 5.99-24.17 100.68 32.85-98.19z" style="fill:#17c0eb;isolation:isolate;opacity:.6;stroke:#17c0eb;stroke-miterlimit:3.41;stroke-width:.09px"/><path id="path35" d="m478.68 438.4-.18-.05-1.37 5.48 1.74-5.37-.18-.05Z" class="cls-57"/></g><g id="ni-d-12" data-name="ni-d"><path id="path36" d="m585.62 448.98-7.68-4.25-103.22 8.12 103.54.9z" class="cls-21"/><path id="path37" d="M489.57 452.34v-.19s-5.64.38-5.64.38h5.65s0-.2 0-.2Z" class="cls-57"/></g><g id="ni-d-13" data-name="ni-d"><path id="path38" d="m512.55 557.32 1.67-8.61-39.62-95.66 31.14 98.75 6.81 5.53Z" style="fill:#17c0eb;isolation:isolate;opacity:.6;stroke:#17c0eb;stroke-width:.09px;stroke-miterlimit:3.41"/><path id="path39" d="m479.68 467 .18-.06-2.11-5.24 1.75 5.37.18-.06Z" class="cls-57"/></g><g id="ni-d-14" data-name="ni-d"><path id="path40" d="m386.94 521.3 8.71-1.07 78.74-67.24-84.29 60.13-3.15 8.19Z" style="fill:#17c0eb;isolation:isolate;opacity:.6;stroke:#17c0eb;stroke-miterlimit:3.41;stroke-width:.09px"/><path id="path41" d="m462.68 462.13.12.15 4.33-3.62-4.56 3.33.12.15Z" class="cls-57"/></g><g id="ni-d-15" data-name="ni-d"><path id="path42" d="m382.38 390.71 3.71 7.95 88.28 54.1-83.24-61.59-8.76-.46Z" class="cls-21"/><path id="path43" d="m462.06 444.45-.11.16 4.78 3-4.57-3.31-.11.16Z" class="cls-57"/></g></g><g id="ni-e-4" data-name="ni-e"><g id="ni-d-16" data-name="ni-d"><path id="path44" d="m519.75 351.32-7.18 5.04-37.95 96.34 46.2-92.67-1.06-8.71Z" style="fill:#17c0eb;isolation:isolate;opacity:.6;stroke:#17c0eb;stroke-miterlimit:3.41;stroke-width:.09px"/><path id="path45" d="m480.66 439.12-.17-.08-2.12 5.23 2.47-5.08-.17-.08Z" class="cls-57"/></g><g id="ni-d-17" data-name="ni-d"><path id="path46" d="m585.08 464.48-7.01-5.28-103.35-6.32 102.41 15.3z" class="cls-32"/><path id="path47" d="m489.5 454.44.02-.19-5.63-.4 5.59.78z" class="cls-57"/></g><g id="ni-d-18" data-name="ni-d"><path id="path48" d="m497.65 561.59 2.85-8.3-25.92-100.25 17.09 102.12 5.98 6.42Z" style="fill:#17c0eb;isolation:isolate;opacity:.6;stroke:#17c0eb;stroke-miterlimit:3.41;stroke-width:.09px"/><path id="path49" d="m477.66 467.58.18-.04-1.36-5.48.99 5.56.18-.04Z" class="cls-57"/></g><g id="ni-d-19" data-name="ni-d"><path id="path50" d="m378.27 508.44 8.77.15 87.33-55.63-91.84 47.81z" style="fill:#17c0eb;isolation:isolate;opacity:.6;stroke:#17c0eb;stroke-miterlimit:3.41;stroke-width:.09px"/><path id="path51" d="m461.51 460.39.09.16 4.79-2.98-4.98 2.66.09.16Z" class="cls-57"/></g><g id="ni-d-20" data-name="ni-d"><path id="path52" d="m391.93 378.49 2.57 8.39 79.89 65.86-73.85-72.57z" class="cls-32"/><path id="path53" d="m463.35 442.8-.13.14 4.32 3.64-4.07-3.92-.13.14Z" class="cls-57"/></g></g><g id="ni-e-5" data-name="ni-e"><g id="ni-d-21" data-name="ni-d"><path id="path54" d="m533.44 358.6-7.81 3.99-50.99 90.12 58.65-85.33.16-8.77Z" style="fill:#17c0eb;isolation:isolate;opacity:.6;stroke:#17c0eb;stroke-miterlimit:3.41;stroke-width:.09px"/><path id="path55" d="m482.51 440.1-.16-.1-2.83 4.88 3.15-4.69-.16-.1Z" class="cls-57"/></g><g id="ni-d-22" data-name="ni-d"><path id="path56" d="m582.39 479.75-6.21-6.2-101.46-20.65L574 482.31z" class="cls-5"/><path id="path57" d="m489.14 456.5.05-.18-5.52-1.18 5.43 1.55.05-.18Z" class="cls-57"/></g><g id="ni-d-23" data-name="ni-d"><path id="path58" d="m482.29 563.75 3.98-7.82-11.72-102.88 2.71 103.51z" class="cls-18"/><path id="path59" d="M475.59 467.87h.19s-.58-5.63-.58-5.63l.21 5.64h.19Z" class="cls-57"/></g><g id="ni-d-24" data-name="ni-d"><path id="path60" d="m371.47 494.5 8.67 1.37 94.22-42.94-97.6 34.57-5.28 7Z" class="cls-18"/><path id="path61" d="m460.59 458.5.07.17 5.16-2.29-5.3 1.94.07.17Z" class="cls-57"/></g><g id="ni-d-25" data-name="ni-d"><path id="path62" d="m403.09 367.71 1.38 8.66 69.95 76.34-63.04-82.14z" class="cls-5"/><path id="path63" d="m464.86 441.34-.14.12 3.77 4.2-3.48-4.44-.14.12Z" class="cls-57"/></g></g><g id="ni-e-6" data-name="ni-e"><g id="ni-d-26" data-name="ni-d"><path id="path64" d="m545.99 367.71-8.29 2.86-63.04 82.14 69.95-76.34z" style="fill:#17c0eb;isolation:isolate;opacity:.6;stroke:#17c0eb;stroke-miterlimit:3.41;stroke-width:.09px"/><path id="path65" d="m484.21 441.34-.14-.12-3.48 4.44 3.77-4.2-.14-.12Z" class="cls-57"/></g><g id="ni-d-27" data-name="ni-d"><path id="path66" d="m577.6 494.5-5.28-7-97.6-34.57 94.22 42.94 8.67-1.37Z" style="fill:#17c0eb;isolation:isolate;opacity:.6;stroke:#17c0eb;stroke-miterlimit:3.41;stroke-width:.09px"/><path id="path67" d="m488.49 458.5.07-.17-5.3-1.94 5.16 2.29.07-.17Z" class="cls-57"/></g><g id="ni-d-28" data-name="ni-d"><path id="path68" d="m466.78 563.75 5.03-7.19 2.71-103.51-11.72 102.88z" class="cls-14"/><path id="path69" d="M473.49 467.87h.19s.21-5.63.21-5.63l-.58 5.62h.19Z" class="cls-57"/></g><g id="ni-d-29" data-name="ni-d"><path id="path70" d="m366.68 479.75 8.39 2.56 99.28-29.41-101.46 20.65z" class="cls-14"/><path id="path71" d="m459.94 456.5.05.18 5.43-1.55-5.52 1.18.05.18Z" class="cls-57"/></g><g id="ni-d-30" data-name="ni-d"><path id="path72" d="m415.63 358.6.16 8.77 58.65 85.33-50.99-90.12-7.81-3.99Z" style="fill:#17c0eb;isolation:isolate;opacity:.6;stroke:#17c0eb;stroke-miterlimit:3.41;stroke-width:.09px"/><path id="path73" d="m466.56 440.1-.16.1 3.15 4.69-2.83-4.88-.16.1Z" class="cls-57"/></g></g><g id="ni-e-7" data-name="ni-e"><g id="ni-d-31" data-name="ni-d"><path id="path74" d="m557.14 378.49-8.61 1.68-73.85 72.57 79.89-65.86z" style="fill:#17c0eb;isolation:isolate;opacity:.6;stroke:#17c0eb;stroke-miterlimit:3.41;stroke-width:.09px"/><path id="path75" d="m485.72 442.8-.13-.14-4.07 3.92 4.32-3.64-.13-.14Z" class="cls-57"/></g><g id="ni-d-32" data-name="ni-d"><path id="path76" d="m570.8 508.44-4.26-7.67-91.84-47.81 87.33 55.63z" style="fill:#17c0eb;isolation:isolate;opacity:.6;stroke:#17c0eb;stroke-miterlimit:3.41;stroke-width:.09px"/><path id="path77" d="m487.57 460.39.09-.16-4.98-2.66 4.79 2.98.09-.16Z" class="cls-57"/></g><g id="ni-d-33" data-name="ni-d"><path id="path78" d="m451.43 561.59 5.98-6.42 17.09-102.12-25.92 100.25 2.85 8.3Z" class="cls-11"/><path id="path79" d="m471.41 467.58.18.04.99-5.56-1.36 5.48.18.04Z" class="cls-57"/></g><g id="ni-d-34" data-name="ni-d"><path id="path80" d="m363.99 464.48 7.95 3.7 102.41-15.3L371 459.2z" class="cls-11"/><path id="path81" d="m459.57 454.44.02.19 5.59-.78-5.63.4z" class="cls-57"/></g><g id="ni-d-35" data-name="ni-d"><path id="path82" d="m429.33 351.32-1.06 8.71 46.2 92.67-37.95-96.34-7.18-5.04Z" style="fill:#17c0eb;isolation:isolate;opacity:.6;stroke:#17c0eb;stroke-miterlimit:3.41;stroke-width:.09px"/><path id="path83" d="m468.42 439.12-.17.08 2.47 5.08-2.12-5.23-.17.08Z" class="cls-57"/></g></g><g id="ni-e-8" data-name="ni-e"><g id="ni-d-36" data-name="ni-d"><path id="path84" d="m566.69 390.71-8.76.46-83.24 61.59 88.28-54.1 3.71-7.95Z" style="fill:#17c0eb;isolation:isolate;opacity:.6;stroke:#17c0eb;stroke-miterlimit:3.41;stroke-width:.09px"/><path id="path85" d="m487.01 444.45-.11-.16-4.57 3.31 4.78-3-.11-.16Z" class="cls-57"/></g><g id="ni-d-37" data-name="ni-d"><path id="path86" d="m562.13 521.3-3.15-8.19-84.29-60.13 78.74 67.24 8.71 1.07Z" class="cls-33"/><path id="path87" d="m486.39 462.13.12-.15-4.56-3.33 4.33 3.62.12-.15Z" class="cls-57"/></g><g id="ni-d-38" data-name="ni-d"><path id="path88" d="m436.52 557.32 6.81-5.53 31.14-98.75-39.62 95.66 1.67 8.61Z" class="cls-28"/><path id="path89" d="m469.39 467 .18.06 1.75-5.37-2.11 5.24.18.06Z" class="cls-57"/></g><g id="ni-d-39" data-name="ni-d"><path id="path90" d="m363.45 448.98 7.36 4.77 103.54-.9-103.22-8.12z" class="cls-28"/><path id="path91" d="M459.5 452.34v.19s5.64 0 5.64 0l-5.63-.38v.19Z" class="cls-57"/></g><g id="ni-d-40" data-name="ni-d"><path id="path92" d="m443.9 346.01-2.27 8.48 32.85 98.19L450.31 352z" class="cls-33"/><path id="path93" d="m470.39 438.4-.18.05 1.74 5.37-1.37-5.48-.18.05Z" class="cls-57"/></g></g><g id="ni-e-9" data-name="ni-e"><g id="ni-d-41" data-name="ni-d"><path id="path94" d="m574.44 404.14-8.74-.76-91 49.4 94.95-41.29 4.78-7.36Z" style="fill:#17c0eb;isolation:isolate;opacity:.6;stroke:#17c0eb;stroke-miterlimit:3.41;stroke-width:.09px"/><path id="path95" d="m488.06 446.27-.08-.17-4.99 2.64 5.15-2.3z" class="cls-57"/></g><g id="ni-d-42" data-name="ni-d"><path id="path96" d="m551.75 532.82-1.98-8.55-75.11-71.28 68.61 77.55 8.47 2.28Z" style="fill:#17c0eb;isolation:isolate;opacity:.6;stroke:#17c0eb;stroke-miterlimit:3.41;stroke-width:.09px"/><path id="path97" d="m484.99 463.69.14-.13-4.05-3.93 3.78 4.19.14-.13Z" class="cls-57"/></g><g id="ni-d-43" data-name="ni-d"><path id="path98" d="m422.35 551.01 7.52-4.52 44.58-93.46-52.55 89.22z" class="cls-1"/><path id="path99" d="m467.47 466.15.17.09 2.48-5.07-2.82 4.89z" class="cls-57"/></g><g id="ni-d-44" data-name="ni-d"><path id="path100" d="m365.07 433.56 6.63 5.75 102.66 13.52-101.09-22.41-8.19 3.14Z" class="cls-1"/><path id="path101" d="m459.72 450.25-.03.19 5.59.79-5.52-1.17-.03.19Z" class="cls-57"/></g><g id="ni-d-45" data-name="ni-d"><path id="path102" d="m459.07 342.79-3.42 8.08 18.87 101.81-9.93-103.07z" style="fill:#17c0eb;isolation:isolate;opacity:.6;stroke:#17c0eb;stroke-miterlimit:3.41;stroke-width:.09px"/><path id="path103" d="m472.44 437.96-.19.03.97 5.56-.6-5.61-.19.03Z" class="cls-57"/></g></g><path id="path104" d="M474.54 415.81c-20.03-.02-39.4 7.19-54.54 20.31l-27.46 47.77c-.98 5.15-1.49 10.37-1.5 15.61h9.4c2.06-40.87 36.87-72.34 77.74-70.28 37.99 1.92 68.36 32.29 70.28 70.28h9.4c.04-5.23-.4-10.46-1.32-15.61l-27.46-47.77c-15.15-13.11-34.51-20.32-54.54-20.31" class="cls-50"/><path id="path105" d="M474.54 417.5c-21.26-.04-41.69 8.18-56.99 22.95l-22.57 39.31c-1.6 6.4-2.42 12.97-2.45 19.56h8.09c2.91-40.82 38.37-71.55 79.19-68.64 36.77 2.62 66.01 31.87 68.64 68.64h8.09c-.02-6.66-.84-13.29-2.45-19.75l-22.57-39.12c-15.29-14.76-35.73-22.99-56.99-22.95" style="stroke-width:0;fill:#f60"/><path id="path106" d="M474.54 419.01c-22.99-.06-44.9 9.73-60.19 26.9l-16.36 28.21c-2.61 8.21-3.88 16.78-3.76 25.39h6.21c2.06-40.87 36.87-72.34 77.74-70.28 37.99 1.92 68.36 32.29 70.28 70.28h6.58c0-8.84-1.5-17.3-3.95-25.2l-16.55-28.4c-15.23-17.14-37.07-26.93-60-26.9" style="stroke-width:0;fill:#ff0"/><path id="path107" d="M474.54 420.51c-26.34-.01-50.96 13.11-65.64 34.98l-5.27 9.22a78.612 78.612 0 0 0-8.09 34.8h5.08c2.91-40.82 38.37-71.55 79.19-68.64 36.77 2.62 66.02 31.87 68.64 68.64h5.08c0-12.07-2.76-23.97-8.09-34.8l-5.27-9.4c-14.68-21.88-39.3-35-65.64-34.98v.19Z" style="stroke-width:0;fill:#0f0"/><path id="path108" d="M474.54 421.83c-42.8 0-77.49 34.69-77.49 77.49 0 .06 0 .13 0 .19h3.57c2.91-40.82 38.37-71.55 79.19-68.64 36.77 2.62 66.02 31.87 68.64 68.64h3.57c.1-42.8-34.51-77.57-77.3-77.68-.06 0-.13 0-.19 0" style="stroke-width:0;fill:#0cf"/><path id="path109" d="M474.54 423.33c-41.97 0-75.98 34.02-75.98 75.98h2.63c0-40.51 32.84-73.35 73.35-73.35s73.35 32.84 73.35 73.35h2.63c-.21-41.82-34.17-75.61-75.98-75.61v-.38Z" style="stroke-width:0;fill:#00f"/><path id="path110" d="M474.54 425.03c-41.13 0-74.49 33.33-74.49 74.47 0 .44 0 .89.01 1.33h1.5v-1.5c.42-40.3 33.42-72.64 73.73-72.22 40.3.42 72.64 33.42 72.22 73.73h1.5v-1.5c0-41.13-33.35-74.48-74.48-74.48v.19Z" style="stroke-width:0;fill:purple"/><path id="path111" d="M475.29 457.75c-1.32 0-2.26-.94-3.39-1.13-1.12.98-1.62 2.49-1.32 3.95.56.19.56.75 1.69 1.69s.94 1.32.75 3.76c0 .75.19 2.82 1.13 3.01s1.88-.56 2.07-2.26c.19-1.32.75-2.26 1.32-3.01.56-3.57-.38-4.89-2.26-6.02" style="stroke-width:0;fill:#510000"/><path id="path112" d="M469.27 449.1c-1.13 0-3.01 1.88-3.76.94-.38-.56-.56-1.69 0-2.63.85-1.87 2.31-3.4 4.14-4.33 4.33-2.63 7.34-1.88 9.4 1.88 2.07 3.39 4.14 7.15 4.33 10.16 0 .94.56 2.63-.38 3.57-2.45 2.63-8.65-2.82-12.23-1.88-1.13.19-2.63 1.13-3.76.38-.75-.56 0-1.88.56-2.45 1.13-.94 2.82-4.51 2.63-6.02 0-.75 0 .38-.94.38" class="cls-50"/><path id="path113" d="M468.89 447.41c-2.26.75-1.88 1.88-3.01 2.82.38.19 1.5.56 2.63-.56.38-.38.94-.56 1.32-.56l-1.32 1.32c-1.12.92-2.02 2.08-2.63 3.39-.56 1.5-.75 3.2-.56 3.39 0 0 .75 1.5 2.82 2.26 3.76 1.5 4.51 4.7 8.46 4.7 3.01 0 2.63-2.07 5.08-1.69 1.88.38 3.2-1.32 1.13-2.26-3.35-.66-6.8-.66-10.16 0-.75-7.52 0-4.89-.19-8.28-.19-3.2-1.32-3.39 0-6.21-.94 1.88-2.26 1.5-3.76 1.5l.19.19Z" style="stroke-width:0;fill:url(#linear-gradient)"/><path id="path114" d="m476.42 442.14-.19 1.13.56 1.88.38 1.88c0 .56.75.75 1.32 1.13.75.56 0 1.88.56 2.07.38 0 .94-1.88.94-2.26v-1.32c-.29-.57-.61-1.14-.94-1.69-.12-.19-.24-.38-.38-.56-.42-.63-.92-1.2-1.5-1.69-.18-.13-.37-.26-.56-.38l-.38-.19z" style="stroke-width:0;fill:#ff2a2a"/><path id="path115" d="m476.98 456.44-3.76-1.32c-2.45-.75-4.89-2.26-6.58-1.5-.56.19-.56.75-.75 1.69 0 .94-.94 2.45 0 1.88 1.13-.75 4.51 1.5 5.64 2.07.56.38 1.88 1.13 2.07 1.88.38 1.13 0 3.39 0 4.51 0 .94.38 3.39 1.32 3.76 1.13.19 2.07-.75 2.45-2.45.56-1.69.75-2.63 1.5-3.57s1.5-1.5 2.45-1.69c1.13 0 2.63.94 2.63-.38 0-.75-.75-1.5-.38-2.63.19-.94-.75-.75-1.69-1.13l-4.89-1.13Z" style="stroke-width:0;fill:url(#linear-gradient-2)"/><path id="path116" d="M471.53 459.26c-.75-.38-4.33-2.82-5.64-1.88-.56 0-.75 0-.75-.56l.38-1.69c0-.56.38-1.5.94-1.88 1.32-1.13 4.33.94 5.83 1.5l-.75 4.51Z" style="stroke-width:0;fill:#910000"/><path id="path117" d="M477.92 463.96c1.69-3.01 2.82-2.63 4.89-2.63.75 0 .94-.56.75-1.32-.56 1.13-3.2 0-4.7.56-2.82 1.32-2.26 6.96-3.76 7.52 1.5 1.32 2.07-3.2 2.82-4.14" style="stroke-width:0;fill:#ff3a3a"/><g id="g120"><path id="path118" d="m386.33 494.43-18.81 32.54h214.22l-18.81-32.35H386.51l-.19-.19Z" class="cls-57"/><g id="ni-n"><path id="ni-k" d="M379.93 520.38c-2.96 0-5.91.18-8.84.56l-.94 1.69c4.51-.56 8.84-1.32 13.54-1.32 6.02 0 11.66 1.5 18.24 1.5h8.65c6.58 0 12.04-1.5 18.24-1.5s11.85 1.5 18.43 1.5h8.65c6.58 0 12.04-1.5 18.24-1.5s11.85 1.5 18.43 1.5h8.46c6.58 0 12.23-1.5 18.43-1.5s11.85 1.5 18.43 1.5h8.46c6.58 0 12.23-1.5 18.43-1.5 4.89 0 9.4.94 14.11 1.32l-.94-1.88c-2.75-.29-5.51-.41-8.28-.38h-8.46c-6.58 0-12.23 1.32-18.43 1.5-6.21 0-11.85-1.5-18.43-1.5h-8.46c-6.58 0-12.23 1.32-18.43 1.5-6.21 0-11.85-1.5-18.43-1.5h-8.28c-6.58 0-12.23 1.32-18.43 1.5-6.21 0-11.85-1.5-18.43-1.5h-8.46c-6.58 0-12.23 1.32-18.43 1.5-6.21 0-11.66-1.5-18.24-1.5h-8.84Z" style="stroke-width:0;fill:url(#linear-gradient-3)"/><path id="ni-k-2" d="M379.93 518.32c-2.96 0-5.91.18-8.84.56l-.94 1.69c4.51-.56 8.84-1.32 13.54-1.32 6.02 0 11.66 1.5 18.24 1.5h8.65c6.58 0 12.04-1.5 18.24-1.5s11.85 1.5 18.43 1.5h8.65c6.58 0 12.04-1.5 18.24-1.5s11.85 1.5 18.43 1.5h8.46c6.58 0 12.23-1.5 18.43-1.5s11.85 1.5 18.43 1.5h8.46c6.58 0 12.23-1.5 18.43-1.5 4.89 0 9.4.94 14.11 1.32l-.94-1.88c-2.75-.29-5.51-.41-8.28-.38h-8.46c-6.58 0-12.23 1.32-18.43 1.5-6.21 0-11.85-1.5-18.43-1.5h-8.46c-6.58 0-12.23 1.32-18.43 1.5-6.21 0-11.85-1.5-18.43-1.5h-8.28c-6.58 0-12.23 1.32-18.43 1.5-6.21 0-11.85-1.5-18.43-1.5h-8.46c-6.58 0-12.23 1.32-18.43 1.5-6.21 0-11.66-1.5-18.24-1.5h-8.84Z" data-name="ni-k" style="stroke-width:0;fill:url(#linear-gradient-4)"/><path id="ni-k-3" d="M379.93 516.25c-2.96 0-5.91.18-8.84.56l-.94 1.69c4.51-.56 8.84-1.32 13.54-1.32 6.02 0 11.66 1.5 18.24 1.5h8.65c6.58 0 12.04-1.5 18.24-1.5s11.85 1.5 18.43 1.5h8.65c6.58 0 12.04-1.5 18.24-1.5s11.85 1.5 18.43 1.5h8.46c6.58 0 12.23-1.5 18.43-1.5s11.85 1.5 18.43 1.5h8.46c6.58 0 12.23-1.5 18.43-1.5 4.89 0 9.4.94 14.11 1.32l-.94-1.88c-2.75-.29-5.51-.41-8.28-.38h-8.46c-6.58 0-12.23 1.32-18.43 1.5-6.21 0-11.85-1.5-18.43-1.5h-8.46c-6.58 0-12.23 1.32-18.43 1.5-6.21 0-11.85-1.5-18.43-1.5h-8.28c-6.58 0-12.23 1.32-18.43 1.5-6.21 0-11.85-1.5-18.43-1.5h-8.46c-6.58 0-12.23 1.32-18.43 1.5-6.21 0-11.66-1.5-18.24-1.5h-8.84Z" data-name="ni-k" style="stroke-width:0;fill:url(#linear-gradient-5)"/></g><g id="ni-n-2" data-name="ni-n"><path id="ni-k-4" d="M379.93 514.18c-2.96 0-5.91.18-8.84.56l-.94 1.69c4.51-.56 8.84-1.32 13.54-1.32 6.02 0 11.66 1.5 18.24 1.5h8.65c6.58 0 12.04-1.5 18.24-1.5s11.85 1.5 18.43 1.5h8.65c6.58 0 12.04-1.5 18.24-1.5s11.85 1.5 18.43 1.5h8.46c6.58 0 12.23-1.5 18.43-1.5s11.85 1.5 18.43 1.5h8.46c6.58 0 12.23-1.5 18.43-1.5 4.89 0 9.4.94 14.11 1.32l-.94-1.88c-2.75-.29-5.51-.41-8.28-.38h-8.46c-6.58 0-12.23 1.32-18.43 1.5-6.21 0-11.85-1.5-18.43-1.5h-8.46c-6.58 0-12.23 1.32-18.43 1.5-6.21 0-11.85-1.5-18.43-1.5h-8.28c-6.58 0-12.23 1.32-18.43 1.5-6.21 0-11.85-1.5-18.43-1.5h-8.46c-6.58 0-12.23 1.32-18.43 1.5-6.21 0-11.66-1.5-18.24-1.5h-8.84Z" data-name="ni-k" style="stroke-width:0;fill:url(#linear-gradient-6)"/><path id="ni-k-5" d="M379.93 512.11c-2.96 0-5.91.18-8.84.56l-.94 1.69c4.51-.56 8.84-1.32 13.54-1.32 6.02 0 11.66 1.5 18.24 1.5h8.65c6.58 0 12.04-1.5 18.24-1.5s11.85 1.5 18.43 1.5h8.65c6.58 0 12.04-1.5 18.24-1.5s11.85 1.5 18.43 1.5h8.46c6.58 0 12.23-1.5 18.43-1.5s11.85 1.5 18.43 1.5h8.46c6.58 0 12.23-1.5 18.43-1.5 4.89 0 9.4.94 14.11 1.32l-.94-1.88c-2.75-.29-5.51-.41-8.28-.38h-8.46c-6.58 0-12.23 1.32-18.43 1.5-6.21 0-11.85-1.5-18.43-1.5h-8.46c-6.58 0-12.23 1.32-18.43 1.5-6.21 0-11.85-1.5-18.43-1.5h-8.28c-6.58 0-12.23 1.32-18.43 1.5-6.21 0-11.85-1.5-18.43-1.5h-8.46c-6.58 0-12.23 1.32-18.43 1.5-6.21 0-11.66-1.5-18.24-1.5h-8.84Z" data-name="ni-k" style="stroke-width:0;fill:url(#linear-gradient-7)"/><path id="ni-k-6" d="M379.93 510.04c-2.96 0-5.91.18-8.84.56l-.94 1.69c4.51-.56 8.84-1.32 13.54-1.32 6.02 0 11.66 1.5 18.24 1.5h8.65c6.58 0 12.04-1.5 18.24-1.5s11.85 1.5 18.43 1.5h8.65c6.58 0 12.04-1.5 18.24-1.5s11.85 1.5 18.43 1.5h8.46c6.58 0 12.23-1.5 18.43-1.5s11.85 1.5 18.43 1.5h8.46c6.58 0 12.23-1.5 18.43-1.5 4.89 0 9.4.94 14.11 1.32l-.94-1.88c-2.75-.29-5.51-.41-8.28-.38h-8.46c-6.58 0-12.23 1.32-18.43 1.5-6.21 0-11.85-1.5-18.43-1.5h-8.46c-6.58 0-12.23 1.32-18.43 1.5-6.21 0-11.85-1.5-18.43-1.5h-8.28c-6.58 0-12.23 1.32-18.43 1.5-6.21 0-11.85-1.5-18.43-1.5h-8.46c-6.58 0-12.23 1.32-18.43 1.5-6.21 0-11.66-1.5-18.24-1.5h-8.84Z" data-name="ni-k" style="stroke-width:0;fill:url(#linear-gradient-8)"/></g><g id="ni-n-3" data-name="ni-n"><path id="ni-k-7" d="M379.93 507.78c-2.96 0-5.91.18-8.84.56l-.94 1.69c4.51-.56 8.84-1.32 13.54-1.32 6.02 0 11.66 1.5 18.24 1.5h8.65c6.58 0 12.04-1.5 18.24-1.5s11.85 1.5 18.43 1.5h8.65c6.58 0 12.04-1.5 18.24-1.5s11.85 1.5 18.43 1.5h8.46c6.58 0 12.23-1.5 18.43-1.5s11.85 1.5 18.43 1.5h8.46c6.58 0 12.23-1.5 18.43-1.5 4.89 0 9.4.94 14.11 1.32l-.94-1.88c-2.75-.29-5.51-.41-8.28-.38h-8.46c-6.58 0-12.23 1.32-18.43 1.5-6.21 0-11.85-1.5-18.43-1.5h-8.46c-6.58 0-12.23 1.32-18.43 1.5-6.21 0-11.85-1.5-18.43-1.5h-8.28c-6.58 0-12.23 1.32-18.43 1.5-6.21 0-11.85-1.5-18.43-1.5h-8.46c-6.58 0-12.23 1.32-18.43 1.5-6.21 0-11.66-1.5-18.24-1.5h-8.84Z" data-name="ni-k" style="stroke-width:0;fill:url(#linear-gradient-9)"/><path id="ni-k-8" d="M379.93 505.71c-2.96 0-5.91.18-8.84.56l-.94 1.69c4.51-.56 8.84-1.32 13.54-1.32 6.02 0 11.66 1.5 18.24 1.5h8.65c6.58 0 12.04-1.5 18.24-1.5s11.85 1.5 18.43 1.5h8.65c6.58 0 12.04-1.5 18.24-1.5s11.85 1.5 18.43 1.5h8.46c6.58 0 12.23-1.5 18.43-1.5s11.85 1.5 18.43 1.5h8.46c6.58 0 12.23-1.5 18.43-1.5 4.89 0 9.4.94 14.11 1.32l-.94-1.88c-2.75-.29-5.51-.41-8.28-.38h-8.46c-6.58 0-12.23 1.32-18.43 1.5-6.21 0-11.85-1.5-18.43-1.5h-8.46c-6.58 0-12.23 1.32-18.43 1.5-6.21 0-11.85-1.5-18.43-1.5h-8.28c-6.58 0-12.23 1.32-18.43 1.5-6.21 0-11.85-1.5-18.43-1.5h-8.46c-6.58 0-12.23 1.32-18.43 1.5-6.21 0-11.66-1.5-18.24-1.5h-8.84Z" data-name="ni-k" style="stroke-width:0;fill:url(#linear-gradient-10)"/><path id="ni-k-9" d="M379.93 503.65c-2.96 0-5.91.18-8.84.56l-.94 1.69c4.51-.56 8.84-1.32 13.54-1.32 6.02 0 11.66 1.5 18.24 1.5h8.65c6.58 0 12.04-1.5 18.24-1.5s11.85 1.5 18.43 1.5h8.65c6.58 0 12.04-1.5 18.24-1.5s11.85 1.5 18.43 1.5h8.46c6.58 0 12.23-1.5 18.43-1.5s11.85 1.5 18.43 1.5h8.46c6.58 0 12.23-1.5 18.43-1.5 4.89 0 9.4.94 14.11 1.32l-.94-1.88c-2.75-.29-5.51-.41-8.28-.38h-8.46c-6.58 0-12.23 1.32-18.43 1.5-6.21 0-11.85-1.5-18.43-1.5h-8.46c-6.58 0-12.23 1.32-18.43 1.5-6.21 0-11.85-1.5-18.43-1.5h-8.28c-6.58 0-12.23 1.32-18.43 1.5-6.21 0-11.85-1.5-18.43-1.5h-8.46c-6.58 0-12.23 1.32-18.43 1.5-6.21 0-11.66-1.5-18.24-1.5h-8.84Z" data-name="ni-k" style="stroke-width:0;fill:url(#linear-gradient-11)"/></g><path id="path119" d="M386.51 494.24v.38h176.23l-.19-.38zm-.37.57-.19.56h176.98l-.19-.56h-176.8.19Zm-.38.75-.38.56h178.3l-.38-.56H385.75Zm-.56.94-.56.94h179.81l-.56-.94H385.21Zm-.75 1.32-.56.94H565.2l-.56-.94H384.46Zm-.76 1.31-.38.75h182.44l-.38-.75H383.68Zm-.75 1.32-.38.75h184.13l-.56-.75zm-.75 1.31-.56 1.13h185.82l-.56-1.13z" style="fill:url(#linear-gradient-12);stroke-width:0"/><path id="path120" d="M394.41 503.27c6.39 1.32 6.96 0 6.96 0zm153.29 0s.56 1.32 6.96 0z" style="stroke-width:0;fill:url(#linear-gradient-13)"/></g><g id="g149"><g id="ni-t"><path id="path121" d="M532.09 474.49c-3.2 0-4.14 1.69-4.14 1.69-5.08 19.94-22.19 40.06-42.51 40.06h-15.05v20.31h115.48l-11.66-20.69c-18.24-2.63-33.1-21.25-37.8-39.69 0 0-1.13-1.69-4.33-1.69" style="stroke-width:0;fill:url(#linear-gradient-14)"/><path id="path122" d="M532.09 475.43c-1.5 0-2.26.19-2.82.56l-.56.56c-2.82 10.41-8.26 19.93-15.8 27.65-7.52 7.71-16.93 12.98-27.46 12.98h-14.48v18.62h114.54l-10.72-18.81c-8.84-1.32-16.93-6.02-23.32-12.79-7.54-7.72-12.98-17.23-15.8-27.65l-.56-.56c-.93-.48-1.97-.68-3.01-.56" class="cls-44"/><path id="path123" d="M532.09 475.43h.75v20.31c-.18 4.27-1.48 8.42-3.76 12.04-.94 3.01-1.88 1.88-4.33 5.45-3.17 1.09-6.45 1.85-9.78 2.26-4.7.75-15.05 1.5-20.5.19 7-2.14 13.34-6.02 18.43-11.28 1.4-1.5 2.72-3.07 3.95-4.7q3.15-3.915 5.64-8.28l1.88-3.76c.9-1.78 1.72-3.6 2.45-5.45s1.35-3.73 1.88-5.64l.56-.56 1.13-.38 1.69-.19Z" class="cls-43"/><path id="path124" d="M530.96 478.07c-.94 11.28-4.33 24.83-12.6 33.48-3.01 2.45-6.96 4.89-10.53 4.33 12.6-10.34 20.31-26.33 22.95-37.8h.19Z" class="cls-64"/><path id="path125" d="M520.62 497.63c-1.88 5.08-9.03 12.6-16.55 18.81h-5.45c4.7-.38 15.61-9.4 22.01-18.81" class="cls-37"/></g><g id="ni-t-2" data-name="ni-t"><path id="path126" d="M503.31 474.49c-3.2 0-4.14 1.69-4.14 1.69-5.08 19.94-22.19 40.06-42.51 40.06h-15.05v20.31h115.48l-11.66-20.69c-18.24-2.63-33.1-21.25-37.8-39.69 0 0-1.13-1.69-4.33-1.69" style="stroke-width:0;fill:url(#linear-gradient-15)"/><path id="path127" d="M503.31 475.43c-1.5 0-2.26.19-2.82.56l-.56.56c-2.82 10.41-8.26 19.93-15.8 27.65-7.52 7.71-16.93 12.98-27.46 12.98h-14.48v18.62h114.54l-10.72-18.81c-8.84-1.32-16.93-6.02-23.32-12.79-7.54-7.72-12.98-17.23-15.8-27.65l-.56-.56c-.93-.48-1.97-.68-3.01-.56" class="cls-44"/><path id="path128" d="M503.31 475.43h.75v20.31c-.18 4.27-1.48 8.42-3.76 12.04-.94 3.01-1.88 1.88-4.33 5.45-3.17 1.09-6.45 1.85-9.78 2.26-4.7.75-15.05 1.5-20.5.19 7-2.14 13.34-6.02 18.43-11.28 1.4-1.5 2.72-3.07 3.95-4.7q3.15-3.915 5.64-8.28l1.88-3.76c.9-1.78 1.72-3.6 2.45-5.45s1.35-3.73 1.88-5.64l.56-.56 1.13-.38 1.69-.19Z" class="cls-43"/><path id="path129" d="M502.18 478.07c-.94 11.28-4.33 24.83-12.6 33.48-3.01 2.45-6.96 4.89-10.53 4.33 12.6-10.34 20.31-26.33 22.95-37.8h.19Z" class="cls-64"/><path id="path130" d="M491.84 497.63c-1.88 5.08-9.03 12.6-16.55 18.81h-5.45c4.7-.38 15.61-9.4 22.01-18.81" class="cls-37"/></g><g id="g137"><path id="path131" d="M478.67 476.37c5.27 19.75 22.19 39.87 42.51 39.87h15.23v20.31H412.65v-20.31h15.05c20.31 0 37.43-20.12 42.51-40.06 0 0 1.13-1.5 4.33-1.5s4.14 1.5 4.14 1.5v.19Z" style="stroke-width:0;fill:url(#linear-gradient-16)"/><path id="path132" d="M474.54 475.43c1.5 0 2.26.38 2.82.56l.56.56c2.82 10.41 8.26 19.93 15.8 27.65 7.52 7.71 16.93 12.98 27.46 12.98h14.48v18.62H413.41v-18.81h14.48c10.34 0 19.94-5.08 27.46-12.79 7.47-7.74 12.84-17.25 15.61-27.65l.56-.56c.93-.46 1.97-.66 3.01-.56" class="cls-44"/><path id="path133" d="M473.22 475.43c-.19 0-.38 0-.56 0l-1.13.56-.56.56c-.52 1.91-1.15 3.8-1.88 5.64-.66 1.92-1.42 3.8-2.26 5.64-.59 1.21-1.22 2.4-1.88 3.57-1.66 2.9-3.55 5.67-5.64 8.28-1.24 1.57-2.56 3.08-3.95 4.51-5.07 5.33-11.41 9.28-18.43 11.47 5.27 1.32 7.52 0 12.23-.75 3.76-.56 7.9-1.13 11.28-2.26 2.82-3.76 1.88-2.45 2.82-5.45 2.26-4.14 5.64-7.9 6.39-12.6 3.01-5.64 3.57-16.17 3.57-19.18" class="cls-43"/><path id="path134" d="M473.22 478.07c-.75 11.28-4.33 24.83-12.6 33.48-3.01 2.45-6.77 4.89-10.53 4.33 12.79-10.34 20.5-26.33 23.13-37.8" class="cls-64"/><path id="path135" d="M462.88 497.63c-4.09 7.39-9.74 13.81-16.55 18.81h-5.27c4.7-.38 15.42-9.4 21.82-18.81" class="cls-37"/><path id="path136" d="m476.42 475.62.94.38.75.56c.53 1.91 1.16 3.79 1.88 5.64.66 1.92 1.41 3.8 2.26 5.64l1.88 3.57c1.66 2.9 3.55 5.67 5.64 8.28 1.24 1.57 2.56 3.08 3.95 4.51 5.04 5.54 11.37 9.74 18.43 12.23-13.73 0-19.56-1.13-24.45-7.52-3.56-3.76-6.25-8.26-7.9-13.17-.94-3.76-3.76-12.23-3.57-20.12z" class="cls-43"/><path id="path137" d="M477.36 478.07c.75 11.28 4.14 22.57 12.41 31.22 3.01 2.63 6.77 4.89 10.53 4.33-11.82-8.57-20-21.25-22.95-35.55" class="cls-64"/></g><g id="ni-w"><path id="path138" d="M445.95 474.49c-3.39 0-4.33 1.69-4.33 1.69-4.7 18.43-22.19 41.94-40.44 44.76l-9.03 15.61h92.16V515.3c-16.55-4.51-29.9-22.01-34.23-39.12 0 0-.94-1.5-4.33-1.5l.19-.19Z" style="stroke-width:0;fill:url(#linear-gradient-17)"/><path id="path139" d="M445.95 475.43c-1.5 0-2.45.38-3.01.56l-.56.56a81.5587 81.5587 0 0 1-15.23 28.21c-6.39 8.09-18.24 16.17-26.33 16.93l-8.09 14.11h90.28v-20.12c-6.79-2.24-12.93-6.12-17.87-11.28-7.57-7.77-13.01-17.36-15.8-27.84l-.56-.56c-.87-.44-1.85-.63-2.82-.56" class="cls-44"/><path id="path140" d="M443.32 478.07c-1.13 16.93-10.53 38.56-21.25 42.13-3.57 1.32-9.59 1.69-11.66 1.88 16.77-9.32 28.8-25.31 33.1-44.01z" class="cls-70"/><path id="path141" d="M445.95 475.43h-.94v20.31c0 4.33 1.69 7.9 3.76 12.04l.38.94c.94 2.07 1.5 2.82 4.33 5.08 8.08 5.76 17.96 8.43 27.84 7.52-2.07-1.69-4.33-3.2-6.39-4.51l8.46-.94c-6.97-2.28-13.25-6.29-18.24-11.66-.91-.91-1.79-1.85-2.63-2.82l-1.13-1.5c-2.23-2.66-4.24-5.49-6.02-8.46-.67-1.23-1.3-2.49-1.88-3.76-1.15-2.38-2.16-4.83-3.01-7.34-.42-1.24-.79-2.5-1.13-3.76l-.56-.56c-.36-.18-.74-.31-1.13-.38-.62-.15-1.25-.21-1.88-.19h.19Z" class="cls-43"/><path id="path142" d="M447.08 478.07c.94 11.28 4.33 24.83 12.6 33.48 3.01 2.45 6.77 4.89 10.53 4.33a72.3934 72.3934 0 0 1-23.13-37.8" style="stroke-width:0;fill:#ccd11e"/><path id="path143" d="M454.98 493.87c6.09 11.92 15.67 21.69 27.46 28.02h4.7c-8.28-4.51-21.63-10.91-31.97-28.21z" class="cls-37"/></g><g id="ni-w-2" data-name="ni-w"><path id="path144" d="M416.98 474.49c-3.39 0-4.33 1.69-4.33 1.69-4.7 18.43-22.19 41.94-40.44 44.76l-9.03 15.61h92.16V515.3c-16.55-4.51-29.9-22.01-34.23-39.12 0 0-.94-1.5-4.33-1.5l.19-.19Z" style="stroke-width:0;fill:url(#linear-gradient-18)"/><path id="path145" d="M416.98 475.43c-1.5 0-2.45.38-3.01.56l-.56.56a81.5587 81.5587 0 0 1-15.23 28.21c-6.39 8.09-18.24 16.17-26.33 16.93l-8.09 14.11h90.28v-20.12c-6.79-2.24-12.93-6.12-17.87-11.28-7.57-7.77-13.01-17.36-15.8-27.84l-.56-.56c-.87-.44-1.85-.63-2.82-.56" class="cls-44"/><path id="path146" d="M414.35 478.07c-1.13 16.93-10.53 38.56-21.25 42.13-3.57 1.32-9.59 1.69-11.66 1.88 16.77-9.32 28.8-25.31 33.1-44.01z" class="cls-70"/><path id="path147" d="M416.98 475.43h-.94v20.31c0 4.33 1.69 7.9 3.76 12.04l.38.94c.94 2.07 1.5 2.82 4.33 5.08 8.08 5.76 17.96 8.43 27.84 7.52-2.07-1.69-4.33-3.2-6.39-4.51l8.46-.94c-6.97-2.28-13.25-6.29-18.24-11.66-.91-.91-1.79-1.85-2.63-2.82l-1.13-1.5c-2.23-2.66-4.24-5.49-6.02-8.46-.67-1.23-1.3-2.49-1.88-3.76-1.15-2.38-2.16-4.83-3.01-7.34-.42-1.24-.79-2.5-1.13-3.76l-.56-.56c-.36-.18-.74-.31-1.13-.38-.62-.15-1.25-.21-1.88-.19h.19Z" class="cls-43"/><path id="path148" d="M418.11 478.07c.94 11.28 4.33 24.83 12.6 33.48 3.01 2.45 6.77 4.89 10.53 4.33a72.3934 72.3934 0 0 1-23.13-37.8" class="cls-64"/><path id="path149" d="M426.01 493.87c6.09 11.92 15.67 21.69 27.46 28.02h4.7c-8.28-4.51-21.63-10.91-31.97-28.21z" class="cls-37"/></g></g><path id="path150" d="M580.8 526.59c-1.13.38-8.28-.38-12.04 0l-2.45.56h-6.21c-6.77 0-12.6 1.88-19 1.88s-12.23-1.88-18.81-1.88h-6.39c-6.77 0-12.6 1.88-19 1.88s-12.23-1.88-18.81-1.88h-6.39c-6.77 0-12.6 1.88-18.81 1.88-6.58 0-12.23-1.88-19-1.88h-6.39c-6.77 0-12.41 1.88-18.81 1.88s-12.23-1.88-19-1.88h-6.39c-5.27 0-11.66 1.13-16.74 1.5l-11.85 20.5h239.62l-13.54-22.57Z" class="cls-57"/><path id="path151" d="M564.82 523.58h-1.13c-6.02.19-10.53 2.07-21.07 2.07s-11.66-1.88-23.7-1.5c-11.28 0-15.8 2.26-22.01 2.26s-15.8-1.32-23.51-.56c-7.52.75-16.55 2.45-22.57 2.45-7.34 0-14.67-1.32-22.19-.56-7.71.75-11.28 2.82-20.88 2.82-8.28 0-16.93-1.32-24.07-1.32-6.39 0-13.54 1.88-18.81 2.63l-1.69 2.82c4.33-.56 16.17-2.45 20.31-2.45 4.51 0 20.12.94 28.78.56 8.84-.19 9.78-2.26 20.12-2.26 7.15 0 12.41.75 19.75.75 4.7 0 8.84-2.26 15.8-2.26l5.27-.19c5.83-.94 15.8 0 22.57.38 6.21.38 10.34-1.13 16.93-1.32l8.28-.19c6.58-.38 12.04 1.13 18.24 1.13 6.02-.38 12.04-1.88 18.43-1.88l8.46-.38c4.33 0 11.1 0 15.61.94l-1.5-2.63c-4.51-.19-9.97-1.32-15.42-1.32" style="stroke-width:0;fill:url(#linear-gradient-19)"/><g id="ni-A"><path id="ni-z" d="M381.06 545.59c-6.39 0-12.04 1.5-18.06 1.69-2.27-.06-4.53-.25-6.77-.56l-.94 1.5h11.28c6.58 0 12.04-1.5 18.06-1.69 6.21.19 11.66 1.88 18.24 1.88h8.46c6.39 0 12.04-1.69 18.06-1.88 6.21.19 11.85 1.88 18.24 1.88h8.46c6.58 0 12.04-1.69 18.24-1.88 6.02.19 11.47 1.88 18.06 1.88h8.46c6.39 0 12.04-1.69 18.24-1.88 6.02.19 11.66 1.88 18.06 1.88h8.46c6.58 0 12.04-1.69 18.06-1.88 6.21.19 11.66 1.88 18.24 1.88h8.46l3.39-.19-.94-1.5c-1.88.19-3.95.56-6.02.56-6.21 0-11.66-1.88-18.24-1.88h-8.46c-6.39 0-12.04 1.88-18.06 1.88-6.21-.19-11.66-1.88-18.24-1.88h-8.46c-6.39 0-12.04 1.88-18.06 1.88-6.21-.19-11.66-1.88-18.24-1.88h-8.46c-6.58 0-12.04 1.88-18.06 1.88-6.21-.19-11.66-1.88-18.24-1.88h-8.46c-6.39 0-12.04 1.88-18.06 1.88-6.21-.19-11.66-1.88-18.24-1.88h-8.46z" style="stroke-width:0;fill:url(#linear-gradient-20)"/><path id="ni-z-2" d="M381.06 543.14c-6.39 0-12.04 1.5-18.06 1.69-2.27-.06-4.53-.25-6.77-.56l-.94 1.5h11.28c6.58 0 12.04-1.5 18.06-1.69 6.21.19 11.66 1.88 18.24 1.88h8.46c6.39 0 12.04-1.69 18.06-1.88 6.21.19 11.85 1.88 18.24 1.88h8.46c6.58 0 12.04-1.69 18.24-1.88 6.02.19 11.47 1.88 18.06 1.88h8.46c6.39 0 12.04-1.69 18.24-1.88 6.02.19 11.66 1.88 18.06 1.88h8.46c6.58 0 12.04-1.69 18.06-1.88 6.21.19 11.66 1.88 18.24 1.88h8.46l3.39-.19-.94-1.5c-1.88.19-3.95.56-6.02.56-6.21 0-11.66-1.88-18.24-1.88h-8.46c-6.39 0-12.04 1.88-18.06 1.88-6.21-.19-11.66-1.88-18.24-1.88h-8.46c-6.39 0-12.04 1.88-18.06 1.88-6.21-.19-11.66-1.88-18.24-1.88h-8.46c-6.58 0-12.04 1.88-18.06 1.88-6.21-.19-11.66-1.88-18.24-1.88h-8.46c-6.39 0-12.04 1.88-18.06 1.88-6.21-.19-11.66-1.88-18.24-1.88h-8.46z" data-name="ni-z" style="stroke-width:0;fill:url(#linear-gradient-21)"/><path id="ni-z-3" d="M381.06 540.7c-6.39 0-12.04 1.5-18.06 1.69-2.27-.06-4.53-.25-6.77-.56l-.94 1.5h11.28c6.58 0 12.04-1.5 18.06-1.69 6.21.19 11.66 1.88 18.24 1.88h8.46c6.39 0 12.04-1.69 18.06-1.88 6.21.19 11.85 1.88 18.24 1.88h8.46c6.58 0 12.04-1.69 18.24-1.88 6.02.19 11.47 1.88 18.06 1.88h8.46c6.39 0 12.04-1.69 18.24-1.88 6.02.19 11.66 1.88 18.06 1.88h8.46c6.58 0 12.04-1.69 18.06-1.88 6.21.19 11.66 1.88 18.24 1.88h8.46l3.39-.19-.94-1.5c-1.88.19-3.95.56-6.02.56-6.21 0-11.66-1.88-18.24-1.88h-8.46c-6.39 0-12.04 1.88-18.06 1.88-6.21-.19-11.66-1.88-18.24-1.88h-8.46c-6.39 0-12.04 1.88-18.06 1.88-6.21-.19-11.66-1.88-18.24-1.88h-8.46c-6.58 0-12.04 1.88-18.06 1.88-6.21-.19-11.66-1.88-18.24-1.88h-8.46c-6.39 0-12.04 1.88-18.06 1.88-6.21-.19-11.66-1.88-18.24-1.88h-8.46z" data-name="ni-z" style="stroke-width:0;fill:url(#linear-gradient-22)"/></g><g id="ni-A-2" data-name="ni-A"><path id="ni-z-4" d="M381.06 538.25c-6.39 0-12.04 1.5-18.06 1.69-2.27-.06-4.53-.25-6.77-.56l-.94 1.5h11.28c6.58 0 12.04-1.5 18.06-1.69 6.21.19 11.66 1.88 18.24 1.88h8.46c6.39 0 12.04-1.69 18.06-1.88 6.21.19 11.85 1.88 18.24 1.88h8.46c6.58 0 12.04-1.69 18.24-1.88 6.02.19 11.47 1.88 18.06 1.88h8.46c6.39 0 12.04-1.69 18.24-1.88 6.02.19 11.66 1.88 18.06 1.88h8.46c6.58 0 12.04-1.69 18.06-1.88 6.21.19 11.66 1.88 18.24 1.88h8.46l3.39-.19-.94-1.5c-1.88.19-3.95.56-6.02.56-6.21 0-11.66-1.88-18.24-1.88h-8.46c-6.39 0-12.04 1.88-18.06 1.88-6.21-.19-11.66-1.88-18.24-1.88h-8.46c-6.39 0-12.04 1.88-18.06 1.88-6.21-.19-11.66-1.88-18.24-1.88h-8.46c-6.58 0-12.04 1.88-18.06 1.88-6.21-.19-11.66-1.88-18.24-1.88h-8.46c-6.39 0-12.04 1.88-18.06 1.88-6.21-.19-11.66-1.88-18.24-1.88h-8.46z" data-name="ni-z" style="stroke-width:0;fill:url(#linear-gradient-23)"/><path id="ni-z-5" d="M381.06 535.81c-6.39 0-12.04 1.5-18.06 1.69-2.27-.06-4.53-.25-6.77-.56l-.94 1.5h11.28c6.58 0 12.04-1.5 18.06-1.69 6.21.19 11.66 1.88 18.24 1.88h8.46c6.39 0 12.04-1.69 18.06-1.88 6.21.19 11.85 1.88 18.24 1.88h8.46c6.58 0 12.04-1.69 18.24-1.88 6.02.19 11.47 1.88 18.06 1.88h8.46c6.39 0 12.04-1.69 18.24-1.88 6.02.19 11.66 1.88 18.06 1.88h8.46c6.58 0 12.04-1.69 18.06-1.88 6.21.19 11.66 1.88 18.24 1.88h8.46l3.39-.19-.94-1.5c-1.88.19-3.95.56-6.02.56-6.21 0-11.66-1.88-18.24-1.88h-8.46c-6.39 0-12.04 1.88-18.06 1.88-6.21-.19-11.66-1.88-18.24-1.88h-8.46c-6.39 0-12.04 1.88-18.06 1.88-6.21-.19-11.66-1.88-18.24-1.88h-8.46c-6.58 0-12.04 1.88-18.06 1.88-6.21-.19-11.66-1.88-18.24-1.88h-8.46c-6.39 0-12.04 1.88-18.06 1.88-6.21-.19-11.66-1.88-18.24-1.88h-8.46z" data-name="ni-z" style="stroke-width:0;fill:url(#linear-gradient-24)"/><path id="ni-z-6" d="M381.06 533.36c-6.39 0-12.04 1.5-18.06 1.69-2.27-.06-4.53-.25-6.77-.56l-.94 1.5h11.28c6.58 0 12.04-1.5 18.06-1.69 6.21.19 11.66 1.88 18.24 1.88h8.46c6.39 0 12.04-1.69 18.06-1.88 6.21.19 11.85 1.88 18.24 1.88h8.46c6.58 0 12.04-1.69 18.24-1.88 6.02.19 11.47 1.88 18.06 1.88h8.46c6.39 0 12.04-1.69 18.24-1.88 6.02.19 11.66 1.88 18.06 1.88h8.46c6.58 0 12.04-1.69 18.06-1.88 6.21.19 11.66 1.88 18.24 1.88h8.46l3.39-.19-.94-1.5c-1.88.19-3.95.56-6.02.56-6.21 0-11.66-1.88-18.24-1.88h-8.46c-6.39 0-12.04 1.88-18.06 1.88-6.21-.19-11.66-1.88-18.24-1.88h-8.46c-6.39 0-12.04 1.88-18.06 1.88-6.21-.19-11.66-1.88-18.24-1.88h-8.46c-6.58 0-12.04 1.88-18.06 1.88-6.21-.19-11.66-1.88-18.24-1.88h-8.46c-6.39 0-12.04 1.88-18.06 1.88-6.21-.19-11.66-1.88-18.24-1.88h-8.46z" data-name="ni-z" style="stroke-width:0;fill:url(#linear-gradient-25)"/></g><g id="ni-A-3" data-name="ni-A"><path id="ni-z-7" d="M381.06 531.11c-6.39 0-12.04 1.5-18.06 1.69-2.27-.06-4.53-.25-6.77-.56l-.94 1.5h11.28c6.58 0 12.04-1.5 18.06-1.69 6.21.19 11.66 1.88 18.24 1.88h8.46c6.39 0 12.04-1.69 18.06-1.88 6.21.19 11.85 1.88 18.24 1.88h8.46c6.58 0 12.04-1.69 18.24-1.88 6.02.19 11.47 1.88 18.06 1.88h8.46c6.39 0 12.04-1.69 18.24-1.88 6.02.19 11.66 1.88 18.06 1.88h8.46c6.58 0 12.04-1.69 18.06-1.88 6.21.19 11.66 1.88 18.24 1.88h8.46l3.39-.19-.94-1.5c-1.88.19-3.95.56-6.02.56-6.21 0-11.66-1.88-18.24-1.88h-8.46c-6.39 0-12.04 1.88-18.06 1.88-6.21-.19-11.66-1.88-18.24-1.88h-8.46c-6.39 0-12.04 1.88-18.06 1.88-6.21-.19-11.66-1.88-18.24-1.88h-8.46c-6.58 0-12.04 1.88-18.06 1.88-6.21-.19-11.66-1.88-18.24-1.88h-8.46c-6.39 0-12.04 1.88-18.06 1.88-6.21-.19-11.66-1.88-18.24-1.88h-8.46z" data-name="ni-z" style="stroke-width:0;fill:url(#linear-gradient-26)"/><path id="ni-z-8" d="M381.06 528.66c-6.39 0-12.04 1.5-18.06 1.69-2.27-.06-4.53-.25-6.77-.56l-.94 1.5h11.28c6.58 0 12.04-1.5 18.06-1.69 6.21.19 11.66 1.88 18.24 1.88h8.46c6.39 0 12.04-1.69 18.06-1.88 6.21.19 11.85 1.88 18.24 1.88h8.46c6.58 0 12.04-1.69 18.24-1.88 6.02.19 11.47 1.88 18.06 1.88h8.46c6.39 0 12.04-1.69 18.24-1.88 6.02.19 11.66 1.88 18.06 1.88h8.46c6.58 0 12.04-1.69 18.06-1.88 6.21.19 11.66 1.88 18.24 1.88h8.46l3.39-.19-.94-1.5c-1.88.19-3.95.56-6.02.56-6.21 0-11.66-1.88-18.24-1.88h-8.46c-6.39 0-12.04 1.88-18.06 1.88-6.21-.19-11.66-1.88-18.24-1.88h-8.46c-6.39 0-12.04 1.88-18.06 1.88-6.21-.19-11.66-1.88-18.24-1.88h-8.46c-6.58 0-12.04 1.88-18.06 1.88-6.21-.19-11.66-1.88-18.24-1.88h-8.46c-6.39 0-12.04 1.88-18.06 1.88-6.21-.19-11.66-1.88-18.24-1.88h-8.46z" data-name="ni-z" style="stroke-width:0;fill:url(#linear-gradient-27)"/><path id="ni-z-9" d="M381.06 526.22c-6.39 0-12.04 1.5-18.06 1.69-2.27-.06-4.53-.25-6.77-.56l-.94 1.5h11.28c6.58 0 12.04-1.5 18.06-1.69 6.21.19 11.66 1.88 18.24 1.88h8.46c6.39 0 12.04-1.69 18.06-1.88 6.21.19 11.85 1.88 18.24 1.88h8.46c6.58 0 12.04-1.69 18.24-1.88 6.02.19 11.47 1.88 18.06 1.88h8.46c6.39 0 12.04-1.69 18.24-1.88 6.02.19 11.66 1.88 18.06 1.88h8.46c6.58 0 12.04-1.69 18.06-1.88 6.21.19 11.66 1.88 18.24 1.88h8.46l3.39-.19-.94-1.5c-1.88.19-3.95.56-6.02.56-6.21 0-11.66-1.88-18.24-1.88h-8.46c-6.39 0-12.04 1.88-18.06 1.88-6.21-.19-11.66-1.88-18.24-1.88h-8.46c-6.39 0-12.04 1.88-18.06 1.88-6.21-.19-11.66-1.88-18.24-1.88h-8.46c-6.58 0-12.04 1.88-18.06 1.88-6.21-.19-11.66-1.88-18.24-1.88h-8.46c-6.39 0-12.04 1.88-18.06 1.88-6.21-.19-11.66-1.88-18.24-1.88h-8.46z" data-name="ni-z" style="stroke-width:0;fill:url(#linear-gradient-28)"/></g><path id="path152" d="m369.02 526.59-4.7 7.9c5.45-.94 13.35-3.2 20.12-3.2s15.05 1.69 23.32 1.88c9.4 0 13.17-2.26 20.69-3.01 7.71-.75 15.05.94 22.57 1.13 5.83 0 14.86-2.07 22.57-2.82 7.52-.94 14.48.56 23.51.56 9.22.19 10.72-2.26 21.82-2.45 12.04-.19 13.17 1.69 23.7 1.69 7.9.38 14.86-1.69 22.01-2.07 7.15-.56 10.34 0 15.61 0l-3.57-6.02-190.53 4.33-17.12 2.07Z" class="cls-44"/><path id="path153" d="m568.58 526.4 7.52.56c1.82.22 3.63.41 5.45.56l-.75-.94c-1.13.38-8.28-.38-12.04 0l-.19-.19Z" class="cls-57"/></g></g><path id="path154" d="m474.61 338.86-60.39 104.69-61.71 107.12h244.21l-60.39-104.69-61.71-107.12Zm0 5.51 59.51 102.93 57.97 100.51H357.36l59.29-102.71 57.97-100.73Z" class="cls-61"/></g></svg>