<?xml version="1.0" encoding="UTF-8" standalone="no"?>
<svg
   id="Layer_1"
   data-name="Layer 1"
   viewBox="0 0 960 960"
   version="1.1"
   sodipodi:docname="ni.svg"
   inkscape:version="1.4 (86a8ad7, 2024-10-11)"
   xmlns:inkscape="http://www.inkscape.org/namespaces/inkscape"
   xmlns:sodipodi="http://sodipodi.sourceforge.net/DTD/sodipodi-0.dtd"
   xmlns:xlink="http://www.w3.org/1999/xlink"
   xmlns="http://www.w3.org/2000/svg"
   xmlns:svg="http://www.w3.org/2000/svg">
  <sodipodi:namedview
     id="namedview155"
     pagecolor="#ffffff"
     bordercolor="#666666"
     borderopacity="1.0"
     inkscape:showpageshadow="2"
     inkscape:pageopacity="0.0"
     inkscape:pagecheckerboard="0"
     inkscape:deskcolor="#d1d1d1"
     inkscape:zoom="0.42447917"
     inkscape:cx="405.20245"
     inkscape:cy="396.95706"
     inkscape:window-width="1920"
     inkscape:window-height="1017"
     inkscape:window-x="-8"
     inkscape:window-y="-8"
     inkscape:window-maximized="1"
     inkscape:current-layer="Layer_1" />
  <defs
     id="defs10">
    <style
       id="style1">
      .cls-1 {
        stroke-miterlimit: 3.41;
        stroke-width: .09px;
      }

      .cls-1, .cls-2, .cls-3, .cls-4, .cls-5, .cls-6, .cls-7, .cls-8, .cls-9, .cls-10, .cls-11, .cls-12, .cls-13, .cls-14, .cls-15, .cls-16, .cls-17, .cls-18, .cls-19, .cls-20, .cls-21, .cls-22, .cls-23, .cls-24, .cls-25, .cls-26, .cls-27, .cls-28, .cls-29, .cls-30, .cls-31, .cls-32, .cls-33 {
        fill: #17c0eb;
        isolation: isolate;
        opacity: .6;
        stroke: #17c0eb;
      }

      .cls-2 {
        stroke-miterlimit: 3.41;
        stroke-width: .09px;
      }

      .cls-34 {
        fill: url(#linear-gradient-12);
      }

      .cls-34, .cls-35, .cls-36, .cls-37, .cls-38, .cls-39, .cls-40, .cls-41, .cls-42, .cls-43, .cls-44, .cls-45, .cls-46, .cls-47, .cls-48, .cls-49, .cls-50, .cls-51, .cls-52, .cls-53, .cls-54, .cls-55, .cls-56, .cls-57, .cls-58, .cls-59, .cls-60, .cls-61, .cls-62, .cls-63, .cls-64, .cls-65, .cls-66, .cls-67, .cls-68, .cls-69, .cls-70, .cls-71, .cls-72, .cls-73, .cls-74, .cls-75, .cls-76, .cls-77, .cls-78, .cls-79, .cls-80, .cls-81, .cls-82, .cls-83 {
        stroke-width: 0px;
      }

      .cls-35 {
        fill: #910000;
      }

      .cls-36 {
        fill: url(#linear-gradient-17);
      }

      .cls-37 {
        fill: #9ecb34;
      }

      .cls-3 {
        stroke-miterlimit: 3.41;
        stroke-width: .09px;
      }

      .cls-38 {
        fill: url(#linear-gradient-19);
      }

      .cls-4 {
        stroke-miterlimit: 3.41;
        stroke-width: .09px;
      }

      .cls-39 {
        fill: url(#linear-gradient);
      }

      .cls-5 {
        stroke-miterlimit: 3.41;
        stroke-width: .09px;
      }

      .cls-6 {
        stroke-miterlimit: 3.41;
        stroke-width: .09px;
      }

      .cls-40 {
        fill: url(#linear-gradient-21);
      }

      .cls-41 {
        fill: #0067c6;
      }

      .cls-42 {
        fill: url(#linear-gradient-6);
      }

      .cls-43 {
        fill: #ede71f;
      }

      .cls-44 {
        fill: #97c924;
      }

      .cls-45 {
        fill: url(#linear-gradient-15);
      }

      .cls-46 {
        fill: url(#linear-gradient-11);
      }

      .cls-47 {
        fill: #ccd11e;
      }

      .cls-48 {
        fill: url(#linear-gradient-5);
      }

      .cls-49 {
        fill: #ff0;
      }

      .cls-50 {
        fill: red;
      }

      .cls-51 {
        fill: none;
      }

      .cls-7 {
        stroke-miterlimit: 3.41;
      }

      .cls-7, .cls-13 {
        stroke-width: .09px;
      }

      .cls-8 {
        stroke-miterlimit: 3.41;
        stroke-width: .09px;
      }

      .cls-52 {
        fill: url(#linear-gradient-13);
      }

      .cls-53 {
        fill: url(#linear-gradient-23);
      }

      .cls-9 {
        stroke-miterlimit: 3.41;
        stroke-width: .09px;
      }

      .cls-54 {
        fill: url(#linear-gradient-25);
      }

      .cls-10 {
        stroke-miterlimit: 3.41;
        stroke-width: .09px;
      }

      .cls-55 {
        fill: url(#linear-gradient-16);
      }

      .cls-56 {
        fill: url(#linear-gradient-22);
      }

      .cls-57 {
        fill: #fff;
      }

      .cls-58 {
        fill: url(#linear-gradient-20);
      }

      .cls-59 {
        fill: url(#linear-gradient-14);
      }

      .cls-60 {
        fill: url(#linear-gradient-2);
      }

      .cls-11 {
        stroke-miterlimit: 3.41;
        stroke-width: .09px;
      }

      .cls-61 {
        fill: #c8a400;
      }

      .cls-62 {
        fill: #f60;
      }

      .cls-12 {
        stroke-miterlimit: 3.41;
        stroke-width: .09px;
      }

      .cls-63 {
        fill: purple;
      }

      .cls-13 {
        stroke-miterlimit: 3.41;
      }

      .cls-64 {
        fill: #c6cb24;
      }

      .cls-14 {
        stroke-miterlimit: 3.41;
        stroke-width: .09px;
      }

      .cls-65 {
        fill: url(#linear-gradient-7);
      }

      .cls-66 {
        fill: url(#linear-gradient-3);
      }

      .cls-15 {
        stroke-miterlimit: 3.41;
        stroke-width: .09px;
      }

      .cls-67 {
        fill: #eee;
      }

      .cls-16 {
        stroke-miterlimit: 3.41;
        stroke-width: .09px;
      }

      .cls-17 {
        stroke-miterlimit: 3.41;
        stroke-width: .09px;
      }

      .cls-84 {
        clip-path: url(#clippath);
      }

      .cls-68 {
        fill: url(#linear-gradient-9);
      }

      .cls-69 {
        fill: url(#linear-gradient-27);
      }

      .cls-70 {
        fill: #93bc30;
      }

      .cls-71 {
        fill: #510000;
      }

      .cls-18 {
        stroke-miterlimit: 3.41;
        stroke-width: .09px;
      }

      .cls-19 {
        stroke-miterlimit: 3.41;
        stroke-width: .09px;
      }

      .cls-72 {
        fill: #ff3a3a;
      }

      .cls-20 {
        stroke-miterlimit: 3.41;
        stroke-width: .09px;
      }

      .cls-21 {
        stroke-miterlimit: 3.41;
        stroke-width: .09px;
      }

      .cls-73 {
        fill: url(#linear-gradient-8);
      }

      .cls-74 {
        fill: url(#linear-gradient-24);
      }

      .cls-75 {
        fill: url(#linear-gradient-26);
      }

      .cls-22 {
        stroke-miterlimit: 3.41;
        stroke-width: .09px;
      }

      .cls-76 {
        fill: url(#linear-gradient-18);
      }

      .cls-23 {
        stroke-miterlimit: 3.41;
        stroke-width: .09px;
      }

      .cls-85 {
        mask: url(#mask);
      }

      .cls-24 {
        stroke-miterlimit: 3.41;
        stroke-width: .09px;
      }

      .cls-25 {
        stroke-miterlimit: 3.41;
        stroke-width: .09px;
      }

      .cls-26 {
        stroke-miterlimit: 3.41;
        stroke-width: .09px;
      }

      .cls-77 {
        fill: url(#linear-gradient-28);
      }

      .cls-78 {
        fill: url(#linear-gradient-10);
      }

      .cls-27 {
        stroke-miterlimit: 3.41;
        stroke-width: .09px;
      }

      .cls-79 {
        fill: lime;
      }

      .cls-80 {
        fill: #0cf;
      }

      .cls-28 {
        stroke-miterlimit: 3.41;
        stroke-width: .09px;
      }

      .cls-81 {
        fill: blue;
      }

      .cls-29 {
        stroke-miterlimit: 3.41;
        stroke-width: .09px;
      }

      .cls-30 {
        stroke-miterlimit: 3.41;
        stroke-width: .09px;
      }

      .cls-82 {
        fill: url(#linear-gradient-4);
      }

      .cls-31 {
        stroke-miterlimit: 3.41;
        stroke-width: .09px;
      }

      .cls-32 {
        stroke-miterlimit: 3.41;
        stroke-width: .09px;
      }

      .cls-83 {
        fill: #ff2a2a;
      }

      .cls-33 {
        stroke-miterlimit: 3.41;
        stroke-width: .09px;
      }
    </style>
    <mask
       id="mask"
       x="-.14"
       y=".09"
       width="959.91"
       height="959.91"
       maskUnits="userSpaceOnUse">
      <g
         id="a">
        <circle
           class="cls-57"
           cx="479.81"
           cy="480.04"
           r="479.96"
           id="circle1" />
      </g>
    </mask>
    <clipPath
       id="clippath">
      <polygon
         class="cls-51"
         points="474.54 341.71 354.73 549.16 594.34 549.16 474.54 341.71"
         id="polygon1" />
    </clipPath>
    <linearGradient
       id="linear-gradient"
       x1="754.71"
       y1="443.62"
       x2="758.9"
       y2="456.19"
       gradientTransform="translate(-170.55 838.65) scale(.85 -.85)"
       gradientUnits="userSpaceOnUse">
      <stop
         offset="0"
         stop-color="#510000"
         id="stop1" />
      <stop
         offset=".3"
         stop-color="#8a0000"
         id="stop2" />
      <stop
         offset="1"
         stop-color="#a00"
         id="stop3" />
    </linearGradient>
    <linearGradient
       id="linear-gradient-2"
       x1="754.51"
       y1="440.8"
       x2="757.81"
       y2="449.61"
       gradientTransform="translate(-170.55 838.65) scale(.85 -.85)"
       gradientUnits="userSpaceOnUse">
      <stop
         offset="0"
         stop-color="#ff2a2a"
         id="stop4" />
      <stop
         offset="1"
         stop-color="red"
         id="stop5" />
    </linearGradient>
    <linearGradient
       id="linear-gradient-3"
       x1="633.64"
       y1="371.54"
       x2="1052.2"
       y2="371.54"
       gradientTransform="translate(-170.55 838.65) scale(.85 -.85)"
       gradientUnits="userSpaceOnUse">
      <stop
         offset="0"
         stop-color="#025"
         id="stop6" />
      <stop
         offset=".5"
         stop-color="#04a"
         id="stop7" />
      <stop
         offset="1"
         stop-color="#025"
         id="stop8" />
    </linearGradient>
    <linearGradient
       id="linear-gradient-4"
       y1="372.86"
       y2="372.86"
       gradientTransform="translate(-170.55 837.71) scale(.85 -.85)"
       xlink:href="#linear-gradient-3" />
    <linearGradient
       id="linear-gradient-5"
       y1="374.19"
       y2="374.19"
       gradientTransform="translate(-170.55 836.77) scale(.85 -.85)"
       xlink:href="#linear-gradient-3" />
    <linearGradient
       id="linear-gradient-6"
       y1="375.51"
       y2="375.51"
       gradientTransform="translate(-170.55 835.83) scale(.85 -.85)"
       xlink:href="#linear-gradient-3" />
    <linearGradient
       id="linear-gradient-7"
       y1="376.84"
       y2="376.84"
       gradientTransform="translate(-170.55 834.9) scale(.85 -.85)"
       xlink:href="#linear-gradient-3" />
    <linearGradient
       id="linear-gradient-8"
       y1="378.16"
       y2="378.16"
       gradientTransform="translate(-170.55 833.96) scale(.85 -.85)"
       xlink:href="#linear-gradient-3" />
    <linearGradient
       id="linear-gradient-9"
       y1="379.61"
       y2="379.61"
       gradientTransform="translate(-170.55 832.93) scale(.85 -.85)"
       xlink:href="#linear-gradient-3" />
    <linearGradient
       id="linear-gradient-10"
       y1="380.93"
       y2="380.93"
       gradientTransform="translate(-170.55 831.99) scale(.85 -.85)"
       xlink:href="#linear-gradient-3" />
    <linearGradient
       id="linear-gradient-11"
       y1="382.26"
       y2="382.26"
       gradientTransform="translate(-170.55 831.06) scale(.85 -.85)"
       xlink:href="#linear-gradient-3" />
    <linearGradient
       id="linear-gradient-12"
       x1="633.64"
       y1="398.54"
       x2="1052.2"
       y2="398.54"
       xlink:href="#linear-gradient-3" />
    <linearGradient
       id="linear-gradient-13"
       x1="633.64"
       y1="392.68"
       x2="1052.2"
       y2="392.68"
       xlink:href="#linear-gradient-3" />
    <linearGradient
       id="linear-gradient-14"
       x1="818.78"
       y1="394.35"
       x2="818.78"
       y2="381.34"
       gradientTransform="translate(-170.55 838.65) scale(.85 -.85)"
       gradientUnits="userSpaceOnUse">
      <stop
         offset="0"
         stop-color="#f5f549"
         id="stop9" />
      <stop
         offset="1"
         stop-color="#97c924"
         id="stop10" />
    </linearGradient>
    <linearGradient
       id="linear-gradient-15"
       x1="800.36"
       x2="800.36"
       gradientTransform="translate(-183.61 838.65) scale(.85 -.85)"
       xlink:href="#linear-gradient-14" />
    <linearGradient
       id="linear-gradient-16"
       x1="755.97"
       y1="394.35"
       x2="755.97"
       y2="381.34"
       xlink:href="#linear-gradient-14" />
    <linearGradient
       id="linear-gradient-17"
       x1="713.43"
       y1="394.35"
       x2="713.43"
       y2="381.34"
       xlink:href="#linear-gradient-14" />
    <linearGradient
       id="linear-gradient-18"
       x1="694.89"
       y1="394.35"
       x2="694.89"
       y2="381.34"
       gradientTransform="translate(-183.69 838.65) scale(.85 -.85)"
       xlink:href="#linear-gradient-14" />
    <linearGradient
       id="linear-gradient-19"
       x1="141.11"
       y1="-1290.75"
       x2="198.64"
       y2="-1290.75"
       gradientTransform="translate(-173.5 282.01) scale(3.8 -.19)"
       xlink:href="#linear-gradient-3" />
    <linearGradient
       id="linear-gradient-20"
       x1="68.54"
       y1="-3712.91"
       x2="98.95"
       y2="-3712.91"
       gradientTransform="translate(-177.49 199.65) scale(7.79 -.09)"
       xlink:href="#linear-gradient-3" />
    <linearGradient
       id="linear-gradient-21"
       x1="68.54"
       y1="-3698.63"
       x2="98.95"
       y2="-3698.63"
       gradientTransform="translate(-177.49 198.55) scale(7.79 -.09)"
       xlink:href="#linear-gradient-3" />
    <linearGradient
       id="linear-gradient-22"
       x1="68.54"
       y1="-3684.35"
       x2="98.95"
       y2="-3684.35"
       gradientTransform="translate(-177.49 197.44) scale(7.79 -.09)"
       xlink:href="#linear-gradient-3" />
    <linearGradient
       id="linear-gradient-23"
       x1="68.54"
       y1="-3670.06"
       x2="98.95"
       y2="-3670.06"
       gradientTransform="translate(-177.49 196.33) scale(7.79 -.09)"
       xlink:href="#linear-gradient-3" />
    <linearGradient
       id="linear-gradient-24"
       x1="68.54"
       y1="-3655.78"
       x2="98.95"
       y2="-3655.78"
       gradientTransform="translate(-177.49 195.22) scale(7.79 -.09)"
       xlink:href="#linear-gradient-3" />
    <linearGradient
       id="linear-gradient-25"
       x1="68.54"
       y1="-3641.5"
       x2="98.95"
       y2="-3641.5"
       gradientTransform="translate(-177.49 194.11) scale(7.79 -.09)"
       xlink:href="#linear-gradient-3" />
    <linearGradient
       id="linear-gradient-26"
       x1="68.54"
       y1="-3628.32"
       x2="98.95"
       y2="-3628.32"
       gradientTransform="translate(-177.49 193.08) scale(7.79 -.09)"
       xlink:href="#linear-gradient-3" />
    <linearGradient
       id="linear-gradient-27"
       x1="68.54"
       y1="-3614.03"
       x2="98.95"
       y2="-3614.03"
       gradientTransform="translate(-177.49 191.97) scale(7.79 -.09)"
       xlink:href="#linear-gradient-3" />
    <linearGradient
       id="linear-gradient-28"
       x1="68.54"
       y1="-3599.75"
       x2="98.95"
       y2="-3599.75"
       gradientTransform="translate(-177.49 190.87) scale(7.79 -.09)"
       xlink:href="#linear-gradient-3" />
  </defs>
  <g
     class="cls-85"
     mask="url(#mask)"
     id="g12">
    <g
       id="g11">
      <path
         class="cls-41"
         d="M-.14.09h959.91v271.29l-77.62,209.42,77.62,207.92v271.29H-.14v-271.29l77.81-202.29L-.14,271.38V.09Z"
         id="path10" />
      <path
         class="cls-67"
         d="M-.14,271.38h959.91v417.34H-.14v-417.34Z"
         id="path11" />
    </g>
  </g>
  <g
     id="g155">
    <path
       class="cls-61"
       d="M305.34,478.82l18.73,1.32.22-2.87-7.49-.44.66-8.82,7.93-5.73v-3.53l-8.16,5.95c-.22-1.98-1.32-3.97-3.31-4.63-1.76-.66-3.75-.88-5.29.44-1.76,1.32-2.2,3.97-2.42,5.95l-.88,12.34ZM308.21,476.39l.66-9.26c.22-1.54.44-3.31,1.76-4.41.96-.75,2.34-.58,3.09.37.22.28.37.6.43.95,1.1,2.2.66,4.85.44,7.27l-.44,5.51-5.95-.44ZM307.76,449.94l18.29,4.41,4.41-17.85-2.87-.66-3.53,15.43-5.51-1.54,3.09-13.67-2.42-.66-3.31,13.67-4.85-1.1,3.31-14.55-2.64-.66-3.97,17.19ZM314.38,425.48l17.63,6.17,1.1-2.64-7.05-2.2,2.87-8.16c.44-2.2.88-4.85-.44-6.83-1.06-1.51-2.79-2.41-4.63-2.42-2.2,0-3.75,1.54-4.63,3.31-1.32,2.42-2.2,5.29-3.09,7.93l-1.76,4.85ZM317.9,423.71l2.87-7.93c.44-1.54,1.32-3.09,2.87-3.53,1.32-.44,2.87.66,2.87,2.2.44,2.2-.66,4.85-1.54,7.05l-1.32,4.41-5.73-2.2ZM324.3,402.77l9.92,5.73c1.98,1.1,4.41,1.76,6.39.44,2.64-1.32,4.41-4.41,5.73-6.83.88-2.2,1.76-5.07.44-7.49-1.54-2.2-4.19-3.31-6.39-4.85l-6.61-3.75-1.1,2.2c3.09,2.2,6.39,3.97,9.48,5.73,1.54.88,2.87,2.64,2.42,4.41-.37,2.17-1.28,4.22-2.64,5.95-1.1,1.54-2.87,2.64-4.63,2.2-2.2-.22-3.53-1.54-5.29-2.42l-6.61-3.75-1.1,2.42ZM337.74,380.73l14.99,11.24,6.83-9.04c1.32-1.98,2.64-4.41,1.76-6.61-.82-1.99-2.7-3.36-4.85-3.53-.88,0-2.2.44-2.64.88.44-2.2-1.1-3.97-2.87-4.41-2.2-.88-4.41.66-5.95,2.2-1.76,1.76-3.31,3.97-4.85,5.95l-2.42,3.31ZM341.49,380.07l5.29-6.61c.88-1.1,2.2-2.2,3.53-1.54s1.54,2.2.88,3.09c-.88,2.2-2.2,3.53-3.53,5.29l-2.2,2.87-3.97-3.09ZM347.66,384.48l5.29-6.61c1.1-1.1,2.2-2.42,3.75-2.2,1.32.44,2.2,1.76,1.98,3.09-.88,2.42-2.64,4.41-4.19,6.61l-2.2,2.87-4.63-3.53v-.22ZM354.71,360.68l12.78,13.67,11.02-10.58-1.76-1.76-8.82,8.38h-.44l-11.02-11.68-1.76,1.98ZM371.24,346.13l11.46,14.99,2.2-1.76-11.46-14.99-2.2,1.76ZM387.99,334.67c-1.73,1.1-3.22,2.52-4.41,4.19-2.3,2.85-2.48,6.87-.44,9.92.91,1.49,2.2,2.71,3.75,3.53,1.54.66,3.09,1.1,4.85.88,4.5-.84,8.48-3.46,11.02-7.27.86-1.7,1.09-3.65.66-5.51l-2.64,1.1c.66,3.75-1.76,5.51-4.41,7.27-4.41,2.42-8.38,2.2-11.02-1.54-2.42-4.41.44-7.93,3.97-10.36,2.64-1.54,5.07-2.64,7.49-1.1l2.2-1.76c-1.42-.99-3.13-1.45-4.85-1.32-1.98,0-3.97.66-6.17,2.2v-.22ZM410.25,323.65l-1.98,20.94,3.09-1.1.44-6.61,9.7-3.75,4.85,4.41,2.87-1.32-15.87-13.89-3.09,1.32ZM412.9,325.85l6.17,5.29-7.05,2.87.88-8.16ZM451.47,311.97l1.32,18.73,10.14-.66c2.64-.22,5.51-.88,7.27-3.09,2.08-2.78,2.73-6.37,1.76-9.7-1.02-2.92-3.56-5.03-6.61-5.51-2.64-.66-5.51-.22-8.6,0l-5.29.22ZM454.34,314.39l8.16-.44c1.58-.08,3.14.39,4.41,1.32,1.9,1.35,2.92,3.63,2.64,5.95-.14,2.64-1.9,4.91-4.41,5.73l-4.41.66-5.51.22-.88-13.44ZM477.7,310.86l-1.1,18.73,18.29,1.1v-2.64l-15.43-.88.44-5.73,13.89.88.22-2.64-13.89-.88v-5.07l15.21.88v-2.64l-17.63-1.1ZM526.85,318.8l-6.61,17.63,2.2.66,5.51-13.89v-.66l.44.88,6.61,18.51,3.09,1.32,6.61-17.63-2.2-.88-5.51,13.89v.66l-.44-.66-6.61-18.73-3.09-1.1ZM552.2,329.6l-8.82,16.75-2.2-1.32,8.38-16.75,2.64,1.32ZM566.3,337.97c-1.67-1.15-3.54-1.98-5.51-2.42-3.57-.93-7.33.59-9.26,3.75-.98,1.36-1.59,2.96-1.76,4.63,0,1.76.44,3.53,1.32,5.07,1.28,1.8,2.94,3.3,4.85,4.41,2.2,1.54,4.19,2.2,6.17,2.42,2.2,0,3.75-.44,5.51-1.54l-2.2-2.2c-3.09,2.2-5.73.88-8.38-.88-4.19-2.64-5.73-6.61-3.31-10.36,2.87-4.41,7.49-3.31,11.02-.88,2.64,1.54,4.63,3.53,4.41,6.39l2.2,1.1c.38-1.72.15-3.51-.66-5.07-1.08-1.81-2.6-3.33-4.41-4.41M584.16,351.2l-19.62,7.93,2.2,2.2,6.17-2.42,7.93,6.61-1.54,6.61,2.2,1.98,5.07-20.72-2.2-2.2h-.22ZM583.5,354.73l-2.2,7.93-5.51-4.85,7.71-3.09ZM598.48,364.42l-14.55,11.9,1.76,2.2,5.73-4.63,5.73,6.83-1.76,9.48,2.2,2.87,1.76-10.14c1.76,1.32,4.19,2.2,5.95.88,1.76-.66,3.31-2.2,3.31-4.19.22-2.64-1.54-4.63-3.09-6.61l-7.05-8.6ZM598.04,368.17c2.2,2.64,4.41,5.07,6.17,7.71.88,1.32,2.2,3.09.88,4.63-.66,1.32-2.64,1.32-3.75.44-2.2-1.54-3.75-3.97-5.73-5.95l-2.2-2.87,4.63-3.97ZM620.3,394.4l-21.16.88,1.76,2.87,6.61-.44,5.07,8.82-3.75,5.73,1.76,2.64,11.46-17.63-1.54-2.87h-.22ZM618.54,397.26l-4.41,6.83-3.75-6.61,8.16-.22ZM632.43,419.3c-1.1-3.31-3.09-6.61-6.17-8.16-3.62-1.77-7.97-.86-10.58,2.2-2.2,2.64-2.2,6.17-1.76,9.26.65,3.7,2.33,7.14,4.85,9.92l-1.32.44.88,2.42,8.82-3.09-3.53-9.48-1.98.66,2.64,7.05-3.09,1.1c-2.49-2.36-4.19-5.45-4.85-8.82-.66-2.64-.66-5.73,1.32-7.49,2.2-2.2,5.95-3.09,8.82-1.1,2.33,2.07,3.89,4.86,4.41,7.93.66,1.98.66,4.41-.88,5.95-.44.22,0,.66.22,1.1l.88,1.1c1.58-1.29,2.48-3.25,2.42-5.29,0-1.98-.44-3.97-1.1-5.73M637.94,434.07l-10.58,1.98c-1.98.44-3.31.88-4.41,1.76-.88.88-1.54,1.98-1.98,3.53-.3,1.91-.22,3.85.22,5.73.44,2.2,1.1,3.97,2.2,5.29.66,1.32,1.76,2.2,2.87,2.64,1.32.22,2.87.44,4.85,0l10.36-2.2-.44-2.64-10.14,2.2c-4.63.66-6.17-1.76-7.05-5.73-.88-4.41-.22-7.05,4.41-7.93l10.14-2.2-.44-2.42ZM643.67,466.03l-19.4-8.38v3.09l6.17,2.64.66,10.14-5.51,3.53.22,3.09,18.07-11.02-.22-3.09ZM640.8,467.79l-7.05,4.41-.66-7.71,7.71,3.31ZM319.89,514.74l-2.64.66,2.87,11.46,2.87-.66-3.09-11.46ZM629.34,514.74l2.64.66-2.87,11.46-2.87-.66,3.09-11.46ZM348.98,562.79l-20.94,2.42,1.76,2.64,6.61-.66,5.51,8.6-3.09,5.73,1.76,2.64,10.14-18.73-1.76-2.64ZM347.44,565.88l-3.97,7.27-4.41-6.39,8.38-.88ZM357.14,574.47l-13.44,12.34,1.76,2.2,11.24-10.8-5.95,16.31,2.2,2.2,16.09-4.85-11.02,10.36,1.76,1.76,13.22-12.34-2.64-3.09-16.31,5.07,6.17-16.09-3.09-3.09ZM376.53,594.31l-11.24,14.99,14.55,11.02,1.54-2.2-12.34-9.26,3.53-4.41,11.02,8.16,1.76-2.2-11.24-8.38,3.09-3.97,11.9,9.04,1.54-2.2-14.11-10.58ZM395.05,607.75l-8.82,16.53,2.2,1.32,3.53-6.61,8.16,4.41,1.76,9.48,3.09,1.54-1.98-9.92c2.2.66,4.41.22,5.95-1.32,1.1-1.32,1.98-3.31,1.32-5.07-.66-2.42-3.09-3.75-5.07-4.85l-10.14-5.51ZM396.15,611.5l8.6,4.41c1.1,1.1,2.87,2.2,2.64,3.97,0,1.54-1.76,2.2-3.09,2.2-2.87-.66-5.07-2.2-7.49-3.53l-3.53-1.76,2.87-5.29ZM416.21,618.77l-7.05,17.63,2.64.88,7.05-17.41-2.64-1.1ZM433.18,624.73c-1.91-.67-3.93-.97-5.95-.88-3.66.04-6.87,2.45-7.93,5.95-.6,1.62-.75,3.37-.44,5.07.44,1.76,1.32,3.31,2.64,4.41,1.65,1.5,3.6,2.63,5.73,3.31,2.42.88,4.63.88,6.61.66,1.94-.41,3.66-1.5,4.85-3.09l-2.42-1.32c-2.64,2.87-5.51,2.2-8.6,1.32-4.63-1.76-7.05-5.07-5.73-9.48,1.54-4.85,6.17-4.85,10.36-3.53,2.87.88,5.29,2.2,5.73,5.07l2.64.22c-.22-1.68-.99-3.23-2.2-4.41-1.46-1.52-3.28-2.66-5.29-3.31M452.13,629.13l-12.34,16.97,3.09.44,3.75-5.29,10.14,1.54,2.2,6.17,3.09.44-6.83-19.84-3.09-.66v.22ZM453.23,632.22l2.64,7.71-7.49-1.1,4.85-6.61ZM496.21,629.13c-2.04.35-3.98,1.1-5.73,2.2-3.15,1.83-4.75,5.48-3.97,9.04.34,1.63,1.1,3.15,2.2,4.41,1.1,1.54,2.64,2.2,4.41,2.87,1.76.44,3.97.44,6.61,0,2.2-.42,4.25-1.41,5.95-2.87,1.5-1.22,2.52-2.94,2.87-4.85h-3.09c-.66,3.75-3.53,4.41-6.61,5.29-5.07.88-8.82-.88-9.7-5.29-.88-5.07,3.09-7.49,7.27-8.38,2.87-.66,5.73-.66,7.27,1.54l2.64-.88c-.96-1.37-2.36-2.38-3.97-2.87-2.15-.65-4.43-.73-6.61-.22h.44ZM508.78,626.93l5.29,18.07,17.63-5.29-.88-2.64-14.77,4.41-1.76-5.29,13.44-4.19-.66-2.42-13.44,3.97-1.54-4.85,14.33-4.41-.66-2.42-16.97,5.07ZM529.05,620.32l7.93,17.19,2.2-1.1-6.61-14.11,18.29,8.38h1.32l2.2-1.32-7.71-16.97-2.2,1.1,6.39,14.11-18.73-8.6-3.09,1.32ZM549.77,610.84l1.54,2.2,6.61-4.41.22-.22,8.82,13.44,2.2-1.54-8.6-13.22v-.44l6.83-4.41-1.32-2.2-16.31,10.8ZM568.73,597.62l12.78,14.11,1.98-1.98-5.07-5.29,6.61-6.17,9.7,1.1,2.42-2.2-10.14-1.32c1.32-1.76,1.76-4.41.66-6.17-.88-1.54-2.42-2.87-4.41-2.87-2.64,0-4.41,1.76-6.61,3.53l-7.93,7.27ZM572.48,597.84l7.27-6.61c1.1-.88,3.09-2.2,4.63-1.1,1.32.88,1.32,2.64.44,3.97-1.32,2.2-3.53,3.97-5.51,5.95l-2.64,2.2-4.19-4.41ZM590.55,575.8l8.38,19.62,2.2-2.42-2.87-6.17,6.61-7.93,6.39,1.54,1.98-2.64-20.72-4.41-1.98,2.42ZM593.85,576.68l8.16,1.54-4.85,5.95-3.31-7.49ZM598.7,565.22l15.87,10.36,8.16-12.78-2.2-1.54-6.61,10.14v.44l-.44-.22-13.22-8.82-1.54,2.42Z"
       id="path12" />
    <g
       class="cls-84"
       clip-path="url(#clippath)"
       id="g154">
      <g
         id="g153">
        <path
           class="cls-57"
           d="M474.54,341.71l-59.25,102.5-28.96,50.22h176.42l-27.65-47.77-60.56-104.95Z"
           id="path13" />
        <g
           id="ni-e">
          <g
             id="ni-d">
            <path
               class="cls-3"
               d="M474.54,341.71l-4.51,7.52,4.51,103.44,4.51-103.44-4.51-7.52Z"
               id="path14" />
            <path
               class="cls-57"
               d="M474.54,437.82h-.19l.19,5.64.19-5.64h-.19Z"
               id="path15" />
          </g>
          <g
             id="ni-d-2"
             data-name="ni-d">
            <path
               class="cls-16"
               d="M580.25,418.51l-8.55-1.97-96.99,36.26,99.78-27.67,5.76-6.62Z"
               id="path16" />
            <path
               class="cls-57"
               d="M488.85,448.21l-.06-.18-5.31,1.92,5.42-1.56-.06-.18Z"
               id="path17" />
          </g>
          <g
             id="ni-d-3"
             data-name="ni-d">
            <path
               class="cls-10"
               d="M539.87,542.79l-.77-8.74-64.46-81.04,57.15,86.34,8.07,3.43Z"
               id="path18" />
            <path
               class="cls-57"
               d="M483.38,465.04l.15-.11-3.47-4.45,3.16,4.68.15-.11Z"
               id="path19" />
          </g>
          <g
             id="ni-d-4"
             data-name="ni-d">
            <path
               class="cls-10"
               d="M409.2,542.79l8.07-3.43,57.15-86.34-64.46,81.04-.77,8.74Z"
               id="path20" />
            <path
               class="cls-57"
               d="M465.69,465.04l.15.11,3.16-4.68-3.47,4.45.15.11Z"
               id="path21" />
          </g>
          <g
             id="ni-d-5"
             data-name="ni-d">
            <path
               class="cls-16"
               d="M368.82,418.51l5.76,6.62,99.78,27.67-96.99-36.26-8.55,1.97Z"
               id="path22" />
            <path
               class="cls-57"
               d="M460.23,448.21l-.06.18,5.42,1.56-5.31-1.92-.06.18Z"
               id="path23" />
          </g>
        </g>
        <g
           id="ni-e-2"
           data-name="ni-e">
          <g
             id="ni-d-6"
             data-name="ni-d">
            <path
               class="cls-26"
               d="M490.01,342.79l-5.52,6.82-9.93,103.07,18.87-101.81-3.42-8.08Z"
               id="path24" />
            <path
               class="cls-57"
               d="M476.63,437.96l-.19-.03-.6,5.61.97-5.56-.19-.03Z"
               id="path25" />
          </g>
          <g
             id="ni-d-7"
             data-name="ni-d">
            <path
               class="cls-22"
               d="M584,433.56l-8.19-3.14-101.09,22.41,102.66-13.52,6.63-5.75Z"
               id="path26" />
            <path
               class="cls-57"
               d="M489.35,450.25l-.03-.19-5.52,1.17,5.59-.79-.03-.19Z"
               id="path27" />
          </g>
          <g
             id="ni-d-8"
             data-name="ni-d">
            <path
               class="cls-24"
               d="M526.72,551.01l.45-8.76-52.55-89.22,44.58,93.46,7.52,4.52Z"
               id="path28" />
            <path
               class="cls-57"
               d="M481.6,466.15l.17-.09-2.82-4.89,2.48,5.07.17-.09Z"
               id="path29" />
          </g>
          <g
             id="ni-d-9"
             data-name="ni-d">
            <path
               class="cls-25"
               d="M397.32,532.82l8.47-2.28,68.61-77.55-75.11,71.28-1.98,8.55Z"
               id="path30" />
            <path
               class="cls-57"
               d="M464.08,463.69l.14.13,3.78-4.19-4.05,3.93.14.13Z"
               id="path31" />
          </g>
          <g
             id="ni-d-10"
             data-name="ni-d">
            <path
               class="cls-22"
               d="M374.63,404.14l4.78,7.36,94.95,41.29-91-49.4-8.74.76Z"
               id="path32" />
            <path
               class="cls-57"
               d="M461.01,446.27l-.08.17,5.15,2.3-4.99-2.64-.08.17Z"
               id="path33" />
          </g>
        </g>
        <g
           id="ni-e-3"
           data-name="ni-e">
          <g
             id="ni-d-11"
             data-name="ni-d">
            <path
               class="cls-20"
               d="M505.18,346.01l-6.41,5.99-24.17,100.68,32.85-98.19-2.27-8.48Z"
               id="path34" />
            <path
               class="cls-57"
               d="M478.68,438.4l-.18-.05-1.37,5.48,1.74-5.37-.18-.05Z"
               id="path35" />
          </g>
          <g
             id="ni-d-12"
             data-name="ni-d">
            <path
               class="cls-21"
               d="M585.62,448.98l-7.68-4.25-103.22,8.12,103.54.9,7.36-4.77Z"
               id="path36" />
            <path
               class="cls-57"
               d="M489.57,452.34v-.19s-5.64.38-5.64.38h5.65s0-.2,0-.2Z"
               id="path37" />
          </g>
          <g
             id="ni-d-13"
             data-name="ni-d">
            <path
               class="cls-13"
               d="M512.55,557.32l1.67-8.61-39.62-95.66,31.14,98.75,6.81,5.53Z"
               id="path38" />
            <path
               class="cls-57"
               d="M479.68,467l.18-.06-2.11-5.24,1.75,5.37.18-.06Z"
               id="path39" />
          </g>
          <g
             id="ni-d-14"
             data-name="ni-d">
            <path
               class="cls-7"
               d="M386.94,521.3l8.71-1.07,78.74-67.24-84.29,60.13-3.15,8.19Z"
               id="path40" />
            <path
               class="cls-57"
               d="M462.68,462.13l.12.15,4.33-3.62-4.56,3.33.12.15Z"
               id="path41" />
          </g>
          <g
             id="ni-d-15"
             data-name="ni-d">
            <path
               class="cls-21"
               d="M382.38,390.71l3.71,7.95,88.28,54.1-83.24-61.59-8.76-.46Z"
               id="path42" />
            <path
               class="cls-57"
               d="M462.06,444.45l-.11.16,4.78,3-4.57-3.31-.11.16Z"
               id="path43" />
          </g>
        </g>
        <g
           id="ni-e-4"
           data-name="ni-e">
          <g
             id="ni-d-16"
             data-name="ni-d">
            <path
               class="cls-6"
               d="M519.75,351.32l-7.18,5.04-37.95,96.34,46.2-92.67-1.06-8.71Z"
               id="path44" />
            <path
               class="cls-57"
               d="M480.66,439.12l-.17-.08-2.12,5.23,2.47-5.08-.17-.08Z"
               id="path45" />
          </g>
          <g
             id="ni-d-17"
             data-name="ni-d">
            <path
               class="cls-32"
               d="M585.08,464.48l-7.01-5.28-103.35-6.32,102.41,15.3,7.95-3.7Z"
               id="path46" />
            <path
               class="cls-57"
               d="M489.5,454.44l.02-.19-5.63-.4,5.59.78.02-.19Z"
               id="path47" />
          </g>
          <g
             id="ni-d-18"
             data-name="ni-d">
            <path
               class="cls-15"
               d="M497.65,561.59l2.85-8.3-25.92-100.25,17.09,102.12,5.98,6.42Z"
               id="path48" />
            <path
               class="cls-57"
               d="M477.66,467.58l.18-.04-1.36-5.48.99,5.56.18-.04Z"
               id="path49" />
          </g>
          <g
             id="ni-d-19"
             data-name="ni-d">
            <path
               class="cls-19"
               d="M378.27,508.44l8.77.15,87.33-55.63-91.84,47.81-4.26,7.67Z"
               id="path50" />
            <path
               class="cls-57"
               d="M461.51,460.39l.09.16,4.79-2.98-4.98,2.66.09.16Z"
               id="path51" />
          </g>
          <g
             id="ni-d-20"
             data-name="ni-d">
            <path
               class="cls-32"
               d="M391.93,378.49l2.57,8.39,79.89,65.86-73.85-72.57-8.61-1.68Z"
               id="path52" />
            <path
               class="cls-57"
               d="M463.35,442.8l-.13.14,4.32,3.64-4.07-3.92-.13.14Z"
               id="path53" />
          </g>
        </g>
        <g
           id="ni-e-5"
           data-name="ni-e">
          <g
             id="ni-d-21"
             data-name="ni-d">
            <path
               class="cls-30"
               d="M533.44,358.6l-7.81,3.99-50.99,90.12,58.65-85.33.16-8.77Z"
               id="path54" />
            <path
               class="cls-57"
               d="M482.51,440.1l-.16-.1-2.83,4.88,3.15-4.69-.16-.1Z"
               id="path55" />
          </g>
          <g
             id="ni-d-22"
             data-name="ni-d">
            <path
               class="cls-5"
               d="M582.39,479.75l-6.21-6.2-101.46-20.65,99.28,29.41,8.39-2.56Z"
               id="path56" />
            <path
               class="cls-57"
               d="M489.14,456.5l.05-.18-5.52-1.18,5.43,1.55.05-.18Z"
               id="path57" />
          </g>
          <g
             id="ni-d-23"
             data-name="ni-d">
            <path
               class="cls-18"
               d="M482.29,563.75l3.98-7.82-11.72-102.88,2.71,103.51,5.03,7.19Z"
               id="path58" />
            <path
               class="cls-57"
               d="M475.59,467.87h.19s-.58-5.63-.58-5.63l.21,5.64h.19Z"
               id="path59" />
          </g>
          <g
             id="ni-d-24"
             data-name="ni-d">
            <path
               class="cls-18"
               d="M371.47,494.5l8.67,1.37,94.22-42.94-97.6,34.57-5.28,7Z"
               id="path60" />
            <path
               class="cls-57"
               d="M460.59,458.5l.07.17,5.16-2.29-5.3,1.94.07.17Z"
               id="path61" />
          </g>
          <g
             id="ni-d-25"
             data-name="ni-d">
            <path
               class="cls-5"
               d="M403.09,367.71l1.38,8.66,69.95,76.34-63.04-82.14-8.29-2.86Z"
               id="path62" />
            <path
               class="cls-57"
               d="M464.86,441.34l-.14.12,3.77,4.2-3.48-4.44-.14.12Z"
               id="path63" />
          </g>
        </g>
        <g
           id="ni-e-6"
           data-name="ni-e">
          <g
             id="ni-d-26"
             data-name="ni-d">
            <path
               class="cls-2"
               d="M545.99,367.71l-8.29,2.86-63.04,82.14,69.95-76.34,1.38-8.66Z"
               id="path64" />
            <path
               class="cls-57"
               d="M484.21,441.34l-.14-.12-3.48,4.44,3.77-4.2-.14-.12Z"
               id="path65" />
          </g>
          <g
             id="ni-d-27"
             data-name="ni-d">
            <path
               class="cls-4"
               d="M577.6,494.5l-5.28-7-97.6-34.57,94.22,42.94,8.67-1.37Z"
               id="path66" />
            <path
               class="cls-57"
               d="M488.49,458.5l.07-.17-5.3-1.94,5.16,2.29.07-.17Z"
               id="path67" />
          </g>
          <g
             id="ni-d-28"
             data-name="ni-d">
            <path
               class="cls-14"
               d="M466.78,563.75l5.03-7.19,2.71-103.51-11.72,102.88,3.98,7.82Z"
               id="path68" />
            <path
               class="cls-57"
               d="M473.49,467.87h.19s.21-5.63.21-5.63l-.58,5.62h.19Z"
               id="path69" />
          </g>
          <g
             id="ni-d-29"
             data-name="ni-d">
            <path
               class="cls-14"
               d="M366.68,479.75l8.39,2.56,99.28-29.41-101.46,20.65-6.21,6.2Z"
               id="path70" />
            <path
               class="cls-57"
               d="M459.94,456.5l.05.18,5.43-1.55-5.52,1.18.05.18Z"
               id="path71" />
          </g>
          <g
             id="ni-d-30"
             data-name="ni-d">
            <path
               class="cls-9"
               d="M415.63,358.6l.16,8.77,58.65,85.33-50.99-90.12-7.81-3.99Z"
               id="path72" />
            <path
               class="cls-57"
               d="M466.56,440.1l-.16.1,3.15,4.69-2.83-4.88-.16.1Z"
               id="path73" />
          </g>
        </g>
        <g
           id="ni-e-7"
           data-name="ni-e">
          <g
             id="ni-d-31"
             data-name="ni-d">
            <path
               class="cls-8"
               d="M557.14,378.49l-8.61,1.68-73.85,72.57,79.89-65.86,2.57-8.39Z"
               id="path74" />
            <path
               class="cls-57"
               d="M485.72,442.8l-.13-.14-4.07,3.92,4.32-3.64-.13-.14Z"
               id="path75" />
          </g>
          <g
             id="ni-d-32"
             data-name="ni-d">
            <path
               class="cls-31"
               d="M570.8,508.44l-4.26-7.67-91.84-47.81,87.33,55.63,8.77-.15Z"
               id="path76" />
            <path
               class="cls-57"
               d="M487.57,460.39l.09-.16-4.98-2.66,4.79,2.98.09-.16Z"
               id="path77" />
          </g>
          <g
             id="ni-d-33"
             data-name="ni-d">
            <path
               class="cls-11"
               d="M451.43,561.59l5.98-6.42,17.09-102.12-25.92,100.25,2.85,8.3Z"
               id="path78" />
            <path
               class="cls-57"
               d="M471.41,467.58l.18.04.99-5.56-1.36,5.48.18.04Z"
               id="path79" />
          </g>
          <g
             id="ni-d-34"
             data-name="ni-d">
            <path
               class="cls-11"
               d="M363.99,464.48l7.95,3.7,102.41-15.3-103.35,6.32-7.01,5.28Z"
               id="path80" />
            <path
               class="cls-57"
               d="M459.57,454.44l.02.19,5.59-.78-5.63.4.02.19Z"
               id="path81" />
          </g>
          <g
             id="ni-d-35"
             data-name="ni-d">
            <path
               class="cls-23"
               d="M429.33,351.32l-1.06,8.71,46.2,92.67-37.95-96.34-7.18-5.04Z"
               id="path82" />
            <path
               class="cls-57"
               d="M468.42,439.12l-.17.08,2.47,5.08-2.12-5.23-.17.08Z"
               id="path83" />
          </g>
        </g>
        <g
           id="ni-e-8"
           data-name="ni-e">
          <g
             id="ni-d-36"
             data-name="ni-d">
            <path
               class="cls-29"
               d="M566.69,390.71l-8.76.46-83.24,61.59,88.28-54.1,3.71-7.95Z"
               id="path84" />
            <path
               class="cls-57"
               d="M487.01,444.45l-.11-.16-4.57,3.31,4.78-3-.11-.16Z"
               id="path85" />
          </g>
          <g
             id="ni-d-37"
             data-name="ni-d">
            <path
               class="cls-33"
               d="M562.13,521.3l-3.15-8.19-84.29-60.13,78.74,67.24,8.71,1.07Z"
               id="path86" />
            <path
               class="cls-57"
               d="M486.39,462.13l.12-.15-4.56-3.33,4.33,3.62.12-.15Z"
               id="path87" />
          </g>
          <g
             id="ni-d-38"
             data-name="ni-d">
            <path
               class="cls-28"
               d="M436.52,557.32l6.81-5.53,31.14-98.75-39.62,95.66,1.67,8.61Z"
               id="path88" />
            <path
               class="cls-57"
               d="M469.39,467l.18.06,1.75-5.37-2.11,5.24.18.06Z"
               id="path89" />
          </g>
          <g
             id="ni-d-39"
             data-name="ni-d">
            <path
               class="cls-28"
               d="M363.45,448.98l7.36,4.77,103.54-.9-103.22-8.12-7.68,4.25Z"
               id="path90" />
            <path
               class="cls-57"
               d="M459.5,452.34v.19s5.64,0,5.64,0l-5.63-.38v.19Z"
               id="path91" />
          </g>
          <g
             id="ni-d-40"
             data-name="ni-d">
            <path
               class="cls-33"
               d="M443.9,346.01l-2.27,8.48,32.85,98.19-24.17-100.68-6.41-5.99Z"
               id="path92" />
            <path
               class="cls-57"
               d="M470.39,438.4l-.18.05,1.74,5.37-1.37-5.48-.18.05Z"
               id="path93" />
          </g>
        </g>
        <g
           id="ni-e-9"
           data-name="ni-e">
          <g
             id="ni-d-41"
             data-name="ni-d">
            <path
               class="cls-27"
               d="M574.44,404.14l-8.74-.76-91,49.4,94.95-41.29,4.78-7.36Z"
               id="path94" />
            <path
               class="cls-57"
               d="M488.06,446.27l-.08-.17-4.99,2.64,5.15-2.3-.08-.17Z"
               id="path95" />
          </g>
          <g
             id="ni-d-42"
             data-name="ni-d">
            <path
               class="cls-17"
               d="M551.75,532.82l-1.98-8.55-75.11-71.28,68.61,77.55,8.47,2.28Z"
               id="path96" />
            <path
               class="cls-57"
               d="M484.99,463.69l.14-.13-4.05-3.93,3.78,4.19.14-.13Z"
               id="path97" />
          </g>
          <g
             id="ni-d-43"
             data-name="ni-d">
            <path
               class="cls-1"
               d="M422.35,551.01l7.52-4.52,44.58-93.46-52.55,89.22.45,8.76Z"
               id="path98" />
            <path
               class="cls-57"
               d="M467.47,466.15l.17.09,2.48-5.07-2.82,4.89.17.09Z"
               id="path99" />
          </g>
          <g
             id="ni-d-44"
             data-name="ni-d">
            <path
               class="cls-1"
               d="M365.07,433.56l6.63,5.75,102.66,13.52-101.09-22.41-8.19,3.14Z"
               id="path100" />
            <path
               class="cls-57"
               d="M459.72,450.25l-.03.19,5.59.79-5.52-1.17-.03.19Z"
               id="path101" />
          </g>
          <g
             id="ni-d-45"
             data-name="ni-d">
            <path
               class="cls-12"
               d="M459.07,342.79l-3.42,8.08,18.87,101.81-9.93-103.07-5.52-6.82Z"
               id="path102" />
            <path
               class="cls-57"
               d="M472.44,437.96l-.19.03.97,5.56-.6-5.61-.19.03Z"
               id="path103" />
          </g>
        </g>
        <path
           class="cls-50"
           d="M474.54,415.81c-20.03-.02-39.4,7.19-54.54,20.31l-27.46,47.77c-.98,5.15-1.49,10.37-1.5,15.61h9.4c2.06-40.87,36.87-72.34,77.74-70.28,37.99,1.92,68.36,32.29,70.28,70.28h9.4c.04-5.23-.4-10.46-1.32-15.61l-27.46-47.77c-15.15-13.11-34.51-20.32-54.54-20.31"
           id="path104" />
        <path
           class="cls-62"
           d="M474.54,417.5c-21.26-.04-41.69,8.18-56.99,22.95l-22.57,39.31c-1.6,6.4-2.42,12.97-2.45,19.56h8.09c2.91-40.82,38.37-71.55,79.19-68.64,36.77,2.62,66.01,31.87,68.64,68.64h8.09c-.02-6.66-.84-13.29-2.45-19.75l-22.57-39.12c-15.29-14.76-35.73-22.99-56.99-22.95"
           id="path105" />
        <path
           class="cls-49"
           d="M474.54,419.01c-22.99-.06-44.9,9.73-60.19,26.9l-16.36,28.21c-2.61,8.21-3.88,16.78-3.76,25.39h6.21c2.06-40.87,36.87-72.34,77.74-70.28,37.99,1.92,68.36,32.29,70.28,70.28h6.58c0-8.84-1.5-17.3-3.95-25.2l-16.55-28.4c-15.23-17.14-37.07-26.93-60-26.9"
           id="path106" />
        <path
           class="cls-79"
           d="M474.54,420.51c-26.34-.01-50.96,13.11-65.64,34.98l-5.27,9.22c-5.33,10.82-8.1,22.73-8.09,34.8h5.08c2.91-40.82,38.37-71.55,79.19-68.64,36.77,2.62,66.02,31.87,68.64,68.64h5.08c0-12.07-2.76-23.97-8.09-34.8l-5.27-9.4c-14.68-21.88-39.3-35-65.64-34.98v.19Z"
           id="path107" />
        <path
           class="cls-80"
           d="M474.54,421.83c-42.8,0-77.49,34.69-77.49,77.49,0,.06,0,.13,0,.19h3.57c2.91-40.82,38.37-71.55,79.19-68.64,36.77,2.62,66.02,31.87,68.64,68.64h3.57c.1-42.8-34.51-77.57-77.3-77.68-.06,0-.13,0-.19,0"
           id="path108" />
        <path
           class="cls-81"
           d="M474.54,423.33c-41.97,0-75.98,34.02-75.98,75.98h2.63c0-40.51,32.84-73.35,73.35-73.35s73.35,32.84,73.35,73.35h2.63c-.21-41.82-34.17-75.61-75.98-75.61v-.38Z"
           id="path109" />
        <path
           class="cls-63"
           d="M474.54,425.03c-41.13,0-74.49,33.33-74.49,74.47,0,.44,0,.89.01,1.33h1.5v-1.5c.42-40.3,33.42-72.64,73.73-72.22,40.3.42,72.64,33.42,72.22,73.73h1.5v-1.5c0-41.13-33.35-74.48-74.48-74.48h0v.19Z"
           id="path110" />
        <path
           class="cls-71"
           d="M475.29,457.75c-1.32,0-2.26-.94-3.39-1.13-1.12.98-1.62,2.49-1.32,3.95.56.19.56.75,1.69,1.69s.94,1.32.75,3.76c0,.75.19,2.82,1.13,3.01s1.88-.56,2.07-2.26c.19-1.32.75-2.26,1.32-3.01.56-3.57-.38-4.89-2.26-6.02"
           id="path111" />
        <path
           class="cls-50"
           d="M469.27,449.1c-1.13,0-3.01,1.88-3.76.94-.38-.56-.56-1.69,0-2.63.85-1.87,2.31-3.4,4.14-4.33,4.33-2.63,7.34-1.88,9.4,1.88,2.07,3.39,4.14,7.15,4.33,10.16,0,.94.56,2.63-.38,3.57-2.45,2.63-8.65-2.82-12.23-1.88-1.13.19-2.63,1.13-3.76.38-.75-.56,0-1.88.56-2.45,1.13-.94,2.82-4.51,2.63-6.02,0-.75,0,.38-.94.38"
           id="path112" />
        <path
           class="cls-39"
           d="M468.89,447.41c-2.26.75-1.88,1.88-3.01,2.82.38.19,1.5.56,2.63-.56.38-.38.94-.56,1.32-.56l-1.32,1.32c-1.12.92-2.02,2.08-2.63,3.39-.56,1.5-.75,3.2-.56,3.39,0,0,.75,1.5,2.82,2.26,3.76,1.5,4.51,4.7,8.46,4.7,3.01,0,2.63-2.07,5.08-1.69,1.88.38,3.2-1.32,1.13-2.26-3.35-.66-6.8-.66-10.16,0-.75-7.52,0-4.89-.19-8.28-.19-3.2-1.32-3.39,0-6.21-.94,1.88-2.26,1.5-3.76,1.5l.19.19Z"
           id="path113" />
        <path
           class="cls-83"
           d="M476.42,442.14l-.19,1.13.56,1.88.38,1.88c0,.56.75.75,1.32,1.13.75.56,0,1.88.56,2.07.38,0,.94-1.88.94-2.26v-1.32c-.29-.57-.61-1.14-.94-1.69-.12-.19-.24-.38-.38-.56-.42-.63-.92-1.2-1.5-1.69-.18-.13-.37-.26-.56-.38l-.38-.19h.19Z"
           id="path114" />
        <path
           class="cls-60"
           d="M476.98,456.44l-3.76-1.32c-2.45-.75-4.89-2.26-6.58-1.5-.56.19-.56.75-.75,1.69,0,.94-.94,2.45,0,1.88,1.13-.75,4.51,1.5,5.64,2.07.56.38,1.88,1.13,2.07,1.88.38,1.13,0,3.39,0,4.51,0,.94.38,3.39,1.32,3.76,1.13.19,2.07-.75,2.45-2.45.56-1.69.75-2.63,1.5-3.57s1.5-1.5,2.45-1.69c1.13,0,2.63.94,2.63-.38,0-.75-.75-1.5-.38-2.63.19-.94-.75-.75-1.69-1.13l-4.89-1.13Z"
           id="path115" />
        <path
           class="cls-35"
           d="M471.53,459.26c-.75-.38-4.33-2.82-5.64-1.88-.56,0-.75,0-.75-.56l.38-1.69c0-.56.38-1.5.94-1.88,1.32-1.13,4.33.94,5.83,1.5l-.75,4.51Z"
           id="path116" />
        <path
           class="cls-72"
           d="M477.92,463.96c1.69-3.01,2.82-2.63,4.89-2.63.75,0,.94-.56.75-1.32-.56,1.13-3.2,0-4.7.56-2.82,1.32-2.26,6.96-3.76,7.52,1.5,1.32,2.07-3.2,2.82-4.14"
           id="path117" />
        <g
           id="g120">
          <path
             class="cls-57"
             d="M386.33,494.43l-18.81,32.54h214.22l-18.81-32.35h-176.42l-.19-.19Z"
             id="path118" />
          <g
             id="ni-n">
            <path
               id="ni-k"
               class="cls-66"
               d="M379.93,520.38c-2.96,0-5.91.18-8.84.56l-.94,1.69c4.51-.56,8.84-1.32,13.54-1.32,6.02,0,11.66,1.5,18.24,1.5h8.65c6.58,0,12.04-1.5,18.24-1.5s11.85,1.5,18.43,1.5h8.65c6.58,0,12.04-1.5,18.24-1.5s11.85,1.5,18.43,1.5h8.46c6.58,0,12.23-1.5,18.43-1.5s11.85,1.5,18.43,1.5h8.46c6.58,0,12.23-1.5,18.43-1.5,4.89,0,9.4.94,14.11,1.32l-.94-1.88c-2.75-.29-5.51-.41-8.28-.38h-8.46c-6.58,0-12.23,1.32-18.43,1.5-6.21,0-11.85-1.5-18.43-1.5h-8.46c-6.58,0-12.23,1.32-18.43,1.5-6.21,0-11.85-1.5-18.43-1.5h-8.28c-6.58,0-12.23,1.32-18.43,1.5-6.21,0-11.85-1.5-18.43-1.5h-8.46c-6.58,0-12.23,1.32-18.43,1.5-6.21,0-11.66-1.5-18.24-1.5h-8.84Z" />
            <path
               id="ni-k-2"
               data-name="ni-k"
               class="cls-82"
               d="M379.93,518.32c-2.96,0-5.91.18-8.84.56l-.94,1.69c4.51-.56,8.84-1.32,13.54-1.32,6.02,0,11.66,1.5,18.24,1.5h8.65c6.58,0,12.04-1.5,18.24-1.5s11.85,1.5,18.43,1.5h8.65c6.58,0,12.04-1.5,18.24-1.5s11.85,1.5,18.43,1.5h8.46c6.58,0,12.23-1.5,18.43-1.5s11.85,1.5,18.43,1.5h8.46c6.58,0,12.23-1.5,18.43-1.5,4.89,0,9.4.94,14.11,1.32l-.94-1.88c-2.75-.29-5.51-.41-8.28-.38h-8.46c-6.58,0-12.23,1.32-18.43,1.5-6.21,0-11.85-1.5-18.43-1.5h-8.46c-6.58,0-12.23,1.32-18.43,1.5-6.21,0-11.85-1.5-18.43-1.5h-8.28c-6.58,0-12.23,1.32-18.43,1.5-6.21,0-11.85-1.5-18.43-1.5h-8.46c-6.58,0-12.23,1.32-18.43,1.5-6.21,0-11.66-1.5-18.24-1.5h-8.84Z" />
            <path
               id="ni-k-3"
               data-name="ni-k"
               class="cls-48"
               d="M379.93,516.25c-2.96,0-5.91.18-8.84.56l-.94,1.69c4.51-.56,8.84-1.32,13.54-1.32,6.02,0,11.66,1.5,18.24,1.5h8.65c6.58,0,12.04-1.5,18.24-1.5s11.85,1.5,18.43,1.5h8.65c6.58,0,12.04-1.5,18.24-1.5s11.85,1.5,18.43,1.5h8.46c6.58,0,12.23-1.5,18.43-1.5s11.85,1.5,18.43,1.5h8.46c6.58,0,12.23-1.5,18.43-1.5,4.89,0,9.4.94,14.11,1.32l-.94-1.88c-2.75-.29-5.51-.41-8.28-.38h-8.46c-6.58,0-12.23,1.32-18.43,1.5-6.21,0-11.85-1.5-18.43-1.5h-8.46c-6.58,0-12.23,1.32-18.43,1.5-6.21,0-11.85-1.5-18.43-1.5h-8.28c-6.58,0-12.23,1.32-18.43,1.5-6.21,0-11.85-1.5-18.43-1.5h-8.46c-6.58,0-12.23,1.32-18.43,1.5-6.21,0-11.66-1.5-18.24-1.5h-8.84Z" />
          </g>
          <g
             id="ni-n-2"
             data-name="ni-n">
            <path
               id="ni-k-4"
               data-name="ni-k"
               class="cls-42"
               d="M379.93,514.18c-2.96,0-5.91.18-8.84.56l-.94,1.69c4.51-.56,8.84-1.32,13.54-1.32,6.02,0,11.66,1.5,18.24,1.5h8.65c6.58,0,12.04-1.5,18.24-1.5s11.85,1.5,18.43,1.5h8.65c6.58,0,12.04-1.5,18.24-1.5s11.85,1.5,18.43,1.5h8.46c6.58,0,12.23-1.5,18.43-1.5s11.85,1.5,18.43,1.5h8.46c6.58,0,12.23-1.5,18.43-1.5,4.89,0,9.4.94,14.11,1.32l-.94-1.88c-2.75-.29-5.51-.41-8.28-.38h-8.46c-6.58,0-12.23,1.32-18.43,1.5-6.21,0-11.85-1.5-18.43-1.5h-8.46c-6.58,0-12.23,1.32-18.43,1.5-6.21,0-11.85-1.5-18.43-1.5h-8.28c-6.58,0-12.23,1.32-18.43,1.5-6.21,0-11.85-1.5-18.43-1.5h-8.46c-6.58,0-12.23,1.32-18.43,1.5-6.21,0-11.66-1.5-18.24-1.5h-8.84Z" />
            <path
               id="ni-k-5"
               data-name="ni-k"
               class="cls-65"
               d="M379.93,512.11c-2.96,0-5.91.18-8.84.56l-.94,1.69c4.51-.56,8.84-1.32,13.54-1.32,6.02,0,11.66,1.5,18.24,1.5h8.65c6.58,0,12.04-1.5,18.24-1.5s11.85,1.5,18.43,1.5h8.65c6.58,0,12.04-1.5,18.24-1.5s11.85,1.5,18.43,1.5h8.46c6.58,0,12.23-1.5,18.43-1.5s11.85,1.5,18.43,1.5h8.46c6.58,0,12.23-1.5,18.43-1.5,4.89,0,9.4.94,14.11,1.32l-.94-1.88c-2.75-.29-5.51-.41-8.28-.38h-8.46c-6.58,0-12.23,1.32-18.43,1.5-6.21,0-11.85-1.5-18.43-1.5h-8.46c-6.58,0-12.23,1.32-18.43,1.5-6.21,0-11.85-1.5-18.43-1.5h-8.28c-6.58,0-12.23,1.32-18.43,1.5-6.21,0-11.85-1.5-18.43-1.5h-8.46c-6.58,0-12.23,1.32-18.43,1.5-6.21,0-11.66-1.5-18.24-1.5h-8.84Z" />
            <path
               id="ni-k-6"
               data-name="ni-k"
               class="cls-73"
               d="M379.93,510.04c-2.96,0-5.91.18-8.84.56l-.94,1.69c4.51-.56,8.84-1.32,13.54-1.32,6.02,0,11.66,1.5,18.24,1.5h8.65c6.58,0,12.04-1.5,18.24-1.5s11.85,1.5,18.43,1.5h8.65c6.58,0,12.04-1.5,18.24-1.5s11.85,1.5,18.43,1.5h8.46c6.58,0,12.23-1.5,18.43-1.5s11.85,1.5,18.43,1.5h8.46c6.58,0,12.23-1.5,18.43-1.5,4.89,0,9.4.94,14.11,1.32l-.94-1.88c-2.75-.29-5.51-.41-8.28-.38h-8.46c-6.58,0-12.23,1.32-18.43,1.5-6.21,0-11.85-1.5-18.43-1.5h-8.46c-6.58,0-12.23,1.32-18.43,1.5-6.21,0-11.85-1.5-18.43-1.5h-8.28c-6.58,0-12.23,1.32-18.43,1.5-6.21,0-11.85-1.5-18.43-1.5h-8.46c-6.58,0-12.23,1.32-18.43,1.5-6.21,0-11.66-1.5-18.24-1.5h-8.84Z" />
          </g>
          <g
             id="ni-n-3"
             data-name="ni-n">
            <path
               id="ni-k-7"
               data-name="ni-k"
               class="cls-68"
               d="M379.93,507.78c-2.96,0-5.91.18-8.84.56l-.94,1.69c4.51-.56,8.84-1.32,13.54-1.32,6.02,0,11.66,1.5,18.24,1.5h8.65c6.58,0,12.04-1.5,18.24-1.5s11.85,1.5,18.43,1.5h8.65c6.58,0,12.04-1.5,18.24-1.5s11.85,1.5,18.43,1.5h8.46c6.58,0,12.23-1.5,18.43-1.5s11.85,1.5,18.43,1.5h8.46c6.58,0,12.23-1.5,18.43-1.5,4.89,0,9.4.94,14.11,1.32l-.94-1.88c-2.75-.29-5.51-.41-8.28-.38h-8.46c-6.58,0-12.23,1.32-18.43,1.5-6.21,0-11.85-1.5-18.43-1.5h-8.46c-6.58,0-12.23,1.32-18.43,1.5-6.21,0-11.85-1.5-18.43-1.5h-8.28c-6.58,0-12.23,1.32-18.43,1.5-6.21,0-11.85-1.5-18.43-1.5h-8.46c-6.58,0-12.23,1.32-18.43,1.5-6.21,0-11.66-1.5-18.24-1.5h-8.84Z" />
            <path
               id="ni-k-8"
               data-name="ni-k"
               class="cls-78"
               d="M379.93,505.71c-2.96,0-5.91.18-8.84.56l-.94,1.69c4.51-.56,8.84-1.32,13.54-1.32,6.02,0,11.66,1.5,18.24,1.5h8.65c6.58,0,12.04-1.5,18.24-1.5s11.85,1.5,18.43,1.5h8.65c6.58,0,12.04-1.5,18.24-1.5s11.85,1.5,18.43,1.5h8.46c6.58,0,12.23-1.5,18.43-1.5s11.85,1.5,18.43,1.5h8.46c6.58,0,12.23-1.5,18.43-1.5,4.89,0,9.4.94,14.11,1.32l-.94-1.88c-2.75-.29-5.51-.41-8.28-.38h-8.46c-6.58,0-12.23,1.32-18.43,1.5-6.21,0-11.85-1.5-18.43-1.5h-8.46c-6.58,0-12.23,1.32-18.43,1.5-6.21,0-11.85-1.5-18.43-1.5h-8.28c-6.58,0-12.23,1.32-18.43,1.5-6.21,0-11.85-1.5-18.43-1.5h-8.46c-6.58,0-12.23,1.32-18.43,1.5-6.21,0-11.66-1.5-18.24-1.5h-8.84Z" />
            <path
               id="ni-k-9"
               data-name="ni-k"
               class="cls-46"
               d="M379.93,503.65c-2.96,0-5.91.18-8.84.56l-.94,1.69c4.51-.56,8.84-1.32,13.54-1.32,6.02,0,11.66,1.5,18.24,1.5h8.65c6.58,0,12.04-1.5,18.24-1.5s11.85,1.5,18.43,1.5h8.65c6.58,0,12.04-1.5,18.24-1.5s11.85,1.5,18.43,1.5h8.46c6.58,0,12.23-1.5,18.43-1.5s11.85,1.5,18.43,1.5h8.46c6.58,0,12.23-1.5,18.43-1.5,4.89,0,9.4.94,14.11,1.32l-.94-1.88c-2.75-.29-5.51-.41-8.28-.38h-8.46c-6.58,0-12.23,1.32-18.43,1.5-6.21,0-11.85-1.5-18.43-1.5h-8.46c-6.58,0-12.23,1.32-18.43,1.5-6.21,0-11.85-1.5-18.43-1.5h-8.28c-6.58,0-12.23,1.32-18.43,1.5-6.21,0-11.85-1.5-18.43-1.5h-8.46c-6.58,0-12.23,1.32-18.43,1.5-6.21,0-11.66-1.5-18.24-1.5h-8.84Z" />
          </g>
          <path
             class="cls-34"
             d="M386.51,494.24v.38h176.23l-.19-.38h-176.04ZM386.14,494.81l-.19.56h176.98l-.19-.56h-176.8.19ZM385.76,495.56l-.38.56h178.3l-.38-.56h-177.55ZM385.2,496.5l-.56.94h179.81l-.56-.94h-178.68ZM384.45,497.82l-.56.94h181.31l-.56-.94h-180.18ZM383.69,499.13l-.38.75h182.44l-.38-.75h-181.69ZM382.94,500.45l-.38.75h184.13l-.56-.75h-183.19ZM382.19,501.76l-.56,1.13h185.82l-.56-1.13h-184.7Z"
             id="path119" />
          <path
             class="cls-52"
             d="M394.41,503.27c6.39,1.32,6.96,0,6.96,0h-6.96ZM547.7,503.27s.56,1.32,6.96,0h-6.96Z"
             id="path120" />
        </g>
        <g
           id="g149">
          <g
             id="ni-t">
            <path
               class="cls-59"
               d="M532.09,474.49c-3.2,0-4.14,1.69-4.14,1.69-5.08,19.94-22.19,40.06-42.51,40.06h-15.05v20.31h115.48l-11.66-20.69c-18.24-2.63-33.1-21.25-37.8-39.69,0,0-1.13-1.69-4.33-1.69"
               id="path121" />
            <path
               class="cls-44"
               d="M532.09,475.43c-1.5,0-2.26.19-2.82.56l-.56.56c-2.82,10.41-8.26,19.93-15.8,27.65-7.52,7.71-16.93,12.98-27.46,12.98h-14.48v18.62h114.54l-10.72-18.81c-8.84-1.32-16.93-6.02-23.32-12.79-7.54-7.72-12.98-17.23-15.8-27.65l-.56-.56c-.93-.48-1.97-.68-3.01-.56"
               id="path122" />
            <path
               class="cls-43"
               d="M532.09,475.43h.75v20.31c-.18,4.27-1.48,8.42-3.76,12.04-.94,3.01-1.88,1.88-4.33,5.45-3.17,1.09-6.45,1.85-9.78,2.26-4.7.75-15.05,1.5-20.5.19,7-2.14,13.34-6.02,18.43-11.28,1.4-1.5,2.72-3.07,3.95-4.7,2.1-2.61,3.98-5.37,5.64-8.28l1.88-3.76c.9-1.78,1.72-3.6,2.45-5.45.73-1.85,1.35-3.73,1.88-5.64l.56-.56,1.13-.38,1.69-.19Z"
               id="path123" />
            <path
               class="cls-64"
               d="M530.96,478.07c-.94,11.28-4.33,24.83-12.6,33.48-3.01,2.45-6.96,4.89-10.53,4.33,12.6-10.34,20.31-26.33,22.95-37.8h.19Z"
               id="path124" />
            <path
               class="cls-37"
               d="M520.62,497.63c-1.88,5.08-9.03,12.6-16.55,18.81h-5.45c4.7-.38,15.61-9.4,22.01-18.81"
               id="path125" />
          </g>
          <g
             id="ni-t-2"
             data-name="ni-t">
            <path
               class="cls-45"
               d="M503.31,474.49c-3.2,0-4.14,1.69-4.14,1.69-5.08,19.94-22.19,40.06-42.51,40.06h-15.05v20.31h115.48l-11.66-20.69c-18.24-2.63-33.1-21.25-37.8-39.69,0,0-1.13-1.69-4.33-1.69"
               id="path126" />
            <path
               class="cls-44"
               d="M503.31,475.43c-1.5,0-2.26.19-2.82.56l-.56.56c-2.82,10.41-8.26,19.93-15.8,27.65-7.52,7.71-16.93,12.98-27.46,12.98h-14.48v18.62h114.54l-10.72-18.81c-8.84-1.32-16.93-6.02-23.32-12.79-7.54-7.72-12.98-17.23-15.8-27.65l-.56-.56c-.93-.48-1.97-.68-3.01-.56"
               id="path127" />
            <path
               class="cls-43"
               d="M503.31,475.43h.75v20.31c-.18,4.27-1.48,8.42-3.76,12.04-.94,3.01-1.88,1.88-4.33,5.45-3.17,1.09-6.45,1.85-9.78,2.26-4.7.75-15.05,1.5-20.5.19,7-2.14,13.34-6.02,18.43-11.28,1.4-1.5,2.72-3.07,3.95-4.7,2.1-2.61,3.98-5.37,5.64-8.28l1.88-3.76c.9-1.78,1.72-3.6,2.45-5.45.73-1.85,1.35-3.73,1.88-5.64l.56-.56,1.13-.38,1.69-.19Z"
               id="path128" />
            <path
               class="cls-64"
               d="M502.18,478.07c-.94,11.28-4.33,24.83-12.6,33.48-3.01,2.45-6.96,4.89-10.53,4.33,12.6-10.34,20.31-26.33,22.95-37.8h.19Z"
               id="path129" />
            <path
               class="cls-37"
               d="M491.84,497.63c-1.88,5.08-9.03,12.6-16.55,18.81h-5.45c4.7-.38,15.61-9.4,22.01-18.81"
               id="path130" />
          </g>
          <g
             id="g137">
            <path
               class="cls-55"
               d="M478.67,476.37c5.27,19.75,22.19,39.87,42.51,39.87h15.23v20.31h-123.76v-20.31h15.05c20.31,0,37.43-20.12,42.51-40.06,0,0,1.13-1.5,4.33-1.5s4.14,1.5,4.14,1.5v.19Z"
               id="path131" />
            <path
               class="cls-44"
               d="M474.54,475.43c1.5,0,2.26.38,2.82.56l.56.56c2.82,10.41,8.26,19.93,15.8,27.65,7.52,7.71,16.93,12.98,27.46,12.98h14.48v18.62h-122.25v-18.81h14.48c10.34,0,19.94-5.08,27.46-12.79,7.47-7.74,12.84-17.25,15.61-27.65l.56-.56c.93-.46,1.97-.66,3.01-.56"
               id="path132" />
            <path
               class="cls-43"
               d="M473.22,475.43c-.19,0-.38,0-.56,0l-1.13.56-.56.56c-.52,1.91-1.15,3.8-1.88,5.64-.66,1.92-1.42,3.8-2.26,5.64-.59,1.21-1.22,2.4-1.88,3.57-1.66,2.9-3.55,5.67-5.64,8.28-1.24,1.57-2.56,3.08-3.95,4.51-5.07,5.33-11.41,9.28-18.43,11.47,5.27,1.32,7.52,0,12.23-.75,3.76-.56,7.9-1.13,11.28-2.26,2.82-3.76,1.88-2.45,2.82-5.45,2.26-4.14,5.64-7.9,6.39-12.6,3.01-5.64,3.57-16.17,3.57-19.18"
               id="path133" />
            <path
               class="cls-64"
               d="M473.22,478.07c-.75,11.28-4.33,24.83-12.6,33.48-3.01,2.45-6.77,4.89-10.53,4.33,12.79-10.34,20.5-26.33,23.13-37.8"
               id="path134" />
            <path
               class="cls-37"
               d="M462.88,497.63c-4.09,7.39-9.74,13.81-16.55,18.81h-5.27c4.7-.38,15.42-9.4,21.82-18.81"
               id="path135" />
            <path
               class="cls-43"
               d="M476.42,475.62l.94.38.75.56c.53,1.91,1.16,3.79,1.88,5.64.66,1.92,1.41,3.8,2.26,5.64l1.88,3.57c1.66,2.9,3.55,5.67,5.64,8.28,1.24,1.57,2.56,3.08,3.95,4.51,5.04,5.54,11.37,9.74,18.43,12.23-13.73,0-19.56-1.13-24.45-7.52-3.56-3.76-6.25-8.26-7.9-13.17-.94-3.76-3.76-12.23-3.57-20.12h.19Z"
               id="path136" />
            <path
               class="cls-64"
               d="M477.36,478.07c.75,11.28,4.14,22.57,12.41,31.22,3.01,2.63,6.77,4.89,10.53,4.33-11.82-8.57-20-21.25-22.95-35.55"
               id="path137" />
          </g>
          <g
             id="ni-w">
            <path
               class="cls-36"
               d="M445.95,474.49c-3.39,0-4.33,1.69-4.33,1.69-4.7,18.43-22.19,41.94-40.44,44.76l-9.03,15.61h92.16v-21.25c-16.55-4.51-29.9-22.01-34.23-39.12,0,0-.94-1.5-4.33-1.5l.19-.19Z"
               id="path138" />
            <path
               class="cls-44"
               d="M445.95,475.43c-1.5,0-2.45.38-3.01.56l-.56.56c-3.16,10.32-8.34,19.91-15.23,28.21-6.39,8.09-18.24,16.17-26.33,16.93l-8.09,14.11h90.28v-20.12c-6.79-2.24-12.93-6.12-17.87-11.28-7.57-7.77-13.01-17.36-15.8-27.84l-.56-.56c-.87-.44-1.85-.63-2.82-.56"
               id="path139" />
            <path
               class="cls-70"
               d="M443.32,478.07c-1.13,16.93-10.53,38.56-21.25,42.13-3.57,1.32-9.59,1.69-11.66,1.88,16.77-9.32,28.8-25.31,33.1-44.01h-.19Z"
               id="path140" />
            <path
               class="cls-43"
               d="M445.95,475.43h-.94v20.31c0,4.33,1.69,7.9,3.76,12.04l.38.94c.94,2.07,1.5,2.82,4.33,5.08,8.08,5.76,17.96,8.43,27.84,7.52-2.07-1.69-4.33-3.2-6.39-4.51l8.46-.94c-6.97-2.28-13.25-6.29-18.24-11.66-.91-.91-1.79-1.85-2.63-2.82l-1.13-1.5c-2.23-2.66-4.24-5.49-6.02-8.46-.67-1.23-1.3-2.49-1.88-3.76-1.15-2.38-2.16-4.83-3.01-7.34-.42-1.24-.79-2.5-1.13-3.76l-.56-.56c-.36-.18-.74-.31-1.13-.38-.62-.15-1.25-.21-1.88-.19h.19Z"
               id="path141" />
            <path
               class="cls-47"
               d="M447.08,478.07c.94,11.28,4.33,24.83,12.6,33.48,3.01,2.45,6.77,4.89,10.53,4.33-11.47-9.87-19.56-23.09-23.13-37.8"
               id="path142" />
            <path
               class="cls-37"
               d="M454.98,493.87c6.09,11.92,15.67,21.69,27.46,28.02h4.7c-8.28-4.51-21.63-10.91-31.97-28.21l-.19.19Z"
               id="path143" />
          </g>
          <g
             id="ni-w-2"
             data-name="ni-w">
            <path
               class="cls-76"
               d="M416.98,474.49c-3.39,0-4.33,1.69-4.33,1.69-4.7,18.43-22.19,41.94-40.44,44.76l-9.03,15.61h92.16v-21.25c-16.55-4.51-29.9-22.01-34.23-39.12,0,0-.94-1.5-4.33-1.5l.19-.19Z"
               id="path144" />
            <path
               class="cls-44"
               d="M416.98,475.43c-1.5,0-2.45.38-3.01.56l-.56.56c-3.16,10.32-8.34,19.91-15.23,28.21-6.39,8.09-18.24,16.17-26.33,16.93l-8.09,14.11h90.28v-20.12c-6.79-2.24-12.93-6.12-17.87-11.28-7.57-7.77-13.01-17.36-15.8-27.84l-.56-.56c-.87-.44-1.85-.63-2.82-.56"
               id="path145" />
            <path
               class="cls-70"
               d="M414.35,478.07c-1.13,16.93-10.53,38.56-21.25,42.13-3.57,1.32-9.59,1.69-11.66,1.88,16.77-9.32,28.8-25.31,33.1-44.01h-.19Z"
               id="path146" />
            <path
               class="cls-43"
               d="M416.98,475.43h-.94v20.31c0,4.33,1.69,7.9,3.76,12.04l.38.94c.94,2.07,1.5,2.82,4.33,5.08,8.08,5.76,17.96,8.43,27.84,7.52-2.07-1.69-4.33-3.2-6.39-4.51l8.46-.94c-6.97-2.28-13.25-6.29-18.24-11.66-.91-.91-1.79-1.85-2.63-2.82l-1.13-1.5c-2.23-2.66-4.24-5.49-6.02-8.46-.67-1.23-1.3-2.49-1.88-3.76-1.15-2.38-2.16-4.83-3.01-7.34-.42-1.24-.79-2.5-1.13-3.76l-.56-.56c-.36-.18-.74-.31-1.13-.38-.62-.15-1.25-.21-1.88-.19h.19Z"
               id="path147" />
            <path
               class="cls-64"
               d="M418.11,478.07c.94,11.28,4.33,24.83,12.6,33.48,3.01,2.45,6.77,4.89,10.53,4.33-11.47-9.87-19.56-23.09-23.13-37.8"
               id="path148" />
            <path
               class="cls-37"
               d="M426.01,493.87c6.09,11.92,15.67,21.69,27.46,28.02h4.7c-8.28-4.51-21.63-10.91-31.97-28.21l-.19.19Z"
               id="path149" />
          </g>
        </g>
        <path
           class="cls-57"
           d="M580.8,526.59c-1.13.38-8.28-.38-12.04,0l-2.45.56h-6.21c-6.77,0-12.6,1.88-19,1.88s-12.23-1.88-18.81-1.88h-6.39c-6.77,0-12.6,1.88-19,1.88s-12.23-1.88-18.81-1.88h-6.39c-6.77,0-12.6,1.88-18.81,1.88-6.58,0-12.23-1.88-19-1.88h-6.39c-6.77,0-12.41,1.88-18.81,1.88s-12.23-1.88-19-1.88h-6.39c-5.27,0-11.66,1.13-16.74,1.5l-11.85,20.5h239.62l-13.54-22.57Z"
           id="path150" />
        <path
           class="cls-38"
           d="M564.82,523.58h-1.13c-6.02.19-10.53,2.07-21.07,2.07s-11.66-1.88-23.7-1.5c-11.28,0-15.8,2.26-22.01,2.26s-15.8-1.32-23.51-.56c-7.52.75-16.55,2.45-22.57,2.45-7.34,0-14.67-1.32-22.19-.56-7.71.75-11.28,2.82-20.88,2.82-8.28,0-16.93-1.32-24.07-1.32-6.39,0-13.54,1.88-18.81,2.63l-1.69,2.82c4.33-.56,16.17-2.45,20.31-2.45,4.51,0,20.12.94,28.78.56,8.84-.19,9.78-2.26,20.12-2.26,7.15,0,12.41.75,19.75.75,4.7,0,8.84-2.26,15.8-2.26l5.27-.19c5.83-.94,15.8,0,22.57.38,6.21.38,10.34-1.13,16.93-1.32l8.28-.19c6.58-.38,12.04,1.13,18.24,1.13,6.02-.38,12.04-1.88,18.43-1.88l8.46-.38c4.33,0,11.1,0,15.61.94l-1.5-2.63c-4.51-.19-9.97-1.32-15.42-1.32"
           id="path151" />
        <g
           id="ni-A">
          <path
             id="ni-z"
             class="cls-58"
             d="M381.06,545.59c-6.39,0-12.04,1.5-18.06,1.69-2.27-.06-4.53-.25-6.77-.56l-.94,1.5h11.28c6.58,0,12.04-1.5,18.06-1.69,6.21.19,11.66,1.88,18.24,1.88h8.46c6.39,0,12.04-1.69,18.06-1.88,6.21.19,11.85,1.88,18.24,1.88h8.46c6.58,0,12.04-1.69,18.24-1.88,6.02.19,11.47,1.88,18.06,1.88h8.46c6.39,0,12.04-1.69,18.24-1.88,6.02.19,11.66,1.88,18.06,1.88h8.46c6.58,0,12.04-1.69,18.06-1.88,6.21.19,11.66,1.88,18.24,1.88h8.46l3.39-.19-.94-1.5c-1.88.19-3.95.56-6.02.56-6.21,0-11.66-1.88-18.24-1.88h-8.46c-6.39,0-12.04,1.88-18.06,1.88-6.21-.19-11.66-1.88-18.24-1.88h-8.46c-6.39,0-12.04,1.88-18.06,1.88-6.21-.19-11.66-1.88-18.24-1.88h-8.46c-6.58,0-12.04,1.88-18.06,1.88-6.21-.19-11.66-1.88-18.24-1.88h-8.46c-6.39,0-12.04,1.88-18.06,1.88-6.21-.19-11.66-1.88-18.24-1.88h-8.46v.19Z" />
          <path
             id="ni-z-2"
             data-name="ni-z"
             class="cls-40"
             d="M381.06,543.14c-6.39,0-12.04,1.5-18.06,1.69-2.27-.06-4.53-.25-6.77-.56l-.94,1.5h11.28c6.58,0,12.04-1.5,18.06-1.69,6.21.19,11.66,1.88,18.24,1.88h8.46c6.39,0,12.04-1.69,18.06-1.88,6.21.19,11.85,1.88,18.24,1.88h8.46c6.58,0,12.04-1.69,18.24-1.88,6.02.19,11.47,1.88,18.06,1.88h8.46c6.39,0,12.04-1.69,18.24-1.88,6.02.19,11.66,1.88,18.06,1.88h8.46c6.58,0,12.04-1.69,18.06-1.88,6.21.19,11.66,1.88,18.24,1.88h8.46l3.39-.19-.94-1.5c-1.88.19-3.95.56-6.02.56-6.21,0-11.66-1.88-18.24-1.88h-8.46c-6.39,0-12.04,1.88-18.06,1.88-6.21-.19-11.66-1.88-18.24-1.88h-8.46c-6.39,0-12.04,1.88-18.06,1.88-6.21-.19-11.66-1.88-18.24-1.88h-8.46c-6.58,0-12.04,1.88-18.06,1.88-6.21-.19-11.66-1.88-18.24-1.88h-8.46c-6.39,0-12.04,1.88-18.06,1.88-6.21-.19-11.66-1.88-18.24-1.88h-8.46v.19Z" />
          <path
             id="ni-z-3"
             data-name="ni-z"
             class="cls-56"
             d="M381.06,540.7c-6.39,0-12.04,1.5-18.06,1.69-2.27-.06-4.53-.25-6.77-.56l-.94,1.5h11.28c6.58,0,12.04-1.5,18.06-1.69,6.21.19,11.66,1.88,18.24,1.88h8.46c6.39,0,12.04-1.69,18.06-1.88,6.21.19,11.85,1.88,18.24,1.88h8.46c6.58,0,12.04-1.69,18.24-1.88,6.02.19,11.47,1.88,18.06,1.88h8.46c6.39,0,12.04-1.69,18.24-1.88,6.02.19,11.66,1.88,18.06,1.88h8.46c6.58,0,12.04-1.69,18.06-1.88,6.21.19,11.66,1.88,18.24,1.88h8.46l3.39-.19-.94-1.5c-1.88.19-3.95.56-6.02.56-6.21,0-11.66-1.88-18.24-1.88h-8.46c-6.39,0-12.04,1.88-18.06,1.88-6.21-.19-11.66-1.88-18.24-1.88h-8.46c-6.39,0-12.04,1.88-18.06,1.88-6.21-.19-11.66-1.88-18.24-1.88h-8.46c-6.58,0-12.04,1.88-18.06,1.88-6.21-.19-11.66-1.88-18.24-1.88h-8.46c-6.39,0-12.04,1.88-18.06,1.88-6.21-.19-11.66-1.88-18.24-1.88h-8.46v.19Z" />
        </g>
        <g
           id="ni-A-2"
           data-name="ni-A">
          <path
             id="ni-z-4"
             data-name="ni-z"
             class="cls-53"
             d="M381.06,538.25c-6.39,0-12.04,1.5-18.06,1.69-2.27-.06-4.53-.25-6.77-.56l-.94,1.5h11.28c6.58,0,12.04-1.5,18.06-1.69,6.21.19,11.66,1.88,18.24,1.88h8.46c6.39,0,12.04-1.69,18.06-1.88,6.21.19,11.85,1.88,18.24,1.88h8.46c6.58,0,12.04-1.69,18.24-1.88,6.02.19,11.47,1.88,18.06,1.88h8.46c6.39,0,12.04-1.69,18.24-1.88,6.02.19,11.66,1.88,18.06,1.88h8.46c6.58,0,12.04-1.69,18.06-1.88,6.21.19,11.66,1.88,18.24,1.88h8.46l3.39-.19-.94-1.5c-1.88.19-3.95.56-6.02.56-6.21,0-11.66-1.88-18.24-1.88h-8.46c-6.39,0-12.04,1.88-18.06,1.88-6.21-.19-11.66-1.88-18.24-1.88h-8.46c-6.39,0-12.04,1.88-18.06,1.88-6.21-.19-11.66-1.88-18.24-1.88h-8.46c-6.58,0-12.04,1.88-18.06,1.88-6.21-.19-11.66-1.88-18.24-1.88h-8.46c-6.39,0-12.04,1.88-18.06,1.88-6.21-.19-11.66-1.88-18.24-1.88h-8.46v.19Z" />
          <path
             id="ni-z-5"
             data-name="ni-z"
             class="cls-74"
             d="M381.06,535.81c-6.39,0-12.04,1.5-18.06,1.69-2.27-.06-4.53-.25-6.77-.56l-.94,1.5h11.28c6.58,0,12.04-1.5,18.06-1.69,6.21.19,11.66,1.88,18.24,1.88h8.46c6.39,0,12.04-1.69,18.06-1.88,6.21.19,11.85,1.88,18.24,1.88h8.46c6.58,0,12.04-1.69,18.24-1.88,6.02.19,11.47,1.88,18.06,1.88h8.46c6.39,0,12.04-1.69,18.24-1.88,6.02.19,11.66,1.88,18.06,1.88h8.46c6.58,0,12.04-1.69,18.06-1.88,6.21.19,11.66,1.88,18.24,1.88h8.46l3.39-.19-.94-1.5c-1.88.19-3.95.56-6.02.56-6.21,0-11.66-1.88-18.24-1.88h-8.46c-6.39,0-12.04,1.88-18.06,1.88-6.21-.19-11.66-1.88-18.24-1.88h-8.46c-6.39,0-12.04,1.88-18.06,1.88-6.21-.19-11.66-1.88-18.24-1.88h-8.46c-6.58,0-12.04,1.88-18.06,1.88-6.21-.19-11.66-1.88-18.24-1.88h-8.46c-6.39,0-12.04,1.88-18.06,1.88-6.21-.19-11.66-1.88-18.24-1.88h-8.46v.19Z" />
          <path
             id="ni-z-6"
             data-name="ni-z"
             class="cls-54"
             d="M381.06,533.36c-6.39,0-12.04,1.5-18.06,1.69-2.27-.06-4.53-.25-6.77-.56l-.94,1.5h11.28c6.58,0,12.04-1.5,18.06-1.69,6.21.19,11.66,1.88,18.24,1.88h8.46c6.39,0,12.04-1.69,18.06-1.88,6.21.19,11.85,1.88,18.24,1.88h8.46c6.58,0,12.04-1.69,18.24-1.88,6.02.19,11.47,1.88,18.06,1.88h8.46c6.39,0,12.04-1.69,18.24-1.88,6.02.19,11.66,1.88,18.06,1.88h8.46c6.58,0,12.04-1.69,18.06-1.88,6.21.19,11.66,1.88,18.24,1.88h8.46l3.39-.19-.94-1.5c-1.88.19-3.95.56-6.02.56-6.21,0-11.66-1.88-18.24-1.88h-8.46c-6.39,0-12.04,1.88-18.06,1.88-6.21-.19-11.66-1.88-18.24-1.88h-8.46c-6.39,0-12.04,1.88-18.06,1.88-6.21-.19-11.66-1.88-18.24-1.88h-8.46c-6.58,0-12.04,1.88-18.06,1.88-6.21-.19-11.66-1.88-18.24-1.88h-8.46c-6.39,0-12.04,1.88-18.06,1.88-6.21-.19-11.66-1.88-18.24-1.88h-8.46v.19Z" />
        </g>
        <g
           id="ni-A-3"
           data-name="ni-A">
          <path
             id="ni-z-7"
             data-name="ni-z"
             class="cls-75"
             d="M381.06,531.11c-6.39,0-12.04,1.5-18.06,1.69-2.27-.06-4.53-.25-6.77-.56l-.94,1.5h11.28c6.58,0,12.04-1.5,18.06-1.69,6.21.19,11.66,1.88,18.24,1.88h8.46c6.39,0,12.04-1.69,18.06-1.88,6.21.19,11.85,1.88,18.24,1.88h8.46c6.58,0,12.04-1.69,18.24-1.88,6.02.19,11.47,1.88,18.06,1.88h8.46c6.39,0,12.04-1.69,18.24-1.88,6.02.19,11.66,1.88,18.06,1.88h8.46c6.58,0,12.04-1.69,18.06-1.88,6.21.19,11.66,1.88,18.24,1.88h8.46l3.39-.19-.94-1.5c-1.88.19-3.95.56-6.02.56-6.21,0-11.66-1.88-18.24-1.88h-8.46c-6.39,0-12.04,1.88-18.06,1.88-6.21-.19-11.66-1.88-18.24-1.88h-8.46c-6.39,0-12.04,1.88-18.06,1.88-6.21-.19-11.66-1.88-18.24-1.88h-8.46c-6.58,0-12.04,1.88-18.06,1.88-6.21-.19-11.66-1.88-18.24-1.88h-8.46c-6.39,0-12.04,1.88-18.06,1.88-6.21-.19-11.66-1.88-18.24-1.88h-8.46v.19Z" />
          <path
             id="ni-z-8"
             data-name="ni-z"
             class="cls-69"
             d="M381.06,528.66c-6.39,0-12.04,1.5-18.06,1.69-2.27-.06-4.53-.25-6.77-.56l-.94,1.5h11.28c6.58,0,12.04-1.5,18.06-1.69,6.21.19,11.66,1.88,18.24,1.88h8.46c6.39,0,12.04-1.69,18.06-1.88,6.21.19,11.85,1.88,18.24,1.88h8.46c6.58,0,12.04-1.69,18.24-1.88,6.02.19,11.47,1.88,18.06,1.88h8.46c6.39,0,12.04-1.69,18.24-1.88,6.02.19,11.66,1.88,18.06,1.88h8.46c6.58,0,12.04-1.69,18.06-1.88,6.21.19,11.66,1.88,18.24,1.88h8.46l3.39-.19-.94-1.5c-1.88.19-3.95.56-6.02.56-6.21,0-11.66-1.88-18.24-1.88h-8.46c-6.39,0-12.04,1.88-18.06,1.88-6.21-.19-11.66-1.88-18.24-1.88h-8.46c-6.39,0-12.04,1.88-18.06,1.88-6.21-.19-11.66-1.88-18.24-1.88h-8.46c-6.58,0-12.04,1.88-18.06,1.88-6.21-.19-11.66-1.88-18.24-1.88h-8.46c-6.39,0-12.04,1.88-18.06,1.88-6.21-.19-11.66-1.88-18.24-1.88h-8.46v.19Z" />
          <path
             id="ni-z-9"
             data-name="ni-z"
             class="cls-77"
             d="M381.06,526.22c-6.39,0-12.04,1.5-18.06,1.69-2.27-.06-4.53-.25-6.77-.56l-.94,1.5h11.28c6.58,0,12.04-1.5,18.06-1.69,6.21.19,11.66,1.88,18.24,1.88h8.46c6.39,0,12.04-1.69,18.06-1.88,6.21.19,11.85,1.88,18.24,1.88h8.46c6.58,0,12.04-1.69,18.24-1.88,6.02.19,11.47,1.88,18.06,1.88h8.46c6.39,0,12.04-1.69,18.24-1.88,6.02.19,11.66,1.88,18.06,1.88h8.46c6.58,0,12.04-1.69,18.06-1.88,6.21.19,11.66,1.88,18.24,1.88h8.46l3.39-.19-.94-1.5c-1.88.19-3.95.56-6.02.56-6.21,0-11.66-1.88-18.24-1.88h-8.46c-6.39,0-12.04,1.88-18.06,1.88-6.21-.19-11.66-1.88-18.24-1.88h-8.46c-6.39,0-12.04,1.88-18.06,1.88-6.21-.19-11.66-1.88-18.24-1.88h-8.46c-6.58,0-12.04,1.88-18.06,1.88-6.21-.19-11.66-1.88-18.24-1.88h-8.46c-6.39,0-12.04,1.88-18.06,1.88-6.21-.19-11.66-1.88-18.24-1.88h-8.46v.19Z" />
        </g>
        <path
           class="cls-44"
           d="M369.02,526.59l-4.7,7.9c5.45-.94,13.35-3.2,20.12-3.2s15.05,1.69,23.32,1.88c9.4,0,13.17-2.26,20.69-3.01,7.71-.75,15.05.94,22.57,1.13,5.83,0,14.86-2.07,22.57-2.82,7.52-.94,14.48.56,23.51.56,9.22.19,10.72-2.26,21.82-2.45,12.04-.19,13.17,1.69,23.7,1.69,7.9.38,14.86-1.69,22.01-2.07,7.15-.56,10.34,0,15.61,0l-3.57-6.02-190.53,4.33-17.12,2.07Z"
           id="path152" />
        <path
           class="cls-57"
           d="M568.58,526.4l7.52.56c1.82.22,3.63.41,5.45.56l-.75-.94c-1.13.38-8.28-.38-12.04,0l-.19-.19Z"
           id="path153" />
      </g>
    </g>
    <path
       class="cls-61"
       d="M474.61,338.86l-60.39,104.69-61.71,107.12h244.21l-60.39-104.69-61.71-107.12ZM474.61,344.37l59.51,102.93,57.97,100.51h-234.73l59.29-102.71,57.97-100.73Z"
       id="path154" />
  </g>
</svg>
