<svg xmlns="http://www.w3.org/2000/svg" fill="none" viewBox="0 0 60 45"><g clip-path="url(#a)"><path fill="#009543" d="M0 0h60v45H0Z"/><path fill="#ed4135" d="M0 0h60v30H0Z"/><path fill="#0035ad" d="M0 0h60v15H0Z"/><path fill="#fae600" d="M22.5 37.25a14.75 14.75 0 1 0 0-29.5 14.75 14.75 0 0 0 0 29.5z"/><path fill="#000" fill-rule="evenodd" d="M22.5 8a14.5 14.5 0 1 0 0 29 14.5 14.5 0 0 0 0-29Zm-15 14.5a15 15 0 1 1 30 0 15 15 0 0 1-30 0z" clip-rule="evenodd"/><path fill="#000" d="M20 24.7h5zm0-3.7h5zm2.5-13.2V33z"/><path fill="#000" fill-rule="evenodd" d="M22.2 20.7V7.8h.6v12.9H25v.6h-2.2v3.1H25v.6h-2.2v8h-.6v-8H20v-.6h2.2v-3.1H20v-.6z" clip-rule="evenodd"/><path fill="#000" d="M16.56 36.04c6.01 2.46 11.66.16 11.66.16S26.09 33.9 25 33c-1.07-.9-4.2-.85-5.27 0a45.8 45.8 0 0 0-3.17 3.04zM22.5 31.7c.91 0 1.65-1.08 1.65-2.4 0-1.33-.74-2.4-1.65-2.4-.91 0-1.65 1.07-1.65 2.4 0 1.32.74 2.4 1.65 2.4zM22.5 24.11c1.1 0 2-.56 2-1.26s-.9-1.27-2-1.27-2 .57-2 1.27c0 .7.9 1.26 2 1.26zM22.5 19a2 2 0 1 0 0-4 2 2 0 0 0 0 4z"/><path fill="#000" d="M24.9 9.55s.17.28-.19.94c-1.74 3.14-3.5 3.2-3.82 3.48-.38.3-.53.28-.53.28.03-.27.05-1.37.07-1.47.27-1.47 2.48-1.45 4.22-2.95.27-.24.25-.29.25-.29Zm-5.85 6.75s.4 1.13.45 2.25c.1 1.8 1.82 1.85 3 1.85v-1c-.9 0-1.66-.13-2.3-1.45a11.5 11.5 0 0 0-1.15-1.65zM19 30.8s.63-.78 1.37-2.6c.38-.95 1.3-1.5 2.13-1.5v-1.4c-1.9 0-2.81.7-2.9 1.74a30.86 30.86 0 0 1-.6 3.76zM25.95 16.3s-.4 1.13-.45 2.25c-.1 1.8-1.82 1.85-3 1.85v-1c.9 0 1.66-.12 2.3-1.45.33-.58.72-1.13 1.15-1.65zM26 30.8s-.63-.78-1.37-2.6a2.37 2.37 0 0 0-2.13-1.5v-1.39c1.9 0 2.81.7 2.9 1.75.13 1.26.32 2.51.6 3.75z"/></g><defs><clipPath id="a"><path fill="#fff" d="M0 0h60v45H0z"/></clipPath></defs></svg>