<?xml version="1.0" encoding="UTF-8" standalone="no"?>
<svg
   id="Layer_1"
   data-name="Layer 1"
   viewBox="0 0 960 960"
   version="1.1"
   sodipodi:docname="py.svg"
   inkscape:version="1.4 (86a8ad7, 2024-10-11)"
   xmlns:inkscape="http://www.inkscape.org/namespaces/inkscape"
   xmlns:sodipodi="http://sodipodi.sourceforge.net/DTD/sodipodi-0.dtd"
   xmlns="http://www.w3.org/2000/svg"
   xmlns:svg="http://www.w3.org/2000/svg">
  <sodipodi:namedview
     id="namedview149"
     pagecolor="#ffffff"
     bordercolor="#666666"
     borderopacity="1.0"
     inkscape:showpageshadow="2"
     inkscape:pageopacity="0.0"
     inkscape:pagecheckerboard="0"
     inkscape:deskcolor="#d1d1d1"
     inkscape:zoom="0.42447917"
     inkscape:cx="431.11656"
     inkscape:cy="543.0184"
     inkscape:window-width="1920"
     inkscape:window-height="1017"
     inkscape:window-x="-8"
     inkscape:window-y="-8"
     inkscape:window-maximized="1"
     inkscape:current-layer="Layer_1" />
  <defs
     id="defs1">
    <style
       id="style1">
      .cls-1 {
        fill: #fedf00;
        stroke-width: .5px;
      }

      .cls-1, .cls-2, .cls-3, .cls-4, .cls-5 {
        stroke: #000;
      }

      .cls-6 {
        fill: #0038a8;
      }

      .cls-6, .cls-7, .cls-8, .cls-9, .cls-10 {
        stroke-width: 0px;
      }

      .cls-2 {
        fill: #009b3a;
        stroke-width: .1px;
      }

      .cls-8 {
        fill: #fff;
      }

      .cls-3 {
        stroke-width: 1.71px;
      }

      .cls-3, .cls-4, .cls-5 {
        fill: none;
        stroke-miterlimit: 6.21;
      }

      .cls-9 {
        fill: #eee;
      }

      .cls-4 {
        stroke-width: .78px;
      }

      .cls-10 {
        fill: #d52b1e;
      }

      .cls-11 {
        mask: url(#mask);
      }

      .cls-5 {
        stroke-width: .62px;
      }
    </style>
    <mask
       id="mask"
       x="-.25"
       y=".09"
       width="959.91"
       height="959.91"
       maskUnits="userSpaceOnUse">
      <g
         id="a">
        <circle
           class="cls-8"
           cx="479.7"
           cy="480.04"
           r="479.96"
           id="circle1" />
      </g>
    </mask>
  </defs>
  <g
     class="cls-11"
     mask="url(#mask)"
     id="g4">
    <g
       id="g3">
      <path
         class="cls-9"
         d="M-.25,271.38l478.64-68.43,481.27,68.43v417.34l-490.27,74.43L-.25,688.71v-417.34Z"
         id="path1" />
      <path
         class="cls-10"
         d="M-.25.09h959.91v271.29H-.25V.09Z"
         id="path2" />
      <path
         class="cls-6"
         d="M-.25,688.71h959.91v271.29H-.25v-271.29Z"
         id="path3" />
    </g>
  </g>
  <g
     id="g149">
    <g
       id="g6">
      <circle
         class="cls-3"
         cx="486.24"
         cy="478.86"
         r="166.17"
         id="circle4" />
      <circle
         class="cls-4"
         cx="486.24"
         cy="478.86"
         r="136.63"
         id="circle5" />
      <circle
         class="cls-5"
         cx="486.24"
         cy="478.86"
         r="104.74"
         id="circle6" />
    </g>
    <path
       class="cls-7"
       d="M397.77,543.07l-19.29,11.42-5.84-10.15c-.88-1.33-1.56-2.79-2.03-4.31-.21-1.13-.03-2.29.51-3.3.51-1.27,1.27-2.03,2.54-2.79,1.84-1.17,4.16-1.26,6.09-.25l2.03,1.52c-.08-.59-.08-1.19,0-1.78l.25-1.52.76-1.78,3.81-6.09,4.06,6.6-4.06,6.85c-.4.61-.66,1.31-.76,2.03-.06.52.03,1.05.25,1.52l.51.51,7.61-4.57,3.55,6.09ZM382.8,543.83l-1.52-2.54c-.3-.53-.64-1.04-1.02-1.52-.34-.33-.8-.51-1.27-.51-.44-.06-.88.03-1.27.25-.76.51-1.02.76-1.27,1.52l1.02,2.54,1.52,2.54,3.81-2.28ZM364.78,528.86l-5.84-17.77,4.57-1.27,3.55,10.91,3.3-1.02-3.3-10.15,4.31-1.52,3.3,10.15,4.31-1.27-3.81-11.42,5.08-1.52,5.84,17.77-21.32,7.11ZM357.17,502.72l-1.52-11.42c0-2.54,0-4.57,1.27-5.84,1.02-1.27,2.54-2.28,4.82-2.54,2.28,0,4.06.25,5.58,1.52,1.27,1.27,2.28,3.3,2.54,6.09l.51,3.55,8.12-.76.76,6.85-22.08,2.54ZM365.8,494.85l-.25-1.78c0-1.27-.51-2.28-1.02-2.54-.45-.5-1.1-.78-1.78-.76-.67,0-1.31.28-1.78.76-.51.51-.51,1.52-.51,2.79l.25,2.03,5.08-.51ZM356.41,460.59l.76-6.85,13.2,1.52c1.27,0,2.54.51,3.55,1.02,1.27.51,2.28,1.27,3.05,2.28l1.52,3.05c.39,1.58.39,3.24,0,4.82,0,1.02,0,2.28-.51,3.55,0,1.27-.51,2.28-1.27,3.05l-2.03,2.03c-.83.62-1.78,1.05-2.79,1.27-1.52.25-2.54.51-3.81.25l-13.2-1.52.76-6.85,13.45,1.52c1.27,0,2.28,0,3.05-.76.76-.51,1.02-1.52,1.27-2.54.2-1.08-.08-2.19-.76-3.05-.51-.76-1.52-1.02-2.54-1.27l-13.7-1.52ZM359.2,444.34l4.31-12.44c.76-2.03,1.78-3.3,3.3-4.06,1.33-.72,2.91-.82,4.31-.25,2.1.78,3.44,2.84,3.3,5.08,1.02-1.52,2.03-2.54,3.05-2.54,1.22-.49,2.59-.49,3.81,0,2.07.68,3.62,2.43,4.06,4.57v2.54l-1.02,3.05-3.81,11.42-21.32-7.36ZM369.86,440.54l1.02-2.79c.51-1.02.51-1.78.25-2.54,0-.25-.51-.76-1.27-1.02-.56-.27-1.22-.27-1.78,0l-1.27,2.03-1.02,3.05,4.06,1.27ZM378.23,443.58l1.27-3.55v-2.54c-.2-.6-.67-1.07-1.27-1.27-.56-.27-1.22-.27-1.78,0-.51.51-1.02,1.27-1.27,2.54l-1.27,3.3,4.31,1.52ZM369.86,417.44l3.55-6.09,14.47,8.63,5.58-9.14,4.82,2.79-9.14,15.23-19.29-11.42ZM383.56,396.89l4.31-5.33,17.26,14.21-4.57,5.33-17-14.21ZM413.51,385.21l5.84-2.54c.76,1.52,1.27,3.05,1.27,4.57.09,1.4-.17,2.79-.76,4.06-.76,1.45-1.79,2.75-3.05,3.81-1.46,1.35-3.19,2.39-5.08,3.05-1.78.51-3.55.51-5.58,0-2.32-.84-4.35-2.34-5.84-4.31-2.54-2.54-3.55-5.58-3.3-8.38,0-2.79,1.52-5.33,4.31-7.61,1.67-1.61,3.8-2.67,6.09-3.05,2.22-.2,4.46.33,6.34,1.52l-3.81,5.08c-.46-.34-.98-.6-1.52-.76-.58-.13-1.19-.13-1.78,0-.67.18-1.28.53-1.78,1.02-1.27,1.02-1.78,2.28-1.52,3.81,0,1.02.76,2.54,2.28,3.81,1.52,2.03,3.05,3.05,4.06,3.3,1.27,0,2.28,0,3.3-1.02s1.52-1.78,1.52-2.79-.25-2.28-1.02-3.55M437.37,376.58l-6.85,3.81.76,3.81-6.34,3.3-3.05-23.86,6.6-3.55,18.02,15.99-6.34,3.3-2.79-2.79ZM433.81,373.03l-5.84-5.84,1.52,8.12,4.31-2.28ZM455.13,350.19l10.15-1.78c1.67-.36,3.4-.36,5.08,0,1.27.25,2.28.76,3.3,1.78,1.02.76,1.78,1.78,2.54,3.05l1.02,4.31c.51,2.54.51,4.31,0,5.58-.21,1.37-.73,2.67-1.52,3.81-.66.95-1.52,1.73-2.54,2.28l-4.06,1.27-10.15,1.78-3.81-22.08ZM462.75,353.99l2.03,11.93h1.78c1.27-.51,2.54-.76,2.79-1.27.76-.25,1.02-1.02,1.27-1.78v-4.06c-.51-2.28-1.27-3.81-2.03-4.57-1.02-.76-2.54-1.02-4.06-.51l-1.78.25ZM483.81,346.38l18.53.51v5.08l-11.67-.51-.25,3.55,10.66.25v4.57l-10.91-.25v4.31l11.93.51-.25,5.08-19.03-.76,1.02-22.33ZM510.71,348.41l6.85,1.52-4.06,16.5,10.41,2.54-1.27,5.33-17.26-4.06,5.33-21.83ZM546.75,360.34l9.9,5.84c2.28,1.27,3.55,2.54,4.06,4.31.25,1.78,0,3.55-1.02,5.33-.92,1.8-2.6,3.1-4.57,3.55-1.78.51-3.81,0-6.34-1.52l-3.3-1.78-4.06,7.11-6.09-3.55,11.42-19.29ZM548.02,372.01l1.27,1.02,2.79.76c.63-.11,1.18-.48,1.52-1.02.45-.57.64-1.31.51-2.03-.25-.76-.76-1.27-2.03-2.03l-1.52-1.02-2.54,4.31ZM567.31,398.15l-5.84-5.33-3.3,2.03-5.08-5.08,21.32-10.41,5.58,5.08-9.14,22.08-5.08-5.08,1.52-3.3ZM569.59,393.59l3.55-7.61-7.11,4.31,3.55,3.3ZM572.13,408.56l18.53-12.69,6.6,9.39,2.54,4.57-.25,3.3c-.51,1.02-1.27,2.03-2.54,2.79-.85.75-1.92,1.2-3.05,1.27-1.04.08-2.09-.09-3.05-.51-.75-.4-1.43-.92-2.03-1.52v3.55l-.76,1.52-3.55,6.34-4.31-6.34,3.55-6.85.76-2.03c0-.51,0-1.27-.51-1.78l-.51-.51-7.61,5.08-3.81-5.58ZM587.36,406.78l1.52,2.54,1.27,1.02c.29.43.76.7,1.27.76.25,0,.76,0,1.27-.51.56-.32.94-.88,1.02-1.52l-1.02-2.54-1.78-2.54-3.55,2.79ZM594.21,440.28l-3.05-7.36-3.81.25-2.54-6.34,23.86-.51,2.54,6.85-17.51,16.24-2.54-6.85,3.05-2.28ZM598.02,437.24l6.6-5.33-8.38.51,1.78,4.82ZM603.85,461.6l4.57-.76,1.78,10.66-9.64,1.52c-1.42-1.51-2.62-3.22-3.55-5.08-1.77-3.8-2.22-8.09-1.27-12.18.76-1.78,1.78-3.05,3.55-4.31,1.74-1.21,3.74-1.99,5.84-2.28,2.21-.42,4.48-.24,6.6.51,1.97.73,3.66,2.06,4.82,3.81.76,1.52,1.52,3.3,1.78,5.84.29,1.85.29,3.73,0,5.58-.14,1.19-.57,2.32-1.27,3.3l-3.3,2.54-2.28-6.6c.76-.25,1.27-.76,1.78-1.52.25-.76.51-1.78.25-2.54-.08-1.44-.83-2.75-2.03-3.55-1.27-.76-3.05-.76-5.08-.51-2.54.25-4.31,1.02-5.08,2.03-.94,1.13-1.31,2.62-1.02,4.06l.76,2.28,1.52,2.03h2.03l-.76-4.82ZM618.57,494.09l-.76,6.85-13.2-1.02c-1.23-.14-2.43-.48-3.55-1.02-1.18-.51-2.23-1.29-3.05-2.28-.7-.81-1.22-1.76-1.52-2.79-.39-1.66-.48-3.38-.25-5.08,0-1.02,0-2.28.51-3.55l1.02-3.05c.6-.91,1.38-1.68,2.28-2.28.75-.59,1.62-1.02,2.54-1.27,1.35-.21,2.71-.21,4.06,0l13.2,1.02-.51,6.85-13.7-1.27c-1.27,0-2.28,0-3.05.76-.76.76-1.02,1.52-1.27,2.79,0,1.27,0,2.03.76,2.79.76.76,1.52,1.27,2.79,1.27l13.7,1.27ZM593.7,517.94l2.54-7.61-3.05-2.28,2.03-6.6,18.78,14.97-2.54,7.11-23.86,1.02,2.54-6.85,3.55.25ZM598.78,517.94h8.38l-6.85-4.57-1.52,4.57ZM606.9,536.22l-4.06,6.6h-8.63l4.06,7.61-4.06,6.6-6.6-14.21-8.12-4.57,3.55-6.09,8.12,4.82,15.74-.76Z"
       id="path6" />
    <g
       id="g148">
      <path
         class="cls-2"
         d="M508.43,401.2s63.19,27.41,52.03,83.75c-10.91,56.09-46.19,55.83-59.89,61.92-13.96,6.34-23.35,15.23-28.93,13.96-5.33-1.27-12.69-5.58-12.69-5.58,0,0-.51,9.39,10.66,10.91,11.17,1.78,25.38-14.47,32.74-16.24s49.74-6.6,60.4-63.7c12.18-61.16-54.06-83.24-54.31-85.02h0Z"
         id="path7" />
      <path
         class="cls-2"
         d="M540.15,413.38c.83,4.47.36,7.16-1.05,6-.93-.76-2.08-3.06-3.01-6-1.41-4.47-1.87-9.02-1.04-10.18.83-1.15,2.65,1.53,4.06,6,.43,1.37.79,2.81,1.05,4.18ZM538.12,413.89c2.34,4.23,3.76,8.68,3.15,9.93-.6,1.26-2.99-1.15-5.34-5.38-.59-1.06-1.14-2.18-1.62-3.28-1.9-4.38-2.23-7.47-.73-6.92,1.08.4,2.85,2.61,4.54,5.65ZM531.78,417.95c4.67,1.37,8.34,3.45,8.2,4.64s-4.04,1.04-8.71-.33h0c-4.67-1.37-8.34-3.45-8.2-4.64s4.04-1.04,8.71.33h0Z"
         id="path8" />
      <path
         class="cls-2"
         d="M532.79,415.67c4.09,2.75,6.95,5.78,6.39,6.76-.56.98-4.33-.46-8.42-3.21-4.08-2.4-7.78-5.68-8.28-7.32-.5-1.64,2.4-1.03,6.48,1.37,1.21.71,2.44,1.54,3.58,2.4h.25Z"
         id="path9" />
      <path
         class="cls-2"
         d="M535.33,414.65c3.46,2.84,7.02,7.1,7.96,9.5.94,2.4-1.11,2.05-4.57-.8-2.08-1.71-4.3-4.02-5.93-6.17-2.72-3.59-3.03-5.68-.69-4.68.85.36,1.97,1.11,3.23,2.14Z"
         id="path10" />
      <path
         class="cls-2"
         d="M539.64,422.52l-2.79,1.52c-.76.25-1.52-.76-3.05,0-1.52,1.02-2.54,2.54-3.05,3.3-.25,1.02.51,1.27,2.54.51,1.78-1.02,2.54-2.54,3.3-3.05.76-.76,2.54-1.52,3.3-1.78l2.54-3.81c.51-1.02,3.05-2.54,4.06-4.82.76-1.52.51-3.05-.76-2.54-1.28.93-2.32,2.15-3.05,3.55-.76,1.27,0,2.54-.76,3.81l-2.28,3.3ZM559.44,429.12c.12,7.74-1.15,13.67-2.84,13.25-1.68-.42-3.14-7.04-3.25-14.78h0c-.12-7.74,1.15-13.67,2.84-13.25,1.68.42,3.14,7.04,3.25,14.78Z"
         id="path11" />
      <path
         class="cls-2"
         d="M556.14,428.86c1.6,7.49,1.59,13.61-.02,13.68-1.61.07-4.22-5.94-5.82-13.43h0c-1.57-7.42-1.54-13.43.08-13.43,1.61,0,4.19,6.01,5.76,13.43v-.25Z"
         id="path12" />
      <path
         class="cls-2"
         d="M545.99,432.16c5.79,3.49,10.99,8.29,11.63,10.71.64,2.42-3.54,1.55-9.33-1.94-1.46-.88-2.93-1.88-4.33-2.93-5.87-3.96-10.17-8.54-9.61-10.22.56-1.68,5.77.17,11.64,4.13h0v.25Z"
         id="path13" />
      <path
         class="cls-2"
         d="M548.02,429.12c4.8,5.83,7.85,11.51,6.8,12.71-1.05,1.19-5.8-2.57-10.6-8.39-4.8-5.83-7.85-11.51-6.8-12.71,1.05-1.19,5.8,2.57,10.6,8.39h0Z"
         id="path14" />
      <path
         class="cls-2"
         d="M552.08,428.86c3.84,7.16,5.87,13.54,4.54,14.24-1.33.7-5.52-4.54-9.36-11.7-3.84-7.16-5.87-13.54-4.54-14.24,1.33-.7,5.52,4.54,9.36,11.7h0Z"
         id="path15" />
      <path
         class="cls-2"
         d="M555.63,442.06l-4.82,1.02c-.76,0-1.52-1.78-4.06-1.27s-4.57,2.28-5.08,3.3c-1.02,1.02,0,2.03,3.05,1.52s4.06-2.54,5.58-2.79l5.33-1.02,4.57-4.31c1.27-1.27,5.08-2.54,7.11-5.08,1.78-2.03,1.78-4.06,0-3.81-2.05.71-3.89,1.93-5.33,3.55-1.27,1.52-1.02,3.81-2.54,5.08l-3.81,3.81ZM569.59,455.26c-1.26,7.6-3.53,13.2-5.08,12.5-1.54-.7-1.77-7.43-.51-15.03h0c1.26-7.6,3.53-13.2,5.08-12.5,1.54.7,1.77,7.43.51,15.03Z"
         id="path16" />
      <path
         class="cls-2"
         d="M566.29,454.5c.68,7.25.09,14.88-1.31,17.03-1.41,2.15-3.1-1.98-3.78-9.23-.26-2.81-.35-5.81-.24-8.56-.36-7.55.58-14.09,2.1-14.62s3.05,5.16,3.41,12.71c.04.89.07,1.78.07,2.67h-.25Z"
         id="path17" />
      <path
         class="cls-2"
         d="M556.14,455.51c4.97,4.88,8.48,10.23,7.83,11.97-.65,1.73-5.21-.82-10.18-5.69-.23-.23-.46-.46-.69-.69-5-4.39-9.4-10.17-9.84-12.91s3.26-1.4,8.26,2.99c1.49,1.31,2.99,2.8,4.37,4.34h.25Z"
         id="path18" />
      <path
         class="cls-2"
         d="M558.68,453.23c3.7,6.79,5.68,13.09,4.42,14.07-1.26.98-5.29-3.73-8.99-10.52-3.79-6.33-6.45-13.26-5.93-15.48.52-2.22,4.01,1.12,7.8,7.46.86,1.44,1.69,2.95,2.45,4.47h.25Z"
         id="path19" />
      <path
         class="cls-2"
         d="M562.48,453.48c2.51,7.89,3.41,14.74,2.01,15.3s-4.57-5.38-7.08-13.27c-2.51-7.89-3.41-14.74-2.01-15.3,1.4-.56,4.57,5.38,7.08,13.27h0Z"
         id="path20" />
      <path
         class="cls-2"
         d="M563.75,467.44h-5.08c-.76,0-1.02-2.03-3.55-2.03s-5.08,1.27-5.84,2.28c-1.02.76,0,2.03,2.79,2.03,3.05,0,4.57-1.52,6.09-1.78h5.33l5.08-3.3c1.52-1.02,5.84-1.52,8.12-3.55,2.03-1.52,2.54-3.81.76-3.55-2.22.29-4.32,1.17-6.09,2.54-1.52,1.02-1.52,3.3-3.3,4.31l-4.57,3.05M570.35,484.44c-4.05,6.46-8.25,10.68-9.37,9.42-1.12-1.26,1.25-7.52,5.31-13.99,4.05-6.46,8.25-10.68,9.37-9.42,1.12,1.26-1.25,7.52-5.31,13.99h0"
         id="path21" />
      <path
         class="cls-2"
         d="M567.81,482.41c-2.99,7.78-6.49,13.4-7.82,12.56-1.33-.84,0-7.83,2.99-15.6h0c2.99-7.78,6.49-13.4,7.82-12.56,1.33.84,0,7.83-2.99,15.6M557.92,479.11c2.55,6.61,3.49,12.88,2.08,14-1.4,1.12-4.61-3.33-7.16-9.94-2.55-6.61-3.49-12.88-2.08-14,1.4-1.12,4.61,3.33,7.16,9.94h0"
         id="path22" />
      <path
         class="cls-2"
         d="M561.22,478.1c.79,8.61.18,15.93-1.36,16.35s-3.43-6.22-4.22-14.83c-.79-8.61-.18-15.93,1.36-16.35,1.54-.42,3.43,6.22,4.22,14.83h0"
         id="path23" />
      <path
         class="cls-2"
         d="M564.77,480.13c-.81,8.48-2.72,15.23-4.27,15.09-1.54-.14-2.13-7.12-1.32-15.6h0c.81-8.48,2.72-15.23,4.27-15.09,1.54.14,2.13,7.12,1.32,15.6h0"
         id="path24" />
      <path
         class="cls-2"
         d="M560.2,493.33l-4.31-2.03c-.76-.51-.25-2.28-2.54-3.3-2.54-1.02-5.08-1.02-6.09-.51-1.27.51-1.02,1.78,1.78,3.3,2.54,1.27,4.57.25,6.09,1.02l5.08,2.03,5.58-1.02c1.78,0,5.84,1.02,8.63,0,2.54-.51,3.81-2.54,2.28-3.05-2.13-.69-4.42-.78-6.6-.25-1.78.51-2.79,2.54-4.57,3.05-1.27,0-5.08,1.02-5.33.76M562.74,514.14c-6.62,5.68-12.66,8.82-13.5,6.99-.84-1.82,3.84-7.91,10.46-13.59h0c6.47-5.54,12.33-8.55,13.11-6.72.77,1.82-3.85,7.79-10.31,13.32"
         id="path25" />
      <path
         class="cls-2"
         d="M560.2,511.09c-4.79,6.96-10.84,13.06-13.5,13.62s-.93-4.63,3.86-11.59c1.7-2.47,3.64-4.94,5.58-7.11,4.79-6.96,10.84-13.06,13.5-13.62s.93,4.63-3.86,11.59c-1.7,2.47-3.64,4.94-5.58,7.11"
         id="path26" />
      <path
         class="cls-2"
         d="M550.56,503.73c.65,8.57-.3,16.08-2.12,16.78-1.82.7-3.83-5.68-4.48-14.24h0c-.65-8.57.3-16.08,2.12-16.78,1.82-.7,3.83,5.68,4.48,14.24h0"
         id="path27" />
      <path
         class="cls-2"
         d="M554.36,503.73c-2.18,8.25-4.97,12.8-6.22,10.17-.76-1.6-.81-5.61-.12-10.68,1.13-8.33,3.87-16.99,6.12-19.34,2.25-2.35,3.16,2.5,2.03,10.83-.4,2.96-1.03,6.1-1.8,9.02"
         id="path28" />
      <path
         class="cls-2"
         d="M557.66,507.03c-3.47,8.55-7.59,14.98-9.2,14.35-1.61-.63-.11-8.08,3.36-16.63h0c3.53-8.68,7.7-15.15,9.32-14.45,1.61.7.05,8.31-3.48,16.99h0"
         id="path29" />
      <path
         class="cls-2"
         d="M548.53,520.23l-4.31-3.81c-.51-.76.51-2.54-1.78-4.57-1.81-1.63-4.16-2.53-6.6-2.54-1.52,0-1.52,1.52,1.02,4.06s5.08,2.03,6.34,3.3c1.77,1.15,3.39,2.51,4.82,4.06l6.85,1.02c1.78.25,5.84,3.3,9.39,3.3,3.05,0,5.08-1.52,3.3-2.79-2.02-1.43-4.39-2.3-6.85-2.54-2.28,0-4.06,1.78-6.34,1.52l-6.09-1.02M542.18,540.02c-8.74,1.97-17.47,2.16-19.49.42-2.02-1.74,3.43-4.74,12.17-6.71,2.67-.6,5.45-1.06,8.08-1.33,8.74-1.97,17.47-2.16,19.49-.42,2.02,1.74-3.43,4.74-12.17,6.71-2.67.6-5.45,1.06-8.08,1.33"
         id="path30" />
      <path
         class="cls-2"
         d="M541.93,535.71c-8.89,3.24-15.8,4.06-15.43,1.82.33-1.99,6.32-5.77,14.16-8.93,8.89-3.24,15.8-4.06,15.43-1.82-.33,1.99-6.32,5.77-14.16,8.93"
         id="path31" />
      <path
         class="cls-2"
         d="M536.09,523.27c-4.19,8.05-8.79,13.17-10.27,11.45-1.16-1.35-.09-6.58,2.66-12.98,3.51-8.18,8.57-15.52,11.29-16.4,2.72-.88,2.08,5.04-1.44,13.22-.68,1.57-1.43,3.16-2.23,4.71"
         id="path32" />
      <path
         class="cls-2"
         d="M540.15,525.56c-6.53,7.39-13.19,12.47-14.87,11.35-1.68-1.12,2.25-8.02,8.78-15.41h0c6.53-7.39,13.19-12.47,14.87-11.35s-2.25,8.02-8.78,15.41"
         id="path33" />
      <path
         class="cls-2"
         d="M541.17,530.63c-7.61,6.09-15.49,10.35-17.6,9.51-2.12-.84,2.33-6.45,9.94-12.54,1.09-.87,2.22-1.73,3.35-2.55,7.91-6.04,15.35-9.69,16.61-8.15,1.26,1.54-4.13,7.69-12.04,13.73"
         id="path34" />
      <path
         class="cls-2"
         d="M525.18,537.74l-1.78-5.84c-.25-1.27,1.78-2.54.76-5.58-.86-2.67-2.66-4.92-5.08-6.34-1.27-.76-2.54.76-1.27,4.57,1.02,3.81,3.81,5.08,4.57,6.85l2.03,6.6c1.52.76,4.31,3.55,6.09,5.08,1.78,1.27,4.06,6.34,7.61,8.38,2.54,1.78,5.08,1.52,4.57-.76-1.21-2.53-3.04-4.72-5.33-6.34-2.03-1.52-5.08-.76-6.85-2.28-1.27-1.02-5.33-4.06-5.08-4.31"
         id="path35" />
      <path
         class="cls-2"
         d="M515.53,554.74c-9.11.1-16.37-1.98-16.21-4.64.15-2.6,7.32-4.81,16.21-5,9.11-.1,16.37,1.98,16.21,4.64-.15,2.6-7.32,4.81-16.21,5"
         id="path36" />
      <path
         class="cls-2"
         d="M513.25,539.77c-5.98,7.7-12.41,12.58-14.38,10.9-1.96-1.68,1.29-9.29,7.27-16.99,5.98-7.7,12.41-12.58,14.38-10.9,1.96,1.68-1.29,9.29-7.27,16.99h0"
         id="path37" />
      <path
         class="cls-2"
         d="M515.53,547.38c-8.52,3.1-14.83,3.05-14.1-.11.54-2.32,4.81-5.79,10.8-8.78,8.52-3.1,14.83-3.05,14.1.11-.54,2.32-4.81,5.79-10.8,8.78M520.1,402.72c4.04,3.77,6.17,7.02,4.74,7.24-1.25.2-4.85-2-8.55-5.21-4.23-3.67-7.12-7.38-6.44-8.28.68-.9,4.66,1.35,8.89,5.03.46.4.91.81,1.35,1.22M515.03,407.04c5.84.77,10.74,2.35,10.96,3.55.21,1.19-4.35,1.54-10.19.77h0c-5.84-.77-10.74-2.35-10.96-3.55-.21-1.19,4.35-1.54,10.19-.77"
         id="path38" />
      <path
         class="cls-2"
         d="M517.06,404.25c5.41,2.74,9.34,5.76,8.78,6.75-.56.98-5.4-.45-10.81-3.19-5.41-2.74-9.34-5.76-8.78-6.75s5.4.45,10.81,3.19h0M442.19,538.5s13.96,3.05,26.14,7.36c11.93,4.31,30.45,19.54,35.53,20.3,5.33.25,12.94-1.52,15.99-9.64-8.63,2.54-13.7,5.84-21.83,1.27-2.79-1.02-12.18-9.64-22.84-14.21-10.11-3.94-20.45-7.24-30.96-9.9l-2.03,4.82M457.16,412.62l15.99-8.63-17.77,4.57-2.03,3.05,3.81,1.02"
         id="path39" />
      <path
         class="cls-2"
         d="M472.39,416.43c-6.34-1.02-15.99-3.3-22.08-3.81,4.31-4.57,10.15-12.44,13.7-17.26-2.54,4.57-6.09,10.66-7.61,15.23,4.31,2.28,11.17,4.06,15.99,5.84"
         id="path40" />
      <path
         class="cls-2"
         d="M454.12,413.64l14.21-11.17-16.5,7.61-1.52,3.3h3.81"
         id="path41" />
      <path
         class="cls-2"
         d="M469.34,416.17c-6.34-1.02-15.73-3.3-21.83-3.81,4.06-4.82,9.64-12.69,13.2-17.77-2.54,4.57-5.84,10.91-7.36,15.48,4.31,2.54,11.17,4.31,15.99,6.09"
         id="path42" />
      <path
         class="cls-2"
         d="M451.83,414.4l16.75-6.85-18.02,2.79-2.54,3.05,3.81,1.02"
         id="path43" />
      <path
         class="cls-2"
         d="M467.31,416.43c-6.09-.51-15.99-1.78-22.08-1.52,3.55-5.33,8.12-14.21,11.17-19.54-1.78,5.08-4.57,11.67-5.33,16.5,4.57,2.03,11.42,3.3,16.5,4.57"
         id="path44" />
      <path
         class="cls-2"
         d="M450.06,414.65l11.42-13.96-14.47,10.66-.51,3.81,3.55-.76"
         id="path45" />
      <path
         class="cls-2"
         d="M467.31,417.44c-6.6,0-17.26-.76-23.6,0,3.3-6.34,7.11-16.24,9.64-22.33-1.27,5.58-3.55,13.2-4.06,18.53,5.08,1.78,12.69,2.54,18.02,3.81"
         id="path46" />
      <path
         class="cls-2"
         d="M447.77,417.95c4.52-4.54,9.08-9.02,13.7-13.45l-16.5,9.39-1.27,3.81h4.06"
         id="path47" />
      <path
         class="cls-2"
         d="M464.27,417.95c-7.11,0-18.27-.51-25.38.25,4.57-6.85,11.17-17.77,15.23-24.62-2.54,6.09-6.85,14.72-8.38,20.3,5.08,2.03,12.94,2.54,18.53,3.81"
         id="path48" />
      <path
         class="cls-2"
         d="M443.2,418.71l17.77-14.97-20.3,10.66-1.78,4.31h4.31"
         id="path49" />
      <path
         class="cls-2"
         d="M461.73,418.2c-7.11,1.02-18.27,2.28-25.38,4.06,4.18-8.54,8-17.27,11.42-26.14-1.52,6.34-4.31,15.23-5.08,21.06,5.33,1.02,13.2.76,19.03,1.02"
         id="path50" />
      <path
         class="cls-2"
         d="M440.92,421.76c4.43-6.3,8.91-12.56,13.45-18.78l-17,15.23-.76,4.82,4.06-1.27"
         id="path51" />
      <path
         class="cls-2"
         d="M457.67,420.49c-7.11.76-18.27,1.27-25.38,2.54,4.06-6.85,9.64-18.27,12.69-25.38-1.78,6.34-5.08,14.97-6.09,20.81,5.08,1.27,13.2,1.27,18.78,2.03"
         id="path52" />
      <path
         class="cls-2"
         d="M438.38,423.79l17.26-15.23-19.54,10.66-2.03,4.57h4.31"
         id="path53" />
      <path
         class="cls-2"
         d="M455.64,421.25c-7.36,1.52-18.53,3.3-25.38,5.58,3.3-7.36,7.61-19.29,10.15-26.65-1.27,6.6-3.55,15.23-4.06,21.32,5.33.76,13.45-.25,19.29-.25"
         id="path54" />
      <path
         class="cls-2"
         d="M435.59,424.55l10.91-20.56-14.97,17.77v4.57l4.06-1.78"
         id="path55" />
      <path
         class="cls-2"
         d="M455.64,422.52c-7.61,1.78-19.8,4.57-27.16,7.36,2.79-8.38,6.09-21.83,8.12-30.2-.76,7.36-2.54,17.26-2.03,23.86,5.84.51,14.72-.76,21.06-1.02"
         id="path56" />
      <path
         class="cls-2"
         d="M433.31,429.12l13.96-20.3-17.77,16.5-.76,5.08,4.57-1.27"
         id="path57" />
      <path
         class="cls-2"
         d="M452.59,424.8c-7.61,2.54-19.54,5.58-26.65,8.63,2.54-8.38,5.08-21.83,6.6-30.2-.51,7.36-1.52,17.26-1.02,23.6,6.09.25,14.72-1.52,21.06-2.03"
         id="path58" />
      <path
         class="cls-2"
         d="M430.51,432.16l10.66-22.84-15.23,19.8v5.08l4.57-2.03"
         id="path59" />
      <path
         class="cls-2"
         d="M449.55,427.85c-7.61,1.78-19.8,4.06-27.41,6.6,3.3-8.12,7.11-21.57,9.39-29.69-1.02,7.36-3.05,17-3.05,23.6,6.09.76,14.72-.51,21.06-.51"
         id="path60" />
      <path
         class="cls-2"
         d="M427.98,434.45l17.26-17.77-20.3,13.2-1.78,5.08,5.08-.51"
         id="path61" />
      <path
         class="cls-2"
         d="M446.25,430.89c-7.61,1.02-19.8,2.03-27.16,4.06,3.55-8.12,8.12-21.06,10.91-29.19-1.52,7.11-4.06,17-4.57,23.6,5.84,1.27,14.47,1.02,20.81,1.52"
         id="path62" />
      <path
         class="cls-2"
         d="M424.68,432.67l11.67-22.33-15.99,18.78v5.08l4.31-1.52"
         id="path63" />
      <path
         class="cls-2"
         d="M447.01,428.1c-8.38,3.55-21.32,8.38-29.19,12.69,2.54-10.15,5.08-25.89,6.85-35.53-.25,8.38-1.52,20.05-.76,27.41,6.85,0,16.24-3.05,23.35-4.31"
         id="path64" />
      <path
         class="cls-2"
         d="M422.9,439.27l14.21-25.38-18.53,21.57-.51,6.09,5.08-2.28"
         id="path65" />
      <path
         class="cls-2"
         d="M443.96,431.4c-8.38,3.81-21.32,9.39-28.93,13.96,2.03-10.15,4.06-25.63,5.33-35.53,0,8.38-.51,20.05.51,27.16,6.85-.51,15.99-3.81,22.84-5.58"
         id="path66" />
      <path
         class="cls-2"
         d="M420.11,443.33l10.15-27.41-15.23,24.36.25,5.84,4.82-2.79"
         id="path67" />
      <path
         class="cls-2"
         d="M440.16,433.69c-8.12,4.06-21.06,9.64-28.68,14.21,2.03-10.15,4.06-25.63,5.08-35.53.25,8.38-.25,19.8.76,27.16,6.6-.76,15.99-4.06,22.84-5.84"
         id="path68" />
      <path
         class="cls-2"
         d="M417.82,446.63l15.73-24.36-20.05,19.8-.76,6.09,5.08-1.52"
         id="path69" />
      <path
         class="cls-2"
         d="M439.4,432.42c-7.11,5.84-18.78,14.47-25.38,21.06,0-10.15-1.52-25.89-2.28-35.53,2.03,8.12,3.81,19.29,6.34,25.89,6.34-2.28,14.97-7.87,21.57-11.42"
         id="path70" />
      <path
         class="cls-2"
         d="M418.59,447.64l1.78-28.93-7.61,27.92,2.03,5.58,3.81-4.57"
         id="path71" />
      <path
         class="cls-2"
         d="M437.37,435.21c-7.36,5.84-19.03,14.21-25.38,20.56,0-10.15-1.52-25.38-2.28-35.28,1.78,8.12,3.55,19.29,6.09,25.89,6.6-2.28,15.23-7.87,21.57-11.17"
         id="path72" />
      <path
         class="cls-2"
         d="M416.56,452.47c2.45-9.41,4.99-18.8,7.61-28.17l-12.69,25.89.76,5.84,4.57-3.55"
         id="path73" />
      <path
         class="cls-2"
         d="M436.6,435.72c-6.85,6.85-18.02,17-24.11,24.36-1.27-10.15-4.31-26.14-6.09-35.78,2.54,7.87,5.84,19.03,9.14,25.63,6.6-3.05,14.72-9.9,21.06-14.21"
         id="path74" />
      <path
         class="cls-2"
         d="M416.56,456.02l1.52-29.95-7.36,29.19,2.28,5.58,3.81-4.57"
         id="path75" />
      <path
         class="cls-2"
         d="M434.32,440.79c-7.36,6.09-19.03,15.23-25.89,22.08,0-10.66-2.03-26.65-3.05-36.8,2.28,8.38,4.31,19.8,7.11,26.65,6.6-2.54,15.23-8.38,21.83-11.93"
         id="path76" />
      <path
         class="cls-2"
         d="M414.52,459.57l10.41-28.42-15.73,25.38.51,6.09,4.82-3.05"
         id="path77" />
      <path
         class="cls-2"
         d="M434.32,440.79c-6.6,7.11-17,17.51-22.84,24.87-1.02-10.41-4.06-26.39-5.84-36.29,2.54,7.87,5.58,19.29,8.88,25.89,6.09-3.05,13.7-10.15,19.8-14.47"
         id="path78" />
      <path
         class="cls-2"
         d="M415.03,461.09l-1.27-29.95-5.08,29.69,3.05,5.08,3.3-5.08"
         id="path79" />
      <path
         class="cls-2"
         d="M431.02,443.33c-6.34,6.85-16.5,17.26-22.08,24.87-1.27-10.66-4.82-26.65-6.85-36.55,2.79,8.12,6.09,19.54,9.64,26.14,5.84-3.3,13.45-10.15,19.29-14.72"
         id="path80" />
      <path
         class="cls-2"
         d="M413.26,464.14l3.3-30.45-8.88,28.68,1.78,5.84,3.81-4.06"
         id="path81" />
      <path
         class="cls-2"
         d="M429.75,444.34c-5.84,7.61-15.23,19.03-20.3,26.9-2.03-10.15-6.6-25.89-9.39-35.53,3.3,7.61,7.61,18.78,11.42,25.13,5.58-3.81,12.69-11.67,18.27-16.5"
         id="path82" />
      <path
         class="cls-2"
         d="M413,466.93l-1.78-30.45-3.81,30.2,2.54,5.08,3.05-5.08"
         id="path83" />
      <path
         class="cls-2"
         d="M429.24,445.87c-5.58,8.12-14.47,20.3-19.03,28.42-2.54-10.15-8.12-25.63-11.42-35.28,3.81,7.61,8.63,18.53,12.69,24.62,5.58-4.06,12.18-12.18,17.77-17.77"
         id="path84" />
      <path
         class="cls-2"
         d="M415.03,469.72l3.05-30.45-8.63,28.68,1.78,6.09,3.81-4.31"
         id="path85" />
      <path
         class="cls-2"
         d="M427.98,448.91c-4.82,8.63-12.44,21.83-16.24,30.71-3.55-9.9-10.15-24.36-14.47-33.5,4.57,7.11,10.15,17.26,14.97,22.84,5.08-5.08,10.91-13.96,15.73-20.3"
         id="path86" />
      <path
         class="cls-2"
         d="M414.02,472.26l-8.63-28.93,2.79,30.45,4.06,4.31,1.78-5.84"
         id="path87" />
      <path
         class="cls-2"
         d="M427.72,452.21c-5.08,8.63-12.69,21.83-16.75,30.71-3.81-9.9-10.41-24.36-14.72-33.5,4.57,7.11,10.15,17.26,15.23,22.84,5.08-5.08,11.42-13.96,16.24-20.05"
         id="path88" />
      <path
         class="cls-2"
         d="M414.27,477.84l-3.05-30.45-2.79,30.45,3.05,5.08,2.79-5.08"
         id="path89" />
      <path
         class="cls-2"
         d="M428.23,455c-5.08,8.63-13.2,21.32-17.26,30.2-3.55-9.9-10.15-24.62-14.21-33.75,4.57,7.11,10.15,17.26,14.72,22.84,5.58-4.57,11.67-13.45,16.75-19.29"
         id="path90" />
      <path
         class="cls-2"
         d="M414.02,480.13l-5.58-29.95-.25,30.71,3.3,4.82,2.54-5.58"
         id="path91" />
      <path
         class="cls-2"
         d="M426.2,459.32c-5.58,8.12-14.21,20.3-18.78,28.93-3.05-10.15-8.88-25.38-12.69-34.52,4.31,7.36,9.39,17.77,13.7,23.86,5.58-4.57,12.44-12.69,17.77-18.27"
         id="path92" />
      <path
         class="cls-2"
         d="M411.48,483.43l2.54-30.45-8.38,28.93,2.03,5.84,3.81-4.31"
         id="path93" />
      <path
         class="cls-2"
         d="M426.45,460.08c-4.57,8.88-12.18,22.33-15.99,31.22-3.81-9.64-11.17-23.86-15.73-32.74,5.08,6.85,10.91,16.75,15.99,21.83,5.08-5.08,10.91-14.21,15.73-20.3"
         id="path94" />
      <path
         class="cls-2"
         d="M410.46,485.97l-9.39-28.42,3.55,30.45,4.06,4.06,1.78-6.09"
         id="path95" />
      <path
         class="cls-2"
         d="M425.18,462.36c-3.3,9.64-8.63,24.62-11.17,34.26-5.08-8.63-14.47-21.06-20.3-28.68,5.84,5.58,13.2,13.96,19.03,17.77,4.31-5.84,8.63-16.24,12.44-23.35"
         id="path96" />
      <path
         class="cls-2"
         d="M418.84,488.5l-10.15-28.17,4.31,30.2,4.06,3.81,1.78-6.09"
         id="path97" />
      <path
         class="cls-2"
         d="M425.18,465.41c-3.3,9.64-8.63,24.62-10.91,34.26-5.08-8.63-14.72-20.81-20.3-28.42,5.58,5.58,12.94,13.7,18.78,17.77,4.31-6.09,8.63-16.5,12.44-23.6"
         id="path98" />
      <path
         class="cls-2"
         d="M418.84,493.07l-13.2-26.14,7.61,29.19,4.57,3.3,1.02-6.34"
         id="path99" />
      <path
         class="cls-2"
         d="M424.17,467.69c-2.03,10.15-5.58,25.63-6.85,35.53-6.34-7.61-17-18.53-23.6-25.38,6.34,5.08,14.72,11.93,20.81,15.23,3.55-6.85,6.6-17.77,9.64-25.38"
         id="path100" />
      <path
         class="cls-2"
         d="M419.6,497.39l-6.85-29.69,1.02,30.71,3.81,4.57,2.03-5.58"
         id="path101" />
      <path
         class="cls-2"
         d="M424.17,470.99c-1.02,10.15-3.3,26.14-3.3,36.29-7.11-6.85-18.78-16.24-25.89-22.08,6.85,3.81,15.73,9.9,22.08,12.18,2.79-7.11,5.08-18.53,7.11-26.39"
         id="path102" />
      <path
         class="cls-2"
         d="M420.11,499.42l-18.78-21.32,14.21,25.89,5.08,1.78-.51-6.34"
         id="path103" />
      <path
         class="cls-2"
         d="M424.68,474.55c-1.27,10.15-3.55,26.14-3.55,36.29-7.11-6.85-18.78-16.24-25.89-22.08,6.85,3.81,15.73,9.9,22.08,12.18,3.05-7.11,5.08-18.27,7.36-26.39"
         id="path104" />
      <path
         class="cls-2"
         d="M422.14,504.24c-4.9-8.41-9.73-16.87-14.47-25.38l9.14,28.68,4.82,3.05.51-6.09"
         id="path105" />
      <path
         class="cls-2"
         d="M425.44,478.86c-.76,10.15-2.28,26.39-2.03,36.55-7.36-6.6-19.29-15.23-26.65-20.56,6.85,3.3,15.99,8.88,22.59,10.66,2.54-7.36,4.06-18.53,6.09-26.65"
         id="path106" />
      <path
         class="cls-2"
         d="M424.17,509.31c-.51,0-17.77-22.84-17.77-22.84l12.69,26.9,5.08,2.03v-6.09"
         id="path107" />
      <path
         class="cls-2"
         d="M425.69,483.68c-.76,10.15-2.03,26.39-1.78,36.55-8.61-7.23-17.59-14.01-26.9-20.3,6.85,3.3,16.24,8.63,22.84,10.41,2.54-7.36,3.81-18.53,5.84-26.65"
         id="path108" />
      <path
         class="cls-2"
         d="M425.69,512.87l-12.69-26.9,7.11,29.44,4.31,3.81,1.27-6.34"
         id="path109" />
      <path
         class="cls-2"
         d="M426.2,486.47c0,10.66.25,26.9,1.52,36.8-7.61-5.08-20.56-12.44-28.42-16.75,7.11,2.54,16.75,6.85,23.35,7.61,1.78-7.61,2.54-19.03,3.3-27.41"
         id="path110" />
      <path
         class="cls-2"
         d="M427.72,511.85l-22.84-15.48,19.29,21.06,5.33.51-1.78-6.09"
         id="path111" />
      <path
         class="cls-2"
         d="M426.71,487.74c1.02,10.41,1.78,26.65,3.55,36.55-9.46-5.65-19.2-10.82-29.19-15.48,7.11,2.03,17,5.84,23.6,6.6,1.52-7.61,1.52-19.29,2.03-27.66"
         id="path112" />
      <path
         class="cls-2"
         d="M430.26,517.69l-19.03-21.83,14.47,26.14,5.08,2.03-.51-6.34"
         id="path113" />
      <path
         class="cls-2"
         d="M428.48,491.55c1.27,10.66,2.79,26.65,5.08,36.55-8.38-4.57-21.57-10.15-29.95-13.96,7.61,1.78,17.26,5.08,24.11,5.33,1.02-7.61.51-19.29.76-27.92"
         id="path114" />
      <path
         class="cls-2"
         d="M433.81,521.24l-22.33-15.74,19.03,21.57h5.08l-1.78-5.84"
         id="path115" />
      <path
         class="cls-2"
         d="M429.24,496.12c2.03,10.15,4.57,26.14,7.36,36.04-8.63-4.06-22.08-8.38-30.45-11.17,7.36,1.02,17.51,3.3,24.11,3.05.51-7.87-.76-19.29-1.02-27.92"
         id="path116" />
      <path
         class="cls-2"
         d="M436.35,524.54l-18.53-22.08,13.96,26.39,5.08,2.03-.51-6.34"
         id="path117" />
      <path
         class="cls-2"
         d="M430.26,499.16c3.05,9.9,7.11,25.38,10.91,34.77-8.88-2.54-22.84-5.33-31.22-7.11,7.36,0,17.51,1.02,24.11,0,0-8.12-2.54-19.29-3.81-27.92"
         id="path118" />
      <path
         class="cls-2"
         d="M437.37,524.54l-25.89-5.58,24.62,12.18,5.08-1.78-3.81-4.82"
         id="path119" />
      <path
         class="cls-2"
         d="M432.04,502.21c3.05,9.9,7.11,25.38,10.66,34.77-8.88-2.54-22.84-5.33-31.22-7.11,7.36,0,17.77,1.02,24.11,0,0-8.12-2.54-19.29-3.55-27.92"
         id="path120" />
      <path
         class="cls-2"
         d="M441.68,527.08c0,.51-24.87-11.93-24.87-11.93l22.33,18.27,5.08-.51-2.54-5.58"
         id="path121" />
      <path
         class="cls-2"
         d="M430.77,503.99c5.08,8.88,12.18,23.35,17.77,31.72-9.14-.76-23.35-.25-31.98,0,7.11-1.78,17.26-3.05,23.35-5.58-1.52-7.61-6.34-18.27-9.14-26.14"
         id="path122" />
      <path
         class="cls-2"
         d="M445.49,529.87l-25.89-7.11,24.36,13.7,5.08-1.52-3.55-5.08"
         id="path123" />
      <path
         class="cls-2"
         d="M433.56,507.79c5.08,8.88,12.18,23.35,17.77,31.47-9.14-.51-23.35,0-31.98.51,7.36-1.78,17.51-3.3,23.6-5.84-2.03-7.61-6.6-18.27-9.64-26.14"
         id="path124" />
      <path
         class="cls-2"
         d="M448.79,532.16l-24.11-14.47,21.06,20.3h5.58l-2.54-5.84"
         id="path125" />
      <path
         class="cls-2"
         d="M435.34,510.08c5.84,8.38,14.47,21.83,20.81,29.44-9.14.51-22.84,3.05-31.47,4.57,7.11-2.54,16.75-5.58,22.59-9.14-2.54-7.61-8.38-17.26-11.93-24.87"
         id="path126" />
      <path
         class="cls-2"
         d="M450.56,534.19l-25.89-.51,25.63,7.61,4.57-2.79-4.31-4.31M465.79,408.31l18.53-3.3-18.53.51-3.3,1.78,3.3,1.02"
         id="path127" />
      <path
         class="cls-2"
         d="M475.94,412.11c-5.33-1.52-13.7-4.31-19.29-5.58,6.9-2.74,13.68-5.79,20.3-9.14-4.31,2.54-10.15,6.09-13.45,8.63,3.05,2.03,8.63,4.31,12.69,6.09"
         id="path128" />
      <path
         class="cls-2"
         d="M464.78,408.81l18.27-5.08-18.78,2.54-2.79,2.03,3.3.51"
         id="path129" />
      <path
         class="cls-2"
         d="M476.96,413.64c-6.34-.76-16.24-2.03-22.33-2.03,4.57-4.06,11.17-11.17,15.23-15.23-2.54,3.81-7.11,9.14-8.88,12.94,4.31,1.78,11.17,2.79,15.99,4.31"
         id="path130" />
      <path
         class="cls-2"
         d="M458.18,410.34l18.78-2.54-18.27-.25-3.55,1.52,3.05,1.02"
         id="path131" />
      <path
         class="cls-2"
         d="M472.14,414.14c-5.84-1.02-14.47-3.05-20.3-3.55,5.33-2.54,13.45-7.61,18.53-10.15-3.81,2.54-9.14,6.34-11.93,8.88,3.55,1.78,9.39,3.3,13.7,5.08"
         id="path132" />
      <path
         class="cls-2"
         d="M456.65,409.83l16.5-7.11-18.27,5.08-2.03,2.03h3.81"
         id="path133" />
      <path
         class="cls-2"
         d="M471.63,416.43c-5.08-2.03-12.18-5.33-17-6.85,3.81-3.3,8.88-9.39,12.18-12.94-2.54,3.55-5.84,8.38-7.11,11.93,3.05,2.54,8.12,5.33,11.93,7.61"
         id="path134" />
      <path
         class="cls-2"
         d="M457.42,411.1l12.94-5.58-13.96,2.03-1.78,2.54,2.79,1.02M447.01,532.16h-26.9l27.16,6.85,4.57-3.05-5.08-3.81"
         id="path135" />
      <path
         class="cls-2"
         d="M451.58,533.68l-27.41-6.6,26.14,12.69,5.08-1.52-4.06-5.08"
         id="path136" />
      <path
         class="cls-2"
         d="M455.89,535.46l-26.9-1.52,26.9,8.38,4.57-2.54-4.57-4.31"
         id="path137" />
      <path
         class="cls-2"
         d="M438.89,516.42c6.85,7.61,17.51,20.05,24.87,26.9-9.14,1.27-22.84,5.08-30.96,7.11,6.6-3.05,15.99-6.85,21.32-10.66-3.55-7.11-10.66-16.24-15.23-23.35"
         id="path138" />
      <path
         class="cls-2"
         d="M459.7,536.72l-26.9-8.88,25.38,15.23,5.08-1.27-3.55-5.08"
         id="path139" />
      <path
         class="cls-2"
         d="M441.43,518.2c7.61,6.85,19.03,18.02,26.9,24.11-8.63,2.54-21.57,7.87-29.44,11.17,6.09-4.06,15.23-8.88,19.8-13.45-4.06-6.85-12.18-15.23-17.26-21.83"
         id="path140" />
      <path
         class="cls-2"
         d="M461.73,538.5l-25.38,5.08,26.9,1.78,3.81-3.81-5.08-3.05"
         id="path141" />
      <path
         class="cls-2"
         d="M456.65,536.72l-26.65,2.03,27.41,4.82,4.31-3.3-5.08-3.55"
         id="path142" />
      <path
         class="cls-2"
         d="M461.48,538.25l-27.66-4.31,27.16,10.91,5.08-2.03-4.57-4.57Z"
         id="path143" />
      <path
         class="cls-2"
         d="M466.04,539.77l-26.9.51,27.41,6.09,4.31-2.79-4.82-3.81Z"
         id="path144" />
      <path
         class="cls-2"
         d="M447.52,522c7.61,7.11,19.03,18.78,26.9,24.87-9.14,2.03-22.33,6.6-30.45,9.39,6.34-3.55,15.48-7.61,20.56-11.93-4.06-7.11-11.93-15.74-17-22.33h0Z"
         id="path145" />
      <path
         class="cls-2"
         d="M469.85,540.78l-27.41-6.85,26.39,13.2,5.08-1.52-4.06-4.82Z"
         id="path146" />
      <path
         class="cls-2"
         d="M450.06,523.53c8.38,6.34,20.56,16.75,28.93,22.08-9.72,4.04-19.29,8.45-28.68,13.2,5.84-4.31,14.47-9.9,18.78-14.72-4.57-6.6-13.2-14.21-19.03-20.56h0Z"
         id="path147" />
      <path
         class="cls-2"
         d="M472.39,542.31l-25.38,6.85h27.16l3.3-4.06-5.08-2.79Z"
         id="path148" />
    </g>
    <path
       class="cls-1"
       d="M506.9,504.49l-20.56-14.21-20.3,14.21,7.61-22.84-18.02-13.96h22.84l7.87-22.84,7.61,22.84h23.09l-17.77,14.21,7.61,22.84v-.25Z"
       id="path149" />
  </g>
</svg>
