<svg xmlns="http://www.w3.org/2000/svg" data-name="Layer 1" viewBox="0 0 960 960"><defs><mask id="a" width="959.91" height="959.91" x="-.25" y=".09" maskUnits="userSpaceOnUse"><circle cx="479.7" cy="480.04" r="479.96" style="stroke-width:0;fill:#fff"/></mask></defs><g style="mask:url(#a)"><path d="M-.25.09h959.91v479.96l-496.83 84.74z" style="fill:#0038a8;stroke-width:0"/><path d="M393.46 480.04h566.2V960H-.25z" style="stroke-width:0;fill:#ce1126"/><path d="M-.25.09V960l479.96-479.96z" style="stroke-width:0;fill:#eee"/><path d="m127.8 187.95 19.5 27.19 31.87-10.12-19.87 27 19.5 27.19-31.87-10.5-19.69 27 .37-33.56-31.87-10.5 31.87-10.12.19-33.56Zm0 496.45 19.5 27.37 31.87-10.12-19.87 26.81 19.5 27.37-31.87-10.69-19.69 27 .37-33.56-31.87-10.5 31.87-10.12zm278.22-248.23-19.5 27-31.87-10.12 19.69 27-19.5 27.37 31.87-10.69 19.87 27-.19-33.56 31.87-10.5-32.06-10.12-.19-33.37Z" style="stroke-width:0;fill:#ffda44"/></g><path d="m185.05 325.37-9.45 9.45 4.58 72-4.72.43-8.59-65.71-7.87 7.73 11.74 58.69c-9.42 1.9-18.37 5.65-26.34 11.02l-33.35-49.82h-11.02l40.37 52.68-3.58 3.01-47.67-54.4H75.69v13.6l54.4 47.67-3.15 3.58-52.68-40.37v11.02l49.82 33.35c-5.32 7.98-9.02 16.93-10.88 26.34L54.51 453.9l-7.87 7.87 65.85 8.59-.57 4.87-72-4.72-9.59 9.45 9.59 9.45 72-4.58.43 4.72-65.71 8.59 7.73 7.87 58.69-11.74c1.9 9.42 5.65 18.37 11.02 26.34l-49.82 33.35v11.02l52.68-40.37 3.01 3.58-54.4 47.67v13.46h13.74l47.67-54.4 3.58 3.15-40.37 52.68h11.02l33.35-49.82c7.98 5.33 16.93 9.03 26.34 10.88l-11.74 58.69 7.87 7.87 8.59-65.85 4.72.57-4.58 72 9.45 9.59 9.45-9.59-4.58-72 4.72-.43 8.59 65.71 7.87-7.73-11.74-58.69c9.42-1.9 18.37-5.65 26.34-11.02l33.35 49.82h11.02l-40.65-52.68 3.58-3.01 47.67 54.4h13.46v-13.6l-54.4-47.67 3.15-3.58 52.68 40.37v-11.02l-49.82-33.35c5.32-7.98 9.02-16.93 10.88-26.34l58.69 11.74 7.87-7.87-65.85-8.59.57-4.72 72 4.58 9.59-9.45-9.59-9.45-72 4.72c0-1.72-.29-3.29-.43-4.87l65.71-8.59-7.73-7.87-58.69 11.74c-1.9-9.42-5.65-18.37-11.02-26.34l49.82-33.35v-11.02l-52.68 40.37-3.01-3.58 54.4-47.67v-13.46h-13.6l-47.67 54.4-3.58-3.15 40.37-52.68h-11.02l-33.35 49.82c-7.98-5.32-16.93-9.02-26.34-10.88l11.74-58.69-7.87-7.87-8.59 65.85-4.72-.57 4.58-72-9.3-9.45Z" style="stroke-width:0;fill:#fcd116"/></svg>