<?xml version="1.0" encoding="UTF-8" standalone="no"?>
<svg
   id="Layer_1"
   data-name="Layer 1"
   viewBox="0 0 960 960"
   version="1.1"
   sodipodi:docname="pg.svg"
   inkscape:version="1.4 (86a8ad7, 2024-10-11)"
   xmlns:inkscape="http://www.inkscape.org/namespaces/inkscape"
   xmlns:sodipodi="http://sodipodi.sourceforge.net/DTD/sodipodi-0.dtd"
   xmlns="http://www.w3.org/2000/svg"
   xmlns:svg="http://www.w3.org/2000/svg">
  <sodipodi:namedview
     id="namedview5"
     pagecolor="#ffffff"
     bordercolor="#666666"
     borderopacity="1.0"
     inkscape:showpageshadow="2"
     inkscape:pageopacity="0.0"
     inkscape:pagecheckerboard="0"
     inkscape:deskcolor="#d1d1d1"
     inkscape:zoom="0.42447917"
     inkscape:cx="254.42945"
     inkscape:cy="566.57669"
     inkscape:window-width="1920"
     inkscape:window-height="1017"
     inkscape:window-x="-8"
     inkscape:window-y="-8"
     inkscape:window-maximized="1"
     inkscape:current-layer="Layer_1" />
  <defs
     id="defs1">
    <style
       id="style1">
      .cls-1 {
        fill: #fc0;
        stroke: #fc0;
        stroke-width: 2.37px;
      }

      .cls-1, .cls-2 {
        stroke-miterlimit: 4.13;
      }

      .cls-3, .cls-4, .cls-5, .cls-6 {
        stroke-width: 0px;
      }

      .cls-3, .cls-2 {
        fill: red;
      }

      .cls-4 {
        fill: #000001;
      }

      .cls-5, .cls-6 {
        fill: #fff;
      }

      .cls-2 {
        stroke: red;
        stroke-width: 3.1px;
      }

      .cls-2, .cls-6 {
        fill-rule: evenodd;
      }

      .cls-7 {
        mask: url(#mask);
      }
    </style>
    <mask
       id="mask"
       x="-.25"
       y=".09"
       width="959.91"
       height="959.91"
       maskUnits="userSpaceOnUse">
      <g
         id="a">
        <circle
           class="cls-5"
           cx="479.7"
           cy="480.04"
           r="479.96"
           id="circle1" />
      </g>
    </mask>
  </defs>
  <g
     class="cls-7"
     mask="url(#mask)"
     id="g3">
    <g
       id="g2">
      <path
         class="cls-4"
         d="M959.66,960l-395.03-535.08L-.25.09v959.91h959.91Z"
         id="path1" />
      <path
         class="cls-3"
         d="M-.25.09l959.91,959.91V.09H-.25Z"
         id="path2" />
    </g>
  </g>
  <g
     id="g4">
    <path
       class="cls-1"
       d="M605.48,266.76l-17.03-.77c-5.22-12.38-19.93-17.03-29.03-11.61-8.13.58-51.28-.77-51.28-.77l31.54,13.74c7.74,21.09,34.83,26.12,34.83,26.12-2.32,38.7-39.28-5.03-70.24,17.03-22.06,13.35-22.45,29.03-34.44,54.76-5.86,8.89-12.32,17.36-19.35,25.35l26.12-1.94-8.32,10.84,30.96-4.45s-4.06,3.48-6.58,6.19c4.64.97,35.41-7.16,35.41-7.16l-2.13,9.87c15.67-6.39,35.22-12.77,35.22-12.77,0,0,6.97,5.81,13.35,8.32l4.45-17.61,17.61,4.45,4.45-17.8c26.51,35.41,35.41,70.82,83.98,79.72l-4.45-17.8c13.55,5.81,38.7,18.19,38.7,18.19l3.87-8.13c21.09,15.09,38.7,14.9,50.31,16.45l-8.71-22.06,8.9,4.45-13.35-35.41,13.35,4.45-17.8-26.51,6.58-4.45-1.94-13.35c26.32,8.9,61.92,22.25,66.18,53.21,4.45,48.57-48.76,61.92-83.98,57.47,26.51,22.06,75.08,13.16,97.33-8.9,8.4-10.37,14.41-22.46,17.61-35.41,4.45,13.35,13.35,30.96,13.35,48.76-4.45,39.67-57.66,53.02-92.88,57.47,39.67,22.06,110.49-4.45,114.94-61.92,0-48.76-30.96-70.82-44.31-92.88-1.7-7.89-3.18-15.83-4.45-23.8,1.94.39,13.35,6.19,13.35,6.19,0,0-7.74-14.71-8.9-17.8,0,0-13.74-37.54-18.77-45.86.77-.58,10.06,1.55,10.06,1.55l-36.38-45.47,10.26-1.16s-41.8-33.09-53.41-37.35l13.35-4.45c-26.7-13.16-57.66-4.45-84.17,13.35l4.45-13.35-8.13.77v-15.09l8.13-12.19-13.16-4.45,8.71-22.06-13.16,4.45,4.45-22.25s-10.06,4.64-16.06,3.87c.19.58,7.16-14.9,7.16-14.9-4.26-6.58,0-19.93,0-19.93-30.96,4.45-35.41,8.9-53.02,35.41-26.7,48.76-17.8,70.82-13.35,119.39h-.19Z"
       id="path3" />
    <path
       class="cls-2"
       d="M772.66,339.51c2.32,3.87,27.28,15.87,46.25,26.7-5.03-20.51-41.99-24.96-46.44-26.7h.19Z"
       id="path4" />
  </g>
  <path
     class="cls-6"
     d="M313.63,829.26l-28.25-18-37.73,18.19,8.51-32.31-29.03-30.38,33.48-1.94,19.93-36.77,12.19,30.96,41.02,7.55-25.74,21.29,5.61,41.41ZM385.8,671.37l-13.16-6.19-12.38,7.16,1.94-14.32-10.84-9.68,14.32-2.71,5.81-13.16,6.97,12.77,14.32,1.55-10.06,10.45,3.1,14.13ZM449.47,580.81l-28.64-13.93-27.86,15.48,4.45-31.35-23.41-21.67,31.35-5.42,13.16-29.03,15.09,28.25,31.54,3.48-21.87,23.22,6.19,30.96ZM318.47,455.03l-33.67-17.03-32.9,18.19,5.42-37.15-27.48-25.93,37.15-6,16.06-34.25,17.42,33.48,37.35,4.64-26.51,27.09,7.16,36.96ZM197.53,585.65l-34.06-20.12-33.86,20.7,8.71-38.7-30.19-25.74,39.47-3.87,15.29-36.57,15.48,36.38,39.67,3.29-29.61,26.12,9.09,38.51Z"
     id="path5" />
</svg>
