<svg xmlns="http://www.w3.org/2000/svg" viewBox="0 0 640 480"><path fill="#ee1c25" d="M0 0h640v480H0z"/><path fill="#0b4ea2" d="M0 0h640v320H0z"/><path fill="#fff" d="M0 0h640v160H0z"/><path fill="#fff" d="M233 371c-43-21-105-62-105-143 0-82 4-119 4-119h202s4 37 4 119-62 122-105 143z"/><path fill="#ee1c25" d="M233 360c-39-19-96-57-96-131s4-109 4-109h184s4 34 4 109c0 74-56 112-96 131z"/><path fill="#fff" d="M241 209c11 0 32 1 51-6l-1 15 1 14c-17-5-38-6-51-5v41h-16v-41c-12-1-33 0-50 5v-29c18 7 39 6 50 6v-26c-10 0-24 1-40 6v-29c16 5 30 6 40 6-1-17-6-37-6-37h28s-5 20-5 37c9 0 23-1 39-6v29a119 119 0 0 0-40-6v26z"/><path fill="#0b4ea2" d="M233 263c-20 0-30 28-30 28s-6-13-23-13c-11 0-19 10-24 19 20 31 52 51 77 63 25-12 57-32 77-63-5-9-13-19-24-19-16 0-22 13-22 13s-11-28-31-28z"/></svg>