<?xml version="1.0" encoding="UTF-8" standalone="no"?>
<svg
   id="Layer_1"
   data-name="Layer 1"
   viewBox="0 0 960 960"
   version="1.1"
   sodipodi:docname="tj.svg"
   inkscape:version="1.4 (86a8ad7, 2024-10-11)"
   xmlns:inkscape="http://www.inkscape.org/namespaces/inkscape"
   xmlns:sodipodi="http://sodipodi.sourceforge.net/DTD/sodipodi-0.dtd"
   xmlns="http://www.w3.org/2000/svg"
   xmlns:svg="http://www.w3.org/2000/svg">
  <sodipodi:namedview
     id="namedview7"
     pagecolor="#ffffff"
     bordercolor="#666666"
     borderopacity="1.0"
     inkscape:showpageshadow="2"
     inkscape:pageopacity="0.0"
     inkscape:pagecheckerboard="0"
     inkscape:deskcolor="#d1d1d1"
     inkscape:zoom="0.42447917"
     inkscape:cx="263.85276"
     inkscape:cy="646.67485"
     inkscape:window-width="1920"
     inkscape:window-height="1017"
     inkscape:window-x="-8"
     inkscape:window-y="-8"
     inkscape:window-maximized="1"
     inkscape:current-layer="Layer_1" />
  <defs
     id="defs1">
    <style
       id="style1">
      .cls-1 {
        fill: #fff;
      }

      .cls-1, .cls-2, .cls-3, .cls-4, .cls-5 {
        stroke-width: 0px;
      }

      .cls-2 {
        fill: #060;
      }

      .cls-3 {
        fill: #f8c300;
      }

      .cls-4 {
        fill: #eee;
      }

      .cls-6 {
        fill: none;
        stroke: #f8c300;
        stroke-miterlimit: 2.93;
        stroke-width: 11.7px;
      }

      .cls-7 {
        mask: url(#mask);
      }

      .cls-5 {
        fill: #c00;
      }
    </style>
    <mask
       id="mask"
       x="-.22"
       y=".09"
       width="959.91"
       height="959.91"
       maskUnits="userSpaceOnUse">
      <g
         id="a">
        <circle
           class="cls-1"
           cx="479.74"
           cy="480.04"
           r="479.96"
           id="circle1" />
      </g>
    </mask>
  </defs>
  <g
     class="cls-7"
     mask="url(#mask)"
     id="g4">
    <g
       id="g3">
      <path
         class="cls-4"
         d="M-.22,271.38l478.64-68.43,481.27,68.43v417.34l-490.27,74.43L-.22,688.71v-417.34Z"
         id="path1" />
      <path
         class="cls-5"
         d="M-.22.09h959.91v271.29H-.22V.09Z"
         id="path2" />
      <path
         class="cls-2"
         d="M-.22,688.71h959.91v271.29H-.22v-271.29Z"
         id="path3" />
    </g>
  </g>
  <g
     id="g7">
    <path
       class="cls-3"
       d="M441.34,468.26c4.76-8.18,15.25-10.96,23.43-6.2,5.12,2.97,8.34,8.38,8.52,14.29v68.57h12.89v-68.57c.29-9.46,8.2-16.9,17.66-16.61,5.91.18,11.32,3.4,14.29,8.52,7.03-21.21-4.46-44.1-25.66-51.13-21.21-7.03-44.1,4.46-51.13,25.66-2.74,8.27-2.74,17.2,0,25.47"
       id="path4" />
    <path
       class="cls-1"
       d="M450.53,450.3c11.55-2.35,23.31,2.95,29.21,13.16,5.89-10.21,17.66-15.51,29.21-13.16-2.22-16.13-17.09-27.41-33.22-25.2-13.1,1.8-23.4,12.1-25.2,25.2"
       id="path5" />
    <path
       id="tj-a"
       class="cls-3"
       d="M473.29,517.49c-2.62,28.66-27.97,49.77-56.63,47.16-11.54-1.05-22.4-5.92-30.86-13.84-11.02,27.81-42.51,41.42-70.32,30.39-4.14-1.64-8.07-3.79-11.69-6.4,5.07,49.92,79.95,39.77,85.43-8.78,23.59,41.28,75.42,29.48,90.51-21.12l-6.45-27.43Z" />
    <path
       id="tj-a-2"
       data-name="tj-a"
       class="cls-3"
       d="M486.18,517.49c2.62,28.66,27.97,49.77,56.63,47.16,11.54-1.05,22.4-5.92,30.86-13.84,11.02,27.81,42.51,41.42,70.32,30.39,4.14-1.64,8.07-3.79,11.69-6.4-5.07,49.92-79.95,39.77-85.43-8.78-23.59,41.28-75.42,29.48-90.51-21.12l6.45-27.43Z" />
    <path
       id="tj-b"
       class="cls-3"
       d="M423.24,606.21c-10.42,22.63-31.27,26.47-49.5,8.23,0,0,7.27-5.21,15.08-6.58-.97-7.08,1.18-14.24,5.9-19.61,5.86,3.8,10.23,9.52,12.34,16.18,10.97-1.37,16.18,1.78,16.18,1.78" />
    <path
       id="tj-b-2"
       data-name="tj-b"
       class="cls-3"
       d="M505.23,603.67c-13.98,20.62-35.17,21-50.18.03,0,0,8.02-3.95,15.96-4.03.2-7.14,3.49-13.85,9.02-18.38,5.16,4.71,8.53,11.06,9.53,17.98,11.05.44,15.67,4.4,15.67,4.4" />
    <path
       id="tj-b-3"
       data-name="tj-b"
       class="cls-3"
       d="M585.69,614.36c-17.13,18.09-38.1,15.04-49.53-8.08,0,0,8.55-2.61,16.4-1.4,1.36-7.02,5.69-13.1,11.87-16.68,4.34,5.48,6.63,12.3,6.5,19.28,10.83,2.22,14.76,6.88,14.76,6.88" />
    <path
       class="cls-6"
       d="M346.72,656.54c86.8-25.84,179.24-25.84,266.03,0"
       id="path6" />
    <g
       id="g6">
      <path
         id="tj-c"
         class="cls-3"
         d="M513.23,319.29l-54.2,39.38,20.7-63.71,20.7,63.71-54.2-39.38h66.99Z" />
      <g
         id="tj-d">
        <path
           id="tj-c-2"
           data-name="tj-c"
           class="cls-3"
           d="M417.24,345.07l-54.2,39.38,20.7-63.71,20.7,63.71-54.2-39.38h66.99Z" />
        <path
           id="tj-c-3"
           data-name="tj-c"
           class="cls-3"
           d="M347.03,415.28l-54.2,39.38,20.7-63.71,20.7,63.71-54.2-39.38h66.99Z" />
        <path
           id="tj-c-4"
           data-name="tj-c"
           class="cls-3"
           d="M321.25,511.27l-54.2,39.38,20.7-63.71,20.7,63.71-54.2-39.38h66.99Z" />
      </g>
      <g
         id="tj-d-2"
         data-name="tj-d">
        <path
           id="tj-c-5"
           data-name="tj-c"
           class="cls-3"
           d="M542.23,345.07l54.2,39.38-20.7-63.71-20.7,63.71,54.2-39.38h-66.99Z" />
        <path
           id="tj-c-6"
           data-name="tj-c"
           class="cls-3"
           d="M612.44,415.28l54.2,39.38-20.7-63.71-20.7,63.71,54.2-39.38h-66.99Z" />
        <path
           id="tj-c-7"
           data-name="tj-c"
           class="cls-3"
           d="M638.22,511.27l54.2,39.38-20.7-63.71-20.7,63.71,54.2-39.38h-66.99Z" />
      </g>
    </g>
  </g>
</svg>
