<svg xmlns="http://www.w3.org/2000/svg" id="Layer_1" data-name="Layer 1" viewBox="0 0 960 960"><defs id="defs1"><style id="style1">.cls-2,.cls-6,.cls-7{fill:#ef7d00;fill-rule:evenodd;stroke:#000}.cls-2,.cls-7{stroke-linecap:round}.cls-6,.cls-7{stroke-linejoin:round}.cls-6{stroke-width:.93px}.cls-2{stroke-miterlimit:4.13}.cls-2,.cls-7{stroke-width:1.03px}</style><mask id="mask" width="959.91" height="959.91" x=".46" y=".09" maskUnits="userSpaceOnUse"><g id="a"><circle id="circle1" cx="480.42" cy="480.04" r="479.96" style="stroke-width:0;fill:#fff"/></g></mask></defs><g id="g5" style="mask:url(#mask)"><g id="g4"><path id="path1" d="M.46.09h959.91v479.96L480.41 960.01H.46z" style="stroke-width:0;fill:#198a00"/><path id="path2" d="M640.34 480.04h160.11l39.56 236.79L800.45 960H640.34l-44.06-239.98z" style="fill:#000001;stroke-width:0"/><path id="path3" d="M480.42 480.04h159.92V960H480.42z" style="stroke-width:0;fill:#de2010"/><path id="path4" d="M800.45 480.04h159.92V960H800.45z" style="fill:#ef7d00;stroke-width:0"/></g></g><g id="g16"><path id="path5" d="M793.25 295.2s58.07-24.71 63.54-29.83c2.65 3-23.12 34.24-73.25 45.89 45.54-10.94 84.37-44.65 92.13-43.6 2.29.53 1.77 33.01-102.37 61.07 72.01-18.89 114.02-53.66 113.49-49.77.53.71-7.06 27.36-70.25 48.01 17.65-4.06 65.31-33.18 64.78-27.53 1.59 2.29-46.24 63.54-132.55 43.6 68.84 18 113.67-25.24 120.02-24.53 1.41.35-12.71 37.77-99.55 40.07 41.65-4.24 29.65-.18 29.65-.18s-24.71 19.24-54.19 6.18c23.3 6.35 25.77 6.53 26.3 8.65-1.59 2.47-20.65 6.35-39.18-3.53 14.83 6 28.24 7.06 28.42 9.35-5.3 3.76-12.12 4.62-18.18 2.29-8.3-3.71-86.13-51.54-86.13-51.54l132.38-36.36zM637.58 424.58c-5.81-.68-11.07 3.47-11.76 9.28-.04.32-.06.64-.07.96 0 0-1.06.88-.35 5.82.8-1.55 1.75-3.03 2.82-4.41 1.24 0 6.71 1.77 15-4.77-7.59 7.94-3 10.94-3 10.94s-1.77 6.35 4.06 7.59c-1.77-2.65-.71-4.77-.71-4.77s8.12-.88 7.59-10.94c.35 9 5.3 11.3 5.3 11.3s0 4.94 5.3 5.3c-2.82-2.47-2.29-6.35-2.29-6.35s7.06-5.12 1.06-13.59c3.53-1.94 6.53-7.59 6.53-7.59s-4.94-2.12-7.06-3.88c-1.06-2.12 0-14.47 0-14.47l-3-15.89-8.3 24.71c.35-3.53.53 10.59-11.12 10.59v.18Z" class="cls-6"/><path id="path6" d="M695.12 388.75c.18.35 8.83 9.71 16.94 9.18 3-2.47-6.53-8.12-6.53-9.35 3.53 3 17.47 15 26.48 10.59 3.53-4.94-6.53-4.24-17.47-18 7.59 5.12 26.83 16.41 35.83 12 3.71-4.06-19.94-16.94-27.89-26.83l-20.47-10.59-27.89 22.95 21 10.06Z" class="cls-6"/><path id="path7" d="M663.7 311.09s9.53-5.65 47.3-2.82c4.06.53 25.77-7.41 32.65-9.71 10.94-1.94 45.89-9.71 55.42-16.77 6.71-.88-1.77 12.36-10.24 15.36-8.83 4.06-41.3 15.36-52.95 13.77 13.94.18 6.18 11.47-16.77 6 10.94 6.18 7.06 7.24 7.06 7.24s-19.42 1.06-24.71-3.35c13.06 4.94 7.77 6.71 7.77 6.71s-13.41 1.24-19.42-1.59c9.35 2.82 4.59 4.59 4.59 4.59s-7.77 1.24-14.12-1.06c-6.35-2.29-16.06-18.36-16.59-18.36" style="fill:#ef7d00;fill-rule:evenodd;stroke:#000;stroke-linecap:round;stroke-linejoin:round;stroke-width:.93px"/><path id="path8" d="m678.88 394.04 1.41 25.06-1.41 1.94c-.71.88-17.65-2.65-15.36 10.59 0 5.3 0 6.53 3.53 9.53-.88-3.53-.53-6-.53-6s4.77 3 9.53-4.94c-3.18 7.77-.88 10.59-.18 10.59.71 1.59-1.24 7.94 5.12 7.77-2.47-2.29-1.24-5.82-1.24-5.82s6.71-1.06 4.24-13.24c2.47-2.47 3.53 0 3.53 0s.71 7.06 6.53 5.65c2.65 1.59-.35 5.47-.35 5.47s4.24 0 5.47-3.53c1.41-3.53 2.82-10.06-4.24-12.71-.88-2.65 2.82-2.82 2.82-2.82s4.41 1.41 5.82 3.71c1.24 2.29.71-5.82-4.77-6.71-6.88-.18-7.24-1.77-7.24-1.94l-1.77-23.3-10.94.71Z" class="cls-6"/><path id="path9" d="M702.71 415.4c0-1.24-11.65-16.94-8.83-19.06 3 .71 7.94 7.94 11.83 5.47-1.06-2.82-4.59-1.24-8.83-8.3-3.88-8.12-4.41-20.3-18.53-33.54 9.18 14.12 29.83 22.24 30.71 18s-18.18-19.42-17.3-23.3c3.71 7.77 22.95 24.71 37.07 23.47.88-3.35-11.65-10.06-14.83-16.24-8.83-6-33.01-26.83-33.54-31.59-4.18-7.22-9.9-13.43-16.77-18.18-1.06-1.06-1.24-2.29-1.41-3-5.47-12.71 1.77-16.94 6-17.65 3.53-.18 4.41.18 7.06-.88l-9-3.53c3.88 2.82 13.77.35 11.47 8.47 4.41-1.59 13.59-12.36-10.41-15-7.77-8.83-39.71-14.12-47.66 24.89.53.53.88 1.06 3 2.65-10.24-4.94-37.42-8.83-47.3-10.24-26.48-7.77-54.01-26.12-56.66-24-3.53 1.77 15.89 19.94 15 20.3-17.12-9.88-32.48-16.94-46.95-23.3-10.24-3.88-20.3-12.71-21.53-10.94-3.53 7.77 16.41 27.18 20.12 29.48 3.53 2.12 33.01 15.89 32.48 15.89-44.13-19.94-51.54-23.65-53.66-25.95-3.88-.88-13.41-13.59-15.89-12.88-1.59 1.41 1.24 21.71 22.42 30.71 3.53 2.47 45.01 17.65 44.65 18.71l-49.6-20.47c-9.18-3.53-20.47-16.24-22.59-14.83-1.94 1.41 5.3 15 14.47 19.42 4.94 2.12 23.47 11.3 40.42 17.12 1.06.53-30.18-11.83-45.36-18.18-6.71-3.53-10.06-8.47-10.94-7.41-1.77 1.06 2.47 21.18 50.83 32.65 1.24.53 16.94-3.71 16.24-3.18-8.94 2.22-18.02 3.81-27.18 4.77-.53 1.41 3 8.65 28.06 7.06 3.18 0 20.47-6.18 19.06-4.94-.71.71-23.65 8.12-25.42 8.3-1.41 0-9.53 1.06-9.71 1.77-.35 1.24 5.82 6.35 19.42 7.06 11.83.71 34.24-7.06 33.89-6.53-.53.53-21.71 7.77-22.42 8.12-.71.53-8.47.88-8.83 1.59-.53 1.41 11.3 12.53 46.42.71-3.53 4.77-20.47 7.94-20.47 8.83 0 .71 3.71 4.41 9.71 5.65 3 .71 7.06.53 10.59 0 8.72-1.71 16.71-6.02 22.95-12.36.88 2.65-22.42 14.65-21.36 15.71 5.12 4.77 21.89-.71 22.95-1.24 11.37-6.01 22.29-12.85 32.65-20.47.53 2.65-40.6 25.06-40.07 25.95 2.65 4.06 16.77-.35 17.3-.71l18.36-9.88c.53-.35-20.12 12.18-18.36 14.12-.88 7.94 32.3-5.65 34.95-7.41 1.24-.88-15.89 7.59-15.89 11.65 5.3 9.35 23.3 6.35 25.95 4.24 1.41-.88-1.77 7.06-.71 6.35 2.13-2.19 3.92-4.69 5.3-7.41-.35 2.65-2.47 6.71-3.53 11.47s-1.41 10.24-3 15.89c-.35 2.47 10.94-4.94 9.35-22.59.88 9.18-3.53 26.48-2.47 27.18 2.47 1.77 8.83-8.47 9.71-15.53 1.77 3.53 6 10.94 9.53 12.71-.35-5.3 0-5.3-1.59-10.41.88-7.06 1.06-16.59 1.24-27.53 9.71 18.36 13.41 26.12 10.77 40.24 2.82 1.24 7.41-9.88 7.06-15.53 3.53 15.89 19.42 18.18 19.77 17.65h-.18Z" class="cls-7"/><path id="path10" d="M543.15 298.91s-6.53 4.94-14.65 4.59c1.94 8.12 18.89 1.94 18.89 1.94s-8.12 9-14.12 10.59c3.53 2.65 18.18 1.77 20.65.35 2.47-1.59 6.88-7.06 6.88-7.06s-15 17.3-17.3 17.12c-.18 1.94 15.89 1.24 19.24-1.77 3.35-3 11.65-7.59 11.65-7.59s-22.06 15.36-22.95 15.36c8.12 2.29 24.71-2.47 35.3-9-15.71 10.41-17.12 12.36-25.06 15.89 7.06 1.41 10.59 6.18 34.77-4.24 13.77-6.53 21.53-18.36 21.53-18.36-10.49 12.3-23.03 22.69-37.07 30.71-.71 1.77 16.06 8.83 37.59-13.41" class="cls-7"/><path id="path11" d="M659.64 347.27s1.41 6.88 7.06 12c5.82 5.3 6.35 10.41 6.35 10.41m-16.41-66.71s2.12 6.18 7.94 10.06c6.37 5.1 11.75 11.32 15.89 18.36 1.82 7.8 3.18 15.69 4.06 23.65m-64.78-42.72c.35 2.47-8.47 14.12 3.71 27.89-11.12 13.59-11.12 15.36-11.12 15.36s6.18 3.53 17.47-6.18c18.36 22.59 12.36 33.01 12.36 33.01" class="cls-2"/><path id="path12" d="M640.4 366.51s-1.59-2.47 1.41-11.47c2.82 3.18 5.82 3.88 7.06 5.3 1.24 1.41 15.36 3.35 16.24 12.53" class="cls-7"/><path id="path13" d="M656.82 281.44c0-.71-2.82-6.71-13.24.71 5.65.35 11.12 3.53 13.24-.71Z" style="fill:#ef7d00;fill-rule:evenodd;stroke:#000;stroke-miterlimit:4.13;stroke-width:1.03px"/><path id="path14" d="M756.36 308.79c.53.35 31.24 7.06 41.48 3.53-13.06 17.47-39.18 5.65-39.18 5.65 12.88 3.88 13.41 3.53 17.47 7.06 1.24 3.53-23.47 1.94-31.77-2.65 22.95 7.06 23.3 6.71 24 9.35 1.06 3.88-37.07-.88-40.6-6 10.24 7.94 15.89 9.35 21.53 13.06-7.06 3-19.77 6-43.24-10.59 30.89 28.24 58.77 26.48 63.19 31.42-10.77 15.89-52.42-9.35-71.66-22.24-19.06-12.71 42.01 30.89 47.66 30.18-2.82 4.41-22.95.53-24.36-1.59" style="fill:#ef7d00;fill-rule:evenodd;stroke:#000;stroke-linejoin:round;stroke-width:1.03px"/><path id="path15" d="M764.31 338.27c-3.53.53-14.12.53-15.89.18" class="cls-2"/><path id="path16" d="M534.15 294.32s23.3 12.36 33.18 11.47c-2.65 2.47-6.53 3.53-6.53 3.53 2.47.88 9.18 4.59 19.42 2.12-2.29 2.47-5.47 5.3-5.47 5.3s8.83 3.35 18.71-1.77c-1.7 2.03-3.29 4.16-4.77 6.35l7.06.53" class="cls-7"/></g></svg>