<svg xmlns="http://www.w3.org/2000/svg" viewBox="0 0 512 512"><path fill="#fff" fill-rule="evenodd" d="M262.4 17.19C235.2 26 208.4 45.2 190.04 72.72c17.55 47.9 17.55 57.26 0 105.16 19.92 15.46 40.3 24.76 60.78 27.47-2.06-25.57-3.63-51.13 1.13-76.7-13.63-1.48-23.38-5.99-37-13.87V82.56c35.86 19.1 61.84 18.78 98.81 0v32.22c-13.36 6.5-21.89 11.16-35.25 13.22 3.61 25.57 3.48 51.15 1.38 76.72 18.64-3.26 37.23-12.11 55.5-26.84-14.36-47.9-14.36-57.26 0-105.16-16.99-28-47.46-46.63-72.97-55.53zM132.82 25.4c-25.9 110.41-27.35 215.33-27.4 330.92A244.97 244.97 0 0 1 49.4 345.2v28.55h69.06c8.72 35.03 6.47 70.05-1.03 105.08h28.13c-7.2-35.03-8.24-70.05-.88-105.08h68.9v-28.55a356.8 356.8 0 0 1-56.09 10.46c.08-114.94 2.5-223.07-24.67-330.26zm89.47 202.37c0 117.27 25.52 233.34 120.16 257.97 104.18-21.03 120.28-140.38 120.28-257.97H222.28z"/></svg>