<svg xmlns="http://www.w3.org/2000/svg" viewBox="0 0 512 512"><path fill="#fff" d="M263.6 20.63c-13.4 0-25.83 7.21-35.48 20.18-9.64 12.97-15.96 31.55-15.96 52.25s6.32 39.25 15.97 52.22c9.64 12.97 22.07 20.2 35.46 20.2 13.4 0 25.86-7.23 35.5-20.2 9.65-12.97 15.97-31.51 15.97-52.22 0-20.7-6.32-39.28-15.97-52.25-9.64-12.97-22.1-20.18-35.5-20.18zM153.18 25l-16.57 8.63 60.5 116.06a71.83 71.83 0 0 1 8.72-4.03c-7.71-13.32-12.57-29.55-13.84-46.2L153.19 25zM374 25l-39.31 75.44c-1.32 15.67-5.8 31-12.85 43.78a78.08 78.08 0 0 1 9.2 3.66l59.55-114.25L374 25zM102.69 64.84 88.8 77.37l84.13 93.2c3.88-5 8.21-9.52 13.06-13.45l-83.31-92.28zm321.84 0-81.47 90.22A72.51 72.51 0 0 1 356.6 168l81.82-90.63-13.88-12.53zM63.06 117.7 53 133.44l103.88 66.4c2.28-5.96 4.93-11.7 7.97-17.06l-101.79-65.1zm401.1 0-98.88 63.25a115.6 115.6 0 0 1 7.72 17.25l101.22-64.75-10.06-15.75zm-153.28 42.78c-12.17 14.36-28.78 23.69-47.28 23.69-18.06 0-34.3-8.89-46.38-22.66-25.12 6.9-38.6 27.53-46.94 57.34-8.19 29.3-9.91 66.26-10.15 101.57h26l-3.5-67.72 18.68-.94 4.13 80 11.22 163.78h38V362.97h18.68v132.56h40.82l9.97-164.47 4.09-79.31 18.65.94-3.5 67.72h23.82c-.02-35.72-.43-73.28-7.85-102.82-4.03-16.05-10.07-29.54-18.62-39.37-7.53-8.65-16.89-14.76-29.85-17.75zM36.97 180.03l-5.32 17.9 116.28 34.54a227.67 227.67 0 0 1 4.25-18.25L36.97 180.03zm453.28 0-112.69 33.44a219.57 219.57 0 0 1 3.72 18.4l114.28-33.93-5.31-17.9zM26.22 247.7v18.69h117.22c.54-6.3 1.22-12.54 2.06-18.7H26.22zm357.12 0c.65 6.16 1.11 12.4 1.47 18.69h116.16v-18.7H383.34zm-241.03 35.6L31.65 316.12l5.32 17.93 104.59-31.03c.15-6.56.41-13.16.75-19.75zm243.22.18c.19 6.57.27 13.1.32 19.63l104.4 30.97 5.31-17.94-110.03-32.66zm-244.18 40.69L53 380.66l10.06 15.72 89.56-57.29h-11.3v-9.34l.02-5.6zm244.56.03v14.9H374.6l89.56 57.29 10.06-15.72-88.31-56.47zm-208.97 14.9L88.8 436.73l13.88 12.53 85.56-94.78-1.06-15.38h-10.25zm165.44 0-1.1 17.94 83.25 92.22 13.88-12.53-88.13-97.62h-7.9zm-152.5 39.16-53.25 102.19 16.56 8.66 39.16-75.13-2.47-35.72zm149.84 4.6-2.19 36.25 36.47 70 16.6-8.66-50.88-97.6z"/></svg>