<svg xmlns="http://www.w3.org/2000/svg" viewBox="0 0 512 512"><path fill="#fff" d="m104.53 75.19.06 11.75c.8 109.9 50.06 220 147.41 314.06l6.5 6.28L265 401c96.77-93.85 146.97-204.03 147.84-314.06l.1-11.72-11.47 2.53C321.2 95.46 196.2 95.67 116 77.75l-11.47-2.56zm33.9 32.47 11.45 2.56c60.96 13.62 156.67 13.46 217.68 0l11.47-2.53-.1 11.72c-.66 84.91-39.45 169.85-113.9 242.06l-6.46 6.28-6.5-6.28C177.16 289.09 139.1 204.2 138.5 119.4l-.06-11.75zm221.41 22.97c-60.41 11.24-141.78 11.38-202.25.03 3.6 73.1 36.77 146.23 100.94 210.84 63.85-64.5 97.63-137.75 101.32-210.88zM19.62 267.13 123 433.47l17.9-51.32 96.2 88.16-103.38-166.34-17.9 51.31-96.2-88.15zm470.54 0-96.22 88.15-17.88-51.3-103.4 166.33 96.18-88.16 17.91 51.32 103.4-166.35z"/></svg>