<svg xmlns="http://www.w3.org/2000/svg" viewBox="0 0 512 512"><path fill="#fff" d="M256 34.16c-.14.22-.17.2-.31.45-1.98 3.46-4.37 9.25-6.72 16.35-4.7 14.18-9.44 33.67-13.58 53.22a1423.36 1423.36 0 0 0-14.12 78.38c.1 1.4 1.88 4.45 8 7.43 6.3 3.07 15.98 5.3 26.73 5.3s20.43-2.23 26.73-5.3c6.12-2.99 7.91-6.03 8-7.43l-.14-1.07-.78-5.16a1418.19 1418.19 0 0 0-13.2-72.15c-4.14-19.55-8.87-39.04-13.57-53.22-2.35-7.1-4.75-12.89-6.72-16.35-.14-.25-.18-.23-.32-.45zM87.07 53.22c-39.8 29.84-65.18 69.95-65.18 114.29 0 30.93 11.92 59.88 32.65 84.7l27.13-78.24C70.33 156.52 64 137.08 64 116.6c0-22.99 8.95-44.34 23.07-63.37zm337.88.02C439.05 72.27 448 93.62 448 116.6c0 20.5-6.33 39.93-17.66 57.38l27.12 78.2c20.72-24.8 32.64-53.75 32.64-84.67 0-44.34-25.38-84.45-65.16-114.27zm-210.69 75.8c-36.2 9.18-61.82 31.9-80.56 70.24-24.9 50.92-35.99 130.4-36.3 239.64 43.72 24.58 91.33 38.24 139.98 40.77-.34-38.18-6.92-98.55-11.7-137.7-66.9-5.93-95.84-29.49-95.84-29.49s3.78-27.68 6.4-39.93A368.36 368.36 0 0 0 256 291.79a368.8 368.8 0 0 0 119.76-19.22c2.62 12.25 6.4 39.93 6.4 39.93s-27.97 24-95.87 29.65c-4.78 39.15-11.35 99.41-11.7 137.54 48.66-2.53 96.27-16.19 140-40.77-.32-109.24-11.41-188.72-36.3-239.64-18.74-38.35-44.37-61.06-80.57-70.24 1.77 9.38 3.32 18.15 4.62 25.75l1.04.55c12.55 6.98 21.67 17.51 23.54 30.36l6.01 41.3-.82 1.99c-5.28 12.98-18.74 20.3-33.1 25.65-14.36 5.35-30.25 8.23-42.95 8.36h-.15c-12.7-.13-28.58-3.02-42.94-8.36-14.37-5.34-27.82-12.67-33.1-25.65l-.82-2 6-41.3c1.87-12.84 11-23.37 23.54-30.35l1.04-.55c1.3-7.6 2.86-16.37 4.62-25.75zm-112.41 35.18-41.44 119.5 29.7 13.7c6.07-42.1 15.6-77.02 29.33-105.1a184.09 184.09 0 0 1 10.81-19.2l-28.4-8.9zm308.31 0-28.41 8.9a184.06 184.06 0 0 1 10.8 19.19c13.74 28.1 23.27 63 29.34 105.12l29.71-13.72-41.44-119.5zM202.1 183.37a18.54 18.54 0 0 0-1.33 4.61l-5.28 36.34c2.94 4.9 11.57 11.18 23.02 15.44 12.41 4.61 27.2 7.24 37.5 7.36 10.28-.11 25.06-2.74 37.48-7.36 11.45-4.26 20.07-10.54 23.02-15.45l-5.29-36.33a18.5 18.5 0 0 0-1.32-4.61c-1.1.38-2.22.74-3.37 1.1-.98 9.08-8.33 15.64-16.85 19.79-9.16 4.46-20.84 6.9-33.68 6.9s-24.52-2.44-33.68-6.9c-8.52-4.15-15.87-10.71-16.85-19.78-1.15-.37-2.28-.74-3.37-1.11z"/></svg>