<svg xmlns="http://www.w3.org/2000/svg" viewBox="0 0 512 512"><path d="M311.133 257.95a15.074 15.074 0 0 1-12.845 17.026l-147.248 20.61-21.33 32.522-82.637 11.57 21.33-32.568-24.547 3.44c-.278 0-.555.12-.843.165a15.218 15.218 0 0 1-2.108.144 15.074 15.074 0 0 1-2.074-30.016c.29 0 .567 0 .855-.078l24.547-3.438-29.45-25.512 82.582-11.547 29.45 25.51 147.26-20.608a15.196 15.196 0 0 1 2.107-.145 15.085 15.085 0 0 1 14.953 12.923zm-36.704-38.546a32.4 32.4 0 0 1 10.847-10.326 23.427 23.427 0 0 1 13.422-3.04 27.875 27.875 0 0 1 13.542 5.047 44.557 44.557 0 0 1 11.924 12.59 66.342 66.342 0 0 1 8.386 19.134 77.48 77.48 0 0 1 2.562 21.995 67.895 67.895 0 0 1-3.494 19.966 46.132 46.132 0 0 1-8.54 15.352 28.163 28.163 0 0 1-12.402 8.552 23.382 23.382 0 0 1-13.765.255 32.012 32.012 0 0 1-12.512-7.122 45.478 45.478 0 0 1-5.734-6.2l-32.278 4.514a131.154 131.154 0 0 0 7.1 15.973 104.566 104.566 0 0 0 18.656 25.512 69.016 69.016 0 0 0 23.893 15.806 48.373 48.373 0 0 0 27.597 2.22 53.43 53.43 0 0 0 26.31-14.876c7.898-7.853 14.42-18.258 19.112-30.514a131.997 131.997 0 0 0 8.32-41.995 153.26 153.26 0 0 0-5.48-46.92 128.758 128.758 0 0 0-18.49-39.932c-7.6-10.726-16.417-18.946-25.78-24.403a52.998 52.998 0 0 0-27.962-7.62 48.573 48.573 0 0 0-26.278 8.718 69.88 69.88 0 0 0-20.165 21.897 107.505 107.505 0 0 0-11.99 29.516A137.144 137.144 0 0 0 237.68 235l31.192-4.37a49.172 49.172 0 0 1 5.557-11.226zm198.305-34.984c-10.926-35.274-27.287-64.757-46.842-87.374-18.557-21.518-39.544-36.26-61.118-44.213-20.155-7.41-40.564-8.74-59.953-4.248-18.058 4.204-35.196 13.466-50.603 27.62-14.42 13.21-26.09 29.626-35.185 47.807a233.224 233.224 0 0 0-19.29 56.57 286.023 286.023 0 0 0-5.856 60.674l22.582-3.16a209.143 209.143 0 0 1 5.047-40.344 166.26 166.26 0 0 1 15.972-42.926c7.365-13.4 16.716-25.124 27.997-34.087 11.89-9.44 24.88-14.986 38.3-16.64 14.165-1.774 28.773.744 42.938 7.51 14.863 7.1 29.084 18.78 41.485 34.774 12.856 16.572 23.515 37.46 30.66 61.917a225.515 225.515 0 0 1 8.74 74.65c-1.254 24.05-6.4 46.422-14.72 65.656-8.042 18.58-18.857 33.887-31.824 44.88-12.313 10.47-26.345 16.915-41.463 18.656a76.226 76.226 0 0 1-41.163-7.1c-12.313-5.722-23.826-14.485-34.03-25.51a162.212 162.212 0 0 1-25.724-37.637 204.584 204.584 0 0 1-14.542-38.578l-22.484 3.106a280.965 280.965 0 0 0 19.966 57.823 228.2 228.2 0 0 0 32.168 50.092c12.99 15.186 27.82 27.83 43.914 36.793 17.18 9.574 36.027 15.064 55.705 14.865 21.263-.21 41.44-7.022 59.52-19.778 19.356-13.654 36.005-33.897 48.617-59.432 13.244-26.82 21.697-58.788 24.048-93.64a300.742 300.742 0 0 0-12.856-108.76z" fill="#fff"/></svg>