<svg xmlns="http://www.w3.org/2000/svg" viewBox="0 0 512 512"><path fill="#fff" d="M256 16C123.45 16 16 123.45 16 256s107.45 240 240 240 240-107.45 240-240S388.55 16 256 16zm0 60c99.41 0 180 80.59 180 180s-80.59 180-180 180S76 355.41 76 256 156.59 76 256 76zm0 30c-66.27 0-120 40.3-120 90 0 30 60 30 60 0 0-16.57 26.86-30 60-30s60 13.43 60 30-30 15-60 30a19.6 19.6 0 0 0-4.69 3.28C226.53 244.98 226 271.93 226 286v15c0 16.62 13.38 30 30 30 16.62 0 30-13.38 30-30v-15c0-45 90-40.3 90-90s-53.73-90-120-90zm0 240a30 30 0 0 0-30 30 30 30 0 0 0 30 30 30 30 0 0 0 30-30 30 30 0 0 0-30-30z"/></svg>