<svg xmlns="http://www.w3.org/2000/svg" viewBox="0 0 512 512"><path fill="#fff" d="m286.31 15.69-27.34 93.44-99.35-81.2 2.85 59.63-62.5-71.31 55.4 155.1-109.84-17.7 71.44 67.82-99.5 41.8 113.97 24.1-66.88 97.75 86.72.47.27-.16-53.22 76.99 98.78-66.07 25.55 94.3 60.84-105.9 51.31 99.97-20.25-102.88 114.97 42.66-41-125.6 74.22-90-88.25-9.02 98-112.2-118.53 76.5 12.44-120.24-70.63 74.97-9.47-103.22zM222.1 107.9c-1.85 32.58 5.54 54.6 29.22 88.75 3.5 5.05 8 11.39 13.22 18.5 27.25-31.72 53.06-65.5 72.28-95.88 9.52 26.45-16.48 79.21-51.03 123.75 14.97 18.87 32.62 39.58 51.04 57.97l17.78-17.78 13.22 13.22-23.66 23.65 42.03 42.03-13.22 13.22-42.03-42.02-23.66 23.65-13.21-13.22 18.18-18.19a640.24 640.24 0 0 1-49.97-54.93c-12.22 12.98-24.73 24.26-36.56 32.56 5.87 14.06 3.94 31.5-11.75 47.18l-23.65-23.68-48.66 48.65-13.22-13.22 48.62-48.62-23.62-23.66c15.81-15.8 35.03-16.87 50.1-9.68 12-11.6 24.5-24.45 37.03-38.07a492.49 492.49 0 0 1-32.47-51.84c-23.31-43.25-21.74-65.31 14-82.34z"/></svg>