<svg xmlns="http://www.w3.org/2000/svg" viewBox="0 0 512 512"><path d="m311.313 25.625-23 10.656-29.532 123.032 60.814-111.968-8.28-21.72zM59.625 50.03c11.448 76.937 48.43 141.423 100.188 195.75a3267.323 3267.323 0 0 0 42.718-29.405c-22.156-27.314-37.85-56.204-43.593-86.28-34.214-26.492-67.613-53.376-99.312-80.064zm390.47.032C419.178 76.1 386.64 102.33 353.31 128.22c-10.333 58.234-58.087 112.074-118.218 158.624-65.433 50.654-146.56 92.934-215.28 121.406l-.002 32.78c93.65-34.132 195.55-81.378 276.875-146.592 79.035-63.378 138.329-143.063 153.41-244.375zm-236.158 9.344-8.5 27.813 40.688 73.06-6.875-85.31-25.313-15.564zm114.688 87.813C223.39 227.47 112.257 302.862 19.812 355.905V388c65.917-27.914 142.58-68.51 203.844-115.938 49.83-38.574 88.822-81.513 104.97-124.843zm-144.563 2.155c7.35 18.89 19.03 37.68 34 56.063 7.03-4.98 14.056-10.03 21.094-15.094-18.444-13.456-36.863-27.12-55.094-40.97zM352.656 269.72c-9.573 9.472-19.58 18.588-29.906 27.405 54.914 37.294 117.228 69.156 171.906 92.156V358.19c-43.86-24.988-92.103-55.13-142-88.47zm-44.906 39.81c-11.65 9.32-23.696 18.253-36.03 26.845 70.326 45.135 149.33 79.775 222.935 106.375v-33.22c-58.858-24.223-127.1-58.727-186.906-100zm-58.625 52.033-46.188 78.25 7.813 23.593 27.75-11.344 10.625-90.5zm15.844.812L316.343 467l36.47 10.28-3.533-31.967-84.31-82.938z" fill="#fff"/></svg>