<svg xmlns="http://www.w3.org/2000/svg" viewBox="0 0 512 512"><path fill="#fff" d="M78.53 157.19c-23.84 0-43.93 21.36-50.28 50.6a32.76 32.76 0 0 0-6.75 19.87c0 7.5 2.56 14.46 6.84 20.03 6.48 28.96 26.49 50.06 50.2 50.06 24.28 0 44.71-22.17 50.65-52.25h105.78v65.6h19.31v-44.22h18.69v44.22h20.1V286h18.68v25.1h15.13v-65.6h17.97v-33.47h-215.2c-5.24-31.38-26.13-54.84-51.12-54.84zm345.91 12.09c-31.78 0-57.81 26.04-57.81 57.81a57.8 57.8 0 0 0 20.47 44.32l-25.22 72.93-4.28 12.41h133.12l-4.31-12.4-25.2-72.94a57.82 57.82 0 0 0 20.48-44.32c0-31.64-25.47-57.8-57.25-57.8zm0 18.69c21.62 0 38.56 17.37 38.56 39.12 0 14-7.06 26.12-17.87 33l-6.22 3.97 2.4 6.97 23.16 67.03h-80.66L407 271.03l2.4-6.97-6.21-3.97a38.79 38.79 0 0 1-17.88-33 39.11 39.11 0 0 1 39.13-39.12zm-369.97 25.4c8 0 14.31 6.28 14.31 14.28 0 8-6.3 14.29-14.3 14.29-8.01 0-14.29-6.28-14.29-14.28 0-8 6.28-14.28 14.28-14.28z"/></svg>